<?xml version="1.0" encoding="UTF-8" standalone="no"?>
<!DOCTYPE svg PUBLIC "-//W3C//DTD SVG 1.1//EN"
 "http://www.w3.org/Graphics/SVG/1.1/DTD/svg11.dtd">
<!-- Generated by graphviz version 2.43.0 (0)
 -->
<!-- Title: %3 Pages: 1 -->
<svg width="393pt" height="180pt"
 viewBox="0.00 0.00 393.28 180.02" xmlns="http://www.w3.org/2000/svg" xmlns:xlink="http://www.w3.org/1999/xlink">
<g id="graph0" class="graph" transform="scale(1 1) rotate(0) translate(4 176.02)">
<title>%3</title>
<polygon fill="white" stroke="transparent" points="-4,4 -4,-176.02 389.28,-176.02 389.28,4 -4,4"/>
<!-- &#45;1 -->
<g id="node1" class="node">
<title>&#45;1</title>
<polygon fill="lightgray" stroke="black" points="133.44,-172.02 107.44,-172.02 107.44,-154.02 133.44,-154.02 133.44,-172.02"/>
<text text-anchor="middle" x="120.44" y="-160.82" font-family="Times,serif" font-size="9.00">&#45;1</text>
</g>
<!-- 0 -->
<g id="node13" class="node">
<title>0</title>
<ellipse fill="lightblue" stroke="black" cx="164.44" cy="-93.28" rx="16.03" ry="16.03"/>
<text text-anchor="middle" x="164.44" y="-91.08" font-family="Times,serif" font-size="9.00">0</text>
</g>
<!-- &#45;1&#45;&gt;0 -->
<g id="edge10" class="edge">
<title>&#45;1&#45;&gt;0</title>
<path fill="none" stroke="red" stroke-width="0.23" d="M125.66,-153.99C131.72,-144.65 141.98,-128.85 150.42,-115.85"/>
<polygon fill="red" stroke="red" stroke-width="0.23" points="153.39,-117.71 155.9,-107.41 147.52,-113.89 153.39,-117.71"/>
</g>
<!-- &#45;2 -->
<g id="node2" class="node">
<title>&#45;2</title>
<polygon fill="lightgray" stroke="black" points="309.44,-172.02 283.44,-172.02 283.44,-154.02 309.44,-154.02 309.44,-172.02"/>
<text text-anchor="middle" x="296.44" y="-160.82" font-family="Times,serif" font-size="9.00">&#45;2</text>
</g>
<!-- &#45;3 -->
<g id="node3" class="node">
<title>&#45;3</title>
<polygon fill="lightgray" stroke="black" points="42.44,-102.28 16.44,-102.28 16.44,-84.28 42.44,-84.28 42.44,-102.28"/>
<text text-anchor="middle" x="29.44" y="-91.08" font-family="Times,serif" font-size="9.00">&#45;3</text>
</g>
<!-- 1 -->
<g id="node14" class="node">
<title>1</title>
<ellipse fill="lightblue" stroke="black" cx="179.44" cy="-16.26" rx="16.03" ry="16.03"/>
<text text-anchor="middle" x="179.44" y="-14.06" font-family="Times,serif" font-size="9.00">1</text>
</g>
<!-- &#45;3&#45;&gt;1 -->
<g id="edge12" class="edge">
<title>&#45;3&#45;&gt;1</title>
<path fill="none" stroke="green" stroke-width="0.82" d="M35.62,-83.92C39.66,-78.91 45.32,-72.73 51.44,-68.53 83.65,-46.38 126.86,-31.63 153.92,-23.85"/>
<polygon fill="green" stroke="green" stroke-width="0.82" points="155.08,-27.16 163.78,-21.12 153.21,-20.41 155.08,-27.16"/>
</g>
<!-- &#45;4 -->
<g id="node4" class="node">
<title>&#45;4</title>
<polygon fill="lightgray" stroke="black" points="221.44,-172.02 195.44,-172.02 195.44,-154.02 221.44,-154.02 221.44,-172.02"/>
<text text-anchor="middle" x="208.44" y="-160.82" font-family="Times,serif" font-size="9.00">&#45;4</text>
</g>
<!-- &#45;4&#45;&gt;0 -->
<g id="edge2" class="edge">
<title>&#45;4&#45;&gt;0</title>
<path fill="none" stroke="red" stroke-width="0.97" d="M203.22,-153.99C197.15,-144.65 186.89,-128.85 178.45,-115.85"/>
<polygon fill="red" stroke="red" stroke-width="0.97" points="181.35,-113.89 172.97,-107.41 175.48,-117.71 181.35,-113.89"/>
</g>
<!-- 121 -->
<g id="node15" class="node">
<title>121</title>
<ellipse fill="white" stroke="black" cx="241.44" cy="-93.28" rx="25" ry="25"/>
<text text-anchor="middle" x="241.44" y="-91.08" font-family="Times,serif" font-size="9.00">121</text>
</g>
<!-- &#45;4&#45;&gt;121 -->
<g id="edge16" class="edge">
<title>&#45;4&#45;&gt;121</title>
<path fill="none" stroke="red" stroke-width="0.11" d="M212.35,-153.99C215.86,-146.78 221.25,-135.72 226.44,-125.07"/>
<polygon fill="red" stroke="red" stroke-width="0.11" points="229.66,-126.45 230.89,-115.93 223.36,-123.38 229.66,-126.45"/>
</g>
<!-- &#45;5 -->
<g id="node5" class="node">
<title>&#45;5</title>
<polygon fill="lightgray" stroke="black" points="86.44,-102.28 60.44,-102.28 60.44,-84.28 86.44,-84.28 86.44,-102.28"/>
<text text-anchor="middle" x="73.44" y="-91.08" font-family="Times,serif" font-size="9.00">&#45;5</text>
</g>
<!-- &#45;5&#45;&gt;1 -->
<g id="edge11" class="edge">
<title>&#45;5&#45;&gt;1</title>
<path fill="none" stroke="red" stroke-width="0.2" d="M79.88,-84.26C84.02,-79.39 89.69,-73.23 95.44,-68.53 114.51,-52.92 138.77,-38.62 156.31,-29.11"/>
<polygon fill="red" stroke="red" stroke-width="0.2" points="158.09,-32.13 165.28,-24.35 154.81,-25.94 158.09,-32.13"/>
</g>
<!-- &#45;6 -->
<g id="node6" class="node">
<title>&#45;6</title>
<polygon fill="lightgray" stroke="black" points="130.44,-102.28 104.44,-102.28 104.44,-84.28 130.44,-84.28 130.44,-102.28"/>
<text text-anchor="middle" x="117.44" y="-91.08" font-family="Times,serif" font-size="9.00">&#45;6</text>
</g>
<!-- &#45;6&#45;&gt;1 -->
<g id="edge15" class="edge">
<title>&#45;6&#45;&gt;1</title>
<path fill="none" stroke="green" stroke-width="0.66" d="M124.07,-84.25C133.24,-73.15 150.1,-52.75 162.82,-37.37"/>
<polygon fill="green" stroke="green" stroke-width="0.66" points="165.71,-39.37 169.38,-29.43 160.31,-34.91 165.71,-39.37"/>
</g>
<!-- &#45;7 -->
<g id="node7" class="node">
<title>&#45;7</title>
<polygon fill="lightgray" stroke="black" points="45.44,-172.02 19.44,-172.02 19.44,-154.02 45.44,-154.02 45.44,-172.02"/>
<text text-anchor="middle" x="32.44" y="-160.82" font-family="Times,serif" font-size="9.00">&#45;7</text>
</g>
<!-- &#45;7&#45;&gt;0 -->
<g id="edge1" class="edge">
<title>&#45;7&#45;&gt;0</title>
<path fill="none" stroke="red" stroke-width="0.65" d="M45.71,-158.31C66.71,-152.06 108.42,-138.12 139.44,-118.02 141.89,-116.44 144.31,-114.59 146.63,-112.65"/>
<polygon fill="red" stroke="red" stroke-width="0.65" points="149,-115.22 153.99,-105.87 144.26,-110.07 149,-115.22"/>
</g>
<!-- &#45;7&#45;&gt;1 -->
<g id="edge4" class="edge">
<title>&#45;7&#45;&gt;1</title>
<path fill="none" stroke="red" stroke-width="0.36" d="M26.11,-153.91C13.38,-136.54 -12.45,-95.2 7.44,-68.53 24.98,-44.99 109.91,-28.32 153.5,-21.17"/>
<polygon fill="red" stroke="red" stroke-width="0.36" points="154.06,-24.63 163.38,-19.6 152.95,-17.71 154.06,-24.63"/>
</g>
<!-- &#45;8 -->
<g id="node8" class="node">
<title>&#45;8</title>
<polygon fill="lightgray" stroke="black" points="265.44,-172.02 239.44,-172.02 239.44,-154.02 265.44,-154.02 265.44,-172.02"/>
<text text-anchor="middle" x="252.44" y="-160.82" font-family="Times,serif" font-size="9.00">&#45;8</text>
</g>
<!-- &#45;8&#45;&gt;0 -->
<g id="edge6" class="edge">
<title>&#45;8&#45;&gt;0</title>
<path fill="none" stroke="green" stroke-width="0.21" d="M242,-153.99C227.99,-143.2 202.81,-123.82 184.94,-110.06"/>
<polygon fill="green" stroke="green" stroke-width="0.21" points="186.9,-107.15 176.84,-103.83 182.63,-112.7 186.9,-107.15"/>
</g>
<!-- &#45;8&#45;&gt;1 -->
<g id="edge8" class="edge">
<title>&#45;8&#45;&gt;1</title>
<path fill="none" stroke="red" stroke-width="0.18" stroke-dasharray="1,5" d="M265.46,-157.27C268.41,-156.2 271.53,-155.07 274.44,-154.02 319.27,-137.88 347.97,-156.97 375.44,-118.02 388.11,-100.05 388.88,-85.94 375.44,-68.53 354.7,-41.67 253.92,-26.18 205.5,-20.18"/>
<polygon fill="red" stroke="red" stroke-width="0.18" points="205.82,-16.69 195.47,-18.98 204.99,-23.64 205.82,-16.69"/>
</g>
<!-- &#45;8&#45;&gt;121 -->
<g id="edge13" class="edge">
<title>&#45;8&#45;&gt;121</title>
<path fill="none" stroke="green" stroke-width="0.33" d="M251.13,-153.99C250.07,-147.43 248.49,-137.7 246.91,-127.98"/>
<polygon fill="green" stroke="green" stroke-width="0.33" points="250.35,-127.31 245.29,-118 243.44,-128.43 250.35,-127.31"/>
</g>
<!-- &#45;9 -->
<g id="node9" class="node">
<title>&#45;9</title>
<polygon fill="lightgray" stroke="black" points="177.44,-172.02 151.44,-172.02 151.44,-154.02 177.44,-154.02 177.44,-172.02"/>
<text text-anchor="middle" x="164.44" y="-160.82" font-family="Times,serif" font-size="9.00">&#45;9</text>
</g>
<!-- &#45;9&#45;&gt;0 -->
<g id="edge5" class="edge">
<title>&#45;9&#45;&gt;0</title>
<path fill="none" stroke="green" stroke-width="0.86" d="M164.44,-153.99C164.44,-145.58 164.44,-131.96 164.44,-119.84"/>
<polygon fill="green" stroke="green" stroke-width="0.86" points="167.94,-119.75 164.44,-109.75 160.94,-119.75 167.94,-119.75"/>
</g>
<!-- &#45;10 -->
<g id="node10" class="node">
<title>&#45;10</title>
<polygon fill="lightgray" stroke="black" points="316.44,-102.28 284.44,-102.28 284.44,-84.28 316.44,-84.28 316.44,-102.28"/>
<text text-anchor="middle" x="300.44" y="-91.08" font-family="Times,serif" font-size="9.00">&#45;10</text>
</g>
<!-- &#45;10&#45;&gt;1 -->
<g id="edge9" class="edge">
<title>&#45;10&#45;&gt;1</title>
<path fill="none" stroke="green" stroke-width="0.22" d="M293.03,-84.21C288.29,-79.32 281.84,-73.15 275.44,-68.53 252.5,-51.97 223.56,-37.25 203.48,-27.88"/>
<polygon fill="green" stroke="green" stroke-width="0.22" points="204.68,-24.58 194.13,-23.6 201.77,-30.94 204.68,-24.58"/>
</g>
<!-- &#45;11 -->
<g id="node11" class="node">
<title>&#45;11</title>
<polygon fill="lightgray" stroke="black" points="366.44,-102.28 334.44,-102.28 334.44,-84.28 366.44,-84.28 366.44,-102.28"/>
<text text-anchor="middle" x="350.44" y="-91.08" font-family="Times,serif" font-size="9.00">&#45;11</text>
</g>
<!-- &#45;11&#45;&gt;1 -->
<g id="edge7" class="edge">
<title>&#45;11&#45;&gt;1</title>
<path fill="none" stroke="green" stroke-width="0.43" d="M343.27,-83.86C338.61,-78.83 332.18,-72.65 325.44,-68.53 286.69,-44.84 235.44,-30.08 205.1,-22.79"/>
<polygon fill="green" stroke="green" stroke-width="0.43" points="205.83,-19.36 195.3,-20.52 204.25,-26.18 205.83,-19.36"/>
</g>
<!-- &#45;12 -->
<g id="node12" class="node">
<title>&#45;12</title>
<polygon fill="lightgray" stroke="black" points="359.44,-172.02 327.44,-172.02 327.44,-154.02 359.44,-154.02 359.44,-172.02"/>
<text text-anchor="middle" x="343.44" y="-160.82" font-family="Times,serif" font-size="9.00">&#45;12</text>
</g>
<!-- 0&#45;&gt;0 -->
<g id="edge3" class="edge">
<title>0&#45;&gt;0</title>
<path fill="none" stroke="red" stroke-width="0.92" d="M176.73,-103.92C187.41,-108.78 198.7,-105.23 198.7,-93.28 198.7,-85.06 193.36,-80.81 186.56,-80.54"/>
<polygon fill="red" stroke="red" stroke-width="0.92" points="185.78,-77.13 176.73,-82.63 187.24,-83.97 185.78,-77.13"/>
</g>
<!-- 121&#45;&gt;1 -->
<g id="edge14" class="edge">
<title>121&#45;&gt;1</title>
<path fill="none" stroke="red" stroke-width="0.72" d="M226.11,-73.73C216.97,-62.67 205.35,-48.62 196,-37.3"/>
<polygon fill="red" stroke="red" stroke-width="0.72" points="198.43,-34.75 189.36,-29.27 193.04,-39.21 198.43,-34.75"/>
</g>
</g>
</svg>
