<?xml version="1.0" encoding="UTF-8" standalone="no"?>
<!DOCTYPE svg PUBLIC "-//W3C//DTD SVG 1.1//EN"
 "http://www.w3.org/Graphics/SVG/1.1/DTD/svg11.dtd">
<!-- Generated by graphviz version 2.43.0 (0)
 -->
<!-- Title: %3 Pages: 1 -->
<svg width="1208pt" height="214pt"
 viewBox="0.00 0.00 1208.00 213.97" xmlns="http://www.w3.org/2000/svg" xmlns:xlink="http://www.w3.org/1999/xlink">
<g id="graph0" class="graph" transform="scale(1 1) rotate(0) translate(4 209.97)">
<title>%3</title>
<polygon fill="white" stroke="transparent" points="-4,4 -4,-209.97 1204,-209.97 1204,4 -4,4"/>
<!-- &#45;1 -->
<g id="node1" class="node">
<title>&#45;1</title>
<polygon fill="lightgray" stroke="black" points="26,-205.97 0,-205.97 0,-187.97 26,-187.97 26,-205.97"/>
<text text-anchor="middle" x="13" y="-194.77" font-family="Times,serif" font-size="9.00">&#45;1</text>
</g>
<!-- &#45;2 -->
<g id="node2" class="node">
<title>&#45;2</title>
<polygon fill="lightgray" stroke="black" points="220,-205.97 194,-205.97 194,-187.97 220,-187.97 220,-205.97"/>
<text text-anchor="middle" x="207" y="-194.77" font-family="Times,serif" font-size="9.00">&#45;2</text>
</g>
<!-- 1 -->
<g id="node30" class="node">
<title>1</title>
<ellipse fill="lightblue" stroke="black" cx="135" cy="-122.97" rx="16.03" ry="16.03"/>
<text text-anchor="middle" x="135" y="-120.77" font-family="Times,serif" font-size="9.00">1</text>
</g>
<!-- &#45;2&#45;&gt;1 -->
<g id="edge13" class="edge">
<title>&#45;2&#45;&gt;1</title>
<path fill="none" stroke="red" stroke-width="0.82" d="M197.76,-187.76C188.11,-179.1 172.65,-164.92 160,-151.97 157.34,-149.24 154.59,-146.3 151.93,-143.39"/>
<polygon fill="red" stroke="red" stroke-width="0.82" points="154.51,-141.02 145.23,-135.9 149.29,-145.69 154.51,-141.02"/>
</g>
<!-- &#45;3 -->
<g id="node3" class="node">
<title>&#45;3</title>
<polygon fill="lightgray" stroke="black" points="101,-131.97 75,-131.97 75,-113.97 101,-113.97 101,-131.97"/>
<text text-anchor="middle" x="88" y="-120.77" font-family="Times,serif" font-size="9.00">&#45;3</text>
</g>
<!-- 0 -->
<g id="node29" class="node">
<title>0</title>
<ellipse fill="lightblue" stroke="black" cx="417" cy="-28.99" rx="16.03" ry="16.03"/>
<text text-anchor="middle" x="417" y="-26.79" font-family="Times,serif" font-size="9.00">0</text>
</g>
<!-- &#45;3&#45;&gt;0 -->
<g id="edge7" class="edge">
<title>&#45;3&#45;&gt;0</title>
<path fill="none" stroke="red" stroke-width="0.51" stroke-dasharray="1,5" d="M92.29,-113.81C96.09,-107.41 102.23,-98.8 110,-93.98 201.31,-37.36 334.28,-30.01 390.42,-29.61"/>
<polygon fill="red" stroke="red" stroke-width="0.51" points="390.58,-33.11 400.58,-29.61 390.58,-26.11 390.58,-33.11"/>
</g>
<!-- &#45;4 -->
<g id="node4" class="node">
<title>&#45;4</title>
<polygon fill="lightgray" stroke="black" points="524,-205.97 498,-205.97 498,-187.97 524,-187.97 524,-205.97"/>
<text text-anchor="middle" x="511" y="-194.77" font-family="Times,serif" font-size="9.00">&#45;4</text>
</g>
<!-- &#45;4&#45;&gt;0 -->
<g id="edge12" class="edge">
<title>&#45;4&#45;&gt;0</title>
<path fill="none" stroke="red" stroke-width="0.41" d="M511.26,-187.94C511.49,-169.87 510.03,-125.16 492,-93.98 479.49,-72.35 456.86,-54.59 439.72,-43.31"/>
<polygon fill="red" stroke="red" stroke-width="0.41" points="441.19,-40.1 430.86,-37.73 437.46,-46.02 441.19,-40.1"/>
</g>
<!-- &#45;4&#45;&gt;1 -->
<g id="edge14" class="edge">
<title>&#45;4&#45;&gt;1</title>
<path fill="none" stroke="green" stroke-width="0.25" stroke-dasharray="1,5" d="M497.65,-195.53C440.98,-193.51 220.5,-183.71 160,-151.97 156.51,-150.13 153.27,-147.6 150.36,-144.8"/>
<polygon fill="green" stroke="green" stroke-width="0.25" points="152.74,-142.21 143.47,-137.07 147.51,-146.87 152.74,-142.21"/>
</g>
<!-- 6625 -->
<g id="node31" class="node">
<title>6625</title>
<ellipse fill="white" stroke="black" cx="618" cy="-122.97" rx="28.98" ry="28.98"/>
<text text-anchor="middle" x="618" y="-120.77" font-family="Times,serif" font-size="9.00">6625</text>
</g>
<!-- &#45;4&#45;&gt;6625 -->
<g id="edge19" class="edge">
<title>&#45;4&#45;&gt;6625</title>
<path fill="none" stroke="green" stroke-width="0.47" d="M524.14,-187.95C538.15,-179.32 560.9,-165.07 580,-151.97 582.34,-150.36 584.75,-148.67 587.16,-146.96"/>
<polygon fill="green" stroke="green" stroke-width="0.47" points="589.21,-149.79 595.27,-141.1 585.12,-144.12 589.21,-149.79"/>
</g>
<!-- &#45;5 -->
<g id="node5" class="node">
<title>&#45;5</title>
<polygon fill="lightgray" stroke="black" points="195,-131.97 169,-131.97 169,-113.97 195,-113.97 195,-131.97"/>
<text text-anchor="middle" x="182" y="-120.77" font-family="Times,serif" font-size="9.00">&#45;5</text>
</g>
<!-- &#45;5&#45;&gt;0 -->
<g id="edge16" class="edge">
<title>&#45;5&#45;&gt;0</title>
<path fill="none" stroke="red" stroke-width="0.42" stroke-dasharray="1,5" d="M186.56,-113.73C190.44,-107.45 196.54,-99.07 204,-93.98 263.14,-53.67 348.31,-38.19 390.81,-32.71"/>
<polygon fill="red" stroke="red" stroke-width="0.42" points="391.38,-36.17 400.89,-31.5 390.54,-29.22 391.38,-36.17"/>
</g>
<!-- &#45;6 -->
<g id="node6" class="node">
<title>&#45;6</title>
<polygon fill="lightgray" stroke="black" points="706,-205.97 680,-205.97 680,-187.97 706,-187.97 706,-205.97"/>
<text text-anchor="middle" x="693" y="-194.77" font-family="Times,serif" font-size="9.00">&#45;6</text>
</g>
<!-- &#45;7 -->
<g id="node7" class="node">
<title>&#45;7</title>
<polygon fill="lightgray" stroke="black" points="750,-205.97 724,-205.97 724,-187.97 750,-187.97 750,-205.97"/>
<text text-anchor="middle" x="737" y="-194.77" font-family="Times,serif" font-size="9.00">&#45;7</text>
</g>
<!-- &#45;8 -->
<g id="node8" class="node">
<title>&#45;8</title>
<polygon fill="lightgray" stroke="black" points="239,-131.97 213,-131.97 213,-113.97 239,-113.97 239,-131.97"/>
<text text-anchor="middle" x="226" y="-120.77" font-family="Times,serif" font-size="9.00">&#45;8</text>
</g>
<!-- &#45;8&#45;&gt;0 -->
<g id="edge17" class="edge">
<title>&#45;8&#45;&gt;0</title>
<path fill="none" stroke="green" stroke-width="0.18" stroke-dasharray="1,5" d="M230.83,-113.61C234.76,-107.45 240.83,-99.25 248,-93.98 292.69,-61.17 356.21,-43.17 391.27,-35.16"/>
<polygon fill="green" stroke="green" stroke-width="0.18" points="392.17,-38.55 401.19,-32.99 390.67,-31.71 392.17,-38.55"/>
</g>
<!-- &#45;9 -->
<g id="node9" class="node">
<title>&#45;9</title>
<polygon fill="lightgray" stroke="black" points="283,-131.97 257,-131.97 257,-113.97 283,-113.97 283,-131.97"/>
<text text-anchor="middle" x="270" y="-120.77" font-family="Times,serif" font-size="9.00">&#45;9</text>
</g>
<!-- &#45;9&#45;&gt;0 -->
<g id="edge1" class="edge">
<title>&#45;9&#45;&gt;0</title>
<path fill="none" stroke="red" stroke-width="0.16" d="M275,-113.84C279.03,-107.79 285.13,-99.64 292,-93.98 322.9,-68.53 365.59,-49.4 392.23,-38.96"/>
<polygon fill="red" stroke="red" stroke-width="0.16" points="393.83,-42.09 401.92,-35.26 391.33,-35.55 393.83,-42.09"/>
</g>
<!-- &#45;10 -->
<g id="node10" class="node">
<title>&#45;10</title>
<polygon fill="lightgray" stroke="black" points="800,-205.97 768,-205.97 768,-187.97 800,-187.97 800,-205.97"/>
<text text-anchor="middle" x="784" y="-194.77" font-family="Times,serif" font-size="9.00">&#45;10</text>
</g>
<!-- &#45;11 -->
<g id="node11" class="node">
<title>&#45;11</title>
<polygon fill="lightgray" stroke="black" points="333,-131.97 301,-131.97 301,-113.97 333,-113.97 333,-131.97"/>
<text text-anchor="middle" x="317" y="-120.77" font-family="Times,serif" font-size="9.00">&#45;11</text>
</g>
<!-- &#45;11&#45;&gt;0 -->
<g id="edge6" class="edge">
<title>&#45;11&#45;&gt;0</title>
<path fill="none" stroke="green" stroke-width="0.1" d="M323.73,-113.87C328.61,-108.13 335.48,-100.36 342,-93.98 359.66,-76.72 381.24,-58.59 396.71,-46.05"/>
<polygon fill="green" stroke="green" stroke-width="0.1" points="399,-48.7 404.61,-39.7 394.62,-43.24 399,-48.7"/>
</g>
<!-- &#45;12 -->
<g id="node12" class="node">
<title>&#45;12</title>
<polygon fill="lightgray" stroke="black" points="850,-205.97 818,-205.97 818,-187.97 850,-187.97 850,-205.97"/>
<text text-anchor="middle" x="834" y="-194.77" font-family="Times,serif" font-size="9.00">&#45;12</text>
</g>
<!-- &#45;13 -->
<g id="node13" class="node">
<title>&#45;13</title>
<polygon fill="lightgray" stroke="black" points="900,-205.97 868,-205.97 868,-187.97 900,-187.97 900,-205.97"/>
<text text-anchor="middle" x="884" y="-194.77" font-family="Times,serif" font-size="9.00">&#45;13</text>
</g>
<!-- &#45;14 -->
<g id="node14" class="node">
<title>&#45;14</title>
<polygon fill="lightgray" stroke="black" points="383,-131.97 351,-131.97 351,-113.97 383,-113.97 383,-131.97"/>
<text text-anchor="middle" x="367" y="-120.77" font-family="Times,serif" font-size="9.00">&#45;14</text>
</g>
<!-- &#45;14&#45;&gt;0 -->
<g id="edge11" class="edge">
<title>&#45;14&#45;&gt;0</title>
<path fill="none" stroke="green" stroke-width="0.27" stroke-dasharray="1,5" d="M371.44,-113.81C378.83,-100.21 393.93,-72.44 404.71,-52.59"/>
<polygon fill="green" stroke="green" stroke-width="0.27" points="407.91,-54.04 409.61,-43.58 401.76,-50.7 407.91,-54.04"/>
</g>
<!-- &#45;15 -->
<g id="node15" class="node">
<title>&#45;15</title>
<polygon fill="lightgray" stroke="black" points="950,-205.97 918,-205.97 918,-187.97 950,-187.97 950,-205.97"/>
<text text-anchor="middle" x="934" y="-194.77" font-family="Times,serif" font-size="9.00">&#45;15</text>
</g>
<!-- &#45;16 -->
<g id="node16" class="node">
<title>&#45;16</title>
<polygon fill="lightgray" stroke="black" points="1000,-205.97 968,-205.97 968,-187.97 1000,-187.97 1000,-205.97"/>
<text text-anchor="middle" x="984" y="-194.77" font-family="Times,serif" font-size="9.00">&#45;16</text>
</g>
<!-- &#45;17 -->
<g id="node17" class="node">
<title>&#45;17</title>
<polygon fill="lightgray" stroke="black" points="735,-131.97 703,-131.97 703,-113.97 735,-113.97 735,-131.97"/>
<text text-anchor="middle" x="719" y="-120.77" font-family="Times,serif" font-size="9.00">&#45;17</text>
</g>
<!-- &#45;17&#45;&gt;0 -->
<g id="edge8" class="edge">
<title>&#45;17&#45;&gt;0</title>
<path fill="none" stroke="green" stroke-width="0.14" stroke-dasharray="1,5" d="M712.45,-113.89C706.87,-107.53 698.3,-98.95 689,-93.98 606.49,-49.88 493.94,-35.91 443.43,-31.7"/>
<polygon fill="green" stroke="green" stroke-width="0.14" points="443.59,-28.2 433.35,-30.92 443.05,-35.18 443.59,-28.2"/>
</g>
<!-- 5998 -->
<g id="node32" class="node">
<title>5998</title>
<ellipse fill="white" stroke="black" cx="719" cy="-28.99" rx="28.98" ry="28.98"/>
<text text-anchor="middle" x="719" y="-26.79" font-family="Times,serif" font-size="9.00">5998</text>
</g>
<!-- &#45;17&#45;&gt;5998 -->
<g id="edge18" class="edge">
<title>&#45;17&#45;&gt;5998</title>
<path fill="none" stroke="green" stroke-width="0.28" d="M719,-113.81C719,-103.54 719,-85.2 719,-68.29"/>
<polygon fill="green" stroke="green" stroke-width="0.28" points="722.5,-68.03 719,-58.03 715.5,-68.03 722.5,-68.03"/>
</g>
<!-- &#45;18 -->
<g id="node18" class="node">
<title>&#45;18</title>
<polygon fill="lightgray" stroke="black" points="433,-131.97 401,-131.97 401,-113.97 433,-113.97 433,-131.97"/>
<text text-anchor="middle" x="417" y="-120.77" font-family="Times,serif" font-size="9.00">&#45;18</text>
</g>
<!-- &#45;18&#45;&gt;0 -->
<g id="edge4" class="edge">
<title>&#45;18&#45;&gt;0</title>
<path fill="none" stroke="green" stroke-width="0.28" stroke-dasharray="1,5" d="M417,-113.81C417,-100.9 417,-75.23 417,-55.68"/>
<polygon fill="green" stroke="green" stroke-width="0.28" points="420.5,-55.57 417,-45.57 413.5,-55.57 420.5,-55.57"/>
</g>
<!-- &#45;19 -->
<g id="node19" class="node">
<title>&#45;19</title>
<polygon fill="lightgray" stroke="black" points="483,-131.97 451,-131.97 451,-113.97 483,-113.97 483,-131.97"/>
<text text-anchor="middle" x="467" y="-120.77" font-family="Times,serif" font-size="9.00">&#45;19</text>
</g>
<!-- &#45;19&#45;&gt;0 -->
<g id="edge5" class="edge">
<title>&#45;19&#45;&gt;0</title>
<path fill="none" stroke="red" stroke-width="0.5" stroke-dasharray="1,5" d="M462.56,-113.81C455.17,-100.21 440.07,-72.44 429.29,-52.59"/>
<polygon fill="red" stroke="red" stroke-width="0.5" points="432.24,-50.7 424.39,-43.58 426.09,-54.04 432.24,-50.7"/>
</g>
<!-- &#45;20 -->
<g id="node20" class="node">
<title>&#45;20</title>
<polygon fill="lightgray" stroke="black" points="662,-205.97 630,-205.97 630,-187.97 662,-187.97 662,-205.97"/>
<text text-anchor="middle" x="646" y="-194.77" font-family="Times,serif" font-size="9.00">&#45;20</text>
</g>
<!-- &#45;20&#45;&gt;0 -->
<g id="edge15" class="edge">
<title>&#45;20&#45;&gt;0</title>
<path fill="none" stroke="green" stroke-width="0.18" stroke-dasharray="1,5" d="M650.2,-187.79C659.19,-169.04 677.77,-122.35 656,-93.98 629.96,-60.05 499.78,-40.18 443.26,-33.04"/>
<polygon fill="green" stroke="green" stroke-width="0.18" points="443.65,-29.56 433.3,-31.81 442.8,-36.51 443.65,-29.56"/>
</g>
<!-- &#45;20&#45;&gt;6625 -->
<g id="edge21" class="edge">
<title>&#45;20&#45;&gt;6625</title>
<path fill="none" stroke="green" stroke-width="0.48" stroke-dasharray="1,5" d="M642.79,-187.71C640.08,-180.75 636.01,-170.29 631.95,-159.84"/>
<polygon fill="green" stroke="green" stroke-width="0.48" points="635.15,-158.4 628.26,-150.35 628.62,-160.94 635.15,-158.4"/>
</g>
<!-- &#45;21 -->
<g id="node21" class="node">
<title>&#45;21</title>
<polygon fill="lightgray" stroke="black" points="1050,-205.97 1018,-205.97 1018,-187.97 1050,-187.97 1050,-205.97"/>
<text text-anchor="middle" x="1034" y="-194.77" font-family="Times,serif" font-size="9.00">&#45;21</text>
</g>
<!-- &#45;22 -->
<g id="node22" class="node">
<title>&#45;22</title>
<polygon fill="lightgray" stroke="black" points="76,-205.97 44,-205.97 44,-187.97 76,-187.97 76,-205.97"/>
<text text-anchor="middle" x="60" y="-194.77" font-family="Times,serif" font-size="9.00">&#45;22</text>
</g>
<!-- &#45;22&#45;&gt;1 -->
<g id="edge3" class="edge">
<title>&#45;22&#45;&gt;1</title>
<path fill="none" stroke="green" stroke-width="0.59" stroke-dasharray="1,5" d="M69.9,-187.86C80.21,-179.28 96.71,-165.16 110,-151.97 112.7,-149.28 115.47,-146.37 118.14,-143.46"/>
<polygon fill="green" stroke="green" stroke-width="0.59" points="120.78,-145.76 124.84,-135.98 115.57,-141.09 120.78,-145.76"/>
</g>
<!-- &#45;23 -->
<g id="node23" class="node">
<title>&#45;23</title>
<polygon fill="lightgray" stroke="black" points="1100,-205.97 1068,-205.97 1068,-187.97 1100,-187.97 1100,-205.97"/>
<text text-anchor="middle" x="1084" y="-194.77" font-family="Times,serif" font-size="9.00">&#45;23</text>
</g>
<!-- &#45;24 -->
<g id="node24" class="node">
<title>&#45;24</title>
<polygon fill="lightgray" stroke="black" points="126,-205.97 94,-205.97 94,-187.97 126,-187.97 126,-205.97"/>
<text text-anchor="middle" x="110" y="-194.77" font-family="Times,serif" font-size="9.00">&#45;24</text>
</g>
<!-- &#45;24&#45;&gt;1 -->
<g id="edge9" class="edge">
<title>&#45;24&#45;&gt;1</title>
<path fill="none" stroke="green" stroke-width="0.15" d="M112.87,-187.71C116.18,-178.17 121.78,-162.05 126.52,-148.4"/>
<polygon fill="green" stroke="green" stroke-width="0.15" points="129.95,-149.2 129.92,-138.6 123.33,-146.9 129.95,-149.2"/>
</g>
<!-- &#45;25 -->
<g id="node25" class="node">
<title>&#45;25</title>
<polygon fill="lightgray" stroke="black" points="176,-205.97 144,-205.97 144,-187.97 176,-187.97 176,-205.97"/>
<text text-anchor="middle" x="160" y="-194.77" font-family="Times,serif" font-size="9.00">&#45;25</text>
</g>
<!-- &#45;25&#45;&gt;1 -->
<g id="edge10" class="edge">
<title>&#45;25&#45;&gt;1</title>
<path fill="none" stroke="green" stroke-width="0.33" d="M157.13,-187.71C153.82,-178.17 148.22,-162.05 143.48,-148.4"/>
<polygon fill="green" stroke="green" stroke-width="0.33" points="146.67,-146.9 140.08,-138.6 140.05,-149.2 146.67,-146.9"/>
</g>
<!-- &#45;26 -->
<g id="node26" class="node">
<title>&#45;26</title>
<polygon fill="lightgray" stroke="black" points="571,-131.97 539,-131.97 539,-113.97 571,-113.97 571,-131.97"/>
<text text-anchor="middle" x="555" y="-120.77" font-family="Times,serif" font-size="9.00">&#45;26</text>
</g>
<!-- &#45;26&#45;&gt;0 -->
<g id="edge2" class="edge">
<title>&#45;26&#45;&gt;0</title>
<path fill="none" stroke="red" stroke-width="0.12" stroke-dasharray="1,5" d="M547.27,-113.87C541.44,-108 533.1,-100.05 525,-93.98 497.5,-73.38 462.9,-53.88 440.39,-41.94"/>
<polygon fill="red" stroke="red" stroke-width="0.12" points="441.73,-38.7 431.25,-37.16 438.49,-44.9 441.73,-38.7"/>
</g>
<!-- &#45;27 -->
<g id="node27" class="node">
<title>&#45;27</title>
<polygon fill="lightgray" stroke="black" points="1150,-205.97 1118,-205.97 1118,-187.97 1150,-187.97 1150,-205.97"/>
<text text-anchor="middle" x="1134" y="-194.77" font-family="Times,serif" font-size="9.00">&#45;27</text>
</g>
<!-- &#45;28 -->
<g id="node28" class="node">
<title>&#45;28</title>
<polygon fill="lightgray" stroke="black" points="1200,-205.97 1168,-205.97 1168,-187.97 1200,-187.97 1200,-205.97"/>
<text text-anchor="middle" x="1184" y="-194.77" font-family="Times,serif" font-size="9.00">&#45;28</text>
</g>
<!-- 6625&#45;&gt;0 -->
<g id="edge20" class="edge">
<title>6625&#45;&gt;0</title>
<path fill="none" stroke="green" stroke-width="0.2" stroke-dasharray="1,5" d="M595.74,-104.09C590.72,-100.49 585.31,-96.91 580,-93.98 533.65,-68.39 474.93,-48 442.12,-37.58"/>
<polygon fill="green" stroke="green" stroke-width="0.2" points="443.01,-34.2 432.42,-34.56 440.93,-40.88 443.01,-34.2"/>
</g>
</g>
</svg>
