<?xml version="1.0" encoding="UTF-8" standalone="no"?>
<!DOCTYPE svg PUBLIC "-//W3C//DTD SVG 1.1//EN"
 "http://www.w3.org/Graphics/SVG/1.1/DTD/svg11.dtd">
<!-- Generated by graphviz version 2.43.0 (0)
 -->
<!-- Title: %3 Pages: 1 -->
<svg width="702pt" height="282pt"
 viewBox="0.00 0.00 702.02 282.49" xmlns="http://www.w3.org/2000/svg" xmlns:xlink="http://www.w3.org/1999/xlink">
<g id="graph0" class="graph" transform="scale(1 1) rotate(0) translate(4 278.49)">
<title>%3</title>
<polygon fill="white" stroke="transparent" points="-4,4 -4,-278.49 698.02,-278.49 698.02,4 -4,4"/>
<!-- &#45;1 -->
<g id="node1" class="node">
<title>&#45;1</title>
<polygon fill="lightgray" stroke="black" points="220.02,-274.49 194.02,-274.49 194.02,-256.49 220.02,-256.49 220.02,-274.49"/>
<text text-anchor="middle" x="207.02" y="-263.29" font-family="Times,serif" font-size="9.00">&#45;1</text>
</g>
<!-- 1 -->
<g id="node14" class="node">
<title>1</title>
<ellipse fill="lightblue" stroke="black" cx="236.02" cy="-97.52" rx="16.03" ry="16.03"/>
<text text-anchor="middle" x="236.02" y="-95.32" font-family="Times,serif" font-size="9.00">1</text>
</g>
<!-- &#45;1&#45;&gt;1 -->
<g id="edge6" class="edge">
<title>&#45;1&#45;&gt;1</title>
<path fill="none" stroke="green" stroke-width="0.15" d="M204.41,-256.39C199.19,-238.89 188.71,-196.45 198.02,-162.51 202.33,-146.82 211.59,-131.09 219.89,-119.15"/>
<polygon fill="green" stroke="green" stroke-width="0.15" points="222.9,-120.96 225.96,-110.82 217.24,-116.84 222.9,-120.96"/>
</g>
<!-- 1109 -->
<g id="node19" class="node">
<title>1109</title>
<ellipse fill="white" stroke="black" cx="236.02" cy="-191.5" rx="28.98" ry="28.98"/>
<text text-anchor="middle" x="236.02" y="-189.3" font-family="Times,serif" font-size="9.00">1109</text>
</g>
<!-- &#45;1&#45;&gt;1109 -->
<g id="edge14" class="edge">
<title>&#45;1&#45;&gt;1109</title>
<path fill="none" stroke="red" stroke-width="0.22" d="M210.35,-256.23C213.18,-249.22 217.44,-238.64 221.68,-228.11"/>
<polygon fill="red" stroke="red" stroke-width="0.22" points="225.04,-229.14 225.53,-218.56 218.55,-226.52 225.04,-229.14"/>
</g>
<!-- &#45;2 -->
<g id="node2" class="node">
<title>&#45;2</title>
<polygon fill="lightgray" stroke="black" points="28.02,-274.49 2.02,-274.49 2.02,-256.49 28.02,-256.49 28.02,-274.49"/>
<text text-anchor="middle" x="15.02" y="-263.29" font-family="Times,serif" font-size="9.00">&#45;2</text>
</g>
<!-- 0 -->
<g id="node13" class="node">
<title>0</title>
<ellipse fill="lightblue" stroke="black" cx="403.02" cy="-16.26" rx="16.03" ry="16.03"/>
<text text-anchor="middle" x="403.02" y="-14.06" font-family="Times,serif" font-size="9.00">0</text>
</g>
<!-- &#45;2&#45;&gt;0 -->
<g id="edge2" class="edge">
<title>&#45;2&#45;&gt;0</title>
<path fill="none" stroke="red" stroke-width="0.8" d="M11.68,-256.28C4.75,-237.84 -9.01,-192.42 10.02,-162.51 91.56,-34.38 301.5,-18.64 376.17,-17.19"/>
<polygon fill="red" stroke="red" stroke-width="0.8" points="376.6,-20.68 386.56,-17.06 376.52,-13.68 376.6,-20.68"/>
</g>
<!-- &#45;2&#45;&gt;1 -->
<g id="edge1" class="edge">
<title>&#45;2&#45;&gt;1</title>
<path fill="none" stroke="red" stroke-width="0.36" stroke-dasharray="1,5" d="M13.99,-256.43C12.03,-237.5 9.92,-189.76 34.02,-162.51 79.52,-111.07 166.08,-100.62 209.62,-98.74"/>
<polygon fill="red" stroke="red" stroke-width="0.36" points="209.82,-102.23 219.71,-98.42 209.61,-95.24 209.82,-102.23"/>
</g>
<!-- 1748 -->
<g id="node18" class="node">
<title>1748</title>
<ellipse fill="white" stroke="black" cx="72.02" cy="-191.5" rx="28.98" ry="28.98"/>
<text text-anchor="middle" x="72.02" y="-189.3" font-family="Times,serif" font-size="9.00">1748</text>
</g>
<!-- &#45;2&#45;&gt;1748 -->
<g id="edge17" class="edge">
<title>&#45;2&#45;&gt;1748</title>
<path fill="none" stroke="green" stroke-width="0.18" d="M21.56,-256.23C28.09,-247.99 38.51,-234.83 48.19,-222.6"/>
<polygon fill="green" stroke="green" stroke-width="0.18" points="50.94,-224.77 54.4,-214.76 45.45,-220.43 50.94,-224.77"/>
</g>
<!-- &#45;3 -->
<g id="node3" class="node">
<title>&#45;3</title>
<polygon fill="lightgray" stroke="black" points="424.02,-274.49 398.02,-274.49 398.02,-256.49 424.02,-256.49 424.02,-274.49"/>
<text text-anchor="middle" x="411.02" y="-263.29" font-family="Times,serif" font-size="9.00">&#45;3</text>
</g>
<!-- &#45;4 -->
<g id="node4" class="node">
<title>&#45;4</title>
<polygon fill="lightgray" stroke="black" points="306.02,-274.49 280.02,-274.49 280.02,-256.49 306.02,-256.49 306.02,-274.49"/>
<text text-anchor="middle" x="293.02" y="-263.29" font-family="Times,serif" font-size="9.00">&#45;4</text>
</g>
<!-- &#45;4&#45;&gt;1 -->
<g id="edge3" class="edge">
<title>&#45;4&#45;&gt;1</title>
<path fill="none" stroke="red" stroke-width="0.1" d="M292.47,-256.3C291.08,-238.64 286.59,-195.88 274.02,-162.51 268.29,-147.28 259.01,-131.56 251.05,-119.5"/>
<polygon fill="red" stroke="red" stroke-width="0.1" points="253.83,-117.36 245.3,-111.07 248.04,-121.31 253.83,-117.36"/>
</g>
<!-- 613 -->
<g id="node15" class="node">
<title>613</title>
<ellipse fill="white" stroke="black" cx="460.02" cy="-191.5" rx="25" ry="25"/>
<text text-anchor="middle" x="460.02" y="-189.3" font-family="Times,serif" font-size="9.00">613</text>
</g>
<!-- &#45;4&#45;&gt;613 -->
<g id="edge7" class="edge">
<title>&#45;4&#45;&gt;613</title>
<path fill="none" stroke="green" stroke-width="0.22" stroke-dasharray="1,5" d="M306.14,-261.85C330.77,-256.52 385.14,-243.05 426.02,-220.49 428.75,-218.99 431.46,-217.26 434.11,-215.41"/>
<polygon fill="green" stroke="green" stroke-width="0.22" points="436.39,-218.07 442.22,-209.23 432.14,-212.5 436.39,-218.07"/>
</g>
<!-- &#45;4&#45;&gt;1109 -->
<g id="edge9" class="edge">
<title>&#45;4&#45;&gt;1109</title>
<path fill="none" stroke="green" stroke-width="0.7" d="M286.49,-256.23C279.96,-247.99 269.54,-234.83 259.86,-222.6"/>
<polygon fill="green" stroke="green" stroke-width="0.7" points="262.6,-220.43 253.65,-214.76 257.11,-224.77 262.6,-220.43"/>
</g>
<!-- &#45;5 -->
<g id="node5" class="node">
<title>&#45;5</title>
<polygon fill="lightgray" stroke="black" points="468.02,-274.49 442.02,-274.49 442.02,-256.49 468.02,-256.49 468.02,-274.49"/>
<text text-anchor="middle" x="455.02" y="-263.29" font-family="Times,serif" font-size="9.00">&#45;5</text>
</g>
<!-- &#45;6 -->
<g id="node6" class="node">
<title>&#45;6</title>
<polygon fill="lightgray" stroke="black" points="512.02,-274.49 486.02,-274.49 486.02,-256.49 512.02,-256.49 512.02,-274.49"/>
<text text-anchor="middle" x="499.02" y="-263.29" font-family="Times,serif" font-size="9.00">&#45;6</text>
</g>
<!-- &#45;7 -->
<g id="node7" class="node">
<title>&#45;7</title>
<polygon fill="lightgray" stroke="black" points="556.02,-274.49 530.02,-274.49 530.02,-256.49 556.02,-256.49 556.02,-274.49"/>
<text text-anchor="middle" x="543.02" y="-263.29" font-family="Times,serif" font-size="9.00">&#45;7</text>
</g>
<!-- &#45;8 -->
<g id="node8" class="node">
<title>&#45;8</title>
<polygon fill="lightgray" stroke="black" points="600.02,-274.49 574.02,-274.49 574.02,-256.49 600.02,-256.49 600.02,-274.49"/>
<text text-anchor="middle" x="587.02" y="-263.29" font-family="Times,serif" font-size="9.00">&#45;8</text>
</g>
<!-- &#45;9 -->
<g id="node9" class="node">
<title>&#45;9</title>
<polygon fill="lightgray" stroke="black" points="644.02,-274.49 618.02,-274.49 618.02,-256.49 644.02,-256.49 644.02,-274.49"/>
<text text-anchor="middle" x="631.02" y="-263.29" font-family="Times,serif" font-size="9.00">&#45;9</text>
</g>
<!-- &#45;10 -->
<g id="node10" class="node">
<title>&#45;10</title>
<polygon fill="lightgray" stroke="black" points="694.02,-274.49 662.02,-274.49 662.02,-256.49 694.02,-256.49 694.02,-274.49"/>
<text text-anchor="middle" x="678.02" y="-263.29" font-family="Times,serif" font-size="9.00">&#45;10</text>
</g>
<!-- &#45;11 -->
<g id="node11" class="node">
<title>&#45;11</title>
<polygon fill="lightgray" stroke="black" points="151.02,-200.5 119.02,-200.5 119.02,-182.5 151.02,-182.5 151.02,-200.5"/>
<text text-anchor="middle" x="135.02" y="-189.3" font-family="Times,serif" font-size="9.00">&#45;11</text>
</g>
<!-- &#45;11&#45;&gt;1 -->
<g id="edge5" class="edge">
<title>&#45;11&#45;&gt;1</title>
<path fill="none" stroke="green" stroke-width="1.05" stroke-dasharray="1,5" d="M143.65,-182.38C149.63,-176.77 157.78,-169.15 165.02,-162.51 182.2,-146.76 201.9,-129.03 216.18,-116.24"/>
<polygon fill="green" stroke="green" stroke-width="1.05" points="218.79,-118.6 223.91,-109.32 214.12,-113.38 218.79,-118.6"/>
</g>
<!-- &#45;12 -->
<g id="node12" class="node">
<title>&#45;12</title>
<polygon fill="lightgray" stroke="black" points="380.02,-274.49 348.02,-274.49 348.02,-256.49 380.02,-256.49 380.02,-274.49"/>
<text text-anchor="middle" x="364.02" y="-263.29" font-family="Times,serif" font-size="9.00">&#45;12</text>
</g>
<!-- &#45;12&#45;&gt;1 -->
<g id="edge4" class="edge">
<title>&#45;12&#45;&gt;1</title>
<path fill="none" stroke="green" stroke-width="1" stroke-dasharray="1,5" d="M359.17,-256.24C348.57,-238.47 322.21,-195.52 296.02,-162.51 283.01,-146.11 266.67,-128.87 254.33,-116.42"/>
<polygon fill="green" stroke="green" stroke-width="1" points="256.78,-113.92 247.23,-109.34 251.84,-118.88 256.78,-113.92"/>
</g>
<!-- 1606 -->
<g id="node16" class="node">
<title>1606</title>
<ellipse fill="white" stroke="black" cx="388.02" cy="-191.5" rx="28.98" ry="28.98"/>
<text text-anchor="middle" x="388.02" y="-189.3" font-family="Times,serif" font-size="9.00">1606</text>
</g>
<!-- &#45;12&#45;&gt;1606 -->
<g id="edge12" class="edge">
<title>&#45;12&#45;&gt;1606</title>
<path fill="none" stroke="green" stroke-width="0.23" d="M366.78,-256.23C369.05,-249.4 372.46,-239.2 375.88,-228.94"/>
<polygon fill="green" stroke="green" stroke-width="0.23" points="379.28,-229.79 379.12,-219.2 372.64,-227.58 379.28,-229.79"/>
</g>
<!-- 613&#45;&gt;0 -->
<g id="edge8" class="edge">
<title>613&#45;&gt;0</title>
<path fill="none" stroke="red" stroke-width="0.53" stroke-dasharray="1,5" d="M445.89,-170.99C437.71,-158.77 427.89,-142.39 422.02,-126.51 411.82,-98.89 407.02,-65.27 404.82,-42.68"/>
<polygon fill="red" stroke="red" stroke-width="0.53" points="408.29,-42.21 403.93,-32.56 401.32,-42.82 408.29,-42.21"/>
</g>
<!-- 613&#45;&gt;1 -->
<g id="edge11" class="edge">
<title>613&#45;&gt;1</title>
<path fill="none" stroke="red" stroke-width="0.12" d="M442.21,-173.79C437.23,-169.71 431.64,-165.63 426.02,-162.51 371.32,-132.14 299.76,-112.87 261.99,-104.08"/>
<polygon fill="red" stroke="red" stroke-width="0.12" points="262.37,-100.58 251.84,-101.79 260.82,-107.41 262.37,-100.58"/>
</g>
<!-- 1641 -->
<g id="node17" class="node">
<title>1641</title>
<ellipse fill="white" stroke="black" cx="460.02" cy="-97.52" rx="28.98" ry="28.98"/>
<text text-anchor="middle" x="460.02" y="-95.32" font-family="Times,serif" font-size="9.00">1641</text>
</g>
<!-- 613&#45;&gt;1641 -->
<g id="edge15" class="edge">
<title>613&#45;&gt;1641</title>
<path fill="none" stroke="red" stroke-width="0.2" d="M460.02,-166.33C460.02,-157.33 460.02,-146.87 460.02,-136.9"/>
<polygon fill="red" stroke="red" stroke-width="0.2" points="463.52,-136.76 460.02,-126.76 456.52,-136.76 463.52,-136.76"/>
</g>
<!-- 1606&#45;&gt;1 -->
<g id="edge13" class="edge">
<title>1606&#45;&gt;1</title>
<path fill="none" stroke="green" stroke-width="1.1" d="M364.04,-174.61C357.88,-170.6 351.24,-166.35 345.02,-162.51 315.47,-144.23 280.76,-124.07 258.59,-111.36"/>
<polygon fill="green" stroke="green" stroke-width="1.1" points="260.33,-108.32 249.91,-106.4 256.85,-114.4 260.33,-108.32"/>
</g>
<!-- 1641&#45;&gt;0 -->
<g id="edge16" class="edge">
<title>1641&#45;&gt;0</title>
<path fill="none" stroke="red" stroke-width="0.56" d="M443.54,-73.59C435.44,-62.34 425.77,-48.88 417.9,-37.95"/>
<polygon fill="red" stroke="red" stroke-width="0.56" points="420.72,-35.88 412.04,-29.81 415.04,-39.97 420.72,-35.88"/>
</g>
<!-- 1748&#45;&gt;1 -->
<g id="edge18" class="edge">
<title>1748&#45;&gt;1</title>
<path fill="none" stroke="green" stroke-width="0.24" d="M94.51,-173C99.51,-169.37 104.86,-165.69 110.02,-162.51 144.13,-141.48 186,-121.24 211.85,-109.34"/>
<polygon fill="green" stroke="green" stroke-width="0.24" points="213.59,-112.39 221.24,-105.06 210.69,-106.02 213.59,-112.39"/>
</g>
<!-- 1109&#45;&gt;1 -->
<g id="edge10" class="edge">
<title>1109&#45;&gt;1</title>
<path fill="none" stroke="green" stroke-width="0.39" d="M236.02,-162.4C236.02,-150.19 236.02,-135.98 236.02,-124.06"/>
<polygon fill="green" stroke="green" stroke-width="0.39" points="239.52,-123.89 236.02,-113.89 232.52,-123.89 239.52,-123.89"/>
</g>
</g>
</svg>
