<?xml version="1.0" encoding="UTF-8" standalone="no"?>
<!DOCTYPE svg PUBLIC "-//W3C//DTD SVG 1.1//EN"
 "http://www.w3.org/Graphics/SVG/1.1/DTD/svg11.dtd">
<!-- Generated by graphviz version 2.43.0 (0)
 -->
<!-- Title: %3 Pages: 1 -->
<svg width="936pt" height="95pt"
 viewBox="0.00 0.00 936.00 94.53" xmlns="http://www.w3.org/2000/svg" xmlns:xlink="http://www.w3.org/1999/xlink">
<g id="graph0" class="graph" transform="scale(1 1) rotate(0) translate(4 90.53)">
<title>%3</title>
<polygon fill="white" stroke="transparent" points="-4,4 -4,-90.53 932,-90.53 932,4 -4,4"/>
<!-- &#45;1 -->
<g id="node1" class="node">
<title>&#45;1</title>
<polygon fill="lightgray" stroke="black" points="214,-86.53 188,-86.53 188,-68.53 214,-68.53 214,-86.53"/>
<text text-anchor="middle" x="201" y="-75.33" font-family="Times,serif" font-size="9.00">&#45;1</text>
</g>
<!-- 0 -->
<g id="node21" class="node">
<title>0</title>
<ellipse fill="lightblue" stroke="black" cx="225" cy="-16.26" rx="16.03" ry="16.03"/>
<text text-anchor="middle" x="225" y="-14.06" font-family="Times,serif" font-size="9.00">0</text>
</g>
<!-- &#45;1&#45;&gt;0 -->
<g id="edge22" class="edge">
<title>&#45;1&#45;&gt;0</title>
<path fill="none" stroke="green" stroke-width="0.11" d="M204.34,-68.29C207.17,-61.3 211.37,-50.91 215.25,-41.33"/>
<polygon fill="green" stroke="green" stroke-width="0.11" points="218.6,-42.4 219.11,-31.82 212.11,-39.77 218.6,-42.4"/>
</g>
<!-- &#45;2 -->
<g id="node2" class="node">
<title>&#45;2</title>
<polygon fill="lightgray" stroke="black" points="746,-86.53 720,-86.53 720,-68.53 746,-68.53 746,-86.53"/>
<text text-anchor="middle" x="733" y="-75.33" font-family="Times,serif" font-size="9.00">&#45;2</text>
</g>
<!-- 1 -->
<g id="node22" class="node">
<title>1</title>
<ellipse fill="lightblue" stroke="black" cx="512" cy="-16.26" rx="16.03" ry="16.03"/>
<text text-anchor="middle" x="512" y="-14.06" font-family="Times,serif" font-size="9.00">1</text>
</g>
<!-- &#45;2&#45;&gt;1 -->
<g id="edge5" class="edge">
<title>&#45;2&#45;&gt;1</title>
<path fill="none" stroke="red" stroke-width="0.32" d="M719.57,-71.41C716.76,-70.4 713.8,-69.39 711,-68.53 649.48,-49.47 575.77,-31.8 537.65,-23.03"/>
<polygon fill="red" stroke="red" stroke-width="0.32" points="538.41,-19.62 527.88,-20.8 536.85,-26.44 538.41,-19.62"/>
</g>
<!-- &#45;3 -->
<g id="node3" class="node">
<title>&#45;3</title>
<polygon fill="lightgray" stroke="black" points="408,-86.53 382,-86.53 382,-68.53 408,-68.53 408,-86.53"/>
<text text-anchor="middle" x="395" y="-75.33" font-family="Times,serif" font-size="9.00">&#45;3</text>
</g>
<!-- &#45;3&#45;&gt;0 -->
<g id="edge18" class="edge">
<title>&#45;3&#45;&gt;0</title>
<path fill="none" stroke="red" stroke-width="0.65" d="M381.98,-71.76C379.03,-70.69 375.91,-69.56 373,-68.53 329.68,-53.15 279.03,-35.72 249.62,-25.66"/>
<polygon fill="red" stroke="red" stroke-width="0.65" points="250.75,-22.35 240.15,-22.43 248.48,-28.97 250.75,-22.35"/>
</g>
<!-- &#45;3&#45;&gt;1 -->
<g id="edge16" class="edge">
<title>&#45;3&#45;&gt;1</title>
<path fill="none" stroke="red" stroke-width="0.13" d="M408.42,-69.73C427.94,-59.84 464.45,-41.35 488.49,-29.17"/>
<polygon fill="red" stroke="red" stroke-width="0.13" points="490.3,-32.18 497.64,-24.54 487.14,-25.93 490.3,-32.18"/>
</g>
<!-- &#45;4 -->
<g id="node4" class="node">
<title>&#45;4</title>
<polygon fill="lightgray" stroke="black" points="26,-86.53 0,-86.53 0,-68.53 26,-68.53 26,-86.53"/>
<text text-anchor="middle" x="13" y="-75.33" font-family="Times,serif" font-size="9.00">&#45;4</text>
</g>
<!-- &#45;4&#45;&gt;0 -->
<g id="edge19" class="edge">
<title>&#45;4&#45;&gt;0</title>
<path fill="none" stroke="green" stroke-width="1.03" d="M26.43,-71.44C29.25,-70.43 32.21,-69.41 35,-68.53 93.11,-50.16 162.5,-32.5 199.22,-23.48"/>
<polygon fill="green" stroke="green" stroke-width="1.03" points="200.22,-26.84 209.1,-21.07 198.56,-20.04 200.22,-26.84"/>
</g>
<!-- &#45;5 -->
<g id="node5" class="node">
<title>&#45;5</title>
<polygon fill="lightgray" stroke="black" points="70,-86.53 44,-86.53 44,-68.53 70,-68.53 70,-86.53"/>
<text text-anchor="middle" x="57" y="-75.33" font-family="Times,serif" font-size="9.00">&#45;5</text>
</g>
<!-- &#45;5&#45;&gt;0 -->
<g id="edge9" class="edge">
<title>&#45;5&#45;&gt;0</title>
<path fill="none" stroke="green" stroke-width="0.63" d="M70.02,-71.77C72.97,-70.69 76.09,-69.57 79,-68.53 121.36,-53.39 170.76,-36.12 199.88,-25.99"/>
<polygon fill="green" stroke="green" stroke-width="0.63" points="201.34,-29.19 209.64,-22.6 199.04,-22.57 201.34,-29.19"/>
</g>
<!-- &#45;6 -->
<g id="node6" class="node">
<title>&#45;6</title>
<polygon fill="lightgray" stroke="black" points="834,-86.53 808,-86.53 808,-68.53 834,-68.53 834,-86.53"/>
<text text-anchor="middle" x="821" y="-75.33" font-family="Times,serif" font-size="9.00">&#45;6</text>
</g>
<!-- &#45;7 -->
<g id="node7" class="node">
<title>&#45;7</title>
<polygon fill="lightgray" stroke="black" points="790,-86.53 764,-86.53 764,-68.53 790,-68.53 790,-86.53"/>
<text text-anchor="middle" x="777" y="-75.33" font-family="Times,serif" font-size="9.00">&#45;7</text>
</g>
<!-- &#45;7&#45;&gt;1 -->
<g id="edge7" class="edge">
<title>&#45;7&#45;&gt;1</title>
<path fill="none" stroke="green" stroke-width="0.36" stroke-dasharray="1,5" d="M763.6,-71.32C760.78,-70.32 757.81,-69.33 755,-68.53 677.25,-46.31 583.01,-29.13 538.16,-21.53"/>
<polygon fill="green" stroke="green" stroke-width="0.36" points="538.55,-18.05 528.11,-19.85 537.4,-24.96 538.55,-18.05"/>
</g>
<!-- &#45;8 -->
<g id="node8" class="node">
<title>&#45;8</title>
<polygon fill="lightgray" stroke="black" points="878,-86.53 852,-86.53 852,-68.53 878,-68.53 878,-86.53"/>
<text text-anchor="middle" x="865" y="-75.33" font-family="Times,serif" font-size="9.00">&#45;8</text>
</g>
<!-- &#45;9 -->
<g id="node9" class="node">
<title>&#45;9</title>
<polygon fill="lightgray" stroke="black" points="502,-86.53 476,-86.53 476,-68.53 502,-68.53 502,-86.53"/>
<text text-anchor="middle" x="489" y="-75.33" font-family="Times,serif" font-size="9.00">&#45;9</text>
</g>
<!-- &#45;9&#45;&gt;1 -->
<g id="edge15" class="edge">
<title>&#45;9&#45;&gt;1</title>
<path fill="none" stroke="green" stroke-width="0.28" stroke-dasharray="1,5" d="M492.2,-68.29C494.91,-61.3 498.94,-50.91 502.66,-41.33"/>
<polygon fill="green" stroke="green" stroke-width="0.28" points="506,-42.41 506.35,-31.82 499.47,-39.87 506,-42.41"/>
</g>
<!-- &#45;10 -->
<g id="node10" class="node">
<title>&#45;10</title>
<polygon fill="lightgray" stroke="black" points="120,-86.53 88,-86.53 88,-68.53 120,-68.53 120,-86.53"/>
<text text-anchor="middle" x="104" y="-75.33" font-family="Times,serif" font-size="9.00">&#45;10</text>
</g>
<!-- &#45;10&#45;&gt;0 -->
<g id="edge1" class="edge">
<title>&#45;10&#45;&gt;0</title>
<path fill="none" stroke="green" stroke-width="0.47" d="M120.32,-68.53C141.18,-58.32 177.46,-40.55 201.35,-28.85"/>
<polygon fill="green" stroke="green" stroke-width="0.47" points="203.01,-31.93 210.45,-24.39 199.93,-25.65 203.01,-31.93"/>
</g>
<!-- &#45;11 -->
<g id="node11" class="node">
<title>&#45;11</title>
<polygon fill="lightgray" stroke="black" points="458,-86.53 426,-86.53 426,-68.53 458,-68.53 458,-86.53"/>
<text text-anchor="middle" x="442" y="-75.33" font-family="Times,serif" font-size="9.00">&#45;11</text>
</g>
<!-- &#45;11&#45;&gt;0 -->
<g id="edge4" class="edge">
<title>&#45;11&#45;&gt;0</title>
<path fill="none" stroke="green" stroke-width="0.16" d="M425.9,-71.25C422.95,-70.32 419.89,-69.37 417,-68.53 357.94,-51.2 287.96,-33.13 250.96,-23.77"/>
<polygon fill="green" stroke="green" stroke-width="0.16" points="251.56,-20.31 241,-21.25 249.84,-27.09 251.56,-20.31"/>
</g>
<!-- &#45;11&#45;&gt;1 -->
<g id="edge17" class="edge">
<title>&#45;11&#45;&gt;1</title>
<path fill="none" stroke="green" stroke-width="0.28" stroke-dasharray="1,5" d="M451.73,-68.29C462.19,-59.44 479.08,-45.14 492.32,-33.92"/>
<polygon fill="green" stroke="green" stroke-width="0.28" points="494.64,-36.55 500.01,-27.42 490.11,-31.21 494.64,-36.55"/>
</g>
<!-- &#45;12 -->
<g id="node12" class="node">
<title>&#45;12</title>
<polygon fill="lightgray" stroke="black" points="264,-86.53 232,-86.53 232,-68.53 264,-68.53 264,-86.53"/>
<text text-anchor="middle" x="248" y="-75.33" font-family="Times,serif" font-size="9.00">&#45;12</text>
</g>
<!-- &#45;12&#45;&gt;0 -->
<g id="edge14" class="edge">
<title>&#45;12&#45;&gt;0</title>
<path fill="none" stroke="green" stroke-width="0.16" d="M244.8,-68.29C242.09,-61.3 238.06,-50.91 234.34,-41.33"/>
<polygon fill="green" stroke="green" stroke-width="0.16" points="237.53,-39.87 230.65,-31.82 231,-42.41 237.53,-39.87"/>
</g>
<!-- &#45;12&#45;&gt;1 -->
<g id="edge6" class="edge">
<title>&#45;12&#45;&gt;1</title>
<path fill="none" stroke="red" stroke-width="0.16" stroke-dasharray="1,5" d="M264.07,-71.13C267.02,-70.21 270.09,-69.3 273,-68.53 349.71,-48.08 441.94,-30.14 486.04,-21.96"/>
<polygon fill="red" stroke="red" stroke-width="0.16" points="486.73,-25.4 495.93,-20.14 485.46,-18.51 486.73,-25.4"/>
</g>
<!-- &#45;13 -->
<g id="node13" class="node">
<title>&#45;13</title>
<polygon fill="lightgray" stroke="black" points="314,-86.53 282,-86.53 282,-68.53 314,-68.53 314,-86.53"/>
<text text-anchor="middle" x="298" y="-75.33" font-family="Times,serif" font-size="9.00">&#45;13</text>
</g>
<!-- &#45;13&#45;&gt;0 -->
<g id="edge8" class="edge">
<title>&#45;13&#45;&gt;0</title>
<path fill="none" stroke="red" stroke-width="0.47" d="M287.85,-68.29C276.95,-59.44 259.33,-45.14 245.52,-33.92"/>
<polygon fill="red" stroke="red" stroke-width="0.47" points="247.48,-31 237.51,-27.42 243.07,-36.44 247.48,-31"/>
</g>
<!-- &#45;13&#45;&gt;1 -->
<g id="edge21" class="edge">
<title>&#45;13&#45;&gt;1</title>
<path fill="none" stroke="green" stroke-width="0.77" stroke-dasharray="1,5" d="M314.11,-71.26C317.06,-70.32 320.12,-69.38 323,-68.53 381.16,-51.34 450.04,-33.21 486.46,-23.8"/>
<polygon fill="green" stroke="green" stroke-width="0.77" points="487.44,-27.16 496.25,-21.28 485.69,-20.39 487.44,-27.16"/>
</g>
<!-- &#45;14 -->
<g id="node14" class="node">
<title>&#45;14</title>
<polygon fill="lightgray" stroke="black" points="364,-86.53 332,-86.53 332,-68.53 364,-68.53 364,-86.53"/>
<text text-anchor="middle" x="348" y="-75.33" font-family="Times,serif" font-size="9.00">&#45;14</text>
</g>
<!-- &#45;14&#45;&gt;0 -->
<g id="edge2" class="edge">
<title>&#45;14&#45;&gt;0</title>
<path fill="none" stroke="red" stroke-width="0.14" d="M331.92,-68.78C310.74,-58.58 273.33,-40.55 248.86,-28.76"/>
<polygon fill="red" stroke="red" stroke-width="0.14" points="250.08,-25.46 239.55,-24.27 247.04,-31.77 250.08,-25.46"/>
</g>
<!-- &#45;14&#45;&gt;1 -->
<g id="edge20" class="edge">
<title>&#45;14&#45;&gt;1</title>
<path fill="none" stroke="red" stroke-width="0.18" d="M364.02,-70.74C392.66,-60.39 452.8,-38.66 486.93,-26.32"/>
<polygon fill="red" stroke="red" stroke-width="0.18" points="488.42,-29.51 496.63,-22.82 486.04,-22.92 488.42,-29.51"/>
</g>
<!-- &#45;15 -->
<g id="node15" class="node">
<title>&#45;15</title>
<polygon fill="lightgray" stroke="black" points="552,-86.53 520,-86.53 520,-68.53 552,-68.53 552,-86.53"/>
<text text-anchor="middle" x="536" y="-75.33" font-family="Times,serif" font-size="9.00">&#45;15</text>
</g>
<!-- &#45;15&#45;&gt;1 -->
<g id="edge10" class="edge">
<title>&#45;15&#45;&gt;1</title>
<path fill="none" stroke="red" stroke-width="0.42" stroke-dasharray="1,5" d="M532.66,-68.29C529.83,-61.3 525.63,-50.91 521.75,-41.33"/>
<polygon fill="red" stroke="red" stroke-width="0.42" points="524.89,-39.77 517.89,-31.82 518.4,-42.4 524.89,-39.77"/>
</g>
<!-- &#45;16 -->
<g id="node16" class="node">
<title>&#45;16</title>
<polygon fill="lightgray" stroke="black" points="170,-86.53 138,-86.53 138,-68.53 170,-68.53 170,-86.53"/>
<text text-anchor="middle" x="154" y="-75.33" font-family="Times,serif" font-size="9.00">&#45;16</text>
</g>
<!-- &#45;16&#45;&gt;0 -->
<g id="edge13" class="edge">
<title>&#45;16&#45;&gt;0</title>
<path fill="none" stroke="green" stroke-width="0.43" stroke-dasharray="1,5" d="M163.87,-68.29C174.47,-59.44 191.61,-45.14 205.04,-33.92"/>
<polygon fill="green" stroke="green" stroke-width="0.43" points="207.4,-36.51 212.84,-27.42 202.92,-31.14 207.4,-36.51"/>
</g>
<!-- &#45;17 -->
<g id="node17" class="node">
<title>&#45;17</title>
<polygon fill="lightgray" stroke="black" points="602,-86.53 570,-86.53 570,-68.53 602,-68.53 602,-86.53"/>
<text text-anchor="middle" x="586" y="-75.33" font-family="Times,serif" font-size="9.00">&#45;17</text>
</g>
<!-- &#45;17&#45;&gt;1 -->
<g id="edge3" class="edge">
<title>&#45;17&#45;&gt;1</title>
<path fill="none" stroke="green" stroke-width="0.94" d="M575.71,-68.29C564.59,-59.38 546.59,-44.97 532.55,-33.72"/>
<polygon fill="green" stroke="green" stroke-width="0.94" points="534.42,-30.73 524.42,-27.21 530.04,-36.2 534.42,-30.73"/>
</g>
<!-- &#45;18 -->
<g id="node18" class="node">
<title>&#45;18</title>
<polygon fill="lightgray" stroke="black" points="928,-86.53 896,-86.53 896,-68.53 928,-68.53 928,-86.53"/>
<text text-anchor="middle" x="912" y="-75.33" font-family="Times,serif" font-size="9.00">&#45;18</text>
</g>
<!-- &#45;19 -->
<g id="node19" class="node">
<title>&#45;19</title>
<polygon fill="lightgray" stroke="black" points="652,-86.53 620,-86.53 620,-68.53 652,-68.53 652,-86.53"/>
<text text-anchor="middle" x="636" y="-75.33" font-family="Times,serif" font-size="9.00">&#45;19</text>
</g>
<!-- &#45;19&#45;&gt;1 -->
<g id="edge11" class="edge">
<title>&#45;19&#45;&gt;1</title>
<path fill="none" stroke="green" stroke-width="0.68" stroke-dasharray="1,5" d="M619.79,-68.78C598.23,-58.48 559.98,-40.2 535.32,-28.41"/>
<polygon fill="green" stroke="green" stroke-width="0.68" points="536.82,-25.25 526.29,-24.09 533.81,-31.56 536.82,-25.25"/>
</g>
<!-- &#45;20 -->
<g id="node20" class="node">
<title>&#45;20</title>
<polygon fill="lightgray" stroke="black" points="702,-86.53 670,-86.53 670,-68.53 702,-68.53 702,-86.53"/>
<text text-anchor="middle" x="686" y="-75.33" font-family="Times,serif" font-size="9.00">&#45;20</text>
</g>
<!-- &#45;20&#45;&gt;1 -->
<g id="edge12" class="edge">
<title>&#45;20&#45;&gt;1</title>
<path fill="none" stroke="green" stroke-width="0.3" stroke-dasharray="1,5" d="M669.94,-71.06C639.62,-60.73 573.72,-38.29 537.36,-25.9"/>
<polygon fill="green" stroke="green" stroke-width="0.3" points="538.11,-22.46 527.52,-22.55 535.86,-29.09 538.11,-22.46"/>
</g>
</g>
</svg>
