<?xml version="1.0" encoding="UTF-8" standalone="no"?>
<!DOCTYPE svg PUBLIC "-//W3C//DTD SVG 1.1//EN"
 "http://www.w3.org/Graphics/SVG/1.1/DTD/svg11.dtd">
<!-- Generated by graphviz version 2.43.0 (0)
 -->
<!-- Title: %3 Pages: 1 -->
<svg width="1311pt" height="189pt"
 viewBox="0.00 0.00 1311.00 188.51" xmlns="http://www.w3.org/2000/svg" xmlns:xlink="http://www.w3.org/1999/xlink">
<g id="graph0" class="graph" transform="scale(1 1) rotate(0) translate(4 184.51)">
<title>%3</title>
<polygon fill="white" stroke="transparent" points="-4,4 -4,-184.51 1307,-184.51 1307,4 -4,4"/>
<!-- &#45;1 -->
<g id="node1" class="node">
<title>&#45;1</title>
<polygon fill="lightgray" stroke="black" points="26,-106.52 0,-106.52 0,-88.52 26,-88.52 26,-106.52"/>
<text text-anchor="middle" x="13" y="-95.32" font-family="Times,serif" font-size="9.00">&#45;1</text>
</g>
<!-- 0 -->
<g id="node29" class="node">
<title>0</title>
<ellipse fill="lightblue" stroke="black" cx="398" cy="-16.26" rx="16.03" ry="16.03"/>
<text text-anchor="middle" x="398" y="-14.06" font-family="Times,serif" font-size="9.00">0</text>
</g>
<!-- &#45;1&#45;&gt;0 -->
<g id="edge7" class="edge">
<title>&#45;1&#45;&gt;0</title>
<path fill="none" stroke="red" stroke-width="0.26" d="M17.06,-88.48C20.79,-81.97 26.97,-73.15 35,-68.53 92.58,-35.37 297.68,-22.2 371.38,-18.47"/>
<polygon fill="red" stroke="red" stroke-width="0.26" points="371.84,-21.95 381.66,-17.97 371.5,-14.96 371.84,-21.95"/>
</g>
<!-- &#45;2 -->
<g id="node2" class="node">
<title>&#45;2</title>
<polygon fill="lightgray" stroke="black" points="872,-106.52 846,-106.52 846,-88.52 872,-88.52 872,-106.52"/>
<text text-anchor="middle" x="859" y="-95.32" font-family="Times,serif" font-size="9.00">&#45;2</text>
</g>
<!-- 1 -->
<g id="node30" class="node">
<title>1</title>
<ellipse fill="lightblue" stroke="black" cx="705" cy="-16.26" rx="16.03" ry="16.03"/>
<text text-anchor="middle" x="705" y="-14.06" font-family="Times,serif" font-size="9.00">1</text>
</g>
<!-- &#45;2&#45;&gt;1 -->
<g id="edge25" class="edge">
<title>&#45;2&#45;&gt;1</title>
<path fill="none" stroke="red" stroke-width="0.17" d="M852.65,-88.26C847.6,-82.14 840.06,-73.96 832,-68.53 799.98,-46.93 757.46,-32.1 730.66,-24.14"/>
<polygon fill="red" stroke="red" stroke-width="0.17" points="731.46,-20.73 720.88,-21.34 729.53,-27.46 731.46,-20.73"/>
</g>
<!-- &#45;3 -->
<g id="node3" class="node">
<title>&#45;3</title>
<polygon fill="lightgray" stroke="black" points="70,-106.52 44,-106.52 44,-88.52 70,-88.52 70,-106.52"/>
<text text-anchor="middle" x="57" y="-95.32" font-family="Times,serif" font-size="9.00">&#45;3</text>
</g>
<!-- &#45;3&#45;&gt;0 -->
<g id="edge11" class="edge">
<title>&#45;3&#45;&gt;0</title>
<path fill="none" stroke="green" stroke-width="0.22" stroke-dasharray="1,5" d="M61.08,-88.51C64.83,-82.03 71.01,-73.23 79,-68.53 128.68,-39.28 304.25,-23.95 371.51,-19.04"/>
<polygon fill="green" stroke="green" stroke-width="0.22" points="371.97,-22.52 381.7,-18.32 371.47,-15.54 371.97,-22.52"/>
</g>
<!-- &#45;4 -->
<g id="node4" class="node">
<title>&#45;4</title>
<polygon fill="lightgray" stroke="black" points="608,-106.52 582,-106.52 582,-88.52 608,-88.52 608,-106.52"/>
<text text-anchor="middle" x="595" y="-95.32" font-family="Times,serif" font-size="9.00">&#45;4</text>
</g>
<!-- &#45;4&#45;&gt;0 -->
<g id="edge23" class="edge">
<title>&#45;4&#45;&gt;0</title>
<path fill="none" stroke="red" stroke-width="1.29" d="M590.6,-88.51C586.75,-82.21 580.58,-73.65 573,-68.53 526.54,-37.1 460.57,-24.62 424.35,-19.91"/>
<polygon fill="red" stroke="red" stroke-width="1.29" points="424.46,-16.4 414.11,-18.69 423.63,-23.35 424.46,-16.4"/>
</g>
<!-- &#45;4&#45;&gt;1 -->
<g id="edge26" class="edge">
<title>&#45;4&#45;&gt;1</title>
<path fill="none" stroke="red" stroke-width="0.18" d="M600.09,-88.49C604.16,-82.5 610.29,-74.37 617,-68.53 636.45,-51.61 662.29,-37.33 680.93,-28.18"/>
<polygon fill="red" stroke="red" stroke-width="0.18" points="682.69,-31.22 690.2,-23.75 679.67,-24.9 682.69,-31.22"/>
</g>
<!-- &#45;5 -->
<g id="node5" class="node">
<title>&#45;5</title>
<polygon fill="lightgray" stroke="black" points="114,-106.52 88,-106.52 88,-88.52 114,-88.52 114,-106.52"/>
<text text-anchor="middle" x="101" y="-95.32" font-family="Times,serif" font-size="9.00">&#45;5</text>
</g>
<!-- &#45;5&#45;&gt;0 -->
<g id="edge28" class="edge">
<title>&#45;5&#45;&gt;0</title>
<path fill="none" stroke="green" stroke-width="0.26" d="M105.26,-88.31C109.04,-81.88 115.18,-73.27 123,-68.53 164.85,-43.19 311.14,-25.98 371.57,-19.8"/>
<polygon fill="green" stroke="green" stroke-width="0.26" points="372.21,-23.26 381.81,-18.78 371.51,-16.29 372.21,-23.26"/>
</g>
<!-- &#45;6 -->
<g id="node6" class="node">
<title>&#45;6</title>
<polygon fill="lightgray" stroke="black" points="652,-106.52 626,-106.52 626,-88.52 652,-88.52 652,-106.52"/>
<text text-anchor="middle" x="639" y="-95.32" font-family="Times,serif" font-size="9.00">&#45;6</text>
</g>
<!-- &#45;6&#45;&gt;0 -->
<g id="edge22" class="edge">
<title>&#45;6&#45;&gt;0</title>
<path fill="none" stroke="green" stroke-width="0.51" d="M634.68,-88.4C630.86,-82.03 624.71,-73.44 617,-68.53 555.68,-29.45 467.69,-20.1 424.28,-17.9"/>
<polygon fill="green" stroke="green" stroke-width="0.51" points="424.38,-14.41 414.24,-17.49 424.09,-21.4 424.38,-14.41"/>
</g>
<!-- &#45;6&#45;&gt;1 -->
<g id="edge8" class="edge">
<title>&#45;6&#45;&gt;1</title>
<path fill="none" stroke="red" stroke-width="0.14" d="M645.45,-88.11C649.79,-82.52 655.66,-75.02 661,-68.53 669.75,-57.87 679.75,-46.19 687.99,-36.68"/>
<polygon fill="red" stroke="red" stroke-width="0.14" points="690.79,-38.79 694.72,-28.95 685.51,-34.2 690.79,-38.79"/>
</g>
<!-- &#45;7 -->
<g id="node7" class="node">
<title>&#45;7</title>
<polygon fill="lightgray" stroke="black" points="696,-106.52 670,-106.52 670,-88.52 696,-88.52 696,-106.52"/>
<text text-anchor="middle" x="683" y="-95.32" font-family="Times,serif" font-size="9.00">&#45;7</text>
</g>
<!-- &#45;7&#45;&gt;0 -->
<g id="edge10" class="edge">
<title>&#45;7&#45;&gt;0</title>
<path fill="none" stroke="red" stroke-width="0.63" d="M678.72,-88.32C674.94,-81.91 668.81,-73.3 661,-68.53 584.64,-21.86 474.52,-16.38 424.5,-16.54"/>
<polygon fill="red" stroke="red" stroke-width="0.63" points="424.46,-13.04 414.5,-16.65 424.54,-20.04 424.46,-13.04"/>
</g>
<!-- &#45;7&#45;&gt;1 -->
<g id="edge13" class="edge">
<title>&#45;7&#45;&gt;1</title>
<path fill="none" stroke="red" stroke-width="0.46" stroke-dasharray="1,5" d="M685.27,-88.34C688.28,-77.5 693.72,-57.91 698.12,-42.04"/>
<polygon fill="red" stroke="red" stroke-width="0.46" points="701.53,-42.84 700.83,-32.27 694.79,-40.97 701.53,-42.84"/>
</g>
<!-- &#45;8 -->
<g id="node8" class="node">
<title>&#45;8</title>
<polygon fill="lightgray" stroke="black" points="953,-180.51 927,-180.51 927,-162.51 953,-162.51 953,-180.51"/>
<text text-anchor="middle" x="940" y="-169.31" font-family="Times,serif" font-size="9.00">&#45;8</text>
</g>
<!-- &#45;9 -->
<g id="node9" class="node">
<title>&#45;9</title>
<polygon fill="lightgray" stroke="black" points="740,-106.52 714,-106.52 714,-88.52 740,-88.52 740,-106.52"/>
<text text-anchor="middle" x="727" y="-95.32" font-family="Times,serif" font-size="9.00">&#45;9</text>
</g>
<!-- &#45;9&#45;&gt;0 -->
<g id="edge1" class="edge">
<title>&#45;9&#45;&gt;0</title>
<path fill="none" stroke="red" stroke-width="0.27" d="M722.76,-88.27C718.99,-81.82 712.87,-73.19 705,-68.53 657.54,-40.4 490.48,-24.53 424.8,-19.26"/>
<polygon fill="red" stroke="red" stroke-width="0.27" points="424.71,-15.74 414.47,-18.45 424.16,-22.72 424.71,-15.74"/>
</g>
<!-- &#45;9&#45;&gt;1 -->
<g id="edge20" class="edge">
<title>&#45;9&#45;&gt;1</title>
<path fill="none" stroke="green" stroke-width="1.83" stroke-dasharray="1,5" d="M724.73,-88.34C721.72,-77.5 716.28,-57.91 711.88,-42.04"/>
<polygon fill="green" stroke="green" stroke-width="1.83" points="715.21,-40.97 709.17,-32.27 708.47,-42.84 715.21,-40.97"/>
</g>
<!-- &#45;10 -->
<g id="node10" class="node">
<title>&#45;10</title>
<polygon fill="lightgray" stroke="black" points="1003,-180.51 971,-180.51 971,-162.51 1003,-162.51 1003,-180.51"/>
<text text-anchor="middle" x="987" y="-169.31" font-family="Times,serif" font-size="9.00">&#45;10</text>
</g>
<!-- &#45;11 -->
<g id="node11" class="node">
<title>&#45;11</title>
<polygon fill="lightgray" stroke="black" points="164,-106.52 132,-106.52 132,-88.52 164,-88.52 164,-106.52"/>
<text text-anchor="middle" x="148" y="-95.32" font-family="Times,serif" font-size="9.00">&#45;11</text>
</g>
<!-- &#45;11&#45;&gt;0 -->
<g id="edge9" class="edge">
<title>&#45;11&#45;&gt;0</title>
<path fill="none" stroke="red" stroke-width="0.4" d="M153.16,-88.39C157.64,-82.02 164.69,-73.43 173,-68.53 237.42,-30.53 327.53,-20.69 371.61,-18.15"/>
<polygon fill="red" stroke="red" stroke-width="0.4" points="371.97,-21.63 381.78,-17.64 371.62,-14.64 371.97,-21.63"/>
</g>
<!-- &#45;12 -->
<g id="node12" class="node">
<title>&#45;12</title>
<polygon fill="lightgray" stroke="black" points="1053,-180.51 1021,-180.51 1021,-162.51 1053,-162.51 1053,-180.51"/>
<text text-anchor="middle" x="1037" y="-169.31" font-family="Times,serif" font-size="9.00">&#45;12</text>
</g>
<!-- &#45;13 -->
<g id="node13" class="node">
<title>&#45;13</title>
<polygon fill="lightgray" stroke="black" points="214,-106.52 182,-106.52 182,-88.52 214,-88.52 214,-106.52"/>
<text text-anchor="middle" x="198" y="-95.32" font-family="Times,serif" font-size="9.00">&#45;13</text>
</g>
<!-- &#45;13&#45;&gt;0 -->
<g id="edge18" class="edge">
<title>&#45;13&#45;&gt;0</title>
<path fill="none" stroke="green" stroke-width="0.16" d="M203.43,-88.27C207.96,-82 214.96,-73.61 223,-68.53 270.3,-38.65 335.69,-25.59 371.65,-20.37"/>
<polygon fill="green" stroke="green" stroke-width="0.16" points="372.38,-23.81 381.82,-18.99 371.44,-16.87 372.38,-23.81"/>
</g>
<!-- &#45;14 -->
<g id="node14" class="node">
<title>&#45;14</title>
<polygon fill="lightgray" stroke="black" points="264,-106.52 232,-106.52 232,-88.52 264,-88.52 264,-106.52"/>
<text text-anchor="middle" x="248" y="-95.32" font-family="Times,serif" font-size="9.00">&#45;14</text>
</g>
<!-- &#45;14&#45;&gt;0 -->
<g id="edge21" class="edge">
<title>&#45;14&#45;&gt;0</title>
<path fill="none" stroke="red" stroke-width="0.19" d="M253.77,-88.24C258.39,-82.12 265.34,-73.94 273,-68.53 304.11,-46.53 346.07,-31.81 372.58,-23.99"/>
<polygon fill="red" stroke="red" stroke-width="0.19" points="373.6,-27.33 382.26,-21.23 371.69,-20.6 373.6,-27.33"/>
</g>
<!-- &#45;15 -->
<g id="node15" class="node">
<title>&#45;15</title>
<polygon fill="lightgray" stroke="black" points="1103,-180.51 1071,-180.51 1071,-162.51 1103,-162.51 1103,-180.51"/>
<text text-anchor="middle" x="1087" y="-169.31" font-family="Times,serif" font-size="9.00">&#45;15</text>
</g>
<!-- &#45;16 -->
<g id="node16" class="node">
<title>&#45;16</title>
<polygon fill="lightgray" stroke="black" points="1153,-180.51 1121,-180.51 1121,-162.51 1153,-162.51 1153,-180.51"/>
<text text-anchor="middle" x="1137" y="-169.31" font-family="Times,serif" font-size="9.00">&#45;16</text>
</g>
<!-- &#45;17 -->
<g id="node17" class="node">
<title>&#45;17</title>
<polygon fill="lightgray" stroke="black" points="314,-106.52 282,-106.52 282,-88.52 314,-88.52 314,-106.52"/>
<text text-anchor="middle" x="298" y="-95.32" font-family="Times,serif" font-size="9.00">&#45;17</text>
</g>
<!-- &#45;17&#45;&gt;0 -->
<g id="edge12" class="edge">
<title>&#45;17&#45;&gt;0</title>
<path fill="none" stroke="red" stroke-width="0.23" stroke-dasharray="1,5" d="M304.32,-88.44C309.12,-82.58 316.05,-74.63 323,-68.53 339.39,-54.13 359.96,-40.33 375.41,-30.68"/>
<polygon fill="red" stroke="red" stroke-width="0.23" points="377.59,-33.45 384.28,-25.24 373.93,-27.48 377.59,-33.45"/>
</g>
<!-- &#45;18 -->
<g id="node18" class="node">
<title>&#45;18</title>
<polygon fill="lightgray" stroke="black" points="364,-106.52 332,-106.52 332,-88.52 364,-88.52 364,-106.52"/>
<text text-anchor="middle" x="348" y="-95.32" font-family="Times,serif" font-size="9.00">&#45;18</text>
</g>
<!-- &#45;18&#45;&gt;0 -->
<g id="edge5" class="edge">
<title>&#45;18&#45;&gt;0</title>
<path fill="none" stroke="green" stroke-width="0.32" d="M353.16,-88.34C360.38,-76.9 373.75,-55.7 384.02,-39.42"/>
<polygon fill="green" stroke="green" stroke-width="0.32" points="387.26,-40.84 389.64,-30.52 381.34,-37.11 387.26,-40.84"/>
</g>
<!-- &#45;19 -->
<g id="node19" class="node">
<title>&#45;19</title>
<polygon fill="lightgray" stroke="black" points="414,-106.52 382,-106.52 382,-88.52 414,-88.52 414,-106.52"/>
<text text-anchor="middle" x="398" y="-95.32" font-family="Times,serif" font-size="9.00">&#45;19</text>
</g>
<!-- &#45;19&#45;&gt;0 -->
<g id="edge6" class="edge">
<title>&#45;19&#45;&gt;0</title>
<path fill="none" stroke="red" stroke-width="0.41" d="M398,-88.34C398,-77.67 398,-58.51 398,-42.77"/>
<polygon fill="red" stroke="red" stroke-width="0.41" points="401.5,-42.57 398,-32.57 394.5,-42.57 401.5,-42.57"/>
</g>
<!-- &#45;20 -->
<g id="node20" class="node">
<title>&#45;20</title>
<polygon fill="lightgray" stroke="black" points="790,-106.52 758,-106.52 758,-88.52 790,-88.52 790,-106.52"/>
<text text-anchor="middle" x="774" y="-95.32" font-family="Times,serif" font-size="9.00">&#45;20</text>
</g>
<!-- &#45;20&#45;&gt;0 -->
<g id="edge27" class="edge">
<title>&#45;20&#45;&gt;0</title>
<path fill="none" stroke="green" stroke-width="0.19" stroke-dasharray="1,5" d="M769.12,-88.48C764.71,-81.97 757.61,-73.16 749,-68.53 692.62,-38.21 496.36,-23.33 424.57,-18.8"/>
<polygon fill="green" stroke="green" stroke-width="0.19" points="424.35,-15.28 414.16,-18.16 423.92,-22.27 424.35,-15.28"/>
</g>
<!-- &#45;20&#45;&gt;1 -->
<g id="edge24" class="edge">
<title>&#45;20&#45;&gt;1</title>
<path fill="none" stroke="red" stroke-width="0.36" stroke-dasharray="1,5" d="M766.88,-88.34C756.44,-76.35 736.67,-53.64 722.28,-37.11"/>
<polygon fill="red" stroke="red" stroke-width="0.36" points="724.52,-34.36 715.32,-29.12 719.24,-38.96 724.52,-34.36"/>
</g>
<!-- &#45;21 -->
<g id="node21" class="node">
<title>&#45;21</title>
<polygon fill="lightgray" stroke="black" points="1203,-180.51 1171,-180.51 1171,-162.51 1203,-162.51 1203,-180.51"/>
<text text-anchor="middle" x="1187" y="-169.31" font-family="Times,serif" font-size="9.00">&#45;21</text>
</g>
<!-- &#45;22 -->
<g id="node22" class="node">
<title>&#45;22</title>
<polygon fill="lightgray" stroke="black" points="464,-106.52 432,-106.52 432,-88.52 464,-88.52 464,-106.52"/>
<text text-anchor="middle" x="448" y="-95.32" font-family="Times,serif" font-size="9.00">&#45;22</text>
</g>
<!-- &#45;22&#45;&gt;0 -->
<g id="edge16" class="edge">
<title>&#45;22&#45;&gt;0</title>
<path fill="none" stroke="green" stroke-width="1.14" d="M442.84,-88.34C435.62,-76.9 422.25,-55.7 411.98,-39.42"/>
<polygon fill="green" stroke="green" stroke-width="1.14" points="414.66,-37.11 406.36,-30.52 408.74,-40.84 414.66,-37.11"/>
</g>
<!-- &#45;22&#45;&gt;1 -->
<g id="edge3" class="edge">
<title>&#45;22&#45;&gt;1</title>
<path fill="none" stroke="green" stroke-width="0.19" d="M453.15,-88.38C457.62,-81.99 464.68,-73.4 473,-68.53 539.76,-29.44 633.21,-20.11 678.42,-17.92"/>
<polygon fill="green" stroke="green" stroke-width="0.19" points="678.73,-21.41 688.58,-17.51 678.44,-14.41 678.73,-21.41"/>
</g>
<!-- &#45;23 -->
<g id="node23" class="node">
<title>&#45;23</title>
<polygon fill="lightgray" stroke="black" points="1253,-180.51 1221,-180.51 1221,-162.51 1253,-162.51 1253,-180.51"/>
<text text-anchor="middle" x="1237" y="-169.31" font-family="Times,serif" font-size="9.00">&#45;23</text>
</g>
<!-- &#45;24 -->
<g id="node24" class="node">
<title>&#45;24</title>
<polygon fill="lightgray" stroke="black" points="514,-106.52 482,-106.52 482,-88.52 514,-88.52 514,-106.52"/>
<text text-anchor="middle" x="498" y="-95.32" font-family="Times,serif" font-size="9.00">&#45;24</text>
</g>
<!-- &#45;24&#45;&gt;0 -->
<g id="edge19" class="edge">
<title>&#45;24&#45;&gt;0</title>
<path fill="none" stroke="red" stroke-width="1.09" stroke-dasharray="1,5" d="M491.68,-88.44C486.88,-82.58 479.95,-74.63 473,-68.53 456.61,-54.13 436.04,-40.33 420.59,-30.68"/>
<polygon fill="red" stroke="red" stroke-width="1.09" points="422.07,-27.48 411.72,-25.24 418.41,-33.45 422.07,-27.48"/>
</g>
<!-- &#45;24&#45;&gt;1 -->
<g id="edge14" class="edge">
<title>&#45;24&#45;&gt;1</title>
<path fill="none" stroke="red" stroke-width="0.39" d="M503.23,-88.5C507.74,-82.19 514.82,-73.63 523,-68.53 572.67,-37.51 641.49,-24.83 678.66,-19.99"/>
<polygon fill="red" stroke="red" stroke-width="0.39" points="679.18,-23.45 688.69,-18.78 678.34,-16.5 679.18,-23.45"/>
</g>
<!-- &#45;25 -->
<g id="node25" class="node">
<title>&#45;25</title>
<polygon fill="lightgray" stroke="black" points="922,-106.52 890,-106.52 890,-88.52 922,-88.52 922,-106.52"/>
<text text-anchor="middle" x="906" y="-95.32" font-family="Times,serif" font-size="9.00">&#45;25</text>
</g>
<!-- &#45;25&#45;&gt;1 -->
<g id="edge15" class="edge">
<title>&#45;25&#45;&gt;1</title>
<path fill="none" stroke="green" stroke-width="0.53" stroke-dasharray="1,5" d="M900.58,-88.27C896.05,-81.99 889.05,-73.6 881,-68.53 833.43,-38.53 767.67,-25.52 731.5,-20.34"/>
<polygon fill="green" stroke="green" stroke-width="0.53" points="731.65,-16.83 721.28,-18.97 730.72,-23.76 731.65,-16.83"/>
</g>
<!-- &#45;26 -->
<g id="node26" class="node">
<title>&#45;26</title>
<polygon fill="lightgray" stroke="black" points="564,-106.52 532,-106.52 532,-88.52 564,-88.52 564,-106.52"/>
<text text-anchor="middle" x="548" y="-95.32" font-family="Times,serif" font-size="9.00">&#45;26</text>
</g>
<!-- &#45;26&#45;&gt;0 -->
<g id="edge2" class="edge">
<title>&#45;26&#45;&gt;0</title>
<path fill="none" stroke="green" stroke-width="1.31" d="M542.23,-88.24C537.61,-82.12 530.66,-73.94 523,-68.53 491.89,-46.53 449.93,-31.81 423.42,-23.99"/>
<polygon fill="green" stroke="green" stroke-width="1.31" points="424.31,-20.6 413.74,-21.23 422.4,-27.33 424.31,-20.6"/>
</g>
<!-- &#45;26&#45;&gt;1 -->
<g id="edge17" class="edge">
<title>&#45;26&#45;&gt;1</title>
<path fill="none" stroke="red" stroke-width="0.37" stroke-dasharray="1,5" d="M553.74,-88.2C558.34,-82.06 565.29,-73.87 573,-68.53 606.32,-45.43 651.5,-30.81 679.42,-23.34"/>
<polygon fill="red" stroke="red" stroke-width="0.37" points="680.4,-26.7 689.22,-20.82 678.66,-19.92 680.4,-26.7"/>
</g>
<!-- &#45;27 -->
<g id="node27" class="node">
<title>&#45;27</title>
<polygon fill="lightgray" stroke="black" points="909,-180.51 877,-180.51 877,-162.51 909,-162.51 909,-180.51"/>
<text text-anchor="middle" x="893" y="-169.31" font-family="Times,serif" font-size="9.00">&#45;27</text>
</g>
<!-- &#45;27&#45;&gt;1 -->
<g id="edge4" class="edge">
<title>&#45;27&#45;&gt;1</title>
<path fill="none" stroke="red" stroke-width="0.67" stroke-dasharray="1,5" d="M880.47,-162.43C868.44,-154.29 850.21,-140.9 837,-126.51 816.17,-103.81 821.65,-89.42 799,-68.53 778.54,-49.66 749.87,-35.33 729.58,-26.68"/>
<polygon fill="red" stroke="red" stroke-width="0.67" points="730.67,-23.35 720.09,-22.79 728.02,-29.82 730.67,-23.35"/>
</g>
<!-- 1449 -->
<g id="node31" class="node">
<title>1449</title>
<ellipse fill="white" stroke="black" cx="969" cy="-97.52" rx="28.98" ry="28.98"/>
<text text-anchor="middle" x="969" y="-95.32" font-family="Times,serif" font-size="9.00">1449</text>
</g>
<!-- &#45;27&#45;&gt;1449 -->
<g id="edge29" class="edge">
<title>&#45;27&#45;&gt;1449</title>
<path fill="none" stroke="red" stroke-width="0.2" d="M901.72,-162.25C911.26,-153.21 927.05,-138.26 940.93,-125.11"/>
<polygon fill="red" stroke="red" stroke-width="0.2" points="943.55,-127.45 948.4,-118.03 938.73,-122.37 943.55,-127.45"/>
</g>
<!-- &#45;28 -->
<g id="node28" class="node">
<title>&#45;28</title>
<polygon fill="lightgray" stroke="black" points="1303,-180.51 1271,-180.51 1271,-162.51 1303,-162.51 1303,-180.51"/>
<text text-anchor="middle" x="1287" y="-169.31" font-family="Times,serif" font-size="9.00">&#45;28</text>
</g>
<!-- 1449&#45;&gt;1 -->
<g id="edge30" class="edge">
<title>1449&#45;&gt;1</title>
<path fill="none" stroke="red" stroke-width="0.12" d="M947.05,-78.02C942.02,-74.45 936.51,-71.05 931,-68.53 863.04,-37.44 774.71,-24.48 731.36,-19.7"/>
<polygon fill="red" stroke="red" stroke-width="0.12" points="731.65,-16.21 721.34,-18.66 730.93,-23.18 731.65,-16.21"/>
</g>
</g>
</svg>
