<?xml version="1.0" encoding="UTF-8" standalone="no"?>
<!DOCTYPE svg PUBLIC "-//W3C//DTD SVG 1.1//EN"
 "http://www.w3.org/Graphics/SVG/1.1/DTD/svg11.dtd">
<!-- Generated by graphviz version 2.43.0 (0)
 -->
<!-- Title: %3 Pages: 1 -->
<svg width="536pt" height="95pt"
 viewBox="0.00 0.00 536.00 94.53" xmlns="http://www.w3.org/2000/svg" xmlns:xlink="http://www.w3.org/1999/xlink">
<g id="graph0" class="graph" transform="scale(1 1) rotate(0) translate(4 90.53)">
<title>%3</title>
<polygon fill="white" stroke="transparent" points="-4,4 -4,-90.53 532,-90.53 532,4 -4,4"/>
<!-- &#45;1 -->
<g id="node1" class="node">
<title>&#45;1</title>
<polygon fill="lightgray" stroke="black" points="26,-86.53 0,-86.53 0,-68.53 26,-68.53 26,-86.53"/>
<text text-anchor="middle" x="13" y="-75.33" font-family="Times,serif" font-size="9.00">&#45;1</text>
</g>
<!-- 0 -->
<g id="node13" class="node">
<title>0</title>
<ellipse fill="lightblue" stroke="black" cx="123" cy="-16.26" rx="16.03" ry="16.03"/>
<text text-anchor="middle" x="123" y="-14.06" font-family="Times,serif" font-size="9.00">0</text>
</g>
<!-- &#45;1&#45;&gt;0 -->
<g id="edge12" class="edge">
<title>&#45;1&#45;&gt;0</title>
<path fill="none" stroke="red" stroke-width="0.68" d="M26.05,-69.5C44.28,-59.68 77.63,-41.71 100.06,-29.62"/>
<polygon fill="red" stroke="red" stroke-width="0.68" points="101.78,-32.67 108.93,-24.85 98.46,-26.51 101.78,-32.67"/>
</g>
<!-- &#45;2 -->
<g id="node2" class="node">
<title>&#45;2</title>
<polygon fill="lightgray" stroke="black" points="296,-86.53 270,-86.53 270,-68.53 296,-68.53 296,-86.53"/>
<text text-anchor="middle" x="283" y="-75.33" font-family="Times,serif" font-size="9.00">&#45;2</text>
</g>
<!-- 1 -->
<g id="node14" class="node">
<title>1</title>
<ellipse fill="lightblue" stroke="black" cx="349" cy="-16.26" rx="16.03" ry="16.03"/>
<text text-anchor="middle" x="349" y="-14.06" font-family="Times,serif" font-size="9.00">1</text>
</g>
<!-- &#45;2&#45;&gt;1 -->
<g id="edge11" class="edge">
<title>&#45;2&#45;&gt;1</title>
<path fill="none" stroke="red" stroke-width="1.73" d="M292.18,-68.29C301.82,-59.62 317.29,-45.74 329.65,-34.64"/>
<polygon fill="red" stroke="red" stroke-width="1.73" points="332.13,-37.12 337.23,-27.83 327.45,-31.91 332.13,-37.12"/>
</g>
<!-- &#45;3 -->
<g id="node3" class="node">
<title>&#45;3</title>
<polygon fill="lightgray" stroke="black" points="70,-86.53 44,-86.53 44,-68.53 70,-68.53 70,-86.53"/>
<text text-anchor="middle" x="57" y="-75.33" font-family="Times,serif" font-size="9.00">&#45;3</text>
</g>
<!-- &#45;3&#45;&gt;0 -->
<g id="edge9" class="edge">
<title>&#45;3&#45;&gt;0</title>
<path fill="none" stroke="green" stroke-width="0.35" d="M66.18,-68.29C75.82,-59.62 91.29,-45.74 103.65,-34.64"/>
<polygon fill="green" stroke="green" stroke-width="0.35" points="106.13,-37.12 111.23,-27.83 101.45,-31.91 106.13,-37.12"/>
</g>
<!-- &#45;4 -->
<g id="node4" class="node">
<title>&#45;4</title>
<polygon fill="lightgray" stroke="black" points="252,-86.53 226,-86.53 226,-68.53 252,-68.53 252,-86.53"/>
<text text-anchor="middle" x="239" y="-75.33" font-family="Times,serif" font-size="9.00">&#45;4</text>
</g>
<!-- &#45;4&#45;&gt;0 -->
<g id="edge1" class="edge">
<title>&#45;4&#45;&gt;0</title>
<path fill="none" stroke="red" stroke-width="0.17" d="M225.69,-69.73C206.34,-59.84 170.14,-41.35 146.31,-29.17"/>
<polygon fill="red" stroke="red" stroke-width="0.17" points="147.73,-25.97 137.23,-24.54 144.55,-32.2 147.73,-25.97"/>
</g>
<!-- &#45;4&#45;&gt;1 -->
<g id="edge7" class="edge">
<title>&#45;4&#45;&gt;1</title>
<path fill="none" stroke="green" stroke-width="1.08" d="M252.05,-69.5C270.28,-59.68 303.63,-41.71 326.06,-29.62"/>
<polygon fill="green" stroke="green" stroke-width="1.08" points="327.78,-32.67 334.93,-24.85 324.46,-26.51 327.78,-32.67"/>
</g>
<!-- &#45;5 -->
<g id="node5" class="node">
<title>&#45;5</title>
<polygon fill="lightgray" stroke="black" points="114,-86.53 88,-86.53 88,-68.53 114,-68.53 114,-86.53"/>
<text text-anchor="middle" x="101" y="-75.33" font-family="Times,serif" font-size="9.00">&#45;5</text>
</g>
<!-- &#45;5&#45;&gt;0 -->
<g id="edge5" class="edge">
<title>&#45;5&#45;&gt;0</title>
<path fill="none" stroke="red" stroke-width="0.38" d="M104.06,-68.29C106.65,-61.3 110.51,-50.91 114.06,-41.33"/>
<polygon fill="red" stroke="red" stroke-width="0.38" points="117.4,-42.41 117.6,-31.82 110.84,-39.97 117.4,-42.41"/>
</g>
<!-- &#45;6 -->
<g id="node6" class="node">
<title>&#45;6</title>
<polygon fill="lightgray" stroke="black" points="340,-86.53 314,-86.53 314,-68.53 340,-68.53 340,-86.53"/>
<text text-anchor="middle" x="327" y="-75.33" font-family="Times,serif" font-size="9.00">&#45;6</text>
</g>
<!-- &#45;6&#45;&gt;1 -->
<g id="edge8" class="edge">
<title>&#45;6&#45;&gt;1</title>
<path fill="none" stroke="red" stroke-width="0.25" d="M330.06,-68.29C332.65,-61.3 336.51,-50.91 340.06,-41.33"/>
<polygon fill="red" stroke="red" stroke-width="0.25" points="343.4,-42.41 343.6,-31.82 336.84,-39.97 343.4,-42.41"/>
</g>
<!-- &#45;7 -->
<g id="node7" class="node">
<title>&#45;7</title>
<polygon fill="lightgray" stroke="black" points="158,-86.53 132,-86.53 132,-68.53 158,-68.53 158,-86.53"/>
<text text-anchor="middle" x="145" y="-75.33" font-family="Times,serif" font-size="9.00">&#45;7</text>
</g>
<!-- &#45;7&#45;&gt;0 -->
<g id="edge6" class="edge">
<title>&#45;7&#45;&gt;0</title>
<path fill="none" stroke="green" stroke-width="0.24" d="M141.94,-68.29C139.35,-61.3 135.49,-50.91 131.94,-41.33"/>
<polygon fill="green" stroke="green" stroke-width="0.24" points="135.16,-39.97 128.4,-31.82 128.6,-42.41 135.16,-39.97"/>
</g>
<!-- &#45;8 -->
<g id="node8" class="node">
<title>&#45;8</title>
<polygon fill="lightgray" stroke="black" points="384,-86.53 358,-86.53 358,-68.53 384,-68.53 384,-86.53"/>
<text text-anchor="middle" x="371" y="-75.33" font-family="Times,serif" font-size="9.00">&#45;8</text>
</g>
<!-- &#45;8&#45;&gt;1 -->
<g id="edge10" class="edge">
<title>&#45;8&#45;&gt;1</title>
<path fill="none" stroke="red" stroke-width="0.13" d="M367.94,-68.29C365.35,-61.3 361.49,-50.91 357.94,-41.33"/>
<polygon fill="red" stroke="red" stroke-width="0.13" points="361.16,-39.97 354.4,-31.82 354.6,-42.41 361.16,-39.97"/>
</g>
<!-- &#45;9 -->
<g id="node9" class="node">
<title>&#45;9</title>
<polygon fill="lightgray" stroke="black" points="428,-86.53 402,-86.53 402,-68.53 428,-68.53 428,-86.53"/>
<text text-anchor="middle" x="415" y="-75.33" font-family="Times,serif" font-size="9.00">&#45;9</text>
</g>
<!-- &#45;9&#45;&gt;1 -->
<g id="edge3" class="edge">
<title>&#45;9&#45;&gt;1</title>
<path fill="none" stroke="green" stroke-width="0.6" d="M405.82,-68.29C396.18,-59.62 380.71,-45.74 368.35,-34.64"/>
<polygon fill="green" stroke="green" stroke-width="0.6" points="370.55,-31.91 360.77,-27.83 365.87,-37.12 370.55,-31.91"/>
</g>
<!-- &#45;10 -->
<g id="node10" class="node">
<title>&#45;10</title>
<polygon fill="lightgray" stroke="black" points="208,-86.53 176,-86.53 176,-68.53 208,-68.53 208,-86.53"/>
<text text-anchor="middle" x="192" y="-75.33" font-family="Times,serif" font-size="9.00">&#45;10</text>
</g>
<!-- &#45;10&#45;&gt;0 -->
<g id="edge4" class="edge">
<title>&#45;10&#45;&gt;0</title>
<path fill="none" stroke="red" stroke-width="0.57" stroke-dasharray="1,5" d="M182.41,-68.29C172.32,-59.62 156.16,-45.74 143.23,-34.64"/>
<polygon fill="red" stroke="red" stroke-width="0.57" points="145.17,-31.69 135.31,-27.83 140.61,-37 145.17,-31.69"/>
</g>
<!-- &#45;11 -->
<g id="node11" class="node">
<title>&#45;11</title>
<polygon fill="lightgray" stroke="black" points="528,-86.53 496,-86.53 496,-68.53 528,-68.53 528,-86.53"/>
<text text-anchor="middle" x="512" y="-75.33" font-family="Times,serif" font-size="9.00">&#45;11</text>
</g>
<!-- &#45;12 -->
<g id="node12" class="node">
<title>&#45;12</title>
<polygon fill="lightgray" stroke="black" points="478,-86.53 446,-86.53 446,-68.53 478,-68.53 478,-86.53"/>
<text text-anchor="middle" x="462" y="-75.33" font-family="Times,serif" font-size="9.00">&#45;12</text>
</g>
<!-- &#45;12&#45;&gt;1 -->
<g id="edge2" class="edge">
<title>&#45;12&#45;&gt;1</title>
<path fill="none" stroke="red" stroke-width="0.37" d="M446.29,-68.29C427.06,-58.2 394.33,-41.04 372.2,-29.43"/>
<polygon fill="red" stroke="red" stroke-width="0.37" points="373.64,-26.23 363.15,-24.69 370.38,-32.43 373.64,-26.23"/>
</g>
</g>
</svg>
