<?xml version="1.0" encoding="UTF-8" standalone="no"?>
<!DOCTYPE svg PUBLIC "-//W3C//DTD SVG 1.1//EN"
 "http://www.w3.org/Graphics/SVG/1.1/DTD/svg11.dtd">
<!-- Generated by graphviz version 2.43.0 (0)
 -->
<!-- Title: %3 Pages: 1 -->
<svg width="936pt" height="95pt"
 viewBox="0.00 0.00 936.00 94.53" xmlns="http://www.w3.org/2000/svg" xmlns:xlink="http://www.w3.org/1999/xlink">
<g id="graph0" class="graph" transform="scale(1 1) rotate(0) translate(4 90.53)">
<title>%3</title>
<polygon fill="white" stroke="transparent" points="-4,4 -4,-90.53 932,-90.53 932,4 -4,4"/>
<!-- &#45;1 -->
<g id="node1" class="node">
<title>&#45;1</title>
<polygon fill="lightgray" stroke="black" points="414,-86.53 388,-86.53 388,-68.53 414,-68.53 414,-86.53"/>
<text text-anchor="middle" x="401" y="-75.33" font-family="Times,serif" font-size="9.00">&#45;1</text>
</g>
<!-- 0 -->
<g id="node21" class="node">
<title>0</title>
<ellipse fill="lightblue" stroke="black" cx="207" cy="-16.26" rx="16.03" ry="16.03"/>
<text text-anchor="middle" x="207" y="-14.06" font-family="Times,serif" font-size="9.00">0</text>
</g>
<!-- &#45;1&#45;&gt;0 -->
<g id="edge2" class="edge">
<title>&#45;1&#45;&gt;0</title>
<path fill="none" stroke="red" stroke-width="0.19" stroke-dasharray="1,5" d="M387.55,-71.49C384.73,-70.48 381.78,-69.45 379,-68.53 327.48,-51.5 266.46,-33.91 232.7,-24.41"/>
<polygon fill="red" stroke="red" stroke-width="0.19" points="233.32,-20.95 222.75,-21.62 231.43,-27.69 233.32,-20.95"/>
</g>
<!-- 1 -->
<g id="node22" class="node">
<title>1</title>
<ellipse fill="lightblue" stroke="black" cx="517" cy="-16.26" rx="16.03" ry="16.03"/>
<text text-anchor="middle" x="517" y="-14.06" font-family="Times,serif" font-size="9.00">1</text>
</g>
<!-- &#45;1&#45;&gt;1 -->
<g id="edge21" class="edge">
<title>&#45;1&#45;&gt;1</title>
<path fill="none" stroke="red" stroke-width="0.62" d="M414.31,-69.73C433.66,-59.84 469.86,-41.35 493.69,-29.17"/>
<polygon fill="red" stroke="red" stroke-width="0.62" points="495.45,-32.2 502.77,-24.54 492.27,-25.97 495.45,-32.2"/>
</g>
<!-- &#45;2 -->
<g id="node2" class="node">
<title>&#45;2</title>
<polygon fill="lightgray" stroke="black" points="834,-86.53 808,-86.53 808,-68.53 834,-68.53 834,-86.53"/>
<text text-anchor="middle" x="821" y="-75.33" font-family="Times,serif" font-size="9.00">&#45;2</text>
</g>
<!-- &#45;3 -->
<g id="node3" class="node">
<title>&#45;3</title>
<polygon fill="lightgray" stroke="black" points="702,-86.53 676,-86.53 676,-68.53 702,-68.53 702,-86.53"/>
<text text-anchor="middle" x="689" y="-75.33" font-family="Times,serif" font-size="9.00">&#45;3</text>
</g>
<!-- &#45;3&#45;&gt;1 -->
<g id="edge8" class="edge">
<title>&#45;3&#45;&gt;1</title>
<path fill="none" stroke="green" stroke-width="0.67" stroke-dasharray="1,5" d="M675.99,-71.75C673.04,-70.68 669.91,-69.55 667,-68.53 623.12,-53.05 571.78,-35.66 541.96,-25.63"/>
<polygon fill="green" stroke="green" stroke-width="0.67" points="542.96,-22.27 532.37,-22.4 540.73,-28.91 542.96,-22.27"/>
</g>
<!-- &#45;4 -->
<g id="node4" class="node">
<title>&#45;4</title>
<polygon fill="lightgray" stroke="black" points="220,-86.53 194,-86.53 194,-68.53 220,-68.53 220,-86.53"/>
<text text-anchor="middle" x="207" y="-75.33" font-family="Times,serif" font-size="9.00">&#45;4</text>
</g>
<!-- &#45;4&#45;&gt;0 -->
<g id="edge16" class="edge">
<title>&#45;4&#45;&gt;0</title>
<path fill="none" stroke="green" stroke-width="0.38" d="M207,-68.29C207,-61.7 207,-52.1 207,-43"/>
<polygon fill="green" stroke="green" stroke-width="0.38" points="210.5,-42.76 207,-32.76 203.5,-42.76 210.5,-42.76"/>
</g>
<!-- &#45;5 -->
<g id="node5" class="node">
<title>&#45;5</title>
<polygon fill="lightgray" stroke="black" points="746,-86.53 720,-86.53 720,-68.53 746,-68.53 746,-86.53"/>
<text text-anchor="middle" x="733" y="-75.33" font-family="Times,serif" font-size="9.00">&#45;5</text>
</g>
<!-- &#45;5&#45;&gt;1 -->
<g id="edge1" class="edge">
<title>&#45;5&#45;&gt;1</title>
<path fill="none" stroke="red" stroke-width="0.11" stroke-dasharray="1,5" d="M719.57,-71.42C716.75,-70.42 713.79,-69.4 711,-68.53 651.39,-49.86 580.12,-32.19 542.76,-23.28"/>
<polygon fill="red" stroke="red" stroke-width="0.11" points="543.27,-19.81 532.73,-20.91 541.65,-26.62 543.27,-19.81"/>
</g>
<!-- &#45;6 -->
<g id="node6" class="node">
<title>&#45;6</title>
<polygon fill="lightgray" stroke="black" points="790,-86.53 764,-86.53 764,-68.53 790,-68.53 790,-86.53"/>
<text text-anchor="middle" x="777" y="-75.33" font-family="Times,serif" font-size="9.00">&#45;6</text>
</g>
<!-- &#45;6&#45;&gt;1 -->
<g id="edge13" class="edge">
<title>&#45;6&#45;&gt;1</title>
<path fill="none" stroke="red" stroke-width="0.19" d="M763.6,-71.32C760.78,-70.32 757.81,-69.34 755,-68.53 679.02,-46.64 586.99,-29.37 542.94,-21.65"/>
<polygon fill="red" stroke="red" stroke-width="0.19" points="543.51,-18.2 533.06,-19.94 542.32,-25.09 543.51,-18.2"/>
</g>
<!-- &#45;7 -->
<g id="node7" class="node">
<title>&#45;7</title>
<polygon fill="lightgray" stroke="black" points="458,-86.53 432,-86.53 432,-68.53 458,-68.53 458,-86.53"/>
<text text-anchor="middle" x="445" y="-75.33" font-family="Times,serif" font-size="9.00">&#45;7</text>
</g>
<!-- &#45;7&#45;&gt;1 -->
<g id="edge10" class="edge">
<title>&#45;7&#45;&gt;1</title>
<path fill="none" stroke="red" stroke-width="0.71" d="M455.01,-68.29C465.76,-59.44 483.14,-45.14 496.76,-33.92"/>
<polygon fill="red" stroke="red" stroke-width="0.71" points="499.17,-36.47 504.66,-27.42 494.72,-31.07 499.17,-36.47"/>
</g>
<!-- &#45;8 -->
<g id="node8" class="node">
<title>&#45;8</title>
<polygon fill="lightgray" stroke="black" points="878,-86.53 852,-86.53 852,-68.53 878,-68.53 878,-86.53"/>
<text text-anchor="middle" x="865" y="-75.33" font-family="Times,serif" font-size="9.00">&#45;8</text>
</g>
<!-- &#45;9 -->
<g id="node9" class="node">
<title>&#45;9</title>
<polygon fill="lightgray" stroke="black" points="26,-86.53 0,-86.53 0,-68.53 26,-68.53 26,-86.53"/>
<text text-anchor="middle" x="13" y="-75.33" font-family="Times,serif" font-size="9.00">&#45;9</text>
</g>
<!-- &#45;9&#45;&gt;0 -->
<g id="edge11" class="edge">
<title>&#45;9&#45;&gt;0</title>
<path fill="none" stroke="green" stroke-width="0.21" d="M26.45,-71.49C29.27,-70.48 32.22,-69.45 35,-68.53 86.52,-51.5 147.54,-33.91 181.3,-24.41"/>
<polygon fill="green" stroke="green" stroke-width="0.21" points="182.57,-27.69 191.25,-21.62 180.68,-20.95 182.57,-27.69"/>
</g>
<!-- &#45;10 -->
<g id="node10" class="node">
<title>&#45;10</title>
<polygon fill="lightgray" stroke="black" points="508,-86.53 476,-86.53 476,-68.53 508,-68.53 508,-86.53"/>
<text text-anchor="middle" x="492" y="-75.33" font-family="Times,serif" font-size="9.00">&#45;10</text>
</g>
<!-- &#45;10&#45;&gt;1 -->
<g id="edge19" class="edge">
<title>&#45;10&#45;&gt;1</title>
<path fill="none" stroke="red" stroke-width="0.34" d="M495.48,-68.29C498.45,-61.23 502.9,-50.7 506.97,-41.03"/>
<polygon fill="red" stroke="red" stroke-width="0.34" points="510.2,-42.39 510.86,-31.82 503.75,-39.67 510.2,-42.39"/>
</g>
<!-- &#45;11 -->
<g id="node11" class="node">
<title>&#45;11</title>
<polygon fill="lightgray" stroke="black" points="76,-86.53 44,-86.53 44,-68.53 76,-68.53 76,-86.53"/>
<text text-anchor="middle" x="60" y="-75.33" font-family="Times,serif" font-size="9.00">&#45;11</text>
</g>
<!-- &#45;11&#45;&gt;0 -->
<g id="edge4" class="edge">
<title>&#45;11&#45;&gt;0</title>
<path fill="none" stroke="green" stroke-width="0.23" stroke-dasharray="1,5" d="M76.01,-70.07C101.68,-59.72 152.23,-39.34 182.48,-27.15"/>
<polygon fill="green" stroke="green" stroke-width="0.23" points="183.92,-30.34 191.89,-23.35 181.31,-23.85 183.92,-30.34"/>
</g>
<!-- &#45;12 -->
<g id="node12" class="node">
<title>&#45;12</title>
<polygon fill="lightgray" stroke="black" points="558,-86.53 526,-86.53 526,-68.53 558,-68.53 558,-86.53"/>
<text text-anchor="middle" x="542" y="-75.33" font-family="Times,serif" font-size="9.00">&#45;12</text>
</g>
<!-- &#45;12&#45;&gt;1 -->
<g id="edge9" class="edge">
<title>&#45;12&#45;&gt;1</title>
<path fill="none" stroke="green" stroke-width="0.49" stroke-dasharray="1,5" d="M538.52,-68.29C535.55,-61.23 531.1,-50.7 527.03,-41.03"/>
<polygon fill="green" stroke="green" stroke-width="0.49" points="530.25,-39.67 523.14,-31.82 523.8,-42.39 530.25,-39.67"/>
</g>
<!-- &#45;13 -->
<g id="node13" class="node">
<title>&#45;13</title>
<polygon fill="lightgray" stroke="black" points="126,-86.53 94,-86.53 94,-68.53 126,-68.53 126,-86.53"/>
<text text-anchor="middle" x="110" y="-75.33" font-family="Times,serif" font-size="9.00">&#45;13</text>
</g>
<!-- &#45;13&#45;&gt;0 -->
<g id="edge7" class="edge">
<title>&#45;13&#45;&gt;0</title>
<path fill="none" stroke="red" stroke-width="0.49" d="M123.49,-68.29C139.32,-58.61 165.82,-42.42 184.73,-30.87"/>
<polygon fill="red" stroke="red" stroke-width="0.49" points="186.61,-33.83 193.31,-25.62 182.96,-27.85 186.61,-33.83"/>
</g>
<!-- &#45;14 -->
<g id="node14" class="node">
<title>&#45;14</title>
<polygon fill="lightgray" stroke="black" points="270,-86.53 238,-86.53 238,-68.53 270,-68.53 270,-86.53"/>
<text text-anchor="middle" x="254" y="-75.33" font-family="Times,serif" font-size="9.00">&#45;14</text>
</g>
<!-- &#45;14&#45;&gt;0 -->
<g id="edge6" class="edge">
<title>&#45;14&#45;&gt;0</title>
<path fill="none" stroke="green" stroke-width="0.12" d="M247.46,-68.29C241.18,-60.36 231.42,-48.05 223.06,-37.51"/>
<polygon fill="green" stroke="green" stroke-width="0.12" points="225.7,-35.21 216.75,-29.55 220.22,-39.56 225.7,-35.21"/>
</g>
<!-- &#45;14&#45;&gt;1 -->
<g id="edge18" class="edge">
<title>&#45;14&#45;&gt;1</title>
<path fill="none" stroke="green" stroke-width="0.59" d="M270.07,-71.13C273.02,-70.21 276.09,-69.3 279,-68.53 355.39,-48.13 447.23,-30.17 491.15,-21.97"/>
<polygon fill="green" stroke="green" stroke-width="0.59" points="491.8,-25.41 501,-20.15 490.53,-18.53 491.8,-25.41"/>
</g>
<!-- &#45;15 -->
<g id="node15" class="node">
<title>&#45;15</title>
<polygon fill="lightgray" stroke="black" points="928,-86.53 896,-86.53 896,-68.53 928,-68.53 928,-86.53"/>
<text text-anchor="middle" x="912" y="-75.33" font-family="Times,serif" font-size="9.00">&#45;15</text>
</g>
<!-- &#45;16 -->
<g id="node16" class="node">
<title>&#45;16</title>
<polygon fill="lightgray" stroke="black" points="608,-86.53 576,-86.53 576,-68.53 608,-68.53 608,-86.53"/>
<text text-anchor="middle" x="592" y="-75.33" font-family="Times,serif" font-size="9.00">&#45;16</text>
</g>
<!-- &#45;16&#45;&gt;1 -->
<g id="edge20" class="edge">
<title>&#45;16&#45;&gt;1</title>
<path fill="none" stroke="green" stroke-width="0.44" d="M581.57,-68.29C570.24,-59.33 551.84,-44.8 537.58,-33.52"/>
<polygon fill="green" stroke="green" stroke-width="0.44" points="539.35,-30.46 529.33,-27.01 535.01,-35.95 539.35,-30.46"/>
</g>
<!-- &#45;17 -->
<g id="node17" class="node">
<title>&#45;17</title>
<polygon fill="lightgray" stroke="black" points="176,-86.53 144,-86.53 144,-68.53 176,-68.53 176,-86.53"/>
<text text-anchor="middle" x="160" y="-75.33" font-family="Times,serif" font-size="9.00">&#45;17</text>
</g>
<!-- &#45;17&#45;&gt;0 -->
<g id="edge14" class="edge">
<title>&#45;17&#45;&gt;0</title>
<path fill="none" stroke="green" stroke-width="0.2" stroke-dasharray="1,5" d="M166.54,-68.29C172.82,-60.36 182.58,-48.05 190.94,-37.51"/>
<polygon fill="green" stroke="green" stroke-width="0.2" points="193.78,-39.56 197.25,-29.55 188.3,-35.21 193.78,-39.56"/>
</g>
<!-- &#45;18 -->
<g id="node18" class="node">
<title>&#45;18</title>
<polygon fill="lightgray" stroke="black" points="658,-86.53 626,-86.53 626,-68.53 658,-68.53 658,-86.53"/>
<text text-anchor="middle" x="642" y="-75.33" font-family="Times,serif" font-size="9.00">&#45;18</text>
</g>
<!-- &#45;18&#45;&gt;1 -->
<g id="edge22" class="edge">
<title>&#45;18&#45;&gt;1</title>
<path fill="none" stroke="green" stroke-width="0.46" d="M625.91,-68.9C604.26,-58.63 565.58,-40.29 540.62,-28.46"/>
<polygon fill="green" stroke="green" stroke-width="0.46" points="542.01,-25.25 531.47,-24.13 539.01,-31.57 542.01,-25.25"/>
</g>
<!-- &#45;19 -->
<g id="node19" class="node">
<title>&#45;19</title>
<polygon fill="lightgray" stroke="black" points="320,-86.53 288,-86.53 288,-68.53 320,-68.53 320,-86.53"/>
<text text-anchor="middle" x="304" y="-75.33" font-family="Times,serif" font-size="9.00">&#45;19</text>
</g>
<!-- &#45;19&#45;&gt;0 -->
<g id="edge5" class="edge">
<title>&#45;19&#45;&gt;0</title>
<path fill="none" stroke="red" stroke-width="0.63" stroke-dasharray="1,5" d="M290.51,-68.29C274.68,-58.61 248.18,-42.42 229.27,-30.87"/>
<polygon fill="red" stroke="red" stroke-width="0.63" points="231.04,-27.85 220.69,-25.62 227.39,-33.83 231.04,-27.85"/>
</g>
<!-- &#45;19&#45;&gt;1 -->
<g id="edge17" class="edge">
<title>&#45;19&#45;&gt;1</title>
<path fill="none" stroke="green" stroke-width="0.29" stroke-dasharray="1,5" d="M320.11,-71.26C323.06,-70.33 326.12,-69.38 329,-68.53 386.87,-51.39 455.38,-33.24 491.6,-23.82"/>
<polygon fill="green" stroke="green" stroke-width="0.29" points="492.54,-27.19 501.34,-21.29 490.78,-20.41 492.54,-27.19"/>
</g>
<!-- &#45;20 -->
<g id="node20" class="node">
<title>&#45;20</title>
<polygon fill="lightgray" stroke="black" points="370,-86.53 338,-86.53 338,-68.53 370,-68.53 370,-86.53"/>
<text text-anchor="middle" x="354" y="-75.33" font-family="Times,serif" font-size="9.00">&#45;20</text>
</g>
<!-- &#45;20&#45;&gt;0 -->
<g id="edge3" class="edge">
<title>&#45;20&#45;&gt;0</title>
<path fill="none" stroke="green" stroke-width="0.77" d="M337.99,-70.07C312.32,-59.72 261.77,-39.34 231.52,-27.15"/>
<polygon fill="green" stroke="green" stroke-width="0.77" points="232.69,-23.85 222.11,-23.35 230.08,-30.34 232.69,-23.85"/>
</g>
<!-- &#45;20&#45;&gt;1 -->
<g id="edge15" class="edge">
<title>&#45;20&#45;&gt;1</title>
<path fill="none" stroke="green" stroke-width="0.5" stroke-dasharray="1,5" d="M370.22,-70.63C398.83,-60.23 458.4,-38.57 492.2,-26.28"/>
<polygon fill="green" stroke="green" stroke-width="0.5" points="493.59,-29.5 501.79,-22.79 491.2,-22.92 493.59,-29.5"/>
</g>
<!-- 0&#45;&gt;0 -->
<g id="edge12" class="edge">
<title>0&#45;&gt;0</title>
<path fill="none" stroke="green" stroke-width="0.23" d="M220.36,-26.06C230.71,-29.72 241.26,-26.46 241.26,-16.26 241.26,-9.57 236.72,-5.87 230.67,-5.14"/>
<polygon fill="green" stroke="green" stroke-width="0.23" points="229.84,-1.72 220.36,-6.47 230.73,-8.67 229.84,-1.72"/>
</g>
</g>
</svg>
