<?xml version="1.0" encoding="UTF-8" standalone="no"?>
<!DOCTYPE svg PUBLIC "-//W3C//DTD SVG 1.1//EN"
 "http://www.w3.org/Graphics/SVG/1.1/DTD/svg11.dtd">
<!-- Generated by graphviz version 2.43.0 (0)
 -->
<!-- Title: %3 Pages: 1 -->
<svg width="536pt" height="95pt"
 viewBox="0.00 0.00 536.00 94.53" xmlns="http://www.w3.org/2000/svg" xmlns:xlink="http://www.w3.org/1999/xlink">
<g id="graph0" class="graph" transform="scale(1 1) rotate(0) translate(4 90.53)">
<title>%3</title>
<polygon fill="white" stroke="transparent" points="-4,4 -4,-90.53 532,-90.53 532,4 -4,4"/>
<!-- &#45;1 -->
<g id="node1" class="node">
<title>&#45;1</title>
<polygon fill="lightgray" stroke="black" points="26,-86.53 0,-86.53 0,-68.53 26,-68.53 26,-86.53"/>
<text text-anchor="middle" x="13" y="-75.33" font-family="Times,serif" font-size="9.00">&#45;1</text>
</g>
<!-- 1 -->
<g id="node14" class="node">
<title>1</title>
<ellipse fill="lightblue" stroke="black" cx="123" cy="-16.26" rx="16.03" ry="16.03"/>
<text text-anchor="middle" x="123" y="-14.06" font-family="Times,serif" font-size="9.00">1</text>
</g>
<!-- &#45;1&#45;&gt;1 -->
<g id="edge4" class="edge">
<title>&#45;1&#45;&gt;1</title>
<path fill="none" stroke="red" stroke-width="0.76" stroke-dasharray="1,5" d="M26.05,-69.5C44.28,-59.68 77.63,-41.71 100.06,-29.62"/>
<polygon fill="red" stroke="red" stroke-width="0.76" points="101.78,-32.67 108.93,-24.85 98.46,-26.51 101.78,-32.67"/>
</g>
<!-- &#45;2 -->
<g id="node2" class="node">
<title>&#45;2</title>
<polygon fill="lightgray" stroke="black" points="202,-86.53 176,-86.53 176,-68.53 202,-68.53 202,-86.53"/>
<text text-anchor="middle" x="189" y="-75.33" font-family="Times,serif" font-size="9.00">&#45;2</text>
</g>
<!-- 0 -->
<g id="node13" class="node">
<title>0</title>
<ellipse fill="lightblue" stroke="black" cx="256" cy="-16.26" rx="16.03" ry="16.03"/>
<text text-anchor="middle" x="256" y="-14.06" font-family="Times,serif" font-size="9.00">0</text>
</g>
<!-- &#45;2&#45;&gt;0 -->
<g id="edge5" class="edge">
<title>&#45;2&#45;&gt;0</title>
<path fill="none" stroke="red" stroke-width="0.42" d="M198.32,-68.29C208.11,-59.62 223.8,-45.74 236.35,-34.64"/>
<polygon fill="red" stroke="red" stroke-width="0.42" points="238.88,-37.08 244.05,-27.83 234.24,-31.84 238.88,-37.08"/>
</g>
<!-- &#45;2&#45;&gt;1 -->
<g id="edge1" class="edge">
<title>&#45;2&#45;&gt;1</title>
<path fill="none" stroke="green" stroke-width="0.2" stroke-dasharray="1,5" d="M179.82,-68.29C170.18,-59.62 154.71,-45.74 142.35,-34.64"/>
<polygon fill="green" stroke="green" stroke-width="0.2" points="144.55,-31.91 134.77,-27.83 139.87,-37.12 144.55,-31.91"/>
</g>
<!-- &#45;3 -->
<g id="node3" class="node">
<title>&#45;3</title>
<polygon fill="lightgray" stroke="black" points="70,-86.53 44,-86.53 44,-68.53 70,-68.53 70,-86.53"/>
<text text-anchor="middle" x="57" y="-75.33" font-family="Times,serif" font-size="9.00">&#45;3</text>
</g>
<!-- &#45;3&#45;&gt;1 -->
<g id="edge2" class="edge">
<title>&#45;3&#45;&gt;1</title>
<path fill="none" stroke="green" stroke-width="0.25" stroke-dasharray="1,5" d="M66.18,-68.29C75.82,-59.62 91.29,-45.74 103.65,-34.64"/>
<polygon fill="green" stroke="green" stroke-width="0.25" points="106.13,-37.12 111.23,-27.83 101.45,-31.91 106.13,-37.12"/>
</g>
<!-- &#45;4 -->
<g id="node4" class="node">
<title>&#45;4</title>
<polygon fill="lightgray" stroke="black" points="390,-86.53 364,-86.53 364,-68.53 390,-68.53 390,-86.53"/>
<text text-anchor="middle" x="377" y="-75.33" font-family="Times,serif" font-size="9.00">&#45;4</text>
</g>
<!-- &#45;5 -->
<g id="node5" class="node">
<title>&#45;5</title>
<polygon fill="lightgray" stroke="black" points="434,-86.53 408,-86.53 408,-68.53 434,-68.53 434,-86.53"/>
<text text-anchor="middle" x="421" y="-75.33" font-family="Times,serif" font-size="9.00">&#45;5</text>
</g>
<!-- &#45;6 -->
<g id="node6" class="node">
<title>&#45;6</title>
<polygon fill="lightgray" stroke="black" points="246,-86.53 220,-86.53 220,-68.53 246,-68.53 246,-86.53"/>
<text text-anchor="middle" x="233" y="-75.33" font-family="Times,serif" font-size="9.00">&#45;6</text>
</g>
<!-- &#45;6&#45;&gt;0 -->
<g id="edge9" class="edge">
<title>&#45;6&#45;&gt;0</title>
<path fill="none" stroke="red" stroke-width="1.77" d="M236.2,-68.29C238.91,-61.3 242.94,-50.91 246.66,-41.33"/>
<polygon fill="red" stroke="red" stroke-width="1.77" points="250,-42.41 250.35,-31.82 243.47,-39.87 250,-42.41"/>
</g>
<!-- &#45;6&#45;&gt;1 -->
<g id="edge8" class="edge">
<title>&#45;6&#45;&gt;1</title>
<path fill="none" stroke="red" stroke-width="0.19" d="M219.95,-69.5C201.72,-59.68 168.37,-41.71 145.94,-29.62"/>
<polygon fill="red" stroke="red" stroke-width="0.19" points="147.54,-26.51 137.07,-24.85 144.22,-32.67 147.54,-26.51"/>
</g>
<!-- &#45;7 -->
<g id="node7" class="node">
<title>&#45;7</title>
<polygon fill="lightgray" stroke="black" points="114,-86.53 88,-86.53 88,-68.53 114,-68.53 114,-86.53"/>
<text text-anchor="middle" x="101" y="-75.33" font-family="Times,serif" font-size="9.00">&#45;7</text>
</g>
<!-- &#45;7&#45;&gt;1 -->
<g id="edge11" class="edge">
<title>&#45;7&#45;&gt;1</title>
<path fill="none" stroke="red" stroke-width="0.32" d="M104.06,-68.29C106.65,-61.3 110.51,-50.91 114.06,-41.33"/>
<polygon fill="red" stroke="red" stroke-width="0.32" points="117.4,-42.41 117.6,-31.82 110.84,-39.97 117.4,-42.41"/>
</g>
<!-- &#45;8 -->
<g id="node8" class="node">
<title>&#45;8</title>
<polygon fill="lightgray" stroke="black" points="158,-86.53 132,-86.53 132,-68.53 158,-68.53 158,-86.53"/>
<text text-anchor="middle" x="145" y="-75.33" font-family="Times,serif" font-size="9.00">&#45;8</text>
</g>
<!-- &#45;8&#45;&gt;1 -->
<g id="edge6" class="edge">
<title>&#45;8&#45;&gt;1</title>
<path fill="none" stroke="red" stroke-width="0.25" stroke-dasharray="1,5" d="M141.94,-68.29C139.35,-61.3 135.49,-50.91 131.94,-41.33"/>
<polygon fill="red" stroke="red" stroke-width="0.25" points="135.16,-39.97 128.4,-31.82 128.6,-42.41 135.16,-39.97"/>
</g>
<!-- &#45;9 -->
<g id="node9" class="node">
<title>&#45;9</title>
<polygon fill="lightgray" stroke="black" points="478,-86.53 452,-86.53 452,-68.53 478,-68.53 478,-86.53"/>
<text text-anchor="middle" x="465" y="-75.33" font-family="Times,serif" font-size="9.00">&#45;9</text>
</g>
<!-- &#45;10 -->
<g id="node10" class="node">
<title>&#45;10</title>
<polygon fill="lightgray" stroke="black" points="296,-86.53 264,-86.53 264,-68.53 296,-68.53 296,-86.53"/>
<text text-anchor="middle" x="280" y="-75.33" font-family="Times,serif" font-size="9.00">&#45;10</text>
</g>
<!-- &#45;10&#45;&gt;0 -->
<g id="edge3" class="edge">
<title>&#45;10&#45;&gt;0</title>
<path fill="none" stroke="red" stroke-width="0.48" stroke-dasharray="1,5" d="M276.66,-68.29C273.83,-61.3 269.63,-50.91 265.75,-41.33"/>
<polygon fill="red" stroke="red" stroke-width="0.48" points="268.89,-39.77 261.89,-31.82 262.4,-42.4 268.89,-39.77"/>
</g>
<!-- &#45;11 -->
<g id="node11" class="node">
<title>&#45;11</title>
<polygon fill="lightgray" stroke="black" points="346,-86.53 314,-86.53 314,-68.53 346,-68.53 346,-86.53"/>
<text text-anchor="middle" x="330" y="-75.33" font-family="Times,serif" font-size="9.00">&#45;11</text>
</g>
<!-- &#45;11&#45;&gt;0 -->
<g id="edge10" class="edge">
<title>&#45;11&#45;&gt;0</title>
<path fill="none" stroke="red" stroke-width="0.12" d="M319.71,-68.29C308.59,-59.38 290.59,-44.97 276.55,-33.72"/>
<polygon fill="red" stroke="red" stroke-width="0.12" points="278.42,-30.73 268.42,-27.21 274.04,-36.2 278.42,-30.73"/>
</g>
<!-- &#45;12 -->
<g id="node12" class="node">
<title>&#45;12</title>
<polygon fill="lightgray" stroke="black" points="528,-86.53 496,-86.53 496,-68.53 528,-68.53 528,-86.53"/>
<text text-anchor="middle" x="512" y="-75.33" font-family="Times,serif" font-size="9.00">&#45;12</text>
</g>
<!-- 0&#45;&gt;0 -->
<g id="edge7" class="edge">
<title>0&#45;&gt;0</title>
<path fill="none" stroke="green" stroke-width="0.75" stroke-dasharray="1,5" d="M269.36,-26.06C279.71,-29.72 290.26,-26.46 290.26,-16.26 290.26,-9.57 285.72,-5.87 279.67,-5.14"/>
<polygon fill="green" stroke="green" stroke-width="0.75" points="278.84,-1.72 269.36,-6.47 279.73,-8.67 278.84,-1.72"/>
</g>
</g>
</svg>
