<?xml version="1.0" encoding="UTF-8" standalone="no"?>
<!DOCTYPE svg PUBLIC "-//W3C//DTD SVG 1.1//EN"
 "http://www.w3.org/Graphics/SVG/1.1/DTD/svg11.dtd">
<!-- Generated by graphviz version 2.43.0 (0)
 -->
<!-- Title: %3 Pages: 1 -->
<svg width="536pt" height="274pt"
 viewBox="0.00 0.00 536.00 274.01" xmlns="http://www.w3.org/2000/svg" xmlns:xlink="http://www.w3.org/1999/xlink">
<g id="graph0" class="graph" transform="scale(1 1) rotate(0) translate(4 270.01)">
<title>%3</title>
<polygon fill="white" stroke="transparent" points="-4,4 -4,-270.01 532,-270.01 532,4 -4,4"/>
<!-- &#45;1 -->
<g id="node1" class="node">
<title>&#45;1</title>
<polygon fill="lightgray" stroke="black" points="26,-266.01 0,-266.01 0,-248.01 26,-248.01 26,-266.01"/>
<text text-anchor="middle" x="13" y="-254.81" font-family="Times,serif" font-size="9.00">&#45;1</text>
</g>
<!-- &#45;2 -->
<g id="node2" class="node">
<title>&#45;2</title>
<polygon fill="lightgray" stroke="black" points="120,-266.01 94,-266.01 94,-248.01 120,-248.01 120,-266.01"/>
<text text-anchor="middle" x="107" y="-254.81" font-family="Times,serif" font-size="9.00">&#45;2</text>
</g>
<!-- 0 -->
<g id="node13" class="node">
<title>0</title>
<ellipse fill="lightblue" stroke="black" cx="107" cy="-195.74" rx="16.03" ry="16.03"/>
<text text-anchor="middle" x="107" y="-193.54" font-family="Times,serif" font-size="9.00">0</text>
</g>
<!-- &#45;2&#45;&gt;0 -->
<g id="edge1" class="edge">
<title>&#45;2&#45;&gt;0</title>
<path fill="none" stroke="green" stroke-width="0.36" stroke-dasharray="1,5" d="M107,-247.77C107,-241.18 107,-231.58 107,-222.48"/>
<polygon fill="green" stroke="green" stroke-width="0.36" points="110.5,-222.24 107,-212.24 103.5,-222.24 110.5,-222.24"/>
</g>
<!-- &#45;3 -->
<g id="node3" class="node">
<title>&#45;3</title>
<polygon fill="lightgray" stroke="black" points="164,-266.01 138,-266.01 138,-248.01 164,-248.01 164,-266.01"/>
<text text-anchor="middle" x="151" y="-254.81" font-family="Times,serif" font-size="9.00">&#45;3</text>
</g>
<!-- &#45;3&#45;&gt;0 -->
<g id="edge5" class="edge">
<title>&#45;3&#45;&gt;0</title>
<path fill="none" stroke="green" stroke-width="0.48" d="M144.88,-247.77C139.13,-240.01 130.27,-228.08 122.56,-217.7"/>
<polygon fill="green" stroke="green" stroke-width="0.48" points="125.22,-215.42 116.45,-209.48 119.6,-219.59 125.22,-215.42"/>
</g>
<!-- 1 -->
<g id="node14" class="node">
<title>1</title>
<ellipse fill="lightblue" stroke="black" cx="191" cy="-195.74" rx="16.03" ry="16.03"/>
<text text-anchor="middle" x="191" y="-193.54" font-family="Times,serif" font-size="9.00">1</text>
</g>
<!-- &#45;3&#45;&gt;1 -->
<g id="edge4" class="edge">
<title>&#45;3&#45;&gt;1</title>
<path fill="none" stroke="green" stroke-width="0.43" stroke-dasharray="1,5" d="M156.56,-247.77C161.68,-240.19 169.49,-228.62 176.38,-218.41"/>
<polygon fill="green" stroke="green" stroke-width="0.43" points="179.41,-220.17 182.1,-209.92 173.61,-216.25 179.41,-220.17"/>
</g>
<!-- &#45;4 -->
<g id="node4" class="node">
<title>&#45;4</title>
<polygon fill="lightgray" stroke="black" points="208,-266.01 182,-266.01 182,-248.01 208,-248.01 208,-266.01"/>
<text text-anchor="middle" x="195" y="-254.81" font-family="Times,serif" font-size="9.00">&#45;4</text>
</g>
<!-- &#45;4&#45;&gt;1 -->
<g id="edge8" class="edge">
<title>&#45;4&#45;&gt;1</title>
<path fill="none" stroke="red" stroke-width="0.22" d="M194.44,-247.77C194,-241.18 193.35,-231.58 192.74,-222.48"/>
<polygon fill="red" stroke="red" stroke-width="0.22" points="196.21,-221.98 192.05,-212.24 189.23,-222.45 196.21,-221.98"/>
</g>
<!-- &#45;5 -->
<g id="node5" class="node">
<title>&#45;5</title>
<polygon fill="lightgray" stroke="black" points="252,-266.01 226,-266.01 226,-248.01 252,-248.01 252,-266.01"/>
<text text-anchor="middle" x="239" y="-254.81" font-family="Times,serif" font-size="9.00">&#45;5</text>
</g>
<!-- &#45;5&#45;&gt;1 -->
<g id="edge3" class="edge">
<title>&#45;5&#45;&gt;1</title>
<path fill="none" stroke="green" stroke-width="0.34" d="M232.33,-247.77C225.9,-239.84 215.93,-227.53 207.4,-216.99"/>
<polygon fill="green" stroke="green" stroke-width="0.34" points="209.97,-214.6 200.95,-209.03 204.53,-219.01 209.97,-214.6"/>
</g>
<!-- 5076 -->
<g id="node16" class="node">
<title>5076</title>
<ellipse fill="white" stroke="black" cx="212" cy="-28.99" rx="28.98" ry="28.98"/>
<text text-anchor="middle" x="212" y="-26.79" font-family="Times,serif" font-size="9.00">5076</text>
</g>
<!-- &#45;5&#45;&gt;5076 -->
<g id="edge10" class="edge">
<title>&#45;5&#45;&gt;5076</title>
<path fill="none" stroke="red" stroke-width="0.12" d="M238.07,-247.91C235.36,-224.23 227.15,-153.03 220,-93.98 218.99,-85.61 217.87,-76.62 216.81,-68.1"/>
<polygon fill="red" stroke="red" stroke-width="0.12" points="220.27,-67.51 215.55,-58.02 213.32,-68.38 220.27,-67.51"/>
</g>
<!-- &#45;6 -->
<g id="node6" class="node">
<title>&#45;6</title>
<polygon fill="lightgray" stroke="black" points="296,-266.01 270,-266.01 270,-248.01 296,-248.01 296,-266.01"/>
<text text-anchor="middle" x="283" y="-254.81" font-family="Times,serif" font-size="9.00">&#45;6</text>
</g>
<!-- &#45;7 -->
<g id="node7" class="node">
<title>&#45;7</title>
<polygon fill="lightgray" stroke="black" points="340,-266.01 314,-266.01 314,-248.01 340,-248.01 340,-266.01"/>
<text text-anchor="middle" x="327" y="-254.81" font-family="Times,serif" font-size="9.00">&#45;7</text>
</g>
<!-- &#45;8 -->
<g id="node8" class="node">
<title>&#45;8</title>
<polygon fill="lightgray" stroke="black" points="384,-266.01 358,-266.01 358,-248.01 384,-248.01 384,-266.01"/>
<text text-anchor="middle" x="371" y="-254.81" font-family="Times,serif" font-size="9.00">&#45;8</text>
</g>
<!-- &#45;9 -->
<g id="node9" class="node">
<title>&#45;9</title>
<polygon fill="lightgray" stroke="black" points="428,-266.01 402,-266.01 402,-248.01 428,-248.01 428,-266.01"/>
<text text-anchor="middle" x="415" y="-254.81" font-family="Times,serif" font-size="9.00">&#45;9</text>
</g>
<!-- &#45;10 -->
<g id="node10" class="node">
<title>&#45;10</title>
<polygon fill="lightgray" stroke="black" points="478,-266.01 446,-266.01 446,-248.01 478,-248.01 478,-266.01"/>
<text text-anchor="middle" x="462" y="-254.81" font-family="Times,serif" font-size="9.00">&#45;10</text>
</g>
<!-- &#45;11 -->
<g id="node11" class="node">
<title>&#45;11</title>
<polygon fill="lightgray" stroke="black" points="528,-266.01 496,-266.01 496,-248.01 528,-248.01 528,-266.01"/>
<text text-anchor="middle" x="512" y="-254.81" font-family="Times,serif" font-size="9.00">&#45;11</text>
</g>
<!-- &#45;12 -->
<g id="node12" class="node">
<title>&#45;12</title>
<polygon fill="lightgray" stroke="black" points="76,-266.01 44,-266.01 44,-248.01 76,-248.01 76,-266.01"/>
<text text-anchor="middle" x="60" y="-254.81" font-family="Times,serif" font-size="9.00">&#45;12</text>
</g>
<!-- &#45;12&#45;&gt;0 -->
<g id="edge2" class="edge">
<title>&#45;12&#45;&gt;0</title>
<path fill="none" stroke="green" stroke-width="0.4" stroke-dasharray="1,5" d="M66.54,-247.77C72.82,-239.84 82.58,-227.53 90.94,-216.99"/>
<polygon fill="green" stroke="green" stroke-width="0.4" points="93.78,-219.04 97.25,-209.03 88.3,-214.69 93.78,-219.04"/>
</g>
<!-- 130 -->
<g id="node15" class="node">
<title>130</title>
<ellipse fill="white" stroke="black" cx="186" cy="-118.73" rx="25" ry="25"/>
<text text-anchor="middle" x="186" y="-116.53" font-family="Times,serif" font-size="9.00">130</text>
</g>
<!-- &#45;12&#45;&gt;130 -->
<g id="edge6" class="edge">
<title>&#45;12&#45;&gt;130</title>
<path fill="none" stroke="green" stroke-width="0.49" d="M60.37,-247.97C61.44,-232.97 65.63,-200.37 82,-179.48 100.21,-156.25 130.14,-140.42 153.22,-130.93"/>
<polygon fill="green" stroke="green" stroke-width="0.49" points="154.61,-134.14 162.65,-127.24 152.06,-127.63 154.61,-134.14"/>
</g>
<!-- 1&#45;&gt;130 -->
<g id="edge7" class="edge">
<title>1&#45;&gt;130</title>
<path fill="none" stroke="red" stroke-width="0.59" stroke-dasharray="1,5" d="M189.96,-179.2C189.47,-171.8 188.86,-162.63 188.27,-153.73"/>
<polygon fill="red" stroke="red" stroke-width="0.59" points="191.74,-153.28 187.59,-143.53 184.76,-153.74 191.74,-153.28"/>
</g>
<!-- 130&#45;&gt;5076 -->
<g id="edge9" class="edge">
<title>130&#45;&gt;5076</title>
<path fill="none" stroke="green" stroke-width="0.54" d="M192.83,-94.68C195.38,-86.09 198.33,-76.11 201.15,-66.6"/>
<polygon fill="green" stroke="green" stroke-width="0.54" points="204.53,-67.52 204.02,-56.94 197.82,-65.53 204.53,-67.52"/>
</g>
</g>
</svg>
