<?xml version="1.0" encoding="UTF-8" standalone="no"?>
<!DOCTYPE svg PUBLIC "-//W3C//DTD SVG 1.1//EN"
 "http://www.w3.org/Graphics/SVG/1.1/DTD/svg11.dtd">
<!-- Generated by graphviz version 2.43.0 (0)
 -->
<!-- Title: %3 Pages: 1 -->
<svg width="492pt" height="257pt"
 viewBox="0.00 0.00 492.00 257.04" xmlns="http://www.w3.org/2000/svg" xmlns:xlink="http://www.w3.org/1999/xlink">
<g id="graph0" class="graph" transform="scale(1 1) rotate(0) translate(4 253.04)">
<title>%3</title>
<polygon fill="white" stroke="transparent" points="-4,4 -4,-253.04 488,-253.04 488,4 -4,4"/>
<!-- &#45;1 -->
<g id="node1" class="node">
<title>&#45;1</title>
<polygon fill="lightgray" stroke="black" points="26,-249.04 0,-249.04 0,-231.04 26,-231.04 26,-249.04"/>
<text text-anchor="middle" x="13" y="-237.84" font-family="Times,serif" font-size="9.00">&#45;1</text>
</g>
<!-- &#45;2 -->
<g id="node2" class="node">
<title>&#45;2</title>
<polygon fill="lightgray" stroke="black" points="164,-249.04 138,-249.04 138,-231.04 164,-231.04 164,-249.04"/>
<text text-anchor="middle" x="151" y="-237.84" font-family="Times,serif" font-size="9.00">&#45;2</text>
</g>
<!-- 1 -->
<g id="node14" class="node">
<title>1</title>
<ellipse fill="lightblue" stroke="black" cx="139" cy="-178.77" rx="16.03" ry="16.03"/>
<text text-anchor="middle" x="139" y="-176.57" font-family="Times,serif" font-size="9.00">1</text>
</g>
<!-- &#45;2&#45;&gt;1 -->
<g id="edge6" class="edge">
<title>&#45;2&#45;&gt;1</title>
<path fill="none" stroke="red" stroke-width="0.23" d="M149.33,-230.8C147.97,-224.05 145.96,-214.13 144.07,-204.83"/>
<polygon fill="red" stroke="red" stroke-width="0.23" points="147.46,-203.9 142.04,-194.79 140.6,-205.29 147.46,-203.9"/>
</g>
<!-- &#45;3 -->
<g id="node3" class="node">
<title>&#45;3</title>
<polygon fill="lightgray" stroke="black" points="70,-249.04 44,-249.04 44,-231.04 70,-231.04 70,-249.04"/>
<text text-anchor="middle" x="57" y="-237.84" font-family="Times,serif" font-size="9.00">&#45;3</text>
</g>
<!-- 0 -->
<g id="node13" class="node">
<title>0</title>
<ellipse fill="lightblue" stroke="black" cx="169" cy="-16.26" rx="16.03" ry="16.03"/>
<text text-anchor="middle" x="169" y="-14.06" font-family="Times,serif" font-size="9.00">0</text>
</g>
<!-- &#45;3&#45;&gt;0 -->
<g id="edge2" class="edge">
<title>&#45;3&#45;&gt;0</title>
<path fill="none" stroke="red" stroke-width="0.22" stroke-dasharray="1,5" d="M57.25,-230.8C58.39,-204.76 64.84,-122.68 101,-68.53 112.29,-51.62 131.06,-38.09 146.02,-29.19"/>
<polygon fill="red" stroke="red" stroke-width="0.22" points="147.77,-32.22 154.75,-24.25 144.32,-26.13 147.77,-32.22"/>
</g>
<!-- &#45;3&#45;&gt;1 -->
<g id="edge5" class="edge">
<title>&#45;3&#45;&gt;1</title>
<path fill="none" stroke="red" stroke-width="0.21" stroke-dasharray="1,5" d="M68.4,-230.8C81.17,-221.56 102.15,-206.4 117.93,-195"/>
<polygon fill="red" stroke="red" stroke-width="0.21" points="120.02,-197.81 126.07,-189.11 115.92,-192.14 120.02,-197.81"/>
</g>
<!-- 3071 -->
<g id="node16" class="node">
<title>3071</title>
<ellipse fill="white" stroke="black" cx="139" cy="-97.52" rx="28.98" ry="28.98"/>
<text text-anchor="middle" x="139" y="-95.32" font-family="Times,serif" font-size="9.00">3071</text>
</g>
<!-- &#45;3&#45;&gt;3071 -->
<g id="edge9" class="edge">
<title>&#45;3&#45;&gt;3071</title>
<path fill="none" stroke="red" stroke-width="0.53" d="M61.88,-230.67C72.98,-211.66 100.58,-164.35 119.57,-131.82"/>
<polygon fill="red" stroke="red" stroke-width="0.53" points="122.65,-133.48 124.67,-123.08 116.61,-129.95 122.65,-133.48"/>
</g>
<!-- &#45;4 -->
<g id="node4" class="node">
<title>&#45;4</title>
<polygon fill="lightgray" stroke="black" points="212,-106.52 186,-106.52 186,-88.52 212,-88.52 212,-106.52"/>
<text text-anchor="middle" x="199" y="-95.32" font-family="Times,serif" font-size="9.00">&#45;4</text>
</g>
<!-- &#45;4&#45;&gt;0 -->
<g id="edge1" class="edge">
<title>&#45;4&#45;&gt;0</title>
<path fill="none" stroke="green" stroke-width="0.28" d="M195.9,-88.34C191.75,-77.37 184.21,-57.44 178.16,-41.47"/>
<polygon fill="green" stroke="green" stroke-width="0.28" points="181.27,-39.79 174.46,-31.68 174.72,-42.27 181.27,-39.79"/>
</g>
<!-- &#45;5 -->
<g id="node5" class="node">
<title>&#45;5</title>
<polygon fill="lightgray" stroke="black" points="258,-249.04 232,-249.04 232,-231.04 258,-231.04 258,-249.04"/>
<text text-anchor="middle" x="245" y="-237.84" font-family="Times,serif" font-size="9.00">&#45;5</text>
</g>
<!-- &#45;6 -->
<g id="node6" class="node">
<title>&#45;6</title>
<polygon fill="lightgray" stroke="black" points="302,-249.04 276,-249.04 276,-231.04 302,-231.04 302,-249.04"/>
<text text-anchor="middle" x="289" y="-237.84" font-family="Times,serif" font-size="9.00">&#45;6</text>
</g>
<!-- &#45;7 -->
<g id="node7" class="node">
<title>&#45;7</title>
<polygon fill="lightgray" stroke="black" points="346,-249.04 320,-249.04 320,-231.04 346,-231.04 346,-249.04"/>
<text text-anchor="middle" x="333" y="-237.84" font-family="Times,serif" font-size="9.00">&#45;7</text>
</g>
<!-- &#45;8 -->
<g id="node8" class="node">
<title>&#45;8</title>
<polygon fill="lightgray" stroke="black" points="390,-249.04 364,-249.04 364,-231.04 390,-231.04 390,-249.04"/>
<text text-anchor="middle" x="377" y="-237.84" font-family="Times,serif" font-size="9.00">&#45;8</text>
</g>
<!-- &#45;9 -->
<g id="node9" class="node">
<title>&#45;9</title>
<polygon fill="lightgray" stroke="black" points="434,-249.04 408,-249.04 408,-231.04 434,-231.04 434,-249.04"/>
<text text-anchor="middle" x="421" y="-237.84" font-family="Times,serif" font-size="9.00">&#45;9</text>
</g>
<!-- &#45;10 -->
<g id="node10" class="node">
<title>&#45;10</title>
<polygon fill="lightgray" stroke="black" points="484,-249.04 452,-249.04 452,-231.04 484,-231.04 484,-249.04"/>
<text text-anchor="middle" x="468" y="-237.84" font-family="Times,serif" font-size="9.00">&#45;10</text>
</g>
<!-- &#45;11 -->
<g id="node11" class="node">
<title>&#45;11</title>
<polygon fill="lightgray" stroke="black" points="120,-249.04 88,-249.04 88,-231.04 120,-231.04 120,-249.04"/>
<text text-anchor="middle" x="104" y="-237.84" font-family="Times,serif" font-size="9.00">&#45;11</text>
</g>
<!-- &#45;11&#45;&gt;1 -->
<g id="edge4" class="edge">
<title>&#45;11&#45;&gt;1</title>
<path fill="none" stroke="red" stroke-width="0.31" stroke-dasharray="1,5" d="M108.87,-230.8C113.24,-223.39 119.86,-212.18 125.79,-202.14"/>
<polygon fill="red" stroke="red" stroke-width="0.31" points="128.88,-203.8 130.95,-193.41 122.85,-200.24 128.88,-203.8"/>
</g>
<!-- &#45;12 -->
<g id="node12" class="node">
<title>&#45;12</title>
<polygon fill="lightgray" stroke="black" points="214,-249.04 182,-249.04 182,-231.04 214,-231.04 214,-249.04"/>
<text text-anchor="middle" x="198" y="-237.84" font-family="Times,serif" font-size="9.00">&#45;12</text>
</g>
<!-- &#45;12&#45;&gt;1 -->
<g id="edge7" class="edge">
<title>&#45;12&#45;&gt;1</title>
<path fill="none" stroke="green" stroke-width="0.41" stroke-dasharray="1,5" d="M189.8,-230.8C181.54,-222.5 168.52,-209.43 157.73,-198.59"/>
<polygon fill="green" stroke="green" stroke-width="0.41" points="159.9,-195.81 150.37,-191.19 154.94,-200.75 159.9,-195.81"/>
</g>
<!-- &#45;12&#45;&gt;3071 -->
<g id="edge12" class="edge">
<title>&#45;12&#45;&gt;3071</title>
<path fill="none" stroke="red" stroke-width="0.18" d="M194.49,-230.67C186.68,-212.09 167.54,-166.48 153.92,-134.05"/>
<polygon fill="red" stroke="red" stroke-width="0.18" points="156.99,-132.32 149.89,-124.46 150.54,-135.03 156.99,-132.32"/>
</g>
<!-- 0&#45;&gt;0 -->
<g id="edge3" class="edge">
<title>0&#45;&gt;0</title>
<path fill="none" stroke="green" stroke-width="0.39" stroke-dasharray="1,5" d="M180.23,-28.18C191.21,-34.77 203.26,-30.79 203.26,-16.26 203.26,-6.05 197.3,-1.05 189.95,-1.27"/>
<polygon fill="green" stroke="green" stroke-width="0.39" points="188.71,2.01 180.23,-4.34 190.82,-4.67 188.71,2.01"/>
</g>
<!-- 1&#45;&gt;3071 -->
<g id="edge11" class="edge">
<title>1&#45;&gt;3071</title>
<path fill="none" stroke="red" stroke-width="0.68" d="M133.64,-163.24C132.64,-155.56 132.18,-145.74 132.26,-136.09"/>
<polygon fill="red" stroke="red" stroke-width="0.68" points="135.77,-135.89 132.55,-125.79 128.77,-135.69 135.77,-135.89"/>
</g>
<!-- 2962 -->
<g id="node15" class="node">
<title>2962</title>
<ellipse fill="white" stroke="black" cx="259" cy="-97.52" rx="28.98" ry="28.98"/>
<text text-anchor="middle" x="259" y="-95.32" font-family="Times,serif" font-size="9.00">2962</text>
</g>
<!-- 2962&#45;&gt;0 -->
<g id="edge8" class="edge">
<title>2962&#45;&gt;0</title>
<path fill="none" stroke="green" stroke-width="0.59" d="M237.67,-77.74C222.81,-64.65 203.13,-47.32 188.65,-34.57"/>
<polygon fill="green" stroke="green" stroke-width="0.59" points="190.62,-31.64 180.8,-27.66 186,-36.89 190.62,-31.64"/>
</g>
<!-- 3071&#45;&gt;0 -->
<g id="edge10" class="edge">
<title>3071&#45;&gt;0</title>
<path fill="none" stroke="red" stroke-width="0.98" stroke-dasharray="1,5" d="M148.99,-70.13C152.51,-60.84 156.44,-50.45 159.88,-41.36"/>
<polygon fill="red" stroke="red" stroke-width="0.98" points="163.24,-42.36 163.51,-31.77 156.7,-39.88 163.24,-42.36"/>
</g>
<!-- 3071&#45;&gt;1 -->
<g id="edge13" class="edge">
<title>3071&#45;&gt;1</title>
<path fill="none" stroke="red" stroke-width="0.27" d="M145.45,-125.79C145.89,-134.63 145.85,-144.38 145.31,-153.03"/>
<polygon fill="red" stroke="red" stroke-width="0.27" points="141.8,-152.96 144.36,-163.24 148.77,-153.6 141.8,-152.96"/>
</g>
</g>
</svg>
