<?xml version="1.0" encoding="UTF-8" standalone="no"?>
<!DOCTYPE svg PUBLIC "-//W3C//DTD SVG 1.1//EN"
 "http://www.w3.org/Graphics/SVG/1.1/DTD/svg11.dtd">
<!-- Generated by graphviz version 2.43.0 (0)
 -->
<!-- Title: %3 Pages: 1 -->
<svg width="552pt" height="189pt"
 viewBox="0.00 0.00 552.00 188.51" xmlns="http://www.w3.org/2000/svg" xmlns:xlink="http://www.w3.org/1999/xlink">
<g id="graph0" class="graph" transform="scale(1 1) rotate(0) translate(4 184.51)">
<title>%3</title>
<polygon fill="white" stroke="transparent" points="-4,4 -4,-184.51 548,-184.51 548,4 -4,4"/>
<!-- &#45;1 -->
<g id="node1" class="node">
<title>&#45;1</title>
<polygon fill="lightgray" stroke="black" points="26,-106.52 0,-106.52 0,-88.52 26,-88.52 26,-106.52"/>
<text text-anchor="middle" x="13" y="-95.32" font-family="Times,serif" font-size="9.00">&#45;1</text>
</g>
<!-- 1 -->
<g id="node14" class="node">
<title>1</title>
<ellipse fill="lightblue" stroke="black" cx="101" cy="-16.26" rx="16.03" ry="16.03"/>
<text text-anchor="middle" x="101" y="-14.06" font-family="Times,serif" font-size="9.00">1</text>
</g>
<!-- &#45;1&#45;&gt;1 -->
<g id="edge8" class="edge">
<title>&#45;1&#45;&gt;1</title>
<path fill="none" stroke="red" stroke-width="0.36" d="M18.5,-88.49C22.69,-82.65 28.78,-74.72 35,-68.53 48.76,-54.85 66.15,-41.47 79.62,-31.82"/>
<polygon fill="red" stroke="red" stroke-width="0.36" points="81.67,-34.66 87.84,-26.04 77.64,-28.93 81.67,-34.66"/>
</g>
<!-- &#45;2 -->
<g id="node2" class="node">
<title>&#45;2</title>
<polygon fill="lightgray" stroke="black" points="70,-106.52 44,-106.52 44,-88.52 70,-88.52 70,-106.52"/>
<text text-anchor="middle" x="57" y="-95.32" font-family="Times,serif" font-size="9.00">&#45;2</text>
</g>
<!-- &#45;2&#45;&gt;1 -->
<g id="edge6" class="edge">
<title>&#45;2&#45;&gt;1</title>
<path fill="none" stroke="green" stroke-width="0.26" d="M61.54,-88.34C67.86,-76.96 79.53,-55.95 88.54,-39.7"/>
<polygon fill="green" stroke="green" stroke-width="0.26" points="91.69,-41.25 93.48,-30.8 85.57,-37.85 91.69,-41.25"/>
</g>
<!-- &#45;3 -->
<g id="node3" class="node">
<title>&#45;3</title>
<polygon fill="lightgray" stroke="black" points="258,-106.52 232,-106.52 232,-88.52 258,-88.52 258,-106.52"/>
<text text-anchor="middle" x="245" y="-95.32" font-family="Times,serif" font-size="9.00">&#45;3</text>
</g>
<!-- 0 -->
<g id="node13" class="node">
<title>0</title>
<ellipse fill="lightblue" stroke="black" cx="268" cy="-16.26" rx="16.03" ry="16.03"/>
<text text-anchor="middle" x="268" y="-14.06" font-family="Times,serif" font-size="9.00">0</text>
</g>
<!-- &#45;3&#45;&gt;0 -->
<g id="edge3" class="edge">
<title>&#45;3&#45;&gt;0</title>
<path fill="none" stroke="green" stroke-width="0.43" d="M247.37,-88.34C250.54,-77.43 256.27,-57.67 260.89,-41.75"/>
<polygon fill="green" stroke="green" stroke-width="0.43" points="264.31,-42.55 263.73,-31.97 257.58,-40.6 264.31,-42.55"/>
</g>
<!-- &#45;4 -->
<g id="node4" class="node">
<title>&#45;4</title>
<polygon fill="lightgray" stroke="black" points="412,-180.51 386,-180.51 386,-162.51 412,-162.51 412,-180.51"/>
<text text-anchor="middle" x="399" y="-169.31" font-family="Times,serif" font-size="9.00">&#45;4</text>
</g>
<!-- &#45;5 -->
<g id="node5" class="node">
<title>&#45;5</title>
<polygon fill="lightgray" stroke="black" points="456,-180.51 430,-180.51 430,-162.51 456,-162.51 456,-180.51"/>
<text text-anchor="middle" x="443" y="-169.31" font-family="Times,serif" font-size="9.00">&#45;5</text>
</g>
<!-- &#45;6 -->
<g id="node6" class="node">
<title>&#45;6</title>
<polygon fill="lightgray" stroke="black" points="114,-106.52 88,-106.52 88,-88.52 114,-88.52 114,-106.52"/>
<text text-anchor="middle" x="101" y="-95.32" font-family="Times,serif" font-size="9.00">&#45;6</text>
</g>
<!-- &#45;6&#45;&gt;1 -->
<g id="edge1" class="edge">
<title>&#45;6&#45;&gt;1</title>
<path fill="none" stroke="red" stroke-width="0.3" stroke-dasharray="1,5" d="M101,-88.34C101,-77.67 101,-58.51 101,-42.77"/>
<polygon fill="red" stroke="red" stroke-width="0.3" points="104.5,-42.57 101,-32.57 97.5,-42.57 104.5,-42.57"/>
</g>
<!-- &#45;7 -->
<g id="node7" class="node">
<title>&#45;7</title>
<polygon fill="lightgray" stroke="black" points="500,-180.51 474,-180.51 474,-162.51 500,-162.51 500,-180.51"/>
<text text-anchor="middle" x="487" y="-169.31" font-family="Times,serif" font-size="9.00">&#45;7</text>
</g>
<!-- &#45;8 -->
<g id="node8" class="node">
<title>&#45;8</title>
<polygon fill="lightgray" stroke="black" points="368,-180.51 342,-180.51 342,-162.51 368,-162.51 368,-180.51"/>
<text text-anchor="middle" x="355" y="-169.31" font-family="Times,serif" font-size="9.00">&#45;8</text>
</g>
<!-- 5008 -->
<g id="node15" class="node">
<title>5008</title>
<ellipse fill="white" stroke="black" cx="355" cy="-97.52" rx="28.98" ry="28.98"/>
<text text-anchor="middle" x="355" y="-95.32" font-family="Times,serif" font-size="9.00">5008</text>
</g>
<!-- &#45;8&#45;&gt;5008 -->
<g id="edge9" class="edge">
<title>&#45;8&#45;&gt;5008</title>
<path fill="none" stroke="red" stroke-width="0.35" d="M355,-162.25C355,-155.78 355,-146.28 355,-136.58"/>
<polygon fill="red" stroke="red" stroke-width="0.35" points="358.5,-136.51 355,-126.51 351.5,-136.51 358.5,-136.51"/>
</g>
<!-- &#45;9 -->
<g id="node9" class="node">
<title>&#45;9</title>
<polygon fill="lightgray" stroke="black" points="544,-180.51 518,-180.51 518,-162.51 544,-162.51 544,-180.51"/>
<text text-anchor="middle" x="531" y="-169.31" font-family="Times,serif" font-size="9.00">&#45;9</text>
</g>
<!-- &#45;10 -->
<g id="node10" class="node">
<title>&#45;10</title>
<polygon fill="lightgray" stroke="black" points="214,-106.52 182,-106.52 182,-88.52 214,-88.52 214,-106.52"/>
<text text-anchor="middle" x="198" y="-95.32" font-family="Times,serif" font-size="9.00">&#45;10</text>
</g>
<!-- &#45;10&#45;&gt;0 -->
<g id="edge2" class="edge">
<title>&#45;10&#45;&gt;0</title>
<path fill="none" stroke="red" stroke-width="0.22" stroke-dasharray="1,5" d="M205.23,-88.34C215.91,-76.24 236.24,-53.22 250.87,-36.65"/>
<polygon fill="red" stroke="red" stroke-width="0.22" points="253.54,-38.93 257.53,-29.12 248.29,-34.29 253.54,-38.93"/>
</g>
<!-- &#45;10&#45;&gt;1 -->
<g id="edge4" class="edge">
<title>&#45;10&#45;&gt;1</title>
<path fill="none" stroke="green" stroke-width="0.13" stroke-dasharray="1,5" d="M191.64,-88.48C186.83,-82.64 179.89,-74.7 173,-68.53 157.28,-54.46 137.69,-40.71 122.91,-31.01"/>
<polygon fill="green" stroke="green" stroke-width="0.13" points="124.7,-28 114.4,-25.52 120.91,-33.88 124.7,-28"/>
</g>
<!-- &#45;11 -->
<g id="node11" class="node">
<title>&#45;11</title>
<polygon fill="lightgray" stroke="black" points="164,-106.52 132,-106.52 132,-88.52 164,-88.52 164,-106.52"/>
<text text-anchor="middle" x="148" y="-95.32" font-family="Times,serif" font-size="9.00">&#45;11</text>
</g>
<!-- &#45;11&#45;&gt;1 -->
<g id="edge5" class="edge">
<title>&#45;11&#45;&gt;1</title>
<path fill="none" stroke="green" stroke-width="0.74" d="M143.15,-88.34C136.36,-76.9 123.79,-55.7 114.14,-39.42"/>
<polygon fill="green" stroke="green" stroke-width="0.74" points="116.97,-37.33 108.86,-30.52 110.95,-40.9 116.97,-37.33"/>
</g>
<!-- &#45;12 -->
<g id="node12" class="node">
<title>&#45;12</title>
<polygon fill="lightgray" stroke="black" points="308,-106.52 276,-106.52 276,-88.52 308,-88.52 308,-106.52"/>
<text text-anchor="middle" x="292" y="-95.32" font-family="Times,serif" font-size="9.00">&#45;12</text>
</g>
<!-- &#45;12&#45;&gt;0 -->
<g id="edge7" class="edge">
<title>&#45;12&#45;&gt;0</title>
<path fill="none" stroke="red" stroke-width="0.34" d="M289.52,-88.34C286.22,-77.43 280.24,-57.67 275.42,-41.75"/>
<polygon fill="red" stroke="red" stroke-width="0.34" points="278.7,-40.53 272.45,-31.97 272,-42.56 278.7,-40.53"/>
</g>
<!-- 5008&#45;&gt;0 -->
<g id="edge10" class="edge">
<title>5008&#45;&gt;0</title>
<path fill="none" stroke="green" stroke-width="0.31" d="M333.94,-77.33C319.65,-64.31 300.9,-47.24 287.05,-34.62"/>
<polygon fill="green" stroke="green" stroke-width="0.31" points="289.29,-31.92 279.54,-27.77 284.57,-37.09 289.29,-31.92"/>
</g>
</g>
</svg>
