<?xml version="1.0" encoding="UTF-8" standalone="no"?>
<!DOCTYPE svg PUBLIC "-//W3C//DTD SVG 1.1//EN"
 "http://www.w3.org/Graphics/SVG/1.1/DTD/svg11.dtd">
<!-- Generated by graphviz version 2.43.0 (0)
 -->
<!-- Title: %3 Pages: 1 -->
<svg width="936pt" height="95pt"
 viewBox="0.00 0.00 936.00 94.53" xmlns="http://www.w3.org/2000/svg" xmlns:xlink="http://www.w3.org/1999/xlink">
<g id="graph0" class="graph" transform="scale(1 1) rotate(0) translate(4 90.53)">
<title>%3</title>
<polygon fill="white" stroke="transparent" points="-4,4 -4,-90.53 932,-90.53 932,4 -4,4"/>
<!-- &#45;1 -->
<g id="node1" class="node">
<title>&#45;1</title>
<polygon fill="lightgray" stroke="black" points="26,-86.53 0,-86.53 0,-68.53 26,-68.53 26,-86.53"/>
<text text-anchor="middle" x="13" y="-75.33" font-family="Times,serif" font-size="9.00">&#45;1</text>
</g>
<!-- 0 -->
<g id="node21" class="node">
<title>0</title>
<ellipse fill="lightblue" stroke="black" cx="148" cy="-16.26" rx="16.03" ry="16.03"/>
<text text-anchor="middle" x="148" y="-14.06" font-family="Times,serif" font-size="9.00">0</text>
</g>
<!-- &#45;1&#45;&gt;0 -->
<g id="edge6" class="edge">
<title>&#45;1&#45;&gt;0</title>
<path fill="none" stroke="red" stroke-width="1.15" d="M26.44,-70.63C49.23,-60.62 95.74,-40.2 124.17,-27.73"/>
<polygon fill="red" stroke="red" stroke-width="1.15" points="125.65,-30.9 133.4,-23.67 122.83,-24.49 125.65,-30.9"/>
</g>
<!-- &#45;2 -->
<g id="node2" class="node">
<title>&#45;2</title>
<polygon fill="lightgray" stroke="black" points="358,-86.53 332,-86.53 332,-68.53 358,-68.53 358,-86.53"/>
<text text-anchor="middle" x="345" y="-75.33" font-family="Times,serif" font-size="9.00">&#45;2</text>
</g>
<!-- &#45;3 -->
<g id="node3" class="node">
<title>&#45;3</title>
<polygon fill="lightgray" stroke="black" points="402,-86.53 376,-86.53 376,-68.53 402,-68.53 402,-86.53"/>
<text text-anchor="middle" x="389" y="-75.33" font-family="Times,serif" font-size="9.00">&#45;3</text>
</g>
<!-- 1 -->
<g id="node22" class="node">
<title>1</title>
<ellipse fill="lightblue" stroke="black" cx="544" cy="-16.26" rx="16.03" ry="16.03"/>
<text text-anchor="middle" x="544" y="-14.06" font-family="Times,serif" font-size="9.00">1</text>
</g>
<!-- &#45;3&#45;&gt;1 -->
<g id="edge1" class="edge">
<title>&#45;3&#45;&gt;1</title>
<path fill="none" stroke="red" stroke-width="0.42" d="M402.22,-71.47C428.22,-61.53 486.4,-39.29 519.58,-26.6"/>
<polygon fill="red" stroke="red" stroke-width="0.42" points="520.92,-29.83 529.01,-22.99 518.42,-23.3 520.92,-29.83"/>
</g>
<!-- &#45;4 -->
<g id="node4" class="node">
<title>&#45;4</title>
<polygon fill="lightgray" stroke="black" points="70,-86.53 44,-86.53 44,-68.53 70,-68.53 70,-86.53"/>
<text text-anchor="middle" x="57" y="-75.33" font-family="Times,serif" font-size="9.00">&#45;4</text>
</g>
<!-- &#45;4&#45;&gt;0 -->
<g id="edge12" class="edge">
<title>&#45;4&#45;&gt;0</title>
<path fill="none" stroke="red" stroke-width="0.46" d="M69.65,-68.29C84.21,-58.81 108.37,-43.07 126.02,-31.58"/>
<polygon fill="red" stroke="red" stroke-width="0.46" points="128.1,-34.4 134.57,-26.01 124.28,-28.54 128.1,-34.4"/>
</g>
<!-- &#45;5 -->
<g id="node5" class="node">
<title>&#45;5</title>
<polygon fill="lightgray" stroke="black" points="446,-86.53 420,-86.53 420,-68.53 446,-68.53 446,-86.53"/>
<text text-anchor="middle" x="433" y="-75.33" font-family="Times,serif" font-size="9.00">&#45;5</text>
</g>
<!-- &#45;5&#45;&gt;1 -->
<g id="edge5" class="edge">
<title>&#45;5&#45;&gt;1</title>
<path fill="none" stroke="red" stroke-width="0.1" d="M446.17,-69.5C464.56,-59.68 498.22,-41.71 520.85,-29.62"/>
<polygon fill="red" stroke="red" stroke-width="0.1" points="522.63,-32.64 529.8,-24.85 519.33,-26.47 522.63,-32.64"/>
</g>
<!-- &#45;6 -->
<g id="node6" class="node">
<title>&#45;6</title>
<polygon fill="lightgray" stroke="black" points="490,-86.53 464,-86.53 464,-68.53 490,-68.53 490,-86.53"/>
<text text-anchor="middle" x="477" y="-75.33" font-family="Times,serif" font-size="9.00">&#45;6</text>
</g>
<!-- &#45;6&#45;&gt;1 -->
<g id="edge4" class="edge">
<title>&#45;6&#45;&gt;1</title>
<path fill="none" stroke="green" stroke-width="1.31" d="M486.32,-68.29C496.11,-59.62 511.8,-45.74 524.35,-34.64"/>
<polygon fill="green" stroke="green" stroke-width="1.31" points="526.88,-37.08 532.05,-27.83 522.24,-31.84 526.88,-37.08"/>
</g>
<!-- &#45;7 -->
<g id="node7" class="node">
<title>&#45;7</title>
<polygon fill="lightgray" stroke="black" points="778,-86.53 752,-86.53 752,-68.53 778,-68.53 778,-86.53"/>
<text text-anchor="middle" x="765" y="-75.33" font-family="Times,serif" font-size="9.00">&#45;7</text>
</g>
<!-- &#45;8 -->
<g id="node8" class="node">
<title>&#45;8</title>
<polygon fill="lightgray" stroke="black" points="534,-86.53 508,-86.53 508,-68.53 534,-68.53 534,-86.53"/>
<text text-anchor="middle" x="521" y="-75.33" font-family="Times,serif" font-size="9.00">&#45;8</text>
</g>
<!-- &#45;8&#45;&gt;1 -->
<g id="edge3" class="edge">
<title>&#45;8&#45;&gt;1</title>
<path fill="none" stroke="green" stroke-width="0.92" stroke-dasharray="1,5" d="M524.2,-68.29C526.91,-61.3 530.94,-50.91 534.66,-41.33"/>
<polygon fill="green" stroke="green" stroke-width="0.92" points="538,-42.41 538.35,-31.82 531.47,-39.87 538,-42.41"/>
</g>
<!-- &#45;9 -->
<g id="node9" class="node">
<title>&#45;9</title>
<polygon fill="lightgray" stroke="black" points="114,-86.53 88,-86.53 88,-68.53 114,-68.53 114,-86.53"/>
<text text-anchor="middle" x="101" y="-75.33" font-family="Times,serif" font-size="9.00">&#45;9</text>
</g>
<!-- &#45;9&#45;&gt;0 -->
<g id="edge11" class="edge">
<title>&#45;9&#45;&gt;0</title>
<path fill="none" stroke="green" stroke-width="0.38" d="M107.54,-68.29C113.82,-60.36 123.58,-48.05 131.94,-37.51"/>
<polygon fill="green" stroke="green" stroke-width="0.38" points="134.78,-39.56 138.25,-29.55 129.3,-35.21 134.78,-39.56"/>
</g>
<!-- &#45;10 -->
<g id="node10" class="node">
<title>&#45;10</title>
<polygon fill="lightgray" stroke="black" points="164,-86.53 132,-86.53 132,-68.53 164,-68.53 164,-86.53"/>
<text text-anchor="middle" x="148" y="-75.33" font-family="Times,serif" font-size="9.00">&#45;10</text>
</g>
<!-- &#45;10&#45;&gt;0 -->
<g id="edge16" class="edge">
<title>&#45;10&#45;&gt;0</title>
<path fill="none" stroke="green" stroke-width="0.37" stroke-dasharray="1,5" d="M148,-68.29C148,-61.7 148,-52.1 148,-43"/>
<polygon fill="green" stroke="green" stroke-width="0.37" points="151.5,-42.76 148,-32.76 144.5,-42.76 151.5,-42.76"/>
</g>
<!-- &#45;11 -->
<g id="node11" class="node">
<title>&#45;11</title>
<polygon fill="lightgray" stroke="black" points="828,-86.53 796,-86.53 796,-68.53 828,-68.53 828,-86.53"/>
<text text-anchor="middle" x="812" y="-75.33" font-family="Times,serif" font-size="9.00">&#45;11</text>
</g>
<!-- &#45;12 -->
<g id="node12" class="node">
<title>&#45;12</title>
<polygon fill="lightgray" stroke="black" points="878,-86.53 846,-86.53 846,-68.53 878,-68.53 878,-86.53"/>
<text text-anchor="middle" x="862" y="-75.33" font-family="Times,serif" font-size="9.00">&#45;12</text>
</g>
<!-- &#45;13 -->
<g id="node13" class="node">
<title>&#45;13</title>
<polygon fill="lightgray" stroke="black" points="214,-86.53 182,-86.53 182,-68.53 214,-68.53 214,-86.53"/>
<text text-anchor="middle" x="198" y="-75.33" font-family="Times,serif" font-size="9.00">&#45;13</text>
</g>
<!-- &#45;13&#45;&gt;0 -->
<g id="edge13" class="edge">
<title>&#45;13&#45;&gt;0</title>
<path fill="none" stroke="red" stroke-width="0.51" stroke-dasharray="1,5" d="M191.05,-68.29C184.21,-60.18 173.5,-47.49 164.48,-36.79"/>
<polygon fill="red" stroke="red" stroke-width="0.51" points="167.12,-34.5 158,-29.11 161.77,-39.01 167.12,-34.5"/>
</g>
<!-- &#45;14 -->
<g id="node14" class="node">
<title>&#45;14</title>
<polygon fill="lightgray" stroke="black" points="584,-86.53 552,-86.53 552,-68.53 584,-68.53 584,-86.53"/>
<text text-anchor="middle" x="568" y="-75.33" font-family="Times,serif" font-size="9.00">&#45;14</text>
</g>
<!-- &#45;14&#45;&gt;1 -->
<g id="edge8" class="edge">
<title>&#45;14&#45;&gt;1</title>
<path fill="none" stroke="green" stroke-width="0.25" d="M564.66,-68.29C561.83,-61.3 557.63,-50.91 553.75,-41.33"/>
<polygon fill="green" stroke="green" stroke-width="0.25" points="556.89,-39.77 549.89,-31.82 550.4,-42.4 556.89,-39.77"/>
</g>
<!-- &#45;15 -->
<g id="node15" class="node">
<title>&#45;15</title>
<polygon fill="lightgray" stroke="black" points="634,-86.53 602,-86.53 602,-68.53 634,-68.53 634,-86.53"/>
<text text-anchor="middle" x="618" y="-75.33" font-family="Times,serif" font-size="9.00">&#45;15</text>
</g>
<!-- &#45;15&#45;&gt;1 -->
<g id="edge15" class="edge">
<title>&#45;15&#45;&gt;1</title>
<path fill="none" stroke="red" stroke-width="0.14" stroke-dasharray="1,5" d="M607.71,-68.29C596.59,-59.38 578.59,-44.97 564.55,-33.72"/>
<polygon fill="red" stroke="red" stroke-width="0.14" points="566.42,-30.73 556.42,-27.21 562.04,-36.2 566.42,-30.73"/>
</g>
<!-- &#45;16 -->
<g id="node16" class="node">
<title>&#45;16</title>
<polygon fill="lightgray" stroke="black" points="928,-86.53 896,-86.53 896,-68.53 928,-68.53 928,-86.53"/>
<text text-anchor="middle" x="912" y="-75.33" font-family="Times,serif" font-size="9.00">&#45;16</text>
</g>
<!-- &#45;17 -->
<g id="node17" class="node">
<title>&#45;17</title>
<polygon fill="lightgray" stroke="black" points="264,-86.53 232,-86.53 232,-68.53 264,-68.53 264,-86.53"/>
<text text-anchor="middle" x="248" y="-75.33" font-family="Times,serif" font-size="9.00">&#45;17</text>
</g>
<!-- &#45;17&#45;&gt;0 -->
<g id="edge7" class="edge">
<title>&#45;17&#45;&gt;0</title>
<path fill="none" stroke="green" stroke-width="0.22" stroke-dasharray="1,5" d="M234.1,-68.29C217.68,-58.56 190.14,-42.24 170.63,-30.68"/>
<polygon fill="green" stroke="green" stroke-width="0.22" points="172.17,-27.52 161.79,-25.43 168.6,-33.54 172.17,-27.52"/>
</g>
<!-- &#45;18 -->
<g id="node18" class="node">
<title>&#45;18</title>
<polygon fill="lightgray" stroke="black" points="314,-86.53 282,-86.53 282,-68.53 314,-68.53 314,-86.53"/>
<text text-anchor="middle" x="298" y="-75.33" font-family="Times,serif" font-size="9.00">&#45;18</text>
</g>
<!-- &#45;18&#45;&gt;0 -->
<g id="edge9" class="edge">
<title>&#45;18&#45;&gt;0</title>
<path fill="none" stroke="green" stroke-width="0.21" stroke-dasharray="1,5" d="M281.95,-70.18C255.74,-59.83 203.58,-39.22 172.65,-27"/>
<polygon fill="green" stroke="green" stroke-width="0.21" points="173.63,-23.63 163.04,-23.21 171.06,-30.14 173.63,-23.63"/>
</g>
<!-- &#45;19 -->
<g id="node19" class="node">
<title>&#45;19</title>
<polygon fill="lightgray" stroke="black" points="684,-86.53 652,-86.53 652,-68.53 684,-68.53 684,-86.53"/>
<text text-anchor="middle" x="668" y="-75.33" font-family="Times,serif" font-size="9.00">&#45;19</text>
</g>
<!-- &#45;19&#45;&gt;1 -->
<g id="edge17" class="edge">
<title>&#45;19&#45;&gt;1</title>
<path fill="none" stroke="red" stroke-width="0.34" stroke-dasharray="1,5" d="M651.79,-68.78C630.23,-58.48 591.98,-40.2 567.32,-28.41"/>
<polygon fill="red" stroke="red" stroke-width="0.34" points="568.82,-25.25 558.29,-24.09 565.81,-31.56 568.82,-25.25"/>
</g>
<!-- &#45;20 -->
<g id="node20" class="node">
<title>&#45;20</title>
<polygon fill="lightgray" stroke="black" points="734,-86.53 702,-86.53 702,-68.53 734,-68.53 734,-86.53"/>
<text text-anchor="middle" x="718" y="-75.33" font-family="Times,serif" font-size="9.00">&#45;20</text>
</g>
<!-- &#45;20&#45;&gt;1 -->
<g id="edge2" class="edge">
<title>&#45;20&#45;&gt;1</title>
<path fill="none" stroke="red" stroke-width="0.55" stroke-dasharray="1,5" d="M701.94,-71.06C671.62,-60.73 605.72,-38.29 569.36,-25.9"/>
<polygon fill="red" stroke="red" stroke-width="0.55" points="570.11,-22.46 559.52,-22.55 567.86,-29.09 570.11,-22.46"/>
</g>
<!-- 0&#45;&gt;0 -->
<g id="edge10" class="edge">
<title>0&#45;&gt;0</title>
<path fill="none" stroke="green" stroke-width="0.81" d="M161.36,-26.06C171.71,-29.72 182.26,-26.46 182.26,-16.26 182.26,-9.57 177.72,-5.87 171.67,-5.14"/>
<polygon fill="green" stroke="green" stroke-width="0.81" points="170.84,-1.72 161.36,-6.47 171.73,-8.67 170.84,-1.72"/>
</g>
<!-- 1&#45;&gt;1 -->
<g id="edge14" class="edge">
<title>1&#45;&gt;1</title>
<path fill="none" stroke="green" stroke-width="0.1" d="M557.36,-26.06C567.71,-29.72 578.26,-26.46 578.26,-16.26 578.26,-9.57 573.72,-5.87 567.67,-5.14"/>
<polygon fill="green" stroke="green" stroke-width="0.1" points="566.84,-1.72 557.36,-6.47 567.73,-8.67 566.84,-1.72"/>
</g>
</g>
</svg>
