<?xml version="1.0" encoding="UTF-8" standalone="no"?>
<!DOCTYPE svg PUBLIC "-//W3C//DTD SVG 1.1//EN"
 "http://www.w3.org/Graphics/SVG/1.1/DTD/svg11.dtd">
<!-- Generated by graphviz version 2.43.0 (0)
 -->
<!-- Title: %3 Pages: 1 -->
<svg width="826pt" height="282pt"
 viewBox="0.00 0.00 826.17 282.49" xmlns="http://www.w3.org/2000/svg" xmlns:xlink="http://www.w3.org/1999/xlink">
<g id="graph0" class="graph" transform="scale(1 1) rotate(0) translate(4 278.49)">
<title>%3</title>
<polygon fill="white" stroke="transparent" points="-4,4 -4,-278.49 822.17,-278.49 822.17,4 -4,4"/>
<!-- &#45;1 -->
<g id="node1" class="node">
<title>&#45;1</title>
<polygon fill="lightgray" stroke="black" points="71.17,-274.49 45.17,-274.49 45.17,-256.49 71.17,-256.49 71.17,-274.49"/>
<text text-anchor="middle" x="58.17" y="-263.29" font-family="Times,serif" font-size="9.00">&#45;1</text>
</g>
<!-- &#45;2 -->
<g id="node2" class="node">
<title>&#45;2</title>
<polygon fill="lightgray" stroke="black" points="115.17,-274.49 89.17,-274.49 89.17,-256.49 115.17,-256.49 115.17,-274.49"/>
<text text-anchor="middle" x="102.17" y="-263.29" font-family="Times,serif" font-size="9.00">&#45;2</text>
</g>
<!-- 0 -->
<g id="node21" class="node">
<title>0</title>
<ellipse fill="lightblue" stroke="black" cx="164.17" cy="-16.26" rx="16.03" ry="16.03"/>
<text text-anchor="middle" x="164.17" y="-14.06" font-family="Times,serif" font-size="9.00">0</text>
</g>
<!-- &#45;2&#45;&gt;0 -->
<g id="edge16" class="edge">
<title>&#45;2&#45;&gt;0</title>
<path fill="none" stroke="red" stroke-width="0.42" d="M92.88,-256.44C61.84,-228.54 -33.84,-134.13 13.17,-68.53 41.66,-28.76 102.77,-19.47 137.89,-17.53"/>
<polygon fill="red" stroke="red" stroke-width="0.42" points="138.03,-21.02 147.89,-17.13 137.76,-14.03 138.03,-21.02"/>
</g>
<!-- 1 -->
<g id="node22" class="node">
<title>1</title>
<ellipse fill="lightblue" stroke="black" cx="258.17" cy="-191.5" rx="16.03" ry="16.03"/>
<text text-anchor="middle" x="258.17" y="-189.3" font-family="Times,serif" font-size="9.00">1</text>
</g>
<!-- &#45;2&#45;&gt;1 -->
<g id="edge1" class="edge">
<title>&#45;2&#45;&gt;1</title>
<path fill="none" stroke="green" stroke-width="0.32" d="M115.25,-259.74C135.66,-252.18 176.14,-236.63 209.17,-220.49 218.12,-216.12 227.7,-210.8 235.98,-205.98"/>
<polygon fill="green" stroke="green" stroke-width="0.32" points="237.87,-208.93 244.69,-200.82 234.3,-202.91 237.87,-208.93"/>
</g>
<!-- &#45;3 -->
<g id="node3" class="node">
<title>&#45;3</title>
<polygon fill="lightgray" stroke="black" points="48.17,-106.52 22.17,-106.52 22.17,-88.52 48.17,-88.52 48.17,-106.52"/>
<text text-anchor="middle" x="35.17" y="-95.32" font-family="Times,serif" font-size="9.00">&#45;3</text>
</g>
<!-- &#45;3&#45;&gt;0 -->
<g id="edge6" class="edge">
<title>&#45;3&#45;&gt;0</title>
<path fill="none" stroke="green" stroke-width="0.2" stroke-dasharray="1,5" d="M40.13,-88.33C44.13,-82.25 50.22,-74.09 57.17,-68.53 82.12,-48.53 116.15,-33.93 139.08,-25.54"/>
<polygon fill="green" stroke="green" stroke-width="0.2" points="140.49,-28.76 148.76,-22.13 138.16,-22.15 140.49,-28.76"/>
</g>
<!-- &#45;4 -->
<g id="node4" class="node">
<title>&#45;4</title>
<polygon fill="lightgray" stroke="black" points="374.17,-274.49 348.17,-274.49 348.17,-256.49 374.17,-256.49 374.17,-274.49"/>
<text text-anchor="middle" x="361.17" y="-263.29" font-family="Times,serif" font-size="9.00">&#45;4</text>
</g>
<!-- &#45;5 -->
<g id="node5" class="node">
<title>&#45;5</title>
<polygon fill="lightgray" stroke="black" points="92.17,-106.52 66.17,-106.52 66.17,-88.52 92.17,-88.52 92.17,-106.52"/>
<text text-anchor="middle" x="79.17" y="-95.32" font-family="Times,serif" font-size="9.00">&#45;5</text>
</g>
<!-- &#45;5&#45;&gt;0 -->
<g id="edge3" class="edge">
<title>&#45;5&#45;&gt;0</title>
<path fill="none" stroke="green" stroke-width="0.31" stroke-dasharray="1,5" d="M84.89,-88.29C89.09,-82.49 95.1,-74.7 101.17,-68.53 114.02,-55.46 130.06,-42.44 142.75,-32.79"/>
<polygon fill="green" stroke="green" stroke-width="0.31" points="144.99,-35.49 150.91,-26.7 140.8,-29.88 144.99,-35.49"/>
</g>
<!-- &#45;6 -->
<g id="node6" class="node">
<title>&#45;6</title>
<polygon fill="lightgray" stroke="black" points="136.17,-106.52 110.17,-106.52 110.17,-88.52 136.17,-88.52 136.17,-106.52"/>
<text text-anchor="middle" x="123.17" y="-95.32" font-family="Times,serif" font-size="9.00">&#45;6</text>
</g>
<!-- &#45;6&#45;&gt;0 -->
<g id="edge7" class="edge">
<title>&#45;6&#45;&gt;0</title>
<path fill="none" stroke="red" stroke-width="0.48" d="M127.4,-88.34C133.25,-77.03 144.03,-56.19 152.41,-39.99"/>
<polygon fill="red" stroke="red" stroke-width="0.48" points="155.53,-41.58 157.01,-31.09 149.31,-38.37 155.53,-41.58"/>
</g>
<!-- &#45;7 -->
<g id="node7" class="node">
<title>&#45;7</title>
<polygon fill="lightgray" stroke="black" points="330.17,-274.49 304.17,-274.49 304.17,-256.49 330.17,-256.49 330.17,-274.49"/>
<text text-anchor="middle" x="317.17" y="-263.29" font-family="Times,serif" font-size="9.00">&#45;7</text>
</g>
<!-- &#45;7&#45;&gt;1 -->
<g id="edge2" class="edge">
<title>&#45;7&#45;&gt;1</title>
<path fill="none" stroke="green" stroke-width="0.88" stroke-dasharray="1,5" d="M310.4,-256.23C301.7,-245.61 286.29,-226.82 274.46,-212.38"/>
<polygon fill="green" stroke="green" stroke-width="0.88" points="277.03,-210 267.98,-204.48 271.62,-214.43 277.03,-210"/>
</g>
<!-- 2944 -->
<g id="node23" class="node">
<title>2944</title>
<ellipse fill="white" stroke="black" cx="321.17" cy="-191.5" rx="28.98" ry="28.98"/>
<text text-anchor="middle" x="321.17" y="-189.3" font-family="Times,serif" font-size="9.00">2944</text>
</g>
<!-- &#45;7&#45;&gt;2944 -->
<g id="edge10" class="edge">
<title>&#45;7&#45;&gt;2944</title>
<path fill="none" stroke="red" stroke-width="1.21" stroke-dasharray="1,5" d="M317.63,-256.23C317.99,-249.77 318.51,-240.26 319.05,-230.56"/>
<polygon fill="red" stroke="red" stroke-width="1.21" points="322.55,-230.67 319.61,-220.5 315.56,-230.29 322.55,-230.67"/>
</g>
<!-- &#45;8 -->
<g id="node8" class="node">
<title>&#45;8</title>
<polygon fill="lightgray" stroke="black" points="200.17,-200.5 174.17,-200.5 174.17,-182.5 200.17,-182.5 200.17,-200.5"/>
<text text-anchor="middle" x="187.17" y="-189.3" font-family="Times,serif" font-size="9.00">&#45;8</text>
</g>
<!-- &#45;8&#45;&gt;0 -->
<g id="edge5" class="edge">
<title>&#45;8&#45;&gt;0</title>
<path fill="none" stroke="red" stroke-width="1.3" d="M186.06,-182.15C182.74,-157.13 172.78,-82.14 167.52,-42.48"/>
<polygon fill="red" stroke="red" stroke-width="1.3" points="170.98,-41.99 166.19,-32.53 164.04,-42.91 170.98,-41.99"/>
</g>
<!-- 3159 -->
<g id="node24" class="node">
<title>3159</title>
<ellipse fill="white" stroke="black" cx="321.17" cy="-97.52" rx="28.98" ry="28.98"/>
<text text-anchor="middle" x="321.17" y="-95.32" font-family="Times,serif" font-size="9.00">3159</text>
</g>
<!-- &#45;8&#45;&gt;3159 -->
<g id="edge15" class="edge">
<title>&#45;8&#45;&gt;3159</title>
<path fill="none" stroke="green" stroke-width="0.24" d="M199.72,-182.4C218.18,-170.43 253.65,-147.21 283.17,-126.51 285.49,-124.88 287.89,-123.17 290.29,-121.45"/>
<polygon fill="green" stroke="green" stroke-width="0.24" points="292.35,-124.28 298.39,-115.57 288.24,-118.61 292.35,-124.28"/>
</g>
<!-- &#45;9 -->
<g id="node9" class="node">
<title>&#45;9</title>
<polygon fill="lightgray" stroke="black" points="418.17,-274.49 392.17,-274.49 392.17,-256.49 418.17,-256.49 418.17,-274.49"/>
<text text-anchor="middle" x="405.17" y="-263.29" font-family="Times,serif" font-size="9.00">&#45;9</text>
</g>
<!-- &#45;10 -->
<g id="node10" class="node">
<title>&#45;10</title>
<polygon fill="lightgray" stroke="black" points="468.17,-274.49 436.17,-274.49 436.17,-256.49 468.17,-256.49 468.17,-274.49"/>
<text text-anchor="middle" x="452.17" y="-263.29" font-family="Times,serif" font-size="9.00">&#45;10</text>
</g>
<!-- &#45;11 -->
<g id="node11" class="node">
<title>&#45;11</title>
<polygon fill="lightgray" stroke="black" points="518.17,-274.49 486.17,-274.49 486.17,-256.49 518.17,-256.49 518.17,-274.49"/>
<text text-anchor="middle" x="502.17" y="-263.29" font-family="Times,serif" font-size="9.00">&#45;11</text>
</g>
<!-- &#45;12 -->
<g id="node12" class="node">
<title>&#45;12</title>
<polygon fill="lightgray" stroke="black" points="568.17,-274.49 536.17,-274.49 536.17,-256.49 568.17,-256.49 568.17,-274.49"/>
<text text-anchor="middle" x="552.17" y="-263.29" font-family="Times,serif" font-size="9.00">&#45;12</text>
</g>
<!-- &#45;13 -->
<g id="node13" class="node">
<title>&#45;13</title>
<polygon fill="lightgray" stroke="black" points="224.17,-106.52 192.17,-106.52 192.17,-88.52 224.17,-88.52 224.17,-106.52"/>
<text text-anchor="middle" x="208.17" y="-95.32" font-family="Times,serif" font-size="9.00">&#45;13</text>
</g>
<!-- &#45;13&#45;&gt;0 -->
<g id="edge11" class="edge">
<title>&#45;13&#45;&gt;0</title>
<path fill="none" stroke="green" stroke-width="0.1" d="M203.62,-88.34C197.31,-76.96 185.64,-55.95 176.63,-39.7"/>
<polygon fill="green" stroke="green" stroke-width="0.1" points="179.6,-37.85 171.68,-30.8 173.48,-41.25 179.6,-37.85"/>
</g>
<!-- &#45;14 -->
<g id="node14" class="node">
<title>&#45;14</title>
<polygon fill="lightgray" stroke="black" points="618.17,-274.49 586.17,-274.49 586.17,-256.49 618.17,-256.49 618.17,-274.49"/>
<text text-anchor="middle" x="602.17" y="-263.29" font-family="Times,serif" font-size="9.00">&#45;14</text>
</g>
<!-- &#45;15 -->
<g id="node15" class="node">
<title>&#45;15</title>
<polygon fill="lightgray" stroke="black" points="668.17,-274.49 636.17,-274.49 636.17,-256.49 668.17,-256.49 668.17,-274.49"/>
<text text-anchor="middle" x="652.17" y="-263.29" font-family="Times,serif" font-size="9.00">&#45;15</text>
</g>
<!-- &#45;16 -->
<g id="node16" class="node">
<title>&#45;16</title>
<polygon fill="lightgray" stroke="black" points="718.17,-274.49 686.17,-274.49 686.17,-256.49 718.17,-256.49 718.17,-274.49"/>
<text text-anchor="middle" x="702.17" y="-263.29" font-family="Times,serif" font-size="9.00">&#45;16</text>
</g>
<!-- &#45;17 -->
<g id="node17" class="node">
<title>&#45;17</title>
<polygon fill="lightgray" stroke="black" points="274.17,-106.52 242.17,-106.52 242.17,-88.52 274.17,-88.52 274.17,-106.52"/>
<text text-anchor="middle" x="258.17" y="-95.32" font-family="Times,serif" font-size="9.00">&#45;17</text>
</g>
<!-- &#45;17&#45;&gt;0 -->
<g id="edge8" class="edge">
<title>&#45;17&#45;&gt;0</title>
<path fill="none" stroke="green" stroke-width="0.5" stroke-dasharray="1,5" d="M251.57,-88.28C246.75,-82.47 239.9,-74.68 233.17,-68.53 218.35,-54.98 200.05,-41.52 186.02,-31.79"/>
<polygon fill="green" stroke="green" stroke-width="0.5" points="187.73,-28.72 177.5,-25.97 183.78,-34.5 187.73,-28.72"/>
</g>
<!-- &#45;18 -->
<g id="node18" class="node">
<title>&#45;18</title>
<polygon fill="lightgray" stroke="black" points="768.17,-274.49 736.17,-274.49 736.17,-256.49 768.17,-256.49 768.17,-274.49"/>
<text text-anchor="middle" x="752.17" y="-263.29" font-family="Times,serif" font-size="9.00">&#45;18</text>
</g>
<!-- &#45;19 -->
<g id="node19" class="node">
<title>&#45;19</title>
<polygon fill="lightgray" stroke="black" points="278.17,-274.49 246.17,-274.49 246.17,-256.49 278.17,-256.49 278.17,-274.49"/>
<text text-anchor="middle" x="262.17" y="-263.29" font-family="Times,serif" font-size="9.00">&#45;19</text>
</g>
<!-- &#45;19&#45;&gt;1 -->
<g id="edge4" class="edge">
<title>&#45;19&#45;&gt;1</title>
<path fill="none" stroke="green" stroke-width="0.43" stroke-dasharray="1,5" d="M261.71,-256.23C261.19,-246.97 260.33,-231.48 259.59,-218.09"/>
<polygon fill="green" stroke="green" stroke-width="0.43" points="263.08,-217.75 259.03,-207.96 256.09,-218.14 263.08,-217.75"/>
</g>
<!-- &#45;19&#45;&gt;2944 -->
<g id="edge14" class="edge">
<title>&#45;19&#45;&gt;2944</title>
<path fill="none" stroke="red" stroke-width="0.43" d="M268.94,-256.23C275.74,-247.93 286.64,-234.64 296.72,-222.33"/>
<polygon fill="red" stroke="red" stroke-width="0.43" points="299.55,-224.41 303.18,-214.45 294.13,-219.97 299.55,-224.41"/>
</g>
<!-- &#45;20 -->
<g id="node20" class="node">
<title>&#45;20</title>
<polygon fill="lightgray" stroke="black" points="818.17,-274.49 786.17,-274.49 786.17,-256.49 818.17,-256.49 818.17,-274.49"/>
<text text-anchor="middle" x="802.17" y="-263.29" font-family="Times,serif" font-size="9.00">&#45;20</text>
</g>
<!-- 2944&#45;&gt;0 -->
<g id="edge9" class="edge">
<title>2944&#45;&gt;0</title>
<path fill="none" stroke="green" stroke-width="0.32" d="M338.95,-168.56C357.88,-142.38 382.19,-98.39 359.17,-68.53 338.6,-41.85 238.76,-26.31 190.45,-20.24"/>
<polygon fill="green" stroke="green" stroke-width="0.32" points="190.78,-16.76 180.43,-19.03 189.94,-23.7 190.78,-16.76"/>
</g>
<!-- 2944&#45;&gt;3159 -->
<g id="edge12" class="edge">
<title>2944&#45;&gt;3159</title>
<path fill="none" stroke="green" stroke-width="0.3" d="M321.17,-162.4C321.17,-154.37 321.17,-145.46 321.17,-136.92"/>
<polygon fill="green" stroke="green" stroke-width="0.3" points="324.67,-136.76 321.17,-126.76 317.67,-136.76 324.67,-136.76"/>
</g>
<!-- 3159&#45;&gt;0 -->
<g id="edge13" class="edge">
<title>3159&#45;&gt;0</title>
<path fill="none" stroke="red" stroke-width="0.29" d="M298.83,-78.77C293.82,-75.16 288.43,-71.54 283.17,-68.53 252.09,-50.7 213.63,-35.22 189,-26.06"/>
<polygon fill="red" stroke="red" stroke-width="0.29" points="189.94,-22.68 179.35,-22.53 187.54,-29.25 189.94,-22.68"/>
</g>
</g>
</svg>
