<?xml version="1.0" encoding="UTF-8" standalone="no"?>
<!DOCTYPE svg PUBLIC "-//W3C//DTD SVG 1.1//EN"
 "http://www.w3.org/Graphics/SVG/1.1/DTD/svg11.dtd">
<!-- Generated by graphviz version 2.43.0 (0)
 -->
<!-- Title: %3 Pages: 1 -->
<svg width="639pt" height="314pt"
 viewBox="0.00 0.00 638.55 313.99" xmlns="http://www.w3.org/2000/svg" xmlns:xlink="http://www.w3.org/1999/xlink">
<g id="graph0" class="graph" transform="scale(1 1) rotate(0) translate(4 309.99)">
<title>%3</title>
<polygon fill="white" stroke="transparent" points="-4,4 -4,-309.99 634.55,-309.99 634.55,4 -4,4"/>
<!-- &#45;1 -->
<g id="node1" class="node">
<title>&#45;1</title>
<polygon fill="lightgray" stroke="black" points="60.55,-290.24 34.55,-290.24 34.55,-272.24 60.55,-272.24 60.55,-290.24"/>
<text text-anchor="middle" x="47.55" y="-279.04" font-family="Times,serif" font-size="9.00">&#45;1</text>
</g>
<!-- &#45;2 -->
<g id="node2" class="node">
<title>&#45;2</title>
<polygon fill="lightgray" stroke="black" points="104.55,-290.24 78.55,-290.24 78.55,-272.24 104.55,-272.24 104.55,-290.24"/>
<text text-anchor="middle" x="91.55" y="-279.04" font-family="Times,serif" font-size="9.00">&#45;2</text>
</g>
<!-- 0 -->
<g id="node13" class="node">
<title>0</title>
<ellipse fill="lightblue" stroke="black" cx="161.55" cy="-16.26" rx="16.03" ry="16.03"/>
<text text-anchor="middle" x="161.55" y="-14.06" font-family="Times,serif" font-size="9.00">0</text>
</g>
<!-- &#45;2&#45;&gt;0 -->
<g id="edge7" class="edge">
<title>&#45;2&#45;&gt;0</title>
<path fill="none" stroke="green" stroke-width="0.38" stroke-dasharray="1,5" d="M84.48,-272.06C80.29,-267.36 74.79,-261.42 69.55,-256.49 51.14,-239.18 36.37,-243.33 25.55,-220.49 -3.37,-159.46 -12.87,-124.07 25.55,-68.53 50.18,-32.92 102.9,-22.01 134.98,-18.69"/>
<polygon fill="green" stroke="green" stroke-width="0.38" points="135.34,-22.18 145,-17.83 134.74,-15.2 135.34,-22.18"/>
</g>
<!-- 1 -->
<g id="node14" class="node">
<title>1</title>
<ellipse fill="lightblue" stroke="black" cx="302.55" cy="-16.26" rx="16.03" ry="16.03"/>
<text text-anchor="middle" x="302.55" y="-14.06" font-family="Times,serif" font-size="9.00">1</text>
</g>
<!-- &#45;2&#45;&gt;1 -->
<g id="edge3" class="edge">
<title>&#45;2&#45;&gt;1</title>
<path fill="none" stroke="red" stroke-width="0.19" d="M104.55,-273.87C150.28,-251.18 302.27,-173.15 327.55,-126.51 342.64,-98.67 328.44,-62.07 316.09,-39.11"/>
<polygon fill="red" stroke="red" stroke-width="0.19" points="318.99,-37.13 311.01,-30.16 312.91,-40.59 318.99,-37.13"/>
</g>
<!-- 3809 -->
<g id="node16" class="node">
<title>3809</title>
<ellipse fill="white" stroke="black" cx="63.55" cy="-97.52" rx="28.98" ry="28.98"/>
<text text-anchor="middle" x="63.55" y="-95.32" font-family="Times,serif" font-size="9.00">3809</text>
</g>
<!-- &#45;2&#45;&gt;3809 -->
<g id="edge16" class="edge">
<title>&#45;2&#45;&gt;3809</title>
<path fill="none" stroke="green" stroke-width="0.18" stroke-dasharray="1,5" d="M94.16,-272.07C99.95,-252.67 112.52,-202.47 101.55,-162.51 98.38,-150.95 92.51,-139.36 86.32,-129.28"/>
<polygon fill="green" stroke="green" stroke-width="0.18" points="89.23,-127.34 80.86,-120.85 83.36,-131.15 89.23,-127.34"/>
</g>
<!-- 4038 -->
<g id="node17" class="node">
<title>4038</title>
<ellipse fill="white" stroke="black" cx="63.55" cy="-191.5" rx="28.98" ry="28.98"/>
<text text-anchor="middle" x="63.55" y="-189.3" font-family="Times,serif" font-size="9.00">4038</text>
</g>
<!-- &#45;2&#45;&gt;4038 -->
<g id="edge19" class="edge">
<title>&#45;2&#45;&gt;4038</title>
<path fill="none" stroke="green" stroke-width="0.18" d="M88.97,-272.14C85.83,-262.31 80.32,-245.05 75.23,-229.1"/>
<polygon fill="green" stroke="green" stroke-width="0.18" points="78.52,-227.88 72.14,-219.42 71.85,-230.01 78.52,-227.88"/>
</g>
<!-- &#45;3 -->
<g id="node3" class="node">
<title>&#45;3</title>
<polygon fill="lightgray" stroke="black" points="174.55,-106.52 148.55,-106.52 148.55,-88.52 174.55,-88.52 174.55,-106.52"/>
<text text-anchor="middle" x="161.55" y="-95.32" font-family="Times,serif" font-size="9.00">&#45;3</text>
</g>
<!-- &#45;3&#45;&gt;0 -->
<g id="edge6" class="edge">
<title>&#45;3&#45;&gt;0</title>
<path fill="none" stroke="red" stroke-width="0.34" d="M161.55,-88.34C161.55,-77.67 161.55,-58.51 161.55,-42.77"/>
<polygon fill="red" stroke="red" stroke-width="0.34" points="165.05,-42.57 161.55,-32.57 158.05,-42.57 165.05,-42.57"/>
</g>
<!-- &#45;3&#45;&gt;1 -->
<g id="edge10" class="edge">
<title>&#45;3&#45;&gt;1</title>
<path fill="none" stroke="red" stroke-width="0.27" stroke-dasharray="1,5" d="M166.45,-88.25C170.42,-82.13 176.5,-73.95 183.55,-68.53 212.23,-46.47 251.85,-31.89 277.33,-24.1"/>
<polygon fill="red" stroke="red" stroke-width="0.27" points="278.39,-27.44 287,-21.27 276.42,-20.72 278.39,-27.44"/>
</g>
<!-- &#45;4 -->
<g id="node4" class="node">
<title>&#45;4</title>
<polygon fill="lightgray" stroke="black" points="448.55,-290.24 422.55,-290.24 422.55,-272.24 448.55,-272.24 448.55,-290.24"/>
<text text-anchor="middle" x="435.55" y="-279.04" font-family="Times,serif" font-size="9.00">&#45;4</text>
</g>
<!-- &#45;5 -->
<g id="node5" class="node">
<title>&#45;5</title>
<polygon fill="lightgray" stroke="black" points="492.55,-290.24 466.55,-290.24 466.55,-272.24 492.55,-272.24 492.55,-290.24"/>
<text text-anchor="middle" x="479.55" y="-279.04" font-family="Times,serif" font-size="9.00">&#45;5</text>
</g>
<!-- &#45;6 -->
<g id="node6" class="node">
<title>&#45;6</title>
<polygon fill="lightgray" stroke="black" points="218.55,-106.52 192.55,-106.52 192.55,-88.52 218.55,-88.52 218.55,-106.52"/>
<text text-anchor="middle" x="205.55" y="-95.32" font-family="Times,serif" font-size="9.00">&#45;6</text>
</g>
<!-- &#45;6&#45;&gt;0 -->
<g id="edge11" class="edge">
<title>&#45;6&#45;&gt;0</title>
<path fill="none" stroke="red" stroke-width="0.21" d="M201.01,-88.34C194.69,-76.96 183.03,-55.95 174.01,-39.7"/>
<polygon fill="red" stroke="red" stroke-width="0.21" points="176.98,-37.85 169.07,-30.8 170.86,-41.25 176.98,-37.85"/>
</g>
<!-- &#45;6&#45;&gt;1 -->
<g id="edge1" class="edge">
<title>&#45;6&#45;&gt;1</title>
<path fill="none" stroke="red" stroke-width="0.26" stroke-dasharray="1,5" d="M210.94,-88.38C215.07,-82.48 221.14,-74.52 227.55,-68.53 243.48,-53.63 264.09,-39.86 279.67,-30.36"/>
<polygon fill="red" stroke="red" stroke-width="0.26" points="281.83,-33.14 288.63,-25.02 278.25,-27.13 281.83,-33.14"/>
</g>
<!-- &#45;7 -->
<g id="node7" class="node">
<title>&#45;7</title>
<polygon fill="lightgray" stroke="black" points="265.55,-290.24 239.55,-290.24 239.55,-272.24 265.55,-272.24 265.55,-290.24"/>
<text text-anchor="middle" x="252.55" y="-279.04" font-family="Times,serif" font-size="9.00">&#45;7</text>
</g>
<!-- &#45;7&#45;&gt;0 -->
<g id="edge9" class="edge">
<title>&#45;7&#45;&gt;0</title>
<path fill="none" stroke="green" stroke-width="0.41" d="M243.4,-272.05C220.44,-250.8 160.71,-191.03 139.55,-126.51 131.52,-102.02 134.36,-93.77 139.55,-68.53 141.56,-58.74 145.53,-48.51 149.54,-39.79"/>
<polygon fill="green" stroke="green" stroke-width="0.41" points="152.74,-41.21 154,-30.69 146.46,-38.14 152.74,-41.21"/>
</g>
<!-- 2272 -->
<g id="node15" class="node">
<title>2272</title>
<ellipse fill="white" stroke="black" cx="337.55" cy="-191.5" rx="28.98" ry="28.98"/>
<text text-anchor="middle" x="337.55" y="-189.3" font-family="Times,serif" font-size="9.00">2272</text>
</g>
<!-- &#45;7&#45;&gt;2272 -->
<g id="edge13" class="edge">
<title>&#45;7&#45;&gt;2272</title>
<path fill="none" stroke="green" stroke-width="0.19" d="M260.4,-272.14C271.69,-260.49 293.08,-238.41 310.48,-220.45"/>
<polygon fill="green" stroke="green" stroke-width="0.19" points="313.21,-222.66 317.65,-213.04 308.18,-217.79 313.21,-222.66"/>
</g>
<!-- &#45;8 -->
<g id="node8" class="node">
<title>&#45;8</title>
<polygon fill="lightgray" stroke="black" points="536.55,-290.24 510.55,-290.24 510.55,-272.24 536.55,-272.24 536.55,-290.24"/>
<text text-anchor="middle" x="523.55" y="-279.04" font-family="Times,serif" font-size="9.00">&#45;8</text>
</g>
<!-- &#45;9 -->
<g id="node9" class="node">
<title>&#45;9</title>
<polygon fill="lightgray" stroke="black" points="580.55,-290.24 554.55,-290.24 554.55,-272.24 580.55,-272.24 580.55,-290.24"/>
<text text-anchor="middle" x="567.55" y="-279.04" font-family="Times,serif" font-size="9.00">&#45;9</text>
</g>
<!-- &#45;10 -->
<g id="node10" class="node">
<title>&#45;10</title>
<polygon fill="lightgray" stroke="black" points="630.55,-290.24 598.55,-290.24 598.55,-272.24 630.55,-272.24 630.55,-290.24"/>
<text text-anchor="middle" x="614.55" y="-279.04" font-family="Times,serif" font-size="9.00">&#45;10</text>
</g>
<!-- &#45;11 -->
<g id="node11" class="node">
<title>&#45;11</title>
<polygon fill="lightgray" stroke="black" points="268.55,-106.52 236.55,-106.52 236.55,-88.52 268.55,-88.52 268.55,-106.52"/>
<text text-anchor="middle" x="252.55" y="-95.32" font-family="Times,serif" font-size="9.00">&#45;11</text>
</g>
<!-- &#45;11&#45;&gt;0 -->
<g id="edge5" class="edge">
<title>&#45;11&#45;&gt;0</title>
<path fill="none" stroke="green" stroke-width="1.12" stroke-dasharray="1,5" d="M245.91,-88.32C241.07,-82.54 234.22,-74.75 227.55,-68.53 213.37,-55.29 196,-41.89 182.64,-32.12"/>
<polygon fill="green" stroke="green" stroke-width="1.12" points="184.67,-29.27 174.51,-26.25 180.57,-34.94 184.67,-29.27"/>
</g>
<!-- &#45;11&#45;&gt;1 -->
<g id="edge8" class="edge">
<title>&#45;11&#45;&gt;1</title>
<path fill="none" stroke="red" stroke-width="0.11" d="M257.71,-88.34C264.93,-76.9 278.3,-55.7 288.57,-39.42"/>
<polygon fill="red" stroke="red" stroke-width="0.11" points="291.82,-40.84 294.19,-30.52 285.89,-37.11 291.82,-40.84"/>
</g>
<!-- &#45;12 -->
<g id="node12" class="node">
<title>&#45;12</title>
<polygon fill="lightgray" stroke="black" points="318.55,-106.52 286.55,-106.52 286.55,-88.52 318.55,-88.52 318.55,-106.52"/>
<text text-anchor="middle" x="302.55" y="-95.32" font-family="Times,serif" font-size="9.00">&#45;12</text>
</g>
<!-- &#45;12&#45;&gt;0 -->
<g id="edge2" class="edge">
<title>&#45;12&#45;&gt;0</title>
<path fill="none" stroke="green" stroke-width="0.84" d="M296.74,-88.3C292.1,-82.21 285.14,-74.05 277.55,-68.53 249.2,-47.9 211.23,-33.1 186.58,-24.86"/>
<polygon fill="green" stroke="green" stroke-width="0.84" points="187.49,-21.47 176.9,-21.73 185.34,-28.13 187.49,-21.47"/>
</g>
<!-- &#45;12&#45;&gt;1 -->
<g id="edge4" class="edge">
<title>&#45;12&#45;&gt;1</title>
<path fill="none" stroke="red" stroke-width="1.2" stroke-dasharray="1,5" d="M302.55,-88.34C302.55,-77.67 302.55,-58.51 302.55,-42.77"/>
<polygon fill="red" stroke="red" stroke-width="1.2" points="306.05,-42.57 302.55,-32.57 299.05,-42.57 306.05,-42.57"/>
</g>
<!-- 2272&#45;&gt;1 -->
<g id="edge14" class="edge">
<title>2272&#45;&gt;1</title>
<path fill="none" stroke="green" stroke-width="0.56" d="M350.81,-165.17C362.19,-139.75 374.72,-99.96 360.55,-68.53 353.28,-52.4 338.16,-39.31 325.17,-30.39"/>
<polygon fill="green" stroke="green" stroke-width="0.56" points="326.95,-27.37 316.65,-24.89 323.16,-33.25 326.95,-27.37"/>
</g>
<!-- 2272&#45;&gt;3809 -->
<g id="edge18" class="edge">
<title>2272&#45;&gt;3809</title>
<path fill="none" stroke="red" stroke-width="0.3" d="M309.89,-181.95C271.5,-169.99 199.99,-147.4 139.55,-126.51 126.65,-122.05 112.61,-116.95 100.15,-112.34"/>
<polygon fill="red" stroke="red" stroke-width="0.3" points="101.13,-108.97 90.54,-108.76 98.69,-115.53 101.13,-108.97"/>
</g>
<!-- 3809&#45;&gt;0 -->
<g id="edge17" class="edge">
<title>3809&#45;&gt;0</title>
<path fill="none" stroke="red" stroke-width="0.57" d="M85.79,-78.53C102.52,-65 125.27,-46.61 141.46,-33.51"/>
<polygon fill="red" stroke="red" stroke-width="0.57" points="143.69,-36.21 149.26,-27.2 139.28,-30.77 143.69,-36.21"/>
</g>
<!-- 4038&#45;&gt;3809 -->
<g id="edge20" class="edge">
<title>4038&#45;&gt;3809</title>
<path fill="none" stroke="red" stroke-width="0.18" d="M63.55,-162.4C63.55,-154.37 63.55,-145.46 63.55,-136.92"/>
<polygon fill="red" stroke="red" stroke-width="0.18" points="67.05,-136.76 63.55,-126.76 60.05,-136.76 67.05,-136.76"/>
</g>
<!-- 111 -->
<g id="node18" class="node">
<title>111</title>
<ellipse fill="white" stroke="black" cx="379.55" cy="-281.24" rx="25" ry="25"/>
<text text-anchor="middle" x="379.55" y="-279.04" font-family="Times,serif" font-size="9.00">111</text>
</g>
<!-- 111&#45;&gt;1 -->
<g id="edge12" class="edge">
<title>111&#45;&gt;1</title>
<path fill="none" stroke="green" stroke-width="0.46" stroke-dasharray="1,5" d="M386.03,-257.24C396.16,-216.45 411.4,-129.95 378.55,-68.53 367.72,-48.28 344.96,-34.57 327.15,-26.46"/>
<polygon fill="green" stroke="green" stroke-width="0.46" points="328.45,-23.21 317.88,-22.53 325.72,-29.65 328.45,-23.21"/>
</g>
<!-- 111&#45;&gt;2272 -->
<g id="edge15" class="edge">
<title>111&#45;&gt;2272</title>
<path fill="none" stroke="green" stroke-width="0.13" stroke-dasharray="1,5" d="M369.17,-258.55C364.62,-249.05 359.18,-237.67 354.09,-227.06"/>
<polygon fill="green" stroke="green" stroke-width="0.13" points="357.23,-225.5 349.75,-217.99 350.91,-228.52 357.23,-225.5"/>
</g>
</g>
</svg>
