<?xml version="1.0" encoding="UTF-8" standalone="no"?>
<!DOCTYPE svg PUBLIC "-//W3C//DTD SVG 1.1//EN"
 "http://www.w3.org/Graphics/SVG/1.1/DTD/svg11.dtd">
<!-- Generated by graphviz version 2.43.0 (0)
 -->
<!-- Title: %3 Pages: 1 -->
<svg width="536pt" height="95pt"
 viewBox="0.00 0.00 536.00 94.53" xmlns="http://www.w3.org/2000/svg" xmlns:xlink="http://www.w3.org/1999/xlink">
<g id="graph0" class="graph" transform="scale(1 1) rotate(0) translate(4 90.53)">
<title>%3</title>
<polygon fill="white" stroke="transparent" points="-4,4 -4,-90.53 532,-90.53 532,4 -4,4"/>
<!-- &#45;1 -->
<g id="node1" class="node">
<title>&#45;1</title>
<polygon fill="lightgray" stroke="black" points="296,-86.53 270,-86.53 270,-68.53 296,-68.53 296,-86.53"/>
<text text-anchor="middle" x="283" y="-75.33" font-family="Times,serif" font-size="9.00">&#45;1</text>
</g>
<!-- 0 -->
<g id="node13" class="node">
<title>0</title>
<ellipse fill="lightblue" stroke="black" cx="148" cy="-16.26" rx="16.03" ry="16.03"/>
<text text-anchor="middle" x="148" y="-14.06" font-family="Times,serif" font-size="9.00">0</text>
</g>
<!-- &#45;1&#45;&gt;0 -->
<g id="edge1" class="edge">
<title>&#45;1&#45;&gt;0</title>
<path fill="none" stroke="green" stroke-width="0.41" stroke-dasharray="1,5" d="M269.56,-70.63C246.77,-60.62 200.26,-40.2 171.83,-27.73"/>
<polygon fill="green" stroke="green" stroke-width="0.41" points="173.17,-24.49 162.6,-23.67 170.35,-30.9 173.17,-24.49"/>
</g>
<!-- 1 -->
<g id="node14" class="node">
<title>1</title>
<ellipse fill="lightblue" stroke="black" cx="261" cy="-16.26" rx="16.03" ry="16.03"/>
<text text-anchor="middle" x="261" y="-14.06" font-family="Times,serif" font-size="9.00">1</text>
</g>
<!-- &#45;1&#45;&gt;1 -->
<g id="edge9" class="edge">
<title>&#45;1&#45;&gt;1</title>
<path fill="none" stroke="red" stroke-width="0.17" d="M279.94,-68.29C277.35,-61.3 273.49,-50.91 269.94,-41.33"/>
<polygon fill="red" stroke="red" stroke-width="0.17" points="273.16,-39.97 266.4,-31.82 266.6,-42.41 273.16,-39.97"/>
</g>
<!-- &#45;2 -->
<g id="node2" class="node">
<title>&#45;2</title>
<polygon fill="lightgray" stroke="black" points="208,-86.53 182,-86.53 182,-68.53 208,-68.53 208,-86.53"/>
<text text-anchor="middle" x="195" y="-75.33" font-family="Times,serif" font-size="9.00">&#45;2</text>
</g>
<!-- &#45;2&#45;&gt;0 -->
<g id="edge4" class="edge">
<title>&#45;2&#45;&gt;0</title>
<path fill="none" stroke="red" stroke-width="0.18" d="M188.46,-68.29C182.18,-60.36 172.42,-48.05 164.06,-37.51"/>
<polygon fill="red" stroke="red" stroke-width="0.18" points="166.7,-35.21 157.75,-29.55 161.22,-39.56 166.7,-35.21"/>
</g>
<!-- &#45;3 -->
<g id="node3" class="node">
<title>&#45;3</title>
<polygon fill="lightgray" stroke="black" points="26,-86.53 0,-86.53 0,-68.53 26,-68.53 26,-86.53"/>
<text text-anchor="middle" x="13" y="-75.33" font-family="Times,serif" font-size="9.00">&#45;3</text>
</g>
<!-- &#45;3&#45;&gt;0 -->
<g id="edge7" class="edge">
<title>&#45;3&#45;&gt;0</title>
<path fill="none" stroke="red" stroke-width="0.6" d="M26.44,-70.63C49.23,-60.62 95.74,-40.2 124.17,-27.73"/>
<polygon fill="red" stroke="red" stroke-width="0.6" points="125.65,-30.9 133.4,-23.67 122.83,-24.49 125.65,-30.9"/>
</g>
<!-- &#45;4 -->
<g id="node4" class="node">
<title>&#45;4</title>
<polygon fill="lightgray" stroke="black" points="70,-86.53 44,-86.53 44,-68.53 70,-68.53 70,-86.53"/>
<text text-anchor="middle" x="57" y="-75.33" font-family="Times,serif" font-size="9.00">&#45;4</text>
</g>
<!-- &#45;4&#45;&gt;0 -->
<g id="edge5" class="edge">
<title>&#45;4&#45;&gt;0</title>
<path fill="none" stroke="green" stroke-width="0.51" d="M69.65,-68.29C84.21,-58.81 108.37,-43.07 126.02,-31.58"/>
<polygon fill="green" stroke="green" stroke-width="0.51" points="128.1,-34.4 134.57,-26.01 124.28,-28.54 128.1,-34.4"/>
</g>
<!-- &#45;5 -->
<g id="node5" class="node">
<title>&#45;5</title>
<polygon fill="lightgray" stroke="black" points="340,-86.53 314,-86.53 314,-68.53 340,-68.53 340,-86.53"/>
<text text-anchor="middle" x="327" y="-75.33" font-family="Times,serif" font-size="9.00">&#45;5</text>
</g>
<!-- &#45;6 -->
<g id="node6" class="node">
<title>&#45;6</title>
<polygon fill="lightgray" stroke="black" points="114,-86.53 88,-86.53 88,-68.53 114,-68.53 114,-86.53"/>
<text text-anchor="middle" x="101" y="-75.33" font-family="Times,serif" font-size="9.00">&#45;6</text>
</g>
<!-- &#45;6&#45;&gt;0 -->
<g id="edge3" class="edge">
<title>&#45;6&#45;&gt;0</title>
<path fill="none" stroke="green" stroke-width="0.42" d="M107.54,-68.29C113.82,-60.36 123.58,-48.05 131.94,-37.51"/>
<polygon fill="green" stroke="green" stroke-width="0.42" points="134.78,-39.56 138.25,-29.55 129.3,-35.21 134.78,-39.56"/>
</g>
<!-- &#45;7 -->
<g id="node7" class="node">
<title>&#45;7</title>
<polygon fill="lightgray" stroke="black" points="384,-86.53 358,-86.53 358,-68.53 384,-68.53 384,-86.53"/>
<text text-anchor="middle" x="371" y="-75.33" font-family="Times,serif" font-size="9.00">&#45;7</text>
</g>
<!-- &#45;8 -->
<g id="node8" class="node">
<title>&#45;8</title>
<polygon fill="lightgray" stroke="black" points="252,-86.53 226,-86.53 226,-68.53 252,-68.53 252,-86.53"/>
<text text-anchor="middle" x="239" y="-75.33" font-family="Times,serif" font-size="9.00">&#45;8</text>
</g>
<!-- &#45;8&#45;&gt;0 -->
<g id="edge6" class="edge">
<title>&#45;8&#45;&gt;0</title>
<path fill="none" stroke="green" stroke-width="0.47" d="M226.35,-68.29C211.79,-58.81 187.63,-43.07 169.98,-31.58"/>
<polygon fill="green" stroke="green" stroke-width="0.47" points="171.72,-28.54 161.43,-26.01 167.9,-34.4 171.72,-28.54"/>
</g>
<!-- &#45;8&#45;&gt;1 -->
<g id="edge10" class="edge">
<title>&#45;8&#45;&gt;1</title>
<path fill="none" stroke="red" stroke-width="0.61" d="M242.06,-68.29C244.65,-61.3 248.51,-50.91 252.06,-41.33"/>
<polygon fill="red" stroke="red" stroke-width="0.61" points="255.4,-42.41 255.6,-31.82 248.84,-39.97 255.4,-42.41"/>
</g>
<!-- &#45;9 -->
<g id="node9" class="node">
<title>&#45;9</title>
<polygon fill="lightgray" stroke="black" points="428,-86.53 402,-86.53 402,-68.53 428,-68.53 428,-86.53"/>
<text text-anchor="middle" x="415" y="-75.33" font-family="Times,serif" font-size="9.00">&#45;9</text>
</g>
<!-- &#45;10 -->
<g id="node10" class="node">
<title>&#45;10</title>
<polygon fill="lightgray" stroke="black" points="478,-86.53 446,-86.53 446,-68.53 478,-68.53 478,-86.53"/>
<text text-anchor="middle" x="462" y="-75.33" font-family="Times,serif" font-size="9.00">&#45;10</text>
</g>
<!-- &#45;11 -->
<g id="node11" class="node">
<title>&#45;11</title>
<polygon fill="lightgray" stroke="black" points="528,-86.53 496,-86.53 496,-68.53 528,-68.53 528,-86.53"/>
<text text-anchor="middle" x="512" y="-75.33" font-family="Times,serif" font-size="9.00">&#45;11</text>
</g>
<!-- &#45;12 -->
<g id="node12" class="node">
<title>&#45;12</title>
<polygon fill="lightgray" stroke="black" points="164,-86.53 132,-86.53 132,-68.53 164,-68.53 164,-86.53"/>
<text text-anchor="middle" x="148" y="-75.33" font-family="Times,serif" font-size="9.00">&#45;12</text>
</g>
<!-- &#45;12&#45;&gt;0 -->
<g id="edge2" class="edge">
<title>&#45;12&#45;&gt;0</title>
<path fill="none" stroke="red" stroke-width="0.2" stroke-dasharray="1,5" d="M148,-68.29C148,-61.7 148,-52.1 148,-43"/>
<polygon fill="red" stroke="red" stroke-width="0.2" points="151.5,-42.76 148,-32.76 144.5,-42.76 151.5,-42.76"/>
</g>
<!-- 1&#45;&gt;1 -->
<g id="edge8" class="edge">
<title>1&#45;&gt;1</title>
<path fill="none" stroke="green" stroke-width="0.92" d="M274.36,-26.06C284.71,-29.72 295.26,-26.46 295.26,-16.26 295.26,-9.57 290.72,-5.87 284.67,-5.14"/>
<polygon fill="green" stroke="green" stroke-width="0.92" points="283.84,-1.72 274.36,-6.47 284.73,-8.67 283.84,-1.72"/>
</g>
</g>
</svg>
