<?xml version="1.0" encoding="UTF-8" standalone="no"?>
<!DOCTYPE svg PUBLIC "-//W3C//DTD SVG 1.1//EN"
 "http://www.w3.org/Graphics/SVG/1.1/DTD/svg11.dtd">
<!-- Generated by graphviz version 2.43.0 (0)
 -->
<!-- Title: %3 Pages: 1 -->
<svg width="536pt" height="95pt"
 viewBox="0.00 0.00 536.00 94.53" xmlns="http://www.w3.org/2000/svg" xmlns:xlink="http://www.w3.org/1999/xlink">
<g id="graph0" class="graph" transform="scale(1 1) rotate(0) translate(4 90.53)">
<title>%3</title>
<polygon fill="white" stroke="transparent" points="-4,4 -4,-90.53 532,-90.53 532,4 -4,4"/>
<!-- &#45;1 -->
<g id="node1" class="node">
<title>&#45;1</title>
<polygon fill="lightgray" stroke="black" points="158,-86.53 132,-86.53 132,-68.53 158,-68.53 158,-86.53"/>
<text text-anchor="middle" x="145" y="-75.33" font-family="Times,serif" font-size="9.00">&#45;1</text>
</g>
<!-- 0 -->
<g id="node13" class="node">
<title>0</title>
<ellipse fill="lightblue" stroke="black" cx="101" cy="-16.26" rx="16.03" ry="16.03"/>
<text text-anchor="middle" x="101" y="-14.06" font-family="Times,serif" font-size="9.00">0</text>
</g>
<!-- &#45;1&#45;&gt;0 -->
<g id="edge8" class="edge">
<title>&#45;1&#45;&gt;0</title>
<path fill="none" stroke="green" stroke-width="0.41" d="M138.88,-68.29C133.13,-60.53 124.27,-48.6 116.56,-38.22"/>
<polygon fill="green" stroke="green" stroke-width="0.41" points="119.22,-35.94 110.45,-30 113.6,-40.11 119.22,-35.94"/>
</g>
<!-- 1 -->
<g id="node14" class="node">
<title>1</title>
<ellipse fill="lightblue" stroke="black" cx="233" cy="-16.26" rx="16.03" ry="16.03"/>
<text text-anchor="middle" x="233" y="-14.06" font-family="Times,serif" font-size="9.00">1</text>
</g>
<!-- &#45;1&#45;&gt;1 -->
<g id="edge5" class="edge">
<title>&#45;1&#45;&gt;1</title>
<path fill="none" stroke="green" stroke-width="0.81" d="M157.24,-68.29C171.1,-58.95 193.98,-43.54 210.98,-32.09"/>
<polygon fill="green" stroke="green" stroke-width="0.81" points="213.38,-34.7 219.72,-26.21 209.47,-28.89 213.38,-34.7"/>
</g>
<!-- &#45;2 -->
<g id="node2" class="node">
<title>&#45;2</title>
<polygon fill="lightgray" stroke="black" points="26,-86.53 0,-86.53 0,-68.53 26,-68.53 26,-86.53"/>
<text text-anchor="middle" x="13" y="-75.33" font-family="Times,serif" font-size="9.00">&#45;2</text>
</g>
<!-- &#45;2&#45;&gt;0 -->
<g id="edge6" class="edge">
<title>&#45;2&#45;&gt;0</title>
<path fill="none" stroke="red" stroke-width="0.27" d="M25.24,-68.29C39.1,-58.95 61.98,-43.54 78.98,-32.09"/>
<polygon fill="red" stroke="red" stroke-width="0.27" points="81.38,-34.7 87.72,-26.21 77.47,-28.89 81.38,-34.7"/>
</g>
<!-- &#45;3 -->
<g id="node3" class="node">
<title>&#45;3</title>
<polygon fill="lightgray" stroke="black" points="246,-86.53 220,-86.53 220,-68.53 246,-68.53 246,-86.53"/>
<text text-anchor="middle" x="233" y="-75.33" font-family="Times,serif" font-size="9.00">&#45;3</text>
</g>
<!-- &#45;3&#45;&gt;1 -->
<g id="edge10" class="edge">
<title>&#45;3&#45;&gt;1</title>
<path fill="none" stroke="green" stroke-width="0.25" d="M233,-68.29C233,-61.7 233,-52.1 233,-43"/>
<polygon fill="green" stroke="green" stroke-width="0.25" points="236.5,-42.76 233,-32.76 229.5,-42.76 236.5,-42.76"/>
</g>
<!-- &#45;4 -->
<g id="node4" class="node">
<title>&#45;4</title>
<polygon fill="lightgray" stroke="black" points="70,-86.53 44,-86.53 44,-68.53 70,-68.53 70,-86.53"/>
<text text-anchor="middle" x="57" y="-75.33" font-family="Times,serif" font-size="9.00">&#45;4</text>
</g>
<!-- &#45;4&#45;&gt;0 -->
<g id="edge9" class="edge">
<title>&#45;4&#45;&gt;0</title>
<path fill="none" stroke="green" stroke-width="0.96" d="M63.12,-68.29C68.87,-60.53 77.73,-48.6 85.44,-38.22"/>
<polygon fill="green" stroke="green" stroke-width="0.96" points="88.4,-40.11 91.55,-30 82.78,-35.94 88.4,-40.11"/>
</g>
<!-- &#45;5 -->
<g id="node5" class="node">
<title>&#45;5</title>
<polygon fill="lightgray" stroke="black" points="384,-86.53 358,-86.53 358,-68.53 384,-68.53 384,-86.53"/>
<text text-anchor="middle" x="371" y="-75.33" font-family="Times,serif" font-size="9.00">&#45;5</text>
</g>
<!-- &#45;6 -->
<g id="node6" class="node">
<title>&#45;6</title>
<polygon fill="lightgray" stroke="black" points="202,-86.53 176,-86.53 176,-68.53 202,-68.53 202,-86.53"/>
<text text-anchor="middle" x="189" y="-75.33" font-family="Times,serif" font-size="9.00">&#45;6</text>
</g>
<!-- &#45;6&#45;&gt;0 -->
<g id="edge1" class="edge">
<title>&#45;6&#45;&gt;0</title>
<path fill="none" stroke="red" stroke-width="0.22" d="M176.76,-68.29C162.9,-58.95 140.02,-43.54 123.02,-32.09"/>
<polygon fill="red" stroke="red" stroke-width="0.22" points="124.53,-28.89 114.28,-26.21 120.62,-34.7 124.53,-28.89"/>
</g>
<!-- &#45;6&#45;&gt;1 -->
<g id="edge7" class="edge">
<title>&#45;6&#45;&gt;1</title>
<path fill="none" stroke="green" stroke-width="0.12" stroke-dasharray="1,5" d="M195.12,-68.29C200.87,-60.53 209.73,-48.6 217.44,-38.22"/>
<polygon fill="green" stroke="green" stroke-width="0.12" points="220.4,-40.11 223.55,-30 214.78,-35.94 220.4,-40.11"/>
</g>
<!-- &#45;7 -->
<g id="node7" class="node">
<title>&#45;7</title>
<polygon fill="lightgray" stroke="black" points="114,-86.53 88,-86.53 88,-68.53 114,-68.53 114,-86.53"/>
<text text-anchor="middle" x="101" y="-75.33" font-family="Times,serif" font-size="9.00">&#45;7</text>
</g>
<!-- &#45;7&#45;&gt;0 -->
<g id="edge3" class="edge">
<title>&#45;7&#45;&gt;0</title>
<path fill="none" stroke="green" stroke-width="0.41" d="M101,-68.29C101,-61.7 101,-52.1 101,-43"/>
<polygon fill="green" stroke="green" stroke-width="0.41" points="104.5,-42.76 101,-32.76 97.5,-42.76 104.5,-42.76"/>
</g>
<!-- &#45;8 -->
<g id="node8" class="node">
<title>&#45;8</title>
<polygon fill="lightgray" stroke="black" points="428,-86.53 402,-86.53 402,-68.53 428,-68.53 428,-86.53"/>
<text text-anchor="middle" x="415" y="-75.33" font-family="Times,serif" font-size="9.00">&#45;8</text>
</g>
<!-- &#45;9 -->
<g id="node9" class="node">
<title>&#45;9</title>
<polygon fill="lightgray" stroke="black" points="290,-86.53 264,-86.53 264,-68.53 290,-68.53 290,-86.53"/>
<text text-anchor="middle" x="277" y="-75.33" font-family="Times,serif" font-size="9.00">&#45;9</text>
</g>
<!-- &#45;9&#45;&gt;1 -->
<g id="edge4" class="edge">
<title>&#45;9&#45;&gt;1</title>
<path fill="none" stroke="red" stroke-width="0.18" d="M270.88,-68.29C265.13,-60.53 256.27,-48.6 248.56,-38.22"/>
<polygon fill="red" stroke="red" stroke-width="0.18" points="251.22,-35.94 242.45,-30 245.6,-40.11 251.22,-35.94"/>
</g>
<!-- &#45;10 -->
<g id="node10" class="node">
<title>&#45;10</title>
<polygon fill="lightgray" stroke="black" points="478,-86.53 446,-86.53 446,-68.53 478,-68.53 478,-86.53"/>
<text text-anchor="middle" x="462" y="-75.33" font-family="Times,serif" font-size="9.00">&#45;10</text>
</g>
<!-- &#45;11 -->
<g id="node11" class="node">
<title>&#45;11</title>
<polygon fill="lightgray" stroke="black" points="528,-86.53 496,-86.53 496,-68.53 528,-68.53 528,-86.53"/>
<text text-anchor="middle" x="512" y="-75.33" font-family="Times,serif" font-size="9.00">&#45;11</text>
</g>
<!-- &#45;12 -->
<g id="node12" class="node">
<title>&#45;12</title>
<polygon fill="lightgray" stroke="black" points="340,-86.53 308,-86.53 308,-68.53 340,-68.53 340,-86.53"/>
<text text-anchor="middle" x="324" y="-75.33" font-family="Times,serif" font-size="9.00">&#45;12</text>
</g>
<!-- &#45;12&#45;&gt;1 -->
<g id="edge2" class="edge">
<title>&#45;12&#45;&gt;1</title>
<path fill="none" stroke="red" stroke-width="0.25" d="M311.35,-68.29C296.79,-58.81 272.63,-43.07 254.98,-31.58"/>
<polygon fill="red" stroke="red" stroke-width="0.25" points="256.72,-28.54 246.43,-26.01 252.9,-34.4 256.72,-28.54"/>
</g>
</g>
</svg>
