<?xml version="1.0" encoding="UTF-8" standalone="no"?>
<!DOCTYPE svg PUBLIC "-//W3C//DTD SVG 1.1//EN"
 "http://www.w3.org/Graphics/SVG/1.1/DTD/svg11.dtd">
<!-- Generated by graphviz version 2.43.0 (0)
 -->
<!-- Title: %3 Pages: 1 -->
<svg width="536pt" height="95pt"
 viewBox="0.00 0.00 536.00 94.53" xmlns="http://www.w3.org/2000/svg" xmlns:xlink="http://www.w3.org/1999/xlink">
<g id="graph0" class="graph" transform="scale(1 1) rotate(0) translate(4 90.53)">
<title>%3</title>
<polygon fill="white" stroke="transparent" points="-4,4 -4,-90.53 532,-90.53 532,4 -4,4"/>
<!-- &#45;1 -->
<g id="node1" class="node">
<title>&#45;1</title>
<polygon fill="lightgray" stroke="black" points="26,-86.53 0,-86.53 0,-68.53 26,-68.53 26,-86.53"/>
<text text-anchor="middle" x="13" y="-75.33" font-family="Times,serif" font-size="9.00">&#45;1</text>
</g>
<!-- 1 -->
<g id="node14" class="node">
<title>1</title>
<ellipse fill="lightblue" stroke="black" cx="167" cy="-16.26" rx="16.03" ry="16.03"/>
<text text-anchor="middle" x="167" y="-14.06" font-family="Times,serif" font-size="9.00">1</text>
</g>
<!-- &#45;1&#45;&gt;1 -->
<g id="edge8" class="edge">
<title>&#45;1&#45;&gt;1</title>
<path fill="none" stroke="red" stroke-width="0.27" d="M26.13,-71.47C51.97,-61.53 109.77,-39.29 142.74,-26.6"/>
<polygon fill="red" stroke="red" stroke-width="0.27" points="144.04,-29.85 152.11,-22.99 141.52,-23.32 144.04,-29.85"/>
</g>
<!-- &#45;2 -->
<g id="node2" class="node">
<title>&#45;2</title>
<polygon fill="lightgray" stroke="black" points="390,-86.53 364,-86.53 364,-68.53 390,-68.53 390,-86.53"/>
<text text-anchor="middle" x="377" y="-75.33" font-family="Times,serif" font-size="9.00">&#45;2</text>
</g>
<!-- 0 -->
<g id="node13" class="node">
<title>0</title>
<ellipse fill="lightblue" stroke="black" cx="377" cy="-16.26" rx="16.03" ry="16.03"/>
<text text-anchor="middle" x="377" y="-14.06" font-family="Times,serif" font-size="9.00">0</text>
</g>
<!-- &#45;2&#45;&gt;0 -->
<g id="edge11" class="edge">
<title>&#45;2&#45;&gt;0</title>
<path fill="none" stroke="green" stroke-width="0.41" d="M377,-68.29C377,-61.7 377,-52.1 377,-43"/>
<polygon fill="green" stroke="green" stroke-width="0.41" points="380.5,-42.76 377,-32.76 373.5,-42.76 380.5,-42.76"/>
</g>
<!-- &#45;3 -->
<g id="node3" class="node">
<title>&#45;3</title>
<polygon fill="lightgray" stroke="black" points="70,-86.53 44,-86.53 44,-68.53 70,-68.53 70,-86.53"/>
<text text-anchor="middle" x="57" y="-75.33" font-family="Times,serif" font-size="9.00">&#45;3</text>
</g>
<!-- &#45;3&#45;&gt;1 -->
<g id="edge1" class="edge">
<title>&#45;3&#45;&gt;1</title>
<path fill="none" stroke="red" stroke-width="0.18" d="M70.05,-69.5C88.28,-59.68 121.63,-41.71 144.06,-29.62"/>
<polygon fill="red" stroke="red" stroke-width="0.18" points="145.78,-32.67 152.93,-24.85 142.46,-26.51 145.78,-32.67"/>
</g>
<!-- &#45;4 -->
<g id="node4" class="node">
<title>&#45;4</title>
<polygon fill="lightgray" stroke="black" points="114,-86.53 88,-86.53 88,-68.53 114,-68.53 114,-86.53"/>
<text text-anchor="middle" x="101" y="-75.33" font-family="Times,serif" font-size="9.00">&#45;4</text>
</g>
<!-- &#45;4&#45;&gt;1 -->
<g id="edge2" class="edge">
<title>&#45;4&#45;&gt;1</title>
<path fill="none" stroke="green" stroke-width="0.41" stroke-dasharray="1,5" d="M110.18,-68.29C119.82,-59.62 135.29,-45.74 147.65,-34.64"/>
<polygon fill="green" stroke="green" stroke-width="0.41" points="150.13,-37.12 155.23,-27.83 145.45,-31.91 150.13,-37.12"/>
</g>
<!-- &#45;5 -->
<g id="node5" class="node">
<title>&#45;5</title>
<polygon fill="lightgray" stroke="black" points="478,-86.53 452,-86.53 452,-68.53 478,-68.53 478,-86.53"/>
<text text-anchor="middle" x="465" y="-75.33" font-family="Times,serif" font-size="9.00">&#45;5</text>
</g>
<!-- &#45;6 -->
<g id="node6" class="node">
<title>&#45;6</title>
<polygon fill="lightgray" stroke="black" points="434,-86.53 408,-86.53 408,-68.53 434,-68.53 434,-86.53"/>
<text text-anchor="middle" x="421" y="-75.33" font-family="Times,serif" font-size="9.00">&#45;6</text>
</g>
<!-- &#45;6&#45;&gt;0 -->
<g id="edge12" class="edge">
<title>&#45;6&#45;&gt;0</title>
<path fill="none" stroke="green" stroke-width="0.34" stroke-dasharray="1,5" d="M414.88,-68.29C409.13,-60.53 400.27,-48.6 392.56,-38.22"/>
<polygon fill="green" stroke="green" stroke-width="0.34" points="395.22,-35.94 386.45,-30 389.6,-40.11 395.22,-35.94"/>
</g>
<!-- &#45;7 -->
<g id="node7" class="node">
<title>&#45;7</title>
<polygon fill="lightgray" stroke="black" points="158,-86.53 132,-86.53 132,-68.53 158,-68.53 158,-86.53"/>
<text text-anchor="middle" x="145" y="-75.33" font-family="Times,serif" font-size="9.00">&#45;7</text>
</g>
<!-- &#45;7&#45;&gt;1 -->
<g id="edge6" class="edge">
<title>&#45;7&#45;&gt;1</title>
<path fill="none" stroke="red" stroke-width="0.36" stroke-dasharray="1,5" d="M148.06,-68.29C150.65,-61.3 154.51,-50.91 158.06,-41.33"/>
<polygon fill="red" stroke="red" stroke-width="0.36" points="161.4,-42.41 161.6,-31.82 154.84,-39.97 161.4,-42.41"/>
</g>
<!-- &#45;8 -->
<g id="node8" class="node">
<title>&#45;8</title>
<polygon fill="lightgray" stroke="black" points="346,-86.53 320,-86.53 320,-68.53 346,-68.53 346,-86.53"/>
<text text-anchor="middle" x="333" y="-75.33" font-family="Times,serif" font-size="9.00">&#45;8</text>
</g>
<!-- &#45;8&#45;&gt;0 -->
<g id="edge10" class="edge">
<title>&#45;8&#45;&gt;0</title>
<path fill="none" stroke="green" stroke-width="0.19" d="M339.12,-68.29C344.87,-60.53 353.73,-48.6 361.44,-38.22"/>
<polygon fill="green" stroke="green" stroke-width="0.19" points="364.4,-40.11 367.55,-30 358.78,-35.94 364.4,-40.11"/>
</g>
<!-- &#45;8&#45;&gt;1 -->
<g id="edge4" class="edge">
<title>&#45;8&#45;&gt;1</title>
<path fill="none" stroke="green" stroke-width="1.28" stroke-dasharray="1,5" d="M319.98,-71.77C317.03,-70.7 313.91,-69.57 311,-68.53 269.19,-53.48 220.47,-36.19 191.77,-26.02"/>
<polygon fill="green" stroke="green" stroke-width="1.28" points="192.74,-22.66 182.15,-22.62 190.41,-29.25 192.74,-22.66"/>
</g>
<!-- &#45;9 -->
<g id="node9" class="node">
<title>&#45;9</title>
<polygon fill="lightgray" stroke="black" points="202,-86.53 176,-86.53 176,-68.53 202,-68.53 202,-86.53"/>
<text text-anchor="middle" x="189" y="-75.33" font-family="Times,serif" font-size="9.00">&#45;9</text>
</g>
<!-- &#45;9&#45;&gt;1 -->
<g id="edge9" class="edge">
<title>&#45;9&#45;&gt;1</title>
<path fill="none" stroke="red" stroke-width="0.11" stroke-dasharray="1,5" d="M185.94,-68.29C183.35,-61.3 179.49,-50.91 175.94,-41.33"/>
<polygon fill="red" stroke="red" stroke-width="0.11" points="179.16,-39.97 172.4,-31.82 172.6,-42.41 179.16,-39.97"/>
</g>
<!-- &#45;10 -->
<g id="node10" class="node">
<title>&#45;10</title>
<polygon fill="lightgray" stroke="black" points="528,-86.53 496,-86.53 496,-68.53 528,-68.53 528,-86.53"/>
<text text-anchor="middle" x="512" y="-75.33" font-family="Times,serif" font-size="9.00">&#45;10</text>
</g>
<!-- &#45;11 -->
<g id="node11" class="node">
<title>&#45;11</title>
<polygon fill="lightgray" stroke="black" points="252,-86.53 220,-86.53 220,-68.53 252,-68.53 252,-86.53"/>
<text text-anchor="middle" x="236" y="-75.33" font-family="Times,serif" font-size="9.00">&#45;11</text>
</g>
<!-- &#45;11&#45;&gt;1 -->
<g id="edge5" class="edge">
<title>&#45;11&#45;&gt;1</title>
<path fill="none" stroke="red" stroke-width="0.36" d="M226.41,-68.29C216.32,-59.62 200.16,-45.74 187.23,-34.64"/>
<polygon fill="red" stroke="red" stroke-width="0.36" points="189.17,-31.69 179.31,-27.83 184.61,-37 189.17,-31.69"/>
</g>
<!-- &#45;12 -->
<g id="node12" class="node">
<title>&#45;12</title>
<polygon fill="lightgray" stroke="black" points="302,-86.53 270,-86.53 270,-68.53 302,-68.53 302,-86.53"/>
<text text-anchor="middle" x="286" y="-75.33" font-family="Times,serif" font-size="9.00">&#45;12</text>
</g>
<!-- &#45;12&#45;&gt;1 -->
<g id="edge3" class="edge">
<title>&#45;12&#45;&gt;1</title>
<path fill="none" stroke="green" stroke-width="0.2" d="M269.95,-68.53C249.52,-58.36 214.07,-40.7 190.57,-29"/>
<polygon fill="green" stroke="green" stroke-width="0.2" points="191.82,-25.71 181.31,-24.39 188.7,-31.98 191.82,-25.71"/>
</g>
<!-- 1&#45;&gt;1 -->
<g id="edge7" class="edge">
<title>1&#45;&gt;1</title>
<path fill="none" stroke="red" stroke-width="0.77" d="M180.36,-26.06C190.71,-29.72 201.26,-26.46 201.26,-16.26 201.26,-9.57 196.72,-5.87 190.67,-5.14"/>
<polygon fill="red" stroke="red" stroke-width="0.77" points="189.84,-1.72 180.36,-6.47 190.73,-8.67 189.84,-1.72"/>
</g>
</g>
</svg>
