<?xml version="1.0" encoding="UTF-8" standalone="no"?>
<!DOCTYPE svg PUBLIC "-//W3C//DTD SVG 1.1//EN"
 "http://www.w3.org/Graphics/SVG/1.1/DTD/svg11.dtd">
<!-- Generated by graphviz version 2.43.0 (0)
 -->
<!-- Title: %3 Pages: 1 -->
<svg width="502pt" height="257pt"
 viewBox="0.00 0.00 502.00 257.04" xmlns="http://www.w3.org/2000/svg" xmlns:xlink="http://www.w3.org/1999/xlink">
<g id="graph0" class="graph" transform="scale(1 1) rotate(0) translate(4 253.04)">
<title>%3</title>
<polygon fill="white" stroke="transparent" points="-4,4 -4,-253.04 498,-253.04 498,4 -4,4"/>
<!-- &#45;1 -->
<g id="node1" class="node">
<title>&#45;1</title>
<polygon fill="lightgray" stroke="black" points="26,-179.29 0,-179.29 0,-161.29 26,-161.29 26,-179.29"/>
<text text-anchor="middle" x="13" y="-168.09" font-family="Times,serif" font-size="9.00">&#45;1</text>
</g>
<!-- 1 -->
<g id="node14" class="node">
<title>1</title>
<ellipse fill="lightblue" stroke="black" cx="98" cy="-93.28" rx="16.03" ry="16.03"/>
<text text-anchor="middle" x="98" y="-91.08" font-family="Times,serif" font-size="9.00">1</text>
</g>
<!-- &#45;1&#45;&gt;1 -->
<g id="edge3" class="edge">
<title>&#45;1&#45;&gt;1</title>
<path fill="none" stroke="green" stroke-width="0.3" d="M20.06,-161.1C24.25,-156.4 29.75,-150.46 35,-145.54 48.37,-133 64.41,-119.98 76.96,-110.19"/>
<polygon fill="green" stroke="green" stroke-width="0.3" points="79.23,-112.86 85.01,-103.98 74.95,-107.32 79.23,-112.86"/>
</g>
<!-- &#45;2 -->
<g id="node2" class="node">
<title>&#45;2</title>
<polygon fill="lightgray" stroke="black" points="70,-179.29 44,-179.29 44,-161.29 70,-161.29 70,-179.29"/>
<text text-anchor="middle" x="57" y="-168.09" font-family="Times,serif" font-size="9.00">&#45;2</text>
</g>
<!-- &#45;2&#45;&gt;1 -->
<g id="edge18" class="edge">
<title>&#45;2&#45;&gt;1</title>
<path fill="none" stroke="red" stroke-width="0.14" d="M61.39,-161.26C67.12,-150.78 77.38,-132.01 85.58,-117"/>
<polygon fill="red" stroke="red" stroke-width="0.14" points="88.88,-118.25 90.61,-107.8 82.74,-114.9 88.88,-118.25"/>
</g>
<!-- &#45;3 -->
<g id="node3" class="node">
<title>&#45;3</title>
<polygon fill="lightgray" stroke="black" points="263,-249.04 237,-249.04 237,-231.04 263,-231.04 263,-249.04"/>
<text text-anchor="middle" x="250" y="-237.84" font-family="Times,serif" font-size="9.00">&#45;3</text>
</g>
<!-- 0 -->
<g id="node13" class="node">
<title>0</title>
<ellipse fill="lightblue" stroke="black" cx="346" cy="-93.28" rx="16.03" ry="16.03"/>
<text text-anchor="middle" x="346" y="-91.08" font-family="Times,serif" font-size="9.00">0</text>
</g>
<!-- &#45;3&#45;&gt;0 -->
<g id="edge1" class="edge">
<title>&#45;3&#45;&gt;0</title>
<path fill="none" stroke="red" stroke-width="0.27" d="M249.43,-231C248.63,-213.79 248.89,-172.73 267,-145.54 280.08,-125.9 303.51,-112.12 321.47,-103.83"/>
<polygon fill="red" stroke="red" stroke-width="0.27" points="323,-106.97 330.78,-99.78 320.21,-100.55 323,-106.97"/>
</g>
<!-- 44 -->
<g id="node15" class="node">
<title>44</title>
<ellipse fill="white" stroke="black" cx="297" cy="-170.29" rx="20.51" ry="20.51"/>
<text text-anchor="middle" x="297" y="-168.09" font-family="Times,serif" font-size="9.00">44</text>
</g>
<!-- &#45;3&#45;&gt;44 -->
<g id="edge14" class="edge">
<title>&#45;3&#45;&gt;44</title>
<path fill="none" stroke="red" stroke-width="0.91" d="M255.58,-231C261.52,-222.42 271.24,-208.41 279.77,-196.12"/>
<polygon fill="red" stroke="red" stroke-width="0.91" points="282.88,-197.78 285.7,-187.57 277.13,-193.79 282.88,-197.78"/>
</g>
<!-- &#45;4 -->
<g id="node4" class="node">
<title>&#45;4</title>
<polygon fill="lightgray" stroke="black" points="378,-249.04 352,-249.04 352,-231.04 378,-231.04 378,-249.04"/>
<text text-anchor="middle" x="365" y="-237.84" font-family="Times,serif" font-size="9.00">&#45;4</text>
</g>
<!-- &#45;5 -->
<g id="node5" class="node">
<title>&#45;5</title>
<polygon fill="lightgray" stroke="black" points="334,-249.04 308,-249.04 308,-231.04 334,-231.04 334,-249.04"/>
<text text-anchor="middle" x="321" y="-237.84" font-family="Times,serif" font-size="9.00">&#45;5</text>
</g>
<!-- &#45;5&#45;&gt;0 -->
<g id="edge2" class="edge">
<title>&#45;5&#45;&gt;0</title>
<path fill="none" stroke="green" stroke-width="0.19" stroke-dasharray="1,5" d="M322.42,-230.84C326.07,-209.68 335.93,-152.58 341.68,-119.29"/>
<polygon fill="green" stroke="green" stroke-width="0.19" points="345.14,-119.85 343.39,-109.4 338.24,-118.66 345.14,-119.85"/>
</g>
<!-- &#45;5&#45;&gt;44 -->
<g id="edge12" class="edge">
<title>&#45;5&#45;&gt;44</title>
<path fill="none" stroke="green" stroke-width="0.52" stroke-dasharray="1,5" d="M318.15,-231C315.39,-223.19 311.02,-210.88 306.98,-199.45"/>
<polygon fill="green" stroke="green" stroke-width="0.52" points="310.19,-198.04 303.55,-189.78 303.59,-200.37 310.19,-198.04"/>
</g>
<!-- &#45;6 -->
<g id="node6" class="node">
<title>&#45;6</title>
<polygon fill="lightgray" stroke="black" points="138,-249.04 112,-249.04 112,-231.04 138,-231.04 138,-249.04"/>
<text text-anchor="middle" x="125" y="-237.84" font-family="Times,serif" font-size="9.00">&#45;6</text>
</g>
<!-- &#45;6&#45;&gt;1 -->
<g id="edge9" class="edge">
<title>&#45;6&#45;&gt;1</title>
<path fill="none" stroke="green" stroke-width="0.34" stroke-dasharray="1,5" d="M123.47,-230.84C119.53,-209.68 108.87,-152.58 102.67,-119.29"/>
<polygon fill="green" stroke="green" stroke-width="0.34" points="106.1,-118.59 100.82,-109.4 99.21,-119.87 106.1,-118.59"/>
</g>
<!-- 338 -->
<g id="node16" class="node">
<title>338</title>
<ellipse fill="white" stroke="black" cx="151" cy="-170.29" rx="25" ry="25"/>
<text text-anchor="middle" x="151" y="-168.09" font-family="Times,serif" font-size="9.00">338</text>
</g>
<!-- &#45;6&#45;&gt;338 -->
<g id="edge16" class="edge">
<title>&#45;6&#45;&gt;338</title>
<path fill="none" stroke="green" stroke-width="0.21" d="M128.08,-231C130.78,-223.97 134.88,-213.28 138.88,-202.88"/>
<polygon fill="green" stroke="green" stroke-width="0.21" points="142.15,-204.12 142.47,-193.53 135.62,-201.61 142.15,-204.12"/>
</g>
<!-- &#45;7 -->
<g id="node7" class="node">
<title>&#45;7</title>
<polygon fill="lightgray" stroke="black" points="220,-179.29 194,-179.29 194,-161.29 220,-161.29 220,-179.29"/>
<text text-anchor="middle" x="207" y="-168.09" font-family="Times,serif" font-size="9.00">&#45;7</text>
</g>
<!-- &#45;7&#45;&gt;0 -->
<g id="edge7" class="edge">
<title>&#45;7&#45;&gt;0</title>
<path fill="none" stroke="green" stroke-width="0.8" d="M215,-161.13C220.12,-156.2 227.09,-150.02 234,-145.54 262.13,-127.29 297.82,-112.17 321.25,-103.18"/>
<polygon fill="green" stroke="green" stroke-width="0.8" points="322.65,-106.4 330.79,-99.61 320.19,-99.84 322.65,-106.4"/>
</g>
<!-- &#45;7&#45;&gt;1 -->
<g id="edge10" class="edge">
<title>&#45;7&#45;&gt;1</title>
<path fill="none" stroke="red" stroke-width="0.26" d="M200.58,-161.25C196.45,-156.36 190.78,-150.19 185,-145.54 165.09,-129.51 139.64,-115.11 121.42,-105.68"/>
<polygon fill="red" stroke="red" stroke-width="0.26" points="122.87,-102.49 112.37,-101.1 119.71,-108.74 122.87,-102.49"/>
</g>
<!-- &#45;8 -->
<g id="node8" class="node">
<title>&#45;8</title>
<polygon fill="lightgray" stroke="black" points="400,-179.29 374,-179.29 374,-161.29 400,-161.29 400,-179.29"/>
<text text-anchor="middle" x="387" y="-168.09" font-family="Times,serif" font-size="9.00">&#45;8</text>
</g>
<!-- &#45;8&#45;&gt;0 -->
<g id="edge6" class="edge">
<title>&#45;8&#45;&gt;0</title>
<path fill="none" stroke="red" stroke-width="0.21" stroke-dasharray="1,5" d="M382.61,-161.26C376.88,-150.78 366.62,-132.01 358.42,-117"/>
<polygon fill="red" stroke="red" stroke-width="0.21" points="361.26,-114.9 353.39,-107.8 355.12,-118.25 361.26,-114.9"/>
</g>
<!-- &#45;9 -->
<g id="node9" class="node">
<title>&#45;9</title>
<polygon fill="lightgray" stroke="black" points="444,-179.29 418,-179.29 418,-161.29 444,-161.29 444,-179.29"/>
<text text-anchor="middle" x="431" y="-168.09" font-family="Times,serif" font-size="9.00">&#45;9</text>
</g>
<!-- &#45;9&#45;&gt;0 -->
<g id="edge11" class="edge">
<title>&#45;9&#45;&gt;0</title>
<path fill="none" stroke="green" stroke-width="0.17" stroke-dasharray="1,5" d="M423.94,-161.1C419.75,-156.4 414.25,-150.46 409,-145.54 395.63,-133 379.59,-119.98 367.04,-110.19"/>
<polygon fill="green" stroke="green" stroke-width="0.17" points="369.05,-107.32 358.99,-103.98 364.77,-112.86 369.05,-107.32"/>
</g>
<!-- &#45;10 -->
<g id="node10" class="node">
<title>&#45;10</title>
<polygon fill="lightgray" stroke="black" points="494,-179.29 462,-179.29 462,-161.29 494,-161.29 494,-179.29"/>
<text text-anchor="middle" x="478" y="-168.09" font-family="Times,serif" font-size="9.00">&#45;10</text>
</g>
<!-- &#45;10&#45;&gt;0 -->
<g id="edge8" class="edge">
<title>&#45;10&#45;&gt;0</title>
<path fill="none" stroke="red" stroke-width="0.44" d="M470.67,-161.13C465.95,-156.2 459.51,-150.02 453,-145.54 426.67,-127.4 392.93,-112.41 370.45,-103.42"/>
<polygon fill="red" stroke="red" stroke-width="0.44" points="371.56,-100.1 360.98,-99.72 369.02,-106.62 371.56,-100.1"/>
</g>
<!-- &#45;11 -->
<g id="node11" class="node">
<title>&#45;11</title>
<polygon fill="lightgray" stroke="black" points="428,-249.04 396,-249.04 396,-231.04 428,-231.04 428,-249.04"/>
<text text-anchor="middle" x="412" y="-237.84" font-family="Times,serif" font-size="9.00">&#45;11</text>
</g>
<!-- &#45;12 -->
<g id="node12" class="node">
<title>&#45;12</title>
<polygon fill="lightgray" stroke="black" points="478,-249.04 446,-249.04 446,-231.04 478,-231.04 478,-249.04"/>
<text text-anchor="middle" x="462" y="-237.84" font-family="Times,serif" font-size="9.00">&#45;12</text>
</g>
<!-- 0&#45;&gt;0 -->
<g id="edge5" class="edge">
<title>0&#45;&gt;0</title>
<path fill="none" stroke="green" stroke-width="0.21" d="M357.94,-104.37C368.72,-109.77 380.26,-106.07 380.26,-93.28 380.26,-84.48 374.81,-79.98 367.89,-79.78"/>
<polygon fill="green" stroke="green" stroke-width="0.21" points="366.84,-76.44 357.94,-82.18 368.48,-83.24 366.84,-76.44"/>
</g>
<!-- 1&#45;&gt;1 -->
<g id="edge4" class="edge">
<title>1&#45;&gt;1</title>
<path fill="none" stroke="green" stroke-width="0.36" d="M109.94,-104.37C120.72,-109.77 132.26,-106.07 132.26,-93.28 132.26,-84.48 126.81,-79.98 119.89,-79.78"/>
<polygon fill="green" stroke="green" stroke-width="0.36" points="118.84,-76.44 109.94,-82.18 120.48,-83.24 118.84,-76.44"/>
</g>
<!-- 94 -->
<g id="node17" class="node">
<title>94</title>
<ellipse fill="white" stroke="black" cx="98" cy="-20.51" rx="20.51" ry="20.51"/>
<text text-anchor="middle" x="98" y="-18.31" font-family="Times,serif" font-size="9.00">94</text>
</g>
<!-- 1&#45;&gt;94 -->
<g id="edge15" class="edge">
<title>1&#45;&gt;94</title>
<path fill="none" stroke="red" stroke-width="0.46" d="M98,-76.92C98,-69.38 98,-60.03 98,-51.18"/>
<polygon fill="red" stroke="red" stroke-width="0.46" points="101.5,-51.14 98,-41.14 94.5,-51.14 101.5,-51.14"/>
</g>
<!-- 44&#45;&gt;0 -->
<g id="edge13" class="edge">
<title>44&#45;&gt;0</title>
<path fill="none" stroke="green" stroke-width="0.24" d="M307.87,-152.64C314.9,-141.88 324.13,-127.76 331.74,-116.1"/>
<polygon fill="green" stroke="green" stroke-width="0.24" points="334.89,-117.68 337.43,-107.39 329.03,-113.85 334.89,-117.68"/>
</g>
<!-- 338&#45;&gt;1 -->
<g id="edge17" class="edge">
<title>338&#45;&gt;1</title>
<path fill="none" stroke="red" stroke-width="1.08" d="M137.07,-149.58C129.69,-139.13 120.62,-126.29 113.08,-115.61"/>
<polygon fill="red" stroke="red" stroke-width="1.08" points="115.8,-113.4 107.17,-107.25 110.08,-117.44 115.8,-113.4"/>
</g>
</g>
</svg>
