<?xml version="1.0" encoding="UTF-8" standalone="no"?>
<!DOCTYPE svg PUBLIC "-//W3C//DTD SVG 1.1//EN"
 "http://www.w3.org/Graphics/SVG/1.1/DTD/svg11.dtd">
<!-- Generated by graphviz version 2.43.0 (0)
 -->
<!-- Title: %3 Pages: 1 -->
<svg width="430pt" height="189pt"
 viewBox="0.00 0.00 430.00 188.51" xmlns="http://www.w3.org/2000/svg" xmlns:xlink="http://www.w3.org/1999/xlink">
<g id="graph0" class="graph" transform="scale(1 1) rotate(0) translate(4 184.51)">
<title>%3</title>
<polygon fill="white" stroke="transparent" points="-4,4 -4,-184.51 426,-184.51 426,4 -4,4"/>
<!-- &#45;1 -->
<g id="node1" class="node">
<title>&#45;1</title>
<polygon fill="lightgray" stroke="black" points="117,-180.51 91,-180.51 91,-162.51 117,-162.51 117,-180.51"/>
<text text-anchor="middle" x="104" y="-169.31" font-family="Times,serif" font-size="9.00">&#45;1</text>
</g>
<!-- &#45;2 -->
<g id="node2" class="node">
<title>&#45;2</title>
<polygon fill="lightgray" stroke="black" points="70,-106.52 44,-106.52 44,-88.52 70,-88.52 70,-106.52"/>
<text text-anchor="middle" x="57" y="-95.32" font-family="Times,serif" font-size="9.00">&#45;2</text>
</g>
<!-- 0 -->
<g id="node13" class="node">
<title>0</title>
<ellipse fill="lightblue" stroke="black" cx="35" cy="-16.26" rx="16.03" ry="16.03"/>
<text text-anchor="middle" x="35" y="-14.06" font-family="Times,serif" font-size="9.00">0</text>
</g>
<!-- &#45;2&#45;&gt;0 -->
<g id="edge7" class="edge">
<title>&#45;2&#45;&gt;0</title>
<path fill="none" stroke="red" stroke-width="0.15" d="M54.73,-88.34C51.72,-77.5 46.28,-57.91 41.88,-42.04"/>
<polygon fill="red" stroke="red" stroke-width="0.15" points="45.21,-40.97 39.17,-32.27 38.47,-42.84 45.21,-40.97"/>
</g>
<!-- 1 -->
<g id="node14" class="node">
<title>1</title>
<ellipse fill="lightblue" stroke="black" cx="199" cy="-16.26" rx="16.03" ry="16.03"/>
<text text-anchor="middle" x="199" y="-14.06" font-family="Times,serif" font-size="9.00">1</text>
</g>
<!-- &#45;2&#45;&gt;1 -->
<g id="edge4" class="edge">
<title>&#45;2&#45;&gt;1</title>
<path fill="none" stroke="green" stroke-width="0.52" d="M61.89,-88.24C65.86,-82.12 71.94,-73.94 79,-68.53 107.91,-46.35 147.86,-31.81 173.57,-24.06"/>
<polygon fill="green" stroke="green" stroke-width="0.52" points="174.68,-27.38 183.32,-21.24 172.74,-20.65 174.68,-27.38"/>
</g>
<!-- &#45;3 -->
<g id="node3" class="node">
<title>&#45;3</title>
<polygon fill="lightgray" stroke="black" points="284,-180.51 258,-180.51 258,-162.51 284,-162.51 284,-180.51"/>
<text text-anchor="middle" x="271" y="-169.31" font-family="Times,serif" font-size="9.00">&#45;3</text>
</g>
<!-- &#45;4 -->
<g id="node4" class="node">
<title>&#45;4</title>
<polygon fill="lightgray" stroke="black" points="328,-180.51 302,-180.51 302,-162.51 328,-162.51 328,-180.51"/>
<text text-anchor="middle" x="315" y="-169.31" font-family="Times,serif" font-size="9.00">&#45;4</text>
</g>
<!-- &#45;5 -->
<g id="node5" class="node">
<title>&#45;5</title>
<polygon fill="lightgray" stroke="black" points="114,-106.52 88,-106.52 88,-88.52 114,-88.52 114,-106.52"/>
<text text-anchor="middle" x="101" y="-95.32" font-family="Times,serif" font-size="9.00">&#45;5</text>
</g>
<!-- &#45;5&#45;&gt;1 -->
<g id="edge3" class="edge">
<title>&#45;5&#45;&gt;1</title>
<path fill="none" stroke="green" stroke-width="0.84" stroke-dasharray="1,5" d="M108.21,-88.3C113.45,-82.51 120.86,-74.72 128,-68.53 143.69,-54.92 162.86,-41.23 177.32,-31.43"/>
<polygon fill="green" stroke="green" stroke-width="0.84" points="179.28,-34.33 185.65,-25.86 175.39,-28.51 179.28,-34.33"/>
</g>
<!-- &#45;6 -->
<g id="node6" class="node">
<title>&#45;6</title>
<polygon fill="lightgray" stroke="black" points="26,-106.52 0,-106.52 0,-88.52 26,-88.52 26,-106.52"/>
<text text-anchor="middle" x="13" y="-95.32" font-family="Times,serif" font-size="9.00">&#45;6</text>
</g>
<!-- &#45;6&#45;&gt;0 -->
<g id="edge10" class="edge">
<title>&#45;6&#45;&gt;0</title>
<path fill="none" stroke="red" stroke-width="0.51" d="M15.27,-88.34C18.28,-77.5 23.72,-57.91 28.12,-42.04"/>
<polygon fill="red" stroke="red" stroke-width="0.51" points="31.53,-42.84 30.83,-32.27 24.79,-40.97 31.53,-42.84"/>
</g>
<!-- &#45;7 -->
<g id="node7" class="node">
<title>&#45;7</title>
<polygon fill="lightgray" stroke="black" points="161,-180.51 135,-180.51 135,-162.51 161,-162.51 161,-180.51"/>
<text text-anchor="middle" x="148" y="-169.31" font-family="Times,serif" font-size="9.00">&#45;7</text>
</g>
<!-- &#45;7&#45;&gt;1 -->
<g id="edge9" class="edge">
<title>&#45;7&#45;&gt;1</title>
<path fill="none" stroke="red" stroke-width="0.33" stroke-dasharray="1,5" d="M147.68,-162.49C147.24,-144.83 147.75,-101.48 161,-68.53 165.75,-56.72 173.88,-45.19 181.41,-36.07"/>
<polygon fill="red" stroke="red" stroke-width="0.33" points="184.13,-38.27 188.04,-28.42 178.84,-33.68 184.13,-38.27"/>
</g>
<!-- 1007 -->
<g id="node15" class="node">
<title>1007</title>
<ellipse fill="white" stroke="black" cx="199" cy="-97.52" rx="28.98" ry="28.98"/>
<text text-anchor="middle" x="199" y="-95.32" font-family="Times,serif" font-size="9.00">1007</text>
</g>
<!-- &#45;7&#45;&gt;1007 -->
<g id="edge8" class="edge">
<title>&#45;7&#45;&gt;1007</title>
<path fill="none" stroke="red" stroke-width="0.29" d="M153.85,-162.25C159.45,-154.35 168.26,-141.91 176.62,-130.12"/>
<polygon fill="red" stroke="red" stroke-width="0.29" points="179.64,-131.9 182.57,-121.71 173.93,-127.85 179.64,-131.9"/>
</g>
<!-- &#45;8 -->
<g id="node8" class="node">
<title>&#45;8</title>
<polygon fill="lightgray" stroke="black" points="240,-180.51 214,-180.51 214,-162.51 240,-162.51 240,-180.51"/>
<text text-anchor="middle" x="227" y="-169.31" font-family="Times,serif" font-size="9.00">&#45;8</text>
</g>
<!-- &#45;8&#45;&gt;1 -->
<g id="edge1" class="edge">
<title>&#45;8&#45;&gt;1</title>
<path fill="none" stroke="green" stroke-width="0.61" stroke-dasharray="1,5" d="M230.01,-162.33C236.02,-144.69 248.05,-101.98 237,-68.53 233.01,-56.45 224.95,-44.89 217.28,-35.81"/>
<polygon fill="green" stroke="green" stroke-width="0.61" points="219.76,-33.33 210.47,-28.24 214.55,-38.01 219.76,-33.33"/>
</g>
<!-- &#45;8&#45;&gt;1007 -->
<g id="edge5" class="edge">
<title>&#45;8&#45;&gt;1007</title>
<path fill="none" stroke="green" stroke-width="0.2" stroke-dasharray="1,5" d="M223.79,-162.25C221.08,-155.3 217.01,-144.83 212.95,-134.38"/>
<polygon fill="green" stroke="green" stroke-width="0.2" points="216.15,-132.95 209.26,-124.89 209.62,-135.48 216.15,-132.95"/>
</g>
<!-- &#45;9 -->
<g id="node9" class="node">
<title>&#45;9</title>
<polygon fill="lightgray" stroke="black" points="372,-180.51 346,-180.51 346,-162.51 372,-162.51 372,-180.51"/>
<text text-anchor="middle" x="359" y="-169.31" font-family="Times,serif" font-size="9.00">&#45;9</text>
</g>
<!-- &#45;10 -->
<g id="node10" class="node">
<title>&#45;10</title>
<polygon fill="lightgray" stroke="black" points="422,-180.51 390,-180.51 390,-162.51 422,-162.51 422,-180.51"/>
<text text-anchor="middle" x="406" y="-169.31" font-family="Times,serif" font-size="9.00">&#45;10</text>
</g>
<!-- &#45;11 -->
<g id="node11" class="node">
<title>&#45;11</title>
<polygon fill="lightgray" stroke="black" points="316,-106.52 284,-106.52 284,-88.52 316,-88.52 316,-106.52"/>
<text text-anchor="middle" x="300" y="-95.32" font-family="Times,serif" font-size="9.00">&#45;11</text>
</g>
<!-- &#45;11&#45;&gt;1 -->
<g id="edge11" class="edge">
<title>&#45;11&#45;&gt;1</title>
<path fill="none" stroke="red" stroke-width="0.55" d="M291.85,-88.39C285.95,-82.64 277.7,-74.86 270,-68.53 253.95,-55.33 234.81,-41.62 220.45,-31.7"/>
<polygon fill="red" stroke="red" stroke-width="0.55" points="222.42,-28.81 212.19,-26.05 218.47,-34.59 222.42,-28.81"/>
</g>
<!-- &#45;12 -->
<g id="node12" class="node">
<title>&#45;12</title>
<polygon fill="lightgray" stroke="black" points="366,-106.52 334,-106.52 334,-88.52 366,-88.52 366,-106.52"/>
<text text-anchor="middle" x="350" y="-95.32" font-family="Times,serif" font-size="9.00">&#45;12</text>
</g>
<!-- &#45;12&#45;&gt;1 -->
<g id="edge2" class="edge">
<title>&#45;12&#45;&gt;1</title>
<path fill="none" stroke="green" stroke-width="0.34" d="M344.23,-88.24C339.62,-82.11 332.67,-73.93 325,-68.53 293.65,-46.42 251.35,-31.73 224.63,-23.94"/>
<polygon fill="green" stroke="green" stroke-width="0.34" points="225.44,-20.54 214.87,-21.21 223.55,-27.28 225.44,-20.54"/>
</g>
<!-- 1007&#45;&gt;1 -->
<g id="edge6" class="edge">
<title>1007&#45;&gt;1</title>
<path fill="none" stroke="red" stroke-width="0.27" d="M199,-68.35C199,-60.06 199,-51.04 199,-42.91"/>
<polygon fill="red" stroke="red" stroke-width="0.27" points="202.5,-42.89 199,-32.89 195.5,-42.89 202.5,-42.89"/>
</g>
</g>
</svg>
