<?xml version="1.0" encoding="UTF-8" standalone="no"?>
<!DOCTYPE svg PUBLIC "-//W3C//DTD SVG 1.1//EN"
 "http://www.w3.org/Graphics/SVG/1.1/DTD/svg11.dtd">
<!-- Generated by graphviz version 2.43.0 (0)
 -->
<!-- Title: %3 Pages: 1 -->
<svg width="710pt" height="180pt"
 viewBox="0.00 0.00 709.75 180.02" xmlns="http://www.w3.org/2000/svg" xmlns:xlink="http://www.w3.org/1999/xlink">
<g id="graph0" class="graph" transform="scale(1 1) rotate(0) translate(4 176.02)">
<title>%3</title>
<polygon fill="white" stroke="transparent" points="-4,4 -4,-176.02 705.75,-176.02 705.75,4 -4,4"/>
<!-- &#45;1 -->
<g id="node1" class="node">
<title>&#45;1</title>
<polygon fill="lightgray" stroke="black" points="199.75,-102.28 173.75,-102.28 173.75,-84.28 199.75,-84.28 199.75,-102.28"/>
<text text-anchor="middle" x="186.75" y="-91.08" font-family="Times,serif" font-size="9.00">&#45;1</text>
</g>
<!-- 1 -->
<g id="node22" class="node">
<title>1</title>
<ellipse fill="lightblue" stroke="black" cx="268.75" cy="-16.26" rx="16.03" ry="16.03"/>
<text text-anchor="middle" x="268.75" y="-14.06" font-family="Times,serif" font-size="9.00">1</text>
</g>
<!-- &#45;1&#45;&gt;1 -->
<g id="edge16" class="edge">
<title>&#45;1&#45;&gt;1</title>
<path fill="none" stroke="red" stroke-width="0.24" d="M195.52,-84.25C208.31,-72.56 232.38,-50.54 249.43,-34.94"/>
<polygon fill="red" stroke="red" stroke-width="0.24" points="252.14,-37.2 257.15,-27.87 247.41,-32.04 252.14,-37.2"/>
</g>
<!-- &#45;2 -->
<g id="node2" class="node">
<title>&#45;2</title>
<polygon fill="lightgray" stroke="black" points="287.75,-172.02 261.75,-172.02 261.75,-154.02 287.75,-154.02 287.75,-172.02"/>
<text text-anchor="middle" x="274.75" y="-160.82" font-family="Times,serif" font-size="9.00">&#45;2</text>
</g>
<!-- &#45;3 -->
<g id="node3" class="node">
<title>&#45;3</title>
<polygon fill="lightgray" stroke="black" points="331.75,-172.02 305.75,-172.02 305.75,-154.02 331.75,-154.02 331.75,-172.02"/>
<text text-anchor="middle" x="318.75" y="-160.82" font-family="Times,serif" font-size="9.00">&#45;3</text>
</g>
<!-- &#45;4 -->
<g id="node4" class="node">
<title>&#45;4</title>
<polygon fill="lightgray" stroke="black" points="64.75,-172.02 38.75,-172.02 38.75,-154.02 64.75,-154.02 64.75,-172.02"/>
<text text-anchor="middle" x="51.75" y="-160.82" font-family="Times,serif" font-size="9.00">&#45;4</text>
</g>
<!-- &#45;4&#45;&gt;1 -->
<g id="edge2" class="edge">
<title>&#45;4&#45;&gt;1</title>
<path fill="none" stroke="red" stroke-width="0.12" d="M53.33,-153.92C57.29,-135.82 69.33,-91.9 96.75,-68.53 138.87,-32.62 205.34,-21.86 242.1,-18.64"/>
<polygon fill="red" stroke="red" stroke-width="0.12" points="242.78,-22.1 252.49,-17.86 242.26,-15.12 242.78,-22.1"/>
</g>
<!-- 599 -->
<g id="node23" class="node">
<title>599</title>
<ellipse fill="white" stroke="black" cx="24.75" cy="-93.28" rx="25" ry="25"/>
<text text-anchor="middle" x="24.75" y="-91.08" font-family="Times,serif" font-size="9.00">599</text>
</g>
<!-- &#45;4&#45;&gt;599 -->
<g id="edge21" class="edge">
<title>&#45;4&#45;&gt;599</title>
<path fill="none" stroke="red" stroke-width="0.38" d="M48.55,-153.99C45.74,-146.96 41.48,-136.27 37.34,-125.87"/>
<polygon fill="red" stroke="red" stroke-width="0.38" points="40.56,-124.51 33.61,-116.51 34.06,-127.1 40.56,-124.51"/>
</g>
<!-- &#45;5 -->
<g id="node5" class="node">
<title>&#45;5</title>
<polygon fill="lightgray" stroke="black" points="281.75,-102.28 255.75,-102.28 255.75,-84.28 281.75,-84.28 281.75,-102.28"/>
<text text-anchor="middle" x="268.75" y="-91.08" font-family="Times,serif" font-size="9.00">&#45;5</text>
</g>
<!-- &#45;5&#45;&gt;1 -->
<g id="edge1" class="edge">
<title>&#45;5&#45;&gt;1</title>
<path fill="none" stroke="red" stroke-width="0.29" d="M268.75,-84.25C268.75,-74.49 268.75,-57.54 268.75,-43.13"/>
<polygon fill="red" stroke="red" stroke-width="0.29" points="272.25,-42.77 268.75,-32.77 265.25,-42.77 272.25,-42.77"/>
</g>
<!-- &#45;6 -->
<g id="node6" class="node">
<title>&#45;6</title>
<polygon fill="lightgray" stroke="black" points="419.75,-102.28 393.75,-102.28 393.75,-84.28 419.75,-84.28 419.75,-102.28"/>
<text text-anchor="middle" x="406.75" y="-91.08" font-family="Times,serif" font-size="9.00">&#45;6</text>
</g>
<!-- 0 -->
<g id="node21" class="node">
<title>0</title>
<ellipse fill="lightblue" stroke="black" cx="553.75" cy="-16.26" rx="16.03" ry="16.03"/>
<text text-anchor="middle" x="553.75" y="-14.06" font-family="Times,serif" font-size="9.00">0</text>
</g>
<!-- &#45;6&#45;&gt;0 -->
<g id="edge3" class="edge">
<title>&#45;6&#45;&gt;0</title>
<path fill="none" stroke="red" stroke-width="0.18" d="M412.94,-83.93C416.99,-78.94 422.65,-72.75 428.75,-68.53 460.06,-46.81 501.96,-32.02 528.41,-24.1"/>
<polygon fill="red" stroke="red" stroke-width="0.18" points="529.43,-27.45 538.06,-21.31 527.48,-20.72 529.43,-27.45"/>
</g>
<!-- &#45;6&#45;&gt;1 -->
<g id="edge13" class="edge">
<title>&#45;6&#45;&gt;1</title>
<path fill="none" stroke="green" stroke-width="0.16" d="M400.51,-83.99C396.45,-79.02 390.79,-72.84 384.75,-68.53 356.21,-48.16 318.29,-33.29 293.7,-24.97"/>
<polygon fill="green" stroke="green" stroke-width="0.16" points="294.64,-21.59 284.05,-21.8 292.46,-28.24 294.64,-21.59"/>
</g>
<!-- &#45;7 -->
<g id="node7" class="node">
<title>&#45;7</title>
<polygon fill="lightgray" stroke="black" points="701.75,-102.28 675.75,-102.28 675.75,-84.28 701.75,-84.28 701.75,-102.28"/>
<text text-anchor="middle" x="688.75" y="-91.08" font-family="Times,serif" font-size="9.00">&#45;7</text>
</g>
<!-- &#45;7&#45;&gt;0 -->
<g id="edge4" class="edge">
<title>&#45;7&#45;&gt;0</title>
<path fill="none" stroke="green" stroke-width="0.54" d="M680.73,-84.15C675.59,-79.23 668.63,-73.06 661.75,-68.53 634.84,-50.81 600.86,-35.73 578.27,-26.6"/>
<polygon fill="green" stroke="green" stroke-width="0.54" points="579.35,-23.27 568.76,-22.84 576.77,-29.78 579.35,-23.27"/>
</g>
<!-- &#45;8 -->
<g id="node8" class="node">
<title>&#45;8</title>
<polygon fill="lightgray" stroke="black" points="375.75,-172.02 349.75,-172.02 349.75,-154.02 375.75,-154.02 375.75,-172.02"/>
<text text-anchor="middle" x="362.75" y="-160.82" font-family="Times,serif" font-size="9.00">&#45;8</text>
</g>
<!-- &#45;9 -->
<g id="node9" class="node">
<title>&#45;9</title>
<polygon fill="lightgray" stroke="black" points="325.75,-102.28 299.75,-102.28 299.75,-84.28 325.75,-84.28 325.75,-102.28"/>
<text text-anchor="middle" x="312.75" y="-91.08" font-family="Times,serif" font-size="9.00">&#45;9</text>
</g>
<!-- &#45;9&#45;&gt;1 -->
<g id="edge14" class="edge">
<title>&#45;9&#45;&gt;1</title>
<path fill="none" stroke="green" stroke-width="0.52" d="M308.04,-84.25C301.83,-73.67 290.67,-54.64 281.83,-39.56"/>
<polygon fill="green" stroke="green" stroke-width="0.52" points="284.76,-37.64 276.68,-30.79 278.72,-41.18 284.76,-37.64"/>
</g>
<!-- &#45;10 -->
<g id="node10" class="node">
<title>&#45;10</title>
<polygon fill="lightgray" stroke="black" points="469.75,-102.28 437.75,-102.28 437.75,-84.28 469.75,-84.28 469.75,-102.28"/>
<text text-anchor="middle" x="453.75" y="-91.08" font-family="Times,serif" font-size="9.00">&#45;10</text>
</g>
<!-- &#45;10&#45;&gt;0 -->
<g id="edge11" class="edge">
<title>&#45;10&#45;&gt;0</title>
<path fill="none" stroke="red" stroke-width="0.66" d="M461.78,-84.01C466.54,-79.28 472.79,-73.34 478.75,-68.53 495.71,-54.82 516.24,-40.96 531.52,-31.11"/>
<polygon fill="red" stroke="red" stroke-width="0.66" points="533.73,-33.86 540.29,-25.54 529.97,-27.95 533.73,-33.86"/>
</g>
<!-- &#45;10&#45;&gt;1 -->
<g id="edge8" class="edge">
<title>&#45;10&#45;&gt;1</title>
<path fill="none" stroke="green" stroke-width="0.31" d="M447.04,-84.25C442.37,-79.12 435.75,-72.68 428.75,-68.53 385.46,-42.88 327.86,-28.52 294.89,-21.88"/>
<polygon fill="green" stroke="green" stroke-width="0.31" points="295.2,-18.37 284.71,-19.92 293.87,-25.25 295.2,-18.37"/>
</g>
<!-- &#45;11 -->
<g id="node11" class="node">
<title>&#45;11</title>
<polygon fill="lightgray" stroke="black" points="375.75,-102.28 343.75,-102.28 343.75,-84.28 375.75,-84.28 375.75,-102.28"/>
<text text-anchor="middle" x="359.75" y="-91.08" font-family="Times,serif" font-size="9.00">&#45;11</text>
</g>
<!-- &#45;11&#45;&gt;1 -->
<g id="edge6" class="edge">
<title>&#45;11&#45;&gt;1</title>
<path fill="none" stroke="red" stroke-width="0.55" stroke-dasharray="1,5" d="M351.61,-84.15C346.81,-79.46 340.56,-73.52 334.75,-68.53 320.13,-55.96 302.9,-42.62 289.71,-32.71"/>
<polygon fill="red" stroke="red" stroke-width="0.55" points="291.81,-29.9 281.7,-26.73 287.62,-35.51 291.81,-29.9"/>
</g>
<!-- &#45;12 -->
<g id="node12" class="node">
<title>&#45;12</title>
<polygon fill="lightgray" stroke="black" points="569.75,-102.28 537.75,-102.28 537.75,-84.28 569.75,-84.28 569.75,-102.28"/>
<text text-anchor="middle" x="553.75" y="-91.08" font-family="Times,serif" font-size="9.00">&#45;12</text>
</g>
<!-- &#45;12&#45;&gt;0 -->
<g id="edge12" class="edge">
<title>&#45;12&#45;&gt;0</title>
<path fill="none" stroke="green" stroke-width="0.46" d="M553.75,-84.25C553.75,-74.49 553.75,-57.54 553.75,-43.13"/>
<polygon fill="green" stroke="green" stroke-width="0.46" points="557.25,-42.77 553.75,-32.77 550.25,-42.77 557.25,-42.77"/>
</g>
<!-- &#45;13 -->
<g id="node13" class="node">
<title>&#45;13</title>
<polygon fill="lightgray" stroke="black" points="425.75,-172.02 393.75,-172.02 393.75,-154.02 425.75,-154.02 425.75,-172.02"/>
<text text-anchor="middle" x="409.75" y="-160.82" font-family="Times,serif" font-size="9.00">&#45;13</text>
</g>
<!-- &#45;14 -->
<g id="node14" class="node">
<title>&#45;14</title>
<polygon fill="lightgray" stroke="black" points="619.75,-102.28 587.75,-102.28 587.75,-84.28 619.75,-84.28 619.75,-102.28"/>
<text text-anchor="middle" x="603.75" y="-91.08" font-family="Times,serif" font-size="9.00">&#45;14</text>
</g>
<!-- &#45;14&#45;&gt;0 -->
<g id="edge5" class="edge">
<title>&#45;14&#45;&gt;0</title>
<path fill="none" stroke="red" stroke-width="0.39" stroke-dasharray="1,5" d="M598.4,-84.25C591.2,-73.44 578.12,-53.82 567.97,-38.59"/>
<polygon fill="red" stroke="red" stroke-width="0.39" points="570.86,-36.62 562.4,-30.24 565.03,-40.5 570.86,-36.62"/>
</g>
<!-- &#45;15 -->
<g id="node15" class="node">
<title>&#45;15</title>
<polygon fill="lightgray" stroke="black" points="243.75,-172.02 211.75,-172.02 211.75,-154.02 243.75,-154.02 243.75,-172.02"/>
<text text-anchor="middle" x="227.75" y="-160.82" font-family="Times,serif" font-size="9.00">&#45;15</text>
</g>
<!-- &#45;15&#45;&gt;0 -->
<g id="edge10" class="edge">
<title>&#45;15&#45;&gt;0</title>
<path fill="none" stroke="green" stroke-width="0.45" d="M243.75,-156.35C246.71,-155.45 249.8,-154.63 252.75,-154.02 334.97,-137.14 572.3,-180.14 628.75,-118.02 643.54,-101.74 639.02,-87.98 628.75,-68.53 618.23,-48.59 596.07,-34.93 578.55,-26.76"/>
<polygon fill="green" stroke="green" stroke-width="0.45" points="579.47,-23.34 568.9,-22.58 576.68,-29.76 579.47,-23.34"/>
</g>
<!-- &#45;15&#45;&gt;1 -->
<g id="edge18" class="edge">
<title>&#45;15&#45;&gt;1</title>
<path fill="none" stroke="green" stroke-width="0.14" stroke-dasharray="1,5" d="M228.83,-153.88C231.13,-137.47 237.11,-99.36 246.75,-68.53 249.69,-59.12 253.76,-49.1 257.61,-40.43"/>
<polygon fill="green" stroke="green" stroke-width="0.14" points="260.8,-41.88 261.78,-31.33 254.43,-38.96 260.8,-41.88"/>
</g>
<!-- 448 -->
<g id="node24" class="node">
<title>448</title>
<ellipse fill="white" stroke="black" cx="130.75" cy="-93.28" rx="25" ry="25"/>
<text text-anchor="middle" x="130.75" y="-91.08" font-family="Times,serif" font-size="9.00">448</text>
</g>
<!-- &#45;15&#45;&gt;448 -->
<g id="edge19" class="edge">
<title>&#45;15&#45;&gt;448</title>
<path fill="none" stroke="green" stroke-width="0.34" d="M216.24,-153.99C202.23,-144.2 178.07,-127.33 159,-114.01"/>
<polygon fill="green" stroke="green" stroke-width="0.34" points="160.86,-111.04 150.65,-108.18 156.85,-116.77 160.86,-111.04"/>
</g>
<!-- &#45;16 -->
<g id="node16" class="node">
<title>&#45;16</title>
<polygon fill="lightgray" stroke="black" points="475.75,-172.02 443.75,-172.02 443.75,-154.02 475.75,-154.02 475.75,-172.02"/>
<text text-anchor="middle" x="459.75" y="-160.82" font-family="Times,serif" font-size="9.00">&#45;16</text>
</g>
<!-- &#45;17 -->
<g id="node17" class="node">
<title>&#45;17</title>
<polygon fill="lightgray" stroke="black" points="525.75,-172.02 493.75,-172.02 493.75,-154.02 525.75,-154.02 525.75,-172.02"/>
<text text-anchor="middle" x="509.75" y="-160.82" font-family="Times,serif" font-size="9.00">&#45;17</text>
</g>
<!-- &#45;18 -->
<g id="node18" class="node">
<title>&#45;18</title>
<polygon fill="lightgray" stroke="black" points="575.75,-172.02 543.75,-172.02 543.75,-154.02 575.75,-154.02 575.75,-172.02"/>
<text text-anchor="middle" x="559.75" y="-160.82" font-family="Times,serif" font-size="9.00">&#45;18</text>
</g>
<!-- &#45;19 -->
<g id="node19" class="node">
<title>&#45;19</title>
<polygon fill="lightgray" stroke="black" points="625.75,-172.02 593.75,-172.02 593.75,-154.02 625.75,-154.02 625.75,-172.02"/>
<text text-anchor="middle" x="609.75" y="-160.82" font-family="Times,serif" font-size="9.00">&#45;19</text>
</g>
<!-- &#45;20 -->
<g id="node20" class="node">
<title>&#45;20</title>
<polygon fill="lightgray" stroke="black" points="519.75,-102.28 487.75,-102.28 487.75,-84.28 519.75,-84.28 519.75,-102.28"/>
<text text-anchor="middle" x="503.75" y="-91.08" font-family="Times,serif" font-size="9.00">&#45;20</text>
</g>
<!-- &#45;20&#45;&gt;0 -->
<g id="edge9" class="edge">
<title>&#45;20&#45;&gt;0</title>
<path fill="none" stroke="green" stroke-width="0.5" d="M509.1,-84.25C516.3,-73.44 529.38,-53.82 539.53,-38.59"/>
<polygon fill="green" stroke="green" stroke-width="0.5" points="542.47,-40.5 545.1,-30.24 536.64,-36.62 542.47,-40.5"/>
</g>
<!-- &#45;20&#45;&gt;1 -->
<g id="edge17" class="edge">
<title>&#45;20&#45;&gt;1</title>
<path fill="none" stroke="green" stroke-width="0.37" stroke-dasharray="1,5" d="M497.13,-84.08C492.5,-78.89 485.9,-72.43 478.75,-68.53 418.27,-35.52 336.53,-23.49 295.13,-19.32"/>
<polygon fill="green" stroke="green" stroke-width="0.37" points="295.32,-15.83 285.04,-18.39 294.67,-22.8 295.32,-15.83"/>
</g>
<!-- 0&#45;&gt;0 -->
<g id="edge7" class="edge">
<title>0&#45;&gt;0</title>
<path fill="none" stroke="green" stroke-width="0.44" d="M565.33,-27.79C576.21,-33.76 588.01,-29.92 588.01,-16.26 588.01,-6.87 582.43,-2.13 575.41,-2.02"/>
<polygon fill="green" stroke="green" stroke-width="0.44" points="574.07,1.25 565.33,-4.74 575.9,-5.51 574.07,1.25"/>
</g>
<!-- 1&#45;&gt;1 -->
<g id="edge15" class="edge">
<title>1&#45;&gt;1</title>
<path fill="none" stroke="red" stroke-width="0.53" d="M280.33,-27.79C291.21,-33.76 303.01,-29.92 303.01,-16.26 303.01,-6.87 297.43,-2.13 290.41,-2.02"/>
<polygon fill="red" stroke="red" stroke-width="0.53" points="289.07,1.25 280.33,-4.74 290.9,-5.51 289.07,1.25"/>
</g>
<!-- 599&#45;&gt;1 -->
<g id="edge22" class="edge">
<title>599&#45;&gt;1</title>
<path fill="none" stroke="green" stroke-width="0.2" d="M44.78,-78.49C50.69,-74.87 57.31,-71.22 63.75,-68.53 125.45,-42.73 203.22,-27.68 242.89,-21.15"/>
<polygon fill="green" stroke="green" stroke-width="0.2" points="243.48,-24.6 252.8,-19.57 242.38,-17.69 243.48,-24.6"/>
</g>
<!-- 448&#45;&gt;1 -->
<g id="edge20" class="edge">
<title>448&#45;&gt;1</title>
<path fill="none" stroke="green" stroke-width="0.68" d="M150.19,-77.94C154.87,-74.71 159.91,-71.38 164.75,-68.53 191.23,-52.88 223.15,-37.64 244.58,-27.91"/>
<polygon fill="green" stroke="green" stroke-width="0.68" points="246.23,-31.01 253.91,-23.72 243.36,-24.62 246.23,-31.01"/>
</g>
</g>
</svg>
