<?xml version="1.0" encoding="UTF-8" standalone="no"?>
<!DOCTYPE svg PUBLIC "-//W3C//DTD SVG 1.1//EN"
 "http://www.w3.org/Graphics/SVG/1.1/DTD/svg11.dtd">
<!-- Generated by graphviz version 2.43.0 (0)
 -->
<!-- Title: %3 Pages: 1 -->
<svg width="1336pt" height="95pt"
 viewBox="0.00 0.00 1336.00 94.53" xmlns="http://www.w3.org/2000/svg" xmlns:xlink="http://www.w3.org/1999/xlink">
<g id="graph0" class="graph" transform="scale(1 1) rotate(0) translate(4 90.53)">
<title>%3</title>
<polygon fill="white" stroke="transparent" points="-4,4 -4,-90.53 1332,-90.53 1332,4 -4,4"/>
<!-- &#45;1 -->
<g id="node1" class="node">
<title>&#45;1</title>
<polygon fill="lightgray" stroke="black" points="226,-86.53 200,-86.53 200,-68.53 226,-68.53 226,-86.53"/>
<text text-anchor="middle" x="213" y="-75.33" font-family="Times,serif" font-size="9.00">&#45;1</text>
</g>
<!-- 0 -->
<g id="node29" class="node">
<title>0</title>
<ellipse fill="lightblue" stroke="black" cx="378" cy="-16.26" rx="16.03" ry="16.03"/>
<text text-anchor="middle" x="378" y="-14.06" font-family="Times,serif" font-size="9.00">0</text>
</g>
<!-- &#45;1&#45;&gt;0 -->
<g id="edge7" class="edge">
<title>&#45;1&#45;&gt;0</title>
<path fill="none" stroke="green" stroke-width="0.75" d="M226.03,-71.78C228.98,-70.71 232.09,-69.58 235,-68.53 276.53,-53.53 324.91,-36.22 353.41,-26.04"/>
<polygon fill="green" stroke="green" stroke-width="0.75" points="354.72,-29.29 362.96,-22.63 352.37,-22.7 354.72,-29.29"/>
</g>
<!-- &#45;2 -->
<g id="node2" class="node">
<title>&#45;2</title>
<polygon fill="lightgray" stroke="black" points="790,-86.53 764,-86.53 764,-68.53 790,-68.53 790,-86.53"/>
<text text-anchor="middle" x="777" y="-75.33" font-family="Times,serif" font-size="9.00">&#45;2</text>
</g>
<!-- 1 -->
<g id="node30" class="node">
<title>1</title>
<ellipse fill="lightblue" stroke="black" cx="665" cy="-16.26" rx="16.03" ry="16.03"/>
<text text-anchor="middle" x="665" y="-14.06" font-family="Times,serif" font-size="9.00">1</text>
</g>
<!-- &#45;2&#45;&gt;1 -->
<g id="edge26" class="edge">
<title>&#45;2&#45;&gt;1</title>
<path fill="none" stroke="green" stroke-width="0.22" d="M763.71,-69.5C745.05,-59.62 710.82,-41.51 687.98,-29.43"/>
<polygon fill="green" stroke="green" stroke-width="0.22" points="689.45,-26.24 678.97,-24.66 686.17,-32.43 689.45,-26.24"/>
</g>
<!-- &#45;3 -->
<g id="node3" class="node">
<title>&#45;3</title>
<polygon fill="lightgray" stroke="black" points="270,-86.53 244,-86.53 244,-68.53 270,-68.53 270,-86.53"/>
<text text-anchor="middle" x="257" y="-75.33" font-family="Times,serif" font-size="9.00">&#45;3</text>
</g>
<!-- &#45;3&#45;&gt;0 -->
<g id="edge11" class="edge">
<title>&#45;3&#45;&gt;0</title>
<path fill="none" stroke="red" stroke-width="0.25" d="M270.41,-69.96C290.73,-60.01 329.58,-40.98 354.62,-28.72"/>
<polygon fill="red" stroke="red" stroke-width="0.25" points="356.34,-31.77 363.78,-24.23 353.26,-25.48 356.34,-31.77"/>
</g>
<!-- &#45;4 -->
<g id="node4" class="node">
<title>&#45;4</title>
<polygon fill="lightgray" stroke="black" points="702,-86.53 676,-86.53 676,-68.53 702,-68.53 702,-86.53"/>
<text text-anchor="middle" x="689" y="-75.33" font-family="Times,serif" font-size="9.00">&#45;4</text>
</g>
<!-- &#45;4&#45;&gt;0 -->
<g id="edge24" class="edge">
<title>&#45;4&#45;&gt;0</title>
<path fill="none" stroke="red" stroke-width="0.4" d="M675.62,-71.24C672.8,-70.25 669.83,-69.29 667,-68.53 571.86,-43 455.61,-26.79 404.38,-20.39"/>
<polygon fill="red" stroke="red" stroke-width="0.4" points="404.54,-16.88 394.19,-19.14 403.69,-23.83 404.54,-16.88"/>
</g>
<!-- &#45;4&#45;&gt;1 -->
<g id="edge27" class="edge">
<title>&#45;4&#45;&gt;1</title>
<path fill="none" stroke="red" stroke-width="0.74" d="M685.66,-68.29C682.83,-61.3 678.63,-50.91 674.75,-41.33"/>
<polygon fill="red" stroke="red" stroke-width="0.74" points="677.89,-39.77 670.89,-31.82 671.4,-42.4 677.89,-39.77"/>
</g>
<!-- &#45;5 -->
<g id="node5" class="node">
<title>&#45;5</title>
<polygon fill="lightgray" stroke="black" points="984,-86.53 958,-86.53 958,-68.53 984,-68.53 984,-86.53"/>
<text text-anchor="middle" x="971" y="-75.33" font-family="Times,serif" font-size="9.00">&#45;5</text>
</g>
<!-- &#45;6 -->
<g id="node6" class="node">
<title>&#45;6</title>
<polygon fill="lightgray" stroke="black" points="746,-86.53 720,-86.53 720,-68.53 746,-68.53 746,-86.53"/>
<text text-anchor="middle" x="733" y="-75.33" font-family="Times,serif" font-size="9.00">&#45;6</text>
</g>
<!-- &#45;6&#45;&gt;0 -->
<g id="edge23" class="edge">
<title>&#45;6&#45;&gt;0</title>
<path fill="none" stroke="green" stroke-width="0.94" d="M719.63,-71.19C716.82,-70.2 713.83,-69.25 711,-68.53 598.91,-39.82 461.22,-24.87 404.42,-19.55"/>
<polygon fill="green" stroke="green" stroke-width="0.94" points="404.44,-16.04 394.17,-18.62 403.81,-23.01 404.44,-16.04"/>
</g>
<!-- &#45;6&#45;&gt;1 -->
<g id="edge8" class="edge">
<title>&#45;6&#45;&gt;1</title>
<path fill="none" stroke="green" stroke-width="0.38" stroke-dasharray="1,5" d="M723.54,-68.29C713.61,-59.62 697.68,-45.74 684.94,-34.64"/>
<polygon fill="green" stroke="green" stroke-width="0.38" points="686.97,-31.76 677.13,-27.83 682.37,-37.04 686.97,-31.76"/>
</g>
<!-- &#45;7 -->
<g id="node7" class="node">
<title>&#45;7</title>
<polygon fill="lightgray" stroke="black" points="414,-86.53 388,-86.53 388,-68.53 414,-68.53 414,-86.53"/>
<text text-anchor="middle" x="401" y="-75.33" font-family="Times,serif" font-size="9.00">&#45;7</text>
</g>
<!-- &#45;7&#45;&gt;0 -->
<g id="edge10" class="edge">
<title>&#45;7&#45;&gt;0</title>
<path fill="none" stroke="red" stroke-width="0.7" stroke-dasharray="1,5" d="M397.8,-68.29C395.09,-61.3 391.06,-50.91 387.34,-41.33"/>
<polygon fill="red" stroke="red" stroke-width="0.7" points="390.53,-39.87 383.65,-31.82 384,-42.41 390.53,-39.87"/>
</g>
<!-- &#45;7&#45;&gt;1 -->
<g id="edge13" class="edge">
<title>&#45;7&#45;&gt;1</title>
<path fill="none" stroke="green" stroke-width="0.36" d="M414.4,-71.32C417.22,-70.32 420.19,-69.33 423,-68.53 500.43,-46.37 594.29,-29.16 638.95,-21.55"/>
<polygon fill="green" stroke="green" stroke-width="0.36" points="639.67,-24.97 648.95,-19.86 638.51,-18.07 639.67,-24.97"/>
</g>
<!-- &#45;8 -->
<g id="node8" class="node">
<title>&#45;8</title>
<polygon fill="lightgray" stroke="black" points="1028,-86.53 1002,-86.53 1002,-68.53 1028,-68.53 1028,-86.53"/>
<text text-anchor="middle" x="1015" y="-75.33" font-family="Times,serif" font-size="9.00">&#45;8</text>
</g>
<!-- &#45;9 -->
<g id="node9" class="node">
<title>&#45;9</title>
<polygon fill="lightgray" stroke="black" points="458,-86.53 432,-86.53 432,-68.53 458,-68.53 458,-86.53"/>
<text text-anchor="middle" x="445" y="-75.33" font-family="Times,serif" font-size="9.00">&#45;9</text>
</g>
<!-- &#45;9&#45;&gt;0 -->
<g id="edge1" class="edge">
<title>&#45;9&#45;&gt;0</title>
<path fill="none" stroke="green" stroke-width="0.6" stroke-dasharray="1,5" d="M435.68,-68.29C425.89,-59.62 410.2,-45.74 397.65,-34.64"/>
<polygon fill="green" stroke="green" stroke-width="0.6" points="399.76,-31.84 389.95,-27.83 395.12,-37.08 399.76,-31.84"/>
</g>
<!-- &#45;9&#45;&gt;1 -->
<g id="edge21" class="edge">
<title>&#45;9&#45;&gt;1</title>
<path fill="none" stroke="red" stroke-width="0.25" d="M458.43,-71.41C461.24,-70.41 464.21,-69.39 467,-68.53 527.96,-49.6 600.93,-31.98 638.99,-23.16"/>
<polygon fill="red" stroke="red" stroke-width="0.25" points="640.24,-26.47 649.2,-20.81 638.67,-19.64 640.24,-26.47"/>
</g>
<!-- &#45;10 -->
<g id="node10" class="node">
<title>&#45;10</title>
<polygon fill="lightgray" stroke="black" points="1078,-86.53 1046,-86.53 1046,-68.53 1078,-68.53 1078,-86.53"/>
<text text-anchor="middle" x="1062" y="-75.33" font-family="Times,serif" font-size="9.00">&#45;10</text>
</g>
<!-- &#45;11 -->
<g id="node11" class="node">
<title>&#45;11</title>
<polygon fill="lightgray" stroke="black" points="320,-86.53 288,-86.53 288,-68.53 320,-68.53 320,-86.53"/>
<text text-anchor="middle" x="304" y="-75.33" font-family="Times,serif" font-size="9.00">&#45;11</text>
</g>
<!-- &#45;11&#45;&gt;0 -->
<g id="edge9" class="edge">
<title>&#45;11&#45;&gt;0</title>
<path fill="none" stroke="green" stroke-width="0.41" d="M314.29,-68.29C325.41,-59.38 343.41,-44.97 357.45,-33.72"/>
<polygon fill="green" stroke="green" stroke-width="0.41" points="359.96,-36.2 365.58,-27.21 355.58,-30.73 359.96,-36.2"/>
</g>
<!-- &#45;12 -->
<g id="node12" class="node">
<title>&#45;12</title>
<polygon fill="lightgray" stroke="black" points="1128,-86.53 1096,-86.53 1096,-68.53 1128,-68.53 1128,-86.53"/>
<text text-anchor="middle" x="1112" y="-75.33" font-family="Times,serif" font-size="9.00">&#45;12</text>
</g>
<!-- &#45;13 -->
<g id="node13" class="node">
<title>&#45;13</title>
<polygon fill="lightgray" stroke="black" points="370,-86.53 338,-86.53 338,-68.53 370,-68.53 370,-86.53"/>
<text text-anchor="middle" x="354" y="-75.33" font-family="Times,serif" font-size="9.00">&#45;13</text>
</g>
<!-- &#45;13&#45;&gt;0 -->
<g id="edge19" class="edge">
<title>&#45;13&#45;&gt;0</title>
<path fill="none" stroke="red" stroke-width="0.52" stroke-dasharray="1,5" d="M357.34,-68.29C360.17,-61.3 364.37,-50.91 368.25,-41.33"/>
<polygon fill="red" stroke="red" stroke-width="0.52" points="371.6,-42.4 372.11,-31.82 365.11,-39.77 371.6,-42.4"/>
</g>
<!-- &#45;14 -->
<g id="node14" class="node">
<title>&#45;14</title>
<polygon fill="lightgray" stroke="black" points="32,-86.53 0,-86.53 0,-68.53 32,-68.53 32,-86.53"/>
<text text-anchor="middle" x="16" y="-75.33" font-family="Times,serif" font-size="9.00">&#45;14</text>
</g>
<!-- &#45;14&#45;&gt;0 -->
<g id="edge22" class="edge">
<title>&#45;14&#45;&gt;0</title>
<path fill="none" stroke="red" stroke-width="0.17" d="M32.03,-70.98C34.99,-70.08 38.07,-69.21 41,-68.53 155.21,-41.75 294.6,-25.7 351.71,-19.83"/>
<polygon fill="red" stroke="red" stroke-width="0.17" points="352.09,-23.3 361.69,-18.82 351.39,-16.34 352.09,-23.3"/>
</g>
<!-- &#45;15 -->
<g id="node15" class="node">
<title>&#45;15</title>
<polygon fill="lightgray" stroke="black" points="1178,-86.53 1146,-86.53 1146,-68.53 1178,-68.53 1178,-86.53"/>
<text text-anchor="middle" x="1162" y="-75.33" font-family="Times,serif" font-size="9.00">&#45;15</text>
</g>
<!-- &#45;16 -->
<g id="node16" class="node">
<title>&#45;16</title>
<polygon fill="lightgray" stroke="black" points="1228,-86.53 1196,-86.53 1196,-68.53 1228,-68.53 1228,-86.53"/>
<text text-anchor="middle" x="1212" y="-75.33" font-family="Times,serif" font-size="9.00">&#45;16</text>
</g>
<!-- &#45;17 -->
<g id="node17" class="node">
<title>&#45;17</title>
<polygon fill="lightgray" stroke="black" points="82,-86.53 50,-86.53 50,-68.53 82,-68.53 82,-86.53"/>
<text text-anchor="middle" x="66" y="-75.33" font-family="Times,serif" font-size="9.00">&#45;17</text>
</g>
<!-- &#45;17&#45;&gt;0 -->
<g id="edge12" class="edge">
<title>&#45;17&#45;&gt;0</title>
<path fill="none" stroke="green" stroke-width="0.54" d="M82.05,-71.04C85.01,-70.13 88.08,-69.25 91,-68.53 185.97,-44.96 301.16,-27.75 351.89,-20.74"/>
<polygon fill="green" stroke="green" stroke-width="0.54" points="352.54,-24.18 361.98,-19.36 351.59,-17.25 352.54,-24.18"/>
</g>
<!-- &#45;18 -->
<g id="node18" class="node">
<title>&#45;18</title>
<polygon fill="lightgray" stroke="black" points="132,-86.53 100,-86.53 100,-68.53 132,-68.53 132,-86.53"/>
<text text-anchor="middle" x="116" y="-75.33" font-family="Times,serif" font-size="9.00">&#45;18</text>
</g>
<!-- &#45;18&#45;&gt;0 -->
<g id="edge5" class="edge">
<title>&#45;18&#45;&gt;0</title>
<path fill="none" stroke="red" stroke-width="0.48" d="M132.07,-71.13C135.03,-70.21 138.09,-69.3 141,-68.53 216.92,-48.22 308.14,-30.27 351.98,-22.04"/>
<polygon fill="red" stroke="red" stroke-width="0.48" points="352.87,-25.43 362.06,-20.16 351.59,-18.55 352.87,-25.43"/>
</g>
<!-- &#45;19 -->
<g id="node19" class="node">
<title>&#45;19</title>
<polygon fill="lightgray" stroke="black" points="182,-86.53 150,-86.53 150,-68.53 182,-68.53 182,-86.53"/>
<text text-anchor="middle" x="166" y="-75.33" font-family="Times,serif" font-size="9.00">&#45;19</text>
</g>
<!-- &#45;19&#45;&gt;0 -->
<g id="edge6" class="edge">
<title>&#45;19&#45;&gt;0</title>
<path fill="none" stroke="red" stroke-width="0.55" d="M182.11,-71.26C185.06,-70.33 188.12,-69.38 191,-68.53 248.57,-51.43 316.71,-33.27 352.73,-23.83"/>
<polygon fill="red" stroke="red" stroke-width="0.55" points="353.63,-27.21 362.42,-21.3 351.86,-20.44 353.63,-27.21"/>
</g>
<!-- &#45;20 -->
<g id="node20" class="node">
<title>&#45;20</title>
<polygon fill="lightgray" stroke="black" points="508,-86.53 476,-86.53 476,-68.53 508,-68.53 508,-86.53"/>
<text text-anchor="middle" x="492" y="-75.33" font-family="Times,serif" font-size="9.00">&#45;20</text>
</g>
<!-- &#45;20&#45;&gt;0 -->
<g id="edge28" class="edge">
<title>&#45;20&#45;&gt;0</title>
<path fill="none" stroke="red" stroke-width="0.16" stroke-dasharray="1,5" d="M476.15,-68.29C456.75,-58.2 423.74,-41.04 401.41,-29.43"/>
<polygon fill="red" stroke="red" stroke-width="0.16" points="402.77,-26.19 392.28,-24.69 399.54,-32.4 402.77,-26.19"/>
</g>
<!-- &#45;20&#45;&gt;1 -->
<g id="edge25" class="edge">
<title>&#45;20&#45;&gt;1</title>
<path fill="none" stroke="red" stroke-width="0.69" d="M508.28,-70.95C538.59,-60.57 603.89,-38.2 639.9,-25.86"/>
<polygon fill="red" stroke="red" stroke-width="0.69" points="641.31,-29.08 649.64,-22.53 639.05,-22.45 641.31,-29.08"/>
</g>
<!-- &#45;21 -->
<g id="node21" class="node">
<title>&#45;21</title>
<polygon fill="lightgray" stroke="black" points="1278,-86.53 1246,-86.53 1246,-68.53 1278,-68.53 1278,-86.53"/>
<text text-anchor="middle" x="1262" y="-75.33" font-family="Times,serif" font-size="9.00">&#45;21</text>
</g>
<!-- &#45;22 -->
<g id="node22" class="node">
<title>&#45;22</title>
<polygon fill="lightgray" stroke="black" points="558,-86.53 526,-86.53 526,-68.53 558,-68.53 558,-86.53"/>
<text text-anchor="middle" x="542" y="-75.33" font-family="Times,serif" font-size="9.00">&#45;22</text>
</g>
<!-- &#45;22&#45;&gt;0 -->
<g id="edge17" class="edge">
<title>&#45;22&#45;&gt;0</title>
<path fill="none" stroke="red" stroke-width="0.22" stroke-dasharray="1,5" d="M525.98,-70.74C497.34,-60.39 437.2,-38.66 403.07,-26.32"/>
<polygon fill="red" stroke="red" stroke-width="0.22" points="403.96,-22.92 393.37,-22.82 401.58,-29.51 403.96,-22.92"/>
</g>
<!-- &#45;22&#45;&gt;1 -->
<g id="edge3" class="edge">
<title>&#45;22&#45;&gt;1</title>
<path fill="none" stroke="green" stroke-width="0.2" d="M558.08,-68.78C579.26,-58.58 616.67,-40.55 641.14,-28.76"/>
<polygon fill="green" stroke="green" stroke-width="0.2" points="642.96,-31.77 650.45,-24.27 639.92,-25.46 642.96,-31.77"/>
</g>
<!-- &#45;23 -->
<g id="node23" class="node">
<title>&#45;23</title>
<polygon fill="lightgray" stroke="black" points="1328,-86.53 1296,-86.53 1296,-68.53 1328,-68.53 1328,-86.53"/>
<text text-anchor="middle" x="1312" y="-75.33" font-family="Times,serif" font-size="9.00">&#45;23</text>
</g>
<!-- &#45;24 -->
<g id="node24" class="node">
<title>&#45;24</title>
<polygon fill="lightgray" stroke="black" points="608,-86.53 576,-86.53 576,-68.53 608,-68.53 608,-86.53"/>
<text text-anchor="middle" x="592" y="-75.33" font-family="Times,serif" font-size="9.00">&#45;24</text>
</g>
<!-- &#45;24&#45;&gt;0 -->
<g id="edge20" class="edge">
<title>&#45;24&#45;&gt;0</title>
<path fill="none" stroke="red" stroke-width="0.72" d="M575.89,-71.26C572.94,-70.32 569.88,-69.38 567,-68.53 508.84,-51.34 439.96,-33.21 403.54,-23.8"/>
<polygon fill="red" stroke="red" stroke-width="0.72" points="404.31,-20.39 393.75,-21.28 402.56,-27.16 404.31,-20.39"/>
</g>
<!-- &#45;24&#45;&gt;1 -->
<g id="edge14" class="edge">
<title>&#45;24&#45;&gt;1</title>
<path fill="none" stroke="green" stroke-width="0.3" d="M602.15,-68.29C613.05,-59.44 630.67,-45.14 644.48,-33.92"/>
<polygon fill="green" stroke="green" stroke-width="0.3" points="646.93,-36.44 652.49,-27.42 642.52,-31 646.93,-36.44"/>
</g>
<!-- &#45;25 -->
<g id="node25" class="node">
<title>&#45;25</title>
<polygon fill="lightgray" stroke="black" points="840,-86.53 808,-86.53 808,-68.53 840,-68.53 840,-86.53"/>
<text text-anchor="middle" x="824" y="-75.33" font-family="Times,serif" font-size="9.00">&#45;25</text>
</g>
<!-- &#45;25&#45;&gt;1 -->
<g id="edge15" class="edge">
<title>&#45;25&#45;&gt;1</title>
<path fill="none" stroke="red" stroke-width="0.21" stroke-dasharray="1,5" d="M807.88,-70.52C780.1,-60.16 723.01,-38.88 690.02,-26.59"/>
<polygon fill="red" stroke="red" stroke-width="0.21" points="690.82,-23.15 680.23,-22.94 688.37,-29.71 690.82,-23.15"/>
</g>
<!-- &#45;26 -->
<g id="node26" class="node">
<title>&#45;26</title>
<polygon fill="lightgray" stroke="black" points="658,-86.53 626,-86.53 626,-68.53 658,-68.53 658,-86.53"/>
<text text-anchor="middle" x="642" y="-75.33" font-family="Times,serif" font-size="9.00">&#45;26</text>
</g>
<!-- &#45;26&#45;&gt;0 -->
<g id="edge2" class="edge">
<title>&#45;26&#45;&gt;0</title>
<path fill="none" stroke="green" stroke-width="0.54" d="M625.93,-71.13C622.98,-70.21 619.91,-69.3 617,-68.53 540.29,-48.08 448.06,-30.14 403.96,-21.96"/>
<polygon fill="green" stroke="green" stroke-width="0.54" points="404.54,-18.51 394.07,-20.14 403.27,-25.4 404.54,-18.51"/>
</g>
<!-- &#45;26&#45;&gt;1 -->
<g id="edge18" class="edge">
<title>&#45;26&#45;&gt;1</title>
<path fill="none" stroke="red" stroke-width="0.34" stroke-dasharray="1,5" d="M645.2,-68.29C647.91,-61.3 651.94,-50.91 655.66,-41.33"/>
<polygon fill="red" stroke="red" stroke-width="0.34" points="659,-42.41 659.35,-31.82 652.47,-39.87 659,-42.41"/>
</g>
<!-- &#45;27 -->
<g id="node27" class="node">
<title>&#45;27</title>
<polygon fill="lightgray" stroke="black" points="890,-86.53 858,-86.53 858,-68.53 890,-68.53 890,-86.53"/>
<text text-anchor="middle" x="874" y="-75.33" font-family="Times,serif" font-size="9.00">&#45;27</text>
</g>
<!-- &#45;27&#45;&gt;1 -->
<g id="edge4" class="edge">
<title>&#45;27&#45;&gt;1</title>
<path fill="none" stroke="red" stroke-width="0.17" d="M857.89,-71.27C854.94,-70.34 851.88,-69.39 849,-68.53 792.86,-51.73 726.55,-33.69 690.86,-24.14"/>
<polygon fill="red" stroke="red" stroke-width="0.17" points="691.37,-20.65 680.81,-21.45 689.57,-27.41 691.37,-20.65"/>
</g>
<!-- &#45;28 -->
<g id="node28" class="node">
<title>&#45;28</title>
<polygon fill="lightgray" stroke="black" points="940,-86.53 908,-86.53 908,-68.53 940,-68.53 940,-86.53"/>
<text text-anchor="middle" x="924" y="-75.33" font-family="Times,serif" font-size="9.00">&#45;28</text>
</g>
<!-- &#45;28&#45;&gt;1 -->
<g id="edge16" class="edge">
<title>&#45;28&#45;&gt;1</title>
<path fill="none" stroke="red" stroke-width="0.14" d="M907.93,-71.14C904.97,-70.22 901.9,-69.31 899,-68.53 824.21,-48.42 734.41,-30.44 691.01,-22.13"/>
<polygon fill="red" stroke="red" stroke-width="0.14" points="691.49,-18.66 681.01,-20.23 690.18,-25.54 691.49,-18.66"/>
</g>
</g>
</svg>
