<?xml version="1.0" encoding="UTF-8" standalone="no"?>
<!DOCTYPE svg PUBLIC "-//W3C//DTD SVG 1.1//EN"
 "http://www.w3.org/Graphics/SVG/1.1/DTD/svg11.dtd">
<!-- Generated by graphviz version 9.0.0 (20230911.1827)
 -->
<!-- Pages: 1 -->
<svg width="668pt" height="176pt"
 viewBox="0.00 0.00 668.00 176.32" xmlns="http://www.w3.org/2000/svg" xmlns:xlink="http://www.w3.org/1999/xlink">
<g id="graph0" class="graph" transform="scale(1 1) rotate(0) translate(4 172.32)">
<polygon fill="white" stroke="none" points="-4,4 -4,-172.32 664,-172.32 664,4 -4,4"/>
<!-- &#45;1 -->
<g id="node1" class="node">
<title>&#45;1</title>
<polygon fill="lightgray" stroke="black" points="67.75,-168.32 44.25,-168.32 44.25,-149.07 67.75,-149.07 67.75,-168.32"/>
<text text-anchor="middle" x="56" y="-155.77" font-family="Times New Roman,serif" font-size="9.00">&#45;1</text>
</g>
<!-- &#45;2 -->
<g id="node2" class="node">
<title>&#45;2</title>
<polygon fill="lightgray" stroke="black" points="109.75,-168.32 86.25,-168.32 86.25,-149.07 109.75,-149.07 109.75,-168.32"/>
<text text-anchor="middle" x="98" y="-155.77" font-family="Times New Roman,serif" font-size="9.00">&#45;2</text>
</g>
<!-- &#45;3 -->
<g id="node3" class="node">
<title>&#45;3</title>
<polygon fill="lightgray" stroke="black" points="349.75,-98.66 326.25,-98.66 326.25,-79.41 349.75,-79.41 349.75,-98.66"/>
<text text-anchor="middle" x="338" y="-86.11" font-family="Times New Roman,serif" font-size="9.00">&#45;3</text>
</g>
<!-- 0 -->
<g id="node21" class="node">
<title>0</title>
<ellipse fill="lightblue" stroke="black" cx="229" cy="-14.5" rx="14.5" ry="14.5"/>
<text text-anchor="middle" x="229" y="-11.57" font-family="Times New Roman,serif" font-size="9.00">0</text>
</g>
<!-- &#45;3&#45;&gt;0 -->
<g id="edge7" class="edge">
<title>&#45;3&#45;&gt;0</title>
<path fill="none" stroke="green" stroke-width="0.86" d="M331.2,-79.31C327.34,-74.71 322.25,-69.17 317,-64.99 296.91,-49.01 271.01,-35.12 252.52,-26.15"/>
<polygon fill="green" stroke="green" stroke-width="0.86" points="254.05,-23 243.51,-21.9 251.06,-29.33 254.05,-23"/>
</g>
<!-- 1 -->
<g id="node22" class="node">
<title>1</title>
<ellipse fill="lightblue" stroke="black" cx="493" cy="-14.5" rx="14.5" ry="14.5"/>
<text text-anchor="middle" x="493" y="-11.57" font-family="Times New Roman,serif" font-size="9.00">1</text>
</g>
<!-- &#45;3&#45;&gt;1 -->
<g id="edge9" class="edge">
<title>&#45;3&#45;&gt;1</title>
<path fill="none" stroke="red" stroke-width="0.11" d="M344.55,-78.96C348.33,-74.26 353.43,-68.74 359,-64.99 393.65,-41.65 440.73,-27.59 468.87,-20.71"/>
<polygon fill="red" stroke="red" stroke-width="0.11" points="469.57,-24.14 478.51,-18.46 467.97,-17.33 469.57,-24.14"/>
</g>
<!-- &#45;4 -->
<g id="node4" class="node">
<title>&#45;4</title>
<polygon fill="lightgray" stroke="black" points="483.75,-98.66 460.25,-98.66 460.25,-79.41 483.75,-79.41 483.75,-98.66"/>
<text text-anchor="middle" x="472" y="-86.11" font-family="Times New Roman,serif" font-size="9.00">&#45;4</text>
</g>
<!-- &#45;4&#45;&gt;1 -->
<g id="edge4" class="edge">
<title>&#45;4&#45;&gt;1</title>
<path fill="none" stroke="green" stroke-width="0.17" d="M474.58,-79.14C477.47,-69.13 482.3,-52.47 486.28,-38.71"/>
<polygon fill="green" stroke="green" stroke-width="0.17" points="489.63,-39.73 489.05,-29.15 482.91,-37.78 489.63,-39.73"/>
</g>
<!-- &#45;5 -->
<g id="node5" class="node">
<title>&#45;5</title>
<polygon fill="lightgray" stroke="black" points="525.75,-98.66 502.25,-98.66 502.25,-79.41 525.75,-79.41 525.75,-98.66"/>
<text text-anchor="middle" x="514" y="-86.11" font-family="Times New Roman,serif" font-size="9.00">&#45;5</text>
</g>
<!-- &#45;5&#45;&gt;1 -->
<g id="edge17" class="edge">
<title>&#45;5&#45;&gt;1</title>
<path fill="none" stroke="green" stroke-width="0.29" stroke-dasharray="1,5" d="M511.42,-79.14C508.53,-69.13 503.7,-52.47 499.72,-38.71"/>
<polygon fill="green" stroke="green" stroke-width="0.29" points="503.15,-37.96 497,-29.33 496.42,-39.91 503.15,-37.96"/>
</g>
<!-- &#45;6 -->
<g id="node6" class="node">
<title>&#45;6</title>
<polygon fill="lightgray" stroke="black" points="567.75,-98.66 544.25,-98.66 544.25,-79.41 567.75,-79.41 567.75,-98.66"/>
<text text-anchor="middle" x="556" y="-86.11" font-family="Times New Roman,serif" font-size="9.00">&#45;6</text>
</g>
<!-- &#45;6&#45;&gt;1 -->
<g id="edge15" class="edge">
<title>&#45;6&#45;&gt;1</title>
<path fill="none" stroke="red" stroke-width="0.31" d="M548.27,-79.14C538.5,-67.88 521.41,-48.21 508.82,-33.71"/>
<polygon fill="red" stroke="red" stroke-width="0.31" points="511.52,-31.48 502.32,-26.22 506.23,-36.07 511.52,-31.48"/>
</g>
<!-- &#45;7 -->
<g id="node7" class="node">
<title>&#45;7</title>
<polygon fill="lightgray" stroke="black" points="219.75,-98.66 196.25,-98.66 196.25,-79.41 219.75,-79.41 219.75,-98.66"/>
<text text-anchor="middle" x="208" y="-86.11" font-family="Times New Roman,serif" font-size="9.00">&#45;7</text>
</g>
<!-- &#45;7&#45;&gt;0 -->
<g id="edge21" class="edge">
<title>&#45;7&#45;&gt;0</title>
<path fill="none" stroke="green" stroke-width="0.28" d="M210.58,-79.14C213.47,-69.13 218.3,-52.47 222.28,-38.71"/>
<polygon fill="green" stroke="green" stroke-width="0.28" points="225.58,-39.89 225,-29.31 218.86,-37.94 225.58,-39.89"/>
</g>
<!-- &#45;8 -->
<g id="node8" class="node">
<title>&#45;8</title>
<polygon fill="lightgray" stroke="black" points="261.75,-98.66 238.25,-98.66 238.25,-79.41 261.75,-79.41 261.75,-98.66"/>
<text text-anchor="middle" x="250" y="-86.11" font-family="Times New Roman,serif" font-size="9.00">&#45;8</text>
</g>
<!-- &#45;8&#45;&gt;0 -->
<g id="edge5" class="edge">
<title>&#45;8&#45;&gt;0</title>
<path fill="none" stroke="green" stroke-width="0.19" d="M247.42,-79.14C244.53,-69.13 239.7,-52.47 235.72,-38.71"/>
<polygon fill="green" stroke="green" stroke-width="0.19" points="239.11,-37.82 232.96,-29.19 232.38,-39.77 239.11,-37.82"/>
</g>
<!-- &#45;9 -->
<g id="node9" class="node">
<title>&#45;9</title>
<polygon fill="lightgray" stroke="black" points="197.75,-168.32 174.25,-168.32 174.25,-149.07 197.75,-149.07 197.75,-168.32"/>
<text text-anchor="middle" x="186" y="-155.77" font-family="Times New Roman,serif" font-size="9.00">&#45;9</text>
</g>
<!-- &#45;10 -->
<g id="node10" class="node">
<title>&#45;10</title>
<polygon fill="lightgray" stroke="black" points="308,-98.66 280,-98.66 280,-79.41 308,-79.41 308,-98.66"/>
<text text-anchor="middle" x="294" y="-86.11" font-family="Times New Roman,serif" font-size="9.00">&#45;10</text>
</g>
<!-- &#45;10&#45;&gt;0 -->
<g id="edge18" class="edge">
<title>&#45;10&#45;&gt;0</title>
<path fill="none" stroke="red" stroke-width="0.63" d="M286.03,-79.14C275.94,-67.88 258.31,-48.21 245.32,-33.71"/>
<polygon fill="red" stroke="red" stroke-width="0.63" points="248.21,-31.69 238.93,-26.57 242.99,-36.36 248.21,-31.69"/>
</g>
<!-- &#45;11 -->
<g id="node11" class="node">
<title>&#45;11</title>
<polygon fill="lightgray" stroke="black" points="244,-168.32 216,-168.32 216,-149.07 244,-149.07 244,-168.32"/>
<text text-anchor="middle" x="230" y="-155.77" font-family="Times New Roman,serif" font-size="9.00">&#45;11</text>
</g>
<!-- &#45;12 -->
<g id="node12" class="node">
<title>&#45;12</title>
<polygon fill="lightgray" stroke="black" points="290,-168.32 262,-168.32 262,-149.07 290,-149.07 290,-168.32"/>
<text text-anchor="middle" x="276" y="-155.77" font-family="Times New Roman,serif" font-size="9.00">&#45;12</text>
</g>
<!-- &#45;13 -->
<g id="node13" class="node">
<title>&#45;13</title>
<polygon fill="lightgray" stroke="black" points="614,-98.66 586,-98.66 586,-79.41 614,-79.41 614,-98.66"/>
<text text-anchor="middle" x="600" y="-86.11" font-family="Times New Roman,serif" font-size="9.00">&#45;13</text>
</g>
<!-- &#45;13&#45;&gt;1 -->
<g id="edge10" class="edge">
<title>&#45;13&#45;&gt;1</title>
<path fill="none" stroke="green" stroke-width="0.63" d="M591.96,-78.95C587.75,-74.47 582.36,-69.15 577,-64.99 557.43,-49.82 532.8,-35.83 515.28,-26.62"/>
<polygon fill="green" stroke="green" stroke-width="0.63" points="517.22,-23.68 506.72,-22.21 514.01,-29.9 517.22,-23.68"/>
</g>
<!-- &#45;14 -->
<g id="node14" class="node">
<title>&#45;14</title>
<polygon fill="lightgray" stroke="black" points="396,-98.66 368,-98.66 368,-79.41 396,-79.41 396,-98.66"/>
<text text-anchor="middle" x="382" y="-86.11" font-family="Times New Roman,serif" font-size="9.00">&#45;14</text>
</g>
<!-- &#45;14&#45;&gt;0 -->
<g id="edge6" class="edge">
<title>&#45;14&#45;&gt;0</title>
<path fill="none" stroke="green" stroke-width="0.15" d="M374.65,-79.01C370.46,-74.33 364.88,-68.8 359,-64.99 325.19,-43.08 280.23,-28.7 253.01,-21.35"/>
<polygon fill="green" stroke="green" stroke-width="0.15" points="253.95,-17.98 243.39,-18.85 252.19,-24.75 253.95,-17.98"/>
</g>
<!-- &#45;14&#45;&gt;1 -->
<g id="edge2" class="edge">
<title>&#45;14&#45;&gt;1</title>
<path fill="none" stroke="red" stroke-width="0.25" stroke-dasharray="1,5" d="M389.59,-79.35C393.85,-74.77 399.42,-69.23 405,-64.99 425.73,-49.25 452.02,-35.12 470.45,-26.02"/>
<polygon fill="red" stroke="red" stroke-width="0.25" points="471.97,-29.18 479.45,-21.67 468.92,-22.87 471.97,-29.18"/>
</g>
<!-- &#45;15 -->
<g id="node15" class="node">
<title>&#45;15</title>
<polygon fill="lightgray" stroke="black" points="28,-98.66 0,-98.66 0,-79.41 28,-79.41 28,-98.66"/>
<text text-anchor="middle" x="14" y="-86.11" font-family="Times New Roman,serif" font-size="9.00">&#45;15</text>
</g>
<!-- &#45;15&#45;&gt;0 -->
<g id="edge14" class="edge">
<title>&#45;15&#45;&gt;0</title>
<path fill="none" stroke="green" stroke-width="0.18" d="M20.79,-79.2C24.97,-74.34 30.72,-68.58 37,-64.99 91.67,-33.74 166.25,-21.88 204.37,-17.65"/>
<polygon fill="green" stroke="green" stroke-width="0.18" points="204.68,-21.14 214.27,-16.64 203.97,-14.18 204.68,-21.14"/>
</g>
<!-- &#45;16 -->
<g id="node16" class="node">
<title>&#45;16</title>
<polygon fill="lightgray" stroke="black" points="660,-98.66 632,-98.66 632,-79.41 660,-79.41 660,-98.66"/>
<text text-anchor="middle" x="646" y="-86.11" font-family="Times New Roman,serif" font-size="9.00">&#45;16</text>
</g>
<!-- &#45;16&#45;&gt;1 -->
<g id="edge11" class="edge">
<title>&#45;16&#45;&gt;1</title>
<path fill="none" stroke="red" stroke-width="0.54" stroke-dasharray="1,5" d="M638.65,-79.01C634.46,-74.33 628.88,-68.8 623,-64.99 589.34,-43.17 544.62,-28.83 517.38,-21.45"/>
<polygon fill="red" stroke="red" stroke-width="0.54" points="518.53,-18.13 507.97,-19 516.76,-24.9 518.53,-18.13"/>
</g>
<!-- &#45;17 -->
<g id="node17" class="node">
<title>&#45;17</title>
<polygon fill="lightgray" stroke="black" points="336,-168.32 308,-168.32 308,-149.07 336,-149.07 336,-168.32"/>
<text text-anchor="middle" x="322" y="-155.77" font-family="Times New Roman,serif" font-size="9.00">&#45;17</text>
</g>
<!-- &#45;18 -->
<g id="node18" class="node">
<title>&#45;18</title>
<polygon fill="lightgray" stroke="black" points="74,-98.66 46,-98.66 46,-79.41 74,-79.41 74,-98.66"/>
<text text-anchor="middle" x="60" y="-86.11" font-family="Times New Roman,serif" font-size="9.00">&#45;18</text>
</g>
<!-- &#45;18&#45;&gt;0 -->
<g id="edge12" class="edge">
<title>&#45;18&#45;&gt;0</title>
<path fill="none" stroke="red" stroke-width="0.86" d="M67.29,-78.93C71.47,-74.22 77.05,-68.69 83,-64.99 121.72,-40.9 173.57,-26.95 203.92,-20.32"/>
<polygon fill="red" stroke="red" stroke-width="0.86" points="204.45,-23.78 213.52,-18.32 203.02,-16.93 204.45,-23.78"/>
</g>
<!-- &#45;19 -->
<g id="node19" class="node">
<title>&#45;19</title>
<polygon fill="lightgray" stroke="black" points="442,-98.66 414,-98.66 414,-79.41 442,-79.41 442,-98.66"/>
<text text-anchor="middle" x="428" y="-86.11" font-family="Times New Roman,serif" font-size="9.00">&#45;19</text>
</g>
<!-- &#45;19&#45;&gt;0 -->
<g id="edge3" class="edge">
<title>&#45;19&#45;&gt;0</title>
<path fill="none" stroke="red" stroke-width="0.31" d="M421.18,-79.26C416.99,-74.41 411.24,-68.65 405,-64.99 355.87,-36.19 289.14,-23.45 253.63,-18.4"/>
<polygon fill="red" stroke="red" stroke-width="0.31" points="254.5,-14.99 244.13,-17.13 253.58,-21.92 254.5,-14.99"/>
</g>
<!-- &#45;19&#45;&gt;1 -->
<g id="edge13" class="edge">
<title>&#45;19&#45;&gt;1</title>
<path fill="none" stroke="red" stroke-width="0.42" d="M435.97,-79.14C446.06,-67.88 463.69,-48.21 476.68,-33.71"/>
<polygon fill="red" stroke="red" stroke-width="0.42" points="479.21,-36.13 483.28,-26.35 474,-31.46 479.21,-36.13"/>
</g>
<!-- &#45;20 -->
<g id="node20" class="node">
<title>&#45;20</title>
<polygon fill="lightgray" stroke="black" points="156,-168.32 128,-168.32 128,-149.07 156,-149.07 156,-168.32"/>
<text text-anchor="middle" x="142" y="-155.77" font-family="Times New Roman,serif" font-size="9.00">&#45;20</text>
</g>
<!-- &#45;20&#45;&gt;0 -->
<g id="edge16" class="edge">
<title>&#45;20&#45;&gt;0</title>
<path fill="none" stroke="red" stroke-width="0.39" stroke-dasharray="1,5" d="M145.51,-148.61C152.31,-131.53 168.24,-93.77 187,-64.99 194.35,-53.72 203.99,-42.19 212.17,-33.1"/>
<polygon fill="red" stroke="red" stroke-width="0.39" points="214.56,-35.67 218.77,-25.95 209.42,-30.92 214.56,-35.67"/>
</g>
<!-- 3366 -->
<g id="node23" class="node">
<title>3366</title>
<ellipse fill="white" stroke="black" cx="116" cy="-89.03" rx="24.04" ry="24.04"/>
<text text-anchor="middle" x="116" y="-86.11" font-family="Times New Roman,serif" font-size="9.00">3366</text>
</g>
<!-- &#45;20&#45;&gt;3366 -->
<g id="edge19" class="edge">
<title>&#45;20&#45;&gt;3366</title>
<path fill="none" stroke="green" stroke-width="0.24" d="M138.6,-148.85C135.89,-141.79 131.92,-131.46 128.06,-121.41"/>
<polygon fill="green" stroke="green" stroke-width="0.24" points="131.42,-120.4 124.56,-112.32 124.88,-122.91 131.42,-120.4"/>
</g>
<!-- 0&#45;&gt;0 -->
<g id="edge1" class="edge">
<title>0&#45;&gt;0</title>
<path fill="none" stroke="green" stroke-width="0.64" stroke-dasharray="1,5" d="M238.98,-25.19C249.56,-31.89 261.5,-28.33 261.5,-14.5 261.5,-5.2 256.11,-0.54 249.36,-0.52"/>
<polygon fill="green" stroke="green" stroke-width="0.64" points="248.39,2.84 239.9,-3.51 250.49,-3.83 248.39,2.84"/>
</g>
<!-- 1&#45;&gt;1 -->
<g id="edge8" class="edge">
<title>1&#45;&gt;1</title>
<path fill="none" stroke="red" stroke-width="0.37" d="M502.98,-25.19C513.56,-31.89 525.5,-28.33 525.5,-14.5 525.5,-4.99 519.86,-0.33 512.89,-0.53"/>
<polygon fill="red" stroke="red" stroke-width="0.37" points="511.91,2.83 503.51,-3.62 514.1,-3.81 511.91,2.83"/>
</g>
<!-- 3366&#45;&gt;0 -->
<g id="edge20" class="edge">
<title>3366&#45;&gt;0</title>
<path fill="none" stroke="green" stroke-width="0.14" d="M135.94,-75.23C156.36,-62.12 187.95,-41.85 208.55,-28.62"/>
<polygon fill="green" stroke="green" stroke-width="0.14" points="210.21,-31.72 216.73,-23.37 206.43,-25.83 210.21,-31.72"/>
</g>
</g>
</svg>
