<?xml version="1.0" encoding="UTF-8" standalone="no"?>
<!DOCTYPE svg PUBLIC "-//W3C//DTD SVG 1.1//EN"
 "http://www.w3.org/Graphics/SVG/1.1/DTD/svg11.dtd">
<!-- Generated by graphviz version 2.43.0 (0)
 -->
<!-- Title: %3 Pages: 1 -->
<svg width="368pt" height="189pt"
 viewBox="0.00 0.00 368.00 188.51" xmlns="http://www.w3.org/2000/svg" xmlns:xlink="http://www.w3.org/1999/xlink">
<g id="graph0" class="graph" transform="scale(1 1) rotate(0) translate(4 184.51)">
<title>%3</title>
<polygon fill="white" stroke="transparent" points="-4,4 -4,-184.51 364,-184.51 364,4 -4,4"/>
<!-- &#45;1 -->
<g id="node1" class="node">
<title>&#45;1</title>
<polygon fill="lightgray" stroke="black" points="184,-106.52 158,-106.52 158,-88.52 184,-88.52 184,-106.52"/>
<text text-anchor="middle" x="171" y="-95.32" font-family="Times,serif" font-size="9.00">&#45;1</text>
</g>
<!-- 0 -->
<g id="node13" class="node">
<title>0</title>
<ellipse fill="lightblue" stroke="black" cx="111" cy="-16.26" rx="16.03" ry="16.03"/>
<text text-anchor="middle" x="111" y="-14.06" font-family="Times,serif" font-size="9.00">0</text>
</g>
<!-- &#45;1&#45;&gt;0 -->
<g id="edge4" class="edge">
<title>&#45;1&#45;&gt;0</title>
<path fill="none" stroke="green" stroke-width="0.42" stroke-dasharray="1,5" d="M164.8,-88.34C155.83,-76.48 138.92,-54.15 126.45,-37.67"/>
<polygon fill="green" stroke="green" stroke-width="0.42" points="129.22,-35.53 120.39,-29.67 123.64,-39.75 129.22,-35.53"/>
</g>
<!-- 1 -->
<g id="node14" class="node">
<title>1</title>
<ellipse fill="lightblue" stroke="black" cx="259" cy="-16.26" rx="16.03" ry="16.03"/>
<text text-anchor="middle" x="259" y="-14.06" font-family="Times,serif" font-size="9.00">1</text>
</g>
<!-- &#45;1&#45;&gt;1 -->
<g id="edge6" class="edge">
<title>&#45;1&#45;&gt;1</title>
<path fill="none" stroke="green" stroke-width="0.36" d="M176.5,-88.49C180.69,-82.65 186.78,-74.72 193,-68.53 206.76,-54.85 224.15,-41.47 237.62,-31.82"/>
<polygon fill="green" stroke="green" stroke-width="0.36" points="239.67,-34.66 245.84,-26.04 235.64,-28.93 239.67,-34.66"/>
</g>
<!-- &#45;2 -->
<g id="node2" class="node">
<title>&#45;2</title>
<polygon fill="lightgray" stroke="black" points="272,-106.52 246,-106.52 246,-88.52 272,-88.52 272,-106.52"/>
<text text-anchor="middle" x="259" y="-95.32" font-family="Times,serif" font-size="9.00">&#45;2</text>
</g>
<!-- &#45;2&#45;&gt;1 -->
<g id="edge3" class="edge">
<title>&#45;2&#45;&gt;1</title>
<path fill="none" stroke="green" stroke-width="0.61" d="M259,-88.34C259,-77.67 259,-58.51 259,-42.77"/>
<polygon fill="green" stroke="green" stroke-width="0.61" points="262.5,-42.57 259,-32.57 255.5,-42.57 262.5,-42.57"/>
</g>
<!-- &#45;3 -->
<g id="node3" class="node">
<title>&#45;3</title>
<polygon fill="lightgray" stroke="black" points="142,-180.51 116,-180.51 116,-162.51 142,-162.51 142,-180.51"/>
<text text-anchor="middle" x="129" y="-169.31" font-family="Times,serif" font-size="9.00">&#45;3</text>
</g>
<!-- &#45;4 -->
<g id="node4" class="node">
<title>&#45;4</title>
<polygon fill="lightgray" stroke="black" points="26,-106.52 0,-106.52 0,-88.52 26,-88.52 26,-106.52"/>
<text text-anchor="middle" x="13" y="-95.32" font-family="Times,serif" font-size="9.00">&#45;4</text>
</g>
<!-- &#45;4&#45;&gt;0 -->
<g id="edge8" class="edge">
<title>&#45;4&#45;&gt;0</title>
<path fill="none" stroke="red" stroke-width="0.18" d="M20.21,-88.3C25.45,-82.51 32.86,-74.72 40,-68.53 55.69,-54.92 74.86,-41.23 89.32,-31.43"/>
<polygon fill="red" stroke="red" stroke-width="0.18" points="91.28,-34.33 97.65,-25.86 87.39,-28.51 91.28,-34.33"/>
</g>
<!-- &#45;5 -->
<g id="node5" class="node">
<title>&#45;5</title>
<polygon fill="lightgray" stroke="black" points="186,-180.51 160,-180.51 160,-162.51 186,-162.51 186,-180.51"/>
<text text-anchor="middle" x="173" y="-169.31" font-family="Times,serif" font-size="9.00">&#45;5</text>
</g>
<!-- &#45;6 -->
<g id="node6" class="node">
<title>&#45;6</title>
<polygon fill="lightgray" stroke="black" points="316,-106.52 290,-106.52 290,-88.52 316,-88.52 316,-106.52"/>
<text text-anchor="middle" x="303" y="-95.32" font-family="Times,serif" font-size="9.00">&#45;6</text>
</g>
<!-- &#45;6&#45;&gt;1 -->
<g id="edge7" class="edge">
<title>&#45;6&#45;&gt;1</title>
<path fill="none" stroke="red" stroke-width="0.49" d="M298.46,-88.34C292.14,-76.96 280.47,-55.95 271.46,-39.7"/>
<polygon fill="red" stroke="red" stroke-width="0.49" points="274.43,-37.85 266.52,-30.8 268.31,-41.25 274.43,-37.85"/>
</g>
<!-- &#45;7 -->
<g id="node7" class="node">
<title>&#45;7</title>
<polygon fill="lightgray" stroke="black" points="228,-106.52 202,-106.52 202,-88.52 228,-88.52 228,-106.52"/>
<text text-anchor="middle" x="215" y="-95.32" font-family="Times,serif" font-size="9.00">&#45;7</text>
</g>
<!-- &#45;7&#45;&gt;0 -->
<g id="edge9" class="edge">
<title>&#45;7&#45;&gt;0</title>
<path fill="none" stroke="green" stroke-width="0.16" d="M209.68,-88.3C205.59,-82.36 199.53,-74.39 193,-68.53 175.08,-52.44 151.5,-38.28 134.23,-28.95"/>
<polygon fill="green" stroke="green" stroke-width="0.16" points="135.83,-25.84 125.35,-24.28 132.57,-32.03 135.83,-25.84"/>
</g>
<!-- &#45;7&#45;&gt;1 -->
<g id="edge1" class="edge">
<title>&#45;7&#45;&gt;1</title>
<path fill="none" stroke="red" stroke-width="0.12" stroke-dasharray="1,5" d="M219.54,-88.34C225.86,-76.96 237.53,-55.95 246.54,-39.7"/>
<polygon fill="red" stroke="red" stroke-width="0.12" points="249.69,-41.25 251.48,-30.8 243.57,-37.85 249.69,-41.25"/>
</g>
<!-- &#45;8 -->
<g id="node8" class="node">
<title>&#45;8</title>
<polygon fill="lightgray" stroke="black" points="230,-180.51 204,-180.51 204,-162.51 230,-162.51 230,-180.51"/>
<text text-anchor="middle" x="217" y="-169.31" font-family="Times,serif" font-size="9.00">&#45;8</text>
</g>
<!-- &#45;9 -->
<g id="node9" class="node">
<title>&#45;9</title>
<polygon fill="lightgray" stroke="black" points="360,-106.52 334,-106.52 334,-88.52 360,-88.52 360,-106.52"/>
<text text-anchor="middle" x="347" y="-95.32" font-family="Times,serif" font-size="9.00">&#45;9</text>
</g>
<!-- &#45;9&#45;&gt;1 -->
<g id="edge2" class="edge">
<title>&#45;9&#45;&gt;1</title>
<path fill="none" stroke="red" stroke-width="0.4" d="M341.5,-88.49C337.31,-82.65 331.22,-74.72 325,-68.53 311.24,-54.85 293.85,-41.47 280.38,-31.82"/>
<polygon fill="red" stroke="red" stroke-width="0.4" points="282.36,-28.93 272.16,-26.04 278.33,-34.66 282.36,-28.93"/>
</g>
<!-- &#45;10 -->
<g id="node10" class="node">
<title>&#45;10</title>
<polygon fill="lightgray" stroke="black" points="98,-180.51 66,-180.51 66,-162.51 98,-162.51 98,-180.51"/>
<text text-anchor="middle" x="82" y="-169.31" font-family="Times,serif" font-size="9.00">&#45;10</text>
</g>
<!-- &#45;10&#45;&gt;0 -->
<g id="edge10" class="edge">
<title>&#45;10&#45;&gt;0</title>
<path fill="none" stroke="red" stroke-width="0.12" stroke-dasharray="1,5" d="M79.12,-162.32C73.38,-144.68 61.96,-101.94 73,-68.53 76.99,-56.45 85.05,-44.89 92.72,-35.81"/>
<polygon fill="red" stroke="red" stroke-width="0.12" points="95.45,-38.01 99.53,-28.24 90.24,-33.33 95.45,-38.01"/>
</g>
<!-- 2262 -->
<g id="node15" class="node">
<title>2262</title>
<ellipse fill="white" stroke="black" cx="111" cy="-97.52" rx="28.98" ry="28.98"/>
<text text-anchor="middle" x="111" y="-95.32" font-family="Times,serif" font-size="9.00">2262</text>
</g>
<!-- &#45;10&#45;&gt;2262 -->
<g id="edge11" class="edge">
<title>&#45;10&#45;&gt;2262</title>
<path fill="none" stroke="red" stroke-width="0.23" d="M85.33,-162.25C88.15,-155.24 92.41,-144.66 96.65,-134.13"/>
<polygon fill="red" stroke="red" stroke-width="0.23" points="100.01,-135.16 100.5,-124.57 93.52,-132.54 100.01,-135.16"/>
</g>
<!-- &#45;11 -->
<g id="node11" class="node">
<title>&#45;11</title>
<polygon fill="lightgray" stroke="black" points="280,-180.51 248,-180.51 248,-162.51 280,-162.51 280,-180.51"/>
<text text-anchor="middle" x="264" y="-169.31" font-family="Times,serif" font-size="9.00">&#45;11</text>
</g>
<!-- &#45;12 -->
<g id="node12" class="node">
<title>&#45;12</title>
<polygon fill="lightgray" stroke="black" points="330,-180.51 298,-180.51 298,-162.51 330,-162.51 330,-180.51"/>
<text text-anchor="middle" x="314" y="-169.31" font-family="Times,serif" font-size="9.00">&#45;12</text>
</g>
<!-- 0&#45;&gt;0 -->
<g id="edge5" class="edge">
<title>0&#45;&gt;0</title>
<path fill="none" stroke="red" stroke-width="0.2" d="M122.23,-28.18C133.21,-34.77 145.26,-30.79 145.26,-16.26 145.26,-6.05 139.3,-1.05 131.95,-1.27"/>
<polygon fill="red" stroke="red" stroke-width="0.2" points="130.71,2.01 122.23,-4.34 132.82,-4.67 130.71,2.01"/>
</g>
<!-- 2262&#45;&gt;0 -->
<g id="edge12" class="edge">
<title>2262&#45;&gt;0</title>
<path fill="none" stroke="green" stroke-width="0.29" d="M111,-68.35C111,-60.06 111,-51.04 111,-42.91"/>
<polygon fill="green" stroke="green" stroke-width="0.29" points="114.5,-42.89 111,-32.89 107.5,-42.89 114.5,-42.89"/>
</g>
</g>
</svg>
