<?xml version="1.0" encoding="UTF-8" standalone="no"?>
<!DOCTYPE svg PUBLIC "-//W3C//DTD SVG 1.1//EN"
 "http://www.w3.org/Graphics/SVG/1.1/DTD/svg11.dtd">
<!-- Generated by graphviz version 2.43.0 (0)
 -->
<!-- Title: %3 Pages: 1 -->
<svg width="536pt" height="95pt"
 viewBox="0.00 0.00 536.00 94.53" xmlns="http://www.w3.org/2000/svg" xmlns:xlink="http://www.w3.org/1999/xlink">
<g id="graph0" class="graph" transform="scale(1 1) rotate(0) translate(4 90.53)">
<title>%3</title>
<polygon fill="white" stroke="transparent" points="-4,4 -4,-90.53 532,-90.53 532,4 -4,4"/>
<!-- &#45;1 -->
<g id="node1" class="node">
<title>&#45;1</title>
<polygon fill="lightgray" stroke="black" points="26,-86.53 0,-86.53 0,-68.53 26,-68.53 26,-86.53"/>
<text text-anchor="middle" x="13" y="-75.33" font-family="Times,serif" font-size="9.00">&#45;1</text>
</g>
<!-- 0 -->
<g id="node13" class="node">
<title>0</title>
<ellipse fill="lightblue" stroke="black" cx="134" cy="-16.26" rx="16.03" ry="16.03"/>
<text text-anchor="middle" x="134" y="-14.06" font-family="Times,serif" font-size="9.00">0</text>
</g>
<!-- &#45;1&#45;&gt;0 -->
<g id="edge5" class="edge">
<title>&#45;1&#45;&gt;0</title>
<path fill="none" stroke="red" stroke-width="0.59" d="M26.41,-69.96C46.73,-60.01 85.58,-40.98 110.62,-28.72"/>
<polygon fill="red" stroke="red" stroke-width="0.59" points="112.34,-31.77 119.78,-24.23 109.26,-25.48 112.34,-31.77"/>
</g>
<!-- &#45;2 -->
<g id="node2" class="node">
<title>&#45;2</title>
<polygon fill="lightgray" stroke="black" points="308,-86.53 282,-86.53 282,-68.53 308,-68.53 308,-86.53"/>
<text text-anchor="middle" x="295" y="-75.33" font-family="Times,serif" font-size="9.00">&#45;2</text>
</g>
<!-- 1 -->
<g id="node14" class="node">
<title>1</title>
<ellipse fill="lightblue" stroke="black" cx="248" cy="-16.26" rx="16.03" ry="16.03"/>
<text text-anchor="middle" x="248" y="-14.06" font-family="Times,serif" font-size="9.00">1</text>
</g>
<!-- &#45;2&#45;&gt;1 -->
<g id="edge9" class="edge">
<title>&#45;2&#45;&gt;1</title>
<path fill="none" stroke="red" stroke-width="0.2" d="M288.46,-68.29C282.18,-60.36 272.42,-48.05 264.06,-37.51"/>
<polygon fill="red" stroke="red" stroke-width="0.2" points="266.7,-35.21 257.75,-29.55 261.22,-39.56 266.7,-35.21"/>
</g>
<!-- &#45;3 -->
<g id="node3" class="node">
<title>&#45;3</title>
<polygon fill="lightgray" stroke="black" points="170,-86.53 144,-86.53 144,-68.53 170,-68.53 170,-86.53"/>
<text text-anchor="middle" x="157" y="-75.33" font-family="Times,serif" font-size="9.00">&#45;3</text>
</g>
<!-- &#45;3&#45;&gt;0 -->
<g id="edge6" class="edge">
<title>&#45;3&#45;&gt;0</title>
<path fill="none" stroke="red" stroke-width="1.19" d="M153.8,-68.29C151.09,-61.3 147.06,-50.91 143.34,-41.33"/>
<polygon fill="red" stroke="red" stroke-width="1.19" points="146.53,-39.87 139.65,-31.82 140,-42.41 146.53,-39.87"/>
</g>
<!-- &#45;3&#45;&gt;1 -->
<g id="edge2" class="edge">
<title>&#45;3&#45;&gt;1</title>
<path fill="none" stroke="green" stroke-width="0.26" stroke-dasharray="1,5" d="M169.65,-68.29C184.21,-58.81 208.37,-43.07 226.02,-31.58"/>
<polygon fill="green" stroke="green" stroke-width="0.26" points="228.1,-34.4 234.57,-26.01 224.28,-28.54 228.1,-34.4"/>
</g>
<!-- &#45;4 -->
<g id="node4" class="node">
<title>&#45;4</title>
<polygon fill="lightgray" stroke="black" points="352,-86.53 326,-86.53 326,-68.53 352,-68.53 352,-86.53"/>
<text text-anchor="middle" x="339" y="-75.33" font-family="Times,serif" font-size="9.00">&#45;4</text>
</g>
<!-- &#45;4&#45;&gt;1 -->
<g id="edge11" class="edge">
<title>&#45;4&#45;&gt;1</title>
<path fill="none" stroke="green" stroke-width="0.79" stroke-dasharray="1,5" d="M326.35,-68.29C311.79,-58.81 287.63,-43.07 269.98,-31.58"/>
<polygon fill="green" stroke="green" stroke-width="0.79" points="271.72,-28.54 261.43,-26.01 267.9,-34.4 271.72,-28.54"/>
</g>
<!-- &#45;5 -->
<g id="node5" class="node">
<title>&#45;5</title>
<polygon fill="lightgray" stroke="black" points="396,-86.53 370,-86.53 370,-68.53 396,-68.53 396,-86.53"/>
<text text-anchor="middle" x="383" y="-75.33" font-family="Times,serif" font-size="9.00">&#45;5</text>
</g>
<!-- &#45;6 -->
<g id="node6" class="node">
<title>&#45;6</title>
<polygon fill="lightgray" stroke="black" points="440,-86.53 414,-86.53 414,-68.53 440,-68.53 440,-86.53"/>
<text text-anchor="middle" x="427" y="-75.33" font-family="Times,serif" font-size="9.00">&#45;6</text>
</g>
<!-- &#45;7 -->
<g id="node7" class="node">
<title>&#45;7</title>
<polygon fill="lightgray" stroke="black" points="484,-86.53 458,-86.53 458,-68.53 484,-68.53 484,-86.53"/>
<text text-anchor="middle" x="471" y="-75.33" font-family="Times,serif" font-size="9.00">&#45;7</text>
</g>
<!-- &#45;8 -->
<g id="node8" class="node">
<title>&#45;8</title>
<polygon fill="lightgray" stroke="black" points="528,-86.53 502,-86.53 502,-68.53 528,-68.53 528,-86.53"/>
<text text-anchor="middle" x="515" y="-75.33" font-family="Times,serif" font-size="9.00">&#45;8</text>
</g>
<!-- &#45;9 -->
<g id="node9" class="node">
<title>&#45;9</title>
<polygon fill="lightgray" stroke="black" points="214,-86.53 188,-86.53 188,-68.53 214,-68.53 214,-86.53"/>
<text text-anchor="middle" x="201" y="-75.33" font-family="Times,serif" font-size="9.00">&#45;9</text>
</g>
<!-- &#45;9&#45;&gt;0 -->
<g id="edge1" class="edge">
<title>&#45;9&#45;&gt;0</title>
<path fill="none" stroke="green" stroke-width="0.41" stroke-dasharray="1,5" d="M191.68,-68.29C181.89,-59.62 166.2,-45.74 153.65,-34.64"/>
<polygon fill="green" stroke="green" stroke-width="0.41" points="155.76,-31.84 145.95,-27.83 151.12,-37.08 155.76,-31.84"/>
</g>
<!-- &#45;9&#45;&gt;1 -->
<g id="edge8" class="edge">
<title>&#45;9&#45;&gt;1</title>
<path fill="none" stroke="green" stroke-width="0.16" d="M207.54,-68.29C213.82,-60.36 223.58,-48.05 231.94,-37.51"/>
<polygon fill="green" stroke="green" stroke-width="0.16" points="234.78,-39.56 238.25,-29.55 229.3,-35.21 234.78,-39.56"/>
</g>
<!-- &#45;10 -->
<g id="node10" class="node">
<title>&#45;10</title>
<polygon fill="lightgray" stroke="black" points="264,-86.53 232,-86.53 232,-68.53 264,-68.53 264,-86.53"/>
<text text-anchor="middle" x="248" y="-75.33" font-family="Times,serif" font-size="9.00">&#45;10</text>
</g>
<!-- &#45;10&#45;&gt;0 -->
<g id="edge10" class="edge">
<title>&#45;10&#45;&gt;0</title>
<path fill="none" stroke="green" stroke-width="0.58" d="M232.15,-68.29C212.75,-58.2 179.74,-41.04 157.41,-29.43"/>
<polygon fill="green" stroke="green" stroke-width="0.58" points="158.77,-26.19 148.28,-24.69 155.54,-32.4 158.77,-26.19"/>
</g>
<!-- &#45;10&#45;&gt;1 -->
<g id="edge12" class="edge">
<title>&#45;10&#45;&gt;1</title>
<path fill="none" stroke="red" stroke-width="0.3" stroke-dasharray="1,5" d="M248,-68.29C248,-61.7 248,-52.1 248,-43"/>
<polygon fill="red" stroke="red" stroke-width="0.3" points="251.5,-42.76 248,-32.76 244.5,-42.76 251.5,-42.76"/>
</g>
<!-- &#45;11 -->
<g id="node11" class="node">
<title>&#45;11</title>
<polygon fill="lightgray" stroke="black" points="76,-86.53 44,-86.53 44,-68.53 76,-68.53 76,-86.53"/>
<text text-anchor="middle" x="60" y="-75.33" font-family="Times,serif" font-size="9.00">&#45;11</text>
</g>
<!-- &#45;11&#45;&gt;0 -->
<g id="edge7" class="edge">
<title>&#45;11&#45;&gt;0</title>
<path fill="none" stroke="red" stroke-width="0.27" d="M70.29,-68.29C81.41,-59.38 99.41,-44.97 113.45,-33.72"/>
<polygon fill="red" stroke="red" stroke-width="0.27" points="115.96,-36.2 121.58,-27.21 111.58,-30.73 115.96,-36.2"/>
</g>
<!-- &#45;12 -->
<g id="node12" class="node">
<title>&#45;12</title>
<polygon fill="lightgray" stroke="black" points="126,-86.53 94,-86.53 94,-68.53 126,-68.53 126,-86.53"/>
<text text-anchor="middle" x="110" y="-75.33" font-family="Times,serif" font-size="9.00">&#45;12</text>
</g>
<!-- &#45;12&#45;&gt;0 -->
<g id="edge3" class="edge">
<title>&#45;12&#45;&gt;0</title>
<path fill="none" stroke="red" stroke-width="0.45" stroke-dasharray="1,5" d="M113.34,-68.29C116.17,-61.3 120.37,-50.91 124.25,-41.33"/>
<polygon fill="red" stroke="red" stroke-width="0.45" points="127.6,-42.4 128.11,-31.82 121.11,-39.77 127.6,-42.4"/>
</g>
<!-- 1&#45;&gt;1 -->
<g id="edge4" class="edge">
<title>1&#45;&gt;1</title>
<path fill="none" stroke="green" stroke-width="0.12" stroke-dasharray="1,5" d="M261.36,-26.06C271.71,-29.72 282.26,-26.46 282.26,-16.26 282.26,-9.57 277.72,-5.87 271.67,-5.14"/>
<polygon fill="green" stroke="green" stroke-width="0.12" points="270.84,-1.72 261.36,-6.47 271.73,-8.67 270.84,-1.72"/>
</g>
</g>
</svg>
