<?xml version="1.0" encoding="UTF-8" standalone="no"?>
<!DOCTYPE svg PUBLIC "-//W3C//DTD SVG 1.1//EN"
 "http://www.w3.org/Graphics/SVG/1.1/DTD/svg11.dtd">
<!-- Generated by graphviz version 2.43.0 (0)
 -->
<!-- Title: %3 Pages: 1 -->
<svg width="638pt" height="348pt"
 viewBox="0.00 0.00 637.99 347.93" xmlns="http://www.w3.org/2000/svg" xmlns:xlink="http://www.w3.org/1999/xlink">
<g id="graph0" class="graph" transform="scale(1 1) rotate(0) translate(4 343.93)">
<title>%3</title>
<polygon fill="white" stroke="transparent" points="-4,4 -4,-343.93 633.99,-343.93 633.99,4 -4,4"/>
<!-- &#45;1 -->
<g id="node1" class="node">
<title>&#45;1</title>
<polygon fill="lightgray" stroke="black" points="26,-319.94 0,-319.94 0,-301.94 26,-301.94 26,-319.94"/>
<text text-anchor="middle" x="13" y="-308.74" font-family="Times,serif" font-size="9.00">&#45;1</text>
</g>
<!-- &#45;2 -->
<g id="node2" class="node">
<title>&#45;2</title>
<polygon fill="lightgray" stroke="black" points="70,-319.94 44,-319.94 44,-301.94 70,-301.94 70,-319.94"/>
<text text-anchor="middle" x="57" y="-308.74" font-family="Times,serif" font-size="9.00">&#45;2</text>
</g>
<!-- 0 -->
<g id="node13" class="node">
<title>0</title>
<ellipse fill="lightblue" stroke="black" cx="82" cy="-28.99" rx="16.03" ry="16.03"/>
<text text-anchor="middle" x="82" y="-26.79" font-family="Times,serif" font-size="9.00">0</text>
</g>
<!-- &#45;2&#45;&gt;0 -->
<g id="edge2" class="edge">
<title>&#45;2&#45;&gt;0</title>
<path fill="none" stroke="red" stroke-width="0.14" d="M54.68,-301.9C46.77,-273.1 22.42,-172.58 44,-93.98 48.31,-78.3 57.57,-62.56 65.87,-50.62"/>
<polygon fill="red" stroke="red" stroke-width="0.14" points="68.88,-52.43 71.93,-42.29 63.22,-48.31 68.88,-52.43"/>
</g>
<!-- 1 -->
<g id="node14" class="node">
<title>1</title>
<ellipse fill="lightblue" stroke="black" cx="101" cy="-216.96" rx="16.03" ry="16.03"/>
<text text-anchor="middle" x="101" y="-214.76" font-family="Times,serif" font-size="9.00">1</text>
</g>
<!-- &#45;2&#45;&gt;1 -->
<g id="edge3" class="edge">
<title>&#45;2&#45;&gt;1</title>
<path fill="none" stroke="green" stroke-width="0.55" d="M60.9,-301.78C67.35,-288.31 80.43,-260.96 89.9,-241.16"/>
<polygon fill="green" stroke="green" stroke-width="0.55" points="93.19,-242.4 94.34,-231.87 86.87,-239.38 93.19,-242.4"/>
</g>
<!-- 4684 -->
<g id="node16" class="node">
<title>4684</title>
<ellipse fill="white" stroke="black" cx="82" cy="-122.97" rx="28.98" ry="28.98"/>
<text text-anchor="middle" x="82" y="-120.77" font-family="Times,serif" font-size="9.00">4684</text>
</g>
<!-- &#45;2&#45;&gt;4684 -->
<g id="edge7" class="edge">
<title>&#45;2&#45;&gt;4684</title>
<path fill="none" stroke="red" stroke-width="0.29" d="M58.14,-301.47C61.39,-277.26 70.88,-206.68 76.87,-162.16"/>
<polygon fill="red" stroke="red" stroke-width="0.29" points="80.37,-162.37 78.23,-151.99 73.43,-161.44 80.37,-162.37"/>
</g>
<!-- &#45;3 -->
<g id="node3" class="node">
<title>&#45;3</title>
<polygon fill="lightgray" stroke="black" points="215,-319.94 189,-319.94 189,-301.94 215,-301.94 215,-319.94"/>
<text text-anchor="middle" x="202" y="-308.74" font-family="Times,serif" font-size="9.00">&#45;3</text>
</g>
<!-- &#45;4 -->
<g id="node4" class="node">
<title>&#45;4</title>
<polygon fill="lightgray" stroke="black" points="272,-319.94 246,-319.94 246,-301.94 272,-301.94 272,-319.94"/>
<text text-anchor="middle" x="259" y="-308.74" font-family="Times,serif" font-size="9.00">&#45;4</text>
</g>
<!-- 4398 -->
<g id="node17" class="node">
<title>4398</title>
<ellipse fill="white" stroke="black" cx="202" cy="-216.96" rx="28.98" ry="28.98"/>
<text text-anchor="middle" x="202" y="-214.76" font-family="Times,serif" font-size="9.00">4398</text>
</g>
<!-- &#45;4&#45;&gt;4398 -->
<g id="edge6" class="edge">
<title>&#45;4&#45;&gt;4398</title>
<path fill="none" stroke="red" stroke-width="0.1" d="M253.94,-301.78C246.87,-290.37 233.62,-268.99 222.28,-250.68"/>
<polygon fill="red" stroke="red" stroke-width="0.1" points="225.14,-248.65 216.89,-241.99 219.19,-252.33 225.14,-248.65"/>
</g>
<!-- 4336 -->
<g id="node18" class="node">
<title>4336</title>
<ellipse fill="white" stroke="black" cx="268" cy="-28.99" rx="28.98" ry="28.98"/>
<text text-anchor="middle" x="268" y="-26.79" font-family="Times,serif" font-size="9.00">4336</text>
</g>
<!-- &#45;4&#45;&gt;4336 -->
<g id="edge5" class="edge">
<title>&#45;4&#45;&gt;4336</title>
<path fill="none" stroke="red" stroke-width="0.8" stroke-dasharray="1,5" d="M260.71,-301.71C266.44,-273.05 284.29,-175.04 278,-93.98 277.34,-85.45 276.19,-76.34 274.89,-67.75"/>
<polygon fill="red" stroke="red" stroke-width="0.8" points="278.31,-66.92 273.27,-57.6 271.39,-68.03 278.31,-66.92"/>
</g>
<!-- 4757 -->
<g id="node19" class="node">
<title>4757</title>
<ellipse fill="white" stroke="black" cx="240" cy="-122.97" rx="28.98" ry="28.98"/>
<text text-anchor="middle" x="240" y="-120.77" font-family="Times,serif" font-size="9.00">4757</text>
</g>
<!-- &#45;4&#45;&gt;4757 -->
<g id="edge10" class="edge">
<title>&#45;4&#45;&gt;4757</title>
<path fill="none" stroke="green" stroke-width="0.85" d="M258.13,-301.47C255.66,-277.26 248.45,-206.68 243.9,-162.16"/>
<polygon fill="green" stroke="green" stroke-width="0.85" points="247.36,-161.58 242.86,-151.99 240.4,-162.3 247.36,-161.58"/>
</g>
<!-- &#45;5 -->
<g id="node5" class="node">
<title>&#45;5</title>
<polygon fill="lightgray" stroke="black" points="158,-319.94 132,-319.94 132,-301.94 158,-301.94 158,-319.94"/>
<text text-anchor="middle" x="145" y="-308.74" font-family="Times,serif" font-size="9.00">&#45;5</text>
</g>
<!-- &#45;5&#45;&gt;0 -->
<g id="edge1" class="edge">
<title>&#45;5&#45;&gt;0</title>
<path fill="none" stroke="red" stroke-width="0.32" stroke-dasharray="1,5" d="M145.26,-301.83C145.94,-272.8 146.2,-171.58 120,-93.98 114.8,-78.57 105.52,-62.84 97.44,-50.83"/>
<polygon fill="red" stroke="red" stroke-width="0.32" points="100.17,-48.63 91.57,-42.44 94.43,-52.64 100.17,-48.63"/>
</g>
<!-- &#45;5&#45;&gt;1 -->
<g id="edge9" class="edge">
<title>&#45;5&#45;&gt;1</title>
<path fill="none" stroke="red" stroke-width="0.13" stroke-dasharray="1,5" d="M141.1,-301.78C134.65,-288.31 121.57,-260.96 112.1,-241.16"/>
<polygon fill="red" stroke="red" stroke-width="0.13" points="115.13,-239.38 107.66,-231.87 108.81,-242.4 115.13,-239.38"/>
</g>
<!-- &#45;6 -->
<g id="node6" class="node">
<title>&#45;6</title>
<polygon fill="lightgray" stroke="black" points="316,-319.94 290,-319.94 290,-301.94 316,-301.94 316,-319.94"/>
<text text-anchor="middle" x="303" y="-308.74" font-family="Times,serif" font-size="9.00">&#45;6</text>
</g>
<!-- &#45;7 -->
<g id="node7" class="node">
<title>&#45;7</title>
<polygon fill="lightgray" stroke="black" points="360,-319.94 334,-319.94 334,-301.94 360,-301.94 360,-319.94"/>
<text text-anchor="middle" x="347" y="-308.74" font-family="Times,serif" font-size="9.00">&#45;7</text>
</g>
<!-- &#45;8 -->
<g id="node8" class="node">
<title>&#45;8</title>
<polygon fill="lightgray" stroke="black" points="114,-319.94 88,-319.94 88,-301.94 114,-301.94 114,-319.94"/>
<text text-anchor="middle" x="101" y="-308.74" font-family="Times,serif" font-size="9.00">&#45;8</text>
</g>
<!-- &#45;8&#45;&gt;1 -->
<g id="edge4" class="edge">
<title>&#45;8&#45;&gt;1</title>
<path fill="none" stroke="red" stroke-width="0.32" stroke-dasharray="1,5" d="M101,-301.78C101,-288.87 101,-263.2 101,-243.65"/>
<polygon fill="red" stroke="red" stroke-width="0.32" points="104.5,-243.54 101,-233.54 97.5,-243.54 104.5,-243.54"/>
</g>
<!-- &#45;9 -->
<g id="node9" class="node">
<title>&#45;9</title>
<polygon fill="lightgray" stroke="black" points="404,-319.94 378,-319.94 378,-301.94 404,-301.94 404,-319.94"/>
<text text-anchor="middle" x="391" y="-308.74" font-family="Times,serif" font-size="9.00">&#45;9</text>
</g>
<!-- &#45;10 -->
<g id="node10" class="node">
<title>&#45;10</title>
<polygon fill="lightgray" stroke="black" points="454,-319.94 422,-319.94 422,-301.94 454,-301.94 454,-319.94"/>
<text text-anchor="middle" x="438" y="-308.74" font-family="Times,serif" font-size="9.00">&#45;10</text>
</g>
<!-- &#45;11 -->
<g id="node11" class="node">
<title>&#45;11</title>
<polygon fill="lightgray" stroke="black" points="504,-319.94 472,-319.94 472,-301.94 504,-301.94 504,-319.94"/>
<text text-anchor="middle" x="488" y="-308.74" font-family="Times,serif" font-size="9.00">&#45;11</text>
</g>
<!-- &#45;12 -->
<g id="node12" class="node">
<title>&#45;12</title>
<polygon fill="lightgray" stroke="black" points="554,-319.94 522,-319.94 522,-301.94 554,-301.94 554,-319.94"/>
<text text-anchor="middle" x="538" y="-308.74" font-family="Times,serif" font-size="9.00">&#45;12</text>
</g>
<!-- 1&#45;&gt;4684 -->
<g id="edge13" class="edge">
<title>1&#45;&gt;4684</title>
<path fill="none" stroke="green" stroke-width="0.45" d="M97.86,-200.77C95.64,-190.01 92.56,-175.09 89.7,-161.26"/>
<polygon fill="green" stroke="green" stroke-width="0.45" points="93.13,-160.54 87.68,-151.46 86.27,-161.96 93.13,-160.54"/>
</g>
<!-- 3847 -->
<g id="node15" class="node">
<title>3847</title>
<ellipse fill="white" stroke="black" cx="601" cy="-310.94" rx="28.98" ry="28.98"/>
<text text-anchor="middle" x="601" y="-308.74" font-family="Times,serif" font-size="9.00">3847</text>
</g>
<!-- 4684&#45;&gt;0 -->
<g id="edge8" class="edge">
<title>4684&#45;&gt;0</title>
<path fill="none" stroke="red" stroke-width="0.64" d="M82,-93.88C82,-81.66 82,-67.45 82,-55.54"/>
<polygon fill="red" stroke="red" stroke-width="0.64" points="85.5,-55.36 82,-45.36 78.5,-55.36 85.5,-55.36"/>
</g>
<!-- 4398&#45;&gt;4757 -->
<g id="edge12" class="edge">
<title>4398&#45;&gt;4757</title>
<path fill="none" stroke="red" stroke-width="0.13" d="M212.79,-189.84C216.68,-180.43 221.14,-169.63 225.31,-159.54"/>
<polygon fill="red" stroke="red" stroke-width="0.13" points="228.6,-160.73 229.19,-150.15 222.13,-158.06 228.6,-160.73"/>
</g>
<!-- 4757&#45;&gt;4336 -->
<g id="edge11" class="edge">
<title>4757&#45;&gt;4336</title>
<path fill="none" stroke="green" stroke-width="0.15" d="M248.25,-94.87C250.96,-85.98 254.01,-75.96 256.89,-66.49"/>
<polygon fill="green" stroke="green" stroke-width="0.15" points="260.25,-67.48 259.81,-56.9 253.55,-65.45 260.25,-67.48"/>
</g>
</g>
</svg>
