<?xml version="1.0" encoding="UTF-8" standalone="no"?>
<!DOCTYPE svg PUBLIC "-//W3C//DTD SVG 1.1//EN"
 "http://www.w3.org/Graphics/SVG/1.1/DTD/svg11.dtd">
<!-- Generated by graphviz version 2.43.0 (0)
 -->
<!-- Title: %3 Pages: 1 -->
<svg width="538pt" height="180pt"
 viewBox="0.00 0.00 537.81 180.02" xmlns="http://www.w3.org/2000/svg" xmlns:xlink="http://www.w3.org/1999/xlink">
<g id="graph0" class="graph" transform="scale(1 1) rotate(0) translate(4 176.02)">
<title>%3</title>
<polygon fill="white" stroke="transparent" points="-4,4 -4,-176.02 533.81,-176.02 533.81,4 -4,4"/>
<!-- &#45;1 -->
<g id="node1" class="node">
<title>&#45;1</title>
<polygon fill="lightgray" stroke="black" points="350.81,-102.28 324.81,-102.28 324.81,-84.28 350.81,-84.28 350.81,-102.28"/>
<text text-anchor="middle" x="337.81" y="-91.08" font-family="Times,serif" font-size="9.00">&#45;1</text>
</g>
<!-- 0 -->
<g id="node13" class="node">
<title>0</title>
<ellipse fill="lightblue" stroke="black" cx="184.81" cy="-16.26" rx="16.03" ry="16.03"/>
<text text-anchor="middle" x="184.81" y="-14.06" font-family="Times,serif" font-size="9.00">0</text>
</g>
<!-- &#45;1&#45;&gt;0 -->
<g id="edge2" class="edge">
<title>&#45;1&#45;&gt;0</title>
<path fill="none" stroke="red" stroke-width="0.14" stroke-dasharray="1,5" d="M331.64,-83.9C327.6,-78.89 321.94,-72.71 315.81,-68.53 282.53,-45.84 237.76,-31.11 210.11,-23.5"/>
<polygon fill="red" stroke="red" stroke-width="0.14" points="210.98,-20.11 200.42,-20.93 209.19,-26.87 210.98,-20.11"/>
</g>
<!-- &#45;2 -->
<g id="node2" class="node">
<title>&#45;2</title>
<polygon fill="lightgray" stroke="black" points="441.81,-172.02 415.81,-172.02 415.81,-154.02 441.81,-154.02 441.81,-172.02"/>
<text text-anchor="middle" x="428.81" y="-160.82" font-family="Times,serif" font-size="9.00">&#45;2</text>
</g>
<!-- 1 -->
<g id="node14" class="node">
<title>1</title>
<ellipse fill="lightblue" stroke="black" cx="428.81" cy="-93.28" rx="16.03" ry="16.03"/>
<text text-anchor="middle" x="428.81" y="-91.08" font-family="Times,serif" font-size="9.00">1</text>
</g>
<!-- &#45;2&#45;&gt;1 -->
<g id="edge1" class="edge">
<title>&#45;2&#45;&gt;1</title>
<path fill="none" stroke="green" stroke-width="0.47" d="M428.81,-153.99C428.81,-145.58 428.81,-131.96 428.81,-119.84"/>
<polygon fill="green" stroke="green" stroke-width="0.47" points="432.31,-119.75 428.81,-109.75 425.31,-119.75 432.31,-119.75"/>
</g>
<!-- &#45;3 -->
<g id="node3" class="node">
<title>&#45;3</title>
<polygon fill="lightgray" stroke="black" points="394.81,-102.28 368.81,-102.28 368.81,-84.28 394.81,-84.28 394.81,-102.28"/>
<text text-anchor="middle" x="381.81" y="-91.08" font-family="Times,serif" font-size="9.00">&#45;3</text>
</g>
<!-- &#45;3&#45;&gt;0 -->
<g id="edge8" class="edge">
<title>&#45;3&#45;&gt;0</title>
<path fill="none" stroke="green" stroke-width="0.59" d="M376.13,-84.16C372.11,-79 366.31,-72.55 359.81,-68.53 312.24,-39.08 246.95,-25.86 211.08,-20.5"/>
<polygon fill="green" stroke="green" stroke-width="0.59" points="211.33,-17 200.94,-19.07 210.36,-23.93 211.33,-17"/>
</g>
<!-- &#45;4 -->
<g id="node4" class="node">
<title>&#45;4</title>
<polygon fill="lightgray" stroke="black" points="30.81,-172.02 4.81,-172.02 4.81,-154.02 30.81,-154.02 30.81,-172.02"/>
<text text-anchor="middle" x="17.81" y="-160.82" font-family="Times,serif" font-size="9.00">&#45;4</text>
</g>
<!-- &#45;4&#45;&gt;0 -->
<g id="edge6" class="edge">
<title>&#45;4&#45;&gt;0</title>
<path fill="none" stroke="red" stroke-width="0.29" d="M13.79,-153.78C5.83,-136.16 -9.53,-94.34 9.81,-68.53 27.74,-44.59 114.51,-28.07 158.76,-21.05"/>
<polygon fill="red" stroke="red" stroke-width="0.29" points="159.42,-24.49 168.77,-19.51 158.35,-17.57 159.42,-24.49"/>
</g>
<!-- 737 -->
<g id="node16" class="node">
<title>737</title>
<ellipse fill="white" stroke="black" cx="43.81" cy="-93.28" rx="25" ry="25"/>
<text text-anchor="middle" x="43.81" y="-91.08" font-family="Times,serif" font-size="9.00">737</text>
</g>
<!-- &#45;4&#45;&gt;737 -->
<g id="edge15" class="edge">
<title>&#45;4&#45;&gt;737</title>
<path fill="none" stroke="green" stroke-width="0.34" d="M20.9,-153.99C23.59,-146.96 27.7,-136.27 31.69,-125.87"/>
<polygon fill="green" stroke="green" stroke-width="0.34" points="34.96,-127.1 35.28,-116.51 28.43,-124.6 34.96,-127.1"/>
</g>
<!-- &#45;5 -->
<g id="node5" class="node">
<title>&#45;5</title>
<polygon fill="lightgray" stroke="black" points="173.81,-172.02 147.81,-172.02 147.81,-154.02 173.81,-154.02 173.81,-172.02"/>
<text text-anchor="middle" x="160.81" y="-160.82" font-family="Times,serif" font-size="9.00">&#45;5</text>
</g>
<!-- &#45;5&#45;&gt;0 -->
<g id="edge7" class="edge">
<title>&#45;5&#45;&gt;0</title>
<path fill="none" stroke="green" stroke-width="0.65" d="M159.46,-153.88C157,-137.47 152.69,-99.37 159.81,-68.53 162.13,-58.47 166.71,-48.1 171.32,-39.34"/>
<polygon fill="green" stroke="green" stroke-width="0.65" points="174.41,-40.99 176.24,-30.56 168.3,-37.58 174.41,-40.99"/>
</g>
<!-- 100 -->
<g id="node15" class="node">
<title>100</title>
<ellipse fill="white" stroke="black" cx="281.81" cy="-93.28" rx="25" ry="25"/>
<text text-anchor="middle" x="281.81" y="-91.08" font-family="Times,serif" font-size="9.00">100</text>
</g>
<!-- &#45;5&#45;&gt;100 -->
<g id="edge9" class="edge">
<title>&#45;5&#45;&gt;100</title>
<path fill="none" stroke="green" stroke-width="0.7" stroke-dasharray="1,5" d="M174.22,-154.52C192.77,-144.13 226.78,-125.09 251.61,-111.18"/>
<polygon fill="green" stroke="green" stroke-width="0.7" points="253.61,-114.08 260.63,-106.14 250.19,-107.97 253.61,-114.08"/>
</g>
<!-- &#45;6 -->
<g id="node6" class="node">
<title>&#45;6</title>
<polygon fill="lightgray" stroke="black" points="485.81,-172.02 459.81,-172.02 459.81,-154.02 485.81,-154.02 485.81,-172.02"/>
<text text-anchor="middle" x="472.81" y="-160.82" font-family="Times,serif" font-size="9.00">&#45;6</text>
</g>
<!-- &#45;7 -->
<g id="node7" class="node">
<title>&#45;7</title>
<polygon fill="lightgray" stroke="black" points="112.81,-102.28 86.81,-102.28 86.81,-84.28 112.81,-84.28 112.81,-102.28"/>
<text text-anchor="middle" x="99.81" y="-91.08" font-family="Times,serif" font-size="9.00">&#45;7</text>
</g>
<!-- &#45;7&#45;&gt;0 -->
<g id="edge12" class="edge">
<title>&#45;7&#45;&gt;0</title>
<path fill="none" stroke="red" stroke-width="0.47" d="M108.91,-84.25C122.35,-72.38 147.84,-49.89 165.56,-34.26"/>
<polygon fill="red" stroke="red" stroke-width="0.47" points="167.89,-36.86 173.08,-27.62 163.26,-31.61 167.89,-36.86"/>
</g>
<!-- &#45;8 -->
<g id="node8" class="node">
<title>&#45;8</title>
<polygon fill="lightgray" stroke="black" points="369.81,-172.02 343.81,-172.02 343.81,-154.02 369.81,-154.02 369.81,-172.02"/>
<text text-anchor="middle" x="356.81" y="-160.82" font-family="Times,serif" font-size="9.00">&#45;8</text>
</g>
<!-- &#45;8&#45;&gt;1 -->
<g id="edge3" class="edge">
<title>&#45;8&#45;&gt;1</title>
<path fill="none" stroke="red" stroke-width="0.36" d="M365.49,-153.93C374.94,-145.12 390.47,-130.6 403.81,-118.02 405.75,-116.19 407.78,-114.28 409.8,-112.36"/>
<polygon fill="red" stroke="red" stroke-width="0.36" points="412.53,-114.59 417.38,-105.17 407.72,-109.52 412.53,-114.59"/>
</g>
<!-- &#45;8&#45;&gt;100 -->
<g id="edge14" class="edge">
<title>&#45;8&#45;&gt;100</title>
<path fill="none" stroke="green" stroke-width="0.6" d="M347.91,-153.99C337.96,-145 321.39,-130.03 307.33,-117.33"/>
<polygon fill="green" stroke="green" stroke-width="0.6" points="309.6,-114.66 299.84,-110.56 304.91,-119.86 309.6,-114.66"/>
</g>
<!-- &#45;9 -->
<g id="node9" class="node">
<title>&#45;9</title>
<polygon fill="lightgray" stroke="black" points="529.81,-172.02 503.81,-172.02 503.81,-154.02 529.81,-154.02 529.81,-172.02"/>
<text text-anchor="middle" x="516.81" y="-160.82" font-family="Times,serif" font-size="9.00">&#45;9</text>
</g>
<!-- &#45;10 -->
<g id="node10" class="node">
<title>&#45;10</title>
<polygon fill="lightgray" stroke="black" points="297.81,-172.02 265.81,-172.02 265.81,-154.02 297.81,-154.02 297.81,-172.02"/>
<text text-anchor="middle" x="281.81" y="-160.82" font-family="Times,serif" font-size="9.00">&#45;10</text>
</g>
<!-- &#45;10&#45;&gt;100 -->
<g id="edge11" class="edge">
<title>&#45;10&#45;&gt;100</title>
<path fill="none" stroke="green" stroke-width="0.24" d="M281.81,-153.99C281.81,-147.55 281.81,-138.05 281.81,-128.52"/>
<polygon fill="green" stroke="green" stroke-width="0.24" points="285.31,-128.3 281.81,-118.3 278.31,-128.3 285.31,-128.3"/>
</g>
<!-- &#45;11 -->
<g id="node11" class="node">
<title>&#45;11</title>
<polygon fill="lightgray" stroke="black" points="245.81,-172.02 213.81,-172.02 213.81,-154.02 245.81,-154.02 245.81,-172.02"/>
<text text-anchor="middle" x="229.81" y="-160.82" font-family="Times,serif" font-size="9.00">&#45;11</text>
</g>
<!-- &#45;11&#45;&gt;0 -->
<g id="edge4" class="edge">
<title>&#45;11&#45;&gt;0</title>
<path fill="none" stroke="red" stroke-width="0.28" d="M228.74,-153.84C226.45,-137.36 220.37,-99.13 209.81,-68.53 206.44,-58.77 201.67,-48.45 197.2,-39.65"/>
<polygon fill="red" stroke="red" stroke-width="0.28" points="200.29,-38.02 192.54,-30.8 194.1,-41.28 200.29,-38.02"/>
</g>
<!-- &#45;11&#45;&gt;100 -->
<g id="edge13" class="edge">
<title>&#45;11&#45;&gt;100</title>
<path fill="none" stroke="red" stroke-width="0.37" d="M235.98,-153.99C242.13,-145.98 251.92,-133.22 260.88,-121.55"/>
<polygon fill="red" stroke="red" stroke-width="0.37" points="263.87,-123.39 267.19,-113.33 258.32,-119.13 263.87,-123.39"/>
</g>
<!-- &#45;12 -->
<g id="node12" class="node">
<title>&#45;12</title>
<polygon fill="lightgray" stroke="black" points="200.81,-102.28 168.81,-102.28 168.81,-84.28 200.81,-84.28 200.81,-102.28"/>
<text text-anchor="middle" x="184.81" y="-91.08" font-family="Times,serif" font-size="9.00">&#45;12</text>
</g>
<!-- &#45;12&#45;&gt;0 -->
<g id="edge5" class="edge">
<title>&#45;12&#45;&gt;0</title>
<path fill="none" stroke="red" stroke-width="0.23" d="M184.81,-84.25C184.81,-74.49 184.81,-57.54 184.81,-43.13"/>
<polygon fill="red" stroke="red" stroke-width="0.23" points="188.31,-42.77 184.81,-32.77 181.31,-42.77 188.31,-42.77"/>
</g>
<!-- 100&#45;&gt;0 -->
<g id="edge10" class="edge">
<title>100&#45;&gt;0</title>
<path fill="none" stroke="green" stroke-width="0.22" d="M262.65,-77.46C246.19,-64.73 222.52,-46.42 205.61,-33.34"/>
<polygon fill="green" stroke="green" stroke-width="0.22" points="207.5,-30.39 197.45,-27.04 203.22,-35.93 207.5,-30.39"/>
</g>
<!-- 737&#45;&gt;0 -->
<g id="edge16" class="edge">
<title>737&#45;&gt;0</title>
<path fill="none" stroke="green" stroke-width="0.29" d="M63.23,-77.9C67.91,-74.67 72.96,-71.36 77.81,-68.53 105.27,-52.5 138.52,-37.16 160.59,-27.51"/>
<polygon fill="green" stroke="green" stroke-width="0.29" points="162.09,-30.67 169.88,-23.49 159.32,-24.25 162.09,-30.67"/>
</g>
</g>
</svg>
