<?xml version="1.0" encoding="UTF-8" standalone="no"?>
<!DOCTYPE svg PUBLIC "-//W3C//DTD SVG 1.1//EN"
 "http://www.w3.org/Graphics/SVG/1.1/DTD/svg11.dtd">
<!-- Generated by graphviz version 2.43.0 (0)
 -->
<!-- Title: %3 Pages: 1 -->
<svg width="536pt" height="95pt"
 viewBox="0.00 0.00 536.00 94.53" xmlns="http://www.w3.org/2000/svg" xmlns:xlink="http://www.w3.org/1999/xlink">
<g id="graph0" class="graph" transform="scale(1 1) rotate(0) translate(4 90.53)">
<title>%3</title>
<polygon fill="white" stroke="transparent" points="-4,4 -4,-90.53 532,-90.53 532,4 -4,4"/>
<!-- &#45;1 -->
<g id="node1" class="node">
<title>&#45;1</title>
<polygon fill="lightgray" stroke="black" points="26,-86.53 0,-86.53 0,-68.53 26,-68.53 26,-86.53"/>
<text text-anchor="middle" x="13" y="-75.33" font-family="Times,serif" font-size="9.00">&#45;1</text>
</g>
<!-- 1 -->
<g id="node14" class="node">
<title>1</title>
<ellipse fill="lightblue" stroke="black" cx="125" cy="-16.26" rx="16.03" ry="16.03"/>
<text text-anchor="middle" x="125" y="-14.06" font-family="Times,serif" font-size="9.00">1</text>
</g>
<!-- &#45;1&#45;&gt;1 -->
<g id="edge12" class="edge">
<title>&#45;1&#45;&gt;1</title>
<path fill="none" stroke="red" stroke-width="0.6" d="M26.29,-69.5C44.95,-59.62 79.18,-41.51 102.02,-29.43"/>
<polygon fill="red" stroke="red" stroke-width="0.6" points="103.83,-32.43 111.03,-24.66 100.55,-26.24 103.83,-32.43"/>
</g>
<!-- &#45;2 -->
<g id="node2" class="node">
<title>&#45;2</title>
<polygon fill="lightgray" stroke="black" points="70,-86.53 44,-86.53 44,-68.53 70,-68.53 70,-86.53"/>
<text text-anchor="middle" x="57" y="-75.33" font-family="Times,serif" font-size="9.00">&#45;2</text>
</g>
<!-- &#45;2&#45;&gt;1 -->
<g id="edge3" class="edge">
<title>&#45;2&#45;&gt;1</title>
<path fill="none" stroke="red" stroke-width="0.14" d="M66.46,-68.29C76.39,-59.62 92.32,-45.74 105.06,-34.64"/>
<polygon fill="red" stroke="red" stroke-width="0.14" points="107.63,-37.04 112.87,-27.83 103.03,-31.76 107.63,-37.04"/>
</g>
<!-- &#45;3 -->
<g id="node3" class="node">
<title>&#45;3</title>
<polygon fill="lightgray" stroke="black" points="484,-86.53 458,-86.53 458,-68.53 484,-68.53 484,-86.53"/>
<text text-anchor="middle" x="471" y="-75.33" font-family="Times,serif" font-size="9.00">&#45;3</text>
</g>
<!-- &#45;4 -->
<g id="node4" class="node">
<title>&#45;4</title>
<polygon fill="lightgray" stroke="black" points="258,-86.53 232,-86.53 232,-68.53 258,-68.53 258,-86.53"/>
<text text-anchor="middle" x="245" y="-75.33" font-family="Times,serif" font-size="9.00">&#45;4</text>
</g>
<!-- 0 -->
<g id="node13" class="node">
<title>0</title>
<ellipse fill="lightblue" stroke="black" cx="333" cy="-16.26" rx="16.03" ry="16.03"/>
<text text-anchor="middle" x="333" y="-14.06" font-family="Times,serif" font-size="9.00">0</text>
</g>
<!-- &#45;4&#45;&gt;0 -->
<g id="edge11" class="edge">
<title>&#45;4&#45;&gt;0</title>
<path fill="none" stroke="green" stroke-width="0.32" d="M257.24,-68.29C271.1,-58.95 293.98,-43.54 310.98,-32.09"/>
<polygon fill="green" stroke="green" stroke-width="0.32" points="313.38,-34.7 319.72,-26.21 309.47,-28.89 313.38,-34.7"/>
</g>
<!-- &#45;4&#45;&gt;1 -->
<g id="edge1" class="edge">
<title>&#45;4&#45;&gt;1</title>
<path fill="none" stroke="green" stroke-width="0.42" stroke-dasharray="1,5" d="M231.7,-69.96C211.66,-60.06 173.43,-41.18 148.59,-28.91"/>
<polygon fill="green" stroke="green" stroke-width="0.42" points="149.99,-25.7 139.48,-24.41 146.89,-31.98 149.99,-25.7"/>
</g>
<!-- &#45;5 -->
<g id="node5" class="node">
<title>&#45;5</title>
<polygon fill="lightgray" stroke="black" points="302,-86.53 276,-86.53 276,-68.53 302,-68.53 302,-86.53"/>
<text text-anchor="middle" x="289" y="-75.33" font-family="Times,serif" font-size="9.00">&#45;5</text>
</g>
<!-- &#45;5&#45;&gt;0 -->
<g id="edge7" class="edge">
<title>&#45;5&#45;&gt;0</title>
<path fill="none" stroke="red" stroke-width="0.15" d="M295.12,-68.29C300.87,-60.53 309.73,-48.6 317.44,-38.22"/>
<polygon fill="red" stroke="red" stroke-width="0.15" points="320.4,-40.11 323.55,-30 314.78,-35.94 320.4,-40.11"/>
</g>
<!-- &#45;6 -->
<g id="node6" class="node">
<title>&#45;6</title>
<polygon fill="lightgray" stroke="black" points="346,-86.53 320,-86.53 320,-68.53 346,-68.53 346,-86.53"/>
<text text-anchor="middle" x="333" y="-75.33" font-family="Times,serif" font-size="9.00">&#45;6</text>
</g>
<!-- &#45;6&#45;&gt;0 -->
<g id="edge10" class="edge">
<title>&#45;6&#45;&gt;0</title>
<path fill="none" stroke="red" stroke-width="0.26" stroke-dasharray="1,5" d="M333,-68.29C333,-61.7 333,-52.1 333,-43"/>
<polygon fill="red" stroke="red" stroke-width="0.26" points="336.5,-42.76 333,-32.76 329.5,-42.76 336.5,-42.76"/>
</g>
<!-- &#45;7 -->
<g id="node7" class="node">
<title>&#45;7</title>
<polygon fill="lightgray" stroke="black" points="114,-86.53 88,-86.53 88,-68.53 114,-68.53 114,-86.53"/>
<text text-anchor="middle" x="101" y="-75.33" font-family="Times,serif" font-size="9.00">&#45;7</text>
</g>
<!-- &#45;7&#45;&gt;1 -->
<g id="edge6" class="edge">
<title>&#45;7&#45;&gt;1</title>
<path fill="none" stroke="green" stroke-width="0.1" d="M104.34,-68.29C107.17,-61.3 111.37,-50.91 115.25,-41.33"/>
<polygon fill="green" stroke="green" stroke-width="0.1" points="118.6,-42.4 119.11,-31.82 112.11,-39.77 118.6,-42.4"/>
</g>
<!-- &#45;8 -->
<g id="node8" class="node">
<title>&#45;8</title>
<polygon fill="lightgray" stroke="black" points="528,-86.53 502,-86.53 502,-68.53 528,-68.53 528,-86.53"/>
<text text-anchor="middle" x="515" y="-75.33" font-family="Times,serif" font-size="9.00">&#45;8</text>
</g>
<!-- &#45;9 -->
<g id="node9" class="node">
<title>&#45;9</title>
<polygon fill="lightgray" stroke="black" points="390,-86.53 364,-86.53 364,-68.53 390,-68.53 390,-86.53"/>
<text text-anchor="middle" x="377" y="-75.33" font-family="Times,serif" font-size="9.00">&#45;9</text>
</g>
<!-- &#45;9&#45;&gt;0 -->
<g id="edge2" class="edge">
<title>&#45;9&#45;&gt;0</title>
<path fill="none" stroke="green" stroke-width="0.43" d="M370.88,-68.29C365.13,-60.53 356.27,-48.6 348.56,-38.22"/>
<polygon fill="green" stroke="green" stroke-width="0.43" points="351.22,-35.94 342.45,-30 345.6,-40.11 351.22,-35.94"/>
</g>
<!-- &#45;10 -->
<g id="node10" class="node">
<title>&#45;10</title>
<polygon fill="lightgray" stroke="black" points="440,-86.53 408,-86.53 408,-68.53 440,-68.53 440,-86.53"/>
<text text-anchor="middle" x="424" y="-75.33" font-family="Times,serif" font-size="9.00">&#45;10</text>
</g>
<!-- &#45;10&#45;&gt;0 -->
<g id="edge9" class="edge">
<title>&#45;10&#45;&gt;0</title>
<path fill="none" stroke="red" stroke-width="0.18" d="M411.35,-68.29C396.79,-58.81 372.63,-43.07 354.98,-31.58"/>
<polygon fill="red" stroke="red" stroke-width="0.18" points="356.72,-28.54 346.43,-26.01 352.9,-34.4 356.72,-28.54"/>
</g>
<!-- &#45;11 -->
<g id="node11" class="node">
<title>&#45;11</title>
<polygon fill="lightgray" stroke="black" points="164,-86.53 132,-86.53 132,-68.53 164,-68.53 164,-86.53"/>
<text text-anchor="middle" x="148" y="-75.33" font-family="Times,serif" font-size="9.00">&#45;11</text>
</g>
<!-- &#45;11&#45;&gt;1 -->
<g id="edge4" class="edge">
<title>&#45;11&#45;&gt;1</title>
<path fill="none" stroke="green" stroke-width="0.27" stroke-dasharray="1,5" d="M144.8,-68.29C142.09,-61.3 138.06,-50.91 134.34,-41.33"/>
<polygon fill="green" stroke="green" stroke-width="0.27" points="137.53,-39.87 130.65,-31.82 131,-42.41 137.53,-39.87"/>
</g>
<!-- &#45;12 -->
<g id="node12" class="node">
<title>&#45;12</title>
<polygon fill="lightgray" stroke="black" points="214,-86.53 182,-86.53 182,-68.53 214,-68.53 214,-86.53"/>
<text text-anchor="middle" x="198" y="-75.33" font-family="Times,serif" font-size="9.00">&#45;12</text>
</g>
<!-- &#45;12&#45;&gt;1 -->
<g id="edge5" class="edge">
<title>&#45;12&#45;&gt;1</title>
<path fill="none" stroke="green" stroke-width="0.34" d="M187.85,-68.29C176.95,-59.44 159.33,-45.14 145.52,-33.92"/>
<polygon fill="green" stroke="green" stroke-width="0.34" points="147.48,-31 137.51,-27.42 143.07,-36.44 147.48,-31"/>
</g>
<!-- 0&#45;&gt;0 -->
<g id="edge8" class="edge">
<title>0&#45;&gt;0</title>
<path fill="none" stroke="red" stroke-width="0.19" stroke-dasharray="1,5" d="M346.36,-26.06C356.71,-29.72 367.26,-26.46 367.26,-16.26 367.26,-9.57 362.72,-5.87 356.67,-5.14"/>
<polygon fill="red" stroke="red" stroke-width="0.19" points="355.84,-1.72 346.36,-6.47 356.73,-8.67 355.84,-1.72"/>
</g>
</g>
</svg>
