<?xml version="1.0" encoding="UTF-8" standalone="no"?>
<!DOCTYPE svg PUBLIC "-//W3C//DTD SVG 1.1//EN"
 "http://www.w3.org/Graphics/SVG/1.1/DTD/svg11.dtd">
<!-- Generated by graphviz version 9.0.0 (20230911.1827)
 -->
<!-- Pages: 1 -->
<svg width="874pt" height="92pt"
 viewBox="0.00 0.00 874.00 92.24" xmlns="http://www.w3.org/2000/svg" xmlns:xlink="http://www.w3.org/1999/xlink">
<g id="graph0" class="graph" transform="scale(1 1) rotate(0) translate(4 88.24)">
<polygon fill="white" stroke="none" points="-4,4 -4,-88.24 870,-88.24 870,4 -4,4"/>
<!-- &#45;1 -->
<g id="node1" class="node">
<title>&#45;1</title>
<polygon fill="lightgray" stroke="black" points="69.75,-84.24 46.25,-84.24 46.25,-64.99 69.75,-64.99 69.75,-84.24"/>
<text text-anchor="middle" x="58" y="-71.69" font-family="Times New Roman,serif" font-size="9.00">&#45;1</text>
</g>
<!-- 0 -->
<g id="node21" class="node">
<title>0</title>
<ellipse fill="lightblue" stroke="black" cx="206" cy="-14.5" rx="14.5" ry="14.5"/>
<text text-anchor="middle" x="206" y="-11.57" font-family="Times New Roman,serif" font-size="9.00">0</text>
</g>
<!-- &#45;1&#45;&gt;0 -->
<g id="edge4" class="edge">
<title>&#45;1&#45;&gt;0</title>
<path fill="none" stroke="green" stroke-width="0.81" d="M69.98,-68.65C72.92,-67.44 76.07,-66.16 79,-64.99 114.98,-50.59 156.9,-34.36 182.43,-24.53"/>
<polygon fill="green" stroke="green" stroke-width="0.81" points="183.4,-27.91 191.48,-21.06 180.89,-21.38 183.4,-27.91"/>
</g>
<!-- &#45;2 -->
<g id="node2" class="node">
<title>&#45;2</title>
<polygon fill="lightgray" stroke="black" points="463.75,-84.24 440.25,-84.24 440.25,-64.99 463.75,-64.99 463.75,-84.24"/>
<text text-anchor="middle" x="452" y="-71.69" font-family="Times New Roman,serif" font-size="9.00">&#45;2</text>
</g>
<!-- 1 -->
<g id="node22" class="node">
<title>1</title>
<ellipse fill="lightblue" stroke="black" cx="494" cy="-14.5" rx="14.5" ry="14.5"/>
<text text-anchor="middle" x="494" y="-11.57" font-family="Times New Roman,serif" font-size="9.00">1</text>
</g>
<!-- &#45;2&#45;&gt;1 -->
<g id="edge7" class="edge">
<title>&#45;2&#45;&gt;1</title>
<path fill="none" stroke="red" stroke-width="0.18" d="M458.56,-64.54C464.27,-56.63 472.74,-44.91 479.97,-34.91"/>
<polygon fill="red" stroke="red" stroke-width="0.18" points="482.72,-37.08 485.74,-26.93 477.05,-32.98 482.72,-37.08"/>
</g>
<!-- &#45;3 -->
<g id="node3" class="node">
<title>&#45;3</title>
<polygon fill="lightgray" stroke="black" points="505.75,-84.24 482.25,-84.24 482.25,-64.99 505.75,-64.99 505.75,-84.24"/>
<text text-anchor="middle" x="494" y="-71.69" font-family="Times New Roman,serif" font-size="9.00">&#45;3</text>
</g>
<!-- &#45;3&#45;&gt;1 -->
<g id="edge1" class="edge">
<title>&#45;3&#45;&gt;1</title>
<path fill="none" stroke="green" stroke-width="0.23" d="M494,-64.54C494,-57.82 494,-48.34 494,-39.5"/>
<polygon fill="green" stroke="green" stroke-width="0.23" points="497.5,-39.61 494,-29.61 490.5,-39.61 497.5,-39.61"/>
</g>
<!-- &#45;4 -->
<g id="node4" class="node">
<title>&#45;4</title>
<polygon fill="lightgray" stroke="black" points="111.75,-84.24 88.25,-84.24 88.25,-64.99 111.75,-64.99 111.75,-84.24"/>
<text text-anchor="middle" x="100" y="-71.69" font-family="Times New Roman,serif" font-size="9.00">&#45;4</text>
</g>
<!-- &#45;4&#45;&gt;0 -->
<g id="edge14" class="edge">
<title>&#45;4&#45;&gt;0</title>
<path fill="none" stroke="red" stroke-width="0.65" d="M112.16,-66.95C129.62,-57.37 162.1,-39.57 183.88,-27.62"/>
<polygon fill="red" stroke="red" stroke-width="0.65" points="185.38,-30.79 192.47,-22.91 182.02,-24.65 185.38,-30.79"/>
</g>
<!-- &#45;5 -->
<g id="node5" class="node">
<title>&#45;5</title>
<polygon fill="lightgray" stroke="black" points="329.75,-84.24 306.25,-84.24 306.25,-64.99 329.75,-64.99 329.75,-84.24"/>
<text text-anchor="middle" x="318" y="-71.69" font-family="Times New Roman,serif" font-size="9.00">&#45;5</text>
</g>
<!-- &#45;5&#45;&gt;0 -->
<g id="edge21" class="edge">
<title>&#45;5&#45;&gt;0</title>
<path fill="none" stroke="green" stroke-width="0.18" d="M306.01,-67.4C287.27,-57.67 250.74,-38.71 227.4,-26.6"/>
<polygon fill="green" stroke="green" stroke-width="0.18" points="229.31,-23.65 218.82,-22.15 226.08,-29.86 229.31,-23.65"/>
</g>
<!-- &#45;5&#45;&gt;1 -->
<g id="edge3" class="edge">
<title>&#45;5&#45;&gt;1</title>
<path fill="none" stroke="red" stroke-width="0.28" d="M329.93,-68.52C332.88,-67.32 336.04,-66.07 339,-64.99 385.06,-48.21 439.9,-31.44 470.45,-22.37"/>
<polygon fill="red" stroke="red" stroke-width="0.28" points="471.19,-25.8 479.79,-19.62 469.21,-19.09 471.19,-25.8"/>
</g>
<!-- &#45;6 -->
<g id="node6" class="node">
<title>&#45;6</title>
<polygon fill="lightgray" stroke="black" points="727.75,-84.24 704.25,-84.24 704.25,-64.99 727.75,-64.99 727.75,-84.24"/>
<text text-anchor="middle" x="716" y="-71.69" font-family="Times New Roman,serif" font-size="9.00">&#45;6</text>
</g>
<!-- &#45;7 -->
<g id="node7" class="node">
<title>&#45;7</title>
<polygon fill="lightgray" stroke="black" points="153.75,-84.24 130.25,-84.24 130.25,-64.99 153.75,-64.99 153.75,-84.24"/>
<text text-anchor="middle" x="142" y="-71.69" font-family="Times New Roman,serif" font-size="9.00">&#45;7</text>
</g>
<!-- &#45;7&#45;&gt;0 -->
<g id="edge16" class="edge">
<title>&#45;7&#45;&gt;0</title>
<path fill="none" stroke="green" stroke-width="0.19" stroke-dasharray="1,5" d="M152,-64.54C161.6,-55.82 176.31,-42.46 187.96,-31.88"/>
<polygon fill="green" stroke="green" stroke-width="0.19" points="190.16,-34.6 195.21,-25.29 185.46,-29.42 190.16,-34.6"/>
</g>
<!-- &#45;8 -->
<g id="node8" class="node">
<title>&#45;8</title>
<polygon fill="lightgray" stroke="black" points="547.75,-84.24 524.25,-84.24 524.25,-64.99 547.75,-64.99 547.75,-84.24"/>
<text text-anchor="middle" x="536" y="-71.69" font-family="Times New Roman,serif" font-size="9.00">&#45;8</text>
</g>
<!-- &#45;8&#45;&gt;1 -->
<g id="edge2" class="edge">
<title>&#45;8&#45;&gt;1</title>
<path fill="none" stroke="red" stroke-width="0.38" d="M529.44,-64.54C523.79,-56.71 515.43,-45.15 508.25,-35.21"/>
<polygon fill="red" stroke="red" stroke-width="0.38" points="511.13,-33.23 502.44,-27.17 505.46,-37.33 511.13,-33.23"/>
</g>
<!-- &#45;9 -->
<g id="node9" class="node">
<title>&#45;9</title>
<polygon fill="lightgray" stroke="black" points="195.75,-84.24 172.25,-84.24 172.25,-64.99 195.75,-64.99 195.75,-84.24"/>
<text text-anchor="middle" x="184" y="-71.69" font-family="Times New Roman,serif" font-size="9.00">&#45;9</text>
</g>
<!-- &#45;9&#45;&gt;0 -->
<g id="edge13" class="edge">
<title>&#45;9&#45;&gt;0</title>
<path fill="none" stroke="red" stroke-width="0.89" stroke-dasharray="1,5" d="M187.44,-64.54C190.05,-57.63 193.76,-47.82 197.18,-38.79"/>
<polygon fill="red" stroke="red" stroke-width="0.89" points="200.37,-40.25 200.64,-29.66 193.83,-37.77 200.37,-40.25"/>
</g>
<!-- &#45;10 -->
<g id="node10" class="node">
<title>&#45;10</title>
<polygon fill="lightgray" stroke="black" points="242,-84.24 214,-84.24 214,-64.99 242,-64.99 242,-84.24"/>
<text text-anchor="middle" x="228" y="-71.69" font-family="Times New Roman,serif" font-size="9.00">&#45;10</text>
</g>
<!-- &#45;10&#45;&gt;0 -->
<g id="edge19" class="edge">
<title>&#45;10&#45;&gt;0</title>
<path fill="none" stroke="red" stroke-width="0.34" d="M224.56,-64.54C221.89,-57.48 218.07,-47.39 214.59,-38.19"/>
<polygon fill="red" stroke="red" stroke-width="0.34" points="217.88,-36.99 211.07,-28.88 211.33,-39.47 217.88,-36.99"/>
</g>
<!-- &#45;11 -->
<g id="node11" class="node">
<title>&#45;11</title>
<polygon fill="lightgray" stroke="black" points="774,-84.24 746,-84.24 746,-64.99 774,-64.99 774,-84.24"/>
<text text-anchor="middle" x="760" y="-71.69" font-family="Times New Roman,serif" font-size="9.00">&#45;11</text>
</g>
<!-- &#45;12 -->
<g id="node12" class="node">
<title>&#45;12</title>
<polygon fill="lightgray" stroke="black" points="594,-84.24 566,-84.24 566,-64.99 594,-64.99 594,-84.24"/>
<text text-anchor="middle" x="580" y="-71.69" font-family="Times New Roman,serif" font-size="9.00">&#45;12</text>
</g>
<!-- &#45;12&#45;&gt;1 -->
<g id="edge20" class="edge">
<title>&#45;12&#45;&gt;1</title>
<path fill="none" stroke="green" stroke-width="0.2" d="M566.56,-64.54C552.45,-55 530.11,-39.9 513.94,-28.97"/>
<polygon fill="green" stroke="green" stroke-width="0.2" points="516.18,-26.26 505.93,-23.56 512.26,-32.06 516.18,-26.26"/>
</g>
<!-- &#45;13 -->
<g id="node13" class="node">
<title>&#45;13</title>
<polygon fill="lightgray" stroke="black" points="376,-84.24 348,-84.24 348,-64.99 376,-64.99 376,-84.24"/>
<text text-anchor="middle" x="362" y="-71.69" font-family="Times New Roman,serif" font-size="9.00">&#45;13</text>
</g>
<!-- &#45;13&#45;&gt;0 -->
<g id="edge15" class="edge">
<title>&#45;13&#45;&gt;0</title>
<path fill="none" stroke="green" stroke-width="0.2" stroke-dasharray="1,5" d="M347.89,-68.32C344.95,-67.22 341.88,-66.07 339,-64.99 300.49,-50.61 255.68,-33.95 229.14,-24.09"/>
<polygon fill="green" stroke="green" stroke-width="0.2" points="230.47,-20.85 219.88,-20.65 228.04,-27.41 230.47,-20.85"/>
</g>
<!-- &#45;13&#45;&gt;1 -->
<g id="edge11" class="edge">
<title>&#45;13&#45;&gt;1</title>
<path fill="none" stroke="green" stroke-width="0.13" d="M376.38,-67.29C399.35,-57.17 444.5,-37.29 471.69,-25.32"/>
<polygon fill="green" stroke="green" stroke-width="0.13" points="472.9,-28.61 480.64,-21.38 470.08,-22.2 472.9,-28.61"/>
</g>
<!-- &#45;14 -->
<g id="node14" class="node">
<title>&#45;14</title>
<polygon fill="lightgray" stroke="black" points="640,-84.24 612,-84.24 612,-64.99 640,-64.99 640,-84.24"/>
<text text-anchor="middle" x="626" y="-71.69" font-family="Times New Roman,serif" font-size="9.00">&#45;14</text>
</g>
<!-- &#45;14&#45;&gt;1 -->
<g id="edge8" class="edge">
<title>&#45;14&#45;&gt;1</title>
<path fill="none" stroke="red" stroke-width="1.48" d="M611.62,-67.29C589.15,-57.39 545.47,-38.16 518.12,-26.12"/>
<polygon fill="red" stroke="red" stroke-width="1.48" points="519.79,-23.03 509.23,-22.2 516.97,-29.43 519.79,-23.03"/>
</g>
<!-- &#45;15 -->
<g id="node15" class="node">
<title>&#45;15</title>
<polygon fill="lightgray" stroke="black" points="422,-84.24 394,-84.24 394,-64.99 422,-64.99 422,-84.24"/>
<text text-anchor="middle" x="408" y="-71.69" font-family="Times New Roman,serif" font-size="9.00">&#45;15</text>
</g>
<!-- &#45;15&#45;&gt;0 -->
<g id="edge12" class="edge">
<title>&#45;15&#45;&gt;0</title>
<path fill="none" stroke="green" stroke-width="0.65" d="M393.96,-68.13C391.02,-67.04 387.92,-65.94 385,-64.99 330.45,-47.26 265.28,-30.27 230.59,-21.56"/>
<polygon fill="green" stroke="green" stroke-width="0.65" points="231.55,-18.19 221,-19.16 229.86,-24.98 231.55,-18.19"/>
</g>
<!-- &#45;15&#45;&gt;1 -->
<g id="edge18" class="edge">
<title>&#45;15&#45;&gt;1</title>
<path fill="none" stroke="red" stroke-width="0.75" d="M421.44,-64.54C435.29,-55.18 457.07,-40.46 473.15,-29.58"/>
<polygon fill="red" stroke="red" stroke-width="0.75" points="475.05,-32.53 481.37,-24.03 471.13,-26.73 475.05,-32.53"/>
</g>
<!-- &#45;16 -->
<g id="node16" class="node">
<title>&#45;16</title>
<polygon fill="lightgray" stroke="black" points="686,-84.24 658,-84.24 658,-64.99 686,-64.99 686,-84.24"/>
<text text-anchor="middle" x="672" y="-71.69" font-family="Times New Roman,serif" font-size="9.00">&#45;16</text>
</g>
<!-- &#45;16&#45;&gt;1 -->
<g id="edge5" class="edge">
<title>&#45;16&#45;&gt;1</title>
<path fill="none" stroke="red" stroke-width="0.34" d="M657.93,-68.21C654.99,-67.12 651.9,-66 649,-64.99 602.69,-48.92 547.94,-31.9 517.47,-22.59"/>
<polygon fill="red" stroke="red" stroke-width="0.34" points="518.84,-19.35 508.25,-19.79 516.8,-26.05 518.84,-19.35"/>
</g>
<!-- &#45;17 -->
<g id="node17" class="node">
<title>&#45;17</title>
<polygon fill="lightgray" stroke="black" points="288,-84.24 260,-84.24 260,-64.99 288,-64.99 288,-84.24"/>
<text text-anchor="middle" x="274" y="-71.69" font-family="Times New Roman,serif" font-size="9.00">&#45;17</text>
</g>
<!-- &#45;17&#45;&gt;0 -->
<g id="edge6" class="edge">
<title>&#45;17&#45;&gt;0</title>
<path fill="none" stroke="green" stroke-width="0.89" d="M263.38,-64.54C253.16,-55.8 237.47,-42.4 225.09,-31.81"/>
<polygon fill="green" stroke="green" stroke-width="0.89" points="227.67,-29.41 217.79,-25.58 223.12,-34.73 227.67,-29.41"/>
</g>
<!-- &#45;18 -->
<g id="node18" class="node">
<title>&#45;18</title>
<polygon fill="lightgray" stroke="black" points="28,-84.24 0,-84.24 0,-64.99 28,-64.99 28,-84.24"/>
<text text-anchor="middle" x="14" y="-71.69" font-family="Times New Roman,serif" font-size="9.00">&#45;18</text>
</g>
<!-- &#45;18&#45;&gt;0 -->
<g id="edge9" class="edge">
<title>&#45;18&#45;&gt;0</title>
<path fill="none" stroke="green" stroke-width="0.32" d="M28.05,-68.16C30.99,-67.07 34.09,-65.96 37,-64.99 88.07,-47.96 148.85,-30.94 181.81,-21.97"/>
<polygon fill="green" stroke="green" stroke-width="0.32" points="182.66,-25.37 191.4,-19.38 180.83,-18.61 182.66,-25.37"/>
</g>
<!-- &#45;19 -->
<g id="node19" class="node">
<title>&#45;19</title>
<polygon fill="lightgray" stroke="black" points="820,-84.24 792,-84.24 792,-64.99 820,-64.99 820,-84.24"/>
<text text-anchor="middle" x="806" y="-71.69" font-family="Times New Roman,serif" font-size="9.00">&#45;19</text>
</g>
<!-- &#45;20 -->
<g id="node20" class="node">
<title>&#45;20</title>
<polygon fill="lightgray" stroke="black" points="866,-84.24 838,-84.24 838,-64.99 866,-64.99 866,-84.24"/>
<text text-anchor="middle" x="852" y="-71.69" font-family="Times New Roman,serif" font-size="9.00">&#45;20</text>
</g>
<!-- 0&#45;&gt;0 -->
<g id="edge10" class="edge">
<title>0&#45;&gt;0</title>
<path fill="none" stroke="green" stroke-width="0.88" d="M217.66,-23.91C227.79,-28.2 238.5,-25.06 238.5,-14.5 238.5,-7.89 234.31,-4.19 228.7,-3.39"/>
<polygon fill="green" stroke="green" stroke-width="0.88" points="228.34,0.1 218.98,-4.88 229.4,-6.82 228.34,0.1"/>
</g>
<!-- 1&#45;&gt;1 -->
<g id="edge17" class="edge">
<title>1&#45;&gt;1</title>
<path fill="none" stroke="red" stroke-width="0.2" d="M505.66,-23.91C515.79,-28.2 526.5,-25.06 526.5,-14.5 526.5,-7.4 521.66,-3.65 515.42,-3.26"/>
<polygon fill="red" stroke="red" stroke-width="0.2" points="515.14,0.25 505.96,-5.03 516.43,-6.63 515.14,0.25"/>
</g>
</g>
</svg>
