<?xml version="1.0" encoding="UTF-8" standalone="no"?>
<!DOCTYPE svg PUBLIC "-//W3C//DTD SVG 1.1//EN"
 "http://www.w3.org/Graphics/SVG/1.1/DTD/svg11.dtd">
<!-- Generated by graphviz version 2.43.0 (0)
 -->
<!-- Title: %3 Pages: 1 -->
<svg width="536pt" height="189pt"
 viewBox="0.00 0.00 536.00 188.51" xmlns="http://www.w3.org/2000/svg" xmlns:xlink="http://www.w3.org/1999/xlink">
<g id="graph0" class="graph" transform="scale(1 1) rotate(0) translate(4 184.51)">
<title>%3</title>
<polygon fill="white" stroke="transparent" points="-4,4 -4,-184.51 532,-184.51 532,4 -4,4"/>
<!-- &#45;1 -->
<g id="node1" class="node">
<title>&#45;1</title>
<polygon fill="lightgray" stroke="black" points="26,-180.51 0,-180.51 0,-162.51 26,-162.51 26,-180.51"/>
<text text-anchor="middle" x="13" y="-169.31" font-family="Times,serif" font-size="9.00">&#45;1</text>
</g>
<!-- &#45;2 -->
<g id="node2" class="node">
<title>&#45;2</title>
<polygon fill="lightgray" stroke="black" points="120,-180.51 94,-180.51 94,-162.51 120,-162.51 120,-180.51"/>
<text text-anchor="middle" x="107" y="-169.31" font-family="Times,serif" font-size="9.00">&#45;2</text>
</g>
<!-- 0 -->
<g id="node13" class="node">
<title>0</title>
<ellipse fill="lightblue" stroke="black" cx="173" cy="-110.25" rx="16.03" ry="16.03"/>
<text text-anchor="middle" x="173" y="-108.05" font-family="Times,serif" font-size="9.00">0</text>
</g>
<!-- &#45;2&#45;&gt;0 -->
<g id="edge11" class="edge">
<title>&#45;2&#45;&gt;0</title>
<path fill="none" stroke="red" stroke-width="0.38" d="M116.18,-162.27C125.82,-153.61 141.29,-139.72 153.65,-128.62"/>
<polygon fill="red" stroke="red" stroke-width="0.38" points="156.13,-131.1 161.23,-121.82 151.45,-125.89 156.13,-131.1"/>
</g>
<!-- &#45;3 -->
<g id="node3" class="node">
<title>&#45;3</title>
<polygon fill="lightgray" stroke="black" points="164,-180.51 138,-180.51 138,-162.51 164,-162.51 164,-180.51"/>
<text text-anchor="middle" x="151" y="-169.31" font-family="Times,serif" font-size="9.00">&#45;3</text>
</g>
<!-- &#45;3&#45;&gt;0 -->
<g id="edge6" class="edge">
<title>&#45;3&#45;&gt;0</title>
<path fill="none" stroke="red" stroke-width="0.68" d="M154.06,-162.27C156.65,-155.28 160.51,-144.9 164.06,-135.32"/>
<polygon fill="red" stroke="red" stroke-width="0.68" points="167.4,-136.39 167.6,-125.8 160.84,-133.96 167.4,-136.39"/>
</g>
<!-- &#45;4 -->
<g id="node4" class="node">
<title>&#45;4</title>
<polygon fill="lightgray" stroke="black" points="484,-180.51 458,-180.51 458,-162.51 484,-162.51 484,-180.51"/>
<text text-anchor="middle" x="471" y="-169.31" font-family="Times,serif" font-size="9.00">&#45;4</text>
</g>
<!-- &#45;5 -->
<g id="node5" class="node">
<title>&#45;5</title>
<polygon fill="lightgray" stroke="black" points="528,-180.51 502,-180.51 502,-162.51 528,-162.51 528,-180.51"/>
<text text-anchor="middle" x="515" y="-169.31" font-family="Times,serif" font-size="9.00">&#45;5</text>
</g>
<!-- &#45;6 -->
<g id="node6" class="node">
<title>&#45;6</title>
<polygon fill="lightgray" stroke="black" points="346,-180.51 320,-180.51 320,-162.51 346,-162.51 346,-180.51"/>
<text text-anchor="middle" x="333" y="-169.31" font-family="Times,serif" font-size="9.00">&#45;6</text>
</g>
<!-- 1 -->
<g id="node14" class="node">
<title>1</title>
<ellipse fill="lightblue" stroke="black" cx="333" cy="-110.25" rx="16.03" ry="16.03"/>
<text text-anchor="middle" x="333" y="-108.05" font-family="Times,serif" font-size="9.00">1</text>
</g>
<!-- &#45;6&#45;&gt;1 -->
<g id="edge10" class="edge">
<title>&#45;6&#45;&gt;1</title>
<path fill="none" stroke="green" stroke-width="0.48" d="M333,-162.27C333,-155.69 333,-146.09 333,-136.98"/>
<polygon fill="green" stroke="green" stroke-width="0.48" points="336.5,-136.74 333,-126.74 329.5,-136.74 336.5,-136.74"/>
</g>
<!-- &#45;7 -->
<g id="node7" class="node">
<title>&#45;7</title>
<polygon fill="lightgray" stroke="black" points="302,-180.51 276,-180.51 276,-162.51 302,-162.51 302,-180.51"/>
<text text-anchor="middle" x="289" y="-169.31" font-family="Times,serif" font-size="9.00">&#45;7</text>
</g>
<!-- &#45;7&#45;&gt;0 -->
<g id="edge4" class="edge">
<title>&#45;7&#45;&gt;0</title>
<path fill="none" stroke="red" stroke-width="0.39" d="M275.69,-163.71C256.34,-153.82 220.14,-135.33 196.31,-123.15"/>
<polygon fill="red" stroke="red" stroke-width="0.39" points="197.73,-119.95 187.23,-118.52 194.55,-126.19 197.73,-119.95"/>
</g>
<!-- &#45;7&#45;&gt;1 -->
<g id="edge9" class="edge">
<title>&#45;7&#45;&gt;1</title>
<path fill="none" stroke="green" stroke-width="0.18" d="M295.12,-162.27C300.87,-154.52 309.73,-142.58 317.44,-132.2"/>
<polygon fill="green" stroke="green" stroke-width="0.18" points="320.4,-134.09 323.55,-123.98 314.78,-129.92 320.4,-134.09"/>
</g>
<!-- &#45;8 -->
<g id="node8" class="node">
<title>&#45;8</title>
<polygon fill="lightgray" stroke="black" points="208,-180.51 182,-180.51 182,-162.51 208,-162.51 208,-180.51"/>
<text text-anchor="middle" x="195" y="-169.31" font-family="Times,serif" font-size="9.00">&#45;8</text>
</g>
<!-- &#45;8&#45;&gt;0 -->
<g id="edge12" class="edge">
<title>&#45;8&#45;&gt;0</title>
<path fill="none" stroke="green" stroke-width="0.25" d="M191.94,-162.27C189.35,-155.28 185.49,-144.9 181.94,-135.32"/>
<polygon fill="green" stroke="green" stroke-width="0.25" points="185.16,-133.96 178.4,-125.8 178.6,-136.39 185.16,-133.96"/>
</g>
<!-- &#45;9 -->
<g id="node9" class="node">
<title>&#45;9</title>
<polygon fill="lightgray" stroke="black" points="390,-180.51 364,-180.51 364,-162.51 390,-162.51 390,-180.51"/>
<text text-anchor="middle" x="377" y="-169.31" font-family="Times,serif" font-size="9.00">&#45;9</text>
</g>
<!-- &#45;9&#45;&gt;1 -->
<g id="edge1" class="edge">
<title>&#45;9&#45;&gt;1</title>
<path fill="none" stroke="red" stroke-width="0.61" stroke-dasharray="1,5" d="M370.88,-162.27C365.13,-154.52 356.27,-142.58 348.56,-132.2"/>
<polygon fill="red" stroke="red" stroke-width="0.61" points="351.22,-129.92 342.45,-123.98 345.6,-134.09 351.22,-129.92"/>
</g>
<!-- &#45;10 -->
<g id="node10" class="node">
<title>&#45;10</title>
<polygon fill="lightgray" stroke="black" points="258,-180.51 226,-180.51 226,-162.51 258,-162.51 258,-180.51"/>
<text text-anchor="middle" x="242" y="-169.31" font-family="Times,serif" font-size="9.00">&#45;10</text>
</g>
<!-- &#45;10&#45;&gt;0 -->
<g id="edge2" class="edge">
<title>&#45;10&#45;&gt;0</title>
<path fill="none" stroke="green" stroke-width="0.45" d="M232.41,-162.27C222.32,-153.61 206.16,-139.72 193.23,-128.62"/>
<polygon fill="green" stroke="green" stroke-width="0.45" points="195.17,-125.68 185.31,-121.82 190.61,-130.99 195.17,-125.68"/>
</g>
<!-- &#45;10&#45;&gt;1 -->
<g id="edge5" class="edge">
<title>&#45;10&#45;&gt;1</title>
<path fill="none" stroke="green" stroke-width="0.22" d="M254.65,-162.27C269.21,-152.79 293.37,-137.06 311.02,-125.56"/>
<polygon fill="green" stroke="green" stroke-width="0.22" points="313.1,-128.38 319.57,-119.99 309.28,-122.52 313.1,-128.38"/>
</g>
<!-- &#45;11 -->
<g id="node11" class="node">
<title>&#45;11</title>
<polygon fill="lightgray" stroke="black" points="76,-180.51 44,-180.51 44,-162.51 76,-162.51 76,-180.51"/>
<text text-anchor="middle" x="60" y="-169.31" font-family="Times,serif" font-size="9.00">&#45;11</text>
</g>
<!-- &#45;11&#45;&gt;0 -->
<g id="edge3" class="edge">
<title>&#45;11&#45;&gt;0</title>
<path fill="none" stroke="green" stroke-width="0.14" stroke-dasharray="1,5" d="M75.71,-162.27C94.94,-152.18 127.67,-135.02 149.8,-123.42"/>
<polygon fill="green" stroke="green" stroke-width="0.14" points="151.62,-126.41 158.85,-118.67 148.36,-120.21 151.62,-126.41"/>
</g>
<!-- &#45;12 -->
<g id="node12" class="node">
<title>&#45;12</title>
<polygon fill="lightgray" stroke="black" points="440,-180.51 408,-180.51 408,-162.51 440,-162.51 440,-180.51"/>
<text text-anchor="middle" x="424" y="-169.31" font-family="Times,serif" font-size="9.00">&#45;12</text>
</g>
<!-- &#45;12&#45;&gt;1 -->
<g id="edge13" class="edge">
<title>&#45;12&#45;&gt;1</title>
<path fill="none" stroke="red" stroke-width="0.26" d="M411.35,-162.27C396.79,-152.79 372.63,-137.06 354.98,-125.56"/>
<polygon fill="red" stroke="red" stroke-width="0.26" points="356.72,-122.52 346.43,-119.99 352.9,-128.38 356.72,-122.52"/>
</g>
<!-- 0&#45;&gt;0 -->
<g id="edge8" class="edge">
<title>0&#45;&gt;0</title>
<path fill="none" stroke="red" stroke-width="0.2" stroke-dasharray="1,5" d="M186.36,-120.04C196.71,-123.71 207.26,-120.44 207.26,-110.25 207.26,-103.56 202.72,-99.85 196.67,-99.13"/>
<polygon fill="red" stroke="red" stroke-width="0.2" points="195.84,-95.71 186.36,-100.45 196.73,-102.65 195.84,-95.71"/>
</g>
<!-- 2764 -->
<g id="node15" class="node">
<title>2764</title>
<ellipse fill="white" stroke="black" cx="173" cy="-28.99" rx="28.98" ry="28.98"/>
<text text-anchor="middle" x="173" y="-26.79" font-family="Times,serif" font-size="9.00">2764</text>
</g>
<!-- 0&#45;&gt;2764 -->
<g id="edge14" class="edge">
<title>0&#45;&gt;2764</title>
<path fill="none" stroke="green" stroke-width="0.32" d="M173,-93.97C173,-86.58 173,-77.35 173,-68.22"/>
<polygon fill="green" stroke="green" stroke-width="0.32" points="176.5,-68.06 173,-58.06 169.5,-68.06 176.5,-68.06"/>
</g>
<!-- 1&#45;&gt;1 -->
<g id="edge7" class="edge">
<title>1&#45;&gt;1</title>
<path fill="none" stroke="red" stroke-width="0.58" d="M346.36,-120.04C356.71,-123.71 367.26,-120.44 367.26,-110.25 367.26,-103.56 362.72,-99.85 356.67,-99.13"/>
<polygon fill="red" stroke="red" stroke-width="0.58" points="355.84,-95.71 346.36,-100.45 356.73,-102.65 355.84,-95.71"/>
</g>
</g>
</svg>
