<?xml version="1.0" encoding="UTF-8" standalone="no"?>
<!DOCTYPE svg PUBLIC "-//W3C//DTD SVG 1.1//EN"
 "http://www.w3.org/Graphics/SVG/1.1/DTD/svg11.dtd">
<!-- Generated by graphviz version 2.43.0 (0)
 -->
<!-- Title: %3 Pages: 1 -->
<svg width="370pt" height="205pt"
 viewBox="0.00 0.00 370.00 205.48" xmlns="http://www.w3.org/2000/svg" xmlns:xlink="http://www.w3.org/1999/xlink">
<g id="graph0" class="graph" transform="scale(1 1) rotate(0) translate(4 201.48)">
<title>%3</title>
<polygon fill="white" stroke="transparent" points="-4,4 -4,-201.48 366,-201.48 366,4 -4,4"/>
<!-- &#45;1 -->
<g id="node1" class="node">
<title>&#45;1</title>
<polygon fill="lightgray" stroke="black" points="82,-197.48 56,-197.48 56,-179.48 82,-179.48 82,-197.48"/>
<text text-anchor="middle" x="69" y="-186.28" font-family="Times,serif" font-size="9.00">&#45;1</text>
</g>
<!-- &#45;2 -->
<g id="node2" class="node">
<title>&#45;2</title>
<polygon fill="lightgray" stroke="black" points="174,-197.48 148,-197.48 148,-179.48 174,-179.48 174,-197.48"/>
<text text-anchor="middle" x="161" y="-186.28" font-family="Times,serif" font-size="9.00">&#45;2</text>
</g>
<!-- 1 -->
<g id="node14" class="node">
<title>1</title>
<ellipse fill="lightblue" stroke="black" cx="148" cy="-28.99" rx="16.03" ry="16.03"/>
<text text-anchor="middle" x="148" y="-26.79" font-family="Times,serif" font-size="9.00">1</text>
</g>
<!-- &#45;2&#45;&gt;1 -->
<g id="edge7" class="edge">
<title>&#45;2&#45;&gt;1</title>
<path fill="none" stroke="green" stroke-width="0.35" d="M160.34,-179.45C158.47,-156.85 153.11,-91.92 150.11,-55.51"/>
<polygon fill="green" stroke="green" stroke-width="0.35" points="153.57,-54.89 149.26,-45.21 146.59,-55.46 153.57,-54.89"/>
</g>
<!-- 187 -->
<g id="node15" class="node">
<title>187</title>
<ellipse fill="white" stroke="black" cx="113" cy="-118.73" rx="25" ry="25"/>
<text text-anchor="middle" x="113" y="-116.53" font-family="Times,serif" font-size="9.00">187</text>
</g>
<!-- &#45;2&#45;&gt;187 -->
<g id="edge10" class="edge">
<title>&#45;2&#45;&gt;187</title>
<path fill="none" stroke="red" stroke-width="0.2" stroke-dasharray="1,5" d="M155.31,-179.44C149.76,-171.62 141.02,-159.28 132.91,-147.84"/>
<polygon fill="red" stroke="red" stroke-width="0.2" points="135.54,-145.49 126.9,-139.36 129.83,-149.54 135.54,-145.49"/>
</g>
<!-- &#45;3 -->
<g id="node3" class="node">
<title>&#45;3</title>
<polygon fill="lightgray" stroke="black" points="26,-127.73 0,-127.73 0,-109.73 26,-109.73 26,-127.73"/>
<text text-anchor="middle" x="13" y="-116.53" font-family="Times,serif" font-size="9.00">&#45;3</text>
</g>
<!-- &#45;3&#45;&gt;1 -->
<g id="edge5" class="edge">
<title>&#45;3&#45;&gt;1</title>
<path fill="none" stroke="green" stroke-width="0.14" stroke-dasharray="1,5" d="M19.39,-109.65C23.52,-104.76 29.18,-98.59 35,-93.98 63.15,-71.7 100.01,-52.38 123.84,-40.96"/>
<polygon fill="green" stroke="green" stroke-width="0.14" points="125.64,-43.98 133.2,-36.56 122.66,-37.65 125.64,-43.98"/>
</g>
<!-- &#45;4 -->
<g id="node4" class="node">
<title>&#45;4</title>
<polygon fill="lightgray" stroke="black" points="264,-127.73 238,-127.73 238,-109.73 264,-109.73 264,-127.73"/>
<text text-anchor="middle" x="251" y="-116.53" font-family="Times,serif" font-size="9.00">&#45;4</text>
</g>
<!-- 0 -->
<g id="node13" class="node">
<title>0</title>
<ellipse fill="lightblue" stroke="black" cx="243" cy="-28.99" rx="16.03" ry="16.03"/>
<text text-anchor="middle" x="243" y="-26.79" font-family="Times,serif" font-size="9.00">0</text>
</g>
<!-- &#45;4&#45;&gt;0 -->
<g id="edge4" class="edge">
<title>&#45;4&#45;&gt;0</title>
<path fill="none" stroke="red" stroke-width="0.24" d="M250.26,-109.63C249.15,-97.43 247,-73.82 245.32,-55.45"/>
<polygon fill="red" stroke="red" stroke-width="0.24" points="248.8,-55.02 244.4,-45.37 241.83,-55.65 248.8,-55.02"/>
</g>
<!-- &#45;4&#45;&gt;1 -->
<g id="edge1" class="edge">
<title>&#45;4&#45;&gt;1</title>
<path fill="none" stroke="green" stroke-width="0.16" d="M243.96,-109.52C239.78,-104.8 234.28,-98.87 229,-93.98 209.61,-76.06 185.71,-57.57 168.92,-45.11"/>
<polygon fill="green" stroke="green" stroke-width="0.16" points="170.97,-42.28 160.84,-39.17 166.83,-47.92 170.97,-42.28"/>
</g>
<!-- &#45;5 -->
<g id="node5" class="node">
<title>&#45;5</title>
<polygon fill="lightgray" stroke="black" points="70,-127.73 44,-127.73 44,-109.73 70,-109.73 70,-127.73"/>
<text text-anchor="middle" x="57" y="-116.53" font-family="Times,serif" font-size="9.00">&#45;5</text>
</g>
<!-- &#45;5&#45;&gt;1 -->
<g id="edge3" class="edge">
<title>&#45;5&#45;&gt;1</title>
<path fill="none" stroke="red" stroke-width="0.11" stroke-dasharray="1,5" d="M64.19,-109.67C68.41,-105.01 73.91,-99.07 79,-93.98 95.22,-77.75 114.41,-60.07 128.43,-47.42"/>
<polygon fill="red" stroke="red" stroke-width="0.11" points="130.92,-49.88 136.02,-40.6 126.25,-44.67 130.92,-49.88"/>
</g>
<!-- &#45;6 -->
<g id="node6" class="node">
<title>&#45;6</title>
<polygon fill="lightgray" stroke="black" points="218,-197.48 192,-197.48 192,-179.48 218,-179.48 218,-197.48"/>
<text text-anchor="middle" x="205" y="-186.28" font-family="Times,serif" font-size="9.00">&#45;6</text>
</g>
<!-- &#45;7 -->
<g id="node7" class="node">
<title>&#45;7</title>
<polygon fill="lightgray" stroke="black" points="126,-197.48 100,-197.48 100,-179.48 126,-179.48 126,-197.48"/>
<text text-anchor="middle" x="113" y="-186.28" font-family="Times,serif" font-size="9.00">&#45;7</text>
</g>
<!-- &#45;7&#45;&gt;187 -->
<g id="edge12" class="edge">
<title>&#45;7&#45;&gt;187</title>
<path fill="none" stroke="green" stroke-width="0.13" d="M113,-179.44C113,-173.01 113,-163.51 113,-153.97"/>
<polygon fill="green" stroke="green" stroke-width="0.13" points="116.5,-153.75 113,-143.75 109.5,-153.75 116.5,-153.75"/>
</g>
<!-- &#45;8 -->
<g id="node8" class="node">
<title>&#45;8</title>
<polygon fill="lightgray" stroke="black" points="220,-127.73 194,-127.73 194,-109.73 220,-109.73 220,-127.73"/>
<text text-anchor="middle" x="207" y="-116.53" font-family="Times,serif" font-size="9.00">&#45;8</text>
</g>
<!-- &#45;8&#45;&gt;0 -->
<g id="edge9" class="edge">
<title>&#45;8&#45;&gt;0</title>
<path fill="none" stroke="green" stroke-width="0.44" d="M210.32,-109.63C215.49,-97.05 225.64,-72.31 233.26,-53.72"/>
<polygon fill="green" stroke="green" stroke-width="0.44" points="236.53,-54.99 237.09,-44.41 230.05,-52.33 236.53,-54.99"/>
</g>
<!-- &#45;8&#45;&gt;1 -->
<g id="edge6" class="edge">
<title>&#45;8&#45;&gt;1</title>
<path fill="none" stroke="red" stroke-width="0.26" stroke-dasharray="1,5" d="M201.56,-109.63C192.73,-96.51 175.02,-70.17 162.38,-51.37"/>
<polygon fill="red" stroke="red" stroke-width="0.26" points="165.13,-49.19 156.64,-42.84 159.32,-53.09 165.13,-49.19"/>
</g>
<!-- &#45;9 -->
<g id="node9" class="node">
<title>&#45;9</title>
<polygon fill="lightgray" stroke="black" points="262,-197.48 236,-197.48 236,-179.48 262,-179.48 262,-197.48"/>
<text text-anchor="middle" x="249" y="-186.28" font-family="Times,serif" font-size="9.00">&#45;9</text>
</g>
<!-- &#45;10 -->
<g id="node10" class="node">
<title>&#45;10</title>
<polygon fill="lightgray" stroke="black" points="312,-197.48 280,-197.48 280,-179.48 312,-179.48 312,-197.48"/>
<text text-anchor="middle" x="296" y="-186.28" font-family="Times,serif" font-size="9.00">&#45;10</text>
</g>
<!-- &#45;11 -->
<g id="node11" class="node">
<title>&#45;11</title>
<polygon fill="lightgray" stroke="black" points="362,-197.48 330,-197.48 330,-179.48 362,-179.48 362,-197.48"/>
<text text-anchor="middle" x="346" y="-186.28" font-family="Times,serif" font-size="9.00">&#45;11</text>
</g>
<!-- &#45;12 -->
<g id="node12" class="node">
<title>&#45;12</title>
<polygon fill="lightgray" stroke="black" points="314,-127.73 282,-127.73 282,-109.73 314,-109.73 314,-127.73"/>
<text text-anchor="middle" x="298" y="-116.53" font-family="Times,serif" font-size="9.00">&#45;12</text>
</g>
<!-- &#45;12&#45;&gt;0 -->
<g id="edge2" class="edge">
<title>&#45;12&#45;&gt;0</title>
<path fill="none" stroke="red" stroke-width="0.55" stroke-dasharray="1,5" d="M292.92,-109.63C284.74,-96.58 268.37,-70.46 256.6,-51.69"/>
<polygon fill="red" stroke="red" stroke-width="0.55" points="259.53,-49.76 251.25,-43.15 253.59,-53.48 259.53,-49.76"/>
</g>
<!-- 3805 -->
<g id="node16" class="node">
<title>3805</title>
<ellipse fill="white" stroke="black" cx="306" cy="-28.99" rx="28.98" ry="28.98"/>
<text text-anchor="middle" x="306" y="-26.79" font-family="Times,serif" font-size="9.00">3805</text>
</g>
<!-- &#45;12&#45;&gt;3805 -->
<g id="edge13" class="edge">
<title>&#45;12&#45;&gt;3805</title>
<path fill="none" stroke="green" stroke-width="0.41" d="M298.74,-109.63C299.61,-100.1 301.11,-83.59 302.53,-68.06"/>
<polygon fill="green" stroke="green" stroke-width="0.41" points="306.02,-68.36 303.44,-58.08 299.04,-67.73 306.02,-68.36"/>
</g>
<!-- 1&#45;&gt;1 -->
<g id="edge8" class="edge">
<title>1&#45;&gt;1</title>
<path fill="none" stroke="green" stroke-width="0.38" d="M158.52,-41.62C169.68,-49.53 182.26,-45.32 182.26,-28.99 182.26,-17.26 175.76,-11.78 167.96,-12.57"/>
<polygon fill="green" stroke="green" stroke-width="0.38" points="166.5,-9.38 158.52,-16.36 169.11,-15.88 166.5,-9.38"/>
</g>
<!-- 187&#45;&gt;1 -->
<g id="edge11" class="edge">
<title>187&#45;&gt;1</title>
<path fill="none" stroke="green" stroke-width="0.13" d="M121.83,-95.59C126.88,-82.93 133.22,-67.05 138.39,-54.08"/>
<polygon fill="green" stroke="green" stroke-width="0.13" points="141.79,-55 142.24,-44.42 135.29,-52.41 141.79,-55"/>
</g>
</g>
</svg>
