<?xml version="1.0" encoding="UTF-8" standalone="no"?>
<!DOCTYPE svg PUBLIC "-//W3C//DTD SVG 1.1//EN"
 "http://www.w3.org/Graphics/SVG/1.1/DTD/svg11.dtd">
<!-- Generated by graphviz version 2.43.0 (0)
 -->
<!-- Title: %3 Pages: 1 -->
<svg width="1336pt" height="95pt"
 viewBox="0.00 0.00 1336.00 94.53" xmlns="http://www.w3.org/2000/svg" xmlns:xlink="http://www.w3.org/1999/xlink">
<g id="graph0" class="graph" transform="scale(1 1) rotate(0) translate(4 90.53)">
<title>%3</title>
<polygon fill="white" stroke="transparent" points="-4,4 -4,-90.53 1332,-90.53 1332,4 -4,4"/>
<!-- &#45;1 -->
<g id="node1" class="node">
<title>&#45;1</title>
<polygon fill="lightgray" stroke="black" points="176,-86.53 150,-86.53 150,-68.53 176,-68.53 176,-86.53"/>
<text text-anchor="middle" x="163" y="-75.33" font-family="Times,serif" font-size="9.00">&#45;1</text>
</g>
<!-- 1 -->
<g id="node30" class="node">
<title>1</title>
<ellipse fill="lightblue" stroke="black" cx="304" cy="-16.26" rx="16.03" ry="16.03"/>
<text text-anchor="middle" x="304" y="-14.06" font-family="Times,serif" font-size="9.00">1</text>
</g>
<!-- &#45;1&#45;&gt;1 -->
<g id="edge1" class="edge">
<title>&#45;1&#45;&gt;1</title>
<path fill="none" stroke="red" stroke-width="0.19" d="M176.01,-71.06C199.66,-61.12 249.99,-39.96 280.01,-27.35"/>
<polygon fill="red" stroke="red" stroke-width="0.19" points="281.48,-30.53 289.34,-23.42 278.77,-24.07 281.48,-30.53"/>
</g>
<!-- &#45;2 -->
<g id="node2" class="node">
<title>&#45;2</title>
<polygon fill="lightgray" stroke="black" points="364,-86.53 338,-86.53 338,-68.53 364,-68.53 364,-86.53"/>
<text text-anchor="middle" x="351" y="-75.33" font-family="Times,serif" font-size="9.00">&#45;2</text>
</g>
<!-- 0 -->
<g id="node29" class="node">
<title>0</title>
<ellipse fill="lightblue" stroke="black" cx="636" cy="-16.26" rx="16.03" ry="16.03"/>
<text text-anchor="middle" x="636" y="-14.06" font-family="Times,serif" font-size="9.00">0</text>
</g>
<!-- &#45;2&#45;&gt;0 -->
<g id="edge18" class="edge">
<title>&#45;2&#45;&gt;0</title>
<path fill="none" stroke="green" stroke-width="0.72" stroke-dasharray="1,5" d="M364.39,-71.28C367.21,-70.28 370.18,-69.31 373,-68.53 458.25,-44.87 561.99,-28.07 609.69,-21"/>
<polygon fill="green" stroke="green" stroke-width="0.72" points="610.4,-24.43 619.79,-19.52 609.39,-17.5 610.4,-24.43"/>
</g>
<!-- &#45;2&#45;&gt;1 -->
<g id="edge23" class="edge">
<title>&#45;2&#45;&gt;1</title>
<path fill="none" stroke="green" stroke-width="0.44" d="M344.46,-68.29C338.18,-60.36 328.42,-48.05 320.06,-37.51"/>
<polygon fill="green" stroke="green" stroke-width="0.44" points="322.7,-35.21 313.75,-29.55 317.22,-39.56 322.7,-35.21"/>
</g>
<!-- &#45;3 -->
<g id="node3" class="node">
<title>&#45;3</title>
<polygon fill="lightgray" stroke="black" points="408,-86.53 382,-86.53 382,-68.53 408,-68.53 408,-86.53"/>
<text text-anchor="middle" x="395" y="-75.33" font-family="Times,serif" font-size="9.00">&#45;3</text>
</g>
<!-- &#45;3&#45;&gt;0 -->
<g id="edge14" class="edge">
<title>&#45;3&#45;&gt;0</title>
<path fill="none" stroke="green" stroke-width="0.73" d="M408.41,-71.36C411.23,-70.36 414.2,-69.36 417,-68.53 485.88,-48.02 568.92,-30.5 610.15,-22.28"/>
<polygon fill="green" stroke="green" stroke-width="0.73" points="611.03,-25.67 620.16,-20.3 609.68,-18.8 611.03,-25.67"/>
</g>
<!-- &#45;3&#45;&gt;1 -->
<g id="edge19" class="edge">
<title>&#45;3&#45;&gt;1</title>
<path fill="none" stroke="red" stroke-width="0.35" d="M382.35,-68.29C367.79,-58.81 343.63,-43.07 325.98,-31.58"/>
<polygon fill="red" stroke="red" stroke-width="0.35" points="327.72,-28.54 317.43,-26.01 323.9,-34.4 327.72,-28.54"/>
</g>
<!-- &#45;4 -->
<g id="node4" class="node">
<title>&#45;4</title>
<polygon fill="lightgray" stroke="black" points="696,-86.53 670,-86.53 670,-68.53 696,-68.53 696,-86.53"/>
<text text-anchor="middle" x="683" y="-75.33" font-family="Times,serif" font-size="9.00">&#45;4</text>
</g>
<!-- &#45;4&#45;&gt;0 -->
<g id="edge29" class="edge">
<title>&#45;4&#45;&gt;0</title>
<path fill="none" stroke="red" stroke-width="0.4" d="M676.46,-68.29C670.18,-60.36 660.42,-48.05 652.06,-37.51"/>
<polygon fill="red" stroke="red" stroke-width="0.4" points="654.7,-35.21 645.75,-29.55 649.22,-39.56 654.7,-35.21"/>
</g>
<!-- &#45;5 -->
<g id="node5" class="node">
<title>&#45;5</title>
<polygon fill="lightgray" stroke="black" points="220,-86.53 194,-86.53 194,-68.53 220,-68.53 220,-86.53"/>
<text text-anchor="middle" x="207" y="-75.33" font-family="Times,serif" font-size="9.00">&#45;5</text>
</g>
<!-- &#45;5&#45;&gt;1 -->
<g id="edge15" class="edge">
<title>&#45;5&#45;&gt;1</title>
<path fill="none" stroke="red" stroke-width="0.24" d="M220.08,-68.53C235.9,-58.87 262.78,-42.45 281.85,-30.8"/>
<polygon fill="red" stroke="red" stroke-width="0.24" points="283.79,-33.71 290.5,-25.51 280.14,-27.74 283.79,-33.71"/>
</g>
<!-- &#45;6 -->
<g id="node6" class="node">
<title>&#45;6</title>
<polygon fill="lightgray" stroke="black" points="1034,-86.53 1008,-86.53 1008,-68.53 1034,-68.53 1034,-86.53"/>
<text text-anchor="middle" x="1021" y="-75.33" font-family="Times,serif" font-size="9.00">&#45;6</text>
</g>
<!-- &#45;7 -->
<g id="node7" class="node">
<title>&#45;7</title>
<polygon fill="lightgray" stroke="black" points="740,-86.53 714,-86.53 714,-68.53 740,-68.53 740,-86.53"/>
<text text-anchor="middle" x="727" y="-75.33" font-family="Times,serif" font-size="9.00">&#45;7</text>
</g>
<!-- &#45;7&#45;&gt;0 -->
<g id="edge2" class="edge">
<title>&#45;7&#45;&gt;0</title>
<path fill="none" stroke="red" stroke-width="0.55" stroke-dasharray="1,5" d="M714.35,-68.29C699.79,-58.81 675.63,-43.07 657.98,-31.58"/>
<polygon fill="red" stroke="red" stroke-width="0.55" points="659.72,-28.54 649.43,-26.01 655.9,-34.4 659.72,-28.54"/>
</g>
<!-- &#45;8 -->
<g id="node8" class="node">
<title>&#45;8</title>
<polygon fill="lightgray" stroke="black" points="452,-86.53 426,-86.53 426,-68.53 452,-68.53 452,-86.53"/>
<text text-anchor="middle" x="439" y="-75.33" font-family="Times,serif" font-size="9.00">&#45;8</text>
</g>
<!-- &#45;8&#45;&gt;0 -->
<g id="edge26" class="edge">
<title>&#45;8&#45;&gt;0</title>
<path fill="none" stroke="green" stroke-width="0.55" d="M452.45,-71.48C455.26,-70.47 458.22,-69.44 461,-68.53 513.66,-51.26 576.13,-33.64 610.37,-24.22"/>
<polygon fill="green" stroke="green" stroke-width="0.55" points="611.73,-27.48 620.45,-21.46 609.88,-20.72 611.73,-27.48"/>
</g>
<!-- &#45;8&#45;&gt;1 -->
<g id="edge12" class="edge">
<title>&#45;8&#45;&gt;1</title>
<path fill="none" stroke="green" stroke-width="0.7" d="M425.56,-70.63C402.77,-60.62 356.26,-40.2 327.83,-27.73"/>
<polygon fill="green" stroke="green" stroke-width="0.7" points="329.17,-24.49 318.6,-23.67 326.35,-30.9 329.17,-24.49"/>
</g>
<!-- &#45;9 -->
<g id="node9" class="node">
<title>&#45;9</title>
<polygon fill="lightgray" stroke="black" points="1078,-86.53 1052,-86.53 1052,-68.53 1078,-68.53 1078,-86.53"/>
<text text-anchor="middle" x="1065" y="-75.33" font-family="Times,serif" font-size="9.00">&#45;9</text>
</g>
<!-- &#45;10 -->
<g id="node10" class="node">
<title>&#45;10</title>
<polygon fill="lightgray" stroke="black" points="1128,-86.53 1096,-86.53 1096,-68.53 1128,-68.53 1128,-86.53"/>
<text text-anchor="middle" x="1112" y="-75.33" font-family="Times,serif" font-size="9.00">&#45;10</text>
</g>
<!-- &#45;11 -->
<g id="node11" class="node">
<title>&#45;11</title>
<polygon fill="lightgray" stroke="black" points="790,-86.53 758,-86.53 758,-68.53 790,-68.53 790,-86.53"/>
<text text-anchor="middle" x="774" y="-75.33" font-family="Times,serif" font-size="9.00">&#45;11</text>
</g>
<!-- &#45;11&#45;&gt;0 -->
<g id="edge3" class="edge">
<title>&#45;11&#45;&gt;0</title>
<path fill="none" stroke="green" stroke-width="0.8" d="M757.9,-69.61C733.84,-59.28 688.32,-39.73 660.23,-27.67"/>
<polygon fill="green" stroke="green" stroke-width="0.8" points="661.31,-24.32 650.74,-23.59 658.55,-30.76 661.31,-24.32"/>
</g>
<!-- &#45;12 -->
<g id="node12" class="node">
<title>&#45;12</title>
<polygon fill="lightgray" stroke="black" points="502,-86.53 470,-86.53 470,-68.53 502,-68.53 502,-86.53"/>
<text text-anchor="middle" x="486" y="-75.33" font-family="Times,serif" font-size="9.00">&#45;12</text>
</g>
<!-- &#45;12&#45;&gt;0 -->
<g id="edge22" class="edge">
<title>&#45;12&#45;&gt;0</title>
<path fill="none" stroke="red" stroke-width="1" d="M502.05,-70.18C528.26,-59.83 580.42,-39.22 611.35,-27"/>
<polygon fill="red" stroke="red" stroke-width="1" points="612.94,-30.14 620.96,-23.21 610.37,-23.63 612.94,-30.14"/>
</g>
<!-- &#45;12&#45;&gt;1 -->
<g id="edge8" class="edge">
<title>&#45;12&#45;&gt;1</title>
<path fill="none" stroke="red" stroke-width="0.51" d="M469.85,-71.27C438.04,-60.91 367.09,-37.81 329.12,-25.44"/>
<polygon fill="red" stroke="red" stroke-width="0.51" points="329.93,-22.03 319.34,-22.26 327.77,-28.68 329.93,-22.03"/>
</g>
<!-- &#45;13 -->
<g id="node13" class="node">
<title>&#45;13</title>
<polygon fill="lightgray" stroke="black" points="840,-86.53 808,-86.53 808,-68.53 840,-68.53 840,-86.53"/>
<text text-anchor="middle" x="824" y="-75.33" font-family="Times,serif" font-size="9.00">&#45;13</text>
</g>
<!-- &#45;13&#45;&gt;0 -->
<g id="edge24" class="edge">
<title>&#45;13&#45;&gt;0</title>
<path fill="none" stroke="green" stroke-width="0.18" d="M807.87,-71.35C804.92,-70.41 801.87,-69.44 799,-68.53 750.22,-53.05 693.17,-35.16 661.14,-25.13"/>
<polygon fill="green" stroke="green" stroke-width="0.18" points="661.88,-21.69 651.29,-22.04 659.79,-28.37 661.88,-21.69"/>
</g>
<!-- &#45;14 -->
<g id="node14" class="node">
<title>&#45;14</title>
<polygon fill="lightgray" stroke="black" points="1178,-86.53 1146,-86.53 1146,-68.53 1178,-68.53 1178,-86.53"/>
<text text-anchor="middle" x="1162" y="-75.33" font-family="Times,serif" font-size="9.00">&#45;14</text>
</g>
<!-- &#45;15 -->
<g id="node15" class="node">
<title>&#45;15</title>
<polygon fill="lightgray" stroke="black" points="270,-86.53 238,-86.53 238,-68.53 270,-68.53 270,-86.53"/>
<text text-anchor="middle" x="254" y="-75.33" font-family="Times,serif" font-size="9.00">&#45;15</text>
</g>
<!-- &#45;15&#45;&gt;1 -->
<g id="edge6" class="edge">
<title>&#45;15&#45;&gt;1</title>
<path fill="none" stroke="red" stroke-width="0.16" d="M260.95,-68.29C267.79,-60.18 278.5,-47.49 287.52,-36.79"/>
<polygon fill="red" stroke="red" stroke-width="0.16" points="290.23,-39.01 294,-29.11 284.88,-34.5 290.23,-39.01"/>
</g>
<!-- &#45;16 -->
<g id="node16" class="node">
<title>&#45;16</title>
<polygon fill="lightgray" stroke="black" points="552,-86.53 520,-86.53 520,-68.53 552,-68.53 552,-86.53"/>
<text text-anchor="middle" x="536" y="-75.33" font-family="Times,serif" font-size="9.00">&#45;16</text>
</g>
<!-- &#45;16&#45;&gt;0 -->
<g id="edge4" class="edge">
<title>&#45;16&#45;&gt;0</title>
<path fill="none" stroke="green" stroke-width="0.56" d="M549.9,-68.29C566.32,-58.56 593.86,-42.24 613.37,-30.68"/>
<polygon fill="green" stroke="green" stroke-width="0.56" points="615.4,-33.54 622.21,-25.43 611.83,-27.52 615.4,-33.54"/>
</g>
<!-- &#45;16&#45;&gt;1 -->
<g id="edge17" class="edge">
<title>&#45;16&#45;&gt;1</title>
<path fill="none" stroke="red" stroke-width="0.38" d="M519.91,-71.2C516.96,-70.28 513.89,-69.35 511,-68.53 446.07,-50.12 368.65,-31.93 329.45,-22.99"/>
<polygon fill="red" stroke="red" stroke-width="0.38" points="330.2,-19.57 319.67,-20.77 328.65,-26.4 330.2,-19.57"/>
</g>
<!-- &#45;17 -->
<g id="node17" class="node">
<title>&#45;17</title>
<polygon fill="lightgray" stroke="black" points="890,-86.53 858,-86.53 858,-68.53 890,-68.53 890,-86.53"/>
<text text-anchor="middle" x="874" y="-75.33" font-family="Times,serif" font-size="9.00">&#45;17</text>
</g>
<!-- &#45;17&#45;&gt;0 -->
<g id="edge20" class="edge">
<title>&#45;17&#45;&gt;0</title>
<path fill="none" stroke="green" stroke-width="0.19" d="M857.91,-71.19C854.96,-70.26 851.9,-69.34 849,-68.53 781.92,-49.75 701.81,-31.6 661.64,-22.79"/>
<polygon fill="green" stroke="green" stroke-width="0.19" points="662.38,-19.37 651.87,-20.66 660.89,-26.21 662.38,-19.37"/>
</g>
<!-- &#45;18 -->
<g id="node18" class="node">
<title>&#45;18</title>
<polygon fill="lightgray" stroke="black" points="1228,-86.53 1196,-86.53 1196,-68.53 1228,-68.53 1228,-86.53"/>
<text text-anchor="middle" x="1212" y="-75.33" font-family="Times,serif" font-size="9.00">&#45;18</text>
</g>
<!-- &#45;19 -->
<g id="node19" class="node">
<title>&#45;19</title>
<polygon fill="lightgray" stroke="black" points="940,-86.53 908,-86.53 908,-68.53 940,-68.53 940,-86.53"/>
<text text-anchor="middle" x="924" y="-75.33" font-family="Times,serif" font-size="9.00">&#45;19</text>
</g>
<!-- &#45;19&#45;&gt;0 -->
<g id="edge9" class="edge">
<title>&#45;19&#45;&gt;0</title>
<path fill="none" stroke="green" stroke-width="0.2" stroke-dasharray="1,5" d="M907.94,-71.08C904.99,-70.17 901.91,-69.27 899,-68.53 813.3,-46.54 709.78,-28.93 662.22,-21.33"/>
<polygon fill="green" stroke="green" stroke-width="0.2" points="662.58,-17.84 652.16,-19.74 661.49,-24.76 662.58,-17.84"/>
</g>
<!-- &#45;20 -->
<g id="node20" class="node">
<title>&#45;20</title>
<polygon fill="lightgray" stroke="black" points="32,-86.53 0,-86.53 0,-68.53 32,-68.53 32,-86.53"/>
<text text-anchor="middle" x="16" y="-75.33" font-family="Times,serif" font-size="9.00">&#45;20</text>
</g>
<!-- &#45;20&#45;&gt;1 -->
<g id="edge10" class="edge">
<title>&#45;20&#45;&gt;1</title>
<path fill="none" stroke="red" stroke-width="0.7" d="M32.06,-71.08C35.01,-70.17 38.09,-69.27 41,-68.53 126.7,-46.54 230.22,-28.93 277.78,-21.33"/>
<polygon fill="red" stroke="red" stroke-width="0.7" points="278.51,-24.76 287.84,-19.74 277.42,-17.84 278.51,-24.76"/>
</g>
<!-- &#45;21 -->
<g id="node21" class="node">
<title>&#45;21</title>
<polygon fill="lightgray" stroke="black" points="990,-86.53 958,-86.53 958,-68.53 990,-68.53 990,-86.53"/>
<text text-anchor="middle" x="974" y="-75.33" font-family="Times,serif" font-size="9.00">&#45;21</text>
</g>
<!-- &#45;21&#45;&gt;0 -->
<g id="edge21" class="edge">
<title>&#45;21&#45;&gt;0</title>
<path fill="none" stroke="green" stroke-width="0.71" stroke-dasharray="1,5" d="M957.96,-71.01C955,-70.1 951.92,-69.23 949,-68.53 844.07,-43.29 716.34,-26.65 662.23,-20.23"/>
<polygon fill="green" stroke="green" stroke-width="0.71" points="662.47,-16.74 652.13,-19.05 661.65,-23.69 662.47,-16.74"/>
</g>
<!-- &#45;22 -->
<g id="node22" class="node">
<title>&#45;22</title>
<polygon fill="lightgray" stroke="black" points="1278,-86.53 1246,-86.53 1246,-68.53 1278,-68.53 1278,-86.53"/>
<text text-anchor="middle" x="1262" y="-75.33" font-family="Times,serif" font-size="9.00">&#45;22</text>
</g>
<!-- &#45;23 -->
<g id="node23" class="node">
<title>&#45;23</title>
<polygon fill="lightgray" stroke="black" points="82,-86.53 50,-86.53 50,-68.53 82,-68.53 82,-86.53"/>
<text text-anchor="middle" x="66" y="-75.33" font-family="Times,serif" font-size="9.00">&#45;23</text>
</g>
<!-- &#45;23&#45;&gt;1 -->
<g id="edge11" class="edge">
<title>&#45;23&#45;&gt;1</title>
<path fill="none" stroke="green" stroke-width="0.3" d="M82.09,-71.19C85.04,-70.26 88.1,-69.34 91,-68.53 158.08,-49.75 238.19,-31.6 278.36,-22.79"/>
<polygon fill="green" stroke="green" stroke-width="0.3" points="279.11,-26.21 288.13,-20.66 277.62,-19.37 279.11,-26.21"/>
</g>
<!-- &#45;24 -->
<g id="node24" class="node">
<title>&#45;24</title>
<polygon fill="lightgray" stroke="black" points="132,-86.53 100,-86.53 100,-68.53 132,-68.53 132,-86.53"/>
<text text-anchor="middle" x="116" y="-75.33" font-family="Times,serif" font-size="9.00">&#45;24</text>
</g>
<!-- &#45;24&#45;&gt;1 -->
<g id="edge7" class="edge">
<title>&#45;24&#45;&gt;1</title>
<path fill="none" stroke="green" stroke-width="0.32" d="M132.13,-71.35C135.08,-70.41 138.13,-69.44 141,-68.53 189.78,-53.05 246.83,-35.16 278.86,-25.13"/>
<polygon fill="green" stroke="green" stroke-width="0.32" points="280.21,-28.37 288.71,-22.04 278.12,-21.69 280.21,-28.37"/>
</g>
<!-- &#45;25 -->
<g id="node25" class="node">
<title>&#45;25</title>
<polygon fill="lightgray" stroke="black" points="602,-86.53 570,-86.53 570,-68.53 602,-68.53 602,-86.53"/>
<text text-anchor="middle" x="586" y="-75.33" font-family="Times,serif" font-size="9.00">&#45;25</text>
</g>
<!-- &#45;25&#45;&gt;0 -->
<g id="edge27" class="edge">
<title>&#45;25&#45;&gt;0</title>
<path fill="none" stroke="red" stroke-width="0.54" d="M592.95,-68.29C599.79,-60.18 610.5,-47.49 619.52,-36.79"/>
<polygon fill="red" stroke="red" stroke-width="0.54" points="622.23,-39.01 626,-29.11 616.88,-34.5 622.23,-39.01"/>
</g>
<!-- &#45;25&#45;&gt;1 -->
<g id="edge13" class="edge">
<title>&#45;25&#45;&gt;1</title>
<path fill="none" stroke="red" stroke-width="0.14" stroke-dasharray="1,5" d="M569.94,-71.09C566.98,-70.18 563.91,-69.28 561,-68.53 477.44,-46.9 376.58,-29.17 329.96,-21.44"/>
<polygon fill="red" stroke="red" stroke-width="0.14" points="330.52,-17.99 320.08,-19.82 329.38,-24.9 330.52,-17.99"/>
</g>
<!-- &#45;26 -->
<g id="node26" class="node">
<title>&#45;26</title>
<polygon fill="lightgray" stroke="black" points="652,-86.53 620,-86.53 620,-68.53 652,-68.53 652,-86.53"/>
<text text-anchor="middle" x="636" y="-75.33" font-family="Times,serif" font-size="9.00">&#45;26</text>
</g>
<!-- &#45;26&#45;&gt;0 -->
<g id="edge25" class="edge">
<title>&#45;26&#45;&gt;0</title>
<path fill="none" stroke="green" stroke-width="0.48" stroke-dasharray="1,5" d="M636,-68.29C636,-61.7 636,-52.1 636,-43"/>
<polygon fill="green" stroke="green" stroke-width="0.48" points="639.5,-42.76 636,-32.76 632.5,-42.76 639.5,-42.76"/>
</g>
<!-- &#45;27 -->
<g id="node27" class="node">
<title>&#45;27</title>
<polygon fill="lightgray" stroke="black" points="320,-86.53 288,-86.53 288,-68.53 320,-68.53 320,-86.53"/>
<text text-anchor="middle" x="304" y="-75.33" font-family="Times,serif" font-size="9.00">&#45;27</text>
</g>
<!-- &#45;27&#45;&gt;0 -->
<g id="edge28" class="edge">
<title>&#45;27&#45;&gt;0</title>
<path fill="none" stroke="red" stroke-width="0.29" d="M320.04,-71.02C323,-70.11 326.08,-69.23 329,-68.53 431.69,-43.66 556.61,-26.87 609.89,-20.33"/>
<polygon fill="red" stroke="red" stroke-width="0.29" points="610.35,-23.8 619.86,-19.13 609.51,-16.85 610.35,-23.8"/>
</g>
<!-- &#45;27&#45;&gt;1 -->
<g id="edge5" class="edge">
<title>&#45;27&#45;&gt;1</title>
<path fill="none" stroke="green" stroke-width="0.19" stroke-dasharray="1,5" d="M304,-68.29C304,-61.7 304,-52.1 304,-43"/>
<polygon fill="green" stroke="green" stroke-width="0.19" points="307.5,-42.76 304,-32.76 300.5,-42.76 307.5,-42.76"/>
</g>
<!-- &#45;28 -->
<g id="node28" class="node">
<title>&#45;28</title>
<polygon fill="lightgray" stroke="black" points="1328,-86.53 1296,-86.53 1296,-68.53 1328,-68.53 1328,-86.53"/>
<text text-anchor="middle" x="1312" y="-75.33" font-family="Times,serif" font-size="9.00">&#45;28</text>
</g>
<!-- 1&#45;&gt;1 -->
<g id="edge16" class="edge">
<title>1&#45;&gt;1</title>
<path fill="none" stroke="green" stroke-width="0.73" d="M317.36,-26.06C327.71,-29.72 338.26,-26.46 338.26,-16.26 338.26,-9.57 333.72,-5.87 327.67,-5.14"/>
<polygon fill="green" stroke="green" stroke-width="0.73" points="326.84,-1.72 317.36,-6.47 327.73,-8.67 326.84,-1.72"/>
</g>
</g>
</svg>
