<?xml version="1.0" encoding="UTF-8" standalone="no"?>
<!DOCTYPE svg PUBLIC "-//W3C//DTD SVG 1.1//EN"
 "http://www.w3.org/Graphics/SVG/1.1/DTD/svg11.dtd">
<!-- Generated by graphviz version 2.43.0 (0)
 -->
<!-- Title: %3 Pages: 1 -->
<svg width="492pt" height="197pt"
 viewBox="0.00 0.00 492.00 196.99" xmlns="http://www.w3.org/2000/svg" xmlns:xlink="http://www.w3.org/1999/xlink">
<g id="graph0" class="graph" transform="scale(1 1) rotate(0) translate(4 192.99)">
<title>%3</title>
<polygon fill="white" stroke="transparent" points="-4,4 -4,-192.99 488,-192.99 488,4 -4,4"/>
<!-- &#45;1 -->
<g id="node1" class="node">
<title>&#45;1</title>
<polygon fill="lightgray" stroke="black" points="246,-119.25 220,-119.25 220,-101.25 246,-101.25 246,-119.25"/>
<text text-anchor="middle" x="233" y="-108.05" font-family="Times,serif" font-size="9.00">&#45;1</text>
</g>
<!-- 0 -->
<g id="node13" class="node">
<title>0</title>
<ellipse fill="lightblue" stroke="black" cx="233" cy="-24.75" rx="16.03" ry="16.03"/>
<text text-anchor="middle" x="233" y="-22.55" font-family="Times,serif" font-size="9.00">0</text>
</g>
<!-- &#45;1&#45;&gt;0 -->
<g id="edge8" class="edge">
<title>&#45;1&#45;&gt;0</title>
<path fill="none" stroke="green" stroke-width="0.1" d="M233,-101.24C233,-89.92 233,-68.72 233,-51.67"/>
<polygon fill="green" stroke="green" stroke-width="0.1" points="236.5,-51.2 233,-41.2 229.5,-51.2 236.5,-51.2"/>
</g>
<!-- &#45;2 -->
<g id="node2" class="node">
<title>&#45;2</title>
<polygon fill="lightgray" stroke="black" points="114,-119.25 88,-119.25 88,-101.25 114,-101.25 114,-119.25"/>
<text text-anchor="middle" x="101" y="-108.05" font-family="Times,serif" font-size="9.00">&#45;2</text>
</g>
<!-- &#45;2&#45;&gt;0 -->
<g id="edge6" class="edge">
<title>&#45;2&#45;&gt;0</title>
<path fill="none" stroke="green" stroke-width="0.23" d="M107.36,-101.13C111.48,-96.22 117.14,-90.05 123,-85.5 150.18,-64.38 185.83,-46.52 209.07,-35.97"/>
<polygon fill="green" stroke="green" stroke-width="0.23" points="210.49,-39.17 218.21,-31.91 207.65,-32.78 210.49,-39.17"/>
</g>
<!-- 1 -->
<g id="node14" class="node">
<title>1</title>
<ellipse fill="lightblue" stroke="black" cx="101" cy="-24.75" rx="16.03" ry="16.03"/>
<text text-anchor="middle" x="101" y="-22.55" font-family="Times,serif" font-size="9.00">1</text>
</g>
<!-- &#45;2&#45;&gt;1 -->
<g id="edge9" class="edge">
<title>&#45;2&#45;&gt;1</title>
<path fill="none" stroke="green" stroke-width="0.59" stroke-dasharray="1,5" d="M101,-101.24C101,-89.92 101,-68.72 101,-51.67"/>
<polygon fill="green" stroke="green" stroke-width="0.59" points="104.5,-51.2 101,-41.2 97.5,-51.2 104.5,-51.2"/>
</g>
<!-- &#45;3 -->
<g id="node3" class="node">
<title>&#45;3</title>
<polygon fill="lightgray" stroke="black" points="158,-119.25 132,-119.25 132,-101.25 158,-101.25 158,-119.25"/>
<text text-anchor="middle" x="145" y="-108.05" font-family="Times,serif" font-size="9.00">&#45;3</text>
</g>
<!-- &#45;3&#45;&gt;0 -->
<g id="edge4" class="edge">
<title>&#45;3&#45;&gt;0</title>
<path fill="none" stroke="green" stroke-width="0.69" d="M152.16,-101.17C156.38,-96.49 161.88,-90.56 167,-85.5 182.11,-70.56 200.02,-54.44 213.37,-42.71"/>
<polygon fill="green" stroke="green" stroke-width="0.69" points="215.8,-45.24 221.03,-36.02 211.19,-39.96 215.8,-45.24"/>
</g>
<!-- &#45;3&#45;&gt;1 -->
<g id="edge7" class="edge">
<title>&#45;3&#45;&gt;1</title>
<path fill="none" stroke="green" stroke-width="0.5" d="M140.78,-101.24C134.43,-89.19 122.17,-65.92 112.93,-48.39"/>
<polygon fill="green" stroke="green" stroke-width="0.5" points="115.92,-46.56 108.17,-39.35 109.73,-49.83 115.92,-46.56"/>
</g>
<!-- &#45;4 -->
<g id="node4" class="node">
<title>&#45;4</title>
<polygon fill="lightgray" stroke="black" points="340,-188.99 314,-188.99 314,-170.99 340,-170.99 340,-188.99"/>
<text text-anchor="middle" x="327" y="-177.79" font-family="Times,serif" font-size="9.00">&#45;4</text>
</g>
<!-- 129 -->
<g id="node15" class="node">
<title>129</title>
<ellipse fill="white" stroke="black" cx="327" cy="-110.25" rx="25" ry="25"/>
<text text-anchor="middle" x="327" y="-108.05" font-family="Times,serif" font-size="9.00">129</text>
</g>
<!-- &#45;4&#45;&gt;129 -->
<g id="edge15" class="edge">
<title>&#45;4&#45;&gt;129</title>
<path fill="none" stroke="green" stroke-width="0.18" d="M327,-170.96C327,-164.52 327,-155.02 327,-145.49"/>
<polygon fill="green" stroke="green" stroke-width="0.18" points="330.5,-145.27 327,-135.27 323.5,-145.27 330.5,-145.27"/>
</g>
<!-- &#45;5 -->
<g id="node5" class="node">
<title>&#45;5</title>
<polygon fill="lightgray" stroke="black" points="202,-119.25 176,-119.25 176,-101.25 202,-101.25 202,-119.25"/>
<text text-anchor="middle" x="189" y="-108.05" font-family="Times,serif" font-size="9.00">&#45;5</text>
</g>
<!-- &#45;5&#45;&gt;0 -->
<g id="edge2" class="edge">
<title>&#45;5&#45;&gt;0</title>
<path fill="none" stroke="green" stroke-width="0.18" stroke-dasharray="1,5" d="M193.22,-101.24C199.57,-89.19 211.83,-65.92 221.07,-48.39"/>
<polygon fill="green" stroke="green" stroke-width="0.18" points="224.27,-49.83 225.83,-39.35 218.08,-46.56 224.27,-49.83"/>
</g>
<!-- &#45;5&#45;&gt;1 -->
<g id="edge3" class="edge">
<title>&#45;5&#45;&gt;1</title>
<path fill="none" stroke="green" stroke-width="0.31" stroke-dasharray="1,5" d="M181.84,-101.17C177.62,-96.49 172.12,-90.56 167,-85.5 151.89,-70.56 133.98,-54.44 120.63,-42.71"/>
<polygon fill="green" stroke="green" stroke-width="0.31" points="122.81,-39.96 112.97,-36.02 118.2,-45.24 122.81,-39.96"/>
</g>
<!-- &#45;6 -->
<g id="node6" class="node">
<title>&#45;6</title>
<polygon fill="lightgray" stroke="black" points="396,-119.25 370,-119.25 370,-101.25 396,-101.25 396,-119.25"/>
<text text-anchor="middle" x="383" y="-108.05" font-family="Times,serif" font-size="9.00">&#45;6</text>
</g>
<!-- &#45;6&#45;&gt;0 -->
<g id="edge12" class="edge">
<title>&#45;6&#45;&gt;0</title>
<path fill="none" stroke="red" stroke-width="0.2" stroke-dasharray="1,5" d="M376.73,-101.01C372.66,-96.05 366.99,-89.87 361,-85.5 328.32,-61.66 284.62,-43.74 257.66,-34"/>
<polygon fill="red" stroke="red" stroke-width="0.2" points="258.81,-30.7 248.21,-30.68 256.48,-37.3 258.81,-30.7"/>
</g>
<!-- 305 -->
<g id="node16" class="node">
<title>305</title>
<ellipse fill="white" stroke="black" cx="383" cy="-24.75" rx="25" ry="25"/>
<text text-anchor="middle" x="383" y="-22.55" font-family="Times,serif" font-size="9.00">305</text>
</g>
<!-- &#45;6&#45;&gt;305 -->
<g id="edge16" class="edge">
<title>&#45;6&#45;&gt;305</title>
<path fill="none" stroke="green" stroke-width="0.19" d="M383,-101.24C383,-91.69 383,-75.1 383,-59.9"/>
<polygon fill="green" stroke="green" stroke-width="0.19" points="386.5,-59.7 383,-49.7 379.5,-59.7 386.5,-59.7"/>
</g>
<!-- &#45;7 -->
<g id="node7" class="node">
<title>&#45;7</title>
<polygon fill="lightgray" stroke="black" points="70,-119.25 44,-119.25 44,-101.25 70,-101.25 70,-119.25"/>
<text text-anchor="middle" x="57" y="-108.05" font-family="Times,serif" font-size="9.00">&#45;7</text>
</g>
<!-- &#45;7&#45;&gt;1 -->
<g id="edge5" class="edge">
<title>&#45;7&#45;&gt;1</title>
<path fill="none" stroke="green" stroke-width="0.11" d="M61.22,-101.24C67.57,-89.19 79.83,-65.92 89.07,-48.39"/>
<polygon fill="green" stroke="green" stroke-width="0.11" points="92.27,-49.83 93.83,-39.35 86.08,-46.56 92.27,-49.83"/>
</g>
<!-- &#45;8 -->
<g id="node8" class="node">
<title>&#45;8</title>
<polygon fill="lightgray" stroke="black" points="384,-188.99 358,-188.99 358,-170.99 384,-170.99 384,-188.99"/>
<text text-anchor="middle" x="371" y="-177.79" font-family="Times,serif" font-size="9.00">&#45;8</text>
</g>
<!-- &#45;9 -->
<g id="node9" class="node">
<title>&#45;9</title>
<polygon fill="lightgray" stroke="black" points="26,-119.25 0,-119.25 0,-101.25 26,-101.25 26,-119.25"/>
<text text-anchor="middle" x="13" y="-108.05" font-family="Times,serif" font-size="9.00">&#45;9</text>
</g>
<!-- &#45;9&#45;&gt;1 -->
<g id="edge10" class="edge">
<title>&#45;9&#45;&gt;1</title>
<path fill="none" stroke="red" stroke-width="0.14" d="M20.16,-101.17C24.38,-96.49 29.88,-90.56 35,-85.5 50.11,-70.56 68.02,-54.44 81.37,-42.71"/>
<polygon fill="red" stroke="red" stroke-width="0.14" points="83.8,-45.24 89.03,-36.02 79.19,-39.96 83.8,-45.24"/>
</g>
<!-- &#45;10 -->
<g id="node10" class="node">
<title>&#45;10</title>
<polygon fill="lightgray" stroke="black" points="293,-188.99 261,-188.99 261,-170.99 293,-170.99 293,-188.99"/>
<text text-anchor="middle" x="277" y="-177.79" font-family="Times,serif" font-size="9.00">&#45;10</text>
</g>
<!-- &#45;10&#45;&gt;0 -->
<g id="edge1" class="edge">
<title>&#45;10&#45;&gt;0</title>
<path fill="none" stroke="green" stroke-width="0.36" stroke-dasharray="1,5" d="M275.44,-170.9C272.22,-154.59 264.36,-116.64 255,-85.5 251.43,-73.62 246.77,-60.69 242.65,-49.9"/>
<polygon fill="green" stroke="green" stroke-width="0.36" points="245.81,-48.37 238.93,-40.31 239.29,-50.9 245.81,-48.37"/>
</g>
<!-- &#45;10&#45;&gt;129 -->
<g id="edge13" class="edge">
<title>&#45;10&#45;&gt;129</title>
<path fill="none" stroke="green" stroke-width="0.15" d="M282.93,-170.96C288.8,-163 298.13,-150.37 306.69,-138.77"/>
<polygon fill="green" stroke="green" stroke-width="0.15" points="309.61,-140.71 312.73,-130.59 303.97,-136.55 309.61,-140.71"/>
</g>
<!-- &#45;11 -->
<g id="node11" class="node">
<title>&#45;11</title>
<polygon fill="lightgray" stroke="black" points="434,-188.99 402,-188.99 402,-170.99 434,-170.99 434,-188.99"/>
<text text-anchor="middle" x="418" y="-177.79" font-family="Times,serif" font-size="9.00">&#45;11</text>
</g>
<!-- &#45;12 -->
<g id="node12" class="node">
<title>&#45;12</title>
<polygon fill="lightgray" stroke="black" points="484,-188.99 452,-188.99 452,-170.99 484,-170.99 484,-188.99"/>
<text text-anchor="middle" x="468" y="-177.79" font-family="Times,serif" font-size="9.00">&#45;12</text>
</g>
<!-- 1&#45;&gt;1 -->
<g id="edge11" class="edge">
<title>1&#45;&gt;1</title>
<path fill="none" stroke="green" stroke-width="0.52" d="M111.88,-37.04C122.94,-44.27 135.26,-40.17 135.26,-24.75 135.26,-13.91 129.17,-8.66 121.71,-9.02"/>
<polygon fill="green" stroke="green" stroke-width="0.52" points="120.16,-5.85 111.88,-12.46 122.47,-12.46 120.16,-5.85"/>
</g>
<!-- 129&#45;&gt;0 -->
<g id="edge14" class="edge">
<title>129&#45;&gt;0</title>
<path fill="none" stroke="red" stroke-width="0.22" d="M308.88,-93.15C292.65,-78.73 268.92,-57.65 252.33,-42.92"/>
<polygon fill="red" stroke="red" stroke-width="0.22" points="254.62,-40.27 244.82,-36.25 249.97,-45.51 254.62,-40.27"/>
</g>
</g>
</svg>
