<?xml version="1.0" encoding="UTF-8" standalone="no"?>
<!DOCTYPE svg PUBLIC "-//W3C//DTD SVG 1.1//EN"
 "http://www.w3.org/Graphics/SVG/1.1/DTD/svg11.dtd">
<!-- Generated by graphviz version 2.43.0 (0)
 -->
<!-- Title: %3 Pages: 1 -->
<svg width="1024pt" height="189pt"
 viewBox="0.00 0.00 1024.00 188.51" xmlns="http://www.w3.org/2000/svg" xmlns:xlink="http://www.w3.org/1999/xlink">
<g id="graph0" class="graph" transform="scale(1 1) rotate(0) translate(4 184.51)">
<title>%3</title>
<polygon fill="white" stroke="transparent" points="-4,4 -4,-184.51 1020,-184.51 1020,4 -4,4"/>
<!-- &#45;1 -->
<g id="node1" class="node">
<title>&#45;1</title>
<polygon fill="lightgray" stroke="black" points="202,-106.52 176,-106.52 176,-88.52 202,-88.52 202,-106.52"/>
<text text-anchor="middle" x="189" y="-95.32" font-family="Times,serif" font-size="9.00">&#45;1</text>
</g>
<!-- 0 -->
<g id="node29" class="node">
<title>0</title>
<ellipse fill="lightblue" stroke="black" cx="393" cy="-16.26" rx="16.03" ry="16.03"/>
<text text-anchor="middle" x="393" y="-14.06" font-family="Times,serif" font-size="9.00">0</text>
</g>
<!-- &#45;1&#45;&gt;0 -->
<g id="edge7" class="edge">
<title>&#45;1&#45;&gt;0</title>
<path fill="none" stroke="green" stroke-width="0.51" stroke-dasharray="1,5" d="M193.38,-88.49C197.23,-82.17 203.4,-73.61 211,-68.53 259.8,-35.88 329.24,-23.83 366.67,-19.53"/>
<polygon fill="green" stroke="green" stroke-width="0.51" points="367.18,-23 376.76,-18.47 366.45,-16.03 367.18,-23"/>
</g>
<!-- &#45;2 -->
<g id="node2" class="node">
<title>&#45;2</title>
<polygon fill="lightgray" stroke="black" points="189,-180.51 163,-180.51 163,-162.51 189,-162.51 189,-180.51"/>
<text text-anchor="middle" x="176" y="-169.31" font-family="Times,serif" font-size="9.00">&#45;2</text>
</g>
<!-- &#45;3 -->
<g id="node3" class="node">
<title>&#45;3</title>
<polygon fill="lightgray" stroke="black" points="246,-106.52 220,-106.52 220,-88.52 246,-88.52 246,-106.52"/>
<text text-anchor="middle" x="233" y="-95.32" font-family="Times,serif" font-size="9.00">&#45;3</text>
</g>
<!-- &#45;3&#45;&gt;0 -->
<g id="edge9" class="edge">
<title>&#45;3&#45;&gt;0</title>
<path fill="none" stroke="green" stroke-width="0.31" stroke-dasharray="1,5" d="M237.82,-88.14C241.75,-81.97 247.81,-73.77 255,-68.53 289.57,-43.31 337.96,-29.15 367.29,-22.37"/>
<polygon fill="green" stroke="green" stroke-width="0.31" points="368.16,-25.76 377.18,-20.2 366.66,-18.93 368.16,-25.76"/>
</g>
<!-- &#45;4 -->
<g id="node4" class="node">
<title>&#45;4</title>
<polygon fill="lightgray" stroke="black" points="628,-106.52 602,-106.52 602,-88.52 628,-88.52 628,-106.52"/>
<text text-anchor="middle" x="615" y="-95.32" font-family="Times,serif" font-size="9.00">&#45;4</text>
</g>
<!-- &#45;4&#45;&gt;0 -->
<g id="edge21" class="edge">
<title>&#45;4&#45;&gt;0</title>
<path fill="none" stroke="green" stroke-width="0.69" d="M610.65,-88.44C606.82,-82.1 600.66,-73.52 593,-68.53 538.27,-32.84 460.07,-21.98 419.58,-18.69"/>
<polygon fill="green" stroke="green" stroke-width="0.69" points="419.67,-15.19 409.44,-17.96 419.17,-22.17 419.67,-15.19"/>
</g>
<!-- 1 -->
<g id="node30" class="node">
<title>1</title>
<ellipse fill="lightblue" stroke="black" cx="775" cy="-16.26" rx="16.03" ry="16.03"/>
<text text-anchor="middle" x="775" y="-14.06" font-family="Times,serif" font-size="9.00">1</text>
</g>
<!-- &#45;4&#45;&gt;1 -->
<g id="edge22" class="edge">
<title>&#45;4&#45;&gt;1</title>
<path fill="none" stroke="red" stroke-width="0.39" d="M619.82,-88.14C623.75,-81.97 629.81,-73.77 637,-68.53 671.57,-43.31 719.96,-29.15 749.29,-22.37"/>
<polygon fill="red" stroke="red" stroke-width="0.39" points="750.16,-25.76 759.18,-20.2 748.66,-18.93 750.16,-25.76"/>
</g>
<!-- &#45;5 -->
<g id="node5" class="node">
<title>&#45;5</title>
<polygon fill="lightgray" stroke="black" points="290,-106.52 264,-106.52 264,-88.52 290,-88.52 290,-106.52"/>
<text text-anchor="middle" x="277" y="-95.32" font-family="Times,serif" font-size="9.00">&#45;5</text>
</g>
<!-- &#45;5&#45;&gt;0 -->
<g id="edge25" class="edge">
<title>&#45;5&#45;&gt;0</title>
<path fill="none" stroke="green" stroke-width="0.18" d="M282.05,-88.43C286.09,-82.41 292.2,-74.27 299,-68.53 320.25,-50.56 348.79,-36.07 368.83,-27.14"/>
<polygon fill="green" stroke="green" stroke-width="0.18" points="370.39,-30.28 378.18,-23.1 367.62,-23.86 370.39,-30.28"/>
</g>
<!-- &#45;6 -->
<g id="node6" class="node">
<title>&#45;6</title>
<polygon fill="lightgray" stroke="black" points="334,-106.52 308,-106.52 308,-88.52 334,-88.52 334,-106.52"/>
<text text-anchor="middle" x="321" y="-95.32" font-family="Times,serif" font-size="9.00">&#45;6</text>
</g>
<!-- &#45;6&#45;&gt;0 -->
<g id="edge20" class="edge">
<title>&#45;6&#45;&gt;0</title>
<path fill="none" stroke="red" stroke-width="0.14" d="M326.94,-88.49C331.25,-82.8 337.3,-75.04 343,-68.53 352.96,-57.16 364.73,-45.04 374.34,-35.43"/>
<polygon fill="red" stroke="red" stroke-width="0.14" points="376.87,-37.86 381.52,-28.33 371.95,-32.88 376.87,-37.86"/>
</g>
<!-- &#45;7 -->
<g id="node7" class="node">
<title>&#45;7</title>
<polygon fill="lightgray" stroke="black" points="672,-106.52 646,-106.52 646,-88.52 672,-88.52 672,-106.52"/>
<text text-anchor="middle" x="659" y="-95.32" font-family="Times,serif" font-size="9.00">&#45;7</text>
</g>
<!-- &#45;7&#45;&gt;0 -->
<g id="edge8" class="edge">
<title>&#45;7&#45;&gt;0</title>
<path fill="none" stroke="red" stroke-width="0.38" d="M654.71,-88.35C650.91,-81.96 644.77,-73.35 637,-68.53 567.24,-25.19 466.87,-17.93 419.57,-17.08"/>
<polygon fill="red" stroke="red" stroke-width="0.38" points="419.56,-13.58 409.52,-16.98 419.49,-20.58 419.56,-13.58"/>
</g>
<!-- &#45;7&#45;&gt;1 -->
<g id="edge11" class="edge">
<title>&#45;7&#45;&gt;1</title>
<path fill="none" stroke="green" stroke-width="0.69" stroke-dasharray="1,5" d="M664.05,-88.43C668.09,-82.41 674.2,-74.27 681,-68.53 702.25,-50.56 730.79,-36.07 750.83,-27.14"/>
<polygon fill="green" stroke="green" stroke-width="0.69" points="752.39,-30.28 760.18,-23.1 749.62,-23.86 752.39,-30.28"/>
</g>
<!-- &#45;8 -->
<g id="node8" class="node">
<title>&#45;8</title>
<polygon fill="lightgray" stroke="black" points="233,-180.51 207,-180.51 207,-162.51 233,-162.51 233,-180.51"/>
<text text-anchor="middle" x="220" y="-169.31" font-family="Times,serif" font-size="9.00">&#45;8</text>
</g>
<!-- &#45;9 -->
<g id="node9" class="node">
<title>&#45;9</title>
<polygon fill="lightgray" stroke="black" points="716,-106.52 690,-106.52 690,-88.52 716,-88.52 716,-106.52"/>
<text text-anchor="middle" x="703" y="-95.32" font-family="Times,serif" font-size="9.00">&#45;9</text>
</g>
<!-- &#45;9&#45;&gt;0 -->
<g id="edge1" class="edge">
<title>&#45;9&#45;&gt;0</title>
<path fill="none" stroke="red" stroke-width="0.34" stroke-dasharray="1,5" d="M698.75,-88.29C694.97,-81.85 688.84,-73.23 681,-68.53 636.84,-42.03 481.88,-25.34 419.4,-19.55"/>
<polygon fill="red" stroke="red" stroke-width="0.34" points="419.47,-16.04 409.19,-18.63 418.84,-23.01 419.47,-16.04"/>
</g>
<!-- &#45;9&#45;&gt;1 -->
<g id="edge18" class="edge">
<title>&#45;9&#45;&gt;1</title>
<path fill="none" stroke="red" stroke-width="2.08" d="M708.94,-88.49C713.25,-82.8 719.3,-75.04 725,-68.53 734.96,-57.16 746.73,-45.04 756.34,-35.43"/>
<polygon fill="red" stroke="red" stroke-width="2.08" points="758.87,-37.86 763.52,-28.33 753.95,-32.88 758.87,-37.86"/>
</g>
<!-- &#45;10 -->
<g id="node10" class="node">
<title>&#45;10</title>
<polygon fill="lightgray" stroke="black" points="283,-180.51 251,-180.51 251,-162.51 283,-162.51 283,-180.51"/>
<text text-anchor="middle" x="267" y="-169.31" font-family="Times,serif" font-size="9.00">&#45;10</text>
</g>
<!-- &#45;11 -->
<g id="node11" class="node">
<title>&#45;11</title>
<polygon fill="lightgray" stroke="black" points="333,-180.51 301,-180.51 301,-162.51 333,-162.51 333,-180.51"/>
<text text-anchor="middle" x="317" y="-169.31" font-family="Times,serif" font-size="9.00">&#45;11</text>
</g>
<!-- &#45;12 -->
<g id="node12" class="node">
<title>&#45;12</title>
<polygon fill="lightgray" stroke="black" points="383,-180.51 351,-180.51 351,-162.51 383,-162.51 383,-180.51"/>
<text text-anchor="middle" x="367" y="-169.31" font-family="Times,serif" font-size="9.00">&#45;12</text>
</g>
<!-- &#45;13 -->
<g id="node13" class="node">
<title>&#45;13</title>
<polygon fill="lightgray" stroke="black" points="384,-106.52 352,-106.52 352,-88.52 384,-88.52 384,-106.52"/>
<text text-anchor="middle" x="368" y="-95.32" font-family="Times,serif" font-size="9.00">&#45;13</text>
</g>
<!-- &#45;13&#45;&gt;0 -->
<g id="edge17" class="edge">
<title>&#45;13&#45;&gt;0</title>
<path fill="none" stroke="red" stroke-width="0.19" d="M370.58,-88.34C374.02,-77.43 380.25,-57.67 385.28,-41.75"/>
<polygon fill="red" stroke="red" stroke-width="0.19" points="388.69,-42.56 388.36,-31.97 382.01,-40.46 388.69,-42.56"/>
</g>
<!-- &#45;14 -->
<g id="node14" class="node">
<title>&#45;14</title>
<polygon fill="lightgray" stroke="black" points="434,-106.52 402,-106.52 402,-88.52 434,-88.52 434,-106.52"/>
<text text-anchor="middle" x="418" y="-95.32" font-family="Times,serif" font-size="9.00">&#45;14</text>
</g>
<!-- &#45;14&#45;&gt;0 -->
<g id="edge19" class="edge">
<title>&#45;14&#45;&gt;0</title>
<path fill="none" stroke="red" stroke-width="0.19" d="M415.42,-88.34C411.98,-77.43 405.75,-57.67 400.72,-41.75"/>
<polygon fill="red" stroke="red" stroke-width="0.19" points="403.99,-40.46 397.64,-31.97 397.31,-42.56 403.99,-40.46"/>
</g>
<!-- &#45;15 -->
<g id="node15" class="node">
<title>&#45;15</title>
<polygon fill="lightgray" stroke="black" points="145,-180.51 113,-180.51 113,-162.51 145,-162.51 145,-180.51"/>
<text text-anchor="middle" x="129" y="-169.31" font-family="Times,serif" font-size="9.00">&#45;15</text>
</g>
<!-- 5178 -->
<g id="node31" class="node">
<title>5178</title>
<ellipse fill="white" stroke="black" cx="129" cy="-97.52" rx="28.98" ry="28.98"/>
<text text-anchor="middle" x="129" y="-95.32" font-family="Times,serif" font-size="9.00">5178</text>
</g>
<!-- &#45;15&#45;&gt;5178 -->
<g id="edge26" class="edge">
<title>&#45;15&#45;&gt;5178</title>
<path fill="none" stroke="green" stroke-width="0.14" d="M129,-162.25C129,-155.78 129,-146.28 129,-136.58"/>
<polygon fill="green" stroke="green" stroke-width="0.14" points="132.5,-136.51 129,-126.51 125.5,-136.51 132.5,-136.51"/>
</g>
<!-- &#45;16 -->
<g id="node16" class="node">
<title>&#45;16</title>
<polygon fill="lightgray" stroke="black" points="433,-180.51 401,-180.51 401,-162.51 433,-162.51 433,-180.51"/>
<text text-anchor="middle" x="417" y="-169.31" font-family="Times,serif" font-size="9.00">&#45;16</text>
</g>
<!-- &#45;17 -->
<g id="node17" class="node">
<title>&#45;17</title>
<polygon fill="lightgray" stroke="black" points="484,-106.52 452,-106.52 452,-88.52 484,-88.52 484,-106.52"/>
<text text-anchor="middle" x="468" y="-95.32" font-family="Times,serif" font-size="9.00">&#45;17</text>
</g>
<!-- &#45;17&#45;&gt;0 -->
<g id="edge10" class="edge">
<title>&#45;17&#45;&gt;0</title>
<path fill="none" stroke="red" stroke-width="0.5" stroke-dasharray="1,5" d="M460.66,-88.1C455.72,-82.5 449.05,-75 443,-68.53 432.69,-57.48 420.9,-45.37 411.36,-35.7"/>
<polygon fill="red" stroke="red" stroke-width="0.5" points="413.79,-33.17 404.27,-28.53 408.81,-38.1 413.79,-33.17"/>
</g>
<!-- &#45;18 -->
<g id="node18" class="node">
<title>&#45;18</title>
<polygon fill="lightgray" stroke="black" points="534,-106.52 502,-106.52 502,-88.52 534,-88.52 534,-106.52"/>
<text text-anchor="middle" x="518" y="-95.32" font-family="Times,serif" font-size="9.00">&#45;18</text>
</g>
<!-- &#45;18&#45;&gt;0 -->
<g id="edge5" class="edge">
<title>&#45;18&#45;&gt;0</title>
<path fill="none" stroke="red" stroke-width="0.65" stroke-dasharray="1,5" d="M512.1,-88.43C507.41,-82.4 500.43,-74.26 493,-68.53 469.41,-50.3 438.35,-35.57 417.15,-26.65"/>
<polygon fill="red" stroke="red" stroke-width="0.65" points="418.47,-23.41 407.88,-22.86 415.82,-29.89 418.47,-23.41"/>
</g>
<!-- &#45;19 -->
<g id="node19" class="node">
<title>&#45;19</title>
<polygon fill="lightgray" stroke="black" points="32,-106.52 0,-106.52 0,-88.52 32,-88.52 32,-106.52"/>
<text text-anchor="middle" x="16" y="-95.32" font-family="Times,serif" font-size="9.00">&#45;19</text>
</g>
<!-- &#45;19&#45;&gt;0 -->
<g id="edge6" class="edge">
<title>&#45;19&#45;&gt;0</title>
<path fill="none" stroke="red" stroke-width="0.91" d="M20.88,-88.48C25.29,-81.97 32.39,-73.15 41,-68.53 97.66,-38.07 295.17,-23.24 366.8,-18.77"/>
<polygon fill="red" stroke="red" stroke-width="0.91" points="367.03,-22.26 376.8,-18.16 366.61,-15.27 367.03,-22.26"/>
</g>
<!-- &#45;20 -->
<g id="node20" class="node">
<title>&#45;20</title>
<polygon fill="lightgray" stroke="black" points="82,-106.52 50,-106.52 50,-88.52 82,-88.52 82,-106.52"/>
<text text-anchor="middle" x="66" y="-95.32" font-family="Times,serif" font-size="9.00">&#45;20</text>
</g>
<!-- &#45;20&#45;&gt;0 -->
<g id="edge23" class="edge">
<title>&#45;20&#45;&gt;0</title>
<path fill="none" stroke="red" stroke-width="0.14" d="M71.09,-88.27C75.52,-81.82 82.56,-73.19 91,-68.53 138.52,-42.26 302.36,-25.28 366.73,-19.49"/>
<polygon fill="red" stroke="red" stroke-width="0.14" points="367.21,-22.96 376.87,-18.59 366.6,-15.98 367.21,-22.96"/>
</g>
<!-- &#45;21 -->
<g id="node21" class="node">
<title>&#45;21</title>
<polygon fill="lightgray" stroke="black" points="916,-106.52 884,-106.52 884,-88.52 916,-88.52 916,-106.52"/>
<text text-anchor="middle" x="900" y="-95.32" font-family="Times,serif" font-size="9.00">&#45;21</text>
</g>
<!-- &#45;21&#45;&gt;1 -->
<g id="edge24" class="edge">
<title>&#45;21&#45;&gt;1</title>
<path fill="none" stroke="red" stroke-width="0.36" stroke-dasharray="1,5" d="M894.1,-88.43C889.41,-82.4 882.43,-74.26 875,-68.53 851.41,-50.3 820.35,-35.57 799.15,-26.65"/>
<polygon fill="red" stroke="red" stroke-width="0.36" points="800.47,-23.41 789.88,-22.86 797.82,-29.89 800.47,-23.41"/>
</g>
<!-- &#45;22 -->
<g id="node22" class="node">
<title>&#45;22</title>
<polygon fill="lightgray" stroke="black" points="766,-106.52 734,-106.52 734,-88.52 766,-88.52 766,-106.52"/>
<text text-anchor="middle" x="750" y="-95.32" font-family="Times,serif" font-size="9.00">&#45;22</text>
</g>
<!-- &#45;22&#45;&gt;0 -->
<g id="edge15" class="edge">
<title>&#45;22&#45;&gt;0</title>
<path fill="none" stroke="green" stroke-width="0.2" stroke-dasharray="1,5" d="M745.11,-88.49C740.7,-82 733.59,-73.19 725,-68.53 672.09,-39.8 488.59,-24.06 419.55,-19.05"/>
<polygon fill="green" stroke="green" stroke-width="0.2" points="419.71,-15.55 409.49,-18.34 419.21,-22.54 419.71,-15.55"/>
</g>
<!-- &#45;22&#45;&gt;1 -->
<g id="edge3" class="edge">
<title>&#45;22&#45;&gt;1</title>
<path fill="none" stroke="green" stroke-width="0.96" stroke-dasharray="1,5" d="M752.58,-88.34C756.02,-77.43 762.25,-57.67 767.28,-41.75"/>
<polygon fill="green" stroke="green" stroke-width="0.96" points="770.69,-42.56 770.36,-31.97 764.01,-40.46 770.69,-42.56"/>
</g>
<!-- &#45;23 -->
<g id="node23" class="node">
<title>&#45;23</title>
<polygon fill="lightgray" stroke="black" points="483,-180.51 451,-180.51 451,-162.51 483,-162.51 483,-180.51"/>
<text text-anchor="middle" x="467" y="-169.31" font-family="Times,serif" font-size="9.00">&#45;23</text>
</g>
<!-- &#45;24 -->
<g id="node24" class="node">
<title>&#45;24</title>
<polygon fill="lightgray" stroke="black" points="966,-106.52 934,-106.52 934,-88.52 966,-88.52 966,-106.52"/>
<text text-anchor="middle" x="950" y="-95.32" font-family="Times,serif" font-size="9.00">&#45;24</text>
</g>
<!-- &#45;24&#45;&gt;1 -->
<g id="edge12" class="edge">
<title>&#45;24&#45;&gt;1</title>
<path fill="none" stroke="green" stroke-width="0.78" d="M944.51,-88.37C939.94,-82.15 932.93,-73.78 925,-68.53 886.02,-42.68 832.68,-28.56 801.23,-21.98"/>
<polygon fill="green" stroke="green" stroke-width="0.78" points="801.57,-18.48 791.08,-19.97 800.21,-25.35 801.57,-18.48"/>
</g>
<!-- &#45;25 -->
<g id="node25" class="node">
<title>&#45;25</title>
<polygon fill="lightgray" stroke="black" points="1016,-106.52 984,-106.52 984,-88.52 1016,-88.52 1016,-106.52"/>
<text text-anchor="middle" x="1000" y="-95.32" font-family="Times,serif" font-size="9.00">&#45;25</text>
</g>
<!-- &#45;25&#45;&gt;1 -->
<g id="edge13" class="edge">
<title>&#45;25&#45;&gt;1</title>
<path fill="none" stroke="red" stroke-width="1" stroke-dasharray="1,5" d="M994.81,-88.45C990.31,-82.11 983.24,-73.54 975,-68.53 919.17,-34.58 841.44,-22.98 801.31,-19.12"/>
<polygon fill="red" stroke="red" stroke-width="1" points="801.53,-15.63 791.27,-18.24 800.92,-22.6 801.53,-15.63"/>
</g>
<!-- &#45;26 -->
<g id="node26" class="node">
<title>&#45;26</title>
<polygon fill="lightgray" stroke="black" points="584,-106.52 552,-106.52 552,-88.52 584,-88.52 584,-106.52"/>
<text text-anchor="middle" x="568" y="-95.32" font-family="Times,serif" font-size="9.00">&#45;26</text>
</g>
<!-- &#45;26&#45;&gt;0 -->
<g id="edge2" class="edge">
<title>&#45;26&#45;&gt;0</title>
<path fill="none" stroke="green" stroke-width="0.12" d="M562.51,-88.37C557.94,-82.15 550.93,-73.78 543,-68.53 504.02,-42.68 450.68,-28.56 419.23,-21.98"/>
<polygon fill="green" stroke="green" stroke-width="0.12" points="419.57,-18.48 409.08,-19.97 418.21,-25.35 419.57,-18.48"/>
</g>
<!-- &#45;26&#45;&gt;1 -->
<g id="edge16" class="edge">
<title>&#45;26&#45;&gt;1</title>
<path fill="none" stroke="red" stroke-width="0.51" stroke-dasharray="1,5" d="M573.23,-88.5C577.74,-82.19 584.82,-73.63 593,-68.53 642.67,-37.51 711.49,-24.83 748.66,-19.99"/>
<polygon fill="red" stroke="red" stroke-width="0.51" points="749.18,-23.45 758.69,-18.78 748.34,-16.5 749.18,-23.45"/>
</g>
<!-- &#45;27 -->
<g id="node27" class="node">
<title>&#45;27</title>
<polygon fill="lightgray" stroke="black" points="816,-106.52 784,-106.52 784,-88.52 816,-88.52 816,-106.52"/>
<text text-anchor="middle" x="800" y="-95.32" font-family="Times,serif" font-size="9.00">&#45;27</text>
</g>
<!-- &#45;27&#45;&gt;1 -->
<g id="edge4" class="edge">
<title>&#45;27&#45;&gt;1</title>
<path fill="none" stroke="green" stroke-width="0.41" stroke-dasharray="1,5" d="M797.42,-88.34C793.98,-77.43 787.75,-57.67 782.72,-41.75"/>
<polygon fill="green" stroke="green" stroke-width="0.41" points="785.99,-40.46 779.64,-31.97 779.31,-42.56 785.99,-40.46"/>
</g>
<!-- &#45;28 -->
<g id="node28" class="node">
<title>&#45;28</title>
<polygon fill="lightgray" stroke="black" points="866,-106.52 834,-106.52 834,-88.52 866,-88.52 866,-106.52"/>
<text text-anchor="middle" x="850" y="-95.32" font-family="Times,serif" font-size="9.00">&#45;28</text>
</g>
<!-- &#45;28&#45;&gt;1 -->
<g id="edge14" class="edge">
<title>&#45;28&#45;&gt;1</title>
<path fill="none" stroke="red" stroke-width="0.55" stroke-dasharray="1,5" d="M842.66,-88.1C837.72,-82.5 831.05,-75 825,-68.53 814.69,-57.48 802.9,-45.37 793.36,-35.7"/>
<polygon fill="red" stroke="red" stroke-width="0.55" points="795.79,-33.17 786.27,-28.53 790.81,-38.1 795.79,-33.17"/>
</g>
<!-- 5178&#45;&gt;0 -->
<g id="edge27" class="edge">
<title>5178&#45;&gt;0</title>
<path fill="none" stroke="green" stroke-width="0.13" d="M150.95,-78.02C155.98,-74.45 161.49,-71.05 167,-68.53 234.96,-37.44 323.29,-24.48 366.64,-19.7"/>
<polygon fill="green" stroke="green" stroke-width="0.13" points="367.07,-23.18 376.66,-18.66 366.35,-16.21 367.07,-23.18"/>
</g>
</g>
</svg>
