<?xml version="1.0" encoding="UTF-8" standalone="no"?>
<!DOCTYPE svg PUBLIC "-//W3C//DTD SVG 1.1//EN"
 "http://www.w3.org/Graphics/SVG/1.1/DTD/svg11.dtd">
<!-- Generated by graphviz version 2.43.0 (0)
 -->
<!-- Title: %3 Pages: 1 -->
<svg width="1336pt" height="95pt"
 viewBox="0.00 0.00 1336.00 94.53" xmlns="http://www.w3.org/2000/svg" xmlns:xlink="http://www.w3.org/1999/xlink">
<g id="graph0" class="graph" transform="scale(1 1) rotate(0) translate(4 90.53)">
<title>%3</title>
<polygon fill="white" stroke="transparent" points="-4,4 -4,-90.53 1332,-90.53 1332,4 -4,4"/>
<!-- &#45;1 -->
<g id="node1" class="node">
<title>&#45;1</title>
<polygon fill="lightgray" stroke="black" points="76,-86.53 50,-86.53 50,-68.53 76,-68.53 76,-86.53"/>
<text text-anchor="middle" x="63" y="-75.33" font-family="Times,serif" font-size="9.00">&#45;1</text>
</g>
<!-- 0 -->
<g id="node29" class="node">
<title>0</title>
<ellipse fill="lightblue" stroke="black" cx="348" cy="-16.26" rx="16.03" ry="16.03"/>
<text text-anchor="middle" x="348" y="-14.06" font-family="Times,serif" font-size="9.00">0</text>
</g>
<!-- &#45;1&#45;&gt;0 -->
<g id="edge11" class="edge">
<title>&#45;1&#45;&gt;0</title>
<path fill="none" stroke="green" stroke-width="0.55" d="M76.39,-71.28C79.21,-70.28 82.18,-69.31 85,-68.53 170.25,-44.87 273.99,-28.07 321.69,-21"/>
<polygon fill="green" stroke="green" stroke-width="0.55" points="322.4,-24.43 331.79,-19.52 321.39,-17.5 322.4,-24.43"/>
</g>
<!-- &#45;2 -->
<g id="node2" class="node">
<title>&#45;2</title>
<polygon fill="lightgray" stroke="black" points="890,-86.53 864,-86.53 864,-68.53 890,-68.53 890,-86.53"/>
<text text-anchor="middle" x="877" y="-75.33" font-family="Times,serif" font-size="9.00">&#45;2</text>
</g>
<!-- 1 -->
<g id="node30" class="node">
<title>1</title>
<ellipse fill="lightblue" stroke="black" cx="680" cy="-16.26" rx="16.03" ry="16.03"/>
<text text-anchor="middle" x="680" y="-14.06" font-family="Times,serif" font-size="9.00">1</text>
</g>
<!-- &#45;2&#45;&gt;1 -->
<g id="edge12" class="edge">
<title>&#45;2&#45;&gt;1</title>
<path fill="none" stroke="green" stroke-width="0.28" d="M863.55,-71.48C860.74,-70.47 857.78,-69.44 855,-68.53 802.34,-51.26 739.87,-33.64 705.63,-24.22"/>
<polygon fill="green" stroke="green" stroke-width="0.28" points="706.12,-20.72 695.55,-21.46 704.27,-27.48 706.12,-20.72"/>
</g>
<!-- &#45;3 -->
<g id="node3" class="node">
<title>&#45;3</title>
<polygon fill="lightgray" stroke="black" points="120,-86.53 94,-86.53 94,-68.53 120,-68.53 120,-86.53"/>
<text text-anchor="middle" x="107" y="-75.33" font-family="Times,serif" font-size="9.00">&#45;3</text>
</g>
<!-- &#45;3&#45;&gt;0 -->
<g id="edge4" class="edge">
<title>&#45;3&#45;&gt;0</title>
<path fill="none" stroke="green" stroke-width="0.18" d="M120.41,-71.36C123.23,-70.36 126.2,-69.36 129,-68.53 197.88,-48.02 280.92,-30.5 322.15,-22.28"/>
<polygon fill="green" stroke="green" stroke-width="0.18" points="323.03,-25.67 332.16,-20.3 321.68,-18.8 323.03,-25.67"/>
</g>
<!-- &#45;4 -->
<g id="node4" class="node">
<title>&#45;4</title>
<polygon fill="lightgray" stroke="black" points="164,-86.53 138,-86.53 138,-68.53 164,-68.53 164,-86.53"/>
<text text-anchor="middle" x="151" y="-75.33" font-family="Times,serif" font-size="9.00">&#45;4</text>
</g>
<!-- &#45;4&#45;&gt;0 -->
<g id="edge26" class="edge">
<title>&#45;4&#45;&gt;0</title>
<path fill="none" stroke="red" stroke-width="0.18" d="M164.45,-71.48C167.26,-70.47 170.22,-69.44 173,-68.53 225.66,-51.26 288.13,-33.64 322.37,-24.22"/>
<polygon fill="red" stroke="red" stroke-width="0.18" points="323.73,-27.48 332.45,-21.46 321.88,-20.72 323.73,-27.48"/>
</g>
<!-- &#45;5 -->
<g id="node5" class="node">
<title>&#45;5</title>
<polygon fill="lightgray" stroke="black" points="458,-86.53 432,-86.53 432,-68.53 458,-68.53 458,-86.53"/>
<text text-anchor="middle" x="445" y="-75.33" font-family="Times,serif" font-size="9.00">&#45;5</text>
</g>
<!-- &#45;5&#45;&gt;0 -->
<g id="edge9" class="edge">
<title>&#45;5&#45;&gt;0</title>
<path fill="none" stroke="red" stroke-width="0.18" d="M431.92,-68.53C416.1,-58.87 389.22,-42.45 370.15,-30.8"/>
<polygon fill="red" stroke="red" stroke-width="0.18" points="371.86,-27.74 361.5,-25.51 368.21,-33.71 371.86,-27.74"/>
</g>
<!-- &#45;5&#45;&gt;1 -->
<g id="edge20" class="edge">
<title>&#45;5&#45;&gt;1</title>
<path fill="none" stroke="red" stroke-width="0.1" d="M458.42,-71.38C461.23,-70.37 464.2,-69.37 467,-68.53 533.7,-48.44 613.97,-30.86 654.27,-22.48"/>
<polygon fill="red" stroke="red" stroke-width="0.1" points="654.98,-25.9 664.07,-20.46 653.57,-19.05 654.98,-25.9"/>
</g>
<!-- &#45;6 -->
<g id="node6" class="node">
<title>&#45;6</title>
<polygon fill="lightgray" stroke="black" points="502,-86.53 476,-86.53 476,-68.53 502,-68.53 502,-86.53"/>
<text text-anchor="middle" x="489" y="-75.33" font-family="Times,serif" font-size="9.00">&#45;6</text>
</g>
<!-- &#45;6&#45;&gt;0 -->
<g id="edge8" class="edge">
<title>&#45;6&#45;&gt;0</title>
<path fill="none" stroke="green" stroke-width="0.51" d="M475.99,-71.06C452.34,-61.12 402.01,-39.96 371.99,-27.35"/>
<polygon fill="green" stroke="green" stroke-width="0.51" points="373.23,-24.07 362.66,-23.42 370.52,-30.53 373.23,-24.07"/>
</g>
<!-- &#45;6&#45;&gt;1 -->
<g id="edge18" class="edge">
<title>&#45;6&#45;&gt;1</title>
<path fill="none" stroke="green" stroke-width="0.59" d="M502.46,-71.5C505.27,-70.49 508.22,-69.45 511,-68.53 561.66,-51.65 621.6,-34.01 654.76,-24.46"/>
<polygon fill="green" stroke="green" stroke-width="0.59" points="655.89,-27.77 664.53,-21.65 653.95,-21.05 655.89,-27.77"/>
</g>
<!-- &#45;7 -->
<g id="node7" class="node">
<title>&#45;7</title>
<polygon fill="lightgray" stroke="black" points="1028,-86.53 1002,-86.53 1002,-68.53 1028,-68.53 1028,-86.53"/>
<text text-anchor="middle" x="1015" y="-75.33" font-family="Times,serif" font-size="9.00">&#45;7</text>
</g>
<!-- &#45;8 -->
<g id="node8" class="node">
<title>&#45;8</title>
<polygon fill="lightgray" stroke="black" points="546,-86.53 520,-86.53 520,-68.53 546,-68.53 546,-86.53"/>
<text text-anchor="middle" x="533" y="-75.33" font-family="Times,serif" font-size="9.00">&#45;8</text>
</g>
<!-- &#45;8&#45;&gt;0 -->
<g id="edge13" class="edge">
<title>&#45;8&#45;&gt;0</title>
<path fill="none" stroke="green" stroke-width="0.25" d="M519.54,-71.52C516.72,-70.51 513.77,-69.47 511,-68.53 462.53,-52.1 405.37,-34.54 373.24,-24.83"/>
<polygon fill="green" stroke="green" stroke-width="0.25" points="373.94,-21.38 363.35,-21.85 371.92,-28.08 373.94,-21.38"/>
</g>
<!-- &#45;8&#45;&gt;1 -->
<g id="edge15" class="edge">
<title>&#45;8&#45;&gt;1</title>
<path fill="none" stroke="green" stroke-width="0.34" d="M546.05,-71.27C570.65,-61.35 624.24,-39.74 655.67,-27.07"/>
<polygon fill="green" stroke="green" stroke-width="0.34" points="657.07,-30.28 665.03,-23.3 654.45,-23.79 657.07,-30.28"/>
</g>
<!-- &#45;9 -->
<g id="node9" class="node">
<title>&#45;9</title>
<polygon fill="lightgray" stroke="black" points="934,-86.53 908,-86.53 908,-68.53 934,-68.53 934,-86.53"/>
<text text-anchor="middle" x="921" y="-75.33" font-family="Times,serif" font-size="9.00">&#45;9</text>
</g>
<!-- &#45;9&#45;&gt;1 -->
<g id="edge29" class="edge">
<title>&#45;9&#45;&gt;1</title>
<path fill="none" stroke="green" stroke-width="0.27" d="M907.59,-71.36C904.77,-70.36 901.8,-69.36 899,-68.53 830.12,-48.02 747.08,-30.5 705.85,-22.28"/>
<polygon fill="green" stroke="green" stroke-width="0.27" points="706.32,-18.8 695.84,-20.3 704.97,-25.67 706.32,-18.8"/>
</g>
<!-- &#45;10 -->
<g id="node10" class="node">
<title>&#45;10</title>
<polygon fill="lightgray" stroke="black" points="596,-86.53 564,-86.53 564,-68.53 596,-68.53 596,-86.53"/>
<text text-anchor="middle" x="580" y="-75.33" font-family="Times,serif" font-size="9.00">&#45;10</text>
</g>
<!-- &#45;10&#45;&gt;0 -->
<g id="edge10" class="edge">
<title>&#45;10&#45;&gt;0</title>
<path fill="none" stroke="red" stroke-width="0.17" d="M563.91,-71.2C560.96,-70.28 557.89,-69.35 555,-68.53 490.07,-50.12 412.65,-31.93 373.45,-22.99"/>
<polygon fill="red" stroke="red" stroke-width="0.17" points="374.2,-19.57 363.67,-20.77 372.65,-26.4 374.2,-19.57"/>
</g>
<!-- &#45;10&#45;&gt;1 -->
<g id="edge7" class="edge">
<title>&#45;10&#45;&gt;1</title>
<path fill="none" stroke="green" stroke-width="0.16" d="M593.9,-68.29C610.32,-58.56 637.86,-42.24 657.37,-30.68"/>
<polygon fill="green" stroke="green" stroke-width="0.16" points="659.4,-33.54 666.21,-25.43 655.83,-27.52 659.4,-33.54"/>
</g>
<!-- &#45;11 -->
<g id="node11" class="node">
<title>&#45;11</title>
<polygon fill="lightgray" stroke="black" points="1078,-86.53 1046,-86.53 1046,-68.53 1078,-68.53 1078,-86.53"/>
<text text-anchor="middle" x="1062" y="-75.33" font-family="Times,serif" font-size="9.00">&#45;11</text>
</g>
<!-- &#45;12 -->
<g id="node12" class="node">
<title>&#45;12</title>
<polygon fill="lightgray" stroke="black" points="984,-86.53 952,-86.53 952,-68.53 984,-68.53 984,-86.53"/>
<text text-anchor="middle" x="968" y="-75.33" font-family="Times,serif" font-size="9.00">&#45;12</text>
</g>
<!-- &#45;12&#45;&gt;1 -->
<g id="edge24" class="edge">
<title>&#45;12&#45;&gt;1</title>
<path fill="none" stroke="red" stroke-width="0.48" stroke-dasharray="1,5" d="M951.94,-71.08C948.99,-70.17 945.91,-69.27 943,-68.53 857.3,-46.54 753.78,-28.93 706.22,-21.33"/>
<polygon fill="red" stroke="red" stroke-width="0.48" points="706.58,-17.84 696.16,-19.74 705.49,-24.76 706.58,-17.84"/>
</g>
<!-- &#45;13 -->
<g id="node13" class="node">
<title>&#45;13</title>
<polygon fill="lightgray" stroke="black" points="1128,-86.53 1096,-86.53 1096,-68.53 1128,-68.53 1128,-86.53"/>
<text text-anchor="middle" x="1112" y="-75.33" font-family="Times,serif" font-size="9.00">&#45;13</text>
</g>
<!-- &#45;14 -->
<g id="node14" class="node">
<title>&#45;14</title>
<polygon fill="lightgray" stroke="black" points="746,-86.53 714,-86.53 714,-68.53 746,-68.53 746,-86.53"/>
<text text-anchor="middle" x="730" y="-75.33" font-family="Times,serif" font-size="9.00">&#45;14</text>
</g>
<!-- &#45;14&#45;&gt;1 -->
<g id="edge5" class="edge">
<title>&#45;14&#45;&gt;1</title>
<path fill="none" stroke="green" stroke-width="0.15" d="M723.05,-68.29C716.21,-60.18 705.5,-47.49 696.48,-36.79"/>
<polygon fill="green" stroke="green" stroke-width="0.15" points="699.12,-34.5 690,-29.11 693.77,-39.01 699.12,-34.5"/>
</g>
<!-- &#45;15 -->
<g id="node15" class="node">
<title>&#45;15</title>
<polygon fill="lightgray" stroke="black" points="214,-86.53 182,-86.53 182,-68.53 214,-68.53 214,-86.53"/>
<text text-anchor="middle" x="198" y="-75.33" font-family="Times,serif" font-size="9.00">&#45;15</text>
</g>
<!-- &#45;15&#45;&gt;0 -->
<g id="edge1" class="edge">
<title>&#45;15&#45;&gt;0</title>
<path fill="none" stroke="red" stroke-width="0.81" stroke-dasharray="1,5" d="M214.05,-70.18C240.26,-59.83 292.42,-39.22 323.35,-27"/>
<polygon fill="red" stroke="red" stroke-width="0.81" points="324.94,-30.14 332.96,-23.21 322.37,-23.63 324.94,-30.14"/>
</g>
<!-- &#45;16 -->
<g id="node16" class="node">
<title>&#45;16</title>
<polygon fill="lightgray" stroke="black" points="264,-86.53 232,-86.53 232,-68.53 264,-68.53 264,-86.53"/>
<text text-anchor="middle" x="248" y="-75.33" font-family="Times,serif" font-size="9.00">&#45;16</text>
</g>
<!-- &#45;16&#45;&gt;0 -->
<g id="edge23" class="edge">
<title>&#45;16&#45;&gt;0</title>
<path fill="none" stroke="red" stroke-width="0.18" d="M261.9,-68.29C278.32,-58.56 305.86,-42.24 325.37,-30.68"/>
<polygon fill="red" stroke="red" stroke-width="0.18" points="327.4,-33.54 334.21,-25.43 323.83,-27.52 327.4,-33.54"/>
</g>
<!-- &#45;17 -->
<g id="node17" class="node">
<title>&#45;17</title>
<polygon fill="lightgray" stroke="black" points="646,-86.53 614,-86.53 614,-68.53 646,-68.53 646,-86.53"/>
<text text-anchor="middle" x="630" y="-75.33" font-family="Times,serif" font-size="9.00">&#45;17</text>
</g>
<!-- &#45;17&#45;&gt;0 -->
<g id="edge27" class="edge">
<title>&#45;17&#45;&gt;0</title>
<path fill="none" stroke="green" stroke-width="0.33" d="M613.94,-71.09C610.98,-70.18 607.91,-69.28 605,-68.53 521.44,-46.9 420.58,-29.17 373.96,-21.44"/>
<polygon fill="green" stroke="green" stroke-width="0.33" points="374.52,-17.99 364.08,-19.82 373.38,-24.9 374.52,-17.99"/>
</g>
<!-- &#45;17&#45;&gt;1 -->
<g id="edge19" class="edge">
<title>&#45;17&#45;&gt;1</title>
<path fill="none" stroke="red" stroke-width="0.63" d="M636.95,-68.29C643.79,-60.18 654.5,-47.49 663.52,-36.79"/>
<polygon fill="red" stroke="red" stroke-width="0.63" points="666.23,-39.01 670,-29.11 660.88,-34.5 666.23,-39.01"/>
</g>
<!-- &#45;18 -->
<g id="node18" class="node">
<title>&#45;18</title>
<polygon fill="lightgray" stroke="black" points="796,-86.53 764,-86.53 764,-68.53 796,-68.53 796,-86.53"/>
<text text-anchor="middle" x="780" y="-75.33" font-family="Times,serif" font-size="9.00">&#45;18</text>
</g>
<!-- &#45;18&#45;&gt;1 -->
<g id="edge16" class="edge">
<title>&#45;18&#45;&gt;1</title>
<path fill="none" stroke="green" stroke-width="0.2" d="M766.1,-68.29C749.68,-58.56 722.14,-42.24 702.63,-30.68"/>
<polygon fill="green" stroke="green" stroke-width="0.2" points="704.17,-27.52 693.79,-25.43 700.6,-33.54 704.17,-27.52"/>
</g>
<!-- &#45;19 -->
<g id="node19" class="node">
<title>&#45;19</title>
<polygon fill="lightgray" stroke="black" points="1178,-86.53 1146,-86.53 1146,-68.53 1178,-68.53 1178,-86.53"/>
<text text-anchor="middle" x="1162" y="-75.33" font-family="Times,serif" font-size="9.00">&#45;19</text>
</g>
<!-- &#45;20 -->
<g id="node20" class="node">
<title>&#45;20</title>
<polygon fill="lightgray" stroke="black" points="314,-86.53 282,-86.53 282,-68.53 314,-68.53 314,-86.53"/>
<text text-anchor="middle" x="298" y="-75.33" font-family="Times,serif" font-size="9.00">&#45;20</text>
</g>
<!-- &#45;20&#45;&gt;0 -->
<g id="edge6" class="edge">
<title>&#45;20&#45;&gt;0</title>
<path fill="none" stroke="green" stroke-width="0.15" d="M304.95,-68.29C311.79,-60.18 322.5,-47.49 331.52,-36.79"/>
<polygon fill="green" stroke="green" stroke-width="0.15" points="334.23,-39.01 338,-29.11 328.88,-34.5 334.23,-39.01"/>
</g>
<!-- &#45;21 -->
<g id="node21" class="node">
<title>&#45;21</title>
<polygon fill="lightgray" stroke="black" points="364,-86.53 332,-86.53 332,-68.53 364,-68.53 364,-86.53"/>
<text text-anchor="middle" x="348" y="-75.33" font-family="Times,serif" font-size="9.00">&#45;21</text>
</g>
<!-- &#45;21&#45;&gt;0 -->
<g id="edge14" class="edge">
<title>&#45;21&#45;&gt;0</title>
<path fill="none" stroke="green" stroke-width="0.28" d="M348,-68.29C348,-61.7 348,-52.1 348,-43"/>
<polygon fill="green" stroke="green" stroke-width="0.28" points="351.5,-42.76 348,-32.76 344.5,-42.76 351.5,-42.76"/>
</g>
<!-- &#45;22 -->
<g id="node22" class="node">
<title>&#45;22</title>
<polygon fill="lightgray" stroke="black" points="32,-86.53 0,-86.53 0,-68.53 32,-68.53 32,-86.53"/>
<text text-anchor="middle" x="16" y="-75.33" font-family="Times,serif" font-size="9.00">&#45;22</text>
</g>
<!-- &#45;22&#45;&gt;0 -->
<g id="edge3" class="edge">
<title>&#45;22&#45;&gt;0</title>
<path fill="none" stroke="green" stroke-width="0.36" d="M32.04,-71.02C35,-70.11 38.08,-69.23 41,-68.53 143.69,-43.66 268.61,-26.87 321.89,-20.33"/>
<polygon fill="green" stroke="green" stroke-width="0.36" points="322.35,-23.8 331.86,-19.13 321.51,-16.85 322.35,-23.8"/>
</g>
<!-- &#45;23 -->
<g id="node23" class="node">
<title>&#45;23</title>
<polygon fill="lightgray" stroke="black" points="1228,-86.53 1196,-86.53 1196,-68.53 1228,-68.53 1228,-86.53"/>
<text text-anchor="middle" x="1212" y="-75.33" font-family="Times,serif" font-size="9.00">&#45;23</text>
</g>
<!-- &#45;24 -->
<g id="node24" class="node">
<title>&#45;24</title>
<polygon fill="lightgray" stroke="black" points="696,-86.53 664,-86.53 664,-68.53 696,-68.53 696,-86.53"/>
<text text-anchor="middle" x="680" y="-75.33" font-family="Times,serif" font-size="9.00">&#45;24</text>
</g>
<!-- &#45;24&#45;&gt;0 -->
<g id="edge28" class="edge">
<title>&#45;24&#45;&gt;0</title>
<path fill="none" stroke="green" stroke-width="0.27" d="M663.96,-71.02C661,-70.11 657.92,-69.23 655,-68.53 552.31,-43.66 427.39,-26.87 374.11,-20.33"/>
<polygon fill="green" stroke="green" stroke-width="0.27" points="374.49,-16.85 364.14,-19.13 373.65,-23.8 374.49,-16.85"/>
</g>
<!-- &#45;24&#45;&gt;1 -->
<g id="edge2" class="edge">
<title>&#45;24&#45;&gt;1</title>
<path fill="none" stroke="red" stroke-width="0.48" d="M680,-68.29C680,-61.7 680,-52.1 680,-43"/>
<polygon fill="red" stroke="red" stroke-width="0.48" points="683.5,-42.76 680,-32.76 676.5,-42.76 683.5,-42.76"/>
</g>
<!-- &#45;25 -->
<g id="node25" class="node">
<title>&#45;25</title>
<polygon fill="lightgray" stroke="black" points="1278,-86.53 1246,-86.53 1246,-68.53 1278,-68.53 1278,-86.53"/>
<text text-anchor="middle" x="1262" y="-75.33" font-family="Times,serif" font-size="9.00">&#45;25</text>
</g>
<!-- &#45;26 -->
<g id="node26" class="node">
<title>&#45;26</title>
<polygon fill="lightgray" stroke="black" points="414,-86.53 382,-86.53 382,-68.53 414,-68.53 414,-86.53"/>
<text text-anchor="middle" x="398" y="-75.33" font-family="Times,serif" font-size="9.00">&#45;26</text>
</g>
<!-- &#45;26&#45;&gt;0 -->
<g id="edge25" class="edge">
<title>&#45;26&#45;&gt;0</title>
<path fill="none" stroke="red" stroke-width="0.35" d="M391.05,-68.29C384.21,-60.18 373.5,-47.49 364.48,-36.79"/>
<polygon fill="red" stroke="red" stroke-width="0.35" points="367.12,-34.5 358,-29.11 361.77,-39.01 367.12,-34.5"/>
</g>
<!-- &#45;26&#45;&gt;1 -->
<g id="edge17" class="edge">
<title>&#45;26&#45;&gt;1</title>
<path fill="none" stroke="green" stroke-width="0.19" d="M414.06,-71.09C417.02,-70.18 420.09,-69.28 423,-68.53 506.56,-46.9 607.42,-29.17 654.04,-21.44"/>
<polygon fill="green" stroke="green" stroke-width="0.19" points="654.62,-24.9 663.92,-19.82 653.48,-17.99 654.62,-24.9"/>
</g>
<!-- &#45;27 -->
<g id="node27" class="node">
<title>&#45;27</title>
<polygon fill="lightgray" stroke="black" points="846,-86.53 814,-86.53 814,-68.53 846,-68.53 846,-86.53"/>
<text text-anchor="middle" x="830" y="-75.33" font-family="Times,serif" font-size="9.00">&#45;27</text>
</g>
<!-- &#45;27&#45;&gt;1 -->
<g id="edge21" class="edge">
<title>&#45;27&#45;&gt;1</title>
<path fill="none" stroke="green" stroke-width="0.95" d="M813.95,-70.18C787.74,-59.83 735.58,-39.22 704.65,-27"/>
<polygon fill="green" stroke="green" stroke-width="0.95" points="705.63,-23.63 695.04,-23.21 703.06,-30.14 705.63,-23.63"/>
</g>
<!-- &#45;28 -->
<g id="node28" class="node">
<title>&#45;28</title>
<polygon fill="lightgray" stroke="black" points="1328,-86.53 1296,-86.53 1296,-68.53 1328,-68.53 1328,-86.53"/>
<text text-anchor="middle" x="1312" y="-75.33" font-family="Times,serif" font-size="9.00">&#45;28</text>
</g>
<!-- 0&#45;&gt;0 -->
<g id="edge22" class="edge">
<title>0&#45;&gt;0</title>
<path fill="none" stroke="green" stroke-width="0.18" d="M361.36,-26.06C371.71,-29.72 382.26,-26.46 382.26,-16.26 382.26,-9.57 377.72,-5.87 371.67,-5.14"/>
<polygon fill="green" stroke="green" stroke-width="0.18" points="370.84,-1.72 361.36,-6.47 371.73,-8.67 370.84,-1.72"/>
</g>
</g>
</svg>
