<?xml version="1.0" encoding="UTF-8" standalone="no"?>
<!DOCTYPE svg PUBLIC "-//W3C//DTD SVG 1.1//EN"
 "http://www.w3.org/Graphics/SVG/1.1/DTD/svg11.dtd">
<!-- Generated by graphviz version 2.43.0 (0)
 -->
<!-- Title: %3 Pages: 1 -->
<svg width="1336pt" height="95pt"
 viewBox="0.00 0.00 1336.00 94.53" xmlns="http://www.w3.org/2000/svg" xmlns:xlink="http://www.w3.org/1999/xlink">
<g id="graph0" class="graph" transform="scale(1 1) rotate(0) translate(4 90.53)">
<title>%3</title>
<polygon fill="white" stroke="transparent" points="-4,4 -4,-90.53 1332,-90.53 1332,4 -4,4"/>
<!-- &#45;1 -->
<g id="node1" class="node">
<title>&#45;1</title>
<polygon fill="lightgray" stroke="black" points="76,-86.53 50,-86.53 50,-68.53 76,-68.53 76,-86.53"/>
<text text-anchor="middle" x="63" y="-75.33" font-family="Times,serif" font-size="9.00">&#45;1</text>
</g>
<!-- 0 -->
<g id="node29" class="node">
<title>0</title>
<ellipse fill="lightblue" stroke="black" cx="348" cy="-16.26" rx="16.03" ry="16.03"/>
<text text-anchor="middle" x="348" y="-14.06" font-family="Times,serif" font-size="9.00">0</text>
</g>
<!-- &#45;1&#45;&gt;0 -->
<g id="edge10" class="edge">
<title>&#45;1&#45;&gt;0</title>
<path fill="none" stroke="green" stroke-width="0.71" stroke-dasharray="1,5" d="M76.39,-71.28C79.21,-70.28 82.18,-69.31 85,-68.53 170.25,-44.87 273.99,-28.07 321.69,-21"/>
<polygon fill="green" stroke="green" stroke-width="0.71" points="322.4,-24.43 331.79,-19.52 321.39,-17.5 322.4,-24.43"/>
</g>
<!-- &#45;2 -->
<g id="node2" class="node">
<title>&#45;2</title>
<polygon fill="lightgray" stroke="black" points="896,-86.53 870,-86.53 870,-68.53 896,-68.53 896,-86.53"/>
<text text-anchor="middle" x="883" y="-75.33" font-family="Times,serif" font-size="9.00">&#45;2</text>
</g>
<!-- 1 -->
<g id="node30" class="node">
<title>1</title>
<ellipse fill="lightblue" stroke="black" cx="686" cy="-16.26" rx="16.03" ry="16.03"/>
<text text-anchor="middle" x="686" y="-14.06" font-family="Times,serif" font-size="9.00">1</text>
</g>
<!-- &#45;2&#45;&gt;1 -->
<g id="edge11" class="edge">
<title>&#45;2&#45;&gt;1</title>
<path fill="none" stroke="green" stroke-width="0.36" d="M869.55,-71.48C866.74,-70.47 863.78,-69.44 861,-68.53 808.34,-51.26 745.87,-33.64 711.63,-24.22"/>
<polygon fill="green" stroke="green" stroke-width="0.36" points="712.12,-20.72 701.55,-21.46 710.27,-27.48 712.12,-20.72"/>
</g>
<!-- &#45;3 -->
<g id="node3" class="node">
<title>&#45;3</title>
<polygon fill="lightgray" stroke="black" points="120,-86.53 94,-86.53 94,-68.53 120,-68.53 120,-86.53"/>
<text text-anchor="middle" x="107" y="-75.33" font-family="Times,serif" font-size="9.00">&#45;3</text>
</g>
<!-- &#45;3&#45;&gt;0 -->
<g id="edge4" class="edge">
<title>&#45;3&#45;&gt;0</title>
<path fill="none" stroke="green" stroke-width="0.4" stroke-dasharray="1,5" d="M120.41,-71.36C123.23,-70.36 126.2,-69.36 129,-68.53 197.88,-48.02 280.92,-30.5 322.15,-22.28"/>
<polygon fill="green" stroke="green" stroke-width="0.4" points="323.03,-25.67 332.16,-20.3 321.68,-18.8 323.03,-25.67"/>
</g>
<!-- &#45;4 -->
<g id="node4" class="node">
<title>&#45;4</title>
<polygon fill="lightgray" stroke="black" points="164,-86.53 138,-86.53 138,-68.53 164,-68.53 164,-86.53"/>
<text text-anchor="middle" x="151" y="-75.33" font-family="Times,serif" font-size="9.00">&#45;4</text>
</g>
<!-- &#45;4&#45;&gt;0 -->
<g id="edge25" class="edge">
<title>&#45;4&#45;&gt;0</title>
<path fill="none" stroke="green" stroke-width="0.75" d="M164.45,-71.48C167.26,-70.47 170.22,-69.44 173,-68.53 225.66,-51.26 288.13,-33.64 322.37,-24.22"/>
<polygon fill="green" stroke="green" stroke-width="0.75" points="323.73,-27.48 332.45,-21.46 321.88,-20.72 323.73,-27.48"/>
</g>
<!-- &#45;5 -->
<g id="node5" class="node">
<title>&#45;5</title>
<polygon fill="lightgray" stroke="black" points="458,-86.53 432,-86.53 432,-68.53 458,-68.53 458,-86.53"/>
<text text-anchor="middle" x="445" y="-75.33" font-family="Times,serif" font-size="9.00">&#45;5</text>
</g>
<!-- &#45;5&#45;&gt;0 -->
<g id="edge8" class="edge">
<title>&#45;5&#45;&gt;0</title>
<path fill="none" stroke="red" stroke-width="0.13" d="M431.92,-68.53C416.1,-58.87 389.22,-42.45 370.15,-30.8"/>
<polygon fill="red" stroke="red" stroke-width="0.13" points="371.86,-27.74 361.5,-25.51 368.21,-33.71 371.86,-27.74"/>
</g>
<!-- &#45;5&#45;&gt;1 -->
<g id="edge19" class="edge">
<title>&#45;5&#45;&gt;1</title>
<path fill="none" stroke="green" stroke-width="0.15" stroke-dasharray="1,5" d="M458.41,-71.36C461.23,-70.36 464.2,-69.36 467,-68.53 535.88,-48.02 618.92,-30.5 660.15,-22.28"/>
<polygon fill="green" stroke="green" stroke-width="0.15" points="661.03,-25.67 670.16,-20.3 659.68,-18.8 661.03,-25.67"/>
</g>
<!-- &#45;6 -->
<g id="node6" class="node">
<title>&#45;6</title>
<polygon fill="lightgray" stroke="black" points="940,-86.53 914,-86.53 914,-68.53 940,-68.53 940,-86.53"/>
<text text-anchor="middle" x="927" y="-75.33" font-family="Times,serif" font-size="9.00">&#45;6</text>
</g>
<!-- &#45;6&#45;&gt;1 -->
<g id="edge17" class="edge">
<title>&#45;6&#45;&gt;1</title>
<path fill="none" stroke="green" stroke-width="0.19" d="M913.59,-71.36C910.77,-70.36 907.8,-69.36 905,-68.53 836.12,-48.02 753.08,-30.5 711.85,-22.28"/>
<polygon fill="green" stroke="green" stroke-width="0.19" points="712.32,-18.8 701.84,-20.3 710.97,-25.67 712.32,-18.8"/>
</g>
<!-- &#45;7 -->
<g id="node7" class="node">
<title>&#45;7</title>
<polygon fill="lightgray" stroke="black" points="1028,-86.53 1002,-86.53 1002,-68.53 1028,-68.53 1028,-86.53"/>
<text text-anchor="middle" x="1015" y="-75.33" font-family="Times,serif" font-size="9.00">&#45;7</text>
</g>
<!-- &#45;8 -->
<g id="node8" class="node">
<title>&#45;8</title>
<polygon fill="lightgray" stroke="black" points="502,-86.53 476,-86.53 476,-68.53 502,-68.53 502,-86.53"/>
<text text-anchor="middle" x="489" y="-75.33" font-family="Times,serif" font-size="9.00">&#45;8</text>
</g>
<!-- &#45;8&#45;&gt;0 -->
<g id="edge12" class="edge">
<title>&#45;8&#45;&gt;0</title>
<path fill="none" stroke="red" stroke-width="0.35" d="M475.99,-71.06C452.34,-61.12 402.01,-39.96 371.99,-27.35"/>
<polygon fill="red" stroke="red" stroke-width="0.35" points="373.23,-24.07 362.66,-23.42 370.52,-30.53 373.23,-24.07"/>
</g>
<!-- &#45;8&#45;&gt;1 -->
<g id="edge14" class="edge">
<title>&#45;8&#45;&gt;1</title>
<path fill="none" stroke="red" stroke-width="0.57" d="M502.45,-71.48C505.26,-70.47 508.22,-69.44 511,-68.53 563.66,-51.26 626.13,-33.64 660.37,-24.22"/>
<polygon fill="red" stroke="red" stroke-width="0.57" points="661.73,-27.48 670.45,-21.46 659.88,-20.72 661.73,-27.48"/>
</g>
<!-- &#45;9 -->
<g id="node9" class="node">
<title>&#45;9</title>
<polygon fill="lightgray" stroke="black" points="984,-86.53 958,-86.53 958,-68.53 984,-68.53 984,-86.53"/>
<text text-anchor="middle" x="971" y="-75.33" font-family="Times,serif" font-size="9.00">&#45;9</text>
</g>
<!-- &#45;9&#45;&gt;1 -->
<g id="edge28" class="edge">
<title>&#45;9&#45;&gt;1</title>
<path fill="none" stroke="red" stroke-width="0.33" d="M957.61,-71.28C954.79,-70.28 951.82,-69.31 949,-68.53 863.75,-44.87 760.01,-28.07 712.31,-21"/>
<polygon fill="red" stroke="red" stroke-width="0.33" points="712.61,-17.5 702.21,-19.52 711.6,-24.43 712.61,-17.5"/>
</g>
<!-- &#45;10 -->
<g id="node10" class="node">
<title>&#45;10</title>
<polygon fill="lightgray" stroke="black" points="552,-86.53 520,-86.53 520,-68.53 552,-68.53 552,-86.53"/>
<text text-anchor="middle" x="536" y="-75.33" font-family="Times,serif" font-size="9.00">&#45;10</text>
</g>
<!-- &#45;10&#45;&gt;0 -->
<g id="edge9" class="edge">
<title>&#45;10&#45;&gt;0</title>
<path fill="none" stroke="green" stroke-width="0.28" stroke-dasharray="1,5" d="M519.87,-71.35C516.92,-70.41 513.87,-69.44 511,-68.53 462.22,-53.05 405.17,-35.16 373.14,-25.13"/>
<polygon fill="green" stroke="green" stroke-width="0.28" points="373.88,-21.69 363.29,-22.04 371.79,-28.37 373.88,-21.69"/>
</g>
<!-- &#45;10&#45;&gt;1 -->
<g id="edge7" class="edge">
<title>&#45;10&#45;&gt;1</title>
<path fill="none" stroke="red" stroke-width="0.28" stroke-dasharray="1,5" d="M552.05,-70.18C578.26,-59.83 630.42,-39.22 661.35,-27"/>
<polygon fill="red" stroke="red" stroke-width="0.28" points="662.94,-30.14 670.96,-23.21 660.37,-23.63 662.94,-30.14"/>
</g>
<!-- &#45;11 -->
<g id="node11" class="node">
<title>&#45;11</title>
<polygon fill="lightgray" stroke="black" points="1078,-86.53 1046,-86.53 1046,-68.53 1078,-68.53 1078,-86.53"/>
<text text-anchor="middle" x="1062" y="-75.33" font-family="Times,serif" font-size="9.00">&#45;11</text>
</g>
<!-- &#45;12 -->
<g id="node12" class="node">
<title>&#45;12</title>
<polygon fill="lightgray" stroke="black" points="752,-86.53 720,-86.53 720,-68.53 752,-68.53 752,-86.53"/>
<text text-anchor="middle" x="736" y="-75.33" font-family="Times,serif" font-size="9.00">&#45;12</text>
</g>
<!-- &#45;12&#45;&gt;1 -->
<g id="edge23" class="edge">
<title>&#45;12&#45;&gt;1</title>
<path fill="none" stroke="red" stroke-width="0.15" stroke-dasharray="1,5" d="M729.05,-68.29C722.21,-60.18 711.5,-47.49 702.48,-36.79"/>
<polygon fill="red" stroke="red" stroke-width="0.15" points="705.12,-34.5 696,-29.11 699.77,-39.01 705.12,-34.5"/>
</g>
<!-- &#45;13 -->
<g id="node13" class="node">
<title>&#45;13</title>
<polygon fill="lightgray" stroke="black" points="1128,-86.53 1096,-86.53 1096,-68.53 1128,-68.53 1128,-86.53"/>
<text text-anchor="middle" x="1112" y="-75.33" font-family="Times,serif" font-size="9.00">&#45;13</text>
</g>
<!-- &#45;14 -->
<g id="node14" class="node">
<title>&#45;14</title>
<polygon fill="lightgray" stroke="black" points="602,-86.53 570,-86.53 570,-68.53 602,-68.53 602,-86.53"/>
<text text-anchor="middle" x="586" y="-75.33" font-family="Times,serif" font-size="9.00">&#45;14</text>
</g>
<!-- &#45;14&#45;&gt;0 -->
<g id="edge29" class="edge">
<title>&#45;14&#45;&gt;0</title>
<path fill="none" stroke="green" stroke-width="0.23" d="M569.91,-71.19C566.96,-70.26 563.9,-69.34 561,-68.53 493.92,-49.75 413.81,-31.6 373.64,-22.79"/>
<polygon fill="green" stroke="green" stroke-width="0.23" points="374.38,-19.37 363.87,-20.66 372.89,-26.21 374.38,-19.37"/>
</g>
<!-- &#45;14&#45;&gt;1 -->
<g id="edge5" class="edge">
<title>&#45;14&#45;&gt;1</title>
<path fill="none" stroke="red" stroke-width="0.39" d="M599.9,-68.29C616.32,-58.56 643.86,-42.24 663.37,-30.68"/>
<polygon fill="red" stroke="red" stroke-width="0.39" points="665.4,-33.54 672.21,-25.43 661.83,-27.52 665.4,-33.54"/>
</g>
<!-- &#45;15 -->
<g id="node15" class="node">
<title>&#45;15</title>
<polygon fill="lightgray" stroke="black" points="214,-86.53 182,-86.53 182,-68.53 214,-68.53 214,-86.53"/>
<text text-anchor="middle" x="198" y="-75.33" font-family="Times,serif" font-size="9.00">&#45;15</text>
</g>
<!-- &#45;15&#45;&gt;0 -->
<g id="edge1" class="edge">
<title>&#45;15&#45;&gt;0</title>
<path fill="none" stroke="red" stroke-width="1.03" stroke-dasharray="1,5" d="M214.05,-70.18C240.26,-59.83 292.42,-39.22 323.35,-27"/>
<polygon fill="red" stroke="red" stroke-width="1.03" points="324.94,-30.14 332.96,-23.21 322.37,-23.63 324.94,-30.14"/>
</g>
<!-- &#45;16 -->
<g id="node16" class="node">
<title>&#45;16</title>
<polygon fill="lightgray" stroke="black" points="264,-86.53 232,-86.53 232,-68.53 264,-68.53 264,-86.53"/>
<text text-anchor="middle" x="248" y="-75.33" font-family="Times,serif" font-size="9.00">&#45;16</text>
</g>
<!-- &#45;16&#45;&gt;0 -->
<g id="edge22" class="edge">
<title>&#45;16&#45;&gt;0</title>
<path fill="none" stroke="red" stroke-width="0.68" d="M261.9,-68.29C278.32,-58.56 305.86,-42.24 325.37,-30.68"/>
<polygon fill="red" stroke="red" stroke-width="0.68" points="327.4,-33.54 334.21,-25.43 323.83,-27.52 327.4,-33.54"/>
</g>
<!-- &#45;17 -->
<g id="node17" class="node">
<title>&#45;17</title>
<polygon fill="lightgray" stroke="black" points="652,-86.53 620,-86.53 620,-68.53 652,-68.53 652,-86.53"/>
<text text-anchor="middle" x="636" y="-75.33" font-family="Times,serif" font-size="9.00">&#45;17</text>
</g>
<!-- &#45;17&#45;&gt;0 -->
<g id="edge26" class="edge">
<title>&#45;17&#45;&gt;0</title>
<path fill="none" stroke="green" stroke-width="0.68" d="M619.94,-71.08C616.99,-70.17 613.91,-69.27 611,-68.53 525.3,-46.54 421.78,-28.93 374.22,-21.33"/>
<polygon fill="green" stroke="green" stroke-width="0.68" points="374.58,-17.84 364.16,-19.74 373.49,-24.76 374.58,-17.84"/>
</g>
<!-- &#45;17&#45;&gt;1 -->
<g id="edge18" class="edge">
<title>&#45;17&#45;&gt;1</title>
<path fill="none" stroke="green" stroke-width="0.27" d="M642.95,-68.29C649.79,-60.18 660.5,-47.49 669.52,-36.79"/>
<polygon fill="green" stroke="green" stroke-width="0.27" points="672.23,-39.01 676,-29.11 666.88,-34.5 672.23,-39.01"/>
</g>
<!-- &#45;18 -->
<g id="node18" class="node">
<title>&#45;18</title>
<polygon fill="lightgray" stroke="black" points="802,-86.53 770,-86.53 770,-68.53 802,-68.53 802,-86.53"/>
<text text-anchor="middle" x="786" y="-75.33" font-family="Times,serif" font-size="9.00">&#45;18</text>
</g>
<!-- &#45;18&#45;&gt;1 -->
<g id="edge15" class="edge">
<title>&#45;18&#45;&gt;1</title>
<path fill="none" stroke="green" stroke-width="0.5" d="M772.1,-68.29C755.68,-58.56 728.14,-42.24 708.63,-30.68"/>
<polygon fill="green" stroke="green" stroke-width="0.5" points="710.17,-27.52 699.79,-25.43 706.6,-33.54 710.17,-27.52"/>
</g>
<!-- &#45;19 -->
<g id="node19" class="node">
<title>&#45;19</title>
<polygon fill="lightgray" stroke="black" points="1178,-86.53 1146,-86.53 1146,-68.53 1178,-68.53 1178,-86.53"/>
<text text-anchor="middle" x="1162" y="-75.33" font-family="Times,serif" font-size="9.00">&#45;19</text>
</g>
<!-- &#45;20 -->
<g id="node20" class="node">
<title>&#45;20</title>
<polygon fill="lightgray" stroke="black" points="314,-86.53 282,-86.53 282,-68.53 314,-68.53 314,-86.53"/>
<text text-anchor="middle" x="298" y="-75.33" font-family="Times,serif" font-size="9.00">&#45;20</text>
</g>
<!-- &#45;20&#45;&gt;0 -->
<g id="edge6" class="edge">
<title>&#45;20&#45;&gt;0</title>
<path fill="none" stroke="red" stroke-width="0.62" stroke-dasharray="1,5" d="M304.95,-68.29C311.79,-60.18 322.5,-47.49 331.52,-36.79"/>
<polygon fill="red" stroke="red" stroke-width="0.62" points="334.23,-39.01 338,-29.11 328.88,-34.5 334.23,-39.01"/>
</g>
<!-- &#45;21 -->
<g id="node21" class="node">
<title>&#45;21</title>
<polygon fill="lightgray" stroke="black" points="364,-86.53 332,-86.53 332,-68.53 364,-68.53 364,-86.53"/>
<text text-anchor="middle" x="348" y="-75.33" font-family="Times,serif" font-size="9.00">&#45;21</text>
</g>
<!-- &#45;21&#45;&gt;0 -->
<g id="edge13" class="edge">
<title>&#45;21&#45;&gt;0</title>
<path fill="none" stroke="green" stroke-width="0.16" d="M348,-68.29C348,-61.7 348,-52.1 348,-43"/>
<polygon fill="green" stroke="green" stroke-width="0.16" points="351.5,-42.76 348,-32.76 344.5,-42.76 351.5,-42.76"/>
</g>
<!-- &#45;22 -->
<g id="node22" class="node">
<title>&#45;22</title>
<polygon fill="lightgray" stroke="black" points="32,-86.53 0,-86.53 0,-68.53 32,-68.53 32,-86.53"/>
<text text-anchor="middle" x="16" y="-75.33" font-family="Times,serif" font-size="9.00">&#45;22</text>
</g>
<!-- &#45;22&#45;&gt;0 -->
<g id="edge3" class="edge">
<title>&#45;22&#45;&gt;0</title>
<path fill="none" stroke="green" stroke-width="0.49" stroke-dasharray="1,5" d="M32.04,-71.02C35,-70.11 38.08,-69.23 41,-68.53 143.69,-43.66 268.61,-26.87 321.89,-20.33"/>
<polygon fill="green" stroke="green" stroke-width="0.49" points="322.35,-23.8 331.86,-19.13 321.51,-16.85 322.35,-23.8"/>
</g>
<!-- &#45;23 -->
<g id="node23" class="node">
<title>&#45;23</title>
<polygon fill="lightgray" stroke="black" points="1228,-86.53 1196,-86.53 1196,-68.53 1228,-68.53 1228,-86.53"/>
<text text-anchor="middle" x="1212" y="-75.33" font-family="Times,serif" font-size="9.00">&#45;23</text>
</g>
<!-- &#45;24 -->
<g id="node24" class="node">
<title>&#45;24</title>
<polygon fill="lightgray" stroke="black" points="702,-86.53 670,-86.53 670,-68.53 702,-68.53 702,-86.53"/>
<text text-anchor="middle" x="686" y="-75.33" font-family="Times,serif" font-size="9.00">&#45;24</text>
</g>
<!-- &#45;24&#45;&gt;0 -->
<g id="edge27" class="edge">
<title>&#45;24&#45;&gt;0</title>
<path fill="none" stroke="red" stroke-width="0.2" d="M669.96,-71.01C667,-70.1 663.92,-69.23 661,-68.53 556.07,-43.29 428.34,-26.65 374.23,-20.23"/>
<polygon fill="red" stroke="red" stroke-width="0.2" points="374.47,-16.74 364.13,-19.05 373.65,-23.69 374.47,-16.74"/>
</g>
<!-- &#45;24&#45;&gt;1 -->
<g id="edge2" class="edge">
<title>&#45;24&#45;&gt;1</title>
<path fill="none" stroke="red" stroke-width="0.2" d="M686,-68.29C686,-61.7 686,-52.1 686,-43"/>
<polygon fill="red" stroke="red" stroke-width="0.2" points="689.5,-42.76 686,-32.76 682.5,-42.76 689.5,-42.76"/>
</g>
<!-- &#45;25 -->
<g id="node25" class="node">
<title>&#45;25</title>
<polygon fill="lightgray" stroke="black" points="1278,-86.53 1246,-86.53 1246,-68.53 1278,-68.53 1278,-86.53"/>
<text text-anchor="middle" x="1262" y="-75.33" font-family="Times,serif" font-size="9.00">&#45;25</text>
</g>
<!-- &#45;26 -->
<g id="node26" class="node">
<title>&#45;26</title>
<polygon fill="lightgray" stroke="black" points="414,-86.53 382,-86.53 382,-68.53 414,-68.53 414,-86.53"/>
<text text-anchor="middle" x="398" y="-75.33" font-family="Times,serif" font-size="9.00">&#45;26</text>
</g>
<!-- &#45;26&#45;&gt;0 -->
<g id="edge24" class="edge">
<title>&#45;26&#45;&gt;0</title>
<path fill="none" stroke="red" stroke-width="0.12" d="M391.05,-68.29C384.21,-60.18 373.5,-47.49 364.48,-36.79"/>
<polygon fill="red" stroke="red" stroke-width="0.12" points="367.12,-34.5 358,-29.11 361.77,-39.01 367.12,-34.5"/>
</g>
<!-- &#45;26&#45;&gt;1 -->
<g id="edge16" class="edge">
<title>&#45;26&#45;&gt;1</title>
<path fill="none" stroke="red" stroke-width="0.12" stroke-dasharray="1,5" d="M414.06,-71.08C417.01,-70.17 420.09,-69.27 423,-68.53 508.7,-46.54 612.22,-28.93 659.78,-21.33"/>
<polygon fill="red" stroke="red" stroke-width="0.12" points="660.51,-24.76 669.84,-19.74 659.42,-17.84 660.51,-24.76"/>
</g>
<!-- &#45;27 -->
<g id="node27" class="node">
<title>&#45;27</title>
<polygon fill="lightgray" stroke="black" points="852,-86.53 820,-86.53 820,-68.53 852,-68.53 852,-86.53"/>
<text text-anchor="middle" x="836" y="-75.33" font-family="Times,serif" font-size="9.00">&#45;27</text>
</g>
<!-- &#45;27&#45;&gt;1 -->
<g id="edge20" class="edge">
<title>&#45;27&#45;&gt;1</title>
<path fill="none" stroke="green" stroke-width="0.27" d="M819.95,-70.18C793.74,-59.83 741.58,-39.22 710.65,-27"/>
<polygon fill="green" stroke="green" stroke-width="0.27" points="711.63,-23.63 701.04,-23.21 709.06,-30.14 711.63,-23.63"/>
</g>
<!-- &#45;28 -->
<g id="node28" class="node">
<title>&#45;28</title>
<polygon fill="lightgray" stroke="black" points="1328,-86.53 1296,-86.53 1296,-68.53 1328,-68.53 1328,-86.53"/>
<text text-anchor="middle" x="1312" y="-75.33" font-family="Times,serif" font-size="9.00">&#45;28</text>
</g>
<!-- 0&#45;&gt;0 -->
<g id="edge21" class="edge">
<title>0&#45;&gt;0</title>
<path fill="none" stroke="red" stroke-width="0.24" stroke-dasharray="1,5" d="M361.36,-26.06C371.71,-29.72 382.26,-26.46 382.26,-16.26 382.26,-9.57 377.72,-5.87 371.67,-5.14"/>
<polygon fill="red" stroke="red" stroke-width="0.24" points="370.84,-1.72 361.36,-6.47 371.73,-8.67 370.84,-1.72"/>
</g>
</g>
</svg>
