<?xml version="1.0" encoding="UTF-8" standalone="no"?>
<!DOCTYPE svg PUBLIC "-//W3C//DTD SVG 1.1//EN"
 "http://www.w3.org/Graphics/SVG/1.1/DTD/svg11.dtd">
<!-- Generated by graphviz version 2.43.0 (0)
 -->
<!-- Title: %3 Pages: 1 -->
<svg width="936pt" height="95pt"
 viewBox="0.00 0.00 936.00 94.53" xmlns="http://www.w3.org/2000/svg" xmlns:xlink="http://www.w3.org/1999/xlink">
<g id="graph0" class="graph" transform="scale(1 1) rotate(0) translate(4 90.53)">
<title>%3</title>
<polygon fill="white" stroke="transparent" points="-4,4 -4,-90.53 932,-90.53 932,4 -4,4"/>
<!-- &#45;1 -->
<g id="node1" class="node">
<title>&#45;1</title>
<polygon fill="lightgray" stroke="black" points="126,-86.53 100,-86.53 100,-68.53 126,-68.53 126,-86.53"/>
<text text-anchor="middle" x="113" y="-75.33" font-family="Times,serif" font-size="9.00">&#45;1</text>
</g>
<!-- 0 -->
<g id="node21" class="node">
<title>0</title>
<ellipse fill="lightblue" stroke="black" cx="181" cy="-16.26" rx="16.03" ry="16.03"/>
<text text-anchor="middle" x="181" y="-14.06" font-family="Times,serif" font-size="9.00">0</text>
</g>
<!-- &#45;1&#45;&gt;0 -->
<g id="edge7" class="edge">
<title>&#45;1&#45;&gt;0</title>
<path fill="none" stroke="red" stroke-width="0.14" d="M122.46,-68.29C132.39,-59.62 148.32,-45.74 161.06,-34.64"/>
<polygon fill="red" stroke="red" stroke-width="0.14" points="163.63,-37.04 168.87,-27.83 159.03,-31.76 163.63,-37.04"/>
</g>
<!-- &#45;2 -->
<g id="node2" class="node">
<title>&#45;2</title>
<polygon fill="lightgray" stroke="black" points="402,-86.53 376,-86.53 376,-68.53 402,-68.53 402,-86.53"/>
<text text-anchor="middle" x="389" y="-75.33" font-family="Times,serif" font-size="9.00">&#45;2</text>
</g>
<!-- 1 -->
<g id="node22" class="node">
<title>1</title>
<ellipse fill="lightblue" stroke="black" cx="480" cy="-16.26" rx="16.03" ry="16.03"/>
<text text-anchor="middle" x="480" y="-14.06" font-family="Times,serif" font-size="9.00">1</text>
</g>
<!-- &#45;2&#45;&gt;1 -->
<g id="edge18" class="edge">
<title>&#45;2&#45;&gt;1</title>
<path fill="none" stroke="red" stroke-width="0.4" d="M401.65,-68.29C416.21,-58.81 440.37,-43.07 458.02,-31.58"/>
<polygon fill="red" stroke="red" stroke-width="0.4" points="460.1,-34.4 466.57,-26.01 456.28,-28.54 460.1,-34.4"/>
</g>
<!-- &#45;3 -->
<g id="node3" class="node">
<title>&#45;3</title>
<polygon fill="lightgray" stroke="black" points="264,-86.53 238,-86.53 238,-68.53 264,-68.53 264,-86.53"/>
<text text-anchor="middle" x="251" y="-75.33" font-family="Times,serif" font-size="9.00">&#45;3</text>
</g>
<!-- &#45;3&#45;&gt;0 -->
<g id="edge12" class="edge">
<title>&#45;3&#45;&gt;0</title>
<path fill="none" stroke="red" stroke-width="0.42" d="M241.27,-68.29C230.81,-59.44 213.92,-45.14 200.68,-33.92"/>
<polygon fill="red" stroke="red" stroke-width="0.42" points="202.89,-31.21 192.99,-27.42 198.36,-36.55 202.89,-31.21"/>
</g>
<!-- &#45;3&#45;&gt;1 -->
<g id="edge15" class="edge">
<title>&#45;3&#45;&gt;1</title>
<path fill="none" stroke="green" stroke-width="0.15" d="M264.42,-71.39C267.24,-70.39 270.2,-69.38 273,-68.53 337.56,-48.86 415.13,-31.21 454.45,-22.67"/>
<polygon fill="green" stroke="green" stroke-width="0.15" points="455.23,-26.09 464.27,-20.56 453.75,-19.24 455.23,-26.09"/>
</g>
<!-- &#45;4 -->
<g id="node4" class="node">
<title>&#45;4</title>
<polygon fill="lightgray" stroke="black" points="170,-86.53 144,-86.53 144,-68.53 170,-68.53 170,-86.53"/>
<text text-anchor="middle" x="157" y="-75.33" font-family="Times,serif" font-size="9.00">&#45;4</text>
</g>
<!-- &#45;4&#45;&gt;0 -->
<g id="edge20" class="edge">
<title>&#45;4&#45;&gt;0</title>
<path fill="none" stroke="red" stroke-width="0.14" d="M160.34,-68.29C163.17,-61.3 167.37,-50.91 171.25,-41.33"/>
<polygon fill="red" stroke="red" stroke-width="0.14" points="174.6,-42.4 175.11,-31.82 168.11,-39.77 174.6,-42.4"/>
</g>
<!-- &#45;5 -->
<g id="node5" class="node">
<title>&#45;5</title>
<polygon fill="lightgray" stroke="black" points="790,-86.53 764,-86.53 764,-68.53 790,-68.53 790,-86.53"/>
<text text-anchor="middle" x="777" y="-75.33" font-family="Times,serif" font-size="9.00">&#45;5</text>
</g>
<!-- &#45;6 -->
<g id="node6" class="node">
<title>&#45;6</title>
<polygon fill="lightgray" stroke="black" points="834,-86.53 808,-86.53 808,-68.53 834,-68.53 834,-86.53"/>
<text text-anchor="middle" x="821" y="-75.33" font-family="Times,serif" font-size="9.00">&#45;6</text>
</g>
<!-- &#45;7 -->
<g id="node7" class="node">
<title>&#45;7</title>
<polygon fill="lightgray" stroke="black" points="446,-86.53 420,-86.53 420,-68.53 446,-68.53 446,-86.53"/>
<text text-anchor="middle" x="433" y="-75.33" font-family="Times,serif" font-size="9.00">&#45;7</text>
</g>
<!-- &#45;7&#45;&gt;1 -->
<g id="edge17" class="edge">
<title>&#45;7&#45;&gt;1</title>
<path fill="none" stroke="green" stroke-width="0.28" d="M439.54,-68.29C445.82,-60.36 455.58,-48.05 463.94,-37.51"/>
<polygon fill="green" stroke="green" stroke-width="0.28" points="466.78,-39.56 470.25,-29.55 461.3,-35.21 466.78,-39.56"/>
</g>
<!-- &#45;8 -->
<g id="node8" class="node">
<title>&#45;8</title>
<polygon fill="lightgray" stroke="black" points="308,-86.53 282,-86.53 282,-68.53 308,-68.53 308,-86.53"/>
<text text-anchor="middle" x="295" y="-75.33" font-family="Times,serif" font-size="9.00">&#45;8</text>
</g>
<!-- &#45;8&#45;&gt;0 -->
<g id="edge9" class="edge">
<title>&#45;8&#45;&gt;0</title>
<path fill="none" stroke="green" stroke-width="0.33" d="M281.92,-69.73C263.01,-59.9 227.72,-41.55 204.29,-29.37"/>
<polygon fill="green" stroke="green" stroke-width="0.33" points="205.84,-26.23 195.35,-24.72 202.61,-32.44 205.84,-26.23"/>
</g>
<!-- &#45;8&#45;&gt;1 -->
<g id="edge3" class="edge">
<title>&#45;8&#45;&gt;1</title>
<path fill="none" stroke="red" stroke-width="0.12" d="M308.46,-71.52C311.28,-70.51 314.23,-69.47 317,-68.53 365.47,-52.1 422.63,-34.54 454.76,-24.83"/>
<polygon fill="red" stroke="red" stroke-width="0.12" points="456.08,-28.08 464.65,-21.85 454.06,-21.38 456.08,-28.08"/>
</g>
<!-- &#45;9 -->
<g id="node9" class="node">
<title>&#45;9</title>
<polygon fill="lightgray" stroke="black" points="878,-86.53 852,-86.53 852,-68.53 878,-68.53 878,-86.53"/>
<text text-anchor="middle" x="865" y="-75.33" font-family="Times,serif" font-size="9.00">&#45;9</text>
</g>
<!-- &#45;10 -->
<g id="node10" class="node">
<title>&#45;10</title>
<polygon fill="lightgray" stroke="black" points="220,-86.53 188,-86.53 188,-68.53 220,-68.53 220,-86.53"/>
<text text-anchor="middle" x="204" y="-75.33" font-family="Times,serif" font-size="9.00">&#45;10</text>
</g>
<!-- &#45;10&#45;&gt;0 -->
<g id="edge6" class="edge">
<title>&#45;10&#45;&gt;0</title>
<path fill="none" stroke="green" stroke-width="0.39" d="M200.8,-68.29C198.09,-61.3 194.06,-50.91 190.34,-41.33"/>
<polygon fill="green" stroke="green" stroke-width="0.39" points="193.53,-39.87 186.65,-31.82 187,-42.41 193.53,-39.87"/>
</g>
<!-- &#45;11 -->
<g id="node11" class="node">
<title>&#45;11</title>
<polygon fill="lightgray" stroke="black" points="496,-86.53 464,-86.53 464,-68.53 496,-68.53 496,-86.53"/>
<text text-anchor="middle" x="480" y="-75.33" font-family="Times,serif" font-size="9.00">&#45;11</text>
</g>
<!-- &#45;11&#45;&gt;1 -->
<g id="edge4" class="edge">
<title>&#45;11&#45;&gt;1</title>
<path fill="none" stroke="green" stroke-width="0.33" d="M480,-68.29C480,-61.7 480,-52.1 480,-43"/>
<polygon fill="green" stroke="green" stroke-width="0.33" points="483.5,-42.76 480,-32.76 476.5,-42.76 483.5,-42.76"/>
</g>
<!-- &#45;12 -->
<g id="node12" class="node">
<title>&#45;12</title>
<polygon fill="lightgray" stroke="black" points="546,-86.53 514,-86.53 514,-68.53 546,-68.53 546,-86.53"/>
<text text-anchor="middle" x="530" y="-75.33" font-family="Times,serif" font-size="9.00">&#45;12</text>
</g>
<!-- &#45;12&#45;&gt;1 -->
<g id="edge16" class="edge">
<title>&#45;12&#45;&gt;1</title>
<path fill="none" stroke="red" stroke-width="0.39" d="M523.05,-68.29C516.21,-60.18 505.5,-47.49 496.48,-36.79"/>
<polygon fill="red" stroke="red" stroke-width="0.39" points="499.12,-34.5 490,-29.11 493.77,-39.01 499.12,-34.5"/>
</g>
<!-- &#45;13 -->
<g id="node13" class="node">
<title>&#45;13</title>
<polygon fill="lightgray" stroke="black" points="928,-86.53 896,-86.53 896,-68.53 928,-68.53 928,-86.53"/>
<text text-anchor="middle" x="912" y="-75.33" font-family="Times,serif" font-size="9.00">&#45;13</text>
</g>
<!-- &#45;14 -->
<g id="node14" class="node">
<title>&#45;14</title>
<polygon fill="lightgray" stroke="black" points="32,-86.53 0,-86.53 0,-68.53 32,-68.53 32,-86.53"/>
<text text-anchor="middle" x="16" y="-75.33" font-family="Times,serif" font-size="9.00">&#45;14</text>
</g>
<!-- &#45;14&#45;&gt;0 -->
<g id="edge5" class="edge">
<title>&#45;14&#45;&gt;0</title>
<path fill="none" stroke="red" stroke-width="0.54" d="M32.12,-70.74C61.08,-60.34 122.05,-38.44 156.31,-26.13"/>
<polygon fill="red" stroke="red" stroke-width="0.54" points="157.78,-29.32 166.01,-22.65 155.42,-22.73 157.78,-29.32"/>
</g>
<!-- &#45;15 -->
<g id="node15" class="node">
<title>&#45;15</title>
<polygon fill="lightgray" stroke="black" points="596,-86.53 564,-86.53 564,-68.53 596,-68.53 596,-86.53"/>
<text text-anchor="middle" x="580" y="-75.33" font-family="Times,serif" font-size="9.00">&#45;15</text>
</g>
<!-- &#45;15&#45;&gt;1 -->
<g id="edge11" class="edge">
<title>&#45;15&#45;&gt;1</title>
<path fill="none" stroke="red" stroke-width="0.19" d="M566.1,-68.29C549.68,-58.56 522.14,-42.24 502.63,-30.68"/>
<polygon fill="red" stroke="red" stroke-width="0.19" points="504.17,-27.52 493.79,-25.43 500.6,-33.54 504.17,-27.52"/>
</g>
<!-- &#45;16 -->
<g id="node16" class="node">
<title>&#45;16</title>
<polygon fill="lightgray" stroke="black" points="646,-86.53 614,-86.53 614,-68.53 646,-68.53 646,-86.53"/>
<text text-anchor="middle" x="630" y="-75.33" font-family="Times,serif" font-size="9.00">&#45;16</text>
</g>
<!-- &#45;16&#45;&gt;1 -->
<g id="edge13" class="edge">
<title>&#45;16&#45;&gt;1</title>
<path fill="none" stroke="green" stroke-width="0.37" d="M613.95,-70.18C587.74,-59.83 535.58,-39.22 504.65,-27"/>
<polygon fill="green" stroke="green" stroke-width="0.37" points="505.63,-23.63 495.04,-23.21 503.06,-30.14 505.63,-23.63"/>
</g>
<!-- &#45;17 -->
<g id="node17" class="node">
<title>&#45;17</title>
<polygon fill="lightgray" stroke="black" points="696,-86.53 664,-86.53 664,-68.53 696,-68.53 696,-86.53"/>
<text text-anchor="middle" x="680" y="-75.33" font-family="Times,serif" font-size="9.00">&#45;17</text>
</g>
<!-- &#45;17&#45;&gt;1 -->
<g id="edge2" class="edge">
<title>&#45;17&#45;&gt;1</title>
<path fill="none" stroke="green" stroke-width="0.37" d="M663.88,-71.3C660.93,-70.37 657.88,-69.41 655,-68.53 602.01,-52.29 539.66,-34.29 505.53,-24.53"/>
<polygon fill="green" stroke="green" stroke-width="0.37" points="506.07,-21.04 495.49,-21.66 504.14,-27.77 506.07,-21.04"/>
</g>
<!-- &#45;18 -->
<g id="node18" class="node">
<title>&#45;18</title>
<polygon fill="lightgray" stroke="black" points="746,-86.53 714,-86.53 714,-68.53 746,-68.53 746,-86.53"/>
<text text-anchor="middle" x="730" y="-75.33" font-family="Times,serif" font-size="9.00">&#45;18</text>
</g>
<!-- &#45;18&#45;&gt;1 -->
<g id="edge8" class="edge">
<title>&#45;18&#45;&gt;1</title>
<path fill="none" stroke="green" stroke-width="0.19" d="M713.92,-71.16C710.97,-70.24 707.9,-69.32 705,-68.53 633.54,-48.99 547.93,-30.93 505.89,-22.41"/>
<polygon fill="green" stroke="green" stroke-width="0.19" points="506.43,-18.95 495.94,-20.4 505.05,-25.81 506.43,-18.95"/>
</g>
<!-- &#45;19 -->
<g id="node19" class="node">
<title>&#45;19</title>
<polygon fill="lightgray" stroke="black" points="82,-86.53 50,-86.53 50,-68.53 82,-68.53 82,-86.53"/>
<text text-anchor="middle" x="66" y="-75.33" font-family="Times,serif" font-size="9.00">&#45;19</text>
</g>
<!-- &#45;19&#45;&gt;0 -->
<g id="edge21" class="edge">
<title>&#45;19&#45;&gt;0</title>
<path fill="none" stroke="red" stroke-width="0.12" d="M81.99,-68.29C101.75,-58.1 135.53,-40.7 158.06,-29.09"/>
<polygon fill="red" stroke="red" stroke-width="0.12" points="159.66,-32.2 166.95,-24.5 156.46,-25.97 159.66,-32.2"/>
</g>
<!-- &#45;20 -->
<g id="node20" class="node">
<title>&#45;20</title>
<polygon fill="lightgray" stroke="black" points="358,-86.53 326,-86.53 326,-68.53 358,-68.53 358,-86.53"/>
<text text-anchor="middle" x="342" y="-75.33" font-family="Times,serif" font-size="9.00">&#45;20</text>
</g>
<!-- &#45;20&#45;&gt;0 -->
<g id="edge10" class="edge">
<title>&#45;20&#45;&gt;0</title>
<path fill="none" stroke="red" stroke-width="0.17" d="M325.97,-70.63C297.72,-60.23 238.88,-38.57 205.5,-26.28"/>
<polygon fill="red" stroke="red" stroke-width="0.17" points="206.61,-22.96 196.02,-22.79 204.2,-29.53 206.61,-22.96"/>
</g>
<!-- &#45;20&#45;&gt;1 -->
<g id="edge1" class="edge">
<title>&#45;20&#45;&gt;1</title>
<path fill="none" stroke="green" stroke-width="0.15" d="M358.1,-69.61C382.16,-59.28 427.68,-39.73 455.77,-27.67"/>
<polygon fill="green" stroke="green" stroke-width="0.15" points="457.45,-30.76 465.26,-23.59 454.69,-24.32 457.45,-30.76"/>
</g>
<!-- 0&#45;&gt;0 -->
<g id="edge19" class="edge">
<title>0&#45;&gt;0</title>
<path fill="none" stroke="green" stroke-width="0.13" d="M194.36,-26.06C204.71,-29.72 215.26,-26.46 215.26,-16.26 215.26,-9.57 210.72,-5.87 204.67,-5.14"/>
<polygon fill="green" stroke="green" stroke-width="0.13" points="203.84,-1.72 194.36,-6.47 204.73,-8.67 203.84,-1.72"/>
</g>
<!-- 1&#45;&gt;1 -->
<g id="edge14" class="edge">
<title>1&#45;&gt;1</title>
<path fill="none" stroke="red" stroke-width="0.29" d="M493.36,-26.06C503.71,-29.72 514.26,-26.46 514.26,-16.26 514.26,-9.57 509.72,-5.87 503.67,-5.14"/>
<polygon fill="red" stroke="red" stroke-width="0.29" points="502.84,-1.72 493.36,-6.47 503.73,-8.67 502.84,-1.72"/>
</g>
</g>
</svg>
