<?xml version="1.0" encoding="UTF-8" standalone="no"?>
<!DOCTYPE svg PUBLIC "-//W3C//DTD SVG 1.1//EN"
 "http://www.w3.org/Graphics/SVG/1.1/DTD/svg11.dtd">
<!-- Generated by graphviz version 2.43.0 (0)
 -->
<!-- Title: %3 Pages: 1 -->
<svg width="394pt" height="189pt"
 viewBox="0.00 0.00 393.84 188.51" xmlns="http://www.w3.org/2000/svg" xmlns:xlink="http://www.w3.org/1999/xlink">
<g id="graph0" class="graph" transform="scale(1 1) rotate(0) translate(4 184.51)">
<title>%3</title>
<polygon fill="white" stroke="transparent" points="-4,4 -4,-184.51 389.84,-184.51 389.84,4 -4,4"/>
<!-- &#45;1 -->
<g id="node1" class="node">
<title>&#45;1</title>
<polygon fill="lightgray" stroke="black" points="98.99,-180.51 72.99,-180.51 72.99,-162.51 98.99,-162.51 98.99,-180.51"/>
<text text-anchor="middle" x="85.99" y="-169.31" font-family="Times,serif" font-size="9.00">&#45;1</text>
</g>
<!-- &#45;2 -->
<g id="node2" class="node">
<title>&#45;2</title>
<polygon fill="lightgray" stroke="black" points="233.99,-106.52 207.99,-106.52 207.99,-88.52 233.99,-88.52 233.99,-106.52"/>
<text text-anchor="middle" x="220.99" y="-95.32" font-family="Times,serif" font-size="9.00">&#45;2</text>
</g>
<!-- 0 -->
<g id="node13" class="node">
<title>0</title>
<ellipse fill="lightblue" stroke="black" cx="173.99" cy="-16.26" rx="16.03" ry="16.03"/>
<text text-anchor="middle" x="173.99" y="-14.06" font-family="Times,serif" font-size="9.00">0</text>
</g>
<!-- &#45;2&#45;&gt;0 -->
<g id="edge7" class="edge">
<title>&#45;2&#45;&gt;0</title>
<path fill="none" stroke="green" stroke-width="0.11" d="M216.14,-88.34C209.35,-76.9 196.79,-55.7 187.13,-39.42"/>
<polygon fill="green" stroke="green" stroke-width="0.11" points="189.96,-37.33 181.85,-30.52 183.94,-40.9 189.96,-37.33"/>
</g>
<!-- 1 -->
<g id="node14" class="node">
<title>1</title>
<ellipse fill="lightblue" stroke="black" cx="308.99" cy="-16.26" rx="16.03" ry="16.03"/>
<text text-anchor="middle" x="308.99" y="-14.06" font-family="Times,serif" font-size="9.00">1</text>
</g>
<!-- &#45;2&#45;&gt;1 -->
<g id="edge9" class="edge">
<title>&#45;2&#45;&gt;1</title>
<path fill="none" stroke="green" stroke-width="0.14" d="M226.49,-88.49C230.68,-82.65 236.77,-74.72 242.99,-68.53 256.75,-54.85 274.14,-41.47 287.62,-31.82"/>
<polygon fill="green" stroke="green" stroke-width="0.14" points="289.66,-34.66 295.83,-26.04 285.64,-28.93 289.66,-34.66"/>
</g>
<!-- &#45;3 -->
<g id="node3" class="node">
<title>&#45;3</title>
<polygon fill="lightgray" stroke="black" points="277.99,-106.52 251.99,-106.52 251.99,-88.52 277.99,-88.52 277.99,-106.52"/>
<text text-anchor="middle" x="264.99" y="-95.32" font-family="Times,serif" font-size="9.00">&#45;3</text>
</g>
<!-- &#45;3&#45;&gt;0 -->
<g id="edge4" class="edge">
<title>&#45;3&#45;&gt;0</title>
<path fill="none" stroke="red" stroke-width="0.41" d="M259.53,-88.45C255.36,-82.59 249.28,-74.65 242.99,-68.53 228.6,-54.52 210.28,-41.08 196.14,-31.48"/>
<polygon fill="red" stroke="red" stroke-width="0.41" points="197.79,-28.37 187.52,-25.75 193.91,-34.2 197.79,-28.37"/>
</g>
<!-- &#45;3&#45;&gt;1 -->
<g id="edge8" class="edge">
<title>&#45;3&#45;&gt;1</title>
<path fill="none" stroke="green" stroke-width="0.36" stroke-dasharray="1,5" d="M269.53,-88.34C275.85,-76.96 287.52,-55.95 296.53,-39.7"/>
<polygon fill="green" stroke="green" stroke-width="0.36" points="299.68,-41.25 301.47,-30.8 293.56,-37.85 299.68,-41.25"/>
</g>
<!-- &#45;4 -->
<g id="node4" class="node">
<title>&#45;4</title>
<polygon fill="lightgray" stroke="black" points="101.99,-106.52 75.99,-106.52 75.99,-88.52 101.99,-88.52 101.99,-106.52"/>
<text text-anchor="middle" x="88.99" y="-95.32" font-family="Times,serif" font-size="9.00">&#45;4</text>
</g>
<!-- &#45;4&#45;&gt;0 -->
<g id="edge5" class="edge">
<title>&#45;4&#45;&gt;0</title>
<path fill="none" stroke="green" stroke-width="0.57" d="M96.39,-88.51C101.73,-82.82 109.16,-75.06 115.99,-68.53 128.33,-56.71 142.72,-43.99 154.08,-34.17"/>
<polygon fill="green" stroke="green" stroke-width="0.57" points="156.44,-36.76 161.74,-27.59 151.88,-31.45 156.44,-36.76"/>
</g>
<!-- &#45;5 -->
<g id="node5" class="node">
<title>&#45;5</title>
<polygon fill="lightgray" stroke="black" points="321.99,-106.52 295.99,-106.52 295.99,-88.52 321.99,-88.52 321.99,-106.52"/>
<text text-anchor="middle" x="308.99" y="-95.32" font-family="Times,serif" font-size="9.00">&#45;5</text>
</g>
<!-- &#45;5&#45;&gt;0 -->
<g id="edge2" class="edge">
<title>&#45;5&#45;&gt;0</title>
<path fill="none" stroke="green" stroke-width="0.1" d="M304.06,-88.29C300.08,-82.19 293.99,-74.02 286.99,-68.53 260.15,-47.47 223.27,-32.84 199.05,-24.75"/>
<polygon fill="green" stroke="green" stroke-width="0.1" points="200.1,-21.42 189.51,-21.69 197.96,-28.08 200.1,-21.42"/>
</g>
<!-- &#45;5&#45;&gt;1 -->
<g id="edge3" class="edge">
<title>&#45;5&#45;&gt;1</title>
<path fill="none" stroke="red" stroke-width="0.79" d="M308.99,-88.34C308.99,-77.67 308.99,-58.51 308.99,-42.77"/>
<polygon fill="red" stroke="red" stroke-width="0.79" points="312.49,-42.57 308.99,-32.57 305.49,-42.57 312.49,-42.57"/>
</g>
<!-- &#45;6 -->
<g id="node6" class="node">
<title>&#45;6</title>
<polygon fill="lightgray" stroke="black" points="186.99,-180.51 160.99,-180.51 160.99,-162.51 186.99,-162.51 186.99,-180.51"/>
<text text-anchor="middle" x="173.99" y="-169.31" font-family="Times,serif" font-size="9.00">&#45;6</text>
</g>
<!-- &#45;7 -->
<g id="node7" class="node">
<title>&#45;7</title>
<polygon fill="lightgray" stroke="black" points="142.99,-180.51 116.99,-180.51 116.99,-162.51 142.99,-162.51 142.99,-180.51"/>
<text text-anchor="middle" x="129.99" y="-169.31" font-family="Times,serif" font-size="9.00">&#45;7</text>
</g>
<!-- &#45;7&#45;&gt;0 -->
<g id="edge11" class="edge">
<title>&#45;7&#45;&gt;0</title>
<path fill="none" stroke="red" stroke-width="0.43" stroke-dasharray="1,5" d="M130.75,-162.39C132.56,-144.88 137.81,-102.39 148.99,-68.53 152.23,-58.72 156.98,-48.4 161.47,-39.61"/>
<polygon fill="red" stroke="red" stroke-width="0.43" points="164.56,-41.24 166.16,-30.76 158.38,-37.96 164.56,-41.24"/>
</g>
<!-- &#45;7&#45;&gt;1 -->
<g id="edge6" class="edge">
<title>&#45;7&#45;&gt;1</title>
<path fill="none" stroke="green" stroke-width="0.23" d="M143.36,-165.19C146.18,-164.2 149.16,-163.25 151.99,-162.51 200.57,-149.88 342.45,-164.73 374.99,-126.51 391.7,-106.89 386.32,-91.67 374.99,-68.53 366.17,-50.51 347.62,-36.99 332.42,-28.38"/>
<polygon fill="green" stroke="green" stroke-width="0.23" points="333.99,-25.25 323.51,-23.65 330.71,-31.43 333.99,-25.25"/>
</g>
<!-- 7532 -->
<g id="node15" class="node">
<title>7532</title>
<ellipse fill="white" stroke="black" cx="28.99" cy="-97.52" rx="28.98" ry="28.98"/>
<text text-anchor="middle" x="28.99" y="-95.32" font-family="Times,serif" font-size="9.00">7532</text>
</g>
<!-- &#45;7&#45;&gt;7532 -->
<g id="edge13" class="edge">
<title>&#45;7&#45;&gt;7532</title>
<path fill="none" stroke="red" stroke-width="0.27" d="M118.32,-162.49C105.62,-153.73 84.77,-139.26 66.99,-126.51 64.68,-124.85 62.3,-123.13 59.91,-121.39"/>
<polygon fill="red" stroke="red" stroke-width="0.27" points="61.97,-118.56 51.83,-115.49 57.84,-124.21 61.97,-118.56"/>
</g>
<!-- &#45;8 -->
<g id="node8" class="node">
<title>&#45;8</title>
<polygon fill="lightgray" stroke="black" points="230.99,-180.51 204.99,-180.51 204.99,-162.51 230.99,-162.51 230.99,-180.51"/>
<text text-anchor="middle" x="217.99" y="-169.31" font-family="Times,serif" font-size="9.00">&#45;8</text>
</g>
<!-- &#45;9 -->
<g id="node9" class="node">
<title>&#45;9</title>
<polygon fill="lightgray" stroke="black" points="365.99,-106.52 339.99,-106.52 339.99,-88.52 365.99,-88.52 365.99,-106.52"/>
<text text-anchor="middle" x="352.99" y="-95.32" font-family="Times,serif" font-size="9.00">&#45;9</text>
</g>
<!-- &#45;9&#45;&gt;1 -->
<g id="edge10" class="edge">
<title>&#45;9&#45;&gt;1</title>
<path fill="none" stroke="red" stroke-width="0.14" d="M348.45,-88.34C342.13,-76.96 330.47,-55.95 321.45,-39.7"/>
<polygon fill="red" stroke="red" stroke-width="0.14" points="324.42,-37.85 316.51,-30.8 318.3,-41.25 324.42,-37.85"/>
</g>
<!-- &#45;10 -->
<g id="node10" class="node">
<title>&#45;10</title>
<polygon fill="lightgray" stroke="black" points="189.99,-106.52 157.99,-106.52 157.99,-88.52 189.99,-88.52 189.99,-106.52"/>
<text text-anchor="middle" x="173.99" y="-95.32" font-family="Times,serif" font-size="9.00">&#45;10</text>
</g>
<!-- &#45;10&#45;&gt;0 -->
<g id="edge1" class="edge">
<title>&#45;10&#45;&gt;0</title>
<path fill="none" stroke="red" stroke-width="0.15" d="M173.99,-88.34C173.99,-77.67 173.99,-58.51 173.99,-42.77"/>
<polygon fill="red" stroke="red" stroke-width="0.15" points="177.49,-42.57 173.99,-32.57 170.49,-42.57 177.49,-42.57"/>
</g>
<!-- &#45;11 -->
<g id="node11" class="node">
<title>&#45;11</title>
<polygon fill="lightgray" stroke="black" points="280.99,-180.51 248.99,-180.51 248.99,-162.51 280.99,-162.51 280.99,-180.51"/>
<text text-anchor="middle" x="264.99" y="-169.31" font-family="Times,serif" font-size="9.00">&#45;11</text>
</g>
<!-- &#45;12 -->
<g id="node12" class="node">
<title>&#45;12</title>
<polygon fill="lightgray" stroke="black" points="330.99,-180.51 298.99,-180.51 298.99,-162.51 330.99,-162.51 330.99,-180.51"/>
<text text-anchor="middle" x="314.99" y="-169.31" font-family="Times,serif" font-size="9.00">&#45;12</text>
</g>
<!-- 1&#45;&gt;1 -->
<g id="edge12" class="edge">
<title>1&#45;&gt;1</title>
<path fill="none" stroke="green" stroke-width="0.18" stroke-dasharray="1,5" d="M320.22,-28.18C331.2,-34.77 343.25,-30.79 343.25,-16.26 343.25,-6.05 337.29,-1.05 329.94,-1.27"/>
<polygon fill="green" stroke="green" stroke-width="0.18" points="328.7,2.01 320.22,-4.34 330.81,-4.67 328.7,2.01"/>
</g>
<!-- 7532&#45;&gt;0 -->
<g id="edge14" class="edge">
<title>7532&#45;&gt;0</title>
<path fill="none" stroke="green" stroke-width="0.4" d="M51.42,-78.92C56.43,-75.3 61.79,-71.65 66.99,-68.53 94.25,-52.16 127.54,-36.89 149.67,-27.35"/>
<polygon fill="green" stroke="green" stroke-width="0.4" points="151.17,-30.52 159,-23.38 148.43,-24.08 151.17,-30.52"/>
</g>
</g>
</svg>
