<?xml version="1.0" encoding="UTF-8" standalone="no"?>
<!DOCTYPE svg PUBLIC "-//W3C//DTD SVG 1.1//EN"
 "http://www.w3.org/Graphics/SVG/1.1/DTD/svg11.dtd">
<!-- Generated by graphviz version 2.43.0 (0)
 -->
<!-- Title: %3 Pages: 1 -->
<svg width="633pt" height="135pt"
 viewBox="0.00 0.00 633.25 134.51" xmlns="http://www.w3.org/2000/svg" xmlns:xlink="http://www.w3.org/1999/xlink">
<g id="graph0" class="graph" transform="scale(1 1) rotate(0) translate(4 130.51)">
<title>%3</title>
<polygon fill="white" stroke="transparent" points="-4,4 -4,-130.51 629.25,-130.51 629.25,4 -4,4"/>
<!-- &#45;1 -->
<g id="node1" class="node">
<title>&#45;1</title>
<polygon fill="lightgray" stroke="black" points="29.26,-106.52 3.26,-106.52 3.26,-88.52 29.26,-88.52 29.26,-106.52"/>
<text text-anchor="middle" x="16.26" y="-95.32" font-family="Times,serif" font-size="9.00">&#45;1</text>
</g>
<!-- 1 -->
<g id="node14" class="node">
<title>1</title>
<ellipse fill="lightblue" stroke="black" cx="16.26" cy="-16.26" rx="16.03" ry="16.03"/>
<text text-anchor="middle" x="16.26" y="-14.06" font-family="Times,serif" font-size="9.00">1</text>
</g>
<!-- &#45;1&#45;&gt;1 -->
<g id="edge3" class="edge">
<title>&#45;1&#45;&gt;1</title>
<path fill="none" stroke="green" stroke-width="0.14" d="M16.26,-88.34C16.26,-77.67 16.26,-58.51 16.26,-42.77"/>
<polygon fill="green" stroke="green" stroke-width="0.14" points="19.76,-42.57 16.26,-32.57 12.76,-42.57 19.76,-42.57"/>
</g>
<!-- &#45;2 -->
<g id="node2" class="node">
<title>&#45;2</title>
<polygon fill="lightgray" stroke="black" points="73.26,-106.52 47.26,-106.52 47.26,-88.52 73.26,-88.52 73.26,-106.52"/>
<text text-anchor="middle" x="60.26" y="-95.32" font-family="Times,serif" font-size="9.00">&#45;2</text>
</g>
<!-- 0 -->
<g id="node13" class="node">
<title>0</title>
<ellipse fill="lightblue" stroke="black" cx="107.26" cy="-16.26" rx="16.03" ry="16.03"/>
<text text-anchor="middle" x="107.26" y="-14.06" font-family="Times,serif" font-size="9.00">0</text>
</g>
<!-- &#45;2&#45;&gt;0 -->
<g id="edge5" class="edge">
<title>&#45;2&#45;&gt;0</title>
<path fill="none" stroke="red" stroke-width="0.4" d="M65.12,-88.34C71.9,-76.9 84.47,-55.7 94.12,-39.42"/>
<polygon fill="red" stroke="red" stroke-width="0.4" points="97.31,-40.9 99.4,-30.52 91.29,-37.33 97.31,-40.9"/>
</g>
<!-- &#45;3 -->
<g id="node3" class="node">
<title>&#45;3</title>
<polygon fill="lightgray" stroke="black" points="217.26,-106.52 191.26,-106.52 191.26,-88.52 217.26,-88.52 217.26,-106.52"/>
<text text-anchor="middle" x="204.26" y="-95.32" font-family="Times,serif" font-size="9.00">&#45;3</text>
</g>
<!-- &#45;4 -->
<g id="node4" class="node">
<title>&#45;4</title>
<polygon fill="lightgray" stroke="black" points="261.26,-106.52 235.26,-106.52 235.26,-88.52 261.26,-88.52 261.26,-106.52"/>
<text text-anchor="middle" x="248.26" y="-95.32" font-family="Times,serif" font-size="9.00">&#45;4</text>
</g>
<!-- &#45;5 -->
<g id="node5" class="node">
<title>&#45;5</title>
<polygon fill="lightgray" stroke="black" points="305.26,-106.52 279.26,-106.52 279.26,-88.52 305.26,-88.52 305.26,-106.52"/>
<text text-anchor="middle" x="292.26" y="-95.32" font-family="Times,serif" font-size="9.00">&#45;5</text>
</g>
<!-- &#45;6 -->
<g id="node6" class="node">
<title>&#45;6</title>
<polygon fill="lightgray" stroke="black" points="349.26,-106.52 323.26,-106.52 323.26,-88.52 349.26,-88.52 349.26,-106.52"/>
<text text-anchor="middle" x="336.26" y="-95.32" font-family="Times,serif" font-size="9.00">&#45;6</text>
</g>
<!-- &#45;7 -->
<g id="node7" class="node">
<title>&#45;7</title>
<polygon fill="lightgray" stroke="black" points="393.26,-106.52 367.26,-106.52 367.26,-88.52 393.26,-88.52 393.26,-106.52"/>
<text text-anchor="middle" x="380.26" y="-95.32" font-family="Times,serif" font-size="9.00">&#45;7</text>
</g>
<!-- &#45;8 -->
<g id="node8" class="node">
<title>&#45;8</title>
<polygon fill="lightgray" stroke="black" points="437.26,-106.52 411.26,-106.52 411.26,-88.52 437.26,-88.52 437.26,-106.52"/>
<text text-anchor="middle" x="424.26" y="-95.32" font-family="Times,serif" font-size="9.00">&#45;8</text>
</g>
<!-- &#45;9 -->
<g id="node9" class="node">
<title>&#45;9</title>
<polygon fill="lightgray" stroke="black" points="481.26,-106.52 455.26,-106.52 455.26,-88.52 481.26,-88.52 481.26,-106.52"/>
<text text-anchor="middle" x="468.26" y="-95.32" font-family="Times,serif" font-size="9.00">&#45;9</text>
</g>
<!-- &#45;10 -->
<g id="node10" class="node">
<title>&#45;10</title>
<polygon fill="lightgray" stroke="black" points="531.26,-106.52 499.26,-106.52 499.26,-88.52 531.26,-88.52 531.26,-106.52"/>
<text text-anchor="middle" x="515.26" y="-95.32" font-family="Times,serif" font-size="9.00">&#45;10</text>
</g>
<!-- &#45;11 -->
<g id="node11" class="node">
<title>&#45;11</title>
<polygon fill="lightgray" stroke="black" points="123.26,-106.52 91.26,-106.52 91.26,-88.52 123.26,-88.52 123.26,-106.52"/>
<text text-anchor="middle" x="107.26" y="-95.32" font-family="Times,serif" font-size="9.00">&#45;11</text>
</g>
<!-- &#45;11&#45;&gt;0 -->
<g id="edge2" class="edge">
<title>&#45;11&#45;&gt;0</title>
<path fill="none" stroke="green" stroke-width="0.31" stroke-dasharray="1,5" d="M107.26,-88.34C107.26,-77.67 107.26,-58.51 107.26,-42.77"/>
<polygon fill="green" stroke="green" stroke-width="0.31" points="110.76,-42.57 107.26,-32.57 103.76,-42.57 110.76,-42.57"/>
</g>
<!-- &#45;12 -->
<g id="node12" class="node">
<title>&#45;12</title>
<polygon fill="lightgray" stroke="black" points="173.26,-106.52 141.26,-106.52 141.26,-88.52 173.26,-88.52 173.26,-106.52"/>
<text text-anchor="middle" x="157.26" y="-95.32" font-family="Times,serif" font-size="9.00">&#45;12</text>
</g>
<!-- &#45;12&#45;&gt;0 -->
<g id="edge1" class="edge">
<title>&#45;12&#45;&gt;0</title>
<path fill="none" stroke="red" stroke-width="0.29" stroke-dasharray="1,5" d="M152.1,-88.34C144.88,-76.9 131.51,-55.7 121.24,-39.42"/>
<polygon fill="red" stroke="red" stroke-width="0.29" points="123.92,-37.11 115.62,-30.52 118,-40.84 123.92,-37.11"/>
</g>
<!-- 1853 -->
<g id="node15" class="node">
<title>1853</title>
<ellipse fill="white" stroke="black" cx="578.26" cy="-97.52" rx="28.98" ry="28.98"/>
<text text-anchor="middle" x="578.26" y="-95.32" font-family="Times,serif" font-size="9.00">1853</text>
</g>
<!-- 1853&#45;&gt;1853 -->
<g id="edge4" class="edge">
<title>1853&#45;&gt;1853</title>
<path fill="none" stroke="red" stroke-width="0.34" d="M603.4,-112.22C615.07,-113.83 625.25,-108.92 625.25,-97.52 625.25,-89.68 620.44,-84.91 613.64,-83.22"/>
<polygon fill="red" stroke="red" stroke-width="0.34" points="613.53,-79.71 603.4,-82.81 613.26,-86.7 613.53,-79.71"/>
</g>
</g>
</svg>
