<?xml version="1.0" encoding="UTF-8" standalone="no"?>
<!DOCTYPE svg PUBLIC "-//W3C//DTD SVG 1.1//EN"
 "http://www.w3.org/Graphics/SVG/1.1/DTD/svg11.dtd">
<!-- Generated by graphviz version 2.43.0 (0)
 -->
<!-- Title: %3 Pages: 1 -->
<svg width="638pt" height="189pt"
 viewBox="0.00 0.00 638.00 188.51" xmlns="http://www.w3.org/2000/svg" xmlns:xlink="http://www.w3.org/1999/xlink">
<g id="graph0" class="graph" transform="scale(1 1) rotate(0) translate(4 184.51)">
<title>%3</title>
<polygon fill="white" stroke="transparent" points="-4,4 -4,-184.51 634,-184.51 634,4 -4,4"/>
<!-- &#45;1 -->
<g id="node1" class="node">
<title>&#45;1</title>
<polygon fill="lightgray" stroke="black" points="130,-180.51 104,-180.51 104,-162.51 130,-162.51 130,-180.51"/>
<text text-anchor="middle" x="117" y="-169.31" font-family="Times,serif" font-size="9.00">&#45;1</text>
</g>
<!-- &#45;2 -->
<g id="node2" class="node">
<title>&#45;2</title>
<polygon fill="lightgray" stroke="black" points="328,-106.52 302,-106.52 302,-88.52 328,-88.52 328,-106.52"/>
<text text-anchor="middle" x="315" y="-95.32" font-family="Times,serif" font-size="9.00">&#45;2</text>
</g>
<!-- 0 -->
<g id="node13" class="node">
<title>0</title>
<ellipse fill="lightblue" stroke="black" cx="161" cy="-16.26" rx="16.03" ry="16.03"/>
<text text-anchor="middle" x="161" y="-14.06" font-family="Times,serif" font-size="9.00">0</text>
</g>
<!-- &#45;2&#45;&gt;0 -->
<g id="edge15" class="edge">
<title>&#45;2&#45;&gt;0</title>
<path fill="none" stroke="red" stroke-width="0.54" d="M310.16,-88.18C306.22,-82.02 300.15,-73.82 293,-68.53 260.42,-44.39 215.03,-30.08 186.86,-22.95"/>
<polygon fill="red" stroke="red" stroke-width="0.54" points="187.51,-19.5 176.97,-20.56 185.87,-26.31 187.51,-19.5"/>
</g>
<!-- 1 -->
<g id="node14" class="node">
<title>1</title>
<ellipse fill="lightblue" stroke="black" cx="423" cy="-16.26" rx="16.03" ry="16.03"/>
<text text-anchor="middle" x="423" y="-14.06" font-family="Times,serif" font-size="9.00">1</text>
</g>
<!-- &#45;2&#45;&gt;1 -->
<g id="edge1" class="edge">
<title>&#45;2&#45;&gt;1</title>
<path fill="none" stroke="red" stroke-width="0.11" d="M320.11,-88.51C324.19,-82.53 330.32,-74.4 337,-68.53 355.95,-51.87 381.05,-37.63 399.24,-28.41"/>
<polygon fill="red" stroke="red" stroke-width="0.11" points="401.13,-31.38 408.55,-23.82 398.03,-25.1 401.13,-31.38"/>
</g>
<!-- &#45;3 -->
<g id="node3" class="node">
<title>&#45;3</title>
<polygon fill="lightgray" stroke="black" points="501,-180.51 475,-180.51 475,-162.51 501,-162.51 501,-180.51"/>
<text text-anchor="middle" x="488" y="-169.31" font-family="Times,serif" font-size="9.00">&#45;3</text>
</g>
<!-- &#45;3&#45;&gt;1 -->
<g id="edge6" class="edge">
<title>&#45;3&#45;&gt;1</title>
<path fill="none" stroke="red" stroke-width="0.7" stroke-dasharray="1,5" d="M486.49,-162.26C483.04,-144.5 473.65,-101.55 458,-68.53 452.89,-57.75 445.66,-46.72 439.1,-37.66"/>
<polygon fill="red" stroke="red" stroke-width="0.7" points="441.9,-35.55 433.1,-29.65 436.3,-39.75 441.9,-35.55"/>
</g>
<!-- 4828 -->
<g id="node15" class="node">
<title>4828</title>
<ellipse fill="white" stroke="black" cx="539" cy="-97.52" rx="28.98" ry="28.98"/>
<text text-anchor="middle" x="539" y="-95.32" font-family="Times,serif" font-size="9.00">4828</text>
</g>
<!-- &#45;3&#45;&gt;4828 -->
<g id="edge16" class="edge">
<title>&#45;3&#45;&gt;4828</title>
<path fill="none" stroke="green" stroke-width="0.11" stroke-dasharray="1,5" d="M493.85,-162.25C499.45,-154.35 508.26,-141.91 516.62,-130.12"/>
<polygon fill="green" stroke="green" stroke-width="0.11" points="519.64,-131.9 522.57,-121.71 513.93,-127.85 519.64,-131.9"/>
</g>
<!-- &#45;4 -->
<g id="node4" class="node">
<title>&#45;4</title>
<polygon fill="lightgray" stroke="black" points="26,-106.52 0,-106.52 0,-88.52 26,-88.52 26,-106.52"/>
<text text-anchor="middle" x="13" y="-95.32" font-family="Times,serif" font-size="9.00">&#45;4</text>
</g>
<!-- &#45;4&#45;&gt;0 -->
<g id="edge2" class="edge">
<title>&#45;4&#45;&gt;0</title>
<path fill="none" stroke="red" stroke-width="0.99" d="M19.38,-88.3C24.45,-82.2 31.99,-74.03 40,-68.53 70.24,-47.74 110.25,-32.84 135.81,-24.63"/>
<polygon fill="red" stroke="red" stroke-width="0.99" points="136.98,-27.93 145.49,-21.62 134.9,-21.25 136.98,-27.93"/>
</g>
<!-- &#45;5 -->
<g id="node5" class="node">
<title>&#45;5</title>
<polygon fill="lightgray" stroke="black" points="372,-106.52 346,-106.52 346,-88.52 372,-88.52 372,-106.52"/>
<text text-anchor="middle" x="359" y="-95.32" font-family="Times,serif" font-size="9.00">&#45;5</text>
</g>
<!-- &#45;5&#45;&gt;1 -->
<g id="edge8" class="edge">
<title>&#45;5&#45;&gt;1</title>
<path fill="none" stroke="red" stroke-width="0.84" d="M365.5,-88.15C369.86,-82.57 375.74,-75.08 381,-68.53 389.35,-58.12 398.76,-46.61 406.55,-37.15"/>
<polygon fill="red" stroke="red" stroke-width="0.84" points="409.26,-39.37 412.92,-29.43 403.85,-34.92 409.26,-39.37"/>
</g>
<!-- &#45;6 -->
<g id="node6" class="node">
<title>&#45;6</title>
<polygon fill="lightgray" stroke="black" points="174,-180.51 148,-180.51 148,-162.51 174,-162.51 174,-180.51"/>
<text text-anchor="middle" x="161" y="-169.31" font-family="Times,serif" font-size="9.00">&#45;6</text>
</g>
<!-- &#45;6&#45;&gt;0 -->
<g id="edge12" class="edge">
<title>&#45;6&#45;&gt;0</title>
<path fill="none" stroke="green" stroke-width="0.6" stroke-dasharray="1,5" d="M147.69,-164.78C124.16,-154.53 77.29,-133.45 73,-126.51 59.45,-104.59 60.16,-90.87 73,-68.53 86.33,-45.34 114.62,-31.66 135.55,-24.34"/>
<polygon fill="green" stroke="green" stroke-width="0.6" points="136.69,-27.65 145.13,-21.25 134.54,-20.99 136.69,-27.65"/>
</g>
<!-- &#45;6&#45;&gt;1 -->
<g id="edge11" class="edge">
<title>&#45;6&#45;&gt;1</title>
<path fill="none" stroke="green" stroke-width="0.34" d="M174.22,-170.45C223.07,-169.91 392.19,-165.24 425,-126.51 444.85,-103.08 438.8,-65.6 431.66,-41.21"/>
<polygon fill="green" stroke="green" stroke-width="0.34" points="434.98,-40.1 428.61,-31.63 428.31,-42.22 434.98,-40.1"/>
</g>
<!-- 1084 -->
<g id="node16" class="node">
<title>1084</title>
<ellipse fill="white" stroke="black" cx="161" cy="-97.52" rx="28.98" ry="28.98"/>
<text text-anchor="middle" x="161" y="-95.32" font-family="Times,serif" font-size="9.00">1084</text>
</g>
<!-- &#45;6&#45;&gt;1084 -->
<g id="edge13" class="edge">
<title>&#45;6&#45;&gt;1084</title>
<path fill="none" stroke="green" stroke-width="0.43" d="M161,-162.25C161,-155.78 161,-146.28 161,-136.58"/>
<polygon fill="green" stroke="green" stroke-width="0.43" points="164.5,-136.51 161,-126.51 157.5,-136.51 164.5,-136.51"/>
</g>
<!-- &#45;7 -->
<g id="node7" class="node">
<title>&#45;7</title>
<polygon fill="lightgray" stroke="black" points="284,-106.52 258,-106.52 258,-88.52 284,-88.52 284,-106.52"/>
<text text-anchor="middle" x="271" y="-95.32" font-family="Times,serif" font-size="9.00">&#45;7</text>
</g>
<!-- &#45;7&#45;&gt;0 -->
<g id="edge3" class="edge">
<title>&#45;7&#45;&gt;0</title>
<path fill="none" stroke="red" stroke-width="0.39" d="M265.91,-88.49C261.84,-82.5 255.71,-74.37 249,-68.53 229.55,-51.61 203.71,-37.33 185.07,-28.18"/>
<polygon fill="red" stroke="red" stroke-width="0.39" points="186.33,-24.9 175.8,-23.75 183.31,-31.22 186.33,-24.9"/>
</g>
<!-- &#45;7&#45;&gt;1 -->
<g id="edge10" class="edge">
<title>&#45;7&#45;&gt;1</title>
<path fill="none" stroke="red" stroke-width="0.21" d="M275.85,-88.19C279.79,-82.04 285.86,-73.84 293,-68.53 325.09,-44.63 369.79,-30.24 397.53,-23.04"/>
<polygon fill="red" stroke="red" stroke-width="0.21" points="398.41,-26.42 407.27,-20.62 396.73,-19.63 398.41,-26.42"/>
</g>
<!-- &#45;8 -->
<g id="node8" class="node">
<title>&#45;8</title>
<polygon fill="lightgray" stroke="black" points="416,-106.52 390,-106.52 390,-88.52 416,-88.52 416,-106.52"/>
<text text-anchor="middle" x="403" y="-95.32" font-family="Times,serif" font-size="9.00">&#45;8</text>
</g>
<!-- &#45;8&#45;&gt;1 -->
<g id="edge9" class="edge">
<title>&#45;8&#45;&gt;1</title>
<path fill="none" stroke="red" stroke-width="0.2" d="M405.07,-88.34C407.8,-77.5 412.74,-57.91 416.75,-42.04"/>
<polygon fill="red" stroke="red" stroke-width="0.2" points="420.16,-42.82 419.21,-32.27 413.37,-41.11 420.16,-42.82"/>
</g>
<!-- &#45;9 -->
<g id="node9" class="node">
<title>&#45;9</title>
<polygon fill="lightgray" stroke="black" points="580,-180.51 554,-180.51 554,-162.51 580,-162.51 580,-180.51"/>
<text text-anchor="middle" x="567" y="-169.31" font-family="Times,serif" font-size="9.00">&#45;9</text>
</g>
<!-- &#45;9&#45;&gt;1 -->
<g id="edge4" class="edge">
<title>&#45;9&#45;&gt;1</title>
<path fill="none" stroke="green" stroke-width="0.42" d="M571.08,-162.43C579.82,-143.86 597.91,-97.53 577,-68.53 547.8,-28.03 485.26,-19.03 449.51,-17.33"/>
<polygon fill="green" stroke="green" stroke-width="0.42" points="449.44,-13.83 439.34,-17.01 449.22,-20.83 449.44,-13.83"/>
</g>
<!-- &#45;9&#45;&gt;4828 -->
<g id="edge18" class="edge">
<title>&#45;9&#45;&gt;4828</title>
<path fill="none" stroke="green" stroke-width="0.16" d="M563.79,-162.25C561.08,-155.3 557.01,-144.83 552.95,-134.38"/>
<polygon fill="green" stroke="green" stroke-width="0.16" points="556.15,-132.95 549.26,-124.89 549.62,-135.48 556.15,-132.95"/>
</g>
<!-- &#45;10 -->
<g id="node10" class="node">
<title>&#45;10</title>
<polygon fill="lightgray" stroke="black" points="114,-106.52 82,-106.52 82,-88.52 114,-88.52 114,-106.52"/>
<text text-anchor="middle" x="98" y="-95.32" font-family="Times,serif" font-size="9.00">&#45;10</text>
</g>
<!-- &#45;10&#45;&gt;0 -->
<g id="edge5" class="edge">
<title>&#45;10&#45;&gt;0</title>
<path fill="none" stroke="red" stroke-width="0.18" d="M104.5,-88.34C113.98,-76.41 131.88,-53.89 145,-37.39"/>
<polygon fill="red" stroke="red" stroke-width="0.18" points="147.88,-39.4 151.36,-29.39 142.4,-35.04 147.88,-39.4"/>
</g>
<!-- &#45;11 -->
<g id="node11" class="node">
<title>&#45;11</title>
<polygon fill="lightgray" stroke="black" points="630,-180.51 598,-180.51 598,-162.51 630,-162.51 630,-180.51"/>
<text text-anchor="middle" x="614" y="-169.31" font-family="Times,serif" font-size="9.00">&#45;11</text>
</g>
<!-- &#45;12 -->
<g id="node12" class="node">
<title>&#45;12</title>
<polygon fill="lightgray" stroke="black" points="240,-106.52 208,-106.52 208,-88.52 240,-88.52 240,-106.52"/>
<text text-anchor="middle" x="224" y="-95.32" font-family="Times,serif" font-size="9.00">&#45;12</text>
</g>
<!-- &#45;12&#45;&gt;0 -->
<g id="edge7" class="edge">
<title>&#45;12&#45;&gt;0</title>
<path fill="none" stroke="red" stroke-width="0.54" stroke-dasharray="1,5" d="M217.5,-88.34C208.02,-76.41 190.12,-53.89 177,-37.39"/>
<polygon fill="red" stroke="red" stroke-width="0.54" points="179.6,-35.04 170.64,-29.39 174.12,-39.4 179.6,-35.04"/>
</g>
<!-- 4828&#45;&gt;1 -->
<g id="edge17" class="edge">
<title>4828&#45;&gt;1</title>
<path fill="none" stroke="red" stroke-width="0.21" d="M515.53,-80.48C494.74,-66.28 464.66,-45.73 444.5,-31.95"/>
<polygon fill="red" stroke="red" stroke-width="0.21" points="446.23,-28.9 436,-26.15 442.28,-34.68 446.23,-28.9"/>
</g>
<!-- 1084&#45;&gt;0 -->
<g id="edge14" class="edge">
<title>1084&#45;&gt;0</title>
<path fill="none" stroke="green" stroke-width="0.66" d="M161,-68.35C161,-60.06 161,-51.04 161,-42.91"/>
<polygon fill="green" stroke="green" stroke-width="0.66" points="164.5,-42.89 161,-32.89 157.5,-42.89 164.5,-42.89"/>
</g>
</g>
</svg>
