<?xml version="1.0" encoding="UTF-8" standalone="no"?>
<!DOCTYPE svg PUBLIC "-//W3C//DTD SVG 1.1//EN"
 "http://www.w3.org/Graphics/SVG/1.1/DTD/svg11.dtd">
<!-- Generated by graphviz version 2.43.0 (0)
 -->
<!-- Title: %3 Pages: 1 -->
<svg width="1012pt" height="135pt"
 viewBox="0.00 0.00 1012.00 134.51" xmlns="http://www.w3.org/2000/svg" xmlns:xlink="http://www.w3.org/1999/xlink">
<g id="graph0" class="graph" transform="scale(1 1) rotate(0) translate(4 130.51)">
<title>%3</title>
<polygon fill="white" stroke="transparent" points="-4,4 -4,-130.51 1008,-130.51 1008,4 -4,4"/>
<!-- &#45;1 -->
<g id="node1" class="node">
<title>&#45;1</title>
<polygon fill="lightgray" stroke="black" points="26,-106.52 0,-106.52 0,-88.52 26,-88.52 26,-106.52"/>
<text text-anchor="middle" x="13" y="-95.32" font-family="Times,serif" font-size="9.00">&#45;1</text>
</g>
<!-- 1 -->
<g id="node22" class="node">
<title>1</title>
<ellipse fill="lightblue" stroke="black" cx="217" cy="-16.26" rx="16.03" ry="16.03"/>
<text text-anchor="middle" x="217" y="-14.06" font-family="Times,serif" font-size="9.00">1</text>
</g>
<!-- &#45;1&#45;&gt;1 -->
<g id="edge5" class="edge">
<title>&#45;1&#45;&gt;1</title>
<path fill="none" stroke="red" stroke-width="0.11" d="M17.38,-88.49C21.23,-82.17 27.4,-73.61 35,-68.53 83.8,-35.88 153.24,-23.83 190.67,-19.53"/>
<polygon fill="red" stroke="red" stroke-width="0.11" points="191.18,-23 200.76,-18.47 190.45,-16.03 191.18,-23"/>
</g>
<!-- &#45;2 -->
<g id="node2" class="node">
<title>&#45;2</title>
<polygon fill="lightgray" stroke="black" points="352,-106.52 326,-106.52 326,-88.52 352,-88.52 352,-106.52"/>
<text text-anchor="middle" x="339" y="-95.32" font-family="Times,serif" font-size="9.00">&#45;2</text>
</g>
<!-- 0 -->
<g id="node21" class="node">
<title>0</title>
<ellipse fill="lightblue" stroke="black" cx="361" cy="-16.26" rx="16.03" ry="16.03"/>
<text text-anchor="middle" x="361" y="-14.06" font-family="Times,serif" font-size="9.00">0</text>
</g>
<!-- &#45;2&#45;&gt;0 -->
<g id="edge17" class="edge">
<title>&#45;2&#45;&gt;0</title>
<path fill="none" stroke="green" stroke-width="0.27" d="M341.27,-88.34C344.28,-77.5 349.72,-57.91 354.12,-42.04"/>
<polygon fill="green" stroke="green" stroke-width="0.27" points="357.53,-42.84 356.83,-32.27 350.79,-40.97 357.53,-42.84"/>
</g>
<!-- &#45;2&#45;&gt;1 -->
<g id="edge16" class="edge">
<title>&#45;2&#45;&gt;1</title>
<path fill="none" stroke="green" stroke-width="0.45" stroke-dasharray="1,5" d="M334,-88.38C329.97,-82.34 323.87,-74.19 317,-68.53 293.99,-49.57 262.82,-34.98 241.43,-26.3"/>
<polygon fill="green" stroke="green" stroke-width="0.45" points="242.67,-23.02 232.08,-22.62 240.11,-29.54 242.67,-23.02"/>
</g>
<!-- &#45;3 -->
<g id="node3" class="node">
<title>&#45;3</title>
<polygon fill="lightgray" stroke="black" points="396,-106.52 370,-106.52 370,-88.52 396,-88.52 396,-106.52"/>
<text text-anchor="middle" x="383" y="-95.32" font-family="Times,serif" font-size="9.00">&#45;3</text>
</g>
<!-- &#45;3&#45;&gt;0 -->
<g id="edge19" class="edge">
<title>&#45;3&#45;&gt;0</title>
<path fill="none" stroke="green" stroke-width="0.54" d="M380.73,-88.34C377.72,-77.5 372.28,-57.91 367.88,-42.04"/>
<polygon fill="green" stroke="green" stroke-width="0.54" points="371.21,-40.97 365.17,-32.27 364.47,-42.84 371.21,-40.97"/>
</g>
<!-- &#45;3&#45;&gt;1 -->
<g id="edge14" class="edge">
<title>&#45;3&#45;&gt;1</title>
<path fill="none" stroke="red" stroke-width="0.57" d="M378.36,-88.37C374.45,-82.16 368.33,-73.79 361,-68.53 324.57,-42.34 273.45,-28.38 242.94,-21.92"/>
<polygon fill="red" stroke="red" stroke-width="0.57" points="243.55,-18.48 233.06,-19.94 242.18,-25.34 243.55,-18.48"/>
</g>
<!-- &#45;4 -->
<g id="node4" class="node">
<title>&#45;4</title>
<polygon fill="lightgray" stroke="black" points="440,-106.52 414,-106.52 414,-88.52 440,-88.52 440,-106.52"/>
<text text-anchor="middle" x="427" y="-95.32" font-family="Times,serif" font-size="9.00">&#45;4</text>
</g>
<!-- &#45;4&#45;&gt;0 -->
<g id="edge15" class="edge">
<title>&#45;4&#45;&gt;0</title>
<path fill="none" stroke="green" stroke-width="0.37" d="M420.55,-88.11C416.21,-82.52 410.34,-75.02 405,-68.53 396.25,-57.87 386.25,-46.19 378.01,-36.68"/>
<polygon fill="green" stroke="green" stroke-width="0.37" points="380.49,-34.2 371.28,-28.95 375.21,-38.79 380.49,-34.2"/>
</g>
<!-- &#45;4&#45;&gt;1 -->
<g id="edge21" class="edge">
<title>&#45;4&#45;&gt;1</title>
<path fill="none" stroke="red" stroke-width="0.29" d="M422.63,-88.48C418.79,-82.15 412.62,-73.58 405,-68.53 354.31,-34.92 282.12,-23.24 243.61,-19.25"/>
<polygon fill="red" stroke="red" stroke-width="0.29" points="243.52,-15.73 233.24,-18.29 242.87,-22.7 243.52,-15.73"/>
</g>
<!-- &#45;5 -->
<g id="node5" class="node">
<title>&#45;5</title>
<polygon fill="lightgray" stroke="black" points="158,-106.52 132,-106.52 132,-88.52 158,-88.52 158,-106.52"/>
<text text-anchor="middle" x="145" y="-95.32" font-family="Times,serif" font-size="9.00">&#45;5</text>
</g>
<!-- &#45;5&#45;&gt;0 -->
<g id="edge11" class="edge">
<title>&#45;5&#45;&gt;0</title>
<path fill="none" stroke="green" stroke-width="0.18" stroke-dasharray="1,5" d="M149.36,-88.46C153.2,-82.12 159.36,-73.55 167,-68.53 219.82,-33.81 295.22,-22.55 334.66,-18.94"/>
<polygon fill="green" stroke="green" stroke-width="0.18" points="335.1,-22.42 344.78,-18.11 334.53,-15.44 335.1,-22.42"/>
</g>
<!-- &#45;5&#45;&gt;1 -->
<g id="edge7" class="edge">
<title>&#45;5&#45;&gt;1</title>
<path fill="none" stroke="red" stroke-width="1.22" d="M150.94,-88.49C155.25,-82.8 161.3,-75.04 167,-68.53 176.96,-57.16 188.73,-45.04 198.34,-35.43"/>
<polygon fill="red" stroke="red" stroke-width="1.22" points="200.87,-37.86 205.52,-28.33 195.95,-32.88 200.87,-37.86"/>
</g>
<!-- &#45;6 -->
<g id="node6" class="node">
<title>&#45;6</title>
<polygon fill="lightgray" stroke="black" points="654,-106.52 628,-106.52 628,-88.52 654,-88.52 654,-106.52"/>
<text text-anchor="middle" x="641" y="-95.32" font-family="Times,serif" font-size="9.00">&#45;6</text>
</g>
<!-- &#45;7 -->
<g id="node7" class="node">
<title>&#45;7</title>
<polygon fill="lightgray" stroke="black" points="70,-106.52 44,-106.52 44,-88.52 70,-88.52 70,-106.52"/>
<text text-anchor="middle" x="57" y="-95.32" font-family="Times,serif" font-size="9.00">&#45;7</text>
</g>
<!-- &#45;7&#45;&gt;1 -->
<g id="edge18" class="edge">
<title>&#45;7&#45;&gt;1</title>
<path fill="none" stroke="green" stroke-width="0.76" stroke-dasharray="1,5" d="M61.82,-88.14C65.75,-81.97 71.81,-73.77 79,-68.53 113.57,-43.31 161.96,-29.15 191.29,-22.37"/>
<polygon fill="green" stroke="green" stroke-width="0.76" points="192.16,-25.76 201.18,-20.2 190.66,-18.93 192.16,-25.76"/>
</g>
<!-- &#45;8 -->
<g id="node8" class="node">
<title>&#45;8</title>
<polygon fill="lightgray" stroke="black" points="484,-106.52 458,-106.52 458,-88.52 484,-88.52 484,-106.52"/>
<text text-anchor="middle" x="471" y="-95.32" font-family="Times,serif" font-size="9.00">&#45;8</text>
</g>
<!-- &#45;8&#45;&gt;0 -->
<g id="edge2" class="edge">
<title>&#45;8&#45;&gt;0</title>
<path fill="none" stroke="green" stroke-width="0.59" stroke-dasharray="1,5" d="M465.91,-88.49C461.84,-82.5 455.71,-74.37 449,-68.53 429.55,-51.61 403.71,-37.33 385.07,-28.18"/>
<polygon fill="green" stroke="green" stroke-width="0.59" points="386.33,-24.9 375.8,-23.75 383.31,-31.22 386.33,-24.9"/>
</g>
<!-- &#45;9 -->
<g id="node9" class="node">
<title>&#45;9</title>
<polygon fill="lightgray" stroke="black" points="114,-106.52 88,-106.52 88,-88.52 114,-88.52 114,-106.52"/>
<text text-anchor="middle" x="101" y="-95.32" font-family="Times,serif" font-size="9.00">&#45;9</text>
</g>
<!-- &#45;9&#45;&gt;1 -->
<g id="edge8" class="edge">
<title>&#45;9&#45;&gt;1</title>
<path fill="none" stroke="green" stroke-width="0.18" d="M106.05,-88.43C110.09,-82.41 116.2,-74.27 123,-68.53 144.25,-50.56 172.79,-36.07 192.83,-27.14"/>
<polygon fill="green" stroke="green" stroke-width="0.18" points="194.39,-30.28 202.18,-23.1 191.62,-23.86 194.39,-30.28"/>
</g>
<!-- &#45;10 -->
<g id="node10" class="node">
<title>&#45;10</title>
<polygon fill="lightgray" stroke="black" points="704,-106.52 672,-106.52 672,-88.52 704,-88.52 704,-106.52"/>
<text text-anchor="middle" x="688" y="-95.32" font-family="Times,serif" font-size="9.00">&#45;10</text>
</g>
<!-- &#45;11 -->
<g id="node11" class="node">
<title>&#45;11</title>
<polygon fill="lightgray" stroke="black" points="754,-106.52 722,-106.52 722,-88.52 754,-88.52 754,-106.52"/>
<text text-anchor="middle" x="738" y="-95.32" font-family="Times,serif" font-size="9.00">&#45;11</text>
</g>
<!-- &#45;12 -->
<g id="node12" class="node">
<title>&#45;12</title>
<polygon fill="lightgray" stroke="black" points="208,-106.52 176,-106.52 176,-88.52 208,-88.52 208,-106.52"/>
<text text-anchor="middle" x="192" y="-95.32" font-family="Times,serif" font-size="9.00">&#45;12</text>
</g>
<!-- &#45;12&#45;&gt;0 -->
<g id="edge12" class="edge">
<title>&#45;12&#45;&gt;0</title>
<path fill="none" stroke="green" stroke-width="0.29" d="M197.7,-88.14C202.28,-81.96 209.21,-73.76 217,-68.53 254.23,-43.5 305.09,-29.17 335.34,-22.32"/>
<polygon fill="green" stroke="green" stroke-width="0.29" points="336.09,-25.74 345.13,-20.21 334.61,-18.9 336.09,-25.74"/>
</g>
<!-- &#45;12&#45;&gt;1 -->
<g id="edge9" class="edge">
<title>&#45;12&#45;&gt;1</title>
<path fill="none" stroke="red" stroke-width="0.96" stroke-dasharray="1,5" d="M194.58,-88.34C198.02,-77.43 204.25,-57.67 209.28,-41.75"/>
<polygon fill="red" stroke="red" stroke-width="0.96" points="212.69,-42.56 212.36,-31.97 206.01,-40.46 212.69,-42.56"/>
</g>
<!-- &#45;13 -->
<g id="node13" class="node">
<title>&#45;13</title>
<polygon fill="lightgray" stroke="black" points="534,-106.52 502,-106.52 502,-88.52 534,-88.52 534,-106.52"/>
<text text-anchor="middle" x="518" y="-95.32" font-family="Times,serif" font-size="9.00">&#45;13</text>
</g>
<!-- &#45;13&#45;&gt;0 -->
<g id="edge3" class="edge">
<title>&#45;13&#45;&gt;0</title>
<path fill="none" stroke="green" stroke-width="0.66" stroke-dasharray="1,5" d="M512.26,-88.2C507.66,-82.06 500.71,-73.87 493,-68.53 459.68,-45.43 414.5,-30.81 386.58,-23.34"/>
<polygon fill="green" stroke="green" stroke-width="0.66" points="387.34,-19.92 376.78,-20.82 385.6,-26.7 387.34,-19.92"/>
</g>
<!-- &#45;14 -->
<g id="node14" class="node">
<title>&#45;14</title>
<polygon fill="lightgray" stroke="black" points="804,-106.52 772,-106.52 772,-88.52 804,-88.52 804,-106.52"/>
<text text-anchor="middle" x="788" y="-95.32" font-family="Times,serif" font-size="9.00">&#45;14</text>
</g>
<!-- &#45;15 -->
<g id="node15" class="node">
<title>&#45;15</title>
<polygon fill="lightgray" stroke="black" points="854,-106.52 822,-106.52 822,-88.52 854,-88.52 854,-106.52"/>
<text text-anchor="middle" x="838" y="-95.32" font-family="Times,serif" font-size="9.00">&#45;15</text>
</g>
<!-- &#45;16 -->
<g id="node16" class="node">
<title>&#45;16</title>
<polygon fill="lightgray" stroke="black" points="258,-106.52 226,-106.52 226,-88.52 258,-88.52 258,-106.52"/>
<text text-anchor="middle" x="242" y="-95.32" font-family="Times,serif" font-size="9.00">&#45;16</text>
</g>
<!-- &#45;16&#45;&gt;0 -->
<g id="edge4" class="edge">
<title>&#45;16&#45;&gt;0</title>
<path fill="none" stroke="red" stroke-width="0.16" stroke-dasharray="1,5" d="M247.95,-88.48C252.66,-82.49 259.65,-74.36 267,-68.53 288.68,-51.33 316.93,-36.8 336.78,-27.65"/>
<polygon fill="red" stroke="red" stroke-width="0.16" points="338.36,-30.78 346.05,-23.49 335.49,-24.39 338.36,-30.78"/>
</g>
<!-- &#45;16&#45;&gt;1 -->
<g id="edge6" class="edge">
<title>&#45;16&#45;&gt;1</title>
<path fill="none" stroke="green" stroke-width="0.31" d="M239.42,-88.34C235.98,-77.43 229.75,-57.67 224.72,-41.75"/>
<polygon fill="green" stroke="green" stroke-width="0.31" points="227.99,-40.46 221.64,-31.97 221.31,-42.56 227.99,-40.46"/>
</g>
<!-- &#45;17 -->
<g id="node17" class="node">
<title>&#45;17</title>
<polygon fill="lightgray" stroke="black" points="904,-106.52 872,-106.52 872,-88.52 904,-88.52 904,-106.52"/>
<text text-anchor="middle" x="888" y="-95.32" font-family="Times,serif" font-size="9.00">&#45;17</text>
</g>
<!-- &#45;18 -->
<g id="node18" class="node">
<title>&#45;18</title>
<polygon fill="lightgray" stroke="black" points="308,-106.52 276,-106.52 276,-88.52 308,-88.52 308,-106.52"/>
<text text-anchor="middle" x="292" y="-95.32" font-family="Times,serif" font-size="9.00">&#45;18</text>
</g>
<!-- &#45;18&#45;&gt;0 -->
<g id="edge1" class="edge">
<title>&#45;18&#45;&gt;0</title>
<path fill="none" stroke="red" stroke-width="0.51" d="M299.12,-88.34C309.56,-76.35 329.33,-53.64 343.72,-37.11"/>
<polygon fill="red" stroke="red" stroke-width="0.51" points="346.76,-38.96 350.68,-29.12 341.48,-34.36 346.76,-38.96"/>
</g>
<!-- &#45;18&#45;&gt;1 -->
<g id="edge13" class="edge">
<title>&#45;18&#45;&gt;1</title>
<path fill="none" stroke="green" stroke-width="0.6" stroke-dasharray="1,5" d="M284.66,-88.1C279.72,-82.5 273.05,-75 267,-68.53 256.69,-57.48 244.9,-45.37 235.36,-35.7"/>
<polygon fill="green" stroke="green" stroke-width="0.6" points="237.79,-33.17 228.27,-28.53 232.81,-38.1 237.79,-33.17"/>
</g>
<!-- &#45;19 -->
<g id="node19" class="node">
<title>&#45;19</title>
<polygon fill="lightgray" stroke="black" points="954,-106.52 922,-106.52 922,-88.52 954,-88.52 954,-106.52"/>
<text text-anchor="middle" x="938" y="-95.32" font-family="Times,serif" font-size="9.00">&#45;19</text>
</g>
<!-- &#45;20 -->
<g id="node20" class="node">
<title>&#45;20</title>
<polygon fill="lightgray" stroke="black" points="1004,-106.52 972,-106.52 972,-88.52 1004,-88.52 1004,-106.52"/>
<text text-anchor="middle" x="988" y="-95.32" font-family="Times,serif" font-size="9.00">&#45;20</text>
</g>
<!-- 0&#45;&gt;0 -->
<g id="edge10" class="edge">
<title>0&#45;&gt;0</title>
<path fill="none" stroke="red" stroke-width="0.35" stroke-dasharray="1,5" d="M372.23,-28.18C383.21,-34.77 395.26,-30.79 395.26,-16.26 395.26,-6.05 389.3,-1.05 381.95,-1.27"/>
<polygon fill="red" stroke="red" stroke-width="0.35" points="380.71,2.01 372.23,-4.34 382.82,-4.67 380.71,2.01"/>
</g>
<!-- 1393 -->
<g id="node23" class="node">
<title>1393</title>
<ellipse fill="white" stroke="black" cx="581" cy="-97.52" rx="28.98" ry="28.98"/>
<text text-anchor="middle" x="581" y="-95.32" font-family="Times,serif" font-size="9.00">1393</text>
</g>
<!-- 1393&#45;&gt;0 -->
<g id="edge20" class="edge">
<title>1393&#45;&gt;0</title>
<path fill="none" stroke="green" stroke-width="0.31" stroke-dasharray="1,5" d="M558.95,-78.23C553.92,-74.65 548.45,-71.19 543,-68.53 490.75,-42.98 423.65,-28.24 387.28,-21.59"/>
<polygon fill="green" stroke="green" stroke-width="0.31" points="387.49,-18.07 377.03,-19.78 386.27,-24.96 387.49,-18.07"/>
</g>
</g>
</svg>
