<?xml version="1.0" encoding="UTF-8" standalone="no"?>
<!DOCTYPE svg PUBLIC "-//W3C//DTD SVG 1.1//EN"
 "http://www.w3.org/Graphics/SVG/1.1/DTD/svg11.dtd">
<!-- Generated by graphviz version 2.43.0 (0)
 -->
<!-- Title: %3 Pages: 1 -->
<svg width="886pt" height="180pt"
 viewBox="0.00 0.00 886.00 180.02" xmlns="http://www.w3.org/2000/svg" xmlns:xlink="http://www.w3.org/1999/xlink">
<g id="graph0" class="graph" transform="scale(1 1) rotate(0) translate(4 176.02)">
<title>%3</title>
<polygon fill="white" stroke="transparent" points="-4,4 -4,-176.02 882,-176.02 882,4 -4,4"/>
<!-- &#45;1 -->
<g id="node1" class="node">
<title>&#45;1</title>
<polygon fill="lightgray" stroke="black" points="176,-172.02 150,-172.02 150,-154.02 176,-154.02 176,-172.02"/>
<text text-anchor="middle" x="163" y="-160.82" font-family="Times,serif" font-size="9.00">&#45;1</text>
</g>
<!-- 1 -->
<g id="node22" class="node">
<title>1</title>
<ellipse fill="lightblue" stroke="black" cx="207" cy="-101.76" rx="16.03" ry="16.03"/>
<text text-anchor="middle" x="207" y="-99.56" font-family="Times,serif" font-size="9.00">1</text>
</g>
<!-- &#45;1&#45;&gt;1 -->
<g id="edge1" class="edge">
<title>&#45;1&#45;&gt;1</title>
<path fill="none" stroke="green" stroke-width="0.16" d="M169.12,-153.78C174.87,-146.03 183.73,-134.1 191.44,-123.72"/>
<polygon fill="green" stroke="green" stroke-width="0.16" points="194.4,-125.61 197.55,-115.49 188.78,-121.44 194.4,-125.61"/>
</g>
<!-- &#45;2 -->
<g id="node2" class="node">
<title>&#45;2</title>
<polygon fill="lightgray" stroke="black" points="740,-172.02 714,-172.02 714,-154.02 740,-154.02 740,-172.02"/>
<text text-anchor="middle" x="727" y="-160.82" font-family="Times,serif" font-size="9.00">&#45;2</text>
</g>
<!-- &#45;3 -->
<g id="node3" class="node">
<title>&#45;3</title>
<polygon fill="lightgray" stroke="black" points="220,-172.02 194,-172.02 194,-154.02 220,-154.02 220,-172.02"/>
<text text-anchor="middle" x="207" y="-160.82" font-family="Times,serif" font-size="9.00">&#45;3</text>
</g>
<!-- &#45;3&#45;&gt;1 -->
<g id="edge15" class="edge">
<title>&#45;3&#45;&gt;1</title>
<path fill="none" stroke="red" stroke-width="0.31" d="M207,-153.78C207,-147.2 207,-137.6 207,-128.5"/>
<polygon fill="red" stroke="red" stroke-width="0.31" points="210.5,-128.25 207,-118.25 203.5,-128.25 210.5,-128.25"/>
</g>
<!-- &#45;4 -->
<g id="node4" class="node">
<title>&#45;4</title>
<polygon fill="lightgray" stroke="black" points="784,-172.02 758,-172.02 758,-154.02 784,-154.02 784,-172.02"/>
<text text-anchor="middle" x="771" y="-160.82" font-family="Times,serif" font-size="9.00">&#45;4</text>
</g>
<!-- &#45;5 -->
<g id="node5" class="node">
<title>&#45;5</title>
<polygon fill="lightgray" stroke="black" points="596,-172.02 570,-172.02 570,-154.02 596,-154.02 596,-172.02"/>
<text text-anchor="middle" x="583" y="-160.82" font-family="Times,serif" font-size="9.00">&#45;5</text>
</g>
<!-- 0 -->
<g id="node21" class="node">
<title>0</title>
<ellipse fill="lightblue" stroke="black" cx="486" cy="-101.76" rx="16.03" ry="16.03"/>
<text text-anchor="middle" x="486" y="-99.56" font-family="Times,serif" font-size="9.00">0</text>
</g>
<!-- &#45;5&#45;&gt;0 -->
<g id="edge11" class="edge">
<title>&#45;5&#45;&gt;0</title>
<path fill="none" stroke="red" stroke-width="0.44" d="M569.92,-154.03C554.1,-144.37 527.22,-127.95 508.15,-116.29"/>
<polygon fill="red" stroke="red" stroke-width="0.44" points="509.86,-113.23 499.5,-111.01 506.21,-119.21 509.86,-113.23"/>
</g>
<!-- &#45;6 -->
<g id="node6" class="node">
<title>&#45;6</title>
<polygon fill="lightgray" stroke="black" points="308,-172.02 282,-172.02 282,-154.02 308,-154.02 308,-172.02"/>
<text text-anchor="middle" x="295" y="-160.82" font-family="Times,serif" font-size="9.00">&#45;6</text>
</g>
<!-- &#45;6&#45;&gt;0 -->
<g id="edge7" class="edge">
<title>&#45;6&#45;&gt;0</title>
<path fill="none" stroke="red" stroke-width="0.71" d="M308.46,-157C311.27,-155.99 314.22,-154.95 317,-154.02 367.66,-137.14 427.6,-119.51 460.76,-109.95"/>
<polygon fill="red" stroke="red" stroke-width="0.71" points="461.89,-113.27 470.53,-107.15 459.95,-106.54 461.89,-113.27"/>
</g>
<!-- &#45;6&#45;&gt;1 -->
<g id="edge12" class="edge">
<title>&#45;6&#45;&gt;1</title>
<path fill="none" stroke="green" stroke-width="0.49" d="M282.76,-153.78C268.9,-144.45 246.02,-129.04 229.02,-117.59"/>
<polygon fill="green" stroke="green" stroke-width="0.49" points="230.53,-114.39 220.28,-111.71 226.62,-120.19 230.53,-114.39"/>
</g>
<!-- &#45;7 -->
<g id="node7" class="node">
<title>&#45;7</title>
<polygon fill="lightgray" stroke="black" points="264,-172.02 238,-172.02 238,-154.02 264,-154.02 264,-172.02"/>
<text text-anchor="middle" x="251" y="-160.82" font-family="Times,serif" font-size="9.00">&#45;7</text>
</g>
<!-- &#45;7&#45;&gt;1 -->
<g id="edge6" class="edge">
<title>&#45;7&#45;&gt;1</title>
<path fill="none" stroke="red" stroke-width="0.15" d="M244.88,-153.78C239.13,-146.03 230.27,-134.1 222.56,-123.72"/>
<polygon fill="red" stroke="red" stroke-width="0.15" points="225.22,-121.44 216.45,-115.49 219.6,-125.61 225.22,-121.44"/>
</g>
<!-- &#45;8 -->
<g id="node8" class="node">
<title>&#45;8</title>
<polygon fill="lightgray" stroke="black" points="352,-172.02 326,-172.02 326,-154.02 352,-154.02 352,-172.02"/>
<text text-anchor="middle" x="339" y="-160.82" font-family="Times,serif" font-size="9.00">&#45;8</text>
</g>
<!-- &#45;8&#45;&gt;0 -->
<g id="edge10" class="edge">
<title>&#45;8&#45;&gt;0</title>
<path fill="none" stroke="green" stroke-width="0.41" d="M352.05,-156.77C376.65,-146.85 430.24,-125.24 461.67,-112.57"/>
<polygon fill="green" stroke="green" stroke-width="0.41" points="463.07,-115.78 471.03,-108.8 460.45,-109.29 463.07,-115.78"/>
</g>
<!-- &#45;8&#45;&gt;1 -->
<g id="edge18" class="edge">
<title>&#45;8&#45;&gt;1</title>
<path fill="none" stroke="green" stroke-width="0.19" d="M325.86,-156.13C303.79,-146.22 258.96,-126.09 231.11,-113.58"/>
<polygon fill="green" stroke="green" stroke-width="0.19" points="232.24,-110.26 221.69,-109.35 229.38,-116.64 232.24,-110.26"/>
</g>
<!-- &#45;9 -->
<g id="node9" class="node">
<title>&#45;9</title>
<polygon fill="lightgray" stroke="black" points="828,-172.02 802,-172.02 802,-154.02 828,-154.02 828,-172.02"/>
<text text-anchor="middle" x="815" y="-160.82" font-family="Times,serif" font-size="9.00">&#45;9</text>
</g>
<!-- &#45;10 -->
<g id="node10" class="node">
<title>&#45;10</title>
<polygon fill="lightgray" stroke="black" points="32,-172.02 0,-172.02 0,-154.02 32,-154.02 32,-172.02"/>
<text text-anchor="middle" x="16" y="-160.82" font-family="Times,serif" font-size="9.00">&#45;10</text>
</g>
<!-- &#45;10&#45;&gt;1 -->
<g id="edge17" class="edge">
<title>&#45;10&#45;&gt;1</title>
<path fill="none" stroke="red" stroke-width="0.31" stroke-dasharray="1,5" d="M32.13,-156.84C35.08,-155.9 38.13,-154.93 41,-154.02 90.85,-138.35 149.26,-120.41 181.81,-110.45"/>
<polygon fill="red" stroke="red" stroke-width="0.31" points="182.88,-113.79 191.42,-107.51 180.83,-107.09 182.88,-113.79"/>
</g>
<!-- &#45;11 -->
<g id="node11" class="node">
<title>&#45;11</title>
<polygon fill="lightgray" stroke="black" points="82,-172.02 50,-172.02 50,-154.02 82,-154.02 82,-172.02"/>
<text text-anchor="middle" x="66" y="-160.82" font-family="Times,serif" font-size="9.00">&#45;11</text>
</g>
<!-- &#45;11&#45;&gt;1 -->
<g id="edge3" class="edge">
<title>&#45;11&#45;&gt;1</title>
<path fill="none" stroke="red" stroke-width="0.64" d="M82.17,-155.23C106.89,-144.84 154.22,-124.95 182.96,-112.86"/>
<polygon fill="red" stroke="red" stroke-width="0.64" points="184.43,-116.05 192.29,-108.94 181.71,-109.59 184.43,-116.05"/>
</g>
<!-- &#45;12 -->
<g id="node12" class="node">
<title>&#45;12</title>
<polygon fill="lightgray" stroke="black" points="646,-172.02 614,-172.02 614,-154.02 646,-154.02 646,-172.02"/>
<text text-anchor="middle" x="630" y="-160.82" font-family="Times,serif" font-size="9.00">&#45;12</text>
</g>
<!-- &#45;12&#45;&gt;0 -->
<g id="edge16" class="edge">
<title>&#45;12&#45;&gt;0</title>
<path fill="none" stroke="red" stroke-width="0.26" d="M613.76,-155.34C588.5,-144.94 539.63,-124.83 510.2,-112.72"/>
<polygon fill="red" stroke="red" stroke-width="0.26" points="511.25,-109.37 500.67,-108.8 508.58,-115.84 511.25,-109.37"/>
</g>
<!-- &#45;13 -->
<g id="node13" class="node">
<title>&#45;13</title>
<polygon fill="lightgray" stroke="black" points="696,-172.02 664,-172.02 664,-154.02 696,-154.02 696,-172.02"/>
<text text-anchor="middle" x="680" y="-160.82" font-family="Times,serif" font-size="9.00">&#45;13</text>
</g>
<!-- &#45;13&#45;&gt;0 -->
<g id="edge4" class="edge">
<title>&#45;13&#45;&gt;0</title>
<path fill="none" stroke="green" stroke-width="0.33" stroke-dasharray="1,5" d="M663.89,-156.79C660.93,-155.85 657.88,-154.9 655,-154.02 599.26,-137.15 584.47,-135.77 529,-118.02 523.01,-116.11 516.59,-113.91 510.6,-111.79"/>
<polygon fill="green" stroke="green" stroke-width="0.33" points="511.64,-108.45 501.05,-108.36 509.27,-115.04 511.64,-108.45"/>
</g>
<!-- &#45;14 -->
<g id="node14" class="node">
<title>&#45;14</title>
<polygon fill="lightgray" stroke="black" points="452,-172.02 420,-172.02 420,-154.02 452,-154.02 452,-172.02"/>
<text text-anchor="middle" x="436" y="-160.82" font-family="Times,serif" font-size="9.00">&#45;14</text>
</g>
<!-- &#45;14&#45;&gt;0 -->
<g id="edge8" class="edge">
<title>&#45;14&#45;&gt;0</title>
<path fill="none" stroke="red" stroke-width="0.38" d="M442.95,-153.78C449.79,-145.67 460.5,-132.99 469.52,-122.29"/>
<polygon fill="red" stroke="red" stroke-width="0.38" points="472.23,-124.51 476,-114.61 466.88,-120 472.23,-124.51"/>
</g>
<!-- &#45;15 -->
<g id="node15" class="node">
<title>&#45;15</title>
<polygon fill="lightgray" stroke="black" points="402,-172.02 370,-172.02 370,-154.02 402,-154.02 402,-172.02"/>
<text text-anchor="middle" x="386" y="-160.82" font-family="Times,serif" font-size="9.00">&#45;15</text>
</g>
<!-- &#45;15&#45;&gt;0 -->
<g id="edge14" class="edge">
<title>&#45;15&#45;&gt;0</title>
<path fill="none" stroke="green" stroke-width="0.43" d="M399.9,-153.78C416.32,-144.05 443.86,-127.73 463.37,-116.17"/>
<polygon fill="green" stroke="green" stroke-width="0.43" points="465.4,-119.04 472.21,-110.93 461.83,-113.02 465.4,-119.04"/>
</g>
<!-- &#45;15&#45;&gt;1 -->
<g id="edge2" class="edge">
<title>&#45;15&#45;&gt;1</title>
<path fill="none" stroke="green" stroke-width="0.74" d="M369.8,-156.66C338.41,-146.27 269.14,-123.33 231.87,-111"/>
<polygon fill="green" stroke="green" stroke-width="0.74" points="232.87,-107.64 222.27,-107.82 230.66,-114.28 232.87,-107.64"/>
</g>
<!-- &#45;16 -->
<g id="node16" class="node">
<title>&#45;16</title>
<polygon fill="lightgray" stroke="black" points="570,-110.76 538,-110.76 538,-92.76 570,-92.76 570,-110.76"/>
<text text-anchor="middle" x="554" y="-99.56" font-family="Times,serif" font-size="9.00">&#45;16</text>
</g>
<!-- 589 -->
<g id="node23" class="node">
<title>589</title>
<ellipse fill="white" stroke="black" cx="486" cy="-24.75" rx="25" ry="25"/>
<text text-anchor="middle" x="486" y="-22.55" font-family="Times,serif" font-size="9.00">589</text>
</g>
<!-- &#45;16&#45;&gt;589 -->
<g id="edge22" class="edge">
<title>&#45;16&#45;&gt;589</title>
<path fill="none" stroke="green" stroke-width="0.24" d="M546.72,-92.73C537.82,-82.91 522.31,-65.8 509.19,-51.34"/>
<polygon fill="green" stroke="green" stroke-width="0.24" points="511.52,-48.69 502.21,-43.63 506.34,-53.39 511.52,-48.69"/>
</g>
<!-- &#45;17 -->
<g id="node17" class="node">
<title>&#45;17</title>
<polygon fill="lightgray" stroke="black" points="878,-172.02 846,-172.02 846,-154.02 878,-154.02 878,-172.02"/>
<text text-anchor="middle" x="862" y="-160.82" font-family="Times,serif" font-size="9.00">&#45;17</text>
</g>
<!-- &#45;18 -->
<g id="node18" class="node">
<title>&#45;18</title>
<polygon fill="lightgray" stroke="black" points="132,-172.02 100,-172.02 100,-154.02 132,-154.02 132,-172.02"/>
<text text-anchor="middle" x="116" y="-160.82" font-family="Times,serif" font-size="9.00">&#45;18</text>
</g>
<!-- &#45;18&#45;&gt;1 -->
<g id="edge5" class="edge">
<title>&#45;18&#45;&gt;1</title>
<path fill="none" stroke="green" stroke-width="0.24" d="M128.65,-153.78C143.21,-144.3 167.37,-128.57 185.02,-117.08"/>
<polygon fill="green" stroke="green" stroke-width="0.24" points="187.1,-119.9 193.57,-111.51 183.28,-114.03 187.1,-119.9"/>
</g>
<!-- &#45;19 -->
<g id="node19" class="node">
<title>&#45;19</title>
<polygon fill="lightgray" stroke="black" points="502,-172.02 470,-172.02 470,-154.02 502,-154.02 502,-172.02"/>
<text text-anchor="middle" x="486" y="-160.82" font-family="Times,serif" font-size="9.00">&#45;19</text>
</g>
<!-- &#45;19&#45;&gt;0 -->
<g id="edge19" class="edge">
<title>&#45;19&#45;&gt;0</title>
<path fill="none" stroke="red" stroke-width="0.51" d="M486,-153.78C486,-147.2 486,-137.6 486,-128.5"/>
<polygon fill="red" stroke="red" stroke-width="0.51" points="489.5,-128.25 486,-118.25 482.5,-128.25 489.5,-128.25"/>
</g>
<!-- &#45;20 -->
<g id="node20" class="node">
<title>&#45;20</title>
<polygon fill="lightgray" stroke="black" points="552,-172.02 520,-172.02 520,-154.02 552,-154.02 552,-172.02"/>
<text text-anchor="middle" x="536" y="-160.82" font-family="Times,serif" font-size="9.00">&#45;20</text>
</g>
<!-- &#45;20&#45;&gt;0 -->
<g id="edge13" class="edge">
<title>&#45;20&#45;&gt;0</title>
<path fill="none" stroke="red" stroke-width="0.13" stroke-dasharray="1,5" d="M529.05,-153.78C522.21,-145.67 511.5,-132.99 502.48,-122.29"/>
<polygon fill="red" stroke="red" stroke-width="0.13" points="505.12,-120 496,-114.61 499.77,-124.51 505.12,-120"/>
</g>
<!-- 0&#45;&gt;0 -->
<g id="edge9" class="edge">
<title>0&#45;&gt;0</title>
<path fill="none" stroke="green" stroke-width="0.24" stroke-dasharray="1,5" d="M499.36,-111.56C509.71,-115.22 520.26,-111.96 520.26,-101.76 520.26,-95.07 515.72,-91.36 509.67,-90.64"/>
<polygon fill="green" stroke="green" stroke-width="0.24" points="508.84,-87.22 499.36,-91.96 509.73,-94.16 508.84,-87.22"/>
</g>
<!-- 0&#45;&gt;589 -->
<g id="edge20" class="edge">
<title>0&#45;&gt;589</title>
<path fill="none" stroke="green" stroke-width="0.39" d="M480.54,-86.3C479.53,-78.48 479.11,-68.49 479.29,-58.88"/>
<polygon fill="green" stroke="green" stroke-width="0.39" points="482.79,-58.87 479.72,-48.73 475.8,-58.57 482.79,-58.87"/>
</g>
<!-- 589&#45;&gt;0 -->
<g id="edge21" class="edge">
<title>589&#45;&gt;0</title>
<path fill="none" stroke="green" stroke-width="0.23" d="M492.28,-48.73C492.87,-57.43 492.91,-67.37 492.38,-76.21"/>
<polygon fill="green" stroke="green" stroke-width="0.23" points="488.88,-76.02 491.46,-86.3 495.85,-76.66 488.88,-76.02"/>
</g>
</g>
</svg>
