<?xml version="1.0" encoding="UTF-8" standalone="no"?>
<!DOCTYPE svg PUBLIC "-//W3C//DTD SVG 1.1//EN"
 "http://www.w3.org/Graphics/SVG/1.1/DTD/svg11.dtd">
<!-- Generated by graphviz version 2.43.0 (0)
 -->
<!-- Title: %3 Pages: 1 -->
<svg width="536pt" height="95pt"
 viewBox="0.00 0.00 536.00 94.53" xmlns="http://www.w3.org/2000/svg" xmlns:xlink="http://www.w3.org/1999/xlink">
<g id="graph0" class="graph" transform="scale(1 1) rotate(0) translate(4 90.53)">
<title>%3</title>
<polygon fill="white" stroke="transparent" points="-4,4 -4,-90.53 532,-90.53 532,4 -4,4"/>
<!-- &#45;1 -->
<g id="node1" class="node">
<title>&#45;1</title>
<polygon fill="lightgray" stroke="black" points="258,-86.53 232,-86.53 232,-68.53 258,-68.53 258,-86.53"/>
<text text-anchor="middle" x="245" y="-75.33" font-family="Times,serif" font-size="9.00">&#45;1</text>
</g>
<!-- 0 -->
<g id="node13" class="node">
<title>0</title>
<ellipse fill="lightblue" stroke="black" cx="134" cy="-16.26" rx="16.03" ry="16.03"/>
<text text-anchor="middle" x="134" y="-14.06" font-family="Times,serif" font-size="9.00">0</text>
</g>
<!-- &#45;1&#45;&gt;0 -->
<g id="edge8" class="edge">
<title>&#45;1&#45;&gt;0</title>
<path fill="none" stroke="green" stroke-width="1.65" stroke-dasharray="1,5" d="M231.83,-69.5C213.44,-59.68 179.78,-41.71 157.15,-29.62"/>
<polygon fill="green" stroke="green" stroke-width="1.65" points="158.67,-26.47 148.2,-24.85 155.37,-32.64 158.67,-26.47"/>
</g>
<!-- 1 -->
<g id="node14" class="node">
<title>1</title>
<ellipse fill="lightblue" stroke="black" cx="245" cy="-16.26" rx="16.03" ry="16.03"/>
<text text-anchor="middle" x="245" y="-14.06" font-family="Times,serif" font-size="9.00">1</text>
</g>
<!-- &#45;1&#45;&gt;1 -->
<g id="edge2" class="edge">
<title>&#45;1&#45;&gt;1</title>
<path fill="none" stroke="green" stroke-width="0.3" d="M245,-68.29C245,-61.7 245,-52.1 245,-43"/>
<polygon fill="green" stroke="green" stroke-width="0.3" points="248.5,-42.76 245,-32.76 241.5,-42.76 248.5,-42.76"/>
</g>
<!-- &#45;2 -->
<g id="node2" class="node">
<title>&#45;2</title>
<polygon fill="lightgray" stroke="black" points="170,-86.53 144,-86.53 144,-68.53 170,-68.53 170,-86.53"/>
<text text-anchor="middle" x="157" y="-75.33" font-family="Times,serif" font-size="9.00">&#45;2</text>
</g>
<!-- &#45;2&#45;&gt;0 -->
<g id="edge1" class="edge">
<title>&#45;2&#45;&gt;0</title>
<path fill="none" stroke="green" stroke-width="0.81" d="M153.8,-68.29C151.09,-61.3 147.06,-50.91 143.34,-41.33"/>
<polygon fill="green" stroke="green" stroke-width="0.81" points="146.53,-39.87 139.65,-31.82 140,-42.41 146.53,-39.87"/>
</g>
<!-- &#45;3 -->
<g id="node3" class="node">
<title>&#45;3</title>
<polygon fill="lightgray" stroke="black" points="346,-86.53 320,-86.53 320,-68.53 346,-68.53 346,-86.53"/>
<text text-anchor="middle" x="333" y="-75.33" font-family="Times,serif" font-size="9.00">&#45;3</text>
</g>
<!-- &#45;4 -->
<g id="node4" class="node">
<title>&#45;4</title>
<polygon fill="lightgray" stroke="black" points="390,-86.53 364,-86.53 364,-68.53 390,-68.53 390,-86.53"/>
<text text-anchor="middle" x="377" y="-75.33" font-family="Times,serif" font-size="9.00">&#45;4</text>
</g>
<!-- &#45;5 -->
<g id="node5" class="node">
<title>&#45;5</title>
<polygon fill="lightgray" stroke="black" points="434,-86.53 408,-86.53 408,-68.53 434,-68.53 434,-86.53"/>
<text text-anchor="middle" x="421" y="-75.33" font-family="Times,serif" font-size="9.00">&#45;5</text>
</g>
<!-- &#45;6 -->
<g id="node6" class="node">
<title>&#45;6</title>
<polygon fill="lightgray" stroke="black" points="26,-86.53 0,-86.53 0,-68.53 26,-68.53 26,-86.53"/>
<text text-anchor="middle" x="13" y="-75.33" font-family="Times,serif" font-size="9.00">&#45;6</text>
</g>
<!-- &#45;6&#45;&gt;0 -->
<g id="edge3" class="edge">
<title>&#45;6&#45;&gt;0</title>
<path fill="none" stroke="red" stroke-width="0.25" d="M26.41,-69.96C46.73,-60.01 85.58,-40.98 110.62,-28.72"/>
<polygon fill="red" stroke="red" stroke-width="0.25" points="112.34,-31.77 119.78,-24.23 109.26,-25.48 112.34,-31.77"/>
</g>
<!-- &#45;7 -->
<g id="node7" class="node">
<title>&#45;7</title>
<polygon fill="lightgray" stroke="black" points="478,-86.53 452,-86.53 452,-68.53 478,-68.53 478,-86.53"/>
<text text-anchor="middle" x="465" y="-75.33" font-family="Times,serif" font-size="9.00">&#45;7</text>
</g>
<!-- &#45;8 -->
<g id="node8" class="node">
<title>&#45;8</title>
<polygon fill="lightgray" stroke="black" points="214,-86.53 188,-86.53 188,-68.53 214,-68.53 214,-86.53"/>
<text text-anchor="middle" x="201" y="-75.33" font-family="Times,serif" font-size="9.00">&#45;8</text>
</g>
<!-- &#45;8&#45;&gt;0 -->
<g id="edge4" class="edge">
<title>&#45;8&#45;&gt;0</title>
<path fill="none" stroke="green" stroke-width="0.66" stroke-dasharray="1,5" d="M191.68,-68.29C181.89,-59.62 166.2,-45.74 153.65,-34.64"/>
<polygon fill="green" stroke="green" stroke-width="0.66" points="155.76,-31.84 145.95,-27.83 151.12,-37.08 155.76,-31.84"/>
</g>
<!-- &#45;8&#45;&gt;1 -->
<g id="edge6" class="edge">
<title>&#45;8&#45;&gt;1</title>
<path fill="none" stroke="red" stroke-width="0.25" stroke-dasharray="1,5" d="M207.12,-68.29C212.87,-60.53 221.73,-48.6 229.44,-38.22"/>
<polygon fill="red" stroke="red" stroke-width="0.25" points="232.4,-40.11 235.55,-30 226.78,-35.94 232.4,-40.11"/>
</g>
<!-- &#45;9 -->
<g id="node9" class="node">
<title>&#45;9</title>
<polygon fill="lightgray" stroke="black" points="302,-86.53 276,-86.53 276,-68.53 302,-68.53 302,-86.53"/>
<text text-anchor="middle" x="289" y="-75.33" font-family="Times,serif" font-size="9.00">&#45;9</text>
</g>
<!-- &#45;9&#45;&gt;1 -->
<g id="edge9" class="edge">
<title>&#45;9&#45;&gt;1</title>
<path fill="none" stroke="green" stroke-width="0.29" stroke-dasharray="1,5" d="M282.88,-68.29C277.13,-60.53 268.27,-48.6 260.56,-38.22"/>
<polygon fill="green" stroke="green" stroke-width="0.29" points="263.22,-35.94 254.45,-30 257.6,-40.11 263.22,-35.94"/>
</g>
<!-- &#45;10 -->
<g id="node10" class="node">
<title>&#45;10</title>
<polygon fill="lightgray" stroke="black" points="76,-86.53 44,-86.53 44,-68.53 76,-68.53 76,-86.53"/>
<text text-anchor="middle" x="60" y="-75.33" font-family="Times,serif" font-size="9.00">&#45;10</text>
</g>
<!-- &#45;10&#45;&gt;0 -->
<g id="edge5" class="edge">
<title>&#45;10&#45;&gt;0</title>
<path fill="none" stroke="red" stroke-width="0.29" stroke-dasharray="1,5" d="M70.29,-68.29C81.41,-59.38 99.41,-44.97 113.45,-33.72"/>
<polygon fill="red" stroke="red" stroke-width="0.29" points="115.96,-36.2 121.58,-27.21 111.58,-30.73 115.96,-36.2"/>
</g>
<!-- &#45;11 -->
<g id="node11" class="node">
<title>&#45;11</title>
<polygon fill="lightgray" stroke="black" points="126,-86.53 94,-86.53 94,-68.53 126,-68.53 126,-86.53"/>
<text text-anchor="middle" x="110" y="-75.33" font-family="Times,serif" font-size="9.00">&#45;11</text>
</g>
<!-- &#45;11&#45;&gt;0 -->
<g id="edge7" class="edge">
<title>&#45;11&#45;&gt;0</title>
<path fill="none" stroke="red" stroke-width="0.3" d="M113.34,-68.29C116.17,-61.3 120.37,-50.91 124.25,-41.33"/>
<polygon fill="red" stroke="red" stroke-width="0.3" points="127.6,-42.4 128.11,-31.82 121.11,-39.77 127.6,-42.4"/>
</g>
<!-- &#45;12 -->
<g id="node12" class="node">
<title>&#45;12</title>
<polygon fill="lightgray" stroke="black" points="528,-86.53 496,-86.53 496,-68.53 528,-68.53 528,-86.53"/>
<text text-anchor="middle" x="512" y="-75.33" font-family="Times,serif" font-size="9.00">&#45;12</text>
</g>
</g>
</svg>
