<?xml version="1.0" encoding="UTF-8" standalone="no"?>
<!DOCTYPE svg PUBLIC "-//W3C//DTD SVG 1.1//EN"
 "http://www.w3.org/Graphics/SVG/1.1/DTD/svg11.dtd">
<!-- Generated by graphviz version 2.43.0 (0)
 -->
<!-- Title: %3 Pages: 1 -->
<svg width="444pt" height="189pt"
 viewBox="0.00 0.00 443.68 188.51" xmlns="http://www.w3.org/2000/svg" xmlns:xlink="http://www.w3.org/1999/xlink">
<g id="graph0" class="graph" transform="scale(1 1) rotate(0) translate(4 184.51)">
<title>%3</title>
<polygon fill="white" stroke="transparent" points="-4,4 -4,-184.51 439.68,-184.51 439.68,4 -4,4"/>
<!-- &#45;1 -->
<g id="node1" class="node">
<title>&#45;1</title>
<polygon fill="lightgray" stroke="black" points="26,-106.52 0,-106.52 0,-88.52 26,-88.52 26,-106.52"/>
<text text-anchor="middle" x="13" y="-95.32" font-family="Times,serif" font-size="9.00">&#45;1</text>
</g>
<!-- 1 -->
<g id="node14" class="node">
<title>1</title>
<ellipse fill="lightblue" stroke="black" cx="180" cy="-16.26" rx="16.03" ry="16.03"/>
<text text-anchor="middle" x="180" y="-14.06" font-family="Times,serif" font-size="9.00">1</text>
</g>
<!-- &#45;1&#45;&gt;1 -->
<g id="edge6" class="edge">
<title>&#45;1&#45;&gt;1</title>
<path fill="none" stroke="green" stroke-width="0.23" d="M17.63,-88.37C21.54,-82.15 27.67,-73.79 35,-68.53 71.68,-42.22 123.15,-28.3 153.88,-21.88"/>
<polygon fill="green" stroke="green" stroke-width="0.23" points="154.7,-25.29 163.83,-19.92 153.34,-18.42 154.7,-25.29"/>
</g>
<!-- &#45;2 -->
<g id="node2" class="node">
<title>&#45;2</title>
<polygon fill="lightgray" stroke="black" points="372,-106.52 346,-106.52 346,-88.52 372,-88.52 372,-106.52"/>
<text text-anchor="middle" x="359" y="-95.32" font-family="Times,serif" font-size="9.00">&#45;2</text>
</g>
<!-- 0 -->
<g id="node13" class="node">
<title>0</title>
<ellipse fill="lightblue" stroke="black" cx="359" cy="-16.26" rx="16.03" ry="16.03"/>
<text text-anchor="middle" x="359" y="-14.06" font-family="Times,serif" font-size="9.00">0</text>
</g>
<!-- &#45;2&#45;&gt;0 -->
<g id="edge5" class="edge">
<title>&#45;2&#45;&gt;0</title>
<path fill="none" stroke="red" stroke-width="0.3" d="M359,-88.34C359,-77.67 359,-58.51 359,-42.77"/>
<polygon fill="red" stroke="red" stroke-width="0.3" points="362.5,-42.57 359,-32.57 355.5,-42.57 362.5,-42.57"/>
</g>
<!-- &#45;3 -->
<g id="node3" class="node">
<title>&#45;3</title>
<polygon fill="lightgray" stroke="black" points="278,-106.52 252,-106.52 252,-88.52 278,-88.52 278,-106.52"/>
<text text-anchor="middle" x="265" y="-95.32" font-family="Times,serif" font-size="9.00">&#45;3</text>
</g>
<!-- &#45;3&#45;&gt;0 -->
<g id="edge8" class="edge">
<title>&#45;3&#45;&gt;0</title>
<path fill="none" stroke="green" stroke-width="0.46" stroke-dasharray="1,5" d="M270.42,-88.41C274.57,-82.53 280.65,-74.58 287,-68.53 302.26,-53.97 321.9,-40.26 336.8,-30.69"/>
<polygon fill="green" stroke="green" stroke-width="0.46" points="338.79,-33.58 345.4,-25.3 335.07,-27.65 338.79,-33.58"/>
</g>
<!-- &#45;3&#45;&gt;1 -->
<g id="edge1" class="edge">
<title>&#45;3&#45;&gt;1</title>
<path fill="none" stroke="red" stroke-width="1.67" d="M257.6,-88.51C252.26,-82.82 244.83,-75.06 238,-68.53 225.66,-56.71 211.27,-43.99 199.91,-34.17"/>
<polygon fill="red" stroke="red" stroke-width="1.67" points="202.12,-31.45 192.25,-27.59 197.56,-36.76 202.12,-31.45"/>
</g>
<!-- &#45;4 -->
<g id="node4" class="node">
<title>&#45;4</title>
<polygon fill="lightgray" stroke="black" points="416,-106.52 390,-106.52 390,-88.52 416,-88.52 416,-106.52"/>
<text text-anchor="middle" x="403" y="-95.32" font-family="Times,serif" font-size="9.00">&#45;4</text>
</g>
<!-- &#45;4&#45;&gt;0 -->
<g id="edge9" class="edge">
<title>&#45;4&#45;&gt;0</title>
<path fill="none" stroke="green" stroke-width="0.6" d="M398.46,-88.34C392.14,-76.96 380.47,-55.95 371.46,-39.7"/>
<polygon fill="green" stroke="green" stroke-width="0.6" points="374.43,-37.85 366.52,-30.8 368.31,-41.25 374.43,-37.85"/>
</g>
<!-- &#45;5 -->
<g id="node5" class="node">
<title>&#45;5</title>
<polygon fill="lightgray" stroke="black" points="237,-180.51 211,-180.51 211,-162.51 237,-162.51 237,-180.51"/>
<text text-anchor="middle" x="224" y="-169.31" font-family="Times,serif" font-size="9.00">&#45;5</text>
</g>
<!-- &#45;5&#45;&gt;0 -->
<g id="edge10" class="edge">
<title>&#45;5&#45;&gt;0</title>
<path fill="none" stroke="green" stroke-width="0.13" stroke-dasharray="1,5" d="M237.39,-165.28C240.21,-164.28 243.18,-163.3 246,-162.51 324.13,-140.58 373.59,-189.29 425,-126.51 441.33,-106.57 436.33,-91.67 425,-68.53 416.18,-50.51 397.63,-36.99 382.43,-28.38"/>
<polygon fill="green" stroke="green" stroke-width="0.13" points="384,-25.25 373.52,-23.65 380.72,-31.43 384,-25.25"/>
</g>
<!-- &#45;5&#45;&gt;1 -->
<g id="edge7" class="edge">
<title>&#45;5&#45;&gt;1</title>
<path fill="none" stroke="red" stroke-width="0.22" stroke-dasharray="1,5" d="M223.24,-162.39C221.43,-144.88 216.18,-102.39 205,-68.53 201.76,-58.72 197.01,-48.4 192.52,-39.61"/>
<polygon fill="red" stroke="red" stroke-width="0.22" points="195.61,-37.96 187.83,-30.76 189.43,-41.24 195.61,-37.96"/>
</g>
<!-- 6976 -->
<g id="node15" class="node">
<title>6976</title>
<ellipse fill="white" stroke="black" cx="73" cy="-97.52" rx="28.98" ry="28.98"/>
<text text-anchor="middle" x="73" y="-95.32" font-family="Times,serif" font-size="9.00">6976</text>
</g>
<!-- &#45;5&#45;&gt;6976 -->
<g id="edge12" class="edge">
<title>&#45;5&#45;&gt;6976</title>
<path fill="none" stroke="green" stroke-width="0.17" d="M210.97,-166.67C189.41,-160.06 145.31,-145.39 111,-126.51 108.68,-125.23 106.33,-123.83 104.01,-122.35"/>
<polygon fill="green" stroke="green" stroke-width="0.17" points="105.5,-119.13 95.26,-116.41 101.57,-124.92 105.5,-119.13"/>
</g>
<!-- &#45;6 -->
<g id="node6" class="node">
<title>&#45;6</title>
<polygon fill="lightgray" stroke="black" points="281,-180.51 255,-180.51 255,-162.51 281,-162.51 281,-180.51"/>
<text text-anchor="middle" x="268" y="-169.31" font-family="Times,serif" font-size="9.00">&#45;6</text>
</g>
<!-- &#45;7 -->
<g id="node7" class="node">
<title>&#45;7</title>
<polygon fill="lightgray" stroke="black" points="325,-180.51 299,-180.51 299,-162.51 325,-162.51 325,-180.51"/>
<text text-anchor="middle" x="312" y="-169.31" font-family="Times,serif" font-size="9.00">&#45;7</text>
</g>
<!-- &#45;8 -->
<g id="node8" class="node">
<title>&#45;8</title>
<polygon fill="lightgray" stroke="black" points="369,-180.51 343,-180.51 343,-162.51 369,-162.51 369,-180.51"/>
<text text-anchor="middle" x="356" y="-169.31" font-family="Times,serif" font-size="9.00">&#45;8</text>
</g>
<!-- &#45;9 -->
<g id="node9" class="node">
<title>&#45;9</title>
<polygon fill="lightgray" stroke="black" points="146,-106.52 120,-106.52 120,-88.52 146,-88.52 146,-106.52"/>
<text text-anchor="middle" x="133" y="-95.32" font-family="Times,serif" font-size="9.00">&#45;9</text>
</g>
<!-- &#45;9&#45;&gt;1 -->
<g id="edge11" class="edge">
<title>&#45;9&#45;&gt;1</title>
<path fill="none" stroke="green" stroke-width="0.3" d="M137.85,-88.34C144.64,-76.9 157.21,-55.7 166.86,-39.42"/>
<polygon fill="green" stroke="green" stroke-width="0.3" points="170.05,-40.9 172.14,-30.52 164.03,-37.33 170.05,-40.9"/>
</g>
<!-- &#45;10 -->
<g id="node10" class="node">
<title>&#45;10</title>
<polygon fill="lightgray" stroke="black" points="419,-180.51 387,-180.51 387,-162.51 419,-162.51 419,-180.51"/>
<text text-anchor="middle" x="403" y="-169.31" font-family="Times,serif" font-size="9.00">&#45;10</text>
</g>
<!-- &#45;11 -->
<g id="node11" class="node">
<title>&#45;11</title>
<polygon fill="lightgray" stroke="black" points="196,-106.52 164,-106.52 164,-88.52 196,-88.52 196,-106.52"/>
<text text-anchor="middle" x="180" y="-95.32" font-family="Times,serif" font-size="9.00">&#45;11</text>
</g>
<!-- &#45;11&#45;&gt;1 -->
<g id="edge4" class="edge">
<title>&#45;11&#45;&gt;1</title>
<path fill="none" stroke="green" stroke-width="0.23" d="M180,-88.34C180,-77.67 180,-58.51 180,-42.77"/>
<polygon fill="green" stroke="green" stroke-width="0.23" points="183.5,-42.57 180,-32.57 176.5,-42.57 183.5,-42.57"/>
</g>
<!-- &#45;12 -->
<g id="node12" class="node">
<title>&#45;12</title>
<polygon fill="lightgray" stroke="black" points="328,-106.52 296,-106.52 296,-88.52 328,-88.52 328,-106.52"/>
<text text-anchor="middle" x="312" y="-95.32" font-family="Times,serif" font-size="9.00">&#45;12</text>
</g>
<!-- &#45;12&#45;&gt;0 -->
<g id="edge3" class="edge">
<title>&#45;12&#45;&gt;0</title>
<path fill="none" stroke="green" stroke-width="0.63" d="M316.85,-88.34C323.64,-76.9 336.21,-55.7 345.86,-39.42"/>
<polygon fill="green" stroke="green" stroke-width="0.63" points="349.05,-40.9 351.14,-30.52 343.03,-37.33 349.05,-40.9"/>
</g>
<!-- &#45;12&#45;&gt;1 -->
<g id="edge2" class="edge">
<title>&#45;12&#45;&gt;1</title>
<path fill="none" stroke="red" stroke-width="0.4" stroke-dasharray="1,5" d="M306.14,-88.37C301.47,-82.31 294.5,-74.16 287,-68.53 261.44,-49.32 227.53,-34.56 204.8,-25.91"/>
<polygon fill="red" stroke="red" stroke-width="0.4" points="205.81,-22.55 195.22,-22.38 203.39,-29.12 205.81,-22.55"/>
</g>
<!-- 6976&#45;&gt;1 -->
<g id="edge13" class="edge">
<title>6976&#45;&gt;1</title>
<path fill="none" stroke="red" stroke-width="0.34" d="M95.95,-79.52C114.64,-65.68 140.79,-46.31 158.94,-32.86"/>
<polygon fill="red" stroke="red" stroke-width="0.34" points="161.19,-35.55 167.14,-26.79 157.02,-29.93 161.19,-35.55"/>
</g>
</g>
</svg>
