<?xml version="1.0" encoding="UTF-8" standalone="no"?>
<!DOCTYPE svg PUBLIC "-//W3C//DTD SVG 1.1//EN"
 "http://www.w3.org/Graphics/SVG/1.1/DTD/svg11.dtd">
<!-- Generated by graphviz version 2.43.0 (0)
 -->
<!-- Title: %3 Pages: 1 -->
<svg width="936pt" height="95pt"
 viewBox="0.00 0.00 936.00 94.53" xmlns="http://www.w3.org/2000/svg" xmlns:xlink="http://www.w3.org/1999/xlink">
<g id="graph0" class="graph" transform="scale(1 1) rotate(0) translate(4 90.53)">
<title>%3</title>
<polygon fill="white" stroke="transparent" points="-4,4 -4,-90.53 932,-90.53 932,4 -4,4"/>
<!-- &#45;1 -->
<g id="node1" class="node">
<title>&#45;1</title>
<polygon fill="lightgray" stroke="black" points="276,-86.53 250,-86.53 250,-68.53 276,-68.53 276,-86.53"/>
<text text-anchor="middle" x="263" y="-75.33" font-family="Times,serif" font-size="9.00">&#45;1</text>
</g>
<!-- 0 -->
<g id="node21" class="node">
<title>0</title>
<ellipse fill="lightblue" stroke="black" cx="216" cy="-16.26" rx="16.03" ry="16.03"/>
<text text-anchor="middle" x="216" y="-14.06" font-family="Times,serif" font-size="9.00">0</text>
</g>
<!-- &#45;1&#45;&gt;0 -->
<g id="edge6" class="edge">
<title>&#45;1&#45;&gt;0</title>
<path fill="none" stroke="green" stroke-width="0.69" stroke-dasharray="1,5" d="M256.46,-68.29C250.18,-60.36 240.42,-48.05 232.06,-37.51"/>
<polygon fill="green" stroke="green" stroke-width="0.69" points="234.7,-35.21 225.75,-29.55 229.22,-39.56 234.7,-35.21"/>
</g>
<!-- &#45;2 -->
<g id="node2" class="node">
<title>&#45;2</title>
<polygon fill="lightgray" stroke="black" points="702,-86.53 676,-86.53 676,-68.53 702,-68.53 702,-86.53"/>
<text text-anchor="middle" x="689" y="-75.33" font-family="Times,serif" font-size="9.00">&#45;2</text>
</g>
<!-- 1 -->
<g id="node22" class="node">
<title>1</title>
<ellipse fill="lightblue" stroke="black" cx="567" cy="-16.26" rx="16.03" ry="16.03"/>
<text text-anchor="middle" x="567" y="-14.06" font-family="Times,serif" font-size="9.00">1</text>
</g>
<!-- &#45;2&#45;&gt;1 -->
<g id="edge16" class="edge">
<title>&#45;2&#45;&gt;1</title>
<path fill="none" stroke="green" stroke-width="0.3" stroke-dasharray="1,5" d="M675.94,-70.18C655.65,-60.33 616.22,-41.17 590.78,-28.82"/>
<polygon fill="green" stroke="green" stroke-width="0.3" points="591.99,-25.51 581.47,-24.29 588.93,-31.81 591.99,-25.51"/>
</g>
<!-- &#45;3 -->
<g id="node3" class="node">
<title>&#45;3</title>
<polygon fill="lightgray" stroke="black" points="408,-86.53 382,-86.53 382,-68.53 408,-68.53 408,-86.53"/>
<text text-anchor="middle" x="395" y="-75.33" font-family="Times,serif" font-size="9.00">&#45;3</text>
</g>
<!-- &#45;3&#45;&gt;0 -->
<g id="edge11" class="edge">
<title>&#45;3&#45;&gt;0</title>
<path fill="none" stroke="green" stroke-width="0.29" d="M382,-71.72C379.05,-70.65 375.92,-69.53 373,-68.53 326.49,-52.48 271.79,-34.91 240.77,-25.07"/>
<polygon fill="green" stroke="green" stroke-width="0.29" points="241.8,-21.73 231.21,-22.05 239.69,-28.4 241.8,-21.73"/>
</g>
<!-- &#45;3&#45;&gt;1 -->
<g id="edge13" class="edge">
<title>&#45;3&#45;&gt;1</title>
<path fill="none" stroke="green" stroke-width="0.79" d="M408.01,-71.75C410.96,-70.68 414.09,-69.55 417,-68.53 460.88,-53.05 512.22,-35.66 542.04,-25.63"/>
<polygon fill="green" stroke="green" stroke-width="0.79" points="543.27,-28.91 551.63,-22.4 541.04,-22.27 543.27,-28.91"/>
</g>
<!-- &#45;4 -->
<g id="node4" class="node">
<title>&#45;4</title>
<polygon fill="lightgray" stroke="black" points="320,-86.53 294,-86.53 294,-68.53 320,-68.53 320,-86.53"/>
<text text-anchor="middle" x="307" y="-75.33" font-family="Times,serif" font-size="9.00">&#45;4</text>
</g>
<!-- &#45;4&#45;&gt;0 -->
<g id="edge18" class="edge">
<title>&#45;4&#45;&gt;0</title>
<path fill="none" stroke="red" stroke-width="0.11" d="M294.35,-68.29C279.79,-58.81 255.63,-43.07 237.98,-31.58"/>
<polygon fill="red" stroke="red" stroke-width="0.11" points="239.72,-28.54 229.43,-26.01 235.9,-34.4 239.72,-28.54"/>
</g>
<!-- &#45;5 -->
<g id="node5" class="node">
<title>&#45;5</title>
<polygon fill="lightgray" stroke="black" points="746,-86.53 720,-86.53 720,-68.53 746,-68.53 746,-86.53"/>
<text text-anchor="middle" x="733" y="-75.33" font-family="Times,serif" font-size="9.00">&#45;5</text>
</g>
<!-- &#45;5&#45;&gt;1 -->
<g id="edge20" class="edge">
<title>&#45;5&#45;&gt;1</title>
<path fill="none" stroke="green" stroke-width="0.33" d="M719.98,-71.77C717.03,-70.7 713.91,-69.57 711,-68.53 669.19,-53.48 620.47,-36.19 591.77,-26.02"/>
<polygon fill="green" stroke="green" stroke-width="0.33" points="592.74,-22.66 582.15,-22.62 590.41,-29.25 592.74,-22.66"/>
</g>
<!-- &#45;6 -->
<g id="node6" class="node">
<title>&#45;6</title>
<polygon fill="lightgray" stroke="black" points="834,-86.53 808,-86.53 808,-68.53 834,-68.53 834,-86.53"/>
<text text-anchor="middle" x="821" y="-75.33" font-family="Times,serif" font-size="9.00">&#45;6</text>
</g>
<!-- &#45;7 -->
<g id="node7" class="node">
<title>&#45;7</title>
<polygon fill="lightgray" stroke="black" points="790,-86.53 764,-86.53 764,-68.53 790,-68.53 790,-86.53"/>
<text text-anchor="middle" x="777" y="-75.33" font-family="Times,serif" font-size="9.00">&#45;7</text>
</g>
<!-- &#45;7&#45;&gt;1 -->
<g id="edge15" class="edge">
<title>&#45;7&#45;&gt;1</title>
<path fill="none" stroke="green" stroke-width="0.62" d="M763.56,-71.44C760.75,-70.43 757.79,-69.41 755,-68.53 697.48,-50.26 628.83,-32.56 592.5,-23.5"/>
<polygon fill="green" stroke="green" stroke-width="0.62" points="593.27,-20.09 582.73,-21.08 591.59,-26.89 593.27,-20.09"/>
</g>
<!-- &#45;8 -->
<g id="node8" class="node">
<title>&#45;8</title>
<polygon fill="lightgray" stroke="black" points="364,-86.53 338,-86.53 338,-68.53 364,-68.53 364,-86.53"/>
<text text-anchor="middle" x="351" y="-75.33" font-family="Times,serif" font-size="9.00">&#45;8</text>
</g>
<!-- &#45;8&#45;&gt;0 -->
<g id="edge8" class="edge">
<title>&#45;8&#45;&gt;0</title>
<path fill="none" stroke="red" stroke-width="0.43" stroke-dasharray="1,5" d="M337.56,-70.63C314.77,-60.62 268.26,-40.2 239.83,-27.73"/>
<polygon fill="red" stroke="red" stroke-width="0.43" points="241.17,-24.49 230.6,-23.67 238.35,-30.9 241.17,-24.49"/>
</g>
<!-- &#45;8&#45;&gt;1 -->
<g id="edge2" class="edge">
<title>&#45;8&#45;&gt;1</title>
<path fill="none" stroke="red" stroke-width="0.2" stroke-dasharray="1,5" d="M364.43,-71.42C367.25,-70.42 370.21,-69.4 373,-68.53 432.61,-49.86 503.88,-32.19 541.24,-23.28"/>
<polygon fill="red" stroke="red" stroke-width="0.2" points="542.35,-26.62 551.27,-20.91 540.73,-19.81 542.35,-26.62"/>
</g>
<!-- &#45;9 -->
<g id="node9" class="node">
<title>&#45;9</title>
<polygon fill="lightgray" stroke="black" points="878,-86.53 852,-86.53 852,-68.53 878,-68.53 878,-86.53"/>
<text text-anchor="middle" x="865" y="-75.33" font-family="Times,serif" font-size="9.00">&#45;9</text>
</g>
<!-- &#45;10 -->
<g id="node10" class="node">
<title>&#45;10</title>
<polygon fill="lightgray" stroke="black" points="32,-86.53 0,-86.53 0,-68.53 32,-68.53 32,-86.53"/>
<text text-anchor="middle" x="16" y="-75.33" font-family="Times,serif" font-size="9.00">&#45;10</text>
</g>
<!-- &#45;10&#45;&gt;0 -->
<g id="edge5" class="edge">
<title>&#45;10&#45;&gt;0</title>
<path fill="none" stroke="green" stroke-width="0.23" stroke-dasharray="1,5" d="M32.12,-71.3C35.07,-70.37 38.12,-69.41 41,-68.53 93.99,-52.29 156.34,-34.29 190.47,-24.53"/>
<polygon fill="green" stroke="green" stroke-width="0.23" points="191.86,-27.77 200.51,-21.66 189.93,-21.04 191.86,-27.77"/>
</g>
<!-- &#45;11 -->
<g id="node11" class="node">
<title>&#45;11</title>
<polygon fill="lightgray" stroke="black" points="458,-86.53 426,-86.53 426,-68.53 458,-68.53 458,-86.53"/>
<text text-anchor="middle" x="442" y="-75.33" font-family="Times,serif" font-size="9.00">&#45;11</text>
</g>
<!-- &#45;11&#45;&gt;1 -->
<g id="edge3" class="edge">
<title>&#45;11&#45;&gt;1</title>
<path fill="none" stroke="green" stroke-width="0.62" d="M458.09,-68.9C479.74,-58.63 518.42,-40.29 543.38,-28.46"/>
<polygon fill="green" stroke="green" stroke-width="0.62" points="544.99,-31.57 552.53,-24.13 541.99,-25.25 544.99,-31.57"/>
</g>
<!-- &#45;12 -->
<g id="node12" class="node">
<title>&#45;12</title>
<polygon fill="lightgray" stroke="black" points="508,-86.53 476,-86.53 476,-68.53 508,-68.53 508,-86.53"/>
<text text-anchor="middle" x="492" y="-75.33" font-family="Times,serif" font-size="9.00">&#45;12</text>
</g>
<!-- &#45;12&#45;&gt;1 -->
<g id="edge14" class="edge">
<title>&#45;12&#45;&gt;1</title>
<path fill="none" stroke="red" stroke-width="0.55" stroke-dasharray="1,5" d="M502.43,-68.29C513.76,-59.33 532.16,-44.8 546.42,-33.52"/>
<polygon fill="red" stroke="red" stroke-width="0.55" points="548.99,-35.95 554.67,-27.01 544.65,-30.46 548.99,-35.95"/>
</g>
<!-- &#45;13 -->
<g id="node13" class="node">
<title>&#45;13</title>
<polygon fill="lightgray" stroke="black" points="82,-86.53 50,-86.53 50,-68.53 82,-68.53 82,-86.53"/>
<text text-anchor="middle" x="66" y="-75.33" font-family="Times,serif" font-size="9.00">&#45;13</text>
</g>
<!-- &#45;13&#45;&gt;0 -->
<g id="edge21" class="edge">
<title>&#45;13&#45;&gt;0</title>
<path fill="none" stroke="green" stroke-width="0.6" d="M82.05,-70.18C108.26,-59.83 160.42,-39.22 191.35,-27"/>
<polygon fill="green" stroke="green" stroke-width="0.6" points="192.94,-30.14 200.96,-23.21 190.37,-23.63 192.94,-30.14"/>
</g>
<!-- &#45;14 -->
<g id="node14" class="node">
<title>&#45;14</title>
<polygon fill="lightgray" stroke="black" points="132,-86.53 100,-86.53 100,-68.53 132,-68.53 132,-86.53"/>
<text text-anchor="middle" x="116" y="-75.33" font-family="Times,serif" font-size="9.00">&#45;14</text>
</g>
<!-- &#45;14&#45;&gt;0 -->
<g id="edge4" class="edge">
<title>&#45;14&#45;&gt;0</title>
<path fill="none" stroke="green" stroke-width="0.6" d="M129.9,-68.29C146.32,-58.56 173.86,-42.24 193.37,-30.68"/>
<polygon fill="green" stroke="green" stroke-width="0.6" points="195.4,-33.54 202.21,-25.43 191.83,-27.52 195.4,-33.54"/>
</g>
<!-- &#45;15 -->
<g id="node15" class="node">
<title>&#45;15</title>
<polygon fill="lightgray" stroke="black" points="558,-86.53 526,-86.53 526,-68.53 558,-68.53 558,-86.53"/>
<text text-anchor="middle" x="542" y="-75.33" font-family="Times,serif" font-size="9.00">&#45;15</text>
</g>
<!-- &#45;15&#45;&gt;1 -->
<g id="edge10" class="edge">
<title>&#45;15&#45;&gt;1</title>
<path fill="none" stroke="red" stroke-width="0.14" d="M545.48,-68.29C548.45,-61.23 552.9,-50.7 556.97,-41.03"/>
<polygon fill="red" stroke="red" stroke-width="0.14" points="560.2,-42.39 560.86,-31.82 553.75,-39.67 560.2,-42.39"/>
</g>
<!-- &#45;16 -->
<g id="node16" class="node">
<title>&#45;16</title>
<polygon fill="lightgray" stroke="black" points="928,-86.53 896,-86.53 896,-68.53 928,-68.53 928,-86.53"/>
<text text-anchor="middle" x="912" y="-75.33" font-family="Times,serif" font-size="9.00">&#45;16</text>
</g>
<!-- &#45;17 -->
<g id="node17" class="node">
<title>&#45;17</title>
<polygon fill="lightgray" stroke="black" points="608,-86.53 576,-86.53 576,-68.53 608,-68.53 608,-86.53"/>
<text text-anchor="middle" x="592" y="-75.33" font-family="Times,serif" font-size="9.00">&#45;17</text>
</g>
<!-- &#45;17&#45;&gt;1 -->
<g id="edge1" class="edge">
<title>&#45;17&#45;&gt;1</title>
<path fill="none" stroke="green" stroke-width="0.15" stroke-dasharray="1,5" d="M588.52,-68.29C585.55,-61.23 581.1,-50.7 577.03,-41.03"/>
<polygon fill="green" stroke="green" stroke-width="0.15" points="580.25,-39.67 573.14,-31.82 573.8,-42.39 580.25,-39.67"/>
</g>
<!-- &#45;18 -->
<g id="node18" class="node">
<title>&#45;18</title>
<polygon fill="lightgray" stroke="black" points="658,-86.53 626,-86.53 626,-68.53 658,-68.53 658,-86.53"/>
<text text-anchor="middle" x="642" y="-75.33" font-family="Times,serif" font-size="9.00">&#45;18</text>
</g>
<!-- &#45;18&#45;&gt;1 -->
<g id="edge7" class="edge">
<title>&#45;18&#45;&gt;1</title>
<path fill="none" stroke="red" stroke-width="0.23" d="M631.57,-68.29C620.24,-59.33 601.84,-44.8 587.58,-33.52"/>
<polygon fill="red" stroke="red" stroke-width="0.23" points="589.35,-30.46 579.33,-27.01 585.01,-35.95 589.35,-30.46"/>
</g>
<!-- &#45;19 -->
<g id="node19" class="node">
<title>&#45;19</title>
<polygon fill="lightgray" stroke="black" points="182,-86.53 150,-86.53 150,-68.53 182,-68.53 182,-86.53"/>
<text text-anchor="middle" x="166" y="-75.33" font-family="Times,serif" font-size="9.00">&#45;19</text>
</g>
<!-- &#45;19&#45;&gt;0 -->
<g id="edge19" class="edge">
<title>&#45;19&#45;&gt;0</title>
<path fill="none" stroke="red" stroke-width="0.21" stroke-dasharray="1,5" d="M172.95,-68.29C179.79,-60.18 190.5,-47.49 199.52,-36.79"/>
<polygon fill="red" stroke="red" stroke-width="0.21" points="202.23,-39.01 206,-29.11 196.88,-34.5 202.23,-39.01"/>
</g>
<!-- &#45;20 -->
<g id="node20" class="node">
<title>&#45;20</title>
<polygon fill="lightgray" stroke="black" points="232,-86.53 200,-86.53 200,-68.53 232,-68.53 232,-86.53"/>
<text text-anchor="middle" x="216" y="-75.33" font-family="Times,serif" font-size="9.00">&#45;20</text>
</g>
<!-- &#45;20&#45;&gt;0 -->
<g id="edge9" class="edge">
<title>&#45;20&#45;&gt;0</title>
<path fill="none" stroke="red" stroke-width="0.67" d="M216,-68.29C216,-61.7 216,-52.1 216,-43"/>
<polygon fill="red" stroke="red" stroke-width="0.67" points="219.5,-42.76 216,-32.76 212.5,-42.76 219.5,-42.76"/>
</g>
<!-- 0&#45;&gt;0 -->
<g id="edge17" class="edge">
<title>0&#45;&gt;0</title>
<path fill="none" stroke="red" stroke-width="0.34" d="M229.36,-26.06C239.71,-29.72 250.26,-26.46 250.26,-16.26 250.26,-9.57 245.72,-5.87 239.67,-5.14"/>
<polygon fill="red" stroke="red" stroke-width="0.34" points="238.84,-1.72 229.36,-6.47 239.73,-8.67 238.84,-1.72"/>
</g>
<!-- 1&#45;&gt;1 -->
<g id="edge12" class="edge">
<title>1&#45;&gt;1</title>
<path fill="none" stroke="red" stroke-width="0.29" d="M580.36,-26.06C590.71,-29.72 601.26,-26.46 601.26,-16.26 601.26,-9.57 596.72,-5.87 590.67,-5.14"/>
<polygon fill="red" stroke="red" stroke-width="0.29" points="589.84,-1.72 580.36,-6.47 590.73,-8.67 589.84,-1.72"/>
</g>
</g>
</svg>
