<?xml version="1.0" encoding="UTF-8" standalone="no"?>
<!DOCTYPE svg PUBLIC "-//W3C//DTD SVG 1.1//EN"
 "http://www.w3.org/Graphics/SVG/1.1/DTD/svg11.dtd">
<!-- Generated by graphviz version 2.43.0 (0)
 -->
<!-- Title: %3 Pages: 1 -->
<svg width="1336pt" height="95pt"
 viewBox="0.00 0.00 1336.00 94.53" xmlns="http://www.w3.org/2000/svg" xmlns:xlink="http://www.w3.org/1999/xlink">
<g id="graph0" class="graph" transform="scale(1 1) rotate(0) translate(4 90.53)">
<title>%3</title>
<polygon fill="white" stroke="transparent" points="-4,4 -4,-90.53 1332,-90.53 1332,4 -4,4"/>
<!-- &#45;1 -->
<g id="node1" class="node">
<title>&#45;1</title>
<polygon fill="lightgray" stroke="black" points="702,-86.53 676,-86.53 676,-68.53 702,-68.53 702,-86.53"/>
<text text-anchor="middle" x="689" y="-75.33" font-family="Times,serif" font-size="9.00">&#45;1</text>
</g>
<!-- 0 -->
<g id="node29" class="node">
<title>0</title>
<ellipse fill="lightblue" stroke="black" cx="404" cy="-16.26" rx="16.03" ry="16.03"/>
<text text-anchor="middle" x="404" y="-14.06" font-family="Times,serif" font-size="9.00">0</text>
</g>
<!-- &#45;1&#45;&gt;0 -->
<g id="edge21" class="edge">
<title>&#45;1&#45;&gt;0</title>
<path fill="none" stroke="green" stroke-width="0.35" d="M675.61,-71.28C672.79,-70.28 669.82,-69.31 667,-68.53 581.75,-44.87 478.01,-28.07 430.31,-21"/>
<polygon fill="green" stroke="green" stroke-width="0.35" points="430.61,-17.5 420.21,-19.52 429.6,-24.43 430.61,-17.5"/>
</g>
<!-- 1 -->
<g id="node30" class="node">
<title>1</title>
<ellipse fill="lightblue" stroke="black" cx="711" cy="-16.26" rx="16.03" ry="16.03"/>
<text text-anchor="middle" x="711" y="-14.06" font-family="Times,serif" font-size="9.00">1</text>
</g>
<!-- &#45;1&#45;&gt;1 -->
<g id="edge20" class="edge">
<title>&#45;1&#45;&gt;1</title>
<path fill="none" stroke="green" stroke-width="1.06" stroke-dasharray="1,5" d="M692.06,-68.29C694.65,-61.3 698.51,-50.91 702.06,-41.33"/>
<polygon fill="green" stroke="green" stroke-width="1.06" points="705.4,-42.41 705.6,-31.82 698.84,-39.97 705.4,-42.41"/>
</g>
<!-- &#45;2 -->
<g id="node2" class="node">
<title>&#45;2</title>
<polygon fill="lightgray" stroke="black" points="746,-86.53 720,-86.53 720,-68.53 746,-68.53 746,-86.53"/>
<text text-anchor="middle" x="733" y="-75.33" font-family="Times,serif" font-size="9.00">&#45;2</text>
</g>
<!-- &#45;2&#45;&gt;0 -->
<g id="edge18" class="edge">
<title>&#45;2&#45;&gt;0</title>
<path fill="none" stroke="green" stroke-width="0.18" d="M719.63,-71.22C716.81,-70.23 713.83,-69.27 711,-68.53 608.82,-41.66 483.63,-25.93 430.19,-20"/>
<polygon fill="green" stroke="green" stroke-width="0.18" points="430.52,-16.51 420.2,-18.91 429.76,-23.47 430.52,-16.51"/>
</g>
<!-- &#45;2&#45;&gt;1 -->
<g id="edge25" class="edge">
<title>&#45;2&#45;&gt;1</title>
<path fill="none" stroke="red" stroke-width="0.29" d="M729.94,-68.29C727.35,-61.3 723.49,-50.91 719.94,-41.33"/>
<polygon fill="red" stroke="red" stroke-width="0.29" points="723.16,-39.97 716.4,-31.82 716.6,-42.41 723.16,-39.97"/>
</g>
<!-- &#45;3 -->
<g id="node3" class="node">
<title>&#45;3</title>
<polygon fill="lightgray" stroke="black" points="790,-86.53 764,-86.53 764,-68.53 790,-68.53 790,-86.53"/>
<text text-anchor="middle" x="777" y="-75.33" font-family="Times,serif" font-size="9.00">&#45;3</text>
</g>
<!-- &#45;3&#45;&gt;0 -->
<g id="edge9" class="edge">
<title>&#45;3&#45;&gt;0</title>
<path fill="none" stroke="green" stroke-width="0.58" d="M763.64,-71.18C760.82,-70.19 757.84,-69.24 755,-68.53 636.07,-38.55 489.74,-24.19 430.63,-19.29"/>
<polygon fill="green" stroke="green" stroke-width="0.58" points="430.57,-15.77 420.32,-18.46 430.01,-22.75 430.57,-15.77"/>
</g>
<!-- &#45;3&#45;&gt;1 -->
<g id="edge23" class="edge">
<title>&#45;3&#45;&gt;1</title>
<path fill="none" stroke="red" stroke-width="0.29" d="M767.82,-68.29C758.18,-59.62 742.71,-45.74 730.35,-34.64"/>
<polygon fill="red" stroke="red" stroke-width="0.29" points="732.55,-31.91 722.77,-27.83 727.87,-37.12 732.55,-31.91"/>
</g>
<!-- &#45;4 -->
<g id="node4" class="node">
<title>&#45;4</title>
<polygon fill="lightgray" stroke="black" points="464,-86.53 438,-86.53 438,-68.53 464,-68.53 464,-86.53"/>
<text text-anchor="middle" x="451" y="-75.33" font-family="Times,serif" font-size="9.00">&#45;4</text>
</g>
<!-- &#45;4&#45;&gt;0 -->
<g id="edge22" class="edge">
<title>&#45;4&#45;&gt;0</title>
<path fill="none" stroke="red" stroke-width="0.27" d="M444.46,-68.29C438.18,-60.36 428.42,-48.05 420.06,-37.51"/>
<polygon fill="red" stroke="red" stroke-width="0.27" points="422.7,-35.21 413.75,-29.55 417.22,-39.56 422.7,-35.21"/>
</g>
<!-- &#45;5 -->
<g id="node5" class="node">
<title>&#45;5</title>
<polygon fill="lightgray" stroke="black" points="508,-86.53 482,-86.53 482,-68.53 508,-68.53 508,-86.53"/>
<text text-anchor="middle" x="495" y="-75.33" font-family="Times,serif" font-size="9.00">&#45;5</text>
</g>
<!-- &#45;5&#45;&gt;0 -->
<g id="edge12" class="edge">
<title>&#45;5&#45;&gt;0</title>
<path fill="none" stroke="green" stroke-width="0.66" stroke-dasharray="1,5" d="M482.35,-68.29C467.79,-58.81 443.63,-43.07 425.98,-31.58"/>
<polygon fill="green" stroke="green" stroke-width="0.66" points="427.72,-28.54 417.43,-26.01 423.9,-34.4 427.72,-28.54"/>
</g>
<!-- &#45;6 -->
<g id="node6" class="node">
<title>&#45;6</title>
<polygon fill="lightgray" stroke="black" points="934,-86.53 908,-86.53 908,-68.53 934,-68.53 934,-86.53"/>
<text text-anchor="middle" x="921" y="-75.33" font-family="Times,serif" font-size="9.00">&#45;6</text>
</g>
<!-- &#45;7 -->
<g id="node7" class="node">
<title>&#45;7</title>
<polygon fill="lightgray" stroke="black" points="26,-86.53 0,-86.53 0,-68.53 26,-68.53 26,-86.53"/>
<text text-anchor="middle" x="13" y="-75.33" font-family="Times,serif" font-size="9.00">&#45;7</text>
</g>
<!-- &#45;7&#45;&gt;0 -->
<g id="edge3" class="edge">
<title>&#45;7&#45;&gt;0</title>
<path fill="none" stroke="green" stroke-width="0.26" stroke-dasharray="1,5" d="M26.36,-71.16C29.18,-70.17 32.16,-69.23 35,-68.53 160.87,-37.27 315.95,-23.53 377.25,-19.04"/>
<polygon fill="green" stroke="green" stroke-width="0.26" points="377.85,-22.51 387.58,-18.31 377.36,-15.52 377.85,-22.51"/>
</g>
<!-- &#45;8 -->
<g id="node8" class="node">
<title>&#45;8</title>
<polygon fill="lightgray" stroke="black" points="978,-86.53 952,-86.53 952,-68.53 978,-68.53 978,-86.53"/>
<text text-anchor="middle" x="965" y="-75.33" font-family="Times,serif" font-size="9.00">&#45;8</text>
</g>
<!-- &#45;9 -->
<g id="node9" class="node">
<title>&#45;9</title>
<polygon fill="lightgray" stroke="black" points="70,-86.53 44,-86.53 44,-68.53 70,-68.53 70,-86.53"/>
<text text-anchor="middle" x="57" y="-75.33" font-family="Times,serif" font-size="9.00">&#45;9</text>
</g>
<!-- &#45;9&#45;&gt;0 -->
<g id="edge15" class="edge">
<title>&#45;9&#45;&gt;0</title>
<path fill="none" stroke="red" stroke-width="1.2" stroke-dasharray="1,5" d="M70.37,-71.2C73.19,-70.21 76.17,-69.26 79,-68.53 188.15,-40.35 322.15,-25.15 377.82,-19.67"/>
<polygon fill="red" stroke="red" stroke-width="1.2" points="378.26,-23.14 387.88,-18.7 377.59,-16.17 378.26,-23.14"/>
</g>
<!-- &#45;10 -->
<g id="node10" class="node">
<title>&#45;10</title>
<polygon fill="lightgray" stroke="black" points="120,-86.53 88,-86.53 88,-68.53 120,-68.53 120,-86.53"/>
<text text-anchor="middle" x="104" y="-75.33" font-family="Times,serif" font-size="9.00">&#45;10</text>
</g>
<!-- &#45;10&#45;&gt;0 -->
<g id="edge14" class="edge">
<title>&#45;10&#45;&gt;0</title>
<path fill="none" stroke="red" stroke-width="0.33" stroke-dasharray="1,5" d="M120.05,-71.06C123.01,-70.15 126.08,-69.26 129,-68.53 219.41,-45.73 328.87,-28.3 377.97,-21"/>
<polygon fill="red" stroke="red" stroke-width="0.33" points="378.65,-24.44 388.04,-19.52 377.64,-17.51 378.65,-24.44"/>
</g>
<!-- &#45;11 -->
<g id="node11" class="node">
<title>&#45;11</title>
<polygon fill="lightgray" stroke="black" points="170,-86.53 138,-86.53 138,-68.53 170,-68.53 170,-86.53"/>
<text text-anchor="middle" x="154" y="-75.33" font-family="Times,serif" font-size="9.00">&#45;11</text>
</g>
<!-- &#45;11&#45;&gt;0 -->
<g id="edge10" class="edge">
<title>&#45;11&#45;&gt;0</title>
<path fill="none" stroke="red" stroke-width="0.17" stroke-dasharray="1,5" d="M170.08,-71.16C173.03,-70.24 176.1,-69.32 179,-68.53 250.46,-48.99 336.07,-30.93 378.11,-22.41"/>
<polygon fill="red" stroke="red" stroke-width="0.17" points="378.95,-25.81 388.06,-20.4 377.57,-18.95 378.95,-25.81"/>
</g>
<!-- &#45;12 -->
<g id="node12" class="node">
<title>&#45;12</title>
<polygon fill="lightgray" stroke="black" points="890,-86.53 858,-86.53 858,-68.53 890,-68.53 890,-86.53"/>
<text text-anchor="middle" x="874" y="-75.33" font-family="Times,serif" font-size="9.00">&#45;12</text>
</g>
<!-- &#45;12&#45;&gt;1 -->
<g id="edge5" class="edge">
<title>&#45;12&#45;&gt;1</title>
<path fill="none" stroke="green" stroke-width="0.21" d="M857.78,-70.63C829.17,-60.23 769.6,-38.57 735.8,-26.28"/>
<polygon fill="green" stroke="green" stroke-width="0.21" points="736.8,-22.92 726.21,-22.79 734.41,-29.5 736.8,-22.92"/>
</g>
<!-- &#45;13 -->
<g id="node13" class="node">
<title>&#45;13</title>
<polygon fill="lightgray" stroke="black" points="1028,-86.53 996,-86.53 996,-68.53 1028,-68.53 1028,-86.53"/>
<text text-anchor="middle" x="1012" y="-75.33" font-family="Times,serif" font-size="9.00">&#45;13</text>
</g>
<!-- &#45;14 -->
<g id="node14" class="node">
<title>&#45;14</title>
<polygon fill="lightgray" stroke="black" points="220,-86.53 188,-86.53 188,-68.53 220,-68.53 220,-86.53"/>
<text text-anchor="middle" x="204" y="-75.33" font-family="Times,serif" font-size="9.00">&#45;14</text>
</g>
<!-- &#45;14&#45;&gt;0 -->
<g id="edge6" class="edge">
<title>&#45;14&#45;&gt;0</title>
<path fill="none" stroke="green" stroke-width="0.45" d="M220.12,-71.3C223.07,-70.37 226.12,-69.41 229,-68.53 281.99,-52.29 344.34,-34.29 378.47,-24.53"/>
<polygon fill="green" stroke="green" stroke-width="0.45" points="379.86,-27.77 388.51,-21.66 377.93,-21.04 379.86,-27.77"/>
</g>
<!-- &#45;15 -->
<g id="node15" class="node">
<title>&#45;15</title>
<polygon fill="lightgray" stroke="black" points="558,-86.53 526,-86.53 526,-68.53 558,-68.53 558,-86.53"/>
<text text-anchor="middle" x="542" y="-75.33" font-family="Times,serif" font-size="9.00">&#45;15</text>
</g>
<!-- &#45;15&#45;&gt;0 -->
<g id="edge19" class="edge">
<title>&#45;15&#45;&gt;0</title>
<path fill="none" stroke="green" stroke-width="0.32" stroke-dasharray="1,5" d="M525.9,-69.61C501.84,-59.28 456.32,-39.73 428.23,-27.67"/>
<polygon fill="green" stroke="green" stroke-width="0.32" points="429.31,-24.32 418.74,-23.59 426.55,-30.76 429.31,-24.32"/>
</g>
<!-- &#45;15&#45;&gt;1 -->
<g id="edge4" class="edge">
<title>&#45;15&#45;&gt;1</title>
<path fill="none" stroke="red" stroke-width="0.63" d="M558.2,-70.84C587.83,-60.46 650.91,-38.33 686.05,-26.01"/>
<polygon fill="red" stroke="red" stroke-width="0.63" points="687.3,-29.28 695.58,-22.67 684.99,-22.68 687.3,-29.28"/>
</g>
<!-- &#45;16 -->
<g id="node16" class="node">
<title>&#45;16</title>
<polygon fill="lightgray" stroke="black" points="608,-86.53 576,-86.53 576,-68.53 608,-68.53 608,-86.53"/>
<text text-anchor="middle" x="592" y="-75.33" font-family="Times,serif" font-size="9.00">&#45;16</text>
</g>
<!-- &#45;16&#45;&gt;0 -->
<g id="edge17" class="edge">
<title>&#45;16&#45;&gt;0</title>
<path fill="none" stroke="green" stroke-width="0.11" d="M575.87,-71.35C572.92,-70.41 569.87,-69.44 567,-68.53 518.22,-53.05 461.17,-35.16 429.14,-25.13"/>
<polygon fill="green" stroke="green" stroke-width="0.11" points="429.88,-21.69 419.29,-22.04 427.79,-28.37 429.88,-21.69"/>
</g>
<!-- &#45;16&#45;&gt;1 -->
<g id="edge1" class="edge">
<title>&#45;16&#45;&gt;1</title>
<path fill="none" stroke="red" stroke-width="0.18" stroke-dasharray="1,5" d="M608.05,-68.53C628.48,-58.36 663.93,-40.7 687.43,-29"/>
<polygon fill="red" stroke="red" stroke-width="0.18" points="689.3,-31.98 696.69,-24.39 686.18,-25.71 689.3,-31.98"/>
</g>
<!-- &#45;17 -->
<g id="node17" class="node">
<title>&#45;17</title>
<polygon fill="lightgray" stroke="black" points="840,-86.53 808,-86.53 808,-68.53 840,-68.53 840,-86.53"/>
<text text-anchor="middle" x="824" y="-75.33" font-family="Times,serif" font-size="9.00">&#45;17</text>
</g>
<!-- &#45;17&#45;&gt;1 -->
<g id="edge2" class="edge">
<title>&#45;17&#45;&gt;1</title>
<path fill="none" stroke="red" stroke-width="0.59" stroke-dasharray="1,5" d="M808.29,-68.29C789.06,-58.2 756.33,-41.04 734.2,-29.43"/>
<polygon fill="red" stroke="red" stroke-width="0.59" points="735.64,-26.23 725.15,-24.69 732.38,-32.43 735.64,-26.23"/>
</g>
<!-- &#45;18 -->
<g id="node18" class="node">
<title>&#45;18</title>
<polygon fill="lightgray" stroke="black" points="270,-86.53 238,-86.53 238,-68.53 270,-68.53 270,-86.53"/>
<text text-anchor="middle" x="254" y="-75.33" font-family="Times,serif" font-size="9.00">&#45;18</text>
</g>
<!-- &#45;18&#45;&gt;0 -->
<g id="edge13" class="edge">
<title>&#45;18&#45;&gt;0</title>
<path fill="none" stroke="green" stroke-width="0.8" stroke-dasharray="1,5" d="M270.05,-70.18C296.26,-59.83 348.42,-39.22 379.35,-27"/>
<polygon fill="green" stroke="green" stroke-width="0.8" points="380.94,-30.14 388.96,-23.21 378.37,-23.63 380.94,-30.14"/>
</g>
<!-- &#45;19 -->
<g id="node19" class="node">
<title>&#45;19</title>
<polygon fill="lightgray" stroke="black" points="1078,-86.53 1046,-86.53 1046,-68.53 1078,-68.53 1078,-86.53"/>
<text text-anchor="middle" x="1062" y="-75.33" font-family="Times,serif" font-size="9.00">&#45;19</text>
</g>
<!-- &#45;20 -->
<g id="node20" class="node">
<title>&#45;20</title>
<polygon fill="lightgray" stroke="black" points="320,-86.53 288,-86.53 288,-68.53 320,-68.53 320,-86.53"/>
<text text-anchor="middle" x="304" y="-75.33" font-family="Times,serif" font-size="9.00">&#45;20</text>
</g>
<!-- &#45;20&#45;&gt;0 -->
<g id="edge16" class="edge">
<title>&#45;20&#45;&gt;0</title>
<path fill="none" stroke="green" stroke-width="0.32" d="M317.9,-68.29C334.32,-58.56 361.86,-42.24 381.37,-30.68"/>
<polygon fill="green" stroke="green" stroke-width="0.32" points="383.4,-33.54 390.21,-25.43 379.83,-27.52 383.4,-33.54"/>
</g>
<!-- &#45;21 -->
<g id="node21" class="node">
<title>&#45;21</title>
<polygon fill="lightgray" stroke="black" points="370,-86.53 338,-86.53 338,-68.53 370,-68.53 370,-86.53"/>
<text text-anchor="middle" x="354" y="-75.33" font-family="Times,serif" font-size="9.00">&#45;21</text>
</g>
<!-- &#45;21&#45;&gt;0 -->
<g id="edge11" class="edge">
<title>&#45;21&#45;&gt;0</title>
<path fill="none" stroke="red" stroke-width="0.22" stroke-dasharray="1,5" d="M360.95,-68.29C367.79,-60.18 378.5,-47.49 387.52,-36.79"/>
<polygon fill="red" stroke="red" stroke-width="0.22" points="390.23,-39.01 394,-29.11 384.88,-34.5 390.23,-39.01"/>
</g>
<!-- &#45;22 -->
<g id="node22" class="node">
<title>&#45;22</title>
<polygon fill="lightgray" stroke="black" points="1128,-86.53 1096,-86.53 1096,-68.53 1128,-68.53 1128,-86.53"/>
<text text-anchor="middle" x="1112" y="-75.33" font-family="Times,serif" font-size="9.00">&#45;22</text>
</g>
<!-- &#45;23 -->
<g id="node23" class="node">
<title>&#45;23</title>
<polygon fill="lightgray" stroke="black" points="1178,-86.53 1146,-86.53 1146,-68.53 1178,-68.53 1178,-86.53"/>
<text text-anchor="middle" x="1162" y="-75.33" font-family="Times,serif" font-size="9.00">&#45;23</text>
</g>
<!-- &#45;24 -->
<g id="node24" class="node">
<title>&#45;24</title>
<polygon fill="lightgray" stroke="black" points="1228,-86.53 1196,-86.53 1196,-68.53 1228,-68.53 1228,-86.53"/>
<text text-anchor="middle" x="1212" y="-75.33" font-family="Times,serif" font-size="9.00">&#45;24</text>
</g>
<!-- &#45;25 -->
<g id="node25" class="node">
<title>&#45;25</title>
<polygon fill="lightgray" stroke="black" points="420,-86.53 388,-86.53 388,-68.53 420,-68.53 420,-86.53"/>
<text text-anchor="middle" x="404" y="-75.33" font-family="Times,serif" font-size="9.00">&#45;25</text>
</g>
<!-- &#45;25&#45;&gt;0 -->
<g id="edge8" class="edge">
<title>&#45;25&#45;&gt;0</title>
<path fill="none" stroke="red" stroke-width="0.26" stroke-dasharray="1,5" d="M404,-68.29C404,-61.7 404,-52.1 404,-43"/>
<polygon fill="red" stroke="red" stroke-width="0.26" points="407.5,-42.76 404,-32.76 400.5,-42.76 407.5,-42.76"/>
</g>
<!-- &#45;26 -->
<g id="node26" class="node">
<title>&#45;26</title>
<polygon fill="lightgray" stroke="black" points="658,-86.53 626,-86.53 626,-68.53 658,-68.53 658,-86.53"/>
<text text-anchor="middle" x="642" y="-75.33" font-family="Times,serif" font-size="9.00">&#45;26</text>
</g>
<!-- &#45;26&#45;&gt;0 -->
<g id="edge7" class="edge">
<title>&#45;26&#45;&gt;0</title>
<path fill="none" stroke="green" stroke-width="0.53" stroke-dasharray="1,5" d="M625.91,-71.19C622.96,-70.26 619.9,-69.34 617,-68.53 549.92,-49.75 469.81,-31.6 429.64,-22.79"/>
<polygon fill="green" stroke="green" stroke-width="0.53" points="430.38,-19.37 419.87,-20.66 428.89,-26.21 430.38,-19.37"/>
</g>
<!-- &#45;26&#45;&gt;1 -->
<g id="edge24" class="edge">
<title>&#45;26&#45;&gt;1</title>
<path fill="none" stroke="green" stroke-width="0.35" d="M651.59,-68.29C661.68,-59.62 677.84,-45.74 690.77,-34.64"/>
<polygon fill="green" stroke="green" stroke-width="0.35" points="693.39,-37 698.69,-27.83 688.83,-31.69 693.39,-37"/>
</g>
<!-- &#45;27 -->
<g id="node27" class="node">
<title>&#45;27</title>
<polygon fill="lightgray" stroke="black" points="1278,-86.53 1246,-86.53 1246,-68.53 1278,-68.53 1278,-86.53"/>
<text text-anchor="middle" x="1262" y="-75.33" font-family="Times,serif" font-size="9.00">&#45;27</text>
</g>
<!-- &#45;28 -->
<g id="node28" class="node">
<title>&#45;28</title>
<polygon fill="lightgray" stroke="black" points="1328,-86.53 1296,-86.53 1296,-68.53 1328,-68.53 1328,-86.53"/>
<text text-anchor="middle" x="1312" y="-75.33" font-family="Times,serif" font-size="9.00">&#45;28</text>
</g>
</g>
</svg>
