<?xml version="1.0" encoding="UTF-8" standalone="no"?>
<!DOCTYPE svg PUBLIC "-//W3C//DTD SVG 1.1//EN"
 "http://www.w3.org/Graphics/SVG/1.1/DTD/svg11.dtd">
<!-- Generated by graphviz version 2.43.0 (0)
 -->
<!-- Title: %3 Pages: 1 -->
<svg width="434pt" height="214pt"
 viewBox="0.00 0.00 433.98 213.97" xmlns="http://www.w3.org/2000/svg" xmlns:xlink="http://www.w3.org/1999/xlink">
<g id="graph0" class="graph" transform="scale(1 1) rotate(0) translate(4 209.97)">
<title>%3</title>
<polygon fill="white" stroke="transparent" points="-4,4 -4,-209.97 429.98,-209.97 429.98,4 -4,4"/>
<!-- &#45;1 -->
<g id="node1" class="node">
<title>&#45;1</title>
<polygon fill="lightgray" stroke="black" points="101.99,-131.97 75.99,-131.97 75.99,-113.97 101.99,-113.97 101.99,-131.97"/>
<text text-anchor="middle" x="88.99" y="-120.77" font-family="Times,serif" font-size="9.00">&#45;1</text>
</g>
<!-- 0 -->
<g id="node13" class="node">
<title>0</title>
<ellipse fill="lightblue" stroke="black" cx="135.99" cy="-28.99" rx="16.03" ry="16.03"/>
<text text-anchor="middle" x="135.99" y="-26.79" font-family="Times,serif" font-size="9.00">0</text>
</g>
<!-- &#45;1&#45;&gt;0 -->
<g id="edge7" class="edge">
<title>&#45;1&#45;&gt;0</title>
<path fill="none" stroke="red" stroke-width="0.19" d="M93.16,-113.81C100.07,-100.28 114.14,-72.75 124.27,-52.92"/>
<polygon fill="red" stroke="red" stroke-width="0.19" points="127.45,-54.4 128.88,-43.91 121.21,-51.22 127.45,-54.4"/>
</g>
<!-- &#45;2 -->
<g id="node2" class="node">
<title>&#45;2</title>
<polygon fill="lightgray" stroke="black" points="239.99,-131.97 213.99,-131.97 213.99,-113.97 239.99,-113.97 239.99,-131.97"/>
<text text-anchor="middle" x="226.99" y="-120.77" font-family="Times,serif" font-size="9.00">&#45;2</text>
</g>
<!-- 1 -->
<g id="node14" class="node">
<title>1</title>
<ellipse fill="lightblue" stroke="black" cx="226.99" cy="-28.99" rx="16.03" ry="16.03"/>
<text text-anchor="middle" x="226.99" y="-26.79" font-family="Times,serif" font-size="9.00">1</text>
</g>
<!-- &#45;2&#45;&gt;1 -->
<g id="edge3" class="edge">
<title>&#45;2&#45;&gt;1</title>
<path fill="none" stroke="green" stroke-width="0.18" d="M226.99,-113.81C226.99,-100.9 226.99,-75.23 226.99,-55.68"/>
<polygon fill="green" stroke="green" stroke-width="0.18" points="230.49,-55.57 226.99,-45.57 223.49,-55.57 230.49,-55.57"/>
</g>
<!-- &#45;3 -->
<g id="node3" class="node">
<title>&#45;3</title>
<polygon fill="lightgray" stroke="black" points="195.99,-131.97 169.99,-131.97 169.99,-113.97 195.99,-113.97 195.99,-131.97"/>
<text text-anchor="middle" x="182.99" y="-120.77" font-family="Times,serif" font-size="9.00">&#45;3</text>
</g>
<!-- &#45;3&#45;&gt;0 -->
<g id="edge5" class="edge">
<title>&#45;3&#45;&gt;0</title>
<path fill="none" stroke="green" stroke-width="0.89" d="M178.82,-113.81C171.91,-100.28 157.84,-72.75 147.71,-52.92"/>
<polygon fill="green" stroke="green" stroke-width="0.89" points="150.77,-51.22 143.1,-43.91 144.54,-54.4 150.77,-51.22"/>
</g>
<!-- &#45;3&#45;&gt;1 -->
<g id="edge6" class="edge">
<title>&#45;3&#45;&gt;1</title>
<path fill="none" stroke="green" stroke-width="0.53" d="M186.9,-113.81C193.34,-100.35 206.42,-73 215.89,-53.2"/>
<polygon fill="green" stroke="green" stroke-width="0.53" points="219.18,-54.44 220.33,-43.91 212.86,-51.42 219.18,-54.44"/>
</g>
<!-- &#45;4 -->
<g id="node4" class="node">
<title>&#45;4</title>
<polygon fill="lightgray" stroke="black" points="327.99,-131.97 301.99,-131.97 301.99,-113.97 327.99,-113.97 327.99,-131.97"/>
<text text-anchor="middle" x="314.99" y="-120.77" font-family="Times,serif" font-size="9.00">&#45;4</text>
</g>
<!-- &#45;4&#45;&gt;0 -->
<g id="edge12" class="edge">
<title>&#45;4&#45;&gt;0</title>
<path fill="none" stroke="green" stroke-width="0.3" d="M310.14,-113.64C306.2,-107.49 300.13,-99.3 292.99,-93.98 258.12,-67.98 242.24,-74.48 201.99,-57.98 188,-52.25 172.42,-45.65 159.91,-40.3"/>
<polygon fill="green" stroke="green" stroke-width="0.3" points="161.2,-37.05 150.63,-36.32 158.44,-43.48 161.2,-37.05"/>
</g>
<!-- 1413 -->
<g id="node16" class="node">
<title>1413</title>
<ellipse fill="white" stroke="black" cx="317.99" cy="-28.99" rx="28.98" ry="28.98"/>
<text text-anchor="middle" x="317.99" y="-26.79" font-family="Times,serif" font-size="9.00">1413</text>
</g>
<!-- &#45;4&#45;&gt;1413 -->
<g id="edge9" class="edge">
<title>&#45;4&#45;&gt;1413</title>
<path fill="none" stroke="red" stroke-width="0.2" d="M315.26,-113.81C315.59,-103.54 316.19,-85.2 316.74,-68.29"/>
<polygon fill="red" stroke="red" stroke-width="0.2" points="320.25,-68.14 317.08,-58.03 313.25,-67.91 320.25,-68.14"/>
</g>
<!-- &#45;5 -->
<g id="node5" class="node">
<title>&#45;5</title>
<polygon fill="lightgray" stroke="black" points="251.99,-205.97 225.99,-205.97 225.99,-187.97 251.99,-187.97 251.99,-205.97"/>
<text text-anchor="middle" x="238.99" y="-194.77" font-family="Times,serif" font-size="9.00">&#45;5</text>
</g>
<!-- &#45;6 -->
<g id="node6" class="node">
<title>&#45;6</title>
<polygon fill="lightgray" stroke="black" points="283.99,-131.97 257.99,-131.97 257.99,-113.97 283.99,-113.97 283.99,-131.97"/>
<text text-anchor="middle" x="270.99" y="-120.77" font-family="Times,serif" font-size="9.00">&#45;6</text>
</g>
<!-- &#45;6&#45;&gt;1 -->
<g id="edge1" class="edge">
<title>&#45;6&#45;&gt;1</title>
<path fill="none" stroke="red" stroke-width="0.24" stroke-dasharray="1,5" d="M267.09,-113.81C260.65,-100.35 247.56,-73 238.09,-53.2"/>
<polygon fill="red" stroke="red" stroke-width="0.24" points="241.12,-51.42 233.65,-43.91 234.81,-54.44 241.12,-51.42"/>
</g>
<!-- &#45;7 -->
<g id="node7" class="node">
<title>&#45;7</title>
<polygon fill="lightgray" stroke="black" points="295.99,-205.97 269.99,-205.97 269.99,-187.97 295.99,-187.97 295.99,-205.97"/>
<text text-anchor="middle" x="282.99" y="-194.77" font-family="Times,serif" font-size="9.00">&#45;7</text>
</g>
<!-- &#45;8 -->
<g id="node8" class="node">
<title>&#45;8</title>
<polygon fill="lightgray" stroke="black" points="339.99,-205.97 313.99,-205.97 313.99,-187.97 339.99,-187.97 339.99,-205.97"/>
<text text-anchor="middle" x="326.99" y="-194.77" font-family="Times,serif" font-size="9.00">&#45;8</text>
</g>
<!-- &#45;9 -->
<g id="node9" class="node">
<title>&#45;9</title>
<polygon fill="lightgray" stroke="black" points="409.99,-131.97 383.99,-131.97 383.99,-113.97 409.99,-113.97 409.99,-131.97"/>
<text text-anchor="middle" x="396.99" y="-120.77" font-family="Times,serif" font-size="9.00">&#45;9</text>
</g>
<!-- &#45;9&#45;&gt;1413 -->
<g id="edge8" class="edge">
<title>&#45;9&#45;&gt;1413</title>
<path fill="none" stroke="red" stroke-width="0.28" d="M389.98,-113.81C379.61,-101.73 359.64,-78.48 343.36,-59.52"/>
<polygon fill="red" stroke="red" stroke-width="0.28" points="345.81,-57.01 336.64,-51.71 340.5,-61.57 345.81,-57.01"/>
</g>
<!-- 1107 -->
<g id="node17" class="node">
<title>1107</title>
<ellipse fill="white" stroke="black" cx="396.99" cy="-28.99" rx="28.98" ry="28.98"/>
<text text-anchor="middle" x="396.99" y="-26.79" font-family="Times,serif" font-size="9.00">1107</text>
</g>
<!-- &#45;9&#45;&gt;1107 -->
<g id="edge14" class="edge">
<title>&#45;9&#45;&gt;1107</title>
<path fill="none" stroke="red" stroke-width="0.22" d="M396.99,-113.81C396.99,-103.54 396.99,-85.2 396.99,-68.29"/>
<polygon fill="red" stroke="red" stroke-width="0.22" points="400.49,-68.03 396.99,-58.03 393.49,-68.03 400.49,-68.03"/>
</g>
<!-- &#45;10 -->
<g id="node10" class="node">
<title>&#45;10</title>
<polygon fill="lightgray" stroke="black" points="389.99,-205.97 357.99,-205.97 357.99,-187.97 389.99,-187.97 389.99,-205.97"/>
<text text-anchor="middle" x="373.99" y="-194.77" font-family="Times,serif" font-size="9.00">&#45;10</text>
</g>
<!-- &#45;11 -->
<g id="node11" class="node">
<title>&#45;11</title>
<polygon fill="lightgray" stroke="black" points="207.99,-205.97 175.99,-205.97 175.99,-187.97 207.99,-187.97 207.99,-205.97"/>
<text text-anchor="middle" x="191.99" y="-194.77" font-family="Times,serif" font-size="9.00">&#45;11</text>
</g>
<!-- &#45;11&#45;&gt;1 -->
<g id="edge13" class="edge">
<title>&#45;11&#45;&gt;1</title>
<path fill="none" stroke="red" stroke-width="0.28" d="M208.12,-190.76C211.07,-189.82 214.12,-188.86 216.99,-187.97 270.18,-171.48 303.75,-196.64 336.99,-151.97 352.37,-131.29 349.84,-116.32 336.99,-93.98 334.52,-89.69 281.47,-59.97 249.96,-42.59"/>
<polygon fill="red" stroke="red" stroke-width="0.28" points="251.4,-39.38 240.95,-37.63 248.02,-45.52 251.4,-39.38"/>
</g>
<!-- 4963 -->
<g id="node15" class="node">
<title>4963</title>
<ellipse fill="white" stroke="black" cx="28.99" cy="-122.97" rx="28.98" ry="28.98"/>
<text text-anchor="middle" x="28.99" y="-120.77" font-family="Times,serif" font-size="9.00">4963</text>
</g>
<!-- &#45;11&#45;&gt;4963 -->
<g id="edge10" class="edge">
<title>&#45;11&#45;&gt;4963</title>
<path fill="none" stroke="red" stroke-width="0.49" d="M175.97,-191.97C151.57,-185.53 104,-171.55 66.99,-151.97 64.65,-150.72 62.29,-149.35 59.95,-147.9"/>
<polygon fill="red" stroke="red" stroke-width="0.49" points="61.43,-144.67 51.17,-142 57.53,-150.48 61.43,-144.67"/>
</g>
<!-- &#45;12 -->
<g id="node12" class="node">
<title>&#45;12</title>
<polygon fill="lightgray" stroke="black" points="151.99,-131.97 119.99,-131.97 119.99,-113.97 151.99,-113.97 151.99,-131.97"/>
<text text-anchor="middle" x="135.99" y="-120.77" font-family="Times,serif" font-size="9.00">&#45;12</text>
</g>
<!-- &#45;12&#45;&gt;0 -->
<g id="edge2" class="edge">
<title>&#45;12&#45;&gt;0</title>
<path fill="none" stroke="red" stroke-width="0.48" d="M135.99,-113.81C135.99,-100.9 135.99,-75.23 135.99,-55.68"/>
<polygon fill="red" stroke="red" stroke-width="0.48" points="139.49,-55.57 135.99,-45.57 132.49,-55.57 139.49,-55.57"/>
</g>
<!-- &#45;12&#45;&gt;1 -->
<g id="edge4" class="edge">
<title>&#45;12&#45;&gt;1</title>
<path fill="none" stroke="green" stroke-width="0.57" stroke-dasharray="1,5" d="M143.28,-113.5C148.18,-107.88 154.86,-100.38 160.99,-93.98 176.37,-77.96 194.52,-60.46 207.9,-47.81"/>
<polygon fill="green" stroke="green" stroke-width="0.57" points="210.65,-50.02 215.54,-40.62 205.86,-44.92 210.65,-50.02"/>
</g>
<!-- 4963&#45;&gt;0 -->
<g id="edge11" class="edge">
<title>4963&#45;&gt;0</title>
<path fill="none" stroke="green" stroke-width="0.18" stroke-dasharray="1,5" d="M50.64,-103.36C69.9,-86.81 97.81,-62.81 116.41,-46.82"/>
<polygon fill="green" stroke="green" stroke-width="0.18" points="118.7,-49.47 124,-40.3 114.13,-44.17 118.7,-49.47"/>
</g>
</g>
</svg>
