<?xml version="1.0" encoding="UTF-8" standalone="no"?>
<!DOCTYPE svg PUBLIC "-//W3C//DTD SVG 1.1//EN"
 "http://www.w3.org/Graphics/SVG/1.1/DTD/svg11.dtd">
<!-- Generated by graphviz version 2.43.0 (0)
 -->
<!-- Title: %3 Pages: 1 -->
<svg width="920pt" height="189pt"
 viewBox="0.00 0.00 920.00 188.51" xmlns="http://www.w3.org/2000/svg" xmlns:xlink="http://www.w3.org/1999/xlink">
<g id="graph0" class="graph" transform="scale(1 1) rotate(0) translate(4 184.51)">
<title>%3</title>
<polygon fill="white" stroke="transparent" points="-4,4 -4,-184.51 916,-184.51 916,4 -4,4"/>
<!-- &#45;1 -->
<g id="node1" class="node">
<title>&#45;1</title>
<polygon fill="lightgray" stroke="black" points="517,-180.51 491,-180.51 491,-162.51 517,-162.51 517,-180.51"/>
<text text-anchor="middle" x="504" y="-169.31" font-family="Times,serif" font-size="9.00">&#45;1</text>
</g>
<!-- &#45;2 -->
<g id="node2" class="node">
<title>&#45;2</title>
<polygon fill="lightgray" stroke="black" points="226,-106.52 200,-106.52 200,-88.52 226,-88.52 226,-106.52"/>
<text text-anchor="middle" x="213" y="-95.32" font-family="Times,serif" font-size="9.00">&#45;2</text>
</g>
<!-- 1 -->
<g id="node22" class="node">
<title>1</title>
<ellipse fill="lightblue" stroke="black" cx="235" cy="-16.26" rx="16.03" ry="16.03"/>
<text text-anchor="middle" x="235" y="-14.06" font-family="Times,serif" font-size="9.00">1</text>
</g>
<!-- &#45;2&#45;&gt;1 -->
<g id="edge17" class="edge">
<title>&#45;2&#45;&gt;1</title>
<path fill="none" stroke="red" stroke-width="0.95" d="M215.27,-88.34C218.28,-77.5 223.72,-57.91 228.12,-42.04"/>
<polygon fill="red" stroke="red" stroke-width="0.95" points="231.53,-42.84 230.83,-32.27 224.79,-40.97 231.53,-42.84"/>
</g>
<!-- &#45;3 -->
<g id="node3" class="node">
<title>&#45;3</title>
<polygon fill="lightgray" stroke="black" points="640,-180.51 614,-180.51 614,-162.51 640,-162.51 640,-180.51"/>
<text text-anchor="middle" x="627" y="-169.31" font-family="Times,serif" font-size="9.00">&#45;3</text>
</g>
<!-- 0 -->
<g id="node21" class="node">
<title>0</title>
<ellipse fill="lightblue" stroke="black" cx="627" cy="-16.26" rx="16.03" ry="16.03"/>
<text text-anchor="middle" x="627" y="-14.06" font-family="Times,serif" font-size="9.00">0</text>
</g>
<!-- &#45;3&#45;&gt;0 -->
<g id="edge11" class="edge">
<title>&#45;3&#45;&gt;0</title>
<path fill="none" stroke="red" stroke-width="0.12" stroke-dasharray="1,5" d="M628.91,-162.46C630.89,-153.68 633.86,-139.19 635,-126.51 637.31,-100.84 636.99,-94.22 635,-68.53 634.33,-59.94 633.05,-50.61 631.7,-42.3"/>
<polygon fill="red" stroke="red" stroke-width="0.12" points="635.15,-41.7 630,-32.44 628.25,-42.89 635.15,-41.7"/>
</g>
<!-- 337 -->
<g id="node23" class="node">
<title>337</title>
<ellipse fill="white" stroke="black" cx="601" cy="-97.52" rx="25" ry="25"/>
<text text-anchor="middle" x="601" y="-95.32" font-family="Times,serif" font-size="9.00">337</text>
</g>
<!-- &#45;3&#45;&gt;337 -->
<g id="edge21" class="edge">
<title>&#45;3&#45;&gt;337</title>
<path fill="none" stroke="green" stroke-width="0.36" d="M624.02,-162.25C621.2,-154.46 616.8,-142.27 612.6,-130.63"/>
<polygon fill="green" stroke="green" stroke-width="0.36" points="615.84,-129.31 609.15,-121.09 609.26,-131.68 615.84,-129.31"/>
</g>
<!-- &#45;4 -->
<g id="node4" class="node">
<title>&#45;4</title>
<polygon fill="lightgray" stroke="black" points="784,-106.52 758,-106.52 758,-88.52 784,-88.52 784,-106.52"/>
<text text-anchor="middle" x="771" y="-95.32" font-family="Times,serif" font-size="9.00">&#45;4</text>
</g>
<!-- &#45;4&#45;&gt;0 -->
<g id="edge5" class="edge">
<title>&#45;4&#45;&gt;0</title>
<path fill="none" stroke="green" stroke-width="0.49" d="M766.12,-88.23C762.16,-82.1 756.08,-73.92 749,-68.53 719.45,-46.01 678.55,-31.48 652.43,-23.84"/>
<polygon fill="green" stroke="green" stroke-width="0.49" points="653.12,-20.4 642.54,-21.07 651.23,-27.14 653.12,-20.4"/>
</g>
<!-- &#45;5 -->
<g id="node5" class="node">
<title>&#45;5</title>
<polygon fill="lightgray" stroke="black" points="774,-180.51 748,-180.51 748,-162.51 774,-162.51 774,-180.51"/>
<text text-anchor="middle" x="761" y="-169.31" font-family="Times,serif" font-size="9.00">&#45;5</text>
</g>
<!-- &#45;5&#45;&gt;0 -->
<g id="edge20" class="edge">
<title>&#45;5&#45;&gt;0</title>
<path fill="none" stroke="green" stroke-width="0.41" stroke-dasharray="1,5" d="M769.45,-162.34C777.28,-154.14 788.38,-140.7 793,-126.51 800.97,-102 808.3,-89.26 793,-68.53 760.81,-24.9 691.98,-17.26 653.84,-16.59"/>
<polygon fill="green" stroke="green" stroke-width="0.41" points="653.51,-13.09 643.5,-16.56 653.49,-20.09 653.51,-13.09"/>
</g>
<!-- 1663 -->
<g id="node24" class="node">
<title>1663</title>
<ellipse fill="white" stroke="black" cx="711" cy="-97.52" rx="28.98" ry="28.98"/>
<text text-anchor="middle" x="711" y="-95.32" font-family="Times,serif" font-size="9.00">1663</text>
</g>
<!-- &#45;5&#45;&gt;1663 -->
<g id="edge22" class="edge">
<title>&#45;5&#45;&gt;1663</title>
<path fill="none" stroke="green" stroke-width="0.74" d="M755.26,-162.25C749.77,-154.35 741.14,-141.91 732.95,-130.12"/>
<polygon fill="green" stroke="green" stroke-width="0.74" points="735.69,-127.93 727.11,-121.71 729.94,-131.92 735.69,-127.93"/>
</g>
<!-- &#45;6 -->
<g id="node6" class="node">
<title>&#45;6</title>
<polygon fill="lightgray" stroke="black" points="270,-106.52 244,-106.52 244,-88.52 270,-88.52 270,-106.52"/>
<text text-anchor="middle" x="257" y="-95.32" font-family="Times,serif" font-size="9.00">&#45;6</text>
</g>
<!-- &#45;6&#45;&gt;1 -->
<g id="edge12" class="edge">
<title>&#45;6&#45;&gt;1</title>
<path fill="none" stroke="red" stroke-width="0.33" stroke-dasharray="1,5" d="M254.73,-88.34C251.72,-77.5 246.28,-57.91 241.88,-42.04"/>
<polygon fill="red" stroke="red" stroke-width="0.33" points="245.21,-40.97 239.17,-32.27 238.47,-42.84 245.21,-40.97"/>
</g>
<!-- &#45;7 -->
<g id="node7" class="node">
<title>&#45;7</title>
<polygon fill="lightgray" stroke="black" points="818,-180.51 792,-180.51 792,-162.51 818,-162.51 818,-180.51"/>
<text text-anchor="middle" x="805" y="-169.31" font-family="Times,serif" font-size="9.00">&#45;7</text>
</g>
<!-- &#45;8 -->
<g id="node8" class="node">
<title>&#45;8</title>
<polygon fill="lightgray" stroke="black" points="866,-106.52 840,-106.52 840,-88.52 866,-88.52 866,-106.52"/>
<text text-anchor="middle" x="853" y="-95.32" font-family="Times,serif" font-size="9.00">&#45;8</text>
</g>
<!-- &#45;8&#45;&gt;0 -->
<g id="edge13" class="edge">
<title>&#45;8&#45;&gt;0</title>
<path fill="none" stroke="red" stroke-width="0.78" d="M847.25,-88.46C842.31,-82.13 834.63,-73.56 826,-68.53 769.96,-35.86 693.13,-23.73 653.32,-19.45"/>
<polygon fill="red" stroke="red" stroke-width="0.78" points="653.65,-15.97 643.35,-18.46 652.95,-22.93 653.65,-15.97"/>
</g>
<!-- &#45;9 -->
<g id="node9" class="node">
<title>&#45;9</title>
<polygon fill="lightgray" stroke="black" points="862,-180.51 836,-180.51 836,-162.51 862,-162.51 862,-180.51"/>
<text text-anchor="middle" x="849" y="-169.31" font-family="Times,serif" font-size="9.00">&#45;9</text>
</g>
<!-- &#45;10 -->
<g id="node10" class="node">
<title>&#45;10</title>
<polygon fill="lightgray" stroke="black" points="320,-106.52 288,-106.52 288,-88.52 320,-88.52 320,-106.52"/>
<text text-anchor="middle" x="304" y="-95.32" font-family="Times,serif" font-size="9.00">&#45;10</text>
</g>
<!-- &#45;10&#45;&gt;1 -->
<g id="edge7" class="edge">
<title>&#45;10&#45;&gt;1</title>
<path fill="none" stroke="green" stroke-width="0.38" d="M296.88,-88.34C286.44,-76.35 266.67,-53.64 252.28,-37.11"/>
<polygon fill="green" stroke="green" stroke-width="0.38" points="254.52,-34.36 245.32,-29.12 249.24,-38.96 254.52,-34.36"/>
</g>
<!-- &#45;11 -->
<g id="node11" class="node">
<title>&#45;11</title>
<polygon fill="lightgray" stroke="black" points="520,-106.52 488,-106.52 488,-88.52 520,-88.52 520,-106.52"/>
<text text-anchor="middle" x="504" y="-95.32" font-family="Times,serif" font-size="9.00">&#45;11</text>
</g>
<!-- &#45;11&#45;&gt;0 -->
<g id="edge9" class="edge">
<title>&#45;11&#45;&gt;0</title>
<path fill="none" stroke="red" stroke-width="0.24" stroke-dasharray="1,5" d="M511.68,-88.34C517.48,-82.43 525.81,-74.46 534,-68.53 556.22,-52.42 584.04,-37.71 603.44,-28.22"/>
<polygon fill="red" stroke="red" stroke-width="0.24" points="604.98,-31.36 612.48,-23.88 601.95,-25.05 604.98,-31.36"/>
</g>
<!-- &#45;12 -->
<g id="node12" class="node">
<title>&#45;12</title>
<polygon fill="lightgray" stroke="black" points="370,-106.52 338,-106.52 338,-88.52 370,-88.52 370,-106.52"/>
<text text-anchor="middle" x="354" y="-95.32" font-family="Times,serif" font-size="9.00">&#45;12</text>
</g>
<!-- &#45;12&#45;&gt;1 -->
<g id="edge14" class="edge">
<title>&#45;12&#45;&gt;1</title>
<path fill="none" stroke="green" stroke-width="0.6" d="M348.05,-88.48C343.34,-82.49 336.35,-74.36 329,-68.53 307.32,-51.33 279.07,-36.8 259.22,-27.65"/>
<polygon fill="green" stroke="green" stroke-width="0.6" points="260.51,-24.39 249.95,-23.49 257.64,-30.78 260.51,-24.39"/>
</g>
<!-- &#45;13 -->
<g id="node13" class="node">
<title>&#45;13</title>
<polygon fill="lightgray" stroke="black" points="32,-106.52 0,-106.52 0,-88.52 32,-88.52 32,-106.52"/>
<text text-anchor="middle" x="16" y="-95.32" font-family="Times,serif" font-size="9.00">&#45;13</text>
</g>
<!-- &#45;13&#45;&gt;1 -->
<g id="edge3" class="edge">
<title>&#45;13&#45;&gt;1</title>
<path fill="none" stroke="green" stroke-width="0.34" d="M21.2,-88.47C25.71,-82.14 32.78,-73.57 41,-68.53 94.75,-35.57 169.46,-23.59 208.63,-19.4"/>
<polygon fill="green" stroke="green" stroke-width="0.34" points="209.08,-22.87 218.69,-18.41 208.4,-15.91 209.08,-22.87"/>
</g>
<!-- &#45;14 -->
<g id="node14" class="node">
<title>&#45;14</title>
<polygon fill="lightgray" stroke="black" points="82,-106.52 50,-106.52 50,-88.52 82,-88.52 82,-106.52"/>
<text text-anchor="middle" x="66" y="-95.32" font-family="Times,serif" font-size="9.00">&#45;14</text>
</g>
<!-- &#45;14&#45;&gt;1 -->
<g id="edge8" class="edge">
<title>&#45;14&#45;&gt;1</title>
<path fill="none" stroke="red" stroke-width="0.29" d="M71.7,-88.14C76.28,-81.96 83.21,-73.76 91,-68.53 128.23,-43.5 179.09,-29.17 209.34,-22.32"/>
<polygon fill="red" stroke="red" stroke-width="0.29" points="210.09,-25.74 219.13,-20.21 208.61,-18.9 210.09,-25.74"/>
</g>
<!-- &#45;15 -->
<g id="node15" class="node">
<title>&#45;15</title>
<polygon fill="lightgray" stroke="black" points="132,-106.52 100,-106.52 100,-88.52 132,-88.52 132,-106.52"/>
<text text-anchor="middle" x="116" y="-95.32" font-family="Times,serif" font-size="9.00">&#45;15</text>
</g>
<!-- &#45;15&#45;&gt;1 -->
<g id="edge24" class="edge">
<title>&#45;15&#45;&gt;1</title>
<path fill="none" stroke="green" stroke-width="0.21" d="M121.95,-88.48C126.66,-82.49 133.65,-74.36 141,-68.53 162.68,-51.33 190.93,-36.8 210.78,-27.65"/>
<polygon fill="green" stroke="green" stroke-width="0.21" points="212.36,-30.78 220.05,-23.49 209.49,-24.39 212.36,-30.78"/>
</g>
<!-- &#45;16 -->
<g id="node16" class="node">
<title>&#45;16</title>
<polygon fill="lightgray" stroke="black" points="182,-106.52 150,-106.52 150,-88.52 182,-88.52 182,-106.52"/>
<text text-anchor="middle" x="166" y="-95.32" font-family="Times,serif" font-size="9.00">&#45;16</text>
</g>
<!-- &#45;16&#45;&gt;1 -->
<g id="edge2" class="edge">
<title>&#45;16&#45;&gt;1</title>
<path fill="none" stroke="green" stroke-width="0.3" d="M173.12,-88.34C183.56,-76.35 203.33,-53.64 217.72,-37.11"/>
<polygon fill="green" stroke="green" stroke-width="0.3" points="220.76,-38.96 224.68,-29.12 215.48,-34.36 220.76,-38.96"/>
</g>
<!-- &#45;17 -->
<g id="node17" class="node">
<title>&#45;17</title>
<polygon fill="lightgray" stroke="black" points="420,-106.52 388,-106.52 388,-88.52 420,-88.52 420,-106.52"/>
<text text-anchor="middle" x="404" y="-95.32" font-family="Times,serif" font-size="9.00">&#45;17</text>
</g>
<!-- &#45;17&#45;&gt;0 -->
<g id="edge1" class="edge">
<title>&#45;17&#45;&gt;0</title>
<path fill="none" stroke="red" stroke-width="0.65" stroke-dasharray="1,5" d="M409.2,-88.46C413.7,-82.12 420.77,-73.55 429,-68.53 484.12,-34.91 560.83,-23.19 600.65,-19.21"/>
<polygon fill="red" stroke="red" stroke-width="0.65" points="600.99,-22.7 610.63,-18.31 600.35,-15.73 600.99,-22.7"/>
</g>
<!-- &#45;17&#45;&gt;1 -->
<g id="edge15" class="edge">
<title>&#45;17&#45;&gt;1</title>
<path fill="none" stroke="red" stroke-width="1.23" d="M398.3,-88.14C393.72,-81.96 386.79,-73.76 379,-68.53 341.77,-43.5 290.91,-29.17 260.66,-22.32"/>
<polygon fill="red" stroke="red" stroke-width="1.23" points="261.39,-18.9 250.87,-20.21 259.91,-25.74 261.39,-18.9"/>
</g>
<!-- &#45;18 -->
<g id="node18" class="node">
<title>&#45;18</title>
<polygon fill="lightgray" stroke="black" points="567,-180.51 535,-180.51 535,-162.51 567,-162.51 567,-180.51"/>
<text text-anchor="middle" x="551" y="-169.31" font-family="Times,serif" font-size="9.00">&#45;18</text>
</g>
<!-- &#45;18&#45;&gt;0 -->
<g id="edge16" class="edge">
<title>&#45;18&#45;&gt;0</title>
<path fill="none" stroke="green" stroke-width="0.47" stroke-dasharray="1,5" d="M550.45,-162.5C549.58,-144.46 549.51,-99.81 567,-68.53 575.8,-52.79 591.41,-39.68 604.5,-30.66"/>
<polygon fill="green" stroke="green" stroke-width="0.47" points="606.59,-33.48 613.05,-25.09 602.76,-27.62 606.59,-33.48"/>
</g>
<!-- &#45;18&#45;&gt;337 -->
<g id="edge18" class="edge">
<title>&#45;18&#45;&gt;337</title>
<path fill="none" stroke="green" stroke-width="0.2" d="M556.74,-162.25C562.74,-153.61 572.5,-139.55 581.33,-126.84"/>
<polygon fill="green" stroke="green" stroke-width="0.2" points="584.41,-128.54 587.24,-118.33 578.66,-124.55 584.41,-128.54"/>
</g>
<!-- &#45;19 -->
<g id="node19" class="node">
<title>&#45;19</title>
<polygon fill="lightgray" stroke="black" points="470,-106.52 438,-106.52 438,-88.52 470,-88.52 470,-106.52"/>
<text text-anchor="middle" x="454" y="-95.32" font-family="Times,serif" font-size="9.00">&#45;19</text>
</g>
<!-- &#45;19&#45;&gt;0 -->
<g id="edge6" class="edge">
<title>&#45;19&#45;&gt;0</title>
<path fill="none" stroke="green" stroke-width="0.32" d="M459.5,-88.38C464.06,-82.16 471.08,-73.8 479,-68.53 517.46,-42.91 570.09,-28.71 601.12,-22.06"/>
<polygon fill="green" stroke="green" stroke-width="0.32" points="602.04,-25.45 611.13,-20.02 600.64,-18.59 602.04,-25.45"/>
</g>
<!-- &#45;19&#45;&gt;1 -->
<g id="edge4" class="edge">
<title>&#45;19&#45;&gt;1</title>
<path fill="none" stroke="red" stroke-width="0.52" d="M448.8,-88.47C444.29,-82.14 437.22,-73.57 429,-68.53 375.25,-35.57 300.54,-23.59 261.37,-19.4"/>
<polygon fill="red" stroke="red" stroke-width="0.52" points="261.6,-15.91 251.31,-18.41 260.92,-22.87 261.6,-15.91"/>
</g>
<!-- &#45;20 -->
<g id="node20" class="node">
<title>&#45;20</title>
<polygon fill="lightgray" stroke="black" points="912,-180.51 880,-180.51 880,-162.51 912,-162.51 912,-180.51"/>
<text text-anchor="middle" x="896" y="-169.31" font-family="Times,serif" font-size="9.00">&#45;20</text>
</g>
<!-- 1&#45;&gt;1 -->
<g id="edge10" class="edge">
<title>1&#45;&gt;1</title>
<path fill="none" stroke="green" stroke-width="0.86" d="M246.23,-28.18C257.21,-34.77 269.26,-30.79 269.26,-16.26 269.26,-6.05 263.3,-1.05 255.95,-1.27"/>
<polygon fill="green" stroke="green" stroke-width="0.86" points="254.71,2.01 246.23,-4.34 256.82,-4.67 254.71,2.01"/>
</g>
<!-- 337&#45;&gt;0 -->
<g id="edge19" class="edge">
<title>337&#45;&gt;0</title>
<path fill="none" stroke="green" stroke-width="1.12" d="M608.52,-73.59C611.8,-63.58 615.66,-51.83 619,-41.66"/>
<polygon fill="green" stroke="green" stroke-width="1.12" points="622.33,-42.73 622.12,-32.13 615.68,-40.54 622.33,-42.73"/>
</g>
<!-- 1663&#45;&gt;0 -->
<g id="edge23" class="edge">
<title>1663&#45;&gt;0</title>
<path fill="none" stroke="red" stroke-width="0.11" d="M690.24,-76.93C676.72,-64.17 659.22,-47.66 646.05,-35.24"/>
<polygon fill="red" stroke="red" stroke-width="0.11" points="648.17,-32.42 638.49,-28.11 643.36,-37.52 648.17,-32.42"/>
</g>
</g>
</svg>
