<?xml version="1.0" encoding="UTF-8" standalone="no"?>
<!DOCTYPE svg PUBLIC "-//W3C//DTD SVG 1.1//EN"
 "http://www.w3.org/Graphics/SVG/1.1/DTD/svg11.dtd">
<!-- Generated by graphviz version 2.43.0 (0)
 -->
<!-- Title: %3 Pages: 1 -->
<svg width="1439pt" height="282pt"
 viewBox="0.00 0.00 1439.00 282.49" xmlns="http://www.w3.org/2000/svg" xmlns:xlink="http://www.w3.org/1999/xlink">
<g id="graph0" class="graph" transform="scale(1 1) rotate(0) translate(4 278.49)">
<title>%3</title>
<polygon fill="white" stroke="transparent" points="-4,4 -4,-278.49 1435,-278.49 1435,4 -4,4"/>
<!-- &#45;1 -->
<g id="node1" class="node">
<title>&#45;1</title>
<polygon fill="lightgray" stroke="black" points="26,-106.52 0,-106.52 0,-88.52 26,-88.52 26,-106.52"/>
<text text-anchor="middle" x="13" y="-95.32" font-family="Times,serif" font-size="9.00">&#45;1</text>
</g>
<!-- 1 -->
<g id="node30" class="node">
<title>1</title>
<ellipse fill="lightblue" stroke="black" cx="264" cy="-16.26" rx="16.03" ry="16.03"/>
<text text-anchor="middle" x="264" y="-14.06" font-family="Times,serif" font-size="9.00">1</text>
</g>
<!-- &#45;1&#45;&gt;1 -->
<g id="edge19" class="edge">
<title>&#45;1&#45;&gt;1</title>
<path fill="none" stroke="red" stroke-width="0.23" d="M17.31,-88.38C21.12,-82 27.26,-73.41 35,-68.53 99.63,-27.78 192.46,-19.22 237.49,-17.56"/>
<polygon fill="red" stroke="red" stroke-width="0.23" points="237.72,-21.05 247.61,-17.27 237.52,-14.06 237.72,-21.05"/>
</g>
<!-- &#45;2 -->
<g id="node2" class="node">
<title>&#45;2</title>
<polygon fill="lightgray" stroke="black" points="490,-106.52 464,-106.52 464,-88.52 490,-88.52 490,-106.52"/>
<text text-anchor="middle" x="477" y="-95.32" font-family="Times,serif" font-size="9.00">&#45;2</text>
</g>
<!-- 0 -->
<g id="node29" class="node">
<title>0</title>
<ellipse fill="lightblue" stroke="black" cx="731" cy="-16.26" rx="16.03" ry="16.03"/>
<text text-anchor="middle" x="731" y="-14.06" font-family="Times,serif" font-size="9.00">0</text>
</g>
<!-- &#45;2&#45;&gt;0 -->
<g id="edge7" class="edge">
<title>&#45;2&#45;&gt;0</title>
<path fill="none" stroke="green" stroke-width="0.2" stroke-dasharray="1,5" d="M481.31,-88.38C485.11,-81.99 491.25,-73.39 499,-68.53 564.66,-27.26 659,-18.96 704.49,-17.46"/>
<polygon fill="green" stroke="green" stroke-width="0.2" points="704.79,-20.95 714.7,-17.21 704.62,-13.95 704.79,-20.95"/>
</g>
<!-- &#45;2&#45;&gt;1 -->
<g id="edge9" class="edge">
<title>&#45;2&#45;&gt;1</title>
<path fill="none" stroke="green" stroke-width="0.29" d="M472.63,-88.47C468.79,-82.13 462.63,-73.57 455,-68.53 403.14,-34.29 329.14,-22.84 290.23,-19.07"/>
<polygon fill="green" stroke="green" stroke-width="0.29" points="290.5,-15.58 280.23,-18.2 289.89,-22.55 290.5,-15.58"/>
</g>
<!-- &#45;3 -->
<g id="node3" class="node">
<title>&#45;3</title>
<polygon fill="lightgray" stroke="black" points="70,-106.52 44,-106.52 44,-88.52 70,-88.52 70,-106.52"/>
<text text-anchor="middle" x="57" y="-95.32" font-family="Times,serif" font-size="9.00">&#45;3</text>
</g>
<!-- &#45;3&#45;&gt;1 -->
<g id="edge24" class="edge">
<title>&#45;3&#45;&gt;1</title>
<path fill="none" stroke="red" stroke-width="0.81" d="M61.38,-88.48C65.22,-82.16 71.39,-73.6 79,-68.53 128.74,-35.4 199.56,-23.53 237.53,-19.39"/>
<polygon fill="red" stroke="red" stroke-width="0.81" points="238.15,-22.85 247.76,-18.38 237.46,-15.88 238.15,-22.85"/>
</g>
<!-- &#45;4 -->
<g id="node4" class="node">
<title>&#45;4</title>
<polygon fill="lightgray" stroke="black" points="578,-106.52 552,-106.52 552,-88.52 578,-88.52 578,-106.52"/>
<text text-anchor="middle" x="565" y="-95.32" font-family="Times,serif" font-size="9.00">&#45;4</text>
</g>
<!-- &#45;4&#45;&gt;0 -->
<g id="edge3" class="edge">
<title>&#45;4&#45;&gt;0</title>
<path fill="none" stroke="red" stroke-width="0.4" d="M569.64,-88.37C573.55,-82.16 579.67,-73.79 587,-68.53 623.43,-42.34 674.55,-28.38 705.06,-21.92"/>
<polygon fill="red" stroke="red" stroke-width="0.4" points="705.82,-25.34 714.94,-19.94 704.45,-18.48 705.82,-25.34"/>
</g>
<!-- &#45;5 -->
<g id="node5" class="node">
<title>&#45;5</title>
<polygon fill="lightgray" stroke="black" points="114,-106.52 88,-106.52 88,-88.52 114,-88.52 114,-106.52"/>
<text text-anchor="middle" x="101" y="-95.32" font-family="Times,serif" font-size="9.00">&#45;5</text>
</g>
<!-- &#45;5&#45;&gt;1 -->
<g id="edge2" class="edge">
<title>&#45;5&#45;&gt;1</title>
<path fill="none" stroke="red" stroke-width="0.29" d="M105.65,-88.39C109.56,-82.18 115.69,-73.82 123,-68.53 158.32,-42.95 207.76,-28.9 237.73,-22.24"/>
<polygon fill="red" stroke="red" stroke-width="0.29" points="238.77,-25.6 247.84,-20.11 237.33,-18.75 238.77,-25.6"/>
</g>
<!-- &#45;6 -->
<g id="node6" class="node">
<title>&#45;6</title>
<polygon fill="lightgray" stroke="black" points="1131,-274.49 1105,-274.49 1105,-256.49 1131,-256.49 1131,-274.49"/>
<text text-anchor="middle" x="1118" y="-263.29" font-family="Times,serif" font-size="9.00">&#45;6</text>
</g>
<!-- &#45;7 -->
<g id="node7" class="node">
<title>&#45;7</title>
<polygon fill="lightgray" stroke="black" points="158,-106.52 132,-106.52 132,-88.52 158,-88.52 158,-106.52"/>
<text text-anchor="middle" x="145" y="-95.32" font-family="Times,serif" font-size="9.00">&#45;7</text>
</g>
<!-- &#45;7&#45;&gt;1 -->
<g id="edge10" class="edge">
<title>&#45;7&#45;&gt;1</title>
<path fill="none" stroke="green" stroke-width="0.42" stroke-dasharray="1,5" d="M150.02,-88.41C154.06,-82.37 160.17,-74.23 167,-68.53 189.12,-50.07 218.96,-35.53 239.68,-26.72"/>
<polygon fill="green" stroke="green" stroke-width="0.42" points="241.13,-29.9 249.04,-22.86 238.46,-23.43 241.13,-29.9"/>
</g>
<!-- &#45;8 -->
<g id="node8" class="node">
<title>&#45;8</title>
<polygon fill="lightgray" stroke="black" points="534,-106.52 508,-106.52 508,-88.52 534,-88.52 534,-106.52"/>
<text text-anchor="middle" x="521" y="-95.32" font-family="Times,serif" font-size="9.00">&#45;8</text>
</g>
<!-- &#45;8&#45;&gt;0 -->
<g id="edge18" class="edge">
<title>&#45;8&#45;&gt;0</title>
<path fill="none" stroke="green" stroke-width="0.16" stroke-dasharray="1,5" d="M525.37,-88.48C529.21,-82.15 535.38,-73.58 543,-68.53 593.69,-34.92 665.88,-23.24 704.39,-19.25"/>
<polygon fill="green" stroke="green" stroke-width="0.16" points="705.13,-22.7 714.76,-18.29 704.48,-15.73 705.13,-22.7"/>
</g>
<!-- &#45;8&#45;&gt;1 -->
<g id="edge13" class="edge">
<title>&#45;8&#45;&gt;1</title>
<path fill="none" stroke="red" stroke-width="0.48" d="M516.7,-88.37C512.89,-81.98 506.75,-73.38 499,-68.53 432.33,-26.76 336.52,-18.7 290.56,-17.36"/>
<polygon fill="red" stroke="red" stroke-width="0.48" points="290.58,-13.86 280.51,-17.15 290.44,-20.86 290.58,-13.86"/>
</g>
<!-- &#45;9 -->
<g id="node9" class="node">
<title>&#45;9</title>
<polygon fill="lightgray" stroke="black" points="622,-106.52 596,-106.52 596,-88.52 622,-88.52 622,-106.52"/>
<text text-anchor="middle" x="609" y="-95.32" font-family="Times,serif" font-size="9.00">&#45;9</text>
</g>
<!-- &#45;9&#45;&gt;0 -->
<g id="edge25" class="edge">
<title>&#45;9&#45;&gt;0</title>
<path fill="none" stroke="green" stroke-width="0.48" stroke-dasharray="1,5" d="M614,-88.38C618.03,-82.34 624.13,-74.19 631,-68.53 654.01,-49.57 685.18,-34.98 706.57,-26.3"/>
<polygon fill="green" stroke="green" stroke-width="0.48" points="707.89,-29.54 715.92,-22.62 705.33,-23.02 707.89,-29.54"/>
</g>
<!-- &#45;10 -->
<g id="node10" class="node">
<title>&#45;10</title>
<polygon fill="lightgray" stroke="black" points="1181,-274.49 1149,-274.49 1149,-256.49 1181,-256.49 1181,-274.49"/>
<text text-anchor="middle" x="1165" y="-263.29" font-family="Times,serif" font-size="9.00">&#45;10</text>
</g>
<!-- &#45;11 -->
<g id="node11" class="node">
<title>&#45;11</title>
<polygon fill="lightgray" stroke="black" points="672,-106.52 640,-106.52 640,-88.52 672,-88.52 672,-106.52"/>
<text text-anchor="middle" x="656" y="-95.32" font-family="Times,serif" font-size="9.00">&#45;11</text>
</g>
<!-- &#45;11&#45;&gt;0 -->
<g id="edge22" class="edge">
<title>&#45;11&#45;&gt;0</title>
<path fill="none" stroke="red" stroke-width="0.27" d="M663.34,-88.1C668.28,-82.5 674.95,-75 681,-68.53 691.31,-57.48 703.1,-45.37 712.64,-35.7"/>
<polygon fill="red" stroke="red" stroke-width="0.27" points="715.19,-38.1 719.73,-28.53 710.21,-33.17 715.19,-38.1"/>
</g>
<!-- &#45;12 -->
<g id="node12" class="node">
<title>&#45;12</title>
<polygon fill="lightgray" stroke="black" points="722,-106.52 690,-106.52 690,-88.52 722,-88.52 722,-106.52"/>
<text text-anchor="middle" x="706" y="-95.32" font-family="Times,serif" font-size="9.00">&#45;12</text>
</g>
<!-- &#45;12&#45;&gt;0 -->
<g id="edge26" class="edge">
<title>&#45;12&#45;&gt;0</title>
<path fill="none" stroke="red" stroke-width="0.17" d="M708.58,-88.34C712.02,-77.43 718.25,-57.67 723.28,-41.75"/>
<polygon fill="red" stroke="red" stroke-width="0.17" points="726.69,-42.56 726.36,-31.97 720.01,-40.46 726.69,-42.56"/>
</g>
<!-- &#45;13 -->
<g id="node13" class="node">
<title>&#45;13</title>
<polygon fill="lightgray" stroke="black" points="772,-106.52 740,-106.52 740,-88.52 772,-88.52 772,-106.52"/>
<text text-anchor="middle" x="756" y="-95.32" font-family="Times,serif" font-size="9.00">&#45;13</text>
</g>
<!-- &#45;13&#45;&gt;0 -->
<g id="edge5" class="edge">
<title>&#45;13&#45;&gt;0</title>
<path fill="none" stroke="green" stroke-width="0.36" d="M753.42,-88.34C749.98,-77.43 743.75,-57.67 738.72,-41.75"/>
<polygon fill="green" stroke="green" stroke-width="0.36" points="741.99,-40.46 735.64,-31.97 735.31,-42.56 741.99,-40.46"/>
</g>
<!-- &#45;14 -->
<g id="node14" class="node">
<title>&#45;14</title>
<polygon fill="lightgray" stroke="black" points="1231,-274.49 1199,-274.49 1199,-256.49 1231,-256.49 1231,-274.49"/>
<text text-anchor="middle" x="1215" y="-263.29" font-family="Times,serif" font-size="9.00">&#45;14</text>
</g>
<!-- &#45;15 -->
<g id="node15" class="node">
<title>&#45;15</title>
<polygon fill="lightgray" stroke="black" points="1281,-274.49 1249,-274.49 1249,-256.49 1281,-256.49 1281,-274.49"/>
<text text-anchor="middle" x="1265" y="-263.29" font-family="Times,serif" font-size="9.00">&#45;15</text>
</g>
<!-- &#45;16 -->
<g id="node16" class="node">
<title>&#45;16</title>
<polygon fill="lightgray" stroke="black" points="208,-106.52 176,-106.52 176,-88.52 208,-88.52 208,-106.52"/>
<text text-anchor="middle" x="192" y="-95.32" font-family="Times,serif" font-size="9.00">&#45;16</text>
</g>
<!-- &#45;16&#45;&gt;1 -->
<g id="edge8" class="edge">
<title>&#45;16&#45;&gt;1</title>
<path fill="none" stroke="red" stroke-width="0.21" d="M199.41,-88.16C204.37,-82.59 211.05,-75.1 217,-68.53 226.62,-57.9 237.43,-46.1 246.25,-36.5"/>
<polygon fill="red" stroke="red" stroke-width="0.21" points="248.93,-38.76 253.13,-29.03 243.78,-34.02 248.93,-38.76"/>
</g>
<!-- &#45;17 -->
<g id="node17" class="node">
<title>&#45;17</title>
<polygon fill="lightgray" stroke="black" points="258,-106.52 226,-106.52 226,-88.52 258,-88.52 258,-106.52"/>
<text text-anchor="middle" x="242" y="-95.32" font-family="Times,serif" font-size="9.00">&#45;17</text>
</g>
<!-- &#45;17&#45;&gt;1 -->
<g id="edge11" class="edge">
<title>&#45;17&#45;&gt;1</title>
<path fill="none" stroke="red" stroke-width="0.31" d="M244.27,-88.34C247.28,-77.5 252.72,-57.91 257.12,-42.04"/>
<polygon fill="red" stroke="red" stroke-width="0.31" points="260.53,-42.84 259.83,-32.27 253.79,-40.97 260.53,-42.84"/>
</g>
<!-- &#45;18 -->
<g id="node18" class="node">
<title>&#45;18</title>
<polygon fill="lightgray" stroke="black" points="396,-106.52 364,-106.52 364,-88.52 396,-88.52 396,-106.52"/>
<text text-anchor="middle" x="380" y="-95.32" font-family="Times,serif" font-size="9.00">&#45;18</text>
</g>
<!-- &#45;18&#45;&gt;0 -->
<g id="edge15" class="edge">
<title>&#45;18&#45;&gt;0</title>
<path fill="none" stroke="red" stroke-width="0.58" d="M384.89,-88.5C389.31,-82.01 396.42,-73.2 405,-68.53 456.83,-40.29 636.39,-24.3 704.51,-19.13"/>
<polygon fill="red" stroke="red" stroke-width="0.58" points="705.1,-22.6 714.81,-18.37 704.58,-15.62 705.1,-22.6"/>
</g>
<!-- &#45;18&#45;&gt;1 -->
<g id="edge1" class="edge">
<title>&#45;18&#45;&gt;1</title>
<path fill="none" stroke="green" stroke-width="0.48" d="M374.03,-88.51C369.31,-82.53 362.31,-74.41 355,-68.53 334.18,-51.78 307.19,-37.33 288.02,-28.08"/>
<polygon fill="green" stroke="green" stroke-width="0.48" points="289.32,-24.83 278.79,-23.73 286.34,-31.16 289.32,-24.83"/>
</g>
<!-- &#45;19 -->
<g id="node19" class="node">
<title>&#45;19</title>
<polygon fill="lightgray" stroke="black" points="822,-106.52 790,-106.52 790,-88.52 822,-88.52 822,-106.52"/>
<text text-anchor="middle" x="806" y="-95.32" font-family="Times,serif" font-size="9.00">&#45;19</text>
</g>
<!-- &#45;19&#45;&gt;0 -->
<g id="edge12" class="edge">
<title>&#45;19&#45;&gt;0</title>
<path fill="none" stroke="red" stroke-width="0.1" stroke-dasharray="1,5" d="M798.66,-88.1C793.72,-82.5 787.05,-75 781,-68.53 770.69,-57.48 758.9,-45.37 749.36,-35.7"/>
<polygon fill="red" stroke="red" stroke-width="0.1" points="751.79,-33.17 742.27,-28.53 746.81,-38.1 751.79,-33.17"/>
</g>
<!-- &#45;20 -->
<g id="node20" class="node">
<title>&#45;20</title>
<polygon fill="lightgray" stroke="black" points="872,-106.52 840,-106.52 840,-88.52 872,-88.52 872,-106.52"/>
<text text-anchor="middle" x="856" y="-95.32" font-family="Times,serif" font-size="9.00">&#45;20</text>
</g>
<!-- &#45;20&#45;&gt;0 -->
<g id="edge20" class="edge">
<title>&#45;20&#45;&gt;0</title>
<path fill="none" stroke="green" stroke-width="0.29" d="M850.1,-88.43C845.41,-82.4 838.43,-74.26 831,-68.53 807.41,-50.3 776.35,-35.57 755.15,-26.65"/>
<polygon fill="green" stroke="green" stroke-width="0.29" points="756.47,-23.41 745.88,-22.86 753.82,-29.89 756.47,-23.41"/>
</g>
<!-- &#45;21 -->
<g id="node21" class="node">
<title>&#45;21</title>
<polygon fill="lightgray" stroke="black" points="916,-274.49 884,-274.49 884,-256.49 916,-256.49 916,-274.49"/>
<text text-anchor="middle" x="900" y="-263.29" font-family="Times,serif" font-size="9.00">&#45;21</text>
</g>
<!-- &#45;21&#45;&gt;0 -->
<g id="edge17" class="edge">
<title>&#45;21&#45;&gt;0</title>
<path fill="none" stroke="green" stroke-width="0.24" stroke-dasharray="1,5" d="M902.01,-256.28C908.67,-227.06 927.01,-126.71 881,-68.53 851.12,-30.74 791.96,-20.66 757.54,-18.06"/>
<polygon fill="green" stroke="green" stroke-width="0.24" points="757.5,-14.55 747.31,-17.46 757.08,-21.54 757.5,-14.55"/>
</g>
<!-- &#45;21&#45;&gt;1 -->
<g id="edge21" class="edge">
<title>&#45;21&#45;&gt;1</title>
<path fill="none" stroke="green" stroke-width="0.52" d="M883.75,-262.79C797.72,-253.5 396,-206.29 305,-126.51 280.59,-105.1 270.67,-67.68 266.67,-42.68"/>
<polygon fill="green" stroke="green" stroke-width="0.52" points="270.1,-41.92 265.25,-32.5 263.16,-42.88 270.1,-41.92"/>
</g>
<!-- 6523 -->
<g id="node33" class="node">
<title>6523</title>
<ellipse fill="white" stroke="black" cx="1071" cy="-191.5" rx="28.98" ry="28.98"/>
<text text-anchor="middle" x="1071" y="-189.3" font-family="Times,serif" font-size="9.00">6523</text>
</g>
<!-- &#45;21&#45;&gt;6523 -->
<g id="edge27" class="edge">
<title>&#45;21&#45;&gt;6523</title>
<path fill="none" stroke="green" stroke-width="0.53" d="M916.09,-257.72C943.18,-246.31 998.54,-223.01 1035.21,-207.57"/>
<polygon fill="green" stroke="green" stroke-width="0.53" points="1036.7,-210.74 1044.56,-203.63 1033.99,-204.29 1036.7,-210.74"/>
</g>
<!-- &#45;22 -->
<g id="node22" class="node">
<title>&#45;22</title>
<polygon fill="lightgray" stroke="black" points="1331,-274.49 1299,-274.49 1299,-256.49 1331,-256.49 1331,-274.49"/>
<text text-anchor="middle" x="1315" y="-263.29" font-family="Times,serif" font-size="9.00">&#45;22</text>
</g>
<!-- &#45;23 -->
<g id="node23" class="node">
<title>&#45;23</title>
<polygon fill="lightgray" stroke="black" points="346,-106.52 314,-106.52 314,-88.52 346,-88.52 346,-106.52"/>
<text text-anchor="middle" x="330" y="-95.32" font-family="Times,serif" font-size="9.00">&#45;23</text>
</g>
<!-- &#45;23&#45;&gt;1 -->
<g id="edge23" class="edge">
<title>&#45;23&#45;&gt;1</title>
<path fill="none" stroke="red" stroke-width="0.25" d="M323.19,-88.34C313.26,-76.41 294.5,-53.89 280.76,-37.39"/>
<polygon fill="red" stroke="red" stroke-width="0.25" points="283.19,-34.84 274.1,-29.39 277.81,-39.32 283.19,-34.84"/>
</g>
<!-- &#45;24 -->
<g id="node24" class="node">
<title>&#45;24</title>
<polygon fill="lightgray" stroke="black" points="446,-106.52 414,-106.52 414,-88.52 446,-88.52 446,-106.52"/>
<text text-anchor="middle" x="430" y="-95.32" font-family="Times,serif" font-size="9.00">&#45;24</text>
</g>
<!-- &#45;24&#45;&gt;0 -->
<g id="edge14" class="edge">
<title>&#45;24&#45;&gt;0</title>
<path fill="none" stroke="green" stroke-width="1.5" d="M435.11,-88.3C439.55,-81.87 446.6,-73.26 455,-68.53 537.1,-22.31 652.59,-16.66 704.23,-16.67"/>
<polygon fill="green" stroke="green" stroke-width="1.5" points="704.5,-20.17 714.52,-16.74 704.55,-13.17 704.5,-20.17"/>
</g>
<!-- &#45;24&#45;&gt;1 -->
<g id="edge16" class="edge">
<title>&#45;24&#45;&gt;1</title>
<path fill="none" stroke="red" stroke-width="0.11" d="M424.29,-88.15C419.71,-81.99 412.77,-73.79 405,-68.53 368.89,-44.07 319.7,-29.68 289.98,-22.64"/>
<polygon fill="red" stroke="red" stroke-width="0.11" points="290.5,-19.17 279.98,-20.38 288.96,-26 290.5,-19.17"/>
</g>
<!-- &#45;25 -->
<g id="node25" class="node">
<title>&#45;25</title>
<polygon fill="lightgray" stroke="black" points="1087,-274.49 1055,-274.49 1055,-256.49 1087,-256.49 1087,-274.49"/>
<text text-anchor="middle" x="1071" y="-263.29" font-family="Times,serif" font-size="9.00">&#45;25</text>
</g>
<!-- &#45;25&#45;&gt;6523 -->
<g id="edge33" class="edge">
<title>&#45;25&#45;&gt;6523</title>
<path fill="none" stroke="red" stroke-width="0.65" d="M1071,-256.23C1071,-249.77 1071,-240.26 1071,-230.56"/>
<polygon fill="red" stroke="red" stroke-width="0.65" points="1074.5,-230.5 1071,-220.5 1067.5,-230.5 1074.5,-230.5"/>
</g>
<!-- &#45;26 -->
<g id="node26" class="node">
<title>&#45;26</title>
<polygon fill="lightgray" stroke="black" points="986,-200.5 954,-200.5 954,-182.5 986,-182.5 986,-200.5"/>
<text text-anchor="middle" x="970" y="-189.3" font-family="Times,serif" font-size="9.00">&#45;26</text>
</g>
<!-- &#45;26&#45;&gt;0 -->
<g id="edge6" class="edge">
<title>&#45;26&#45;&gt;0</title>
<path fill="none" stroke="green" stroke-width="0.52" stroke-dasharray="1,5" d="M968.66,-182.25C964.66,-160.27 950.68,-99.85 914,-68.53 868.78,-29.92 796.54,-20.26 757.73,-17.93"/>
<polygon fill="green" stroke="green" stroke-width="0.52" points="757.43,-14.41 747.27,-17.43 757.1,-21.4 757.43,-14.41"/>
</g>
<!-- 6582 -->
<g id="node32" class="node">
<title>6582</title>
<ellipse fill="white" stroke="black" cx="995" cy="-97.52" rx="28.98" ry="28.98"/>
<text text-anchor="middle" x="995" y="-95.32" font-family="Times,serif" font-size="9.00">6582</text>
</g>
<!-- &#45;26&#45;&gt;6582 -->
<g id="edge31" class="edge">
<title>&#45;26&#45;&gt;6582</title>
<path fill="none" stroke="green" stroke-width="0.18" d="M972.22,-182.34C975.08,-171.83 980.23,-152.86 984.92,-135.62"/>
<polygon fill="green" stroke="green" stroke-width="0.18" points="988.35,-136.31 987.6,-125.74 981.6,-134.48 988.35,-136.31"/>
</g>
<!-- &#45;27 -->
<g id="node27" class="node">
<title>&#45;27</title>
<polygon fill="lightgray" stroke="black" points="1381,-274.49 1349,-274.49 1349,-256.49 1381,-256.49 1381,-274.49"/>
<text text-anchor="middle" x="1365" y="-263.29" font-family="Times,serif" font-size="9.00">&#45;27</text>
</g>
<!-- &#45;28 -->
<g id="node28" class="node">
<title>&#45;28</title>
<polygon fill="lightgray" stroke="black" points="1431,-274.49 1399,-274.49 1399,-256.49 1431,-256.49 1431,-274.49"/>
<text text-anchor="middle" x="1415" y="-263.29" font-family="Times,serif" font-size="9.00">&#45;28</text>
</g>
<!-- 0&#45;&gt;0 -->
<g id="edge4" class="edge">
<title>0&#45;&gt;0</title>
<path fill="none" stroke="green" stroke-width="0.32" d="M742.23,-28.18C753.21,-34.77 765.26,-30.79 765.26,-16.26 765.26,-6.05 759.3,-1.05 751.95,-1.27"/>
<polygon fill="green" stroke="green" stroke-width="0.32" points="750.71,2.01 742.23,-4.34 752.82,-4.67 750.71,2.01"/>
</g>
<!-- 6555 -->
<g id="node31" class="node">
<title>6555</title>
<ellipse fill="white" stroke="black" cx="1071" cy="-97.52" rx="28.98" ry="28.98"/>
<text text-anchor="middle" x="1071" y="-95.32" font-family="Times,serif" font-size="9.00">6555</text>
</g>
<!-- 6555&#45;&gt;0 -->
<g id="edge30" class="edge">
<title>6555&#45;&gt;0</title>
<path fill="none" stroke="red" stroke-width="0.24" d="M1049.15,-77.78C1044.11,-74.24 1038.58,-70.9 1033,-68.53 937.29,-27.89 811.6,-19.42 757.57,-17.69"/>
<polygon fill="red" stroke="red" stroke-width="0.24" points="757.55,-14.19 747.46,-17.42 757.36,-21.19 757.55,-14.19"/>
</g>
<!-- 6582&#45;&gt;0 -->
<g id="edge32" class="edge">
<title>6582&#45;&gt;0</title>
<path fill="none" stroke="red" stroke-width="0.17" d="M972.17,-79.56C965.88,-75.48 958.88,-71.46 952,-68.53 884.99,-40 799.49,-25.94 757.16,-20.33"/>
<polygon fill="red" stroke="red" stroke-width="0.17" points="757.49,-16.84 747.13,-19.05 756.61,-23.79 757.49,-16.84"/>
</g>
<!-- 6523&#45;&gt;0 -->
<g id="edge28" class="edge">
<title>6523&#45;&gt;0</title>
<path fill="none" stroke="green" stroke-width="0.15" stroke-dasharray="1,5" d="M1089.04,-168.54C1108.61,-141.92 1133.95,-97.09 1109,-68.53 1085.81,-41.98 839.67,-24.13 757.52,-18.87"/>
<polygon fill="green" stroke="green" stroke-width="0.15" points="757.68,-15.38 747.48,-18.24 757.24,-22.36 757.68,-15.38"/>
</g>
<!-- 6523&#45;&gt;6555 -->
<g id="edge29" class="edge">
<title>6523&#45;&gt;6555</title>
<path fill="none" stroke="green" stroke-width="0.32" stroke-dasharray="1,5" d="M1071,-162.4C1071,-154.37 1071,-145.46 1071,-136.92"/>
<polygon fill="green" stroke="green" stroke-width="0.32" points="1074.5,-136.76 1071,-126.76 1067.5,-136.76 1074.5,-136.76"/>
</g>
</g>
</svg>
