<?xml version="1.0" encoding="UTF-8" standalone="no"?>
<!DOCTYPE svg PUBLIC "-//W3C//DTD SVG 1.1//EN"
 "http://www.w3.org/Graphics/SVG/1.1/DTD/svg11.dtd">
<!-- Generated by graphviz version 2.43.0 (0)
 -->
<!-- Title: %3 Pages: 1 -->
<svg width="936pt" height="95pt"
 viewBox="0.00 0.00 936.00 94.53" xmlns="http://www.w3.org/2000/svg" xmlns:xlink="http://www.w3.org/1999/xlink">
<g id="graph0" class="graph" transform="scale(1 1) rotate(0) translate(4 90.53)">
<title>%3</title>
<polygon fill="white" stroke="transparent" points="-4,4 -4,-90.53 932,-90.53 932,4 -4,4"/>
<!-- &#45;1 -->
<g id="node1" class="node">
<title>&#45;1</title>
<polygon fill="lightgray" stroke="black" points="26,-86.53 0,-86.53 0,-68.53 26,-68.53 26,-86.53"/>
<text text-anchor="middle" x="13" y="-75.33" font-family="Times,serif" font-size="9.00">&#45;1</text>
</g>
<!-- &#45;2 -->
<g id="node2" class="node">
<title>&#45;2</title>
<polygon fill="lightgray" stroke="black" points="70,-86.53 44,-86.53 44,-68.53 70,-68.53 70,-86.53"/>
<text text-anchor="middle" x="57" y="-75.33" font-family="Times,serif" font-size="9.00">&#45;2</text>
</g>
<!-- &#45;3 -->
<g id="node3" class="node">
<title>&#45;3</title>
<polygon fill="lightgray" stroke="black" points="114,-86.53 88,-86.53 88,-68.53 114,-68.53 114,-86.53"/>
<text text-anchor="middle" x="101" y="-75.33" font-family="Times,serif" font-size="9.00">&#45;3</text>
</g>
<!-- 0 -->
<g id="node21" class="node">
<title>0</title>
<ellipse fill="lightblue" stroke="black" cx="292" cy="-16.26" rx="16.03" ry="16.03"/>
<text text-anchor="middle" x="292" y="-14.06" font-family="Times,serif" font-size="9.00">0</text>
</g>
<!-- &#45;3&#45;&gt;0 -->
<g id="edge5" class="edge">
<title>&#45;3&#45;&gt;0</title>
<path fill="none" stroke="green" stroke-width="0.3" d="M114.46,-71.5C117.27,-70.49 120.22,-69.45 123,-68.53 173.66,-51.65 233.6,-34.01 266.76,-24.46"/>
<polygon fill="green" stroke="green" stroke-width="0.3" points="267.89,-27.77 276.53,-21.65 265.95,-21.05 267.89,-27.77"/>
</g>
<!-- &#45;4 -->
<g id="node4" class="node">
<title>&#45;4</title>
<polygon fill="lightgray" stroke="black" points="690,-86.53 664,-86.53 664,-68.53 690,-68.53 690,-86.53"/>
<text text-anchor="middle" x="677" y="-75.33" font-family="Times,serif" font-size="9.00">&#45;4</text>
</g>
<!-- 1 -->
<g id="node22" class="node">
<title>1</title>
<ellipse fill="lightblue" stroke="black" cx="561" cy="-16.26" rx="16.03" ry="16.03"/>
<text text-anchor="middle" x="561" y="-14.06" font-family="Times,serif" font-size="9.00">1</text>
</g>
<!-- &#45;4&#45;&gt;1 -->
<g id="edge7" class="edge">
<title>&#45;4&#45;&gt;1</title>
<path fill="none" stroke="red" stroke-width="0.3" d="M663.69,-69.73C644.34,-59.84 608.14,-41.35 584.31,-29.17"/>
<polygon fill="red" stroke="red" stroke-width="0.3" points="585.73,-25.97 575.23,-24.54 582.55,-32.2 585.73,-25.97"/>
</g>
<!-- &#45;5 -->
<g id="node5" class="node">
<title>&#45;5</title>
<polygon fill="lightgray" stroke="black" points="734,-86.53 708,-86.53 708,-68.53 734,-68.53 734,-86.53"/>
<text text-anchor="middle" x="721" y="-75.33" font-family="Times,serif" font-size="9.00">&#45;5</text>
</g>
<!-- &#45;5&#45;&gt;1 -->
<g id="edge12" class="edge">
<title>&#45;5&#45;&gt;1</title>
<path fill="none" stroke="red" stroke-width="0.11" stroke-dasharray="1,5" d="M707.91,-71.68C681.26,-61.81 620.33,-39.24 585.9,-26.48"/>
<polygon fill="red" stroke="red" stroke-width="0.11" points="586.72,-23.06 576.13,-22.87 584.29,-29.62 586.72,-23.06"/>
</g>
<!-- &#45;6 -->
<g id="node6" class="node">
<title>&#45;6</title>
<polygon fill="lightgray" stroke="black" points="552,-86.53 526,-86.53 526,-68.53 552,-68.53 552,-86.53"/>
<text text-anchor="middle" x="539" y="-75.33" font-family="Times,serif" font-size="9.00">&#45;6</text>
</g>
<!-- &#45;6&#45;&gt;1 -->
<g id="edge4" class="edge">
<title>&#45;6&#45;&gt;1</title>
<path fill="none" stroke="green" stroke-width="1.27" stroke-dasharray="1,5" d="M542.06,-68.29C544.65,-61.3 548.51,-50.91 552.06,-41.33"/>
<polygon fill="green" stroke="green" stroke-width="1.27" points="555.4,-42.41 555.6,-31.82 548.84,-39.97 555.4,-42.41"/>
</g>
<!-- &#45;7 -->
<g id="node7" class="node">
<title>&#45;7</title>
<polygon fill="lightgray" stroke="black" points="778,-86.53 752,-86.53 752,-68.53 778,-68.53 778,-86.53"/>
<text text-anchor="middle" x="765" y="-75.33" font-family="Times,serif" font-size="9.00">&#45;7</text>
</g>
<!-- &#45;8 -->
<g id="node8" class="node">
<title>&#45;8</title>
<polygon fill="lightgray" stroke="black" points="596,-86.53 570,-86.53 570,-68.53 596,-68.53 596,-86.53"/>
<text text-anchor="middle" x="583" y="-75.33" font-family="Times,serif" font-size="9.00">&#45;8</text>
</g>
<!-- &#45;8&#45;&gt;1 -->
<g id="edge11" class="edge">
<title>&#45;8&#45;&gt;1</title>
<path fill="none" stroke="green" stroke-width="0.3" d="M579.94,-68.29C577.35,-61.3 573.49,-50.91 569.94,-41.33"/>
<polygon fill="green" stroke="green" stroke-width="0.3" points="573.16,-39.97 566.4,-31.82 566.6,-42.41 573.16,-39.97"/>
</g>
<!-- &#45;9 -->
<g id="node9" class="node">
<title>&#45;9</title>
<polygon fill="lightgray" stroke="black" points="158,-86.53 132,-86.53 132,-68.53 158,-68.53 158,-86.53"/>
<text text-anchor="middle" x="145" y="-75.33" font-family="Times,serif" font-size="9.00">&#45;9</text>
</g>
<!-- &#45;9&#45;&gt;0 -->
<g id="edge14" class="edge">
<title>&#45;9&#45;&gt;0</title>
<path fill="none" stroke="red" stroke-width="0.47" d="M158.05,-71.27C182.65,-61.35 236.24,-39.74 267.67,-27.07"/>
<polygon fill="red" stroke="red" stroke-width="0.47" points="269.07,-30.28 277.03,-23.3 266.45,-23.79 269.07,-30.28"/>
</g>
<!-- &#45;10 -->
<g id="node10" class="node">
<title>&#45;10</title>
<polygon fill="lightgray" stroke="black" points="828,-86.53 796,-86.53 796,-68.53 828,-68.53 828,-86.53"/>
<text text-anchor="middle" x="812" y="-75.33" font-family="Times,serif" font-size="9.00">&#45;10</text>
</g>
<!-- &#45;11 -->
<g id="node11" class="node">
<title>&#45;11</title>
<polygon fill="lightgray" stroke="black" points="408,-86.53 376,-86.53 376,-68.53 408,-68.53 408,-86.53"/>
<text text-anchor="middle" x="392" y="-75.33" font-family="Times,serif" font-size="9.00">&#45;11</text>
</g>
<!-- &#45;11&#45;&gt;0 -->
<g id="edge10" class="edge">
<title>&#45;11&#45;&gt;0</title>
<path fill="none" stroke="green" stroke-width="1.22" d="M378.1,-68.29C361.68,-58.56 334.14,-42.24 314.63,-30.68"/>
<polygon fill="green" stroke="green" stroke-width="1.22" points="316.17,-27.52 305.79,-25.43 312.6,-33.54 316.17,-27.52"/>
</g>
<!-- &#45;11&#45;&gt;1 -->
<g id="edge9" class="edge">
<title>&#45;11&#45;&gt;1</title>
<path fill="none" stroke="green" stroke-width="0.52" stroke-dasharray="1,5" d="M408.2,-70.84C437.83,-60.46 500.91,-38.33 536.05,-26.01"/>
<polygon fill="green" stroke="green" stroke-width="0.52" points="537.3,-29.28 545.58,-22.67 534.99,-22.68 537.3,-29.28"/>
</g>
<!-- &#45;12 -->
<g id="node12" class="node">
<title>&#45;12</title>
<polygon fill="lightgray" stroke="black" points="208,-86.53 176,-86.53 176,-68.53 208,-68.53 208,-86.53"/>
<text text-anchor="middle" x="192" y="-75.33" font-family="Times,serif" font-size="9.00">&#45;12</text>
</g>
<!-- &#45;12&#45;&gt;0 -->
<g id="edge3" class="edge">
<title>&#45;12&#45;&gt;0</title>
<path fill="none" stroke="green" stroke-width="0.32" stroke-dasharray="1,5" d="M205.9,-68.29C222.32,-58.56 249.86,-42.24 269.37,-30.68"/>
<polygon fill="green" stroke="green" stroke-width="0.32" points="271.4,-33.54 278.21,-25.43 267.83,-27.52 271.4,-33.54"/>
</g>
<!-- &#45;13 -->
<g id="node13" class="node">
<title>&#45;13</title>
<polygon fill="lightgray" stroke="black" points="878,-86.53 846,-86.53 846,-68.53 878,-68.53 878,-86.53"/>
<text text-anchor="middle" x="862" y="-75.33" font-family="Times,serif" font-size="9.00">&#45;13</text>
</g>
<!-- &#45;14 -->
<g id="node14" class="node">
<title>&#45;14</title>
<polygon fill="lightgray" stroke="black" points="458,-86.53 426,-86.53 426,-68.53 458,-68.53 458,-86.53"/>
<text text-anchor="middle" x="442" y="-75.33" font-family="Times,serif" font-size="9.00">&#45;14</text>
</g>
<!-- &#45;14&#45;&gt;0 -->
<g id="edge13" class="edge">
<title>&#45;14&#45;&gt;0</title>
<path fill="none" stroke="green" stroke-width="0.13" d="M425.95,-70.18C399.74,-59.83 347.58,-39.22 316.65,-27"/>
<polygon fill="green" stroke="green" stroke-width="0.13" points="317.63,-23.63 307.04,-23.21 315.06,-30.14 317.63,-23.63"/>
</g>
<!-- &#45;14&#45;&gt;1 -->
<g id="edge6" class="edge">
<title>&#45;14&#45;&gt;1</title>
<path fill="none" stroke="green" stroke-width="0.34" stroke-dasharray="1,5" d="M458.05,-68.53C478.48,-58.36 513.93,-40.7 537.43,-29"/>
<polygon fill="green" stroke="green" stroke-width="0.34" points="539.3,-31.98 546.69,-24.39 536.18,-25.71 539.3,-31.98"/>
</g>
<!-- &#45;15 -->
<g id="node15" class="node">
<title>&#45;15</title>
<polygon fill="lightgray" stroke="black" points="258,-86.53 226,-86.53 226,-68.53 258,-68.53 258,-86.53"/>
<text text-anchor="middle" x="242" y="-75.33" font-family="Times,serif" font-size="9.00">&#45;15</text>
</g>
<!-- &#45;15&#45;&gt;0 -->
<g id="edge18" class="edge">
<title>&#45;15&#45;&gt;0</title>
<path fill="none" stroke="red" stroke-width="0.38" d="M248.95,-68.29C255.79,-60.18 266.5,-47.49 275.52,-36.79"/>
<polygon fill="red" stroke="red" stroke-width="0.38" points="278.23,-39.01 282,-29.11 272.88,-34.5 278.23,-39.01"/>
</g>
<!-- &#45;16 -->
<g id="node16" class="node">
<title>&#45;16</title>
<polygon fill="lightgray" stroke="black" points="928,-86.53 896,-86.53 896,-68.53 928,-68.53 928,-86.53"/>
<text text-anchor="middle" x="912" y="-75.33" font-family="Times,serif" font-size="9.00">&#45;16</text>
</g>
<!-- &#45;17 -->
<g id="node17" class="node">
<title>&#45;17</title>
<polygon fill="lightgray" stroke="black" points="508,-86.53 476,-86.53 476,-68.53 508,-68.53 508,-86.53"/>
<text text-anchor="middle" x="492" y="-75.33" font-family="Times,serif" font-size="9.00">&#45;17</text>
</g>
<!-- &#45;17&#45;&gt;0 -->
<g id="edge17" class="edge">
<title>&#45;17&#45;&gt;0</title>
<path fill="none" stroke="red" stroke-width="0.28" d="M475.88,-71.3C472.93,-70.37 469.88,-69.41 467,-68.53 414.01,-52.29 351.66,-34.29 317.53,-24.53"/>
<polygon fill="red" stroke="red" stroke-width="0.28" points="318.07,-21.04 307.49,-21.66 316.14,-27.77 318.07,-21.04"/>
</g>
<!-- &#45;17&#45;&gt;1 -->
<g id="edge16" class="edge">
<title>&#45;17&#45;&gt;1</title>
<path fill="none" stroke="red" stroke-width="0.31" d="M501.59,-68.29C511.68,-59.62 527.84,-45.74 540.77,-34.64"/>
<polygon fill="red" stroke="red" stroke-width="0.31" points="543.39,-37 548.69,-27.83 538.83,-31.69 543.39,-37"/>
</g>
<!-- &#45;18 -->
<g id="node18" class="node">
<title>&#45;18</title>
<polygon fill="lightgray" stroke="black" points="308,-86.53 276,-86.53 276,-68.53 308,-68.53 308,-86.53"/>
<text text-anchor="middle" x="292" y="-75.33" font-family="Times,serif" font-size="9.00">&#45;18</text>
</g>
<!-- &#45;18&#45;&gt;0 -->
<g id="edge1" class="edge">
<title>&#45;18&#45;&gt;0</title>
<path fill="none" stroke="green" stroke-width="0.26" stroke-dasharray="1,5" d="M292,-68.29C292,-61.7 292,-52.1 292,-43"/>
<polygon fill="green" stroke="green" stroke-width="0.26" points="295.5,-42.76 292,-32.76 288.5,-42.76 295.5,-42.76"/>
</g>
<!-- &#45;19 -->
<g id="node19" class="node">
<title>&#45;19</title>
<polygon fill="lightgray" stroke="black" points="358,-86.53 326,-86.53 326,-68.53 358,-68.53 358,-86.53"/>
<text text-anchor="middle" x="342" y="-75.33" font-family="Times,serif" font-size="9.00">&#45;19</text>
</g>
<!-- &#45;19&#45;&gt;0 -->
<g id="edge2" class="edge">
<title>&#45;19&#45;&gt;0</title>
<path fill="none" stroke="green" stroke-width="0.34" stroke-dasharray="1,5" d="M335.05,-68.29C328.21,-60.18 317.5,-47.49 308.48,-36.79"/>
<polygon fill="green" stroke="green" stroke-width="0.34" points="311.12,-34.5 302,-29.11 305.77,-39.01 311.12,-34.5"/>
</g>
<!-- &#45;20 -->
<g id="node20" class="node">
<title>&#45;20</title>
<polygon fill="lightgray" stroke="black" points="646,-86.53 614,-86.53 614,-68.53 646,-68.53 646,-86.53"/>
<text text-anchor="middle" x="630" y="-75.33" font-family="Times,serif" font-size="9.00">&#45;20</text>
</g>
<!-- &#45;20&#45;&gt;1 -->
<g id="edge8" class="edge">
<title>&#45;20&#45;&gt;1</title>
<path fill="none" stroke="green" stroke-width="0.23" d="M620.41,-68.29C610.32,-59.62 594.16,-45.74 581.23,-34.64"/>
<polygon fill="green" stroke="green" stroke-width="0.23" points="583.17,-31.69 573.31,-27.83 578.61,-37 583.17,-31.69"/>
</g>
<!-- 0&#45;&gt;0 -->
<g id="edge15" class="edge">
<title>0&#45;&gt;0</title>
<path fill="none" stroke="green" stroke-width="1.18" d="M305.36,-26.06C315.71,-29.72 326.26,-26.46 326.26,-16.26 326.26,-9.57 321.72,-5.87 315.67,-5.14"/>
<polygon fill="green" stroke="green" stroke-width="1.18" points="314.84,-1.72 305.36,-6.47 315.73,-8.67 314.84,-1.72"/>
</g>
</g>
</svg>
