<?xml version="1.0" encoding="UTF-8" standalone="no"?>
<!DOCTYPE svg PUBLIC "-//W3C//DTD SVG 1.1//EN"
 "http://www.w3.org/Graphics/SVG/1.1/DTD/svg11.dtd">
<!-- Generated by graphviz version 2.43.0 (0)
 -->
<!-- Title: %3 Pages: 1 -->
<svg width="843pt" height="333pt"
 viewBox="0.00 0.00 843.00 333.40" xmlns="http://www.w3.org/2000/svg" xmlns:xlink="http://www.w3.org/1999/xlink">
<g id="graph0" class="graph" transform="scale(1 1) rotate(0) translate(4 329.4)">
<title>%3</title>
<polygon fill="white" stroke="transparent" points="-4,4 -4,-329.4 839,-329.4 839,4 -4,4"/>
<!-- &#45;1 -->
<g id="node1" class="node">
<title>&#45;1</title>
<polygon fill="lightgray" stroke="black" points="359,-325.4 333,-325.4 333,-307.4 359,-307.4 359,-325.4"/>
<text text-anchor="middle" x="346" y="-314.2" font-family="Times,serif" font-size="9.00">&#45;1</text>
</g>
<!-- &#45;2 -->
<g id="node2" class="node">
<title>&#45;2</title>
<polygon fill="lightgray" stroke="black" points="403,-325.4 377,-325.4 377,-307.4 403,-307.4 403,-325.4"/>
<text text-anchor="middle" x="390" y="-314.2" font-family="Times,serif" font-size="9.00">&#45;2</text>
</g>
<!-- &#45;3 -->
<g id="node3" class="node">
<title>&#45;3</title>
<polygon fill="lightgray" stroke="black" points="170,-144.7 144,-144.7 144,-126.7 170,-126.7 170,-144.7"/>
<text text-anchor="middle" x="157" y="-133.5" font-family="Times,serif" font-size="9.00">&#45;3</text>
</g>
<!-- 0 -->
<g id="node21" class="node">
<title>0</title>
<ellipse fill="lightblue" stroke="black" cx="79" cy="-33.23" rx="16.03" ry="16.03"/>
<text text-anchor="middle" x="79" y="-31.03" font-family="Times,serif" font-size="9.00">0</text>
</g>
<!-- &#45;3&#45;&gt;0 -->
<g id="edge5" class="edge">
<title>&#45;3&#45;&gt;0</title>
<path fill="none" stroke="red" stroke-width="0.52" d="M151.77,-126.62C147.43,-120.01 141.01,-110.49 135,-102.47 122.37,-85.61 107.15,-67.18 95.77,-53.73"/>
<polygon fill="red" stroke="red" stroke-width="0.52" points="98.39,-51.4 89.24,-46.06 93.06,-55.94 98.39,-51.4"/>
</g>
<!-- 1 -->
<g id="node22" class="node">
<title>1</title>
<ellipse fill="lightblue" stroke="black" cx="325" cy="-33.23" rx="16.03" ry="16.03"/>
<text text-anchor="middle" x="325" y="-31.03" font-family="Times,serif" font-size="9.00">1</text>
</g>
<!-- &#45;3&#45;&gt;1 -->
<g id="edge3" class="edge">
<title>&#45;3&#45;&gt;1</title>
<path fill="none" stroke="green" stroke-width="0.53" d="M160.91,-126.65C164.7,-119.52 171.05,-109.23 179,-102.47 215.58,-71.37 268.72,-51.3 299.78,-41.45"/>
<polygon fill="green" stroke="green" stroke-width="0.53" points="300.88,-44.78 309.42,-38.5 298.83,-38.09 300.88,-44.78"/>
</g>
<!-- &#45;4 -->
<g id="node4" class="node">
<title>&#45;4</title>
<polygon fill="lightgray" stroke="black" points="520,-144.7 494,-144.7 494,-126.7 520,-126.7 520,-144.7"/>
<text text-anchor="middle" x="507" y="-133.5" font-family="Times,serif" font-size="9.00">&#45;4</text>
</g>
<!-- &#45;4&#45;&gt;1 -->
<g id="edge12" class="edge">
<title>&#45;4&#45;&gt;1</title>
<path fill="none" stroke="red" stroke-width="0.53" d="M503.15,-126.58C499.39,-119.41 493.06,-109.09 485,-102.47 444.15,-68.92 384.35,-49.35 350.62,-40.32"/>
<polygon fill="red" stroke="red" stroke-width="0.53" points="351.2,-36.86 340.64,-37.76 349.46,-43.64 351.2,-36.86"/>
</g>
<!-- &#45;5 -->
<g id="node5" class="node">
<title>&#45;5</title>
<polygon fill="lightgray" stroke="black" points="26,-144.7 0,-144.7 0,-126.7 26,-126.7 26,-144.7"/>
<text text-anchor="middle" x="13" y="-133.5" font-family="Times,serif" font-size="9.00">&#45;5</text>
</g>
<!-- &#45;5&#45;&gt;0 -->
<g id="edge15" class="edge">
<title>&#45;5&#45;&gt;0</title>
<path fill="none" stroke="red" stroke-width="0.65" stroke-dasharray="1,5" d="M18.4,-126.48C28.47,-111.16 50.39,-77.79 64.92,-55.67"/>
<polygon fill="red" stroke="red" stroke-width="0.65" points="67.89,-57.52 70.45,-47.24 62.04,-53.68 67.89,-57.52"/>
</g>
<!-- &#45;6 -->
<g id="node6" class="node">
<title>&#45;6</title>
<polygon fill="lightgray" stroke="black" points="447,-325.4 421,-325.4 421,-307.4 447,-307.4 447,-325.4"/>
<text text-anchor="middle" x="434" y="-314.2" font-family="Times,serif" font-size="9.00">&#45;6</text>
</g>
<!-- 14176 -->
<g id="node23" class="node">
<title>14176</title>
<ellipse fill="white" stroke="black" cx="404" cy="-238.17" rx="33.47" ry="33.47"/>
<text text-anchor="middle" x="404" y="-235.97" font-family="Times,serif" font-size="9.00">14176</text>
</g>
<!-- &#45;6&#45;&gt;14176 -->
<g id="edge17" class="edge">
<title>&#45;6&#45;&gt;14176</title>
<path fill="none" stroke="green" stroke-width="0.47" d="M430.79,-307.25C428.03,-300.23 423.83,-289.57 419.58,-278.75"/>
<polygon fill="green" stroke="green" stroke-width="0.47" points="422.77,-277.31 415.85,-269.29 416.26,-279.87 422.77,-277.31"/>
</g>
<!-- 13694 -->
<g id="node26" class="node">
<title>13694</title>
<ellipse fill="white" stroke="black" cx="443" cy="-135.7" rx="33.47" ry="33.47"/>
<text text-anchor="middle" x="443" y="-133.5" font-family="Times,serif" font-size="9.00">13694</text>
</g>
<!-- &#45;6&#45;&gt;13694 -->
<g id="edge16" class="edge">
<title>&#45;6&#45;&gt;13694</title>
<path fill="none" stroke="red" stroke-width="0.27" stroke-dasharray="1,5" d="M436.98,-307.11C439.94,-298.36 444.3,-284.12 446,-271.4 450.11,-240.7 449.17,-205.72 447.3,-179.1"/>
<polygon fill="red" stroke="red" stroke-width="0.27" points="450.77,-178.67 446.51,-168.97 443.79,-179.21 450.77,-178.67"/>
</g>
<!-- &#45;7 -->
<g id="node7" class="node">
<title>&#45;7</title>
<polygon fill="lightgray" stroke="black" points="491,-325.4 465,-325.4 465,-307.4 491,-307.4 491,-325.4"/>
<text text-anchor="middle" x="478" y="-314.2" font-family="Times,serif" font-size="9.00">&#45;7</text>
</g>
<!-- &#45;8 -->
<g id="node8" class="node">
<title>&#45;8</title>
<polygon fill="lightgray" stroke="black" points="564,-144.7 538,-144.7 538,-126.7 564,-126.7 564,-144.7"/>
<text text-anchor="middle" x="551" y="-133.5" font-family="Times,serif" font-size="9.00">&#45;8</text>
</g>
<!-- &#45;8&#45;&gt;1 -->
<g id="edge1" class="edge">
<title>&#45;8&#45;&gt;1</title>
<path fill="none" stroke="red" stroke-width="0.78" stroke-dasharray="1,5" d="M547.27,-126.42C543.59,-119.15 537.32,-108.76 529,-102.47 474.17,-61.02 392.73,-43.9 351.29,-37.55"/>
<polygon fill="red" stroke="red" stroke-width="0.78" points="351.58,-34.06 341.19,-36.1 350.59,-40.99 351.58,-34.06"/>
</g>
<!-- &#45;9 -->
<g id="node9" class="node">
<title>&#45;9</title>
<polygon fill="lightgray" stroke="black" points="535,-325.4 509,-325.4 509,-307.4 535,-307.4 535,-325.4"/>
<text text-anchor="middle" x="522" y="-314.2" font-family="Times,serif" font-size="9.00">&#45;9</text>
</g>
<!-- &#45;10 -->
<g id="node10" class="node">
<title>&#45;10</title>
<polygon fill="lightgray" stroke="black" points="585,-325.4 553,-325.4 553,-307.4 585,-307.4 585,-325.4"/>
<text text-anchor="middle" x="569" y="-314.2" font-family="Times,serif" font-size="9.00">&#45;10</text>
</g>
<!-- &#45;11 -->
<g id="node11" class="node">
<title>&#45;11</title>
<polygon fill="lightgray" stroke="black" points="635,-325.4 603,-325.4 603,-307.4 635,-307.4 635,-325.4"/>
<text text-anchor="middle" x="619" y="-314.2" font-family="Times,serif" font-size="9.00">&#45;11</text>
</g>
<!-- &#45;12 -->
<g id="node12" class="node">
<title>&#45;12</title>
<polygon fill="lightgray" stroke="black" points="220,-144.7 188,-144.7 188,-126.7 220,-126.7 220,-144.7"/>
<text text-anchor="middle" x="204" y="-133.5" font-family="Times,serif" font-size="9.00">&#45;12</text>
</g>
<!-- 13358 -->
<g id="node25" class="node">
<title>13358</title>
<ellipse fill="white" stroke="black" cx="184" cy="-33.23" rx="33.47" ry="33.47"/>
<text text-anchor="middle" x="184" y="-31.03" font-family="Times,serif" font-size="9.00">13358</text>
</g>
<!-- &#45;12&#45;&gt;13358 -->
<g id="edge10" class="edge">
<title>&#45;12&#45;&gt;13358</title>
<path fill="none" stroke="red" stroke-width="0.33" d="M202.36,-126.48C200.16,-115.44 196.1,-95.02 192.35,-76.19"/>
<polygon fill="red" stroke="red" stroke-width="0.33" points="195.76,-75.39 190.38,-66.26 188.9,-76.75 195.76,-75.39"/>
</g>
<!-- &#45;13 -->
<g id="node13" class="node">
<title>&#45;13</title>
<polygon fill="lightgray" stroke="black" points="353,-247.17 321,-247.17 321,-229.17 353,-229.17 353,-247.17"/>
<text text-anchor="middle" x="337" y="-235.97" font-family="Times,serif" font-size="9.00">&#45;13</text>
</g>
<!-- &#45;13&#45;&gt;1 -->
<g id="edge4" class="edge">
<title>&#45;13&#45;&gt;1</title>
<path fill="none" stroke="red" stroke-width="0.24" stroke-dasharray="1,5" d="M323.59,-229.03C306.69,-217.89 278.47,-196.15 267,-168.94 255.52,-141.72 256.81,-130.2 267,-102.47 274.53,-81.97 291.26,-63.43 304.82,-50.87"/>
<polygon fill="red" stroke="red" stroke-width="0.24" points="307.19,-53.44 312.35,-44.19 302.54,-48.21 307.19,-53.44"/>
</g>
<!-- 13802 -->
<g id="node24" class="node">
<title>13802</title>
<ellipse fill="white" stroke="black" cx="359" cy="-135.7" rx="33.47" ry="33.47"/>
<text text-anchor="middle" x="359" y="-133.5" font-family="Times,serif" font-size="9.00">13802</text>
</g>
<!-- &#45;13&#45;&gt;13802 -->
<g id="edge13" class="edge">
<title>&#45;13&#45;&gt;13802</title>
<path fill="none" stroke="green" stroke-width="0.23" d="M338.8,-228.95C341.24,-217.83 345.75,-197.19 349.9,-178.26"/>
<polygon fill="green" stroke="green" stroke-width="0.23" points="353.37,-178.79 352.09,-168.28 346.53,-177.3 353.37,-178.79"/>
</g>
<!-- &#45;13&#45;&gt;13694 -->
<g id="edge11" class="edge">
<title>&#45;13&#45;&gt;13694</title>
<path fill="none" stroke="red" stroke-width="0.36" stroke-dasharray="1,5" d="M342.52,-229.11C347.32,-222.35 354.64,-212.6 362,-204.94 376.29,-190.05 393.62,-175.11 408.57,-163.01"/>
<polygon fill="red" stroke="red" stroke-width="0.36" points="410.97,-165.58 416.6,-156.61 406.6,-160.11 410.97,-165.58"/>
</g>
<!-- &#45;14 -->
<g id="node14" class="node">
<title>&#45;14</title>
<polygon fill="lightgray" stroke="black" points="685,-325.4 653,-325.4 653,-307.4 685,-307.4 685,-325.4"/>
<text text-anchor="middle" x="669" y="-314.2" font-family="Times,serif" font-size="9.00">&#45;14</text>
</g>
<!-- &#45;15 -->
<g id="node15" class="node">
<title>&#45;15</title>
<polygon fill="lightgray" stroke="black" points="76,-144.7 44,-144.7 44,-126.7 76,-126.7 76,-144.7"/>
<text text-anchor="middle" x="60" y="-133.5" font-family="Times,serif" font-size="9.00">&#45;15</text>
</g>
<!-- &#45;15&#45;&gt;0 -->
<g id="edge7" class="edge">
<title>&#45;15&#45;&gt;0</title>
<path fill="none" stroke="green" stroke-width="0.11" d="M61.55,-126.48C64.3,-111.98 70.09,-81.32 74.25,-59.33"/>
<polygon fill="green" stroke="green" stroke-width="0.11" points="77.72,-59.81 76.14,-49.34 70.85,-58.51 77.72,-59.81"/>
</g>
<!-- &#45;16 -->
<g id="node16" class="node">
<title>&#45;16</title>
<polygon fill="lightgray" stroke="black" points="735,-325.4 703,-325.4 703,-307.4 735,-307.4 735,-325.4"/>
<text text-anchor="middle" x="719" y="-314.2" font-family="Times,serif" font-size="9.00">&#45;16</text>
</g>
<!-- &#45;17 -->
<g id="node17" class="node">
<title>&#45;17</title>
<polygon fill="lightgray" stroke="black" points="785,-325.4 753,-325.4 753,-307.4 785,-307.4 785,-325.4"/>
<text text-anchor="middle" x="769" y="-314.2" font-family="Times,serif" font-size="9.00">&#45;17</text>
</g>
<!-- &#45;18 -->
<g id="node18" class="node">
<title>&#45;18</title>
<polygon fill="lightgray" stroke="black" points="835,-325.4 803,-325.4 803,-307.4 835,-307.4 835,-325.4"/>
<text text-anchor="middle" x="819" y="-314.2" font-family="Times,serif" font-size="9.00">&#45;18</text>
</g>
<!-- &#45;19 -->
<g id="node19" class="node">
<title>&#45;19</title>
<polygon fill="lightgray" stroke="black" points="126,-144.7 94,-144.7 94,-126.7 126,-126.7 126,-144.7"/>
<text text-anchor="middle" x="110" y="-133.5" font-family="Times,serif" font-size="9.00">&#45;19</text>
</g>
<!-- &#45;19&#45;&gt;0 -->
<g id="edge8" class="edge">
<title>&#45;19&#45;&gt;0</title>
<path fill="none" stroke="green" stroke-width="0.34" stroke-dasharray="1,5" d="M107.46,-126.48C102.94,-111.83 93.34,-80.7 86.54,-58.66"/>
<polygon fill="green" stroke="green" stroke-width="0.34" points="89.84,-57.5 83.55,-48.98 83.15,-59.57 89.84,-57.5"/>
</g>
<!-- &#45;19&#45;&gt;13358 -->
<g id="edge9" class="edge">
<title>&#45;19&#45;&gt;13358</title>
<path fill="none" stroke="red" stroke-width="0.43" stroke-dasharray="1,5" d="M116.06,-126.48C125.28,-113.96 143.38,-89.38 158.58,-68.75"/>
<polygon fill="red" stroke="red" stroke-width="0.43" points="161.55,-70.61 164.67,-60.48 155.92,-66.46 161.55,-70.61"/>
</g>
<!-- &#45;20 -->
<g id="node20" class="node">
<title>&#45;20</title>
<polygon fill="lightgray" stroke="black" points="308,-144.7 276,-144.7 276,-126.7 308,-126.7 308,-144.7"/>
<text text-anchor="middle" x="292" y="-133.5" font-family="Times,serif" font-size="9.00">&#45;20</text>
</g>
<!-- &#45;20&#45;&gt;1 -->
<g id="edge6" class="edge">
<title>&#45;20&#45;&gt;1</title>
<path fill="none" stroke="green" stroke-width="0.1" stroke-dasharray="1,5" d="M294.7,-126.48C299.51,-111.83 309.74,-80.7 316.98,-58.66"/>
<polygon fill="green" stroke="green" stroke-width="0.1" points="320.36,-59.57 320.16,-48.98 313.71,-57.39 320.36,-59.57"/>
</g>
<!-- 1&#45;&gt;1 -->
<g id="edge2" class="edge">
<title>1&#45;&gt;1</title>
<path fill="none" stroke="green" stroke-width="0.93" stroke-dasharray="1,5" d="M334.47,-46.96C345.87,-57.33 359.26,-52.76 359.26,-33.23 359.26,-18.59 351.73,-12.36 343.16,-14.53"/>
<polygon fill="green" stroke="green" stroke-width="0.93" points="341.41,-11.5 334.47,-19.51 344.89,-17.57 341.41,-11.5"/>
</g>
<!-- 14176&#45;&gt;13802 -->
<g id="edge19" class="edge">
<title>14176&#45;&gt;13802</title>
<path fill="none" stroke="green" stroke-width="0.3" d="M390.74,-207.57C386.3,-197.64 381.27,-186.42 376.54,-175.87"/>
<polygon fill="green" stroke="green" stroke-width="0.3" points="379.6,-174.13 372.32,-166.44 373.21,-177 379.6,-174.13"/>
</g>
<!-- 14176&#45;&gt;13694 -->
<g id="edge18" class="edge">
<title>14176&#45;&gt;13694</title>
<path fill="none" stroke="green" stroke-width="0.22" d="M415.7,-207.03C419.44,-197.39 423.64,-186.57 427.6,-176.37"/>
<polygon fill="green" stroke="green" stroke-width="0.22" points="430.95,-177.41 431.31,-166.82 424.43,-174.88 430.95,-177.41"/>
</g>
<!-- 13802&#45;&gt;1 -->
<g id="edge14" class="edge">
<title>13802&#45;&gt;1</title>
<path fill="none" stroke="green" stroke-width="0.14" d="M348.61,-104.01C343.67,-89.39 337.83,-72.15 333.2,-58.46"/>
<polygon fill="green" stroke="green" stroke-width="0.14" points="336.45,-57.14 329.93,-48.79 329.82,-59.39 336.45,-57.14"/>
</g>
</g>
</svg>
