<?xml version="1.0" encoding="UTF-8" standalone="no"?>
<!DOCTYPE svg PUBLIC "-//W3C//DTD SVG 1.1//EN"
 "http://www.w3.org/Graphics/SVG/1.1/DTD/svg11.dtd">
<!-- Generated by graphviz version 9.0.0 (20230911.1827)
 -->
<!-- Pages: 1 -->
<svg width="874pt" height="92pt"
 viewBox="0.00 0.00 873.75 92.24" xmlns="http://www.w3.org/2000/svg" xmlns:xlink="http://www.w3.org/1999/xlink">
<g id="graph0" class="graph" transform="scale(1 1) rotate(0) translate(4 88.24)">
<polygon fill="white" stroke="none" points="-4,4 -4,-88.24 869.75,-88.24 869.75,4 -4,4"/>
<!-- &#45;1 -->
<g id="node1" class="node">
<title>&#45;1</title>
<polygon fill="lightgray" stroke="black" points="23.5,-84.24 0,-84.24 0,-64.99 23.5,-64.99 23.5,-84.24"/>
<text text-anchor="middle" x="11.75" y="-71.69" font-family="Times New Roman,serif" font-size="9.00">&#45;1</text>
</g>
<!-- &#45;2 -->
<g id="node2" class="node">
<title>&#45;2</title>
<polygon fill="lightgray" stroke="black" points="199.5,-84.24 176,-84.24 176,-64.99 199.5,-64.99 199.5,-84.24"/>
<text text-anchor="middle" x="187.75" y="-71.69" font-family="Times New Roman,serif" font-size="9.00">&#45;2</text>
</g>
<!-- 1 -->
<g id="node22" class="node">
<title>1</title>
<ellipse fill="lightblue" stroke="black" cx="208.75" cy="-14.5" rx="14.5" ry="14.5"/>
<text text-anchor="middle" x="208.75" y="-11.57" font-family="Times New Roman,serif" font-size="9.00">1</text>
</g>
<!-- &#45;2&#45;&gt;1 -->
<g id="edge6" class="edge">
<title>&#45;2&#45;&gt;1</title>
<path fill="none" stroke="green" stroke-width="0.32" d="M191.03,-64.54C193.58,-57.48 197.23,-47.39 200.55,-38.19"/>
<polygon fill="green" stroke="green" stroke-width="0.32" points="203.82,-39.45 203.92,-28.85 197.23,-37.07 203.82,-39.45"/>
</g>
<!-- &#45;3 -->
<g id="node3" class="node">
<title>&#45;3</title>
<polygon fill="lightgray" stroke="black" points="241.5,-84.24 218,-84.24 218,-64.99 241.5,-64.99 241.5,-84.24"/>
<text text-anchor="middle" x="229.75" y="-71.69" font-family="Times New Roman,serif" font-size="9.00">&#45;3</text>
</g>
<!-- &#45;3&#45;&gt;1 -->
<g id="edge4" class="edge">
<title>&#45;3&#45;&gt;1</title>
<path fill="none" stroke="red" stroke-width="0.61" d="M226.47,-64.54C223.95,-57.56 220.35,-47.61 217.06,-38.49"/>
<polygon fill="red" stroke="red" stroke-width="0.61" points="220.42,-37.48 213.73,-29.27 213.83,-39.86 220.42,-37.48"/>
</g>
<!-- &#45;4 -->
<g id="node4" class="node">
<title>&#45;4</title>
<polygon fill="lightgray" stroke="black" points="413.5,-84.24 390,-84.24 390,-64.99 413.5,-64.99 413.5,-84.24"/>
<text text-anchor="middle" x="401.75" y="-71.69" font-family="Times New Roman,serif" font-size="9.00">&#45;4</text>
</g>
<!-- 0 -->
<g id="node21" class="node">
<title>0</title>
<ellipse fill="lightblue" stroke="black" cx="401.75" cy="-14.5" rx="14.5" ry="14.5"/>
<text text-anchor="middle" x="401.75" y="-11.57" font-family="Times New Roman,serif" font-size="9.00">0</text>
</g>
<!-- &#45;4&#45;&gt;0 -->
<g id="edge7" class="edge">
<title>&#45;4&#45;&gt;0</title>
<path fill="none" stroke="green" stroke-width="0.44" d="M401.75,-64.54C401.75,-57.89 401.75,-48.54 401.75,-39.79"/>
<polygon fill="green" stroke="green" stroke-width="0.44" points="405.25,-39.94 401.75,-29.94 398.25,-39.94 405.25,-39.94"/>
</g>
<!-- &#45;5 -->
<g id="node5" class="node">
<title>&#45;5</title>
<polygon fill="lightgray" stroke="black" points="283.5,-84.24 260,-84.24 260,-64.99 283.5,-64.99 283.5,-84.24"/>
<text text-anchor="middle" x="271.75" y="-71.69" font-family="Times New Roman,serif" font-size="9.00">&#45;5</text>
</g>
<!-- &#45;5&#45;&gt;1 -->
<g id="edge9" class="edge">
<title>&#45;5&#45;&gt;1</title>
<path fill="none" stroke="red" stroke-width="0.28" d="M261.91,-64.54C252.46,-55.82 237.97,-42.46 226.51,-31.88"/>
<polygon fill="red" stroke="red" stroke-width="0.28" points="229.19,-29.59 219.47,-25.38 224.44,-34.74 229.19,-29.59"/>
</g>
<!-- &#45;6 -->
<g id="node6" class="node">
<title>&#45;6</title>
<polygon fill="lightgray" stroke="black" points="547.5,-84.24 524,-84.24 524,-64.99 547.5,-64.99 547.5,-84.24"/>
<text text-anchor="middle" x="535.75" y="-71.69" font-family="Times New Roman,serif" font-size="9.00">&#45;6</text>
</g>
<!-- &#45;7 -->
<g id="node7" class="node">
<title>&#45;7</title>
<polygon fill="lightgray" stroke="black" points="65.5,-84.24 42,-84.24 42,-64.99 65.5,-64.99 65.5,-84.24"/>
<text text-anchor="middle" x="53.75" y="-71.69" font-family="Times New Roman,serif" font-size="9.00">&#45;7</text>
</g>
<!-- &#45;7&#45;&gt;1 -->
<g id="edge5" class="edge">
<title>&#45;7&#45;&gt;1</title>
<path fill="none" stroke="green" stroke-width="0.56" stroke-dasharray="1,5" d="M65.71,-68.62C68.66,-67.41 71.81,-66.14 74.75,-64.99 113.13,-50.03 158.12,-33.64 184.99,-23.98"/>
<polygon fill="green" stroke="green" stroke-width="0.56" points="185.96,-27.35 194.19,-20.68 183.59,-20.76 185.96,-27.35"/>
</g>
<!-- &#45;8 -->
<g id="node8" class="node">
<title>&#45;8</title>
<polygon fill="lightgray" stroke="black" points="371.5,-84.24 348,-84.24 348,-64.99 371.5,-64.99 371.5,-84.24"/>
<text text-anchor="middle" x="359.75" y="-71.69" font-family="Times New Roman,serif" font-size="9.00">&#45;8</text>
</g>
<!-- &#45;8&#45;&gt;0 -->
<g id="edge3" class="edge">
<title>&#45;8&#45;&gt;0</title>
<path fill="none" stroke="green" stroke-width="0.46" d="M366.31,-64.54C371.96,-56.71 380.32,-45.15 387.5,-35.21"/>
<polygon fill="green" stroke="green" stroke-width="0.46" points="390.22,-37.42 393.24,-27.27 384.55,-33.32 390.22,-37.42"/>
</g>
<!-- &#45;8&#45;&gt;1 -->
<g id="edge12" class="edge">
<title>&#45;8&#45;&gt;1</title>
<path fill="none" stroke="green" stroke-width="0.76" stroke-dasharray="1,5" d="M347.78,-68.64C344.83,-67.43 341.68,-66.15 338.75,-64.99 301.78,-50.36 258.59,-34.08 232.48,-24.32"/>
<polygon fill="green" stroke="green" stroke-width="0.76" points="233.75,-21.06 223.16,-20.84 231.31,-27.62 233.75,-21.06"/>
</g>
<!-- &#45;9 -->
<g id="node9" class="node">
<title>&#45;9</title>
<polygon fill="lightgray" stroke="black" points="589.5,-84.24 566,-84.24 566,-64.99 589.5,-64.99 589.5,-84.24"/>
<text text-anchor="middle" x="577.75" y="-71.69" font-family="Times New Roman,serif" font-size="9.00">&#45;9</text>
</g>
<!-- &#45;10 -->
<g id="node10" class="node">
<title>&#45;10</title>
<polygon fill="lightgray" stroke="black" points="635.75,-84.24 607.75,-84.24 607.75,-64.99 635.75,-64.99 635.75,-84.24"/>
<text text-anchor="middle" x="621.75" y="-71.69" font-family="Times New Roman,serif" font-size="9.00">&#45;10</text>
</g>
<!-- &#45;11 -->
<g id="node11" class="node">
<title>&#45;11</title>
<polygon fill="lightgray" stroke="black" points="681.75,-84.24 653.75,-84.24 653.75,-64.99 681.75,-64.99 681.75,-84.24"/>
<text text-anchor="middle" x="667.75" y="-71.69" font-family="Times New Roman,serif" font-size="9.00">&#45;11</text>
</g>
<!-- &#45;12 -->
<g id="node12" class="node">
<title>&#45;12</title>
<polygon fill="lightgray" stroke="black" points="111.75,-84.24 83.75,-84.24 83.75,-64.99 111.75,-64.99 111.75,-84.24"/>
<text text-anchor="middle" x="97.75" y="-71.69" font-family="Times New Roman,serif" font-size="9.00">&#45;12</text>
</g>
<!-- &#45;12&#45;&gt;1 -->
<g id="edge13" class="edge">
<title>&#45;12&#45;&gt;1</title>
<path fill="none" stroke="green" stroke-width="0.47" d="M111.81,-66.26C130.73,-56.35 164.58,-38.62 186.85,-26.96"/>
<polygon fill="green" stroke="green" stroke-width="0.47" points="188.31,-30.15 195.55,-22.41 185.07,-23.95 188.31,-30.15"/>
</g>
<!-- &#45;13 -->
<g id="node13" class="node">
<title>&#45;13</title>
<polygon fill="lightgray" stroke="black" points="459.75,-84.24 431.75,-84.24 431.75,-64.99 459.75,-64.99 459.75,-84.24"/>
<text text-anchor="middle" x="445.75" y="-71.69" font-family="Times New Roman,serif" font-size="9.00">&#45;13</text>
</g>
<!-- &#45;13&#45;&gt;0 -->
<g id="edge10" class="edge">
<title>&#45;13&#45;&gt;0</title>
<path fill="none" stroke="red" stroke-width="0.16" stroke-dasharray="1,5" d="M438.88,-64.54C432.83,-56.55 423.84,-44.67 416.22,-34.61"/>
<polygon fill="red" stroke="red" stroke-width="0.16" points="419.21,-32.76 410.38,-26.9 413.63,-36.98 419.21,-32.76"/>
</g>
<!-- &#45;14 -->
<g id="node14" class="node">
<title>&#45;14</title>
<polygon fill="lightgray" stroke="black" points="329.75,-84.24 301.75,-84.24 301.75,-64.99 329.75,-64.99 329.75,-84.24"/>
<text text-anchor="middle" x="315.75" y="-71.69" font-family="Times New Roman,serif" font-size="9.00">&#45;14</text>
</g>
<!-- &#45;14&#45;&gt;0 -->
<g id="edge2" class="edge">
<title>&#45;14&#45;&gt;0</title>
<path fill="none" stroke="green" stroke-width="0.28" d="M329.19,-64.54C343.3,-55 365.64,-39.9 381.81,-28.97"/>
<polygon fill="green" stroke="green" stroke-width="0.28" points="383.39,-32.13 389.72,-23.63 379.47,-26.33 383.39,-32.13"/>
</g>
<!-- &#45;14&#45;&gt;1 -->
<g id="edge11" class="edge">
<title>&#45;14&#45;&gt;1</title>
<path fill="none" stroke="red" stroke-width="0.11" d="M301.32,-65.78C283.02,-55.84 251.3,-38.61 230.17,-27.13"/>
<polygon fill="red" stroke="red" stroke-width="0.11" points="231.89,-24.08 221.43,-22.39 228.55,-30.23 231.89,-24.08"/>
</g>
<!-- &#45;15 -->
<g id="node15" class="node">
<title>&#45;15</title>
<polygon fill="lightgray" stroke="black" points="727.75,-84.24 699.75,-84.24 699.75,-64.99 727.75,-64.99 727.75,-84.24"/>
<text text-anchor="middle" x="713.75" y="-71.69" font-family="Times New Roman,serif" font-size="9.00">&#45;15</text>
</g>
<!-- &#45;16 -->
<g id="node16" class="node">
<title>&#45;16</title>
<polygon fill="lightgray" stroke="black" points="773.75,-84.24 745.75,-84.24 745.75,-64.99 773.75,-64.99 773.75,-84.24"/>
<text text-anchor="middle" x="759.75" y="-71.69" font-family="Times New Roman,serif" font-size="9.00">&#45;16</text>
</g>
<!-- &#45;17 -->
<g id="node17" class="node">
<title>&#45;17</title>
<polygon fill="lightgray" stroke="black" points="819.75,-84.24 791.75,-84.24 791.75,-64.99 819.75,-64.99 819.75,-84.24"/>
<text text-anchor="middle" x="805.75" y="-71.69" font-family="Times New Roman,serif" font-size="9.00">&#45;17</text>
</g>
<!-- &#45;18 -->
<g id="node18" class="node">
<title>&#45;18</title>
<polygon fill="lightgray" stroke="black" points="865.75,-84.24 837.75,-84.24 837.75,-64.99 865.75,-64.99 865.75,-84.24"/>
<text text-anchor="middle" x="851.75" y="-71.69" font-family="Times New Roman,serif" font-size="9.00">&#45;18</text>
</g>
<!-- &#45;19 -->
<g id="node19" class="node">
<title>&#45;19</title>
<polygon fill="lightgray" stroke="black" points="505.75,-84.24 477.75,-84.24 477.75,-64.99 505.75,-64.99 505.75,-84.24"/>
<text text-anchor="middle" x="491.75" y="-71.69" font-family="Times New Roman,serif" font-size="9.00">&#45;19</text>
</g>
<!-- &#45;19&#45;&gt;0 -->
<g id="edge8" class="edge">
<title>&#45;19&#45;&gt;0</title>
<path fill="none" stroke="red" stroke-width="1.14" d="M477.69,-64.54C463.11,-55.12 440.14,-40.29 423.28,-29.4"/>
<polygon fill="red" stroke="red" stroke-width="1.14" points="425.45,-26.63 415.15,-24.15 421.65,-32.51 425.45,-26.63"/>
</g>
<!-- &#45;20 -->
<g id="node20" class="node">
<title>&#45;20</title>
<polygon fill="lightgray" stroke="black" points="157.75,-84.24 129.75,-84.24 129.75,-64.99 157.75,-64.99 157.75,-84.24"/>
<text text-anchor="middle" x="143.75" y="-71.69" font-family="Times New Roman,serif" font-size="9.00">&#45;20</text>
</g>
<!-- &#45;20&#45;&gt;1 -->
<g id="edge1" class="edge">
<title>&#45;20&#45;&gt;1</title>
<path fill="none" stroke="green" stroke-width="0.97" d="M153.91,-64.54C163.58,-55.88 178.37,-42.66 190.16,-32.12"/>
<polygon fill="green" stroke="green" stroke-width="0.97" points="192.24,-34.96 197.36,-25.68 187.57,-29.74 192.24,-34.96"/>
</g>
</g>
</svg>
