<?xml version="1.0" encoding="UTF-8" standalone="no"?>
<!DOCTYPE svg PUBLIC "-//W3C//DTD SVG 1.1//EN"
 "http://www.w3.org/Graphics/SVG/1.1/DTD/svg11.dtd">
<!-- Generated by graphviz version 2.43.0 (0)
 -->
<!-- Title: %3 Pages: 1 -->
<svg width="374pt" height="189pt"
 viewBox="0.00 0.00 374.00 188.51" xmlns="http://www.w3.org/2000/svg" xmlns:xlink="http://www.w3.org/1999/xlink">
<g id="graph0" class="graph" transform="scale(1 1) rotate(0) translate(4 184.51)">
<title>%3</title>
<polygon fill="white" stroke="transparent" points="-4,4 -4,-184.51 370,-184.51 370,4 -4,4"/>
<!-- &#45;1 -->
<g id="node1" class="node">
<title>&#45;1</title>
<polygon fill="lightgray" stroke="black" points="26,-106.52 0,-106.52 0,-88.52 26,-88.52 26,-106.52"/>
<text text-anchor="middle" x="13" y="-95.32" font-family="Times,serif" font-size="9.00">&#45;1</text>
</g>
<!-- 1 -->
<g id="node14" class="node">
<title>1</title>
<ellipse fill="lightblue" stroke="black" cx="111" cy="-16.26" rx="16.03" ry="16.03"/>
<text text-anchor="middle" x="111" y="-14.06" font-family="Times,serif" font-size="9.00">1</text>
</g>
<!-- &#45;1&#45;&gt;1 -->
<g id="edge6" class="edge">
<title>&#45;1&#45;&gt;1</title>
<path fill="none" stroke="red" stroke-width="0.4" d="M20.21,-88.3C25.45,-82.51 32.86,-74.72 40,-68.53 55.69,-54.92 74.86,-41.23 89.32,-31.43"/>
<polygon fill="red" stroke="red" stroke-width="0.4" points="91.28,-34.33 97.65,-25.86 87.39,-28.51 91.28,-34.33"/>
</g>
<!-- &#45;2 -->
<g id="node2" class="node">
<title>&#45;2</title>
<polygon fill="lightgray" stroke="black" points="95,-180.51 69,-180.51 69,-162.51 95,-162.51 95,-180.51"/>
<text text-anchor="middle" x="82" y="-169.31" font-family="Times,serif" font-size="9.00">&#45;2</text>
</g>
<!-- &#45;2&#45;&gt;1 -->
<g id="edge5" class="edge">
<title>&#45;2&#45;&gt;1</title>
<path fill="none" stroke="red" stroke-width="0.32" stroke-dasharray="1,5" d="M79.12,-162.32C73.38,-144.68 61.96,-101.94 73,-68.53 76.99,-56.45 85.05,-44.89 92.72,-35.81"/>
<polygon fill="red" stroke="red" stroke-width="0.32" points="95.45,-38.01 99.53,-28.24 90.24,-33.33 95.45,-38.01"/>
</g>
<!-- 6117 -->
<g id="node15" class="node">
<title>6117</title>
<ellipse fill="white" stroke="black" cx="111" cy="-97.52" rx="28.98" ry="28.98"/>
<text text-anchor="middle" x="111" y="-95.32" font-family="Times,serif" font-size="9.00">6117</text>
</g>
<!-- &#45;2&#45;&gt;6117 -->
<g id="edge11" class="edge">
<title>&#45;2&#45;&gt;6117</title>
<path fill="none" stroke="green" stroke-width="0.28" d="M85.33,-162.25C88.15,-155.24 92.41,-144.66 96.65,-134.13"/>
<polygon fill="green" stroke="green" stroke-width="0.28" points="100.01,-135.16 100.5,-124.57 93.52,-132.54 100.01,-135.16"/>
</g>
<!-- &#45;3 -->
<g id="node3" class="node">
<title>&#45;3</title>
<polygon fill="lightgray" stroke="black" points="278,-106.52 252,-106.52 252,-88.52 278,-88.52 278,-106.52"/>
<text text-anchor="middle" x="265" y="-95.32" font-family="Times,serif" font-size="9.00">&#45;3</text>
</g>
<!-- 0 -->
<g id="node13" class="node">
<title>0</title>
<ellipse fill="lightblue" stroke="black" cx="265" cy="-16.26" rx="16.03" ry="16.03"/>
<text text-anchor="middle" x="265" y="-14.06" font-family="Times,serif" font-size="9.00">0</text>
</g>
<!-- &#45;3&#45;&gt;0 -->
<g id="edge4" class="edge">
<title>&#45;3&#45;&gt;0</title>
<path fill="none" stroke="red" stroke-width="0.11" stroke-dasharray="1,5" d="M265,-88.34C265,-77.67 265,-58.51 265,-42.77"/>
<polygon fill="red" stroke="red" stroke-width="0.11" points="268.5,-42.57 265,-32.57 261.5,-42.57 268.5,-42.57"/>
</g>
<!-- &#45;4 -->
<g id="node4" class="node">
<title>&#45;4</title>
<polygon fill="lightgray" stroke="black" points="139,-180.51 113,-180.51 113,-162.51 139,-162.51 139,-180.51"/>
<text text-anchor="middle" x="126" y="-169.31" font-family="Times,serif" font-size="9.00">&#45;4</text>
</g>
<!-- &#45;5 -->
<g id="node5" class="node">
<title>&#45;5</title>
<polygon fill="lightgray" stroke="black" points="184,-106.52 158,-106.52 158,-88.52 184,-88.52 184,-106.52"/>
<text text-anchor="middle" x="171" y="-95.32" font-family="Times,serif" font-size="9.00">&#45;5</text>
</g>
<!-- &#45;5&#45;&gt;0 -->
<g id="edge9" class="edge">
<title>&#45;5&#45;&gt;0</title>
<path fill="none" stroke="red" stroke-width="0.27" stroke-dasharray="1,5" d="M176.42,-88.41C180.57,-82.53 186.65,-74.58 193,-68.53 208.26,-53.97 227.9,-40.26 242.8,-30.69"/>
<polygon fill="red" stroke="red" stroke-width="0.27" points="244.79,-33.58 251.4,-25.3 241.07,-27.65 244.79,-33.58"/>
</g>
<!-- &#45;5&#45;&gt;1 -->
<g id="edge2" class="edge">
<title>&#45;5&#45;&gt;1</title>
<path fill="none" stroke="red" stroke-width="0.5" d="M164.8,-88.34C155.83,-76.48 138.92,-54.15 126.45,-37.67"/>
<polygon fill="red" stroke="red" stroke-width="0.5" points="129.22,-35.53 120.39,-29.67 123.64,-39.75 129.22,-35.53"/>
</g>
<!-- &#45;6 -->
<g id="node6" class="node">
<title>&#45;6</title>
<polygon fill="lightgray" stroke="black" points="183,-180.51 157,-180.51 157,-162.51 183,-162.51 183,-180.51"/>
<text text-anchor="middle" x="170" y="-169.31" font-family="Times,serif" font-size="9.00">&#45;6</text>
</g>
<!-- &#45;7 -->
<g id="node7" class="node">
<title>&#45;7</title>
<polygon fill="lightgray" stroke="black" points="227,-180.51 201,-180.51 201,-162.51 227,-162.51 227,-180.51"/>
<text text-anchor="middle" x="214" y="-169.31" font-family="Times,serif" font-size="9.00">&#45;7</text>
</g>
<!-- &#45;8 -->
<g id="node8" class="node">
<title>&#45;8</title>
<polygon fill="lightgray" stroke="black" points="322,-106.52 296,-106.52 296,-88.52 322,-88.52 322,-106.52"/>
<text text-anchor="middle" x="309" y="-95.32" font-family="Times,serif" font-size="9.00">&#45;8</text>
</g>
<!-- &#45;8&#45;&gt;0 -->
<g id="edge8" class="edge">
<title>&#45;8&#45;&gt;0</title>
<path fill="none" stroke="red" stroke-width="0.17" d="M304.46,-88.34C298.14,-76.96 286.47,-55.95 277.46,-39.7"/>
<polygon fill="red" stroke="red" stroke-width="0.17" points="280.43,-37.85 272.52,-30.8 274.31,-41.25 280.43,-37.85"/>
</g>
<!-- &#45;9 -->
<g id="node9" class="node">
<title>&#45;9</title>
<polygon fill="lightgray" stroke="black" points="366,-106.52 340,-106.52 340,-88.52 366,-88.52 366,-106.52"/>
<text text-anchor="middle" x="353" y="-95.32" font-family="Times,serif" font-size="9.00">&#45;9</text>
</g>
<!-- &#45;9&#45;&gt;0 -->
<g id="edge1" class="edge">
<title>&#45;9&#45;&gt;0</title>
<path fill="none" stroke="green" stroke-width="0.52" d="M347.5,-88.49C343.31,-82.65 337.22,-74.72 331,-68.53 317.24,-54.85 299.85,-41.47 286.38,-31.82"/>
<polygon fill="green" stroke="green" stroke-width="0.52" points="288.36,-28.93 278.16,-26.04 284.33,-34.66 288.36,-28.93"/>
</g>
<!-- &#45;10 -->
<g id="node10" class="node">
<title>&#45;10</title>
<polygon fill="lightgray" stroke="black" points="277,-180.51 245,-180.51 245,-162.51 277,-162.51 277,-180.51"/>
<text text-anchor="middle" x="261" y="-169.31" font-family="Times,serif" font-size="9.00">&#45;10</text>
</g>
<!-- &#45;11 -->
<g id="node11" class="node">
<title>&#45;11</title>
<polygon fill="lightgray" stroke="black" points="327,-180.51 295,-180.51 295,-162.51 327,-162.51 327,-180.51"/>
<text text-anchor="middle" x="311" y="-169.31" font-family="Times,serif" font-size="9.00">&#45;11</text>
</g>
<!-- &#45;12 -->
<g id="node12" class="node">
<title>&#45;12</title>
<polygon fill="lightgray" stroke="black" points="234,-106.52 202,-106.52 202,-88.52 234,-88.52 234,-106.52"/>
<text text-anchor="middle" x="218" y="-95.32" font-family="Times,serif" font-size="9.00">&#45;12</text>
</g>
<!-- &#45;12&#45;&gt;0 -->
<g id="edge7" class="edge">
<title>&#45;12&#45;&gt;0</title>
<path fill="none" stroke="green" stroke-width="0.13" d="M222.85,-88.34C229.64,-76.9 242.21,-55.7 251.86,-39.42"/>
<polygon fill="green" stroke="green" stroke-width="0.13" points="255.05,-40.9 257.14,-30.52 249.03,-37.33 255.05,-40.9"/>
</g>
<!-- &#45;12&#45;&gt;1 -->
<g id="edge10" class="edge">
<title>&#45;12&#45;&gt;1</title>
<path fill="none" stroke="green" stroke-width="0.35" d="M211.75,-88.36C206.99,-82.45 200.07,-74.49 193,-68.53 174.76,-53.15 151.5,-39.05 134.42,-29.55"/>
<polygon fill="green" stroke="green" stroke-width="0.35" points="135.61,-26.21 125.16,-24.51 132.27,-32.36 135.61,-26.21"/>
</g>
<!-- 0&#45;&gt;0 -->
<g id="edge3" class="edge">
<title>0&#45;&gt;0</title>
<path fill="none" stroke="red" stroke-width="0.24" d="M276.23,-28.18C287.21,-34.77 299.26,-30.79 299.26,-16.26 299.26,-6.05 293.3,-1.05 285.95,-1.27"/>
<polygon fill="red" stroke="red" stroke-width="0.24" points="284.71,2.01 276.23,-4.34 286.82,-4.67 284.71,2.01"/>
</g>
<!-- 6117&#45;&gt;1 -->
<g id="edge12" class="edge">
<title>6117&#45;&gt;1</title>
<path fill="none" stroke="green" stroke-width="0.14" d="M111,-68.35C111,-60.06 111,-51.04 111,-42.91"/>
<polygon fill="green" stroke="green" stroke-width="0.14" points="114.5,-42.89 111,-32.89 107.5,-42.89 114.5,-42.89"/>
</g>
</g>
</svg>
