<?xml version="1.0" encoding="UTF-8" standalone="no"?>
<!DOCTYPE svg PUBLIC "-//W3C//DTD SVG 1.1//EN"
 "http://www.w3.org/Graphics/SVG/1.1/DTD/svg11.dtd">
<!-- Generated by graphviz version 2.43.0 (0)
 -->
<!-- Title: %3 Pages: 1 -->
<svg width="391pt" height="180pt"
 viewBox="0.00 0.00 390.79 180.02" xmlns="http://www.w3.org/2000/svg" xmlns:xlink="http://www.w3.org/1999/xlink">
<g id="graph0" class="graph" transform="scale(1 1) rotate(0) translate(4 176.02)">
<title>%3</title>
<polygon fill="white" stroke="transparent" points="-4,4 -4,-176.02 386.79,-176.02 386.79,4 -4,4"/>
<!-- &#45;1 -->
<g id="node1" class="node">
<title>&#45;1</title>
<polygon fill="lightgray" stroke="black" points="29.79,-172.02 3.79,-172.02 3.79,-154.02 29.79,-154.02 29.79,-172.02"/>
<text text-anchor="middle" x="16.79" y="-160.82" font-family="Times,serif" font-size="9.00">&#45;1</text>
</g>
<!-- 0 -->
<g id="node13" class="node">
<title>0</title>
<ellipse fill="lightblue" stroke="black" cx="170.79" cy="-16.26" rx="16.03" ry="16.03"/>
<text text-anchor="middle" x="170.79" y="-14.06" font-family="Times,serif" font-size="9.00">0</text>
</g>
<!-- &#45;1&#45;&gt;0 -->
<g id="edge9" class="edge">
<title>&#45;1&#45;&gt;0</title>
<path fill="none" stroke="green" stroke-width="0.16" stroke-dasharray="1,5" d="M12.94,-153.81C5.36,-136.25 -9.23,-94.55 9.79,-68.53 40.83,-26.07 107.37,-17.94 144.45,-16.88"/>
<polygon fill="green" stroke="green" stroke-width="0.16" points="144.56,-20.38 154.51,-16.74 144.46,-13.38 144.56,-20.38"/>
</g>
<!-- 159 -->
<g id="node15" class="node">
<title>159</title>
<ellipse fill="white" stroke="black" cx="43.79" cy="-93.28" rx="25" ry="25"/>
<text text-anchor="middle" x="43.79" y="-91.08" font-family="Times,serif" font-size="9.00">159</text>
</g>
<!-- &#45;1&#45;&gt;159 -->
<g id="edge14" class="edge">
<title>&#45;1&#45;&gt;159</title>
<path fill="none" stroke="green" stroke-width="0.47" d="M19.99,-153.99C22.79,-146.96 27.05,-136.27 31.2,-125.87"/>
<polygon fill="green" stroke="green" stroke-width="0.47" points="34.47,-127.1 34.92,-116.51 27.97,-124.51 34.47,-127.1"/>
</g>
<!-- &#45;2 -->
<g id="node2" class="node">
<title>&#45;2</title>
<polygon fill="lightgray" stroke="black" points="338.79,-102.28 312.79,-102.28 312.79,-84.28 338.79,-84.28 338.79,-102.28"/>
<text text-anchor="middle" x="325.79" y="-91.08" font-family="Times,serif" font-size="9.00">&#45;2</text>
</g>
<!-- &#45;2&#45;&gt;0 -->
<g id="edge7" class="edge">
<title>&#45;2&#45;&gt;0</title>
<path fill="none" stroke="red" stroke-width="0.28" d="M319.62,-83.89C315.58,-78.87 309.93,-72.69 303.79,-68.53 270,-45.63 224.55,-30.95 196.48,-23.42"/>
<polygon fill="red" stroke="red" stroke-width="0.28" points="197.19,-19.98 186.64,-20.87 195.44,-26.76 197.19,-19.98"/>
</g>
<!-- 1 -->
<g id="node14" class="node">
<title>1</title>
<ellipse fill="lightblue" stroke="black" cx="281.79" cy="-16.26" rx="16.03" ry="16.03"/>
<text text-anchor="middle" x="281.79" y="-14.06" font-family="Times,serif" font-size="9.00">1</text>
</g>
<!-- &#45;2&#45;&gt;1 -->
<g id="edge10" class="edge">
<title>&#45;2&#45;&gt;1</title>
<path fill="none" stroke="green" stroke-width="0.35" d="M321.08,-84.25C314.87,-73.67 303.71,-54.64 294.86,-39.56"/>
<polygon fill="green" stroke="green" stroke-width="0.35" points="297.8,-37.64 289.72,-30.79 291.76,-41.18 297.8,-37.64"/>
</g>
<!-- &#45;3 -->
<g id="node3" class="node">
<title>&#45;3</title>
<polygon fill="lightgray" stroke="black" points="206.79,-102.28 180.79,-102.28 180.79,-84.28 206.79,-84.28 206.79,-102.28"/>
<text text-anchor="middle" x="193.79" y="-91.08" font-family="Times,serif" font-size="9.00">&#45;3</text>
</g>
<!-- &#45;3&#45;&gt;0 -->
<g id="edge4" class="edge">
<title>&#45;3&#45;&gt;0</title>
<path fill="none" stroke="green" stroke-width="0.27" d="M191.33,-84.25C188.22,-74.11 182.73,-56.22 178.21,-41.48"/>
<polygon fill="green" stroke="green" stroke-width="0.27" points="181.56,-40.44 175.28,-31.91 174.86,-42.5 181.56,-40.44"/>
</g>
<!-- &#45;3&#45;&gt;1 -->
<g id="edge8" class="edge">
<title>&#45;3&#45;&gt;1</title>
<path fill="none" stroke="green" stroke-width="0.19" d="M200.81,-84.05C204.98,-79.33 210.48,-73.39 215.79,-68.53 230.09,-55.42 247.45,-42.02 260.78,-32.21"/>
<polygon fill="green" stroke="green" stroke-width="0.19" points="262.86,-35.03 268.89,-26.32 258.74,-29.37 262.86,-35.03"/>
</g>
<!-- &#45;4 -->
<g id="node4" class="node">
<title>&#45;4</title>
<polygon fill="lightgray" stroke="black" points="112.79,-102.28 86.79,-102.28 86.79,-84.28 112.79,-84.28 112.79,-102.28"/>
<text text-anchor="middle" x="99.79" y="-91.08" font-family="Times,serif" font-size="9.00">&#45;4</text>
</g>
<!-- &#45;4&#45;&gt;0 -->
<g id="edge5" class="edge">
<title>&#45;4&#45;&gt;0</title>
<path fill="none" stroke="green" stroke-width="0.55" d="M107.49,-83.89C111.7,-79.33 117.01,-73.6 121.79,-68.53 131.94,-57.74 143.37,-45.77 152.64,-36.11"/>
<polygon fill="green" stroke="green" stroke-width="0.55" points="155.43,-38.25 159.84,-28.62 150.38,-33.4 155.43,-38.25"/>
</g>
<!-- &#45;5 -->
<g id="node5" class="node">
<title>&#45;5</title>
<polygon fill="lightgray" stroke="black" points="250.79,-102.28 224.79,-102.28 224.79,-84.28 250.79,-84.28 250.79,-102.28"/>
<text text-anchor="middle" x="237.79" y="-91.08" font-family="Times,serif" font-size="9.00">&#45;5</text>
</g>
<!-- &#45;5&#45;&gt;0 -->
<g id="edge2" class="edge">
<title>&#45;5&#45;&gt;0</title>
<path fill="none" stroke="green" stroke-width="0.57" d="M230.62,-84.25C220.5,-72.92 201.72,-51.9 187.89,-36.41"/>
<polygon fill="green" stroke="green" stroke-width="0.57" points="190.45,-34.03 181.18,-28.9 185.23,-38.69 190.45,-34.03"/>
</g>
<!-- &#45;5&#45;&gt;1 -->
<g id="edge3" class="edge">
<title>&#45;5&#45;&gt;1</title>
<path fill="none" stroke="green" stroke-width="0.18" d="M242.5,-84.25C248.7,-73.67 259.86,-54.64 268.71,-39.56"/>
<polygon fill="green" stroke="green" stroke-width="0.18" points="271.81,-41.18 273.85,-30.79 265.78,-37.64 271.81,-41.18"/>
</g>
<!-- &#45;6 -->
<g id="node6" class="node">
<title>&#45;6</title>
<polygon fill="lightgray" stroke="black" points="73.79,-172.02 47.79,-172.02 47.79,-154.02 73.79,-154.02 73.79,-172.02"/>
<text text-anchor="middle" x="60.79" y="-160.82" font-family="Times,serif" font-size="9.00">&#45;6</text>
</g>
<!-- &#45;7 -->
<g id="node7" class="node">
<title>&#45;7</title>
<polygon fill="lightgray" stroke="black" points="294.79,-102.28 268.79,-102.28 268.79,-84.28 294.79,-84.28 294.79,-102.28"/>
<text text-anchor="middle" x="281.79" y="-91.08" font-family="Times,serif" font-size="9.00">&#45;7</text>
</g>
<!-- &#45;7&#45;&gt;0 -->
<g id="edge12" class="edge">
<title>&#45;7&#45;&gt;0</title>
<path fill="none" stroke="red" stroke-width="0.12" d="M275.39,-84.21C271.26,-79.32 265.59,-73.15 259.79,-68.53 239.25,-52.15 212.87,-37.65 194.18,-28.28"/>
<polygon fill="red" stroke="red" stroke-width="0.12" points="195.7,-25.13 185.18,-23.87 192.62,-31.41 195.7,-25.13"/>
</g>
<!-- &#45;7&#45;&gt;1 -->
<g id="edge6" class="edge">
<title>&#45;7&#45;&gt;1</title>
<path fill="none" stroke="green" stroke-width="0.27" d="M281.79,-84.25C281.79,-74.49 281.79,-57.54 281.79,-43.13"/>
<polygon fill="green" stroke="green" stroke-width="0.27" points="285.29,-42.77 281.79,-32.77 278.29,-42.77 285.29,-42.77"/>
</g>
<!-- &#45;8 -->
<g id="node8" class="node">
<title>&#45;8</title>
<polygon fill="lightgray" stroke="black" points="117.79,-172.02 91.79,-172.02 91.79,-154.02 117.79,-154.02 117.79,-172.02"/>
<text text-anchor="middle" x="104.79" y="-160.82" font-family="Times,serif" font-size="9.00">&#45;8</text>
</g>
<!-- &#45;9 -->
<g id="node9" class="node">
<title>&#45;9</title>
<polygon fill="lightgray" stroke="black" points="382.79,-102.28 356.79,-102.28 356.79,-84.28 382.79,-84.28 382.79,-102.28"/>
<text text-anchor="middle" x="369.79" y="-91.08" font-family="Times,serif" font-size="9.00">&#45;9</text>
</g>
<!-- &#45;9&#45;&gt;1 -->
<g id="edge11" class="edge">
<title>&#45;9&#45;&gt;1</title>
<path fill="none" stroke="red" stroke-width="0.5" d="M362.76,-84.05C358.59,-79.33 353.09,-73.39 347.79,-68.53 333.49,-55.42 316.12,-42.02 302.79,-32.21"/>
<polygon fill="red" stroke="red" stroke-width="0.5" points="304.83,-29.37 294.69,-26.32 300.72,-35.03 304.83,-29.37"/>
</g>
<!-- &#45;10 -->
<g id="node10" class="node">
<title>&#45;10</title>
<polygon fill="lightgray" stroke="black" points="162.79,-102.28 130.79,-102.28 130.79,-84.28 162.79,-84.28 162.79,-102.28"/>
<text text-anchor="middle" x="146.79" y="-91.08" font-family="Times,serif" font-size="9.00">&#45;10</text>
</g>
<!-- &#45;10&#45;&gt;0 -->
<g id="edge1" class="edge">
<title>&#45;10&#45;&gt;0</title>
<path fill="none" stroke="red" stroke-width="0.19" d="M149.36,-84.25C152.6,-74.11 158.32,-56.22 163.04,-41.48"/>
<polygon fill="red" stroke="red" stroke-width="0.19" points="166.39,-42.5 166.1,-31.91 159.72,-40.37 166.39,-42.5"/>
</g>
<!-- &#45;11 -->
<g id="node11" class="node">
<title>&#45;11</title>
<polygon fill="lightgray" stroke="black" points="167.79,-172.02 135.79,-172.02 135.79,-154.02 167.79,-154.02 167.79,-172.02"/>
<text text-anchor="middle" x="151.79" y="-160.82" font-family="Times,serif" font-size="9.00">&#45;11</text>
</g>
<!-- &#45;12 -->
<g id="node12" class="node">
<title>&#45;12</title>
<polygon fill="lightgray" stroke="black" points="217.79,-172.02 185.79,-172.02 185.79,-154.02 217.79,-154.02 217.79,-172.02"/>
<text text-anchor="middle" x="201.79" y="-160.82" font-family="Times,serif" font-size="9.00">&#45;12</text>
</g>
<!-- 1&#45;&gt;1 -->
<g id="edge13" class="edge">
<title>1&#45;&gt;1</title>
<path fill="none" stroke="green" stroke-width="0.21" d="M293.37,-27.79C304.25,-33.76 316.05,-29.92 316.05,-16.26 316.05,-6.87 310.47,-2.13 303.45,-2.02"/>
<polygon fill="green" stroke="green" stroke-width="0.21" points="302.11,1.25 293.37,-4.74 303.94,-5.51 302.11,1.25"/>
</g>
<!-- 159&#45;&gt;0 -->
<g id="edge15" class="edge">
<title>159&#45;&gt;0</title>
<path fill="none" stroke="red" stroke-width="0.21" d="M63.69,-77.85C68.26,-74.69 73.14,-71.42 77.79,-68.53 100.98,-54.09 128.48,-39.19 147.53,-29.2"/>
<polygon fill="red" stroke="red" stroke-width="0.21" points="149.4,-32.18 156.66,-24.46 146.17,-25.97 149.4,-32.18"/>
</g>
</g>
</svg>
