<?xml version="1.0" encoding="UTF-8" standalone="no"?>
<!DOCTYPE svg PUBLIC "-//W3C//DTD SVG 1.1//EN"
 "http://www.w3.org/Graphics/SVG/1.1/DTD/svg11.dtd">
<!-- Generated by graphviz version 2.43.0 (0)
 -->
<!-- Title: %3 Pages: 1 -->
<svg width="466pt" height="172pt"
 viewBox="0.00 0.00 466.00 171.54" xmlns="http://www.w3.org/2000/svg" xmlns:xlink="http://www.w3.org/1999/xlink">
<g id="graph0" class="graph" transform="scale(1 1) rotate(0) translate(4 167.54)">
<title>%3</title>
<polygon fill="white" stroke="transparent" points="-4,4 -4,-167.54 462,-167.54 462,4 -4,4"/>
<!-- &#45;1 -->
<g id="node1" class="node">
<title>&#45;1</title>
<polygon fill="lightgray" stroke="black" points="70,-98.03 44,-98.03 44,-80.03 70,-80.03 70,-98.03"/>
<text text-anchor="middle" x="57" y="-86.83" font-family="Times,serif" font-size="9.00">&#45;1</text>
</g>
<!-- 0 -->
<g id="node13" class="node">
<title>0</title>
<ellipse fill="lightblue" stroke="black" cx="79" cy="-16.26" rx="16.03" ry="16.03"/>
<text text-anchor="middle" x="79" y="-14.06" font-family="Times,serif" font-size="9.00">0</text>
</g>
<!-- &#45;1&#45;&gt;0 -->
<g id="edge10" class="edge">
<title>&#45;1&#45;&gt;0</title>
<path fill="none" stroke="green" stroke-width="0.29" d="M59.52,-79.91C62.42,-70.6 67.3,-54.88 71.46,-41.53"/>
<polygon fill="green" stroke="green" stroke-width="0.29" points="74.82,-42.5 74.45,-31.91 68.13,-40.42 74.82,-42.5"/>
</g>
<!-- 1 -->
<g id="node14" class="node">
<title>1</title>
<ellipse fill="lightblue" stroke="black" cx="233" cy="-16.26" rx="16.03" ry="16.03"/>
<text text-anchor="middle" x="233" y="-14.06" font-family="Times,serif" font-size="9.00">1</text>
</g>
<!-- &#45;1&#45;&gt;1 -->
<g id="edge5" class="edge">
<title>&#45;1&#45;&gt;1</title>
<path fill="none" stroke="red" stroke-width="0.27" d="M64.54,-79.96C68.53,-76.07 73.69,-71.59 79,-68.53 120.66,-44.49 175.24,-29.71 206.98,-22.54"/>
<polygon fill="red" stroke="red" stroke-width="0.27" points="207.79,-25.94 216.82,-20.39 206.3,-19.1 207.79,-25.94"/>
</g>
<!-- &#45;2 -->
<g id="node2" class="node">
<title>&#45;2</title>
<polygon fill="lightgray" stroke="black" points="320,-163.54 294,-163.54 294,-145.54 320,-145.54 320,-163.54"/>
<text text-anchor="middle" x="307" y="-152.34" font-family="Times,serif" font-size="9.00">&#45;2</text>
</g>
<!-- &#45;2&#45;&gt;1 -->
<g id="edge1" class="edge">
<title>&#45;2&#45;&gt;1</title>
<path fill="none" stroke="red" stroke-width="0.16" stroke-dasharray="1,5" d="M293.87,-151.96C272.21,-148.57 229.52,-138.39 211,-109.54 197.24,-88.1 208.14,-58.88 218.93,-39.11"/>
<polygon fill="red" stroke="red" stroke-width="0.16" points="222.08,-40.64 224.1,-30.24 216.04,-37.11 222.08,-40.64"/>
</g>
<!-- 35 -->
<g id="node15" class="node">
<title>35</title>
<ellipse fill="white" stroke="black" cx="423" cy="-89.03" rx="20.51" ry="20.51"/>
<text text-anchor="middle" x="423" y="-86.83" font-family="Times,serif" font-size="9.00">35</text>
</g>
<!-- &#45;2&#45;&gt;35 -->
<g id="edge13" class="edge">
<title>&#45;2&#45;&gt;35</title>
<path fill="none" stroke="red" stroke-width="0.31" d="M320.04,-147.39C337.09,-139.23 367.74,-124.16 393,-109.54 394.52,-108.66 396.06,-107.74 397.61,-106.8"/>
<polygon fill="red" stroke="red" stroke-width="0.31" points="399.78,-109.57 406.37,-101.28 396.05,-103.65 399.78,-109.57"/>
</g>
<!-- &#45;3 -->
<g id="node3" class="node">
<title>&#45;3</title>
<polygon fill="lightgray" stroke="black" points="246,-98.03 220,-98.03 220,-80.03 246,-80.03 246,-98.03"/>
<text text-anchor="middle" x="233" y="-86.83" font-family="Times,serif" font-size="9.00">&#45;3</text>
</g>
<!-- &#45;3&#45;&gt;1 -->
<g id="edge7" class="edge">
<title>&#45;3&#45;&gt;1</title>
<path fill="none" stroke="red" stroke-width="0.22" d="M233,-79.91C233,-70.95 233,-56.07 233,-43.05"/>
<polygon fill="red" stroke="red" stroke-width="0.22" points="236.5,-42.73 233,-32.73 229.5,-42.73 236.5,-42.73"/>
</g>
<!-- &#45;4 -->
<g id="node4" class="node">
<title>&#45;4</title>
<polygon fill="lightgray" stroke="black" points="26,-98.03 0,-98.03 0,-80.03 26,-80.03 26,-98.03"/>
<text text-anchor="middle" x="13" y="-86.83" font-family="Times,serif" font-size="9.00">&#45;4</text>
</g>
<!-- &#45;4&#45;&gt;0 -->
<g id="edge3" class="edge">
<title>&#45;4&#45;&gt;0</title>
<path fill="none" stroke="red" stroke-width="0.48" d="M20.57,-79.91C30.4,-69.38 47.86,-50.65 61.14,-36.41"/>
<polygon fill="red" stroke="red" stroke-width="0.48" points="63.76,-38.74 68.02,-29.04 58.64,-33.97 63.76,-38.74"/>
</g>
<!-- &#45;5 -->
<g id="node5" class="node">
<title>&#45;5</title>
<polygon fill="lightgray" stroke="black" points="114,-98.03 88,-98.03 88,-80.03 114,-80.03 114,-98.03"/>
<text text-anchor="middle" x="101" y="-86.83" font-family="Times,serif" font-size="9.00">&#45;5</text>
</g>
<!-- &#45;5&#45;&gt;0 -->
<g id="edge6" class="edge">
<title>&#45;5&#45;&gt;0</title>
<path fill="none" stroke="red" stroke-width="0.21" d="M98.48,-79.91C95.58,-70.6 90.7,-54.88 86.54,-41.53"/>
<polygon fill="red" stroke="red" stroke-width="0.21" points="89.87,-40.42 83.55,-31.91 83.18,-42.5 89.87,-40.42"/>
</g>
<!-- &#45;5&#45;&gt;1 -->
<g id="edge4" class="edge">
<title>&#45;5&#45;&gt;1</title>
<path fill="none" stroke="green" stroke-width="0.23" d="M109.1,-79.83C113.07,-76.09 118.05,-71.78 123,-68.53 150.47,-50.5 185.28,-35.42 208.31,-26.38"/>
<polygon fill="green" stroke="green" stroke-width="0.23" points="209.61,-29.63 217.69,-22.77 207.1,-23.09 209.61,-29.63"/>
</g>
<!-- &#45;6 -->
<g id="node6" class="node">
<title>&#45;6</title>
<polygon fill="lightgray" stroke="black" points="290,-98.03 264,-98.03 264,-80.03 290,-80.03 290,-98.03"/>
<text text-anchor="middle" x="277" y="-86.83" font-family="Times,serif" font-size="9.00">&#45;6</text>
</g>
<!-- &#45;6&#45;&gt;1 -->
<g id="edge8" class="edge">
<title>&#45;6&#45;&gt;1</title>
<path fill="none" stroke="green" stroke-width="0.58" d="M271.95,-79.91C265.81,-70.03 255.18,-52.93 246.57,-39.09"/>
<polygon fill="green" stroke="green" stroke-width="0.58" points="249.53,-37.22 241.28,-30.58 243.59,-40.92 249.53,-37.22"/>
</g>
<!-- &#45;7 -->
<g id="node7" class="node">
<title>&#45;7</title>
<polygon fill="lightgray" stroke="black" points="334,-98.03 308,-98.03 308,-80.03 334,-80.03 334,-98.03"/>
<text text-anchor="middle" x="321" y="-86.83" font-family="Times,serif" font-size="9.00">&#45;7</text>
</g>
<!-- &#45;7&#45;&gt;1 -->
<g id="edge12" class="edge">
<title>&#45;7&#45;&gt;1</title>
<path fill="none" stroke="red" stroke-width="0.19" d="M312.12,-79.93C308.16,-76.37 303.4,-72.18 299,-68.53 284.31,-56.33 267.27,-43.12 254.19,-33.17"/>
<polygon fill="red" stroke="red" stroke-width="0.19" points="255.93,-30.09 245.85,-26.85 251.71,-35.68 255.93,-30.09"/>
</g>
<!-- &#45;8 -->
<g id="node8" class="node">
<title>&#45;8</title>
<polygon fill="lightgray" stroke="black" points="364,-163.54 338,-163.54 338,-145.54 364,-145.54 364,-163.54"/>
<text text-anchor="middle" x="351" y="-152.34" font-family="Times,serif" font-size="9.00">&#45;8</text>
</g>
<!-- &#45;9 -->
<g id="node9" class="node">
<title>&#45;9</title>
<polygon fill="lightgray" stroke="black" points="408,-163.54 382,-163.54 382,-145.54 408,-145.54 408,-163.54"/>
<text text-anchor="middle" x="395" y="-152.34" font-family="Times,serif" font-size="9.00">&#45;9</text>
</g>
<!-- &#45;10 -->
<g id="node10" class="node">
<title>&#45;10</title>
<polygon fill="lightgray" stroke="black" points="458,-163.54 426,-163.54 426,-145.54 458,-145.54 458,-163.54"/>
<text text-anchor="middle" x="442" y="-152.34" font-family="Times,serif" font-size="9.00">&#45;10</text>
</g>
<!-- &#45;11 -->
<g id="node11" class="node">
<title>&#45;11</title>
<polygon fill="lightgray" stroke="black" points="384,-98.03 352,-98.03 352,-80.03 384,-80.03 384,-98.03"/>
<text text-anchor="middle" x="368" y="-86.83" font-family="Times,serif" font-size="9.00">&#45;11</text>
</g>
<!-- &#45;11&#45;&gt;1 -->
<g id="edge15" class="edge">
<title>&#45;11&#45;&gt;1</title>
<path fill="none" stroke="red" stroke-width="0.29" d="M358.63,-79.9C354.09,-76.18 348.45,-71.86 343,-68.53 314.98,-51.37 280.29,-36.1 257.44,-26.78"/>
<polygon fill="red" stroke="red" stroke-width="0.29" points="258.72,-23.52 248.14,-23.04 256.12,-30.02 258.72,-23.52"/>
</g>
<!-- &#45;12 -->
<g id="node12" class="node">
<title>&#45;12</title>
<polygon fill="lightgray" stroke="black" points="164,-98.03 132,-98.03 132,-80.03 164,-80.03 164,-98.03"/>
<text text-anchor="middle" x="148" y="-86.83" font-family="Times,serif" font-size="9.00">&#45;12</text>
</g>
<!-- &#45;12&#45;&gt;0 -->
<g id="edge11" class="edge">
<title>&#45;12&#45;&gt;0</title>
<path fill="none" stroke="red" stroke-width="0.27" d="M140.08,-79.91C129.69,-69.25 111.13,-50.22 97.19,-35.91"/>
<polygon fill="red" stroke="red" stroke-width="0.27" points="99.48,-33.26 90,-28.54 94.47,-38.14 99.48,-33.26"/>
</g>
<!-- &#45;12&#45;&gt;1 -->
<g id="edge9" class="edge">
<title>&#45;12&#45;&gt;1</title>
<path fill="none" stroke="green" stroke-width="0.18" d="M157.75,-79.91C171.17,-68.74 195.63,-48.38 213.02,-33.9"/>
<polygon fill="green" stroke="green" stroke-width="0.18" points="215.46,-36.42 220.91,-27.33 210.98,-31.04 215.46,-36.42"/>
</g>
<!-- 1&#45;&gt;1 -->
<g id="edge2" class="edge">
<title>1&#45;&gt;1</title>
<path fill="none" stroke="red" stroke-width="0.32" d="M244.94,-27.36C255.72,-32.76 267.26,-29.06 267.26,-16.26 267.26,-7.47 261.81,-2.97 254.89,-2.77"/>
<polygon fill="red" stroke="red" stroke-width="0.32" points="253.84,0.58 244.94,-5.17 255.48,-6.23 253.84,0.58"/>
</g>
<!-- 35&#45;&gt;1 -->
<g id="edge14" class="edge">
<title>35&#45;&gt;1</title>
<path fill="none" stroke="green" stroke-width="0.24" d="M406.64,-76.28C402.33,-73.5 397.6,-70.71 393,-68.53 347.78,-47.06 291.29,-31.34 258.96,-23.3"/>
<polygon fill="green" stroke="green" stroke-width="0.24" points="259.52,-19.84 248.97,-20.88 257.86,-26.64 259.52,-19.84"/>
</g>
</g>
</svg>
