<?xml version="1.0" encoding="UTF-8" standalone="no"?>
<!DOCTYPE svg PUBLIC "-//W3C//DTD SVG 1.1//EN"
 "http://www.w3.org/Graphics/SVG/1.1/DTD/svg11.dtd">
<!-- Generated by graphviz version 2.43.0 (0)
 -->
<!-- Title: %3 Pages: 1 -->
<svg width="800pt" height="222pt"
 viewBox="0.00 0.00 800.00 222.45" xmlns="http://www.w3.org/2000/svg" xmlns:xlink="http://www.w3.org/1999/xlink">
<g id="graph0" class="graph" transform="scale(1 1) rotate(0) translate(4 218.45)">
<title>%3</title>
<polygon fill="white" stroke="transparent" points="-4,4 -4,-218.45 796,-218.45 796,4 -4,4"/>
<!-- &#45;1 -->
<g id="node1" class="node">
<title>&#45;1</title>
<polygon fill="lightgray" stroke="black" points="26,-214.45 0,-214.45 0,-196.45 26,-196.45 26,-214.45"/>
<text text-anchor="middle" x="13" y="-203.25" font-family="Times,serif" font-size="9.00">&#45;1</text>
</g>
<!-- &#45;2 -->
<g id="node2" class="node">
<title>&#45;2</title>
<polygon fill="lightgray" stroke="black" points="70,-214.45 44,-214.45 44,-196.45 70,-196.45 70,-214.45"/>
<text text-anchor="middle" x="57" y="-203.25" font-family="Times,serif" font-size="9.00">&#45;2</text>
</g>
<!-- 1 -->
<g id="node22" class="node">
<title>1</title>
<ellipse fill="lightblue" stroke="black" cx="48" cy="-28.99" rx="16.03" ry="16.03"/>
<text text-anchor="middle" x="48" y="-26.79" font-family="Times,serif" font-size="9.00">1</text>
</g>
<!-- &#45;2&#45;&gt;1 -->
<g id="edge5" class="edge">
<title>&#45;2&#45;&gt;1</title>
<path fill="none" stroke="red" stroke-width="0.25" d="M51.11,-196.18C45.45,-187.68 37.29,-173.84 34,-160.45 25.12,-124.29 33.29,-81.11 40.36,-54.63"/>
<polygon fill="red" stroke="red" stroke-width="0.25" points="43.81,-55.27 43.17,-44.69 37.08,-53.36 43.81,-55.27"/>
</g>
<!-- 5480 -->
<g id="node23" class="node">
<title>5480</title>
<ellipse fill="white" stroke="black" cx="105" cy="-127.22" rx="28.98" ry="28.98"/>
<text text-anchor="middle" x="105" y="-125.02" font-family="Times,serif" font-size="9.00">5480</text>
</g>
<!-- &#45;2&#45;&gt;5480 -->
<g id="edge9" class="edge">
<title>&#45;2&#45;&gt;5480</title>
<path fill="none" stroke="red" stroke-width="0.31" d="M62.14,-196.29C67.48,-187.8 76.2,-173.96 84.38,-160.97"/>
<polygon fill="red" stroke="red" stroke-width="0.31" points="87.54,-162.51 89.91,-152.18 81.62,-158.78 87.54,-162.51"/>
</g>
<!-- &#45;3 -->
<g id="node3" class="node">
<title>&#45;3</title>
<polygon fill="lightgray" stroke="black" points="272,-214.45 246,-214.45 246,-196.45 272,-196.45 272,-214.45"/>
<text text-anchor="middle" x="259" y="-203.25" font-family="Times,serif" font-size="9.00">&#45;3</text>
</g>
<!-- &#45;4 -->
<g id="node4" class="node">
<title>&#45;4</title>
<polygon fill="lightgray" stroke="black" points="500,-136.22 474,-136.22 474,-118.22 500,-118.22 500,-136.22"/>
<text text-anchor="middle" x="487" y="-125.02" font-family="Times,serif" font-size="9.00">&#45;4</text>
</g>
<!-- 0 -->
<g id="node21" class="node">
<title>0</title>
<ellipse fill="lightblue" stroke="black" cx="440" cy="-28.99" rx="16.03" ry="16.03"/>
<text text-anchor="middle" x="440" y="-26.79" font-family="Times,serif" font-size="9.00">0</text>
</g>
<!-- &#45;4&#45;&gt;0 -->
<g id="edge4" class="edge">
<title>&#45;4&#45;&gt;0</title>
<path fill="none" stroke="green" stroke-width="0.25" d="M482.99,-118.01C476.06,-103.81 461.57,-74.15 451.33,-53.2"/>
<polygon fill="green" stroke="green" stroke-width="0.25" points="454.37,-51.44 446.84,-43.99 448.08,-54.51 454.37,-51.44"/>
</g>
<!-- &#45;5 -->
<g id="node5" class="node">
<title>&#45;5</title>
<polygon fill="lightgray" stroke="black" points="316,-214.45 290,-214.45 290,-196.45 316,-196.45 316,-214.45"/>
<text text-anchor="middle" x="303" y="-203.25" font-family="Times,serif" font-size="9.00">&#45;5</text>
</g>
<!-- &#45;6 -->
<g id="node6" class="node">
<title>&#45;6</title>
<polygon fill="lightgray" stroke="black" points="360,-214.45 334,-214.45 334,-196.45 360,-196.45 360,-214.45"/>
<text text-anchor="middle" x="347" y="-203.25" font-family="Times,serif" font-size="9.00">&#45;6</text>
</g>
<!-- &#45;7 -->
<g id="node7" class="node">
<title>&#45;7</title>
<polygon fill="lightgray" stroke="black" points="404,-214.45 378,-214.45 378,-196.45 404,-196.45 404,-214.45"/>
<text text-anchor="middle" x="391" y="-203.25" font-family="Times,serif" font-size="9.00">&#45;7</text>
</g>
<!-- &#45;8 -->
<g id="node8" class="node">
<title>&#45;8</title>
<polygon fill="lightgray" stroke="black" points="448,-214.45 422,-214.45 422,-196.45 448,-196.45 448,-214.45"/>
<text text-anchor="middle" x="435" y="-203.25" font-family="Times,serif" font-size="9.00">&#45;8</text>
</g>
<!-- &#45;9 -->
<g id="node9" class="node">
<title>&#45;9</title>
<polygon fill="lightgray" stroke="black" points="492,-214.45 466,-214.45 466,-196.45 492,-196.45 492,-214.45"/>
<text text-anchor="middle" x="479" y="-203.25" font-family="Times,serif" font-size="9.00">&#45;9</text>
</g>
<!-- &#45;10 -->
<g id="node10" class="node">
<title>&#45;10</title>
<polygon fill="lightgray" stroke="black" points="542,-214.45 510,-214.45 510,-196.45 542,-196.45 542,-214.45"/>
<text text-anchor="middle" x="526" y="-203.25" font-family="Times,serif" font-size="9.00">&#45;10</text>
</g>
<!-- &#45;11 -->
<g id="node11" class="node">
<title>&#45;11</title>
<polygon fill="lightgray" stroke="black" points="592,-214.45 560,-214.45 560,-196.45 592,-196.45 592,-214.45"/>
<text text-anchor="middle" x="576" y="-203.25" font-family="Times,serif" font-size="9.00">&#45;11</text>
</g>
<!-- &#45;12 -->
<g id="node12" class="node">
<title>&#45;12</title>
<polygon fill="lightgray" stroke="black" points="184,-136.22 152,-136.22 152,-118.22 184,-118.22 184,-136.22"/>
<text text-anchor="middle" x="168" y="-125.02" font-family="Times,serif" font-size="9.00">&#45;12</text>
</g>
<!-- 8591 -->
<g id="node25" class="node">
<title>8591</title>
<ellipse fill="white" stroke="black" cx="140" cy="-28.99" rx="28.98" ry="28.98"/>
<text text-anchor="middle" x="140" y="-26.79" font-family="Times,serif" font-size="9.00">8591</text>
</g>
<!-- &#45;12&#45;&gt;8591 -->
<g id="edge16" class="edge">
<title>&#45;12&#45;&gt;8591</title>
<path fill="none" stroke="red" stroke-width="0.45" d="M165.61,-118.01C162.32,-106.69 156.16,-85.53 150.71,-66.8"/>
<polygon fill="red" stroke="red" stroke-width="0.45" points="154.02,-65.63 147.86,-57.01 147.29,-67.59 154.02,-65.63"/>
</g>
<!-- &#45;13 -->
<g id="node13" class="node">
<title>&#45;13</title>
<polygon fill="lightgray" stroke="black" points="642,-214.45 610,-214.45 610,-196.45 642,-196.45 642,-214.45"/>
<text text-anchor="middle" x="626" y="-203.25" font-family="Times,serif" font-size="9.00">&#45;13</text>
</g>
<!-- &#45;14 -->
<g id="node14" class="node">
<title>&#45;14</title>
<polygon fill="lightgray" stroke="black" points="692,-214.45 660,-214.45 660,-196.45 692,-196.45 692,-214.45"/>
<text text-anchor="middle" x="676" y="-203.25" font-family="Times,serif" font-size="9.00">&#45;14</text>
</g>
<!-- &#45;15 -->
<g id="node15" class="node">
<title>&#45;15</title>
<polygon fill="lightgray" stroke="black" points="742,-214.45 710,-214.45 710,-196.45 742,-196.45 742,-214.45"/>
<text text-anchor="middle" x="726" y="-203.25" font-family="Times,serif" font-size="9.00">&#45;15</text>
</g>
<!-- &#45;16 -->
<g id="node16" class="node">
<title>&#45;16</title>
<polygon fill="lightgray" stroke="black" points="356,-136.22 324,-136.22 324,-118.22 356,-118.22 356,-136.22"/>
<text text-anchor="middle" x="340" y="-125.02" font-family="Times,serif" font-size="9.00">&#45;16</text>
</g>
<!-- &#45;16&#45;&gt;0 -->
<g id="edge2" class="edge">
<title>&#45;16&#45;&gt;0</title>
<path fill="none" stroke="red" stroke-width="0.66" stroke-dasharray="1,5" d="M345.54,-118.17C350.34,-111.41 357.67,-101.67 365,-93.98 382.05,-76.12 403.7,-58.06 419.36,-45.71"/>
<polygon fill="red" stroke="red" stroke-width="0.66" points="421.63,-48.37 427.37,-39.47 417.33,-42.85 421.63,-48.37"/>
</g>
<!-- &#45;17 -->
<g id="node17" class="node">
<title>&#45;17</title>
<polygon fill="lightgray" stroke="black" points="792,-214.45 760,-214.45 760,-196.45 792,-196.45 792,-214.45"/>
<text text-anchor="middle" x="776" y="-203.25" font-family="Times,serif" font-size="9.00">&#45;17</text>
</g>
<!-- &#45;18 -->
<g id="node18" class="node">
<title>&#45;18</title>
<polygon fill="lightgray" stroke="black" points="406,-136.22 374,-136.22 374,-118.22 406,-118.22 406,-136.22"/>
<text text-anchor="middle" x="390" y="-125.02" font-family="Times,serif" font-size="9.00">&#45;18</text>
</g>
<!-- &#45;18&#45;&gt;0 -->
<g id="edge3" class="edge">
<title>&#45;18&#45;&gt;0</title>
<path fill="none" stroke="green" stroke-width="0.79" stroke-dasharray="1,5" d="M394.26,-118.01C401.72,-103.67 417.36,-73.55 428.27,-52.57"/>
<polygon fill="green" stroke="green" stroke-width="0.79" points="431.39,-54.14 432.9,-43.66 425.18,-50.92 431.39,-54.14"/>
</g>
<!-- &#45;19 -->
<g id="node19" class="node">
<title>&#45;19</title>
<polygon fill="lightgray" stroke="black" points="456,-136.22 424,-136.22 424,-118.22 456,-118.22 456,-136.22"/>
<text text-anchor="middle" x="440" y="-125.02" font-family="Times,serif" font-size="9.00">&#45;19</text>
</g>
<!-- &#45;19&#45;&gt;0 -->
<g id="edge6" class="edge">
<title>&#45;19&#45;&gt;0</title>
<path fill="none" stroke="green" stroke-width="0.76" stroke-dasharray="1,5" d="M440,-118.01C440,-104.31 440,-76.23 440,-55.45"/>
<polygon fill="green" stroke="green" stroke-width="0.76" points="443.5,-55.37 440,-45.37 436.5,-55.37 443.5,-55.37"/>
</g>
<!-- &#45;20 -->
<g id="node20" class="node">
<title>&#45;20</title>
<polygon fill="lightgray" stroke="black" points="228,-214.45 196,-214.45 196,-196.45 228,-196.45 228,-214.45"/>
<text text-anchor="middle" x="212" y="-203.25" font-family="Times,serif" font-size="9.00">&#45;20</text>
</g>
<!-- &#45;20&#45;&gt;1 -->
<g id="edge1" class="edge">
<title>&#45;20&#45;&gt;1</title>
<path fill="none" stroke="green" stroke-width="0.32" stroke-dasharray="1,5" d="M195.99,-204.76C165.71,-204.4 100.11,-198.94 67,-160.45 41.99,-131.37 41.58,-84.46 44.28,-55.52"/>
<polygon fill="green" stroke="green" stroke-width="0.32" points="47.78,-55.71 45.43,-45.38 40.83,-54.93 47.78,-55.71"/>
</g>
<!-- &#45;20&#45;&gt;5480 -->
<g id="edge7" class="edge">
<title>&#45;20&#45;&gt;5480</title>
<path fill="none" stroke="green" stroke-width="0.69" stroke-dasharray="1,5" d="M198.15,-196.38C183.95,-187.93 161.41,-174.03 143,-160.45 140.04,-158.27 137.02,-155.92 134.03,-153.53"/>
<polygon fill="green" stroke="green" stroke-width="0.69" points="136.23,-150.8 126.29,-147.15 131.78,-156.21 136.23,-150.8"/>
</g>
<!-- 8428 -->
<g id="node24" class="node">
<title>8428</title>
<ellipse fill="white" stroke="black" cx="547" cy="-127.22" rx="28.98" ry="28.98"/>
<text text-anchor="middle" x="547" y="-125.02" font-family="Times,serif" font-size="9.00">8428</text>
</g>
<!-- &#45;20&#45;&gt;8428 -->
<g id="edge10" class="edge">
<title>&#45;20&#45;&gt;8428</title>
<path fill="none" stroke="red" stroke-width="0.69" d="M228.02,-198.86C230.98,-197.96 234.07,-197.11 237,-196.45 355.99,-169.76 397.53,-209.9 509,-160.45 512.44,-158.92 515.82,-156.98 519.04,-154.81"/>
<polygon fill="red" stroke="red" stroke-width="0.69" points="521.32,-157.48 527.19,-148.66 517.1,-151.9 521.32,-157.48"/>
</g>
<!-- &#45;20&#45;&gt;8591 -->
<g id="edge12" class="edge">
<title>&#45;20&#45;&gt;8591</title>
<path fill="none" stroke="red" stroke-width="0.78" d="M212.01,-196.27C211.74,-177.35 209.34,-129.52 193,-93.98 186.79,-80.48 177,-67.49 167.51,-56.78"/>
<polygon fill="red" stroke="red" stroke-width="0.78" points="170.07,-54.38 160.71,-49.41 164.92,-59.13 170.07,-54.38"/>
</g>
<!-- 17712 -->
<g id="node26" class="node">
<title>17712</title>
<ellipse fill="white" stroke="black" cx="273" cy="-127.22" rx="33.47" ry="33.47"/>
<text text-anchor="middle" x="273" y="-125.02" font-family="Times,serif" font-size="9.00">17712</text>
</g>
<!-- &#45;20&#45;&gt;17712 -->
<g id="edge15" class="edge">
<title>&#45;20&#45;&gt;17712</title>
<path fill="none" stroke="green" stroke-width="0.39" d="M218.53,-196.29C225.2,-187.96 236,-174.46 246.23,-161.68"/>
<polygon fill="green" stroke="green" stroke-width="0.39" points="248.97,-163.85 252.48,-153.86 243.5,-159.48 248.97,-163.85"/>
</g>
<!-- 5480&#45;&gt;1 -->
<g id="edge8" class="edge">
<title>5480&#45;&gt;1</title>
<path fill="none" stroke="green" stroke-width="0.29" stroke-dasharray="1,5" d="M90.62,-101.94C81.58,-86.68 70.01,-67.15 61.21,-52.29"/>
<polygon fill="green" stroke="green" stroke-width="0.29" points="63.98,-50.11 55.88,-43.29 57.96,-53.68 63.98,-50.11"/>
</g>
<!-- 5480&#45;&gt;8591 -->
<g id="edge14" class="edge">
<title>5480&#45;&gt;8591</title>
<path fill="none" stroke="green" stroke-width="0.43" d="M108.94,-98.38C112.27,-87.46 116.77,-74.82 121.38,-63.41"/>
<polygon fill="green" stroke="green" stroke-width="0.43" points="124.62,-64.74 125.26,-54.17 118.16,-62.03 124.62,-64.74"/>
</g>
<!-- 8428&#45;&gt;0 -->
<g id="edge11" class="edge">
<title>8428&#45;&gt;0</title>
<path fill="none" stroke="green" stroke-width="0.28" stroke-dasharray="1,5" d="M525.86,-107.21C506.55,-89.84 478.23,-64.37 459.46,-47.49"/>
<polygon fill="green" stroke="green" stroke-width="0.28" points="461.59,-44.7 451.82,-40.62 456.91,-49.91 461.59,-44.7"/>
</g>
<!-- 8591&#45;&gt;5480 -->
<g id="edge13" class="edge">
<title>8591&#45;&gt;5480</title>
<path fill="none" stroke="red" stroke-width="0.15" d="M136,-58.02C132.72,-68.78 128.3,-81.17 123.77,-92.42"/>
<polygon fill="red" stroke="red" stroke-width="0.15" points="120.42,-91.36 119.78,-101.94 126.88,-94.06 120.42,-91.36"/>
</g>
</g>
</svg>
