<?xml version="1.0" encoding="UTF-8" standalone="no"?>
<!DOCTYPE svg PUBLIC "-//W3C//DTD SVG 1.1//EN"
 "http://www.w3.org/Graphics/SVG/1.1/DTD/svg11.dtd">
<!-- Generated by graphviz version 2.43.0 (0)
 -->
<!-- Title: %3 Pages: 1 -->
<svg width="536pt" height="95pt"
 viewBox="0.00 0.00 536.00 94.53" xmlns="http://www.w3.org/2000/svg" xmlns:xlink="http://www.w3.org/1999/xlink">
<g id="graph0" class="graph" transform="scale(1 1) rotate(0) translate(4 90.53)">
<title>%3</title>
<polygon fill="white" stroke="transparent" points="-4,4 -4,-90.53 532,-90.53 532,4 -4,4"/>
<!-- &#45;1 -->
<g id="node1" class="node">
<title>&#45;1</title>
<polygon fill="lightgray" stroke="black" points="26,-86.53 0,-86.53 0,-68.53 26,-68.53 26,-86.53"/>
<text text-anchor="middle" x="13" y="-75.33" font-family="Times,serif" font-size="9.00">&#45;1</text>
</g>
<!-- &#45;2 -->
<g id="node2" class="node">
<title>&#45;2</title>
<polygon fill="lightgray" stroke="black" points="70,-86.53 44,-86.53 44,-68.53 70,-68.53 70,-86.53"/>
<text text-anchor="middle" x="57" y="-75.33" font-family="Times,serif" font-size="9.00">&#45;2</text>
</g>
<!-- &#45;3 -->
<g id="node3" class="node">
<title>&#45;3</title>
<polygon fill="lightgray" stroke="black" points="164,-86.53 138,-86.53 138,-68.53 164,-68.53 164,-86.53"/>
<text text-anchor="middle" x="151" y="-75.33" font-family="Times,serif" font-size="9.00">&#45;3</text>
</g>
<!-- 1 -->
<g id="node14" class="node">
<title>1</title>
<ellipse fill="lightblue" stroke="black" cx="263" cy="-16.26" rx="16.03" ry="16.03"/>
<text text-anchor="middle" x="263" y="-14.06" font-family="Times,serif" font-size="9.00">1</text>
</g>
<!-- &#45;3&#45;&gt;1 -->
<g id="edge2" class="edge">
<title>&#45;3&#45;&gt;1</title>
<path fill="none" stroke="green" stroke-width="0.23" d="M164.29,-69.5C182.95,-59.62 217.18,-41.51 240.02,-29.43"/>
<polygon fill="green" stroke="green" stroke-width="0.23" points="241.83,-32.43 249.03,-24.66 238.55,-26.24 241.83,-32.43"/>
</g>
<!-- &#45;4 -->
<g id="node4" class="node">
<title>&#45;4</title>
<polygon fill="lightgray" stroke="black" points="346,-86.53 320,-86.53 320,-68.53 346,-68.53 346,-86.53"/>
<text text-anchor="middle" x="333" y="-75.33" font-family="Times,serif" font-size="9.00">&#45;4</text>
</g>
<!-- 0 -->
<g id="node13" class="node">
<title>0</title>
<ellipse fill="lightblue" stroke="black" cx="377" cy="-16.26" rx="16.03" ry="16.03"/>
<text text-anchor="middle" x="377" y="-14.06" font-family="Times,serif" font-size="9.00">0</text>
</g>
<!-- &#45;4&#45;&gt;0 -->
<g id="edge9" class="edge">
<title>&#45;4&#45;&gt;0</title>
<path fill="none" stroke="green" stroke-width="0.1" d="M339.12,-68.29C344.87,-60.53 353.73,-48.6 361.44,-38.22"/>
<polygon fill="green" stroke="green" stroke-width="0.1" points="364.4,-40.11 367.55,-30 358.78,-35.94 364.4,-40.11"/>
</g>
<!-- &#45;4&#45;&gt;1 -->
<g id="edge12" class="edge">
<title>&#45;4&#45;&gt;1</title>
<path fill="none" stroke="green" stroke-width="0.16" d="M323.27,-68.29C312.81,-59.44 295.92,-45.14 282.68,-33.92"/>
<polygon fill="green" stroke="green" stroke-width="0.16" points="284.89,-31.21 274.99,-27.42 280.36,-36.55 284.89,-31.21"/>
</g>
<!-- &#45;5 -->
<g id="node5" class="node">
<title>&#45;5</title>
<polygon fill="lightgray" stroke="black" points="208,-86.53 182,-86.53 182,-68.53 208,-68.53 208,-86.53"/>
<text text-anchor="middle" x="195" y="-75.33" font-family="Times,serif" font-size="9.00">&#45;5</text>
</g>
<!-- &#45;5&#45;&gt;1 -->
<g id="edge4" class="edge">
<title>&#45;5&#45;&gt;1</title>
<path fill="none" stroke="green" stroke-width="0.73" d="M204.46,-68.29C214.39,-59.62 230.32,-45.74 243.06,-34.64"/>
<polygon fill="green" stroke="green" stroke-width="0.73" points="245.63,-37.04 250.87,-27.83 241.03,-31.76 245.63,-37.04"/>
</g>
<!-- &#45;6 -->
<g id="node6" class="node">
<title>&#45;6</title>
<polygon fill="lightgray" stroke="black" points="484,-86.53 458,-86.53 458,-68.53 484,-68.53 484,-86.53"/>
<text text-anchor="middle" x="471" y="-75.33" font-family="Times,serif" font-size="9.00">&#45;6</text>
</g>
<!-- &#45;7 -->
<g id="node7" class="node">
<title>&#45;7</title>
<polygon fill="lightgray" stroke="black" points="390,-86.53 364,-86.53 364,-68.53 390,-68.53 390,-86.53"/>
<text text-anchor="middle" x="377" y="-75.33" font-family="Times,serif" font-size="9.00">&#45;7</text>
</g>
<!-- &#45;7&#45;&gt;0 -->
<g id="edge1" class="edge">
<title>&#45;7&#45;&gt;0</title>
<path fill="none" stroke="red" stroke-width="0.15" d="M377,-68.29C377,-61.7 377,-52.1 377,-43"/>
<polygon fill="red" stroke="red" stroke-width="0.15" points="380.5,-42.76 377,-32.76 373.5,-42.76 380.5,-42.76"/>
</g>
<!-- &#45;7&#45;&gt;1 -->
<g id="edge6" class="edge">
<title>&#45;7&#45;&gt;1</title>
<path fill="none" stroke="green" stroke-width="0.91" d="M363.92,-69.73C345.01,-59.9 309.72,-41.55 286.29,-29.37"/>
<polygon fill="green" stroke="green" stroke-width="0.91" points="287.84,-26.23 277.35,-24.72 284.61,-32.44 287.84,-26.23"/>
</g>
<!-- &#45;8 -->
<g id="node8" class="node">
<title>&#45;8</title>
<polygon fill="lightgray" stroke="black" points="528,-86.53 502,-86.53 502,-68.53 528,-68.53 528,-86.53"/>
<text text-anchor="middle" x="515" y="-75.33" font-family="Times,serif" font-size="9.00">&#45;8</text>
</g>
<!-- &#45;9 -->
<g id="node9" class="node">
<title>&#45;9</title>
<polygon fill="lightgray" stroke="black" points="252,-86.53 226,-86.53 226,-68.53 252,-68.53 252,-86.53"/>
<text text-anchor="middle" x="239" y="-75.33" font-family="Times,serif" font-size="9.00">&#45;9</text>
</g>
<!-- &#45;9&#45;&gt;1 -->
<g id="edge10" class="edge">
<title>&#45;9&#45;&gt;1</title>
<path fill="none" stroke="red" stroke-width="0.78" d="M242.34,-68.29C245.17,-61.3 249.37,-50.91 253.25,-41.33"/>
<polygon fill="red" stroke="red" stroke-width="0.78" points="256.6,-42.4 257.11,-31.82 250.11,-39.77 256.6,-42.4"/>
</g>
<!-- &#45;10 -->
<g id="node10" class="node">
<title>&#45;10</title>
<polygon fill="lightgray" stroke="black" points="302,-86.53 270,-86.53 270,-68.53 302,-68.53 302,-86.53"/>
<text text-anchor="middle" x="286" y="-75.33" font-family="Times,serif" font-size="9.00">&#45;10</text>
</g>
<!-- &#45;10&#45;&gt;1 -->
<g id="edge5" class="edge">
<title>&#45;10&#45;&gt;1</title>
<path fill="none" stroke="red" stroke-width="0.12" d="M282.8,-68.29C280.09,-61.3 276.06,-50.91 272.34,-41.33"/>
<polygon fill="red" stroke="red" stroke-width="0.12" points="275.53,-39.87 268.65,-31.82 269,-42.41 275.53,-39.87"/>
</g>
<!-- &#45;11 -->
<g id="node11" class="node">
<title>&#45;11</title>
<polygon fill="lightgray" stroke="black" points="440,-86.53 408,-86.53 408,-68.53 440,-68.53 440,-86.53"/>
<text text-anchor="middle" x="424" y="-75.33" font-family="Times,serif" font-size="9.00">&#45;11</text>
</g>
<!-- &#45;11&#45;&gt;0 -->
<g id="edge3" class="edge">
<title>&#45;11&#45;&gt;0</title>
<path fill="none" stroke="red" stroke-width="0.37" d="M417.46,-68.29C411.18,-60.36 401.42,-48.05 393.06,-37.51"/>
<polygon fill="red" stroke="red" stroke-width="0.37" points="395.7,-35.21 386.75,-29.55 390.22,-39.56 395.7,-35.21"/>
</g>
<!-- &#45;11&#45;&gt;1 -->
<g id="edge7" class="edge">
<title>&#45;11&#45;&gt;1</title>
<path fill="none" stroke="red" stroke-width="0.2" d="M407.97,-70.63C379.72,-60.23 320.88,-38.57 287.5,-26.28"/>
<polygon fill="red" stroke="red" stroke-width="0.2" points="288.61,-22.96 278.02,-22.79 286.2,-29.53 288.61,-22.96"/>
</g>
<!-- &#45;12 -->
<g id="node12" class="node">
<title>&#45;12</title>
<polygon fill="lightgray" stroke="black" points="120,-86.53 88,-86.53 88,-68.53 120,-68.53 120,-86.53"/>
<text text-anchor="middle" x="104" y="-75.33" font-family="Times,serif" font-size="9.00">&#45;12</text>
</g>
<!-- &#45;12&#45;&gt;1 -->
<g id="edge13" class="edge">
<title>&#45;12&#45;&gt;1</title>
<path fill="none" stroke="red" stroke-width="0.15" d="M120.12,-70.52C147.9,-60.16 204.99,-38.88 237.98,-26.59"/>
<polygon fill="red" stroke="red" stroke-width="0.15" points="239.63,-29.71 247.77,-22.94 237.18,-23.15 239.63,-29.71"/>
</g>
<!-- 0&#45;&gt;0 -->
<g id="edge11" class="edge">
<title>0&#45;&gt;0</title>
<path fill="none" stroke="green" stroke-width="0.17" d="M390.36,-26.06C400.71,-29.72 411.26,-26.46 411.26,-16.26 411.26,-9.57 406.72,-5.87 400.67,-5.14"/>
<polygon fill="green" stroke="green" stroke-width="0.17" points="399.84,-1.72 390.36,-6.47 400.73,-8.67 399.84,-1.72"/>
</g>
<!-- 1&#45;&gt;1 -->
<g id="edge8" class="edge">
<title>1&#45;&gt;1</title>
<path fill="none" stroke="red" stroke-width="0.15" d="M276.36,-26.06C286.71,-29.72 297.26,-26.46 297.26,-16.26 297.26,-9.57 292.72,-5.87 286.67,-5.14"/>
<polygon fill="red" stroke="red" stroke-width="0.15" points="285.84,-1.72 276.36,-6.47 286.73,-8.67 285.84,-1.72"/>
</g>
</g>
</svg>
