<?xml version="1.0" encoding="UTF-8" standalone="no"?>
<!DOCTYPE svg PUBLIC "-//W3C//DTD SVG 1.1//EN"
 "http://www.w3.org/Graphics/SVG/1.1/DTD/svg11.dtd">
<!-- Generated by graphviz version 2.43.0 (0)
 -->
<!-- Title: %3 Pages: 1 -->
<svg width="936pt" height="95pt"
 viewBox="0.00 0.00 936.00 94.53" xmlns="http://www.w3.org/2000/svg" xmlns:xlink="http://www.w3.org/1999/xlink">
<g id="graph0" class="graph" transform="scale(1 1) rotate(0) translate(4 90.53)">
<title>%3</title>
<polygon fill="white" stroke="transparent" points="-4,4 -4,-90.53 932,-90.53 932,4 -4,4"/>
<!-- &#45;1 -->
<g id="node1" class="node">
<title>&#45;1</title>
<polygon fill="lightgray" stroke="black" points="176,-86.53 150,-86.53 150,-68.53 176,-68.53 176,-86.53"/>
<text text-anchor="middle" x="163" y="-75.33" font-family="Times,serif" font-size="9.00">&#45;1</text>
</g>
<!-- 1 -->
<g id="node22" class="node">
<title>1</title>
<ellipse fill="lightblue" stroke="black" cx="275" cy="-16.26" rx="16.03" ry="16.03"/>
<text text-anchor="middle" x="275" y="-14.06" font-family="Times,serif" font-size="9.00">1</text>
</g>
<!-- &#45;1&#45;&gt;1 -->
<g id="edge15" class="edge">
<title>&#45;1&#45;&gt;1</title>
<path fill="none" stroke="green" stroke-width="0.2" d="M176.29,-69.5C194.95,-59.62 229.18,-41.51 252.02,-29.43"/>
<polygon fill="green" stroke="green" stroke-width="0.2" points="253.83,-32.43 261.03,-24.66 250.55,-26.24 253.83,-32.43"/>
</g>
<!-- &#45;2 -->
<g id="node2" class="node">
<title>&#45;2</title>
<polygon fill="lightgray" stroke="black" points="790,-86.53 764,-86.53 764,-68.53 790,-68.53 790,-86.53"/>
<text text-anchor="middle" x="777" y="-75.33" font-family="Times,serif" font-size="9.00">&#45;2</text>
</g>
<!-- 0 -->
<g id="node21" class="node">
<title>0</title>
<ellipse fill="lightblue" stroke="black" cx="542" cy="-16.26" rx="16.03" ry="16.03"/>
<text text-anchor="middle" x="542" y="-14.06" font-family="Times,serif" font-size="9.00">0</text>
</g>
<!-- &#45;2&#45;&gt;0 -->
<g id="edge8" class="edge">
<title>&#45;2&#45;&gt;0</title>
<path fill="none" stroke="green" stroke-width="0.21" d="M763.58,-71.38C760.77,-70.37 757.8,-69.37 755,-68.53 688.3,-48.44 608.03,-30.86 567.73,-22.48"/>
<polygon fill="green" stroke="green" stroke-width="0.21" points="568.43,-19.05 557.93,-20.46 567.02,-25.9 568.43,-19.05"/>
</g>
<!-- &#45;3 -->
<g id="node3" class="node">
<title>&#45;3</title>
<polygon fill="lightgray" stroke="black" points="834,-86.53 808,-86.53 808,-68.53 834,-68.53 834,-86.53"/>
<text text-anchor="middle" x="821" y="-75.33" font-family="Times,serif" font-size="9.00">&#45;3</text>
</g>
<!-- &#45;4 -->
<g id="node4" class="node">
<title>&#45;4</title>
<polygon fill="lightgray" stroke="black" points="220,-86.53 194,-86.53 194,-68.53 220,-68.53 220,-86.53"/>
<text text-anchor="middle" x="207" y="-75.33" font-family="Times,serif" font-size="9.00">&#45;4</text>
</g>
<!-- &#45;4&#45;&gt;1 -->
<g id="edge11" class="edge">
<title>&#45;4&#45;&gt;1</title>
<path fill="none" stroke="green" stroke-width="0.54" d="M216.46,-68.29C226.39,-59.62 242.32,-45.74 255.06,-34.64"/>
<polygon fill="green" stroke="green" stroke-width="0.54" points="257.63,-37.04 262.87,-27.83 253.03,-31.76 257.63,-37.04"/>
</g>
<!-- &#45;5 -->
<g id="node5" class="node">
<title>&#45;5</title>
<polygon fill="lightgray" stroke="black" points="878,-86.53 852,-86.53 852,-68.53 878,-68.53 878,-86.53"/>
<text text-anchor="middle" x="865" y="-75.33" font-family="Times,serif" font-size="9.00">&#45;5</text>
</g>
<!-- &#45;6 -->
<g id="node6" class="node">
<title>&#45;6</title>
<polygon fill="lightgray" stroke="black" points="264,-86.53 238,-86.53 238,-68.53 264,-68.53 264,-86.53"/>
<text text-anchor="middle" x="251" y="-75.33" font-family="Times,serif" font-size="9.00">&#45;6</text>
</g>
<!-- &#45;6&#45;&gt;1 -->
<g id="edge7" class="edge">
<title>&#45;6&#45;&gt;1</title>
<path fill="none" stroke="red" stroke-width="0.21" d="M254.34,-68.29C257.17,-61.3 261.37,-50.91 265.25,-41.33"/>
<polygon fill="red" stroke="red" stroke-width="0.21" points="268.6,-42.4 269.11,-31.82 262.11,-39.77 268.6,-42.4"/>
</g>
<!-- &#45;7 -->
<g id="node7" class="node">
<title>&#45;7</title>
<polygon fill="lightgray" stroke="black" points="602,-86.53 576,-86.53 576,-68.53 602,-68.53 602,-86.53"/>
<text text-anchor="middle" x="589" y="-75.33" font-family="Times,serif" font-size="9.00">&#45;7</text>
</g>
<!-- &#45;7&#45;&gt;0 -->
<g id="edge6" class="edge">
<title>&#45;7&#45;&gt;0</title>
<path fill="none" stroke="green" stroke-width="0.19" d="M582.46,-68.29C576.18,-60.36 566.42,-48.05 558.06,-37.51"/>
<polygon fill="green" stroke="green" stroke-width="0.19" points="560.7,-35.21 551.75,-29.55 555.22,-39.56 560.7,-35.21"/>
</g>
<!-- &#45;8 -->
<g id="node8" class="node">
<title>&#45;8</title>
<polygon fill="lightgray" stroke="black" points="458,-86.53 432,-86.53 432,-68.53 458,-68.53 458,-86.53"/>
<text text-anchor="middle" x="445" y="-75.33" font-family="Times,serif" font-size="9.00">&#45;8</text>
</g>
<!-- &#45;8&#45;&gt;0 -->
<g id="edge10" class="edge">
<title>&#45;8&#45;&gt;0</title>
<path fill="none" stroke="green" stroke-width="0.57" d="M458.08,-68.53C473.9,-58.87 500.78,-42.45 519.85,-30.8"/>
<polygon fill="green" stroke="green" stroke-width="0.57" points="521.79,-33.71 528.5,-25.51 518.14,-27.74 521.79,-33.71"/>
</g>
<!-- &#45;8&#45;&gt;1 -->
<g id="edge21" class="edge">
<title>&#45;8&#45;&gt;1</title>
<path fill="none" stroke="green" stroke-width="0.35" stroke-dasharray="1,5" d="M431.98,-71.76C429.03,-70.69 425.91,-69.56 423,-68.53 379.68,-53.15 329.03,-35.72 299.62,-25.66"/>
<polygon fill="green" stroke="green" stroke-width="0.35" points="300.75,-22.35 290.15,-22.43 298.48,-28.97 300.75,-22.35"/>
</g>
<!-- &#45;9 -->
<g id="node9" class="node">
<title>&#45;9</title>
<polygon fill="lightgray" stroke="black" points="646,-86.53 620,-86.53 620,-68.53 646,-68.53 646,-86.53"/>
<text text-anchor="middle" x="633" y="-75.33" font-family="Times,serif" font-size="9.00">&#45;9</text>
</g>
<!-- &#45;9&#45;&gt;0 -->
<g id="edge12" class="edge">
<title>&#45;9&#45;&gt;0</title>
<path fill="none" stroke="red" stroke-width="0.36" d="M620.35,-68.29C605.79,-58.81 581.63,-43.07 563.98,-31.58"/>
<polygon fill="red" stroke="red" stroke-width="0.36" points="565.72,-28.54 555.43,-26.01 561.9,-34.4 565.72,-28.54"/>
</g>
<!-- &#45;10 -->
<g id="node10" class="node">
<title>&#45;10</title>
<polygon fill="lightgray" stroke="black" points="508,-86.53 476,-86.53 476,-68.53 508,-68.53 508,-86.53"/>
<text text-anchor="middle" x="492" y="-75.33" font-family="Times,serif" font-size="9.00">&#45;10</text>
</g>
<!-- &#45;10&#45;&gt;0 -->
<g id="edge20" class="edge">
<title>&#45;10&#45;&gt;0</title>
<path fill="none" stroke="red" stroke-width="0.24" d="M498.95,-68.29C505.79,-60.18 516.5,-47.49 525.52,-36.79"/>
<polygon fill="red" stroke="red" stroke-width="0.24" points="528.23,-39.01 532,-29.11 522.88,-34.5 528.23,-39.01"/>
</g>
<!-- &#45;10&#45;&gt;1 -->
<g id="edge1" class="edge">
<title>&#45;10&#45;&gt;1</title>
<path fill="none" stroke="red" stroke-width="0.15" d="M475.9,-71.25C472.95,-70.32 469.89,-69.37 467,-68.53 407.94,-51.2 337.96,-33.13 300.96,-23.77"/>
<polygon fill="red" stroke="red" stroke-width="0.15" points="301.56,-20.31 291,-21.25 299.84,-27.09 301.56,-20.31"/>
</g>
<!-- &#45;11 -->
<g id="node11" class="node">
<title>&#45;11</title>
<polygon fill="lightgray" stroke="black" points="32,-86.53 0,-86.53 0,-68.53 32,-68.53 32,-86.53"/>
<text text-anchor="middle" x="16" y="-75.33" font-family="Times,serif" font-size="9.00">&#45;11</text>
</g>
<!-- &#45;11&#45;&gt;1 -->
<g id="edge13" class="edge">
<title>&#45;11&#45;&gt;1</title>
<path fill="none" stroke="red" stroke-width="0.24" stroke-dasharray="1,5" d="M32.07,-71.14C35.03,-70.22 38.1,-69.31 41,-68.53 115.79,-48.42 205.59,-30.44 248.99,-22.13"/>
<polygon fill="red" stroke="red" stroke-width="0.24" points="249.82,-25.54 258.99,-20.23 248.51,-18.66 249.82,-25.54"/>
</g>
<!-- &#45;12 -->
<g id="node12" class="node">
<title>&#45;12</title>
<polygon fill="lightgray" stroke="black" points="82,-86.53 50,-86.53 50,-68.53 82,-68.53 82,-86.53"/>
<text text-anchor="middle" x="66" y="-75.33" font-family="Times,serif" font-size="9.00">&#45;12</text>
</g>
<!-- &#45;12&#45;&gt;1 -->
<g id="edge4" class="edge">
<title>&#45;12&#45;&gt;1</title>
<path fill="none" stroke="red" stroke-width="0.23" d="M82.11,-71.27C85.06,-70.34 88.12,-69.39 91,-68.53 147.14,-51.73 213.45,-33.69 249.14,-24.14"/>
<polygon fill="red" stroke="red" stroke-width="0.23" points="250.43,-27.41 259.19,-21.45 248.63,-20.65 250.43,-27.41"/>
</g>
<!-- &#45;13 -->
<g id="node13" class="node">
<title>&#45;13</title>
<polygon fill="lightgray" stroke="black" points="928,-86.53 896,-86.53 896,-68.53 928,-68.53 928,-86.53"/>
<text text-anchor="middle" x="912" y="-75.33" font-family="Times,serif" font-size="9.00">&#45;13</text>
</g>
<!-- &#45;14 -->
<g id="node14" class="node">
<title>&#45;14</title>
<polygon fill="lightgray" stroke="black" points="132,-86.53 100,-86.53 100,-68.53 132,-68.53 132,-86.53"/>
<text text-anchor="middle" x="116" y="-75.33" font-family="Times,serif" font-size="9.00">&#45;14</text>
</g>
<!-- &#45;14&#45;&gt;1 -->
<g id="edge5" class="edge">
<title>&#45;14&#45;&gt;1</title>
<path fill="none" stroke="red" stroke-width="0.13" d="M132.12,-70.52C159.9,-60.16 216.99,-38.88 249.98,-26.59"/>
<polygon fill="red" stroke="red" stroke-width="0.13" points="251.63,-29.71 259.77,-22.94 249.18,-23.15 251.63,-29.71"/>
</g>
<!-- &#45;15 -->
<g id="node15" class="node">
<title>&#45;15</title>
<polygon fill="lightgray" stroke="black" points="558,-86.53 526,-86.53 526,-68.53 558,-68.53 558,-86.53"/>
<text text-anchor="middle" x="542" y="-75.33" font-family="Times,serif" font-size="9.00">&#45;15</text>
</g>
<!-- &#45;15&#45;&gt;0 -->
<g id="edge17" class="edge">
<title>&#45;15&#45;&gt;0</title>
<path fill="none" stroke="red" stroke-width="0.39" stroke-dasharray="1,5" d="M542,-68.29C542,-61.7 542,-52.1 542,-43"/>
<polygon fill="red" stroke="red" stroke-width="0.39" points="545.5,-42.76 542,-32.76 538.5,-42.76 545.5,-42.76"/>
</g>
<!-- &#45;15&#45;&gt;1 -->
<g id="edge22" class="edge">
<title>&#45;15&#45;&gt;1</title>
<path fill="none" stroke="green" stroke-width="1.03" d="M525.93,-71.12C522.98,-70.2 519.91,-69.3 517,-68.53 439.15,-47.88 345.49,-29.97 300.96,-21.87"/>
<polygon fill="green" stroke="green" stroke-width="1.03" points="301.45,-18.4 290.99,-20.07 300.21,-25.29 301.45,-18.4"/>
</g>
<!-- &#45;16 -->
<g id="node16" class="node">
<title>&#45;16</title>
<polygon fill="lightgray" stroke="black" points="696,-86.53 664,-86.53 664,-68.53 696,-68.53 696,-86.53"/>
<text text-anchor="middle" x="680" y="-75.33" font-family="Times,serif" font-size="9.00">&#45;16</text>
</g>
<!-- &#45;16&#45;&gt;0 -->
<g id="edge23" class="edge">
<title>&#45;16&#45;&gt;0</title>
<path fill="none" stroke="red" stroke-width="0.37" d="M663.9,-69.61C639.84,-59.28 594.32,-39.73 566.23,-27.67"/>
<polygon fill="red" stroke="red" stroke-width="0.37" points="567.31,-24.32 556.74,-23.59 564.55,-30.76 567.31,-24.32"/>
</g>
<!-- &#45;17 -->
<g id="node17" class="node">
<title>&#45;17</title>
<polygon fill="lightgray" stroke="black" points="314,-86.53 282,-86.53 282,-68.53 314,-68.53 314,-86.53"/>
<text text-anchor="middle" x="298" y="-75.33" font-family="Times,serif" font-size="9.00">&#45;17</text>
</g>
<!-- &#45;17&#45;&gt;0 -->
<g id="edge3" class="edge">
<title>&#45;17&#45;&gt;0</title>
<path fill="none" stroke="red" stroke-width="0.89" d="M314.08,-71.17C317.04,-70.25 320.1,-69.33 323,-68.53 392.27,-49.37 475.14,-31.26 516.24,-22.6"/>
<polygon fill="red" stroke="red" stroke-width="0.89" points="517.15,-25.98 526.22,-20.5 515.72,-19.13 517.15,-25.98"/>
</g>
<!-- &#45;17&#45;&gt;1 -->
<g id="edge19" class="edge">
<title>&#45;17&#45;&gt;1</title>
<path fill="none" stroke="green" stroke-width="0.3" d="M294.8,-68.29C292.09,-61.3 288.06,-50.91 284.34,-41.33"/>
<polygon fill="green" stroke="green" stroke-width="0.3" points="287.53,-39.87 280.65,-31.82 281,-42.41 287.53,-39.87"/>
</g>
<!-- &#45;18 -->
<g id="node18" class="node">
<title>&#45;18</title>
<polygon fill="lightgray" stroke="black" points="364,-86.53 332,-86.53 332,-68.53 364,-68.53 364,-86.53"/>
<text text-anchor="middle" x="348" y="-75.33" font-family="Times,serif" font-size="9.00">&#45;18</text>
</g>
<!-- &#45;18&#45;&gt;0 -->
<g id="edge16" class="edge">
<title>&#45;18&#45;&gt;0</title>
<path fill="none" stroke="red" stroke-width="0.75" d="M364.13,-71.33C367.08,-70.39 370.13,-69.42 373,-68.53 423.98,-52.64 483.81,-34.64 516.85,-24.76"/>
<polygon fill="red" stroke="red" stroke-width="0.75" points="518.02,-28.07 526.6,-21.85 516.01,-21.36 518.02,-28.07"/>
</g>
<!-- &#45;18&#45;&gt;1 -->
<g id="edge9" class="edge">
<title>&#45;18&#45;&gt;1</title>
<path fill="none" stroke="green" stroke-width="0.35" d="M337.85,-68.29C326.95,-59.44 309.33,-45.14 295.52,-33.92"/>
<polygon fill="green" stroke="green" stroke-width="0.35" points="297.48,-31 287.51,-27.42 293.07,-36.44 297.48,-31"/>
</g>
<!-- &#45;19 -->
<g id="node19" class="node">
<title>&#45;19</title>
<polygon fill="lightgray" stroke="black" points="746,-86.53 714,-86.53 714,-68.53 746,-68.53 746,-86.53"/>
<text text-anchor="middle" x="730" y="-75.33" font-family="Times,serif" font-size="9.00">&#45;19</text>
</g>
<!-- &#45;19&#45;&gt;0 -->
<g id="edge2" class="edge">
<title>&#45;19&#45;&gt;0</title>
<path fill="none" stroke="red" stroke-width="0.73" d="M713.87,-71.35C710.92,-70.41 707.87,-69.44 705,-68.53 656.22,-53.05 599.17,-35.16 567.14,-25.13"/>
<polygon fill="red" stroke="red" stroke-width="0.73" points="567.88,-21.69 557.29,-22.04 565.79,-28.37 567.88,-21.69"/>
</g>
<!-- &#45;20 -->
<g id="node20" class="node">
<title>&#45;20</title>
<polygon fill="lightgray" stroke="black" points="414,-86.53 382,-86.53 382,-68.53 414,-68.53 414,-86.53"/>
<text text-anchor="middle" x="398" y="-75.33" font-family="Times,serif" font-size="9.00">&#45;20</text>
</g>
<!-- &#45;20&#45;&gt;0 -->
<g id="edge14" class="edge">
<title>&#45;20&#45;&gt;0</title>
<path fill="none" stroke="green" stroke-width="0.37" d="M414.24,-69.84C439.5,-59.45 488.37,-39.33 517.8,-27.22"/>
<polygon fill="green" stroke="green" stroke-width="0.37" points="519.42,-30.34 527.33,-23.3 516.75,-23.87 519.42,-30.34"/>
</g>
<!-- &#45;20&#45;&gt;1 -->
<g id="edge18" class="edge">
<title>&#45;20&#45;&gt;1</title>
<path fill="none" stroke="green" stroke-width="0.28" stroke-dasharray="1,5" d="M381.92,-68.78C360.74,-58.58 323.33,-40.55 298.86,-28.76"/>
<polygon fill="green" stroke="green" stroke-width="0.28" points="300.08,-25.46 289.55,-24.27 297.04,-31.77 300.08,-25.46"/>
</g>
</g>
</svg>
