<?xml version="1.0" encoding="UTF-8" standalone="no"?>
<!DOCTYPE svg PUBLIC "-//W3C//DTD SVG 1.1//EN"
 "http://www.w3.org/Graphics/SVG/1.1/DTD/svg11.dtd">
<!-- Generated by graphviz version 2.43.0 (0)
 -->
<!-- Title: %3 Pages: 1 -->
<svg width="1336pt" height="95pt"
 viewBox="0.00 0.00 1336.00 94.53" xmlns="http://www.w3.org/2000/svg" xmlns:xlink="http://www.w3.org/1999/xlink">
<g id="graph0" class="graph" transform="scale(1 1) rotate(0) translate(4 90.53)">
<title>%3</title>
<polygon fill="white" stroke="transparent" points="-4,4 -4,-90.53 1332,-90.53 1332,4 -4,4"/>
<!-- &#45;1 -->
<g id="node1" class="node">
<title>&#45;1</title>
<polygon fill="lightgray" stroke="black" points="26,-86.53 0,-86.53 0,-68.53 26,-68.53 26,-86.53"/>
<text text-anchor="middle" x="13" y="-75.33" font-family="Times,serif" font-size="9.00">&#45;1</text>
</g>
<!-- &#45;2 -->
<g id="node2" class="node">
<title>&#45;2</title>
<polygon fill="lightgray" stroke="black" points="220,-86.53 194,-86.53 194,-68.53 220,-68.53 220,-86.53"/>
<text text-anchor="middle" x="207" y="-75.33" font-family="Times,serif" font-size="9.00">&#45;2</text>
</g>
<!-- 1 -->
<g id="node30" class="node">
<title>1</title>
<ellipse fill="lightblue" stroke="black" cx="373" cy="-16.26" rx="16.03" ry="16.03"/>
<text text-anchor="middle" x="373" y="-14.06" font-family="Times,serif" font-size="9.00">1</text>
</g>
<!-- &#45;2&#45;&gt;1 -->
<g id="edge7" class="edge">
<title>&#45;2&#45;&gt;1</title>
<path fill="none" stroke="green" stroke-width="1.72" d="M220.02,-71.77C222.97,-70.7 226.09,-69.57 229,-68.53 270.81,-53.48 319.53,-36.19 348.23,-26.02"/>
<polygon fill="green" stroke="green" stroke-width="1.72" points="349.59,-29.25 357.85,-22.62 347.26,-22.66 349.59,-29.25"/>
</g>
<!-- &#45;3 -->
<g id="node3" class="node">
<title>&#45;3</title>
<polygon fill="lightgray" stroke="black" points="508,-86.53 482,-86.53 482,-68.53 508,-68.53 508,-86.53"/>
<text text-anchor="middle" x="495" y="-75.33" font-family="Times,serif" font-size="9.00">&#45;3</text>
</g>
<!-- 0 -->
<g id="node29" class="node">
<title>0</title>
<ellipse fill="lightblue" stroke="black" cx="680" cy="-16.26" rx="16.03" ry="16.03"/>
<text text-anchor="middle" x="680" y="-14.06" font-family="Times,serif" font-size="9.00">0</text>
</g>
<!-- &#45;3&#45;&gt;0 -->
<g id="edge26" class="edge">
<title>&#45;3&#45;&gt;0</title>
<path fill="none" stroke="red" stroke-width="0.46" d="M508.46,-71.52C511.28,-70.51 514.23,-69.47 517,-68.53 565.47,-52.1 622.63,-34.54 654.76,-24.83"/>
<polygon fill="red" stroke="red" stroke-width="0.46" points="656.08,-28.08 664.65,-21.85 654.06,-21.38 656.08,-28.08"/>
</g>
<!-- &#45;3&#45;&gt;1 -->
<g id="edge11" class="edge">
<title>&#45;3&#45;&gt;1</title>
<path fill="none" stroke="green" stroke-width="0.1" d="M481.94,-70.18C461.65,-60.33 422.22,-41.17 396.78,-28.82"/>
<polygon fill="green" stroke="green" stroke-width="0.1" points="397.99,-25.51 387.47,-24.29 394.93,-31.81 397.99,-25.51"/>
</g>
<!-- &#45;4 -->
<g id="node4" class="node">
<title>&#45;4</title>
<polygon fill="lightgray" stroke="black" points="552,-86.53 526,-86.53 526,-68.53 552,-68.53 552,-86.53"/>
<text text-anchor="middle" x="539" y="-75.33" font-family="Times,serif" font-size="9.00">&#45;4</text>
</g>
<!-- &#45;4&#45;&gt;0 -->
<g id="edge13" class="edge">
<title>&#45;4&#45;&gt;0</title>
<path fill="none" stroke="red" stroke-width="1.32" d="M552.01,-71.06C575.66,-61.12 625.99,-39.96 656.01,-27.35"/>
<polygon fill="red" stroke="red" stroke-width="1.32" points="657.48,-30.53 665.34,-23.42 654.77,-24.07 657.48,-30.53"/>
</g>
<!-- &#45;4&#45;&gt;1 -->
<g id="edge24" class="edge">
<title>&#45;4&#45;&gt;1</title>
<path fill="none" stroke="green" stroke-width="0.28" stroke-dasharray="1,5" d="M525.98,-71.77C523.03,-70.7 519.91,-69.57 517,-68.53 475.19,-53.48 426.47,-36.19 397.77,-26.02"/>
<polygon fill="green" stroke="green" stroke-width="0.28" points="398.74,-22.66 388.15,-22.62 396.41,-29.25 398.74,-22.66"/>
</g>
<!-- &#45;5 -->
<g id="node5" class="node">
<title>&#45;5</title>
<polygon fill="lightgray" stroke="black" points="740,-86.53 714,-86.53 714,-68.53 740,-68.53 740,-86.53"/>
<text text-anchor="middle" x="727" y="-75.33" font-family="Times,serif" font-size="9.00">&#45;5</text>
</g>
<!-- &#45;5&#45;&gt;0 -->
<g id="edge23" class="edge">
<title>&#45;5&#45;&gt;0</title>
<path fill="none" stroke="red" stroke-width="0.34" stroke-dasharray="1,5" d="M720.46,-68.29C714.18,-60.36 704.42,-48.05 696.06,-37.51"/>
<polygon fill="red" stroke="red" stroke-width="0.34" points="698.7,-35.21 689.75,-29.55 693.22,-39.56 698.7,-35.21"/>
</g>
<!-- &#45;6 -->
<g id="node6" class="node">
<title>&#45;6</title>
<polygon fill="lightgray" stroke="black" points="784,-86.53 758,-86.53 758,-68.53 784,-68.53 784,-86.53"/>
<text text-anchor="middle" x="771" y="-75.33" font-family="Times,serif" font-size="9.00">&#45;6</text>
</g>
<!-- &#45;6&#45;&gt;0 -->
<g id="edge20" class="edge">
<title>&#45;6&#45;&gt;0</title>
<path fill="none" stroke="green" stroke-width="0.2" d="M758.35,-68.29C743.79,-58.81 719.63,-43.07 701.98,-31.58"/>
<polygon fill="green" stroke="green" stroke-width="0.2" points="703.72,-28.54 693.43,-26.01 699.9,-34.4 703.72,-28.54"/>
</g>
<!-- &#45;7 -->
<g id="node7" class="node">
<title>&#45;7</title>
<polygon fill="lightgray" stroke="black" points="828,-86.53 802,-86.53 802,-68.53 828,-68.53 828,-86.53"/>
<text text-anchor="middle" x="815" y="-75.33" font-family="Times,serif" font-size="9.00">&#45;7</text>
</g>
<!-- &#45;7&#45;&gt;0 -->
<g id="edge29" class="edge">
<title>&#45;7&#45;&gt;0</title>
<path fill="none" stroke="green" stroke-width="0.21" d="M801.56,-70.63C778.77,-60.62 732.26,-40.2 703.83,-27.73"/>
<polygon fill="green" stroke="green" stroke-width="0.21" points="705.17,-24.49 694.6,-23.67 702.35,-30.9 705.17,-24.49"/>
</g>
<!-- &#45;8 -->
<g id="node8" class="node">
<title>&#45;8</title>
<polygon fill="lightgray" stroke="black" points="264,-86.53 238,-86.53 238,-68.53 264,-68.53 264,-86.53"/>
<text text-anchor="middle" x="251" y="-75.33" font-family="Times,serif" font-size="9.00">&#45;8</text>
</g>
<!-- &#45;8&#45;&gt;1 -->
<g id="edge15" class="edge">
<title>&#45;8&#45;&gt;1</title>
<path fill="none" stroke="red" stroke-width="0.64" d="M264.06,-70.18C284.35,-60.33 323.78,-41.17 349.22,-28.82"/>
<polygon fill="red" stroke="red" stroke-width="0.64" points="351.07,-31.81 358.53,-24.29 348.01,-25.51 351.07,-31.81"/>
</g>
<!-- &#45;9 -->
<g id="node9" class="node">
<title>&#45;9</title>
<polygon fill="lightgray" stroke="black" points="596,-86.53 570,-86.53 570,-68.53 596,-68.53 596,-86.53"/>
<text text-anchor="middle" x="583" y="-75.33" font-family="Times,serif" font-size="9.00">&#45;9</text>
</g>
<!-- &#45;9&#45;&gt;0 -->
<g id="edge19" class="edge">
<title>&#45;9&#45;&gt;0</title>
<path fill="none" stroke="red" stroke-width="0.28" stroke-dasharray="1,5" d="M596.08,-68.53C611.9,-58.87 638.78,-42.45 657.85,-30.8"/>
<polygon fill="red" stroke="red" stroke-width="0.28" points="659.79,-33.71 666.5,-25.51 656.14,-27.74 659.79,-33.71"/>
</g>
<!-- &#45;9&#45;&gt;1 -->
<g id="edge3" class="edge">
<title>&#45;9&#45;&gt;1</title>
<path fill="none" stroke="green" stroke-width="0.37" stroke-dasharray="1,5" d="M569.56,-71.44C566.75,-70.43 563.79,-69.41 561,-68.53 503.48,-50.26 434.83,-32.56 398.5,-23.5"/>
<polygon fill="green" stroke="green" stroke-width="0.37" points="399.27,-20.09 388.73,-21.08 397.59,-26.89 399.27,-20.09"/>
</g>
<!-- &#45;10 -->
<g id="node10" class="node">
<title>&#45;10</title>
<polygon fill="lightgray" stroke="black" points="646,-86.53 614,-86.53 614,-68.53 646,-68.53 646,-86.53"/>
<text text-anchor="middle" x="630" y="-75.33" font-family="Times,serif" font-size="9.00">&#45;10</text>
</g>
<!-- &#45;10&#45;&gt;0 -->
<g id="edge2" class="edge">
<title>&#45;10&#45;&gt;0</title>
<path fill="none" stroke="green" stroke-width="0.2" stroke-dasharray="1,5" d="M636.95,-68.29C643.79,-60.18 654.5,-47.49 663.52,-36.79"/>
<polygon fill="green" stroke="green" stroke-width="0.2" points="666.23,-39.01 670,-29.11 660.88,-34.5 666.23,-39.01"/>
</g>
<!-- &#45;10&#45;&gt;1 -->
<g id="edge16" class="edge">
<title>&#45;10&#45;&gt;1</title>
<path fill="none" stroke="red" stroke-width="0.27" d="M613.93,-71.14C610.97,-70.22 607.9,-69.31 605,-68.53 530.84,-48.51 441.81,-30.49 398.79,-22.15"/>
<polygon fill="red" stroke="red" stroke-width="0.27" points="399.36,-18.7 388.88,-20.25 398.03,-25.57 399.36,-18.7"/>
</g>
<!-- &#45;11 -->
<g id="node11" class="node">
<title>&#45;11</title>
<polygon fill="lightgray" stroke="black" points="314,-86.53 282,-86.53 282,-68.53 314,-68.53 314,-86.53"/>
<text text-anchor="middle" x="298" y="-75.33" font-family="Times,serif" font-size="9.00">&#45;11</text>
</g>
<!-- &#45;11&#45;&gt;1 -->
<g id="edge21" class="edge">
<title>&#45;11&#45;&gt;1</title>
<path fill="none" stroke="green" stroke-width="0.63" stroke-dasharray="1,5" d="M308.43,-68.29C319.76,-59.33 338.16,-44.8 352.42,-33.52"/>
<polygon fill="green" stroke="green" stroke-width="0.63" points="354.99,-35.95 360.67,-27.01 350.65,-30.46 354.99,-35.95"/>
</g>
<!-- &#45;12 -->
<g id="node12" class="node">
<title>&#45;12</title>
<polygon fill="lightgray" stroke="black" points="878,-86.53 846,-86.53 846,-68.53 878,-68.53 878,-86.53"/>
<text text-anchor="middle" x="862" y="-75.33" font-family="Times,serif" font-size="9.00">&#45;12</text>
</g>
<!-- &#45;12&#45;&gt;0 -->
<g id="edge4" class="edge">
<title>&#45;12&#45;&gt;0</title>
<path fill="none" stroke="green" stroke-width="0.18" stroke-dasharray="1,5" d="M845.85,-71.27C814.04,-60.91 743.09,-37.81 705.12,-25.44"/>
<polygon fill="green" stroke="green" stroke-width="0.18" points="705.93,-22.03 695.34,-22.26 703.77,-28.68 705.93,-22.03"/>
</g>
<!-- &#45;13 -->
<g id="node13" class="node">
<title>&#45;13</title>
<polygon fill="lightgray" stroke="black" points="1078,-86.53 1046,-86.53 1046,-68.53 1078,-68.53 1078,-86.53"/>
<text text-anchor="middle" x="1062" y="-75.33" font-family="Times,serif" font-size="9.00">&#45;13</text>
</g>
<!-- &#45;14 -->
<g id="node14" class="node">
<title>&#45;14</title>
<polygon fill="lightgray" stroke="black" points="1128,-86.53 1096,-86.53 1096,-68.53 1128,-68.53 1128,-86.53"/>
<text text-anchor="middle" x="1112" y="-75.33" font-family="Times,serif" font-size="9.00">&#45;14</text>
</g>
<!-- &#45;15 -->
<g id="node15" class="node">
<title>&#45;15</title>
<polygon fill="lightgray" stroke="black" points="1178,-86.53 1146,-86.53 1146,-68.53 1178,-68.53 1178,-86.53"/>
<text text-anchor="middle" x="1162" y="-75.33" font-family="Times,serif" font-size="9.00">&#45;15</text>
</g>
<!-- &#45;16 -->
<g id="node16" class="node">
<title>&#45;16</title>
<polygon fill="lightgray" stroke="black" points="76,-86.53 44,-86.53 44,-68.53 76,-68.53 76,-86.53"/>
<text text-anchor="middle" x="60" y="-75.33" font-family="Times,serif" font-size="9.00">&#45;16</text>
</g>
<!-- &#45;16&#45;&gt;1 -->
<g id="edge10" class="edge">
<title>&#45;16&#45;&gt;1</title>
<path fill="none" stroke="red" stroke-width="0.63" d="M76.05,-71.04C79,-70.13 82.08,-69.25 85,-68.53 180.29,-44.91 295.9,-27.73 346.79,-20.73"/>
<polygon fill="red" stroke="red" stroke-width="0.63" points="347.48,-24.17 356.92,-19.36 346.54,-17.23 347.48,-24.17"/>
</g>
<!-- &#45;17 -->
<g id="node17" class="node">
<title>&#45;17</title>
<polygon fill="lightgray" stroke="black" points="696,-86.53 664,-86.53 664,-68.53 696,-68.53 696,-86.53"/>
<text text-anchor="middle" x="680" y="-75.33" font-family="Times,serif" font-size="9.00">&#45;17</text>
</g>
<!-- &#45;17&#45;&gt;0 -->
<g id="edge8" class="edge">
<title>&#45;17&#45;&gt;0</title>
<path fill="none" stroke="red" stroke-width="0.35" d="M680,-68.29C680,-61.7 680,-52.1 680,-43"/>
<polygon fill="red" stroke="red" stroke-width="0.35" points="683.5,-42.76 680,-32.76 676.5,-42.76 683.5,-42.76"/>
</g>
<!-- &#45;17&#45;&gt;1 -->
<g id="edge27" class="edge">
<title>&#45;17&#45;&gt;1</title>
<path fill="none" stroke="green" stroke-width="0.4" d="M663.95,-71.05C660.99,-70.14 657.92,-69.26 655,-68.53 561.9,-45.27 449.03,-27.96 399.02,-20.84"/>
<polygon fill="green" stroke="green" stroke-width="0.4" points="399.45,-17.36 389.06,-19.44 398.47,-24.3 399.45,-17.36"/>
</g>
<!-- &#45;18 -->
<g id="node18" class="node">
<title>&#45;18</title>
<polygon fill="lightgray" stroke="black" points="364,-86.53 332,-86.53 332,-68.53 364,-68.53 364,-86.53"/>
<text text-anchor="middle" x="348" y="-75.33" font-family="Times,serif" font-size="9.00">&#45;18</text>
</g>
<!-- &#45;18&#45;&gt;0 -->
<g id="edge12" class="edge">
<title>&#45;18&#45;&gt;0</title>
<path fill="none" stroke="green" stroke-width="0.57" d="M364.04,-71.02C367,-70.11 370.08,-69.23 373,-68.53 475.69,-43.66 600.61,-26.87 653.89,-20.33"/>
<polygon fill="green" stroke="green" stroke-width="0.57" points="654.35,-23.8 663.86,-19.13 653.51,-16.85 654.35,-23.8"/>
</g>
<!-- &#45;18&#45;&gt;1 -->
<g id="edge25" class="edge">
<title>&#45;18&#45;&gt;1</title>
<path fill="none" stroke="red" stroke-width="0.24" d="M351.48,-68.29C354.45,-61.23 358.9,-50.7 362.97,-41.03"/>
<polygon fill="red" stroke="red" stroke-width="0.24" points="366.2,-42.39 366.86,-31.82 359.75,-39.67 366.2,-42.39"/>
</g>
<!-- &#45;19 -->
<g id="node19" class="node">
<title>&#45;19</title>
<polygon fill="lightgray" stroke="black" points="1228,-86.53 1196,-86.53 1196,-68.53 1228,-68.53 1228,-86.53"/>
<text text-anchor="middle" x="1212" y="-75.33" font-family="Times,serif" font-size="9.00">&#45;19</text>
</g>
<!-- &#45;20 -->
<g id="node20" class="node">
<title>&#45;20</title>
<polygon fill="lightgray" stroke="black" points="414,-86.53 382,-86.53 382,-68.53 414,-68.53 414,-86.53"/>
<text text-anchor="middle" x="398" y="-75.33" font-family="Times,serif" font-size="9.00">&#45;20</text>
</g>
<!-- &#45;20&#45;&gt;0 -->
<g id="edge22" class="edge">
<title>&#45;20&#45;&gt;0</title>
<path fill="none" stroke="red" stroke-width="0.84" d="M414.06,-71.09C417.02,-70.18 420.09,-69.28 423,-68.53 506.56,-46.9 607.42,-29.17 654.04,-21.44"/>
<polygon fill="red" stroke="red" stroke-width="0.84" points="654.62,-24.9 663.92,-19.82 653.48,-17.99 654.62,-24.9"/>
</g>
<!-- &#45;20&#45;&gt;1 -->
<g id="edge17" class="edge">
<title>&#45;20&#45;&gt;1</title>
<path fill="none" stroke="green" stroke-width="0.36" d="M394.52,-68.29C391.55,-61.23 387.1,-50.7 383.03,-41.03"/>
<polygon fill="green" stroke="green" stroke-width="0.36" points="386.25,-39.67 379.14,-31.82 379.8,-42.39 386.25,-39.67"/>
</g>
<!-- &#45;21 -->
<g id="node21" class="node">
<title>&#45;21</title>
<polygon fill="lightgray" stroke="black" points="126,-86.53 94,-86.53 94,-68.53 126,-68.53 126,-86.53"/>
<text text-anchor="middle" x="110" y="-75.33" font-family="Times,serif" font-size="9.00">&#45;21</text>
</g>
<!-- &#45;21&#45;&gt;1 -->
<g id="edge28" class="edge">
<title>&#45;21&#45;&gt;1</title>
<path fill="none" stroke="red" stroke-width="0.22" d="M126.07,-71.13C129.02,-70.21 132.09,-69.3 135,-68.53 211.39,-48.13 303.23,-30.17 347.15,-21.97"/>
<polygon fill="red" stroke="red" stroke-width="0.22" points="347.8,-25.41 357,-20.15 346.53,-18.53 347.8,-25.41"/>
</g>
<!-- &#45;22 -->
<g id="node22" class="node">
<title>&#45;22</title>
<polygon fill="lightgray" stroke="black" points="1278,-86.53 1246,-86.53 1246,-68.53 1278,-68.53 1278,-86.53"/>
<text text-anchor="middle" x="1262" y="-75.33" font-family="Times,serif" font-size="9.00">&#45;22</text>
</g>
<!-- &#45;23 -->
<g id="node23" class="node">
<title>&#45;23</title>
<polygon fill="lightgray" stroke="black" points="928,-86.53 896,-86.53 896,-68.53 928,-68.53 928,-86.53"/>
<text text-anchor="middle" x="912" y="-75.33" font-family="Times,serif" font-size="9.00">&#45;23</text>
</g>
<!-- &#45;23&#45;&gt;0 -->
<g id="edge9" class="edge">
<title>&#45;23&#45;&gt;0</title>
<path fill="none" stroke="red" stroke-width="0.26" d="M895.91,-71.2C892.96,-70.28 889.89,-69.35 887,-68.53 822.07,-50.12 744.65,-31.93 705.45,-22.99"/>
<polygon fill="red" stroke="red" stroke-width="0.26" points="706.2,-19.57 695.67,-20.77 704.65,-26.4 706.2,-19.57"/>
</g>
<!-- &#45;24 -->
<g id="node24" class="node">
<title>&#45;24</title>
<polygon fill="lightgray" stroke="black" points="978,-86.53 946,-86.53 946,-68.53 978,-68.53 978,-86.53"/>
<text text-anchor="middle" x="962" y="-75.33" font-family="Times,serif" font-size="9.00">&#45;24</text>
</g>
<!-- &#45;24&#45;&gt;0 -->
<g id="edge6" class="edge">
<title>&#45;24&#45;&gt;0</title>
<path fill="none" stroke="green" stroke-width="0.34" d="M945.94,-71.09C942.98,-70.18 939.91,-69.28 937,-68.53 853.44,-46.9 752.58,-29.17 705.96,-21.44"/>
<polygon fill="green" stroke="green" stroke-width="0.34" points="706.52,-17.99 696.08,-19.82 705.38,-24.9 706.52,-17.99"/>
</g>
<!-- &#45;25 -->
<g id="node25" class="node">
<title>&#45;25</title>
<polygon fill="lightgray" stroke="black" points="464,-86.53 432,-86.53 432,-68.53 464,-68.53 464,-86.53"/>
<text text-anchor="middle" x="448" y="-75.33" font-family="Times,serif" font-size="9.00">&#45;25</text>
</g>
<!-- &#45;25&#45;&gt;0 -->
<g id="edge1" class="edge">
<title>&#45;25&#45;&gt;0</title>
<path fill="none" stroke="green" stroke-width="0.22" d="M464.09,-71.2C467.04,-70.28 470.11,-69.35 473,-68.53 537.93,-50.12 615.35,-31.93 654.55,-22.99"/>
<polygon fill="green" stroke="green" stroke-width="0.22" points="655.35,-26.4 664.33,-20.77 653.8,-19.57 655.35,-26.4"/>
</g>
<!-- &#45;25&#45;&gt;1 -->
<g id="edge14" class="edge">
<title>&#45;25&#45;&gt;1</title>
<path fill="none" stroke="red" stroke-width="1.08" d="M437.57,-68.29C426.24,-59.33 407.84,-44.8 393.58,-33.52"/>
<polygon fill="red" stroke="red" stroke-width="1.08" points="395.35,-30.46 385.33,-27.01 391.01,-35.95 395.35,-30.46"/>
</g>
<!-- &#45;26 -->
<g id="node26" class="node">
<title>&#45;26</title>
<polygon fill="lightgray" stroke="black" points="1328,-86.53 1296,-86.53 1296,-68.53 1328,-68.53 1328,-86.53"/>
<text text-anchor="middle" x="1312" y="-75.33" font-family="Times,serif" font-size="9.00">&#45;26</text>
</g>
<!-- &#45;27 -->
<g id="node27" class="node">
<title>&#45;27</title>
<polygon fill="lightgray" stroke="black" points="176,-86.53 144,-86.53 144,-68.53 176,-68.53 176,-86.53"/>
<text text-anchor="middle" x="160" y="-75.33" font-family="Times,serif" font-size="9.00">&#45;27</text>
</g>
<!-- &#45;27&#45;&gt;1 -->
<g id="edge5" class="edge">
<title>&#45;27&#45;&gt;1</title>
<path fill="none" stroke="green" stroke-width="0.11" d="M176.11,-71.26C179.06,-70.33 182.12,-69.38 185,-68.53 242.87,-51.39 311.38,-33.24 347.6,-23.82"/>
<polygon fill="green" stroke="green" stroke-width="0.11" points="348.54,-27.19 357.34,-21.29 346.78,-20.41 348.54,-27.19"/>
</g>
<!-- &#45;28 -->
<g id="node28" class="node">
<title>&#45;28</title>
<polygon fill="lightgray" stroke="black" points="1028,-86.53 996,-86.53 996,-68.53 1028,-68.53 1028,-86.53"/>
<text text-anchor="middle" x="1012" y="-75.33" font-family="Times,serif" font-size="9.00">&#45;28</text>
</g>
<!-- &#45;28&#45;&gt;0 -->
<g id="edge18" class="edge">
<title>&#45;28&#45;&gt;0</title>
<path fill="none" stroke="green" stroke-width="0.42" d="M995.96,-71.02C993,-70.11 989.92,-69.23 987,-68.53 884.31,-43.66 759.39,-26.87 706.11,-20.33"/>
<polygon fill="green" stroke="green" stroke-width="0.42" points="706.49,-16.85 696.14,-19.13 705.65,-23.8 706.49,-16.85"/>
</g>
</g>
</svg>
