<?xml version="1.0" encoding="UTF-8" standalone="no"?>
<!DOCTYPE svg PUBLIC "-//W3C//DTD SVG 1.1//EN"
 "http://www.w3.org/Graphics/SVG/1.1/DTD/svg11.dtd">
<!-- Generated by graphviz version 2.43.0 (0)
 -->
<!-- Title: %3 Pages: 1 -->
<svg width="1336pt" height="95pt"
 viewBox="0.00 0.00 1336.00 94.53" xmlns="http://www.w3.org/2000/svg" xmlns:xlink="http://www.w3.org/1999/xlink">
<g id="graph0" class="graph" transform="scale(1 1) rotate(0) translate(4 90.53)">
<title>%3</title>
<polygon fill="white" stroke="transparent" points="-4,4 -4,-90.53 1332,-90.53 1332,4 -4,4"/>
<!-- &#45;1 -->
<g id="node1" class="node">
<title>&#45;1</title>
<polygon fill="lightgray" stroke="black" points="326,-86.53 300,-86.53 300,-68.53 326,-68.53 326,-86.53"/>
<text text-anchor="middle" x="313" y="-75.33" font-family="Times,serif" font-size="9.00">&#45;1</text>
</g>
<!-- 0 -->
<g id="node29" class="node">
<title>0</title>
<ellipse fill="lightblue" stroke="black" cx="357" cy="-16.26" rx="16.03" ry="16.03"/>
<text text-anchor="middle" x="357" y="-14.06" font-family="Times,serif" font-size="9.00">0</text>
</g>
<!-- &#45;1&#45;&gt;0 -->
<g id="edge6" class="edge">
<title>&#45;1&#45;&gt;0</title>
<path fill="none" stroke="green" stroke-width="0.3" d="M319.12,-68.29C324.87,-60.53 333.73,-48.6 341.44,-38.22"/>
<polygon fill="green" stroke="green" stroke-width="0.3" points="344.4,-40.11 347.55,-30 338.78,-35.94 344.4,-40.11"/>
</g>
<!-- &#45;2 -->
<g id="node2" class="node">
<title>&#45;2</title>
<polygon fill="lightgray" stroke="black" points="746,-86.53 720,-86.53 720,-68.53 746,-68.53 746,-86.53"/>
<text text-anchor="middle" x="733" y="-75.33" font-family="Times,serif" font-size="9.00">&#45;2</text>
</g>
<!-- 1 -->
<g id="node30" class="node">
<title>1</title>
<ellipse fill="lightblue" stroke="black" cx="733" cy="-16.26" rx="16.03" ry="16.03"/>
<text text-anchor="middle" x="733" y="-14.06" font-family="Times,serif" font-size="9.00">1</text>
</g>
<!-- &#45;2&#45;&gt;1 -->
<g id="edge22" class="edge">
<title>&#45;2&#45;&gt;1</title>
<path fill="none" stroke="green" stroke-width="0.28" d="M733,-68.29C733,-61.7 733,-52.1 733,-43"/>
<polygon fill="green" stroke="green" stroke-width="0.28" points="736.5,-42.76 733,-32.76 729.5,-42.76 736.5,-42.76"/>
</g>
<!-- &#45;3 -->
<g id="node3" class="node">
<title>&#45;3</title>
<polygon fill="lightgray" stroke="black" points="370,-86.53 344,-86.53 344,-68.53 370,-68.53 370,-86.53"/>
<text text-anchor="middle" x="357" y="-75.33" font-family="Times,serif" font-size="9.00">&#45;3</text>
</g>
<!-- &#45;3&#45;&gt;0 -->
<g id="edge9" class="edge">
<title>&#45;3&#45;&gt;0</title>
<path fill="none" stroke="red" stroke-width="1.21" stroke-dasharray="1,5" d="M357,-68.29C357,-61.7 357,-52.1 357,-43"/>
<polygon fill="red" stroke="red" stroke-width="1.21" points="360.5,-42.76 357,-32.76 353.5,-42.76 360.5,-42.76"/>
</g>
<!-- &#45;4 -->
<g id="node4" class="node">
<title>&#45;4</title>
<polygon fill="lightgray" stroke="black" points="652,-86.53 626,-86.53 626,-68.53 652,-68.53 652,-86.53"/>
<text text-anchor="middle" x="639" y="-75.33" font-family="Times,serif" font-size="9.00">&#45;4</text>
</g>
<!-- &#45;4&#45;&gt;0 -->
<g id="edge20" class="edge">
<title>&#45;4&#45;&gt;0</title>
<path fill="none" stroke="red" stroke-width="0.41" d="M625.61,-71.29C622.79,-70.29 619.82,-69.31 617,-68.53 532.71,-45.04 430.16,-28.16 383,-21.03"/>
<polygon fill="red" stroke="red" stroke-width="0.41" points="383.43,-17.55 373.03,-19.54 382.4,-24.48 383.43,-17.55"/>
</g>
<!-- &#45;4&#45;&gt;1 -->
<g id="edge23" class="edge">
<title>&#45;4&#45;&gt;1</title>
<path fill="none" stroke="red" stroke-width="0.26" d="M652.07,-68.29C667.26,-58.71 692.58,-42.75 710.85,-31.23"/>
<polygon fill="red" stroke="red" stroke-width="0.26" points="712.84,-34.11 719.43,-25.82 709.11,-28.19 712.84,-34.11"/>
</g>
<!-- &#45;5 -->
<g id="node5" class="node">
<title>&#45;5</title>
<polygon fill="lightgray" stroke="black" points="984,-86.53 958,-86.53 958,-68.53 984,-68.53 984,-86.53"/>
<text text-anchor="middle" x="971" y="-75.33" font-family="Times,serif" font-size="9.00">&#45;5</text>
</g>
<!-- &#45;6 -->
<g id="node6" class="node">
<title>&#45;6</title>
<polygon fill="lightgray" stroke="black" points="414,-86.53 388,-86.53 388,-68.53 414,-68.53 414,-86.53"/>
<text text-anchor="middle" x="401" y="-75.33" font-family="Times,serif" font-size="9.00">&#45;6</text>
</g>
<!-- &#45;6&#45;&gt;0 -->
<g id="edge19" class="edge">
<title>&#45;6&#45;&gt;0</title>
<path fill="none" stroke="green" stroke-width="0.54" d="M394.88,-68.29C389.13,-60.53 380.27,-48.6 372.56,-38.22"/>
<polygon fill="green" stroke="green" stroke-width="0.54" points="375.22,-35.94 366.45,-30 369.6,-40.11 375.22,-35.94"/>
</g>
<!-- &#45;7 -->
<g id="node7" class="node">
<title>&#45;7</title>
<polygon fill="lightgray" stroke="black" points="458,-86.53 432,-86.53 432,-68.53 458,-68.53 458,-86.53"/>
<text text-anchor="middle" x="445" y="-75.33" font-family="Times,serif" font-size="9.00">&#45;7</text>
</g>
<!-- &#45;7&#45;&gt;0 -->
<g id="edge8" class="edge">
<title>&#45;7&#45;&gt;0</title>
<path fill="none" stroke="green" stroke-width="0.35" d="M432.76,-68.29C418.9,-58.95 396.02,-43.54 379.02,-32.09"/>
<polygon fill="green" stroke="green" stroke-width="0.35" points="380.53,-28.89 370.28,-26.21 376.62,-34.7 380.53,-28.89"/>
</g>
<!-- &#45;8 -->
<g id="node8" class="node">
<title>&#45;8</title>
<polygon fill="lightgray" stroke="black" points="1028,-86.53 1002,-86.53 1002,-68.53 1028,-68.53 1028,-86.53"/>
<text text-anchor="middle" x="1015" y="-75.33" font-family="Times,serif" font-size="9.00">&#45;8</text>
</g>
<!-- &#45;9 -->
<g id="node9" class="node">
<title>&#45;9</title>
<polygon fill="lightgray" stroke="black" points="790,-86.53 764,-86.53 764,-68.53 790,-68.53 790,-86.53"/>
<text text-anchor="middle" x="777" y="-75.33" font-family="Times,serif" font-size="9.00">&#45;9</text>
</g>
<!-- &#45;9&#45;&gt;1 -->
<g id="edge17" class="edge">
<title>&#45;9&#45;&gt;1</title>
<path fill="none" stroke="green" stroke-width="0.75" d="M770.88,-68.29C765.13,-60.53 756.27,-48.6 748.56,-38.22"/>
<polygon fill="green" stroke="green" stroke-width="0.75" points="751.22,-35.94 742.45,-30 745.6,-40.11 751.22,-35.94"/>
</g>
<!-- &#45;10 -->
<g id="node10" class="node">
<title>&#45;10</title>
<polygon fill="lightgray" stroke="black" points="1078,-86.53 1046,-86.53 1046,-68.53 1078,-68.53 1078,-86.53"/>
<text text-anchor="middle" x="1062" y="-75.33" font-family="Times,serif" font-size="9.00">&#45;10</text>
</g>
<!-- &#45;11 -->
<g id="node11" class="node">
<title>&#45;11</title>
<polygon fill="lightgray" stroke="black" points="508,-86.53 476,-86.53 476,-68.53 508,-68.53 508,-86.53"/>
<text text-anchor="middle" x="492" y="-75.33" font-family="Times,serif" font-size="9.00">&#45;11</text>
</g>
<!-- &#45;11&#45;&gt;0 -->
<g id="edge7" class="edge">
<title>&#45;11&#45;&gt;0</title>
<path fill="none" stroke="red" stroke-width="0.49" d="M475.98,-69.5C452.47,-59.17 408.44,-39.84 381.03,-27.81"/>
<polygon fill="red" stroke="red" stroke-width="0.49" points="382.32,-24.56 371.76,-23.74 379.51,-30.97 382.32,-24.56"/>
</g>
<!-- &#45;12 -->
<g id="node12" class="node">
<title>&#45;12</title>
<polygon fill="lightgray" stroke="black" points="1128,-86.53 1096,-86.53 1096,-68.53 1128,-68.53 1128,-86.53"/>
<text text-anchor="middle" x="1112" y="-75.33" font-family="Times,serif" font-size="9.00">&#45;12</text>
</g>
<!-- &#45;13 -->
<g id="node13" class="node">
<title>&#45;13</title>
<polygon fill="lightgray" stroke="black" points="32,-86.53 0,-86.53 0,-68.53 32,-68.53 32,-86.53"/>
<text text-anchor="middle" x="16" y="-75.33" font-family="Times,serif" font-size="9.00">&#45;13</text>
</g>
<!-- &#45;13&#45;&gt;0 -->
<g id="edge15" class="edge">
<title>&#45;13&#45;&gt;0</title>
<path fill="none" stroke="green" stroke-width="0.34" d="M32.04,-71.01C35,-70.1 38.08,-69.23 41,-68.53 146.93,-43.13 275.89,-26.58 330.52,-20.21"/>
<polygon fill="green" stroke="green" stroke-width="0.34" points="331.18,-23.65 340.72,-19.04 330.38,-16.7 331.18,-23.65"/>
</g>
<!-- &#45;14 -->
<g id="node14" class="node">
<title>&#45;14</title>
<polygon fill="lightgray" stroke="black" points="82,-86.53 50,-86.53 50,-68.53 82,-68.53 82,-86.53"/>
<text text-anchor="middle" x="66" y="-75.33" font-family="Times,serif" font-size="9.00">&#45;14</text>
</g>
<!-- &#45;14&#45;&gt;0 -->
<g id="edge18" class="edge">
<title>&#45;14&#45;&gt;0</title>
<path fill="none" stroke="red" stroke-width="0.48" stroke-dasharray="1,5" d="M82.06,-71.08C85.01,-70.16 88.09,-69.27 91,-68.53 177.87,-46.34 282.88,-28.77 330.83,-21.24"/>
<polygon fill="red" stroke="red" stroke-width="0.48" points="331.62,-24.66 340.96,-19.67 330.54,-17.75 331.62,-24.66"/>
</g>
<!-- &#45;15 -->
<g id="node15" class="node">
<title>&#45;15</title>
<polygon fill="lightgray" stroke="black" points="1178,-86.53 1146,-86.53 1146,-68.53 1178,-68.53 1178,-86.53"/>
<text text-anchor="middle" x="1162" y="-75.33" font-family="Times,serif" font-size="9.00">&#45;15</text>
</g>
<!-- &#45;16 -->
<g id="node16" class="node">
<title>&#45;16</title>
<polygon fill="lightgray" stroke="black" points="1228,-86.53 1196,-86.53 1196,-68.53 1228,-68.53 1228,-86.53"/>
<text text-anchor="middle" x="1212" y="-75.33" font-family="Times,serif" font-size="9.00">&#45;16</text>
</g>
<!-- &#45;17 -->
<g id="node17" class="node">
<title>&#45;17</title>
<polygon fill="lightgray" stroke="black" points="132,-86.53 100,-86.53 100,-68.53 132,-68.53 132,-86.53"/>
<text text-anchor="middle" x="116" y="-75.33" font-family="Times,serif" font-size="9.00">&#45;17</text>
</g>
<!-- &#45;17&#45;&gt;0 -->
<g id="edge10" class="edge">
<title>&#45;17&#45;&gt;0</title>
<path fill="none" stroke="green" stroke-width="0.52" d="M132.08,-71.18C135.04,-70.26 138.1,-69.33 141,-68.53 209.17,-49.56 290.66,-31.43 331.3,-22.69"/>
<polygon fill="green" stroke="green" stroke-width="0.52" points="332.13,-26.1 341.17,-20.58 330.66,-19.25 332.13,-26.1"/>
</g>
<!-- &#45;18 -->
<g id="node18" class="node">
<title>&#45;18</title>
<polygon fill="lightgray" stroke="black" points="182,-86.53 150,-86.53 150,-68.53 182,-68.53 182,-86.53"/>
<text text-anchor="middle" x="166" y="-75.33" font-family="Times,serif" font-size="9.00">&#45;18</text>
</g>
<!-- &#45;18&#45;&gt;0 -->
<g id="edge4" class="edge">
<title>&#45;18&#45;&gt;0</title>
<path fill="none" stroke="green" stroke-width="0.28" d="M182.13,-71.34C185.08,-70.4 188.13,-69.43 191,-68.53 240.85,-52.85 299.26,-34.92 331.81,-24.96"/>
<polygon fill="green" stroke="green" stroke-width="0.28" points="332.88,-28.29 341.42,-22.02 330.83,-21.59 332.88,-28.29"/>
</g>
<!-- &#45;19 -->
<g id="node19" class="node">
<title>&#45;19</title>
<polygon fill="lightgray" stroke="black" points="232,-86.53 200,-86.53 200,-68.53 232,-68.53 232,-86.53"/>
<text text-anchor="middle" x="216" y="-75.33" font-family="Times,serif" font-size="9.00">&#45;19</text>
</g>
<!-- &#45;19&#45;&gt;0 -->
<g id="edge5" class="edge">
<title>&#45;19&#45;&gt;0</title>
<path fill="none" stroke="green" stroke-width="0.26" d="M232.17,-69.73C256.89,-59.34 304.22,-39.45 332.96,-27.37"/>
<polygon fill="green" stroke="green" stroke-width="0.26" points="334.43,-30.55 342.29,-23.45 331.71,-24.09 334.43,-30.55"/>
</g>
<!-- &#45;20 -->
<g id="node20" class="node">
<title>&#45;20</title>
<polygon fill="lightgray" stroke="black" points="702,-86.53 670,-86.53 670,-68.53 702,-68.53 702,-86.53"/>
<text text-anchor="middle" x="686" y="-75.33" font-family="Times,serif" font-size="9.00">&#45;20</text>
</g>
<!-- &#45;20&#45;&gt;0 -->
<g id="edge24" class="edge">
<title>&#45;20&#45;&gt;0</title>
<path fill="none" stroke="red" stroke-width="0.45" d="M669.96,-71.02C667,-70.11 663.92,-69.24 661,-68.53 559.76,-43.93 436.72,-27.1 383.56,-20.45"/>
<polygon fill="red" stroke="red" stroke-width="0.45" points="383.67,-16.93 373.31,-19.18 382.81,-23.88 383.67,-16.93"/>
</g>
<!-- &#45;20&#45;&gt;1 -->
<g id="edge21" class="edge">
<title>&#45;20&#45;&gt;1</title>
<path fill="none" stroke="red" stroke-width="1.38" d="M692.54,-68.29C698.82,-60.36 708.58,-48.05 716.94,-37.51"/>
<polygon fill="red" stroke="red" stroke-width="1.38" points="719.78,-39.56 723.25,-29.55 714.3,-35.21 719.78,-39.56"/>
</g>
<!-- &#45;21 -->
<g id="node21" class="node">
<title>&#45;21</title>
<polygon fill="lightgray" stroke="black" points="1278,-86.53 1246,-86.53 1246,-68.53 1278,-68.53 1278,-86.53"/>
<text text-anchor="middle" x="1262" y="-75.33" font-family="Times,serif" font-size="9.00">&#45;21</text>
</g>
<!-- &#45;22 -->
<g id="node22" class="node">
<title>&#45;22</title>
<polygon fill="lightgray" stroke="black" points="558,-86.53 526,-86.53 526,-68.53 558,-68.53 558,-86.53"/>
<text text-anchor="middle" x="542" y="-75.33" font-family="Times,serif" font-size="9.00">&#45;22</text>
</g>
<!-- &#45;22&#45;&gt;0 -->
<g id="edge13" class="edge">
<title>&#45;22&#45;&gt;0</title>
<path fill="none" stroke="green" stroke-width="0.3" stroke-dasharray="1,5" d="M525.91,-71.37C493.68,-61.05 421.03,-37.78 382.35,-25.38"/>
<polygon fill="green" stroke="green" stroke-width="0.3" points="382.99,-21.92 372.4,-22.2 380.86,-28.58 382.99,-21.92"/>
</g>
<!-- &#45;22&#45;&gt;1 -->
<g id="edge2" class="edge">
<title>&#45;22&#45;&gt;1</title>
<path fill="none" stroke="green" stroke-width="0.58" stroke-dasharray="1,5" d="M558.13,-71.34C561.08,-70.4 564.13,-69.43 567,-68.53 616.85,-52.85 675.26,-34.92 707.81,-24.96"/>
<polygon fill="green" stroke="green" stroke-width="0.58" points="708.88,-28.29 717.42,-22.02 706.83,-21.59 708.88,-28.29"/>
</g>
<!-- &#45;23 -->
<g id="node23" class="node">
<title>&#45;23</title>
<polygon fill="lightgray" stroke="black" points="1328,-86.53 1296,-86.53 1296,-68.53 1328,-68.53 1328,-86.53"/>
<text text-anchor="middle" x="1312" y="-75.33" font-family="Times,serif" font-size="9.00">&#45;23</text>
</g>
<!-- &#45;24 -->
<g id="node24" class="node">
<title>&#45;24</title>
<polygon fill="lightgray" stroke="black" points="282,-86.53 250,-86.53 250,-68.53 282,-68.53 282,-86.53"/>
<text text-anchor="middle" x="266" y="-75.33" font-family="Times,serif" font-size="9.00">&#45;24</text>
</g>
<!-- &#45;24&#45;&gt;0 -->
<g id="edge16" class="edge">
<title>&#45;24&#45;&gt;0</title>
<path fill="none" stroke="green" stroke-width="0.53" stroke-dasharray="1,5" d="M278.65,-68.29C293.21,-58.81 317.37,-43.07 335.02,-31.58"/>
<polygon fill="green" stroke="green" stroke-width="0.53" points="337.1,-34.4 343.57,-26.01 333.28,-28.54 337.1,-34.4"/>
</g>
<!-- &#45;25 -->
<g id="node25" class="node">
<title>&#45;25</title>
<polygon fill="lightgray" stroke="black" points="840,-86.53 808,-86.53 808,-68.53 840,-68.53 840,-86.53"/>
<text text-anchor="middle" x="824" y="-75.33" font-family="Times,serif" font-size="9.00">&#45;25</text>
</g>
<!-- &#45;25&#45;&gt;1 -->
<g id="edge11" class="edge">
<title>&#45;25&#45;&gt;1</title>
<path fill="none" stroke="green" stroke-width="0.13" d="M811.35,-68.29C796.79,-58.81 772.63,-43.07 754.98,-31.58"/>
<polygon fill="green" stroke="green" stroke-width="0.13" points="756.72,-28.54 746.43,-26.01 752.9,-34.4 756.72,-28.54"/>
</g>
<!-- &#45;26 -->
<g id="node26" class="node">
<title>&#45;26</title>
<polygon fill="lightgray" stroke="black" points="608,-86.53 576,-86.53 576,-68.53 608,-68.53 608,-86.53"/>
<text text-anchor="middle" x="592" y="-75.33" font-family="Times,serif" font-size="9.00">&#45;26</text>
</g>
<!-- &#45;26&#45;&gt;0 -->
<g id="edge1" class="edge">
<title>&#45;26&#45;&gt;0</title>
<path fill="none" stroke="green" stroke-width="0.16" d="M575.91,-71.2C572.96,-70.27 569.9,-69.34 567,-68.53 501.15,-49.98 422.6,-31.85 382.83,-22.95"/>
<polygon fill="green" stroke="green" stroke-width="0.16" points="383.43,-19.5 372.91,-20.74 381.91,-26.33 383.43,-19.5"/>
</g>
<!-- &#45;26&#45;&gt;1 -->
<g id="edge14" class="edge">
<title>&#45;26&#45;&gt;1</title>
<path fill="none" stroke="green" stroke-width="0.72" d="M608.17,-69.73C632.89,-59.34 680.22,-39.45 708.96,-27.37"/>
<polygon fill="green" stroke="green" stroke-width="0.72" points="710.43,-30.55 718.29,-23.45 707.71,-24.09 710.43,-30.55"/>
</g>
<!-- &#45;27 -->
<g id="node27" class="node">
<title>&#45;27</title>
<polygon fill="lightgray" stroke="black" points="890,-86.53 858,-86.53 858,-68.53 890,-68.53 890,-86.53"/>
<text text-anchor="middle" x="874" y="-75.33" font-family="Times,serif" font-size="9.00">&#45;27</text>
</g>
<!-- &#45;27&#45;&gt;1 -->
<g id="edge3" class="edge">
<title>&#45;27&#45;&gt;1</title>
<path fill="none" stroke="red" stroke-width="0.11" d="M857.83,-69.73C833.11,-59.34 785.78,-39.45 757.04,-27.37"/>
<polygon fill="red" stroke="red" stroke-width="0.11" points="758.29,-24.09 747.71,-23.45 755.57,-30.55 758.29,-24.09"/>
</g>
<!-- &#45;28 -->
<g id="node28" class="node">
<title>&#45;28</title>
<polygon fill="lightgray" stroke="black" points="940,-86.53 908,-86.53 908,-68.53 940,-68.53 940,-86.53"/>
<text text-anchor="middle" x="924" y="-75.33" font-family="Times,serif" font-size="9.00">&#45;28</text>
</g>
<!-- &#45;28&#45;&gt;1 -->
<g id="edge12" class="edge">
<title>&#45;28&#45;&gt;1</title>
<path fill="none" stroke="green" stroke-width="0.23" d="M907.87,-71.34C904.92,-70.4 901.87,-69.43 899,-68.53 849.15,-52.85 790.74,-34.92 758.19,-24.96"/>
<polygon fill="green" stroke="green" stroke-width="0.23" points="759.17,-21.59 748.58,-22.02 757.12,-28.29 759.17,-21.59"/>
</g>
</g>
</svg>
