<?xml version="1.0" encoding="UTF-8" standalone="no"?>
<!DOCTYPE svg PUBLIC "-//W3C//DTD SVG 1.1//EN"
 "http://www.w3.org/Graphics/SVG/1.1/DTD/svg11.dtd">
<!-- Generated by graphviz version 2.43.0 (0)
 -->
<!-- Title: %3 Pages: 1 -->
<svg width="953pt" height="189pt"
 viewBox="0.00 0.00 953.00 188.51" xmlns="http://www.w3.org/2000/svg" xmlns:xlink="http://www.w3.org/1999/xlink">
<g id="graph0" class="graph" transform="scale(1 1) rotate(0) translate(4 184.51)">
<title>%3</title>
<polygon fill="white" stroke="transparent" points="-4,4 -4,-184.51 949,-184.51 949,4 -4,4"/>
<!-- &#45;1 -->
<g id="node1" class="node">
<title>&#45;1</title>
<polygon fill="lightgray" stroke="black" points="193,-180.51 167,-180.51 167,-162.51 193,-162.51 193,-180.51"/>
<text text-anchor="middle" x="180" y="-169.31" font-family="Times,serif" font-size="9.00">&#45;1</text>
</g>
<!-- 0 -->
<g id="node21" class="node">
<title>0</title>
<ellipse fill="lightblue" stroke="black" cx="217" cy="-16.26" rx="16.03" ry="16.03"/>
<text text-anchor="middle" x="217" y="-14.06" font-family="Times,serif" font-size="9.00">0</text>
</g>
<!-- &#45;1&#45;&gt;0 -->
<g id="edge13" class="edge">
<title>&#45;1&#45;&gt;0</title>
<path fill="none" stroke="red" stroke-width="0.17" stroke-dasharray="1,5" d="M166.94,-169.6C143.41,-167.19 94.35,-158.38 73,-126.51 58.66,-105.1 58.14,-89.58 73,-68.53 99.64,-30.76 156.68,-20.66 190.42,-18.05"/>
<polygon fill="red" stroke="red" stroke-width="0.17" points="190.72,-21.54 200.49,-17.45 190.3,-14.55 190.72,-21.54"/>
</g>
<!-- 2159 -->
<g id="node24" class="node">
<title>2159</title>
<ellipse fill="white" stroke="black" cx="305" cy="-97.52" rx="28.98" ry="28.98"/>
<text text-anchor="middle" x="305" y="-95.32" font-family="Times,serif" font-size="9.00">2159</text>
</g>
<!-- &#45;1&#45;&gt;2159 -->
<g id="edge18" class="edge">
<title>&#45;1&#45;&gt;2159</title>
<path fill="none" stroke="green" stroke-width="0.41" d="M193.04,-164.74C210.38,-156.89 241.77,-142.03 267,-126.51 269.42,-125.02 271.88,-123.42 274.33,-121.77"/>
<polygon fill="green" stroke="green" stroke-width="0.41" points="276.34,-124.63 282.52,-116.03 272.32,-118.9 276.34,-124.63"/>
</g>
<!-- &#45;2 -->
<g id="node2" class="node">
<title>&#45;2</title>
<polygon fill="lightgray" stroke="black" points="636,-106.52 610,-106.52 610,-88.52 636,-88.52 636,-106.52"/>
<text text-anchor="middle" x="623" y="-95.32" font-family="Times,serif" font-size="9.00">&#45;2</text>
</g>
<!-- 1 -->
<g id="node22" class="node">
<title>1</title>
<ellipse fill="lightblue" stroke="black" cx="538" cy="-16.26" rx="16.03" ry="16.03"/>
<text text-anchor="middle" x="538" y="-14.06" font-family="Times,serif" font-size="9.00">1</text>
</g>
<!-- &#45;2&#45;&gt;1 -->
<g id="edge14" class="edge">
<title>&#45;2&#45;&gt;1</title>
<path fill="none" stroke="red" stroke-width="0.4" stroke-dasharray="1,5" d="M615.6,-88.51C610.26,-82.82 602.83,-75.06 596,-68.53 583.66,-56.71 569.27,-43.99 557.91,-34.17"/>
<polygon fill="red" stroke="red" stroke-width="0.4" points="560.12,-31.45 550.25,-27.59 555.56,-36.76 560.12,-31.45"/>
</g>
<!-- &#45;3 -->
<g id="node3" class="node">
<title>&#45;3</title>
<polygon fill="lightgray" stroke="black" points="26,-106.52 0,-106.52 0,-88.52 26,-88.52 26,-106.52"/>
<text text-anchor="middle" x="13" y="-95.32" font-family="Times,serif" font-size="9.00">&#45;3</text>
</g>
<!-- &#45;3&#45;&gt;0 -->
<g id="edge3" class="edge">
<title>&#45;3&#45;&gt;0</title>
<path fill="none" stroke="red" stroke-width="0.42" d="M19,-88.28C23.96,-82.01 31.56,-73.62 40,-68.53 88.41,-39.33 154.33,-26.01 190.52,-20.57"/>
<polygon fill="red" stroke="red" stroke-width="0.42" points="191.33,-23.99 200.74,-19.12 190.35,-17.06 191.33,-23.99"/>
</g>
<!-- &#45;4 -->
<g id="node4" class="node">
<title>&#45;4</title>
<polygon fill="lightgray" stroke="black" points="460,-106.52 434,-106.52 434,-88.52 460,-88.52 460,-106.52"/>
<text text-anchor="middle" x="447" y="-95.32" font-family="Times,serif" font-size="9.00">&#45;4</text>
</g>
<!-- &#45;4&#45;&gt;0 -->
<g id="edge17" class="edge">
<title>&#45;4&#45;&gt;0</title>
<path fill="none" stroke="green" stroke-width="0.27" d="M442.66,-88.42C438.84,-82.07 432.69,-73.49 425,-68.53 367.49,-31.41 285.16,-21.16 243.42,-18.34"/>
<polygon fill="green" stroke="green" stroke-width="0.27" points="243.44,-14.83 233.26,-17.75 243.03,-21.82 243.44,-14.83"/>
</g>
<!-- &#45;4&#45;&gt;1 -->
<g id="edge5" class="edge">
<title>&#45;4&#45;&gt;1</title>
<path fill="none" stroke="green" stroke-width="0.22" d="M452.46,-88.45C456.63,-82.59 462.71,-74.65 469,-68.53 483.39,-54.52 501.71,-41.08 515.86,-31.48"/>
<polygon fill="green" stroke="green" stroke-width="0.22" points="518.08,-34.2 524.47,-25.75 514.2,-28.37 518.08,-34.2"/>
</g>
<!-- &#45;5 -->
<g id="node5" class="node">
<title>&#45;5</title>
<polygon fill="lightgray" stroke="black" points="595,-180.51 569,-180.51 569,-162.51 595,-162.51 595,-180.51"/>
<text text-anchor="middle" x="582" y="-169.31" font-family="Times,serif" font-size="9.00">&#45;5</text>
</g>
<!-- &#45;5&#45;&gt;0 -->
<g id="edge15" class="edge">
<title>&#45;5&#45;&gt;0</title>
<path fill="none" stroke="green" stroke-width="0.39" stroke-dasharray="1,5" d="M568.93,-170.91C534.83,-171.3 441.61,-168.25 381,-126.51 355.62,-109.03 366.79,-88.1 343,-68.53 313.22,-44.02 270.15,-29.92 242.87,-22.92"/>
<polygon fill="green" stroke="green" stroke-width="0.39" points="243.46,-19.46 232.91,-20.5 241.81,-26.26 243.46,-19.46"/>
</g>
<!-- &#45;5&#45;&gt;1 -->
<g id="edge8" class="edge">
<title>&#45;5&#45;&gt;1</title>
<path fill="none" stroke="green" stroke-width="0.12" stroke-dasharray="1,5" d="M581.24,-162.39C579.43,-144.88 574.18,-102.39 563,-68.53 559.76,-58.72 555.01,-48.4 550.52,-39.61"/>
<polygon fill="green" stroke="green" stroke-width="0.12" points="553.61,-37.96 545.83,-30.76 547.43,-41.24 553.61,-37.96"/>
</g>
<!-- 2200 -->
<g id="node23" class="node">
<title>2200</title>
<ellipse fill="white" stroke="black" cx="727" cy="-97.52" rx="28.98" ry="28.98"/>
<text text-anchor="middle" x="727" y="-95.32" font-family="Times,serif" font-size="9.00">2200</text>
</g>
<!-- &#45;5&#45;&gt;2200 -->
<g id="edge20" class="edge">
<title>&#45;5&#45;&gt;2200</title>
<path fill="none" stroke="green" stroke-width="0.37" d="M595.18,-165.55C619.87,-156.2 672.11,-136.01 689,-126.51 691.31,-125.21 693.65,-123.79 695.96,-122.3"/>
<polygon fill="green" stroke="green" stroke-width="0.37" points="698.42,-124.86 704.7,-116.34 694.47,-119.08 698.42,-124.86"/>
</g>
<!-- &#45;6 -->
<g id="node6" class="node">
<title>&#45;6</title>
<polygon fill="lightgray" stroke="black" points="680,-106.52 654,-106.52 654,-88.52 680,-88.52 680,-106.52"/>
<text text-anchor="middle" x="667" y="-95.32" font-family="Times,serif" font-size="9.00">&#45;6</text>
</g>
<!-- &#45;6&#45;&gt;1 -->
<g id="edge2" class="edge">
<title>&#45;6&#45;&gt;1</title>
<path fill="none" stroke="red" stroke-width="0.21" d="M662.04,-88.33C658.04,-82.25 651.94,-74.09 645,-68.53 620.05,-48.53 586.02,-33.93 563.09,-25.54"/>
<polygon fill="red" stroke="red" stroke-width="0.21" points="564,-22.15 553.41,-22.13 561.67,-28.76 564,-22.15"/>
</g>
<!-- &#45;7 -->
<g id="node7" class="node">
<title>&#45;7</title>
<polygon fill="lightgray" stroke="black" points="416,-106.52 390,-106.52 390,-88.52 416,-88.52 416,-106.52"/>
<text text-anchor="middle" x="403" y="-95.32" font-family="Times,serif" font-size="9.00">&#45;7</text>
</g>
<!-- &#45;7&#45;&gt;0 -->
<g id="edge4" class="edge">
<title>&#45;7&#45;&gt;0</title>
<path fill="none" stroke="red" stroke-width="0.33" d="M396.96,-88.34C391.97,-82.11 384.36,-73.74 376,-68.53 333.55,-42.05 276.11,-27.98 243.16,-21.62"/>
<polygon fill="red" stroke="red" stroke-width="0.33" points="243.45,-18.11 232.98,-19.75 242.19,-25 243.45,-18.11"/>
</g>
<!-- &#45;7&#45;&gt;1 -->
<g id="edge1" class="edge">
<title>&#45;7&#45;&gt;1</title>
<path fill="none" stroke="red" stroke-width="0.64" stroke-dasharray="1,5" d="M407.93,-88.29C411.91,-82.19 418,-74.02 425,-68.53 451.84,-47.47 488.72,-32.84 512.94,-24.75"/>
<polygon fill="red" stroke="red" stroke-width="0.64" points="514.04,-28.08 522.49,-21.69 511.89,-21.42 514.04,-28.08"/>
</g>
<!-- &#45;8 -->
<g id="node8" class="node">
<title>&#45;8</title>
<polygon fill="lightgray" stroke="black" points="504,-106.52 478,-106.52 478,-88.52 504,-88.52 504,-106.52"/>
<text text-anchor="middle" x="491" y="-95.32" font-family="Times,serif" font-size="9.00">&#45;8</text>
</g>
<!-- &#45;8&#45;&gt;1 -->
<g id="edge7" class="edge">
<title>&#45;8&#45;&gt;1</title>
<path fill="none" stroke="green" stroke-width="0.18" d="M495.85,-88.34C502.64,-76.9 515.21,-55.7 524.86,-39.42"/>
<polygon fill="green" stroke="green" stroke-width="0.18" points="528.05,-40.9 530.14,-30.52 522.03,-37.33 528.05,-40.9"/>
</g>
<!-- &#45;9 -->
<g id="node9" class="node">
<title>&#45;9</title>
<polygon fill="lightgray" stroke="black" points="108,-106.52 82,-106.52 82,-88.52 108,-88.52 108,-106.52"/>
<text text-anchor="middle" x="95" y="-95.32" font-family="Times,serif" font-size="9.00">&#45;9</text>
</g>
<!-- &#45;9&#45;&gt;0 -->
<g id="edge9" class="edge">
<title>&#45;9&#45;&gt;0</title>
<path fill="none" stroke="green" stroke-width="0.41" d="M100,-88.38C104.03,-82.34 110.13,-74.19 117,-68.53 140.01,-49.57 171.18,-34.98 192.57,-26.3"/>
<polygon fill="green" stroke="green" stroke-width="0.41" points="193.89,-29.54 201.92,-22.62 191.33,-23.02 193.89,-29.54"/>
</g>
<!-- &#45;10 -->
<g id="node10" class="node">
<title>&#45;10</title>
<polygon fill="lightgray" stroke="black" points="158,-106.52 126,-106.52 126,-88.52 158,-88.52 158,-106.52"/>
<text text-anchor="middle" x="142" y="-95.32" font-family="Times,serif" font-size="9.00">&#45;10</text>
</g>
<!-- &#45;10&#45;&gt;0 -->
<g id="edge11" class="edge">
<title>&#45;10&#45;&gt;0</title>
<path fill="none" stroke="green" stroke-width="0.54" d="M149.34,-88.1C154.28,-82.5 160.95,-75 167,-68.53 177.31,-57.48 189.1,-45.37 198.64,-35.7"/>
<polygon fill="green" stroke="green" stroke-width="0.54" points="201.19,-38.1 205.73,-28.53 196.21,-33.17 201.19,-38.1"/>
</g>
<!-- &#45;11 -->
<g id="node11" class="node">
<title>&#45;11</title>
<polygon fill="lightgray" stroke="black" points="208,-106.52 176,-106.52 176,-88.52 208,-88.52 208,-106.52"/>
<text text-anchor="middle" x="192" y="-95.32" font-family="Times,serif" font-size="9.00">&#45;11</text>
</g>
<!-- &#45;11&#45;&gt;0 -->
<g id="edge6" class="edge">
<title>&#45;11&#45;&gt;0</title>
<path fill="none" stroke="red" stroke-width="0.35" d="M194.58,-88.34C198.02,-77.43 204.25,-57.67 209.28,-41.75"/>
<polygon fill="red" stroke="red" stroke-width="0.35" points="212.69,-42.56 212.36,-31.97 206.01,-40.46 212.69,-42.56"/>
</g>
<!-- &#45;12 -->
<g id="node12" class="node">
<title>&#45;12</title>
<polygon fill="lightgray" stroke="black" points="645,-180.51 613,-180.51 613,-162.51 645,-162.51 645,-180.51"/>
<text text-anchor="middle" x="629" y="-169.31" font-family="Times,serif" font-size="9.00">&#45;12</text>
</g>
<!-- &#45;13 -->
<g id="node13" class="node">
<title>&#45;13</title>
<polygon fill="lightgray" stroke="black" points="695,-180.51 663,-180.51 663,-162.51 695,-162.51 695,-180.51"/>
<text text-anchor="middle" x="679" y="-169.31" font-family="Times,serif" font-size="9.00">&#45;13</text>
</g>
<!-- &#45;14 -->
<g id="node14" class="node">
<title>&#45;14</title>
<polygon fill="lightgray" stroke="black" points="745,-180.51 713,-180.51 713,-162.51 745,-162.51 745,-180.51"/>
<text text-anchor="middle" x="729" y="-169.31" font-family="Times,serif" font-size="9.00">&#45;14</text>
</g>
<!-- &#45;15 -->
<g id="node15" class="node">
<title>&#45;15</title>
<polygon fill="lightgray" stroke="black" points="795,-180.51 763,-180.51 763,-162.51 795,-162.51 795,-180.51"/>
<text text-anchor="middle" x="779" y="-169.31" font-family="Times,serif" font-size="9.00">&#45;15</text>
</g>
<!-- &#45;16 -->
<g id="node16" class="node">
<title>&#45;16</title>
<polygon fill="lightgray" stroke="black" points="554,-106.52 522,-106.52 522,-88.52 554,-88.52 554,-106.52"/>
<text text-anchor="middle" x="538" y="-95.32" font-family="Times,serif" font-size="9.00">&#45;16</text>
</g>
<!-- &#45;16&#45;&gt;1 -->
<g id="edge12" class="edge">
<title>&#45;16&#45;&gt;1</title>
<path fill="none" stroke="red" stroke-width="0.2" stroke-dasharray="1,5" d="M538,-88.34C538,-77.67 538,-58.51 538,-42.77"/>
<polygon fill="red" stroke="red" stroke-width="0.2" points="541.5,-42.57 538,-32.57 534.5,-42.57 541.5,-42.57"/>
</g>
<!-- &#45;17 -->
<g id="node17" class="node">
<title>&#45;17</title>
<polygon fill="lightgray" stroke="black" points="845,-180.51 813,-180.51 813,-162.51 845,-162.51 845,-180.51"/>
<text text-anchor="middle" x="829" y="-169.31" font-family="Times,serif" font-size="9.00">&#45;17</text>
</g>
<!-- &#45;18 -->
<g id="node18" class="node">
<title>&#45;18</title>
<polygon fill="lightgray" stroke="black" points="895,-180.51 863,-180.51 863,-162.51 895,-162.51 895,-180.51"/>
<text text-anchor="middle" x="879" y="-169.31" font-family="Times,serif" font-size="9.00">&#45;18</text>
</g>
<!-- &#45;19 -->
<g id="node19" class="node">
<title>&#45;19</title>
<polygon fill="lightgray" stroke="black" points="258,-106.52 226,-106.52 226,-88.52 258,-88.52 258,-106.52"/>
<text text-anchor="middle" x="242" y="-95.32" font-family="Times,serif" font-size="9.00">&#45;19</text>
</g>
<!-- &#45;19&#45;&gt;0 -->
<g id="edge16" class="edge">
<title>&#45;19&#45;&gt;0</title>
<path fill="none" stroke="green" stroke-width="0.64" d="M239.42,-88.34C235.98,-77.43 229.75,-57.67 224.72,-41.75"/>
<polygon fill="green" stroke="green" stroke-width="0.64" points="227.99,-40.46 221.64,-31.97 221.31,-42.56 227.99,-40.46"/>
</g>
<!-- &#45;20 -->
<g id="node20" class="node">
<title>&#45;20</title>
<polygon fill="lightgray" stroke="black" points="945,-180.51 913,-180.51 913,-162.51 945,-162.51 945,-180.51"/>
<text text-anchor="middle" x="929" y="-169.31" font-family="Times,serif" font-size="9.00">&#45;20</text>
</g>
<!-- 0&#45;&gt;0 -->
<g id="edge10" class="edge">
<title>0&#45;&gt;0</title>
<path fill="none" stroke="green" stroke-width="0.63" d="M228.23,-28.18C239.21,-34.77 251.26,-30.79 251.26,-16.26 251.26,-6.05 245.3,-1.05 237.95,-1.27"/>
<polygon fill="green" stroke="green" stroke-width="0.63" points="236.71,2.01 228.23,-4.34 238.82,-4.67 236.71,2.01"/>
</g>
<!-- 2200&#45;&gt;1 -->
<g id="edge21" class="edge">
<title>2200&#45;&gt;1</title>
<path fill="none" stroke="red" stroke-width="0.19" d="M704.84,-78.45C699.82,-74.86 694.38,-71.33 689,-68.53 647.29,-46.75 594.4,-31.3 563.57,-23.36"/>
<polygon fill="red" stroke="red" stroke-width="0.19" points="564.19,-19.91 553.64,-20.88 562.49,-26.7 564.19,-19.91"/>
</g>
<!-- 2159&#45;&gt;0 -->
<g id="edge19" class="edge">
<title>2159&#45;&gt;0</title>
<path fill="none" stroke="red" stroke-width="0.94" d="M283.7,-77.33C269.24,-64.31 250.28,-47.24 236.27,-34.62"/>
<polygon fill="red" stroke="red" stroke-width="0.94" points="238.44,-31.86 228.67,-27.77 233.76,-37.07 238.44,-31.86"/>
</g>
<!-- 2159&#45;&gt;1 -->
<g id="edge22" class="edge">
<title>2159&#45;&gt;1</title>
<path fill="none" stroke="green" stroke-width="0.12" d="M332,-86.3C346.48,-80.88 364.66,-74.2 381,-68.53 427.48,-52.39 482.19,-34.85 513.21,-25.04"/>
<polygon fill="green" stroke="green" stroke-width="0.12" points="514.3,-28.37 522.78,-22.03 512.19,-21.69 514.3,-28.37"/>
</g>
</g>
</svg>
