<?xml version="1.0" encoding="UTF-8" standalone="no"?>
<!DOCTYPE svg PUBLIC "-//W3C//DTD SVG 1.1//EN"
 "http://www.w3.org/Graphics/SVG/1.1/DTD/svg11.dtd">
<!-- Generated by graphviz version 2.43.0 (0)
 -->
<!-- Title: %3 Pages: 1 -->
<svg width="572pt" height="189pt"
 viewBox="0.00 0.00 572.00 188.51" xmlns="http://www.w3.org/2000/svg" xmlns:xlink="http://www.w3.org/1999/xlink">
<g id="graph0" class="graph" transform="scale(1 1) rotate(0) translate(4 184.51)">
<title>%3</title>
<polygon fill="white" stroke="transparent" points="-4,4 -4,-184.51 568,-184.51 568,4 -4,4"/>
<!-- &#45;1 -->
<g id="node1" class="node">
<title>&#45;1</title>
<polygon fill="lightgray" stroke="black" points="26,-106.52 0,-106.52 0,-88.52 26,-88.52 26,-106.52"/>
<text text-anchor="middle" x="13" y="-95.32" font-family="Times,serif" font-size="9.00">&#45;1</text>
</g>
<!-- 0 -->
<g id="node13" class="node">
<title>0</title>
<ellipse fill="lightblue" stroke="black" cx="78" cy="-16.26" rx="16.03" ry="16.03"/>
<text text-anchor="middle" x="78" y="-14.06" font-family="Times,serif" font-size="9.00">0</text>
</g>
<!-- &#45;1&#45;&gt;0 -->
<g id="edge3" class="edge">
<title>&#45;1&#45;&gt;0</title>
<path fill="none" stroke="green" stroke-width="0.24" stroke-dasharray="1,5" d="M19.48,-88.13C23.82,-82.54 29.7,-75.05 35,-68.53 43.5,-58.07 53.12,-46.56 61.11,-37.1"/>
<polygon fill="green" stroke="green" stroke-width="0.24" points="63.84,-39.29 67.64,-29.39 58.5,-34.76 63.84,-39.29"/>
</g>
<!-- &#45;2 -->
<g id="node2" class="node">
<title>&#45;2</title>
<polygon fill="lightgray" stroke="black" points="228,-106.52 202,-106.52 202,-88.52 228,-88.52 228,-106.52"/>
<text text-anchor="middle" x="215" y="-95.32" font-family="Times,serif" font-size="9.00">&#45;2</text>
</g>
<!-- 1 -->
<g id="node14" class="node">
<title>1</title>
<ellipse fill="lightblue" stroke="black" cx="281" cy="-16.26" rx="16.03" ry="16.03"/>
<text text-anchor="middle" x="281" y="-14.06" font-family="Times,serif" font-size="9.00">1</text>
</g>
<!-- &#45;2&#45;&gt;1 -->
<g id="edge2" class="edge">
<title>&#45;2&#45;&gt;1</title>
<path fill="none" stroke="red" stroke-width="0.16" d="M221.45,-88.11C225.79,-82.52 231.66,-75.02 237,-68.53 245.75,-57.87 255.75,-46.19 263.99,-36.68"/>
<polygon fill="red" stroke="red" stroke-width="0.16" points="266.79,-38.79 270.72,-28.95 261.51,-34.2 266.79,-38.79"/>
</g>
<!-- &#45;3 -->
<g id="node3" class="node">
<title>&#45;3</title>
<polygon fill="lightgray" stroke="black" points="420,-180.51 394,-180.51 394,-162.51 420,-162.51 420,-180.51"/>
<text text-anchor="middle" x="407" y="-169.31" font-family="Times,serif" font-size="9.00">&#45;3</text>
</g>
<!-- &#45;4 -->
<g id="node4" class="node">
<title>&#45;4</title>
<polygon fill="lightgray" stroke="black" points="70,-106.52 44,-106.52 44,-88.52 70,-88.52 70,-106.52"/>
<text text-anchor="middle" x="57" y="-95.32" font-family="Times,serif" font-size="9.00">&#45;4</text>
</g>
<!-- &#45;4&#45;&gt;0 -->
<g id="edge6" class="edge">
<title>&#45;4&#45;&gt;0</title>
<path fill="none" stroke="green" stroke-width="0.27" d="M59.17,-88.34C62.04,-77.5 67.23,-57.91 71.44,-42.04"/>
<polygon fill="green" stroke="green" stroke-width="0.27" points="74.85,-42.83 74.02,-32.27 68.08,-41.04 74.85,-42.83"/>
</g>
<!-- &#45;5 -->
<g id="node5" class="node">
<title>&#45;5</title>
<polygon fill="lightgray" stroke="black" points="464,-180.51 438,-180.51 438,-162.51 464,-162.51 464,-180.51"/>
<text text-anchor="middle" x="451" y="-169.31" font-family="Times,serif" font-size="9.00">&#45;5</text>
</g>
<!-- &#45;6 -->
<g id="node6" class="node">
<title>&#45;6</title>
<polygon fill="lightgray" stroke="black" points="272,-106.52 246,-106.52 246,-88.52 272,-88.52 272,-106.52"/>
<text text-anchor="middle" x="259" y="-95.32" font-family="Times,serif" font-size="9.00">&#45;6</text>
</g>
<!-- &#45;6&#45;&gt;1 -->
<g id="edge5" class="edge">
<title>&#45;6&#45;&gt;1</title>
<path fill="none" stroke="red" stroke-width="0.69" stroke-dasharray="1,5" d="M261.27,-88.34C264.28,-77.5 269.72,-57.91 274.12,-42.04"/>
<polygon fill="red" stroke="red" stroke-width="0.69" points="277.53,-42.84 276.83,-32.27 270.79,-40.97 277.53,-42.84"/>
</g>
<!-- &#45;7 -->
<g id="node7" class="node">
<title>&#45;7</title>
<polygon fill="lightgray" stroke="black" points="316,-106.52 290,-106.52 290,-88.52 316,-88.52 316,-106.52"/>
<text text-anchor="middle" x="303" y="-95.32" font-family="Times,serif" font-size="9.00">&#45;7</text>
</g>
<!-- &#45;7&#45;&gt;1 -->
<g id="edge1" class="edge">
<title>&#45;7&#45;&gt;1</title>
<path fill="none" stroke="red" stroke-width="0.87" stroke-dasharray="1,5" d="M300.73,-88.34C297.72,-77.5 292.28,-57.91 287.88,-42.04"/>
<polygon fill="red" stroke="red" stroke-width="0.87" points="291.21,-40.97 285.17,-32.27 284.47,-42.84 291.21,-40.97"/>
</g>
<!-- &#45;8 -->
<g id="node8" class="node">
<title>&#45;8</title>
<polygon fill="lightgray" stroke="black" points="168,-180.51 142,-180.51 142,-162.51 168,-162.51 168,-180.51"/>
<text text-anchor="middle" x="155" y="-169.31" font-family="Times,serif" font-size="9.00">&#45;8</text>
</g>
<!-- 2262 -->
<g id="node16" class="node">
<title>2262</title>
<ellipse fill="white" stroke="black" cx="155" cy="-97.52" rx="28.98" ry="28.98"/>
<text text-anchor="middle" x="155" y="-95.32" font-family="Times,serif" font-size="9.00">2262</text>
</g>
<!-- &#45;8&#45;&gt;2262 -->
<g id="edge12" class="edge">
<title>&#45;8&#45;&gt;2262</title>
<path fill="none" stroke="green" stroke-width="0.34" d="M155,-162.25C155,-155.78 155,-146.28 155,-136.58"/>
<polygon fill="green" stroke="green" stroke-width="0.34" points="158.5,-136.51 155,-126.51 151.5,-136.51 158.5,-136.51"/>
</g>
<!-- &#45;9 -->
<g id="node9" class="node">
<title>&#45;9</title>
<polygon fill="lightgray" stroke="black" points="376,-180.51 350,-180.51 350,-162.51 376,-162.51 376,-180.51"/>
<text text-anchor="middle" x="363" y="-169.31" font-family="Times,serif" font-size="9.00">&#45;9</text>
</g>
<!-- 3646 -->
<g id="node15" class="node">
<title>3646</title>
<ellipse fill="white" stroke="black" cx="363" cy="-97.52" rx="28.98" ry="28.98"/>
<text text-anchor="middle" x="363" y="-95.32" font-family="Times,serif" font-size="9.00">3646</text>
</g>
<!-- &#45;9&#45;&gt;3646 -->
<g id="edge10" class="edge">
<title>&#45;9&#45;&gt;3646</title>
<path fill="none" stroke="red" stroke-width="0.42" d="M363,-162.25C363,-155.78 363,-146.28 363,-136.58"/>
<polygon fill="red" stroke="red" stroke-width="0.42" points="366.5,-136.51 363,-126.51 359.5,-136.51 366.5,-136.51"/>
</g>
<!-- &#45;10 -->
<g id="node10" class="node">
<title>&#45;10</title>
<polygon fill="lightgray" stroke="black" points="119,-180.51 87,-180.51 87,-162.51 119,-162.51 119,-180.51"/>
<text text-anchor="middle" x="103" y="-169.31" font-family="Times,serif" font-size="9.00">&#45;10</text>
</g>
<!-- &#45;10&#45;&gt;0 -->
<g id="edge7" class="edge">
<title>&#45;10&#45;&gt;0</title>
<path fill="none" stroke="green" stroke-width="0.26" stroke-dasharray="1,5" d="M101.66,-162.27C98.02,-139.96 87.86,-77.68 82.11,-42.43"/>
<polygon fill="green" stroke="green" stroke-width="0.26" points="85.54,-41.74 80.47,-32.43 78.63,-42.86 85.54,-41.74"/>
</g>
<!-- &#45;10&#45;&gt;2262 -->
<g id="edge8" class="edge">
<title>&#45;10&#45;&gt;2262</title>
<path fill="none" stroke="red" stroke-width="0.17" stroke-dasharray="1,5" d="M108.97,-162.25C114.72,-154.29 123.79,-141.72 132.37,-129.85"/>
<polygon fill="red" stroke="red" stroke-width="0.17" points="135.45,-131.56 138.47,-121.4 129.78,-127.46 135.45,-131.56"/>
</g>
<!-- &#45;11 -->
<g id="node11" class="node">
<title>&#45;11</title>
<polygon fill="lightgray" stroke="black" points="514,-180.51 482,-180.51 482,-162.51 514,-162.51 514,-180.51"/>
<text text-anchor="middle" x="498" y="-169.31" font-family="Times,serif" font-size="9.00">&#45;11</text>
</g>
<!-- &#45;12 -->
<g id="node12" class="node">
<title>&#45;12</title>
<polygon fill="lightgray" stroke="black" points="564,-180.51 532,-180.51 532,-162.51 564,-162.51 564,-180.51"/>
<text text-anchor="middle" x="548" y="-169.31" font-family="Times,serif" font-size="9.00">&#45;12</text>
</g>
<!-- 0&#45;&gt;0 -->
<g id="edge4" class="edge">
<title>0&#45;&gt;0</title>
<path fill="none" stroke="red" stroke-width="0.85" d="M89.23,-28.18C100.21,-34.77 112.26,-30.79 112.26,-16.26 112.26,-6.05 106.3,-1.05 98.95,-1.27"/>
<polygon fill="red" stroke="red" stroke-width="0.85" points="97.71,2.01 89.23,-4.34 99.82,-4.67 97.71,2.01"/>
</g>
<!-- 3646&#45;&gt;1 -->
<g id="edge11" class="edge">
<title>3646&#45;&gt;1</title>
<path fill="none" stroke="red" stroke-width="0.24" stroke-dasharray="1,5" d="M342.31,-76.52C329.26,-63.91 312.55,-47.76 299.87,-35.5"/>
<polygon fill="red" stroke="red" stroke-width="0.24" points="302.19,-32.87 292.56,-28.44 297.32,-37.91 302.19,-32.87"/>
</g>
<!-- 2262&#45;&gt;0 -->
<g id="edge9" class="edge">
<title>2262&#45;&gt;0</title>
<path fill="none" stroke="red" stroke-width="0.31" d="M135.17,-76.11C123.18,-63.77 108,-48.15 96.3,-36.1"/>
<polygon fill="red" stroke="red" stroke-width="0.31" points="98.66,-33.51 89.18,-28.77 93.64,-38.38 98.66,-33.51"/>
</g>
</g>
</svg>
