<?xml version="1.0" encoding="UTF-8" standalone="no"?>
<!DOCTYPE svg PUBLIC "-//W3C//DTD SVG 1.1//EN"
 "http://www.w3.org/Graphics/SVG/1.1/DTD/svg11.dtd">
<!-- Generated by graphviz version 2.43.0 (0)
 -->
<!-- Title: %3 Pages: 1 -->
<svg width="374pt" height="189pt"
 viewBox="0.00 0.00 374.00 188.51" xmlns="http://www.w3.org/2000/svg" xmlns:xlink="http://www.w3.org/1999/xlink">
<g id="graph0" class="graph" transform="scale(1 1) rotate(0) translate(4 184.51)">
<title>%3</title>
<polygon fill="white" stroke="transparent" points="-4,4 -4,-184.51 370,-184.51 370,4 -4,4"/>
<!-- &#45;1 -->
<g id="node1" class="node">
<title>&#45;1</title>
<polygon fill="lightgray" stroke="black" points="26,-106.52 0,-106.52 0,-88.52 26,-88.52 26,-106.52"/>
<text text-anchor="middle" x="13" y="-95.32" font-family="Times,serif" font-size="9.00">&#45;1</text>
</g>
<!-- 0 -->
<g id="node13" class="node">
<title>0</title>
<ellipse fill="lightblue" stroke="black" cx="141" cy="-16.26" rx="16.03" ry="16.03"/>
<text text-anchor="middle" x="141" y="-14.06" font-family="Times,serif" font-size="9.00">0</text>
</g>
<!-- &#45;1&#45;&gt;0 -->
<g id="edge5" class="edge">
<title>&#45;1&#45;&gt;0</title>
<path fill="none" stroke="green" stroke-width="0.51" stroke-dasharray="1,5" d="M19.49,-88.45C24.62,-82.44 32.18,-74.31 40,-68.53 64.16,-50.67 95.46,-35.86 116.77,-26.83"/>
<polygon fill="green" stroke="green" stroke-width="0.51" points="118.17,-30.04 126.08,-22.99 115.5,-23.57 118.17,-30.04"/>
</g>
<!-- &#45;2 -->
<g id="node2" class="node">
<title>&#45;2</title>
<polygon fill="lightgray" stroke="black" points="322,-106.52 296,-106.52 296,-88.52 322,-88.52 322,-106.52"/>
<text text-anchor="middle" x="309" y="-95.32" font-family="Times,serif" font-size="9.00">&#45;2</text>
</g>
<!-- 1 -->
<g id="node14" class="node">
<title>1</title>
<ellipse fill="lightblue" stroke="black" cx="309" cy="-16.26" rx="16.03" ry="16.03"/>
<text text-anchor="middle" x="309" y="-14.06" font-family="Times,serif" font-size="9.00">1</text>
</g>
<!-- &#45;2&#45;&gt;1 -->
<g id="edge1" class="edge">
<title>&#45;2&#45;&gt;1</title>
<path fill="none" stroke="red" stroke-width="0.67" d="M309,-88.34C309,-77.67 309,-58.51 309,-42.77"/>
<polygon fill="red" stroke="red" stroke-width="0.67" points="312.5,-42.57 309,-32.57 305.5,-42.57 312.5,-42.57"/>
</g>
<!-- &#45;3 -->
<g id="node3" class="node">
<title>&#45;3</title>
<polygon fill="lightgray" stroke="black" points="95,-180.51 69,-180.51 69,-162.51 95,-162.51 95,-180.51"/>
<text text-anchor="middle" x="82" y="-169.31" font-family="Times,serif" font-size="9.00">&#45;3</text>
</g>
<!-- &#45;3&#45;&gt;0 -->
<g id="edge2" class="edge">
<title>&#45;3&#45;&gt;0</title>
<path fill="none" stroke="green" stroke-width="0.76" stroke-dasharray="1,5" d="M78.51,-162.3C71.41,-144.25 57.22,-100.18 73,-68.53 82.18,-50.12 101.46,-36.58 117.16,-28.05"/>
<polygon fill="green" stroke="green" stroke-width="0.76" points="119.01,-31.04 126.35,-23.39 115.84,-24.79 119.01,-31.04"/>
</g>
<!-- 2120 -->
<g id="node15" class="node">
<title>2120</title>
<ellipse fill="white" stroke="black" cx="111" cy="-97.52" rx="28.98" ry="28.98"/>
<text text-anchor="middle" x="111" y="-95.32" font-family="Times,serif" font-size="9.00">2120</text>
</g>
<!-- &#45;3&#45;&gt;2120 -->
<g id="edge8" class="edge">
<title>&#45;3&#45;&gt;2120</title>
<path fill="none" stroke="green" stroke-width="0.42" d="M85.33,-162.25C88.15,-155.24 92.41,-144.66 96.65,-134.13"/>
<polygon fill="green" stroke="green" stroke-width="0.42" points="100.01,-135.16 100.5,-124.57 93.52,-132.54 100.01,-135.16"/>
</g>
<!-- &#45;4 -->
<g id="node4" class="node">
<title>&#45;4</title>
<polygon fill="lightgray" stroke="black" points="139,-180.51 113,-180.51 113,-162.51 139,-162.51 139,-180.51"/>
<text text-anchor="middle" x="126" y="-169.31" font-family="Times,serif" font-size="9.00">&#45;4</text>
</g>
<!-- &#45;5 -->
<g id="node5" class="node">
<title>&#45;5</title>
<polygon fill="lightgray" stroke="black" points="184,-106.52 158,-106.52 158,-88.52 184,-88.52 184,-106.52"/>
<text text-anchor="middle" x="171" y="-95.32" font-family="Times,serif" font-size="9.00">&#45;5</text>
</g>
<!-- &#45;5&#45;&gt;0 -->
<g id="edge7" class="edge">
<title>&#45;5&#45;&gt;0</title>
<path fill="none" stroke="red" stroke-width="0.46" d="M167.9,-88.34C163.75,-77.37 156.21,-57.44 150.16,-41.47"/>
<polygon fill="red" stroke="red" stroke-width="0.46" points="153.27,-39.79 146.46,-31.68 146.72,-42.27 153.27,-39.79"/>
</g>
<!-- &#45;6 -->
<g id="node6" class="node">
<title>&#45;6</title>
<polygon fill="lightgray" stroke="black" points="183,-180.51 157,-180.51 157,-162.51 183,-162.51 183,-180.51"/>
<text text-anchor="middle" x="170" y="-169.31" font-family="Times,serif" font-size="9.00">&#45;6</text>
</g>
<!-- &#45;7 -->
<g id="node7" class="node">
<title>&#45;7</title>
<polygon fill="lightgray" stroke="black" points="366,-106.52 340,-106.52 340,-88.52 366,-88.52 366,-106.52"/>
<text text-anchor="middle" x="353" y="-95.32" font-family="Times,serif" font-size="9.00">&#45;7</text>
</g>
<!-- &#45;7&#45;&gt;1 -->
<g id="edge6" class="edge">
<title>&#45;7&#45;&gt;1</title>
<path fill="none" stroke="red" stroke-width="0.31" stroke-dasharray="1,5" d="M348.46,-88.34C342.14,-76.96 330.47,-55.95 321.46,-39.7"/>
<polygon fill="red" stroke="red" stroke-width="0.31" points="324.43,-37.85 316.52,-30.8 318.31,-41.25 324.43,-37.85"/>
</g>
<!-- &#45;8 -->
<g id="node8" class="node">
<title>&#45;8</title>
<polygon fill="lightgray" stroke="black" points="227,-180.51 201,-180.51 201,-162.51 227,-162.51 227,-180.51"/>
<text text-anchor="middle" x="214" y="-169.31" font-family="Times,serif" font-size="9.00">&#45;8</text>
</g>
<!-- &#45;9 -->
<g id="node9" class="node">
<title>&#45;9</title>
<polygon fill="lightgray" stroke="black" points="228,-106.52 202,-106.52 202,-88.52 228,-88.52 228,-106.52"/>
<text text-anchor="middle" x="215" y="-95.32" font-family="Times,serif" font-size="9.00">&#45;9</text>
</g>
<!-- &#45;9&#45;&gt;0 -->
<g id="edge4" class="edge">
<title>&#45;9&#45;&gt;0</title>
<path fill="none" stroke="red" stroke-width="0.88" d="M209.09,-88.46C204.81,-82.75 198.77,-74.98 193,-68.53 182.6,-56.89 170.18,-44.59 160.09,-34.96"/>
<polygon fill="red" stroke="red" stroke-width="0.88" points="162.25,-32.19 152.57,-27.87 157.44,-37.28 162.25,-32.19"/>
</g>
<!-- &#45;10 -->
<g id="node10" class="node">
<title>&#45;10</title>
<polygon fill="lightgray" stroke="black" points="277,-180.51 245,-180.51 245,-162.51 277,-162.51 277,-180.51"/>
<text text-anchor="middle" x="261" y="-169.31" font-family="Times,serif" font-size="9.00">&#45;10</text>
</g>
<!-- &#45;11 -->
<g id="node11" class="node">
<title>&#45;11</title>
<polygon fill="lightgray" stroke="black" points="278,-106.52 246,-106.52 246,-88.52 278,-88.52 278,-106.52"/>
<text text-anchor="middle" x="262" y="-95.32" font-family="Times,serif" font-size="9.00">&#45;11</text>
</g>
<!-- &#45;11&#45;&gt;0 -->
<g id="edge10" class="edge">
<title>&#45;11&#45;&gt;0</title>
<path fill="none" stroke="green" stroke-width="0.22" d="M256.07,-88.46C251.36,-82.46 244.38,-74.32 237,-68.53 214.66,-50.97 185.44,-36.35 165.13,-27.27"/>
<polygon fill="green" stroke="green" stroke-width="0.22" points="166.51,-24.06 155.94,-23.28 163.72,-30.48 166.51,-24.06"/>
</g>
<!-- &#45;11&#45;&gt;1 -->
<g id="edge3" class="edge">
<title>&#45;11&#45;&gt;1</title>
<path fill="none" stroke="green" stroke-width="0.26" d="M266.85,-88.34C273.64,-76.9 286.21,-55.7 295.86,-39.42"/>
<polygon fill="green" stroke="green" stroke-width="0.26" points="299.05,-40.9 301.14,-30.52 293.03,-37.33 299.05,-40.9"/>
</g>
<!-- &#45;12 -->
<g id="node12" class="node">
<title>&#45;12</title>
<polygon fill="lightgray" stroke="black" points="327,-180.51 295,-180.51 295,-162.51 327,-162.51 327,-180.51"/>
<text text-anchor="middle" x="311" y="-169.31" font-family="Times,serif" font-size="9.00">&#45;12</text>
</g>
<!-- 2120&#45;&gt;0 -->
<g id="edge9" class="edge">
<title>2120&#45;&gt;0</title>
<path fill="none" stroke="green" stroke-width="0.44" d="M120.99,-70.13C124.51,-60.84 128.44,-50.45 131.88,-41.36"/>
<polygon fill="green" stroke="green" stroke-width="0.44" points="135.24,-42.36 135.51,-31.77 128.7,-39.88 135.24,-42.36"/>
</g>
</g>
</svg>
