<?xml version="1.0" encoding="UTF-8" standalone="no"?>
<!DOCTYPE svg PUBLIC "-//W3C//DTD SVG 1.1//EN"
 "http://www.w3.org/Graphics/SVG/1.1/DTD/svg11.dtd">
<!-- Generated by graphviz version 2.43.0 (0)
 -->
<!-- Title: %3 Pages: 1 -->
<svg width="1336pt" height="95pt"
 viewBox="0.00 0.00 1336.00 94.53" xmlns="http://www.w3.org/2000/svg" xmlns:xlink="http://www.w3.org/1999/xlink">
<g id="graph0" class="graph" transform="scale(1 1) rotate(0) translate(4 90.53)">
<title>%3</title>
<polygon fill="white" stroke="transparent" points="-4,4 -4,-90.53 1332,-90.53 1332,4 -4,4"/>
<!-- &#45;1 -->
<g id="node1" class="node">
<title>&#45;1</title>
<polygon fill="lightgray" stroke="black" points="26,-86.53 0,-86.53 0,-68.53 26,-68.53 26,-86.53"/>
<text text-anchor="middle" x="13" y="-75.33" font-family="Times,serif" font-size="9.00">&#45;1</text>
</g>
<!-- &#45;2 -->
<g id="node2" class="node">
<title>&#45;2</title>
<polygon fill="lightgray" stroke="black" points="420,-86.53 394,-86.53 394,-68.53 420,-68.53 420,-86.53"/>
<text text-anchor="middle" x="407" y="-75.33" font-family="Times,serif" font-size="9.00">&#45;2</text>
</g>
<!-- 0 -->
<g id="node29" class="node">
<title>0</title>
<ellipse fill="lightblue" stroke="black" cx="384" cy="-16.26" rx="16.03" ry="16.03"/>
<text text-anchor="middle" x="384" y="-14.06" font-family="Times,serif" font-size="9.00">0</text>
</g>
<!-- &#45;2&#45;&gt;0 -->
<g id="edge3" class="edge">
<title>&#45;2&#45;&gt;0</title>
<path fill="none" stroke="green" stroke-width="1.49" d="M403.8,-68.29C401.09,-61.3 397.06,-50.91 393.34,-41.33"/>
<polygon fill="green" stroke="green" stroke-width="1.49" points="396.53,-39.87 389.65,-31.82 390,-42.41 396.53,-39.87"/>
</g>
<!-- &#45;3 -->
<g id="node3" class="node">
<title>&#45;3</title>
<polygon fill="lightgray" stroke="black" points="464,-86.53 438,-86.53 438,-68.53 464,-68.53 464,-86.53"/>
<text text-anchor="middle" x="451" y="-75.33" font-family="Times,serif" font-size="9.00">&#45;3</text>
</g>
<!-- &#45;3&#45;&gt;0 -->
<g id="edge8" class="edge">
<title>&#45;3&#45;&gt;0</title>
<path fill="none" stroke="red" stroke-width="0.2" stroke-dasharray="1,5" d="M441.68,-68.29C431.89,-59.62 416.2,-45.74 403.65,-34.64"/>
<polygon fill="red" stroke="red" stroke-width="0.2" points="405.76,-31.84 395.95,-27.83 401.12,-37.08 405.76,-31.84"/>
</g>
<!-- &#45;4 -->
<g id="node4" class="node">
<title>&#45;4</title>
<polygon fill="lightgray" stroke="black" points="508,-86.53 482,-86.53 482,-68.53 508,-68.53 508,-86.53"/>
<text text-anchor="middle" x="495" y="-75.33" font-family="Times,serif" font-size="9.00">&#45;4</text>
</g>
<!-- &#45;4&#45;&gt;0 -->
<g id="edge1" class="edge">
<title>&#45;4&#45;&gt;0</title>
<path fill="none" stroke="red" stroke-width="1.1" d="M481.83,-69.5C463.44,-59.68 429.78,-41.71 407.15,-29.62"/>
<polygon fill="red" stroke="red" stroke-width="1.1" points="408.67,-26.47 398.2,-24.85 405.37,-32.64 408.67,-26.47"/>
</g>
<!-- &#45;5 -->
<g id="node5" class="node">
<title>&#45;5</title>
<polygon fill="lightgray" stroke="black" points="734,-86.53 708,-86.53 708,-68.53 734,-68.53 734,-86.53"/>
<text text-anchor="middle" x="721" y="-75.33" font-family="Times,serif" font-size="9.00">&#45;5</text>
</g>
<!-- 1 -->
<g id="node30" class="node">
<title>1</title>
<ellipse fill="lightblue" stroke="black" cx="768" cy="-16.26" rx="16.03" ry="16.03"/>
<text text-anchor="middle" x="768" y="-14.06" font-family="Times,serif" font-size="9.00">1</text>
</g>
<!-- &#45;5&#45;&gt;1 -->
<g id="edge5" class="edge">
<title>&#45;5&#45;&gt;1</title>
<path fill="none" stroke="red" stroke-width="0.29" stroke-dasharray="1,5" d="M727.54,-68.29C733.82,-60.36 743.58,-48.05 751.94,-37.51"/>
<polygon fill="red" stroke="red" stroke-width="0.29" points="754.78,-39.56 758.25,-29.55 749.3,-35.21 754.78,-39.56"/>
</g>
<!-- &#45;6 -->
<g id="node6" class="node">
<title>&#45;6</title>
<polygon fill="lightgray" stroke="black" points="690,-86.53 664,-86.53 664,-68.53 690,-68.53 690,-86.53"/>
<text text-anchor="middle" x="677" y="-75.33" font-family="Times,serif" font-size="9.00">&#45;6</text>
</g>
<!-- &#45;6&#45;&gt;0 -->
<g id="edge17" class="edge">
<title>&#45;6&#45;&gt;0</title>
<path fill="none" stroke="green" stroke-width="0.89" d="M663.62,-71.27C660.8,-70.27 657.82,-69.3 655,-68.53 566.57,-44.26 458.78,-27.61 410.09,-20.76"/>
<polygon fill="green" stroke="green" stroke-width="0.89" points="410.48,-17.28 400.09,-19.38 409.52,-24.22 410.48,-17.28"/>
</g>
<!-- &#45;6&#45;&gt;1 -->
<g id="edge10" class="edge">
<title>&#45;6&#45;&gt;1</title>
<path fill="none" stroke="green" stroke-width="0.2" d="M689.65,-68.29C704.21,-58.81 728.37,-43.07 746.02,-31.58"/>
<polygon fill="green" stroke="green" stroke-width="0.2" points="748.1,-34.4 754.57,-26.01 744.28,-28.54 748.1,-34.4"/>
</g>
<!-- &#45;7 -->
<g id="node7" class="node">
<title>&#45;7</title>
<polygon fill="lightgray" stroke="black" points="1078,-86.53 1052,-86.53 1052,-68.53 1078,-68.53 1078,-86.53"/>
<text text-anchor="middle" x="1065" y="-75.33" font-family="Times,serif" font-size="9.00">&#45;7</text>
</g>
<!-- &#45;8 -->
<g id="node8" class="node">
<title>&#45;8</title>
<polygon fill="lightgray" stroke="black" points="552,-86.53 526,-86.53 526,-68.53 552,-68.53 552,-86.53"/>
<text text-anchor="middle" x="539" y="-75.33" font-family="Times,serif" font-size="9.00">&#45;8</text>
</g>
<!-- &#45;8&#45;&gt;0 -->
<g id="edge25" class="edge">
<title>&#45;8&#45;&gt;0</title>
<path fill="none" stroke="green" stroke-width="0.51" d="M525.78,-71.47C499.78,-61.53 441.6,-39.29 408.42,-26.6"/>
<polygon fill="green" stroke="green" stroke-width="0.51" points="409.58,-23.3 398.99,-22.99 407.08,-29.83 409.58,-23.3"/>
</g>
<!-- &#45;8&#45;&gt;1 -->
<g id="edge2" class="edge">
<title>&#45;8&#45;&gt;1</title>
<path fill="none" stroke="green" stroke-width="0.11" stroke-dasharray="1,5" d="M552.42,-71.39C555.24,-70.39 558.2,-69.38 561,-68.53 625.56,-48.86 703.13,-31.21 742.45,-22.67"/>
<polygon fill="green" stroke="green" stroke-width="0.11" points="743.23,-26.09 752.27,-20.56 741.75,-19.24 743.23,-26.09"/>
</g>
<!-- &#45;9 -->
<g id="node9" class="node">
<title>&#45;9</title>
<polygon fill="lightgray" stroke="black" points="596,-86.53 570,-86.53 570,-68.53 596,-68.53 596,-86.53"/>
<text text-anchor="middle" x="583" y="-75.33" font-family="Times,serif" font-size="9.00">&#45;9</text>
</g>
<!-- &#45;9&#45;&gt;0 -->
<g id="edge18" class="edge">
<title>&#45;9&#45;&gt;0</title>
<path fill="none" stroke="red" stroke-width="0.14" stroke-dasharray="1,5" d="M569.55,-71.48C566.74,-70.46 563.78,-69.43 561,-68.53 507.53,-51.08 444.02,-33.42 409.48,-24.07"/>
<polygon fill="red" stroke="red" stroke-width="0.14" points="410.3,-20.66 399.73,-21.44 408.48,-27.42 410.3,-20.66"/>
</g>
<!-- &#45;9&#45;&gt;1 -->
<g id="edge15" class="edge">
<title>&#45;9&#45;&gt;1</title>
<path fill="none" stroke="green" stroke-width="0.2" stroke-dasharray="1,5" d="M596.46,-71.52C599.28,-70.51 602.23,-69.47 605,-68.53 653.47,-52.1 710.63,-34.54 742.76,-24.83"/>
<polygon fill="green" stroke="green" stroke-width="0.2" points="744.08,-28.08 752.65,-21.85 742.06,-21.38 744.08,-28.08"/>
</g>
<!-- &#45;10 -->
<g id="node10" class="node">
<title>&#45;10</title>
<polygon fill="lightgray" stroke="black" points="1128,-86.53 1096,-86.53 1096,-68.53 1128,-68.53 1128,-86.53"/>
<text text-anchor="middle" x="1112" y="-75.33" font-family="Times,serif" font-size="9.00">&#45;10</text>
</g>
<!-- &#45;11 -->
<g id="node11" class="node">
<title>&#45;11</title>
<polygon fill="lightgray" stroke="black" points="1178,-86.53 1146,-86.53 1146,-68.53 1178,-68.53 1178,-86.53"/>
<text text-anchor="middle" x="1162" y="-75.33" font-family="Times,serif" font-size="9.00">&#45;11</text>
</g>
<!-- &#45;12 -->
<g id="node12" class="node">
<title>&#45;12</title>
<polygon fill="lightgray" stroke="black" points="784,-86.53 752,-86.53 752,-68.53 784,-68.53 784,-86.53"/>
<text text-anchor="middle" x="768" y="-75.33" font-family="Times,serif" font-size="9.00">&#45;12</text>
</g>
<!-- &#45;12&#45;&gt;1 -->
<g id="edge13" class="edge">
<title>&#45;12&#45;&gt;1</title>
<path fill="none" stroke="red" stroke-width="1.52" d="M768,-68.29C768,-61.7 768,-52.1 768,-43"/>
<polygon fill="red" stroke="red" stroke-width="1.52" points="771.5,-42.76 768,-32.76 764.5,-42.76 771.5,-42.76"/>
</g>
<!-- &#45;13 -->
<g id="node13" class="node">
<title>&#45;13</title>
<polygon fill="lightgray" stroke="black" points="834,-86.53 802,-86.53 802,-68.53 834,-68.53 834,-86.53"/>
<text text-anchor="middle" x="818" y="-75.33" font-family="Times,serif" font-size="9.00">&#45;13</text>
</g>
<!-- &#45;13&#45;&gt;1 -->
<g id="edge19" class="edge">
<title>&#45;13&#45;&gt;1</title>
<path fill="none" stroke="green" stroke-width="0.37" d="M811.05,-68.29C804.21,-60.18 793.5,-47.49 784.48,-36.79"/>
<polygon fill="green" stroke="green" stroke-width="0.37" points="787.12,-34.5 778,-29.11 781.77,-39.01 787.12,-34.5"/>
</g>
<!-- &#45;14 -->
<g id="node14" class="node">
<title>&#45;14</title>
<polygon fill="lightgray" stroke="black" points="76,-86.53 44,-86.53 44,-68.53 76,-68.53 76,-86.53"/>
<text text-anchor="middle" x="60" y="-75.33" font-family="Times,serif" font-size="9.00">&#45;14</text>
</g>
<!-- &#45;14&#45;&gt;0 -->
<g id="edge6" class="edge">
<title>&#45;14&#45;&gt;0</title>
<path fill="none" stroke="red" stroke-width="0.32" d="M76.04,-71.03C79,-70.12 82.08,-69.24 85,-68.53 184.59,-44.18 305.6,-27.22 357.88,-20.49"/>
<polygon fill="red" stroke="red" stroke-width="0.32" points="358.48,-23.94 367.96,-19.21 357.59,-17 358.48,-23.94"/>
</g>
<!-- &#45;15 -->
<g id="node15" class="node">
<title>&#45;15</title>
<polygon fill="lightgray" stroke="black" points="1228,-86.53 1196,-86.53 1196,-68.53 1228,-68.53 1228,-86.53"/>
<text text-anchor="middle" x="1212" y="-75.33" font-family="Times,serif" font-size="9.00">&#45;15</text>
</g>
<!-- &#45;16 -->
<g id="node16" class="node">
<title>&#45;16</title>
<polygon fill="lightgray" stroke="black" points="884,-86.53 852,-86.53 852,-68.53 884,-68.53 884,-86.53"/>
<text text-anchor="middle" x="868" y="-75.33" font-family="Times,serif" font-size="9.00">&#45;16</text>
</g>
<!-- &#45;16&#45;&gt;1 -->
<g id="edge20" class="edge">
<title>&#45;16&#45;&gt;1</title>
<path fill="none" stroke="green" stroke-width="0.71" stroke-dasharray="1,5" d="M854.1,-68.29C837.68,-58.56 810.14,-42.24 790.63,-30.68"/>
<polygon fill="green" stroke="green" stroke-width="0.71" points="792.17,-27.52 781.79,-25.43 788.6,-33.54 792.17,-27.52"/>
</g>
<!-- &#45;17 -->
<g id="node17" class="node">
<title>&#45;17</title>
<polygon fill="lightgray" stroke="black" points="126,-86.53 94,-86.53 94,-68.53 126,-68.53 126,-86.53"/>
<text text-anchor="middle" x="110" y="-75.33" font-family="Times,serif" font-size="9.00">&#45;17</text>
</g>
<!-- &#45;17&#45;&gt;0 -->
<g id="edge23" class="edge">
<title>&#45;17&#45;&gt;0</title>
<path fill="none" stroke="red" stroke-width="0.22" stroke-dasharray="1,5" d="M126.06,-71.11C129.02,-70.19 132.09,-69.29 135,-68.53 215.63,-47.39 312.81,-29.54 358.24,-21.63"/>
<polygon fill="red" stroke="red" stroke-width="0.22" points="358.87,-25.07 368.13,-19.92 357.68,-18.18 358.87,-25.07"/>
</g>
<!-- &#45;18 -->
<g id="node18" class="node">
<title>&#45;18</title>
<polygon fill="lightgray" stroke="black" points="934,-86.53 902,-86.53 902,-68.53 934,-68.53 934,-86.53"/>
<text text-anchor="middle" x="918" y="-75.33" font-family="Times,serif" font-size="9.00">&#45;18</text>
</g>
<!-- &#45;18&#45;&gt;1 -->
<g id="edge4" class="edge">
<title>&#45;18&#45;&gt;1</title>
<path fill="none" stroke="red" stroke-width="0.92" d="M901.95,-70.18C875.74,-59.83 823.58,-39.22 792.65,-27"/>
<polygon fill="red" stroke="red" stroke-width="0.92" points="793.63,-23.63 783.04,-23.21 791.06,-30.14 793.63,-23.63"/>
</g>
<!-- &#45;19 -->
<g id="node19" class="node">
<title>&#45;19</title>
<polygon fill="lightgray" stroke="black" points="1278,-86.53 1246,-86.53 1246,-68.53 1278,-68.53 1278,-86.53"/>
<text text-anchor="middle" x="1262" y="-75.33" font-family="Times,serif" font-size="9.00">&#45;19</text>
</g>
<!-- &#45;20 -->
<g id="node20" class="node">
<title>&#45;20</title>
<polygon fill="lightgray" stroke="black" points="176,-86.53 144,-86.53 144,-68.53 176,-68.53 176,-86.53"/>
<text text-anchor="middle" x="160" y="-75.33" font-family="Times,serif" font-size="9.00">&#45;20</text>
</g>
<!-- &#45;20&#45;&gt;0 -->
<g id="edge11" class="edge">
<title>&#45;20&#45;&gt;0</title>
<path fill="none" stroke="red" stroke-width="0.78" d="M176.1,-71.23C179.05,-70.3 182.11,-69.36 185,-68.53 246.88,-50.67 320.45,-32.51 358.45,-23.35"/>
<polygon fill="red" stroke="red" stroke-width="0.78" points="359.27,-26.75 368.18,-21.01 357.64,-19.94 359.27,-26.75"/>
</g>
<!-- &#45;21 -->
<g id="node21" class="node">
<title>&#45;21</title>
<polygon fill="lightgray" stroke="black" points="226,-86.53 194,-86.53 194,-68.53 226,-68.53 226,-86.53"/>
<text text-anchor="middle" x="210" y="-75.33" font-family="Times,serif" font-size="9.00">&#45;21</text>
</g>
<!-- &#45;21&#45;&gt;0 -->
<g id="edge16" class="edge">
<title>&#45;21&#45;&gt;0</title>
<path fill="none" stroke="green" stroke-width="0.17" stroke-dasharray="1,5" d="M226.06,-71.06C256.38,-60.73 322.28,-38.29 358.64,-25.9"/>
<polygon fill="green" stroke="green" stroke-width="0.17" points="360.14,-29.09 368.48,-22.55 357.89,-22.46 360.14,-29.09"/>
</g>
<!-- &#45;22 -->
<g id="node22" class="node">
<title>&#45;22</title>
<polygon fill="lightgray" stroke="black" points="276,-86.53 244,-86.53 244,-68.53 276,-68.53 276,-86.53"/>
<text text-anchor="middle" x="260" y="-75.33" font-family="Times,serif" font-size="9.00">&#45;22</text>
</g>
<!-- &#45;22&#45;&gt;0 -->
<g id="edge14" class="edge">
<title>&#45;22&#45;&gt;0</title>
<path fill="none" stroke="red" stroke-width="0.26" d="M276.21,-68.78C297.77,-58.48 336.02,-40.2 360.68,-28.41"/>
<polygon fill="red" stroke="red" stroke-width="0.26" points="362.19,-31.56 369.71,-24.09 359.18,-25.25 362.19,-31.56"/>
</g>
<!-- &#45;23 -->
<g id="node23" class="node">
<title>&#45;23</title>
<polygon fill="lightgray" stroke="black" points="326,-86.53 294,-86.53 294,-68.53 326,-68.53 326,-86.53"/>
<text text-anchor="middle" x="310" y="-75.33" font-family="Times,serif" font-size="9.00">&#45;23</text>
</g>
<!-- &#45;23&#45;&gt;0 -->
<g id="edge26" class="edge">
<title>&#45;23&#45;&gt;0</title>
<path fill="none" stroke="green" stroke-width="0.33" d="M320.29,-68.29C331.41,-59.38 349.41,-44.97 363.45,-33.72"/>
<polygon fill="green" stroke="green" stroke-width="0.33" points="365.96,-36.2 371.58,-27.21 361.58,-30.73 365.96,-36.2"/>
</g>
<!-- &#45;24 -->
<g id="node24" class="node">
<title>&#45;24</title>
<polygon fill="lightgray" stroke="black" points="646,-86.53 614,-86.53 614,-68.53 646,-68.53 646,-86.53"/>
<text text-anchor="middle" x="630" y="-75.33" font-family="Times,serif" font-size="9.00">&#45;24</text>
</g>
<!-- &#45;24&#45;&gt;0 -->
<g id="edge12" class="edge">
<title>&#45;24&#45;&gt;0</title>
<path fill="none" stroke="red" stroke-width="0.1" stroke-dasharray="1,5" d="M613.92,-71.17C610.97,-70.24 607.9,-69.33 605,-68.53 534.96,-49.23 451.13,-31.13 409.73,-22.52"/>
<polygon fill="red" stroke="red" stroke-width="0.1" points="410.42,-19.09 399.92,-20.49 409.01,-25.94 410.42,-19.09"/>
</g>
<!-- &#45;24&#45;&gt;1 -->
<g id="edge7" class="edge">
<title>&#45;24&#45;&gt;1</title>
<path fill="none" stroke="red" stroke-width="0.39" d="M646.1,-69.61C670.16,-59.28 715.68,-39.73 743.77,-27.67"/>
<polygon fill="red" stroke="red" stroke-width="0.39" points="745.45,-30.76 753.26,-23.59 742.69,-24.32 745.45,-30.76"/>
</g>
<!-- &#45;25 -->
<g id="node25" class="node">
<title>&#45;25</title>
<polygon fill="lightgray" stroke="black" points="984,-86.53 952,-86.53 952,-68.53 984,-68.53 984,-86.53"/>
<text text-anchor="middle" x="968" y="-75.33" font-family="Times,serif" font-size="9.00">&#45;25</text>
</g>
<!-- &#45;25&#45;&gt;1 -->
<g id="edge21" class="edge">
<title>&#45;25&#45;&gt;1</title>
<path fill="none" stroke="red" stroke-width="0.65" d="M951.88,-71.3C948.93,-70.37 945.88,-69.41 943,-68.53 890.01,-52.29 827.66,-34.29 793.53,-24.53"/>
<polygon fill="red" stroke="red" stroke-width="0.65" points="794.07,-21.04 783.49,-21.66 792.14,-27.77 794.07,-21.04"/>
</g>
<!-- &#45;26 -->
<g id="node26" class="node">
<title>&#45;26</title>
<polygon fill="lightgray" stroke="black" points="376,-86.53 344,-86.53 344,-68.53 376,-68.53 376,-86.53"/>
<text text-anchor="middle" x="360" y="-75.33" font-family="Times,serif" font-size="9.00">&#45;26</text>
</g>
<!-- &#45;26&#45;&gt;0 -->
<g id="edge24" class="edge">
<title>&#45;26&#45;&gt;0</title>
<path fill="none" stroke="red" stroke-width="0.9" d="M363.34,-68.29C366.17,-61.3 370.37,-50.91 374.25,-41.33"/>
<polygon fill="red" stroke="red" stroke-width="0.9" points="377.6,-42.4 378.11,-31.82 371.11,-39.77 377.6,-42.4"/>
</g>
<!-- &#45;27 -->
<g id="node27" class="node">
<title>&#45;27</title>
<polygon fill="lightgray" stroke="black" points="1328,-86.53 1296,-86.53 1296,-68.53 1328,-68.53 1328,-86.53"/>
<text text-anchor="middle" x="1312" y="-75.33" font-family="Times,serif" font-size="9.00">&#45;27</text>
</g>
<!-- &#45;28 -->
<g id="node28" class="node">
<title>&#45;28</title>
<polygon fill="lightgray" stroke="black" points="1034,-86.53 1002,-86.53 1002,-68.53 1034,-68.53 1034,-86.53"/>
<text text-anchor="middle" x="1018" y="-75.33" font-family="Times,serif" font-size="9.00">&#45;28</text>
</g>
<!-- &#45;28&#45;&gt;1 -->
<g id="edge22" class="edge">
<title>&#45;28&#45;&gt;1</title>
<path fill="none" stroke="green" stroke-width="0.25" d="M1001.92,-71.16C998.97,-70.24 995.9,-69.32 993,-68.53 921.54,-48.99 835.93,-30.93 793.89,-22.41"/>
<polygon fill="green" stroke="green" stroke-width="0.25" points="794.43,-18.95 783.94,-20.4 793.05,-25.81 794.43,-18.95"/>
</g>
<!-- 1&#45;&gt;1 -->
<g id="edge9" class="edge">
<title>1&#45;&gt;1</title>
<path fill="none" stroke="green" stroke-width="1.5" stroke-dasharray="1,5" d="M781.36,-26.06C791.71,-29.72 802.26,-26.46 802.26,-16.26 802.26,-9.57 797.72,-5.87 791.67,-5.14"/>
<polygon fill="green" stroke="green" stroke-width="1.5" points="790.84,-1.72 781.36,-6.47 791.73,-8.67 790.84,-1.72"/>
</g>
</g>
</svg>
