<?xml version="1.0" encoding="UTF-8" standalone="no"?>
<!DOCTYPE svg PUBLIC "-//W3C//DTD SVG 1.1//EN"
 "http://www.w3.org/Graphics/SVG/1.1/DTD/svg11.dtd">
<!-- Generated by graphviz version 2.43.0 (0)
 -->
<!-- Title: %3 Pages: 1 -->
<svg width="1030pt" height="282pt"
 viewBox="0.00 0.00 1030.00 282.49" xmlns="http://www.w3.org/2000/svg" xmlns:xlink="http://www.w3.org/1999/xlink">
<g id="graph0" class="graph" transform="scale(1 1) rotate(0) translate(4 278.49)">
<title>%3</title>
<polygon fill="white" stroke="transparent" points="-4,4 -4,-278.49 1026,-278.49 1026,4 -4,4"/>
<!-- &#45;1 -->
<g id="node1" class="node">
<title>&#45;1</title>
<polygon fill="lightgray" stroke="black" points="26,-200.5 0,-200.5 0,-182.5 26,-182.5 26,-200.5"/>
<text text-anchor="middle" x="13" y="-189.3" font-family="Times,serif" font-size="9.00">&#45;1</text>
</g>
<!-- 1 -->
<g id="node22" class="node">
<title>1</title>
<ellipse fill="lightblue" stroke="black" cx="186" cy="-110.25" rx="16.03" ry="16.03"/>
<text text-anchor="middle" x="186" y="-108.05" font-family="Times,serif" font-size="9.00">1</text>
</g>
<!-- &#45;1&#45;&gt;1 -->
<g id="edge2" class="edge">
<title>&#45;1&#45;&gt;1</title>
<path fill="none" stroke="red" stroke-width="0.63" d="M17.62,-182.33C21.51,-176.09 27.63,-167.72 35,-162.51 73.57,-135.21 127.84,-121.52 159.73,-115.43"/>
<polygon fill="red" stroke="red" stroke-width="0.63" points="160.4,-118.87 169.63,-113.65 159.16,-111.98 160.4,-118.87"/>
</g>
<!-- 3082 -->
<g id="node23" class="node">
<title>3082</title>
<ellipse fill="white" stroke="black" cx="132" cy="-28.99" rx="28.98" ry="28.98"/>
<text text-anchor="middle" x="132" y="-26.79" font-family="Times,serif" font-size="9.00">3082</text>
</g>
<!-- &#45;1&#45;&gt;3082 -->
<g id="edge13" class="edge">
<title>&#45;1&#45;&gt;3082</title>
<path fill="none" stroke="red" stroke-width="0.13" stroke-dasharray="1,5" d="M19.06,-182.32C35.4,-160.29 80.98,-98.81 108.99,-61.03"/>
<polygon fill="red" stroke="red" stroke-width="0.13" points="111.88,-63.01 115.02,-52.89 106.25,-58.84 111.88,-63.01"/>
</g>
<!-- &#45;2 -->
<g id="node2" class="node">
<title>&#45;2</title>
<polygon fill="lightgray" stroke="black" points="619,-274.49 593,-274.49 593,-256.49 619,-256.49 619,-274.49"/>
<text text-anchor="middle" x="606" y="-263.29" font-family="Times,serif" font-size="9.00">&#45;2</text>
</g>
<!-- &#45;3 -->
<g id="node3" class="node">
<title>&#45;3</title>
<polygon fill="lightgray" stroke="black" points="293,-274.49 267,-274.49 267,-256.49 293,-256.49 293,-274.49"/>
<text text-anchor="middle" x="280" y="-263.29" font-family="Times,serif" font-size="9.00">&#45;3</text>
</g>
<!-- 0 -->
<g id="node21" class="node">
<title>0</title>
<ellipse fill="lightblue" stroke="black" cx="478" cy="-110.25" rx="16.03" ry="16.03"/>
<text text-anchor="middle" x="478" y="-108.05" font-family="Times,serif" font-size="9.00">0</text>
</g>
<!-- &#45;3&#45;&gt;0 -->
<g id="edge8" class="edge">
<title>&#45;3&#45;&gt;0</title>
<path fill="none" stroke="green" stroke-width="1.71" stroke-dasharray="1,5" d="M293.09,-263.69C333.84,-260.91 457.15,-250.13 481,-220.49 500.15,-196.69 494.03,-159.62 486.85,-135.38"/>
<polygon fill="green" stroke="green" stroke-width="1.71" points="490.17,-134.3 483.77,-125.86 483.51,-136.45 490.17,-134.3"/>
</g>
<!-- &#45;3&#45;&gt;1 -->
<g id="edge12" class="edge">
<title>&#45;3&#45;&gt;1</title>
<path fill="none" stroke="green" stroke-width="0.36" d="M280.49,-256.32C281.2,-237.96 280.67,-192.68 261,-162.51 248.76,-143.73 227,-130.01 210.06,-121.51"/>
<polygon fill="green" stroke="green" stroke-width="0.36" points="211.28,-118.22 200.75,-117.11 208.29,-124.55 211.28,-118.22"/>
</g>
<!-- 3181 -->
<g id="node24" class="node">
<title>3181</title>
<ellipse fill="white" stroke="black" cx="73" cy="-191.5" rx="28.98" ry="28.98"/>
<text text-anchor="middle" x="73" y="-189.3" font-family="Times,serif" font-size="9.00">3181</text>
</g>
<!-- &#45;3&#45;&gt;3181 -->
<g id="edge14" class="edge">
<title>&#45;3&#45;&gt;3181</title>
<path fill="none" stroke="red" stroke-width="0.43" stroke-dasharray="1,5" d="M266.7,-262.78C237.37,-258.64 165.46,-246.45 111,-220.49 108.52,-219.31 106.04,-217.96 103.6,-216.5"/>
<polygon fill="red" stroke="red" stroke-width="0.43" points="105.29,-213.43 95.01,-210.87 101.46,-219.28 105.29,-213.43"/>
</g>
<!-- &#45;4 -->
<g id="node4" class="node">
<title>&#45;4</title>
<polygon fill="lightgray" stroke="black" points="378,-200.5 352,-200.5 352,-182.5 378,-182.5 378,-200.5"/>
<text text-anchor="middle" x="365" y="-189.3" font-family="Times,serif" font-size="9.00">&#45;4</text>
</g>
<!-- &#45;4&#45;&gt;0 -->
<g id="edge6" class="edge">
<title>&#45;4&#45;&gt;0</title>
<path fill="none" stroke="green" stroke-width="0.27" d="M370.07,-182.44C374.13,-176.44 380.24,-168.3 387,-162.51 407.4,-145.02 434.67,-130.6 454.02,-121.56"/>
<polygon fill="green" stroke="green" stroke-width="0.27" points="455.68,-124.65 463.34,-117.33 452.79,-118.28 455.68,-124.65"/>
</g>
<!-- &#45;4&#45;&gt;1 -->
<g id="edge18" class="edge">
<title>&#45;4&#45;&gt;1</title>
<path fill="none" stroke="green" stroke-width="0.99" d="M360.4,-182.3C356.51,-176.06 350.4,-167.68 343,-162.51 302.46,-134.17 245.27,-120.75 212.27,-115"/>
<polygon fill="green" stroke="green" stroke-width="0.99" points="212.5,-111.5 202.07,-113.34 211.38,-118.4 212.5,-111.5"/>
</g>
<!-- &#45;5 -->
<g id="node5" class="node">
<title>&#45;5</title>
<polygon fill="lightgray" stroke="black" points="422,-200.5 396,-200.5 396,-182.5 422,-182.5 422,-200.5"/>
<text text-anchor="middle" x="409" y="-189.3" font-family="Times,serif" font-size="9.00">&#45;5</text>
</g>
<!-- &#45;5&#45;&gt;0 -->
<g id="edge1" class="edge">
<title>&#45;5&#45;&gt;0</title>
<path fill="none" stroke="green" stroke-width="0.19" d="M415.38,-182.04C419.69,-176.42 425.56,-168.92 431,-162.51 440.28,-151.58 451.07,-139.76 459.96,-130.23"/>
<polygon fill="green" stroke="green" stroke-width="0.19" points="462.62,-132.51 466.91,-122.83 457.52,-127.72 462.62,-132.51"/>
</g>
<!-- &#45;6 -->
<g id="node6" class="node">
<title>&#45;6</title>
<polygon fill="lightgray" stroke="black" points="684,-274.49 658,-274.49 658,-256.49 684,-256.49 684,-274.49"/>
<text text-anchor="middle" x="671" y="-263.29" font-family="Times,serif" font-size="9.00">&#45;6</text>
</g>
<!-- 3246 -->
<g id="node25" class="node">
<title>3246</title>
<ellipse fill="white" stroke="black" cx="671" cy="-191.5" rx="28.98" ry="28.98"/>
<text text-anchor="middle" x="671" y="-189.3" font-family="Times,serif" font-size="9.00">3246</text>
</g>
<!-- &#45;6&#45;&gt;3246 -->
<g id="edge21" class="edge">
<title>&#45;6&#45;&gt;3246</title>
<path fill="none" stroke="green" stroke-width="0.41" d="M671,-256.23C671,-249.77 671,-240.26 671,-230.56"/>
<polygon fill="green" stroke="green" stroke-width="0.41" points="674.5,-230.5 671,-220.5 667.5,-230.5 674.5,-230.5"/>
</g>
<!-- &#45;7 -->
<g id="node7" class="node">
<title>&#45;7</title>
<polygon fill="lightgray" stroke="black" points="728,-274.49 702,-274.49 702,-256.49 728,-256.49 728,-274.49"/>
<text text-anchor="middle" x="715" y="-263.29" font-family="Times,serif" font-size="9.00">&#45;7</text>
</g>
<!-- &#45;8 -->
<g id="node8" class="node">
<title>&#45;8</title>
<polygon fill="lightgray" stroke="black" points="334,-200.5 308,-200.5 308,-182.5 334,-182.5 334,-200.5"/>
<text text-anchor="middle" x="321" y="-189.3" font-family="Times,serif" font-size="9.00">&#45;8</text>
</g>
<!-- &#45;8&#45;&gt;1 -->
<g id="edge10" class="edge">
<title>&#45;8&#45;&gt;1</title>
<path fill="none" stroke="red" stroke-width="1.29" d="M314.55,-182.37C309.45,-176.33 301.89,-168.19 294,-162.51 267.84,-143.7 233.7,-128.86 210.87,-120.08"/>
<polygon fill="red" stroke="red" stroke-width="1.29" points="211.84,-116.71 201.25,-116.48 209.39,-123.26 211.84,-116.71"/>
</g>
<!-- &#45;9 -->
<g id="node9" class="node">
<title>&#45;9</title>
<polygon fill="lightgray" stroke="black" points="772,-274.49 746,-274.49 746,-256.49 772,-256.49 772,-274.49"/>
<text text-anchor="middle" x="759" y="-263.29" font-family="Times,serif" font-size="9.00">&#45;9</text>
</g>
<!-- &#45;10 -->
<g id="node10" class="node">
<title>&#45;10</title>
<polygon fill="lightgray" stroke="black" points="822,-274.49 790,-274.49 790,-256.49 822,-256.49 822,-274.49"/>
<text text-anchor="middle" x="806" y="-263.29" font-family="Times,serif" font-size="9.00">&#45;10</text>
</g>
<!-- &#45;11 -->
<g id="node11" class="node">
<title>&#45;11</title>
<polygon fill="lightgray" stroke="black" points="872,-274.49 840,-274.49 840,-256.49 872,-256.49 872,-274.49"/>
<text text-anchor="middle" x="856" y="-263.29" font-family="Times,serif" font-size="9.00">&#45;11</text>
</g>
<!-- &#45;12 -->
<g id="node12" class="node">
<title>&#45;12</title>
<polygon fill="lightgray" stroke="black" points="152,-200.5 120,-200.5 120,-182.5 152,-182.5 152,-200.5"/>
<text text-anchor="middle" x="136" y="-189.3" font-family="Times,serif" font-size="9.00">&#45;12</text>
</g>
<!-- &#45;12&#45;&gt;1 -->
<g id="edge9" class="edge">
<title>&#45;12&#45;&gt;1</title>
<path fill="none" stroke="red" stroke-width="0.23" d="M141.16,-182.32C148.38,-170.88 161.75,-149.68 172.02,-133.4"/>
<polygon fill="red" stroke="red" stroke-width="0.23" points="175.26,-134.82 177.64,-124.5 169.34,-131.09 175.26,-134.82"/>
</g>
<!-- &#45;13 -->
<g id="node13" class="node">
<title>&#45;13</title>
<polygon fill="lightgray" stroke="black" points="89,-274.49 57,-274.49 57,-256.49 89,-256.49 89,-274.49"/>
<text text-anchor="middle" x="73" y="-263.29" font-family="Times,serif" font-size="9.00">&#45;13</text>
</g>
<!-- &#45;13&#45;&gt;3181 -->
<g id="edge16" class="edge">
<title>&#45;13&#45;&gt;3181</title>
<path fill="none" stroke="green" stroke-width="0.17" d="M73,-256.23C73,-249.77 73,-240.26 73,-230.56"/>
<polygon fill="green" stroke="green" stroke-width="0.17" points="76.5,-230.5 73,-220.5 69.5,-230.5 76.5,-230.5"/>
</g>
<!-- &#45;14 -->
<g id="node14" class="node">
<title>&#45;14</title>
<polygon fill="lightgray" stroke="black" points="922,-274.49 890,-274.49 890,-256.49 922,-256.49 922,-274.49"/>
<text text-anchor="middle" x="906" y="-263.29" font-family="Times,serif" font-size="9.00">&#45;14</text>
</g>
<!-- &#45;15 -->
<g id="node15" class="node">
<title>&#45;15</title>
<polygon fill="lightgray" stroke="black" points="972,-274.49 940,-274.49 940,-256.49 972,-256.49 972,-274.49"/>
<text text-anchor="middle" x="956" y="-263.29" font-family="Times,serif" font-size="9.00">&#45;15</text>
</g>
<!-- &#45;16 -->
<g id="node16" class="node">
<title>&#45;16</title>
<polygon fill="lightgray" stroke="black" points="202,-200.5 170,-200.5 170,-182.5 202,-182.5 202,-200.5"/>
<text text-anchor="middle" x="186" y="-189.3" font-family="Times,serif" font-size="9.00">&#45;16</text>
</g>
<!-- &#45;16&#45;&gt;1 -->
<g id="edge4" class="edge">
<title>&#45;16&#45;&gt;1</title>
<path fill="none" stroke="green" stroke-width="0.23" stroke-dasharray="1,5" d="M186,-182.32C186,-171.65 186,-152.49 186,-136.76"/>
<polygon fill="green" stroke="green" stroke-width="0.23" points="189.5,-136.55 186,-126.55 182.5,-136.55 189.5,-136.55"/>
</g>
<!-- &#45;17 -->
<g id="node17" class="node">
<title>&#45;17</title>
<polygon fill="lightgray" stroke="black" points="472,-200.5 440,-200.5 440,-182.5 472,-182.5 472,-200.5"/>
<text text-anchor="middle" x="456" y="-189.3" font-family="Times,serif" font-size="9.00">&#45;17</text>
</g>
<!-- &#45;17&#45;&gt;0 -->
<g id="edge3" class="edge">
<title>&#45;17&#45;&gt;0</title>
<path fill="none" stroke="red" stroke-width="0.54" stroke-dasharray="1,5" d="M458.27,-182.32C461.28,-171.48 466.72,-151.89 471.12,-136.02"/>
<polygon fill="red" stroke="red" stroke-width="0.54" points="474.53,-136.83 473.83,-126.25 467.79,-134.95 474.53,-136.83"/>
</g>
<!-- &#45;18 -->
<g id="node18" class="node">
<title>&#45;18</title>
<polygon fill="lightgray" stroke="black" points="564,-274.49 532,-274.49 532,-256.49 564,-256.49 564,-274.49"/>
<text text-anchor="middle" x="548" y="-263.29" font-family="Times,serif" font-size="9.00">&#45;18</text>
</g>
<!-- &#45;18&#45;&gt;0 -->
<g id="edge11" class="edge">
<title>&#45;18&#45;&gt;0</title>
<path fill="none" stroke="green" stroke-width="0.45" stroke-dasharray="1,5" d="M546.12,-256.24C541.88,-238.47 530.64,-195.51 514,-162.51 508.51,-151.62 500.92,-140.43 494.12,-131.3"/>
<polygon fill="green" stroke="green" stroke-width="0.45" points="496.81,-129.05 487.95,-123.25 491.26,-133.31 496.81,-129.05"/>
</g>
<!-- 4273 -->
<g id="node26" class="node">
<title>4273</title>
<ellipse fill="white" stroke="black" cx="595" cy="-191.5" rx="28.98" ry="28.98"/>
<text text-anchor="middle" x="595" y="-189.3" font-family="Times,serif" font-size="9.00">4273</text>
</g>
<!-- &#45;18&#45;&gt;4273 -->
<g id="edge19" class="edge">
<title>&#45;18&#45;&gt;4273</title>
<path fill="none" stroke="red" stroke-width="0.25" d="M553.39,-256.23C558.43,-248.52 566.27,-236.5 573.8,-224.97"/>
<polygon fill="red" stroke="red" stroke-width="0.25" points="576.91,-226.61 579.45,-216.33 571.05,-222.79 576.91,-226.61"/>
</g>
<!-- &#45;19 -->
<g id="node19" class="node">
<title>&#45;19</title>
<polygon fill="lightgray" stroke="black" points="252,-200.5 220,-200.5 220,-182.5 252,-182.5 252,-200.5"/>
<text text-anchor="middle" x="236" y="-189.3" font-family="Times,serif" font-size="9.00">&#45;19</text>
</g>
<!-- &#45;19&#45;&gt;1 -->
<g id="edge5" class="edge">
<title>&#45;19&#45;&gt;1</title>
<path fill="none" stroke="red" stroke-width="0.17" stroke-dasharray="1,5" d="M230.84,-182.32C223.62,-170.88 210.25,-149.68 199.98,-133.4"/>
<polygon fill="red" stroke="red" stroke-width="0.17" points="202.66,-131.09 194.36,-124.5 196.74,-134.82 202.66,-131.09"/>
</g>
<!-- &#45;20 -->
<g id="node20" class="node">
<title>&#45;20</title>
<polygon fill="lightgray" stroke="black" points="1022,-274.49 990,-274.49 990,-256.49 1022,-256.49 1022,-274.49"/>
<text text-anchor="middle" x="1006" y="-263.29" font-family="Times,serif" font-size="9.00">&#45;20</text>
</g>
<!-- 1&#45;&gt;1 -->
<g id="edge7" class="edge">
<title>1&#45;&gt;1</title>
<path fill="none" stroke="red" stroke-width="0.31" d="M197.23,-122.17C208.21,-128.75 220.26,-124.78 220.26,-110.25 220.26,-100.03 214.3,-95.03 206.95,-95.25"/>
<polygon fill="red" stroke="red" stroke-width="0.31" points="205.71,-91.97 197.23,-98.33 207.82,-98.65 205.71,-91.97"/>
</g>
<!-- 1&#45;&gt;3082 -->
<g id="edge17" class="edge">
<title>1&#45;&gt;3082</title>
<path fill="none" stroke="red" stroke-width="0.14" d="M177.08,-96.16C170.72,-86.82 161.87,-73.84 153.7,-61.85"/>
<polygon fill="red" stroke="red" stroke-width="0.14" points="156.44,-59.65 147.92,-53.36 150.66,-63.59 156.44,-59.65"/>
</g>
<!-- 3181&#45;&gt;1 -->
<g id="edge15" class="edge">
<title>3181&#45;&gt;1</title>
<path fill="none" stroke="red" stroke-width="0.12" stroke-dasharray="1,5" d="M95.81,-173.5C100.79,-169.84 106.06,-166.02 111,-162.51 128.79,-149.89 149.24,-135.94 164.3,-125.79"/>
<polygon fill="red" stroke="red" stroke-width="0.12" points="166.55,-128.48 172.9,-120 162.65,-122.68 166.55,-128.48"/>
</g>
<!-- 4273&#45;&gt;0 -->
<g id="edge20" class="edge">
<title>4273&#45;&gt;0</title>
<path fill="none" stroke="red" stroke-width="0.31" d="M571.32,-174.46C550.27,-160.2 519.75,-139.53 499.41,-125.75"/>
<polygon fill="red" stroke="red" stroke-width="0.31" points="501.35,-122.84 491.11,-120.13 497.43,-128.63 501.35,-122.84"/>
</g>
</g>
</svg>
