<?xml version="1.0" encoding="UTF-8" standalone="no"?>
<!DOCTYPE svg PUBLIC "-//W3C//DTD SVG 1.1//EN"
 "http://www.w3.org/Graphics/SVG/1.1/DTD/svg11.dtd">
<!-- Generated by graphviz version 2.43.0 (0)
 -->
<!-- Title: %3 Pages: 1 -->
<svg width="439pt" height="189pt"
 viewBox="0.00 0.00 439.00 188.51" xmlns="http://www.w3.org/2000/svg" xmlns:xlink="http://www.w3.org/1999/xlink">
<g id="graph0" class="graph" transform="scale(1 1) rotate(0) translate(4 184.51)">
<title>%3</title>
<polygon fill="white" stroke="transparent" points="-4,4 -4,-184.51 435,-184.51 435,4 -4,4"/>
<!-- &#45;1 -->
<g id="node1" class="node">
<title>&#45;1</title>
<polygon fill="lightgray" stroke="black" points="26,-180.51 0,-180.51 0,-162.51 26,-162.51 26,-180.51"/>
<text text-anchor="middle" x="13" y="-169.31" font-family="Times,serif" font-size="9.00">&#45;1</text>
</g>
<!-- &#45;2 -->
<g id="node2" class="node">
<title>&#45;2</title>
<polygon fill="lightgray" stroke="black" points="114,-180.51 88,-180.51 88,-162.51 114,-162.51 114,-180.51"/>
<text text-anchor="middle" x="101" y="-169.31" font-family="Times,serif" font-size="9.00">&#45;2</text>
</g>
<!-- 1 -->
<g id="node14" class="node">
<title>1</title>
<ellipse fill="lightblue" stroke="black" cx="101" cy="-97.52" rx="16.03" ry="16.03"/>
<text text-anchor="middle" x="101" y="-95.32" font-family="Times,serif" font-size="9.00">1</text>
</g>
<!-- &#45;2&#45;&gt;1 -->
<g id="edge3" class="edge">
<title>&#45;2&#45;&gt;1</title>
<path fill="none" stroke="green" stroke-width="0.15" d="M101,-162.25C101,-152.98 101,-137.49 101,-124.1"/>
<polygon fill="green" stroke="green" stroke-width="0.15" points="104.5,-123.98 101,-113.98 97.5,-123.98 104.5,-123.98"/>
</g>
<!-- &#45;3 -->
<g id="node3" class="node">
<title>&#45;3</title>
<polygon fill="lightgray" stroke="black" points="161,-106.52 135,-106.52 135,-88.52 161,-88.52 161,-106.52"/>
<text text-anchor="middle" x="148" y="-95.32" font-family="Times,serif" font-size="9.00">&#45;3</text>
</g>
<!-- 0 -->
<g id="node13" class="node">
<title>0</title>
<ellipse fill="lightblue" stroke="black" cx="214" cy="-16.26" rx="16.03" ry="16.03"/>
<text text-anchor="middle" x="214" y="-14.06" font-family="Times,serif" font-size="9.00">0</text>
</g>
<!-- &#45;3&#45;&gt;0 -->
<g id="edge12" class="edge">
<title>&#45;3&#45;&gt;0</title>
<path fill="none" stroke="red" stroke-width="0.2" d="M154.45,-88.11C158.79,-82.52 164.66,-75.02 170,-68.53 178.75,-57.87 188.75,-46.19 196.99,-36.68"/>
<polygon fill="red" stroke="red" stroke-width="0.2" points="199.79,-38.79 203.72,-28.95 194.51,-34.2 199.79,-38.79"/>
</g>
<!-- &#45;4 -->
<g id="node4" class="node">
<title>&#45;4</title>
<polygon fill="lightgray" stroke="black" points="70,-180.51 44,-180.51 44,-162.51 70,-162.51 70,-180.51"/>
<text text-anchor="middle" x="57" y="-169.31" font-family="Times,serif" font-size="9.00">&#45;4</text>
</g>
<!-- &#45;4&#45;&gt;0 -->
<g id="edge1" class="edge">
<title>&#45;4&#45;&gt;0</title>
<path fill="none" stroke="red" stroke-width="0.79" d="M56.03,-162.25C54.27,-143.3 52.69,-96.22 76,-68.53 103.97,-35.29 155.63,-23.59 187.19,-19.48"/>
<polygon fill="red" stroke="red" stroke-width="0.79" points="187.9,-22.92 197.45,-18.32 187.12,-15.97 187.9,-22.92"/>
</g>
<!-- &#45;4&#45;&gt;1 -->
<g id="edge5" class="edge">
<title>&#45;4&#45;&gt;1</title>
<path fill="none" stroke="red" stroke-width="0.4" stroke-dasharray="1,5" d="M62.05,-162.25C68.23,-152.13 78.95,-134.59 87.58,-120.47"/>
<polygon fill="red" stroke="red" stroke-width="0.4" points="90.65,-122.16 92.88,-111.8 84.68,-118.51 90.65,-122.16"/>
</g>
<!-- &#45;5 -->
<g id="node5" class="node">
<title>&#45;5</title>
<polygon fill="lightgray" stroke="black" points="337,-180.51 311,-180.51 311,-162.51 337,-162.51 337,-180.51"/>
<text text-anchor="middle" x="324" y="-169.31" font-family="Times,serif" font-size="9.00">&#45;5</text>
</g>
<!-- &#45;6 -->
<g id="node6" class="node">
<title>&#45;6</title>
<polygon fill="lightgray" stroke="black" points="381,-180.51 355,-180.51 355,-162.51 381,-162.51 381,-180.51"/>
<text text-anchor="middle" x="368" y="-169.31" font-family="Times,serif" font-size="9.00">&#45;6</text>
</g>
<!-- &#45;7 -->
<g id="node7" class="node">
<title>&#45;7</title>
<polygon fill="lightgray" stroke="black" points="205,-106.52 179,-106.52 179,-88.52 205,-88.52 205,-106.52"/>
<text text-anchor="middle" x="192" y="-95.32" font-family="Times,serif" font-size="9.00">&#45;7</text>
</g>
<!-- &#45;7&#45;&gt;0 -->
<g id="edge9" class="edge">
<title>&#45;7&#45;&gt;0</title>
<path fill="none" stroke="green" stroke-width="0.69" d="M194.27,-88.34C197.28,-77.5 202.72,-57.91 207.12,-42.04"/>
<polygon fill="green" stroke="green" stroke-width="0.69" points="210.53,-42.84 209.83,-32.27 203.79,-40.97 210.53,-42.84"/>
</g>
<!-- &#45;8 -->
<g id="node8" class="node">
<title>&#45;8</title>
<polygon fill="lightgray" stroke="black" points="158,-180.51 132,-180.51 132,-162.51 158,-162.51 158,-180.51"/>
<text text-anchor="middle" x="145" y="-169.31" font-family="Times,serif" font-size="9.00">&#45;8</text>
</g>
<!-- &#45;8&#45;&gt;1 -->
<g id="edge8" class="edge">
<title>&#45;8&#45;&gt;1</title>
<path fill="none" stroke="red" stroke-width="0.29" d="M139.95,-162.25C133.77,-152.13 123.05,-134.59 114.42,-120.47"/>
<polygon fill="red" stroke="red" stroke-width="0.29" points="117.32,-118.51 109.12,-111.8 111.35,-122.16 117.32,-118.51"/>
</g>
<!-- &#45;9 -->
<g id="node9" class="node">
<title>&#45;9</title>
<polygon fill="lightgray" stroke="black" points="249,-106.52 223,-106.52 223,-88.52 249,-88.52 249,-106.52"/>
<text text-anchor="middle" x="236" y="-95.32" font-family="Times,serif" font-size="9.00">&#45;9</text>
</g>
<!-- &#45;9&#45;&gt;0 -->
<g id="edge6" class="edge">
<title>&#45;9&#45;&gt;0</title>
<path fill="none" stroke="green" stroke-width="0.13" d="M233.73,-88.34C230.72,-77.5 225.28,-57.91 220.88,-42.04"/>
<polygon fill="green" stroke="green" stroke-width="0.13" points="224.21,-40.97 218.17,-32.27 217.47,-42.84 224.21,-40.97"/>
</g>
<!-- &#45;10 -->
<g id="node10" class="node">
<title>&#45;10</title>
<polygon fill="lightgray" stroke="black" points="208,-180.51 176,-180.51 176,-162.51 208,-162.51 208,-180.51"/>
<text text-anchor="middle" x="192" y="-169.31" font-family="Times,serif" font-size="9.00">&#45;10</text>
</g>
<!-- &#45;10&#45;&gt;1 -->
<g id="edge4" class="edge">
<title>&#45;10&#45;&gt;1</title>
<path fill="none" stroke="red" stroke-width="0.38" d="M177.61,-162.37C163.72,-154.19 142.43,-140.77 126,-126.51 123.12,-124.01 120.26,-121.2 117.55,-118.34"/>
<polygon fill="red" stroke="red" stroke-width="0.38" points="120.12,-115.97 110.84,-110.86 114.91,-120.64 120.12,-115.97"/>
</g>
<!-- &#45;11 -->
<g id="node11" class="node">
<title>&#45;11</title>
<polygon fill="lightgray" stroke="black" points="293,-180.51 261,-180.51 261,-162.51 293,-162.51 293,-180.51"/>
<text text-anchor="middle" x="277" y="-169.31" font-family="Times,serif" font-size="9.00">&#45;11</text>
</g>
<!-- &#45;11&#45;&gt;0 -->
<g id="edge7" class="edge">
<title>&#45;11&#45;&gt;0</title>
<path fill="none" stroke="red" stroke-width="0.34" stroke-dasharray="1,5" d="M276.9,-162.4C276.38,-144.54 273.48,-100.85 258,-68.53 251.98,-55.97 242.08,-44.03 233.19,-34.84"/>
<polygon fill="red" stroke="red" stroke-width="0.34" points="235.65,-32.34 226.07,-27.81 230.73,-37.33 235.65,-32.34"/>
</g>
<!-- &#45;11&#45;&gt;1 -->
<g id="edge2" class="edge">
<title>&#45;11&#45;&gt;1</title>
<path fill="none" stroke="green" stroke-width="0.43" stroke-dasharray="1,5" d="M260.82,-168.76C231.8,-165.02 169.88,-154.18 126,-126.51 122.72,-124.44 119.62,-121.82 116.78,-119.02"/>
<polygon fill="green" stroke="green" stroke-width="0.43" points="119.25,-116.54 109.97,-111.43 114.04,-121.21 119.25,-116.54"/>
</g>
<!-- 6530 -->
<g id="node15" class="node">
<title>6530</title>
<ellipse fill="white" stroke="black" cx="334" cy="-97.52" rx="28.98" ry="28.98"/>
<text text-anchor="middle" x="334" y="-95.32" font-family="Times,serif" font-size="9.00">6530</text>
</g>
<!-- &#45;11&#45;&gt;6530 -->
<g id="edge10" class="edge">
<title>&#45;11&#45;&gt;6530</title>
<path fill="none" stroke="green" stroke-width="0.36" d="M283.54,-162.25C290.06,-154.01 300.48,-140.85 310.17,-128.62"/>
<polygon fill="green" stroke="green" stroke-width="0.36" points="312.91,-130.79 316.37,-120.78 307.42,-126.45 312.91,-130.79"/>
</g>
<!-- &#45;12 -->
<g id="node12" class="node">
<title>&#45;12</title>
<polygon fill="lightgray" stroke="black" points="431,-180.51 399,-180.51 399,-162.51 431,-162.51 431,-180.51"/>
<text text-anchor="middle" x="415" y="-169.31" font-family="Times,serif" font-size="9.00">&#45;12</text>
</g>
<!-- 6530&#45;&gt;0 -->
<g id="edge11" class="edge">
<title>6530&#45;&gt;0</title>
<path fill="none" stroke="green" stroke-width="0.27" d="M310,-80.67C288.32,-66.35 256.67,-45.45 235.72,-31.61"/>
<polygon fill="green" stroke="green" stroke-width="0.27" points="237.46,-28.56 227.19,-25.97 233.6,-34.4 237.46,-28.56"/>
</g>
</g>
</svg>
