<?xml version="1.0" encoding="UTF-8" standalone="no"?>
<!DOCTYPE svg PUBLIC "-//W3C//DTD SVG 1.1//EN"
 "http://www.w3.org/Graphics/SVG/1.1/DTD/svg11.dtd">
<!-- Generated by graphviz version 2.43.0 (0)
 -->
<!-- Title: %3 Pages: 1 -->
<svg width="370pt" height="180pt"
 viewBox="0.00 0.00 370.00 180.02" xmlns="http://www.w3.org/2000/svg" xmlns:xlink="http://www.w3.org/1999/xlink">
<g id="graph0" class="graph" transform="scale(1 1) rotate(0) translate(4 176.02)">
<title>%3</title>
<polygon fill="white" stroke="transparent" points="-4,4 -4,-176.02 366,-176.02 366,4 -4,4"/>
<!-- &#45;1 -->
<g id="node1" class="node">
<title>&#45;1</title>
<polygon fill="lightgray" stroke="black" points="82,-172.02 56,-172.02 56,-154.02 82,-154.02 82,-172.02"/>
<text text-anchor="middle" x="69" y="-160.82" font-family="Times,serif" font-size="9.00">&#45;1</text>
</g>
<!-- &#45;2 -->
<g id="node2" class="node">
<title>&#45;2</title>
<polygon fill="lightgray" stroke="black" points="174,-172.02 148,-172.02 148,-154.02 174,-154.02 174,-172.02"/>
<text text-anchor="middle" x="161" y="-160.82" font-family="Times,serif" font-size="9.00">&#45;2</text>
</g>
<!-- 1 -->
<g id="node14" class="node">
<title>1</title>
<ellipse fill="lightblue" stroke="black" cx="140" cy="-16.26" rx="16.03" ry="16.03"/>
<text text-anchor="middle" x="140" y="-14.06" font-family="Times,serif" font-size="9.00">1</text>
</g>
<!-- &#45;2&#45;&gt;1 -->
<g id="edge7" class="edge">
<title>&#45;2&#45;&gt;1</title>
<path fill="none" stroke="red" stroke-width="0.16" d="M159.81,-153.83C156.75,-132.76 148.53,-76.06 143.69,-42.72"/>
<polygon fill="red" stroke="red" stroke-width="0.16" points="147.09,-41.78 142.19,-32.39 140.17,-42.79 147.09,-41.78"/>
</g>
<!-- 187 -->
<g id="node15" class="node">
<title>187</title>
<ellipse fill="white" stroke="black" cx="113" cy="-93.28" rx="25" ry="25"/>
<text text-anchor="middle" x="113" y="-91.08" font-family="Times,serif" font-size="9.00">187</text>
</g>
<!-- &#45;2&#45;&gt;187 -->
<g id="edge10" class="edge">
<title>&#45;2&#45;&gt;187</title>
<path fill="none" stroke="red" stroke-width="0.43" d="M155.31,-153.99C149.76,-146.17 141.02,-133.82 132.91,-122.38"/>
<polygon fill="red" stroke="red" stroke-width="0.43" points="135.54,-120.04 126.9,-113.9 129.83,-124.08 135.54,-120.04"/>
</g>
<!-- &#45;3 -->
<g id="node3" class="node">
<title>&#45;3</title>
<polygon fill="lightgray" stroke="black" points="26,-102.28 0,-102.28 0,-84.28 26,-84.28 26,-102.28"/>
<text text-anchor="middle" x="13" y="-91.08" font-family="Times,serif" font-size="9.00">&#45;3</text>
</g>
<!-- &#45;3&#45;&gt;1 -->
<g id="edge5" class="edge">
<title>&#45;3&#45;&gt;1</title>
<path fill="none" stroke="green" stroke-width="0.31" stroke-dasharray="1,5" d="M19.29,-84.07C23.38,-79.13 29.04,-72.95 35,-68.53 60.14,-49.85 93.13,-35.06 115.38,-26.26"/>
<polygon fill="green" stroke="green" stroke-width="0.31" points="116.69,-29.5 124.77,-22.64 114.18,-22.97 116.69,-29.5"/>
</g>
<!-- &#45;4 -->
<g id="node4" class="node">
<title>&#45;4</title>
<polygon fill="lightgray" stroke="black" points="264,-102.28 238,-102.28 238,-84.28 264,-84.28 264,-102.28"/>
<text text-anchor="middle" x="251" y="-91.08" font-family="Times,serif" font-size="9.00">&#45;4</text>
</g>
<!-- 0 -->
<g id="node13" class="node">
<title>0</title>
<ellipse fill="lightblue" stroke="black" cx="251" cy="-16.26" rx="16.03" ry="16.03"/>
<text text-anchor="middle" x="251" y="-14.06" font-family="Times,serif" font-size="9.00">0</text>
</g>
<!-- &#45;4&#45;&gt;0 -->
<g id="edge4" class="edge">
<title>&#45;4&#45;&gt;0</title>
<path fill="none" stroke="red" stroke-width="0.88" d="M251,-84.25C251,-74.49 251,-57.54 251,-43.13"/>
<polygon fill="red" stroke="red" stroke-width="0.88" points="254.5,-42.77 251,-32.77 247.5,-42.77 254.5,-42.77"/>
</g>
<!-- &#45;4&#45;&gt;1 -->
<g id="edge1" class="edge">
<title>&#45;4&#45;&gt;1</title>
<path fill="none" stroke="green" stroke-width="0.15" d="M244.6,-84.21C240.47,-79.32 234.8,-73.15 229,-68.53 208.46,-52.15 182.09,-37.65 163.4,-28.28"/>
<polygon fill="green" stroke="green" stroke-width="0.15" points="164.91,-25.13 154.39,-23.87 161.83,-31.41 164.91,-25.13"/>
</g>
<!-- &#45;5 -->
<g id="node5" class="node">
<title>&#45;5</title>
<polygon fill="lightgray" stroke="black" points="70,-102.28 44,-102.28 44,-84.28 70,-84.28 70,-102.28"/>
<text text-anchor="middle" x="57" y="-91.08" font-family="Times,serif" font-size="9.00">&#45;5</text>
</g>
<!-- &#45;5&#45;&gt;1 -->
<g id="edge3" class="edge">
<title>&#45;5&#45;&gt;1</title>
<path fill="none" stroke="green" stroke-width="0.2" stroke-dasharray="1,5" d="M64.09,-84.12C68.29,-79.43 73.79,-73.49 79,-68.53 91.89,-56.24 107.25,-43.35 119.33,-33.56"/>
<polygon fill="green" stroke="green" stroke-width="0.2" points="121.85,-36.03 127.46,-27.04 117.47,-30.57 121.85,-36.03"/>
</g>
<!-- &#45;6 -->
<g id="node6" class="node">
<title>&#45;6</title>
<polygon fill="lightgray" stroke="black" points="218,-172.02 192,-172.02 192,-154.02 218,-154.02 218,-172.02"/>
<text text-anchor="middle" x="205" y="-160.82" font-family="Times,serif" font-size="9.00">&#45;6</text>
</g>
<!-- &#45;7 -->
<g id="node7" class="node">
<title>&#45;7</title>
<polygon fill="lightgray" stroke="black" points="126,-172.02 100,-172.02 100,-154.02 126,-154.02 126,-172.02"/>
<text text-anchor="middle" x="113" y="-160.82" font-family="Times,serif" font-size="9.00">&#45;7</text>
</g>
<!-- &#45;7&#45;&gt;187 -->
<g id="edge12" class="edge">
<title>&#45;7&#45;&gt;187</title>
<path fill="none" stroke="green" stroke-width="0.28" d="M113,-153.99C113,-147.55 113,-138.05 113,-128.52"/>
<polygon fill="green" stroke="green" stroke-width="0.28" points="116.5,-128.3 113,-118.3 109.5,-128.3 116.5,-128.3"/>
</g>
<!-- &#45;8 -->
<g id="node8" class="node">
<title>&#45;8</title>
<polygon fill="lightgray" stroke="black" points="220,-102.28 194,-102.28 194,-84.28 220,-84.28 220,-102.28"/>
<text text-anchor="middle" x="207" y="-91.08" font-family="Times,serif" font-size="9.00">&#45;8</text>
</g>
<!-- &#45;8&#45;&gt;0 -->
<g id="edge9" class="edge">
<title>&#45;8&#45;&gt;0</title>
<path fill="none" stroke="green" stroke-width="0.29" d="M211.71,-84.25C217.91,-73.67 229.08,-54.64 237.92,-39.56"/>
<polygon fill="green" stroke="green" stroke-width="0.29" points="241.03,-41.18 243.07,-30.79 234.99,-37.64 241.03,-41.18"/>
</g>
<!-- &#45;8&#45;&gt;1 -->
<g id="edge6" class="edge">
<title>&#45;8&#45;&gt;1</title>
<path fill="none" stroke="green" stroke-width="0.2" stroke-dasharray="1,5" d="M199.83,-84.25C189.71,-72.92 170.93,-51.9 157.1,-36.41"/>
<polygon fill="green" stroke="green" stroke-width="0.2" points="159.67,-34.03 150.4,-28.9 154.45,-38.69 159.67,-34.03"/>
</g>
<!-- &#45;9 -->
<g id="node9" class="node">
<title>&#45;9</title>
<polygon fill="lightgray" stroke="black" points="262,-172.02 236,-172.02 236,-154.02 262,-154.02 262,-172.02"/>
<text text-anchor="middle" x="249" y="-160.82" font-family="Times,serif" font-size="9.00">&#45;9</text>
</g>
<!-- &#45;10 -->
<g id="node10" class="node">
<title>&#45;10</title>
<polygon fill="lightgray" stroke="black" points="312,-172.02 280,-172.02 280,-154.02 312,-154.02 312,-172.02"/>
<text text-anchor="middle" x="296" y="-160.82" font-family="Times,serif" font-size="9.00">&#45;10</text>
</g>
<!-- &#45;11 -->
<g id="node11" class="node">
<title>&#45;11</title>
<polygon fill="lightgray" stroke="black" points="362,-172.02 330,-172.02 330,-154.02 362,-154.02 362,-172.02"/>
<text text-anchor="middle" x="346" y="-160.82" font-family="Times,serif" font-size="9.00">&#45;11</text>
</g>
<!-- &#45;12 -->
<g id="node12" class="node">
<title>&#45;12</title>
<polygon fill="lightgray" stroke="black" points="314,-102.28 282,-102.28 282,-84.28 314,-84.28 314,-102.28"/>
<text text-anchor="middle" x="298" y="-91.08" font-family="Times,serif" font-size="9.00">&#45;12</text>
</g>
<!-- &#45;12&#45;&gt;0 -->
<g id="edge2" class="edge">
<title>&#45;12&#45;&gt;0</title>
<path fill="none" stroke="red" stroke-width="0.26" d="M292.97,-84.25C286.3,-73.61 274.28,-54.41 264.8,-39.29"/>
<polygon fill="red" stroke="red" stroke-width="0.26" points="267.58,-37.13 259.3,-30.51 261.64,-40.84 267.58,-37.13"/>
</g>
<!-- 1&#45;&gt;1 -->
<g id="edge8" class="edge">
<title>1&#45;&gt;1</title>
<path fill="none" stroke="red" stroke-width="0.11" d="M151.58,-27.79C162.46,-33.76 174.26,-29.92 174.26,-16.26 174.26,-6.87 168.69,-2.13 161.67,-2.02"/>
<polygon fill="red" stroke="red" stroke-width="0.11" points="160.32,1.25 151.58,-4.74 162.15,-5.51 160.32,1.25"/>
</g>
<!-- 187&#45;&gt;1 -->
<g id="edge11" class="edge">
<title>187&#45;&gt;1</title>
<path fill="none" stroke="green" stroke-width="1.48" d="M121.1,-69.77C124.31,-60.86 128,-50.61 131.26,-41.54"/>
<polygon fill="green" stroke="green" stroke-width="1.48" points="134.63,-42.53 134.72,-31.94 128.04,-40.16 134.63,-42.53"/>
</g>
</g>
</svg>
