<?xml version="1.0" encoding="UTF-8" standalone="no"?>
<!DOCTYPE svg PUBLIC "-//W3C//DTD SVG 1.1//EN"
 "http://www.w3.org/Graphics/SVG/1.1/DTD/svg11.dtd">
<!-- Generated by graphviz version 2.43.0 (0)
 -->
<!-- Title: %3 Pages: 1 -->
<svg width="536pt" height="95pt"
 viewBox="0.00 0.00 536.00 94.53" xmlns="http://www.w3.org/2000/svg" xmlns:xlink="http://www.w3.org/1999/xlink">
<g id="graph0" class="graph" transform="scale(1 1) rotate(0) translate(4 90.53)">
<title>%3</title>
<polygon fill="white" stroke="transparent" points="-4,4 -4,-90.53 532,-90.53 532,4 -4,4"/>
<!-- &#45;1 -->
<g id="node1" class="node">
<title>&#45;1</title>
<polygon fill="lightgray" stroke="black" points="170,-86.53 144,-86.53 144,-68.53 170,-68.53 170,-86.53"/>
<text text-anchor="middle" x="157" y="-75.33" font-family="Times,serif" font-size="9.00">&#45;1</text>
</g>
<!-- 0 -->
<g id="node13" class="node">
<title>0</title>
<ellipse fill="lightblue" stroke="black" cx="179" cy="-16.26" rx="16.03" ry="16.03"/>
<text text-anchor="middle" x="179" y="-14.06" font-family="Times,serif" font-size="9.00">0</text>
</g>
<!-- &#45;1&#45;&gt;0 -->
<g id="edge5" class="edge">
<title>&#45;1&#45;&gt;0</title>
<path fill="none" stroke="red" stroke-width="0.3" d="M160.06,-68.29C162.65,-61.3 166.51,-50.91 170.06,-41.33"/>
<polygon fill="red" stroke="red" stroke-width="0.3" points="173.4,-42.41 173.6,-31.82 166.84,-39.97 173.4,-42.41"/>
</g>
<!-- &#45;2 -->
<g id="node2" class="node">
<title>&#45;2</title>
<polygon fill="lightgray" stroke="black" points="258,-86.53 232,-86.53 232,-68.53 258,-68.53 258,-86.53"/>
<text text-anchor="middle" x="245" y="-75.33" font-family="Times,serif" font-size="9.00">&#45;2</text>
</g>
<!-- &#45;2&#45;&gt;0 -->
<g id="edge7" class="edge">
<title>&#45;2&#45;&gt;0</title>
<path fill="none" stroke="red" stroke-width="0.68" d="M235.82,-68.29C226.18,-59.62 210.71,-45.74 198.35,-34.64"/>
<polygon fill="red" stroke="red" stroke-width="0.68" points="200.55,-31.91 190.77,-27.83 195.87,-37.12 200.55,-31.91"/>
</g>
<!-- 1 -->
<g id="node14" class="node">
<title>1</title>
<ellipse fill="lightblue" stroke="black" cx="312" cy="-16.26" rx="16.03" ry="16.03"/>
<text text-anchor="middle" x="312" y="-14.06" font-family="Times,serif" font-size="9.00">1</text>
</g>
<!-- &#45;2&#45;&gt;1 -->
<g id="edge9" class="edge">
<title>&#45;2&#45;&gt;1</title>
<path fill="none" stroke="red" stroke-width="0.15" d="M254.32,-68.29C264.11,-59.62 279.8,-45.74 292.35,-34.64"/>
<polygon fill="red" stroke="red" stroke-width="0.15" points="294.88,-37.08 300.05,-27.83 290.24,-31.84 294.88,-37.08"/>
</g>
<!-- &#45;3 -->
<g id="node3" class="node">
<title>&#45;3</title>
<polygon fill="lightgray" stroke="black" points="302,-86.53 276,-86.53 276,-68.53 302,-68.53 302,-86.53"/>
<text text-anchor="middle" x="289" y="-75.33" font-family="Times,serif" font-size="9.00">&#45;3</text>
</g>
<!-- &#45;3&#45;&gt;0 -->
<g id="edge2" class="edge">
<title>&#45;3&#45;&gt;0</title>
<path fill="none" stroke="green" stroke-width="0.41" stroke-dasharray="1,5" d="M275.95,-69.5C257.72,-59.68 224.37,-41.71 201.94,-29.62"/>
<polygon fill="green" stroke="green" stroke-width="0.41" points="203.54,-26.51 193.07,-24.85 200.22,-32.67 203.54,-26.51"/>
</g>
<!-- &#45;3&#45;&gt;1 -->
<g id="edge10" class="edge">
<title>&#45;3&#45;&gt;1</title>
<path fill="none" stroke="red" stroke-width="0.29" d="M292.2,-68.29C294.91,-61.3 298.94,-50.91 302.66,-41.33"/>
<polygon fill="red" stroke="red" stroke-width="0.29" points="306,-42.41 306.35,-31.82 299.47,-39.87 306,-42.41"/>
</g>
<!-- &#45;4 -->
<g id="node4" class="node">
<title>&#45;4</title>
<polygon fill="lightgray" stroke="black" points="214,-86.53 188,-86.53 188,-68.53 214,-68.53 214,-86.53"/>
<text text-anchor="middle" x="201" y="-75.33" font-family="Times,serif" font-size="9.00">&#45;4</text>
</g>
<!-- &#45;4&#45;&gt;0 -->
<g id="edge3" class="edge">
<title>&#45;4&#45;&gt;0</title>
<path fill="none" stroke="green" stroke-width="0.35" stroke-dasharray="1,5" d="M197.94,-68.29C195.35,-61.3 191.49,-50.91 187.94,-41.33"/>
<polygon fill="green" stroke="green" stroke-width="0.35" points="191.16,-39.97 184.4,-31.82 184.6,-42.41 191.16,-39.97"/>
</g>
<!-- &#45;5 -->
<g id="node5" class="node">
<title>&#45;5</title>
<polygon fill="lightgray" stroke="black" points="26,-86.53 0,-86.53 0,-68.53 26,-68.53 26,-86.53"/>
<text text-anchor="middle" x="13" y="-75.33" font-family="Times,serif" font-size="9.00">&#45;5</text>
</g>
<!-- &#45;5&#45;&gt;0 -->
<g id="edge13" class="edge">
<title>&#45;5&#45;&gt;0</title>
<path fill="none" stroke="green" stroke-width="0.71" d="M26.02,-71.77C28.97,-70.7 32.09,-69.57 35,-68.53 76.81,-53.48 125.53,-36.19 154.23,-26.02"/>
<polygon fill="green" stroke="green" stroke-width="0.71" points="155.59,-29.25 163.85,-22.62 153.26,-22.66 155.59,-29.25"/>
</g>
<!-- &#45;6 -->
<g id="node6" class="node">
<title>&#45;6</title>
<polygon fill="lightgray" stroke="black" points="440,-86.53 414,-86.53 414,-68.53 440,-68.53 440,-86.53"/>
<text text-anchor="middle" x="427" y="-75.33" font-family="Times,serif" font-size="9.00">&#45;6</text>
</g>
<!-- &#45;7 -->
<g id="node7" class="node">
<title>&#45;7</title>
<polygon fill="lightgray" stroke="black" points="396,-86.53 370,-86.53 370,-68.53 396,-68.53 396,-86.53"/>
<text text-anchor="middle" x="383" y="-75.33" font-family="Times,serif" font-size="9.00">&#45;7</text>
</g>
<!-- &#45;7&#45;&gt;1 -->
<g id="edge4" class="edge">
<title>&#45;7&#45;&gt;1</title>
<path fill="none" stroke="red" stroke-width="0.28" d="M373.13,-68.29C362.53,-59.44 345.39,-45.14 331.96,-33.92"/>
<polygon fill="red" stroke="red" stroke-width="0.28" points="334.08,-31.14 324.16,-27.42 329.6,-36.51 334.08,-31.14"/>
</g>
<!-- &#45;8 -->
<g id="node8" class="node">
<title>&#45;8</title>
<polygon fill="lightgray" stroke="black" points="484,-86.53 458,-86.53 458,-68.53 484,-68.53 484,-86.53"/>
<text text-anchor="middle" x="471" y="-75.33" font-family="Times,serif" font-size="9.00">&#45;8</text>
</g>
<!-- &#45;9 -->
<g id="node9" class="node">
<title>&#45;9</title>
<polygon fill="lightgray" stroke="black" points="528,-86.53 502,-86.53 502,-68.53 528,-68.53 528,-86.53"/>
<text text-anchor="middle" x="515" y="-75.33" font-family="Times,serif" font-size="9.00">&#45;9</text>
</g>
<!-- &#45;10 -->
<g id="node10" class="node">
<title>&#45;10</title>
<polygon fill="lightgray" stroke="black" points="76,-86.53 44,-86.53 44,-68.53 76,-68.53 76,-86.53"/>
<text text-anchor="middle" x="60" y="-75.33" font-family="Times,serif" font-size="9.00">&#45;10</text>
</g>
<!-- &#45;10&#45;&gt;0 -->
<g id="edge8" class="edge">
<title>&#45;10&#45;&gt;0</title>
<path fill="none" stroke="green" stroke-width="0.32" stroke-dasharray="1,5" d="M76.05,-68.53C96.48,-58.36 131.93,-40.7 155.43,-29"/>
<polygon fill="green" stroke="green" stroke-width="0.32" points="157.3,-31.98 164.69,-24.39 154.18,-25.71 157.3,-31.98"/>
</g>
<!-- &#45;11 -->
<g id="node11" class="node">
<title>&#45;11</title>
<polygon fill="lightgray" stroke="black" points="352,-86.53 320,-86.53 320,-68.53 352,-68.53 352,-86.53"/>
<text text-anchor="middle" x="336" y="-75.33" font-family="Times,serif" font-size="9.00">&#45;11</text>
</g>
<!-- &#45;11&#45;&gt;0 -->
<g id="edge6" class="edge">
<title>&#45;11&#45;&gt;0</title>
<path fill="none" stroke="green" stroke-width="0.29" d="M319.79,-70.41C292.22,-60 236.04,-38.79 203.6,-26.55"/>
<polygon fill="green" stroke="green" stroke-width="0.29" points="204.56,-23.17 193.97,-22.91 202.09,-29.72 204.56,-23.17"/>
</g>
<!-- &#45;11&#45;&gt;1 -->
<g id="edge11" class="edge">
<title>&#45;11&#45;&gt;1</title>
<path fill="none" stroke="green" stroke-width="0.68" d="M332.66,-68.29C329.83,-61.3 325.63,-50.91 321.75,-41.33"/>
<polygon fill="green" stroke="green" stroke-width="0.68" points="324.89,-39.77 317.89,-31.82 318.4,-42.4 324.89,-39.77"/>
</g>
<!-- &#45;12 -->
<g id="node12" class="node">
<title>&#45;12</title>
<polygon fill="lightgray" stroke="black" points="126,-86.53 94,-86.53 94,-68.53 126,-68.53 126,-86.53"/>
<text text-anchor="middle" x="110" y="-75.33" font-family="Times,serif" font-size="9.00">&#45;12</text>
</g>
<!-- &#45;12&#45;&gt;0 -->
<g id="edge12" class="edge">
<title>&#45;12&#45;&gt;0</title>
<path fill="none" stroke="red" stroke-width="1.13" stroke-dasharray="1,5" d="M119.59,-68.29C129.68,-59.62 145.84,-45.74 158.77,-34.64"/>
<polygon fill="red" stroke="red" stroke-width="1.13" points="161.39,-37 166.69,-27.83 156.83,-31.69 161.39,-37"/>
</g>
<!-- 1&#45;&gt;1 -->
<g id="edge1" class="edge">
<title>1&#45;&gt;1</title>
<path fill="none" stroke="green" stroke-width="0.4" stroke-dasharray="1,5" d="M325.36,-26.06C335.71,-29.72 346.26,-26.46 346.26,-16.26 346.26,-9.57 341.72,-5.87 335.67,-5.14"/>
<polygon fill="green" stroke="green" stroke-width="0.4" points="334.84,-1.72 325.36,-6.47 335.73,-8.67 334.84,-1.72"/>
</g>
</g>
</svg>
