<?xml version="1.0" encoding="UTF-8" standalone="no"?>
<!DOCTYPE svg PUBLIC "-//W3C//DTD SVG 1.1//EN"
 "http://www.w3.org/Graphics/SVG/1.1/DTD/svg11.dtd">
<!-- Generated by graphviz version 2.43.0 (0)
 -->
<!-- Title: %3 Pages: 1 -->
<svg width="820pt" height="189pt"
 viewBox="0.00 0.00 820.45 188.51" xmlns="http://www.w3.org/2000/svg" xmlns:xlink="http://www.w3.org/1999/xlink">
<g id="graph0" class="graph" transform="scale(1 1) rotate(0) translate(4 184.51)">
<title>%3</title>
<polygon fill="white" stroke="transparent" points="-4,4 -4,-184.51 816.45,-184.51 816.45,4 -4,4"/>
<!-- &#45;1 -->
<g id="node1" class="node">
<title>&#45;1</title>
<polygon fill="lightgray" stroke="black" points="120.66,-106.52 94.66,-106.52 94.66,-88.52 120.66,-88.52 120.66,-106.52"/>
<text text-anchor="middle" x="107.66" y="-95.32" font-family="Times,serif" font-size="9.00">&#45;1</text>
</g>
<!-- 0 -->
<g id="node21" class="node">
<title>0</title>
<ellipse fill="lightblue" stroke="black" cx="198.66" cy="-16.26" rx="16.03" ry="16.03"/>
<text text-anchor="middle" x="198.66" y="-14.06" font-family="Times,serif" font-size="9.00">0</text>
</g>
<!-- &#45;1&#45;&gt;0 -->
<g id="edge7" class="edge">
<title>&#45;1&#45;&gt;0</title>
<path fill="none" stroke="red" stroke-width="0.13" d="M113.12,-88.45C117.29,-82.59 123.37,-74.65 129.66,-68.53 144.05,-54.52 162.37,-41.08 176.51,-31.48"/>
<polygon fill="red" stroke="red" stroke-width="0.13" points="178.73,-34.2 185.12,-25.75 174.86,-28.37 178.73,-34.2"/>
</g>
<!-- &#45;2 -->
<g id="node2" class="node">
<title>&#45;2</title>
<polygon fill="lightgray" stroke="black" points="446.66,-106.52 420.66,-106.52 420.66,-88.52 446.66,-88.52 446.66,-106.52"/>
<text text-anchor="middle" x="433.66" y="-95.32" font-family="Times,serif" font-size="9.00">&#45;2</text>
</g>
<!-- 1 -->
<g id="node22" class="node">
<title>1</title>
<ellipse fill="lightblue" stroke="black" cx="574.66" cy="-16.26" rx="16.03" ry="16.03"/>
<text text-anchor="middle" x="574.66" y="-14.06" font-family="Times,serif" font-size="9.00">1</text>
</g>
<!-- &#45;2&#45;&gt;1 -->
<g id="edge18" class="edge">
<title>&#45;2&#45;&gt;1</title>
<path fill="none" stroke="red" stroke-width="0.27" d="M438.56,-88.25C442.52,-82.13 448.6,-73.95 455.66,-68.53 484.34,-46.47 523.95,-31.89 549.44,-24.1"/>
<polygon fill="red" stroke="red" stroke-width="0.27" points="550.5,-27.44 559.11,-21.27 548.53,-20.72 550.5,-27.44"/>
</g>
<!-- &#45;3 -->
<g id="node3" class="node">
<title>&#45;3</title>
<polygon fill="lightgray" stroke="black" points="358.66,-106.52 332.66,-106.52 332.66,-88.52 358.66,-88.52 358.66,-106.52"/>
<text text-anchor="middle" x="345.66" y="-95.32" font-family="Times,serif" font-size="9.00">&#45;3</text>
</g>
<!-- &#45;3&#45;&gt;0 -->
<g id="edge12" class="edge">
<title>&#45;3&#45;&gt;0</title>
<path fill="none" stroke="red" stroke-width="0.12" d="M340.79,-88.21C336.83,-82.08 330.76,-73.89 323.66,-68.53 293.26,-45.56 251.11,-31.1 224.36,-23.6"/>
<polygon fill="red" stroke="red" stroke-width="0.12" points="225.15,-20.19 214.59,-20.97 223.34,-26.95 225.15,-20.19"/>
</g>
<!-- &#45;3&#45;&gt;1 -->
<g id="edge15" class="edge">
<title>&#45;3&#45;&gt;1</title>
<path fill="none" stroke="red" stroke-width="0.11" d="M350,-88.43C353.82,-82.07 359.97,-73.49 367.66,-68.53 424.75,-31.63 506.42,-21.29 548.05,-18.39"/>
<polygon fill="red" stroke="red" stroke-width="0.11" points="548.43,-21.88 558.2,-17.78 548.01,-14.89 548.43,-21.88"/>
</g>
<!-- &#45;4 -->
<g id="node4" class="node">
<title>&#45;4</title>
<polygon fill="lightgray" stroke="black" points="164.66,-106.52 138.66,-106.52 138.66,-88.52 164.66,-88.52 164.66,-106.52"/>
<text text-anchor="middle" x="151.66" y="-95.32" font-family="Times,serif" font-size="9.00">&#45;4</text>
</g>
<!-- &#45;4&#45;&gt;0 -->
<g id="edge20" class="edge">
<title>&#45;4&#45;&gt;0</title>
<path fill="none" stroke="green" stroke-width="0.23" d="M156.51,-88.34C163.29,-76.9 175.86,-55.7 185.52,-39.42"/>
<polygon fill="green" stroke="green" stroke-width="0.23" points="188.71,-40.9 190.8,-30.52 182.69,-37.33 188.71,-40.9"/>
</g>
<!-- &#45;5 -->
<g id="node5" class="node">
<title>&#45;5</title>
<polygon fill="lightgray" stroke="black" points="107.66,-180.51 81.66,-180.51 81.66,-162.51 107.66,-162.51 107.66,-180.51"/>
<text text-anchor="middle" x="94.66" y="-169.31" font-family="Times,serif" font-size="9.00">&#45;5</text>
</g>
<!-- &#45;6 -->
<g id="node6" class="node">
<title>&#45;6</title>
<polygon fill="lightgray" stroke="black" points="151.66,-180.51 125.66,-180.51 125.66,-162.51 151.66,-162.51 151.66,-180.51"/>
<text text-anchor="middle" x="138.66" y="-169.31" font-family="Times,serif" font-size="9.00">&#45;6</text>
</g>
<!-- &#45;7 -->
<g id="node7" class="node">
<title>&#45;7</title>
<polygon fill="lightgray" stroke="black" points="490.66,-106.52 464.66,-106.52 464.66,-88.52 490.66,-88.52 490.66,-106.52"/>
<text text-anchor="middle" x="477.66" y="-95.32" font-family="Times,serif" font-size="9.00">&#45;7</text>
</g>
<!-- &#45;7&#45;&gt;1 -->
<g id="edge17" class="edge">
<title>&#45;7&#45;&gt;1</title>
<path fill="none" stroke="red" stroke-width="0.35" d="M483.05,-88.38C487.18,-82.48 493.25,-74.52 499.66,-68.53 515.59,-53.63 536.19,-39.86 551.77,-30.36"/>
<polygon fill="red" stroke="red" stroke-width="0.35" points="553.94,-33.14 560.74,-25.02 550.36,-27.13 553.94,-33.14"/>
</g>
<!-- &#45;8 -->
<g id="node8" class="node">
<title>&#45;8</title>
<polygon fill="lightgray" stroke="black" points="402.66,-106.52 376.66,-106.52 376.66,-88.52 402.66,-88.52 402.66,-106.52"/>
<text text-anchor="middle" x="389.66" y="-95.32" font-family="Times,serif" font-size="9.00">&#45;8</text>
</g>
<!-- &#45;8&#45;&gt;0 -->
<g id="edge9" class="edge">
<title>&#45;8&#45;&gt;0</title>
<path fill="none" stroke="red" stroke-width="0.16" stroke-dasharray="1,5" d="M385.09,-88.28C381.22,-82.01 375.11,-73.62 367.66,-68.53 323.16,-38.11 260.07,-25.29 224.92,-20.25"/>
<polygon fill="red" stroke="red" stroke-width="0.16" points="225.33,-16.77 214.95,-18.92 224.4,-23.71 225.33,-16.77"/>
</g>
<!-- &#45;8&#45;&gt;1 -->
<g id="edge3" class="edge">
<title>&#45;8&#45;&gt;1</title>
<path fill="none" stroke="red" stroke-width="0.19" d="M394.24,-88.3C398.12,-82.04 404.23,-73.66 411.66,-68.53 454.16,-39.16 514.27,-26.02 548.36,-20.63"/>
<polygon fill="red" stroke="red" stroke-width="0.19" points="549.08,-24.06 558.46,-19.14 548.06,-17.13 549.08,-24.06"/>
</g>
<!-- &#45;9 -->
<g id="node9" class="node">
<title>&#45;9</title>
<polygon fill="lightgray" stroke="black" points="195.66,-180.51 169.66,-180.51 169.66,-162.51 195.66,-162.51 195.66,-180.51"/>
<text text-anchor="middle" x="182.66" y="-169.31" font-family="Times,serif" font-size="9.00">&#45;9</text>
</g>
<!-- &#45;10 -->
<g id="node10" class="node">
<title>&#45;10</title>
<polygon fill="lightgray" stroke="black" points="214.66,-106.52 182.66,-106.52 182.66,-88.52 214.66,-88.52 214.66,-106.52"/>
<text text-anchor="middle" x="198.66" y="-95.32" font-family="Times,serif" font-size="9.00">&#45;10</text>
</g>
<!-- &#45;10&#45;&gt;0 -->
<g id="edge6" class="edge">
<title>&#45;10&#45;&gt;0</title>
<path fill="none" stroke="green" stroke-width="0.38" d="M198.66,-88.34C198.66,-77.67 198.66,-58.51 198.66,-42.77"/>
<polygon fill="green" stroke="green" stroke-width="0.38" points="202.16,-42.57 198.66,-32.57 195.16,-42.57 202.16,-42.57"/>
</g>
<!-- &#45;11 -->
<g id="node11" class="node">
<title>&#45;11</title>
<polygon fill="lightgray" stroke="black" points="540.66,-106.52 508.66,-106.52 508.66,-88.52 540.66,-88.52 540.66,-106.52"/>
<text text-anchor="middle" x="524.66" y="-95.32" font-family="Times,serif" font-size="9.00">&#45;11</text>
</g>
<!-- &#45;11&#45;&gt;1 -->
<g id="edge4" class="edge">
<title>&#45;11&#45;&gt;1</title>
<path fill="none" stroke="green" stroke-width="0.29" d="M529.82,-88.34C537.04,-76.9 550.41,-55.7 560.68,-39.42"/>
<polygon fill="green" stroke="green" stroke-width="0.29" points="563.92,-40.84 566.3,-30.52 558,-37.11 563.92,-40.84"/>
</g>
<!-- &#45;12 -->
<g id="node12" class="node">
<title>&#45;12</title>
<polygon fill="lightgray" stroke="black" points="590.66,-106.52 558.66,-106.52 558.66,-88.52 590.66,-88.52 590.66,-106.52"/>
<text text-anchor="middle" x="574.66" y="-95.32" font-family="Times,serif" font-size="9.00">&#45;12</text>
</g>
<!-- &#45;12&#45;&gt;1 -->
<g id="edge16" class="edge">
<title>&#45;12&#45;&gt;1</title>
<path fill="none" stroke="red" stroke-width="0.35" stroke-dasharray="1,5" d="M574.66,-88.34C574.66,-77.67 574.66,-58.51 574.66,-42.77"/>
<polygon fill="red" stroke="red" stroke-width="0.35" points="578.16,-42.57 574.66,-32.57 571.16,-42.57 578.16,-42.57"/>
</g>
<!-- &#45;13 -->
<g id="node13" class="node">
<title>&#45;13</title>
<polygon fill="lightgray" stroke="black" points="245.66,-180.51 213.66,-180.51 213.66,-162.51 245.66,-162.51 245.66,-180.51"/>
<text text-anchor="middle" x="229.66" y="-169.31" font-family="Times,serif" font-size="9.00">&#45;13</text>
</g>
<!-- &#45;14 -->
<g id="node14" class="node">
<title>&#45;14</title>
<polygon fill="lightgray" stroke="black" points="264.66,-106.52 232.66,-106.52 232.66,-88.52 264.66,-88.52 264.66,-106.52"/>
<text text-anchor="middle" x="248.66" y="-95.32" font-family="Times,serif" font-size="9.00">&#45;14</text>
</g>
<!-- &#45;14&#45;&gt;0 -->
<g id="edge5" class="edge">
<title>&#45;14&#45;&gt;0</title>
<path fill="none" stroke="red" stroke-width="0.47" d="M243.5,-88.34C236.28,-76.9 222.91,-55.7 212.64,-39.42"/>
<polygon fill="red" stroke="red" stroke-width="0.47" points="215.31,-37.11 207.02,-30.52 209.39,-40.84 215.31,-37.11"/>
</g>
<!-- &#45;15 -->
<g id="node15" class="node">
<title>&#45;15</title>
<polygon fill="lightgray" stroke="black" points="640.66,-106.52 608.66,-106.52 608.66,-88.52 640.66,-88.52 640.66,-106.52"/>
<text text-anchor="middle" x="624.66" y="-95.32" font-family="Times,serif" font-size="9.00">&#45;15</text>
</g>
<!-- &#45;15&#45;&gt;1 -->
<g id="edge11" class="edge">
<title>&#45;15&#45;&gt;1</title>
<path fill="none" stroke="green" stroke-width="0.17" d="M619.5,-88.34C612.28,-76.9 598.91,-55.7 588.64,-39.42"/>
<polygon fill="green" stroke="green" stroke-width="0.17" points="591.31,-37.11 583.02,-30.52 585.39,-40.84 591.31,-37.11"/>
</g>
<!-- &#45;16 -->
<g id="node16" class="node">
<title>&#45;16</title>
<polygon fill="lightgray" stroke="black" points="690.66,-106.52 658.66,-106.52 658.66,-88.52 690.66,-88.52 690.66,-106.52"/>
<text text-anchor="middle" x="674.66" y="-95.32" font-family="Times,serif" font-size="9.00">&#45;16</text>
</g>
<!-- &#45;16&#45;&gt;1 -->
<g id="edge13" class="edge">
<title>&#45;16&#45;&gt;1</title>
<path fill="none" stroke="green" stroke-width="0.4" stroke-dasharray="1,5" d="M668.34,-88.44C663.54,-82.58 656.61,-74.63 649.66,-68.53 633.27,-54.13 612.7,-40.33 597.25,-30.68"/>
<polygon fill="green" stroke="green" stroke-width="0.4" points="598.73,-27.48 588.37,-25.24 595.07,-33.45 598.73,-27.48"/>
</g>
<!-- &#45;17 -->
<g id="node17" class="node">
<title>&#45;17</title>
<polygon fill="lightgray" stroke="black" points="740.66,-106.52 708.66,-106.52 708.66,-88.52 740.66,-88.52 740.66,-106.52"/>
<text text-anchor="middle" x="724.66" y="-95.32" font-family="Times,serif" font-size="9.00">&#45;17</text>
</g>
<!-- &#45;17&#45;&gt;1 -->
<g id="edge2" class="edge">
<title>&#45;17&#45;&gt;1</title>
<path fill="none" stroke="green" stroke-width="0.14" d="M718.89,-88.24C714.27,-82.12 707.32,-73.94 699.66,-68.53 668.55,-46.53 626.59,-31.81 600.08,-23.99"/>
<polygon fill="green" stroke="green" stroke-width="0.14" points="600.97,-20.6 590.4,-21.23 599.06,-27.33 600.97,-20.6"/>
</g>
<!-- &#45;18 -->
<g id="node18" class="node">
<title>&#45;18</title>
<polygon fill="lightgray" stroke="black" points="790.66,-106.52 758.66,-106.52 758.66,-88.52 790.66,-88.52 790.66,-106.52"/>
<text text-anchor="middle" x="774.66" y="-95.32" font-family="Times,serif" font-size="9.00">&#45;18</text>
</g>
<!-- &#45;18&#45;&gt;1 -->
<g id="edge8" class="edge">
<title>&#45;18&#45;&gt;1</title>
<path fill="none" stroke="green" stroke-width="0.24" d="M769.23,-88.27C764.7,-82 757.7,-73.61 749.66,-68.53 702.36,-38.65 636.97,-25.59 601,-20.37"/>
<polygon fill="green" stroke="green" stroke-width="0.24" points="601.22,-16.87 590.84,-18.99 600.28,-23.81 601.22,-16.87"/>
</g>
<!-- &#45;19 -->
<g id="node19" class="node">
<title>&#45;19</title>
<polygon fill="lightgray" stroke="black" points="314.66,-106.52 282.66,-106.52 282.66,-88.52 314.66,-88.52 314.66,-106.52"/>
<text text-anchor="middle" x="298.66" y="-95.32" font-family="Times,serif" font-size="9.00">&#45;19</text>
</g>
<!-- &#45;19&#45;&gt;0 -->
<g id="edge21" class="edge">
<title>&#45;19&#45;&gt;0</title>
<path fill="none" stroke="red" stroke-width="0.37" d="M292.34,-88.44C287.54,-82.58 280.61,-74.63 273.66,-68.53 257.27,-54.13 236.7,-40.33 221.25,-30.68"/>
<polygon fill="red" stroke="red" stroke-width="0.37" points="222.73,-27.48 212.37,-25.24 219.07,-33.45 222.73,-27.48"/>
</g>
<!-- &#45;20 -->
<g id="node20" class="node">
<title>&#45;20</title>
<polygon fill="lightgray" stroke="black" points="63.66,-180.51 31.66,-180.51 31.66,-162.51 63.66,-162.51 63.66,-180.51"/>
<text text-anchor="middle" x="47.66" y="-169.31" font-family="Times,serif" font-size="9.00">&#45;20</text>
</g>
<!-- &#45;20&#45;&gt;0 -->
<g id="edge10" class="edge">
<title>&#45;20&#45;&gt;0</title>
<path fill="none" stroke="red" stroke-width="0.58" stroke-dasharray="1,5" d="M37.31,-162.37C28.06,-154.38 15.15,-141.27 9.66,-126.51 0.67,-102.36 -6,-89 9.66,-68.53 29.44,-42.66 125.46,-26.8 172.53,-20.45"/>
<polygon fill="red" stroke="red" stroke-width="0.58" points="173.12,-23.91 182.58,-19.14 172.22,-16.97 173.12,-23.91"/>
</g>
<!-- &#45;20&#45;&gt;1 -->
<g id="edge1" class="edge">
<title>&#45;20&#45;&gt;1</title>
<path fill="none" stroke="green" stroke-width="0.17" d="M63.91,-164.64C66.79,-163.79 69.79,-163.03 72.66,-162.51 152.23,-148.06 743.9,-185.1 799.66,-126.51 817.42,-107.84 815.73,-88.67 799.66,-68.53 775.06,-37.69 655.16,-23.96 601.14,-19.27"/>
<polygon fill="green" stroke="green" stroke-width="0.17" points="601.22,-15.76 590.96,-18.42 600.64,-22.74 601.22,-15.76"/>
</g>
<!-- 1015 -->
<g id="node23" class="node">
<title>1015</title>
<ellipse fill="white" stroke="black" cx="47.66" cy="-97.52" rx="28.98" ry="28.98"/>
<text text-anchor="middle" x="47.66" y="-95.32" font-family="Times,serif" font-size="9.00">1015</text>
</g>
<!-- &#45;20&#45;&gt;1015 -->
<g id="edge22" class="edge">
<title>&#45;20&#45;&gt;1015</title>
<path fill="none" stroke="green" stroke-width="0.2" d="M47.66,-162.25C47.66,-155.78 47.66,-146.28 47.66,-136.58"/>
<polygon fill="green" stroke="green" stroke-width="0.2" points="51.16,-136.51 47.66,-126.51 44.16,-136.51 51.16,-136.51"/>
</g>
<!-- 0&#45;&gt;0 -->
<g id="edge19" class="edge">
<title>0&#45;&gt;0</title>
<path fill="none" stroke="red" stroke-width="0.83" d="M209.89,-28.18C220.86,-34.77 232.92,-30.79 232.92,-16.26 232.92,-6.05 226.96,-1.05 219.61,-1.27"/>
<polygon fill="red" stroke="red" stroke-width="0.83" points="218.37,2.01 209.89,-4.34 220.48,-4.67 218.37,2.01"/>
</g>
<!-- 1&#45;&gt;1 -->
<g id="edge14" class="edge">
<title>1&#45;&gt;1</title>
<path fill="none" stroke="red" stroke-width="0.33" d="M585.89,-28.18C596.86,-34.77 608.92,-30.79 608.92,-16.26 608.92,-6.05 602.96,-1.05 595.61,-1.27"/>
<polygon fill="red" stroke="red" stroke-width="0.33" points="594.37,2.01 585.89,-4.34 596.48,-4.67 594.37,2.01"/>
</g>
<!-- 1015&#45;&gt;0 -->
<g id="edge23" class="edge">
<title>1015&#45;&gt;0</title>
<path fill="none" stroke="red" stroke-width="0.49" d="M70.04,-78.84C75.05,-75.23 80.43,-71.59 85.66,-68.53 114.8,-51.44 150.63,-36.05 174.03,-26.69"/>
<polygon fill="red" stroke="red" stroke-width="0.49" points="175.52,-29.87 183.54,-22.95 172.95,-23.36 175.52,-29.87"/>
</g>
</g>
</svg>
