<?xml version="1.0" encoding="UTF-8" standalone="no"?>
<!DOCTYPE svg PUBLIC "-//W3C//DTD SVG 1.1//EN"
 "http://www.w3.org/Graphics/SVG/1.1/DTD/svg11.dtd">
<!-- Generated by graphviz version 2.43.0 (0)
 -->
<!-- Title: %3 Pages: 1 -->
<svg width="1336pt" height="95pt"
 viewBox="0.00 0.00 1336.00 94.53" xmlns="http://www.w3.org/2000/svg" xmlns:xlink="http://www.w3.org/1999/xlink">
<g id="graph0" class="graph" transform="scale(1 1) rotate(0) translate(4 90.53)">
<title>%3</title>
<polygon fill="white" stroke="transparent" points="-4,4 -4,-90.53 1332,-90.53 1332,4 -4,4"/>
<!-- &#45;1 -->
<g id="node1" class="node">
<title>&#45;1</title>
<polygon fill="lightgray" stroke="black" points="514,-86.53 488,-86.53 488,-68.53 514,-68.53 514,-86.53"/>
<text text-anchor="middle" x="501" y="-75.33" font-family="Times,serif" font-size="9.00">&#45;1</text>
</g>
<!-- 0 -->
<g id="node29" class="node">
<title>0</title>
<ellipse fill="lightblue" stroke="black" cx="329" cy="-16.26" rx="16.03" ry="16.03"/>
<text text-anchor="middle" x="329" y="-14.06" font-family="Times,serif" font-size="9.00">0</text>
</g>
<!-- &#45;1&#45;&gt;0 -->
<g id="edge21" class="edge">
<title>&#45;1&#45;&gt;0</title>
<path fill="none" stroke="green" stroke-width="0.39" d="M487.99,-71.75C485.04,-70.68 481.91,-69.55 479,-68.53 435.12,-53.05 383.78,-35.66 353.96,-25.63"/>
<polygon fill="green" stroke="green" stroke-width="0.39" points="354.96,-22.27 344.37,-22.4 352.73,-28.91 354.96,-22.27"/>
</g>
<!-- 1 -->
<g id="node30" class="node">
<title>1</title>
<ellipse fill="lightblue" stroke="black" cx="717" cy="-16.26" rx="16.03" ry="16.03"/>
<text text-anchor="middle" x="717" y="-14.06" font-family="Times,serif" font-size="9.00">1</text>
</g>
<!-- &#45;1&#45;&gt;1 -->
<g id="edge9" class="edge">
<title>&#45;1&#45;&gt;1</title>
<path fill="none" stroke="red" stroke-width="0.48" d="M514.43,-71.42C517.25,-70.42 520.21,-69.4 523,-68.53 582.61,-49.86 653.88,-32.19 691.24,-23.28"/>
<polygon fill="red" stroke="red" stroke-width="0.48" points="692.35,-26.62 701.27,-20.91 690.73,-19.81 692.35,-26.62"/>
</g>
<!-- &#45;2 -->
<g id="node2" class="node">
<title>&#45;2</title>
<polygon fill="lightgray" stroke="black" points="26,-86.53 0,-86.53 0,-68.53 26,-68.53 26,-86.53"/>
<text text-anchor="middle" x="13" y="-75.33" font-family="Times,serif" font-size="9.00">&#45;2</text>
</g>
<!-- &#45;2&#45;&gt;0 -->
<g id="edge15" class="edge">
<title>&#45;2&#45;&gt;0</title>
<path fill="none" stroke="green" stroke-width="0.87" d="M26.38,-71.24C29.2,-70.24 32.17,-69.28 35,-68.53 132.21,-42.59 251.11,-26.51 302.86,-20.25"/>
<polygon fill="green" stroke="green" stroke-width="0.87" points="303.33,-23.72 312.85,-19.06 302.51,-16.77 303.33,-23.72"/>
</g>
<!-- &#45;3 -->
<g id="node3" class="node">
<title>&#45;3</title>
<polygon fill="lightgray" stroke="black" points="1028,-86.53 1002,-86.53 1002,-68.53 1028,-68.53 1028,-86.53"/>
<text text-anchor="middle" x="1015" y="-75.33" font-family="Times,serif" font-size="9.00">&#45;3</text>
</g>
<!-- &#45;4 -->
<g id="node4" class="node">
<title>&#45;4</title>
<polygon fill="lightgray" stroke="black" points="708,-86.53 682,-86.53 682,-68.53 708,-68.53 708,-86.53"/>
<text text-anchor="middle" x="695" y="-75.33" font-family="Times,serif" font-size="9.00">&#45;4</text>
</g>
<!-- &#45;4&#45;&gt;1 -->
<g id="edge20" class="edge">
<title>&#45;4&#45;&gt;1</title>
<path fill="none" stroke="green" stroke-width="0.18" d="M698.06,-68.29C700.65,-61.3 704.51,-50.91 708.06,-41.33"/>
<polygon fill="green" stroke="green" stroke-width="0.18" points="711.4,-42.41 711.6,-31.82 704.84,-39.97 711.4,-42.41"/>
</g>
<!-- &#45;5 -->
<g id="node5" class="node">
<title>&#45;5</title>
<polygon fill="lightgray" stroke="black" points="752,-86.53 726,-86.53 726,-68.53 752,-68.53 752,-86.53"/>
<text text-anchor="middle" x="739" y="-75.33" font-family="Times,serif" font-size="9.00">&#45;5</text>
</g>
<!-- &#45;5&#45;&gt;1 -->
<g id="edge23" class="edge">
<title>&#45;5&#45;&gt;1</title>
<path fill="none" stroke="green" stroke-width="0.17" stroke-dasharray="1,5" d="M735.94,-68.29C733.35,-61.3 729.49,-50.91 725.94,-41.33"/>
<polygon fill="green" stroke="green" stroke-width="0.17" points="729.16,-39.97 722.4,-31.82 722.6,-42.41 729.16,-39.97"/>
</g>
<!-- &#45;6 -->
<g id="node6" class="node">
<title>&#45;6</title>
<polygon fill="lightgray" stroke="black" points="796,-86.53 770,-86.53 770,-68.53 796,-68.53 796,-86.53"/>
<text text-anchor="middle" x="783" y="-75.33" font-family="Times,serif" font-size="9.00">&#45;6</text>
</g>
<!-- &#45;6&#45;&gt;1 -->
<g id="edge12" class="edge">
<title>&#45;6&#45;&gt;1</title>
<path fill="none" stroke="red" stroke-width="0.43" d="M773.82,-68.29C764.18,-59.62 748.71,-45.74 736.35,-34.64"/>
<polygon fill="red" stroke="red" stroke-width="0.43" points="738.55,-31.91 728.77,-27.83 733.87,-37.12 738.55,-31.91"/>
</g>
<!-- &#45;7 -->
<g id="node7" class="node">
<title>&#45;7</title>
<polygon fill="lightgray" stroke="black" points="70,-86.53 44,-86.53 44,-68.53 70,-68.53 70,-86.53"/>
<text text-anchor="middle" x="57" y="-75.33" font-family="Times,serif" font-size="9.00">&#45;7</text>
</g>
<!-- &#45;7&#45;&gt;0 -->
<g id="edge6" class="edge">
<title>&#45;7&#45;&gt;0</title>
<path fill="none" stroke="red" stroke-width="0.68" d="M70.39,-71.3C73.21,-70.3 76.18,-69.32 79,-68.53 159.52,-45.76 257.3,-28.69 303.05,-21.3"/>
<polygon fill="red" stroke="red" stroke-width="0.68" points="303.69,-24.74 313.01,-19.71 302.58,-17.82 303.69,-24.74"/>
</g>
<!-- &#45;8 -->
<g id="node8" class="node">
<title>&#45;8</title>
<polygon fill="lightgray" stroke="black" points="840,-86.53 814,-86.53 814,-68.53 840,-68.53 840,-86.53"/>
<text text-anchor="middle" x="827" y="-75.33" font-family="Times,serif" font-size="9.00">&#45;8</text>
</g>
<!-- &#45;8&#45;&gt;1 -->
<g id="edge24" class="edge">
<title>&#45;8&#45;&gt;1</title>
<path fill="none" stroke="red" stroke-width="0.81" stroke-dasharray="1,5" d="M813.95,-69.5C795.72,-59.68 762.37,-41.71 739.94,-29.62"/>
<polygon fill="red" stroke="red" stroke-width="0.81" points="741.54,-26.51 731.07,-24.85 738.22,-32.67 741.54,-26.51"/>
</g>
<!-- &#45;9 -->
<g id="node9" class="node">
<title>&#45;9</title>
<polygon fill="lightgray" stroke="black" points="884,-86.53 858,-86.53 858,-68.53 884,-68.53 884,-86.53"/>
<text text-anchor="middle" x="871" y="-75.33" font-family="Times,serif" font-size="9.00">&#45;9</text>
</g>
<!-- &#45;9&#45;&gt;1 -->
<g id="edge10" class="edge">
<title>&#45;9&#45;&gt;1</title>
<path fill="none" stroke="red" stroke-width="0.24" stroke-dasharray="1,5" d="M857.87,-71.47C832.03,-61.53 774.23,-39.29 741.26,-26.6"/>
<polygon fill="red" stroke="red" stroke-width="0.24" points="742.48,-23.32 731.89,-22.99 739.96,-29.85 742.48,-23.32"/>
</g>
<!-- &#45;10 -->
<g id="node10" class="node">
<title>&#45;10</title>
<polygon fill="lightgray" stroke="black" points="120,-86.53 88,-86.53 88,-68.53 120,-68.53 120,-86.53"/>
<text text-anchor="middle" x="104" y="-75.33" font-family="Times,serif" font-size="9.00">&#45;10</text>
</g>
<!-- &#45;10&#45;&gt;0 -->
<g id="edge8" class="edge">
<title>&#45;10&#45;&gt;0</title>
<path fill="none" stroke="green" stroke-width="0.22" d="M120.1,-71.22C123.05,-70.29 126.11,-69.36 129,-68.53 191.34,-50.58 265.5,-32.39 303.6,-23.27"/>
<polygon fill="green" stroke="green" stroke-width="0.22" points="304.44,-26.66 313.36,-20.94 302.82,-19.86 304.44,-26.66"/>
</g>
<!-- &#45;11 -->
<g id="node11" class="node">
<title>&#45;11</title>
<polygon fill="lightgray" stroke="black" points="1078,-86.53 1046,-86.53 1046,-68.53 1078,-68.53 1078,-86.53"/>
<text text-anchor="middle" x="1062" y="-75.33" font-family="Times,serif" font-size="9.00">&#45;11</text>
</g>
<!-- &#45;12 -->
<g id="node12" class="node">
<title>&#45;12</title>
<polygon fill="lightgray" stroke="black" points="1128,-86.53 1096,-86.53 1096,-68.53 1128,-68.53 1128,-86.53"/>
<text text-anchor="middle" x="1112" y="-75.33" font-family="Times,serif" font-size="9.00">&#45;12</text>
</g>
<!-- &#45;13 -->
<g id="node13" class="node">
<title>&#45;13</title>
<polygon fill="lightgray" stroke="black" points="564,-86.53 532,-86.53 532,-68.53 564,-68.53 564,-86.53"/>
<text text-anchor="middle" x="548" y="-75.33" font-family="Times,serif" font-size="9.00">&#45;13</text>
</g>
<!-- &#45;13&#45;&gt;0 -->
<g id="edge11" class="edge">
<title>&#45;13&#45;&gt;0</title>
<path fill="none" stroke="red" stroke-width="0.83" d="M531.9,-71.24C528.95,-70.31 525.89,-69.37 523,-68.53 463.04,-51.02 391.9,-32.89 354.66,-23.6"/>
<polygon fill="red" stroke="red" stroke-width="0.83" points="355.22,-20.13 344.67,-21.11 353.53,-26.92 355.22,-20.13"/>
</g>
<!-- &#45;13&#45;&gt;1 -->
<g id="edge19" class="edge">
<title>&#45;13&#45;&gt;1</title>
<path fill="none" stroke="red" stroke-width="0.42" d="M564.2,-70.84C593.83,-60.46 656.91,-38.33 692.05,-26.01"/>
<polygon fill="red" stroke="red" stroke-width="0.42" points="693.3,-29.28 701.58,-22.67 690.99,-22.68 693.3,-29.28"/>
</g>
<!-- &#45;14 -->
<g id="node14" class="node">
<title>&#45;14</title>
<polygon fill="lightgray" stroke="black" points="170,-86.53 138,-86.53 138,-68.53 170,-68.53 170,-86.53"/>
<text text-anchor="middle" x="154" y="-75.33" font-family="Times,serif" font-size="9.00">&#45;14</text>
</g>
<!-- &#45;14&#45;&gt;0 -->
<g id="edge18" class="edge">
<title>&#45;14&#45;&gt;0</title>
<path fill="none" stroke="green" stroke-width="0.25" d="M170.15,-71.06C200.8,-60.68 267.59,-38.06 304.05,-25.71"/>
<polygon fill="green" stroke="green" stroke-width="0.25" points="305.54,-28.9 313.89,-22.38 303.3,-22.27 305.54,-28.9"/>
</g>
<!-- &#45;15 -->
<g id="node15" class="node">
<title>&#45;15</title>
<polygon fill="lightgray" stroke="black" points="220,-86.53 188,-86.53 188,-68.53 220,-68.53 220,-86.53"/>
<text text-anchor="middle" x="204" y="-75.33" font-family="Times,serif" font-size="9.00">&#45;15</text>
</g>
<!-- &#45;15&#45;&gt;0 -->
<g id="edge13" class="edge">
<title>&#45;15&#45;&gt;0</title>
<path fill="none" stroke="green" stroke-width="0.37" d="M220.09,-68.9C241.74,-58.63 280.42,-40.29 305.38,-28.46"/>
<polygon fill="green" stroke="green" stroke-width="0.37" points="306.99,-31.57 314.53,-24.13 303.99,-25.25 306.99,-31.57"/>
</g>
<!-- &#45;16 -->
<g id="node16" class="node">
<title>&#45;16</title>
<polygon fill="lightgray" stroke="black" points="1178,-86.53 1146,-86.53 1146,-68.53 1178,-68.53 1178,-86.53"/>
<text text-anchor="middle" x="1162" y="-75.33" font-family="Times,serif" font-size="9.00">&#45;16</text>
</g>
<!-- &#45;17 -->
<g id="node17" class="node">
<title>&#45;17</title>
<polygon fill="lightgray" stroke="black" points="270,-86.53 238,-86.53 238,-68.53 270,-68.53 270,-86.53"/>
<text text-anchor="middle" x="254" y="-75.33" font-family="Times,serif" font-size="9.00">&#45;17</text>
</g>
<!-- &#45;17&#45;&gt;0 -->
<g id="edge26" class="edge">
<title>&#45;17&#45;&gt;0</title>
<path fill="none" stroke="green" stroke-width="0.4" d="M264.43,-68.29C275.76,-59.33 294.16,-44.8 308.42,-33.52"/>
<polygon fill="green" stroke="green" stroke-width="0.4" points="310.99,-35.95 316.67,-27.01 306.65,-30.46 310.99,-35.95"/>
</g>
<!-- &#45;18 -->
<g id="node18" class="node">
<title>&#45;18</title>
<polygon fill="lightgray" stroke="black" points="320,-86.53 288,-86.53 288,-68.53 320,-68.53 320,-86.53"/>
<text text-anchor="middle" x="304" y="-75.33" font-family="Times,serif" font-size="9.00">&#45;18</text>
</g>
<!-- &#45;18&#45;&gt;0 -->
<g id="edge3" class="edge">
<title>&#45;18&#45;&gt;0</title>
<path fill="none" stroke="green" stroke-width="0.38" d="M307.48,-68.29C310.45,-61.23 314.9,-50.7 318.97,-41.03"/>
<polygon fill="green" stroke="green" stroke-width="0.38" points="322.2,-42.39 322.86,-31.82 315.75,-39.67 322.2,-42.39"/>
</g>
<!-- &#45;19 -->
<g id="node19" class="node">
<title>&#45;19</title>
<polygon fill="lightgray" stroke="black" points="934,-86.53 902,-86.53 902,-68.53 934,-68.53 934,-86.53"/>
<text text-anchor="middle" x="918" y="-75.33" font-family="Times,serif" font-size="9.00">&#45;19</text>
</g>
<!-- &#45;19&#45;&gt;1 -->
<g id="edge16" class="edge">
<title>&#45;19&#45;&gt;1</title>
<path fill="none" stroke="green" stroke-width="0.18" stroke-dasharray="1,5" d="M901.88,-71.3C898.93,-70.36 895.88,-69.41 893,-68.53 839.49,-52.18 776.47,-34.1 742.24,-24.39"/>
<polygon fill="green" stroke="green" stroke-width="0.18" points="743.15,-21.01 732.58,-21.65 741.25,-27.75 743.15,-21.01"/>
</g>
<!-- &#45;20 -->
<g id="node20" class="node">
<title>&#45;20</title>
<polygon fill="lightgray" stroke="black" points="1228,-86.53 1196,-86.53 1196,-68.53 1228,-68.53 1228,-86.53"/>
<text text-anchor="middle" x="1212" y="-75.33" font-family="Times,serif" font-size="9.00">&#45;20</text>
</g>
<!-- &#45;21 -->
<g id="node21" class="node">
<title>&#45;21</title>
<polygon fill="lightgray" stroke="black" points="614,-86.53 582,-86.53 582,-68.53 614,-68.53 614,-86.53"/>
<text text-anchor="middle" x="598" y="-75.33" font-family="Times,serif" font-size="9.00">&#45;21</text>
</g>
<!-- &#45;21&#45;&gt;0 -->
<g id="edge25" class="edge">
<title>&#45;21&#45;&gt;0</title>
<path fill="none" stroke="red" stroke-width="0.65" d="M581.93,-71.12C578.98,-70.2 575.91,-69.3 573,-68.53 494.32,-47.73 399.61,-29.83 354.85,-21.79"/>
<polygon fill="red" stroke="red" stroke-width="0.65" points="355.29,-18.32 344.83,-20.01 354.06,-25.21 355.29,-18.32"/>
</g>
<!-- &#45;21&#45;&gt;1 -->
<g id="edge7" class="edge">
<title>&#45;21&#45;&gt;1</title>
<path fill="none" stroke="green" stroke-width="0.53" d="M614.05,-68.53C634.48,-58.36 669.93,-40.7 693.43,-29"/>
<polygon fill="green" stroke="green" stroke-width="0.53" points="695.3,-31.98 702.69,-24.39 692.18,-25.71 695.3,-31.98"/>
</g>
<!-- &#45;22 -->
<g id="node22" class="node">
<title>&#45;22</title>
<polygon fill="lightgray" stroke="black" points="1278,-86.53 1246,-86.53 1246,-68.53 1278,-68.53 1278,-86.53"/>
<text text-anchor="middle" x="1262" y="-75.33" font-family="Times,serif" font-size="9.00">&#45;22</text>
</g>
<!-- &#45;23 -->
<g id="node23" class="node">
<title>&#45;23</title>
<polygon fill="lightgray" stroke="black" points="984,-86.53 952,-86.53 952,-68.53 984,-68.53 984,-86.53"/>
<text text-anchor="middle" x="968" y="-75.33" font-family="Times,serif" font-size="9.00">&#45;23</text>
</g>
<!-- &#45;23&#45;&gt;1 -->
<g id="edge22" class="edge">
<title>&#45;23&#45;&gt;1</title>
<path fill="none" stroke="red" stroke-width="0.12" d="M951.92,-71.16C948.97,-70.23 945.9,-69.32 943,-68.53 871.23,-48.94 785.23,-30.91 743,-22.4"/>
<polygon fill="red" stroke="red" stroke-width="0.12" points="743.5,-18.93 733.01,-20.4 742.13,-25.79 743.5,-18.93"/>
</g>
<!-- &#45;24 -->
<g id="node24" class="node">
<title>&#45;24</title>
<polygon fill="lightgray" stroke="black" points="370,-86.53 338,-86.53 338,-68.53 370,-68.53 370,-86.53"/>
<text text-anchor="middle" x="354" y="-75.33" font-family="Times,serif" font-size="9.00">&#45;24</text>
</g>
<!-- &#45;24&#45;&gt;0 -->
<g id="edge5" class="edge">
<title>&#45;24&#45;&gt;0</title>
<path fill="none" stroke="red" stroke-width="0.38" d="M350.52,-68.29C347.55,-61.23 343.1,-50.7 339.03,-41.03"/>
<polygon fill="red" stroke="red" stroke-width="0.38" points="342.25,-39.67 335.14,-31.82 335.8,-42.39 342.25,-39.67"/>
</g>
<!-- &#45;25 -->
<g id="node25" class="node">
<title>&#45;25</title>
<polygon fill="lightgray" stroke="black" points="664,-86.53 632,-86.53 632,-68.53 664,-68.53 664,-86.53"/>
<text text-anchor="middle" x="648" y="-75.33" font-family="Times,serif" font-size="9.00">&#45;25</text>
</g>
<!-- &#45;25&#45;&gt;0 -->
<g id="edge17" class="edge">
<title>&#45;25&#45;&gt;0</title>
<path fill="none" stroke="green" stroke-width="0.66" stroke-dasharray="1,5" d="M631.95,-71.04C629,-70.12 625.92,-69.25 623,-68.53 525.3,-44.5 406.65,-27.43 355.06,-20.58"/>
<polygon fill="green" stroke="green" stroke-width="0.66" points="355.46,-17.11 345.09,-19.28 354.56,-24.05 355.46,-17.11"/>
</g>
<!-- &#45;25&#45;&gt;1 -->
<g id="edge2" class="edge">
<title>&#45;25&#45;&gt;1</title>
<path fill="none" stroke="red" stroke-width="0.72" stroke-dasharray="1,5" d="M657.59,-68.29C667.68,-59.62 683.84,-45.74 696.77,-34.64"/>
<polygon fill="red" stroke="red" stroke-width="0.72" points="699.39,-37 704.69,-27.83 694.83,-31.69 699.39,-37"/>
</g>
<!-- &#45;26 -->
<g id="node26" class="node">
<title>&#45;26</title>
<polygon fill="lightgray" stroke="black" points="470,-86.53 438,-86.53 438,-68.53 470,-68.53 470,-86.53"/>
<text text-anchor="middle" x="454" y="-75.33" font-family="Times,serif" font-size="9.00">&#45;26</text>
</g>
<!-- &#45;26&#45;&gt;0 -->
<g id="edge14" class="edge">
<title>&#45;26&#45;&gt;0</title>
<path fill="none" stroke="red" stroke-width="0.24" d="M437.91,-68.9C416.26,-58.63 377.58,-40.29 352.62,-28.46"/>
<polygon fill="red" stroke="red" stroke-width="0.24" points="354.01,-25.25 343.47,-24.13 351.01,-31.57 354.01,-25.25"/>
</g>
<!-- &#45;26&#45;&gt;1 -->
<g id="edge4" class="edge">
<title>&#45;26&#45;&gt;1</title>
<path fill="none" stroke="red" stroke-width="0.91" d="M470.07,-71.13C473.02,-70.21 476.09,-69.3 479,-68.53 555.39,-48.13 647.23,-30.17 691.15,-21.97"/>
<polygon fill="red" stroke="red" stroke-width="0.91" points="691.8,-25.41 701,-20.15 690.53,-18.53 691.8,-25.41"/>
</g>
<!-- &#45;27 -->
<g id="node27" class="node">
<title>&#45;27</title>
<polygon fill="lightgray" stroke="black" points="420,-86.53 388,-86.53 388,-68.53 420,-68.53 420,-86.53"/>
<text text-anchor="middle" x="404" y="-75.33" font-family="Times,serif" font-size="9.00">&#45;27</text>
</g>
<!-- &#45;27&#45;&gt;0 -->
<g id="edge1" class="edge">
<title>&#45;27&#45;&gt;0</title>
<path fill="none" stroke="red" stroke-width="0.18" stroke-dasharray="1,5" d="M393.57,-68.29C382.24,-59.33 363.84,-44.8 349.58,-33.52"/>
<polygon fill="red" stroke="red" stroke-width="0.18" points="351.35,-30.46 341.33,-27.01 347.01,-35.95 351.35,-30.46"/>
</g>
<!-- &#45;28 -->
<g id="node28" class="node">
<title>&#45;28</title>
<polygon fill="lightgray" stroke="black" points="1328,-86.53 1296,-86.53 1296,-68.53 1328,-68.53 1328,-86.53"/>
<text text-anchor="middle" x="1312" y="-75.33" font-family="Times,serif" font-size="9.00">&#45;28</text>
</g>
</g>
</svg>
