<?xml version="1.0" encoding="UTF-8" standalone="no"?>
<!DOCTYPE svg PUBLIC "-//W3C//DTD SVG 1.1//EN"
 "http://www.w3.org/Graphics/SVG/1.1/DTD/svg11.dtd">
<!-- Generated by graphviz version 2.43.0 (0)
 -->
<!-- Title: %3 Pages: 1 -->
<svg width="936pt" height="95pt"
 viewBox="0.00 0.00 936.00 94.53" xmlns="http://www.w3.org/2000/svg" xmlns:xlink="http://www.w3.org/1999/xlink">
<g id="graph0" class="graph" transform="scale(1 1) rotate(0) translate(4 90.53)">
<title>%3</title>
<polygon fill="white" stroke="transparent" points="-4,4 -4,-90.53 932,-90.53 932,4 -4,4"/>
<!-- &#45;1 -->
<g id="node1" class="node">
<title>&#45;1</title>
<polygon fill="lightgray" stroke="black" points="26,-86.53 0,-86.53 0,-68.53 26,-68.53 26,-86.53"/>
<text text-anchor="middle" x="13" y="-75.33" font-family="Times,serif" font-size="9.00">&#45;1</text>
</g>
<!-- &#45;2 -->
<g id="node2" class="node">
<title>&#45;2</title>
<polygon fill="lightgray" stroke="black" points="70,-86.53 44,-86.53 44,-68.53 70,-68.53 70,-86.53"/>
<text text-anchor="middle" x="57" y="-75.33" font-family="Times,serif" font-size="9.00">&#45;2</text>
</g>
<!-- &#45;3 -->
<g id="node3" class="node">
<title>&#45;3</title>
<polygon fill="lightgray" stroke="black" points="114,-86.53 88,-86.53 88,-68.53 114,-68.53 114,-86.53"/>
<text text-anchor="middle" x="101" y="-75.33" font-family="Times,serif" font-size="9.00">&#45;3</text>
</g>
<!-- &#45;4 -->
<g id="node4" class="node">
<title>&#45;4</title>
<polygon fill="lightgray" stroke="black" points="458,-86.53 432,-86.53 432,-68.53 458,-68.53 458,-86.53"/>
<text text-anchor="middle" x="445" y="-75.33" font-family="Times,serif" font-size="9.00">&#45;4</text>
</g>
<!-- 0 -->
<g id="node21" class="node">
<title>0</title>
<ellipse fill="lightblue" stroke="black" cx="348" cy="-16.26" rx="16.03" ry="16.03"/>
<text text-anchor="middle" x="348" y="-14.06" font-family="Times,serif" font-size="9.00">0</text>
</g>
<!-- &#45;4&#45;&gt;0 -->
<g id="edge8" class="edge">
<title>&#45;4&#45;&gt;0</title>
<path fill="none" stroke="red" stroke-width="0.44" d="M431.92,-68.53C416.1,-58.87 389.22,-42.45 370.15,-30.8"/>
<polygon fill="red" stroke="red" stroke-width="0.44" points="371.86,-27.74 361.5,-25.51 368.21,-33.71 371.86,-27.74"/>
</g>
<!-- 1 -->
<g id="node22" class="node">
<title>1</title>
<ellipse fill="lightblue" stroke="black" cx="612" cy="-16.26" rx="16.03" ry="16.03"/>
<text text-anchor="middle" x="612" y="-14.06" font-family="Times,serif" font-size="9.00">1</text>
</g>
<!-- &#45;4&#45;&gt;1 -->
<g id="edge15" class="edge">
<title>&#45;4&#45;&gt;1</title>
<path fill="none" stroke="green" stroke-width="0.36" d="M458.02,-71.77C460.97,-70.7 464.09,-69.57 467,-68.53 509.08,-53.44 558.15,-36.16 587.06,-26.01"/>
<polygon fill="green" stroke="green" stroke-width="0.36" points="588.47,-29.22 596.74,-22.61 586.15,-22.61 588.47,-29.22"/>
</g>
<!-- &#45;5 -->
<g id="node5" class="node">
<title>&#45;5</title>
<polygon fill="lightgray" stroke="black" points="746,-86.53 720,-86.53 720,-68.53 746,-68.53 746,-86.53"/>
<text text-anchor="middle" x="733" y="-75.33" font-family="Times,serif" font-size="9.00">&#45;5</text>
</g>
<!-- &#45;5&#45;&gt;1 -->
<g id="edge4" class="edge">
<title>&#45;5&#45;&gt;1</title>
<path fill="none" stroke="red" stroke-width="0.32" d="M719.59,-69.96C699.27,-60.01 660.42,-40.98 635.38,-28.72"/>
<polygon fill="red" stroke="red" stroke-width="0.32" points="636.74,-25.48 626.22,-24.23 633.66,-31.77 636.74,-25.48"/>
</g>
<!-- &#45;6 -->
<g id="node6" class="node">
<title>&#45;6</title>
<polygon fill="lightgray" stroke="black" points="790,-86.53 764,-86.53 764,-68.53 790,-68.53 790,-86.53"/>
<text text-anchor="middle" x="777" y="-75.33" font-family="Times,serif" font-size="9.00">&#45;6</text>
</g>
<!-- &#45;6&#45;&gt;1 -->
<g id="edge11" class="edge">
<title>&#45;6&#45;&gt;1</title>
<path fill="none" stroke="red" stroke-width="0.2" stroke-dasharray="1,5" d="M763.97,-71.78C761.02,-70.71 757.91,-69.58 755,-68.53 713.47,-53.53 665.09,-36.22 636.59,-26.04"/>
<polygon fill="red" stroke="red" stroke-width="0.2" points="637.63,-22.7 627.04,-22.63 635.28,-29.29 637.63,-22.7"/>
</g>
<!-- &#45;7 -->
<g id="node7" class="node">
<title>&#45;7</title>
<polygon fill="lightgray" stroke="black" points="834,-86.53 808,-86.53 808,-68.53 834,-68.53 834,-86.53"/>
<text text-anchor="middle" x="821" y="-75.33" font-family="Times,serif" font-size="9.00">&#45;7</text>
</g>
<!-- &#45;7&#45;&gt;1 -->
<g id="edge13" class="edge">
<title>&#45;7&#45;&gt;1</title>
<path fill="none" stroke="green" stroke-width="0.1" d="M807.56,-71.44C804.75,-70.44 801.79,-69.41 799,-68.53 741.78,-50.31 673.5,-32.59 637.36,-23.52"/>
<polygon fill="green" stroke="green" stroke-width="0.1" points="638.19,-20.12 627.64,-21.09 636.5,-26.91 638.19,-20.12"/>
</g>
<!-- &#45;8 -->
<g id="node8" class="node">
<title>&#45;8</title>
<polygon fill="lightgray" stroke="black" points="878,-86.53 852,-86.53 852,-68.53 878,-68.53 878,-86.53"/>
<text text-anchor="middle" x="865" y="-75.33" font-family="Times,serif" font-size="9.00">&#45;8</text>
</g>
<!-- &#45;9 -->
<g id="node9" class="node">
<title>&#45;9</title>
<polygon fill="lightgray" stroke="black" points="602,-86.53 576,-86.53 576,-68.53 602,-68.53 602,-86.53"/>
<text text-anchor="middle" x="589" y="-75.33" font-family="Times,serif" font-size="9.00">&#45;9</text>
</g>
<!-- &#45;9&#45;&gt;1 -->
<g id="edge7" class="edge">
<title>&#45;9&#45;&gt;1</title>
<path fill="none" stroke="green" stroke-width="0.29" stroke-dasharray="1,5" d="M592.2,-68.29C594.91,-61.3 598.94,-50.91 602.66,-41.33"/>
<polygon fill="green" stroke="green" stroke-width="0.29" points="606,-42.41 606.35,-31.82 599.47,-39.87 606,-42.41"/>
</g>
<!-- &#45;10 -->
<g id="node10" class="node">
<title>&#45;10</title>
<polygon fill="lightgray" stroke="black" points="164,-86.53 132,-86.53 132,-68.53 164,-68.53 164,-86.53"/>
<text text-anchor="middle" x="148" y="-75.33" font-family="Times,serif" font-size="9.00">&#45;10</text>
</g>
<!-- &#45;10&#45;&gt;0 -->
<g id="edge9" class="edge">
<title>&#45;10&#45;&gt;0</title>
<path fill="none" stroke="red" stroke-width="0.35" stroke-dasharray="1,5" d="M164.12,-71.3C167.07,-70.37 170.12,-69.41 173,-68.53 225.99,-52.29 288.34,-34.29 322.47,-24.53"/>
<polygon fill="red" stroke="red" stroke-width="0.35" points="323.86,-27.77 332.51,-21.66 321.93,-21.04 323.86,-27.77"/>
</g>
<!-- &#45;11 -->
<g id="node11" class="node">
<title>&#45;11</title>
<polygon fill="lightgray" stroke="black" points="652,-86.53 620,-86.53 620,-68.53 652,-68.53 652,-86.53"/>
<text text-anchor="middle" x="636" y="-75.33" font-family="Times,serif" font-size="9.00">&#45;11</text>
</g>
<!-- &#45;11&#45;&gt;1 -->
<g id="edge17" class="edge">
<title>&#45;11&#45;&gt;1</title>
<path fill="none" stroke="red" stroke-width="0.38" d="M632.66,-68.29C629.83,-61.3 625.63,-50.91 621.75,-41.33"/>
<polygon fill="red" stroke="red" stroke-width="0.38" points="624.89,-39.77 617.89,-31.82 618.4,-42.4 624.89,-39.77"/>
</g>
<!-- &#45;12 -->
<g id="node12" class="node">
<title>&#45;12</title>
<polygon fill="lightgray" stroke="black" points="702,-86.53 670,-86.53 670,-68.53 702,-68.53 702,-86.53"/>
<text text-anchor="middle" x="686" y="-75.33" font-family="Times,serif" font-size="9.00">&#45;12</text>
</g>
<!-- &#45;12&#45;&gt;1 -->
<g id="edge1" class="edge">
<title>&#45;12&#45;&gt;1</title>
<path fill="none" stroke="red" stroke-width="0.23" d="M675.71,-68.29C664.59,-59.38 646.59,-44.97 632.55,-33.72"/>
<polygon fill="red" stroke="red" stroke-width="0.23" points="634.42,-30.73 624.42,-27.21 630.04,-36.2 634.42,-30.73"/>
</g>
<!-- &#45;13 -->
<g id="node13" class="node">
<title>&#45;13</title>
<polygon fill="lightgray" stroke="black" points="928,-86.53 896,-86.53 896,-68.53 928,-68.53 928,-86.53"/>
<text text-anchor="middle" x="912" y="-75.33" font-family="Times,serif" font-size="9.00">&#45;13</text>
</g>
<!-- &#45;14 -->
<g id="node14" class="node">
<title>&#45;14</title>
<polygon fill="lightgray" stroke="black" points="508,-86.53 476,-86.53 476,-68.53 508,-68.53 508,-86.53"/>
<text text-anchor="middle" x="492" y="-75.33" font-family="Times,serif" font-size="9.00">&#45;14</text>
</g>
<!-- &#45;14&#45;&gt;0 -->
<g id="edge3" class="edge">
<title>&#45;14&#45;&gt;0</title>
<path fill="none" stroke="green" stroke-width="0.37" stroke-dasharray="1,5" d="M475.76,-69.84C450.5,-59.45 401.63,-39.33 372.2,-27.22"/>
<polygon fill="green" stroke="green" stroke-width="0.37" points="373.25,-23.87 362.67,-23.3 370.58,-30.34 373.25,-23.87"/>
</g>
<!-- &#45;14&#45;&gt;1 -->
<g id="edge18" class="edge">
<title>&#45;14&#45;&gt;1</title>
<path fill="none" stroke="red" stroke-width="0.24" d="M508.18,-68.53C528.88,-58.32 564.85,-40.55 588.55,-28.85"/>
<polygon fill="red" stroke="red" stroke-width="0.24" points="590.15,-31.96 597.57,-24.39 587.05,-25.68 590.15,-31.96"/>
</g>
<!-- &#45;15 -->
<g id="node15" class="node">
<title>&#45;15</title>
<polygon fill="lightgray" stroke="black" points="214,-86.53 182,-86.53 182,-68.53 214,-68.53 214,-86.53"/>
<text text-anchor="middle" x="198" y="-75.33" font-family="Times,serif" font-size="9.00">&#45;15</text>
</g>
<!-- &#45;15&#45;&gt;0 -->
<g id="edge6" class="edge">
<title>&#45;15&#45;&gt;0</title>
<path fill="none" stroke="green" stroke-width="0.21" d="M214.05,-70.18C240.26,-59.83 292.42,-39.22 323.35,-27"/>
<polygon fill="green" stroke="green" stroke-width="0.21" points="324.94,-30.14 332.96,-23.21 322.37,-23.63 324.94,-30.14"/>
</g>
<!-- &#45;16 -->
<g id="node16" class="node">
<title>&#45;16</title>
<polygon fill="lightgray" stroke="black" points="558,-86.53 526,-86.53 526,-68.53 558,-68.53 558,-86.53"/>
<text text-anchor="middle" x="542" y="-75.33" font-family="Times,serif" font-size="9.00">&#45;16</text>
</g>
<!-- &#45;16&#45;&gt;0 -->
<g id="edge5" class="edge">
<title>&#45;16&#45;&gt;0</title>
<path fill="none" stroke="green" stroke-width="0.26" d="M525.87,-71.33C522.92,-70.39 519.87,-69.42 517,-68.53 466.02,-52.64 406.19,-34.64 373.15,-24.76"/>
<polygon fill="green" stroke="green" stroke-width="0.26" points="373.99,-21.36 363.4,-21.85 371.98,-28.07 373.99,-21.36"/>
</g>
<!-- &#45;16&#45;&gt;1 -->
<g id="edge10" class="edge">
<title>&#45;16&#45;&gt;1</title>
<path fill="none" stroke="red" stroke-width="0.53" stroke-dasharray="1,5" d="M551.73,-68.29C562.19,-59.44 579.08,-45.14 592.32,-33.92"/>
<polygon fill="red" stroke="red" stroke-width="0.53" points="594.64,-36.55 600.01,-27.42 590.11,-31.21 594.64,-36.55"/>
</g>
<!-- &#45;17 -->
<g id="node17" class="node">
<title>&#45;17</title>
<polygon fill="lightgray" stroke="black" points="414,-86.53 382,-86.53 382,-68.53 414,-68.53 414,-86.53"/>
<text text-anchor="middle" x="398" y="-75.33" font-family="Times,serif" font-size="9.00">&#45;17</text>
</g>
<!-- &#45;17&#45;&gt;0 -->
<g id="edge16" class="edge">
<title>&#45;17&#45;&gt;0</title>
<path fill="none" stroke="green" stroke-width="0.32" d="M391.05,-68.29C384.21,-60.18 373.5,-47.49 364.48,-36.79"/>
<polygon fill="green" stroke="green" stroke-width="0.32" points="367.12,-34.5 358,-29.11 361.77,-39.01 367.12,-34.5"/>
</g>
<!-- &#45;17&#45;&gt;1 -->
<g id="edge14" class="edge">
<title>&#45;17&#45;&gt;1</title>
<path fill="none" stroke="red" stroke-width="0.23" d="M414.11,-71.26C417.06,-70.32 420.12,-69.38 423,-68.53 481.16,-51.34 550.04,-33.21 586.46,-23.8"/>
<polygon fill="red" stroke="red" stroke-width="0.23" points="587.44,-27.16 596.25,-21.28 585.69,-20.39 587.44,-27.16"/>
</g>
<!-- &#45;18 -->
<g id="node18" class="node">
<title>&#45;18</title>
<polygon fill="lightgray" stroke="black" points="264,-86.53 232,-86.53 232,-68.53 264,-68.53 264,-86.53"/>
<text text-anchor="middle" x="248" y="-75.33" font-family="Times,serif" font-size="9.00">&#45;18</text>
</g>
<!-- &#45;18&#45;&gt;0 -->
<g id="edge12" class="edge">
<title>&#45;18&#45;&gt;0</title>
<path fill="none" stroke="red" stroke-width="0.25" d="M261.9,-68.29C278.32,-58.56 305.86,-42.24 325.37,-30.68"/>
<polygon fill="red" stroke="red" stroke-width="0.25" points="327.4,-33.54 334.21,-25.43 323.83,-27.52 327.4,-33.54"/>
</g>
<!-- &#45;19 -->
<g id="node19" class="node">
<title>&#45;19</title>
<polygon fill="lightgray" stroke="black" points="314,-86.53 282,-86.53 282,-68.53 314,-68.53 314,-86.53"/>
<text text-anchor="middle" x="298" y="-75.33" font-family="Times,serif" font-size="9.00">&#45;19</text>
</g>
<!-- &#45;19&#45;&gt;0 -->
<g id="edge2" class="edge">
<title>&#45;19&#45;&gt;0</title>
<path fill="none" stroke="green" stroke-width="0.3" d="M304.95,-68.29C311.79,-60.18 322.5,-47.49 331.52,-36.79"/>
<polygon fill="green" stroke="green" stroke-width="0.3" points="334.23,-39.01 338,-29.11 328.88,-34.5 334.23,-39.01"/>
</g>
<!-- &#45;20 -->
<g id="node20" class="node">
<title>&#45;20</title>
<polygon fill="lightgray" stroke="black" points="364,-86.53 332,-86.53 332,-68.53 364,-68.53 364,-86.53"/>
<text text-anchor="middle" x="348" y="-75.33" font-family="Times,serif" font-size="9.00">&#45;20</text>
</g>
<!-- &#45;20&#45;&gt;0 -->
<g id="edge19" class="edge">
<title>&#45;20&#45;&gt;0</title>
<path fill="none" stroke="green" stroke-width="0.37" d="M348,-68.29C348,-61.7 348,-52.1 348,-43"/>
<polygon fill="green" stroke="green" stroke-width="0.37" points="351.5,-42.76 348,-32.76 344.5,-42.76 351.5,-42.76"/>
</g>
</g>
</svg>
