<?xml version="1.0" encoding="UTF-8" standalone="no"?>
<!DOCTYPE svg PUBLIC "-//W3C//DTD SVG 1.1//EN"
 "http://www.w3.org/Graphics/SVG/1.1/DTD/svg11.dtd">
<!-- Generated by graphviz version 2.43.0 (0)
 -->
<!-- Title: %3 Pages: 1 -->
<svg width="961pt" height="282pt"
 viewBox="0.00 0.00 960.68 282.49" xmlns="http://www.w3.org/2000/svg" xmlns:xlink="http://www.w3.org/1999/xlink">
<g id="graph0" class="graph" transform="scale(1 1) rotate(0) translate(4 278.49)">
<title>%3</title>
<polygon fill="white" stroke="transparent" points="-4,4 -4,-278.49 956.68,-278.49 956.68,4 -4,4"/>
<!-- &#45;1 -->
<g id="node1" class="node">
<title>&#45;1</title>
<polygon fill="lightgray" stroke="black" points="556.68,-106.52 530.68,-106.52 530.68,-88.52 556.68,-88.52 556.68,-106.52"/>
<text text-anchor="middle" x="543.68" y="-95.32" font-family="Times,serif" font-size="9.00">&#45;1</text>
</g>
<!-- 0 -->
<g id="node21" class="node">
<title>0</title>
<ellipse fill="lightblue" stroke="black" cx="647.68" cy="-16.26" rx="16.03" ry="16.03"/>
<text text-anchor="middle" x="647.68" y="-14.06" font-family="Times,serif" font-size="9.00">0</text>
</g>
<!-- &#45;1&#45;&gt;0 -->
<g id="edge3" class="edge">
<title>&#45;1&#45;&gt;0</title>
<path fill="none" stroke="red" stroke-width="0.18" stroke-dasharray="1,5" d="M549,-88.3C553.1,-82.36 559.15,-74.39 565.68,-68.53 583.6,-52.44 607.18,-38.28 624.46,-28.95"/>
<polygon fill="red" stroke="red" stroke-width="0.18" points="626.11,-32.03 633.33,-24.28 622.85,-25.84 626.11,-32.03"/>
</g>
<!-- &#45;2 -->
<g id="node2" class="node">
<title>&#45;2</title>
<polygon fill="lightgray" stroke="black" points="46.68,-106.52 20.68,-106.52 20.68,-88.52 46.68,-88.52 46.68,-106.52"/>
<text text-anchor="middle" x="33.68" y="-95.32" font-family="Times,serif" font-size="9.00">&#45;2</text>
</g>
<!-- 1 -->
<g id="node22" class="node">
<title>1</title>
<ellipse fill="lightblue" stroke="black" cx="200.68" cy="-16.26" rx="16.03" ry="16.03"/>
<text text-anchor="middle" x="200.68" y="-14.06" font-family="Times,serif" font-size="9.00">1</text>
</g>
<!-- &#45;2&#45;&gt;1 -->
<g id="edge6" class="edge">
<title>&#45;2&#45;&gt;1</title>
<path fill="none" stroke="green" stroke-width="0.5" d="M38.32,-88.37C42.23,-82.15 48.35,-73.79 55.68,-68.53 92.36,-42.22 143.84,-28.3 174.57,-21.88"/>
<polygon fill="green" stroke="green" stroke-width="0.5" points="175.38,-25.29 184.51,-19.92 174.02,-18.42 175.38,-25.29"/>
</g>
<!-- &#45;3 -->
<g id="node3" class="node">
<title>&#45;3</title>
<polygon fill="lightgray" stroke="black" points="348.68,-274.49 322.68,-274.49 322.68,-256.49 348.68,-256.49 348.68,-274.49"/>
<text text-anchor="middle" x="335.68" y="-263.29" font-family="Times,serif" font-size="9.00">&#45;3</text>
</g>
<!-- &#45;4 -->
<g id="node4" class="node">
<title>&#45;4</title>
<polygon fill="lightgray" stroke="black" points="600.68,-106.52 574.68,-106.52 574.68,-88.52 600.68,-88.52 600.68,-106.52"/>
<text text-anchor="middle" x="587.68" y="-95.32" font-family="Times,serif" font-size="9.00">&#45;4</text>
</g>
<!-- &#45;4&#45;&gt;0 -->
<g id="edge12" class="edge">
<title>&#45;4&#45;&gt;0</title>
<path fill="none" stroke="red" stroke-width="0.69" d="M593.88,-88.34C602.85,-76.48 619.76,-54.15 632.24,-37.67"/>
<polygon fill="red" stroke="red" stroke-width="0.69" points="635.05,-39.75 638.29,-29.67 629.47,-35.53 635.05,-39.75"/>
</g>
<!-- &#45;5 -->
<g id="node5" class="node">
<title>&#45;5</title>
<polygon fill="lightgray" stroke="black" points="90.68,-106.52 64.68,-106.52 64.68,-88.52 90.68,-88.52 90.68,-106.52"/>
<text text-anchor="middle" x="77.68" y="-95.32" font-family="Times,serif" font-size="9.00">&#45;5</text>
</g>
<!-- &#45;5&#45;&gt;1 -->
<g id="edge17" class="edge">
<title>&#45;5&#45;&gt;1</title>
<path fill="none" stroke="red" stroke-width="0.53" d="M82.68,-88.38C86.7,-82.32 92.8,-74.17 99.68,-68.53 122.91,-49.47 154.39,-34.9 176,-26.25"/>
<polygon fill="red" stroke="red" stroke-width="0.53" points="177.39,-29.46 185.45,-22.59 174.86,-22.93 177.39,-29.46"/>
</g>
<!-- &#45;6 -->
<g id="node6" class="node">
<title>&#45;6</title>
<polygon fill="lightgray" stroke="black" points="392.68,-274.49 366.68,-274.49 366.68,-256.49 392.68,-256.49 392.68,-274.49"/>
<text text-anchor="middle" x="379.68" y="-263.29" font-family="Times,serif" font-size="9.00">&#45;6</text>
</g>
<!-- &#45;7 -->
<g id="node7" class="node">
<title>&#45;7</title>
<polygon fill="lightgray" stroke="black" points="134.68,-106.52 108.68,-106.52 108.68,-88.52 134.68,-88.52 134.68,-106.52"/>
<text text-anchor="middle" x="121.68" y="-95.32" font-family="Times,serif" font-size="9.00">&#45;7</text>
</g>
<!-- &#45;7&#45;&gt;1 -->
<g id="edge14" class="edge">
<title>&#45;7&#45;&gt;1</title>
<path fill="none" stroke="red" stroke-width="0.61" d="M127.5,-88.38C131.75,-82.62 137.77,-74.85 143.68,-68.53 155.25,-56.17 169.38,-43.44 180.69,-33.76"/>
<polygon fill="red" stroke="red" stroke-width="0.61" points="182.96,-36.43 188.34,-27.3 178.44,-31.08 182.96,-36.43"/>
</g>
<!-- &#45;8 -->
<g id="node8" class="node">
<title>&#45;8</title>
<polygon fill="lightgray" stroke="black" points="436.68,-274.49 410.68,-274.49 410.68,-256.49 436.68,-256.49 436.68,-274.49"/>
<text text-anchor="middle" x="423.68" y="-263.29" font-family="Times,serif" font-size="9.00">&#45;8</text>
</g>
<!-- &#45;9 -->
<g id="node9" class="node">
<title>&#45;9</title>
<polygon fill="lightgray" stroke="black" points="480.68,-274.49 454.68,-274.49 454.68,-256.49 480.68,-256.49 480.68,-274.49"/>
<text text-anchor="middle" x="467.68" y="-263.29" font-family="Times,serif" font-size="9.00">&#45;9</text>
</g>
<!-- &#45;10 -->
<g id="node10" class="node">
<title>&#45;10</title>
<polygon fill="lightgray" stroke="black" points="530.68,-274.49 498.68,-274.49 498.68,-256.49 530.68,-256.49 530.68,-274.49"/>
<text text-anchor="middle" x="514.68" y="-263.29" font-family="Times,serif" font-size="9.00">&#45;10</text>
</g>
<!-- &#45;11 -->
<g id="node11" class="node">
<title>&#45;11</title>
<polygon fill="lightgray" stroke="black" points="386.68,-106.52 354.68,-106.52 354.68,-88.52 386.68,-88.52 386.68,-106.52"/>
<text text-anchor="middle" x="370.68" y="-95.32" font-family="Times,serif" font-size="9.00">&#45;11</text>
</g>
<!-- &#45;11&#45;&gt;0 -->
<g id="edge9" class="edge">
<title>&#45;11&#45;&gt;0</title>
<path fill="none" stroke="red" stroke-width="1.01" d="M375.81,-88.34C380.27,-81.93 387.32,-73.33 395.68,-68.53 469.5,-26.14 573.13,-18.46 621.23,-17.29"/>
<polygon fill="red" stroke="red" stroke-width="1.01" points="621.48,-20.79 631.42,-17.13 621.37,-13.79 621.48,-20.79"/>
</g>
<!-- &#45;11&#45;&gt;1 -->
<g id="edge18" class="edge">
<title>&#45;11&#45;&gt;1</title>
<path fill="none" stroke="green" stroke-width="0.79" stroke-dasharray="1,5" d="M363.5,-88.22C357.82,-82.08 349.42,-73.9 340.68,-68.53 303.95,-45.96 255.76,-31.06 226.56,-23.4"/>
<polygon fill="green" stroke="green" stroke-width="0.79" points="227.28,-19.97 216.72,-20.91 225.56,-26.76 227.28,-19.97"/>
</g>
<!-- &#45;12 -->
<g id="node12" class="node">
<title>&#45;12</title>
<polygon fill="lightgray" stroke="black" points="726.68,-106.52 694.68,-106.52 694.68,-88.52 726.68,-88.52 726.68,-106.52"/>
<text text-anchor="middle" x="710.68" y="-95.32" font-family="Times,serif" font-size="9.00">&#45;12</text>
</g>
<!-- &#45;12&#45;&gt;0 -->
<g id="edge11" class="edge">
<title>&#45;12&#45;&gt;0</title>
<path fill="none" stroke="red" stroke-width="0.49" stroke-dasharray="1,5" d="M704.18,-88.34C694.7,-76.41 676.8,-53.89 663.68,-37.39"/>
<polygon fill="red" stroke="red" stroke-width="0.49" points="666.29,-35.04 657.32,-29.39 660.81,-39.4 666.29,-35.04"/>
</g>
<!-- &#45;13 -->
<g id="node13" class="node">
<title>&#45;13</title>
<polygon fill="lightgray" stroke="black" points="776.68,-106.52 744.68,-106.52 744.68,-88.52 776.68,-88.52 776.68,-106.52"/>
<text text-anchor="middle" x="760.68" y="-95.32" font-family="Times,serif" font-size="9.00">&#45;13</text>
</g>
<!-- &#45;13&#45;&gt;0 -->
<g id="edge2" class="edge">
<title>&#45;13&#45;&gt;0</title>
<path fill="none" stroke="green" stroke-width="0.21" d="M754.49,-88.29C749.76,-82.35 742.85,-74.38 735.68,-68.53 715.71,-52.22 689.95,-37.86 671.46,-28.52"/>
<polygon fill="green" stroke="green" stroke-width="0.21" points="672.8,-25.28 662.28,-23.99 669.7,-31.55 672.8,-25.28"/>
</g>
<!-- &#45;14 -->
<g id="node14" class="node">
<title>&#45;14</title>
<polygon fill="lightgray" stroke="black" points="499.68,-200.5 467.68,-200.5 467.68,-182.5 499.68,-182.5 499.68,-200.5"/>
<text text-anchor="middle" x="483.68" y="-189.3" font-family="Times,serif" font-size="9.00">&#45;14</text>
</g>
<!-- &#45;14&#45;&gt;0 -->
<g id="edge5" class="edge">
<title>&#45;14&#45;&gt;0</title>
<path fill="none" stroke="green" stroke-width="0.38" stroke-dasharray="1,5" d="M500.06,-186.47C526.75,-179.09 579.67,-160.88 609.68,-126.51 630.53,-102.64 640.12,-66.68 644.4,-42.61"/>
<polygon fill="green" stroke="green" stroke-width="0.38" points="647.9,-42.9 646.02,-32.47 640.99,-41.79 647.9,-42.9"/>
</g>
<!-- &#45;14&#45;&gt;1 -->
<g id="edge8" class="edge">
<title>&#45;14&#45;&gt;1</title>
<path fill="none" stroke="green" stroke-width="0.12" d="M467.36,-185.86C439.96,-177.46 383.98,-157.69 345.68,-126.51 320.81,-106.25 327.24,-89.18 302.68,-68.53 279.38,-48.93 247.3,-34.39 225.38,-25.89"/>
<polygon fill="green" stroke="green" stroke-width="0.12" points="226.39,-22.54 215.8,-22.32 223.95,-29.09 226.39,-22.54"/>
</g>
<!-- 5344 -->
<g id="node23" class="node">
<title>5344</title>
<ellipse fill="white" stroke="black" cx="483.68" cy="-97.52" rx="28.98" ry="28.98"/>
<text text-anchor="middle" x="483.68" y="-95.32" font-family="Times,serif" font-size="9.00">5344</text>
</g>
<!-- &#45;14&#45;&gt;5344 -->
<g id="edge19" class="edge">
<title>&#45;14&#45;&gt;5344</title>
<path fill="none" stroke="green" stroke-width="0.12" d="M483.68,-182.34C483.68,-172.07 483.68,-153.73 483.68,-136.82"/>
<polygon fill="green" stroke="green" stroke-width="0.12" points="487.18,-136.56 483.68,-126.56 480.18,-136.56 487.18,-136.56"/>
</g>
<!-- &#45;15 -->
<g id="node15" class="node">
<title>&#45;15</title>
<polygon fill="lightgray" stroke="black" points="826.68,-106.52 794.68,-106.52 794.68,-88.52 826.68,-88.52 826.68,-106.52"/>
<text text-anchor="middle" x="810.68" y="-95.32" font-family="Times,serif" font-size="9.00">&#45;15</text>
</g>
<!-- &#45;15&#45;&gt;0 -->
<g id="edge13" class="edge">
<title>&#45;15&#45;&gt;0</title>
<path fill="none" stroke="green" stroke-width="0.15" d="M804.97,-88.17C800.38,-82.01 793.43,-73.81 785.68,-68.53 750.52,-44.54 702.7,-30.06 673.58,-22.88"/>
<polygon fill="green" stroke="green" stroke-width="0.15" points="674.29,-19.45 663.75,-20.56 672.68,-26.26 674.29,-19.45"/>
</g>
<!-- &#45;16 -->
<g id="node16" class="node">
<title>&#45;16</title>
<polygon fill="lightgray" stroke="black" points="580.68,-274.49 548.68,-274.49 548.68,-256.49 580.68,-256.49 580.68,-274.49"/>
<text text-anchor="middle" x="564.68" y="-263.29" font-family="Times,serif" font-size="9.00">&#45;16</text>
</g>
<!-- &#45;17 -->
<g id="node17" class="node">
<title>&#45;17</title>
<polygon fill="lightgray" stroke="black" points="184.68,-106.52 152.68,-106.52 152.68,-88.52 184.68,-88.52 184.68,-106.52"/>
<text text-anchor="middle" x="168.68" y="-95.32" font-family="Times,serif" font-size="9.00">&#45;17</text>
</g>
<!-- &#45;17&#45;&gt;1 -->
<g id="edge15" class="edge">
<title>&#45;17&#45;&gt;1</title>
<path fill="none" stroke="red" stroke-width="0.58" stroke-dasharray="1,5" d="M171.99,-88.34C176.46,-77.26 184.62,-57.06 191.1,-41.01"/>
<polygon fill="red" stroke="red" stroke-width="0.58" points="194.37,-42.26 194.86,-31.68 187.87,-39.64 194.37,-42.26"/>
</g>
<!-- &#45;18 -->
<g id="node18" class="node">
<title>&#45;18</title>
<polygon fill="lightgray" stroke="black" points="304.68,-274.49 272.68,-274.49 272.68,-256.49 304.68,-256.49 304.68,-274.49"/>
<text text-anchor="middle" x="288.68" y="-263.29" font-family="Times,serif" font-size="9.00">&#45;18</text>
</g>
<!-- &#45;18&#45;&gt;0 -->
<g id="edge1" class="edge">
<title>&#45;18&#45;&gt;0</title>
<path fill="none" stroke="green" stroke-width="0.49" d="M304.74,-259.02C307.69,-258.11 310.77,-257.23 313.68,-256.49 399.16,-235.02 427.72,-255.31 508.68,-220.49 573.85,-192.47 602.67,-188.2 637.68,-126.51 652.29,-100.77 652.85,-66.03 651.03,-42.69"/>
<polygon fill="green" stroke="green" stroke-width="0.49" points="654.5,-42.16 650.04,-32.55 647.53,-42.84 654.5,-42.16"/>
</g>
<!-- &#45;18&#45;&gt;1 -->
<g id="edge16" class="edge">
<title>&#45;18&#45;&gt;1</title>
<path fill="none" stroke="green" stroke-width="0.3" stroke-dasharray="1,5" d="M290.1,-256.34C294.56,-228.13 306,-132.81 269.68,-68.53 259.53,-50.56 240.21,-37.04 224.59,-28.41"/>
<polygon fill="green" stroke="green" stroke-width="0.3" points="225.95,-25.17 215.46,-23.68 222.72,-31.39 225.95,-25.17"/>
</g>
<!-- 5496 -->
<g id="node26" class="node">
<title>5496</title>
<ellipse fill="white" stroke="black" cx="231.68" cy="-191.5" rx="28.98" ry="28.98"/>
<text text-anchor="middle" x="231.68" y="-189.3" font-family="Times,serif" font-size="9.00">5496</text>
</g>
<!-- &#45;18&#45;&gt;5496 -->
<g id="edge22" class="edge">
<title>&#45;18&#45;&gt;5496</title>
<path fill="none" stroke="green" stroke-width="0.34" d="M282.15,-256.23C275.62,-247.99 265.2,-234.83 255.52,-222.6"/>
<polygon fill="green" stroke="green" stroke-width="0.34" points="258.26,-220.43 249.31,-214.76 252.77,-224.77 258.26,-220.43"/>
</g>
<!-- &#45;19 -->
<g id="node19" class="node">
<title>&#45;19</title>
<polygon fill="lightgray" stroke="black" points="876.68,-106.52 844.68,-106.52 844.68,-88.52 876.68,-88.52 876.68,-106.52"/>
<text text-anchor="middle" x="860.68" y="-95.32" font-family="Times,serif" font-size="9.00">&#45;19</text>
</g>
<!-- &#45;19&#45;&gt;0 -->
<g id="edge7" class="edge">
<title>&#45;19&#45;&gt;0</title>
<path fill="none" stroke="red" stroke-width="0.27" d="M855.47,-88.48C850.96,-82.16 843.88,-73.6 835.68,-68.53 784.1,-36.62 712.55,-24.26 674.31,-19.72"/>
<polygon fill="red" stroke="red" stroke-width="0.27" points="674.33,-16.2 664.01,-18.59 673.57,-23.16 674.33,-16.2"/>
</g>
<!-- &#45;20 -->
<g id="node20" class="node">
<title>&#45;20</title>
<polygon fill="lightgray" stroke="black" points="436.68,-106.52 404.68,-106.52 404.68,-88.52 436.68,-88.52 436.68,-106.52"/>
<text text-anchor="middle" x="420.68" y="-95.32" font-family="Times,serif" font-size="9.00">&#45;20</text>
</g>
<!-- &#45;20&#45;&gt;0 -->
<g id="edge10" class="edge">
<title>&#45;20&#45;&gt;0</title>
<path fill="none" stroke="green" stroke-width="0.44" stroke-dasharray="1,5" d="M425.88,-88.45C430.37,-82.1 437.44,-73.53 445.68,-68.53 502.22,-34.24 580.97,-22.78 621.42,-19.03"/>
<polygon fill="green" stroke="green" stroke-width="0.44" points="621.86,-22.51 631.53,-18.18 621.27,-15.53 621.86,-22.51"/>
</g>
<!-- &#45;20&#45;&gt;1 -->
<g id="edge4" class="edge">
<title>&#45;20&#45;&gt;1</title>
<path fill="none" stroke="red" stroke-width="0.35" stroke-dasharray="1,5" d="M415.48,-88.46C410.98,-82.13 403.91,-73.56 395.68,-68.53 341.66,-35.44 266.56,-23.52 227.19,-19.37"/>
<polygon fill="red" stroke="red" stroke-width="0.35" points="227.36,-15.87 217.07,-18.39 226.69,-22.84 227.36,-15.87"/>
</g>
<!-- 5344&#45;&gt;0 -->
<g id="edge20" class="edge">
<title>5344&#45;&gt;0</title>
<path fill="none" stroke="green" stroke-width="0.14" stroke-dasharray="1,5" d="M505.97,-78.68C510.99,-75.08 516.39,-71.49 521.68,-68.53 555,-49.86 596.51,-34.32 622.56,-25.41"/>
<polygon fill="green" stroke="green" stroke-width="0.14" points="624.02,-28.61 632.39,-22.11 621.79,-21.97 624.02,-28.61"/>
</g>
<!-- 5539 -->
<g id="node24" class="node">
<title>5539</title>
<ellipse fill="white" stroke="black" cx="231.68" cy="-97.52" rx="28.98" ry="28.98"/>
<text text-anchor="middle" x="231.68" y="-95.32" font-family="Times,serif" font-size="9.00">5539</text>
</g>
<!-- 5539&#45;&gt;1 -->
<g id="edge25" class="edge">
<title>5539&#45;&gt;1</title>
<path fill="none" stroke="red" stroke-width="0.34" d="M221.36,-70.13C217.73,-60.84 213.66,-50.45 210.11,-41.36"/>
<polygon fill="red" stroke="red" stroke-width="0.34" points="213.26,-39.81 206.36,-31.77 206.74,-42.36 213.26,-39.81"/>
</g>
<!-- 5382 -->
<g id="node25" class="node">
<title>5382</title>
<ellipse fill="white" stroke="black" cx="923.68" cy="-97.52" rx="28.98" ry="28.98"/>
<text text-anchor="middle" x="923.68" y="-95.32" font-family="Times,serif" font-size="9.00">5382</text>
</g>
<!-- 5382&#45;&gt;0 -->
<g id="edge21" class="edge">
<title>5382&#45;&gt;0</title>
<path fill="none" stroke="green" stroke-width="0.14" d="M901.76,-77.97C896.72,-74.41 891.21,-71.02 885.68,-68.53 813.42,-35.95 719.31,-23.59 674.14,-19.31"/>
<polygon fill="green" stroke="green" stroke-width="0.14" points="674.28,-15.81 664.01,-18.41 673.66,-22.78 674.28,-15.81"/>
</g>
<!-- 5496&#45;&gt;1 -->
<g id="edge23" class="edge">
<title>5496&#45;&gt;1</title>
<path fill="none" stroke="green" stroke-width="0.25" stroke-dasharray="1,5" d="M202.88,-186.42C148.66,-178.1 34.79,-157.29 11.68,-126.51 -3.79,-105.9 -3.97,-89 11.68,-68.53 31.47,-42.66 127.49,-26.8 174.56,-20.45"/>
<polygon fill="green" stroke="green" stroke-width="0.25" points="175.15,-23.91 184.61,-19.14 174.24,-16.97 175.15,-23.91"/>
</g>
<!-- 5496&#45;&gt;5539 -->
<g id="edge24" class="edge">
<title>5496&#45;&gt;5539</title>
<path fill="none" stroke="green" stroke-width="0.51" d="M231.68,-162.4C231.68,-154.37 231.68,-145.46 231.68,-136.92"/>
<polygon fill="green" stroke="green" stroke-width="0.51" points="235.18,-136.76 231.68,-126.76 228.18,-136.76 235.18,-136.76"/>
</g>
</g>
</svg>
