<?xml version="1.0" encoding="UTF-8" standalone="no"?>
<!DOCTYPE svg PUBLIC "-//W3C//DTD SVG 1.1//EN"
 "http://www.w3.org/Graphics/SVG/1.1/DTD/svg11.dtd">
<!-- Generated by graphviz version 2.43.0 (0)
 -->
<!-- Title: %3 Pages: 1 -->
<svg width="936pt" height="95pt"
 viewBox="0.00 0.00 936.00 94.53" xmlns="http://www.w3.org/2000/svg" xmlns:xlink="http://www.w3.org/1999/xlink">
<g id="graph0" class="graph" transform="scale(1 1) rotate(0) translate(4 90.53)">
<title>%3</title>
<polygon fill="white" stroke="transparent" points="-4,4 -4,-90.53 932,-90.53 932,4 -4,4"/>
<!-- &#45;1 -->
<g id="node1" class="node">
<title>&#45;1</title>
<polygon fill="lightgray" stroke="black" points="26,-86.53 0,-86.53 0,-68.53 26,-68.53 26,-86.53"/>
<text text-anchor="middle" x="13" y="-75.33" font-family="Times,serif" font-size="9.00">&#45;1</text>
</g>
<!-- &#45;2 -->
<g id="node2" class="node">
<title>&#45;2</title>
<polygon fill="lightgray" stroke="black" points="70,-86.53 44,-86.53 44,-68.53 70,-68.53 70,-86.53"/>
<text text-anchor="middle" x="57" y="-75.33" font-family="Times,serif" font-size="9.00">&#45;2</text>
</g>
<!-- &#45;3 -->
<g id="node3" class="node">
<title>&#45;3</title>
<polygon fill="lightgray" stroke="black" points="114,-86.53 88,-86.53 88,-68.53 114,-68.53 114,-86.53"/>
<text text-anchor="middle" x="101" y="-75.33" font-family="Times,serif" font-size="9.00">&#45;3</text>
</g>
<!-- 0 -->
<g id="node21" class="node">
<title>0</title>
<ellipse fill="lightblue" stroke="black" cx="317" cy="-16.26" rx="16.03" ry="16.03"/>
<text text-anchor="middle" x="317" y="-14.06" font-family="Times,serif" font-size="9.00">0</text>
</g>
<!-- &#45;3&#45;&gt;0 -->
<g id="edge6" class="edge">
<title>&#45;3&#45;&gt;0</title>
<path fill="none" stroke="red" stroke-width="0.82" d="M114.43,-71.42C117.25,-70.42 120.21,-69.4 123,-68.53 182.61,-49.86 253.88,-32.19 291.24,-23.28"/>
<polygon fill="red" stroke="red" stroke-width="0.82" points="292.35,-26.62 301.27,-20.91 290.73,-19.81 292.35,-26.62"/>
</g>
<!-- &#45;4 -->
<g id="node4" class="node">
<title>&#45;4</title>
<polygon fill="lightgray" stroke="black" points="602,-86.53 576,-86.53 576,-68.53 602,-68.53 602,-86.53"/>
<text text-anchor="middle" x="589" y="-75.33" font-family="Times,serif" font-size="9.00">&#45;4</text>
</g>
<!-- 1 -->
<g id="node22" class="node">
<title>1</title>
<ellipse fill="lightblue" stroke="black" cx="611" cy="-16.26" rx="16.03" ry="16.03"/>
<text text-anchor="middle" x="611" y="-14.06" font-family="Times,serif" font-size="9.00">1</text>
</g>
<!-- &#45;4&#45;&gt;1 -->
<g id="edge9" class="edge">
<title>&#45;4&#45;&gt;1</title>
<path fill="none" stroke="red" stroke-width="0.17" d="M592.06,-68.29C594.65,-61.3 598.51,-50.91 602.06,-41.33"/>
<polygon fill="red" stroke="red" stroke-width="0.17" points="605.4,-42.41 605.6,-31.82 598.84,-39.97 605.4,-42.41"/>
</g>
<!-- &#45;5 -->
<g id="node5" class="node">
<title>&#45;5</title>
<polygon fill="lightgray" stroke="black" points="646,-86.53 620,-86.53 620,-68.53 646,-68.53 646,-86.53"/>
<text text-anchor="middle" x="633" y="-75.33" font-family="Times,serif" font-size="9.00">&#45;5</text>
</g>
<!-- &#45;5&#45;&gt;1 -->
<g id="edge14" class="edge">
<title>&#45;5&#45;&gt;1</title>
<path fill="none" stroke="green" stroke-width="0.12" d="M629.94,-68.29C627.35,-61.3 623.49,-50.91 619.94,-41.33"/>
<polygon fill="green" stroke="green" stroke-width="0.12" points="623.16,-39.97 616.4,-31.82 616.6,-42.41 623.16,-39.97"/>
</g>
<!-- &#45;6 -->
<g id="node6" class="node">
<title>&#45;6</title>
<polygon fill="lightgray" stroke="black" points="690,-86.53 664,-86.53 664,-68.53 690,-68.53 690,-86.53"/>
<text text-anchor="middle" x="677" y="-75.33" font-family="Times,serif" font-size="9.00">&#45;6</text>
</g>
<!-- &#45;6&#45;&gt;1 -->
<g id="edge5" class="edge">
<title>&#45;6&#45;&gt;1</title>
<path fill="none" stroke="green" stroke-width="1.02" stroke-dasharray="1,5" d="M667.82,-68.29C658.18,-59.62 642.71,-45.74 630.35,-34.64"/>
<polygon fill="green" stroke="green" stroke-width="1.02" points="632.55,-31.91 622.77,-27.83 627.87,-37.12 632.55,-31.91"/>
</g>
<!-- &#45;7 -->
<g id="node7" class="node">
<title>&#45;7</title>
<polygon fill="lightgray" stroke="black" points="734,-86.53 708,-86.53 708,-68.53 734,-68.53 734,-86.53"/>
<text text-anchor="middle" x="721" y="-75.33" font-family="Times,serif" font-size="9.00">&#45;7</text>
</g>
<!-- &#45;7&#45;&gt;1 -->
<g id="edge2" class="edge">
<title>&#45;7&#45;&gt;1</title>
<path fill="none" stroke="green" stroke-width="0.26" stroke-dasharray="1,5" d="M707.95,-69.5C689.72,-59.68 656.37,-41.71 633.94,-29.62"/>
<polygon fill="green" stroke="green" stroke-width="0.26" points="635.54,-26.51 625.07,-24.85 632.22,-32.67 635.54,-26.51"/>
</g>
<!-- &#45;8 -->
<g id="node8" class="node">
<title>&#45;8</title>
<polygon fill="lightgray" stroke="black" points="778,-86.53 752,-86.53 752,-68.53 778,-68.53 778,-86.53"/>
<text text-anchor="middle" x="765" y="-75.33" font-family="Times,serif" font-size="9.00">&#45;8</text>
</g>
<!-- &#45;8&#45;&gt;1 -->
<g id="edge13" class="edge">
<title>&#45;8&#45;&gt;1</title>
<path fill="none" stroke="red" stroke-width="1.33" d="M751.87,-71.47C726.03,-61.53 668.23,-39.29 635.26,-26.6"/>
<polygon fill="red" stroke="red" stroke-width="1.33" points="636.48,-23.32 625.89,-22.99 633.96,-29.85 636.48,-23.32"/>
</g>
<!-- &#45;9 -->
<g id="node9" class="node">
<title>&#45;9</title>
<polygon fill="lightgray" stroke="black" points="158,-86.53 132,-86.53 132,-68.53 158,-68.53 158,-86.53"/>
<text text-anchor="middle" x="145" y="-75.33" font-family="Times,serif" font-size="9.00">&#45;9</text>
</g>
<!-- &#45;9&#45;&gt;0 -->
<g id="edge16" class="edge">
<title>&#45;9&#45;&gt;0</title>
<path fill="none" stroke="red" stroke-width="0.65" d="M158.01,-71.75C160.96,-70.68 164.09,-69.55 167,-68.53 210.88,-53.05 262.22,-35.66 292.04,-25.63"/>
<polygon fill="red" stroke="red" stroke-width="0.65" points="293.27,-28.91 301.63,-22.4 291.04,-22.27 293.27,-28.91"/>
</g>
<!-- &#45;10 -->
<g id="node10" class="node">
<title>&#45;10</title>
<polygon fill="lightgray" stroke="black" points="208,-86.53 176,-86.53 176,-68.53 208,-68.53 208,-86.53"/>
<text text-anchor="middle" x="192" y="-75.33" font-family="Times,serif" font-size="9.00">&#45;10</text>
</g>
<!-- &#45;10&#45;&gt;0 -->
<g id="edge18" class="edge">
<title>&#45;10&#45;&gt;0</title>
<path fill="none" stroke="green" stroke-width="0.21" d="M208.09,-68.9C229.74,-58.63 268.42,-40.29 293.38,-28.46"/>
<polygon fill="green" stroke="green" stroke-width="0.21" points="294.99,-31.57 302.53,-24.13 291.99,-25.25 294.99,-31.57"/>
</g>
<!-- &#45;11 -->
<g id="node11" class="node">
<title>&#45;11</title>
<polygon fill="lightgray" stroke="black" points="508,-86.53 476,-86.53 476,-68.53 508,-68.53 508,-86.53"/>
<text text-anchor="middle" x="492" y="-75.33" font-family="Times,serif" font-size="9.00">&#45;11</text>
</g>
<!-- &#45;11&#45;&gt;0 -->
<g id="edge12" class="edge">
<title>&#45;11&#45;&gt;0</title>
<path fill="none" stroke="green" stroke-width="0.64" d="M475.85,-71.06C445.2,-60.68 378.41,-38.06 341.95,-25.71"/>
<polygon fill="green" stroke="green" stroke-width="0.64" points="342.7,-22.27 332.11,-22.38 340.46,-28.9 342.7,-22.27"/>
</g>
<!-- &#45;11&#45;&gt;1 -->
<g id="edge11" class="edge">
<title>&#45;11&#45;&gt;1</title>
<path fill="none" stroke="red" stroke-width="0.57" d="M508.05,-68.53C528.48,-58.36 563.93,-40.7 587.43,-29"/>
<polygon fill="red" stroke="red" stroke-width="0.57" points="589.3,-31.98 596.69,-24.39 586.18,-25.71 589.3,-31.98"/>
</g>
<!-- &#45;12 -->
<g id="node12" class="node">
<title>&#45;12</title>
<polygon fill="lightgray" stroke="black" points="258,-86.53 226,-86.53 226,-68.53 258,-68.53 258,-86.53"/>
<text text-anchor="middle" x="242" y="-75.33" font-family="Times,serif" font-size="9.00">&#45;12</text>
</g>
<!-- &#45;12&#45;&gt;0 -->
<g id="edge4" class="edge">
<title>&#45;12&#45;&gt;0</title>
<path fill="none" stroke="green" stroke-width="0.48" stroke-dasharray="1,5" d="M252.43,-68.29C263.76,-59.33 282.16,-44.8 296.42,-33.52"/>
<polygon fill="green" stroke="green" stroke-width="0.48" points="298.99,-35.95 304.67,-27.01 294.65,-30.46 298.99,-35.95"/>
</g>
<!-- &#45;13 -->
<g id="node13" class="node">
<title>&#45;13</title>
<polygon fill="lightgray" stroke="black" points="878,-86.53 846,-86.53 846,-68.53 878,-68.53 878,-86.53"/>
<text text-anchor="middle" x="862" y="-75.33" font-family="Times,serif" font-size="9.00">&#45;13</text>
</g>
<!-- &#45;14 -->
<g id="node14" class="node">
<title>&#45;14</title>
<polygon fill="lightgray" stroke="black" points="558,-86.53 526,-86.53 526,-68.53 558,-68.53 558,-86.53"/>
<text text-anchor="middle" x="542" y="-75.33" font-family="Times,serif" font-size="9.00">&#45;14</text>
</g>
<!-- &#45;14&#45;&gt;0 -->
<g id="edge15" class="edge">
<title>&#45;14&#45;&gt;0</title>
<path fill="none" stroke="red" stroke-width="0.44" d="M525.9,-71.22C522.95,-70.29 519.89,-69.36 517,-68.53 454.66,-50.58 380.5,-32.39 342.4,-23.27"/>
<polygon fill="red" stroke="red" stroke-width="0.44" points="343.18,-19.86 332.64,-20.94 341.56,-26.66 343.18,-19.86"/>
</g>
<!-- &#45;14&#45;&gt;1 -->
<g id="edge8" class="edge">
<title>&#45;14&#45;&gt;1</title>
<path fill="none" stroke="green" stroke-width="0.3" d="M551.59,-68.29C561.68,-59.62 577.84,-45.74 590.77,-34.64"/>
<polygon fill="green" stroke="green" stroke-width="0.3" points="593.39,-37 598.69,-27.83 588.83,-31.69 593.39,-37"/>
</g>
<!-- &#45;15 -->
<g id="node15" class="node">
<title>&#45;15</title>
<polygon fill="lightgray" stroke="black" points="308,-86.53 276,-86.53 276,-68.53 308,-68.53 308,-86.53"/>
<text text-anchor="middle" x="292" y="-75.33" font-family="Times,serif" font-size="9.00">&#45;15</text>
</g>
<!-- &#45;15&#45;&gt;0 -->
<g id="edge21" class="edge">
<title>&#45;15&#45;&gt;0</title>
<path fill="none" stroke="red" stroke-width="0.13" d="M295.48,-68.29C298.45,-61.23 302.9,-50.7 306.97,-41.03"/>
<polygon fill="red" stroke="red" stroke-width="0.13" points="310.2,-42.39 310.86,-31.82 303.75,-39.67 310.2,-42.39"/>
</g>
<!-- &#45;16 -->
<g id="node16" class="node">
<title>&#45;16</title>
<polygon fill="lightgray" stroke="black" points="928,-86.53 896,-86.53 896,-68.53 928,-68.53 928,-86.53"/>
<text text-anchor="middle" x="912" y="-75.33" font-family="Times,serif" font-size="9.00">&#45;16</text>
</g>
<!-- &#45;17 -->
<g id="node17" class="node">
<title>&#45;17</title>
<polygon fill="lightgray" stroke="black" points="408,-86.53 376,-86.53 376,-68.53 408,-68.53 408,-86.53"/>
<text text-anchor="middle" x="392" y="-75.33" font-family="Times,serif" font-size="9.00">&#45;17</text>
</g>
<!-- &#45;17&#45;&gt;0 -->
<g id="edge20" class="edge">
<title>&#45;17&#45;&gt;0</title>
<path fill="none" stroke="green" stroke-width="0.26" d="M381.57,-68.29C370.24,-59.33 351.84,-44.8 337.58,-33.52"/>
<polygon fill="green" stroke="green" stroke-width="0.26" points="339.35,-30.46 329.33,-27.01 335.01,-35.95 339.35,-30.46"/>
</g>
<!-- &#45;17&#45;&gt;1 -->
<g id="edge19" class="edge">
<title>&#45;17&#45;&gt;1</title>
<path fill="none" stroke="green" stroke-width="0.81" d="M408.1,-71.24C411.05,-70.31 414.11,-69.37 417,-68.53 476.96,-51.02 548.1,-32.89 585.34,-23.6"/>
<polygon fill="green" stroke="green" stroke-width="0.81" points="586.47,-26.92 595.33,-21.11 584.78,-20.13 586.47,-26.92"/>
</g>
<!-- &#45;18 -->
<g id="node18" class="node">
<title>&#45;18</title>
<polygon fill="lightgray" stroke="black" points="458,-86.53 426,-86.53 426,-68.53 458,-68.53 458,-86.53"/>
<text text-anchor="middle" x="442" y="-75.33" font-family="Times,serif" font-size="9.00">&#45;18</text>
</g>
<!-- &#45;18&#45;&gt;0 -->
<g id="edge1" class="edge">
<title>&#45;18&#45;&gt;0</title>
<path fill="none" stroke="green" stroke-width="0.41" d="M425.91,-68.9C404.26,-58.63 365.58,-40.29 340.62,-28.46"/>
<polygon fill="green" stroke="green" stroke-width="0.41" points="342.01,-25.25 331.47,-24.13 339.01,-31.57 342.01,-25.25"/>
</g>
<!-- &#45;18&#45;&gt;1 -->
<g id="edge7" class="edge">
<title>&#45;18&#45;&gt;1</title>
<path fill="none" stroke="green" stroke-width="1.02" stroke-dasharray="1,5" d="M458.2,-70.84C487.83,-60.46 550.91,-38.33 586.05,-26.01"/>
<polygon fill="green" stroke="green" stroke-width="1.02" points="587.3,-29.28 595.58,-22.67 584.99,-22.68 587.3,-29.28"/>
</g>
<!-- &#45;19 -->
<g id="node19" class="node">
<title>&#45;19</title>
<polygon fill="lightgray" stroke="black" points="358,-86.53 326,-86.53 326,-68.53 358,-68.53 358,-86.53"/>
<text text-anchor="middle" x="342" y="-75.33" font-family="Times,serif" font-size="9.00">&#45;19</text>
</g>
<!-- &#45;19&#45;&gt;0 -->
<g id="edge3" class="edge">
<title>&#45;19&#45;&gt;0</title>
<path fill="none" stroke="red" stroke-width="0.33" d="M338.52,-68.29C335.55,-61.23 331.1,-50.7 327.03,-41.03"/>
<polygon fill="red" stroke="red" stroke-width="0.33" points="330.25,-39.67 323.14,-31.82 323.8,-42.39 330.25,-39.67"/>
</g>
<!-- &#45;20 -->
<g id="node20" class="node">
<title>&#45;20</title>
<polygon fill="lightgray" stroke="black" points="828,-86.53 796,-86.53 796,-68.53 828,-68.53 828,-86.53"/>
<text text-anchor="middle" x="812" y="-75.33" font-family="Times,serif" font-size="9.00">&#45;20</text>
</g>
<!-- &#45;20&#45;&gt;1 -->
<g id="edge10" class="edge">
<title>&#45;20&#45;&gt;1</title>
<path fill="none" stroke="red" stroke-width="0.46" d="M795.88,-71.3C792.93,-70.36 789.88,-69.41 787,-68.53 733.49,-52.18 670.47,-34.1 636.24,-24.39"/>
<polygon fill="red" stroke="red" stroke-width="0.46" points="637.15,-21.01 626.58,-21.65 635.25,-27.75 637.15,-21.01"/>
</g>
<!-- 0&#45;&gt;0 -->
<g id="edge17" class="edge">
<title>0&#45;&gt;0</title>
<path fill="none" stroke="green" stroke-width="0.74" d="M330.36,-26.06C340.71,-29.72 351.26,-26.46 351.26,-16.26 351.26,-9.57 346.72,-5.87 340.67,-5.14"/>
<polygon fill="green" stroke="green" stroke-width="0.74" points="339.84,-1.72 330.36,-6.47 340.73,-8.67 339.84,-1.72"/>
</g>
</g>
</svg>
