<?xml version="1.0" encoding="UTF-8" standalone="no"?>
<!DOCTYPE svg PUBLIC "-//W3C//DTD SVG 1.1//EN"
 "http://www.w3.org/Graphics/SVG/1.1/DTD/svg11.dtd">
<!-- Generated by graphviz version 2.43.0 (0)
 -->
<!-- Title: %3 Pages: 1 -->
<svg width="429pt" height="189pt"
 viewBox="0.00 0.00 429.00 188.51" xmlns="http://www.w3.org/2000/svg" xmlns:xlink="http://www.w3.org/1999/xlink">
<g id="graph0" class="graph" transform="scale(1 1) rotate(0) translate(4 184.51)">
<title>%3</title>
<polygon fill="white" stroke="transparent" points="-4,4 -4,-184.51 425,-184.51 425,4 -4,4"/>
<!-- &#45;1 -->
<g id="node1" class="node">
<title>&#45;1</title>
<polygon fill="lightgray" stroke="black" points="233,-180.51 207,-180.51 207,-162.51 233,-162.51 233,-180.51"/>
<text text-anchor="middle" x="220" y="-169.31" font-family="Times,serif" font-size="9.00">&#45;1</text>
</g>
<!-- 0 -->
<g id="node13" class="node">
<title>0</title>
<ellipse fill="lightblue" stroke="black" cx="176" cy="-16.26" rx="16.03" ry="16.03"/>
<text text-anchor="middle" x="176" y="-14.06" font-family="Times,serif" font-size="9.00">0</text>
</g>
<!-- &#45;1&#45;&gt;0 -->
<g id="edge9" class="edge">
<title>&#45;1&#45;&gt;0</title>
<path fill="none" stroke="red" stroke-width="0.5" stroke-dasharray="1,5" d="M206.74,-168.98C184.86,-165.66 141.73,-155.58 123,-126.51 109.04,-104.85 112.94,-92.25 123,-68.53 129.43,-53.35 142.8,-40.48 154.5,-31.42"/>
<polygon fill="red" stroke="red" stroke-width="0.5" points="156.58,-34.24 162.6,-25.53 152.46,-28.58 156.58,-34.24"/>
</g>
<!-- 6464 -->
<g id="node15" class="node">
<title>6464</title>
<ellipse fill="white" stroke="black" cx="337" cy="-97.52" rx="28.98" ry="28.98"/>
<text text-anchor="middle" x="337" y="-95.32" font-family="Times,serif" font-size="9.00">6464</text>
</g>
<!-- &#45;1&#45;&gt;6464 -->
<g id="edge14" class="edge">
<title>&#45;1&#45;&gt;6464</title>
<path fill="none" stroke="red" stroke-width="0.15" d="M233.16,-163.84C249.08,-155.61 276.55,-140.95 299,-126.51 301.39,-124.97 303.83,-123.34 306.26,-121.66"/>
<polygon fill="red" stroke="red" stroke-width="0.15" points="308.29,-124.51 314.42,-115.87 304.24,-118.8 308.29,-124.51"/>
</g>
<!-- &#45;2 -->
<g id="node2" class="node">
<title>&#45;2</title>
<polygon fill="lightgray" stroke="black" points="158,-106.52 132,-106.52 132,-88.52 158,-88.52 158,-106.52"/>
<text text-anchor="middle" x="145" y="-95.32" font-family="Times,serif" font-size="9.00">&#45;2</text>
</g>
<!-- &#45;2&#45;&gt;0 -->
<g id="edge7" class="edge">
<title>&#45;2&#45;&gt;0</title>
<path fill="none" stroke="red" stroke-width="0.36" stroke-dasharray="1,5" d="M148.2,-88.34C152.53,-77.26 160.43,-57.06 166.71,-41.01"/>
<polygon fill="red" stroke="red" stroke-width="0.36" points="169.98,-42.27 170.36,-31.68 163.46,-39.72 169.98,-42.27"/>
</g>
<!-- 1 -->
<g id="node14" class="node">
<title>1</title>
<ellipse fill="lightblue" stroke="black" cx="245" cy="-16.26" rx="16.03" ry="16.03"/>
<text text-anchor="middle" x="245" y="-14.06" font-family="Times,serif" font-size="9.00">1</text>
</g>
<!-- &#45;2&#45;&gt;1 -->
<g id="edge10" class="edge">
<title>&#45;2&#45;&gt;1</title>
<path fill="none" stroke="green" stroke-width="0.51" d="M150.36,-88.34C154.47,-82.43 160.54,-74.46 167,-68.53 183.76,-53.13 205.6,-39.2 221.91,-29.76"/>
<polygon fill="green" stroke="green" stroke-width="0.51" points="223.81,-32.71 230.79,-24.74 220.36,-26.61 223.81,-32.71"/>
</g>
<!-- &#45;3 -->
<g id="node3" class="node">
<title>&#45;3</title>
<polygon fill="lightgray" stroke="black" points="202,-106.52 176,-106.52 176,-88.52 202,-88.52 202,-106.52"/>
<text text-anchor="middle" x="189" y="-95.32" font-family="Times,serif" font-size="9.00">&#45;3</text>
</g>
<!-- &#45;3&#45;&gt;0 -->
<g id="edge4" class="edge">
<title>&#45;3&#45;&gt;0</title>
<path fill="none" stroke="green" stroke-width="0.28" d="M187.66,-88.34C185.91,-77.67 182.77,-58.51 180.18,-42.77"/>
<polygon fill="green" stroke="green" stroke-width="0.28" points="183.58,-41.87 178.51,-32.57 176.68,-43.01 183.58,-41.87"/>
</g>
<!-- &#45;3&#45;&gt;1 -->
<g id="edge8" class="edge">
<title>&#45;3&#45;&gt;1</title>
<path fill="none" stroke="red" stroke-width="0.17" d="M194.78,-88.34C203.03,-76.66 218.47,-54.81 230.06,-38.4"/>
<polygon fill="red" stroke="red" stroke-width="0.17" points="233.12,-40.14 236.04,-29.95 227.41,-36.1 233.12,-40.14"/>
</g>
<!-- &#45;4 -->
<g id="node4" class="node">
<title>&#45;4</title>
<polygon fill="lightgray" stroke="black" points="26,-106.52 0,-106.52 0,-88.52 26,-88.52 26,-106.52"/>
<text text-anchor="middle" x="13" y="-95.32" font-family="Times,serif" font-size="9.00">&#45;4</text>
</g>
<!-- &#45;4&#45;&gt;0 -->
<g id="edge5" class="edge">
<title>&#45;4&#45;&gt;0</title>
<path fill="none" stroke="green" stroke-width="0.24" d="M17.65,-88.39C21.56,-82.18 27.69,-73.82 35,-68.53 70.32,-42.95 119.76,-28.9 149.73,-22.24"/>
<polygon fill="green" stroke="green" stroke-width="0.24" points="150.77,-25.6 159.84,-20.11 149.33,-18.75 150.77,-25.6"/>
</g>
<!-- &#45;5 -->
<g id="node5" class="node">
<title>&#45;5</title>
<polygon fill="lightgray" stroke="black" points="246,-106.52 220,-106.52 220,-88.52 246,-88.52 246,-106.52"/>
<text text-anchor="middle" x="233" y="-95.32" font-family="Times,serif" font-size="9.00">&#45;5</text>
</g>
<!-- &#45;5&#45;&gt;0 -->
<g id="edge2" class="edge">
<title>&#45;5&#45;&gt;0</title>
<path fill="none" stroke="red" stroke-width="0.1" d="M227.11,-88.34C218.71,-76.66 203,-54.81 191.2,-38.4"/>
<polygon fill="red" stroke="red" stroke-width="0.1" points="193.8,-36.02 185.12,-29.95 188.12,-40.11 193.8,-36.02"/>
</g>
<!-- &#45;5&#45;&gt;1 -->
<g id="edge3" class="edge">
<title>&#45;5&#45;&gt;1</title>
<path fill="none" stroke="green" stroke-width="0.23" d="M234.24,-88.34C235.85,-77.67 238.75,-58.51 241.14,-42.77"/>
<polygon fill="green" stroke="green" stroke-width="0.23" points="244.65,-42.98 242.68,-32.57 237.72,-41.93 244.65,-42.98"/>
</g>
<!-- &#45;6 -->
<g id="node6" class="node">
<title>&#45;6</title>
<polygon fill="lightgray" stroke="black" points="277,-180.51 251,-180.51 251,-162.51 277,-162.51 277,-180.51"/>
<text text-anchor="middle" x="264" y="-169.31" font-family="Times,serif" font-size="9.00">&#45;6</text>
</g>
<!-- &#45;7 -->
<g id="node7" class="node">
<title>&#45;7</title>
<polygon fill="lightgray" stroke="black" points="290,-106.52 264,-106.52 264,-88.52 290,-88.52 290,-106.52"/>
<text text-anchor="middle" x="277" y="-95.32" font-family="Times,serif" font-size="9.00">&#45;7</text>
</g>
<!-- &#45;7&#45;&gt;0 -->
<g id="edge12" class="edge">
<title>&#45;7&#45;&gt;0</title>
<path fill="none" stroke="red" stroke-width="0.78" d="M271.65,-88.33C267.54,-82.41 261.48,-74.45 255,-68.53 237.95,-52.95 215.66,-38.95 199.1,-29.54"/>
<polygon fill="red" stroke="red" stroke-width="0.78" points="200.54,-26.33 190.1,-24.54 197.15,-32.46 200.54,-26.33"/>
</g>
<!-- &#45;7&#45;&gt;1 -->
<g id="edge6" class="edge">
<title>&#45;7&#45;&gt;1</title>
<path fill="none" stroke="green" stroke-width="0.38" d="M273.7,-88.34C269.23,-77.26 261.07,-57.06 254.59,-41.01"/>
<polygon fill="green" stroke="green" stroke-width="0.38" points="257.81,-39.64 250.82,-31.68 251.32,-42.26 257.81,-39.64"/>
</g>
<!-- &#45;8 -->
<g id="node8" class="node">
<title>&#45;8</title>
<polygon fill="lightgray" stroke="black" points="321,-180.51 295,-180.51 295,-162.51 321,-162.51 321,-180.51"/>
<text text-anchor="middle" x="308" y="-169.31" font-family="Times,serif" font-size="9.00">&#45;8</text>
</g>
<!-- &#45;9 -->
<g id="node9" class="node">
<title>&#45;9</title>
<polygon fill="lightgray" stroke="black" points="410,-106.52 384,-106.52 384,-88.52 410,-88.52 410,-106.52"/>
<text text-anchor="middle" x="397" y="-95.32" font-family="Times,serif" font-size="9.00">&#45;9</text>
</g>
<!-- &#45;9&#45;&gt;1 -->
<g id="edge11" class="edge">
<title>&#45;9&#45;&gt;1</title>
<path fill="none" stroke="red" stroke-width="0.37" d="M392.15,-88.19C388.21,-82.04 382.14,-73.84 375,-68.53 342.91,-44.63 298.21,-30.24 270.47,-23.04"/>
<polygon fill="red" stroke="red" stroke-width="0.37" points="271.27,-19.63 260.73,-20.62 269.59,-26.42 271.27,-19.63"/>
</g>
<!-- &#45;10 -->
<g id="node10" class="node">
<title>&#45;10</title>
<polygon fill="lightgray" stroke="black" points="76,-106.52 44,-106.52 44,-88.52 76,-88.52 76,-106.52"/>
<text text-anchor="middle" x="60" y="-95.32" font-family="Times,serif" font-size="9.00">&#45;10</text>
</g>
<!-- &#45;10&#45;&gt;0 -->
<g id="edge1" class="edge">
<title>&#45;10&#45;&gt;0</title>
<path fill="none" stroke="red" stroke-width="0.65" d="M67.74,-88.42C73.57,-82.55 81.91,-74.6 90,-68.53 110.05,-53.47 134.82,-39.1 152.62,-29.43"/>
<polygon fill="red" stroke="red" stroke-width="0.65" points="154.55,-32.36 161.71,-24.56 151.24,-26.19 154.55,-32.36"/>
</g>
<!-- &#45;11 -->
<g id="node11" class="node">
<title>&#45;11</title>
<polygon fill="lightgray" stroke="black" points="371,-180.51 339,-180.51 339,-162.51 371,-162.51 371,-180.51"/>
<text text-anchor="middle" x="355" y="-169.31" font-family="Times,serif" font-size="9.00">&#45;11</text>
</g>
<!-- &#45;12 -->
<g id="node12" class="node">
<title>&#45;12</title>
<polygon fill="lightgray" stroke="black" points="421,-180.51 389,-180.51 389,-162.51 421,-162.51 421,-180.51"/>
<text text-anchor="middle" x="405" y="-169.31" font-family="Times,serif" font-size="9.00">&#45;12</text>
</g>
<!-- 1&#45;&gt;1 -->
<g id="edge13" class="edge">
<title>1&#45;&gt;1</title>
<path fill="none" stroke="green" stroke-width="0.27" d="M256.23,-28.18C267.21,-34.77 279.26,-30.79 279.26,-16.26 279.26,-6.05 273.3,-1.05 265.95,-1.27"/>
<polygon fill="green" stroke="green" stroke-width="0.27" points="264.71,2.01 256.23,-4.34 266.82,-4.67 264.71,2.01"/>
</g>
<!-- 6464&#45;&gt;0 -->
<g id="edge15" class="edge">
<title>6464&#45;&gt;0</title>
<path fill="none" stroke="red" stroke-width="0.23" d="M314.69,-78.72C309.68,-75.11 304.28,-71.51 299,-68.53 266.61,-50.2 226.37,-34.67 200.93,-25.65"/>
<polygon fill="red" stroke="red" stroke-width="0.23" points="201.91,-22.29 191.31,-22.31 199.61,-28.9 201.91,-22.29"/>
</g>
<!-- 6464&#45;&gt;1 -->
<g id="edge16" class="edge">
<title>6464&#45;&gt;1</title>
<path fill="none" stroke="red" stroke-width="0.4" d="M315.2,-77.74C299.86,-64.53 279.52,-47 264.68,-34.22"/>
<polygon fill="red" stroke="red" stroke-width="0.4" points="266.93,-31.53 257.07,-27.66 262.36,-36.84 266.93,-31.53"/>
</g>
</g>
</svg>
