<?xml version="1.0" encoding="UTF-8" standalone="no"?>
<!DOCTYPE svg PUBLIC "-//W3C//DTD SVG 1.1//EN"
 "http://www.w3.org/Graphics/SVG/1.1/DTD/svg11.dtd">
<!-- Generated by graphviz version 2.43.0 (0)
 -->
<!-- Title: %3 Pages: 1 -->
<svg width="774pt" height="189pt"
 viewBox="0.00 0.00 774.00 188.51" xmlns="http://www.w3.org/2000/svg" xmlns:xlink="http://www.w3.org/1999/xlink">
<g id="graph0" class="graph" transform="scale(1 1) rotate(0) translate(4 184.51)">
<title>%3</title>
<polygon fill="white" stroke="transparent" points="-4,4 -4,-184.51 770,-184.51 770,4 -4,4"/>
<!-- &#45;1 -->
<g id="node1" class="node">
<title>&#45;1</title>
<polygon fill="lightgray" stroke="black" points="152,-106.52 126,-106.52 126,-88.52 152,-88.52 152,-106.52"/>
<text text-anchor="middle" x="139" y="-95.32" font-family="Times,serif" font-size="9.00">&#45;1</text>
</g>
<!-- 0 -->
<g id="node21" class="node">
<title>0</title>
<ellipse fill="lightblue" stroke="black" cx="202" cy="-16.26" rx="16.03" ry="16.03"/>
<text text-anchor="middle" x="202" y="-14.06" font-family="Times,serif" font-size="9.00">0</text>
</g>
<!-- &#45;1&#45;&gt;0 -->
<g id="edge7" class="edge">
<title>&#45;1&#45;&gt;0</title>
<path fill="none" stroke="red" stroke-width="0.17" d="M145.5,-88.34C154.98,-76.41 172.88,-53.89 186,-37.39"/>
<polygon fill="red" stroke="red" stroke-width="0.17" points="188.88,-39.4 192.36,-29.39 183.4,-35.04 188.88,-39.4"/>
</g>
<!-- &#45;2 -->
<g id="node2" class="node">
<title>&#45;2</title>
<polygon fill="lightgray" stroke="black" points="422,-106.52 396,-106.52 396,-88.52 422,-88.52 422,-106.52"/>
<text text-anchor="middle" x="409" y="-95.32" font-family="Times,serif" font-size="9.00">&#45;2</text>
</g>
<!-- 1 -->
<g id="node22" class="node">
<title>1</title>
<ellipse fill="lightblue" stroke="black" cx="500" cy="-16.26" rx="16.03" ry="16.03"/>
<text text-anchor="middle" x="500" y="-14.06" font-family="Times,serif" font-size="9.00">1</text>
</g>
<!-- &#45;2&#45;&gt;1 -->
<g id="edge18" class="edge">
<title>&#45;2&#45;&gt;1</title>
<path fill="none" stroke="red" stroke-width="0.54" d="M414.46,-88.45C418.63,-82.59 424.71,-74.65 431,-68.53 445.39,-54.52 463.71,-41.08 477.86,-31.48"/>
<polygon fill="red" stroke="red" stroke-width="0.54" points="480.08,-34.2 486.47,-25.75 476.2,-28.37 480.08,-34.2"/>
</g>
<!-- &#45;3 -->
<g id="node3" class="node">
<title>&#45;3</title>
<polygon fill="lightgray" stroke="black" points="284,-106.52 258,-106.52 258,-88.52 284,-88.52 284,-106.52"/>
<text text-anchor="middle" x="271" y="-95.32" font-family="Times,serif" font-size="9.00">&#45;3</text>
</g>
<!-- &#45;3&#45;&gt;0 -->
<g id="edge12" class="edge">
<title>&#45;3&#45;&gt;0</title>
<path fill="none" stroke="red" stroke-width="0.16" d="M264.62,-88.06C260.31,-82.43 254.44,-74.93 249,-68.53 239.72,-57.6 228.93,-45.78 220.04,-36.24"/>
<polygon fill="red" stroke="red" stroke-width="0.16" points="222.48,-33.74 213.09,-28.84 217.38,-38.53 222.48,-33.74"/>
</g>
<!-- &#45;3&#45;&gt;1 -->
<g id="edge15" class="edge">
<title>&#45;3&#45;&gt;1</title>
<path fill="none" stroke="red" stroke-width="0.51" d="M275.34,-88.43C279.16,-82.07 285.32,-73.49 293,-68.53 350.09,-31.63 431.76,-21.29 473.39,-18.39"/>
<polygon fill="red" stroke="red" stroke-width="0.51" points="473.77,-21.88 483.55,-17.78 473.35,-14.89 473.77,-21.88"/>
</g>
<!-- &#45;4 -->
<g id="node4" class="node">
<title>&#45;4</title>
<polygon fill="lightgray" stroke="black" points="142,-180.51 116,-180.51 116,-162.51 142,-162.51 142,-180.51"/>
<text text-anchor="middle" x="129" y="-169.31" font-family="Times,serif" font-size="9.00">&#45;4</text>
</g>
<!-- &#45;4&#45;&gt;0 -->
<g id="edge20" class="edge">
<title>&#45;4&#45;&gt;0</title>
<path fill="none" stroke="red" stroke-width="0.29" stroke-dasharray="1,5" d="M136.1,-162.2C143.13,-153.68 153.84,-139.82 161,-126.51 175.84,-98.95 187.7,-64.85 194.78,-42.16"/>
<polygon fill="red" stroke="red" stroke-width="0.29" points="198.21,-42.89 197.77,-32.3 191.51,-40.85 198.21,-42.89"/>
</g>
<!-- 6269 -->
<g id="node23" class="node">
<title>6269</title>
<ellipse fill="white" stroke="black" cx="79" cy="-97.52" rx="28.98" ry="28.98"/>
<text text-anchor="middle" x="79" y="-95.32" font-family="Times,serif" font-size="9.00">6269</text>
</g>
<!-- &#45;4&#45;&gt;6269 -->
<g id="edge21" class="edge">
<title>&#45;4&#45;&gt;6269</title>
<path fill="none" stroke="green" stroke-width="0.16" d="M123.26,-162.25C117.77,-154.35 109.14,-141.91 100.95,-130.12"/>
<polygon fill="green" stroke="green" stroke-width="0.16" points="103.69,-127.93 95.11,-121.71 97.94,-131.92 103.69,-127.93"/>
</g>
<!-- &#45;5 -->
<g id="node5" class="node">
<title>&#45;5</title>
<polygon fill="lightgray" stroke="black" points="186,-180.51 160,-180.51 160,-162.51 186,-162.51 186,-180.51"/>
<text text-anchor="middle" x="173" y="-169.31" font-family="Times,serif" font-size="9.00">&#45;5</text>
</g>
<!-- &#45;6 -->
<g id="node6" class="node">
<title>&#45;6</title>
<polygon fill="lightgray" stroke="black" points="230,-180.51 204,-180.51 204,-162.51 230,-162.51 230,-180.51"/>
<text text-anchor="middle" x="217" y="-169.31" font-family="Times,serif" font-size="9.00">&#45;6</text>
</g>
<!-- &#45;7 -->
<g id="node7" class="node">
<title>&#45;7</title>
<polygon fill="lightgray" stroke="black" points="466,-106.52 440,-106.52 440,-88.52 466,-88.52 466,-106.52"/>
<text text-anchor="middle" x="453" y="-95.32" font-family="Times,serif" font-size="9.00">&#45;7</text>
</g>
<!-- &#45;7&#45;&gt;1 -->
<g id="edge17" class="edge">
<title>&#45;7&#45;&gt;1</title>
<path fill="none" stroke="green" stroke-width="0.41" d="M457.85,-88.34C464.64,-76.9 477.21,-55.7 486.86,-39.42"/>
<polygon fill="green" stroke="green" stroke-width="0.41" points="490.05,-40.9 492.14,-30.52 484.03,-37.33 490.05,-40.9"/>
</g>
<!-- &#45;8 -->
<g id="node8" class="node">
<title>&#45;8</title>
<polygon fill="lightgray" stroke="black" points="328,-106.52 302,-106.52 302,-88.52 328,-88.52 328,-106.52"/>
<text text-anchor="middle" x="315" y="-95.32" font-family="Times,serif" font-size="9.00">&#45;8</text>
</g>
<!-- &#45;8&#45;&gt;0 -->
<g id="edge9" class="edge">
<title>&#45;8&#45;&gt;0</title>
<path fill="none" stroke="red" stroke-width="0.64" stroke-dasharray="1,5" d="M309.93,-88.46C305.87,-82.45 299.76,-74.32 293,-68.53 272.6,-51.04 245.33,-36.62 225.98,-27.58"/>
<polygon fill="red" stroke="red" stroke-width="0.64" points="227.21,-24.29 216.66,-23.35 224.32,-30.67 227.21,-24.29"/>
</g>
<!-- &#45;8&#45;&gt;1 -->
<g id="edge3" class="edge">
<title>&#45;8&#45;&gt;1</title>
<path fill="none" stroke="green" stroke-width="0.33" d="M319.58,-88.3C323.46,-82.04 329.58,-73.66 337,-68.53 379.5,-39.16 439.61,-26.02 473.7,-20.63"/>
<polygon fill="green" stroke="green" stroke-width="0.33" points="474.42,-24.06 483.8,-19.14 473.4,-17.13 474.42,-24.06"/>
</g>
<!-- &#45;9 -->
<g id="node9" class="node">
<title>&#45;9</title>
<polygon fill="lightgray" stroke="black" points="274,-180.51 248,-180.51 248,-162.51 274,-162.51 274,-180.51"/>
<text text-anchor="middle" x="261" y="-169.31" font-family="Times,serif" font-size="9.00">&#45;9</text>
</g>
<!-- &#45;10 -->
<g id="node10" class="node">
<title>&#45;10</title>
<polygon fill="lightgray" stroke="black" points="240,-106.52 208,-106.52 208,-88.52 240,-88.52 240,-106.52"/>
<text text-anchor="middle" x="224" y="-95.32" font-family="Times,serif" font-size="9.00">&#45;10</text>
</g>
<!-- &#45;10&#45;&gt;0 -->
<g id="edge6" class="edge">
<title>&#45;10&#45;&gt;0</title>
<path fill="none" stroke="green" stroke-width="0.34" d="M221.73,-88.34C218.72,-77.5 213.28,-57.91 208.88,-42.04"/>
<polygon fill="green" stroke="green" stroke-width="0.34" points="212.21,-40.97 206.17,-32.27 205.47,-42.84 212.21,-40.97"/>
</g>
<!-- &#45;11 -->
<g id="node11" class="node">
<title>&#45;11</title>
<polygon fill="lightgray" stroke="black" points="516,-106.52 484,-106.52 484,-88.52 516,-88.52 516,-106.52"/>
<text text-anchor="middle" x="500" y="-95.32" font-family="Times,serif" font-size="9.00">&#45;11</text>
</g>
<!-- &#45;11&#45;&gt;1 -->
<g id="edge4" class="edge">
<title>&#45;11&#45;&gt;1</title>
<path fill="none" stroke="green" stroke-width="0.37" d="M500,-88.34C500,-77.67 500,-58.51 500,-42.77"/>
<polygon fill="green" stroke="green" stroke-width="0.37" points="503.5,-42.57 500,-32.57 496.5,-42.57 503.5,-42.57"/>
</g>
<!-- &#45;12 -->
<g id="node12" class="node">
<title>&#45;12</title>
<polygon fill="lightgray" stroke="black" points="566,-106.52 534,-106.52 534,-88.52 566,-88.52 566,-106.52"/>
<text text-anchor="middle" x="550" y="-95.32" font-family="Times,serif" font-size="9.00">&#45;12</text>
</g>
<!-- &#45;12&#45;&gt;1 -->
<g id="edge16" class="edge">
<title>&#45;12&#45;&gt;1</title>
<path fill="none" stroke="green" stroke-width="0.15" d="M544.84,-88.34C537.62,-76.9 524.25,-55.7 513.98,-39.42"/>
<polygon fill="green" stroke="green" stroke-width="0.15" points="516.66,-37.11 508.36,-30.52 510.74,-40.84 516.66,-37.11"/>
</g>
<!-- &#45;13 -->
<g id="node13" class="node">
<title>&#45;13</title>
<polygon fill="lightgray" stroke="black" points="324,-180.51 292,-180.51 292,-162.51 324,-162.51 324,-180.51"/>
<text text-anchor="middle" x="308" y="-169.31" font-family="Times,serif" font-size="9.00">&#45;13</text>
</g>
<!-- &#45;14 -->
<g id="node14" class="node">
<title>&#45;14</title>
<polygon fill="lightgray" stroke="black" points="32,-106.52 0,-106.52 0,-88.52 32,-88.52 32,-106.52"/>
<text text-anchor="middle" x="16" y="-95.32" font-family="Times,serif" font-size="9.00">&#45;14</text>
</g>
<!-- &#45;14&#45;&gt;0 -->
<g id="edge5" class="edge">
<title>&#45;14&#45;&gt;0</title>
<path fill="none" stroke="red" stroke-width="0.45" d="M21.46,-88.32C26.01,-82.08 33.02,-73.7 41,-68.53 83.65,-40.89 142.31,-27.18 175.78,-21.21"/>
<polygon fill="red" stroke="red" stroke-width="0.45" points="176.43,-24.65 185.71,-19.53 175.26,-17.74 176.43,-24.65"/>
</g>
<!-- &#45;15 -->
<g id="node15" class="node">
<title>&#45;15</title>
<polygon fill="lightgray" stroke="black" points="616,-106.52 584,-106.52 584,-88.52 616,-88.52 616,-106.52"/>
<text text-anchor="middle" x="600" y="-95.32" font-family="Times,serif" font-size="9.00">&#45;15</text>
</g>
<!-- &#45;15&#45;&gt;1 -->
<g id="edge11" class="edge">
<title>&#45;15&#45;&gt;1</title>
<path fill="none" stroke="green" stroke-width="0.3" d="M593.68,-88.44C588.88,-82.58 581.95,-74.63 575,-68.53 558.61,-54.13 538.04,-40.33 522.59,-30.68"/>
<polygon fill="green" stroke="green" stroke-width="0.3" points="524.07,-27.48 513.72,-25.24 520.41,-33.45 524.07,-27.48"/>
</g>
<!-- &#45;16 -->
<g id="node16" class="node">
<title>&#45;16</title>
<polygon fill="lightgray" stroke="black" points="666,-106.52 634,-106.52 634,-88.52 666,-88.52 666,-106.52"/>
<text text-anchor="middle" x="650" y="-95.32" font-family="Times,serif" font-size="9.00">&#45;16</text>
</g>
<!-- &#45;16&#45;&gt;1 -->
<g id="edge13" class="edge">
<title>&#45;16&#45;&gt;1</title>
<path fill="none" stroke="green" stroke-width="0.2" d="M644.23,-88.24C639.61,-82.12 632.66,-73.94 625,-68.53 593.89,-46.53 551.93,-31.81 525.42,-23.99"/>
<polygon fill="green" stroke="green" stroke-width="0.2" points="526.31,-20.6 515.74,-21.23 524.4,-27.33 526.31,-20.6"/>
</g>
<!-- &#45;17 -->
<g id="node17" class="node">
<title>&#45;17</title>
<polygon fill="lightgray" stroke="black" points="716,-106.52 684,-106.52 684,-88.52 716,-88.52 716,-106.52"/>
<text text-anchor="middle" x="700" y="-95.32" font-family="Times,serif" font-size="9.00">&#45;17</text>
</g>
<!-- &#45;17&#45;&gt;1 -->
<g id="edge2" class="edge">
<title>&#45;17&#45;&gt;1</title>
<path fill="none" stroke="green" stroke-width="0.23" stroke-dasharray="1,5" d="M694.57,-88.27C690.04,-82 683.04,-73.61 675,-68.53 627.7,-38.65 562.31,-25.59 526.35,-20.37"/>
<polygon fill="green" stroke="green" stroke-width="0.23" points="526.56,-16.87 516.18,-18.99 525.62,-23.81 526.56,-16.87"/>
</g>
<!-- &#45;18 -->
<g id="node18" class="node">
<title>&#45;18</title>
<polygon fill="lightgray" stroke="black" points="766,-106.52 734,-106.52 734,-88.52 766,-88.52 766,-106.52"/>
<text text-anchor="middle" x="750" y="-95.32" font-family="Times,serif" font-size="9.00">&#45;18</text>
</g>
<!-- &#45;18&#45;&gt;1 -->
<g id="edge8" class="edge">
<title>&#45;18&#45;&gt;1</title>
<path fill="none" stroke="red" stroke-width="0.24" d="M744.84,-88.39C740.36,-82.02 733.31,-73.43 725,-68.53 660.58,-30.53 570.47,-20.69 526.39,-18.15"/>
<polygon fill="red" stroke="red" stroke-width="0.24" points="526.38,-14.64 516.22,-17.64 526.03,-21.63 526.38,-14.64"/>
</g>
<!-- &#45;19 -->
<g id="node19" class="node">
<title>&#45;19</title>
<polygon fill="lightgray" stroke="black" points="374,-180.51 342,-180.51 342,-162.51 374,-162.51 374,-180.51"/>
<text text-anchor="middle" x="358" y="-169.31" font-family="Times,serif" font-size="9.00">&#45;19</text>
</g>
<!-- &#45;20 -->
<g id="node20" class="node">
<title>&#45;20</title>
<polygon fill="lightgray" stroke="black" points="378,-106.52 346,-106.52 346,-88.52 378,-88.52 378,-106.52"/>
<text text-anchor="middle" x="362" y="-95.32" font-family="Times,serif" font-size="9.00">&#45;20</text>
</g>
<!-- &#45;20&#45;&gt;0 -->
<g id="edge10" class="edge">
<title>&#45;20&#45;&gt;0</title>
<path fill="none" stroke="red" stroke-width="0.31" d="M356.27,-88.19C351.68,-82.04 344.73,-73.84 337,-68.53 302.75,-44.97 256.23,-30.43 227.7,-23.1"/>
<polygon fill="red" stroke="red" stroke-width="0.31" points="228.26,-19.63 217.72,-20.64 226.59,-26.43 228.26,-19.63"/>
</g>
<!-- &#45;20&#45;&gt;1 -->
<g id="edge1" class="edge">
<title>&#45;20&#45;&gt;1</title>
<path fill="none" stroke="green" stroke-width="0.47" d="M367.83,-88.32C372.47,-82.25 379.44,-74.08 387,-68.53 414.37,-48.41 450.89,-33.63 474.91,-25.24"/>
<polygon fill="green" stroke="green" stroke-width="0.47" points="476.32,-28.46 484.68,-21.94 474.08,-21.82 476.32,-28.46"/>
</g>
<!-- 0&#45;&gt;0 -->
<g id="edge19" class="edge">
<title>0&#45;&gt;0</title>
<path fill="none" stroke="red" stroke-width="0.32" d="M213.23,-28.18C224.21,-34.77 236.26,-30.79 236.26,-16.26 236.26,-6.05 230.3,-1.05 222.95,-1.27"/>
<polygon fill="red" stroke="red" stroke-width="0.32" points="221.71,2.01 213.23,-4.34 223.82,-4.67 221.71,2.01"/>
</g>
<!-- 1&#45;&gt;1 -->
<g id="edge14" class="edge">
<title>1&#45;&gt;1</title>
<path fill="none" stroke="red" stroke-width="0.23" d="M511.23,-28.18C522.21,-34.77 534.26,-30.79 534.26,-16.26 534.26,-6.05 528.3,-1.05 520.95,-1.27"/>
<polygon fill="red" stroke="red" stroke-width="0.23" points="519.71,2.01 511.23,-4.34 521.82,-4.67 519.71,2.01"/>
</g>
<!-- 6269&#45;&gt;0 -->
<g id="edge22" class="edge">
<title>6269&#45;&gt;0</title>
<path fill="none" stroke="green" stroke-width="0.33" d="M101.66,-79.3C106.66,-75.65 111.96,-71.89 117,-68.53 137.68,-54.72 162.05,-40.19 179.38,-30.14"/>
<polygon fill="green" stroke="green" stroke-width="0.33" points="181.3,-33.08 188.22,-25.05 177.8,-27.01 181.3,-33.08"/>
</g>
</g>
</svg>
