<?xml version="1.0" encoding="UTF-8" standalone="no"?>
<!DOCTYPE svg PUBLIC "-//W3C//DTD SVG 1.1//EN"
 "http://www.w3.org/Graphics/SVG/1.1/DTD/svg11.dtd">
<!-- Generated by graphviz version 2.43.0 (0)
 -->
<!-- Title: %3 Pages: 1 -->
<svg width="922pt" height="189pt"
 viewBox="0.00 0.00 921.99 188.51" xmlns="http://www.w3.org/2000/svg" xmlns:xlink="http://www.w3.org/1999/xlink">
<g id="graph0" class="graph" transform="scale(1 1) rotate(0) translate(4 184.51)">
<title>%3</title>
<polygon fill="white" stroke="transparent" points="-4,4 -4,-184.51 917.99,-184.51 917.99,4 -4,4"/>
<!-- &#45;1 -->
<g id="node1" class="node">
<title>&#45;1</title>
<polygon fill="lightgray" stroke="black" points="98.99,-180.51 72.99,-180.51 72.99,-162.51 98.99,-162.51 98.99,-180.51"/>
<text text-anchor="middle" x="85.99" y="-169.31" font-family="Times,serif" font-size="9.00">&#45;1</text>
</g>
<!-- &#45;2 -->
<g id="node2" class="node">
<title>&#45;2</title>
<polygon fill="lightgray" stroke="black" points="233.99,-106.52 207.99,-106.52 207.99,-88.52 233.99,-88.52 233.99,-106.52"/>
<text text-anchor="middle" x="220.99" y="-95.32" font-family="Times,serif" font-size="9.00">&#45;2</text>
</g>
<!-- 0 -->
<g id="node21" class="node">
<title>0</title>
<ellipse fill="lightblue" stroke="black" cx="129.99" cy="-16.26" rx="16.03" ry="16.03"/>
<text text-anchor="middle" x="129.99" y="-14.06" font-family="Times,serif" font-size="9.00">0</text>
</g>
<!-- &#45;2&#45;&gt;0 -->
<g id="edge7" class="edge">
<title>&#45;2&#45;&gt;0</title>
<path fill="none" stroke="green" stroke-width="1.01" d="M215.53,-88.45C211.36,-82.59 205.28,-74.65 198.99,-68.53 184.6,-54.52 166.28,-41.08 152.14,-31.48"/>
<polygon fill="green" stroke="green" stroke-width="1.01" points="153.79,-28.37 143.52,-25.75 149.91,-34.2 153.79,-28.37"/>
</g>
<!-- 1 -->
<g id="node22" class="node">
<title>1</title>
<ellipse fill="lightblue" stroke="black" cx="349.99" cy="-16.26" rx="16.03" ry="16.03"/>
<text text-anchor="middle" x="349.99" y="-14.06" font-family="Times,serif" font-size="9.00">1</text>
</g>
<!-- &#45;2&#45;&gt;1 -->
<g id="edge9" class="edge">
<title>&#45;2&#45;&gt;1</title>
<path fill="none" stroke="green" stroke-width="0.27" d="M227.48,-88.44C232.6,-82.43 240.16,-74.29 247.99,-68.53 272.38,-50.57 303.99,-35.79 325.52,-26.79"/>
<polygon fill="green" stroke="green" stroke-width="0.27" points="326.98,-29.97 334.92,-22.95 324.34,-23.49 326.98,-29.97"/>
</g>
<!-- &#45;3 -->
<g id="node3" class="node">
<title>&#45;3</title>
<polygon fill="lightgray" stroke="black" points="101.99,-106.52 75.99,-106.52 75.99,-88.52 101.99,-88.52 101.99,-106.52"/>
<text text-anchor="middle" x="88.99" y="-95.32" font-family="Times,serif" font-size="9.00">&#45;3</text>
</g>
<!-- &#45;3&#45;&gt;0 -->
<g id="edge8" class="edge">
<title>&#45;3&#45;&gt;0</title>
<path fill="none" stroke="red" stroke-width="0.32" stroke-dasharray="1,5" d="M93.22,-88.34C99.07,-77.03 109.85,-56.19 118.24,-39.99"/>
<polygon fill="red" stroke="red" stroke-width="0.32" points="121.35,-41.58 122.84,-31.09 115.13,-38.37 121.35,-41.58"/>
</g>
<!-- &#45;4 -->
<g id="node4" class="node">
<title>&#45;4</title>
<polygon fill="lightgray" stroke="black" points="431.99,-180.51 405.99,-180.51 405.99,-162.51 431.99,-162.51 431.99,-180.51"/>
<text text-anchor="middle" x="418.99" y="-169.31" font-family="Times,serif" font-size="9.00">&#45;4</text>
</g>
<!-- &#45;5 -->
<g id="node5" class="node">
<title>&#45;5</title>
<polygon fill="lightgray" stroke="black" points="475.99,-180.51 449.99,-180.51 449.99,-162.51 475.99,-162.51 475.99,-180.51"/>
<text text-anchor="middle" x="462.99" y="-169.31" font-family="Times,serif" font-size="9.00">&#45;5</text>
</g>
<!-- &#45;6 -->
<g id="node6" class="node">
<title>&#45;6</title>
<polygon fill="lightgray" stroke="black" points="479.99,-106.52 453.99,-106.52 453.99,-88.52 479.99,-88.52 479.99,-106.52"/>
<text text-anchor="middle" x="466.99" y="-95.32" font-family="Times,serif" font-size="9.00">&#45;6</text>
</g>
<!-- &#45;6&#45;&gt;1 -->
<g id="edge1" class="edge">
<title>&#45;6&#45;&gt;1</title>
<path fill="none" stroke="green" stroke-width="0.27" d="M460.2,-88.31C455.04,-82.38 447.56,-74.41 439.99,-68.53 419.07,-52.27 392.43,-37.75 373.57,-28.35"/>
<polygon fill="green" stroke="green" stroke-width="0.27" points="375.01,-25.16 364.49,-23.92 371.94,-31.45 375.01,-25.16"/>
</g>
<!-- &#45;7 -->
<g id="node7" class="node">
<title>&#45;7</title>
<polygon fill="lightgray" stroke="black" points="519.99,-180.51 493.99,-180.51 493.99,-162.51 519.99,-162.51 519.99,-180.51"/>
<text text-anchor="middle" x="506.99" y="-169.31" font-family="Times,serif" font-size="9.00">&#45;7</text>
</g>
<!-- &#45;8 -->
<g id="node8" class="node">
<title>&#45;8</title>
<polygon fill="lightgray" stroke="black" points="142.99,-180.51 116.99,-180.51 116.99,-162.51 142.99,-162.51 142.99,-180.51"/>
<text text-anchor="middle" x="129.99" y="-169.31" font-family="Times,serif" font-size="9.00">&#45;8</text>
</g>
<!-- &#45;8&#45;&gt;0 -->
<g id="edge2" class="edge">
<title>&#45;8&#45;&gt;0</title>
<path fill="none" stroke="red" stroke-width="2.02" stroke-dasharray="1,5" d="M129.99,-162.27C129.99,-140.07 129.99,-78.31 129.99,-42.97"/>
<polygon fill="red" stroke="red" stroke-width="2.02" points="133.49,-42.92 129.99,-32.92 126.49,-42.92 133.49,-42.92"/>
</g>
<!-- &#45;8&#45;&gt;1 -->
<g id="edge6" class="edge">
<title>&#45;8&#45;&gt;1</title>
<path fill="none" stroke="red" stroke-width="0.18" stroke-dasharray="1,5" d="M143.17,-168.12C165.71,-163.48 212.24,-151.43 242.99,-126.51 266.93,-107.11 259.85,-90.95 280.99,-68.53 294.85,-53.83 313.34,-40.34 327.69,-30.9"/>
<polygon fill="red" stroke="red" stroke-width="0.18" points="329.9,-33.64 336.44,-25.3 326.13,-27.74 329.9,-33.64"/>
</g>
<!-- 5983 -->
<g id="node24" class="node">
<title>5983</title>
<ellipse fill="white" stroke="black" cx="28.99" cy="-97.52" rx="28.98" ry="28.98"/>
<text text-anchor="middle" x="28.99" y="-95.32" font-family="Times,serif" font-size="9.00">5983</text>
</g>
<!-- &#45;8&#45;&gt;5983 -->
<g id="edge13" class="edge">
<title>&#45;8&#45;&gt;5983</title>
<path fill="none" stroke="green" stroke-width="0.3" d="M118.32,-162.49C105.62,-153.73 84.77,-139.26 66.99,-126.51 64.68,-124.85 62.3,-123.13 59.91,-121.39"/>
<polygon fill="green" stroke="green" stroke-width="0.3" points="61.97,-118.56 51.83,-115.49 57.84,-124.21 61.97,-118.56"/>
</g>
<!-- &#45;9 -->
<g id="node9" class="node">
<title>&#45;9</title>
<polygon fill="lightgray" stroke="black" points="563.99,-180.51 537.99,-180.51 537.99,-162.51 563.99,-162.51 563.99,-180.51"/>
<text text-anchor="middle" x="550.99" y="-169.31" font-family="Times,serif" font-size="9.00">&#45;9</text>
</g>
<!-- &#45;10 -->
<g id="node10" class="node">
<title>&#45;10</title>
<polygon fill="lightgray" stroke="black" points="613.99,-180.51 581.99,-180.51 581.99,-162.51 613.99,-162.51 613.99,-180.51"/>
<text text-anchor="middle" x="597.99" y="-169.31" font-family="Times,serif" font-size="9.00">&#45;10</text>
</g>
<!-- &#45;11 -->
<g id="node11" class="node">
<title>&#45;11</title>
<polygon fill="lightgray" stroke="black" points="663.99,-180.51 631.99,-180.51 631.99,-162.51 663.99,-162.51 663.99,-180.51"/>
<text text-anchor="middle" x="647.99" y="-169.31" font-family="Times,serif" font-size="9.00">&#45;11</text>
</g>
<!-- &#45;12 -->
<g id="node12" class="node">
<title>&#45;12</title>
<polygon fill="lightgray" stroke="black" points="529.99,-106.52 497.99,-106.52 497.99,-88.52 529.99,-88.52 529.99,-106.52"/>
<text text-anchor="middle" x="513.99" y="-95.32" font-family="Times,serif" font-size="9.00">&#45;12</text>
</g>
<!-- &#45;12&#45;&gt;1 -->
<g id="edge4" class="edge">
<title>&#45;12&#45;&gt;1</title>
<path fill="none" stroke="green" stroke-width="0.34" d="M508.28,-88.16C503.69,-82 496.75,-73.81 488.99,-68.53 453.39,-44.3 404.9,-29.83 375.6,-22.72"/>
<polygon fill="green" stroke="green" stroke-width="0.34" points="376.27,-19.29 365.74,-20.43 374.69,-26.11 376.27,-19.29"/>
</g>
<!-- &#45;13 -->
<g id="node13" class="node">
<title>&#45;13</title>
<polygon fill="lightgray" stroke="black" points="713.99,-180.51 681.99,-180.51 681.99,-162.51 713.99,-162.51 713.99,-180.51"/>
<text text-anchor="middle" x="697.99" y="-169.31" font-family="Times,serif" font-size="9.00">&#45;13</text>
</g>
<!-- &#45;14 -->
<g id="node14" class="node">
<title>&#45;14</title>
<polygon fill="lightgray" stroke="black" points="763.99,-180.51 731.99,-180.51 731.99,-162.51 763.99,-162.51 763.99,-180.51"/>
<text text-anchor="middle" x="747.99" y="-169.31" font-family="Times,serif" font-size="9.00">&#45;14</text>
</g>
<!-- &#45;15 -->
<g id="node15" class="node">
<title>&#45;15</title>
<polygon fill="lightgray" stroke="black" points="189.99,-106.52 157.99,-106.52 157.99,-88.52 189.99,-88.52 189.99,-106.52"/>
<text text-anchor="middle" x="173.99" y="-95.32" font-family="Times,serif" font-size="9.00">&#45;15</text>
</g>
<!-- &#45;15&#45;&gt;0 -->
<g id="edge3" class="edge">
<title>&#45;15&#45;&gt;0</title>
<path fill="none" stroke="red" stroke-width="0.39" d="M169.45,-88.34C163.13,-76.96 151.47,-55.95 142.45,-39.7"/>
<polygon fill="red" stroke="red" stroke-width="0.39" points="145.42,-37.85 137.51,-30.8 139.3,-41.25 145.42,-37.85"/>
</g>
<!-- &#45;15&#45;&gt;1 -->
<g id="edge12" class="edge">
<title>&#45;15&#45;&gt;1</title>
<path fill="none" stroke="red" stroke-width="0.14" d="M179.48,-88.36C184.04,-82.14 191.06,-73.78 198.99,-68.53 238.23,-42.56 291.93,-28.48 323.58,-21.94"/>
<polygon fill="red" stroke="red" stroke-width="0.14" points="324.66,-25.3 333.8,-19.94 323.32,-18.43 324.66,-25.3"/>
</g>
<!-- &#45;16 -->
<g id="node16" class="node">
<title>&#45;16</title>
<polygon fill="lightgray" stroke="black" points="387.99,-180.51 355.99,-180.51 355.99,-162.51 387.99,-162.51 387.99,-180.51"/>
<text text-anchor="middle" x="371.99" y="-169.31" font-family="Times,serif" font-size="9.00">&#45;16</text>
</g>
<!-- &#45;16&#45;&gt;1 -->
<g id="edge5" class="edge">
<title>&#45;16&#45;&gt;1</title>
<path fill="none" stroke="red" stroke-width="0.39" d="M381.22,-162.5C389.77,-154.42 401.91,-141.07 406.99,-126.51 415.49,-102.18 417.48,-92.07 406.99,-68.53 399.86,-52.53 384.99,-39.43 372.23,-30.48"/>
<polygon fill="red" stroke="red" stroke-width="0.39" points="374.13,-27.53 363.85,-24.96 370.28,-33.38 374.13,-27.53"/>
</g>
<!-- 4885 -->
<g id="node23" class="node">
<title>4885</title>
<ellipse fill="white" stroke="black" cx="318.99" cy="-97.52" rx="28.98" ry="28.98"/>
<text text-anchor="middle" x="318.99" y="-95.32" font-family="Times,serif" font-size="9.00">4885</text>
</g>
<!-- &#45;16&#45;&gt;4885 -->
<g id="edge10" class="edge">
<title>&#45;16&#45;&gt;4885</title>
<path fill="none" stroke="green" stroke-width="1" d="M365.91,-162.25C359.99,-154.21 350.62,-141.48 341.8,-129.5"/>
<polygon fill="green" stroke="green" stroke-width="1" points="344.59,-127.38 335.84,-121.4 338.95,-131.53 344.59,-127.38"/>
</g>
<!-- &#45;17 -->
<g id="node17" class="node">
<title>&#45;17</title>
<polygon fill="lightgray" stroke="black" points="813.99,-180.51 781.99,-180.51 781.99,-162.51 813.99,-162.51 813.99,-180.51"/>
<text text-anchor="middle" x="797.99" y="-169.31" font-family="Times,serif" font-size="9.00">&#45;17</text>
</g>
<!-- &#45;18 -->
<g id="node18" class="node">
<title>&#45;18</title>
<polygon fill="lightgray" stroke="black" points="863.99,-180.51 831.99,-180.51 831.99,-162.51 863.99,-162.51 863.99,-180.51"/>
<text text-anchor="middle" x="847.99" y="-169.31" font-family="Times,serif" font-size="9.00">&#45;18</text>
</g>
<!-- &#45;19 -->
<g id="node19" class="node">
<title>&#45;19</title>
<polygon fill="lightgray" stroke="black" points="397.99,-106.52 365.99,-106.52 365.99,-88.52 397.99,-88.52 397.99,-106.52"/>
<text text-anchor="middle" x="381.99" y="-95.32" font-family="Times,serif" font-size="9.00">&#45;19</text>
</g>
<!-- &#45;19&#45;&gt;1 -->
<g id="edge15" class="edge">
<title>&#45;19&#45;&gt;1</title>
<path fill="none" stroke="red" stroke-width="0.2" d="M378.69,-88.34C374.22,-77.26 366.06,-57.06 359.58,-41.01"/>
<polygon fill="red" stroke="red" stroke-width="0.2" points="362.8,-39.64 355.81,-31.68 356.31,-42.26 362.8,-39.64"/>
</g>
<!-- &#45;20 -->
<g id="node20" class="node">
<title>&#45;20</title>
<polygon fill="lightgray" stroke="black" points="913.99,-180.51 881.99,-180.51 881.99,-162.51 913.99,-162.51 913.99,-180.51"/>
<text text-anchor="middle" x="897.99" y="-169.31" font-family="Times,serif" font-size="9.00">&#45;20</text>
</g>
<!-- 4885&#45;&gt;1 -->
<g id="edge11" class="edge">
<title>4885&#45;&gt;1</title>
<path fill="none" stroke="green" stroke-width="0.6" d="M329.31,-70.13C332.95,-60.84 337.01,-50.45 340.57,-41.36"/>
<polygon fill="green" stroke="green" stroke-width="0.6" points="343.93,-42.36 344.32,-31.77 337.42,-39.81 343.93,-42.36"/>
</g>
<!-- 5983&#45;&gt;0 -->
<g id="edge14" class="edge">
<title>5983&#45;&gt;0</title>
<path fill="none" stroke="red" stroke-width="2.48" d="M51.41,-78.93C68.73,-65.34 92.51,-46.67 109.37,-33.45"/>
<polygon fill="red" stroke="red" stroke-width="2.48" points="111.77,-36.01 117.48,-27.08 107.45,-30.5 111.77,-36.01"/>
</g>
</g>
</svg>
