<?xml version="1.0" encoding="UTF-8" standalone="no"?>
<!DOCTYPE svg PUBLIC "-//W3C//DTD SVG 1.1//EN"
 "http://www.w3.org/Graphics/SVG/1.1/DTD/svg11.dtd">
<!-- Generated by graphviz version 2.43.0 (0)
 -->
<!-- Title: %3 Pages: 1 -->
<svg width="1336pt" height="180pt"
 viewBox="0.00 0.00 1336.00 180.02" xmlns="http://www.w3.org/2000/svg" xmlns:xlink="http://www.w3.org/1999/xlink">
<g id="graph0" class="graph" transform="scale(1 1) rotate(0) translate(4 176.02)">
<title>%3</title>
<polygon fill="white" stroke="transparent" points="-4,4 -4,-176.02 1332,-176.02 1332,4 -4,4"/>
<!-- &#45;1 -->
<g id="node1" class="node">
<title>&#45;1</title>
<polygon fill="lightgray" stroke="black" points="364,-172.02 338,-172.02 338,-154.02 364,-154.02 364,-172.02"/>
<text text-anchor="middle" x="351" y="-160.82" font-family="Times,serif" font-size="9.00">&#45;1</text>
</g>
<!-- 0 -->
<g id="node29" class="node">
<title>0</title>
<ellipse fill="lightblue" stroke="black" cx="673" cy="-101.76" rx="16.03" ry="16.03"/>
<text text-anchor="middle" x="673" y="-99.56" font-family="Times,serif" font-size="9.00">0</text>
</g>
<!-- &#45;1&#45;&gt;0 -->
<g id="edge12" class="edge">
<title>&#45;1&#45;&gt;0</title>
<path fill="none" stroke="red" stroke-width="0.65" stroke-dasharray="1,5" d="M364.37,-156.73C367.19,-155.73 370.17,-154.77 373,-154.02 472.42,-127.68 594.1,-111.76 646.7,-105.64"/>
<polygon fill="red" stroke="red" stroke-width="0.65" points="647.31,-109.1 656.85,-104.49 646.51,-102.14 647.31,-109.1"/>
</g>
<!-- 1 -->
<g id="node30" class="node">
<title>1</title>
<ellipse fill="lightblue" stroke="black" cx="263" cy="-101.76" rx="16.03" ry="16.03"/>
<text text-anchor="middle" x="263" y="-99.56" font-family="Times,serif" font-size="9.00">1</text>
</g>
<!-- &#45;1&#45;&gt;1 -->
<g id="edge31" class="edge">
<title>&#45;1&#45;&gt;1</title>
<path fill="none" stroke="red" stroke-width="0.39" d="M338.76,-153.78C324.9,-144.45 302.02,-129.04 285.02,-117.59"/>
<polygon fill="red" stroke="red" stroke-width="0.39" points="286.53,-114.39 276.28,-111.71 282.62,-120.19 286.53,-114.39"/>
</g>
<!-- &#45;2 -->
<g id="node2" class="node">
<title>&#45;2</title>
<polygon fill="lightgray" stroke="black" points="76,-172.02 50,-172.02 50,-154.02 76,-154.02 76,-172.02"/>
<text text-anchor="middle" x="63" y="-160.82" font-family="Times,serif" font-size="9.00">&#45;2</text>
</g>
<!-- &#45;2&#45;&gt;1 -->
<g id="edge2" class="edge">
<title>&#45;2&#45;&gt;1</title>
<path fill="none" stroke="red" stroke-width="0.86" d="M76.45,-156.97C79.26,-155.96 82.22,-154.93 85,-154.02 138.76,-136.53 202.64,-118.89 237.37,-109.55"/>
<polygon fill="red" stroke="red" stroke-width="0.86" points="238.42,-112.89 247.17,-106.93 236.61,-106.13 238.42,-112.89"/>
</g>
<!-- &#45;3 -->
<g id="node3" class="node">
<title>&#45;3</title>
<polygon fill="lightgray" stroke="black" points="1096,-172.02 1070,-172.02 1070,-154.02 1096,-154.02 1096,-172.02"/>
<text text-anchor="middle" x="1083" y="-160.82" font-family="Times,serif" font-size="9.00">&#45;3</text>
</g>
<!-- &#45;4 -->
<g id="node4" class="node">
<title>&#45;4</title>
<polygon fill="lightgray" stroke="black" points="908,-172.02 882,-172.02 882,-154.02 908,-154.02 908,-172.02"/>
<text text-anchor="middle" x="895" y="-160.82" font-family="Times,serif" font-size="9.00">&#45;4</text>
</g>
<!-- &#45;4&#45;&gt;0 -->
<g id="edge6" class="edge">
<title>&#45;4&#45;&gt;0</title>
<path fill="none" stroke="green" stroke-width="0.43" d="M881.57,-156.91C878.76,-155.9 875.8,-154.89 873,-154.02 811.02,-134.86 736.72,-117.17 698.49,-108.45"/>
<polygon fill="green" stroke="green" stroke-width="0.43" points="699.23,-105.03 688.7,-106.23 697.68,-111.86 699.23,-105.03"/>
</g>
<!-- &#45;5 -->
<g id="node5" class="node">
<title>&#45;5</title>
<polygon fill="lightgray" stroke="black" points="1140,-172.02 1114,-172.02 1114,-154.02 1140,-154.02 1140,-172.02"/>
<text text-anchor="middle" x="1127" y="-160.82" font-family="Times,serif" font-size="9.00">&#45;5</text>
</g>
<!-- &#45;6 -->
<g id="node6" class="node">
<title>&#45;6</title>
<polygon fill="lightgray" stroke="black" points="1184,-172.02 1158,-172.02 1158,-154.02 1184,-154.02 1184,-172.02"/>
<text text-anchor="middle" x="1171" y="-160.82" font-family="Times,serif" font-size="9.00">&#45;6</text>
</g>
<!-- &#45;7 -->
<g id="node7" class="node">
<title>&#45;7</title>
<polygon fill="lightgray" stroke="black" points="952,-172.02 926,-172.02 926,-154.02 952,-154.02 952,-172.02"/>
<text text-anchor="middle" x="939" y="-160.82" font-family="Times,serif" font-size="9.00">&#45;7</text>
</g>
<!-- &#45;7&#45;&gt;0 -->
<g id="edge16" class="edge">
<title>&#45;7&#45;&gt;0</title>
<path fill="none" stroke="red" stroke-width="0.25" d="M925.6,-156.81C922.79,-155.81 919.81,-154.83 917,-154.02 838.75,-131.7 743.84,-114.52 698.94,-106.96"/>
<polygon fill="red" stroke="red" stroke-width="0.25" points="699.33,-103.48 688.89,-105.3 698.18,-110.39 699.33,-103.48"/>
</g>
<!-- &#45;8 -->
<g id="node8" class="node">
<title>&#45;8</title>
<polygon fill="lightgray" stroke="black" points="320,-172.02 294,-172.02 294,-154.02 320,-154.02 320,-172.02"/>
<text text-anchor="middle" x="307" y="-160.82" font-family="Times,serif" font-size="9.00">&#45;8</text>
</g>
<!-- &#45;8&#45;&gt;0 -->
<g id="edge17" class="edge">
<title>&#45;8&#45;&gt;0</title>
<path fill="none" stroke="red" stroke-width="0.37" d="M320.36,-156.68C323.18,-155.69 326.16,-154.74 329,-154.02 445.29,-124.53 588.29,-109.94 646.49,-104.88"/>
<polygon fill="red" stroke="red" stroke-width="0.37" points="646.98,-108.35 656.65,-104.02 646.39,-101.38 646.98,-108.35"/>
</g>
<!-- &#45;8&#45;&gt;1 -->
<g id="edge21" class="edge">
<title>&#45;8&#45;&gt;1</title>
<path fill="none" stroke="red" stroke-width="0.17" stroke-dasharray="1,5" d="M300.88,-153.78C295.13,-146.03 286.27,-134.1 278.56,-123.72"/>
<polygon fill="red" stroke="red" stroke-width="0.17" points="281.22,-121.44 272.45,-115.49 275.6,-125.61 281.22,-121.44"/>
</g>
<!-- 154 -->
<g id="node31" class="node">
<title>154</title>
<ellipse fill="white" stroke="black" cx="263" cy="-24.75" rx="25" ry="25"/>
<text text-anchor="middle" x="263" y="-22.55" font-family="Times,serif" font-size="9.00">154</text>
</g>
<!-- &#45;8&#45;&gt;154 -->
<g id="edge27" class="edge">
<title>&#45;8&#45;&gt;154</title>
<path fill="none" stroke="red" stroke-width="0.14" stroke-dasharray="1,5" d="M305.4,-153.87C302.55,-139.75 296.09,-109.93 288,-85.5 284.88,-76.09 280.95,-66.08 277.13,-57"/>
<polygon fill="red" stroke="red" stroke-width="0.14" points="280.25,-55.38 273.08,-47.57 273.82,-58.14 280.25,-55.38"/>
</g>
<!-- &#45;9 -->
<g id="node9" class="node">
<title>&#45;9</title>
<polygon fill="lightgray" stroke="black" points="1228,-172.02 1202,-172.02 1202,-154.02 1228,-154.02 1228,-172.02"/>
<text text-anchor="middle" x="1215" y="-160.82" font-family="Times,serif" font-size="9.00">&#45;9</text>
</g>
<!-- &#45;10 -->
<g id="node10" class="node">
<title>&#45;10</title>
<polygon fill="lightgray" stroke="black" points="126,-172.02 94,-172.02 94,-154.02 126,-154.02 126,-172.02"/>
<text text-anchor="middle" x="110" y="-160.82" font-family="Times,serif" font-size="9.00">&#45;10</text>
</g>
<!-- &#45;10&#45;&gt;1 -->
<g id="edge19" class="edge">
<title>&#45;10&#45;&gt;1</title>
<path fill="none" stroke="green" stroke-width="0.62" d="M126.08,-155.79C152.95,-145.39 207.09,-124.42 238.65,-112.19"/>
<polygon fill="green" stroke="green" stroke-width="0.62" points="239.98,-115.43 248.04,-108.56 237.45,-108.91 239.98,-115.43"/>
</g>
<!-- &#45;11 -->
<g id="node11" class="node">
<title>&#45;11</title>
<polygon fill="lightgray" stroke="black" points="176,-172.02 144,-172.02 144,-154.02 176,-154.02 176,-172.02"/>
<text text-anchor="middle" x="160" y="-160.82" font-family="Times,serif" font-size="9.00">&#45;11</text>
</g>
<!-- &#45;11&#45;&gt;1 -->
<g id="edge10" class="edge">
<title>&#45;11&#45;&gt;1</title>
<path fill="none" stroke="green" stroke-width="0.43" stroke-dasharray="1,5" d="M174.32,-153.78C191.41,-143.95 220.18,-127.4 240.3,-115.82"/>
<polygon fill="green" stroke="green" stroke-width="0.43" points="242.21,-118.76 249.13,-110.74 238.72,-112.7 242.21,-118.76"/>
</g>
<!-- &#45;12 -->
<g id="node12" class="node">
<title>&#45;12</title>
<polygon fill="lightgray" stroke="black" points="1002,-172.02 970,-172.02 970,-154.02 1002,-154.02 1002,-172.02"/>
<text text-anchor="middle" x="986" y="-160.82" font-family="Times,serif" font-size="9.00">&#45;12</text>
</g>
<!-- &#45;12&#45;&gt;0 -->
<g id="edge7" class="edge">
<title>&#45;12&#45;&gt;0</title>
<path fill="none" stroke="green" stroke-width="0.15" stroke-dasharray="1,5" d="M969.95,-156.54C967,-155.63 963.92,-154.75 961,-154.02 865.71,-130.41 750.1,-113.23 699.21,-106.23"/>
<polygon fill="green" stroke="green" stroke-width="0.15" points="699.46,-102.73 689.08,-104.85 698.52,-109.67 699.46,-102.73"/>
</g>
<!-- &#45;13 -->
<g id="node13" class="node">
<title>&#45;13</title>
<polygon fill="lightgray" stroke="black" points="1052,-172.02 1020,-172.02 1020,-154.02 1052,-154.02 1052,-172.02"/>
<text text-anchor="middle" x="1036" y="-160.82" font-family="Times,serif" font-size="9.00">&#45;13</text>
</g>
<!-- &#45;13&#45;&gt;0 -->
<g id="edge25" class="edge">
<title>&#45;13&#45;&gt;0</title>
<path fill="none" stroke="green" stroke-width="0.14" d="M1019.97,-156.48C1017.01,-155.57 1013.93,-154.71 1011,-154.02 896.45,-127.19 756.64,-111.18 699.37,-105.32"/>
<polygon fill="green" stroke="green" stroke-width="0.14" points="699.66,-101.83 689.36,-104.31 698.96,-108.79 699.66,-101.83"/>
</g>
<!-- &#45;14 -->
<g id="node14" class="node">
<title>&#45;14</title>
<polygon fill="lightgray" stroke="black" points="414,-172.02 382,-172.02 382,-154.02 414,-154.02 414,-172.02"/>
<text text-anchor="middle" x="398" y="-160.82" font-family="Times,serif" font-size="9.00">&#45;14</text>
</g>
<!-- &#45;14&#45;&gt;0 -->
<g id="edge32" class="edge">
<title>&#45;14&#45;&gt;0</title>
<path fill="none" stroke="green" stroke-width="0.11" d="M414.06,-156.6C417.02,-155.69 420.09,-154.79 423,-154.02 503.95,-132.84 601.52,-115.01 647.14,-107.12"/>
<polygon fill="green" stroke="green" stroke-width="0.11" points="647.8,-110.55 657.07,-105.41 646.62,-103.66 647.8,-110.55"/>
</g>
<!-- &#45;14&#45;&gt;1 -->
<g id="edge23" class="edge">
<title>&#45;14&#45;&gt;1</title>
<path fill="none" stroke="green" stroke-width="0.3" d="M381.98,-154.99C358.47,-144.67 314.44,-125.34 287.03,-113.31"/>
<polygon fill="green" stroke="green" stroke-width="0.3" points="288.32,-110.05 277.76,-109.24 285.51,-116.46 288.32,-110.05"/>
</g>
<!-- &#45;15 -->
<g id="node15" class="node">
<title>&#45;15</title>
<polygon fill="lightgray" stroke="black" points="226,-172.02 194,-172.02 194,-154.02 226,-154.02 226,-172.02"/>
<text text-anchor="middle" x="210" y="-160.82" font-family="Times,serif" font-size="9.00">&#45;15</text>
</g>
<!-- &#45;15&#45;&gt;1 -->
<g id="edge8" class="edge">
<title>&#45;15&#45;&gt;1</title>
<path fill="none" stroke="red" stroke-width="0.29" d="M217.37,-153.78C224.62,-145.67 235.97,-132.99 245.53,-122.29"/>
<polygon fill="red" stroke="red" stroke-width="0.29" points="248.34,-124.4 252.4,-114.61 243.13,-119.73 248.34,-124.4"/>
</g>
<!-- &#45;16 -->
<g id="node16" class="node">
<title>&#45;16</title>
<polygon fill="lightgray" stroke="black" points="276,-172.02 244,-172.02 244,-154.02 276,-154.02 276,-172.02"/>
<text text-anchor="middle" x="260" y="-160.82" font-family="Times,serif" font-size="9.00">&#45;16</text>
</g>
<!-- &#45;16&#45;&gt;1 -->
<g id="edge9" class="edge">
<title>&#45;16&#45;&gt;1</title>
<path fill="none" stroke="green" stroke-width="0.11" d="M260.42,-153.78C260.75,-147.2 261.24,-137.6 261.7,-128.5"/>
<polygon fill="green" stroke="green" stroke-width="0.11" points="265.21,-128.42 262.22,-118.25 258.21,-128.06 265.21,-128.42"/>
</g>
<!-- &#45;17 -->
<g id="node17" class="node">
<title>&#45;17</title>
<polygon fill="lightgray" stroke="black" points="614,-172.02 582,-172.02 582,-154.02 614,-154.02 614,-172.02"/>
<text text-anchor="middle" x="598" y="-160.82" font-family="Times,serif" font-size="9.00">&#45;17</text>
</g>
<!-- &#45;17&#45;&gt;0 -->
<g id="edge26" class="edge">
<title>&#45;17&#45;&gt;0</title>
<path fill="none" stroke="green" stroke-width="0.56" d="M608.43,-153.78C619.76,-144.83 638.16,-130.29 652.42,-119.02"/>
<polygon fill="green" stroke="green" stroke-width="0.56" points="654.99,-121.45 660.67,-112.51 650.65,-115.96 654.99,-121.45"/>
</g>
<!-- &#45;18 -->
<g id="node18" class="node">
<title>&#45;18</title>
<polygon fill="lightgray" stroke="black" points="464,-172.02 432,-172.02 432,-154.02 464,-154.02 464,-172.02"/>
<text text-anchor="middle" x="448" y="-160.82" font-family="Times,serif" font-size="9.00">&#45;18</text>
</g>
<!-- &#45;18&#45;&gt;0 -->
<g id="edge29" class="edge">
<title>&#45;18&#45;&gt;0</title>
<path fill="none" stroke="green" stroke-width="0.39" stroke-dasharray="1,5" d="M464.1,-156.72C467.05,-155.79 470.11,-154.86 473,-154.02 535.34,-136.08 609.5,-117.88 647.6,-108.76"/>
<polygon fill="green" stroke="green" stroke-width="0.39" points="648.44,-112.16 657.36,-106.44 646.82,-105.35 648.44,-112.16"/>
</g>
<!-- &#45;18&#45;&gt;1 -->
<g id="edge3" class="edge">
<title>&#45;18&#45;&gt;1</title>
<path fill="none" stroke="green" stroke-width="0.54" stroke-dasharray="1,5" d="M431.91,-156.87C399.68,-146.55 327.03,-123.27 288.35,-110.88"/>
<polygon fill="green" stroke="green" stroke-width="0.54" points="288.99,-107.41 278.4,-107.7 286.86,-114.08 288.99,-107.41"/>
</g>
<!-- &#45;19 -->
<g id="node19" class="node">
<title>&#45;19</title>
<polygon fill="lightgray" stroke="black" points="664,-172.02 632,-172.02 632,-154.02 664,-154.02 664,-172.02"/>
<text text-anchor="middle" x="648" y="-160.82" font-family="Times,serif" font-size="9.00">&#45;19</text>
</g>
<!-- &#45;19&#45;&gt;0 -->
<g id="edge18" class="edge">
<title>&#45;19&#45;&gt;0</title>
<path fill="none" stroke="red" stroke-width="0.94" d="M651.48,-153.78C654.45,-146.72 658.9,-136.19 662.97,-126.53"/>
<polygon fill="red" stroke="red" stroke-width="0.94" points="666.2,-127.89 666.86,-117.32 659.75,-125.17 666.2,-127.89"/>
</g>
<!-- &#45;20 -->
<g id="node20" class="node">
<title>&#45;20</title>
<polygon fill="lightgray" stroke="black" points="32,-172.02 0,-172.02 0,-154.02 32,-154.02 32,-172.02"/>
<text text-anchor="middle" x="16" y="-160.82" font-family="Times,serif" font-size="9.00">&#45;20</text>
</g>
<!-- &#45;20&#45;&gt;1 -->
<g id="edge1" class="edge">
<title>&#45;20&#45;&gt;1</title>
<path fill="none" stroke="red" stroke-width="0.29" stroke-dasharray="1,5" d="M32.08,-156.66C35.03,-155.74 38.1,-154.82 41,-154.02 111.52,-134.63 195.99,-116.51 237.46,-107.94"/>
<polygon fill="red" stroke="red" stroke-width="0.29" points="238.19,-111.36 247.28,-105.92 236.78,-104.51 238.19,-111.36"/>
</g>
<!-- &#45;21 -->
<g id="node21" class="node">
<title>&#45;21</title>
<polygon fill="lightgray" stroke="black" points="714,-172.02 682,-172.02 682,-154.02 714,-154.02 714,-172.02"/>
<text text-anchor="middle" x="698" y="-160.82" font-family="Times,serif" font-size="9.00">&#45;21</text>
</g>
<!-- &#45;21&#45;&gt;0 -->
<g id="edge22" class="edge">
<title>&#45;21&#45;&gt;0</title>
<path fill="none" stroke="red" stroke-width="0.59" stroke-dasharray="1,5" d="M694.52,-153.78C691.55,-146.72 687.1,-136.19 683.03,-126.53"/>
<polygon fill="red" stroke="red" stroke-width="0.59" points="686.25,-125.17 679.14,-117.32 679.8,-127.89 686.25,-125.17"/>
</g>
<!-- &#45;22 -->
<g id="node22" class="node">
<title>&#45;22</title>
<polygon fill="lightgray" stroke="black" points="514,-172.02 482,-172.02 482,-154.02 514,-154.02 514,-172.02"/>
<text text-anchor="middle" x="498" y="-160.82" font-family="Times,serif" font-size="9.00">&#45;22</text>
</g>
<!-- &#45;22&#45;&gt;0 -->
<g id="edge13" class="edge">
<title>&#45;22&#45;&gt;0</title>
<path fill="none" stroke="green" stroke-width="0.28" d="M514.15,-156.56C544.8,-146.18 611.59,-123.56 648.05,-111.21"/>
<polygon fill="green" stroke="green" stroke-width="0.28" points="649.54,-114.4 657.89,-107.88 647.3,-107.77 649.54,-114.4"/>
</g>
<!-- &#45;22&#45;&gt;1 -->
<g id="edge5" class="edge">
<title>&#45;22&#45;&gt;1</title>
<path fill="none" stroke="green" stroke-width="0.41" stroke-dasharray="1,5" d="M481.91,-156.69C478.96,-155.77 475.9,-154.84 473,-154.02 407.15,-135.48 328.6,-117.35 288.83,-108.45"/>
<polygon fill="green" stroke="green" stroke-width="0.41" points="289.43,-105 278.91,-106.24 287.91,-111.83 289.43,-105"/>
</g>
<!-- &#45;23 -->
<g id="node23" class="node">
<title>&#45;23</title>
<polygon fill="lightgray" stroke="black" points="764,-172.02 732,-172.02 732,-154.02 764,-154.02 764,-172.02"/>
<text text-anchor="middle" x="748" y="-160.82" font-family="Times,serif" font-size="9.00">&#45;23</text>
</g>
<!-- &#45;23&#45;&gt;0 -->
<g id="edge11" class="edge">
<title>&#45;23&#45;&gt;0</title>
<path fill="none" stroke="red" stroke-width="0.19" d="M737.57,-153.78C726.24,-144.83 707.84,-130.29 693.58,-119.02"/>
<polygon fill="red" stroke="red" stroke-width="0.19" points="695.35,-115.96 685.33,-112.51 691.01,-121.45 695.35,-115.96"/>
</g>
<!-- &#45;24 -->
<g id="node24" class="node">
<title>&#45;24</title>
<polygon fill="lightgray" stroke="black" points="814,-172.02 782,-172.02 782,-154.02 814,-154.02 814,-172.02"/>
<text text-anchor="middle" x="798" y="-160.82" font-family="Times,serif" font-size="9.00">&#45;24</text>
</g>
<!-- &#45;24&#45;&gt;0 -->
<g id="edge14" class="edge">
<title>&#45;24&#45;&gt;0</title>
<path fill="none" stroke="red" stroke-width="0.1" d="M781.91,-154.4C760.26,-144.13 721.58,-125.79 696.62,-113.96"/>
<polygon fill="red" stroke="red" stroke-width="0.1" points="698.01,-110.74 687.47,-109.62 695.01,-117.07 698.01,-110.74"/>
</g>
<!-- &#45;25 -->
<g id="node25" class="node">
<title>&#45;25</title>
<polygon fill="lightgray" stroke="black" points="1278,-172.02 1246,-172.02 1246,-154.02 1278,-154.02 1278,-172.02"/>
<text text-anchor="middle" x="1262" y="-160.82" font-family="Times,serif" font-size="9.00">&#45;25</text>
</g>
<!-- &#45;26 -->
<g id="node26" class="node">
<title>&#45;26</title>
<polygon fill="lightgray" stroke="black" points="564,-172.02 532,-172.02 532,-154.02 564,-154.02 564,-172.02"/>
<text text-anchor="middle" x="548" y="-160.82" font-family="Times,serif" font-size="9.00">&#45;26</text>
</g>
<!-- &#45;26&#45;&gt;0 -->
<g id="edge24" class="edge">
<title>&#45;26&#45;&gt;0</title>
<path fill="none" stroke="green" stroke-width="0.49" stroke-dasharray="1,5" d="M564.09,-154.4C585.74,-144.13 624.42,-125.79 649.38,-113.96"/>
<polygon fill="green" stroke="green" stroke-width="0.49" points="650.99,-117.07 658.53,-109.62 647.99,-110.74 650.99,-117.07"/>
</g>
<!-- &#45;26&#45;&gt;1 -->
<g id="edge15" class="edge">
<title>&#45;26&#45;&gt;1</title>
<path fill="none" stroke="green" stroke-width="1.37" d="M531.94,-156.59C528.98,-155.67 525.91,-154.77 523,-154.02 438.27,-132.19 335.93,-114.5 288.92,-106.85"/>
<polygon fill="green" stroke="green" stroke-width="1.37" points="289.4,-103.39 278.97,-105.25 288.29,-110.3 289.4,-103.39"/>
</g>
<!-- &#45;27 -->
<g id="node27" class="node">
<title>&#45;27</title>
<polygon fill="lightgray" stroke="black" points="1328,-172.02 1296,-172.02 1296,-154.02 1328,-154.02 1328,-172.02"/>
<text text-anchor="middle" x="1312" y="-160.82" font-family="Times,serif" font-size="9.00">&#45;27</text>
</g>
<!-- &#45;28 -->
<g id="node28" class="node">
<title>&#45;28</title>
<polygon fill="lightgray" stroke="black" points="864,-172.02 832,-172.02 832,-154.02 864,-154.02 864,-172.02"/>
<text text-anchor="middle" x="848" y="-160.82" font-family="Times,serif" font-size="9.00">&#45;28</text>
</g>
<!-- &#45;28&#45;&gt;0 -->
<g id="edge20" class="edge">
<title>&#45;28&#45;&gt;0</title>
<path fill="none" stroke="red" stroke-width="0.15" stroke-dasharray="1,5" d="M831.85,-156.56C801.2,-146.18 734.41,-123.56 697.95,-111.21"/>
<polygon fill="red" stroke="red" stroke-width="0.15" points="698.7,-107.77 688.11,-107.88 696.46,-114.4 698.7,-107.77"/>
</g>
<!-- 0&#45;&gt;0 -->
<g id="edge4" class="edge">
<title>0&#45;&gt;0</title>
<path fill="none" stroke="red" stroke-width="0.26" stroke-dasharray="1,5" d="M686.36,-111.56C696.71,-115.22 707.26,-111.96 707.26,-101.76 707.26,-95.07 702.72,-91.36 696.67,-90.64"/>
<polygon fill="red" stroke="red" stroke-width="0.26" points="695.84,-87.22 686.36,-91.96 696.73,-94.16 695.84,-87.22"/>
</g>
<!-- 1&#45;&gt;154 -->
<g id="edge30" class="edge">
<title>1&#45;&gt;154</title>
<path fill="none" stroke="green" stroke-width="0.4" d="M257.54,-86.3C256.53,-78.48 256.11,-68.49 256.29,-58.88"/>
<polygon fill="green" stroke="green" stroke-width="0.4" points="259.79,-58.87 256.72,-48.73 252.8,-58.57 259.79,-58.87"/>
</g>
<!-- 154&#45;&gt;1 -->
<g id="edge28" class="edge">
<title>154&#45;&gt;1</title>
<path fill="none" stroke="green" stroke-width="0.89" stroke-dasharray="1,5" d="M269.28,-48.73C269.87,-57.43 269.91,-67.37 269.38,-76.21"/>
<polygon fill="green" stroke="green" stroke-width="0.89" points="265.88,-76.02 268.46,-86.3 272.85,-76.66 265.88,-76.02"/>
</g>
</g>
</svg>
