<?xml version="1.0" encoding="UTF-8" standalone="no"?>
<!DOCTYPE svg PUBLIC "-//W3C//DTD SVG 1.1//EN"
 "http://www.w3.org/Graphics/SVG/1.1/DTD/svg11.dtd">
<!-- Generated by graphviz version 2.43.0 (0)
 -->
<!-- Title: %3 Pages: 1 -->
<svg width="1019pt" height="393pt"
 viewBox="0.00 0.00 1019.00 393.45" xmlns="http://www.w3.org/2000/svg" xmlns:xlink="http://www.w3.org/1999/xlink">
<g id="graph0" class="graph" transform="scale(1 1) rotate(0) translate(4 389.45)">
<title>%3</title>
<polygon fill="white" stroke="transparent" points="-4,4 -4,-389.45 1015,-389.45 1015,4 -4,4"/>
<!-- &#45;1 -->
<g id="node1" class="node">
<title>&#45;1</title>
<polygon fill="lightgray" stroke="black" points="26,-385.45 0,-385.45 0,-367.45 26,-367.45 26,-385.45"/>
<text text-anchor="middle" x="13" y="-374.25" font-family="Times,serif" font-size="9.00">&#45;1</text>
</g>
<!-- &#45;2 -->
<g id="node2" class="node">
<title>&#45;2</title>
<polygon fill="lightgray" stroke="black" points="70,-385.45 44,-385.45 44,-367.45 70,-367.45 70,-385.45"/>
<text text-anchor="middle" x="57" y="-374.25" font-family="Times,serif" font-size="9.00">&#45;2</text>
</g>
<!-- 0 -->
<g id="node21" class="node">
<title>0</title>
<ellipse fill="lightblue" stroke="black" cx="195" cy="-208.47" rx="16.03" ry="16.03"/>
<text text-anchor="middle" x="195" y="-206.27" font-family="Times,serif" font-size="9.00">0</text>
</g>
<!-- &#45;2&#45;&gt;0 -->
<g id="edge1" class="edge">
<title>&#45;2&#45;&gt;0</title>
<path fill="none" stroke="red" stroke-width="0.32" stroke-dasharray="1,5" d="M56.3,-367.39C55.11,-348.89 54.65,-302.7 76,-273.46 98.94,-242.05 142.09,-224.49 169.64,-216.01"/>
<polygon fill="red" stroke="red" stroke-width="0.32" points="170.73,-219.33 179.36,-213.19 168.78,-212.61 170.73,-219.33"/>
</g>
<!-- 165 -->
<g id="node24" class="node">
<title>165</title>
<ellipse fill="white" stroke="black" cx="763" cy="-24.75" rx="25" ry="25"/>
<text text-anchor="middle" x="763" y="-22.55" font-family="Times,serif" font-size="9.00">165</text>
</g>
<!-- &#45;2&#45;&gt;165 -->
<g id="edge27" class="edge">
<title>&#45;2&#45;&gt;165</title>
<path fill="none" stroke="red" stroke-width="0.4" d="M54.23,-367.26C48.63,-349.25 37.76,-305.26 53,-273.46 81.83,-213.32 111.01,-210.61 170,-179.48 365.18,-76.49 633.55,-39.46 728.23,-29.12"/>
<polygon fill="red" stroke="red" stroke-width="0.4" points="728.82,-32.58 738.39,-28.04 728.08,-25.62 728.82,-32.58"/>
</g>
<!-- 4848 -->
<g id="node29" class="node">
<title>4848</title>
<ellipse fill="white" stroke="black" cx="308" cy="-302.45" rx="28.98" ry="28.98"/>
<text text-anchor="middle" x="308" y="-300.25" font-family="Times,serif" font-size="9.00">4848</text>
</g>
<!-- &#45;2&#45;&gt;4848 -->
<g id="edge28" class="edge">
<title>&#45;2&#45;&gt;4848</title>
<path fill="none" stroke="green" stroke-width="0.13" d="M70.07,-374.69C104.32,-372.31 198.95,-363.11 270,-331.45 272.51,-330.33 275.01,-329.02 277.47,-327.6"/>
<polygon fill="green" stroke="green" stroke-width="0.13" points="279.58,-330.4 286.09,-322.04 275.79,-324.52 279.58,-330.4"/>
</g>
<!-- &#45;3 -->
<g id="node3" class="node">
<title>&#45;3</title>
<polygon fill="lightgray" stroke="black" points="111,-311.45 85,-311.45 85,-293.45 111,-293.45 111,-311.45"/>
<text text-anchor="middle" x="98" y="-300.25" font-family="Times,serif" font-size="9.00">&#45;3</text>
</g>
<!-- &#45;3&#45;&gt;0 -->
<g id="edge4" class="edge">
<title>&#45;3&#45;&gt;0</title>
<path fill="none" stroke="red" stroke-width="0.29" d="M103.77,-293.27C107.99,-287.49 114.01,-279.7 120,-273.46 137.11,-255.65 158.75,-237.59 174.39,-225.22"/>
<polygon fill="red" stroke="red" stroke-width="0.29" points="176.67,-227.88 182.39,-218.97 172.36,-222.37 176.67,-227.88"/>
</g>
<!-- &#45;4 -->
<g id="node4" class="node">
<title>&#45;4</title>
<polygon fill="lightgray" stroke="black" points="685,-217.47 659,-217.47 659,-199.47 685,-199.47 685,-217.47"/>
<text text-anchor="middle" x="672" y="-206.27" font-family="Times,serif" font-size="9.00">&#45;4</text>
</g>
<!-- 1 -->
<g id="node22" class="node">
<title>1</title>
<ellipse fill="lightblue" stroke="black" cx="670" cy="-114.49" rx="16.03" ry="16.03"/>
<text text-anchor="middle" x="670" y="-112.29" font-family="Times,serif" font-size="9.00">1</text>
</g>
<!-- &#45;4&#45;&gt;1 -->
<g id="edge10" class="edge">
<title>&#45;4&#45;&gt;1</title>
<path fill="none" stroke="green" stroke-width="0.28" d="M671.82,-199.31C671.54,-186.4 670.98,-160.73 670.56,-141.18"/>
<polygon fill="green" stroke="green" stroke-width="0.28" points="674.06,-140.99 670.34,-131.07 667.06,-141.14 674.06,-140.99"/>
</g>
<!-- &#45;5 -->
<g id="node5" class="node">
<title>&#45;5</title>
<polygon fill="lightgray" stroke="black" points="729,-385.45 703,-385.45 703,-367.45 729,-367.45 729,-385.45"/>
<text text-anchor="middle" x="716" y="-374.25" font-family="Times,serif" font-size="9.00">&#45;5</text>
</g>
<!-- &#45;6 -->
<g id="node6" class="node">
<title>&#45;6</title>
<polygon fill="lightgray" stroke="black" points="773,-385.45 747,-385.45 747,-367.45 773,-367.45 773,-385.45"/>
<text text-anchor="middle" x="760" y="-374.25" font-family="Times,serif" font-size="9.00">&#45;6</text>
</g>
<!-- &#45;7 -->
<g id="node7" class="node">
<title>&#45;7</title>
<polygon fill="lightgray" stroke="black" points="817,-385.45 791,-385.45 791,-367.45 817,-367.45 817,-385.45"/>
<text text-anchor="middle" x="804" y="-374.25" font-family="Times,serif" font-size="9.00">&#45;7</text>
</g>
<!-- &#45;8 -->
<g id="node8" class="node">
<title>&#45;8</title>
<polygon fill="lightgray" stroke="black" points="861,-385.45 835,-385.45 835,-367.45 861,-367.45 861,-385.45"/>
<text text-anchor="middle" x="848" y="-374.25" font-family="Times,serif" font-size="9.00">&#45;8</text>
</g>
<!-- &#45;9 -->
<g id="node9" class="node">
<title>&#45;9</title>
<polygon fill="lightgray" stroke="black" points="482,-385.45 456,-385.45 456,-367.45 482,-367.45 482,-385.45"/>
<text text-anchor="middle" x="469" y="-374.25" font-family="Times,serif" font-size="9.00">&#45;9</text>
</g>
<!-- &#45;9&#45;&gt;1 -->
<g id="edge8" class="edge">
<title>&#45;9&#45;&gt;1</title>
<path fill="none" stroke="green" stroke-width="0.39" d="M482.24,-370.3C497.55,-363.66 522.39,-350.62 536,-331.45 576.3,-274.68 530.59,-233.91 574,-179.48 596.06,-151.82 616.95,-165.05 645,-143.48 648.07,-141.12 651.07,-138.34 653.86,-135.47"/>
<polygon fill="green" stroke="green" stroke-width="0.39" points="656.6,-137.66 660.66,-127.87 651.38,-132.99 656.6,-137.66"/>
</g>
<!-- &#45;9&#45;&gt;165 -->
<g id="edge11" class="edge">
<title>&#45;9&#45;&gt;165</title>
<path fill="none" stroke="green" stroke-width="0.43" d="M466.03,-367.1C456.58,-339.03 429.5,-246.05 460,-179.48 508.03,-74.66 659.36,-40.28 728.24,-29.89"/>
<polygon fill="green" stroke="green" stroke-width="0.43" points="728.77,-33.35 738.17,-28.47 727.78,-26.42 728.77,-33.35"/>
</g>
<!-- 4774 -->
<g id="node26" class="node">
<title>4774</title>
<ellipse fill="white" stroke="black" cx="498" cy="-302.45" rx="28.98" ry="28.98"/>
<text text-anchor="middle" x="498" y="-300.25" font-family="Times,serif" font-size="9.00">4774</text>
</g>
<!-- &#45;9&#45;&gt;4774 -->
<g id="edge25" class="edge">
<title>&#45;9&#45;&gt;4774</title>
<path fill="none" stroke="green" stroke-width="0.77" stroke-dasharray="1,5" d="M472.33,-367.19C475.15,-360.17 479.41,-349.6 483.65,-339.07"/>
<polygon fill="green" stroke="green" stroke-width="0.77" points="487.01,-340.09 487.5,-329.51 480.52,-337.48 487.01,-340.09"/>
</g>
<!-- 3549 -->
<g id="node33" class="node">
<title>3549</title>
<ellipse fill="white" stroke="black" cx="384" cy="-302.45" rx="28.98" ry="28.98"/>
<text text-anchor="middle" x="384" y="-300.25" font-family="Times,serif" font-size="9.00">3549</text>
</g>
<!-- &#45;9&#45;&gt;3549 -->
<g id="edge16" class="edge">
<title>&#45;9&#45;&gt;3549</title>
<path fill="none" stroke="green" stroke-width="0.13" d="M459.25,-367.19C448.18,-357.82 429.6,-342.08 413.67,-328.59"/>
<polygon fill="green" stroke="green" stroke-width="0.13" points="415.53,-325.57 405.64,-321.78 411.01,-330.91 415.53,-325.57"/>
</g>
<!-- &#45;10 -->
<g id="node10" class="node">
<title>&#45;10</title>
<polygon fill="lightgray" stroke="black" points="911,-385.45 879,-385.45 879,-367.45 911,-367.45 911,-385.45"/>
<text text-anchor="middle" x="895" y="-374.25" font-family="Times,serif" font-size="9.00">&#45;10</text>
</g>
<!-- &#45;11 -->
<g id="node11" class="node">
<title>&#45;11</title>
<polygon fill="lightgray" stroke="black" points="961,-385.45 929,-385.45 929,-367.45 961,-367.45 961,-385.45"/>
<text text-anchor="middle" x="945" y="-374.25" font-family="Times,serif" font-size="9.00">&#45;11</text>
</g>
<!-- &#45;12 -->
<g id="node12" class="node">
<title>&#45;12</title>
<polygon fill="lightgray" stroke="black" points="161,-311.45 129,-311.45 129,-293.45 161,-293.45 161,-311.45"/>
<text text-anchor="middle" x="145" y="-300.25" font-family="Times,serif" font-size="9.00">&#45;12</text>
</g>
<!-- &#45;12&#45;&gt;0 -->
<g id="edge6" class="edge">
<title>&#45;12&#45;&gt;0</title>
<path fill="none" stroke="red" stroke-width="0.32" d="M149.44,-293.29C156.83,-279.69 171.93,-251.92 182.71,-232.07"/>
<polygon fill="red" stroke="red" stroke-width="0.32" points="185.91,-233.52 187.61,-223.06 179.76,-230.18 185.91,-233.52"/>
</g>
<!-- &#45;13 -->
<g id="node13" class="node">
<title>&#45;13</title>
<polygon fill="lightgray" stroke="black" points="754,-123.49 722,-123.49 722,-105.49 754,-105.49 754,-123.49"/>
<text text-anchor="middle" x="738" y="-112.29" font-family="Times,serif" font-size="9.00">&#45;13</text>
</g>
<!-- &#45;13&#45;&gt;165 -->
<g id="edge15" class="edge">
<title>&#45;13&#45;&gt;165</title>
<path fill="none" stroke="red" stroke-width="0.52" d="M740.31,-105.39C743.34,-94.75 748.84,-75.43 753.67,-58.48"/>
<polygon fill="red" stroke="red" stroke-width="0.52" points="757.04,-59.44 756.42,-48.86 750.31,-57.52 757.04,-59.44"/>
</g>
<!-- &#45;14 -->
<g id="node14" class="node">
<title>&#45;14</title>
<polygon fill="lightgray" stroke="black" points="685,-385.45 653,-385.45 653,-367.45 685,-367.45 685,-385.45"/>
<text text-anchor="middle" x="669" y="-374.25" font-family="Times,serif" font-size="9.00">&#45;14</text>
</g>
<!-- &#45;14&#45;&gt;1 -->
<g id="edge2" class="edge">
<title>&#45;14&#45;&gt;1</title>
<path fill="none" stroke="red" stroke-width="0.38" stroke-dasharray="1,5" d="M684.19,-367.38C732.08,-340.91 873.64,-254.12 820,-179.48 790.72,-138.74 758.16,-165.34 713,-143.48 705.61,-139.9 697.97,-135.28 691.22,-130.82"/>
<polygon fill="red" stroke="red" stroke-width="0.38" points="692.9,-127.72 682.67,-124.96 688.94,-133.5 692.9,-127.72"/>
</g>
<!-- 3634 -->
<g id="node30" class="node">
<title>3634</title>
<ellipse fill="white" stroke="black" cx="612" cy="-208.47" rx="28.98" ry="28.98"/>
<text text-anchor="middle" x="612" y="-206.27" font-family="Times,serif" font-size="9.00">3634</text>
</g>
<!-- &#45;14&#45;&gt;3634 -->
<g id="edge18" class="edge">
<title>&#45;14&#45;&gt;3634</title>
<path fill="none" stroke="red" stroke-width="0.25" stroke-dasharray="1,5" d="M668.45,-367.25C667.06,-349.59 662.56,-306.84 650,-273.46 645.85,-262.45 639.84,-251.17 633.82,-241.2"/>
<polygon fill="red" stroke="red" stroke-width="0.25" points="636.63,-239.08 628.35,-232.47 630.7,-242.8 636.63,-239.08"/>
</g>
<!-- 4914 -->
<g id="node32" class="node">
<title>4914</title>
<ellipse fill="white" stroke="black" cx="612" cy="-302.45" rx="28.98" ry="28.98"/>
<text text-anchor="middle" x="612" y="-300.25" font-family="Times,serif" font-size="9.00">4914</text>
</g>
<!-- &#45;14&#45;&gt;4914 -->
<g id="edge31" class="edge">
<title>&#45;14&#45;&gt;4914</title>
<path fill="none" stroke="green" stroke-width="0.37" d="M662.46,-367.19C655.94,-358.95 645.52,-345.78 635.83,-333.56"/>
<polygon fill="green" stroke="green" stroke-width="0.37" points="638.58,-331.38 629.63,-325.72 633.09,-335.73 638.58,-331.38"/>
</g>
<!-- &#45;15 -->
<g id="node15" class="node">
<title>&#45;15</title>
<polygon fill="lightgray" stroke="black" points="804,-123.49 772,-123.49 772,-105.49 804,-105.49 804,-123.49"/>
<text text-anchor="middle" x="788" y="-112.29" font-family="Times,serif" font-size="9.00">&#45;15</text>
</g>
<!-- &#45;15&#45;&gt;165 -->
<g id="edge21" class="edge">
<title>&#45;15&#45;&gt;165</title>
<path fill="none" stroke="green" stroke-width="0.34" d="M785.69,-105.39C782.66,-94.75 777.16,-75.43 772.33,-58.48"/>
<polygon fill="green" stroke="green" stroke-width="0.34" points="775.69,-57.52 769.58,-48.86 768.96,-59.44 775.69,-57.52"/>
</g>
<!-- &#45;16 -->
<g id="node16" class="node">
<title>&#45;16</title>
<polygon fill="lightgray" stroke="black" points="903,-217.47 871,-217.47 871,-199.47 903,-199.47 903,-217.47"/>
<text text-anchor="middle" x="887" y="-206.27" font-family="Times,serif" font-size="9.00">&#45;16</text>
</g>
<!-- &#45;16&#45;&gt;1 -->
<g id="edge7" class="edge">
<title>&#45;16&#45;&gt;1</title>
<path fill="none" stroke="green" stroke-width="0.16" d="M879.34,-199.47C872.88,-193.16 863.09,-184.61 853,-179.48 795.73,-150.37 771.81,-169.35 713,-143.48 705.49,-140.18 697.81,-135.63 691.07,-131.15"/>
<polygon fill="green" stroke="green" stroke-width="0.16" points="692.75,-128.06 682.55,-125.23 688.76,-133.81 692.75,-128.06"/>
</g>
<!-- &#45;16&#45;&gt;165 -->
<g id="edge12" class="edge">
<title>&#45;16&#45;&gt;165</title>
<path fill="none" stroke="green" stroke-width="0.66" stroke-dasharray="1,5" d="M882.56,-199.21C871.65,-179.13 842.26,-126.39 813,-85.5 804.74,-73.95 794.85,-61.83 786.05,-51.55"/>
<polygon fill="green" stroke="green" stroke-width="0.66" points="788.48,-49.01 779.29,-43.74 783.19,-53.59 788.48,-49.01"/>
</g>
<!-- 5000 -->
<g id="node28" class="node">
<title>5000</title>
<ellipse fill="white" stroke="black" cx="889" cy="-114.49" rx="28.98" ry="28.98"/>
<text text-anchor="middle" x="889" y="-112.29" font-family="Times,serif" font-size="9.00">5000</text>
</g>
<!-- &#45;16&#45;&gt;5000 -->
<g id="edge33" class="edge">
<title>&#45;16&#45;&gt;5000</title>
<path fill="none" stroke="green" stroke-width="0.17" d="M887.18,-199.31C887.4,-189.04 887.8,-170.7 888.17,-153.79"/>
<polygon fill="green" stroke="green" stroke-width="0.17" points="891.67,-153.6 888.39,-143.53 884.67,-153.45 891.67,-153.6"/>
</g>
<!-- 3379 -->
<g id="node31" class="node">
<title>3379</title>
<ellipse fill="white" stroke="black" cx="965" cy="-114.49" rx="28.98" ry="28.98"/>
<text text-anchor="middle" x="965" y="-112.29" font-family="Times,serif" font-size="9.00">3379</text>
</g>
<!-- &#45;16&#45;&gt;3379 -->
<g id="edge13" class="edge">
<title>&#45;16&#45;&gt;3379</title>
<path fill="none" stroke="green" stroke-width="0.11" d="M893.92,-199.31C904.17,-187.23 923.88,-163.98 939.96,-145.02"/>
<polygon fill="green" stroke="green" stroke-width="0.11" points="942.79,-147.1 946.58,-137.21 937.45,-142.57 942.79,-147.1"/>
</g>
<!-- &#45;17 -->
<g id="node17" class="node">
<title>&#45;17</title>
<polygon fill="lightgray" stroke="black" points="211,-311.45 179,-311.45 179,-293.45 211,-293.45 211,-311.45"/>
<text text-anchor="middle" x="195" y="-300.25" font-family="Times,serif" font-size="9.00">&#45;17</text>
</g>
<!-- &#45;17&#45;&gt;0 -->
<g id="edge3" class="edge">
<title>&#45;17&#45;&gt;0</title>
<path fill="none" stroke="green" stroke-width="0.9" stroke-dasharray="1,5" d="M195,-293.29C195,-280.38 195,-254.71 195,-235.16"/>
<polygon fill="green" stroke="green" stroke-width="0.9" points="198.5,-235.05 195,-225.05 191.5,-235.05 198.5,-235.05"/>
</g>
<!-- &#45;18 -->
<g id="node18" class="node">
<title>&#45;18</title>
<polygon fill="lightgray" stroke="black" points="261,-311.45 229,-311.45 229,-293.45 261,-293.45 261,-311.45"/>
<text text-anchor="middle" x="245" y="-300.25" font-family="Times,serif" font-size="9.00">&#45;18</text>
</g>
<!-- &#45;18&#45;&gt;0 -->
<g id="edge23" class="edge">
<title>&#45;18&#45;&gt;0</title>
<path fill="none" stroke="red" stroke-width="0.35" stroke-dasharray="1,5" d="M240.56,-293.29C233.17,-279.69 218.07,-251.92 207.29,-232.07"/>
<polygon fill="red" stroke="red" stroke-width="0.35" points="210.24,-230.18 202.39,-223.06 204.09,-233.52 210.24,-230.18"/>
</g>
<!-- &#45;19 -->
<g id="node19" class="node">
<title>&#45;19</title>
<polygon fill="lightgray" stroke="black" points="735,-217.47 703,-217.47 703,-199.47 735,-199.47 735,-217.47"/>
<text text-anchor="middle" x="719" y="-206.27" font-family="Times,serif" font-size="9.00">&#45;19</text>
</g>
<!-- &#45;19&#45;&gt;1 -->
<g id="edge9" class="edge">
<title>&#45;19&#45;&gt;1</title>
<path fill="none" stroke="green" stroke-width="0.28" d="M714.65,-199.31C707.41,-185.71 692.61,-157.94 682.04,-138.09"/>
<polygon fill="green" stroke="green" stroke-width="0.28" points="685.03,-136.26 677.24,-129.08 678.85,-139.55 685.03,-136.26"/>
</g>
<!-- &#45;20 -->
<g id="node20" class="node">
<title>&#45;20</title>
<polygon fill="lightgray" stroke="black" points="1011,-385.45 979,-385.45 979,-367.45 1011,-367.45 1011,-385.45"/>
<text text-anchor="middle" x="995" y="-374.25" font-family="Times,serif" font-size="9.00">&#45;20</text>
</g>
<!-- 1&#45;&gt;1 -->
<g id="edge5" class="edge">
<title>1&#45;&gt;1</title>
<path fill="none" stroke="green" stroke-width="0.1" stroke-dasharray="1,5" d="M680.52,-127.12C691.68,-135.03 704.26,-130.82 704.26,-114.49 704.26,-102.75 697.76,-97.28 689.96,-98.06"/>
<polygon fill="green" stroke="green" stroke-width="0.1" points="688.5,-94.88 680.52,-101.86 691.11,-101.38 688.5,-94.88"/>
</g>
<!-- 4609 -->
<g id="node23" class="node">
<title>4609</title>
<ellipse fill="white" stroke="black" cx="498" cy="-208.47" rx="28.98" ry="28.98"/>
<text text-anchor="middle" x="498" y="-206.27" font-family="Times,serif" font-size="9.00">4609</text>
</g>
<!-- 4609&#45;&gt;1 -->
<g id="edge24" class="edge">
<title>4609&#45;&gt;1</title>
<path fill="none" stroke="green" stroke-width="0.74" stroke-dasharray="1,5" d="M521.5,-190.71C527.67,-186.72 534.44,-182.69 541,-179.48 584.93,-157.98 604.29,-170.59 645,-143.48 648.23,-141.33 651.3,-138.67 654.13,-135.85"/>
<polygon fill="green" stroke="green" stroke-width="0.74" points="656.87,-138.04 660.93,-128.26 651.65,-133.37 656.87,-138.04"/>
</g>
<!-- 4453 -->
<g id="node25" class="node">
<title>4453</title>
<ellipse fill="white" stroke="black" cx="782" cy="-208.47" rx="28.98" ry="28.98"/>
<text text-anchor="middle" x="782" y="-206.27" font-family="Times,serif" font-size="9.00">4453</text>
</g>
<!-- 4453&#45;&gt;1 -->
<g id="edge22" class="edge">
<title>4453&#45;&gt;1</title>
<path fill="none" stroke="red" stroke-width="0.23" d="M759.87,-189.3C739.55,-172.61 709.69,-148.08 690.05,-131.95"/>
<polygon fill="red" stroke="red" stroke-width="0.23" points="692.01,-129.04 682.06,-125.4 687.57,-134.45 692.01,-129.04"/>
</g>
<!-- 4774&#45;&gt;4609 -->
<g id="edge26" class="edge">
<title>4774&#45;&gt;4609</title>
<path fill="none" stroke="green" stroke-width="0.32" d="M498,-273.36C498,-265.32 498,-256.42 498,-247.87"/>
<polygon fill="green" stroke="green" stroke-width="0.32" points="501.5,-247.71 498,-237.71 494.5,-247.71 501.5,-247.71"/>
</g>
<!-- 3880 -->
<g id="node27" class="node">
<title>3880</title>
<ellipse fill="white" stroke="black" cx="607" cy="-114.49" rx="28.98" ry="28.98"/>
<text text-anchor="middle" x="607" y="-112.29" font-family="Times,serif" font-size="9.00">3880</text>
</g>
<!-- 3880&#45;&gt;165 -->
<g id="edge20" class="edge">
<title>3880&#45;&gt;165</title>
<path fill="none" stroke="red" stroke-width="0.42" d="M629.48,-95.98C634.48,-92.36 639.84,-88.68 645,-85.5 673.31,-68.07 707.34,-51.24 731.57,-39.91"/>
<polygon fill="red" stroke="red" stroke-width="0.42" points="733.06,-43.08 740.66,-35.7 730.11,-36.73 733.06,-43.08"/>
</g>
<!-- 5000&#45;&gt;165 -->
<g id="edge34" class="edge">
<title>5000&#45;&gt;165</title>
<path fill="none" stroke="green" stroke-width="0.71" d="M865.6,-97.19C844.61,-82.58 813.77,-61.1 791.38,-45.51"/>
<polygon fill="green" stroke="green" stroke-width="0.71" points="793.17,-42.49 782.96,-39.65 789.17,-48.23 793.17,-42.49"/>
</g>
<!-- 4848&#45;&gt;0 -->
<g id="edge29" class="edge">
<title>4848&#45;&gt;0</title>
<path fill="none" stroke="red" stroke-width="0.63" d="M285.94,-283.5C265.37,-266.76 234.96,-242 215.06,-225.8"/>
<polygon fill="red" stroke="red" stroke-width="0.63" points="217.2,-223.03 207.23,-219.43 212.78,-228.46 217.2,-223.03"/>
</g>
<!-- 3634&#45;&gt;1 -->
<g id="edge19" class="edge">
<title>3634&#45;&gt;1</title>
<path fill="none" stroke="red" stroke-width="0.15" stroke-dasharray="1,5" d="M627.24,-183.3C636.18,-169.12 647.4,-151.33 656.1,-137.53"/>
<polygon fill="red" stroke="red" stroke-width="0.15" points="659.29,-139.03 661.67,-128.7 653.37,-135.3 659.29,-139.03"/>
</g>
<!-- 3634&#45;&gt;3880 -->
<g id="edge30" class="edge">
<title>3634&#45;&gt;3880</title>
<path fill="none" stroke="red" stroke-width="0.3" d="M610.47,-179.37C610.04,-171.34 609.55,-162.43 609.09,-153.89"/>
<polygon fill="red" stroke="red" stroke-width="0.3" points="612.57,-153.53 608.54,-143.73 605.58,-153.91 612.57,-153.53"/>
</g>
<!-- 3379&#45;&gt;165 -->
<g id="edge14" class="edge">
<title>3379&#45;&gt;165</title>
<path fill="none" stroke="green" stroke-width="0.14" d="M942.79,-95.51C937.77,-91.91 932.34,-88.36 927,-85.5 884.16,-62.53 830.62,-44.89 796.6,-34.91"/>
<polygon fill="green" stroke="green" stroke-width="0.14" points="797.29,-31.47 786.71,-32.07 795.35,-38.19 797.29,-31.47"/>
</g>
<!-- 4914&#45;&gt;3634 -->
<g id="edge32" class="edge">
<title>4914&#45;&gt;3634</title>
<path fill="none" stroke="red" stroke-width="0.31" d="M612,-273.36C612,-265.32 612,-256.42 612,-247.87"/>
<polygon fill="red" stroke="red" stroke-width="0.31" points="615.5,-247.71 612,-237.71 608.5,-247.71 615.5,-247.71"/>
</g>
<!-- 3549&#45;&gt;0 -->
<g id="edge17" class="edge">
<title>3549&#45;&gt;0</title>
<path fill="none" stroke="red" stroke-width="0.61" stroke-dasharray="1,5" d="M361.68,-283.68C356.67,-280.07 351.27,-276.46 346,-273.46 303.55,-249.28 250.16,-228.76 219.57,-217.86"/>
<polygon fill="red" stroke="red" stroke-width="0.61" points="220.72,-214.56 210.12,-214.55 218.4,-221.16 220.72,-214.56"/>
</g>
</g>
</svg>
