<?xml version="1.0" encoding="UTF-8" standalone="no"?>
<!DOCTYPE svg PUBLIC "-//W3C//DTD SVG 1.1//EN"
 "http://www.w3.org/Graphics/SVG/1.1/DTD/svg11.dtd">
<!-- Generated by graphviz version 2.43.0 (0)
 -->
<!-- Title: %3 Pages: 1 -->
<svg width="936pt" height="95pt"
 viewBox="0.00 0.00 936.00 94.53" xmlns="http://www.w3.org/2000/svg" xmlns:xlink="http://www.w3.org/1999/xlink">
<g id="graph0" class="graph" transform="scale(1 1) rotate(0) translate(4 90.53)">
<title>%3</title>
<polygon fill="white" stroke="transparent" points="-4,4 -4,-90.53 932,-90.53 932,4 -4,4"/>
<!-- &#45;1 -->
<g id="node1" class="node">
<title>&#45;1</title>
<polygon fill="lightgray" stroke="black" points="364,-86.53 338,-86.53 338,-68.53 364,-68.53 364,-86.53"/>
<text text-anchor="middle" x="351" y="-75.33" font-family="Times,serif" font-size="9.00">&#45;1</text>
</g>
<!-- 0 -->
<g id="node21" class="node">
<title>0</title>
<ellipse fill="lightblue" stroke="black" cx="229" cy="-16.26" rx="16.03" ry="16.03"/>
<text text-anchor="middle" x="229" y="-14.06" font-family="Times,serif" font-size="9.00">0</text>
</g>
<!-- &#45;1&#45;&gt;0 -->
<g id="edge2" class="edge">
<title>&#45;1&#45;&gt;0</title>
<path fill="none" stroke="red" stroke-width="0.45" d="M337.94,-70.18C317.65,-60.33 278.22,-41.17 252.78,-28.82"/>
<polygon fill="red" stroke="red" stroke-width="0.45" points="253.99,-25.51 243.47,-24.29 250.93,-31.81 253.99,-25.51"/>
</g>
<!-- 1 -->
<g id="node22" class="node">
<title>1</title>
<ellipse fill="lightblue" stroke="black" cx="533" cy="-16.26" rx="16.03" ry="16.03"/>
<text text-anchor="middle" x="533" y="-14.06" font-family="Times,serif" font-size="9.00">1</text>
</g>
<!-- &#45;1&#45;&gt;1 -->
<g id="edge7" class="edge">
<title>&#45;1&#45;&gt;1</title>
<path fill="none" stroke="red" stroke-width="0.3" d="M364.47,-71.54C367.28,-70.52 370.23,-69.47 373,-68.53 420.36,-52.33 476.12,-34.82 507.74,-25.03"/>
<polygon fill="red" stroke="red" stroke-width="0.3" points="508.97,-28.31 517.49,-22.01 506.9,-21.62 508.97,-28.31"/>
</g>
<!-- &#45;2 -->
<g id="node2" class="node">
<title>&#45;2</title>
<polygon fill="lightgray" stroke="black" points="502,-86.53 476,-86.53 476,-68.53 502,-68.53 502,-86.53"/>
<text text-anchor="middle" x="489" y="-75.33" font-family="Times,serif" font-size="9.00">&#45;2</text>
</g>
<!-- &#45;2&#45;&gt;1 -->
<g id="edge3" class="edge">
<title>&#45;2&#45;&gt;1</title>
<path fill="none" stroke="red" stroke-width="0.19" d="M495.12,-68.29C500.87,-60.53 509.73,-48.6 517.44,-38.22"/>
<polygon fill="red" stroke="red" stroke-width="0.19" points="520.4,-40.11 523.55,-30 514.78,-35.94 520.4,-40.11"/>
</g>
<!-- &#45;3 -->
<g id="node3" class="node">
<title>&#45;3</title>
<polygon fill="lightgray" stroke="black" points="546,-86.53 520,-86.53 520,-68.53 546,-68.53 546,-86.53"/>
<text text-anchor="middle" x="533" y="-75.33" font-family="Times,serif" font-size="9.00">&#45;3</text>
</g>
<!-- &#45;3&#45;&gt;1 -->
<g id="edge4" class="edge">
<title>&#45;3&#45;&gt;1</title>
<path fill="none" stroke="red" stroke-width="0.46" d="M533,-68.29C533,-61.7 533,-52.1 533,-43"/>
<polygon fill="red" stroke="red" stroke-width="0.46" points="536.5,-42.76 533,-32.76 529.5,-42.76 536.5,-42.76"/>
</g>
<!-- &#45;4 -->
<g id="node4" class="node">
<title>&#45;4</title>
<polygon fill="lightgray" stroke="black" points="76,-86.53 50,-86.53 50,-68.53 76,-68.53 76,-86.53"/>
<text text-anchor="middle" x="63" y="-75.33" font-family="Times,serif" font-size="9.00">&#45;4</text>
</g>
<!-- &#45;4&#45;&gt;0 -->
<g id="edge16" class="edge">
<title>&#45;4&#45;&gt;0</title>
<path fill="none" stroke="red" stroke-width="0.66" stroke-dasharray="1,5" d="M76.02,-71.77C78.97,-70.7 82.09,-69.57 85,-68.53 126.81,-53.48 175.53,-36.19 204.23,-26.02"/>
<polygon fill="red" stroke="red" stroke-width="0.66" points="205.59,-29.25 213.85,-22.62 203.26,-22.66 205.59,-29.25"/>
</g>
<!-- &#45;5 -->
<g id="node5" class="node">
<title>&#45;5</title>
<polygon fill="lightgray" stroke="black" points="784,-86.53 758,-86.53 758,-68.53 784,-68.53 784,-86.53"/>
<text text-anchor="middle" x="771" y="-75.33" font-family="Times,serif" font-size="9.00">&#45;5</text>
</g>
<!-- &#45;6 -->
<g id="node6" class="node">
<title>&#45;6</title>
<polygon fill="lightgray" stroke="black" points="828,-86.53 802,-86.53 802,-68.53 828,-68.53 828,-86.53"/>
<text text-anchor="middle" x="815" y="-75.33" font-family="Times,serif" font-size="9.00">&#45;6</text>
</g>
<!-- &#45;7 -->
<g id="node7" class="node">
<title>&#45;7</title>
<polygon fill="lightgray" stroke="black" points="120,-86.53 94,-86.53 94,-68.53 120,-68.53 120,-86.53"/>
<text text-anchor="middle" x="107" y="-75.33" font-family="Times,serif" font-size="9.00">&#45;7</text>
</g>
<!-- &#45;7&#45;&gt;0 -->
<g id="edge11" class="edge">
<title>&#45;7&#45;&gt;0</title>
<path fill="none" stroke="green" stroke-width="0.82" stroke-dasharray="1,5" d="M120.06,-70.18C140.35,-60.33 179.78,-41.17 205.22,-28.82"/>
<polygon fill="green" stroke="green" stroke-width="0.82" points="207.07,-31.81 214.53,-24.29 204.01,-25.51 207.07,-31.81"/>
</g>
<!-- &#45;8 -->
<g id="node8" class="node">
<title>&#45;8</title>
<polygon fill="lightgray" stroke="black" points="590,-86.53 564,-86.53 564,-68.53 590,-68.53 590,-86.53"/>
<text text-anchor="middle" x="577" y="-75.33" font-family="Times,serif" font-size="9.00">&#45;8</text>
</g>
<!-- &#45;8&#45;&gt;1 -->
<g id="edge17" class="edge">
<title>&#45;8&#45;&gt;1</title>
<path fill="none" stroke="green" stroke-width="0.44" d="M570.88,-68.29C565.13,-60.53 556.27,-48.6 548.56,-38.22"/>
<polygon fill="green" stroke="green" stroke-width="0.44" points="551.22,-35.94 542.45,-30 545.6,-40.11 551.22,-35.94"/>
</g>
<!-- &#45;9 -->
<g id="node9" class="node">
<title>&#45;9</title>
<polygon fill="lightgray" stroke="black" points="408,-86.53 382,-86.53 382,-68.53 408,-68.53 408,-86.53"/>
<text text-anchor="middle" x="395" y="-75.33" font-family="Times,serif" font-size="9.00">&#45;9</text>
</g>
<!-- &#45;9&#45;&gt;0 -->
<g id="edge10" class="edge">
<title>&#45;9&#45;&gt;0</title>
<path fill="none" stroke="red" stroke-width="0.51" d="M381.98,-71.77C379.03,-70.7 375.91,-69.57 373,-68.53 331.19,-53.48 282.47,-36.19 253.77,-26.02"/>
<polygon fill="red" stroke="red" stroke-width="0.51" points="254.74,-22.66 244.15,-22.62 252.41,-29.25 254.74,-22.66"/>
</g>
<!-- &#45;9&#45;&gt;1 -->
<g id="edge19" class="edge">
<title>&#45;9&#45;&gt;1</title>
<path fill="none" stroke="red" stroke-width="0.43" stroke-dasharray="1,5" d="M408.23,-70.84C431.41,-60.89 479.64,-40.18 508.88,-27.62"/>
<polygon fill="red" stroke="red" stroke-width="0.43" points="510.55,-30.71 518.36,-23.55 507.79,-24.28 510.55,-30.71"/>
</g>
<!-- &#45;10 -->
<g id="node10" class="node">
<title>&#45;10</title>
<polygon fill="lightgray" stroke="black" points="170,-86.53 138,-86.53 138,-68.53 170,-68.53 170,-86.53"/>
<text text-anchor="middle" x="154" y="-75.33" font-family="Times,serif" font-size="9.00">&#45;10</text>
</g>
<!-- &#45;10&#45;&gt;0 -->
<g id="edge13" class="edge">
<title>&#45;10&#45;&gt;0</title>
<path fill="none" stroke="green" stroke-width="0.18" d="M164.43,-68.29C175.76,-59.33 194.16,-44.8 208.42,-33.52"/>
<polygon fill="green" stroke="green" stroke-width="0.18" points="210.99,-35.95 216.67,-27.01 206.65,-30.46 210.99,-35.95"/>
</g>
<!-- &#45;11 -->
<g id="node11" class="node">
<title>&#45;11</title>
<polygon fill="lightgray" stroke="black" points="220,-86.53 188,-86.53 188,-68.53 220,-68.53 220,-86.53"/>
<text text-anchor="middle" x="204" y="-75.33" font-family="Times,serif" font-size="9.00">&#45;11</text>
</g>
<!-- &#45;11&#45;&gt;0 -->
<g id="edge6" class="edge">
<title>&#45;11&#45;&gt;0</title>
<path fill="none" stroke="green" stroke-width="0.38" d="M207.48,-68.29C210.45,-61.23 214.9,-50.7 218.97,-41.03"/>
<polygon fill="green" stroke="green" stroke-width="0.38" points="222.2,-42.39 222.86,-31.82 215.75,-39.67 222.2,-42.39"/>
</g>
<!-- &#45;12 -->
<g id="node12" class="node">
<title>&#45;12</title>
<polygon fill="lightgray" stroke="black" points="270,-86.53 238,-86.53 238,-68.53 270,-68.53 270,-86.53"/>
<text text-anchor="middle" x="254" y="-75.33" font-family="Times,serif" font-size="9.00">&#45;12</text>
</g>
<!-- &#45;12&#45;&gt;0 -->
<g id="edge5" class="edge">
<title>&#45;12&#45;&gt;0</title>
<path fill="none" stroke="red" stroke-width="0.29" d="M250.52,-68.29C247.55,-61.23 243.1,-50.7 239.03,-41.03"/>
<polygon fill="red" stroke="red" stroke-width="0.29" points="242.25,-39.67 235.14,-31.82 235.8,-42.39 242.25,-39.67"/>
</g>
<!-- &#45;13 -->
<g id="node13" class="node">
<title>&#45;13</title>
<polygon fill="lightgray" stroke="black" points="878,-86.53 846,-86.53 846,-68.53 878,-68.53 878,-86.53"/>
<text text-anchor="middle" x="862" y="-75.33" font-family="Times,serif" font-size="9.00">&#45;13</text>
</g>
<!-- &#45;14 -->
<g id="node14" class="node">
<title>&#45;14</title>
<polygon fill="lightgray" stroke="black" points="640,-86.53 608,-86.53 608,-68.53 640,-68.53 640,-86.53"/>
<text text-anchor="middle" x="624" y="-75.33" font-family="Times,serif" font-size="9.00">&#45;14</text>
</g>
<!-- &#45;14&#45;&gt;1 -->
<g id="edge18" class="edge">
<title>&#45;14&#45;&gt;1</title>
<path fill="none" stroke="green" stroke-width="0.5" d="M611.35,-68.29C596.79,-58.81 572.63,-43.07 554.98,-31.58"/>
<polygon fill="green" stroke="green" stroke-width="0.5" points="556.72,-28.54 546.43,-26.01 552.9,-34.4 556.72,-28.54"/>
</g>
<!-- &#45;15 -->
<g id="node15" class="node">
<title>&#45;15</title>
<polygon fill="lightgray" stroke="black" points="690,-86.53 658,-86.53 658,-68.53 690,-68.53 690,-86.53"/>
<text text-anchor="middle" x="674" y="-75.33" font-family="Times,serif" font-size="9.00">&#45;15</text>
</g>
<!-- &#45;15&#45;&gt;1 -->
<g id="edge15" class="edge">
<title>&#45;15&#45;&gt;1</title>
<path fill="none" stroke="red" stroke-width="0.81" stroke-dasharray="1,5" d="M657.83,-69.73C633.11,-59.34 585.78,-39.45 557.04,-27.37"/>
<polygon fill="red" stroke="red" stroke-width="0.81" points="558.29,-24.09 547.71,-23.45 555.57,-30.55 558.29,-24.09"/>
</g>
<!-- &#45;16 -->
<g id="node16" class="node">
<title>&#45;16</title>
<polygon fill="lightgray" stroke="black" points="458,-86.53 426,-86.53 426,-68.53 458,-68.53 458,-86.53"/>
<text text-anchor="middle" x="442" y="-75.33" font-family="Times,serif" font-size="9.00">&#45;16</text>
</g>
<!-- &#45;16&#45;&gt;0 -->
<g id="edge8" class="edge">
<title>&#45;16&#45;&gt;0</title>
<path fill="none" stroke="green" stroke-width="0.35" stroke-dasharray="1,5" d="M425.89,-71.26C422.94,-70.33 419.88,-69.38 417,-68.53 359.13,-51.39 290.62,-33.24 254.4,-23.82"/>
<polygon fill="green" stroke="green" stroke-width="0.35" points="255.22,-20.41 244.66,-21.29 253.46,-27.19 255.22,-20.41"/>
</g>
<!-- &#45;16&#45;&gt;1 -->
<g id="edge1" class="edge">
<title>&#45;16&#45;&gt;1</title>
<path fill="none" stroke="green" stroke-width="0.72" stroke-dasharray="1,5" d="M454.65,-68.29C469.21,-58.81 493.37,-43.07 511.02,-31.58"/>
<polygon fill="green" stroke="green" stroke-width="0.72" points="513.1,-34.4 519.57,-26.01 509.28,-28.54 513.1,-34.4"/>
</g>
<!-- &#45;17 -->
<g id="node17" class="node">
<title>&#45;17</title>
<polygon fill="lightgray" stroke="black" points="928,-86.53 896,-86.53 896,-68.53 928,-68.53 928,-86.53"/>
<text text-anchor="middle" x="912" y="-75.33" font-family="Times,serif" font-size="9.00">&#45;17</text>
</g>
<!-- &#45;18 -->
<g id="node18" class="node">
<title>&#45;18</title>
<polygon fill="lightgray" stroke="black" points="320,-86.53 288,-86.53 288,-68.53 320,-68.53 320,-86.53"/>
<text text-anchor="middle" x="304" y="-75.33" font-family="Times,serif" font-size="9.00">&#45;18</text>
</g>
<!-- &#45;18&#45;&gt;0 -->
<g id="edge20" class="edge">
<title>&#45;18&#45;&gt;0</title>
<path fill="none" stroke="green" stroke-width="0.26" stroke-dasharray="1,5" d="M293.57,-68.29C282.24,-59.33 263.84,-44.8 249.58,-33.52"/>
<polygon fill="green" stroke="green" stroke-width="0.26" points="251.35,-30.46 241.33,-27.01 247.01,-35.95 251.35,-30.46"/>
</g>
<!-- &#45;19 -->
<g id="node19" class="node">
<title>&#45;19</title>
<polygon fill="lightgray" stroke="black" points="740,-86.53 708,-86.53 708,-68.53 740,-68.53 740,-86.53"/>
<text text-anchor="middle" x="724" y="-75.33" font-family="Times,serif" font-size="9.00">&#45;19</text>
</g>
<!-- &#45;19&#45;&gt;1 -->
<g id="edge12" class="edge">
<title>&#45;19&#45;&gt;1</title>
<path fill="none" stroke="red" stroke-width="0.12" d="M707.87,-71.34C704.92,-70.4 701.87,-69.43 699,-68.53 649.15,-52.85 590.74,-34.92 558.19,-24.96"/>
<polygon fill="red" stroke="red" stroke-width="0.12" points="559.17,-21.59 548.58,-22.02 557.12,-28.29 559.17,-21.59"/>
</g>
<!-- &#45;20 -->
<g id="node20" class="node">
<title>&#45;20</title>
<polygon fill="lightgray" stroke="black" points="32,-86.53 0,-86.53 0,-68.53 32,-68.53 32,-86.53"/>
<text text-anchor="middle" x="16" y="-75.33" font-family="Times,serif" font-size="9.00">&#45;20</text>
</g>
<!-- &#45;20&#45;&gt;0 -->
<g id="edge9" class="edge">
<title>&#45;20&#45;&gt;0</title>
<path fill="none" stroke="red" stroke-width="0.45" stroke-dasharray="1,5" d="M32.11,-71.26C35.06,-70.33 38.12,-69.38 41,-68.53 98.87,-51.39 167.38,-33.24 203.6,-23.82"/>
<polygon fill="red" stroke="red" stroke-width="0.45" points="204.54,-27.19 213.34,-21.29 202.78,-20.41 204.54,-27.19"/>
</g>
<!-- 1&#45;&gt;1 -->
<g id="edge14" class="edge">
<title>1&#45;&gt;1</title>
<path fill="none" stroke="red" stroke-width="0.1" stroke-dasharray="1,5" d="M546.36,-26.06C556.71,-29.72 567.26,-26.46 567.26,-16.26 567.26,-9.57 562.72,-5.87 556.67,-5.14"/>
<polygon fill="red" stroke="red" stroke-width="0.1" points="555.84,-1.72 546.36,-6.47 556.73,-8.67 555.84,-1.72"/>
</g>
</g>
</svg>
