<?xml version="1.0" encoding="UTF-8" standalone="no"?>
<!DOCTYPE svg PUBLIC "-//W3C//DTD SVG 1.1//EN"
 "http://www.w3.org/Graphics/SVG/1.1/DTD/svg11.dtd">
<!-- Generated by graphviz version 2.43.0 (0)
 -->
<!-- Title: %3 Pages: 1 -->
<svg width="536pt" height="95pt"
 viewBox="0.00 0.00 536.00 94.53" xmlns="http://www.w3.org/2000/svg" xmlns:xlink="http://www.w3.org/1999/xlink">
<g id="graph0" class="graph" transform="scale(1 1) rotate(0) translate(4 90.53)">
<title>%3</title>
<polygon fill="white" stroke="transparent" points="-4,4 -4,-90.53 532,-90.53 532,4 -4,4"/>
<!-- &#45;1 -->
<g id="node1" class="node">
<title>&#45;1</title>
<polygon fill="lightgray" stroke="black" points="158,-86.53 132,-86.53 132,-68.53 158,-68.53 158,-86.53"/>
<text text-anchor="middle" x="145" y="-75.33" font-family="Times,serif" font-size="9.00">&#45;1</text>
</g>
<!-- 0 -->
<g id="node13" class="node">
<title>0</title>
<ellipse fill="lightblue" stroke="black" cx="128" cy="-16.26" rx="16.03" ry="16.03"/>
<text text-anchor="middle" x="128" y="-14.06" font-family="Times,serif" font-size="9.00">0</text>
</g>
<!-- &#45;1&#45;&gt;0 -->
<g id="edge5" class="edge">
<title>&#45;1&#45;&gt;0</title>
<path fill="none" stroke="red" stroke-width="0.11" d="M142.64,-68.29C140.68,-61.47 137.79,-51.41 135.1,-42.02"/>
<polygon fill="red" stroke="red" stroke-width="0.11" points="138.43,-40.93 132.31,-32.29 131.7,-42.86 138.43,-40.93"/>
</g>
<!-- 1 -->
<g id="node14" class="node">
<title>1</title>
<ellipse fill="lightblue" stroke="black" cx="206" cy="-16.26" rx="16.03" ry="16.03"/>
<text text-anchor="middle" x="206" y="-14.06" font-family="Times,serif" font-size="9.00">1</text>
</g>
<!-- &#45;1&#45;&gt;1 -->
<g id="edge7" class="edge">
<title>&#45;1&#45;&gt;1</title>
<path fill="none" stroke="red" stroke-width="0.28" d="M153.48,-68.29C162.21,-59.81 176.08,-46.33 187.37,-35.36"/>
<polygon fill="red" stroke="red" stroke-width="0.28" points="189.95,-37.73 194.69,-28.25 185.08,-32.71 189.95,-37.73"/>
</g>
<!-- &#45;2 -->
<g id="node2" class="node">
<title>&#45;2</title>
<polygon fill="lightgray" stroke="black" points="296,-86.53 270,-86.53 270,-68.53 296,-68.53 296,-86.53"/>
<text text-anchor="middle" x="283" y="-75.33" font-family="Times,serif" font-size="9.00">&#45;2</text>
</g>
<!-- &#45;2&#45;&gt;1 -->
<g id="edge6" class="edge">
<title>&#45;2&#45;&gt;1</title>
<path fill="none" stroke="red" stroke-width="0.1" stroke-dasharray="1,5" d="M272.29,-68.29C260.48,-59.19 241.19,-44.35 226.46,-33.01"/>
<polygon fill="red" stroke="red" stroke-width="0.1" points="228.46,-30.13 218.4,-26.81 224.19,-35.68 228.46,-30.13"/>
</g>
<!-- &#45;3 -->
<g id="node3" class="node">
<title>&#45;3</title>
<polygon fill="lightgray" stroke="black" points="26,-86.53 0,-86.53 0,-68.53 26,-68.53 26,-86.53"/>
<text text-anchor="middle" x="13" y="-75.33" font-family="Times,serif" font-size="9.00">&#45;3</text>
</g>
<!-- &#45;3&#45;&gt;0 -->
<g id="edge4" class="edge">
<title>&#45;3&#45;&gt;0</title>
<path fill="none" stroke="green" stroke-width="0.16" stroke-dasharray="1,5" d="M26.19,-69.73C45.38,-59.84 81.26,-41.35 104.89,-29.17"/>
<polygon fill="green" stroke="green" stroke-width="0.16" points="106.6,-32.23 113.89,-24.54 103.4,-26.01 106.6,-32.23"/>
</g>
<!-- &#45;4 -->
<g id="node4" class="node">
<title>&#45;4</title>
<polygon fill="lightgray" stroke="black" points="340,-86.53 314,-86.53 314,-68.53 340,-68.53 340,-86.53"/>
<text text-anchor="middle" x="327" y="-75.33" font-family="Times,serif" font-size="9.00">&#45;4</text>
</g>
<!-- &#45;5 -->
<g id="node5" class="node">
<title>&#45;5</title>
<polygon fill="lightgray" stroke="black" points="202,-86.53 176,-86.53 176,-68.53 202,-68.53 202,-86.53"/>
<text text-anchor="middle" x="189" y="-75.33" font-family="Times,serif" font-size="9.00">&#45;5</text>
</g>
<!-- &#45;5&#45;&gt;0 -->
<g id="edge10" class="edge">
<title>&#45;5&#45;&gt;0</title>
<path fill="none" stroke="red" stroke-width="0.28" stroke-dasharray="1,5" d="M180.52,-68.29C171.79,-59.81 157.92,-46.33 146.63,-35.36"/>
<polygon fill="red" stroke="red" stroke-width="0.28" points="148.92,-32.71 139.31,-28.25 144.05,-37.73 148.92,-32.71"/>
</g>
<!-- &#45;5&#45;&gt;1 -->
<g id="edge2" class="edge">
<title>&#45;5&#45;&gt;1</title>
<path fill="none" stroke="red" stroke-width="0.59" d="M191.36,-68.29C193.32,-61.47 196.21,-51.41 198.9,-42.02"/>
<polygon fill="red" stroke="red" stroke-width="0.59" points="202.3,-42.86 201.69,-32.29 195.57,-40.93 202.3,-42.86"/>
</g>
<!-- &#45;6 -->
<g id="node6" class="node">
<title>&#45;6</title>
<polygon fill="lightgray" stroke="black" points="384,-86.53 358,-86.53 358,-68.53 384,-68.53 384,-86.53"/>
<text text-anchor="middle" x="371" y="-75.33" font-family="Times,serif" font-size="9.00">&#45;6</text>
</g>
<!-- &#45;7 -->
<g id="node7" class="node">
<title>&#45;7</title>
<polygon fill="lightgray" stroke="black" points="428,-86.53 402,-86.53 402,-68.53 428,-68.53 428,-86.53"/>
<text text-anchor="middle" x="415" y="-75.33" font-family="Times,serif" font-size="9.00">&#45;7</text>
</g>
<!-- &#45;8 -->
<g id="node8" class="node">
<title>&#45;8</title>
<polygon fill="lightgray" stroke="black" points="70,-86.53 44,-86.53 44,-68.53 70,-68.53 70,-86.53"/>
<text text-anchor="middle" x="57" y="-75.33" font-family="Times,serif" font-size="9.00">&#45;8</text>
</g>
<!-- &#45;8&#45;&gt;0 -->
<g id="edge9" class="edge">
<title>&#45;8&#45;&gt;0</title>
<path fill="none" stroke="red" stroke-width="0.4" d="M66.87,-68.29C77.47,-59.44 94.61,-45.14 108.04,-33.92"/>
<polygon fill="red" stroke="red" stroke-width="0.4" points="110.4,-36.51 115.84,-27.42 105.92,-31.14 110.4,-36.51"/>
</g>
<!-- &#45;9 -->
<g id="node9" class="node">
<title>&#45;9</title>
<polygon fill="lightgray" stroke="black" points="114,-86.53 88,-86.53 88,-68.53 114,-68.53 114,-86.53"/>
<text text-anchor="middle" x="101" y="-75.33" font-family="Times,serif" font-size="9.00">&#45;9</text>
</g>
<!-- &#45;9&#45;&gt;0 -->
<g id="edge1" class="edge">
<title>&#45;9&#45;&gt;0</title>
<path fill="none" stroke="green" stroke-width="0.5" d="M104.75,-68.29C108.01,-61.13 112.9,-50.41 117.35,-40.64"/>
<polygon fill="green" stroke="green" stroke-width="0.5" points="120.62,-41.91 121.58,-31.36 114.25,-39 120.62,-41.91"/>
</g>
<!-- &#45;10 -->
<g id="node10" class="node">
<title>&#45;10</title>
<polygon fill="lightgray" stroke="black" points="478,-86.53 446,-86.53 446,-68.53 478,-68.53 478,-86.53"/>
<text text-anchor="middle" x="462" y="-75.33" font-family="Times,serif" font-size="9.00">&#45;10</text>
</g>
<!-- &#45;11 -->
<g id="node11" class="node">
<title>&#45;11</title>
<polygon fill="lightgray" stroke="black" points="528,-86.53 496,-86.53 496,-68.53 528,-68.53 528,-86.53"/>
<text text-anchor="middle" x="512" y="-75.33" font-family="Times,serif" font-size="9.00">&#45;11</text>
</g>
<!-- &#45;12 -->
<g id="node12" class="node">
<title>&#45;12</title>
<polygon fill="lightgray" stroke="black" points="252,-86.53 220,-86.53 220,-68.53 252,-68.53 252,-86.53"/>
<text text-anchor="middle" x="236" y="-75.33" font-family="Times,serif" font-size="9.00">&#45;12</text>
</g>
<!-- &#45;12&#45;&gt;0 -->
<g id="edge8" class="edge">
<title>&#45;12&#45;&gt;0</title>
<path fill="none" stroke="green" stroke-width="0.38" d="M220.98,-68.29C202.79,-58.3 171.95,-41.38 150.81,-29.78"/>
<polygon fill="green" stroke="green" stroke-width="0.38" points="152.31,-26.61 141.86,-24.87 148.95,-32.75 152.31,-26.61"/>
</g>
<!-- &#45;12&#45;&gt;1 -->
<g id="edge11" class="edge">
<title>&#45;12&#45;&gt;1</title>
<path fill="none" stroke="green" stroke-width="0.34" d="M231.83,-68.29C228.17,-61.06 222.67,-50.19 217.68,-40.34"/>
<polygon fill="green" stroke="green" stroke-width="0.34" points="220.77,-38.7 213.13,-31.36 214.53,-41.86 220.77,-38.7"/>
</g>
<!-- 0&#45;&gt;0 -->
<g id="edge3" class="edge">
<title>0&#45;&gt;0</title>
<path fill="none" stroke="red" stroke-width="0.22" d="M141.36,-26.06C151.71,-29.72 162.26,-26.46 162.26,-16.26 162.26,-9.57 157.72,-5.87 151.67,-5.14"/>
<polygon fill="red" stroke="red" stroke-width="0.22" points="150.84,-1.72 141.36,-6.47 151.73,-8.67 150.84,-1.72"/>
</g>
</g>
</svg>
