<?xml version="1.0" encoding="UTF-8" standalone="no"?>
<!DOCTYPE svg PUBLIC "-//W3C//DTD SVG 1.1//EN"
 "http://www.w3.org/Graphics/SVG/1.1/DTD/svg11.dtd">
<!-- Generated by graphviz version 2.43.0 (0)
 -->
<!-- Title: %3 Pages: 1 -->
<svg width="462pt" height="282pt"
 viewBox="0.00 0.00 462.00 282.49" xmlns="http://www.w3.org/2000/svg" xmlns:xlink="http://www.w3.org/1999/xlink">
<g id="graph0" class="graph" transform="scale(1 1) rotate(0) translate(4 278.49)">
<title>%3</title>
<polygon fill="white" stroke="transparent" points="-4,4 -4,-278.49 458,-278.49 458,4 -4,4"/>
<!-- &#45;1 -->
<g id="node1" class="node">
<title>&#45;1</title>
<polygon fill="lightgray" stroke="black" points="26,-200.5 0,-200.5 0,-182.5 26,-182.5 26,-200.5"/>
<text text-anchor="middle" x="13" y="-189.3" font-family="Times,serif" font-size="9.00">&#45;1</text>
</g>
<!-- 1 -->
<g id="node14" class="node">
<title>1</title>
<ellipse fill="lightblue" stroke="black" cx="161" cy="-110.25" rx="16.03" ry="16.03"/>
<text text-anchor="middle" x="161" y="-108.05" font-family="Times,serif" font-size="9.00">1</text>
</g>
<!-- &#45;1&#45;&gt;1 -->
<g id="edge10" class="edge">
<title>&#45;1&#45;&gt;1</title>
<path fill="none" stroke="red" stroke-width="0.67" d="M17.87,-182.19C21.82,-176.05 27.89,-167.86 35,-162.51 65.81,-139.3 108.59,-124.84 135.53,-117.41"/>
<polygon fill="red" stroke="red" stroke-width="0.67" points="136.58,-120.76 145.35,-114.82 134.79,-113.99 136.58,-120.76"/>
</g>
<!-- &#45;2 -->
<g id="node2" class="node">
<title>&#45;2</title>
<polygon fill="lightgray" stroke="black" points="70,-200.5 44,-200.5 44,-182.5 70,-182.5 70,-200.5"/>
<text text-anchor="middle" x="57" y="-189.3" font-family="Times,serif" font-size="9.00">&#45;2</text>
</g>
<!-- &#45;2&#45;&gt;1 -->
<g id="edge2" class="edge">
<title>&#45;2&#45;&gt;1</title>
<path fill="none" stroke="green" stroke-width="0.2" d="M62.32,-182.28C66.41,-176.34 72.47,-168.37 79,-162.51 96.92,-146.42 120.5,-132.27 137.77,-122.93"/>
<polygon fill="green" stroke="green" stroke-width="0.2" points="139.43,-126.02 146.65,-118.26 136.17,-119.82 139.43,-126.02"/>
</g>
<!-- &#45;3 -->
<g id="node3" class="node">
<title>&#45;3</title>
<polygon fill="lightgray" stroke="black" points="272,-200.5 246,-200.5 246,-182.5 272,-182.5 272,-200.5"/>
<text text-anchor="middle" x="259" y="-189.3" font-family="Times,serif" font-size="9.00">&#45;3</text>
</g>
<!-- 0 -->
<g id="node13" class="node">
<title>0</title>
<ellipse fill="lightblue" stroke="black" cx="361" cy="-110.25" rx="16.03" ry="16.03"/>
<text text-anchor="middle" x="361" y="-108.05" font-family="Times,serif" font-size="9.00">0</text>
</g>
<!-- &#45;3&#45;&gt;0 -->
<g id="edge5" class="edge">
<title>&#45;3&#45;&gt;0</title>
<path fill="none" stroke="green" stroke-width="0.61" d="M264.34,-182.3C268.44,-176.38 274.5,-168.41 281,-162.51 285.97,-158 316.95,-138.5 338.87,-124.9"/>
<polygon fill="green" stroke="green" stroke-width="0.61" points="340.94,-127.73 347.6,-119.49 337.26,-121.78 340.94,-127.73"/>
</g>
<!-- &#45;3&#45;&gt;1 -->
<g id="edge8" class="edge">
<title>&#45;3&#45;&gt;1</title>
<path fill="none" stroke="red" stroke-width="0.86" d="M251.79,-182.28C246.55,-176.49 239.14,-168.7 232,-162.51 216.31,-148.9 197.14,-135.21 182.68,-125.41"/>
<polygon fill="red" stroke="red" stroke-width="0.86" points="184.61,-122.49 174.35,-119.84 180.72,-128.31 184.61,-122.49"/>
</g>
<!-- &#45;4 -->
<g id="node4" class="node">
<title>&#45;4</title>
<polygon fill="lightgray" stroke="black" points="114,-200.5 88,-200.5 88,-182.5 114,-182.5 114,-200.5"/>
<text text-anchor="middle" x="101" y="-189.3" font-family="Times,serif" font-size="9.00">&#45;4</text>
</g>
<!-- &#45;4&#45;&gt;1 -->
<g id="edge3" class="edge">
<title>&#45;4&#45;&gt;1</title>
<path fill="none" stroke="red" stroke-width="0.28" d="M107.2,-182.32C116.17,-170.46 133.08,-148.13 145.55,-131.65"/>
<polygon fill="red" stroke="red" stroke-width="0.28" points="148.36,-133.74 151.61,-123.65 142.78,-129.51 148.36,-133.74"/>
</g>
<!-- &#45;5 -->
<g id="node5" class="node">
<title>&#45;5</title>
<polygon fill="lightgray" stroke="black" points="327,-119.25 301,-119.25 301,-101.25 327,-101.25 327,-119.25"/>
<text text-anchor="middle" x="314" y="-108.05" font-family="Times,serif" font-size="9.00">&#45;5</text>
</g>
<!-- 3193 -->
<g id="node16" class="node">
<title>3193</title>
<ellipse fill="white" stroke="black" cx="361" cy="-28.99" rx="28.98" ry="28.98"/>
<text text-anchor="middle" x="361" y="-26.79" font-family="Times,serif" font-size="9.00">3193</text>
</g>
<!-- &#45;5&#45;&gt;3193 -->
<g id="edge17" class="edge">
<title>&#45;5&#45;&gt;3193</title>
<path fill="none" stroke="green" stroke-width="0.35" d="M318.85,-101.06C324.16,-92.11 333.02,-77.18 341.25,-63.3"/>
<polygon fill="green" stroke="green" stroke-width="0.35" points="344.43,-64.8 346.52,-54.41 338.41,-61.23 344.43,-64.8"/>
</g>
<!-- &#45;6 -->
<g id="node6" class="node">
<title>&#45;6</title>
<polygon fill="lightgray" stroke="black" points="275,-274.49 249,-274.49 249,-256.49 275,-256.49 275,-274.49"/>
<text text-anchor="middle" x="262" y="-263.29" font-family="Times,serif" font-size="9.00">&#45;6</text>
</g>
<!-- &#45;7 -->
<g id="node7" class="node">
<title>&#45;7</title>
<polygon fill="lightgray" stroke="black" points="404,-200.5 378,-200.5 378,-182.5 404,-182.5 404,-200.5"/>
<text text-anchor="middle" x="391" y="-189.3" font-family="Times,serif" font-size="9.00">&#45;7</text>
</g>
<!-- &#45;7&#45;&gt;0 -->
<g id="edge11" class="edge">
<title>&#45;7&#45;&gt;0</title>
<path fill="none" stroke="red" stroke-width="0.12" d="M387.9,-182.32C383.75,-171.35 376.21,-151.42 370.16,-135.45"/>
<polygon fill="red" stroke="red" stroke-width="0.12" points="373.27,-133.77 366.46,-125.66 366.72,-136.25 373.27,-133.77"/>
</g>
<!-- &#45;8 -->
<g id="node8" class="node">
<title>&#45;8</title>
<polygon fill="lightgray" stroke="black" points="319,-274.49 293,-274.49 293,-256.49 319,-256.49 319,-274.49"/>
<text text-anchor="middle" x="306" y="-263.29" font-family="Times,serif" font-size="9.00">&#45;8</text>
</g>
<!-- &#45;9 -->
<g id="node9" class="node">
<title>&#45;9</title>
<polygon fill="lightgray" stroke="black" points="231,-274.49 205,-274.49 205,-256.49 231,-256.49 231,-274.49"/>
<text text-anchor="middle" x="218" y="-263.29" font-family="Times,serif" font-size="9.00">&#45;9</text>
</g>
<!-- &#45;9&#45;&gt;0 -->
<g id="edge7" class="edge">
<title>&#45;9&#45;&gt;0</title>
<path fill="none" stroke="red" stroke-width="1.35" d="M231.35,-259.66C260.49,-249.06 327.48,-224.4 331,-220.49 351.79,-197.44 358.35,-161.29 360.32,-136.95"/>
<polygon fill="red" stroke="red" stroke-width="1.35" points="363.83,-136.88 360.94,-126.69 356.84,-136.46 363.83,-136.88"/>
</g>
<!-- &#45;9&#45;&gt;1 -->
<g id="edge1" class="edge">
<title>&#45;9&#45;&gt;1</title>
<path fill="none" stroke="green" stroke-width="0.32" stroke-dasharray="1,5" d="M217.72,-256.46C216.86,-238.76 213.32,-195.36 199,-162.51 193.92,-150.85 185.75,-139.33 178.28,-130.18"/>
<polygon fill="green" stroke="green" stroke-width="0.32" points="180.89,-127.84 171.73,-122.5 175.56,-132.38 180.89,-127.84"/>
</g>
<!-- 3283 -->
<g id="node15" class="node">
<title>3283</title>
<ellipse fill="white" stroke="black" cx="161" cy="-191.5" rx="28.98" ry="28.98"/>
<text text-anchor="middle" x="161" y="-189.3" font-family="Times,serif" font-size="9.00">3283</text>
</g>
<!-- &#45;9&#45;&gt;3283 -->
<g id="edge15" class="edge">
<title>&#45;9&#45;&gt;3283</title>
<path fill="none" stroke="green" stroke-width="0.36" stroke-dasharray="1,5" d="M211.46,-256.23C204.94,-247.99 194.52,-234.83 184.83,-222.6"/>
<polygon fill="green" stroke="green" stroke-width="0.36" points="187.58,-220.43 178.63,-214.76 182.09,-224.77 187.58,-220.43"/>
</g>
<!-- &#45;10 -->
<g id="node10" class="node">
<title>&#45;10</title>
<polygon fill="lightgray" stroke="black" points="454,-200.5 422,-200.5 422,-182.5 454,-182.5 454,-200.5"/>
<text text-anchor="middle" x="438" y="-189.3" font-family="Times,serif" font-size="9.00">&#45;10</text>
</g>
<!-- &#45;10&#45;&gt;0 -->
<g id="edge4" class="edge">
<title>&#45;10&#45;&gt;0</title>
<path fill="none" stroke="red" stroke-width="0.45" stroke-dasharray="1,5" d="M430.7,-182.05C425.78,-176.43 419.11,-168.93 413,-162.51 402.24,-151.21 389.81,-138.92 379.79,-129.21"/>
<polygon fill="red" stroke="red" stroke-width="0.45" points="381.99,-126.47 372.36,-122.04 377.13,-131.51 381.99,-126.47"/>
</g>
<!-- &#45;10&#45;&gt;3193 -->
<g id="edge12" class="edge">
<title>&#45;10&#45;&gt;3193</title>
<path fill="none" stroke="green" stroke-width="0.49" stroke-dasharray="1,5" d="M434.08,-182.32C423.85,-161 395.91,-102.76 377.69,-64.78"/>
<polygon fill="green" stroke="green" stroke-width="0.49" points="380.77,-63.1 373.28,-55.6 374.45,-66.13 380.77,-63.1"/>
</g>
<!-- &#45;11 -->
<g id="node11" class="node">
<title>&#45;11</title>
<polygon fill="lightgray" stroke="black" points="322,-200.5 290,-200.5 290,-182.5 322,-182.5 322,-200.5"/>
<text text-anchor="middle" x="306" y="-189.3" font-family="Times,serif" font-size="9.00">&#45;11</text>
</g>
<!-- &#45;11&#45;&gt;0 -->
<g id="edge9" class="edge">
<title>&#45;11&#45;&gt;0</title>
<path fill="none" stroke="green" stroke-width="0.12" stroke-dasharray="1,5" d="M311.68,-182.32C319.78,-170.64 334.95,-148.79 346.33,-132.38"/>
<polygon fill="green" stroke="green" stroke-width="0.12" points="349.37,-134.14 352.2,-123.93 343.62,-130.15 349.37,-134.14"/>
</g>
<!-- &#45;11&#45;&gt;1 -->
<g id="edge6" class="edge">
<title>&#45;11&#45;&gt;1</title>
<path fill="none" stroke="red" stroke-width="0.19" stroke-dasharray="1,5" d="M300.21,-182.26C295.58,-176.15 288.62,-167.98 281,-162.51 251.4,-141.26 211.63,-126.47 186.15,-118.42"/>
<polygon fill="red" stroke="red" stroke-width="0.19" points="187.08,-115.05 176.49,-115.48 185.04,-121.74 187.08,-115.05"/>
</g>
<!-- &#45;12 -->
<g id="node12" class="node">
<title>&#45;12</title>
<polygon fill="lightgray" stroke="black" points="369,-274.49 337,-274.49 337,-256.49 369,-256.49 369,-274.49"/>
<text text-anchor="middle" x="353" y="-263.29" font-family="Times,serif" font-size="9.00">&#45;12</text>
</g>
<!-- 0&#45;&gt;3193 -->
<g id="edge14" class="edge">
<title>0&#45;&gt;3193</title>
<path fill="none" stroke="green" stroke-width="0.35" d="M355.64,-94.71C354.64,-87.03 354.18,-77.22 354.26,-67.56"/>
<polygon fill="green" stroke="green" stroke-width="0.35" points="357.77,-67.36 354.55,-57.26 350.77,-67.16 357.77,-67.36"/>
</g>
<!-- 3283&#45;&gt;1 -->
<g id="edge16" class="edge">
<title>3283&#45;&gt;1</title>
<path fill="none" stroke="green" stroke-width="0.52" d="M161,-162.34C161,-154.04 161,-145.02 161,-136.9"/>
<polygon fill="green" stroke="green" stroke-width="0.52" points="164.5,-136.87 161,-126.87 157.5,-136.87 164.5,-136.87"/>
</g>
<!-- 3193&#45;&gt;0 -->
<g id="edge13" class="edge">
<title>3193&#45;&gt;0</title>
<path fill="none" stroke="green" stroke-width="0.66" d="M367.45,-57.26C367.89,-66.1 367.85,-75.86 367.31,-84.5"/>
<polygon fill="green" stroke="green" stroke-width="0.66" points="363.8,-84.43 366.36,-94.71 370.77,-85.07 363.8,-84.43"/>
</g>
</g>
</svg>
