<?xml version="1.0" encoding="UTF-8" standalone="no"?>
<!DOCTYPE svg PUBLIC "-//W3C//DTD SVG 1.1//EN"
 "http://www.w3.org/Graphics/SVG/1.1/DTD/svg11.dtd">
<!-- Generated by graphviz version 2.43.0 (0)
 -->
<!-- Title: %3 Pages: 1 -->
<svg width="524pt" height="266pt"
 viewBox="0.00 0.00 524.00 265.52" xmlns="http://www.w3.org/2000/svg" xmlns:xlink="http://www.w3.org/1999/xlink">
<g id="graph0" class="graph" transform="scale(1 1) rotate(0) translate(4 261.52)">
<title>%3</title>
<polygon fill="white" stroke="transparent" points="-4,4 -4,-261.52 520,-261.52 520,4 -4,4"/>
<!-- &#45;1 -->
<g id="node1" class="node">
<title>&#45;1</title>
<polygon fill="lightgray" stroke="black" points="26,-257.52 0,-257.52 0,-239.52 26,-239.52 26,-257.52"/>
<text text-anchor="middle" x="13" y="-246.32" font-family="Times,serif" font-size="9.00">&#45;1</text>
</g>
<!-- &#45;2 -->
<g id="node2" class="node">
<title>&#45;2</title>
<polygon fill="lightgray" stroke="black" points="70,-257.52 44,-257.52 44,-239.52 70,-239.52 70,-257.52"/>
<text text-anchor="middle" x="57" y="-246.32" font-family="Times,serif" font-size="9.00">&#45;2</text>
</g>
<!-- 0 -->
<g id="node13" class="node">
<title>0</title>
<ellipse fill="lightblue" stroke="black" cx="53" cy="-24.75" rx="16.03" ry="16.03"/>
<text text-anchor="middle" x="53" y="-22.55" font-family="Times,serif" font-size="9.00">0</text>
</g>
<!-- &#45;2&#45;&gt;0 -->
<g id="edge2" class="edge">
<title>&#45;2&#45;&gt;0</title>
<path fill="none" stroke="red" stroke-width="0.24" d="M46.91,-239.32C37.91,-231.29 25.33,-218.15 20,-203.52 2.03,-154.24 6.91,-136.29 20,-85.5 23.56,-71.69 31.06,-57.67 38.01,-46.68"/>
<polygon fill="red" stroke="red" stroke-width="0.24" points="41.01,-48.5 43.63,-38.23 35.18,-44.62 41.01,-48.5"/>
</g>
<!-- 1 -->
<g id="node14" class="node">
<title>1</title>
<ellipse fill="lightblue" stroke="black" cx="161" cy="-187.26" rx="16.03" ry="16.03"/>
<text text-anchor="middle" x="161" y="-185.06" font-family="Times,serif" font-size="9.00">1</text>
</g>
<!-- &#45;2&#45;&gt;1 -->
<g id="edge1" class="edge">
<title>&#45;2&#45;&gt;1</title>
<path fill="none" stroke="green" stroke-width="0.28" d="M70.01,-240.27C85.53,-231.61 112.23,-216.63 135,-203.52 136.12,-202.88 137.27,-202.21 138.43,-201.54"/>
<polygon fill="green" stroke="green" stroke-width="0.28" points="140.39,-204.45 147.26,-196.38 136.86,-198.4 140.39,-204.45"/>
</g>
<!-- &#45;3 -->
<g id="node3" class="node">
<title>&#45;3</title>
<polygon fill="lightgray" stroke="black" points="152,-257.52 126,-257.52 126,-239.52 152,-239.52 152,-257.52"/>
<text text-anchor="middle" x="139" y="-246.32" font-family="Times,serif" font-size="9.00">&#45;3</text>
</g>
<!-- &#45;3&#45;&gt;0 -->
<g id="edge6" class="edge">
<title>&#45;3&#45;&gt;0</title>
<path fill="none" stroke="red" stroke-width="0.27" stroke-dasharray="1,5" d="M125.72,-240.27C113.23,-232.74 95.01,-219.8 85,-203.52 55.68,-155.83 51.69,-88.2 51.96,-51.63"/>
<polygon fill="red" stroke="red" stroke-width="0.27" points="55.47,-51.4 52.16,-41.34 48.47,-51.27 55.47,-51.4"/>
</g>
<!-- &#45;3&#45;&gt;1 -->
<g id="edge5" class="edge">
<title>&#45;3&#45;&gt;1</title>
<path fill="none" stroke="green" stroke-width="0.15" d="M142.06,-239.28C144.65,-232.29 148.51,-221.91 152.06,-212.33"/>
<polygon fill="green" stroke="green" stroke-width="0.15" points="155.4,-213.41 155.6,-202.81 148.84,-210.97 155.4,-213.41"/>
</g>
<!-- 8 -->
<g id="node16" class="node">
<title>8</title>
<ellipse fill="white" stroke="black" cx="212" cy="-187.26" rx="16.03" ry="16.03"/>
<text text-anchor="middle" x="212" y="-185.06" font-family="Times,serif" font-size="9.00">8</text>
</g>
<!-- &#45;3&#45;&gt;8 -->
<g id="edge7" class="edge">
<title>&#45;3&#45;&gt;8</title>
<path fill="none" stroke="green" stroke-width="0.11" stroke-dasharray="1,5" d="M149.15,-239.28C160.05,-230.43 177.67,-216.13 191.48,-204.92"/>
<polygon fill="green" stroke="green" stroke-width="0.11" points="193.93,-207.43 199.49,-198.41 189.52,-202 193.93,-207.43"/>
</g>
<!-- &#45;4 -->
<g id="node4" class="node">
<title>&#45;4</title>
<polygon fill="lightgray" stroke="black" points="240,-257.52 214,-257.52 214,-239.52 240,-239.52 240,-257.52"/>
<text text-anchor="middle" x="227" y="-246.32" font-family="Times,serif" font-size="9.00">&#45;4</text>
</g>
<!-- &#45;5 -->
<g id="node5" class="node">
<title>&#45;5</title>
<polygon fill="lightgray" stroke="black" points="196,-257.52 170,-257.52 170,-239.52 196,-239.52 196,-257.52"/>
<text text-anchor="middle" x="183" y="-246.32" font-family="Times,serif" font-size="9.00">&#45;5</text>
</g>
<!-- &#45;5&#45;&gt;1 -->
<g id="edge4" class="edge">
<title>&#45;5&#45;&gt;1</title>
<path fill="none" stroke="red" stroke-width="0.19" stroke-dasharray="1,5" d="M179.94,-239.28C177.35,-232.29 173.49,-221.91 169.94,-212.33"/>
<polygon fill="red" stroke="red" stroke-width="0.19" points="173.16,-210.97 166.4,-202.81 166.6,-213.41 173.16,-210.97"/>
</g>
<!-- &#45;6 -->
<g id="node6" class="node">
<title>&#45;6</title>
<polygon fill="lightgray" stroke="black" points="284,-257.52 258,-257.52 258,-239.52 284,-239.52 284,-257.52"/>
<text text-anchor="middle" x="271" y="-246.32" font-family="Times,serif" font-size="9.00">&#45;6</text>
</g>
<!-- &#45;7 -->
<g id="node7" class="node">
<title>&#45;7</title>
<polygon fill="lightgray" stroke="black" points="328,-257.52 302,-257.52 302,-239.52 328,-239.52 328,-257.52"/>
<text text-anchor="middle" x="315" y="-246.32" font-family="Times,serif" font-size="9.00">&#45;7</text>
</g>
<!-- &#45;8 -->
<g id="node8" class="node">
<title>&#45;8</title>
<polygon fill="lightgray" stroke="black" points="372,-257.52 346,-257.52 346,-239.52 372,-239.52 372,-257.52"/>
<text text-anchor="middle" x="359" y="-246.32" font-family="Times,serif" font-size="9.00">&#45;8</text>
</g>
<!-- &#45;9 -->
<g id="node9" class="node">
<title>&#45;9</title>
<polygon fill="lightgray" stroke="black" points="416,-257.52 390,-257.52 390,-239.52 416,-239.52 416,-257.52"/>
<text text-anchor="middle" x="403" y="-246.32" font-family="Times,serif" font-size="9.00">&#45;9</text>
</g>
<!-- &#45;10 -->
<g id="node10" class="node">
<title>&#45;10</title>
<polygon fill="lightgray" stroke="black" points="466,-257.52 434,-257.52 434,-239.52 466,-239.52 466,-257.52"/>
<text text-anchor="middle" x="450" y="-246.32" font-family="Times,serif" font-size="9.00">&#45;10</text>
</g>
<!-- &#45;11 -->
<g id="node11" class="node">
<title>&#45;11</title>
<polygon fill="lightgray" stroke="black" points="516,-257.52 484,-257.52 484,-239.52 516,-239.52 516,-257.52"/>
<text text-anchor="middle" x="500" y="-246.32" font-family="Times,serif" font-size="9.00">&#45;11</text>
</g>
<!-- &#45;12 -->
<g id="node12" class="node">
<title>&#45;12</title>
<polygon fill="lightgray" stroke="black" points="126,-196.26 94,-196.26 94,-178.26 126,-178.26 126,-196.26"/>
<text text-anchor="middle" x="110" y="-185.06" font-family="Times,serif" font-size="9.00">&#45;12</text>
</g>
<!-- &#45;12&#45;&gt;0 -->
<g id="edge3" class="edge">
<title>&#45;12&#45;&gt;0</title>
<path fill="none" stroke="green" stroke-width="0.36" stroke-dasharray="1,5" d="M107.09,-178.08C98.76,-154.6 74.53,-86.36 61.51,-49.7"/>
<polygon fill="green" stroke="green" stroke-width="0.36" points="64.8,-48.52 58.15,-40.26 58.2,-50.86 64.8,-48.52"/>
</g>
<!-- 130 -->
<g id="node15" class="node">
<title>130</title>
<ellipse fill="white" stroke="black" cx="163" cy="-110.25" rx="25" ry="25"/>
<text text-anchor="middle" x="163" y="-108.05" font-family="Times,serif" font-size="9.00">130</text>
</g>
<!-- &#45;12&#45;&gt;130 -->
<g id="edge8" class="edge">
<title>&#45;12&#45;&gt;130</title>
<path fill="none" stroke="green" stroke-width="0.54" d="M115.67,-178.23C122.22,-168.97 133.34,-153.22 143.16,-139.32"/>
<polygon fill="green" stroke="green" stroke-width="0.54" points="146.15,-141.17 149.06,-130.98 140.43,-137.13 146.15,-141.17"/>
</g>
<!-- 211 -->
<g id="node17" class="node">
<title>211</title>
<ellipse fill="white" stroke="black" cx="163" cy="-24.75" rx="25" ry="25"/>
<text text-anchor="middle" x="163" y="-22.55" font-family="Times,serif" font-size="9.00">211</text>
</g>
<!-- &#45;12&#45;&gt;211 -->
<g id="edge10" class="edge">
<title>&#45;12&#45;&gt;211</title>
<path fill="none" stroke="green" stroke-width="0.17" d="M110.61,-178.18C112.13,-160.77 116.85,-118.58 129,-85.5 132.9,-74.88 138.56,-63.95 144.16,-54.37"/>
<polygon fill="green" stroke="green" stroke-width="0.17" points="147.24,-56.04 149.44,-45.67 141.26,-52.4 147.24,-56.04"/>
</g>
<!-- 1&#45;&gt;130 -->
<g id="edge14" class="edge">
<title>1&#45;&gt;130</title>
<path fill="none" stroke="green" stroke-width="0.13" d="M155.93,-171.8C155.12,-163.98 154.97,-153.98 155.41,-144.38"/>
<polygon fill="green" stroke="green" stroke-width="0.13" points="158.91,-144.44 156.11,-134.22 151.93,-143.96 158.91,-144.44"/>
</g>
<!-- 130&#45;&gt;0 -->
<g id="edge9" class="edge">
<title>130&#45;&gt;0</title>
<path fill="none" stroke="green" stroke-width="0.57" d="M143.59,-94.51C124.03,-79.67 93.95,-56.84 73.89,-41.6"/>
<polygon fill="green" stroke="green" stroke-width="0.57" points="75.79,-38.65 65.7,-35.39 71.55,-44.23 75.79,-38.65"/>
</g>
<!-- 130&#45;&gt;1 -->
<g id="edge12" class="edge">
<title>130&#45;&gt;1</title>
<path fill="none" stroke="red" stroke-width="0.75" d="M168.68,-134.52C169.02,-143.18 168.79,-153.03 168.03,-161.8"/>
<polygon fill="red" stroke="red" stroke-width="0.75" points="164.54,-161.45 166.84,-171.8 171.49,-162.28 164.54,-161.45"/>
</g>
<!-- 130&#45;&gt;211 -->
<g id="edge13" class="edge">
<title>130&#45;&gt;211</title>
<path fill="none" stroke="green" stroke-width="0.21" stroke-dasharray="1,5" d="M156.88,-85.99C156.27,-77.66 156.11,-68.11 156.37,-59.1"/>
<polygon fill="green" stroke="green" stroke-width="0.21" points="159.88,-59.05 156.89,-48.88 152.89,-58.69 159.88,-59.05"/>
</g>
<!-- 211&#45;&gt;130 -->
<g id="edge11" class="edge">
<title>211&#45;&gt;130</title>
<path fill="none" stroke="red" stroke-width="0.17" d="M169.11,-48.88C169.72,-57.19 169.89,-66.74 169.63,-75.76"/>
<polygon fill="red" stroke="red" stroke-width="0.17" points="166.12,-75.83 169.12,-85.99 173.11,-76.17 166.12,-75.83"/>
</g>
</g>
</svg>
