<?xml version="1.0" encoding="UTF-8" standalone="no"?>
<!DOCTYPE svg PUBLIC "-//W3C//DTD SVG 1.1//EN"
 "http://www.w3.org/Graphics/SVG/1.1/DTD/svg11.dtd">
<!-- Generated by graphviz version 2.43.0 (0)
 -->
<!-- Title: %3 Pages: 1 -->
<svg width="532pt" height="189pt"
 viewBox="0.00 0.00 532.49 188.51" xmlns="http://www.w3.org/2000/svg" xmlns:xlink="http://www.w3.org/1999/xlink">
<g id="graph0" class="graph" transform="scale(1 1) rotate(0) translate(4 184.51)">
<title>%3</title>
<polygon fill="white" stroke="transparent" points="-4,4 -4,-184.51 528.49,-184.51 528.49,4 -4,4"/>
<!-- &#45;1 -->
<g id="node1" class="node">
<title>&#45;1</title>
<polygon fill="lightgray" stroke="black" points="118.49,-180.51 92.49,-180.51 92.49,-162.51 118.49,-162.51 118.49,-180.51"/>
<text text-anchor="middle" x="105.49" y="-169.31" font-family="Times,serif" font-size="9.00">&#45;1</text>
</g>
<!-- &#45;2 -->
<g id="node2" class="node">
<title>&#45;2</title>
<polygon fill="lightgray" stroke="black" points="266.49,-106.52 240.49,-106.52 240.49,-88.52 266.49,-88.52 266.49,-106.52"/>
<text text-anchor="middle" x="253.49" y="-95.32" font-family="Times,serif" font-size="9.00">&#45;2</text>
</g>
<!-- 0 -->
<g id="node13" class="node">
<title>0</title>
<ellipse fill="lightblue" stroke="black" cx="179.49" cy="-16.26" rx="16.03" ry="16.03"/>
<text text-anchor="middle" x="179.49" y="-14.06" font-family="Times,serif" font-size="9.00">0</text>
</g>
<!-- &#45;2&#45;&gt;0 -->
<g id="edge16" class="edge">
<title>&#45;2&#45;&gt;0</title>
<path fill="none" stroke="red" stroke-width="0.23" d="M247.58,-88.46C243.29,-82.75 237.25,-74.98 231.49,-68.53 221.09,-56.89 208.67,-44.59 198.57,-34.96"/>
<polygon fill="red" stroke="red" stroke-width="0.23" points="200.73,-32.19 191.06,-27.87 195.93,-37.28 200.73,-32.19"/>
</g>
<!-- 1 -->
<g id="node14" class="node">
<title>1</title>
<ellipse fill="lightblue" stroke="black" cx="385.49" cy="-16.26" rx="16.03" ry="16.03"/>
<text text-anchor="middle" x="385.49" y="-14.06" font-family="Times,serif" font-size="9.00">1</text>
</g>
<!-- &#45;2&#45;&gt;1 -->
<g id="edge1" class="edge">
<title>&#45;2&#45;&gt;1</title>
<path fill="none" stroke="red" stroke-width="0.18" d="M258.43,-88.31C262.42,-82.22 268.51,-74.06 275.49,-68.53 301.37,-48 336.81,-33.39 360.39,-25.14"/>
<polygon fill="red" stroke="red" stroke-width="0.18" points="361.65,-28.41 370.01,-21.91 359.42,-21.78 361.65,-28.41"/>
</g>
<!-- &#45;3 -->
<g id="node3" class="node">
<title>&#45;3</title>
<polygon fill="lightgray" stroke="black" points="398.49,-106.52 372.49,-106.52 372.49,-88.52 398.49,-88.52 398.49,-106.52"/>
<text text-anchor="middle" x="385.49" y="-95.32" font-family="Times,serif" font-size="9.00">&#45;3</text>
</g>
<!-- &#45;3&#45;&gt;1 -->
<g id="edge7" class="edge">
<title>&#45;3&#45;&gt;1</title>
<path fill="none" stroke="red" stroke-width="0.82" d="M385.49,-88.34C385.49,-77.67 385.49,-58.51 385.49,-42.77"/>
<polygon fill="red" stroke="red" stroke-width="0.82" points="388.99,-42.57 385.49,-32.57 381.99,-42.57 388.99,-42.57"/>
</g>
<!-- &#45;4 -->
<g id="node4" class="node">
<title>&#45;4</title>
<polygon fill="lightgray" stroke="black" points="222.49,-106.52 196.49,-106.52 196.49,-88.52 222.49,-88.52 222.49,-106.52"/>
<text text-anchor="middle" x="209.49" y="-95.32" font-family="Times,serif" font-size="9.00">&#45;4</text>
</g>
<!-- &#45;4&#45;&gt;0 -->
<g id="edge2" class="edge">
<title>&#45;4&#45;&gt;0</title>
<path fill="none" stroke="red" stroke-width="0.94" stroke-dasharray="1,5" d="M206.39,-88.34C202.24,-77.37 194.69,-57.44 188.65,-41.47"/>
<polygon fill="red" stroke="red" stroke-width="0.94" points="191.75,-39.79 184.94,-31.68 185.21,-42.27 191.75,-39.79"/>
</g>
<!-- &#45;5 -->
<g id="node5" class="node">
<title>&#45;5</title>
<polygon fill="lightgray" stroke="black" points="442.49,-106.52 416.49,-106.52 416.49,-88.52 442.49,-88.52 442.49,-106.52"/>
<text text-anchor="middle" x="429.49" y="-95.32" font-family="Times,serif" font-size="9.00">&#45;5</text>
</g>
<!-- &#45;5&#45;&gt;1 -->
<g id="edge9" class="edge">
<title>&#45;5&#45;&gt;1</title>
<path fill="none" stroke="red" stroke-width="0.57" d="M424.94,-88.34C418.63,-76.96 406.96,-55.95 397.94,-39.7"/>
<polygon fill="red" stroke="red" stroke-width="0.57" points="400.92,-37.85 393,-30.8 394.8,-41.25 400.92,-37.85"/>
</g>
<!-- &#45;6 -->
<g id="node6" class="node">
<title>&#45;6</title>
<polygon fill="lightgray" stroke="black" points="162.49,-180.51 136.49,-180.51 136.49,-162.51 162.49,-162.51 162.49,-180.51"/>
<text text-anchor="middle" x="149.49" y="-169.31" font-family="Times,serif" font-size="9.00">&#45;6</text>
</g>
<!-- &#45;6&#45;&gt;0 -->
<g id="edge13" class="edge">
<title>&#45;6&#45;&gt;0</title>
<path fill="none" stroke="green" stroke-width="0.92" stroke-dasharray="1,5" d="M136.02,-165.5C133.21,-164.48 130.26,-163.44 127.49,-162.51 76.33,-145.28 43.5,-169.97 11.49,-126.51 -3.8,-105.76 -3.85,-89.24 11.49,-68.53 44.19,-24.36 114.1,-16.97 152.63,-16.47"/>
<polygon fill="green" stroke="green" stroke-width="0.92" points="153.05,-19.97 163.05,-16.49 153.06,-12.97 153.05,-19.97"/>
</g>
<!-- &#45;6&#45;&gt;1 -->
<g id="edge12" class="edge">
<title>&#45;6&#45;&gt;1</title>
<path fill="none" stroke="green" stroke-width="0.14" d="M162.84,-165.12C165.66,-164.14 168.64,-163.2 171.49,-162.51 232.45,-147.7 410.05,-173.61 451.49,-126.51 468.51,-107.16 462.82,-91.67 451.49,-68.53 442.66,-50.51 424.11,-36.99 408.92,-28.38"/>
<polygon fill="green" stroke="green" stroke-width="0.14" points="410.48,-25.25 400.01,-23.65 407.2,-31.43 410.48,-25.25"/>
</g>
<!-- 1084 -->
<g id="node15" class="node">
<title>1084</title>
<ellipse fill="white" stroke="black" cx="149.49" cy="-97.52" rx="28.98" ry="28.98"/>
<text text-anchor="middle" x="149.49" y="-95.32" font-family="Times,serif" font-size="9.00">1084</text>
</g>
<!-- &#45;6&#45;&gt;1084 -->
<g id="edge14" class="edge">
<title>&#45;6&#45;&gt;1084</title>
<path fill="none" stroke="green" stroke-width="0.37" d="M149.49,-162.25C149.49,-155.78 149.49,-146.28 149.49,-136.58"/>
<polygon fill="green" stroke="green" stroke-width="0.37" points="152.99,-136.51 149.49,-126.51 145.99,-136.51 152.99,-136.51"/>
</g>
<!-- &#45;7 -->
<g id="node7" class="node">
<title>&#45;7</title>
<polygon fill="lightgray" stroke="black" points="310.49,-106.52 284.49,-106.52 284.49,-88.52 310.49,-88.52 310.49,-106.52"/>
<text text-anchor="middle" x="297.49" y="-95.32" font-family="Times,serif" font-size="9.00">&#45;7</text>
</g>
<!-- &#45;7&#45;&gt;0 -->
<g id="edge4" class="edge">
<title>&#45;7&#45;&gt;0</title>
<path fill="none" stroke="green" stroke-width="0.11" d="M292.45,-88.42C288.41,-82.39 282.31,-74.24 275.49,-68.53 253.71,-50.27 224.39,-35.78 203.9,-26.92"/>
<polygon fill="green" stroke="green" stroke-width="0.11" points="205.2,-23.67 194.63,-23.03 202.5,-30.13 205.2,-23.67"/>
</g>
<!-- &#45;7&#45;&gt;1 -->
<g id="edge11" class="edge">
<title>&#45;7&#45;&gt;1</title>
<path fill="none" stroke="red" stroke-width="0.27" d="M302.99,-88.49C307.17,-82.65 313.26,-74.72 319.49,-68.53 333.24,-54.85 350.63,-41.47 364.11,-31.82"/>
<polygon fill="red" stroke="red" stroke-width="0.27" points="366.16,-34.66 372.32,-26.04 362.13,-28.93 366.16,-34.66"/>
</g>
<!-- &#45;8 -->
<g id="node8" class="node">
<title>&#45;8</title>
<polygon fill="lightgray" stroke="black" points="524.49,-106.52 498.49,-106.52 498.49,-88.52 524.49,-88.52 524.49,-106.52"/>
<text text-anchor="middle" x="511.49" y="-95.32" font-family="Times,serif" font-size="9.00">&#45;8</text>
</g>
<!-- &#45;8&#45;&gt;1 -->
<g id="edge10" class="edge">
<title>&#45;8&#45;&gt;1</title>
<path fill="none" stroke="green" stroke-width="0.13" d="M504.98,-88.47C499.85,-82.47 492.28,-74.34 484.49,-68.53 461.01,-51.03 430.72,-36.31 409.86,-27.2"/>
<polygon fill="green" stroke="green" stroke-width="0.13" points="411.02,-23.89 400.45,-23.19 408.27,-30.33 411.02,-23.89"/>
</g>
<!-- &#45;9 -->
<g id="node9" class="node">
<title>&#45;9</title>
<polygon fill="lightgray" stroke="black" points="354.49,-106.52 328.49,-106.52 328.49,-88.52 354.49,-88.52 354.49,-106.52"/>
<text text-anchor="middle" x="341.49" y="-95.32" font-family="Times,serif" font-size="9.00">&#45;9</text>
</g>
<!-- &#45;9&#45;&gt;0 -->
<g id="edge3" class="edge">
<title>&#45;9&#45;&gt;0</title>
<path fill="none" stroke="red" stroke-width="0.18" stroke-dasharray="1,5" d="M336.67,-88.14C332.75,-81.96 326.69,-73.76 319.49,-68.53 284.41,-43.07 235.33,-28.98 205.56,-22.28"/>
<polygon fill="red" stroke="red" stroke-width="0.18" points="206.05,-18.81 195.54,-20.14 204.58,-25.65 206.05,-18.81"/>
</g>
<!-- &#45;9&#45;&gt;1 -->
<g id="edge5" class="edge">
<title>&#45;9&#45;&gt;1</title>
<path fill="none" stroke="green" stroke-width="0.42" d="M346.03,-88.34C352.34,-76.96 364.01,-55.95 373.03,-39.7"/>
<polygon fill="green" stroke="green" stroke-width="0.42" points="376.17,-41.25 377.97,-30.8 370.05,-37.85 376.17,-41.25"/>
</g>
<!-- &#45;10 -->
<g id="node10" class="node">
<title>&#45;10</title>
<polygon fill="lightgray" stroke="black" points="52.49,-106.52 20.49,-106.52 20.49,-88.52 52.49,-88.52 52.49,-106.52"/>
<text text-anchor="middle" x="36.49" y="-95.32" font-family="Times,serif" font-size="9.00">&#45;10</text>
</g>
<!-- &#45;10&#45;&gt;0 -->
<g id="edge6" class="edge">
<title>&#45;10&#45;&gt;0</title>
<path fill="none" stroke="green" stroke-width="0.12" d="M42.29,-88.29C46.92,-82.19 53.88,-74.02 61.49,-68.53 90.31,-47.69 128.94,-32.94 154.02,-24.77"/>
<polygon fill="green" stroke="green" stroke-width="0.12" points="155.38,-28.01 163.87,-21.67 153.28,-21.33 155.38,-28.01"/>
</g>
<!-- &#45;11 -->
<g id="node11" class="node">
<title>&#45;11</title>
<polygon fill="lightgray" stroke="black" points="212.49,-180.51 180.49,-180.51 180.49,-162.51 212.49,-162.51 212.49,-180.51"/>
<text text-anchor="middle" x="196.49" y="-169.31" font-family="Times,serif" font-size="9.00">&#45;11</text>
</g>
<!-- &#45;12 -->
<g id="node12" class="node">
<title>&#45;12</title>
<polygon fill="lightgray" stroke="black" points="102.49,-106.52 70.49,-106.52 70.49,-88.52 102.49,-88.52 102.49,-106.52"/>
<text text-anchor="middle" x="86.49" y="-95.32" font-family="Times,serif" font-size="9.00">&#45;12</text>
</g>
<!-- &#45;12&#45;&gt;0 -->
<g id="edge8" class="edge">
<title>&#45;12&#45;&gt;0</title>
<path fill="none" stroke="red" stroke-width="0.32" stroke-dasharray="1,5" d="M93.1,-88.29C97.93,-82.5 104.77,-74.7 111.49,-68.53 126.12,-55.06 144.15,-41.59 157.97,-31.84"/>
<polygon fill="red" stroke="red" stroke-width="0.32" points="160.15,-34.59 166.36,-26.01 156.15,-28.84 160.15,-34.59"/>
</g>
<!-- 1084&#45;&gt;0 -->
<g id="edge15" class="edge">
<title>1084&#45;&gt;0</title>
<path fill="none" stroke="green" stroke-width="0.48" d="M159.47,-70.13C162.99,-60.84 166.92,-50.45 170.37,-41.36"/>
<polygon fill="green" stroke="green" stroke-width="0.48" points="173.73,-42.36 173.99,-31.77 167.18,-39.88 173.73,-42.36"/>
</g>
</g>
</svg>
