<?xml version="1.0" encoding="UTF-8" standalone="no"?>
<!DOCTYPE svg PUBLIC "-//W3C//DTD SVG 1.1//EN"
 "http://www.w3.org/Graphics/SVG/1.1/DTD/svg11.dtd">
<!-- Generated by graphviz version 2.43.0 (0)
 -->
<!-- Title: %3 Pages: 1 -->
<svg width="936pt" height="95pt"
 viewBox="0.00 0.00 936.00 94.53" xmlns="http://www.w3.org/2000/svg" xmlns:xlink="http://www.w3.org/1999/xlink">
<g id="graph0" class="graph" transform="scale(1 1) rotate(0) translate(4 90.53)">
<title>%3</title>
<polygon fill="white" stroke="transparent" points="-4,4 -4,-90.53 932,-90.53 932,4 -4,4"/>
<!-- &#45;1 -->
<g id="node1" class="node">
<title>&#45;1</title>
<polygon fill="lightgray" stroke="black" points="308,-86.53 282,-86.53 282,-68.53 308,-68.53 308,-86.53"/>
<text text-anchor="middle" x="295" y="-75.33" font-family="Times,serif" font-size="9.00">&#45;1</text>
</g>
<!-- 0 -->
<g id="node21" class="node">
<title>0</title>
<ellipse fill="lightblue" stroke="black" cx="223" cy="-16.26" rx="16.03" ry="16.03"/>
<text text-anchor="middle" x="223" y="-14.06" font-family="Times,serif" font-size="9.00">0</text>
</g>
<!-- &#45;1&#45;&gt;0 -->
<g id="edge8" class="edge">
<title>&#45;1&#45;&gt;0</title>
<path fill="none" stroke="red" stroke-width="0.38" stroke-dasharray="1,5" d="M284.99,-68.29C274.24,-59.44 256.86,-45.14 243.24,-33.92"/>
<polygon fill="red" stroke="red" stroke-width="0.38" points="245.28,-31.07 235.34,-27.42 240.83,-36.47 245.28,-31.07"/>
</g>
<!-- &#45;2 -->
<g id="node2" class="node">
<title>&#45;2</title>
<polygon fill="lightgray" stroke="black" points="590,-86.53 564,-86.53 564,-68.53 590,-68.53 590,-86.53"/>
<text text-anchor="middle" x="577" y="-75.33" font-family="Times,serif" font-size="9.00">&#45;2</text>
</g>
<!-- 1 -->
<g id="node22" class="node">
<title>1</title>
<ellipse fill="lightblue" stroke="black" cx="505" cy="-16.26" rx="16.03" ry="16.03"/>
<text text-anchor="middle" x="505" y="-14.06" font-family="Times,serif" font-size="9.00">1</text>
</g>
<!-- &#45;2&#45;&gt;1 -->
<g id="edge16" class="edge">
<title>&#45;2&#45;&gt;1</title>
<path fill="none" stroke="green" stroke-width="1.02" stroke-dasharray="1,5" d="M566.99,-68.29C556.24,-59.44 538.86,-45.14 525.24,-33.92"/>
<polygon fill="green" stroke="green" stroke-width="1.02" points="527.28,-31.07 517.34,-27.42 522.83,-36.47 527.28,-31.07"/>
</g>
<!-- &#45;3 -->
<g id="node3" class="node">
<title>&#45;3</title>
<polygon fill="lightgray" stroke="black" points="352,-86.53 326,-86.53 326,-68.53 352,-68.53 352,-86.53"/>
<text text-anchor="middle" x="339" y="-75.33" font-family="Times,serif" font-size="9.00">&#45;3</text>
</g>
<!-- &#45;3&#45;&gt;0 -->
<g id="edge11" class="edge">
<title>&#45;3&#45;&gt;0</title>
<path fill="none" stroke="red" stroke-width="0.47" stroke-dasharray="1,5" d="M325.69,-69.73C306.34,-59.84 270.14,-41.35 246.31,-29.17"/>
<polygon fill="red" stroke="red" stroke-width="0.47" points="247.73,-25.97 237.23,-24.54 244.55,-32.2 247.73,-25.97"/>
</g>
<!-- &#45;4 -->
<g id="node4" class="node">
<title>&#45;4</title>
<polygon fill="lightgray" stroke="black" points="678,-86.53 652,-86.53 652,-68.53 678,-68.53 678,-86.53"/>
<text text-anchor="middle" x="665" y="-75.33" font-family="Times,serif" font-size="9.00">&#45;4</text>
</g>
<!-- &#45;5 -->
<g id="node5" class="node">
<title>&#45;5</title>
<polygon fill="lightgray" stroke="black" points="634,-86.53 608,-86.53 608,-68.53 634,-68.53 634,-86.53"/>
<text text-anchor="middle" x="621" y="-75.33" font-family="Times,serif" font-size="9.00">&#45;5</text>
</g>
<!-- &#45;5&#45;&gt;1 -->
<g id="edge7" class="edge">
<title>&#45;5&#45;&gt;1</title>
<path fill="none" stroke="red" stroke-width="0.38" d="M607.69,-69.73C588.34,-59.84 552.14,-41.35 528.31,-29.17"/>
<polygon fill="red" stroke="red" stroke-width="0.38" points="529.73,-25.97 519.23,-24.54 526.55,-32.2 529.73,-25.97"/>
</g>
<!-- &#45;6 -->
<g id="node6" class="node">
<title>&#45;6</title>
<polygon fill="lightgray" stroke="black" points="396,-86.53 370,-86.53 370,-68.53 396,-68.53 396,-86.53"/>
<text text-anchor="middle" x="383" y="-75.33" font-family="Times,serif" font-size="9.00">&#45;6</text>
</g>
<!-- &#45;6&#45;&gt;0 -->
<g id="edge14" class="edge">
<title>&#45;6&#45;&gt;0</title>
<path fill="none" stroke="red" stroke-width="0.31" d="M369.91,-71.68C343.26,-61.81 282.33,-39.24 247.9,-26.48"/>
<polygon fill="red" stroke="red" stroke-width="0.31" points="248.72,-23.06 238.13,-22.87 246.29,-29.62 248.72,-23.06"/>
</g>
<!-- &#45;6&#45;&gt;1 -->
<g id="edge6" class="edge">
<title>&#45;6&#45;&gt;1</title>
<path fill="none" stroke="green" stroke-width="0.33" d="M396.06,-70.18C416.35,-60.33 455.78,-41.17 481.22,-28.82"/>
<polygon fill="green" stroke="green" stroke-width="0.33" points="483.07,-31.81 490.53,-24.29 480.01,-25.51 483.07,-31.81"/>
</g>
<!-- &#45;7 -->
<g id="node7" class="node">
<title>&#45;7</title>
<polygon fill="lightgray" stroke="black" points="26,-86.53 0,-86.53 0,-68.53 26,-68.53 26,-86.53"/>
<text text-anchor="middle" x="13" y="-75.33" font-family="Times,serif" font-size="9.00">&#45;7</text>
</g>
<!-- &#45;7&#45;&gt;0 -->
<g id="edge1" class="edge">
<title>&#45;7&#45;&gt;0</title>
<path fill="none" stroke="red" stroke-width="0.23" d="M26.44,-71.44C29.25,-70.43 32.21,-69.41 35,-68.53 92.52,-50.26 161.17,-32.56 197.5,-23.5"/>
<polygon fill="red" stroke="red" stroke-width="0.23" points="198.41,-26.89 207.27,-21.08 196.73,-20.09 198.41,-26.89"/>
</g>
<!-- &#45;8 -->
<g id="node8" class="node">
<title>&#45;8</title>
<polygon fill="lightgray" stroke="black" points="70,-86.53 44,-86.53 44,-68.53 70,-68.53 70,-86.53"/>
<text text-anchor="middle" x="57" y="-75.33" font-family="Times,serif" font-size="9.00">&#45;8</text>
</g>
<!-- &#45;8&#45;&gt;0 -->
<g id="edge12" class="edge">
<title>&#45;8&#45;&gt;0</title>
<path fill="none" stroke="green" stroke-width="0.52" d="M70.02,-71.77C72.97,-70.7 76.09,-69.57 79,-68.53 120.81,-53.48 169.53,-36.19 198.23,-26.02"/>
<polygon fill="green" stroke="green" stroke-width="0.52" points="199.59,-29.25 207.85,-22.62 197.26,-22.66 199.59,-29.25"/>
</g>
<!-- &#45;9 -->
<g id="node9" class="node">
<title>&#45;9</title>
<polygon fill="lightgray" stroke="black" points="114,-86.53 88,-86.53 88,-68.53 114,-68.53 114,-86.53"/>
<text text-anchor="middle" x="101" y="-75.33" font-family="Times,serif" font-size="9.00">&#45;9</text>
</g>
<!-- &#45;9&#45;&gt;0 -->
<g id="edge4" class="edge">
<title>&#45;9&#45;&gt;0</title>
<path fill="none" stroke="red" stroke-width="0.22" d="M114.06,-70.18C134.35,-60.33 173.78,-41.17 199.22,-28.82"/>
<polygon fill="red" stroke="red" stroke-width="0.22" points="201.07,-31.81 208.53,-24.29 198.01,-25.51 201.07,-31.81"/>
</g>
<!-- &#45;10 -->
<g id="node10" class="node">
<title>&#45;10</title>
<polygon fill="lightgray" stroke="black" points="164,-86.53 132,-86.53 132,-68.53 164,-68.53 164,-86.53"/>
<text text-anchor="middle" x="148" y="-75.33" font-family="Times,serif" font-size="9.00">&#45;10</text>
</g>
<!-- &#45;10&#45;&gt;0 -->
<g id="edge9" class="edge">
<title>&#45;10&#45;&gt;0</title>
<path fill="none" stroke="green" stroke-width="0.45" d="M158.43,-68.29C169.76,-59.33 188.16,-44.8 202.42,-33.52"/>
<polygon fill="green" stroke="green" stroke-width="0.45" points="204.99,-35.95 210.67,-27.01 200.65,-30.46 204.99,-35.95"/>
</g>
<!-- &#45;11 -->
<g id="node11" class="node">
<title>&#45;11</title>
<polygon fill="lightgray" stroke="black" points="214,-86.53 182,-86.53 182,-68.53 214,-68.53 214,-86.53"/>
<text text-anchor="middle" x="198" y="-75.33" font-family="Times,serif" font-size="9.00">&#45;11</text>
</g>
<!-- &#45;11&#45;&gt;0 -->
<g id="edge10" class="edge">
<title>&#45;11&#45;&gt;0</title>
<path fill="none" stroke="red" stroke-width="1.32" d="M201.48,-68.29C204.45,-61.23 208.9,-50.7 212.97,-41.03"/>
<polygon fill="red" stroke="red" stroke-width="1.32" points="216.2,-42.39 216.86,-31.82 209.75,-39.67 216.2,-42.39"/>
</g>
<!-- &#45;12 -->
<g id="node12" class="node">
<title>&#45;12</title>
<polygon fill="lightgray" stroke="black" points="264,-86.53 232,-86.53 232,-68.53 264,-68.53 264,-86.53"/>
<text text-anchor="middle" x="248" y="-75.33" font-family="Times,serif" font-size="9.00">&#45;12</text>
</g>
<!-- &#45;12&#45;&gt;0 -->
<g id="edge15" class="edge">
<title>&#45;12&#45;&gt;0</title>
<path fill="none" stroke="green" stroke-width="0.22" d="M244.52,-68.29C241.55,-61.23 237.1,-50.7 233.03,-41.03"/>
<polygon fill="green" stroke="green" stroke-width="0.22" points="236.25,-39.67 229.14,-31.82 229.8,-42.39 236.25,-39.67"/>
</g>
<!-- &#45;13 -->
<g id="node13" class="node">
<title>&#45;13</title>
<polygon fill="lightgray" stroke="black" points="728,-86.53 696,-86.53 696,-68.53 728,-68.53 728,-86.53"/>
<text text-anchor="middle" x="712" y="-75.33" font-family="Times,serif" font-size="9.00">&#45;13</text>
</g>
<!-- &#45;14 -->
<g id="node14" class="node">
<title>&#45;14</title>
<polygon fill="lightgray" stroke="black" points="446,-86.53 414,-86.53 414,-68.53 446,-68.53 446,-86.53"/>
<text text-anchor="middle" x="430" y="-75.33" font-family="Times,serif" font-size="9.00">&#45;14</text>
</g>
<!-- &#45;14&#45;&gt;0 -->
<g id="edge5" class="edge">
<title>&#45;14&#45;&gt;0</title>
<path fill="none" stroke="red" stroke-width="0.81" d="M413.89,-71.28C410.94,-70.34 407.88,-69.39 405,-68.53 349.45,-51.82 283.86,-33.75 248.57,-24.16"/>
<polygon fill="red" stroke="red" stroke-width="0.81" points="249.2,-20.71 238.63,-21.47 247.37,-27.46 249.2,-20.71"/>
</g>
<!-- &#45;14&#45;&gt;1 -->
<g id="edge17" class="edge">
<title>&#45;14&#45;&gt;1</title>
<path fill="none" stroke="red" stroke-width="0.68" d="M440.43,-68.29C451.76,-59.33 470.16,-44.8 484.42,-33.52"/>
<polygon fill="red" stroke="red" stroke-width="0.68" points="486.99,-35.95 492.67,-27.01 482.65,-30.46 486.99,-35.95"/>
</g>
<!-- &#45;15 -->
<g id="node15" class="node">
<title>&#45;15</title>
<polygon fill="lightgray" stroke="black" points="778,-86.53 746,-86.53 746,-68.53 778,-68.53 778,-86.53"/>
<text text-anchor="middle" x="762" y="-75.33" font-family="Times,serif" font-size="9.00">&#45;15</text>
</g>
<!-- &#45;16 -->
<g id="node16" class="node">
<title>&#45;16</title>
<polygon fill="lightgray" stroke="black" points="496,-86.53 464,-86.53 464,-68.53 496,-68.53 496,-86.53"/>
<text text-anchor="middle" x="480" y="-75.33" font-family="Times,serif" font-size="9.00">&#45;16</text>
</g>
<!-- &#45;16&#45;&gt;1 -->
<g id="edge13" class="edge">
<title>&#45;16&#45;&gt;1</title>
<path fill="none" stroke="green" stroke-width="0.48" d="M483.48,-68.29C486.45,-61.23 490.9,-50.7 494.97,-41.03"/>
<polygon fill="green" stroke="green" stroke-width="0.48" points="498.2,-42.39 498.86,-31.82 491.75,-39.67 498.2,-42.39"/>
</g>
<!-- &#45;17 -->
<g id="node17" class="node">
<title>&#45;17</title>
<polygon fill="lightgray" stroke="black" points="546,-86.53 514,-86.53 514,-68.53 546,-68.53 546,-86.53"/>
<text text-anchor="middle" x="530" y="-75.33" font-family="Times,serif" font-size="9.00">&#45;17</text>
</g>
<!-- &#45;17&#45;&gt;1 -->
<g id="edge2" class="edge">
<title>&#45;17&#45;&gt;1</title>
<path fill="none" stroke="red" stroke-width="0.25" d="M526.52,-68.29C523.55,-61.23 519.1,-50.7 515.03,-41.03"/>
<polygon fill="red" stroke="red" stroke-width="0.25" points="518.25,-39.67 511.14,-31.82 511.8,-42.39 518.25,-39.67"/>
</g>
<!-- &#45;18 -->
<g id="node18" class="node">
<title>&#45;18</title>
<polygon fill="lightgray" stroke="black" points="828,-86.53 796,-86.53 796,-68.53 828,-68.53 828,-86.53"/>
<text text-anchor="middle" x="812" y="-75.33" font-family="Times,serif" font-size="9.00">&#45;18</text>
</g>
<!-- &#45;19 -->
<g id="node19" class="node">
<title>&#45;19</title>
<polygon fill="lightgray" stroke="black" points="878,-86.53 846,-86.53 846,-68.53 878,-68.53 878,-86.53"/>
<text text-anchor="middle" x="862" y="-75.33" font-family="Times,serif" font-size="9.00">&#45;19</text>
</g>
<!-- &#45;20 -->
<g id="node20" class="node">
<title>&#45;20</title>
<polygon fill="lightgray" stroke="black" points="928,-86.53 896,-86.53 896,-68.53 928,-68.53 928,-86.53"/>
<text text-anchor="middle" x="912" y="-75.33" font-family="Times,serif" font-size="9.00">&#45;20</text>
</g>
<!-- 1&#45;&gt;1 -->
<g id="edge3" class="edge">
<title>1&#45;&gt;1</title>
<path fill="none" stroke="red" stroke-width="0.52" d="M518.36,-26.06C528.71,-29.72 539.26,-26.46 539.26,-16.26 539.26,-9.57 534.72,-5.87 528.67,-5.14"/>
<polygon fill="red" stroke="red" stroke-width="0.52" points="527.84,-1.72 518.36,-6.47 528.73,-8.67 527.84,-1.72"/>
</g>
</g>
</svg>
