<?xml version="1.0" encoding="UTF-8" standalone="no"?>
<!DOCTYPE svg PUBLIC "-//W3C//DTD SVG 1.1//EN"
 "http://www.w3.org/Graphics/SVG/1.1/DTD/svg11.dtd">
<!-- Generated by graphviz version 2.43.0 (0)
 -->
<!-- Title: %3 Pages: 1 -->
<svg width="536pt" height="95pt"
 viewBox="0.00 0.00 536.00 94.53" xmlns="http://www.w3.org/2000/svg" xmlns:xlink="http://www.w3.org/1999/xlink">
<g id="graph0" class="graph" transform="scale(1 1) rotate(0) translate(4 90.53)">
<title>%3</title>
<polygon fill="white" stroke="transparent" points="-4,4 -4,-90.53 532,-90.53 532,4 -4,4"/>
<!-- &#45;1 -->
<g id="node1" class="node">
<title>&#45;1</title>
<polygon fill="lightgray" stroke="black" points="258,-86.53 232,-86.53 232,-68.53 258,-68.53 258,-86.53"/>
<text text-anchor="middle" x="245" y="-75.33" font-family="Times,serif" font-size="9.00">&#45;1</text>
</g>
<!-- 1 -->
<g id="node14" class="node">
<title>1</title>
<ellipse fill="lightblue" stroke="black" cx="198" cy="-16.26" rx="16.03" ry="16.03"/>
<text text-anchor="middle" x="198" y="-14.06" font-family="Times,serif" font-size="9.00">1</text>
</g>
<!-- &#45;1&#45;&gt;1 -->
<g id="edge4" class="edge">
<title>&#45;1&#45;&gt;1</title>
<path fill="none" stroke="red" stroke-width="0.11" d="M238.46,-68.29C232.18,-60.36 222.42,-48.05 214.06,-37.51"/>
<polygon fill="red" stroke="red" stroke-width="0.11" points="216.7,-35.21 207.75,-29.55 211.22,-39.56 216.7,-35.21"/>
</g>
<!-- &#45;2 -->
<g id="node2" class="node">
<title>&#45;2</title>
<polygon fill="lightgray" stroke="black" points="302,-86.53 276,-86.53 276,-68.53 302,-68.53 302,-86.53"/>
<text text-anchor="middle" x="289" y="-75.33" font-family="Times,serif" font-size="9.00">&#45;2</text>
</g>
<!-- &#45;2&#45;&gt;1 -->
<g id="edge2" class="edge">
<title>&#45;2&#45;&gt;1</title>
<path fill="none" stroke="red" stroke-width="0.16" d="M276.35,-68.29C261.79,-58.81 237.63,-43.07 219.98,-31.58"/>
<polygon fill="red" stroke="red" stroke-width="0.16" points="221.72,-28.54 211.43,-26.01 217.9,-34.4 221.72,-28.54"/>
</g>
<!-- &#45;3 -->
<g id="node3" class="node">
<title>&#45;3</title>
<polygon fill="lightgray" stroke="black" points="26,-86.53 0,-86.53 0,-68.53 26,-68.53 26,-86.53"/>
<text text-anchor="middle" x="13" y="-75.33" font-family="Times,serif" font-size="9.00">&#45;3</text>
</g>
<!-- &#45;3&#45;&gt;1 -->
<g id="edge11" class="edge">
<title>&#45;3&#45;&gt;1</title>
<path fill="none" stroke="red" stroke-width="0.12" d="M26.46,-71.52C29.28,-70.51 32.23,-69.47 35,-68.53 83.47,-52.1 140.63,-34.54 172.76,-24.83"/>
<polygon fill="red" stroke="red" stroke-width="0.12" points="174.08,-28.08 182.65,-21.85 172.06,-21.38 174.08,-28.08"/>
</g>
<!-- &#45;4 -->
<g id="node4" class="node">
<title>&#45;4</title>
<polygon fill="lightgray" stroke="black" points="346,-86.53 320,-86.53 320,-68.53 346,-68.53 346,-86.53"/>
<text text-anchor="middle" x="333" y="-75.33" font-family="Times,serif" font-size="9.00">&#45;4</text>
</g>
<!-- 0 -->
<g id="node13" class="node">
<title>0</title>
<ellipse fill="lightblue" stroke="black" cx="377" cy="-16.26" rx="16.03" ry="16.03"/>
<text text-anchor="middle" x="377" y="-14.06" font-family="Times,serif" font-size="9.00">0</text>
</g>
<!-- &#45;4&#45;&gt;0 -->
<g id="edge13" class="edge">
<title>&#45;4&#45;&gt;0</title>
<path fill="none" stroke="green" stroke-width="0.3" d="M339.12,-68.29C344.87,-60.53 353.73,-48.6 361.44,-38.22"/>
<polygon fill="green" stroke="green" stroke-width="0.3" points="364.4,-40.11 367.55,-30 358.78,-35.94 364.4,-40.11"/>
</g>
<!-- &#45;4&#45;&gt;1 -->
<g id="edge8" class="edge">
<title>&#45;4&#45;&gt;1</title>
<path fill="none" stroke="green" stroke-width="0.19" d="M319.56,-70.63C296.77,-60.62 250.26,-40.2 221.83,-27.73"/>
<polygon fill="green" stroke="green" stroke-width="0.19" points="223.17,-24.49 212.6,-23.67 220.35,-30.9 223.17,-24.49"/>
</g>
<!-- &#45;5 -->
<g id="node5" class="node">
<title>&#45;5</title>
<polygon fill="lightgray" stroke="black" points="70,-86.53 44,-86.53 44,-68.53 70,-68.53 70,-86.53"/>
<text text-anchor="middle" x="57" y="-75.33" font-family="Times,serif" font-size="9.00">&#45;5</text>
</g>
<!-- &#45;5&#45;&gt;1 -->
<g id="edge3" class="edge">
<title>&#45;5&#45;&gt;1</title>
<path fill="none" stroke="red" stroke-width="0.56" d="M70.01,-71.06C93.66,-61.12 143.99,-39.96 174.01,-27.35"/>
<polygon fill="red" stroke="red" stroke-width="0.56" points="175.48,-30.53 183.34,-23.42 172.77,-24.07 175.48,-30.53"/>
</g>
<!-- &#45;6 -->
<g id="node6" class="node">
<title>&#45;6</title>
<polygon fill="lightgray" stroke="black" points="478,-86.53 452,-86.53 452,-68.53 478,-68.53 478,-86.53"/>
<text text-anchor="middle" x="465" y="-75.33" font-family="Times,serif" font-size="9.00">&#45;6</text>
</g>
<!-- &#45;7 -->
<g id="node7" class="node">
<title>&#45;7</title>
<polygon fill="lightgray" stroke="black" points="390,-86.53 364,-86.53 364,-68.53 390,-68.53 390,-86.53"/>
<text text-anchor="middle" x="377" y="-75.33" font-family="Times,serif" font-size="9.00">&#45;7</text>
</g>
<!-- &#45;7&#45;&gt;0 -->
<g id="edge9" class="edge">
<title>&#45;7&#45;&gt;0</title>
<path fill="none" stroke="green" stroke-width="0.38" d="M377,-68.29C377,-61.7 377,-52.1 377,-43"/>
<polygon fill="green" stroke="green" stroke-width="0.38" points="380.5,-42.76 377,-32.76 373.5,-42.76 380.5,-42.76"/>
</g>
<!-- &#45;7&#45;&gt;1 -->
<g id="edge7" class="edge">
<title>&#45;7&#45;&gt;1</title>
<path fill="none" stroke="green" stroke-width="0.34" d="M364,-71.72C361.05,-70.65 357.92,-69.53 355,-68.53 308.49,-52.48 253.79,-34.91 222.77,-25.07"/>
<polygon fill="green" stroke="green" stroke-width="0.34" points="223.8,-21.73 213.21,-22.05 221.69,-28.4 223.8,-21.73"/>
</g>
<!-- &#45;8 -->
<g id="node8" class="node">
<title>&#45;8</title>
<polygon fill="lightgray" stroke="black" points="434,-86.53 408,-86.53 408,-68.53 434,-68.53 434,-86.53"/>
<text text-anchor="middle" x="421" y="-75.33" font-family="Times,serif" font-size="9.00">&#45;8</text>
</g>
<!-- &#45;8&#45;&gt;0 -->
<g id="edge1" class="edge">
<title>&#45;8&#45;&gt;0</title>
<path fill="none" stroke="red" stroke-width="0.14" d="M414.88,-68.29C409.13,-60.53 400.27,-48.6 392.56,-38.22"/>
<polygon fill="red" stroke="red" stroke-width="0.14" points="395.22,-35.94 386.45,-30 389.6,-40.11 395.22,-35.94"/>
</g>
<!-- &#45;9 -->
<g id="node9" class="node">
<title>&#45;9</title>
<polygon fill="lightgray" stroke="black" points="114,-86.53 88,-86.53 88,-68.53 114,-68.53 114,-86.53"/>
<text text-anchor="middle" x="101" y="-75.33" font-family="Times,serif" font-size="9.00">&#45;9</text>
</g>
<!-- &#45;9&#45;&gt;1 -->
<g id="edge10" class="edge">
<title>&#45;9&#45;&gt;1</title>
<path fill="none" stroke="red" stroke-width="0.32" d="M114.08,-68.53C129.9,-58.87 156.78,-42.45 175.85,-30.8"/>
<polygon fill="red" stroke="red" stroke-width="0.32" points="177.79,-33.71 184.5,-25.51 174.14,-27.74 177.79,-33.71"/>
</g>
<!-- &#45;10 -->
<g id="node10" class="node">
<title>&#45;10</title>
<polygon fill="lightgray" stroke="black" points="528,-86.53 496,-86.53 496,-68.53 528,-68.53 528,-86.53"/>
<text text-anchor="middle" x="512" y="-75.33" font-family="Times,serif" font-size="9.00">&#45;10</text>
</g>
<!-- &#45;11 -->
<g id="node11" class="node">
<title>&#45;11</title>
<polygon fill="lightgray" stroke="black" points="164,-86.53 132,-86.53 132,-68.53 164,-68.53 164,-86.53"/>
<text text-anchor="middle" x="148" y="-75.33" font-family="Times,serif" font-size="9.00">&#45;11</text>
</g>
<!-- &#45;11&#45;&gt;1 -->
<g id="edge5" class="edge">
<title>&#45;11&#45;&gt;1</title>
<path fill="none" stroke="red" stroke-width="0.42" d="M154.95,-68.29C161.79,-60.18 172.5,-47.49 181.52,-36.79"/>
<polygon fill="red" stroke="red" stroke-width="0.42" points="184.23,-39.01 188,-29.11 178.88,-34.5 184.23,-39.01"/>
</g>
<!-- &#45;12 -->
<g id="node12" class="node">
<title>&#45;12</title>
<polygon fill="lightgray" stroke="black" points="214,-86.53 182,-86.53 182,-68.53 214,-68.53 214,-86.53"/>
<text text-anchor="middle" x="198" y="-75.33" font-family="Times,serif" font-size="9.00">&#45;12</text>
</g>
<!-- &#45;12&#45;&gt;1 -->
<g id="edge12" class="edge">
<title>&#45;12&#45;&gt;1</title>
<path fill="none" stroke="red" stroke-width="0.33" d="M198,-68.29C198,-61.7 198,-52.1 198,-43"/>
<polygon fill="red" stroke="red" stroke-width="0.33" points="201.5,-42.76 198,-32.76 194.5,-42.76 201.5,-42.76"/>
</g>
<!-- 0&#45;&gt;0 -->
<g id="edge6" class="edge">
<title>0&#45;&gt;0</title>
<path fill="none" stroke="red" stroke-width="0.13" d="M390.36,-26.06C400.71,-29.72 411.26,-26.46 411.26,-16.26 411.26,-9.57 406.72,-5.87 400.67,-5.14"/>
<polygon fill="red" stroke="red" stroke-width="0.13" points="399.84,-1.72 390.36,-6.47 400.73,-8.67 399.84,-1.72"/>
</g>
</g>
</svg>
