<?xml version="1.0" encoding="UTF-8" standalone="no"?>
<!DOCTYPE svg PUBLIC "-//W3C//DTD SVG 1.1//EN"
 "http://www.w3.org/Graphics/SVG/1.1/DTD/svg11.dtd">
<!-- Generated by graphviz version 2.43.0 (0)
 -->
<!-- Title: %3 Pages: 1 -->
<svg width="949pt" height="120pt"
 viewBox="0.00 0.00 948.99 119.98" xmlns="http://www.w3.org/2000/svg" xmlns:xlink="http://www.w3.org/1999/xlink">
<g id="graph0" class="graph" transform="scale(1 1) rotate(0) translate(4 115.98)">
<title>%3</title>
<polygon fill="white" stroke="transparent" points="-4,4 -4,-115.98 944.99,-115.98 944.99,4 -4,4"/>
<!-- &#45;1 -->
<g id="node1" class="node">
<title>&#45;1</title>
<polygon fill="lightgray" stroke="black" points="482.99,-111.98 456.99,-111.98 456.99,-93.98 482.99,-93.98 482.99,-111.98"/>
<text text-anchor="middle" x="469.99" y="-100.78" font-family="Times,serif" font-size="9.00">&#45;1</text>
</g>
<!-- 0 -->
<g id="node21" class="node">
<title>0</title>
<ellipse fill="lightblue" stroke="black" cx="275.99" cy="-28.99" rx="16.03" ry="16.03"/>
<text text-anchor="middle" x="275.99" y="-26.79" font-family="Times,serif" font-size="9.00">0</text>
</g>
<!-- &#45;1&#45;&gt;0 -->
<g id="edge15" class="edge">
<title>&#45;1&#45;&gt;0</title>
<path fill="none" stroke="green" stroke-width="0.38" d="M456.96,-97.15C424.94,-85.26 341.99,-54.48 300.45,-39.07"/>
<polygon fill="green" stroke="green" stroke-width="0.38" points="301.66,-35.78 291.07,-35.59 299.23,-42.35 301.66,-35.78"/>
</g>
<!-- 1 -->
<g id="node22" class="node">
<title>1</title>
<ellipse fill="lightblue" stroke="black" cx="557.99" cy="-28.99" rx="16.03" ry="16.03"/>
<text text-anchor="middle" x="557.99" y="-26.79" font-family="Times,serif" font-size="9.00">1</text>
</g>
<!-- &#45;1&#45;&gt;1 -->
<g id="edge9" class="edge">
<title>&#45;1&#45;&gt;1</title>
<path fill="none" stroke="red" stroke-width="0.16" d="M480.09,-93.72C494.05,-82.3 519.59,-61.41 537.61,-46.67"/>
<polygon fill="red" stroke="red" stroke-width="0.16" points="540.24,-49.03 545.77,-39.99 535.81,-43.61 540.24,-49.03"/>
</g>
<!-- &#45;2 -->
<g id="node2" class="node">
<title>&#45;2</title>
<polygon fill="lightgray" stroke="black" points="846.99,-111.98 820.99,-111.98 820.99,-93.98 846.99,-93.98 846.99,-111.98"/>
<text text-anchor="middle" x="833.99" y="-100.78" font-family="Times,serif" font-size="9.00">&#45;2</text>
</g>
<!-- &#45;3 -->
<g id="node3" class="node">
<title>&#45;3</title>
<polygon fill="lightgray" stroke="black" points="890.99,-111.98 864.99,-111.98 864.99,-93.98 890.99,-93.98 890.99,-111.98"/>
<text text-anchor="middle" x="877.99" y="-100.78" font-family="Times,serif" font-size="9.00">&#45;3</text>
</g>
<!-- &#45;4 -->
<g id="node4" class="node">
<title>&#45;4</title>
<polygon fill="lightgray" stroke="black" points="526.99,-111.98 500.99,-111.98 500.99,-93.98 526.99,-93.98 526.99,-111.98"/>
<text text-anchor="middle" x="513.99" y="-100.78" font-family="Times,serif" font-size="9.00">&#45;4</text>
</g>
<!-- &#45;4&#45;&gt;0 -->
<g id="edge8" class="edge">
<title>&#45;4&#45;&gt;0</title>
<path fill="none" stroke="red" stroke-width="0.51" d="M500.54,-96.94C497.73,-95.93 494.77,-94.9 491.99,-93.98 423.62,-71.45 341.91,-48.24 301.38,-36.97"/>
<polygon fill="red" stroke="red" stroke-width="0.51" points="302.12,-33.54 291.54,-34.25 300.25,-40.29 302.12,-33.54"/>
</g>
<!-- &#45;4&#45;&gt;1 -->
<g id="edge17" class="edge">
<title>&#45;4&#45;&gt;1</title>
<path fill="none" stroke="green" stroke-width="0.14" d="M519.04,-93.72C525.22,-83.61 535.94,-66.07 544.57,-51.94"/>
<polygon fill="green" stroke="green" stroke-width="0.14" points="547.65,-53.63 549.87,-43.27 541.67,-49.98 547.65,-53.63"/>
</g>
<!-- &#45;5 -->
<g id="node5" class="node">
<title>&#45;5</title>
<polygon fill="lightgray" stroke="black" points="714.99,-111.98 688.99,-111.98 688.99,-93.98 714.99,-93.98 714.99,-111.98"/>
<text text-anchor="middle" x="701.99" y="-100.78" font-family="Times,serif" font-size="9.00">&#45;5</text>
</g>
<!-- &#45;5&#45;&gt;1 -->
<g id="edge4" class="edge">
<title>&#45;5&#45;&gt;1</title>
<path fill="none" stroke="green" stroke-width="0.18" stroke-dasharray="1,5" d="M688.96,-95.47C664.59,-83.29 611.85,-56.92 581.25,-41.62"/>
<polygon fill="green" stroke="green" stroke-width="0.18" points="582.67,-38.41 572.16,-37.07 579.54,-44.68 582.67,-38.41"/>
</g>
<!-- &#45;6 -->
<g id="node6" class="node">
<title>&#45;6</title>
<polygon fill="lightgray" stroke="black" points="758.99,-111.98 732.99,-111.98 732.99,-93.98 758.99,-93.98 758.99,-111.98"/>
<text text-anchor="middle" x="745.99" y="-100.78" font-family="Times,serif" font-size="9.00">&#45;6</text>
</g>
<!-- &#45;6&#45;&gt;1 -->
<g id="edge12" class="edge">
<title>&#45;6&#45;&gt;1</title>
<path fill="none" stroke="red" stroke-width="0.35" d="M732.77,-96.92C701.56,-84.97 622.88,-54.84 582.59,-39.41"/>
<polygon fill="red" stroke="red" stroke-width="0.35" points="583.59,-36.05 573,-35.74 581.09,-42.58 583.59,-36.05"/>
</g>
<!-- &#45;7 -->
<g id="node7" class="node">
<title>&#45;7</title>
<polygon fill="lightgray" stroke="black" points="802.99,-111.98 776.99,-111.98 776.99,-93.98 802.99,-93.98 802.99,-111.98"/>
<text text-anchor="middle" x="789.99" y="-100.78" font-family="Times,serif" font-size="9.00">&#45;7</text>
</g>
<!-- &#45;7&#45;&gt;1 -->
<g id="edge14" class="edge">
<title>&#45;7&#45;&gt;1</title>
<path fill="none" stroke="green" stroke-width="0.16" stroke-dasharray="1,5" d="M776.53,-96.96C773.72,-95.95 770.77,-94.91 767.99,-93.98 701.76,-71.87 622.78,-48.63 583.21,-37.21"/>
<polygon fill="green" stroke="green" stroke-width="0.16" points="583.94,-33.78 573.36,-34.37 582,-40.5 583.94,-33.78"/>
</g>
<!-- &#45;8 -->
<g id="node8" class="node">
<title>&#45;8</title>
<polygon fill="lightgray" stroke="black" points="288.99,-111.98 262.99,-111.98 262.99,-93.98 288.99,-93.98 288.99,-111.98"/>
<text text-anchor="middle" x="275.99" y="-100.78" font-family="Times,serif" font-size="9.00">&#45;8</text>
</g>
<!-- &#45;8&#45;&gt;0 -->
<g id="edge23" class="edge">
<title>&#45;8&#45;&gt;0</title>
<path fill="none" stroke="red" stroke-width="0.33" d="M275.99,-93.72C275.99,-84.46 275.99,-68.97 275.99,-55.58"/>
<polygon fill="red" stroke="red" stroke-width="0.33" points="279.49,-55.45 275.99,-45.45 272.49,-55.45 279.49,-55.45"/>
</g>
<!-- &#45;9 -->
<g id="node9" class="node">
<title>&#45;9</title>
<polygon fill="lightgray" stroke="black" points="570.99,-111.98 544.99,-111.98 544.99,-93.98 570.99,-93.98 570.99,-111.98"/>
<text text-anchor="middle" x="557.99" y="-100.78" font-family="Times,serif" font-size="9.00">&#45;9</text>
</g>
<!-- &#45;9&#45;&gt;1 -->
<g id="edge7" class="edge">
<title>&#45;9&#45;&gt;1</title>
<path fill="none" stroke="red" stroke-width="0.14" d="M557.99,-93.72C557.99,-84.46 557.99,-68.97 557.99,-55.58"/>
<polygon fill="red" stroke="red" stroke-width="0.14" points="561.49,-55.45 557.99,-45.45 554.49,-55.45 561.49,-55.45"/>
</g>
<!-- &#45;10 -->
<g id="node10" class="node">
<title>&#45;10</title>
<polygon fill="lightgray" stroke="black" points="94.99,-111.98 62.99,-111.98 62.99,-93.98 94.99,-93.98 94.99,-111.98"/>
<text text-anchor="middle" x="78.99" y="-100.78" font-family="Times,serif" font-size="9.00">&#45;10</text>
</g>
<!-- &#45;10&#45;&gt;0 -->
<g id="edge10" class="edge">
<title>&#45;10&#45;&gt;0</title>
<path fill="none" stroke="red" stroke-width="0.19" d="M95.11,-96.09C129.59,-83.49 210.67,-53.86 251.54,-38.93"/>
<polygon fill="red" stroke="red" stroke-width="0.19" points="252.82,-42.19 261.01,-35.47 250.41,-35.61 252.82,-42.19"/>
</g>
<!-- &#45;11 -->
<g id="node11" class="node">
<title>&#45;11</title>
<polygon fill="lightgray" stroke="black" points="620.99,-111.98 588.99,-111.98 588.99,-93.98 620.99,-93.98 620.99,-111.98"/>
<text text-anchor="middle" x="604.99" y="-100.78" font-family="Times,serif" font-size="9.00">&#45;11</text>
</g>
<!-- &#45;11&#45;&gt;1 -->
<g id="edge19" class="edge">
<title>&#45;11&#45;&gt;1</title>
<path fill="none" stroke="red" stroke-width="0.18" d="M599.6,-93.72C592.95,-83.54 581.41,-65.86 572.16,-51.69"/>
<polygon fill="red" stroke="red" stroke-width="0.18" points="574.89,-49.47 566.49,-43.01 569.03,-53.29 574.89,-49.47"/>
</g>
<!-- &#45;12 -->
<g id="node12" class="node">
<title>&#45;12</title>
<polygon fill="lightgray" stroke="black" points="670.99,-111.98 638.99,-111.98 638.99,-93.98 670.99,-93.98 670.99,-111.98"/>
<text text-anchor="middle" x="654.99" y="-100.78" font-family="Times,serif" font-size="9.00">&#45;12</text>
</g>
<!-- &#45;12&#45;&gt;1 -->
<g id="edge1" class="edge">
<title>&#45;12&#45;&gt;1</title>
<path fill="none" stroke="red" stroke-width="0.35" d="M643.86,-93.72C628.09,-82.01 598.92,-60.36 578.99,-45.58"/>
<polygon fill="red" stroke="red" stroke-width="0.35" points="580.94,-42.67 570.83,-39.52 576.77,-48.29 580.94,-42.67"/>
</g>
<!-- &#45;13 -->
<g id="node13" class="node">
<title>&#45;13</title>
<polygon fill="lightgray" stroke="black" points="940.99,-111.98 908.99,-111.98 908.99,-93.98 940.99,-93.98 940.99,-111.98"/>
<text text-anchor="middle" x="924.99" y="-100.78" font-family="Times,serif" font-size="9.00">&#45;13</text>
</g>
<!-- &#45;14 -->
<g id="node14" class="node">
<title>&#45;14</title>
<polygon fill="lightgray" stroke="black" points="338.99,-111.98 306.99,-111.98 306.99,-93.98 338.99,-93.98 338.99,-111.98"/>
<text text-anchor="middle" x="322.99" y="-100.78" font-family="Times,serif" font-size="9.00">&#45;14</text>
</g>
<!-- &#45;14&#45;&gt;0 -->
<g id="edge3" class="edge">
<title>&#45;14&#45;&gt;0</title>
<path fill="none" stroke="green" stroke-width="0.29" d="M317.6,-93.72C310.95,-83.54 299.41,-65.86 290.16,-51.69"/>
<polygon fill="green" stroke="green" stroke-width="0.29" points="292.89,-49.47 284.49,-43.01 287.03,-53.29 292.89,-49.47"/>
</g>
<!-- &#45;14&#45;&gt;1 -->
<g id="edge20" class="edge">
<title>&#45;14&#45;&gt;1</title>
<path fill="none" stroke="green" stroke-width="0.11" d="M339.12,-96.79C342.07,-95.85 345.12,-94.88 347.99,-93.98 414.64,-73.17 493.45,-49.37 532.87,-37.52"/>
<polygon fill="green" stroke="green" stroke-width="0.11" points="534.12,-40.8 542.69,-34.58 532.1,-34.1 534.12,-40.8"/>
</g>
<!-- &#45;15 -->
<g id="node15" class="node">
<title>&#45;15</title>
<polygon fill="lightgray" stroke="black" points="144.99,-111.98 112.99,-111.98 112.99,-93.98 144.99,-93.98 144.99,-111.98"/>
<text text-anchor="middle" x="128.99" y="-100.78" font-family="Times,serif" font-size="9.00">&#45;15</text>
</g>
<!-- &#45;15&#45;&gt;0 -->
<g id="edge6" class="edge">
<title>&#45;15&#45;&gt;0</title>
<path fill="none" stroke="green" stroke-width="0.75" d="M145,-94.14C170.94,-81.44 222.28,-56.3 252.41,-41.54"/>
<polygon fill="green" stroke="green" stroke-width="0.75" points="254.3,-44.51 261.74,-36.97 251.22,-38.22 254.3,-44.51"/>
</g>
<!-- &#45;16 -->
<g id="node16" class="node">
<title>&#45;16</title>
<polygon fill="lightgray" stroke="black" points="388.99,-111.98 356.99,-111.98 356.99,-93.98 388.99,-93.98 388.99,-111.98"/>
<text text-anchor="middle" x="372.99" y="-100.78" font-family="Times,serif" font-size="9.00">&#45;16</text>
</g>
<!-- &#45;16&#45;&gt;0 -->
<g id="edge5" class="edge">
<title>&#45;16&#45;&gt;0</title>
<path fill="none" stroke="green" stroke-width="0.41" d="M361.86,-93.72C346.09,-82.01 316.92,-60.36 296.99,-45.58"/>
<polygon fill="green" stroke="green" stroke-width="0.41" points="298.94,-42.67 288.83,-39.52 294.77,-48.29 298.94,-42.67"/>
</g>
<!-- &#45;16&#45;&gt;1 -->
<g id="edge11" class="edge">
<title>&#45;16&#45;&gt;1</title>
<path fill="none" stroke="red" stroke-width="0.42" d="M389.09,-95.72C421.61,-83.06 495.31,-54.38 533.71,-39.44"/>
<polygon fill="red" stroke="red" stroke-width="0.42" points="535.05,-42.67 543.1,-35.79 532.51,-36.15 535.05,-42.67"/>
</g>
<!-- &#45;17 -->
<g id="node17" class="node">
<title>&#45;17</title>
<polygon fill="lightgray" stroke="black" points="438.99,-111.98 406.99,-111.98 406.99,-93.98 438.99,-93.98 438.99,-111.98"/>
<text text-anchor="middle" x="422.99" y="-100.78" font-family="Times,serif" font-size="9.00">&#45;17</text>
</g>
<!-- &#45;17&#45;&gt;0 -->
<g id="edge18" class="edge">
<title>&#45;17&#45;&gt;0</title>
<path fill="none" stroke="green" stroke-width="0.23" d="M406.98,-94.14C381.04,-81.44 329.7,-56.3 299.58,-41.54"/>
<polygon fill="green" stroke="green" stroke-width="0.23" points="300.76,-38.22 290.24,-36.97 297.68,-44.51 300.76,-38.22"/>
</g>
<!-- &#45;17&#45;&gt;1 -->
<g id="edge16" class="edge">
<title>&#45;17&#45;&gt;1</title>
<path fill="none" stroke="red" stroke-width="0.42" d="M438.22,-93.86C461.78,-81.3 507.24,-57.05 534.88,-42.32"/>
<polygon fill="red" stroke="red" stroke-width="0.42" points="536.66,-45.33 543.84,-37.54 533.37,-39.15 536.66,-45.33"/>
</g>
<!-- &#45;18 -->
<g id="node18" class="node">
<title>&#45;18</title>
<polygon fill="lightgray" stroke="black" points="194.99,-111.98 162.99,-111.98 162.99,-93.98 194.99,-93.98 194.99,-111.98"/>
<text text-anchor="middle" x="178.99" y="-100.78" font-family="Times,serif" font-size="9.00">&#45;18</text>
</g>
<!-- &#45;18&#45;&gt;0 -->
<g id="edge13" class="edge">
<title>&#45;18&#45;&gt;0</title>
<path fill="none" stroke="red" stroke-width="0.13" d="M190.12,-93.72C205.9,-82.01 235.07,-60.36 254.99,-45.58"/>
<polygon fill="red" stroke="red" stroke-width="0.13" points="257.21,-48.29 263.15,-39.52 253.04,-42.67 257.21,-48.29"/>
</g>
<!-- &#45;19 -->
<g id="node19" class="node">
<title>&#45;19</title>
<polygon fill="lightgray" stroke="black" points="244.99,-111.98 212.99,-111.98 212.99,-93.98 244.99,-93.98 244.99,-111.98"/>
<text text-anchor="middle" x="228.99" y="-100.78" font-family="Times,serif" font-size="9.00">&#45;19</text>
</g>
<!-- &#45;19&#45;&gt;0 -->
<g id="edge2" class="edge">
<title>&#45;19&#45;&gt;0</title>
<path fill="none" stroke="red" stroke-width="0.58" d="M234.38,-93.72C241.03,-83.54 252.58,-65.86 261.82,-51.69"/>
<polygon fill="red" stroke="red" stroke-width="0.58" points="264.96,-53.29 267.49,-43.01 259.1,-49.47 264.96,-53.29"/>
</g>
<!-- &#45;20 -->
<g id="node20" class="node">
<title>&#45;20</title>
<polygon fill="lightgray" stroke="black" points="44.99,-111.98 12.99,-111.98 12.99,-93.98 44.99,-93.98 44.99,-111.98"/>
<text text-anchor="middle" x="28.99" y="-100.78" font-family="Times,serif" font-size="9.00">&#45;20</text>
</g>
<!-- &#45;20&#45;&gt;0 -->
<g id="edge21" class="edge">
<title>&#45;20&#45;&gt;0</title>
<path fill="none" stroke="green" stroke-width="0.56" stroke-dasharray="1,5" d="M45.11,-96.75C48.06,-95.81 51.11,-94.86 53.99,-93.98 125.13,-72.35 209.64,-48.5 250.86,-36.98"/>
<polygon fill="green" stroke="green" stroke-width="0.56" points="251.91,-40.32 260.6,-34.26 250.03,-33.58 251.91,-40.32"/>
</g>
<!-- 2372 -->
<g id="node23" class="node">
<title>2372</title>
<ellipse fill="white" stroke="black" cx="28.99" cy="-28.99" rx="28.98" ry="28.98"/>
<text text-anchor="middle" x="28.99" y="-26.79" font-family="Times,serif" font-size="9.00">2372</text>
</g>
<!-- &#45;20&#45;&gt;2372 -->
<g id="edge22" class="edge">
<title>&#45;20&#45;&gt;2372</title>
<path fill="none" stroke="green" stroke-width="0.1" d="M28.99,-93.72C28.99,-87.26 28.99,-77.75 28.99,-68.05"/>
<polygon fill="green" stroke="green" stroke-width="0.1" points="32.49,-67.99 28.99,-57.99 25.49,-67.99 32.49,-67.99"/>
</g>
</g>
</svg>
