<?xml version="1.0" encoding="UTF-8" standalone="no"?>
<!DOCTYPE svg PUBLIC "-//W3C//DTD SVG 1.1//EN"
 "http://www.w3.org/Graphics/SVG/1.1/DTD/svg11.dtd">
<!-- Generated by graphviz version 2.43.0 (0)
 -->
<!-- Title: %3 Pages: 1 -->
<svg width="568pt" height="189pt"
 viewBox="0.00 0.00 568.00 188.51" xmlns="http://www.w3.org/2000/svg" xmlns:xlink="http://www.w3.org/1999/xlink">
<g id="graph0" class="graph" transform="scale(1 1) rotate(0) translate(4 184.51)">
<title>%3</title>
<polygon fill="white" stroke="transparent" points="-4,4 -4,-184.51 564,-184.51 564,4 -4,4"/>
<!-- &#45;1 -->
<g id="node1" class="node">
<title>&#45;1</title>
<polygon fill="lightgray" stroke="black" points="26,-106.52 0,-106.52 0,-88.52 26,-88.52 26,-106.52"/>
<text text-anchor="middle" x="13" y="-95.32" font-family="Times,serif" font-size="9.00">&#45;1</text>
</g>
<!-- 0 -->
<g id="node13" class="node">
<title>0</title>
<ellipse fill="lightblue" stroke="black" cx="170" cy="-16.26" rx="16.03" ry="16.03"/>
<text text-anchor="middle" x="170" y="-14.06" font-family="Times,serif" font-size="9.00">0</text>
</g>
<!-- &#45;1&#45;&gt;0 -->
<g id="edge12" class="edge">
<title>&#45;1&#45;&gt;0</title>
<path fill="none" stroke="red" stroke-width="0.14" d="M17.83,-88.16C21.76,-82 27.83,-73.8 35,-68.53 68.5,-43.91 115.24,-29.67 144.01,-22.7"/>
<polygon fill="red" stroke="red" stroke-width="0.14" points="145.14,-26.03 154.1,-20.38 143.57,-19.21 145.14,-26.03"/>
</g>
<!-- &#45;2 -->
<g id="node2" class="node">
<title>&#45;2</title>
<polygon fill="lightgray" stroke="black" points="296,-106.52 270,-106.52 270,-88.52 296,-88.52 296,-106.52"/>
<text text-anchor="middle" x="283" y="-95.32" font-family="Times,serif" font-size="9.00">&#45;2</text>
</g>
<!-- &#45;2&#45;&gt;0 -->
<g id="edge4" class="edge">
<title>&#45;2&#45;&gt;0</title>
<path fill="none" stroke="green" stroke-width="0.34" d="M277.93,-88.46C273.87,-82.45 267.76,-74.32 261,-68.53 240.6,-51.04 213.33,-36.62 193.98,-27.58"/>
<polygon fill="green" stroke="green" stroke-width="0.34" points="195.21,-24.29 184.66,-23.35 192.32,-30.67 195.21,-24.29"/>
</g>
<!-- 1 -->
<g id="node14" class="node">
<title>1</title>
<ellipse fill="lightblue" stroke="black" cx="393" cy="-16.26" rx="16.03" ry="16.03"/>
<text text-anchor="middle" x="393" y="-14.06" font-family="Times,serif" font-size="9.00">1</text>
</g>
<!-- &#45;2&#45;&gt;1 -->
<g id="edge13" class="edge">
<title>&#45;2&#45;&gt;1</title>
<path fill="none" stroke="green" stroke-width="0.58" d="M288.09,-88.49C292.16,-82.5 298.29,-74.37 305,-68.53 324.45,-51.61 350.29,-37.33 368.93,-28.18"/>
<polygon fill="green" stroke="green" stroke-width="0.58" points="370.69,-31.22 378.2,-23.75 367.67,-24.9 370.69,-31.22"/>
</g>
<!-- &#45;3 -->
<g id="node3" class="node">
<title>&#45;3</title>
<polygon fill="lightgray" stroke="black" points="340,-106.52 314,-106.52 314,-88.52 340,-88.52 340,-106.52"/>
<text text-anchor="middle" x="327" y="-95.32" font-family="Times,serif" font-size="9.00">&#45;3</text>
</g>
<!-- &#45;3&#45;&gt;0 -->
<g id="edge3" class="edge">
<title>&#45;3&#45;&gt;0</title>
<path fill="none" stroke="red" stroke-width="0.46" stroke-dasharray="1,5" d="M322.17,-88.16C318.24,-82 312.17,-73.8 305,-68.53 271.5,-43.91 224.76,-29.67 195.99,-22.7"/>
<polygon fill="red" stroke="red" stroke-width="0.46" points="196.43,-19.21 185.9,-20.38 194.86,-26.03 196.43,-19.21"/>
</g>
<!-- &#45;3&#45;&gt;1 -->
<g id="edge8" class="edge">
<title>&#45;3&#45;&gt;1</title>
<path fill="none" stroke="red" stroke-width="0.95" d="M333.45,-88.11C337.79,-82.52 343.66,-75.02 349,-68.53 357.75,-57.87 367.75,-46.19 375.99,-36.68"/>
<polygon fill="red" stroke="red" stroke-width="0.95" points="378.79,-38.79 382.72,-28.95 373.51,-34.2 378.79,-38.79"/>
</g>
<!-- &#45;4 -->
<g id="node4" class="node">
<title>&#45;4</title>
<polygon fill="lightgray" stroke="black" points="384,-106.52 358,-106.52 358,-88.52 384,-88.52 384,-106.52"/>
<text text-anchor="middle" x="371" y="-95.32" font-family="Times,serif" font-size="9.00">&#45;4</text>
</g>
<!-- &#45;4&#45;&gt;1 -->
<g id="edge1" class="edge">
<title>&#45;4&#45;&gt;1</title>
<path fill="none" stroke="green" stroke-width="0.14" stroke-dasharray="1,5" d="M373.27,-88.34C376.28,-77.5 381.72,-57.91 386.12,-42.04"/>
<polygon fill="green" stroke="green" stroke-width="0.14" points="389.53,-42.84 388.83,-32.27 382.79,-40.97 389.53,-42.84"/>
</g>
<!-- &#45;5 -->
<g id="node5" class="node">
<title>&#45;5</title>
<polygon fill="lightgray" stroke="black" points="428,-106.52 402,-106.52 402,-88.52 428,-88.52 428,-106.52"/>
<text text-anchor="middle" x="415" y="-95.32" font-family="Times,serif" font-size="9.00">&#45;5</text>
</g>
<!-- &#45;5&#45;&gt;1 -->
<g id="edge2" class="edge">
<title>&#45;5&#45;&gt;1</title>
<path fill="none" stroke="red" stroke-width="1.2" stroke-dasharray="1,5" d="M412.73,-88.34C409.72,-77.5 404.28,-57.91 399.88,-42.04"/>
<polygon fill="red" stroke="red" stroke-width="1.2" points="403.21,-40.97 397.17,-32.27 396.47,-42.84 403.21,-40.97"/>
</g>
<!-- &#45;6 -->
<g id="node6" class="node">
<title>&#45;6</title>
<polygon fill="lightgray" stroke="black" points="70,-106.52 44,-106.52 44,-88.52 70,-88.52 70,-106.52"/>
<text text-anchor="middle" x="57" y="-95.32" font-family="Times,serif" font-size="9.00">&#45;6</text>
</g>
<!-- &#45;6&#45;&gt;0 -->
<g id="edge16" class="edge">
<title>&#45;6&#45;&gt;0</title>
<path fill="none" stroke="red" stroke-width="0.42" d="M62.07,-88.46C66.13,-82.45 72.24,-74.32 79,-68.53 99.4,-51.04 126.67,-36.62 146.02,-27.58"/>
<polygon fill="red" stroke="red" stroke-width="0.42" points="147.68,-30.67 155.34,-23.35 144.79,-24.29 147.68,-30.67"/>
</g>
<!-- &#45;7 -->
<g id="node7" class="node">
<title>&#45;7</title>
<polygon fill="lightgray" stroke="black" points="516,-180.51 490,-180.51 490,-162.51 516,-162.51 516,-180.51"/>
<text text-anchor="middle" x="503" y="-169.31" font-family="Times,serif" font-size="9.00">&#45;7</text>
</g>
<!-- &#45;8 -->
<g id="node8" class="node">
<title>&#45;8</title>
<polygon fill="lightgray" stroke="black" points="114,-106.52 88,-106.52 88,-88.52 114,-88.52 114,-106.52"/>
<text text-anchor="middle" x="101" y="-95.32" font-family="Times,serif" font-size="9.00">&#45;8</text>
</g>
<!-- &#45;8&#45;&gt;0 -->
<g id="edge10" class="edge">
<title>&#45;8&#45;&gt;0</title>
<path fill="none" stroke="green" stroke-width="0.34" d="M107.38,-88.06C111.69,-82.43 117.56,-74.93 123,-68.53 132.28,-57.6 143.07,-45.78 151.96,-36.24"/>
<polygon fill="green" stroke="green" stroke-width="0.34" points="154.62,-38.53 158.91,-28.84 149.52,-33.74 154.62,-38.53"/>
</g>
<!-- &#45;9 -->
<g id="node9" class="node">
<title>&#45;9</title>
<polygon fill="lightgray" stroke="black" points="560,-180.51 534,-180.51 534,-162.51 560,-162.51 560,-180.51"/>
<text text-anchor="middle" x="547" y="-169.31" font-family="Times,serif" font-size="9.00">&#45;9</text>
</g>
<!-- &#45;10 -->
<g id="node10" class="node">
<title>&#45;10</title>
<polygon fill="lightgray" stroke="black" points="164,-106.52 132,-106.52 132,-88.52 164,-88.52 164,-106.52"/>
<text text-anchor="middle" x="148" y="-95.32" font-family="Times,serif" font-size="9.00">&#45;10</text>
</g>
<!-- &#45;10&#45;&gt;0 -->
<g id="edge6" class="edge">
<title>&#45;10&#45;&gt;0</title>
<path fill="none" stroke="red" stroke-width="0.4" d="M150.27,-88.34C153.28,-77.5 158.72,-57.91 163.12,-42.04"/>
<polygon fill="red" stroke="red" stroke-width="0.4" points="166.53,-42.84 165.83,-32.27 159.79,-40.97 166.53,-42.84"/>
</g>
<!-- &#45;11 -->
<g id="node11" class="node">
<title>&#45;11</title>
<polygon fill="lightgray" stroke="black" points="472,-180.51 440,-180.51 440,-162.51 472,-162.51 472,-180.51"/>
<text text-anchor="middle" x="456" y="-169.31" font-family="Times,serif" font-size="9.00">&#45;11</text>
</g>
<!-- &#45;11&#45;&gt;0 -->
<g id="edge11" class="edge">
<title>&#45;11&#45;&gt;0</title>
<path fill="none" stroke="red" stroke-width="0.18" stroke-dasharray="1,5" d="M439.89,-169.66C391.12,-166.77 246.19,-155.84 211,-126.51 185.94,-105.63 176.19,-67.8 172.4,-42.6"/>
<polygon fill="red" stroke="red" stroke-width="0.18" points="175.86,-42.13 171.11,-32.66 168.92,-43.03 175.86,-42.13"/>
</g>
<!-- &#45;11&#45;&gt;1 -->
<g id="edge9" class="edge">
<title>&#45;11&#45;&gt;1</title>
<path fill="none" stroke="green" stroke-width="0.15" stroke-dasharray="1,5" d="M455.9,-162.4C455.38,-144.54 452.48,-100.85 437,-68.53 430.98,-55.97 421.08,-44.03 412.19,-34.84"/>
<polygon fill="green" stroke="green" stroke-width="0.15" points="414.65,-32.34 405.07,-27.81 409.73,-37.33 414.65,-32.34"/>
</g>
<!-- 1803 -->
<g id="node15" class="node">
<title>1803</title>
<ellipse fill="white" stroke="black" cx="513" cy="-97.52" rx="28.98" ry="28.98"/>
<text text-anchor="middle" x="513" y="-95.32" font-family="Times,serif" font-size="9.00">1803</text>
</g>
<!-- &#45;11&#45;&gt;1803 -->
<g id="edge14" class="edge">
<title>&#45;11&#45;&gt;1803</title>
<path fill="none" stroke="red" stroke-width="0.36" d="M462.54,-162.25C469.06,-154.01 479.48,-140.85 489.17,-128.62"/>
<polygon fill="red" stroke="red" stroke-width="0.36" points="491.91,-130.79 495.37,-120.78 486.42,-126.45 491.91,-130.79"/>
</g>
<!-- &#45;12 -->
<g id="node12" class="node">
<title>&#45;12</title>
<polygon fill="lightgray" stroke="black" points="252,-106.52 220,-106.52 220,-88.52 252,-88.52 252,-106.52"/>
<text text-anchor="middle" x="236" y="-95.32" font-family="Times,serif" font-size="9.00">&#45;12</text>
</g>
<!-- &#45;12&#45;&gt;0 -->
<g id="edge7" class="edge">
<title>&#45;12&#45;&gt;0</title>
<path fill="none" stroke="red" stroke-width="0.22" d="M229.19,-88.34C219.26,-76.41 200.5,-53.89 186.76,-37.39"/>
<polygon fill="red" stroke="red" stroke-width="0.22" points="189.19,-34.84 180.1,-29.39 183.81,-39.32 189.19,-34.84"/>
</g>
<!-- 0&#45;&gt;0 -->
<g id="edge5" class="edge">
<title>0&#45;&gt;0</title>
<path fill="none" stroke="green" stroke-width="0.69" d="M181.23,-28.18C192.21,-34.77 204.26,-30.79 204.26,-16.26 204.26,-6.05 198.3,-1.05 190.95,-1.27"/>
<polygon fill="green" stroke="green" stroke-width="0.69" points="189.71,2.01 181.23,-4.34 191.82,-4.67 189.71,2.01"/>
</g>
<!-- 1803&#45;&gt;1 -->
<g id="edge15" class="edge">
<title>1803&#45;&gt;1</title>
<path fill="none" stroke="green" stroke-width="0.27" d="M489,-80.67C467.32,-66.35 435.67,-45.45 414.72,-31.61"/>
<polygon fill="green" stroke="green" stroke-width="0.27" points="416.46,-28.56 406.19,-25.97 412.6,-34.4 416.46,-28.56"/>
</g>
</g>
</svg>
