<?xml version="1.0" encoding="UTF-8" standalone="no"?>
<!DOCTYPE svg PUBLIC "-//W3C//DTD SVG 1.1//EN"
 "http://www.w3.org/Graphics/SVG/1.1/DTD/svg11.dtd">
<!-- Generated by graphviz version 2.43.0 (0)
 -->
<!-- Title: %3 Pages: 1 -->
<svg width="513pt" height="172pt"
 viewBox="0.00 0.00 513.00 171.54" xmlns="http://www.w3.org/2000/svg" xmlns:xlink="http://www.w3.org/1999/xlink">
<g id="graph0" class="graph" transform="scale(1 1) rotate(0) translate(4 167.54)">
<title>%3</title>
<polygon fill="white" stroke="transparent" points="-4,4 -4,-167.54 509,-167.54 509,4 -4,4"/>
<!-- &#45;1 -->
<g id="node1" class="node">
<title>&#45;1</title>
<polygon fill="lightgray" stroke="black" points="70,-98.03 44,-98.03 44,-80.03 70,-80.03 70,-98.03"/>
<text text-anchor="middle" x="57" y="-86.83" font-family="Times,serif" font-size="9.00">&#45;1</text>
</g>
<!-- 0 -->
<g id="node13" class="node">
<title>0</title>
<ellipse fill="lightblue" stroke="black" cx="79" cy="-16.26" rx="16.03" ry="16.03"/>
<text text-anchor="middle" x="79" y="-14.06" font-family="Times,serif" font-size="9.00">0</text>
</g>
<!-- &#45;1&#45;&gt;0 -->
<g id="edge9" class="edge">
<title>&#45;1&#45;&gt;0</title>
<path fill="none" stroke="green" stroke-width="0.33" d="M59.52,-79.91C62.42,-70.6 67.3,-54.88 71.46,-41.53"/>
<polygon fill="green" stroke="green" stroke-width="0.33" points="74.82,-42.5 74.45,-31.91 68.13,-40.42 74.82,-42.5"/>
</g>
<!-- 1 -->
<g id="node14" class="node">
<title>1</title>
<ellipse fill="lightblue" stroke="black" cx="218" cy="-16.26" rx="16.03" ry="16.03"/>
<text text-anchor="middle" x="218" y="-14.06" font-family="Times,serif" font-size="9.00">1</text>
</g>
<!-- &#45;1&#45;&gt;1 -->
<g id="edge5" class="edge">
<title>&#45;1&#45;&gt;1</title>
<path fill="none" stroke="green" stroke-width="0.26" d="M64.58,-80.03C68.58,-76.16 73.74,-71.67 79,-68.53 115.76,-46.53 163.52,-31.45 192.41,-23.61"/>
<polygon fill="green" stroke="green" stroke-width="0.26" points="193.36,-26.98 202.14,-21.04 191.58,-20.21 193.36,-26.98"/>
</g>
<!-- &#45;2 -->
<g id="node2" class="node">
<title>&#45;2</title>
<polygon fill="lightgray" stroke="black" points="323,-163.54 297,-163.54 297,-145.54 323,-145.54 323,-163.54"/>
<text text-anchor="middle" x="310" y="-152.34" font-family="Times,serif" font-size="9.00">&#45;2</text>
</g>
<!-- &#45;2&#45;&gt;1 -->
<g id="edge1" class="edge">
<title>&#45;2&#45;&gt;1</title>
<path fill="none" stroke="red" stroke-width="0.28" stroke-dasharray="1,5" d="M306.72,-145.12C300.36,-129.31 285.34,-94.45 267,-68.53 258.36,-56.31 246.88,-44.14 237.21,-34.73"/>
<polygon fill="red" stroke="red" stroke-width="0.28" points="239.59,-32.16 229.92,-27.82 234.77,-37.24 239.59,-32.16"/>
</g>
<!-- 35 -->
<g id="node15" class="node">
<title>35</title>
<ellipse fill="white" stroke="black" cx="335" cy="-89.03" rx="20.51" ry="20.51"/>
<text text-anchor="middle" x="335" y="-86.83" font-family="Times,serif" font-size="9.00">35</text>
</g>
<!-- &#45;2&#45;&gt;35 -->
<g id="edge12" class="edge">
<title>&#45;2&#45;&gt;35</title>
<path fill="none" stroke="red" stroke-width="0.16" d="M313.17,-145.5C315.93,-138.46 320.12,-127.83 324.09,-117.75"/>
<polygon fill="red" stroke="red" stroke-width="0.16" points="327.37,-118.97 327.78,-108.38 320.86,-116.41 327.37,-118.97"/>
</g>
<!-- &#45;3 -->
<g id="node3" class="node">
<title>&#45;3</title>
<polygon fill="lightgray" stroke="black" points="400,-98.03 374,-98.03 374,-80.03 400,-80.03 400,-98.03"/>
<text text-anchor="middle" x="387" y="-86.83" font-family="Times,serif" font-size="9.00">&#45;3</text>
</g>
<!-- &#45;3&#45;&gt;1 -->
<g id="edge7" class="edge">
<title>&#45;3&#45;&gt;1</title>
<path fill="none" stroke="green" stroke-width="0.12" d="M379.44,-79.99C375.45,-76.11 370.28,-71.63 365,-68.53 325.58,-45.41 274.12,-30.47 243.71,-22.99"/>
<polygon fill="green" stroke="green" stroke-width="0.12" points="244.42,-19.56 233.88,-20.65 242.8,-26.37 244.42,-19.56"/>
</g>
<!-- &#45;4 -->
<g id="node4" class="node">
<title>&#45;4</title>
<polygon fill="lightgray" stroke="black" points="26,-98.03 0,-98.03 0,-80.03 26,-80.03 26,-98.03"/>
<text text-anchor="middle" x="13" y="-86.83" font-family="Times,serif" font-size="9.00">&#45;4</text>
</g>
<!-- &#45;4&#45;&gt;0 -->
<g id="edge3" class="edge">
<title>&#45;4&#45;&gt;0</title>
<path fill="none" stroke="red" stroke-width="0.83" d="M20.57,-79.91C30.4,-69.38 47.86,-50.65 61.14,-36.41"/>
<polygon fill="red" stroke="red" stroke-width="0.83" points="63.76,-38.74 68.02,-29.04 58.64,-33.97 63.76,-38.74"/>
</g>
<!-- &#45;5 -->
<g id="node5" class="node">
<title>&#45;5</title>
<polygon fill="lightgray" stroke="black" points="114,-98.03 88,-98.03 88,-80.03 114,-80.03 114,-98.03"/>
<text text-anchor="middle" x="101" y="-86.83" font-family="Times,serif" font-size="9.00">&#45;5</text>
</g>
<!-- &#45;5&#45;&gt;0 -->
<g id="edge6" class="edge">
<title>&#45;5&#45;&gt;0</title>
<path fill="none" stroke="red" stroke-width="0.53" stroke-dasharray="1,5" d="M98.48,-79.91C95.58,-70.6 90.7,-54.88 86.54,-41.53"/>
<polygon fill="red" stroke="red" stroke-width="0.53" points="89.87,-40.42 83.55,-31.91 83.18,-42.5 89.87,-40.42"/>
</g>
<!-- &#45;5&#45;&gt;1 -->
<g id="edge4" class="edge">
<title>&#45;5&#45;&gt;1</title>
<path fill="none" stroke="green" stroke-width="0.18" d="M109.19,-79.96C113.17,-76.24 118.15,-71.92 123,-68.53 145.99,-52.45 174.58,-37.65 194.36,-28.12"/>
<polygon fill="green" stroke="green" stroke-width="0.18" points="196.02,-31.21 203.56,-23.77 193.02,-24.88 196.02,-31.21"/>
</g>
<!-- &#45;6 -->
<g id="node6" class="node">
<title>&#45;6</title>
<polygon fill="lightgray" stroke="black" points="367,-163.54 341,-163.54 341,-145.54 367,-145.54 367,-163.54"/>
<text text-anchor="middle" x="354" y="-152.34" font-family="Times,serif" font-size="9.00">&#45;6</text>
</g>
<!-- &#45;7 -->
<g id="node7" class="node">
<title>&#45;7</title>
<polygon fill="lightgray" stroke="black" points="208,-98.03 182,-98.03 182,-80.03 208,-80.03 208,-98.03"/>
<text text-anchor="middle" x="195" y="-86.83" font-family="Times,serif" font-size="9.00">&#45;7</text>
</g>
<!-- &#45;7&#45;&gt;1 -->
<g id="edge11" class="edge">
<title>&#45;7&#45;&gt;1</title>
<path fill="none" stroke="green" stroke-width="0.35" stroke-dasharray="1,5" d="M197.64,-79.91C200.67,-70.6 205.77,-54.88 210.11,-41.53"/>
<polygon fill="green" stroke="green" stroke-width="0.35" points="213.48,-42.51 213.24,-31.91 206.82,-40.34 213.48,-42.51"/>
</g>
<!-- &#45;8 -->
<g id="node8" class="node">
<title>&#45;8</title>
<polygon fill="lightgray" stroke="black" points="411,-163.54 385,-163.54 385,-145.54 411,-145.54 411,-163.54"/>
<text text-anchor="middle" x="398" y="-152.34" font-family="Times,serif" font-size="9.00">&#45;8</text>
</g>
<!-- &#45;9 -->
<g id="node9" class="node">
<title>&#45;9</title>
<polygon fill="lightgray" stroke="black" points="455,-163.54 429,-163.54 429,-145.54 455,-145.54 455,-163.54"/>
<text text-anchor="middle" x="442" y="-152.34" font-family="Times,serif" font-size="9.00">&#45;9</text>
</g>
<!-- &#45;10 -->
<g id="node10" class="node">
<title>&#45;10</title>
<polygon fill="lightgray" stroke="black" points="505,-163.54 473,-163.54 473,-145.54 505,-145.54 505,-163.54"/>
<text text-anchor="middle" x="489" y="-152.34" font-family="Times,serif" font-size="9.00">&#45;10</text>
</g>
<!-- &#45;11 -->
<g id="node11" class="node">
<title>&#45;11</title>
<polygon fill="lightgray" stroke="black" points="258,-98.03 226,-98.03 226,-80.03 258,-80.03 258,-98.03"/>
<text text-anchor="middle" x="242" y="-86.83" font-family="Times,serif" font-size="9.00">&#45;11</text>
</g>
<!-- &#45;11&#45;&gt;1 -->
<g id="edge14" class="edge">
<title>&#45;11&#45;&gt;1</title>
<path fill="none" stroke="red" stroke-width="0.16" d="M239.25,-79.91C236.09,-70.6 230.76,-54.88 226.23,-41.53"/>
<polygon fill="red" stroke="red" stroke-width="0.16" points="229.49,-40.26 222.97,-31.91 222.87,-42.51 229.49,-40.26"/>
</g>
<!-- &#45;12 -->
<g id="node12" class="node">
<title>&#45;12</title>
<polygon fill="lightgray" stroke="black" points="164,-98.03 132,-98.03 132,-80.03 164,-80.03 164,-98.03"/>
<text text-anchor="middle" x="148" y="-86.83" font-family="Times,serif" font-size="9.00">&#45;12</text>
</g>
<!-- &#45;12&#45;&gt;0 -->
<g id="edge10" class="edge">
<title>&#45;12&#45;&gt;0</title>
<path fill="none" stroke="green" stroke-width="0.33" d="M140.08,-79.91C129.69,-69.25 111.13,-50.22 97.19,-35.91"/>
<polygon fill="green" stroke="green" stroke-width="0.33" points="99.48,-33.26 90,-28.54 94.47,-38.14 99.48,-33.26"/>
</g>
<!-- &#45;12&#45;&gt;1 -->
<g id="edge8" class="edge">
<title>&#45;12&#45;&gt;1</title>
<path fill="none" stroke="red" stroke-width="0.24" d="M156.03,-79.91C166.57,-69.25 185.41,-50.22 199.55,-35.91"/>
<polygon fill="red" stroke="red" stroke-width="0.24" points="202.3,-38.11 206.85,-28.54 197.32,-33.19 202.3,-38.11"/>
</g>
<!-- 1&#45;&gt;1 -->
<g id="edge2" class="edge">
<title>1&#45;&gt;1</title>
<path fill="none" stroke="red" stroke-width="0.58" d="M229.94,-27.36C240.72,-32.76 252.26,-29.06 252.26,-16.26 252.26,-7.47 246.81,-2.97 239.89,-2.77"/>
<polygon fill="red" stroke="red" stroke-width="0.58" points="238.84,0.58 229.94,-5.17 240.48,-6.23 238.84,0.58"/>
</g>
<!-- 35&#45;&gt;1 -->
<g id="edge13" class="edge">
<title>35&#45;&gt;1</title>
<path fill="none" stroke="green" stroke-width="0.16" d="M317.74,-77.59C297.18,-65.15 262.79,-44.36 240.25,-30.72"/>
<polygon fill="green" stroke="green" stroke-width="0.16" points="242.05,-27.72 231.68,-25.54 238.42,-33.71 242.05,-27.72"/>
</g>
</g>
</svg>
