<?xml version="1.0" encoding="UTF-8" standalone="no"?>
<!DOCTYPE svg PUBLIC "-//W3C//DTD SVG 1.1//EN"
 "http://www.w3.org/Graphics/SVG/1.1/DTD/svg11.dtd">
<!-- Generated by graphviz version 2.43.0 (0)
 -->
<!-- Title: %3 Pages: 1 -->
<svg width="1042pt" height="189pt"
 viewBox="0.00 0.00 1042.00 188.51" xmlns="http://www.w3.org/2000/svg" xmlns:xlink="http://www.w3.org/1999/xlink">
<g id="graph0" class="graph" transform="scale(1 1) rotate(0) translate(4 184.51)">
<title>%3</title>
<polygon fill="white" stroke="transparent" points="-4,4 -4,-184.51 1038,-184.51 1038,4 -4,4"/>
<!-- &#45;1 -->
<g id="node1" class="node">
<title>&#45;1</title>
<polygon fill="lightgray" stroke="black" points="486,-106.52 460,-106.52 460,-88.52 486,-88.52 486,-106.52"/>
<text text-anchor="middle" x="473" y="-95.32" font-family="Times,serif" font-size="9.00">&#45;1</text>
</g>
<!-- 0 -->
<g id="node21" class="node">
<title>0</title>
<ellipse fill="lightblue" stroke="black" cx="274" cy="-16.26" rx="16.03" ry="16.03"/>
<text text-anchor="middle" x="274" y="-14.06" font-family="Times,serif" font-size="9.00">0</text>
</g>
<!-- &#45;1&#45;&gt;0 -->
<g id="edge6" class="edge">
<title>&#45;1&#45;&gt;0</title>
<path fill="none" stroke="green" stroke-width="0.28" d="M466.99,-88.29C462.02,-82.03 454.42,-73.65 446,-68.53 399.2,-40.05 335.56,-26.51 300.28,-20.82"/>
<polygon fill="green" stroke="green" stroke-width="0.28" points="300.71,-17.35 290.29,-19.3 299.65,-24.27 300.71,-17.35"/>
</g>
<!-- 1 -->
<g id="node22" class="node">
<title>1</title>
<ellipse fill="lightblue" stroke="black" cx="627" cy="-16.26" rx="16.03" ry="16.03"/>
<text text-anchor="middle" x="627" y="-14.06" font-family="Times,serif" font-size="9.00">1</text>
</g>
<!-- &#45;1&#45;&gt;1 -->
<g id="edge2" class="edge">
<title>&#45;1&#45;&gt;1</title>
<path fill="none" stroke="green" stroke-width="0.8" stroke-dasharray="1,5" d="M477.84,-88.18C481.78,-82.02 487.85,-73.82 495,-68.53 527.58,-44.39 572.97,-30.08 601.14,-22.95"/>
<polygon fill="green" stroke="green" stroke-width="0.8" points="602.13,-26.31 611.03,-20.56 600.49,-19.5 602.13,-26.31"/>
</g>
<!-- &#45;2 -->
<g id="node2" class="node">
<title>&#45;2</title>
<polygon fill="lightgray" stroke="black" points="700,-106.52 674,-106.52 674,-88.52 700,-88.52 700,-106.52"/>
<text text-anchor="middle" x="687" y="-95.32" font-family="Times,serif" font-size="9.00">&#45;2</text>
</g>
<!-- &#45;2&#45;&gt;1 -->
<g id="edge9" class="edge">
<title>&#45;2&#45;&gt;1</title>
<path fill="none" stroke="red" stroke-width="0.21" d="M680.8,-88.34C671.83,-76.48 654.92,-54.15 642.45,-37.67"/>
<polygon fill="red" stroke="red" stroke-width="0.21" points="645.22,-35.53 636.39,-29.67 639.64,-39.75 645.22,-35.53"/>
</g>
<!-- &#45;3 -->
<g id="node3" class="node">
<title>&#45;3</title>
<polygon fill="lightgray" stroke="black" points="328,-106.52 302,-106.52 302,-88.52 328,-88.52 328,-106.52"/>
<text text-anchor="middle" x="315" y="-95.32" font-family="Times,serif" font-size="9.00">&#45;3</text>
</g>
<!-- &#45;3&#45;&gt;0 -->
<g id="edge10" class="edge">
<title>&#45;3&#45;&gt;0</title>
<path fill="none" stroke="green" stroke-width="0.37" d="M310.77,-88.34C304.92,-77.03 294.14,-56.19 285.76,-39.99"/>
<polygon fill="green" stroke="green" stroke-width="0.37" points="288.86,-38.37 281.15,-31.09 282.64,-41.58 288.86,-38.37"/>
</g>
<!-- &#45;4 -->
<g id="node4" class="node">
<title>&#45;4</title>
<polygon fill="lightgray" stroke="black" points="530,-106.52 504,-106.52 504,-88.52 530,-88.52 530,-106.52"/>
<text text-anchor="middle" x="517" y="-95.32" font-family="Times,serif" font-size="9.00">&#45;4</text>
</g>
<!-- &#45;4&#45;&gt;0 -->
<g id="edge7" class="edge">
<title>&#45;4&#45;&gt;0</title>
<path fill="none" stroke="green" stroke-width="0.18" d="M512.68,-88.4C508.87,-82.02 502.72,-73.43 495,-68.53 433.1,-29.18 344.32,-19.95 300.51,-17.84"/>
<polygon fill="green" stroke="green" stroke-width="0.18" points="300.52,-14.34 290.39,-17.45 300.24,-21.33 300.52,-14.34"/>
</g>
<!-- &#45;4&#45;&gt;1 -->
<g id="edge14" class="edge">
<title>&#45;4&#45;&gt;1</title>
<path fill="none" stroke="red" stroke-width="0.71" stroke-dasharray="1,5" d="M522.09,-88.49C526.16,-82.5 532.29,-74.37 539,-68.53 558.45,-51.61 584.29,-37.33 602.93,-28.18"/>
<polygon fill="red" stroke="red" stroke-width="0.71" points="604.69,-31.22 612.2,-23.75 601.67,-24.9 604.69,-31.22"/>
</g>
<!-- &#45;5 -->
<g id="node5" class="node">
<title>&#45;5</title>
<polygon fill="lightgray" stroke="black" points="690,-180.51 664,-180.51 664,-162.51 690,-162.51 690,-180.51"/>
<text text-anchor="middle" x="677" y="-169.31" font-family="Times,serif" font-size="9.00">&#45;5</text>
</g>
<!-- &#45;5&#45;&gt;1 -->
<g id="edge13" class="edge">
<title>&#45;5&#45;&gt;1</title>
<path fill="none" stroke="red" stroke-width="0.14" stroke-dasharray="1,5" d="M685.45,-162.34C693.28,-154.14 704.38,-140.7 709,-126.51 716.97,-102 721.49,-91.07 709,-68.53 696.94,-46.77 671.37,-33.02 651.97,-25.31"/>
<polygon fill="red" stroke="red" stroke-width="0.14" points="653.08,-21.99 642.49,-21.81 650.66,-28.55 653.08,-21.99"/>
</g>
<!-- 4033 -->
<g id="node23" class="node">
<title>4033</title>
<ellipse fill="white" stroke="black" cx="627" cy="-97.52" rx="28.98" ry="28.98"/>
<text text-anchor="middle" x="627" y="-95.32" font-family="Times,serif" font-size="9.00">4033</text>
</g>
<!-- &#45;5&#45;&gt;4033 -->
<g id="edge17" class="edge">
<title>&#45;5&#45;&gt;4033</title>
<path fill="none" stroke="red" stroke-width="0.15" d="M671.26,-162.25C665.77,-154.35 657.14,-141.91 648.95,-130.12"/>
<polygon fill="red" stroke="red" stroke-width="0.15" points="651.69,-127.93 643.11,-121.71 645.94,-131.92 651.69,-127.93"/>
</g>
<!-- &#45;6 -->
<g id="node6" class="node">
<title>&#45;6</title>
<polygon fill="lightgray" stroke="black" points="782,-106.52 756,-106.52 756,-88.52 782,-88.52 782,-106.52"/>
<text text-anchor="middle" x="769" y="-95.32" font-family="Times,serif" font-size="9.00">&#45;6</text>
</g>
<!-- &#45;6&#45;&gt;1 -->
<g id="edge20" class="edge">
<title>&#45;6&#45;&gt;1</title>
<path fill="none" stroke="green" stroke-width="0.76" stroke-dasharray="1,5" d="M762.59,-88.34C757.51,-82.27 749.96,-74.11 742,-68.53 713.65,-48.66 676.36,-33.75 652.05,-25.27"/>
<polygon fill="green" stroke="green" stroke-width="0.76" points="653.08,-21.93 642.49,-22.04 650.84,-28.56 653.08,-21.93"/>
</g>
<!-- &#45;7 -->
<g id="node7" class="node">
<title>&#45;7</title>
<polygon fill="lightgray" stroke="black" points="734,-180.51 708,-180.51 708,-162.51 734,-162.51 734,-180.51"/>
<text text-anchor="middle" x="721" y="-169.31" font-family="Times,serif" font-size="9.00">&#45;7</text>
</g>
<!-- &#45;8 -->
<g id="node8" class="node">
<title>&#45;8</title>
<polygon fill="lightgray" stroke="black" points="316,-180.51 290,-180.51 290,-162.51 316,-162.51 316,-180.51"/>
<text text-anchor="middle" x="303" y="-169.31" font-family="Times,serif" font-size="9.00">&#45;8</text>
</g>
<!-- &#45;8&#45;&gt;0 -->
<g id="edge11" class="edge">
<title>&#45;8&#45;&gt;0</title>
<path fill="none" stroke="red" stroke-width="0.47" stroke-dasharray="1,5" d="M301.03,-162.43C298.92,-153.62 295.53,-139.11 293,-126.51 287.24,-97.8 281.62,-64.64 278,-42.45"/>
<polygon fill="red" stroke="red" stroke-width="0.47" points="281.45,-41.82 276.4,-32.51 274.54,-42.94 281.45,-41.82"/>
</g>
<!-- 4094 -->
<g id="node25" class="node">
<title>4094</title>
<ellipse fill="white" stroke="black" cx="375" cy="-97.52" rx="28.98" ry="28.98"/>
<text text-anchor="middle" x="375" y="-95.32" font-family="Times,serif" font-size="9.00">4094</text>
</g>
<!-- &#45;8&#45;&gt;4094 -->
<g id="edge21" class="edge">
<title>&#45;8&#45;&gt;4094</title>
<path fill="none" stroke="green" stroke-width="0.22" d="M311.26,-162.25C320.09,-153.42 334.57,-138.94 347.5,-126.01"/>
<polygon fill="green" stroke="green" stroke-width="0.22" points="350.28,-128.18 354.88,-118.63 345.33,-123.23 350.28,-128.18"/>
</g>
<!-- &#45;9 -->
<g id="node9" class="node">
<title>&#45;9</title>
<polygon fill="lightgray" stroke="black" points="542,-180.51 516,-180.51 516,-162.51 542,-162.51 542,-180.51"/>
<text text-anchor="middle" x="529" y="-169.31" font-family="Times,serif" font-size="9.00">&#45;9</text>
</g>
<!-- &#45;9&#45;&gt;0 -->
<g id="edge3" class="edge">
<title>&#45;9&#45;&gt;0</title>
<path fill="none" stroke="green" stroke-width="0.2" d="M515.91,-165.43C499.36,-158.52 470.64,-144.89 451,-126.51 428.5,-105.46 437.11,-87.71 413,-68.53 379.3,-41.72 330.22,-28.05 300.3,-21.8"/>
<polygon fill="green" stroke="green" stroke-width="0.2" points="300.69,-18.31 290.2,-19.82 299.34,-25.18 300.69,-18.31"/>
</g>
<!-- &#45;9&#45;&gt;4033 -->
<g id="edge19" class="edge">
<title>&#45;9&#45;&gt;4033</title>
<path fill="none" stroke="red" stroke-width="0.28" d="M540.06,-162.41C552.11,-153.58 571.93,-139.06 589,-126.51 591.29,-124.83 593.66,-123.09 596.04,-121.33"/>
<polygon fill="red" stroke="red" stroke-width="0.28" points="598.12,-124.15 604.1,-115.4 593.97,-118.51 598.12,-124.15"/>
</g>
<!-- &#45;10 -->
<g id="node10" class="node">
<title>&#45;10</title>
<polygon fill="lightgray" stroke="black" points="32,-106.52 0,-106.52 0,-88.52 32,-88.52 32,-106.52"/>
<text text-anchor="middle" x="16" y="-95.32" font-family="Times,serif" font-size="9.00">&#45;10</text>
</g>
<!-- &#45;10&#45;&gt;0 -->
<g id="edge1" class="edge">
<title>&#45;10&#45;&gt;0</title>
<path fill="none" stroke="green" stroke-width="0.79" stroke-dasharray="1,5" d="M21.15,-88.38C25.62,-81.99 32.68,-73.4 41,-68.53 108.05,-29.31 201.9,-20.04 247.31,-17.89"/>
<polygon fill="green" stroke="green" stroke-width="0.79" points="247.65,-21.38 257.51,-17.49 247.38,-14.38 247.65,-21.38"/>
</g>
<!-- &#45;11 -->
<g id="node11" class="node">
<title>&#45;11</title>
<polygon fill="lightgray" stroke="black" points="82,-106.52 50,-106.52 50,-88.52 82,-88.52 82,-106.52"/>
<text text-anchor="middle" x="66" y="-95.32" font-family="Times,serif" font-size="9.00">&#45;11</text>
</g>
<!-- &#45;11&#45;&gt;0 -->
<g id="edge8" class="edge">
<title>&#45;11&#45;&gt;0</title>
<path fill="none" stroke="green" stroke-width="0.18" stroke-dasharray="1,5" d="M71.22,-88.5C75.74,-82.19 82.82,-73.63 91,-68.53 141.07,-37.31 210.5,-24.69 247.8,-19.92"/>
<polygon fill="green" stroke="green" stroke-width="0.18" points="248.34,-23.38 257.85,-18.73 247.51,-16.43 248.34,-23.38"/>
</g>
<!-- &#45;12 -->
<g id="node12" class="node">
<title>&#45;12</title>
<polygon fill="lightgray" stroke="black" points="223,-180.51 191,-180.51 191,-162.51 223,-162.51 223,-180.51"/>
<text text-anchor="middle" x="207" y="-169.31" font-family="Times,serif" font-size="9.00">&#45;12</text>
</g>
<!-- &#45;12&#45;&gt;0 -->
<g id="edge12" class="edge">
<title>&#45;12&#45;&gt;0</title>
<path fill="none" stroke="green" stroke-width="0.3" stroke-dasharray="1,5" d="M210.6,-162.27C220.5,-139.64 248.37,-75.87 263.66,-40.92"/>
<polygon fill="green" stroke="green" stroke-width="0.3" points="266.99,-42.04 267.79,-31.47 260.57,-39.23 266.99,-42.04"/>
</g>
<!-- 3783 -->
<g id="node24" class="node">
<title>3783</title>
<ellipse fill="white" stroke="black" cx="129" cy="-97.52" rx="28.98" ry="28.98"/>
<text text-anchor="middle" x="129" y="-95.32" font-family="Times,serif" font-size="9.00">3783</text>
</g>
<!-- &#45;12&#45;&gt;3783 -->
<g id="edge15" class="edge">
<title>&#45;12&#45;&gt;3783</title>
<path fill="none" stroke="red" stroke-width="0.33" d="M198.05,-162.25C188.19,-153.15 171.83,-138.05 157.51,-124.83"/>
<polygon fill="red" stroke="red" stroke-width="0.33" points="159.54,-121.94 149.82,-117.73 154.79,-127.09 159.54,-121.94"/>
</g>
<!-- &#45;13 -->
<g id="node13" class="node">
<title>&#45;13</title>
<polygon fill="lightgray" stroke="black" points="784,-180.51 752,-180.51 752,-162.51 784,-162.51 784,-180.51"/>
<text text-anchor="middle" x="768" y="-169.31" font-family="Times,serif" font-size="9.00">&#45;13</text>
</g>
<!-- &#45;14 -->
<g id="node14" class="node">
<title>&#45;14</title>
<polygon fill="lightgray" stroke="black" points="834,-180.51 802,-180.51 802,-162.51 834,-162.51 834,-180.51"/>
<text text-anchor="middle" x="818" y="-169.31" font-family="Times,serif" font-size="9.00">&#45;14</text>
</g>
<!-- &#45;15 -->
<g id="node15" class="node">
<title>&#45;15</title>
<polygon fill="lightgray" stroke="black" points="884,-180.51 852,-180.51 852,-162.51 884,-162.51 884,-180.51"/>
<text text-anchor="middle" x="868" y="-169.31" font-family="Times,serif" font-size="9.00">&#45;15</text>
</g>
<!-- &#45;16 -->
<g id="node16" class="node">
<title>&#45;16</title>
<polygon fill="lightgray" stroke="black" points="934,-180.51 902,-180.51 902,-162.51 934,-162.51 934,-180.51"/>
<text text-anchor="middle" x="918" y="-169.31" font-family="Times,serif" font-size="9.00">&#45;16</text>
</g>
<!-- &#45;17 -->
<g id="node17" class="node">
<title>&#45;17</title>
<polygon fill="lightgray" stroke="black" points="580,-106.52 548,-106.52 548,-88.52 580,-88.52 580,-106.52"/>
<text text-anchor="middle" x="564" y="-95.32" font-family="Times,serif" font-size="9.00">&#45;17</text>
</g>
<!-- &#45;17&#45;&gt;1 -->
<g id="edge4" class="edge">
<title>&#45;17&#45;&gt;1</title>
<path fill="none" stroke="green" stroke-width="0.23" d="M570.5,-88.34C579.98,-76.41 597.88,-53.89 611,-37.39"/>
<polygon fill="green" stroke="green" stroke-width="0.23" points="613.88,-39.4 617.36,-29.39 608.4,-35.04 613.88,-39.4"/>
</g>
<!-- &#45;18 -->
<g id="node18" class="node">
<title>&#45;18</title>
<polygon fill="lightgray" stroke="black" points="208,-106.52 176,-106.52 176,-88.52 208,-88.52 208,-106.52"/>
<text text-anchor="middle" x="192" y="-95.32" font-family="Times,serif" font-size="9.00">&#45;18</text>
</g>
<!-- &#45;18&#45;&gt;0 -->
<g id="edge5" class="edge">
<title>&#45;18&#45;&gt;0</title>
<path fill="none" stroke="green" stroke-width="0.43" d="M200.47,-88.34C213.31,-75.92 238.05,-52.01 255.27,-35.37"/>
<polygon fill="green" stroke="green" stroke-width="0.43" points="257.82,-37.77 262.58,-28.3 252.96,-32.74 257.82,-37.77"/>
</g>
<!-- &#45;19 -->
<g id="node19" class="node">
<title>&#45;19</title>
<polygon fill="lightgray" stroke="black" points="984,-180.51 952,-180.51 952,-162.51 984,-162.51 984,-180.51"/>
<text text-anchor="middle" x="968" y="-169.31" font-family="Times,serif" font-size="9.00">&#45;19</text>
</g>
<!-- &#45;20 -->
<g id="node20" class="node">
<title>&#45;20</title>
<polygon fill="lightgray" stroke="black" points="1034,-180.51 1002,-180.51 1002,-162.51 1034,-162.51 1034,-180.51"/>
<text text-anchor="middle" x="1018" y="-169.31" font-family="Times,serif" font-size="9.00">&#45;20</text>
</g>
<!-- 4033&#45;&gt;1 -->
<g id="edge18" class="edge">
<title>4033&#45;&gt;1</title>
<path fill="none" stroke="green" stroke-width="0.15" d="M627,-68.35C627,-60.06 627,-51.04 627,-42.91"/>
<polygon fill="green" stroke="green" stroke-width="0.15" points="630.5,-42.89 627,-32.89 623.5,-42.89 630.5,-42.89"/>
</g>
<!-- 3783&#45;&gt;0 -->
<g id="edge16" class="edge">
<title>3783&#45;&gt;0</title>
<path fill="none" stroke="red" stroke-width="0.33" d="M151.43,-78.92C156.43,-75.3 161.8,-71.65 167,-68.53 194.26,-52.16 227.55,-36.89 249.68,-27.35"/>
<polygon fill="red" stroke="red" stroke-width="0.33" points="251.17,-30.52 259.01,-23.38 248.43,-24.08 251.17,-30.52"/>
</g>
<!-- 4094&#45;&gt;0 -->
<g id="edge22" class="edge">
<title>4094&#45;&gt;0</title>
<path fill="none" stroke="red" stroke-width="0.59" d="M352.58,-78.93C335.26,-65.34 311.48,-46.67 294.63,-33.45"/>
<polygon fill="red" stroke="red" stroke-width="0.59" points="296.54,-30.5 286.51,-27.08 292.22,-36.01 296.54,-30.5"/>
</g>
</g>
</svg>
