<?xml version="1.0" encoding="utf-8" standalone="no"?>
<!DOCTYPE svg PUBLIC "-//W3C//DTD SVG 1.1//EN"
  "http://www.w3.org/Graphics/SVG/1.1/DTD/svg11.dtd">
<svg xmlns:xlink="http://www.w3.org/1999/xlink" width="460.8pt" height="345.6pt" viewBox="0 0 460.8 345.6" xmlns="http://www.w3.org/2000/svg" version="1.1">
 <metadata>
  <rdf:RDF xmlns:dc="http://purl.org/dc/elements/1.1/" xmlns:cc="http://creativecommons.org/ns#" xmlns:rdf="http://www.w3.org/1999/02/22-rdf-syntax-ns#">
   <cc:Work>
    <dc:type rdf:resource="http://purl.org/dc/dcmitype/StillImage"/>
    <dc:date>2024-08-06T03:42:38.950052</dc:date>
    <dc:format>image/svg+xml</dc:format>
    <dc:creator>
     <cc:Agent>
      <dc:title>Matplotlib v3.8.4, https://matplotlib.org/</dc:title>
     </cc:Agent>
    </dc:creator>
   </cc:Work>
  </rdf:RDF>
 </metadata>
 <defs>
  <style type="text/css">*{stroke-linejoin: round; stroke-linecap: butt}</style>
 </defs>
 <g id="figure_1">
  <g id="patch_1">
   <path d="M 0 345.6 
L 460.8 345.6 
L 460.8 0 
L 0 0 
z
" style="fill: #ffffff"/>
  </g>
  <g id="axes_1">
   <g id="patch_2">
    <path d="M 57.6 307.584 
L 414.72 307.584 
L 414.72 41.472 
L 57.6 41.472 
z
" style="fill: #ffffff"/>
   </g>
   <g id="matplotlib.axis_1">
    <g id="xtick_1">
     <g id="line2d_1">
      <path d="M 73.832727 307.584 
L 73.832727 41.472 
" clip-path="url(#p1fb9f5ab7e)" style="fill: none; stroke: #b0b0b0; stroke-width: 0.8; stroke-linecap: square"/>
     </g>
     <g id="line2d_2">
      <defs>
       <path id="m660375f809" d="M 0 0 
L 0 3.5 
" style="stroke: #000000; stroke-width: 0.8"/>
      </defs>
      <g>
       <use xlink:href="#m660375f809" x="73.832727" y="307.584" style="stroke: #000000; stroke-width: 0.8"/>
      </g>
     </g>
     <g id="text_1">
      <!-- 0 -->
      <g transform="translate(70.651477 322.182437) scale(0.1 -0.1)">
       <defs>
        <path id="DejaVuSans-30" d="M 2034 4250 
Q 1547 4250 1301 3770 
Q 1056 3291 1056 2328 
Q 1056 1369 1301 889 
Q 1547 409 2034 409 
Q 2525 409 2770 889 
Q 3016 1369 3016 2328 
Q 3016 3291 2770 3770 
Q 2525 4250 2034 4250 
z
M 2034 4750 
Q 2819 4750 3233 4129 
Q 3647 3509 3647 2328 
Q 3647 1150 3233 529 
Q 2819 -91 2034 -91 
Q 1250 -91 836 529 
Q 422 1150 422 2328 
Q 422 3509 836 4129 
Q 1250 4750 2034 4750 
z
" transform="scale(0.015625)"/>
       </defs>
       <use xlink:href="#DejaVuSans-30"/>
      </g>
     </g>
    </g>
    <g id="xtick_2">
     <g id="line2d_3">
      <path d="M 114.618474 307.584 
L 114.618474 41.472 
" clip-path="url(#p1fb9f5ab7e)" style="fill: none; stroke: #b0b0b0; stroke-width: 0.8; stroke-linecap: square"/>
     </g>
     <g id="line2d_4">
      <g>
       <use xlink:href="#m660375f809" x="114.618474" y="307.584" style="stroke: #000000; stroke-width: 0.8"/>
      </g>
     </g>
     <g id="text_2">
      <!-- 25 -->
      <g transform="translate(108.255974 322.182437) scale(0.1 -0.1)">
       <defs>
        <path id="DejaVuSans-32" d="M 1228 531 
L 3431 531 
L 3431 0 
L 469 0 
L 469 531 
Q 828 903 1448 1529 
Q 2069 2156 2228 2338 
Q 2531 2678 2651 2914 
Q 2772 3150 2772 3378 
Q 2772 3750 2511 3984 
Q 2250 4219 1831 4219 
Q 1534 4219 1204 4116 
Q 875 4013 500 3803 
L 500 4441 
Q 881 4594 1212 4672 
Q 1544 4750 1819 4750 
Q 2544 4750 2975 4387 
Q 3406 4025 3406 3419 
Q 3406 3131 3298 2873 
Q 3191 2616 2906 2266 
Q 2828 2175 2409 1742 
Q 1991 1309 1228 531 
z
" transform="scale(0.015625)"/>
        <path id="DejaVuSans-35" d="M 691 4666 
L 3169 4666 
L 3169 4134 
L 1269 4134 
L 1269 2991 
Q 1406 3038 1543 3061 
Q 1681 3084 1819 3084 
Q 2600 3084 3056 2656 
Q 3513 2228 3513 1497 
Q 3513 744 3044 326 
Q 2575 -91 1722 -91 
Q 1428 -91 1123 -41 
Q 819 9 494 109 
L 494 744 
Q 775 591 1075 516 
Q 1375 441 1709 441 
Q 2250 441 2565 725 
Q 2881 1009 2881 1497 
Q 2881 1984 2565 2268 
Q 2250 2553 1709 2553 
Q 1456 2553 1204 2497 
Q 953 2441 691 2322 
L 691 4666 
z
" transform="scale(0.015625)"/>
       </defs>
       <use xlink:href="#DejaVuSans-32"/>
       <use xlink:href="#DejaVuSans-35" x="63.623047"/>
      </g>
     </g>
    </g>
    <g id="xtick_3">
     <g id="line2d_5">
      <path d="M 155.404221 307.584 
L 155.404221 41.472 
" clip-path="url(#p1fb9f5ab7e)" style="fill: none; stroke: #b0b0b0; stroke-width: 0.8; stroke-linecap: square"/>
     </g>
     <g id="line2d_6">
      <g>
       <use xlink:href="#m660375f809" x="155.404221" y="307.584" style="stroke: #000000; stroke-width: 0.8"/>
      </g>
     </g>
     <g id="text_3">
      <!-- 50 -->
      <g transform="translate(149.041721 322.182437) scale(0.1 -0.1)">
       <use xlink:href="#DejaVuSans-35"/>
       <use xlink:href="#DejaVuSans-30" x="63.623047"/>
      </g>
     </g>
    </g>
    <g id="xtick_4">
     <g id="line2d_7">
      <path d="M 196.189968 307.584 
L 196.189968 41.472 
" clip-path="url(#p1fb9f5ab7e)" style="fill: none; stroke: #b0b0b0; stroke-width: 0.8; stroke-linecap: square"/>
     </g>
     <g id="line2d_8">
      <g>
       <use xlink:href="#m660375f809" x="196.189968" y="307.584" style="stroke: #000000; stroke-width: 0.8"/>
      </g>
     </g>
     <g id="text_4">
      <!-- 75 -->
      <g transform="translate(189.827468 322.182437) scale(0.1 -0.1)">
       <defs>
        <path id="DejaVuSans-37" d="M 525 4666 
L 3525 4666 
L 3525 4397 
L 1831 0 
L 1172 0 
L 2766 4134 
L 525 4134 
L 525 4666 
z
" transform="scale(0.015625)"/>
       </defs>
       <use xlink:href="#DejaVuSans-37"/>
       <use xlink:href="#DejaVuSans-35" x="63.623047"/>
      </g>
     </g>
    </g>
    <g id="xtick_5">
     <g id="line2d_9">
      <path d="M 236.975715 307.584 
L 236.975715 41.472 
" clip-path="url(#p1fb9f5ab7e)" style="fill: none; stroke: #b0b0b0; stroke-width: 0.8; stroke-linecap: square"/>
     </g>
     <g id="line2d_10">
      <g>
       <use xlink:href="#m660375f809" x="236.975715" y="307.584" style="stroke: #000000; stroke-width: 0.8"/>
      </g>
     </g>
     <g id="text_5">
      <!-- 100 -->
      <g transform="translate(227.431965 322.182437) scale(0.1 -0.1)">
       <defs>
        <path id="DejaVuSans-31" d="M 794 531 
L 1825 531 
L 1825 4091 
L 703 3866 
L 703 4441 
L 1819 4666 
L 2450 4666 
L 2450 531 
L 3481 531 
L 3481 0 
L 794 0 
L 794 531 
z
" transform="scale(0.015625)"/>
       </defs>
       <use xlink:href="#DejaVuSans-31"/>
       <use xlink:href="#DejaVuSans-30" x="63.623047"/>
       <use xlink:href="#DejaVuSans-30" x="127.246094"/>
      </g>
     </g>
    </g>
    <g id="xtick_6">
     <g id="line2d_11">
      <path d="M 277.761462 307.584 
L 277.761462 41.472 
" clip-path="url(#p1fb9f5ab7e)" style="fill: none; stroke: #b0b0b0; stroke-width: 0.8; stroke-linecap: square"/>
     </g>
     <g id="line2d_12">
      <g>
       <use xlink:href="#m660375f809" x="277.761462" y="307.584" style="stroke: #000000; stroke-width: 0.8"/>
      </g>
     </g>
     <g id="text_6">
      <!-- 125 -->
      <g transform="translate(268.217712 322.182437) scale(0.1 -0.1)">
       <use xlink:href="#DejaVuSans-31"/>
       <use xlink:href="#DejaVuSans-32" x="63.623047"/>
       <use xlink:href="#DejaVuSans-35" x="127.246094"/>
      </g>
     </g>
    </g>
    <g id="xtick_7">
     <g id="line2d_13">
      <path d="M 318.547209 307.584 
L 318.547209 41.472 
" clip-path="url(#p1fb9f5ab7e)" style="fill: none; stroke: #b0b0b0; stroke-width: 0.8; stroke-linecap: square"/>
     </g>
     <g id="line2d_14">
      <g>
       <use xlink:href="#m660375f809" x="318.547209" y="307.584" style="stroke: #000000; stroke-width: 0.8"/>
      </g>
     </g>
     <g id="text_7">
      <!-- 150 -->
      <g transform="translate(309.003459 322.182437) scale(0.1 -0.1)">
       <use xlink:href="#DejaVuSans-31"/>
       <use xlink:href="#DejaVuSans-35" x="63.623047"/>
       <use xlink:href="#DejaVuSans-30" x="127.246094"/>
      </g>
     </g>
    </g>
    <g id="xtick_8">
     <g id="line2d_15">
      <path d="M 359.332956 307.584 
L 359.332956 41.472 
" clip-path="url(#p1fb9f5ab7e)" style="fill: none; stroke: #b0b0b0; stroke-width: 0.8; stroke-linecap: square"/>
     </g>
     <g id="line2d_16">
      <g>
       <use xlink:href="#m660375f809" x="359.332956" y="307.584" style="stroke: #000000; stroke-width: 0.8"/>
      </g>
     </g>
     <g id="text_8">
      <!-- 175 -->
      <g transform="translate(349.789206 322.182437) scale(0.1 -0.1)">
       <use xlink:href="#DejaVuSans-31"/>
       <use xlink:href="#DejaVuSans-37" x="63.623047"/>
       <use xlink:href="#DejaVuSans-35" x="127.246094"/>
      </g>
     </g>
    </g>
    <g id="xtick_9">
     <g id="line2d_17">
      <path d="M 400.118703 307.584 
L 400.118703 41.472 
" clip-path="url(#p1fb9f5ab7e)" style="fill: none; stroke: #b0b0b0; stroke-width: 0.8; stroke-linecap: square"/>
     </g>
     <g id="line2d_18">
      <g>
       <use xlink:href="#m660375f809" x="400.118703" y="307.584" style="stroke: #000000; stroke-width: 0.8"/>
      </g>
     </g>
     <g id="text_9">
      <!-- 200 -->
      <g transform="translate(390.574953 322.182437) scale(0.1 -0.1)">
       <use xlink:href="#DejaVuSans-32"/>
       <use xlink:href="#DejaVuSans-30" x="63.623047"/>
       <use xlink:href="#DejaVuSans-30" x="127.246094"/>
      </g>
     </g>
    </g>
    <g id="text_10">
     <!-- Generations -->
     <g transform="translate(205.662344 335.860562) scale(0.1 -0.1)">
      <defs>
       <path id="DejaVuSans-47" d="M 3809 666 
L 3809 1919 
L 2778 1919 
L 2778 2438 
L 4434 2438 
L 4434 434 
Q 4069 175 3628 42 
Q 3188 -91 2688 -91 
Q 1594 -91 976 548 
Q 359 1188 359 2328 
Q 359 3472 976 4111 
Q 1594 4750 2688 4750 
Q 3144 4750 3555 4637 
Q 3966 4525 4313 4306 
L 4313 3634 
Q 3963 3931 3569 4081 
Q 3175 4231 2741 4231 
Q 1884 4231 1454 3753 
Q 1025 3275 1025 2328 
Q 1025 1384 1454 906 
Q 1884 428 2741 428 
Q 3075 428 3337 486 
Q 3600 544 3809 666 
z
" transform="scale(0.015625)"/>
       <path id="DejaVuSans-65" d="M 3597 1894 
L 3597 1613 
L 953 1613 
Q 991 1019 1311 708 
Q 1631 397 2203 397 
Q 2534 397 2845 478 
Q 3156 559 3463 722 
L 3463 178 
Q 3153 47 2828 -22 
Q 2503 -91 2169 -91 
Q 1331 -91 842 396 
Q 353 884 353 1716 
Q 353 2575 817 3079 
Q 1281 3584 2069 3584 
Q 2775 3584 3186 3129 
Q 3597 2675 3597 1894 
z
M 3022 2063 
Q 3016 2534 2758 2815 
Q 2500 3097 2075 3097 
Q 1594 3097 1305 2825 
Q 1016 2553 972 2059 
L 3022 2063 
z
" transform="scale(0.015625)"/>
       <path id="DejaVuSans-6e" d="M 3513 2113 
L 3513 0 
L 2938 0 
L 2938 2094 
Q 2938 2591 2744 2837 
Q 2550 3084 2163 3084 
Q 1697 3084 1428 2787 
Q 1159 2491 1159 1978 
L 1159 0 
L 581 0 
L 581 3500 
L 1159 3500 
L 1159 2956 
Q 1366 3272 1645 3428 
Q 1925 3584 2291 3584 
Q 2894 3584 3203 3211 
Q 3513 2838 3513 2113 
z
" transform="scale(0.015625)"/>
       <path id="DejaVuSans-72" d="M 2631 2963 
Q 2534 3019 2420 3045 
Q 2306 3072 2169 3072 
Q 1681 3072 1420 2755 
Q 1159 2438 1159 1844 
L 1159 0 
L 581 0 
L 581 3500 
L 1159 3500 
L 1159 2956 
Q 1341 3275 1631 3429 
Q 1922 3584 2338 3584 
Q 2397 3584 2469 3576 
Q 2541 3569 2628 3553 
L 2631 2963 
z
" transform="scale(0.015625)"/>
       <path id="DejaVuSans-61" d="M 2194 1759 
Q 1497 1759 1228 1600 
Q 959 1441 959 1056 
Q 959 750 1161 570 
Q 1363 391 1709 391 
Q 2188 391 2477 730 
Q 2766 1069 2766 1631 
L 2766 1759 
L 2194 1759 
z
M 3341 1997 
L 3341 0 
L 2766 0 
L 2766 531 
Q 2569 213 2275 61 
Q 1981 -91 1556 -91 
Q 1019 -91 701 211 
Q 384 513 384 1019 
Q 384 1609 779 1909 
Q 1175 2209 1959 2209 
L 2766 2209 
L 2766 2266 
Q 2766 2663 2505 2880 
Q 2244 3097 1772 3097 
Q 1472 3097 1187 3025 
Q 903 2953 641 2809 
L 641 3341 
Q 956 3463 1253 3523 
Q 1550 3584 1831 3584 
Q 2591 3584 2966 3190 
Q 3341 2797 3341 1997 
z
" transform="scale(0.015625)"/>
       <path id="DejaVuSans-74" d="M 1172 4494 
L 1172 3500 
L 2356 3500 
L 2356 3053 
L 1172 3053 
L 1172 1153 
Q 1172 725 1289 603 
Q 1406 481 1766 481 
L 2356 481 
L 2356 0 
L 1766 0 
Q 1100 0 847 248 
Q 594 497 594 1153 
L 594 3053 
L 172 3053 
L 172 3500 
L 594 3500 
L 594 4494 
L 1172 4494 
z
" transform="scale(0.015625)"/>
       <path id="DejaVuSans-69" d="M 603 3500 
L 1178 3500 
L 1178 0 
L 603 0 
L 603 3500 
z
M 603 4863 
L 1178 4863 
L 1178 4134 
L 603 4134 
L 603 4863 
z
" transform="scale(0.015625)"/>
       <path id="DejaVuSans-6f" d="M 1959 3097 
Q 1497 3097 1228 2736 
Q 959 2375 959 1747 
Q 959 1119 1226 758 
Q 1494 397 1959 397 
Q 2419 397 2687 759 
Q 2956 1122 2956 1747 
Q 2956 2369 2687 2733 
Q 2419 3097 1959 3097 
z
M 1959 3584 
Q 2709 3584 3137 3096 
Q 3566 2609 3566 1747 
Q 3566 888 3137 398 
Q 2709 -91 1959 -91 
Q 1206 -91 779 398 
Q 353 888 353 1747 
Q 353 2609 779 3096 
Q 1206 3584 1959 3584 
z
" transform="scale(0.015625)"/>
       <path id="DejaVuSans-73" d="M 2834 3397 
L 2834 2853 
Q 2591 2978 2328 3040 
Q 2066 3103 1784 3103 
Q 1356 3103 1142 2972 
Q 928 2841 928 2578 
Q 928 2378 1081 2264 
Q 1234 2150 1697 2047 
L 1894 2003 
Q 2506 1872 2764 1633 
Q 3022 1394 3022 966 
Q 3022 478 2636 193 
Q 2250 -91 1575 -91 
Q 1294 -91 989 -36 
Q 684 19 347 128 
L 347 722 
Q 666 556 975 473 
Q 1284 391 1588 391 
Q 1994 391 2212 530 
Q 2431 669 2431 922 
Q 2431 1156 2273 1281 
Q 2116 1406 1581 1522 
L 1381 1569 
Q 847 1681 609 1914 
Q 372 2147 372 2553 
Q 372 3047 722 3315 
Q 1072 3584 1716 3584 
Q 2034 3584 2315 3537 
Q 2597 3491 2834 3397 
z
" transform="scale(0.015625)"/>
      </defs>
      <use xlink:href="#DejaVuSans-47"/>
      <use xlink:href="#DejaVuSans-65" x="77.490234"/>
      <use xlink:href="#DejaVuSans-6e" x="139.013672"/>
      <use xlink:href="#DejaVuSans-65" x="202.392578"/>
      <use xlink:href="#DejaVuSans-72" x="263.916016"/>
      <use xlink:href="#DejaVuSans-61" x="305.029297"/>
      <use xlink:href="#DejaVuSans-74" x="366.308594"/>
      <use xlink:href="#DejaVuSans-69" x="405.517578"/>
      <use xlink:href="#DejaVuSans-6f" x="433.300781"/>
      <use xlink:href="#DejaVuSans-6e" x="494.482422"/>
      <use xlink:href="#DejaVuSans-73" x="557.861328"/>
     </g>
    </g>
   </g>
   <g id="matplotlib.axis_2">
    <g id="ytick_1">
     <g id="line2d_19">
      <path d="M 57.6 300.920729 
L 414.72 300.920729 
" clip-path="url(#p1fb9f5ab7e)" style="fill: none; stroke: #b0b0b0; stroke-width: 0.8; stroke-linecap: square"/>
     </g>
     <g id="line2d_20">
      <defs>
       <path id="me4dfefc602" d="M 0 0 
L -3.5 0 
" style="stroke: #000000; stroke-width: 0.8"/>
      </defs>
      <g>
       <use xlink:href="#me4dfefc602" x="57.6" y="300.920729" style="stroke: #000000; stroke-width: 0.8"/>
      </g>
     </g>
     <g id="text_11">
      <!-- −2250 -->
      <g transform="translate(16.770313 304.719948) scale(0.1 -0.1)">
       <defs>
        <path id="DejaVuSans-2212" d="M 678 2272 
L 4684 2272 
L 4684 1741 
L 678 1741 
L 678 2272 
z
" transform="scale(0.015625)"/>
       </defs>
       <use xlink:href="#DejaVuSans-2212"/>
       <use xlink:href="#DejaVuSans-32" x="83.789062"/>
       <use xlink:href="#DejaVuSans-32" x="147.412109"/>
       <use xlink:href="#DejaVuSans-35" x="211.035156"/>
       <use xlink:href="#DejaVuSans-30" x="274.658203"/>
      </g>
     </g>
    </g>
    <g id="ytick_2">
     <g id="line2d_21">
      <path d="M 57.6 268.823804 
L 414.72 268.823804 
" clip-path="url(#p1fb9f5ab7e)" style="fill: none; stroke: #b0b0b0; stroke-width: 0.8; stroke-linecap: square"/>
     </g>
     <g id="line2d_22">
      <g>
       <use xlink:href="#me4dfefc602" x="57.6" y="268.823804" style="stroke: #000000; stroke-width: 0.8"/>
      </g>
     </g>
     <g id="text_12">
      <!-- −2000 -->
      <g transform="translate(16.770313 272.623023) scale(0.1 -0.1)">
       <use xlink:href="#DejaVuSans-2212"/>
       <use xlink:href="#DejaVuSans-32" x="83.789062"/>
       <use xlink:href="#DejaVuSans-30" x="147.412109"/>
       <use xlink:href="#DejaVuSans-30" x="211.035156"/>
       <use xlink:href="#DejaVuSans-30" x="274.658203"/>
      </g>
     </g>
    </g>
    <g id="ytick_3">
     <g id="line2d_23">
      <path d="M 57.6 236.726879 
L 414.72 236.726879 
" clip-path="url(#p1fb9f5ab7e)" style="fill: none; stroke: #b0b0b0; stroke-width: 0.8; stroke-linecap: square"/>
     </g>
     <g id="line2d_24">
      <g>
       <use xlink:href="#me4dfefc602" x="57.6" y="236.726879" style="stroke: #000000; stroke-width: 0.8"/>
      </g>
     </g>
     <g id="text_13">
      <!-- −1750 -->
      <g transform="translate(16.770313 240.526098) scale(0.1 -0.1)">
       <use xlink:href="#DejaVuSans-2212"/>
       <use xlink:href="#DejaVuSans-31" x="83.789062"/>
       <use xlink:href="#DejaVuSans-37" x="147.412109"/>
       <use xlink:href="#DejaVuSans-35" x="211.035156"/>
       <use xlink:href="#DejaVuSans-30" x="274.658203"/>
      </g>
     </g>
    </g>
    <g id="ytick_4">
     <g id="line2d_25">
      <path d="M 57.6 204.629954 
L 414.72 204.629954 
" clip-path="url(#p1fb9f5ab7e)" style="fill: none; stroke: #b0b0b0; stroke-width: 0.8; stroke-linecap: square"/>
     </g>
     <g id="line2d_26">
      <g>
       <use xlink:href="#me4dfefc602" x="57.6" y="204.629954" style="stroke: #000000; stroke-width: 0.8"/>
      </g>
     </g>
     <g id="text_14">
      <!-- −1500 -->
      <g transform="translate(16.770313 208.429172) scale(0.1 -0.1)">
       <use xlink:href="#DejaVuSans-2212"/>
       <use xlink:href="#DejaVuSans-31" x="83.789062"/>
       <use xlink:href="#DejaVuSans-35" x="147.412109"/>
       <use xlink:href="#DejaVuSans-30" x="211.035156"/>
       <use xlink:href="#DejaVuSans-30" x="274.658203"/>
      </g>
     </g>
    </g>
    <g id="ytick_5">
     <g id="line2d_27">
      <path d="M 57.6 172.533028 
L 414.72 172.533028 
" clip-path="url(#p1fb9f5ab7e)" style="fill: none; stroke: #b0b0b0; stroke-width: 0.8; stroke-linecap: square"/>
     </g>
     <g id="line2d_28">
      <g>
       <use xlink:href="#me4dfefc602" x="57.6" y="172.533028" style="stroke: #000000; stroke-width: 0.8"/>
      </g>
     </g>
     <g id="text_15">
      <!-- −1250 -->
      <g transform="translate(16.770313 176.332247) scale(0.1 -0.1)">
       <use xlink:href="#DejaVuSans-2212"/>
       <use xlink:href="#DejaVuSans-31" x="83.789062"/>
       <use xlink:href="#DejaVuSans-32" x="147.412109"/>
       <use xlink:href="#DejaVuSans-35" x="211.035156"/>
       <use xlink:href="#DejaVuSans-30" x="274.658203"/>
      </g>
     </g>
    </g>
    <g id="ytick_6">
     <g id="line2d_29">
      <path d="M 57.6 140.436103 
L 414.72 140.436103 
" clip-path="url(#p1fb9f5ab7e)" style="fill: none; stroke: #b0b0b0; stroke-width: 0.8; stroke-linecap: square"/>
     </g>
     <g id="line2d_30">
      <g>
       <use xlink:href="#me4dfefc602" x="57.6" y="140.436103" style="stroke: #000000; stroke-width: 0.8"/>
      </g>
     </g>
     <g id="text_16">
      <!-- −1000 -->
      <g transform="translate(16.770313 144.235322) scale(0.1 -0.1)">
       <use xlink:href="#DejaVuSans-2212"/>
       <use xlink:href="#DejaVuSans-31" x="83.789062"/>
       <use xlink:href="#DejaVuSans-30" x="147.412109"/>
       <use xlink:href="#DejaVuSans-30" x="211.035156"/>
       <use xlink:href="#DejaVuSans-30" x="274.658203"/>
      </g>
     </g>
    </g>
    <g id="ytick_7">
     <g id="line2d_31">
      <path d="M 57.6 108.339178 
L 414.72 108.339178 
" clip-path="url(#p1fb9f5ab7e)" style="fill: none; stroke: #b0b0b0; stroke-width: 0.8; stroke-linecap: square"/>
     </g>
     <g id="line2d_32">
      <g>
       <use xlink:href="#me4dfefc602" x="57.6" y="108.339178" style="stroke: #000000; stroke-width: 0.8"/>
      </g>
     </g>
     <g id="text_17">
      <!-- −750 -->
      <g transform="translate(23.132812 112.138397) scale(0.1 -0.1)">
       <use xlink:href="#DejaVuSans-2212"/>
       <use xlink:href="#DejaVuSans-37" x="83.789062"/>
       <use xlink:href="#DejaVuSans-35" x="147.412109"/>
       <use xlink:href="#DejaVuSans-30" x="211.035156"/>
      </g>
     </g>
    </g>
    <g id="ytick_8">
     <g id="line2d_33">
      <path d="M 57.6 76.242253 
L 414.72 76.242253 
" clip-path="url(#p1fb9f5ab7e)" style="fill: none; stroke: #b0b0b0; stroke-width: 0.8; stroke-linecap: square"/>
     </g>
     <g id="line2d_34">
      <g>
       <use xlink:href="#me4dfefc602" x="57.6" y="76.242253" style="stroke: #000000; stroke-width: 0.8"/>
      </g>
     </g>
     <g id="text_18">
      <!-- −500 -->
      <g transform="translate(23.132812 80.041471) scale(0.1 -0.1)">
       <use xlink:href="#DejaVuSans-2212"/>
       <use xlink:href="#DejaVuSans-35" x="83.789062"/>
       <use xlink:href="#DejaVuSans-30" x="147.412109"/>
       <use xlink:href="#DejaVuSans-30" x="211.035156"/>
      </g>
     </g>
    </g>
    <g id="ytick_9">
     <g id="line2d_35">
      <path d="M 57.6 44.145327 
L 414.72 44.145327 
" clip-path="url(#p1fb9f5ab7e)" style="fill: none; stroke: #b0b0b0; stroke-width: 0.8; stroke-linecap: square"/>
     </g>
     <g id="line2d_36">
      <g>
       <use xlink:href="#me4dfefc602" x="57.6" y="44.145327" style="stroke: #000000; stroke-width: 0.8"/>
      </g>
     </g>
     <g id="text_19">
      <!-- −250 -->
      <g transform="translate(23.132812 47.944546) scale(0.1 -0.1)">
       <use xlink:href="#DejaVuSans-2212"/>
       <use xlink:href="#DejaVuSans-32" x="83.789062"/>
       <use xlink:href="#DejaVuSans-35" x="147.412109"/>
       <use xlink:href="#DejaVuSans-30" x="211.035156"/>
      </g>
     </g>
    </g>
    <g id="text_20">
     <!-- Fitness -->
     <g transform="translate(10.690625 191.845187) rotate(-90) scale(0.1 -0.1)">
      <defs>
       <path id="DejaVuSans-46" d="M 628 4666 
L 3309 4666 
L 3309 4134 
L 1259 4134 
L 1259 2759 
L 3109 2759 
L 3109 2228 
L 1259 2228 
L 1259 0 
L 628 0 
L 628 4666 
z
" transform="scale(0.015625)"/>
      </defs>
      <use xlink:href="#DejaVuSans-46"/>
      <use xlink:href="#DejaVuSans-69" x="50.269531"/>
      <use xlink:href="#DejaVuSans-74" x="78.052734"/>
      <use xlink:href="#DejaVuSans-6e" x="117.261719"/>
      <use xlink:href="#DejaVuSans-65" x="180.640625"/>
      <use xlink:href="#DejaVuSans-73" x="242.164062"/>
      <use xlink:href="#DejaVuSans-73" x="294.263672"/>
     </g>
    </g>
   </g>
   <g id="line2d_37">
    <path d="M 73.832727 261.159722 
L 75.464157 256.742799 
L 77.095587 258.909723 
L 78.727017 254.939066 
L 80.358447 252.412016 
L 81.989877 251.62294 
L 83.621307 250.599309 
L 85.252736 251.26281 
L 86.884166 250.29283 
L 88.515596 251.240419 
L 90.147026 248.811097 
L 91.778456 248.363286 
L 93.409886 249.677695 
L 95.041316 248.103938 
L 96.672746 251.870485 
L 99.935605 248.460344 
L 101.567035 250.084505 
L 103.198465 249.436395 
L 104.829895 249.924932 
L 106.461325 248.890103 
L 108.092755 249.579785 
L 109.724185 249.781515 
L 111.355614 249.798767 
L 112.987044 248.964694 
L 114.618474 247.290299 
L 116.249904 249.40612 
L 117.881334 249.141971 
L 119.512764 247.2205 
L 122.775624 247.830332 
L 124.407053 250.284677 
L 126.038483 249.996515 
L 127.669913 247.421926 
L 129.301343 249.68233 
L 130.932773 249.906618 
L 132.564203 249.61267 
L 134.195633 250.478861 
L 135.827063 248.278934 
L 137.458492 250.726889 
L 139.089922 248.557972 
L 140.721352 248.886848 
L 142.352782 250.139673 
L 143.984212 250.594993 
L 145.615642 250.540764 
L 147.247072 249.492824 
L 148.878502 251.72916 
L 150.509931 250.044709 
L 152.141361 250.911096 
L 153.772791 248.490968 
L 155.404221 247.674188 
L 157.035651 245.783683 
L 158.667081 247.41469 
L 160.298511 250.765749 
L 161.929941 250.857314 
L 163.56137 249.025674 
L 165.1928 247.382094 
L 166.82423 246.373023 
L 168.45566 247.610961 
L 170.08709 250.504442 
L 171.71852 249.552693 
L 173.34995 249.617087 
L 174.98138 248.228405 
L 176.61281 250.483718 
L 178.244239 248.714873 
L 179.875669 248.978253 
L 181.507099 247.289201 
L 183.138529 245.849345 
L 184.769959 246.439733 
L 186.401389 247.569078 
L 188.032819 246.250899 
L 189.664249 248.590768 
L 191.295678 248.273598 
L 192.927108 247.0331 
L 196.189968 246.187328 
L 197.821398 247.167959 
L 199.452828 247.666257 
L 201.084258 248.556927 
L 202.715688 244.253456 
L 204.347117 249.159666 
L 205.978547 249.822067 
L 207.609977 249.802657 
L 209.241407 246.297042 
L 210.872837 245.911991 
L 212.504267 246.517729 
L 214.135697 242.697504 
L 215.767127 245.260578 
L 217.398556 245.997658 
L 219.029986 245.666668 
L 220.661416 246.314584 
L 223.924276 249.372152 
L 227.187136 244.530846 
L 228.818566 241.938001 
L 230.449995 248.218329 
L 232.081425 245.454383 
L 233.712855 248.215838 
L 235.344285 245.76933 
L 236.975715 248.525514 
L 238.607145 238.617385 
L 240.238575 243.551132 
L 241.870005 245.823034 
L 243.501434 246.629712 
L 245.132864 247.976434 
L 246.764294 248.567424 
L 248.395724 250.145005 
L 250.027154 252.010057 
L 251.658584 246.353791 
L 253.290014 248.200874 
L 254.921444 250.247721 
L 256.552873 247.048302 
L 258.184303 249.089009 
L 259.815733 249.845175 
L 263.078593 245.950798 
L 264.710023 249.098216 
L 266.341453 248.706061 
L 267.972883 246.826484 
L 269.604312 247.658191 
L 271.235742 248.123504 
L 272.867172 246.726765 
L 274.498602 249.338221 
L 276.130032 248.939892 
L 277.761462 248.158313 
L 279.392892 248.947355 
L 281.024322 248.215061 
L 282.655751 247.152438 
L 284.287181 247.336805 
L 285.918611 248.338429 
L 287.550041 244.665677 
L 290.812901 247.32966 
L 292.444331 247.430871 
L 294.075761 243.965112 
L 295.70719 248.811581 
L 297.33862 249.529388 
L 298.97005 250.667072 
L 300.60148 249.577325 
L 302.23291 250.341893 
L 303.86434 248.010434 
L 305.49577 250.073512 
L 307.1272 247.649118 
L 308.75863 248.528766 
L 310.390059 250.331899 
L 312.021489 250.817133 
L 313.652919 250.779155 
L 315.284349 251.058473 
L 316.915779 250.381316 
L 318.547209 252.220817 
L 320.178639 249.719695 
L 321.810069 248.123324 
L 323.441498 250.381973 
L 325.072928 248.462039 
L 326.704358 249.016507 
L 328.335788 248.038782 
L 329.967218 249.048989 
L 331.598648 249.797992 
L 333.230078 250.083511 
L 336.492937 248.613499 
L 338.124367 248.987149 
L 339.755797 247.195039 
L 341.387227 249.014787 
L 343.018657 249.707743 
L 344.650087 249.258777 
L 346.281517 250.164582 
L 347.912947 249.55567 
L 349.544376 249.182608 
L 351.175806 248.677812 
L 352.807236 249.017185 
L 354.438666 248.117183 
L 356.070096 249.353832 
L 359.332956 245.804107 
L 360.964386 248.75017 
L 362.595815 253.167599 
L 364.227245 248.517213 
L 365.858675 251.110369 
L 367.490105 249.966666 
L 369.121535 250.34259 
L 370.752965 248.76823 
L 372.384395 249.520181 
L 374.015825 246.893009 
L 375.647254 248.965373 
L 377.278684 247.872883 
L 378.910114 248.758696 
L 380.541544 249.505191 
L 382.172974 249.08777 
L 383.804404 250.870724 
L 385.435834 249.332996 
L 387.067264 248.423575 
L 388.698693 249.032423 
L 390.330123 248.751555 
L 391.961553 248.897784 
L 393.592983 245.872112 
L 395.224413 248.501849 
L 396.855843 250.53175 
L 398.487273 250.845463 
L 398.487273 250.845463 
" clip-path="url(#p1fb9f5ab7e)" style="fill: none; stroke: #0000ff; stroke-width: 1.5; stroke-linecap: square"/>
   </g>
   <g id="line2d_38">
    <path d="M 73.832727 285.287335 
L 75.464157 288.261038 
L 77.095587 282.978665 
L 78.727017 278.849366 
L 80.358447 283.520867 
L 81.989877 280.938914 
L 83.621307 278.854641 
L 85.252736 280.057109 
L 86.884166 279.960604 
L 88.515596 280.438577 
L 90.147026 281.270043 
L 91.778456 278.939165 
L 95.041316 281.215472 
L 96.672746 282.210938 
L 98.304175 281.081944 
L 101.567035 282.819818 
L 103.198465 281.351733 
L 104.829895 282.690761 
L 106.461325 280.058546 
L 108.092755 282.092744 
L 109.724185 282.918214 
L 111.355614 282.279876 
L 112.987044 284.402849 
L 114.618474 284.021133 
L 116.249904 287.740949 
L 117.881334 284.625042 
L 119.512764 284.721387 
L 121.144194 283.170056 
L 124.407053 283.144339 
L 126.038483 283.995971 
L 127.669913 281.25193 
L 129.301343 283.301574 
L 130.932773 282.489521 
L 132.564203 282.803948 
L 134.195633 283.30184 
L 135.827063 284.228774 
L 137.458492 284.509458 
L 139.089922 282.698324 
L 140.721352 282.939128 
L 142.352782 277.584594 
L 143.984212 278.934869 
L 145.615642 279.57081 
L 147.247072 279.457212 
L 148.878502 280.710255 
L 150.509931 278.549475 
L 152.141361 279.242015 
L 153.772791 280.637237 
L 155.404221 285.497907 
L 157.035651 284.880032 
L 158.667081 286.185495 
L 160.298511 285.081532 
L 161.929941 284.798492 
L 163.56137 282.30695 
L 165.1928 286.2354 
L 166.82423 286.804551 
L 168.45566 289.214995 
L 170.08709 285.596975 
L 171.71852 284.004891 
L 173.34995 283.977609 
L 174.98138 286.207927 
L 176.61281 285.181776 
L 178.244239 284.885407 
L 179.875669 282.995629 
L 181.507099 284.406957 
L 183.138529 285.118495 
L 184.769959 283.715063 
L 186.401389 285.931843 
L 188.032819 286.136605 
L 189.664249 287.957274 
L 191.295678 284.9345 
L 192.927108 285.83354 
L 194.558538 284.042457 
L 196.189968 288.175969 
L 197.821398 288.31956 
L 199.452828 288.34692 
L 201.084258 290.75636 
L 202.715688 288.807726 
L 204.347117 289.060999 
L 205.978547 289.901022 
L 207.609977 289.831135 
L 209.241407 290.288056 
L 210.872837 289.145185 
L 212.504267 291.565578 
L 214.135697 288.16769 
L 215.767127 291.164614 
L 217.398556 290.003376 
L 219.029986 288.364706 
L 220.661416 286.173906 
L 222.292846 288.590886 
L 223.924276 290.125838 
L 225.555706 289.301546 
L 227.187136 290.258693 
L 228.818566 287.124003 
L 230.449995 287.909542 
L 232.081425 285.5833 
L 233.712855 288.441249 
L 235.344285 289.927668 
L 236.975715 288.824114 
L 238.607145 295.488 
L 240.238575 291.8139 
L 241.870005 287.619703 
L 243.501434 287.496653 
L 245.132864 289.127936 
L 246.764294 288.134413 
L 248.395724 285.509119 
L 250.027154 288.020072 
L 251.658584 286.067318 
L 253.290014 285.749139 
L 254.921444 285.749982 
L 256.552873 291.434822 
L 258.184303 285.166106 
L 259.815733 284.908724 
L 261.447163 284.182542 
L 263.078593 284.585792 
L 264.710023 284.601721 
L 266.341453 288.666103 
L 267.972883 286.362001 
L 269.604312 289.561957 
L 271.235742 288.871644 
L 272.867172 286.18272 
L 274.498602 284.258637 
L 276.130032 286.602846 
L 277.761462 283.970745 
L 279.392892 284.148764 
L 281.024322 283.50266 
L 282.655751 281.646775 
L 284.287181 284.599107 
L 285.918611 286.195801 
L 287.550041 287.295909 
L 289.181471 287.227736 
L 290.812901 283.766638 
L 294.075761 283.765289 
L 295.70719 280.791575 
L 297.33862 281.667091 
L 298.97005 282.983274 
L 300.60148 285.967577 
L 303.86434 285.099245 
L 305.49577 286.712096 
L 307.1272 287.081698 
L 308.75863 282.097752 
L 310.390059 278.156861 
L 312.021489 279.426582 
L 313.652919 279.146974 
L 315.284349 279.947092 
L 316.915779 278.836382 
L 318.547209 280.275006 
L 320.178639 277.659044 
L 321.810069 281.274789 
L 323.441498 277.434905 
L 325.072928 278.211947 
L 326.704358 280.212523 
L 328.335788 284.458042 
L 329.967218 279.936274 
L 331.598648 280.223011 
L 333.230078 280.657795 
L 334.861508 280.140429 
L 336.492937 278.654331 
L 338.124367 278.998601 
L 339.755797 279.962808 
L 341.387227 282.05052 
L 343.018657 282.426792 
L 344.650087 281.019512 
L 346.281517 281.380733 
L 347.912947 279.63178 
L 349.544376 280.943041 
L 351.175806 279.601896 
L 352.807236 281.13772 
L 354.438666 283.262968 
L 356.070096 281.30065 
L 357.701526 281.327619 
L 360.964386 284.324054 
L 362.595815 287.641199 
L 364.227245 283.640071 
L 365.858675 284.369647 
L 367.490105 282.118945 
L 369.121535 283.435384 
L 370.752965 282.072374 
L 372.384395 281.808462 
L 374.015825 279.672063 
L 375.647254 281.288817 
L 377.278684 285.713243 
L 380.541544 282.373642 
L 382.172974 282.406213 
L 383.804404 285.648274 
L 385.435834 282.478313 
L 387.067264 281.162162 
L 388.698693 281.754241 
L 391.961553 283.362998 
L 393.592983 281.441633 
L 395.224413 282.402946 
L 398.487273 282.44343 
L 398.487273 282.44343 
" clip-path="url(#p1fb9f5ab7e)" style="fill: none; stroke-dasharray: 9.6,2.4,1.5,2.4; stroke-dashoffset: 0; stroke: #008000; stroke-width: 1.5"/>
   </g>
   <g id="line2d_39">
    <path d="M 73.832727 237.032108 
L 75.464157 225.224561 
L 77.095587 234.840781 
L 78.727017 231.028766 
L 80.358447 221.303164 
L 81.989877 222.306966 
L 85.252736 222.468511 
L 86.884166 220.625057 
L 88.515596 222.042262 
L 90.147026 216.352152 
L 93.409886 219.276771 
L 95.041316 214.992404 
L 96.672746 221.530031 
L 98.304175 219.1883 
L 99.935605 214.963777 
L 101.567035 217.349192 
L 103.198465 217.521057 
L 104.829895 217.159103 
L 106.461325 217.72166 
L 108.092755 217.066826 
L 109.724185 216.644815 
L 111.355614 217.317659 
L 112.987044 213.526539 
L 114.618474 210.559464 
L 116.249904 211.071291 
L 117.881334 213.658901 
L 119.512764 209.719613 
L 121.144194 211.838135 
L 122.775624 212.474593 
L 124.407053 217.425016 
L 126.038483 215.997059 
L 127.669913 213.591922 
L 129.301343 216.063085 
L 130.932773 217.323716 
L 132.564203 216.421392 
L 134.195633 217.655881 
L 135.827063 212.329093 
L 137.458492 216.944321 
L 139.089922 214.417619 
L 140.721352 214.834569 
L 142.352782 222.694752 
L 143.984212 222.255116 
L 145.615642 221.510718 
L 147.247072 219.528436 
L 148.878502 222.748066 
L 150.509931 221.539944 
L 152.141361 222.580178 
L 155.404221 209.85047 
L 157.035651 206.687333 
L 158.667081 208.643885 
L 160.298511 216.449966 
L 161.929941 216.916136 
L 163.56137 215.744399 
L 165.1928 208.528787 
L 166.82423 205.941494 
L 168.45566 206.006926 
L 170.08709 215.411908 
L 171.71852 215.100495 
L 173.34995 215.256564 
L 174.98138 210.248883 
L 176.61281 215.78566 
L 178.244239 212.54434 
L 179.875669 214.960876 
L 181.507099 210.171444 
L 183.138529 206.580195 
L 184.769959 209.164404 
L 186.401389 209.206314 
L 188.032819 206.365193 
L 189.664249 209.224263 
L 191.295678 211.612697 
L 192.927108 208.23266 
L 194.558538 209.175486 
L 196.189968 204.198687 
L 197.821398 206.016359 
L 199.452828 206.985593 
L 201.084258 206.357494 
L 202.715688 199.699187 
L 204.347117 209.258332 
L 205.978547 209.743113 
L 207.609977 209.774178 
L 209.241407 202.306029 
L 210.872837 202.678798 
L 212.504267 201.469881 
L 214.135697 197.227319 
L 215.767127 199.356542 
L 217.398556 201.991939 
L 219.029986 202.968629 
L 220.661416 206.455262 
L 222.292846 207.004203 
L 223.924276 208.618466 
L 225.555706 204.627067 
L 227.187136 198.802998 
L 228.818566 196.751998 
L 230.449995 208.527116 
L 232.081425 205.325466 
L 233.712855 207.990428 
L 235.344285 201.610992 
L 236.975715 208.226913 
L 238.607145 181.746771 
L 240.238575 195.288364 
L 241.870005 204.026366 
L 243.501434 205.762771 
L 245.132864 206.824931 
L 246.764294 209.000435 
L 248.395724 214.780891 
L 250.027154 216.000042 
L 251.658584 206.640263 
L 254.921444 214.745461 
L 256.552873 202.661782 
L 258.184303 213.011912 
L 259.815733 214.781626 
L 261.447163 211.608291 
L 263.078593 207.315803 
L 264.710023 213.59471 
L 266.341453 208.746018 
L 269.604312 205.754425 
L 271.235742 207.375365 
L 272.867172 207.270811 
L 274.498602 214.417806 
L 276.130032 211.276938 
L 277.761462 212.345881 
L 279.392892 213.745947 
L 281.024322 212.927462 
L 282.655751 212.6581 
L 284.287181 210.074503 
L 285.918611 210.481057 
L 287.550041 202.035444 
L 289.181471 204.731757 
L 290.812901 210.892682 
L 292.444331 211.150769 
L 294.075761 204.164934 
L 295.70719 216.831587 
L 297.33862 217.391686 
L 298.97005 218.350869 
L 300.60148 213.187074 
L 302.23291 215.164272 
L 303.86434 210.921624 
L 305.49577 213.434928 
L 307.1272 208.216539 
L 308.75863 214.959781 
L 310.390059 222.506937 
L 312.021489 222.207683 
L 313.652919 222.411337 
L 316.915779 221.926249 
L 318.547209 224.166628 
L 320.178639 221.780347 
L 321.810069 214.971859 
L 323.441498 223.32904 
L 325.072928 218.712131 
L 326.704358 217.820491 
L 328.335788 211.619521 
L 329.967218 218.161704 
L 331.598648 219.372974 
L 333.230078 219.509226 
L 334.861508 218.550984 
L 336.492937 218.572667 
L 338.124367 218.975697 
L 339.755797 214.42727 
L 341.387227 215.979053 
L 343.018657 216.988693 
L 344.650087 217.498042 
L 346.281517 218.948431 
L 347.912947 219.47956 
L 349.544376 217.422175 
L 351.175806 217.753728 
L 352.807236 216.89665 
L 354.438666 212.971398 
L 356.070096 217.407014 
L 357.701526 213.887257 
L 359.332956 208.768705 
L 360.964386 213.176286 
L 362.595815 218.693999 
L 364.227245 213.394356 
L 365.858675 217.851091 
L 367.490105 217.814387 
L 369.121535 217.249796 
L 370.752965 215.464086 
L 372.384395 217.231901 
L 374.015825 214.113955 
L 375.647254 216.64193 
L 377.278684 210.032523 
L 378.910114 213.54568 
L 380.541544 216.636741 
L 382.172974 215.769327 
L 383.804404 216.093173 
L 385.435834 216.187678 
L 387.067264 215.684988 
L 388.698693 216.310605 
L 390.330123 214.903871 
L 391.961553 214.432571 
L 393.592983 210.302591 
L 396.855843 218.599423 
L 398.487273 219.247496 
L 398.487273 219.247496 
" clip-path="url(#p1fb9f5ab7e)" style="fill: none; stroke-dasharray: 9.6,2.4,1.5,2.4; stroke-dashoffset: 0; stroke: #008000; stroke-width: 1.5"/>
   </g>
   <g id="line2d_40">
    <path d="M 73.832727 59.514907 
L 165.1928 59.514907 
L 166.82423 53.568 
L 398.487273 53.568 
L 398.487273 53.568 
" clip-path="url(#p1fb9f5ab7e)" style="fill: none; stroke: #ff0000; stroke-width: 1.5; stroke-linecap: square"/>
   </g>
   <g id="patch_3">
    <path d="M 57.6 307.584 
L 57.6 41.472 
" style="fill: none; stroke: #000000; stroke-width: 0.8; stroke-linejoin: miter; stroke-linecap: square"/>
   </g>
   <g id="patch_4">
    <path d="M 414.72 307.584 
L 414.72 41.472 
" style="fill: none; stroke: #000000; stroke-width: 0.8; stroke-linejoin: miter; stroke-linecap: square"/>
   </g>
   <g id="patch_5">
    <path d="M 57.6 307.584 
L 414.72 307.584 
" style="fill: none; stroke: #000000; stroke-width: 0.8; stroke-linejoin: miter; stroke-linecap: square"/>
   </g>
   <g id="patch_6">
    <path d="M 57.6 41.472 
L 414.72 41.472 
" style="fill: none; stroke: #000000; stroke-width: 0.8; stroke-linejoin: miter; stroke-linecap: square"/>
   </g>
   <g id="text_21">
    <!-- Population's average and best fitness -->
    <g transform="translate(123.529687 35.472) scale(0.12 -0.12)">
     <defs>
      <path id="DejaVuSans-50" d="M 1259 4147 
L 1259 2394 
L 2053 2394 
Q 2494 2394 2734 2622 
Q 2975 2850 2975 3272 
Q 2975 3691 2734 3919 
Q 2494 4147 2053 4147 
L 1259 4147 
z
M 628 4666 
L 2053 4666 
Q 2838 4666 3239 4311 
Q 3641 3956 3641 3272 
Q 3641 2581 3239 2228 
Q 2838 1875 2053 1875 
L 1259 1875 
L 1259 0 
L 628 0 
L 628 4666 
z
" transform="scale(0.015625)"/>
      <path id="DejaVuSans-70" d="M 1159 525 
L 1159 -1331 
L 581 -1331 
L 581 3500 
L 1159 3500 
L 1159 2969 
Q 1341 3281 1617 3432 
Q 1894 3584 2278 3584 
Q 2916 3584 3314 3078 
Q 3713 2572 3713 1747 
Q 3713 922 3314 415 
Q 2916 -91 2278 -91 
Q 1894 -91 1617 61 
Q 1341 213 1159 525 
z
M 3116 1747 
Q 3116 2381 2855 2742 
Q 2594 3103 2138 3103 
Q 1681 3103 1420 2742 
Q 1159 2381 1159 1747 
Q 1159 1113 1420 752 
Q 1681 391 2138 391 
Q 2594 391 2855 752 
Q 3116 1113 3116 1747 
z
" transform="scale(0.015625)"/>
      <path id="DejaVuSans-75" d="M 544 1381 
L 544 3500 
L 1119 3500 
L 1119 1403 
Q 1119 906 1312 657 
Q 1506 409 1894 409 
Q 2359 409 2629 706 
Q 2900 1003 2900 1516 
L 2900 3500 
L 3475 3500 
L 3475 0 
L 2900 0 
L 2900 538 
Q 2691 219 2414 64 
Q 2138 -91 1772 -91 
Q 1169 -91 856 284 
Q 544 659 544 1381 
z
M 1991 3584 
L 1991 3584 
z
" transform="scale(0.015625)"/>
      <path id="DejaVuSans-6c" d="M 603 4863 
L 1178 4863 
L 1178 0 
L 603 0 
L 603 4863 
z
" transform="scale(0.015625)"/>
      <path id="DejaVuSans-27" d="M 1147 4666 
L 1147 2931 
L 616 2931 
L 616 4666 
L 1147 4666 
z
" transform="scale(0.015625)"/>
      <path id="DejaVuSans-20" transform="scale(0.015625)"/>
      <path id="DejaVuSans-76" d="M 191 3500 
L 800 3500 
L 1894 563 
L 2988 3500 
L 3597 3500 
L 2284 0 
L 1503 0 
L 191 3500 
z
" transform="scale(0.015625)"/>
      <path id="DejaVuSans-67" d="M 2906 1791 
Q 2906 2416 2648 2759 
Q 2391 3103 1925 3103 
Q 1463 3103 1205 2759 
Q 947 2416 947 1791 
Q 947 1169 1205 825 
Q 1463 481 1925 481 
Q 2391 481 2648 825 
Q 2906 1169 2906 1791 
z
M 3481 434 
Q 3481 -459 3084 -895 
Q 2688 -1331 1869 -1331 
Q 1566 -1331 1297 -1286 
Q 1028 -1241 775 -1147 
L 775 -588 
Q 1028 -725 1275 -790 
Q 1522 -856 1778 -856 
Q 2344 -856 2625 -561 
Q 2906 -266 2906 331 
L 2906 616 
Q 2728 306 2450 153 
Q 2172 0 1784 0 
Q 1141 0 747 490 
Q 353 981 353 1791 
Q 353 2603 747 3093 
Q 1141 3584 1784 3584 
Q 2172 3584 2450 3431 
Q 2728 3278 2906 2969 
L 2906 3500 
L 3481 3500 
L 3481 434 
z
" transform="scale(0.015625)"/>
      <path id="DejaVuSans-64" d="M 2906 2969 
L 2906 4863 
L 3481 4863 
L 3481 0 
L 2906 0 
L 2906 525 
Q 2725 213 2448 61 
Q 2172 -91 1784 -91 
Q 1150 -91 751 415 
Q 353 922 353 1747 
Q 353 2572 751 3078 
Q 1150 3584 1784 3584 
Q 2172 3584 2448 3432 
Q 2725 3281 2906 2969 
z
M 947 1747 
Q 947 1113 1208 752 
Q 1469 391 1925 391 
Q 2381 391 2643 752 
Q 2906 1113 2906 1747 
Q 2906 2381 2643 2742 
Q 2381 3103 1925 3103 
Q 1469 3103 1208 2742 
Q 947 2381 947 1747 
z
" transform="scale(0.015625)"/>
      <path id="DejaVuSans-62" d="M 3116 1747 
Q 3116 2381 2855 2742 
Q 2594 3103 2138 3103 
Q 1681 3103 1420 2742 
Q 1159 2381 1159 1747 
Q 1159 1113 1420 752 
Q 1681 391 2138 391 
Q 2594 391 2855 752 
Q 3116 1113 3116 1747 
z
M 1159 2969 
Q 1341 3281 1617 3432 
Q 1894 3584 2278 3584 
Q 2916 3584 3314 3078 
Q 3713 2572 3713 1747 
Q 3713 922 3314 415 
Q 2916 -91 2278 -91 
Q 1894 -91 1617 61 
Q 1341 213 1159 525 
L 1159 0 
L 581 0 
L 581 4863 
L 1159 4863 
L 1159 2969 
z
" transform="scale(0.015625)"/>
      <path id="DejaVuSans-66" d="M 2375 4863 
L 2375 4384 
L 1825 4384 
Q 1516 4384 1395 4259 
Q 1275 4134 1275 3809 
L 1275 3500 
L 2222 3500 
L 2222 3053 
L 1275 3053 
L 1275 0 
L 697 0 
L 697 3053 
L 147 3053 
L 147 3500 
L 697 3500 
L 697 3744 
Q 697 4328 969 4595 
Q 1241 4863 1831 4863 
L 2375 4863 
z
" transform="scale(0.015625)"/>
     </defs>
     <use xlink:href="#DejaVuSans-50"/>
     <use xlink:href="#DejaVuSans-6f" x="56.677734"/>
     <use xlink:href="#DejaVuSans-70" x="117.859375"/>
     <use xlink:href="#DejaVuSans-75" x="181.335938"/>
     <use xlink:href="#DejaVuSans-6c" x="244.714844"/>
     <use xlink:href="#DejaVuSans-61" x="272.498047"/>
     <use xlink:href="#DejaVuSans-74" x="333.777344"/>
     <use xlink:href="#DejaVuSans-69" x="372.986328"/>
     <use xlink:href="#DejaVuSans-6f" x="400.769531"/>
     <use xlink:href="#DejaVuSans-6e" x="461.951172"/>
     <use xlink:href="#DejaVuSans-27" x="525.330078"/>
     <use xlink:href="#DejaVuSans-73" x="552.820312"/>
     <use xlink:href="#DejaVuSans-20" x="604.919922"/>
     <use xlink:href="#DejaVuSans-61" x="636.707031"/>
     <use xlink:href="#DejaVuSans-76" x="697.986328"/>
     <use xlink:href="#DejaVuSans-65" x="757.166016"/>
     <use xlink:href="#DejaVuSans-72" x="818.689453"/>
     <use xlink:href="#DejaVuSans-61" x="859.802734"/>
     <use xlink:href="#DejaVuSans-67" x="921.082031"/>
     <use xlink:href="#DejaVuSans-65" x="984.558594"/>
     <use xlink:href="#DejaVuSans-20" x="1046.082031"/>
     <use xlink:href="#DejaVuSans-61" x="1077.869141"/>
     <use xlink:href="#DejaVuSans-6e" x="1139.148438"/>
     <use xlink:href="#DejaVuSans-64" x="1202.527344"/>
     <use xlink:href="#DejaVuSans-20" x="1266.003906"/>
     <use xlink:href="#DejaVuSans-62" x="1297.791016"/>
     <use xlink:href="#DejaVuSans-65" x="1361.267578"/>
     <use xlink:href="#DejaVuSans-73" x="1422.791016"/>
     <use xlink:href="#DejaVuSans-74" x="1474.890625"/>
     <use xlink:href="#DejaVuSans-20" x="1514.099609"/>
     <use xlink:href="#DejaVuSans-66" x="1545.886719"/>
     <use xlink:href="#DejaVuSans-69" x="1581.091797"/>
     <use xlink:href="#DejaVuSans-74" x="1608.875"/>
     <use xlink:href="#DejaVuSans-6e" x="1648.083984"/>
     <use xlink:href="#DejaVuSans-65" x="1711.462891"/>
     <use xlink:href="#DejaVuSans-73" x="1772.986328"/>
     <use xlink:href="#DejaVuSans-73" x="1825.085938"/>
    </g>
   </g>
   <g id="legend_1">
    <g id="patch_7">
     <path d="M 334.779375 205.38425 
L 407.72 205.38425 
Q 409.72 205.38425 409.72 203.38425 
L 409.72 145.67175 
Q 409.72 143.67175 407.72 143.67175 
L 334.779375 143.67175 
Q 332.779375 143.67175 332.779375 145.67175 
L 332.779375 203.38425 
Q 332.779375 205.38425 334.779375 205.38425 
z
" style="fill: #ffffff; opacity: 0.8; stroke: #cccccc; stroke-linejoin: miter"/>
    </g>
    <g id="line2d_41">
     <path d="M 336.779375 151.770188 
L 346.779375 151.770188 
L 356.779375 151.770188 
" style="fill: none; stroke: #0000ff; stroke-width: 1.5; stroke-linecap: square"/>
    </g>
    <g id="text_22">
     <!-- average -->
     <g transform="translate(364.779375 155.270188) scale(0.1 -0.1)">
      <use xlink:href="#DejaVuSans-61"/>
      <use xlink:href="#DejaVuSans-76" x="61.279297"/>
      <use xlink:href="#DejaVuSans-65" x="120.458984"/>
      <use xlink:href="#DejaVuSans-72" x="181.982422"/>
      <use xlink:href="#DejaVuSans-61" x="223.095703"/>
      <use xlink:href="#DejaVuSans-67" x="284.375"/>
      <use xlink:href="#DejaVuSans-65" x="347.851562"/>
     </g>
    </g>
    <g id="line2d_42">
     <path d="M 336.779375 166.448313 
L 346.779375 166.448313 
L 356.779375 166.448313 
" style="fill: none; stroke-dasharray: 9.6,2.4,1.5,2.4; stroke-dashoffset: 0; stroke: #008000; stroke-width: 1.5"/>
    </g>
    <g id="text_23">
     <!-- -1 sd -->
     <g transform="translate(364.779375 169.948313) scale(0.1 -0.1)">
      <defs>
       <path id="DejaVuSans-2d" d="M 313 2009 
L 1997 2009 
L 1997 1497 
L 313 1497 
L 313 2009 
z
" transform="scale(0.015625)"/>
      </defs>
      <use xlink:href="#DejaVuSans-2d"/>
      <use xlink:href="#DejaVuSans-31" x="36.083984"/>
      <use xlink:href="#DejaVuSans-20" x="99.707031"/>
      <use xlink:href="#DejaVuSans-73" x="131.494141"/>
      <use xlink:href="#DejaVuSans-64" x="183.59375"/>
     </g>
    </g>
    <g id="line2d_43">
     <path d="M 336.779375 181.126438 
L 346.779375 181.126438 
L 356.779375 181.126438 
" style="fill: none; stroke-dasharray: 9.6,2.4,1.5,2.4; stroke-dashoffset: 0; stroke: #008000; stroke-width: 1.5"/>
    </g>
    <g id="text_24">
     <!-- +1 sd -->
     <g transform="translate(364.779375 184.626438) scale(0.1 -0.1)">
      <defs>
       <path id="DejaVuSans-2b" d="M 2944 4013 
L 2944 2272 
L 4684 2272 
L 4684 1741 
L 2944 1741 
L 2944 0 
L 2419 0 
L 2419 1741 
L 678 1741 
L 678 2272 
L 2419 2272 
L 2419 4013 
L 2944 4013 
z
" transform="scale(0.015625)"/>
      </defs>
      <use xlink:href="#DejaVuSans-2b"/>
      <use xlink:href="#DejaVuSans-31" x="83.789062"/>
      <use xlink:href="#DejaVuSans-20" x="147.412109"/>
      <use xlink:href="#DejaVuSans-73" x="179.199219"/>
      <use xlink:href="#DejaVuSans-64" x="231.298828"/>
     </g>
    </g>
    <g id="line2d_44">
     <path d="M 336.779375 195.804563 
L 346.779375 195.804563 
L 356.779375 195.804563 
" style="fill: none; stroke: #ff0000; stroke-width: 1.5; stroke-linecap: square"/>
    </g>
    <g id="text_25">
     <!-- best -->
     <g transform="translate(364.779375 199.304563) scale(0.1 -0.1)">
      <use xlink:href="#DejaVuSans-62"/>
      <use xlink:href="#DejaVuSans-65" x="63.476562"/>
      <use xlink:href="#DejaVuSans-73" x="125"/>
      <use xlink:href="#DejaVuSans-74" x="177.099609"/>
     </g>
    </g>
   </g>
  </g>
 </g>
 <defs>
  <clipPath id="p1fb9f5ab7e">
   <rect x="57.6" y="41.472" width="357.12" height="266.112"/>
  </clipPath>
 </defs>
</svg>
