<?xml version="1.0" encoding="utf-8" standalone="no"?>
<!DOCTYPE svg PUBLIC "-//W3C//DTD SVG 1.1//EN"
  "http://www.w3.org/Graphics/SVG/1.1/DTD/svg11.dtd">
<svg xmlns:xlink="http://www.w3.org/1999/xlink" width="460.8pt" height="345.6pt" viewBox="0 0 460.8 345.6" xmlns="http://www.w3.org/2000/svg" version="1.1">
 <metadata>
  <rdf:RDF xmlns:dc="http://purl.org/dc/elements/1.1/" xmlns:cc="http://creativecommons.org/ns#" xmlns:rdf="http://www.w3.org/1999/02/22-rdf-syntax-ns#">
   <cc:Work>
    <dc:type rdf:resource="http://purl.org/dc/dcmitype/StillImage"/>
    <dc:date>2024-08-03T14:49:03.791249</dc:date>
    <dc:format>image/svg+xml</dc:format>
    <dc:creator>
     <cc:Agent>
      <dc:title>Matplotlib v3.8.4, https://matplotlib.org/</dc:title>
     </cc:Agent>
    </dc:creator>
   </cc:Work>
  </rdf:RDF>
 </metadata>
 <defs>
  <style type="text/css">*{stroke-linejoin: round; stroke-linecap: butt}</style>
 </defs>
 <g id="figure_1">
  <g id="patch_1">
   <path d="M 0 345.6 
L 460.8 345.6 
L 460.8 0 
L 0 0 
z
" style="fill: #ffffff"/>
  </g>
  <g id="axes_1">
   <g id="patch_2">
    <path d="M 57.6 307.584 
L 414.72 307.584 
L 414.72 41.472 
L 57.6 41.472 
z
" style="fill: #ffffff"/>
   </g>
   <g id="matplotlib.axis_1">
    <g id="xtick_1">
     <g id="line2d_1">
      <path d="M 73.832727 307.584 
L 73.832727 41.472 
" clip-path="url(#pe0853c925a)" style="fill: none; stroke: #b0b0b0; stroke-width: 0.8; stroke-linecap: square"/>
     </g>
     <g id="line2d_2">
      <defs>
       <path id="m86b07d11d8" d="M 0 0 
L 0 3.5 
" style="stroke: #000000; stroke-width: 0.8"/>
      </defs>
      <g>
       <use xlink:href="#m86b07d11d8" x="73.832727" y="307.584" style="stroke: #000000; stroke-width: 0.8"/>
      </g>
     </g>
     <g id="text_1">
      <!-- 0 -->
      <g transform="translate(70.651477 322.182437) scale(0.1 -0.1)">
       <defs>
        <path id="DejaVuSans-30" d="M 2034 4250 
Q 1547 4250 1301 3770 
Q 1056 3291 1056 2328 
Q 1056 1369 1301 889 
Q 1547 409 2034 409 
Q 2525 409 2770 889 
Q 3016 1369 3016 2328 
Q 3016 3291 2770 3770 
Q 2525 4250 2034 4250 
z
M 2034 4750 
Q 2819 4750 3233 4129 
Q 3647 3509 3647 2328 
Q 3647 1150 3233 529 
Q 2819 -91 2034 -91 
Q 1250 -91 836 529 
Q 422 1150 422 2328 
Q 422 3509 836 4129 
Q 1250 4750 2034 4750 
z
" transform="scale(0.015625)"/>
       </defs>
       <use xlink:href="#DejaVuSans-30"/>
      </g>
     </g>
    </g>
    <g id="xtick_2">
     <g id="line2d_3">
      <path d="M 114.618474 307.584 
L 114.618474 41.472 
" clip-path="url(#pe0853c925a)" style="fill: none; stroke: #b0b0b0; stroke-width: 0.8; stroke-linecap: square"/>
     </g>
     <g id="line2d_4">
      <g>
       <use xlink:href="#m86b07d11d8" x="114.618474" y="307.584" style="stroke: #000000; stroke-width: 0.8"/>
      </g>
     </g>
     <g id="text_2">
      <!-- 25 -->
      <g transform="translate(108.255974 322.182437) scale(0.1 -0.1)">
       <defs>
        <path id="DejaVuSans-32" d="M 1228 531 
L 3431 531 
L 3431 0 
L 469 0 
L 469 531 
Q 828 903 1448 1529 
Q 2069 2156 2228 2338 
Q 2531 2678 2651 2914 
Q 2772 3150 2772 3378 
Q 2772 3750 2511 3984 
Q 2250 4219 1831 4219 
Q 1534 4219 1204 4116 
Q 875 4013 500 3803 
L 500 4441 
Q 881 4594 1212 4672 
Q 1544 4750 1819 4750 
Q 2544 4750 2975 4387 
Q 3406 4025 3406 3419 
Q 3406 3131 3298 2873 
Q 3191 2616 2906 2266 
Q 2828 2175 2409 1742 
Q 1991 1309 1228 531 
z
" transform="scale(0.015625)"/>
        <path id="DejaVuSans-35" d="M 691 4666 
L 3169 4666 
L 3169 4134 
L 1269 4134 
L 1269 2991 
Q 1406 3038 1543 3061 
Q 1681 3084 1819 3084 
Q 2600 3084 3056 2656 
Q 3513 2228 3513 1497 
Q 3513 744 3044 326 
Q 2575 -91 1722 -91 
Q 1428 -91 1123 -41 
Q 819 9 494 109 
L 494 744 
Q 775 591 1075 516 
Q 1375 441 1709 441 
Q 2250 441 2565 725 
Q 2881 1009 2881 1497 
Q 2881 1984 2565 2268 
Q 2250 2553 1709 2553 
Q 1456 2553 1204 2497 
Q 953 2441 691 2322 
L 691 4666 
z
" transform="scale(0.015625)"/>
       </defs>
       <use xlink:href="#DejaVuSans-32"/>
       <use xlink:href="#DejaVuSans-35" x="63.623047"/>
      </g>
     </g>
    </g>
    <g id="xtick_3">
     <g id="line2d_5">
      <path d="M 155.404221 307.584 
L 155.404221 41.472 
" clip-path="url(#pe0853c925a)" style="fill: none; stroke: #b0b0b0; stroke-width: 0.8; stroke-linecap: square"/>
     </g>
     <g id="line2d_6">
      <g>
       <use xlink:href="#m86b07d11d8" x="155.404221" y="307.584" style="stroke: #000000; stroke-width: 0.8"/>
      </g>
     </g>
     <g id="text_3">
      <!-- 50 -->
      <g transform="translate(149.041721 322.182437) scale(0.1 -0.1)">
       <use xlink:href="#DejaVuSans-35"/>
       <use xlink:href="#DejaVuSans-30" x="63.623047"/>
      </g>
     </g>
    </g>
    <g id="xtick_4">
     <g id="line2d_7">
      <path d="M 196.189968 307.584 
L 196.189968 41.472 
" clip-path="url(#pe0853c925a)" style="fill: none; stroke: #b0b0b0; stroke-width: 0.8; stroke-linecap: square"/>
     </g>
     <g id="line2d_8">
      <g>
       <use xlink:href="#m86b07d11d8" x="196.189968" y="307.584" style="stroke: #000000; stroke-width: 0.8"/>
      </g>
     </g>
     <g id="text_4">
      <!-- 75 -->
      <g transform="translate(189.827468 322.182437) scale(0.1 -0.1)">
       <defs>
        <path id="DejaVuSans-37" d="M 525 4666 
L 3525 4666 
L 3525 4397 
L 1831 0 
L 1172 0 
L 2766 4134 
L 525 4134 
L 525 4666 
z
" transform="scale(0.015625)"/>
       </defs>
       <use xlink:href="#DejaVuSans-37"/>
       <use xlink:href="#DejaVuSans-35" x="63.623047"/>
      </g>
     </g>
    </g>
    <g id="xtick_5">
     <g id="line2d_9">
      <path d="M 236.975715 307.584 
L 236.975715 41.472 
" clip-path="url(#pe0853c925a)" style="fill: none; stroke: #b0b0b0; stroke-width: 0.8; stroke-linecap: square"/>
     </g>
     <g id="line2d_10">
      <g>
       <use xlink:href="#m86b07d11d8" x="236.975715" y="307.584" style="stroke: #000000; stroke-width: 0.8"/>
      </g>
     </g>
     <g id="text_5">
      <!-- 100 -->
      <g transform="translate(227.431965 322.182437) scale(0.1 -0.1)">
       <defs>
        <path id="DejaVuSans-31" d="M 794 531 
L 1825 531 
L 1825 4091 
L 703 3866 
L 703 4441 
L 1819 4666 
L 2450 4666 
L 2450 531 
L 3481 531 
L 3481 0 
L 794 0 
L 794 531 
z
" transform="scale(0.015625)"/>
       </defs>
       <use xlink:href="#DejaVuSans-31"/>
       <use xlink:href="#DejaVuSans-30" x="63.623047"/>
       <use xlink:href="#DejaVuSans-30" x="127.246094"/>
      </g>
     </g>
    </g>
    <g id="xtick_6">
     <g id="line2d_11">
      <path d="M 277.761462 307.584 
L 277.761462 41.472 
" clip-path="url(#pe0853c925a)" style="fill: none; stroke: #b0b0b0; stroke-width: 0.8; stroke-linecap: square"/>
     </g>
     <g id="line2d_12">
      <g>
       <use xlink:href="#m86b07d11d8" x="277.761462" y="307.584" style="stroke: #000000; stroke-width: 0.8"/>
      </g>
     </g>
     <g id="text_6">
      <!-- 125 -->
      <g transform="translate(268.217712 322.182437) scale(0.1 -0.1)">
       <use xlink:href="#DejaVuSans-31"/>
       <use xlink:href="#DejaVuSans-32" x="63.623047"/>
       <use xlink:href="#DejaVuSans-35" x="127.246094"/>
      </g>
     </g>
    </g>
    <g id="xtick_7">
     <g id="line2d_13">
      <path d="M 318.547209 307.584 
L 318.547209 41.472 
" clip-path="url(#pe0853c925a)" style="fill: none; stroke: #b0b0b0; stroke-width: 0.8; stroke-linecap: square"/>
     </g>
     <g id="line2d_14">
      <g>
       <use xlink:href="#m86b07d11d8" x="318.547209" y="307.584" style="stroke: #000000; stroke-width: 0.8"/>
      </g>
     </g>
     <g id="text_7">
      <!-- 150 -->
      <g transform="translate(309.003459 322.182437) scale(0.1 -0.1)">
       <use xlink:href="#DejaVuSans-31"/>
       <use xlink:href="#DejaVuSans-35" x="63.623047"/>
       <use xlink:href="#DejaVuSans-30" x="127.246094"/>
      </g>
     </g>
    </g>
    <g id="xtick_8">
     <g id="line2d_15">
      <path d="M 359.332956 307.584 
L 359.332956 41.472 
" clip-path="url(#pe0853c925a)" style="fill: none; stroke: #b0b0b0; stroke-width: 0.8; stroke-linecap: square"/>
     </g>
     <g id="line2d_16">
      <g>
       <use xlink:href="#m86b07d11d8" x="359.332956" y="307.584" style="stroke: #000000; stroke-width: 0.8"/>
      </g>
     </g>
     <g id="text_8">
      <!-- 175 -->
      <g transform="translate(349.789206 322.182437) scale(0.1 -0.1)">
       <use xlink:href="#DejaVuSans-31"/>
       <use xlink:href="#DejaVuSans-37" x="63.623047"/>
       <use xlink:href="#DejaVuSans-35" x="127.246094"/>
      </g>
     </g>
    </g>
    <g id="xtick_9">
     <g id="line2d_17">
      <path d="M 400.118703 307.584 
L 400.118703 41.472 
" clip-path="url(#pe0853c925a)" style="fill: none; stroke: #b0b0b0; stroke-width: 0.8; stroke-linecap: square"/>
     </g>
     <g id="line2d_18">
      <g>
       <use xlink:href="#m86b07d11d8" x="400.118703" y="307.584" style="stroke: #000000; stroke-width: 0.8"/>
      </g>
     </g>
     <g id="text_9">
      <!-- 200 -->
      <g transform="translate(390.574953 322.182437) scale(0.1 -0.1)">
       <use xlink:href="#DejaVuSans-32"/>
       <use xlink:href="#DejaVuSans-30" x="63.623047"/>
       <use xlink:href="#DejaVuSans-30" x="127.246094"/>
      </g>
     </g>
    </g>
    <g id="text_10">
     <!-- Generations -->
     <g transform="translate(205.662344 335.860562) scale(0.1 -0.1)">
      <defs>
       <path id="DejaVuSans-47" d="M 3809 666 
L 3809 1919 
L 2778 1919 
L 2778 2438 
L 4434 2438 
L 4434 434 
Q 4069 175 3628 42 
Q 3188 -91 2688 -91 
Q 1594 -91 976 548 
Q 359 1188 359 2328 
Q 359 3472 976 4111 
Q 1594 4750 2688 4750 
Q 3144 4750 3555 4637 
Q 3966 4525 4313 4306 
L 4313 3634 
Q 3963 3931 3569 4081 
Q 3175 4231 2741 4231 
Q 1884 4231 1454 3753 
Q 1025 3275 1025 2328 
Q 1025 1384 1454 906 
Q 1884 428 2741 428 
Q 3075 428 3337 486 
Q 3600 544 3809 666 
z
" transform="scale(0.015625)"/>
       <path id="DejaVuSans-65" d="M 3597 1894 
L 3597 1613 
L 953 1613 
Q 991 1019 1311 708 
Q 1631 397 2203 397 
Q 2534 397 2845 478 
Q 3156 559 3463 722 
L 3463 178 
Q 3153 47 2828 -22 
Q 2503 -91 2169 -91 
Q 1331 -91 842 396 
Q 353 884 353 1716 
Q 353 2575 817 3079 
Q 1281 3584 2069 3584 
Q 2775 3584 3186 3129 
Q 3597 2675 3597 1894 
z
M 3022 2063 
Q 3016 2534 2758 2815 
Q 2500 3097 2075 3097 
Q 1594 3097 1305 2825 
Q 1016 2553 972 2059 
L 3022 2063 
z
" transform="scale(0.015625)"/>
       <path id="DejaVuSans-6e" d="M 3513 2113 
L 3513 0 
L 2938 0 
L 2938 2094 
Q 2938 2591 2744 2837 
Q 2550 3084 2163 3084 
Q 1697 3084 1428 2787 
Q 1159 2491 1159 1978 
L 1159 0 
L 581 0 
L 581 3500 
L 1159 3500 
L 1159 2956 
Q 1366 3272 1645 3428 
Q 1925 3584 2291 3584 
Q 2894 3584 3203 3211 
Q 3513 2838 3513 2113 
z
" transform="scale(0.015625)"/>
       <path id="DejaVuSans-72" d="M 2631 2963 
Q 2534 3019 2420 3045 
Q 2306 3072 2169 3072 
Q 1681 3072 1420 2755 
Q 1159 2438 1159 1844 
L 1159 0 
L 581 0 
L 581 3500 
L 1159 3500 
L 1159 2956 
Q 1341 3275 1631 3429 
Q 1922 3584 2338 3584 
Q 2397 3584 2469 3576 
Q 2541 3569 2628 3553 
L 2631 2963 
z
" transform="scale(0.015625)"/>
       <path id="DejaVuSans-61" d="M 2194 1759 
Q 1497 1759 1228 1600 
Q 959 1441 959 1056 
Q 959 750 1161 570 
Q 1363 391 1709 391 
Q 2188 391 2477 730 
Q 2766 1069 2766 1631 
L 2766 1759 
L 2194 1759 
z
M 3341 1997 
L 3341 0 
L 2766 0 
L 2766 531 
Q 2569 213 2275 61 
Q 1981 -91 1556 -91 
Q 1019 -91 701 211 
Q 384 513 384 1019 
Q 384 1609 779 1909 
Q 1175 2209 1959 2209 
L 2766 2209 
L 2766 2266 
Q 2766 2663 2505 2880 
Q 2244 3097 1772 3097 
Q 1472 3097 1187 3025 
Q 903 2953 641 2809 
L 641 3341 
Q 956 3463 1253 3523 
Q 1550 3584 1831 3584 
Q 2591 3584 2966 3190 
Q 3341 2797 3341 1997 
z
" transform="scale(0.015625)"/>
       <path id="DejaVuSans-74" d="M 1172 4494 
L 1172 3500 
L 2356 3500 
L 2356 3053 
L 1172 3053 
L 1172 1153 
Q 1172 725 1289 603 
Q 1406 481 1766 481 
L 2356 481 
L 2356 0 
L 1766 0 
Q 1100 0 847 248 
Q 594 497 594 1153 
L 594 3053 
L 172 3053 
L 172 3500 
L 594 3500 
L 594 4494 
L 1172 4494 
z
" transform="scale(0.015625)"/>
       <path id="DejaVuSans-69" d="M 603 3500 
L 1178 3500 
L 1178 0 
L 603 0 
L 603 3500 
z
M 603 4863 
L 1178 4863 
L 1178 4134 
L 603 4134 
L 603 4863 
z
" transform="scale(0.015625)"/>
       <path id="DejaVuSans-6f" d="M 1959 3097 
Q 1497 3097 1228 2736 
Q 959 2375 959 1747 
Q 959 1119 1226 758 
Q 1494 397 1959 397 
Q 2419 397 2687 759 
Q 2956 1122 2956 1747 
Q 2956 2369 2687 2733 
Q 2419 3097 1959 3097 
z
M 1959 3584 
Q 2709 3584 3137 3096 
Q 3566 2609 3566 1747 
Q 3566 888 3137 398 
Q 2709 -91 1959 -91 
Q 1206 -91 779 398 
Q 353 888 353 1747 
Q 353 2609 779 3096 
Q 1206 3584 1959 3584 
z
" transform="scale(0.015625)"/>
       <path id="DejaVuSans-73" d="M 2834 3397 
L 2834 2853 
Q 2591 2978 2328 3040 
Q 2066 3103 1784 3103 
Q 1356 3103 1142 2972 
Q 928 2841 928 2578 
Q 928 2378 1081 2264 
Q 1234 2150 1697 2047 
L 1894 2003 
Q 2506 1872 2764 1633 
Q 3022 1394 3022 966 
Q 3022 478 2636 193 
Q 2250 -91 1575 -91 
Q 1294 -91 989 -36 
Q 684 19 347 128 
L 347 722 
Q 666 556 975 473 
Q 1284 391 1588 391 
Q 1994 391 2212 530 
Q 2431 669 2431 922 
Q 2431 1156 2273 1281 
Q 2116 1406 1581 1522 
L 1381 1569 
Q 847 1681 609 1914 
Q 372 2147 372 2553 
Q 372 3047 722 3315 
Q 1072 3584 1716 3584 
Q 2034 3584 2315 3537 
Q 2597 3491 2834 3397 
z
" transform="scale(0.015625)"/>
      </defs>
      <use xlink:href="#DejaVuSans-47"/>
      <use xlink:href="#DejaVuSans-65" x="77.490234"/>
      <use xlink:href="#DejaVuSans-6e" x="139.013672"/>
      <use xlink:href="#DejaVuSans-65" x="202.392578"/>
      <use xlink:href="#DejaVuSans-72" x="263.916016"/>
      <use xlink:href="#DejaVuSans-61" x="305.029297"/>
      <use xlink:href="#DejaVuSans-74" x="366.308594"/>
      <use xlink:href="#DejaVuSans-69" x="405.517578"/>
      <use xlink:href="#DejaVuSans-6f" x="433.300781"/>
      <use xlink:href="#DejaVuSans-6e" x="494.482422"/>
      <use xlink:href="#DejaVuSans-73" x="557.861328"/>
     </g>
    </g>
   </g>
   <g id="matplotlib.axis_2">
    <g id="ytick_1">
     <g id="line2d_19">
      <path d="M 57.6 278.604984 
L 414.72 278.604984 
" clip-path="url(#pe0853c925a)" style="fill: none; stroke: #b0b0b0; stroke-width: 0.8; stroke-linecap: square"/>
     </g>
     <g id="line2d_20">
      <defs>
       <path id="me55be28b6d" d="M 0 0 
L -3.5 0 
" style="stroke: #000000; stroke-width: 0.8"/>
      </defs>
      <g>
       <use xlink:href="#me55be28b6d" x="57.6" y="278.604984" style="stroke: #000000; stroke-width: 0.8"/>
      </g>
     </g>
     <g id="text_11">
      <!-- −2000 -->
      <g transform="translate(16.770313 282.404202) scale(0.1 -0.1)">
       <defs>
        <path id="DejaVuSans-2212" d="M 678 2272 
L 4684 2272 
L 4684 1741 
L 678 1741 
L 678 2272 
z
" transform="scale(0.015625)"/>
       </defs>
       <use xlink:href="#DejaVuSans-2212"/>
       <use xlink:href="#DejaVuSans-32" x="83.789062"/>
       <use xlink:href="#DejaVuSans-30" x="147.412109"/>
       <use xlink:href="#DejaVuSans-30" x="211.035156"/>
       <use xlink:href="#DejaVuSans-30" x="274.658203"/>
      </g>
     </g>
    </g>
    <g id="ytick_2">
     <g id="line2d_21">
      <path d="M 57.6 244.642631 
L 414.72 244.642631 
" clip-path="url(#pe0853c925a)" style="fill: none; stroke: #b0b0b0; stroke-width: 0.8; stroke-linecap: square"/>
     </g>
     <g id="line2d_22">
      <g>
       <use xlink:href="#me55be28b6d" x="57.6" y="244.642631" style="stroke: #000000; stroke-width: 0.8"/>
      </g>
     </g>
     <g id="text_12">
      <!-- −1750 -->
      <g transform="translate(16.770313 248.44185) scale(0.1 -0.1)">
       <use xlink:href="#DejaVuSans-2212"/>
       <use xlink:href="#DejaVuSans-31" x="83.789062"/>
       <use xlink:href="#DejaVuSans-37" x="147.412109"/>
       <use xlink:href="#DejaVuSans-35" x="211.035156"/>
       <use xlink:href="#DejaVuSans-30" x="274.658203"/>
      </g>
     </g>
    </g>
    <g id="ytick_3">
     <g id="line2d_23">
      <path d="M 57.6 210.680279 
L 414.72 210.680279 
" clip-path="url(#pe0853c925a)" style="fill: none; stroke: #b0b0b0; stroke-width: 0.8; stroke-linecap: square"/>
     </g>
     <g id="line2d_24">
      <g>
       <use xlink:href="#me55be28b6d" x="57.6" y="210.680279" style="stroke: #000000; stroke-width: 0.8"/>
      </g>
     </g>
     <g id="text_13">
      <!-- −1500 -->
      <g transform="translate(16.770313 214.479498) scale(0.1 -0.1)">
       <use xlink:href="#DejaVuSans-2212"/>
       <use xlink:href="#DejaVuSans-31" x="83.789062"/>
       <use xlink:href="#DejaVuSans-35" x="147.412109"/>
       <use xlink:href="#DejaVuSans-30" x="211.035156"/>
       <use xlink:href="#DejaVuSans-30" x="274.658203"/>
      </g>
     </g>
    </g>
    <g id="ytick_4">
     <g id="line2d_25">
      <path d="M 57.6 176.717927 
L 414.72 176.717927 
" clip-path="url(#pe0853c925a)" style="fill: none; stroke: #b0b0b0; stroke-width: 0.8; stroke-linecap: square"/>
     </g>
     <g id="line2d_26">
      <g>
       <use xlink:href="#me55be28b6d" x="57.6" y="176.717927" style="stroke: #000000; stroke-width: 0.8"/>
      </g>
     </g>
     <g id="text_14">
      <!-- −1250 -->
      <g transform="translate(16.770313 180.517146) scale(0.1 -0.1)">
       <use xlink:href="#DejaVuSans-2212"/>
       <use xlink:href="#DejaVuSans-31" x="83.789062"/>
       <use xlink:href="#DejaVuSans-32" x="147.412109"/>
       <use xlink:href="#DejaVuSans-35" x="211.035156"/>
       <use xlink:href="#DejaVuSans-30" x="274.658203"/>
      </g>
     </g>
    </g>
    <g id="ytick_5">
     <g id="line2d_27">
      <path d="M 57.6 142.755575 
L 414.72 142.755575 
" clip-path="url(#pe0853c925a)" style="fill: none; stroke: #b0b0b0; stroke-width: 0.8; stroke-linecap: square"/>
     </g>
     <g id="line2d_28">
      <g>
       <use xlink:href="#me55be28b6d" x="57.6" y="142.755575" style="stroke: #000000; stroke-width: 0.8"/>
      </g>
     </g>
     <g id="text_15">
      <!-- −1000 -->
      <g transform="translate(16.770313 146.554794) scale(0.1 -0.1)">
       <use xlink:href="#DejaVuSans-2212"/>
       <use xlink:href="#DejaVuSans-31" x="83.789062"/>
       <use xlink:href="#DejaVuSans-30" x="147.412109"/>
       <use xlink:href="#DejaVuSans-30" x="211.035156"/>
       <use xlink:href="#DejaVuSans-30" x="274.658203"/>
      </g>
     </g>
    </g>
    <g id="ytick_6">
     <g id="line2d_29">
      <path d="M 57.6 108.793223 
L 414.72 108.793223 
" clip-path="url(#pe0853c925a)" style="fill: none; stroke: #b0b0b0; stroke-width: 0.8; stroke-linecap: square"/>
     </g>
     <g id="line2d_30">
      <g>
       <use xlink:href="#me55be28b6d" x="57.6" y="108.793223" style="stroke: #000000; stroke-width: 0.8"/>
      </g>
     </g>
     <g id="text_16">
      <!-- −750 -->
      <g transform="translate(23.132812 112.592442) scale(0.1 -0.1)">
       <use xlink:href="#DejaVuSans-2212"/>
       <use xlink:href="#DejaVuSans-37" x="83.789062"/>
       <use xlink:href="#DejaVuSans-35" x="147.412109"/>
       <use xlink:href="#DejaVuSans-30" x="211.035156"/>
      </g>
     </g>
    </g>
    <g id="ytick_7">
     <g id="line2d_31">
      <path d="M 57.6 74.830871 
L 414.72 74.830871 
" clip-path="url(#pe0853c925a)" style="fill: none; stroke: #b0b0b0; stroke-width: 0.8; stroke-linecap: square"/>
     </g>
     <g id="line2d_32">
      <g>
       <use xlink:href="#me55be28b6d" x="57.6" y="74.830871" style="stroke: #000000; stroke-width: 0.8"/>
      </g>
     </g>
     <g id="text_17">
      <!-- −500 -->
      <g transform="translate(23.132812 78.63009) scale(0.1 -0.1)">
       <use xlink:href="#DejaVuSans-2212"/>
       <use xlink:href="#DejaVuSans-35" x="83.789062"/>
       <use xlink:href="#DejaVuSans-30" x="147.412109"/>
       <use xlink:href="#DejaVuSans-30" x="211.035156"/>
      </g>
     </g>
    </g>
    <g id="text_18">
     <!-- Fitness -->
     <g transform="translate(10.690625 191.845187) rotate(-90) scale(0.1 -0.1)">
      <defs>
       <path id="DejaVuSans-46" d="M 628 4666 
L 3309 4666 
L 3309 4134 
L 1259 4134 
L 1259 2759 
L 3109 2759 
L 3109 2228 
L 1259 2228 
L 1259 0 
L 628 0 
L 628 4666 
z
" transform="scale(0.015625)"/>
      </defs>
      <use xlink:href="#DejaVuSans-46"/>
      <use xlink:href="#DejaVuSans-69" x="50.269531"/>
      <use xlink:href="#DejaVuSans-74" x="78.052734"/>
      <use xlink:href="#DejaVuSans-6e" x="117.261719"/>
      <use xlink:href="#DejaVuSans-65" x="180.640625"/>
      <use xlink:href="#DejaVuSans-73" x="242.164062"/>
      <use xlink:href="#DejaVuSans-73" x="294.263672"/>
     </g>
    </g>
   </g>
   <g id="line2d_33">
    <path d="M 73.832727 263.204785 
L 75.464157 260.569105 
L 78.727017 257.292769 
L 80.358447 251.71604 
L 81.989877 251.552091 
L 83.621307 253.597324 
L 85.252736 252.352181 
L 86.884166 253.600803 
L 88.515596 250.196407 
L 90.147026 248.831583 
L 91.778456 249.677645 
L 93.409886 248.813357 
L 95.041316 247.574213 
L 96.672746 251.125254 
L 98.304175 250.503037 
L 99.935605 250.234712 
L 101.567035 252.195796 
L 103.198465 250.633464 
L 104.829895 250.793385 
L 106.461325 250.614329 
L 108.092755 250.200689 
L 109.724185 248.397648 
L 111.355614 251.520501 
L 112.987044 251.260575 
L 114.618474 251.826624 
L 116.249904 251.335527 
L 117.881334 251.885307 
L 119.512764 250.746928 
L 121.144194 252.086789 
L 122.775624 251.549275 
L 124.407053 250.820755 
L 126.038483 251.638876 
L 127.669913 248.233933 
L 129.301343 248.01861 
L 130.932773 249.652075 
L 132.564203 250.234145 
L 134.195633 249.912193 
L 135.827063 250.356304 
L 137.458492 248.701916 
L 139.089922 249.728595 
L 140.721352 251.798079 
L 142.352782 251.92125 
L 143.984212 251.066092 
L 145.615642 251.951272 
L 147.247072 251.882243 
L 148.878502 249.677694 
L 150.509931 251.662223 
L 152.141361 251.702043 
L 153.772791 251.481921 
L 155.404221 250.901492 
L 157.035651 250.152429 
L 158.667081 251.977268 
L 160.298511 251.614616 
L 161.929941 249.401122 
L 163.56137 251.035069 
L 165.1928 251.035131 
L 166.82423 248.047822 
L 168.45566 246.899692 
L 170.08709 248.538497 
L 171.71852 248.767701 
L 173.34995 250.54968 
L 174.98138 251.108653 
L 176.61281 248.497614 
L 178.244239 250.166388 
L 179.875669 249.875956 
L 181.507099 250.401407 
L 183.138529 250.215629 
L 184.769959 252.245752 
L 186.401389 249.697435 
L 188.032819 251.867804 
L 189.664249 251.843098 
L 191.295678 250.801843 
L 192.927108 252.776651 
L 194.558538 250.42798 
L 196.189968 249.868946 
L 197.821398 252.220224 
L 199.452828 251.950872 
L 201.084258 252.287819 
L 202.715688 250.892983 
L 204.347117 248.770165 
L 205.978547 251.754036 
L 207.609977 249.254493 
L 209.241407 247.412301 
L 210.872837 250.480787 
L 212.504267 249.149321 
L 214.135697 250.357433 
L 215.767127 250.635532 
L 217.398556 248.599599 
L 219.029986 248.637683 
L 220.661416 247.277379 
L 222.292846 248.838226 
L 223.924276 251.235427 
L 225.555706 249.515711 
L 227.187136 249.962239 
L 228.818566 249.684113 
L 230.449995 250.36212 
L 232.081425 249.396899 
L 233.712855 249.280783 
L 235.344285 248.90774 
L 236.975715 245.949726 
L 238.607145 249.294445 
L 240.238575 248.951707 
L 241.870005 250.125711 
L 243.501434 250.591339 
L 245.132864 248.825191 
L 246.764294 248.609095 
L 248.395724 249.687151 
L 251.658584 250.496613 
L 253.290014 248.667596 
L 254.921444 248.186619 
L 256.552873 250.165949 
L 258.184303 246.104621 
L 259.815733 249.448427 
L 261.447163 249.21613 
L 263.078593 247.747685 
L 264.710023 251.530828 
L 266.341453 246.737114 
L 267.972883 251.141795 
L 269.604312 251.631698 
L 271.235742 251.419947 
L 272.867172 251.665605 
L 274.498602 252.082765 
L 276.130032 252.82656 
L 277.761462 251.12198 
L 279.392892 249.097262 
L 281.024322 250.005181 
L 282.655751 249.10675 
L 284.287181 249.352079 
L 285.918611 248.619595 
L 287.550041 246.441795 
L 289.181471 249.74169 
L 290.812901 250.951477 
L 292.444331 250.515228 
L 294.075761 248.507836 
L 295.70719 248.882932 
L 297.33862 251.179949 
L 298.97005 249.641672 
L 300.60148 248.900981 
L 302.23291 247.474109 
L 303.86434 248.904456 
L 305.49577 239.008339 
L 307.1272 245.641416 
L 308.75863 250.250312 
L 310.390059 248.605781 
L 312.021489 246.287973 
L 313.652919 248.342384 
L 315.284349 247.968687 
L 316.915779 249.41402 
L 318.547209 250.420025 
L 320.178639 250.202788 
L 321.810069 249.126564 
L 323.441498 249.180375 
L 325.072928 248.741948 
L 326.704358 248.926477 
L 328.335788 252.114357 
L 329.967218 252.286519 
L 331.598648 252.019589 
L 334.861508 251.153821 
L 336.492937 249.640314 
L 338.124367 251.63682 
L 339.755797 248.474794 
L 341.387227 249.565228 
L 343.018657 250.470052 
L 344.650087 249.87813 
L 346.281517 248.568828 
L 347.912947 250.552334 
L 349.544376 251.58733 
L 351.175806 250.185554 
L 352.807236 251.772384 
L 356.070096 251.816209 
L 357.701526 249.906121 
L 359.332956 251.641104 
L 360.964386 251.791946 
L 362.595815 249.794665 
L 364.227245 249.991651 
L 365.858675 249.185941 
L 367.490105 250.459809 
L 369.121535 245.069163 
L 370.752965 250.679477 
L 374.015825 250.388119 
L 375.647254 248.154499 
L 377.278684 253.338821 
L 378.910114 255.262717 
L 380.541544 254.283056 
L 382.172974 254.252895 
L 383.804404 253.164472 
L 385.435834 251.616967 
L 387.067264 254.905248 
L 390.330123 252.460002 
L 391.961553 254.982422 
L 393.592983 254.427274 
L 395.224413 254.721171 
L 396.855843 255.419893 
L 398.487273 252.606551 
L 398.487273 252.606551 
" clip-path="url(#pe0853c925a)" style="fill: none; stroke: #0000ff; stroke-width: 1.5; stroke-linecap: square"/>
   </g>
   <g id="line2d_34">
    <path d="M 73.832727 271.665956 
L 75.464157 272.154457 
L 77.095587 271.866753 
L 78.727017 271.21159 
L 80.358447 279.381298 
L 81.989877 280.464723 
L 83.621307 280.167618 
L 86.884166 282.385473 
L 88.515596 286.30332 
L 90.147026 286.133711 
L 91.778456 285.467292 
L 93.409886 286.041376 
L 95.041316 288.620524 
L 96.672746 286.58594 
L 98.304175 286.609464 
L 99.935605 285.864621 
L 101.567035 282.912432 
L 103.198465 285.338195 
L 104.829895 285.783113 
L 106.461325 285.336667 
L 108.092755 287.461191 
L 109.724185 288.351174 
L 111.355614 286.809279 
L 112.987044 285.496465 
L 114.618474 284.943359 
L 116.249904 285.328832 
L 117.881334 286.156653 
L 119.512764 286.087425 
L 121.144194 285.158104 
L 122.775624 283.565075 
L 124.407053 283.651264 
L 126.038483 285.405224 
L 127.669913 287.877689 
L 129.301343 289.73058 
L 132.564203 287.440688 
L 134.195633 287.578926 
L 135.827063 287.090084 
L 137.458492 287.428806 
L 139.089922 287.212552 
L 140.721352 284.69234 
L 142.352782 284.149003 
L 143.984212 285.881198 
L 145.615642 283.895254 
L 147.247072 284.825083 
L 148.878502 288.02084 
L 150.509931 285.145554 
L 152.141361 286.203509 
L 153.772791 284.289925 
L 155.404221 286.460874 
L 157.035651 287.262624 
L 158.667081 284.935653 
L 160.298511 285.2379 
L 161.929941 288.307845 
L 163.56137 285.367893 
L 165.1928 285.385162 
L 166.82423 288.179174 
L 168.45566 289.645482 
L 170.08709 289.629006 
L 171.71852 289.73752 
L 173.34995 287.357203 
L 174.98138 287.666085 
L 176.61281 287.374706 
L 178.244239 286.455926 
L 179.875669 286.09042 
L 181.507099 286.784827 
L 183.138529 288.292908 
L 184.769959 286.06878 
L 186.401389 289.302635 
L 188.032819 286.295387 
L 189.664249 285.901848 
L 191.295678 287.724205 
L 192.927108 287.40775 
L 194.558538 290.064833 
L 196.189968 287.981264 
L 197.821398 286.906037 
L 199.452828 286.584258 
L 201.084258 287.000511 
L 202.715688 287.596267 
L 204.347117 287.950314 
L 205.978547 286.500211 
L 207.609977 289.539505 
L 209.241407 289.991037 
L 210.872837 287.390759 
L 212.504267 288.080747 
L 214.135697 286.638117 
L 215.767127 286.62186 
L 217.398556 288.929259 
L 219.029986 289.410044 
L 220.661416 289.62173 
L 222.292846 287.673787 
L 223.924276 288.498174 
L 225.555706 289.614046 
L 227.187136 288.13234 
L 228.818566 287.688583 
L 230.449995 287.753051 
L 232.081425 289.648038 
L 233.712855 289.064182 
L 235.344285 289.277465 
L 236.975715 292.336908 
L 238.607145 288.637252 
L 240.238575 289.059636 
L 241.870005 287.082188 
L 243.501434 288.07632 
L 245.132864 289.722292 
L 246.764294 289.453855 
L 248.395724 286.700187 
L 250.027154 287.891985 
L 251.658584 288.141762 
L 253.290014 288.002289 
L 254.921444 287.569946 
L 256.552873 289.189604 
L 258.184303 292.776898 
L 259.815733 288.739166 
L 261.447163 290.002937 
L 263.078593 290.457329 
L 264.710023 286.074813 
L 266.341453 290.218415 
L 267.972883 284.667876 
L 269.604312 285.544762 
L 271.235742 285.105497 
L 272.867172 282.637521 
L 274.498602 283.20499 
L 276.130032 284.445793 
L 277.761462 285.437577 
L 279.392892 284.327836 
L 281.024322 286.587179 
L 282.655751 286.662165 
L 284.287181 285.496689 
L 285.918611 286.749262 
L 287.550041 288.849685 
L 289.181471 284.973756 
L 290.812901 284.532171 
L 292.444331 284.81596 
L 294.075761 286.453867 
L 295.70719 287.564734 
L 297.33862 286.696419 
L 298.97005 286.798596 
L 300.60148 287.709608 
L 302.23291 289.247772 
L 303.86434 287.539187 
L 305.49577 295.488 
L 307.1272 292.793246 
L 308.75863 287.769516 
L 310.390059 289.866878 
L 312.021489 293.500759 
L 313.652919 291.065635 
L 315.284349 289.841867 
L 316.915779 287.295763 
L 318.547209 288.580309 
L 320.178639 288.791625 
L 321.810069 290.940325 
L 323.441498 289.037381 
L 325.072928 289.577812 
L 326.704358 290.527809 
L 328.335788 286.74885 
L 329.967218 286.99566 
L 331.598648 286.679273 
L 333.230078 286.145033 
L 334.861508 285.364802 
L 336.492937 287.666115 
L 338.124367 286.162004 
L 339.755797 288.533215 
L 341.387227 289.299786 
L 343.018657 288.028815 
L 344.650087 289.472253 
L 346.281517 290.560439 
L 347.912947 287.966442 
L 349.544376 286.155865 
L 351.175806 286.421194 
L 354.438666 286.391022 
L 356.070096 286.452331 
L 357.701526 289.4573 
L 359.332956 286.056544 
L 360.964386 285.891507 
L 362.595815 287.72144 
L 364.227245 287.693995 
L 365.858675 290.499326 
L 367.490105 290.0689 
L 369.121535 292.799333 
L 370.752965 289.823155 
L 372.384395 289.803255 
L 374.015825 289.587812 
L 375.647254 290.090086 
L 377.278684 284.838174 
L 378.910114 282.063691 
L 380.541544 281.259152 
L 382.172974 281.460506 
L 383.804404 285.093137 
L 385.435834 285.801387 
L 387.067264 280.151733 
L 388.698693 284.913748 
L 390.330123 284.968628 
L 391.961553 279.965056 
L 393.592983 280.393213 
L 396.855843 280.660607 
L 398.487273 283.051083 
L 398.487273 283.051083 
" clip-path="url(#pe0853c925a)" style="fill: none; stroke-dasharray: 9.6,2.4,1.5,2.4; stroke-dashoffset: 0; stroke: #008000; stroke-width: 1.5"/>
   </g>
   <g id="line2d_35">
    <path d="M 73.832727 254.743613 
L 75.464157 248.983753 
L 78.727017 243.373949 
L 80.358447 224.050782 
L 81.989877 222.639458 
L 83.621307 227.02703 
L 85.252736 223.430864 
L 86.884166 224.816133 
L 88.515596 214.089494 
L 90.147026 211.529454 
L 91.778456 213.887998 
L 93.409886 211.585338 
L 95.041316 206.527901 
L 96.672746 215.664568 
L 98.304175 214.39661 
L 99.935605 214.604802 
L 101.567035 221.47916 
L 103.198465 215.928733 
L 104.829895 215.803657 
L 106.461325 215.891991 
L 108.092755 212.940187 
L 109.724185 208.444121 
L 111.355614 216.231722 
L 112.987044 217.024685 
L 114.618474 218.709889 
L 116.249904 217.342223 
L 117.881334 217.61396 
L 119.512764 215.406431 
L 121.144194 219.015474 
L 122.775624 219.533476 
L 124.407053 217.990245 
L 126.038483 217.872528 
L 127.669913 208.590176 
L 129.301343 206.30664 
L 130.932773 210.706499 
L 132.564203 213.027601 
L 134.195633 212.24546 
L 135.827063 213.622524 
L 137.458492 209.975026 
L 139.089922 212.244639 
L 140.721352 218.903817 
L 142.352782 219.693496 
L 143.984212 216.250987 
L 145.615642 220.00729 
L 147.247072 218.939403 
L 148.878502 211.334548 
L 150.509931 218.178892 
L 152.141361 217.200578 
L 153.772791 218.673917 
L 155.404221 215.34211 
L 157.035651 213.042234 
L 158.667081 219.018882 
L 160.298511 217.991333 
L 161.929941 210.494399 
L 163.56137 216.702245 
L 165.1928 216.6851 
L 166.82423 207.916471 
L 168.45566 204.153901 
L 170.08709 207.447987 
L 171.71852 207.797882 
L 173.34995 213.742157 
L 174.98138 214.551221 
L 176.61281 209.620523 
L 178.244239 213.87685 
L 179.875669 213.661491 
L 181.507099 214.017988 
L 183.138529 212.138351 
L 184.769959 218.422725 
L 186.401389 210.092234 
L 188.032819 217.440222 
L 189.664249 217.784348 
L 191.295678 213.879481 
L 192.927108 218.145552 
L 194.558538 210.791127 
L 196.189968 211.756628 
L 197.821398 217.534411 
L 199.452828 217.317486 
L 201.084258 217.575128 
L 202.715688 214.189699 
L 204.347117 209.590016 
L 205.978547 217.007861 
L 207.609977 208.969481 
L 209.241407 204.833565 
L 210.872837 213.570815 
L 212.504267 210.217895 
L 214.135697 214.07675 
L 215.767127 214.649205 
L 217.398556 208.269938 
L 219.029986 207.865323 
L 220.661416 204.933029 
L 222.292846 210.002666 
L 223.924276 213.972681 
L 225.555706 209.417376 
L 227.187136 211.792138 
L 228.818566 211.679643 
L 230.449995 212.971189 
L 232.081425 209.14576 
L 233.712855 209.497384 
L 235.344285 208.538015 
L 236.975715 199.562543 
L 238.607145 209.951638 
L 240.238575 208.843778 
L 241.870005 213.169234 
L 243.501434 213.106357 
L 245.132864 207.928089 
L 246.764294 207.764335 
L 248.395724 212.674115 
L 250.027154 212.405531 
L 251.658584 212.851464 
L 253.290014 209.332904 
L 254.921444 208.803292 
L 256.552873 211.142294 
L 258.184303 199.432344 
L 259.815733 210.157688 
L 261.447163 208.429323 
L 263.078593 205.038042 
L 264.710023 216.986842 
L 266.341453 203.255813 
L 267.972883 217.615713 
L 271.235742 217.734396 
L 272.867172 220.693689 
L 276.130032 221.207328 
L 277.761462 216.806382 
L 279.392892 213.866689 
L 281.024322 213.423182 
L 282.655751 211.551335 
L 284.287181 213.20747 
L 285.918611 210.489928 
L 287.550041 204.033906 
L 289.181471 214.509625 
L 290.812901 217.370783 
L 292.444331 216.214496 
L 294.075761 210.561805 
L 295.70719 210.20113 
L 297.33862 215.66348 
L 298.97005 212.484748 
L 300.60148 210.092354 
L 302.23291 205.700446 
L 303.86434 210.269725 
L 305.49577 182.528678 
L 307.1272 198.489586 
L 308.75863 212.731107 
L 310.390059 207.344685 
L 312.021489 199.075187 
L 313.652919 205.619133 
L 315.284349 206.095508 
L 316.915779 211.532277 
L 318.547209 212.259741 
L 320.178639 211.613951 
L 321.810069 207.312803 
L 323.441498 209.323369 
L 325.072928 207.906085 
L 326.704358 207.325144 
L 328.335788 217.479865 
L 329.967218 217.577378 
L 334.861508 216.94284 
L 336.492937 211.614512 
L 338.124367 217.111635 
L 339.755797 208.416372 
L 341.387227 209.830669 
L 343.018657 212.911289 
L 344.650087 210.284006 
L 346.281517 206.577216 
L 347.912947 213.138226 
L 349.544376 217.018794 
L 351.175806 213.949914 
L 352.807236 217.158012 
L 356.070096 217.180087 
L 357.701526 210.354942 
L 359.332956 217.225663 
L 360.964386 217.692384 
L 362.595815 211.867889 
L 364.227245 212.289307 
L 365.858675 207.872556 
L 367.490105 210.850717 
L 369.121535 197.338994 
L 370.752965 211.535798 
L 372.384395 211.199688 
L 374.015825 211.188426 
L 375.647254 206.218911 
L 377.278684 221.839468 
L 378.910114 228.461744 
L 380.541544 227.306961 
L 382.172974 227.045285 
L 383.804404 221.235806 
L 385.435834 217.432547 
L 387.067264 229.658763 
L 388.698693 222.32703 
L 390.330123 219.951375 
L 391.961553 229.999789 
L 393.592983 228.461335 
L 395.224413 228.913701 
L 396.855843 230.179179 
L 398.487273 222.16202 
L 398.487273 222.16202 
" clip-path="url(#pe0853c925a)" style="fill: none; stroke-dasharray: 9.6,2.4,1.5,2.4; stroke-dashoffset: 0; stroke: #008000; stroke-width: 1.5"/>
   </g>
   <g id="line2d_36">
    <path d="M 73.832727 198.151138 
L 75.464157 170.739441 
L 78.727017 170.739441 
L 80.358447 77.291384 
L 93.409886 77.291384 
L 95.041316 55.156082 
L 126.038483 55.156082 
L 127.669913 54.512153 
L 165.1928 54.512153 
L 166.82423 54.319243 
L 168.45566 54.319243 
L 170.08709 53.846493 
L 303.86434 53.846493 
L 305.49577 53.713358 
L 339.755797 53.713358 
L 341.387227 53.568 
L 398.487273 53.568 
L 398.487273 53.568 
" clip-path="url(#pe0853c925a)" style="fill: none; stroke: #ff0000; stroke-width: 1.5; stroke-linecap: square"/>
   </g>
   <g id="patch_3">
    <path d="M 57.6 307.584 
L 57.6 41.472 
" style="fill: none; stroke: #000000; stroke-width: 0.8; stroke-linejoin: miter; stroke-linecap: square"/>
   </g>
   <g id="patch_4">
    <path d="M 414.72 307.584 
L 414.72 41.472 
" style="fill: none; stroke: #000000; stroke-width: 0.8; stroke-linejoin: miter; stroke-linecap: square"/>
   </g>
   <g id="patch_5">
    <path d="M 57.6 307.584 
L 414.72 307.584 
" style="fill: none; stroke: #000000; stroke-width: 0.8; stroke-linejoin: miter; stroke-linecap: square"/>
   </g>
   <g id="patch_6">
    <path d="M 57.6 41.472 
L 414.72 41.472 
" style="fill: none; stroke: #000000; stroke-width: 0.8; stroke-linejoin: miter; stroke-linecap: square"/>
   </g>
   <g id="text_19">
    <!-- Population's average and best fitness -->
    <g transform="translate(123.529687 35.472) scale(0.12 -0.12)">
     <defs>
      <path id="DejaVuSans-50" d="M 1259 4147 
L 1259 2394 
L 2053 2394 
Q 2494 2394 2734 2622 
Q 2975 2850 2975 3272 
Q 2975 3691 2734 3919 
Q 2494 4147 2053 4147 
L 1259 4147 
z
M 628 4666 
L 2053 4666 
Q 2838 4666 3239 4311 
Q 3641 3956 3641 3272 
Q 3641 2581 3239 2228 
Q 2838 1875 2053 1875 
L 1259 1875 
L 1259 0 
L 628 0 
L 628 4666 
z
" transform="scale(0.015625)"/>
      <path id="DejaVuSans-70" d="M 1159 525 
L 1159 -1331 
L 581 -1331 
L 581 3500 
L 1159 3500 
L 1159 2969 
Q 1341 3281 1617 3432 
Q 1894 3584 2278 3584 
Q 2916 3584 3314 3078 
Q 3713 2572 3713 1747 
Q 3713 922 3314 415 
Q 2916 -91 2278 -91 
Q 1894 -91 1617 61 
Q 1341 213 1159 525 
z
M 3116 1747 
Q 3116 2381 2855 2742 
Q 2594 3103 2138 3103 
Q 1681 3103 1420 2742 
Q 1159 2381 1159 1747 
Q 1159 1113 1420 752 
Q 1681 391 2138 391 
Q 2594 391 2855 752 
Q 3116 1113 3116 1747 
z
" transform="scale(0.015625)"/>
      <path id="DejaVuSans-75" d="M 544 1381 
L 544 3500 
L 1119 3500 
L 1119 1403 
Q 1119 906 1312 657 
Q 1506 409 1894 409 
Q 2359 409 2629 706 
Q 2900 1003 2900 1516 
L 2900 3500 
L 3475 3500 
L 3475 0 
L 2900 0 
L 2900 538 
Q 2691 219 2414 64 
Q 2138 -91 1772 -91 
Q 1169 -91 856 284 
Q 544 659 544 1381 
z
M 1991 3584 
L 1991 3584 
z
" transform="scale(0.015625)"/>
      <path id="DejaVuSans-6c" d="M 603 4863 
L 1178 4863 
L 1178 0 
L 603 0 
L 603 4863 
z
" transform="scale(0.015625)"/>
      <path id="DejaVuSans-27" d="M 1147 4666 
L 1147 2931 
L 616 2931 
L 616 4666 
L 1147 4666 
z
" transform="scale(0.015625)"/>
      <path id="DejaVuSans-20" transform="scale(0.015625)"/>
      <path id="DejaVuSans-76" d="M 191 3500 
L 800 3500 
L 1894 563 
L 2988 3500 
L 3597 3500 
L 2284 0 
L 1503 0 
L 191 3500 
z
" transform="scale(0.015625)"/>
      <path id="DejaVuSans-67" d="M 2906 1791 
Q 2906 2416 2648 2759 
Q 2391 3103 1925 3103 
Q 1463 3103 1205 2759 
Q 947 2416 947 1791 
Q 947 1169 1205 825 
Q 1463 481 1925 481 
Q 2391 481 2648 825 
Q 2906 1169 2906 1791 
z
M 3481 434 
Q 3481 -459 3084 -895 
Q 2688 -1331 1869 -1331 
Q 1566 -1331 1297 -1286 
Q 1028 -1241 775 -1147 
L 775 -588 
Q 1028 -725 1275 -790 
Q 1522 -856 1778 -856 
Q 2344 -856 2625 -561 
Q 2906 -266 2906 331 
L 2906 616 
Q 2728 306 2450 153 
Q 2172 0 1784 0 
Q 1141 0 747 490 
Q 353 981 353 1791 
Q 353 2603 747 3093 
Q 1141 3584 1784 3584 
Q 2172 3584 2450 3431 
Q 2728 3278 2906 2969 
L 2906 3500 
L 3481 3500 
L 3481 434 
z
" transform="scale(0.015625)"/>
      <path id="DejaVuSans-64" d="M 2906 2969 
L 2906 4863 
L 3481 4863 
L 3481 0 
L 2906 0 
L 2906 525 
Q 2725 213 2448 61 
Q 2172 -91 1784 -91 
Q 1150 -91 751 415 
Q 353 922 353 1747 
Q 353 2572 751 3078 
Q 1150 3584 1784 3584 
Q 2172 3584 2448 3432 
Q 2725 3281 2906 2969 
z
M 947 1747 
Q 947 1113 1208 752 
Q 1469 391 1925 391 
Q 2381 391 2643 752 
Q 2906 1113 2906 1747 
Q 2906 2381 2643 2742 
Q 2381 3103 1925 3103 
Q 1469 3103 1208 2742 
Q 947 2381 947 1747 
z
" transform="scale(0.015625)"/>
      <path id="DejaVuSans-62" d="M 3116 1747 
Q 3116 2381 2855 2742 
Q 2594 3103 2138 3103 
Q 1681 3103 1420 2742 
Q 1159 2381 1159 1747 
Q 1159 1113 1420 752 
Q 1681 391 2138 391 
Q 2594 391 2855 752 
Q 3116 1113 3116 1747 
z
M 1159 2969 
Q 1341 3281 1617 3432 
Q 1894 3584 2278 3584 
Q 2916 3584 3314 3078 
Q 3713 2572 3713 1747 
Q 3713 922 3314 415 
Q 2916 -91 2278 -91 
Q 1894 -91 1617 61 
Q 1341 213 1159 525 
L 1159 0 
L 581 0 
L 581 4863 
L 1159 4863 
L 1159 2969 
z
" transform="scale(0.015625)"/>
      <path id="DejaVuSans-66" d="M 2375 4863 
L 2375 4384 
L 1825 4384 
Q 1516 4384 1395 4259 
Q 1275 4134 1275 3809 
L 1275 3500 
L 2222 3500 
L 2222 3053 
L 1275 3053 
L 1275 0 
L 697 0 
L 697 3053 
L 147 3053 
L 147 3500 
L 697 3500 
L 697 3744 
Q 697 4328 969 4595 
Q 1241 4863 1831 4863 
L 2375 4863 
z
" transform="scale(0.015625)"/>
     </defs>
     <use xlink:href="#DejaVuSans-50"/>
     <use xlink:href="#DejaVuSans-6f" x="56.677734"/>
     <use xlink:href="#DejaVuSans-70" x="117.859375"/>
     <use xlink:href="#DejaVuSans-75" x="181.335938"/>
     <use xlink:href="#DejaVuSans-6c" x="244.714844"/>
     <use xlink:href="#DejaVuSans-61" x="272.498047"/>
     <use xlink:href="#DejaVuSans-74" x="333.777344"/>
     <use xlink:href="#DejaVuSans-69" x="372.986328"/>
     <use xlink:href="#DejaVuSans-6f" x="400.769531"/>
     <use xlink:href="#DejaVuSans-6e" x="461.951172"/>
     <use xlink:href="#DejaVuSans-27" x="525.330078"/>
     <use xlink:href="#DejaVuSans-73" x="552.820312"/>
     <use xlink:href="#DejaVuSans-20" x="604.919922"/>
     <use xlink:href="#DejaVuSans-61" x="636.707031"/>
     <use xlink:href="#DejaVuSans-76" x="697.986328"/>
     <use xlink:href="#DejaVuSans-65" x="757.166016"/>
     <use xlink:href="#DejaVuSans-72" x="818.689453"/>
     <use xlink:href="#DejaVuSans-61" x="859.802734"/>
     <use xlink:href="#DejaVuSans-67" x="921.082031"/>
     <use xlink:href="#DejaVuSans-65" x="984.558594"/>
     <use xlink:href="#DejaVuSans-20" x="1046.082031"/>
     <use xlink:href="#DejaVuSans-61" x="1077.869141"/>
     <use xlink:href="#DejaVuSans-6e" x="1139.148438"/>
     <use xlink:href="#DejaVuSans-64" x="1202.527344"/>
     <use xlink:href="#DejaVuSans-20" x="1266.003906"/>
     <use xlink:href="#DejaVuSans-62" x="1297.791016"/>
     <use xlink:href="#DejaVuSans-65" x="1361.267578"/>
     <use xlink:href="#DejaVuSans-73" x="1422.791016"/>
     <use xlink:href="#DejaVuSans-74" x="1474.890625"/>
     <use xlink:href="#DejaVuSans-20" x="1514.099609"/>
     <use xlink:href="#DejaVuSans-66" x="1545.886719"/>
     <use xlink:href="#DejaVuSans-69" x="1581.091797"/>
     <use xlink:href="#DejaVuSans-74" x="1608.875"/>
     <use xlink:href="#DejaVuSans-6e" x="1648.083984"/>
     <use xlink:href="#DejaVuSans-65" x="1711.462891"/>
     <use xlink:href="#DejaVuSans-73" x="1772.986328"/>
     <use xlink:href="#DejaVuSans-73" x="1825.085938"/>
    </g>
   </g>
   <g id="legend_1">
    <g id="patch_7">
     <path d="M 334.779375 205.38425 
L 407.72 205.38425 
Q 409.72 205.38425 409.72 203.38425 
L 409.72 145.67175 
Q 409.72 143.67175 407.72 143.67175 
L 334.779375 143.67175 
Q 332.779375 143.67175 332.779375 145.67175 
L 332.779375 203.38425 
Q 332.779375 205.38425 334.779375 205.38425 
z
" style="fill: #ffffff; opacity: 0.8; stroke: #cccccc; stroke-linejoin: miter"/>
    </g>
    <g id="line2d_37">
     <path d="M 336.779375 151.770188 
L 346.779375 151.770188 
L 356.779375 151.770188 
" style="fill: none; stroke: #0000ff; stroke-width: 1.5; stroke-linecap: square"/>
    </g>
    <g id="text_20">
     <!-- average -->
     <g transform="translate(364.779375 155.270188) scale(0.1 -0.1)">
      <use xlink:href="#DejaVuSans-61"/>
      <use xlink:href="#DejaVuSans-76" x="61.279297"/>
      <use xlink:href="#DejaVuSans-65" x="120.458984"/>
      <use xlink:href="#DejaVuSans-72" x="181.982422"/>
      <use xlink:href="#DejaVuSans-61" x="223.095703"/>
      <use xlink:href="#DejaVuSans-67" x="284.375"/>
      <use xlink:href="#DejaVuSans-65" x="347.851562"/>
     </g>
    </g>
    <g id="line2d_38">
     <path d="M 336.779375 166.448313 
L 346.779375 166.448313 
L 356.779375 166.448313 
" style="fill: none; stroke-dasharray: 9.6,2.4,1.5,2.4; stroke-dashoffset: 0; stroke: #008000; stroke-width: 1.5"/>
    </g>
    <g id="text_21">
     <!-- -1 sd -->
     <g transform="translate(364.779375 169.948313) scale(0.1 -0.1)">
      <defs>
       <path id="DejaVuSans-2d" d="M 313 2009 
L 1997 2009 
L 1997 1497 
L 313 1497 
L 313 2009 
z
" transform="scale(0.015625)"/>
      </defs>
      <use xlink:href="#DejaVuSans-2d"/>
      <use xlink:href="#DejaVuSans-31" x="36.083984"/>
      <use xlink:href="#DejaVuSans-20" x="99.707031"/>
      <use xlink:href="#DejaVuSans-73" x="131.494141"/>
      <use xlink:href="#DejaVuSans-64" x="183.59375"/>
     </g>
    </g>
    <g id="line2d_39">
     <path d="M 336.779375 181.126438 
L 346.779375 181.126438 
L 356.779375 181.126438 
" style="fill: none; stroke-dasharray: 9.6,2.4,1.5,2.4; stroke-dashoffset: 0; stroke: #008000; stroke-width: 1.5"/>
    </g>
    <g id="text_22">
     <!-- +1 sd -->
     <g transform="translate(364.779375 184.626438) scale(0.1 -0.1)">
      <defs>
       <path id="DejaVuSans-2b" d="M 2944 4013 
L 2944 2272 
L 4684 2272 
L 4684 1741 
L 2944 1741 
L 2944 0 
L 2419 0 
L 2419 1741 
L 678 1741 
L 678 2272 
L 2419 2272 
L 2419 4013 
L 2944 4013 
z
" transform="scale(0.015625)"/>
      </defs>
      <use xlink:href="#DejaVuSans-2b"/>
      <use xlink:href="#DejaVuSans-31" x="83.789062"/>
      <use xlink:href="#DejaVuSans-20" x="147.412109"/>
      <use xlink:href="#DejaVuSans-73" x="179.199219"/>
      <use xlink:href="#DejaVuSans-64" x="231.298828"/>
     </g>
    </g>
    <g id="line2d_40">
     <path d="M 336.779375 195.804563 
L 346.779375 195.804563 
L 356.779375 195.804563 
" style="fill: none; stroke: #ff0000; stroke-width: 1.5; stroke-linecap: square"/>
    </g>
    <g id="text_23">
     <!-- best -->
     <g transform="translate(364.779375 199.304563) scale(0.1 -0.1)">
      <use xlink:href="#DejaVuSans-62"/>
      <use xlink:href="#DejaVuSans-65" x="63.476562"/>
      <use xlink:href="#DejaVuSans-73" x="125"/>
      <use xlink:href="#DejaVuSans-74" x="177.099609"/>
     </g>
    </g>
   </g>
  </g>
 </g>
 <defs>
  <clipPath id="pe0853c925a">
   <rect x="57.6" y="41.472" width="357.12" height="266.112"/>
  </clipPath>
 </defs>
</svg>
