<?xml version="1.0" encoding="utf-8" standalone="no"?>
<!DOCTYPE svg PUBLIC "-//W3C//DTD SVG 1.1//EN"
  "http://www.w3.org/Graphics/SVG/1.1/DTD/svg11.dtd">
<svg xmlns:xlink="http://www.w3.org/1999/xlink" width="460.8pt" height="345.6pt" viewBox="0 0 460.8 345.6" xmlns="http://www.w3.org/2000/svg" version="1.1">
 <metadata>
  <rdf:RDF xmlns:dc="http://purl.org/dc/elements/1.1/" xmlns:cc="http://creativecommons.org/ns#" xmlns:rdf="http://www.w3.org/1999/02/22-rdf-syntax-ns#">
   <cc:Work>
    <dc:type rdf:resource="http://purl.org/dc/dcmitype/StillImage"/>
    <dc:date>2024-08-04T06:05:32.153205</dc:date>
    <dc:format>image/svg+xml</dc:format>
    <dc:creator>
     <cc:Agent>
      <dc:title>Matplotlib v3.8.4, https://matplotlib.org/</dc:title>
     </cc:Agent>
    </dc:creator>
   </cc:Work>
  </rdf:RDF>
 </metadata>
 <defs>
  <style type="text/css">*{stroke-linejoin: round; stroke-linecap: butt}</style>
 </defs>
 <g id="figure_1">
  <g id="patch_1">
   <path d="M 0 345.6 
L 460.8 345.6 
L 460.8 0 
L 0 0 
z
" style="fill: #ffffff"/>
  </g>
  <g id="axes_1">
   <g id="patch_2">
    <path d="M 57.6 307.584 
L 414.72 307.584 
L 414.72 41.472 
L 57.6 41.472 
z
" style="fill: #ffffff"/>
   </g>
   <g id="matplotlib.axis_1">
    <g id="xtick_1">
     <g id="line2d_1">
      <path d="M 73.832727 307.584 
L 73.832727 41.472 
" clip-path="url(#pf279bf967e)" style="fill: none; stroke: #b0b0b0; stroke-width: 0.8; stroke-linecap: square"/>
     </g>
     <g id="line2d_2">
      <defs>
       <path id="mf0eb432caa" d="M 0 0 
L 0 3.5 
" style="stroke: #000000; stroke-width: 0.8"/>
      </defs>
      <g>
       <use xlink:href="#mf0eb432caa" x="73.832727" y="307.584" style="stroke: #000000; stroke-width: 0.8"/>
      </g>
     </g>
     <g id="text_1">
      <!-- 0 -->
      <g transform="translate(70.651477 322.182437) scale(0.1 -0.1)">
       <defs>
        <path id="DejaVuSans-30" d="M 2034 4250 
Q 1547 4250 1301 3770 
Q 1056 3291 1056 2328 
Q 1056 1369 1301 889 
Q 1547 409 2034 409 
Q 2525 409 2770 889 
Q 3016 1369 3016 2328 
Q 3016 3291 2770 3770 
Q 2525 4250 2034 4250 
z
M 2034 4750 
Q 2819 4750 3233 4129 
Q 3647 3509 3647 2328 
Q 3647 1150 3233 529 
Q 2819 -91 2034 -91 
Q 1250 -91 836 529 
Q 422 1150 422 2328 
Q 422 3509 836 4129 
Q 1250 4750 2034 4750 
z
" transform="scale(0.015625)"/>
       </defs>
       <use xlink:href="#DejaVuSans-30"/>
      </g>
     </g>
    </g>
    <g id="xtick_2">
     <g id="line2d_3">
      <path d="M 114.618474 307.584 
L 114.618474 41.472 
" clip-path="url(#pf279bf967e)" style="fill: none; stroke: #b0b0b0; stroke-width: 0.8; stroke-linecap: square"/>
     </g>
     <g id="line2d_4">
      <g>
       <use xlink:href="#mf0eb432caa" x="114.618474" y="307.584" style="stroke: #000000; stroke-width: 0.8"/>
      </g>
     </g>
     <g id="text_2">
      <!-- 25 -->
      <g transform="translate(108.255974 322.182437) scale(0.1 -0.1)">
       <defs>
        <path id="DejaVuSans-32" d="M 1228 531 
L 3431 531 
L 3431 0 
L 469 0 
L 469 531 
Q 828 903 1448 1529 
Q 2069 2156 2228 2338 
Q 2531 2678 2651 2914 
Q 2772 3150 2772 3378 
Q 2772 3750 2511 3984 
Q 2250 4219 1831 4219 
Q 1534 4219 1204 4116 
Q 875 4013 500 3803 
L 500 4441 
Q 881 4594 1212 4672 
Q 1544 4750 1819 4750 
Q 2544 4750 2975 4387 
Q 3406 4025 3406 3419 
Q 3406 3131 3298 2873 
Q 3191 2616 2906 2266 
Q 2828 2175 2409 1742 
Q 1991 1309 1228 531 
z
" transform="scale(0.015625)"/>
        <path id="DejaVuSans-35" d="M 691 4666 
L 3169 4666 
L 3169 4134 
L 1269 4134 
L 1269 2991 
Q 1406 3038 1543 3061 
Q 1681 3084 1819 3084 
Q 2600 3084 3056 2656 
Q 3513 2228 3513 1497 
Q 3513 744 3044 326 
Q 2575 -91 1722 -91 
Q 1428 -91 1123 -41 
Q 819 9 494 109 
L 494 744 
Q 775 591 1075 516 
Q 1375 441 1709 441 
Q 2250 441 2565 725 
Q 2881 1009 2881 1497 
Q 2881 1984 2565 2268 
Q 2250 2553 1709 2553 
Q 1456 2553 1204 2497 
Q 953 2441 691 2322 
L 691 4666 
z
" transform="scale(0.015625)"/>
       </defs>
       <use xlink:href="#DejaVuSans-32"/>
       <use xlink:href="#DejaVuSans-35" x="63.623047"/>
      </g>
     </g>
    </g>
    <g id="xtick_3">
     <g id="line2d_5">
      <path d="M 155.404221 307.584 
L 155.404221 41.472 
" clip-path="url(#pf279bf967e)" style="fill: none; stroke: #b0b0b0; stroke-width: 0.8; stroke-linecap: square"/>
     </g>
     <g id="line2d_6">
      <g>
       <use xlink:href="#mf0eb432caa" x="155.404221" y="307.584" style="stroke: #000000; stroke-width: 0.8"/>
      </g>
     </g>
     <g id="text_3">
      <!-- 50 -->
      <g transform="translate(149.041721 322.182437) scale(0.1 -0.1)">
       <use xlink:href="#DejaVuSans-35"/>
       <use xlink:href="#DejaVuSans-30" x="63.623047"/>
      </g>
     </g>
    </g>
    <g id="xtick_4">
     <g id="line2d_7">
      <path d="M 196.189968 307.584 
L 196.189968 41.472 
" clip-path="url(#pf279bf967e)" style="fill: none; stroke: #b0b0b0; stroke-width: 0.8; stroke-linecap: square"/>
     </g>
     <g id="line2d_8">
      <g>
       <use xlink:href="#mf0eb432caa" x="196.189968" y="307.584" style="stroke: #000000; stroke-width: 0.8"/>
      </g>
     </g>
     <g id="text_4">
      <!-- 75 -->
      <g transform="translate(189.827468 322.182437) scale(0.1 -0.1)">
       <defs>
        <path id="DejaVuSans-37" d="M 525 4666 
L 3525 4666 
L 3525 4397 
L 1831 0 
L 1172 0 
L 2766 4134 
L 525 4134 
L 525 4666 
z
" transform="scale(0.015625)"/>
       </defs>
       <use xlink:href="#DejaVuSans-37"/>
       <use xlink:href="#DejaVuSans-35" x="63.623047"/>
      </g>
     </g>
    </g>
    <g id="xtick_5">
     <g id="line2d_9">
      <path d="M 236.975715 307.584 
L 236.975715 41.472 
" clip-path="url(#pf279bf967e)" style="fill: none; stroke: #b0b0b0; stroke-width: 0.8; stroke-linecap: square"/>
     </g>
     <g id="line2d_10">
      <g>
       <use xlink:href="#mf0eb432caa" x="236.975715" y="307.584" style="stroke: #000000; stroke-width: 0.8"/>
      </g>
     </g>
     <g id="text_5">
      <!-- 100 -->
      <g transform="translate(227.431965 322.182437) scale(0.1 -0.1)">
       <defs>
        <path id="DejaVuSans-31" d="M 794 531 
L 1825 531 
L 1825 4091 
L 703 3866 
L 703 4441 
L 1819 4666 
L 2450 4666 
L 2450 531 
L 3481 531 
L 3481 0 
L 794 0 
L 794 531 
z
" transform="scale(0.015625)"/>
       </defs>
       <use xlink:href="#DejaVuSans-31"/>
       <use xlink:href="#DejaVuSans-30" x="63.623047"/>
       <use xlink:href="#DejaVuSans-30" x="127.246094"/>
      </g>
     </g>
    </g>
    <g id="xtick_6">
     <g id="line2d_11">
      <path d="M 277.761462 307.584 
L 277.761462 41.472 
" clip-path="url(#pf279bf967e)" style="fill: none; stroke: #b0b0b0; stroke-width: 0.8; stroke-linecap: square"/>
     </g>
     <g id="line2d_12">
      <g>
       <use xlink:href="#mf0eb432caa" x="277.761462" y="307.584" style="stroke: #000000; stroke-width: 0.8"/>
      </g>
     </g>
     <g id="text_6">
      <!-- 125 -->
      <g transform="translate(268.217712 322.182437) scale(0.1 -0.1)">
       <use xlink:href="#DejaVuSans-31"/>
       <use xlink:href="#DejaVuSans-32" x="63.623047"/>
       <use xlink:href="#DejaVuSans-35" x="127.246094"/>
      </g>
     </g>
    </g>
    <g id="xtick_7">
     <g id="line2d_13">
      <path d="M 318.547209 307.584 
L 318.547209 41.472 
" clip-path="url(#pf279bf967e)" style="fill: none; stroke: #b0b0b0; stroke-width: 0.8; stroke-linecap: square"/>
     </g>
     <g id="line2d_14">
      <g>
       <use xlink:href="#mf0eb432caa" x="318.547209" y="307.584" style="stroke: #000000; stroke-width: 0.8"/>
      </g>
     </g>
     <g id="text_7">
      <!-- 150 -->
      <g transform="translate(309.003459 322.182437) scale(0.1 -0.1)">
       <use xlink:href="#DejaVuSans-31"/>
       <use xlink:href="#DejaVuSans-35" x="63.623047"/>
       <use xlink:href="#DejaVuSans-30" x="127.246094"/>
      </g>
     </g>
    </g>
    <g id="xtick_8">
     <g id="line2d_15">
      <path d="M 359.332956 307.584 
L 359.332956 41.472 
" clip-path="url(#pf279bf967e)" style="fill: none; stroke: #b0b0b0; stroke-width: 0.8; stroke-linecap: square"/>
     </g>
     <g id="line2d_16">
      <g>
       <use xlink:href="#mf0eb432caa" x="359.332956" y="307.584" style="stroke: #000000; stroke-width: 0.8"/>
      </g>
     </g>
     <g id="text_8">
      <!-- 175 -->
      <g transform="translate(349.789206 322.182437) scale(0.1 -0.1)">
       <use xlink:href="#DejaVuSans-31"/>
       <use xlink:href="#DejaVuSans-37" x="63.623047"/>
       <use xlink:href="#DejaVuSans-35" x="127.246094"/>
      </g>
     </g>
    </g>
    <g id="xtick_9">
     <g id="line2d_17">
      <path d="M 400.118703 307.584 
L 400.118703 41.472 
" clip-path="url(#pf279bf967e)" style="fill: none; stroke: #b0b0b0; stroke-width: 0.8; stroke-linecap: square"/>
     </g>
     <g id="line2d_18">
      <g>
       <use xlink:href="#mf0eb432caa" x="400.118703" y="307.584" style="stroke: #000000; stroke-width: 0.8"/>
      </g>
     </g>
     <g id="text_9">
      <!-- 200 -->
      <g transform="translate(390.574953 322.182437) scale(0.1 -0.1)">
       <use xlink:href="#DejaVuSans-32"/>
       <use xlink:href="#DejaVuSans-30" x="63.623047"/>
       <use xlink:href="#DejaVuSans-30" x="127.246094"/>
      </g>
     </g>
    </g>
    <g id="text_10">
     <!-- Generations -->
     <g transform="translate(205.662344 335.860562) scale(0.1 -0.1)">
      <defs>
       <path id="DejaVuSans-47" d="M 3809 666 
L 3809 1919 
L 2778 1919 
L 2778 2438 
L 4434 2438 
L 4434 434 
Q 4069 175 3628 42 
Q 3188 -91 2688 -91 
Q 1594 -91 976 548 
Q 359 1188 359 2328 
Q 359 3472 976 4111 
Q 1594 4750 2688 4750 
Q 3144 4750 3555 4637 
Q 3966 4525 4313 4306 
L 4313 3634 
Q 3963 3931 3569 4081 
Q 3175 4231 2741 4231 
Q 1884 4231 1454 3753 
Q 1025 3275 1025 2328 
Q 1025 1384 1454 906 
Q 1884 428 2741 428 
Q 3075 428 3337 486 
Q 3600 544 3809 666 
z
" transform="scale(0.015625)"/>
       <path id="DejaVuSans-65" d="M 3597 1894 
L 3597 1613 
L 953 1613 
Q 991 1019 1311 708 
Q 1631 397 2203 397 
Q 2534 397 2845 478 
Q 3156 559 3463 722 
L 3463 178 
Q 3153 47 2828 -22 
Q 2503 -91 2169 -91 
Q 1331 -91 842 396 
Q 353 884 353 1716 
Q 353 2575 817 3079 
Q 1281 3584 2069 3584 
Q 2775 3584 3186 3129 
Q 3597 2675 3597 1894 
z
M 3022 2063 
Q 3016 2534 2758 2815 
Q 2500 3097 2075 3097 
Q 1594 3097 1305 2825 
Q 1016 2553 972 2059 
L 3022 2063 
z
" transform="scale(0.015625)"/>
       <path id="DejaVuSans-6e" d="M 3513 2113 
L 3513 0 
L 2938 0 
L 2938 2094 
Q 2938 2591 2744 2837 
Q 2550 3084 2163 3084 
Q 1697 3084 1428 2787 
Q 1159 2491 1159 1978 
L 1159 0 
L 581 0 
L 581 3500 
L 1159 3500 
L 1159 2956 
Q 1366 3272 1645 3428 
Q 1925 3584 2291 3584 
Q 2894 3584 3203 3211 
Q 3513 2838 3513 2113 
z
" transform="scale(0.015625)"/>
       <path id="DejaVuSans-72" d="M 2631 2963 
Q 2534 3019 2420 3045 
Q 2306 3072 2169 3072 
Q 1681 3072 1420 2755 
Q 1159 2438 1159 1844 
L 1159 0 
L 581 0 
L 581 3500 
L 1159 3500 
L 1159 2956 
Q 1341 3275 1631 3429 
Q 1922 3584 2338 3584 
Q 2397 3584 2469 3576 
Q 2541 3569 2628 3553 
L 2631 2963 
z
" transform="scale(0.015625)"/>
       <path id="DejaVuSans-61" d="M 2194 1759 
Q 1497 1759 1228 1600 
Q 959 1441 959 1056 
Q 959 750 1161 570 
Q 1363 391 1709 391 
Q 2188 391 2477 730 
Q 2766 1069 2766 1631 
L 2766 1759 
L 2194 1759 
z
M 3341 1997 
L 3341 0 
L 2766 0 
L 2766 531 
Q 2569 213 2275 61 
Q 1981 -91 1556 -91 
Q 1019 -91 701 211 
Q 384 513 384 1019 
Q 384 1609 779 1909 
Q 1175 2209 1959 2209 
L 2766 2209 
L 2766 2266 
Q 2766 2663 2505 2880 
Q 2244 3097 1772 3097 
Q 1472 3097 1187 3025 
Q 903 2953 641 2809 
L 641 3341 
Q 956 3463 1253 3523 
Q 1550 3584 1831 3584 
Q 2591 3584 2966 3190 
Q 3341 2797 3341 1997 
z
" transform="scale(0.015625)"/>
       <path id="DejaVuSans-74" d="M 1172 4494 
L 1172 3500 
L 2356 3500 
L 2356 3053 
L 1172 3053 
L 1172 1153 
Q 1172 725 1289 603 
Q 1406 481 1766 481 
L 2356 481 
L 2356 0 
L 1766 0 
Q 1100 0 847 248 
Q 594 497 594 1153 
L 594 3053 
L 172 3053 
L 172 3500 
L 594 3500 
L 594 4494 
L 1172 4494 
z
" transform="scale(0.015625)"/>
       <path id="DejaVuSans-69" d="M 603 3500 
L 1178 3500 
L 1178 0 
L 603 0 
L 603 3500 
z
M 603 4863 
L 1178 4863 
L 1178 4134 
L 603 4134 
L 603 4863 
z
" transform="scale(0.015625)"/>
       <path id="DejaVuSans-6f" d="M 1959 3097 
Q 1497 3097 1228 2736 
Q 959 2375 959 1747 
Q 959 1119 1226 758 
Q 1494 397 1959 397 
Q 2419 397 2687 759 
Q 2956 1122 2956 1747 
Q 2956 2369 2687 2733 
Q 2419 3097 1959 3097 
z
M 1959 3584 
Q 2709 3584 3137 3096 
Q 3566 2609 3566 1747 
Q 3566 888 3137 398 
Q 2709 -91 1959 -91 
Q 1206 -91 779 398 
Q 353 888 353 1747 
Q 353 2609 779 3096 
Q 1206 3584 1959 3584 
z
" transform="scale(0.015625)"/>
       <path id="DejaVuSans-73" d="M 2834 3397 
L 2834 2853 
Q 2591 2978 2328 3040 
Q 2066 3103 1784 3103 
Q 1356 3103 1142 2972 
Q 928 2841 928 2578 
Q 928 2378 1081 2264 
Q 1234 2150 1697 2047 
L 1894 2003 
Q 2506 1872 2764 1633 
Q 3022 1394 3022 966 
Q 3022 478 2636 193 
Q 2250 -91 1575 -91 
Q 1294 -91 989 -36 
Q 684 19 347 128 
L 347 722 
Q 666 556 975 473 
Q 1284 391 1588 391 
Q 1994 391 2212 530 
Q 2431 669 2431 922 
Q 2431 1156 2273 1281 
Q 2116 1406 1581 1522 
L 1381 1569 
Q 847 1681 609 1914 
Q 372 2147 372 2553 
Q 372 3047 722 3315 
Q 1072 3584 1716 3584 
Q 2034 3584 2315 3537 
Q 2597 3491 2834 3397 
z
" transform="scale(0.015625)"/>
      </defs>
      <use xlink:href="#DejaVuSans-47"/>
      <use xlink:href="#DejaVuSans-65" x="77.490234"/>
      <use xlink:href="#DejaVuSans-6e" x="139.013672"/>
      <use xlink:href="#DejaVuSans-65" x="202.392578"/>
      <use xlink:href="#DejaVuSans-72" x="263.916016"/>
      <use xlink:href="#DejaVuSans-61" x="305.029297"/>
      <use xlink:href="#DejaVuSans-74" x="366.308594"/>
      <use xlink:href="#DejaVuSans-69" x="405.517578"/>
      <use xlink:href="#DejaVuSans-6f" x="433.300781"/>
      <use xlink:href="#DejaVuSans-6e" x="494.482422"/>
      <use xlink:href="#DejaVuSans-73" x="557.861328"/>
     </g>
    </g>
   </g>
   <g id="matplotlib.axis_2">
    <g id="ytick_1">
     <g id="line2d_19">
      <path d="M 57.6 277.114127 
L 414.72 277.114127 
" clip-path="url(#pf279bf967e)" style="fill: none; stroke: #b0b0b0; stroke-width: 0.8; stroke-linecap: square"/>
     </g>
     <g id="line2d_20">
      <defs>
       <path id="me7cd081c0d" d="M 0 0 
L -3.5 0 
" style="stroke: #000000; stroke-width: 0.8"/>
      </defs>
      <g>
       <use xlink:href="#me7cd081c0d" x="57.6" y="277.114127" style="stroke: #000000; stroke-width: 0.8"/>
      </g>
     </g>
     <g id="text_11">
      <!-- −2000 -->
      <g transform="translate(16.770313 280.913345) scale(0.1 -0.1)">
       <defs>
        <path id="DejaVuSans-2212" d="M 678 2272 
L 4684 2272 
L 4684 1741 
L 678 1741 
L 678 2272 
z
" transform="scale(0.015625)"/>
       </defs>
       <use xlink:href="#DejaVuSans-2212"/>
       <use xlink:href="#DejaVuSans-32" x="83.789062"/>
       <use xlink:href="#DejaVuSans-30" x="147.412109"/>
       <use xlink:href="#DejaVuSans-30" x="211.035156"/>
       <use xlink:href="#DejaVuSans-30" x="274.658203"/>
      </g>
     </g>
    </g>
    <g id="ytick_2">
     <g id="line2d_21">
      <path d="M 57.6 243.28467 
L 414.72 243.28467 
" clip-path="url(#pf279bf967e)" style="fill: none; stroke: #b0b0b0; stroke-width: 0.8; stroke-linecap: square"/>
     </g>
     <g id="line2d_22">
      <g>
       <use xlink:href="#me7cd081c0d" x="57.6" y="243.28467" style="stroke: #000000; stroke-width: 0.8"/>
      </g>
     </g>
     <g id="text_12">
      <!-- −1750 -->
      <g transform="translate(16.770313 247.083889) scale(0.1 -0.1)">
       <use xlink:href="#DejaVuSans-2212"/>
       <use xlink:href="#DejaVuSans-31" x="83.789062"/>
       <use xlink:href="#DejaVuSans-37" x="147.412109"/>
       <use xlink:href="#DejaVuSans-35" x="211.035156"/>
       <use xlink:href="#DejaVuSans-30" x="274.658203"/>
      </g>
     </g>
    </g>
    <g id="ytick_3">
     <g id="line2d_23">
      <path d="M 57.6 209.455214 
L 414.72 209.455214 
" clip-path="url(#pf279bf967e)" style="fill: none; stroke: #b0b0b0; stroke-width: 0.8; stroke-linecap: square"/>
     </g>
     <g id="line2d_24">
      <g>
       <use xlink:href="#me7cd081c0d" x="57.6" y="209.455214" style="stroke: #000000; stroke-width: 0.8"/>
      </g>
     </g>
     <g id="text_13">
      <!-- −1500 -->
      <g transform="translate(16.770313 213.254433) scale(0.1 -0.1)">
       <use xlink:href="#DejaVuSans-2212"/>
       <use xlink:href="#DejaVuSans-31" x="83.789062"/>
       <use xlink:href="#DejaVuSans-35" x="147.412109"/>
       <use xlink:href="#DejaVuSans-30" x="211.035156"/>
       <use xlink:href="#DejaVuSans-30" x="274.658203"/>
      </g>
     </g>
    </g>
    <g id="ytick_4">
     <g id="line2d_25">
      <path d="M 57.6 175.625758 
L 414.72 175.625758 
" clip-path="url(#pf279bf967e)" style="fill: none; stroke: #b0b0b0; stroke-width: 0.8; stroke-linecap: square"/>
     </g>
     <g id="line2d_26">
      <g>
       <use xlink:href="#me7cd081c0d" x="57.6" y="175.625758" style="stroke: #000000; stroke-width: 0.8"/>
      </g>
     </g>
     <g id="text_14">
      <!-- −1250 -->
      <g transform="translate(16.770313 179.424977) scale(0.1 -0.1)">
       <use xlink:href="#DejaVuSans-2212"/>
       <use xlink:href="#DejaVuSans-31" x="83.789062"/>
       <use xlink:href="#DejaVuSans-32" x="147.412109"/>
       <use xlink:href="#DejaVuSans-35" x="211.035156"/>
       <use xlink:href="#DejaVuSans-30" x="274.658203"/>
      </g>
     </g>
    </g>
    <g id="ytick_5">
     <g id="line2d_27">
      <path d="M 57.6 141.796302 
L 414.72 141.796302 
" clip-path="url(#pf279bf967e)" style="fill: none; stroke: #b0b0b0; stroke-width: 0.8; stroke-linecap: square"/>
     </g>
     <g id="line2d_28">
      <g>
       <use xlink:href="#me7cd081c0d" x="57.6" y="141.796302" style="stroke: #000000; stroke-width: 0.8"/>
      </g>
     </g>
     <g id="text_15">
      <!-- −1000 -->
      <g transform="translate(16.770313 145.59552) scale(0.1 -0.1)">
       <use xlink:href="#DejaVuSans-2212"/>
       <use xlink:href="#DejaVuSans-31" x="83.789062"/>
       <use xlink:href="#DejaVuSans-30" x="147.412109"/>
       <use xlink:href="#DejaVuSans-30" x="211.035156"/>
       <use xlink:href="#DejaVuSans-30" x="274.658203"/>
      </g>
     </g>
    </g>
    <g id="ytick_6">
     <g id="line2d_29">
      <path d="M 57.6 107.966845 
L 414.72 107.966845 
" clip-path="url(#pf279bf967e)" style="fill: none; stroke: #b0b0b0; stroke-width: 0.8; stroke-linecap: square"/>
     </g>
     <g id="line2d_30">
      <g>
       <use xlink:href="#me7cd081c0d" x="57.6" y="107.966845" style="stroke: #000000; stroke-width: 0.8"/>
      </g>
     </g>
     <g id="text_16">
      <!-- −750 -->
      <g transform="translate(23.132812 111.766064) scale(0.1 -0.1)">
       <use xlink:href="#DejaVuSans-2212"/>
       <use xlink:href="#DejaVuSans-37" x="83.789062"/>
       <use xlink:href="#DejaVuSans-35" x="147.412109"/>
       <use xlink:href="#DejaVuSans-30" x="211.035156"/>
      </g>
     </g>
    </g>
    <g id="ytick_7">
     <g id="line2d_31">
      <path d="M 57.6 74.137389 
L 414.72 74.137389 
" clip-path="url(#pf279bf967e)" style="fill: none; stroke: #b0b0b0; stroke-width: 0.8; stroke-linecap: square"/>
     </g>
     <g id="line2d_32">
      <g>
       <use xlink:href="#me7cd081c0d" x="57.6" y="74.137389" style="stroke: #000000; stroke-width: 0.8"/>
      </g>
     </g>
     <g id="text_17">
      <!-- −500 -->
      <g transform="translate(23.132812 77.936608) scale(0.1 -0.1)">
       <use xlink:href="#DejaVuSans-2212"/>
       <use xlink:href="#DejaVuSans-35" x="83.789062"/>
       <use xlink:href="#DejaVuSans-30" x="147.412109"/>
       <use xlink:href="#DejaVuSans-30" x="211.035156"/>
      </g>
     </g>
    </g>
    <g id="text_18">
     <!-- Fitness -->
     <g transform="translate(10.690625 191.845187) rotate(-90) scale(0.1 -0.1)">
      <defs>
       <path id="DejaVuSans-46" d="M 628 4666 
L 3309 4666 
L 3309 4134 
L 1259 4134 
L 1259 2759 
L 3109 2759 
L 3109 2228 
L 1259 2228 
L 1259 0 
L 628 0 
L 628 4666 
z
" transform="scale(0.015625)"/>
      </defs>
      <use xlink:href="#DejaVuSans-46"/>
      <use xlink:href="#DejaVuSans-69" x="50.269531"/>
      <use xlink:href="#DejaVuSans-74" x="78.052734"/>
      <use xlink:href="#DejaVuSans-6e" x="117.261719"/>
      <use xlink:href="#DejaVuSans-65" x="180.640625"/>
      <use xlink:href="#DejaVuSans-73" x="242.164062"/>
      <use xlink:href="#DejaVuSans-73" x="294.263672"/>
     </g>
    </g>
   </g>
   <g id="line2d_33">
    <path d="M 73.832727 258.915241 
L 75.464157 252.95162 
L 77.095587 249.149298 
L 78.727017 252.000119 
L 80.358447 251.56455 
L 81.989877 250.519482 
L 83.621307 250.35044 
L 85.252736 253.198108 
L 86.884166 250.4665 
L 88.515596 250.225905 
L 90.147026 250.955603 
L 91.778456 250.152824 
L 93.409886 248.867935 
L 95.041316 249.428753 
L 96.672746 250.549188 
L 98.304175 249.195318 
L 99.935605 248.896838 
L 101.567035 248.732318 
L 103.198465 246.503959 
L 104.829895 246.402328 
L 108.092755 246.608729 
L 109.724185 246.20577 
L 111.355614 243.115328 
L 112.987044 243.313122 
L 114.618474 240.46211 
L 116.249904 247.542795 
L 117.881334 248.374248 
L 119.512764 247.818232 
L 121.144194 247.476955 
L 122.775624 249.604099 
L 124.407053 249.718787 
L 126.038483 250.563755 
L 127.669913 249.818728 
L 129.301343 249.26508 
L 132.564203 248.541355 
L 134.195633 249.40742 
L 135.827063 249.522736 
L 137.458492 250.769422 
L 139.089922 250.438242 
L 140.721352 247.040607 
L 142.352782 249.91987 
L 143.984212 249.23233 
L 145.615642 250.290036 
L 147.247072 250.020687 
L 148.878502 252.33513 
L 150.509931 251.408963 
L 152.141361 250.849896 
L 155.404221 249.113369 
L 158.667081 250.365041 
L 160.298511 246.180997 
L 161.929941 245.693195 
L 165.1928 247.800796 
L 166.82423 248.312258 
L 168.45566 249.2016 
L 170.08709 249.432803 
L 171.71852 246.513549 
L 173.34995 246.276046 
L 174.98138 246.455296 
L 176.61281 247.174526 
L 178.244239 246.105484 
L 179.875669 247.955455 
L 181.507099 248.17595 
L 183.138529 248.567724 
L 184.769959 249.084205 
L 186.401389 246.73468 
L 188.032819 247.248681 
L 189.664249 248.70641 
L 191.295678 249.326647 
L 192.927108 249.15665 
L 194.558538 248.317508 
L 196.189968 250.49173 
L 197.821398 250.443253 
L 199.452828 250.162504 
L 201.084258 247.149246 
L 202.715688 247.689074 
L 204.347117 249.239241 
L 205.978547 248.772908 
L 207.609977 248.008259 
L 209.241407 247.417759 
L 210.872837 249.592066 
L 212.504267 245.933556 
L 214.135697 244.576619 
L 215.767127 247.122933 
L 217.398556 248.039246 
L 219.029986 249.355151 
L 220.661416 247.300345 
L 222.292846 247.646309 
L 223.924276 245.457741 
L 225.555706 247.273393 
L 227.187136 248.765545 
L 228.818566 248.840721 
L 230.449995 247.091106 
L 232.081425 246.794571 
L 233.712855 247.127533 
L 235.344285 246.419859 
L 236.975715 247.823439 
L 238.607145 247.039964 
L 240.238575 246.817683 
L 241.870005 244.35369 
L 243.501434 243.150303 
L 245.132864 243.776685 
L 246.764294 243.622751 
L 248.395724 242.281233 
L 250.027154 241.227461 
L 251.658584 242.780766 
L 253.290014 242.670745 
L 254.921444 239.826235 
L 256.552873 241.860159 
L 258.184303 242.996032 
L 259.815733 243.838087 
L 261.447163 245.359335 
L 263.078593 246.271309 
L 264.710023 245.277934 
L 266.341453 246.323357 
L 267.972883 245.762503 
L 269.604312 247.971638 
L 271.235742 245.113215 
L 272.867172 247.834543 
L 274.498602 246.608301 
L 277.761462 241.438396 
L 281.024322 240.805286 
L 282.655751 245.706076 
L 284.287181 247.970356 
L 285.918611 243.423215 
L 287.550041 250.646357 
L 289.181471 248.802439 
L 290.812901 248.261443 
L 292.444331 248.917584 
L 294.075761 249.371398 
L 295.70719 250.478831 
L 297.33862 250.970203 
L 298.97005 249.517407 
L 300.60148 249.933558 
L 303.86434 249.731134 
L 305.49577 248.330407 
L 307.1272 249.80413 
L 308.75863 249.676655 
L 312.021489 250.052882 
L 313.652919 249.955092 
L 315.284349 250.077734 
L 316.915779 251.465302 
L 318.547209 250.317761 
L 320.178639 250.926633 
L 321.810069 249.390701 
L 323.441498 249.9033 
L 325.072928 247.898825 
L 326.704358 250.864507 
L 328.335788 249.45304 
L 329.967218 245.742847 
L 331.598648 245.249762 
L 333.230078 245.880028 
L 334.861508 246.366195 
L 336.492937 247.785116 
L 338.124367 246.774098 
L 339.755797 246.366145 
L 341.387227 248.839688 
L 344.650087 247.548801 
L 346.281517 248.365637 
L 347.912947 247.936336 
L 349.544376 248.1429 
L 351.175806 248.094952 
L 352.807236 249.181202 
L 354.438666 248.46557 
L 357.701526 247.473783 
L 359.332956 247.144168 
L 360.964386 244.239845 
L 362.595815 244.1615 
L 364.227245 242.735571 
L 365.858675 244.715082 
L 367.490105 244.819382 
L 369.121535 241.784442 
L 370.752965 243.289098 
L 372.384395 245.416385 
L 374.015825 241.203632 
L 375.647254 244.095152 
L 377.278684 244.582254 
L 378.910114 244.367608 
L 380.541544 247.320946 
L 382.172974 242.66961 
L 383.804404 237.060176 
L 385.435834 241.724693 
L 387.067264 240.930698 
L 388.698693 240.395207 
L 390.330123 243.053233 
L 391.961553 246.072312 
L 393.592983 246.214859 
L 395.224413 246.00873 
L 396.855843 241.577023 
L 398.487273 244.421456 
L 398.487273 244.421456 
" clip-path="url(#pf279bf967e)" style="fill: none; stroke: #0000ff; stroke-width: 1.5; stroke-linecap: square"/>
   </g>
   <g id="line2d_34">
    <path d="M 73.832727 283.815842 
L 75.464157 289.289263 
L 77.095587 291.607929 
L 78.727017 285.998941 
L 80.358447 284.651719 
L 81.989877 283.802151 
L 83.621307 285.962508 
L 85.252736 283.433769 
L 86.884166 285.411456 
L 88.515596 285.666045 
L 90.147026 285.711563 
L 91.778456 284.718392 
L 95.041316 285.847941 
L 96.672746 285.035338 
L 98.304175 287.981328 
L 99.935605 287.979971 
L 101.567035 289.392819 
L 103.198465 288.747526 
L 104.829895 288.894739 
L 106.461325 288.071193 
L 108.092755 289.031719 
L 109.724185 290.417068 
L 111.355614 291.339813 
L 112.987044 293.113554 
L 114.618474 295.488 
L 116.249904 289.29997 
L 117.881334 290.120366 
L 119.512764 288.612255 
L 121.144194 289.247496 
L 122.775624 288.474864 
L 124.407053 285.190255 
L 126.038483 286.340025 
L 127.669913 284.748034 
L 129.301343 286.930799 
L 130.932773 286.380526 
L 132.564203 288.529324 
L 134.195633 285.049581 
L 135.827063 285.468969 
L 137.458492 283.568719 
L 139.089922 283.0597 
L 140.721352 288.033282 
L 142.352782 285.865851 
L 143.984212 285.237723 
L 145.615642 283.202598 
L 147.247072 284.487433 
L 148.878502 281.490632 
L 150.509931 282.180519 
L 152.141361 282.428842 
L 153.772791 283.717367 
L 155.404221 285.958626 
L 157.035651 285.642098 
L 158.667081 284.232392 
L 160.298511 287.737128 
L 161.929941 289.142504 
L 163.56137 287.774241 
L 165.1928 286.237217 
L 166.82423 286.869782 
L 168.45566 285.734846 
L 171.71852 287.30073 
L 173.34995 288.455831 
L 174.98138 287.020377 
L 176.61281 288.27649 
L 178.244239 287.063793 
L 179.875669 285.46835 
L 184.769959 284.71099 
L 186.401389 287.749393 
L 188.032819 287.80066 
L 189.664249 286.4174 
L 191.295678 285.826221 
L 192.927108 286.310039 
L 194.558538 287.537008 
L 196.189968 284.944594 
L 197.821398 283.226473 
L 199.452828 283.034732 
L 201.084258 286.368498 
L 202.715688 287.100676 
L 204.347117 284.366786 
L 205.978547 284.29496 
L 207.609977 286.223522 
L 209.241407 287.218869 
L 210.872837 285.942035 
L 212.504267 286.500817 
L 214.135697 289.320424 
L 215.767127 288.482722 
L 217.398556 287.955389 
L 219.029986 286.308247 
L 220.661416 288.22472 
L 222.292846 288.163529 
L 223.924276 290.424655 
L 225.555706 290.007254 
L 227.187136 289.127896 
L 228.818566 289.103832 
L 230.449995 289.907708 
L 232.081425 290.432942 
L 233.712855 291.240124 
L 235.344285 289.959221 
L 236.975715 288.426904 
L 238.607145 288.986371 
L 240.238575 288.972114 
L 241.870005 290.684532 
L 243.501434 292.665443 
L 245.132864 292.654904 
L 246.764294 293.75856 
L 248.395724 293.288339 
L 250.027154 293.843616 
L 251.658584 292.975161 
L 253.290014 294.079077 
L 254.921444 294.904023 
L 256.552873 294.575744 
L 258.184303 292.243135 
L 259.815733 292.663781 
L 261.447163 291.22141 
L 263.078593 292.174672 
L 264.710023 292.132041 
L 266.341453 288.982758 
L 267.972883 289.978069 
L 269.604312 289.785956 
L 271.235742 290.564445 
L 272.867172 289.816081 
L 274.498602 289.84284 
L 276.130032 292.266605 
L 279.392892 293.608841 
L 281.024322 293.654203 
L 282.655751 289.695651 
L 284.287181 287.25912 
L 285.918611 291.922952 
L 287.550041 284.835569 
L 289.181471 285.759451 
L 290.812901 287.519325 
L 292.444331 288.49738 
L 294.075761 287.469603 
L 295.70719 284.807739 
L 297.33862 285.606379 
L 298.97005 285.845407 
L 300.60148 284.815588 
L 302.23291 285.039023 
L 303.86434 284.898365 
L 305.49577 286.753559 
L 307.1272 285.022252 
L 308.75863 284.338276 
L 310.390059 284.570005 
L 312.021489 284.483984 
L 313.652919 285.007494 
L 315.284349 285.228576 
L 316.915779 283.92213 
L 320.178639 282.41526 
L 321.810069 284.876839 
L 323.441498 284.330437 
L 325.072928 287.973532 
L 326.704358 284.585404 
L 328.335788 285.681747 
L 329.967218 289.442172 
L 331.598648 290.03248 
L 333.230078 289.938069 
L 334.861508 291.831183 
L 338.124367 289.501147 
L 339.755797 289.352469 
L 341.387227 285.942553 
L 343.018657 287.4068 
L 344.650087 288.208771 
L 346.281517 287.022016 
L 347.912947 286.732177 
L 349.544376 287.803572 
L 352.807236 286.61665 
L 354.438666 285.698727 
L 356.070096 286.633851 
L 357.701526 286.841607 
L 359.332956 286.67647 
L 360.964386 289.405202 
L 362.595815 290.060245 
L 365.858675 289.913175 
L 367.490105 291.554906 
L 369.121535 292.966845 
L 370.752965 291.210583 
L 372.384395 292.734028 
L 374.015825 294.670247 
L 375.647254 293.182764 
L 377.278684 293.678828 
L 380.541544 290.503214 
L 382.172974 290.975531 
L 383.804404 295.2324 
L 385.435834 292.806134 
L 387.067264 295.378896 
L 388.698693 292.642581 
L 390.330123 291.767171 
L 391.961553 288.911004 
L 393.592983 291.663062 
L 395.224413 288.830684 
L 396.855843 293.159884 
L 398.487273 291.744938 
L 398.487273 291.744938 
" clip-path="url(#pf279bf967e)" style="fill: none; stroke-dasharray: 9.6,2.4,1.5,2.4; stroke-dashoffset: 0; stroke: #008000; stroke-width: 1.5"/>
   </g>
   <g id="line2d_35">
    <path d="M 73.832727 234.01464 
L 75.464157 216.613977 
L 77.095587 206.690667 
L 78.727017 218.001297 
L 80.358447 218.477381 
L 81.989877 217.236814 
L 83.621307 214.738372 
L 85.252736 222.962448 
L 86.884166 215.521544 
L 88.515596 214.785764 
L 90.147026 216.199642 
L 91.778456 215.587256 
L 93.409886 212.408295 
L 95.041316 213.009564 
L 96.672746 216.063039 
L 98.304175 210.409309 
L 99.935605 209.813705 
L 101.567035 208.071817 
L 103.198465 204.260391 
L 104.829895 203.909918 
L 106.461325 205.040468 
L 108.092755 204.18574 
L 109.724185 201.994473 
L 111.355614 194.890842 
L 112.987044 193.512689 
L 114.618474 185.436219 
L 116.249904 205.78562 
L 117.881334 206.62813 
L 119.512764 207.024209 
L 121.144194 205.706415 
L 122.775624 210.733334 
L 124.407053 214.24732 
L 126.038483 214.787485 
L 127.669913 214.889421 
L 129.301343 211.599361 
L 130.932773 211.497888 
L 132.564203 208.553387 
L 134.195633 213.765259 
L 135.827063 213.576503 
L 137.458492 217.970125 
L 139.089922 217.816783 
L 140.721352 206.047931 
L 142.352782 213.973889 
L 143.984212 213.226936 
L 145.615642 217.377473 
L 147.247072 215.553941 
L 148.878502 223.179628 
L 150.509931 220.637407 
L 152.141361 219.27095 
L 153.772791 216.20754 
L 155.404221 212.268112 
L 157.035651 213.90674 
L 158.667081 216.497689 
L 160.298511 204.624866 
L 161.929941 202.243887 
L 165.1928 209.364376 
L 166.82423 209.754734 
L 168.45566 212.668354 
L 170.08709 212.374926 
L 171.71852 205.726369 
L 173.34995 204.096261 
L 174.98138 205.890215 
L 176.61281 206.072562 
L 178.244239 205.147175 
L 179.875669 210.44256 
L 181.507099 211.138192 
L 183.138529 212.147282 
L 184.769959 213.457419 
L 186.401389 205.719966 
L 188.032819 206.696702 
L 189.664249 210.995419 
L 191.295678 212.827073 
L 192.927108 212.003262 
L 194.558538 209.098008 
L 196.189968 216.038866 
L 197.821398 217.660033 
L 199.452828 217.290276 
L 201.084258 207.929994 
L 202.715688 208.277473 
L 204.347117 214.111696 
L 205.978547 213.250857 
L 207.609977 209.792996 
L 209.241407 207.616648 
L 210.872837 213.242096 
L 212.504267 205.366295 
L 214.135697 199.832815 
L 215.767127 205.763144 
L 217.398556 208.123104 
L 219.029986 212.402055 
L 220.661416 206.37597 
L 222.292846 207.129089 
L 223.924276 200.490828 
L 227.187136 208.403193 
L 228.818566 208.577609 
L 230.449995 204.274505 
L 232.081425 203.156201 
L 235.344285 202.880496 
L 236.975715 207.219975 
L 238.607145 205.093556 
L 240.238575 204.663253 
L 241.870005 198.022848 
L 243.501434 193.635163 
L 245.132864 194.898465 
L 246.764294 193.486941 
L 248.395724 191.274127 
L 250.027154 188.611307 
L 251.658584 192.586372 
L 253.290014 191.262412 
L 254.921444 184.748447 
L 258.184303 193.74893 
L 259.815733 195.012392 
L 261.447163 199.497261 
L 263.078593 200.367947 
L 264.710023 198.423826 
L 266.341453 203.663957 
L 267.972883 201.546937 
L 269.604312 206.157321 
L 271.235742 199.661985 
L 272.867172 205.853004 
L 274.498602 203.373763 
L 276.130032 195.639047 
L 277.761462 189.948462 
L 279.392892 188.566143 
L 281.024322 187.956368 
L 282.655751 201.7165 
L 284.287181 208.681591 
L 285.918611 194.923478 
L 287.550041 216.457145 
L 289.181471 211.845426 
L 290.812901 209.003562 
L 292.444331 209.337788 
L 294.075761 211.273193 
L 295.70719 216.149923 
L 297.33862 216.334028 
L 298.97005 213.189407 
L 300.60148 215.051528 
L 302.23291 214.616799 
L 303.86434 214.563903 
L 305.49577 209.907254 
L 307.1272 214.586008 
L 308.75863 215.015034 
L 310.390059 215.136083 
L 312.021489 215.62178 
L 313.652919 214.902689 
L 315.284349 214.926892 
L 316.915779 219.008474 
L 318.547209 217.468037 
L 320.178639 219.438006 
L 321.810069 213.904564 
L 323.441498 215.476164 
L 325.072928 207.824119 
L 326.704358 217.143611 
L 328.335788 213.224333 
L 329.967218 202.043521 
L 331.598648 200.467045 
L 333.230078 201.821987 
L 334.861508 200.901206 
L 336.492937 204.856213 
L 338.124367 204.047048 
L 339.755797 203.379821 
L 341.387227 211.736822 
L 343.018657 208.861736 
L 344.650087 206.888831 
L 346.281517 209.709259 
L 349.544376 208.482228 
L 351.175806 209.009562 
L 352.807236 211.745754 
L 354.438666 211.232412 
L 356.070096 209.279231 
L 357.701526 208.105958 
L 359.332956 207.611865 
L 360.964386 199.074488 
L 362.595815 198.262755 
L 364.227245 195.460395 
L 365.858675 199.516988 
L 367.490105 198.083859 
L 369.121535 190.602038 
L 370.752965 195.367614 
L 372.384395 198.098742 
L 374.015825 187.737017 
L 375.647254 195.007541 
L 377.278684 195.48568 
L 378.910114 196.592282 
L 380.541544 204.138678 
L 382.172974 194.363688 
L 383.804404 178.887952 
L 385.435834 190.643251 
L 387.067264 186.482501 
L 388.698693 188.147832 
L 390.330123 194.339294 
L 391.961553 203.23362 
L 393.592983 200.766656 
L 395.224413 203.186776 
L 396.855843 189.994163 
L 398.487273 197.097973 
L 398.487273 197.097973 
" clip-path="url(#pf279bf967e)" style="fill: none; stroke-dasharray: 9.6,2.4,1.5,2.4; stroke-dashoffset: 0; stroke: #008000; stroke-width: 1.5"/>
   </g>
   <g id="line2d_36">
    <path d="M 73.832727 59.15261 
L 96.672746 59.15261 
L 98.304175 56.44081 
L 192.927108 56.44081 
L 194.558538 55.842701 
L 284.287181 55.842701 
L 285.918611 55.413741 
L 289.181471 55.413741 
L 290.812901 53.568 
L 398.487273 53.568 
L 398.487273 53.568 
" clip-path="url(#pf279bf967e)" style="fill: none; stroke: #ff0000; stroke-width: 1.5; stroke-linecap: square"/>
   </g>
   <g id="patch_3">
    <path d="M 57.6 307.584 
L 57.6 41.472 
" style="fill: none; stroke: #000000; stroke-width: 0.8; stroke-linejoin: miter; stroke-linecap: square"/>
   </g>
   <g id="patch_4">
    <path d="M 414.72 307.584 
L 414.72 41.472 
" style="fill: none; stroke: #000000; stroke-width: 0.8; stroke-linejoin: miter; stroke-linecap: square"/>
   </g>
   <g id="patch_5">
    <path d="M 57.6 307.584 
L 414.72 307.584 
" style="fill: none; stroke: #000000; stroke-width: 0.8; stroke-linejoin: miter; stroke-linecap: square"/>
   </g>
   <g id="patch_6">
    <path d="M 57.6 41.472 
L 414.72 41.472 
" style="fill: none; stroke: #000000; stroke-width: 0.8; stroke-linejoin: miter; stroke-linecap: square"/>
   </g>
   <g id="text_19">
    <!-- Population's average and best fitness -->
    <g transform="translate(123.529687 35.472) scale(0.12 -0.12)">
     <defs>
      <path id="DejaVuSans-50" d="M 1259 4147 
L 1259 2394 
L 2053 2394 
Q 2494 2394 2734 2622 
Q 2975 2850 2975 3272 
Q 2975 3691 2734 3919 
Q 2494 4147 2053 4147 
L 1259 4147 
z
M 628 4666 
L 2053 4666 
Q 2838 4666 3239 4311 
Q 3641 3956 3641 3272 
Q 3641 2581 3239 2228 
Q 2838 1875 2053 1875 
L 1259 1875 
L 1259 0 
L 628 0 
L 628 4666 
z
" transform="scale(0.015625)"/>
      <path id="DejaVuSans-70" d="M 1159 525 
L 1159 -1331 
L 581 -1331 
L 581 3500 
L 1159 3500 
L 1159 2969 
Q 1341 3281 1617 3432 
Q 1894 3584 2278 3584 
Q 2916 3584 3314 3078 
Q 3713 2572 3713 1747 
Q 3713 922 3314 415 
Q 2916 -91 2278 -91 
Q 1894 -91 1617 61 
Q 1341 213 1159 525 
z
M 3116 1747 
Q 3116 2381 2855 2742 
Q 2594 3103 2138 3103 
Q 1681 3103 1420 2742 
Q 1159 2381 1159 1747 
Q 1159 1113 1420 752 
Q 1681 391 2138 391 
Q 2594 391 2855 752 
Q 3116 1113 3116 1747 
z
" transform="scale(0.015625)"/>
      <path id="DejaVuSans-75" d="M 544 1381 
L 544 3500 
L 1119 3500 
L 1119 1403 
Q 1119 906 1312 657 
Q 1506 409 1894 409 
Q 2359 409 2629 706 
Q 2900 1003 2900 1516 
L 2900 3500 
L 3475 3500 
L 3475 0 
L 2900 0 
L 2900 538 
Q 2691 219 2414 64 
Q 2138 -91 1772 -91 
Q 1169 -91 856 284 
Q 544 659 544 1381 
z
M 1991 3584 
L 1991 3584 
z
" transform="scale(0.015625)"/>
      <path id="DejaVuSans-6c" d="M 603 4863 
L 1178 4863 
L 1178 0 
L 603 0 
L 603 4863 
z
" transform="scale(0.015625)"/>
      <path id="DejaVuSans-27" d="M 1147 4666 
L 1147 2931 
L 616 2931 
L 616 4666 
L 1147 4666 
z
" transform="scale(0.015625)"/>
      <path id="DejaVuSans-20" transform="scale(0.015625)"/>
      <path id="DejaVuSans-76" d="M 191 3500 
L 800 3500 
L 1894 563 
L 2988 3500 
L 3597 3500 
L 2284 0 
L 1503 0 
L 191 3500 
z
" transform="scale(0.015625)"/>
      <path id="DejaVuSans-67" d="M 2906 1791 
Q 2906 2416 2648 2759 
Q 2391 3103 1925 3103 
Q 1463 3103 1205 2759 
Q 947 2416 947 1791 
Q 947 1169 1205 825 
Q 1463 481 1925 481 
Q 2391 481 2648 825 
Q 2906 1169 2906 1791 
z
M 3481 434 
Q 3481 -459 3084 -895 
Q 2688 -1331 1869 -1331 
Q 1566 -1331 1297 -1286 
Q 1028 -1241 775 -1147 
L 775 -588 
Q 1028 -725 1275 -790 
Q 1522 -856 1778 -856 
Q 2344 -856 2625 -561 
Q 2906 -266 2906 331 
L 2906 616 
Q 2728 306 2450 153 
Q 2172 0 1784 0 
Q 1141 0 747 490 
Q 353 981 353 1791 
Q 353 2603 747 3093 
Q 1141 3584 1784 3584 
Q 2172 3584 2450 3431 
Q 2728 3278 2906 2969 
L 2906 3500 
L 3481 3500 
L 3481 434 
z
" transform="scale(0.015625)"/>
      <path id="DejaVuSans-64" d="M 2906 2969 
L 2906 4863 
L 3481 4863 
L 3481 0 
L 2906 0 
L 2906 525 
Q 2725 213 2448 61 
Q 2172 -91 1784 -91 
Q 1150 -91 751 415 
Q 353 922 353 1747 
Q 353 2572 751 3078 
Q 1150 3584 1784 3584 
Q 2172 3584 2448 3432 
Q 2725 3281 2906 2969 
z
M 947 1747 
Q 947 1113 1208 752 
Q 1469 391 1925 391 
Q 2381 391 2643 752 
Q 2906 1113 2906 1747 
Q 2906 2381 2643 2742 
Q 2381 3103 1925 3103 
Q 1469 3103 1208 2742 
Q 947 2381 947 1747 
z
" transform="scale(0.015625)"/>
      <path id="DejaVuSans-62" d="M 3116 1747 
Q 3116 2381 2855 2742 
Q 2594 3103 2138 3103 
Q 1681 3103 1420 2742 
Q 1159 2381 1159 1747 
Q 1159 1113 1420 752 
Q 1681 391 2138 391 
Q 2594 391 2855 752 
Q 3116 1113 3116 1747 
z
M 1159 2969 
Q 1341 3281 1617 3432 
Q 1894 3584 2278 3584 
Q 2916 3584 3314 3078 
Q 3713 2572 3713 1747 
Q 3713 922 3314 415 
Q 2916 -91 2278 -91 
Q 1894 -91 1617 61 
Q 1341 213 1159 525 
L 1159 0 
L 581 0 
L 581 4863 
L 1159 4863 
L 1159 2969 
z
" transform="scale(0.015625)"/>
      <path id="DejaVuSans-66" d="M 2375 4863 
L 2375 4384 
L 1825 4384 
Q 1516 4384 1395 4259 
Q 1275 4134 1275 3809 
L 1275 3500 
L 2222 3500 
L 2222 3053 
L 1275 3053 
L 1275 0 
L 697 0 
L 697 3053 
L 147 3053 
L 147 3500 
L 697 3500 
L 697 3744 
Q 697 4328 969 4595 
Q 1241 4863 1831 4863 
L 2375 4863 
z
" transform="scale(0.015625)"/>
     </defs>
     <use xlink:href="#DejaVuSans-50"/>
     <use xlink:href="#DejaVuSans-6f" x="56.677734"/>
     <use xlink:href="#DejaVuSans-70" x="117.859375"/>
     <use xlink:href="#DejaVuSans-75" x="181.335938"/>
     <use xlink:href="#DejaVuSans-6c" x="244.714844"/>
     <use xlink:href="#DejaVuSans-61" x="272.498047"/>
     <use xlink:href="#DejaVuSans-74" x="333.777344"/>
     <use xlink:href="#DejaVuSans-69" x="372.986328"/>
     <use xlink:href="#DejaVuSans-6f" x="400.769531"/>
     <use xlink:href="#DejaVuSans-6e" x="461.951172"/>
     <use xlink:href="#DejaVuSans-27" x="525.330078"/>
     <use xlink:href="#DejaVuSans-73" x="552.820312"/>
     <use xlink:href="#DejaVuSans-20" x="604.919922"/>
     <use xlink:href="#DejaVuSans-61" x="636.707031"/>
     <use xlink:href="#DejaVuSans-76" x="697.986328"/>
     <use xlink:href="#DejaVuSans-65" x="757.166016"/>
     <use xlink:href="#DejaVuSans-72" x="818.689453"/>
     <use xlink:href="#DejaVuSans-61" x="859.802734"/>
     <use xlink:href="#DejaVuSans-67" x="921.082031"/>
     <use xlink:href="#DejaVuSans-65" x="984.558594"/>
     <use xlink:href="#DejaVuSans-20" x="1046.082031"/>
     <use xlink:href="#DejaVuSans-61" x="1077.869141"/>
     <use xlink:href="#DejaVuSans-6e" x="1139.148438"/>
     <use xlink:href="#DejaVuSans-64" x="1202.527344"/>
     <use xlink:href="#DejaVuSans-20" x="1266.003906"/>
     <use xlink:href="#DejaVuSans-62" x="1297.791016"/>
     <use xlink:href="#DejaVuSans-65" x="1361.267578"/>
     <use xlink:href="#DejaVuSans-73" x="1422.791016"/>
     <use xlink:href="#DejaVuSans-74" x="1474.890625"/>
     <use xlink:href="#DejaVuSans-20" x="1514.099609"/>
     <use xlink:href="#DejaVuSans-66" x="1545.886719"/>
     <use xlink:href="#DejaVuSans-69" x="1581.091797"/>
     <use xlink:href="#DejaVuSans-74" x="1608.875"/>
     <use xlink:href="#DejaVuSans-6e" x="1648.083984"/>
     <use xlink:href="#DejaVuSans-65" x="1711.462891"/>
     <use xlink:href="#DejaVuSans-73" x="1772.986328"/>
     <use xlink:href="#DejaVuSans-73" x="1825.085938"/>
    </g>
   </g>
   <g id="legend_1">
    <g id="patch_7">
     <path d="M 64.6 205.38425 
L 137.540625 205.38425 
Q 139.540625 205.38425 139.540625 203.38425 
L 139.540625 145.67175 
Q 139.540625 143.67175 137.540625 143.67175 
L 64.6 143.67175 
Q 62.6 143.67175 62.6 145.67175 
L 62.6 203.38425 
Q 62.6 205.38425 64.6 205.38425 
z
" style="fill: #ffffff; opacity: 0.8; stroke: #cccccc; stroke-linejoin: miter"/>
    </g>
    <g id="line2d_37">
     <path d="M 66.6 151.770188 
L 76.6 151.770188 
L 86.6 151.770188 
" style="fill: none; stroke: #0000ff; stroke-width: 1.5; stroke-linecap: square"/>
    </g>
    <g id="text_20">
     <!-- average -->
     <g transform="translate(94.6 155.270188) scale(0.1 -0.1)">
      <use xlink:href="#DejaVuSans-61"/>
      <use xlink:href="#DejaVuSans-76" x="61.279297"/>
      <use xlink:href="#DejaVuSans-65" x="120.458984"/>
      <use xlink:href="#DejaVuSans-72" x="181.982422"/>
      <use xlink:href="#DejaVuSans-61" x="223.095703"/>
      <use xlink:href="#DejaVuSans-67" x="284.375"/>
      <use xlink:href="#DejaVuSans-65" x="347.851562"/>
     </g>
    </g>
    <g id="line2d_38">
     <path d="M 66.6 166.448313 
L 76.6 166.448313 
L 86.6 166.448313 
" style="fill: none; stroke-dasharray: 9.6,2.4,1.5,2.4; stroke-dashoffset: 0; stroke: #008000; stroke-width: 1.5"/>
    </g>
    <g id="text_21">
     <!-- -1 sd -->
     <g transform="translate(94.6 169.948313) scale(0.1 -0.1)">
      <defs>
       <path id="DejaVuSans-2d" d="M 313 2009 
L 1997 2009 
L 1997 1497 
L 313 1497 
L 313 2009 
z
" transform="scale(0.015625)"/>
      </defs>
      <use xlink:href="#DejaVuSans-2d"/>
      <use xlink:href="#DejaVuSans-31" x="36.083984"/>
      <use xlink:href="#DejaVuSans-20" x="99.707031"/>
      <use xlink:href="#DejaVuSans-73" x="131.494141"/>
      <use xlink:href="#DejaVuSans-64" x="183.59375"/>
     </g>
    </g>
    <g id="line2d_39">
     <path d="M 66.6 181.126438 
L 76.6 181.126438 
L 86.6 181.126438 
" style="fill: none; stroke-dasharray: 9.6,2.4,1.5,2.4; stroke-dashoffset: 0; stroke: #008000; stroke-width: 1.5"/>
    </g>
    <g id="text_22">
     <!-- +1 sd -->
     <g transform="translate(94.6 184.626438) scale(0.1 -0.1)">
      <defs>
       <path id="DejaVuSans-2b" d="M 2944 4013 
L 2944 2272 
L 4684 2272 
L 4684 1741 
L 2944 1741 
L 2944 0 
L 2419 0 
L 2419 1741 
L 678 1741 
L 678 2272 
L 2419 2272 
L 2419 4013 
L 2944 4013 
z
" transform="scale(0.015625)"/>
      </defs>
      <use xlink:href="#DejaVuSans-2b"/>
      <use xlink:href="#DejaVuSans-31" x="83.789062"/>
      <use xlink:href="#DejaVuSans-20" x="147.412109"/>
      <use xlink:href="#DejaVuSans-73" x="179.199219"/>
      <use xlink:href="#DejaVuSans-64" x="231.298828"/>
     </g>
    </g>
    <g id="line2d_40">
     <path d="M 66.6 195.804563 
L 76.6 195.804563 
L 86.6 195.804563 
" style="fill: none; stroke: #ff0000; stroke-width: 1.5; stroke-linecap: square"/>
    </g>
    <g id="text_23">
     <!-- best -->
     <g transform="translate(94.6 199.304563) scale(0.1 -0.1)">
      <use xlink:href="#DejaVuSans-62"/>
      <use xlink:href="#DejaVuSans-65" x="63.476562"/>
      <use xlink:href="#DejaVuSans-73" x="125"/>
      <use xlink:href="#DejaVuSans-74" x="177.099609"/>
     </g>
    </g>
   </g>
  </g>
 </g>
 <defs>
  <clipPath id="pf279bf967e">
   <rect x="57.6" y="41.472" width="357.12" height="266.112"/>
  </clipPath>
 </defs>
</svg>
