<?xml version="1.0" encoding="utf-8" standalone="no"?>
<!DOCTYPE svg PUBLIC "-//W3C//DTD SVG 1.1//EN"
  "http://www.w3.org/Graphics/SVG/1.1/DTD/svg11.dtd">
<svg xmlns:xlink="http://www.w3.org/1999/xlink" width="460.8pt" height="345.6pt" viewBox="0 0 460.8 345.6" xmlns="http://www.w3.org/2000/svg" version="1.1">
 <metadata>
  <rdf:RDF xmlns:dc="http://purl.org/dc/elements/1.1/" xmlns:cc="http://creativecommons.org/ns#" xmlns:rdf="http://www.w3.org/1999/02/22-rdf-syntax-ns#">
   <cc:Work>
    <dc:type rdf:resource="http://purl.org/dc/dcmitype/StillImage"/>
    <dc:date>2024-08-06T06:29:57.164574</dc:date>
    <dc:format>image/svg+xml</dc:format>
    <dc:creator>
     <cc:Agent>
      <dc:title>Matplotlib v3.8.4, https://matplotlib.org/</dc:title>
     </cc:Agent>
    </dc:creator>
   </cc:Work>
  </rdf:RDF>
 </metadata>
 <defs>
  <style type="text/css">*{stroke-linejoin: round; stroke-linecap: butt}</style>
 </defs>
 <g id="figure_1">
  <g id="patch_1">
   <path d="M 0 345.6 
L 460.8 345.6 
L 460.8 0 
L 0 0 
z
" style="fill: #ffffff"/>
  </g>
  <g id="axes_1">
   <g id="patch_2">
    <path d="M 57.6 307.584 
L 414.72 307.584 
L 414.72 41.472 
L 57.6 41.472 
z
" style="fill: #ffffff"/>
   </g>
   <g id="matplotlib.axis_1">
    <g id="xtick_1">
     <g id="line2d_1">
      <path d="M 73.832727 307.584 
L 73.832727 41.472 
" clip-path="url(#p8dc20b6ef9)" style="fill: none; stroke: #b0b0b0; stroke-width: 0.8; stroke-linecap: square"/>
     </g>
     <g id="line2d_2">
      <defs>
       <path id="m20ac05d3d2" d="M 0 0 
L 0 3.5 
" style="stroke: #000000; stroke-width: 0.8"/>
      </defs>
      <g>
       <use xlink:href="#m20ac05d3d2" x="73.832727" y="307.584" style="stroke: #000000; stroke-width: 0.8"/>
      </g>
     </g>
     <g id="text_1">
      <!-- 0 -->
      <g transform="translate(70.651477 322.182437) scale(0.1 -0.1)">
       <defs>
        <path id="DejaVuSans-30" d="M 2034 4250 
Q 1547 4250 1301 3770 
Q 1056 3291 1056 2328 
Q 1056 1369 1301 889 
Q 1547 409 2034 409 
Q 2525 409 2770 889 
Q 3016 1369 3016 2328 
Q 3016 3291 2770 3770 
Q 2525 4250 2034 4250 
z
M 2034 4750 
Q 2819 4750 3233 4129 
Q 3647 3509 3647 2328 
Q 3647 1150 3233 529 
Q 2819 -91 2034 -91 
Q 1250 -91 836 529 
Q 422 1150 422 2328 
Q 422 3509 836 4129 
Q 1250 4750 2034 4750 
z
" transform="scale(0.015625)"/>
       </defs>
       <use xlink:href="#DejaVuSans-30"/>
      </g>
     </g>
    </g>
    <g id="xtick_2">
     <g id="line2d_3">
      <path d="M 114.618474 307.584 
L 114.618474 41.472 
" clip-path="url(#p8dc20b6ef9)" style="fill: none; stroke: #b0b0b0; stroke-width: 0.8; stroke-linecap: square"/>
     </g>
     <g id="line2d_4">
      <g>
       <use xlink:href="#m20ac05d3d2" x="114.618474" y="307.584" style="stroke: #000000; stroke-width: 0.8"/>
      </g>
     </g>
     <g id="text_2">
      <!-- 25 -->
      <g transform="translate(108.255974 322.182437) scale(0.1 -0.1)">
       <defs>
        <path id="DejaVuSans-32" d="M 1228 531 
L 3431 531 
L 3431 0 
L 469 0 
L 469 531 
Q 828 903 1448 1529 
Q 2069 2156 2228 2338 
Q 2531 2678 2651 2914 
Q 2772 3150 2772 3378 
Q 2772 3750 2511 3984 
Q 2250 4219 1831 4219 
Q 1534 4219 1204 4116 
Q 875 4013 500 3803 
L 500 4441 
Q 881 4594 1212 4672 
Q 1544 4750 1819 4750 
Q 2544 4750 2975 4387 
Q 3406 4025 3406 3419 
Q 3406 3131 3298 2873 
Q 3191 2616 2906 2266 
Q 2828 2175 2409 1742 
Q 1991 1309 1228 531 
z
" transform="scale(0.015625)"/>
        <path id="DejaVuSans-35" d="M 691 4666 
L 3169 4666 
L 3169 4134 
L 1269 4134 
L 1269 2991 
Q 1406 3038 1543 3061 
Q 1681 3084 1819 3084 
Q 2600 3084 3056 2656 
Q 3513 2228 3513 1497 
Q 3513 744 3044 326 
Q 2575 -91 1722 -91 
Q 1428 -91 1123 -41 
Q 819 9 494 109 
L 494 744 
Q 775 591 1075 516 
Q 1375 441 1709 441 
Q 2250 441 2565 725 
Q 2881 1009 2881 1497 
Q 2881 1984 2565 2268 
Q 2250 2553 1709 2553 
Q 1456 2553 1204 2497 
Q 953 2441 691 2322 
L 691 4666 
z
" transform="scale(0.015625)"/>
       </defs>
       <use xlink:href="#DejaVuSans-32"/>
       <use xlink:href="#DejaVuSans-35" x="63.623047"/>
      </g>
     </g>
    </g>
    <g id="xtick_3">
     <g id="line2d_5">
      <path d="M 155.404221 307.584 
L 155.404221 41.472 
" clip-path="url(#p8dc20b6ef9)" style="fill: none; stroke: #b0b0b0; stroke-width: 0.8; stroke-linecap: square"/>
     </g>
     <g id="line2d_6">
      <g>
       <use xlink:href="#m20ac05d3d2" x="155.404221" y="307.584" style="stroke: #000000; stroke-width: 0.8"/>
      </g>
     </g>
     <g id="text_3">
      <!-- 50 -->
      <g transform="translate(149.041721 322.182437) scale(0.1 -0.1)">
       <use xlink:href="#DejaVuSans-35"/>
       <use xlink:href="#DejaVuSans-30" x="63.623047"/>
      </g>
     </g>
    </g>
    <g id="xtick_4">
     <g id="line2d_7">
      <path d="M 196.189968 307.584 
L 196.189968 41.472 
" clip-path="url(#p8dc20b6ef9)" style="fill: none; stroke: #b0b0b0; stroke-width: 0.8; stroke-linecap: square"/>
     </g>
     <g id="line2d_8">
      <g>
       <use xlink:href="#m20ac05d3d2" x="196.189968" y="307.584" style="stroke: #000000; stroke-width: 0.8"/>
      </g>
     </g>
     <g id="text_4">
      <!-- 75 -->
      <g transform="translate(189.827468 322.182437) scale(0.1 -0.1)">
       <defs>
        <path id="DejaVuSans-37" d="M 525 4666 
L 3525 4666 
L 3525 4397 
L 1831 0 
L 1172 0 
L 2766 4134 
L 525 4134 
L 525 4666 
z
" transform="scale(0.015625)"/>
       </defs>
       <use xlink:href="#DejaVuSans-37"/>
       <use xlink:href="#DejaVuSans-35" x="63.623047"/>
      </g>
     </g>
    </g>
    <g id="xtick_5">
     <g id="line2d_9">
      <path d="M 236.975715 307.584 
L 236.975715 41.472 
" clip-path="url(#p8dc20b6ef9)" style="fill: none; stroke: #b0b0b0; stroke-width: 0.8; stroke-linecap: square"/>
     </g>
     <g id="line2d_10">
      <g>
       <use xlink:href="#m20ac05d3d2" x="236.975715" y="307.584" style="stroke: #000000; stroke-width: 0.8"/>
      </g>
     </g>
     <g id="text_5">
      <!-- 100 -->
      <g transform="translate(227.431965 322.182437) scale(0.1 -0.1)">
       <defs>
        <path id="DejaVuSans-31" d="M 794 531 
L 1825 531 
L 1825 4091 
L 703 3866 
L 703 4441 
L 1819 4666 
L 2450 4666 
L 2450 531 
L 3481 531 
L 3481 0 
L 794 0 
L 794 531 
z
" transform="scale(0.015625)"/>
       </defs>
       <use xlink:href="#DejaVuSans-31"/>
       <use xlink:href="#DejaVuSans-30" x="63.623047"/>
       <use xlink:href="#DejaVuSans-30" x="127.246094"/>
      </g>
     </g>
    </g>
    <g id="xtick_6">
     <g id="line2d_11">
      <path d="M 277.761462 307.584 
L 277.761462 41.472 
" clip-path="url(#p8dc20b6ef9)" style="fill: none; stroke: #b0b0b0; stroke-width: 0.8; stroke-linecap: square"/>
     </g>
     <g id="line2d_12">
      <g>
       <use xlink:href="#m20ac05d3d2" x="277.761462" y="307.584" style="stroke: #000000; stroke-width: 0.8"/>
      </g>
     </g>
     <g id="text_6">
      <!-- 125 -->
      <g transform="translate(268.217712 322.182437) scale(0.1 -0.1)">
       <use xlink:href="#DejaVuSans-31"/>
       <use xlink:href="#DejaVuSans-32" x="63.623047"/>
       <use xlink:href="#DejaVuSans-35" x="127.246094"/>
      </g>
     </g>
    </g>
    <g id="xtick_7">
     <g id="line2d_13">
      <path d="M 318.547209 307.584 
L 318.547209 41.472 
" clip-path="url(#p8dc20b6ef9)" style="fill: none; stroke: #b0b0b0; stroke-width: 0.8; stroke-linecap: square"/>
     </g>
     <g id="line2d_14">
      <g>
       <use xlink:href="#m20ac05d3d2" x="318.547209" y="307.584" style="stroke: #000000; stroke-width: 0.8"/>
      </g>
     </g>
     <g id="text_7">
      <!-- 150 -->
      <g transform="translate(309.003459 322.182437) scale(0.1 -0.1)">
       <use xlink:href="#DejaVuSans-31"/>
       <use xlink:href="#DejaVuSans-35" x="63.623047"/>
       <use xlink:href="#DejaVuSans-30" x="127.246094"/>
      </g>
     </g>
    </g>
    <g id="xtick_8">
     <g id="line2d_15">
      <path d="M 359.332956 307.584 
L 359.332956 41.472 
" clip-path="url(#p8dc20b6ef9)" style="fill: none; stroke: #b0b0b0; stroke-width: 0.8; stroke-linecap: square"/>
     </g>
     <g id="line2d_16">
      <g>
       <use xlink:href="#m20ac05d3d2" x="359.332956" y="307.584" style="stroke: #000000; stroke-width: 0.8"/>
      </g>
     </g>
     <g id="text_8">
      <!-- 175 -->
      <g transform="translate(349.789206 322.182437) scale(0.1 -0.1)">
       <use xlink:href="#DejaVuSans-31"/>
       <use xlink:href="#DejaVuSans-37" x="63.623047"/>
       <use xlink:href="#DejaVuSans-35" x="127.246094"/>
      </g>
     </g>
    </g>
    <g id="xtick_9">
     <g id="line2d_17">
      <path d="M 400.118703 307.584 
L 400.118703 41.472 
" clip-path="url(#p8dc20b6ef9)" style="fill: none; stroke: #b0b0b0; stroke-width: 0.8; stroke-linecap: square"/>
     </g>
     <g id="line2d_18">
      <g>
       <use xlink:href="#m20ac05d3d2" x="400.118703" y="307.584" style="stroke: #000000; stroke-width: 0.8"/>
      </g>
     </g>
     <g id="text_9">
      <!-- 200 -->
      <g transform="translate(390.574953 322.182437) scale(0.1 -0.1)">
       <use xlink:href="#DejaVuSans-32"/>
       <use xlink:href="#DejaVuSans-30" x="63.623047"/>
       <use xlink:href="#DejaVuSans-30" x="127.246094"/>
      </g>
     </g>
    </g>
    <g id="text_10">
     <!-- Generations -->
     <g transform="translate(205.662344 335.860562) scale(0.1 -0.1)">
      <defs>
       <path id="DejaVuSans-47" d="M 3809 666 
L 3809 1919 
L 2778 1919 
L 2778 2438 
L 4434 2438 
L 4434 434 
Q 4069 175 3628 42 
Q 3188 -91 2688 -91 
Q 1594 -91 976 548 
Q 359 1188 359 2328 
Q 359 3472 976 4111 
Q 1594 4750 2688 4750 
Q 3144 4750 3555 4637 
Q 3966 4525 4313 4306 
L 4313 3634 
Q 3963 3931 3569 4081 
Q 3175 4231 2741 4231 
Q 1884 4231 1454 3753 
Q 1025 3275 1025 2328 
Q 1025 1384 1454 906 
Q 1884 428 2741 428 
Q 3075 428 3337 486 
Q 3600 544 3809 666 
z
" transform="scale(0.015625)"/>
       <path id="DejaVuSans-65" d="M 3597 1894 
L 3597 1613 
L 953 1613 
Q 991 1019 1311 708 
Q 1631 397 2203 397 
Q 2534 397 2845 478 
Q 3156 559 3463 722 
L 3463 178 
Q 3153 47 2828 -22 
Q 2503 -91 2169 -91 
Q 1331 -91 842 396 
Q 353 884 353 1716 
Q 353 2575 817 3079 
Q 1281 3584 2069 3584 
Q 2775 3584 3186 3129 
Q 3597 2675 3597 1894 
z
M 3022 2063 
Q 3016 2534 2758 2815 
Q 2500 3097 2075 3097 
Q 1594 3097 1305 2825 
Q 1016 2553 972 2059 
L 3022 2063 
z
" transform="scale(0.015625)"/>
       <path id="DejaVuSans-6e" d="M 3513 2113 
L 3513 0 
L 2938 0 
L 2938 2094 
Q 2938 2591 2744 2837 
Q 2550 3084 2163 3084 
Q 1697 3084 1428 2787 
Q 1159 2491 1159 1978 
L 1159 0 
L 581 0 
L 581 3500 
L 1159 3500 
L 1159 2956 
Q 1366 3272 1645 3428 
Q 1925 3584 2291 3584 
Q 2894 3584 3203 3211 
Q 3513 2838 3513 2113 
z
" transform="scale(0.015625)"/>
       <path id="DejaVuSans-72" d="M 2631 2963 
Q 2534 3019 2420 3045 
Q 2306 3072 2169 3072 
Q 1681 3072 1420 2755 
Q 1159 2438 1159 1844 
L 1159 0 
L 581 0 
L 581 3500 
L 1159 3500 
L 1159 2956 
Q 1341 3275 1631 3429 
Q 1922 3584 2338 3584 
Q 2397 3584 2469 3576 
Q 2541 3569 2628 3553 
L 2631 2963 
z
" transform="scale(0.015625)"/>
       <path id="DejaVuSans-61" d="M 2194 1759 
Q 1497 1759 1228 1600 
Q 959 1441 959 1056 
Q 959 750 1161 570 
Q 1363 391 1709 391 
Q 2188 391 2477 730 
Q 2766 1069 2766 1631 
L 2766 1759 
L 2194 1759 
z
M 3341 1997 
L 3341 0 
L 2766 0 
L 2766 531 
Q 2569 213 2275 61 
Q 1981 -91 1556 -91 
Q 1019 -91 701 211 
Q 384 513 384 1019 
Q 384 1609 779 1909 
Q 1175 2209 1959 2209 
L 2766 2209 
L 2766 2266 
Q 2766 2663 2505 2880 
Q 2244 3097 1772 3097 
Q 1472 3097 1187 3025 
Q 903 2953 641 2809 
L 641 3341 
Q 956 3463 1253 3523 
Q 1550 3584 1831 3584 
Q 2591 3584 2966 3190 
Q 3341 2797 3341 1997 
z
" transform="scale(0.015625)"/>
       <path id="DejaVuSans-74" d="M 1172 4494 
L 1172 3500 
L 2356 3500 
L 2356 3053 
L 1172 3053 
L 1172 1153 
Q 1172 725 1289 603 
Q 1406 481 1766 481 
L 2356 481 
L 2356 0 
L 1766 0 
Q 1100 0 847 248 
Q 594 497 594 1153 
L 594 3053 
L 172 3053 
L 172 3500 
L 594 3500 
L 594 4494 
L 1172 4494 
z
" transform="scale(0.015625)"/>
       <path id="DejaVuSans-69" d="M 603 3500 
L 1178 3500 
L 1178 0 
L 603 0 
L 603 3500 
z
M 603 4863 
L 1178 4863 
L 1178 4134 
L 603 4134 
L 603 4863 
z
" transform="scale(0.015625)"/>
       <path id="DejaVuSans-6f" d="M 1959 3097 
Q 1497 3097 1228 2736 
Q 959 2375 959 1747 
Q 959 1119 1226 758 
Q 1494 397 1959 397 
Q 2419 397 2687 759 
Q 2956 1122 2956 1747 
Q 2956 2369 2687 2733 
Q 2419 3097 1959 3097 
z
M 1959 3584 
Q 2709 3584 3137 3096 
Q 3566 2609 3566 1747 
Q 3566 888 3137 398 
Q 2709 -91 1959 -91 
Q 1206 -91 779 398 
Q 353 888 353 1747 
Q 353 2609 779 3096 
Q 1206 3584 1959 3584 
z
" transform="scale(0.015625)"/>
       <path id="DejaVuSans-73" d="M 2834 3397 
L 2834 2853 
Q 2591 2978 2328 3040 
Q 2066 3103 1784 3103 
Q 1356 3103 1142 2972 
Q 928 2841 928 2578 
Q 928 2378 1081 2264 
Q 1234 2150 1697 2047 
L 1894 2003 
Q 2506 1872 2764 1633 
Q 3022 1394 3022 966 
Q 3022 478 2636 193 
Q 2250 -91 1575 -91 
Q 1294 -91 989 -36 
Q 684 19 347 128 
L 347 722 
Q 666 556 975 473 
Q 1284 391 1588 391 
Q 1994 391 2212 530 
Q 2431 669 2431 922 
Q 2431 1156 2273 1281 
Q 2116 1406 1581 1522 
L 1381 1569 
Q 847 1681 609 1914 
Q 372 2147 372 2553 
Q 372 3047 722 3315 
Q 1072 3584 1716 3584 
Q 2034 3584 2315 3537 
Q 2597 3491 2834 3397 
z
" transform="scale(0.015625)"/>
      </defs>
      <use xlink:href="#DejaVuSans-47"/>
      <use xlink:href="#DejaVuSans-65" x="77.490234"/>
      <use xlink:href="#DejaVuSans-6e" x="139.013672"/>
      <use xlink:href="#DejaVuSans-65" x="202.392578"/>
      <use xlink:href="#DejaVuSans-72" x="263.916016"/>
      <use xlink:href="#DejaVuSans-61" x="305.029297"/>
      <use xlink:href="#DejaVuSans-74" x="366.308594"/>
      <use xlink:href="#DejaVuSans-69" x="405.517578"/>
      <use xlink:href="#DejaVuSans-6f" x="433.300781"/>
      <use xlink:href="#DejaVuSans-6e" x="494.482422"/>
      <use xlink:href="#DejaVuSans-73" x="557.861328"/>
     </g>
    </g>
   </g>
   <g id="matplotlib.axis_2">
    <g id="ytick_1">
     <g id="line2d_19">
      <path d="M 57.6 269.510601 
L 414.72 269.510601 
" clip-path="url(#p8dc20b6ef9)" style="fill: none; stroke: #b0b0b0; stroke-width: 0.8; stroke-linecap: square"/>
     </g>
     <g id="line2d_20">
      <defs>
       <path id="m026cba4f1c" d="M 0 0 
L -3.5 0 
" style="stroke: #000000; stroke-width: 0.8"/>
      </defs>
      <g>
       <use xlink:href="#m026cba4f1c" x="57.6" y="269.510601" style="stroke: #000000; stroke-width: 0.8"/>
      </g>
     </g>
     <g id="text_11">
      <!-- −1900 -->
      <g transform="translate(16.770313 273.30982) scale(0.1 -0.1)">
       <defs>
        <path id="DejaVuSans-2212" d="M 678 2272 
L 4684 2272 
L 4684 1741 
L 678 1741 
L 678 2272 
z
" transform="scale(0.015625)"/>
        <path id="DejaVuSans-39" d="M 703 97 
L 703 672 
Q 941 559 1184 500 
Q 1428 441 1663 441 
Q 2288 441 2617 861 
Q 2947 1281 2994 2138 
Q 2813 1869 2534 1725 
Q 2256 1581 1919 1581 
Q 1219 1581 811 2004 
Q 403 2428 403 3163 
Q 403 3881 828 4315 
Q 1253 4750 1959 4750 
Q 2769 4750 3195 4129 
Q 3622 3509 3622 2328 
Q 3622 1225 3098 567 
Q 2575 -91 1691 -91 
Q 1453 -91 1209 -44 
Q 966 3 703 97 
z
M 1959 2075 
Q 2384 2075 2632 2365 
Q 2881 2656 2881 3163 
Q 2881 3666 2632 3958 
Q 2384 4250 1959 4250 
Q 1534 4250 1286 3958 
Q 1038 3666 1038 3163 
Q 1038 2656 1286 2365 
Q 1534 2075 1959 2075 
z
" transform="scale(0.015625)"/>
       </defs>
       <use xlink:href="#DejaVuSans-2212"/>
       <use xlink:href="#DejaVuSans-31" x="83.789062"/>
       <use xlink:href="#DejaVuSans-39" x="147.412109"/>
       <use xlink:href="#DejaVuSans-30" x="211.035156"/>
       <use xlink:href="#DejaVuSans-30" x="274.658203"/>
      </g>
     </g>
    </g>
    <g id="ytick_2">
     <g id="line2d_21">
      <path d="M 57.6 211.839541 
L 414.72 211.839541 
" clip-path="url(#p8dc20b6ef9)" style="fill: none; stroke: #b0b0b0; stroke-width: 0.8; stroke-linecap: square"/>
     </g>
     <g id="line2d_22">
      <g>
       <use xlink:href="#m026cba4f1c" x="57.6" y="211.839541" style="stroke: #000000; stroke-width: 0.8"/>
      </g>
     </g>
     <g id="text_12">
      <!-- −1800 -->
      <g transform="translate(16.770313 215.63876) scale(0.1 -0.1)">
       <defs>
        <path id="DejaVuSans-38" d="M 2034 2216 
Q 1584 2216 1326 1975 
Q 1069 1734 1069 1313 
Q 1069 891 1326 650 
Q 1584 409 2034 409 
Q 2484 409 2743 651 
Q 3003 894 3003 1313 
Q 3003 1734 2745 1975 
Q 2488 2216 2034 2216 
z
M 1403 2484 
Q 997 2584 770 2862 
Q 544 3141 544 3541 
Q 544 4100 942 4425 
Q 1341 4750 2034 4750 
Q 2731 4750 3128 4425 
Q 3525 4100 3525 3541 
Q 3525 3141 3298 2862 
Q 3072 2584 2669 2484 
Q 3125 2378 3379 2068 
Q 3634 1759 3634 1313 
Q 3634 634 3220 271 
Q 2806 -91 2034 -91 
Q 1263 -91 848 271 
Q 434 634 434 1313 
Q 434 1759 690 2068 
Q 947 2378 1403 2484 
z
M 1172 3481 
Q 1172 3119 1398 2916 
Q 1625 2713 2034 2713 
Q 2441 2713 2670 2916 
Q 2900 3119 2900 3481 
Q 2900 3844 2670 4047 
Q 2441 4250 2034 4250 
Q 1625 4250 1398 4047 
Q 1172 3844 1172 3481 
z
" transform="scale(0.015625)"/>
       </defs>
       <use xlink:href="#DejaVuSans-2212"/>
       <use xlink:href="#DejaVuSans-31" x="83.789062"/>
       <use xlink:href="#DejaVuSans-38" x="147.412109"/>
       <use xlink:href="#DejaVuSans-30" x="211.035156"/>
       <use xlink:href="#DejaVuSans-30" x="274.658203"/>
      </g>
     </g>
    </g>
    <g id="ytick_3">
     <g id="line2d_23">
      <path d="M 57.6 154.168481 
L 414.72 154.168481 
" clip-path="url(#p8dc20b6ef9)" style="fill: none; stroke: #b0b0b0; stroke-width: 0.8; stroke-linecap: square"/>
     </g>
     <g id="line2d_24">
      <g>
       <use xlink:href="#m026cba4f1c" x="57.6" y="154.168481" style="stroke: #000000; stroke-width: 0.8"/>
      </g>
     </g>
     <g id="text_13">
      <!-- −1700 -->
      <g transform="translate(16.770313 157.967699) scale(0.1 -0.1)">
       <use xlink:href="#DejaVuSans-2212"/>
       <use xlink:href="#DejaVuSans-31" x="83.789062"/>
       <use xlink:href="#DejaVuSans-37" x="147.412109"/>
       <use xlink:href="#DejaVuSans-30" x="211.035156"/>
       <use xlink:href="#DejaVuSans-30" x="274.658203"/>
      </g>
     </g>
    </g>
    <g id="ytick_4">
     <g id="line2d_25">
      <path d="M 57.6 96.49742 
L 414.72 96.49742 
" clip-path="url(#p8dc20b6ef9)" style="fill: none; stroke: #b0b0b0; stroke-width: 0.8; stroke-linecap: square"/>
     </g>
     <g id="line2d_26">
      <g>
       <use xlink:href="#m026cba4f1c" x="57.6" y="96.49742" style="stroke: #000000; stroke-width: 0.8"/>
      </g>
     </g>
     <g id="text_14">
      <!-- −1600 -->
      <g transform="translate(16.770313 100.296639) scale(0.1 -0.1)">
       <defs>
        <path id="DejaVuSans-36" d="M 2113 2584 
Q 1688 2584 1439 2293 
Q 1191 2003 1191 1497 
Q 1191 994 1439 701 
Q 1688 409 2113 409 
Q 2538 409 2786 701 
Q 3034 994 3034 1497 
Q 3034 2003 2786 2293 
Q 2538 2584 2113 2584 
z
M 3366 4563 
L 3366 3988 
Q 3128 4100 2886 4159 
Q 2644 4219 2406 4219 
Q 1781 4219 1451 3797 
Q 1122 3375 1075 2522 
Q 1259 2794 1537 2939 
Q 1816 3084 2150 3084 
Q 2853 3084 3261 2657 
Q 3669 2231 3669 1497 
Q 3669 778 3244 343 
Q 2819 -91 2113 -91 
Q 1303 -91 875 529 
Q 447 1150 447 2328 
Q 447 3434 972 4092 
Q 1497 4750 2381 4750 
Q 2619 4750 2861 4703 
Q 3103 4656 3366 4563 
z
" transform="scale(0.015625)"/>
       </defs>
       <use xlink:href="#DejaVuSans-2212"/>
       <use xlink:href="#DejaVuSans-31" x="83.789062"/>
       <use xlink:href="#DejaVuSans-36" x="147.412109"/>
       <use xlink:href="#DejaVuSans-30" x="211.035156"/>
       <use xlink:href="#DejaVuSans-30" x="274.658203"/>
      </g>
     </g>
    </g>
    <g id="text_15">
     <!-- Fitness -->
     <g transform="translate(10.690625 191.845187) rotate(-90) scale(0.1 -0.1)">
      <defs>
       <path id="DejaVuSans-46" d="M 628 4666 
L 3309 4666 
L 3309 4134 
L 1259 4134 
L 1259 2759 
L 3109 2759 
L 3109 2228 
L 1259 2228 
L 1259 0 
L 628 0 
L 628 4666 
z
" transform="scale(0.015625)"/>
      </defs>
      <use xlink:href="#DejaVuSans-46"/>
      <use xlink:href="#DejaVuSans-69" x="50.269531"/>
      <use xlink:href="#DejaVuSans-74" x="78.052734"/>
      <use xlink:href="#DejaVuSans-6e" x="117.261719"/>
      <use xlink:href="#DejaVuSans-65" x="180.640625"/>
      <use xlink:href="#DejaVuSans-73" x="242.164062"/>
      <use xlink:href="#DejaVuSans-73" x="294.263672"/>
     </g>
    </g>
   </g>
   <g id="line2d_27">
    <path d="M 73.832727 267.402955 
L 75.464157 254.515513 
L 77.095587 246.59005 
L 78.727017 244.16501 
L 80.358447 240.114094 
L 81.989877 243.599048 
L 83.621307 243.264668 
L 85.252736 244.709434 
L 86.884166 238.325918 
L 88.515596 237.744875 
L 90.147026 239.631225 
L 91.778456 240.199491 
L 93.409886 242.28522 
L 95.041316 238.901152 
L 96.672746 239.079719 
L 98.304175 237.990355 
L 99.935605 241.17605 
L 101.567035 238.03361 
L 103.198465 240.722735 
L 104.829895 238.762142 
L 106.461325 238.353998 
L 109.724185 240.858044 
L 111.355614 239.37814 
L 112.987044 241.016866 
L 114.618474 241.18978 
L 116.249904 239.379615 
L 117.881334 240.785819 
L 119.512764 240.74966 
L 121.144194 242.436519 
L 122.775624 240.998886 
L 124.407053 241.210081 
L 126.038483 240.145141 
L 127.669913 237.01623 
L 129.301343 235.845247 
L 130.932773 240.288975 
L 132.564203 237.425516 
L 134.195633 239.209843 
L 135.827063 241.31484 
L 137.458492 242.021895 
L 139.089922 239.76083 
L 140.721352 238.27322 
L 143.984212 238.536038 
L 145.615642 239.928268 
L 147.247072 237.131713 
L 148.878502 237.624337 
L 150.509931 236.110534 
L 152.141361 236.741186 
L 153.772791 237.03374 
L 155.404221 239.211443 
L 157.035651 240.541053 
L 158.667081 238.070461 
L 160.298511 238.245489 
L 161.929941 236.380756 
L 163.56137 235.02454 
L 165.1928 236.042381 
L 166.82423 241.444561 
L 168.45566 237.816302 
L 170.08709 241.581523 
L 171.71852 235.29689 
L 173.34995 237.368323 
L 174.98138 237.382928 
L 176.61281 239.178887 
L 178.244239 241.380266 
L 179.875669 238.61234 
L 181.507099 236.397791 
L 184.769959 239.226406 
L 186.401389 238.159774 
L 188.032819 237.272031 
L 189.664249 235.035246 
L 191.295678 239.311725 
L 192.927108 240.032872 
L 194.558538 238.102186 
L 196.189968 238.546602 
L 197.821398 241.30884 
L 199.452828 239.444819 
L 201.084258 236.369279 
L 202.715688 237.172505 
L 204.347117 235.566052 
L 205.978547 237.543542 
L 207.609977 238.048163 
L 209.241407 239.785747 
L 210.872837 239.45331 
L 212.504267 235.861854 
L 214.135697 237.870268 
L 215.767127 237.501903 
L 219.029986 233.203111 
L 220.661416 234.278103 
L 222.292846 233.657377 
L 223.924276 234.932396 
L 225.555706 237.649155 
L 227.187136 233.065855 
L 228.818566 237.193709 
L 230.449995 240.573448 
L 232.081425 236.20059 
L 233.712855 234.928678 
L 235.344285 238.657241 
L 236.975715 238.770188 
L 238.607145 239.415331 
L 240.238575 236.920035 
L 241.870005 237.546914 
L 245.132864 237.285724 
L 246.764294 236.805748 
L 248.395724 235.936814 
L 250.027154 242.846881 
L 251.658584 236.841144 
L 253.290014 239.522529 
L 254.921444 236.883886 
L 256.552873 236.854344 
L 258.184303 238.350302 
L 259.815733 237.488639 
L 261.447163 236.921938 
L 263.078593 237.69287 
L 264.710023 235.91511 
L 266.341453 236.496784 
L 267.972883 234.869307 
L 269.604312 237.603474 
L 271.235742 238.200701 
L 272.867172 237.319086 
L 274.498602 236.226104 
L 276.130032 237.320663 
L 277.761462 238.0756 
L 279.392892 236.586145 
L 281.024322 236.956496 
L 282.655751 235.789942 
L 284.287181 239.620853 
L 285.918611 238.561435 
L 287.550041 236.801184 
L 289.181471 235.691069 
L 290.812901 238.994523 
L 292.444331 236.773522 
L 294.075761 241.003165 
L 295.70719 238.763493 
L 297.33862 242.731393 
L 298.97005 239.667624 
L 300.60148 237.35334 
L 303.86434 242.61605 
L 305.49577 240.914843 
L 307.1272 239.816467 
L 308.75863 240.177808 
L 310.390059 238.253923 
L 312.021489 238.834073 
L 313.652919 237.902717 
L 315.284349 236.056094 
L 316.915779 238.030804 
L 318.547209 236.253671 
L 320.178639 238.627415 
L 321.810069 236.026573 
L 323.441498 238.041564 
L 325.072928 238.738172 
L 326.704358 234.900023 
L 328.335788 236.414168 
L 329.967218 239.60335 
L 331.598648 233.897834 
L 333.230078 234.917086 
L 336.492937 238.488828 
L 338.124367 236.518467 
L 339.755797 239.133284 
L 341.387227 237.467947 
L 343.018657 236.533393 
L 344.650087 236.733235 
L 346.281517 236.06301 
L 347.912947 236.517562 
L 349.544376 237.447663 
L 351.175806 236.59544 
L 352.807236 235.131621 
L 354.438666 233.440938 
L 356.070096 236.834881 
L 357.701526 233.576407 
L 359.332956 235.221467 
L 360.964386 234.352195 
L 362.595815 235.23474 
L 364.227245 234.960198 
L 365.858675 235.964629 
L 367.490105 234.302383 
L 369.121535 234.431295 
L 370.752965 239.151332 
L 372.384395 234.357213 
L 374.015825 234.661428 
L 375.647254 234.647867 
L 377.278684 233.566356 
L 378.910114 236.553199 
L 380.541544 237.55978 
L 382.172974 234.579416 
L 383.804404 236.065149 
L 385.435834 237.771139 
L 387.067264 236.307784 
L 388.698693 233.361908 
L 390.330123 231.436471 
L 391.961553 236.007343 
L 393.592983 236.096626 
L 395.224413 237.469657 
L 396.855843 236.177857 
L 398.487273 238.578454 
L 398.487273 238.578454 
" clip-path="url(#p8dc20b6ef9)" style="fill: none; stroke: #0000ff; stroke-width: 1.5; stroke-linecap: square"/>
   </g>
   <g id="line2d_28">
    <path d="M 73.832727 295.488 
L 75.464157 282.78741 
L 77.095587 271.996582 
L 78.727017 268.682551 
L 80.358447 262.724498 
L 81.989877 267.171578 
L 83.621307 266.25846 
L 85.252736 267.571775 
L 86.884166 258.23686 
L 88.515596 258.009661 
L 91.778456 261.492996 
L 93.409886 264.849512 
L 95.041316 264.893019 
L 98.304175 261.557245 
L 99.935605 266.781633 
L 101.567035 262.630157 
L 103.198465 267.16058 
L 104.829895 262.309174 
L 106.461325 262.336807 
L 109.724185 267.178659 
L 111.355614 268.239403 
L 112.987044 268.374677 
L 114.618474 269.329964 
L 117.881334 266.518396 
L 119.512764 267.789038 
L 121.144194 269.999737 
L 122.775624 268.529272 
L 124.407053 268.266721 
L 126.038483 269.368428 
L 127.669913 261.976119 
L 129.301343 260.325106 
L 130.932773 267.487402 
L 132.564203 261.929158 
L 134.195633 266.889134 
L 135.827063 268.851269 
L 137.458492 270.189112 
L 139.089922 266.257912 
L 140.721352 264.090269 
L 142.352782 263.944054 
L 143.984212 264.330237 
L 145.615642 267.785408 
L 147.247072 263.385962 
L 148.878502 263.710612 
L 150.509931 260.867704 
L 152.141361 261.898976 
L 153.772791 262.51066 
L 157.035651 268.961225 
L 158.667081 263.672169 
L 160.298511 264.831432 
L 161.929941 261.683727 
L 163.56137 263.640064 
L 165.1928 265.019876 
L 166.82423 269.313347 
L 168.45566 267.387813 
L 170.08709 271.743006 
L 171.71852 263.505454 
L 173.34995 265.866308 
L 174.98138 263.292794 
L 176.61281 266.206286 
L 178.244239 269.485203 
L 179.875669 266.247844 
L 181.507099 262.222027 
L 183.138529 263.299669 
L 184.769959 266.047308 
L 186.401389 264.281438 
L 188.032819 264.920992 
L 189.664249 261.434964 
L 191.295678 267.662509 
L 192.927108 267.587094 
L 194.558538 264.339532 
L 196.189968 265.683214 
L 197.821398 268.742831 
L 199.452828 266.165124 
L 201.084258 261.782151 
L 202.715688 262.998172 
L 204.347117 262.41122 
L 205.978547 265.553801 
L 207.609977 266.198439 
L 209.241407 270.180331 
L 210.872837 269.174645 
L 212.504267 263.433448 
L 214.135697 266.272286 
L 215.767127 265.937293 
L 217.398556 264.192081 
L 219.029986 258.852257 
L 220.661416 260.429974 
L 222.292846 259.735467 
L 223.924276 261.628272 
L 225.555706 268.297473 
L 227.187136 260.996194 
L 228.818566 265.753564 
L 230.449995 269.530449 
L 233.712855 261.951709 
L 235.344285 267.793108 
L 236.975715 267.901044 
L 238.607145 269.088285 
L 240.238575 264.554378 
L 241.870005 265.164595 
L 243.501434 265.051819 
L 245.132864 266.170649 
L 246.764294 264.04125 
L 248.395724 266.017897 
L 250.027154 274.129345 
L 251.658584 267.317957 
L 253.290014 268.942795 
L 254.921444 264.497436 
L 256.552873 264.622825 
L 258.184303 267.113773 
L 259.815733 267.134859 
L 261.447163 266.280977 
L 263.078593 267.547251 
L 264.710023 266.805536 
L 266.341453 267.285559 
L 267.972883 268.881733 
L 269.604312 270.277425 
L 271.235742 267.497198 
L 272.867172 263.086442 
L 274.498602 261.425862 
L 276.130032 263.413011 
L 277.761462 267.161773 
L 279.392892 262.390646 
L 281.024322 265.129071 
L 282.655751 265.420324 
L 284.287181 267.145158 
L 285.918611 264.846158 
L 287.550041 264.984428 
L 289.181471 260.074994 
L 290.812901 265.966325 
L 292.444331 264.741512 
L 294.075761 268.878791 
L 295.70719 270.442902 
L 297.33862 273.818313 
L 298.97005 269.448329 
L 300.60148 265.634235 
L 302.23291 268.796278 
L 303.86434 270.972854 
L 305.49577 268.990776 
L 307.1272 267.255185 
L 308.75863 267.86321 
L 310.390059 264.762688 
L 312.021489 266.352708 
L 313.652919 267.176611 
L 315.284349 261.266734 
L 316.915779 264.529612 
L 318.547209 261.450441 
L 320.178639 265.404982 
L 321.810069 260.816979 
L 323.441498 264.031131 
L 325.072928 265.473451 
L 326.704358 262.558834 
L 328.335788 261.707617 
L 329.967218 269.019864 
L 331.598648 258.08871 
L 333.230078 259.409333 
L 334.861508 262.647345 
L 336.492937 265.050682 
L 338.124367 266.317626 
L 339.755797 265.643166 
L 341.387227 263.899641 
L 343.018657 261.849255 
L 344.650087 262.441539 
L 346.281517 261.586382 
L 347.912947 262.20915 
L 349.544376 263.060883 
L 351.175806 263.382534 
L 352.807236 259.076271 
L 354.438666 257.022784 
L 356.070096 261.758737 
L 357.701526 257.882908 
L 359.332956 260.498668 
L 360.964386 260.374918 
L 362.595815 261.754887 
L 364.227245 261.096136 
L 365.858675 261.121551 
L 367.490105 257.172871 
L 369.121535 259.663425 
L 370.752965 266.053083 
L 372.384395 257.282158 
L 374.015825 258.900349 
L 375.647254 260.734385 
L 377.278684 258.254788 
L 378.910114 262.563249 
L 380.541544 263.164915 
L 382.172974 258.454488 
L 383.804404 260.97691 
L 385.435834 265.56701 
L 388.698693 260.386702 
L 390.330123 261.075845 
L 391.961553 263.563354 
L 393.592983 263.799974 
L 395.224413 265.584125 
L 396.855843 263.633068 
L 398.487273 265.511079 
L 398.487273 265.511079 
" clip-path="url(#p8dc20b6ef9)" style="fill: none; stroke-dasharray: 9.6,2.4,1.5,2.4; stroke-dashoffset: 0; stroke: #008000; stroke-width: 1.5"/>
   </g>
   <g id="line2d_29">
    <path d="M 73.832727 239.317909 
L 75.464157 226.243617 
L 77.095587 221.183519 
L 78.727017 219.647469 
L 80.358447 217.50369 
L 81.989877 220.026517 
L 83.621307 220.270876 
L 85.252736 221.847093 
L 86.884166 218.414976 
L 88.515596 217.48009 
L 90.147026 219.524663 
L 91.778456 218.905985 
L 93.409886 219.720928 
L 95.041316 212.909286 
L 96.672746 214.960794 
L 98.304175 214.423465 
L 99.935605 215.570468 
L 101.567035 213.437064 
L 104.829895 215.215111 
L 106.461325 214.371189 
L 108.092755 214.511576 
L 109.724185 214.53743 
L 111.355614 210.516877 
L 112.987044 213.659055 
L 114.618474 213.049596 
L 116.249904 210.894633 
L 117.881334 215.053243 
L 119.512764 213.710282 
L 121.144194 214.873302 
L 122.775624 213.4685 
L 124.407053 214.153441 
L 126.038483 210.921854 
L 127.669913 212.056341 
L 129.301343 211.365387 
L 130.932773 213.090549 
L 132.564203 212.921873 
L 134.195633 211.530552 
L 135.827063 213.778412 
L 137.458492 213.854678 
L 139.089922 213.263748 
L 140.721352 212.456171 
L 142.352782 212.77204 
L 143.984212 212.741839 
L 145.615642 212.071128 
L 147.247072 210.877463 
L 148.878502 211.538061 
L 150.509931 211.353364 
L 152.141361 211.583396 
L 153.772791 211.556821 
L 155.404221 212.704819 
L 157.035651 212.12088 
L 158.667081 212.468752 
L 160.298511 211.659546 
L 161.929941 211.077785 
L 163.56137 206.409016 
L 165.1928 207.064886 
L 166.82423 213.575775 
L 168.45566 208.244792 
L 170.08709 211.420041 
L 171.71852 207.088326 
L 173.34995 208.870338 
L 174.98138 211.473062 
L 176.61281 212.151488 
L 178.244239 213.275329 
L 179.875669 210.976837 
L 181.507099 210.573555 
L 183.138529 212.240832 
L 184.769959 212.405503 
L 186.401389 212.038109 
L 188.032819 209.62307 
L 189.664249 208.635529 
L 191.295678 210.960941 
L 192.927108 212.47865 
L 194.558538 211.86484 
L 196.189968 211.409991 
L 197.821398 213.874848 
L 199.452828 212.724514 
L 201.084258 210.956406 
L 202.715688 211.346838 
L 204.347117 208.720885 
L 205.978547 209.533282 
L 207.609977 209.897888 
L 209.241407 209.391162 
L 210.872837 209.731975 
L 212.504267 208.290259 
L 214.135697 209.468251 
L 215.767127 209.066513 
L 217.398556 206.593872 
L 219.029986 207.553964 
L 220.661416 208.126233 
L 222.292846 207.579288 
L 223.924276 208.236521 
L 225.555706 207.000838 
L 227.187136 205.135516 
L 228.818566 208.633854 
L 230.449995 211.616447 
L 232.081425 206.768895 
L 233.712855 207.905647 
L 235.344285 209.521373 
L 238.607145 209.742377 
L 240.238575 209.285691 
L 241.870005 209.929234 
L 243.501434 209.865667 
L 245.132864 208.400799 
L 246.764294 209.570246 
L 248.395724 205.855731 
L 250.027154 211.564417 
L 251.658584 206.364331 
L 253.290014 210.102263 
L 254.921444 209.270337 
L 256.552873 209.085863 
L 258.184303 209.586831 
L 259.815733 207.842419 
L 261.447163 207.562899 
L 263.078593 207.838489 
L 264.710023 205.024684 
L 266.341453 205.708009 
L 267.972883 200.85688 
L 271.235742 208.904203 
L 272.867172 211.551729 
L 274.498602 211.026346 
L 276.130032 211.228316 
L 277.761462 208.989426 
L 279.392892 210.781644 
L 281.024322 208.78392 
L 282.655751 206.159559 
L 284.287181 212.096548 
L 285.918611 212.276713 
L 287.550041 208.617939 
L 289.181471 211.307143 
L 290.812901 212.022721 
L 292.444331 208.805532 
L 294.075761 213.127538 
L 295.70719 207.084084 
L 297.33862 211.644472 
L 298.97005 209.88692 
L 300.60148 209.072445 
L 302.23291 211.283649 
L 303.86434 214.259247 
L 305.49577 212.83891 
L 307.1272 212.377748 
L 308.75863 212.492407 
L 310.390059 211.745159 
L 312.021489 211.315437 
L 313.652919 208.628823 
L 315.284349 210.845455 
L 316.915779 211.531997 
L 318.547209 211.0569 
L 320.178639 211.849848 
L 321.810069 211.236166 
L 323.441498 212.051997 
L 325.072928 212.002894 
L 326.704358 207.241212 
L 328.335788 211.120719 
L 329.967218 210.186836 
L 331.598648 209.706959 
L 333.230078 210.424839 
L 334.861508 210.875205 
L 336.492937 211.926974 
L 338.124367 206.719307 
L 339.755797 212.623401 
L 341.387227 211.036253 
L 343.018657 211.217531 
L 344.650087 211.02493 
L 346.281517 210.539638 
L 347.912947 210.825974 
L 349.544376 211.834443 
L 351.175806 209.808346 
L 352.807236 211.186971 
L 354.438666 209.859091 
L 356.070096 211.911026 
L 357.701526 209.269905 
L 359.332956 209.944265 
L 360.964386 208.329472 
L 362.595815 208.714593 
L 364.227245 208.824259 
L 365.858675 210.807708 
L 367.490105 211.431896 
L 369.121535 209.199165 
L 370.752965 212.249581 
L 372.384395 211.432268 
L 374.015825 210.422506 
L 375.647254 208.561349 
L 377.278684 208.877924 
L 378.910114 210.543148 
L 380.541544 211.954646 
L 382.172974 210.704345 
L 383.804404 211.153387 
L 385.435834 209.975268 
L 387.067264 209.567931 
L 388.698693 206.337115 
L 390.330123 201.797096 
L 391.961553 208.451332 
L 393.592983 208.393278 
L 395.224413 209.355189 
L 396.855843 208.722646 
L 398.487273 211.64583 
L 398.487273 211.64583 
" clip-path="url(#p8dc20b6ef9)" style="fill: none; stroke-dasharray: 9.6,2.4,1.5,2.4; stroke-dashoffset: 0; stroke: #008000; stroke-width: 1.5"/>
   </g>
   <g id="line2d_30">
    <path d="M 73.832727 145.373644 
L 75.464157 145.373644 
L 77.095587 144.502811 
L 93.409886 144.502811 
L 95.041316 53.568 
L 398.487273 53.568 
L 398.487273 53.568 
" clip-path="url(#p8dc20b6ef9)" style="fill: none; stroke: #ff0000; stroke-width: 1.5; stroke-linecap: square"/>
   </g>
   <g id="patch_3">
    <path d="M 57.6 307.584 
L 57.6 41.472 
" style="fill: none; stroke: #000000; stroke-width: 0.8; stroke-linejoin: miter; stroke-linecap: square"/>
   </g>
   <g id="patch_4">
    <path d="M 414.72 307.584 
L 414.72 41.472 
" style="fill: none; stroke: #000000; stroke-width: 0.8; stroke-linejoin: miter; stroke-linecap: square"/>
   </g>
   <g id="patch_5">
    <path d="M 57.6 307.584 
L 414.72 307.584 
" style="fill: none; stroke: #000000; stroke-width: 0.8; stroke-linejoin: miter; stroke-linecap: square"/>
   </g>
   <g id="patch_6">
    <path d="M 57.6 41.472 
L 414.72 41.472 
" style="fill: none; stroke: #000000; stroke-width: 0.8; stroke-linejoin: miter; stroke-linecap: square"/>
   </g>
   <g id="text_16">
    <!-- Population's average and best fitness -->
    <g transform="translate(123.529687 35.472) scale(0.12 -0.12)">
     <defs>
      <path id="DejaVuSans-50" d="M 1259 4147 
L 1259 2394 
L 2053 2394 
Q 2494 2394 2734 2622 
Q 2975 2850 2975 3272 
Q 2975 3691 2734 3919 
Q 2494 4147 2053 4147 
L 1259 4147 
z
M 628 4666 
L 2053 4666 
Q 2838 4666 3239 4311 
Q 3641 3956 3641 3272 
Q 3641 2581 3239 2228 
Q 2838 1875 2053 1875 
L 1259 1875 
L 1259 0 
L 628 0 
L 628 4666 
z
" transform="scale(0.015625)"/>
      <path id="DejaVuSans-70" d="M 1159 525 
L 1159 -1331 
L 581 -1331 
L 581 3500 
L 1159 3500 
L 1159 2969 
Q 1341 3281 1617 3432 
Q 1894 3584 2278 3584 
Q 2916 3584 3314 3078 
Q 3713 2572 3713 1747 
Q 3713 922 3314 415 
Q 2916 -91 2278 -91 
Q 1894 -91 1617 61 
Q 1341 213 1159 525 
z
M 3116 1747 
Q 3116 2381 2855 2742 
Q 2594 3103 2138 3103 
Q 1681 3103 1420 2742 
Q 1159 2381 1159 1747 
Q 1159 1113 1420 752 
Q 1681 391 2138 391 
Q 2594 391 2855 752 
Q 3116 1113 3116 1747 
z
" transform="scale(0.015625)"/>
      <path id="DejaVuSans-75" d="M 544 1381 
L 544 3500 
L 1119 3500 
L 1119 1403 
Q 1119 906 1312 657 
Q 1506 409 1894 409 
Q 2359 409 2629 706 
Q 2900 1003 2900 1516 
L 2900 3500 
L 3475 3500 
L 3475 0 
L 2900 0 
L 2900 538 
Q 2691 219 2414 64 
Q 2138 -91 1772 -91 
Q 1169 -91 856 284 
Q 544 659 544 1381 
z
M 1991 3584 
L 1991 3584 
z
" transform="scale(0.015625)"/>
      <path id="DejaVuSans-6c" d="M 603 4863 
L 1178 4863 
L 1178 0 
L 603 0 
L 603 4863 
z
" transform="scale(0.015625)"/>
      <path id="DejaVuSans-27" d="M 1147 4666 
L 1147 2931 
L 616 2931 
L 616 4666 
L 1147 4666 
z
" transform="scale(0.015625)"/>
      <path id="DejaVuSans-20" transform="scale(0.015625)"/>
      <path id="DejaVuSans-76" d="M 191 3500 
L 800 3500 
L 1894 563 
L 2988 3500 
L 3597 3500 
L 2284 0 
L 1503 0 
L 191 3500 
z
" transform="scale(0.015625)"/>
      <path id="DejaVuSans-67" d="M 2906 1791 
Q 2906 2416 2648 2759 
Q 2391 3103 1925 3103 
Q 1463 3103 1205 2759 
Q 947 2416 947 1791 
Q 947 1169 1205 825 
Q 1463 481 1925 481 
Q 2391 481 2648 825 
Q 2906 1169 2906 1791 
z
M 3481 434 
Q 3481 -459 3084 -895 
Q 2688 -1331 1869 -1331 
Q 1566 -1331 1297 -1286 
Q 1028 -1241 775 -1147 
L 775 -588 
Q 1028 -725 1275 -790 
Q 1522 -856 1778 -856 
Q 2344 -856 2625 -561 
Q 2906 -266 2906 331 
L 2906 616 
Q 2728 306 2450 153 
Q 2172 0 1784 0 
Q 1141 0 747 490 
Q 353 981 353 1791 
Q 353 2603 747 3093 
Q 1141 3584 1784 3584 
Q 2172 3584 2450 3431 
Q 2728 3278 2906 2969 
L 2906 3500 
L 3481 3500 
L 3481 434 
z
" transform="scale(0.015625)"/>
      <path id="DejaVuSans-64" d="M 2906 2969 
L 2906 4863 
L 3481 4863 
L 3481 0 
L 2906 0 
L 2906 525 
Q 2725 213 2448 61 
Q 2172 -91 1784 -91 
Q 1150 -91 751 415 
Q 353 922 353 1747 
Q 353 2572 751 3078 
Q 1150 3584 1784 3584 
Q 2172 3584 2448 3432 
Q 2725 3281 2906 2969 
z
M 947 1747 
Q 947 1113 1208 752 
Q 1469 391 1925 391 
Q 2381 391 2643 752 
Q 2906 1113 2906 1747 
Q 2906 2381 2643 2742 
Q 2381 3103 1925 3103 
Q 1469 3103 1208 2742 
Q 947 2381 947 1747 
z
" transform="scale(0.015625)"/>
      <path id="DejaVuSans-62" d="M 3116 1747 
Q 3116 2381 2855 2742 
Q 2594 3103 2138 3103 
Q 1681 3103 1420 2742 
Q 1159 2381 1159 1747 
Q 1159 1113 1420 752 
Q 1681 391 2138 391 
Q 2594 391 2855 752 
Q 3116 1113 3116 1747 
z
M 1159 2969 
Q 1341 3281 1617 3432 
Q 1894 3584 2278 3584 
Q 2916 3584 3314 3078 
Q 3713 2572 3713 1747 
Q 3713 922 3314 415 
Q 2916 -91 2278 -91 
Q 1894 -91 1617 61 
Q 1341 213 1159 525 
L 1159 0 
L 581 0 
L 581 4863 
L 1159 4863 
L 1159 2969 
z
" transform="scale(0.015625)"/>
      <path id="DejaVuSans-66" d="M 2375 4863 
L 2375 4384 
L 1825 4384 
Q 1516 4384 1395 4259 
Q 1275 4134 1275 3809 
L 1275 3500 
L 2222 3500 
L 2222 3053 
L 1275 3053 
L 1275 0 
L 697 0 
L 697 3053 
L 147 3053 
L 147 3500 
L 697 3500 
L 697 3744 
Q 697 4328 969 4595 
Q 1241 4863 1831 4863 
L 2375 4863 
z
" transform="scale(0.015625)"/>
     </defs>
     <use xlink:href="#DejaVuSans-50"/>
     <use xlink:href="#DejaVuSans-6f" x="56.677734"/>
     <use xlink:href="#DejaVuSans-70" x="117.859375"/>
     <use xlink:href="#DejaVuSans-75" x="181.335938"/>
     <use xlink:href="#DejaVuSans-6c" x="244.714844"/>
     <use xlink:href="#DejaVuSans-61" x="272.498047"/>
     <use xlink:href="#DejaVuSans-74" x="333.777344"/>
     <use xlink:href="#DejaVuSans-69" x="372.986328"/>
     <use xlink:href="#DejaVuSans-6f" x="400.769531"/>
     <use xlink:href="#DejaVuSans-6e" x="461.951172"/>
     <use xlink:href="#DejaVuSans-27" x="525.330078"/>
     <use xlink:href="#DejaVuSans-73" x="552.820312"/>
     <use xlink:href="#DejaVuSans-20" x="604.919922"/>
     <use xlink:href="#DejaVuSans-61" x="636.707031"/>
     <use xlink:href="#DejaVuSans-76" x="697.986328"/>
     <use xlink:href="#DejaVuSans-65" x="757.166016"/>
     <use xlink:href="#DejaVuSans-72" x="818.689453"/>
     <use xlink:href="#DejaVuSans-61" x="859.802734"/>
     <use xlink:href="#DejaVuSans-67" x="921.082031"/>
     <use xlink:href="#DejaVuSans-65" x="984.558594"/>
     <use xlink:href="#DejaVuSans-20" x="1046.082031"/>
     <use xlink:href="#DejaVuSans-61" x="1077.869141"/>
     <use xlink:href="#DejaVuSans-6e" x="1139.148438"/>
     <use xlink:href="#DejaVuSans-64" x="1202.527344"/>
     <use xlink:href="#DejaVuSans-20" x="1266.003906"/>
     <use xlink:href="#DejaVuSans-62" x="1297.791016"/>
     <use xlink:href="#DejaVuSans-65" x="1361.267578"/>
     <use xlink:href="#DejaVuSans-73" x="1422.791016"/>
     <use xlink:href="#DejaVuSans-74" x="1474.890625"/>
     <use xlink:href="#DejaVuSans-20" x="1514.099609"/>
     <use xlink:href="#DejaVuSans-66" x="1545.886719"/>
     <use xlink:href="#DejaVuSans-69" x="1581.091797"/>
     <use xlink:href="#DejaVuSans-74" x="1608.875"/>
     <use xlink:href="#DejaVuSans-6e" x="1648.083984"/>
     <use xlink:href="#DejaVuSans-65" x="1711.462891"/>
     <use xlink:href="#DejaVuSans-73" x="1772.986328"/>
     <use xlink:href="#DejaVuSans-73" x="1825.085938"/>
    </g>
   </g>
   <g id="legend_1">
    <g id="patch_7">
     <path d="M 334.779375 205.38425 
L 407.72 205.38425 
Q 409.72 205.38425 409.72 203.38425 
L 409.72 145.67175 
Q 409.72 143.67175 407.72 143.67175 
L 334.779375 143.67175 
Q 332.779375 143.67175 332.779375 145.67175 
L 332.779375 203.38425 
Q 332.779375 205.38425 334.779375 205.38425 
z
" style="fill: #ffffff; opacity: 0.8; stroke: #cccccc; stroke-linejoin: miter"/>
    </g>
    <g id="line2d_31">
     <path d="M 336.779375 151.770188 
L 346.779375 151.770188 
L 356.779375 151.770188 
" style="fill: none; stroke: #0000ff; stroke-width: 1.5; stroke-linecap: square"/>
    </g>
    <g id="text_17">
     <!-- average -->
     <g transform="translate(364.779375 155.270188) scale(0.1 -0.1)">
      <use xlink:href="#DejaVuSans-61"/>
      <use xlink:href="#DejaVuSans-76" x="61.279297"/>
      <use xlink:href="#DejaVuSans-65" x="120.458984"/>
      <use xlink:href="#DejaVuSans-72" x="181.982422"/>
      <use xlink:href="#DejaVuSans-61" x="223.095703"/>
      <use xlink:href="#DejaVuSans-67" x="284.375"/>
      <use xlink:href="#DejaVuSans-65" x="347.851562"/>
     </g>
    </g>
    <g id="line2d_32">
     <path d="M 336.779375 166.448313 
L 346.779375 166.448313 
L 356.779375 166.448313 
" style="fill: none; stroke-dasharray: 9.6,2.4,1.5,2.4; stroke-dashoffset: 0; stroke: #008000; stroke-width: 1.5"/>
    </g>
    <g id="text_18">
     <!-- -1 sd -->
     <g transform="translate(364.779375 169.948313) scale(0.1 -0.1)">
      <defs>
       <path id="DejaVuSans-2d" d="M 313 2009 
L 1997 2009 
L 1997 1497 
L 313 1497 
L 313 2009 
z
" transform="scale(0.015625)"/>
      </defs>
      <use xlink:href="#DejaVuSans-2d"/>
      <use xlink:href="#DejaVuSans-31" x="36.083984"/>
      <use xlink:href="#DejaVuSans-20" x="99.707031"/>
      <use xlink:href="#DejaVuSans-73" x="131.494141"/>
      <use xlink:href="#DejaVuSans-64" x="183.59375"/>
     </g>
    </g>
    <g id="line2d_33">
     <path d="M 336.779375 181.126438 
L 346.779375 181.126438 
L 356.779375 181.126438 
" style="fill: none; stroke-dasharray: 9.6,2.4,1.5,2.4; stroke-dashoffset: 0; stroke: #008000; stroke-width: 1.5"/>
    </g>
    <g id="text_19">
     <!-- +1 sd -->
     <g transform="translate(364.779375 184.626438) scale(0.1 -0.1)">
      <defs>
       <path id="DejaVuSans-2b" d="M 2944 4013 
L 2944 2272 
L 4684 2272 
L 4684 1741 
L 2944 1741 
L 2944 0 
L 2419 0 
L 2419 1741 
L 678 1741 
L 678 2272 
L 2419 2272 
L 2419 4013 
L 2944 4013 
z
" transform="scale(0.015625)"/>
      </defs>
      <use xlink:href="#DejaVuSans-2b"/>
      <use xlink:href="#DejaVuSans-31" x="83.789062"/>
      <use xlink:href="#DejaVuSans-20" x="147.412109"/>
      <use xlink:href="#DejaVuSans-73" x="179.199219"/>
      <use xlink:href="#DejaVuSans-64" x="231.298828"/>
     </g>
    </g>
    <g id="line2d_34">
     <path d="M 336.779375 195.804563 
L 346.779375 195.804563 
L 356.779375 195.804563 
" style="fill: none; stroke: #ff0000; stroke-width: 1.5; stroke-linecap: square"/>
    </g>
    <g id="text_20">
     <!-- best -->
     <g transform="translate(364.779375 199.304563) scale(0.1 -0.1)">
      <use xlink:href="#DejaVuSans-62"/>
      <use xlink:href="#DejaVuSans-65" x="63.476562"/>
      <use xlink:href="#DejaVuSans-73" x="125"/>
      <use xlink:href="#DejaVuSans-74" x="177.099609"/>
     </g>
    </g>
   </g>
  </g>
 </g>
 <defs>
  <clipPath id="p8dc20b6ef9">
   <rect x="57.6" y="41.472" width="357.12" height="266.112"/>
  </clipPath>
 </defs>
</svg>
