<?xml version="1.0" encoding="utf-8" standalone="no"?>
<!DOCTYPE svg PUBLIC "-//W3C//DTD SVG 1.1//EN"
  "http://www.w3.org/Graphics/SVG/1.1/DTD/svg11.dtd">
<svg xmlns:xlink="http://www.w3.org/1999/xlink" width="460.8pt" height="345.6pt" viewBox="0 0 460.8 345.6" xmlns="http://www.w3.org/2000/svg" version="1.1">
 <metadata>
  <rdf:RDF xmlns:dc="http://purl.org/dc/elements/1.1/" xmlns:cc="http://creativecommons.org/ns#" xmlns:rdf="http://www.w3.org/1999/02/22-rdf-syntax-ns#">
   <cc:Work>
    <dc:type rdf:resource="http://purl.org/dc/dcmitype/StillImage"/>
    <dc:date>2024-08-03T16:26:02.560054</dc:date>
    <dc:format>image/svg+xml</dc:format>
    <dc:creator>
     <cc:Agent>
      <dc:title>Matplotlib v3.8.4, https://matplotlib.org/</dc:title>
     </cc:Agent>
    </dc:creator>
   </cc:Work>
  </rdf:RDF>
 </metadata>
 <defs>
  <style type="text/css">*{stroke-linejoin: round; stroke-linecap: butt}</style>
 </defs>
 <g id="figure_1">
  <g id="patch_1">
   <path d="M 0 345.6 
L 460.8 345.6 
L 460.8 0 
L 0 0 
z
" style="fill: #ffffff"/>
  </g>
  <g id="axes_1">
   <g id="patch_2">
    <path d="M 57.6 307.584 
L 414.72 307.584 
L 414.72 41.472 
L 57.6 41.472 
z
" style="fill: #ffffff"/>
   </g>
   <g id="matplotlib.axis_1">
    <g id="xtick_1">
     <g id="line2d_1">
      <path d="M 73.832727 307.584 
L 73.832727 41.472 
" clip-path="url(#p50ceda1b1c)" style="fill: none; stroke: #b0b0b0; stroke-width: 0.8; stroke-linecap: square"/>
     </g>
     <g id="line2d_2">
      <defs>
       <path id="mb8adc4f0a5" d="M 0 0 
L 0 3.5 
" style="stroke: #000000; stroke-width: 0.8"/>
      </defs>
      <g>
       <use xlink:href="#mb8adc4f0a5" x="73.832727" y="307.584" style="stroke: #000000; stroke-width: 0.8"/>
      </g>
     </g>
     <g id="text_1">
      <!-- 0 -->
      <g transform="translate(70.651477 322.182437) scale(0.1 -0.1)">
       <defs>
        <path id="DejaVuSans-30" d="M 2034 4250 
Q 1547 4250 1301 3770 
Q 1056 3291 1056 2328 
Q 1056 1369 1301 889 
Q 1547 409 2034 409 
Q 2525 409 2770 889 
Q 3016 1369 3016 2328 
Q 3016 3291 2770 3770 
Q 2525 4250 2034 4250 
z
M 2034 4750 
Q 2819 4750 3233 4129 
Q 3647 3509 3647 2328 
Q 3647 1150 3233 529 
Q 2819 -91 2034 -91 
Q 1250 -91 836 529 
Q 422 1150 422 2328 
Q 422 3509 836 4129 
Q 1250 4750 2034 4750 
z
" transform="scale(0.015625)"/>
       </defs>
       <use xlink:href="#DejaVuSans-30"/>
      </g>
     </g>
    </g>
    <g id="xtick_2">
     <g id="line2d_3">
      <path d="M 114.618474 307.584 
L 114.618474 41.472 
" clip-path="url(#p50ceda1b1c)" style="fill: none; stroke: #b0b0b0; stroke-width: 0.8; stroke-linecap: square"/>
     </g>
     <g id="line2d_4">
      <g>
       <use xlink:href="#mb8adc4f0a5" x="114.618474" y="307.584" style="stroke: #000000; stroke-width: 0.8"/>
      </g>
     </g>
     <g id="text_2">
      <!-- 25 -->
      <g transform="translate(108.255974 322.182437) scale(0.1 -0.1)">
       <defs>
        <path id="DejaVuSans-32" d="M 1228 531 
L 3431 531 
L 3431 0 
L 469 0 
L 469 531 
Q 828 903 1448 1529 
Q 2069 2156 2228 2338 
Q 2531 2678 2651 2914 
Q 2772 3150 2772 3378 
Q 2772 3750 2511 3984 
Q 2250 4219 1831 4219 
Q 1534 4219 1204 4116 
Q 875 4013 500 3803 
L 500 4441 
Q 881 4594 1212 4672 
Q 1544 4750 1819 4750 
Q 2544 4750 2975 4387 
Q 3406 4025 3406 3419 
Q 3406 3131 3298 2873 
Q 3191 2616 2906 2266 
Q 2828 2175 2409 1742 
Q 1991 1309 1228 531 
z
" transform="scale(0.015625)"/>
        <path id="DejaVuSans-35" d="M 691 4666 
L 3169 4666 
L 3169 4134 
L 1269 4134 
L 1269 2991 
Q 1406 3038 1543 3061 
Q 1681 3084 1819 3084 
Q 2600 3084 3056 2656 
Q 3513 2228 3513 1497 
Q 3513 744 3044 326 
Q 2575 -91 1722 -91 
Q 1428 -91 1123 -41 
Q 819 9 494 109 
L 494 744 
Q 775 591 1075 516 
Q 1375 441 1709 441 
Q 2250 441 2565 725 
Q 2881 1009 2881 1497 
Q 2881 1984 2565 2268 
Q 2250 2553 1709 2553 
Q 1456 2553 1204 2497 
Q 953 2441 691 2322 
L 691 4666 
z
" transform="scale(0.015625)"/>
       </defs>
       <use xlink:href="#DejaVuSans-32"/>
       <use xlink:href="#DejaVuSans-35" x="63.623047"/>
      </g>
     </g>
    </g>
    <g id="xtick_3">
     <g id="line2d_5">
      <path d="M 155.404221 307.584 
L 155.404221 41.472 
" clip-path="url(#p50ceda1b1c)" style="fill: none; stroke: #b0b0b0; stroke-width: 0.8; stroke-linecap: square"/>
     </g>
     <g id="line2d_6">
      <g>
       <use xlink:href="#mb8adc4f0a5" x="155.404221" y="307.584" style="stroke: #000000; stroke-width: 0.8"/>
      </g>
     </g>
     <g id="text_3">
      <!-- 50 -->
      <g transform="translate(149.041721 322.182437) scale(0.1 -0.1)">
       <use xlink:href="#DejaVuSans-35"/>
       <use xlink:href="#DejaVuSans-30" x="63.623047"/>
      </g>
     </g>
    </g>
    <g id="xtick_4">
     <g id="line2d_7">
      <path d="M 196.189968 307.584 
L 196.189968 41.472 
" clip-path="url(#p50ceda1b1c)" style="fill: none; stroke: #b0b0b0; stroke-width: 0.8; stroke-linecap: square"/>
     </g>
     <g id="line2d_8">
      <g>
       <use xlink:href="#mb8adc4f0a5" x="196.189968" y="307.584" style="stroke: #000000; stroke-width: 0.8"/>
      </g>
     </g>
     <g id="text_4">
      <!-- 75 -->
      <g transform="translate(189.827468 322.182437) scale(0.1 -0.1)">
       <defs>
        <path id="DejaVuSans-37" d="M 525 4666 
L 3525 4666 
L 3525 4397 
L 1831 0 
L 1172 0 
L 2766 4134 
L 525 4134 
L 525 4666 
z
" transform="scale(0.015625)"/>
       </defs>
       <use xlink:href="#DejaVuSans-37"/>
       <use xlink:href="#DejaVuSans-35" x="63.623047"/>
      </g>
     </g>
    </g>
    <g id="xtick_5">
     <g id="line2d_9">
      <path d="M 236.975715 307.584 
L 236.975715 41.472 
" clip-path="url(#p50ceda1b1c)" style="fill: none; stroke: #b0b0b0; stroke-width: 0.8; stroke-linecap: square"/>
     </g>
     <g id="line2d_10">
      <g>
       <use xlink:href="#mb8adc4f0a5" x="236.975715" y="307.584" style="stroke: #000000; stroke-width: 0.8"/>
      </g>
     </g>
     <g id="text_5">
      <!-- 100 -->
      <g transform="translate(227.431965 322.182437) scale(0.1 -0.1)">
       <defs>
        <path id="DejaVuSans-31" d="M 794 531 
L 1825 531 
L 1825 4091 
L 703 3866 
L 703 4441 
L 1819 4666 
L 2450 4666 
L 2450 531 
L 3481 531 
L 3481 0 
L 794 0 
L 794 531 
z
" transform="scale(0.015625)"/>
       </defs>
       <use xlink:href="#DejaVuSans-31"/>
       <use xlink:href="#DejaVuSans-30" x="63.623047"/>
       <use xlink:href="#DejaVuSans-30" x="127.246094"/>
      </g>
     </g>
    </g>
    <g id="xtick_6">
     <g id="line2d_11">
      <path d="M 277.761462 307.584 
L 277.761462 41.472 
" clip-path="url(#p50ceda1b1c)" style="fill: none; stroke: #b0b0b0; stroke-width: 0.8; stroke-linecap: square"/>
     </g>
     <g id="line2d_12">
      <g>
       <use xlink:href="#mb8adc4f0a5" x="277.761462" y="307.584" style="stroke: #000000; stroke-width: 0.8"/>
      </g>
     </g>
     <g id="text_6">
      <!-- 125 -->
      <g transform="translate(268.217712 322.182437) scale(0.1 -0.1)">
       <use xlink:href="#DejaVuSans-31"/>
       <use xlink:href="#DejaVuSans-32" x="63.623047"/>
       <use xlink:href="#DejaVuSans-35" x="127.246094"/>
      </g>
     </g>
    </g>
    <g id="xtick_7">
     <g id="line2d_13">
      <path d="M 318.547209 307.584 
L 318.547209 41.472 
" clip-path="url(#p50ceda1b1c)" style="fill: none; stroke: #b0b0b0; stroke-width: 0.8; stroke-linecap: square"/>
     </g>
     <g id="line2d_14">
      <g>
       <use xlink:href="#mb8adc4f0a5" x="318.547209" y="307.584" style="stroke: #000000; stroke-width: 0.8"/>
      </g>
     </g>
     <g id="text_7">
      <!-- 150 -->
      <g transform="translate(309.003459 322.182437) scale(0.1 -0.1)">
       <use xlink:href="#DejaVuSans-31"/>
       <use xlink:href="#DejaVuSans-35" x="63.623047"/>
       <use xlink:href="#DejaVuSans-30" x="127.246094"/>
      </g>
     </g>
    </g>
    <g id="xtick_8">
     <g id="line2d_15">
      <path d="M 359.332956 307.584 
L 359.332956 41.472 
" clip-path="url(#p50ceda1b1c)" style="fill: none; stroke: #b0b0b0; stroke-width: 0.8; stroke-linecap: square"/>
     </g>
     <g id="line2d_16">
      <g>
       <use xlink:href="#mb8adc4f0a5" x="359.332956" y="307.584" style="stroke: #000000; stroke-width: 0.8"/>
      </g>
     </g>
     <g id="text_8">
      <!-- 175 -->
      <g transform="translate(349.789206 322.182437) scale(0.1 -0.1)">
       <use xlink:href="#DejaVuSans-31"/>
       <use xlink:href="#DejaVuSans-37" x="63.623047"/>
       <use xlink:href="#DejaVuSans-35" x="127.246094"/>
      </g>
     </g>
    </g>
    <g id="xtick_9">
     <g id="line2d_17">
      <path d="M 400.118703 307.584 
L 400.118703 41.472 
" clip-path="url(#p50ceda1b1c)" style="fill: none; stroke: #b0b0b0; stroke-width: 0.8; stroke-linecap: square"/>
     </g>
     <g id="line2d_18">
      <g>
       <use xlink:href="#mb8adc4f0a5" x="400.118703" y="307.584" style="stroke: #000000; stroke-width: 0.8"/>
      </g>
     </g>
     <g id="text_9">
      <!-- 200 -->
      <g transform="translate(390.574953 322.182437) scale(0.1 -0.1)">
       <use xlink:href="#DejaVuSans-32"/>
       <use xlink:href="#DejaVuSans-30" x="63.623047"/>
       <use xlink:href="#DejaVuSans-30" x="127.246094"/>
      </g>
     </g>
    </g>
    <g id="text_10">
     <!-- Generations -->
     <g transform="translate(205.662344 335.860562) scale(0.1 -0.1)">
      <defs>
       <path id="DejaVuSans-47" d="M 3809 666 
L 3809 1919 
L 2778 1919 
L 2778 2438 
L 4434 2438 
L 4434 434 
Q 4069 175 3628 42 
Q 3188 -91 2688 -91 
Q 1594 -91 976 548 
Q 359 1188 359 2328 
Q 359 3472 976 4111 
Q 1594 4750 2688 4750 
Q 3144 4750 3555 4637 
Q 3966 4525 4313 4306 
L 4313 3634 
Q 3963 3931 3569 4081 
Q 3175 4231 2741 4231 
Q 1884 4231 1454 3753 
Q 1025 3275 1025 2328 
Q 1025 1384 1454 906 
Q 1884 428 2741 428 
Q 3075 428 3337 486 
Q 3600 544 3809 666 
z
" transform="scale(0.015625)"/>
       <path id="DejaVuSans-65" d="M 3597 1894 
L 3597 1613 
L 953 1613 
Q 991 1019 1311 708 
Q 1631 397 2203 397 
Q 2534 397 2845 478 
Q 3156 559 3463 722 
L 3463 178 
Q 3153 47 2828 -22 
Q 2503 -91 2169 -91 
Q 1331 -91 842 396 
Q 353 884 353 1716 
Q 353 2575 817 3079 
Q 1281 3584 2069 3584 
Q 2775 3584 3186 3129 
Q 3597 2675 3597 1894 
z
M 3022 2063 
Q 3016 2534 2758 2815 
Q 2500 3097 2075 3097 
Q 1594 3097 1305 2825 
Q 1016 2553 972 2059 
L 3022 2063 
z
" transform="scale(0.015625)"/>
       <path id="DejaVuSans-6e" d="M 3513 2113 
L 3513 0 
L 2938 0 
L 2938 2094 
Q 2938 2591 2744 2837 
Q 2550 3084 2163 3084 
Q 1697 3084 1428 2787 
Q 1159 2491 1159 1978 
L 1159 0 
L 581 0 
L 581 3500 
L 1159 3500 
L 1159 2956 
Q 1366 3272 1645 3428 
Q 1925 3584 2291 3584 
Q 2894 3584 3203 3211 
Q 3513 2838 3513 2113 
z
" transform="scale(0.015625)"/>
       <path id="DejaVuSans-72" d="M 2631 2963 
Q 2534 3019 2420 3045 
Q 2306 3072 2169 3072 
Q 1681 3072 1420 2755 
Q 1159 2438 1159 1844 
L 1159 0 
L 581 0 
L 581 3500 
L 1159 3500 
L 1159 2956 
Q 1341 3275 1631 3429 
Q 1922 3584 2338 3584 
Q 2397 3584 2469 3576 
Q 2541 3569 2628 3553 
L 2631 2963 
z
" transform="scale(0.015625)"/>
       <path id="DejaVuSans-61" d="M 2194 1759 
Q 1497 1759 1228 1600 
Q 959 1441 959 1056 
Q 959 750 1161 570 
Q 1363 391 1709 391 
Q 2188 391 2477 730 
Q 2766 1069 2766 1631 
L 2766 1759 
L 2194 1759 
z
M 3341 1997 
L 3341 0 
L 2766 0 
L 2766 531 
Q 2569 213 2275 61 
Q 1981 -91 1556 -91 
Q 1019 -91 701 211 
Q 384 513 384 1019 
Q 384 1609 779 1909 
Q 1175 2209 1959 2209 
L 2766 2209 
L 2766 2266 
Q 2766 2663 2505 2880 
Q 2244 3097 1772 3097 
Q 1472 3097 1187 3025 
Q 903 2953 641 2809 
L 641 3341 
Q 956 3463 1253 3523 
Q 1550 3584 1831 3584 
Q 2591 3584 2966 3190 
Q 3341 2797 3341 1997 
z
" transform="scale(0.015625)"/>
       <path id="DejaVuSans-74" d="M 1172 4494 
L 1172 3500 
L 2356 3500 
L 2356 3053 
L 1172 3053 
L 1172 1153 
Q 1172 725 1289 603 
Q 1406 481 1766 481 
L 2356 481 
L 2356 0 
L 1766 0 
Q 1100 0 847 248 
Q 594 497 594 1153 
L 594 3053 
L 172 3053 
L 172 3500 
L 594 3500 
L 594 4494 
L 1172 4494 
z
" transform="scale(0.015625)"/>
       <path id="DejaVuSans-69" d="M 603 3500 
L 1178 3500 
L 1178 0 
L 603 0 
L 603 3500 
z
M 603 4863 
L 1178 4863 
L 1178 4134 
L 603 4134 
L 603 4863 
z
" transform="scale(0.015625)"/>
       <path id="DejaVuSans-6f" d="M 1959 3097 
Q 1497 3097 1228 2736 
Q 959 2375 959 1747 
Q 959 1119 1226 758 
Q 1494 397 1959 397 
Q 2419 397 2687 759 
Q 2956 1122 2956 1747 
Q 2956 2369 2687 2733 
Q 2419 3097 1959 3097 
z
M 1959 3584 
Q 2709 3584 3137 3096 
Q 3566 2609 3566 1747 
Q 3566 888 3137 398 
Q 2709 -91 1959 -91 
Q 1206 -91 779 398 
Q 353 888 353 1747 
Q 353 2609 779 3096 
Q 1206 3584 1959 3584 
z
" transform="scale(0.015625)"/>
       <path id="DejaVuSans-73" d="M 2834 3397 
L 2834 2853 
Q 2591 2978 2328 3040 
Q 2066 3103 1784 3103 
Q 1356 3103 1142 2972 
Q 928 2841 928 2578 
Q 928 2378 1081 2264 
Q 1234 2150 1697 2047 
L 1894 2003 
Q 2506 1872 2764 1633 
Q 3022 1394 3022 966 
Q 3022 478 2636 193 
Q 2250 -91 1575 -91 
Q 1294 -91 989 -36 
Q 684 19 347 128 
L 347 722 
Q 666 556 975 473 
Q 1284 391 1588 391 
Q 1994 391 2212 530 
Q 2431 669 2431 922 
Q 2431 1156 2273 1281 
Q 2116 1406 1581 1522 
L 1381 1569 
Q 847 1681 609 1914 
Q 372 2147 372 2553 
Q 372 3047 722 3315 
Q 1072 3584 1716 3584 
Q 2034 3584 2315 3537 
Q 2597 3491 2834 3397 
z
" transform="scale(0.015625)"/>
      </defs>
      <use xlink:href="#DejaVuSans-47"/>
      <use xlink:href="#DejaVuSans-65" x="77.490234"/>
      <use xlink:href="#DejaVuSans-6e" x="139.013672"/>
      <use xlink:href="#DejaVuSans-65" x="202.392578"/>
      <use xlink:href="#DejaVuSans-72" x="263.916016"/>
      <use xlink:href="#DejaVuSans-61" x="305.029297"/>
      <use xlink:href="#DejaVuSans-74" x="366.308594"/>
      <use xlink:href="#DejaVuSans-69" x="405.517578"/>
      <use xlink:href="#DejaVuSans-6f" x="433.300781"/>
      <use xlink:href="#DejaVuSans-6e" x="494.482422"/>
      <use xlink:href="#DejaVuSans-73" x="557.861328"/>
     </g>
    </g>
   </g>
   <g id="matplotlib.axis_2">
    <g id="ytick_1">
     <g id="line2d_19">
      <path d="M 57.6 284.365149 
L 414.72 284.365149 
" clip-path="url(#p50ceda1b1c)" style="fill: none; stroke: #b0b0b0; stroke-width: 0.8; stroke-linecap: square"/>
     </g>
     <g id="line2d_20">
      <defs>
       <path id="me452f3dc71" d="M 0 0 
L -3.5 0 
" style="stroke: #000000; stroke-width: 0.8"/>
      </defs>
      <g>
       <use xlink:href="#me452f3dc71" x="57.6" y="284.365149" style="stroke: #000000; stroke-width: 0.8"/>
      </g>
     </g>
     <g id="text_11">
      <!-- −2000 -->
      <g transform="translate(16.770313 288.164367) scale(0.1 -0.1)">
       <defs>
        <path id="DejaVuSans-2212" d="M 678 2272 
L 4684 2272 
L 4684 1741 
L 678 1741 
L 678 2272 
z
" transform="scale(0.015625)"/>
       </defs>
       <use xlink:href="#DejaVuSans-2212"/>
       <use xlink:href="#DejaVuSans-32" x="83.789062"/>
       <use xlink:href="#DejaVuSans-30" x="147.412109"/>
       <use xlink:href="#DejaVuSans-30" x="211.035156"/>
       <use xlink:href="#DejaVuSans-30" x="274.658203"/>
      </g>
     </g>
    </g>
    <g id="ytick_2">
     <g id="line2d_21">
      <path d="M 57.6 248.386472 
L 414.72 248.386472 
" clip-path="url(#p50ceda1b1c)" style="fill: none; stroke: #b0b0b0; stroke-width: 0.8; stroke-linecap: square"/>
     </g>
     <g id="line2d_22">
      <g>
       <use xlink:href="#me452f3dc71" x="57.6" y="248.386472" style="stroke: #000000; stroke-width: 0.8"/>
      </g>
     </g>
     <g id="text_12">
      <!-- −1750 -->
      <g transform="translate(16.770313 252.18569) scale(0.1 -0.1)">
       <use xlink:href="#DejaVuSans-2212"/>
       <use xlink:href="#DejaVuSans-31" x="83.789062"/>
       <use xlink:href="#DejaVuSans-37" x="147.412109"/>
       <use xlink:href="#DejaVuSans-35" x="211.035156"/>
       <use xlink:href="#DejaVuSans-30" x="274.658203"/>
      </g>
     </g>
    </g>
    <g id="ytick_3">
     <g id="line2d_23">
      <path d="M 57.6 212.407795 
L 414.72 212.407795 
" clip-path="url(#p50ceda1b1c)" style="fill: none; stroke: #b0b0b0; stroke-width: 0.8; stroke-linecap: square"/>
     </g>
     <g id="line2d_24">
      <g>
       <use xlink:href="#me452f3dc71" x="57.6" y="212.407795" style="stroke: #000000; stroke-width: 0.8"/>
      </g>
     </g>
     <g id="text_13">
      <!-- −1500 -->
      <g transform="translate(16.770313 216.207013) scale(0.1 -0.1)">
       <use xlink:href="#DejaVuSans-2212"/>
       <use xlink:href="#DejaVuSans-31" x="83.789062"/>
       <use xlink:href="#DejaVuSans-35" x="147.412109"/>
       <use xlink:href="#DejaVuSans-30" x="211.035156"/>
       <use xlink:href="#DejaVuSans-30" x="274.658203"/>
      </g>
     </g>
    </g>
    <g id="ytick_4">
     <g id="line2d_25">
      <path d="M 57.6 176.429118 
L 414.72 176.429118 
" clip-path="url(#p50ceda1b1c)" style="fill: none; stroke: #b0b0b0; stroke-width: 0.8; stroke-linecap: square"/>
     </g>
     <g id="line2d_26">
      <g>
       <use xlink:href="#me452f3dc71" x="57.6" y="176.429118" style="stroke: #000000; stroke-width: 0.8"/>
      </g>
     </g>
     <g id="text_14">
      <!-- −1250 -->
      <g transform="translate(16.770313 180.228336) scale(0.1 -0.1)">
       <use xlink:href="#DejaVuSans-2212"/>
       <use xlink:href="#DejaVuSans-31" x="83.789062"/>
       <use xlink:href="#DejaVuSans-32" x="147.412109"/>
       <use xlink:href="#DejaVuSans-35" x="211.035156"/>
       <use xlink:href="#DejaVuSans-30" x="274.658203"/>
      </g>
     </g>
    </g>
    <g id="ytick_5">
     <g id="line2d_27">
      <path d="M 57.6 140.45044 
L 414.72 140.45044 
" clip-path="url(#p50ceda1b1c)" style="fill: none; stroke: #b0b0b0; stroke-width: 0.8; stroke-linecap: square"/>
     </g>
     <g id="line2d_28">
      <g>
       <use xlink:href="#me452f3dc71" x="57.6" y="140.45044" style="stroke: #000000; stroke-width: 0.8"/>
      </g>
     </g>
     <g id="text_15">
      <!-- −1000 -->
      <g transform="translate(16.770313 144.249659) scale(0.1 -0.1)">
       <use xlink:href="#DejaVuSans-2212"/>
       <use xlink:href="#DejaVuSans-31" x="83.789062"/>
       <use xlink:href="#DejaVuSans-30" x="147.412109"/>
       <use xlink:href="#DejaVuSans-30" x="211.035156"/>
       <use xlink:href="#DejaVuSans-30" x="274.658203"/>
      </g>
     </g>
    </g>
    <g id="ytick_6">
     <g id="line2d_29">
      <path d="M 57.6 104.471763 
L 414.72 104.471763 
" clip-path="url(#p50ceda1b1c)" style="fill: none; stroke: #b0b0b0; stroke-width: 0.8; stroke-linecap: square"/>
     </g>
     <g id="line2d_30">
      <g>
       <use xlink:href="#me452f3dc71" x="57.6" y="104.471763" style="stroke: #000000; stroke-width: 0.8"/>
      </g>
     </g>
     <g id="text_16">
      <!-- −750 -->
      <g transform="translate(23.132812 108.270982) scale(0.1 -0.1)">
       <use xlink:href="#DejaVuSans-2212"/>
       <use xlink:href="#DejaVuSans-37" x="83.789062"/>
       <use xlink:href="#DejaVuSans-35" x="147.412109"/>
       <use xlink:href="#DejaVuSans-30" x="211.035156"/>
      </g>
     </g>
    </g>
    <g id="ytick_7">
     <g id="line2d_31">
      <path d="M 57.6 68.493086 
L 414.72 68.493086 
" clip-path="url(#p50ceda1b1c)" style="fill: none; stroke: #b0b0b0; stroke-width: 0.8; stroke-linecap: square"/>
     </g>
     <g id="line2d_32">
      <g>
       <use xlink:href="#me452f3dc71" x="57.6" y="68.493086" style="stroke: #000000; stroke-width: 0.8"/>
      </g>
     </g>
     <g id="text_17">
      <!-- −500 -->
      <g transform="translate(23.132812 72.292305) scale(0.1 -0.1)">
       <use xlink:href="#DejaVuSans-2212"/>
       <use xlink:href="#DejaVuSans-35" x="83.789062"/>
       <use xlink:href="#DejaVuSans-30" x="147.412109"/>
       <use xlink:href="#DejaVuSans-30" x="211.035156"/>
      </g>
     </g>
    </g>
    <g id="text_18">
     <!-- Fitness -->
     <g transform="translate(10.690625 191.845187) rotate(-90) scale(0.1 -0.1)">
      <defs>
       <path id="DejaVuSans-46" d="M 628 4666 
L 3309 4666 
L 3309 4134 
L 1259 4134 
L 1259 2759 
L 3109 2759 
L 3109 2228 
L 1259 2228 
L 1259 0 
L 628 0 
L 628 4666 
z
" transform="scale(0.015625)"/>
      </defs>
      <use xlink:href="#DejaVuSans-46"/>
      <use xlink:href="#DejaVuSans-69" x="50.269531"/>
      <use xlink:href="#DejaVuSans-74" x="78.052734"/>
      <use xlink:href="#DejaVuSans-6e" x="117.261719"/>
      <use xlink:href="#DejaVuSans-65" x="180.640625"/>
      <use xlink:href="#DejaVuSans-73" x="242.164062"/>
      <use xlink:href="#DejaVuSans-73" x="294.263672"/>
     </g>
    </g>
   </g>
   <g id="line2d_33">
    <path d="M 73.832727 264.937763 
L 75.464157 263.294306 
L 77.095587 264.802664 
L 78.727017 263.002272 
L 80.358447 262.201092 
L 85.252736 261.228356 
L 86.884166 258.626387 
L 88.515596 258.637146 
L 90.147026 259.886326 
L 91.778456 259.940568 
L 93.409886 259.687297 
L 96.672746 257.371278 
L 98.304175 259.098302 
L 99.935605 258.858146 
L 101.567035 258.802284 
L 103.198465 259.038812 
L 104.829895 258.689829 
L 106.461325 258.630856 
L 108.092755 258.819331 
L 109.724185 256.987189 
L 111.355614 258.258357 
L 112.987044 257.421019 
L 114.618474 257.597786 
L 116.249904 256.390064 
L 117.881334 256.419921 
L 119.512764 256.818175 
L 121.144194 257.058093 
L 122.775624 257.023965 
L 124.407053 256.310903 
L 126.038483 255.753907 
L 127.669913 257.546047 
L 129.301343 256.117631 
L 130.932773 257.224515 
L 132.564203 256.53104 
L 135.827063 257.282062 
L 137.458492 256.563318 
L 139.089922 257.258487 
L 140.721352 255.098038 
L 142.352782 256.959935 
L 143.984212 254.92106 
L 145.615642 253.885226 
L 147.247072 256.14261 
L 148.878502 255.319633 
L 150.509931 256.954061 
L 152.141361 256.10309 
L 153.772791 258.168772 
L 155.404221 258.187721 
L 157.035651 257.496481 
L 158.667081 253.402528 
L 160.298511 255.842486 
L 161.929941 257.797826 
L 163.56137 256.204193 
L 165.1928 256.917898 
L 166.82423 257.41995 
L 168.45566 257.02195 
L 170.08709 257.789247 
L 173.34995 257.061799 
L 174.98138 256.07975 
L 176.61281 257.419109 
L 178.244239 257.286879 
L 179.875669 257.495558 
L 181.507099 257.072114 
L 183.138529 258.052389 
L 184.769959 256.598789 
L 188.032819 257.643639 
L 189.664249 257.907626 
L 191.295678 257.07637 
L 192.927108 254.671411 
L 194.558538 254.918079 
L 196.189968 255.030728 
L 197.821398 254.755031 
L 199.452828 257.192537 
L 201.084258 257.110236 
L 202.715688 257.31299 
L 204.347117 257.698266 
L 205.978547 254.843112 
L 207.609977 256.557864 
L 209.241407 255.965657 
L 210.872837 256.446062 
L 212.504267 256.412757 
L 214.135697 254.27887 
L 215.767127 252.762724 
L 217.398556 253.662292 
L 219.029986 255.472644 
L 220.661416 255.273576 
L 222.292846 256.506494 
L 223.924276 256.494224 
L 225.555706 257.087105 
L 227.187136 257.288264 
L 228.818566 257.000725 
L 230.449995 258.094913 
L 232.081425 257.28797 
L 233.712855 257.978246 
L 235.344285 256.268797 
L 236.975715 252.359035 
L 238.607145 257.743758 
L 240.238575 256.743168 
L 241.870005 257.121804 
L 243.501434 255.035556 
L 245.132864 256.755107 
L 246.764294 255.11384 
L 248.395724 255.970951 
L 250.027154 254.004745 
L 251.658584 256.79656 
L 253.290014 255.01716 
L 254.921444 256.973037 
L 256.552873 257.143863 
L 258.184303 256.786207 
L 259.815733 254.974229 
L 261.447163 255.774898 
L 263.078593 255.257475 
L 264.710023 255.584085 
L 266.341453 256.047644 
L 267.972883 254.639654 
L 269.604312 254.748751 
L 272.867172 256.01788 
L 274.498602 255.348256 
L 276.130032 255.991014 
L 277.761462 256.052187 
L 279.392892 255.961117 
L 281.024322 254.984598 
L 282.655751 256.610116 
L 284.287181 255.173503 
L 285.918611 254.49743 
L 287.550041 255.545397 
L 289.181471 254.959941 
L 290.812901 253.6639 
L 292.444331 254.770674 
L 294.075761 255.022477 
L 295.70719 252.580019 
L 297.33862 253.329333 
L 298.97005 252.739825 
L 300.60148 252.868525 
L 303.86434 252.42793 
L 305.49577 252.803889 
L 307.1272 254.721416 
L 308.75863 254.18423 
L 310.390059 255.160156 
L 312.021489 252.87314 
L 313.652919 253.537077 
L 315.284349 252.438017 
L 316.915779 254.88986 
L 318.547209 254.256575 
L 320.178639 253.000448 
L 321.810069 253.727999 
L 323.441498 254.109864 
L 326.704358 252.861558 
L 328.335788 253.985819 
L 329.967218 253.969189 
L 331.598648 254.509271 
L 333.230078 257.015258 
L 334.861508 257.379936 
L 336.492937 255.618845 
L 338.124367 256.842065 
L 339.755797 256.636028 
L 341.387227 257.069391 
L 343.018657 252.429617 
L 344.650087 257.690986 
L 346.281517 256.515496 
L 347.912947 256.5251 
L 349.544376 256.327338 
L 351.175806 257.13847 
L 352.807236 256.59311 
L 354.438666 256.906893 
L 356.070096 255.740685 
L 357.701526 256.930098 
L 359.332956 253.655674 
L 362.595815 256.354064 
L 364.227245 256.095083 
L 365.858675 254.139127 
L 367.490105 256.720802 
L 369.121535 256.479779 
L 370.752965 255.107882 
L 372.384395 256.921059 
L 374.015825 257.671872 
L 375.647254 256.335146 
L 377.278684 257.086068 
L 378.910114 256.839642 
L 380.541544 256.732123 
L 382.172974 256.885234 
L 385.435834 255.879604 
L 387.067264 257.522129 
L 388.698693 256.281426 
L 390.330123 255.398763 
L 391.961553 256.853539 
L 393.592983 257.184368 
L 395.224413 257.223117 
L 396.855843 255.74975 
L 398.487273 254.090085 
L 398.487273 254.090085 
" clip-path="url(#p50ceda1b1c)" style="fill: none; stroke: #0000ff; stroke-width: 1.5; stroke-linecap: square"/>
   </g>
   <g id="line2d_34">
    <path d="M 73.832727 290.456979 
L 75.464157 291.730964 
L 77.095587 286.080719 
L 78.727017 284.26956 
L 81.989877 281.881469 
L 85.252736 281.321004 
L 86.884166 285.282285 
L 88.515596 286.263741 
L 90.147026 282.376794 
L 91.778456 282.639127 
L 93.409886 284.822845 
L 95.041316 283.368681 
L 96.672746 287.042203 
L 98.304175 285.633232 
L 99.935605 285.404586 
L 101.567035 285.357043 
L 103.198465 285.641605 
L 104.829895 285.22405 
L 106.461325 285.145278 
L 109.724185 286.181882 
L 111.355614 285.195166 
L 112.987044 286.969466 
L 114.618474 286.751947 
L 116.249904 289.506609 
L 117.881334 288.356128 
L 119.512764 288.266659 
L 121.144194 287.86823 
L 122.775624 288.256863 
L 124.407053 288.78821 
L 126.038483 287.650678 
L 127.669913 288.893681 
L 129.301343 291.251891 
L 130.932773 287.940335 
L 132.564203 287.45117 
L 134.195633 287.791121 
L 135.827063 288.401149 
L 137.458492 287.373981 
L 139.089922 288.997259 
L 142.352782 288.597491 
L 143.984212 289.173618 
L 145.615642 290.171476 
L 148.878502 290.795691 
L 150.509931 289.888967 
L 152.141361 289.121509 
L 153.772791 288.827232 
L 155.404221 288.8773 
L 157.035651 288.162053 
L 158.667081 291.938128 
L 160.298511 290.455242 
L 161.929941 289.973159 
L 163.56137 292.256559 
L 165.1928 289.565713 
L 166.82423 290.532863 
L 168.45566 289.70773 
L 170.08709 290.837392 
L 173.34995 289.754385 
L 174.98138 292.675964 
L 176.61281 290.574146 
L 178.244239 290.737383 
L 179.875669 291.403921 
L 181.507099 291.234523 
L 183.138529 291.619594 
L 184.769959 290.452647 
L 188.032819 291.738835 
L 189.664249 291.724397 
L 191.295678 291.044482 
L 192.927108 291.791308 
L 194.558538 293.236061 
L 196.189968 293.621758 
L 197.821398 290.79219 
L 199.452828 288.725308 
L 201.084258 288.460186 
L 202.715688 288.573276 
L 204.347117 288.463814 
L 205.978547 291.29548 
L 209.241407 289.136174 
L 210.872837 289.597282 
L 212.504267 289.640009 
L 214.135697 289.52209 
L 217.398556 292.706042 
L 219.029986 289.620198 
L 220.661416 289.370173 
L 222.292846 288.765405 
L 223.924276 289.009143 
L 225.555706 288.812338 
L 227.187136 288.261928 
L 228.818566 288.124647 
L 232.081425 288.11332 
L 233.712855 287.535794 
L 235.344285 290.74083 
L 236.975715 292.09688 
L 238.607145 287.856456 
L 240.238575 288.503741 
L 241.870005 288.438564 
L 243.501434 290.555178 
L 245.132864 289.115709 
L 246.764294 291.948111 
L 248.395724 290.920208 
L 250.027154 291.166456 
L 251.658584 290.030566 
L 253.290014 291.624884 
L 254.921444 290.587553 
L 256.552873 290.820973 
L 258.184303 290.353941 
L 259.815733 290.415735 
L 261.447163 290.924818 
L 263.078593 290.962827 
L 264.710023 291.206283 
L 266.341453 291.279781 
L 267.972883 289.995377 
L 269.604312 291.537911 
L 271.235742 291.730191 
L 272.867172 290.527451 
L 274.498602 290.605568 
L 276.130032 290.139993 
L 277.761462 290.720476 
L 279.392892 290.623042 
L 281.024322 291.820395 
L 282.655751 291.3024 
L 284.287181 293.286925 
L 285.918611 292.42407 
L 287.550041 291.977759 
L 289.181471 290.266447 
L 290.812901 291.471769 
L 292.444331 292.434548 
L 294.075761 292.702902 
L 295.70719 292.421133 
L 297.33862 294.708504 
L 298.97005 294.780726 
L 300.60148 294.661503 
L 302.23291 293.370038 
L 303.86434 293.910562 
L 305.49577 293.486504 
L 308.75863 291.819247 
L 310.390059 292.199631 
L 312.021489 293.125004 
L 313.652919 295.488 
L 315.284349 292.252793 
L 316.915779 293.104876 
L 318.547209 293.246445 
L 320.178639 292.200274 
L 321.810069 292.963958 
L 323.441498 293.080106 
L 325.072928 293.017058 
L 326.704358 293.683029 
L 328.335788 293.870161 
L 329.967218 293.262209 
L 333.230078 290.857538 
L 334.861508 290.794465 
L 336.492937 291.556489 
L 338.124367 289.742683 
L 339.755797 289.999288 
L 341.387227 290.382615 
L 343.018657 292.43331 
L 344.650087 290.984784 
L 346.281517 290.195472 
L 347.912947 289.836799 
L 349.544376 289.599497 
L 351.175806 290.459749 
L 352.807236 289.926932 
L 354.438666 290.50379 
L 356.070096 291.722544 
L 357.701526 290.388908 
L 359.332956 294.190782 
L 360.964386 293.227709 
L 362.595815 289.985535 
L 364.227245 288.960459 
L 365.858675 291.854803 
L 367.490105 293.084442 
L 369.121535 290.140988 
L 370.752965 292.266584 
L 372.384395 290.7116 
L 374.015825 291.494635 
L 375.647254 289.609738 
L 377.278684 290.549443 
L 380.541544 290.298465 
L 382.172974 290.467547 
L 383.804404 289.81476 
L 385.435834 291.936361 
L 387.067264 291.315146 
L 388.698693 289.73792 
L 390.330123 291.043543 
L 391.961553 290.275204 
L 393.592983 290.50656 
L 395.224413 290.918558 
L 396.855843 292.874198 
L 398.487273 294.237829 
L 398.487273 294.237829 
" clip-path="url(#p50ceda1b1c)" style="fill: none; stroke-dasharray: 9.6,2.4,1.5,2.4; stroke-dashoffset: 0; stroke: #008000; stroke-width: 1.5"/>
   </g>
   <g id="line2d_35">
    <path d="M 73.832727 239.418546 
L 75.464157 234.857647 
L 77.095587 243.524609 
L 78.727017 241.734984 
L 80.358447 241.306005 
L 81.989877 241.854589 
L 83.621307 241.33849 
L 85.252736 241.135709 
L 86.884166 231.970488 
L 88.515596 231.010552 
L 90.147026 237.395858 
L 91.778456 237.242008 
L 93.409886 234.551749 
L 95.041316 233.552424 
L 96.672746 227.700353 
L 98.304175 232.563371 
L 99.935605 232.311706 
L 101.567035 232.247524 
L 103.198465 232.436019 
L 104.829895 232.155608 
L 106.461325 232.116434 
L 108.092755 231.942518 
L 109.724185 227.792495 
L 111.355614 231.321549 
L 112.987044 227.872571 
L 114.618474 228.443624 
L 116.249904 223.27352 
L 117.881334 224.483714 
L 121.144194 226.247956 
L 122.775624 225.791067 
L 124.407053 223.833597 
L 126.038483 223.857136 
L 127.669913 226.198413 
L 129.301343 220.983372 
L 130.932773 226.508695 
L 132.564203 225.61091 
L 134.195633 225.975811 
L 135.827063 226.162975 
L 137.458492 225.752655 
L 139.089922 225.519714 
L 140.721352 221.434282 
L 142.352782 225.322379 
L 143.984212 220.668502 
L 145.615642 217.598976 
L 147.247072 221.793963 
L 148.878502 219.843575 
L 150.509931 224.019154 
L 152.141361 223.08467 
L 153.772791 227.510312 
L 155.404221 227.498141 
L 157.035651 226.830908 
L 158.667081 214.866929 
L 160.298511 221.22973 
L 161.929941 225.622492 
L 163.56137 220.151827 
L 165.1928 224.270083 
L 168.45566 224.336169 
L 170.08709 224.741101 
L 171.71852 224.424053 
L 173.34995 224.369212 
L 174.98138 219.483537 
L 176.61281 224.264072 
L 178.244239 223.836374 
L 179.875669 223.587194 
L 181.507099 222.909705 
L 183.138529 224.485183 
L 184.769959 222.744931 
L 188.032819 223.548443 
L 189.664249 224.090855 
L 191.295678 223.108258 
L 192.927108 217.551514 
L 194.558538 216.600097 
L 196.189968 216.439699 
L 197.821398 218.717871 
L 199.452828 225.659767 
L 201.084258 225.760286 
L 202.715688 226.052704 
L 204.347117 226.932719 
L 205.978547 218.390744 
L 207.609977 222.873935 
L 209.241407 222.795139 
L 210.872837 223.294842 
L 212.504267 223.185505 
L 214.135697 219.03565 
L 215.767127 214.354531 
L 217.398556 214.618541 
L 219.029986 221.325089 
L 220.661416 221.176978 
L 222.292846 224.247583 
L 223.924276 223.979306 
L 225.555706 225.361872 
L 227.187136 226.314599 
L 228.818566 225.876802 
L 230.449995 228.015901 
L 232.081425 226.46262 
L 233.712855 228.420698 
L 235.344285 221.796765 
L 236.975715 212.621191 
L 238.607145 227.631059 
L 240.238575 224.982596 
L 241.870005 225.805044 
L 243.501434 219.515934 
L 245.132864 224.394505 
L 246.764294 218.27957 
L 248.395724 221.021693 
L 250.027154 216.843033 
L 251.658584 223.562554 
L 253.290014 218.409436 
L 254.921444 223.35852 
L 256.552873 223.466754 
L 258.184303 223.218472 
L 259.815733 219.532723 
L 261.447163 220.624978 
L 263.078593 219.552124 
L 264.710023 219.961888 
L 266.341453 220.815507 
L 267.972883 219.283931 
L 269.604312 217.959591 
L 271.235742 218.9517 
L 272.867172 221.508309 
L 274.498602 220.090945 
L 276.130032 221.842036 
L 277.761462 221.383898 
L 279.392892 221.299193 
L 281.024322 218.148801 
L 282.655751 221.917831 
L 284.287181 217.060081 
L 285.918611 216.570789 
L 287.550041 219.113036 
L 289.181471 219.653435 
L 290.812901 215.856032 
L 292.444331 217.1068 
L 294.075761 217.342052 
L 295.70719 212.738905 
L 297.33862 211.950162 
L 298.97005 210.698924 
L 300.60148 211.075547 
L 302.23291 211.818773 
L 303.86434 210.945298 
L 305.49577 212.121273 
L 307.1272 216.734043 
L 308.75863 216.549213 
L 310.390059 218.12068 
L 312.021489 212.621276 
L 313.652919 211.586155 
L 315.284349 212.62324 
L 316.915779 216.674844 
L 320.178639 213.800622 
L 323.441498 215.139622 
L 325.072928 213.896059 
L 326.704358 212.040087 
L 328.335788 214.101476 
L 329.967218 214.676169 
L 331.598648 217.016551 
L 333.230078 223.172978 
L 334.861508 223.965408 
L 336.492937 219.681201 
L 338.124367 223.941446 
L 339.755797 223.272768 
L 341.387227 223.756167 
L 343.018657 212.425925 
L 344.650087 224.397187 
L 346.281517 222.83552 
L 347.912947 223.213401 
L 349.544376 223.055179 
L 351.175806 223.817192 
L 352.807236 223.259288 
L 354.438666 223.309997 
L 356.070096 219.758826 
L 357.701526 223.471289 
L 359.332956 213.120566 
L 360.964386 216.917237 
L 362.595815 222.722594 
L 364.227245 223.229707 
L 365.858675 216.423451 
L 367.490105 220.357162 
L 369.121535 222.818569 
L 370.752965 217.94918 
L 372.384395 223.130519 
L 374.015825 223.849109 
L 375.647254 223.060555 
L 377.278684 223.622692 
L 378.910114 223.247506 
L 380.541544 223.165782 
L 382.172974 223.302922 
L 383.804404 222.905879 
L 385.435834 219.822847 
L 387.067264 223.729112 
L 388.698693 222.824932 
L 390.330123 219.753983 
L 391.961553 223.431873 
L 393.592983 223.862175 
L 395.224413 223.527677 
L 398.487273 213.942342 
L 398.487273 213.942342 
" clip-path="url(#p50ceda1b1c)" style="fill: none; stroke-dasharray: 9.6,2.4,1.5,2.4; stroke-dashoffset: 0; stroke: #008000; stroke-width: 1.5"/>
   </g>
   <g id="line2d_36">
    <path d="M 73.832727 53.568 
L 398.487273 53.568 
L 398.487273 53.568 
" clip-path="url(#p50ceda1b1c)" style="fill: none; stroke: #ff0000; stroke-width: 1.5; stroke-linecap: square"/>
   </g>
   <g id="patch_3">
    <path d="M 57.6 307.584 
L 57.6 41.472 
" style="fill: none; stroke: #000000; stroke-width: 0.8; stroke-linejoin: miter; stroke-linecap: square"/>
   </g>
   <g id="patch_4">
    <path d="M 414.72 307.584 
L 414.72 41.472 
" style="fill: none; stroke: #000000; stroke-width: 0.8; stroke-linejoin: miter; stroke-linecap: square"/>
   </g>
   <g id="patch_5">
    <path d="M 57.6 307.584 
L 414.72 307.584 
" style="fill: none; stroke: #000000; stroke-width: 0.8; stroke-linejoin: miter; stroke-linecap: square"/>
   </g>
   <g id="patch_6">
    <path d="M 57.6 41.472 
L 414.72 41.472 
" style="fill: none; stroke: #000000; stroke-width: 0.8; stroke-linejoin: miter; stroke-linecap: square"/>
   </g>
   <g id="text_19">
    <!-- Population's average and best fitness -->
    <g transform="translate(123.529687 35.472) scale(0.12 -0.12)">
     <defs>
      <path id="DejaVuSans-50" d="M 1259 4147 
L 1259 2394 
L 2053 2394 
Q 2494 2394 2734 2622 
Q 2975 2850 2975 3272 
Q 2975 3691 2734 3919 
Q 2494 4147 2053 4147 
L 1259 4147 
z
M 628 4666 
L 2053 4666 
Q 2838 4666 3239 4311 
Q 3641 3956 3641 3272 
Q 3641 2581 3239 2228 
Q 2838 1875 2053 1875 
L 1259 1875 
L 1259 0 
L 628 0 
L 628 4666 
z
" transform="scale(0.015625)"/>
      <path id="DejaVuSans-70" d="M 1159 525 
L 1159 -1331 
L 581 -1331 
L 581 3500 
L 1159 3500 
L 1159 2969 
Q 1341 3281 1617 3432 
Q 1894 3584 2278 3584 
Q 2916 3584 3314 3078 
Q 3713 2572 3713 1747 
Q 3713 922 3314 415 
Q 2916 -91 2278 -91 
Q 1894 -91 1617 61 
Q 1341 213 1159 525 
z
M 3116 1747 
Q 3116 2381 2855 2742 
Q 2594 3103 2138 3103 
Q 1681 3103 1420 2742 
Q 1159 2381 1159 1747 
Q 1159 1113 1420 752 
Q 1681 391 2138 391 
Q 2594 391 2855 752 
Q 3116 1113 3116 1747 
z
" transform="scale(0.015625)"/>
      <path id="DejaVuSans-75" d="M 544 1381 
L 544 3500 
L 1119 3500 
L 1119 1403 
Q 1119 906 1312 657 
Q 1506 409 1894 409 
Q 2359 409 2629 706 
Q 2900 1003 2900 1516 
L 2900 3500 
L 3475 3500 
L 3475 0 
L 2900 0 
L 2900 538 
Q 2691 219 2414 64 
Q 2138 -91 1772 -91 
Q 1169 -91 856 284 
Q 544 659 544 1381 
z
M 1991 3584 
L 1991 3584 
z
" transform="scale(0.015625)"/>
      <path id="DejaVuSans-6c" d="M 603 4863 
L 1178 4863 
L 1178 0 
L 603 0 
L 603 4863 
z
" transform="scale(0.015625)"/>
      <path id="DejaVuSans-27" d="M 1147 4666 
L 1147 2931 
L 616 2931 
L 616 4666 
L 1147 4666 
z
" transform="scale(0.015625)"/>
      <path id="DejaVuSans-20" transform="scale(0.015625)"/>
      <path id="DejaVuSans-76" d="M 191 3500 
L 800 3500 
L 1894 563 
L 2988 3500 
L 3597 3500 
L 2284 0 
L 1503 0 
L 191 3500 
z
" transform="scale(0.015625)"/>
      <path id="DejaVuSans-67" d="M 2906 1791 
Q 2906 2416 2648 2759 
Q 2391 3103 1925 3103 
Q 1463 3103 1205 2759 
Q 947 2416 947 1791 
Q 947 1169 1205 825 
Q 1463 481 1925 481 
Q 2391 481 2648 825 
Q 2906 1169 2906 1791 
z
M 3481 434 
Q 3481 -459 3084 -895 
Q 2688 -1331 1869 -1331 
Q 1566 -1331 1297 -1286 
Q 1028 -1241 775 -1147 
L 775 -588 
Q 1028 -725 1275 -790 
Q 1522 -856 1778 -856 
Q 2344 -856 2625 -561 
Q 2906 -266 2906 331 
L 2906 616 
Q 2728 306 2450 153 
Q 2172 0 1784 0 
Q 1141 0 747 490 
Q 353 981 353 1791 
Q 353 2603 747 3093 
Q 1141 3584 1784 3584 
Q 2172 3584 2450 3431 
Q 2728 3278 2906 2969 
L 2906 3500 
L 3481 3500 
L 3481 434 
z
" transform="scale(0.015625)"/>
      <path id="DejaVuSans-64" d="M 2906 2969 
L 2906 4863 
L 3481 4863 
L 3481 0 
L 2906 0 
L 2906 525 
Q 2725 213 2448 61 
Q 2172 -91 1784 -91 
Q 1150 -91 751 415 
Q 353 922 353 1747 
Q 353 2572 751 3078 
Q 1150 3584 1784 3584 
Q 2172 3584 2448 3432 
Q 2725 3281 2906 2969 
z
M 947 1747 
Q 947 1113 1208 752 
Q 1469 391 1925 391 
Q 2381 391 2643 752 
Q 2906 1113 2906 1747 
Q 2906 2381 2643 2742 
Q 2381 3103 1925 3103 
Q 1469 3103 1208 2742 
Q 947 2381 947 1747 
z
" transform="scale(0.015625)"/>
      <path id="DejaVuSans-62" d="M 3116 1747 
Q 3116 2381 2855 2742 
Q 2594 3103 2138 3103 
Q 1681 3103 1420 2742 
Q 1159 2381 1159 1747 
Q 1159 1113 1420 752 
Q 1681 391 2138 391 
Q 2594 391 2855 752 
Q 3116 1113 3116 1747 
z
M 1159 2969 
Q 1341 3281 1617 3432 
Q 1894 3584 2278 3584 
Q 2916 3584 3314 3078 
Q 3713 2572 3713 1747 
Q 3713 922 3314 415 
Q 2916 -91 2278 -91 
Q 1894 -91 1617 61 
Q 1341 213 1159 525 
L 1159 0 
L 581 0 
L 581 4863 
L 1159 4863 
L 1159 2969 
z
" transform="scale(0.015625)"/>
      <path id="DejaVuSans-66" d="M 2375 4863 
L 2375 4384 
L 1825 4384 
Q 1516 4384 1395 4259 
Q 1275 4134 1275 3809 
L 1275 3500 
L 2222 3500 
L 2222 3053 
L 1275 3053 
L 1275 0 
L 697 0 
L 697 3053 
L 147 3053 
L 147 3500 
L 697 3500 
L 697 3744 
Q 697 4328 969 4595 
Q 1241 4863 1831 4863 
L 2375 4863 
z
" transform="scale(0.015625)"/>
     </defs>
     <use xlink:href="#DejaVuSans-50"/>
     <use xlink:href="#DejaVuSans-6f" x="56.677734"/>
     <use xlink:href="#DejaVuSans-70" x="117.859375"/>
     <use xlink:href="#DejaVuSans-75" x="181.335938"/>
     <use xlink:href="#DejaVuSans-6c" x="244.714844"/>
     <use xlink:href="#DejaVuSans-61" x="272.498047"/>
     <use xlink:href="#DejaVuSans-74" x="333.777344"/>
     <use xlink:href="#DejaVuSans-69" x="372.986328"/>
     <use xlink:href="#DejaVuSans-6f" x="400.769531"/>
     <use xlink:href="#DejaVuSans-6e" x="461.951172"/>
     <use xlink:href="#DejaVuSans-27" x="525.330078"/>
     <use xlink:href="#DejaVuSans-73" x="552.820312"/>
     <use xlink:href="#DejaVuSans-20" x="604.919922"/>
     <use xlink:href="#DejaVuSans-61" x="636.707031"/>
     <use xlink:href="#DejaVuSans-76" x="697.986328"/>
     <use xlink:href="#DejaVuSans-65" x="757.166016"/>
     <use xlink:href="#DejaVuSans-72" x="818.689453"/>
     <use xlink:href="#DejaVuSans-61" x="859.802734"/>
     <use xlink:href="#DejaVuSans-67" x="921.082031"/>
     <use xlink:href="#DejaVuSans-65" x="984.558594"/>
     <use xlink:href="#DejaVuSans-20" x="1046.082031"/>
     <use xlink:href="#DejaVuSans-61" x="1077.869141"/>
     <use xlink:href="#DejaVuSans-6e" x="1139.148438"/>
     <use xlink:href="#DejaVuSans-64" x="1202.527344"/>
     <use xlink:href="#DejaVuSans-20" x="1266.003906"/>
     <use xlink:href="#DejaVuSans-62" x="1297.791016"/>
     <use xlink:href="#DejaVuSans-65" x="1361.267578"/>
     <use xlink:href="#DejaVuSans-73" x="1422.791016"/>
     <use xlink:href="#DejaVuSans-74" x="1474.890625"/>
     <use xlink:href="#DejaVuSans-20" x="1514.099609"/>
     <use xlink:href="#DejaVuSans-66" x="1545.886719"/>
     <use xlink:href="#DejaVuSans-69" x="1581.091797"/>
     <use xlink:href="#DejaVuSans-74" x="1608.875"/>
     <use xlink:href="#DejaVuSans-6e" x="1648.083984"/>
     <use xlink:href="#DejaVuSans-65" x="1711.462891"/>
     <use xlink:href="#DejaVuSans-73" x="1772.986328"/>
     <use xlink:href="#DejaVuSans-73" x="1825.085938"/>
    </g>
   </g>
   <g id="legend_1">
    <g id="patch_7">
     <path d="M 334.779375 205.38425 
L 407.72 205.38425 
Q 409.72 205.38425 409.72 203.38425 
L 409.72 145.67175 
Q 409.72 143.67175 407.72 143.67175 
L 334.779375 143.67175 
Q 332.779375 143.67175 332.779375 145.67175 
L 332.779375 203.38425 
Q 332.779375 205.38425 334.779375 205.38425 
z
" style="fill: #ffffff; opacity: 0.8; stroke: #cccccc; stroke-linejoin: miter"/>
    </g>
    <g id="line2d_37">
     <path d="M 336.779375 151.770188 
L 346.779375 151.770188 
L 356.779375 151.770188 
" style="fill: none; stroke: #0000ff; stroke-width: 1.5; stroke-linecap: square"/>
    </g>
    <g id="text_20">
     <!-- average -->
     <g transform="translate(364.779375 155.270188) scale(0.1 -0.1)">
      <use xlink:href="#DejaVuSans-61"/>
      <use xlink:href="#DejaVuSans-76" x="61.279297"/>
      <use xlink:href="#DejaVuSans-65" x="120.458984"/>
      <use xlink:href="#DejaVuSans-72" x="181.982422"/>
      <use xlink:href="#DejaVuSans-61" x="223.095703"/>
      <use xlink:href="#DejaVuSans-67" x="284.375"/>
      <use xlink:href="#DejaVuSans-65" x="347.851562"/>
     </g>
    </g>
    <g id="line2d_38">
     <path d="M 336.779375 166.448313 
L 346.779375 166.448313 
L 356.779375 166.448313 
" style="fill: none; stroke-dasharray: 9.6,2.4,1.5,2.4; stroke-dashoffset: 0; stroke: #008000; stroke-width: 1.5"/>
    </g>
    <g id="text_21">
     <!-- -1 sd -->
     <g transform="translate(364.779375 169.948313) scale(0.1 -0.1)">
      <defs>
       <path id="DejaVuSans-2d" d="M 313 2009 
L 1997 2009 
L 1997 1497 
L 313 1497 
L 313 2009 
z
" transform="scale(0.015625)"/>
      </defs>
      <use xlink:href="#DejaVuSans-2d"/>
      <use xlink:href="#DejaVuSans-31" x="36.083984"/>
      <use xlink:href="#DejaVuSans-20" x="99.707031"/>
      <use xlink:href="#DejaVuSans-73" x="131.494141"/>
      <use xlink:href="#DejaVuSans-64" x="183.59375"/>
     </g>
    </g>
    <g id="line2d_39">
     <path d="M 336.779375 181.126438 
L 346.779375 181.126438 
L 356.779375 181.126438 
" style="fill: none; stroke-dasharray: 9.6,2.4,1.5,2.4; stroke-dashoffset: 0; stroke: #008000; stroke-width: 1.5"/>
    </g>
    <g id="text_22">
     <!-- +1 sd -->
     <g transform="translate(364.779375 184.626438) scale(0.1 -0.1)">
      <defs>
       <path id="DejaVuSans-2b" d="M 2944 4013 
L 2944 2272 
L 4684 2272 
L 4684 1741 
L 2944 1741 
L 2944 0 
L 2419 0 
L 2419 1741 
L 678 1741 
L 678 2272 
L 2419 2272 
L 2419 4013 
L 2944 4013 
z
" transform="scale(0.015625)"/>
      </defs>
      <use xlink:href="#DejaVuSans-2b"/>
      <use xlink:href="#DejaVuSans-31" x="83.789062"/>
      <use xlink:href="#DejaVuSans-20" x="147.412109"/>
      <use xlink:href="#DejaVuSans-73" x="179.199219"/>
      <use xlink:href="#DejaVuSans-64" x="231.298828"/>
     </g>
    </g>
    <g id="line2d_40">
     <path d="M 336.779375 195.804563 
L 346.779375 195.804563 
L 356.779375 195.804563 
" style="fill: none; stroke: #ff0000; stroke-width: 1.5; stroke-linecap: square"/>
    </g>
    <g id="text_23">
     <!-- best -->
     <g transform="translate(364.779375 199.304563) scale(0.1 -0.1)">
      <use xlink:href="#DejaVuSans-62"/>
      <use xlink:href="#DejaVuSans-65" x="63.476562"/>
      <use xlink:href="#DejaVuSans-73" x="125"/>
      <use xlink:href="#DejaVuSans-74" x="177.099609"/>
     </g>
    </g>
   </g>
  </g>
 </g>
 <defs>
  <clipPath id="p50ceda1b1c">
   <rect x="57.6" y="41.472" width="357.12" height="266.112"/>
  </clipPath>
 </defs>
</svg>
