<?xml version="1.0" encoding="utf-8" standalone="no"?>
<!DOCTYPE svg PUBLIC "-//W3C//DTD SVG 1.1//EN"
  "http://www.w3.org/Graphics/SVG/1.1/DTD/svg11.dtd">
<svg xmlns:xlink="http://www.w3.org/1999/xlink" width="460.8pt" height="345.6pt" viewBox="0 0 460.8 345.6" xmlns="http://www.w3.org/2000/svg" version="1.1">
 <metadata>
  <rdf:RDF xmlns:dc="http://purl.org/dc/elements/1.1/" xmlns:cc="http://creativecommons.org/ns#" xmlns:rdf="http://www.w3.org/1999/02/22-rdf-syntax-ns#">
   <cc:Work>
    <dc:type rdf:resource="http://purl.org/dc/dcmitype/StillImage"/>
    <dc:date>2024-08-05T16:00:55.169373</dc:date>
    <dc:format>image/svg+xml</dc:format>
    <dc:creator>
     <cc:Agent>
      <dc:title>Matplotlib v3.8.4, https://matplotlib.org/</dc:title>
     </cc:Agent>
    </dc:creator>
   </cc:Work>
  </rdf:RDF>
 </metadata>
 <defs>
  <style type="text/css">*{stroke-linejoin: round; stroke-linecap: butt}</style>
 </defs>
 <g id="figure_1">
  <g id="patch_1">
   <path d="M 0 345.6 
L 460.8 345.6 
L 460.8 0 
L 0 0 
z
" style="fill: #ffffff"/>
  </g>
  <g id="axes_1">
   <g id="patch_2">
    <path d="M 57.6 307.584 
L 414.72 307.584 
L 414.72 41.472 
L 57.6 41.472 
z
" style="fill: #ffffff"/>
   </g>
   <g id="matplotlib.axis_1">
    <g id="xtick_1">
     <g id="line2d_1">
      <path d="M 73.832727 307.584 
L 73.832727 41.472 
" clip-path="url(#pa1c81cb05a)" style="fill: none; stroke: #b0b0b0; stroke-width: 0.8; stroke-linecap: square"/>
     </g>
     <g id="line2d_2">
      <defs>
       <path id="mb225621dab" d="M 0 0 
L 0 3.5 
" style="stroke: #000000; stroke-width: 0.8"/>
      </defs>
      <g>
       <use xlink:href="#mb225621dab" x="73.832727" y="307.584" style="stroke: #000000; stroke-width: 0.8"/>
      </g>
     </g>
     <g id="text_1">
      <!-- 0 -->
      <g transform="translate(70.651477 322.182437) scale(0.1 -0.1)">
       <defs>
        <path id="DejaVuSans-30" d="M 2034 4250 
Q 1547 4250 1301 3770 
Q 1056 3291 1056 2328 
Q 1056 1369 1301 889 
Q 1547 409 2034 409 
Q 2525 409 2770 889 
Q 3016 1369 3016 2328 
Q 3016 3291 2770 3770 
Q 2525 4250 2034 4250 
z
M 2034 4750 
Q 2819 4750 3233 4129 
Q 3647 3509 3647 2328 
Q 3647 1150 3233 529 
Q 2819 -91 2034 -91 
Q 1250 -91 836 529 
Q 422 1150 422 2328 
Q 422 3509 836 4129 
Q 1250 4750 2034 4750 
z
" transform="scale(0.015625)"/>
       </defs>
       <use xlink:href="#DejaVuSans-30"/>
      </g>
     </g>
    </g>
    <g id="xtick_2">
     <g id="line2d_3">
      <path d="M 114.618474 307.584 
L 114.618474 41.472 
" clip-path="url(#pa1c81cb05a)" style="fill: none; stroke: #b0b0b0; stroke-width: 0.8; stroke-linecap: square"/>
     </g>
     <g id="line2d_4">
      <g>
       <use xlink:href="#mb225621dab" x="114.618474" y="307.584" style="stroke: #000000; stroke-width: 0.8"/>
      </g>
     </g>
     <g id="text_2">
      <!-- 25 -->
      <g transform="translate(108.255974 322.182437) scale(0.1 -0.1)">
       <defs>
        <path id="DejaVuSans-32" d="M 1228 531 
L 3431 531 
L 3431 0 
L 469 0 
L 469 531 
Q 828 903 1448 1529 
Q 2069 2156 2228 2338 
Q 2531 2678 2651 2914 
Q 2772 3150 2772 3378 
Q 2772 3750 2511 3984 
Q 2250 4219 1831 4219 
Q 1534 4219 1204 4116 
Q 875 4013 500 3803 
L 500 4441 
Q 881 4594 1212 4672 
Q 1544 4750 1819 4750 
Q 2544 4750 2975 4387 
Q 3406 4025 3406 3419 
Q 3406 3131 3298 2873 
Q 3191 2616 2906 2266 
Q 2828 2175 2409 1742 
Q 1991 1309 1228 531 
z
" transform="scale(0.015625)"/>
        <path id="DejaVuSans-35" d="M 691 4666 
L 3169 4666 
L 3169 4134 
L 1269 4134 
L 1269 2991 
Q 1406 3038 1543 3061 
Q 1681 3084 1819 3084 
Q 2600 3084 3056 2656 
Q 3513 2228 3513 1497 
Q 3513 744 3044 326 
Q 2575 -91 1722 -91 
Q 1428 -91 1123 -41 
Q 819 9 494 109 
L 494 744 
Q 775 591 1075 516 
Q 1375 441 1709 441 
Q 2250 441 2565 725 
Q 2881 1009 2881 1497 
Q 2881 1984 2565 2268 
Q 2250 2553 1709 2553 
Q 1456 2553 1204 2497 
Q 953 2441 691 2322 
L 691 4666 
z
" transform="scale(0.015625)"/>
       </defs>
       <use xlink:href="#DejaVuSans-32"/>
       <use xlink:href="#DejaVuSans-35" x="63.623047"/>
      </g>
     </g>
    </g>
    <g id="xtick_3">
     <g id="line2d_5">
      <path d="M 155.404221 307.584 
L 155.404221 41.472 
" clip-path="url(#pa1c81cb05a)" style="fill: none; stroke: #b0b0b0; stroke-width: 0.8; stroke-linecap: square"/>
     </g>
     <g id="line2d_6">
      <g>
       <use xlink:href="#mb225621dab" x="155.404221" y="307.584" style="stroke: #000000; stroke-width: 0.8"/>
      </g>
     </g>
     <g id="text_3">
      <!-- 50 -->
      <g transform="translate(149.041721 322.182437) scale(0.1 -0.1)">
       <use xlink:href="#DejaVuSans-35"/>
       <use xlink:href="#DejaVuSans-30" x="63.623047"/>
      </g>
     </g>
    </g>
    <g id="xtick_4">
     <g id="line2d_7">
      <path d="M 196.189968 307.584 
L 196.189968 41.472 
" clip-path="url(#pa1c81cb05a)" style="fill: none; stroke: #b0b0b0; stroke-width: 0.8; stroke-linecap: square"/>
     </g>
     <g id="line2d_8">
      <g>
       <use xlink:href="#mb225621dab" x="196.189968" y="307.584" style="stroke: #000000; stroke-width: 0.8"/>
      </g>
     </g>
     <g id="text_4">
      <!-- 75 -->
      <g transform="translate(189.827468 322.182437) scale(0.1 -0.1)">
       <defs>
        <path id="DejaVuSans-37" d="M 525 4666 
L 3525 4666 
L 3525 4397 
L 1831 0 
L 1172 0 
L 2766 4134 
L 525 4134 
L 525 4666 
z
" transform="scale(0.015625)"/>
       </defs>
       <use xlink:href="#DejaVuSans-37"/>
       <use xlink:href="#DejaVuSans-35" x="63.623047"/>
      </g>
     </g>
    </g>
    <g id="xtick_5">
     <g id="line2d_9">
      <path d="M 236.975715 307.584 
L 236.975715 41.472 
" clip-path="url(#pa1c81cb05a)" style="fill: none; stroke: #b0b0b0; stroke-width: 0.8; stroke-linecap: square"/>
     </g>
     <g id="line2d_10">
      <g>
       <use xlink:href="#mb225621dab" x="236.975715" y="307.584" style="stroke: #000000; stroke-width: 0.8"/>
      </g>
     </g>
     <g id="text_5">
      <!-- 100 -->
      <g transform="translate(227.431965 322.182437) scale(0.1 -0.1)">
       <defs>
        <path id="DejaVuSans-31" d="M 794 531 
L 1825 531 
L 1825 4091 
L 703 3866 
L 703 4441 
L 1819 4666 
L 2450 4666 
L 2450 531 
L 3481 531 
L 3481 0 
L 794 0 
L 794 531 
z
" transform="scale(0.015625)"/>
       </defs>
       <use xlink:href="#DejaVuSans-31"/>
       <use xlink:href="#DejaVuSans-30" x="63.623047"/>
       <use xlink:href="#DejaVuSans-30" x="127.246094"/>
      </g>
     </g>
    </g>
    <g id="xtick_6">
     <g id="line2d_11">
      <path d="M 277.761462 307.584 
L 277.761462 41.472 
" clip-path="url(#pa1c81cb05a)" style="fill: none; stroke: #b0b0b0; stroke-width: 0.8; stroke-linecap: square"/>
     </g>
     <g id="line2d_12">
      <g>
       <use xlink:href="#mb225621dab" x="277.761462" y="307.584" style="stroke: #000000; stroke-width: 0.8"/>
      </g>
     </g>
     <g id="text_6">
      <!-- 125 -->
      <g transform="translate(268.217712 322.182437) scale(0.1 -0.1)">
       <use xlink:href="#DejaVuSans-31"/>
       <use xlink:href="#DejaVuSans-32" x="63.623047"/>
       <use xlink:href="#DejaVuSans-35" x="127.246094"/>
      </g>
     </g>
    </g>
    <g id="xtick_7">
     <g id="line2d_13">
      <path d="M 318.547209 307.584 
L 318.547209 41.472 
" clip-path="url(#pa1c81cb05a)" style="fill: none; stroke: #b0b0b0; stroke-width: 0.8; stroke-linecap: square"/>
     </g>
     <g id="line2d_14">
      <g>
       <use xlink:href="#mb225621dab" x="318.547209" y="307.584" style="stroke: #000000; stroke-width: 0.8"/>
      </g>
     </g>
     <g id="text_7">
      <!-- 150 -->
      <g transform="translate(309.003459 322.182437) scale(0.1 -0.1)">
       <use xlink:href="#DejaVuSans-31"/>
       <use xlink:href="#DejaVuSans-35" x="63.623047"/>
       <use xlink:href="#DejaVuSans-30" x="127.246094"/>
      </g>
     </g>
    </g>
    <g id="xtick_8">
     <g id="line2d_15">
      <path d="M 359.332956 307.584 
L 359.332956 41.472 
" clip-path="url(#pa1c81cb05a)" style="fill: none; stroke: #b0b0b0; stroke-width: 0.8; stroke-linecap: square"/>
     </g>
     <g id="line2d_16">
      <g>
       <use xlink:href="#mb225621dab" x="359.332956" y="307.584" style="stroke: #000000; stroke-width: 0.8"/>
      </g>
     </g>
     <g id="text_8">
      <!-- 175 -->
      <g transform="translate(349.789206 322.182437) scale(0.1 -0.1)">
       <use xlink:href="#DejaVuSans-31"/>
       <use xlink:href="#DejaVuSans-37" x="63.623047"/>
       <use xlink:href="#DejaVuSans-35" x="127.246094"/>
      </g>
     </g>
    </g>
    <g id="xtick_9">
     <g id="line2d_17">
      <path d="M 400.118703 307.584 
L 400.118703 41.472 
" clip-path="url(#pa1c81cb05a)" style="fill: none; stroke: #b0b0b0; stroke-width: 0.8; stroke-linecap: square"/>
     </g>
     <g id="line2d_18">
      <g>
       <use xlink:href="#mb225621dab" x="400.118703" y="307.584" style="stroke: #000000; stroke-width: 0.8"/>
      </g>
     </g>
     <g id="text_9">
      <!-- 200 -->
      <g transform="translate(390.574953 322.182437) scale(0.1 -0.1)">
       <use xlink:href="#DejaVuSans-32"/>
       <use xlink:href="#DejaVuSans-30" x="63.623047"/>
       <use xlink:href="#DejaVuSans-30" x="127.246094"/>
      </g>
     </g>
    </g>
    <g id="text_10">
     <!-- Generations -->
     <g transform="translate(205.662344 335.860562) scale(0.1 -0.1)">
      <defs>
       <path id="DejaVuSans-47" d="M 3809 666 
L 3809 1919 
L 2778 1919 
L 2778 2438 
L 4434 2438 
L 4434 434 
Q 4069 175 3628 42 
Q 3188 -91 2688 -91 
Q 1594 -91 976 548 
Q 359 1188 359 2328 
Q 359 3472 976 4111 
Q 1594 4750 2688 4750 
Q 3144 4750 3555 4637 
Q 3966 4525 4313 4306 
L 4313 3634 
Q 3963 3931 3569 4081 
Q 3175 4231 2741 4231 
Q 1884 4231 1454 3753 
Q 1025 3275 1025 2328 
Q 1025 1384 1454 906 
Q 1884 428 2741 428 
Q 3075 428 3337 486 
Q 3600 544 3809 666 
z
" transform="scale(0.015625)"/>
       <path id="DejaVuSans-65" d="M 3597 1894 
L 3597 1613 
L 953 1613 
Q 991 1019 1311 708 
Q 1631 397 2203 397 
Q 2534 397 2845 478 
Q 3156 559 3463 722 
L 3463 178 
Q 3153 47 2828 -22 
Q 2503 -91 2169 -91 
Q 1331 -91 842 396 
Q 353 884 353 1716 
Q 353 2575 817 3079 
Q 1281 3584 2069 3584 
Q 2775 3584 3186 3129 
Q 3597 2675 3597 1894 
z
M 3022 2063 
Q 3016 2534 2758 2815 
Q 2500 3097 2075 3097 
Q 1594 3097 1305 2825 
Q 1016 2553 972 2059 
L 3022 2063 
z
" transform="scale(0.015625)"/>
       <path id="DejaVuSans-6e" d="M 3513 2113 
L 3513 0 
L 2938 0 
L 2938 2094 
Q 2938 2591 2744 2837 
Q 2550 3084 2163 3084 
Q 1697 3084 1428 2787 
Q 1159 2491 1159 1978 
L 1159 0 
L 581 0 
L 581 3500 
L 1159 3500 
L 1159 2956 
Q 1366 3272 1645 3428 
Q 1925 3584 2291 3584 
Q 2894 3584 3203 3211 
Q 3513 2838 3513 2113 
z
" transform="scale(0.015625)"/>
       <path id="DejaVuSans-72" d="M 2631 2963 
Q 2534 3019 2420 3045 
Q 2306 3072 2169 3072 
Q 1681 3072 1420 2755 
Q 1159 2438 1159 1844 
L 1159 0 
L 581 0 
L 581 3500 
L 1159 3500 
L 1159 2956 
Q 1341 3275 1631 3429 
Q 1922 3584 2338 3584 
Q 2397 3584 2469 3576 
Q 2541 3569 2628 3553 
L 2631 2963 
z
" transform="scale(0.015625)"/>
       <path id="DejaVuSans-61" d="M 2194 1759 
Q 1497 1759 1228 1600 
Q 959 1441 959 1056 
Q 959 750 1161 570 
Q 1363 391 1709 391 
Q 2188 391 2477 730 
Q 2766 1069 2766 1631 
L 2766 1759 
L 2194 1759 
z
M 3341 1997 
L 3341 0 
L 2766 0 
L 2766 531 
Q 2569 213 2275 61 
Q 1981 -91 1556 -91 
Q 1019 -91 701 211 
Q 384 513 384 1019 
Q 384 1609 779 1909 
Q 1175 2209 1959 2209 
L 2766 2209 
L 2766 2266 
Q 2766 2663 2505 2880 
Q 2244 3097 1772 3097 
Q 1472 3097 1187 3025 
Q 903 2953 641 2809 
L 641 3341 
Q 956 3463 1253 3523 
Q 1550 3584 1831 3584 
Q 2591 3584 2966 3190 
Q 3341 2797 3341 1997 
z
" transform="scale(0.015625)"/>
       <path id="DejaVuSans-74" d="M 1172 4494 
L 1172 3500 
L 2356 3500 
L 2356 3053 
L 1172 3053 
L 1172 1153 
Q 1172 725 1289 603 
Q 1406 481 1766 481 
L 2356 481 
L 2356 0 
L 1766 0 
Q 1100 0 847 248 
Q 594 497 594 1153 
L 594 3053 
L 172 3053 
L 172 3500 
L 594 3500 
L 594 4494 
L 1172 4494 
z
" transform="scale(0.015625)"/>
       <path id="DejaVuSans-69" d="M 603 3500 
L 1178 3500 
L 1178 0 
L 603 0 
L 603 3500 
z
M 603 4863 
L 1178 4863 
L 1178 4134 
L 603 4134 
L 603 4863 
z
" transform="scale(0.015625)"/>
       <path id="DejaVuSans-6f" d="M 1959 3097 
Q 1497 3097 1228 2736 
Q 959 2375 959 1747 
Q 959 1119 1226 758 
Q 1494 397 1959 397 
Q 2419 397 2687 759 
Q 2956 1122 2956 1747 
Q 2956 2369 2687 2733 
Q 2419 3097 1959 3097 
z
M 1959 3584 
Q 2709 3584 3137 3096 
Q 3566 2609 3566 1747 
Q 3566 888 3137 398 
Q 2709 -91 1959 -91 
Q 1206 -91 779 398 
Q 353 888 353 1747 
Q 353 2609 779 3096 
Q 1206 3584 1959 3584 
z
" transform="scale(0.015625)"/>
       <path id="DejaVuSans-73" d="M 2834 3397 
L 2834 2853 
Q 2591 2978 2328 3040 
Q 2066 3103 1784 3103 
Q 1356 3103 1142 2972 
Q 928 2841 928 2578 
Q 928 2378 1081 2264 
Q 1234 2150 1697 2047 
L 1894 2003 
Q 2506 1872 2764 1633 
Q 3022 1394 3022 966 
Q 3022 478 2636 193 
Q 2250 -91 1575 -91 
Q 1294 -91 989 -36 
Q 684 19 347 128 
L 347 722 
Q 666 556 975 473 
Q 1284 391 1588 391 
Q 1994 391 2212 530 
Q 2431 669 2431 922 
Q 2431 1156 2273 1281 
Q 2116 1406 1581 1522 
L 1381 1569 
Q 847 1681 609 1914 
Q 372 2147 372 2553 
Q 372 3047 722 3315 
Q 1072 3584 1716 3584 
Q 2034 3584 2315 3537 
Q 2597 3491 2834 3397 
z
" transform="scale(0.015625)"/>
      </defs>
      <use xlink:href="#DejaVuSans-47"/>
      <use xlink:href="#DejaVuSans-65" x="77.490234"/>
      <use xlink:href="#DejaVuSans-6e" x="139.013672"/>
      <use xlink:href="#DejaVuSans-65" x="202.392578"/>
      <use xlink:href="#DejaVuSans-72" x="263.916016"/>
      <use xlink:href="#DejaVuSans-61" x="305.029297"/>
      <use xlink:href="#DejaVuSans-74" x="366.308594"/>
      <use xlink:href="#DejaVuSans-69" x="405.517578"/>
      <use xlink:href="#DejaVuSans-6f" x="433.300781"/>
      <use xlink:href="#DejaVuSans-6e" x="494.482422"/>
      <use xlink:href="#DejaVuSans-73" x="557.861328"/>
     </g>
    </g>
   </g>
   <g id="matplotlib.axis_2">
    <g id="ytick_1">
     <g id="line2d_19">
      <path d="M 57.6 284.133572 
L 414.72 284.133572 
" clip-path="url(#pa1c81cb05a)" style="fill: none; stroke: #b0b0b0; stroke-width: 0.8; stroke-linecap: square"/>
     </g>
     <g id="line2d_20">
      <defs>
       <path id="me8691021bc" d="M 0 0 
L -3.5 0 
" style="stroke: #000000; stroke-width: 0.8"/>
      </defs>
      <g>
       <use xlink:href="#me8691021bc" x="57.6" y="284.133572" style="stroke: #000000; stroke-width: 0.8"/>
      </g>
     </g>
     <g id="text_11">
      <!-- −2000 -->
      <g transform="translate(16.770313 287.93279) scale(0.1 -0.1)">
       <defs>
        <path id="DejaVuSans-2212" d="M 678 2272 
L 4684 2272 
L 4684 1741 
L 678 1741 
L 678 2272 
z
" transform="scale(0.015625)"/>
       </defs>
       <use xlink:href="#DejaVuSans-2212"/>
       <use xlink:href="#DejaVuSans-32" x="83.789062"/>
       <use xlink:href="#DejaVuSans-30" x="147.412109"/>
       <use xlink:href="#DejaVuSans-30" x="211.035156"/>
       <use xlink:href="#DejaVuSans-30" x="274.658203"/>
      </g>
     </g>
    </g>
    <g id="ytick_2">
     <g id="line2d_21">
      <path d="M 57.6 248.498525 
L 414.72 248.498525 
" clip-path="url(#pa1c81cb05a)" style="fill: none; stroke: #b0b0b0; stroke-width: 0.8; stroke-linecap: square"/>
     </g>
     <g id="line2d_22">
      <g>
       <use xlink:href="#me8691021bc" x="57.6" y="248.498525" style="stroke: #000000; stroke-width: 0.8"/>
      </g>
     </g>
     <g id="text_12">
      <!-- −1750 -->
      <g transform="translate(16.770313 252.297744) scale(0.1 -0.1)">
       <use xlink:href="#DejaVuSans-2212"/>
       <use xlink:href="#DejaVuSans-31" x="83.789062"/>
       <use xlink:href="#DejaVuSans-37" x="147.412109"/>
       <use xlink:href="#DejaVuSans-35" x="211.035156"/>
       <use xlink:href="#DejaVuSans-30" x="274.658203"/>
      </g>
     </g>
    </g>
    <g id="ytick_3">
     <g id="line2d_23">
      <path d="M 57.6 212.863479 
L 414.72 212.863479 
" clip-path="url(#pa1c81cb05a)" style="fill: none; stroke: #b0b0b0; stroke-width: 0.8; stroke-linecap: square"/>
     </g>
     <g id="line2d_24">
      <g>
       <use xlink:href="#me8691021bc" x="57.6" y="212.863479" style="stroke: #000000; stroke-width: 0.8"/>
      </g>
     </g>
     <g id="text_13">
      <!-- −1500 -->
      <g transform="translate(16.770313 216.662697) scale(0.1 -0.1)">
       <use xlink:href="#DejaVuSans-2212"/>
       <use xlink:href="#DejaVuSans-31" x="83.789062"/>
       <use xlink:href="#DejaVuSans-35" x="147.412109"/>
       <use xlink:href="#DejaVuSans-30" x="211.035156"/>
       <use xlink:href="#DejaVuSans-30" x="274.658203"/>
      </g>
     </g>
    </g>
    <g id="ytick_4">
     <g id="line2d_25">
      <path d="M 57.6 177.228432 
L 414.72 177.228432 
" clip-path="url(#pa1c81cb05a)" style="fill: none; stroke: #b0b0b0; stroke-width: 0.8; stroke-linecap: square"/>
     </g>
     <g id="line2d_26">
      <g>
       <use xlink:href="#me8691021bc" x="57.6" y="177.228432" style="stroke: #000000; stroke-width: 0.8"/>
      </g>
     </g>
     <g id="text_14">
      <!-- −1250 -->
      <g transform="translate(16.770313 181.027651) scale(0.1 -0.1)">
       <use xlink:href="#DejaVuSans-2212"/>
       <use xlink:href="#DejaVuSans-31" x="83.789062"/>
       <use xlink:href="#DejaVuSans-32" x="147.412109"/>
       <use xlink:href="#DejaVuSans-35" x="211.035156"/>
       <use xlink:href="#DejaVuSans-30" x="274.658203"/>
      </g>
     </g>
    </g>
    <g id="ytick_5">
     <g id="line2d_27">
      <path d="M 57.6 141.593385 
L 414.72 141.593385 
" clip-path="url(#pa1c81cb05a)" style="fill: none; stroke: #b0b0b0; stroke-width: 0.8; stroke-linecap: square"/>
     </g>
     <g id="line2d_28">
      <g>
       <use xlink:href="#me8691021bc" x="57.6" y="141.593385" style="stroke: #000000; stroke-width: 0.8"/>
      </g>
     </g>
     <g id="text_15">
      <!-- −1000 -->
      <g transform="translate(16.770313 145.392604) scale(0.1 -0.1)">
       <use xlink:href="#DejaVuSans-2212"/>
       <use xlink:href="#DejaVuSans-31" x="83.789062"/>
       <use xlink:href="#DejaVuSans-30" x="147.412109"/>
       <use xlink:href="#DejaVuSans-30" x="211.035156"/>
       <use xlink:href="#DejaVuSans-30" x="274.658203"/>
      </g>
     </g>
    </g>
    <g id="ytick_6">
     <g id="line2d_29">
      <path d="M 57.6 105.958339 
L 414.72 105.958339 
" clip-path="url(#pa1c81cb05a)" style="fill: none; stroke: #b0b0b0; stroke-width: 0.8; stroke-linecap: square"/>
     </g>
     <g id="line2d_30">
      <g>
       <use xlink:href="#me8691021bc" x="57.6" y="105.958339" style="stroke: #000000; stroke-width: 0.8"/>
      </g>
     </g>
     <g id="text_16">
      <!-- −750 -->
      <g transform="translate(23.132812 109.757558) scale(0.1 -0.1)">
       <use xlink:href="#DejaVuSans-2212"/>
       <use xlink:href="#DejaVuSans-37" x="83.789062"/>
       <use xlink:href="#DejaVuSans-35" x="147.412109"/>
       <use xlink:href="#DejaVuSans-30" x="211.035156"/>
      </g>
     </g>
    </g>
    <g id="ytick_7">
     <g id="line2d_31">
      <path d="M 57.6 70.323292 
L 414.72 70.323292 
" clip-path="url(#pa1c81cb05a)" style="fill: none; stroke: #b0b0b0; stroke-width: 0.8; stroke-linecap: square"/>
     </g>
     <g id="line2d_32">
      <g>
       <use xlink:href="#me8691021bc" x="57.6" y="70.323292" style="stroke: #000000; stroke-width: 0.8"/>
      </g>
     </g>
     <g id="text_17">
      <!-- −500 -->
      <g transform="translate(23.132812 74.122511) scale(0.1 -0.1)">
       <use xlink:href="#DejaVuSans-2212"/>
       <use xlink:href="#DejaVuSans-35" x="83.789062"/>
       <use xlink:href="#DejaVuSans-30" x="147.412109"/>
       <use xlink:href="#DejaVuSans-30" x="211.035156"/>
      </g>
     </g>
    </g>
    <g id="text_18">
     <!-- Fitness -->
     <g transform="translate(10.690625 191.845187) rotate(-90) scale(0.1 -0.1)">
      <defs>
       <path id="DejaVuSans-46" d="M 628 4666 
L 3309 4666 
L 3309 4134 
L 1259 4134 
L 1259 2759 
L 3109 2759 
L 3109 2228 
L 1259 2228 
L 1259 0 
L 628 0 
L 628 4666 
z
" transform="scale(0.015625)"/>
      </defs>
      <use xlink:href="#DejaVuSans-46"/>
      <use xlink:href="#DejaVuSans-69" x="50.269531"/>
      <use xlink:href="#DejaVuSans-74" x="78.052734"/>
      <use xlink:href="#DejaVuSans-6e" x="117.261719"/>
      <use xlink:href="#DejaVuSans-65" x="180.640625"/>
      <use xlink:href="#DejaVuSans-73" x="242.164062"/>
      <use xlink:href="#DejaVuSans-73" x="294.263672"/>
     </g>
    </g>
   </g>
   <g id="line2d_33">
    <path d="M 73.832727 267.497482 
L 75.464157 263.697645 
L 77.095587 261.994253 
L 78.727017 260.943719 
L 80.358447 259.381924 
L 81.989877 260.559152 
L 83.621307 260.189553 
L 85.252736 260.440988 
L 86.884166 259.947146 
L 88.515596 260.331045 
L 90.147026 260.147118 
L 91.778456 260.132152 
L 93.409886 259.284656 
L 95.041316 259.991841 
L 98.304175 259.959118 
L 99.935605 260.518437 
L 103.198465 260.592009 
L 104.829895 260.74622 
L 106.461325 260.336076 
L 108.092755 259.140006 
L 109.724185 258.141384 
L 111.355614 257.59316 
L 112.987044 260.256536 
L 114.618474 259.131817 
L 117.881334 259.453914 
L 119.512764 257.116703 
L 122.775624 256.326351 
L 124.407053 257.865455 
L 126.038483 257.137028 
L 127.669913 256.100456 
L 129.301343 257.666428 
L 130.932773 256.744794 
L 132.564203 257.018676 
L 134.195633 256.319144 
L 135.827063 256.155309 
L 137.458492 257.134742 
L 139.089922 253.588357 
L 140.721352 256.265028 
L 142.352782 256.10426 
L 143.984212 256.957656 
L 145.615642 257.005248 
L 147.247072 258.179624 
L 148.878502 255.650437 
L 150.509931 257.165799 
L 152.141361 256.656474 
L 153.772791 256.694805 
L 155.404221 258.363358 
L 158.667081 256.410072 
L 160.298511 258.451051 
L 161.929941 257.532108 
L 163.56137 257.126468 
L 165.1928 257.134602 
L 166.82423 257.909771 
L 168.45566 256.986562 
L 170.08709 256.755049 
L 171.71852 257.329092 
L 173.34995 256.635056 
L 174.98138 257.699922 
L 176.61281 258.109073 
L 178.244239 256.128394 
L 179.875669 256.397199 
L 181.507099 256.853316 
L 183.138529 257.608469 
L 184.769959 254.538669 
L 186.401389 252.456902 
L 188.032819 254.622436 
L 189.664249 256.124352 
L 191.295678 254.75926 
L 192.927108 254.218946 
L 194.558538 256.073791 
L 196.189968 255.316759 
L 197.821398 256.314849 
L 199.452828 256.783117 
L 201.084258 255.679608 
L 204.347117 256.665231 
L 205.978547 256.329568 
L 209.241407 256.746356 
L 212.504267 255.219674 
L 214.135697 255.212343 
L 215.767127 258.689347 
L 217.398556 258.345502 
L 219.029986 257.406163 
L 220.661416 257.891431 
L 222.292846 259.27413 
L 223.924276 258.386276 
L 225.555706 258.27684 
L 228.818566 257.283542 
L 230.449995 256.314635 
L 232.081425 258.444774 
L 233.712855 258.021752 
L 235.344285 257.408169 
L 238.607145 256.552587 
L 240.238575 257.717968 
L 241.870005 257.975526 
L 243.501434 257.490119 
L 245.132864 257.446634 
L 246.764294 257.996837 
L 248.395724 257.086391 
L 250.027154 257.653601 
L 251.658584 257.31221 
L 253.290014 258.046124 
L 254.921444 257.669683 
L 256.552873 258.000478 
L 258.184303 258.860576 
L 259.815733 258.534871 
L 261.447163 257.515777 
L 263.078593 258.478564 
L 264.710023 258.334758 
L 266.341453 259.077997 
L 267.972883 257.390907 
L 269.604312 258.090395 
L 271.235742 256.388886 
L 272.867172 255.241074 
L 274.498602 256.23255 
L 276.130032 256.718683 
L 279.392892 256.695814 
L 281.024322 256.881048 
L 282.655751 256.905746 
L 284.287181 257.287357 
L 285.918611 256.112485 
L 287.550041 258.225597 
L 289.181471 257.339759 
L 290.812901 258.113488 
L 292.444331 257.923313 
L 294.075761 257.240452 
L 295.70719 259.021488 
L 297.33862 259.788276 
L 298.97005 258.778888 
L 302.23291 257.515395 
L 303.86434 257.536784 
L 305.49577 257.360941 
L 307.1272 257.867576 
L 308.75863 258.238084 
L 310.390059 258.34906 
L 312.021489 257.697431 
L 313.652919 258.874344 
L 315.284349 257.677187 
L 316.915779 258.10421 
L 318.547209 257.755405 
L 320.178639 258.858175 
L 321.810069 257.867709 
L 323.441498 256.037965 
L 325.072928 258.666977 
L 326.704358 259.699303 
L 328.335788 258.44269 
L 329.967218 257.884815 
L 331.598648 256.741007 
L 333.230078 257.8778 
L 334.861508 258.289221 
L 338.124367 260.311978 
L 339.755797 259.63685 
L 343.018657 259.653633 
L 344.650087 258.964725 
L 346.281517 258.882438 
L 347.912947 259.248171 
L 349.544376 258.676326 
L 351.175806 259.569281 
L 354.438666 259.60072 
L 356.070096 259.295858 
L 357.701526 259.904734 
L 359.332956 259.244604 
L 360.964386 259.201456 
L 362.595815 260.068484 
L 364.227245 259.95977 
L 365.858675 259.206536 
L 367.490105 259.426401 
L 369.121535 258.025623 
L 370.752965 259.770057 
L 372.384395 259.719916 
L 374.015825 259.865423 
L 375.647254 258.93763 
L 377.278684 259.037446 
L 378.910114 258.524068 
L 380.541544 257.738382 
L 382.172974 260.074669 
L 383.804404 259.144866 
L 385.435834 259.646582 
L 387.067264 260.019059 
L 388.698693 258.541488 
L 390.330123 259.540467 
L 391.961553 259.3339 
L 393.592983 258.528398 
L 396.855843 259.943656 
L 398.487273 260.315137 
L 398.487273 260.315137 
" clip-path="url(#pa1c81cb05a)" style="fill: none; stroke: #0000ff; stroke-width: 1.5; stroke-linecap: square"/>
   </g>
   <g id="line2d_34">
    <path d="M 73.832727 287.713795 
L 75.464157 287.645661 
L 77.095587 283.617634 
L 80.358447 281.487493 
L 81.989877 281.200192 
L 83.621307 281.957014 
L 86.884166 280.481864 
L 88.515596 280.944723 
L 90.147026 280.604648 
L 91.778456 280.594835 
L 93.409886 278.855123 
L 95.041316 279.675197 
L 96.672746 278.656136 
L 98.304175 278.538623 
L 99.935605 279.29674 
L 104.829895 279.533771 
L 106.461325 279.145226 
L 108.092755 281.599428 
L 109.724185 282.854947 
L 111.355614 280.860147 
L 112.987044 282.394939 
L 114.618474 281.34187 
L 116.249904 280.840474 
L 117.881334 280.59185 
L 119.512764 282.617685 
L 121.144194 285.429582 
L 122.775624 288.533817 
L 124.407053 289.956124 
L 126.038483 289.610761 
L 127.669913 288.416917 
L 129.301343 289.953368 
L 130.932773 288.852585 
L 132.564203 288.949032 
L 134.195633 288.542911 
L 135.827063 288.656237 
L 137.458492 289.064501 
L 139.089922 291.948467 
L 140.721352 288.523812 
L 142.352782 288.560992 
L 143.984212 291.466539 
L 145.615642 288.463239 
L 147.247072 290.025623 
L 148.878502 290.329284 
L 150.509931 289.206502 
L 152.141361 290.72686 
L 153.772791 290.314902 
L 155.404221 288.613577 
L 157.035651 287.782482 
L 158.667081 289.708858 
L 160.298511 287.892812 
L 163.56137 287.685924 
L 165.1928 288.026404 
L 166.82423 288.711352 
L 168.45566 287.346222 
L 170.08709 287.050407 
L 171.71852 288.283047 
L 173.34995 287.852491 
L 174.98138 289.238792 
L 176.61281 289.620108 
L 178.244239 288.915326 
L 179.875669 287.003685 
L 181.507099 286.294436 
L 183.138529 289.614694 
L 184.769959 289.900667 
L 186.401389 295.488 
L 189.664249 290.397735 
L 191.295678 290.999485 
L 192.927108 291.82429 
L 194.558538 291.426501 
L 196.189968 292.430214 
L 197.821398 292.484084 
L 199.452828 292.344854 
L 202.715688 291.022466 
L 204.347117 289.146273 
L 205.978547 289.151569 
L 207.609977 289.488334 
L 209.241407 288.437246 
L 210.872837 292.108763 
L 212.504267 290.703895 
L 214.135697 292.409819 
L 215.767127 289.559635 
L 217.398556 288.796649 
L 219.029986 288.431002 
L 220.661416 289.704382 
L 222.292846 288.09348 
L 223.924276 286.908157 
L 225.555706 287.640244 
L 228.818566 288.252297 
L 230.449995 289.303388 
L 233.712855 287.333207 
L 235.344285 289.34342 
L 236.975715 289.029335 
L 238.607145 291.141342 
L 240.238575 288.490974 
L 241.870005 287.28459 
L 243.501434 287.02277 
L 245.132864 287.165424 
L 246.764294 288.872268 
L 248.395724 287.877734 
L 250.027154 288.223328 
L 251.658584 287.33914 
L 253.290014 287.917589 
L 254.921444 290.699649 
L 256.552873 288.025034 
L 258.184303 287.563056 
L 259.815733 286.900422 
L 261.447163 290.588055 
L 263.078593 287.934919 
L 264.710023 287.733538 
L 266.341453 288.314299 
L 267.972883 291.626074 
L 269.604312 289.630715 
L 271.235742 291.998411 
L 272.867172 290.853469 
L 274.498602 289.07849 
L 276.130032 289.856978 
L 277.761462 288.024296 
L 279.392892 290.071442 
L 281.024322 289.865257 
L 282.655751 290.178866 
L 285.918611 289.317326 
L 287.550041 286.561157 
L 289.181471 287.69953 
L 290.812901 286.603687 
L 292.444331 286.394479 
L 294.075761 289.987353 
L 295.70719 285.988012 
L 297.33862 285.728486 
L 300.60148 285.764697 
L 302.23291 285.3444 
L 303.86434 286.28279 
L 305.49577 286.918692 
L 307.1272 286.799027 
L 308.75863 286.268746 
L 310.390059 285.591283 
L 312.021489 284.438133 
L 313.652919 284.82829 
L 315.284349 288.251284 
L 316.915779 287.752311 
L 318.547209 288.161415 
L 320.178639 287.621603 
L 321.810069 286.400569 
L 323.441498 287.172375 
L 326.704358 285.040899 
L 328.335788 286.222727 
L 329.967218 289.051415 
L 331.598648 286.710295 
L 333.230078 286.338602 
L 334.861508 288.082883 
L 336.492937 284.101657 
L 339.755797 285.102795 
L 341.387227 284.995724 
L 343.018657 286.165444 
L 344.650087 283.99941 
L 346.281517 284.767336 
L 347.912947 284.91157 
L 349.544376 285.764248 
L 351.175806 286.065963 
L 352.807236 286.073761 
L 354.438666 285.597585 
L 356.070096 288.478556 
L 357.701526 285.021874 
L 359.332956 283.691538 
L 360.964386 283.629886 
L 362.595815 286.115452 
L 364.227245 284.690296 
L 365.858675 284.405649 
L 367.490105 283.291754 
L 369.121535 286.291816 
L 370.752965 284.264557 
L 372.384395 283.020466 
L 375.647254 283.748295 
L 377.278684 283.451723 
L 378.910114 287.004344 
L 380.541544 288.73436 
L 382.172974 283.420649 
L 383.804404 282.91207 
L 385.435834 284.369792 
L 387.067264 282.827262 
L 388.698693 286.305626 
L 390.330123 282.880719 
L 391.961553 283.213077 
L 393.592983 286.88292 
L 395.224413 285.973381 
L 396.855843 283.290649 
L 398.487273 283.785225 
L 398.487273 283.785225 
" clip-path="url(#pa1c81cb05a)" style="fill: none; stroke-dasharray: 9.6,2.4,1.5,2.4; stroke-dashoffset: 0; stroke: #008000; stroke-width: 1.5"/>
   </g>
   <g id="line2d_35">
    <path d="M 73.832727 247.281168 
L 75.464157 239.749629 
L 77.095587 240.370873 
L 78.727017 239.31206 
L 80.358447 237.276355 
L 81.989877 239.918113 
L 83.621307 238.422093 
L 85.252736 239.643398 
L 86.884166 239.412428 
L 88.515596 239.717368 
L 93.409886 239.714189 
L 95.041316 240.308486 
L 96.672746 241.378422 
L 98.304175 241.379612 
L 99.935605 241.740134 
L 101.567035 241.650287 
L 103.198465 241.726784 
L 104.829895 241.958669 
L 106.461325 241.526926 
L 108.092755 236.680585 
L 109.724185 233.427821 
L 111.355614 234.326173 
L 112.987044 238.118132 
L 114.618474 236.921764 
L 116.249904 237.789653 
L 117.881334 238.315979 
L 119.512764 231.61572 
L 121.144194 228.118499 
L 122.775624 224.118885 
L 124.407053 225.774787 
L 126.038483 224.663296 
L 127.669913 223.783996 
L 129.301343 225.379489 
L 130.932773 224.637003 
L 132.564203 225.08832 
L 134.195633 224.095376 
L 135.827063 223.654382 
L 137.458492 225.204984 
L 139.089922 215.228246 
L 140.721352 224.006245 
L 142.352782 223.647528 
L 143.984212 222.448772 
L 145.615642 225.547258 
L 147.247072 226.333625 
L 148.878502 220.97159 
L 150.509931 225.125096 
L 152.141361 222.586088 
L 153.772791 223.074709 
L 155.404221 228.113139 
L 157.035651 226.94891 
L 158.667081 223.111286 
L 160.298511 229.00929 
L 161.929941 227.244848 
L 163.56137 226.567012 
L 165.1928 226.242799 
L 166.82423 227.108191 
L 168.45566 226.626902 
L 171.71852 226.375137 
L 173.34995 225.417622 
L 174.98138 226.161052 
L 176.61281 226.598038 
L 178.244239 223.341463 
L 179.875669 225.790713 
L 181.507099 227.412195 
L 183.138529 225.602244 
L 184.769959 219.176671 
L 186.401389 209.425804 
L 188.032819 216.373271 
L 189.664249 221.850969 
L 191.295678 218.519036 
L 192.927108 216.613603 
L 194.558538 220.721081 
L 196.189968 218.203305 
L 197.821398 220.145614 
L 199.452828 221.221381 
L 201.084258 219.657732 
L 202.715688 221.390348 
L 204.347117 224.18419 
L 205.978547 223.507567 
L 207.609977 223.610905 
L 209.241407 225.055465 
L 210.872837 219.949566 
L 212.504267 219.735453 
L 214.135697 218.014867 
L 215.767127 227.819058 
L 217.398556 227.894356 
L 219.029986 226.381324 
L 220.661416 226.078479 
L 222.292846 230.454781 
L 223.924276 229.864395 
L 225.555706 228.913435 
L 228.818566 226.314788 
L 230.449995 223.325881 
L 232.081425 228.549979 
L 233.712855 228.710298 
L 235.344285 225.472917 
L 236.975715 224.895449 
L 238.607145 221.963833 
L 240.238575 226.944962 
L 241.870005 228.666461 
L 243.501434 227.957467 
L 245.132864 227.727844 
L 246.764294 227.121407 
L 248.395724 226.295048 
L 250.027154 227.083874 
L 251.658584 227.285279 
L 253.290014 228.17466 
L 254.921444 224.639717 
L 256.552873 227.975922 
L 258.184303 230.158097 
L 259.815733 230.16932 
L 261.447163 224.4435 
L 263.078593 229.022208 
L 264.710023 228.935977 
L 266.341453 229.841694 
L 267.972883 223.155739 
L 269.604312 226.550076 
L 271.235742 220.779361 
L 272.867172 219.628678 
L 274.498602 223.386609 
L 276.130032 223.580389 
L 277.761462 225.444139 
L 279.392892 223.320186 
L 281.024322 223.896838 
L 282.655751 223.632626 
L 284.287181 224.786056 
L 285.918611 222.907644 
L 287.550041 229.890036 
L 289.181471 226.979987 
L 290.812901 229.623289 
L 292.444331 229.452148 
L 294.075761 224.493551 
L 295.70719 232.054965 
L 297.33862 233.848067 
L 298.97005 231.779667 
L 300.60148 230.492324 
L 303.86434 228.790779 
L 305.49577 227.80319 
L 307.1272 228.936125 
L 308.75863 230.207423 
L 310.390059 231.106836 
L 312.021489 230.956729 
L 313.652919 232.920399 
L 315.284349 227.103089 
L 316.915779 228.456109 
L 318.547209 227.349395 
L 320.178639 230.094748 
L 321.810069 229.334848 
L 323.441498 224.903555 
L 325.072928 231.223923 
L 326.704358 234.357707 
L 329.967218 226.718215 
L 331.598648 226.77172 
L 333.230078 229.416999 
L 334.861508 228.495559 
L 336.492937 234.456906 
L 338.124367 236.069791 
L 339.755797 234.170906 
L 341.387227 234.390017 
L 343.018657 233.141822 
L 344.650087 233.93004 
L 346.281517 232.997539 
L 347.912947 233.584772 
L 349.544376 231.588404 
L 351.175806 233.0726 
L 352.807236 233.07448 
L 354.438666 233.603854 
L 356.070096 230.113159 
L 357.701526 234.787594 
L 360.964386 234.773026 
L 362.595815 234.021516 
L 364.227245 235.229244 
L 365.858675 234.007423 
L 367.490105 235.561047 
L 369.121535 229.759429 
L 370.752965 235.275557 
L 372.384395 236.419366 
L 374.015825 236.373673 
L 375.647254 234.126966 
L 377.278684 234.623168 
L 378.910114 230.043793 
L 380.541544 226.742405 
L 382.172974 236.728689 
L 383.804404 235.377662 
L 385.435834 234.923371 
L 387.067264 237.210856 
L 388.698693 230.77735 
L 390.330123 236.200215 
L 391.961553 235.454722 
L 393.592983 230.173875 
L 395.224413 232.539188 
L 396.855843 236.596663 
L 398.487273 236.845049 
L 398.487273 236.845049 
" clip-path="url(#pa1c81cb05a)" style="fill: none; stroke-dasharray: 9.6,2.4,1.5,2.4; stroke-dashoffset: 0; stroke: #008000; stroke-width: 1.5"/>
   </g>
   <g id="line2d_36">
    <path d="M 73.832727 75.102984 
L 119.512764 75.102984 
L 121.144194 74.98041 
L 184.769959 74.98041 
L 186.401389 55.81159 
L 313.652919 55.81159 
L 315.284349 54.078294 
L 387.067264 54.078294 
L 388.698693 53.568 
L 398.487273 53.568 
L 398.487273 53.568 
" clip-path="url(#pa1c81cb05a)" style="fill: none; stroke: #ff0000; stroke-width: 1.5; stroke-linecap: square"/>
   </g>
   <g id="patch_3">
    <path d="M 57.6 307.584 
L 57.6 41.472 
" style="fill: none; stroke: #000000; stroke-width: 0.8; stroke-linejoin: miter; stroke-linecap: square"/>
   </g>
   <g id="patch_4">
    <path d="M 414.72 307.584 
L 414.72 41.472 
" style="fill: none; stroke: #000000; stroke-width: 0.8; stroke-linejoin: miter; stroke-linecap: square"/>
   </g>
   <g id="patch_5">
    <path d="M 57.6 307.584 
L 414.72 307.584 
" style="fill: none; stroke: #000000; stroke-width: 0.8; stroke-linejoin: miter; stroke-linecap: square"/>
   </g>
   <g id="patch_6">
    <path d="M 57.6 41.472 
L 414.72 41.472 
" style="fill: none; stroke: #000000; stroke-width: 0.8; stroke-linejoin: miter; stroke-linecap: square"/>
   </g>
   <g id="text_19">
    <!-- Population's average and best fitness -->
    <g transform="translate(123.529687 35.472) scale(0.12 -0.12)">
     <defs>
      <path id="DejaVuSans-50" d="M 1259 4147 
L 1259 2394 
L 2053 2394 
Q 2494 2394 2734 2622 
Q 2975 2850 2975 3272 
Q 2975 3691 2734 3919 
Q 2494 4147 2053 4147 
L 1259 4147 
z
M 628 4666 
L 2053 4666 
Q 2838 4666 3239 4311 
Q 3641 3956 3641 3272 
Q 3641 2581 3239 2228 
Q 2838 1875 2053 1875 
L 1259 1875 
L 1259 0 
L 628 0 
L 628 4666 
z
" transform="scale(0.015625)"/>
      <path id="DejaVuSans-70" d="M 1159 525 
L 1159 -1331 
L 581 -1331 
L 581 3500 
L 1159 3500 
L 1159 2969 
Q 1341 3281 1617 3432 
Q 1894 3584 2278 3584 
Q 2916 3584 3314 3078 
Q 3713 2572 3713 1747 
Q 3713 922 3314 415 
Q 2916 -91 2278 -91 
Q 1894 -91 1617 61 
Q 1341 213 1159 525 
z
M 3116 1747 
Q 3116 2381 2855 2742 
Q 2594 3103 2138 3103 
Q 1681 3103 1420 2742 
Q 1159 2381 1159 1747 
Q 1159 1113 1420 752 
Q 1681 391 2138 391 
Q 2594 391 2855 752 
Q 3116 1113 3116 1747 
z
" transform="scale(0.015625)"/>
      <path id="DejaVuSans-75" d="M 544 1381 
L 544 3500 
L 1119 3500 
L 1119 1403 
Q 1119 906 1312 657 
Q 1506 409 1894 409 
Q 2359 409 2629 706 
Q 2900 1003 2900 1516 
L 2900 3500 
L 3475 3500 
L 3475 0 
L 2900 0 
L 2900 538 
Q 2691 219 2414 64 
Q 2138 -91 1772 -91 
Q 1169 -91 856 284 
Q 544 659 544 1381 
z
M 1991 3584 
L 1991 3584 
z
" transform="scale(0.015625)"/>
      <path id="DejaVuSans-6c" d="M 603 4863 
L 1178 4863 
L 1178 0 
L 603 0 
L 603 4863 
z
" transform="scale(0.015625)"/>
      <path id="DejaVuSans-27" d="M 1147 4666 
L 1147 2931 
L 616 2931 
L 616 4666 
L 1147 4666 
z
" transform="scale(0.015625)"/>
      <path id="DejaVuSans-20" transform="scale(0.015625)"/>
      <path id="DejaVuSans-76" d="M 191 3500 
L 800 3500 
L 1894 563 
L 2988 3500 
L 3597 3500 
L 2284 0 
L 1503 0 
L 191 3500 
z
" transform="scale(0.015625)"/>
      <path id="DejaVuSans-67" d="M 2906 1791 
Q 2906 2416 2648 2759 
Q 2391 3103 1925 3103 
Q 1463 3103 1205 2759 
Q 947 2416 947 1791 
Q 947 1169 1205 825 
Q 1463 481 1925 481 
Q 2391 481 2648 825 
Q 2906 1169 2906 1791 
z
M 3481 434 
Q 3481 -459 3084 -895 
Q 2688 -1331 1869 -1331 
Q 1566 -1331 1297 -1286 
Q 1028 -1241 775 -1147 
L 775 -588 
Q 1028 -725 1275 -790 
Q 1522 -856 1778 -856 
Q 2344 -856 2625 -561 
Q 2906 -266 2906 331 
L 2906 616 
Q 2728 306 2450 153 
Q 2172 0 1784 0 
Q 1141 0 747 490 
Q 353 981 353 1791 
Q 353 2603 747 3093 
Q 1141 3584 1784 3584 
Q 2172 3584 2450 3431 
Q 2728 3278 2906 2969 
L 2906 3500 
L 3481 3500 
L 3481 434 
z
" transform="scale(0.015625)"/>
      <path id="DejaVuSans-64" d="M 2906 2969 
L 2906 4863 
L 3481 4863 
L 3481 0 
L 2906 0 
L 2906 525 
Q 2725 213 2448 61 
Q 2172 -91 1784 -91 
Q 1150 -91 751 415 
Q 353 922 353 1747 
Q 353 2572 751 3078 
Q 1150 3584 1784 3584 
Q 2172 3584 2448 3432 
Q 2725 3281 2906 2969 
z
M 947 1747 
Q 947 1113 1208 752 
Q 1469 391 1925 391 
Q 2381 391 2643 752 
Q 2906 1113 2906 1747 
Q 2906 2381 2643 2742 
Q 2381 3103 1925 3103 
Q 1469 3103 1208 2742 
Q 947 2381 947 1747 
z
" transform="scale(0.015625)"/>
      <path id="DejaVuSans-62" d="M 3116 1747 
Q 3116 2381 2855 2742 
Q 2594 3103 2138 3103 
Q 1681 3103 1420 2742 
Q 1159 2381 1159 1747 
Q 1159 1113 1420 752 
Q 1681 391 2138 391 
Q 2594 391 2855 752 
Q 3116 1113 3116 1747 
z
M 1159 2969 
Q 1341 3281 1617 3432 
Q 1894 3584 2278 3584 
Q 2916 3584 3314 3078 
Q 3713 2572 3713 1747 
Q 3713 922 3314 415 
Q 2916 -91 2278 -91 
Q 1894 -91 1617 61 
Q 1341 213 1159 525 
L 1159 0 
L 581 0 
L 581 4863 
L 1159 4863 
L 1159 2969 
z
" transform="scale(0.015625)"/>
      <path id="DejaVuSans-66" d="M 2375 4863 
L 2375 4384 
L 1825 4384 
Q 1516 4384 1395 4259 
Q 1275 4134 1275 3809 
L 1275 3500 
L 2222 3500 
L 2222 3053 
L 1275 3053 
L 1275 0 
L 697 0 
L 697 3053 
L 147 3053 
L 147 3500 
L 697 3500 
L 697 3744 
Q 697 4328 969 4595 
Q 1241 4863 1831 4863 
L 2375 4863 
z
" transform="scale(0.015625)"/>
     </defs>
     <use xlink:href="#DejaVuSans-50"/>
     <use xlink:href="#DejaVuSans-6f" x="56.677734"/>
     <use xlink:href="#DejaVuSans-70" x="117.859375"/>
     <use xlink:href="#DejaVuSans-75" x="181.335938"/>
     <use xlink:href="#DejaVuSans-6c" x="244.714844"/>
     <use xlink:href="#DejaVuSans-61" x="272.498047"/>
     <use xlink:href="#DejaVuSans-74" x="333.777344"/>
     <use xlink:href="#DejaVuSans-69" x="372.986328"/>
     <use xlink:href="#DejaVuSans-6f" x="400.769531"/>
     <use xlink:href="#DejaVuSans-6e" x="461.951172"/>
     <use xlink:href="#DejaVuSans-27" x="525.330078"/>
     <use xlink:href="#DejaVuSans-73" x="552.820312"/>
     <use xlink:href="#DejaVuSans-20" x="604.919922"/>
     <use xlink:href="#DejaVuSans-61" x="636.707031"/>
     <use xlink:href="#DejaVuSans-76" x="697.986328"/>
     <use xlink:href="#DejaVuSans-65" x="757.166016"/>
     <use xlink:href="#DejaVuSans-72" x="818.689453"/>
     <use xlink:href="#DejaVuSans-61" x="859.802734"/>
     <use xlink:href="#DejaVuSans-67" x="921.082031"/>
     <use xlink:href="#DejaVuSans-65" x="984.558594"/>
     <use xlink:href="#DejaVuSans-20" x="1046.082031"/>
     <use xlink:href="#DejaVuSans-61" x="1077.869141"/>
     <use xlink:href="#DejaVuSans-6e" x="1139.148438"/>
     <use xlink:href="#DejaVuSans-64" x="1202.527344"/>
     <use xlink:href="#DejaVuSans-20" x="1266.003906"/>
     <use xlink:href="#DejaVuSans-62" x="1297.791016"/>
     <use xlink:href="#DejaVuSans-65" x="1361.267578"/>
     <use xlink:href="#DejaVuSans-73" x="1422.791016"/>
     <use xlink:href="#DejaVuSans-74" x="1474.890625"/>
     <use xlink:href="#DejaVuSans-20" x="1514.099609"/>
     <use xlink:href="#DejaVuSans-66" x="1545.886719"/>
     <use xlink:href="#DejaVuSans-69" x="1581.091797"/>
     <use xlink:href="#DejaVuSans-74" x="1608.875"/>
     <use xlink:href="#DejaVuSans-6e" x="1648.083984"/>
     <use xlink:href="#DejaVuSans-65" x="1711.462891"/>
     <use xlink:href="#DejaVuSans-73" x="1772.986328"/>
     <use xlink:href="#DejaVuSans-73" x="1825.085938"/>
    </g>
   </g>
   <g id="legend_1">
    <g id="patch_7">
     <path d="M 334.779375 205.38425 
L 407.72 205.38425 
Q 409.72 205.38425 409.72 203.38425 
L 409.72 145.67175 
Q 409.72 143.67175 407.72 143.67175 
L 334.779375 143.67175 
Q 332.779375 143.67175 332.779375 145.67175 
L 332.779375 203.38425 
Q 332.779375 205.38425 334.779375 205.38425 
z
" style="fill: #ffffff; opacity: 0.8; stroke: #cccccc; stroke-linejoin: miter"/>
    </g>
    <g id="line2d_37">
     <path d="M 336.779375 151.770188 
L 346.779375 151.770188 
L 356.779375 151.770188 
" style="fill: none; stroke: #0000ff; stroke-width: 1.5; stroke-linecap: square"/>
    </g>
    <g id="text_20">
     <!-- average -->
     <g transform="translate(364.779375 155.270188) scale(0.1 -0.1)">
      <use xlink:href="#DejaVuSans-61"/>
      <use xlink:href="#DejaVuSans-76" x="61.279297"/>
      <use xlink:href="#DejaVuSans-65" x="120.458984"/>
      <use xlink:href="#DejaVuSans-72" x="181.982422"/>
      <use xlink:href="#DejaVuSans-61" x="223.095703"/>
      <use xlink:href="#DejaVuSans-67" x="284.375"/>
      <use xlink:href="#DejaVuSans-65" x="347.851562"/>
     </g>
    </g>
    <g id="line2d_38">
     <path d="M 336.779375 166.448313 
L 346.779375 166.448313 
L 356.779375 166.448313 
" style="fill: none; stroke-dasharray: 9.6,2.4,1.5,2.4; stroke-dashoffset: 0; stroke: #008000; stroke-width: 1.5"/>
    </g>
    <g id="text_21">
     <!-- -1 sd -->
     <g transform="translate(364.779375 169.948313) scale(0.1 -0.1)">
      <defs>
       <path id="DejaVuSans-2d" d="M 313 2009 
L 1997 2009 
L 1997 1497 
L 313 1497 
L 313 2009 
z
" transform="scale(0.015625)"/>
      </defs>
      <use xlink:href="#DejaVuSans-2d"/>
      <use xlink:href="#DejaVuSans-31" x="36.083984"/>
      <use xlink:href="#DejaVuSans-20" x="99.707031"/>
      <use xlink:href="#DejaVuSans-73" x="131.494141"/>
      <use xlink:href="#DejaVuSans-64" x="183.59375"/>
     </g>
    </g>
    <g id="line2d_39">
     <path d="M 336.779375 181.126438 
L 346.779375 181.126438 
L 356.779375 181.126438 
" style="fill: none; stroke-dasharray: 9.6,2.4,1.5,2.4; stroke-dashoffset: 0; stroke: #008000; stroke-width: 1.5"/>
    </g>
    <g id="text_22">
     <!-- +1 sd -->
     <g transform="translate(364.779375 184.626438) scale(0.1 -0.1)">
      <defs>
       <path id="DejaVuSans-2b" d="M 2944 4013 
L 2944 2272 
L 4684 2272 
L 4684 1741 
L 2944 1741 
L 2944 0 
L 2419 0 
L 2419 1741 
L 678 1741 
L 678 2272 
L 2419 2272 
L 2419 4013 
L 2944 4013 
z
" transform="scale(0.015625)"/>
      </defs>
      <use xlink:href="#DejaVuSans-2b"/>
      <use xlink:href="#DejaVuSans-31" x="83.789062"/>
      <use xlink:href="#DejaVuSans-20" x="147.412109"/>
      <use xlink:href="#DejaVuSans-73" x="179.199219"/>
      <use xlink:href="#DejaVuSans-64" x="231.298828"/>
     </g>
    </g>
    <g id="line2d_40">
     <path d="M 336.779375 195.804563 
L 346.779375 195.804563 
L 356.779375 195.804563 
" style="fill: none; stroke: #ff0000; stroke-width: 1.5; stroke-linecap: square"/>
    </g>
    <g id="text_23">
     <!-- best -->
     <g transform="translate(364.779375 199.304563) scale(0.1 -0.1)">
      <use xlink:href="#DejaVuSans-62"/>
      <use xlink:href="#DejaVuSans-65" x="63.476562"/>
      <use xlink:href="#DejaVuSans-73" x="125"/>
      <use xlink:href="#DejaVuSans-74" x="177.099609"/>
     </g>
    </g>
   </g>
  </g>
 </g>
 <defs>
  <clipPath id="pa1c81cb05a">
   <rect x="57.6" y="41.472" width="357.12" height="266.112"/>
  </clipPath>
 </defs>
</svg>
