<?xml version="1.0" encoding="utf-8" standalone="no"?>
<!DOCTYPE svg PUBLIC "-//W3C//DTD SVG 1.1//EN"
  "http://www.w3.org/Graphics/SVG/1.1/DTD/svg11.dtd">
<svg xmlns:xlink="http://www.w3.org/1999/xlink" width="460.8pt" height="345.6pt" viewBox="0 0 460.8 345.6" xmlns="http://www.w3.org/2000/svg" version="1.1">
 <metadata>
  <rdf:RDF xmlns:dc="http://purl.org/dc/elements/1.1/" xmlns:cc="http://creativecommons.org/ns#" xmlns:rdf="http://www.w3.org/1999/02/22-rdf-syntax-ns#">
   <cc:Work>
    <dc:type rdf:resource="http://purl.org/dc/dcmitype/StillImage"/>
    <dc:date>2024-08-09T20:29:14.093962</dc:date>
    <dc:format>image/svg+xml</dc:format>
    <dc:creator>
     <cc:Agent>
      <dc:title>Matplotlib v3.8.4, https://matplotlib.org/</dc:title>
     </cc:Agent>
    </dc:creator>
   </cc:Work>
  </rdf:RDF>
 </metadata>
 <defs>
  <style type="text/css">*{stroke-linejoin: round; stroke-linecap: butt}</style>
 </defs>
 <g id="figure_1">
  <g id="patch_1">
   <path d="M 0 345.6 
L 460.8 345.6 
L 460.8 0 
L 0 0 
z
" style="fill: #ffffff"/>
  </g>
  <g id="axes_1">
   <g id="patch_2">
    <path d="M 57.6 307.584 
L 414.72 307.584 
L 414.72 41.472 
L 57.6 41.472 
z
" style="fill: #ffffff"/>
   </g>
   <g id="matplotlib.axis_1">
    <g id="xtick_1">
     <g id="line2d_1">
      <path d="M 73.832727 307.584 
L 73.832727 41.472 
" clip-path="url(#p24497af8a0)" style="fill: none; stroke: #b0b0b0; stroke-width: 0.8; stroke-linecap: square"/>
     </g>
     <g id="line2d_2">
      <defs>
       <path id="mce711cb514" d="M 0 0 
L 0 3.5 
" style="stroke: #000000; stroke-width: 0.8"/>
      </defs>
      <g>
       <use xlink:href="#mce711cb514" x="73.832727" y="307.584" style="stroke: #000000; stroke-width: 0.8"/>
      </g>
     </g>
     <g id="text_1">
      <!-- 0 -->
      <g transform="translate(70.651477 322.182437) scale(0.1 -0.1)">
       <defs>
        <path id="DejaVuSans-30" d="M 2034 4250 
Q 1547 4250 1301 3770 
Q 1056 3291 1056 2328 
Q 1056 1369 1301 889 
Q 1547 409 2034 409 
Q 2525 409 2770 889 
Q 3016 1369 3016 2328 
Q 3016 3291 2770 3770 
Q 2525 4250 2034 4250 
z
M 2034 4750 
Q 2819 4750 3233 4129 
Q 3647 3509 3647 2328 
Q 3647 1150 3233 529 
Q 2819 -91 2034 -91 
Q 1250 -91 836 529 
Q 422 1150 422 2328 
Q 422 3509 836 4129 
Q 1250 4750 2034 4750 
z
" transform="scale(0.015625)"/>
       </defs>
       <use xlink:href="#DejaVuSans-30"/>
      </g>
     </g>
    </g>
    <g id="xtick_2">
     <g id="line2d_3">
      <path d="M 114.618474 307.584 
L 114.618474 41.472 
" clip-path="url(#p24497af8a0)" style="fill: none; stroke: #b0b0b0; stroke-width: 0.8; stroke-linecap: square"/>
     </g>
     <g id="line2d_4">
      <g>
       <use xlink:href="#mce711cb514" x="114.618474" y="307.584" style="stroke: #000000; stroke-width: 0.8"/>
      </g>
     </g>
     <g id="text_2">
      <!-- 25 -->
      <g transform="translate(108.255974 322.182437) scale(0.1 -0.1)">
       <defs>
        <path id="DejaVuSans-32" d="M 1228 531 
L 3431 531 
L 3431 0 
L 469 0 
L 469 531 
Q 828 903 1448 1529 
Q 2069 2156 2228 2338 
Q 2531 2678 2651 2914 
Q 2772 3150 2772 3378 
Q 2772 3750 2511 3984 
Q 2250 4219 1831 4219 
Q 1534 4219 1204 4116 
Q 875 4013 500 3803 
L 500 4441 
Q 881 4594 1212 4672 
Q 1544 4750 1819 4750 
Q 2544 4750 2975 4387 
Q 3406 4025 3406 3419 
Q 3406 3131 3298 2873 
Q 3191 2616 2906 2266 
Q 2828 2175 2409 1742 
Q 1991 1309 1228 531 
z
" transform="scale(0.015625)"/>
        <path id="DejaVuSans-35" d="M 691 4666 
L 3169 4666 
L 3169 4134 
L 1269 4134 
L 1269 2991 
Q 1406 3038 1543 3061 
Q 1681 3084 1819 3084 
Q 2600 3084 3056 2656 
Q 3513 2228 3513 1497 
Q 3513 744 3044 326 
Q 2575 -91 1722 -91 
Q 1428 -91 1123 -41 
Q 819 9 494 109 
L 494 744 
Q 775 591 1075 516 
Q 1375 441 1709 441 
Q 2250 441 2565 725 
Q 2881 1009 2881 1497 
Q 2881 1984 2565 2268 
Q 2250 2553 1709 2553 
Q 1456 2553 1204 2497 
Q 953 2441 691 2322 
L 691 4666 
z
" transform="scale(0.015625)"/>
       </defs>
       <use xlink:href="#DejaVuSans-32"/>
       <use xlink:href="#DejaVuSans-35" x="63.623047"/>
      </g>
     </g>
    </g>
    <g id="xtick_3">
     <g id="line2d_5">
      <path d="M 155.404221 307.584 
L 155.404221 41.472 
" clip-path="url(#p24497af8a0)" style="fill: none; stroke: #b0b0b0; stroke-width: 0.8; stroke-linecap: square"/>
     </g>
     <g id="line2d_6">
      <g>
       <use xlink:href="#mce711cb514" x="155.404221" y="307.584" style="stroke: #000000; stroke-width: 0.8"/>
      </g>
     </g>
     <g id="text_3">
      <!-- 50 -->
      <g transform="translate(149.041721 322.182437) scale(0.1 -0.1)">
       <use xlink:href="#DejaVuSans-35"/>
       <use xlink:href="#DejaVuSans-30" x="63.623047"/>
      </g>
     </g>
    </g>
    <g id="xtick_4">
     <g id="line2d_7">
      <path d="M 196.189968 307.584 
L 196.189968 41.472 
" clip-path="url(#p24497af8a0)" style="fill: none; stroke: #b0b0b0; stroke-width: 0.8; stroke-linecap: square"/>
     </g>
     <g id="line2d_8">
      <g>
       <use xlink:href="#mce711cb514" x="196.189968" y="307.584" style="stroke: #000000; stroke-width: 0.8"/>
      </g>
     </g>
     <g id="text_4">
      <!-- 75 -->
      <g transform="translate(189.827468 322.182437) scale(0.1 -0.1)">
       <defs>
        <path id="DejaVuSans-37" d="M 525 4666 
L 3525 4666 
L 3525 4397 
L 1831 0 
L 1172 0 
L 2766 4134 
L 525 4134 
L 525 4666 
z
" transform="scale(0.015625)"/>
       </defs>
       <use xlink:href="#DejaVuSans-37"/>
       <use xlink:href="#DejaVuSans-35" x="63.623047"/>
      </g>
     </g>
    </g>
    <g id="xtick_5">
     <g id="line2d_9">
      <path d="M 236.975715 307.584 
L 236.975715 41.472 
" clip-path="url(#p24497af8a0)" style="fill: none; stroke: #b0b0b0; stroke-width: 0.8; stroke-linecap: square"/>
     </g>
     <g id="line2d_10">
      <g>
       <use xlink:href="#mce711cb514" x="236.975715" y="307.584" style="stroke: #000000; stroke-width: 0.8"/>
      </g>
     </g>
     <g id="text_5">
      <!-- 100 -->
      <g transform="translate(227.431965 322.182437) scale(0.1 -0.1)">
       <defs>
        <path id="DejaVuSans-31" d="M 794 531 
L 1825 531 
L 1825 4091 
L 703 3866 
L 703 4441 
L 1819 4666 
L 2450 4666 
L 2450 531 
L 3481 531 
L 3481 0 
L 794 0 
L 794 531 
z
" transform="scale(0.015625)"/>
       </defs>
       <use xlink:href="#DejaVuSans-31"/>
       <use xlink:href="#DejaVuSans-30" x="63.623047"/>
       <use xlink:href="#DejaVuSans-30" x="127.246094"/>
      </g>
     </g>
    </g>
    <g id="xtick_6">
     <g id="line2d_11">
      <path d="M 277.761462 307.584 
L 277.761462 41.472 
" clip-path="url(#p24497af8a0)" style="fill: none; stroke: #b0b0b0; stroke-width: 0.8; stroke-linecap: square"/>
     </g>
     <g id="line2d_12">
      <g>
       <use xlink:href="#mce711cb514" x="277.761462" y="307.584" style="stroke: #000000; stroke-width: 0.8"/>
      </g>
     </g>
     <g id="text_6">
      <!-- 125 -->
      <g transform="translate(268.217712 322.182437) scale(0.1 -0.1)">
       <use xlink:href="#DejaVuSans-31"/>
       <use xlink:href="#DejaVuSans-32" x="63.623047"/>
       <use xlink:href="#DejaVuSans-35" x="127.246094"/>
      </g>
     </g>
    </g>
    <g id="xtick_7">
     <g id="line2d_13">
      <path d="M 318.547209 307.584 
L 318.547209 41.472 
" clip-path="url(#p24497af8a0)" style="fill: none; stroke: #b0b0b0; stroke-width: 0.8; stroke-linecap: square"/>
     </g>
     <g id="line2d_14">
      <g>
       <use xlink:href="#mce711cb514" x="318.547209" y="307.584" style="stroke: #000000; stroke-width: 0.8"/>
      </g>
     </g>
     <g id="text_7">
      <!-- 150 -->
      <g transform="translate(309.003459 322.182437) scale(0.1 -0.1)">
       <use xlink:href="#DejaVuSans-31"/>
       <use xlink:href="#DejaVuSans-35" x="63.623047"/>
       <use xlink:href="#DejaVuSans-30" x="127.246094"/>
      </g>
     </g>
    </g>
    <g id="xtick_8">
     <g id="line2d_15">
      <path d="M 359.332956 307.584 
L 359.332956 41.472 
" clip-path="url(#p24497af8a0)" style="fill: none; stroke: #b0b0b0; stroke-width: 0.8; stroke-linecap: square"/>
     </g>
     <g id="line2d_16">
      <g>
       <use xlink:href="#mce711cb514" x="359.332956" y="307.584" style="stroke: #000000; stroke-width: 0.8"/>
      </g>
     </g>
     <g id="text_8">
      <!-- 175 -->
      <g transform="translate(349.789206 322.182437) scale(0.1 -0.1)">
       <use xlink:href="#DejaVuSans-31"/>
       <use xlink:href="#DejaVuSans-37" x="63.623047"/>
       <use xlink:href="#DejaVuSans-35" x="127.246094"/>
      </g>
     </g>
    </g>
    <g id="xtick_9">
     <g id="line2d_17">
      <path d="M 400.118703 307.584 
L 400.118703 41.472 
" clip-path="url(#p24497af8a0)" style="fill: none; stroke: #b0b0b0; stroke-width: 0.8; stroke-linecap: square"/>
     </g>
     <g id="line2d_18">
      <g>
       <use xlink:href="#mce711cb514" x="400.118703" y="307.584" style="stroke: #000000; stroke-width: 0.8"/>
      </g>
     </g>
     <g id="text_9">
      <!-- 200 -->
      <g transform="translate(390.574953 322.182437) scale(0.1 -0.1)">
       <use xlink:href="#DejaVuSans-32"/>
       <use xlink:href="#DejaVuSans-30" x="63.623047"/>
       <use xlink:href="#DejaVuSans-30" x="127.246094"/>
      </g>
     </g>
    </g>
    <g id="text_10">
     <!-- Generations -->
     <g transform="translate(205.662344 335.860562) scale(0.1 -0.1)">
      <defs>
       <path id="DejaVuSans-47" d="M 3809 666 
L 3809 1919 
L 2778 1919 
L 2778 2438 
L 4434 2438 
L 4434 434 
Q 4069 175 3628 42 
Q 3188 -91 2688 -91 
Q 1594 -91 976 548 
Q 359 1188 359 2328 
Q 359 3472 976 4111 
Q 1594 4750 2688 4750 
Q 3144 4750 3555 4637 
Q 3966 4525 4313 4306 
L 4313 3634 
Q 3963 3931 3569 4081 
Q 3175 4231 2741 4231 
Q 1884 4231 1454 3753 
Q 1025 3275 1025 2328 
Q 1025 1384 1454 906 
Q 1884 428 2741 428 
Q 3075 428 3337 486 
Q 3600 544 3809 666 
z
" transform="scale(0.015625)"/>
       <path id="DejaVuSans-65" d="M 3597 1894 
L 3597 1613 
L 953 1613 
Q 991 1019 1311 708 
Q 1631 397 2203 397 
Q 2534 397 2845 478 
Q 3156 559 3463 722 
L 3463 178 
Q 3153 47 2828 -22 
Q 2503 -91 2169 -91 
Q 1331 -91 842 396 
Q 353 884 353 1716 
Q 353 2575 817 3079 
Q 1281 3584 2069 3584 
Q 2775 3584 3186 3129 
Q 3597 2675 3597 1894 
z
M 3022 2063 
Q 3016 2534 2758 2815 
Q 2500 3097 2075 3097 
Q 1594 3097 1305 2825 
Q 1016 2553 972 2059 
L 3022 2063 
z
" transform="scale(0.015625)"/>
       <path id="DejaVuSans-6e" d="M 3513 2113 
L 3513 0 
L 2938 0 
L 2938 2094 
Q 2938 2591 2744 2837 
Q 2550 3084 2163 3084 
Q 1697 3084 1428 2787 
Q 1159 2491 1159 1978 
L 1159 0 
L 581 0 
L 581 3500 
L 1159 3500 
L 1159 2956 
Q 1366 3272 1645 3428 
Q 1925 3584 2291 3584 
Q 2894 3584 3203 3211 
Q 3513 2838 3513 2113 
z
" transform="scale(0.015625)"/>
       <path id="DejaVuSans-72" d="M 2631 2963 
Q 2534 3019 2420 3045 
Q 2306 3072 2169 3072 
Q 1681 3072 1420 2755 
Q 1159 2438 1159 1844 
L 1159 0 
L 581 0 
L 581 3500 
L 1159 3500 
L 1159 2956 
Q 1341 3275 1631 3429 
Q 1922 3584 2338 3584 
Q 2397 3584 2469 3576 
Q 2541 3569 2628 3553 
L 2631 2963 
z
" transform="scale(0.015625)"/>
       <path id="DejaVuSans-61" d="M 2194 1759 
Q 1497 1759 1228 1600 
Q 959 1441 959 1056 
Q 959 750 1161 570 
Q 1363 391 1709 391 
Q 2188 391 2477 730 
Q 2766 1069 2766 1631 
L 2766 1759 
L 2194 1759 
z
M 3341 1997 
L 3341 0 
L 2766 0 
L 2766 531 
Q 2569 213 2275 61 
Q 1981 -91 1556 -91 
Q 1019 -91 701 211 
Q 384 513 384 1019 
Q 384 1609 779 1909 
Q 1175 2209 1959 2209 
L 2766 2209 
L 2766 2266 
Q 2766 2663 2505 2880 
Q 2244 3097 1772 3097 
Q 1472 3097 1187 3025 
Q 903 2953 641 2809 
L 641 3341 
Q 956 3463 1253 3523 
Q 1550 3584 1831 3584 
Q 2591 3584 2966 3190 
Q 3341 2797 3341 1997 
z
" transform="scale(0.015625)"/>
       <path id="DejaVuSans-74" d="M 1172 4494 
L 1172 3500 
L 2356 3500 
L 2356 3053 
L 1172 3053 
L 1172 1153 
Q 1172 725 1289 603 
Q 1406 481 1766 481 
L 2356 481 
L 2356 0 
L 1766 0 
Q 1100 0 847 248 
Q 594 497 594 1153 
L 594 3053 
L 172 3053 
L 172 3500 
L 594 3500 
L 594 4494 
L 1172 4494 
z
" transform="scale(0.015625)"/>
       <path id="DejaVuSans-69" d="M 603 3500 
L 1178 3500 
L 1178 0 
L 603 0 
L 603 3500 
z
M 603 4863 
L 1178 4863 
L 1178 4134 
L 603 4134 
L 603 4863 
z
" transform="scale(0.015625)"/>
       <path id="DejaVuSans-6f" d="M 1959 3097 
Q 1497 3097 1228 2736 
Q 959 2375 959 1747 
Q 959 1119 1226 758 
Q 1494 397 1959 397 
Q 2419 397 2687 759 
Q 2956 1122 2956 1747 
Q 2956 2369 2687 2733 
Q 2419 3097 1959 3097 
z
M 1959 3584 
Q 2709 3584 3137 3096 
Q 3566 2609 3566 1747 
Q 3566 888 3137 398 
Q 2709 -91 1959 -91 
Q 1206 -91 779 398 
Q 353 888 353 1747 
Q 353 2609 779 3096 
Q 1206 3584 1959 3584 
z
" transform="scale(0.015625)"/>
       <path id="DejaVuSans-73" d="M 2834 3397 
L 2834 2853 
Q 2591 2978 2328 3040 
Q 2066 3103 1784 3103 
Q 1356 3103 1142 2972 
Q 928 2841 928 2578 
Q 928 2378 1081 2264 
Q 1234 2150 1697 2047 
L 1894 2003 
Q 2506 1872 2764 1633 
Q 3022 1394 3022 966 
Q 3022 478 2636 193 
Q 2250 -91 1575 -91 
Q 1294 -91 989 -36 
Q 684 19 347 128 
L 347 722 
Q 666 556 975 473 
Q 1284 391 1588 391 
Q 1994 391 2212 530 
Q 2431 669 2431 922 
Q 2431 1156 2273 1281 
Q 2116 1406 1581 1522 
L 1381 1569 
Q 847 1681 609 1914 
Q 372 2147 372 2553 
Q 372 3047 722 3315 
Q 1072 3584 1716 3584 
Q 2034 3584 2315 3537 
Q 2597 3491 2834 3397 
z
" transform="scale(0.015625)"/>
      </defs>
      <use xlink:href="#DejaVuSans-47"/>
      <use xlink:href="#DejaVuSans-65" x="77.490234"/>
      <use xlink:href="#DejaVuSans-6e" x="139.013672"/>
      <use xlink:href="#DejaVuSans-65" x="202.392578"/>
      <use xlink:href="#DejaVuSans-72" x="263.916016"/>
      <use xlink:href="#DejaVuSans-61" x="305.029297"/>
      <use xlink:href="#DejaVuSans-74" x="366.308594"/>
      <use xlink:href="#DejaVuSans-69" x="405.517578"/>
      <use xlink:href="#DejaVuSans-6f" x="433.300781"/>
      <use xlink:href="#DejaVuSans-6e" x="494.482422"/>
      <use xlink:href="#DejaVuSans-73" x="557.861328"/>
     </g>
    </g>
   </g>
   <g id="matplotlib.axis_2">
    <g id="ytick_1">
     <g id="line2d_19">
      <path d="M 57.6 306.215255 
L 414.72 306.215255 
" clip-path="url(#p24497af8a0)" style="fill: none; stroke: #b0b0b0; stroke-width: 0.8; stroke-linecap: square"/>
     </g>
     <g id="line2d_20">
      <defs>
       <path id="m2e49b413b9" d="M 0 0 
L -3.5 0 
" style="stroke: #000000; stroke-width: 0.8"/>
      </defs>
      <g>
       <use xlink:href="#m2e49b413b9" x="57.6" y="306.215255" style="stroke: #000000; stroke-width: 0.8"/>
      </g>
     </g>
     <g id="text_11">
      <!-- −2250 -->
      <g transform="translate(16.770313 310.014473) scale(0.1 -0.1)">
       <defs>
        <path id="DejaVuSans-2212" d="M 678 2272 
L 4684 2272 
L 4684 1741 
L 678 1741 
L 678 2272 
z
" transform="scale(0.015625)"/>
       </defs>
       <use xlink:href="#DejaVuSans-2212"/>
       <use xlink:href="#DejaVuSans-32" x="83.789062"/>
       <use xlink:href="#DejaVuSans-32" x="147.412109"/>
       <use xlink:href="#DejaVuSans-35" x="211.035156"/>
       <use xlink:href="#DejaVuSans-30" x="274.658203"/>
      </g>
     </g>
    </g>
    <g id="ytick_2">
     <g id="line2d_21">
      <path d="M 57.6 273.019157 
L 414.72 273.019157 
" clip-path="url(#p24497af8a0)" style="fill: none; stroke: #b0b0b0; stroke-width: 0.8; stroke-linecap: square"/>
     </g>
     <g id="line2d_22">
      <g>
       <use xlink:href="#m2e49b413b9" x="57.6" y="273.019157" style="stroke: #000000; stroke-width: 0.8"/>
      </g>
     </g>
     <g id="text_12">
      <!-- −2000 -->
      <g transform="translate(16.770313 276.818376) scale(0.1 -0.1)">
       <use xlink:href="#DejaVuSans-2212"/>
       <use xlink:href="#DejaVuSans-32" x="83.789062"/>
       <use xlink:href="#DejaVuSans-30" x="147.412109"/>
       <use xlink:href="#DejaVuSans-30" x="211.035156"/>
       <use xlink:href="#DejaVuSans-30" x="274.658203"/>
      </g>
     </g>
    </g>
    <g id="ytick_3">
     <g id="line2d_23">
      <path d="M 57.6 239.82306 
L 414.72 239.82306 
" clip-path="url(#p24497af8a0)" style="fill: none; stroke: #b0b0b0; stroke-width: 0.8; stroke-linecap: square"/>
     </g>
     <g id="line2d_24">
      <g>
       <use xlink:href="#m2e49b413b9" x="57.6" y="239.82306" style="stroke: #000000; stroke-width: 0.8"/>
      </g>
     </g>
     <g id="text_13">
      <!-- −1750 -->
      <g transform="translate(16.770313 243.622279) scale(0.1 -0.1)">
       <use xlink:href="#DejaVuSans-2212"/>
       <use xlink:href="#DejaVuSans-31" x="83.789062"/>
       <use xlink:href="#DejaVuSans-37" x="147.412109"/>
       <use xlink:href="#DejaVuSans-35" x="211.035156"/>
       <use xlink:href="#DejaVuSans-30" x="274.658203"/>
      </g>
     </g>
    </g>
    <g id="ytick_4">
     <g id="line2d_25">
      <path d="M 57.6 206.626963 
L 414.72 206.626963 
" clip-path="url(#p24497af8a0)" style="fill: none; stroke: #b0b0b0; stroke-width: 0.8; stroke-linecap: square"/>
     </g>
     <g id="line2d_26">
      <g>
       <use xlink:href="#m2e49b413b9" x="57.6" y="206.626963" style="stroke: #000000; stroke-width: 0.8"/>
      </g>
     </g>
     <g id="text_14">
      <!-- −1500 -->
      <g transform="translate(16.770313 210.426182) scale(0.1 -0.1)">
       <use xlink:href="#DejaVuSans-2212"/>
       <use xlink:href="#DejaVuSans-31" x="83.789062"/>
       <use xlink:href="#DejaVuSans-35" x="147.412109"/>
       <use xlink:href="#DejaVuSans-30" x="211.035156"/>
       <use xlink:href="#DejaVuSans-30" x="274.658203"/>
      </g>
     </g>
    </g>
    <g id="ytick_5">
     <g id="line2d_27">
      <path d="M 57.6 173.430866 
L 414.72 173.430866 
" clip-path="url(#p24497af8a0)" style="fill: none; stroke: #b0b0b0; stroke-width: 0.8; stroke-linecap: square"/>
     </g>
     <g id="line2d_28">
      <g>
       <use xlink:href="#m2e49b413b9" x="57.6" y="173.430866" style="stroke: #000000; stroke-width: 0.8"/>
      </g>
     </g>
     <g id="text_15">
      <!-- −1250 -->
      <g transform="translate(16.770313 177.230085) scale(0.1 -0.1)">
       <use xlink:href="#DejaVuSans-2212"/>
       <use xlink:href="#DejaVuSans-31" x="83.789062"/>
       <use xlink:href="#DejaVuSans-32" x="147.412109"/>
       <use xlink:href="#DejaVuSans-35" x="211.035156"/>
       <use xlink:href="#DejaVuSans-30" x="274.658203"/>
      </g>
     </g>
    </g>
    <g id="ytick_6">
     <g id="line2d_29">
      <path d="M 57.6 140.234769 
L 414.72 140.234769 
" clip-path="url(#p24497af8a0)" style="fill: none; stroke: #b0b0b0; stroke-width: 0.8; stroke-linecap: square"/>
     </g>
     <g id="line2d_30">
      <g>
       <use xlink:href="#m2e49b413b9" x="57.6" y="140.234769" style="stroke: #000000; stroke-width: 0.8"/>
      </g>
     </g>
     <g id="text_16">
      <!-- −1000 -->
      <g transform="translate(16.770313 144.033988) scale(0.1 -0.1)">
       <use xlink:href="#DejaVuSans-2212"/>
       <use xlink:href="#DejaVuSans-31" x="83.789062"/>
       <use xlink:href="#DejaVuSans-30" x="147.412109"/>
       <use xlink:href="#DejaVuSans-30" x="211.035156"/>
       <use xlink:href="#DejaVuSans-30" x="274.658203"/>
      </g>
     </g>
    </g>
    <g id="ytick_7">
     <g id="line2d_31">
      <path d="M 57.6 107.038672 
L 414.72 107.038672 
" clip-path="url(#p24497af8a0)" style="fill: none; stroke: #b0b0b0; stroke-width: 0.8; stroke-linecap: square"/>
     </g>
     <g id="line2d_32">
      <g>
       <use xlink:href="#m2e49b413b9" x="57.6" y="107.038672" style="stroke: #000000; stroke-width: 0.8"/>
      </g>
     </g>
     <g id="text_17">
      <!-- −750 -->
      <g transform="translate(23.132812 110.837891) scale(0.1 -0.1)">
       <use xlink:href="#DejaVuSans-2212"/>
       <use xlink:href="#DejaVuSans-37" x="83.789062"/>
       <use xlink:href="#DejaVuSans-35" x="147.412109"/>
       <use xlink:href="#DejaVuSans-30" x="211.035156"/>
      </g>
     </g>
    </g>
    <g id="ytick_8">
     <g id="line2d_33">
      <path d="M 57.6 73.842575 
L 414.72 73.842575 
" clip-path="url(#p24497af8a0)" style="fill: none; stroke: #b0b0b0; stroke-width: 0.8; stroke-linecap: square"/>
     </g>
     <g id="line2d_34">
      <g>
       <use xlink:href="#m2e49b413b9" x="57.6" y="73.842575" style="stroke: #000000; stroke-width: 0.8"/>
      </g>
     </g>
     <g id="text_18">
      <!-- −500 -->
      <g transform="translate(23.132812 77.641793) scale(0.1 -0.1)">
       <use xlink:href="#DejaVuSans-2212"/>
       <use xlink:href="#DejaVuSans-35" x="83.789062"/>
       <use xlink:href="#DejaVuSans-30" x="147.412109"/>
       <use xlink:href="#DejaVuSans-30" x="211.035156"/>
      </g>
     </g>
    </g>
    <g id="text_19">
     <!-- Fitness -->
     <g transform="translate(10.690625 191.845187) rotate(-90) scale(0.1 -0.1)">
      <defs>
       <path id="DejaVuSans-46" d="M 628 4666 
L 3309 4666 
L 3309 4134 
L 1259 4134 
L 1259 2759 
L 3109 2759 
L 3109 2228 
L 1259 2228 
L 1259 0 
L 628 0 
L 628 4666 
z
" transform="scale(0.015625)"/>
      </defs>
      <use xlink:href="#DejaVuSans-46"/>
      <use xlink:href="#DejaVuSans-69" x="50.269531"/>
      <use xlink:href="#DejaVuSans-74" x="78.052734"/>
      <use xlink:href="#DejaVuSans-6e" x="117.261719"/>
      <use xlink:href="#DejaVuSans-65" x="180.640625"/>
      <use xlink:href="#DejaVuSans-73" x="242.164062"/>
      <use xlink:href="#DejaVuSans-73" x="294.263672"/>
     </g>
    </g>
   </g>
   <g id="line2d_35">
    <path d="M 73.832727 264.424721 
L 75.464157 263.64163 
L 77.095587 258.233103 
L 78.727017 257.380564 
L 80.358447 256.135031 
L 81.989877 251.604008 
L 83.621307 250.716132 
L 85.252736 255.395022 
L 86.884166 257.889405 
L 88.515596 250.034566 
L 90.147026 253.734253 
L 91.778456 252.139473 
L 95.041316 251.752904 
L 96.672746 254.386979 
L 98.304175 251.841248 
L 99.935605 252.667541 
L 101.567035 252.922301 
L 103.198465 253.006895 
L 104.829895 253.342317 
L 106.461325 252.168332 
L 108.092755 251.153416 
L 109.724185 251.502402 
L 111.355614 250.528258 
L 112.987044 249.285394 
L 114.618474 250.708329 
L 116.249904 249.706633 
L 117.881334 248.53167 
L 119.512764 247.636643 
L 121.144194 250.11047 
L 122.775624 247.892061 
L 124.407053 250.497828 
L 126.038483 249.822697 
L 127.669913 247.113475 
L 129.301343 244.661217 
L 130.932773 247.104537 
L 132.564203 252.409343 
L 134.195633 252.619744 
L 135.827063 248.692733 
L 137.458492 250.585943 
L 139.089922 252.099337 
L 140.721352 249.474182 
L 142.352782 251.956703 
L 145.615642 251.453872 
L 147.247072 250.336831 
L 148.878502 251.660368 
L 150.509931 249.397694 
L 152.141361 250.89558 
L 153.772791 248.38038 
L 155.404221 252.344072 
L 157.035651 249.973438 
L 158.667081 252.691092 
L 160.298511 254.793469 
L 163.56137 248.588922 
L 165.1928 252.967386 
L 166.82423 252.662639 
L 168.45566 251.553603 
L 170.08709 253.014983 
L 171.71852 250.187115 
L 173.34995 250.037015 
L 174.98138 251.302863 
L 176.61281 251.30081 
L 178.244239 250.9076 
L 179.875669 249.572186 
L 181.507099 251.100312 
L 183.138529 251.08026 
L 184.769959 253.130973 
L 186.401389 252.100671 
L 188.032819 254.427514 
L 189.664249 253.100668 
L 191.295678 249.983828 
L 192.927108 253.717641 
L 194.558538 254.353048 
L 196.189968 254.842683 
L 197.821398 252.706235 
L 199.452828 253.211188 
L 202.715688 252.963685 
L 204.347117 251.977037 
L 205.978547 254.0916 
L 207.609977 253.640757 
L 209.241407 254.381098 
L 210.872837 253.929039 
L 212.504267 252.243794 
L 214.135697 253.065141 
L 215.767127 253.194929 
L 217.398556 252.978612 
L 219.029986 253.296896 
L 220.661416 254.638526 
L 222.292846 254.161353 
L 223.924276 252.953621 
L 225.555706 255.116531 
L 227.187136 252.649924 
L 228.818566 253.932034 
L 230.449995 251.729556 
L 232.081425 254.502848 
L 233.712855 253.566999 
L 235.344285 254.370965 
L 236.975715 254.063088 
L 238.607145 250.832308 
L 240.238575 249.132389 
L 241.870005 253.249868 
L 245.132864 253.966532 
L 246.764294 253.356573 
L 248.395724 254.436668 
L 250.027154 251.781581 
L 251.658584 252.68487 
L 253.290014 251.797206 
L 254.921444 247.550855 
L 256.552873 251.169848 
L 258.184303 249.696401 
L 259.815733 249.923438 
L 261.447163 253.156988 
L 263.078593 251.938027 
L 264.710023 251.687702 
L 266.341453 252.070748 
L 267.972883 253.615774 
L 269.604312 251.649718 
L 271.235742 252.716874 
L 272.867172 250.754122 
L 274.498602 256.641477 
L 276.130032 254.925171 
L 277.761462 255.248155 
L 279.392892 252.368716 
L 281.024322 254.113921 
L 282.655751 254.343735 
L 284.287181 253.567681 
L 285.918611 254.548228 
L 287.550041 254.739425 
L 289.181471 255.696226 
L 290.812901 255.706203 
L 292.444331 253.559438 
L 294.075761 255.863961 
L 295.70719 254.442213 
L 297.33862 254.034618 
L 298.97005 254.945686 
L 300.60148 255.18375 
L 302.23291 254.517302 
L 303.86434 254.423531 
L 305.49577 255.965161 
L 307.1272 254.519257 
L 308.75863 255.181832 
L 310.390059 256.426556 
L 312.021489 256.726899 
L 313.652919 254.727161 
L 315.284349 254.997893 
L 316.915779 253.842922 
L 318.547209 253.626989 
L 320.178639 254.195256 
L 321.810069 252.943452 
L 323.441498 253.765527 
L 325.072928 254.92231 
L 326.704358 251.78284 
L 328.335788 255.506453 
L 329.967218 253.462375 
L 331.598648 254.529923 
L 334.861508 253.947799 
L 336.492937 249.869603 
L 338.124367 252.100795 
L 339.755797 254.637564 
L 344.650087 253.937711 
L 346.281517 249.926594 
L 347.912947 254.64906 
L 349.544376 251.849782 
L 351.175806 252.715356 
L 352.807236 251.879193 
L 354.438666 251.408343 
L 356.070096 253.563337 
L 357.701526 252.498019 
L 359.332956 252.752253 
L 360.964386 252.678774 
L 362.595815 254.672866 
L 364.227245 251.56516 
L 365.858675 250.822679 
L 367.490105 250.460938 
L 369.121535 250.881139 
L 370.752965 251.167291 
L 372.384395 251.917333 
L 374.015825 254.570178 
L 375.647254 253.003641 
L 377.278684 254.856167 
L 378.910114 253.174157 
L 380.541544 254.044287 
L 382.172974 253.184282 
L 383.804404 253.24851 
L 385.435834 253.14756 
L 387.067264 253.821339 
L 388.698693 251.124217 
L 390.330123 255.346978 
L 391.961553 254.005155 
L 393.592983 254.282132 
L 395.224413 252.32952 
L 396.855843 253.253693 
L 398.487273 253.840707 
L 398.487273 253.840707 
" clip-path="url(#p24497af8a0)" style="fill: none; stroke: #0000ff; stroke-width: 1.5; stroke-linecap: square"/>
   </g>
   <g id="line2d_36">
    <path d="M 73.832727 290.284868 
L 75.464157 286.104693 
L 77.095587 287.235861 
L 78.727017 288.606871 
L 80.358447 289.749574 
L 81.989877 287.308574 
L 83.621307 289.257139 
L 85.252736 291.684446 
L 86.884166 285.646517 
L 88.515596 289.658249 
L 90.147026 288.530439 
L 91.778456 287.086245 
L 93.409886 287.935626 
L 95.041316 286.724517 
L 96.672746 290.468234 
L 98.304175 288.072418 
L 99.935605 287.108776 
L 101.567035 287.411185 
L 103.198465 287.116859 
L 104.829895 287.060828 
L 108.092755 293.401672 
L 109.724185 292.059445 
L 111.355614 293.581373 
L 112.987044 291.581149 
L 114.618474 290.559229 
L 116.249904 291.644171 
L 117.881334 291.884952 
L 119.512764 293.817086 
L 121.144194 293.415196 
L 124.407053 293.941233 
L 126.038483 292.844091 
L 127.669913 295.488 
L 129.301343 292.527964 
L 130.932773 292.92231 
L 132.564203 292.25492 
L 134.195633 288.130004 
L 135.827063 286.625249 
L 137.458492 286.521506 
L 139.089922 289.303883 
L 140.721352 288.96802 
L 142.352782 287.238591 
L 143.984212 288.061419 
L 145.615642 287.508366 
L 147.247072 288.488003 
L 148.878502 288.490222 
L 150.509931 290.906521 
L 152.141361 288.901672 
L 153.772791 288.835744 
L 155.404221 288.981904 
L 157.035651 287.26258 
L 158.667081 290.160081 
L 160.298511 292.210934 
L 161.929941 289.284262 
L 163.56137 292.902409 
L 165.1928 288.68026 
L 166.82423 288.439005 
L 168.45566 292.149297 
L 170.08709 290.154067 
L 171.71852 287.950004 
L 173.34995 289.054981 
L 174.98138 287.976918 
L 176.61281 288.094244 
L 178.244239 287.225086 
L 179.875669 288.484548 
L 181.507099 289.104788 
L 183.138529 291.776882 
L 184.769959 283.651153 
L 186.401389 283.515465 
L 188.032819 285.654072 
L 189.664249 284.072861 
L 191.295678 285.428572 
L 192.927108 284.879426 
L 194.558538 285.656822 
L 196.189968 286.027767 
L 197.821398 283.249381 
L 199.452828 284.097965 
L 201.084258 283.492832 
L 202.715688 283.29375 
L 204.347117 282.736184 
L 205.978547 285.918457 
L 207.609977 284.278861 
L 209.241407 285.381528 
L 210.872837 285.766547 
L 212.504267 288.449817 
L 214.135697 284.293849 
L 215.767127 284.694444 
L 217.398556 284.348535 
L 219.029986 283.673958 
L 220.661416 285.513275 
L 222.292846 285.182075 
L 223.924276 283.651281 
L 225.555706 286.777526 
L 227.187136 286.893714 
L 228.818566 286.260464 
L 230.449995 288.350569 
L 232.081425 287.067442 
L 233.712855 285.025555 
L 235.344285 286.436242 
L 238.607145 286.429363 
L 240.238575 287.156076 
L 241.870005 285.553824 
L 243.501434 285.802549 
L 245.132864 286.485618 
L 246.764294 285.582532 
L 248.395724 286.977671 
L 250.027154 284.496378 
L 251.658584 287.616481 
L 253.290014 286.980922 
L 254.921444 286.994802 
L 256.552873 290.438046 
L 258.184303 292.666306 
L 259.815733 290.167623 
L 261.447163 291.395312 
L 263.078593 291.82699 
L 264.710023 289.485757 
L 266.341453 291.790768 
L 267.972883 289.586747 
L 269.604312 290.171457 
L 271.235742 293.278868 
L 272.867172 292.486845 
L 274.498602 287.136406 
L 276.130032 285.004142 
L 277.761462 284.715973 
L 279.392892 286.338298 
L 281.024322 283.41626 
L 282.655751 283.367819 
L 284.287181 282.242504 
L 285.918611 283.128627 
L 287.550041 283.313862 
L 289.181471 284.897186 
L 290.812901 284.790184 
L 292.444331 286.601054 
L 294.075761 285.239953 
L 295.70719 283.097938 
L 297.33862 286.042489 
L 298.97005 283.186001 
L 300.60148 283.750309 
L 302.23291 283.112818 
L 303.86434 283.083208 
L 305.49577 285.425903 
L 307.1272 283.976588 
L 308.75863 288.286715 
L 310.390059 286.186635 
L 312.021489 285.788121 
L 313.652919 283.432955 
L 315.284349 283.845338 
L 316.915779 282.25225 
L 318.547209 282.042412 
L 320.178639 282.719369 
L 321.810069 281.453822 
L 323.441498 282.13188 
L 325.072928 283.398162 
L 326.704358 287.789986 
L 328.335788 284.298125 
L 329.967218 284.300082 
L 331.598648 283.749112 
L 333.230078 282.982153 
L 334.861508 286.349697 
L 336.492937 286.771863 
L 338.124367 288.51012 
L 339.755797 288.116522 
L 341.387227 288.168602 
L 343.018657 287.370444 
L 344.650087 287.714694 
L 346.281517 288.541077 
L 347.912947 286.849528 
L 349.544376 286.986447 
L 351.175806 285.977649 
L 352.807236 288.857175 
L 354.438666 287.289997 
L 357.701526 284.359377 
L 359.332956 285.232784 
L 360.964386 286.311703 
L 362.595815 288.745989 
L 364.227245 288.840334 
L 365.858675 288.301553 
L 367.490105 286.492273 
L 370.752965 286.902034 
L 372.384395 290.452125 
L 374.015825 287.006673 
L 375.647254 289.054691 
L 377.278684 286.866006 
L 378.910114 286.105034 
L 380.541544 287.070847 
L 382.172974 284.885448 
L 383.804404 286.579438 
L 385.435834 285.429314 
L 387.067264 286.117747 
L 388.698693 287.58851 
L 390.330123 288.160015 
L 391.961553 286.967503 
L 393.592983 288.605704 
L 395.224413 285.411976 
L 396.855843 287.320272 
L 398.487273 288.200676 
L 398.487273 288.200676 
" clip-path="url(#p24497af8a0)" style="fill: none; stroke-dasharray: 9.6,2.4,1.5,2.4; stroke-dashoffset: 0; stroke: #008000; stroke-width: 1.5"/>
   </g>
   <g id="line2d_37">
    <path d="M 73.832727 238.564573 
L 75.464157 241.178568 
L 77.095587 229.230346 
L 78.727017 226.154258 
L 80.358447 222.520488 
L 81.989877 215.899441 
L 83.621307 212.175125 
L 85.252736 219.105598 
L 86.884166 230.132292 
L 88.515596 210.410884 
L 90.147026 218.938067 
L 91.778456 217.1927 
L 93.409886 215.856368 
L 95.041316 216.781291 
L 96.672746 218.305723 
L 98.304175 215.610077 
L 99.935605 218.226306 
L 101.567035 218.433417 
L 103.198465 218.896931 
L 104.829895 219.623806 
L 108.092755 208.90516 
L 109.724185 210.945359 
L 111.355614 207.475143 
L 112.987044 206.98964 
L 114.618474 210.857428 
L 116.249904 207.769095 
L 117.881334 205.178388 
L 119.512764 201.456199 
L 121.144194 206.805744 
L 122.775624 202.158186 
L 124.407053 207.054424 
L 126.038483 206.801303 
L 127.669913 198.73895 
L 129.301343 196.794471 
L 130.932773 201.286763 
L 132.564203 212.563765 
L 134.195633 217.109484 
L 135.827063 210.760216 
L 137.458492 214.65038 
L 139.089922 214.894792 
L 140.721352 209.980343 
L 142.352782 216.674815 
L 143.984212 215.274996 
L 145.615642 215.399379 
L 147.247072 212.185658 
L 148.878502 214.830513 
L 150.509931 207.888866 
L 152.141361 212.889487 
L 153.772791 207.925015 
L 155.404221 215.70624 
L 157.035651 212.684295 
L 158.667081 215.222103 
L 160.298511 217.376004 
L 161.929941 213.975007 
L 163.56137 204.275436 
L 165.1928 217.254511 
L 166.82423 216.886273 
L 168.45566 210.957909 
L 170.08709 215.8759 
L 171.71852 212.424226 
L 173.34995 211.019049 
L 174.98138 214.628807 
L 176.61281 214.507377 
L 178.244239 214.590114 
L 179.875669 210.659825 
L 181.507099 213.095836 
L 183.138529 210.383637 
L 184.769959 222.610793 
L 186.401389 220.685877 
L 188.032819 223.200957 
L 189.664249 222.128475 
L 191.295678 214.539084 
L 192.927108 222.555856 
L 196.189968 223.657599 
L 197.821398 222.16309 
L 199.452828 222.324411 
L 201.084258 222.76853 
L 202.715688 222.63362 
L 204.347117 221.21789 
L 205.978547 222.264742 
L 207.609977 223.002653 
L 209.241407 223.380667 
L 210.872837 222.091532 
L 212.504267 216.03777 
L 214.135697 221.836433 
L 217.398556 221.608688 
L 219.029986 222.919834 
L 220.661416 223.763777 
L 222.292846 223.140631 
L 223.924276 222.255961 
L 225.555706 223.455535 
L 227.187136 218.406134 
L 228.818566 221.603605 
L 230.449995 215.108544 
L 232.081425 221.938254 
L 235.344285 222.305687 
L 236.975715 221.716087 
L 238.607145 215.235254 
L 240.238575 211.108702 
L 241.870005 220.945912 
L 243.501434 221.444915 
L 245.132864 221.447446 
L 246.764294 221.130615 
L 248.395724 221.895666 
L 250.027154 219.066784 
L 251.658584 217.753258 
L 253.290014 216.61349 
L 254.921444 208.106908 
L 256.552873 211.901651 
L 258.184303 206.726497 
L 259.815733 209.679254 
L 261.447163 214.918664 
L 263.078593 212.049064 
L 264.710023 213.889647 
L 266.341453 212.350728 
L 267.972883 217.644801 
L 269.604312 213.127979 
L 271.235742 212.15488 
L 272.867172 209.021398 
L 274.498602 226.146547 
L 276.130032 224.8462 
L 277.761462 225.780337 
L 279.392892 218.399135 
L 281.024322 224.811581 
L 282.655751 225.319651 
L 284.287181 224.892858 
L 285.918611 225.967829 
L 287.550041 226.164988 
L 289.181471 226.495267 
L 290.812901 226.622222 
L 292.444331 220.517821 
L 294.075761 226.487969 
L 295.70719 225.786489 
L 297.33862 222.026746 
L 298.97005 226.705372 
L 300.60148 226.617191 
L 302.23291 225.921786 
L 303.86434 225.763855 
L 305.49577 226.504419 
L 307.1272 225.061926 
L 308.75863 222.076948 
L 310.390059 226.666477 
L 312.021489 227.665678 
L 313.652919 226.021368 
L 315.284349 226.150448 
L 316.915779 225.433594 
L 318.547209 225.211566 
L 320.178639 225.671143 
L 321.810069 224.433082 
L 325.072928 226.446459 
L 326.704358 215.775694 
L 328.335788 226.714781 
L 329.967218 222.624667 
L 331.598648 225.310734 
L 333.230078 225.59198 
L 334.861508 221.545901 
L 336.492937 212.967344 
L 338.124367 215.69147 
L 339.755797 221.158606 
L 341.387227 220.607582 
L 343.018657 220.71369 
L 344.650087 220.160728 
L 346.281517 211.312111 
L 347.912947 222.448592 
L 349.544376 216.713118 
L 351.175806 219.453064 
L 352.807236 214.90121 
L 354.438666 215.526689 
L 356.070096 221.232512 
L 357.701526 220.636662 
L 359.332956 220.271723 
L 360.964386 219.045845 
L 362.595815 220.599743 
L 364.227245 214.289986 
L 365.858675 213.343805 
L 367.490105 214.429603 
L 369.121535 215.092444 
L 370.752965 215.432548 
L 372.384395 213.382542 
L 374.015825 222.133682 
L 375.647254 216.952592 
L 377.278684 222.846329 
L 378.910114 220.24328 
L 380.541544 221.017727 
L 382.172974 221.483116 
L 383.804404 219.917582 
L 385.435834 220.865807 
L 387.067264 221.524931 
L 388.698693 214.659925 
L 390.330123 222.533941 
L 391.961553 221.042808 
L 393.592983 219.958561 
L 395.224413 219.247063 
L 396.855843 219.187114 
L 398.487273 219.480737 
L 398.487273 219.480737 
" clip-path="url(#p24497af8a0)" style="fill: none; stroke-dasharray: 9.6,2.4,1.5,2.4; stroke-dashoffset: 0; stroke: #008000; stroke-width: 1.5"/>
   </g>
   <g id="line2d_38">
    <path d="M 73.832727 80.286933 
L 83.621307 80.286933 
L 85.252736 66.387067 
L 86.884166 66.387067 
L 88.515596 56.643298 
L 166.82423 56.643298 
L 168.45566 55.988677 
L 256.552873 55.988677 
L 258.184303 55.784171 
L 344.650087 55.784171 
L 346.281517 53.568 
L 398.487273 53.568 
L 398.487273 53.568 
" clip-path="url(#p24497af8a0)" style="fill: none; stroke: #ff0000; stroke-width: 1.5; stroke-linecap: square"/>
   </g>
   <g id="patch_3">
    <path d="M 57.6 307.584 
L 57.6 41.472 
" style="fill: none; stroke: #000000; stroke-width: 0.8; stroke-linejoin: miter; stroke-linecap: square"/>
   </g>
   <g id="patch_4">
    <path d="M 414.72 307.584 
L 414.72 41.472 
" style="fill: none; stroke: #000000; stroke-width: 0.8; stroke-linejoin: miter; stroke-linecap: square"/>
   </g>
   <g id="patch_5">
    <path d="M 57.6 307.584 
L 414.72 307.584 
" style="fill: none; stroke: #000000; stroke-width: 0.8; stroke-linejoin: miter; stroke-linecap: square"/>
   </g>
   <g id="patch_6">
    <path d="M 57.6 41.472 
L 414.72 41.472 
" style="fill: none; stroke: #000000; stroke-width: 0.8; stroke-linejoin: miter; stroke-linecap: square"/>
   </g>
   <g id="text_20">
    <!-- Population's average and best fitness -->
    <g transform="translate(123.529687 35.472) scale(0.12 -0.12)">
     <defs>
      <path id="DejaVuSans-50" d="M 1259 4147 
L 1259 2394 
L 2053 2394 
Q 2494 2394 2734 2622 
Q 2975 2850 2975 3272 
Q 2975 3691 2734 3919 
Q 2494 4147 2053 4147 
L 1259 4147 
z
M 628 4666 
L 2053 4666 
Q 2838 4666 3239 4311 
Q 3641 3956 3641 3272 
Q 3641 2581 3239 2228 
Q 2838 1875 2053 1875 
L 1259 1875 
L 1259 0 
L 628 0 
L 628 4666 
z
" transform="scale(0.015625)"/>
      <path id="DejaVuSans-70" d="M 1159 525 
L 1159 -1331 
L 581 -1331 
L 581 3500 
L 1159 3500 
L 1159 2969 
Q 1341 3281 1617 3432 
Q 1894 3584 2278 3584 
Q 2916 3584 3314 3078 
Q 3713 2572 3713 1747 
Q 3713 922 3314 415 
Q 2916 -91 2278 -91 
Q 1894 -91 1617 61 
Q 1341 213 1159 525 
z
M 3116 1747 
Q 3116 2381 2855 2742 
Q 2594 3103 2138 3103 
Q 1681 3103 1420 2742 
Q 1159 2381 1159 1747 
Q 1159 1113 1420 752 
Q 1681 391 2138 391 
Q 2594 391 2855 752 
Q 3116 1113 3116 1747 
z
" transform="scale(0.015625)"/>
      <path id="DejaVuSans-75" d="M 544 1381 
L 544 3500 
L 1119 3500 
L 1119 1403 
Q 1119 906 1312 657 
Q 1506 409 1894 409 
Q 2359 409 2629 706 
Q 2900 1003 2900 1516 
L 2900 3500 
L 3475 3500 
L 3475 0 
L 2900 0 
L 2900 538 
Q 2691 219 2414 64 
Q 2138 -91 1772 -91 
Q 1169 -91 856 284 
Q 544 659 544 1381 
z
M 1991 3584 
L 1991 3584 
z
" transform="scale(0.015625)"/>
      <path id="DejaVuSans-6c" d="M 603 4863 
L 1178 4863 
L 1178 0 
L 603 0 
L 603 4863 
z
" transform="scale(0.015625)"/>
      <path id="DejaVuSans-27" d="M 1147 4666 
L 1147 2931 
L 616 2931 
L 616 4666 
L 1147 4666 
z
" transform="scale(0.015625)"/>
      <path id="DejaVuSans-20" transform="scale(0.015625)"/>
      <path id="DejaVuSans-76" d="M 191 3500 
L 800 3500 
L 1894 563 
L 2988 3500 
L 3597 3500 
L 2284 0 
L 1503 0 
L 191 3500 
z
" transform="scale(0.015625)"/>
      <path id="DejaVuSans-67" d="M 2906 1791 
Q 2906 2416 2648 2759 
Q 2391 3103 1925 3103 
Q 1463 3103 1205 2759 
Q 947 2416 947 1791 
Q 947 1169 1205 825 
Q 1463 481 1925 481 
Q 2391 481 2648 825 
Q 2906 1169 2906 1791 
z
M 3481 434 
Q 3481 -459 3084 -895 
Q 2688 -1331 1869 -1331 
Q 1566 -1331 1297 -1286 
Q 1028 -1241 775 -1147 
L 775 -588 
Q 1028 -725 1275 -790 
Q 1522 -856 1778 -856 
Q 2344 -856 2625 -561 
Q 2906 -266 2906 331 
L 2906 616 
Q 2728 306 2450 153 
Q 2172 0 1784 0 
Q 1141 0 747 490 
Q 353 981 353 1791 
Q 353 2603 747 3093 
Q 1141 3584 1784 3584 
Q 2172 3584 2450 3431 
Q 2728 3278 2906 2969 
L 2906 3500 
L 3481 3500 
L 3481 434 
z
" transform="scale(0.015625)"/>
      <path id="DejaVuSans-64" d="M 2906 2969 
L 2906 4863 
L 3481 4863 
L 3481 0 
L 2906 0 
L 2906 525 
Q 2725 213 2448 61 
Q 2172 -91 1784 -91 
Q 1150 -91 751 415 
Q 353 922 353 1747 
Q 353 2572 751 3078 
Q 1150 3584 1784 3584 
Q 2172 3584 2448 3432 
Q 2725 3281 2906 2969 
z
M 947 1747 
Q 947 1113 1208 752 
Q 1469 391 1925 391 
Q 2381 391 2643 752 
Q 2906 1113 2906 1747 
Q 2906 2381 2643 2742 
Q 2381 3103 1925 3103 
Q 1469 3103 1208 2742 
Q 947 2381 947 1747 
z
" transform="scale(0.015625)"/>
      <path id="DejaVuSans-62" d="M 3116 1747 
Q 3116 2381 2855 2742 
Q 2594 3103 2138 3103 
Q 1681 3103 1420 2742 
Q 1159 2381 1159 1747 
Q 1159 1113 1420 752 
Q 1681 391 2138 391 
Q 2594 391 2855 752 
Q 3116 1113 3116 1747 
z
M 1159 2969 
Q 1341 3281 1617 3432 
Q 1894 3584 2278 3584 
Q 2916 3584 3314 3078 
Q 3713 2572 3713 1747 
Q 3713 922 3314 415 
Q 2916 -91 2278 -91 
Q 1894 -91 1617 61 
Q 1341 213 1159 525 
L 1159 0 
L 581 0 
L 581 4863 
L 1159 4863 
L 1159 2969 
z
" transform="scale(0.015625)"/>
      <path id="DejaVuSans-66" d="M 2375 4863 
L 2375 4384 
L 1825 4384 
Q 1516 4384 1395 4259 
Q 1275 4134 1275 3809 
L 1275 3500 
L 2222 3500 
L 2222 3053 
L 1275 3053 
L 1275 0 
L 697 0 
L 697 3053 
L 147 3053 
L 147 3500 
L 697 3500 
L 697 3744 
Q 697 4328 969 4595 
Q 1241 4863 1831 4863 
L 2375 4863 
z
" transform="scale(0.015625)"/>
     </defs>
     <use xlink:href="#DejaVuSans-50"/>
     <use xlink:href="#DejaVuSans-6f" x="56.677734"/>
     <use xlink:href="#DejaVuSans-70" x="117.859375"/>
     <use xlink:href="#DejaVuSans-75" x="181.335938"/>
     <use xlink:href="#DejaVuSans-6c" x="244.714844"/>
     <use xlink:href="#DejaVuSans-61" x="272.498047"/>
     <use xlink:href="#DejaVuSans-74" x="333.777344"/>
     <use xlink:href="#DejaVuSans-69" x="372.986328"/>
     <use xlink:href="#DejaVuSans-6f" x="400.769531"/>
     <use xlink:href="#DejaVuSans-6e" x="461.951172"/>
     <use xlink:href="#DejaVuSans-27" x="525.330078"/>
     <use xlink:href="#DejaVuSans-73" x="552.820312"/>
     <use xlink:href="#DejaVuSans-20" x="604.919922"/>
     <use xlink:href="#DejaVuSans-61" x="636.707031"/>
     <use xlink:href="#DejaVuSans-76" x="697.986328"/>
     <use xlink:href="#DejaVuSans-65" x="757.166016"/>
     <use xlink:href="#DejaVuSans-72" x="818.689453"/>
     <use xlink:href="#DejaVuSans-61" x="859.802734"/>
     <use xlink:href="#DejaVuSans-67" x="921.082031"/>
     <use xlink:href="#DejaVuSans-65" x="984.558594"/>
     <use xlink:href="#DejaVuSans-20" x="1046.082031"/>
     <use xlink:href="#DejaVuSans-61" x="1077.869141"/>
     <use xlink:href="#DejaVuSans-6e" x="1139.148438"/>
     <use xlink:href="#DejaVuSans-64" x="1202.527344"/>
     <use xlink:href="#DejaVuSans-20" x="1266.003906"/>
     <use xlink:href="#DejaVuSans-62" x="1297.791016"/>
     <use xlink:href="#DejaVuSans-65" x="1361.267578"/>
     <use xlink:href="#DejaVuSans-73" x="1422.791016"/>
     <use xlink:href="#DejaVuSans-74" x="1474.890625"/>
     <use xlink:href="#DejaVuSans-20" x="1514.099609"/>
     <use xlink:href="#DejaVuSans-66" x="1545.886719"/>
     <use xlink:href="#DejaVuSans-69" x="1581.091797"/>
     <use xlink:href="#DejaVuSans-74" x="1608.875"/>
     <use xlink:href="#DejaVuSans-6e" x="1648.083984"/>
     <use xlink:href="#DejaVuSans-65" x="1711.462891"/>
     <use xlink:href="#DejaVuSans-73" x="1772.986328"/>
     <use xlink:href="#DejaVuSans-73" x="1825.085938"/>
    </g>
   </g>
   <g id="legend_1">
    <g id="patch_7">
     <path d="M 334.779375 205.38425 
L 407.72 205.38425 
Q 409.72 205.38425 409.72 203.38425 
L 409.72 145.67175 
Q 409.72 143.67175 407.72 143.67175 
L 334.779375 143.67175 
Q 332.779375 143.67175 332.779375 145.67175 
L 332.779375 203.38425 
Q 332.779375 205.38425 334.779375 205.38425 
z
" style="fill: #ffffff; opacity: 0.8; stroke: #cccccc; stroke-linejoin: miter"/>
    </g>
    <g id="line2d_39">
     <path d="M 336.779375 151.770188 
L 346.779375 151.770188 
L 356.779375 151.770188 
" style="fill: none; stroke: #0000ff; stroke-width: 1.5; stroke-linecap: square"/>
    </g>
    <g id="text_21">
     <!-- average -->
     <g transform="translate(364.779375 155.270188) scale(0.1 -0.1)">
      <use xlink:href="#DejaVuSans-61"/>
      <use xlink:href="#DejaVuSans-76" x="61.279297"/>
      <use xlink:href="#DejaVuSans-65" x="120.458984"/>
      <use xlink:href="#DejaVuSans-72" x="181.982422"/>
      <use xlink:href="#DejaVuSans-61" x="223.095703"/>
      <use xlink:href="#DejaVuSans-67" x="284.375"/>
      <use xlink:href="#DejaVuSans-65" x="347.851562"/>
     </g>
    </g>
    <g id="line2d_40">
     <path d="M 336.779375 166.448313 
L 346.779375 166.448313 
L 356.779375 166.448313 
" style="fill: none; stroke-dasharray: 9.6,2.4,1.5,2.4; stroke-dashoffset: 0; stroke: #008000; stroke-width: 1.5"/>
    </g>
    <g id="text_22">
     <!-- -1 sd -->
     <g transform="translate(364.779375 169.948313) scale(0.1 -0.1)">
      <defs>
       <path id="DejaVuSans-2d" d="M 313 2009 
L 1997 2009 
L 1997 1497 
L 313 1497 
L 313 2009 
z
" transform="scale(0.015625)"/>
      </defs>
      <use xlink:href="#DejaVuSans-2d"/>
      <use xlink:href="#DejaVuSans-31" x="36.083984"/>
      <use xlink:href="#DejaVuSans-20" x="99.707031"/>
      <use xlink:href="#DejaVuSans-73" x="131.494141"/>
      <use xlink:href="#DejaVuSans-64" x="183.59375"/>
     </g>
    </g>
    <g id="line2d_41">
     <path d="M 336.779375 181.126438 
L 346.779375 181.126438 
L 356.779375 181.126438 
" style="fill: none; stroke-dasharray: 9.6,2.4,1.5,2.4; stroke-dashoffset: 0; stroke: #008000; stroke-width: 1.5"/>
    </g>
    <g id="text_23">
     <!-- +1 sd -->
     <g transform="translate(364.779375 184.626438) scale(0.1 -0.1)">
      <defs>
       <path id="DejaVuSans-2b" d="M 2944 4013 
L 2944 2272 
L 4684 2272 
L 4684 1741 
L 2944 1741 
L 2944 0 
L 2419 0 
L 2419 1741 
L 678 1741 
L 678 2272 
L 2419 2272 
L 2419 4013 
L 2944 4013 
z
" transform="scale(0.015625)"/>
      </defs>
      <use xlink:href="#DejaVuSans-2b"/>
      <use xlink:href="#DejaVuSans-31" x="83.789062"/>
      <use xlink:href="#DejaVuSans-20" x="147.412109"/>
      <use xlink:href="#DejaVuSans-73" x="179.199219"/>
      <use xlink:href="#DejaVuSans-64" x="231.298828"/>
     </g>
    </g>
    <g id="line2d_42">
     <path d="M 336.779375 195.804563 
L 346.779375 195.804563 
L 356.779375 195.804563 
" style="fill: none; stroke: #ff0000; stroke-width: 1.5; stroke-linecap: square"/>
    </g>
    <g id="text_24">
     <!-- best -->
     <g transform="translate(364.779375 199.304563) scale(0.1 -0.1)">
      <use xlink:href="#DejaVuSans-62"/>
      <use xlink:href="#DejaVuSans-65" x="63.476562"/>
      <use xlink:href="#DejaVuSans-73" x="125"/>
      <use xlink:href="#DejaVuSans-74" x="177.099609"/>
     </g>
    </g>
   </g>
  </g>
 </g>
 <defs>
  <clipPath id="p24497af8a0">
   <rect x="57.6" y="41.472" width="357.12" height="266.112"/>
  </clipPath>
 </defs>
</svg>
