<?xml version="1.0" encoding="utf-8" standalone="no"?>
<!DOCTYPE svg PUBLIC "-//W3C//DTD SVG 1.1//EN"
  "http://www.w3.org/Graphics/SVG/1.1/DTD/svg11.dtd">
<svg xmlns:xlink="http://www.w3.org/1999/xlink" width="460.8pt" height="345.6pt" viewBox="0 0 460.8 345.6" xmlns="http://www.w3.org/2000/svg" version="1.1">
 <metadata>
  <rdf:RDF xmlns:dc="http://purl.org/dc/elements/1.1/" xmlns:cc="http://creativecommons.org/ns#" xmlns:rdf="http://www.w3.org/1999/02/22-rdf-syntax-ns#">
   <cc:Work>
    <dc:type rdf:resource="http://purl.org/dc/dcmitype/StillImage"/>
    <dc:date>2024-08-14T07:05:37.712468</dc:date>
    <dc:format>image/svg+xml</dc:format>
    <dc:creator>
     <cc:Agent>
      <dc:title>Matplotlib v3.8.4, https://matplotlib.org/</dc:title>
     </cc:Agent>
    </dc:creator>
   </cc:Work>
  </rdf:RDF>
 </metadata>
 <defs>
  <style type="text/css">*{stroke-linejoin: round; stroke-linecap: butt}</style>
 </defs>
 <g id="figure_1">
  <g id="patch_1">
   <path d="M 0 345.6 
L 460.8 345.6 
L 460.8 0 
L 0 0 
z
" style="fill: #ffffff"/>
  </g>
  <g id="axes_1">
   <g id="patch_2">
    <path d="M 57.6 307.584 
L 414.72 307.584 
L 414.72 41.472 
L 57.6 41.472 
z
" style="fill: #ffffff"/>
   </g>
   <g id="matplotlib.axis_1">
    <g id="xtick_1">
     <g id="line2d_1">
      <path d="M 73.832727 307.584 
L 73.832727 41.472 
" clip-path="url(#pfbbfbba1e0)" style="fill: none; stroke: #b0b0b0; stroke-width: 0.8; stroke-linecap: square"/>
     </g>
     <g id="line2d_2">
      <defs>
       <path id="m9f29e72232" d="M 0 0 
L 0 3.5 
" style="stroke: #000000; stroke-width: 0.8"/>
      </defs>
      <g>
       <use xlink:href="#m9f29e72232" x="73.832727" y="307.584" style="stroke: #000000; stroke-width: 0.8"/>
      </g>
     </g>
     <g id="text_1">
      <!-- 0 -->
      <g transform="translate(70.651477 322.182437) scale(0.1 -0.1)">
       <defs>
        <path id="DejaVuSans-30" d="M 2034 4250 
Q 1547 4250 1301 3770 
Q 1056 3291 1056 2328 
Q 1056 1369 1301 889 
Q 1547 409 2034 409 
Q 2525 409 2770 889 
Q 3016 1369 3016 2328 
Q 3016 3291 2770 3770 
Q 2525 4250 2034 4250 
z
M 2034 4750 
Q 2819 4750 3233 4129 
Q 3647 3509 3647 2328 
Q 3647 1150 3233 529 
Q 2819 -91 2034 -91 
Q 1250 -91 836 529 
Q 422 1150 422 2328 
Q 422 3509 836 4129 
Q 1250 4750 2034 4750 
z
" transform="scale(0.015625)"/>
       </defs>
       <use xlink:href="#DejaVuSans-30"/>
      </g>
     </g>
    </g>
    <g id="xtick_2">
     <g id="line2d_3">
      <path d="M 128.122785 307.584 
L 128.122785 41.472 
" clip-path="url(#pfbbfbba1e0)" style="fill: none; stroke: #b0b0b0; stroke-width: 0.8; stroke-linecap: square"/>
     </g>
     <g id="line2d_4">
      <g>
       <use xlink:href="#m9f29e72232" x="128.122785" y="307.584" style="stroke: #000000; stroke-width: 0.8"/>
      </g>
     </g>
     <g id="text_2">
      <!-- 50 -->
      <g transform="translate(121.760285 322.182437) scale(0.1 -0.1)">
       <defs>
        <path id="DejaVuSans-35" d="M 691 4666 
L 3169 4666 
L 3169 4134 
L 1269 4134 
L 1269 2991 
Q 1406 3038 1543 3061 
Q 1681 3084 1819 3084 
Q 2600 3084 3056 2656 
Q 3513 2228 3513 1497 
Q 3513 744 3044 326 
Q 2575 -91 1722 -91 
Q 1428 -91 1123 -41 
Q 819 9 494 109 
L 494 744 
Q 775 591 1075 516 
Q 1375 441 1709 441 
Q 2250 441 2565 725 
Q 2881 1009 2881 1497 
Q 2881 1984 2565 2268 
Q 2250 2553 1709 2553 
Q 1456 2553 1204 2497 
Q 953 2441 691 2322 
L 691 4666 
z
" transform="scale(0.015625)"/>
       </defs>
       <use xlink:href="#DejaVuSans-35"/>
       <use xlink:href="#DejaVuSans-30" x="63.623047"/>
      </g>
     </g>
    </g>
    <g id="xtick_3">
     <g id="line2d_5">
      <path d="M 182.412843 307.584 
L 182.412843 41.472 
" clip-path="url(#pfbbfbba1e0)" style="fill: none; stroke: #b0b0b0; stroke-width: 0.8; stroke-linecap: square"/>
     </g>
     <g id="line2d_6">
      <g>
       <use xlink:href="#m9f29e72232" x="182.412843" y="307.584" style="stroke: #000000; stroke-width: 0.8"/>
      </g>
     </g>
     <g id="text_3">
      <!-- 100 -->
      <g transform="translate(172.869093 322.182437) scale(0.1 -0.1)">
       <defs>
        <path id="DejaVuSans-31" d="M 794 531 
L 1825 531 
L 1825 4091 
L 703 3866 
L 703 4441 
L 1819 4666 
L 2450 4666 
L 2450 531 
L 3481 531 
L 3481 0 
L 794 0 
L 794 531 
z
" transform="scale(0.015625)"/>
       </defs>
       <use xlink:href="#DejaVuSans-31"/>
       <use xlink:href="#DejaVuSans-30" x="63.623047"/>
       <use xlink:href="#DejaVuSans-30" x="127.246094"/>
      </g>
     </g>
    </g>
    <g id="xtick_4">
     <g id="line2d_7">
      <path d="M 236.702901 307.584 
L 236.702901 41.472 
" clip-path="url(#pfbbfbba1e0)" style="fill: none; stroke: #b0b0b0; stroke-width: 0.8; stroke-linecap: square"/>
     </g>
     <g id="line2d_8">
      <g>
       <use xlink:href="#m9f29e72232" x="236.702901" y="307.584" style="stroke: #000000; stroke-width: 0.8"/>
      </g>
     </g>
     <g id="text_4">
      <!-- 150 -->
      <g transform="translate(227.159151 322.182437) scale(0.1 -0.1)">
       <use xlink:href="#DejaVuSans-31"/>
       <use xlink:href="#DejaVuSans-35" x="63.623047"/>
       <use xlink:href="#DejaVuSans-30" x="127.246094"/>
      </g>
     </g>
    </g>
    <g id="xtick_5">
     <g id="line2d_9">
      <path d="M 290.992958 307.584 
L 290.992958 41.472 
" clip-path="url(#pfbbfbba1e0)" style="fill: none; stroke: #b0b0b0; stroke-width: 0.8; stroke-linecap: square"/>
     </g>
     <g id="line2d_10">
      <g>
       <use xlink:href="#m9f29e72232" x="290.992958" y="307.584" style="stroke: #000000; stroke-width: 0.8"/>
      </g>
     </g>
     <g id="text_5">
      <!-- 200 -->
      <g transform="translate(281.449208 322.182437) scale(0.1 -0.1)">
       <defs>
        <path id="DejaVuSans-32" d="M 1228 531 
L 3431 531 
L 3431 0 
L 469 0 
L 469 531 
Q 828 903 1448 1529 
Q 2069 2156 2228 2338 
Q 2531 2678 2651 2914 
Q 2772 3150 2772 3378 
Q 2772 3750 2511 3984 
Q 2250 4219 1831 4219 
Q 1534 4219 1204 4116 
Q 875 4013 500 3803 
L 500 4441 
Q 881 4594 1212 4672 
Q 1544 4750 1819 4750 
Q 2544 4750 2975 4387 
Q 3406 4025 3406 3419 
Q 3406 3131 3298 2873 
Q 3191 2616 2906 2266 
Q 2828 2175 2409 1742 
Q 1991 1309 1228 531 
z
" transform="scale(0.015625)"/>
       </defs>
       <use xlink:href="#DejaVuSans-32"/>
       <use xlink:href="#DejaVuSans-30" x="63.623047"/>
       <use xlink:href="#DejaVuSans-30" x="127.246094"/>
      </g>
     </g>
    </g>
    <g id="xtick_6">
     <g id="line2d_11">
      <path d="M 345.283016 307.584 
L 345.283016 41.472 
" clip-path="url(#pfbbfbba1e0)" style="fill: none; stroke: #b0b0b0; stroke-width: 0.8; stroke-linecap: square"/>
     </g>
     <g id="line2d_12">
      <g>
       <use xlink:href="#m9f29e72232" x="345.283016" y="307.584" style="stroke: #000000; stroke-width: 0.8"/>
      </g>
     </g>
     <g id="text_6">
      <!-- 250 -->
      <g transform="translate(335.739266 322.182437) scale(0.1 -0.1)">
       <use xlink:href="#DejaVuSans-32"/>
       <use xlink:href="#DejaVuSans-35" x="63.623047"/>
       <use xlink:href="#DejaVuSans-30" x="127.246094"/>
      </g>
     </g>
    </g>
    <g id="xtick_7">
     <g id="line2d_13">
      <path d="M 399.573074 307.584 
L 399.573074 41.472 
" clip-path="url(#pfbbfbba1e0)" style="fill: none; stroke: #b0b0b0; stroke-width: 0.8; stroke-linecap: square"/>
     </g>
     <g id="line2d_14">
      <g>
       <use xlink:href="#m9f29e72232" x="399.573074" y="307.584" style="stroke: #000000; stroke-width: 0.8"/>
      </g>
     </g>
     <g id="text_7">
      <!-- 300 -->
      <g transform="translate(390.029324 322.182437) scale(0.1 -0.1)">
       <defs>
        <path id="DejaVuSans-33" d="M 2597 2516 
Q 3050 2419 3304 2112 
Q 3559 1806 3559 1356 
Q 3559 666 3084 287 
Q 2609 -91 1734 -91 
Q 1441 -91 1130 -33 
Q 819 25 488 141 
L 488 750 
Q 750 597 1062 519 
Q 1375 441 1716 441 
Q 2309 441 2620 675 
Q 2931 909 2931 1356 
Q 2931 1769 2642 2001 
Q 2353 2234 1838 2234 
L 1294 2234 
L 1294 2753 
L 1863 2753 
Q 2328 2753 2575 2939 
Q 2822 3125 2822 3475 
Q 2822 3834 2567 4026 
Q 2313 4219 1838 4219 
Q 1578 4219 1281 4162 
Q 984 4106 628 3988 
L 628 4550 
Q 988 4650 1302 4700 
Q 1616 4750 1894 4750 
Q 2613 4750 3031 4423 
Q 3450 4097 3450 3541 
Q 3450 3153 3228 2886 
Q 3006 2619 2597 2516 
z
" transform="scale(0.015625)"/>
       </defs>
       <use xlink:href="#DejaVuSans-33"/>
       <use xlink:href="#DejaVuSans-30" x="63.623047"/>
       <use xlink:href="#DejaVuSans-30" x="127.246094"/>
      </g>
     </g>
    </g>
    <g id="text_8">
     <!-- Generations -->
     <g transform="translate(205.662344 335.860562) scale(0.1 -0.1)">
      <defs>
       <path id="DejaVuSans-47" d="M 3809 666 
L 3809 1919 
L 2778 1919 
L 2778 2438 
L 4434 2438 
L 4434 434 
Q 4069 175 3628 42 
Q 3188 -91 2688 -91 
Q 1594 -91 976 548 
Q 359 1188 359 2328 
Q 359 3472 976 4111 
Q 1594 4750 2688 4750 
Q 3144 4750 3555 4637 
Q 3966 4525 4313 4306 
L 4313 3634 
Q 3963 3931 3569 4081 
Q 3175 4231 2741 4231 
Q 1884 4231 1454 3753 
Q 1025 3275 1025 2328 
Q 1025 1384 1454 906 
Q 1884 428 2741 428 
Q 3075 428 3337 486 
Q 3600 544 3809 666 
z
" transform="scale(0.015625)"/>
       <path id="DejaVuSans-65" d="M 3597 1894 
L 3597 1613 
L 953 1613 
Q 991 1019 1311 708 
Q 1631 397 2203 397 
Q 2534 397 2845 478 
Q 3156 559 3463 722 
L 3463 178 
Q 3153 47 2828 -22 
Q 2503 -91 2169 -91 
Q 1331 -91 842 396 
Q 353 884 353 1716 
Q 353 2575 817 3079 
Q 1281 3584 2069 3584 
Q 2775 3584 3186 3129 
Q 3597 2675 3597 1894 
z
M 3022 2063 
Q 3016 2534 2758 2815 
Q 2500 3097 2075 3097 
Q 1594 3097 1305 2825 
Q 1016 2553 972 2059 
L 3022 2063 
z
" transform="scale(0.015625)"/>
       <path id="DejaVuSans-6e" d="M 3513 2113 
L 3513 0 
L 2938 0 
L 2938 2094 
Q 2938 2591 2744 2837 
Q 2550 3084 2163 3084 
Q 1697 3084 1428 2787 
Q 1159 2491 1159 1978 
L 1159 0 
L 581 0 
L 581 3500 
L 1159 3500 
L 1159 2956 
Q 1366 3272 1645 3428 
Q 1925 3584 2291 3584 
Q 2894 3584 3203 3211 
Q 3513 2838 3513 2113 
z
" transform="scale(0.015625)"/>
       <path id="DejaVuSans-72" d="M 2631 2963 
Q 2534 3019 2420 3045 
Q 2306 3072 2169 3072 
Q 1681 3072 1420 2755 
Q 1159 2438 1159 1844 
L 1159 0 
L 581 0 
L 581 3500 
L 1159 3500 
L 1159 2956 
Q 1341 3275 1631 3429 
Q 1922 3584 2338 3584 
Q 2397 3584 2469 3576 
Q 2541 3569 2628 3553 
L 2631 2963 
z
" transform="scale(0.015625)"/>
       <path id="DejaVuSans-61" d="M 2194 1759 
Q 1497 1759 1228 1600 
Q 959 1441 959 1056 
Q 959 750 1161 570 
Q 1363 391 1709 391 
Q 2188 391 2477 730 
Q 2766 1069 2766 1631 
L 2766 1759 
L 2194 1759 
z
M 3341 1997 
L 3341 0 
L 2766 0 
L 2766 531 
Q 2569 213 2275 61 
Q 1981 -91 1556 -91 
Q 1019 -91 701 211 
Q 384 513 384 1019 
Q 384 1609 779 1909 
Q 1175 2209 1959 2209 
L 2766 2209 
L 2766 2266 
Q 2766 2663 2505 2880 
Q 2244 3097 1772 3097 
Q 1472 3097 1187 3025 
Q 903 2953 641 2809 
L 641 3341 
Q 956 3463 1253 3523 
Q 1550 3584 1831 3584 
Q 2591 3584 2966 3190 
Q 3341 2797 3341 1997 
z
" transform="scale(0.015625)"/>
       <path id="DejaVuSans-74" d="M 1172 4494 
L 1172 3500 
L 2356 3500 
L 2356 3053 
L 1172 3053 
L 1172 1153 
Q 1172 725 1289 603 
Q 1406 481 1766 481 
L 2356 481 
L 2356 0 
L 1766 0 
Q 1100 0 847 248 
Q 594 497 594 1153 
L 594 3053 
L 172 3053 
L 172 3500 
L 594 3500 
L 594 4494 
L 1172 4494 
z
" transform="scale(0.015625)"/>
       <path id="DejaVuSans-69" d="M 603 3500 
L 1178 3500 
L 1178 0 
L 603 0 
L 603 3500 
z
M 603 4863 
L 1178 4863 
L 1178 4134 
L 603 4134 
L 603 4863 
z
" transform="scale(0.015625)"/>
       <path id="DejaVuSans-6f" d="M 1959 3097 
Q 1497 3097 1228 2736 
Q 959 2375 959 1747 
Q 959 1119 1226 758 
Q 1494 397 1959 397 
Q 2419 397 2687 759 
Q 2956 1122 2956 1747 
Q 2956 2369 2687 2733 
Q 2419 3097 1959 3097 
z
M 1959 3584 
Q 2709 3584 3137 3096 
Q 3566 2609 3566 1747 
Q 3566 888 3137 398 
Q 2709 -91 1959 -91 
Q 1206 -91 779 398 
Q 353 888 353 1747 
Q 353 2609 779 3096 
Q 1206 3584 1959 3584 
z
" transform="scale(0.015625)"/>
       <path id="DejaVuSans-73" d="M 2834 3397 
L 2834 2853 
Q 2591 2978 2328 3040 
Q 2066 3103 1784 3103 
Q 1356 3103 1142 2972 
Q 928 2841 928 2578 
Q 928 2378 1081 2264 
Q 1234 2150 1697 2047 
L 1894 2003 
Q 2506 1872 2764 1633 
Q 3022 1394 3022 966 
Q 3022 478 2636 193 
Q 2250 -91 1575 -91 
Q 1294 -91 989 -36 
Q 684 19 347 128 
L 347 722 
Q 666 556 975 473 
Q 1284 391 1588 391 
Q 1994 391 2212 530 
Q 2431 669 2431 922 
Q 2431 1156 2273 1281 
Q 2116 1406 1581 1522 
L 1381 1569 
Q 847 1681 609 1914 
Q 372 2147 372 2553 
Q 372 3047 722 3315 
Q 1072 3584 1716 3584 
Q 2034 3584 2315 3537 
Q 2597 3491 2834 3397 
z
" transform="scale(0.015625)"/>
      </defs>
      <use xlink:href="#DejaVuSans-47"/>
      <use xlink:href="#DejaVuSans-65" x="77.490234"/>
      <use xlink:href="#DejaVuSans-6e" x="139.013672"/>
      <use xlink:href="#DejaVuSans-65" x="202.392578"/>
      <use xlink:href="#DejaVuSans-72" x="263.916016"/>
      <use xlink:href="#DejaVuSans-61" x="305.029297"/>
      <use xlink:href="#DejaVuSans-74" x="366.308594"/>
      <use xlink:href="#DejaVuSans-69" x="405.517578"/>
      <use xlink:href="#DejaVuSans-6f" x="433.300781"/>
      <use xlink:href="#DejaVuSans-6e" x="494.482422"/>
      <use xlink:href="#DejaVuSans-73" x="557.861328"/>
     </g>
    </g>
   </g>
   <g id="matplotlib.axis_2">
    <g id="ytick_1">
     <g id="line2d_15">
      <path d="M 57.6 288.25489 
L 414.72 288.25489 
" clip-path="url(#pfbbfbba1e0)" style="fill: none; stroke: #b0b0b0; stroke-width: 0.8; stroke-linecap: square"/>
     </g>
     <g id="line2d_16">
      <defs>
       <path id="m3d95302b62" d="M 0 0 
L -3.5 0 
" style="stroke: #000000; stroke-width: 0.8"/>
      </defs>
      <g>
       <use xlink:href="#m3d95302b62" x="57.6" y="288.25489" style="stroke: #000000; stroke-width: 0.8"/>
      </g>
     </g>
     <g id="text_9">
      <!-- −2000 -->
      <g transform="translate(16.770313 292.054109) scale(0.1 -0.1)">
       <defs>
        <path id="DejaVuSans-2212" d="M 678 2272 
L 4684 2272 
L 4684 1741 
L 678 1741 
L 678 2272 
z
" transform="scale(0.015625)"/>
       </defs>
       <use xlink:href="#DejaVuSans-2212"/>
       <use xlink:href="#DejaVuSans-32" x="83.789062"/>
       <use xlink:href="#DejaVuSans-30" x="147.412109"/>
       <use xlink:href="#DejaVuSans-30" x="211.035156"/>
       <use xlink:href="#DejaVuSans-30" x="274.658203"/>
      </g>
     </g>
    </g>
    <g id="ytick_2">
     <g id="line2d_17">
      <path d="M 57.6 252.288882 
L 414.72 252.288882 
" clip-path="url(#pfbbfbba1e0)" style="fill: none; stroke: #b0b0b0; stroke-width: 0.8; stroke-linecap: square"/>
     </g>
     <g id="line2d_18">
      <g>
       <use xlink:href="#m3d95302b62" x="57.6" y="252.288882" style="stroke: #000000; stroke-width: 0.8"/>
      </g>
     </g>
     <g id="text_10">
      <!-- −1800 -->
      <g transform="translate(16.770313 256.088101) scale(0.1 -0.1)">
       <defs>
        <path id="DejaVuSans-38" d="M 2034 2216 
Q 1584 2216 1326 1975 
Q 1069 1734 1069 1313 
Q 1069 891 1326 650 
Q 1584 409 2034 409 
Q 2484 409 2743 651 
Q 3003 894 3003 1313 
Q 3003 1734 2745 1975 
Q 2488 2216 2034 2216 
z
M 1403 2484 
Q 997 2584 770 2862 
Q 544 3141 544 3541 
Q 544 4100 942 4425 
Q 1341 4750 2034 4750 
Q 2731 4750 3128 4425 
Q 3525 4100 3525 3541 
Q 3525 3141 3298 2862 
Q 3072 2584 2669 2484 
Q 3125 2378 3379 2068 
Q 3634 1759 3634 1313 
Q 3634 634 3220 271 
Q 2806 -91 2034 -91 
Q 1263 -91 848 271 
Q 434 634 434 1313 
Q 434 1759 690 2068 
Q 947 2378 1403 2484 
z
M 1172 3481 
Q 1172 3119 1398 2916 
Q 1625 2713 2034 2713 
Q 2441 2713 2670 2916 
Q 2900 3119 2900 3481 
Q 2900 3844 2670 4047 
Q 2441 4250 2034 4250 
Q 1625 4250 1398 4047 
Q 1172 3844 1172 3481 
z
" transform="scale(0.015625)"/>
       </defs>
       <use xlink:href="#DejaVuSans-2212"/>
       <use xlink:href="#DejaVuSans-31" x="83.789062"/>
       <use xlink:href="#DejaVuSans-38" x="147.412109"/>
       <use xlink:href="#DejaVuSans-30" x="211.035156"/>
       <use xlink:href="#DejaVuSans-30" x="274.658203"/>
      </g>
     </g>
    </g>
    <g id="ytick_3">
     <g id="line2d_19">
      <path d="M 57.6 216.322875 
L 414.72 216.322875 
" clip-path="url(#pfbbfbba1e0)" style="fill: none; stroke: #b0b0b0; stroke-width: 0.8; stroke-linecap: square"/>
     </g>
     <g id="line2d_20">
      <g>
       <use xlink:href="#m3d95302b62" x="57.6" y="216.322875" style="stroke: #000000; stroke-width: 0.8"/>
      </g>
     </g>
     <g id="text_11">
      <!-- −1600 -->
      <g transform="translate(16.770313 220.122093) scale(0.1 -0.1)">
       <defs>
        <path id="DejaVuSans-36" d="M 2113 2584 
Q 1688 2584 1439 2293 
Q 1191 2003 1191 1497 
Q 1191 994 1439 701 
Q 1688 409 2113 409 
Q 2538 409 2786 701 
Q 3034 994 3034 1497 
Q 3034 2003 2786 2293 
Q 2538 2584 2113 2584 
z
M 3366 4563 
L 3366 3988 
Q 3128 4100 2886 4159 
Q 2644 4219 2406 4219 
Q 1781 4219 1451 3797 
Q 1122 3375 1075 2522 
Q 1259 2794 1537 2939 
Q 1816 3084 2150 3084 
Q 2853 3084 3261 2657 
Q 3669 2231 3669 1497 
Q 3669 778 3244 343 
Q 2819 -91 2113 -91 
Q 1303 -91 875 529 
Q 447 1150 447 2328 
Q 447 3434 972 4092 
Q 1497 4750 2381 4750 
Q 2619 4750 2861 4703 
Q 3103 4656 3366 4563 
z
" transform="scale(0.015625)"/>
       </defs>
       <use xlink:href="#DejaVuSans-2212"/>
       <use xlink:href="#DejaVuSans-31" x="83.789062"/>
       <use xlink:href="#DejaVuSans-36" x="147.412109"/>
       <use xlink:href="#DejaVuSans-30" x="211.035156"/>
       <use xlink:href="#DejaVuSans-30" x="274.658203"/>
      </g>
     </g>
    </g>
    <g id="ytick_4">
     <g id="line2d_21">
      <path d="M 57.6 180.356867 
L 414.72 180.356867 
" clip-path="url(#pfbbfbba1e0)" style="fill: none; stroke: #b0b0b0; stroke-width: 0.8; stroke-linecap: square"/>
     </g>
     <g id="line2d_22">
      <g>
       <use xlink:href="#m3d95302b62" x="57.6" y="180.356867" style="stroke: #000000; stroke-width: 0.8"/>
      </g>
     </g>
     <g id="text_12">
      <!-- −1400 -->
      <g transform="translate(16.770313 184.156086) scale(0.1 -0.1)">
       <defs>
        <path id="DejaVuSans-34" d="M 2419 4116 
L 825 1625 
L 2419 1625 
L 2419 4116 
z
M 2253 4666 
L 3047 4666 
L 3047 1625 
L 3713 1625 
L 3713 1100 
L 3047 1100 
L 3047 0 
L 2419 0 
L 2419 1100 
L 313 1100 
L 313 1709 
L 2253 4666 
z
" transform="scale(0.015625)"/>
       </defs>
       <use xlink:href="#DejaVuSans-2212"/>
       <use xlink:href="#DejaVuSans-31" x="83.789062"/>
       <use xlink:href="#DejaVuSans-34" x="147.412109"/>
       <use xlink:href="#DejaVuSans-30" x="211.035156"/>
       <use xlink:href="#DejaVuSans-30" x="274.658203"/>
      </g>
     </g>
    </g>
    <g id="ytick_5">
     <g id="line2d_23">
      <path d="M 57.6 144.390859 
L 414.72 144.390859 
" clip-path="url(#pfbbfbba1e0)" style="fill: none; stroke: #b0b0b0; stroke-width: 0.8; stroke-linecap: square"/>
     </g>
     <g id="line2d_24">
      <g>
       <use xlink:href="#m3d95302b62" x="57.6" y="144.390859" style="stroke: #000000; stroke-width: 0.8"/>
      </g>
     </g>
     <g id="text_13">
      <!-- −1200 -->
      <g transform="translate(16.770313 148.190078) scale(0.1 -0.1)">
       <use xlink:href="#DejaVuSans-2212"/>
       <use xlink:href="#DejaVuSans-31" x="83.789062"/>
       <use xlink:href="#DejaVuSans-32" x="147.412109"/>
       <use xlink:href="#DejaVuSans-30" x="211.035156"/>
       <use xlink:href="#DejaVuSans-30" x="274.658203"/>
      </g>
     </g>
    </g>
    <g id="ytick_6">
     <g id="line2d_25">
      <path d="M 57.6 108.424851 
L 414.72 108.424851 
" clip-path="url(#pfbbfbba1e0)" style="fill: none; stroke: #b0b0b0; stroke-width: 0.8; stroke-linecap: square"/>
     </g>
     <g id="line2d_26">
      <g>
       <use xlink:href="#m3d95302b62" x="57.6" y="108.424851" style="stroke: #000000; stroke-width: 0.8"/>
      </g>
     </g>
     <g id="text_14">
      <!-- −1000 -->
      <g transform="translate(16.770313 112.22407) scale(0.1 -0.1)">
       <use xlink:href="#DejaVuSans-2212"/>
       <use xlink:href="#DejaVuSans-31" x="83.789062"/>
       <use xlink:href="#DejaVuSans-30" x="147.412109"/>
       <use xlink:href="#DejaVuSans-30" x="211.035156"/>
       <use xlink:href="#DejaVuSans-30" x="274.658203"/>
      </g>
     </g>
    </g>
    <g id="ytick_7">
     <g id="line2d_27">
      <path d="M 57.6 72.458843 
L 414.72 72.458843 
" clip-path="url(#pfbbfbba1e0)" style="fill: none; stroke: #b0b0b0; stroke-width: 0.8; stroke-linecap: square"/>
     </g>
     <g id="line2d_28">
      <g>
       <use xlink:href="#m3d95302b62" x="57.6" y="72.458843" style="stroke: #000000; stroke-width: 0.8"/>
      </g>
     </g>
     <g id="text_15">
      <!-- −800 -->
      <g transform="translate(23.132812 76.258062) scale(0.1 -0.1)">
       <use xlink:href="#DejaVuSans-2212"/>
       <use xlink:href="#DejaVuSans-38" x="83.789062"/>
       <use xlink:href="#DejaVuSans-30" x="147.412109"/>
       <use xlink:href="#DejaVuSans-30" x="211.035156"/>
      </g>
     </g>
    </g>
    <g id="text_16">
     <!-- Fitness -->
     <g transform="translate(10.690625 191.845187) rotate(-90) scale(0.1 -0.1)">
      <defs>
       <path id="DejaVuSans-46" d="M 628 4666 
L 3309 4666 
L 3309 4134 
L 1259 4134 
L 1259 2759 
L 3109 2759 
L 3109 2228 
L 1259 2228 
L 1259 0 
L 628 0 
L 628 4666 
z
" transform="scale(0.015625)"/>
      </defs>
      <use xlink:href="#DejaVuSans-46"/>
      <use xlink:href="#DejaVuSans-69" x="50.269531"/>
      <use xlink:href="#DejaVuSans-74" x="78.052734"/>
      <use xlink:href="#DejaVuSans-6e" x="117.261719"/>
      <use xlink:href="#DejaVuSans-65" x="180.640625"/>
      <use xlink:href="#DejaVuSans-73" x="242.164062"/>
      <use xlink:href="#DejaVuSans-73" x="294.263672"/>
     </g>
    </g>
   </g>
   <g id="line2d_29">
    <path d="M 73.832727 268.051118 
L 74.918528 266.151107 
L 77.090131 260.494726 
L 78.175932 259.530415 
L 79.261733 259.109359 
L 82.519137 258.623392 
L 84.690739 256.980621 
L 85.77654 256.786588 
L 86.862341 260.12249 
L 87.948142 258.381979 
L 89.033943 258.634959 
L 90.119745 257.582749 
L 91.205546 258.455029 
L 92.291347 257.417033 
L 93.377148 258.295421 
L 94.462949 258.26756 
L 95.54875 257.793326 
L 96.634552 256.640152 
L 97.720353 257.79264 
L 98.806154 257.83154 
L 99.891955 258.773303 
L 100.977756 257.853098 
L 102.063557 257.64462 
L 103.149358 257.040357 
L 104.23516 256.664621 
L 105.320961 255.363663 
L 106.406762 257.059616 
L 107.492563 256.061325 
L 108.578364 255.997814 
L 109.664165 256.723457 
L 110.749967 256.132327 
L 111.835768 255.749489 
L 112.921569 256.544148 
L 115.093171 256.040276 
L 116.178972 255.577479 
L 118.350575 253.4141 
L 119.436376 256.167854 
L 120.522177 255.682604 
L 121.607978 256.238998 
L 122.693779 255.387693 
L 123.77958 255.231629 
L 124.865382 255.41317 
L 125.951183 255.826704 
L 127.036984 255.902674 
L 128.122785 256.570338 
L 129.208586 255.465297 
L 130.294387 256.499242 
L 133.551791 256.491755 
L 134.637592 257.197052 
L 135.723393 256.644448 
L 136.809194 256.242547 
L 137.894995 257.405011 
L 138.980797 256.671518 
L 140.066598 257.394662 
L 141.152399 256.743804 
L 143.324001 257.060898 
L 144.409802 258.091594 
L 145.495604 258.053767 
L 146.581405 256.707993 
L 147.667206 256.188258 
L 148.753007 257.747137 
L 150.924609 256.720264 
L 152.01041 257.130026 
L 153.096212 253.89874 
L 154.182013 256.853755 
L 155.267814 257.377169 
L 156.353615 257.356579 
L 157.439416 254.89058 
L 158.525217 255.308791 
L 159.611019 257.284776 
L 160.69682 256.112745 
L 161.782621 256.091075 
L 162.868422 255.811568 
L 163.954223 256.421649 
L 165.040024 255.407949 
L 166.125825 255.414676 
L 167.211627 253.559086 
L 168.297428 255.217172 
L 169.383229 255.473582 
L 170.46903 254.831737 
L 171.554831 256.173512 
L 172.640632 254.431831 
L 173.726434 253.979174 
L 174.812235 253.34855 
L 175.898036 255.997694 
L 176.983837 253.753895 
L 178.069638 253.290748 
L 180.24124 251.810451 
L 181.327042 253.796636 
L 182.412843 254.092753 
L 183.498644 249.831074 
L 184.584445 252.089704 
L 185.670246 255.59876 
L 186.756047 254.721979 
L 187.841849 253.25419 
L 188.92765 254.912867 
L 190.013451 251.400002 
L 191.099252 254.344059 
L 192.185053 253.927789 
L 193.270854 254.279563 
L 194.356656 252.241146 
L 195.442457 251.464693 
L 196.528258 252.205269 
L 197.614059 254.147693 
L 198.69986 251.172723 
L 199.785661 255.311481 
L 200.871462 254.338312 
L 201.957264 256.241308 
L 203.043065 254.429791 
L 204.128866 256.220527 
L 205.214667 253.798791 
L 206.300468 255.395809 
L 207.386269 255.282343 
L 208.472071 256.702136 
L 209.557872 256.115226 
L 210.643673 256.63729 
L 211.729474 255.571215 
L 212.815275 255.291444 
L 213.901076 256.285968 
L 214.986877 256.98533 
L 216.072679 257.5257 
L 217.15848 257.818004 
L 218.244281 257.64945 
L 219.330082 256.265532 
L 220.415883 256.736667 
L 221.501684 257.575379 
L 222.587486 255.369435 
L 223.673287 255.668142 
L 224.759088 257.063349 
L 225.844889 257.368557 
L 226.93069 257.358306 
L 228.016491 256.536601 
L 229.102292 256.242432 
L 230.188094 256.383148 
L 231.273895 255.309129 
L 232.359696 255.903915 
L 233.445497 257.085824 
L 234.531298 255.953361 
L 235.617099 255.484291 
L 236.702901 255.691139 
L 237.788702 255.294858 
L 238.874503 256.077784 
L 239.960304 255.718324 
L 241.046105 255.554711 
L 242.131906 255.555503 
L 243.217708 253.442842 
L 244.303509 253.402161 
L 245.38931 253.500076 
L 246.475111 251.715079 
L 247.560912 254.663184 
L 248.646713 253.747985 
L 249.732514 253.826932 
L 250.818316 254.187031 
L 251.904117 255.699817 
L 252.989918 254.078628 
L 254.075719 256.877405 
L 255.16152 255.568244 
L 256.247321 256.780818 
L 257.333123 253.828328 
L 258.418924 257.679039 
L 260.590526 256.517124 
L 261.676327 257.133735 
L 262.762128 256.588472 
L 263.847929 255.738489 
L 264.933731 254.671043 
L 266.019532 255.312948 
L 267.105333 254.995197 
L 268.191134 256.014476 
L 269.276935 255.457974 
L 270.362736 255.329066 
L 271.448538 256.103537 
L 272.534339 256.066112 
L 273.62014 255.542827 
L 274.705941 254.328677 
L 275.791742 256.853667 
L 276.877543 255.891255 
L 277.963344 256.703725 
L 279.049146 255.991142 
L 280.134947 256.147826 
L 281.220748 256.086019 
L 282.306549 255.721595 
L 283.39235 256.87557 
L 284.478151 256.166319 
L 285.563953 256.655482 
L 286.649754 256.310604 
L 287.735555 255.6857 
L 288.821356 256.673612 
L 289.907157 258.439844 
L 290.992958 258.389548 
L 292.07876 257.756159 
L 293.164561 258.665571 
L 294.250362 259.002555 
L 295.336163 258.48799 
L 296.421964 257.841923 
L 297.507765 258.792296 
L 298.593566 259.193473 
L 299.679368 259.256279 
L 300.765169 258.768705 
L 301.85097 258.507757 
L 302.936771 259.388987 
L 304.022572 258.907812 
L 305.108373 257.969718 
L 306.194175 258.431226 
L 307.279976 258.455338 
L 308.365777 257.751687 
L 309.451578 258.343284 
L 310.537379 258.306953 
L 311.62318 259.30461 
L 312.708981 258.334692 
L 314.880584 258.460897 
L 315.966385 258.893863 
L 317.052186 258.116601 
L 318.137987 258.695097 
L 319.223788 257.878445 
L 321.395391 257.70053 
L 322.481192 257.478721 
L 323.566993 257.378513 
L 324.652794 258.966517 
L 325.738595 258.419006 
L 326.824396 259.463861 
L 327.910198 257.813482 
L 328.995999 257.175761 
L 330.0818 256.804101 
L 331.167601 257.725169 
L 333.339203 258.84324 
L 334.425005 257.574148 
L 336.596607 257.142852 
L 337.682408 256.487606 
L 338.768209 255.425347 
L 339.85401 253.768131 
L 340.939811 252.616585 
L 342.025613 252.408468 
L 343.111414 255.858798 
L 344.197215 256.636749 
L 345.283016 256.565025 
L 346.368817 256.147018 
L 347.454618 257.360304 
L 348.54042 256.42891 
L 349.626221 255.008334 
L 350.712022 257.817813 
L 352.883624 256.764652 
L 353.969425 258.048519 
L 355.055227 257.498744 
L 356.141028 255.648764 
L 357.226829 257.09899 
L 358.31263 256.553504 
L 360.484232 256.755726 
L 361.570033 256.567263 
L 362.655835 256.923592 
L 363.741636 256.754959 
L 364.827437 255.555799 
L 365.913238 254.952547 
L 366.999039 255.561517 
L 368.08484 256.999076 
L 369.170642 255.870989 
L 370.256443 257.543639 
L 371.342244 255.205025 
L 372.428045 255.739124 
L 373.513846 254.843086 
L 374.599647 255.429138 
L 375.685448 256.608534 
L 376.77125 257.087935 
L 377.857051 256.048965 
L 378.942852 256.664737 
L 380.028653 255.779111 
L 381.114454 256.004519 
L 383.286057 257.05184 
L 384.371858 256.25323 
L 385.457659 257.442953 
L 386.54346 256.095792 
L 387.629261 256.029364 
L 388.715062 257.071522 
L 389.800863 257.263086 
L 390.886665 256.489327 
L 391.972466 256.783317 
L 393.058267 256.914458 
L 394.144068 257.946619 
L 395.229869 256.721932 
L 396.31567 257.544648 
L 397.401472 256.391787 
L 398.487273 257.028815 
L 398.487273 257.028815 
" clip-path="url(#pfbbfbba1e0)" style="fill: none; stroke: #0000ff; stroke-width: 1.5; stroke-linecap: square"/>
   </g>
   <g id="line2d_30">
    <path d="M 73.832727 291.518401 
L 74.918528 287.111006 
L 76.00433 286.469637 
L 77.090131 286.789227 
L 78.175932 283.769252 
L 79.261733 283.259922 
L 80.347534 286.607691 
L 81.433335 281.848554 
L 83.604938 281.277966 
L 84.690739 281.352359 
L 85.77654 284.330017 
L 86.862341 282.536881 
L 87.948142 285.191514 
L 89.033943 281.273179 
L 90.119745 281.590807 
L 91.205546 280.348762 
L 92.291347 280.102711 
L 93.377148 280.187807 
L 94.462949 280.131782 
L 95.54875 283.923801 
L 96.634552 285.291056 
L 97.720353 284.165326 
L 98.806154 280.009403 
L 99.891955 280.63779 
L 100.977756 282.102659 
L 102.063557 282.987124 
L 103.149358 282.731803 
L 104.23516 285.737996 
L 105.320961 288.306119 
L 106.406762 288.877068 
L 108.578364 289.354205 
L 109.664165 288.42755 
L 110.749967 287.93888 
L 111.835768 287.833214 
L 112.921569 285.478813 
L 114.00737 288.053182 
L 115.093171 287.368233 
L 116.178972 286.859391 
L 117.264773 289.572199 
L 118.350575 289.034944 
L 119.436376 287.260983 
L 120.522177 286.172391 
L 121.607978 285.660284 
L 122.693779 286.036273 
L 123.77958 285.872124 
L 124.865382 286.016568 
L 125.951183 286.411743 
L 127.036984 286.532167 
L 128.122785 287.300965 
L 129.208586 288.394945 
L 130.294387 287.015738 
L 131.380189 287.140236 
L 132.46599 287.409012 
L 133.551791 286.170083 
L 134.637592 284.413473 
L 135.723393 287.8718 
L 136.809194 286.820845 
L 137.894995 284.91206 
L 138.980797 283.503198 
L 140.066598 285.013187 
L 141.152399 284.039466 
L 142.2382 284.748422 
L 143.324001 284.411328 
L 144.409802 283.627036 
L 145.495604 283.105731 
L 146.581405 284.182037 
L 147.667206 288.377837 
L 148.753007 284.24696 
L 149.838808 283.611127 
L 150.924609 286.027576 
L 152.01041 284.687048 
L 153.096212 290.186087 
L 154.182013 289.040837 
L 155.267814 285.568899 
L 156.353615 286.383675 
L 157.439416 289.499162 
L 158.525217 288.428441 
L 159.611019 287.161508 
L 160.69682 288.477788 
L 161.782621 289.118524 
L 162.868422 287.974815 
L 163.954223 287.1974 
L 165.040024 289.249225 
L 166.125825 287.068184 
L 167.211627 291.423138 
L 168.297428 289.975027 
L 169.383229 290.500603 
L 170.46903 288.495621 
L 171.554831 287.255844 
L 172.640632 291.675344 
L 173.726434 291.736298 
L 174.812235 290.410709 
L 175.898036 288.838615 
L 176.983837 289.118223 
L 178.069638 290.712944 
L 179.155439 291.064152 
L 180.24124 293.349414 
L 181.327042 290.745588 
L 182.412843 291.659708 
L 183.498644 295.488 
L 184.584445 293.795695 
L 185.670246 290.600803 
L 186.756047 290.717034 
L 187.841849 291.896206 
L 188.92765 290.47371 
L 190.013451 294.131191 
L 191.099252 294.061124 
L 192.185053 293.647048 
L 193.270854 294.364403 
L 194.356656 292.702355 
L 195.442457 293.686376 
L 196.528258 294.965763 
L 197.614059 293.531449 
L 198.69986 294.463509 
L 199.785661 290.834535 
L 200.871462 291.137206 
L 201.957264 291.30537 
L 203.043065 290.780946 
L 204.128866 288.365624 
L 205.214667 291.931421 
L 207.386269 287.648005 
L 208.472071 286.177778 
L 209.557872 285.992993 
L 210.643673 286.253151 
L 211.729474 287.043758 
L 212.815275 287.304305 
L 213.901076 289.306043 
L 214.986877 286.745856 
L 216.072679 282.68109 
L 217.15848 282.981033 
L 218.244281 282.847595 
L 219.330082 286.930847 
L 220.415883 282.208682 
L 221.501684 284.109946 
L 222.587486 286.367781 
L 223.673287 288.293344 
L 224.759088 285.908122 
L 225.844889 284.985109 
L 228.016491 287.460606 
L 230.188094 288.665943 
L 231.273895 288.132524 
L 232.359696 286.518239 
L 233.445497 284.519697 
L 234.531298 286.903554 
L 235.617099 285.946847 
L 236.702901 286.34211 
L 237.788702 287.623798 
L 238.874503 286.797354 
L 239.960304 288.201182 
L 241.046105 285.973935 
L 242.131906 286.375698 
L 243.217708 290.511696 
L 244.303509 290.403925 
L 245.38931 291.016281 
L 246.475111 292.61551 
L 247.560912 289.271686 
L 248.646713 290.667662 
L 249.732514 291.858929 
L 250.818316 290.174293 
L 251.904117 286.335339 
L 252.989918 290.184142 
L 254.075719 285.821708 
L 255.16152 287.768324 
L 256.247321 285.708474 
L 257.333123 290.453796 
L 258.418924 285.592617 
L 259.504725 282.219019 
L 260.590526 285.343982 
L 261.676327 286.234009 
L 262.762128 285.461855 
L 263.847929 286.506132 
L 264.933731 289.312169 
L 266.019532 287.206092 
L 267.105333 286.732325 
L 268.191134 287.99983 
L 269.276935 287.436999 
L 270.362736 287.277138 
L 271.448538 288.291679 
L 272.534339 288.138927 
L 273.62014 289.312066 
L 274.705941 288.699665 
L 275.791742 285.865482 
L 276.877543 286.891196 
L 277.963344 285.581685 
L 279.049146 284.702819 
L 280.134947 284.918876 
L 281.220748 286.983854 
L 282.306549 287.820576 
L 283.39235 285.908366 
L 284.478151 284.910445 
L 285.563953 285.42147 
L 286.649754 285.122779 
L 287.735555 287.89278 
L 288.821356 284.333932 
L 289.907157 282.299544 
L 290.992958 279.073116 
L 292.07876 282.50923 
L 293.164561 282.237701 
L 294.250362 280.035234 
L 295.336163 279.211326 
L 296.421964 282.963992 
L 297.507765 279.623127 
L 298.593566 280.164761 
L 299.679368 280.280538 
L 300.765169 279.651267 
L 301.85097 279.338487 
L 302.936771 280.50904 
L 304.022572 279.90148 
L 305.108373 283.384351 
L 306.194175 284.640903 
L 307.279976 279.384817 
L 308.365777 282.28094 
L 309.451578 280.362228 
L 310.537379 280.470868 
L 311.62318 280.363287 
L 312.708981 283.690589 
L 313.794783 282.221622 
L 314.880584 279.996836 
L 315.966385 279.89017 
L 317.052186 278.866429 
L 318.137987 279.680201 
L 319.223788 282.988101 
L 320.30959 281.840887 
L 323.566993 285.028144 
L 324.652794 280.11618 
L 325.738595 281.810618 
L 326.824396 280.673088 
L 327.910198 283.093326 
L 328.995999 286.05039 
L 330.0818 284.528893 
L 331.167601 284.039899 
L 332.253402 280.080892 
L 333.339203 280.85541 
L 334.425005 283.526935 
L 335.510806 284.980006 
L 336.596607 284.587697 
L 337.682408 287.224836 
L 338.768209 291.048747 
L 339.85401 291.197118 
L 340.939811 292.341422 
L 342.025613 292.499529 
L 343.111414 291.113334 
L 344.197215 289.074661 
L 345.283016 286.161635 
L 346.368817 288.400413 
L 347.454618 283.231462 
L 348.54042 288.80722 
L 349.626221 289.697136 
L 350.712022 283.58652 
L 351.797823 284.905205 
L 352.883624 282.992485 
L 353.969425 283.43005 
L 355.055227 283.123658 
L 356.141028 287.099165 
L 357.226829 284.843088 
L 358.31263 284.11086 
L 359.398431 286.480859 
L 360.484232 284.914783 
L 361.570033 286.427381 
L 362.655835 284.511587 
L 363.741636 284.345975 
L 364.827437 286.998926 
L 365.913238 286.943592 
L 368.08484 285.861615 
L 369.170642 287.840306 
L 370.256443 286.589434 
L 371.342244 287.358576 
L 372.428045 287.236016 
L 373.513846 290.459059 
L 374.599647 288.166949 
L 375.685448 286.47968 
L 376.77125 286.051427 
L 377.857051 288.311483 
L 378.942852 288.972259 
L 380.028653 287.896458 
L 381.114454 284.663456 
L 382.200255 285.215073 
L 383.286057 286.071001 
L 384.371858 287.45405 
L 385.457659 286.693638 
L 386.54346 287.199829 
L 387.629261 286.994301 
L 388.715062 286.100259 
L 389.800863 284.740134 
L 390.886665 285.946883 
L 391.972466 285.3046 
L 394.144068 283.340711 
L 395.229869 285.606261 
L 396.31567 282.714619 
L 397.401472 285.004456 
L 398.487273 286.043704 
L 398.487273 286.043704 
" clip-path="url(#pfbbfbba1e0)" style="fill: none; stroke-dasharray: 9.6,2.4,1.5,2.4; stroke-dashoffset: 0; stroke: #008000; stroke-width: 1.5"/>
   </g>
   <g id="line2d_31">
    <path d="M 73.832727 244.583836 
L 74.918528 245.191208 
L 76.00433 240.196482 
L 77.090131 234.200225 
L 78.175932 235.291578 
L 79.261733 234.958796 
L 80.347534 231.36082 
L 81.433335 235.761424 
L 82.519137 235.713056 
L 83.604938 234.338555 
L 84.690739 232.608882 
L 85.77654 229.243159 
L 86.862341 237.708099 
L 87.948142 231.572444 
L 89.033943 235.996739 
L 90.119745 233.57469 
L 91.205546 236.561297 
L 92.291347 234.731356 
L 93.377148 236.403035 
L 94.462949 236.403338 
L 95.54875 231.66285 
L 96.634552 227.989248 
L 97.720353 231.419954 
L 98.806154 235.653677 
L 99.891955 236.908816 
L 100.977756 233.603537 
L 102.063557 232.302116 
L 103.149358 231.348912 
L 104.23516 227.591245 
L 105.320961 222.421208 
L 106.406762 225.242164 
L 107.492563 222.974408 
L 108.578364 222.641422 
L 109.664165 225.019363 
L 111.835768 223.665763 
L 112.921569 227.609483 
L 114.00737 224.592371 
L 115.093171 224.71232 
L 116.178972 224.295568 
L 117.264773 219.461576 
L 118.350575 217.793256 
L 119.436376 225.074724 
L 120.522177 225.192817 
L 121.607978 226.817711 
L 122.693779 224.739113 
L 123.77958 224.591134 
L 124.865382 224.809772 
L 125.951183 225.241666 
L 127.036984 225.27318 
L 128.122785 225.839712 
L 129.208586 222.535648 
L 130.294387 225.982745 
L 132.46599 225.54414 
L 133.551791 226.813427 
L 134.637592 229.98063 
L 135.723393 225.417095 
L 136.809194 225.664248 
L 137.894995 229.897963 
L 140.066598 229.776137 
L 142.2382 229.062284 
L 143.324001 229.710469 
L 144.409802 232.556151 
L 145.495604 233.001802 
L 146.581405 229.23395 
L 147.667206 223.998679 
L 148.753007 231.247315 
L 149.838808 230.82383 
L 150.924609 227.412952 
L 152.01041 229.573003 
L 153.096212 217.611394 
L 154.182013 224.666672 
L 155.267814 229.185438 
L 156.353615 228.329484 
L 157.439416 220.281997 
L 158.525217 222.189141 
L 159.611019 227.408043 
L 160.69682 223.747703 
L 161.782621 223.063625 
L 162.868422 223.648321 
L 163.954223 225.645899 
L 165.040024 221.566674 
L 166.125825 223.761169 
L 167.211627 215.695035 
L 168.297428 220.459316 
L 169.383229 220.446561 
L 170.46903 221.167853 
L 171.554831 225.091179 
L 172.640632 217.188318 
L 173.726434 216.222049 
L 174.812235 216.286391 
L 175.898036 223.156774 
L 176.983837 218.389567 
L 178.069638 215.868553 
L 179.155439 214.038455 
L 180.24124 210.271487 
L 181.327042 216.847684 
L 182.412843 216.525798 
L 183.498644 204.174148 
L 184.584445 210.383713 
L 185.670246 220.596717 
L 186.756047 218.726924 
L 187.841849 214.612174 
L 188.92765 219.352023 
L 190.013451 208.668814 
L 191.099252 214.626994 
L 192.185053 214.20853 
L 193.270854 214.194723 
L 195.442457 209.24301 
L 196.528258 209.444775 
L 197.614059 214.763937 
L 198.69986 207.881936 
L 199.785661 219.788426 
L 200.871462 217.539417 
L 201.957264 221.177246 
L 203.043065 218.078635 
L 204.128866 224.075429 
L 205.214667 215.666161 
L 206.300468 220.925758 
L 207.386269 222.916682 
L 208.472071 227.226493 
L 209.557872 226.237459 
L 210.643673 227.021429 
L 211.729474 224.098672 
L 212.815275 223.278583 
L 213.901076 223.265892 
L 214.986877 227.224803 
L 216.072679 232.370309 
L 217.15848 232.654976 
L 218.244281 232.451305 
L 219.330082 225.600217 
L 220.415883 231.264652 
L 221.501684 231.040812 
L 222.587486 224.371089 
L 223.673287 223.04294 
L 224.759088 228.218576 
L 225.844889 229.752005 
L 226.93069 228.526787 
L 228.016491 225.612596 
L 229.102292 224.441151 
L 230.188094 224.100353 
L 231.273895 222.485734 
L 232.359696 225.289591 
L 233.445497 229.65195 
L 234.531298 225.003169 
L 236.702901 225.040169 
L 237.788702 222.965919 
L 238.874503 225.358213 
L 239.960304 223.235466 
L 241.046105 225.135488 
L 242.131906 224.735309 
L 243.217708 216.373987 
L 244.303509 216.400398 
L 245.38931 215.98387 
L 246.475111 210.814649 
L 247.560912 220.054682 
L 248.646713 216.828308 
L 249.732514 215.794934 
L 250.818316 218.19977 
L 251.904117 225.064295 
L 252.989918 217.973114 
L 254.075719 227.933102 
L 255.16152 223.368163 
L 256.247321 227.853162 
L 257.333123 217.202861 
L 258.418924 229.765461 
L 259.504725 232.033701 
L 260.590526 227.690266 
L 261.676327 228.03346 
L 262.762128 227.715088 
L 263.847929 224.970846 
L 264.933731 220.029917 
L 266.019532 223.419804 
L 267.105333 223.25807 
L 268.191134 224.029123 
L 269.276935 223.47895 
L 270.362736 223.380995 
L 271.448538 223.915395 
L 272.534339 223.993298 
L 273.62014 221.773588 
L 274.705941 219.957689 
L 275.791742 227.841853 
L 276.877543 224.891313 
L 277.963344 227.825764 
L 279.049146 227.279464 
L 280.134947 227.376777 
L 281.220748 225.188185 
L 282.306549 223.622614 
L 283.39235 227.842775 
L 284.478151 227.422193 
L 285.563953 227.889494 
L 286.649754 227.498429 
L 287.735555 223.478621 
L 289.907157 234.580143 
L 290.992958 237.70598 
L 292.07876 233.003087 
L 293.164561 235.09344 
L 294.250362 237.969877 
L 295.336163 237.764653 
L 296.421964 232.719854 
L 297.507765 237.961466 
L 298.593566 238.222185 
L 299.679368 238.232021 
L 300.765169 237.886143 
L 301.85097 237.677027 
L 302.936771 238.268934 
L 304.022572 237.914143 
L 305.108373 232.555084 
L 306.194175 232.22155 
L 307.279976 237.52586 
L 308.365777 233.222434 
L 309.451578 236.324339 
L 310.537379 236.143038 
L 311.62318 238.245933 
L 312.708981 232.978795 
L 313.794783 234.469414 
L 314.880584 236.924958 
L 315.966385 237.897555 
L 317.052186 237.366774 
L 318.137987 237.709992 
L 319.223788 232.768789 
L 320.30959 233.771996 
L 322.481192 231.152596 
L 323.566993 229.728882 
L 324.652794 237.816854 
L 325.738595 235.027393 
L 326.824396 238.254635 
L 327.910198 232.533637 
L 328.995999 228.301132 
L 330.0818 229.079309 
L 331.167601 231.41044 
L 332.253402 236.497294 
L 333.339203 236.831071 
L 334.425005 231.621361 
L 335.510806 229.645577 
L 336.596607 229.698008 
L 337.682408 225.750376 
L 338.768209 219.801948 
L 340.939811 212.891749 
L 342.025613 212.317408 
L 343.111414 220.604263 
L 344.197215 224.198836 
L 345.283016 226.968415 
L 346.368817 223.893623 
L 347.454618 231.489145 
L 348.54042 224.0506 
L 349.626221 220.319532 
L 350.712022 232.049105 
L 351.797823 229.665468 
L 352.883624 230.536818 
L 353.969425 232.666989 
L 355.055227 231.87383 
L 356.141028 224.198364 
L 357.226829 229.354891 
L 358.31263 228.996148 
L 359.398431 226.825045 
L 360.484232 228.596669 
L 361.570033 226.707145 
L 362.655835 229.335597 
L 363.741636 229.163942 
L 364.827437 224.112671 
L 365.913238 222.961502 
L 366.999039 224.709218 
L 368.08484 228.136536 
L 369.170642 223.901672 
L 370.256443 228.497843 
L 371.342244 223.051474 
L 372.428045 224.242232 
L 373.513846 219.227113 
L 374.599647 222.691328 
L 375.685448 226.737387 
L 376.77125 228.124443 
L 377.857051 223.786447 
L 378.942852 224.357214 
L 380.028653 223.661764 
L 381.114454 227.345582 
L 382.200255 227.748814 
L 383.286057 228.032679 
L 384.371858 225.05241 
L 385.457659 228.192268 
L 386.54346 224.991756 
L 387.629261 225.064427 
L 388.715062 228.042786 
L 389.800863 229.786038 
L 390.886665 227.031771 
L 393.058267 229.483328 
L 394.144068 232.552527 
L 395.229869 227.837602 
L 396.31567 232.374677 
L 397.401472 227.779118 
L 398.487273 228.013925 
L 398.487273 228.013925 
" clip-path="url(#pfbbfbba1e0)" style="fill: none; stroke-dasharray: 9.6,2.4,1.5,2.4; stroke-dashoffset: 0; stroke: #008000; stroke-width: 1.5"/>
   </g>
   <g id="line2d_32">
    <path d="M 73.832727 60.277493 
L 104.23516 60.277493 
L 105.320961 58.685981 
L 109.664165 58.685981 
L 110.749967 57.599804 
L 195.442457 57.599804 
L 196.528258 55.619868 
L 197.614059 55.619868 
L 198.69986 55.459814 
L 286.649754 55.459814 
L 287.735555 55.053398 
L 330.0818 55.053398 
L 331.167601 53.568 
L 398.487273 53.568 
L 398.487273 53.568 
" clip-path="url(#pfbbfbba1e0)" style="fill: none; stroke: #ff0000; stroke-width: 1.5; stroke-linecap: square"/>
   </g>
   <g id="patch_3">
    <path d="M 57.6 307.584 
L 57.6 41.472 
" style="fill: none; stroke: #000000; stroke-width: 0.8; stroke-linejoin: miter; stroke-linecap: square"/>
   </g>
   <g id="patch_4">
    <path d="M 414.72 307.584 
L 414.72 41.472 
" style="fill: none; stroke: #000000; stroke-width: 0.8; stroke-linejoin: miter; stroke-linecap: square"/>
   </g>
   <g id="patch_5">
    <path d="M 57.6 307.584 
L 414.72 307.584 
" style="fill: none; stroke: #000000; stroke-width: 0.8; stroke-linejoin: miter; stroke-linecap: square"/>
   </g>
   <g id="patch_6">
    <path d="M 57.6 41.472 
L 414.72 41.472 
" style="fill: none; stroke: #000000; stroke-width: 0.8; stroke-linejoin: miter; stroke-linecap: square"/>
   </g>
   <g id="text_17">
    <!-- Population's average and best fitness -->
    <g transform="translate(123.529687 35.472) scale(0.12 -0.12)">
     <defs>
      <path id="DejaVuSans-50" d="M 1259 4147 
L 1259 2394 
L 2053 2394 
Q 2494 2394 2734 2622 
Q 2975 2850 2975 3272 
Q 2975 3691 2734 3919 
Q 2494 4147 2053 4147 
L 1259 4147 
z
M 628 4666 
L 2053 4666 
Q 2838 4666 3239 4311 
Q 3641 3956 3641 3272 
Q 3641 2581 3239 2228 
Q 2838 1875 2053 1875 
L 1259 1875 
L 1259 0 
L 628 0 
L 628 4666 
z
" transform="scale(0.015625)"/>
      <path id="DejaVuSans-70" d="M 1159 525 
L 1159 -1331 
L 581 -1331 
L 581 3500 
L 1159 3500 
L 1159 2969 
Q 1341 3281 1617 3432 
Q 1894 3584 2278 3584 
Q 2916 3584 3314 3078 
Q 3713 2572 3713 1747 
Q 3713 922 3314 415 
Q 2916 -91 2278 -91 
Q 1894 -91 1617 61 
Q 1341 213 1159 525 
z
M 3116 1747 
Q 3116 2381 2855 2742 
Q 2594 3103 2138 3103 
Q 1681 3103 1420 2742 
Q 1159 2381 1159 1747 
Q 1159 1113 1420 752 
Q 1681 391 2138 391 
Q 2594 391 2855 752 
Q 3116 1113 3116 1747 
z
" transform="scale(0.015625)"/>
      <path id="DejaVuSans-75" d="M 544 1381 
L 544 3500 
L 1119 3500 
L 1119 1403 
Q 1119 906 1312 657 
Q 1506 409 1894 409 
Q 2359 409 2629 706 
Q 2900 1003 2900 1516 
L 2900 3500 
L 3475 3500 
L 3475 0 
L 2900 0 
L 2900 538 
Q 2691 219 2414 64 
Q 2138 -91 1772 -91 
Q 1169 -91 856 284 
Q 544 659 544 1381 
z
M 1991 3584 
L 1991 3584 
z
" transform="scale(0.015625)"/>
      <path id="DejaVuSans-6c" d="M 603 4863 
L 1178 4863 
L 1178 0 
L 603 0 
L 603 4863 
z
" transform="scale(0.015625)"/>
      <path id="DejaVuSans-27" d="M 1147 4666 
L 1147 2931 
L 616 2931 
L 616 4666 
L 1147 4666 
z
" transform="scale(0.015625)"/>
      <path id="DejaVuSans-20" transform="scale(0.015625)"/>
      <path id="DejaVuSans-76" d="M 191 3500 
L 800 3500 
L 1894 563 
L 2988 3500 
L 3597 3500 
L 2284 0 
L 1503 0 
L 191 3500 
z
" transform="scale(0.015625)"/>
      <path id="DejaVuSans-67" d="M 2906 1791 
Q 2906 2416 2648 2759 
Q 2391 3103 1925 3103 
Q 1463 3103 1205 2759 
Q 947 2416 947 1791 
Q 947 1169 1205 825 
Q 1463 481 1925 481 
Q 2391 481 2648 825 
Q 2906 1169 2906 1791 
z
M 3481 434 
Q 3481 -459 3084 -895 
Q 2688 -1331 1869 -1331 
Q 1566 -1331 1297 -1286 
Q 1028 -1241 775 -1147 
L 775 -588 
Q 1028 -725 1275 -790 
Q 1522 -856 1778 -856 
Q 2344 -856 2625 -561 
Q 2906 -266 2906 331 
L 2906 616 
Q 2728 306 2450 153 
Q 2172 0 1784 0 
Q 1141 0 747 490 
Q 353 981 353 1791 
Q 353 2603 747 3093 
Q 1141 3584 1784 3584 
Q 2172 3584 2450 3431 
Q 2728 3278 2906 2969 
L 2906 3500 
L 3481 3500 
L 3481 434 
z
" transform="scale(0.015625)"/>
      <path id="DejaVuSans-64" d="M 2906 2969 
L 2906 4863 
L 3481 4863 
L 3481 0 
L 2906 0 
L 2906 525 
Q 2725 213 2448 61 
Q 2172 -91 1784 -91 
Q 1150 -91 751 415 
Q 353 922 353 1747 
Q 353 2572 751 3078 
Q 1150 3584 1784 3584 
Q 2172 3584 2448 3432 
Q 2725 3281 2906 2969 
z
M 947 1747 
Q 947 1113 1208 752 
Q 1469 391 1925 391 
Q 2381 391 2643 752 
Q 2906 1113 2906 1747 
Q 2906 2381 2643 2742 
Q 2381 3103 1925 3103 
Q 1469 3103 1208 2742 
Q 947 2381 947 1747 
z
" transform="scale(0.015625)"/>
      <path id="DejaVuSans-62" d="M 3116 1747 
Q 3116 2381 2855 2742 
Q 2594 3103 2138 3103 
Q 1681 3103 1420 2742 
Q 1159 2381 1159 1747 
Q 1159 1113 1420 752 
Q 1681 391 2138 391 
Q 2594 391 2855 752 
Q 3116 1113 3116 1747 
z
M 1159 2969 
Q 1341 3281 1617 3432 
Q 1894 3584 2278 3584 
Q 2916 3584 3314 3078 
Q 3713 2572 3713 1747 
Q 3713 922 3314 415 
Q 2916 -91 2278 -91 
Q 1894 -91 1617 61 
Q 1341 213 1159 525 
L 1159 0 
L 581 0 
L 581 4863 
L 1159 4863 
L 1159 2969 
z
" transform="scale(0.015625)"/>
      <path id="DejaVuSans-66" d="M 2375 4863 
L 2375 4384 
L 1825 4384 
Q 1516 4384 1395 4259 
Q 1275 4134 1275 3809 
L 1275 3500 
L 2222 3500 
L 2222 3053 
L 1275 3053 
L 1275 0 
L 697 0 
L 697 3053 
L 147 3053 
L 147 3500 
L 697 3500 
L 697 3744 
Q 697 4328 969 4595 
Q 1241 4863 1831 4863 
L 2375 4863 
z
" transform="scale(0.015625)"/>
     </defs>
     <use xlink:href="#DejaVuSans-50"/>
     <use xlink:href="#DejaVuSans-6f" x="56.677734"/>
     <use xlink:href="#DejaVuSans-70" x="117.859375"/>
     <use xlink:href="#DejaVuSans-75" x="181.335938"/>
     <use xlink:href="#DejaVuSans-6c" x="244.714844"/>
     <use xlink:href="#DejaVuSans-61" x="272.498047"/>
     <use xlink:href="#DejaVuSans-74" x="333.777344"/>
     <use xlink:href="#DejaVuSans-69" x="372.986328"/>
     <use xlink:href="#DejaVuSans-6f" x="400.769531"/>
     <use xlink:href="#DejaVuSans-6e" x="461.951172"/>
     <use xlink:href="#DejaVuSans-27" x="525.330078"/>
     <use xlink:href="#DejaVuSans-73" x="552.820312"/>
     <use xlink:href="#DejaVuSans-20" x="604.919922"/>
     <use xlink:href="#DejaVuSans-61" x="636.707031"/>
     <use xlink:href="#DejaVuSans-76" x="697.986328"/>
     <use xlink:href="#DejaVuSans-65" x="757.166016"/>
     <use xlink:href="#DejaVuSans-72" x="818.689453"/>
     <use xlink:href="#DejaVuSans-61" x="859.802734"/>
     <use xlink:href="#DejaVuSans-67" x="921.082031"/>
     <use xlink:href="#DejaVuSans-65" x="984.558594"/>
     <use xlink:href="#DejaVuSans-20" x="1046.082031"/>
     <use xlink:href="#DejaVuSans-61" x="1077.869141"/>
     <use xlink:href="#DejaVuSans-6e" x="1139.148438"/>
     <use xlink:href="#DejaVuSans-64" x="1202.527344"/>
     <use xlink:href="#DejaVuSans-20" x="1266.003906"/>
     <use xlink:href="#DejaVuSans-62" x="1297.791016"/>
     <use xlink:href="#DejaVuSans-65" x="1361.267578"/>
     <use xlink:href="#DejaVuSans-73" x="1422.791016"/>
     <use xlink:href="#DejaVuSans-74" x="1474.890625"/>
     <use xlink:href="#DejaVuSans-20" x="1514.099609"/>
     <use xlink:href="#DejaVuSans-66" x="1545.886719"/>
     <use xlink:href="#DejaVuSans-69" x="1581.091797"/>
     <use xlink:href="#DejaVuSans-74" x="1608.875"/>
     <use xlink:href="#DejaVuSans-6e" x="1648.083984"/>
     <use xlink:href="#DejaVuSans-65" x="1711.462891"/>
     <use xlink:href="#DejaVuSans-73" x="1772.986328"/>
     <use xlink:href="#DejaVuSans-73" x="1825.085938"/>
    </g>
   </g>
   <g id="legend_1">
    <g id="patch_7">
     <path d="M 334.779375 205.38425 
L 407.72 205.38425 
Q 409.72 205.38425 409.72 203.38425 
L 409.72 145.67175 
Q 409.72 143.67175 407.72 143.67175 
L 334.779375 143.67175 
Q 332.779375 143.67175 332.779375 145.67175 
L 332.779375 203.38425 
Q 332.779375 205.38425 334.779375 205.38425 
z
" style="fill: #ffffff; opacity: 0.8; stroke: #cccccc; stroke-linejoin: miter"/>
    </g>
    <g id="line2d_33">
     <path d="M 336.779375 151.770188 
L 346.779375 151.770188 
L 356.779375 151.770188 
" style="fill: none; stroke: #0000ff; stroke-width: 1.5; stroke-linecap: square"/>
    </g>
    <g id="text_18">
     <!-- average -->
     <g transform="translate(364.779375 155.270188) scale(0.1 -0.1)">
      <use xlink:href="#DejaVuSans-61"/>
      <use xlink:href="#DejaVuSans-76" x="61.279297"/>
      <use xlink:href="#DejaVuSans-65" x="120.458984"/>
      <use xlink:href="#DejaVuSans-72" x="181.982422"/>
      <use xlink:href="#DejaVuSans-61" x="223.095703"/>
      <use xlink:href="#DejaVuSans-67" x="284.375"/>
      <use xlink:href="#DejaVuSans-65" x="347.851562"/>
     </g>
    </g>
    <g id="line2d_34">
     <path d="M 336.779375 166.448313 
L 346.779375 166.448313 
L 356.779375 166.448313 
" style="fill: none; stroke-dasharray: 9.6,2.4,1.5,2.4; stroke-dashoffset: 0; stroke: #008000; stroke-width: 1.5"/>
    </g>
    <g id="text_19">
     <!-- -1 sd -->
     <g transform="translate(364.779375 169.948313) scale(0.1 -0.1)">
      <defs>
       <path id="DejaVuSans-2d" d="M 313 2009 
L 1997 2009 
L 1997 1497 
L 313 1497 
L 313 2009 
z
" transform="scale(0.015625)"/>
      </defs>
      <use xlink:href="#DejaVuSans-2d"/>
      <use xlink:href="#DejaVuSans-31" x="36.083984"/>
      <use xlink:href="#DejaVuSans-20" x="99.707031"/>
      <use xlink:href="#DejaVuSans-73" x="131.494141"/>
      <use xlink:href="#DejaVuSans-64" x="183.59375"/>
     </g>
    </g>
    <g id="line2d_35">
     <path d="M 336.779375 181.126438 
L 346.779375 181.126438 
L 356.779375 181.126438 
" style="fill: none; stroke-dasharray: 9.6,2.4,1.5,2.4; stroke-dashoffset: 0; stroke: #008000; stroke-width: 1.5"/>
    </g>
    <g id="text_20">
     <!-- +1 sd -->
     <g transform="translate(364.779375 184.626438) scale(0.1 -0.1)">
      <defs>
       <path id="DejaVuSans-2b" d="M 2944 4013 
L 2944 2272 
L 4684 2272 
L 4684 1741 
L 2944 1741 
L 2944 0 
L 2419 0 
L 2419 1741 
L 678 1741 
L 678 2272 
L 2419 2272 
L 2419 4013 
L 2944 4013 
z
" transform="scale(0.015625)"/>
      </defs>
      <use xlink:href="#DejaVuSans-2b"/>
      <use xlink:href="#DejaVuSans-31" x="83.789062"/>
      <use xlink:href="#DejaVuSans-20" x="147.412109"/>
      <use xlink:href="#DejaVuSans-73" x="179.199219"/>
      <use xlink:href="#DejaVuSans-64" x="231.298828"/>
     </g>
    </g>
    <g id="line2d_36">
     <path d="M 336.779375 195.804563 
L 346.779375 195.804563 
L 356.779375 195.804563 
" style="fill: none; stroke: #ff0000; stroke-width: 1.5; stroke-linecap: square"/>
    </g>
    <g id="text_21">
     <!-- best -->
     <g transform="translate(364.779375 199.304563) scale(0.1 -0.1)">
      <use xlink:href="#DejaVuSans-62"/>
      <use xlink:href="#DejaVuSans-65" x="63.476562"/>
      <use xlink:href="#DejaVuSans-73" x="125"/>
      <use xlink:href="#DejaVuSans-74" x="177.099609"/>
     </g>
    </g>
   </g>
  </g>
 </g>
 <defs>
  <clipPath id="pfbbfbba1e0">
   <rect x="57.6" y="41.472" width="357.12" height="266.112"/>
  </clipPath>
 </defs>
</svg>
