<?xml version="1.0" encoding="utf-8" standalone="no"?>
<!DOCTYPE svg PUBLIC "-//W3C//DTD SVG 1.1//EN"
  "http://www.w3.org/Graphics/SVG/1.1/DTD/svg11.dtd">
<svg xmlns:xlink="http://www.w3.org/1999/xlink" width="460.8pt" height="345.6pt" viewBox="0 0 460.8 345.6" xmlns="http://www.w3.org/2000/svg" version="1.1">
 <metadata>
  <rdf:RDF xmlns:dc="http://purl.org/dc/elements/1.1/" xmlns:cc="http://creativecommons.org/ns#" xmlns:rdf="http://www.w3.org/1999/02/22-rdf-syntax-ns#">
   <cc:Work>
    <dc:type rdf:resource="http://purl.org/dc/dcmitype/StillImage"/>
    <dc:date>2024-08-02T01:38:30.570791</dc:date>
    <dc:format>image/svg+xml</dc:format>
    <dc:creator>
     <cc:Agent>
      <dc:title>Matplotlib v3.8.4, https://matplotlib.org/</dc:title>
     </cc:Agent>
    </dc:creator>
   </cc:Work>
  </rdf:RDF>
 </metadata>
 <defs>
  <style type="text/css">*{stroke-linejoin: round; stroke-linecap: butt}</style>
 </defs>
 <g id="figure_1">
  <g id="patch_1">
   <path d="M 0 345.6 
L 460.8 345.6 
L 460.8 0 
L 0 0 
z
" style="fill: #ffffff"/>
  </g>
  <g id="axes_1">
   <g id="patch_2">
    <path d="M 57.6 307.584 
L 414.72 307.584 
L 414.72 41.472 
L 57.6 41.472 
z
" style="fill: #ffffff"/>
   </g>
   <g id="matplotlib.axis_1">
    <g id="xtick_1">
     <g id="line2d_1">
      <path d="M 73.832727 307.584 
L 73.832727 41.472 
" clip-path="url(#p5dfbb6d2ee)" style="fill: none; stroke: #b0b0b0; stroke-width: 0.8; stroke-linecap: square"/>
     </g>
     <g id="line2d_2">
      <defs>
       <path id="m62d4b62f67" d="M 0 0 
L 0 3.5 
" style="stroke: #000000; stroke-width: 0.8"/>
      </defs>
      <g>
       <use xlink:href="#m62d4b62f67" x="73.832727" y="307.584" style="stroke: #000000; stroke-width: 0.8"/>
      </g>
     </g>
     <g id="text_1">
      <!-- 0 -->
      <g transform="translate(70.651477 322.182437) scale(0.1 -0.1)">
       <defs>
        <path id="DejaVuSans-30" d="M 2034 4250 
Q 1547 4250 1301 3770 
Q 1056 3291 1056 2328 
Q 1056 1369 1301 889 
Q 1547 409 2034 409 
Q 2525 409 2770 889 
Q 3016 1369 3016 2328 
Q 3016 3291 2770 3770 
Q 2525 4250 2034 4250 
z
M 2034 4750 
Q 2819 4750 3233 4129 
Q 3647 3509 3647 2328 
Q 3647 1150 3233 529 
Q 2819 -91 2034 -91 
Q 1250 -91 836 529 
Q 422 1150 422 2328 
Q 422 3509 836 4129 
Q 1250 4750 2034 4750 
z
" transform="scale(0.015625)"/>
       </defs>
       <use xlink:href="#DejaVuSans-30"/>
      </g>
     </g>
    </g>
    <g id="xtick_2">
     <g id="line2d_3">
      <path d="M 114.618474 307.584 
L 114.618474 41.472 
" clip-path="url(#p5dfbb6d2ee)" style="fill: none; stroke: #b0b0b0; stroke-width: 0.8; stroke-linecap: square"/>
     </g>
     <g id="line2d_4">
      <g>
       <use xlink:href="#m62d4b62f67" x="114.618474" y="307.584" style="stroke: #000000; stroke-width: 0.8"/>
      </g>
     </g>
     <g id="text_2">
      <!-- 25 -->
      <g transform="translate(108.255974 322.182437) scale(0.1 -0.1)">
       <defs>
        <path id="DejaVuSans-32" d="M 1228 531 
L 3431 531 
L 3431 0 
L 469 0 
L 469 531 
Q 828 903 1448 1529 
Q 2069 2156 2228 2338 
Q 2531 2678 2651 2914 
Q 2772 3150 2772 3378 
Q 2772 3750 2511 3984 
Q 2250 4219 1831 4219 
Q 1534 4219 1204 4116 
Q 875 4013 500 3803 
L 500 4441 
Q 881 4594 1212 4672 
Q 1544 4750 1819 4750 
Q 2544 4750 2975 4387 
Q 3406 4025 3406 3419 
Q 3406 3131 3298 2873 
Q 3191 2616 2906 2266 
Q 2828 2175 2409 1742 
Q 1991 1309 1228 531 
z
" transform="scale(0.015625)"/>
        <path id="DejaVuSans-35" d="M 691 4666 
L 3169 4666 
L 3169 4134 
L 1269 4134 
L 1269 2991 
Q 1406 3038 1543 3061 
Q 1681 3084 1819 3084 
Q 2600 3084 3056 2656 
Q 3513 2228 3513 1497 
Q 3513 744 3044 326 
Q 2575 -91 1722 -91 
Q 1428 -91 1123 -41 
Q 819 9 494 109 
L 494 744 
Q 775 591 1075 516 
Q 1375 441 1709 441 
Q 2250 441 2565 725 
Q 2881 1009 2881 1497 
Q 2881 1984 2565 2268 
Q 2250 2553 1709 2553 
Q 1456 2553 1204 2497 
Q 953 2441 691 2322 
L 691 4666 
z
" transform="scale(0.015625)"/>
       </defs>
       <use xlink:href="#DejaVuSans-32"/>
       <use xlink:href="#DejaVuSans-35" x="63.623047"/>
      </g>
     </g>
    </g>
    <g id="xtick_3">
     <g id="line2d_5">
      <path d="M 155.404221 307.584 
L 155.404221 41.472 
" clip-path="url(#p5dfbb6d2ee)" style="fill: none; stroke: #b0b0b0; stroke-width: 0.8; stroke-linecap: square"/>
     </g>
     <g id="line2d_6">
      <g>
       <use xlink:href="#m62d4b62f67" x="155.404221" y="307.584" style="stroke: #000000; stroke-width: 0.8"/>
      </g>
     </g>
     <g id="text_3">
      <!-- 50 -->
      <g transform="translate(149.041721 322.182437) scale(0.1 -0.1)">
       <use xlink:href="#DejaVuSans-35"/>
       <use xlink:href="#DejaVuSans-30" x="63.623047"/>
      </g>
     </g>
    </g>
    <g id="xtick_4">
     <g id="line2d_7">
      <path d="M 196.189968 307.584 
L 196.189968 41.472 
" clip-path="url(#p5dfbb6d2ee)" style="fill: none; stroke: #b0b0b0; stroke-width: 0.8; stroke-linecap: square"/>
     </g>
     <g id="line2d_8">
      <g>
       <use xlink:href="#m62d4b62f67" x="196.189968" y="307.584" style="stroke: #000000; stroke-width: 0.8"/>
      </g>
     </g>
     <g id="text_4">
      <!-- 75 -->
      <g transform="translate(189.827468 322.182437) scale(0.1 -0.1)">
       <defs>
        <path id="DejaVuSans-37" d="M 525 4666 
L 3525 4666 
L 3525 4397 
L 1831 0 
L 1172 0 
L 2766 4134 
L 525 4134 
L 525 4666 
z
" transform="scale(0.015625)"/>
       </defs>
       <use xlink:href="#DejaVuSans-37"/>
       <use xlink:href="#DejaVuSans-35" x="63.623047"/>
      </g>
     </g>
    </g>
    <g id="xtick_5">
     <g id="line2d_9">
      <path d="M 236.975715 307.584 
L 236.975715 41.472 
" clip-path="url(#p5dfbb6d2ee)" style="fill: none; stroke: #b0b0b0; stroke-width: 0.8; stroke-linecap: square"/>
     </g>
     <g id="line2d_10">
      <g>
       <use xlink:href="#m62d4b62f67" x="236.975715" y="307.584" style="stroke: #000000; stroke-width: 0.8"/>
      </g>
     </g>
     <g id="text_5">
      <!-- 100 -->
      <g transform="translate(227.431965 322.182437) scale(0.1 -0.1)">
       <defs>
        <path id="DejaVuSans-31" d="M 794 531 
L 1825 531 
L 1825 4091 
L 703 3866 
L 703 4441 
L 1819 4666 
L 2450 4666 
L 2450 531 
L 3481 531 
L 3481 0 
L 794 0 
L 794 531 
z
" transform="scale(0.015625)"/>
       </defs>
       <use xlink:href="#DejaVuSans-31"/>
       <use xlink:href="#DejaVuSans-30" x="63.623047"/>
       <use xlink:href="#DejaVuSans-30" x="127.246094"/>
      </g>
     </g>
    </g>
    <g id="xtick_6">
     <g id="line2d_11">
      <path d="M 277.761462 307.584 
L 277.761462 41.472 
" clip-path="url(#p5dfbb6d2ee)" style="fill: none; stroke: #b0b0b0; stroke-width: 0.8; stroke-linecap: square"/>
     </g>
     <g id="line2d_12">
      <g>
       <use xlink:href="#m62d4b62f67" x="277.761462" y="307.584" style="stroke: #000000; stroke-width: 0.8"/>
      </g>
     </g>
     <g id="text_6">
      <!-- 125 -->
      <g transform="translate(268.217712 322.182437) scale(0.1 -0.1)">
       <use xlink:href="#DejaVuSans-31"/>
       <use xlink:href="#DejaVuSans-32" x="63.623047"/>
       <use xlink:href="#DejaVuSans-35" x="127.246094"/>
      </g>
     </g>
    </g>
    <g id="xtick_7">
     <g id="line2d_13">
      <path d="M 318.547209 307.584 
L 318.547209 41.472 
" clip-path="url(#p5dfbb6d2ee)" style="fill: none; stroke: #b0b0b0; stroke-width: 0.8; stroke-linecap: square"/>
     </g>
     <g id="line2d_14">
      <g>
       <use xlink:href="#m62d4b62f67" x="318.547209" y="307.584" style="stroke: #000000; stroke-width: 0.8"/>
      </g>
     </g>
     <g id="text_7">
      <!-- 150 -->
      <g transform="translate(309.003459 322.182437) scale(0.1 -0.1)">
       <use xlink:href="#DejaVuSans-31"/>
       <use xlink:href="#DejaVuSans-35" x="63.623047"/>
       <use xlink:href="#DejaVuSans-30" x="127.246094"/>
      </g>
     </g>
    </g>
    <g id="xtick_8">
     <g id="line2d_15">
      <path d="M 359.332956 307.584 
L 359.332956 41.472 
" clip-path="url(#p5dfbb6d2ee)" style="fill: none; stroke: #b0b0b0; stroke-width: 0.8; stroke-linecap: square"/>
     </g>
     <g id="line2d_16">
      <g>
       <use xlink:href="#m62d4b62f67" x="359.332956" y="307.584" style="stroke: #000000; stroke-width: 0.8"/>
      </g>
     </g>
     <g id="text_8">
      <!-- 175 -->
      <g transform="translate(349.789206 322.182437) scale(0.1 -0.1)">
       <use xlink:href="#DejaVuSans-31"/>
       <use xlink:href="#DejaVuSans-37" x="63.623047"/>
       <use xlink:href="#DejaVuSans-35" x="127.246094"/>
      </g>
     </g>
    </g>
    <g id="xtick_9">
     <g id="line2d_17">
      <path d="M 400.118703 307.584 
L 400.118703 41.472 
" clip-path="url(#p5dfbb6d2ee)" style="fill: none; stroke: #b0b0b0; stroke-width: 0.8; stroke-linecap: square"/>
     </g>
     <g id="line2d_18">
      <g>
       <use xlink:href="#m62d4b62f67" x="400.118703" y="307.584" style="stroke: #000000; stroke-width: 0.8"/>
      </g>
     </g>
     <g id="text_9">
      <!-- 200 -->
      <g transform="translate(390.574953 322.182437) scale(0.1 -0.1)">
       <use xlink:href="#DejaVuSans-32"/>
       <use xlink:href="#DejaVuSans-30" x="63.623047"/>
       <use xlink:href="#DejaVuSans-30" x="127.246094"/>
      </g>
     </g>
    </g>
    <g id="text_10">
     <!-- Generations -->
     <g transform="translate(205.662344 335.860562) scale(0.1 -0.1)">
      <defs>
       <path id="DejaVuSans-47" d="M 3809 666 
L 3809 1919 
L 2778 1919 
L 2778 2438 
L 4434 2438 
L 4434 434 
Q 4069 175 3628 42 
Q 3188 -91 2688 -91 
Q 1594 -91 976 548 
Q 359 1188 359 2328 
Q 359 3472 976 4111 
Q 1594 4750 2688 4750 
Q 3144 4750 3555 4637 
Q 3966 4525 4313 4306 
L 4313 3634 
Q 3963 3931 3569 4081 
Q 3175 4231 2741 4231 
Q 1884 4231 1454 3753 
Q 1025 3275 1025 2328 
Q 1025 1384 1454 906 
Q 1884 428 2741 428 
Q 3075 428 3337 486 
Q 3600 544 3809 666 
z
" transform="scale(0.015625)"/>
       <path id="DejaVuSans-65" d="M 3597 1894 
L 3597 1613 
L 953 1613 
Q 991 1019 1311 708 
Q 1631 397 2203 397 
Q 2534 397 2845 478 
Q 3156 559 3463 722 
L 3463 178 
Q 3153 47 2828 -22 
Q 2503 -91 2169 -91 
Q 1331 -91 842 396 
Q 353 884 353 1716 
Q 353 2575 817 3079 
Q 1281 3584 2069 3584 
Q 2775 3584 3186 3129 
Q 3597 2675 3597 1894 
z
M 3022 2063 
Q 3016 2534 2758 2815 
Q 2500 3097 2075 3097 
Q 1594 3097 1305 2825 
Q 1016 2553 972 2059 
L 3022 2063 
z
" transform="scale(0.015625)"/>
       <path id="DejaVuSans-6e" d="M 3513 2113 
L 3513 0 
L 2938 0 
L 2938 2094 
Q 2938 2591 2744 2837 
Q 2550 3084 2163 3084 
Q 1697 3084 1428 2787 
Q 1159 2491 1159 1978 
L 1159 0 
L 581 0 
L 581 3500 
L 1159 3500 
L 1159 2956 
Q 1366 3272 1645 3428 
Q 1925 3584 2291 3584 
Q 2894 3584 3203 3211 
Q 3513 2838 3513 2113 
z
" transform="scale(0.015625)"/>
       <path id="DejaVuSans-72" d="M 2631 2963 
Q 2534 3019 2420 3045 
Q 2306 3072 2169 3072 
Q 1681 3072 1420 2755 
Q 1159 2438 1159 1844 
L 1159 0 
L 581 0 
L 581 3500 
L 1159 3500 
L 1159 2956 
Q 1341 3275 1631 3429 
Q 1922 3584 2338 3584 
Q 2397 3584 2469 3576 
Q 2541 3569 2628 3553 
L 2631 2963 
z
" transform="scale(0.015625)"/>
       <path id="DejaVuSans-61" d="M 2194 1759 
Q 1497 1759 1228 1600 
Q 959 1441 959 1056 
Q 959 750 1161 570 
Q 1363 391 1709 391 
Q 2188 391 2477 730 
Q 2766 1069 2766 1631 
L 2766 1759 
L 2194 1759 
z
M 3341 1997 
L 3341 0 
L 2766 0 
L 2766 531 
Q 2569 213 2275 61 
Q 1981 -91 1556 -91 
Q 1019 -91 701 211 
Q 384 513 384 1019 
Q 384 1609 779 1909 
Q 1175 2209 1959 2209 
L 2766 2209 
L 2766 2266 
Q 2766 2663 2505 2880 
Q 2244 3097 1772 3097 
Q 1472 3097 1187 3025 
Q 903 2953 641 2809 
L 641 3341 
Q 956 3463 1253 3523 
Q 1550 3584 1831 3584 
Q 2591 3584 2966 3190 
Q 3341 2797 3341 1997 
z
" transform="scale(0.015625)"/>
       <path id="DejaVuSans-74" d="M 1172 4494 
L 1172 3500 
L 2356 3500 
L 2356 3053 
L 1172 3053 
L 1172 1153 
Q 1172 725 1289 603 
Q 1406 481 1766 481 
L 2356 481 
L 2356 0 
L 1766 0 
Q 1100 0 847 248 
Q 594 497 594 1153 
L 594 3053 
L 172 3053 
L 172 3500 
L 594 3500 
L 594 4494 
L 1172 4494 
z
" transform="scale(0.015625)"/>
       <path id="DejaVuSans-69" d="M 603 3500 
L 1178 3500 
L 1178 0 
L 603 0 
L 603 3500 
z
M 603 4863 
L 1178 4863 
L 1178 4134 
L 603 4134 
L 603 4863 
z
" transform="scale(0.015625)"/>
       <path id="DejaVuSans-6f" d="M 1959 3097 
Q 1497 3097 1228 2736 
Q 959 2375 959 1747 
Q 959 1119 1226 758 
Q 1494 397 1959 397 
Q 2419 397 2687 759 
Q 2956 1122 2956 1747 
Q 2956 2369 2687 2733 
Q 2419 3097 1959 3097 
z
M 1959 3584 
Q 2709 3584 3137 3096 
Q 3566 2609 3566 1747 
Q 3566 888 3137 398 
Q 2709 -91 1959 -91 
Q 1206 -91 779 398 
Q 353 888 353 1747 
Q 353 2609 779 3096 
Q 1206 3584 1959 3584 
z
" transform="scale(0.015625)"/>
       <path id="DejaVuSans-73" d="M 2834 3397 
L 2834 2853 
Q 2591 2978 2328 3040 
Q 2066 3103 1784 3103 
Q 1356 3103 1142 2972 
Q 928 2841 928 2578 
Q 928 2378 1081 2264 
Q 1234 2150 1697 2047 
L 1894 2003 
Q 2506 1872 2764 1633 
Q 3022 1394 3022 966 
Q 3022 478 2636 193 
Q 2250 -91 1575 -91 
Q 1294 -91 989 -36 
Q 684 19 347 128 
L 347 722 
Q 666 556 975 473 
Q 1284 391 1588 391 
Q 1994 391 2212 530 
Q 2431 669 2431 922 
Q 2431 1156 2273 1281 
Q 2116 1406 1581 1522 
L 1381 1569 
Q 847 1681 609 1914 
Q 372 2147 372 2553 
Q 372 3047 722 3315 
Q 1072 3584 1716 3584 
Q 2034 3584 2315 3537 
Q 2597 3491 2834 3397 
z
" transform="scale(0.015625)"/>
      </defs>
      <use xlink:href="#DejaVuSans-47"/>
      <use xlink:href="#DejaVuSans-65" x="77.490234"/>
      <use xlink:href="#DejaVuSans-6e" x="139.013672"/>
      <use xlink:href="#DejaVuSans-65" x="202.392578"/>
      <use xlink:href="#DejaVuSans-72" x="263.916016"/>
      <use xlink:href="#DejaVuSans-61" x="305.029297"/>
      <use xlink:href="#DejaVuSans-74" x="366.308594"/>
      <use xlink:href="#DejaVuSans-69" x="405.517578"/>
      <use xlink:href="#DejaVuSans-6f" x="433.300781"/>
      <use xlink:href="#DejaVuSans-6e" x="494.482422"/>
      <use xlink:href="#DejaVuSans-73" x="557.861328"/>
     </g>
    </g>
   </g>
   <g id="matplotlib.axis_2">
    <g id="ytick_1">
     <g id="line2d_19">
      <path d="M 57.6 304.334388 
L 414.72 304.334388 
" clip-path="url(#p5dfbb6d2ee)" style="fill: none; stroke: #b0b0b0; stroke-width: 0.8; stroke-linecap: square"/>
     </g>
     <g id="line2d_20">
      <defs>
       <path id="mef8c533d54" d="M 0 0 
L -3.5 0 
" style="stroke: #000000; stroke-width: 0.8"/>
      </defs>
      <g>
       <use xlink:href="#mef8c533d54" x="57.6" y="304.334388" style="stroke: #000000; stroke-width: 0.8"/>
      </g>
     </g>
     <g id="text_11">
      <!-- −2400 -->
      <g transform="translate(16.770313 308.133607) scale(0.1 -0.1)">
       <defs>
        <path id="DejaVuSans-2212" d="M 678 2272 
L 4684 2272 
L 4684 1741 
L 678 1741 
L 678 2272 
z
" transform="scale(0.015625)"/>
        <path id="DejaVuSans-34" d="M 2419 4116 
L 825 1625 
L 2419 1625 
L 2419 4116 
z
M 2253 4666 
L 3047 4666 
L 3047 1625 
L 3713 1625 
L 3713 1100 
L 3047 1100 
L 3047 0 
L 2419 0 
L 2419 1100 
L 313 1100 
L 313 1709 
L 2253 4666 
z
" transform="scale(0.015625)"/>
       </defs>
       <use xlink:href="#DejaVuSans-2212"/>
       <use xlink:href="#DejaVuSans-32" x="83.789062"/>
       <use xlink:href="#DejaVuSans-34" x="147.412109"/>
       <use xlink:href="#DejaVuSans-30" x="211.035156"/>
       <use xlink:href="#DejaVuSans-30" x="274.658203"/>
      </g>
     </g>
    </g>
    <g id="ytick_2">
     <g id="line2d_21">
      <path d="M 57.6 262.407865 
L 414.72 262.407865 
" clip-path="url(#p5dfbb6d2ee)" style="fill: none; stroke: #b0b0b0; stroke-width: 0.8; stroke-linecap: square"/>
     </g>
     <g id="line2d_22">
      <g>
       <use xlink:href="#mef8c533d54" x="57.6" y="262.407865" style="stroke: #000000; stroke-width: 0.8"/>
      </g>
     </g>
     <g id="text_12">
      <!-- −2200 -->
      <g transform="translate(16.770313 266.207084) scale(0.1 -0.1)">
       <use xlink:href="#DejaVuSans-2212"/>
       <use xlink:href="#DejaVuSans-32" x="83.789062"/>
       <use xlink:href="#DejaVuSans-32" x="147.412109"/>
       <use xlink:href="#DejaVuSans-30" x="211.035156"/>
       <use xlink:href="#DejaVuSans-30" x="274.658203"/>
      </g>
     </g>
    </g>
    <g id="ytick_3">
     <g id="line2d_23">
      <path d="M 57.6 220.481343 
L 414.72 220.481343 
" clip-path="url(#p5dfbb6d2ee)" style="fill: none; stroke: #b0b0b0; stroke-width: 0.8; stroke-linecap: square"/>
     </g>
     <g id="line2d_24">
      <g>
       <use xlink:href="#mef8c533d54" x="57.6" y="220.481343" style="stroke: #000000; stroke-width: 0.8"/>
      </g>
     </g>
     <g id="text_13">
      <!-- −2000 -->
      <g transform="translate(16.770313 224.280562) scale(0.1 -0.1)">
       <use xlink:href="#DejaVuSans-2212"/>
       <use xlink:href="#DejaVuSans-32" x="83.789062"/>
       <use xlink:href="#DejaVuSans-30" x="147.412109"/>
       <use xlink:href="#DejaVuSans-30" x="211.035156"/>
       <use xlink:href="#DejaVuSans-30" x="274.658203"/>
      </g>
     </g>
    </g>
    <g id="ytick_4">
     <g id="line2d_25">
      <path d="M 57.6 178.554821 
L 414.72 178.554821 
" clip-path="url(#p5dfbb6d2ee)" style="fill: none; stroke: #b0b0b0; stroke-width: 0.8; stroke-linecap: square"/>
     </g>
     <g id="line2d_26">
      <g>
       <use xlink:href="#mef8c533d54" x="57.6" y="178.554821" style="stroke: #000000; stroke-width: 0.8"/>
      </g>
     </g>
     <g id="text_14">
      <!-- −1800 -->
      <g transform="translate(16.770313 182.354039) scale(0.1 -0.1)">
       <defs>
        <path id="DejaVuSans-38" d="M 2034 2216 
Q 1584 2216 1326 1975 
Q 1069 1734 1069 1313 
Q 1069 891 1326 650 
Q 1584 409 2034 409 
Q 2484 409 2743 651 
Q 3003 894 3003 1313 
Q 3003 1734 2745 1975 
Q 2488 2216 2034 2216 
z
M 1403 2484 
Q 997 2584 770 2862 
Q 544 3141 544 3541 
Q 544 4100 942 4425 
Q 1341 4750 2034 4750 
Q 2731 4750 3128 4425 
Q 3525 4100 3525 3541 
Q 3525 3141 3298 2862 
Q 3072 2584 2669 2484 
Q 3125 2378 3379 2068 
Q 3634 1759 3634 1313 
Q 3634 634 3220 271 
Q 2806 -91 2034 -91 
Q 1263 -91 848 271 
Q 434 634 434 1313 
Q 434 1759 690 2068 
Q 947 2378 1403 2484 
z
M 1172 3481 
Q 1172 3119 1398 2916 
Q 1625 2713 2034 2713 
Q 2441 2713 2670 2916 
Q 2900 3119 2900 3481 
Q 2900 3844 2670 4047 
Q 2441 4250 2034 4250 
Q 1625 4250 1398 4047 
Q 1172 3844 1172 3481 
z
" transform="scale(0.015625)"/>
       </defs>
       <use xlink:href="#DejaVuSans-2212"/>
       <use xlink:href="#DejaVuSans-31" x="83.789062"/>
       <use xlink:href="#DejaVuSans-38" x="147.412109"/>
       <use xlink:href="#DejaVuSans-30" x="211.035156"/>
       <use xlink:href="#DejaVuSans-30" x="274.658203"/>
      </g>
     </g>
    </g>
    <g id="ytick_5">
     <g id="line2d_27">
      <path d="M 57.6 136.628298 
L 414.72 136.628298 
" clip-path="url(#p5dfbb6d2ee)" style="fill: none; stroke: #b0b0b0; stroke-width: 0.8; stroke-linecap: square"/>
     </g>
     <g id="line2d_28">
      <g>
       <use xlink:href="#mef8c533d54" x="57.6" y="136.628298" style="stroke: #000000; stroke-width: 0.8"/>
      </g>
     </g>
     <g id="text_15">
      <!-- −1600 -->
      <g transform="translate(16.770313 140.427517) scale(0.1 -0.1)">
       <defs>
        <path id="DejaVuSans-36" d="M 2113 2584 
Q 1688 2584 1439 2293 
Q 1191 2003 1191 1497 
Q 1191 994 1439 701 
Q 1688 409 2113 409 
Q 2538 409 2786 701 
Q 3034 994 3034 1497 
Q 3034 2003 2786 2293 
Q 2538 2584 2113 2584 
z
M 3366 4563 
L 3366 3988 
Q 3128 4100 2886 4159 
Q 2644 4219 2406 4219 
Q 1781 4219 1451 3797 
Q 1122 3375 1075 2522 
Q 1259 2794 1537 2939 
Q 1816 3084 2150 3084 
Q 2853 3084 3261 2657 
Q 3669 2231 3669 1497 
Q 3669 778 3244 343 
Q 2819 -91 2113 -91 
Q 1303 -91 875 529 
Q 447 1150 447 2328 
Q 447 3434 972 4092 
Q 1497 4750 2381 4750 
Q 2619 4750 2861 4703 
Q 3103 4656 3366 4563 
z
" transform="scale(0.015625)"/>
       </defs>
       <use xlink:href="#DejaVuSans-2212"/>
       <use xlink:href="#DejaVuSans-31" x="83.789062"/>
       <use xlink:href="#DejaVuSans-36" x="147.412109"/>
       <use xlink:href="#DejaVuSans-30" x="211.035156"/>
       <use xlink:href="#DejaVuSans-30" x="274.658203"/>
      </g>
     </g>
    </g>
    <g id="ytick_6">
     <g id="line2d_29">
      <path d="M 57.6 94.701776 
L 414.72 94.701776 
" clip-path="url(#p5dfbb6d2ee)" style="fill: none; stroke: #b0b0b0; stroke-width: 0.8; stroke-linecap: square"/>
     </g>
     <g id="line2d_30">
      <g>
       <use xlink:href="#mef8c533d54" x="57.6" y="94.701776" style="stroke: #000000; stroke-width: 0.8"/>
      </g>
     </g>
     <g id="text_16">
      <!-- −1400 -->
      <g transform="translate(16.770313 98.500994) scale(0.1 -0.1)">
       <use xlink:href="#DejaVuSans-2212"/>
       <use xlink:href="#DejaVuSans-31" x="83.789062"/>
       <use xlink:href="#DejaVuSans-34" x="147.412109"/>
       <use xlink:href="#DejaVuSans-30" x="211.035156"/>
       <use xlink:href="#DejaVuSans-30" x="274.658203"/>
      </g>
     </g>
    </g>
    <g id="ytick_7">
     <g id="line2d_31">
      <path d="M 57.6 52.775253 
L 414.72 52.775253 
" clip-path="url(#p5dfbb6d2ee)" style="fill: none; stroke: #b0b0b0; stroke-width: 0.8; stroke-linecap: square"/>
     </g>
     <g id="line2d_32">
      <g>
       <use xlink:href="#mef8c533d54" x="57.6" y="52.775253" style="stroke: #000000; stroke-width: 0.8"/>
      </g>
     </g>
     <g id="text_17">
      <!-- −1200 -->
      <g transform="translate(16.770313 56.574472) scale(0.1 -0.1)">
       <use xlink:href="#DejaVuSans-2212"/>
       <use xlink:href="#DejaVuSans-31" x="83.789062"/>
       <use xlink:href="#DejaVuSans-32" x="147.412109"/>
       <use xlink:href="#DejaVuSans-30" x="211.035156"/>
       <use xlink:href="#DejaVuSans-30" x="274.658203"/>
      </g>
     </g>
    </g>
    <g id="text_18">
     <!-- Fitness -->
     <g transform="translate(10.690625 191.845187) rotate(-90) scale(0.1 -0.1)">
      <defs>
       <path id="DejaVuSans-46" d="M 628 4666 
L 3309 4666 
L 3309 4134 
L 1259 4134 
L 1259 2759 
L 3109 2759 
L 3109 2228 
L 1259 2228 
L 1259 0 
L 628 0 
L 628 4666 
z
" transform="scale(0.015625)"/>
      </defs>
      <use xlink:href="#DejaVuSans-46"/>
      <use xlink:href="#DejaVuSans-69" x="50.269531"/>
      <use xlink:href="#DejaVuSans-74" x="78.052734"/>
      <use xlink:href="#DejaVuSans-6e" x="117.261719"/>
      <use xlink:href="#DejaVuSans-65" x="180.640625"/>
      <use xlink:href="#DejaVuSans-73" x="242.164062"/>
      <use xlink:href="#DejaVuSans-73" x="294.263672"/>
     </g>
    </g>
   </g>
   <g id="line2d_33">
    <path d="M 73.832727 197.888482 
L 75.464157 195.803352 
L 77.095587 192.899378 
L 78.727017 191.817238 
L 80.358447 189.45773 
L 81.989877 190.764081 
L 83.621307 188.626817 
L 85.252736 188.480628 
L 86.884166 188.138009 
L 88.515596 187.463127 
L 90.147026 186.511419 
L 91.778456 188.282687 
L 93.409886 186.901336 
L 95.041316 187.63637 
L 96.672746 186.535389 
L 98.304175 187.025912 
L 99.935605 188.432872 
L 101.567035 187.691955 
L 103.198465 188.22243 
L 104.829895 187.289285 
L 106.461325 189.300984 
L 109.724185 188.039459 
L 111.355614 188.2924 
L 112.987044 189.128415 
L 114.618474 187.372913 
L 116.249904 187.081613 
L 117.881334 187.84807 
L 119.512764 187.717484 
L 121.144194 187.356874 
L 122.775624 188.119228 
L 124.407053 186.924327 
L 126.038483 187.105484 
L 127.669913 187.635499 
L 129.301343 187.003324 
L 130.932773 186.817353 
L 132.564203 184.314223 
L 134.195633 186.487535 
L 135.827063 186.270589 
L 137.458492 186.572206 
L 139.089922 186.055108 
L 140.721352 186.520659 
L 142.352782 185.979007 
L 143.984212 186.500972 
L 145.615642 186.122226 
L 147.247072 186.682703 
L 148.878502 185.946058 
L 150.509931 187.831748 
L 152.141361 186.136658 
L 153.772791 186.607937 
L 155.404221 186.945126 
L 157.035651 185.909163 
L 158.667081 186.345802 
L 160.298511 184.674916 
L 161.929941 184.624682 
L 163.56137 185.354544 
L 165.1928 185.69178 
L 166.82423 187.024783 
L 168.45566 187.289151 
L 170.08709 186.155548 
L 171.71852 186.431872 
L 174.98138 185.346045 
L 176.61281 186.533145 
L 178.244239 186.214971 
L 181.507099 186.666331 
L 183.138529 187.271603 
L 184.769959 185.449051 
L 186.401389 186.99801 
L 188.032819 186.187982 
L 189.664249 186.142889 
L 191.295678 185.25981 
L 192.927108 186.792351 
L 194.558538 186.006903 
L 196.189968 199.636638 
L 197.821398 198.845147 
L 199.452828 199.336263 
L 201.084258 198.493178 
L 202.715688 199.383546 
L 204.347117 199.965876 
L 205.978547 204.132459 
L 207.609977 203.890039 
L 209.241407 204.115907 
L 210.872837 204.526834 
L 212.504267 199.20667 
L 214.135697 204.177551 
L 215.767127 204.263165 
L 217.398556 203.256855 
L 219.029986 200.616476 
L 220.661416 200.654484 
L 222.292846 205.442282 
L 223.924276 204.575503 
L 225.555706 200.037538 
L 227.187136 204.983456 
L 228.818566 199.33284 
L 230.449995 200.12494 
L 232.081425 200.378791 
L 233.712855 204.553938 
L 235.344285 201.264073 
L 236.975715 204.506158 
L 238.607145 200.510968 
L 240.238575 204.977904 
L 241.870005 200.427618 
L 243.501434 200.321796 
L 245.132864 201.003745 
L 246.764294 200.612745 
L 248.395724 199.979109 
L 250.027154 204.377495 
L 251.658584 200.350515 
L 253.290014 205.218185 
L 254.921444 200.763049 
L 256.552873 205.157266 
L 258.184303 200.382555 
L 259.815733 199.663282 
L 261.447163 205.416916 
L 263.078593 200.118016 
L 264.710023 199.571793 
L 266.341453 199.642607 
L 267.972883 199.846703 
L 269.604312 202.621483 
L 271.235742 201.258913 
L 272.867172 201.045944 
L 274.498602 200.997855 
L 276.130032 201.887538 
L 277.761462 200.851451 
L 279.392892 201.320118 
L 281.024322 201.92585 
L 282.655751 201.145148 
L 284.287181 201.186254 
L 285.918611 202.544309 
L 287.550041 200.763172 
L 290.812901 200.478325 
L 292.444331 201.106636 
L 294.075761 201.404859 
L 295.70719 200.781496 
L 297.33862 201.815844 
L 298.97005 201.021438 
L 300.60148 201.699921 
L 303.86434 201.192396 
L 305.49577 201.862007 
L 307.1272 200.999493 
L 308.75863 201.721069 
L 310.390059 200.849815 
L 312.021489 201.945331 
L 313.652919 205.33828 
L 315.284349 201.037205 
L 316.915779 201.070663 
L 318.547209 200.878849 
L 320.178639 202.179611 
L 321.810069 200.504858 
L 323.441498 200.877738 
L 325.072928 200.984126 
L 326.704358 200.62833 
L 328.335788 200.945114 
L 329.967218 200.420243 
L 331.598648 201.194359 
L 334.861508 200.858158 
L 336.492937 201.89407 
L 338.124367 201.023516 
L 339.755797 200.952074 
L 341.387227 200.102355 
L 343.018657 200.697006 
L 344.650087 201.47622 
L 346.281517 200.575615 
L 347.912947 201.687088 
L 351.175806 200.725021 
L 352.807236 201.380835 
L 354.438666 200.412207 
L 356.070096 200.556631 
L 357.701526 200.377492 
L 359.332956 200.924465 
L 360.964386 200.863267 
L 362.595815 200.544752 
L 364.227245 200.429292 
L 365.858675 199.912897 
L 367.490105 200.314791 
L 369.121535 200.915127 
L 370.752965 200.123194 
L 372.384395 200.392561 
L 374.015825 200.157648 
L 375.647254 200.168732 
L 377.278684 200.020536 
L 378.910114 200.497647 
L 380.541544 200.264814 
L 382.172974 200.76909 
L 383.804404 200.073048 
L 385.435834 200.972471 
L 387.067264 200.093943 
L 388.698693 200.624734 
L 390.330123 200.133123 
L 391.961553 200.445738 
L 393.592983 200.95739 
L 398.487273 200.60622 
L 398.487273 200.60622 
" clip-path="url(#p5dfbb6d2ee)" style="fill: none; stroke: #0000ff; stroke-width: 1.5; stroke-linecap: square"/>
   </g>
   <g id="line2d_34">
    <path d="M 73.832727 210.191493 
L 75.464157 206.204367 
L 77.095587 203.546668 
L 78.727017 202.345295 
L 80.358447 200.338931 
L 81.989877 200.770335 
L 83.621307 197.937876 
L 85.252736 198.03964 
L 86.884166 198.468775 
L 88.515596 196.952795 
L 90.147026 201.998482 
L 91.778456 203.95369 
L 93.409886 201.799654 
L 95.041316 203.32044 
L 96.672746 201.049713 
L 98.304175 203.083096 
L 99.935605 203.364911 
L 101.567035 202.124728 
L 103.198465 202.013031 
L 104.829895 202.039449 
L 106.461325 204.251922 
L 108.092755 203.525712 
L 109.724185 201.899736 
L 111.355614 201.928546 
L 112.987044 202.750654 
L 114.618474 200.676583 
L 116.249904 200.279504 
L 117.881334 201.309273 
L 119.512764 201.562685 
L 121.144194 201.104994 
L 122.775624 202.800334 
L 124.407053 201.013557 
L 126.038483 203.795763 
L 127.669913 204.249731 
L 129.301343 203.022996 
L 130.932773 203.155133 
L 132.564203 208.130943 
L 134.195633 205.666422 
L 135.827063 205.134661 
L 137.458492 205.465708 
L 139.089922 204.875386 
L 140.721352 205.589258 
L 142.352782 204.784213 
L 143.984212 205.591436 
L 145.615642 205.000524 
L 147.247072 206.883059 
L 148.878502 204.723067 
L 150.509931 207.333005 
L 152.141361 204.911885 
L 153.772791 205.87747 
L 155.404221 206.131158 
L 157.035651 204.752315 
L 158.667081 205.344937 
L 160.298511 203.305878 
L 161.929941 207.178528 
L 165.1928 208.085157 
L 166.82423 205.939526 
L 168.45566 206.996383 
L 170.08709 205.298627 
L 173.34995 205.21554 
L 174.98138 205.025514 
L 176.61281 206.744556 
L 178.244239 206.590914 
L 179.875669 206.870584 
L 181.507099 206.969406 
L 183.138529 207.919723 
L 184.769959 209.158527 
L 186.401389 207.235436 
L 188.032819 206.034143 
L 189.664249 205.865464 
L 191.295678 205.002293 
L 192.927108 207.430805 
L 194.558538 206.369601 
L 196.189968 280.41435 
L 197.821398 279.640749 
L 199.452828 278.522664 
L 201.084258 279.311884 
L 202.715688 279.390153 
L 204.347117 280.181238 
L 205.978547 295.258949 
L 207.609977 295.183805 
L 209.241407 294.272267 
L 210.872837 295.08595 
L 212.504267 278.684392 
L 214.135697 295.211959 
L 215.767127 295.327166 
L 217.398556 293.949544 
L 219.029986 279.149311 
L 220.661416 279.61418 
L 222.292846 295.26022 
L 223.924276 294.055714 
L 225.555706 278.263599 
L 227.187136 294.448215 
L 228.818566 277.592651 
L 230.449995 278.345982 
L 232.081425 278.237823 
L 233.712855 294.031033 
L 235.344285 279.743572 
L 236.975715 293.993109 
L 238.607145 279.063588 
L 240.238575 294.860681 
L 241.870005 278.972459 
L 243.501434 278.929542 
L 245.132864 279.937322 
L 246.764294 279.154933 
L 248.395724 278.576257 
L 250.027154 294.334798 
L 251.658584 278.908296 
L 253.290014 295.075215 
L 254.921444 279.716773 
L 256.552873 295.488 
L 258.184303 279.48484 
L 259.815733 278.715674 
L 261.447163 295.259889 
L 263.078593 279.11355 
L 264.710023 278.311906 
L 266.341453 278.265582 
L 267.972883 280.082087 
L 269.604312 279.712124 
L 271.235742 278.493476 
L 272.867172 278.689293 
L 274.498602 278.650889 
L 276.130032 279.19417 
L 277.761462 278.513955 
L 279.392892 278.948549 
L 281.024322 279.502927 
L 282.655751 278.790396 
L 284.287181 278.434929 
L 285.918611 280.010056 
L 287.550041 278.447532 
L 289.181471 278.32184 
L 290.812901 277.79241 
L 292.444331 278.357526 
L 294.075761 278.620162 
L 295.70719 278.065515 
L 297.33862 278.983017 
L 298.97005 277.889092 
L 302.23291 279.070169 
L 303.86434 278.439495 
L 305.49577 279.435207 
L 307.1272 278.256747 
L 308.75863 278.930901 
L 310.390059 278.127653 
L 312.021489 279.594096 
L 313.652919 294.092703 
L 315.284349 278.322576 
L 316.915779 278.328827 
L 318.547209 278.165178 
L 320.178639 279.870318 
L 321.810069 278.200691 
L 325.072928 278.249496 
L 326.704358 278.318861 
L 329.967218 278.140777 
L 331.598648 278.82494 
L 333.230078 278.656757 
L 334.861508 278.135765 
L 336.492937 278.664197 
L 338.124367 278.310542 
L 339.755797 278.223044 
L 341.387227 277.073346 
L 343.018657 277.605073 
L 344.650087 279.072771 
L 346.281517 277.880377 
L 347.912947 278.879807 
L 349.544376 278.876435 
L 351.175806 278.033161 
L 352.807236 278.595975 
L 354.438666 277.733563 
L 356.070096 278.261186 
L 357.701526 277.715895 
L 359.332956 278.232167 
L 360.964386 278.536459 
L 362.595815 278.247687 
L 364.227245 277.750179 
L 365.858675 276.898643 
L 367.490105 277.643434 
L 369.121535 277.796577 
L 370.752965 277.088853 
L 372.384395 277.33236 
L 374.015825 277.118569 
L 375.647254 277.126737 
L 377.278684 276.998006 
L 378.910114 277.428471 
L 380.541544 277.60748 
L 382.172974 277.673798 
L 383.804404 277.053775 
L 385.435834 278.271986 
L 387.067264 277.446856 
L 388.698693 277.543865 
L 390.330123 277.482966 
L 391.961553 278.157895 
L 393.592983 278.620058 
L 395.224413 278.526301 
L 398.487273 277.527088 
L 398.487273 277.527088 
" clip-path="url(#p5dfbb6d2ee)" style="fill: none; stroke-dasharray: 9.6,2.4,1.5,2.4; stroke-dashoffset: 0; stroke: #008000; stroke-width: 1.5"/>
   </g>
   <g id="line2d_35">
    <path d="M 73.832727 185.585471 
L 75.464157 185.402336 
L 77.095587 182.252089 
L 78.727017 181.289181 
L 80.358447 178.57653 
L 81.989877 180.757827 
L 83.621307 179.315758 
L 85.252736 178.921616 
L 86.884166 177.807242 
L 88.515596 177.973459 
L 90.147026 171.024356 
L 91.778456 172.611683 
L 93.409886 172.003018 
L 95.041316 171.952301 
L 96.672746 172.021064 
L 98.304175 170.968727 
L 99.935605 173.500833 
L 101.567035 173.259183 
L 103.198465 174.43183 
L 104.829895 172.53912 
L 106.461325 174.350046 
L 108.092755 173.761441 
L 111.355614 174.656254 
L 112.987044 175.506175 
L 114.618474 174.069244 
L 116.249904 173.883723 
L 117.881334 174.386867 
L 119.512764 173.872283 
L 122.775624 173.438122 
L 124.407053 172.835096 
L 126.038483 170.415205 
L 127.669913 171.021266 
L 129.301343 170.983651 
L 130.932773 170.479572 
L 132.564203 160.497502 
L 134.195633 167.308648 
L 135.827063 167.406518 
L 137.458492 167.678704 
L 139.089922 167.234831 
L 140.721352 167.45206 
L 142.352782 167.173801 
L 143.984212 167.410508 
L 145.615642 167.243928 
L 147.247072 166.482347 
L 148.878502 167.169049 
L 150.509931 168.330492 
L 152.141361 167.36143 
L 153.772791 167.338404 
L 155.404221 167.759094 
L 157.035651 167.06601 
L 158.667081 167.346667 
L 160.298511 166.043955 
L 161.929941 162.070836 
L 163.56137 163.07352 
L 165.1928 163.298403 
L 166.82423 168.11004 
L 170.08709 167.01247 
L 171.71852 167.597579 
L 174.98138 165.666576 
L 176.61281 166.321733 
L 178.244239 165.839028 
L 179.875669 165.945423 
L 181.507099 166.363256 
L 183.138529 166.623482 
L 184.769959 161.739574 
L 186.401389 166.760584 
L 188.032819 166.341821 
L 189.664249 166.420314 
L 191.295678 165.517327 
L 192.927108 166.153897 
L 194.558538 165.644205 
L 196.189968 118.858926 
L 197.821398 118.049544 
L 199.452828 120.149861 
L 201.084258 117.674472 
L 202.715688 119.37694 
L 204.347117 119.750515 
L 205.978547 113.005968 
L 207.609977 112.596273 
L 209.241407 113.959547 
L 210.872837 113.967718 
L 212.504267 119.728947 
L 214.135697 113.143143 
L 215.767127 113.199163 
L 217.398556 112.564166 
L 219.029986 122.083642 
L 220.661416 121.694789 
L 222.292846 115.624344 
L 223.924276 115.095292 
L 225.555706 121.811477 
L 227.187136 115.518698 
L 228.818566 121.07303 
L 230.449995 121.903899 
L 232.081425 122.51976 
L 233.712855 115.076842 
L 235.344285 122.784575 
L 236.975715 115.019207 
L 238.607145 121.958349 
L 240.238575 115.095126 
L 241.870005 121.882777 
L 243.501434 121.714049 
L 245.132864 122.070169 
L 246.764294 122.070557 
L 248.395724 121.381961 
L 250.027154 114.420192 
L 251.658584 121.792734 
L 253.290014 115.361154 
L 254.921444 121.809324 
L 256.552873 114.826532 
L 258.184303 121.28027 
L 259.815733 120.610891 
L 261.447163 115.573943 
L 263.078593 121.122481 
L 264.710023 120.83168 
L 266.341453 121.019632 
L 267.972883 119.61132 
L 269.604312 125.530842 
L 271.235742 124.02435 
L 272.867172 123.402594 
L 274.498602 123.344821 
L 276.130032 124.580906 
L 277.761462 123.188947 
L 279.392892 123.691686 
L 281.024322 124.348773 
L 282.655751 123.499901 
L 284.287181 123.937579 
L 285.918611 125.078561 
L 287.550041 123.078813 
L 289.181471 122.954471 
L 290.812901 123.16424 
L 292.444331 123.855746 
L 294.075761 124.189556 
L 295.70719 123.497476 
L 297.33862 124.648671 
L 298.97005 124.153784 
L 300.60148 124.901746 
L 302.23291 123.801721 
L 303.86434 123.945298 
L 305.49577 124.288807 
L 307.1272 123.742238 
L 308.75863 124.511237 
L 310.390059 123.571977 
L 312.021489 124.296566 
L 313.652919 116.583856 
L 315.284349 123.751835 
L 316.915779 123.812499 
L 318.547209 123.59252 
L 320.178639 124.488904 
L 321.810069 122.809026 
L 323.441498 123.582943 
L 325.072928 123.718757 
L 326.704358 122.937799 
L 328.335788 123.682788 
L 329.967218 122.699709 
L 331.598648 123.563779 
L 333.230078 123.366607 
L 334.861508 123.580552 
L 336.492937 125.123944 
L 338.124367 123.73649 
L 339.755797 123.681104 
L 341.387227 123.131364 
L 343.018657 123.788938 
L 344.650087 123.879669 
L 346.281517 123.270854 
L 347.912947 124.494368 
L 349.544376 123.642171 
L 351.175806 123.41688 
L 352.807236 124.165695 
L 354.438666 123.090851 
L 356.070096 122.852076 
L 357.701526 123.039089 
L 359.332956 123.616763 
L 362.595815 122.841817 
L 364.227245 123.108405 
L 365.858675 122.92715 
L 367.490105 122.986147 
L 369.121535 124.033678 
L 370.752965 123.157535 
L 372.384395 123.452762 
L 374.015825 123.196727 
L 375.647254 123.210726 
L 377.278684 123.043065 
L 378.910114 123.566824 
L 380.541544 122.922148 
L 382.172974 123.864382 
L 383.804404 123.092321 
L 385.435834 123.672956 
L 387.067264 122.741029 
L 388.698693 123.705604 
L 390.330123 122.78328 
L 391.961553 122.733581 
L 393.592983 123.294721 
L 395.224413 123.177999 
L 396.855843 123.495765 
L 398.487273 123.685353 
L 398.487273 123.685353 
" clip-path="url(#p5dfbb6d2ee)" style="fill: none; stroke-dasharray: 9.6,2.4,1.5,2.4; stroke-dashoffset: 0; stroke: #008000; stroke-width: 1.5"/>
   </g>
   <g id="line2d_36">
    <path d="M 73.832727 153.845425 
L 81.989877 153.845425 
L 83.621307 153.715452 
L 85.252736 150.75544 
L 88.515596 150.75544 
L 90.147026 67.997017 
L 130.932773 67.997017 
L 132.564203 61.902997 
L 160.298511 61.902997 
L 161.929941 53.568 
L 267.972883 53.568 
L 269.604312 185.9842 
L 398.487273 185.992586 
L 398.487273 185.992586 
" clip-path="url(#p5dfbb6d2ee)" style="fill: none; stroke: #ff0000; stroke-width: 1.5; stroke-linecap: square"/>
   </g>
   <g id="patch_3">
    <path d="M 57.6 307.584 
L 57.6 41.472 
" style="fill: none; stroke: #000000; stroke-width: 0.8; stroke-linejoin: miter; stroke-linecap: square"/>
   </g>
   <g id="patch_4">
    <path d="M 414.72 307.584 
L 414.72 41.472 
" style="fill: none; stroke: #000000; stroke-width: 0.8; stroke-linejoin: miter; stroke-linecap: square"/>
   </g>
   <g id="patch_5">
    <path d="M 57.6 307.584 
L 414.72 307.584 
" style="fill: none; stroke: #000000; stroke-width: 0.8; stroke-linejoin: miter; stroke-linecap: square"/>
   </g>
   <g id="patch_6">
    <path d="M 57.6 41.472 
L 414.72 41.472 
" style="fill: none; stroke: #000000; stroke-width: 0.8; stroke-linejoin: miter; stroke-linecap: square"/>
   </g>
   <g id="text_19">
    <!-- Population's average and best fitness -->
    <g transform="translate(123.529687 35.472) scale(0.12 -0.12)">
     <defs>
      <path id="DejaVuSans-50" d="M 1259 4147 
L 1259 2394 
L 2053 2394 
Q 2494 2394 2734 2622 
Q 2975 2850 2975 3272 
Q 2975 3691 2734 3919 
Q 2494 4147 2053 4147 
L 1259 4147 
z
M 628 4666 
L 2053 4666 
Q 2838 4666 3239 4311 
Q 3641 3956 3641 3272 
Q 3641 2581 3239 2228 
Q 2838 1875 2053 1875 
L 1259 1875 
L 1259 0 
L 628 0 
L 628 4666 
z
" transform="scale(0.015625)"/>
      <path id="DejaVuSans-70" d="M 1159 525 
L 1159 -1331 
L 581 -1331 
L 581 3500 
L 1159 3500 
L 1159 2969 
Q 1341 3281 1617 3432 
Q 1894 3584 2278 3584 
Q 2916 3584 3314 3078 
Q 3713 2572 3713 1747 
Q 3713 922 3314 415 
Q 2916 -91 2278 -91 
Q 1894 -91 1617 61 
Q 1341 213 1159 525 
z
M 3116 1747 
Q 3116 2381 2855 2742 
Q 2594 3103 2138 3103 
Q 1681 3103 1420 2742 
Q 1159 2381 1159 1747 
Q 1159 1113 1420 752 
Q 1681 391 2138 391 
Q 2594 391 2855 752 
Q 3116 1113 3116 1747 
z
" transform="scale(0.015625)"/>
      <path id="DejaVuSans-75" d="M 544 1381 
L 544 3500 
L 1119 3500 
L 1119 1403 
Q 1119 906 1312 657 
Q 1506 409 1894 409 
Q 2359 409 2629 706 
Q 2900 1003 2900 1516 
L 2900 3500 
L 3475 3500 
L 3475 0 
L 2900 0 
L 2900 538 
Q 2691 219 2414 64 
Q 2138 -91 1772 -91 
Q 1169 -91 856 284 
Q 544 659 544 1381 
z
M 1991 3584 
L 1991 3584 
z
" transform="scale(0.015625)"/>
      <path id="DejaVuSans-6c" d="M 603 4863 
L 1178 4863 
L 1178 0 
L 603 0 
L 603 4863 
z
" transform="scale(0.015625)"/>
      <path id="DejaVuSans-27" d="M 1147 4666 
L 1147 2931 
L 616 2931 
L 616 4666 
L 1147 4666 
z
" transform="scale(0.015625)"/>
      <path id="DejaVuSans-20" transform="scale(0.015625)"/>
      <path id="DejaVuSans-76" d="M 191 3500 
L 800 3500 
L 1894 563 
L 2988 3500 
L 3597 3500 
L 2284 0 
L 1503 0 
L 191 3500 
z
" transform="scale(0.015625)"/>
      <path id="DejaVuSans-67" d="M 2906 1791 
Q 2906 2416 2648 2759 
Q 2391 3103 1925 3103 
Q 1463 3103 1205 2759 
Q 947 2416 947 1791 
Q 947 1169 1205 825 
Q 1463 481 1925 481 
Q 2391 481 2648 825 
Q 2906 1169 2906 1791 
z
M 3481 434 
Q 3481 -459 3084 -895 
Q 2688 -1331 1869 -1331 
Q 1566 -1331 1297 -1286 
Q 1028 -1241 775 -1147 
L 775 -588 
Q 1028 -725 1275 -790 
Q 1522 -856 1778 -856 
Q 2344 -856 2625 -561 
Q 2906 -266 2906 331 
L 2906 616 
Q 2728 306 2450 153 
Q 2172 0 1784 0 
Q 1141 0 747 490 
Q 353 981 353 1791 
Q 353 2603 747 3093 
Q 1141 3584 1784 3584 
Q 2172 3584 2450 3431 
Q 2728 3278 2906 2969 
L 2906 3500 
L 3481 3500 
L 3481 434 
z
" transform="scale(0.015625)"/>
      <path id="DejaVuSans-64" d="M 2906 2969 
L 2906 4863 
L 3481 4863 
L 3481 0 
L 2906 0 
L 2906 525 
Q 2725 213 2448 61 
Q 2172 -91 1784 -91 
Q 1150 -91 751 415 
Q 353 922 353 1747 
Q 353 2572 751 3078 
Q 1150 3584 1784 3584 
Q 2172 3584 2448 3432 
Q 2725 3281 2906 2969 
z
M 947 1747 
Q 947 1113 1208 752 
Q 1469 391 1925 391 
Q 2381 391 2643 752 
Q 2906 1113 2906 1747 
Q 2906 2381 2643 2742 
Q 2381 3103 1925 3103 
Q 1469 3103 1208 2742 
Q 947 2381 947 1747 
z
" transform="scale(0.015625)"/>
      <path id="DejaVuSans-62" d="M 3116 1747 
Q 3116 2381 2855 2742 
Q 2594 3103 2138 3103 
Q 1681 3103 1420 2742 
Q 1159 2381 1159 1747 
Q 1159 1113 1420 752 
Q 1681 391 2138 391 
Q 2594 391 2855 752 
Q 3116 1113 3116 1747 
z
M 1159 2969 
Q 1341 3281 1617 3432 
Q 1894 3584 2278 3584 
Q 2916 3584 3314 3078 
Q 3713 2572 3713 1747 
Q 3713 922 3314 415 
Q 2916 -91 2278 -91 
Q 1894 -91 1617 61 
Q 1341 213 1159 525 
L 1159 0 
L 581 0 
L 581 4863 
L 1159 4863 
L 1159 2969 
z
" transform="scale(0.015625)"/>
      <path id="DejaVuSans-66" d="M 2375 4863 
L 2375 4384 
L 1825 4384 
Q 1516 4384 1395 4259 
Q 1275 4134 1275 3809 
L 1275 3500 
L 2222 3500 
L 2222 3053 
L 1275 3053 
L 1275 0 
L 697 0 
L 697 3053 
L 147 3053 
L 147 3500 
L 697 3500 
L 697 3744 
Q 697 4328 969 4595 
Q 1241 4863 1831 4863 
L 2375 4863 
z
" transform="scale(0.015625)"/>
     </defs>
     <use xlink:href="#DejaVuSans-50"/>
     <use xlink:href="#DejaVuSans-6f" x="56.677734"/>
     <use xlink:href="#DejaVuSans-70" x="117.859375"/>
     <use xlink:href="#DejaVuSans-75" x="181.335938"/>
     <use xlink:href="#DejaVuSans-6c" x="244.714844"/>
     <use xlink:href="#DejaVuSans-61" x="272.498047"/>
     <use xlink:href="#DejaVuSans-74" x="333.777344"/>
     <use xlink:href="#DejaVuSans-69" x="372.986328"/>
     <use xlink:href="#DejaVuSans-6f" x="400.769531"/>
     <use xlink:href="#DejaVuSans-6e" x="461.951172"/>
     <use xlink:href="#DejaVuSans-27" x="525.330078"/>
     <use xlink:href="#DejaVuSans-73" x="552.820312"/>
     <use xlink:href="#DejaVuSans-20" x="604.919922"/>
     <use xlink:href="#DejaVuSans-61" x="636.707031"/>
     <use xlink:href="#DejaVuSans-76" x="697.986328"/>
     <use xlink:href="#DejaVuSans-65" x="757.166016"/>
     <use xlink:href="#DejaVuSans-72" x="818.689453"/>
     <use xlink:href="#DejaVuSans-61" x="859.802734"/>
     <use xlink:href="#DejaVuSans-67" x="921.082031"/>
     <use xlink:href="#DejaVuSans-65" x="984.558594"/>
     <use xlink:href="#DejaVuSans-20" x="1046.082031"/>
     <use xlink:href="#DejaVuSans-61" x="1077.869141"/>
     <use xlink:href="#DejaVuSans-6e" x="1139.148438"/>
     <use xlink:href="#DejaVuSans-64" x="1202.527344"/>
     <use xlink:href="#DejaVuSans-20" x="1266.003906"/>
     <use xlink:href="#DejaVuSans-62" x="1297.791016"/>
     <use xlink:href="#DejaVuSans-65" x="1361.267578"/>
     <use xlink:href="#DejaVuSans-73" x="1422.791016"/>
     <use xlink:href="#DejaVuSans-74" x="1474.890625"/>
     <use xlink:href="#DejaVuSans-20" x="1514.099609"/>
     <use xlink:href="#DejaVuSans-66" x="1545.886719"/>
     <use xlink:href="#DejaVuSans-69" x="1581.091797"/>
     <use xlink:href="#DejaVuSans-74" x="1608.875"/>
     <use xlink:href="#DejaVuSans-6e" x="1648.083984"/>
     <use xlink:href="#DejaVuSans-65" x="1711.462891"/>
     <use xlink:href="#DejaVuSans-73" x="1772.986328"/>
     <use xlink:href="#DejaVuSans-73" x="1825.085938"/>
    </g>
   </g>
   <g id="legend_1">
    <g id="patch_7">
     <path d="M 334.779375 108.1845 
L 407.72 108.1845 
Q 409.72 108.1845 409.72 106.1845 
L 409.72 48.472 
Q 409.72 46.472 407.72 46.472 
L 334.779375 46.472 
Q 332.779375 46.472 332.779375 48.472 
L 332.779375 106.1845 
Q 332.779375 108.1845 334.779375 108.1845 
z
" style="fill: #ffffff; opacity: 0.8; stroke: #cccccc; stroke-linejoin: miter"/>
    </g>
    <g id="line2d_37">
     <path d="M 336.779375 54.570438 
L 346.779375 54.570438 
L 356.779375 54.570438 
" style="fill: none; stroke: #0000ff; stroke-width: 1.5; stroke-linecap: square"/>
    </g>
    <g id="text_20">
     <!-- average -->
     <g transform="translate(364.779375 58.070438) scale(0.1 -0.1)">
      <use xlink:href="#DejaVuSans-61"/>
      <use xlink:href="#DejaVuSans-76" x="61.279297"/>
      <use xlink:href="#DejaVuSans-65" x="120.458984"/>
      <use xlink:href="#DejaVuSans-72" x="181.982422"/>
      <use xlink:href="#DejaVuSans-61" x="223.095703"/>
      <use xlink:href="#DejaVuSans-67" x="284.375"/>
      <use xlink:href="#DejaVuSans-65" x="347.851562"/>
     </g>
    </g>
    <g id="line2d_38">
     <path d="M 336.779375 69.248563 
L 346.779375 69.248563 
L 356.779375 69.248563 
" style="fill: none; stroke-dasharray: 9.6,2.4,1.5,2.4; stroke-dashoffset: 0; stroke: #008000; stroke-width: 1.5"/>
    </g>
    <g id="text_21">
     <!-- -1 sd -->
     <g transform="translate(364.779375 72.748563) scale(0.1 -0.1)">
      <defs>
       <path id="DejaVuSans-2d" d="M 313 2009 
L 1997 2009 
L 1997 1497 
L 313 1497 
L 313 2009 
z
" transform="scale(0.015625)"/>
      </defs>
      <use xlink:href="#DejaVuSans-2d"/>
      <use xlink:href="#DejaVuSans-31" x="36.083984"/>
      <use xlink:href="#DejaVuSans-20" x="99.707031"/>
      <use xlink:href="#DejaVuSans-73" x="131.494141"/>
      <use xlink:href="#DejaVuSans-64" x="183.59375"/>
     </g>
    </g>
    <g id="line2d_39">
     <path d="M 336.779375 83.926688 
L 346.779375 83.926688 
L 356.779375 83.926688 
" style="fill: none; stroke-dasharray: 9.6,2.4,1.5,2.4; stroke-dashoffset: 0; stroke: #008000; stroke-width: 1.5"/>
    </g>
    <g id="text_22">
     <!-- +1 sd -->
     <g transform="translate(364.779375 87.426688) scale(0.1 -0.1)">
      <defs>
       <path id="DejaVuSans-2b" d="M 2944 4013 
L 2944 2272 
L 4684 2272 
L 4684 1741 
L 2944 1741 
L 2944 0 
L 2419 0 
L 2419 1741 
L 678 1741 
L 678 2272 
L 2419 2272 
L 2419 4013 
L 2944 4013 
z
" transform="scale(0.015625)"/>
      </defs>
      <use xlink:href="#DejaVuSans-2b"/>
      <use xlink:href="#DejaVuSans-31" x="83.789062"/>
      <use xlink:href="#DejaVuSans-20" x="147.412109"/>
      <use xlink:href="#DejaVuSans-73" x="179.199219"/>
      <use xlink:href="#DejaVuSans-64" x="231.298828"/>
     </g>
    </g>
    <g id="line2d_40">
     <path d="M 336.779375 98.604813 
L 346.779375 98.604813 
L 356.779375 98.604813 
" style="fill: none; stroke: #ff0000; stroke-width: 1.5; stroke-linecap: square"/>
    </g>
    <g id="text_23">
     <!-- best -->
     <g transform="translate(364.779375 102.104813) scale(0.1 -0.1)">
      <use xlink:href="#DejaVuSans-62"/>
      <use xlink:href="#DejaVuSans-65" x="63.476562"/>
      <use xlink:href="#DejaVuSans-73" x="125"/>
      <use xlink:href="#DejaVuSans-74" x="177.099609"/>
     </g>
    </g>
   </g>
  </g>
 </g>
 <defs>
  <clipPath id="p5dfbb6d2ee">
   <rect x="57.6" y="41.472" width="357.12" height="266.112"/>
  </clipPath>
 </defs>
</svg>
