<?xml version="1.0" encoding="utf-8" standalone="no"?>
<!DOCTYPE svg PUBLIC "-//W3C//DTD SVG 1.1//EN"
  "http://www.w3.org/Graphics/SVG/1.1/DTD/svg11.dtd">
<svg xmlns:xlink="http://www.w3.org/1999/xlink" width="460.8pt" height="345.6pt" viewBox="0 0 460.8 345.6" xmlns="http://www.w3.org/2000/svg" version="1.1">
 <metadata>
  <rdf:RDF xmlns:dc="http://purl.org/dc/elements/1.1/" xmlns:cc="http://creativecommons.org/ns#" xmlns:rdf="http://www.w3.org/1999/02/22-rdf-syntax-ns#">
   <cc:Work>
    <dc:type rdf:resource="http://purl.org/dc/dcmitype/StillImage"/>
    <dc:date>2024-08-02T20:15:38.570017</dc:date>
    <dc:format>image/svg+xml</dc:format>
    <dc:creator>
     <cc:Agent>
      <dc:title>Matplotlib v3.8.4, https://matplotlib.org/</dc:title>
     </cc:Agent>
    </dc:creator>
   </cc:Work>
  </rdf:RDF>
 </metadata>
 <defs>
  <style type="text/css">*{stroke-linejoin: round; stroke-linecap: butt}</style>
 </defs>
 <g id="figure_1">
  <g id="patch_1">
   <path d="M 0 345.6 
L 460.8 345.6 
L 460.8 0 
L 0 0 
z
" style="fill: #ffffff"/>
  </g>
  <g id="axes_1">
   <g id="patch_2">
    <path d="M 57.6 307.584 
L 414.72 307.584 
L 414.72 41.472 
L 57.6 41.472 
z
" style="fill: #ffffff"/>
   </g>
   <g id="matplotlib.axis_1">
    <g id="xtick_1">
     <g id="line2d_1">
      <path d="M 73.832727 307.584 
L 73.832727 41.472 
" clip-path="url(#p0b5a0269ee)" style="fill: none; stroke: #b0b0b0; stroke-width: 0.8; stroke-linecap: square"/>
     </g>
     <g id="line2d_2">
      <defs>
       <path id="m1c3e4e1a41" d="M 0 0 
L 0 3.5 
" style="stroke: #000000; stroke-width: 0.8"/>
      </defs>
      <g>
       <use xlink:href="#m1c3e4e1a41" x="73.832727" y="307.584" style="stroke: #000000; stroke-width: 0.8"/>
      </g>
     </g>
     <g id="text_1">
      <!-- 0 -->
      <g transform="translate(70.651477 322.182437) scale(0.1 -0.1)">
       <defs>
        <path id="DejaVuSans-30" d="M 2034 4250 
Q 1547 4250 1301 3770 
Q 1056 3291 1056 2328 
Q 1056 1369 1301 889 
Q 1547 409 2034 409 
Q 2525 409 2770 889 
Q 3016 1369 3016 2328 
Q 3016 3291 2770 3770 
Q 2525 4250 2034 4250 
z
M 2034 4750 
Q 2819 4750 3233 4129 
Q 3647 3509 3647 2328 
Q 3647 1150 3233 529 
Q 2819 -91 2034 -91 
Q 1250 -91 836 529 
Q 422 1150 422 2328 
Q 422 3509 836 4129 
Q 1250 4750 2034 4750 
z
" transform="scale(0.015625)"/>
       </defs>
       <use xlink:href="#DejaVuSans-30"/>
      </g>
     </g>
    </g>
    <g id="xtick_2">
     <g id="line2d_3">
      <path d="M 114.618474 307.584 
L 114.618474 41.472 
" clip-path="url(#p0b5a0269ee)" style="fill: none; stroke: #b0b0b0; stroke-width: 0.8; stroke-linecap: square"/>
     </g>
     <g id="line2d_4">
      <g>
       <use xlink:href="#m1c3e4e1a41" x="114.618474" y="307.584" style="stroke: #000000; stroke-width: 0.8"/>
      </g>
     </g>
     <g id="text_2">
      <!-- 25 -->
      <g transform="translate(108.255974 322.182437) scale(0.1 -0.1)">
       <defs>
        <path id="DejaVuSans-32" d="M 1228 531 
L 3431 531 
L 3431 0 
L 469 0 
L 469 531 
Q 828 903 1448 1529 
Q 2069 2156 2228 2338 
Q 2531 2678 2651 2914 
Q 2772 3150 2772 3378 
Q 2772 3750 2511 3984 
Q 2250 4219 1831 4219 
Q 1534 4219 1204 4116 
Q 875 4013 500 3803 
L 500 4441 
Q 881 4594 1212 4672 
Q 1544 4750 1819 4750 
Q 2544 4750 2975 4387 
Q 3406 4025 3406 3419 
Q 3406 3131 3298 2873 
Q 3191 2616 2906 2266 
Q 2828 2175 2409 1742 
Q 1991 1309 1228 531 
z
" transform="scale(0.015625)"/>
        <path id="DejaVuSans-35" d="M 691 4666 
L 3169 4666 
L 3169 4134 
L 1269 4134 
L 1269 2991 
Q 1406 3038 1543 3061 
Q 1681 3084 1819 3084 
Q 2600 3084 3056 2656 
Q 3513 2228 3513 1497 
Q 3513 744 3044 326 
Q 2575 -91 1722 -91 
Q 1428 -91 1123 -41 
Q 819 9 494 109 
L 494 744 
Q 775 591 1075 516 
Q 1375 441 1709 441 
Q 2250 441 2565 725 
Q 2881 1009 2881 1497 
Q 2881 1984 2565 2268 
Q 2250 2553 1709 2553 
Q 1456 2553 1204 2497 
Q 953 2441 691 2322 
L 691 4666 
z
" transform="scale(0.015625)"/>
       </defs>
       <use xlink:href="#DejaVuSans-32"/>
       <use xlink:href="#DejaVuSans-35" x="63.623047"/>
      </g>
     </g>
    </g>
    <g id="xtick_3">
     <g id="line2d_5">
      <path d="M 155.404221 307.584 
L 155.404221 41.472 
" clip-path="url(#p0b5a0269ee)" style="fill: none; stroke: #b0b0b0; stroke-width: 0.8; stroke-linecap: square"/>
     </g>
     <g id="line2d_6">
      <g>
       <use xlink:href="#m1c3e4e1a41" x="155.404221" y="307.584" style="stroke: #000000; stroke-width: 0.8"/>
      </g>
     </g>
     <g id="text_3">
      <!-- 50 -->
      <g transform="translate(149.041721 322.182437) scale(0.1 -0.1)">
       <use xlink:href="#DejaVuSans-35"/>
       <use xlink:href="#DejaVuSans-30" x="63.623047"/>
      </g>
     </g>
    </g>
    <g id="xtick_4">
     <g id="line2d_7">
      <path d="M 196.189968 307.584 
L 196.189968 41.472 
" clip-path="url(#p0b5a0269ee)" style="fill: none; stroke: #b0b0b0; stroke-width: 0.8; stroke-linecap: square"/>
     </g>
     <g id="line2d_8">
      <g>
       <use xlink:href="#m1c3e4e1a41" x="196.189968" y="307.584" style="stroke: #000000; stroke-width: 0.8"/>
      </g>
     </g>
     <g id="text_4">
      <!-- 75 -->
      <g transform="translate(189.827468 322.182437) scale(0.1 -0.1)">
       <defs>
        <path id="DejaVuSans-37" d="M 525 4666 
L 3525 4666 
L 3525 4397 
L 1831 0 
L 1172 0 
L 2766 4134 
L 525 4134 
L 525 4666 
z
" transform="scale(0.015625)"/>
       </defs>
       <use xlink:href="#DejaVuSans-37"/>
       <use xlink:href="#DejaVuSans-35" x="63.623047"/>
      </g>
     </g>
    </g>
    <g id="xtick_5">
     <g id="line2d_9">
      <path d="M 236.975715 307.584 
L 236.975715 41.472 
" clip-path="url(#p0b5a0269ee)" style="fill: none; stroke: #b0b0b0; stroke-width: 0.8; stroke-linecap: square"/>
     </g>
     <g id="line2d_10">
      <g>
       <use xlink:href="#m1c3e4e1a41" x="236.975715" y="307.584" style="stroke: #000000; stroke-width: 0.8"/>
      </g>
     </g>
     <g id="text_5">
      <!-- 100 -->
      <g transform="translate(227.431965 322.182437) scale(0.1 -0.1)">
       <defs>
        <path id="DejaVuSans-31" d="M 794 531 
L 1825 531 
L 1825 4091 
L 703 3866 
L 703 4441 
L 1819 4666 
L 2450 4666 
L 2450 531 
L 3481 531 
L 3481 0 
L 794 0 
L 794 531 
z
" transform="scale(0.015625)"/>
       </defs>
       <use xlink:href="#DejaVuSans-31"/>
       <use xlink:href="#DejaVuSans-30" x="63.623047"/>
       <use xlink:href="#DejaVuSans-30" x="127.246094"/>
      </g>
     </g>
    </g>
    <g id="xtick_6">
     <g id="line2d_11">
      <path d="M 277.761462 307.584 
L 277.761462 41.472 
" clip-path="url(#p0b5a0269ee)" style="fill: none; stroke: #b0b0b0; stroke-width: 0.8; stroke-linecap: square"/>
     </g>
     <g id="line2d_12">
      <g>
       <use xlink:href="#m1c3e4e1a41" x="277.761462" y="307.584" style="stroke: #000000; stroke-width: 0.8"/>
      </g>
     </g>
     <g id="text_6">
      <!-- 125 -->
      <g transform="translate(268.217712 322.182437) scale(0.1 -0.1)">
       <use xlink:href="#DejaVuSans-31"/>
       <use xlink:href="#DejaVuSans-32" x="63.623047"/>
       <use xlink:href="#DejaVuSans-35" x="127.246094"/>
      </g>
     </g>
    </g>
    <g id="xtick_7">
     <g id="line2d_13">
      <path d="M 318.547209 307.584 
L 318.547209 41.472 
" clip-path="url(#p0b5a0269ee)" style="fill: none; stroke: #b0b0b0; stroke-width: 0.8; stroke-linecap: square"/>
     </g>
     <g id="line2d_14">
      <g>
       <use xlink:href="#m1c3e4e1a41" x="318.547209" y="307.584" style="stroke: #000000; stroke-width: 0.8"/>
      </g>
     </g>
     <g id="text_7">
      <!-- 150 -->
      <g transform="translate(309.003459 322.182437) scale(0.1 -0.1)">
       <use xlink:href="#DejaVuSans-31"/>
       <use xlink:href="#DejaVuSans-35" x="63.623047"/>
       <use xlink:href="#DejaVuSans-30" x="127.246094"/>
      </g>
     </g>
    </g>
    <g id="xtick_8">
     <g id="line2d_15">
      <path d="M 359.332956 307.584 
L 359.332956 41.472 
" clip-path="url(#p0b5a0269ee)" style="fill: none; stroke: #b0b0b0; stroke-width: 0.8; stroke-linecap: square"/>
     </g>
     <g id="line2d_16">
      <g>
       <use xlink:href="#m1c3e4e1a41" x="359.332956" y="307.584" style="stroke: #000000; stroke-width: 0.8"/>
      </g>
     </g>
     <g id="text_8">
      <!-- 175 -->
      <g transform="translate(349.789206 322.182437) scale(0.1 -0.1)">
       <use xlink:href="#DejaVuSans-31"/>
       <use xlink:href="#DejaVuSans-37" x="63.623047"/>
       <use xlink:href="#DejaVuSans-35" x="127.246094"/>
      </g>
     </g>
    </g>
    <g id="xtick_9">
     <g id="line2d_17">
      <path d="M 400.118703 307.584 
L 400.118703 41.472 
" clip-path="url(#p0b5a0269ee)" style="fill: none; stroke: #b0b0b0; stroke-width: 0.8; stroke-linecap: square"/>
     </g>
     <g id="line2d_18">
      <g>
       <use xlink:href="#m1c3e4e1a41" x="400.118703" y="307.584" style="stroke: #000000; stroke-width: 0.8"/>
      </g>
     </g>
     <g id="text_9">
      <!-- 200 -->
      <g transform="translate(390.574953 322.182437) scale(0.1 -0.1)">
       <use xlink:href="#DejaVuSans-32"/>
       <use xlink:href="#DejaVuSans-30" x="63.623047"/>
       <use xlink:href="#DejaVuSans-30" x="127.246094"/>
      </g>
     </g>
    </g>
    <g id="text_10">
     <!-- Generations -->
     <g transform="translate(205.662344 335.860562) scale(0.1 -0.1)">
      <defs>
       <path id="DejaVuSans-47" d="M 3809 666 
L 3809 1919 
L 2778 1919 
L 2778 2438 
L 4434 2438 
L 4434 434 
Q 4069 175 3628 42 
Q 3188 -91 2688 -91 
Q 1594 -91 976 548 
Q 359 1188 359 2328 
Q 359 3472 976 4111 
Q 1594 4750 2688 4750 
Q 3144 4750 3555 4637 
Q 3966 4525 4313 4306 
L 4313 3634 
Q 3963 3931 3569 4081 
Q 3175 4231 2741 4231 
Q 1884 4231 1454 3753 
Q 1025 3275 1025 2328 
Q 1025 1384 1454 906 
Q 1884 428 2741 428 
Q 3075 428 3337 486 
Q 3600 544 3809 666 
z
" transform="scale(0.015625)"/>
       <path id="DejaVuSans-65" d="M 3597 1894 
L 3597 1613 
L 953 1613 
Q 991 1019 1311 708 
Q 1631 397 2203 397 
Q 2534 397 2845 478 
Q 3156 559 3463 722 
L 3463 178 
Q 3153 47 2828 -22 
Q 2503 -91 2169 -91 
Q 1331 -91 842 396 
Q 353 884 353 1716 
Q 353 2575 817 3079 
Q 1281 3584 2069 3584 
Q 2775 3584 3186 3129 
Q 3597 2675 3597 1894 
z
M 3022 2063 
Q 3016 2534 2758 2815 
Q 2500 3097 2075 3097 
Q 1594 3097 1305 2825 
Q 1016 2553 972 2059 
L 3022 2063 
z
" transform="scale(0.015625)"/>
       <path id="DejaVuSans-6e" d="M 3513 2113 
L 3513 0 
L 2938 0 
L 2938 2094 
Q 2938 2591 2744 2837 
Q 2550 3084 2163 3084 
Q 1697 3084 1428 2787 
Q 1159 2491 1159 1978 
L 1159 0 
L 581 0 
L 581 3500 
L 1159 3500 
L 1159 2956 
Q 1366 3272 1645 3428 
Q 1925 3584 2291 3584 
Q 2894 3584 3203 3211 
Q 3513 2838 3513 2113 
z
" transform="scale(0.015625)"/>
       <path id="DejaVuSans-72" d="M 2631 2963 
Q 2534 3019 2420 3045 
Q 2306 3072 2169 3072 
Q 1681 3072 1420 2755 
Q 1159 2438 1159 1844 
L 1159 0 
L 581 0 
L 581 3500 
L 1159 3500 
L 1159 2956 
Q 1341 3275 1631 3429 
Q 1922 3584 2338 3584 
Q 2397 3584 2469 3576 
Q 2541 3569 2628 3553 
L 2631 2963 
z
" transform="scale(0.015625)"/>
       <path id="DejaVuSans-61" d="M 2194 1759 
Q 1497 1759 1228 1600 
Q 959 1441 959 1056 
Q 959 750 1161 570 
Q 1363 391 1709 391 
Q 2188 391 2477 730 
Q 2766 1069 2766 1631 
L 2766 1759 
L 2194 1759 
z
M 3341 1997 
L 3341 0 
L 2766 0 
L 2766 531 
Q 2569 213 2275 61 
Q 1981 -91 1556 -91 
Q 1019 -91 701 211 
Q 384 513 384 1019 
Q 384 1609 779 1909 
Q 1175 2209 1959 2209 
L 2766 2209 
L 2766 2266 
Q 2766 2663 2505 2880 
Q 2244 3097 1772 3097 
Q 1472 3097 1187 3025 
Q 903 2953 641 2809 
L 641 3341 
Q 956 3463 1253 3523 
Q 1550 3584 1831 3584 
Q 2591 3584 2966 3190 
Q 3341 2797 3341 1997 
z
" transform="scale(0.015625)"/>
       <path id="DejaVuSans-74" d="M 1172 4494 
L 1172 3500 
L 2356 3500 
L 2356 3053 
L 1172 3053 
L 1172 1153 
Q 1172 725 1289 603 
Q 1406 481 1766 481 
L 2356 481 
L 2356 0 
L 1766 0 
Q 1100 0 847 248 
Q 594 497 594 1153 
L 594 3053 
L 172 3053 
L 172 3500 
L 594 3500 
L 594 4494 
L 1172 4494 
z
" transform="scale(0.015625)"/>
       <path id="DejaVuSans-69" d="M 603 3500 
L 1178 3500 
L 1178 0 
L 603 0 
L 603 3500 
z
M 603 4863 
L 1178 4863 
L 1178 4134 
L 603 4134 
L 603 4863 
z
" transform="scale(0.015625)"/>
       <path id="DejaVuSans-6f" d="M 1959 3097 
Q 1497 3097 1228 2736 
Q 959 2375 959 1747 
Q 959 1119 1226 758 
Q 1494 397 1959 397 
Q 2419 397 2687 759 
Q 2956 1122 2956 1747 
Q 2956 2369 2687 2733 
Q 2419 3097 1959 3097 
z
M 1959 3584 
Q 2709 3584 3137 3096 
Q 3566 2609 3566 1747 
Q 3566 888 3137 398 
Q 2709 -91 1959 -91 
Q 1206 -91 779 398 
Q 353 888 353 1747 
Q 353 2609 779 3096 
Q 1206 3584 1959 3584 
z
" transform="scale(0.015625)"/>
       <path id="DejaVuSans-73" d="M 2834 3397 
L 2834 2853 
Q 2591 2978 2328 3040 
Q 2066 3103 1784 3103 
Q 1356 3103 1142 2972 
Q 928 2841 928 2578 
Q 928 2378 1081 2264 
Q 1234 2150 1697 2047 
L 1894 2003 
Q 2506 1872 2764 1633 
Q 3022 1394 3022 966 
Q 3022 478 2636 193 
Q 2250 -91 1575 -91 
Q 1294 -91 989 -36 
Q 684 19 347 128 
L 347 722 
Q 666 556 975 473 
Q 1284 391 1588 391 
Q 1994 391 2212 530 
Q 2431 669 2431 922 
Q 2431 1156 2273 1281 
Q 2116 1406 1581 1522 
L 1381 1569 
Q 847 1681 609 1914 
Q 372 2147 372 2553 
Q 372 3047 722 3315 
Q 1072 3584 1716 3584 
Q 2034 3584 2315 3537 
Q 2597 3491 2834 3397 
z
" transform="scale(0.015625)"/>
      </defs>
      <use xlink:href="#DejaVuSans-47"/>
      <use xlink:href="#DejaVuSans-65" x="77.490234"/>
      <use xlink:href="#DejaVuSans-6e" x="139.013672"/>
      <use xlink:href="#DejaVuSans-65" x="202.392578"/>
      <use xlink:href="#DejaVuSans-72" x="263.916016"/>
      <use xlink:href="#DejaVuSans-61" x="305.029297"/>
      <use xlink:href="#DejaVuSans-74" x="366.308594"/>
      <use xlink:href="#DejaVuSans-69" x="405.517578"/>
      <use xlink:href="#DejaVuSans-6f" x="433.300781"/>
      <use xlink:href="#DejaVuSans-6e" x="494.482422"/>
      <use xlink:href="#DejaVuSans-73" x="557.861328"/>
     </g>
    </g>
   </g>
   <g id="matplotlib.axis_2">
    <g id="ytick_1">
     <g id="line2d_19">
      <path d="M 57.6 287.285114 
L 414.72 287.285114 
" clip-path="url(#p0b5a0269ee)" style="fill: none; stroke: #b0b0b0; stroke-width: 0.8; stroke-linecap: square"/>
     </g>
     <g id="line2d_20">
      <defs>
       <path id="m29693825ba" d="M 0 0 
L -3.5 0 
" style="stroke: #000000; stroke-width: 0.8"/>
      </defs>
      <g>
       <use xlink:href="#m29693825ba" x="57.6" y="287.285114" style="stroke: #000000; stroke-width: 0.8"/>
      </g>
     </g>
     <g id="text_11">
      <!-- −2000 -->
      <g transform="translate(16.770313 291.084333) scale(0.1 -0.1)">
       <defs>
        <path id="DejaVuSans-2212" d="M 678 2272 
L 4684 2272 
L 4684 1741 
L 678 1741 
L 678 2272 
z
" transform="scale(0.015625)"/>
       </defs>
       <use xlink:href="#DejaVuSans-2212"/>
       <use xlink:href="#DejaVuSans-32" x="83.789062"/>
       <use xlink:href="#DejaVuSans-30" x="147.412109"/>
       <use xlink:href="#DejaVuSans-30" x="211.035156"/>
       <use xlink:href="#DejaVuSans-30" x="274.658203"/>
      </g>
     </g>
    </g>
    <g id="ytick_2">
     <g id="line2d_21">
      <path d="M 57.6 251.222507 
L 414.72 251.222507 
" clip-path="url(#p0b5a0269ee)" style="fill: none; stroke: #b0b0b0; stroke-width: 0.8; stroke-linecap: square"/>
     </g>
     <g id="line2d_22">
      <g>
       <use xlink:href="#m29693825ba" x="57.6" y="251.222507" style="stroke: #000000; stroke-width: 0.8"/>
      </g>
     </g>
     <g id="text_12">
      <!-- −1750 -->
      <g transform="translate(16.770313 255.021725) scale(0.1 -0.1)">
       <use xlink:href="#DejaVuSans-2212"/>
       <use xlink:href="#DejaVuSans-31" x="83.789062"/>
       <use xlink:href="#DejaVuSans-37" x="147.412109"/>
       <use xlink:href="#DejaVuSans-35" x="211.035156"/>
       <use xlink:href="#DejaVuSans-30" x="274.658203"/>
      </g>
     </g>
    </g>
    <g id="ytick_3">
     <g id="line2d_23">
      <path d="M 57.6 215.159899 
L 414.72 215.159899 
" clip-path="url(#p0b5a0269ee)" style="fill: none; stroke: #b0b0b0; stroke-width: 0.8; stroke-linecap: square"/>
     </g>
     <g id="line2d_24">
      <g>
       <use xlink:href="#m29693825ba" x="57.6" y="215.159899" style="stroke: #000000; stroke-width: 0.8"/>
      </g>
     </g>
     <g id="text_13">
      <!-- −1500 -->
      <g transform="translate(16.770313 218.959118) scale(0.1 -0.1)">
       <use xlink:href="#DejaVuSans-2212"/>
       <use xlink:href="#DejaVuSans-31" x="83.789062"/>
       <use xlink:href="#DejaVuSans-35" x="147.412109"/>
       <use xlink:href="#DejaVuSans-30" x="211.035156"/>
       <use xlink:href="#DejaVuSans-30" x="274.658203"/>
      </g>
     </g>
    </g>
    <g id="ytick_4">
     <g id="line2d_25">
      <path d="M 57.6 179.097292 
L 414.72 179.097292 
" clip-path="url(#p0b5a0269ee)" style="fill: none; stroke: #b0b0b0; stroke-width: 0.8; stroke-linecap: square"/>
     </g>
     <g id="line2d_26">
      <g>
       <use xlink:href="#m29693825ba" x="57.6" y="179.097292" style="stroke: #000000; stroke-width: 0.8"/>
      </g>
     </g>
     <g id="text_14">
      <!-- −1250 -->
      <g transform="translate(16.770313 182.896511) scale(0.1 -0.1)">
       <use xlink:href="#DejaVuSans-2212"/>
       <use xlink:href="#DejaVuSans-31" x="83.789062"/>
       <use xlink:href="#DejaVuSans-32" x="147.412109"/>
       <use xlink:href="#DejaVuSans-35" x="211.035156"/>
       <use xlink:href="#DejaVuSans-30" x="274.658203"/>
      </g>
     </g>
    </g>
    <g id="ytick_5">
     <g id="line2d_27">
      <path d="M 57.6 143.034685 
L 414.72 143.034685 
" clip-path="url(#p0b5a0269ee)" style="fill: none; stroke: #b0b0b0; stroke-width: 0.8; stroke-linecap: square"/>
     </g>
     <g id="line2d_28">
      <g>
       <use xlink:href="#m29693825ba" x="57.6" y="143.034685" style="stroke: #000000; stroke-width: 0.8"/>
      </g>
     </g>
     <g id="text_15">
      <!-- −1000 -->
      <g transform="translate(16.770313 146.833904) scale(0.1 -0.1)">
       <use xlink:href="#DejaVuSans-2212"/>
       <use xlink:href="#DejaVuSans-31" x="83.789062"/>
       <use xlink:href="#DejaVuSans-30" x="147.412109"/>
       <use xlink:href="#DejaVuSans-30" x="211.035156"/>
       <use xlink:href="#DejaVuSans-30" x="274.658203"/>
      </g>
     </g>
    </g>
    <g id="ytick_6">
     <g id="line2d_29">
      <path d="M 57.6 106.972078 
L 414.72 106.972078 
" clip-path="url(#p0b5a0269ee)" style="fill: none; stroke: #b0b0b0; stroke-width: 0.8; stroke-linecap: square"/>
     </g>
     <g id="line2d_30">
      <g>
       <use xlink:href="#m29693825ba" x="57.6" y="106.972078" style="stroke: #000000; stroke-width: 0.8"/>
      </g>
     </g>
     <g id="text_16">
      <!-- −750 -->
      <g transform="translate(23.132812 110.771297) scale(0.1 -0.1)">
       <use xlink:href="#DejaVuSans-2212"/>
       <use xlink:href="#DejaVuSans-37" x="83.789062"/>
       <use xlink:href="#DejaVuSans-35" x="147.412109"/>
       <use xlink:href="#DejaVuSans-30" x="211.035156"/>
      </g>
     </g>
    </g>
    <g id="ytick_7">
     <g id="line2d_31">
      <path d="M 57.6 70.909471 
L 414.72 70.909471 
" clip-path="url(#p0b5a0269ee)" style="fill: none; stroke: #b0b0b0; stroke-width: 0.8; stroke-linecap: square"/>
     </g>
     <g id="line2d_32">
      <g>
       <use xlink:href="#m29693825ba" x="57.6" y="70.909471" style="stroke: #000000; stroke-width: 0.8"/>
      </g>
     </g>
     <g id="text_17">
      <!-- −500 -->
      <g transform="translate(23.132812 74.708689) scale(0.1 -0.1)">
       <use xlink:href="#DejaVuSans-2212"/>
       <use xlink:href="#DejaVuSans-35" x="83.789062"/>
       <use xlink:href="#DejaVuSans-30" x="147.412109"/>
       <use xlink:href="#DejaVuSans-30" x="211.035156"/>
      </g>
     </g>
    </g>
    <g id="text_18">
     <!-- Fitness -->
     <g transform="translate(10.690625 191.845187) rotate(-90) scale(0.1 -0.1)">
      <defs>
       <path id="DejaVuSans-46" d="M 628 4666 
L 3309 4666 
L 3309 4134 
L 1259 4134 
L 1259 2759 
L 3109 2759 
L 3109 2228 
L 1259 2228 
L 1259 0 
L 628 0 
L 628 4666 
z
" transform="scale(0.015625)"/>
      </defs>
      <use xlink:href="#DejaVuSans-46"/>
      <use xlink:href="#DejaVuSans-69" x="50.269531"/>
      <use xlink:href="#DejaVuSans-74" x="78.052734"/>
      <use xlink:href="#DejaVuSans-6e" x="117.261719"/>
      <use xlink:href="#DejaVuSans-65" x="180.640625"/>
      <use xlink:href="#DejaVuSans-73" x="242.164062"/>
      <use xlink:href="#DejaVuSans-73" x="294.263672"/>
     </g>
    </g>
   </g>
   <g id="line2d_33">
    <path d="M 73.832727 270.575325 
L 75.464157 269.07888 
L 77.095587 267.89109 
L 78.727017 265.149799 
L 80.358447 263.796662 
L 81.989877 263.747545 
L 83.621307 263.398515 
L 85.252736 263.261588 
L 86.884166 261.015971 
L 88.515596 261.767732 
L 90.147026 262.326386 
L 91.778456 262.234925 
L 93.409886 261.265009 
L 95.041316 262.95986 
L 96.672746 263.510351 
L 98.304175 263.906619 
L 99.935605 263.351117 
L 101.567035 263.994446 
L 103.198465 263.37003 
L 104.829895 263.611369 
L 106.461325 264.197898 
L 108.092755 262.853538 
L 109.724185 263.35002 
L 111.355614 262.958497 
L 112.987044 262.716519 
L 114.618474 261.854679 
L 116.249904 262.629393 
L 117.881334 262.455347 
L 119.512764 262.393622 
L 121.144194 261.914709 
L 122.775624 262.454917 
L 124.407053 263.618956 
L 126.038483 260.902615 
L 127.669913 260.374432 
L 129.301343 260.593046 
L 130.932773 261.120858 
L 132.564203 260.797884 
L 134.195633 261.51723 
L 135.827063 261.909569 
L 137.458492 261.063034 
L 139.089922 261.125777 
L 140.721352 260.709204 
L 142.352782 260.9392 
L 143.984212 261.481063 
L 145.615642 261.855839 
L 147.247072 260.845713 
L 148.878502 262.167995 
L 150.509931 261.286176 
L 152.141361 260.272712 
L 153.772791 260.639384 
L 155.404221 261.24435 
L 157.035651 259.497271 
L 158.667081 259.947693 
L 160.298511 260.206536 
L 161.929941 260.887168 
L 163.56137 260.075098 
L 165.1928 260.21747 
L 166.82423 259.633834 
L 168.45566 258.089714 
L 170.08709 257.63519 
L 171.71852 257.994861 
L 173.34995 261.055246 
L 174.98138 262.028533 
L 176.61281 260.607975 
L 178.244239 261.635585 
L 179.875669 261.05261 
L 181.507099 259.694591 
L 183.138529 258.85153 
L 184.769959 259.324718 
L 186.401389 259.384108 
L 188.032819 259.187913 
L 189.664249 259.135236 
L 191.295678 260.308907 
L 194.558538 260.29731 
L 196.189968 258.636226 
L 197.821398 259.485028 
L 199.452828 261.820451 
L 201.084258 261.454068 
L 202.715688 260.37032 
L 204.347117 262.113913 
L 205.978547 262.16036 
L 207.609977 260.469293 
L 209.241407 261.323954 
L 210.872837 260.777155 
L 212.504267 261.231408 
L 214.135697 260.178242 
L 215.767127 260.997822 
L 217.398556 261.361735 
L 220.661416 261.494977 
L 222.292846 260.40016 
L 223.924276 261.90226 
L 225.555706 261.546587 
L 227.187136 259.094151 
L 228.818566 259.987849 
L 232.081425 259.123115 
L 233.712855 257.309216 
L 235.344285 259.410691 
L 236.975715 257.810219 
L 238.607145 258.987659 
L 241.870005 260.627249 
L 243.501434 260.5234 
L 245.132864 260.025308 
L 246.764294 260.264043 
L 248.395724 258.937437 
L 250.027154 258.613143 
L 251.658584 259.863983 
L 253.290014 257.235934 
L 254.921444 260.264442 
L 256.552873 259.468657 
L 258.184303 259.921741 
L 259.815733 258.932355 
L 261.447163 259.603255 
L 263.078593 255.799208 
L 264.710023 258.823672 
L 266.341453 260.237692 
L 267.972883 260.905267 
L 269.604312 260.237919 
L 271.235742 259.934796 
L 272.867172 259.850666 
L 274.498602 258.918235 
L 277.761462 259.498802 
L 279.392892 259.572871 
L 281.024322 258.679735 
L 282.655751 260.47005 
L 284.287181 259.605279 
L 285.918611 259.846554 
L 287.550041 260.554816 
L 289.181471 259.657812 
L 290.812901 260.001387 
L 292.444331 259.805938 
L 294.075761 259.463647 
L 295.70719 258.332555 
L 297.33862 259.758972 
L 298.97005 260.3715 
L 300.60148 258.579562 
L 302.23291 259.511875 
L 303.86434 259.338564 
L 305.49577 258.542606 
L 307.1272 259.76201 
L 308.75863 258.646842 
L 310.390059 259.04266 
L 312.021489 260.738042 
L 313.652919 260.399016 
L 315.284349 258.850884 
L 316.915779 260.689625 
L 318.547209 261.179435 
L 320.178639 258.638395 
L 321.810069 258.539042 
L 323.441498 260.509569 
L 325.072928 259.145823 
L 326.704358 261.15125 
L 328.335788 260.556507 
L 329.967218 261.188637 
L 331.598648 260.475309 
L 333.230078 261.049874 
L 334.861508 261.498994 
L 338.124367 260.803897 
L 341.387227 261.064064 
L 343.018657 261.276478 
L 344.650087 260.870191 
L 346.281517 261.133271 
L 347.912947 260.873471 
L 349.544376 260.418444 
L 351.175806 261.303431 
L 352.807236 261.05046 
L 354.438666 260.02812 
L 356.070096 260.345697 
L 357.701526 261.05422 
L 359.332956 259.8434 
L 360.964386 259.316984 
L 362.595815 259.380387 
L 364.227245 260.286994 
L 365.858675 261.928493 
L 367.490105 261.024532 
L 370.752965 260.97425 
L 372.384395 261.672673 
L 374.015825 261.354524 
L 375.647254 260.876173 
L 377.278684 261.734043 
L 378.910114 260.569277 
L 380.541544 262.157809 
L 382.172974 262.198269 
L 383.804404 262.393075 
L 385.435834 261.952325 
L 387.067264 261.888869 
L 388.698693 260.776354 
L 390.330123 261.470927 
L 391.961553 260.755375 
L 393.592983 262.270757 
L 395.224413 262.243327 
L 396.855843 260.032941 
L 398.487273 260.907997 
L 398.487273 260.907997 
" clip-path="url(#p0b5a0269ee)" style="fill: none; stroke: #0000ff; stroke-width: 1.5; stroke-linecap: square"/>
   </g>
   <g id="line2d_34">
    <path d="M 73.832727 284.136166 
L 75.464157 281.704739 
L 77.095587 280.574051 
L 78.727017 278.276445 
L 80.358447 280.040509 
L 81.989877 278.647535 
L 83.621307 279.272608 
L 85.252736 277.972334 
L 86.884166 283.098652 
L 88.515596 283.103013 
L 90.147026 283.519141 
L 91.778456 282.100301 
L 93.409886 284.927086 
L 95.041316 280.865018 
L 98.304175 281.173761 
L 99.935605 279.06525 
L 101.567035 279.916321 
L 103.198465 279.475708 
L 104.829895 279.485549 
L 106.461325 280.1486 
L 108.092755 279.395299 
L 109.724185 280.798946 
L 111.355614 280.18186 
L 112.987044 282.279423 
L 114.618474 281.879206 
L 116.249904 281.278032 
L 117.881334 281.519713 
L 119.512764 281.98926 
L 121.144194 281.8411 
L 124.407053 283.635559 
L 126.038483 286.465419 
L 127.669913 286.939542 
L 129.301343 285.777546 
L 130.932773 285.870216 
L 132.564203 287.082826 
L 134.195633 282.542088 
L 135.827063 283.031233 
L 137.458492 284.93326 
L 139.089922 282.701081 
L 140.721352 282.534343 
L 143.984212 283.52394 
L 145.615642 284.67321 
L 147.247072 283.297196 
L 148.878502 283.723956 
L 150.509931 286.856084 
L 152.141361 286.040105 
L 153.772791 285.61384 
L 155.404221 286.673496 
L 157.035651 288.251688 
L 158.667081 286.046575 
L 160.298511 286.408691 
L 161.929941 287.15906 
L 165.1928 286.619646 
L 166.82423 288.693629 
L 168.45566 292.450673 
L 170.08709 290.015103 
L 171.71852 289.777862 
L 173.34995 287.148115 
L 174.98138 288.764291 
L 176.61281 287.860394 
L 178.244239 287.921339 
L 179.875669 287.242708 
L 181.507099 291.418524 
L 183.138529 290.46699 
L 184.769959 290.920585 
L 188.032819 290.442592 
L 189.664249 290.042413 
L 191.295678 288.989997 
L 192.927108 289.779558 
L 194.558538 289.300385 
L 196.189968 289.791512 
L 197.821398 288.875777 
L 199.452828 288.268012 
L 201.084258 287.95564 
L 202.715688 288.016112 
L 204.347117 288.45925 
L 205.978547 288.655368 
L 207.609977 286.690728 
L 209.241407 287.8314 
L 210.872837 286.465948 
L 212.504267 287.319042 
L 214.135697 286.878592 
L 215.767127 287.810678 
L 219.029986 287.892677 
L 220.661416 286.670217 
L 222.292846 289.339955 
L 223.924276 287.472494 
L 225.555706 287.658408 
L 227.187136 291.174512 
L 228.818566 292.03691 
L 230.449995 290.931711 
L 232.081425 291.329515 
L 233.712855 295.488 
L 235.344285 291.045632 
L 236.975715 293.21852 
L 238.607145 289.986337 
L 240.238575 290.453588 
L 241.870005 290.636124 
L 243.501434 290.456519 
L 245.132864 289.804373 
L 246.764294 290.078724 
L 248.395724 290.982153 
L 250.027154 292.222167 
L 251.658584 290.658785 
L 253.290014 294.523321 
L 254.921444 290.672903 
L 256.552873 291.949112 
L 258.184303 290.823502 
L 259.815733 293.41958 
L 261.447163 290.477801 
L 263.078593 294.857772 
L 264.710023 292.925829 
L 267.972883 289.936472 
L 269.604312 289.123542 
L 271.235742 290.430469 
L 272.867172 290.883827 
L 274.498602 289.722184 
L 276.130032 290.553869 
L 277.761462 291.741918 
L 281.024322 291.843327 
L 282.655751 290.166933 
L 284.287181 290.127592 
L 285.918611 288.568908 
L 287.550041 290.30017 
L 289.181471 290.552039 
L 290.812901 290.463071 
L 292.444331 289.292679 
L 294.075761 288.84817 
L 295.70719 291.15153 
L 297.33862 289.315264 
L 298.97005 289.211981 
L 300.60148 291.37992 
L 302.23291 290.741243 
L 303.86434 289.417549 
L 305.49577 293.149016 
L 307.1272 290.683924 
L 308.75863 293.257877 
L 310.390059 291.109029 
L 312.021489 290.034623 
L 313.652919 289.70165 
L 315.284349 289.955178 
L 316.915779 289.705882 
L 318.547209 291.236528 
L 320.178639 293.342937 
L 321.810069 292.189158 
L 323.441498 289.878695 
L 325.072928 292.209676 
L 326.704358 289.679403 
L 328.335788 288.369144 
L 329.967218 288.981131 
L 331.598648 289.123991 
L 333.230078 289.032671 
L 336.492937 285.842881 
L 338.124367 286.165452 
L 339.755797 285.871012 
L 341.387227 286.060384 
L 343.018657 286.664606 
L 344.650087 285.903462 
L 346.281517 287.764742 
L 347.912947 286.890861 
L 349.544376 289.961938 
L 351.175806 287.915326 
L 352.807236 288.539356 
L 354.438666 288.356664 
L 356.070096 287.388264 
L 357.701526 287.571641 
L 359.332956 288.563623 
L 362.595815 289.610509 
L 364.227245 288.102299 
L 365.858675 289.087123 
L 367.490105 288.658117 
L 369.121535 286.33524 
L 370.752965 287.046199 
L 372.384395 286.267857 
L 374.015825 285.982881 
L 375.647254 288.722465 
L 377.278684 286.241127 
L 378.910114 286.16661 
L 380.541544 284.112606 
L 382.172974 284.55934 
L 383.804404 284.470489 
L 385.435834 284.674155 
L 387.067264 284.293316 
L 388.698693 286.259092 
L 390.330123 287.682985 
L 391.961553 288.07912 
L 393.592983 285.149815 
L 395.224413 285.100236 
L 396.855843 288.800692 
L 398.487273 287.320457 
L 398.487273 287.320457 
" clip-path="url(#p0b5a0269ee)" style="fill: none; stroke-dasharray: 9.6,2.4,1.5,2.4; stroke-dashoffset: 0; stroke: #008000; stroke-width: 1.5"/>
   </g>
   <g id="line2d_35">
    <path d="M 73.832727 257.014485 
L 75.464157 256.453021 
L 77.095587 255.20813 
L 78.727017 252.023153 
L 80.358447 247.552814 
L 81.989877 248.847555 
L 83.621307 247.524422 
L 85.252736 248.550841 
L 86.884166 238.93329 
L 88.515596 240.432451 
L 90.147026 241.133631 
L 91.778456 242.369549 
L 93.409886 237.602933 
L 95.041316 245.054703 
L 96.672746 246.005846 
L 98.304175 246.639476 
L 99.935605 247.636985 
L 101.567035 248.072572 
L 103.198465 247.264353 
L 106.461325 248.247196 
L 108.092755 246.311777 
L 109.724185 245.901094 
L 111.355614 245.735133 
L 112.987044 243.153614 
L 114.618474 241.830152 
L 116.249904 243.980753 
L 119.512764 242.797984 
L 121.144194 241.988318 
L 122.775624 242.168166 
L 124.407053 243.602352 
L 126.038483 235.339812 
L 127.669913 233.809322 
L 129.301343 235.408547 
L 130.932773 236.3715 
L 132.564203 234.512942 
L 134.195633 240.492372 
L 135.827063 240.787904 
L 137.458492 237.192808 
L 139.089922 239.550473 
L 140.721352 238.884065 
L 142.352782 238.880369 
L 143.984212 239.438187 
L 145.615642 239.038469 
L 147.247072 238.394231 
L 148.878502 240.612033 
L 150.509931 235.716268 
L 152.141361 234.505319 
L 153.772791 235.664928 
L 155.404221 235.815203 
L 157.035651 230.742854 
L 158.667081 233.84881 
L 160.298511 234.004381 
L 161.929941 234.615277 
L 163.56137 233.271299 
L 165.1928 233.815294 
L 166.82423 230.574038 
L 168.45566 223.728756 
L 170.08709 225.255277 
L 171.71852 226.21186 
L 173.34995 234.962377 
L 174.98138 235.292775 
L 176.61281 233.355556 
L 178.244239 235.349831 
L 179.875669 234.862512 
L 181.507099 227.970657 
L 183.138529 227.236069 
L 184.769959 227.728851 
L 186.401389 228.035151 
L 188.032819 227.933234 
L 189.664249 228.228058 
L 191.295678 231.627816 
L 192.927108 230.780103 
L 194.558538 231.294234 
L 196.189968 227.48094 
L 197.821398 230.094278 
L 199.452828 235.372891 
L 201.084258 234.952497 
L 202.715688 232.724528 
L 204.347117 235.768575 
L 205.978547 235.665352 
L 207.609977 234.247858 
L 209.241407 234.816509 
L 210.872837 235.088362 
L 212.504267 235.143774 
L 214.135697 233.477892 
L 217.398556 234.903845 
L 219.029986 235.065867 
L 220.661416 236.319738 
L 222.292846 231.460366 
L 223.924276 236.332027 
L 225.555706 235.434767 
L 227.187136 227.013789 
L 228.818566 227.938788 
L 230.449995 228.10746 
L 232.081425 226.916716 
L 233.712855 219.130432 
L 235.344285 227.77575 
L 236.975715 222.401917 
L 238.607145 227.988982 
L 240.238575 229.2298 
L 241.870005 230.618375 
L 243.501434 230.590282 
L 245.132864 230.246243 
L 246.764294 230.449361 
L 248.395724 226.892722 
L 250.027154 225.004119 
L 251.658584 229.06918 
L 253.290014 219.948546 
L 254.921444 229.85598 
L 256.552873 226.988202 
L 258.184303 229.01998 
L 259.815733 224.44513 
L 261.447163 228.72871 
L 263.078593 216.740645 
L 264.710023 224.721515 
L 266.341453 229.027593 
L 267.972883 231.874063 
L 269.604312 231.352297 
L 271.235742 229.439122 
L 274.498602 228.114286 
L 276.130032 227.949571 
L 277.761462 227.255685 
L 279.392892 227.330754 
L 281.024322 225.516143 
L 282.655751 230.773168 
L 284.287181 229.082967 
L 285.918611 231.124201 
L 287.550041 230.809462 
L 289.181471 228.763586 
L 292.444331 230.319198 
L 294.075761 230.079125 
L 295.70719 225.513581 
L 297.33862 230.202679 
L 298.97005 231.531019 
L 300.60148 225.779205 
L 302.23291 228.282506 
L 303.86434 229.259579 
L 305.49577 223.936197 
L 307.1272 228.840097 
L 308.75863 224.035807 
L 310.390059 226.976292 
L 312.021489 231.441461 
L 313.652919 231.096383 
L 315.284349 227.746591 
L 316.915779 231.673369 
L 318.547209 231.122342 
L 320.178639 223.933854 
L 321.810069 224.888927 
L 323.441498 231.140443 
L 325.072928 226.081971 
L 326.704358 232.623096 
L 328.335788 232.743871 
L 329.967218 233.396142 
L 331.598648 231.826626 
L 333.230078 233.067077 
L 334.861508 235.529675 
L 336.492937 236.365437 
L 338.124367 235.442343 
L 339.755797 235.963764 
L 341.387227 236.067745 
L 343.018657 235.88835 
L 344.650087 235.836921 
L 346.281517 234.501799 
L 347.912947 234.85608 
L 349.544376 230.87495 
L 351.175806 234.691536 
L 352.807236 233.561563 
L 354.438666 231.699576 
L 356.070096 233.30313 
L 357.701526 234.536799 
L 359.332956 231.123177 
L 360.964386 229.58533 
L 362.595815 229.150264 
L 364.227245 232.471689 
L 365.858675 234.769862 
L 367.490105 233.390947 
L 369.121535 235.742628 
L 370.752965 234.902302 
L 372.384395 237.077489 
L 374.015825 236.726167 
L 375.647254 233.029881 
L 377.278684 237.226959 
L 378.910114 234.971945 
L 380.541544 240.203012 
L 382.172974 239.837198 
L 383.804404 240.31566 
L 385.435834 239.230496 
L 387.067264 239.484423 
L 388.698693 235.293615 
L 390.330123 235.258869 
L 391.961553 233.431629 
L 393.592983 239.391698 
L 395.224413 239.386418 
L 396.855843 231.265189 
L 398.487273 234.495538 
L 398.487273 234.495538 
" clip-path="url(#p0b5a0269ee)" style="fill: none; stroke-dasharray: 9.6,2.4,1.5,2.4; stroke-dashoffset: 0; stroke: #008000; stroke-width: 1.5"/>
   </g>
   <g id="line2d_36">
    <path d="M 73.832727 199.141152 
L 85.252736 199.141152 
L 86.884166 80.806794 
L 225.555706 80.806794 
L 227.187136 53.568 
L 398.487273 53.568 
L 398.487273 53.568 
" clip-path="url(#p0b5a0269ee)" style="fill: none; stroke: #ff0000; stroke-width: 1.5; stroke-linecap: square"/>
   </g>
   <g id="patch_3">
    <path d="M 57.6 307.584 
L 57.6 41.472 
" style="fill: none; stroke: #000000; stroke-width: 0.8; stroke-linejoin: miter; stroke-linecap: square"/>
   </g>
   <g id="patch_4">
    <path d="M 414.72 307.584 
L 414.72 41.472 
" style="fill: none; stroke: #000000; stroke-width: 0.8; stroke-linejoin: miter; stroke-linecap: square"/>
   </g>
   <g id="patch_5">
    <path d="M 57.6 307.584 
L 414.72 307.584 
" style="fill: none; stroke: #000000; stroke-width: 0.8; stroke-linejoin: miter; stroke-linecap: square"/>
   </g>
   <g id="patch_6">
    <path d="M 57.6 41.472 
L 414.72 41.472 
" style="fill: none; stroke: #000000; stroke-width: 0.8; stroke-linejoin: miter; stroke-linecap: square"/>
   </g>
   <g id="text_19">
    <!-- Population's average and best fitness -->
    <g transform="translate(123.529687 35.472) scale(0.12 -0.12)">
     <defs>
      <path id="DejaVuSans-50" d="M 1259 4147 
L 1259 2394 
L 2053 2394 
Q 2494 2394 2734 2622 
Q 2975 2850 2975 3272 
Q 2975 3691 2734 3919 
Q 2494 4147 2053 4147 
L 1259 4147 
z
M 628 4666 
L 2053 4666 
Q 2838 4666 3239 4311 
Q 3641 3956 3641 3272 
Q 3641 2581 3239 2228 
Q 2838 1875 2053 1875 
L 1259 1875 
L 1259 0 
L 628 0 
L 628 4666 
z
" transform="scale(0.015625)"/>
      <path id="DejaVuSans-70" d="M 1159 525 
L 1159 -1331 
L 581 -1331 
L 581 3500 
L 1159 3500 
L 1159 2969 
Q 1341 3281 1617 3432 
Q 1894 3584 2278 3584 
Q 2916 3584 3314 3078 
Q 3713 2572 3713 1747 
Q 3713 922 3314 415 
Q 2916 -91 2278 -91 
Q 1894 -91 1617 61 
Q 1341 213 1159 525 
z
M 3116 1747 
Q 3116 2381 2855 2742 
Q 2594 3103 2138 3103 
Q 1681 3103 1420 2742 
Q 1159 2381 1159 1747 
Q 1159 1113 1420 752 
Q 1681 391 2138 391 
Q 2594 391 2855 752 
Q 3116 1113 3116 1747 
z
" transform="scale(0.015625)"/>
      <path id="DejaVuSans-75" d="M 544 1381 
L 544 3500 
L 1119 3500 
L 1119 1403 
Q 1119 906 1312 657 
Q 1506 409 1894 409 
Q 2359 409 2629 706 
Q 2900 1003 2900 1516 
L 2900 3500 
L 3475 3500 
L 3475 0 
L 2900 0 
L 2900 538 
Q 2691 219 2414 64 
Q 2138 -91 1772 -91 
Q 1169 -91 856 284 
Q 544 659 544 1381 
z
M 1991 3584 
L 1991 3584 
z
" transform="scale(0.015625)"/>
      <path id="DejaVuSans-6c" d="M 603 4863 
L 1178 4863 
L 1178 0 
L 603 0 
L 603 4863 
z
" transform="scale(0.015625)"/>
      <path id="DejaVuSans-27" d="M 1147 4666 
L 1147 2931 
L 616 2931 
L 616 4666 
L 1147 4666 
z
" transform="scale(0.015625)"/>
      <path id="DejaVuSans-20" transform="scale(0.015625)"/>
      <path id="DejaVuSans-76" d="M 191 3500 
L 800 3500 
L 1894 563 
L 2988 3500 
L 3597 3500 
L 2284 0 
L 1503 0 
L 191 3500 
z
" transform="scale(0.015625)"/>
      <path id="DejaVuSans-67" d="M 2906 1791 
Q 2906 2416 2648 2759 
Q 2391 3103 1925 3103 
Q 1463 3103 1205 2759 
Q 947 2416 947 1791 
Q 947 1169 1205 825 
Q 1463 481 1925 481 
Q 2391 481 2648 825 
Q 2906 1169 2906 1791 
z
M 3481 434 
Q 3481 -459 3084 -895 
Q 2688 -1331 1869 -1331 
Q 1566 -1331 1297 -1286 
Q 1028 -1241 775 -1147 
L 775 -588 
Q 1028 -725 1275 -790 
Q 1522 -856 1778 -856 
Q 2344 -856 2625 -561 
Q 2906 -266 2906 331 
L 2906 616 
Q 2728 306 2450 153 
Q 2172 0 1784 0 
Q 1141 0 747 490 
Q 353 981 353 1791 
Q 353 2603 747 3093 
Q 1141 3584 1784 3584 
Q 2172 3584 2450 3431 
Q 2728 3278 2906 2969 
L 2906 3500 
L 3481 3500 
L 3481 434 
z
" transform="scale(0.015625)"/>
      <path id="DejaVuSans-64" d="M 2906 2969 
L 2906 4863 
L 3481 4863 
L 3481 0 
L 2906 0 
L 2906 525 
Q 2725 213 2448 61 
Q 2172 -91 1784 -91 
Q 1150 -91 751 415 
Q 353 922 353 1747 
Q 353 2572 751 3078 
Q 1150 3584 1784 3584 
Q 2172 3584 2448 3432 
Q 2725 3281 2906 2969 
z
M 947 1747 
Q 947 1113 1208 752 
Q 1469 391 1925 391 
Q 2381 391 2643 752 
Q 2906 1113 2906 1747 
Q 2906 2381 2643 2742 
Q 2381 3103 1925 3103 
Q 1469 3103 1208 2742 
Q 947 2381 947 1747 
z
" transform="scale(0.015625)"/>
      <path id="DejaVuSans-62" d="M 3116 1747 
Q 3116 2381 2855 2742 
Q 2594 3103 2138 3103 
Q 1681 3103 1420 2742 
Q 1159 2381 1159 1747 
Q 1159 1113 1420 752 
Q 1681 391 2138 391 
Q 2594 391 2855 752 
Q 3116 1113 3116 1747 
z
M 1159 2969 
Q 1341 3281 1617 3432 
Q 1894 3584 2278 3584 
Q 2916 3584 3314 3078 
Q 3713 2572 3713 1747 
Q 3713 922 3314 415 
Q 2916 -91 2278 -91 
Q 1894 -91 1617 61 
Q 1341 213 1159 525 
L 1159 0 
L 581 0 
L 581 4863 
L 1159 4863 
L 1159 2969 
z
" transform="scale(0.015625)"/>
      <path id="DejaVuSans-66" d="M 2375 4863 
L 2375 4384 
L 1825 4384 
Q 1516 4384 1395 4259 
Q 1275 4134 1275 3809 
L 1275 3500 
L 2222 3500 
L 2222 3053 
L 1275 3053 
L 1275 0 
L 697 0 
L 697 3053 
L 147 3053 
L 147 3500 
L 697 3500 
L 697 3744 
Q 697 4328 969 4595 
Q 1241 4863 1831 4863 
L 2375 4863 
z
" transform="scale(0.015625)"/>
     </defs>
     <use xlink:href="#DejaVuSans-50"/>
     <use xlink:href="#DejaVuSans-6f" x="56.677734"/>
     <use xlink:href="#DejaVuSans-70" x="117.859375"/>
     <use xlink:href="#DejaVuSans-75" x="181.335938"/>
     <use xlink:href="#DejaVuSans-6c" x="244.714844"/>
     <use xlink:href="#DejaVuSans-61" x="272.498047"/>
     <use xlink:href="#DejaVuSans-74" x="333.777344"/>
     <use xlink:href="#DejaVuSans-69" x="372.986328"/>
     <use xlink:href="#DejaVuSans-6f" x="400.769531"/>
     <use xlink:href="#DejaVuSans-6e" x="461.951172"/>
     <use xlink:href="#DejaVuSans-27" x="525.330078"/>
     <use xlink:href="#DejaVuSans-73" x="552.820312"/>
     <use xlink:href="#DejaVuSans-20" x="604.919922"/>
     <use xlink:href="#DejaVuSans-61" x="636.707031"/>
     <use xlink:href="#DejaVuSans-76" x="697.986328"/>
     <use xlink:href="#DejaVuSans-65" x="757.166016"/>
     <use xlink:href="#DejaVuSans-72" x="818.689453"/>
     <use xlink:href="#DejaVuSans-61" x="859.802734"/>
     <use xlink:href="#DejaVuSans-67" x="921.082031"/>
     <use xlink:href="#DejaVuSans-65" x="984.558594"/>
     <use xlink:href="#DejaVuSans-20" x="1046.082031"/>
     <use xlink:href="#DejaVuSans-61" x="1077.869141"/>
     <use xlink:href="#DejaVuSans-6e" x="1139.148438"/>
     <use xlink:href="#DejaVuSans-64" x="1202.527344"/>
     <use xlink:href="#DejaVuSans-20" x="1266.003906"/>
     <use xlink:href="#DejaVuSans-62" x="1297.791016"/>
     <use xlink:href="#DejaVuSans-65" x="1361.267578"/>
     <use xlink:href="#DejaVuSans-73" x="1422.791016"/>
     <use xlink:href="#DejaVuSans-74" x="1474.890625"/>
     <use xlink:href="#DejaVuSans-20" x="1514.099609"/>
     <use xlink:href="#DejaVuSans-66" x="1545.886719"/>
     <use xlink:href="#DejaVuSans-69" x="1581.091797"/>
     <use xlink:href="#DejaVuSans-74" x="1608.875"/>
     <use xlink:href="#DejaVuSans-6e" x="1648.083984"/>
     <use xlink:href="#DejaVuSans-65" x="1711.462891"/>
     <use xlink:href="#DejaVuSans-73" x="1772.986328"/>
     <use xlink:href="#DejaVuSans-73" x="1825.085938"/>
    </g>
   </g>
   <g id="legend_1">
    <g id="patch_7">
     <path d="M 334.779375 205.38425 
L 407.72 205.38425 
Q 409.72 205.38425 409.72 203.38425 
L 409.72 145.67175 
Q 409.72 143.67175 407.72 143.67175 
L 334.779375 143.67175 
Q 332.779375 143.67175 332.779375 145.67175 
L 332.779375 203.38425 
Q 332.779375 205.38425 334.779375 205.38425 
z
" style="fill: #ffffff; opacity: 0.8; stroke: #cccccc; stroke-linejoin: miter"/>
    </g>
    <g id="line2d_37">
     <path d="M 336.779375 151.770188 
L 346.779375 151.770188 
L 356.779375 151.770188 
" style="fill: none; stroke: #0000ff; stroke-width: 1.5; stroke-linecap: square"/>
    </g>
    <g id="text_20">
     <!-- average -->
     <g transform="translate(364.779375 155.270188) scale(0.1 -0.1)">
      <use xlink:href="#DejaVuSans-61"/>
      <use xlink:href="#DejaVuSans-76" x="61.279297"/>
      <use xlink:href="#DejaVuSans-65" x="120.458984"/>
      <use xlink:href="#DejaVuSans-72" x="181.982422"/>
      <use xlink:href="#DejaVuSans-61" x="223.095703"/>
      <use xlink:href="#DejaVuSans-67" x="284.375"/>
      <use xlink:href="#DejaVuSans-65" x="347.851562"/>
     </g>
    </g>
    <g id="line2d_38">
     <path d="M 336.779375 166.448313 
L 346.779375 166.448313 
L 356.779375 166.448313 
" style="fill: none; stroke-dasharray: 9.6,2.4,1.5,2.4; stroke-dashoffset: 0; stroke: #008000; stroke-width: 1.5"/>
    </g>
    <g id="text_21">
     <!-- -1 sd -->
     <g transform="translate(364.779375 169.948313) scale(0.1 -0.1)">
      <defs>
       <path id="DejaVuSans-2d" d="M 313 2009 
L 1997 2009 
L 1997 1497 
L 313 1497 
L 313 2009 
z
" transform="scale(0.015625)"/>
      </defs>
      <use xlink:href="#DejaVuSans-2d"/>
      <use xlink:href="#DejaVuSans-31" x="36.083984"/>
      <use xlink:href="#DejaVuSans-20" x="99.707031"/>
      <use xlink:href="#DejaVuSans-73" x="131.494141"/>
      <use xlink:href="#DejaVuSans-64" x="183.59375"/>
     </g>
    </g>
    <g id="line2d_39">
     <path d="M 336.779375 181.126438 
L 346.779375 181.126438 
L 356.779375 181.126438 
" style="fill: none; stroke-dasharray: 9.6,2.4,1.5,2.4; stroke-dashoffset: 0; stroke: #008000; stroke-width: 1.5"/>
    </g>
    <g id="text_22">
     <!-- +1 sd -->
     <g transform="translate(364.779375 184.626438) scale(0.1 -0.1)">
      <defs>
       <path id="DejaVuSans-2b" d="M 2944 4013 
L 2944 2272 
L 4684 2272 
L 4684 1741 
L 2944 1741 
L 2944 0 
L 2419 0 
L 2419 1741 
L 678 1741 
L 678 2272 
L 2419 2272 
L 2419 4013 
L 2944 4013 
z
" transform="scale(0.015625)"/>
      </defs>
      <use xlink:href="#DejaVuSans-2b"/>
      <use xlink:href="#DejaVuSans-31" x="83.789062"/>
      <use xlink:href="#DejaVuSans-20" x="147.412109"/>
      <use xlink:href="#DejaVuSans-73" x="179.199219"/>
      <use xlink:href="#DejaVuSans-64" x="231.298828"/>
     </g>
    </g>
    <g id="line2d_40">
     <path d="M 336.779375 195.804563 
L 346.779375 195.804563 
L 356.779375 195.804563 
" style="fill: none; stroke: #ff0000; stroke-width: 1.5; stroke-linecap: square"/>
    </g>
    <g id="text_23">
     <!-- best -->
     <g transform="translate(364.779375 199.304563) scale(0.1 -0.1)">
      <use xlink:href="#DejaVuSans-62"/>
      <use xlink:href="#DejaVuSans-65" x="63.476562"/>
      <use xlink:href="#DejaVuSans-73" x="125"/>
      <use xlink:href="#DejaVuSans-74" x="177.099609"/>
     </g>
    </g>
   </g>
  </g>
 </g>
 <defs>
  <clipPath id="p0b5a0269ee">
   <rect x="57.6" y="41.472" width="357.12" height="266.112"/>
  </clipPath>
 </defs>
</svg>
