<?xml version="1.0" encoding="utf-8" standalone="no"?>
<!DOCTYPE svg PUBLIC "-//W3C//DTD SVG 1.1//EN"
  "http://www.w3.org/Graphics/SVG/1.1/DTD/svg11.dtd">
<svg xmlns:xlink="http://www.w3.org/1999/xlink" width="460.8pt" height="345.6pt" viewBox="0 0 460.8 345.6" xmlns="http://www.w3.org/2000/svg" version="1.1">
 <metadata>
  <rdf:RDF xmlns:dc="http://purl.org/dc/elements/1.1/" xmlns:cc="http://creativecommons.org/ns#" xmlns:rdf="http://www.w3.org/1999/02/22-rdf-syntax-ns#">
   <cc:Work>
    <dc:type rdf:resource="http://purl.org/dc/dcmitype/StillImage"/>
    <dc:date>2024-08-03T07:00:28.051764</dc:date>
    <dc:format>image/svg+xml</dc:format>
    <dc:creator>
     <cc:Agent>
      <dc:title>Matplotlib v3.8.4, https://matplotlib.org/</dc:title>
     </cc:Agent>
    </dc:creator>
   </cc:Work>
  </rdf:RDF>
 </metadata>
 <defs>
  <style type="text/css">*{stroke-linejoin: round; stroke-linecap: butt}</style>
 </defs>
 <g id="figure_1">
  <g id="patch_1">
   <path d="M 0 345.6 
L 460.8 345.6 
L 460.8 0 
L 0 0 
z
" style="fill: #ffffff"/>
  </g>
  <g id="axes_1">
   <g id="patch_2">
    <path d="M 57.6 307.584 
L 414.72 307.584 
L 414.72 41.472 
L 57.6 41.472 
z
" style="fill: #ffffff"/>
   </g>
   <g id="matplotlib.axis_1">
    <g id="xtick_1">
     <g id="line2d_1">
      <path d="M 73.832727 307.584 
L 73.832727 41.472 
" clip-path="url(#p1499d443fa)" style="fill: none; stroke: #b0b0b0; stroke-width: 0.8; stroke-linecap: square"/>
     </g>
     <g id="line2d_2">
      <defs>
       <path id="me509693b01" d="M 0 0 
L 0 3.5 
" style="stroke: #000000; stroke-width: 0.8"/>
      </defs>
      <g>
       <use xlink:href="#me509693b01" x="73.832727" y="307.584" style="stroke: #000000; stroke-width: 0.8"/>
      </g>
     </g>
     <g id="text_1">
      <!-- 0 -->
      <g transform="translate(70.651477 322.182437) scale(0.1 -0.1)">
       <defs>
        <path id="DejaVuSans-30" d="M 2034 4250 
Q 1547 4250 1301 3770 
Q 1056 3291 1056 2328 
Q 1056 1369 1301 889 
Q 1547 409 2034 409 
Q 2525 409 2770 889 
Q 3016 1369 3016 2328 
Q 3016 3291 2770 3770 
Q 2525 4250 2034 4250 
z
M 2034 4750 
Q 2819 4750 3233 4129 
Q 3647 3509 3647 2328 
Q 3647 1150 3233 529 
Q 2819 -91 2034 -91 
Q 1250 -91 836 529 
Q 422 1150 422 2328 
Q 422 3509 836 4129 
Q 1250 4750 2034 4750 
z
" transform="scale(0.015625)"/>
       </defs>
       <use xlink:href="#DejaVuSans-30"/>
      </g>
     </g>
    </g>
    <g id="xtick_2">
     <g id="line2d_3">
      <path d="M 114.618474 307.584 
L 114.618474 41.472 
" clip-path="url(#p1499d443fa)" style="fill: none; stroke: #b0b0b0; stroke-width: 0.8; stroke-linecap: square"/>
     </g>
     <g id="line2d_4">
      <g>
       <use xlink:href="#me509693b01" x="114.618474" y="307.584" style="stroke: #000000; stroke-width: 0.8"/>
      </g>
     </g>
     <g id="text_2">
      <!-- 25 -->
      <g transform="translate(108.255974 322.182437) scale(0.1 -0.1)">
       <defs>
        <path id="DejaVuSans-32" d="M 1228 531 
L 3431 531 
L 3431 0 
L 469 0 
L 469 531 
Q 828 903 1448 1529 
Q 2069 2156 2228 2338 
Q 2531 2678 2651 2914 
Q 2772 3150 2772 3378 
Q 2772 3750 2511 3984 
Q 2250 4219 1831 4219 
Q 1534 4219 1204 4116 
Q 875 4013 500 3803 
L 500 4441 
Q 881 4594 1212 4672 
Q 1544 4750 1819 4750 
Q 2544 4750 2975 4387 
Q 3406 4025 3406 3419 
Q 3406 3131 3298 2873 
Q 3191 2616 2906 2266 
Q 2828 2175 2409 1742 
Q 1991 1309 1228 531 
z
" transform="scale(0.015625)"/>
        <path id="DejaVuSans-35" d="M 691 4666 
L 3169 4666 
L 3169 4134 
L 1269 4134 
L 1269 2991 
Q 1406 3038 1543 3061 
Q 1681 3084 1819 3084 
Q 2600 3084 3056 2656 
Q 3513 2228 3513 1497 
Q 3513 744 3044 326 
Q 2575 -91 1722 -91 
Q 1428 -91 1123 -41 
Q 819 9 494 109 
L 494 744 
Q 775 591 1075 516 
Q 1375 441 1709 441 
Q 2250 441 2565 725 
Q 2881 1009 2881 1497 
Q 2881 1984 2565 2268 
Q 2250 2553 1709 2553 
Q 1456 2553 1204 2497 
Q 953 2441 691 2322 
L 691 4666 
z
" transform="scale(0.015625)"/>
       </defs>
       <use xlink:href="#DejaVuSans-32"/>
       <use xlink:href="#DejaVuSans-35" x="63.623047"/>
      </g>
     </g>
    </g>
    <g id="xtick_3">
     <g id="line2d_5">
      <path d="M 155.404221 307.584 
L 155.404221 41.472 
" clip-path="url(#p1499d443fa)" style="fill: none; stroke: #b0b0b0; stroke-width: 0.8; stroke-linecap: square"/>
     </g>
     <g id="line2d_6">
      <g>
       <use xlink:href="#me509693b01" x="155.404221" y="307.584" style="stroke: #000000; stroke-width: 0.8"/>
      </g>
     </g>
     <g id="text_3">
      <!-- 50 -->
      <g transform="translate(149.041721 322.182437) scale(0.1 -0.1)">
       <use xlink:href="#DejaVuSans-35"/>
       <use xlink:href="#DejaVuSans-30" x="63.623047"/>
      </g>
     </g>
    </g>
    <g id="xtick_4">
     <g id="line2d_7">
      <path d="M 196.189968 307.584 
L 196.189968 41.472 
" clip-path="url(#p1499d443fa)" style="fill: none; stroke: #b0b0b0; stroke-width: 0.8; stroke-linecap: square"/>
     </g>
     <g id="line2d_8">
      <g>
       <use xlink:href="#me509693b01" x="196.189968" y="307.584" style="stroke: #000000; stroke-width: 0.8"/>
      </g>
     </g>
     <g id="text_4">
      <!-- 75 -->
      <g transform="translate(189.827468 322.182437) scale(0.1 -0.1)">
       <defs>
        <path id="DejaVuSans-37" d="M 525 4666 
L 3525 4666 
L 3525 4397 
L 1831 0 
L 1172 0 
L 2766 4134 
L 525 4134 
L 525 4666 
z
" transform="scale(0.015625)"/>
       </defs>
       <use xlink:href="#DejaVuSans-37"/>
       <use xlink:href="#DejaVuSans-35" x="63.623047"/>
      </g>
     </g>
    </g>
    <g id="xtick_5">
     <g id="line2d_9">
      <path d="M 236.975715 307.584 
L 236.975715 41.472 
" clip-path="url(#p1499d443fa)" style="fill: none; stroke: #b0b0b0; stroke-width: 0.8; stroke-linecap: square"/>
     </g>
     <g id="line2d_10">
      <g>
       <use xlink:href="#me509693b01" x="236.975715" y="307.584" style="stroke: #000000; stroke-width: 0.8"/>
      </g>
     </g>
     <g id="text_5">
      <!-- 100 -->
      <g transform="translate(227.431965 322.182437) scale(0.1 -0.1)">
       <defs>
        <path id="DejaVuSans-31" d="M 794 531 
L 1825 531 
L 1825 4091 
L 703 3866 
L 703 4441 
L 1819 4666 
L 2450 4666 
L 2450 531 
L 3481 531 
L 3481 0 
L 794 0 
L 794 531 
z
" transform="scale(0.015625)"/>
       </defs>
       <use xlink:href="#DejaVuSans-31"/>
       <use xlink:href="#DejaVuSans-30" x="63.623047"/>
       <use xlink:href="#DejaVuSans-30" x="127.246094"/>
      </g>
     </g>
    </g>
    <g id="xtick_6">
     <g id="line2d_11">
      <path d="M 277.761462 307.584 
L 277.761462 41.472 
" clip-path="url(#p1499d443fa)" style="fill: none; stroke: #b0b0b0; stroke-width: 0.8; stroke-linecap: square"/>
     </g>
     <g id="line2d_12">
      <g>
       <use xlink:href="#me509693b01" x="277.761462" y="307.584" style="stroke: #000000; stroke-width: 0.8"/>
      </g>
     </g>
     <g id="text_6">
      <!-- 125 -->
      <g transform="translate(268.217712 322.182437) scale(0.1 -0.1)">
       <use xlink:href="#DejaVuSans-31"/>
       <use xlink:href="#DejaVuSans-32" x="63.623047"/>
       <use xlink:href="#DejaVuSans-35" x="127.246094"/>
      </g>
     </g>
    </g>
    <g id="xtick_7">
     <g id="line2d_13">
      <path d="M 318.547209 307.584 
L 318.547209 41.472 
" clip-path="url(#p1499d443fa)" style="fill: none; stroke: #b0b0b0; stroke-width: 0.8; stroke-linecap: square"/>
     </g>
     <g id="line2d_14">
      <g>
       <use xlink:href="#me509693b01" x="318.547209" y="307.584" style="stroke: #000000; stroke-width: 0.8"/>
      </g>
     </g>
     <g id="text_7">
      <!-- 150 -->
      <g transform="translate(309.003459 322.182437) scale(0.1 -0.1)">
       <use xlink:href="#DejaVuSans-31"/>
       <use xlink:href="#DejaVuSans-35" x="63.623047"/>
       <use xlink:href="#DejaVuSans-30" x="127.246094"/>
      </g>
     </g>
    </g>
    <g id="xtick_8">
     <g id="line2d_15">
      <path d="M 359.332956 307.584 
L 359.332956 41.472 
" clip-path="url(#p1499d443fa)" style="fill: none; stroke: #b0b0b0; stroke-width: 0.8; stroke-linecap: square"/>
     </g>
     <g id="line2d_16">
      <g>
       <use xlink:href="#me509693b01" x="359.332956" y="307.584" style="stroke: #000000; stroke-width: 0.8"/>
      </g>
     </g>
     <g id="text_8">
      <!-- 175 -->
      <g transform="translate(349.789206 322.182437) scale(0.1 -0.1)">
       <use xlink:href="#DejaVuSans-31"/>
       <use xlink:href="#DejaVuSans-37" x="63.623047"/>
       <use xlink:href="#DejaVuSans-35" x="127.246094"/>
      </g>
     </g>
    </g>
    <g id="xtick_9">
     <g id="line2d_17">
      <path d="M 400.118703 307.584 
L 400.118703 41.472 
" clip-path="url(#p1499d443fa)" style="fill: none; stroke: #b0b0b0; stroke-width: 0.8; stroke-linecap: square"/>
     </g>
     <g id="line2d_18">
      <g>
       <use xlink:href="#me509693b01" x="400.118703" y="307.584" style="stroke: #000000; stroke-width: 0.8"/>
      </g>
     </g>
     <g id="text_9">
      <!-- 200 -->
      <g transform="translate(390.574953 322.182437) scale(0.1 -0.1)">
       <use xlink:href="#DejaVuSans-32"/>
       <use xlink:href="#DejaVuSans-30" x="63.623047"/>
       <use xlink:href="#DejaVuSans-30" x="127.246094"/>
      </g>
     </g>
    </g>
    <g id="text_10">
     <!-- Generations -->
     <g transform="translate(205.662344 335.860562) scale(0.1 -0.1)">
      <defs>
       <path id="DejaVuSans-47" d="M 3809 666 
L 3809 1919 
L 2778 1919 
L 2778 2438 
L 4434 2438 
L 4434 434 
Q 4069 175 3628 42 
Q 3188 -91 2688 -91 
Q 1594 -91 976 548 
Q 359 1188 359 2328 
Q 359 3472 976 4111 
Q 1594 4750 2688 4750 
Q 3144 4750 3555 4637 
Q 3966 4525 4313 4306 
L 4313 3634 
Q 3963 3931 3569 4081 
Q 3175 4231 2741 4231 
Q 1884 4231 1454 3753 
Q 1025 3275 1025 2328 
Q 1025 1384 1454 906 
Q 1884 428 2741 428 
Q 3075 428 3337 486 
Q 3600 544 3809 666 
z
" transform="scale(0.015625)"/>
       <path id="DejaVuSans-65" d="M 3597 1894 
L 3597 1613 
L 953 1613 
Q 991 1019 1311 708 
Q 1631 397 2203 397 
Q 2534 397 2845 478 
Q 3156 559 3463 722 
L 3463 178 
Q 3153 47 2828 -22 
Q 2503 -91 2169 -91 
Q 1331 -91 842 396 
Q 353 884 353 1716 
Q 353 2575 817 3079 
Q 1281 3584 2069 3584 
Q 2775 3584 3186 3129 
Q 3597 2675 3597 1894 
z
M 3022 2063 
Q 3016 2534 2758 2815 
Q 2500 3097 2075 3097 
Q 1594 3097 1305 2825 
Q 1016 2553 972 2059 
L 3022 2063 
z
" transform="scale(0.015625)"/>
       <path id="DejaVuSans-6e" d="M 3513 2113 
L 3513 0 
L 2938 0 
L 2938 2094 
Q 2938 2591 2744 2837 
Q 2550 3084 2163 3084 
Q 1697 3084 1428 2787 
Q 1159 2491 1159 1978 
L 1159 0 
L 581 0 
L 581 3500 
L 1159 3500 
L 1159 2956 
Q 1366 3272 1645 3428 
Q 1925 3584 2291 3584 
Q 2894 3584 3203 3211 
Q 3513 2838 3513 2113 
z
" transform="scale(0.015625)"/>
       <path id="DejaVuSans-72" d="M 2631 2963 
Q 2534 3019 2420 3045 
Q 2306 3072 2169 3072 
Q 1681 3072 1420 2755 
Q 1159 2438 1159 1844 
L 1159 0 
L 581 0 
L 581 3500 
L 1159 3500 
L 1159 2956 
Q 1341 3275 1631 3429 
Q 1922 3584 2338 3584 
Q 2397 3584 2469 3576 
Q 2541 3569 2628 3553 
L 2631 2963 
z
" transform="scale(0.015625)"/>
       <path id="DejaVuSans-61" d="M 2194 1759 
Q 1497 1759 1228 1600 
Q 959 1441 959 1056 
Q 959 750 1161 570 
Q 1363 391 1709 391 
Q 2188 391 2477 730 
Q 2766 1069 2766 1631 
L 2766 1759 
L 2194 1759 
z
M 3341 1997 
L 3341 0 
L 2766 0 
L 2766 531 
Q 2569 213 2275 61 
Q 1981 -91 1556 -91 
Q 1019 -91 701 211 
Q 384 513 384 1019 
Q 384 1609 779 1909 
Q 1175 2209 1959 2209 
L 2766 2209 
L 2766 2266 
Q 2766 2663 2505 2880 
Q 2244 3097 1772 3097 
Q 1472 3097 1187 3025 
Q 903 2953 641 2809 
L 641 3341 
Q 956 3463 1253 3523 
Q 1550 3584 1831 3584 
Q 2591 3584 2966 3190 
Q 3341 2797 3341 1997 
z
" transform="scale(0.015625)"/>
       <path id="DejaVuSans-74" d="M 1172 4494 
L 1172 3500 
L 2356 3500 
L 2356 3053 
L 1172 3053 
L 1172 1153 
Q 1172 725 1289 603 
Q 1406 481 1766 481 
L 2356 481 
L 2356 0 
L 1766 0 
Q 1100 0 847 248 
Q 594 497 594 1153 
L 594 3053 
L 172 3053 
L 172 3500 
L 594 3500 
L 594 4494 
L 1172 4494 
z
" transform="scale(0.015625)"/>
       <path id="DejaVuSans-69" d="M 603 3500 
L 1178 3500 
L 1178 0 
L 603 0 
L 603 3500 
z
M 603 4863 
L 1178 4863 
L 1178 4134 
L 603 4134 
L 603 4863 
z
" transform="scale(0.015625)"/>
       <path id="DejaVuSans-6f" d="M 1959 3097 
Q 1497 3097 1228 2736 
Q 959 2375 959 1747 
Q 959 1119 1226 758 
Q 1494 397 1959 397 
Q 2419 397 2687 759 
Q 2956 1122 2956 1747 
Q 2956 2369 2687 2733 
Q 2419 3097 1959 3097 
z
M 1959 3584 
Q 2709 3584 3137 3096 
Q 3566 2609 3566 1747 
Q 3566 888 3137 398 
Q 2709 -91 1959 -91 
Q 1206 -91 779 398 
Q 353 888 353 1747 
Q 353 2609 779 3096 
Q 1206 3584 1959 3584 
z
" transform="scale(0.015625)"/>
       <path id="DejaVuSans-73" d="M 2834 3397 
L 2834 2853 
Q 2591 2978 2328 3040 
Q 2066 3103 1784 3103 
Q 1356 3103 1142 2972 
Q 928 2841 928 2578 
Q 928 2378 1081 2264 
Q 1234 2150 1697 2047 
L 1894 2003 
Q 2506 1872 2764 1633 
Q 3022 1394 3022 966 
Q 3022 478 2636 193 
Q 2250 -91 1575 -91 
Q 1294 -91 989 -36 
Q 684 19 347 128 
L 347 722 
Q 666 556 975 473 
Q 1284 391 1588 391 
Q 1994 391 2212 530 
Q 2431 669 2431 922 
Q 2431 1156 2273 1281 
Q 2116 1406 1581 1522 
L 1381 1569 
Q 847 1681 609 1914 
Q 372 2147 372 2553 
Q 372 3047 722 3315 
Q 1072 3584 1716 3584 
Q 2034 3584 2315 3537 
Q 2597 3491 2834 3397 
z
" transform="scale(0.015625)"/>
      </defs>
      <use xlink:href="#DejaVuSans-47"/>
      <use xlink:href="#DejaVuSans-65" x="77.490234"/>
      <use xlink:href="#DejaVuSans-6e" x="139.013672"/>
      <use xlink:href="#DejaVuSans-65" x="202.392578"/>
      <use xlink:href="#DejaVuSans-72" x="263.916016"/>
      <use xlink:href="#DejaVuSans-61" x="305.029297"/>
      <use xlink:href="#DejaVuSans-74" x="366.308594"/>
      <use xlink:href="#DejaVuSans-69" x="405.517578"/>
      <use xlink:href="#DejaVuSans-6f" x="433.300781"/>
      <use xlink:href="#DejaVuSans-6e" x="494.482422"/>
      <use xlink:href="#DejaVuSans-73" x="557.861328"/>
     </g>
    </g>
   </g>
   <g id="matplotlib.axis_2">
    <g id="ytick_1">
     <g id="line2d_19">
      <path d="M 57.6 280.312053 
L 414.72 280.312053 
" clip-path="url(#p1499d443fa)" style="fill: none; stroke: #b0b0b0; stroke-width: 0.8; stroke-linecap: square"/>
     </g>
     <g id="line2d_20">
      <defs>
       <path id="m8637305ff2" d="M 0 0 
L -3.5 0 
" style="stroke: #000000; stroke-width: 0.8"/>
      </defs>
      <g>
       <use xlink:href="#m8637305ff2" x="57.6" y="280.312053" style="stroke: #000000; stroke-width: 0.8"/>
      </g>
     </g>
     <g id="text_11">
      <!-- −1900 -->
      <g transform="translate(16.770313 284.111272) scale(0.1 -0.1)">
       <defs>
        <path id="DejaVuSans-2212" d="M 678 2272 
L 4684 2272 
L 4684 1741 
L 678 1741 
L 678 2272 
z
" transform="scale(0.015625)"/>
        <path id="DejaVuSans-39" d="M 703 97 
L 703 672 
Q 941 559 1184 500 
Q 1428 441 1663 441 
Q 2288 441 2617 861 
Q 2947 1281 2994 2138 
Q 2813 1869 2534 1725 
Q 2256 1581 1919 1581 
Q 1219 1581 811 2004 
Q 403 2428 403 3163 
Q 403 3881 828 4315 
Q 1253 4750 1959 4750 
Q 2769 4750 3195 4129 
Q 3622 3509 3622 2328 
Q 3622 1225 3098 567 
Q 2575 -91 1691 -91 
Q 1453 -91 1209 -44 
Q 966 3 703 97 
z
M 1959 2075 
Q 2384 2075 2632 2365 
Q 2881 2656 2881 3163 
Q 2881 3666 2632 3958 
Q 2384 4250 1959 4250 
Q 1534 4250 1286 3958 
Q 1038 3666 1038 3163 
Q 1038 2656 1286 2365 
Q 1534 2075 1959 2075 
z
" transform="scale(0.015625)"/>
       </defs>
       <use xlink:href="#DejaVuSans-2212"/>
       <use xlink:href="#DejaVuSans-31" x="83.789062"/>
       <use xlink:href="#DejaVuSans-39" x="147.412109"/>
       <use xlink:href="#DejaVuSans-30" x="211.035156"/>
       <use xlink:href="#DejaVuSans-30" x="274.658203"/>
      </g>
     </g>
    </g>
    <g id="ytick_2">
     <g id="line2d_21">
      <path d="M 57.6 235.650882 
L 414.72 235.650882 
" clip-path="url(#p1499d443fa)" style="fill: none; stroke: #b0b0b0; stroke-width: 0.8; stroke-linecap: square"/>
     </g>
     <g id="line2d_22">
      <g>
       <use xlink:href="#m8637305ff2" x="57.6" y="235.650882" style="stroke: #000000; stroke-width: 0.8"/>
      </g>
     </g>
     <g id="text_12">
      <!-- −1800 -->
      <g transform="translate(16.770313 239.4501) scale(0.1 -0.1)">
       <defs>
        <path id="DejaVuSans-38" d="M 2034 2216 
Q 1584 2216 1326 1975 
Q 1069 1734 1069 1313 
Q 1069 891 1326 650 
Q 1584 409 2034 409 
Q 2484 409 2743 651 
Q 3003 894 3003 1313 
Q 3003 1734 2745 1975 
Q 2488 2216 2034 2216 
z
M 1403 2484 
Q 997 2584 770 2862 
Q 544 3141 544 3541 
Q 544 4100 942 4425 
Q 1341 4750 2034 4750 
Q 2731 4750 3128 4425 
Q 3525 4100 3525 3541 
Q 3525 3141 3298 2862 
Q 3072 2584 2669 2484 
Q 3125 2378 3379 2068 
Q 3634 1759 3634 1313 
Q 3634 634 3220 271 
Q 2806 -91 2034 -91 
Q 1263 -91 848 271 
Q 434 634 434 1313 
Q 434 1759 690 2068 
Q 947 2378 1403 2484 
z
M 1172 3481 
Q 1172 3119 1398 2916 
Q 1625 2713 2034 2713 
Q 2441 2713 2670 2916 
Q 2900 3119 2900 3481 
Q 2900 3844 2670 4047 
Q 2441 4250 2034 4250 
Q 1625 4250 1398 4047 
Q 1172 3844 1172 3481 
z
" transform="scale(0.015625)"/>
       </defs>
       <use xlink:href="#DejaVuSans-2212"/>
       <use xlink:href="#DejaVuSans-31" x="83.789062"/>
       <use xlink:href="#DejaVuSans-38" x="147.412109"/>
       <use xlink:href="#DejaVuSans-30" x="211.035156"/>
       <use xlink:href="#DejaVuSans-30" x="274.658203"/>
      </g>
     </g>
    </g>
    <g id="ytick_3">
     <g id="line2d_23">
      <path d="M 57.6 190.98971 
L 414.72 190.98971 
" clip-path="url(#p1499d443fa)" style="fill: none; stroke: #b0b0b0; stroke-width: 0.8; stroke-linecap: square"/>
     </g>
     <g id="line2d_24">
      <g>
       <use xlink:href="#m8637305ff2" x="57.6" y="190.98971" style="stroke: #000000; stroke-width: 0.8"/>
      </g>
     </g>
     <g id="text_13">
      <!-- −1700 -->
      <g transform="translate(16.770313 194.788929) scale(0.1 -0.1)">
       <use xlink:href="#DejaVuSans-2212"/>
       <use xlink:href="#DejaVuSans-31" x="83.789062"/>
       <use xlink:href="#DejaVuSans-37" x="147.412109"/>
       <use xlink:href="#DejaVuSans-30" x="211.035156"/>
       <use xlink:href="#DejaVuSans-30" x="274.658203"/>
      </g>
     </g>
    </g>
    <g id="ytick_4">
     <g id="line2d_25">
      <path d="M 57.6 146.328539 
L 414.72 146.328539 
" clip-path="url(#p1499d443fa)" style="fill: none; stroke: #b0b0b0; stroke-width: 0.8; stroke-linecap: square"/>
     </g>
     <g id="line2d_26">
      <g>
       <use xlink:href="#m8637305ff2" x="57.6" y="146.328539" style="stroke: #000000; stroke-width: 0.8"/>
      </g>
     </g>
     <g id="text_14">
      <!-- −1600 -->
      <g transform="translate(16.770313 150.127757) scale(0.1 -0.1)">
       <defs>
        <path id="DejaVuSans-36" d="M 2113 2584 
Q 1688 2584 1439 2293 
Q 1191 2003 1191 1497 
Q 1191 994 1439 701 
Q 1688 409 2113 409 
Q 2538 409 2786 701 
Q 3034 994 3034 1497 
Q 3034 2003 2786 2293 
Q 2538 2584 2113 2584 
z
M 3366 4563 
L 3366 3988 
Q 3128 4100 2886 4159 
Q 2644 4219 2406 4219 
Q 1781 4219 1451 3797 
Q 1122 3375 1075 2522 
Q 1259 2794 1537 2939 
Q 1816 3084 2150 3084 
Q 2853 3084 3261 2657 
Q 3669 2231 3669 1497 
Q 3669 778 3244 343 
Q 2819 -91 2113 -91 
Q 1303 -91 875 529 
Q 447 1150 447 2328 
Q 447 3434 972 4092 
Q 1497 4750 2381 4750 
Q 2619 4750 2861 4703 
Q 3103 4656 3366 4563 
z
" transform="scale(0.015625)"/>
       </defs>
       <use xlink:href="#DejaVuSans-2212"/>
       <use xlink:href="#DejaVuSans-31" x="83.789062"/>
       <use xlink:href="#DejaVuSans-36" x="147.412109"/>
       <use xlink:href="#DejaVuSans-30" x="211.035156"/>
       <use xlink:href="#DejaVuSans-30" x="274.658203"/>
      </g>
     </g>
    </g>
    <g id="ytick_5">
     <g id="line2d_27">
      <path d="M 57.6 101.667367 
L 414.72 101.667367 
" clip-path="url(#p1499d443fa)" style="fill: none; stroke: #b0b0b0; stroke-width: 0.8; stroke-linecap: square"/>
     </g>
     <g id="line2d_28">
      <g>
       <use xlink:href="#m8637305ff2" x="57.6" y="101.667367" style="stroke: #000000; stroke-width: 0.8"/>
      </g>
     </g>
     <g id="text_15">
      <!-- −1500 -->
      <g transform="translate(16.770313 105.466586) scale(0.1 -0.1)">
       <use xlink:href="#DejaVuSans-2212"/>
       <use xlink:href="#DejaVuSans-31" x="83.789062"/>
       <use xlink:href="#DejaVuSans-35" x="147.412109"/>
       <use xlink:href="#DejaVuSans-30" x="211.035156"/>
       <use xlink:href="#DejaVuSans-30" x="274.658203"/>
      </g>
     </g>
    </g>
    <g id="ytick_6">
     <g id="line2d_29">
      <path d="M 57.6 57.006196 
L 414.72 57.006196 
" clip-path="url(#p1499d443fa)" style="fill: none; stroke: #b0b0b0; stroke-width: 0.8; stroke-linecap: square"/>
     </g>
     <g id="line2d_30">
      <g>
       <use xlink:href="#m8637305ff2" x="57.6" y="57.006196" style="stroke: #000000; stroke-width: 0.8"/>
      </g>
     </g>
     <g id="text_16">
      <!-- −1400 -->
      <g transform="translate(16.770313 60.805414) scale(0.1 -0.1)">
       <defs>
        <path id="DejaVuSans-34" d="M 2419 4116 
L 825 1625 
L 2419 1625 
L 2419 4116 
z
M 2253 4666 
L 3047 4666 
L 3047 1625 
L 3713 1625 
L 3713 1100 
L 3047 1100 
L 3047 0 
L 2419 0 
L 2419 1100 
L 313 1100 
L 313 1709 
L 2253 4666 
z
" transform="scale(0.015625)"/>
       </defs>
       <use xlink:href="#DejaVuSans-2212"/>
       <use xlink:href="#DejaVuSans-31" x="83.789062"/>
       <use xlink:href="#DejaVuSans-34" x="147.412109"/>
       <use xlink:href="#DejaVuSans-30" x="211.035156"/>
       <use xlink:href="#DejaVuSans-30" x="274.658203"/>
      </g>
     </g>
    </g>
    <g id="text_17">
     <!-- Fitness -->
     <g transform="translate(10.690625 191.845187) rotate(-90) scale(0.1 -0.1)">
      <defs>
       <path id="DejaVuSans-46" d="M 628 4666 
L 3309 4666 
L 3309 4134 
L 1259 4134 
L 1259 2759 
L 3109 2759 
L 3109 2228 
L 1259 2228 
L 1259 0 
L 628 0 
L 628 4666 
z
" transform="scale(0.015625)"/>
      </defs>
      <use xlink:href="#DejaVuSans-46"/>
      <use xlink:href="#DejaVuSans-69" x="50.269531"/>
      <use xlink:href="#DejaVuSans-74" x="78.052734"/>
      <use xlink:href="#DejaVuSans-6e" x="117.261719"/>
      <use xlink:href="#DejaVuSans-65" x="180.640625"/>
      <use xlink:href="#DejaVuSans-73" x="242.164062"/>
      <use xlink:href="#DejaVuSans-73" x="294.263672"/>
     </g>
    </g>
   </g>
   <g id="line2d_31">
    <path d="M 73.832727 275.580336 
L 75.464157 266.863155 
L 77.095587 263.235962 
L 78.727017 260.38326 
L 80.358447 259.63289 
L 81.989877 258.048589 
L 83.621307 259.180888 
L 85.252736 257.71664 
L 86.884166 261.049184 
L 88.515596 262.963443 
L 90.147026 260.132271 
L 91.778456 256.793991 
L 93.409886 258.452643 
L 95.041316 254.626893 
L 96.672746 256.946058 
L 98.304175 256.236125 
L 99.935605 254.77756 
L 101.567035 254.661723 
L 103.198465 256.195104 
L 104.829895 255.205126 
L 106.461325 253.038893 
L 108.092755 254.703378 
L 109.724185 254.722236 
L 111.355614 251.845201 
L 112.987044 254.59302 
L 114.618474 253.070561 
L 116.249904 255.555791 
L 117.881334 252.692315 
L 119.512764 254.284953 
L 121.144194 254.860869 
L 122.775624 254.217488 
L 124.407053 255.188894 
L 126.038483 253.802701 
L 127.669913 256.419466 
L 129.301343 254.178087 
L 130.932773 253.159287 
L 132.564203 251.626934 
L 135.827063 253.316631 
L 137.458492 253.834832 
L 139.089922 254.176335 
L 140.721352 256.004838 
L 142.352782 254.385742 
L 143.984212 253.192468 
L 145.615642 255.854079 
L 147.247072 256.826013 
L 148.878502 253.963918 
L 150.509931 253.386652 
L 152.141361 255.027013 
L 153.772791 252.524884 
L 155.404221 253.212104 
L 157.035651 253.189707 
L 158.667081 251.92953 
L 160.298511 254.046853 
L 161.929941 253.571231 
L 163.56137 254.410141 
L 165.1928 253.286213 
L 166.82423 253.080393 
L 168.45566 254.725881 
L 170.08709 253.10743 
L 173.34995 253.132347 
L 174.98138 254.966838 
L 176.61281 253.179603 
L 178.244239 251.975797 
L 179.875669 254.092968 
L 181.507099 254.406047 
L 183.138529 254.842388 
L 184.769959 253.228651 
L 186.401389 254.441866 
L 188.032819 254.341066 
L 189.664249 255.102496 
L 191.295678 255.139811 
L 192.927108 252.300566 
L 194.558538 253.334431 
L 196.189968 253.929196 
L 197.821398 253.253553 
L 199.452828 254.690337 
L 201.084258 255.790732 
L 202.715688 255.194523 
L 204.347117 253.867067 
L 205.978547 252.794034 
L 207.609977 257.017295 
L 209.241407 254.04078 
L 210.872837 257.629233 
L 212.504267 255.645548 
L 214.135697 255.286356 
L 215.767127 255.271789 
L 217.398556 257.156434 
L 219.029986 255.258044 
L 220.661416 255.805472 
L 222.292846 255.740643 
L 223.924276 258.318805 
L 225.555706 254.933488 
L 227.187136 254.620942 
L 232.081425 254.950448 
L 233.712855 257.049872 
L 235.344285 253.760987 
L 236.975715 255.33373 
L 238.607145 256.256679 
L 240.238575 259.163841 
L 241.870005 257.20802 
L 243.501434 254.485866 
L 245.132864 254.443717 
L 246.764294 255.371926 
L 248.395724 253.482458 
L 250.027154 253.304452 
L 251.658584 252.332996 
L 253.290014 254.800323 
L 254.921444 255.144075 
L 258.184303 251.619512 
L 259.815733 254.972916 
L 261.447163 256.549144 
L 263.078593 253.973258 
L 264.710023 253.005236 
L 266.341453 253.652743 
L 267.972883 254.472841 
L 269.604312 254.299227 
L 271.235742 252.58334 
L 272.867172 252.568626 
L 276.130032 252.974866 
L 277.761462 254.63285 
L 279.392892 257.342382 
L 281.024322 256.11541 
L 282.655751 255.116066 
L 284.287181 253.331596 
L 285.918611 254.938921 
L 289.181471 252.829763 
L 290.812901 252.113908 
L 292.444331 253.903597 
L 294.075761 251.17282 
L 295.70719 252.168957 
L 297.33862 253.501959 
L 298.97005 253.812265 
L 300.60148 253.845193 
L 302.23291 254.965094 
L 303.86434 254.323546 
L 305.49577 256.526228 
L 307.1272 255.88082 
L 308.75863 254.405842 
L 310.390059 254.981961 
L 312.021489 255.233972 
L 313.652919 255.657785 
L 315.284349 253.189511 
L 318.547209 256.204138 
L 321.810069 252.932551 
L 323.441498 257.035819 
L 325.072928 253.898868 
L 326.704358 254.670897 
L 328.335788 253.645181 
L 329.967218 255.954458 
L 331.598648 254.821609 
L 333.230078 254.040796 
L 334.861508 256.154263 
L 336.492937 256.233462 
L 338.124367 251.945946 
L 339.755797 254.454878 
L 341.387227 255.334087 
L 343.018657 255.189365 
L 344.650087 251.65698 
L 347.912947 257.583564 
L 349.544376 256.509791 
L 351.175806 254.643387 
L 352.807236 253.497019 
L 354.438666 255.784658 
L 356.070096 254.499716 
L 357.701526 254.812309 
L 359.332956 256.497221 
L 360.964386 254.71524 
L 362.595815 255.697742 
L 364.227245 253.765417 
L 365.858675 251.115583 
L 367.490105 254.078853 
L 369.121535 253.154144 
L 370.752965 255.655535 
L 372.384395 252.820835 
L 374.015825 254.763124 
L 375.647254 253.909344 
L 377.278684 255.65435 
L 378.910114 253.787914 
L 380.541544 254.791406 
L 382.172974 253.167245 
L 383.804404 255.02769 
L 385.435834 252.352945 
L 387.067264 250.354647 
L 388.698693 253.748256 
L 390.330123 252.557777 
L 391.961553 253.905679 
L 393.592983 252.518791 
L 395.224413 252.659561 
L 396.855843 252.223788 
L 398.487273 255.076774 
L 398.487273 255.076774 
" clip-path="url(#p1499d443fa)" style="fill: none; stroke: #0000ff; stroke-width: 1.5; stroke-linecap: square"/>
   </g>
   <g id="line2d_32">
    <path d="M 73.832727 295.488 
L 75.464157 287.415413 
L 78.727017 279.393846 
L 80.358447 280.212242 
L 81.989877 276.422962 
L 83.621307 278.343103 
L 85.252736 276.031244 
L 86.884166 282.783167 
L 88.515596 283.788121 
L 91.778456 276.34054 
L 93.409886 277.952643 
L 95.041316 272.887559 
L 96.672746 276.21271 
L 98.304175 277.732925 
L 99.935605 276.432567 
L 101.567035 279.736968 
L 103.198465 281.417556 
L 104.829895 278.115919 
L 106.461325 275.326763 
L 108.092755 277.622159 
L 109.724185 278.216376 
L 111.355614 275.585023 
L 112.987044 278.849821 
L 114.618474 277.706977 
L 116.249904 279.695956 
L 117.881334 278.386856 
L 119.512764 277.88206 
L 121.144194 279.144295 
L 122.775624 275.520776 
L 124.407053 276.369209 
L 126.038483 277.566037 
L 127.669913 277.134812 
L 129.301343 274.100796 
L 130.932773 274.869687 
L 132.564203 270.804902 
L 134.195633 271.773286 
L 135.827063 271.869283 
L 137.458492 274.513012 
L 139.089922 273.50616 
L 140.721352 275.291511 
L 142.352782 274.823176 
L 143.984212 275.377066 
L 145.615642 274.663719 
L 147.247072 276.985799 
L 148.878502 272.518622 
L 150.509931 270.775955 
L 152.141361 273.423469 
L 153.772791 272.967122 
L 155.404221 272.965788 
L 157.035651 271.366505 
L 158.667081 270.63706 
L 160.298511 272.871264 
L 161.929941 271.339114 
L 163.56137 274.617557 
L 165.1928 273.225474 
L 166.82423 273.370866 
L 168.45566 274.298424 
L 170.08709 273.617623 
L 171.71852 273.598791 
L 173.34995 275.116719 
L 176.61281 273.510302 
L 178.244239 271.467113 
L 179.875669 273.800539 
L 181.507099 274.215557 
L 183.138529 274.272432 
L 184.769959 271.599716 
L 188.032819 276.747498 
L 189.664249 276.514776 
L 191.295678 276.557532 
L 192.927108 275.681607 
L 194.558538 273.272885 
L 196.189968 276.284977 
L 197.821398 271.926899 
L 199.452828 275.555461 
L 201.084258 276.718336 
L 202.715688 276.71227 
L 204.347117 276.312477 
L 205.978547 272.692178 
L 207.609977 277.896741 
L 209.241407 275.530641 
L 210.872837 279.09322 
L 212.504267 275.776369 
L 214.135697 276.456474 
L 215.767127 275.650505 
L 217.398556 277.358598 
L 219.029986 275.135029 
L 220.661416 277.168745 
L 222.292846 277.708417 
L 223.924276 277.728132 
L 225.555706 269.720969 
L 227.187136 269.871879 
L 228.818566 274.300085 
L 230.449995 274.054461 
L 232.081425 274.423512 
L 233.712855 275.822278 
L 235.344285 270.927732 
L 236.975715 273.161821 
L 238.607145 272.754061 
L 240.238575 278.749995 
L 241.870005 284.062284 
L 243.501434 278.1773 
L 245.132864 280.440598 
L 246.764294 281.058123 
L 248.395724 278.742265 
L 250.027154 281.026013 
L 251.658584 279.422592 
L 253.290014 281.473567 
L 254.921444 281.212649 
L 256.552873 278.225978 
L 258.184303 277.01666 
L 259.815733 280.570475 
L 261.447163 281.586102 
L 263.078593 277.831525 
L 264.710023 275.943627 
L 267.972883 278.648289 
L 269.604312 278.109958 
L 271.235742 275.657832 
L 272.867172 275.847613 
L 274.498602 277.841981 
L 276.130032 276.473125 
L 277.761462 278.878069 
L 279.392892 283.112095 
L 281.024322 280.984794 
L 282.655751 279.419901 
L 284.287181 276.689797 
L 285.918611 279.818519 
L 287.550041 277.687668 
L 289.181471 278.076931 
L 290.812901 276.762037 
L 292.444331 278.062276 
L 294.075761 281.826701 
L 295.70719 277.241748 
L 297.33862 279.11764 
L 298.97005 277.981836 
L 300.60148 277.715781 
L 302.23291 279.399872 
L 303.86434 278.491537 
L 305.49577 283.375574 
L 307.1272 280.968109 
L 308.75863 279.407065 
L 310.390059 280.902286 
L 312.021489 279.641134 
L 313.652919 280.794007 
L 315.284349 280.015046 
L 318.547209 281.466023 
L 321.810069 277.835004 
L 323.441498 283.125446 
L 325.072928 278.118849 
L 326.704358 279.443521 
L 328.335788 279.109584 
L 329.967218 280.866646 
L 331.598648 279.116487 
L 333.230078 279.873691 
L 334.861508 282.554923 
L 336.492937 283.090007 
L 338.124367 277.421138 
L 339.755797 280.568406 
L 341.387227 281.130701 
L 343.018657 280.837996 
L 344.650087 278.562553 
L 346.281517 282.439726 
L 347.912947 287.857512 
L 349.544376 283.338783 
L 351.175806 282.079017 
L 352.807236 280.017915 
L 354.438666 279.460394 
L 356.070096 277.726234 
L 357.701526 278.770759 
L 359.332956 283.862606 
L 360.964386 280.598112 
L 362.595815 283.26776 
L 364.227245 280.160064 
L 365.858675 281.129812 
L 367.490105 286.49421 
L 369.121535 280.098326 
L 370.752965 281.442626 
L 372.384395 280.696587 
L 374.015825 282.356801 
L 375.647254 281.332523 
L 377.278684 282.308796 
L 378.910114 279.649341 
L 382.172974 278.45082 
L 383.804404 281.230835 
L 385.435834 279.113462 
L 387.067264 277.808506 
L 388.698693 280.865636 
L 390.330123 279.112945 
L 391.961553 279.574566 
L 393.592983 278.211564 
L 395.224413 278.722546 
L 396.855843 278.657419 
L 398.487273 281.453417 
L 398.487273 281.453417 
" clip-path="url(#p1499d443fa)" style="fill: none; stroke-dasharray: 9.6,2.4,1.5,2.4; stroke-dashoffset: 0; stroke: #008000; stroke-width: 1.5"/>
   </g>
   <g id="line2d_33">
    <path d="M 73.832727 255.672672 
L 75.464157 246.310897 
L 77.095587 243.165543 
L 78.727017 241.372674 
L 80.358447 239.053538 
L 81.989877 239.674217 
L 83.621307 240.018672 
L 85.252736 239.402036 
L 86.884166 239.315201 
L 88.515596 242.138766 
L 90.147026 240.080583 
L 91.778456 237.247441 
L 93.409886 238.952642 
L 95.041316 236.366227 
L 96.672746 237.679406 
L 98.304175 234.739325 
L 99.935605 233.122553 
L 101.567035 229.586478 
L 104.829895 232.294333 
L 106.461325 230.751023 
L 108.092755 231.784596 
L 109.724185 231.228095 
L 111.355614 228.105379 
L 112.987044 230.336218 
L 114.618474 228.434146 
L 116.249904 231.415626 
L 117.881334 226.997774 
L 119.512764 230.687847 
L 121.144194 230.577444 
L 122.775624 232.914199 
L 124.407053 234.008578 
L 126.038483 230.039365 
L 127.669913 235.704119 
L 129.301343 234.255377 
L 130.932773 231.448886 
L 132.564203 232.448966 
L 134.195633 233.055488 
L 135.827063 234.763979 
L 137.458492 233.156653 
L 139.089922 234.846511 
L 140.721352 236.718165 
L 143.984212 231.00787 
L 145.615642 237.04444 
L 147.247072 236.666226 
L 148.878502 235.409215 
L 152.141361 236.630557 
L 153.772791 232.082646 
L 155.404221 233.45842 
L 157.035651 235.01291 
L 158.667081 233.222 
L 160.298511 235.222441 
L 161.929941 235.803349 
L 163.56137 234.202724 
L 165.1928 233.346953 
L 166.82423 232.789919 
L 168.45566 235.153337 
L 170.08709 232.597237 
L 171.71852 232.731834 
L 173.34995 231.147974 
L 174.98138 235.642274 
L 176.61281 232.848904 
L 178.244239 232.484481 
L 179.875669 234.385397 
L 181.507099 234.596537 
L 183.138529 235.412344 
L 184.769959 234.857587 
L 186.401389 234.791513 
L 188.032819 231.934635 
L 189.664249 233.690217 
L 191.295678 233.72209 
L 192.927108 228.919526 
L 194.558538 233.395977 
L 196.189968 231.573414 
L 197.821398 234.580207 
L 199.452828 233.825213 
L 201.084258 234.863128 
L 202.715688 233.676775 
L 204.347117 231.421656 
L 205.978547 232.895889 
L 207.609977 236.13785 
L 209.241407 232.550919 
L 210.872837 236.165245 
L 212.504267 235.514728 
L 214.135697 234.116238 
L 215.767127 234.893073 
L 217.398556 236.95427 
L 219.029986 235.381058 
L 220.661416 234.442198 
L 222.292846 233.772869 
L 223.924276 238.909478 
L 225.555706 240.146007 
L 227.187136 239.370005 
L 228.818566 235.109626 
L 230.449995 235.454801 
L 232.081425 235.477383 
L 233.712855 238.277466 
L 235.344285 236.594241 
L 236.975715 237.505639 
L 238.607145 239.759297 
L 240.238575 239.577687 
L 241.870005 230.353756 
L 243.501434 230.794431 
L 245.132864 228.446837 
L 246.764294 229.685728 
L 248.395724 228.222652 
L 250.027154 225.582892 
L 251.658584 225.243399 
L 253.290014 228.127079 
L 254.921444 229.075501 
L 256.552873 228.649853 
L 258.184303 226.222363 
L 259.815733 229.375356 
L 261.447163 231.512187 
L 263.078593 230.114991 
L 266.341453 230.020401 
L 269.604312 230.488496 
L 271.235742 229.508848 
L 272.867172 229.289639 
L 274.498602 227.743171 
L 276.130032 229.476608 
L 277.761462 230.387631 
L 279.392892 231.572668 
L 282.655751 230.812231 
L 284.287181 229.973395 
L 287.550041 230.164989 
L 289.181471 227.582595 
L 290.812901 227.465779 
L 292.444331 229.744918 
L 294.075761 220.518938 
L 295.70719 227.096166 
L 297.33862 227.886277 
L 298.97005 229.642693 
L 300.60148 229.974605 
L 302.23291 230.530315 
L 305.49577 229.676881 
L 307.1272 230.793532 
L 308.75863 229.404619 
L 310.390059 229.061636 
L 312.021489 230.826811 
L 313.652919 230.521564 
L 315.284349 226.363976 
L 318.547209 230.942253 
L 321.810069 228.030098 
L 323.441498 230.946191 
L 325.072928 229.678888 
L 326.704358 229.898272 
L 328.335788 228.180778 
L 329.967218 231.042271 
L 331.598648 230.526731 
L 333.230078 228.2079 
L 334.861508 229.753603 
L 336.492937 229.376916 
L 338.124367 226.470755 
L 339.755797 228.34135 
L 341.387227 229.537474 
L 343.018657 229.540734 
L 344.650087 224.751407 
L 346.281517 226.960329 
L 347.912947 227.309617 
L 349.544376 229.680799 
L 351.175806 227.207757 
L 352.807236 226.976123 
L 354.438666 232.108923 
L 356.070096 231.273198 
L 357.701526 230.853859 
L 359.332956 229.131837 
L 360.964386 228.832368 
L 364.227245 227.370771 
L 365.858675 221.101353 
L 367.490105 221.663496 
L 369.121535 226.209962 
L 370.752965 229.868443 
L 372.384395 224.945082 
L 374.015825 227.169448 
L 375.647254 226.486165 
L 377.278684 228.999904 
L 378.910114 227.926487 
L 380.541544 230.512965 
L 382.172974 227.883671 
L 383.804404 228.824546 
L 385.435834 225.592427 
L 387.067264 222.900788 
L 388.698693 226.630877 
L 390.330123 226.002609 
L 391.961553 228.236792 
L 393.592983 226.826017 
L 395.224413 226.596577 
L 396.855843 225.790158 
L 398.487273 228.70013 
L 398.487273 228.70013 
" clip-path="url(#p1499d443fa)" style="fill: none; stroke-dasharray: 9.6,2.4,1.5,2.4; stroke-dashoffset: 0; stroke: #008000; stroke-width: 1.5"/>
   </g>
   <g id="line2d_34">
    <path d="M 73.832727 184.080627 
L 75.464157 182.51302 
L 90.147026 182.51302 
L 91.778456 180.271029 
L 96.672746 180.271029 
L 98.304175 179.610044 
L 99.935605 179.520721 
L 101.567035 178.93566 
L 108.092755 178.93566 
L 109.724185 178.819541 
L 112.987044 178.819541 
L 114.618474 177.363587 
L 129.301343 177.363587 
L 130.932773 174.75984 
L 142.352782 174.75984 
L 143.984212 174.393619 
L 240.238575 174.393619 
L 241.870005 55.542033 
L 292.444331 55.542033 
L 294.075761 53.568 
L 398.487273 53.568 
L 398.487273 53.568 
" clip-path="url(#p1499d443fa)" style="fill: none; stroke: #ff0000; stroke-width: 1.5; stroke-linecap: square"/>
   </g>
   <g id="patch_3">
    <path d="M 57.6 307.584 
L 57.6 41.472 
" style="fill: none; stroke: #000000; stroke-width: 0.8; stroke-linejoin: miter; stroke-linecap: square"/>
   </g>
   <g id="patch_4">
    <path d="M 414.72 307.584 
L 414.72 41.472 
" style="fill: none; stroke: #000000; stroke-width: 0.8; stroke-linejoin: miter; stroke-linecap: square"/>
   </g>
   <g id="patch_5">
    <path d="M 57.6 307.584 
L 414.72 307.584 
" style="fill: none; stroke: #000000; stroke-width: 0.8; stroke-linejoin: miter; stroke-linecap: square"/>
   </g>
   <g id="patch_6">
    <path d="M 57.6 41.472 
L 414.72 41.472 
" style="fill: none; stroke: #000000; stroke-width: 0.8; stroke-linejoin: miter; stroke-linecap: square"/>
   </g>
   <g id="text_18">
    <!-- Population's average and best fitness -->
    <g transform="translate(123.529687 35.472) scale(0.12 -0.12)">
     <defs>
      <path id="DejaVuSans-50" d="M 1259 4147 
L 1259 2394 
L 2053 2394 
Q 2494 2394 2734 2622 
Q 2975 2850 2975 3272 
Q 2975 3691 2734 3919 
Q 2494 4147 2053 4147 
L 1259 4147 
z
M 628 4666 
L 2053 4666 
Q 2838 4666 3239 4311 
Q 3641 3956 3641 3272 
Q 3641 2581 3239 2228 
Q 2838 1875 2053 1875 
L 1259 1875 
L 1259 0 
L 628 0 
L 628 4666 
z
" transform="scale(0.015625)"/>
      <path id="DejaVuSans-70" d="M 1159 525 
L 1159 -1331 
L 581 -1331 
L 581 3500 
L 1159 3500 
L 1159 2969 
Q 1341 3281 1617 3432 
Q 1894 3584 2278 3584 
Q 2916 3584 3314 3078 
Q 3713 2572 3713 1747 
Q 3713 922 3314 415 
Q 2916 -91 2278 -91 
Q 1894 -91 1617 61 
Q 1341 213 1159 525 
z
M 3116 1747 
Q 3116 2381 2855 2742 
Q 2594 3103 2138 3103 
Q 1681 3103 1420 2742 
Q 1159 2381 1159 1747 
Q 1159 1113 1420 752 
Q 1681 391 2138 391 
Q 2594 391 2855 752 
Q 3116 1113 3116 1747 
z
" transform="scale(0.015625)"/>
      <path id="DejaVuSans-75" d="M 544 1381 
L 544 3500 
L 1119 3500 
L 1119 1403 
Q 1119 906 1312 657 
Q 1506 409 1894 409 
Q 2359 409 2629 706 
Q 2900 1003 2900 1516 
L 2900 3500 
L 3475 3500 
L 3475 0 
L 2900 0 
L 2900 538 
Q 2691 219 2414 64 
Q 2138 -91 1772 -91 
Q 1169 -91 856 284 
Q 544 659 544 1381 
z
M 1991 3584 
L 1991 3584 
z
" transform="scale(0.015625)"/>
      <path id="DejaVuSans-6c" d="M 603 4863 
L 1178 4863 
L 1178 0 
L 603 0 
L 603 4863 
z
" transform="scale(0.015625)"/>
      <path id="DejaVuSans-27" d="M 1147 4666 
L 1147 2931 
L 616 2931 
L 616 4666 
L 1147 4666 
z
" transform="scale(0.015625)"/>
      <path id="DejaVuSans-20" transform="scale(0.015625)"/>
      <path id="DejaVuSans-76" d="M 191 3500 
L 800 3500 
L 1894 563 
L 2988 3500 
L 3597 3500 
L 2284 0 
L 1503 0 
L 191 3500 
z
" transform="scale(0.015625)"/>
      <path id="DejaVuSans-67" d="M 2906 1791 
Q 2906 2416 2648 2759 
Q 2391 3103 1925 3103 
Q 1463 3103 1205 2759 
Q 947 2416 947 1791 
Q 947 1169 1205 825 
Q 1463 481 1925 481 
Q 2391 481 2648 825 
Q 2906 1169 2906 1791 
z
M 3481 434 
Q 3481 -459 3084 -895 
Q 2688 -1331 1869 -1331 
Q 1566 -1331 1297 -1286 
Q 1028 -1241 775 -1147 
L 775 -588 
Q 1028 -725 1275 -790 
Q 1522 -856 1778 -856 
Q 2344 -856 2625 -561 
Q 2906 -266 2906 331 
L 2906 616 
Q 2728 306 2450 153 
Q 2172 0 1784 0 
Q 1141 0 747 490 
Q 353 981 353 1791 
Q 353 2603 747 3093 
Q 1141 3584 1784 3584 
Q 2172 3584 2450 3431 
Q 2728 3278 2906 2969 
L 2906 3500 
L 3481 3500 
L 3481 434 
z
" transform="scale(0.015625)"/>
      <path id="DejaVuSans-64" d="M 2906 2969 
L 2906 4863 
L 3481 4863 
L 3481 0 
L 2906 0 
L 2906 525 
Q 2725 213 2448 61 
Q 2172 -91 1784 -91 
Q 1150 -91 751 415 
Q 353 922 353 1747 
Q 353 2572 751 3078 
Q 1150 3584 1784 3584 
Q 2172 3584 2448 3432 
Q 2725 3281 2906 2969 
z
M 947 1747 
Q 947 1113 1208 752 
Q 1469 391 1925 391 
Q 2381 391 2643 752 
Q 2906 1113 2906 1747 
Q 2906 2381 2643 2742 
Q 2381 3103 1925 3103 
Q 1469 3103 1208 2742 
Q 947 2381 947 1747 
z
" transform="scale(0.015625)"/>
      <path id="DejaVuSans-62" d="M 3116 1747 
Q 3116 2381 2855 2742 
Q 2594 3103 2138 3103 
Q 1681 3103 1420 2742 
Q 1159 2381 1159 1747 
Q 1159 1113 1420 752 
Q 1681 391 2138 391 
Q 2594 391 2855 752 
Q 3116 1113 3116 1747 
z
M 1159 2969 
Q 1341 3281 1617 3432 
Q 1894 3584 2278 3584 
Q 2916 3584 3314 3078 
Q 3713 2572 3713 1747 
Q 3713 922 3314 415 
Q 2916 -91 2278 -91 
Q 1894 -91 1617 61 
Q 1341 213 1159 525 
L 1159 0 
L 581 0 
L 581 4863 
L 1159 4863 
L 1159 2969 
z
" transform="scale(0.015625)"/>
      <path id="DejaVuSans-66" d="M 2375 4863 
L 2375 4384 
L 1825 4384 
Q 1516 4384 1395 4259 
Q 1275 4134 1275 3809 
L 1275 3500 
L 2222 3500 
L 2222 3053 
L 1275 3053 
L 1275 0 
L 697 0 
L 697 3053 
L 147 3053 
L 147 3500 
L 697 3500 
L 697 3744 
Q 697 4328 969 4595 
Q 1241 4863 1831 4863 
L 2375 4863 
z
" transform="scale(0.015625)"/>
     </defs>
     <use xlink:href="#DejaVuSans-50"/>
     <use xlink:href="#DejaVuSans-6f" x="56.677734"/>
     <use xlink:href="#DejaVuSans-70" x="117.859375"/>
     <use xlink:href="#DejaVuSans-75" x="181.335938"/>
     <use xlink:href="#DejaVuSans-6c" x="244.714844"/>
     <use xlink:href="#DejaVuSans-61" x="272.498047"/>
     <use xlink:href="#DejaVuSans-74" x="333.777344"/>
     <use xlink:href="#DejaVuSans-69" x="372.986328"/>
     <use xlink:href="#DejaVuSans-6f" x="400.769531"/>
     <use xlink:href="#DejaVuSans-6e" x="461.951172"/>
     <use xlink:href="#DejaVuSans-27" x="525.330078"/>
     <use xlink:href="#DejaVuSans-73" x="552.820312"/>
     <use xlink:href="#DejaVuSans-20" x="604.919922"/>
     <use xlink:href="#DejaVuSans-61" x="636.707031"/>
     <use xlink:href="#DejaVuSans-76" x="697.986328"/>
     <use xlink:href="#DejaVuSans-65" x="757.166016"/>
     <use xlink:href="#DejaVuSans-72" x="818.689453"/>
     <use xlink:href="#DejaVuSans-61" x="859.802734"/>
     <use xlink:href="#DejaVuSans-67" x="921.082031"/>
     <use xlink:href="#DejaVuSans-65" x="984.558594"/>
     <use xlink:href="#DejaVuSans-20" x="1046.082031"/>
     <use xlink:href="#DejaVuSans-61" x="1077.869141"/>
     <use xlink:href="#DejaVuSans-6e" x="1139.148438"/>
     <use xlink:href="#DejaVuSans-64" x="1202.527344"/>
     <use xlink:href="#DejaVuSans-20" x="1266.003906"/>
     <use xlink:href="#DejaVuSans-62" x="1297.791016"/>
     <use xlink:href="#DejaVuSans-65" x="1361.267578"/>
     <use xlink:href="#DejaVuSans-73" x="1422.791016"/>
     <use xlink:href="#DejaVuSans-74" x="1474.890625"/>
     <use xlink:href="#DejaVuSans-20" x="1514.099609"/>
     <use xlink:href="#DejaVuSans-66" x="1545.886719"/>
     <use xlink:href="#DejaVuSans-69" x="1581.091797"/>
     <use xlink:href="#DejaVuSans-74" x="1608.875"/>
     <use xlink:href="#DejaVuSans-6e" x="1648.083984"/>
     <use xlink:href="#DejaVuSans-65" x="1711.462891"/>
     <use xlink:href="#DejaVuSans-73" x="1772.986328"/>
     <use xlink:href="#DejaVuSans-73" x="1825.085938"/>
    </g>
   </g>
   <g id="legend_1">
    <g id="patch_7">
     <path d="M 64.6 108.1845 
L 137.540625 108.1845 
Q 139.540625 108.1845 139.540625 106.1845 
L 139.540625 48.472 
Q 139.540625 46.472 137.540625 46.472 
L 64.6 46.472 
Q 62.6 46.472 62.6 48.472 
L 62.6 106.1845 
Q 62.6 108.1845 64.6 108.1845 
z
" style="fill: #ffffff; opacity: 0.8; stroke: #cccccc; stroke-linejoin: miter"/>
    </g>
    <g id="line2d_35">
     <path d="M 66.6 54.570438 
L 76.6 54.570438 
L 86.6 54.570438 
" style="fill: none; stroke: #0000ff; stroke-width: 1.5; stroke-linecap: square"/>
    </g>
    <g id="text_19">
     <!-- average -->
     <g transform="translate(94.6 58.070438) scale(0.1 -0.1)">
      <use xlink:href="#DejaVuSans-61"/>
      <use xlink:href="#DejaVuSans-76" x="61.279297"/>
      <use xlink:href="#DejaVuSans-65" x="120.458984"/>
      <use xlink:href="#DejaVuSans-72" x="181.982422"/>
      <use xlink:href="#DejaVuSans-61" x="223.095703"/>
      <use xlink:href="#DejaVuSans-67" x="284.375"/>
      <use xlink:href="#DejaVuSans-65" x="347.851562"/>
     </g>
    </g>
    <g id="line2d_36">
     <path d="M 66.6 69.248563 
L 76.6 69.248563 
L 86.6 69.248563 
" style="fill: none; stroke-dasharray: 9.6,2.4,1.5,2.4; stroke-dashoffset: 0; stroke: #008000; stroke-width: 1.5"/>
    </g>
    <g id="text_20">
     <!-- -1 sd -->
     <g transform="translate(94.6 72.748563) scale(0.1 -0.1)">
      <defs>
       <path id="DejaVuSans-2d" d="M 313 2009 
L 1997 2009 
L 1997 1497 
L 313 1497 
L 313 2009 
z
" transform="scale(0.015625)"/>
      </defs>
      <use xlink:href="#DejaVuSans-2d"/>
      <use xlink:href="#DejaVuSans-31" x="36.083984"/>
      <use xlink:href="#DejaVuSans-20" x="99.707031"/>
      <use xlink:href="#DejaVuSans-73" x="131.494141"/>
      <use xlink:href="#DejaVuSans-64" x="183.59375"/>
     </g>
    </g>
    <g id="line2d_37">
     <path d="M 66.6 83.926688 
L 76.6 83.926688 
L 86.6 83.926688 
" style="fill: none; stroke-dasharray: 9.6,2.4,1.5,2.4; stroke-dashoffset: 0; stroke: #008000; stroke-width: 1.5"/>
    </g>
    <g id="text_21">
     <!-- +1 sd -->
     <g transform="translate(94.6 87.426688) scale(0.1 -0.1)">
      <defs>
       <path id="DejaVuSans-2b" d="M 2944 4013 
L 2944 2272 
L 4684 2272 
L 4684 1741 
L 2944 1741 
L 2944 0 
L 2419 0 
L 2419 1741 
L 678 1741 
L 678 2272 
L 2419 2272 
L 2419 4013 
L 2944 4013 
z
" transform="scale(0.015625)"/>
      </defs>
      <use xlink:href="#DejaVuSans-2b"/>
      <use xlink:href="#DejaVuSans-31" x="83.789062"/>
      <use xlink:href="#DejaVuSans-20" x="147.412109"/>
      <use xlink:href="#DejaVuSans-73" x="179.199219"/>
      <use xlink:href="#DejaVuSans-64" x="231.298828"/>
     </g>
    </g>
    <g id="line2d_38">
     <path d="M 66.6 98.604813 
L 76.6 98.604813 
L 86.6 98.604813 
" style="fill: none; stroke: #ff0000; stroke-width: 1.5; stroke-linecap: square"/>
    </g>
    <g id="text_22">
     <!-- best -->
     <g transform="translate(94.6 102.104813) scale(0.1 -0.1)">
      <use xlink:href="#DejaVuSans-62"/>
      <use xlink:href="#DejaVuSans-65" x="63.476562"/>
      <use xlink:href="#DejaVuSans-73" x="125"/>
      <use xlink:href="#DejaVuSans-74" x="177.099609"/>
     </g>
    </g>
   </g>
  </g>
 </g>
 <defs>
  <clipPath id="p1499d443fa">
   <rect x="57.6" y="41.472" width="357.12" height="266.112"/>
  </clipPath>
 </defs>
</svg>
