<?xml version="1.0" encoding="utf-8" standalone="no"?>
<!DOCTYPE svg PUBLIC "-//W3C//DTD SVG 1.1//EN"
  "http://www.w3.org/Graphics/SVG/1.1/DTD/svg11.dtd">
<svg xmlns:xlink="http://www.w3.org/1999/xlink" width="460.8pt" height="345.6pt" viewBox="0 0 460.8 345.6" xmlns="http://www.w3.org/2000/svg" version="1.1">
 <metadata>
  <rdf:RDF xmlns:dc="http://purl.org/dc/elements/1.1/" xmlns:cc="http://creativecommons.org/ns#" xmlns:rdf="http://www.w3.org/1999/02/22-rdf-syntax-ns#">
   <cc:Work>
    <dc:type rdf:resource="http://purl.org/dc/dcmitype/StillImage"/>
    <dc:date>2024-08-03T22:26:57.764498</dc:date>
    <dc:format>image/svg+xml</dc:format>
    <dc:creator>
     <cc:Agent>
      <dc:title>Matplotlib v3.8.4, https://matplotlib.org/</dc:title>
     </cc:Agent>
    </dc:creator>
   </cc:Work>
  </rdf:RDF>
 </metadata>
 <defs>
  <style type="text/css">*{stroke-linejoin: round; stroke-linecap: butt}</style>
 </defs>
 <g id="figure_1">
  <g id="patch_1">
   <path d="M 0 345.6 
L 460.8 345.6 
L 460.8 0 
L 0 0 
z
" style="fill: #ffffff"/>
  </g>
  <g id="axes_1">
   <g id="patch_2">
    <path d="M 57.6 307.584 
L 414.72 307.584 
L 414.72 41.472 
L 57.6 41.472 
z
" style="fill: #ffffff"/>
   </g>
   <g id="matplotlib.axis_1">
    <g id="xtick_1">
     <g id="line2d_1">
      <path d="M 73.832727 307.584 
L 73.832727 41.472 
" clip-path="url(#p0d4d9c7e0f)" style="fill: none; stroke: #b0b0b0; stroke-width: 0.8; stroke-linecap: square"/>
     </g>
     <g id="line2d_2">
      <defs>
       <path id="mfbdab232f3" d="M 0 0 
L 0 3.5 
" style="stroke: #000000; stroke-width: 0.8"/>
      </defs>
      <g>
       <use xlink:href="#mfbdab232f3" x="73.832727" y="307.584" style="stroke: #000000; stroke-width: 0.8"/>
      </g>
     </g>
     <g id="text_1">
      <!-- 0 -->
      <g transform="translate(70.651477 322.182437) scale(0.1 -0.1)">
       <defs>
        <path id="DejaVuSans-30" d="M 2034 4250 
Q 1547 4250 1301 3770 
Q 1056 3291 1056 2328 
Q 1056 1369 1301 889 
Q 1547 409 2034 409 
Q 2525 409 2770 889 
Q 3016 1369 3016 2328 
Q 3016 3291 2770 3770 
Q 2525 4250 2034 4250 
z
M 2034 4750 
Q 2819 4750 3233 4129 
Q 3647 3509 3647 2328 
Q 3647 1150 3233 529 
Q 2819 -91 2034 -91 
Q 1250 -91 836 529 
Q 422 1150 422 2328 
Q 422 3509 836 4129 
Q 1250 4750 2034 4750 
z
" transform="scale(0.015625)"/>
       </defs>
       <use xlink:href="#DejaVuSans-30"/>
      </g>
     </g>
    </g>
    <g id="xtick_2">
     <g id="line2d_3">
      <path d="M 114.618474 307.584 
L 114.618474 41.472 
" clip-path="url(#p0d4d9c7e0f)" style="fill: none; stroke: #b0b0b0; stroke-width: 0.8; stroke-linecap: square"/>
     </g>
     <g id="line2d_4">
      <g>
       <use xlink:href="#mfbdab232f3" x="114.618474" y="307.584" style="stroke: #000000; stroke-width: 0.8"/>
      </g>
     </g>
     <g id="text_2">
      <!-- 25 -->
      <g transform="translate(108.255974 322.182437) scale(0.1 -0.1)">
       <defs>
        <path id="DejaVuSans-32" d="M 1228 531 
L 3431 531 
L 3431 0 
L 469 0 
L 469 531 
Q 828 903 1448 1529 
Q 2069 2156 2228 2338 
Q 2531 2678 2651 2914 
Q 2772 3150 2772 3378 
Q 2772 3750 2511 3984 
Q 2250 4219 1831 4219 
Q 1534 4219 1204 4116 
Q 875 4013 500 3803 
L 500 4441 
Q 881 4594 1212 4672 
Q 1544 4750 1819 4750 
Q 2544 4750 2975 4387 
Q 3406 4025 3406 3419 
Q 3406 3131 3298 2873 
Q 3191 2616 2906 2266 
Q 2828 2175 2409 1742 
Q 1991 1309 1228 531 
z
" transform="scale(0.015625)"/>
        <path id="DejaVuSans-35" d="M 691 4666 
L 3169 4666 
L 3169 4134 
L 1269 4134 
L 1269 2991 
Q 1406 3038 1543 3061 
Q 1681 3084 1819 3084 
Q 2600 3084 3056 2656 
Q 3513 2228 3513 1497 
Q 3513 744 3044 326 
Q 2575 -91 1722 -91 
Q 1428 -91 1123 -41 
Q 819 9 494 109 
L 494 744 
Q 775 591 1075 516 
Q 1375 441 1709 441 
Q 2250 441 2565 725 
Q 2881 1009 2881 1497 
Q 2881 1984 2565 2268 
Q 2250 2553 1709 2553 
Q 1456 2553 1204 2497 
Q 953 2441 691 2322 
L 691 4666 
z
" transform="scale(0.015625)"/>
       </defs>
       <use xlink:href="#DejaVuSans-32"/>
       <use xlink:href="#DejaVuSans-35" x="63.623047"/>
      </g>
     </g>
    </g>
    <g id="xtick_3">
     <g id="line2d_5">
      <path d="M 155.404221 307.584 
L 155.404221 41.472 
" clip-path="url(#p0d4d9c7e0f)" style="fill: none; stroke: #b0b0b0; stroke-width: 0.8; stroke-linecap: square"/>
     </g>
     <g id="line2d_6">
      <g>
       <use xlink:href="#mfbdab232f3" x="155.404221" y="307.584" style="stroke: #000000; stroke-width: 0.8"/>
      </g>
     </g>
     <g id="text_3">
      <!-- 50 -->
      <g transform="translate(149.041721 322.182437) scale(0.1 -0.1)">
       <use xlink:href="#DejaVuSans-35"/>
       <use xlink:href="#DejaVuSans-30" x="63.623047"/>
      </g>
     </g>
    </g>
    <g id="xtick_4">
     <g id="line2d_7">
      <path d="M 196.189968 307.584 
L 196.189968 41.472 
" clip-path="url(#p0d4d9c7e0f)" style="fill: none; stroke: #b0b0b0; stroke-width: 0.8; stroke-linecap: square"/>
     </g>
     <g id="line2d_8">
      <g>
       <use xlink:href="#mfbdab232f3" x="196.189968" y="307.584" style="stroke: #000000; stroke-width: 0.8"/>
      </g>
     </g>
     <g id="text_4">
      <!-- 75 -->
      <g transform="translate(189.827468 322.182437) scale(0.1 -0.1)">
       <defs>
        <path id="DejaVuSans-37" d="M 525 4666 
L 3525 4666 
L 3525 4397 
L 1831 0 
L 1172 0 
L 2766 4134 
L 525 4134 
L 525 4666 
z
" transform="scale(0.015625)"/>
       </defs>
       <use xlink:href="#DejaVuSans-37"/>
       <use xlink:href="#DejaVuSans-35" x="63.623047"/>
      </g>
     </g>
    </g>
    <g id="xtick_5">
     <g id="line2d_9">
      <path d="M 236.975715 307.584 
L 236.975715 41.472 
" clip-path="url(#p0d4d9c7e0f)" style="fill: none; stroke: #b0b0b0; stroke-width: 0.8; stroke-linecap: square"/>
     </g>
     <g id="line2d_10">
      <g>
       <use xlink:href="#mfbdab232f3" x="236.975715" y="307.584" style="stroke: #000000; stroke-width: 0.8"/>
      </g>
     </g>
     <g id="text_5">
      <!-- 100 -->
      <g transform="translate(227.431965 322.182437) scale(0.1 -0.1)">
       <defs>
        <path id="DejaVuSans-31" d="M 794 531 
L 1825 531 
L 1825 4091 
L 703 3866 
L 703 4441 
L 1819 4666 
L 2450 4666 
L 2450 531 
L 3481 531 
L 3481 0 
L 794 0 
L 794 531 
z
" transform="scale(0.015625)"/>
       </defs>
       <use xlink:href="#DejaVuSans-31"/>
       <use xlink:href="#DejaVuSans-30" x="63.623047"/>
       <use xlink:href="#DejaVuSans-30" x="127.246094"/>
      </g>
     </g>
    </g>
    <g id="xtick_6">
     <g id="line2d_11">
      <path d="M 277.761462 307.584 
L 277.761462 41.472 
" clip-path="url(#p0d4d9c7e0f)" style="fill: none; stroke: #b0b0b0; stroke-width: 0.8; stroke-linecap: square"/>
     </g>
     <g id="line2d_12">
      <g>
       <use xlink:href="#mfbdab232f3" x="277.761462" y="307.584" style="stroke: #000000; stroke-width: 0.8"/>
      </g>
     </g>
     <g id="text_6">
      <!-- 125 -->
      <g transform="translate(268.217712 322.182437) scale(0.1 -0.1)">
       <use xlink:href="#DejaVuSans-31"/>
       <use xlink:href="#DejaVuSans-32" x="63.623047"/>
       <use xlink:href="#DejaVuSans-35" x="127.246094"/>
      </g>
     </g>
    </g>
    <g id="xtick_7">
     <g id="line2d_13">
      <path d="M 318.547209 307.584 
L 318.547209 41.472 
" clip-path="url(#p0d4d9c7e0f)" style="fill: none; stroke: #b0b0b0; stroke-width: 0.8; stroke-linecap: square"/>
     </g>
     <g id="line2d_14">
      <g>
       <use xlink:href="#mfbdab232f3" x="318.547209" y="307.584" style="stroke: #000000; stroke-width: 0.8"/>
      </g>
     </g>
     <g id="text_7">
      <!-- 150 -->
      <g transform="translate(309.003459 322.182437) scale(0.1 -0.1)">
       <use xlink:href="#DejaVuSans-31"/>
       <use xlink:href="#DejaVuSans-35" x="63.623047"/>
       <use xlink:href="#DejaVuSans-30" x="127.246094"/>
      </g>
     </g>
    </g>
    <g id="xtick_8">
     <g id="line2d_15">
      <path d="M 359.332956 307.584 
L 359.332956 41.472 
" clip-path="url(#p0d4d9c7e0f)" style="fill: none; stroke: #b0b0b0; stroke-width: 0.8; stroke-linecap: square"/>
     </g>
     <g id="line2d_16">
      <g>
       <use xlink:href="#mfbdab232f3" x="359.332956" y="307.584" style="stroke: #000000; stroke-width: 0.8"/>
      </g>
     </g>
     <g id="text_8">
      <!-- 175 -->
      <g transform="translate(349.789206 322.182437) scale(0.1 -0.1)">
       <use xlink:href="#DejaVuSans-31"/>
       <use xlink:href="#DejaVuSans-37" x="63.623047"/>
       <use xlink:href="#DejaVuSans-35" x="127.246094"/>
      </g>
     </g>
    </g>
    <g id="xtick_9">
     <g id="line2d_17">
      <path d="M 400.118703 307.584 
L 400.118703 41.472 
" clip-path="url(#p0d4d9c7e0f)" style="fill: none; stroke: #b0b0b0; stroke-width: 0.8; stroke-linecap: square"/>
     </g>
     <g id="line2d_18">
      <g>
       <use xlink:href="#mfbdab232f3" x="400.118703" y="307.584" style="stroke: #000000; stroke-width: 0.8"/>
      </g>
     </g>
     <g id="text_9">
      <!-- 200 -->
      <g transform="translate(390.574953 322.182437) scale(0.1 -0.1)">
       <use xlink:href="#DejaVuSans-32"/>
       <use xlink:href="#DejaVuSans-30" x="63.623047"/>
       <use xlink:href="#DejaVuSans-30" x="127.246094"/>
      </g>
     </g>
    </g>
    <g id="text_10">
     <!-- Generations -->
     <g transform="translate(205.662344 335.860562) scale(0.1 -0.1)">
      <defs>
       <path id="DejaVuSans-47" d="M 3809 666 
L 3809 1919 
L 2778 1919 
L 2778 2438 
L 4434 2438 
L 4434 434 
Q 4069 175 3628 42 
Q 3188 -91 2688 -91 
Q 1594 -91 976 548 
Q 359 1188 359 2328 
Q 359 3472 976 4111 
Q 1594 4750 2688 4750 
Q 3144 4750 3555 4637 
Q 3966 4525 4313 4306 
L 4313 3634 
Q 3963 3931 3569 4081 
Q 3175 4231 2741 4231 
Q 1884 4231 1454 3753 
Q 1025 3275 1025 2328 
Q 1025 1384 1454 906 
Q 1884 428 2741 428 
Q 3075 428 3337 486 
Q 3600 544 3809 666 
z
" transform="scale(0.015625)"/>
       <path id="DejaVuSans-65" d="M 3597 1894 
L 3597 1613 
L 953 1613 
Q 991 1019 1311 708 
Q 1631 397 2203 397 
Q 2534 397 2845 478 
Q 3156 559 3463 722 
L 3463 178 
Q 3153 47 2828 -22 
Q 2503 -91 2169 -91 
Q 1331 -91 842 396 
Q 353 884 353 1716 
Q 353 2575 817 3079 
Q 1281 3584 2069 3584 
Q 2775 3584 3186 3129 
Q 3597 2675 3597 1894 
z
M 3022 2063 
Q 3016 2534 2758 2815 
Q 2500 3097 2075 3097 
Q 1594 3097 1305 2825 
Q 1016 2553 972 2059 
L 3022 2063 
z
" transform="scale(0.015625)"/>
       <path id="DejaVuSans-6e" d="M 3513 2113 
L 3513 0 
L 2938 0 
L 2938 2094 
Q 2938 2591 2744 2837 
Q 2550 3084 2163 3084 
Q 1697 3084 1428 2787 
Q 1159 2491 1159 1978 
L 1159 0 
L 581 0 
L 581 3500 
L 1159 3500 
L 1159 2956 
Q 1366 3272 1645 3428 
Q 1925 3584 2291 3584 
Q 2894 3584 3203 3211 
Q 3513 2838 3513 2113 
z
" transform="scale(0.015625)"/>
       <path id="DejaVuSans-72" d="M 2631 2963 
Q 2534 3019 2420 3045 
Q 2306 3072 2169 3072 
Q 1681 3072 1420 2755 
Q 1159 2438 1159 1844 
L 1159 0 
L 581 0 
L 581 3500 
L 1159 3500 
L 1159 2956 
Q 1341 3275 1631 3429 
Q 1922 3584 2338 3584 
Q 2397 3584 2469 3576 
Q 2541 3569 2628 3553 
L 2631 2963 
z
" transform="scale(0.015625)"/>
       <path id="DejaVuSans-61" d="M 2194 1759 
Q 1497 1759 1228 1600 
Q 959 1441 959 1056 
Q 959 750 1161 570 
Q 1363 391 1709 391 
Q 2188 391 2477 730 
Q 2766 1069 2766 1631 
L 2766 1759 
L 2194 1759 
z
M 3341 1997 
L 3341 0 
L 2766 0 
L 2766 531 
Q 2569 213 2275 61 
Q 1981 -91 1556 -91 
Q 1019 -91 701 211 
Q 384 513 384 1019 
Q 384 1609 779 1909 
Q 1175 2209 1959 2209 
L 2766 2209 
L 2766 2266 
Q 2766 2663 2505 2880 
Q 2244 3097 1772 3097 
Q 1472 3097 1187 3025 
Q 903 2953 641 2809 
L 641 3341 
Q 956 3463 1253 3523 
Q 1550 3584 1831 3584 
Q 2591 3584 2966 3190 
Q 3341 2797 3341 1997 
z
" transform="scale(0.015625)"/>
       <path id="DejaVuSans-74" d="M 1172 4494 
L 1172 3500 
L 2356 3500 
L 2356 3053 
L 1172 3053 
L 1172 1153 
Q 1172 725 1289 603 
Q 1406 481 1766 481 
L 2356 481 
L 2356 0 
L 1766 0 
Q 1100 0 847 248 
Q 594 497 594 1153 
L 594 3053 
L 172 3053 
L 172 3500 
L 594 3500 
L 594 4494 
L 1172 4494 
z
" transform="scale(0.015625)"/>
       <path id="DejaVuSans-69" d="M 603 3500 
L 1178 3500 
L 1178 0 
L 603 0 
L 603 3500 
z
M 603 4863 
L 1178 4863 
L 1178 4134 
L 603 4134 
L 603 4863 
z
" transform="scale(0.015625)"/>
       <path id="DejaVuSans-6f" d="M 1959 3097 
Q 1497 3097 1228 2736 
Q 959 2375 959 1747 
Q 959 1119 1226 758 
Q 1494 397 1959 397 
Q 2419 397 2687 759 
Q 2956 1122 2956 1747 
Q 2956 2369 2687 2733 
Q 2419 3097 1959 3097 
z
M 1959 3584 
Q 2709 3584 3137 3096 
Q 3566 2609 3566 1747 
Q 3566 888 3137 398 
Q 2709 -91 1959 -91 
Q 1206 -91 779 398 
Q 353 888 353 1747 
Q 353 2609 779 3096 
Q 1206 3584 1959 3584 
z
" transform="scale(0.015625)"/>
       <path id="DejaVuSans-73" d="M 2834 3397 
L 2834 2853 
Q 2591 2978 2328 3040 
Q 2066 3103 1784 3103 
Q 1356 3103 1142 2972 
Q 928 2841 928 2578 
Q 928 2378 1081 2264 
Q 1234 2150 1697 2047 
L 1894 2003 
Q 2506 1872 2764 1633 
Q 3022 1394 3022 966 
Q 3022 478 2636 193 
Q 2250 -91 1575 -91 
Q 1294 -91 989 -36 
Q 684 19 347 128 
L 347 722 
Q 666 556 975 473 
Q 1284 391 1588 391 
Q 1994 391 2212 530 
Q 2431 669 2431 922 
Q 2431 1156 2273 1281 
Q 2116 1406 1581 1522 
L 1381 1569 
Q 847 1681 609 1914 
Q 372 2147 372 2553 
Q 372 3047 722 3315 
Q 1072 3584 1716 3584 
Q 2034 3584 2315 3537 
Q 2597 3491 2834 3397 
z
" transform="scale(0.015625)"/>
      </defs>
      <use xlink:href="#DejaVuSans-47"/>
      <use xlink:href="#DejaVuSans-65" x="77.490234"/>
      <use xlink:href="#DejaVuSans-6e" x="139.013672"/>
      <use xlink:href="#DejaVuSans-65" x="202.392578"/>
      <use xlink:href="#DejaVuSans-72" x="263.916016"/>
      <use xlink:href="#DejaVuSans-61" x="305.029297"/>
      <use xlink:href="#DejaVuSans-74" x="366.308594"/>
      <use xlink:href="#DejaVuSans-69" x="405.517578"/>
      <use xlink:href="#DejaVuSans-6f" x="433.300781"/>
      <use xlink:href="#DejaVuSans-6e" x="494.482422"/>
      <use xlink:href="#DejaVuSans-73" x="557.861328"/>
     </g>
    </g>
   </g>
   <g id="matplotlib.axis_2">
    <g id="ytick_1">
     <g id="line2d_19">
      <path d="M 57.6 303.335783 
L 414.72 303.335783 
" clip-path="url(#p0d4d9c7e0f)" style="fill: none; stroke: #b0b0b0; stroke-width: 0.8; stroke-linecap: square"/>
     </g>
     <g id="line2d_20">
      <defs>
       <path id="me6f26320b8" d="M 0 0 
L -3.5 0 
" style="stroke: #000000; stroke-width: 0.8"/>
      </defs>
      <g>
       <use xlink:href="#me6f26320b8" x="57.6" y="303.335783" style="stroke: #000000; stroke-width: 0.8"/>
      </g>
     </g>
     <g id="text_11">
      <!-- −2250 -->
      <g transform="translate(16.770313 307.135001) scale(0.1 -0.1)">
       <defs>
        <path id="DejaVuSans-2212" d="M 678 2272 
L 4684 2272 
L 4684 1741 
L 678 1741 
L 678 2272 
z
" transform="scale(0.015625)"/>
       </defs>
       <use xlink:href="#DejaVuSans-2212"/>
       <use xlink:href="#DejaVuSans-32" x="83.789062"/>
       <use xlink:href="#DejaVuSans-32" x="147.412109"/>
       <use xlink:href="#DejaVuSans-35" x="211.035156"/>
       <use xlink:href="#DejaVuSans-30" x="274.658203"/>
      </g>
     </g>
    </g>
    <g id="ytick_2">
     <g id="line2d_21">
      <path d="M 57.6 271.039639 
L 414.72 271.039639 
" clip-path="url(#p0d4d9c7e0f)" style="fill: none; stroke: #b0b0b0; stroke-width: 0.8; stroke-linecap: square"/>
     </g>
     <g id="line2d_22">
      <g>
       <use xlink:href="#me6f26320b8" x="57.6" y="271.039639" style="stroke: #000000; stroke-width: 0.8"/>
      </g>
     </g>
     <g id="text_12">
      <!-- −2000 -->
      <g transform="translate(16.770313 274.838858) scale(0.1 -0.1)">
       <use xlink:href="#DejaVuSans-2212"/>
       <use xlink:href="#DejaVuSans-32" x="83.789062"/>
       <use xlink:href="#DejaVuSans-30" x="147.412109"/>
       <use xlink:href="#DejaVuSans-30" x="211.035156"/>
       <use xlink:href="#DejaVuSans-30" x="274.658203"/>
      </g>
     </g>
    </g>
    <g id="ytick_3">
     <g id="line2d_23">
      <path d="M 57.6 238.743496 
L 414.72 238.743496 
" clip-path="url(#p0d4d9c7e0f)" style="fill: none; stroke: #b0b0b0; stroke-width: 0.8; stroke-linecap: square"/>
     </g>
     <g id="line2d_24">
      <g>
       <use xlink:href="#me6f26320b8" x="57.6" y="238.743496" style="stroke: #000000; stroke-width: 0.8"/>
      </g>
     </g>
     <g id="text_13">
      <!-- −1750 -->
      <g transform="translate(16.770313 242.542715) scale(0.1 -0.1)">
       <use xlink:href="#DejaVuSans-2212"/>
       <use xlink:href="#DejaVuSans-31" x="83.789062"/>
       <use xlink:href="#DejaVuSans-37" x="147.412109"/>
       <use xlink:href="#DejaVuSans-35" x="211.035156"/>
       <use xlink:href="#DejaVuSans-30" x="274.658203"/>
      </g>
     </g>
    </g>
    <g id="ytick_4">
     <g id="line2d_25">
      <path d="M 57.6 206.447353 
L 414.72 206.447353 
" clip-path="url(#p0d4d9c7e0f)" style="fill: none; stroke: #b0b0b0; stroke-width: 0.8; stroke-linecap: square"/>
     </g>
     <g id="line2d_26">
      <g>
       <use xlink:href="#me6f26320b8" x="57.6" y="206.447353" style="stroke: #000000; stroke-width: 0.8"/>
      </g>
     </g>
     <g id="text_14">
      <!-- −1500 -->
      <g transform="translate(16.770313 210.246572) scale(0.1 -0.1)">
       <use xlink:href="#DejaVuSans-2212"/>
       <use xlink:href="#DejaVuSans-31" x="83.789062"/>
       <use xlink:href="#DejaVuSans-35" x="147.412109"/>
       <use xlink:href="#DejaVuSans-30" x="211.035156"/>
       <use xlink:href="#DejaVuSans-30" x="274.658203"/>
      </g>
     </g>
    </g>
    <g id="ytick_5">
     <g id="line2d_27">
      <path d="M 57.6 174.15121 
L 414.72 174.15121 
" clip-path="url(#p0d4d9c7e0f)" style="fill: none; stroke: #b0b0b0; stroke-width: 0.8; stroke-linecap: square"/>
     </g>
     <g id="line2d_28">
      <g>
       <use xlink:href="#me6f26320b8" x="57.6" y="174.15121" style="stroke: #000000; stroke-width: 0.8"/>
      </g>
     </g>
     <g id="text_15">
      <!-- −1250 -->
      <g transform="translate(16.770313 177.950428) scale(0.1 -0.1)">
       <use xlink:href="#DejaVuSans-2212"/>
       <use xlink:href="#DejaVuSans-31" x="83.789062"/>
       <use xlink:href="#DejaVuSans-32" x="147.412109"/>
       <use xlink:href="#DejaVuSans-35" x="211.035156"/>
       <use xlink:href="#DejaVuSans-30" x="274.658203"/>
      </g>
     </g>
    </g>
    <g id="ytick_6">
     <g id="line2d_29">
      <path d="M 57.6 141.855066 
L 414.72 141.855066 
" clip-path="url(#p0d4d9c7e0f)" style="fill: none; stroke: #b0b0b0; stroke-width: 0.8; stroke-linecap: square"/>
     </g>
     <g id="line2d_30">
      <g>
       <use xlink:href="#me6f26320b8" x="57.6" y="141.855066" style="stroke: #000000; stroke-width: 0.8"/>
      </g>
     </g>
     <g id="text_16">
      <!-- −1000 -->
      <g transform="translate(16.770313 145.654285) scale(0.1 -0.1)">
       <use xlink:href="#DejaVuSans-2212"/>
       <use xlink:href="#DejaVuSans-31" x="83.789062"/>
       <use xlink:href="#DejaVuSans-30" x="147.412109"/>
       <use xlink:href="#DejaVuSans-30" x="211.035156"/>
       <use xlink:href="#DejaVuSans-30" x="274.658203"/>
      </g>
     </g>
    </g>
    <g id="ytick_7">
     <g id="line2d_31">
      <path d="M 57.6 109.558923 
L 414.72 109.558923 
" clip-path="url(#p0d4d9c7e0f)" style="fill: none; stroke: #b0b0b0; stroke-width: 0.8; stroke-linecap: square"/>
     </g>
     <g id="line2d_32">
      <g>
       <use xlink:href="#me6f26320b8" x="57.6" y="109.558923" style="stroke: #000000; stroke-width: 0.8"/>
      </g>
     </g>
     <g id="text_17">
      <!-- −750 -->
      <g transform="translate(23.132812 113.358142) scale(0.1 -0.1)">
       <use xlink:href="#DejaVuSans-2212"/>
       <use xlink:href="#DejaVuSans-37" x="83.789062"/>
       <use xlink:href="#DejaVuSans-35" x="147.412109"/>
       <use xlink:href="#DejaVuSans-30" x="211.035156"/>
      </g>
     </g>
    </g>
    <g id="ytick_8">
     <g id="line2d_33">
      <path d="M 57.6 77.26278 
L 414.72 77.26278 
" clip-path="url(#p0d4d9c7e0f)" style="fill: none; stroke: #b0b0b0; stroke-width: 0.8; stroke-linecap: square"/>
     </g>
     <g id="line2d_34">
      <g>
       <use xlink:href="#me6f26320b8" x="57.6" y="77.26278" style="stroke: #000000; stroke-width: 0.8"/>
      </g>
     </g>
     <g id="text_18">
      <!-- −500 -->
      <g transform="translate(23.132812 81.061999) scale(0.1 -0.1)">
       <use xlink:href="#DejaVuSans-2212"/>
       <use xlink:href="#DejaVuSans-35" x="83.789062"/>
       <use xlink:href="#DejaVuSans-30" x="147.412109"/>
       <use xlink:href="#DejaVuSans-30" x="211.035156"/>
      </g>
     </g>
    </g>
    <g id="ytick_9">
     <g id="line2d_35">
      <path d="M 57.6 44.966637 
L 414.72 44.966637 
" clip-path="url(#p0d4d9c7e0f)" style="fill: none; stroke: #b0b0b0; stroke-width: 0.8; stroke-linecap: square"/>
     </g>
     <g id="line2d_36">
      <g>
       <use xlink:href="#me6f26320b8" x="57.6" y="44.966637" style="stroke: #000000; stroke-width: 0.8"/>
      </g>
     </g>
     <g id="text_19">
      <!-- −250 -->
      <g transform="translate(23.132812 48.765855) scale(0.1 -0.1)">
       <use xlink:href="#DejaVuSans-2212"/>
       <use xlink:href="#DejaVuSans-32" x="83.789062"/>
       <use xlink:href="#DejaVuSans-35" x="147.412109"/>
       <use xlink:href="#DejaVuSans-30" x="211.035156"/>
      </g>
     </g>
    </g>
    <g id="text_20">
     <!-- Fitness -->
     <g transform="translate(10.690625 191.845187) rotate(-90) scale(0.1 -0.1)">
      <defs>
       <path id="DejaVuSans-46" d="M 628 4666 
L 3309 4666 
L 3309 4134 
L 1259 4134 
L 1259 2759 
L 3109 2759 
L 3109 2228 
L 1259 2228 
L 1259 0 
L 628 0 
L 628 4666 
z
" transform="scale(0.015625)"/>
      </defs>
      <use xlink:href="#DejaVuSans-46"/>
      <use xlink:href="#DejaVuSans-69" x="50.269531"/>
      <use xlink:href="#DejaVuSans-74" x="78.052734"/>
      <use xlink:href="#DejaVuSans-6e" x="117.261719"/>
      <use xlink:href="#DejaVuSans-65" x="180.640625"/>
      <use xlink:href="#DejaVuSans-73" x="242.164062"/>
      <use xlink:href="#DejaVuSans-73" x="294.263672"/>
     </g>
    </g>
   </g>
   <g id="line2d_37">
    <path d="M 73.832727 264.985019 
L 75.464157 258.400016 
L 77.095587 256.62181 
L 78.727017 253.522135 
L 80.358447 247.12015 
L 81.989877 253.177349 
L 83.621307 248.340351 
L 85.252736 249.460486 
L 86.884166 245.751754 
L 88.515596 250.439331 
L 90.147026 251.03406 
L 91.778456 252.110759 
L 93.409886 249.826869 
L 95.041316 252.423667 
L 96.672746 251.366386 
L 98.304175 251.870725 
L 99.935605 251.689116 
L 101.567035 250.368871 
L 103.198465 249.815758 
L 104.829895 250.482435 
L 106.461325 251.441085 
L 108.092755 251.077404 
L 109.724185 247.66283 
L 111.355614 246.796231 
L 112.987044 247.602083 
L 114.618474 248.69382 
L 116.249904 247.616891 
L 117.881334 247.863963 
L 119.512764 247.376824 
L 121.144194 250.356718 
L 122.775624 247.366049 
L 124.407053 249.31967 
L 126.038483 248.588874 
L 127.669913 246.190923 
L 129.301343 248.292116 
L 130.932773 246.044268 
L 132.564203 246.951062 
L 134.195633 248.078642 
L 135.827063 246.086221 
L 137.458492 247.546391 
L 139.089922 248.457913 
L 140.721352 245.726796 
L 142.352782 249.272706 
L 143.984212 248.494742 
L 147.247072 249.712153 
L 148.878502 248.639587 
L 150.509931 249.307396 
L 152.141361 251.209668 
L 153.772791 248.623782 
L 155.404221 246.249685 
L 157.035651 247.994231 
L 158.667081 249.077521 
L 160.298511 250.360457 
L 161.929941 251.041315 
L 163.56137 252.895492 
L 165.1928 251.626703 
L 166.82423 251.578003 
L 168.45566 251.03797 
L 170.08709 252.156789 
L 171.71852 249.934444 
L 173.34995 249.3839 
L 174.98138 248.42885 
L 176.61281 249.557601 
L 178.244239 249.531134 
L 179.875669 250.461892 
L 181.507099 251.711052 
L 183.138529 251.109394 
L 184.769959 249.096994 
L 186.401389 250.036539 
L 188.032819 250.537079 
L 189.664249 249.73272 
L 191.295678 250.174127 
L 194.558538 248.925904 
L 196.189968 251.340812 
L 197.821398 247.710968 
L 199.452828 250.172612 
L 202.715688 248.404711 
L 205.978547 248.422005 
L 207.609977 247.616783 
L 209.241407 246.352925 
L 210.872837 247.778278 
L 212.504267 247.872673 
L 214.135697 243.721086 
L 215.767127 249.260435 
L 217.398556 249.056436 
L 219.029986 247.829434 
L 220.661416 247.848009 
L 222.292846 248.12644 
L 223.924276 246.582089 
L 225.555706 249.343697 
L 227.187136 250.275663 
L 228.818566 250.155051 
L 230.449995 249.577211 
L 233.712855 248.689904 
L 235.344285 248.846648 
L 236.975715 249.152554 
L 238.607145 248.750723 
L 240.238575 250.272266 
L 243.501434 246.790016 
L 245.132864 247.1635 
L 246.764294 245.750291 
L 248.395724 244.009775 
L 250.027154 247.577228 
L 251.658584 245.14608 
L 253.290014 247.217613 
L 254.921444 248.057885 
L 256.552873 248.6016 
L 258.184303 247.492144 
L 259.815733 244.963417 
L 261.447163 243.960172 
L 263.078593 245.468715 
L 266.341453 245.025695 
L 267.972883 245.71727 
L 269.604312 246.818809 
L 271.235742 244.717398 
L 272.867172 244.034845 
L 274.498602 245.227438 
L 276.130032 241.667283 
L 277.761462 242.684216 
L 279.392892 244.339043 
L 281.024322 242.141622 
L 282.655751 239.111872 
L 284.287181 236.615173 
L 285.918611 240.309581 
L 287.550041 243.496686 
L 289.181471 244.779043 
L 290.812901 241.954971 
L 292.444331 245.961939 
L 294.075761 245.17326 
L 295.70719 243.051098 
L 297.33862 244.662829 
L 298.97005 242.063845 
L 300.60148 241.767198 
L 302.23291 242.618191 
L 303.86434 245.346427 
L 305.49577 246.429247 
L 307.1272 243.487484 
L 308.75863 243.857311 
L 310.390059 244.722839 
L 312.021489 243.334955 
L 315.284349 247.159119 
L 316.915779 248.590817 
L 318.547209 247.784684 
L 320.178639 248.199786 
L 321.810069 245.054197 
L 323.441498 247.376895 
L 325.072928 247.067242 
L 326.704358 248.92386 
L 328.335788 247.292146 
L 329.967218 249.588309 
L 333.230078 248.344668 
L 334.861508 248.907101 
L 336.492937 246.092773 
L 338.124367 245.357225 
L 339.755797 246.879264 
L 343.018657 248.138532 
L 344.650087 246.220996 
L 346.281517 249.261727 
L 347.912947 245.135712 
L 349.544376 247.538532 
L 351.175806 247.121565 
L 352.807236 250.547055 
L 354.438666 249.358152 
L 356.070096 248.474252 
L 357.701526 249.329232 
L 359.332956 248.187354 
L 360.964386 244.847059 
L 362.595815 246.885762 
L 364.227245 246.888834 
L 365.858675 244.123506 
L 367.490105 243.371161 
L 369.121535 243.726635 
L 370.752965 248.800897 
L 372.384395 245.378157 
L 374.015825 245.735342 
L 375.647254 247.829938 
L 377.278684 247.395221 
L 378.910114 244.091771 
L 380.541544 241.617408 
L 382.172974 243.622012 
L 383.804404 239.948163 
L 385.435834 244.13188 
L 387.067264 243.767785 
L 388.698693 246.017565 
L 390.330123 245.984183 
L 391.961553 246.79231 
L 393.592983 247.189321 
L 395.224413 243.448752 
L 396.855843 241.901193 
L 398.487273 242.325232 
L 398.487273 242.325232 
" clip-path="url(#p0d4d9c7e0f)" style="fill: none; stroke: #0000ff; stroke-width: 1.5; stroke-linecap: square"/>
   </g>
   <g id="line2d_38">
    <path d="M 73.832727 279.406827 
L 75.464157 284.929497 
L 77.095587 286.052092 
L 78.727017 282.931762 
L 80.358447 285.284826 
L 81.989877 283.650905 
L 83.621307 287.226446 
L 85.252736 288.3722 
L 86.884166 290.999459 
L 88.515596 284.641557 
L 90.147026 283.708559 
L 91.778456 282.28102 
L 93.409886 283.037532 
L 95.041316 282.931264 
L 96.672746 284.826256 
L 98.304175 285.578741 
L 99.935605 285.415067 
L 101.567035 287.201664 
L 103.198465 287.886709 
L 104.829895 285.785518 
L 106.461325 285.23713 
L 108.092755 286.003812 
L 109.724185 283.85433 
L 111.355614 286.703423 
L 112.987044 287.916862 
L 114.618474 287.092984 
L 116.249904 288.565751 
L 117.881334 289.60705 
L 119.512764 290.165156 
L 121.144194 288.542232 
L 122.775624 289.898594 
L 124.407053 286.994259 
L 126.038483 285.808715 
L 127.669913 288.928773 
L 129.301343 289.876762 
L 130.932773 286.682323 
L 132.564203 287.617225 
L 134.195633 285.032239 
L 135.827063 288.2594 
L 137.458492 289.123359 
L 139.089922 286.83212 
L 140.721352 288.136297 
L 142.352782 287.805926 
L 143.984212 289.455118 
L 145.615642 288.014448 
L 147.247072 288.561535 
L 148.878502 287.272691 
L 152.141361 286.925426 
L 153.772791 289.917143 
L 155.404221 291.71381 
L 157.035651 287.712344 
L 158.667081 286.461371 
L 160.298511 286.117643 
L 161.929941 285.482999 
L 163.56137 282.835982 
L 165.1928 285.108335 
L 166.82423 285.377569 
L 168.45566 283.68539 
L 170.08709 285.477853 
L 171.71852 283.499726 
L 173.34995 284.672128 
L 174.98138 288.317293 
L 176.61281 287.873195 
L 178.244239 287.950156 
L 179.875669 288.731615 
L 181.507099 286.637685 
L 183.138529 287.240651 
L 184.769959 285.872538 
L 186.401389 285.966808 
L 188.032819 286.583958 
L 189.664249 284.753105 
L 191.295678 285.492879 
L 192.927108 285.154095 
L 194.558538 288.876231 
L 196.189968 287.520873 
L 197.821398 289.693494 
L 199.452828 288.615462 
L 201.084258 288.724456 
L 202.715688 286.146385 
L 204.347117 287.84114 
L 205.978547 287.028579 
L 207.609977 290.300938 
L 209.241407 294.170764 
L 212.504267 291.814087 
L 214.135697 294.512844 
L 215.767127 290.667181 
L 217.398556 290.455359 
L 219.029986 289.933127 
L 220.661416 287.417535 
L 222.292846 287.788215 
L 223.924276 289.249698 
L 225.555706 289.180572 
L 227.187136 289.224665 
L 228.818566 285.564843 
L 230.449995 284.787107 
L 233.712855 288.432874 
L 235.344285 286.634946 
L 236.975715 285.430666 
L 238.607145 285.64258 
L 240.238575 284.868919 
L 241.870005 287.17574 
L 243.501434 287.609755 
L 245.132864 288.947977 
L 246.764294 287.927491 
L 248.395724 290.058155 
L 250.027154 289.786708 
L 251.658584 289.853002 
L 253.290014 287.200671 
L 254.921444 286.507107 
L 256.552873 287.440182 
L 258.184303 287.046176 
L 259.815733 290.714465 
L 261.447163 293.012874 
L 263.078593 292.431061 
L 264.710023 292.642628 
L 266.341453 290.28678 
L 269.604312 292.930389 
L 271.235742 291.774737 
L 272.867172 291.071614 
L 274.498602 290.95015 
L 276.130032 294.186914 
L 277.761462 293.556662 
L 279.392892 294.114524 
L 281.024322 293.071678 
L 284.287181 293.601614 
L 285.918611 295.392244 
L 287.550041 295.488 
L 289.181471 293.404103 
L 290.812901 292.874379 
L 292.444331 295.256034 
L 294.075761 291.784392 
L 295.70719 292.845777 
L 297.33862 293.281375 
L 298.97005 291.562125 
L 300.60148 293.908784 
L 302.23291 293.711843 
L 305.49577 292.948974 
L 307.1272 295.181361 
L 308.75863 291.495837 
L 310.390059 291.2496 
L 312.021489 290.75495 
L 315.284349 291.060677 
L 316.915779 287.860155 
L 318.547209 287.199903 
L 320.178639 287.795146 
L 321.810069 285.319805 
L 323.441498 289.339687 
L 325.072928 288.26687 
L 326.704358 288.570547 
L 328.335788 286.615765 
L 329.967218 286.862862 
L 331.598648 286.655672 
L 333.230078 288.964729 
L 334.861508 291.888344 
L 336.492937 288.259014 
L 338.124367 287.666712 
L 339.755797 290.477324 
L 341.387227 289.581341 
L 343.018657 287.94843 
L 344.650087 289.998341 
L 346.281517 286.409974 
L 347.912947 286.445147 
L 349.544376 286.859719 
L 351.175806 289.057066 
L 352.807236 286.065547 
L 354.438666 285.539076 
L 356.070096 287.271119 
L 357.701526 286.542042 
L 359.332956 288.318328 
L 360.964386 288.90865 
L 362.595815 291.893358 
L 364.227245 291.349738 
L 365.858675 290.94591 
L 367.490105 290.407482 
L 369.121535 290.373753 
L 370.752965 290.081891 
L 372.384395 291.217087 
L 374.015825 289.225091 
L 375.647254 289.244839 
L 377.278684 288.087892 
L 378.910114 289.039605 
L 380.541544 292.570604 
L 382.172974 293.820745 
L 383.804404 293.228201 
L 385.435834 293.683194 
L 387.067264 291.870289 
L 388.698693 294.430209 
L 390.330123 293.660372 
L 391.961553 292.014688 
L 393.592983 293.053321 
L 395.224413 292.244669 
L 396.855843 290.652253 
L 398.487273 290.413905 
L 398.487273 290.413905 
" clip-path="url(#p0d4d9c7e0f)" style="fill: none; stroke-dasharray: 9.6,2.4,1.5,2.4; stroke-dashoffset: 0; stroke: #008000; stroke-width: 1.5"/>
   </g>
   <g id="line2d_39">
    <path d="M 73.832727 250.563212 
L 75.464157 231.870535 
L 77.095587 227.191529 
L 78.727017 224.112508 
L 80.358447 208.955474 
L 81.989877 222.703792 
L 83.621307 209.454256 
L 85.252736 210.548771 
L 86.884166 200.504049 
L 88.515596 216.237104 
L 90.147026 218.359561 
L 91.778456 221.940498 
L 93.409886 216.616206 
L 95.041316 221.91607 
L 96.672746 217.906516 
L 98.304175 218.162708 
L 99.935605 217.963166 
L 101.567035 213.536079 
L 103.198465 211.744807 
L 104.829895 215.179353 
L 106.461325 217.64504 
L 108.092755 216.150996 
L 111.355614 206.889039 
L 112.987044 207.287304 
L 114.618474 210.294657 
L 116.249904 206.668031 
L 117.881334 206.120877 
L 119.512764 204.588492 
L 121.144194 212.171204 
L 122.775624 204.833504 
L 124.407053 211.645081 
L 126.038483 211.369033 
L 127.669913 203.453074 
L 129.301343 206.70747 
L 130.932773 205.406213 
L 132.564203 206.284899 
L 134.195633 211.125046 
L 135.827063 203.913042 
L 137.458492 205.969423 
L 139.089922 210.083706 
L 140.721352 203.317295 
L 142.352782 210.739487 
L 143.984212 207.534367 
L 145.615642 210.13495 
L 147.247072 210.862771 
L 148.878502 210.006484 
L 150.509931 211.488723 
L 152.141361 215.493911 
L 153.772791 207.33042 
L 155.404221 200.785561 
L 157.035651 208.276119 
L 158.667081 211.69367 
L 160.298511 214.603272 
L 161.929941 216.599632 
L 163.56137 222.955002 
L 165.1928 218.145072 
L 166.82423 217.778436 
L 168.45566 218.390551 
L 170.08709 218.835725 
L 173.34995 214.095672 
L 174.98138 208.540407 
L 176.61281 211.242006 
L 178.244239 211.112113 
L 179.875669 212.192168 
L 181.507099 216.784419 
L 183.138529 214.978137 
L 184.769959 212.321449 
L 186.401389 214.10627 
L 188.032819 214.4902 
L 191.295678 214.855375 
L 192.927108 214.015854 
L 194.558538 208.975578 
L 196.189968 215.160752 
L 197.821398 205.728441 
L 199.452828 211.729762 
L 201.084258 209.82568 
L 202.715688 210.663036 
L 204.347117 209.068203 
L 205.978547 209.81543 
L 207.609977 204.932628 
L 209.241407 198.535085 
L 210.872837 202.527696 
L 212.504267 203.931259 
L 214.135697 192.929327 
L 215.767127 207.85369 
L 217.398556 207.657513 
L 219.029986 205.725741 
L 220.661416 208.278483 
L 222.292846 208.464665 
L 223.924276 203.91448 
L 225.555706 209.506823 
L 227.187136 211.32666 
L 228.818566 214.74526 
L 230.449995 214.367315 
L 233.712855 208.946935 
L 235.344285 211.05835 
L 236.975715 212.874442 
L 238.607145 211.858867 
L 240.238575 215.675613 
L 241.870005 209.834701 
L 243.501434 205.970277 
L 245.132864 205.379023 
L 246.764294 203.573091 
L 248.395724 197.961394 
L 250.027154 205.367748 
L 251.658584 200.439157 
L 253.290014 207.234555 
L 254.921444 209.608662 
L 256.552873 209.763018 
L 258.184303 207.938111 
L 259.815733 199.212368 
L 261.447163 194.907469 
L 263.078593 198.506368 
L 264.710023 197.776337 
L 266.341453 199.764611 
L 267.972883 199.891914 
L 269.604312 200.707229 
L 271.235742 197.660058 
L 272.867172 196.998077 
L 274.498602 199.504726 
L 276.130032 189.147653 
L 279.392892 194.563562 
L 281.024322 191.211567 
L 282.655751 184.927553 
L 284.287181 179.628732 
L 285.918611 185.226918 
L 287.550041 191.505373 
L 289.181471 196.153983 
L 290.812901 191.035563 
L 292.444331 196.667845 
L 294.075761 198.562129 
L 295.70719 193.256419 
L 297.33862 196.044283 
L 298.97005 192.565565 
L 300.60148 189.625612 
L 302.23291 191.524539 
L 303.86434 197.388333 
L 305.49577 199.90952 
L 307.1272 191.793606 
L 308.75863 196.218786 
L 310.390059 198.196078 
L 312.021489 195.91496 
L 315.284349 203.25756 
L 316.915779 209.321478 
L 318.547209 208.369464 
L 320.178639 208.604426 
L 321.810069 204.788589 
L 323.441498 205.414104 
L 325.072928 205.867614 
L 326.704358 209.277173 
L 328.335788 207.968527 
L 329.967218 212.313757 
L 331.598648 211.394137 
L 333.230078 207.724607 
L 334.861508 205.925858 
L 336.492937 203.926532 
L 338.124367 203.047737 
L 339.755797 203.281204 
L 341.387227 205.36219 
L 343.018657 208.328633 
L 344.650087 202.443651 
L 346.281517 212.11348 
L 347.912947 203.826278 
L 349.544376 208.217345 
L 351.175806 205.186064 
L 352.807236 215.028562 
L 354.438666 213.177227 
L 356.070096 209.677385 
L 357.701526 212.116422 
L 359.332956 208.05638 
L 360.964386 200.785468 
L 362.595815 201.878165 
L 364.227245 202.427931 
L 365.858675 197.301101 
L 367.490105 196.33484 
L 369.121535 197.079517 
L 370.752965 207.519903 
L 372.384395 199.539227 
L 374.015825 202.245594 
L 375.647254 206.415037 
L 377.278684 206.70255 
L 378.910114 199.143936 
L 380.541544 190.664212 
L 382.172974 193.423278 
L 383.804404 186.668125 
L 385.435834 194.580566 
L 387.067264 195.665281 
L 388.698693 197.60492 
L 390.330123 198.307995 
L 391.961553 201.569932 
L 393.592983 201.32532 
L 395.224413 194.652836 
L 396.855843 193.150133 
L 398.487273 194.236558 
L 398.487273 194.236558 
" clip-path="url(#p0d4d9c7e0f)" style="fill: none; stroke-dasharray: 9.6,2.4,1.5,2.4; stroke-dashoffset: 0; stroke: #008000; stroke-width: 1.5"/>
   </g>
   <g id="line2d_40">
    <path d="M 73.832727 169.214013 
L 75.464157 106.17065 
L 78.727017 106.17065 
L 80.358447 83.943184 
L 81.989877 83.943184 
L 83.621307 61.090436 
L 85.252736 61.090436 
L 86.884166 60.687381 
L 134.195633 60.687381 
L 135.827063 60.373456 
L 173.34995 60.373456 
L 174.98138 53.568 
L 398.487273 53.568 
L 398.487273 53.568 
" clip-path="url(#p0d4d9c7e0f)" style="fill: none; stroke: #ff0000; stroke-width: 1.5; stroke-linecap: square"/>
   </g>
   <g id="patch_3">
    <path d="M 57.6 307.584 
L 57.6 41.472 
" style="fill: none; stroke: #000000; stroke-width: 0.8; stroke-linejoin: miter; stroke-linecap: square"/>
   </g>
   <g id="patch_4">
    <path d="M 414.72 307.584 
L 414.72 41.472 
" style="fill: none; stroke: #000000; stroke-width: 0.8; stroke-linejoin: miter; stroke-linecap: square"/>
   </g>
   <g id="patch_5">
    <path d="M 57.6 307.584 
L 414.72 307.584 
" style="fill: none; stroke: #000000; stroke-width: 0.8; stroke-linejoin: miter; stroke-linecap: square"/>
   </g>
   <g id="patch_6">
    <path d="M 57.6 41.472 
L 414.72 41.472 
" style="fill: none; stroke: #000000; stroke-width: 0.8; stroke-linejoin: miter; stroke-linecap: square"/>
   </g>
   <g id="text_21">
    <!-- Population's average and best fitness -->
    <g transform="translate(123.529687 35.472) scale(0.12 -0.12)">
     <defs>
      <path id="DejaVuSans-50" d="M 1259 4147 
L 1259 2394 
L 2053 2394 
Q 2494 2394 2734 2622 
Q 2975 2850 2975 3272 
Q 2975 3691 2734 3919 
Q 2494 4147 2053 4147 
L 1259 4147 
z
M 628 4666 
L 2053 4666 
Q 2838 4666 3239 4311 
Q 3641 3956 3641 3272 
Q 3641 2581 3239 2228 
Q 2838 1875 2053 1875 
L 1259 1875 
L 1259 0 
L 628 0 
L 628 4666 
z
" transform="scale(0.015625)"/>
      <path id="DejaVuSans-70" d="M 1159 525 
L 1159 -1331 
L 581 -1331 
L 581 3500 
L 1159 3500 
L 1159 2969 
Q 1341 3281 1617 3432 
Q 1894 3584 2278 3584 
Q 2916 3584 3314 3078 
Q 3713 2572 3713 1747 
Q 3713 922 3314 415 
Q 2916 -91 2278 -91 
Q 1894 -91 1617 61 
Q 1341 213 1159 525 
z
M 3116 1747 
Q 3116 2381 2855 2742 
Q 2594 3103 2138 3103 
Q 1681 3103 1420 2742 
Q 1159 2381 1159 1747 
Q 1159 1113 1420 752 
Q 1681 391 2138 391 
Q 2594 391 2855 752 
Q 3116 1113 3116 1747 
z
" transform="scale(0.015625)"/>
      <path id="DejaVuSans-75" d="M 544 1381 
L 544 3500 
L 1119 3500 
L 1119 1403 
Q 1119 906 1312 657 
Q 1506 409 1894 409 
Q 2359 409 2629 706 
Q 2900 1003 2900 1516 
L 2900 3500 
L 3475 3500 
L 3475 0 
L 2900 0 
L 2900 538 
Q 2691 219 2414 64 
Q 2138 -91 1772 -91 
Q 1169 -91 856 284 
Q 544 659 544 1381 
z
M 1991 3584 
L 1991 3584 
z
" transform="scale(0.015625)"/>
      <path id="DejaVuSans-6c" d="M 603 4863 
L 1178 4863 
L 1178 0 
L 603 0 
L 603 4863 
z
" transform="scale(0.015625)"/>
      <path id="DejaVuSans-27" d="M 1147 4666 
L 1147 2931 
L 616 2931 
L 616 4666 
L 1147 4666 
z
" transform="scale(0.015625)"/>
      <path id="DejaVuSans-20" transform="scale(0.015625)"/>
      <path id="DejaVuSans-76" d="M 191 3500 
L 800 3500 
L 1894 563 
L 2988 3500 
L 3597 3500 
L 2284 0 
L 1503 0 
L 191 3500 
z
" transform="scale(0.015625)"/>
      <path id="DejaVuSans-67" d="M 2906 1791 
Q 2906 2416 2648 2759 
Q 2391 3103 1925 3103 
Q 1463 3103 1205 2759 
Q 947 2416 947 1791 
Q 947 1169 1205 825 
Q 1463 481 1925 481 
Q 2391 481 2648 825 
Q 2906 1169 2906 1791 
z
M 3481 434 
Q 3481 -459 3084 -895 
Q 2688 -1331 1869 -1331 
Q 1566 -1331 1297 -1286 
Q 1028 -1241 775 -1147 
L 775 -588 
Q 1028 -725 1275 -790 
Q 1522 -856 1778 -856 
Q 2344 -856 2625 -561 
Q 2906 -266 2906 331 
L 2906 616 
Q 2728 306 2450 153 
Q 2172 0 1784 0 
Q 1141 0 747 490 
Q 353 981 353 1791 
Q 353 2603 747 3093 
Q 1141 3584 1784 3584 
Q 2172 3584 2450 3431 
Q 2728 3278 2906 2969 
L 2906 3500 
L 3481 3500 
L 3481 434 
z
" transform="scale(0.015625)"/>
      <path id="DejaVuSans-64" d="M 2906 2969 
L 2906 4863 
L 3481 4863 
L 3481 0 
L 2906 0 
L 2906 525 
Q 2725 213 2448 61 
Q 2172 -91 1784 -91 
Q 1150 -91 751 415 
Q 353 922 353 1747 
Q 353 2572 751 3078 
Q 1150 3584 1784 3584 
Q 2172 3584 2448 3432 
Q 2725 3281 2906 2969 
z
M 947 1747 
Q 947 1113 1208 752 
Q 1469 391 1925 391 
Q 2381 391 2643 752 
Q 2906 1113 2906 1747 
Q 2906 2381 2643 2742 
Q 2381 3103 1925 3103 
Q 1469 3103 1208 2742 
Q 947 2381 947 1747 
z
" transform="scale(0.015625)"/>
      <path id="DejaVuSans-62" d="M 3116 1747 
Q 3116 2381 2855 2742 
Q 2594 3103 2138 3103 
Q 1681 3103 1420 2742 
Q 1159 2381 1159 1747 
Q 1159 1113 1420 752 
Q 1681 391 2138 391 
Q 2594 391 2855 752 
Q 3116 1113 3116 1747 
z
M 1159 2969 
Q 1341 3281 1617 3432 
Q 1894 3584 2278 3584 
Q 2916 3584 3314 3078 
Q 3713 2572 3713 1747 
Q 3713 922 3314 415 
Q 2916 -91 2278 -91 
Q 1894 -91 1617 61 
Q 1341 213 1159 525 
L 1159 0 
L 581 0 
L 581 4863 
L 1159 4863 
L 1159 2969 
z
" transform="scale(0.015625)"/>
      <path id="DejaVuSans-66" d="M 2375 4863 
L 2375 4384 
L 1825 4384 
Q 1516 4384 1395 4259 
Q 1275 4134 1275 3809 
L 1275 3500 
L 2222 3500 
L 2222 3053 
L 1275 3053 
L 1275 0 
L 697 0 
L 697 3053 
L 147 3053 
L 147 3500 
L 697 3500 
L 697 3744 
Q 697 4328 969 4595 
Q 1241 4863 1831 4863 
L 2375 4863 
z
" transform="scale(0.015625)"/>
     </defs>
     <use xlink:href="#DejaVuSans-50"/>
     <use xlink:href="#DejaVuSans-6f" x="56.677734"/>
     <use xlink:href="#DejaVuSans-70" x="117.859375"/>
     <use xlink:href="#DejaVuSans-75" x="181.335938"/>
     <use xlink:href="#DejaVuSans-6c" x="244.714844"/>
     <use xlink:href="#DejaVuSans-61" x="272.498047"/>
     <use xlink:href="#DejaVuSans-74" x="333.777344"/>
     <use xlink:href="#DejaVuSans-69" x="372.986328"/>
     <use xlink:href="#DejaVuSans-6f" x="400.769531"/>
     <use xlink:href="#DejaVuSans-6e" x="461.951172"/>
     <use xlink:href="#DejaVuSans-27" x="525.330078"/>
     <use xlink:href="#DejaVuSans-73" x="552.820312"/>
     <use xlink:href="#DejaVuSans-20" x="604.919922"/>
     <use xlink:href="#DejaVuSans-61" x="636.707031"/>
     <use xlink:href="#DejaVuSans-76" x="697.986328"/>
     <use xlink:href="#DejaVuSans-65" x="757.166016"/>
     <use xlink:href="#DejaVuSans-72" x="818.689453"/>
     <use xlink:href="#DejaVuSans-61" x="859.802734"/>
     <use xlink:href="#DejaVuSans-67" x="921.082031"/>
     <use xlink:href="#DejaVuSans-65" x="984.558594"/>
     <use xlink:href="#DejaVuSans-20" x="1046.082031"/>
     <use xlink:href="#DejaVuSans-61" x="1077.869141"/>
     <use xlink:href="#DejaVuSans-6e" x="1139.148438"/>
     <use xlink:href="#DejaVuSans-64" x="1202.527344"/>
     <use xlink:href="#DejaVuSans-20" x="1266.003906"/>
     <use xlink:href="#DejaVuSans-62" x="1297.791016"/>
     <use xlink:href="#DejaVuSans-65" x="1361.267578"/>
     <use xlink:href="#DejaVuSans-73" x="1422.791016"/>
     <use xlink:href="#DejaVuSans-74" x="1474.890625"/>
     <use xlink:href="#DejaVuSans-20" x="1514.099609"/>
     <use xlink:href="#DejaVuSans-66" x="1545.886719"/>
     <use xlink:href="#DejaVuSans-69" x="1581.091797"/>
     <use xlink:href="#DejaVuSans-74" x="1608.875"/>
     <use xlink:href="#DejaVuSans-6e" x="1648.083984"/>
     <use xlink:href="#DejaVuSans-65" x="1711.462891"/>
     <use xlink:href="#DejaVuSans-73" x="1772.986328"/>
     <use xlink:href="#DejaVuSans-73" x="1825.085938"/>
    </g>
   </g>
   <g id="legend_1">
    <g id="patch_7">
     <path d="M 64.6 205.38425 
L 137.540625 205.38425 
Q 139.540625 205.38425 139.540625 203.38425 
L 139.540625 145.67175 
Q 139.540625 143.67175 137.540625 143.67175 
L 64.6 143.67175 
Q 62.6 143.67175 62.6 145.67175 
L 62.6 203.38425 
Q 62.6 205.38425 64.6 205.38425 
z
" style="fill: #ffffff; opacity: 0.8; stroke: #cccccc; stroke-linejoin: miter"/>
    </g>
    <g id="line2d_41">
     <path d="M 66.6 151.770188 
L 76.6 151.770188 
L 86.6 151.770188 
" style="fill: none; stroke: #0000ff; stroke-width: 1.5; stroke-linecap: square"/>
    </g>
    <g id="text_22">
     <!-- average -->
     <g transform="translate(94.6 155.270188) scale(0.1 -0.1)">
      <use xlink:href="#DejaVuSans-61"/>
      <use xlink:href="#DejaVuSans-76" x="61.279297"/>
      <use xlink:href="#DejaVuSans-65" x="120.458984"/>
      <use xlink:href="#DejaVuSans-72" x="181.982422"/>
      <use xlink:href="#DejaVuSans-61" x="223.095703"/>
      <use xlink:href="#DejaVuSans-67" x="284.375"/>
      <use xlink:href="#DejaVuSans-65" x="347.851562"/>
     </g>
    </g>
    <g id="line2d_42">
     <path d="M 66.6 166.448313 
L 76.6 166.448313 
L 86.6 166.448313 
" style="fill: none; stroke-dasharray: 9.6,2.4,1.5,2.4; stroke-dashoffset: 0; stroke: #008000; stroke-width: 1.5"/>
    </g>
    <g id="text_23">
     <!-- -1 sd -->
     <g transform="translate(94.6 169.948313) scale(0.1 -0.1)">
      <defs>
       <path id="DejaVuSans-2d" d="M 313 2009 
L 1997 2009 
L 1997 1497 
L 313 1497 
L 313 2009 
z
" transform="scale(0.015625)"/>
      </defs>
      <use xlink:href="#DejaVuSans-2d"/>
      <use xlink:href="#DejaVuSans-31" x="36.083984"/>
      <use xlink:href="#DejaVuSans-20" x="99.707031"/>
      <use xlink:href="#DejaVuSans-73" x="131.494141"/>
      <use xlink:href="#DejaVuSans-64" x="183.59375"/>
     </g>
    </g>
    <g id="line2d_43">
     <path d="M 66.6 181.126438 
L 76.6 181.126438 
L 86.6 181.126438 
" style="fill: none; stroke-dasharray: 9.6,2.4,1.5,2.4; stroke-dashoffset: 0; stroke: #008000; stroke-width: 1.5"/>
    </g>
    <g id="text_24">
     <!-- +1 sd -->
     <g transform="translate(94.6 184.626438) scale(0.1 -0.1)">
      <defs>
       <path id="DejaVuSans-2b" d="M 2944 4013 
L 2944 2272 
L 4684 2272 
L 4684 1741 
L 2944 1741 
L 2944 0 
L 2419 0 
L 2419 1741 
L 678 1741 
L 678 2272 
L 2419 2272 
L 2419 4013 
L 2944 4013 
z
" transform="scale(0.015625)"/>
      </defs>
      <use xlink:href="#DejaVuSans-2b"/>
      <use xlink:href="#DejaVuSans-31" x="83.789062"/>
      <use xlink:href="#DejaVuSans-20" x="147.412109"/>
      <use xlink:href="#DejaVuSans-73" x="179.199219"/>
      <use xlink:href="#DejaVuSans-64" x="231.298828"/>
     </g>
    </g>
    <g id="line2d_44">
     <path d="M 66.6 195.804563 
L 76.6 195.804563 
L 86.6 195.804563 
" style="fill: none; stroke: #ff0000; stroke-width: 1.5; stroke-linecap: square"/>
    </g>
    <g id="text_25">
     <!-- best -->
     <g transform="translate(94.6 199.304563) scale(0.1 -0.1)">
      <use xlink:href="#DejaVuSans-62"/>
      <use xlink:href="#DejaVuSans-65" x="63.476562"/>
      <use xlink:href="#DejaVuSans-73" x="125"/>
      <use xlink:href="#DejaVuSans-74" x="177.099609"/>
     </g>
    </g>
   </g>
  </g>
 </g>
 <defs>
  <clipPath id="p0d4d9c7e0f">
   <rect x="57.6" y="41.472" width="357.12" height="266.112"/>
  </clipPath>
 </defs>
</svg>
