<?xml version="1.0" encoding="utf-8" standalone="no"?>
<!DOCTYPE svg PUBLIC "-//W3C//DTD SVG 1.1//EN"
  "http://www.w3.org/Graphics/SVG/1.1/DTD/svg11.dtd">
<svg xmlns:xlink="http://www.w3.org/1999/xlink" width="460.8pt" height="345.6pt" viewBox="0 0 460.8 345.6" xmlns="http://www.w3.org/2000/svg" version="1.1">
 <metadata>
  <rdf:RDF xmlns:dc="http://purl.org/dc/elements/1.1/" xmlns:cc="http://creativecommons.org/ns#" xmlns:rdf="http://www.w3.org/1999/02/22-rdf-syntax-ns#">
   <cc:Work>
    <dc:type rdf:resource="http://purl.org/dc/dcmitype/StillImage"/>
    <dc:date>2024-08-05T09:07:44.471020</dc:date>
    <dc:format>image/svg+xml</dc:format>
    <dc:creator>
     <cc:Agent>
      <dc:title>Matplotlib v3.8.4, https://matplotlib.org/</dc:title>
     </cc:Agent>
    </dc:creator>
   </cc:Work>
  </rdf:RDF>
 </metadata>
 <defs>
  <style type="text/css">*{stroke-linejoin: round; stroke-linecap: butt}</style>
 </defs>
 <g id="figure_1">
  <g id="patch_1">
   <path d="M 0 345.6 
L 460.8 345.6 
L 460.8 0 
L 0 0 
z
" style="fill: #ffffff"/>
  </g>
  <g id="axes_1">
   <g id="patch_2">
    <path d="M 57.6 307.584 
L 414.72 307.584 
L 414.72 41.472 
L 57.6 41.472 
z
" style="fill: #ffffff"/>
   </g>
   <g id="matplotlib.axis_1">
    <g id="xtick_1">
     <g id="line2d_1">
      <path d="M 73.832727 307.584 
L 73.832727 41.472 
" clip-path="url(#p38533ff86a)" style="fill: none; stroke: #b0b0b0; stroke-width: 0.8; stroke-linecap: square"/>
     </g>
     <g id="line2d_2">
      <defs>
       <path id="m0946868572" d="M 0 0 
L 0 3.5 
" style="stroke: #000000; stroke-width: 0.8"/>
      </defs>
      <g>
       <use xlink:href="#m0946868572" x="73.832727" y="307.584" style="stroke: #000000; stroke-width: 0.8"/>
      </g>
     </g>
     <g id="text_1">
      <!-- 0 -->
      <g transform="translate(70.651477 322.182437) scale(0.1 -0.1)">
       <defs>
        <path id="DejaVuSans-30" d="M 2034 4250 
Q 1547 4250 1301 3770 
Q 1056 3291 1056 2328 
Q 1056 1369 1301 889 
Q 1547 409 2034 409 
Q 2525 409 2770 889 
Q 3016 1369 3016 2328 
Q 3016 3291 2770 3770 
Q 2525 4250 2034 4250 
z
M 2034 4750 
Q 2819 4750 3233 4129 
Q 3647 3509 3647 2328 
Q 3647 1150 3233 529 
Q 2819 -91 2034 -91 
Q 1250 -91 836 529 
Q 422 1150 422 2328 
Q 422 3509 836 4129 
Q 1250 4750 2034 4750 
z
" transform="scale(0.015625)"/>
       </defs>
       <use xlink:href="#DejaVuSans-30"/>
      </g>
     </g>
    </g>
    <g id="xtick_2">
     <g id="line2d_3">
      <path d="M 114.618474 307.584 
L 114.618474 41.472 
" clip-path="url(#p38533ff86a)" style="fill: none; stroke: #b0b0b0; stroke-width: 0.8; stroke-linecap: square"/>
     </g>
     <g id="line2d_4">
      <g>
       <use xlink:href="#m0946868572" x="114.618474" y="307.584" style="stroke: #000000; stroke-width: 0.8"/>
      </g>
     </g>
     <g id="text_2">
      <!-- 25 -->
      <g transform="translate(108.255974 322.182437) scale(0.1 -0.1)">
       <defs>
        <path id="DejaVuSans-32" d="M 1228 531 
L 3431 531 
L 3431 0 
L 469 0 
L 469 531 
Q 828 903 1448 1529 
Q 2069 2156 2228 2338 
Q 2531 2678 2651 2914 
Q 2772 3150 2772 3378 
Q 2772 3750 2511 3984 
Q 2250 4219 1831 4219 
Q 1534 4219 1204 4116 
Q 875 4013 500 3803 
L 500 4441 
Q 881 4594 1212 4672 
Q 1544 4750 1819 4750 
Q 2544 4750 2975 4387 
Q 3406 4025 3406 3419 
Q 3406 3131 3298 2873 
Q 3191 2616 2906 2266 
Q 2828 2175 2409 1742 
Q 1991 1309 1228 531 
z
" transform="scale(0.015625)"/>
        <path id="DejaVuSans-35" d="M 691 4666 
L 3169 4666 
L 3169 4134 
L 1269 4134 
L 1269 2991 
Q 1406 3038 1543 3061 
Q 1681 3084 1819 3084 
Q 2600 3084 3056 2656 
Q 3513 2228 3513 1497 
Q 3513 744 3044 326 
Q 2575 -91 1722 -91 
Q 1428 -91 1123 -41 
Q 819 9 494 109 
L 494 744 
Q 775 591 1075 516 
Q 1375 441 1709 441 
Q 2250 441 2565 725 
Q 2881 1009 2881 1497 
Q 2881 1984 2565 2268 
Q 2250 2553 1709 2553 
Q 1456 2553 1204 2497 
Q 953 2441 691 2322 
L 691 4666 
z
" transform="scale(0.015625)"/>
       </defs>
       <use xlink:href="#DejaVuSans-32"/>
       <use xlink:href="#DejaVuSans-35" x="63.623047"/>
      </g>
     </g>
    </g>
    <g id="xtick_3">
     <g id="line2d_5">
      <path d="M 155.404221 307.584 
L 155.404221 41.472 
" clip-path="url(#p38533ff86a)" style="fill: none; stroke: #b0b0b0; stroke-width: 0.8; stroke-linecap: square"/>
     </g>
     <g id="line2d_6">
      <g>
       <use xlink:href="#m0946868572" x="155.404221" y="307.584" style="stroke: #000000; stroke-width: 0.8"/>
      </g>
     </g>
     <g id="text_3">
      <!-- 50 -->
      <g transform="translate(149.041721 322.182437) scale(0.1 -0.1)">
       <use xlink:href="#DejaVuSans-35"/>
       <use xlink:href="#DejaVuSans-30" x="63.623047"/>
      </g>
     </g>
    </g>
    <g id="xtick_4">
     <g id="line2d_7">
      <path d="M 196.189968 307.584 
L 196.189968 41.472 
" clip-path="url(#p38533ff86a)" style="fill: none; stroke: #b0b0b0; stroke-width: 0.8; stroke-linecap: square"/>
     </g>
     <g id="line2d_8">
      <g>
       <use xlink:href="#m0946868572" x="196.189968" y="307.584" style="stroke: #000000; stroke-width: 0.8"/>
      </g>
     </g>
     <g id="text_4">
      <!-- 75 -->
      <g transform="translate(189.827468 322.182437) scale(0.1 -0.1)">
       <defs>
        <path id="DejaVuSans-37" d="M 525 4666 
L 3525 4666 
L 3525 4397 
L 1831 0 
L 1172 0 
L 2766 4134 
L 525 4134 
L 525 4666 
z
" transform="scale(0.015625)"/>
       </defs>
       <use xlink:href="#DejaVuSans-37"/>
       <use xlink:href="#DejaVuSans-35" x="63.623047"/>
      </g>
     </g>
    </g>
    <g id="xtick_5">
     <g id="line2d_9">
      <path d="M 236.975715 307.584 
L 236.975715 41.472 
" clip-path="url(#p38533ff86a)" style="fill: none; stroke: #b0b0b0; stroke-width: 0.8; stroke-linecap: square"/>
     </g>
     <g id="line2d_10">
      <g>
       <use xlink:href="#m0946868572" x="236.975715" y="307.584" style="stroke: #000000; stroke-width: 0.8"/>
      </g>
     </g>
     <g id="text_5">
      <!-- 100 -->
      <g transform="translate(227.431965 322.182437) scale(0.1 -0.1)">
       <defs>
        <path id="DejaVuSans-31" d="M 794 531 
L 1825 531 
L 1825 4091 
L 703 3866 
L 703 4441 
L 1819 4666 
L 2450 4666 
L 2450 531 
L 3481 531 
L 3481 0 
L 794 0 
L 794 531 
z
" transform="scale(0.015625)"/>
       </defs>
       <use xlink:href="#DejaVuSans-31"/>
       <use xlink:href="#DejaVuSans-30" x="63.623047"/>
       <use xlink:href="#DejaVuSans-30" x="127.246094"/>
      </g>
     </g>
    </g>
    <g id="xtick_6">
     <g id="line2d_11">
      <path d="M 277.761462 307.584 
L 277.761462 41.472 
" clip-path="url(#p38533ff86a)" style="fill: none; stroke: #b0b0b0; stroke-width: 0.8; stroke-linecap: square"/>
     </g>
     <g id="line2d_12">
      <g>
       <use xlink:href="#m0946868572" x="277.761462" y="307.584" style="stroke: #000000; stroke-width: 0.8"/>
      </g>
     </g>
     <g id="text_6">
      <!-- 125 -->
      <g transform="translate(268.217712 322.182437) scale(0.1 -0.1)">
       <use xlink:href="#DejaVuSans-31"/>
       <use xlink:href="#DejaVuSans-32" x="63.623047"/>
       <use xlink:href="#DejaVuSans-35" x="127.246094"/>
      </g>
     </g>
    </g>
    <g id="xtick_7">
     <g id="line2d_13">
      <path d="M 318.547209 307.584 
L 318.547209 41.472 
" clip-path="url(#p38533ff86a)" style="fill: none; stroke: #b0b0b0; stroke-width: 0.8; stroke-linecap: square"/>
     </g>
     <g id="line2d_14">
      <g>
       <use xlink:href="#m0946868572" x="318.547209" y="307.584" style="stroke: #000000; stroke-width: 0.8"/>
      </g>
     </g>
     <g id="text_7">
      <!-- 150 -->
      <g transform="translate(309.003459 322.182437) scale(0.1 -0.1)">
       <use xlink:href="#DejaVuSans-31"/>
       <use xlink:href="#DejaVuSans-35" x="63.623047"/>
       <use xlink:href="#DejaVuSans-30" x="127.246094"/>
      </g>
     </g>
    </g>
    <g id="xtick_8">
     <g id="line2d_15">
      <path d="M 359.332956 307.584 
L 359.332956 41.472 
" clip-path="url(#p38533ff86a)" style="fill: none; stroke: #b0b0b0; stroke-width: 0.8; stroke-linecap: square"/>
     </g>
     <g id="line2d_16">
      <g>
       <use xlink:href="#m0946868572" x="359.332956" y="307.584" style="stroke: #000000; stroke-width: 0.8"/>
      </g>
     </g>
     <g id="text_8">
      <!-- 175 -->
      <g transform="translate(349.789206 322.182437) scale(0.1 -0.1)">
       <use xlink:href="#DejaVuSans-31"/>
       <use xlink:href="#DejaVuSans-37" x="63.623047"/>
       <use xlink:href="#DejaVuSans-35" x="127.246094"/>
      </g>
     </g>
    </g>
    <g id="xtick_9">
     <g id="line2d_17">
      <path d="M 400.118703 307.584 
L 400.118703 41.472 
" clip-path="url(#p38533ff86a)" style="fill: none; stroke: #b0b0b0; stroke-width: 0.8; stroke-linecap: square"/>
     </g>
     <g id="line2d_18">
      <g>
       <use xlink:href="#m0946868572" x="400.118703" y="307.584" style="stroke: #000000; stroke-width: 0.8"/>
      </g>
     </g>
     <g id="text_9">
      <!-- 200 -->
      <g transform="translate(390.574953 322.182437) scale(0.1 -0.1)">
       <use xlink:href="#DejaVuSans-32"/>
       <use xlink:href="#DejaVuSans-30" x="63.623047"/>
       <use xlink:href="#DejaVuSans-30" x="127.246094"/>
      </g>
     </g>
    </g>
    <g id="text_10">
     <!-- Generations -->
     <g transform="translate(205.662344 335.860562) scale(0.1 -0.1)">
      <defs>
       <path id="DejaVuSans-47" d="M 3809 666 
L 3809 1919 
L 2778 1919 
L 2778 2438 
L 4434 2438 
L 4434 434 
Q 4069 175 3628 42 
Q 3188 -91 2688 -91 
Q 1594 -91 976 548 
Q 359 1188 359 2328 
Q 359 3472 976 4111 
Q 1594 4750 2688 4750 
Q 3144 4750 3555 4637 
Q 3966 4525 4313 4306 
L 4313 3634 
Q 3963 3931 3569 4081 
Q 3175 4231 2741 4231 
Q 1884 4231 1454 3753 
Q 1025 3275 1025 2328 
Q 1025 1384 1454 906 
Q 1884 428 2741 428 
Q 3075 428 3337 486 
Q 3600 544 3809 666 
z
" transform="scale(0.015625)"/>
       <path id="DejaVuSans-65" d="M 3597 1894 
L 3597 1613 
L 953 1613 
Q 991 1019 1311 708 
Q 1631 397 2203 397 
Q 2534 397 2845 478 
Q 3156 559 3463 722 
L 3463 178 
Q 3153 47 2828 -22 
Q 2503 -91 2169 -91 
Q 1331 -91 842 396 
Q 353 884 353 1716 
Q 353 2575 817 3079 
Q 1281 3584 2069 3584 
Q 2775 3584 3186 3129 
Q 3597 2675 3597 1894 
z
M 3022 2063 
Q 3016 2534 2758 2815 
Q 2500 3097 2075 3097 
Q 1594 3097 1305 2825 
Q 1016 2553 972 2059 
L 3022 2063 
z
" transform="scale(0.015625)"/>
       <path id="DejaVuSans-6e" d="M 3513 2113 
L 3513 0 
L 2938 0 
L 2938 2094 
Q 2938 2591 2744 2837 
Q 2550 3084 2163 3084 
Q 1697 3084 1428 2787 
Q 1159 2491 1159 1978 
L 1159 0 
L 581 0 
L 581 3500 
L 1159 3500 
L 1159 2956 
Q 1366 3272 1645 3428 
Q 1925 3584 2291 3584 
Q 2894 3584 3203 3211 
Q 3513 2838 3513 2113 
z
" transform="scale(0.015625)"/>
       <path id="DejaVuSans-72" d="M 2631 2963 
Q 2534 3019 2420 3045 
Q 2306 3072 2169 3072 
Q 1681 3072 1420 2755 
Q 1159 2438 1159 1844 
L 1159 0 
L 581 0 
L 581 3500 
L 1159 3500 
L 1159 2956 
Q 1341 3275 1631 3429 
Q 1922 3584 2338 3584 
Q 2397 3584 2469 3576 
Q 2541 3569 2628 3553 
L 2631 2963 
z
" transform="scale(0.015625)"/>
       <path id="DejaVuSans-61" d="M 2194 1759 
Q 1497 1759 1228 1600 
Q 959 1441 959 1056 
Q 959 750 1161 570 
Q 1363 391 1709 391 
Q 2188 391 2477 730 
Q 2766 1069 2766 1631 
L 2766 1759 
L 2194 1759 
z
M 3341 1997 
L 3341 0 
L 2766 0 
L 2766 531 
Q 2569 213 2275 61 
Q 1981 -91 1556 -91 
Q 1019 -91 701 211 
Q 384 513 384 1019 
Q 384 1609 779 1909 
Q 1175 2209 1959 2209 
L 2766 2209 
L 2766 2266 
Q 2766 2663 2505 2880 
Q 2244 3097 1772 3097 
Q 1472 3097 1187 3025 
Q 903 2953 641 2809 
L 641 3341 
Q 956 3463 1253 3523 
Q 1550 3584 1831 3584 
Q 2591 3584 2966 3190 
Q 3341 2797 3341 1997 
z
" transform="scale(0.015625)"/>
       <path id="DejaVuSans-74" d="M 1172 4494 
L 1172 3500 
L 2356 3500 
L 2356 3053 
L 1172 3053 
L 1172 1153 
Q 1172 725 1289 603 
Q 1406 481 1766 481 
L 2356 481 
L 2356 0 
L 1766 0 
Q 1100 0 847 248 
Q 594 497 594 1153 
L 594 3053 
L 172 3053 
L 172 3500 
L 594 3500 
L 594 4494 
L 1172 4494 
z
" transform="scale(0.015625)"/>
       <path id="DejaVuSans-69" d="M 603 3500 
L 1178 3500 
L 1178 0 
L 603 0 
L 603 3500 
z
M 603 4863 
L 1178 4863 
L 1178 4134 
L 603 4134 
L 603 4863 
z
" transform="scale(0.015625)"/>
       <path id="DejaVuSans-6f" d="M 1959 3097 
Q 1497 3097 1228 2736 
Q 959 2375 959 1747 
Q 959 1119 1226 758 
Q 1494 397 1959 397 
Q 2419 397 2687 759 
Q 2956 1122 2956 1747 
Q 2956 2369 2687 2733 
Q 2419 3097 1959 3097 
z
M 1959 3584 
Q 2709 3584 3137 3096 
Q 3566 2609 3566 1747 
Q 3566 888 3137 398 
Q 2709 -91 1959 -91 
Q 1206 -91 779 398 
Q 353 888 353 1747 
Q 353 2609 779 3096 
Q 1206 3584 1959 3584 
z
" transform="scale(0.015625)"/>
       <path id="DejaVuSans-73" d="M 2834 3397 
L 2834 2853 
Q 2591 2978 2328 3040 
Q 2066 3103 1784 3103 
Q 1356 3103 1142 2972 
Q 928 2841 928 2578 
Q 928 2378 1081 2264 
Q 1234 2150 1697 2047 
L 1894 2003 
Q 2506 1872 2764 1633 
Q 3022 1394 3022 966 
Q 3022 478 2636 193 
Q 2250 -91 1575 -91 
Q 1294 -91 989 -36 
Q 684 19 347 128 
L 347 722 
Q 666 556 975 473 
Q 1284 391 1588 391 
Q 1994 391 2212 530 
Q 2431 669 2431 922 
Q 2431 1156 2273 1281 
Q 2116 1406 1581 1522 
L 1381 1569 
Q 847 1681 609 1914 
Q 372 2147 372 2553 
Q 372 3047 722 3315 
Q 1072 3584 1716 3584 
Q 2034 3584 2315 3537 
Q 2597 3491 2834 3397 
z
" transform="scale(0.015625)"/>
      </defs>
      <use xlink:href="#DejaVuSans-47"/>
      <use xlink:href="#DejaVuSans-65" x="77.490234"/>
      <use xlink:href="#DejaVuSans-6e" x="139.013672"/>
      <use xlink:href="#DejaVuSans-65" x="202.392578"/>
      <use xlink:href="#DejaVuSans-72" x="263.916016"/>
      <use xlink:href="#DejaVuSans-61" x="305.029297"/>
      <use xlink:href="#DejaVuSans-74" x="366.308594"/>
      <use xlink:href="#DejaVuSans-69" x="405.517578"/>
      <use xlink:href="#DejaVuSans-6f" x="433.300781"/>
      <use xlink:href="#DejaVuSans-6e" x="494.482422"/>
      <use xlink:href="#DejaVuSans-73" x="557.861328"/>
     </g>
    </g>
   </g>
   <g id="matplotlib.axis_2">
    <g id="ytick_1">
     <g id="line2d_19">
      <path d="M 57.6 307.403566 
L 414.72 307.403566 
" clip-path="url(#p38533ff86a)" style="fill: none; stroke: #b0b0b0; stroke-width: 0.8; stroke-linecap: square"/>
     </g>
     <g id="line2d_20">
      <defs>
       <path id="me5533d3d8c" d="M 0 0 
L -3.5 0 
" style="stroke: #000000; stroke-width: 0.8"/>
      </defs>
      <g>
       <use xlink:href="#me5533d3d8c" x="57.6" y="307.403566" style="stroke: #000000; stroke-width: 0.8"/>
      </g>
     </g>
     <g id="text_11">
      <!-- −2250 -->
      <g transform="translate(16.770313 311.202784) scale(0.1 -0.1)">
       <defs>
        <path id="DejaVuSans-2212" d="M 678 2272 
L 4684 2272 
L 4684 1741 
L 678 1741 
L 678 2272 
z
" transform="scale(0.015625)"/>
       </defs>
       <use xlink:href="#DejaVuSans-2212"/>
       <use xlink:href="#DejaVuSans-32" x="83.789062"/>
       <use xlink:href="#DejaVuSans-32" x="147.412109"/>
       <use xlink:href="#DejaVuSans-35" x="211.035156"/>
       <use xlink:href="#DejaVuSans-30" x="274.658203"/>
      </g>
     </g>
    </g>
    <g id="ytick_2">
     <g id="line2d_21">
      <path d="M 57.6 274.004817 
L 414.72 274.004817 
" clip-path="url(#p38533ff86a)" style="fill: none; stroke: #b0b0b0; stroke-width: 0.8; stroke-linecap: square"/>
     </g>
     <g id="line2d_22">
      <g>
       <use xlink:href="#me5533d3d8c" x="57.6" y="274.004817" style="stroke: #000000; stroke-width: 0.8"/>
      </g>
     </g>
     <g id="text_12">
      <!-- −2000 -->
      <g transform="translate(16.770313 277.804035) scale(0.1 -0.1)">
       <use xlink:href="#DejaVuSans-2212"/>
       <use xlink:href="#DejaVuSans-32" x="83.789062"/>
       <use xlink:href="#DejaVuSans-30" x="147.412109"/>
       <use xlink:href="#DejaVuSans-30" x="211.035156"/>
       <use xlink:href="#DejaVuSans-30" x="274.658203"/>
      </g>
     </g>
    </g>
    <g id="ytick_3">
     <g id="line2d_23">
      <path d="M 57.6 240.606068 
L 414.72 240.606068 
" clip-path="url(#p38533ff86a)" style="fill: none; stroke: #b0b0b0; stroke-width: 0.8; stroke-linecap: square"/>
     </g>
     <g id="line2d_24">
      <g>
       <use xlink:href="#me5533d3d8c" x="57.6" y="240.606068" style="stroke: #000000; stroke-width: 0.8"/>
      </g>
     </g>
     <g id="text_13">
      <!-- −1750 -->
      <g transform="translate(16.770313 244.405286) scale(0.1 -0.1)">
       <use xlink:href="#DejaVuSans-2212"/>
       <use xlink:href="#DejaVuSans-31" x="83.789062"/>
       <use xlink:href="#DejaVuSans-37" x="147.412109"/>
       <use xlink:href="#DejaVuSans-35" x="211.035156"/>
       <use xlink:href="#DejaVuSans-30" x="274.658203"/>
      </g>
     </g>
    </g>
    <g id="ytick_4">
     <g id="line2d_25">
      <path d="M 57.6 207.207318 
L 414.72 207.207318 
" clip-path="url(#p38533ff86a)" style="fill: none; stroke: #b0b0b0; stroke-width: 0.8; stroke-linecap: square"/>
     </g>
     <g id="line2d_26">
      <g>
       <use xlink:href="#me5533d3d8c" x="57.6" y="207.207318" style="stroke: #000000; stroke-width: 0.8"/>
      </g>
     </g>
     <g id="text_14">
      <!-- −1500 -->
      <g transform="translate(16.770313 211.006537) scale(0.1 -0.1)">
       <use xlink:href="#DejaVuSans-2212"/>
       <use xlink:href="#DejaVuSans-31" x="83.789062"/>
       <use xlink:href="#DejaVuSans-35" x="147.412109"/>
       <use xlink:href="#DejaVuSans-30" x="211.035156"/>
       <use xlink:href="#DejaVuSans-30" x="274.658203"/>
      </g>
     </g>
    </g>
    <g id="ytick_5">
     <g id="line2d_27">
      <path d="M 57.6 173.808569 
L 414.72 173.808569 
" clip-path="url(#p38533ff86a)" style="fill: none; stroke: #b0b0b0; stroke-width: 0.8; stroke-linecap: square"/>
     </g>
     <g id="line2d_28">
      <g>
       <use xlink:href="#me5533d3d8c" x="57.6" y="173.808569" style="stroke: #000000; stroke-width: 0.8"/>
      </g>
     </g>
     <g id="text_15">
      <!-- −1250 -->
      <g transform="translate(16.770313 177.607788) scale(0.1 -0.1)">
       <use xlink:href="#DejaVuSans-2212"/>
       <use xlink:href="#DejaVuSans-31" x="83.789062"/>
       <use xlink:href="#DejaVuSans-32" x="147.412109"/>
       <use xlink:href="#DejaVuSans-35" x="211.035156"/>
       <use xlink:href="#DejaVuSans-30" x="274.658203"/>
      </g>
     </g>
    </g>
    <g id="ytick_6">
     <g id="line2d_29">
      <path d="M 57.6 140.40982 
L 414.72 140.40982 
" clip-path="url(#p38533ff86a)" style="fill: none; stroke: #b0b0b0; stroke-width: 0.8; stroke-linecap: square"/>
     </g>
     <g id="line2d_30">
      <g>
       <use xlink:href="#me5533d3d8c" x="57.6" y="140.40982" style="stroke: #000000; stroke-width: 0.8"/>
      </g>
     </g>
     <g id="text_16">
      <!-- −1000 -->
      <g transform="translate(16.770313 144.209039) scale(0.1 -0.1)">
       <use xlink:href="#DejaVuSans-2212"/>
       <use xlink:href="#DejaVuSans-31" x="83.789062"/>
       <use xlink:href="#DejaVuSans-30" x="147.412109"/>
       <use xlink:href="#DejaVuSans-30" x="211.035156"/>
       <use xlink:href="#DejaVuSans-30" x="274.658203"/>
      </g>
     </g>
    </g>
    <g id="ytick_7">
     <g id="line2d_31">
      <path d="M 57.6 107.011071 
L 414.72 107.011071 
" clip-path="url(#p38533ff86a)" style="fill: none; stroke: #b0b0b0; stroke-width: 0.8; stroke-linecap: square"/>
     </g>
     <g id="line2d_32">
      <g>
       <use xlink:href="#me5533d3d8c" x="57.6" y="107.011071" style="stroke: #000000; stroke-width: 0.8"/>
      </g>
     </g>
     <g id="text_17">
      <!-- −750 -->
      <g transform="translate(23.132812 110.81029) scale(0.1 -0.1)">
       <use xlink:href="#DejaVuSans-2212"/>
       <use xlink:href="#DejaVuSans-37" x="83.789062"/>
       <use xlink:href="#DejaVuSans-35" x="147.412109"/>
       <use xlink:href="#DejaVuSans-30" x="211.035156"/>
      </g>
     </g>
    </g>
    <g id="ytick_8">
     <g id="line2d_33">
      <path d="M 57.6 73.612322 
L 414.72 73.612322 
" clip-path="url(#p38533ff86a)" style="fill: none; stroke: #b0b0b0; stroke-width: 0.8; stroke-linecap: square"/>
     </g>
     <g id="line2d_34">
      <g>
       <use xlink:href="#me5533d3d8c" x="57.6" y="73.612322" style="stroke: #000000; stroke-width: 0.8"/>
      </g>
     </g>
     <g id="text_18">
      <!-- −500 -->
      <g transform="translate(23.132812 77.411541) scale(0.1 -0.1)">
       <use xlink:href="#DejaVuSans-2212"/>
       <use xlink:href="#DejaVuSans-35" x="83.789062"/>
       <use xlink:href="#DejaVuSans-30" x="147.412109"/>
       <use xlink:href="#DejaVuSans-30" x="211.035156"/>
      </g>
     </g>
    </g>
    <g id="text_19">
     <!-- Fitness -->
     <g transform="translate(10.690625 191.845187) rotate(-90) scale(0.1 -0.1)">
      <defs>
       <path id="DejaVuSans-46" d="M 628 4666 
L 3309 4666 
L 3309 4134 
L 1259 4134 
L 1259 2759 
L 3109 2759 
L 3109 2228 
L 1259 2228 
L 1259 0 
L 628 0 
L 628 4666 
z
" transform="scale(0.015625)"/>
      </defs>
      <use xlink:href="#DejaVuSans-46"/>
      <use xlink:href="#DejaVuSans-69" x="50.269531"/>
      <use xlink:href="#DejaVuSans-74" x="78.052734"/>
      <use xlink:href="#DejaVuSans-6e" x="117.261719"/>
      <use xlink:href="#DejaVuSans-65" x="180.640625"/>
      <use xlink:href="#DejaVuSans-73" x="242.164062"/>
      <use xlink:href="#DejaVuSans-73" x="294.263672"/>
     </g>
    </g>
   </g>
   <g id="line2d_35">
    <path d="M 73.832727 270.029807 
L 75.464157 264.316101 
L 77.095587 262.3205 
L 78.727017 260.776951 
L 80.358447 257.988843 
L 81.989877 258.921101 
L 83.621307 258.26368 
L 85.252736 257.19938 
L 86.884166 258.151708 
L 88.515596 257.773322 
L 90.147026 257.64012 
L 91.778456 257.943999 
L 93.409886 256.244906 
L 95.041316 257.295709 
L 96.672746 255.479951 
L 98.304175 255.029158 
L 99.935605 258.025399 
L 101.567035 256.90992 
L 103.198465 257.694516 
L 104.829895 257.335591 
L 106.461325 256.233325 
L 108.092755 254.71394 
L 109.724185 256.338425 
L 111.355614 254.845675 
L 112.987044 254.387064 
L 114.618474 251.875144 
L 116.249904 252.230262 
L 117.881334 253.424852 
L 119.512764 253.50916 
L 121.144194 253.957416 
L 122.775624 252.722026 
L 124.407053 253.610705 
L 126.038483 253.949238 
L 127.669913 255.203475 
L 129.301343 253.969918 
L 130.932773 254.918804 
L 132.564203 253.349738 
L 134.195633 253.970411 
L 135.827063 253.973414 
L 137.458492 254.844185 
L 139.089922 252.964249 
L 140.721352 253.663145 
L 142.352782 253.830954 
L 143.984212 251.60429 
L 145.615642 251.70258 
L 147.247072 253.449878 
L 148.878502 251.999698 
L 150.509931 252.44432 
L 152.141361 252.113695 
L 153.772791 253.395643 
L 155.404221 252.878348 
L 157.035651 251.438132 
L 158.667081 252.296215 
L 160.298511 252.778159 
L 161.929941 250.689883 
L 163.56137 248.231165 
L 165.1928 246.86814 
L 166.82423 249.572244 
L 168.45566 251.214413 
L 170.08709 252.154534 
L 171.71852 249.562349 
L 173.34995 250.388337 
L 174.98138 250.502457 
L 176.61281 250.421659 
L 178.244239 251.742208 
L 179.875669 251.163367 
L 181.507099 251.628632 
L 183.138529 249.559396 
L 186.401389 252.662304 
L 188.032819 252.609082 
L 189.664249 252.358736 
L 191.295678 253.707458 
L 192.927108 251.625958 
L 194.558538 252.744814 
L 196.189968 250.909427 
L 197.821398 249.623586 
L 199.452828 252.750759 
L 201.084258 252.715561 
L 202.715688 252.170609 
L 204.347117 252.033902 
L 205.978547 252.542546 
L 207.609977 249.903908 
L 209.241407 251.230558 
L 210.872837 251.227141 
L 212.504267 249.199022 
L 214.135697 250.294821 
L 215.767127 253.40208 
L 217.398556 250.976972 
L 219.029986 250.595914 
L 220.661416 247.19746 
L 222.292846 250.289745 
L 223.924276 247.903593 
L 225.555706 250.950353 
L 227.187136 251.722776 
L 228.818566 250.865919 
L 230.449995 253.476657 
L 232.081425 253.710687 
L 233.712855 253.316495 
L 235.344285 251.871604 
L 236.975715 252.981467 
L 238.607145 253.364113 
L 240.238575 251.913726 
L 241.870005 251.394224 
L 243.501434 253.568161 
L 245.132864 251.473215 
L 246.764294 250.611166 
L 248.395724 251.533667 
L 250.027154 250.65612 
L 251.658584 251.463171 
L 253.290014 251.999004 
L 254.921444 252.300462 
L 256.552873 249.689342 
L 258.184303 250.763674 
L 259.815733 252.10745 
L 261.447163 249.787864 
L 263.078593 251.421335 
L 264.710023 251.653337 
L 266.341453 248.334137 
L 267.972883 247.978174 
L 269.604312 251.517277 
L 271.235742 250.885035 
L 272.867172 247.183414 
L 274.498602 248.78788 
L 276.130032 249.060585 
L 279.392892 251.694013 
L 281.024322 252.016904 
L 282.655751 253.310903 
L 284.287181 253.666109 
L 285.918611 253.422701 
L 287.550041 250.693508 
L 289.181471 250.806674 
L 290.812901 250.406262 
L 292.444331 251.651379 
L 294.075761 253.942072 
L 295.70719 253.651501 
L 297.33862 250.577078 
L 298.97005 253.298642 
L 300.60148 254.092105 
L 302.23291 251.999651 
L 303.86434 255.203818 
L 305.49577 252.773562 
L 307.1272 253.359466 
L 308.75863 254.096078 
L 310.390059 253.407076 
L 313.652919 251.528173 
L 315.284349 251.712993 
L 316.915779 252.335423 
L 318.547209 246.606994 
L 320.178639 249.829521 
L 321.810069 249.821305 
L 323.441498 248.632633 
L 325.072928 246.277334 
L 326.704358 248.197471 
L 328.335788 248.905886 
L 329.967218 245.498769 
L 331.598648 250.924936 
L 333.230078 247.358623 
L 334.861508 253.818017 
L 336.492937 251.286509 
L 338.124367 250.868068 
L 339.755797 253.148058 
L 341.387227 251.727343 
L 344.650087 250.100308 
L 346.281517 250.358099 
L 347.912947 248.642155 
L 349.544376 251.34606 
L 351.175806 247.301682 
L 352.807236 251.154728 
L 354.438666 254.043245 
L 356.070096 252.986019 
L 357.701526 254.181311 
L 359.332956 253.50005 
L 360.964386 250.203249 
L 362.595815 252.358775 
L 364.227245 253.209548 
L 365.858675 255.08791 
L 367.490105 253.74567 
L 369.121535 255.265033 
L 370.752965 254.461551 
L 372.384395 255.789465 
L 374.015825 253.925012 
L 375.647254 253.067272 
L 377.278684 252.753724 
L 378.910114 252.657536 
L 380.541544 253.647392 
L 382.172974 252.930465 
L 383.804404 250.725094 
L 385.435834 249.654058 
L 387.067264 252.561863 
L 388.698693 252.158119 
L 390.330123 250.653031 
L 391.961553 247.542365 
L 393.592983 248.275801 
L 395.224413 245.94647 
L 396.855843 249.158332 
L 398.487273 248.340457 
L 398.487273 248.340457 
" clip-path="url(#p38533ff86a)" style="fill: none; stroke: #0000ff; stroke-width: 1.5; stroke-linecap: square"/>
   </g>
   <g id="line2d_36">
    <path d="M 73.832727 285.41601 
L 75.464157 280.974111 
L 77.095587 278.923714 
L 78.727017 276.640901 
L 80.358447 273.229976 
L 83.621307 271.935732 
L 85.252736 278.979645 
L 86.884166 281.013642 
L 88.515596 279.832538 
L 90.147026 277.036413 
L 91.778456 277.225609 
L 93.409886 276.63792 
L 95.041316 278.398427 
L 96.672746 275.298337 
L 98.304175 276.457535 
L 99.935605 277.900928 
L 101.567035 276.407794 
L 103.198465 276.242579 
L 104.829895 275.645152 
L 106.461325 275.482337 
L 108.092755 275.024712 
L 109.724185 275.813623 
L 111.355614 275.627544 
L 112.987044 279.159166 
L 114.618474 285.043057 
L 116.249904 282.585445 
L 117.881334 282.599754 
L 119.512764 281.292216 
L 121.144194 283.199924 
L 122.775624 281.723034 
L 124.407053 282.170191 
L 126.038483 283.15256 
L 127.669913 283.376807 
L 129.301343 280.599212 
L 130.932773 281.368182 
L 134.195633 282.485497 
L 135.827063 282.28621 
L 137.458492 282.721052 
L 139.089922 281.728386 
L 140.721352 283.263504 
L 142.352782 285.458833 
L 143.984212 287.896459 
L 145.615642 287.041029 
L 147.247072 288.191297 
L 148.878502 286.171623 
L 150.509931 287.148669 
L 152.141361 287.735151 
L 153.772791 287.991215 
L 155.404221 289.183053 
L 157.035651 290.519212 
L 158.667081 287.624005 
L 160.298511 286.872663 
L 161.929941 289.518381 
L 163.56137 290.669041 
L 165.1928 290.552371 
L 166.82423 290.767322 
L 168.45566 290.816696 
L 170.08709 292.125782 
L 171.71852 292.241302 
L 173.34995 291.22837 
L 174.98138 287.882063 
L 176.61281 288.127496 
L 178.244239 289.669644 
L 179.875669 288.17419 
L 181.507099 287.665094 
L 183.138529 293.352025 
L 184.769959 289.451623 
L 186.401389 290.530595 
L 188.032819 290.297939 
L 189.664249 287.625727 
L 191.295678 291.664274 
L 192.927108 291.006287 
L 194.558538 287.671975 
L 196.189968 286.03224 
L 197.821398 285.71221 
L 199.452828 286.843522 
L 201.084258 286.890456 
L 202.715688 286.78319 
L 204.347117 287.805437 
L 205.978547 289.543603 
L 207.609977 290.909707 
L 209.241407 290.586581 
L 210.872837 290.901477 
L 212.504267 291.561053 
L 214.135697 292.398307 
L 215.767127 291.47245 
L 217.398556 291.943639 
L 219.029986 292.188054 
L 220.661416 295.205346 
L 222.292846 290.089197 
L 223.924276 293.373057 
L 225.555706 291.543784 
L 227.187136 291.393919 
L 228.818566 290.142271 
L 230.449995 289.30374 
L 232.081425 287.600893 
L 233.712855 290.664915 
L 235.344285 288.85189 
L 236.975715 289.479171 
L 238.607145 289.255841 
L 240.238575 287.320522 
L 241.870005 292.281027 
L 243.501434 287.497071 
L 245.132864 292.330708 
L 246.764294 292.087727 
L 248.395724 290.503211 
L 250.027154 292.232254 
L 251.658584 291.453951 
L 253.290014 289.947636 
L 254.921444 292.136581 
L 256.552873 289.290792 
L 258.184303 290.359574 
L 259.815733 291.65524 
L 261.447163 289.992437 
L 264.710023 290.057715 
L 266.341453 289.417322 
L 267.972883 291.038143 
L 269.604312 290.098448 
L 271.235742 291.374916 
L 272.867172 294.445749 
L 274.498602 291.276508 
L 276.130032 293.561192 
L 277.761462 290.697294 
L 279.392892 292.265152 
L 282.655751 284.634343 
L 284.287181 285.565047 
L 285.918611 284.520522 
L 287.550041 287.88788 
L 289.181471 287.033 
L 290.812901 289.812488 
L 292.444331 286.264652 
L 294.075761 285.008848 
L 295.70719 288.263381 
L 297.33862 289.736743 
L 298.97005 283.67198 
L 300.60148 286.785687 
L 302.23291 287.302544 
L 303.86434 289.139289 
L 305.49577 285.903812 
L 307.1272 287.313205 
L 308.75863 288.89473 
L 310.390059 288.348594 
L 312.021489 288.064354 
L 313.652919 287.202834 
L 315.284349 288.021675 
L 316.915779 287.969018 
L 318.547209 288.388031 
L 320.178639 290.146188 
L 321.810069 289.791356 
L 323.441498 291.790453 
L 325.072928 294.554428 
L 326.704358 293.648714 
L 328.335788 292.427249 
L 329.967218 293.654196 
L 331.598648 294.391417 
L 333.230078 293.354739 
L 334.861508 294.149487 
L 336.492937 293.069047 
L 338.124367 295.488 
L 339.755797 293.046204 
L 341.387227 291.272945 
L 343.018657 290.981214 
L 344.650087 293.228935 
L 346.281517 290.729395 
L 347.912947 292.875484 
L 349.544376 290.597256 
L 351.175806 295.003695 
L 352.807236 288.137144 
L 354.438666 287.348439 
L 356.070096 289.988015 
L 357.701526 287.80883 
L 359.332956 286.846476 
L 360.964386 288.325098 
L 362.595815 287.775892 
L 364.227245 288.899518 
L 365.858675 284.056881 
L 367.490105 286.607716 
L 369.121535 284.634649 
L 370.752965 283.667773 
L 372.384395 285.014617 
L 374.015825 284.284373 
L 375.647254 283.032395 
L 377.278684 282.609009 
L 378.910114 282.471572 
L 380.541544 284.270952 
L 382.172974 286.906343 
L 383.804404 286.47627 
L 385.435834 287.158199 
L 387.067264 287.656972 
L 388.698693 289.284966 
L 390.330123 288.71133 
L 391.961553 291.873239 
L 393.592983 292.543471 
L 395.224413 289.373338 
L 396.855843 292.68191 
L 398.487273 289.1456 
L 398.487273 289.1456 
" clip-path="url(#p38533ff86a)" style="fill: none; stroke-dasharray: 9.6,2.4,1.5,2.4; stroke-dashoffset: 0; stroke: #008000; stroke-width: 1.5"/>
   </g>
   <g id="line2d_37">
    <path d="M 73.832727 254.643604 
L 75.464157 247.658092 
L 77.095587 245.717286 
L 78.727017 244.913002 
L 80.358447 242.747709 
L 81.989877 245.267107 
L 83.621307 244.591628 
L 85.252736 235.419115 
L 86.884166 235.289774 
L 88.515596 235.714106 
L 90.147026 238.243827 
L 91.778456 238.662389 
L 93.409886 235.851893 
L 95.041316 236.192991 
L 96.672746 235.661565 
L 98.304175 233.600781 
L 99.935605 238.14987 
L 101.567035 237.412045 
L 103.198465 239.146452 
L 104.829895 239.026029 
L 106.461325 236.984313 
L 108.092755 234.403167 
L 109.724185 236.863227 
L 111.355614 234.063807 
L 112.987044 229.614963 
L 114.618474 218.707231 
L 116.249904 221.875078 
L 117.881334 224.249951 
L 119.512764 225.726103 
L 122.775624 223.721018 
L 124.407053 225.051219 
L 126.038483 224.745916 
L 127.669913 227.030143 
L 129.301343 227.340623 
L 130.932773 228.469425 
L 132.564203 224.804688 
L 134.195633 225.455325 
L 135.827063 225.660619 
L 137.458492 226.967319 
L 139.089922 224.200112 
L 140.721352 224.062787 
L 142.352782 222.203076 
L 143.984212 215.31212 
L 145.615642 216.364131 
L 147.247072 218.708458 
L 148.878502 217.827773 
L 150.509931 217.739972 
L 152.141361 216.492239 
L 153.772791 218.800071 
L 155.404221 216.573642 
L 157.035651 212.357052 
L 158.667081 216.968426 
L 160.298511 218.683655 
L 161.929941 211.861386 
L 163.56137 205.793288 
L 165.1928 203.183909 
L 166.82423 208.377166 
L 168.45566 211.61213 
L 170.08709 212.183286 
L 171.71852 206.883396 
L 173.34995 209.548304 
L 174.98138 213.122852 
L 176.61281 212.715822 
L 178.244239 213.814772 
L 179.875669 214.152543 
L 181.507099 215.592171 
L 183.138529 205.766767 
L 184.769959 212.693448 
L 186.401389 214.794014 
L 188.032819 214.920225 
L 189.664249 217.091745 
L 191.295678 215.750642 
L 192.927108 212.245629 
L 194.558538 217.817653 
L 196.189968 215.786613 
L 197.821398 213.534962 
L 199.452828 218.657996 
L 201.084258 218.540666 
L 202.715688 217.558027 
L 204.347117 216.262367 
L 205.978547 215.54149 
L 207.609977 208.898108 
L 209.241407 211.874536 
L 210.872837 211.552806 
L 212.504267 206.83699 
L 214.135697 208.191335 
L 215.767127 215.331711 
L 217.398556 210.010305 
L 219.029986 209.003773 
L 220.661416 199.189574 
L 222.292846 210.490294 
L 223.924276 202.434129 
L 225.555706 210.356922 
L 227.187136 212.051632 
L 228.818566 211.589568 
L 230.449995 217.649574 
L 232.081425 219.82048 
L 233.712855 215.968075 
L 235.344285 214.891318 
L 236.975715 216.483762 
L 238.607145 217.472384 
L 240.238575 216.506929 
L 241.870005 210.507421 
L 243.501434 219.63925 
L 245.132864 210.615722 
L 246.764294 209.134605 
L 248.395724 212.564123 
L 250.027154 209.079987 
L 253.290014 214.050373 
L 254.921444 212.464344 
L 256.552873 210.087892 
L 258.184303 211.167774 
L 259.815733 212.55966 
L 261.447163 209.583291 
L 263.078593 212.823014 
L 264.710023 213.248959 
L 266.341453 207.250952 
L 267.972883 204.918205 
L 269.604312 212.936107 
L 271.235742 210.395154 
L 272.867172 199.921078 
L 274.498602 206.299253 
L 276.130032 204.559979 
L 277.761462 210.046479 
L 279.392892 211.122874 
L 281.024322 215.633987 
L 282.655751 221.987462 
L 284.287181 221.767171 
L 285.918611 222.32488 
L 287.550041 213.499136 
L 289.181471 214.580347 
L 290.812901 211.000035 
L 294.075761 222.875295 
L 295.70719 219.039621 
L 297.33862 211.417413 
L 298.97005 222.925303 
L 300.60148 221.398522 
L 302.23291 216.696758 
L 303.86434 221.268347 
L 305.49577 219.643312 
L 307.1272 219.405728 
L 308.75863 219.297425 
L 310.390059 218.465557 
L 312.021489 216.955625 
L 313.652919 215.853512 
L 315.284349 215.40431 
L 316.915779 216.701827 
L 318.547209 204.825957 
L 320.178639 209.512855 
L 321.810069 209.851254 
L 323.441498 205.474813 
L 325.072928 198.00024 
L 326.704358 202.746228 
L 328.335788 205.384524 
L 329.967218 197.343342 
L 331.598648 207.458456 
L 333.230078 201.362507 
L 334.861508 213.486547 
L 336.492937 209.50397 
L 338.124367 206.248137 
L 339.755797 213.249912 
L 341.387227 212.18174 
L 343.018657 210.931482 
L 344.650087 206.97168 
L 346.281517 209.986803 
L 347.912947 204.408826 
L 349.544376 212.094864 
L 351.175806 199.599669 
L 352.807236 214.172311 
L 354.438666 220.738051 
L 356.070096 215.984022 
L 357.701526 220.553791 
L 359.332956 220.153624 
L 360.964386 212.0814 
L 362.595815 216.941658 
L 364.227245 217.519578 
L 365.858675 226.11894 
L 367.490105 220.883623 
L 369.121535 225.895417 
L 370.752965 225.255328 
L 372.384395 226.564314 
L 374.015825 223.565651 
L 375.647254 223.102148 
L 377.278684 222.898439 
L 378.910114 222.8435 
L 380.541544 223.023832 
L 383.804404 214.973919 
L 385.435834 212.149916 
L 387.067264 217.466755 
L 390.330123 212.594733 
L 391.961553 203.211492 
L 393.592983 204.008132 
L 395.224413 202.519602 
L 396.855843 205.634753 
L 398.487273 207.535314 
L 398.487273 207.535314 
" clip-path="url(#p38533ff86a)" style="fill: none; stroke-dasharray: 9.6,2.4,1.5,2.4; stroke-dashoffset: 0; stroke: #008000; stroke-width: 1.5"/>
   </g>
   <g id="line2d_38">
    <path d="M 73.832727 167.96805 
L 83.621307 167.96805 
L 85.252736 110.045263 
L 112.987044 110.045263 
L 114.618474 60.409406 
L 142.352782 60.409406 
L 143.984212 56.501765 
L 210.872837 56.501765 
L 212.504267 55.939323 
L 245.132864 55.939323 
L 246.764294 55.427645 
L 277.761462 55.354168 
L 279.392892 55.082977 
L 289.181471 55.082977 
L 290.812901 53.568 
L 398.487273 53.568 
L 398.487273 53.568 
" clip-path="url(#p38533ff86a)" style="fill: none; stroke: #ff0000; stroke-width: 1.5; stroke-linecap: square"/>
   </g>
   <g id="patch_3">
    <path d="M 57.6 307.584 
L 57.6 41.472 
" style="fill: none; stroke: #000000; stroke-width: 0.8; stroke-linejoin: miter; stroke-linecap: square"/>
   </g>
   <g id="patch_4">
    <path d="M 414.72 307.584 
L 414.72 41.472 
" style="fill: none; stroke: #000000; stroke-width: 0.8; stroke-linejoin: miter; stroke-linecap: square"/>
   </g>
   <g id="patch_5">
    <path d="M 57.6 307.584 
L 414.72 307.584 
" style="fill: none; stroke: #000000; stroke-width: 0.8; stroke-linejoin: miter; stroke-linecap: square"/>
   </g>
   <g id="patch_6">
    <path d="M 57.6 41.472 
L 414.72 41.472 
" style="fill: none; stroke: #000000; stroke-width: 0.8; stroke-linejoin: miter; stroke-linecap: square"/>
   </g>
   <g id="text_20">
    <!-- Population's average and best fitness -->
    <g transform="translate(123.529687 35.472) scale(0.12 -0.12)">
     <defs>
      <path id="DejaVuSans-50" d="M 1259 4147 
L 1259 2394 
L 2053 2394 
Q 2494 2394 2734 2622 
Q 2975 2850 2975 3272 
Q 2975 3691 2734 3919 
Q 2494 4147 2053 4147 
L 1259 4147 
z
M 628 4666 
L 2053 4666 
Q 2838 4666 3239 4311 
Q 3641 3956 3641 3272 
Q 3641 2581 3239 2228 
Q 2838 1875 2053 1875 
L 1259 1875 
L 1259 0 
L 628 0 
L 628 4666 
z
" transform="scale(0.015625)"/>
      <path id="DejaVuSans-70" d="M 1159 525 
L 1159 -1331 
L 581 -1331 
L 581 3500 
L 1159 3500 
L 1159 2969 
Q 1341 3281 1617 3432 
Q 1894 3584 2278 3584 
Q 2916 3584 3314 3078 
Q 3713 2572 3713 1747 
Q 3713 922 3314 415 
Q 2916 -91 2278 -91 
Q 1894 -91 1617 61 
Q 1341 213 1159 525 
z
M 3116 1747 
Q 3116 2381 2855 2742 
Q 2594 3103 2138 3103 
Q 1681 3103 1420 2742 
Q 1159 2381 1159 1747 
Q 1159 1113 1420 752 
Q 1681 391 2138 391 
Q 2594 391 2855 752 
Q 3116 1113 3116 1747 
z
" transform="scale(0.015625)"/>
      <path id="DejaVuSans-75" d="M 544 1381 
L 544 3500 
L 1119 3500 
L 1119 1403 
Q 1119 906 1312 657 
Q 1506 409 1894 409 
Q 2359 409 2629 706 
Q 2900 1003 2900 1516 
L 2900 3500 
L 3475 3500 
L 3475 0 
L 2900 0 
L 2900 538 
Q 2691 219 2414 64 
Q 2138 -91 1772 -91 
Q 1169 -91 856 284 
Q 544 659 544 1381 
z
M 1991 3584 
L 1991 3584 
z
" transform="scale(0.015625)"/>
      <path id="DejaVuSans-6c" d="M 603 4863 
L 1178 4863 
L 1178 0 
L 603 0 
L 603 4863 
z
" transform="scale(0.015625)"/>
      <path id="DejaVuSans-27" d="M 1147 4666 
L 1147 2931 
L 616 2931 
L 616 4666 
L 1147 4666 
z
" transform="scale(0.015625)"/>
      <path id="DejaVuSans-20" transform="scale(0.015625)"/>
      <path id="DejaVuSans-76" d="M 191 3500 
L 800 3500 
L 1894 563 
L 2988 3500 
L 3597 3500 
L 2284 0 
L 1503 0 
L 191 3500 
z
" transform="scale(0.015625)"/>
      <path id="DejaVuSans-67" d="M 2906 1791 
Q 2906 2416 2648 2759 
Q 2391 3103 1925 3103 
Q 1463 3103 1205 2759 
Q 947 2416 947 1791 
Q 947 1169 1205 825 
Q 1463 481 1925 481 
Q 2391 481 2648 825 
Q 2906 1169 2906 1791 
z
M 3481 434 
Q 3481 -459 3084 -895 
Q 2688 -1331 1869 -1331 
Q 1566 -1331 1297 -1286 
Q 1028 -1241 775 -1147 
L 775 -588 
Q 1028 -725 1275 -790 
Q 1522 -856 1778 -856 
Q 2344 -856 2625 -561 
Q 2906 -266 2906 331 
L 2906 616 
Q 2728 306 2450 153 
Q 2172 0 1784 0 
Q 1141 0 747 490 
Q 353 981 353 1791 
Q 353 2603 747 3093 
Q 1141 3584 1784 3584 
Q 2172 3584 2450 3431 
Q 2728 3278 2906 2969 
L 2906 3500 
L 3481 3500 
L 3481 434 
z
" transform="scale(0.015625)"/>
      <path id="DejaVuSans-64" d="M 2906 2969 
L 2906 4863 
L 3481 4863 
L 3481 0 
L 2906 0 
L 2906 525 
Q 2725 213 2448 61 
Q 2172 -91 1784 -91 
Q 1150 -91 751 415 
Q 353 922 353 1747 
Q 353 2572 751 3078 
Q 1150 3584 1784 3584 
Q 2172 3584 2448 3432 
Q 2725 3281 2906 2969 
z
M 947 1747 
Q 947 1113 1208 752 
Q 1469 391 1925 391 
Q 2381 391 2643 752 
Q 2906 1113 2906 1747 
Q 2906 2381 2643 2742 
Q 2381 3103 1925 3103 
Q 1469 3103 1208 2742 
Q 947 2381 947 1747 
z
" transform="scale(0.015625)"/>
      <path id="DejaVuSans-62" d="M 3116 1747 
Q 3116 2381 2855 2742 
Q 2594 3103 2138 3103 
Q 1681 3103 1420 2742 
Q 1159 2381 1159 1747 
Q 1159 1113 1420 752 
Q 1681 391 2138 391 
Q 2594 391 2855 752 
Q 3116 1113 3116 1747 
z
M 1159 2969 
Q 1341 3281 1617 3432 
Q 1894 3584 2278 3584 
Q 2916 3584 3314 3078 
Q 3713 2572 3713 1747 
Q 3713 922 3314 415 
Q 2916 -91 2278 -91 
Q 1894 -91 1617 61 
Q 1341 213 1159 525 
L 1159 0 
L 581 0 
L 581 4863 
L 1159 4863 
L 1159 2969 
z
" transform="scale(0.015625)"/>
      <path id="DejaVuSans-66" d="M 2375 4863 
L 2375 4384 
L 1825 4384 
Q 1516 4384 1395 4259 
Q 1275 4134 1275 3809 
L 1275 3500 
L 2222 3500 
L 2222 3053 
L 1275 3053 
L 1275 0 
L 697 0 
L 697 3053 
L 147 3053 
L 147 3500 
L 697 3500 
L 697 3744 
Q 697 4328 969 4595 
Q 1241 4863 1831 4863 
L 2375 4863 
z
" transform="scale(0.015625)"/>
     </defs>
     <use xlink:href="#DejaVuSans-50"/>
     <use xlink:href="#DejaVuSans-6f" x="56.677734"/>
     <use xlink:href="#DejaVuSans-70" x="117.859375"/>
     <use xlink:href="#DejaVuSans-75" x="181.335938"/>
     <use xlink:href="#DejaVuSans-6c" x="244.714844"/>
     <use xlink:href="#DejaVuSans-61" x="272.498047"/>
     <use xlink:href="#DejaVuSans-74" x="333.777344"/>
     <use xlink:href="#DejaVuSans-69" x="372.986328"/>
     <use xlink:href="#DejaVuSans-6f" x="400.769531"/>
     <use xlink:href="#DejaVuSans-6e" x="461.951172"/>
     <use xlink:href="#DejaVuSans-27" x="525.330078"/>
     <use xlink:href="#DejaVuSans-73" x="552.820312"/>
     <use xlink:href="#DejaVuSans-20" x="604.919922"/>
     <use xlink:href="#DejaVuSans-61" x="636.707031"/>
     <use xlink:href="#DejaVuSans-76" x="697.986328"/>
     <use xlink:href="#DejaVuSans-65" x="757.166016"/>
     <use xlink:href="#DejaVuSans-72" x="818.689453"/>
     <use xlink:href="#DejaVuSans-61" x="859.802734"/>
     <use xlink:href="#DejaVuSans-67" x="921.082031"/>
     <use xlink:href="#DejaVuSans-65" x="984.558594"/>
     <use xlink:href="#DejaVuSans-20" x="1046.082031"/>
     <use xlink:href="#DejaVuSans-61" x="1077.869141"/>
     <use xlink:href="#DejaVuSans-6e" x="1139.148438"/>
     <use xlink:href="#DejaVuSans-64" x="1202.527344"/>
     <use xlink:href="#DejaVuSans-20" x="1266.003906"/>
     <use xlink:href="#DejaVuSans-62" x="1297.791016"/>
     <use xlink:href="#DejaVuSans-65" x="1361.267578"/>
     <use xlink:href="#DejaVuSans-73" x="1422.791016"/>
     <use xlink:href="#DejaVuSans-74" x="1474.890625"/>
     <use xlink:href="#DejaVuSans-20" x="1514.099609"/>
     <use xlink:href="#DejaVuSans-66" x="1545.886719"/>
     <use xlink:href="#DejaVuSans-69" x="1581.091797"/>
     <use xlink:href="#DejaVuSans-74" x="1608.875"/>
     <use xlink:href="#DejaVuSans-6e" x="1648.083984"/>
     <use xlink:href="#DejaVuSans-65" x="1711.462891"/>
     <use xlink:href="#DejaVuSans-73" x="1772.986328"/>
     <use xlink:href="#DejaVuSans-73" x="1825.085938"/>
    </g>
   </g>
   <g id="legend_1">
    <g id="patch_7">
     <path d="M 199.689687 205.38425 
L 272.630313 205.38425 
Q 274.630313 205.38425 274.630313 203.38425 
L 274.630313 145.67175 
Q 274.630313 143.67175 272.630313 143.67175 
L 199.689687 143.67175 
Q 197.689687 143.67175 197.689687 145.67175 
L 197.689687 203.38425 
Q 197.689687 205.38425 199.689687 205.38425 
z
" style="fill: #ffffff; opacity: 0.8; stroke: #cccccc; stroke-linejoin: miter"/>
    </g>
    <g id="line2d_39">
     <path d="M 201.689687 151.770188 
L 211.689687 151.770188 
L 221.689687 151.770188 
" style="fill: none; stroke: #0000ff; stroke-width: 1.5; stroke-linecap: square"/>
    </g>
    <g id="text_21">
     <!-- average -->
     <g transform="translate(229.689687 155.270188) scale(0.1 -0.1)">
      <use xlink:href="#DejaVuSans-61"/>
      <use xlink:href="#DejaVuSans-76" x="61.279297"/>
      <use xlink:href="#DejaVuSans-65" x="120.458984"/>
      <use xlink:href="#DejaVuSans-72" x="181.982422"/>
      <use xlink:href="#DejaVuSans-61" x="223.095703"/>
      <use xlink:href="#DejaVuSans-67" x="284.375"/>
      <use xlink:href="#DejaVuSans-65" x="347.851562"/>
     </g>
    </g>
    <g id="line2d_40">
     <path d="M 201.689687 166.448313 
L 211.689687 166.448313 
L 221.689687 166.448313 
" style="fill: none; stroke-dasharray: 9.6,2.4,1.5,2.4; stroke-dashoffset: 0; stroke: #008000; stroke-width: 1.5"/>
    </g>
    <g id="text_22">
     <!-- -1 sd -->
     <g transform="translate(229.689687 169.948313) scale(0.1 -0.1)">
      <defs>
       <path id="DejaVuSans-2d" d="M 313 2009 
L 1997 2009 
L 1997 1497 
L 313 1497 
L 313 2009 
z
" transform="scale(0.015625)"/>
      </defs>
      <use xlink:href="#DejaVuSans-2d"/>
      <use xlink:href="#DejaVuSans-31" x="36.083984"/>
      <use xlink:href="#DejaVuSans-20" x="99.707031"/>
      <use xlink:href="#DejaVuSans-73" x="131.494141"/>
      <use xlink:href="#DejaVuSans-64" x="183.59375"/>
     </g>
    </g>
    <g id="line2d_41">
     <path d="M 201.689687 181.126438 
L 211.689687 181.126438 
L 221.689687 181.126438 
" style="fill: none; stroke-dasharray: 9.6,2.4,1.5,2.4; stroke-dashoffset: 0; stroke: #008000; stroke-width: 1.5"/>
    </g>
    <g id="text_23">
     <!-- +1 sd -->
     <g transform="translate(229.689687 184.626438) scale(0.1 -0.1)">
      <defs>
       <path id="DejaVuSans-2b" d="M 2944 4013 
L 2944 2272 
L 4684 2272 
L 4684 1741 
L 2944 1741 
L 2944 0 
L 2419 0 
L 2419 1741 
L 678 1741 
L 678 2272 
L 2419 2272 
L 2419 4013 
L 2944 4013 
z
" transform="scale(0.015625)"/>
      </defs>
      <use xlink:href="#DejaVuSans-2b"/>
      <use xlink:href="#DejaVuSans-31" x="83.789062"/>
      <use xlink:href="#DejaVuSans-20" x="147.412109"/>
      <use xlink:href="#DejaVuSans-73" x="179.199219"/>
      <use xlink:href="#DejaVuSans-64" x="231.298828"/>
     </g>
    </g>
    <g id="line2d_42">
     <path d="M 201.689687 195.804563 
L 211.689687 195.804563 
L 221.689687 195.804563 
" style="fill: none; stroke: #ff0000; stroke-width: 1.5; stroke-linecap: square"/>
    </g>
    <g id="text_24">
     <!-- best -->
     <g transform="translate(229.689687 199.304563) scale(0.1 -0.1)">
      <use xlink:href="#DejaVuSans-62"/>
      <use xlink:href="#DejaVuSans-65" x="63.476562"/>
      <use xlink:href="#DejaVuSans-73" x="125"/>
      <use xlink:href="#DejaVuSans-74" x="177.099609"/>
     </g>
    </g>
   </g>
  </g>
 </g>
 <defs>
  <clipPath id="p38533ff86a">
   <rect x="57.6" y="41.472" width="357.12" height="266.112"/>
  </clipPath>
 </defs>
</svg>
