<?xml version="1.0" encoding="utf-8" standalone="no"?>
<!DOCTYPE svg PUBLIC "-//W3C//DTD SVG 1.1//EN"
  "http://www.w3.org/Graphics/SVG/1.1/DTD/svg11.dtd">
<svg xmlns:xlink="http://www.w3.org/1999/xlink" width="460.8pt" height="345.6pt" viewBox="0 0 460.8 345.6" xmlns="http://www.w3.org/2000/svg" version="1.1">
 <metadata>
  <rdf:RDF xmlns:dc="http://purl.org/dc/elements/1.1/" xmlns:cc="http://creativecommons.org/ns#" xmlns:rdf="http://www.w3.org/1999/02/22-rdf-syntax-ns#">
   <cc:Work>
    <dc:type rdf:resource="http://purl.org/dc/dcmitype/StillImage"/>
    <dc:date>2024-08-03T07:58:08.206215</dc:date>
    <dc:format>image/svg+xml</dc:format>
    <dc:creator>
     <cc:Agent>
      <dc:title>Matplotlib v3.8.4, https://matplotlib.org/</dc:title>
     </cc:Agent>
    </dc:creator>
   </cc:Work>
  </rdf:RDF>
 </metadata>
 <defs>
  <style type="text/css">*{stroke-linejoin: round; stroke-linecap: butt}</style>
 </defs>
 <g id="figure_1">
  <g id="patch_1">
   <path d="M 0 345.6 
L 460.8 345.6 
L 460.8 0 
L 0 0 
z
" style="fill: #ffffff"/>
  </g>
  <g id="axes_1">
   <g id="patch_2">
    <path d="M 57.6 307.584 
L 414.72 307.584 
L 414.72 41.472 
L 57.6 41.472 
z
" style="fill: #ffffff"/>
   </g>
   <g id="matplotlib.axis_1">
    <g id="xtick_1">
     <g id="line2d_1">
      <path d="M 73.832727 307.584 
L 73.832727 41.472 
" clip-path="url(#p17b61adf1d)" style="fill: none; stroke: #b0b0b0; stroke-width: 0.8; stroke-linecap: square"/>
     </g>
     <g id="line2d_2">
      <defs>
       <path id="maeb16616ee" d="M 0 0 
L 0 3.5 
" style="stroke: #000000; stroke-width: 0.8"/>
      </defs>
      <g>
       <use xlink:href="#maeb16616ee" x="73.832727" y="307.584" style="stroke: #000000; stroke-width: 0.8"/>
      </g>
     </g>
     <g id="text_1">
      <!-- 0 -->
      <g transform="translate(70.651477 322.182437) scale(0.1 -0.1)">
       <defs>
        <path id="DejaVuSans-30" d="M 2034 4250 
Q 1547 4250 1301 3770 
Q 1056 3291 1056 2328 
Q 1056 1369 1301 889 
Q 1547 409 2034 409 
Q 2525 409 2770 889 
Q 3016 1369 3016 2328 
Q 3016 3291 2770 3770 
Q 2525 4250 2034 4250 
z
M 2034 4750 
Q 2819 4750 3233 4129 
Q 3647 3509 3647 2328 
Q 3647 1150 3233 529 
Q 2819 -91 2034 -91 
Q 1250 -91 836 529 
Q 422 1150 422 2328 
Q 422 3509 836 4129 
Q 1250 4750 2034 4750 
z
" transform="scale(0.015625)"/>
       </defs>
       <use xlink:href="#DejaVuSans-30"/>
      </g>
     </g>
    </g>
    <g id="xtick_2">
     <g id="line2d_3">
      <path d="M 114.618474 307.584 
L 114.618474 41.472 
" clip-path="url(#p17b61adf1d)" style="fill: none; stroke: #b0b0b0; stroke-width: 0.8; stroke-linecap: square"/>
     </g>
     <g id="line2d_4">
      <g>
       <use xlink:href="#maeb16616ee" x="114.618474" y="307.584" style="stroke: #000000; stroke-width: 0.8"/>
      </g>
     </g>
     <g id="text_2">
      <!-- 25 -->
      <g transform="translate(108.255974 322.182437) scale(0.1 -0.1)">
       <defs>
        <path id="DejaVuSans-32" d="M 1228 531 
L 3431 531 
L 3431 0 
L 469 0 
L 469 531 
Q 828 903 1448 1529 
Q 2069 2156 2228 2338 
Q 2531 2678 2651 2914 
Q 2772 3150 2772 3378 
Q 2772 3750 2511 3984 
Q 2250 4219 1831 4219 
Q 1534 4219 1204 4116 
Q 875 4013 500 3803 
L 500 4441 
Q 881 4594 1212 4672 
Q 1544 4750 1819 4750 
Q 2544 4750 2975 4387 
Q 3406 4025 3406 3419 
Q 3406 3131 3298 2873 
Q 3191 2616 2906 2266 
Q 2828 2175 2409 1742 
Q 1991 1309 1228 531 
z
" transform="scale(0.015625)"/>
        <path id="DejaVuSans-35" d="M 691 4666 
L 3169 4666 
L 3169 4134 
L 1269 4134 
L 1269 2991 
Q 1406 3038 1543 3061 
Q 1681 3084 1819 3084 
Q 2600 3084 3056 2656 
Q 3513 2228 3513 1497 
Q 3513 744 3044 326 
Q 2575 -91 1722 -91 
Q 1428 -91 1123 -41 
Q 819 9 494 109 
L 494 744 
Q 775 591 1075 516 
Q 1375 441 1709 441 
Q 2250 441 2565 725 
Q 2881 1009 2881 1497 
Q 2881 1984 2565 2268 
Q 2250 2553 1709 2553 
Q 1456 2553 1204 2497 
Q 953 2441 691 2322 
L 691 4666 
z
" transform="scale(0.015625)"/>
       </defs>
       <use xlink:href="#DejaVuSans-32"/>
       <use xlink:href="#DejaVuSans-35" x="63.623047"/>
      </g>
     </g>
    </g>
    <g id="xtick_3">
     <g id="line2d_5">
      <path d="M 155.404221 307.584 
L 155.404221 41.472 
" clip-path="url(#p17b61adf1d)" style="fill: none; stroke: #b0b0b0; stroke-width: 0.8; stroke-linecap: square"/>
     </g>
     <g id="line2d_6">
      <g>
       <use xlink:href="#maeb16616ee" x="155.404221" y="307.584" style="stroke: #000000; stroke-width: 0.8"/>
      </g>
     </g>
     <g id="text_3">
      <!-- 50 -->
      <g transform="translate(149.041721 322.182437) scale(0.1 -0.1)">
       <use xlink:href="#DejaVuSans-35"/>
       <use xlink:href="#DejaVuSans-30" x="63.623047"/>
      </g>
     </g>
    </g>
    <g id="xtick_4">
     <g id="line2d_7">
      <path d="M 196.189968 307.584 
L 196.189968 41.472 
" clip-path="url(#p17b61adf1d)" style="fill: none; stroke: #b0b0b0; stroke-width: 0.8; stroke-linecap: square"/>
     </g>
     <g id="line2d_8">
      <g>
       <use xlink:href="#maeb16616ee" x="196.189968" y="307.584" style="stroke: #000000; stroke-width: 0.8"/>
      </g>
     </g>
     <g id="text_4">
      <!-- 75 -->
      <g transform="translate(189.827468 322.182437) scale(0.1 -0.1)">
       <defs>
        <path id="DejaVuSans-37" d="M 525 4666 
L 3525 4666 
L 3525 4397 
L 1831 0 
L 1172 0 
L 2766 4134 
L 525 4134 
L 525 4666 
z
" transform="scale(0.015625)"/>
       </defs>
       <use xlink:href="#DejaVuSans-37"/>
       <use xlink:href="#DejaVuSans-35" x="63.623047"/>
      </g>
     </g>
    </g>
    <g id="xtick_5">
     <g id="line2d_9">
      <path d="M 236.975715 307.584 
L 236.975715 41.472 
" clip-path="url(#p17b61adf1d)" style="fill: none; stroke: #b0b0b0; stroke-width: 0.8; stroke-linecap: square"/>
     </g>
     <g id="line2d_10">
      <g>
       <use xlink:href="#maeb16616ee" x="236.975715" y="307.584" style="stroke: #000000; stroke-width: 0.8"/>
      </g>
     </g>
     <g id="text_5">
      <!-- 100 -->
      <g transform="translate(227.431965 322.182437) scale(0.1 -0.1)">
       <defs>
        <path id="DejaVuSans-31" d="M 794 531 
L 1825 531 
L 1825 4091 
L 703 3866 
L 703 4441 
L 1819 4666 
L 2450 4666 
L 2450 531 
L 3481 531 
L 3481 0 
L 794 0 
L 794 531 
z
" transform="scale(0.015625)"/>
       </defs>
       <use xlink:href="#DejaVuSans-31"/>
       <use xlink:href="#DejaVuSans-30" x="63.623047"/>
       <use xlink:href="#DejaVuSans-30" x="127.246094"/>
      </g>
     </g>
    </g>
    <g id="xtick_6">
     <g id="line2d_11">
      <path d="M 277.761462 307.584 
L 277.761462 41.472 
" clip-path="url(#p17b61adf1d)" style="fill: none; stroke: #b0b0b0; stroke-width: 0.8; stroke-linecap: square"/>
     </g>
     <g id="line2d_12">
      <g>
       <use xlink:href="#maeb16616ee" x="277.761462" y="307.584" style="stroke: #000000; stroke-width: 0.8"/>
      </g>
     </g>
     <g id="text_6">
      <!-- 125 -->
      <g transform="translate(268.217712 322.182437) scale(0.1 -0.1)">
       <use xlink:href="#DejaVuSans-31"/>
       <use xlink:href="#DejaVuSans-32" x="63.623047"/>
       <use xlink:href="#DejaVuSans-35" x="127.246094"/>
      </g>
     </g>
    </g>
    <g id="xtick_7">
     <g id="line2d_13">
      <path d="M 318.547209 307.584 
L 318.547209 41.472 
" clip-path="url(#p17b61adf1d)" style="fill: none; stroke: #b0b0b0; stroke-width: 0.8; stroke-linecap: square"/>
     </g>
     <g id="line2d_14">
      <g>
       <use xlink:href="#maeb16616ee" x="318.547209" y="307.584" style="stroke: #000000; stroke-width: 0.8"/>
      </g>
     </g>
     <g id="text_7">
      <!-- 150 -->
      <g transform="translate(309.003459 322.182437) scale(0.1 -0.1)">
       <use xlink:href="#DejaVuSans-31"/>
       <use xlink:href="#DejaVuSans-35" x="63.623047"/>
       <use xlink:href="#DejaVuSans-30" x="127.246094"/>
      </g>
     </g>
    </g>
    <g id="xtick_8">
     <g id="line2d_15">
      <path d="M 359.332956 307.584 
L 359.332956 41.472 
" clip-path="url(#p17b61adf1d)" style="fill: none; stroke: #b0b0b0; stroke-width: 0.8; stroke-linecap: square"/>
     </g>
     <g id="line2d_16">
      <g>
       <use xlink:href="#maeb16616ee" x="359.332956" y="307.584" style="stroke: #000000; stroke-width: 0.8"/>
      </g>
     </g>
     <g id="text_8">
      <!-- 175 -->
      <g transform="translate(349.789206 322.182437) scale(0.1 -0.1)">
       <use xlink:href="#DejaVuSans-31"/>
       <use xlink:href="#DejaVuSans-37" x="63.623047"/>
       <use xlink:href="#DejaVuSans-35" x="127.246094"/>
      </g>
     </g>
    </g>
    <g id="xtick_9">
     <g id="line2d_17">
      <path d="M 400.118703 307.584 
L 400.118703 41.472 
" clip-path="url(#p17b61adf1d)" style="fill: none; stroke: #b0b0b0; stroke-width: 0.8; stroke-linecap: square"/>
     </g>
     <g id="line2d_18">
      <g>
       <use xlink:href="#maeb16616ee" x="400.118703" y="307.584" style="stroke: #000000; stroke-width: 0.8"/>
      </g>
     </g>
     <g id="text_9">
      <!-- 200 -->
      <g transform="translate(390.574953 322.182437) scale(0.1 -0.1)">
       <use xlink:href="#DejaVuSans-32"/>
       <use xlink:href="#DejaVuSans-30" x="63.623047"/>
       <use xlink:href="#DejaVuSans-30" x="127.246094"/>
      </g>
     </g>
    </g>
    <g id="text_10">
     <!-- Generations -->
     <g transform="translate(205.662344 335.860562) scale(0.1 -0.1)">
      <defs>
       <path id="DejaVuSans-47" d="M 3809 666 
L 3809 1919 
L 2778 1919 
L 2778 2438 
L 4434 2438 
L 4434 434 
Q 4069 175 3628 42 
Q 3188 -91 2688 -91 
Q 1594 -91 976 548 
Q 359 1188 359 2328 
Q 359 3472 976 4111 
Q 1594 4750 2688 4750 
Q 3144 4750 3555 4637 
Q 3966 4525 4313 4306 
L 4313 3634 
Q 3963 3931 3569 4081 
Q 3175 4231 2741 4231 
Q 1884 4231 1454 3753 
Q 1025 3275 1025 2328 
Q 1025 1384 1454 906 
Q 1884 428 2741 428 
Q 3075 428 3337 486 
Q 3600 544 3809 666 
z
" transform="scale(0.015625)"/>
       <path id="DejaVuSans-65" d="M 3597 1894 
L 3597 1613 
L 953 1613 
Q 991 1019 1311 708 
Q 1631 397 2203 397 
Q 2534 397 2845 478 
Q 3156 559 3463 722 
L 3463 178 
Q 3153 47 2828 -22 
Q 2503 -91 2169 -91 
Q 1331 -91 842 396 
Q 353 884 353 1716 
Q 353 2575 817 3079 
Q 1281 3584 2069 3584 
Q 2775 3584 3186 3129 
Q 3597 2675 3597 1894 
z
M 3022 2063 
Q 3016 2534 2758 2815 
Q 2500 3097 2075 3097 
Q 1594 3097 1305 2825 
Q 1016 2553 972 2059 
L 3022 2063 
z
" transform="scale(0.015625)"/>
       <path id="DejaVuSans-6e" d="M 3513 2113 
L 3513 0 
L 2938 0 
L 2938 2094 
Q 2938 2591 2744 2837 
Q 2550 3084 2163 3084 
Q 1697 3084 1428 2787 
Q 1159 2491 1159 1978 
L 1159 0 
L 581 0 
L 581 3500 
L 1159 3500 
L 1159 2956 
Q 1366 3272 1645 3428 
Q 1925 3584 2291 3584 
Q 2894 3584 3203 3211 
Q 3513 2838 3513 2113 
z
" transform="scale(0.015625)"/>
       <path id="DejaVuSans-72" d="M 2631 2963 
Q 2534 3019 2420 3045 
Q 2306 3072 2169 3072 
Q 1681 3072 1420 2755 
Q 1159 2438 1159 1844 
L 1159 0 
L 581 0 
L 581 3500 
L 1159 3500 
L 1159 2956 
Q 1341 3275 1631 3429 
Q 1922 3584 2338 3584 
Q 2397 3584 2469 3576 
Q 2541 3569 2628 3553 
L 2631 2963 
z
" transform="scale(0.015625)"/>
       <path id="DejaVuSans-61" d="M 2194 1759 
Q 1497 1759 1228 1600 
Q 959 1441 959 1056 
Q 959 750 1161 570 
Q 1363 391 1709 391 
Q 2188 391 2477 730 
Q 2766 1069 2766 1631 
L 2766 1759 
L 2194 1759 
z
M 3341 1997 
L 3341 0 
L 2766 0 
L 2766 531 
Q 2569 213 2275 61 
Q 1981 -91 1556 -91 
Q 1019 -91 701 211 
Q 384 513 384 1019 
Q 384 1609 779 1909 
Q 1175 2209 1959 2209 
L 2766 2209 
L 2766 2266 
Q 2766 2663 2505 2880 
Q 2244 3097 1772 3097 
Q 1472 3097 1187 3025 
Q 903 2953 641 2809 
L 641 3341 
Q 956 3463 1253 3523 
Q 1550 3584 1831 3584 
Q 2591 3584 2966 3190 
Q 3341 2797 3341 1997 
z
" transform="scale(0.015625)"/>
       <path id="DejaVuSans-74" d="M 1172 4494 
L 1172 3500 
L 2356 3500 
L 2356 3053 
L 1172 3053 
L 1172 1153 
Q 1172 725 1289 603 
Q 1406 481 1766 481 
L 2356 481 
L 2356 0 
L 1766 0 
Q 1100 0 847 248 
Q 594 497 594 1153 
L 594 3053 
L 172 3053 
L 172 3500 
L 594 3500 
L 594 4494 
L 1172 4494 
z
" transform="scale(0.015625)"/>
       <path id="DejaVuSans-69" d="M 603 3500 
L 1178 3500 
L 1178 0 
L 603 0 
L 603 3500 
z
M 603 4863 
L 1178 4863 
L 1178 4134 
L 603 4134 
L 603 4863 
z
" transform="scale(0.015625)"/>
       <path id="DejaVuSans-6f" d="M 1959 3097 
Q 1497 3097 1228 2736 
Q 959 2375 959 1747 
Q 959 1119 1226 758 
Q 1494 397 1959 397 
Q 2419 397 2687 759 
Q 2956 1122 2956 1747 
Q 2956 2369 2687 2733 
Q 2419 3097 1959 3097 
z
M 1959 3584 
Q 2709 3584 3137 3096 
Q 3566 2609 3566 1747 
Q 3566 888 3137 398 
Q 2709 -91 1959 -91 
Q 1206 -91 779 398 
Q 353 888 353 1747 
Q 353 2609 779 3096 
Q 1206 3584 1959 3584 
z
" transform="scale(0.015625)"/>
       <path id="DejaVuSans-73" d="M 2834 3397 
L 2834 2853 
Q 2591 2978 2328 3040 
Q 2066 3103 1784 3103 
Q 1356 3103 1142 2972 
Q 928 2841 928 2578 
Q 928 2378 1081 2264 
Q 1234 2150 1697 2047 
L 1894 2003 
Q 2506 1872 2764 1633 
Q 3022 1394 3022 966 
Q 3022 478 2636 193 
Q 2250 -91 1575 -91 
Q 1294 -91 989 -36 
Q 684 19 347 128 
L 347 722 
Q 666 556 975 473 
Q 1284 391 1588 391 
Q 1994 391 2212 530 
Q 2431 669 2431 922 
Q 2431 1156 2273 1281 
Q 2116 1406 1581 1522 
L 1381 1569 
Q 847 1681 609 1914 
Q 372 2147 372 2553 
Q 372 3047 722 3315 
Q 1072 3584 1716 3584 
Q 2034 3584 2315 3537 
Q 2597 3491 2834 3397 
z
" transform="scale(0.015625)"/>
      </defs>
      <use xlink:href="#DejaVuSans-47"/>
      <use xlink:href="#DejaVuSans-65" x="77.490234"/>
      <use xlink:href="#DejaVuSans-6e" x="139.013672"/>
      <use xlink:href="#DejaVuSans-65" x="202.392578"/>
      <use xlink:href="#DejaVuSans-72" x="263.916016"/>
      <use xlink:href="#DejaVuSans-61" x="305.029297"/>
      <use xlink:href="#DejaVuSans-74" x="366.308594"/>
      <use xlink:href="#DejaVuSans-69" x="405.517578"/>
      <use xlink:href="#DejaVuSans-6f" x="433.300781"/>
      <use xlink:href="#DejaVuSans-6e" x="494.482422"/>
      <use xlink:href="#DejaVuSans-73" x="557.861328"/>
     </g>
    </g>
   </g>
   <g id="matplotlib.axis_2">
    <g id="ytick_1">
     <g id="line2d_19">
      <path d="M 57.6 264.895178 
L 414.72 264.895178 
" clip-path="url(#p17b61adf1d)" style="fill: none; stroke: #b0b0b0; stroke-width: 0.8; stroke-linecap: square"/>
     </g>
     <g id="line2d_20">
      <defs>
       <path id="m2454475330" d="M 0 0 
L -3.5 0 
" style="stroke: #000000; stroke-width: 0.8"/>
      </defs>
      <g>
       <use xlink:href="#m2454475330" x="57.6" y="264.895178" style="stroke: #000000; stroke-width: 0.8"/>
      </g>
     </g>
     <g id="text_11">
      <!-- −1900 -->
      <g transform="translate(16.770313 268.694397) scale(0.1 -0.1)">
       <defs>
        <path id="DejaVuSans-2212" d="M 678 2272 
L 4684 2272 
L 4684 1741 
L 678 1741 
L 678 2272 
z
" transform="scale(0.015625)"/>
        <path id="DejaVuSans-39" d="M 703 97 
L 703 672 
Q 941 559 1184 500 
Q 1428 441 1663 441 
Q 2288 441 2617 861 
Q 2947 1281 2994 2138 
Q 2813 1869 2534 1725 
Q 2256 1581 1919 1581 
Q 1219 1581 811 2004 
Q 403 2428 403 3163 
Q 403 3881 828 4315 
Q 1253 4750 1959 4750 
Q 2769 4750 3195 4129 
Q 3622 3509 3622 2328 
Q 3622 1225 3098 567 
Q 2575 -91 1691 -91 
Q 1453 -91 1209 -44 
Q 966 3 703 97 
z
M 1959 2075 
Q 2384 2075 2632 2365 
Q 2881 2656 2881 3163 
Q 2881 3666 2632 3958 
Q 2384 4250 1959 4250 
Q 1534 4250 1286 3958 
Q 1038 3666 1038 3163 
Q 1038 2656 1286 2365 
Q 1534 2075 1959 2075 
z
" transform="scale(0.015625)"/>
       </defs>
       <use xlink:href="#DejaVuSans-2212"/>
       <use xlink:href="#DejaVuSans-31" x="83.789062"/>
       <use xlink:href="#DejaVuSans-39" x="147.412109"/>
       <use xlink:href="#DejaVuSans-30" x="211.035156"/>
       <use xlink:href="#DejaVuSans-30" x="274.658203"/>
      </g>
     </g>
    </g>
    <g id="ytick_2">
     <g id="line2d_21">
      <path d="M 57.6 219.389756 
L 414.72 219.389756 
" clip-path="url(#p17b61adf1d)" style="fill: none; stroke: #b0b0b0; stroke-width: 0.8; stroke-linecap: square"/>
     </g>
     <g id="line2d_22">
      <g>
       <use xlink:href="#m2454475330" x="57.6" y="219.389756" style="stroke: #000000; stroke-width: 0.8"/>
      </g>
     </g>
     <g id="text_12">
      <!-- −1850 -->
      <g transform="translate(16.770313 223.188975) scale(0.1 -0.1)">
       <defs>
        <path id="DejaVuSans-38" d="M 2034 2216 
Q 1584 2216 1326 1975 
Q 1069 1734 1069 1313 
Q 1069 891 1326 650 
Q 1584 409 2034 409 
Q 2484 409 2743 651 
Q 3003 894 3003 1313 
Q 3003 1734 2745 1975 
Q 2488 2216 2034 2216 
z
M 1403 2484 
Q 997 2584 770 2862 
Q 544 3141 544 3541 
Q 544 4100 942 4425 
Q 1341 4750 2034 4750 
Q 2731 4750 3128 4425 
Q 3525 4100 3525 3541 
Q 3525 3141 3298 2862 
Q 3072 2584 2669 2484 
Q 3125 2378 3379 2068 
Q 3634 1759 3634 1313 
Q 3634 634 3220 271 
Q 2806 -91 2034 -91 
Q 1263 -91 848 271 
Q 434 634 434 1313 
Q 434 1759 690 2068 
Q 947 2378 1403 2484 
z
M 1172 3481 
Q 1172 3119 1398 2916 
Q 1625 2713 2034 2713 
Q 2441 2713 2670 2916 
Q 2900 3119 2900 3481 
Q 2900 3844 2670 4047 
Q 2441 4250 2034 4250 
Q 1625 4250 1398 4047 
Q 1172 3844 1172 3481 
z
" transform="scale(0.015625)"/>
       </defs>
       <use xlink:href="#DejaVuSans-2212"/>
       <use xlink:href="#DejaVuSans-31" x="83.789062"/>
       <use xlink:href="#DejaVuSans-38" x="147.412109"/>
       <use xlink:href="#DejaVuSans-35" x="211.035156"/>
       <use xlink:href="#DejaVuSans-30" x="274.658203"/>
      </g>
     </g>
    </g>
    <g id="ytick_3">
     <g id="line2d_23">
      <path d="M 57.6 173.884335 
L 414.72 173.884335 
" clip-path="url(#p17b61adf1d)" style="fill: none; stroke: #b0b0b0; stroke-width: 0.8; stroke-linecap: square"/>
     </g>
     <g id="line2d_24">
      <g>
       <use xlink:href="#m2454475330" x="57.6" y="173.884335" style="stroke: #000000; stroke-width: 0.8"/>
      </g>
     </g>
     <g id="text_13">
      <!-- −1800 -->
      <g transform="translate(16.770313 177.683554) scale(0.1 -0.1)">
       <use xlink:href="#DejaVuSans-2212"/>
       <use xlink:href="#DejaVuSans-31" x="83.789062"/>
       <use xlink:href="#DejaVuSans-38" x="147.412109"/>
       <use xlink:href="#DejaVuSans-30" x="211.035156"/>
       <use xlink:href="#DejaVuSans-30" x="274.658203"/>
      </g>
     </g>
    </g>
    <g id="ytick_4">
     <g id="line2d_25">
      <path d="M 57.6 128.378913 
L 414.72 128.378913 
" clip-path="url(#p17b61adf1d)" style="fill: none; stroke: #b0b0b0; stroke-width: 0.8; stroke-linecap: square"/>
     </g>
     <g id="line2d_26">
      <g>
       <use xlink:href="#m2454475330" x="57.6" y="128.378913" style="stroke: #000000; stroke-width: 0.8"/>
      </g>
     </g>
     <g id="text_14">
      <!-- −1750 -->
      <g transform="translate(16.770313 132.178132) scale(0.1 -0.1)">
       <use xlink:href="#DejaVuSans-2212"/>
       <use xlink:href="#DejaVuSans-31" x="83.789062"/>
       <use xlink:href="#DejaVuSans-37" x="147.412109"/>
       <use xlink:href="#DejaVuSans-35" x="211.035156"/>
       <use xlink:href="#DejaVuSans-30" x="274.658203"/>
      </g>
     </g>
    </g>
    <g id="ytick_5">
     <g id="line2d_27">
      <path d="M 57.6 82.873492 
L 414.72 82.873492 
" clip-path="url(#p17b61adf1d)" style="fill: none; stroke: #b0b0b0; stroke-width: 0.8; stroke-linecap: square"/>
     </g>
     <g id="line2d_28">
      <g>
       <use xlink:href="#m2454475330" x="57.6" y="82.873492" style="stroke: #000000; stroke-width: 0.8"/>
      </g>
     </g>
     <g id="text_15">
      <!-- −1700 -->
      <g transform="translate(16.770313 86.67271) scale(0.1 -0.1)">
       <use xlink:href="#DejaVuSans-2212"/>
       <use xlink:href="#DejaVuSans-31" x="83.789062"/>
       <use xlink:href="#DejaVuSans-37" x="147.412109"/>
       <use xlink:href="#DejaVuSans-30" x="211.035156"/>
       <use xlink:href="#DejaVuSans-30" x="274.658203"/>
      </g>
     </g>
    </g>
    <g id="text_16">
     <!-- Fitness -->
     <g transform="translate(10.690625 191.845187) rotate(-90) scale(0.1 -0.1)">
      <defs>
       <path id="DejaVuSans-46" d="M 628 4666 
L 3309 4666 
L 3309 4134 
L 1259 4134 
L 1259 2759 
L 3109 2759 
L 3109 2228 
L 1259 2228 
L 1259 0 
L 628 0 
L 628 4666 
z
" transform="scale(0.015625)"/>
      </defs>
      <use xlink:href="#DejaVuSans-46"/>
      <use xlink:href="#DejaVuSans-69" x="50.269531"/>
      <use xlink:href="#DejaVuSans-74" x="78.052734"/>
      <use xlink:href="#DejaVuSans-6e" x="117.261719"/>
      <use xlink:href="#DejaVuSans-65" x="180.640625"/>
      <use xlink:href="#DejaVuSans-73" x="242.164062"/>
      <use xlink:href="#DejaVuSans-73" x="294.263672"/>
     </g>
    </g>
   </g>
   <g id="line2d_29">
    <path d="M 73.832727 250.924559 
L 75.464157 248.026778 
L 77.095587 232.057822 
L 78.727017 227.319594 
L 80.358447 223.769805 
L 81.989877 221.668515 
L 83.621307 220.234788 
L 85.252736 225.042774 
L 86.884166 210.094755 
L 88.515596 211.32676 
L 90.147026 215.44163 
L 91.778456 210.155811 
L 93.409886 210.023323 
L 95.041316 213.716471 
L 96.672746 212.773496 
L 98.304175 217.468711 
L 99.935605 215.877114 
L 101.567035 212.755066 
L 103.198465 214.665362 
L 104.829895 215.10419 
L 106.461325 210.009276 
L 108.092755 209.785382 
L 109.724185 212.581975 
L 111.355614 211.42903 
L 112.987044 213.934658 
L 114.618474 210.909646 
L 116.249904 212.139502 
L 117.881334 210.633778 
L 119.512764 212.081946 
L 121.144194 210.045382 
L 122.775624 211.695236 
L 124.407053 217.630153 
L 126.038483 212.674085 
L 127.669913 211.717277 
L 129.301343 216.398087 
L 130.932773 217.304548 
L 132.564203 210.021615 
L 134.195633 216.132181 
L 135.827063 215.17914 
L 137.458492 214.606999 
L 139.089922 214.894445 
L 140.721352 218.655801 
L 142.352782 218.174137 
L 143.984212 214.547577 
L 145.615642 215.562382 
L 147.247072 213.169121 
L 148.878502 215.120256 
L 150.509931 217.390582 
L 152.141361 212.709561 
L 153.772791 217.548243 
L 155.404221 214.40139 
L 157.035651 215.994699 
L 158.667081 213.286198 
L 160.298511 212.327934 
L 161.929941 209.520189 
L 163.56137 212.366126 
L 165.1928 212.080582 
L 166.82423 215.933687 
L 168.45566 215.032928 
L 170.08709 218.073213 
L 171.71852 214.712518 
L 173.34995 218.268527 
L 174.98138 215.44282 
L 176.61281 216.642537 
L 178.244239 212.067695 
L 179.875669 214.061744 
L 181.507099 215.61612 
L 183.138529 216.063112 
L 184.769959 213.351583 
L 186.401389 212.594709 
L 188.032819 215.784544 
L 189.664249 214.688809 
L 191.295678 213.239794 
L 192.927108 213.540381 
L 194.558538 215.119693 
L 196.189968 218.049226 
L 197.821398 210.938717 
L 199.452828 211.471244 
L 201.084258 209.446708 
L 202.715688 213.902656 
L 204.347117 212.843233 
L 205.978547 214.679509 
L 207.609977 213.281257 
L 209.241407 213.926172 
L 210.872837 213.283647 
L 212.504267 213.437897 
L 214.135697 209.903238 
L 215.767127 209.503358 
L 217.398556 207.81281 
L 219.029986 210.601018 
L 220.661416 206.651346 
L 222.292846 211.790204 
L 223.924276 217.593858 
L 225.555706 209.429471 
L 227.187136 208.821647 
L 228.818566 203.233872 
L 230.449995 203.203924 
L 232.081425 206.812219 
L 233.712855 205.101608 
L 235.344285 211.497296 
L 236.975715 206.385913 
L 238.607145 212.513762 
L 240.238575 210.679938 
L 241.870005 210.394772 
L 243.501434 207.358424 
L 245.132864 208.684758 
L 246.764294 208.993856 
L 248.395724 210.305957 
L 250.027154 208.59002 
L 251.658584 212.425986 
L 253.290014 209.461601 
L 254.921444 207.858216 
L 256.552873 210.344282 
L 258.184303 209.950594 
L 259.815733 209.997237 
L 261.447163 208.027622 
L 263.078593 212.890846 
L 264.710023 207.926941 
L 266.341453 213.058957 
L 267.972883 213.353462 
L 269.604312 215.657559 
L 271.235742 211.308942 
L 272.867172 210.556709 
L 274.498602 214.119944 
L 276.130032 214.773813 
L 277.761462 208.301863 
L 279.392892 209.655688 
L 281.024322 213.072193 
L 282.655751 208.090121 
L 284.287181 207.17595 
L 285.918611 209.457722 
L 287.550041 213.79447 
L 289.181471 214.313347 
L 290.812901 212.325321 
L 292.444331 209.023271 
L 294.075761 209.377164 
L 295.70719 208.835923 
L 297.33862 211.331077 
L 298.97005 214.233549 
L 300.60148 211.987312 
L 302.23291 208.382472 
L 303.86434 211.723668 
L 305.49577 208.585224 
L 307.1272 214.485067 
L 308.75863 212.468382 
L 310.390059 213.807023 
L 313.652919 206.307178 
L 315.284349 214.204161 
L 316.915779 208.778963 
L 318.547209 206.607284 
L 320.178639 203.734678 
L 321.810069 208.284313 
L 323.441498 210.716423 
L 325.072928 210.403774 
L 326.704358 209.548629 
L 328.335788 208.894735 
L 329.967218 211.337026 
L 331.598648 211.916505 
L 333.230078 208.856198 
L 334.861508 212.001929 
L 336.492937 206.296776 
L 338.124367 209.914189 
L 339.755797 210.511051 
L 341.387227 207.063886 
L 343.018657 207.84221 
L 344.650087 204.246471 
L 346.281517 215.41898 
L 347.912947 207.32519 
L 349.544376 207.106878 
L 351.175806 211.664665 
L 352.807236 204.002644 
L 354.438666 211.551849 
L 356.070096 212.932316 
L 357.701526 210.373285 
L 359.332956 212.512059 
L 360.964386 211.466953 
L 362.595815 210.165808 
L 364.227245 207.090384 
L 365.858675 210.812076 
L 367.490105 206.244096 
L 369.121535 209.002945 
L 370.752965 211.07 
L 372.384395 208.624288 
L 374.015825 210.350286 
L 375.647254 209.303844 
L 377.278684 212.920829 
L 378.910114 212.349418 
L 380.541544 207.792056 
L 382.172974 212.00311 
L 383.804404 208.201961 
L 385.435834 210.740201 
L 387.067264 209.600351 
L 388.698693 210.962532 
L 390.330123 213.177508 
L 391.961553 211.064797 
L 393.592983 214.142147 
L 395.224413 214.18415 
L 396.855843 210.586164 
L 398.487273 209.207982 
L 398.487273 209.207982 
" clip-path="url(#p17b61adf1d)" style="fill: none; stroke: #0000ff; stroke-width: 1.5; stroke-linecap: square"/>
   </g>
   <g id="line2d_30">
    <path d="M 73.832727 295.488 
L 75.464157 290.011242 
L 77.095587 280.292757 
L 78.727017 265.628929 
L 80.358447 261.12687 
L 81.989877 261.142001 
L 85.252736 269.103745 
L 86.884166 251.324721 
L 88.515596 253.5087 
L 90.147026 258.353648 
L 91.778456 250.275765 
L 93.409886 253.048643 
L 95.041316 256.649596 
L 96.672746 254.182546 
L 98.304175 262.425999 
L 99.935605 259.189952 
L 101.567035 249.097662 
L 103.198465 254.189378 
L 104.829895 255.487092 
L 108.092755 252.583137 
L 109.724185 257.143137 
L 111.355614 251.968337 
L 112.987044 259.400931 
L 114.618474 251.883504 
L 116.249904 246.129054 
L 117.881334 243.922117 
L 119.512764 251.117206 
L 121.144194 247.79971 
L 124.407053 259.539287 
L 126.038483 252.177594 
L 127.669913 253.618381 
L 129.301343 256.535371 
L 130.932773 258.529387 
L 132.564203 250.55958 
L 134.195633 252.712312 
L 135.827063 255.534102 
L 137.458492 252.256532 
L 139.089922 252.372758 
L 140.721352 256.615894 
L 142.352782 255.915671 
L 143.984212 252.99781 
L 145.615642 252.292257 
L 147.247072 249.721006 
L 148.878502 248.995994 
L 150.509931 251.771981 
L 152.141361 242.912034 
L 153.772791 251.44633 
L 155.404221 246.096309 
L 157.035651 249.950118 
L 158.667081 248.438738 
L 160.298511 246.723041 
L 161.929941 243.528441 
L 163.56137 248.946005 
L 165.1928 246.825855 
L 166.82423 249.533442 
L 168.45566 247.868523 
L 170.08709 252.699052 
L 171.71852 250.20063 
L 173.34995 260.452118 
L 174.98138 251.287725 
L 176.61281 253.54287 
L 178.244239 244.829555 
L 179.875669 247.057235 
L 181.507099 250.486501 
L 183.138529 250.152779 
L 184.769959 248.079255 
L 186.401389 243.984793 
L 188.032819 251.827974 
L 189.664249 247.418984 
L 191.295678 246.026895 
L 192.927108 245.609906 
L 194.558538 250.012397 
L 196.189968 253.279704 
L 197.821398 250.835958 
L 199.452828 251.490786 
L 201.084258 248.399728 
L 202.715688 253.058472 
L 204.347117 249.20842 
L 205.978547 255.861388 
L 207.609977 256.284669 
L 209.241407 256.323351 
L 210.872837 251.854519 
L 212.504267 254.766402 
L 214.135697 251.821215 
L 215.767127 256.18413 
L 217.398556 252.961112 
L 219.029986 258.221075 
L 220.661416 256.670739 
L 222.292846 261.812763 
L 223.924276 269.139171 
L 225.555706 256.65128 
L 227.187136 261.191374 
L 228.818566 255.330042 
L 230.449995 258.557726 
L 232.081425 259.130604 
L 233.712855 258.909903 
L 235.344285 265.357404 
L 236.975715 252.245887 
L 238.607145 261.973064 
L 240.238575 261.763646 
L 241.870005 255.909606 
L 243.501434 247.718163 
L 245.132864 249.223154 
L 246.764294 250.989139 
L 248.395724 251.323285 
L 250.027154 247.381884 
L 251.658584 253.436939 
L 253.290014 244.450763 
L 254.921444 251.078196 
L 256.552873 251.453131 
L 258.184303 246.314468 
L 259.815733 245.826094 
L 261.447163 240.440854 
L 263.078593 251.800155 
L 264.710023 242.348323 
L 266.341453 249.455149 
L 267.972883 250.71509 
L 269.604312 251.710793 
L 271.235742 248.558841 
L 272.867172 249.552529 
L 274.498602 259.331661 
L 276.130032 257.028775 
L 277.761462 249.26319 
L 279.392892 251.337172 
L 281.024322 255.591166 
L 282.655751 253.413808 
L 284.287181 254.678524 
L 285.918611 256.430614 
L 287.550041 256.641043 
L 289.181471 259.362663 
L 292.444331 248.963758 
L 294.075761 249.847589 
L 295.70719 256.658951 
L 297.33862 251.149014 
L 298.97005 256.184787 
L 300.60148 256.959539 
L 302.23291 248.710065 
L 303.86434 256.117358 
L 305.49577 251.328896 
L 307.1272 256.472274 
L 308.75863 252.175702 
L 310.390059 253.843104 
L 312.021489 252.561963 
L 313.652919 242.111664 
L 315.284349 258.56132 
L 316.915779 245.301229 
L 318.547209 248.91981 
L 320.178639 246.778036 
L 323.441498 250.413017 
L 325.072928 251.781444 
L 326.704358 248.519337 
L 328.335788 246.80593 
L 329.967218 251.74069 
L 331.598648 251.677248 
L 333.230078 249.906182 
L 334.861508 254.60752 
L 336.492937 245.321609 
L 338.124367 257.45827 
L 339.755797 257.289908 
L 341.387227 254.299966 
L 343.018657 254.837095 
L 344.650087 245.484563 
L 346.281517 260.562415 
L 347.912947 247.462392 
L 349.544376 248.178796 
L 351.175806 254.821341 
L 352.807236 252.827266 
L 354.438666 251.45593 
L 356.070096 252.847114 
L 357.701526 249.045056 
L 359.332956 251.610443 
L 360.964386 251.781306 
L 362.595815 248.861101 
L 364.227245 243.269044 
L 365.858675 253.584341 
L 367.490105 241.793212 
L 369.121535 249.668046 
L 370.752965 253.03482 
L 372.384395 250.164355 
L 374.015825 258.049606 
L 375.647254 250.08782 
L 377.278684 252.181399 
L 378.910114 251.568906 
L 380.541544 240.377987 
L 382.172974 251.535953 
L 383.804404 248.150615 
L 385.435834 247.515568 
L 387.067264 245.374211 
L 388.698693 247.177259 
L 390.330123 250.964858 
L 391.961553 248.066565 
L 393.592983 251.945019 
L 395.224413 251.164409 
L 396.855843 246.034403 
L 398.487273 241.3829 
L 398.487273 241.3829 
" clip-path="url(#p17b61adf1d)" style="fill: none; stroke-dasharray: 9.6,2.4,1.5,2.4; stroke-dashoffset: 0; stroke: #008000; stroke-width: 1.5"/>
   </g>
   <g id="line2d_31">
    <path d="M 73.832727 206.361117 
L 75.464157 206.042313 
L 77.095587 183.822887 
L 78.727017 189.010259 
L 80.358447 186.41274 
L 81.989877 182.195029 
L 83.621307 175.336608 
L 85.252736 180.981804 
L 86.884166 168.864789 
L 88.515596 169.144819 
L 90.147026 172.529613 
L 91.778456 170.035857 
L 93.409886 166.998003 
L 95.041316 170.783347 
L 96.672746 171.364446 
L 98.304175 172.511423 
L 99.935605 172.564276 
L 101.567035 176.41247 
L 103.198465 175.141346 
L 104.829895 174.721288 
L 106.461325 166.00746 
L 109.724185 168.020814 
L 111.355614 170.889722 
L 112.987044 168.468384 
L 114.618474 169.935788 
L 116.249904 178.149949 
L 117.881334 177.345439 
L 119.512764 173.046686 
L 121.144194 172.291054 
L 122.775624 169.88454 
L 124.407053 175.721018 
L 126.038483 173.170576 
L 127.669913 169.816173 
L 129.301343 176.260804 
L 130.932773 176.079709 
L 132.564203 169.48365 
L 134.195633 179.55205 
L 135.827063 174.824178 
L 137.458492 176.957465 
L 139.089922 177.416133 
L 140.721352 180.695707 
L 142.352782 180.432603 
L 143.984212 176.097344 
L 145.615642 178.832506 
L 147.247072 176.617236 
L 148.878502 181.244517 
L 150.509931 183.009182 
L 152.141361 182.507087 
L 153.772791 183.650156 
L 155.404221 182.706471 
L 157.035651 182.03928 
L 158.667081 178.133658 
L 160.298511 177.932826 
L 161.929941 175.511938 
L 163.56137 175.786248 
L 165.1928 177.335308 
L 166.82423 182.333932 
L 168.45566 182.197333 
L 170.08709 183.447373 
L 171.71852 179.224405 
L 173.34995 176.084936 
L 174.98138 179.597915 
L 176.61281 179.742205 
L 178.244239 179.305835 
L 179.875669 181.066253 
L 181.507099 180.74574 
L 183.138529 181.973445 
L 184.769959 178.62391 
L 186.401389 181.204625 
L 188.032819 179.741114 
L 189.664249 181.958635 
L 191.295678 180.452692 
L 192.927108 181.470855 
L 194.558538 180.226989 
L 196.189968 182.818748 
L 197.821398 171.041477 
L 199.452828 171.451702 
L 201.084258 170.493688 
L 202.715688 174.74684 
L 204.347117 176.478045 
L 205.978547 173.49763 
L 207.609977 170.277846 
L 209.241407 171.528993 
L 210.872837 174.712775 
L 212.504267 172.109391 
L 214.135697 167.985261 
L 215.767127 162.822586 
L 217.398556 162.664509 
L 219.029986 162.980962 
L 220.661416 156.631953 
L 222.292846 161.767646 
L 223.924276 166.048544 
L 225.555706 162.207661 
L 227.187136 156.451921 
L 228.818566 151.137702 
L 230.449995 147.850122 
L 232.081425 154.493834 
L 233.712855 151.293313 
L 235.344285 157.637188 
L 236.975715 160.525939 
L 238.607145 163.05446 
L 240.238575 159.596229 
L 241.870005 164.879938 
L 243.501434 166.998685 
L 245.132864 168.146361 
L 246.764294 166.998574 
L 248.395724 169.288629 
L 250.027154 169.798156 
L 251.658584 171.415033 
L 253.290014 174.472439 
L 254.921444 164.638236 
L 258.184303 173.586719 
L 259.815733 174.16838 
L 261.447163 175.614389 
L 263.078593 173.981538 
L 264.710023 173.505559 
L 266.341453 176.662765 
L 267.972883 175.991835 
L 269.604312 179.604325 
L 271.235742 174.059042 
L 274.498602 168.908228 
L 276.130032 172.518852 
L 277.761462 167.340536 
L 279.392892 167.974204 
L 281.024322 170.55322 
L 282.655751 162.766433 
L 284.287181 159.673375 
L 285.918611 162.48483 
L 287.550041 170.947897 
L 289.181471 169.264032 
L 290.812901 170.604114 
L 292.444331 169.082784 
L 294.075761 168.906738 
L 295.70719 161.012894 
L 297.33862 171.513141 
L 298.97005 172.282312 
L 300.60148 167.015085 
L 302.23291 168.054878 
L 303.86434 167.329979 
L 305.49577 165.841551 
L 307.1272 172.49786 
L 308.75863 172.761061 
L 310.390059 173.770941 
L 312.021489 167.757173 
L 313.652919 170.502691 
L 315.284349 169.847002 
L 316.915779 172.256697 
L 318.547209 164.294757 
L 320.178639 160.69132 
L 321.810069 168.012955 
L 323.441498 171.019829 
L 325.072928 169.026104 
L 326.704358 170.577921 
L 328.335788 170.98354 
L 329.967218 170.933362 
L 331.598648 172.155761 
L 333.230078 167.806213 
L 334.861508 169.396338 
L 336.492937 167.271943 
L 338.124367 162.370108 
L 339.755797 163.732194 
L 341.387227 159.827806 
L 343.018657 160.847324 
L 344.650087 163.00838 
L 346.281517 170.275545 
L 347.912947 167.187989 
L 349.544376 166.03496 
L 351.175806 168.507989 
L 352.807236 155.178022 
L 354.438666 171.647768 
L 356.070096 173.017518 
L 357.701526 171.701515 
L 359.332956 173.413674 
L 360.964386 171.1526 
L 362.595815 171.470514 
L 364.227245 170.911724 
L 365.858675 168.03981 
L 367.490105 170.69498 
L 369.121535 168.337845 
L 370.752965 169.105181 
L 372.384395 167.084221 
L 374.015825 162.650967 
L 375.647254 168.519867 
L 377.278684 173.660259 
L 378.910114 173.12993 
L 380.541544 175.206125 
L 382.172974 172.470268 
L 383.804404 168.253308 
L 385.435834 173.964833 
L 387.067264 173.826492 
L 388.698693 174.747804 
L 390.330123 175.390158 
L 391.961553 174.063028 
L 393.592983 176.339275 
L 395.224413 177.20389 
L 396.855843 175.137925 
L 398.487273 177.033063 
L 398.487273 177.033063 
" clip-path="url(#p17b61adf1d)" style="fill: none; stroke-dasharray: 9.6,2.4,1.5,2.4; stroke-dashoffset: 0; stroke: #008000; stroke-width: 1.5"/>
   </g>
   <g id="line2d_32">
    <path d="M 73.832727 54.023054 
L 263.078593 54.023054 
L 264.710023 53.568 
L 398.487273 53.568 
L 398.487273 53.568 
" clip-path="url(#p17b61adf1d)" style="fill: none; stroke: #ff0000; stroke-width: 1.5; stroke-linecap: square"/>
   </g>
   <g id="patch_3">
    <path d="M 57.6 307.584 
L 57.6 41.472 
" style="fill: none; stroke: #000000; stroke-width: 0.8; stroke-linejoin: miter; stroke-linecap: square"/>
   </g>
   <g id="patch_4">
    <path d="M 414.72 307.584 
L 414.72 41.472 
" style="fill: none; stroke: #000000; stroke-width: 0.8; stroke-linejoin: miter; stroke-linecap: square"/>
   </g>
   <g id="patch_5">
    <path d="M 57.6 307.584 
L 414.72 307.584 
" style="fill: none; stroke: #000000; stroke-width: 0.8; stroke-linejoin: miter; stroke-linecap: square"/>
   </g>
   <g id="patch_6">
    <path d="M 57.6 41.472 
L 414.72 41.472 
" style="fill: none; stroke: #000000; stroke-width: 0.8; stroke-linejoin: miter; stroke-linecap: square"/>
   </g>
   <g id="text_17">
    <!-- Population's average and best fitness -->
    <g transform="translate(123.529687 35.472) scale(0.12 -0.12)">
     <defs>
      <path id="DejaVuSans-50" d="M 1259 4147 
L 1259 2394 
L 2053 2394 
Q 2494 2394 2734 2622 
Q 2975 2850 2975 3272 
Q 2975 3691 2734 3919 
Q 2494 4147 2053 4147 
L 1259 4147 
z
M 628 4666 
L 2053 4666 
Q 2838 4666 3239 4311 
Q 3641 3956 3641 3272 
Q 3641 2581 3239 2228 
Q 2838 1875 2053 1875 
L 1259 1875 
L 1259 0 
L 628 0 
L 628 4666 
z
" transform="scale(0.015625)"/>
      <path id="DejaVuSans-70" d="M 1159 525 
L 1159 -1331 
L 581 -1331 
L 581 3500 
L 1159 3500 
L 1159 2969 
Q 1341 3281 1617 3432 
Q 1894 3584 2278 3584 
Q 2916 3584 3314 3078 
Q 3713 2572 3713 1747 
Q 3713 922 3314 415 
Q 2916 -91 2278 -91 
Q 1894 -91 1617 61 
Q 1341 213 1159 525 
z
M 3116 1747 
Q 3116 2381 2855 2742 
Q 2594 3103 2138 3103 
Q 1681 3103 1420 2742 
Q 1159 2381 1159 1747 
Q 1159 1113 1420 752 
Q 1681 391 2138 391 
Q 2594 391 2855 752 
Q 3116 1113 3116 1747 
z
" transform="scale(0.015625)"/>
      <path id="DejaVuSans-75" d="M 544 1381 
L 544 3500 
L 1119 3500 
L 1119 1403 
Q 1119 906 1312 657 
Q 1506 409 1894 409 
Q 2359 409 2629 706 
Q 2900 1003 2900 1516 
L 2900 3500 
L 3475 3500 
L 3475 0 
L 2900 0 
L 2900 538 
Q 2691 219 2414 64 
Q 2138 -91 1772 -91 
Q 1169 -91 856 284 
Q 544 659 544 1381 
z
M 1991 3584 
L 1991 3584 
z
" transform="scale(0.015625)"/>
      <path id="DejaVuSans-6c" d="M 603 4863 
L 1178 4863 
L 1178 0 
L 603 0 
L 603 4863 
z
" transform="scale(0.015625)"/>
      <path id="DejaVuSans-27" d="M 1147 4666 
L 1147 2931 
L 616 2931 
L 616 4666 
L 1147 4666 
z
" transform="scale(0.015625)"/>
      <path id="DejaVuSans-20" transform="scale(0.015625)"/>
      <path id="DejaVuSans-76" d="M 191 3500 
L 800 3500 
L 1894 563 
L 2988 3500 
L 3597 3500 
L 2284 0 
L 1503 0 
L 191 3500 
z
" transform="scale(0.015625)"/>
      <path id="DejaVuSans-67" d="M 2906 1791 
Q 2906 2416 2648 2759 
Q 2391 3103 1925 3103 
Q 1463 3103 1205 2759 
Q 947 2416 947 1791 
Q 947 1169 1205 825 
Q 1463 481 1925 481 
Q 2391 481 2648 825 
Q 2906 1169 2906 1791 
z
M 3481 434 
Q 3481 -459 3084 -895 
Q 2688 -1331 1869 -1331 
Q 1566 -1331 1297 -1286 
Q 1028 -1241 775 -1147 
L 775 -588 
Q 1028 -725 1275 -790 
Q 1522 -856 1778 -856 
Q 2344 -856 2625 -561 
Q 2906 -266 2906 331 
L 2906 616 
Q 2728 306 2450 153 
Q 2172 0 1784 0 
Q 1141 0 747 490 
Q 353 981 353 1791 
Q 353 2603 747 3093 
Q 1141 3584 1784 3584 
Q 2172 3584 2450 3431 
Q 2728 3278 2906 2969 
L 2906 3500 
L 3481 3500 
L 3481 434 
z
" transform="scale(0.015625)"/>
      <path id="DejaVuSans-64" d="M 2906 2969 
L 2906 4863 
L 3481 4863 
L 3481 0 
L 2906 0 
L 2906 525 
Q 2725 213 2448 61 
Q 2172 -91 1784 -91 
Q 1150 -91 751 415 
Q 353 922 353 1747 
Q 353 2572 751 3078 
Q 1150 3584 1784 3584 
Q 2172 3584 2448 3432 
Q 2725 3281 2906 2969 
z
M 947 1747 
Q 947 1113 1208 752 
Q 1469 391 1925 391 
Q 2381 391 2643 752 
Q 2906 1113 2906 1747 
Q 2906 2381 2643 2742 
Q 2381 3103 1925 3103 
Q 1469 3103 1208 2742 
Q 947 2381 947 1747 
z
" transform="scale(0.015625)"/>
      <path id="DejaVuSans-62" d="M 3116 1747 
Q 3116 2381 2855 2742 
Q 2594 3103 2138 3103 
Q 1681 3103 1420 2742 
Q 1159 2381 1159 1747 
Q 1159 1113 1420 752 
Q 1681 391 2138 391 
Q 2594 391 2855 752 
Q 3116 1113 3116 1747 
z
M 1159 2969 
Q 1341 3281 1617 3432 
Q 1894 3584 2278 3584 
Q 2916 3584 3314 3078 
Q 3713 2572 3713 1747 
Q 3713 922 3314 415 
Q 2916 -91 2278 -91 
Q 1894 -91 1617 61 
Q 1341 213 1159 525 
L 1159 0 
L 581 0 
L 581 4863 
L 1159 4863 
L 1159 2969 
z
" transform="scale(0.015625)"/>
      <path id="DejaVuSans-66" d="M 2375 4863 
L 2375 4384 
L 1825 4384 
Q 1516 4384 1395 4259 
Q 1275 4134 1275 3809 
L 1275 3500 
L 2222 3500 
L 2222 3053 
L 1275 3053 
L 1275 0 
L 697 0 
L 697 3053 
L 147 3053 
L 147 3500 
L 697 3500 
L 697 3744 
Q 697 4328 969 4595 
Q 1241 4863 1831 4863 
L 2375 4863 
z
" transform="scale(0.015625)"/>
     </defs>
     <use xlink:href="#DejaVuSans-50"/>
     <use xlink:href="#DejaVuSans-6f" x="56.677734"/>
     <use xlink:href="#DejaVuSans-70" x="117.859375"/>
     <use xlink:href="#DejaVuSans-75" x="181.335938"/>
     <use xlink:href="#DejaVuSans-6c" x="244.714844"/>
     <use xlink:href="#DejaVuSans-61" x="272.498047"/>
     <use xlink:href="#DejaVuSans-74" x="333.777344"/>
     <use xlink:href="#DejaVuSans-69" x="372.986328"/>
     <use xlink:href="#DejaVuSans-6f" x="400.769531"/>
     <use xlink:href="#DejaVuSans-6e" x="461.951172"/>
     <use xlink:href="#DejaVuSans-27" x="525.330078"/>
     <use xlink:href="#DejaVuSans-73" x="552.820312"/>
     <use xlink:href="#DejaVuSans-20" x="604.919922"/>
     <use xlink:href="#DejaVuSans-61" x="636.707031"/>
     <use xlink:href="#DejaVuSans-76" x="697.986328"/>
     <use xlink:href="#DejaVuSans-65" x="757.166016"/>
     <use xlink:href="#DejaVuSans-72" x="818.689453"/>
     <use xlink:href="#DejaVuSans-61" x="859.802734"/>
     <use xlink:href="#DejaVuSans-67" x="921.082031"/>
     <use xlink:href="#DejaVuSans-65" x="984.558594"/>
     <use xlink:href="#DejaVuSans-20" x="1046.082031"/>
     <use xlink:href="#DejaVuSans-61" x="1077.869141"/>
     <use xlink:href="#DejaVuSans-6e" x="1139.148438"/>
     <use xlink:href="#DejaVuSans-64" x="1202.527344"/>
     <use xlink:href="#DejaVuSans-20" x="1266.003906"/>
     <use xlink:href="#DejaVuSans-62" x="1297.791016"/>
     <use xlink:href="#DejaVuSans-65" x="1361.267578"/>
     <use xlink:href="#DejaVuSans-73" x="1422.791016"/>
     <use xlink:href="#DejaVuSans-74" x="1474.890625"/>
     <use xlink:href="#DejaVuSans-20" x="1514.099609"/>
     <use xlink:href="#DejaVuSans-66" x="1545.886719"/>
     <use xlink:href="#DejaVuSans-69" x="1581.091797"/>
     <use xlink:href="#DejaVuSans-74" x="1608.875"/>
     <use xlink:href="#DejaVuSans-6e" x="1648.083984"/>
     <use xlink:href="#DejaVuSans-65" x="1711.462891"/>
     <use xlink:href="#DejaVuSans-73" x="1772.986328"/>
     <use xlink:href="#DejaVuSans-73" x="1825.085938"/>
    </g>
   </g>
   <g id="legend_1">
    <g id="patch_7">
     <path d="M 64.6 205.38425 
L 137.540625 205.38425 
Q 139.540625 205.38425 139.540625 203.38425 
L 139.540625 145.67175 
Q 139.540625 143.67175 137.540625 143.67175 
L 64.6 143.67175 
Q 62.6 143.67175 62.6 145.67175 
L 62.6 203.38425 
Q 62.6 205.38425 64.6 205.38425 
z
" style="fill: #ffffff; opacity: 0.8; stroke: #cccccc; stroke-linejoin: miter"/>
    </g>
    <g id="line2d_33">
     <path d="M 66.6 151.770188 
L 76.6 151.770188 
L 86.6 151.770188 
" style="fill: none; stroke: #0000ff; stroke-width: 1.5; stroke-linecap: square"/>
    </g>
    <g id="text_18">
     <!-- average -->
     <g transform="translate(94.6 155.270188) scale(0.1 -0.1)">
      <use xlink:href="#DejaVuSans-61"/>
      <use xlink:href="#DejaVuSans-76" x="61.279297"/>
      <use xlink:href="#DejaVuSans-65" x="120.458984"/>
      <use xlink:href="#DejaVuSans-72" x="181.982422"/>
      <use xlink:href="#DejaVuSans-61" x="223.095703"/>
      <use xlink:href="#DejaVuSans-67" x="284.375"/>
      <use xlink:href="#DejaVuSans-65" x="347.851562"/>
     </g>
    </g>
    <g id="line2d_34">
     <path d="M 66.6 166.448313 
L 76.6 166.448313 
L 86.6 166.448313 
" style="fill: none; stroke-dasharray: 9.6,2.4,1.5,2.4; stroke-dashoffset: 0; stroke: #008000; stroke-width: 1.5"/>
    </g>
    <g id="text_19">
     <!-- -1 sd -->
     <g transform="translate(94.6 169.948313) scale(0.1 -0.1)">
      <defs>
       <path id="DejaVuSans-2d" d="M 313 2009 
L 1997 2009 
L 1997 1497 
L 313 1497 
L 313 2009 
z
" transform="scale(0.015625)"/>
      </defs>
      <use xlink:href="#DejaVuSans-2d"/>
      <use xlink:href="#DejaVuSans-31" x="36.083984"/>
      <use xlink:href="#DejaVuSans-20" x="99.707031"/>
      <use xlink:href="#DejaVuSans-73" x="131.494141"/>
      <use xlink:href="#DejaVuSans-64" x="183.59375"/>
     </g>
    </g>
    <g id="line2d_35">
     <path d="M 66.6 181.126438 
L 76.6 181.126438 
L 86.6 181.126438 
" style="fill: none; stroke-dasharray: 9.6,2.4,1.5,2.4; stroke-dashoffset: 0; stroke: #008000; stroke-width: 1.5"/>
    </g>
    <g id="text_20">
     <!-- +1 sd -->
     <g transform="translate(94.6 184.626438) scale(0.1 -0.1)">
      <defs>
       <path id="DejaVuSans-2b" d="M 2944 4013 
L 2944 2272 
L 4684 2272 
L 4684 1741 
L 2944 1741 
L 2944 0 
L 2419 0 
L 2419 1741 
L 678 1741 
L 678 2272 
L 2419 2272 
L 2419 4013 
L 2944 4013 
z
" transform="scale(0.015625)"/>
      </defs>
      <use xlink:href="#DejaVuSans-2b"/>
      <use xlink:href="#DejaVuSans-31" x="83.789062"/>
      <use xlink:href="#DejaVuSans-20" x="147.412109"/>
      <use xlink:href="#DejaVuSans-73" x="179.199219"/>
      <use xlink:href="#DejaVuSans-64" x="231.298828"/>
     </g>
    </g>
    <g id="line2d_36">
     <path d="M 66.6 195.804563 
L 76.6 195.804563 
L 86.6 195.804563 
" style="fill: none; stroke: #ff0000; stroke-width: 1.5; stroke-linecap: square"/>
    </g>
    <g id="text_21">
     <!-- best -->
     <g transform="translate(94.6 199.304563) scale(0.1 -0.1)">
      <use xlink:href="#DejaVuSans-62"/>
      <use xlink:href="#DejaVuSans-65" x="63.476562"/>
      <use xlink:href="#DejaVuSans-73" x="125"/>
      <use xlink:href="#DejaVuSans-74" x="177.099609"/>
     </g>
    </g>
   </g>
  </g>
 </g>
 <defs>
  <clipPath id="p17b61adf1d">
   <rect x="57.6" y="41.472" width="357.12" height="266.112"/>
  </clipPath>
 </defs>
</svg>
