<?xml version="1.0" encoding="utf-8" standalone="no"?>
<!DOCTYPE svg PUBLIC "-//W3C//DTD SVG 1.1//EN"
  "http://www.w3.org/Graphics/SVG/1.1/DTD/svg11.dtd">
<svg xmlns:xlink="http://www.w3.org/1999/xlink" width="460.8pt" height="345.6pt" viewBox="0 0 460.8 345.6" xmlns="http://www.w3.org/2000/svg" version="1.1">
 <metadata>
  <rdf:RDF xmlns:dc="http://purl.org/dc/elements/1.1/" xmlns:cc="http://creativecommons.org/ns#" xmlns:rdf="http://www.w3.org/1999/02/22-rdf-syntax-ns#">
   <cc:Work>
    <dc:type rdf:resource="http://purl.org/dc/dcmitype/StillImage"/>
    <dc:date>2024-08-06T00:42:02.176764</dc:date>
    <dc:format>image/svg+xml</dc:format>
    <dc:creator>
     <cc:Agent>
      <dc:title>Matplotlib v3.8.4, https://matplotlib.org/</dc:title>
     </cc:Agent>
    </dc:creator>
   </cc:Work>
  </rdf:RDF>
 </metadata>
 <defs>
  <style type="text/css">*{stroke-linejoin: round; stroke-linecap: butt}</style>
 </defs>
 <g id="figure_1">
  <g id="patch_1">
   <path d="M 0 345.6 
L 460.8 345.6 
L 460.8 0 
L 0 0 
z
" style="fill: #ffffff"/>
  </g>
  <g id="axes_1">
   <g id="patch_2">
    <path d="M 57.6 307.584 
L 414.72 307.584 
L 414.72 41.472 
L 57.6 41.472 
z
" style="fill: #ffffff"/>
   </g>
   <g id="matplotlib.axis_1">
    <g id="xtick_1">
     <g id="line2d_1">
      <path d="M 73.832727 307.584 
L 73.832727 41.472 
" clip-path="url(#pf80113de70)" style="fill: none; stroke: #b0b0b0; stroke-width: 0.8; stroke-linecap: square"/>
     </g>
     <g id="line2d_2">
      <defs>
       <path id="mad1bf2e771" d="M 0 0 
L 0 3.5 
" style="stroke: #000000; stroke-width: 0.8"/>
      </defs>
      <g>
       <use xlink:href="#mad1bf2e771" x="73.832727" y="307.584" style="stroke: #000000; stroke-width: 0.8"/>
      </g>
     </g>
     <g id="text_1">
      <!-- 0 -->
      <g transform="translate(70.651477 322.182437) scale(0.1 -0.1)">
       <defs>
        <path id="DejaVuSans-30" d="M 2034 4250 
Q 1547 4250 1301 3770 
Q 1056 3291 1056 2328 
Q 1056 1369 1301 889 
Q 1547 409 2034 409 
Q 2525 409 2770 889 
Q 3016 1369 3016 2328 
Q 3016 3291 2770 3770 
Q 2525 4250 2034 4250 
z
M 2034 4750 
Q 2819 4750 3233 4129 
Q 3647 3509 3647 2328 
Q 3647 1150 3233 529 
Q 2819 -91 2034 -91 
Q 1250 -91 836 529 
Q 422 1150 422 2328 
Q 422 3509 836 4129 
Q 1250 4750 2034 4750 
z
" transform="scale(0.015625)"/>
       </defs>
       <use xlink:href="#DejaVuSans-30"/>
      </g>
     </g>
    </g>
    <g id="xtick_2">
     <g id="line2d_3">
      <path d="M 114.618474 307.584 
L 114.618474 41.472 
" clip-path="url(#pf80113de70)" style="fill: none; stroke: #b0b0b0; stroke-width: 0.8; stroke-linecap: square"/>
     </g>
     <g id="line2d_4">
      <g>
       <use xlink:href="#mad1bf2e771" x="114.618474" y="307.584" style="stroke: #000000; stroke-width: 0.8"/>
      </g>
     </g>
     <g id="text_2">
      <!-- 25 -->
      <g transform="translate(108.255974 322.182437) scale(0.1 -0.1)">
       <defs>
        <path id="DejaVuSans-32" d="M 1228 531 
L 3431 531 
L 3431 0 
L 469 0 
L 469 531 
Q 828 903 1448 1529 
Q 2069 2156 2228 2338 
Q 2531 2678 2651 2914 
Q 2772 3150 2772 3378 
Q 2772 3750 2511 3984 
Q 2250 4219 1831 4219 
Q 1534 4219 1204 4116 
Q 875 4013 500 3803 
L 500 4441 
Q 881 4594 1212 4672 
Q 1544 4750 1819 4750 
Q 2544 4750 2975 4387 
Q 3406 4025 3406 3419 
Q 3406 3131 3298 2873 
Q 3191 2616 2906 2266 
Q 2828 2175 2409 1742 
Q 1991 1309 1228 531 
z
" transform="scale(0.015625)"/>
        <path id="DejaVuSans-35" d="M 691 4666 
L 3169 4666 
L 3169 4134 
L 1269 4134 
L 1269 2991 
Q 1406 3038 1543 3061 
Q 1681 3084 1819 3084 
Q 2600 3084 3056 2656 
Q 3513 2228 3513 1497 
Q 3513 744 3044 326 
Q 2575 -91 1722 -91 
Q 1428 -91 1123 -41 
Q 819 9 494 109 
L 494 744 
Q 775 591 1075 516 
Q 1375 441 1709 441 
Q 2250 441 2565 725 
Q 2881 1009 2881 1497 
Q 2881 1984 2565 2268 
Q 2250 2553 1709 2553 
Q 1456 2553 1204 2497 
Q 953 2441 691 2322 
L 691 4666 
z
" transform="scale(0.015625)"/>
       </defs>
       <use xlink:href="#DejaVuSans-32"/>
       <use xlink:href="#DejaVuSans-35" x="63.623047"/>
      </g>
     </g>
    </g>
    <g id="xtick_3">
     <g id="line2d_5">
      <path d="M 155.404221 307.584 
L 155.404221 41.472 
" clip-path="url(#pf80113de70)" style="fill: none; stroke: #b0b0b0; stroke-width: 0.8; stroke-linecap: square"/>
     </g>
     <g id="line2d_6">
      <g>
       <use xlink:href="#mad1bf2e771" x="155.404221" y="307.584" style="stroke: #000000; stroke-width: 0.8"/>
      </g>
     </g>
     <g id="text_3">
      <!-- 50 -->
      <g transform="translate(149.041721 322.182437) scale(0.1 -0.1)">
       <use xlink:href="#DejaVuSans-35"/>
       <use xlink:href="#DejaVuSans-30" x="63.623047"/>
      </g>
     </g>
    </g>
    <g id="xtick_4">
     <g id="line2d_7">
      <path d="M 196.189968 307.584 
L 196.189968 41.472 
" clip-path="url(#pf80113de70)" style="fill: none; stroke: #b0b0b0; stroke-width: 0.8; stroke-linecap: square"/>
     </g>
     <g id="line2d_8">
      <g>
       <use xlink:href="#mad1bf2e771" x="196.189968" y="307.584" style="stroke: #000000; stroke-width: 0.8"/>
      </g>
     </g>
     <g id="text_4">
      <!-- 75 -->
      <g transform="translate(189.827468 322.182437) scale(0.1 -0.1)">
       <defs>
        <path id="DejaVuSans-37" d="M 525 4666 
L 3525 4666 
L 3525 4397 
L 1831 0 
L 1172 0 
L 2766 4134 
L 525 4134 
L 525 4666 
z
" transform="scale(0.015625)"/>
       </defs>
       <use xlink:href="#DejaVuSans-37"/>
       <use xlink:href="#DejaVuSans-35" x="63.623047"/>
      </g>
     </g>
    </g>
    <g id="xtick_5">
     <g id="line2d_9">
      <path d="M 236.975715 307.584 
L 236.975715 41.472 
" clip-path="url(#pf80113de70)" style="fill: none; stroke: #b0b0b0; stroke-width: 0.8; stroke-linecap: square"/>
     </g>
     <g id="line2d_10">
      <g>
       <use xlink:href="#mad1bf2e771" x="236.975715" y="307.584" style="stroke: #000000; stroke-width: 0.8"/>
      </g>
     </g>
     <g id="text_5">
      <!-- 100 -->
      <g transform="translate(227.431965 322.182437) scale(0.1 -0.1)">
       <defs>
        <path id="DejaVuSans-31" d="M 794 531 
L 1825 531 
L 1825 4091 
L 703 3866 
L 703 4441 
L 1819 4666 
L 2450 4666 
L 2450 531 
L 3481 531 
L 3481 0 
L 794 0 
L 794 531 
z
" transform="scale(0.015625)"/>
       </defs>
       <use xlink:href="#DejaVuSans-31"/>
       <use xlink:href="#DejaVuSans-30" x="63.623047"/>
       <use xlink:href="#DejaVuSans-30" x="127.246094"/>
      </g>
     </g>
    </g>
    <g id="xtick_6">
     <g id="line2d_11">
      <path d="M 277.761462 307.584 
L 277.761462 41.472 
" clip-path="url(#pf80113de70)" style="fill: none; stroke: #b0b0b0; stroke-width: 0.8; stroke-linecap: square"/>
     </g>
     <g id="line2d_12">
      <g>
       <use xlink:href="#mad1bf2e771" x="277.761462" y="307.584" style="stroke: #000000; stroke-width: 0.8"/>
      </g>
     </g>
     <g id="text_6">
      <!-- 125 -->
      <g transform="translate(268.217712 322.182437) scale(0.1 -0.1)">
       <use xlink:href="#DejaVuSans-31"/>
       <use xlink:href="#DejaVuSans-32" x="63.623047"/>
       <use xlink:href="#DejaVuSans-35" x="127.246094"/>
      </g>
     </g>
    </g>
    <g id="xtick_7">
     <g id="line2d_13">
      <path d="M 318.547209 307.584 
L 318.547209 41.472 
" clip-path="url(#pf80113de70)" style="fill: none; stroke: #b0b0b0; stroke-width: 0.8; stroke-linecap: square"/>
     </g>
     <g id="line2d_14">
      <g>
       <use xlink:href="#mad1bf2e771" x="318.547209" y="307.584" style="stroke: #000000; stroke-width: 0.8"/>
      </g>
     </g>
     <g id="text_7">
      <!-- 150 -->
      <g transform="translate(309.003459 322.182437) scale(0.1 -0.1)">
       <use xlink:href="#DejaVuSans-31"/>
       <use xlink:href="#DejaVuSans-35" x="63.623047"/>
       <use xlink:href="#DejaVuSans-30" x="127.246094"/>
      </g>
     </g>
    </g>
    <g id="xtick_8">
     <g id="line2d_15">
      <path d="M 359.332956 307.584 
L 359.332956 41.472 
" clip-path="url(#pf80113de70)" style="fill: none; stroke: #b0b0b0; stroke-width: 0.8; stroke-linecap: square"/>
     </g>
     <g id="line2d_16">
      <g>
       <use xlink:href="#mad1bf2e771" x="359.332956" y="307.584" style="stroke: #000000; stroke-width: 0.8"/>
      </g>
     </g>
     <g id="text_8">
      <!-- 175 -->
      <g transform="translate(349.789206 322.182437) scale(0.1 -0.1)">
       <use xlink:href="#DejaVuSans-31"/>
       <use xlink:href="#DejaVuSans-37" x="63.623047"/>
       <use xlink:href="#DejaVuSans-35" x="127.246094"/>
      </g>
     </g>
    </g>
    <g id="xtick_9">
     <g id="line2d_17">
      <path d="M 400.118703 307.584 
L 400.118703 41.472 
" clip-path="url(#pf80113de70)" style="fill: none; stroke: #b0b0b0; stroke-width: 0.8; stroke-linecap: square"/>
     </g>
     <g id="line2d_18">
      <g>
       <use xlink:href="#mad1bf2e771" x="400.118703" y="307.584" style="stroke: #000000; stroke-width: 0.8"/>
      </g>
     </g>
     <g id="text_9">
      <!-- 200 -->
      <g transform="translate(390.574953 322.182437) scale(0.1 -0.1)">
       <use xlink:href="#DejaVuSans-32"/>
       <use xlink:href="#DejaVuSans-30" x="63.623047"/>
       <use xlink:href="#DejaVuSans-30" x="127.246094"/>
      </g>
     </g>
    </g>
    <g id="text_10">
     <!-- Generations -->
     <g transform="translate(205.662344 335.860562) scale(0.1 -0.1)">
      <defs>
       <path id="DejaVuSans-47" d="M 3809 666 
L 3809 1919 
L 2778 1919 
L 2778 2438 
L 4434 2438 
L 4434 434 
Q 4069 175 3628 42 
Q 3188 -91 2688 -91 
Q 1594 -91 976 548 
Q 359 1188 359 2328 
Q 359 3472 976 4111 
Q 1594 4750 2688 4750 
Q 3144 4750 3555 4637 
Q 3966 4525 4313 4306 
L 4313 3634 
Q 3963 3931 3569 4081 
Q 3175 4231 2741 4231 
Q 1884 4231 1454 3753 
Q 1025 3275 1025 2328 
Q 1025 1384 1454 906 
Q 1884 428 2741 428 
Q 3075 428 3337 486 
Q 3600 544 3809 666 
z
" transform="scale(0.015625)"/>
       <path id="DejaVuSans-65" d="M 3597 1894 
L 3597 1613 
L 953 1613 
Q 991 1019 1311 708 
Q 1631 397 2203 397 
Q 2534 397 2845 478 
Q 3156 559 3463 722 
L 3463 178 
Q 3153 47 2828 -22 
Q 2503 -91 2169 -91 
Q 1331 -91 842 396 
Q 353 884 353 1716 
Q 353 2575 817 3079 
Q 1281 3584 2069 3584 
Q 2775 3584 3186 3129 
Q 3597 2675 3597 1894 
z
M 3022 2063 
Q 3016 2534 2758 2815 
Q 2500 3097 2075 3097 
Q 1594 3097 1305 2825 
Q 1016 2553 972 2059 
L 3022 2063 
z
" transform="scale(0.015625)"/>
       <path id="DejaVuSans-6e" d="M 3513 2113 
L 3513 0 
L 2938 0 
L 2938 2094 
Q 2938 2591 2744 2837 
Q 2550 3084 2163 3084 
Q 1697 3084 1428 2787 
Q 1159 2491 1159 1978 
L 1159 0 
L 581 0 
L 581 3500 
L 1159 3500 
L 1159 2956 
Q 1366 3272 1645 3428 
Q 1925 3584 2291 3584 
Q 2894 3584 3203 3211 
Q 3513 2838 3513 2113 
z
" transform="scale(0.015625)"/>
       <path id="DejaVuSans-72" d="M 2631 2963 
Q 2534 3019 2420 3045 
Q 2306 3072 2169 3072 
Q 1681 3072 1420 2755 
Q 1159 2438 1159 1844 
L 1159 0 
L 581 0 
L 581 3500 
L 1159 3500 
L 1159 2956 
Q 1341 3275 1631 3429 
Q 1922 3584 2338 3584 
Q 2397 3584 2469 3576 
Q 2541 3569 2628 3553 
L 2631 2963 
z
" transform="scale(0.015625)"/>
       <path id="DejaVuSans-61" d="M 2194 1759 
Q 1497 1759 1228 1600 
Q 959 1441 959 1056 
Q 959 750 1161 570 
Q 1363 391 1709 391 
Q 2188 391 2477 730 
Q 2766 1069 2766 1631 
L 2766 1759 
L 2194 1759 
z
M 3341 1997 
L 3341 0 
L 2766 0 
L 2766 531 
Q 2569 213 2275 61 
Q 1981 -91 1556 -91 
Q 1019 -91 701 211 
Q 384 513 384 1019 
Q 384 1609 779 1909 
Q 1175 2209 1959 2209 
L 2766 2209 
L 2766 2266 
Q 2766 2663 2505 2880 
Q 2244 3097 1772 3097 
Q 1472 3097 1187 3025 
Q 903 2953 641 2809 
L 641 3341 
Q 956 3463 1253 3523 
Q 1550 3584 1831 3584 
Q 2591 3584 2966 3190 
Q 3341 2797 3341 1997 
z
" transform="scale(0.015625)"/>
       <path id="DejaVuSans-74" d="M 1172 4494 
L 1172 3500 
L 2356 3500 
L 2356 3053 
L 1172 3053 
L 1172 1153 
Q 1172 725 1289 603 
Q 1406 481 1766 481 
L 2356 481 
L 2356 0 
L 1766 0 
Q 1100 0 847 248 
Q 594 497 594 1153 
L 594 3053 
L 172 3053 
L 172 3500 
L 594 3500 
L 594 4494 
L 1172 4494 
z
" transform="scale(0.015625)"/>
       <path id="DejaVuSans-69" d="M 603 3500 
L 1178 3500 
L 1178 0 
L 603 0 
L 603 3500 
z
M 603 4863 
L 1178 4863 
L 1178 4134 
L 603 4134 
L 603 4863 
z
" transform="scale(0.015625)"/>
       <path id="DejaVuSans-6f" d="M 1959 3097 
Q 1497 3097 1228 2736 
Q 959 2375 959 1747 
Q 959 1119 1226 758 
Q 1494 397 1959 397 
Q 2419 397 2687 759 
Q 2956 1122 2956 1747 
Q 2956 2369 2687 2733 
Q 2419 3097 1959 3097 
z
M 1959 3584 
Q 2709 3584 3137 3096 
Q 3566 2609 3566 1747 
Q 3566 888 3137 398 
Q 2709 -91 1959 -91 
Q 1206 -91 779 398 
Q 353 888 353 1747 
Q 353 2609 779 3096 
Q 1206 3584 1959 3584 
z
" transform="scale(0.015625)"/>
       <path id="DejaVuSans-73" d="M 2834 3397 
L 2834 2853 
Q 2591 2978 2328 3040 
Q 2066 3103 1784 3103 
Q 1356 3103 1142 2972 
Q 928 2841 928 2578 
Q 928 2378 1081 2264 
Q 1234 2150 1697 2047 
L 1894 2003 
Q 2506 1872 2764 1633 
Q 3022 1394 3022 966 
Q 3022 478 2636 193 
Q 2250 -91 1575 -91 
Q 1294 -91 989 -36 
Q 684 19 347 128 
L 347 722 
Q 666 556 975 473 
Q 1284 391 1588 391 
Q 1994 391 2212 530 
Q 2431 669 2431 922 
Q 2431 1156 2273 1281 
Q 2116 1406 1581 1522 
L 1381 1569 
Q 847 1681 609 1914 
Q 372 2147 372 2553 
Q 372 3047 722 3315 
Q 1072 3584 1716 3584 
Q 2034 3584 2315 3537 
Q 2597 3491 2834 3397 
z
" transform="scale(0.015625)"/>
      </defs>
      <use xlink:href="#DejaVuSans-47"/>
      <use xlink:href="#DejaVuSans-65" x="77.490234"/>
      <use xlink:href="#DejaVuSans-6e" x="139.013672"/>
      <use xlink:href="#DejaVuSans-65" x="202.392578"/>
      <use xlink:href="#DejaVuSans-72" x="263.916016"/>
      <use xlink:href="#DejaVuSans-61" x="305.029297"/>
      <use xlink:href="#DejaVuSans-74" x="366.308594"/>
      <use xlink:href="#DejaVuSans-69" x="405.517578"/>
      <use xlink:href="#DejaVuSans-6f" x="433.300781"/>
      <use xlink:href="#DejaVuSans-6e" x="494.482422"/>
      <use xlink:href="#DejaVuSans-73" x="557.861328"/>
     </g>
    </g>
   </g>
   <g id="matplotlib.axis_2">
    <g id="ytick_1">
     <g id="line2d_19">
      <path d="M 57.6 302.989821 
L 414.72 302.989821 
" clip-path="url(#pf80113de70)" style="fill: none; stroke: #b0b0b0; stroke-width: 0.8; stroke-linecap: square"/>
     </g>
     <g id="line2d_20">
      <defs>
       <path id="mc4b0da8a00" d="M 0 0 
L -3.5 0 
" style="stroke: #000000; stroke-width: 0.8"/>
      </defs>
      <g>
       <use xlink:href="#mc4b0da8a00" x="57.6" y="302.989821" style="stroke: #000000; stroke-width: 0.8"/>
      </g>
     </g>
     <g id="text_11">
      <!-- −2250 -->
      <g transform="translate(16.770313 306.78904) scale(0.1 -0.1)">
       <defs>
        <path id="DejaVuSans-2212" d="M 678 2272 
L 4684 2272 
L 4684 1741 
L 678 1741 
L 678 2272 
z
" transform="scale(0.015625)"/>
       </defs>
       <use xlink:href="#DejaVuSans-2212"/>
       <use xlink:href="#DejaVuSans-32" x="83.789062"/>
       <use xlink:href="#DejaVuSans-32" x="147.412109"/>
       <use xlink:href="#DejaVuSans-35" x="211.035156"/>
       <use xlink:href="#DejaVuSans-30" x="274.658203"/>
      </g>
     </g>
    </g>
    <g id="ytick_2">
     <g id="line2d_21">
      <path d="M 57.6 270.619369 
L 414.72 270.619369 
" clip-path="url(#pf80113de70)" style="fill: none; stroke: #b0b0b0; stroke-width: 0.8; stroke-linecap: square"/>
     </g>
     <g id="line2d_22">
      <g>
       <use xlink:href="#mc4b0da8a00" x="57.6" y="270.619369" style="stroke: #000000; stroke-width: 0.8"/>
      </g>
     </g>
     <g id="text_12">
      <!-- −2000 -->
      <g transform="translate(16.770313 274.418587) scale(0.1 -0.1)">
       <use xlink:href="#DejaVuSans-2212"/>
       <use xlink:href="#DejaVuSans-32" x="83.789062"/>
       <use xlink:href="#DejaVuSans-30" x="147.412109"/>
       <use xlink:href="#DejaVuSans-30" x="211.035156"/>
       <use xlink:href="#DejaVuSans-30" x="274.658203"/>
      </g>
     </g>
    </g>
    <g id="ytick_3">
     <g id="line2d_23">
      <path d="M 57.6 238.248916 
L 414.72 238.248916 
" clip-path="url(#pf80113de70)" style="fill: none; stroke: #b0b0b0; stroke-width: 0.8; stroke-linecap: square"/>
     </g>
     <g id="line2d_24">
      <g>
       <use xlink:href="#mc4b0da8a00" x="57.6" y="238.248916" style="stroke: #000000; stroke-width: 0.8"/>
      </g>
     </g>
     <g id="text_13">
      <!-- −1750 -->
      <g transform="translate(16.770313 242.048135) scale(0.1 -0.1)">
       <use xlink:href="#DejaVuSans-2212"/>
       <use xlink:href="#DejaVuSans-31" x="83.789062"/>
       <use xlink:href="#DejaVuSans-37" x="147.412109"/>
       <use xlink:href="#DejaVuSans-35" x="211.035156"/>
       <use xlink:href="#DejaVuSans-30" x="274.658203"/>
      </g>
     </g>
    </g>
    <g id="ytick_4">
     <g id="line2d_25">
      <path d="M 57.6 205.878464 
L 414.72 205.878464 
" clip-path="url(#pf80113de70)" style="fill: none; stroke: #b0b0b0; stroke-width: 0.8; stroke-linecap: square"/>
     </g>
     <g id="line2d_26">
      <g>
       <use xlink:href="#mc4b0da8a00" x="57.6" y="205.878464" style="stroke: #000000; stroke-width: 0.8"/>
      </g>
     </g>
     <g id="text_14">
      <!-- −1500 -->
      <g transform="translate(16.770313 209.677683) scale(0.1 -0.1)">
       <use xlink:href="#DejaVuSans-2212"/>
       <use xlink:href="#DejaVuSans-31" x="83.789062"/>
       <use xlink:href="#DejaVuSans-35" x="147.412109"/>
       <use xlink:href="#DejaVuSans-30" x="211.035156"/>
       <use xlink:href="#DejaVuSans-30" x="274.658203"/>
      </g>
     </g>
    </g>
    <g id="ytick_5">
     <g id="line2d_27">
      <path d="M 57.6 173.508011 
L 414.72 173.508011 
" clip-path="url(#pf80113de70)" style="fill: none; stroke: #b0b0b0; stroke-width: 0.8; stroke-linecap: square"/>
     </g>
     <g id="line2d_28">
      <g>
       <use xlink:href="#mc4b0da8a00" x="57.6" y="173.508011" style="stroke: #000000; stroke-width: 0.8"/>
      </g>
     </g>
     <g id="text_15">
      <!-- −1250 -->
      <g transform="translate(16.770313 177.30723) scale(0.1 -0.1)">
       <use xlink:href="#DejaVuSans-2212"/>
       <use xlink:href="#DejaVuSans-31" x="83.789062"/>
       <use xlink:href="#DejaVuSans-32" x="147.412109"/>
       <use xlink:href="#DejaVuSans-35" x="211.035156"/>
       <use xlink:href="#DejaVuSans-30" x="274.658203"/>
      </g>
     </g>
    </g>
    <g id="ytick_6">
     <g id="line2d_29">
      <path d="M 57.6 141.137559 
L 414.72 141.137559 
" clip-path="url(#pf80113de70)" style="fill: none; stroke: #b0b0b0; stroke-width: 0.8; stroke-linecap: square"/>
     </g>
     <g id="line2d_30">
      <g>
       <use xlink:href="#mc4b0da8a00" x="57.6" y="141.137559" style="stroke: #000000; stroke-width: 0.8"/>
      </g>
     </g>
     <g id="text_16">
      <!-- −1000 -->
      <g transform="translate(16.770313 144.936778) scale(0.1 -0.1)">
       <use xlink:href="#DejaVuSans-2212"/>
       <use xlink:href="#DejaVuSans-31" x="83.789062"/>
       <use xlink:href="#DejaVuSans-30" x="147.412109"/>
       <use xlink:href="#DejaVuSans-30" x="211.035156"/>
       <use xlink:href="#DejaVuSans-30" x="274.658203"/>
      </g>
     </g>
    </g>
    <g id="ytick_7">
     <g id="line2d_31">
      <path d="M 57.6 108.767107 
L 414.72 108.767107 
" clip-path="url(#pf80113de70)" style="fill: none; stroke: #b0b0b0; stroke-width: 0.8; stroke-linecap: square"/>
     </g>
     <g id="line2d_32">
      <g>
       <use xlink:href="#mc4b0da8a00" x="57.6" y="108.767107" style="stroke: #000000; stroke-width: 0.8"/>
      </g>
     </g>
     <g id="text_17">
      <!-- −750 -->
      <g transform="translate(23.132812 112.566325) scale(0.1 -0.1)">
       <use xlink:href="#DejaVuSans-2212"/>
       <use xlink:href="#DejaVuSans-37" x="83.789062"/>
       <use xlink:href="#DejaVuSans-35" x="147.412109"/>
       <use xlink:href="#DejaVuSans-30" x="211.035156"/>
      </g>
     </g>
    </g>
    <g id="ytick_8">
     <g id="line2d_33">
      <path d="M 57.6 76.396654 
L 414.72 76.396654 
" clip-path="url(#pf80113de70)" style="fill: none; stroke: #b0b0b0; stroke-width: 0.8; stroke-linecap: square"/>
     </g>
     <g id="line2d_34">
      <g>
       <use xlink:href="#mc4b0da8a00" x="57.6" y="76.396654" style="stroke: #000000; stroke-width: 0.8"/>
      </g>
     </g>
     <g id="text_18">
      <!-- −500 -->
      <g transform="translate(23.132812 80.195873) scale(0.1 -0.1)">
       <use xlink:href="#DejaVuSans-2212"/>
       <use xlink:href="#DejaVuSans-35" x="83.789062"/>
       <use xlink:href="#DejaVuSans-30" x="147.412109"/>
       <use xlink:href="#DejaVuSans-30" x="211.035156"/>
      </g>
     </g>
    </g>
    <g id="ytick_9">
     <g id="line2d_35">
      <path d="M 57.6 44.026202 
L 414.72 44.026202 
" clip-path="url(#pf80113de70)" style="fill: none; stroke: #b0b0b0; stroke-width: 0.8; stroke-linecap: square"/>
     </g>
     <g id="line2d_36">
      <g>
       <use xlink:href="#mc4b0da8a00" x="57.6" y="44.026202" style="stroke: #000000; stroke-width: 0.8"/>
      </g>
     </g>
     <g id="text_19">
      <!-- −250 -->
      <g transform="translate(23.132812 47.825421) scale(0.1 -0.1)">
       <use xlink:href="#DejaVuSans-2212"/>
       <use xlink:href="#DejaVuSans-32" x="83.789062"/>
       <use xlink:href="#DejaVuSans-35" x="147.412109"/>
       <use xlink:href="#DejaVuSans-30" x="211.035156"/>
      </g>
     </g>
    </g>
    <g id="text_20">
     <!-- Fitness -->
     <g transform="translate(10.690625 191.845187) rotate(-90) scale(0.1 -0.1)">
      <defs>
       <path id="DejaVuSans-46" d="M 628 4666 
L 3309 4666 
L 3309 4134 
L 1259 4134 
L 1259 2759 
L 3109 2759 
L 3109 2228 
L 1259 2228 
L 1259 0 
L 628 0 
L 628 4666 
z
" transform="scale(0.015625)"/>
      </defs>
      <use xlink:href="#DejaVuSans-46"/>
      <use xlink:href="#DejaVuSans-69" x="50.269531"/>
      <use xlink:href="#DejaVuSans-74" x="78.052734"/>
      <use xlink:href="#DejaVuSans-6e" x="117.261719"/>
      <use xlink:href="#DejaVuSans-65" x="180.640625"/>
      <use xlink:href="#DejaVuSans-73" x="242.164062"/>
      <use xlink:href="#DejaVuSans-73" x="294.263672"/>
     </g>
    </g>
   </g>
   <g id="line2d_37">
    <path d="M 73.832727 265.314997 
L 75.464157 261.117504 
L 77.095587 258.92124 
L 78.727017 257.17554 
L 80.358447 254.667566 
L 81.989877 253.691398 
L 83.621307 253.945508 
L 85.252736 254.719972 
L 86.884166 255.797006 
L 88.515596 255.398231 
L 90.147026 253.644017 
L 91.778456 253.453187 
L 93.409886 253.588072 
L 95.041316 255.254768 
L 96.672746 250.824961 
L 98.304175 252.959872 
L 99.935605 252.492136 
L 101.567035 251.304443 
L 103.198465 251.770883 
L 104.829895 253.951872 
L 106.461325 251.874943 
L 108.092755 250.189542 
L 109.724185 250.179285 
L 111.355614 248.844422 
L 112.987044 250.424021 
L 116.249904 248.273159 
L 117.881334 246.898582 
L 119.512764 249.244521 
L 121.144194 250.859159 
L 122.775624 249.901144 
L 124.407053 246.829818 
L 126.038483 250.041569 
L 127.669913 248.716 
L 129.301343 250.833827 
L 130.932773 245.793325 
L 132.564203 247.765588 
L 134.195633 246.045462 
L 135.827063 249.46073 
L 137.458492 249.119446 
L 139.089922 249.516191 
L 140.721352 247.022949 
L 142.352782 250.957223 
L 143.984212 249.956367 
L 145.615642 247.77961 
L 147.247072 250.20861 
L 148.878502 247.786766 
L 150.509931 249.665234 
L 152.141361 247.375533 
L 153.772791 247.571357 
L 155.404221 249.867384 
L 157.035651 251.453549 
L 158.667081 250.910798 
L 160.298511 251.945191 
L 161.929941 249.310083 
L 165.1928 251.493457 
L 166.82423 248.894709 
L 168.45566 251.709291 
L 170.08709 245.632142 
L 171.71852 246.179115 
L 173.34995 247.645649 
L 174.98138 247.082547 
L 176.61281 248.089418 
L 178.244239 244.000462 
L 179.875669 245.432915 
L 181.507099 247.146619 
L 183.138529 246.371327 
L 184.769959 250.921497 
L 186.401389 239.77914 
L 188.032819 249.410516 
L 189.664249 248.33921 
L 191.295678 245.909584 
L 192.927108 249.892642 
L 194.558538 248.672029 
L 196.189968 251.794914 
L 197.821398 251.177037 
L 199.452828 248.812147 
L 201.084258 248.933993 
L 202.715688 249.80848 
L 204.347117 249.349922 
L 205.978547 250.564775 
L 207.609977 250.348078 
L 209.241407 251.965509 
L 210.872837 251.5087 
L 212.504267 249.62603 
L 214.135697 250.725129 
L 215.767127 250.351306 
L 217.398556 250.216033 
L 219.029986 247.534264 
L 220.661416 249.212944 
L 222.292846 250.373148 
L 223.924276 250.339092 
L 225.555706 248.699885 
L 228.818566 250.78112 
L 230.449995 243.868359 
L 232.081425 249.005877 
L 233.712855 249.198553 
L 235.344285 247.414174 
L 236.975715 249.53892 
L 238.607145 247.221207 
L 240.238575 246.208781 
L 241.870005 247.528882 
L 243.501434 248.09129 
L 245.132864 248.941897 
L 246.764294 247.904338 
L 248.395724 249.20492 
L 250.027154 248.949476 
L 251.658584 246.925776 
L 253.290014 248.106688 
L 254.921444 250.34568 
L 256.552873 248.370498 
L 258.184303 248.315062 
L 259.815733 248.06798 
L 261.447163 246.266679 
L 263.078593 247.322504 
L 264.710023 245.888483 
L 266.341453 247.831304 
L 267.972883 247.708429 
L 269.604312 242.305507 
L 271.235742 245.421577 
L 272.867172 247.404553 
L 274.498602 249.693878 
L 276.130032 247.110862 
L 277.761462 246.240226 
L 279.392892 251.802643 
L 281.024322 249.995861 
L 282.655751 249.479533 
L 284.287181 252.468384 
L 285.918611 245.624848 
L 287.550041 247.253999 
L 289.181471 247.74637 
L 290.812901 249.099082 
L 292.444331 252.639919 
L 294.075761 252.800388 
L 295.70719 251.410046 
L 297.33862 249.396311 
L 298.97005 248.44784 
L 300.60148 251.596938 
L 302.23291 249.74313 
L 303.86434 252.490435 
L 305.49577 250.70124 
L 307.1272 249.899838 
L 308.75863 249.855354 
L 310.390059 250.431327 
L 312.021489 248.737854 
L 315.284349 251.3164 
L 316.915779 248.902823 
L 318.547209 251.639267 
L 320.178639 249.939136 
L 321.810069 247.531238 
L 323.441498 251.636489 
L 325.072928 249.217927 
L 326.704358 249.037182 
L 328.335788 250.091831 
L 329.967218 249.015143 
L 331.598648 250.319867 
L 333.230078 249.424269 
L 334.861508 247.231691 
L 336.492937 248.859959 
L 338.124367 248.085161 
L 339.755797 246.794828 
L 341.387227 250.075192 
L 343.018657 247.017944 
L 344.650087 241.201222 
L 346.281517 249.643687 
L 347.912947 247.008026 
L 349.544376 243.902176 
L 351.175806 248.176846 
L 354.438666 244.957281 
L 356.070096 247.388369 
L 357.701526 242.194283 
L 359.332956 244.614137 
L 360.964386 242.499572 
L 362.595815 248.016788 
L 365.858675 250.814584 
L 367.490105 249.444395 
L 369.121535 250.01786 
L 370.752965 248.16897 
L 372.384395 247.972528 
L 374.015825 249.083351 
L 375.647254 250.056121 
L 378.910114 246.848792 
L 380.541544 245.614688 
L 382.172974 245.997626 
L 383.804404 250.210804 
L 385.435834 248.80806 
L 387.067264 244.923495 
L 388.698693 247.000713 
L 390.330123 250.011366 
L 391.961553 250.71988 
L 393.592983 246.62734 
L 395.224413 247.545904 
L 396.855843 251.096859 
L 398.487273 249.115818 
L 398.487273 249.115818 
" clip-path="url(#pf80113de70)" style="fill: none; stroke: #0000ff; stroke-width: 1.5; stroke-linecap: square"/>
   </g>
   <g id="line2d_38">
    <path d="M 73.832727 287.538078 
L 75.464157 280.101984 
L 77.095587 280.002297 
L 78.727017 277.277092 
L 80.358447 280.564787 
L 81.989877 277.960827 
L 85.252736 277.343906 
L 86.884166 274.67039 
L 88.515596 274.190152 
L 90.147026 271.695931 
L 91.778456 270.6954 
L 93.409886 276.18216 
L 95.041316 277.329188 
L 96.672746 274.818552 
L 98.304175 275.417098 
L 99.935605 276.387458 
L 101.567035 278.14416 
L 103.198465 278.861077 
L 104.829895 280.922379 
L 106.461325 280.215238 
L 108.092755 277.182316 
L 109.724185 278.1397 
L 111.355614 281.161374 
L 112.987044 280.842348 
L 116.249904 281.20496 
L 117.881334 284.033687 
L 119.512764 284.046555 
L 121.144194 285.128884 
L 122.775624 283.581628 
L 124.407053 283.616162 
L 126.038483 284.593788 
L 127.669913 282.313785 
L 129.301343 286.51863 
L 132.564203 281.374423 
L 134.195633 285.3779 
L 135.827063 285.307071 
L 137.458492 282.344545 
L 140.721352 283.103813 
L 142.352782 286.579869 
L 143.984212 283.939335 
L 145.615642 282.008242 
L 147.247072 285.126661 
L 148.878502 283.571415 
L 150.509931 282.478805 
L 152.141361 282.454424 
L 153.772791 284.797061 
L 155.404221 283.015961 
L 157.035651 284.863529 
L 158.667081 279.908841 
L 160.298511 283.851656 
L 161.929941 283.530177 
L 163.56137 285.304378 
L 165.1928 285.235877 
L 166.82423 284.594184 
L 168.45566 283.720578 
L 170.08709 288.294937 
L 171.71852 289.253493 
L 173.34995 291.284578 
L 174.98138 285.874026 
L 176.61281 286.781089 
L 178.244239 290.239857 
L 179.875669 286.405013 
L 181.507099 288.542544 
L 183.138529 288.125149 
L 184.769959 293.871565 
L 186.401389 291.309942 
L 188.032819 291.440006 
L 189.664249 288.71482 
L 191.295678 293.74707 
L 192.927108 291.234339 
L 194.558538 289.690086 
L 196.189968 290.607087 
L 197.821398 285.581219 
L 199.452828 285.972379 
L 201.084258 286.782582 
L 202.715688 284.858803 
L 204.347117 290.150711 
L 205.978547 285.95858 
L 207.609977 284.643394 
L 209.241407 287.145503 
L 210.872837 286.433641 
L 212.504267 285.555595 
L 214.135697 286.932585 
L 215.767127 285.17067 
L 217.398556 285.944615 
L 219.029986 283.794538 
L 220.661416 283.304878 
L 222.292846 284.523208 
L 223.924276 284.538354 
L 225.555706 283.093781 
L 227.187136 284.585139 
L 228.818566 285.329275 
L 230.449995 290.359066 
L 232.081425 288.24075 
L 233.712855 284.027394 
L 235.344285 284.063175 
L 236.975715 285.292463 
L 238.607145 287.073321 
L 240.238575 286.810124 
L 241.870005 285.450808 
L 243.501434 285.715997 
L 245.132864 286.533928 
L 246.764294 284.798295 
L 248.395724 286.801323 
L 250.027154 286.676667 
L 251.658584 286.331581 
L 253.290014 287.852604 
L 254.921444 288.111252 
L 256.552873 286.351133 
L 258.184303 289.076625 
L 259.815733 285.082996 
L 261.447163 288.230444 
L 263.078593 287.653749 
L 264.710023 289.282965 
L 266.341453 287.933167 
L 267.972883 289.02087 
L 269.604312 289.707987 
L 271.235742 287.138831 
L 272.867172 290.491333 
L 274.498602 288.454533 
L 276.130032 287.68677 
L 277.761462 291.629194 
L 279.392892 287.396332 
L 282.655751 286.087123 
L 284.287181 287.936108 
L 285.918611 292.108422 
L 287.550041 287.184364 
L 289.181471 287.180221 
L 290.812901 290.76551 
L 292.444331 287.386334 
L 294.075761 288.238802 
L 295.70719 286.341787 
L 297.33862 285.875116 
L 298.97005 287.031379 
L 300.60148 286.276117 
L 303.86434 287.870733 
L 305.49577 284.903186 
L 307.1272 284.170747 
L 308.75863 284.166476 
L 310.390059 286.136002 
L 312.021489 286.682993 
L 315.284349 286.844368 
L 316.915779 286.268744 
L 318.547209 286.85623 
L 320.178639 285.741081 
L 321.810069 284.878194 
L 323.441498 286.629509 
L 325.072928 284.561431 
L 326.704358 282.976481 
L 328.335788 284.435374 
L 329.967218 283.283312 
L 331.598648 284.882829 
L 333.230078 282.541298 
L 334.861508 285.208976 
L 336.492937 282.65958 
L 338.124367 287.307928 
L 339.755797 287.661797 
L 341.387227 287.450833 
L 343.018657 289.268861 
L 344.650087 293.901045 
L 346.281517 287.187433 
L 349.544376 288.75251 
L 351.175806 288.379019 
L 352.807236 290.671847 
L 354.438666 291.016609 
L 356.070096 288.578859 
L 357.701526 290.615065 
L 359.332956 295.488 
L 360.964386 294.939536 
L 362.595815 292.918982 
L 364.227245 289.206798 
L 365.858675 287.993337 
L 367.490105 286.579494 
L 369.121535 286.14837 
L 370.752965 287.468683 
L 372.384395 286.047522 
L 374.015825 285.200608 
L 375.647254 289.451835 
L 377.278684 290.547091 
L 378.910114 289.510752 
L 380.541544 291.540567 
L 382.172974 293.081024 
L 383.804404 289.730691 
L 385.435834 290.284804 
L 387.067264 293.384447 
L 388.698693 291.756376 
L 390.330123 287.804493 
L 391.961553 287.218194 
L 393.592983 289.988961 
L 395.224413 285.407951 
L 396.855843 289.364634 
L 398.487273 288.971576 
L 398.487273 288.971576 
" clip-path="url(#pf80113de70)" style="fill: none; stroke-dasharray: 9.6,2.4,1.5,2.4; stroke-dashoffset: 0; stroke: #008000; stroke-width: 1.5"/>
   </g>
   <g id="line2d_39">
    <path d="M 73.832727 243.091916 
L 75.464157 242.133024 
L 77.095587 237.840183 
L 78.727017 237.073988 
L 80.358447 228.770344 
L 81.989877 229.421969 
L 83.621307 230.193785 
L 85.252736 232.096038 
L 86.884166 236.923623 
L 88.515596 236.606311 
L 90.147026 235.592103 
L 91.778456 236.210973 
L 93.409886 230.993984 
L 95.041316 233.180349 
L 96.672746 226.83137 
L 98.304175 230.502645 
L 99.935605 228.596815 
L 101.567035 224.464726 
L 103.198465 224.68069 
L 104.829895 226.981365 
L 106.461325 223.534647 
L 108.092755 223.196769 
L 109.724185 222.218869 
L 111.355614 216.52747 
L 112.987044 220.005694 
L 116.249904 215.341358 
L 117.881334 209.763478 
L 119.512764 214.442487 
L 121.144194 216.589434 
L 122.775624 216.22066 
L 124.407053 210.043474 
L 126.038483 215.48935 
L 127.669913 215.118215 
L 129.301343 215.149023 
L 130.932773 207.692531 
L 132.564203 214.156752 
L 134.195633 206.713024 
L 135.827063 213.61439 
L 137.458492 215.894348 
L 139.089922 216.294283 
L 140.721352 210.942085 
L 142.352782 215.334577 
L 143.984212 215.973399 
L 145.615642 213.550979 
L 147.247072 215.290558 
L 148.878502 212.002117 
L 150.509931 216.851663 
L 152.141361 212.296643 
L 153.772791 210.345653 
L 155.404221 216.718808 
L 157.035651 218.043568 
L 158.667081 221.912754 
L 160.298511 220.038726 
L 161.929941 215.089989 
L 163.56137 215.617867 
L 165.1928 217.751036 
L 166.82423 213.195234 
L 168.45566 219.698005 
L 170.08709 202.969347 
L 171.71852 203.104737 
L 173.34995 204.006721 
L 174.98138 208.291068 
L 176.61281 209.397746 
L 178.244239 197.761067 
L 179.875669 204.460817 
L 181.507099 205.750695 
L 183.138529 204.617506 
L 184.769959 207.971429 
L 186.401389 188.248338 
L 188.032819 207.381026 
L 189.664249 207.963599 
L 191.295678 198.072098 
L 192.927108 208.550945 
L 194.558538 207.653972 
L 196.189968 212.982742 
L 197.821398 216.772854 
L 199.452828 211.651916 
L 201.084258 211.085405 
L 202.715688 214.758157 
L 204.347117 208.549133 
L 205.978547 215.170971 
L 207.609977 216.052761 
L 209.241407 216.785515 
L 210.872837 216.583759 
L 212.504267 213.696465 
L 214.135697 214.517673 
L 215.767127 215.531942 
L 217.398556 214.48745 
L 219.029986 211.27399 
L 220.661416 215.12101 
L 222.292846 216.223088 
L 223.924276 216.139831 
L 225.555706 214.305988 
L 227.187136 214.901321 
L 228.818566 216.232965 
L 230.449995 197.377652 
L 232.081425 209.771004 
L 233.712855 214.369712 
L 235.344285 210.765173 
L 236.975715 213.785378 
L 238.607145 207.369093 
L 240.238575 205.607439 
L 241.870005 209.606955 
L 245.132864 211.349867 
L 246.764294 211.010381 
L 248.395724 211.608516 
L 250.027154 211.222285 
L 251.658584 207.519971 
L 253.290014 208.360772 
L 254.921444 212.580108 
L 256.552873 210.389862 
L 258.184303 207.553498 
L 259.815733 211.052965 
L 261.447163 204.302913 
L 263.078593 206.991258 
L 264.710023 202.494001 
L 266.341453 207.729441 
L 267.972883 206.395988 
L 269.604312 194.903027 
L 271.235742 203.704323 
L 272.867172 204.317774 
L 274.498602 210.933223 
L 276.130032 206.534955 
L 277.761462 200.851259 
L 279.392892 216.208954 
L 281.024322 213.254928 
L 282.655751 212.871942 
L 284.287181 217.00066 
L 285.918611 199.141275 
L 287.550041 207.323635 
L 289.181471 208.312519 
L 290.812901 207.432654 
L 292.444331 217.893503 
L 294.075761 217.361975 
L 295.70719 216.478304 
L 297.33862 212.917506 
L 298.97005 209.864302 
L 300.60148 216.917758 
L 302.23291 212.463183 
L 303.86434 217.110137 
L 305.49577 216.499295 
L 307.1272 215.628928 
L 308.75863 215.544231 
L 310.390059 214.726652 
L 312.021489 210.792715 
L 315.284349 215.788432 
L 316.915779 211.536903 
L 318.547209 216.422304 
L 320.178639 214.137191 
L 321.810069 210.184282 
L 323.441498 216.643469 
L 325.072928 213.874422 
L 326.704358 215.097884 
L 328.335788 215.748288 
L 329.967218 214.746974 
L 331.598648 215.756904 
L 333.230078 216.30724 
L 334.861508 209.254406 
L 336.492937 215.060338 
L 338.124367 208.862394 
L 339.755797 205.927858 
L 341.387227 212.699551 
L 343.018657 204.767027 
L 344.650087 188.501399 
L 346.281517 212.099941 
L 347.912947 206.101223 
L 349.544376 199.051843 
L 351.175806 207.974673 
L 352.807236 202.369344 
L 354.438666 198.897954 
L 356.070096 206.197879 
L 357.701526 193.7735 
L 359.332956 193.740273 
L 360.964386 190.059607 
L 362.595815 203.114593 
L 364.227245 209.7528 
L 365.858675 213.635832 
L 367.490105 212.309296 
L 369.121535 213.887349 
L 370.752965 208.869258 
L 372.384395 209.897535 
L 374.015825 212.966093 
L 375.647254 210.660406 
L 377.278684 206.423357 
L 378.910114 204.186831 
L 380.541544 199.688809 
L 382.172974 198.914229 
L 383.804404 210.690917 
L 385.435834 207.331315 
L 387.067264 196.462543 
L 388.698693 202.24505 
L 390.330123 212.218239 
L 391.961553 214.221566 
L 393.592983 203.265718 
L 395.224413 209.683857 
L 396.855843 212.829084 
L 398.487273 209.26006 
L 398.487273 209.26006 
" clip-path="url(#pf80113de70)" style="fill: none; stroke-dasharray: 9.6,2.4,1.5,2.4; stroke-dashoffset: 0; stroke: #008000; stroke-width: 1.5"/>
   </g>
   <g id="line2d_40">
    <path d="M 73.832727 118.859221 
L 78.727017 118.859221 
L 80.358447 112.21549 
L 91.778456 112.21549 
L 93.409886 109.632383 
L 150.509931 109.632383 
L 152.141361 69.311723 
L 165.1928 69.311723 
L 166.82423 64.193326 
L 168.45566 64.193326 
L 170.08709 61.371901 
L 176.61281 61.371901 
L 178.244239 56.537013 
L 202.715688 56.537013 
L 204.347117 56.254741 
L 357.701526 56.254741 
L 359.332956 53.568 
L 398.487273 53.568 
L 398.487273 53.568 
" clip-path="url(#pf80113de70)" style="fill: none; stroke: #ff0000; stroke-width: 1.5; stroke-linecap: square"/>
   </g>
   <g id="patch_3">
    <path d="M 57.6 307.584 
L 57.6 41.472 
" style="fill: none; stroke: #000000; stroke-width: 0.8; stroke-linejoin: miter; stroke-linecap: square"/>
   </g>
   <g id="patch_4">
    <path d="M 414.72 307.584 
L 414.72 41.472 
" style="fill: none; stroke: #000000; stroke-width: 0.8; stroke-linejoin: miter; stroke-linecap: square"/>
   </g>
   <g id="patch_5">
    <path d="M 57.6 307.584 
L 414.72 307.584 
" style="fill: none; stroke: #000000; stroke-width: 0.8; stroke-linejoin: miter; stroke-linecap: square"/>
   </g>
   <g id="patch_6">
    <path d="M 57.6 41.472 
L 414.72 41.472 
" style="fill: none; stroke: #000000; stroke-width: 0.8; stroke-linejoin: miter; stroke-linecap: square"/>
   </g>
   <g id="text_21">
    <!-- Population's average and best fitness -->
    <g transform="translate(123.529687 35.472) scale(0.12 -0.12)">
     <defs>
      <path id="DejaVuSans-50" d="M 1259 4147 
L 1259 2394 
L 2053 2394 
Q 2494 2394 2734 2622 
Q 2975 2850 2975 3272 
Q 2975 3691 2734 3919 
Q 2494 4147 2053 4147 
L 1259 4147 
z
M 628 4666 
L 2053 4666 
Q 2838 4666 3239 4311 
Q 3641 3956 3641 3272 
Q 3641 2581 3239 2228 
Q 2838 1875 2053 1875 
L 1259 1875 
L 1259 0 
L 628 0 
L 628 4666 
z
" transform="scale(0.015625)"/>
      <path id="DejaVuSans-70" d="M 1159 525 
L 1159 -1331 
L 581 -1331 
L 581 3500 
L 1159 3500 
L 1159 2969 
Q 1341 3281 1617 3432 
Q 1894 3584 2278 3584 
Q 2916 3584 3314 3078 
Q 3713 2572 3713 1747 
Q 3713 922 3314 415 
Q 2916 -91 2278 -91 
Q 1894 -91 1617 61 
Q 1341 213 1159 525 
z
M 3116 1747 
Q 3116 2381 2855 2742 
Q 2594 3103 2138 3103 
Q 1681 3103 1420 2742 
Q 1159 2381 1159 1747 
Q 1159 1113 1420 752 
Q 1681 391 2138 391 
Q 2594 391 2855 752 
Q 3116 1113 3116 1747 
z
" transform="scale(0.015625)"/>
      <path id="DejaVuSans-75" d="M 544 1381 
L 544 3500 
L 1119 3500 
L 1119 1403 
Q 1119 906 1312 657 
Q 1506 409 1894 409 
Q 2359 409 2629 706 
Q 2900 1003 2900 1516 
L 2900 3500 
L 3475 3500 
L 3475 0 
L 2900 0 
L 2900 538 
Q 2691 219 2414 64 
Q 2138 -91 1772 -91 
Q 1169 -91 856 284 
Q 544 659 544 1381 
z
M 1991 3584 
L 1991 3584 
z
" transform="scale(0.015625)"/>
      <path id="DejaVuSans-6c" d="M 603 4863 
L 1178 4863 
L 1178 0 
L 603 0 
L 603 4863 
z
" transform="scale(0.015625)"/>
      <path id="DejaVuSans-27" d="M 1147 4666 
L 1147 2931 
L 616 2931 
L 616 4666 
L 1147 4666 
z
" transform="scale(0.015625)"/>
      <path id="DejaVuSans-20" transform="scale(0.015625)"/>
      <path id="DejaVuSans-76" d="M 191 3500 
L 800 3500 
L 1894 563 
L 2988 3500 
L 3597 3500 
L 2284 0 
L 1503 0 
L 191 3500 
z
" transform="scale(0.015625)"/>
      <path id="DejaVuSans-67" d="M 2906 1791 
Q 2906 2416 2648 2759 
Q 2391 3103 1925 3103 
Q 1463 3103 1205 2759 
Q 947 2416 947 1791 
Q 947 1169 1205 825 
Q 1463 481 1925 481 
Q 2391 481 2648 825 
Q 2906 1169 2906 1791 
z
M 3481 434 
Q 3481 -459 3084 -895 
Q 2688 -1331 1869 -1331 
Q 1566 -1331 1297 -1286 
Q 1028 -1241 775 -1147 
L 775 -588 
Q 1028 -725 1275 -790 
Q 1522 -856 1778 -856 
Q 2344 -856 2625 -561 
Q 2906 -266 2906 331 
L 2906 616 
Q 2728 306 2450 153 
Q 2172 0 1784 0 
Q 1141 0 747 490 
Q 353 981 353 1791 
Q 353 2603 747 3093 
Q 1141 3584 1784 3584 
Q 2172 3584 2450 3431 
Q 2728 3278 2906 2969 
L 2906 3500 
L 3481 3500 
L 3481 434 
z
" transform="scale(0.015625)"/>
      <path id="DejaVuSans-64" d="M 2906 2969 
L 2906 4863 
L 3481 4863 
L 3481 0 
L 2906 0 
L 2906 525 
Q 2725 213 2448 61 
Q 2172 -91 1784 -91 
Q 1150 -91 751 415 
Q 353 922 353 1747 
Q 353 2572 751 3078 
Q 1150 3584 1784 3584 
Q 2172 3584 2448 3432 
Q 2725 3281 2906 2969 
z
M 947 1747 
Q 947 1113 1208 752 
Q 1469 391 1925 391 
Q 2381 391 2643 752 
Q 2906 1113 2906 1747 
Q 2906 2381 2643 2742 
Q 2381 3103 1925 3103 
Q 1469 3103 1208 2742 
Q 947 2381 947 1747 
z
" transform="scale(0.015625)"/>
      <path id="DejaVuSans-62" d="M 3116 1747 
Q 3116 2381 2855 2742 
Q 2594 3103 2138 3103 
Q 1681 3103 1420 2742 
Q 1159 2381 1159 1747 
Q 1159 1113 1420 752 
Q 1681 391 2138 391 
Q 2594 391 2855 752 
Q 3116 1113 3116 1747 
z
M 1159 2969 
Q 1341 3281 1617 3432 
Q 1894 3584 2278 3584 
Q 2916 3584 3314 3078 
Q 3713 2572 3713 1747 
Q 3713 922 3314 415 
Q 2916 -91 2278 -91 
Q 1894 -91 1617 61 
Q 1341 213 1159 525 
L 1159 0 
L 581 0 
L 581 4863 
L 1159 4863 
L 1159 2969 
z
" transform="scale(0.015625)"/>
      <path id="DejaVuSans-66" d="M 2375 4863 
L 2375 4384 
L 1825 4384 
Q 1516 4384 1395 4259 
Q 1275 4134 1275 3809 
L 1275 3500 
L 2222 3500 
L 2222 3053 
L 1275 3053 
L 1275 0 
L 697 0 
L 697 3053 
L 147 3053 
L 147 3500 
L 697 3500 
L 697 3744 
Q 697 4328 969 4595 
Q 1241 4863 1831 4863 
L 2375 4863 
z
" transform="scale(0.015625)"/>
     </defs>
     <use xlink:href="#DejaVuSans-50"/>
     <use xlink:href="#DejaVuSans-6f" x="56.677734"/>
     <use xlink:href="#DejaVuSans-70" x="117.859375"/>
     <use xlink:href="#DejaVuSans-75" x="181.335938"/>
     <use xlink:href="#DejaVuSans-6c" x="244.714844"/>
     <use xlink:href="#DejaVuSans-61" x="272.498047"/>
     <use xlink:href="#DejaVuSans-74" x="333.777344"/>
     <use xlink:href="#DejaVuSans-69" x="372.986328"/>
     <use xlink:href="#DejaVuSans-6f" x="400.769531"/>
     <use xlink:href="#DejaVuSans-6e" x="461.951172"/>
     <use xlink:href="#DejaVuSans-27" x="525.330078"/>
     <use xlink:href="#DejaVuSans-73" x="552.820312"/>
     <use xlink:href="#DejaVuSans-20" x="604.919922"/>
     <use xlink:href="#DejaVuSans-61" x="636.707031"/>
     <use xlink:href="#DejaVuSans-76" x="697.986328"/>
     <use xlink:href="#DejaVuSans-65" x="757.166016"/>
     <use xlink:href="#DejaVuSans-72" x="818.689453"/>
     <use xlink:href="#DejaVuSans-61" x="859.802734"/>
     <use xlink:href="#DejaVuSans-67" x="921.082031"/>
     <use xlink:href="#DejaVuSans-65" x="984.558594"/>
     <use xlink:href="#DejaVuSans-20" x="1046.082031"/>
     <use xlink:href="#DejaVuSans-61" x="1077.869141"/>
     <use xlink:href="#DejaVuSans-6e" x="1139.148438"/>
     <use xlink:href="#DejaVuSans-64" x="1202.527344"/>
     <use xlink:href="#DejaVuSans-20" x="1266.003906"/>
     <use xlink:href="#DejaVuSans-62" x="1297.791016"/>
     <use xlink:href="#DejaVuSans-65" x="1361.267578"/>
     <use xlink:href="#DejaVuSans-73" x="1422.791016"/>
     <use xlink:href="#DejaVuSans-74" x="1474.890625"/>
     <use xlink:href="#DejaVuSans-20" x="1514.099609"/>
     <use xlink:href="#DejaVuSans-66" x="1545.886719"/>
     <use xlink:href="#DejaVuSans-69" x="1581.091797"/>
     <use xlink:href="#DejaVuSans-74" x="1608.875"/>
     <use xlink:href="#DejaVuSans-6e" x="1648.083984"/>
     <use xlink:href="#DejaVuSans-65" x="1711.462891"/>
     <use xlink:href="#DejaVuSans-73" x="1772.986328"/>
     <use xlink:href="#DejaVuSans-73" x="1825.085938"/>
    </g>
   </g>
   <g id="legend_1">
    <g id="patch_7">
     <path d="M 64.6 108.1845 
L 137.540625 108.1845 
Q 139.540625 108.1845 139.540625 106.1845 
L 139.540625 48.472 
Q 139.540625 46.472 137.540625 46.472 
L 64.6 46.472 
Q 62.6 46.472 62.6 48.472 
L 62.6 106.1845 
Q 62.6 108.1845 64.6 108.1845 
z
" style="fill: #ffffff; opacity: 0.8; stroke: #cccccc; stroke-linejoin: miter"/>
    </g>
    <g id="line2d_41">
     <path d="M 66.6 54.570438 
L 76.6 54.570438 
L 86.6 54.570438 
" style="fill: none; stroke: #0000ff; stroke-width: 1.5; stroke-linecap: square"/>
    </g>
    <g id="text_22">
     <!-- average -->
     <g transform="translate(94.6 58.070438) scale(0.1 -0.1)">
      <use xlink:href="#DejaVuSans-61"/>
      <use xlink:href="#DejaVuSans-76" x="61.279297"/>
      <use xlink:href="#DejaVuSans-65" x="120.458984"/>
      <use xlink:href="#DejaVuSans-72" x="181.982422"/>
      <use xlink:href="#DejaVuSans-61" x="223.095703"/>
      <use xlink:href="#DejaVuSans-67" x="284.375"/>
      <use xlink:href="#DejaVuSans-65" x="347.851562"/>
     </g>
    </g>
    <g id="line2d_42">
     <path d="M 66.6 69.248563 
L 76.6 69.248563 
L 86.6 69.248563 
" style="fill: none; stroke-dasharray: 9.6,2.4,1.5,2.4; stroke-dashoffset: 0; stroke: #008000; stroke-width: 1.5"/>
    </g>
    <g id="text_23">
     <!-- -1 sd -->
     <g transform="translate(94.6 72.748563) scale(0.1 -0.1)">
      <defs>
       <path id="DejaVuSans-2d" d="M 313 2009 
L 1997 2009 
L 1997 1497 
L 313 1497 
L 313 2009 
z
" transform="scale(0.015625)"/>
      </defs>
      <use xlink:href="#DejaVuSans-2d"/>
      <use xlink:href="#DejaVuSans-31" x="36.083984"/>
      <use xlink:href="#DejaVuSans-20" x="99.707031"/>
      <use xlink:href="#DejaVuSans-73" x="131.494141"/>
      <use xlink:href="#DejaVuSans-64" x="183.59375"/>
     </g>
    </g>
    <g id="line2d_43">
     <path d="M 66.6 83.926688 
L 76.6 83.926688 
L 86.6 83.926688 
" style="fill: none; stroke-dasharray: 9.6,2.4,1.5,2.4; stroke-dashoffset: 0; stroke: #008000; stroke-width: 1.5"/>
    </g>
    <g id="text_24">
     <!-- +1 sd -->
     <g transform="translate(94.6 87.426688) scale(0.1 -0.1)">
      <defs>
       <path id="DejaVuSans-2b" d="M 2944 4013 
L 2944 2272 
L 4684 2272 
L 4684 1741 
L 2944 1741 
L 2944 0 
L 2419 0 
L 2419 1741 
L 678 1741 
L 678 2272 
L 2419 2272 
L 2419 4013 
L 2944 4013 
z
" transform="scale(0.015625)"/>
      </defs>
      <use xlink:href="#DejaVuSans-2b"/>
      <use xlink:href="#DejaVuSans-31" x="83.789062"/>
      <use xlink:href="#DejaVuSans-20" x="147.412109"/>
      <use xlink:href="#DejaVuSans-73" x="179.199219"/>
      <use xlink:href="#DejaVuSans-64" x="231.298828"/>
     </g>
    </g>
    <g id="line2d_44">
     <path d="M 66.6 98.604813 
L 76.6 98.604813 
L 86.6 98.604813 
" style="fill: none; stroke: #ff0000; stroke-width: 1.5; stroke-linecap: square"/>
    </g>
    <g id="text_25">
     <!-- best -->
     <g transform="translate(94.6 102.104813) scale(0.1 -0.1)">
      <use xlink:href="#DejaVuSans-62"/>
      <use xlink:href="#DejaVuSans-65" x="63.476562"/>
      <use xlink:href="#DejaVuSans-73" x="125"/>
      <use xlink:href="#DejaVuSans-74" x="177.099609"/>
     </g>
    </g>
   </g>
  </g>
 </g>
 <defs>
  <clipPath id="pf80113de70">
   <rect x="57.6" y="41.472" width="357.12" height="266.112"/>
  </clipPath>
 </defs>
</svg>
