<?xml version="1.0" encoding="utf-8" standalone="no"?>
<!DOCTYPE svg PUBLIC "-//W3C//DTD SVG 1.1//EN"
  "http://www.w3.org/Graphics/SVG/1.1/DTD/svg11.dtd">
<svg xmlns:xlink="http://www.w3.org/1999/xlink" width="460.8pt" height="345.6pt" viewBox="0 0 460.8 345.6" xmlns="http://www.w3.org/2000/svg" version="1.1">
 <metadata>
  <rdf:RDF xmlns:dc="http://purl.org/dc/elements/1.1/" xmlns:cc="http://creativecommons.org/ns#" xmlns:rdf="http://www.w3.org/1999/02/22-rdf-syntax-ns#">
   <cc:Work>
    <dc:type rdf:resource="http://purl.org/dc/dcmitype/StillImage"/>
    <dc:date>2024-08-02T16:42:34.568891</dc:date>
    <dc:format>image/svg+xml</dc:format>
    <dc:creator>
     <cc:Agent>
      <dc:title>Matplotlib v3.8.4, https://matplotlib.org/</dc:title>
     </cc:Agent>
    </dc:creator>
   </cc:Work>
  </rdf:RDF>
 </metadata>
 <defs>
  <style type="text/css">*{stroke-linejoin: round; stroke-linecap: butt}</style>
 </defs>
 <g id="figure_1">
  <g id="patch_1">
   <path d="M 0 345.6 
L 460.8 345.6 
L 460.8 0 
L 0 0 
z
" style="fill: #ffffff"/>
  </g>
  <g id="axes_1">
   <g id="patch_2">
    <path d="M 57.6 307.584 
L 414.72 307.584 
L 414.72 41.472 
L 57.6 41.472 
z
" style="fill: #ffffff"/>
   </g>
   <g id="matplotlib.axis_1">
    <g id="xtick_1">
     <g id="line2d_1">
      <path d="M 73.832727 307.584 
L 73.832727 41.472 
" clip-path="url(#p5ad3bf7876)" style="fill: none; stroke: #b0b0b0; stroke-width: 0.8; stroke-linecap: square"/>
     </g>
     <g id="line2d_2">
      <defs>
       <path id="m764e60ca2e" d="M 0 0 
L 0 3.5 
" style="stroke: #000000; stroke-width: 0.8"/>
      </defs>
      <g>
       <use xlink:href="#m764e60ca2e" x="73.832727" y="307.584" style="stroke: #000000; stroke-width: 0.8"/>
      </g>
     </g>
     <g id="text_1">
      <!-- 0 -->
      <g transform="translate(70.651477 322.182437) scale(0.1 -0.1)">
       <defs>
        <path id="DejaVuSans-30" d="M 2034 4250 
Q 1547 4250 1301 3770 
Q 1056 3291 1056 2328 
Q 1056 1369 1301 889 
Q 1547 409 2034 409 
Q 2525 409 2770 889 
Q 3016 1369 3016 2328 
Q 3016 3291 2770 3770 
Q 2525 4250 2034 4250 
z
M 2034 4750 
Q 2819 4750 3233 4129 
Q 3647 3509 3647 2328 
Q 3647 1150 3233 529 
Q 2819 -91 2034 -91 
Q 1250 -91 836 529 
Q 422 1150 422 2328 
Q 422 3509 836 4129 
Q 1250 4750 2034 4750 
z
" transform="scale(0.015625)"/>
       </defs>
       <use xlink:href="#DejaVuSans-30"/>
      </g>
     </g>
    </g>
    <g id="xtick_2">
     <g id="line2d_3">
      <path d="M 114.618474 307.584 
L 114.618474 41.472 
" clip-path="url(#p5ad3bf7876)" style="fill: none; stroke: #b0b0b0; stroke-width: 0.8; stroke-linecap: square"/>
     </g>
     <g id="line2d_4">
      <g>
       <use xlink:href="#m764e60ca2e" x="114.618474" y="307.584" style="stroke: #000000; stroke-width: 0.8"/>
      </g>
     </g>
     <g id="text_2">
      <!-- 25 -->
      <g transform="translate(108.255974 322.182437) scale(0.1 -0.1)">
       <defs>
        <path id="DejaVuSans-32" d="M 1228 531 
L 3431 531 
L 3431 0 
L 469 0 
L 469 531 
Q 828 903 1448 1529 
Q 2069 2156 2228 2338 
Q 2531 2678 2651 2914 
Q 2772 3150 2772 3378 
Q 2772 3750 2511 3984 
Q 2250 4219 1831 4219 
Q 1534 4219 1204 4116 
Q 875 4013 500 3803 
L 500 4441 
Q 881 4594 1212 4672 
Q 1544 4750 1819 4750 
Q 2544 4750 2975 4387 
Q 3406 4025 3406 3419 
Q 3406 3131 3298 2873 
Q 3191 2616 2906 2266 
Q 2828 2175 2409 1742 
Q 1991 1309 1228 531 
z
" transform="scale(0.015625)"/>
        <path id="DejaVuSans-35" d="M 691 4666 
L 3169 4666 
L 3169 4134 
L 1269 4134 
L 1269 2991 
Q 1406 3038 1543 3061 
Q 1681 3084 1819 3084 
Q 2600 3084 3056 2656 
Q 3513 2228 3513 1497 
Q 3513 744 3044 326 
Q 2575 -91 1722 -91 
Q 1428 -91 1123 -41 
Q 819 9 494 109 
L 494 744 
Q 775 591 1075 516 
Q 1375 441 1709 441 
Q 2250 441 2565 725 
Q 2881 1009 2881 1497 
Q 2881 1984 2565 2268 
Q 2250 2553 1709 2553 
Q 1456 2553 1204 2497 
Q 953 2441 691 2322 
L 691 4666 
z
" transform="scale(0.015625)"/>
       </defs>
       <use xlink:href="#DejaVuSans-32"/>
       <use xlink:href="#DejaVuSans-35" x="63.623047"/>
      </g>
     </g>
    </g>
    <g id="xtick_3">
     <g id="line2d_5">
      <path d="M 155.404221 307.584 
L 155.404221 41.472 
" clip-path="url(#p5ad3bf7876)" style="fill: none; stroke: #b0b0b0; stroke-width: 0.8; stroke-linecap: square"/>
     </g>
     <g id="line2d_6">
      <g>
       <use xlink:href="#m764e60ca2e" x="155.404221" y="307.584" style="stroke: #000000; stroke-width: 0.8"/>
      </g>
     </g>
     <g id="text_3">
      <!-- 50 -->
      <g transform="translate(149.041721 322.182437) scale(0.1 -0.1)">
       <use xlink:href="#DejaVuSans-35"/>
       <use xlink:href="#DejaVuSans-30" x="63.623047"/>
      </g>
     </g>
    </g>
    <g id="xtick_4">
     <g id="line2d_7">
      <path d="M 196.189968 307.584 
L 196.189968 41.472 
" clip-path="url(#p5ad3bf7876)" style="fill: none; stroke: #b0b0b0; stroke-width: 0.8; stroke-linecap: square"/>
     </g>
     <g id="line2d_8">
      <g>
       <use xlink:href="#m764e60ca2e" x="196.189968" y="307.584" style="stroke: #000000; stroke-width: 0.8"/>
      </g>
     </g>
     <g id="text_4">
      <!-- 75 -->
      <g transform="translate(189.827468 322.182437) scale(0.1 -0.1)">
       <defs>
        <path id="DejaVuSans-37" d="M 525 4666 
L 3525 4666 
L 3525 4397 
L 1831 0 
L 1172 0 
L 2766 4134 
L 525 4134 
L 525 4666 
z
" transform="scale(0.015625)"/>
       </defs>
       <use xlink:href="#DejaVuSans-37"/>
       <use xlink:href="#DejaVuSans-35" x="63.623047"/>
      </g>
     </g>
    </g>
    <g id="xtick_5">
     <g id="line2d_9">
      <path d="M 236.975715 307.584 
L 236.975715 41.472 
" clip-path="url(#p5ad3bf7876)" style="fill: none; stroke: #b0b0b0; stroke-width: 0.8; stroke-linecap: square"/>
     </g>
     <g id="line2d_10">
      <g>
       <use xlink:href="#m764e60ca2e" x="236.975715" y="307.584" style="stroke: #000000; stroke-width: 0.8"/>
      </g>
     </g>
     <g id="text_5">
      <!-- 100 -->
      <g transform="translate(227.431965 322.182437) scale(0.1 -0.1)">
       <defs>
        <path id="DejaVuSans-31" d="M 794 531 
L 1825 531 
L 1825 4091 
L 703 3866 
L 703 4441 
L 1819 4666 
L 2450 4666 
L 2450 531 
L 3481 531 
L 3481 0 
L 794 0 
L 794 531 
z
" transform="scale(0.015625)"/>
       </defs>
       <use xlink:href="#DejaVuSans-31"/>
       <use xlink:href="#DejaVuSans-30" x="63.623047"/>
       <use xlink:href="#DejaVuSans-30" x="127.246094"/>
      </g>
     </g>
    </g>
    <g id="xtick_6">
     <g id="line2d_11">
      <path d="M 277.761462 307.584 
L 277.761462 41.472 
" clip-path="url(#p5ad3bf7876)" style="fill: none; stroke: #b0b0b0; stroke-width: 0.8; stroke-linecap: square"/>
     </g>
     <g id="line2d_12">
      <g>
       <use xlink:href="#m764e60ca2e" x="277.761462" y="307.584" style="stroke: #000000; stroke-width: 0.8"/>
      </g>
     </g>
     <g id="text_6">
      <!-- 125 -->
      <g transform="translate(268.217712 322.182437) scale(0.1 -0.1)">
       <use xlink:href="#DejaVuSans-31"/>
       <use xlink:href="#DejaVuSans-32" x="63.623047"/>
       <use xlink:href="#DejaVuSans-35" x="127.246094"/>
      </g>
     </g>
    </g>
    <g id="xtick_7">
     <g id="line2d_13">
      <path d="M 318.547209 307.584 
L 318.547209 41.472 
" clip-path="url(#p5ad3bf7876)" style="fill: none; stroke: #b0b0b0; stroke-width: 0.8; stroke-linecap: square"/>
     </g>
     <g id="line2d_14">
      <g>
       <use xlink:href="#m764e60ca2e" x="318.547209" y="307.584" style="stroke: #000000; stroke-width: 0.8"/>
      </g>
     </g>
     <g id="text_7">
      <!-- 150 -->
      <g transform="translate(309.003459 322.182437) scale(0.1 -0.1)">
       <use xlink:href="#DejaVuSans-31"/>
       <use xlink:href="#DejaVuSans-35" x="63.623047"/>
       <use xlink:href="#DejaVuSans-30" x="127.246094"/>
      </g>
     </g>
    </g>
    <g id="xtick_8">
     <g id="line2d_15">
      <path d="M 359.332956 307.584 
L 359.332956 41.472 
" clip-path="url(#p5ad3bf7876)" style="fill: none; stroke: #b0b0b0; stroke-width: 0.8; stroke-linecap: square"/>
     </g>
     <g id="line2d_16">
      <g>
       <use xlink:href="#m764e60ca2e" x="359.332956" y="307.584" style="stroke: #000000; stroke-width: 0.8"/>
      </g>
     </g>
     <g id="text_8">
      <!-- 175 -->
      <g transform="translate(349.789206 322.182437) scale(0.1 -0.1)">
       <use xlink:href="#DejaVuSans-31"/>
       <use xlink:href="#DejaVuSans-37" x="63.623047"/>
       <use xlink:href="#DejaVuSans-35" x="127.246094"/>
      </g>
     </g>
    </g>
    <g id="xtick_9">
     <g id="line2d_17">
      <path d="M 400.118703 307.584 
L 400.118703 41.472 
" clip-path="url(#p5ad3bf7876)" style="fill: none; stroke: #b0b0b0; stroke-width: 0.8; stroke-linecap: square"/>
     </g>
     <g id="line2d_18">
      <g>
       <use xlink:href="#m764e60ca2e" x="400.118703" y="307.584" style="stroke: #000000; stroke-width: 0.8"/>
      </g>
     </g>
     <g id="text_9">
      <!-- 200 -->
      <g transform="translate(390.574953 322.182437) scale(0.1 -0.1)">
       <use xlink:href="#DejaVuSans-32"/>
       <use xlink:href="#DejaVuSans-30" x="63.623047"/>
       <use xlink:href="#DejaVuSans-30" x="127.246094"/>
      </g>
     </g>
    </g>
    <g id="text_10">
     <!-- Generations -->
     <g transform="translate(205.662344 335.860562) scale(0.1 -0.1)">
      <defs>
       <path id="DejaVuSans-47" d="M 3809 666 
L 3809 1919 
L 2778 1919 
L 2778 2438 
L 4434 2438 
L 4434 434 
Q 4069 175 3628 42 
Q 3188 -91 2688 -91 
Q 1594 -91 976 548 
Q 359 1188 359 2328 
Q 359 3472 976 4111 
Q 1594 4750 2688 4750 
Q 3144 4750 3555 4637 
Q 3966 4525 4313 4306 
L 4313 3634 
Q 3963 3931 3569 4081 
Q 3175 4231 2741 4231 
Q 1884 4231 1454 3753 
Q 1025 3275 1025 2328 
Q 1025 1384 1454 906 
Q 1884 428 2741 428 
Q 3075 428 3337 486 
Q 3600 544 3809 666 
z
" transform="scale(0.015625)"/>
       <path id="DejaVuSans-65" d="M 3597 1894 
L 3597 1613 
L 953 1613 
Q 991 1019 1311 708 
Q 1631 397 2203 397 
Q 2534 397 2845 478 
Q 3156 559 3463 722 
L 3463 178 
Q 3153 47 2828 -22 
Q 2503 -91 2169 -91 
Q 1331 -91 842 396 
Q 353 884 353 1716 
Q 353 2575 817 3079 
Q 1281 3584 2069 3584 
Q 2775 3584 3186 3129 
Q 3597 2675 3597 1894 
z
M 3022 2063 
Q 3016 2534 2758 2815 
Q 2500 3097 2075 3097 
Q 1594 3097 1305 2825 
Q 1016 2553 972 2059 
L 3022 2063 
z
" transform="scale(0.015625)"/>
       <path id="DejaVuSans-6e" d="M 3513 2113 
L 3513 0 
L 2938 0 
L 2938 2094 
Q 2938 2591 2744 2837 
Q 2550 3084 2163 3084 
Q 1697 3084 1428 2787 
Q 1159 2491 1159 1978 
L 1159 0 
L 581 0 
L 581 3500 
L 1159 3500 
L 1159 2956 
Q 1366 3272 1645 3428 
Q 1925 3584 2291 3584 
Q 2894 3584 3203 3211 
Q 3513 2838 3513 2113 
z
" transform="scale(0.015625)"/>
       <path id="DejaVuSans-72" d="M 2631 2963 
Q 2534 3019 2420 3045 
Q 2306 3072 2169 3072 
Q 1681 3072 1420 2755 
Q 1159 2438 1159 1844 
L 1159 0 
L 581 0 
L 581 3500 
L 1159 3500 
L 1159 2956 
Q 1341 3275 1631 3429 
Q 1922 3584 2338 3584 
Q 2397 3584 2469 3576 
Q 2541 3569 2628 3553 
L 2631 2963 
z
" transform="scale(0.015625)"/>
       <path id="DejaVuSans-61" d="M 2194 1759 
Q 1497 1759 1228 1600 
Q 959 1441 959 1056 
Q 959 750 1161 570 
Q 1363 391 1709 391 
Q 2188 391 2477 730 
Q 2766 1069 2766 1631 
L 2766 1759 
L 2194 1759 
z
M 3341 1997 
L 3341 0 
L 2766 0 
L 2766 531 
Q 2569 213 2275 61 
Q 1981 -91 1556 -91 
Q 1019 -91 701 211 
Q 384 513 384 1019 
Q 384 1609 779 1909 
Q 1175 2209 1959 2209 
L 2766 2209 
L 2766 2266 
Q 2766 2663 2505 2880 
Q 2244 3097 1772 3097 
Q 1472 3097 1187 3025 
Q 903 2953 641 2809 
L 641 3341 
Q 956 3463 1253 3523 
Q 1550 3584 1831 3584 
Q 2591 3584 2966 3190 
Q 3341 2797 3341 1997 
z
" transform="scale(0.015625)"/>
       <path id="DejaVuSans-74" d="M 1172 4494 
L 1172 3500 
L 2356 3500 
L 2356 3053 
L 1172 3053 
L 1172 1153 
Q 1172 725 1289 603 
Q 1406 481 1766 481 
L 2356 481 
L 2356 0 
L 1766 0 
Q 1100 0 847 248 
Q 594 497 594 1153 
L 594 3053 
L 172 3053 
L 172 3500 
L 594 3500 
L 594 4494 
L 1172 4494 
z
" transform="scale(0.015625)"/>
       <path id="DejaVuSans-69" d="M 603 3500 
L 1178 3500 
L 1178 0 
L 603 0 
L 603 3500 
z
M 603 4863 
L 1178 4863 
L 1178 4134 
L 603 4134 
L 603 4863 
z
" transform="scale(0.015625)"/>
       <path id="DejaVuSans-6f" d="M 1959 3097 
Q 1497 3097 1228 2736 
Q 959 2375 959 1747 
Q 959 1119 1226 758 
Q 1494 397 1959 397 
Q 2419 397 2687 759 
Q 2956 1122 2956 1747 
Q 2956 2369 2687 2733 
Q 2419 3097 1959 3097 
z
M 1959 3584 
Q 2709 3584 3137 3096 
Q 3566 2609 3566 1747 
Q 3566 888 3137 398 
Q 2709 -91 1959 -91 
Q 1206 -91 779 398 
Q 353 888 353 1747 
Q 353 2609 779 3096 
Q 1206 3584 1959 3584 
z
" transform="scale(0.015625)"/>
       <path id="DejaVuSans-73" d="M 2834 3397 
L 2834 2853 
Q 2591 2978 2328 3040 
Q 2066 3103 1784 3103 
Q 1356 3103 1142 2972 
Q 928 2841 928 2578 
Q 928 2378 1081 2264 
Q 1234 2150 1697 2047 
L 1894 2003 
Q 2506 1872 2764 1633 
Q 3022 1394 3022 966 
Q 3022 478 2636 193 
Q 2250 -91 1575 -91 
Q 1294 -91 989 -36 
Q 684 19 347 128 
L 347 722 
Q 666 556 975 473 
Q 1284 391 1588 391 
Q 1994 391 2212 530 
Q 2431 669 2431 922 
Q 2431 1156 2273 1281 
Q 2116 1406 1581 1522 
L 1381 1569 
Q 847 1681 609 1914 
Q 372 2147 372 2553 
Q 372 3047 722 3315 
Q 1072 3584 1716 3584 
Q 2034 3584 2315 3537 
Q 2597 3491 2834 3397 
z
" transform="scale(0.015625)"/>
      </defs>
      <use xlink:href="#DejaVuSans-47"/>
      <use xlink:href="#DejaVuSans-65" x="77.490234"/>
      <use xlink:href="#DejaVuSans-6e" x="139.013672"/>
      <use xlink:href="#DejaVuSans-65" x="202.392578"/>
      <use xlink:href="#DejaVuSans-72" x="263.916016"/>
      <use xlink:href="#DejaVuSans-61" x="305.029297"/>
      <use xlink:href="#DejaVuSans-74" x="366.308594"/>
      <use xlink:href="#DejaVuSans-69" x="405.517578"/>
      <use xlink:href="#DejaVuSans-6f" x="433.300781"/>
      <use xlink:href="#DejaVuSans-6e" x="494.482422"/>
      <use xlink:href="#DejaVuSans-73" x="557.861328"/>
     </g>
    </g>
   </g>
   <g id="matplotlib.axis_2">
    <g id="ytick_1">
     <g id="line2d_19">
      <path d="M 57.6 303.465269 
L 414.72 303.465269 
" clip-path="url(#p5ad3bf7876)" style="fill: none; stroke: #b0b0b0; stroke-width: 0.8; stroke-linecap: square"/>
     </g>
     <g id="line2d_20">
      <defs>
       <path id="m781689af20" d="M 0 0 
L -3.5 0 
" style="stroke: #000000; stroke-width: 0.8"/>
      </defs>
      <g>
       <use xlink:href="#m781689af20" x="57.6" y="303.465269" style="stroke: #000000; stroke-width: 0.8"/>
      </g>
     </g>
     <g id="text_11">
      <!-- −2250 -->
      <g transform="translate(16.770313 307.264488) scale(0.1 -0.1)">
       <defs>
        <path id="DejaVuSans-2212" d="M 678 2272 
L 4684 2272 
L 4684 1741 
L 678 1741 
L 678 2272 
z
" transform="scale(0.015625)"/>
       </defs>
       <use xlink:href="#DejaVuSans-2212"/>
       <use xlink:href="#DejaVuSans-32" x="83.789062"/>
       <use xlink:href="#DejaVuSans-32" x="147.412109"/>
       <use xlink:href="#DejaVuSans-35" x="211.035156"/>
       <use xlink:href="#DejaVuSans-30" x="274.658203"/>
      </g>
     </g>
    </g>
    <g id="ytick_2">
     <g id="line2d_21">
      <path d="M 57.6 270.514992 
L 414.72 270.514992 
" clip-path="url(#p5ad3bf7876)" style="fill: none; stroke: #b0b0b0; stroke-width: 0.8; stroke-linecap: square"/>
     </g>
     <g id="line2d_22">
      <g>
       <use xlink:href="#m781689af20" x="57.6" y="270.514992" style="stroke: #000000; stroke-width: 0.8"/>
      </g>
     </g>
     <g id="text_12">
      <!-- −2000 -->
      <g transform="translate(16.770313 274.314211) scale(0.1 -0.1)">
       <use xlink:href="#DejaVuSans-2212"/>
       <use xlink:href="#DejaVuSans-32" x="83.789062"/>
       <use xlink:href="#DejaVuSans-30" x="147.412109"/>
       <use xlink:href="#DejaVuSans-30" x="211.035156"/>
       <use xlink:href="#DejaVuSans-30" x="274.658203"/>
      </g>
     </g>
    </g>
    <g id="ytick_3">
     <g id="line2d_23">
      <path d="M 57.6 237.564715 
L 414.72 237.564715 
" clip-path="url(#p5ad3bf7876)" style="fill: none; stroke: #b0b0b0; stroke-width: 0.8; stroke-linecap: square"/>
     </g>
     <g id="line2d_24">
      <g>
       <use xlink:href="#m781689af20" x="57.6" y="237.564715" style="stroke: #000000; stroke-width: 0.8"/>
      </g>
     </g>
     <g id="text_13">
      <!-- −1750 -->
      <g transform="translate(16.770313 241.363934) scale(0.1 -0.1)">
       <use xlink:href="#DejaVuSans-2212"/>
       <use xlink:href="#DejaVuSans-31" x="83.789062"/>
       <use xlink:href="#DejaVuSans-37" x="147.412109"/>
       <use xlink:href="#DejaVuSans-35" x="211.035156"/>
       <use xlink:href="#DejaVuSans-30" x="274.658203"/>
      </g>
     </g>
    </g>
    <g id="ytick_4">
     <g id="line2d_25">
      <path d="M 57.6 204.614438 
L 414.72 204.614438 
" clip-path="url(#p5ad3bf7876)" style="fill: none; stroke: #b0b0b0; stroke-width: 0.8; stroke-linecap: square"/>
     </g>
     <g id="line2d_26">
      <g>
       <use xlink:href="#m781689af20" x="57.6" y="204.614438" style="stroke: #000000; stroke-width: 0.8"/>
      </g>
     </g>
     <g id="text_14">
      <!-- −1500 -->
      <g transform="translate(16.770313 208.413657) scale(0.1 -0.1)">
       <use xlink:href="#DejaVuSans-2212"/>
       <use xlink:href="#DejaVuSans-31" x="83.789062"/>
       <use xlink:href="#DejaVuSans-35" x="147.412109"/>
       <use xlink:href="#DejaVuSans-30" x="211.035156"/>
       <use xlink:href="#DejaVuSans-30" x="274.658203"/>
      </g>
     </g>
    </g>
    <g id="ytick_5">
     <g id="line2d_27">
      <path d="M 57.6 171.664161 
L 414.72 171.664161 
" clip-path="url(#p5ad3bf7876)" style="fill: none; stroke: #b0b0b0; stroke-width: 0.8; stroke-linecap: square"/>
     </g>
     <g id="line2d_28">
      <g>
       <use xlink:href="#m781689af20" x="57.6" y="171.664161" style="stroke: #000000; stroke-width: 0.8"/>
      </g>
     </g>
     <g id="text_15">
      <!-- −1250 -->
      <g transform="translate(16.770313 175.46338) scale(0.1 -0.1)">
       <use xlink:href="#DejaVuSans-2212"/>
       <use xlink:href="#DejaVuSans-31" x="83.789062"/>
       <use xlink:href="#DejaVuSans-32" x="147.412109"/>
       <use xlink:href="#DejaVuSans-35" x="211.035156"/>
       <use xlink:href="#DejaVuSans-30" x="274.658203"/>
      </g>
     </g>
    </g>
    <g id="ytick_6">
     <g id="line2d_29">
      <path d="M 57.6 138.713884 
L 414.72 138.713884 
" clip-path="url(#p5ad3bf7876)" style="fill: none; stroke: #b0b0b0; stroke-width: 0.8; stroke-linecap: square"/>
     </g>
     <g id="line2d_30">
      <g>
       <use xlink:href="#m781689af20" x="57.6" y="138.713884" style="stroke: #000000; stroke-width: 0.8"/>
      </g>
     </g>
     <g id="text_16">
      <!-- −1000 -->
      <g transform="translate(16.770313 142.513103) scale(0.1 -0.1)">
       <use xlink:href="#DejaVuSans-2212"/>
       <use xlink:href="#DejaVuSans-31" x="83.789062"/>
       <use xlink:href="#DejaVuSans-30" x="147.412109"/>
       <use xlink:href="#DejaVuSans-30" x="211.035156"/>
       <use xlink:href="#DejaVuSans-30" x="274.658203"/>
      </g>
     </g>
    </g>
    <g id="ytick_7">
     <g id="line2d_31">
      <path d="M 57.6 105.763607 
L 414.72 105.763607 
" clip-path="url(#p5ad3bf7876)" style="fill: none; stroke: #b0b0b0; stroke-width: 0.8; stroke-linecap: square"/>
     </g>
     <g id="line2d_32">
      <g>
       <use xlink:href="#m781689af20" x="57.6" y="105.763607" style="stroke: #000000; stroke-width: 0.8"/>
      </g>
     </g>
     <g id="text_17">
      <!-- −750 -->
      <g transform="translate(23.132812 109.562826) scale(0.1 -0.1)">
       <use xlink:href="#DejaVuSans-2212"/>
       <use xlink:href="#DejaVuSans-37" x="83.789062"/>
       <use xlink:href="#DejaVuSans-35" x="147.412109"/>
       <use xlink:href="#DejaVuSans-30" x="211.035156"/>
      </g>
     </g>
    </g>
    <g id="ytick_8">
     <g id="line2d_33">
      <path d="M 57.6 72.81333 
L 414.72 72.81333 
" clip-path="url(#p5ad3bf7876)" style="fill: none; stroke: #b0b0b0; stroke-width: 0.8; stroke-linecap: square"/>
     </g>
     <g id="line2d_34">
      <g>
       <use xlink:href="#m781689af20" x="57.6" y="72.81333" style="stroke: #000000; stroke-width: 0.8"/>
      </g>
     </g>
     <g id="text_18">
      <!-- −500 -->
      <g transform="translate(23.132812 76.612549) scale(0.1 -0.1)">
       <use xlink:href="#DejaVuSans-2212"/>
       <use xlink:href="#DejaVuSans-35" x="83.789062"/>
       <use xlink:href="#DejaVuSans-30" x="147.412109"/>
       <use xlink:href="#DejaVuSans-30" x="211.035156"/>
      </g>
     </g>
    </g>
    <g id="text_19">
     <!-- Fitness -->
     <g transform="translate(10.690625 191.845187) rotate(-90) scale(0.1 -0.1)">
      <defs>
       <path id="DejaVuSans-46" d="M 628 4666 
L 3309 4666 
L 3309 4134 
L 1259 4134 
L 1259 2759 
L 3109 2759 
L 3109 2228 
L 1259 2228 
L 1259 0 
L 628 0 
L 628 4666 
z
" transform="scale(0.015625)"/>
      </defs>
      <use xlink:href="#DejaVuSans-46"/>
      <use xlink:href="#DejaVuSans-69" x="50.269531"/>
      <use xlink:href="#DejaVuSans-74" x="78.052734"/>
      <use xlink:href="#DejaVuSans-6e" x="117.261719"/>
      <use xlink:href="#DejaVuSans-65" x="180.640625"/>
      <use xlink:href="#DejaVuSans-73" x="242.164062"/>
      <use xlink:href="#DejaVuSans-73" x="294.263672"/>
     </g>
    </g>
   </g>
   <g id="line2d_35">
    <path d="M 73.832727 263.291888 
L 75.464157 263.666115 
L 77.095587 259.91746 
L 78.727017 256.737895 
L 80.358447 255.775263 
L 81.989877 255.970848 
L 83.621307 256.42874 
L 85.252736 256.718556 
L 86.884166 254.86012 
L 88.515596 254.899803 
L 90.147026 255.260384 
L 91.778456 254.872516 
L 93.409886 255.060715 
L 95.041316 254.678181 
L 96.672746 254.958012 
L 98.304175 254.532864 
L 99.935605 254.951946 
L 101.567035 254.502372 
L 103.198465 254.873086 
L 106.461325 253.721815 
L 108.092755 254.850917 
L 109.724185 255.686815 
L 111.355614 253.438445 
L 112.987044 254.127635 
L 114.618474 251.922226 
L 116.249904 252.966699 
L 117.881334 252.990136 
L 119.512764 251.586481 
L 121.144194 253.891128 
L 122.775624 252.433376 
L 124.407053 254.686359 
L 126.038483 252.455441 
L 127.669913 252.825641 
L 129.301343 254.457919 
L 130.932773 251.525794 
L 132.564203 255.007163 
L 134.195633 253.211179 
L 135.827063 255.146258 
L 137.458492 250.73242 
L 139.089922 254.206307 
L 140.721352 252.410761 
L 142.352782 253.55089 
L 143.984212 252.690047 
L 145.615642 253.443626 
L 147.247072 253.340509 
L 148.878502 253.902008 
L 150.509931 254.272854 
L 152.141361 253.344845 
L 153.772791 250.91957 
L 155.404221 251.43215 
L 157.035651 250.266701 
L 158.667081 250.753368 
L 160.298511 249.297687 
L 161.929941 251.468306 
L 163.56137 251.011083 
L 165.1928 252.917279 
L 166.82423 251.722717 
L 168.45566 252.149713 
L 170.08709 251.853472 
L 171.71852 253.584641 
L 173.34995 253.031176 
L 174.98138 250.800372 
L 176.61281 251.781924 
L 178.244239 251.280184 
L 179.875669 249.776006 
L 181.507099 248.658026 
L 183.138529 250.916742 
L 184.769959 246.916734 
L 186.401389 249.573135 
L 188.032819 251.736753 
L 189.664249 252.353457 
L 191.295678 251.536547 
L 192.927108 252.293481 
L 194.558538 251.217193 
L 196.189968 249.597365 
L 197.821398 250.055437 
L 199.452828 249.273445 
L 201.084258 247.376214 
L 202.715688 248.335338 
L 204.347117 249.97223 
L 205.978547 246.805435 
L 207.609977 248.125955 
L 209.241407 250.605782 
L 210.872837 246.994021 
L 212.504267 247.165054 
L 214.135697 246.591501 
L 215.767127 248.478204 
L 219.029986 245.989984 
L 220.661416 248.798701 
L 222.292846 244.820605 
L 223.924276 245.393799 
L 225.555706 244.76707 
L 227.187136 247.637007 
L 228.818566 248.270256 
L 230.449995 248.092074 
L 232.081425 244.256969 
L 233.712855 248.066001 
L 235.344285 249.570169 
L 236.975715 249.179983 
L 238.607145 250.49764 
L 240.238575 250.525477 
L 241.870005 250.256436 
L 245.132864 247.312753 
L 246.764294 250.419996 
L 248.395724 251.243331 
L 250.027154 248.643151 
L 251.658584 245.369368 
L 253.290014 243.717752 
L 254.921444 244.920095 
L 256.552873 242.240452 
L 258.184303 242.351287 
L 259.815733 243.484891 
L 261.447163 244.277654 
L 263.078593 245.622348 
L 264.710023 247.704464 
L 266.341453 242.094079 
L 267.972883 247.214543 
L 269.604312 243.056356 
L 271.235742 247.431884 
L 272.867172 246.203835 
L 274.498602 246.900723 
L 276.130032 244.48527 
L 277.761462 247.202846 
L 279.392892 247.382708 
L 281.024322 243.790591 
L 282.655751 244.661153 
L 284.287181 247.005349 
L 285.918611 248.331333 
L 287.550041 246.91729 
L 289.181471 249.22877 
L 290.812901 246.969954 
L 292.444331 243.736668 
L 294.075761 248.229887 
L 295.70719 246.404668 
L 297.33862 249.419391 
L 298.97005 249.158816 
L 300.60148 249.604592 
L 302.23291 249.40542 
L 303.86434 246.745982 
L 305.49577 249.26997 
L 307.1272 249.846571 
L 308.75863 248.857066 
L 310.390059 252.122302 
L 312.021489 251.902071 
L 313.652919 249.428174 
L 315.284349 250.429303 
L 316.915779 248.84726 
L 318.547209 248.131686 
L 320.178639 250.275985 
L 321.810069 246.637175 
L 323.441498 250.522729 
L 325.072928 244.575693 
L 326.704358 251.472657 
L 328.335788 248.855396 
L 329.967218 248.970432 
L 331.598648 249.277304 
L 333.230078 247.989734 
L 334.861508 247.602623 
L 336.492937 245.441169 
L 338.124367 247.671946 
L 339.755797 244.334432 
L 341.387227 249.998808 
L 343.018657 248.772552 
L 344.650087 250.502844 
L 346.281517 250.198067 
L 347.912947 249.489268 
L 349.544376 251.258224 
L 351.175806 248.235935 
L 352.807236 249.496192 
L 354.438666 247.14501 
L 356.070096 249.284165 
L 357.701526 250.918375 
L 359.332956 249.432187 
L 360.964386 247.197255 
L 362.595815 245.869405 
L 364.227245 245.912206 
L 365.858675 246.205927 
L 367.490105 244.702095 
L 369.121535 242.526518 
L 370.752965 245.41261 
L 372.384395 247.431378 
L 374.015825 242.272711 
L 375.647254 242.573209 
L 377.278684 242.413649 
L 378.910114 242.995374 
L 380.541544 243.798491 
L 382.172974 242.150075 
L 385.435834 244.306538 
L 387.067264 245.819031 
L 388.698693 245.838531 
L 390.330123 247.794813 
L 391.961553 244.344863 
L 393.592983 243.157033 
L 395.224413 246.000183 
L 396.855843 246.359845 
L 398.487273 242.987647 
L 398.487273 242.987647 
" clip-path="url(#p5ad3bf7876)" style="fill: none; stroke: #0000ff; stroke-width: 1.5; stroke-linecap: square"/>
   </g>
   <g id="line2d_36">
    <path d="M 73.832727 279.074098 
L 75.464157 278.916615 
L 77.095587 275.067126 
L 78.727017 271.629446 
L 80.358447 269.733664 
L 81.989877 270.09643 
L 83.621307 269.418411 
L 85.252736 271.314906 
L 86.884166 270.879576 
L 88.515596 270.25745 
L 90.147026 267.975688 
L 91.778456 266.896235 
L 93.409886 266.699788 
L 95.041316 266.137519 
L 96.672746 266.959527 
L 98.304175 266.82665 
L 99.935605 274.353091 
L 101.567035 270.942999 
L 103.198465 271.736847 
L 104.829895 272.675764 
L 106.461325 272.025739 
L 108.092755 274.045866 
L 109.724185 275.742321 
L 111.355614 272.268005 
L 112.987044 275.541571 
L 114.618474 272.004278 
L 117.881334 272.039716 
L 119.512764 270.263407 
L 121.144194 279.09312 
L 122.775624 275.217791 
L 124.407053 279.846947 
L 126.038483 276.705583 
L 127.669913 275.487362 
L 129.301343 272.333792 
L 130.932773 279.400662 
L 132.564203 282.008607 
L 134.195633 279.809951 
L 135.827063 282.225369 
L 139.089922 280.777513 
L 140.721352 282.575994 
L 142.352782 280.247201 
L 143.984212 283.652437 
L 145.615642 280.292753 
L 147.247072 279.725837 
L 148.878502 280.479129 
L 150.509931 281.103473 
L 152.141361 279.822026 
L 153.772791 280.120416 
L 155.404221 278.843635 
L 157.035651 280.920644 
L 158.667081 280.487217 
L 160.298511 282.486849 
L 161.929941 282.84639 
L 163.56137 276.633405 
L 165.1928 279.061737 
L 166.82423 277.749984 
L 168.45566 278.310575 
L 170.08709 277.645684 
L 171.71852 279.930633 
L 173.34995 279.487624 
L 174.98138 276.295088 
L 176.61281 281.816496 
L 178.244239 281.175121 
L 179.875669 285.574267 
L 181.507099 284.36061 
L 183.138529 283.994779 
L 184.769959 285.276793 
L 188.032819 277.565579 
L 189.664249 278.556594 
L 191.295678 277.04758 
L 192.927108 278.09171 
L 194.558538 276.918063 
L 196.189968 281.785476 
L 197.821398 278.35091 
L 199.452828 284.708168 
L 201.084258 284.223684 
L 202.715688 286.374161 
L 204.347117 285.929921 
L 205.978547 283.032322 
L 207.609977 288.776454 
L 209.241407 287.647846 
L 210.872837 286.897019 
L 212.504267 283.262436 
L 214.135697 286.376674 
L 215.767127 287.02072 
L 217.398556 286.598225 
L 219.029986 286.819087 
L 220.661416 287.700796 
L 222.292846 285.672753 
L 223.924276 287.285961 
L 225.555706 285.750017 
L 227.187136 283.091916 
L 228.818566 285.203812 
L 230.449995 284.019558 
L 232.081425 285.821424 
L 233.712855 284.690836 
L 235.344285 283.12622 
L 236.975715 288.545769 
L 238.607145 280.790592 
L 240.238575 281.697775 
L 241.870005 281.410016 
L 243.501434 288.633053 
L 245.132864 284.267937 
L 246.764294 285.587951 
L 248.395724 288.035683 
L 250.027154 285.313458 
L 251.658584 290.699043 
L 253.290014 291.330217 
L 254.921444 293.235276 
L 256.552873 290.801823 
L 258.184303 293.956848 
L 259.815733 293.098609 
L 261.447163 295.25802 
L 263.078593 293.221421 
L 264.710023 292.856195 
L 266.341453 293.101825 
L 267.972883 292.265874 
L 271.235742 292.61735 
L 272.867172 293.771563 
L 274.498602 291.166451 
L 276.130032 292.303208 
L 277.761462 295.377625 
L 279.392892 293.622077 
L 281.024322 295.488 
L 282.655751 293.438779 
L 284.287181 292.09129 
L 287.550041 291.905278 
L 290.812901 290.366516 
L 292.444331 293.129685 
L 294.075761 290.105432 
L 295.70719 291.893722 
L 297.33862 287.262019 
L 298.97005 288.143456 
L 300.60148 286.309544 
L 302.23291 286.113235 
L 303.86434 286.499916 
L 305.49577 284.741054 
L 307.1272 288.160233 
L 308.75863 290.832189 
L 310.390059 287.099278 
L 312.021489 287.372513 
L 313.652919 284.214801 
L 315.284349 286.513966 
L 316.915779 285.612275 
L 318.547209 285.092337 
L 320.178639 285.559025 
L 321.810069 288.972282 
L 323.441498 290.460892 
L 325.072928 290.705855 
L 326.704358 288.486913 
L 328.335788 284.713655 
L 329.967218 286.80516 
L 331.598648 287.38535 
L 333.230078 287.456706 
L 334.861508 286.115163 
L 336.492937 291.19952 
L 338.124367 288.456357 
L 339.755797 289.467463 
L 341.387227 289.498164 
L 343.018657 287.821808 
L 344.650087 286.67816 
L 346.281517 287.424279 
L 347.912947 285.640752 
L 349.544376 287.972158 
L 351.175806 286.314403 
L 352.807236 284.44062 
L 354.438666 284.845715 
L 356.070096 286.391541 
L 357.701526 288.45926 
L 359.332956 288.067446 
L 360.964386 287.540507 
L 362.595815 287.566724 
L 364.227245 289.375143 
L 365.858675 288.872553 
L 367.490105 288.923609 
L 369.121535 290.687099 
L 370.752965 291.853854 
L 372.384395 292.541089 
L 374.015825 287.333677 
L 375.647254 290.914338 
L 377.278684 292.088843 
L 378.910114 292.527741 
L 380.541544 292.278268 
L 382.172974 294.095354 
L 383.804404 292.207249 
L 385.435834 293.741012 
L 387.067264 292.84971 
L 388.698693 292.229852 
L 390.330123 295.256682 
L 391.961553 290.000077 
L 393.592983 292.901818 
L 395.224413 293.363385 
L 396.855843 291.857512 
L 398.487273 292.106347 
L 398.487273 292.106347 
" clip-path="url(#p5ad3bf7876)" style="fill: none; stroke-dasharray: 9.6,2.4,1.5,2.4; stroke-dashoffset: 0; stroke: #008000; stroke-width: 1.5"/>
   </g>
   <g id="line2d_37">
    <path d="M 73.832727 247.509677 
L 75.464157 248.415616 
L 77.095587 244.767793 
L 78.727017 241.846344 
L 81.989877 241.845266 
L 83.621307 243.439069 
L 85.252736 242.122206 
L 86.884166 238.840663 
L 88.515596 239.542157 
L 90.147026 242.54508 
L 91.778456 242.848796 
L 93.409886 243.421643 
L 96.672746 242.956498 
L 98.304175 242.239078 
L 99.935605 235.550801 
L 101.567035 238.061745 
L 103.198465 238.009325 
L 104.829895 235.891404 
L 106.461325 235.417891 
L 108.092755 235.655967 
L 109.724185 235.631308 
L 111.355614 234.608885 
L 112.987044 232.7137 
L 114.618474 231.840174 
L 116.249904 233.920827 
L 117.881334 233.940556 
L 119.512764 232.909554 
L 121.144194 228.689136 
L 122.775624 229.648962 
L 124.407053 229.52577 
L 126.038483 228.205298 
L 127.669913 230.163921 
L 129.301343 236.582046 
L 130.932773 223.650926 
L 132.564203 228.005719 
L 134.195633 226.612406 
L 135.827063 228.067146 
L 137.458492 219.983996 
L 139.089922 227.635101 
L 140.721352 222.245528 
L 142.352782 226.854579 
L 143.984212 221.727657 
L 145.615642 226.594498 
L 148.878502 227.324888 
L 150.509931 227.442235 
L 152.141361 226.867665 
L 153.772791 221.718724 
L 155.404221 224.020664 
L 157.035651 219.612759 
L 158.667081 221.01952 
L 160.298511 216.108525 
L 161.929941 220.090222 
L 163.56137 225.388761 
L 165.1928 226.772821 
L 166.82423 225.695449 
L 168.45566 225.98885 
L 170.08709 226.061261 
L 171.71852 227.23865 
L 173.34995 226.574728 
L 174.98138 225.305657 
L 176.61281 221.747353 
L 178.244239 221.385246 
L 179.875669 213.977746 
L 181.507099 212.955441 
L 183.138529 217.838705 
L 184.769959 208.556675 
L 186.401389 217.594624 
L 188.032819 225.907927 
L 189.664249 226.150321 
L 191.295678 226.025515 
L 192.927108 226.495252 
L 194.558538 225.516323 
L 196.189968 217.409254 
L 197.821398 221.759964 
L 199.452828 213.838721 
L 201.084258 210.528743 
L 202.715688 210.296516 
L 204.347117 214.01454 
L 205.978547 210.578548 
L 207.609977 207.475456 
L 209.241407 213.563718 
L 210.872837 207.091023 
L 212.504267 211.067672 
L 214.135697 206.806328 
L 215.767127 209.935688 
L 217.398556 207.830223 
L 219.029986 205.16088 
L 220.661416 209.896607 
L 222.292846 203.968458 
L 223.924276 203.501636 
L 225.555706 203.784124 
L 227.187136 212.182098 
L 228.818566 211.336699 
L 230.449995 212.16459 
L 232.081425 202.692513 
L 233.712855 211.441166 
L 235.344285 216.014117 
L 236.975715 209.814198 
L 238.607145 220.204689 
L 240.238575 219.35318 
L 241.870005 219.102857 
L 243.501434 209.081245 
L 245.132864 210.357569 
L 246.764294 215.25204 
L 248.395724 214.450978 
L 250.027154 211.972844 
L 251.658584 200.039694 
L 253.290014 196.105286 
L 254.921444 196.604913 
L 258.184303 190.745727 
L 259.815733 193.871173 
L 261.447163 193.297288 
L 264.710023 202.552734 
L 266.341453 191.086333 
L 267.972883 202.163212 
L 269.604312 193.635137 
L 271.235742 202.246419 
L 272.867172 198.636107 
L 274.498602 202.634995 
L 276.130032 196.667332 
L 277.761462 199.028067 
L 279.392892 201.14334 
L 281.024322 192.093182 
L 282.655751 195.883528 
L 284.287181 201.919409 
L 285.918611 204.677901 
L 287.550041 201.929301 
L 289.181471 207.305101 
L 290.812901 203.573393 
L 292.444331 194.343651 
L 294.075761 206.354342 
L 295.70719 200.915615 
L 297.33862 211.576762 
L 298.97005 210.174176 
L 300.60148 212.89964 
L 302.23291 212.697605 
L 303.86434 206.992049 
L 305.49577 213.798886 
L 307.1272 211.532909 
L 308.75863 206.881943 
L 310.390059 217.145326 
L 312.021489 216.431628 
L 313.652919 214.641547 
L 315.284349 214.344639 
L 316.915779 212.082246 
L 318.547209 211.171034 
L 320.178639 214.992944 
L 321.810069 204.302068 
L 323.441498 210.584565 
L 325.072928 198.445531 
L 326.704358 214.458401 
L 328.335788 212.997138 
L 329.967218 211.135704 
L 331.598648 211.169259 
L 333.230078 208.522763 
L 334.861508 209.090084 
L 336.492937 199.682817 
L 338.124367 206.887535 
L 339.755797 199.201401 
L 341.387227 210.499452 
L 343.018657 209.723295 
L 344.650087 214.327527 
L 346.281517 212.971854 
L 347.912947 213.337783 
L 349.544376 214.544289 
L 351.175806 210.157467 
L 352.807236 214.551764 
L 354.438666 209.444305 
L 356.070096 212.176789 
L 357.701526 213.377491 
L 359.332956 210.796928 
L 360.964386 206.854002 
L 362.595815 204.172087 
L 364.227245 202.449269 
L 365.858675 203.539301 
L 367.490105 200.480581 
L 369.121535 194.365936 
L 370.752965 198.971366 
L 372.384395 202.321666 
L 374.015825 197.211745 
L 375.647254 194.23208 
L 377.278684 192.738455 
L 378.910114 193.463008 
L 380.541544 195.318714 
L 382.172974 190.204796 
L 383.804404 194.218373 
L 385.435834 194.872064 
L 387.067264 198.788352 
L 388.698693 199.447209 
L 390.330123 200.332944 
L 391.961553 198.689649 
L 393.592983 193.412249 
L 395.224413 198.636982 
L 396.855843 200.862178 
L 398.487273 193.868947 
L 398.487273 193.868947 
" clip-path="url(#p5ad3bf7876)" style="fill: none; stroke-dasharray: 9.6,2.4,1.5,2.4; stroke-dashoffset: 0; stroke: #008000; stroke-width: 1.5"/>
   </g>
   <g id="line2d_38">
    <path d="M 73.832727 167.780224 
L 98.304175 167.780224 
L 99.935605 106.761599 
L 119.512764 106.761599 
L 121.144194 105.310467 
L 129.301343 105.310467 
L 130.932773 54.896575 
L 250.027154 54.896575 
L 251.658584 53.568 
L 398.487273 53.568 
L 398.487273 53.568 
" clip-path="url(#p5ad3bf7876)" style="fill: none; stroke: #ff0000; stroke-width: 1.5; stroke-linecap: square"/>
   </g>
   <g id="patch_3">
    <path d="M 57.6 307.584 
L 57.6 41.472 
" style="fill: none; stroke: #000000; stroke-width: 0.8; stroke-linejoin: miter; stroke-linecap: square"/>
   </g>
   <g id="patch_4">
    <path d="M 414.72 307.584 
L 414.72 41.472 
" style="fill: none; stroke: #000000; stroke-width: 0.8; stroke-linejoin: miter; stroke-linecap: square"/>
   </g>
   <g id="patch_5">
    <path d="M 57.6 307.584 
L 414.72 307.584 
" style="fill: none; stroke: #000000; stroke-width: 0.8; stroke-linejoin: miter; stroke-linecap: square"/>
   </g>
   <g id="patch_6">
    <path d="M 57.6 41.472 
L 414.72 41.472 
" style="fill: none; stroke: #000000; stroke-width: 0.8; stroke-linejoin: miter; stroke-linecap: square"/>
   </g>
   <g id="text_20">
    <!-- Population's average and best fitness -->
    <g transform="translate(123.529687 35.472) scale(0.12 -0.12)">
     <defs>
      <path id="DejaVuSans-50" d="M 1259 4147 
L 1259 2394 
L 2053 2394 
Q 2494 2394 2734 2622 
Q 2975 2850 2975 3272 
Q 2975 3691 2734 3919 
Q 2494 4147 2053 4147 
L 1259 4147 
z
M 628 4666 
L 2053 4666 
Q 2838 4666 3239 4311 
Q 3641 3956 3641 3272 
Q 3641 2581 3239 2228 
Q 2838 1875 2053 1875 
L 1259 1875 
L 1259 0 
L 628 0 
L 628 4666 
z
" transform="scale(0.015625)"/>
      <path id="DejaVuSans-70" d="M 1159 525 
L 1159 -1331 
L 581 -1331 
L 581 3500 
L 1159 3500 
L 1159 2969 
Q 1341 3281 1617 3432 
Q 1894 3584 2278 3584 
Q 2916 3584 3314 3078 
Q 3713 2572 3713 1747 
Q 3713 922 3314 415 
Q 2916 -91 2278 -91 
Q 1894 -91 1617 61 
Q 1341 213 1159 525 
z
M 3116 1747 
Q 3116 2381 2855 2742 
Q 2594 3103 2138 3103 
Q 1681 3103 1420 2742 
Q 1159 2381 1159 1747 
Q 1159 1113 1420 752 
Q 1681 391 2138 391 
Q 2594 391 2855 752 
Q 3116 1113 3116 1747 
z
" transform="scale(0.015625)"/>
      <path id="DejaVuSans-75" d="M 544 1381 
L 544 3500 
L 1119 3500 
L 1119 1403 
Q 1119 906 1312 657 
Q 1506 409 1894 409 
Q 2359 409 2629 706 
Q 2900 1003 2900 1516 
L 2900 3500 
L 3475 3500 
L 3475 0 
L 2900 0 
L 2900 538 
Q 2691 219 2414 64 
Q 2138 -91 1772 -91 
Q 1169 -91 856 284 
Q 544 659 544 1381 
z
M 1991 3584 
L 1991 3584 
z
" transform="scale(0.015625)"/>
      <path id="DejaVuSans-6c" d="M 603 4863 
L 1178 4863 
L 1178 0 
L 603 0 
L 603 4863 
z
" transform="scale(0.015625)"/>
      <path id="DejaVuSans-27" d="M 1147 4666 
L 1147 2931 
L 616 2931 
L 616 4666 
L 1147 4666 
z
" transform="scale(0.015625)"/>
      <path id="DejaVuSans-20" transform="scale(0.015625)"/>
      <path id="DejaVuSans-76" d="M 191 3500 
L 800 3500 
L 1894 563 
L 2988 3500 
L 3597 3500 
L 2284 0 
L 1503 0 
L 191 3500 
z
" transform="scale(0.015625)"/>
      <path id="DejaVuSans-67" d="M 2906 1791 
Q 2906 2416 2648 2759 
Q 2391 3103 1925 3103 
Q 1463 3103 1205 2759 
Q 947 2416 947 1791 
Q 947 1169 1205 825 
Q 1463 481 1925 481 
Q 2391 481 2648 825 
Q 2906 1169 2906 1791 
z
M 3481 434 
Q 3481 -459 3084 -895 
Q 2688 -1331 1869 -1331 
Q 1566 -1331 1297 -1286 
Q 1028 -1241 775 -1147 
L 775 -588 
Q 1028 -725 1275 -790 
Q 1522 -856 1778 -856 
Q 2344 -856 2625 -561 
Q 2906 -266 2906 331 
L 2906 616 
Q 2728 306 2450 153 
Q 2172 0 1784 0 
Q 1141 0 747 490 
Q 353 981 353 1791 
Q 353 2603 747 3093 
Q 1141 3584 1784 3584 
Q 2172 3584 2450 3431 
Q 2728 3278 2906 2969 
L 2906 3500 
L 3481 3500 
L 3481 434 
z
" transform="scale(0.015625)"/>
      <path id="DejaVuSans-64" d="M 2906 2969 
L 2906 4863 
L 3481 4863 
L 3481 0 
L 2906 0 
L 2906 525 
Q 2725 213 2448 61 
Q 2172 -91 1784 -91 
Q 1150 -91 751 415 
Q 353 922 353 1747 
Q 353 2572 751 3078 
Q 1150 3584 1784 3584 
Q 2172 3584 2448 3432 
Q 2725 3281 2906 2969 
z
M 947 1747 
Q 947 1113 1208 752 
Q 1469 391 1925 391 
Q 2381 391 2643 752 
Q 2906 1113 2906 1747 
Q 2906 2381 2643 2742 
Q 2381 3103 1925 3103 
Q 1469 3103 1208 2742 
Q 947 2381 947 1747 
z
" transform="scale(0.015625)"/>
      <path id="DejaVuSans-62" d="M 3116 1747 
Q 3116 2381 2855 2742 
Q 2594 3103 2138 3103 
Q 1681 3103 1420 2742 
Q 1159 2381 1159 1747 
Q 1159 1113 1420 752 
Q 1681 391 2138 391 
Q 2594 391 2855 752 
Q 3116 1113 3116 1747 
z
M 1159 2969 
Q 1341 3281 1617 3432 
Q 1894 3584 2278 3584 
Q 2916 3584 3314 3078 
Q 3713 2572 3713 1747 
Q 3713 922 3314 415 
Q 2916 -91 2278 -91 
Q 1894 -91 1617 61 
Q 1341 213 1159 525 
L 1159 0 
L 581 0 
L 581 4863 
L 1159 4863 
L 1159 2969 
z
" transform="scale(0.015625)"/>
      <path id="DejaVuSans-66" d="M 2375 4863 
L 2375 4384 
L 1825 4384 
Q 1516 4384 1395 4259 
Q 1275 4134 1275 3809 
L 1275 3500 
L 2222 3500 
L 2222 3053 
L 1275 3053 
L 1275 0 
L 697 0 
L 697 3053 
L 147 3053 
L 147 3500 
L 697 3500 
L 697 3744 
Q 697 4328 969 4595 
Q 1241 4863 1831 4863 
L 2375 4863 
z
" transform="scale(0.015625)"/>
     </defs>
     <use xlink:href="#DejaVuSans-50"/>
     <use xlink:href="#DejaVuSans-6f" x="56.677734"/>
     <use xlink:href="#DejaVuSans-70" x="117.859375"/>
     <use xlink:href="#DejaVuSans-75" x="181.335938"/>
     <use xlink:href="#DejaVuSans-6c" x="244.714844"/>
     <use xlink:href="#DejaVuSans-61" x="272.498047"/>
     <use xlink:href="#DejaVuSans-74" x="333.777344"/>
     <use xlink:href="#DejaVuSans-69" x="372.986328"/>
     <use xlink:href="#DejaVuSans-6f" x="400.769531"/>
     <use xlink:href="#DejaVuSans-6e" x="461.951172"/>
     <use xlink:href="#DejaVuSans-27" x="525.330078"/>
     <use xlink:href="#DejaVuSans-73" x="552.820312"/>
     <use xlink:href="#DejaVuSans-20" x="604.919922"/>
     <use xlink:href="#DejaVuSans-61" x="636.707031"/>
     <use xlink:href="#DejaVuSans-76" x="697.986328"/>
     <use xlink:href="#DejaVuSans-65" x="757.166016"/>
     <use xlink:href="#DejaVuSans-72" x="818.689453"/>
     <use xlink:href="#DejaVuSans-61" x="859.802734"/>
     <use xlink:href="#DejaVuSans-67" x="921.082031"/>
     <use xlink:href="#DejaVuSans-65" x="984.558594"/>
     <use xlink:href="#DejaVuSans-20" x="1046.082031"/>
     <use xlink:href="#DejaVuSans-61" x="1077.869141"/>
     <use xlink:href="#DejaVuSans-6e" x="1139.148438"/>
     <use xlink:href="#DejaVuSans-64" x="1202.527344"/>
     <use xlink:href="#DejaVuSans-20" x="1266.003906"/>
     <use xlink:href="#DejaVuSans-62" x="1297.791016"/>
     <use xlink:href="#DejaVuSans-65" x="1361.267578"/>
     <use xlink:href="#DejaVuSans-73" x="1422.791016"/>
     <use xlink:href="#DejaVuSans-74" x="1474.890625"/>
     <use xlink:href="#DejaVuSans-20" x="1514.099609"/>
     <use xlink:href="#DejaVuSans-66" x="1545.886719"/>
     <use xlink:href="#DejaVuSans-69" x="1581.091797"/>
     <use xlink:href="#DejaVuSans-74" x="1608.875"/>
     <use xlink:href="#DejaVuSans-6e" x="1648.083984"/>
     <use xlink:href="#DejaVuSans-65" x="1711.462891"/>
     <use xlink:href="#DejaVuSans-73" x="1772.986328"/>
     <use xlink:href="#DejaVuSans-73" x="1825.085938"/>
    </g>
   </g>
   <g id="legend_1">
    <g id="patch_7">
     <path d="M 64.6 205.38425 
L 137.540625 205.38425 
Q 139.540625 205.38425 139.540625 203.38425 
L 139.540625 145.67175 
Q 139.540625 143.67175 137.540625 143.67175 
L 64.6 143.67175 
Q 62.6 143.67175 62.6 145.67175 
L 62.6 203.38425 
Q 62.6 205.38425 64.6 205.38425 
z
" style="fill: #ffffff; opacity: 0.8; stroke: #cccccc; stroke-linejoin: miter"/>
    </g>
    <g id="line2d_39">
     <path d="M 66.6 151.770188 
L 76.6 151.770188 
L 86.6 151.770188 
" style="fill: none; stroke: #0000ff; stroke-width: 1.5; stroke-linecap: square"/>
    </g>
    <g id="text_21">
     <!-- average -->
     <g transform="translate(94.6 155.270188) scale(0.1 -0.1)">
      <use xlink:href="#DejaVuSans-61"/>
      <use xlink:href="#DejaVuSans-76" x="61.279297"/>
      <use xlink:href="#DejaVuSans-65" x="120.458984"/>
      <use xlink:href="#DejaVuSans-72" x="181.982422"/>
      <use xlink:href="#DejaVuSans-61" x="223.095703"/>
      <use xlink:href="#DejaVuSans-67" x="284.375"/>
      <use xlink:href="#DejaVuSans-65" x="347.851562"/>
     </g>
    </g>
    <g id="line2d_40">
     <path d="M 66.6 166.448313 
L 76.6 166.448313 
L 86.6 166.448313 
" style="fill: none; stroke-dasharray: 9.6,2.4,1.5,2.4; stroke-dashoffset: 0; stroke: #008000; stroke-width: 1.5"/>
    </g>
    <g id="text_22">
     <!-- -1 sd -->
     <g transform="translate(94.6 169.948313) scale(0.1 -0.1)">
      <defs>
       <path id="DejaVuSans-2d" d="M 313 2009 
L 1997 2009 
L 1997 1497 
L 313 1497 
L 313 2009 
z
" transform="scale(0.015625)"/>
      </defs>
      <use xlink:href="#DejaVuSans-2d"/>
      <use xlink:href="#DejaVuSans-31" x="36.083984"/>
      <use xlink:href="#DejaVuSans-20" x="99.707031"/>
      <use xlink:href="#DejaVuSans-73" x="131.494141"/>
      <use xlink:href="#DejaVuSans-64" x="183.59375"/>
     </g>
    </g>
    <g id="line2d_41">
     <path d="M 66.6 181.126438 
L 76.6 181.126438 
L 86.6 181.126438 
" style="fill: none; stroke-dasharray: 9.6,2.4,1.5,2.4; stroke-dashoffset: 0; stroke: #008000; stroke-width: 1.5"/>
    </g>
    <g id="text_23">
     <!-- +1 sd -->
     <g transform="translate(94.6 184.626438) scale(0.1 -0.1)">
      <defs>
       <path id="DejaVuSans-2b" d="M 2944 4013 
L 2944 2272 
L 4684 2272 
L 4684 1741 
L 2944 1741 
L 2944 0 
L 2419 0 
L 2419 1741 
L 678 1741 
L 678 2272 
L 2419 2272 
L 2419 4013 
L 2944 4013 
z
" transform="scale(0.015625)"/>
      </defs>
      <use xlink:href="#DejaVuSans-2b"/>
      <use xlink:href="#DejaVuSans-31" x="83.789062"/>
      <use xlink:href="#DejaVuSans-20" x="147.412109"/>
      <use xlink:href="#DejaVuSans-73" x="179.199219"/>
      <use xlink:href="#DejaVuSans-64" x="231.298828"/>
     </g>
    </g>
    <g id="line2d_42">
     <path d="M 66.6 195.804563 
L 76.6 195.804563 
L 86.6 195.804563 
" style="fill: none; stroke: #ff0000; stroke-width: 1.5; stroke-linecap: square"/>
    </g>
    <g id="text_24">
     <!-- best -->
     <g transform="translate(94.6 199.304563) scale(0.1 -0.1)">
      <use xlink:href="#DejaVuSans-62"/>
      <use xlink:href="#DejaVuSans-65" x="63.476562"/>
      <use xlink:href="#DejaVuSans-73" x="125"/>
      <use xlink:href="#DejaVuSans-74" x="177.099609"/>
     </g>
    </g>
   </g>
  </g>
 </g>
 <defs>
  <clipPath id="p5ad3bf7876">
   <rect x="57.6" y="41.472" width="357.12" height="266.112"/>
  </clipPath>
 </defs>
</svg>
