<?xml version="1.0" encoding="utf-8" standalone="no"?>
<!DOCTYPE svg PUBLIC "-//W3C//DTD SVG 1.1//EN"
  "http://www.w3.org/Graphics/SVG/1.1/DTD/svg11.dtd">
<svg xmlns:xlink="http://www.w3.org/1999/xlink" width="460.8pt" height="345.6pt" viewBox="0 0 460.8 345.6" xmlns="http://www.w3.org/2000/svg" version="1.1">
 <metadata>
  <rdf:RDF xmlns:dc="http://purl.org/dc/elements/1.1/" xmlns:cc="http://creativecommons.org/ns#" xmlns:rdf="http://www.w3.org/1999/02/22-rdf-syntax-ns#">
   <cc:Work>
    <dc:type rdf:resource="http://purl.org/dc/dcmitype/StillImage"/>
    <dc:date>2024-08-09T03:38:50.864610</dc:date>
    <dc:format>image/svg+xml</dc:format>
    <dc:creator>
     <cc:Agent>
      <dc:title>Matplotlib v3.8.4, https://matplotlib.org/</dc:title>
     </cc:Agent>
    </dc:creator>
   </cc:Work>
  </rdf:RDF>
 </metadata>
 <defs>
  <style type="text/css">*{stroke-linejoin: round; stroke-linecap: butt}</style>
 </defs>
 <g id="figure_1">
  <g id="patch_1">
   <path d="M 0 345.6 
L 460.8 345.6 
L 460.8 0 
L 0 0 
z
" style="fill: #ffffff"/>
  </g>
  <g id="axes_1">
   <g id="patch_2">
    <path d="M 57.6 307.584 
L 414.72 307.584 
L 414.72 41.472 
L 57.6 41.472 
z
" style="fill: #ffffff"/>
   </g>
   <g id="matplotlib.axis_1">
    <g id="xtick_1">
     <g id="line2d_1">
      <path d="M 73.832727 307.584 
L 73.832727 41.472 
" clip-path="url(#p37d66b2cf2)" style="fill: none; stroke: #b0b0b0; stroke-width: 0.8; stroke-linecap: square"/>
     </g>
     <g id="line2d_2">
      <defs>
       <path id="m7a93c997f1" d="M 0 0 
L 0 3.5 
" style="stroke: #000000; stroke-width: 0.8"/>
      </defs>
      <g>
       <use xlink:href="#m7a93c997f1" x="73.832727" y="307.584" style="stroke: #000000; stroke-width: 0.8"/>
      </g>
     </g>
     <g id="text_1">
      <!-- 0 -->
      <g transform="translate(70.651477 322.182437) scale(0.1 -0.1)">
       <defs>
        <path id="DejaVuSans-30" d="M 2034 4250 
Q 1547 4250 1301 3770 
Q 1056 3291 1056 2328 
Q 1056 1369 1301 889 
Q 1547 409 2034 409 
Q 2525 409 2770 889 
Q 3016 1369 3016 2328 
Q 3016 3291 2770 3770 
Q 2525 4250 2034 4250 
z
M 2034 4750 
Q 2819 4750 3233 4129 
Q 3647 3509 3647 2328 
Q 3647 1150 3233 529 
Q 2819 -91 2034 -91 
Q 1250 -91 836 529 
Q 422 1150 422 2328 
Q 422 3509 836 4129 
Q 1250 4750 2034 4750 
z
" transform="scale(0.015625)"/>
       </defs>
       <use xlink:href="#DejaVuSans-30"/>
      </g>
     </g>
    </g>
    <g id="xtick_2">
     <g id="line2d_3">
      <path d="M 114.618474 307.584 
L 114.618474 41.472 
" clip-path="url(#p37d66b2cf2)" style="fill: none; stroke: #b0b0b0; stroke-width: 0.8; stroke-linecap: square"/>
     </g>
     <g id="line2d_4">
      <g>
       <use xlink:href="#m7a93c997f1" x="114.618474" y="307.584" style="stroke: #000000; stroke-width: 0.8"/>
      </g>
     </g>
     <g id="text_2">
      <!-- 25 -->
      <g transform="translate(108.255974 322.182437) scale(0.1 -0.1)">
       <defs>
        <path id="DejaVuSans-32" d="M 1228 531 
L 3431 531 
L 3431 0 
L 469 0 
L 469 531 
Q 828 903 1448 1529 
Q 2069 2156 2228 2338 
Q 2531 2678 2651 2914 
Q 2772 3150 2772 3378 
Q 2772 3750 2511 3984 
Q 2250 4219 1831 4219 
Q 1534 4219 1204 4116 
Q 875 4013 500 3803 
L 500 4441 
Q 881 4594 1212 4672 
Q 1544 4750 1819 4750 
Q 2544 4750 2975 4387 
Q 3406 4025 3406 3419 
Q 3406 3131 3298 2873 
Q 3191 2616 2906 2266 
Q 2828 2175 2409 1742 
Q 1991 1309 1228 531 
z
" transform="scale(0.015625)"/>
        <path id="DejaVuSans-35" d="M 691 4666 
L 3169 4666 
L 3169 4134 
L 1269 4134 
L 1269 2991 
Q 1406 3038 1543 3061 
Q 1681 3084 1819 3084 
Q 2600 3084 3056 2656 
Q 3513 2228 3513 1497 
Q 3513 744 3044 326 
Q 2575 -91 1722 -91 
Q 1428 -91 1123 -41 
Q 819 9 494 109 
L 494 744 
Q 775 591 1075 516 
Q 1375 441 1709 441 
Q 2250 441 2565 725 
Q 2881 1009 2881 1497 
Q 2881 1984 2565 2268 
Q 2250 2553 1709 2553 
Q 1456 2553 1204 2497 
Q 953 2441 691 2322 
L 691 4666 
z
" transform="scale(0.015625)"/>
       </defs>
       <use xlink:href="#DejaVuSans-32"/>
       <use xlink:href="#DejaVuSans-35" x="63.623047"/>
      </g>
     </g>
    </g>
    <g id="xtick_3">
     <g id="line2d_5">
      <path d="M 155.404221 307.584 
L 155.404221 41.472 
" clip-path="url(#p37d66b2cf2)" style="fill: none; stroke: #b0b0b0; stroke-width: 0.8; stroke-linecap: square"/>
     </g>
     <g id="line2d_6">
      <g>
       <use xlink:href="#m7a93c997f1" x="155.404221" y="307.584" style="stroke: #000000; stroke-width: 0.8"/>
      </g>
     </g>
     <g id="text_3">
      <!-- 50 -->
      <g transform="translate(149.041721 322.182437) scale(0.1 -0.1)">
       <use xlink:href="#DejaVuSans-35"/>
       <use xlink:href="#DejaVuSans-30" x="63.623047"/>
      </g>
     </g>
    </g>
    <g id="xtick_4">
     <g id="line2d_7">
      <path d="M 196.189968 307.584 
L 196.189968 41.472 
" clip-path="url(#p37d66b2cf2)" style="fill: none; stroke: #b0b0b0; stroke-width: 0.8; stroke-linecap: square"/>
     </g>
     <g id="line2d_8">
      <g>
       <use xlink:href="#m7a93c997f1" x="196.189968" y="307.584" style="stroke: #000000; stroke-width: 0.8"/>
      </g>
     </g>
     <g id="text_4">
      <!-- 75 -->
      <g transform="translate(189.827468 322.182437) scale(0.1 -0.1)">
       <defs>
        <path id="DejaVuSans-37" d="M 525 4666 
L 3525 4666 
L 3525 4397 
L 1831 0 
L 1172 0 
L 2766 4134 
L 525 4134 
L 525 4666 
z
" transform="scale(0.015625)"/>
       </defs>
       <use xlink:href="#DejaVuSans-37"/>
       <use xlink:href="#DejaVuSans-35" x="63.623047"/>
      </g>
     </g>
    </g>
    <g id="xtick_5">
     <g id="line2d_9">
      <path d="M 236.975715 307.584 
L 236.975715 41.472 
" clip-path="url(#p37d66b2cf2)" style="fill: none; stroke: #b0b0b0; stroke-width: 0.8; stroke-linecap: square"/>
     </g>
     <g id="line2d_10">
      <g>
       <use xlink:href="#m7a93c997f1" x="236.975715" y="307.584" style="stroke: #000000; stroke-width: 0.8"/>
      </g>
     </g>
     <g id="text_5">
      <!-- 100 -->
      <g transform="translate(227.431965 322.182437) scale(0.1 -0.1)">
       <defs>
        <path id="DejaVuSans-31" d="M 794 531 
L 1825 531 
L 1825 4091 
L 703 3866 
L 703 4441 
L 1819 4666 
L 2450 4666 
L 2450 531 
L 3481 531 
L 3481 0 
L 794 0 
L 794 531 
z
" transform="scale(0.015625)"/>
       </defs>
       <use xlink:href="#DejaVuSans-31"/>
       <use xlink:href="#DejaVuSans-30" x="63.623047"/>
       <use xlink:href="#DejaVuSans-30" x="127.246094"/>
      </g>
     </g>
    </g>
    <g id="xtick_6">
     <g id="line2d_11">
      <path d="M 277.761462 307.584 
L 277.761462 41.472 
" clip-path="url(#p37d66b2cf2)" style="fill: none; stroke: #b0b0b0; stroke-width: 0.8; stroke-linecap: square"/>
     </g>
     <g id="line2d_12">
      <g>
       <use xlink:href="#m7a93c997f1" x="277.761462" y="307.584" style="stroke: #000000; stroke-width: 0.8"/>
      </g>
     </g>
     <g id="text_6">
      <!-- 125 -->
      <g transform="translate(268.217712 322.182437) scale(0.1 -0.1)">
       <use xlink:href="#DejaVuSans-31"/>
       <use xlink:href="#DejaVuSans-32" x="63.623047"/>
       <use xlink:href="#DejaVuSans-35" x="127.246094"/>
      </g>
     </g>
    </g>
    <g id="xtick_7">
     <g id="line2d_13">
      <path d="M 318.547209 307.584 
L 318.547209 41.472 
" clip-path="url(#p37d66b2cf2)" style="fill: none; stroke: #b0b0b0; stroke-width: 0.8; stroke-linecap: square"/>
     </g>
     <g id="line2d_14">
      <g>
       <use xlink:href="#m7a93c997f1" x="318.547209" y="307.584" style="stroke: #000000; stroke-width: 0.8"/>
      </g>
     </g>
     <g id="text_7">
      <!-- 150 -->
      <g transform="translate(309.003459 322.182437) scale(0.1 -0.1)">
       <use xlink:href="#DejaVuSans-31"/>
       <use xlink:href="#DejaVuSans-35" x="63.623047"/>
       <use xlink:href="#DejaVuSans-30" x="127.246094"/>
      </g>
     </g>
    </g>
    <g id="xtick_8">
     <g id="line2d_15">
      <path d="M 359.332956 307.584 
L 359.332956 41.472 
" clip-path="url(#p37d66b2cf2)" style="fill: none; stroke: #b0b0b0; stroke-width: 0.8; stroke-linecap: square"/>
     </g>
     <g id="line2d_16">
      <g>
       <use xlink:href="#m7a93c997f1" x="359.332956" y="307.584" style="stroke: #000000; stroke-width: 0.8"/>
      </g>
     </g>
     <g id="text_8">
      <!-- 175 -->
      <g transform="translate(349.789206 322.182437) scale(0.1 -0.1)">
       <use xlink:href="#DejaVuSans-31"/>
       <use xlink:href="#DejaVuSans-37" x="63.623047"/>
       <use xlink:href="#DejaVuSans-35" x="127.246094"/>
      </g>
     </g>
    </g>
    <g id="xtick_9">
     <g id="line2d_17">
      <path d="M 400.118703 307.584 
L 400.118703 41.472 
" clip-path="url(#p37d66b2cf2)" style="fill: none; stroke: #b0b0b0; stroke-width: 0.8; stroke-linecap: square"/>
     </g>
     <g id="line2d_18">
      <g>
       <use xlink:href="#m7a93c997f1" x="400.118703" y="307.584" style="stroke: #000000; stroke-width: 0.8"/>
      </g>
     </g>
     <g id="text_9">
      <!-- 200 -->
      <g transform="translate(390.574953 322.182437) scale(0.1 -0.1)">
       <use xlink:href="#DejaVuSans-32"/>
       <use xlink:href="#DejaVuSans-30" x="63.623047"/>
       <use xlink:href="#DejaVuSans-30" x="127.246094"/>
      </g>
     </g>
    </g>
    <g id="text_10">
     <!-- Generations -->
     <g transform="translate(205.662344 335.860562) scale(0.1 -0.1)">
      <defs>
       <path id="DejaVuSans-47" d="M 3809 666 
L 3809 1919 
L 2778 1919 
L 2778 2438 
L 4434 2438 
L 4434 434 
Q 4069 175 3628 42 
Q 3188 -91 2688 -91 
Q 1594 -91 976 548 
Q 359 1188 359 2328 
Q 359 3472 976 4111 
Q 1594 4750 2688 4750 
Q 3144 4750 3555 4637 
Q 3966 4525 4313 4306 
L 4313 3634 
Q 3963 3931 3569 4081 
Q 3175 4231 2741 4231 
Q 1884 4231 1454 3753 
Q 1025 3275 1025 2328 
Q 1025 1384 1454 906 
Q 1884 428 2741 428 
Q 3075 428 3337 486 
Q 3600 544 3809 666 
z
" transform="scale(0.015625)"/>
       <path id="DejaVuSans-65" d="M 3597 1894 
L 3597 1613 
L 953 1613 
Q 991 1019 1311 708 
Q 1631 397 2203 397 
Q 2534 397 2845 478 
Q 3156 559 3463 722 
L 3463 178 
Q 3153 47 2828 -22 
Q 2503 -91 2169 -91 
Q 1331 -91 842 396 
Q 353 884 353 1716 
Q 353 2575 817 3079 
Q 1281 3584 2069 3584 
Q 2775 3584 3186 3129 
Q 3597 2675 3597 1894 
z
M 3022 2063 
Q 3016 2534 2758 2815 
Q 2500 3097 2075 3097 
Q 1594 3097 1305 2825 
Q 1016 2553 972 2059 
L 3022 2063 
z
" transform="scale(0.015625)"/>
       <path id="DejaVuSans-6e" d="M 3513 2113 
L 3513 0 
L 2938 0 
L 2938 2094 
Q 2938 2591 2744 2837 
Q 2550 3084 2163 3084 
Q 1697 3084 1428 2787 
Q 1159 2491 1159 1978 
L 1159 0 
L 581 0 
L 581 3500 
L 1159 3500 
L 1159 2956 
Q 1366 3272 1645 3428 
Q 1925 3584 2291 3584 
Q 2894 3584 3203 3211 
Q 3513 2838 3513 2113 
z
" transform="scale(0.015625)"/>
       <path id="DejaVuSans-72" d="M 2631 2963 
Q 2534 3019 2420 3045 
Q 2306 3072 2169 3072 
Q 1681 3072 1420 2755 
Q 1159 2438 1159 1844 
L 1159 0 
L 581 0 
L 581 3500 
L 1159 3500 
L 1159 2956 
Q 1341 3275 1631 3429 
Q 1922 3584 2338 3584 
Q 2397 3584 2469 3576 
Q 2541 3569 2628 3553 
L 2631 2963 
z
" transform="scale(0.015625)"/>
       <path id="DejaVuSans-61" d="M 2194 1759 
Q 1497 1759 1228 1600 
Q 959 1441 959 1056 
Q 959 750 1161 570 
Q 1363 391 1709 391 
Q 2188 391 2477 730 
Q 2766 1069 2766 1631 
L 2766 1759 
L 2194 1759 
z
M 3341 1997 
L 3341 0 
L 2766 0 
L 2766 531 
Q 2569 213 2275 61 
Q 1981 -91 1556 -91 
Q 1019 -91 701 211 
Q 384 513 384 1019 
Q 384 1609 779 1909 
Q 1175 2209 1959 2209 
L 2766 2209 
L 2766 2266 
Q 2766 2663 2505 2880 
Q 2244 3097 1772 3097 
Q 1472 3097 1187 3025 
Q 903 2953 641 2809 
L 641 3341 
Q 956 3463 1253 3523 
Q 1550 3584 1831 3584 
Q 2591 3584 2966 3190 
Q 3341 2797 3341 1997 
z
" transform="scale(0.015625)"/>
       <path id="DejaVuSans-74" d="M 1172 4494 
L 1172 3500 
L 2356 3500 
L 2356 3053 
L 1172 3053 
L 1172 1153 
Q 1172 725 1289 603 
Q 1406 481 1766 481 
L 2356 481 
L 2356 0 
L 1766 0 
Q 1100 0 847 248 
Q 594 497 594 1153 
L 594 3053 
L 172 3053 
L 172 3500 
L 594 3500 
L 594 4494 
L 1172 4494 
z
" transform="scale(0.015625)"/>
       <path id="DejaVuSans-69" d="M 603 3500 
L 1178 3500 
L 1178 0 
L 603 0 
L 603 3500 
z
M 603 4863 
L 1178 4863 
L 1178 4134 
L 603 4134 
L 603 4863 
z
" transform="scale(0.015625)"/>
       <path id="DejaVuSans-6f" d="M 1959 3097 
Q 1497 3097 1228 2736 
Q 959 2375 959 1747 
Q 959 1119 1226 758 
Q 1494 397 1959 397 
Q 2419 397 2687 759 
Q 2956 1122 2956 1747 
Q 2956 2369 2687 2733 
Q 2419 3097 1959 3097 
z
M 1959 3584 
Q 2709 3584 3137 3096 
Q 3566 2609 3566 1747 
Q 3566 888 3137 398 
Q 2709 -91 1959 -91 
Q 1206 -91 779 398 
Q 353 888 353 1747 
Q 353 2609 779 3096 
Q 1206 3584 1959 3584 
z
" transform="scale(0.015625)"/>
       <path id="DejaVuSans-73" d="M 2834 3397 
L 2834 2853 
Q 2591 2978 2328 3040 
Q 2066 3103 1784 3103 
Q 1356 3103 1142 2972 
Q 928 2841 928 2578 
Q 928 2378 1081 2264 
Q 1234 2150 1697 2047 
L 1894 2003 
Q 2506 1872 2764 1633 
Q 3022 1394 3022 966 
Q 3022 478 2636 193 
Q 2250 -91 1575 -91 
Q 1294 -91 989 -36 
Q 684 19 347 128 
L 347 722 
Q 666 556 975 473 
Q 1284 391 1588 391 
Q 1994 391 2212 530 
Q 2431 669 2431 922 
Q 2431 1156 2273 1281 
Q 2116 1406 1581 1522 
L 1381 1569 
Q 847 1681 609 1914 
Q 372 2147 372 2553 
Q 372 3047 722 3315 
Q 1072 3584 1716 3584 
Q 2034 3584 2315 3537 
Q 2597 3491 2834 3397 
z
" transform="scale(0.015625)"/>
      </defs>
      <use xlink:href="#DejaVuSans-47"/>
      <use xlink:href="#DejaVuSans-65" x="77.490234"/>
      <use xlink:href="#DejaVuSans-6e" x="139.013672"/>
      <use xlink:href="#DejaVuSans-65" x="202.392578"/>
      <use xlink:href="#DejaVuSans-72" x="263.916016"/>
      <use xlink:href="#DejaVuSans-61" x="305.029297"/>
      <use xlink:href="#DejaVuSans-74" x="366.308594"/>
      <use xlink:href="#DejaVuSans-69" x="405.517578"/>
      <use xlink:href="#DejaVuSans-6f" x="433.300781"/>
      <use xlink:href="#DejaVuSans-6e" x="494.482422"/>
      <use xlink:href="#DejaVuSans-73" x="557.861328"/>
     </g>
    </g>
   </g>
   <g id="matplotlib.axis_2">
    <g id="ytick_1">
     <g id="line2d_19">
      <path d="M 57.6 288.374119 
L 414.72 288.374119 
" clip-path="url(#p37d66b2cf2)" style="fill: none; stroke: #b0b0b0; stroke-width: 0.8; stroke-linecap: square"/>
     </g>
     <g id="line2d_20">
      <defs>
       <path id="md84b19ec57" d="M 0 0 
L -3.5 0 
" style="stroke: #000000; stroke-width: 0.8"/>
      </defs>
      <g>
       <use xlink:href="#md84b19ec57" x="57.6" y="288.374119" style="stroke: #000000; stroke-width: 0.8"/>
      </g>
     </g>
     <g id="text_11">
      <!-- −2000 -->
      <g transform="translate(16.770313 292.173337) scale(0.1 -0.1)">
       <defs>
        <path id="DejaVuSans-2212" d="M 678 2272 
L 4684 2272 
L 4684 1741 
L 678 1741 
L 678 2272 
z
" transform="scale(0.015625)"/>
       </defs>
       <use xlink:href="#DejaVuSans-2212"/>
       <use xlink:href="#DejaVuSans-32" x="83.789062"/>
       <use xlink:href="#DejaVuSans-30" x="147.412109"/>
       <use xlink:href="#DejaVuSans-30" x="211.035156"/>
       <use xlink:href="#DejaVuSans-30" x="274.658203"/>
      </g>
     </g>
    </g>
    <g id="ytick_2">
     <g id="line2d_21">
      <path d="M 57.6 251.716541 
L 414.72 251.716541 
" clip-path="url(#p37d66b2cf2)" style="fill: none; stroke: #b0b0b0; stroke-width: 0.8; stroke-linecap: square"/>
     </g>
     <g id="line2d_22">
      <g>
       <use xlink:href="#md84b19ec57" x="57.6" y="251.716541" style="stroke: #000000; stroke-width: 0.8"/>
      </g>
     </g>
     <g id="text_12">
      <!-- −1750 -->
      <g transform="translate(16.770313 255.515759) scale(0.1 -0.1)">
       <use xlink:href="#DejaVuSans-2212"/>
       <use xlink:href="#DejaVuSans-31" x="83.789062"/>
       <use xlink:href="#DejaVuSans-37" x="147.412109"/>
       <use xlink:href="#DejaVuSans-35" x="211.035156"/>
       <use xlink:href="#DejaVuSans-30" x="274.658203"/>
      </g>
     </g>
    </g>
    <g id="ytick_3">
     <g id="line2d_23">
      <path d="M 57.6 215.058963 
L 414.72 215.058963 
" clip-path="url(#p37d66b2cf2)" style="fill: none; stroke: #b0b0b0; stroke-width: 0.8; stroke-linecap: square"/>
     </g>
     <g id="line2d_24">
      <g>
       <use xlink:href="#md84b19ec57" x="57.6" y="215.058963" style="stroke: #000000; stroke-width: 0.8"/>
      </g>
     </g>
     <g id="text_13">
      <!-- −1500 -->
      <g transform="translate(16.770313 218.858181) scale(0.1 -0.1)">
       <use xlink:href="#DejaVuSans-2212"/>
       <use xlink:href="#DejaVuSans-31" x="83.789062"/>
       <use xlink:href="#DejaVuSans-35" x="147.412109"/>
       <use xlink:href="#DejaVuSans-30" x="211.035156"/>
       <use xlink:href="#DejaVuSans-30" x="274.658203"/>
      </g>
     </g>
    </g>
    <g id="ytick_4">
     <g id="line2d_25">
      <path d="M 57.6 178.401385 
L 414.72 178.401385 
" clip-path="url(#p37d66b2cf2)" style="fill: none; stroke: #b0b0b0; stroke-width: 0.8; stroke-linecap: square"/>
     </g>
     <g id="line2d_26">
      <g>
       <use xlink:href="#md84b19ec57" x="57.6" y="178.401385" style="stroke: #000000; stroke-width: 0.8"/>
      </g>
     </g>
     <g id="text_14">
      <!-- −1250 -->
      <g transform="translate(16.770313 182.200603) scale(0.1 -0.1)">
       <use xlink:href="#DejaVuSans-2212"/>
       <use xlink:href="#DejaVuSans-31" x="83.789062"/>
       <use xlink:href="#DejaVuSans-32" x="147.412109"/>
       <use xlink:href="#DejaVuSans-35" x="211.035156"/>
       <use xlink:href="#DejaVuSans-30" x="274.658203"/>
      </g>
     </g>
    </g>
    <g id="ytick_5">
     <g id="line2d_27">
      <path d="M 57.6 141.743807 
L 414.72 141.743807 
" clip-path="url(#p37d66b2cf2)" style="fill: none; stroke: #b0b0b0; stroke-width: 0.8; stroke-linecap: square"/>
     </g>
     <g id="line2d_28">
      <g>
       <use xlink:href="#md84b19ec57" x="57.6" y="141.743807" style="stroke: #000000; stroke-width: 0.8"/>
      </g>
     </g>
     <g id="text_15">
      <!-- −1000 -->
      <g transform="translate(16.770313 145.543025) scale(0.1 -0.1)">
       <use xlink:href="#DejaVuSans-2212"/>
       <use xlink:href="#DejaVuSans-31" x="83.789062"/>
       <use xlink:href="#DejaVuSans-30" x="147.412109"/>
       <use xlink:href="#DejaVuSans-30" x="211.035156"/>
       <use xlink:href="#DejaVuSans-30" x="274.658203"/>
      </g>
     </g>
    </g>
    <g id="ytick_6">
     <g id="line2d_29">
      <path d="M 57.6 105.086229 
L 414.72 105.086229 
" clip-path="url(#p37d66b2cf2)" style="fill: none; stroke: #b0b0b0; stroke-width: 0.8; stroke-linecap: square"/>
     </g>
     <g id="line2d_30">
      <g>
       <use xlink:href="#md84b19ec57" x="57.6" y="105.086229" style="stroke: #000000; stroke-width: 0.8"/>
      </g>
     </g>
     <g id="text_16">
      <!-- −750 -->
      <g transform="translate(23.132812 108.885447) scale(0.1 -0.1)">
       <use xlink:href="#DejaVuSans-2212"/>
       <use xlink:href="#DejaVuSans-37" x="83.789062"/>
       <use xlink:href="#DejaVuSans-35" x="147.412109"/>
       <use xlink:href="#DejaVuSans-30" x="211.035156"/>
      </g>
     </g>
    </g>
    <g id="ytick_7">
     <g id="line2d_31">
      <path d="M 57.6 68.428651 
L 414.72 68.428651 
" clip-path="url(#p37d66b2cf2)" style="fill: none; stroke: #b0b0b0; stroke-width: 0.8; stroke-linecap: square"/>
     </g>
     <g id="line2d_32">
      <g>
       <use xlink:href="#md84b19ec57" x="57.6" y="68.428651" style="stroke: #000000; stroke-width: 0.8"/>
      </g>
     </g>
     <g id="text_17">
      <!-- −500 -->
      <g transform="translate(23.132812 72.227869) scale(0.1 -0.1)">
       <use xlink:href="#DejaVuSans-2212"/>
       <use xlink:href="#DejaVuSans-35" x="83.789062"/>
       <use xlink:href="#DejaVuSans-30" x="147.412109"/>
       <use xlink:href="#DejaVuSans-30" x="211.035156"/>
      </g>
     </g>
    </g>
    <g id="text_18">
     <!-- Fitness -->
     <g transform="translate(10.690625 191.845187) rotate(-90) scale(0.1 -0.1)">
      <defs>
       <path id="DejaVuSans-46" d="M 628 4666 
L 3309 4666 
L 3309 4134 
L 1259 4134 
L 1259 2759 
L 3109 2759 
L 3109 2228 
L 1259 2228 
L 1259 0 
L 628 0 
L 628 4666 
z
" transform="scale(0.015625)"/>
      </defs>
      <use xlink:href="#DejaVuSans-46"/>
      <use xlink:href="#DejaVuSans-69" x="50.269531"/>
      <use xlink:href="#DejaVuSans-74" x="78.052734"/>
      <use xlink:href="#DejaVuSans-6e" x="117.261719"/>
      <use xlink:href="#DejaVuSans-65" x="180.640625"/>
      <use xlink:href="#DejaVuSans-73" x="242.164062"/>
      <use xlink:href="#DejaVuSans-73" x="294.263672"/>
     </g>
    </g>
   </g>
   <g id="line2d_33">
    <path d="M 73.832727 272.07025 
L 75.464157 270.728119 
L 77.095587 269.909858 
L 78.727017 267.77679 
L 80.358447 267.588159 
L 81.989877 266.100508 
L 83.621307 265.555946 
L 85.252736 266.053163 
L 86.884166 265.428167 
L 88.515596 265.145904 
L 90.147026 263.033413 
L 91.778456 265.763235 
L 93.409886 263.942795 
L 95.041316 264.534576 
L 98.304175 264.661893 
L 99.935605 264.458899 
L 101.567035 264.020394 
L 103.198465 265.227622 
L 104.829895 264.652802 
L 106.461325 265.821306 
L 108.092755 264.748744 
L 109.724185 264.813975 
L 112.987044 264.129232 
L 114.618474 264.414661 
L 116.249904 264.826736 
L 117.881334 263.978135 
L 119.512764 264.73018 
L 121.144194 263.529614 
L 122.775624 263.790657 
L 124.407053 263.169551 
L 126.038483 263.18417 
L 127.669913 262.168503 
L 132.564203 263.326841 
L 134.195633 262.690809 
L 135.827063 262.539995 
L 137.458492 263.665196 
L 139.089922 263.114038 
L 140.721352 263.728422 
L 142.352782 263.090578 
L 143.984212 262.989584 
L 145.615642 262.111641 
L 147.247072 263.671649 
L 148.878502 263.229715 
L 150.509931 261.594278 
L 152.141361 262.324101 
L 153.772791 262.91457 
L 157.035651 263.432619 
L 160.298511 260.762418 
L 161.929941 263.120078 
L 163.56137 262.707028 
L 165.1928 262.045046 
L 166.82423 262.204378 
L 168.45566 262.002828 
L 170.08709 261.618058 
L 171.71852 262.359368 
L 173.34995 262.221994 
L 174.98138 262.477389 
L 176.61281 262.490976 
L 178.244239 262.773928 
L 179.875669 262.797285 
L 183.138529 262.496601 
L 184.769959 262.708634 
L 186.401389 262.412292 
L 188.032819 262.98187 
L 192.927108 263.333643 
L 194.558538 263.842388 
L 196.189968 262.200171 
L 199.452828 262.312931 
L 201.084258 263.055867 
L 202.715688 262.31355 
L 204.347117 263.194562 
L 205.978547 262.236508 
L 207.609977 262.930753 
L 210.872837 262.582296 
L 212.504267 262.764368 
L 214.135697 261.356407 
L 215.767127 261.60477 
L 217.398556 263.295114 
L 219.029986 261.866876 
L 220.661416 261.791519 
L 222.292846 262.378987 
L 223.924276 262.113749 
L 225.555706 262.163151 
L 227.187136 261.842783 
L 228.818566 262.655988 
L 230.449995 261.958729 
L 232.081425 260.859756 
L 233.712855 261.154204 
L 235.344285 261.633248 
L 236.975715 261.59431 
L 241.870005 260.821051 
L 243.501434 261.856399 
L 245.132864 261.787701 
L 246.764294 261.218353 
L 248.395724 261.665839 
L 250.027154 261.045545 
L 251.658584 261.167526 
L 253.290014 261.135214 
L 254.921444 262.346821 
L 256.552873 261.714439 
L 258.184303 259.757683 
L 259.815733 261.440965 
L 261.447163 258.19653 
L 263.078593 260.286207 
L 264.710023 258.885202 
L 266.341453 261.526807 
L 267.972883 261.013424 
L 269.604312 260.818031 
L 271.235742 260.869836 
L 274.498602 261.880034 
L 276.130032 261.84149 
L 277.761462 261.425226 
L 279.392892 261.81747 
L 281.024322 261.684339 
L 282.655751 261.674891 
L 284.287181 261.249991 
L 285.918611 260.993813 
L 287.550041 260.533338 
L 289.181471 260.603721 
L 290.812901 260.966226 
L 292.444331 260.858884 
L 294.075761 261.218724 
L 295.70719 261.256607 
L 297.33862 261.636798 
L 298.97005 260.613193 
L 300.60148 261.438603 
L 302.23291 260.757609 
L 303.86434 260.476811 
L 305.49577 260.8208 
L 307.1272 260.811522 
L 308.75863 260.140645 
L 310.390059 261.269819 
L 312.021489 261.248522 
L 313.652919 260.734487 
L 315.284349 262.066305 
L 316.915779 260.289402 
L 318.547209 261.118373 
L 320.178639 260.082622 
L 321.810069 260.166857 
L 323.441498 261.215134 
L 325.072928 260.845931 
L 326.704358 260.963411 
L 328.335788 260.200393 
L 329.967218 260.559625 
L 331.598648 261.671748 
L 333.230078 260.921398 
L 334.861508 261.842925 
L 336.492937 261.841656 
L 338.124367 259.807659 
L 339.755797 260.589996 
L 341.387227 260.270659 
L 343.018657 260.744623 
L 344.650087 260.009134 
L 346.281517 261.067273 
L 347.912947 260.903717 
L 349.544376 258.548882 
L 351.175806 261.917433 
L 352.807236 261.375349 
L 354.438666 261.246873 
L 356.070096 261.405984 
L 357.701526 260.587699 
L 359.332956 260.993808 
L 360.964386 261.562116 
L 362.595815 260.881909 
L 364.227245 261.815923 
L 365.858675 261.038181 
L 367.490105 261.494664 
L 369.121535 261.694003 
L 370.752965 261.069496 
L 372.384395 261.150791 
L 374.015825 261.631202 
L 375.647254 260.883192 
L 377.278684 260.678438 
L 378.910114 261.839264 
L 380.541544 260.630724 
L 382.172974 260.973532 
L 385.435834 260.534186 
L 388.698693 260.62279 
L 390.330123 261.099541 
L 391.961553 261.735275 
L 393.592983 260.527197 
L 395.224413 260.81788 
L 396.855843 260.730738 
L 398.487273 260.873266 
L 398.487273 260.873266 
" clip-path="url(#p37d66b2cf2)" style="fill: none; stroke: #0000ff; stroke-width: 1.5; stroke-linecap: square"/>
   </g>
   <g id="line2d_34">
    <path d="M 73.832727 277.675232 
L 75.464157 276.315448 
L 77.095587 275.729707 
L 78.727017 278.132032 
L 80.358447 277.904202 
L 81.989877 278.200569 
L 83.621307 277.055149 
L 85.252736 278.150505 
L 86.884166 277.050022 
L 88.515596 278.117173 
L 90.147026 281.669092 
L 91.778456 281.025334 
L 93.409886 279.303642 
L 95.041316 279.674022 
L 98.304175 280.017383 
L 99.935605 279.253997 
L 101.567035 278.839406 
L 103.198465 280.562117 
L 104.829895 279.170778 
L 106.461325 280.705524 
L 108.092755 279.537608 
L 109.724185 280.441563 
L 112.987044 279.251515 
L 116.249904 280.510183 
L 117.881334 279.296727 
L 119.512764 280.356179 
L 121.144194 286.892052 
L 122.775624 286.480964 
L 124.407053 285.729784 
L 126.038483 285.752267 
L 127.669913 284.155232 
L 129.301343 284.501285 
L 130.932773 284.728655 
L 132.564203 285.882264 
L 134.195633 284.861534 
L 135.827063 284.628328 
L 137.458492 286.127751 
L 139.089922 285.405295 
L 140.721352 285.738212 
L 142.352782 285.489278 
L 143.984212 284.690558 
L 145.615642 285.150736 
L 147.247072 285.216756 
L 148.878502 284.397453 
L 150.509931 288.725059 
L 152.141361 287.293261 
L 153.772791 288.628042 
L 155.404221 289.343017 
L 157.035651 289.574334 
L 158.667081 287.758333 
L 160.298511 291.506708 
L 161.929941 289.803313 
L 163.56137 288.7747 
L 165.1928 288.160622 
L 166.82423 288.502044 
L 170.08709 288.304496 
L 171.71852 289.140602 
L 174.98138 287.741614 
L 176.61281 289.315873 
L 178.244239 289.028078 
L 179.875669 289.532488 
L 181.507099 289.475395 
L 183.138529 288.359496 
L 184.769959 289.057768 
L 186.401389 288.536642 
L 188.032819 289.435002 
L 189.664249 289.51159 
L 191.295678 289.337266 
L 192.927108 289.724193 
L 194.558538 289.850475 
L 196.189968 287.998834 
L 197.821398 288.254126 
L 199.452828 288.951057 
L 201.084258 289.227191 
L 202.715688 287.72428 
L 204.347117 289.623008 
L 205.978547 287.782631 
L 207.609977 288.966603 
L 209.241407 287.095615 
L 210.872837 287.906162 
L 212.504267 288.360942 
L 214.135697 288.535406 
L 215.767127 288.192392 
L 217.398556 289.730657 
L 220.661416 287.547219 
L 222.292846 286.768597 
L 223.924276 286.520217 
L 225.555706 286.433426 
L 227.187136 287.040396 
L 228.818566 286.731657 
L 230.449995 286.924173 
L 232.081425 288.482104 
L 233.712855 289.264093 
L 235.344285 288.829115 
L 236.975715 289.566246 
L 238.607145 289.53785 
L 240.238575 287.59159 
L 241.870005 288.931081 
L 243.501434 290.045009 
L 245.132864 290.823459 
L 246.764294 289.483171 
L 248.395724 290.180832 
L 250.027154 289.248402 
L 251.658584 288.579985 
L 253.290014 289.389408 
L 254.921444 289.870827 
L 256.552873 288.897033 
L 258.184303 289.196557 
L 259.815733 289.720279 
L 261.447163 292.91111 
L 263.078593 293.503829 
L 264.710023 293.508028 
L 266.341453 292.271952 
L 267.972883 292.619953 
L 269.604312 291.339109 
L 271.235742 292.130437 
L 272.867172 293.278261 
L 274.498602 293.382389 
L 276.130032 293.199111 
L 277.761462 292.666637 
L 279.392892 292.951164 
L 282.655751 292.406454 
L 284.287181 290.956464 
L 285.918611 290.896794 
L 287.550041 292.126573 
L 289.181471 291.927948 
L 290.812901 292.586935 
L 292.444331 292.237138 
L 294.075761 291.623808 
L 295.70719 292.657661 
L 297.33862 293.419126 
L 298.97005 292.688925 
L 302.23291 293.179063 
L 303.86434 292.072061 
L 305.49577 292.828577 
L 307.1272 293.833695 
L 308.75863 291.179713 
L 310.390059 292.785532 
L 312.021489 294.006778 
L 313.652919 293.964621 
L 315.284349 294.729749 
L 316.915779 293.456513 
L 318.547209 293.868464 
L 320.178639 292.534394 
L 323.441498 294.113114 
L 325.072928 294.015091 
L 326.704358 294.121995 
L 328.335788 293.9403 
L 329.967218 294.217066 
L 331.598648 294.88921 
L 333.230078 294.934847 
L 334.861508 294.697416 
L 336.492937 295.488 
L 338.124367 293.499534 
L 339.755797 293.848774 
L 341.387227 293.94 
L 343.018657 293.539825 
L 344.650087 292.737483 
L 346.281517 292.851417 
L 349.544376 294.627809 
L 351.175806 293.955251 
L 352.807236 294.319566 
L 354.438666 293.830844 
L 356.070096 294.521822 
L 357.701526 293.190033 
L 359.332956 293.691462 
L 360.964386 294.541003 
L 362.595815 293.176349 
L 364.227245 293.2834 
L 365.858675 291.26131 
L 367.490105 291.548454 
L 369.121535 291.670304 
L 370.752965 290.987681 
L 372.384395 290.957229 
L 374.015825 291.628424 
L 375.647254 292.584069 
L 377.278684 291.870738 
L 378.910114 294.094484 
L 380.541544 292.890885 
L 382.172974 293.407751 
L 383.804404 294.110651 
L 385.435834 293.132078 
L 387.067264 293.159164 
L 388.698693 293.409991 
L 390.330123 294.156319 
L 391.961553 294.160264 
L 393.592983 293.766987 
L 395.224413 294.387099 
L 396.855843 293.820184 
L 398.487273 293.916035 
L 398.487273 293.916035 
" clip-path="url(#p37d66b2cf2)" style="fill: none; stroke-dasharray: 9.6,2.4,1.5,2.4; stroke-dashoffset: 0; stroke: #008000; stroke-width: 1.5"/>
   </g>
   <g id="line2d_35">
    <path d="M 73.832727 266.465268 
L 75.464157 265.14079 
L 77.095587 264.090009 
L 78.727017 257.421547 
L 80.358447 257.272116 
L 81.989877 254.000446 
L 83.621307 254.056743 
L 86.884166 253.806311 
L 88.515596 252.174635 
L 90.147026 244.397734 
L 91.778456 250.501136 
L 93.409886 248.581947 
L 95.041316 249.395131 
L 96.672746 249.289053 
L 98.304175 249.306402 
L 99.935605 249.663802 
L 101.567035 249.201382 
L 103.198465 249.893127 
L 104.829895 250.134826 
L 106.461325 250.937089 
L 108.092755 249.95988 
L 109.724185 249.186388 
L 114.618474 248.935729 
L 116.249904 249.14329 
L 117.881334 248.659543 
L 119.512764 249.104182 
L 121.144194 240.167176 
L 122.775624 241.100349 
L 124.407053 240.609318 
L 126.038483 240.616073 
L 127.669913 240.181774 
L 129.301343 240.664774 
L 130.932773 241.30404 
L 132.564203 240.771419 
L 134.195633 240.520083 
L 135.827063 240.451662 
L 137.458492 241.20264 
L 139.089922 240.822781 
L 140.721352 241.718633 
L 142.352782 240.691878 
L 143.984212 241.28861 
L 145.615642 239.072546 
L 147.247072 242.126542 
L 148.878502 242.061978 
L 150.509931 234.463497 
L 152.141361 237.35494 
L 155.404221 237.107328 
L 157.035651 237.290905 
L 158.667081 236.517298 
L 160.298511 230.018127 
L 161.929941 236.436843 
L 163.56137 236.639356 
L 165.1928 235.92947 
L 166.82423 235.906712 
L 168.45566 235.576258 
L 170.08709 234.931619 
L 171.71852 235.578134 
L 173.34995 236.046174 
L 174.98138 237.213163 
L 176.61281 235.666079 
L 178.244239 236.519778 
L 179.875669 236.062082 
L 181.507099 235.789973 
L 183.138529 236.633707 
L 184.769959 236.359501 
L 186.401389 236.287942 
L 189.664249 236.694061 
L 191.295678 236.893464 
L 192.927108 236.943093 
L 194.558538 237.834301 
L 196.189968 236.401507 
L 197.821398 236.22722 
L 199.452828 235.674805 
L 201.084258 236.884543 
L 202.715688 236.90282 
L 205.978547 236.690384 
L 207.609977 236.894903 
L 209.241407 238.391421 
L 210.872837 237.25843 
L 212.504267 237.167794 
L 214.135697 234.177408 
L 215.767127 235.017149 
L 217.398556 236.859571 
L 219.029986 235.148116 
L 220.661416 236.035819 
L 222.292846 237.989377 
L 223.924276 237.707281 
L 225.555706 237.892877 
L 227.187136 236.64517 
L 228.818566 238.580318 
L 230.449995 236.993286 
L 232.081425 233.237408 
L 233.712855 233.044314 
L 235.344285 234.437381 
L 236.975715 233.622375 
L 238.607145 233.116687 
L 240.238575 234.661177 
L 241.870005 232.711022 
L 243.501434 233.667788 
L 245.132864 232.751943 
L 248.395724 233.150845 
L 250.027154 232.842688 
L 251.658584 233.755067 
L 253.290014 232.881019 
L 254.921444 234.822816 
L 256.552873 234.531844 
L 258.184303 230.318809 
L 259.815733 233.161651 
L 261.447163 223.48195 
L 263.078593 227.068585 
L 264.710023 224.262377 
L 266.341453 230.781662 
L 267.972883 229.406895 
L 269.604312 230.296954 
L 271.235742 229.609234 
L 272.867172 229.554811 
L 274.498602 230.377679 
L 276.130032 230.483869 
L 277.761462 230.183815 
L 279.392892 230.683775 
L 281.024322 230.668948 
L 282.655751 230.943329 
L 284.287181 231.543518 
L 285.918611 231.090832 
L 287.550041 228.940103 
L 289.181471 229.279494 
L 292.444331 229.480631 
L 294.075761 230.81364 
L 295.70719 229.855552 
L 297.33862 229.854469 
L 298.97005 228.537461 
L 300.60148 229.914723 
L 302.23291 228.336154 
L 303.86434 228.88156 
L 305.49577 228.813022 
L 307.1272 227.789349 
L 308.75863 229.101577 
L 310.390059 229.754107 
L 312.021489 228.490267 
L 313.652919 227.504353 
L 315.284349 229.402861 
L 316.915779 227.122291 
L 318.547209 228.368282 
L 320.178639 227.63085 
L 321.810069 227.032004 
L 323.441498 228.317153 
L 325.072928 227.676771 
L 326.704358 227.804827 
L 328.335788 226.460486 
L 329.967218 226.902184 
L 331.598648 228.454286 
L 333.230078 226.90795 
L 334.861508 228.988434 
L 336.492937 228.195312 
L 338.124367 226.115784 
L 339.755797 227.331219 
L 341.387227 226.601318 
L 343.018657 227.94942 
L 344.650087 227.280785 
L 346.281517 229.283129 
L 347.912947 228.060165 
L 349.544376 222.469955 
L 351.175806 229.879615 
L 352.807236 228.431132 
L 354.438666 228.662902 
L 357.701526 227.985366 
L 360.964386 228.583228 
L 362.595815 228.587469 
L 364.227245 230.348445 
L 365.858675 230.815052 
L 367.490105 231.440874 
L 369.121535 231.717702 
L 370.752965 231.151312 
L 374.015825 231.633981 
L 375.647254 229.182315 
L 377.278684 229.486137 
L 378.910114 229.584043 
L 380.541544 228.370564 
L 382.172974 228.539313 
L 383.804404 227.371548 
L 385.435834 227.936295 
L 387.067264 228.029275 
L 388.698693 227.835589 
L 390.330123 228.042764 
L 391.961553 229.310285 
L 393.592983 227.287407 
L 395.224413 227.248662 
L 396.855843 227.641292 
L 398.487273 227.830497 
L 398.487273 227.830497 
" clip-path="url(#p37d66b2cf2)" style="fill: none; stroke-dasharray: 9.6,2.4,1.5,2.4; stroke-dashoffset: 0; stroke: #008000; stroke-width: 1.5"/>
   </g>
   <g id="line2d_36">
    <path d="M 73.832727 264.2505 
L 77.095587 264.2505 
L 78.727017 202.734937 
L 80.358447 202.734937 
L 81.989877 200.709976 
L 88.515596 200.709976 
L 90.147026 145.090267 
L 119.512764 145.090267 
L 121.144194 89.578993 
L 148.878502 89.578993 
L 150.509931 79.71662 
L 259.815733 79.71662 
L 261.447163 53.568 
L 398.487273 53.568 
L 398.487273 53.568 
" clip-path="url(#p37d66b2cf2)" style="fill: none; stroke: #ff0000; stroke-width: 1.5; stroke-linecap: square"/>
   </g>
   <g id="patch_3">
    <path d="M 57.6 307.584 
L 57.6 41.472 
" style="fill: none; stroke: #000000; stroke-width: 0.8; stroke-linejoin: miter; stroke-linecap: square"/>
   </g>
   <g id="patch_4">
    <path d="M 414.72 307.584 
L 414.72 41.472 
" style="fill: none; stroke: #000000; stroke-width: 0.8; stroke-linejoin: miter; stroke-linecap: square"/>
   </g>
   <g id="patch_5">
    <path d="M 57.6 307.584 
L 414.72 307.584 
" style="fill: none; stroke: #000000; stroke-width: 0.8; stroke-linejoin: miter; stroke-linecap: square"/>
   </g>
   <g id="patch_6">
    <path d="M 57.6 41.472 
L 414.72 41.472 
" style="fill: none; stroke: #000000; stroke-width: 0.8; stroke-linejoin: miter; stroke-linecap: square"/>
   </g>
   <g id="text_19">
    <!-- Population's average and best fitness -->
    <g transform="translate(123.529687 35.472) scale(0.12 -0.12)">
     <defs>
      <path id="DejaVuSans-50" d="M 1259 4147 
L 1259 2394 
L 2053 2394 
Q 2494 2394 2734 2622 
Q 2975 2850 2975 3272 
Q 2975 3691 2734 3919 
Q 2494 4147 2053 4147 
L 1259 4147 
z
M 628 4666 
L 2053 4666 
Q 2838 4666 3239 4311 
Q 3641 3956 3641 3272 
Q 3641 2581 3239 2228 
Q 2838 1875 2053 1875 
L 1259 1875 
L 1259 0 
L 628 0 
L 628 4666 
z
" transform="scale(0.015625)"/>
      <path id="DejaVuSans-70" d="M 1159 525 
L 1159 -1331 
L 581 -1331 
L 581 3500 
L 1159 3500 
L 1159 2969 
Q 1341 3281 1617 3432 
Q 1894 3584 2278 3584 
Q 2916 3584 3314 3078 
Q 3713 2572 3713 1747 
Q 3713 922 3314 415 
Q 2916 -91 2278 -91 
Q 1894 -91 1617 61 
Q 1341 213 1159 525 
z
M 3116 1747 
Q 3116 2381 2855 2742 
Q 2594 3103 2138 3103 
Q 1681 3103 1420 2742 
Q 1159 2381 1159 1747 
Q 1159 1113 1420 752 
Q 1681 391 2138 391 
Q 2594 391 2855 752 
Q 3116 1113 3116 1747 
z
" transform="scale(0.015625)"/>
      <path id="DejaVuSans-75" d="M 544 1381 
L 544 3500 
L 1119 3500 
L 1119 1403 
Q 1119 906 1312 657 
Q 1506 409 1894 409 
Q 2359 409 2629 706 
Q 2900 1003 2900 1516 
L 2900 3500 
L 3475 3500 
L 3475 0 
L 2900 0 
L 2900 538 
Q 2691 219 2414 64 
Q 2138 -91 1772 -91 
Q 1169 -91 856 284 
Q 544 659 544 1381 
z
M 1991 3584 
L 1991 3584 
z
" transform="scale(0.015625)"/>
      <path id="DejaVuSans-6c" d="M 603 4863 
L 1178 4863 
L 1178 0 
L 603 0 
L 603 4863 
z
" transform="scale(0.015625)"/>
      <path id="DejaVuSans-27" d="M 1147 4666 
L 1147 2931 
L 616 2931 
L 616 4666 
L 1147 4666 
z
" transform="scale(0.015625)"/>
      <path id="DejaVuSans-20" transform="scale(0.015625)"/>
      <path id="DejaVuSans-76" d="M 191 3500 
L 800 3500 
L 1894 563 
L 2988 3500 
L 3597 3500 
L 2284 0 
L 1503 0 
L 191 3500 
z
" transform="scale(0.015625)"/>
      <path id="DejaVuSans-67" d="M 2906 1791 
Q 2906 2416 2648 2759 
Q 2391 3103 1925 3103 
Q 1463 3103 1205 2759 
Q 947 2416 947 1791 
Q 947 1169 1205 825 
Q 1463 481 1925 481 
Q 2391 481 2648 825 
Q 2906 1169 2906 1791 
z
M 3481 434 
Q 3481 -459 3084 -895 
Q 2688 -1331 1869 -1331 
Q 1566 -1331 1297 -1286 
Q 1028 -1241 775 -1147 
L 775 -588 
Q 1028 -725 1275 -790 
Q 1522 -856 1778 -856 
Q 2344 -856 2625 -561 
Q 2906 -266 2906 331 
L 2906 616 
Q 2728 306 2450 153 
Q 2172 0 1784 0 
Q 1141 0 747 490 
Q 353 981 353 1791 
Q 353 2603 747 3093 
Q 1141 3584 1784 3584 
Q 2172 3584 2450 3431 
Q 2728 3278 2906 2969 
L 2906 3500 
L 3481 3500 
L 3481 434 
z
" transform="scale(0.015625)"/>
      <path id="DejaVuSans-64" d="M 2906 2969 
L 2906 4863 
L 3481 4863 
L 3481 0 
L 2906 0 
L 2906 525 
Q 2725 213 2448 61 
Q 2172 -91 1784 -91 
Q 1150 -91 751 415 
Q 353 922 353 1747 
Q 353 2572 751 3078 
Q 1150 3584 1784 3584 
Q 2172 3584 2448 3432 
Q 2725 3281 2906 2969 
z
M 947 1747 
Q 947 1113 1208 752 
Q 1469 391 1925 391 
Q 2381 391 2643 752 
Q 2906 1113 2906 1747 
Q 2906 2381 2643 2742 
Q 2381 3103 1925 3103 
Q 1469 3103 1208 2742 
Q 947 2381 947 1747 
z
" transform="scale(0.015625)"/>
      <path id="DejaVuSans-62" d="M 3116 1747 
Q 3116 2381 2855 2742 
Q 2594 3103 2138 3103 
Q 1681 3103 1420 2742 
Q 1159 2381 1159 1747 
Q 1159 1113 1420 752 
Q 1681 391 2138 391 
Q 2594 391 2855 752 
Q 3116 1113 3116 1747 
z
M 1159 2969 
Q 1341 3281 1617 3432 
Q 1894 3584 2278 3584 
Q 2916 3584 3314 3078 
Q 3713 2572 3713 1747 
Q 3713 922 3314 415 
Q 2916 -91 2278 -91 
Q 1894 -91 1617 61 
Q 1341 213 1159 525 
L 1159 0 
L 581 0 
L 581 4863 
L 1159 4863 
L 1159 2969 
z
" transform="scale(0.015625)"/>
      <path id="DejaVuSans-66" d="M 2375 4863 
L 2375 4384 
L 1825 4384 
Q 1516 4384 1395 4259 
Q 1275 4134 1275 3809 
L 1275 3500 
L 2222 3500 
L 2222 3053 
L 1275 3053 
L 1275 0 
L 697 0 
L 697 3053 
L 147 3053 
L 147 3500 
L 697 3500 
L 697 3744 
Q 697 4328 969 4595 
Q 1241 4863 1831 4863 
L 2375 4863 
z
" transform="scale(0.015625)"/>
     </defs>
     <use xlink:href="#DejaVuSans-50"/>
     <use xlink:href="#DejaVuSans-6f" x="56.677734"/>
     <use xlink:href="#DejaVuSans-70" x="117.859375"/>
     <use xlink:href="#DejaVuSans-75" x="181.335938"/>
     <use xlink:href="#DejaVuSans-6c" x="244.714844"/>
     <use xlink:href="#DejaVuSans-61" x="272.498047"/>
     <use xlink:href="#DejaVuSans-74" x="333.777344"/>
     <use xlink:href="#DejaVuSans-69" x="372.986328"/>
     <use xlink:href="#DejaVuSans-6f" x="400.769531"/>
     <use xlink:href="#DejaVuSans-6e" x="461.951172"/>
     <use xlink:href="#DejaVuSans-27" x="525.330078"/>
     <use xlink:href="#DejaVuSans-73" x="552.820312"/>
     <use xlink:href="#DejaVuSans-20" x="604.919922"/>
     <use xlink:href="#DejaVuSans-61" x="636.707031"/>
     <use xlink:href="#DejaVuSans-76" x="697.986328"/>
     <use xlink:href="#DejaVuSans-65" x="757.166016"/>
     <use xlink:href="#DejaVuSans-72" x="818.689453"/>
     <use xlink:href="#DejaVuSans-61" x="859.802734"/>
     <use xlink:href="#DejaVuSans-67" x="921.082031"/>
     <use xlink:href="#DejaVuSans-65" x="984.558594"/>
     <use xlink:href="#DejaVuSans-20" x="1046.082031"/>
     <use xlink:href="#DejaVuSans-61" x="1077.869141"/>
     <use xlink:href="#DejaVuSans-6e" x="1139.148438"/>
     <use xlink:href="#DejaVuSans-64" x="1202.527344"/>
     <use xlink:href="#DejaVuSans-20" x="1266.003906"/>
     <use xlink:href="#DejaVuSans-62" x="1297.791016"/>
     <use xlink:href="#DejaVuSans-65" x="1361.267578"/>
     <use xlink:href="#DejaVuSans-73" x="1422.791016"/>
     <use xlink:href="#DejaVuSans-74" x="1474.890625"/>
     <use xlink:href="#DejaVuSans-20" x="1514.099609"/>
     <use xlink:href="#DejaVuSans-66" x="1545.886719"/>
     <use xlink:href="#DejaVuSans-69" x="1581.091797"/>
     <use xlink:href="#DejaVuSans-74" x="1608.875"/>
     <use xlink:href="#DejaVuSans-6e" x="1648.083984"/>
     <use xlink:href="#DejaVuSans-65" x="1711.462891"/>
     <use xlink:href="#DejaVuSans-73" x="1772.986328"/>
     <use xlink:href="#DejaVuSans-73" x="1825.085938"/>
    </g>
   </g>
   <g id="legend_1">
    <g id="patch_7">
     <path d="M 334.779375 205.38425 
L 407.72 205.38425 
Q 409.72 205.38425 409.72 203.38425 
L 409.72 145.67175 
Q 409.72 143.67175 407.72 143.67175 
L 334.779375 143.67175 
Q 332.779375 143.67175 332.779375 145.67175 
L 332.779375 203.38425 
Q 332.779375 205.38425 334.779375 205.38425 
z
" style="fill: #ffffff; opacity: 0.8; stroke: #cccccc; stroke-linejoin: miter"/>
    </g>
    <g id="line2d_37">
     <path d="M 336.779375 151.770188 
L 346.779375 151.770188 
L 356.779375 151.770188 
" style="fill: none; stroke: #0000ff; stroke-width: 1.5; stroke-linecap: square"/>
    </g>
    <g id="text_20">
     <!-- average -->
     <g transform="translate(364.779375 155.270188) scale(0.1 -0.1)">
      <use xlink:href="#DejaVuSans-61"/>
      <use xlink:href="#DejaVuSans-76" x="61.279297"/>
      <use xlink:href="#DejaVuSans-65" x="120.458984"/>
      <use xlink:href="#DejaVuSans-72" x="181.982422"/>
      <use xlink:href="#DejaVuSans-61" x="223.095703"/>
      <use xlink:href="#DejaVuSans-67" x="284.375"/>
      <use xlink:href="#DejaVuSans-65" x="347.851562"/>
     </g>
    </g>
    <g id="line2d_38">
     <path d="M 336.779375 166.448313 
L 346.779375 166.448313 
L 356.779375 166.448313 
" style="fill: none; stroke-dasharray: 9.6,2.4,1.5,2.4; stroke-dashoffset: 0; stroke: #008000; stroke-width: 1.5"/>
    </g>
    <g id="text_21">
     <!-- -1 sd -->
     <g transform="translate(364.779375 169.948313) scale(0.1 -0.1)">
      <defs>
       <path id="DejaVuSans-2d" d="M 313 2009 
L 1997 2009 
L 1997 1497 
L 313 1497 
L 313 2009 
z
" transform="scale(0.015625)"/>
      </defs>
      <use xlink:href="#DejaVuSans-2d"/>
      <use xlink:href="#DejaVuSans-31" x="36.083984"/>
      <use xlink:href="#DejaVuSans-20" x="99.707031"/>
      <use xlink:href="#DejaVuSans-73" x="131.494141"/>
      <use xlink:href="#DejaVuSans-64" x="183.59375"/>
     </g>
    </g>
    <g id="line2d_39">
     <path d="M 336.779375 181.126438 
L 346.779375 181.126438 
L 356.779375 181.126438 
" style="fill: none; stroke-dasharray: 9.6,2.4,1.5,2.4; stroke-dashoffset: 0; stroke: #008000; stroke-width: 1.5"/>
    </g>
    <g id="text_22">
     <!-- +1 sd -->
     <g transform="translate(364.779375 184.626438) scale(0.1 -0.1)">
      <defs>
       <path id="DejaVuSans-2b" d="M 2944 4013 
L 2944 2272 
L 4684 2272 
L 4684 1741 
L 2944 1741 
L 2944 0 
L 2419 0 
L 2419 1741 
L 678 1741 
L 678 2272 
L 2419 2272 
L 2419 4013 
L 2944 4013 
z
" transform="scale(0.015625)"/>
      </defs>
      <use xlink:href="#DejaVuSans-2b"/>
      <use xlink:href="#DejaVuSans-31" x="83.789062"/>
      <use xlink:href="#DejaVuSans-20" x="147.412109"/>
      <use xlink:href="#DejaVuSans-73" x="179.199219"/>
      <use xlink:href="#DejaVuSans-64" x="231.298828"/>
     </g>
    </g>
    <g id="line2d_40">
     <path d="M 336.779375 195.804563 
L 346.779375 195.804563 
L 356.779375 195.804563 
" style="fill: none; stroke: #ff0000; stroke-width: 1.5; stroke-linecap: square"/>
    </g>
    <g id="text_23">
     <!-- best -->
     <g transform="translate(364.779375 199.304563) scale(0.1 -0.1)">
      <use xlink:href="#DejaVuSans-62"/>
      <use xlink:href="#DejaVuSans-65" x="63.476562"/>
      <use xlink:href="#DejaVuSans-73" x="125"/>
      <use xlink:href="#DejaVuSans-74" x="177.099609"/>
     </g>
    </g>
   </g>
  </g>
 </g>
 <defs>
  <clipPath id="p37d66b2cf2">
   <rect x="57.6" y="41.472" width="357.12" height="266.112"/>
  </clipPath>
 </defs>
</svg>
