<?xml version="1.0" encoding="utf-8" standalone="no"?>
<!DOCTYPE svg PUBLIC "-//W3C//DTD SVG 1.1//EN"
  "http://www.w3.org/Graphics/SVG/1.1/DTD/svg11.dtd">
<svg xmlns:xlink="http://www.w3.org/1999/xlink" width="460.8pt" height="345.6pt" viewBox="0 0 460.8 345.6" xmlns="http://www.w3.org/2000/svg" version="1.1">
 <metadata>
  <rdf:RDF xmlns:dc="http://purl.org/dc/elements/1.1/" xmlns:cc="http://creativecommons.org/ns#" xmlns:rdf="http://www.w3.org/1999/02/22-rdf-syntax-ns#">
   <cc:Work>
    <dc:type rdf:resource="http://purl.org/dc/dcmitype/StillImage"/>
    <dc:date>2024-08-02T18:30:29.005040</dc:date>
    <dc:format>image/svg+xml</dc:format>
    <dc:creator>
     <cc:Agent>
      <dc:title>Matplotlib v3.8.2, https://matplotlib.org/</dc:title>
     </cc:Agent>
    </dc:creator>
   </cc:Work>
  </rdf:RDF>
 </metadata>
 <defs>
  <style type="text/css">*{stroke-linejoin: round; stroke-linecap: butt}</style>
 </defs>
 <g id="figure_1">
  <g id="patch_1">
   <path d="M 0 345.6 
L 460.8 345.6 
L 460.8 0 
L 0 0 
z
" style="fill: #ffffff"/>
  </g>
  <g id="axes_1">
   <g id="patch_2">
    <path d="M 57.6 307.584 
L 414.72 307.584 
L 414.72 41.472 
L 57.6 41.472 
z
" style="fill: #ffffff"/>
   </g>
   <g id="matplotlib.axis_1">
    <g id="xtick_1">
     <g id="line2d_1">
      <path d="M 73.832727 307.584 
L 73.832727 41.472 
" clip-path="url(#p01d3e61ace)" style="fill: none; stroke: #b0b0b0; stroke-width: 0.8; stroke-linecap: square"/>
     </g>
     <g id="line2d_2">
      <defs>
       <path id="m549c721f7b" d="M 0 0 
L 0 3.5 
" style="stroke: #000000; stroke-width: 0.8"/>
      </defs>
      <g>
       <use xlink:href="#m549c721f7b" x="73.832727" y="307.584" style="stroke: #000000; stroke-width: 0.8"/>
      </g>
     </g>
     <g id="text_1">
      <!-- 0 -->
      <g transform="translate(70.651477 322.182437) scale(0.1 -0.1)">
       <defs>
        <path id="DejaVuSans-30" d="M 2034 4250 
Q 1547 4250 1301 3770 
Q 1056 3291 1056 2328 
Q 1056 1369 1301 889 
Q 1547 409 2034 409 
Q 2525 409 2770 889 
Q 3016 1369 3016 2328 
Q 3016 3291 2770 3770 
Q 2525 4250 2034 4250 
z
M 2034 4750 
Q 2819 4750 3233 4129 
Q 3647 3509 3647 2328 
Q 3647 1150 3233 529 
Q 2819 -91 2034 -91 
Q 1250 -91 836 529 
Q 422 1150 422 2328 
Q 422 3509 836 4129 
Q 1250 4750 2034 4750 
z
" transform="scale(0.015625)"/>
       </defs>
       <use xlink:href="#DejaVuSans-30"/>
      </g>
     </g>
    </g>
    <g id="xtick_2">
     <g id="line2d_3">
      <path d="M 114.618474 307.584 
L 114.618474 41.472 
" clip-path="url(#p01d3e61ace)" style="fill: none; stroke: #b0b0b0; stroke-width: 0.8; stroke-linecap: square"/>
     </g>
     <g id="line2d_4">
      <g>
       <use xlink:href="#m549c721f7b" x="114.618474" y="307.584" style="stroke: #000000; stroke-width: 0.8"/>
      </g>
     </g>
     <g id="text_2">
      <!-- 25 -->
      <g transform="translate(108.255974 322.182437) scale(0.1 -0.1)">
       <defs>
        <path id="DejaVuSans-32" d="M 1228 531 
L 3431 531 
L 3431 0 
L 469 0 
L 469 531 
Q 828 903 1448 1529 
Q 2069 2156 2228 2338 
Q 2531 2678 2651 2914 
Q 2772 3150 2772 3378 
Q 2772 3750 2511 3984 
Q 2250 4219 1831 4219 
Q 1534 4219 1204 4116 
Q 875 4013 500 3803 
L 500 4441 
Q 881 4594 1212 4672 
Q 1544 4750 1819 4750 
Q 2544 4750 2975 4387 
Q 3406 4025 3406 3419 
Q 3406 3131 3298 2873 
Q 3191 2616 2906 2266 
Q 2828 2175 2409 1742 
Q 1991 1309 1228 531 
z
" transform="scale(0.015625)"/>
        <path id="DejaVuSans-35" d="M 691 4666 
L 3169 4666 
L 3169 4134 
L 1269 4134 
L 1269 2991 
Q 1406 3038 1543 3061 
Q 1681 3084 1819 3084 
Q 2600 3084 3056 2656 
Q 3513 2228 3513 1497 
Q 3513 744 3044 326 
Q 2575 -91 1722 -91 
Q 1428 -91 1123 -41 
Q 819 9 494 109 
L 494 744 
Q 775 591 1075 516 
Q 1375 441 1709 441 
Q 2250 441 2565 725 
Q 2881 1009 2881 1497 
Q 2881 1984 2565 2268 
Q 2250 2553 1709 2553 
Q 1456 2553 1204 2497 
Q 953 2441 691 2322 
L 691 4666 
z
" transform="scale(0.015625)"/>
       </defs>
       <use xlink:href="#DejaVuSans-32"/>
       <use xlink:href="#DejaVuSans-35" x="63.623047"/>
      </g>
     </g>
    </g>
    <g id="xtick_3">
     <g id="line2d_5">
      <path d="M 155.404221 307.584 
L 155.404221 41.472 
" clip-path="url(#p01d3e61ace)" style="fill: none; stroke: #b0b0b0; stroke-width: 0.8; stroke-linecap: square"/>
     </g>
     <g id="line2d_6">
      <g>
       <use xlink:href="#m549c721f7b" x="155.404221" y="307.584" style="stroke: #000000; stroke-width: 0.8"/>
      </g>
     </g>
     <g id="text_3">
      <!-- 50 -->
      <g transform="translate(149.041721 322.182437) scale(0.1 -0.1)">
       <use xlink:href="#DejaVuSans-35"/>
       <use xlink:href="#DejaVuSans-30" x="63.623047"/>
      </g>
     </g>
    </g>
    <g id="xtick_4">
     <g id="line2d_7">
      <path d="M 196.189968 307.584 
L 196.189968 41.472 
" clip-path="url(#p01d3e61ace)" style="fill: none; stroke: #b0b0b0; stroke-width: 0.8; stroke-linecap: square"/>
     </g>
     <g id="line2d_8">
      <g>
       <use xlink:href="#m549c721f7b" x="196.189968" y="307.584" style="stroke: #000000; stroke-width: 0.8"/>
      </g>
     </g>
     <g id="text_4">
      <!-- 75 -->
      <g transform="translate(189.827468 322.182437) scale(0.1 -0.1)">
       <defs>
        <path id="DejaVuSans-37" d="M 525 4666 
L 3525 4666 
L 3525 4397 
L 1831 0 
L 1172 0 
L 2766 4134 
L 525 4134 
L 525 4666 
z
" transform="scale(0.015625)"/>
       </defs>
       <use xlink:href="#DejaVuSans-37"/>
       <use xlink:href="#DejaVuSans-35" x="63.623047"/>
      </g>
     </g>
    </g>
    <g id="xtick_5">
     <g id="line2d_9">
      <path d="M 236.975715 307.584 
L 236.975715 41.472 
" clip-path="url(#p01d3e61ace)" style="fill: none; stroke: #b0b0b0; stroke-width: 0.8; stroke-linecap: square"/>
     </g>
     <g id="line2d_10">
      <g>
       <use xlink:href="#m549c721f7b" x="236.975715" y="307.584" style="stroke: #000000; stroke-width: 0.8"/>
      </g>
     </g>
     <g id="text_5">
      <!-- 100 -->
      <g transform="translate(227.431965 322.182437) scale(0.1 -0.1)">
       <defs>
        <path id="DejaVuSans-31" d="M 794 531 
L 1825 531 
L 1825 4091 
L 703 3866 
L 703 4441 
L 1819 4666 
L 2450 4666 
L 2450 531 
L 3481 531 
L 3481 0 
L 794 0 
L 794 531 
z
" transform="scale(0.015625)"/>
       </defs>
       <use xlink:href="#DejaVuSans-31"/>
       <use xlink:href="#DejaVuSans-30" x="63.623047"/>
       <use xlink:href="#DejaVuSans-30" x="127.246094"/>
      </g>
     </g>
    </g>
    <g id="xtick_6">
     <g id="line2d_11">
      <path d="M 277.761462 307.584 
L 277.761462 41.472 
" clip-path="url(#p01d3e61ace)" style="fill: none; stroke: #b0b0b0; stroke-width: 0.8; stroke-linecap: square"/>
     </g>
     <g id="line2d_12">
      <g>
       <use xlink:href="#m549c721f7b" x="277.761462" y="307.584" style="stroke: #000000; stroke-width: 0.8"/>
      </g>
     </g>
     <g id="text_6">
      <!-- 125 -->
      <g transform="translate(268.217712 322.182437) scale(0.1 -0.1)">
       <use xlink:href="#DejaVuSans-31"/>
       <use xlink:href="#DejaVuSans-32" x="63.623047"/>
       <use xlink:href="#DejaVuSans-35" x="127.246094"/>
      </g>
     </g>
    </g>
    <g id="xtick_7">
     <g id="line2d_13">
      <path d="M 318.547209 307.584 
L 318.547209 41.472 
" clip-path="url(#p01d3e61ace)" style="fill: none; stroke: #b0b0b0; stroke-width: 0.8; stroke-linecap: square"/>
     </g>
     <g id="line2d_14">
      <g>
       <use xlink:href="#m549c721f7b" x="318.547209" y="307.584" style="stroke: #000000; stroke-width: 0.8"/>
      </g>
     </g>
     <g id="text_7">
      <!-- 150 -->
      <g transform="translate(309.003459 322.182437) scale(0.1 -0.1)">
       <use xlink:href="#DejaVuSans-31"/>
       <use xlink:href="#DejaVuSans-35" x="63.623047"/>
       <use xlink:href="#DejaVuSans-30" x="127.246094"/>
      </g>
     </g>
    </g>
    <g id="xtick_8">
     <g id="line2d_15">
      <path d="M 359.332956 307.584 
L 359.332956 41.472 
" clip-path="url(#p01d3e61ace)" style="fill: none; stroke: #b0b0b0; stroke-width: 0.8; stroke-linecap: square"/>
     </g>
     <g id="line2d_16">
      <g>
       <use xlink:href="#m549c721f7b" x="359.332956" y="307.584" style="stroke: #000000; stroke-width: 0.8"/>
      </g>
     </g>
     <g id="text_8">
      <!-- 175 -->
      <g transform="translate(349.789206 322.182437) scale(0.1 -0.1)">
       <use xlink:href="#DejaVuSans-31"/>
       <use xlink:href="#DejaVuSans-37" x="63.623047"/>
       <use xlink:href="#DejaVuSans-35" x="127.246094"/>
      </g>
     </g>
    </g>
    <g id="xtick_9">
     <g id="line2d_17">
      <path d="M 400.118703 307.584 
L 400.118703 41.472 
" clip-path="url(#p01d3e61ace)" style="fill: none; stroke: #b0b0b0; stroke-width: 0.8; stroke-linecap: square"/>
     </g>
     <g id="line2d_18">
      <g>
       <use xlink:href="#m549c721f7b" x="400.118703" y="307.584" style="stroke: #000000; stroke-width: 0.8"/>
      </g>
     </g>
     <g id="text_9">
      <!-- 200 -->
      <g transform="translate(390.574953 322.182437) scale(0.1 -0.1)">
       <use xlink:href="#DejaVuSans-32"/>
       <use xlink:href="#DejaVuSans-30" x="63.623047"/>
       <use xlink:href="#DejaVuSans-30" x="127.246094"/>
      </g>
     </g>
    </g>
    <g id="text_10">
     <!-- Generations -->
     <g transform="translate(205.662344 335.860562) scale(0.1 -0.1)">
      <defs>
       <path id="DejaVuSans-47" d="M 3809 666 
L 3809 1919 
L 2778 1919 
L 2778 2438 
L 4434 2438 
L 4434 434 
Q 4069 175 3628 42 
Q 3188 -91 2688 -91 
Q 1594 -91 976 548 
Q 359 1188 359 2328 
Q 359 3472 976 4111 
Q 1594 4750 2688 4750 
Q 3144 4750 3555 4637 
Q 3966 4525 4313 4306 
L 4313 3634 
Q 3963 3931 3569 4081 
Q 3175 4231 2741 4231 
Q 1884 4231 1454 3753 
Q 1025 3275 1025 2328 
Q 1025 1384 1454 906 
Q 1884 428 2741 428 
Q 3075 428 3337 486 
Q 3600 544 3809 666 
z
" transform="scale(0.015625)"/>
       <path id="DejaVuSans-65" d="M 3597 1894 
L 3597 1613 
L 953 1613 
Q 991 1019 1311 708 
Q 1631 397 2203 397 
Q 2534 397 2845 478 
Q 3156 559 3463 722 
L 3463 178 
Q 3153 47 2828 -22 
Q 2503 -91 2169 -91 
Q 1331 -91 842 396 
Q 353 884 353 1716 
Q 353 2575 817 3079 
Q 1281 3584 2069 3584 
Q 2775 3584 3186 3129 
Q 3597 2675 3597 1894 
z
M 3022 2063 
Q 3016 2534 2758 2815 
Q 2500 3097 2075 3097 
Q 1594 3097 1305 2825 
Q 1016 2553 972 2059 
L 3022 2063 
z
" transform="scale(0.015625)"/>
       <path id="DejaVuSans-6e" d="M 3513 2113 
L 3513 0 
L 2938 0 
L 2938 2094 
Q 2938 2591 2744 2837 
Q 2550 3084 2163 3084 
Q 1697 3084 1428 2787 
Q 1159 2491 1159 1978 
L 1159 0 
L 581 0 
L 581 3500 
L 1159 3500 
L 1159 2956 
Q 1366 3272 1645 3428 
Q 1925 3584 2291 3584 
Q 2894 3584 3203 3211 
Q 3513 2838 3513 2113 
z
" transform="scale(0.015625)"/>
       <path id="DejaVuSans-72" d="M 2631 2963 
Q 2534 3019 2420 3045 
Q 2306 3072 2169 3072 
Q 1681 3072 1420 2755 
Q 1159 2438 1159 1844 
L 1159 0 
L 581 0 
L 581 3500 
L 1159 3500 
L 1159 2956 
Q 1341 3275 1631 3429 
Q 1922 3584 2338 3584 
Q 2397 3584 2469 3576 
Q 2541 3569 2628 3553 
L 2631 2963 
z
" transform="scale(0.015625)"/>
       <path id="DejaVuSans-61" d="M 2194 1759 
Q 1497 1759 1228 1600 
Q 959 1441 959 1056 
Q 959 750 1161 570 
Q 1363 391 1709 391 
Q 2188 391 2477 730 
Q 2766 1069 2766 1631 
L 2766 1759 
L 2194 1759 
z
M 3341 1997 
L 3341 0 
L 2766 0 
L 2766 531 
Q 2569 213 2275 61 
Q 1981 -91 1556 -91 
Q 1019 -91 701 211 
Q 384 513 384 1019 
Q 384 1609 779 1909 
Q 1175 2209 1959 2209 
L 2766 2209 
L 2766 2266 
Q 2766 2663 2505 2880 
Q 2244 3097 1772 3097 
Q 1472 3097 1187 3025 
Q 903 2953 641 2809 
L 641 3341 
Q 956 3463 1253 3523 
Q 1550 3584 1831 3584 
Q 2591 3584 2966 3190 
Q 3341 2797 3341 1997 
z
" transform="scale(0.015625)"/>
       <path id="DejaVuSans-74" d="M 1172 4494 
L 1172 3500 
L 2356 3500 
L 2356 3053 
L 1172 3053 
L 1172 1153 
Q 1172 725 1289 603 
Q 1406 481 1766 481 
L 2356 481 
L 2356 0 
L 1766 0 
Q 1100 0 847 248 
Q 594 497 594 1153 
L 594 3053 
L 172 3053 
L 172 3500 
L 594 3500 
L 594 4494 
L 1172 4494 
z
" transform="scale(0.015625)"/>
       <path id="DejaVuSans-69" d="M 603 3500 
L 1178 3500 
L 1178 0 
L 603 0 
L 603 3500 
z
M 603 4863 
L 1178 4863 
L 1178 4134 
L 603 4134 
L 603 4863 
z
" transform="scale(0.015625)"/>
       <path id="DejaVuSans-6f" d="M 1959 3097 
Q 1497 3097 1228 2736 
Q 959 2375 959 1747 
Q 959 1119 1226 758 
Q 1494 397 1959 397 
Q 2419 397 2687 759 
Q 2956 1122 2956 1747 
Q 2956 2369 2687 2733 
Q 2419 3097 1959 3097 
z
M 1959 3584 
Q 2709 3584 3137 3096 
Q 3566 2609 3566 1747 
Q 3566 888 3137 398 
Q 2709 -91 1959 -91 
Q 1206 -91 779 398 
Q 353 888 353 1747 
Q 353 2609 779 3096 
Q 1206 3584 1959 3584 
z
" transform="scale(0.015625)"/>
       <path id="DejaVuSans-73" d="M 2834 3397 
L 2834 2853 
Q 2591 2978 2328 3040 
Q 2066 3103 1784 3103 
Q 1356 3103 1142 2972 
Q 928 2841 928 2578 
Q 928 2378 1081 2264 
Q 1234 2150 1697 2047 
L 1894 2003 
Q 2506 1872 2764 1633 
Q 3022 1394 3022 966 
Q 3022 478 2636 193 
Q 2250 -91 1575 -91 
Q 1294 -91 989 -36 
Q 684 19 347 128 
L 347 722 
Q 666 556 975 473 
Q 1284 391 1588 391 
Q 1994 391 2212 530 
Q 2431 669 2431 922 
Q 2431 1156 2273 1281 
Q 2116 1406 1581 1522 
L 1381 1569 
Q 847 1681 609 1914 
Q 372 2147 372 2553 
Q 372 3047 722 3315 
Q 1072 3584 1716 3584 
Q 2034 3584 2315 3537 
Q 2597 3491 2834 3397 
z
" transform="scale(0.015625)"/>
      </defs>
      <use xlink:href="#DejaVuSans-47"/>
      <use xlink:href="#DejaVuSans-65" x="77.490234"/>
      <use xlink:href="#DejaVuSans-6e" x="139.013672"/>
      <use xlink:href="#DejaVuSans-65" x="202.392578"/>
      <use xlink:href="#DejaVuSans-72" x="263.916016"/>
      <use xlink:href="#DejaVuSans-61" x="305.029297"/>
      <use xlink:href="#DejaVuSans-74" x="366.308594"/>
      <use xlink:href="#DejaVuSans-69" x="405.517578"/>
      <use xlink:href="#DejaVuSans-6f" x="433.300781"/>
      <use xlink:href="#DejaVuSans-6e" x="494.482422"/>
      <use xlink:href="#DejaVuSans-73" x="557.861328"/>
     </g>
    </g>
   </g>
   <g id="matplotlib.axis_2">
    <g id="ytick_1">
     <g id="line2d_19">
      <path d="M 57.6 297.549353 
L 414.72 297.549353 
" clip-path="url(#p01d3e61ace)" style="fill: none; stroke: #b0b0b0; stroke-width: 0.8; stroke-linecap: square"/>
     </g>
     <g id="line2d_20">
      <defs>
       <path id="m0bbe5d7293" d="M 0 0 
L -3.5 0 
" style="stroke: #000000; stroke-width: 0.8"/>
      </defs>
      <g>
       <use xlink:href="#m0bbe5d7293" x="57.6" y="297.549353" style="stroke: #000000; stroke-width: 0.8"/>
      </g>
     </g>
     <g id="text_11">
      <!-- −1750 -->
      <g transform="translate(16.770313 301.348571) scale(0.1 -0.1)">
       <defs>
        <path id="DejaVuSans-2212" d="M 678 2272 
L 4684 2272 
L 4684 1741 
L 678 1741 
L 678 2272 
z
" transform="scale(0.015625)"/>
       </defs>
       <use xlink:href="#DejaVuSans-2212"/>
       <use xlink:href="#DejaVuSans-31" x="83.789062"/>
       <use xlink:href="#DejaVuSans-37" x="147.412109"/>
       <use xlink:href="#DejaVuSans-35" x="211.035156"/>
       <use xlink:href="#DejaVuSans-30" x="274.658203"/>
      </g>
     </g>
    </g>
    <g id="ytick_2">
     <g id="line2d_21">
      <path d="M 57.6 264.319443 
L 414.72 264.319443 
" clip-path="url(#p01d3e61ace)" style="fill: none; stroke: #b0b0b0; stroke-width: 0.8; stroke-linecap: square"/>
     </g>
     <g id="line2d_22">
      <g>
       <use xlink:href="#m0bbe5d7293" x="57.6" y="264.319443" style="stroke: #000000; stroke-width: 0.8"/>
      </g>
     </g>
     <g id="text_12">
      <!-- −1500 -->
      <g transform="translate(16.770313 268.118661) scale(0.1 -0.1)">
       <use xlink:href="#DejaVuSans-2212"/>
       <use xlink:href="#DejaVuSans-31" x="83.789062"/>
       <use xlink:href="#DejaVuSans-35" x="147.412109"/>
       <use xlink:href="#DejaVuSans-30" x="211.035156"/>
       <use xlink:href="#DejaVuSans-30" x="274.658203"/>
      </g>
     </g>
    </g>
    <g id="ytick_3">
     <g id="line2d_23">
      <path d="M 57.6 231.089532 
L 414.72 231.089532 
" clip-path="url(#p01d3e61ace)" style="fill: none; stroke: #b0b0b0; stroke-width: 0.8; stroke-linecap: square"/>
     </g>
     <g id="line2d_24">
      <g>
       <use xlink:href="#m0bbe5d7293" x="57.6" y="231.089532" style="stroke: #000000; stroke-width: 0.8"/>
      </g>
     </g>
     <g id="text_13">
      <!-- −1250 -->
      <g transform="translate(16.770313 234.888751) scale(0.1 -0.1)">
       <use xlink:href="#DejaVuSans-2212"/>
       <use xlink:href="#DejaVuSans-31" x="83.789062"/>
       <use xlink:href="#DejaVuSans-32" x="147.412109"/>
       <use xlink:href="#DejaVuSans-35" x="211.035156"/>
       <use xlink:href="#DejaVuSans-30" x="274.658203"/>
      </g>
     </g>
    </g>
    <g id="ytick_4">
     <g id="line2d_25">
      <path d="M 57.6 197.859622 
L 414.72 197.859622 
" clip-path="url(#p01d3e61ace)" style="fill: none; stroke: #b0b0b0; stroke-width: 0.8; stroke-linecap: square"/>
     </g>
     <g id="line2d_26">
      <g>
       <use xlink:href="#m0bbe5d7293" x="57.6" y="197.859622" style="stroke: #000000; stroke-width: 0.8"/>
      </g>
     </g>
     <g id="text_14">
      <!-- −1000 -->
      <g transform="translate(16.770313 201.658841) scale(0.1 -0.1)">
       <use xlink:href="#DejaVuSans-2212"/>
       <use xlink:href="#DejaVuSans-31" x="83.789062"/>
       <use xlink:href="#DejaVuSans-30" x="147.412109"/>
       <use xlink:href="#DejaVuSans-30" x="211.035156"/>
       <use xlink:href="#DejaVuSans-30" x="274.658203"/>
      </g>
     </g>
    </g>
    <g id="ytick_5">
     <g id="line2d_27">
      <path d="M 57.6 164.629712 
L 414.72 164.629712 
" clip-path="url(#p01d3e61ace)" style="fill: none; stroke: #b0b0b0; stroke-width: 0.8; stroke-linecap: square"/>
     </g>
     <g id="line2d_28">
      <g>
       <use xlink:href="#m0bbe5d7293" x="57.6" y="164.629712" style="stroke: #000000; stroke-width: 0.8"/>
      </g>
     </g>
     <g id="text_15">
      <!-- −750 -->
      <g transform="translate(23.132812 168.428931) scale(0.1 -0.1)">
       <use xlink:href="#DejaVuSans-2212"/>
       <use xlink:href="#DejaVuSans-37" x="83.789062"/>
       <use xlink:href="#DejaVuSans-35" x="147.412109"/>
       <use xlink:href="#DejaVuSans-30" x="211.035156"/>
      </g>
     </g>
    </g>
    <g id="ytick_6">
     <g id="line2d_29">
      <path d="M 57.6 131.399802 
L 414.72 131.399802 
" clip-path="url(#p01d3e61ace)" style="fill: none; stroke: #b0b0b0; stroke-width: 0.8; stroke-linecap: square"/>
     </g>
     <g id="line2d_30">
      <g>
       <use xlink:href="#m0bbe5d7293" x="57.6" y="131.399802" style="stroke: #000000; stroke-width: 0.8"/>
      </g>
     </g>
     <g id="text_16">
      <!-- −500 -->
      <g transform="translate(23.132812 135.199021) scale(0.1 -0.1)">
       <use xlink:href="#DejaVuSans-2212"/>
       <use xlink:href="#DejaVuSans-35" x="83.789062"/>
       <use xlink:href="#DejaVuSans-30" x="147.412109"/>
       <use xlink:href="#DejaVuSans-30" x="211.035156"/>
      </g>
     </g>
    </g>
    <g id="ytick_7">
     <g id="line2d_31">
      <path d="M 57.6 98.169892 
L 414.72 98.169892 
" clip-path="url(#p01d3e61ace)" style="fill: none; stroke: #b0b0b0; stroke-width: 0.8; stroke-linecap: square"/>
     </g>
     <g id="line2d_32">
      <g>
       <use xlink:href="#m0bbe5d7293" x="57.6" y="98.169892" style="stroke: #000000; stroke-width: 0.8"/>
      </g>
     </g>
     <g id="text_17">
      <!-- −250 -->
      <g transform="translate(23.132812 101.969111) scale(0.1 -0.1)">
       <use xlink:href="#DejaVuSans-2212"/>
       <use xlink:href="#DejaVuSans-32" x="83.789062"/>
       <use xlink:href="#DejaVuSans-35" x="147.412109"/>
       <use xlink:href="#DejaVuSans-30" x="211.035156"/>
      </g>
     </g>
    </g>
    <g id="ytick_8">
     <g id="line2d_33">
      <path d="M 57.6 64.939982 
L 414.72 64.939982 
" clip-path="url(#p01d3e61ace)" style="fill: none; stroke: #b0b0b0; stroke-width: 0.8; stroke-linecap: square"/>
     </g>
     <g id="line2d_34">
      <g>
       <use xlink:href="#m0bbe5d7293" x="57.6" y="64.939982" style="stroke: #000000; stroke-width: 0.8"/>
      </g>
     </g>
     <g id="text_18">
      <!-- 0 -->
      <g transform="translate(44.2375 68.739201) scale(0.1 -0.1)">
       <use xlink:href="#DejaVuSans-30"/>
      </g>
     </g>
    </g>
    <g id="text_19">
     <!-- Fitness -->
     <g transform="translate(10.690625 191.845187) rotate(-90) scale(0.1 -0.1)">
      <defs>
       <path id="DejaVuSans-46" d="M 628 4666 
L 3309 4666 
L 3309 4134 
L 1259 4134 
L 1259 2759 
L 3109 2759 
L 3109 2228 
L 1259 2228 
L 1259 0 
L 628 0 
L 628 4666 
z
" transform="scale(0.015625)"/>
      </defs>
      <use xlink:href="#DejaVuSans-46"/>
      <use xlink:href="#DejaVuSans-69" x="50.269531"/>
      <use xlink:href="#DejaVuSans-74" x="78.052734"/>
      <use xlink:href="#DejaVuSans-6e" x="117.261719"/>
      <use xlink:href="#DejaVuSans-65" x="180.640625"/>
      <use xlink:href="#DejaVuSans-73" x="242.164062"/>
      <use xlink:href="#DejaVuSans-73" x="294.263672"/>
     </g>
    </g>
   </g>
   <g id="line2d_35">
    <path d="M 73.832727 117.403005 
L 75.464157 115.712004 
L 77.095587 114.192105 
L 78.727017 113.282791 
L 80.358447 112.911945 
L 81.989877 112.917698 
L 83.621307 111.440855 
L 85.252736 111.158839 
L 86.884166 113.167744 
L 90.147026 111.247804 
L 91.778456 110.863131 
L 93.409886 110.709765 
L 95.041316 111.47435 
L 96.672746 111.753248 
L 98.304175 111.193862 
L 99.935605 111.272819 
L 101.567035 110.984727 
L 103.198465 111.317479 
L 104.829895 111.364891 
L 106.461325 110.587903 
L 108.092755 111.825232 
L 109.724185 111.861731 
L 111.355614 111.515937 
L 112.987044 111.790236 
L 114.618474 110.628055 
L 116.249904 111.844744 
L 117.881334 111.000053 
L 119.512764 110.53098 
L 121.144194 111.441971 
L 124.407053 111.828319 
L 126.038483 110.772152 
L 127.669913 111.001569 
L 129.301343 110.700683 
L 130.932773 110.883024 
L 132.564203 112.44517 
L 134.195633 111.195886 
L 135.827063 111.269923 
L 137.458492 109.943754 
L 139.089922 110.911662 
L 140.721352 110.745109 
L 142.352782 112.501353 
L 143.984212 111.258857 
L 145.615642 111.450506 
L 147.247072 111.526767 
L 148.878502 111.119947 
L 150.509931 111.15432 
L 152.141361 110.946553 
L 153.772791 111.427401 
L 157.035651 111.668982 
L 158.667081 111.492884 
L 160.298511 110.529642 
L 161.929941 111.500735 
L 163.56137 110.973159 
L 165.1928 111.17863 
L 166.82423 111.139752 
L 168.45566 111.760301 
L 170.08709 111.4001 
L 171.71852 111.695347 
L 173.34995 111.070625 
L 174.98138 111.104302 
L 176.61281 111.814129 
L 178.244239 110.836796 
L 179.875669 110.745348 
L 181.507099 110.922048 
L 183.138529 110.737572 
L 184.769959 111.571454 
L 186.401389 111.658127 
L 188.032819 111.217781 
L 189.664249 110.657648 
L 191.295678 110.707218 
L 196.189968 111.194195 
L 197.821398 110.998887 
L 199.452828 109.899041 
L 201.084258 111.28881 
L 202.715688 110.409531 
L 204.347117 110.902958 
L 205.978547 110.867642 
L 207.609977 110.357547 
L 209.241407 111.293062 
L 210.872837 110.860303 
L 212.504267 111.696486 
L 214.135697 110.49058 
L 217.398556 111.242394 
L 219.029986 110.70766 
L 222.292846 111.234147 
L 223.924276 111.13833 
L 225.555706 111.832237 
L 227.187136 110.578006 
L 228.818566 110.316008 
L 230.449995 112.258164 
L 232.081425 110.978869 
L 233.712855 110.770476 
L 235.344285 111.176209 
L 236.975715 110.601093 
L 238.607145 111.5986 
L 240.238575 111.291905 
L 241.870005 110.71821 
L 243.501434 111.256482 
L 245.132864 111.441596 
L 246.764294 110.49203 
L 248.395724 110.750817 
L 250.027154 110.87261 
L 251.658584 111.153402 
L 253.290014 110.229476 
L 254.921444 111.33882 
L 256.552873 111.238843 
L 258.184303 110.86203 
L 259.815733 110.208279 
L 261.447163 111.505589 
L 264.710023 111.502583 
L 267.972883 110.96825 
L 269.604312 111.349414 
L 271.235742 112.123401 
L 272.867172 112.537269 
L 274.498602 111.76809 
L 276.130032 110.811396 
L 277.761462 110.184069 
L 279.392892 110.419394 
L 281.024322 110.888945 
L 282.655751 110.559491 
L 284.287181 111.146584 
L 285.918611 111.582893 
L 287.550041 111.161923 
L 290.812901 112.027801 
L 292.444331 110.618202 
L 294.075761 110.637244 
L 295.70719 111.473658 
L 297.33862 110.094247 
L 298.97005 111.001382 
L 300.60148 110.653507 
L 302.23291 111.025458 
L 303.86434 110.706686 
L 305.49577 109.893444 
L 307.1272 110.20437 
L 308.75863 109.374886 
L 310.390059 109.578806 
L 312.021489 110.667352 
L 313.652919 110.104602 
L 315.284349 109.733743 
L 316.915779 110.788467 
L 318.547209 109.595319 
L 320.178639 110.7234 
L 321.810069 111.015631 
L 323.441498 109.393955 
L 325.072928 110.568506 
L 326.704358 110.160254 
L 328.335788 110.133895 
L 329.967218 110.234001 
L 331.598648 109.854502 
L 333.230078 110.12329 
L 334.861508 109.980037 
L 336.492937 110.904989 
L 338.124367 110.282859 
L 339.755797 110.20861 
L 341.387227 111.05151 
L 343.018657 110.390741 
L 344.650087 110.960111 
L 346.281517 110.061044 
L 347.912947 109.507299 
L 349.544376 110.999242 
L 351.175806 109.996169 
L 352.807236 110.473498 
L 354.438666 110.394887 
L 356.070096 110.980579 
L 357.701526 111.200722 
L 360.964386 110.066373 
L 362.595815 111.064252 
L 364.227245 110.354914 
L 365.858675 110.955844 
L 367.490105 111.327195 
L 369.121535 110.763217 
L 370.752965 110.673235 
L 372.384395 109.907196 
L 374.015825 111.135379 
L 375.647254 110.550093 
L 377.278684 111.039974 
L 378.910114 111.324183 
L 380.541544 111.025029 
L 382.172974 110.228481 
L 383.804404 170.049991 
L 385.435834 173.61625 
L 387.067264 173.527313 
L 388.698693 174.409448 
L 390.330123 173.34322 
L 391.961553 173.288677 
L 393.592983 174.055509 
L 395.224413 173.100128 
L 396.855843 176.038218 
L 398.487273 175.448211 
L 398.487273 175.448211 
" clip-path="url(#p01d3e61ace)" style="fill: none; stroke: #0000ff; stroke-width: 1.5; stroke-linecap: square"/>
   </g>
   <g id="line2d_36">
    <path d="M 73.832727 124.635672 
L 75.464157 124.572987 
L 77.095587 122.961528 
L 78.727017 121.665032 
L 80.358447 120.91947 
L 81.989877 120.632668 
L 83.621307 118.881829 
L 85.252736 119.055308 
L 86.884166 121.993483 
L 88.515596 119.634095 
L 90.147026 118.213371 
L 91.778456 118.42986 
L 93.409886 118.365315 
L 95.041316 118.68715 
L 96.672746 119.731468 
L 98.304175 118.082558 
L 99.935605 118.327587 
L 101.567035 117.689678 
L 103.198465 118.529142 
L 104.829895 118.947277 
L 106.461325 116.719263 
L 108.092755 119.526414 
L 109.724185 119.136457 
L 111.355614 117.931401 
L 112.987044 118.302328 
L 114.618474 116.580521 
L 116.249904 118.646121 
L 117.881334 117.563015 
L 119.512764 117.825073 
L 121.144194 118.398319 
L 122.775624 118.275744 
L 124.407053 118.737718 
L 126.038483 116.662334 
L 127.669913 116.942073 
L 129.301343 116.591746 
L 130.932773 116.565994 
L 132.564203 118.220905 
L 134.195633 117.809967 
L 135.827063 117.192574 
L 137.458492 116.113689 
L 139.089922 117.379148 
L 140.721352 115.493559 
L 142.352782 118.54264 
L 143.984212 116.580753 
L 148.878502 117.116812 
L 150.509931 116.467309 
L 152.141361 116.01943 
L 153.772791 116.761984 
L 155.404221 117.378299 
L 157.035651 117.646822 
L 158.667081 117.002396 
L 160.298511 115.289619 
L 161.929941 117.197709 
L 163.56137 115.885563 
L 165.1928 116.327768 
L 166.82423 116.61743 
L 168.45566 117.456644 
L 170.08709 117.253671 
L 171.71852 117.843666 
L 173.34995 117.208032 
L 174.98138 116.429198 
L 176.61281 117.53653 
L 178.244239 116.047378 
L 179.875669 116.352405 
L 181.507099 117.764871 
L 183.138529 116.547843 
L 184.769959 118.450169 
L 186.401389 118.890217 
L 189.664249 116.115621 
L 191.295678 116.006537 
L 196.189968 117.853981 
L 197.821398 117.178815 
L 199.452828 115.765478 
L 201.084258 117.427868 
L 202.715688 116.918934 
L 204.347117 117.759702 
L 205.978547 118.205292 
L 207.609977 117.346454 
L 209.241407 118.939344 
L 210.872837 119.360453 
L 212.504267 120.116722 
L 214.135697 118.28772 
L 215.767127 118.658996 
L 217.398556 118.516266 
L 219.029986 117.602157 
L 220.661416 118.718762 
L 222.292846 117.837508 
L 223.924276 117.689355 
L 225.555706 119.002653 
L 227.187136 116.381405 
L 228.818566 117.482667 
L 230.449995 120.507799 
L 232.081425 117.634543 
L 233.712855 117.192863 
L 235.344285 118.180817 
L 236.975715 117.481631 
L 238.607145 118.872038 
L 240.238575 117.744068 
L 241.870005 117.15351 
L 243.501434 117.453853 
L 245.132864 117.559971 
L 246.764294 116.250337 
L 248.395724 117.306472 
L 250.027154 117.286785 
L 251.658584 117.525194 
L 253.290014 117.408146 
L 254.921444 118.16925 
L 256.552873 119.399711 
L 258.184303 117.270267 
L 259.815733 117.401778 
L 261.447163 119.748812 
L 263.078593 117.780262 
L 264.710023 117.871029 
L 266.341453 118.297014 
L 267.972883 116.865486 
L 269.604312 118.407043 
L 271.235742 118.762363 
L 272.867172 119.591292 
L 277.761462 116.114493 
L 279.392892 117.089098 
L 281.024322 117.622655 
L 282.655751 117.51474 
L 285.918611 118.509729 
L 287.550041 118.307859 
L 289.181471 118.729279 
L 290.812901 118.795202 
L 292.444331 116.246475 
L 294.075761 116.808279 
L 295.70719 117.623063 
L 297.33862 115.430608 
L 298.97005 116.986263 
L 300.60148 116.693598 
L 302.23291 117.816997 
L 303.86434 116.24858 
L 305.49577 115.357539 
L 307.1272 116.714246 
L 308.75863 114.46144 
L 312.021489 116.5058 
L 313.652919 115.54662 
L 315.284349 116.236407 
L 316.915779 116.69004 
L 318.547209 115.65187 
L 321.810069 117.532213 
L 323.441498 113.845872 
L 325.072928 116.35342 
L 326.704358 115.551005 
L 328.335788 115.300237 
L 329.967218 116.475219 
L 331.598648 115.303761 
L 333.230078 116.015669 
L 334.861508 116.268575 
L 336.492937 116.758704 
L 338.124367 115.875008 
L 339.755797 115.795081 
L 341.387227 116.851476 
L 343.018657 116.436702 
L 344.650087 117.555002 
L 346.281517 117.043807 
L 347.912947 115.23224 
L 349.544376 117.924874 
L 351.175806 115.71942 
L 352.807236 117.482193 
L 354.438666 116.507494 
L 356.070096 118.401862 
L 357.701526 118.29608 
L 359.332956 116.949308 
L 360.964386 116.898165 
L 362.595815 116.962331 
L 364.227245 116.486091 
L 365.858675 116.831315 
L 367.490105 117.454664 
L 369.121535 116.828972 
L 370.752965 117.432793 
L 372.384395 117.338161 
L 374.015825 117.676435 
L 375.647254 116.624869 
L 377.278684 117.59583 
L 378.910114 117.237147 
L 380.541544 117.479897 
L 382.172974 116.3252 
L 383.804404 286.531982 
L 385.435834 292.460653 
L 387.067264 292.436529 
L 388.698693 292.836339 
L 390.330123 290.847048 
L 391.961553 291.571041 
L 393.592983 292.662585 
L 395.224413 291.433252 
L 396.855843 295.488 
L 398.487273 295.184482 
L 398.487273 295.184482 
" clip-path="url(#p01d3e61ace)" style="fill: none; stroke-dasharray: 9.6,2.4,1.5,2.4; stroke-dashoffset: 0; stroke: #008000; stroke-width: 1.5"/>
   </g>
   <g id="line2d_37">
    <path d="M 73.832727 110.170338 
L 75.464157 106.851021 
L 77.095587 105.422683 
L 78.727017 104.900549 
L 80.358447 104.90442 
L 81.989877 105.202728 
L 83.621307 103.999881 
L 85.252736 103.26237 
L 86.884166 104.342005 
L 88.515596 104.845246 
L 90.147026 104.282237 
L 91.778456 103.296402 
L 93.409886 103.054216 
L 95.041316 104.261551 
L 96.672746 103.775029 
L 98.304175 104.305165 
L 99.935605 104.21805 
L 101.567035 104.279776 
L 103.198465 104.105815 
L 104.829895 103.782505 
L 106.461325 104.456542 
L 108.092755 104.124049 
L 111.355614 105.100473 
L 112.987044 105.278144 
L 114.618474 104.675589 
L 116.249904 105.043367 
L 117.881334 104.437091 
L 119.512764 103.236886 
L 121.144194 104.485623 
L 122.775624 105.004272 
L 126.038483 104.88197 
L 127.669913 105.061064 
L 129.301343 104.80962 
L 130.932773 105.200055 
L 132.564203 106.669435 
L 134.195633 104.581806 
L 135.827063 105.347272 
L 137.458492 103.77382 
L 139.089922 104.444175 
L 140.721352 105.99666 
L 142.352782 106.460065 
L 143.984212 105.936962 
L 145.615642 106.167034 
L 147.247072 106.143096 
L 148.878502 105.123082 
L 150.509931 105.84133 
L 152.141361 105.873676 
L 153.772791 106.092819 
L 155.404221 105.80458 
L 157.035651 105.691143 
L 158.667081 105.983371 
L 160.298511 105.769664 
L 161.929941 105.803761 
L 163.56137 106.060755 
L 165.1928 106.029491 
L 166.82423 105.662074 
L 168.45566 106.063958 
L 170.08709 105.54653 
L 171.71852 105.547028 
L 173.34995 104.933217 
L 174.98138 105.779406 
L 176.61281 106.091727 
L 179.875669 105.138291 
L 181.507099 104.079225 
L 183.138529 104.927301 
L 186.401389 104.426037 
L 189.664249 105.199675 
L 191.295678 105.407899 
L 194.558538 104.92929 
L 196.189968 104.534409 
L 197.821398 104.818959 
L 199.452828 104.032604 
L 201.084258 105.149751 
L 202.715688 103.900128 
L 204.347117 104.046215 
L 205.978547 103.529993 
L 207.609977 103.36864 
L 209.241407 103.646779 
L 210.872837 102.360154 
L 212.504267 103.27625 
L 214.135697 102.693439 
L 215.767127 103.050256 
L 217.398556 103.968521 
L 219.029986 103.813163 
L 220.661416 103.313862 
L 222.292846 104.630786 
L 223.924276 104.587304 
L 227.187136 104.774607 
L 228.818566 103.149349 
L 230.449995 104.00853 
L 232.081425 104.323196 
L 233.712855 104.34809 
L 235.344285 104.171601 
L 236.975715 103.720555 
L 240.238575 104.839741 
L 241.870005 104.282911 
L 243.501434 105.05911 
L 245.132864 105.32322 
L 248.395724 104.195163 
L 251.658584 104.78161 
L 253.290014 103.050806 
L 254.921444 104.508389 
L 256.552873 103.077976 
L 258.184303 104.453792 
L 259.815733 103.01478 
L 261.447163 103.262366 
L 263.078593 105.273895 
L 264.710023 105.134136 
L 266.341453 104.125963 
L 267.972883 105.071014 
L 269.604312 104.291785 
L 271.235742 105.484439 
L 272.867172 105.483246 
L 274.498602 105.059954 
L 276.130032 104.3662 
L 277.761462 104.253644 
L 279.392892 103.749689 
L 281.024322 104.155236 
L 282.655751 103.604242 
L 284.287181 104.31155 
L 285.918611 104.656056 
L 287.550041 104.015987 
L 289.181471 104.414787 
L 290.812901 105.260401 
L 292.444331 104.989928 
L 294.075761 104.466209 
L 295.70719 105.324253 
L 297.33862 104.757886 
L 298.97005 105.016502 
L 302.23291 104.23392 
L 303.86434 105.164792 
L 307.1272 103.694494 
L 308.75863 104.288332 
L 310.390059 103.707819 
L 312.021489 104.828904 
L 313.652919 104.662584 
L 315.284349 103.231079 
L 316.915779 104.886894 
L 318.547209 103.538767 
L 320.178639 104.859158 
L 321.810069 104.49905 
L 323.441498 104.942039 
L 325.072928 104.783591 
L 326.704358 104.769502 
L 328.335788 104.967553 
L 329.967218 103.992782 
L 331.598648 104.405243 
L 333.230078 104.230911 
L 334.861508 103.691498 
L 336.492937 105.051274 
L 338.124367 104.69071 
L 339.755797 104.622138 
L 341.387227 105.251544 
L 343.018657 104.344779 
L 344.650087 104.365221 
L 346.281517 103.078281 
L 347.912947 103.782358 
L 351.175806 104.272918 
L 352.807236 103.464802 
L 354.438666 104.282281 
L 356.070096 103.559297 
L 357.701526 104.105364 
L 359.332956 104.326466 
L 360.964386 103.23458 
L 362.595815 105.166172 
L 364.227245 104.223738 
L 365.858675 105.080374 
L 367.490105 105.199727 
L 369.121535 104.697462 
L 370.752965 103.913676 
L 372.384395 102.476232 
L 374.015825 104.594323 
L 375.647254 104.475317 
L 377.278684 104.484119 
L 378.910114 105.41122 
L 380.541544 104.570161 
L 382.172974 104.131763 
L 383.804404 53.568 
L 385.435834 54.771846 
L 387.067264 54.618097 
L 388.698693 55.982556 
L 390.330123 55.839392 
L 391.961553 55.006312 
L 393.592983 55.448433 
L 395.224413 54.767005 
L 396.855843 56.588436 
L 398.487273 55.71194 
L 398.487273 55.71194 
" clip-path="url(#p01d3e61ace)" style="fill: none; stroke-dasharray: 9.6,2.4,1.5,2.4; stroke-dashoffset: 0; stroke: #008000; stroke-width: 1.5"/>
   </g>
   <g id="line2d_38">
    <path d="M 73.832727 87.745005 
L 83.621307 87.745005 
L 85.252736 86.19782 
L 382.172974 86.19782 
L 383.804404 86.475622 
L 398.487273 86.475622 
L 398.487273 86.475622 
" clip-path="url(#p01d3e61ace)" style="fill: none; stroke: #ff0000; stroke-width: 1.5; stroke-linecap: square"/>
   </g>
   <g id="patch_3">
    <path d="M 57.6 307.584 
L 57.6 41.472 
" style="fill: none; stroke: #000000; stroke-width: 0.8; stroke-linejoin: miter; stroke-linecap: square"/>
   </g>
   <g id="patch_4">
    <path d="M 414.72 307.584 
L 414.72 41.472 
" style="fill: none; stroke: #000000; stroke-width: 0.8; stroke-linejoin: miter; stroke-linecap: square"/>
   </g>
   <g id="patch_5">
    <path d="M 57.6 307.584 
L 414.72 307.584 
" style="fill: none; stroke: #000000; stroke-width: 0.8; stroke-linejoin: miter; stroke-linecap: square"/>
   </g>
   <g id="patch_6">
    <path d="M 57.6 41.472 
L 414.72 41.472 
" style="fill: none; stroke: #000000; stroke-width: 0.8; stroke-linejoin: miter; stroke-linecap: square"/>
   </g>
   <g id="text_20">
    <!-- Population's average and best fitness -->
    <g transform="translate(123.529687 35.472) scale(0.12 -0.12)">
     <defs>
      <path id="DejaVuSans-50" d="M 1259 4147 
L 1259 2394 
L 2053 2394 
Q 2494 2394 2734 2622 
Q 2975 2850 2975 3272 
Q 2975 3691 2734 3919 
Q 2494 4147 2053 4147 
L 1259 4147 
z
M 628 4666 
L 2053 4666 
Q 2838 4666 3239 4311 
Q 3641 3956 3641 3272 
Q 3641 2581 3239 2228 
Q 2838 1875 2053 1875 
L 1259 1875 
L 1259 0 
L 628 0 
L 628 4666 
z
" transform="scale(0.015625)"/>
      <path id="DejaVuSans-70" d="M 1159 525 
L 1159 -1331 
L 581 -1331 
L 581 3500 
L 1159 3500 
L 1159 2969 
Q 1341 3281 1617 3432 
Q 1894 3584 2278 3584 
Q 2916 3584 3314 3078 
Q 3713 2572 3713 1747 
Q 3713 922 3314 415 
Q 2916 -91 2278 -91 
Q 1894 -91 1617 61 
Q 1341 213 1159 525 
z
M 3116 1747 
Q 3116 2381 2855 2742 
Q 2594 3103 2138 3103 
Q 1681 3103 1420 2742 
Q 1159 2381 1159 1747 
Q 1159 1113 1420 752 
Q 1681 391 2138 391 
Q 2594 391 2855 752 
Q 3116 1113 3116 1747 
z
" transform="scale(0.015625)"/>
      <path id="DejaVuSans-75" d="M 544 1381 
L 544 3500 
L 1119 3500 
L 1119 1403 
Q 1119 906 1312 657 
Q 1506 409 1894 409 
Q 2359 409 2629 706 
Q 2900 1003 2900 1516 
L 2900 3500 
L 3475 3500 
L 3475 0 
L 2900 0 
L 2900 538 
Q 2691 219 2414 64 
Q 2138 -91 1772 -91 
Q 1169 -91 856 284 
Q 544 659 544 1381 
z
M 1991 3584 
L 1991 3584 
z
" transform="scale(0.015625)"/>
      <path id="DejaVuSans-6c" d="M 603 4863 
L 1178 4863 
L 1178 0 
L 603 0 
L 603 4863 
z
" transform="scale(0.015625)"/>
      <path id="DejaVuSans-27" d="M 1147 4666 
L 1147 2931 
L 616 2931 
L 616 4666 
L 1147 4666 
z
" transform="scale(0.015625)"/>
      <path id="DejaVuSans-20" transform="scale(0.015625)"/>
      <path id="DejaVuSans-76" d="M 191 3500 
L 800 3500 
L 1894 563 
L 2988 3500 
L 3597 3500 
L 2284 0 
L 1503 0 
L 191 3500 
z
" transform="scale(0.015625)"/>
      <path id="DejaVuSans-67" d="M 2906 1791 
Q 2906 2416 2648 2759 
Q 2391 3103 1925 3103 
Q 1463 3103 1205 2759 
Q 947 2416 947 1791 
Q 947 1169 1205 825 
Q 1463 481 1925 481 
Q 2391 481 2648 825 
Q 2906 1169 2906 1791 
z
M 3481 434 
Q 3481 -459 3084 -895 
Q 2688 -1331 1869 -1331 
Q 1566 -1331 1297 -1286 
Q 1028 -1241 775 -1147 
L 775 -588 
Q 1028 -725 1275 -790 
Q 1522 -856 1778 -856 
Q 2344 -856 2625 -561 
Q 2906 -266 2906 331 
L 2906 616 
Q 2728 306 2450 153 
Q 2172 0 1784 0 
Q 1141 0 747 490 
Q 353 981 353 1791 
Q 353 2603 747 3093 
Q 1141 3584 1784 3584 
Q 2172 3584 2450 3431 
Q 2728 3278 2906 2969 
L 2906 3500 
L 3481 3500 
L 3481 434 
z
" transform="scale(0.015625)"/>
      <path id="DejaVuSans-64" d="M 2906 2969 
L 2906 4863 
L 3481 4863 
L 3481 0 
L 2906 0 
L 2906 525 
Q 2725 213 2448 61 
Q 2172 -91 1784 -91 
Q 1150 -91 751 415 
Q 353 922 353 1747 
Q 353 2572 751 3078 
Q 1150 3584 1784 3584 
Q 2172 3584 2448 3432 
Q 2725 3281 2906 2969 
z
M 947 1747 
Q 947 1113 1208 752 
Q 1469 391 1925 391 
Q 2381 391 2643 752 
Q 2906 1113 2906 1747 
Q 2906 2381 2643 2742 
Q 2381 3103 1925 3103 
Q 1469 3103 1208 2742 
Q 947 2381 947 1747 
z
" transform="scale(0.015625)"/>
      <path id="DejaVuSans-62" d="M 3116 1747 
Q 3116 2381 2855 2742 
Q 2594 3103 2138 3103 
Q 1681 3103 1420 2742 
Q 1159 2381 1159 1747 
Q 1159 1113 1420 752 
Q 1681 391 2138 391 
Q 2594 391 2855 752 
Q 3116 1113 3116 1747 
z
M 1159 2969 
Q 1341 3281 1617 3432 
Q 1894 3584 2278 3584 
Q 2916 3584 3314 3078 
Q 3713 2572 3713 1747 
Q 3713 922 3314 415 
Q 2916 -91 2278 -91 
Q 1894 -91 1617 61 
Q 1341 213 1159 525 
L 1159 0 
L 581 0 
L 581 4863 
L 1159 4863 
L 1159 2969 
z
" transform="scale(0.015625)"/>
      <path id="DejaVuSans-66" d="M 2375 4863 
L 2375 4384 
L 1825 4384 
Q 1516 4384 1395 4259 
Q 1275 4134 1275 3809 
L 1275 3500 
L 2222 3500 
L 2222 3053 
L 1275 3053 
L 1275 0 
L 697 0 
L 697 3053 
L 147 3053 
L 147 3500 
L 697 3500 
L 697 3744 
Q 697 4328 969 4595 
Q 1241 4863 1831 4863 
L 2375 4863 
z
" transform="scale(0.015625)"/>
     </defs>
     <use xlink:href="#DejaVuSans-50"/>
     <use xlink:href="#DejaVuSans-6f" x="56.677734"/>
     <use xlink:href="#DejaVuSans-70" x="117.859375"/>
     <use xlink:href="#DejaVuSans-75" x="181.335938"/>
     <use xlink:href="#DejaVuSans-6c" x="244.714844"/>
     <use xlink:href="#DejaVuSans-61" x="272.498047"/>
     <use xlink:href="#DejaVuSans-74" x="333.777344"/>
     <use xlink:href="#DejaVuSans-69" x="372.986328"/>
     <use xlink:href="#DejaVuSans-6f" x="400.769531"/>
     <use xlink:href="#DejaVuSans-6e" x="461.951172"/>
     <use xlink:href="#DejaVuSans-27" x="525.330078"/>
     <use xlink:href="#DejaVuSans-73" x="552.820312"/>
     <use xlink:href="#DejaVuSans-20" x="604.919922"/>
     <use xlink:href="#DejaVuSans-61" x="636.707031"/>
     <use xlink:href="#DejaVuSans-76" x="697.986328"/>
     <use xlink:href="#DejaVuSans-65" x="757.166016"/>
     <use xlink:href="#DejaVuSans-72" x="818.689453"/>
     <use xlink:href="#DejaVuSans-61" x="859.802734"/>
     <use xlink:href="#DejaVuSans-67" x="921.082031"/>
     <use xlink:href="#DejaVuSans-65" x="984.558594"/>
     <use xlink:href="#DejaVuSans-20" x="1046.082031"/>
     <use xlink:href="#DejaVuSans-61" x="1077.869141"/>
     <use xlink:href="#DejaVuSans-6e" x="1139.148438"/>
     <use xlink:href="#DejaVuSans-64" x="1202.527344"/>
     <use xlink:href="#DejaVuSans-20" x="1266.003906"/>
     <use xlink:href="#DejaVuSans-62" x="1297.791016"/>
     <use xlink:href="#DejaVuSans-65" x="1361.267578"/>
     <use xlink:href="#DejaVuSans-73" x="1422.791016"/>
     <use xlink:href="#DejaVuSans-74" x="1474.890625"/>
     <use xlink:href="#DejaVuSans-20" x="1514.099609"/>
     <use xlink:href="#DejaVuSans-66" x="1545.886719"/>
     <use xlink:href="#DejaVuSans-69" x="1581.091797"/>
     <use xlink:href="#DejaVuSans-74" x="1608.875"/>
     <use xlink:href="#DejaVuSans-6e" x="1648.083984"/>
     <use xlink:href="#DejaVuSans-65" x="1711.462891"/>
     <use xlink:href="#DejaVuSans-73" x="1772.986328"/>
     <use xlink:href="#DejaVuSans-73" x="1825.085938"/>
    </g>
   </g>
   <g id="legend_1">
    <g id="patch_7">
     <path d="M 64.6 302.584 
L 137.540625 302.584 
Q 139.540625 302.584 139.540625 300.584 
L 139.540625 242.8715 
Q 139.540625 240.8715 137.540625 240.8715 
L 64.6 240.8715 
Q 62.6 240.8715 62.6 242.8715 
L 62.6 300.584 
Q 62.6 302.584 64.6 302.584 
z
" style="fill: #ffffff; opacity: 0.8; stroke: #cccccc; stroke-linejoin: miter"/>
    </g>
    <g id="line2d_39">
     <path d="M 66.6 248.969937 
L 76.6 248.969937 
L 86.6 248.969937 
" style="fill: none; stroke: #0000ff; stroke-width: 1.5; stroke-linecap: square"/>
    </g>
    <g id="text_21">
     <!-- average -->
     <g transform="translate(94.6 252.469937) scale(0.1 -0.1)">
      <use xlink:href="#DejaVuSans-61"/>
      <use xlink:href="#DejaVuSans-76" x="61.279297"/>
      <use xlink:href="#DejaVuSans-65" x="120.458984"/>
      <use xlink:href="#DejaVuSans-72" x="181.982422"/>
      <use xlink:href="#DejaVuSans-61" x="223.095703"/>
      <use xlink:href="#DejaVuSans-67" x="284.375"/>
      <use xlink:href="#DejaVuSans-65" x="347.851562"/>
     </g>
    </g>
    <g id="line2d_40">
     <path d="M 66.6 263.648062 
L 76.6 263.648062 
L 86.6 263.648062 
" style="fill: none; stroke-dasharray: 9.6,2.4,1.5,2.4; stroke-dashoffset: 0; stroke: #008000; stroke-width: 1.5"/>
    </g>
    <g id="text_22">
     <!-- -1 sd -->
     <g transform="translate(94.6 267.148062) scale(0.1 -0.1)">
      <defs>
       <path id="DejaVuSans-2d" d="M 313 2009 
L 1997 2009 
L 1997 1497 
L 313 1497 
L 313 2009 
z
" transform="scale(0.015625)"/>
      </defs>
      <use xlink:href="#DejaVuSans-2d"/>
      <use xlink:href="#DejaVuSans-31" x="36.083984"/>
      <use xlink:href="#DejaVuSans-20" x="99.707031"/>
      <use xlink:href="#DejaVuSans-73" x="131.494141"/>
      <use xlink:href="#DejaVuSans-64" x="183.59375"/>
     </g>
    </g>
    <g id="line2d_41">
     <path d="M 66.6 278.326187 
L 76.6 278.326187 
L 86.6 278.326187 
" style="fill: none; stroke-dasharray: 9.6,2.4,1.5,2.4; stroke-dashoffset: 0; stroke: #008000; stroke-width: 1.5"/>
    </g>
    <g id="text_23">
     <!-- +1 sd -->
     <g transform="translate(94.6 281.826187) scale(0.1 -0.1)">
      <defs>
       <path id="DejaVuSans-2b" d="M 2944 4013 
L 2944 2272 
L 4684 2272 
L 4684 1741 
L 2944 1741 
L 2944 0 
L 2419 0 
L 2419 1741 
L 678 1741 
L 678 2272 
L 2419 2272 
L 2419 4013 
L 2944 4013 
z
" transform="scale(0.015625)"/>
      </defs>
      <use xlink:href="#DejaVuSans-2b"/>
      <use xlink:href="#DejaVuSans-31" x="83.789062"/>
      <use xlink:href="#DejaVuSans-20" x="147.412109"/>
      <use xlink:href="#DejaVuSans-73" x="179.199219"/>
      <use xlink:href="#DejaVuSans-64" x="231.298828"/>
     </g>
    </g>
    <g id="line2d_42">
     <path d="M 66.6 293.004312 
L 76.6 293.004312 
L 86.6 293.004312 
" style="fill: none; stroke: #ff0000; stroke-width: 1.5; stroke-linecap: square"/>
    </g>
    <g id="text_24">
     <!-- best -->
     <g transform="translate(94.6 296.504312) scale(0.1 -0.1)">
      <use xlink:href="#DejaVuSans-62"/>
      <use xlink:href="#DejaVuSans-65" x="63.476562"/>
      <use xlink:href="#DejaVuSans-73" x="125"/>
      <use xlink:href="#DejaVuSans-74" x="177.099609"/>
     </g>
    </g>
   </g>
  </g>
 </g>
 <defs>
  <clipPath id="p01d3e61ace">
   <rect x="57.6" y="41.472" width="357.12" height="266.112"/>
  </clipPath>
 </defs>
</svg>
