<?xml version="1.0" encoding="utf-8" standalone="no"?>
<!DOCTYPE svg PUBLIC "-//W3C//DTD SVG 1.1//EN"
  "http://www.w3.org/Graphics/SVG/1.1/DTD/svg11.dtd">
<svg xmlns:xlink="http://www.w3.org/1999/xlink" width="460.8pt" height="345.6pt" viewBox="0 0 460.8 345.6" xmlns="http://www.w3.org/2000/svg" version="1.1">
 <metadata>
  <rdf:RDF xmlns:dc="http://purl.org/dc/elements/1.1/" xmlns:cc="http://creativecommons.org/ns#" xmlns:rdf="http://www.w3.org/1999/02/22-rdf-syntax-ns#">
   <cc:Work>
    <dc:type rdf:resource="http://purl.org/dc/dcmitype/StillImage"/>
    <dc:date>2024-08-05T05:50:15.663982</dc:date>
    <dc:format>image/svg+xml</dc:format>
    <dc:creator>
     <cc:Agent>
      <dc:title>Matplotlib v3.8.4, https://matplotlib.org/</dc:title>
     </cc:Agent>
    </dc:creator>
   </cc:Work>
  </rdf:RDF>
 </metadata>
 <defs>
  <style type="text/css">*{stroke-linejoin: round; stroke-linecap: butt}</style>
 </defs>
 <g id="figure_1">
  <g id="patch_1">
   <path d="M 0 345.6 
L 460.8 345.6 
L 460.8 0 
L 0 0 
z
" style="fill: #ffffff"/>
  </g>
  <g id="axes_1">
   <g id="patch_2">
    <path d="M 57.6 307.584 
L 414.72 307.584 
L 414.72 41.472 
L 57.6 41.472 
z
" style="fill: #ffffff"/>
   </g>
   <g id="matplotlib.axis_1">
    <g id="xtick_1">
     <g id="line2d_1">
      <path d="M 73.832727 307.584 
L 73.832727 41.472 
" clip-path="url(#p71454cac2d)" style="fill: none; stroke: #b0b0b0; stroke-width: 0.8; stroke-linecap: square"/>
     </g>
     <g id="line2d_2">
      <defs>
       <path id="m814b3f5178" d="M 0 0 
L 0 3.5 
" style="stroke: #000000; stroke-width: 0.8"/>
      </defs>
      <g>
       <use xlink:href="#m814b3f5178" x="73.832727" y="307.584" style="stroke: #000000; stroke-width: 0.8"/>
      </g>
     </g>
     <g id="text_1">
      <!-- 0 -->
      <g transform="translate(70.651477 322.182437) scale(0.1 -0.1)">
       <defs>
        <path id="DejaVuSans-30" d="M 2034 4250 
Q 1547 4250 1301 3770 
Q 1056 3291 1056 2328 
Q 1056 1369 1301 889 
Q 1547 409 2034 409 
Q 2525 409 2770 889 
Q 3016 1369 3016 2328 
Q 3016 3291 2770 3770 
Q 2525 4250 2034 4250 
z
M 2034 4750 
Q 2819 4750 3233 4129 
Q 3647 3509 3647 2328 
Q 3647 1150 3233 529 
Q 2819 -91 2034 -91 
Q 1250 -91 836 529 
Q 422 1150 422 2328 
Q 422 3509 836 4129 
Q 1250 4750 2034 4750 
z
" transform="scale(0.015625)"/>
       </defs>
       <use xlink:href="#DejaVuSans-30"/>
      </g>
     </g>
    </g>
    <g id="xtick_2">
     <g id="line2d_3">
      <path d="M 114.618474 307.584 
L 114.618474 41.472 
" clip-path="url(#p71454cac2d)" style="fill: none; stroke: #b0b0b0; stroke-width: 0.8; stroke-linecap: square"/>
     </g>
     <g id="line2d_4">
      <g>
       <use xlink:href="#m814b3f5178" x="114.618474" y="307.584" style="stroke: #000000; stroke-width: 0.8"/>
      </g>
     </g>
     <g id="text_2">
      <!-- 25 -->
      <g transform="translate(108.255974 322.182437) scale(0.1 -0.1)">
       <defs>
        <path id="DejaVuSans-32" d="M 1228 531 
L 3431 531 
L 3431 0 
L 469 0 
L 469 531 
Q 828 903 1448 1529 
Q 2069 2156 2228 2338 
Q 2531 2678 2651 2914 
Q 2772 3150 2772 3378 
Q 2772 3750 2511 3984 
Q 2250 4219 1831 4219 
Q 1534 4219 1204 4116 
Q 875 4013 500 3803 
L 500 4441 
Q 881 4594 1212 4672 
Q 1544 4750 1819 4750 
Q 2544 4750 2975 4387 
Q 3406 4025 3406 3419 
Q 3406 3131 3298 2873 
Q 3191 2616 2906 2266 
Q 2828 2175 2409 1742 
Q 1991 1309 1228 531 
z
" transform="scale(0.015625)"/>
        <path id="DejaVuSans-35" d="M 691 4666 
L 3169 4666 
L 3169 4134 
L 1269 4134 
L 1269 2991 
Q 1406 3038 1543 3061 
Q 1681 3084 1819 3084 
Q 2600 3084 3056 2656 
Q 3513 2228 3513 1497 
Q 3513 744 3044 326 
Q 2575 -91 1722 -91 
Q 1428 -91 1123 -41 
Q 819 9 494 109 
L 494 744 
Q 775 591 1075 516 
Q 1375 441 1709 441 
Q 2250 441 2565 725 
Q 2881 1009 2881 1497 
Q 2881 1984 2565 2268 
Q 2250 2553 1709 2553 
Q 1456 2553 1204 2497 
Q 953 2441 691 2322 
L 691 4666 
z
" transform="scale(0.015625)"/>
       </defs>
       <use xlink:href="#DejaVuSans-32"/>
       <use xlink:href="#DejaVuSans-35" x="63.623047"/>
      </g>
     </g>
    </g>
    <g id="xtick_3">
     <g id="line2d_5">
      <path d="M 155.404221 307.584 
L 155.404221 41.472 
" clip-path="url(#p71454cac2d)" style="fill: none; stroke: #b0b0b0; stroke-width: 0.8; stroke-linecap: square"/>
     </g>
     <g id="line2d_6">
      <g>
       <use xlink:href="#m814b3f5178" x="155.404221" y="307.584" style="stroke: #000000; stroke-width: 0.8"/>
      </g>
     </g>
     <g id="text_3">
      <!-- 50 -->
      <g transform="translate(149.041721 322.182437) scale(0.1 -0.1)">
       <use xlink:href="#DejaVuSans-35"/>
       <use xlink:href="#DejaVuSans-30" x="63.623047"/>
      </g>
     </g>
    </g>
    <g id="xtick_4">
     <g id="line2d_7">
      <path d="M 196.189968 307.584 
L 196.189968 41.472 
" clip-path="url(#p71454cac2d)" style="fill: none; stroke: #b0b0b0; stroke-width: 0.8; stroke-linecap: square"/>
     </g>
     <g id="line2d_8">
      <g>
       <use xlink:href="#m814b3f5178" x="196.189968" y="307.584" style="stroke: #000000; stroke-width: 0.8"/>
      </g>
     </g>
     <g id="text_4">
      <!-- 75 -->
      <g transform="translate(189.827468 322.182437) scale(0.1 -0.1)">
       <defs>
        <path id="DejaVuSans-37" d="M 525 4666 
L 3525 4666 
L 3525 4397 
L 1831 0 
L 1172 0 
L 2766 4134 
L 525 4134 
L 525 4666 
z
" transform="scale(0.015625)"/>
       </defs>
       <use xlink:href="#DejaVuSans-37"/>
       <use xlink:href="#DejaVuSans-35" x="63.623047"/>
      </g>
     </g>
    </g>
    <g id="xtick_5">
     <g id="line2d_9">
      <path d="M 236.975715 307.584 
L 236.975715 41.472 
" clip-path="url(#p71454cac2d)" style="fill: none; stroke: #b0b0b0; stroke-width: 0.8; stroke-linecap: square"/>
     </g>
     <g id="line2d_10">
      <g>
       <use xlink:href="#m814b3f5178" x="236.975715" y="307.584" style="stroke: #000000; stroke-width: 0.8"/>
      </g>
     </g>
     <g id="text_5">
      <!-- 100 -->
      <g transform="translate(227.431965 322.182437) scale(0.1 -0.1)">
       <defs>
        <path id="DejaVuSans-31" d="M 794 531 
L 1825 531 
L 1825 4091 
L 703 3866 
L 703 4441 
L 1819 4666 
L 2450 4666 
L 2450 531 
L 3481 531 
L 3481 0 
L 794 0 
L 794 531 
z
" transform="scale(0.015625)"/>
       </defs>
       <use xlink:href="#DejaVuSans-31"/>
       <use xlink:href="#DejaVuSans-30" x="63.623047"/>
       <use xlink:href="#DejaVuSans-30" x="127.246094"/>
      </g>
     </g>
    </g>
    <g id="xtick_6">
     <g id="line2d_11">
      <path d="M 277.761462 307.584 
L 277.761462 41.472 
" clip-path="url(#p71454cac2d)" style="fill: none; stroke: #b0b0b0; stroke-width: 0.8; stroke-linecap: square"/>
     </g>
     <g id="line2d_12">
      <g>
       <use xlink:href="#m814b3f5178" x="277.761462" y="307.584" style="stroke: #000000; stroke-width: 0.8"/>
      </g>
     </g>
     <g id="text_6">
      <!-- 125 -->
      <g transform="translate(268.217712 322.182437) scale(0.1 -0.1)">
       <use xlink:href="#DejaVuSans-31"/>
       <use xlink:href="#DejaVuSans-32" x="63.623047"/>
       <use xlink:href="#DejaVuSans-35" x="127.246094"/>
      </g>
     </g>
    </g>
    <g id="xtick_7">
     <g id="line2d_13">
      <path d="M 318.547209 307.584 
L 318.547209 41.472 
" clip-path="url(#p71454cac2d)" style="fill: none; stroke: #b0b0b0; stroke-width: 0.8; stroke-linecap: square"/>
     </g>
     <g id="line2d_14">
      <g>
       <use xlink:href="#m814b3f5178" x="318.547209" y="307.584" style="stroke: #000000; stroke-width: 0.8"/>
      </g>
     </g>
     <g id="text_7">
      <!-- 150 -->
      <g transform="translate(309.003459 322.182437) scale(0.1 -0.1)">
       <use xlink:href="#DejaVuSans-31"/>
       <use xlink:href="#DejaVuSans-35" x="63.623047"/>
       <use xlink:href="#DejaVuSans-30" x="127.246094"/>
      </g>
     </g>
    </g>
    <g id="xtick_8">
     <g id="line2d_15">
      <path d="M 359.332956 307.584 
L 359.332956 41.472 
" clip-path="url(#p71454cac2d)" style="fill: none; stroke: #b0b0b0; stroke-width: 0.8; stroke-linecap: square"/>
     </g>
     <g id="line2d_16">
      <g>
       <use xlink:href="#m814b3f5178" x="359.332956" y="307.584" style="stroke: #000000; stroke-width: 0.8"/>
      </g>
     </g>
     <g id="text_8">
      <!-- 175 -->
      <g transform="translate(349.789206 322.182437) scale(0.1 -0.1)">
       <use xlink:href="#DejaVuSans-31"/>
       <use xlink:href="#DejaVuSans-37" x="63.623047"/>
       <use xlink:href="#DejaVuSans-35" x="127.246094"/>
      </g>
     </g>
    </g>
    <g id="xtick_9">
     <g id="line2d_17">
      <path d="M 400.118703 307.584 
L 400.118703 41.472 
" clip-path="url(#p71454cac2d)" style="fill: none; stroke: #b0b0b0; stroke-width: 0.8; stroke-linecap: square"/>
     </g>
     <g id="line2d_18">
      <g>
       <use xlink:href="#m814b3f5178" x="400.118703" y="307.584" style="stroke: #000000; stroke-width: 0.8"/>
      </g>
     </g>
     <g id="text_9">
      <!-- 200 -->
      <g transform="translate(390.574953 322.182437) scale(0.1 -0.1)">
       <use xlink:href="#DejaVuSans-32"/>
       <use xlink:href="#DejaVuSans-30" x="63.623047"/>
       <use xlink:href="#DejaVuSans-30" x="127.246094"/>
      </g>
     </g>
    </g>
    <g id="text_10">
     <!-- Generations -->
     <g transform="translate(205.662344 335.860562) scale(0.1 -0.1)">
      <defs>
       <path id="DejaVuSans-47" d="M 3809 666 
L 3809 1919 
L 2778 1919 
L 2778 2438 
L 4434 2438 
L 4434 434 
Q 4069 175 3628 42 
Q 3188 -91 2688 -91 
Q 1594 -91 976 548 
Q 359 1188 359 2328 
Q 359 3472 976 4111 
Q 1594 4750 2688 4750 
Q 3144 4750 3555 4637 
Q 3966 4525 4313 4306 
L 4313 3634 
Q 3963 3931 3569 4081 
Q 3175 4231 2741 4231 
Q 1884 4231 1454 3753 
Q 1025 3275 1025 2328 
Q 1025 1384 1454 906 
Q 1884 428 2741 428 
Q 3075 428 3337 486 
Q 3600 544 3809 666 
z
" transform="scale(0.015625)"/>
       <path id="DejaVuSans-65" d="M 3597 1894 
L 3597 1613 
L 953 1613 
Q 991 1019 1311 708 
Q 1631 397 2203 397 
Q 2534 397 2845 478 
Q 3156 559 3463 722 
L 3463 178 
Q 3153 47 2828 -22 
Q 2503 -91 2169 -91 
Q 1331 -91 842 396 
Q 353 884 353 1716 
Q 353 2575 817 3079 
Q 1281 3584 2069 3584 
Q 2775 3584 3186 3129 
Q 3597 2675 3597 1894 
z
M 3022 2063 
Q 3016 2534 2758 2815 
Q 2500 3097 2075 3097 
Q 1594 3097 1305 2825 
Q 1016 2553 972 2059 
L 3022 2063 
z
" transform="scale(0.015625)"/>
       <path id="DejaVuSans-6e" d="M 3513 2113 
L 3513 0 
L 2938 0 
L 2938 2094 
Q 2938 2591 2744 2837 
Q 2550 3084 2163 3084 
Q 1697 3084 1428 2787 
Q 1159 2491 1159 1978 
L 1159 0 
L 581 0 
L 581 3500 
L 1159 3500 
L 1159 2956 
Q 1366 3272 1645 3428 
Q 1925 3584 2291 3584 
Q 2894 3584 3203 3211 
Q 3513 2838 3513 2113 
z
" transform="scale(0.015625)"/>
       <path id="DejaVuSans-72" d="M 2631 2963 
Q 2534 3019 2420 3045 
Q 2306 3072 2169 3072 
Q 1681 3072 1420 2755 
Q 1159 2438 1159 1844 
L 1159 0 
L 581 0 
L 581 3500 
L 1159 3500 
L 1159 2956 
Q 1341 3275 1631 3429 
Q 1922 3584 2338 3584 
Q 2397 3584 2469 3576 
Q 2541 3569 2628 3553 
L 2631 2963 
z
" transform="scale(0.015625)"/>
       <path id="DejaVuSans-61" d="M 2194 1759 
Q 1497 1759 1228 1600 
Q 959 1441 959 1056 
Q 959 750 1161 570 
Q 1363 391 1709 391 
Q 2188 391 2477 730 
Q 2766 1069 2766 1631 
L 2766 1759 
L 2194 1759 
z
M 3341 1997 
L 3341 0 
L 2766 0 
L 2766 531 
Q 2569 213 2275 61 
Q 1981 -91 1556 -91 
Q 1019 -91 701 211 
Q 384 513 384 1019 
Q 384 1609 779 1909 
Q 1175 2209 1959 2209 
L 2766 2209 
L 2766 2266 
Q 2766 2663 2505 2880 
Q 2244 3097 1772 3097 
Q 1472 3097 1187 3025 
Q 903 2953 641 2809 
L 641 3341 
Q 956 3463 1253 3523 
Q 1550 3584 1831 3584 
Q 2591 3584 2966 3190 
Q 3341 2797 3341 1997 
z
" transform="scale(0.015625)"/>
       <path id="DejaVuSans-74" d="M 1172 4494 
L 1172 3500 
L 2356 3500 
L 2356 3053 
L 1172 3053 
L 1172 1153 
Q 1172 725 1289 603 
Q 1406 481 1766 481 
L 2356 481 
L 2356 0 
L 1766 0 
Q 1100 0 847 248 
Q 594 497 594 1153 
L 594 3053 
L 172 3053 
L 172 3500 
L 594 3500 
L 594 4494 
L 1172 4494 
z
" transform="scale(0.015625)"/>
       <path id="DejaVuSans-69" d="M 603 3500 
L 1178 3500 
L 1178 0 
L 603 0 
L 603 3500 
z
M 603 4863 
L 1178 4863 
L 1178 4134 
L 603 4134 
L 603 4863 
z
" transform="scale(0.015625)"/>
       <path id="DejaVuSans-6f" d="M 1959 3097 
Q 1497 3097 1228 2736 
Q 959 2375 959 1747 
Q 959 1119 1226 758 
Q 1494 397 1959 397 
Q 2419 397 2687 759 
Q 2956 1122 2956 1747 
Q 2956 2369 2687 2733 
Q 2419 3097 1959 3097 
z
M 1959 3584 
Q 2709 3584 3137 3096 
Q 3566 2609 3566 1747 
Q 3566 888 3137 398 
Q 2709 -91 1959 -91 
Q 1206 -91 779 398 
Q 353 888 353 1747 
Q 353 2609 779 3096 
Q 1206 3584 1959 3584 
z
" transform="scale(0.015625)"/>
       <path id="DejaVuSans-73" d="M 2834 3397 
L 2834 2853 
Q 2591 2978 2328 3040 
Q 2066 3103 1784 3103 
Q 1356 3103 1142 2972 
Q 928 2841 928 2578 
Q 928 2378 1081 2264 
Q 1234 2150 1697 2047 
L 1894 2003 
Q 2506 1872 2764 1633 
Q 3022 1394 3022 966 
Q 3022 478 2636 193 
Q 2250 -91 1575 -91 
Q 1294 -91 989 -36 
Q 684 19 347 128 
L 347 722 
Q 666 556 975 473 
Q 1284 391 1588 391 
Q 1994 391 2212 530 
Q 2431 669 2431 922 
Q 2431 1156 2273 1281 
Q 2116 1406 1581 1522 
L 1381 1569 
Q 847 1681 609 1914 
Q 372 2147 372 2553 
Q 372 3047 722 3315 
Q 1072 3584 1716 3584 
Q 2034 3584 2315 3537 
Q 2597 3491 2834 3397 
z
" transform="scale(0.015625)"/>
      </defs>
      <use xlink:href="#DejaVuSans-47"/>
      <use xlink:href="#DejaVuSans-65" x="77.490234"/>
      <use xlink:href="#DejaVuSans-6e" x="139.013672"/>
      <use xlink:href="#DejaVuSans-65" x="202.392578"/>
      <use xlink:href="#DejaVuSans-72" x="263.916016"/>
      <use xlink:href="#DejaVuSans-61" x="305.029297"/>
      <use xlink:href="#DejaVuSans-74" x="366.308594"/>
      <use xlink:href="#DejaVuSans-69" x="405.517578"/>
      <use xlink:href="#DejaVuSans-6f" x="433.300781"/>
      <use xlink:href="#DejaVuSans-6e" x="494.482422"/>
      <use xlink:href="#DejaVuSans-73" x="557.861328"/>
     </g>
    </g>
   </g>
   <g id="matplotlib.axis_2">
    <g id="ytick_1">
     <g id="line2d_19">
      <path d="M 57.6 282.28967 
L 414.72 282.28967 
" clip-path="url(#p71454cac2d)" style="fill: none; stroke: #b0b0b0; stroke-width: 0.8; stroke-linecap: square"/>
     </g>
     <g id="line2d_20">
      <defs>
       <path id="mc236a558fb" d="M 0 0 
L -3.5 0 
" style="stroke: #000000; stroke-width: 0.8"/>
      </defs>
      <g>
       <use xlink:href="#mc236a558fb" x="57.6" y="282.28967" style="stroke: #000000; stroke-width: 0.8"/>
      </g>
     </g>
     <g id="text_11">
      <!-- −2000 -->
      <g transform="translate(16.770313 286.088889) scale(0.1 -0.1)">
       <defs>
        <path id="DejaVuSans-2212" d="M 678 2272 
L 4684 2272 
L 4684 1741 
L 678 1741 
L 678 2272 
z
" transform="scale(0.015625)"/>
       </defs>
       <use xlink:href="#DejaVuSans-2212"/>
       <use xlink:href="#DejaVuSans-32" x="83.789062"/>
       <use xlink:href="#DejaVuSans-30" x="147.412109"/>
       <use xlink:href="#DejaVuSans-30" x="211.035156"/>
       <use xlink:href="#DejaVuSans-30" x="274.658203"/>
      </g>
     </g>
    </g>
    <g id="ytick_2">
     <g id="line2d_21">
      <path d="M 57.6 247.947652 
L 414.72 247.947652 
" clip-path="url(#p71454cac2d)" style="fill: none; stroke: #b0b0b0; stroke-width: 0.8; stroke-linecap: square"/>
     </g>
     <g id="line2d_22">
      <g>
       <use xlink:href="#mc236a558fb" x="57.6" y="247.947652" style="stroke: #000000; stroke-width: 0.8"/>
      </g>
     </g>
     <g id="text_12">
      <!-- −1750 -->
      <g transform="translate(16.770313 251.746871) scale(0.1 -0.1)">
       <use xlink:href="#DejaVuSans-2212"/>
       <use xlink:href="#DejaVuSans-31" x="83.789062"/>
       <use xlink:href="#DejaVuSans-37" x="147.412109"/>
       <use xlink:href="#DejaVuSans-35" x="211.035156"/>
       <use xlink:href="#DejaVuSans-30" x="274.658203"/>
      </g>
     </g>
    </g>
    <g id="ytick_3">
     <g id="line2d_23">
      <path d="M 57.6 213.605633 
L 414.72 213.605633 
" clip-path="url(#p71454cac2d)" style="fill: none; stroke: #b0b0b0; stroke-width: 0.8; stroke-linecap: square"/>
     </g>
     <g id="line2d_24">
      <g>
       <use xlink:href="#mc236a558fb" x="57.6" y="213.605633" style="stroke: #000000; stroke-width: 0.8"/>
      </g>
     </g>
     <g id="text_13">
      <!-- −1500 -->
      <g transform="translate(16.770313 217.404852) scale(0.1 -0.1)">
       <use xlink:href="#DejaVuSans-2212"/>
       <use xlink:href="#DejaVuSans-31" x="83.789062"/>
       <use xlink:href="#DejaVuSans-35" x="147.412109"/>
       <use xlink:href="#DejaVuSans-30" x="211.035156"/>
       <use xlink:href="#DejaVuSans-30" x="274.658203"/>
      </g>
     </g>
    </g>
    <g id="ytick_4">
     <g id="line2d_25">
      <path d="M 57.6 179.263615 
L 414.72 179.263615 
" clip-path="url(#p71454cac2d)" style="fill: none; stroke: #b0b0b0; stroke-width: 0.8; stroke-linecap: square"/>
     </g>
     <g id="line2d_26">
      <g>
       <use xlink:href="#mc236a558fb" x="57.6" y="179.263615" style="stroke: #000000; stroke-width: 0.8"/>
      </g>
     </g>
     <g id="text_14">
      <!-- −1250 -->
      <g transform="translate(16.770313 183.062834) scale(0.1 -0.1)">
       <use xlink:href="#DejaVuSans-2212"/>
       <use xlink:href="#DejaVuSans-31" x="83.789062"/>
       <use xlink:href="#DejaVuSans-32" x="147.412109"/>
       <use xlink:href="#DejaVuSans-35" x="211.035156"/>
       <use xlink:href="#DejaVuSans-30" x="274.658203"/>
      </g>
     </g>
    </g>
    <g id="ytick_5">
     <g id="line2d_27">
      <path d="M 57.6 144.921596 
L 414.72 144.921596 
" clip-path="url(#p71454cac2d)" style="fill: none; stroke: #b0b0b0; stroke-width: 0.8; stroke-linecap: square"/>
     </g>
     <g id="line2d_28">
      <g>
       <use xlink:href="#mc236a558fb" x="57.6" y="144.921596" style="stroke: #000000; stroke-width: 0.8"/>
      </g>
     </g>
     <g id="text_15">
      <!-- −1000 -->
      <g transform="translate(16.770313 148.720815) scale(0.1 -0.1)">
       <use xlink:href="#DejaVuSans-2212"/>
       <use xlink:href="#DejaVuSans-31" x="83.789062"/>
       <use xlink:href="#DejaVuSans-30" x="147.412109"/>
       <use xlink:href="#DejaVuSans-30" x="211.035156"/>
       <use xlink:href="#DejaVuSans-30" x="274.658203"/>
      </g>
     </g>
    </g>
    <g id="ytick_6">
     <g id="line2d_29">
      <path d="M 57.6 110.579578 
L 414.72 110.579578 
" clip-path="url(#p71454cac2d)" style="fill: none; stroke: #b0b0b0; stroke-width: 0.8; stroke-linecap: square"/>
     </g>
     <g id="line2d_30">
      <g>
       <use xlink:href="#mc236a558fb" x="57.6" y="110.579578" style="stroke: #000000; stroke-width: 0.8"/>
      </g>
     </g>
     <g id="text_16">
      <!-- −750 -->
      <g transform="translate(23.132812 114.378797) scale(0.1 -0.1)">
       <use xlink:href="#DejaVuSans-2212"/>
       <use xlink:href="#DejaVuSans-37" x="83.789062"/>
       <use xlink:href="#DejaVuSans-35" x="147.412109"/>
       <use xlink:href="#DejaVuSans-30" x="211.035156"/>
      </g>
     </g>
    </g>
    <g id="ytick_7">
     <g id="line2d_31">
      <path d="M 57.6 76.237559 
L 414.72 76.237559 
" clip-path="url(#p71454cac2d)" style="fill: none; stroke: #b0b0b0; stroke-width: 0.8; stroke-linecap: square"/>
     </g>
     <g id="line2d_32">
      <g>
       <use xlink:href="#mc236a558fb" x="57.6" y="76.237559" style="stroke: #000000; stroke-width: 0.8"/>
      </g>
     </g>
     <g id="text_17">
      <!-- −500 -->
      <g transform="translate(23.132812 80.036778) scale(0.1 -0.1)">
       <use xlink:href="#DejaVuSans-2212"/>
       <use xlink:href="#DejaVuSans-35" x="83.789062"/>
       <use xlink:href="#DejaVuSans-30" x="147.412109"/>
       <use xlink:href="#DejaVuSans-30" x="211.035156"/>
      </g>
     </g>
    </g>
    <g id="ytick_8">
     <g id="line2d_33">
      <path d="M 57.6 41.895541 
L 414.72 41.895541 
" clip-path="url(#p71454cac2d)" style="fill: none; stroke: #b0b0b0; stroke-width: 0.8; stroke-linecap: square"/>
     </g>
     <g id="line2d_34">
      <g>
       <use xlink:href="#mc236a558fb" x="57.6" y="41.895541" style="stroke: #000000; stroke-width: 0.8"/>
      </g>
     </g>
     <g id="text_18">
      <!-- −250 -->
      <g transform="translate(23.132812 45.69476) scale(0.1 -0.1)">
       <use xlink:href="#DejaVuSans-2212"/>
       <use xlink:href="#DejaVuSans-32" x="83.789062"/>
       <use xlink:href="#DejaVuSans-35" x="147.412109"/>
       <use xlink:href="#DejaVuSans-30" x="211.035156"/>
      </g>
     </g>
    </g>
    <g id="text_19">
     <!-- Fitness -->
     <g transform="translate(10.690625 191.845187) rotate(-90) scale(0.1 -0.1)">
      <defs>
       <path id="DejaVuSans-46" d="M 628 4666 
L 3309 4666 
L 3309 4134 
L 1259 4134 
L 1259 2759 
L 3109 2759 
L 3109 2228 
L 1259 2228 
L 1259 0 
L 628 0 
L 628 4666 
z
" transform="scale(0.015625)"/>
      </defs>
      <use xlink:href="#DejaVuSans-46"/>
      <use xlink:href="#DejaVuSans-69" x="50.269531"/>
      <use xlink:href="#DejaVuSans-74" x="78.052734"/>
      <use xlink:href="#DejaVuSans-6e" x="117.261719"/>
      <use xlink:href="#DejaVuSans-65" x="180.640625"/>
      <use xlink:href="#DejaVuSans-73" x="242.164062"/>
      <use xlink:href="#DejaVuSans-73" x="294.263672"/>
     </g>
    </g>
   </g>
   <g id="line2d_35">
    <path d="M 73.832727 266.575067 
L 75.464157 263.684604 
L 77.095587 264.234426 
L 78.727017 261.453711 
L 81.989877 260.677516 
L 83.621307 261.798391 
L 85.252736 260.120864 
L 86.884166 261.161476 
L 88.515596 259.318379 
L 90.147026 260.680926 
L 91.778456 260.272145 
L 93.409886 260.838083 
L 95.041316 260.051491 
L 96.672746 260.294425 
L 98.304175 258.705187 
L 101.567035 261.050769 
L 103.198465 259.329675 
L 104.829895 257.944779 
L 106.461325 259.110845 
L 108.092755 257.383526 
L 109.724185 258.630206 
L 111.355614 256.196316 
L 112.987044 256.063228 
L 114.618474 257.585752 
L 116.249904 255.857893 
L 117.881334 253.935986 
L 119.512764 254.84204 
L 121.144194 256.030595 
L 122.775624 254.590474 
L 124.407053 255.585807 
L 126.038483 254.196772 
L 127.669913 255.71268 
L 129.301343 255.18267 
L 130.932773 252.821423 
L 132.564203 256.208188 
L 134.195633 255.779796 
L 135.827063 255.14472 
L 137.458492 253.926243 
L 139.089922 254.932061 
L 140.721352 253.04783 
L 142.352782 254.059391 
L 145.615642 255.932936 
L 147.247072 255.304049 
L 148.878502 252.666875 
L 150.509931 254.090633 
L 152.141361 255.950154 
L 153.772791 255.896633 
L 155.404221 256.29235 
L 157.035651 256.457434 
L 158.667081 256.748203 
L 160.298511 255.728747 
L 161.929941 254.37948 
L 163.56137 253.404394 
L 165.1928 254.707484 
L 166.82423 254.238801 
L 168.45566 255.156891 
L 170.08709 254.474729 
L 171.71852 255.206617 
L 173.34995 256.076939 
L 174.98138 256.01387 
L 176.61281 253.725679 
L 178.244239 253.302165 
L 179.875669 254.529543 
L 181.507099 252.621687 
L 183.138529 254.894346 
L 184.769959 253.685787 
L 186.401389 254.048768 
L 188.032819 255.083224 
L 189.664249 254.151567 
L 191.295678 252.812147 
L 192.927108 254.28872 
L 194.558538 254.065027 
L 196.189968 255.659384 
L 197.821398 255.457575 
L 199.452828 255.499515 
L 201.084258 255.184394 
L 202.715688 253.269362 
L 204.347117 253.263813 
L 205.978547 252.149682 
L 207.609977 253.769524 
L 209.241407 254.251683 
L 210.872837 254.552731 
L 212.504267 255.589293 
L 214.135697 256.074979 
L 215.767127 254.73035 
L 217.398556 254.935033 
L 219.029986 255.980827 
L 220.661416 253.746958 
L 222.292846 251.936162 
L 223.924276 253.65962 
L 225.555706 256.012399 
L 227.187136 256.780305 
L 228.818566 256.536688 
L 230.449995 255.976777 
L 232.081425 255.949376 
L 233.712855 253.846041 
L 235.344285 255.77152 
L 236.975715 253.572993 
L 238.607145 254.880119 
L 240.238575 253.295648 
L 241.870005 254.083556 
L 243.501434 253.080803 
L 245.132864 255.07173 
L 246.764294 254.518331 
L 248.395724 253.366183 
L 250.027154 256.000067 
L 251.658584 255.308047 
L 253.290014 255.739409 
L 254.921444 255.871388 
L 256.552873 256.126903 
L 258.184303 255.39369 
L 259.815733 255.165055 
L 261.447163 256.318315 
L 263.078593 255.126246 
L 264.710023 256.027826 
L 266.341453 256.014957 
L 267.972883 254.563499 
L 269.604312 257.348836 
L 271.235742 255.653418 
L 272.867172 253.092084 
L 274.498602 254.770491 
L 276.130032 255.790136 
L 277.761462 256.220162 
L 279.392892 254.00613 
L 281.024322 255.472465 
L 282.655751 254.576081 
L 284.287181 253.524295 
L 285.918611 254.51112 
L 287.550041 253.592825 
L 289.181471 254.443275 
L 290.812901 253.738963 
L 292.444331 254.568436 
L 294.075761 254.958564 
L 295.70719 256.456884 
L 297.33862 256.004419 
L 298.97005 255.698247 
L 300.60148 255.5992 
L 302.23291 255.653779 
L 303.86434 254.963877 
L 305.49577 254.471909 
L 307.1272 253.823303 
L 310.390059 253.304603 
L 312.021489 253.773648 
L 313.652919 253.563149 
L 315.284349 252.46859 
L 316.915779 252.480337 
L 318.547209 252.963546 
L 320.178639 254.030187 
L 321.810069 253.233335 
L 323.441498 250.714616 
L 325.072928 252.100216 
L 326.704358 251.72762 
L 328.335788 254.37877 
L 329.967218 254.743549 
L 331.598648 255.261233 
L 333.230078 255.52171 
L 334.861508 255.184443 
L 336.492937 256.982171 
L 338.124367 255.67029 
L 339.755797 256.144615 
L 341.387227 257.760814 
L 343.018657 259.16959 
L 344.650087 259.439113 
L 346.281517 259.062274 
L 347.912947 257.402965 
L 349.544376 258.145905 
L 351.175806 258.291099 
L 354.438666 257.858543 
L 356.070096 256.735278 
L 357.701526 255.909242 
L 359.332956 256.260855 
L 360.964386 256.349752 
L 362.595815 256.221998 
L 364.227245 257.731268 
L 365.858675 258.789023 
L 367.490105 258.114247 
L 369.121535 259.26278 
L 370.752965 258.333197 
L 372.384395 258.605989 
L 374.015825 258.744254 
L 375.647254 257.472312 
L 377.278684 257.230746 
L 378.910114 256.822661 
L 380.541544 258.959801 
L 382.172974 256.856053 
L 383.804404 257.104909 
L 385.435834 257.980822 
L 387.067264 257.059758 
L 388.698693 255.156739 
L 390.330123 256.489792 
L 391.961553 256.014231 
L 393.592983 254.698913 
L 395.224413 255.267455 
L 396.855843 256.523402 
L 398.487273 254.262515 
L 398.487273 254.262515 
" clip-path="url(#p71454cac2d)" style="fill: none; stroke: #0000ff; stroke-width: 1.5; stroke-linecap: square"/>
   </g>
   <g id="line2d_36">
    <path d="M 73.832727 284.022668 
L 75.464157 286.031169 
L 77.095587 281.863907 
L 78.727017 279.023104 
L 80.358447 278.929074 
L 81.989877 277.833454 
L 83.621307 279.043767 
L 85.252736 280.934281 
L 86.884166 278.193835 
L 88.515596 277.176454 
L 90.147026 278.90417 
L 91.778456 276.117037 
L 93.409886 277.139195 
L 95.041316 275.96148 
L 98.304175 276.21767 
L 99.935605 276.848692 
L 101.567035 279.222464 
L 103.198465 278.777468 
L 104.829895 277.981563 
L 106.461325 278.065105 
L 108.092755 279.012121 
L 109.724185 279.726937 
L 111.355614 284.703218 
L 112.987044 285.799568 
L 114.618474 285.451176 
L 116.249904 284.169547 
L 117.881334 287.990374 
L 119.512764 291.459847 
L 121.144194 287.536701 
L 122.775624 287.475877 
L 124.407053 288.214687 
L 126.038483 286.244321 
L 127.669913 288.167419 
L 129.301343 290.333366 
L 130.932773 288.739127 
L 132.564203 291.499907 
L 134.195633 289.740623 
L 135.827063 289.372958 
L 137.458492 288.627771 
L 139.089922 289.528787 
L 140.721352 291.552672 
L 142.352782 289.725316 
L 143.984212 290.087977 
L 145.615642 289.406263 
L 147.247072 291.680699 
L 148.878502 293.47188 
L 150.509931 292.214618 
L 152.141361 288.368038 
L 153.772791 289.515003 
L 155.404221 289.570496 
L 158.667081 288.875137 
L 160.298511 289.881527 
L 161.929941 289.79912 
L 165.1928 293.40074 
L 166.82423 290.498208 
L 168.45566 291.105566 
L 170.08709 289.816821 
L 171.71852 290.051485 
L 173.34995 290.106241 
L 174.98138 290.708029 
L 176.61281 288.434289 
L 178.244239 287.74632 
L 181.507099 289.841473 
L 183.138529 289.022143 
L 184.769959 289.206351 
L 186.401389 288.306719 
L 188.032819 290.14127 
L 189.664249 289.940886 
L 191.295678 288.858017 
L 192.927108 288.791816 
L 194.558538 290.707973 
L 196.189968 288.870672 
L 197.821398 288.366749 
L 199.452828 288.178335 
L 201.084258 290.403401 
L 202.715688 291.351686 
L 204.347117 293.544551 
L 205.978547 295.488 
L 207.609977 292.303084 
L 210.872837 291.94776 
L 214.135697 290.243744 
L 215.767127 291.872993 
L 217.398556 290.015484 
L 219.029986 290.487697 
L 220.661416 291.735458 
L 222.292846 293.611471 
L 223.924276 290.231164 
L 227.187136 290.404127 
L 228.818566 290.963175 
L 230.449995 290.865593 
L 232.081425 290.242426 
L 233.712855 291.12123 
L 235.344285 290.107472 
L 236.975715 289.611263 
L 238.607145 290.73799 
L 240.238575 291.556954 
L 241.870005 289.33765 
L 243.501434 292.04598 
L 245.132864 290.324501 
L 246.764294 289.873563 
L 248.395724 291.026849 
L 250.027154 288.072786 
L 251.658584 288.079643 
L 253.290014 287.722019 
L 254.921444 287.02669 
L 256.552873 288.073261 
L 258.184303 286.374807 
L 259.815733 288.633413 
L 261.447163 288.694937 
L 264.710023 289.657962 
L 266.341453 289.061902 
L 267.972883 289.59089 
L 269.604312 289.958002 
L 271.235742 288.475088 
L 272.867172 290.496321 
L 276.130032 287.124917 
L 277.761462 286.939182 
L 279.392892 290.30596 
L 281.024322 288.57428 
L 282.655751 289.483352 
L 284.287181 291.990192 
L 285.918611 289.018502 
L 287.550041 289.814359 
L 289.181471 289.750304 
L 290.812901 290.624298 
L 292.444331 291.232597 
L 294.075761 290.264955 
L 297.33862 287.5204 
L 298.97005 288.856442 
L 300.60148 289.189216 
L 302.23291 289.947539 
L 303.86434 290.178594 
L 305.49577 290.538644 
L 307.1272 292.13597 
L 308.75863 292.215626 
L 310.390059 292.100596 
L 312.021489 292.122757 
L 313.652919 291.670506 
L 315.284349 291.877424 
L 316.915779 293.171535 
L 318.547209 292.634206 
L 321.810069 293.028579 
L 323.441498 293.731999 
L 325.072928 293.214236 
L 326.704358 295.084314 
L 328.335788 292.114154 
L 329.967218 291.812419 
L 331.598648 289.380446 
L 333.230078 289.301568 
L 334.861508 289.792104 
L 336.492937 289.248916 
L 338.124367 291.865973 
L 339.755797 289.245054 
L 341.387227 285.370602 
L 343.018657 284.766692 
L 344.650087 285.338122 
L 346.281517 284.55031 
L 347.912947 284.085648 
L 349.544376 284.234533 
L 351.175806 285.046864 
L 352.807236 284.557257 
L 354.438666 284.404266 
L 356.070096 286.666119 
L 357.701526 289.267864 
L 359.332956 286.943099 
L 360.964386 288.097952 
L 362.595815 289.86304 
L 364.227245 287.517378 
L 365.858675 283.686766 
L 367.490105 282.945687 
L 370.752965 284.637818 
L 372.384395 285.106676 
L 374.015825 285.310748 
L 377.278684 285.397242 
L 378.910114 284.415397 
L 380.541544 287.51688 
L 382.172974 288.147071 
L 383.804404 285.076148 
L 385.435834 285.753611 
L 387.067264 285.235434 
L 388.698693 289.362168 
L 390.330123 289.135442 
L 391.961553 290.426712 
L 393.592983 292.475818 
L 395.224413 292.145754 
L 396.855843 292.661126 
L 398.487273 292.378723 
L 398.487273 292.378723 
" clip-path="url(#p71454cac2d)" style="fill: none; stroke-dasharray: 9.6,2.4,1.5,2.4; stroke-dashoffset: 0; stroke: #008000; stroke-width: 1.5"/>
   </g>
   <g id="line2d_37">
    <path d="M 73.832727 249.127467 
L 75.464157 241.338038 
L 77.095587 246.604946 
L 78.727017 243.884318 
L 80.358447 243.29983 
L 81.989877 243.521579 
L 83.621307 244.553014 
L 85.252736 239.307447 
L 86.884166 244.129118 
L 88.515596 241.460304 
L 90.147026 242.457681 
L 91.778456 244.427253 
L 93.409886 244.536971 
L 95.041316 244.141503 
L 96.672746 244.450437 
L 98.304175 241.192704 
L 99.935605 242.852775 
L 101.567035 242.879074 
L 103.198465 239.881883 
L 104.829895 237.907994 
L 106.461325 240.156585 
L 108.092755 235.754931 
L 109.724185 237.533475 
L 111.355614 227.689413 
L 112.987044 226.326888 
L 114.618474 229.720329 
L 116.249904 227.546239 
L 117.881334 219.881598 
L 119.512764 218.224232 
L 121.144194 224.524489 
L 122.775624 221.705072 
L 124.407053 222.956927 
L 126.038483 222.149223 
L 127.669913 223.257941 
L 130.932773 216.90372 
L 132.564203 220.91647 
L 134.195633 221.818969 
L 135.827063 220.916482 
L 137.458492 219.224714 
L 139.089922 220.335336 
L 140.721352 214.542988 
L 142.352782 218.393466 
L 143.984212 219.790715 
L 145.615642 222.459609 
L 147.247072 218.927399 
L 148.878502 211.86187 
L 150.509931 215.966649 
L 152.141361 223.532269 
L 153.772791 222.278263 
L 157.035651 223.675688 
L 158.667081 224.621269 
L 160.298511 221.575966 
L 161.929941 218.959841 
L 163.56137 215.162238 
L 165.1928 216.014228 
L 166.82423 217.979393 
L 168.45566 219.208216 
L 170.08709 219.132636 
L 171.71852 220.36175 
L 173.34995 222.047637 
L 174.98138 221.319712 
L 176.61281 219.01707 
L 178.244239 218.85801 
L 179.875669 220.246343 
L 181.507099 215.401901 
L 183.138529 220.766548 
L 184.769959 218.165224 
L 186.401389 219.790817 
L 188.032819 220.025178 
L 191.295678 216.766276 
L 192.927108 219.785624 
L 194.558538 217.42208 
L 196.189968 222.448097 
L 197.821398 222.548401 
L 199.452828 222.820695 
L 201.084258 219.965387 
L 202.715688 215.187038 
L 204.347117 212.983075 
L 205.978547 208.811365 
L 207.609977 215.235963 
L 209.241407 216.415766 
L 210.872837 217.157702 
L 212.504267 220.090188 
L 214.135697 221.906213 
L 215.767127 217.587707 
L 217.398556 219.854582 
L 219.029986 221.473958 
L 222.292846 210.260853 
L 223.924276 217.088075 
L 225.555706 221.718131 
L 227.187136 223.156482 
L 230.449995 221.087962 
L 232.081425 221.656326 
L 233.712855 216.570852 
L 235.344285 221.435567 
L 236.975715 217.534724 
L 238.607145 219.022248 
L 240.238575 215.034341 
L 241.870005 218.829461 
L 243.501434 214.115626 
L 245.132864 219.818959 
L 246.764294 219.163098 
L 248.395724 215.705516 
L 250.027154 223.927349 
L 251.658584 222.536451 
L 253.290014 223.756799 
L 254.921444 224.716085 
L 256.552873 224.180545 
L 258.184303 224.412573 
L 259.815733 221.696698 
L 261.447163 223.941692 
L 263.078593 221.111663 
L 264.710023 222.39769 
L 266.341453 222.968013 
L 267.972883 219.536108 
L 269.604312 224.739669 
L 271.235742 222.831749 
L 272.867172 215.687847 
L 274.498602 220.74667 
L 276.130032 224.455354 
L 277.761462 225.501142 
L 279.392892 217.7063 
L 281.024322 222.370651 
L 282.655751 219.668809 
L 284.287181 215.058397 
L 285.918611 220.003739 
L 287.550041 217.371291 
L 289.181471 219.136245 
L 290.812901 216.853629 
L 292.444331 217.904275 
L 294.075761 219.652173 
L 295.70719 224.01649 
L 297.33862 224.488438 
L 298.97005 222.540052 
L 300.60148 222.009185 
L 302.23291 221.360018 
L 303.86434 219.749159 
L 305.49577 218.405173 
L 307.1272 215.510637 
L 308.75863 214.927998 
L 310.390059 214.50861 
L 312.021489 215.42454 
L 313.652919 215.455793 
L 315.284349 213.059756 
L 316.915779 211.78914 
L 318.547209 213.292886 
L 320.178639 215.197586 
L 321.810069 213.43809 
L 323.441498 207.697232 
L 325.072928 210.986197 
L 326.704358 208.370927 
L 328.335788 216.643385 
L 329.967218 217.67468 
L 331.598648 221.142019 
L 333.230078 221.741851 
L 334.861508 220.576782 
L 336.492937 224.715426 
L 338.124367 219.474608 
L 339.755797 223.044175 
L 341.387227 230.151026 
L 343.018657 233.572488 
L 346.281517 233.574237 
L 347.912947 230.720281 
L 349.544376 232.057276 
L 351.175806 231.535334 
L 352.807236 231.70274 
L 354.438666 231.31282 
L 357.701526 222.55062 
L 359.332956 225.578611 
L 360.964386 224.601552 
L 362.595815 222.580955 
L 364.227245 227.945157 
L 365.858675 233.891281 
L 367.490105 233.282808 
L 369.121535 234.736261 
L 370.752965 232.028576 
L 374.015825 232.177759 
L 375.647254 229.559392 
L 377.278684 229.06425 
L 378.910114 229.229925 
L 380.541544 230.402723 
L 382.172974 225.565035 
L 383.804404 229.133671 
L 385.435834 230.208033 
L 387.067264 228.884083 
L 388.698693 220.95131 
L 390.330123 223.844142 
L 391.961553 221.60175 
L 393.592983 216.922009 
L 395.224413 218.389157 
L 396.855843 220.385679 
L 398.487273 216.146307 
L 398.487273 216.146307 
" clip-path="url(#p71454cac2d)" style="fill: none; stroke-dasharray: 9.6,2.4,1.5,2.4; stroke-dashoffset: 0; stroke: #008000; stroke-width: 1.5"/>
   </g>
   <g id="line2d_38">
    <path d="M 73.832727 107.017863 
L 109.724185 107.017863 
L 111.355614 106.484881 
L 116.249904 106.484881 
L 117.881334 53.568 
L 398.487273 53.568 
L 398.487273 53.568 
" clip-path="url(#p71454cac2d)" style="fill: none; stroke: #ff0000; stroke-width: 1.5; stroke-linecap: square"/>
   </g>
   <g id="patch_3">
    <path d="M 57.6 307.584 
L 57.6 41.472 
" style="fill: none; stroke: #000000; stroke-width: 0.8; stroke-linejoin: miter; stroke-linecap: square"/>
   </g>
   <g id="patch_4">
    <path d="M 414.72 307.584 
L 414.72 41.472 
" style="fill: none; stroke: #000000; stroke-width: 0.8; stroke-linejoin: miter; stroke-linecap: square"/>
   </g>
   <g id="patch_5">
    <path d="M 57.6 307.584 
L 414.72 307.584 
" style="fill: none; stroke: #000000; stroke-width: 0.8; stroke-linejoin: miter; stroke-linecap: square"/>
   </g>
   <g id="patch_6">
    <path d="M 57.6 41.472 
L 414.72 41.472 
" style="fill: none; stroke: #000000; stroke-width: 0.8; stroke-linejoin: miter; stroke-linecap: square"/>
   </g>
   <g id="text_20">
    <!-- Population's average and best fitness -->
    <g transform="translate(123.529687 35.472) scale(0.12 -0.12)">
     <defs>
      <path id="DejaVuSans-50" d="M 1259 4147 
L 1259 2394 
L 2053 2394 
Q 2494 2394 2734 2622 
Q 2975 2850 2975 3272 
Q 2975 3691 2734 3919 
Q 2494 4147 2053 4147 
L 1259 4147 
z
M 628 4666 
L 2053 4666 
Q 2838 4666 3239 4311 
Q 3641 3956 3641 3272 
Q 3641 2581 3239 2228 
Q 2838 1875 2053 1875 
L 1259 1875 
L 1259 0 
L 628 0 
L 628 4666 
z
" transform="scale(0.015625)"/>
      <path id="DejaVuSans-70" d="M 1159 525 
L 1159 -1331 
L 581 -1331 
L 581 3500 
L 1159 3500 
L 1159 2969 
Q 1341 3281 1617 3432 
Q 1894 3584 2278 3584 
Q 2916 3584 3314 3078 
Q 3713 2572 3713 1747 
Q 3713 922 3314 415 
Q 2916 -91 2278 -91 
Q 1894 -91 1617 61 
Q 1341 213 1159 525 
z
M 3116 1747 
Q 3116 2381 2855 2742 
Q 2594 3103 2138 3103 
Q 1681 3103 1420 2742 
Q 1159 2381 1159 1747 
Q 1159 1113 1420 752 
Q 1681 391 2138 391 
Q 2594 391 2855 752 
Q 3116 1113 3116 1747 
z
" transform="scale(0.015625)"/>
      <path id="DejaVuSans-75" d="M 544 1381 
L 544 3500 
L 1119 3500 
L 1119 1403 
Q 1119 906 1312 657 
Q 1506 409 1894 409 
Q 2359 409 2629 706 
Q 2900 1003 2900 1516 
L 2900 3500 
L 3475 3500 
L 3475 0 
L 2900 0 
L 2900 538 
Q 2691 219 2414 64 
Q 2138 -91 1772 -91 
Q 1169 -91 856 284 
Q 544 659 544 1381 
z
M 1991 3584 
L 1991 3584 
z
" transform="scale(0.015625)"/>
      <path id="DejaVuSans-6c" d="M 603 4863 
L 1178 4863 
L 1178 0 
L 603 0 
L 603 4863 
z
" transform="scale(0.015625)"/>
      <path id="DejaVuSans-27" d="M 1147 4666 
L 1147 2931 
L 616 2931 
L 616 4666 
L 1147 4666 
z
" transform="scale(0.015625)"/>
      <path id="DejaVuSans-20" transform="scale(0.015625)"/>
      <path id="DejaVuSans-76" d="M 191 3500 
L 800 3500 
L 1894 563 
L 2988 3500 
L 3597 3500 
L 2284 0 
L 1503 0 
L 191 3500 
z
" transform="scale(0.015625)"/>
      <path id="DejaVuSans-67" d="M 2906 1791 
Q 2906 2416 2648 2759 
Q 2391 3103 1925 3103 
Q 1463 3103 1205 2759 
Q 947 2416 947 1791 
Q 947 1169 1205 825 
Q 1463 481 1925 481 
Q 2391 481 2648 825 
Q 2906 1169 2906 1791 
z
M 3481 434 
Q 3481 -459 3084 -895 
Q 2688 -1331 1869 -1331 
Q 1566 -1331 1297 -1286 
Q 1028 -1241 775 -1147 
L 775 -588 
Q 1028 -725 1275 -790 
Q 1522 -856 1778 -856 
Q 2344 -856 2625 -561 
Q 2906 -266 2906 331 
L 2906 616 
Q 2728 306 2450 153 
Q 2172 0 1784 0 
Q 1141 0 747 490 
Q 353 981 353 1791 
Q 353 2603 747 3093 
Q 1141 3584 1784 3584 
Q 2172 3584 2450 3431 
Q 2728 3278 2906 2969 
L 2906 3500 
L 3481 3500 
L 3481 434 
z
" transform="scale(0.015625)"/>
      <path id="DejaVuSans-64" d="M 2906 2969 
L 2906 4863 
L 3481 4863 
L 3481 0 
L 2906 0 
L 2906 525 
Q 2725 213 2448 61 
Q 2172 -91 1784 -91 
Q 1150 -91 751 415 
Q 353 922 353 1747 
Q 353 2572 751 3078 
Q 1150 3584 1784 3584 
Q 2172 3584 2448 3432 
Q 2725 3281 2906 2969 
z
M 947 1747 
Q 947 1113 1208 752 
Q 1469 391 1925 391 
Q 2381 391 2643 752 
Q 2906 1113 2906 1747 
Q 2906 2381 2643 2742 
Q 2381 3103 1925 3103 
Q 1469 3103 1208 2742 
Q 947 2381 947 1747 
z
" transform="scale(0.015625)"/>
      <path id="DejaVuSans-62" d="M 3116 1747 
Q 3116 2381 2855 2742 
Q 2594 3103 2138 3103 
Q 1681 3103 1420 2742 
Q 1159 2381 1159 1747 
Q 1159 1113 1420 752 
Q 1681 391 2138 391 
Q 2594 391 2855 752 
Q 3116 1113 3116 1747 
z
M 1159 2969 
Q 1341 3281 1617 3432 
Q 1894 3584 2278 3584 
Q 2916 3584 3314 3078 
Q 3713 2572 3713 1747 
Q 3713 922 3314 415 
Q 2916 -91 2278 -91 
Q 1894 -91 1617 61 
Q 1341 213 1159 525 
L 1159 0 
L 581 0 
L 581 4863 
L 1159 4863 
L 1159 2969 
z
" transform="scale(0.015625)"/>
      <path id="DejaVuSans-66" d="M 2375 4863 
L 2375 4384 
L 1825 4384 
Q 1516 4384 1395 4259 
Q 1275 4134 1275 3809 
L 1275 3500 
L 2222 3500 
L 2222 3053 
L 1275 3053 
L 1275 0 
L 697 0 
L 697 3053 
L 147 3053 
L 147 3500 
L 697 3500 
L 697 3744 
Q 697 4328 969 4595 
Q 1241 4863 1831 4863 
L 2375 4863 
z
" transform="scale(0.015625)"/>
     </defs>
     <use xlink:href="#DejaVuSans-50"/>
     <use xlink:href="#DejaVuSans-6f" x="56.677734"/>
     <use xlink:href="#DejaVuSans-70" x="117.859375"/>
     <use xlink:href="#DejaVuSans-75" x="181.335938"/>
     <use xlink:href="#DejaVuSans-6c" x="244.714844"/>
     <use xlink:href="#DejaVuSans-61" x="272.498047"/>
     <use xlink:href="#DejaVuSans-74" x="333.777344"/>
     <use xlink:href="#DejaVuSans-69" x="372.986328"/>
     <use xlink:href="#DejaVuSans-6f" x="400.769531"/>
     <use xlink:href="#DejaVuSans-6e" x="461.951172"/>
     <use xlink:href="#DejaVuSans-27" x="525.330078"/>
     <use xlink:href="#DejaVuSans-73" x="552.820312"/>
     <use xlink:href="#DejaVuSans-20" x="604.919922"/>
     <use xlink:href="#DejaVuSans-61" x="636.707031"/>
     <use xlink:href="#DejaVuSans-76" x="697.986328"/>
     <use xlink:href="#DejaVuSans-65" x="757.166016"/>
     <use xlink:href="#DejaVuSans-72" x="818.689453"/>
     <use xlink:href="#DejaVuSans-61" x="859.802734"/>
     <use xlink:href="#DejaVuSans-67" x="921.082031"/>
     <use xlink:href="#DejaVuSans-65" x="984.558594"/>
     <use xlink:href="#DejaVuSans-20" x="1046.082031"/>
     <use xlink:href="#DejaVuSans-61" x="1077.869141"/>
     <use xlink:href="#DejaVuSans-6e" x="1139.148438"/>
     <use xlink:href="#DejaVuSans-64" x="1202.527344"/>
     <use xlink:href="#DejaVuSans-20" x="1266.003906"/>
     <use xlink:href="#DejaVuSans-62" x="1297.791016"/>
     <use xlink:href="#DejaVuSans-65" x="1361.267578"/>
     <use xlink:href="#DejaVuSans-73" x="1422.791016"/>
     <use xlink:href="#DejaVuSans-74" x="1474.890625"/>
     <use xlink:href="#DejaVuSans-20" x="1514.099609"/>
     <use xlink:href="#DejaVuSans-66" x="1545.886719"/>
     <use xlink:href="#DejaVuSans-69" x="1581.091797"/>
     <use xlink:href="#DejaVuSans-74" x="1608.875"/>
     <use xlink:href="#DejaVuSans-6e" x="1648.083984"/>
     <use xlink:href="#DejaVuSans-65" x="1711.462891"/>
     <use xlink:href="#DejaVuSans-73" x="1772.986328"/>
     <use xlink:href="#DejaVuSans-73" x="1825.085938"/>
    </g>
   </g>
   <g id="legend_1">
    <g id="patch_7">
     <path d="M 334.779375 205.38425 
L 407.72 205.38425 
Q 409.72 205.38425 409.72 203.38425 
L 409.72 145.67175 
Q 409.72 143.67175 407.72 143.67175 
L 334.779375 143.67175 
Q 332.779375 143.67175 332.779375 145.67175 
L 332.779375 203.38425 
Q 332.779375 205.38425 334.779375 205.38425 
z
" style="fill: #ffffff; opacity: 0.8; stroke: #cccccc; stroke-linejoin: miter"/>
    </g>
    <g id="line2d_39">
     <path d="M 336.779375 151.770188 
L 346.779375 151.770188 
L 356.779375 151.770188 
" style="fill: none; stroke: #0000ff; stroke-width: 1.5; stroke-linecap: square"/>
    </g>
    <g id="text_21">
     <!-- average -->
     <g transform="translate(364.779375 155.270188) scale(0.1 -0.1)">
      <use xlink:href="#DejaVuSans-61"/>
      <use xlink:href="#DejaVuSans-76" x="61.279297"/>
      <use xlink:href="#DejaVuSans-65" x="120.458984"/>
      <use xlink:href="#DejaVuSans-72" x="181.982422"/>
      <use xlink:href="#DejaVuSans-61" x="223.095703"/>
      <use xlink:href="#DejaVuSans-67" x="284.375"/>
      <use xlink:href="#DejaVuSans-65" x="347.851562"/>
     </g>
    </g>
    <g id="line2d_40">
     <path d="M 336.779375 166.448313 
L 346.779375 166.448313 
L 356.779375 166.448313 
" style="fill: none; stroke-dasharray: 9.6,2.4,1.5,2.4; stroke-dashoffset: 0; stroke: #008000; stroke-width: 1.5"/>
    </g>
    <g id="text_22">
     <!-- -1 sd -->
     <g transform="translate(364.779375 169.948313) scale(0.1 -0.1)">
      <defs>
       <path id="DejaVuSans-2d" d="M 313 2009 
L 1997 2009 
L 1997 1497 
L 313 1497 
L 313 2009 
z
" transform="scale(0.015625)"/>
      </defs>
      <use xlink:href="#DejaVuSans-2d"/>
      <use xlink:href="#DejaVuSans-31" x="36.083984"/>
      <use xlink:href="#DejaVuSans-20" x="99.707031"/>
      <use xlink:href="#DejaVuSans-73" x="131.494141"/>
      <use xlink:href="#DejaVuSans-64" x="183.59375"/>
     </g>
    </g>
    <g id="line2d_41">
     <path d="M 336.779375 181.126438 
L 346.779375 181.126438 
L 356.779375 181.126438 
" style="fill: none; stroke-dasharray: 9.6,2.4,1.5,2.4; stroke-dashoffset: 0; stroke: #008000; stroke-width: 1.5"/>
    </g>
    <g id="text_23">
     <!-- +1 sd -->
     <g transform="translate(364.779375 184.626438) scale(0.1 -0.1)">
      <defs>
       <path id="DejaVuSans-2b" d="M 2944 4013 
L 2944 2272 
L 4684 2272 
L 4684 1741 
L 2944 1741 
L 2944 0 
L 2419 0 
L 2419 1741 
L 678 1741 
L 678 2272 
L 2419 2272 
L 2419 4013 
L 2944 4013 
z
" transform="scale(0.015625)"/>
      </defs>
      <use xlink:href="#DejaVuSans-2b"/>
      <use xlink:href="#DejaVuSans-31" x="83.789062"/>
      <use xlink:href="#DejaVuSans-20" x="147.412109"/>
      <use xlink:href="#DejaVuSans-73" x="179.199219"/>
      <use xlink:href="#DejaVuSans-64" x="231.298828"/>
     </g>
    </g>
    <g id="line2d_42">
     <path d="M 336.779375 195.804563 
L 346.779375 195.804563 
L 356.779375 195.804563 
" style="fill: none; stroke: #ff0000; stroke-width: 1.5; stroke-linecap: square"/>
    </g>
    <g id="text_24">
     <!-- best -->
     <g transform="translate(364.779375 199.304563) scale(0.1 -0.1)">
      <use xlink:href="#DejaVuSans-62"/>
      <use xlink:href="#DejaVuSans-65" x="63.476562"/>
      <use xlink:href="#DejaVuSans-73" x="125"/>
      <use xlink:href="#DejaVuSans-74" x="177.099609"/>
     </g>
    </g>
   </g>
  </g>
 </g>
 <defs>
  <clipPath id="p71454cac2d">
   <rect x="57.6" y="41.472" width="357.12" height="266.112"/>
  </clipPath>
 </defs>
</svg>
