<?xml version="1.0" encoding="utf-8" standalone="no"?>
<!DOCTYPE svg PUBLIC "-//W3C//DTD SVG 1.1//EN"
  "http://www.w3.org/Graphics/SVG/1.1/DTD/svg11.dtd">
<svg xmlns:xlink="http://www.w3.org/1999/xlink" width="460.8pt" height="345.6pt" viewBox="0 0 460.8 345.6" xmlns="http://www.w3.org/2000/svg" version="1.1">
 <metadata>
  <rdf:RDF xmlns:dc="http://purl.org/dc/elements/1.1/" xmlns:cc="http://creativecommons.org/ns#" xmlns:rdf="http://www.w3.org/1999/02/22-rdf-syntax-ns#">
   <cc:Work>
    <dc:type rdf:resource="http://purl.org/dc/dcmitype/StillImage"/>
    <dc:date>2024-08-07T19:40:12.425603</dc:date>
    <dc:format>image/svg+xml</dc:format>
    <dc:creator>
     <cc:Agent>
      <dc:title>Matplotlib v3.8.4, https://matplotlib.org/</dc:title>
     </cc:Agent>
    </dc:creator>
   </cc:Work>
  </rdf:RDF>
 </metadata>
 <defs>
  <style type="text/css">*{stroke-linejoin: round; stroke-linecap: butt}</style>
 </defs>
 <g id="figure_1">
  <g id="patch_1">
   <path d="M 0 345.6 
L 460.8 345.6 
L 460.8 0 
L 0 0 
z
" style="fill: #ffffff"/>
  </g>
  <g id="axes_1">
   <g id="patch_2">
    <path d="M 57.6 307.584 
L 414.72 307.584 
L 414.72 41.472 
L 57.6 41.472 
z
" style="fill: #ffffff"/>
   </g>
   <g id="matplotlib.axis_1">
    <g id="xtick_1">
     <g id="line2d_1">
      <path d="M 73.832727 307.584 
L 73.832727 41.472 
" clip-path="url(#pa596a3d481)" style="fill: none; stroke: #b0b0b0; stroke-width: 0.8; stroke-linecap: square"/>
     </g>
     <g id="line2d_2">
      <defs>
       <path id="maa7835b265" d="M 0 0 
L 0 3.5 
" style="stroke: #000000; stroke-width: 0.8"/>
      </defs>
      <g>
       <use xlink:href="#maa7835b265" x="73.832727" y="307.584" style="stroke: #000000; stroke-width: 0.8"/>
      </g>
     </g>
     <g id="text_1">
      <!-- 0 -->
      <g transform="translate(70.651477 322.182437) scale(0.1 -0.1)">
       <defs>
        <path id="DejaVuSans-30" d="M 2034 4250 
Q 1547 4250 1301 3770 
Q 1056 3291 1056 2328 
Q 1056 1369 1301 889 
Q 1547 409 2034 409 
Q 2525 409 2770 889 
Q 3016 1369 3016 2328 
Q 3016 3291 2770 3770 
Q 2525 4250 2034 4250 
z
M 2034 4750 
Q 2819 4750 3233 4129 
Q 3647 3509 3647 2328 
Q 3647 1150 3233 529 
Q 2819 -91 2034 -91 
Q 1250 -91 836 529 
Q 422 1150 422 2328 
Q 422 3509 836 4129 
Q 1250 4750 2034 4750 
z
" transform="scale(0.015625)"/>
       </defs>
       <use xlink:href="#DejaVuSans-30"/>
      </g>
     </g>
    </g>
    <g id="xtick_2">
     <g id="line2d_3">
      <path d="M 114.618474 307.584 
L 114.618474 41.472 
" clip-path="url(#pa596a3d481)" style="fill: none; stroke: #b0b0b0; stroke-width: 0.8; stroke-linecap: square"/>
     </g>
     <g id="line2d_4">
      <g>
       <use xlink:href="#maa7835b265" x="114.618474" y="307.584" style="stroke: #000000; stroke-width: 0.8"/>
      </g>
     </g>
     <g id="text_2">
      <!-- 25 -->
      <g transform="translate(108.255974 322.182437) scale(0.1 -0.1)">
       <defs>
        <path id="DejaVuSans-32" d="M 1228 531 
L 3431 531 
L 3431 0 
L 469 0 
L 469 531 
Q 828 903 1448 1529 
Q 2069 2156 2228 2338 
Q 2531 2678 2651 2914 
Q 2772 3150 2772 3378 
Q 2772 3750 2511 3984 
Q 2250 4219 1831 4219 
Q 1534 4219 1204 4116 
Q 875 4013 500 3803 
L 500 4441 
Q 881 4594 1212 4672 
Q 1544 4750 1819 4750 
Q 2544 4750 2975 4387 
Q 3406 4025 3406 3419 
Q 3406 3131 3298 2873 
Q 3191 2616 2906 2266 
Q 2828 2175 2409 1742 
Q 1991 1309 1228 531 
z
" transform="scale(0.015625)"/>
        <path id="DejaVuSans-35" d="M 691 4666 
L 3169 4666 
L 3169 4134 
L 1269 4134 
L 1269 2991 
Q 1406 3038 1543 3061 
Q 1681 3084 1819 3084 
Q 2600 3084 3056 2656 
Q 3513 2228 3513 1497 
Q 3513 744 3044 326 
Q 2575 -91 1722 -91 
Q 1428 -91 1123 -41 
Q 819 9 494 109 
L 494 744 
Q 775 591 1075 516 
Q 1375 441 1709 441 
Q 2250 441 2565 725 
Q 2881 1009 2881 1497 
Q 2881 1984 2565 2268 
Q 2250 2553 1709 2553 
Q 1456 2553 1204 2497 
Q 953 2441 691 2322 
L 691 4666 
z
" transform="scale(0.015625)"/>
       </defs>
       <use xlink:href="#DejaVuSans-32"/>
       <use xlink:href="#DejaVuSans-35" x="63.623047"/>
      </g>
     </g>
    </g>
    <g id="xtick_3">
     <g id="line2d_5">
      <path d="M 155.404221 307.584 
L 155.404221 41.472 
" clip-path="url(#pa596a3d481)" style="fill: none; stroke: #b0b0b0; stroke-width: 0.8; stroke-linecap: square"/>
     </g>
     <g id="line2d_6">
      <g>
       <use xlink:href="#maa7835b265" x="155.404221" y="307.584" style="stroke: #000000; stroke-width: 0.8"/>
      </g>
     </g>
     <g id="text_3">
      <!-- 50 -->
      <g transform="translate(149.041721 322.182437) scale(0.1 -0.1)">
       <use xlink:href="#DejaVuSans-35"/>
       <use xlink:href="#DejaVuSans-30" x="63.623047"/>
      </g>
     </g>
    </g>
    <g id="xtick_4">
     <g id="line2d_7">
      <path d="M 196.189968 307.584 
L 196.189968 41.472 
" clip-path="url(#pa596a3d481)" style="fill: none; stroke: #b0b0b0; stroke-width: 0.8; stroke-linecap: square"/>
     </g>
     <g id="line2d_8">
      <g>
       <use xlink:href="#maa7835b265" x="196.189968" y="307.584" style="stroke: #000000; stroke-width: 0.8"/>
      </g>
     </g>
     <g id="text_4">
      <!-- 75 -->
      <g transform="translate(189.827468 322.182437) scale(0.1 -0.1)">
       <defs>
        <path id="DejaVuSans-37" d="M 525 4666 
L 3525 4666 
L 3525 4397 
L 1831 0 
L 1172 0 
L 2766 4134 
L 525 4134 
L 525 4666 
z
" transform="scale(0.015625)"/>
       </defs>
       <use xlink:href="#DejaVuSans-37"/>
       <use xlink:href="#DejaVuSans-35" x="63.623047"/>
      </g>
     </g>
    </g>
    <g id="xtick_5">
     <g id="line2d_9">
      <path d="M 236.975715 307.584 
L 236.975715 41.472 
" clip-path="url(#pa596a3d481)" style="fill: none; stroke: #b0b0b0; stroke-width: 0.8; stroke-linecap: square"/>
     </g>
     <g id="line2d_10">
      <g>
       <use xlink:href="#maa7835b265" x="236.975715" y="307.584" style="stroke: #000000; stroke-width: 0.8"/>
      </g>
     </g>
     <g id="text_5">
      <!-- 100 -->
      <g transform="translate(227.431965 322.182437) scale(0.1 -0.1)">
       <defs>
        <path id="DejaVuSans-31" d="M 794 531 
L 1825 531 
L 1825 4091 
L 703 3866 
L 703 4441 
L 1819 4666 
L 2450 4666 
L 2450 531 
L 3481 531 
L 3481 0 
L 794 0 
L 794 531 
z
" transform="scale(0.015625)"/>
       </defs>
       <use xlink:href="#DejaVuSans-31"/>
       <use xlink:href="#DejaVuSans-30" x="63.623047"/>
       <use xlink:href="#DejaVuSans-30" x="127.246094"/>
      </g>
     </g>
    </g>
    <g id="xtick_6">
     <g id="line2d_11">
      <path d="M 277.761462 307.584 
L 277.761462 41.472 
" clip-path="url(#pa596a3d481)" style="fill: none; stroke: #b0b0b0; stroke-width: 0.8; stroke-linecap: square"/>
     </g>
     <g id="line2d_12">
      <g>
       <use xlink:href="#maa7835b265" x="277.761462" y="307.584" style="stroke: #000000; stroke-width: 0.8"/>
      </g>
     </g>
     <g id="text_6">
      <!-- 125 -->
      <g transform="translate(268.217712 322.182437) scale(0.1 -0.1)">
       <use xlink:href="#DejaVuSans-31"/>
       <use xlink:href="#DejaVuSans-32" x="63.623047"/>
       <use xlink:href="#DejaVuSans-35" x="127.246094"/>
      </g>
     </g>
    </g>
    <g id="xtick_7">
     <g id="line2d_13">
      <path d="M 318.547209 307.584 
L 318.547209 41.472 
" clip-path="url(#pa596a3d481)" style="fill: none; stroke: #b0b0b0; stroke-width: 0.8; stroke-linecap: square"/>
     </g>
     <g id="line2d_14">
      <g>
       <use xlink:href="#maa7835b265" x="318.547209" y="307.584" style="stroke: #000000; stroke-width: 0.8"/>
      </g>
     </g>
     <g id="text_7">
      <!-- 150 -->
      <g transform="translate(309.003459 322.182437) scale(0.1 -0.1)">
       <use xlink:href="#DejaVuSans-31"/>
       <use xlink:href="#DejaVuSans-35" x="63.623047"/>
       <use xlink:href="#DejaVuSans-30" x="127.246094"/>
      </g>
     </g>
    </g>
    <g id="xtick_8">
     <g id="line2d_15">
      <path d="M 359.332956 307.584 
L 359.332956 41.472 
" clip-path="url(#pa596a3d481)" style="fill: none; stroke: #b0b0b0; stroke-width: 0.8; stroke-linecap: square"/>
     </g>
     <g id="line2d_16">
      <g>
       <use xlink:href="#maa7835b265" x="359.332956" y="307.584" style="stroke: #000000; stroke-width: 0.8"/>
      </g>
     </g>
     <g id="text_8">
      <!-- 175 -->
      <g transform="translate(349.789206 322.182437) scale(0.1 -0.1)">
       <use xlink:href="#DejaVuSans-31"/>
       <use xlink:href="#DejaVuSans-37" x="63.623047"/>
       <use xlink:href="#DejaVuSans-35" x="127.246094"/>
      </g>
     </g>
    </g>
    <g id="xtick_9">
     <g id="line2d_17">
      <path d="M 400.118703 307.584 
L 400.118703 41.472 
" clip-path="url(#pa596a3d481)" style="fill: none; stroke: #b0b0b0; stroke-width: 0.8; stroke-linecap: square"/>
     </g>
     <g id="line2d_18">
      <g>
       <use xlink:href="#maa7835b265" x="400.118703" y="307.584" style="stroke: #000000; stroke-width: 0.8"/>
      </g>
     </g>
     <g id="text_9">
      <!-- 200 -->
      <g transform="translate(390.574953 322.182437) scale(0.1 -0.1)">
       <use xlink:href="#DejaVuSans-32"/>
       <use xlink:href="#DejaVuSans-30" x="63.623047"/>
       <use xlink:href="#DejaVuSans-30" x="127.246094"/>
      </g>
     </g>
    </g>
    <g id="text_10">
     <!-- Generations -->
     <g transform="translate(205.662344 335.860562) scale(0.1 -0.1)">
      <defs>
       <path id="DejaVuSans-47" d="M 3809 666 
L 3809 1919 
L 2778 1919 
L 2778 2438 
L 4434 2438 
L 4434 434 
Q 4069 175 3628 42 
Q 3188 -91 2688 -91 
Q 1594 -91 976 548 
Q 359 1188 359 2328 
Q 359 3472 976 4111 
Q 1594 4750 2688 4750 
Q 3144 4750 3555 4637 
Q 3966 4525 4313 4306 
L 4313 3634 
Q 3963 3931 3569 4081 
Q 3175 4231 2741 4231 
Q 1884 4231 1454 3753 
Q 1025 3275 1025 2328 
Q 1025 1384 1454 906 
Q 1884 428 2741 428 
Q 3075 428 3337 486 
Q 3600 544 3809 666 
z
" transform="scale(0.015625)"/>
       <path id="DejaVuSans-65" d="M 3597 1894 
L 3597 1613 
L 953 1613 
Q 991 1019 1311 708 
Q 1631 397 2203 397 
Q 2534 397 2845 478 
Q 3156 559 3463 722 
L 3463 178 
Q 3153 47 2828 -22 
Q 2503 -91 2169 -91 
Q 1331 -91 842 396 
Q 353 884 353 1716 
Q 353 2575 817 3079 
Q 1281 3584 2069 3584 
Q 2775 3584 3186 3129 
Q 3597 2675 3597 1894 
z
M 3022 2063 
Q 3016 2534 2758 2815 
Q 2500 3097 2075 3097 
Q 1594 3097 1305 2825 
Q 1016 2553 972 2059 
L 3022 2063 
z
" transform="scale(0.015625)"/>
       <path id="DejaVuSans-6e" d="M 3513 2113 
L 3513 0 
L 2938 0 
L 2938 2094 
Q 2938 2591 2744 2837 
Q 2550 3084 2163 3084 
Q 1697 3084 1428 2787 
Q 1159 2491 1159 1978 
L 1159 0 
L 581 0 
L 581 3500 
L 1159 3500 
L 1159 2956 
Q 1366 3272 1645 3428 
Q 1925 3584 2291 3584 
Q 2894 3584 3203 3211 
Q 3513 2838 3513 2113 
z
" transform="scale(0.015625)"/>
       <path id="DejaVuSans-72" d="M 2631 2963 
Q 2534 3019 2420 3045 
Q 2306 3072 2169 3072 
Q 1681 3072 1420 2755 
Q 1159 2438 1159 1844 
L 1159 0 
L 581 0 
L 581 3500 
L 1159 3500 
L 1159 2956 
Q 1341 3275 1631 3429 
Q 1922 3584 2338 3584 
Q 2397 3584 2469 3576 
Q 2541 3569 2628 3553 
L 2631 2963 
z
" transform="scale(0.015625)"/>
       <path id="DejaVuSans-61" d="M 2194 1759 
Q 1497 1759 1228 1600 
Q 959 1441 959 1056 
Q 959 750 1161 570 
Q 1363 391 1709 391 
Q 2188 391 2477 730 
Q 2766 1069 2766 1631 
L 2766 1759 
L 2194 1759 
z
M 3341 1997 
L 3341 0 
L 2766 0 
L 2766 531 
Q 2569 213 2275 61 
Q 1981 -91 1556 -91 
Q 1019 -91 701 211 
Q 384 513 384 1019 
Q 384 1609 779 1909 
Q 1175 2209 1959 2209 
L 2766 2209 
L 2766 2266 
Q 2766 2663 2505 2880 
Q 2244 3097 1772 3097 
Q 1472 3097 1187 3025 
Q 903 2953 641 2809 
L 641 3341 
Q 956 3463 1253 3523 
Q 1550 3584 1831 3584 
Q 2591 3584 2966 3190 
Q 3341 2797 3341 1997 
z
" transform="scale(0.015625)"/>
       <path id="DejaVuSans-74" d="M 1172 4494 
L 1172 3500 
L 2356 3500 
L 2356 3053 
L 1172 3053 
L 1172 1153 
Q 1172 725 1289 603 
Q 1406 481 1766 481 
L 2356 481 
L 2356 0 
L 1766 0 
Q 1100 0 847 248 
Q 594 497 594 1153 
L 594 3053 
L 172 3053 
L 172 3500 
L 594 3500 
L 594 4494 
L 1172 4494 
z
" transform="scale(0.015625)"/>
       <path id="DejaVuSans-69" d="M 603 3500 
L 1178 3500 
L 1178 0 
L 603 0 
L 603 3500 
z
M 603 4863 
L 1178 4863 
L 1178 4134 
L 603 4134 
L 603 4863 
z
" transform="scale(0.015625)"/>
       <path id="DejaVuSans-6f" d="M 1959 3097 
Q 1497 3097 1228 2736 
Q 959 2375 959 1747 
Q 959 1119 1226 758 
Q 1494 397 1959 397 
Q 2419 397 2687 759 
Q 2956 1122 2956 1747 
Q 2956 2369 2687 2733 
Q 2419 3097 1959 3097 
z
M 1959 3584 
Q 2709 3584 3137 3096 
Q 3566 2609 3566 1747 
Q 3566 888 3137 398 
Q 2709 -91 1959 -91 
Q 1206 -91 779 398 
Q 353 888 353 1747 
Q 353 2609 779 3096 
Q 1206 3584 1959 3584 
z
" transform="scale(0.015625)"/>
       <path id="DejaVuSans-73" d="M 2834 3397 
L 2834 2853 
Q 2591 2978 2328 3040 
Q 2066 3103 1784 3103 
Q 1356 3103 1142 2972 
Q 928 2841 928 2578 
Q 928 2378 1081 2264 
Q 1234 2150 1697 2047 
L 1894 2003 
Q 2506 1872 2764 1633 
Q 3022 1394 3022 966 
Q 3022 478 2636 193 
Q 2250 -91 1575 -91 
Q 1294 -91 989 -36 
Q 684 19 347 128 
L 347 722 
Q 666 556 975 473 
Q 1284 391 1588 391 
Q 1994 391 2212 530 
Q 2431 669 2431 922 
Q 2431 1156 2273 1281 
Q 2116 1406 1581 1522 
L 1381 1569 
Q 847 1681 609 1914 
Q 372 2147 372 2553 
Q 372 3047 722 3315 
Q 1072 3584 1716 3584 
Q 2034 3584 2315 3537 
Q 2597 3491 2834 3397 
z
" transform="scale(0.015625)"/>
      </defs>
      <use xlink:href="#DejaVuSans-47"/>
      <use xlink:href="#DejaVuSans-65" x="77.490234"/>
      <use xlink:href="#DejaVuSans-6e" x="139.013672"/>
      <use xlink:href="#DejaVuSans-65" x="202.392578"/>
      <use xlink:href="#DejaVuSans-72" x="263.916016"/>
      <use xlink:href="#DejaVuSans-61" x="305.029297"/>
      <use xlink:href="#DejaVuSans-74" x="366.308594"/>
      <use xlink:href="#DejaVuSans-69" x="405.517578"/>
      <use xlink:href="#DejaVuSans-6f" x="433.300781"/>
      <use xlink:href="#DejaVuSans-6e" x="494.482422"/>
      <use xlink:href="#DejaVuSans-73" x="557.861328"/>
     </g>
    </g>
   </g>
   <g id="matplotlib.axis_2">
    <g id="ytick_1">
     <g id="line2d_19">
      <path d="M 57.6 296.10498 
L 414.72 296.10498 
" clip-path="url(#pa596a3d481)" style="fill: none; stroke: #b0b0b0; stroke-width: 0.8; stroke-linecap: square"/>
     </g>
     <g id="line2d_20">
      <defs>
       <path id="m094e6846c0" d="M 0 0 
L -3.5 0 
" style="stroke: #000000; stroke-width: 0.8"/>
      </defs>
      <g>
       <use xlink:href="#m094e6846c0" x="57.6" y="296.10498" style="stroke: #000000; stroke-width: 0.8"/>
      </g>
     </g>
     <g id="text_11">
      <!-- −2250 -->
      <g transform="translate(16.770313 299.904199) scale(0.1 -0.1)">
       <defs>
        <path id="DejaVuSans-2212" d="M 678 2272 
L 4684 2272 
L 4684 1741 
L 678 1741 
L 678 2272 
z
" transform="scale(0.015625)"/>
       </defs>
       <use xlink:href="#DejaVuSans-2212"/>
       <use xlink:href="#DejaVuSans-32" x="83.789062"/>
       <use xlink:href="#DejaVuSans-32" x="147.412109"/>
       <use xlink:href="#DejaVuSans-35" x="211.035156"/>
       <use xlink:href="#DejaVuSans-30" x="274.658203"/>
      </g>
     </g>
    </g>
    <g id="ytick_2">
     <g id="line2d_21">
      <path d="M 57.6 264.795957 
L 414.72 264.795957 
" clip-path="url(#pa596a3d481)" style="fill: none; stroke: #b0b0b0; stroke-width: 0.8; stroke-linecap: square"/>
     </g>
     <g id="line2d_22">
      <g>
       <use xlink:href="#m094e6846c0" x="57.6" y="264.795957" style="stroke: #000000; stroke-width: 0.8"/>
      </g>
     </g>
     <g id="text_12">
      <!-- −2000 -->
      <g transform="translate(16.770313 268.595176) scale(0.1 -0.1)">
       <use xlink:href="#DejaVuSans-2212"/>
       <use xlink:href="#DejaVuSans-32" x="83.789062"/>
       <use xlink:href="#DejaVuSans-30" x="147.412109"/>
       <use xlink:href="#DejaVuSans-30" x="211.035156"/>
       <use xlink:href="#DejaVuSans-30" x="274.658203"/>
      </g>
     </g>
    </g>
    <g id="ytick_3">
     <g id="line2d_23">
      <path d="M 57.6 233.486933 
L 414.72 233.486933 
" clip-path="url(#pa596a3d481)" style="fill: none; stroke: #b0b0b0; stroke-width: 0.8; stroke-linecap: square"/>
     </g>
     <g id="line2d_24">
      <g>
       <use xlink:href="#m094e6846c0" x="57.6" y="233.486933" style="stroke: #000000; stroke-width: 0.8"/>
      </g>
     </g>
     <g id="text_13">
      <!-- −1750 -->
      <g transform="translate(16.770313 237.286152) scale(0.1 -0.1)">
       <use xlink:href="#DejaVuSans-2212"/>
       <use xlink:href="#DejaVuSans-31" x="83.789062"/>
       <use xlink:href="#DejaVuSans-37" x="147.412109"/>
       <use xlink:href="#DejaVuSans-35" x="211.035156"/>
       <use xlink:href="#DejaVuSans-30" x="274.658203"/>
      </g>
     </g>
    </g>
    <g id="ytick_4">
     <g id="line2d_25">
      <path d="M 57.6 202.17791 
L 414.72 202.17791 
" clip-path="url(#pa596a3d481)" style="fill: none; stroke: #b0b0b0; stroke-width: 0.8; stroke-linecap: square"/>
     </g>
     <g id="line2d_26">
      <g>
       <use xlink:href="#m094e6846c0" x="57.6" y="202.17791" style="stroke: #000000; stroke-width: 0.8"/>
      </g>
     </g>
     <g id="text_14">
      <!-- −1500 -->
      <g transform="translate(16.770313 205.977128) scale(0.1 -0.1)">
       <use xlink:href="#DejaVuSans-2212"/>
       <use xlink:href="#DejaVuSans-31" x="83.789062"/>
       <use xlink:href="#DejaVuSans-35" x="147.412109"/>
       <use xlink:href="#DejaVuSans-30" x="211.035156"/>
       <use xlink:href="#DejaVuSans-30" x="274.658203"/>
      </g>
     </g>
    </g>
    <g id="ytick_5">
     <g id="line2d_27">
      <path d="M 57.6 170.868886 
L 414.72 170.868886 
" clip-path="url(#pa596a3d481)" style="fill: none; stroke: #b0b0b0; stroke-width: 0.8; stroke-linecap: square"/>
     </g>
     <g id="line2d_28">
      <g>
       <use xlink:href="#m094e6846c0" x="57.6" y="170.868886" style="stroke: #000000; stroke-width: 0.8"/>
      </g>
     </g>
     <g id="text_15">
      <!-- −1250 -->
      <g transform="translate(16.770313 174.668105) scale(0.1 -0.1)">
       <use xlink:href="#DejaVuSans-2212"/>
       <use xlink:href="#DejaVuSans-31" x="83.789062"/>
       <use xlink:href="#DejaVuSans-32" x="147.412109"/>
       <use xlink:href="#DejaVuSans-35" x="211.035156"/>
       <use xlink:href="#DejaVuSans-30" x="274.658203"/>
      </g>
     </g>
    </g>
    <g id="ytick_6">
     <g id="line2d_29">
      <path d="M 57.6 139.559863 
L 414.72 139.559863 
" clip-path="url(#pa596a3d481)" style="fill: none; stroke: #b0b0b0; stroke-width: 0.8; stroke-linecap: square"/>
     </g>
     <g id="line2d_30">
      <g>
       <use xlink:href="#m094e6846c0" x="57.6" y="139.559863" style="stroke: #000000; stroke-width: 0.8"/>
      </g>
     </g>
     <g id="text_16">
      <!-- −1000 -->
      <g transform="translate(16.770313 143.359081) scale(0.1 -0.1)">
       <use xlink:href="#DejaVuSans-2212"/>
       <use xlink:href="#DejaVuSans-31" x="83.789062"/>
       <use xlink:href="#DejaVuSans-30" x="147.412109"/>
       <use xlink:href="#DejaVuSans-30" x="211.035156"/>
       <use xlink:href="#DejaVuSans-30" x="274.658203"/>
      </g>
     </g>
    </g>
    <g id="ytick_7">
     <g id="line2d_31">
      <path d="M 57.6 108.250839 
L 414.72 108.250839 
" clip-path="url(#pa596a3d481)" style="fill: none; stroke: #b0b0b0; stroke-width: 0.8; stroke-linecap: square"/>
     </g>
     <g id="line2d_32">
      <g>
       <use xlink:href="#m094e6846c0" x="57.6" y="108.250839" style="stroke: #000000; stroke-width: 0.8"/>
      </g>
     </g>
     <g id="text_17">
      <!-- −750 -->
      <g transform="translate(23.132812 112.050058) scale(0.1 -0.1)">
       <use xlink:href="#DejaVuSans-2212"/>
       <use xlink:href="#DejaVuSans-37" x="83.789062"/>
       <use xlink:href="#DejaVuSans-35" x="147.412109"/>
       <use xlink:href="#DejaVuSans-30" x="211.035156"/>
      </g>
     </g>
    </g>
    <g id="ytick_8">
     <g id="line2d_33">
      <path d="M 57.6 76.941815 
L 414.72 76.941815 
" clip-path="url(#pa596a3d481)" style="fill: none; stroke: #b0b0b0; stroke-width: 0.8; stroke-linecap: square"/>
     </g>
     <g id="line2d_34">
      <g>
       <use xlink:href="#m094e6846c0" x="57.6" y="76.941815" style="stroke: #000000; stroke-width: 0.8"/>
      </g>
     </g>
     <g id="text_18">
      <!-- −500 -->
      <g transform="translate(23.132812 80.741034) scale(0.1 -0.1)">
       <use xlink:href="#DejaVuSans-2212"/>
       <use xlink:href="#DejaVuSans-35" x="83.789062"/>
       <use xlink:href="#DejaVuSans-30" x="147.412109"/>
       <use xlink:href="#DejaVuSans-30" x="211.035156"/>
      </g>
     </g>
    </g>
    <g id="ytick_9">
     <g id="line2d_35">
      <path d="M 57.6 45.632792 
L 414.72 45.632792 
" clip-path="url(#pa596a3d481)" style="fill: none; stroke: #b0b0b0; stroke-width: 0.8; stroke-linecap: square"/>
     </g>
     <g id="line2d_36">
      <g>
       <use xlink:href="#m094e6846c0" x="57.6" y="45.632792" style="stroke: #000000; stroke-width: 0.8"/>
      </g>
     </g>
     <g id="text_19">
      <!-- −250 -->
      <g transform="translate(23.132812 49.432011) scale(0.1 -0.1)">
       <use xlink:href="#DejaVuSans-2212"/>
       <use xlink:href="#DejaVuSans-32" x="83.789062"/>
       <use xlink:href="#DejaVuSans-35" x="147.412109"/>
       <use xlink:href="#DejaVuSans-30" x="211.035156"/>
      </g>
     </g>
    </g>
    <g id="text_20">
     <!-- Fitness -->
     <g transform="translate(10.690625 191.845187) rotate(-90) scale(0.1 -0.1)">
      <defs>
       <path id="DejaVuSans-46" d="M 628 4666 
L 3309 4666 
L 3309 4134 
L 1259 4134 
L 1259 2759 
L 3109 2759 
L 3109 2228 
L 1259 2228 
L 1259 0 
L 628 0 
L 628 4666 
z
" transform="scale(0.015625)"/>
      </defs>
      <use xlink:href="#DejaVuSans-46"/>
      <use xlink:href="#DejaVuSans-69" x="50.269531"/>
      <use xlink:href="#DejaVuSans-74" x="78.052734"/>
      <use xlink:href="#DejaVuSans-6e" x="117.261719"/>
      <use xlink:href="#DejaVuSans-65" x="180.640625"/>
      <use xlink:href="#DejaVuSans-73" x="242.164062"/>
      <use xlink:href="#DejaVuSans-73" x="294.263672"/>
     </g>
    </g>
   </g>
   <g id="line2d_37">
    <path d="M 73.832727 256.122754 
L 77.095587 247.866399 
L 78.727017 244.360076 
L 80.358447 246.666583 
L 81.989877 240.017279 
L 83.621307 240.81686 
L 85.252736 243.611368 
L 86.884166 245.87812 
L 88.515596 242.082632 
L 90.147026 241.638527 
L 91.778456 240.807161 
L 93.409886 239.505224 
L 96.672746 239.327184 
L 98.304175 243.605127 
L 99.935605 241.360394 
L 101.567035 238.326076 
L 103.198465 239.77232 
L 104.829895 239.164612 
L 106.461325 239.684394 
L 108.092755 237.802904 
L 109.724185 239.931542 
L 111.355614 235.18015 
L 112.987044 236.484862 
L 114.618474 237.606999 
L 116.249904 239.549079 
L 117.881334 241.254531 
L 121.144194 239.992914 
L 122.775624 238.867525 
L 124.407053 236.954245 
L 126.038483 240.808431 
L 127.669913 242.498095 
L 129.301343 241.43265 
L 130.932773 244.134107 
L 132.564203 240.39834 
L 134.195633 241.993516 
L 135.827063 241.606403 
L 139.089922 242.606288 
L 140.721352 238.806525 
L 142.352782 241.083243 
L 143.984212 239.560855 
L 145.615642 238.666852 
L 147.247072 243.651494 
L 150.509931 242.191836 
L 152.141361 237.053026 
L 153.772791 233.445748 
L 155.404221 238.64041 
L 157.035651 240.690425 
L 158.667081 242.067292 
L 160.298511 242.089159 
L 161.929941 240.92946 
L 163.56137 238.385611 
L 165.1928 243.444772 
L 166.82423 245.43319 
L 168.45566 238.042328 
L 170.08709 243.665804 
L 171.71852 240.89157 
L 173.34995 242.126365 
L 174.98138 238.476829 
L 176.61281 239.85024 
L 178.244239 237.706345 
L 179.875669 237.107236 
L 181.507099 240.444947 
L 183.138529 239.797961 
L 184.769959 240.507727 
L 186.401389 237.161456 
L 188.032819 241.561145 
L 189.664249 241.060014 
L 192.927108 241.71948 
L 194.558538 239.632455 
L 196.189968 238.465579 
L 197.821398 238.994088 
L 199.452828 240.513567 
L 201.084258 240.359925 
L 202.715688 242.425402 
L 204.347117 237.590791 
L 205.978547 237.914391 
L 207.609977 234.192974 
L 209.241407 241.608068 
L 210.872837 236.493877 
L 212.504267 239.041465 
L 214.135697 245.691332 
L 215.767127 243.025632 
L 217.398556 242.363887 
L 219.029986 246.502633 
L 220.661416 246.058244 
L 222.292846 244.60869 
L 223.924276 244.046904 
L 225.555706 241.710051 
L 227.187136 242.554055 
L 228.818566 241.593619 
L 230.449995 243.411988 
L 232.081425 242.425601 
L 233.712855 240.776788 
L 235.344285 241.335845 
L 236.975715 242.317117 
L 240.238575 237.949493 
L 241.870005 237.762581 
L 243.501434 240.591739 
L 245.132864 234.750431 
L 246.764294 235.051005 
L 248.395724 238.341887 
L 250.027154 238.839916 
L 251.658584 236.587058 
L 253.290014 236.770427 
L 254.921444 233.75274 
L 256.552873 238.533275 
L 258.184303 229.770598 
L 259.815733 234.193394 
L 261.447163 235.23262 
L 263.078593 233.624003 
L 264.710023 235.171192 
L 266.341453 234.368182 
L 267.972883 235.958768 
L 269.604312 235.748223 
L 271.235742 229.650541 
L 272.867172 234.992263 
L 274.498602 229.212753 
L 276.130032 234.17135 
L 277.761462 235.589933 
L 279.392892 239.890436 
L 281.024322 242.748431 
L 282.655751 243.166336 
L 284.287181 239.929463 
L 285.918611 243.171603 
L 287.550041 244.146328 
L 289.181471 243.499031 
L 290.812901 242.145185 
L 292.444331 246.249379 
L 294.075761 244.822539 
L 297.33862 242.386001 
L 298.97005 247.108052 
L 300.60148 242.362301 
L 302.23291 240.250265 
L 303.86434 240.107993 
L 305.49577 241.775053 
L 307.1272 243.177793 
L 308.75863 243.991702 
L 310.390059 242.79328 
L 312.021489 242.176672 
L 313.652919 242.655306 
L 316.915779 244.291247 
L 318.547209 243.069091 
L 320.178639 240.263418 
L 321.810069 241.02118 
L 323.441498 242.325565 
L 325.072928 242.555101 
L 326.704358 244.245017 
L 328.335788 241.024405 
L 329.967218 243.218043 
L 331.598648 242.500049 
L 333.230078 239.021413 
L 334.861508 240.980457 
L 336.492937 239.729884 
L 338.124367 241.244137 
L 339.755797 242.433756 
L 341.387227 237.068406 
L 344.650087 241.061445 
L 346.281517 236.057191 
L 347.912947 237.467854 
L 349.544376 237.601135 
L 351.175806 241.302638 
L 352.807236 241.945062 
L 354.438666 240.017676 
L 356.070096 240.006483 
L 357.701526 242.692059 
L 359.332956 242.730978 
L 360.964386 243.080663 
L 362.595815 241.609498 
L 364.227245 239.715405 
L 365.858675 241.957593 
L 367.490105 238.33165 
L 369.121535 238.03242 
L 370.752965 242.277834 
L 372.384395 241.471864 
L 374.015825 242.444558 
L 375.647254 238.51314 
L 377.278684 235.942119 
L 378.910114 242.764796 
L 380.541544 242.190881 
L 382.172974 242.937348 
L 383.804404 241.810373 
L 385.435834 236.729821 
L 387.067264 238.370271 
L 388.698693 239.298023 
L 390.330123 242.16825 
L 391.961553 238.052245 
L 393.592983 238.513662 
L 395.224413 238.258949 
L 396.855843 239.591596 
L 398.487273 240.016959 
L 398.487273 240.016959 
" clip-path="url(#pa596a3d481)" style="fill: none; stroke: #0000ff; stroke-width: 1.5; stroke-linecap: square"/>
   </g>
   <g id="line2d_38">
    <path d="M 73.832727 287.812181 
L 77.095587 288.0941 
L 78.727017 286.157505 
L 80.358447 285.239032 
L 81.989877 286.995353 
L 83.621307 284.81476 
L 85.252736 285.702426 
L 86.884166 287.091203 
L 88.515596 285.548675 
L 90.147026 285.230085 
L 91.778456 284.747745 
L 93.409886 284.573589 
L 95.041316 284.885684 
L 96.672746 286.344632 
L 98.304175 286.409037 
L 99.935605 284.495549 
L 101.567035 284.663559 
L 103.198465 285.740143 
L 104.829895 285.3103 
L 106.461325 289.288427 
L 108.092755 285.284974 
L 109.724185 287.174021 
L 111.355614 284.870229 
L 112.987044 286.642272 
L 116.249904 286.858967 
L 117.881334 286.364605 
L 119.512764 285.020521 
L 122.775624 286.742197 
L 124.407053 286.563613 
L 126.038483 285.515418 
L 127.669913 287.976847 
L 129.301343 286.110094 
L 132.564203 284.515751 
L 134.195633 283.125471 
L 135.827063 285.044937 
L 137.458492 286.261548 
L 139.089922 285.590642 
L 140.721352 286.605715 
L 142.352782 286.348948 
L 143.984212 282.034251 
L 145.615642 288.185461 
L 147.247072 284.253905 
L 148.878502 283.367393 
L 150.509931 288.462749 
L 152.141361 286.335615 
L 153.772791 288.447689 
L 155.404221 288.512654 
L 157.035651 290.535813 
L 158.667081 287.646702 
L 160.298511 285.659692 
L 163.56137 291.151631 
L 165.1928 286.078652 
L 166.82423 284.09091 
L 168.45566 286.814192 
L 170.08709 287.204844 
L 173.34995 287.463795 
L 174.98138 286.326699 
L 176.61281 285.792275 
L 178.244239 284.99558 
L 179.875669 287.737306 
L 181.507099 288.725334 
L 183.138529 289.366003 
L 184.769959 287.836609 
L 186.401389 286.879819 
L 188.032819 289.280964 
L 189.664249 285.014592 
L 191.295678 287.165703 
L 192.927108 288.953142 
L 194.558538 286.646272 
L 196.189968 288.312083 
L 197.821398 290.43649 
L 199.452828 291.385788 
L 201.084258 291.010739 
L 202.715688 286.755704 
L 204.347117 288.210178 
L 205.978547 290.792653 
L 207.609977 290.763821 
L 209.241407 290.317352 
L 210.872837 287.770952 
L 212.504267 288.100985 
L 214.135697 283.709121 
L 215.767127 284.500677 
L 217.398556 286.0813 
L 219.029986 285.169827 
L 220.661416 285.116021 
L 222.292846 283.018595 
L 223.924276 284.944753 
L 225.555706 284.870678 
L 227.187136 283.085172 
L 228.818566 284.637792 
L 230.449995 287.03106 
L 232.081425 284.996332 
L 233.712855 286.790802 
L 235.344285 283.325599 
L 236.975715 283.460446 
L 238.607145 285.943343 
L 240.238575 285.556807 
L 241.870005 285.874335 
L 243.501434 286.37619 
L 245.132864 287.899715 
L 246.764294 288.476074 
L 248.395724 289.305124 
L 250.027154 288.80967 
L 251.658584 287.031399 
L 253.290014 288.417955 
L 254.921444 288.828154 
L 256.552873 289.013715 
L 258.184303 288.532181 
L 259.815733 290.713519 
L 261.447163 289.70291 
L 263.078593 289.193686 
L 264.710023 290.378146 
L 266.341453 290.789349 
L 267.972883 290.933818 
L 269.604312 288.313079 
L 271.235742 290.2513 
L 272.867172 289.86257 
L 274.498602 291.33071 
L 276.130032 295.488 
L 277.761462 290.809647 
L 279.392892 290.11657 
L 282.655751 289.519635 
L 284.287181 290.817881 
L 285.918611 286.414673 
L 287.550041 287.557439 
L 289.181471 284.718019 
L 290.812901 283.663262 
L 292.444331 282.427159 
L 294.075761 280.989263 
L 295.70719 285.543775 
L 297.33862 283.699752 
L 298.97005 285.886452 
L 300.60148 282.960525 
L 302.23291 283.306852 
L 303.86434 284.146593 
L 305.49577 286.013469 
L 307.1272 284.555186 
L 308.75863 284.009088 
L 310.390059 285.866517 
L 312.021489 283.290001 
L 313.652919 282.446441 
L 315.284349 286.42089 
L 316.915779 283.48917 
L 318.547209 282.471964 
L 321.810069 286.585066 
L 323.441498 285.716485 
L 325.072928 284.157237 
L 326.704358 282.313817 
L 328.335788 281.039035 
L 329.967218 282.547636 
L 331.598648 285.241745 
L 333.230078 282.972093 
L 334.861508 286.09475 
L 336.492937 284.168974 
L 338.124367 283.986999 
L 339.755797 282.645241 
L 341.387227 283.027088 
L 343.018657 284.071869 
L 344.650087 286.555399 
L 346.281517 285.967175 
L 347.912947 286.251836 
L 349.544376 285.802963 
L 351.175806 286.400143 
L 352.807236 285.454601 
L 354.438666 285.822843 
L 356.070096 283.510608 
L 357.701526 283.480611 
L 359.332956 284.3615 
L 360.964386 285.934491 
L 362.595815 286.457926 
L 364.227245 285.350097 
L 365.858675 285.753467 
L 367.490105 284.371229 
L 369.121535 286.524406 
L 370.752965 289.422539 
L 372.384395 286.461744 
L 374.015825 286.316004 
L 375.647254 289.3829 
L 377.278684 290.91986 
L 378.910114 293.608632 
L 380.541544 287.060406 
L 382.172974 287.358482 
L 383.804404 285.883445 
L 385.435834 286.091549 
L 387.067264 288.270319 
L 388.698693 288.420446 
L 390.330123 287.684977 
L 391.961553 285.964645 
L 393.592983 288.006222 
L 395.224413 287.674354 
L 398.487273 285.174105 
L 398.487273 285.174105 
" clip-path="url(#pa596a3d481)" style="fill: none; stroke-dasharray: 9.6,2.4,1.5,2.4; stroke-dashoffset: 0; stroke: #008000; stroke-width: 1.5"/>
   </g>
   <g id="line2d_39">
    <path d="M 73.832727 224.433327 
L 77.095587 207.638697 
L 78.727017 202.562648 
L 80.358447 208.094134 
L 81.989877 193.039204 
L 83.621307 196.81896 
L 85.252736 201.520309 
L 86.884166 204.665038 
L 88.515596 198.616589 
L 90.147026 198.046969 
L 91.778456 196.866578 
L 93.409886 194.436859 
L 95.041316 193.93572 
L 96.672746 192.309735 
L 98.304175 200.801216 
L 99.935605 198.225239 
L 101.567035 191.988593 
L 103.198465 193.804496 
L 104.829895 193.018924 
L 106.461325 190.080361 
L 108.092755 190.320834 
L 109.724185 192.689063 
L 111.355614 185.49007 
L 112.987044 186.327452 
L 114.618474 188.451104 
L 117.881334 196.144458 
L 119.512764 196.136446 
L 121.144194 194.106982 
L 122.775624 190.992854 
L 124.407053 187.344876 
L 126.038483 196.101444 
L 127.669913 197.019343 
L 129.301343 196.755206 
L 130.932773 202.952046 
L 132.564203 196.280929 
L 134.195633 200.861562 
L 135.827063 198.167869 
L 137.458492 197.921199 
L 139.089922 199.621935 
L 140.721352 191.007334 
L 142.352782 195.817537 
L 143.984212 197.087458 
L 145.615642 189.148243 
L 147.247072 203.049083 
L 148.878502 202.365045 
L 150.509931 195.920922 
L 152.141361 187.770437 
L 153.772791 178.443807 
L 155.404221 188.768166 
L 157.035651 190.845037 
L 158.667081 196.487882 
L 160.298511 198.518626 
L 161.929941 193.548249 
L 163.56137 185.61959 
L 165.1928 200.810893 
L 166.82423 206.77547 
L 168.45566 189.270463 
L 170.08709 200.126765 
L 171.71852 194.459776 
L 173.34995 196.788935 
L 174.98138 190.62696 
L 176.61281 193.908206 
L 178.244239 190.417111 
L 179.875669 186.477166 
L 181.507099 192.16456 
L 183.138529 190.229918 
L 184.769959 193.178844 
L 186.401389 187.443094 
L 188.032819 193.841326 
L 189.664249 197.105436 
L 191.295678 195.521598 
L 192.927108 194.485818 
L 194.558538 192.618639 
L 196.189968 188.619074 
L 197.821398 187.551687 
L 199.452828 189.641345 
L 201.084258 189.70911 
L 202.715688 198.0951 
L 204.347117 186.971404 
L 205.978547 185.036129 
L 207.609977 177.622127 
L 209.241407 192.898783 
L 210.872837 185.216802 
L 212.504267 189.981945 
L 214.135697 207.673544 
L 215.767127 201.550586 
L 217.398556 198.646473 
L 219.029986 207.835439 
L 222.292846 206.198786 
L 223.924276 203.149056 
L 225.555706 198.549425 
L 227.187136 202.022938 
L 228.818566 198.549445 
L 230.449995 199.792916 
L 232.081425 199.854871 
L 233.712855 194.762774 
L 235.344285 199.346092 
L 236.975715 201.173788 
L 238.607145 194.357925 
L 240.238575 190.342178 
L 241.870005 189.650827 
L 243.501434 194.807288 
L 245.132864 181.601147 
L 246.764294 181.625937 
L 248.395724 187.37865 
L 250.027154 188.870162 
L 251.658584 186.142716 
L 253.290014 185.122899 
L 254.921444 178.677326 
L 256.552873 188.052836 
L 258.184303 171.009014 
L 259.815733 177.67327 
L 261.447163 180.762331 
L 263.078593 178.05432 
L 264.710023 179.964239 
L 266.341453 177.947015 
L 267.972883 180.983717 
L 269.604312 183.183366 
L 271.235742 169.049782 
L 272.867172 180.121956 
L 274.498602 167.094795 
L 276.130032 172.854701 
L 277.761462 180.370219 
L 279.392892 189.664302 
L 281.024322 195.687414 
L 282.655751 196.813038 
L 284.287181 189.041045 
L 285.918611 199.928532 
L 287.550041 200.735216 
L 289.181471 202.280044 
L 290.812901 200.627108 
L 292.444331 210.071598 
L 294.075761 208.655815 
L 295.70719 201.568287 
L 297.33862 201.07225 
L 298.97005 208.329652 
L 300.60148 201.764078 
L 302.23291 197.193679 
L 303.86434 196.069394 
L 305.49577 197.536637 
L 307.1272 201.800401 
L 308.75863 203.974316 
L 310.390059 199.720044 
L 312.021489 201.063343 
L 313.652919 202.864172 
L 315.284349 200.549785 
L 316.915779 205.093325 
L 318.547209 203.666217 
L 320.178639 195.988728 
L 321.810069 195.457293 
L 323.441498 198.934644 
L 325.072928 200.952964 
L 326.704358 206.176218 
L 328.335788 201.009776 
L 329.967218 203.88845 
L 331.598648 199.758354 
L 333.230078 195.070733 
L 334.861508 195.866164 
L 336.492937 195.290795 
L 338.124367 198.501275 
L 339.755797 202.222271 
L 341.387227 191.109724 
L 343.018657 194.0241 
L 344.650087 195.567491 
L 346.281517 186.147206 
L 347.912947 188.683872 
L 349.544376 189.399307 
L 351.175806 196.205132 
L 352.807236 198.435522 
L 354.438666 194.212509 
L 356.070096 196.502359 
L 357.701526 201.903507 
L 360.964386 200.226835 
L 362.595815 196.761069 
L 364.227245 194.080712 
L 365.858675 198.16172 
L 367.490105 192.292072 
L 369.121535 189.540434 
L 370.752965 195.133128 
L 372.384395 196.481985 
L 374.015825 198.573113 
L 375.647254 187.643379 
L 377.278684 180.964379 
L 378.910114 191.920961 
L 380.541544 197.321356 
L 382.172974 198.516213 
L 383.804404 197.737302 
L 385.435834 187.368094 
L 387.067264 188.470224 
L 388.698693 190.1756 
L 390.330123 196.651522 
L 391.961553 190.139845 
L 393.592983 189.021101 
L 395.224413 188.843543 
L 396.855843 192.808786 
L 398.487273 194.859814 
L 398.487273 194.859814 
" clip-path="url(#pa596a3d481)" style="fill: none; stroke-dasharray: 9.6,2.4,1.5,2.4; stroke-dashoffset: 0; stroke: #008000; stroke-width: 1.5"/>
   </g>
   <g id="line2d_40">
    <path d="M 73.832727 61.760972 
L 104.829895 61.760972 
L 106.461325 61.139787 
L 111.355614 61.139787 
L 112.987044 58.931881 
L 121.144194 58.931881 
L 122.775624 58.40592 
L 140.721352 58.40592 
L 142.352782 57.539253 
L 161.929941 57.539253 
L 163.56137 55.406488 
L 258.184303 55.406488 
L 259.815733 53.568 
L 398.487273 53.568 
L 398.487273 53.568 
" clip-path="url(#pa596a3d481)" style="fill: none; stroke: #ff0000; stroke-width: 1.5; stroke-linecap: square"/>
   </g>
   <g id="patch_3">
    <path d="M 57.6 307.584 
L 57.6 41.472 
" style="fill: none; stroke: #000000; stroke-width: 0.8; stroke-linejoin: miter; stroke-linecap: square"/>
   </g>
   <g id="patch_4">
    <path d="M 414.72 307.584 
L 414.72 41.472 
" style="fill: none; stroke: #000000; stroke-width: 0.8; stroke-linejoin: miter; stroke-linecap: square"/>
   </g>
   <g id="patch_5">
    <path d="M 57.6 307.584 
L 414.72 307.584 
" style="fill: none; stroke: #000000; stroke-width: 0.8; stroke-linejoin: miter; stroke-linecap: square"/>
   </g>
   <g id="patch_6">
    <path d="M 57.6 41.472 
L 414.72 41.472 
" style="fill: none; stroke: #000000; stroke-width: 0.8; stroke-linejoin: miter; stroke-linecap: square"/>
   </g>
   <g id="text_21">
    <!-- Population's average and best fitness -->
    <g transform="translate(123.529687 35.472) scale(0.12 -0.12)">
     <defs>
      <path id="DejaVuSans-50" d="M 1259 4147 
L 1259 2394 
L 2053 2394 
Q 2494 2394 2734 2622 
Q 2975 2850 2975 3272 
Q 2975 3691 2734 3919 
Q 2494 4147 2053 4147 
L 1259 4147 
z
M 628 4666 
L 2053 4666 
Q 2838 4666 3239 4311 
Q 3641 3956 3641 3272 
Q 3641 2581 3239 2228 
Q 2838 1875 2053 1875 
L 1259 1875 
L 1259 0 
L 628 0 
L 628 4666 
z
" transform="scale(0.015625)"/>
      <path id="DejaVuSans-70" d="M 1159 525 
L 1159 -1331 
L 581 -1331 
L 581 3500 
L 1159 3500 
L 1159 2969 
Q 1341 3281 1617 3432 
Q 1894 3584 2278 3584 
Q 2916 3584 3314 3078 
Q 3713 2572 3713 1747 
Q 3713 922 3314 415 
Q 2916 -91 2278 -91 
Q 1894 -91 1617 61 
Q 1341 213 1159 525 
z
M 3116 1747 
Q 3116 2381 2855 2742 
Q 2594 3103 2138 3103 
Q 1681 3103 1420 2742 
Q 1159 2381 1159 1747 
Q 1159 1113 1420 752 
Q 1681 391 2138 391 
Q 2594 391 2855 752 
Q 3116 1113 3116 1747 
z
" transform="scale(0.015625)"/>
      <path id="DejaVuSans-75" d="M 544 1381 
L 544 3500 
L 1119 3500 
L 1119 1403 
Q 1119 906 1312 657 
Q 1506 409 1894 409 
Q 2359 409 2629 706 
Q 2900 1003 2900 1516 
L 2900 3500 
L 3475 3500 
L 3475 0 
L 2900 0 
L 2900 538 
Q 2691 219 2414 64 
Q 2138 -91 1772 -91 
Q 1169 -91 856 284 
Q 544 659 544 1381 
z
M 1991 3584 
L 1991 3584 
z
" transform="scale(0.015625)"/>
      <path id="DejaVuSans-6c" d="M 603 4863 
L 1178 4863 
L 1178 0 
L 603 0 
L 603 4863 
z
" transform="scale(0.015625)"/>
      <path id="DejaVuSans-27" d="M 1147 4666 
L 1147 2931 
L 616 2931 
L 616 4666 
L 1147 4666 
z
" transform="scale(0.015625)"/>
      <path id="DejaVuSans-20" transform="scale(0.015625)"/>
      <path id="DejaVuSans-76" d="M 191 3500 
L 800 3500 
L 1894 563 
L 2988 3500 
L 3597 3500 
L 2284 0 
L 1503 0 
L 191 3500 
z
" transform="scale(0.015625)"/>
      <path id="DejaVuSans-67" d="M 2906 1791 
Q 2906 2416 2648 2759 
Q 2391 3103 1925 3103 
Q 1463 3103 1205 2759 
Q 947 2416 947 1791 
Q 947 1169 1205 825 
Q 1463 481 1925 481 
Q 2391 481 2648 825 
Q 2906 1169 2906 1791 
z
M 3481 434 
Q 3481 -459 3084 -895 
Q 2688 -1331 1869 -1331 
Q 1566 -1331 1297 -1286 
Q 1028 -1241 775 -1147 
L 775 -588 
Q 1028 -725 1275 -790 
Q 1522 -856 1778 -856 
Q 2344 -856 2625 -561 
Q 2906 -266 2906 331 
L 2906 616 
Q 2728 306 2450 153 
Q 2172 0 1784 0 
Q 1141 0 747 490 
Q 353 981 353 1791 
Q 353 2603 747 3093 
Q 1141 3584 1784 3584 
Q 2172 3584 2450 3431 
Q 2728 3278 2906 2969 
L 2906 3500 
L 3481 3500 
L 3481 434 
z
" transform="scale(0.015625)"/>
      <path id="DejaVuSans-64" d="M 2906 2969 
L 2906 4863 
L 3481 4863 
L 3481 0 
L 2906 0 
L 2906 525 
Q 2725 213 2448 61 
Q 2172 -91 1784 -91 
Q 1150 -91 751 415 
Q 353 922 353 1747 
Q 353 2572 751 3078 
Q 1150 3584 1784 3584 
Q 2172 3584 2448 3432 
Q 2725 3281 2906 2969 
z
M 947 1747 
Q 947 1113 1208 752 
Q 1469 391 1925 391 
Q 2381 391 2643 752 
Q 2906 1113 2906 1747 
Q 2906 2381 2643 2742 
Q 2381 3103 1925 3103 
Q 1469 3103 1208 2742 
Q 947 2381 947 1747 
z
" transform="scale(0.015625)"/>
      <path id="DejaVuSans-62" d="M 3116 1747 
Q 3116 2381 2855 2742 
Q 2594 3103 2138 3103 
Q 1681 3103 1420 2742 
Q 1159 2381 1159 1747 
Q 1159 1113 1420 752 
Q 1681 391 2138 391 
Q 2594 391 2855 752 
Q 3116 1113 3116 1747 
z
M 1159 2969 
Q 1341 3281 1617 3432 
Q 1894 3584 2278 3584 
Q 2916 3584 3314 3078 
Q 3713 2572 3713 1747 
Q 3713 922 3314 415 
Q 2916 -91 2278 -91 
Q 1894 -91 1617 61 
Q 1341 213 1159 525 
L 1159 0 
L 581 0 
L 581 4863 
L 1159 4863 
L 1159 2969 
z
" transform="scale(0.015625)"/>
      <path id="DejaVuSans-66" d="M 2375 4863 
L 2375 4384 
L 1825 4384 
Q 1516 4384 1395 4259 
Q 1275 4134 1275 3809 
L 1275 3500 
L 2222 3500 
L 2222 3053 
L 1275 3053 
L 1275 0 
L 697 0 
L 697 3053 
L 147 3053 
L 147 3500 
L 697 3500 
L 697 3744 
Q 697 4328 969 4595 
Q 1241 4863 1831 4863 
L 2375 4863 
z
" transform="scale(0.015625)"/>
     </defs>
     <use xlink:href="#DejaVuSans-50"/>
     <use xlink:href="#DejaVuSans-6f" x="56.677734"/>
     <use xlink:href="#DejaVuSans-70" x="117.859375"/>
     <use xlink:href="#DejaVuSans-75" x="181.335938"/>
     <use xlink:href="#DejaVuSans-6c" x="244.714844"/>
     <use xlink:href="#DejaVuSans-61" x="272.498047"/>
     <use xlink:href="#DejaVuSans-74" x="333.777344"/>
     <use xlink:href="#DejaVuSans-69" x="372.986328"/>
     <use xlink:href="#DejaVuSans-6f" x="400.769531"/>
     <use xlink:href="#DejaVuSans-6e" x="461.951172"/>
     <use xlink:href="#DejaVuSans-27" x="525.330078"/>
     <use xlink:href="#DejaVuSans-73" x="552.820312"/>
     <use xlink:href="#DejaVuSans-20" x="604.919922"/>
     <use xlink:href="#DejaVuSans-61" x="636.707031"/>
     <use xlink:href="#DejaVuSans-76" x="697.986328"/>
     <use xlink:href="#DejaVuSans-65" x="757.166016"/>
     <use xlink:href="#DejaVuSans-72" x="818.689453"/>
     <use xlink:href="#DejaVuSans-61" x="859.802734"/>
     <use xlink:href="#DejaVuSans-67" x="921.082031"/>
     <use xlink:href="#DejaVuSans-65" x="984.558594"/>
     <use xlink:href="#DejaVuSans-20" x="1046.082031"/>
     <use xlink:href="#DejaVuSans-61" x="1077.869141"/>
     <use xlink:href="#DejaVuSans-6e" x="1139.148438"/>
     <use xlink:href="#DejaVuSans-64" x="1202.527344"/>
     <use xlink:href="#DejaVuSans-20" x="1266.003906"/>
     <use xlink:href="#DejaVuSans-62" x="1297.791016"/>
     <use xlink:href="#DejaVuSans-65" x="1361.267578"/>
     <use xlink:href="#DejaVuSans-73" x="1422.791016"/>
     <use xlink:href="#DejaVuSans-74" x="1474.890625"/>
     <use xlink:href="#DejaVuSans-20" x="1514.099609"/>
     <use xlink:href="#DejaVuSans-66" x="1545.886719"/>
     <use xlink:href="#DejaVuSans-69" x="1581.091797"/>
     <use xlink:href="#DejaVuSans-74" x="1608.875"/>
     <use xlink:href="#DejaVuSans-6e" x="1648.083984"/>
     <use xlink:href="#DejaVuSans-65" x="1711.462891"/>
     <use xlink:href="#DejaVuSans-73" x="1772.986328"/>
     <use xlink:href="#DejaVuSans-73" x="1825.085938"/>
    </g>
   </g>
   <g id="legend_1">
    <g id="patch_7">
     <path d="M 64.6 205.38425 
L 137.540625 205.38425 
Q 139.540625 205.38425 139.540625 203.38425 
L 139.540625 145.67175 
Q 139.540625 143.67175 137.540625 143.67175 
L 64.6 143.67175 
Q 62.6 143.67175 62.6 145.67175 
L 62.6 203.38425 
Q 62.6 205.38425 64.6 205.38425 
z
" style="fill: #ffffff; opacity: 0.8; stroke: #cccccc; stroke-linejoin: miter"/>
    </g>
    <g id="line2d_41">
     <path d="M 66.6 151.770188 
L 76.6 151.770188 
L 86.6 151.770188 
" style="fill: none; stroke: #0000ff; stroke-width: 1.5; stroke-linecap: square"/>
    </g>
    <g id="text_22">
     <!-- average -->
     <g transform="translate(94.6 155.270188) scale(0.1 -0.1)">
      <use xlink:href="#DejaVuSans-61"/>
      <use xlink:href="#DejaVuSans-76" x="61.279297"/>
      <use xlink:href="#DejaVuSans-65" x="120.458984"/>
      <use xlink:href="#DejaVuSans-72" x="181.982422"/>
      <use xlink:href="#DejaVuSans-61" x="223.095703"/>
      <use xlink:href="#DejaVuSans-67" x="284.375"/>
      <use xlink:href="#DejaVuSans-65" x="347.851562"/>
     </g>
    </g>
    <g id="line2d_42">
     <path d="M 66.6 166.448313 
L 76.6 166.448313 
L 86.6 166.448313 
" style="fill: none; stroke-dasharray: 9.6,2.4,1.5,2.4; stroke-dashoffset: 0; stroke: #008000; stroke-width: 1.5"/>
    </g>
    <g id="text_23">
     <!-- -1 sd -->
     <g transform="translate(94.6 169.948313) scale(0.1 -0.1)">
      <defs>
       <path id="DejaVuSans-2d" d="M 313 2009 
L 1997 2009 
L 1997 1497 
L 313 1497 
L 313 2009 
z
" transform="scale(0.015625)"/>
      </defs>
      <use xlink:href="#DejaVuSans-2d"/>
      <use xlink:href="#DejaVuSans-31" x="36.083984"/>
      <use xlink:href="#DejaVuSans-20" x="99.707031"/>
      <use xlink:href="#DejaVuSans-73" x="131.494141"/>
      <use xlink:href="#DejaVuSans-64" x="183.59375"/>
     </g>
    </g>
    <g id="line2d_43">
     <path d="M 66.6 181.126438 
L 76.6 181.126438 
L 86.6 181.126438 
" style="fill: none; stroke-dasharray: 9.6,2.4,1.5,2.4; stroke-dashoffset: 0; stroke: #008000; stroke-width: 1.5"/>
    </g>
    <g id="text_24">
     <!-- +1 sd -->
     <g transform="translate(94.6 184.626438) scale(0.1 -0.1)">
      <defs>
       <path id="DejaVuSans-2b" d="M 2944 4013 
L 2944 2272 
L 4684 2272 
L 4684 1741 
L 2944 1741 
L 2944 0 
L 2419 0 
L 2419 1741 
L 678 1741 
L 678 2272 
L 2419 2272 
L 2419 4013 
L 2944 4013 
z
" transform="scale(0.015625)"/>
      </defs>
      <use xlink:href="#DejaVuSans-2b"/>
      <use xlink:href="#DejaVuSans-31" x="83.789062"/>
      <use xlink:href="#DejaVuSans-20" x="147.412109"/>
      <use xlink:href="#DejaVuSans-73" x="179.199219"/>
      <use xlink:href="#DejaVuSans-64" x="231.298828"/>
     </g>
    </g>
    <g id="line2d_44">
     <path d="M 66.6 195.804563 
L 76.6 195.804563 
L 86.6 195.804563 
" style="fill: none; stroke: #ff0000; stroke-width: 1.5; stroke-linecap: square"/>
    </g>
    <g id="text_25">
     <!-- best -->
     <g transform="translate(94.6 199.304563) scale(0.1 -0.1)">
      <use xlink:href="#DejaVuSans-62"/>
      <use xlink:href="#DejaVuSans-65" x="63.476562"/>
      <use xlink:href="#DejaVuSans-73" x="125"/>
      <use xlink:href="#DejaVuSans-74" x="177.099609"/>
     </g>
    </g>
   </g>
  </g>
 </g>
 <defs>
  <clipPath id="pa596a3d481">
   <rect x="57.6" y="41.472" width="357.12" height="266.112"/>
  </clipPath>
 </defs>
</svg>
