<?xml version="1.0" encoding="utf-8" standalone="no"?>
<!DOCTYPE svg PUBLIC "-//W3C//DTD SVG 1.1//EN"
  "http://www.w3.org/Graphics/SVG/1.1/DTD/svg11.dtd">
<svg xmlns:xlink="http://www.w3.org/1999/xlink" width="460.8pt" height="345.6pt" viewBox="0 0 460.8 345.6" xmlns="http://www.w3.org/2000/svg" version="1.1">
 <metadata>
  <rdf:RDF xmlns:dc="http://purl.org/dc/elements/1.1/" xmlns:cc="http://creativecommons.org/ns#" xmlns:rdf="http://www.w3.org/1999/02/22-rdf-syntax-ns#">
   <cc:Work>
    <dc:type rdf:resource="http://purl.org/dc/dcmitype/StillImage"/>
    <dc:date>2024-08-07T13:14:16.893639</dc:date>
    <dc:format>image/svg+xml</dc:format>
    <dc:creator>
     <cc:Agent>
      <dc:title>Matplotlib v3.8.4, https://matplotlib.org/</dc:title>
     </cc:Agent>
    </dc:creator>
   </cc:Work>
  </rdf:RDF>
 </metadata>
 <defs>
  <style type="text/css">*{stroke-linejoin: round; stroke-linecap: butt}</style>
 </defs>
 <g id="figure_1">
  <g id="patch_1">
   <path d="M 0 345.6 
L 460.8 345.6 
L 460.8 0 
L 0 0 
z
" style="fill: #ffffff"/>
  </g>
  <g id="axes_1">
   <g id="patch_2">
    <path d="M 57.6 307.584 
L 414.72 307.584 
L 414.72 41.472 
L 57.6 41.472 
z
" style="fill: #ffffff"/>
   </g>
   <g id="matplotlib.axis_1">
    <g id="xtick_1">
     <g id="line2d_1">
      <path d="M 73.832727 307.584 
L 73.832727 41.472 
" clip-path="url(#p266ddbe1e3)" style="fill: none; stroke: #b0b0b0; stroke-width: 0.8; stroke-linecap: square"/>
     </g>
     <g id="line2d_2">
      <defs>
       <path id="m7b55cb6a61" d="M 0 0 
L 0 3.5 
" style="stroke: #000000; stroke-width: 0.8"/>
      </defs>
      <g>
       <use xlink:href="#m7b55cb6a61" x="73.832727" y="307.584" style="stroke: #000000; stroke-width: 0.8"/>
      </g>
     </g>
     <g id="text_1">
      <!-- 0 -->
      <g transform="translate(70.651477 322.182437) scale(0.1 -0.1)">
       <defs>
        <path id="DejaVuSans-30" d="M 2034 4250 
Q 1547 4250 1301 3770 
Q 1056 3291 1056 2328 
Q 1056 1369 1301 889 
Q 1547 409 2034 409 
Q 2525 409 2770 889 
Q 3016 1369 3016 2328 
Q 3016 3291 2770 3770 
Q 2525 4250 2034 4250 
z
M 2034 4750 
Q 2819 4750 3233 4129 
Q 3647 3509 3647 2328 
Q 3647 1150 3233 529 
Q 2819 -91 2034 -91 
Q 1250 -91 836 529 
Q 422 1150 422 2328 
Q 422 3509 836 4129 
Q 1250 4750 2034 4750 
z
" transform="scale(0.015625)"/>
       </defs>
       <use xlink:href="#DejaVuSans-30"/>
      </g>
     </g>
    </g>
    <g id="xtick_2">
     <g id="line2d_3">
      <path d="M 114.618474 307.584 
L 114.618474 41.472 
" clip-path="url(#p266ddbe1e3)" style="fill: none; stroke: #b0b0b0; stroke-width: 0.8; stroke-linecap: square"/>
     </g>
     <g id="line2d_4">
      <g>
       <use xlink:href="#m7b55cb6a61" x="114.618474" y="307.584" style="stroke: #000000; stroke-width: 0.8"/>
      </g>
     </g>
     <g id="text_2">
      <!-- 25 -->
      <g transform="translate(108.255974 322.182437) scale(0.1 -0.1)">
       <defs>
        <path id="DejaVuSans-32" d="M 1228 531 
L 3431 531 
L 3431 0 
L 469 0 
L 469 531 
Q 828 903 1448 1529 
Q 2069 2156 2228 2338 
Q 2531 2678 2651 2914 
Q 2772 3150 2772 3378 
Q 2772 3750 2511 3984 
Q 2250 4219 1831 4219 
Q 1534 4219 1204 4116 
Q 875 4013 500 3803 
L 500 4441 
Q 881 4594 1212 4672 
Q 1544 4750 1819 4750 
Q 2544 4750 2975 4387 
Q 3406 4025 3406 3419 
Q 3406 3131 3298 2873 
Q 3191 2616 2906 2266 
Q 2828 2175 2409 1742 
Q 1991 1309 1228 531 
z
" transform="scale(0.015625)"/>
        <path id="DejaVuSans-35" d="M 691 4666 
L 3169 4666 
L 3169 4134 
L 1269 4134 
L 1269 2991 
Q 1406 3038 1543 3061 
Q 1681 3084 1819 3084 
Q 2600 3084 3056 2656 
Q 3513 2228 3513 1497 
Q 3513 744 3044 326 
Q 2575 -91 1722 -91 
Q 1428 -91 1123 -41 
Q 819 9 494 109 
L 494 744 
Q 775 591 1075 516 
Q 1375 441 1709 441 
Q 2250 441 2565 725 
Q 2881 1009 2881 1497 
Q 2881 1984 2565 2268 
Q 2250 2553 1709 2553 
Q 1456 2553 1204 2497 
Q 953 2441 691 2322 
L 691 4666 
z
" transform="scale(0.015625)"/>
       </defs>
       <use xlink:href="#DejaVuSans-32"/>
       <use xlink:href="#DejaVuSans-35" x="63.623047"/>
      </g>
     </g>
    </g>
    <g id="xtick_3">
     <g id="line2d_5">
      <path d="M 155.404221 307.584 
L 155.404221 41.472 
" clip-path="url(#p266ddbe1e3)" style="fill: none; stroke: #b0b0b0; stroke-width: 0.8; stroke-linecap: square"/>
     </g>
     <g id="line2d_6">
      <g>
       <use xlink:href="#m7b55cb6a61" x="155.404221" y="307.584" style="stroke: #000000; stroke-width: 0.8"/>
      </g>
     </g>
     <g id="text_3">
      <!-- 50 -->
      <g transform="translate(149.041721 322.182437) scale(0.1 -0.1)">
       <use xlink:href="#DejaVuSans-35"/>
       <use xlink:href="#DejaVuSans-30" x="63.623047"/>
      </g>
     </g>
    </g>
    <g id="xtick_4">
     <g id="line2d_7">
      <path d="M 196.189968 307.584 
L 196.189968 41.472 
" clip-path="url(#p266ddbe1e3)" style="fill: none; stroke: #b0b0b0; stroke-width: 0.8; stroke-linecap: square"/>
     </g>
     <g id="line2d_8">
      <g>
       <use xlink:href="#m7b55cb6a61" x="196.189968" y="307.584" style="stroke: #000000; stroke-width: 0.8"/>
      </g>
     </g>
     <g id="text_4">
      <!-- 75 -->
      <g transform="translate(189.827468 322.182437) scale(0.1 -0.1)">
       <defs>
        <path id="DejaVuSans-37" d="M 525 4666 
L 3525 4666 
L 3525 4397 
L 1831 0 
L 1172 0 
L 2766 4134 
L 525 4134 
L 525 4666 
z
" transform="scale(0.015625)"/>
       </defs>
       <use xlink:href="#DejaVuSans-37"/>
       <use xlink:href="#DejaVuSans-35" x="63.623047"/>
      </g>
     </g>
    </g>
    <g id="xtick_5">
     <g id="line2d_9">
      <path d="M 236.975715 307.584 
L 236.975715 41.472 
" clip-path="url(#p266ddbe1e3)" style="fill: none; stroke: #b0b0b0; stroke-width: 0.8; stroke-linecap: square"/>
     </g>
     <g id="line2d_10">
      <g>
       <use xlink:href="#m7b55cb6a61" x="236.975715" y="307.584" style="stroke: #000000; stroke-width: 0.8"/>
      </g>
     </g>
     <g id="text_5">
      <!-- 100 -->
      <g transform="translate(227.431965 322.182437) scale(0.1 -0.1)">
       <defs>
        <path id="DejaVuSans-31" d="M 794 531 
L 1825 531 
L 1825 4091 
L 703 3866 
L 703 4441 
L 1819 4666 
L 2450 4666 
L 2450 531 
L 3481 531 
L 3481 0 
L 794 0 
L 794 531 
z
" transform="scale(0.015625)"/>
       </defs>
       <use xlink:href="#DejaVuSans-31"/>
       <use xlink:href="#DejaVuSans-30" x="63.623047"/>
       <use xlink:href="#DejaVuSans-30" x="127.246094"/>
      </g>
     </g>
    </g>
    <g id="xtick_6">
     <g id="line2d_11">
      <path d="M 277.761462 307.584 
L 277.761462 41.472 
" clip-path="url(#p266ddbe1e3)" style="fill: none; stroke: #b0b0b0; stroke-width: 0.8; stroke-linecap: square"/>
     </g>
     <g id="line2d_12">
      <g>
       <use xlink:href="#m7b55cb6a61" x="277.761462" y="307.584" style="stroke: #000000; stroke-width: 0.8"/>
      </g>
     </g>
     <g id="text_6">
      <!-- 125 -->
      <g transform="translate(268.217712 322.182437) scale(0.1 -0.1)">
       <use xlink:href="#DejaVuSans-31"/>
       <use xlink:href="#DejaVuSans-32" x="63.623047"/>
       <use xlink:href="#DejaVuSans-35" x="127.246094"/>
      </g>
     </g>
    </g>
    <g id="xtick_7">
     <g id="line2d_13">
      <path d="M 318.547209 307.584 
L 318.547209 41.472 
" clip-path="url(#p266ddbe1e3)" style="fill: none; stroke: #b0b0b0; stroke-width: 0.8; stroke-linecap: square"/>
     </g>
     <g id="line2d_14">
      <g>
       <use xlink:href="#m7b55cb6a61" x="318.547209" y="307.584" style="stroke: #000000; stroke-width: 0.8"/>
      </g>
     </g>
     <g id="text_7">
      <!-- 150 -->
      <g transform="translate(309.003459 322.182437) scale(0.1 -0.1)">
       <use xlink:href="#DejaVuSans-31"/>
       <use xlink:href="#DejaVuSans-35" x="63.623047"/>
       <use xlink:href="#DejaVuSans-30" x="127.246094"/>
      </g>
     </g>
    </g>
    <g id="xtick_8">
     <g id="line2d_15">
      <path d="M 359.332956 307.584 
L 359.332956 41.472 
" clip-path="url(#p266ddbe1e3)" style="fill: none; stroke: #b0b0b0; stroke-width: 0.8; stroke-linecap: square"/>
     </g>
     <g id="line2d_16">
      <g>
       <use xlink:href="#m7b55cb6a61" x="359.332956" y="307.584" style="stroke: #000000; stroke-width: 0.8"/>
      </g>
     </g>
     <g id="text_8">
      <!-- 175 -->
      <g transform="translate(349.789206 322.182437) scale(0.1 -0.1)">
       <use xlink:href="#DejaVuSans-31"/>
       <use xlink:href="#DejaVuSans-37" x="63.623047"/>
       <use xlink:href="#DejaVuSans-35" x="127.246094"/>
      </g>
     </g>
    </g>
    <g id="xtick_9">
     <g id="line2d_17">
      <path d="M 400.118703 307.584 
L 400.118703 41.472 
" clip-path="url(#p266ddbe1e3)" style="fill: none; stroke: #b0b0b0; stroke-width: 0.8; stroke-linecap: square"/>
     </g>
     <g id="line2d_18">
      <g>
       <use xlink:href="#m7b55cb6a61" x="400.118703" y="307.584" style="stroke: #000000; stroke-width: 0.8"/>
      </g>
     </g>
     <g id="text_9">
      <!-- 200 -->
      <g transform="translate(390.574953 322.182437) scale(0.1 -0.1)">
       <use xlink:href="#DejaVuSans-32"/>
       <use xlink:href="#DejaVuSans-30" x="63.623047"/>
       <use xlink:href="#DejaVuSans-30" x="127.246094"/>
      </g>
     </g>
    </g>
    <g id="text_10">
     <!-- Generations -->
     <g transform="translate(205.662344 335.860562) scale(0.1 -0.1)">
      <defs>
       <path id="DejaVuSans-47" d="M 3809 666 
L 3809 1919 
L 2778 1919 
L 2778 2438 
L 4434 2438 
L 4434 434 
Q 4069 175 3628 42 
Q 3188 -91 2688 -91 
Q 1594 -91 976 548 
Q 359 1188 359 2328 
Q 359 3472 976 4111 
Q 1594 4750 2688 4750 
Q 3144 4750 3555 4637 
Q 3966 4525 4313 4306 
L 4313 3634 
Q 3963 3931 3569 4081 
Q 3175 4231 2741 4231 
Q 1884 4231 1454 3753 
Q 1025 3275 1025 2328 
Q 1025 1384 1454 906 
Q 1884 428 2741 428 
Q 3075 428 3337 486 
Q 3600 544 3809 666 
z
" transform="scale(0.015625)"/>
       <path id="DejaVuSans-65" d="M 3597 1894 
L 3597 1613 
L 953 1613 
Q 991 1019 1311 708 
Q 1631 397 2203 397 
Q 2534 397 2845 478 
Q 3156 559 3463 722 
L 3463 178 
Q 3153 47 2828 -22 
Q 2503 -91 2169 -91 
Q 1331 -91 842 396 
Q 353 884 353 1716 
Q 353 2575 817 3079 
Q 1281 3584 2069 3584 
Q 2775 3584 3186 3129 
Q 3597 2675 3597 1894 
z
M 3022 2063 
Q 3016 2534 2758 2815 
Q 2500 3097 2075 3097 
Q 1594 3097 1305 2825 
Q 1016 2553 972 2059 
L 3022 2063 
z
" transform="scale(0.015625)"/>
       <path id="DejaVuSans-6e" d="M 3513 2113 
L 3513 0 
L 2938 0 
L 2938 2094 
Q 2938 2591 2744 2837 
Q 2550 3084 2163 3084 
Q 1697 3084 1428 2787 
Q 1159 2491 1159 1978 
L 1159 0 
L 581 0 
L 581 3500 
L 1159 3500 
L 1159 2956 
Q 1366 3272 1645 3428 
Q 1925 3584 2291 3584 
Q 2894 3584 3203 3211 
Q 3513 2838 3513 2113 
z
" transform="scale(0.015625)"/>
       <path id="DejaVuSans-72" d="M 2631 2963 
Q 2534 3019 2420 3045 
Q 2306 3072 2169 3072 
Q 1681 3072 1420 2755 
Q 1159 2438 1159 1844 
L 1159 0 
L 581 0 
L 581 3500 
L 1159 3500 
L 1159 2956 
Q 1341 3275 1631 3429 
Q 1922 3584 2338 3584 
Q 2397 3584 2469 3576 
Q 2541 3569 2628 3553 
L 2631 2963 
z
" transform="scale(0.015625)"/>
       <path id="DejaVuSans-61" d="M 2194 1759 
Q 1497 1759 1228 1600 
Q 959 1441 959 1056 
Q 959 750 1161 570 
Q 1363 391 1709 391 
Q 2188 391 2477 730 
Q 2766 1069 2766 1631 
L 2766 1759 
L 2194 1759 
z
M 3341 1997 
L 3341 0 
L 2766 0 
L 2766 531 
Q 2569 213 2275 61 
Q 1981 -91 1556 -91 
Q 1019 -91 701 211 
Q 384 513 384 1019 
Q 384 1609 779 1909 
Q 1175 2209 1959 2209 
L 2766 2209 
L 2766 2266 
Q 2766 2663 2505 2880 
Q 2244 3097 1772 3097 
Q 1472 3097 1187 3025 
Q 903 2953 641 2809 
L 641 3341 
Q 956 3463 1253 3523 
Q 1550 3584 1831 3584 
Q 2591 3584 2966 3190 
Q 3341 2797 3341 1997 
z
" transform="scale(0.015625)"/>
       <path id="DejaVuSans-74" d="M 1172 4494 
L 1172 3500 
L 2356 3500 
L 2356 3053 
L 1172 3053 
L 1172 1153 
Q 1172 725 1289 603 
Q 1406 481 1766 481 
L 2356 481 
L 2356 0 
L 1766 0 
Q 1100 0 847 248 
Q 594 497 594 1153 
L 594 3053 
L 172 3053 
L 172 3500 
L 594 3500 
L 594 4494 
L 1172 4494 
z
" transform="scale(0.015625)"/>
       <path id="DejaVuSans-69" d="M 603 3500 
L 1178 3500 
L 1178 0 
L 603 0 
L 603 3500 
z
M 603 4863 
L 1178 4863 
L 1178 4134 
L 603 4134 
L 603 4863 
z
" transform="scale(0.015625)"/>
       <path id="DejaVuSans-6f" d="M 1959 3097 
Q 1497 3097 1228 2736 
Q 959 2375 959 1747 
Q 959 1119 1226 758 
Q 1494 397 1959 397 
Q 2419 397 2687 759 
Q 2956 1122 2956 1747 
Q 2956 2369 2687 2733 
Q 2419 3097 1959 3097 
z
M 1959 3584 
Q 2709 3584 3137 3096 
Q 3566 2609 3566 1747 
Q 3566 888 3137 398 
Q 2709 -91 1959 -91 
Q 1206 -91 779 398 
Q 353 888 353 1747 
Q 353 2609 779 3096 
Q 1206 3584 1959 3584 
z
" transform="scale(0.015625)"/>
       <path id="DejaVuSans-73" d="M 2834 3397 
L 2834 2853 
Q 2591 2978 2328 3040 
Q 2066 3103 1784 3103 
Q 1356 3103 1142 2972 
Q 928 2841 928 2578 
Q 928 2378 1081 2264 
Q 1234 2150 1697 2047 
L 1894 2003 
Q 2506 1872 2764 1633 
Q 3022 1394 3022 966 
Q 3022 478 2636 193 
Q 2250 -91 1575 -91 
Q 1294 -91 989 -36 
Q 684 19 347 128 
L 347 722 
Q 666 556 975 473 
Q 1284 391 1588 391 
Q 1994 391 2212 530 
Q 2431 669 2431 922 
Q 2431 1156 2273 1281 
Q 2116 1406 1581 1522 
L 1381 1569 
Q 847 1681 609 1914 
Q 372 2147 372 2553 
Q 372 3047 722 3315 
Q 1072 3584 1716 3584 
Q 2034 3584 2315 3537 
Q 2597 3491 2834 3397 
z
" transform="scale(0.015625)"/>
      </defs>
      <use xlink:href="#DejaVuSans-47"/>
      <use xlink:href="#DejaVuSans-65" x="77.490234"/>
      <use xlink:href="#DejaVuSans-6e" x="139.013672"/>
      <use xlink:href="#DejaVuSans-65" x="202.392578"/>
      <use xlink:href="#DejaVuSans-72" x="263.916016"/>
      <use xlink:href="#DejaVuSans-61" x="305.029297"/>
      <use xlink:href="#DejaVuSans-74" x="366.308594"/>
      <use xlink:href="#DejaVuSans-69" x="405.517578"/>
      <use xlink:href="#DejaVuSans-6f" x="433.300781"/>
      <use xlink:href="#DejaVuSans-6e" x="494.482422"/>
      <use xlink:href="#DejaVuSans-73" x="557.861328"/>
     </g>
    </g>
   </g>
   <g id="matplotlib.axis_2">
    <g id="ytick_1">
     <g id="line2d_19">
      <path d="M 57.6 281.568528 
L 414.72 281.568528 
" clip-path="url(#p266ddbe1e3)" style="fill: none; stroke: #b0b0b0; stroke-width: 0.8; stroke-linecap: square"/>
     </g>
     <g id="line2d_20">
      <defs>
       <path id="m637f3952ba" d="M 0 0 
L -3.5 0 
" style="stroke: #000000; stroke-width: 0.8"/>
      </defs>
      <g>
       <use xlink:href="#m637f3952ba" x="57.6" y="281.568528" style="stroke: #000000; stroke-width: 0.8"/>
      </g>
     </g>
     <g id="text_11">
      <!-- −2000 -->
      <g transform="translate(16.770313 285.367747) scale(0.1 -0.1)">
       <defs>
        <path id="DejaVuSans-2212" d="M 678 2272 
L 4684 2272 
L 4684 1741 
L 678 1741 
L 678 2272 
z
" transform="scale(0.015625)"/>
       </defs>
       <use xlink:href="#DejaVuSans-2212"/>
       <use xlink:href="#DejaVuSans-32" x="83.789062"/>
       <use xlink:href="#DejaVuSans-30" x="147.412109"/>
       <use xlink:href="#DejaVuSans-30" x="211.035156"/>
       <use xlink:href="#DejaVuSans-30" x="274.658203"/>
      </g>
     </g>
    </g>
    <g id="ytick_2">
     <g id="line2d_21">
      <path d="M 57.6 246.54493 
L 414.72 246.54493 
" clip-path="url(#p266ddbe1e3)" style="fill: none; stroke: #b0b0b0; stroke-width: 0.8; stroke-linecap: square"/>
     </g>
     <g id="line2d_22">
      <g>
       <use xlink:href="#m637f3952ba" x="57.6" y="246.54493" style="stroke: #000000; stroke-width: 0.8"/>
      </g>
     </g>
     <g id="text_12">
      <!-- −1750 -->
      <g transform="translate(16.770313 250.344148) scale(0.1 -0.1)">
       <use xlink:href="#DejaVuSans-2212"/>
       <use xlink:href="#DejaVuSans-31" x="83.789062"/>
       <use xlink:href="#DejaVuSans-37" x="147.412109"/>
       <use xlink:href="#DejaVuSans-35" x="211.035156"/>
       <use xlink:href="#DejaVuSans-30" x="274.658203"/>
      </g>
     </g>
    </g>
    <g id="ytick_3">
     <g id="line2d_23">
      <path d="M 57.6 211.521331 
L 414.72 211.521331 
" clip-path="url(#p266ddbe1e3)" style="fill: none; stroke: #b0b0b0; stroke-width: 0.8; stroke-linecap: square"/>
     </g>
     <g id="line2d_24">
      <g>
       <use xlink:href="#m637f3952ba" x="57.6" y="211.521331" style="stroke: #000000; stroke-width: 0.8"/>
      </g>
     </g>
     <g id="text_13">
      <!-- −1500 -->
      <g transform="translate(16.770313 215.32055) scale(0.1 -0.1)">
       <use xlink:href="#DejaVuSans-2212"/>
       <use xlink:href="#DejaVuSans-31" x="83.789062"/>
       <use xlink:href="#DejaVuSans-35" x="147.412109"/>
       <use xlink:href="#DejaVuSans-30" x="211.035156"/>
       <use xlink:href="#DejaVuSans-30" x="274.658203"/>
      </g>
     </g>
    </g>
    <g id="ytick_4">
     <g id="line2d_25">
      <path d="M 57.6 176.497732 
L 414.72 176.497732 
" clip-path="url(#p266ddbe1e3)" style="fill: none; stroke: #b0b0b0; stroke-width: 0.8; stroke-linecap: square"/>
     </g>
     <g id="line2d_26">
      <g>
       <use xlink:href="#m637f3952ba" x="57.6" y="176.497732" style="stroke: #000000; stroke-width: 0.8"/>
      </g>
     </g>
     <g id="text_14">
      <!-- −1250 -->
      <g transform="translate(16.770313 180.296951) scale(0.1 -0.1)">
       <use xlink:href="#DejaVuSans-2212"/>
       <use xlink:href="#DejaVuSans-31" x="83.789062"/>
       <use xlink:href="#DejaVuSans-32" x="147.412109"/>
       <use xlink:href="#DejaVuSans-35" x="211.035156"/>
       <use xlink:href="#DejaVuSans-30" x="274.658203"/>
      </g>
     </g>
    </g>
    <g id="ytick_5">
     <g id="line2d_27">
      <path d="M 57.6 141.474134 
L 414.72 141.474134 
" clip-path="url(#p266ddbe1e3)" style="fill: none; stroke: #b0b0b0; stroke-width: 0.8; stroke-linecap: square"/>
     </g>
     <g id="line2d_28">
      <g>
       <use xlink:href="#m637f3952ba" x="57.6" y="141.474134" style="stroke: #000000; stroke-width: 0.8"/>
      </g>
     </g>
     <g id="text_15">
      <!-- −1000 -->
      <g transform="translate(16.770313 145.273352) scale(0.1 -0.1)">
       <use xlink:href="#DejaVuSans-2212"/>
       <use xlink:href="#DejaVuSans-31" x="83.789062"/>
       <use xlink:href="#DejaVuSans-30" x="147.412109"/>
       <use xlink:href="#DejaVuSans-30" x="211.035156"/>
       <use xlink:href="#DejaVuSans-30" x="274.658203"/>
      </g>
     </g>
    </g>
    <g id="ytick_6">
     <g id="line2d_29">
      <path d="M 57.6 106.450535 
L 414.72 106.450535 
" clip-path="url(#p266ddbe1e3)" style="fill: none; stroke: #b0b0b0; stroke-width: 0.8; stroke-linecap: square"/>
     </g>
     <g id="line2d_30">
      <g>
       <use xlink:href="#m637f3952ba" x="57.6" y="106.450535" style="stroke: #000000; stroke-width: 0.8"/>
      </g>
     </g>
     <g id="text_16">
      <!-- −750 -->
      <g transform="translate(23.132812 110.249754) scale(0.1 -0.1)">
       <use xlink:href="#DejaVuSans-2212"/>
       <use xlink:href="#DejaVuSans-37" x="83.789062"/>
       <use xlink:href="#DejaVuSans-35" x="147.412109"/>
       <use xlink:href="#DejaVuSans-30" x="211.035156"/>
      </g>
     </g>
    </g>
    <g id="ytick_7">
     <g id="line2d_31">
      <path d="M 57.6 71.426936 
L 414.72 71.426936 
" clip-path="url(#p266ddbe1e3)" style="fill: none; stroke: #b0b0b0; stroke-width: 0.8; stroke-linecap: square"/>
     </g>
     <g id="line2d_32">
      <g>
       <use xlink:href="#m637f3952ba" x="57.6" y="71.426936" style="stroke: #000000; stroke-width: 0.8"/>
      </g>
     </g>
     <g id="text_17">
      <!-- −500 -->
      <g transform="translate(23.132812 75.226155) scale(0.1 -0.1)">
       <use xlink:href="#DejaVuSans-2212"/>
       <use xlink:href="#DejaVuSans-35" x="83.789062"/>
       <use xlink:href="#DejaVuSans-30" x="147.412109"/>
       <use xlink:href="#DejaVuSans-30" x="211.035156"/>
      </g>
     </g>
    </g>
    <g id="text_18">
     <!-- Fitness -->
     <g transform="translate(10.690625 191.845187) rotate(-90) scale(0.1 -0.1)">
      <defs>
       <path id="DejaVuSans-46" d="M 628 4666 
L 3309 4666 
L 3309 4134 
L 1259 4134 
L 1259 2759 
L 3109 2759 
L 3109 2228 
L 1259 2228 
L 1259 0 
L 628 0 
L 628 4666 
z
" transform="scale(0.015625)"/>
      </defs>
      <use xlink:href="#DejaVuSans-46"/>
      <use xlink:href="#DejaVuSans-69" x="50.269531"/>
      <use xlink:href="#DejaVuSans-74" x="78.052734"/>
      <use xlink:href="#DejaVuSans-6e" x="117.261719"/>
      <use xlink:href="#DejaVuSans-65" x="180.640625"/>
      <use xlink:href="#DejaVuSans-73" x="242.164062"/>
      <use xlink:href="#DejaVuSans-73" x="294.263672"/>
     </g>
    </g>
   </g>
   <g id="line2d_33">
    <path d="M 73.832727 263.943684 
L 75.464157 259.817225 
L 77.095587 259.33368 
L 78.727017 256.105535 
L 80.358447 256.81475 
L 83.621307 253.578698 
L 85.252736 252.250637 
L 86.884166 251.500068 
L 88.515596 252.616645 
L 90.147026 253.965674 
L 91.778456 252.600286 
L 93.409886 250.456341 
L 95.041316 253.438459 
L 96.672746 252.265273 
L 99.935605 253.694411 
L 101.567035 253.408035 
L 103.198465 251.598602 
L 104.829895 253.899279 
L 106.461325 252.78399 
L 108.092755 252.366803 
L 109.724185 254.450499 
L 111.355614 251.522053 
L 112.987044 256.426285 
L 114.618474 254.094384 
L 116.249904 255.183481 
L 117.881334 255.649052 
L 119.512764 255.297127 
L 121.144194 255.317027 
L 122.775624 253.426746 
L 124.407053 254.506179 
L 126.038483 254.833397 
L 127.669913 255.401626 
L 129.301343 256.481682 
L 130.932773 255.365683 
L 132.564203 255.599184 
L 134.195633 254.092521 
L 135.827063 254.159488 
L 137.458492 253.155708 
L 139.089922 254.448914 
L 140.721352 254.637041 
L 142.352782 253.053744 
L 143.984212 255.372455 
L 145.615642 253.307369 
L 147.247072 256.410372 
L 148.878502 255.071324 
L 150.509931 255.398308 
L 152.141361 255.376274 
L 153.772791 253.259792 
L 155.404221 254.831751 
L 157.035651 255.347718 
L 158.667081 256.003508 
L 160.298511 256.468081 
L 161.929941 256.086142 
L 163.56137 255.526284 
L 165.1928 255.692964 
L 166.82423 256.628172 
L 168.45566 253.501007 
L 170.08709 253.720483 
L 171.71852 250.990101 
L 173.34995 253.871933 
L 174.98138 255.230012 
L 176.61281 250.544178 
L 178.244239 255.194999 
L 179.875669 254.413786 
L 181.507099 254.321709 
L 183.138529 253.453717 
L 184.769959 254.845689 
L 186.401389 254.254717 
L 188.032819 254.814064 
L 189.664249 254.581378 
L 191.295678 251.97905 
L 192.927108 254.166796 
L 194.558538 252.017721 
L 196.189968 254.570883 
L 197.821398 253.391926 
L 199.452828 254.545606 
L 201.084258 252.361595 
L 202.715688 254.058246 
L 204.347117 252.655725 
L 205.978547 254.653124 
L 207.609977 250.855176 
L 209.241407 253.465388 
L 210.872837 253.765648 
L 212.504267 250.136531 
L 214.135697 254.323823 
L 215.767127 254.695482 
L 217.398556 255.334769 
L 219.029986 256.220082 
L 220.661416 253.052155 
L 222.292846 255.448572 
L 223.924276 253.653281 
L 225.555706 255.675916 
L 227.187136 253.954275 
L 228.818566 254.641322 
L 230.449995 254.100918 
L 232.081425 254.579233 
L 233.712855 254.313328 
L 235.344285 252.687412 
L 236.975715 253.083935 
L 238.607145 252.759491 
L 240.238575 253.408617 
L 241.870005 251.298581 
L 243.501434 253.723378 
L 245.132864 254.080972 
L 246.764294 253.00248 
L 248.395724 253.269378 
L 250.027154 252.853899 
L 251.658584 254.75077 
L 253.290014 254.213157 
L 254.921444 250.689627 
L 256.552873 248.378529 
L 258.184303 254.267244 
L 261.447163 247.402181 
L 263.078593 249.870417 
L 264.710023 252.822902 
L 266.341453 253.48526 
L 267.972883 253.87667 
L 269.604312 252.102336 
L 271.235742 256.027217 
L 272.867172 253.897543 
L 274.498602 256.01963 
L 277.761462 253.967061 
L 279.392892 254.509099 
L 281.024322 255.841943 
L 282.655751 253.468914 
L 284.287181 255.307681 
L 285.918611 256.461909 
L 289.181471 255.240053 
L 290.812901 254.115266 
L 292.444331 254.022088 
L 294.075761 253.221777 
L 295.70719 254.483226 
L 297.33862 252.965406 
L 298.97005 254.584193 
L 300.60148 250.58174 
L 302.23291 250.760404 
L 303.86434 253.007537 
L 305.49577 254.165845 
L 307.1272 257.571238 
L 308.75863 256.055496 
L 310.390059 256.919148 
L 312.021489 258.187552 
L 313.652919 256.572049 
L 315.284349 257.413484 
L 316.915779 257.720003 
L 318.547209 257.161551 
L 320.178639 258.081953 
L 323.441498 257.183002 
L 325.072928 257.302969 
L 326.704358 255.540634 
L 328.335788 254.818691 
L 329.967218 256.157587 
L 331.598648 255.840203 
L 333.230078 256.548903 
L 334.861508 254.238975 
L 336.492937 255.360195 
L 338.124367 253.795615 
L 339.755797 255.03565 
L 341.387227 255.628154 
L 343.018657 255.84434 
L 344.650087 255.757732 
L 346.281517 254.145445 
L 347.912947 254.835445 
L 349.544376 254.377398 
L 351.175806 252.49685 
L 352.807236 253.457845 
L 354.438666 252.345831 
L 356.070096 251.692117 
L 357.701526 251.99862 
L 359.332956 250.886886 
L 360.964386 252.97557 
L 362.595815 251.053118 
L 364.227245 249.752592 
L 365.858675 246.10538 
L 367.490105 250.999752 
L 369.121535 251.136091 
L 370.752965 253.351129 
L 372.384395 252.814332 
L 374.015825 252.031496 
L 375.647254 253.373346 
L 377.278684 253.27355 
L 378.910114 253.430547 
L 380.541544 254.923299 
L 382.172974 254.702929 
L 383.804404 256.684656 
L 385.435834 254.8092 
L 388.698693 254.577654 
L 390.330123 254.392965 
L 391.961553 255.717377 
L 393.592983 256.816173 
L 396.855843 255.360226 
L 398.487273 256.55838 
L 398.487273 256.55838 
" clip-path="url(#p266ddbe1e3)" style="fill: none; stroke: #0000ff; stroke-width: 1.5; stroke-linecap: square"/>
   </g>
   <g id="line2d_34">
    <path d="M 73.832727 292.189488 
L 75.464157 288.829648 
L 77.095587 288.644073 
L 78.727017 289.437911 
L 80.358447 289.857205 
L 81.989877 284.511463 
L 83.621307 284.953503 
L 85.252736 285.115532 
L 86.884166 287.50196 
L 88.515596 287.702398 
L 90.147026 285.979881 
L 91.778456 286.741855 
L 93.409886 288.000115 
L 95.041316 287.909449 
L 96.672746 286.434735 
L 98.304175 287.642684 
L 99.935605 288.17154 
L 101.567035 287.5254 
L 103.198465 287.428938 
L 104.829895 288.124449 
L 106.461325 288.422883 
L 108.092755 288.470877 
L 109.724185 289.357659 
L 111.355614 292.139442 
L 112.987044 290.514518 
L 114.618474 287.85843 
L 116.249904 288.908917 
L 117.881334 289.631078 
L 119.512764 288.261607 
L 121.144194 288.793823 
L 122.775624 290.975235 
L 124.407053 288.358914 
L 126.038483 287.968903 
L 127.669913 291.35476 
L 129.301343 288.154125 
L 130.932773 287.173995 
L 132.564203 286.978941 
L 134.195633 287.543837 
L 135.827063 287.583957 
L 137.458492 288.77363 
L 139.089922 288.233745 
L 140.721352 288.160543 
L 142.352782 290.129444 
L 143.984212 287.06777 
L 145.615642 288.834184 
L 147.247072 288.224342 
L 148.878502 287.242486 
L 150.509931 287.323407 
L 152.141361 287.123657 
L 153.772791 289.529878 
L 155.404221 286.168439 
L 157.035651 288.903534 
L 158.667081 287.57397 
L 160.298511 287.628838 
L 161.929941 287.526386 
L 163.56137 286.308948 
L 165.1928 287.345898 
L 166.82423 287.844112 
L 168.45566 289.628034 
L 170.08709 288.273472 
L 171.71852 291.900449 
L 173.34995 287.451948 
L 174.98138 288.805005 
L 176.61281 292.015747 
L 178.244239 289.133121 
L 179.875669 288.464092 
L 181.507099 288.337439 
L 183.138529 289.024937 
L 184.769959 289.219693 
L 186.401389 289.945068 
L 188.032819 289.184845 
L 189.664249 288.875902 
L 191.295678 290.801226 
L 192.927108 290.061778 
L 194.558538 291.832015 
L 196.189968 290.783532 
L 197.821398 290.666199 
L 199.452828 291.795509 
L 201.084258 294.060704 
L 202.715688 291.185128 
L 204.347117 290.329212 
L 205.978547 291.542881 
L 207.609977 292.936644 
L 209.241407 291.211653 
L 210.872837 291.397414 
L 212.504267 293.309517 
L 214.135697 291.760563 
L 215.767127 289.839376 
L 217.398556 287.103428 
L 219.029986 288.119979 
L 220.661416 290.154915 
L 222.292846 287.033574 
L 223.924276 287.432575 
L 227.187136 290.396823 
L 228.818566 288.647045 
L 230.449995 288.180539 
L 232.081425 288.508626 
L 233.712855 288.603744 
L 235.344285 292.242586 
L 236.975715 291.215542 
L 238.607145 292.788387 
L 240.238575 291.675624 
L 241.870005 292.390641 
L 243.501434 290.464991 
L 245.132864 290.584803 
L 246.764294 293.357322 
L 248.395724 291.75195 
L 250.027154 291.87025 
L 251.658584 291.79065 
L 253.290014 291.495312 
L 254.921444 294.129326 
L 256.552873 295.488 
L 258.184303 292.726537 
L 259.815733 293.908736 
L 261.447163 294.720116 
L 263.078593 295.107906 
L 264.710023 292.184281 
L 266.341453 293.27334 
L 267.972883 290.730676 
L 269.604312 294.063834 
L 271.235742 288.866535 
L 272.867172 290.612942 
L 274.498602 289.562709 
L 276.130032 288.781256 
L 277.761462 289.445815 
L 279.392892 287.933761 
L 281.024322 289.446101 
L 282.655751 290.556375 
L 284.287181 288.754441 
L 285.918611 289.559204 
L 287.550041 287.509187 
L 289.181471 288.719015 
L 290.812901 288.784784 
L 292.444331 289.879899 
L 294.075761 288.480425 
L 295.70719 289.506755 
L 297.33862 290.997154 
L 298.97005 289.155522 
L 300.60148 290.580676 
L 302.23291 293.632449 
L 303.86434 292.239093 
L 305.49577 292.206208 
L 307.1272 286.905131 
L 308.75863 285.225351 
L 310.390059 285.230473 
L 312.021489 286.777512 
L 313.652919 284.695928 
L 315.284349 285.752418 
L 316.915779 284.82129 
L 318.547209 284.917127 
L 320.178639 283.319316 
L 321.810069 284.297356 
L 323.441498 282.885653 
L 325.072928 284.041627 
L 326.704358 285.732366 
L 328.335788 284.672474 
L 329.967218 285.405352 
L 331.598648 284.576179 
L 333.230078 285.030567 
L 334.861508 287.672454 
L 338.124367 287.164906 
L 339.755797 287.991263 
L 341.387227 286.130372 
L 343.018657 287.003177 
L 344.650087 287.297333 
L 346.281517 286.685943 
L 347.912947 286.542336 
L 349.544376 287.178952 
L 351.175806 290.543785 
L 352.807236 290.549596 
L 354.438666 289.994497 
L 356.070096 291.385433 
L 357.701526 291.545616 
L 359.332956 293.599653 
L 360.964386 291.356667 
L 362.595815 290.592202 
L 364.227245 294.12843 
L 365.858675 294.22553 
L 367.490105 293.215332 
L 369.121535 293.177327 
L 372.384395 291.895803 
L 374.015825 289.801318 
L 375.647254 291.349479 
L 377.278684 288.693583 
L 378.910114 290.665085 
L 380.541544 287.340874 
L 382.172974 289.700605 
L 383.804404 288.124523 
L 385.435834 288.904766 
L 387.067264 287.852899 
L 388.698693 288.771227 
L 390.330123 289.311229 
L 391.961553 285.888972 
L 393.592983 285.561064 
L 395.224413 285.109919 
L 396.855843 285.289326 
L 398.487273 285.707895 
L 398.487273 285.707895 
" clip-path="url(#p266ddbe1e3)" style="fill: none; stroke-dasharray: 9.6,2.4,1.5,2.4; stroke-dashoffset: 0; stroke: #008000; stroke-width: 1.5"/>
   </g>
   <g id="line2d_35">
    <path d="M 73.832727 235.697881 
L 75.464157 230.804802 
L 77.095587 230.023287 
L 78.727017 222.773158 
L 80.358447 223.772295 
L 81.989877 225.797783 
L 83.621307 222.203893 
L 85.252736 219.385741 
L 86.884166 215.498176 
L 88.515596 217.530892 
L 90.147026 221.951467 
L 91.778456 218.458717 
L 93.409886 212.912568 
L 95.041316 218.967469 
L 96.672746 218.095811 
L 98.304175 218.278414 
L 99.935605 219.217283 
L 101.567035 219.290671 
L 103.198465 215.768266 
L 104.829895 219.674108 
L 106.461325 217.145097 
L 108.092755 216.262728 
L 109.724185 219.543339 
L 111.355614 210.904663 
L 112.987044 222.338052 
L 114.618474 220.330338 
L 116.249904 221.458046 
L 117.881334 221.667027 
L 119.512764 222.332647 
L 121.144194 221.840231 
L 122.775624 215.878258 
L 124.407053 220.653444 
L 126.038483 221.697892 
L 127.669913 219.448493 
L 129.301343 224.809239 
L 130.932773 223.557372 
L 132.564203 224.219428 
L 134.195633 220.641204 
L 135.827063 220.735019 
L 137.458492 217.537785 
L 139.089922 220.664082 
L 140.721352 221.11354 
L 142.352782 215.978044 
L 143.984212 223.67714 
L 145.615642 217.780555 
L 147.247072 224.596403 
L 148.878502 222.900163 
L 150.509931 223.47321 
L 152.141361 223.628891 
L 153.772791 216.989705 
L 155.404221 223.495063 
L 157.035651 221.791902 
L 158.667081 224.433046 
L 160.298511 225.307324 
L 161.929941 224.645898 
L 163.56137 224.74362 
L 165.1928 224.04003 
L 166.82423 225.412233 
L 168.45566 217.373979 
L 170.08709 219.167493 
L 171.71852 210.079753 
L 173.34995 220.291918 
L 174.98138 221.65502 
L 176.61281 209.07261 
L 178.244239 221.256878 
L 179.875669 220.363479 
L 181.507099 220.305979 
L 183.138529 217.882497 
L 184.769959 220.471686 
L 186.401389 218.564365 
L 188.032819 220.443283 
L 189.664249 220.286854 
L 191.295678 213.156873 
L 192.927108 218.271814 
L 194.558538 212.203427 
L 196.189968 218.358234 
L 197.821398 216.117652 
L 199.452828 217.295704 
L 201.084258 210.662485 
L 202.715688 216.931364 
L 204.347117 214.982238 
L 205.978547 217.763367 
L 207.609977 208.773707 
L 209.241407 215.719123 
L 210.872837 216.133882 
L 212.504267 206.963545 
L 214.135697 216.887083 
L 215.767127 219.551589 
L 217.398556 223.56611 
L 219.029986 224.320185 
L 220.661416 215.949394 
L 222.292846 223.863569 
L 223.924276 219.873987 
L 225.555706 222.445574 
L 227.187136 217.511727 
L 228.818566 220.6356 
L 230.449995 220.021297 
L 232.081425 220.64984 
L 233.712855 220.022912 
L 235.344285 213.132238 
L 236.975715 214.952327 
L 238.607145 212.730594 
L 240.238575 215.141611 
L 241.870005 210.206521 
L 243.501434 216.981766 
L 245.132864 217.577142 
L 246.764294 212.647637 
L 248.395724 214.786807 
L 250.027154 213.837548 
L 251.658584 217.71089 
L 253.290014 216.931002 
L 254.921444 207.249928 
L 256.552873 201.269059 
L 258.184303 215.807952 
L 261.447163 200.084246 
L 263.078593 204.632928 
L 264.710023 213.461523 
L 266.341453 213.69718 
L 267.972883 217.022664 
L 269.604312 210.140838 
L 271.235742 223.187899 
L 272.867172 217.182143 
L 274.498602 222.476551 
L 276.130032 221.101092 
L 277.761462 218.488306 
L 279.392892 221.084437 
L 281.024322 222.237785 
L 282.655751 216.381453 
L 284.287181 221.860922 
L 285.918611 223.364614 
L 287.550041 224.10351 
L 290.812901 219.445747 
L 292.444331 218.164278 
L 294.075761 217.963129 
L 295.70719 219.459697 
L 297.33862 214.933658 
L 298.97005 220.012865 
L 300.60148 210.582804 
L 302.23291 207.888358 
L 303.86434 213.77598 
L 305.49577 216.125482 
L 307.1272 228.237345 
L 308.75863 226.88564 
L 310.390059 228.607822 
L 312.021489 229.597592 
L 313.652919 228.448169 
L 315.284349 229.07455 
L 316.915779 230.618716 
L 318.547209 229.405975 
L 320.178639 232.84459 
L 321.810069 230.9204 
L 323.441498 231.480351 
L 325.072928 230.564311 
L 326.704358 225.348902 
L 328.335788 224.964907 
L 329.967218 226.909822 
L 331.598648 227.104227 
L 333.230078 228.06724 
L 334.861508 220.805496 
L 336.492937 223.265454 
L 338.124367 220.426324 
L 339.755797 222.080037 
L 341.387227 225.125936 
L 344.650087 224.218132 
L 346.281517 221.604946 
L 347.912947 223.128554 
L 349.544376 221.575844 
L 351.175806 214.449915 
L 352.807236 216.366094 
L 354.438666 214.697165 
L 356.070096 211.998801 
L 357.701526 212.451624 
L 359.332956 208.174119 
L 360.964386 214.594474 
L 362.595815 211.514034 
L 364.227245 205.376753 
L 365.858675 197.985229 
L 367.490105 208.784173 
L 369.121535 209.094854 
L 370.752965 214.12202 
L 372.384395 213.732861 
L 374.015825 214.261674 
L 375.647254 215.397212 
L 377.278684 217.853518 
L 378.910114 216.19601 
L 380.541544 222.505724 
L 382.172974 219.705253 
L 383.804404 225.24479 
L 385.435834 220.713634 
L 387.067264 221.590005 
L 388.698693 220.384081 
L 390.330123 219.474701 
L 391.961553 225.545783 
L 393.592983 228.071282 
L 395.224413 227.114063 
L 396.855843 225.431126 
L 398.487273 227.408866 
L 398.487273 227.408866 
" clip-path="url(#p266ddbe1e3)" style="fill: none; stroke-dasharray: 9.6,2.4,1.5,2.4; stroke-dashoffset: 0; stroke: #008000; stroke-width: 1.5"/>
   </g>
   <g id="line2d_36">
    <path d="M 73.832727 81.717178 
L 109.724185 81.717178 
L 111.355614 59.671928 
L 174.98138 59.671928 
L 176.61281 53.720713 
L 267.972883 53.720713 
L 269.604312 53.568 
L 398.487273 53.568 
L 398.487273 53.568 
" clip-path="url(#p266ddbe1e3)" style="fill: none; stroke: #ff0000; stroke-width: 1.5; stroke-linecap: square"/>
   </g>
   <g id="patch_3">
    <path d="M 57.6 307.584 
L 57.6 41.472 
" style="fill: none; stroke: #000000; stroke-width: 0.8; stroke-linejoin: miter; stroke-linecap: square"/>
   </g>
   <g id="patch_4">
    <path d="M 414.72 307.584 
L 414.72 41.472 
" style="fill: none; stroke: #000000; stroke-width: 0.8; stroke-linejoin: miter; stroke-linecap: square"/>
   </g>
   <g id="patch_5">
    <path d="M 57.6 307.584 
L 414.72 307.584 
" style="fill: none; stroke: #000000; stroke-width: 0.8; stroke-linejoin: miter; stroke-linecap: square"/>
   </g>
   <g id="patch_6">
    <path d="M 57.6 41.472 
L 414.72 41.472 
" style="fill: none; stroke: #000000; stroke-width: 0.8; stroke-linejoin: miter; stroke-linecap: square"/>
   </g>
   <g id="text_19">
    <!-- Population's average and best fitness -->
    <g transform="translate(123.529687 35.472) scale(0.12 -0.12)">
     <defs>
      <path id="DejaVuSans-50" d="M 1259 4147 
L 1259 2394 
L 2053 2394 
Q 2494 2394 2734 2622 
Q 2975 2850 2975 3272 
Q 2975 3691 2734 3919 
Q 2494 4147 2053 4147 
L 1259 4147 
z
M 628 4666 
L 2053 4666 
Q 2838 4666 3239 4311 
Q 3641 3956 3641 3272 
Q 3641 2581 3239 2228 
Q 2838 1875 2053 1875 
L 1259 1875 
L 1259 0 
L 628 0 
L 628 4666 
z
" transform="scale(0.015625)"/>
      <path id="DejaVuSans-70" d="M 1159 525 
L 1159 -1331 
L 581 -1331 
L 581 3500 
L 1159 3500 
L 1159 2969 
Q 1341 3281 1617 3432 
Q 1894 3584 2278 3584 
Q 2916 3584 3314 3078 
Q 3713 2572 3713 1747 
Q 3713 922 3314 415 
Q 2916 -91 2278 -91 
Q 1894 -91 1617 61 
Q 1341 213 1159 525 
z
M 3116 1747 
Q 3116 2381 2855 2742 
Q 2594 3103 2138 3103 
Q 1681 3103 1420 2742 
Q 1159 2381 1159 1747 
Q 1159 1113 1420 752 
Q 1681 391 2138 391 
Q 2594 391 2855 752 
Q 3116 1113 3116 1747 
z
" transform="scale(0.015625)"/>
      <path id="DejaVuSans-75" d="M 544 1381 
L 544 3500 
L 1119 3500 
L 1119 1403 
Q 1119 906 1312 657 
Q 1506 409 1894 409 
Q 2359 409 2629 706 
Q 2900 1003 2900 1516 
L 2900 3500 
L 3475 3500 
L 3475 0 
L 2900 0 
L 2900 538 
Q 2691 219 2414 64 
Q 2138 -91 1772 -91 
Q 1169 -91 856 284 
Q 544 659 544 1381 
z
M 1991 3584 
L 1991 3584 
z
" transform="scale(0.015625)"/>
      <path id="DejaVuSans-6c" d="M 603 4863 
L 1178 4863 
L 1178 0 
L 603 0 
L 603 4863 
z
" transform="scale(0.015625)"/>
      <path id="DejaVuSans-27" d="M 1147 4666 
L 1147 2931 
L 616 2931 
L 616 4666 
L 1147 4666 
z
" transform="scale(0.015625)"/>
      <path id="DejaVuSans-20" transform="scale(0.015625)"/>
      <path id="DejaVuSans-76" d="M 191 3500 
L 800 3500 
L 1894 563 
L 2988 3500 
L 3597 3500 
L 2284 0 
L 1503 0 
L 191 3500 
z
" transform="scale(0.015625)"/>
      <path id="DejaVuSans-67" d="M 2906 1791 
Q 2906 2416 2648 2759 
Q 2391 3103 1925 3103 
Q 1463 3103 1205 2759 
Q 947 2416 947 1791 
Q 947 1169 1205 825 
Q 1463 481 1925 481 
Q 2391 481 2648 825 
Q 2906 1169 2906 1791 
z
M 3481 434 
Q 3481 -459 3084 -895 
Q 2688 -1331 1869 -1331 
Q 1566 -1331 1297 -1286 
Q 1028 -1241 775 -1147 
L 775 -588 
Q 1028 -725 1275 -790 
Q 1522 -856 1778 -856 
Q 2344 -856 2625 -561 
Q 2906 -266 2906 331 
L 2906 616 
Q 2728 306 2450 153 
Q 2172 0 1784 0 
Q 1141 0 747 490 
Q 353 981 353 1791 
Q 353 2603 747 3093 
Q 1141 3584 1784 3584 
Q 2172 3584 2450 3431 
Q 2728 3278 2906 2969 
L 2906 3500 
L 3481 3500 
L 3481 434 
z
" transform="scale(0.015625)"/>
      <path id="DejaVuSans-64" d="M 2906 2969 
L 2906 4863 
L 3481 4863 
L 3481 0 
L 2906 0 
L 2906 525 
Q 2725 213 2448 61 
Q 2172 -91 1784 -91 
Q 1150 -91 751 415 
Q 353 922 353 1747 
Q 353 2572 751 3078 
Q 1150 3584 1784 3584 
Q 2172 3584 2448 3432 
Q 2725 3281 2906 2969 
z
M 947 1747 
Q 947 1113 1208 752 
Q 1469 391 1925 391 
Q 2381 391 2643 752 
Q 2906 1113 2906 1747 
Q 2906 2381 2643 2742 
Q 2381 3103 1925 3103 
Q 1469 3103 1208 2742 
Q 947 2381 947 1747 
z
" transform="scale(0.015625)"/>
      <path id="DejaVuSans-62" d="M 3116 1747 
Q 3116 2381 2855 2742 
Q 2594 3103 2138 3103 
Q 1681 3103 1420 2742 
Q 1159 2381 1159 1747 
Q 1159 1113 1420 752 
Q 1681 391 2138 391 
Q 2594 391 2855 752 
Q 3116 1113 3116 1747 
z
M 1159 2969 
Q 1341 3281 1617 3432 
Q 1894 3584 2278 3584 
Q 2916 3584 3314 3078 
Q 3713 2572 3713 1747 
Q 3713 922 3314 415 
Q 2916 -91 2278 -91 
Q 1894 -91 1617 61 
Q 1341 213 1159 525 
L 1159 0 
L 581 0 
L 581 4863 
L 1159 4863 
L 1159 2969 
z
" transform="scale(0.015625)"/>
      <path id="DejaVuSans-66" d="M 2375 4863 
L 2375 4384 
L 1825 4384 
Q 1516 4384 1395 4259 
Q 1275 4134 1275 3809 
L 1275 3500 
L 2222 3500 
L 2222 3053 
L 1275 3053 
L 1275 0 
L 697 0 
L 697 3053 
L 147 3053 
L 147 3500 
L 697 3500 
L 697 3744 
Q 697 4328 969 4595 
Q 1241 4863 1831 4863 
L 2375 4863 
z
" transform="scale(0.015625)"/>
     </defs>
     <use xlink:href="#DejaVuSans-50"/>
     <use xlink:href="#DejaVuSans-6f" x="56.677734"/>
     <use xlink:href="#DejaVuSans-70" x="117.859375"/>
     <use xlink:href="#DejaVuSans-75" x="181.335938"/>
     <use xlink:href="#DejaVuSans-6c" x="244.714844"/>
     <use xlink:href="#DejaVuSans-61" x="272.498047"/>
     <use xlink:href="#DejaVuSans-74" x="333.777344"/>
     <use xlink:href="#DejaVuSans-69" x="372.986328"/>
     <use xlink:href="#DejaVuSans-6f" x="400.769531"/>
     <use xlink:href="#DejaVuSans-6e" x="461.951172"/>
     <use xlink:href="#DejaVuSans-27" x="525.330078"/>
     <use xlink:href="#DejaVuSans-73" x="552.820312"/>
     <use xlink:href="#DejaVuSans-20" x="604.919922"/>
     <use xlink:href="#DejaVuSans-61" x="636.707031"/>
     <use xlink:href="#DejaVuSans-76" x="697.986328"/>
     <use xlink:href="#DejaVuSans-65" x="757.166016"/>
     <use xlink:href="#DejaVuSans-72" x="818.689453"/>
     <use xlink:href="#DejaVuSans-61" x="859.802734"/>
     <use xlink:href="#DejaVuSans-67" x="921.082031"/>
     <use xlink:href="#DejaVuSans-65" x="984.558594"/>
     <use xlink:href="#DejaVuSans-20" x="1046.082031"/>
     <use xlink:href="#DejaVuSans-61" x="1077.869141"/>
     <use xlink:href="#DejaVuSans-6e" x="1139.148438"/>
     <use xlink:href="#DejaVuSans-64" x="1202.527344"/>
     <use xlink:href="#DejaVuSans-20" x="1266.003906"/>
     <use xlink:href="#DejaVuSans-62" x="1297.791016"/>
     <use xlink:href="#DejaVuSans-65" x="1361.267578"/>
     <use xlink:href="#DejaVuSans-73" x="1422.791016"/>
     <use xlink:href="#DejaVuSans-74" x="1474.890625"/>
     <use xlink:href="#DejaVuSans-20" x="1514.099609"/>
     <use xlink:href="#DejaVuSans-66" x="1545.886719"/>
     <use xlink:href="#DejaVuSans-69" x="1581.091797"/>
     <use xlink:href="#DejaVuSans-74" x="1608.875"/>
     <use xlink:href="#DejaVuSans-6e" x="1648.083984"/>
     <use xlink:href="#DejaVuSans-65" x="1711.462891"/>
     <use xlink:href="#DejaVuSans-73" x="1772.986328"/>
     <use xlink:href="#DejaVuSans-73" x="1825.085938"/>
    </g>
   </g>
   <g id="legend_1">
    <g id="patch_7">
     <path d="M 64.6 205.38425 
L 137.540625 205.38425 
Q 139.540625 205.38425 139.540625 203.38425 
L 139.540625 145.67175 
Q 139.540625 143.67175 137.540625 143.67175 
L 64.6 143.67175 
Q 62.6 143.67175 62.6 145.67175 
L 62.6 203.38425 
Q 62.6 205.38425 64.6 205.38425 
z
" style="fill: #ffffff; opacity: 0.8; stroke: #cccccc; stroke-linejoin: miter"/>
    </g>
    <g id="line2d_37">
     <path d="M 66.6 151.770188 
L 76.6 151.770188 
L 86.6 151.770188 
" style="fill: none; stroke: #0000ff; stroke-width: 1.5; stroke-linecap: square"/>
    </g>
    <g id="text_20">
     <!-- average -->
     <g transform="translate(94.6 155.270188) scale(0.1 -0.1)">
      <use xlink:href="#DejaVuSans-61"/>
      <use xlink:href="#DejaVuSans-76" x="61.279297"/>
      <use xlink:href="#DejaVuSans-65" x="120.458984"/>
      <use xlink:href="#DejaVuSans-72" x="181.982422"/>
      <use xlink:href="#DejaVuSans-61" x="223.095703"/>
      <use xlink:href="#DejaVuSans-67" x="284.375"/>
      <use xlink:href="#DejaVuSans-65" x="347.851562"/>
     </g>
    </g>
    <g id="line2d_38">
     <path d="M 66.6 166.448313 
L 76.6 166.448313 
L 86.6 166.448313 
" style="fill: none; stroke-dasharray: 9.6,2.4,1.5,2.4; stroke-dashoffset: 0; stroke: #008000; stroke-width: 1.5"/>
    </g>
    <g id="text_21">
     <!-- -1 sd -->
     <g transform="translate(94.6 169.948313) scale(0.1 -0.1)">
      <defs>
       <path id="DejaVuSans-2d" d="M 313 2009 
L 1997 2009 
L 1997 1497 
L 313 1497 
L 313 2009 
z
" transform="scale(0.015625)"/>
      </defs>
      <use xlink:href="#DejaVuSans-2d"/>
      <use xlink:href="#DejaVuSans-31" x="36.083984"/>
      <use xlink:href="#DejaVuSans-20" x="99.707031"/>
      <use xlink:href="#DejaVuSans-73" x="131.494141"/>
      <use xlink:href="#DejaVuSans-64" x="183.59375"/>
     </g>
    </g>
    <g id="line2d_39">
     <path d="M 66.6 181.126438 
L 76.6 181.126438 
L 86.6 181.126438 
" style="fill: none; stroke-dasharray: 9.6,2.4,1.5,2.4; stroke-dashoffset: 0; stroke: #008000; stroke-width: 1.5"/>
    </g>
    <g id="text_22">
     <!-- +1 sd -->
     <g transform="translate(94.6 184.626438) scale(0.1 -0.1)">
      <defs>
       <path id="DejaVuSans-2b" d="M 2944 4013 
L 2944 2272 
L 4684 2272 
L 4684 1741 
L 2944 1741 
L 2944 0 
L 2419 0 
L 2419 1741 
L 678 1741 
L 678 2272 
L 2419 2272 
L 2419 4013 
L 2944 4013 
z
" transform="scale(0.015625)"/>
      </defs>
      <use xlink:href="#DejaVuSans-2b"/>
      <use xlink:href="#DejaVuSans-31" x="83.789062"/>
      <use xlink:href="#DejaVuSans-20" x="147.412109"/>
      <use xlink:href="#DejaVuSans-73" x="179.199219"/>
      <use xlink:href="#DejaVuSans-64" x="231.298828"/>
     </g>
    </g>
    <g id="line2d_40">
     <path d="M 66.6 195.804563 
L 76.6 195.804563 
L 86.6 195.804563 
" style="fill: none; stroke: #ff0000; stroke-width: 1.5; stroke-linecap: square"/>
    </g>
    <g id="text_23">
     <!-- best -->
     <g transform="translate(94.6 199.304563) scale(0.1 -0.1)">
      <use xlink:href="#DejaVuSans-62"/>
      <use xlink:href="#DejaVuSans-65" x="63.476562"/>
      <use xlink:href="#DejaVuSans-73" x="125"/>
      <use xlink:href="#DejaVuSans-74" x="177.099609"/>
     </g>
    </g>
   </g>
  </g>
 </g>
 <defs>
  <clipPath id="p266ddbe1e3">
   <rect x="57.6" y="41.472" width="357.12" height="266.112"/>
  </clipPath>
 </defs>
</svg>
