<?xml version="1.0" encoding="utf-8" standalone="no"?>
<!DOCTYPE svg PUBLIC "-//W3C//DTD SVG 1.1//EN"
  "http://www.w3.org/Graphics/SVG/1.1/DTD/svg11.dtd">
<svg xmlns:xlink="http://www.w3.org/1999/xlink" width="460.8pt" height="345.6pt" viewBox="0 0 460.8 345.6" xmlns="http://www.w3.org/2000/svg" version="1.1">
 <metadata>
  <rdf:RDF xmlns:dc="http://purl.org/dc/elements/1.1/" xmlns:cc="http://creativecommons.org/ns#" xmlns:rdf="http://www.w3.org/1999/02/22-rdf-syntax-ns#">
   <cc:Work>
    <dc:type rdf:resource="http://purl.org/dc/dcmitype/StillImage"/>
    <dc:date>2024-08-04T15:01:07.537317</dc:date>
    <dc:format>image/svg+xml</dc:format>
    <dc:creator>
     <cc:Agent>
      <dc:title>Matplotlib v3.8.4, https://matplotlib.org/</dc:title>
     </cc:Agent>
    </dc:creator>
   </cc:Work>
  </rdf:RDF>
 </metadata>
 <defs>
  <style type="text/css">*{stroke-linejoin: round; stroke-linecap: butt}</style>
 </defs>
 <g id="figure_1">
  <g id="patch_1">
   <path d="M 0 345.6 
L 460.8 345.6 
L 460.8 0 
L 0 0 
z
" style="fill: #ffffff"/>
  </g>
  <g id="axes_1">
   <g id="patch_2">
    <path d="M 57.6 307.584 
L 414.72 307.584 
L 414.72 41.472 
L 57.6 41.472 
z
" style="fill: #ffffff"/>
   </g>
   <g id="matplotlib.axis_1">
    <g id="xtick_1">
     <g id="line2d_1">
      <path d="M 73.832727 307.584 
L 73.832727 41.472 
" clip-path="url(#p7898305297)" style="fill: none; stroke: #b0b0b0; stroke-width: 0.8; stroke-linecap: square"/>
     </g>
     <g id="line2d_2">
      <defs>
       <path id="m422cb87cb9" d="M 0 0 
L 0 3.5 
" style="stroke: #000000; stroke-width: 0.8"/>
      </defs>
      <g>
       <use xlink:href="#m422cb87cb9" x="73.832727" y="307.584" style="stroke: #000000; stroke-width: 0.8"/>
      </g>
     </g>
     <g id="text_1">
      <!-- 0 -->
      <g transform="translate(70.651477 322.182437) scale(0.1 -0.1)">
       <defs>
        <path id="DejaVuSans-30" d="M 2034 4250 
Q 1547 4250 1301 3770 
Q 1056 3291 1056 2328 
Q 1056 1369 1301 889 
Q 1547 409 2034 409 
Q 2525 409 2770 889 
Q 3016 1369 3016 2328 
Q 3016 3291 2770 3770 
Q 2525 4250 2034 4250 
z
M 2034 4750 
Q 2819 4750 3233 4129 
Q 3647 3509 3647 2328 
Q 3647 1150 3233 529 
Q 2819 -91 2034 -91 
Q 1250 -91 836 529 
Q 422 1150 422 2328 
Q 422 3509 836 4129 
Q 1250 4750 2034 4750 
z
" transform="scale(0.015625)"/>
       </defs>
       <use xlink:href="#DejaVuSans-30"/>
      </g>
     </g>
    </g>
    <g id="xtick_2">
     <g id="line2d_3">
      <path d="M 114.618474 307.584 
L 114.618474 41.472 
" clip-path="url(#p7898305297)" style="fill: none; stroke: #b0b0b0; stroke-width: 0.8; stroke-linecap: square"/>
     </g>
     <g id="line2d_4">
      <g>
       <use xlink:href="#m422cb87cb9" x="114.618474" y="307.584" style="stroke: #000000; stroke-width: 0.8"/>
      </g>
     </g>
     <g id="text_2">
      <!-- 25 -->
      <g transform="translate(108.255974 322.182437) scale(0.1 -0.1)">
       <defs>
        <path id="DejaVuSans-32" d="M 1228 531 
L 3431 531 
L 3431 0 
L 469 0 
L 469 531 
Q 828 903 1448 1529 
Q 2069 2156 2228 2338 
Q 2531 2678 2651 2914 
Q 2772 3150 2772 3378 
Q 2772 3750 2511 3984 
Q 2250 4219 1831 4219 
Q 1534 4219 1204 4116 
Q 875 4013 500 3803 
L 500 4441 
Q 881 4594 1212 4672 
Q 1544 4750 1819 4750 
Q 2544 4750 2975 4387 
Q 3406 4025 3406 3419 
Q 3406 3131 3298 2873 
Q 3191 2616 2906 2266 
Q 2828 2175 2409 1742 
Q 1991 1309 1228 531 
z
" transform="scale(0.015625)"/>
        <path id="DejaVuSans-35" d="M 691 4666 
L 3169 4666 
L 3169 4134 
L 1269 4134 
L 1269 2991 
Q 1406 3038 1543 3061 
Q 1681 3084 1819 3084 
Q 2600 3084 3056 2656 
Q 3513 2228 3513 1497 
Q 3513 744 3044 326 
Q 2575 -91 1722 -91 
Q 1428 -91 1123 -41 
Q 819 9 494 109 
L 494 744 
Q 775 591 1075 516 
Q 1375 441 1709 441 
Q 2250 441 2565 725 
Q 2881 1009 2881 1497 
Q 2881 1984 2565 2268 
Q 2250 2553 1709 2553 
Q 1456 2553 1204 2497 
Q 953 2441 691 2322 
L 691 4666 
z
" transform="scale(0.015625)"/>
       </defs>
       <use xlink:href="#DejaVuSans-32"/>
       <use xlink:href="#DejaVuSans-35" x="63.623047"/>
      </g>
     </g>
    </g>
    <g id="xtick_3">
     <g id="line2d_5">
      <path d="M 155.404221 307.584 
L 155.404221 41.472 
" clip-path="url(#p7898305297)" style="fill: none; stroke: #b0b0b0; stroke-width: 0.8; stroke-linecap: square"/>
     </g>
     <g id="line2d_6">
      <g>
       <use xlink:href="#m422cb87cb9" x="155.404221" y="307.584" style="stroke: #000000; stroke-width: 0.8"/>
      </g>
     </g>
     <g id="text_3">
      <!-- 50 -->
      <g transform="translate(149.041721 322.182437) scale(0.1 -0.1)">
       <use xlink:href="#DejaVuSans-35"/>
       <use xlink:href="#DejaVuSans-30" x="63.623047"/>
      </g>
     </g>
    </g>
    <g id="xtick_4">
     <g id="line2d_7">
      <path d="M 196.189968 307.584 
L 196.189968 41.472 
" clip-path="url(#p7898305297)" style="fill: none; stroke: #b0b0b0; stroke-width: 0.8; stroke-linecap: square"/>
     </g>
     <g id="line2d_8">
      <g>
       <use xlink:href="#m422cb87cb9" x="196.189968" y="307.584" style="stroke: #000000; stroke-width: 0.8"/>
      </g>
     </g>
     <g id="text_4">
      <!-- 75 -->
      <g transform="translate(189.827468 322.182437) scale(0.1 -0.1)">
       <defs>
        <path id="DejaVuSans-37" d="M 525 4666 
L 3525 4666 
L 3525 4397 
L 1831 0 
L 1172 0 
L 2766 4134 
L 525 4134 
L 525 4666 
z
" transform="scale(0.015625)"/>
       </defs>
       <use xlink:href="#DejaVuSans-37"/>
       <use xlink:href="#DejaVuSans-35" x="63.623047"/>
      </g>
     </g>
    </g>
    <g id="xtick_5">
     <g id="line2d_9">
      <path d="M 236.975715 307.584 
L 236.975715 41.472 
" clip-path="url(#p7898305297)" style="fill: none; stroke: #b0b0b0; stroke-width: 0.8; stroke-linecap: square"/>
     </g>
     <g id="line2d_10">
      <g>
       <use xlink:href="#m422cb87cb9" x="236.975715" y="307.584" style="stroke: #000000; stroke-width: 0.8"/>
      </g>
     </g>
     <g id="text_5">
      <!-- 100 -->
      <g transform="translate(227.431965 322.182437) scale(0.1 -0.1)">
       <defs>
        <path id="DejaVuSans-31" d="M 794 531 
L 1825 531 
L 1825 4091 
L 703 3866 
L 703 4441 
L 1819 4666 
L 2450 4666 
L 2450 531 
L 3481 531 
L 3481 0 
L 794 0 
L 794 531 
z
" transform="scale(0.015625)"/>
       </defs>
       <use xlink:href="#DejaVuSans-31"/>
       <use xlink:href="#DejaVuSans-30" x="63.623047"/>
       <use xlink:href="#DejaVuSans-30" x="127.246094"/>
      </g>
     </g>
    </g>
    <g id="xtick_6">
     <g id="line2d_11">
      <path d="M 277.761462 307.584 
L 277.761462 41.472 
" clip-path="url(#p7898305297)" style="fill: none; stroke: #b0b0b0; stroke-width: 0.8; stroke-linecap: square"/>
     </g>
     <g id="line2d_12">
      <g>
       <use xlink:href="#m422cb87cb9" x="277.761462" y="307.584" style="stroke: #000000; stroke-width: 0.8"/>
      </g>
     </g>
     <g id="text_6">
      <!-- 125 -->
      <g transform="translate(268.217712 322.182437) scale(0.1 -0.1)">
       <use xlink:href="#DejaVuSans-31"/>
       <use xlink:href="#DejaVuSans-32" x="63.623047"/>
       <use xlink:href="#DejaVuSans-35" x="127.246094"/>
      </g>
     </g>
    </g>
    <g id="xtick_7">
     <g id="line2d_13">
      <path d="M 318.547209 307.584 
L 318.547209 41.472 
" clip-path="url(#p7898305297)" style="fill: none; stroke: #b0b0b0; stroke-width: 0.8; stroke-linecap: square"/>
     </g>
     <g id="line2d_14">
      <g>
       <use xlink:href="#m422cb87cb9" x="318.547209" y="307.584" style="stroke: #000000; stroke-width: 0.8"/>
      </g>
     </g>
     <g id="text_7">
      <!-- 150 -->
      <g transform="translate(309.003459 322.182437) scale(0.1 -0.1)">
       <use xlink:href="#DejaVuSans-31"/>
       <use xlink:href="#DejaVuSans-35" x="63.623047"/>
       <use xlink:href="#DejaVuSans-30" x="127.246094"/>
      </g>
     </g>
    </g>
    <g id="xtick_8">
     <g id="line2d_15">
      <path d="M 359.332956 307.584 
L 359.332956 41.472 
" clip-path="url(#p7898305297)" style="fill: none; stroke: #b0b0b0; stroke-width: 0.8; stroke-linecap: square"/>
     </g>
     <g id="line2d_16">
      <g>
       <use xlink:href="#m422cb87cb9" x="359.332956" y="307.584" style="stroke: #000000; stroke-width: 0.8"/>
      </g>
     </g>
     <g id="text_8">
      <!-- 175 -->
      <g transform="translate(349.789206 322.182437) scale(0.1 -0.1)">
       <use xlink:href="#DejaVuSans-31"/>
       <use xlink:href="#DejaVuSans-37" x="63.623047"/>
       <use xlink:href="#DejaVuSans-35" x="127.246094"/>
      </g>
     </g>
    </g>
    <g id="xtick_9">
     <g id="line2d_17">
      <path d="M 400.118703 307.584 
L 400.118703 41.472 
" clip-path="url(#p7898305297)" style="fill: none; stroke: #b0b0b0; stroke-width: 0.8; stroke-linecap: square"/>
     </g>
     <g id="line2d_18">
      <g>
       <use xlink:href="#m422cb87cb9" x="400.118703" y="307.584" style="stroke: #000000; stroke-width: 0.8"/>
      </g>
     </g>
     <g id="text_9">
      <!-- 200 -->
      <g transform="translate(390.574953 322.182437) scale(0.1 -0.1)">
       <use xlink:href="#DejaVuSans-32"/>
       <use xlink:href="#DejaVuSans-30" x="63.623047"/>
       <use xlink:href="#DejaVuSans-30" x="127.246094"/>
      </g>
     </g>
    </g>
    <g id="text_10">
     <!-- Generations -->
     <g transform="translate(205.662344 335.860562) scale(0.1 -0.1)">
      <defs>
       <path id="DejaVuSans-47" d="M 3809 666 
L 3809 1919 
L 2778 1919 
L 2778 2438 
L 4434 2438 
L 4434 434 
Q 4069 175 3628 42 
Q 3188 -91 2688 -91 
Q 1594 -91 976 548 
Q 359 1188 359 2328 
Q 359 3472 976 4111 
Q 1594 4750 2688 4750 
Q 3144 4750 3555 4637 
Q 3966 4525 4313 4306 
L 4313 3634 
Q 3963 3931 3569 4081 
Q 3175 4231 2741 4231 
Q 1884 4231 1454 3753 
Q 1025 3275 1025 2328 
Q 1025 1384 1454 906 
Q 1884 428 2741 428 
Q 3075 428 3337 486 
Q 3600 544 3809 666 
z
" transform="scale(0.015625)"/>
       <path id="DejaVuSans-65" d="M 3597 1894 
L 3597 1613 
L 953 1613 
Q 991 1019 1311 708 
Q 1631 397 2203 397 
Q 2534 397 2845 478 
Q 3156 559 3463 722 
L 3463 178 
Q 3153 47 2828 -22 
Q 2503 -91 2169 -91 
Q 1331 -91 842 396 
Q 353 884 353 1716 
Q 353 2575 817 3079 
Q 1281 3584 2069 3584 
Q 2775 3584 3186 3129 
Q 3597 2675 3597 1894 
z
M 3022 2063 
Q 3016 2534 2758 2815 
Q 2500 3097 2075 3097 
Q 1594 3097 1305 2825 
Q 1016 2553 972 2059 
L 3022 2063 
z
" transform="scale(0.015625)"/>
       <path id="DejaVuSans-6e" d="M 3513 2113 
L 3513 0 
L 2938 0 
L 2938 2094 
Q 2938 2591 2744 2837 
Q 2550 3084 2163 3084 
Q 1697 3084 1428 2787 
Q 1159 2491 1159 1978 
L 1159 0 
L 581 0 
L 581 3500 
L 1159 3500 
L 1159 2956 
Q 1366 3272 1645 3428 
Q 1925 3584 2291 3584 
Q 2894 3584 3203 3211 
Q 3513 2838 3513 2113 
z
" transform="scale(0.015625)"/>
       <path id="DejaVuSans-72" d="M 2631 2963 
Q 2534 3019 2420 3045 
Q 2306 3072 2169 3072 
Q 1681 3072 1420 2755 
Q 1159 2438 1159 1844 
L 1159 0 
L 581 0 
L 581 3500 
L 1159 3500 
L 1159 2956 
Q 1341 3275 1631 3429 
Q 1922 3584 2338 3584 
Q 2397 3584 2469 3576 
Q 2541 3569 2628 3553 
L 2631 2963 
z
" transform="scale(0.015625)"/>
       <path id="DejaVuSans-61" d="M 2194 1759 
Q 1497 1759 1228 1600 
Q 959 1441 959 1056 
Q 959 750 1161 570 
Q 1363 391 1709 391 
Q 2188 391 2477 730 
Q 2766 1069 2766 1631 
L 2766 1759 
L 2194 1759 
z
M 3341 1997 
L 3341 0 
L 2766 0 
L 2766 531 
Q 2569 213 2275 61 
Q 1981 -91 1556 -91 
Q 1019 -91 701 211 
Q 384 513 384 1019 
Q 384 1609 779 1909 
Q 1175 2209 1959 2209 
L 2766 2209 
L 2766 2266 
Q 2766 2663 2505 2880 
Q 2244 3097 1772 3097 
Q 1472 3097 1187 3025 
Q 903 2953 641 2809 
L 641 3341 
Q 956 3463 1253 3523 
Q 1550 3584 1831 3584 
Q 2591 3584 2966 3190 
Q 3341 2797 3341 1997 
z
" transform="scale(0.015625)"/>
       <path id="DejaVuSans-74" d="M 1172 4494 
L 1172 3500 
L 2356 3500 
L 2356 3053 
L 1172 3053 
L 1172 1153 
Q 1172 725 1289 603 
Q 1406 481 1766 481 
L 2356 481 
L 2356 0 
L 1766 0 
Q 1100 0 847 248 
Q 594 497 594 1153 
L 594 3053 
L 172 3053 
L 172 3500 
L 594 3500 
L 594 4494 
L 1172 4494 
z
" transform="scale(0.015625)"/>
       <path id="DejaVuSans-69" d="M 603 3500 
L 1178 3500 
L 1178 0 
L 603 0 
L 603 3500 
z
M 603 4863 
L 1178 4863 
L 1178 4134 
L 603 4134 
L 603 4863 
z
" transform="scale(0.015625)"/>
       <path id="DejaVuSans-6f" d="M 1959 3097 
Q 1497 3097 1228 2736 
Q 959 2375 959 1747 
Q 959 1119 1226 758 
Q 1494 397 1959 397 
Q 2419 397 2687 759 
Q 2956 1122 2956 1747 
Q 2956 2369 2687 2733 
Q 2419 3097 1959 3097 
z
M 1959 3584 
Q 2709 3584 3137 3096 
Q 3566 2609 3566 1747 
Q 3566 888 3137 398 
Q 2709 -91 1959 -91 
Q 1206 -91 779 398 
Q 353 888 353 1747 
Q 353 2609 779 3096 
Q 1206 3584 1959 3584 
z
" transform="scale(0.015625)"/>
       <path id="DejaVuSans-73" d="M 2834 3397 
L 2834 2853 
Q 2591 2978 2328 3040 
Q 2066 3103 1784 3103 
Q 1356 3103 1142 2972 
Q 928 2841 928 2578 
Q 928 2378 1081 2264 
Q 1234 2150 1697 2047 
L 1894 2003 
Q 2506 1872 2764 1633 
Q 3022 1394 3022 966 
Q 3022 478 2636 193 
Q 2250 -91 1575 -91 
Q 1294 -91 989 -36 
Q 684 19 347 128 
L 347 722 
Q 666 556 975 473 
Q 1284 391 1588 391 
Q 1994 391 2212 530 
Q 2431 669 2431 922 
Q 2431 1156 2273 1281 
Q 2116 1406 1581 1522 
L 1381 1569 
Q 847 1681 609 1914 
Q 372 2147 372 2553 
Q 372 3047 722 3315 
Q 1072 3584 1716 3584 
Q 2034 3584 2315 3537 
Q 2597 3491 2834 3397 
z
" transform="scale(0.015625)"/>
      </defs>
      <use xlink:href="#DejaVuSans-47"/>
      <use xlink:href="#DejaVuSans-65" x="77.490234"/>
      <use xlink:href="#DejaVuSans-6e" x="139.013672"/>
      <use xlink:href="#DejaVuSans-65" x="202.392578"/>
      <use xlink:href="#DejaVuSans-72" x="263.916016"/>
      <use xlink:href="#DejaVuSans-61" x="305.029297"/>
      <use xlink:href="#DejaVuSans-74" x="366.308594"/>
      <use xlink:href="#DejaVuSans-69" x="405.517578"/>
      <use xlink:href="#DejaVuSans-6f" x="433.300781"/>
      <use xlink:href="#DejaVuSans-6e" x="494.482422"/>
      <use xlink:href="#DejaVuSans-73" x="557.861328"/>
     </g>
    </g>
   </g>
   <g id="matplotlib.axis_2">
    <g id="ytick_1">
     <g id="line2d_19">
      <path d="M 57.6 281.868539 
L 414.72 281.868539 
" clip-path="url(#p7898305297)" style="fill: none; stroke: #b0b0b0; stroke-width: 0.8; stroke-linecap: square"/>
     </g>
     <g id="line2d_20">
      <defs>
       <path id="m26658fcd3e" d="M 0 0 
L -3.5 0 
" style="stroke: #000000; stroke-width: 0.8"/>
      </defs>
      <g>
       <use xlink:href="#m26658fcd3e" x="57.6" y="281.868539" style="stroke: #000000; stroke-width: 0.8"/>
      </g>
     </g>
     <g id="text_11">
      <!-- −1900 -->
      <g transform="translate(16.770313 285.667758) scale(0.1 -0.1)">
       <defs>
        <path id="DejaVuSans-2212" d="M 678 2272 
L 4684 2272 
L 4684 1741 
L 678 1741 
L 678 2272 
z
" transform="scale(0.015625)"/>
        <path id="DejaVuSans-39" d="M 703 97 
L 703 672 
Q 941 559 1184 500 
Q 1428 441 1663 441 
Q 2288 441 2617 861 
Q 2947 1281 2994 2138 
Q 2813 1869 2534 1725 
Q 2256 1581 1919 1581 
Q 1219 1581 811 2004 
Q 403 2428 403 3163 
Q 403 3881 828 4315 
Q 1253 4750 1959 4750 
Q 2769 4750 3195 4129 
Q 3622 3509 3622 2328 
Q 3622 1225 3098 567 
Q 2575 -91 1691 -91 
Q 1453 -91 1209 -44 
Q 966 3 703 97 
z
M 1959 2075 
Q 2384 2075 2632 2365 
Q 2881 2656 2881 3163 
Q 2881 3666 2632 3958 
Q 2384 4250 1959 4250 
Q 1534 4250 1286 3958 
Q 1038 3666 1038 3163 
Q 1038 2656 1286 2365 
Q 1534 2075 1959 2075 
z
" transform="scale(0.015625)"/>
       </defs>
       <use xlink:href="#DejaVuSans-2212"/>
       <use xlink:href="#DejaVuSans-31" x="83.789062"/>
       <use xlink:href="#DejaVuSans-39" x="147.412109"/>
       <use xlink:href="#DejaVuSans-30" x="211.035156"/>
       <use xlink:href="#DejaVuSans-30" x="274.658203"/>
      </g>
     </g>
    </g>
    <g id="ytick_2">
     <g id="line2d_21">
      <path d="M 57.6 249.239651 
L 414.72 249.239651 
" clip-path="url(#p7898305297)" style="fill: none; stroke: #b0b0b0; stroke-width: 0.8; stroke-linecap: square"/>
     </g>
     <g id="line2d_22">
      <g>
       <use xlink:href="#m26658fcd3e" x="57.6" y="249.239651" style="stroke: #000000; stroke-width: 0.8"/>
      </g>
     </g>
     <g id="text_12">
      <!-- −1800 -->
      <g transform="translate(16.770313 253.03887) scale(0.1 -0.1)">
       <defs>
        <path id="DejaVuSans-38" d="M 2034 2216 
Q 1584 2216 1326 1975 
Q 1069 1734 1069 1313 
Q 1069 891 1326 650 
Q 1584 409 2034 409 
Q 2484 409 2743 651 
Q 3003 894 3003 1313 
Q 3003 1734 2745 1975 
Q 2488 2216 2034 2216 
z
M 1403 2484 
Q 997 2584 770 2862 
Q 544 3141 544 3541 
Q 544 4100 942 4425 
Q 1341 4750 2034 4750 
Q 2731 4750 3128 4425 
Q 3525 4100 3525 3541 
Q 3525 3141 3298 2862 
Q 3072 2584 2669 2484 
Q 3125 2378 3379 2068 
Q 3634 1759 3634 1313 
Q 3634 634 3220 271 
Q 2806 -91 2034 -91 
Q 1263 -91 848 271 
Q 434 634 434 1313 
Q 434 1759 690 2068 
Q 947 2378 1403 2484 
z
M 1172 3481 
Q 1172 3119 1398 2916 
Q 1625 2713 2034 2713 
Q 2441 2713 2670 2916 
Q 2900 3119 2900 3481 
Q 2900 3844 2670 4047 
Q 2441 4250 2034 4250 
Q 1625 4250 1398 4047 
Q 1172 3844 1172 3481 
z
" transform="scale(0.015625)"/>
       </defs>
       <use xlink:href="#DejaVuSans-2212"/>
       <use xlink:href="#DejaVuSans-31" x="83.789062"/>
       <use xlink:href="#DejaVuSans-38" x="147.412109"/>
       <use xlink:href="#DejaVuSans-30" x="211.035156"/>
       <use xlink:href="#DejaVuSans-30" x="274.658203"/>
      </g>
     </g>
    </g>
    <g id="ytick_3">
     <g id="line2d_23">
      <path d="M 57.6 216.610763 
L 414.72 216.610763 
" clip-path="url(#p7898305297)" style="fill: none; stroke: #b0b0b0; stroke-width: 0.8; stroke-linecap: square"/>
     </g>
     <g id="line2d_24">
      <g>
       <use xlink:href="#m26658fcd3e" x="57.6" y="216.610763" style="stroke: #000000; stroke-width: 0.8"/>
      </g>
     </g>
     <g id="text_13">
      <!-- −1700 -->
      <g transform="translate(16.770313 220.409982) scale(0.1 -0.1)">
       <use xlink:href="#DejaVuSans-2212"/>
       <use xlink:href="#DejaVuSans-31" x="83.789062"/>
       <use xlink:href="#DejaVuSans-37" x="147.412109"/>
       <use xlink:href="#DejaVuSans-30" x="211.035156"/>
       <use xlink:href="#DejaVuSans-30" x="274.658203"/>
      </g>
     </g>
    </g>
    <g id="ytick_4">
     <g id="line2d_25">
      <path d="M 57.6 183.981875 
L 414.72 183.981875 
" clip-path="url(#p7898305297)" style="fill: none; stroke: #b0b0b0; stroke-width: 0.8; stroke-linecap: square"/>
     </g>
     <g id="line2d_26">
      <g>
       <use xlink:href="#m26658fcd3e" x="57.6" y="183.981875" style="stroke: #000000; stroke-width: 0.8"/>
      </g>
     </g>
     <g id="text_14">
      <!-- −1600 -->
      <g transform="translate(16.770313 187.781093) scale(0.1 -0.1)">
       <defs>
        <path id="DejaVuSans-36" d="M 2113 2584 
Q 1688 2584 1439 2293 
Q 1191 2003 1191 1497 
Q 1191 994 1439 701 
Q 1688 409 2113 409 
Q 2538 409 2786 701 
Q 3034 994 3034 1497 
Q 3034 2003 2786 2293 
Q 2538 2584 2113 2584 
z
M 3366 4563 
L 3366 3988 
Q 3128 4100 2886 4159 
Q 2644 4219 2406 4219 
Q 1781 4219 1451 3797 
Q 1122 3375 1075 2522 
Q 1259 2794 1537 2939 
Q 1816 3084 2150 3084 
Q 2853 3084 3261 2657 
Q 3669 2231 3669 1497 
Q 3669 778 3244 343 
Q 2819 -91 2113 -91 
Q 1303 -91 875 529 
Q 447 1150 447 2328 
Q 447 3434 972 4092 
Q 1497 4750 2381 4750 
Q 2619 4750 2861 4703 
Q 3103 4656 3366 4563 
z
" transform="scale(0.015625)"/>
       </defs>
       <use xlink:href="#DejaVuSans-2212"/>
       <use xlink:href="#DejaVuSans-31" x="83.789062"/>
       <use xlink:href="#DejaVuSans-36" x="147.412109"/>
       <use xlink:href="#DejaVuSans-30" x="211.035156"/>
       <use xlink:href="#DejaVuSans-30" x="274.658203"/>
      </g>
     </g>
    </g>
    <g id="ytick_5">
     <g id="line2d_27">
      <path d="M 57.6 151.352986 
L 414.72 151.352986 
" clip-path="url(#p7898305297)" style="fill: none; stroke: #b0b0b0; stroke-width: 0.8; stroke-linecap: square"/>
     </g>
     <g id="line2d_28">
      <g>
       <use xlink:href="#m26658fcd3e" x="57.6" y="151.352986" style="stroke: #000000; stroke-width: 0.8"/>
      </g>
     </g>
     <g id="text_15">
      <!-- −1500 -->
      <g transform="translate(16.770313 155.152205) scale(0.1 -0.1)">
       <use xlink:href="#DejaVuSans-2212"/>
       <use xlink:href="#DejaVuSans-31" x="83.789062"/>
       <use xlink:href="#DejaVuSans-35" x="147.412109"/>
       <use xlink:href="#DejaVuSans-30" x="211.035156"/>
       <use xlink:href="#DejaVuSans-30" x="274.658203"/>
      </g>
     </g>
    </g>
    <g id="ytick_6">
     <g id="line2d_29">
      <path d="M 57.6 118.724098 
L 414.72 118.724098 
" clip-path="url(#p7898305297)" style="fill: none; stroke: #b0b0b0; stroke-width: 0.8; stroke-linecap: square"/>
     </g>
     <g id="line2d_30">
      <g>
       <use xlink:href="#m26658fcd3e" x="57.6" y="118.724098" style="stroke: #000000; stroke-width: 0.8"/>
      </g>
     </g>
     <g id="text_16">
      <!-- −1400 -->
      <g transform="translate(16.770313 122.523317) scale(0.1 -0.1)">
       <defs>
        <path id="DejaVuSans-34" d="M 2419 4116 
L 825 1625 
L 2419 1625 
L 2419 4116 
z
M 2253 4666 
L 3047 4666 
L 3047 1625 
L 3713 1625 
L 3713 1100 
L 3047 1100 
L 3047 0 
L 2419 0 
L 2419 1100 
L 313 1100 
L 313 1709 
L 2253 4666 
z
" transform="scale(0.015625)"/>
       </defs>
       <use xlink:href="#DejaVuSans-2212"/>
       <use xlink:href="#DejaVuSans-31" x="83.789062"/>
       <use xlink:href="#DejaVuSans-34" x="147.412109"/>
       <use xlink:href="#DejaVuSans-30" x="211.035156"/>
       <use xlink:href="#DejaVuSans-30" x="274.658203"/>
      </g>
     </g>
    </g>
    <g id="ytick_7">
     <g id="line2d_31">
      <path d="M 57.6 86.09521 
L 414.72 86.09521 
" clip-path="url(#p7898305297)" style="fill: none; stroke: #b0b0b0; stroke-width: 0.8; stroke-linecap: square"/>
     </g>
     <g id="line2d_32">
      <g>
       <use xlink:href="#m26658fcd3e" x="57.6" y="86.09521" style="stroke: #000000; stroke-width: 0.8"/>
      </g>
     </g>
     <g id="text_17">
      <!-- −1300 -->
      <g transform="translate(16.770313 89.894429) scale(0.1 -0.1)">
       <defs>
        <path id="DejaVuSans-33" d="M 2597 2516 
Q 3050 2419 3304 2112 
Q 3559 1806 3559 1356 
Q 3559 666 3084 287 
Q 2609 -91 1734 -91 
Q 1441 -91 1130 -33 
Q 819 25 488 141 
L 488 750 
Q 750 597 1062 519 
Q 1375 441 1716 441 
Q 2309 441 2620 675 
Q 2931 909 2931 1356 
Q 2931 1769 2642 2001 
Q 2353 2234 1838 2234 
L 1294 2234 
L 1294 2753 
L 1863 2753 
Q 2328 2753 2575 2939 
Q 2822 3125 2822 3475 
Q 2822 3834 2567 4026 
Q 2313 4219 1838 4219 
Q 1578 4219 1281 4162 
Q 984 4106 628 3988 
L 628 4550 
Q 988 4650 1302 4700 
Q 1616 4750 1894 4750 
Q 2613 4750 3031 4423 
Q 3450 4097 3450 3541 
Q 3450 3153 3228 2886 
Q 3006 2619 2597 2516 
z
" transform="scale(0.015625)"/>
       </defs>
       <use xlink:href="#DejaVuSans-2212"/>
       <use xlink:href="#DejaVuSans-31" x="83.789062"/>
       <use xlink:href="#DejaVuSans-33" x="147.412109"/>
       <use xlink:href="#DejaVuSans-30" x="211.035156"/>
       <use xlink:href="#DejaVuSans-30" x="274.658203"/>
      </g>
     </g>
    </g>
    <g id="ytick_8">
     <g id="line2d_33">
      <path d="M 57.6 53.466322 
L 414.72 53.466322 
" clip-path="url(#p7898305297)" style="fill: none; stroke: #b0b0b0; stroke-width: 0.8; stroke-linecap: square"/>
     </g>
     <g id="line2d_34">
      <g>
       <use xlink:href="#m26658fcd3e" x="57.6" y="53.466322" style="stroke: #000000; stroke-width: 0.8"/>
      </g>
     </g>
     <g id="text_18">
      <!-- −1200 -->
      <g transform="translate(16.770313 57.265541) scale(0.1 -0.1)">
       <use xlink:href="#DejaVuSans-2212"/>
       <use xlink:href="#DejaVuSans-31" x="83.789062"/>
       <use xlink:href="#DejaVuSans-32" x="147.412109"/>
       <use xlink:href="#DejaVuSans-30" x="211.035156"/>
       <use xlink:href="#DejaVuSans-30" x="274.658203"/>
      </g>
     </g>
    </g>
    <g id="text_19">
     <!-- Fitness -->
     <g transform="translate(10.690625 191.845187) rotate(-90) scale(0.1 -0.1)">
      <defs>
       <path id="DejaVuSans-46" d="M 628 4666 
L 3309 4666 
L 3309 4134 
L 1259 4134 
L 1259 2759 
L 3109 2759 
L 3109 2228 
L 1259 2228 
L 1259 0 
L 628 0 
L 628 4666 
z
" transform="scale(0.015625)"/>
      </defs>
      <use xlink:href="#DejaVuSans-46"/>
      <use xlink:href="#DejaVuSans-69" x="50.269531"/>
      <use xlink:href="#DejaVuSans-74" x="78.052734"/>
      <use xlink:href="#DejaVuSans-6e" x="117.261719"/>
      <use xlink:href="#DejaVuSans-65" x="180.640625"/>
      <use xlink:href="#DejaVuSans-73" x="242.164062"/>
      <use xlink:href="#DejaVuSans-73" x="294.263672"/>
     </g>
    </g>
   </g>
   <g id="line2d_35">
    <path d="M 73.832727 280.129028 
L 75.464157 274.569075 
L 77.095587 270.024791 
L 80.358447 268.396285 
L 81.989877 266.254875 
L 83.621307 267.233812 
L 85.252736 266.053876 
L 86.884166 265.999922 
L 88.515596 264.534846 
L 91.778456 265.369303 
L 93.409886 263.653462 
L 95.041316 264.027309 
L 96.672746 263.82657 
L 98.304175 264.851642 
L 99.935605 264.905519 
L 101.567035 264.298225 
L 103.198465 264.151775 
L 104.829895 264.621442 
L 106.461325 265.91286 
L 108.092755 264.011989 
L 109.724185 263.845769 
L 111.355614 264.823556 
L 112.987044 265.398284 
L 116.249904 263.003098 
L 117.881334 264.499374 
L 119.512764 264.514865 
L 121.144194 263.009792 
L 122.775624 267.633893 
L 124.407053 264.785701 
L 126.038483 265.424678 
L 127.669913 264.466966 
L 129.301343 265.832974 
L 130.932773 264.016615 
L 132.564203 265.859534 
L 134.195633 263.382382 
L 135.827063 264.957277 
L 137.458492 265.028476 
L 139.089922 263.313861 
L 140.721352 262.880386 
L 142.352782 262.802044 
L 143.984212 262.950956 
L 145.615642 263.940303 
L 147.247072 264.300983 
L 148.878502 264.16628 
L 150.509931 266.408214 
L 152.141361 262.929711 
L 153.772791 264.49973 
L 155.404221 261.881355 
L 157.035651 264.207168 
L 158.667081 262.908447 
L 160.298511 264.844188 
L 161.929941 264.236834 
L 163.56137 264.193567 
L 165.1928 263.76852 
L 166.82423 261.931421 
L 168.45566 266.236468 
L 170.08709 261.678176 
L 171.71852 262.109403 
L 173.34995 263.328547 
L 174.98138 262.504866 
L 176.61281 263.746982 
L 178.244239 263.854984 
L 179.875669 264.298443 
L 181.507099 264.395182 
L 183.138529 263.358568 
L 184.769959 267.066659 
L 186.401389 265.692175 
L 188.032819 263.230401 
L 189.664249 264.127598 
L 191.295678 264.653345 
L 192.927108 262.073936 
L 194.558538 264.036694 
L 196.189968 264.616852 
L 197.821398 262.288881 
L 199.452828 262.391715 
L 201.084258 262.302292 
L 202.715688 265.196657 
L 205.978547 264.916126 
L 207.609977 266.224323 
L 209.241407 264.719092 
L 210.872837 264.189029 
L 212.504267 264.106799 
L 214.135697 263.889898 
L 215.767127 262.367759 
L 217.398556 265.148048 
L 219.029986 262.961703 
L 220.661416 263.43518 
L 223.924276 264.041197 
L 225.555706 262.725861 
L 227.187136 264.553177 
L 228.818566 264.256229 
L 230.449995 265.589135 
L 232.081425 263.677254 
L 233.712855 264.576429 
L 235.344285 264.48508 
L 236.975715 263.500732 
L 238.607145 264.347876 
L 240.238575 264.739532 
L 241.870005 263.971012 
L 243.501434 263.534079 
L 245.132864 264.620552 
L 246.764294 263.442783 
L 248.395724 264.579639 
L 250.027154 262.924016 
L 251.658584 263.687924 
L 253.290014 264.574608 
L 254.921444 263.044543 
L 256.552873 263.388498 
L 258.184303 262.288928 
L 259.815733 263.247662 
L 261.447163 263.954329 
L 263.078593 263.813741 
L 264.710023 265.655052 
L 266.341453 263.02572 
L 267.972883 264.870772 
L 269.604312 262.405676 
L 271.235742 262.838784 
L 272.867172 265.328896 
L 274.498602 264.706141 
L 276.130032 264.510106 
L 277.761462 263.334749 
L 279.392892 263.702215 
L 281.024322 265.416515 
L 282.655751 266.410754 
L 284.287181 265.594723 
L 285.918611 264.356652 
L 287.550041 266.189007 
L 289.181471 264.590602 
L 290.812901 264.337793 
L 292.444331 263.36005 
L 294.075761 263.932283 
L 295.70719 264.763535 
L 297.33862 264.061799 
L 298.97005 265.270869 
L 300.60148 263.699428 
L 302.23291 263.909163 
L 303.86434 263.920579 
L 305.49577 263.376596 
L 307.1272 263.840703 
L 308.75863 264.111782 
L 310.390059 263.680674 
L 312.021489 262.076938 
L 313.652919 262.144961 
L 315.284349 263.790673 
L 316.915779 264.135214 
L 318.547209 262.043328 
L 320.178639 261.412717 
L 321.810069 262.577002 
L 323.441498 261.805996 
L 325.072928 262.760257 
L 326.704358 261.691943 
L 328.335788 261.952708 
L 329.967218 259.633609 
L 331.598648 258.924287 
L 333.230078 261.098779 
L 334.861508 262.133214 
L 336.492937 261.558282 
L 338.124367 262.379441 
L 339.755797 261.497099 
L 341.387227 262.150615 
L 343.018657 263.331443 
L 344.650087 263.282551 
L 346.281517 263.09634 
L 347.912947 264.667351 
L 349.544376 264.907459 
L 351.175806 263.309861 
L 352.807236 260.515722 
L 354.438666 261.783166 
L 356.070096 261.829826 
L 357.701526 261.521524 
L 359.332956 262.646207 
L 360.964386 263.008997 
L 362.595815 260.576173 
L 364.227245 262.079286 
L 367.490105 261.811493 
L 369.121535 263.058418 
L 370.752965 261.396667 
L 372.384395 263.795117 
L 374.015825 262.634706 
L 375.647254 262.111045 
L 377.278684 262.353033 
L 378.910114 263.375776 
L 380.541544 261.221867 
L 382.172974 260.542186 
L 383.804404 260.701723 
L 385.435834 260.712802 
L 387.067264 255.93525 
L 388.698693 262.884685 
L 390.330123 258.798897 
L 391.961553 259.172875 
L 393.592983 260.571984 
L 395.224413 258.46099 
L 396.855843 259.734748 
L 398.487273 259.808317 
L 398.487273 259.808317 
" clip-path="url(#p7898305297)" style="fill: none; stroke: #0000ff; stroke-width: 1.5; stroke-linecap: square"/>
   </g>
   <g id="line2d_36">
    <path d="M 73.832727 295.488 
L 75.464157 291.936962 
L 77.095587 284.318571 
L 78.727017 284.041386 
L 80.358447 283.952045 
L 81.989877 280.461575 
L 83.621307 280.927359 
L 85.252736 278.890084 
L 86.884166 279.013554 
L 88.515596 278.098471 
L 90.147026 278.687559 
L 91.778456 282.002156 
L 93.409886 277.958587 
L 95.041316 278.349523 
L 96.672746 276.922735 
L 98.304175 278.8073 
L 99.935605 278.28845 
L 101.567035 276.533966 
L 103.198465 276.491502 
L 104.829895 277.399865 
L 106.461325 279.314577 
L 108.092755 275.651323 
L 109.724185 275.786516 
L 111.355614 276.459932 
L 112.987044 277.665443 
L 114.618474 277.057193 
L 116.249904 274.967138 
L 117.881334 277.524576 
L 119.512764 279.347819 
L 121.144194 273.689066 
L 122.775624 282.647722 
L 124.407053 277.05694 
L 126.038483 278.292543 
L 127.669913 276.397661 
L 129.301343 279.512675 
L 130.932773 276.327796 
L 132.564203 280.347821 
L 134.195633 278.768841 
L 135.827063 278.897974 
L 137.458492 277.763385 
L 139.089922 274.770936 
L 140.721352 274.246988 
L 142.352782 273.502656 
L 143.984212 273.884852 
L 145.615642 275.46833 
L 147.247072 276.081116 
L 148.878502 278.838304 
L 150.509931 280.834811 
L 152.141361 275.530511 
L 153.772791 278.531758 
L 155.404221 271.766604 
L 157.035651 276.948638 
L 158.667081 274.814976 
L 160.298511 276.974732 
L 161.929941 278.740697 
L 163.56137 276.825267 
L 165.1928 275.082512 
L 166.82423 278.807375 
L 168.45566 285.005534 
L 170.08709 276.562982 
L 171.71852 278.828314 
L 173.34995 279.497689 
L 174.98138 277.688669 
L 176.61281 281.20761 
L 178.244239 280.063645 
L 179.875669 280.455734 
L 181.507099 279.848748 
L 183.138529 283.826059 
L 184.769959 286.508332 
L 186.401389 283.031514 
L 188.032819 279.143045 
L 189.664249 280.422934 
L 191.295678 281.307354 
L 192.927108 276.941702 
L 194.558538 280.617248 
L 196.189968 281.303541 
L 197.821398 279.247929 
L 199.452828 277.846625 
L 201.084258 277.398461 
L 202.715688 280.598532 
L 204.347117 281.002837 
L 205.978547 280.601095 
L 207.609977 282.033638 
L 209.241407 280.026253 
L 210.872837 281.352334 
L 212.504267 278.904341 
L 214.135697 278.959295 
L 215.767127 276.856058 
L 217.398556 281.202732 
L 219.029986 277.372168 
L 220.661416 277.985554 
L 222.292846 278.778934 
L 223.924276 278.998786 
L 225.555706 276.856243 
L 227.187136 280.328096 
L 228.818566 280.919092 
L 230.449995 282.096985 
L 232.081425 278.563027 
L 233.712855 279.596931 
L 235.344285 280.078778 
L 236.975715 278.105551 
L 238.607145 279.199684 
L 240.238575 279.879802 
L 241.870005 278.39272 
L 243.501434 277.777725 
L 245.132864 281.537796 
L 246.764294 277.934645 
L 248.395724 279.753628 
L 250.027154 276.976838 
L 251.658584 278.124576 
L 253.290014 279.661821 
L 254.921444 277.570346 
L 256.552873 278.168321 
L 258.184303 277.315291 
L 259.815733 277.674799 
L 263.078593 279.522625 
L 264.710023 281.385027 
L 266.341453 277.518982 
L 267.972883 281.580469 
L 269.604312 276.126156 
L 271.235742 279.023442 
L 272.867172 280.937375 
L 276.130032 280.216703 
L 277.761462 277.800714 
L 279.392892 278.173723 
L 281.024322 280.733107 
L 282.655751 283.777452 
L 284.287181 281.308354 
L 285.918611 279.774894 
L 287.550041 285.314338 
L 289.181471 280.869186 
L 290.812901 281.145155 
L 292.444331 279.17444 
L 294.075761 279.777734 
L 295.70719 281.742906 
L 297.33862 279.945585 
L 298.97005 283.642652 
L 300.60148 281.839459 
L 302.23291 279.494634 
L 303.86434 279.588501 
L 305.49577 278.506931 
L 307.1272 279.874763 
L 308.75863 280.103709 
L 310.390059 279.363306 
L 312.021489 277.980592 
L 313.652919 277.929027 
L 315.284349 279.6227 
L 316.915779 280.316158 
L 318.547209 277.137538 
L 320.178639 287.680541 
L 321.810069 288.255072 
L 323.441498 287.151466 
L 325.072928 288.448246 
L 326.704358 286.884586 
L 328.335788 287.550071 
L 329.967218 286.09644 
L 331.598648 292.354165 
L 333.230078 288.652737 
L 334.861508 288.669861 
L 336.492937 287.576431 
L 338.124367 288.738173 
L 339.755797 288.900466 
L 341.387227 288.238958 
L 343.018657 290.152155 
L 344.650087 290.044035 
L 346.281517 288.899243 
L 347.912947 291.176057 
L 349.544376 290.552905 
L 351.175806 290.275934 
L 352.807236 285.1199 
L 354.438666 287.807938 
L 356.070096 287.670435 
L 357.701526 286.252502 
L 359.332956 286.832429 
L 360.964386 287.994714 
L 362.595815 289.442497 
L 364.227245 286.894154 
L 365.858675 285.671227 
L 367.490105 285.191217 
L 369.121535 286.16465 
L 370.752965 285.087662 
L 372.384395 288.304409 
L 374.015825 286.507268 
L 375.647254 286.159679 
L 378.910114 289.953025 
L 380.541544 287.088875 
L 382.172974 286.220325 
L 383.804404 287.946576 
L 385.435834 286.87098 
L 387.067264 293.807038 
L 388.698693 293.050803 
L 390.330123 290.117011 
L 391.961553 290.523736 
L 393.592983 291.964189 
L 395.224413 289.123534 
L 396.855843 291.205095 
L 398.487273 290.837101 
L 398.487273 290.837101 
" clip-path="url(#p7898305297)" style="fill: none; stroke-dasharray: 9.6,2.4,1.5,2.4; stroke-dashoffset: 0; stroke: #008000; stroke-width: 1.5"/>
   </g>
   <g id="line2d_37">
    <path d="M 73.832727 264.770056 
L 75.464157 257.201188 
L 80.358447 252.840525 
L 81.989877 252.048175 
L 83.621307 253.540265 
L 86.884166 252.986289 
L 88.515596 250.971221 
L 90.147026 251.325901 
L 91.778456 248.736449 
L 93.409886 249.348338 
L 95.041316 249.705095 
L 96.672746 250.730404 
L 98.304175 250.895984 
L 101.567035 252.062483 
L 103.198465 251.812047 
L 104.829895 251.843019 
L 106.461325 252.511144 
L 108.092755 252.372655 
L 109.724185 251.905021 
L 111.355614 253.187181 
L 112.987044 253.131124 
L 114.618474 251.365413 
L 116.249904 251.039057 
L 117.881334 251.474172 
L 119.512764 249.681911 
L 121.144194 252.330518 
L 122.775624 252.620064 
L 124.407053 252.514462 
L 127.669913 252.536271 
L 132.564203 251.371247 
L 134.195633 247.995922 
L 135.827063 251.01658 
L 137.458492 252.293568 
L 140.721352 251.513784 
L 142.352782 252.101432 
L 143.984212 252.01706 
L 145.615642 252.412276 
L 147.247072 252.520849 
L 148.878502 249.494255 
L 150.509931 251.981617 
L 152.141361 250.32891 
L 153.772791 250.467701 
L 155.404221 251.996105 
L 158.667081 251.001918 
L 160.298511 252.713645 
L 161.929941 249.732972 
L 163.56137 251.561868 
L 165.1928 252.454527 
L 166.82423 245.055468 
L 168.45566 247.467402 
L 170.08709 246.79337 
L 171.71852 245.390493 
L 173.34995 247.159404 
L 174.98138 247.321062 
L 176.61281 246.286354 
L 178.244239 247.646323 
L 179.875669 248.141152 
L 181.507099 248.941616 
L 183.138529 242.891077 
L 184.769959 247.624986 
L 186.401389 248.352837 
L 188.032819 247.317758 
L 189.664249 247.832262 
L 191.295678 247.999337 
L 192.927108 247.206169 
L 194.558538 247.45614 
L 196.189968 247.930164 
L 197.821398 245.329833 
L 199.452828 246.936805 
L 201.084258 247.206124 
L 202.715688 249.794782 
L 204.347117 249.125807 
L 205.978547 249.231157 
L 207.609977 250.415008 
L 209.241407 249.41193 
L 210.872837 247.025724 
L 212.504267 249.309257 
L 214.135697 248.820501 
L 215.767127 247.87946 
L 217.398556 249.093364 
L 219.029986 248.551237 
L 220.661416 248.884807 
L 222.292846 248.730069 
L 223.924276 249.083608 
L 225.555706 248.595479 
L 227.187136 248.778258 
L 228.818566 247.593366 
L 230.449995 249.081285 
L 232.081425 248.791482 
L 233.712855 249.555927 
L 235.344285 248.891382 
L 236.975715 248.895913 
L 238.607145 249.496068 
L 240.238575 249.599261 
L 241.870005 249.549304 
L 243.501434 249.290432 
L 245.132864 247.703307 
L 246.764294 248.950921 
L 248.395724 249.40565 
L 250.027154 248.871194 
L 251.658584 249.251272 
L 253.290014 249.487394 
L 254.921444 248.518741 
L 256.552873 248.608675 
L 258.184303 247.262564 
L 259.815733 248.820525 
L 261.447163 249.356517 
L 263.078593 248.104857 
L 264.710023 249.925077 
L 266.341453 248.532459 
L 267.972883 248.161076 
L 269.604312 248.685197 
L 271.235742 246.654126 
L 272.867172 249.720416 
L 274.498602 248.805152 
L 277.761462 248.868784 
L 279.392892 249.230707 
L 281.024322 250.099923 
L 282.655751 249.044057 
L 284.287181 249.881093 
L 285.918611 248.938411 
L 287.550041 247.063676 
L 289.181471 248.312017 
L 290.812901 247.530431 
L 292.444331 247.54566 
L 294.075761 248.086832 
L 295.70719 247.784164 
L 297.33862 248.178013 
L 300.60148 245.559398 
L 302.23291 248.323691 
L 305.49577 248.246261 
L 307.1272 247.806644 
L 308.75863 248.119856 
L 310.390059 247.998042 
L 312.021489 246.173284 
L 313.652919 246.360894 
L 315.284349 247.958647 
L 316.915779 247.95427 
L 318.547209 246.949118 
L 320.178639 235.144892 
L 321.810069 236.898931 
L 323.441498 236.460527 
L 325.072928 237.072268 
L 326.704358 236.4993 
L 328.335788 236.355345 
L 329.967218 233.170778 
L 331.598648 225.49441 
L 333.230078 233.544821 
L 334.861508 235.596567 
L 336.492937 235.540134 
L 338.124367 236.02071 
L 339.755797 234.093732 
L 341.387227 236.062272 
L 343.018657 236.510732 
L 344.650087 236.521068 
L 347.912947 238.158646 
L 349.544376 239.262012 
L 351.175806 236.343788 
L 352.807236 235.911543 
L 354.438666 235.758395 
L 356.070096 235.989217 
L 357.701526 236.790545 
L 359.332956 238.459985 
L 360.964386 238.023281 
L 362.595815 231.709849 
L 364.227245 237.264419 
L 365.858675 238.154595 
L 367.490105 238.43177 
L 369.121535 239.952187 
L 370.752965 237.705673 
L 372.384395 239.285825 
L 374.015825 238.762143 
L 375.647254 238.062412 
L 377.278684 236.657212 
L 378.910114 236.798527 
L 380.541544 235.35486 
L 382.172974 234.864046 
L 383.804404 233.45687 
L 385.435834 234.554624 
L 387.067264 218.063463 
L 388.698693 232.718566 
L 390.330123 227.480783 
L 391.961553 227.822014 
L 393.592983 229.179778 
L 395.224413 227.798446 
L 398.487273 228.779533 
L 398.487273 228.779533 
" clip-path="url(#p7898305297)" style="fill: none; stroke-dasharray: 9.6,2.4,1.5,2.4; stroke-dashoffset: 0; stroke: #008000; stroke-width: 1.5"/>
   </g>
   <g id="line2d_38">
    <path d="M 73.832727 207.33437 
L 80.358447 207.33437 
L 81.989877 204.678378 
L 165.1928 204.678378 
L 166.82423 141.917241 
L 318.547209 141.917241 
L 320.178639 53.568 
L 398.487273 53.568 
L 398.487273 53.568 
" clip-path="url(#p7898305297)" style="fill: none; stroke: #ff0000; stroke-width: 1.5; stroke-linecap: square"/>
   </g>
   <g id="patch_3">
    <path d="M 57.6 307.584 
L 57.6 41.472 
" style="fill: none; stroke: #000000; stroke-width: 0.8; stroke-linejoin: miter; stroke-linecap: square"/>
   </g>
   <g id="patch_4">
    <path d="M 414.72 307.584 
L 414.72 41.472 
" style="fill: none; stroke: #000000; stroke-width: 0.8; stroke-linejoin: miter; stroke-linecap: square"/>
   </g>
   <g id="patch_5">
    <path d="M 57.6 307.584 
L 414.72 307.584 
" style="fill: none; stroke: #000000; stroke-width: 0.8; stroke-linejoin: miter; stroke-linecap: square"/>
   </g>
   <g id="patch_6">
    <path d="M 57.6 41.472 
L 414.72 41.472 
" style="fill: none; stroke: #000000; stroke-width: 0.8; stroke-linejoin: miter; stroke-linecap: square"/>
   </g>
   <g id="text_20">
    <!-- Population's average and best fitness -->
    <g transform="translate(123.529687 35.472) scale(0.12 -0.12)">
     <defs>
      <path id="DejaVuSans-50" d="M 1259 4147 
L 1259 2394 
L 2053 2394 
Q 2494 2394 2734 2622 
Q 2975 2850 2975 3272 
Q 2975 3691 2734 3919 
Q 2494 4147 2053 4147 
L 1259 4147 
z
M 628 4666 
L 2053 4666 
Q 2838 4666 3239 4311 
Q 3641 3956 3641 3272 
Q 3641 2581 3239 2228 
Q 2838 1875 2053 1875 
L 1259 1875 
L 1259 0 
L 628 0 
L 628 4666 
z
" transform="scale(0.015625)"/>
      <path id="DejaVuSans-70" d="M 1159 525 
L 1159 -1331 
L 581 -1331 
L 581 3500 
L 1159 3500 
L 1159 2969 
Q 1341 3281 1617 3432 
Q 1894 3584 2278 3584 
Q 2916 3584 3314 3078 
Q 3713 2572 3713 1747 
Q 3713 922 3314 415 
Q 2916 -91 2278 -91 
Q 1894 -91 1617 61 
Q 1341 213 1159 525 
z
M 3116 1747 
Q 3116 2381 2855 2742 
Q 2594 3103 2138 3103 
Q 1681 3103 1420 2742 
Q 1159 2381 1159 1747 
Q 1159 1113 1420 752 
Q 1681 391 2138 391 
Q 2594 391 2855 752 
Q 3116 1113 3116 1747 
z
" transform="scale(0.015625)"/>
      <path id="DejaVuSans-75" d="M 544 1381 
L 544 3500 
L 1119 3500 
L 1119 1403 
Q 1119 906 1312 657 
Q 1506 409 1894 409 
Q 2359 409 2629 706 
Q 2900 1003 2900 1516 
L 2900 3500 
L 3475 3500 
L 3475 0 
L 2900 0 
L 2900 538 
Q 2691 219 2414 64 
Q 2138 -91 1772 -91 
Q 1169 -91 856 284 
Q 544 659 544 1381 
z
M 1991 3584 
L 1991 3584 
z
" transform="scale(0.015625)"/>
      <path id="DejaVuSans-6c" d="M 603 4863 
L 1178 4863 
L 1178 0 
L 603 0 
L 603 4863 
z
" transform="scale(0.015625)"/>
      <path id="DejaVuSans-27" d="M 1147 4666 
L 1147 2931 
L 616 2931 
L 616 4666 
L 1147 4666 
z
" transform="scale(0.015625)"/>
      <path id="DejaVuSans-20" transform="scale(0.015625)"/>
      <path id="DejaVuSans-76" d="M 191 3500 
L 800 3500 
L 1894 563 
L 2988 3500 
L 3597 3500 
L 2284 0 
L 1503 0 
L 191 3500 
z
" transform="scale(0.015625)"/>
      <path id="DejaVuSans-67" d="M 2906 1791 
Q 2906 2416 2648 2759 
Q 2391 3103 1925 3103 
Q 1463 3103 1205 2759 
Q 947 2416 947 1791 
Q 947 1169 1205 825 
Q 1463 481 1925 481 
Q 2391 481 2648 825 
Q 2906 1169 2906 1791 
z
M 3481 434 
Q 3481 -459 3084 -895 
Q 2688 -1331 1869 -1331 
Q 1566 -1331 1297 -1286 
Q 1028 -1241 775 -1147 
L 775 -588 
Q 1028 -725 1275 -790 
Q 1522 -856 1778 -856 
Q 2344 -856 2625 -561 
Q 2906 -266 2906 331 
L 2906 616 
Q 2728 306 2450 153 
Q 2172 0 1784 0 
Q 1141 0 747 490 
Q 353 981 353 1791 
Q 353 2603 747 3093 
Q 1141 3584 1784 3584 
Q 2172 3584 2450 3431 
Q 2728 3278 2906 2969 
L 2906 3500 
L 3481 3500 
L 3481 434 
z
" transform="scale(0.015625)"/>
      <path id="DejaVuSans-64" d="M 2906 2969 
L 2906 4863 
L 3481 4863 
L 3481 0 
L 2906 0 
L 2906 525 
Q 2725 213 2448 61 
Q 2172 -91 1784 -91 
Q 1150 -91 751 415 
Q 353 922 353 1747 
Q 353 2572 751 3078 
Q 1150 3584 1784 3584 
Q 2172 3584 2448 3432 
Q 2725 3281 2906 2969 
z
M 947 1747 
Q 947 1113 1208 752 
Q 1469 391 1925 391 
Q 2381 391 2643 752 
Q 2906 1113 2906 1747 
Q 2906 2381 2643 2742 
Q 2381 3103 1925 3103 
Q 1469 3103 1208 2742 
Q 947 2381 947 1747 
z
" transform="scale(0.015625)"/>
      <path id="DejaVuSans-62" d="M 3116 1747 
Q 3116 2381 2855 2742 
Q 2594 3103 2138 3103 
Q 1681 3103 1420 2742 
Q 1159 2381 1159 1747 
Q 1159 1113 1420 752 
Q 1681 391 2138 391 
Q 2594 391 2855 752 
Q 3116 1113 3116 1747 
z
M 1159 2969 
Q 1341 3281 1617 3432 
Q 1894 3584 2278 3584 
Q 2916 3584 3314 3078 
Q 3713 2572 3713 1747 
Q 3713 922 3314 415 
Q 2916 -91 2278 -91 
Q 1894 -91 1617 61 
Q 1341 213 1159 525 
L 1159 0 
L 581 0 
L 581 4863 
L 1159 4863 
L 1159 2969 
z
" transform="scale(0.015625)"/>
      <path id="DejaVuSans-66" d="M 2375 4863 
L 2375 4384 
L 1825 4384 
Q 1516 4384 1395 4259 
Q 1275 4134 1275 3809 
L 1275 3500 
L 2222 3500 
L 2222 3053 
L 1275 3053 
L 1275 0 
L 697 0 
L 697 3053 
L 147 3053 
L 147 3500 
L 697 3500 
L 697 3744 
Q 697 4328 969 4595 
Q 1241 4863 1831 4863 
L 2375 4863 
z
" transform="scale(0.015625)"/>
     </defs>
     <use xlink:href="#DejaVuSans-50"/>
     <use xlink:href="#DejaVuSans-6f" x="56.677734"/>
     <use xlink:href="#DejaVuSans-70" x="117.859375"/>
     <use xlink:href="#DejaVuSans-75" x="181.335938"/>
     <use xlink:href="#DejaVuSans-6c" x="244.714844"/>
     <use xlink:href="#DejaVuSans-61" x="272.498047"/>
     <use xlink:href="#DejaVuSans-74" x="333.777344"/>
     <use xlink:href="#DejaVuSans-69" x="372.986328"/>
     <use xlink:href="#DejaVuSans-6f" x="400.769531"/>
     <use xlink:href="#DejaVuSans-6e" x="461.951172"/>
     <use xlink:href="#DejaVuSans-27" x="525.330078"/>
     <use xlink:href="#DejaVuSans-73" x="552.820312"/>
     <use xlink:href="#DejaVuSans-20" x="604.919922"/>
     <use xlink:href="#DejaVuSans-61" x="636.707031"/>
     <use xlink:href="#DejaVuSans-76" x="697.986328"/>
     <use xlink:href="#DejaVuSans-65" x="757.166016"/>
     <use xlink:href="#DejaVuSans-72" x="818.689453"/>
     <use xlink:href="#DejaVuSans-61" x="859.802734"/>
     <use xlink:href="#DejaVuSans-67" x="921.082031"/>
     <use xlink:href="#DejaVuSans-65" x="984.558594"/>
     <use xlink:href="#DejaVuSans-20" x="1046.082031"/>
     <use xlink:href="#DejaVuSans-61" x="1077.869141"/>
     <use xlink:href="#DejaVuSans-6e" x="1139.148438"/>
     <use xlink:href="#DejaVuSans-64" x="1202.527344"/>
     <use xlink:href="#DejaVuSans-20" x="1266.003906"/>
     <use xlink:href="#DejaVuSans-62" x="1297.791016"/>
     <use xlink:href="#DejaVuSans-65" x="1361.267578"/>
     <use xlink:href="#DejaVuSans-73" x="1422.791016"/>
     <use xlink:href="#DejaVuSans-74" x="1474.890625"/>
     <use xlink:href="#DejaVuSans-20" x="1514.099609"/>
     <use xlink:href="#DejaVuSans-66" x="1545.886719"/>
     <use xlink:href="#DejaVuSans-69" x="1581.091797"/>
     <use xlink:href="#DejaVuSans-74" x="1608.875"/>
     <use xlink:href="#DejaVuSans-6e" x="1648.083984"/>
     <use xlink:href="#DejaVuSans-65" x="1711.462891"/>
     <use xlink:href="#DejaVuSans-73" x="1772.986328"/>
     <use xlink:href="#DejaVuSans-73" x="1825.085938"/>
    </g>
   </g>
   <g id="legend_1">
    <g id="patch_7">
     <path d="M 64.6 108.1845 
L 137.540625 108.1845 
Q 139.540625 108.1845 139.540625 106.1845 
L 139.540625 48.472 
Q 139.540625 46.472 137.540625 46.472 
L 64.6 46.472 
Q 62.6 46.472 62.6 48.472 
L 62.6 106.1845 
Q 62.6 108.1845 64.6 108.1845 
z
" style="fill: #ffffff; opacity: 0.8; stroke: #cccccc; stroke-linejoin: miter"/>
    </g>
    <g id="line2d_39">
     <path d="M 66.6 54.570438 
L 76.6 54.570438 
L 86.6 54.570438 
" style="fill: none; stroke: #0000ff; stroke-width: 1.5; stroke-linecap: square"/>
    </g>
    <g id="text_21">
     <!-- average -->
     <g transform="translate(94.6 58.070438) scale(0.1 -0.1)">
      <use xlink:href="#DejaVuSans-61"/>
      <use xlink:href="#DejaVuSans-76" x="61.279297"/>
      <use xlink:href="#DejaVuSans-65" x="120.458984"/>
      <use xlink:href="#DejaVuSans-72" x="181.982422"/>
      <use xlink:href="#DejaVuSans-61" x="223.095703"/>
      <use xlink:href="#DejaVuSans-67" x="284.375"/>
      <use xlink:href="#DejaVuSans-65" x="347.851562"/>
     </g>
    </g>
    <g id="line2d_40">
     <path d="M 66.6 69.248563 
L 76.6 69.248563 
L 86.6 69.248563 
" style="fill: none; stroke-dasharray: 9.6,2.4,1.5,2.4; stroke-dashoffset: 0; stroke: #008000; stroke-width: 1.5"/>
    </g>
    <g id="text_22">
     <!-- -1 sd -->
     <g transform="translate(94.6 72.748563) scale(0.1 -0.1)">
      <defs>
       <path id="DejaVuSans-2d" d="M 313 2009 
L 1997 2009 
L 1997 1497 
L 313 1497 
L 313 2009 
z
" transform="scale(0.015625)"/>
      </defs>
      <use xlink:href="#DejaVuSans-2d"/>
      <use xlink:href="#DejaVuSans-31" x="36.083984"/>
      <use xlink:href="#DejaVuSans-20" x="99.707031"/>
      <use xlink:href="#DejaVuSans-73" x="131.494141"/>
      <use xlink:href="#DejaVuSans-64" x="183.59375"/>
     </g>
    </g>
    <g id="line2d_41">
     <path d="M 66.6 83.926688 
L 76.6 83.926688 
L 86.6 83.926688 
" style="fill: none; stroke-dasharray: 9.6,2.4,1.5,2.4; stroke-dashoffset: 0; stroke: #008000; stroke-width: 1.5"/>
    </g>
    <g id="text_23">
     <!-- +1 sd -->
     <g transform="translate(94.6 87.426688) scale(0.1 -0.1)">
      <defs>
       <path id="DejaVuSans-2b" d="M 2944 4013 
L 2944 2272 
L 4684 2272 
L 4684 1741 
L 2944 1741 
L 2944 0 
L 2419 0 
L 2419 1741 
L 678 1741 
L 678 2272 
L 2419 2272 
L 2419 4013 
L 2944 4013 
z
" transform="scale(0.015625)"/>
      </defs>
      <use xlink:href="#DejaVuSans-2b"/>
      <use xlink:href="#DejaVuSans-31" x="83.789062"/>
      <use xlink:href="#DejaVuSans-20" x="147.412109"/>
      <use xlink:href="#DejaVuSans-73" x="179.199219"/>
      <use xlink:href="#DejaVuSans-64" x="231.298828"/>
     </g>
    </g>
    <g id="line2d_42">
     <path d="M 66.6 98.604813 
L 76.6 98.604813 
L 86.6 98.604813 
" style="fill: none; stroke: #ff0000; stroke-width: 1.5; stroke-linecap: square"/>
    </g>
    <g id="text_24">
     <!-- best -->
     <g transform="translate(94.6 102.104813) scale(0.1 -0.1)">
      <use xlink:href="#DejaVuSans-62"/>
      <use xlink:href="#DejaVuSans-65" x="63.476562"/>
      <use xlink:href="#DejaVuSans-73" x="125"/>
      <use xlink:href="#DejaVuSans-74" x="177.099609"/>
     </g>
    </g>
   </g>
  </g>
 </g>
 <defs>
  <clipPath id="p7898305297">
   <rect x="57.6" y="41.472" width="357.12" height="266.112"/>
  </clipPath>
 </defs>
</svg>
