<?xml version="1.0" encoding="utf-8" standalone="no"?>
<!DOCTYPE svg PUBLIC "-//W3C//DTD SVG 1.1//EN"
  "http://www.w3.org/Graphics/SVG/1.1/DTD/svg11.dtd">
<svg xmlns:xlink="http://www.w3.org/1999/xlink" width="460.8pt" height="345.6pt" viewBox="0 0 460.8 345.6" xmlns="http://www.w3.org/2000/svg" version="1.1">
 <metadata>
  <rdf:RDF xmlns:dc="http://purl.org/dc/elements/1.1/" xmlns:cc="http://creativecommons.org/ns#" xmlns:rdf="http://www.w3.org/1999/02/22-rdf-syntax-ns#">
   <cc:Work>
    <dc:type rdf:resource="http://purl.org/dc/dcmitype/StillImage"/>
    <dc:date>2024-08-13T09:01:46.226902</dc:date>
    <dc:format>image/svg+xml</dc:format>
    <dc:creator>
     <cc:Agent>
      <dc:title>Matplotlib v3.8.4, https://matplotlib.org/</dc:title>
     </cc:Agent>
    </dc:creator>
   </cc:Work>
  </rdf:RDF>
 </metadata>
 <defs>
  <style type="text/css">*{stroke-linejoin: round; stroke-linecap: butt}</style>
 </defs>
 <g id="figure_1">
  <g id="patch_1">
   <path d="M 0 345.6 
L 460.8 345.6 
L 460.8 0 
L 0 0 
z
" style="fill: #ffffff"/>
  </g>
  <g id="axes_1">
   <g id="patch_2">
    <path d="M 57.6 307.584 
L 414.72 307.584 
L 414.72 41.472 
L 57.6 41.472 
z
" style="fill: #ffffff"/>
   </g>
   <g id="matplotlib.axis_1">
    <g id="xtick_1">
     <g id="line2d_1">
      <path d="M 73.832727 307.584 
L 73.832727 41.472 
" clip-path="url(#p1b88e6a1e8)" style="fill: none; stroke: #b0b0b0; stroke-width: 0.8; stroke-linecap: square"/>
     </g>
     <g id="line2d_2">
      <defs>
       <path id="m779579191e" d="M 0 0 
L 0 3.5 
" style="stroke: #000000; stroke-width: 0.8"/>
      </defs>
      <g>
       <use xlink:href="#m779579191e" x="73.832727" y="307.584" style="stroke: #000000; stroke-width: 0.8"/>
      </g>
     </g>
     <g id="text_1">
      <!-- 0 -->
      <g transform="translate(70.651477 322.182437) scale(0.1 -0.1)">
       <defs>
        <path id="DejaVuSans-30" d="M 2034 4250 
Q 1547 4250 1301 3770 
Q 1056 3291 1056 2328 
Q 1056 1369 1301 889 
Q 1547 409 2034 409 
Q 2525 409 2770 889 
Q 3016 1369 3016 2328 
Q 3016 3291 2770 3770 
Q 2525 4250 2034 4250 
z
M 2034 4750 
Q 2819 4750 3233 4129 
Q 3647 3509 3647 2328 
Q 3647 1150 3233 529 
Q 2819 -91 2034 -91 
Q 1250 -91 836 529 
Q 422 1150 422 2328 
Q 422 3509 836 4129 
Q 1250 4750 2034 4750 
z
" transform="scale(0.015625)"/>
       </defs>
       <use xlink:href="#DejaVuSans-30"/>
      </g>
     </g>
    </g>
    <g id="xtick_2">
     <g id="line2d_3">
      <path d="M 139.419504 307.584 
L 139.419504 41.472 
" clip-path="url(#p1b88e6a1e8)" style="fill: none; stroke: #b0b0b0; stroke-width: 0.8; stroke-linecap: square"/>
     </g>
     <g id="line2d_4">
      <g>
       <use xlink:href="#m779579191e" x="139.419504" y="307.584" style="stroke: #000000; stroke-width: 0.8"/>
      </g>
     </g>
     <g id="text_2">
      <!-- 20 -->
      <g transform="translate(133.057004 322.182437) scale(0.1 -0.1)">
       <defs>
        <path id="DejaVuSans-32" d="M 1228 531 
L 3431 531 
L 3431 0 
L 469 0 
L 469 531 
Q 828 903 1448 1529 
Q 2069 2156 2228 2338 
Q 2531 2678 2651 2914 
Q 2772 3150 2772 3378 
Q 2772 3750 2511 3984 
Q 2250 4219 1831 4219 
Q 1534 4219 1204 4116 
Q 875 4013 500 3803 
L 500 4441 
Q 881 4594 1212 4672 
Q 1544 4750 1819 4750 
Q 2544 4750 2975 4387 
Q 3406 4025 3406 3419 
Q 3406 3131 3298 2873 
Q 3191 2616 2906 2266 
Q 2828 2175 2409 1742 
Q 1991 1309 1228 531 
z
" transform="scale(0.015625)"/>
       </defs>
       <use xlink:href="#DejaVuSans-32"/>
       <use xlink:href="#DejaVuSans-30" x="63.623047"/>
      </g>
     </g>
    </g>
    <g id="xtick_3">
     <g id="line2d_5">
      <path d="M 205.006281 307.584 
L 205.006281 41.472 
" clip-path="url(#p1b88e6a1e8)" style="fill: none; stroke: #b0b0b0; stroke-width: 0.8; stroke-linecap: square"/>
     </g>
     <g id="line2d_6">
      <g>
       <use xlink:href="#m779579191e" x="205.006281" y="307.584" style="stroke: #000000; stroke-width: 0.8"/>
      </g>
     </g>
     <g id="text_3">
      <!-- 40 -->
      <g transform="translate(198.643781 322.182437) scale(0.1 -0.1)">
       <defs>
        <path id="DejaVuSans-34" d="M 2419 4116 
L 825 1625 
L 2419 1625 
L 2419 4116 
z
M 2253 4666 
L 3047 4666 
L 3047 1625 
L 3713 1625 
L 3713 1100 
L 3047 1100 
L 3047 0 
L 2419 0 
L 2419 1100 
L 313 1100 
L 313 1709 
L 2253 4666 
z
" transform="scale(0.015625)"/>
       </defs>
       <use xlink:href="#DejaVuSans-34"/>
       <use xlink:href="#DejaVuSans-30" x="63.623047"/>
      </g>
     </g>
    </g>
    <g id="xtick_4">
     <g id="line2d_7">
      <path d="M 270.593058 307.584 
L 270.593058 41.472 
" clip-path="url(#p1b88e6a1e8)" style="fill: none; stroke: #b0b0b0; stroke-width: 0.8; stroke-linecap: square"/>
     </g>
     <g id="line2d_8">
      <g>
       <use xlink:href="#m779579191e" x="270.593058" y="307.584" style="stroke: #000000; stroke-width: 0.8"/>
      </g>
     </g>
     <g id="text_4">
      <!-- 60 -->
      <g transform="translate(264.230558 322.182437) scale(0.1 -0.1)">
       <defs>
        <path id="DejaVuSans-36" d="M 2113 2584 
Q 1688 2584 1439 2293 
Q 1191 2003 1191 1497 
Q 1191 994 1439 701 
Q 1688 409 2113 409 
Q 2538 409 2786 701 
Q 3034 994 3034 1497 
Q 3034 2003 2786 2293 
Q 2538 2584 2113 2584 
z
M 3366 4563 
L 3366 3988 
Q 3128 4100 2886 4159 
Q 2644 4219 2406 4219 
Q 1781 4219 1451 3797 
Q 1122 3375 1075 2522 
Q 1259 2794 1537 2939 
Q 1816 3084 2150 3084 
Q 2853 3084 3261 2657 
Q 3669 2231 3669 1497 
Q 3669 778 3244 343 
Q 2819 -91 2113 -91 
Q 1303 -91 875 529 
Q 447 1150 447 2328 
Q 447 3434 972 4092 
Q 1497 4750 2381 4750 
Q 2619 4750 2861 4703 
Q 3103 4656 3366 4563 
z
" transform="scale(0.015625)"/>
       </defs>
       <use xlink:href="#DejaVuSans-36"/>
       <use xlink:href="#DejaVuSans-30" x="63.623047"/>
      </g>
     </g>
    </g>
    <g id="xtick_5">
     <g id="line2d_9">
      <path d="M 336.179835 307.584 
L 336.179835 41.472 
" clip-path="url(#p1b88e6a1e8)" style="fill: none; stroke: #b0b0b0; stroke-width: 0.8; stroke-linecap: square"/>
     </g>
     <g id="line2d_10">
      <g>
       <use xlink:href="#m779579191e" x="336.179835" y="307.584" style="stroke: #000000; stroke-width: 0.8"/>
      </g>
     </g>
     <g id="text_5">
      <!-- 80 -->
      <g transform="translate(329.817335 322.182437) scale(0.1 -0.1)">
       <defs>
        <path id="DejaVuSans-38" d="M 2034 2216 
Q 1584 2216 1326 1975 
Q 1069 1734 1069 1313 
Q 1069 891 1326 650 
Q 1584 409 2034 409 
Q 2484 409 2743 651 
Q 3003 894 3003 1313 
Q 3003 1734 2745 1975 
Q 2488 2216 2034 2216 
z
M 1403 2484 
Q 997 2584 770 2862 
Q 544 3141 544 3541 
Q 544 4100 942 4425 
Q 1341 4750 2034 4750 
Q 2731 4750 3128 4425 
Q 3525 4100 3525 3541 
Q 3525 3141 3298 2862 
Q 3072 2584 2669 2484 
Q 3125 2378 3379 2068 
Q 3634 1759 3634 1313 
Q 3634 634 3220 271 
Q 2806 -91 2034 -91 
Q 1263 -91 848 271 
Q 434 634 434 1313 
Q 434 1759 690 2068 
Q 947 2378 1403 2484 
z
M 1172 3481 
Q 1172 3119 1398 2916 
Q 1625 2713 2034 2713 
Q 2441 2713 2670 2916 
Q 2900 3119 2900 3481 
Q 2900 3844 2670 4047 
Q 2441 4250 2034 4250 
Q 1625 4250 1398 4047 
Q 1172 3844 1172 3481 
z
" transform="scale(0.015625)"/>
       </defs>
       <use xlink:href="#DejaVuSans-38"/>
       <use xlink:href="#DejaVuSans-30" x="63.623047"/>
      </g>
     </g>
    </g>
    <g id="xtick_6">
     <g id="line2d_11">
      <path d="M 401.766612 307.584 
L 401.766612 41.472 
" clip-path="url(#p1b88e6a1e8)" style="fill: none; stroke: #b0b0b0; stroke-width: 0.8; stroke-linecap: square"/>
     </g>
     <g id="line2d_12">
      <g>
       <use xlink:href="#m779579191e" x="401.766612" y="307.584" style="stroke: #000000; stroke-width: 0.8"/>
      </g>
     </g>
     <g id="text_6">
      <!-- 100 -->
      <g transform="translate(392.222862 322.182437) scale(0.1 -0.1)">
       <defs>
        <path id="DejaVuSans-31" d="M 794 531 
L 1825 531 
L 1825 4091 
L 703 3866 
L 703 4441 
L 1819 4666 
L 2450 4666 
L 2450 531 
L 3481 531 
L 3481 0 
L 794 0 
L 794 531 
z
" transform="scale(0.015625)"/>
       </defs>
       <use xlink:href="#DejaVuSans-31"/>
       <use xlink:href="#DejaVuSans-30" x="63.623047"/>
       <use xlink:href="#DejaVuSans-30" x="127.246094"/>
      </g>
     </g>
    </g>
    <g id="text_7">
     <!-- Generations -->
     <g transform="translate(205.662344 335.860562) scale(0.1 -0.1)">
      <defs>
       <path id="DejaVuSans-47" d="M 3809 666 
L 3809 1919 
L 2778 1919 
L 2778 2438 
L 4434 2438 
L 4434 434 
Q 4069 175 3628 42 
Q 3188 -91 2688 -91 
Q 1594 -91 976 548 
Q 359 1188 359 2328 
Q 359 3472 976 4111 
Q 1594 4750 2688 4750 
Q 3144 4750 3555 4637 
Q 3966 4525 4313 4306 
L 4313 3634 
Q 3963 3931 3569 4081 
Q 3175 4231 2741 4231 
Q 1884 4231 1454 3753 
Q 1025 3275 1025 2328 
Q 1025 1384 1454 906 
Q 1884 428 2741 428 
Q 3075 428 3337 486 
Q 3600 544 3809 666 
z
" transform="scale(0.015625)"/>
       <path id="DejaVuSans-65" d="M 3597 1894 
L 3597 1613 
L 953 1613 
Q 991 1019 1311 708 
Q 1631 397 2203 397 
Q 2534 397 2845 478 
Q 3156 559 3463 722 
L 3463 178 
Q 3153 47 2828 -22 
Q 2503 -91 2169 -91 
Q 1331 -91 842 396 
Q 353 884 353 1716 
Q 353 2575 817 3079 
Q 1281 3584 2069 3584 
Q 2775 3584 3186 3129 
Q 3597 2675 3597 1894 
z
M 3022 2063 
Q 3016 2534 2758 2815 
Q 2500 3097 2075 3097 
Q 1594 3097 1305 2825 
Q 1016 2553 972 2059 
L 3022 2063 
z
" transform="scale(0.015625)"/>
       <path id="DejaVuSans-6e" d="M 3513 2113 
L 3513 0 
L 2938 0 
L 2938 2094 
Q 2938 2591 2744 2837 
Q 2550 3084 2163 3084 
Q 1697 3084 1428 2787 
Q 1159 2491 1159 1978 
L 1159 0 
L 581 0 
L 581 3500 
L 1159 3500 
L 1159 2956 
Q 1366 3272 1645 3428 
Q 1925 3584 2291 3584 
Q 2894 3584 3203 3211 
Q 3513 2838 3513 2113 
z
" transform="scale(0.015625)"/>
       <path id="DejaVuSans-72" d="M 2631 2963 
Q 2534 3019 2420 3045 
Q 2306 3072 2169 3072 
Q 1681 3072 1420 2755 
Q 1159 2438 1159 1844 
L 1159 0 
L 581 0 
L 581 3500 
L 1159 3500 
L 1159 2956 
Q 1341 3275 1631 3429 
Q 1922 3584 2338 3584 
Q 2397 3584 2469 3576 
Q 2541 3569 2628 3553 
L 2631 2963 
z
" transform="scale(0.015625)"/>
       <path id="DejaVuSans-61" d="M 2194 1759 
Q 1497 1759 1228 1600 
Q 959 1441 959 1056 
Q 959 750 1161 570 
Q 1363 391 1709 391 
Q 2188 391 2477 730 
Q 2766 1069 2766 1631 
L 2766 1759 
L 2194 1759 
z
M 3341 1997 
L 3341 0 
L 2766 0 
L 2766 531 
Q 2569 213 2275 61 
Q 1981 -91 1556 -91 
Q 1019 -91 701 211 
Q 384 513 384 1019 
Q 384 1609 779 1909 
Q 1175 2209 1959 2209 
L 2766 2209 
L 2766 2266 
Q 2766 2663 2505 2880 
Q 2244 3097 1772 3097 
Q 1472 3097 1187 3025 
Q 903 2953 641 2809 
L 641 3341 
Q 956 3463 1253 3523 
Q 1550 3584 1831 3584 
Q 2591 3584 2966 3190 
Q 3341 2797 3341 1997 
z
" transform="scale(0.015625)"/>
       <path id="DejaVuSans-74" d="M 1172 4494 
L 1172 3500 
L 2356 3500 
L 2356 3053 
L 1172 3053 
L 1172 1153 
Q 1172 725 1289 603 
Q 1406 481 1766 481 
L 2356 481 
L 2356 0 
L 1766 0 
Q 1100 0 847 248 
Q 594 497 594 1153 
L 594 3053 
L 172 3053 
L 172 3500 
L 594 3500 
L 594 4494 
L 1172 4494 
z
" transform="scale(0.015625)"/>
       <path id="DejaVuSans-69" d="M 603 3500 
L 1178 3500 
L 1178 0 
L 603 0 
L 603 3500 
z
M 603 4863 
L 1178 4863 
L 1178 4134 
L 603 4134 
L 603 4863 
z
" transform="scale(0.015625)"/>
       <path id="DejaVuSans-6f" d="M 1959 3097 
Q 1497 3097 1228 2736 
Q 959 2375 959 1747 
Q 959 1119 1226 758 
Q 1494 397 1959 397 
Q 2419 397 2687 759 
Q 2956 1122 2956 1747 
Q 2956 2369 2687 2733 
Q 2419 3097 1959 3097 
z
M 1959 3584 
Q 2709 3584 3137 3096 
Q 3566 2609 3566 1747 
Q 3566 888 3137 398 
Q 2709 -91 1959 -91 
Q 1206 -91 779 398 
Q 353 888 353 1747 
Q 353 2609 779 3096 
Q 1206 3584 1959 3584 
z
" transform="scale(0.015625)"/>
       <path id="DejaVuSans-73" d="M 2834 3397 
L 2834 2853 
Q 2591 2978 2328 3040 
Q 2066 3103 1784 3103 
Q 1356 3103 1142 2972 
Q 928 2841 928 2578 
Q 928 2378 1081 2264 
Q 1234 2150 1697 2047 
L 1894 2003 
Q 2506 1872 2764 1633 
Q 3022 1394 3022 966 
Q 3022 478 2636 193 
Q 2250 -91 1575 -91 
Q 1294 -91 989 -36 
Q 684 19 347 128 
L 347 722 
Q 666 556 975 473 
Q 1284 391 1588 391 
Q 1994 391 2212 530 
Q 2431 669 2431 922 
Q 2431 1156 2273 1281 
Q 2116 1406 1581 1522 
L 1381 1569 
Q 847 1681 609 1914 
Q 372 2147 372 2553 
Q 372 3047 722 3315 
Q 1072 3584 1716 3584 
Q 2034 3584 2315 3537 
Q 2597 3491 2834 3397 
z
" transform="scale(0.015625)"/>
      </defs>
      <use xlink:href="#DejaVuSans-47"/>
      <use xlink:href="#DejaVuSans-65" x="77.490234"/>
      <use xlink:href="#DejaVuSans-6e" x="139.013672"/>
      <use xlink:href="#DejaVuSans-65" x="202.392578"/>
      <use xlink:href="#DejaVuSans-72" x="263.916016"/>
      <use xlink:href="#DejaVuSans-61" x="305.029297"/>
      <use xlink:href="#DejaVuSans-74" x="366.308594"/>
      <use xlink:href="#DejaVuSans-69" x="405.517578"/>
      <use xlink:href="#DejaVuSans-6f" x="433.300781"/>
      <use xlink:href="#DejaVuSans-6e" x="494.482422"/>
      <use xlink:href="#DejaVuSans-73" x="557.861328"/>
     </g>
    </g>
   </g>
   <g id="matplotlib.axis_2">
    <g id="ytick_1">
     <g id="line2d_13">
      <path d="M 57.6 293.944068 
L 414.72 293.944068 
" clip-path="url(#p1b88e6a1e8)" style="fill: none; stroke: #b0b0b0; stroke-width: 0.8; stroke-linecap: square"/>
     </g>
     <g id="line2d_14">
      <defs>
       <path id="me6b3c55718" d="M 0 0 
L -3.5 0 
" style="stroke: #000000; stroke-width: 0.8"/>
      </defs>
      <g>
       <use xlink:href="#me6b3c55718" x="57.6" y="293.944068" style="stroke: #000000; stroke-width: 0.8"/>
      </g>
     </g>
     <g id="text_8">
      <!-- −2000 -->
      <g transform="translate(16.770313 297.743287) scale(0.1 -0.1)">
       <defs>
        <path id="DejaVuSans-2212" d="M 678 2272 
L 4684 2272 
L 4684 1741 
L 678 1741 
L 678 2272 
z
" transform="scale(0.015625)"/>
       </defs>
       <use xlink:href="#DejaVuSans-2212"/>
       <use xlink:href="#DejaVuSans-32" x="83.789062"/>
       <use xlink:href="#DejaVuSans-30" x="147.412109"/>
       <use xlink:href="#DejaVuSans-30" x="211.035156"/>
       <use xlink:href="#DejaVuSans-30" x="274.658203"/>
      </g>
     </g>
    </g>
    <g id="ytick_2">
     <g id="line2d_15">
      <path d="M 57.6 256.477752 
L 414.72 256.477752 
" clip-path="url(#p1b88e6a1e8)" style="fill: none; stroke: #b0b0b0; stroke-width: 0.8; stroke-linecap: square"/>
     </g>
     <g id="line2d_16">
      <g>
       <use xlink:href="#me6b3c55718" x="57.6" y="256.477752" style="stroke: #000000; stroke-width: 0.8"/>
      </g>
     </g>
     <g id="text_9">
      <!-- −1800 -->
      <g transform="translate(16.770313 260.276971) scale(0.1 -0.1)">
       <use xlink:href="#DejaVuSans-2212"/>
       <use xlink:href="#DejaVuSans-31" x="83.789062"/>
       <use xlink:href="#DejaVuSans-38" x="147.412109"/>
       <use xlink:href="#DejaVuSans-30" x="211.035156"/>
       <use xlink:href="#DejaVuSans-30" x="274.658203"/>
      </g>
     </g>
    </g>
    <g id="ytick_3">
     <g id="line2d_17">
      <path d="M 57.6 219.011436 
L 414.72 219.011436 
" clip-path="url(#p1b88e6a1e8)" style="fill: none; stroke: #b0b0b0; stroke-width: 0.8; stroke-linecap: square"/>
     </g>
     <g id="line2d_18">
      <g>
       <use xlink:href="#me6b3c55718" x="57.6" y="219.011436" style="stroke: #000000; stroke-width: 0.8"/>
      </g>
     </g>
     <g id="text_10">
      <!-- −1600 -->
      <g transform="translate(16.770313 222.810655) scale(0.1 -0.1)">
       <use xlink:href="#DejaVuSans-2212"/>
       <use xlink:href="#DejaVuSans-31" x="83.789062"/>
       <use xlink:href="#DejaVuSans-36" x="147.412109"/>
       <use xlink:href="#DejaVuSans-30" x="211.035156"/>
       <use xlink:href="#DejaVuSans-30" x="274.658203"/>
      </g>
     </g>
    </g>
    <g id="ytick_4">
     <g id="line2d_19">
      <path d="M 57.6 181.54512 
L 414.72 181.54512 
" clip-path="url(#p1b88e6a1e8)" style="fill: none; stroke: #b0b0b0; stroke-width: 0.8; stroke-linecap: square"/>
     </g>
     <g id="line2d_20">
      <g>
       <use xlink:href="#me6b3c55718" x="57.6" y="181.54512" style="stroke: #000000; stroke-width: 0.8"/>
      </g>
     </g>
     <g id="text_11">
      <!-- −1400 -->
      <g transform="translate(16.770313 185.344339) scale(0.1 -0.1)">
       <use xlink:href="#DejaVuSans-2212"/>
       <use xlink:href="#DejaVuSans-31" x="83.789062"/>
       <use xlink:href="#DejaVuSans-34" x="147.412109"/>
       <use xlink:href="#DejaVuSans-30" x="211.035156"/>
       <use xlink:href="#DejaVuSans-30" x="274.658203"/>
      </g>
     </g>
    </g>
    <g id="ytick_5">
     <g id="line2d_21">
      <path d="M 57.6 144.078804 
L 414.72 144.078804 
" clip-path="url(#p1b88e6a1e8)" style="fill: none; stroke: #b0b0b0; stroke-width: 0.8; stroke-linecap: square"/>
     </g>
     <g id="line2d_22">
      <g>
       <use xlink:href="#me6b3c55718" x="57.6" y="144.078804" style="stroke: #000000; stroke-width: 0.8"/>
      </g>
     </g>
     <g id="text_12">
      <!-- −1200 -->
      <g transform="translate(16.770313 147.878023) scale(0.1 -0.1)">
       <use xlink:href="#DejaVuSans-2212"/>
       <use xlink:href="#DejaVuSans-31" x="83.789062"/>
       <use xlink:href="#DejaVuSans-32" x="147.412109"/>
       <use xlink:href="#DejaVuSans-30" x="211.035156"/>
       <use xlink:href="#DejaVuSans-30" x="274.658203"/>
      </g>
     </g>
    </g>
    <g id="ytick_6">
     <g id="line2d_23">
      <path d="M 57.6 106.612488 
L 414.72 106.612488 
" clip-path="url(#p1b88e6a1e8)" style="fill: none; stroke: #b0b0b0; stroke-width: 0.8; stroke-linecap: square"/>
     </g>
     <g id="line2d_24">
      <g>
       <use xlink:href="#me6b3c55718" x="57.6" y="106.612488" style="stroke: #000000; stroke-width: 0.8"/>
      </g>
     </g>
     <g id="text_13">
      <!-- −1000 -->
      <g transform="translate(16.770313 110.411707) scale(0.1 -0.1)">
       <use xlink:href="#DejaVuSans-2212"/>
       <use xlink:href="#DejaVuSans-31" x="83.789062"/>
       <use xlink:href="#DejaVuSans-30" x="147.412109"/>
       <use xlink:href="#DejaVuSans-30" x="211.035156"/>
       <use xlink:href="#DejaVuSans-30" x="274.658203"/>
      </g>
     </g>
    </g>
    <g id="ytick_7">
     <g id="line2d_25">
      <path d="M 57.6 69.146172 
L 414.72 69.146172 
" clip-path="url(#p1b88e6a1e8)" style="fill: none; stroke: #b0b0b0; stroke-width: 0.8; stroke-linecap: square"/>
     </g>
     <g id="line2d_26">
      <g>
       <use xlink:href="#me6b3c55718" x="57.6" y="69.146172" style="stroke: #000000; stroke-width: 0.8"/>
      </g>
     </g>
     <g id="text_14">
      <!-- −800 -->
      <g transform="translate(23.132812 72.945391) scale(0.1 -0.1)">
       <use xlink:href="#DejaVuSans-2212"/>
       <use xlink:href="#DejaVuSans-38" x="83.789062"/>
       <use xlink:href="#DejaVuSans-30" x="147.412109"/>
       <use xlink:href="#DejaVuSans-30" x="211.035156"/>
      </g>
     </g>
    </g>
    <g id="text_15">
     <!-- Fitness -->
     <g transform="translate(10.690625 191.845187) rotate(-90) scale(0.1 -0.1)">
      <defs>
       <path id="DejaVuSans-46" d="M 628 4666 
L 3309 4666 
L 3309 4134 
L 1259 4134 
L 1259 2759 
L 3109 2759 
L 3109 2228 
L 1259 2228 
L 1259 0 
L 628 0 
L 628 4666 
z
" transform="scale(0.015625)"/>
      </defs>
      <use xlink:href="#DejaVuSans-46"/>
      <use xlink:href="#DejaVuSans-69" x="50.269531"/>
      <use xlink:href="#DejaVuSans-74" x="78.052734"/>
      <use xlink:href="#DejaVuSans-6e" x="117.261719"/>
      <use xlink:href="#DejaVuSans-65" x="180.640625"/>
      <use xlink:href="#DejaVuSans-73" x="242.164062"/>
      <use xlink:href="#DejaVuSans-73" x="294.263672"/>
     </g>
    </g>
   </g>
   <g id="line2d_27">
    <path d="M 73.832727 274.308941 
L 77.112066 270.909727 
L 80.391405 267.418597 
L 83.670744 265.441873 
L 86.950083 264.538032 
L 90.229421 263.98906 
L 93.50876 262.997506 
L 96.788099 262.93827 
L 100.067438 263.172169 
L 103.346777 262.038355 
L 106.626116 262.460189 
L 109.905455 262.487689 
L 113.184793 261.348464 
L 116.464132 261.059831 
L 119.743471 261.653716 
L 123.02281 261.540824 
L 126.302149 262.787694 
L 129.581488 262.097278 
L 132.860826 260.242515 
L 136.140165 261.660002 
L 139.419504 260.102809 
L 142.698843 262.343514 
L 145.978182 261.940304 
L 149.257521 260.897396 
L 152.53686 262.854374 
L 155.816198 263.788433 
L 159.095537 263.739704 
L 162.374876 263.392271 
L 165.654215 262.016709 
L 168.933554 262.817409 
L 172.212893 263.097761 
L 175.492231 262.885631 
L 178.77157 263.307092 
L 182.050909 262.109668 
L 185.330248 264.234111 
L 188.609587 263.247153 
L 191.888926 263.105307 
L 195.168264 264.154802 
L 198.447603 261.841805 
L 201.726942 262.92647 
L 205.006281 263.356819 
L 208.28562 262.279202 
L 211.564959 263.999344 
L 214.844298 264.437906 
L 218.123636 263.263982 
L 221.402975 263.930088 
L 224.682314 263.856757 
L 227.961653 263.211551 
L 231.240992 263.518931 
L 234.520331 264.317922 
L 237.799669 264.313198 
L 241.079008 264.104814 
L 244.358347 263.331525 
L 247.637686 263.898974 
L 250.917025 263.550049 
L 254.196364 263.144366 
L 257.475702 262.888512 
L 260.755041 263.338909 
L 264.03438 263.6962 
L 267.313719 262.034761 
L 270.593058 261.439588 
L 273.872397 262.939528 
L 277.151736 262.843784 
L 280.431074 263.428663 
L 283.710413 262.237766 
L 286.989752 262.649392 
L 290.269091 263.038425 
L 293.54843 263.394396 
L 296.827769 262.780824 
L 300.107107 263.23654 
L 303.386446 263.315229 
L 306.665785 263.3433 
L 309.945124 262.539892 
L 313.224463 263.073321 
L 316.503802 263.329928 
L 319.78314 262.734333 
L 323.062479 263.900748 
L 326.341818 262.748943 
L 329.621157 262.868977 
L 332.900496 262.787939 
L 336.179835 264.058824 
L 339.459174 263.988134 
L 342.738512 264.087328 
L 346.017851 263.108532 
L 349.29719 263.828536 
L 352.576529 263.488641 
L 355.855868 262.697721 
L 359.135207 261.793323 
L 362.414545 261.471439 
L 365.693884 264.205661 
L 368.973223 262.719929 
L 372.252562 265.096329 
L 375.531901 264.781826 
L 378.81124 263.740375 
L 382.090579 264.173684 
L 385.369917 263.545654 
L 388.649256 264.025821 
L 391.928595 263.33903 
L 395.207934 264.50365 
L 398.487273 263.229759 
" clip-path="url(#p1b88e6a1e8)" style="fill: none; stroke: #0000ff; stroke-width: 1.5; stroke-linecap: square"/>
   </g>
   <g id="line2d_28">
    <path d="M 73.832727 295.488 
L 77.112066 293.430946 
L 80.391405 293.171858 
L 83.670744 290.996197 
L 86.950083 291.801765 
L 90.229421 291.138085 
L 93.50876 288.14579 
L 96.788099 288.729947 
L 100.067438 289.898108 
L 103.346777 289.409453 
L 106.626116 290.02253 
L 109.905455 289.859759 
L 113.184793 290.985473 
L 116.464132 289.009431 
L 119.743471 289.162137 
L 123.02281 288.059651 
L 126.302149 292.340961 
L 129.581488 291.504334 
L 132.860826 292.817676 
L 136.140165 292.125552 
L 139.419504 293.33008 
L 142.698843 292.006565 
L 145.978182 291.436381 
L 149.257521 290.058369 
L 152.53686 286.096366 
L 155.816198 287.215815 
L 159.095537 287.116312 
L 162.374876 286.79388 
L 165.654215 288.461309 
L 168.933554 287.612053 
L 172.212893 287.073924 
L 175.492231 286.679408 
L 178.77157 287.404502 
L 182.050909 289.419366 
L 185.330248 287.60083 
L 188.609587 286.45352 
L 191.888926 286.257019 
L 195.168264 287.871373 
L 198.447603 289.576312 
L 201.726942 287.178316 
L 205.006281 287.839825 
L 208.28562 286.292204 
L 211.564959 288.458857 
L 214.844298 289.18227 
L 218.123636 287.98115 
L 221.402975 284.136974 
L 224.682314 283.624227 
L 227.961653 283.542972 
L 231.240992 284.034302 
L 234.520331 285.070972 
L 237.799669 284.969541 
L 241.079008 284.813607 
L 244.358347 283.613825 
L 247.637686 284.351541 
L 250.917025 284.69664 
L 254.196364 284.230718 
L 257.475702 286.917884 
L 260.755041 286.268758 
L 264.03438 286.639027 
L 267.313719 288.170445 
L 270.593058 291.586764 
L 273.872397 287.864761 
L 277.151736 287.380417 
L 280.431074 288.19387 
L 283.710413 289.098658 
L 286.989752 286.836132 
L 290.269091 287.477612 
L 293.54843 287.940542 
L 296.827769 291.691385 
L 300.107107 288.109486 
L 303.386446 288.274396 
L 306.665785 288.286055 
L 309.945124 287.274927 
L 313.224463 287.801507 
L 316.503802 288.068093 
L 319.78314 287.416213 
L 323.062479 288.822469 
L 326.341818 291.746712 
L 329.621157 288.711527 
L 332.900496 292.664949 
L 336.179835 286.619328 
L 339.459174 286.477695 
L 342.738512 286.632867 
L 346.017851 285.217666 
L 349.29719 286.32409 
L 352.576529 287.35423 
L 355.855868 289.418306 
L 359.135207 293.895793 
L 362.414545 289.825232 
L 365.693884 285.814518 
L 368.973223 289.453787 
L 372.252562 287.031913 
L 375.531901 286.912859 
L 378.81124 285.371594 
L 382.090579 285.930503 
L 385.369917 285.082241 
L 388.649256 285.575786 
L 391.928595 285.464477 
L 395.207934 286.281688 
L 398.487273 286.210433 
" clip-path="url(#p1b88e6a1e8)" style="fill: none; stroke-dasharray: 9.6,2.4,1.5,2.4; stroke-dashoffset: 0; stroke: #008000; stroke-width: 1.5"/>
   </g>
   <g id="line2d_29">
    <path d="M 73.832727 253.129881 
L 77.112066 248.388507 
L 80.391405 241.665337 
L 83.670744 239.887548 
L 86.950083 237.2743 
L 90.229421 236.840035 
L 93.50876 237.849222 
L 96.788099 237.146594 
L 100.067438 236.44623 
L 103.346777 234.667258 
L 106.626116 234.897848 
L 109.905455 235.115619 
L 113.184793 231.711454 
L 116.464132 233.11023 
L 119.743471 234.145296 
L 123.02281 235.021997 
L 126.302149 233.234427 
L 129.581488 232.690222 
L 132.860826 227.667354 
L 136.140165 231.194451 
L 139.419504 226.875537 
L 142.698843 232.680463 
L 145.978182 232.444228 
L 149.257521 231.736423 
L 152.53686 239.612381 
L 155.816198 240.361052 
L 159.095537 240.363097 
L 162.374876 239.990661 
L 165.654215 235.57211 
L 168.933554 238.022765 
L 172.212893 239.121599 
L 175.492231 239.091855 
L 178.77157 239.209682 
L 182.050909 234.799971 
L 185.330248 240.867391 
L 188.609587 240.040786 
L 191.888926 239.953595 
L 195.168264 240.43823 
L 198.447603 234.107298 
L 201.726942 238.674624 
L 205.006281 238.873813 
L 208.28562 238.2662 
L 211.564959 239.53983 
L 214.844298 239.693542 
L 218.123636 238.546813 
L 221.402975 243.723202 
L 224.682314 244.089287 
L 227.961653 242.88013 
L 231.240992 243.00356 
L 234.520331 243.564872 
L 237.799669 243.656855 
L 241.079008 243.39602 
L 244.358347 243.049225 
L 247.637686 243.446406 
L 250.917025 242.403458 
L 254.196364 242.058015 
L 257.475702 238.859141 
L 260.755041 240.40906 
L 264.03438 240.753372 
L 267.313719 235.899076 
L 270.593058 231.292413 
L 273.872397 238.014294 
L 277.151736 238.307151 
L 280.431074 238.663456 
L 283.710413 235.376874 
L 286.989752 238.462652 
L 290.269091 238.599238 
L 293.54843 238.848249 
L 296.827769 233.870263 
L 300.107107 238.363594 
L 303.386446 238.356061 
L 306.665785 238.400545 
L 309.945124 237.804858 
L 313.224463 238.345134 
L 316.503802 238.591762 
L 319.78314 238.052453 
L 323.062479 238.979027 
L 326.341818 233.751174 
L 329.621157 237.026428 
L 332.900496 232.910929 
L 336.179835 241.498321 
L 339.459174 241.498572 
L 342.738512 241.541788 
L 346.017851 240.999397 
L 349.29719 241.332983 
L 352.576529 239.623052 
L 355.855868 235.977135 
L 359.135207 229.690853 
L 362.414545 233.117646 
L 365.693884 242.596805 
L 368.973223 235.986071 
L 372.252562 243.160745 
L 375.531901 242.650792 
L 378.81124 242.109157 
L 382.090579 242.416865 
L 385.369917 242.009067 
L 388.649256 242.475855 
L 391.928595 241.213583 
L 395.207934 242.725611 
L 398.487273 240.249085 
" clip-path="url(#p1b88e6a1e8)" style="fill: none; stroke-dasharray: 9.6,2.4,1.5,2.4; stroke-dashoffset: 0; stroke: #008000; stroke-width: 1.5"/>
   </g>
   <g id="line2d_30">
    <path d="M 73.832727 73.487061 
L 77.112066 73.487061 
L 80.391405 73.487061 
L 83.670744 73.487061 
L 86.950083 73.487061 
L 90.229421 73.487061 
L 93.50876 73.487061 
L 96.788099 73.487061 
L 100.067438 73.487061 
L 103.346777 73.487061 
L 106.626116 73.487061 
L 109.905455 73.487061 
L 113.184793 73.487061 
L 116.464132 73.487061 
L 119.743471 73.487061 
L 123.02281 73.487061 
L 126.302149 73.487061 
L 129.581488 73.487061 
L 132.860826 59.339727 
L 136.140165 59.339727 
L 139.419504 59.339727 
L 142.698843 59.339727 
L 145.978182 59.339727 
L 149.257521 59.339727 
L 152.53686 59.339727 
L 155.816198 59.339727 
L 159.095537 59.339727 
L 162.374876 59.339727 
L 165.654215 59.339727 
L 168.933554 59.339727 
L 172.212893 59.339727 
L 175.492231 59.339727 
L 178.77157 59.339727 
L 182.050909 59.339727 
L 185.330248 59.339727 
L 188.609587 59.339727 
L 191.888926 59.339727 
L 195.168264 59.339727 
L 198.447603 59.339727 
L 201.726942 59.339727 
L 205.006281 59.339727 
L 208.28562 59.339727 
L 211.564959 59.339727 
L 214.844298 59.339727 
L 218.123636 59.339727 
L 221.402975 59.339727 
L 224.682314 59.339727 
L 227.961653 59.339727 
L 231.240992 59.339727 
L 234.520331 59.339727 
L 237.799669 59.339727 
L 241.079008 59.339727 
L 244.358347 59.339727 
L 247.637686 59.339727 
L 250.917025 59.339727 
L 254.196364 59.339727 
L 257.475702 59.339727 
L 260.755041 59.339727 
L 264.03438 59.339727 
L 267.313719 59.339727 
L 270.593058 58.517317 
L 273.872397 58.517317 
L 277.151736 58.517317 
L 280.431074 58.517317 
L 283.710413 58.517317 
L 286.989752 58.517317 
L 290.269091 58.517317 
L 293.54843 58.517317 
L 296.827769 53.568 
L 300.107107 53.568 
L 303.386446 53.568 
L 306.665785 53.568 
L 309.945124 53.568 
L 313.224463 53.568 
L 316.503802 53.568 
L 319.78314 53.568 
L 323.062479 53.568 
L 326.341818 53.568 
L 329.621157 53.568 
L 332.900496 53.568 
L 336.179835 53.568 
L 339.459174 53.568 
L 342.738512 53.568 
L 346.017851 53.568 
L 349.29719 53.568 
L 352.576529 53.568 
L 355.855868 53.568 
L 359.135207 53.568 
L 362.414545 53.568 
L 365.693884 53.568 
L 368.973223 53.568 
L 372.252562 53.568 
L 375.531901 53.568 
L 378.81124 53.568 
L 382.090579 53.568 
L 385.369917 53.568 
L 388.649256 53.568 
L 391.928595 53.568 
L 395.207934 53.568 
L 398.487273 53.568 
" clip-path="url(#p1b88e6a1e8)" style="fill: none; stroke: #ff0000; stroke-width: 1.5; stroke-linecap: square"/>
   </g>
   <g id="patch_3">
    <path d="M 57.6 307.584 
L 57.6 41.472 
" style="fill: none; stroke: #000000; stroke-width: 0.8; stroke-linejoin: miter; stroke-linecap: square"/>
   </g>
   <g id="patch_4">
    <path d="M 414.72 307.584 
L 414.72 41.472 
" style="fill: none; stroke: #000000; stroke-width: 0.8; stroke-linejoin: miter; stroke-linecap: square"/>
   </g>
   <g id="patch_5">
    <path d="M 57.6 307.584 
L 414.72 307.584 
" style="fill: none; stroke: #000000; stroke-width: 0.8; stroke-linejoin: miter; stroke-linecap: square"/>
   </g>
   <g id="patch_6">
    <path d="M 57.6 41.472 
L 414.72 41.472 
" style="fill: none; stroke: #000000; stroke-width: 0.8; stroke-linejoin: miter; stroke-linecap: square"/>
   </g>
   <g id="text_16">
    <!-- Population's average and best fitness -->
    <g transform="translate(123.529687 35.472) scale(0.12 -0.12)">
     <defs>
      <path id="DejaVuSans-50" d="M 1259 4147 
L 1259 2394 
L 2053 2394 
Q 2494 2394 2734 2622 
Q 2975 2850 2975 3272 
Q 2975 3691 2734 3919 
Q 2494 4147 2053 4147 
L 1259 4147 
z
M 628 4666 
L 2053 4666 
Q 2838 4666 3239 4311 
Q 3641 3956 3641 3272 
Q 3641 2581 3239 2228 
Q 2838 1875 2053 1875 
L 1259 1875 
L 1259 0 
L 628 0 
L 628 4666 
z
" transform="scale(0.015625)"/>
      <path id="DejaVuSans-70" d="M 1159 525 
L 1159 -1331 
L 581 -1331 
L 581 3500 
L 1159 3500 
L 1159 2969 
Q 1341 3281 1617 3432 
Q 1894 3584 2278 3584 
Q 2916 3584 3314 3078 
Q 3713 2572 3713 1747 
Q 3713 922 3314 415 
Q 2916 -91 2278 -91 
Q 1894 -91 1617 61 
Q 1341 213 1159 525 
z
M 3116 1747 
Q 3116 2381 2855 2742 
Q 2594 3103 2138 3103 
Q 1681 3103 1420 2742 
Q 1159 2381 1159 1747 
Q 1159 1113 1420 752 
Q 1681 391 2138 391 
Q 2594 391 2855 752 
Q 3116 1113 3116 1747 
z
" transform="scale(0.015625)"/>
      <path id="DejaVuSans-75" d="M 544 1381 
L 544 3500 
L 1119 3500 
L 1119 1403 
Q 1119 906 1312 657 
Q 1506 409 1894 409 
Q 2359 409 2629 706 
Q 2900 1003 2900 1516 
L 2900 3500 
L 3475 3500 
L 3475 0 
L 2900 0 
L 2900 538 
Q 2691 219 2414 64 
Q 2138 -91 1772 -91 
Q 1169 -91 856 284 
Q 544 659 544 1381 
z
M 1991 3584 
L 1991 3584 
z
" transform="scale(0.015625)"/>
      <path id="DejaVuSans-6c" d="M 603 4863 
L 1178 4863 
L 1178 0 
L 603 0 
L 603 4863 
z
" transform="scale(0.015625)"/>
      <path id="DejaVuSans-27" d="M 1147 4666 
L 1147 2931 
L 616 2931 
L 616 4666 
L 1147 4666 
z
" transform="scale(0.015625)"/>
      <path id="DejaVuSans-20" transform="scale(0.015625)"/>
      <path id="DejaVuSans-76" d="M 191 3500 
L 800 3500 
L 1894 563 
L 2988 3500 
L 3597 3500 
L 2284 0 
L 1503 0 
L 191 3500 
z
" transform="scale(0.015625)"/>
      <path id="DejaVuSans-67" d="M 2906 1791 
Q 2906 2416 2648 2759 
Q 2391 3103 1925 3103 
Q 1463 3103 1205 2759 
Q 947 2416 947 1791 
Q 947 1169 1205 825 
Q 1463 481 1925 481 
Q 2391 481 2648 825 
Q 2906 1169 2906 1791 
z
M 3481 434 
Q 3481 -459 3084 -895 
Q 2688 -1331 1869 -1331 
Q 1566 -1331 1297 -1286 
Q 1028 -1241 775 -1147 
L 775 -588 
Q 1028 -725 1275 -790 
Q 1522 -856 1778 -856 
Q 2344 -856 2625 -561 
Q 2906 -266 2906 331 
L 2906 616 
Q 2728 306 2450 153 
Q 2172 0 1784 0 
Q 1141 0 747 490 
Q 353 981 353 1791 
Q 353 2603 747 3093 
Q 1141 3584 1784 3584 
Q 2172 3584 2450 3431 
Q 2728 3278 2906 2969 
L 2906 3500 
L 3481 3500 
L 3481 434 
z
" transform="scale(0.015625)"/>
      <path id="DejaVuSans-64" d="M 2906 2969 
L 2906 4863 
L 3481 4863 
L 3481 0 
L 2906 0 
L 2906 525 
Q 2725 213 2448 61 
Q 2172 -91 1784 -91 
Q 1150 -91 751 415 
Q 353 922 353 1747 
Q 353 2572 751 3078 
Q 1150 3584 1784 3584 
Q 2172 3584 2448 3432 
Q 2725 3281 2906 2969 
z
M 947 1747 
Q 947 1113 1208 752 
Q 1469 391 1925 391 
Q 2381 391 2643 752 
Q 2906 1113 2906 1747 
Q 2906 2381 2643 2742 
Q 2381 3103 1925 3103 
Q 1469 3103 1208 2742 
Q 947 2381 947 1747 
z
" transform="scale(0.015625)"/>
      <path id="DejaVuSans-62" d="M 3116 1747 
Q 3116 2381 2855 2742 
Q 2594 3103 2138 3103 
Q 1681 3103 1420 2742 
Q 1159 2381 1159 1747 
Q 1159 1113 1420 752 
Q 1681 391 2138 391 
Q 2594 391 2855 752 
Q 3116 1113 3116 1747 
z
M 1159 2969 
Q 1341 3281 1617 3432 
Q 1894 3584 2278 3584 
Q 2916 3584 3314 3078 
Q 3713 2572 3713 1747 
Q 3713 922 3314 415 
Q 2916 -91 2278 -91 
Q 1894 -91 1617 61 
Q 1341 213 1159 525 
L 1159 0 
L 581 0 
L 581 4863 
L 1159 4863 
L 1159 2969 
z
" transform="scale(0.015625)"/>
      <path id="DejaVuSans-66" d="M 2375 4863 
L 2375 4384 
L 1825 4384 
Q 1516 4384 1395 4259 
Q 1275 4134 1275 3809 
L 1275 3500 
L 2222 3500 
L 2222 3053 
L 1275 3053 
L 1275 0 
L 697 0 
L 697 3053 
L 147 3053 
L 147 3500 
L 697 3500 
L 697 3744 
Q 697 4328 969 4595 
Q 1241 4863 1831 4863 
L 2375 4863 
z
" transform="scale(0.015625)"/>
     </defs>
     <use xlink:href="#DejaVuSans-50"/>
     <use xlink:href="#DejaVuSans-6f" x="56.677734"/>
     <use xlink:href="#DejaVuSans-70" x="117.859375"/>
     <use xlink:href="#DejaVuSans-75" x="181.335938"/>
     <use xlink:href="#DejaVuSans-6c" x="244.714844"/>
     <use xlink:href="#DejaVuSans-61" x="272.498047"/>
     <use xlink:href="#DejaVuSans-74" x="333.777344"/>
     <use xlink:href="#DejaVuSans-69" x="372.986328"/>
     <use xlink:href="#DejaVuSans-6f" x="400.769531"/>
     <use xlink:href="#DejaVuSans-6e" x="461.951172"/>
     <use xlink:href="#DejaVuSans-27" x="525.330078"/>
     <use xlink:href="#DejaVuSans-73" x="552.820312"/>
     <use xlink:href="#DejaVuSans-20" x="604.919922"/>
     <use xlink:href="#DejaVuSans-61" x="636.707031"/>
     <use xlink:href="#DejaVuSans-76" x="697.986328"/>
     <use xlink:href="#DejaVuSans-65" x="757.166016"/>
     <use xlink:href="#DejaVuSans-72" x="818.689453"/>
     <use xlink:href="#DejaVuSans-61" x="859.802734"/>
     <use xlink:href="#DejaVuSans-67" x="921.082031"/>
     <use xlink:href="#DejaVuSans-65" x="984.558594"/>
     <use xlink:href="#DejaVuSans-20" x="1046.082031"/>
     <use xlink:href="#DejaVuSans-61" x="1077.869141"/>
     <use xlink:href="#DejaVuSans-6e" x="1139.148438"/>
     <use xlink:href="#DejaVuSans-64" x="1202.527344"/>
     <use xlink:href="#DejaVuSans-20" x="1266.003906"/>
     <use xlink:href="#DejaVuSans-62" x="1297.791016"/>
     <use xlink:href="#DejaVuSans-65" x="1361.267578"/>
     <use xlink:href="#DejaVuSans-73" x="1422.791016"/>
     <use xlink:href="#DejaVuSans-74" x="1474.890625"/>
     <use xlink:href="#DejaVuSans-20" x="1514.099609"/>
     <use xlink:href="#DejaVuSans-66" x="1545.886719"/>
     <use xlink:href="#DejaVuSans-69" x="1581.091797"/>
     <use xlink:href="#DejaVuSans-74" x="1608.875"/>
     <use xlink:href="#DejaVuSans-6e" x="1648.083984"/>
     <use xlink:href="#DejaVuSans-65" x="1711.462891"/>
     <use xlink:href="#DejaVuSans-73" x="1772.986328"/>
     <use xlink:href="#DejaVuSans-73" x="1825.085938"/>
    </g>
   </g>
   <g id="legend_1">
    <g id="patch_7">
     <path d="M 334.779375 205.38425 
L 407.72 205.38425 
Q 409.72 205.38425 409.72 203.38425 
L 409.72 145.67175 
Q 409.72 143.67175 407.72 143.67175 
L 334.779375 143.67175 
Q 332.779375 143.67175 332.779375 145.67175 
L 332.779375 203.38425 
Q 332.779375 205.38425 334.779375 205.38425 
z
" style="fill: #ffffff; opacity: 0.8; stroke: #cccccc; stroke-linejoin: miter"/>
    </g>
    <g id="line2d_31">
     <path d="M 336.779375 151.770188 
L 346.779375 151.770188 
L 356.779375 151.770188 
" style="fill: none; stroke: #0000ff; stroke-width: 1.5; stroke-linecap: square"/>
    </g>
    <g id="text_17">
     <!-- average -->
     <g transform="translate(364.779375 155.270188) scale(0.1 -0.1)">
      <use xlink:href="#DejaVuSans-61"/>
      <use xlink:href="#DejaVuSans-76" x="61.279297"/>
      <use xlink:href="#DejaVuSans-65" x="120.458984"/>
      <use xlink:href="#DejaVuSans-72" x="181.982422"/>
      <use xlink:href="#DejaVuSans-61" x="223.095703"/>
      <use xlink:href="#DejaVuSans-67" x="284.375"/>
      <use xlink:href="#DejaVuSans-65" x="347.851562"/>
     </g>
    </g>
    <g id="line2d_32">
     <path d="M 336.779375 166.448313 
L 346.779375 166.448313 
L 356.779375 166.448313 
" style="fill: none; stroke-dasharray: 9.6,2.4,1.5,2.4; stroke-dashoffset: 0; stroke: #008000; stroke-width: 1.5"/>
    </g>
    <g id="text_18">
     <!-- -1 sd -->
     <g transform="translate(364.779375 169.948313) scale(0.1 -0.1)">
      <defs>
       <path id="DejaVuSans-2d" d="M 313 2009 
L 1997 2009 
L 1997 1497 
L 313 1497 
L 313 2009 
z
" transform="scale(0.015625)"/>
      </defs>
      <use xlink:href="#DejaVuSans-2d"/>
      <use xlink:href="#DejaVuSans-31" x="36.083984"/>
      <use xlink:href="#DejaVuSans-20" x="99.707031"/>
      <use xlink:href="#DejaVuSans-73" x="131.494141"/>
      <use xlink:href="#DejaVuSans-64" x="183.59375"/>
     </g>
    </g>
    <g id="line2d_33">
     <path d="M 336.779375 181.126438 
L 346.779375 181.126438 
L 356.779375 181.126438 
" style="fill: none; stroke-dasharray: 9.6,2.4,1.5,2.4; stroke-dashoffset: 0; stroke: #008000; stroke-width: 1.5"/>
    </g>
    <g id="text_19">
     <!-- +1 sd -->
     <g transform="translate(364.779375 184.626438) scale(0.1 -0.1)">
      <defs>
       <path id="DejaVuSans-2b" d="M 2944 4013 
L 2944 2272 
L 4684 2272 
L 4684 1741 
L 2944 1741 
L 2944 0 
L 2419 0 
L 2419 1741 
L 678 1741 
L 678 2272 
L 2419 2272 
L 2419 4013 
L 2944 4013 
z
" transform="scale(0.015625)"/>
      </defs>
      <use xlink:href="#DejaVuSans-2b"/>
      <use xlink:href="#DejaVuSans-31" x="83.789062"/>
      <use xlink:href="#DejaVuSans-20" x="147.412109"/>
      <use xlink:href="#DejaVuSans-73" x="179.199219"/>
      <use xlink:href="#DejaVuSans-64" x="231.298828"/>
     </g>
    </g>
    <g id="line2d_34">
     <path d="M 336.779375 195.804563 
L 346.779375 195.804563 
L 356.779375 195.804563 
" style="fill: none; stroke: #ff0000; stroke-width: 1.5; stroke-linecap: square"/>
    </g>
    <g id="text_20">
     <!-- best -->
     <g transform="translate(364.779375 199.304563) scale(0.1 -0.1)">
      <use xlink:href="#DejaVuSans-62"/>
      <use xlink:href="#DejaVuSans-65" x="63.476562"/>
      <use xlink:href="#DejaVuSans-73" x="125"/>
      <use xlink:href="#DejaVuSans-74" x="177.099609"/>
     </g>
    </g>
   </g>
  </g>
 </g>
 <defs>
  <clipPath id="p1b88e6a1e8">
   <rect x="57.6" y="41.472" width="357.12" height="266.112"/>
  </clipPath>
 </defs>
</svg>
