<?xml version="1.0" encoding="utf-8" standalone="no"?>
<!DOCTYPE svg PUBLIC "-//W3C//DTD SVG 1.1//EN"
  "http://www.w3.org/Graphics/SVG/1.1/DTD/svg11.dtd">
<svg xmlns:xlink="http://www.w3.org/1999/xlink" width="460.8pt" height="345.6pt" viewBox="0 0 460.8 345.6" xmlns="http://www.w3.org/2000/svg" version="1.1">
 <metadata>
  <rdf:RDF xmlns:dc="http://purl.org/dc/elements/1.1/" xmlns:cc="http://creativecommons.org/ns#" xmlns:rdf="http://www.w3.org/1999/02/22-rdf-syntax-ns#">
   <cc:Work>
    <dc:type rdf:resource="http://purl.org/dc/dcmitype/StillImage"/>
    <dc:date>2024-08-07T06:40:48.853244</dc:date>
    <dc:format>image/svg+xml</dc:format>
    <dc:creator>
     <cc:Agent>
      <dc:title>Matplotlib v3.8.4, https://matplotlib.org/</dc:title>
     </cc:Agent>
    </dc:creator>
   </cc:Work>
  </rdf:RDF>
 </metadata>
 <defs>
  <style type="text/css">*{stroke-linejoin: round; stroke-linecap: butt}</style>
 </defs>
 <g id="figure_1">
  <g id="patch_1">
   <path d="M 0 345.6 
L 460.8 345.6 
L 460.8 0 
L 0 0 
z
" style="fill: #ffffff"/>
  </g>
  <g id="axes_1">
   <g id="patch_2">
    <path d="M 57.6 307.584 
L 414.72 307.584 
L 414.72 41.472 
L 57.6 41.472 
z
" style="fill: #ffffff"/>
   </g>
   <g id="matplotlib.axis_1">
    <g id="xtick_1">
     <g id="line2d_1">
      <path d="M 73.832727 307.584 
L 73.832727 41.472 
" clip-path="url(#p7557c83470)" style="fill: none; stroke: #b0b0b0; stroke-width: 0.8; stroke-linecap: square"/>
     </g>
     <g id="line2d_2">
      <defs>
       <path id="m56b1ed5656" d="M 0 0 
L 0 3.5 
" style="stroke: #000000; stroke-width: 0.8"/>
      </defs>
      <g>
       <use xlink:href="#m56b1ed5656" x="73.832727" y="307.584" style="stroke: #000000; stroke-width: 0.8"/>
      </g>
     </g>
     <g id="text_1">
      <!-- 0 -->
      <g transform="translate(70.651477 322.182437) scale(0.1 -0.1)">
       <defs>
        <path id="DejaVuSans-30" d="M 2034 4250 
Q 1547 4250 1301 3770 
Q 1056 3291 1056 2328 
Q 1056 1369 1301 889 
Q 1547 409 2034 409 
Q 2525 409 2770 889 
Q 3016 1369 3016 2328 
Q 3016 3291 2770 3770 
Q 2525 4250 2034 4250 
z
M 2034 4750 
Q 2819 4750 3233 4129 
Q 3647 3509 3647 2328 
Q 3647 1150 3233 529 
Q 2819 -91 2034 -91 
Q 1250 -91 836 529 
Q 422 1150 422 2328 
Q 422 3509 836 4129 
Q 1250 4750 2034 4750 
z
" transform="scale(0.015625)"/>
       </defs>
       <use xlink:href="#DejaVuSans-30"/>
      </g>
     </g>
    </g>
    <g id="xtick_2">
     <g id="line2d_3">
      <path d="M 114.618474 307.584 
L 114.618474 41.472 
" clip-path="url(#p7557c83470)" style="fill: none; stroke: #b0b0b0; stroke-width: 0.8; stroke-linecap: square"/>
     </g>
     <g id="line2d_4">
      <g>
       <use xlink:href="#m56b1ed5656" x="114.618474" y="307.584" style="stroke: #000000; stroke-width: 0.8"/>
      </g>
     </g>
     <g id="text_2">
      <!-- 25 -->
      <g transform="translate(108.255974 322.182437) scale(0.1 -0.1)">
       <defs>
        <path id="DejaVuSans-32" d="M 1228 531 
L 3431 531 
L 3431 0 
L 469 0 
L 469 531 
Q 828 903 1448 1529 
Q 2069 2156 2228 2338 
Q 2531 2678 2651 2914 
Q 2772 3150 2772 3378 
Q 2772 3750 2511 3984 
Q 2250 4219 1831 4219 
Q 1534 4219 1204 4116 
Q 875 4013 500 3803 
L 500 4441 
Q 881 4594 1212 4672 
Q 1544 4750 1819 4750 
Q 2544 4750 2975 4387 
Q 3406 4025 3406 3419 
Q 3406 3131 3298 2873 
Q 3191 2616 2906 2266 
Q 2828 2175 2409 1742 
Q 1991 1309 1228 531 
z
" transform="scale(0.015625)"/>
        <path id="DejaVuSans-35" d="M 691 4666 
L 3169 4666 
L 3169 4134 
L 1269 4134 
L 1269 2991 
Q 1406 3038 1543 3061 
Q 1681 3084 1819 3084 
Q 2600 3084 3056 2656 
Q 3513 2228 3513 1497 
Q 3513 744 3044 326 
Q 2575 -91 1722 -91 
Q 1428 -91 1123 -41 
Q 819 9 494 109 
L 494 744 
Q 775 591 1075 516 
Q 1375 441 1709 441 
Q 2250 441 2565 725 
Q 2881 1009 2881 1497 
Q 2881 1984 2565 2268 
Q 2250 2553 1709 2553 
Q 1456 2553 1204 2497 
Q 953 2441 691 2322 
L 691 4666 
z
" transform="scale(0.015625)"/>
       </defs>
       <use xlink:href="#DejaVuSans-32"/>
       <use xlink:href="#DejaVuSans-35" x="63.623047"/>
      </g>
     </g>
    </g>
    <g id="xtick_3">
     <g id="line2d_5">
      <path d="M 155.404221 307.584 
L 155.404221 41.472 
" clip-path="url(#p7557c83470)" style="fill: none; stroke: #b0b0b0; stroke-width: 0.8; stroke-linecap: square"/>
     </g>
     <g id="line2d_6">
      <g>
       <use xlink:href="#m56b1ed5656" x="155.404221" y="307.584" style="stroke: #000000; stroke-width: 0.8"/>
      </g>
     </g>
     <g id="text_3">
      <!-- 50 -->
      <g transform="translate(149.041721 322.182437) scale(0.1 -0.1)">
       <use xlink:href="#DejaVuSans-35"/>
       <use xlink:href="#DejaVuSans-30" x="63.623047"/>
      </g>
     </g>
    </g>
    <g id="xtick_4">
     <g id="line2d_7">
      <path d="M 196.189968 307.584 
L 196.189968 41.472 
" clip-path="url(#p7557c83470)" style="fill: none; stroke: #b0b0b0; stroke-width: 0.8; stroke-linecap: square"/>
     </g>
     <g id="line2d_8">
      <g>
       <use xlink:href="#m56b1ed5656" x="196.189968" y="307.584" style="stroke: #000000; stroke-width: 0.8"/>
      </g>
     </g>
     <g id="text_4">
      <!-- 75 -->
      <g transform="translate(189.827468 322.182437) scale(0.1 -0.1)">
       <defs>
        <path id="DejaVuSans-37" d="M 525 4666 
L 3525 4666 
L 3525 4397 
L 1831 0 
L 1172 0 
L 2766 4134 
L 525 4134 
L 525 4666 
z
" transform="scale(0.015625)"/>
       </defs>
       <use xlink:href="#DejaVuSans-37"/>
       <use xlink:href="#DejaVuSans-35" x="63.623047"/>
      </g>
     </g>
    </g>
    <g id="xtick_5">
     <g id="line2d_9">
      <path d="M 236.975715 307.584 
L 236.975715 41.472 
" clip-path="url(#p7557c83470)" style="fill: none; stroke: #b0b0b0; stroke-width: 0.8; stroke-linecap: square"/>
     </g>
     <g id="line2d_10">
      <g>
       <use xlink:href="#m56b1ed5656" x="236.975715" y="307.584" style="stroke: #000000; stroke-width: 0.8"/>
      </g>
     </g>
     <g id="text_5">
      <!-- 100 -->
      <g transform="translate(227.431965 322.182437) scale(0.1 -0.1)">
       <defs>
        <path id="DejaVuSans-31" d="M 794 531 
L 1825 531 
L 1825 4091 
L 703 3866 
L 703 4441 
L 1819 4666 
L 2450 4666 
L 2450 531 
L 3481 531 
L 3481 0 
L 794 0 
L 794 531 
z
" transform="scale(0.015625)"/>
       </defs>
       <use xlink:href="#DejaVuSans-31"/>
       <use xlink:href="#DejaVuSans-30" x="63.623047"/>
       <use xlink:href="#DejaVuSans-30" x="127.246094"/>
      </g>
     </g>
    </g>
    <g id="xtick_6">
     <g id="line2d_11">
      <path d="M 277.761462 307.584 
L 277.761462 41.472 
" clip-path="url(#p7557c83470)" style="fill: none; stroke: #b0b0b0; stroke-width: 0.8; stroke-linecap: square"/>
     </g>
     <g id="line2d_12">
      <g>
       <use xlink:href="#m56b1ed5656" x="277.761462" y="307.584" style="stroke: #000000; stroke-width: 0.8"/>
      </g>
     </g>
     <g id="text_6">
      <!-- 125 -->
      <g transform="translate(268.217712 322.182437) scale(0.1 -0.1)">
       <use xlink:href="#DejaVuSans-31"/>
       <use xlink:href="#DejaVuSans-32" x="63.623047"/>
       <use xlink:href="#DejaVuSans-35" x="127.246094"/>
      </g>
     </g>
    </g>
    <g id="xtick_7">
     <g id="line2d_13">
      <path d="M 318.547209 307.584 
L 318.547209 41.472 
" clip-path="url(#p7557c83470)" style="fill: none; stroke: #b0b0b0; stroke-width: 0.8; stroke-linecap: square"/>
     </g>
     <g id="line2d_14">
      <g>
       <use xlink:href="#m56b1ed5656" x="318.547209" y="307.584" style="stroke: #000000; stroke-width: 0.8"/>
      </g>
     </g>
     <g id="text_7">
      <!-- 150 -->
      <g transform="translate(309.003459 322.182437) scale(0.1 -0.1)">
       <use xlink:href="#DejaVuSans-31"/>
       <use xlink:href="#DejaVuSans-35" x="63.623047"/>
       <use xlink:href="#DejaVuSans-30" x="127.246094"/>
      </g>
     </g>
    </g>
    <g id="xtick_8">
     <g id="line2d_15">
      <path d="M 359.332956 307.584 
L 359.332956 41.472 
" clip-path="url(#p7557c83470)" style="fill: none; stroke: #b0b0b0; stroke-width: 0.8; stroke-linecap: square"/>
     </g>
     <g id="line2d_16">
      <g>
       <use xlink:href="#m56b1ed5656" x="359.332956" y="307.584" style="stroke: #000000; stroke-width: 0.8"/>
      </g>
     </g>
     <g id="text_8">
      <!-- 175 -->
      <g transform="translate(349.789206 322.182437) scale(0.1 -0.1)">
       <use xlink:href="#DejaVuSans-31"/>
       <use xlink:href="#DejaVuSans-37" x="63.623047"/>
       <use xlink:href="#DejaVuSans-35" x="127.246094"/>
      </g>
     </g>
    </g>
    <g id="xtick_9">
     <g id="line2d_17">
      <path d="M 400.118703 307.584 
L 400.118703 41.472 
" clip-path="url(#p7557c83470)" style="fill: none; stroke: #b0b0b0; stroke-width: 0.8; stroke-linecap: square"/>
     </g>
     <g id="line2d_18">
      <g>
       <use xlink:href="#m56b1ed5656" x="400.118703" y="307.584" style="stroke: #000000; stroke-width: 0.8"/>
      </g>
     </g>
     <g id="text_9">
      <!-- 200 -->
      <g transform="translate(390.574953 322.182437) scale(0.1 -0.1)">
       <use xlink:href="#DejaVuSans-32"/>
       <use xlink:href="#DejaVuSans-30" x="63.623047"/>
       <use xlink:href="#DejaVuSans-30" x="127.246094"/>
      </g>
     </g>
    </g>
    <g id="text_10">
     <!-- Generations -->
     <g transform="translate(205.662344 335.860562) scale(0.1 -0.1)">
      <defs>
       <path id="DejaVuSans-47" d="M 3809 666 
L 3809 1919 
L 2778 1919 
L 2778 2438 
L 4434 2438 
L 4434 434 
Q 4069 175 3628 42 
Q 3188 -91 2688 -91 
Q 1594 -91 976 548 
Q 359 1188 359 2328 
Q 359 3472 976 4111 
Q 1594 4750 2688 4750 
Q 3144 4750 3555 4637 
Q 3966 4525 4313 4306 
L 4313 3634 
Q 3963 3931 3569 4081 
Q 3175 4231 2741 4231 
Q 1884 4231 1454 3753 
Q 1025 3275 1025 2328 
Q 1025 1384 1454 906 
Q 1884 428 2741 428 
Q 3075 428 3337 486 
Q 3600 544 3809 666 
z
" transform="scale(0.015625)"/>
       <path id="DejaVuSans-65" d="M 3597 1894 
L 3597 1613 
L 953 1613 
Q 991 1019 1311 708 
Q 1631 397 2203 397 
Q 2534 397 2845 478 
Q 3156 559 3463 722 
L 3463 178 
Q 3153 47 2828 -22 
Q 2503 -91 2169 -91 
Q 1331 -91 842 396 
Q 353 884 353 1716 
Q 353 2575 817 3079 
Q 1281 3584 2069 3584 
Q 2775 3584 3186 3129 
Q 3597 2675 3597 1894 
z
M 3022 2063 
Q 3016 2534 2758 2815 
Q 2500 3097 2075 3097 
Q 1594 3097 1305 2825 
Q 1016 2553 972 2059 
L 3022 2063 
z
" transform="scale(0.015625)"/>
       <path id="DejaVuSans-6e" d="M 3513 2113 
L 3513 0 
L 2938 0 
L 2938 2094 
Q 2938 2591 2744 2837 
Q 2550 3084 2163 3084 
Q 1697 3084 1428 2787 
Q 1159 2491 1159 1978 
L 1159 0 
L 581 0 
L 581 3500 
L 1159 3500 
L 1159 2956 
Q 1366 3272 1645 3428 
Q 1925 3584 2291 3584 
Q 2894 3584 3203 3211 
Q 3513 2838 3513 2113 
z
" transform="scale(0.015625)"/>
       <path id="DejaVuSans-72" d="M 2631 2963 
Q 2534 3019 2420 3045 
Q 2306 3072 2169 3072 
Q 1681 3072 1420 2755 
Q 1159 2438 1159 1844 
L 1159 0 
L 581 0 
L 581 3500 
L 1159 3500 
L 1159 2956 
Q 1341 3275 1631 3429 
Q 1922 3584 2338 3584 
Q 2397 3584 2469 3576 
Q 2541 3569 2628 3553 
L 2631 2963 
z
" transform="scale(0.015625)"/>
       <path id="DejaVuSans-61" d="M 2194 1759 
Q 1497 1759 1228 1600 
Q 959 1441 959 1056 
Q 959 750 1161 570 
Q 1363 391 1709 391 
Q 2188 391 2477 730 
Q 2766 1069 2766 1631 
L 2766 1759 
L 2194 1759 
z
M 3341 1997 
L 3341 0 
L 2766 0 
L 2766 531 
Q 2569 213 2275 61 
Q 1981 -91 1556 -91 
Q 1019 -91 701 211 
Q 384 513 384 1019 
Q 384 1609 779 1909 
Q 1175 2209 1959 2209 
L 2766 2209 
L 2766 2266 
Q 2766 2663 2505 2880 
Q 2244 3097 1772 3097 
Q 1472 3097 1187 3025 
Q 903 2953 641 2809 
L 641 3341 
Q 956 3463 1253 3523 
Q 1550 3584 1831 3584 
Q 2591 3584 2966 3190 
Q 3341 2797 3341 1997 
z
" transform="scale(0.015625)"/>
       <path id="DejaVuSans-74" d="M 1172 4494 
L 1172 3500 
L 2356 3500 
L 2356 3053 
L 1172 3053 
L 1172 1153 
Q 1172 725 1289 603 
Q 1406 481 1766 481 
L 2356 481 
L 2356 0 
L 1766 0 
Q 1100 0 847 248 
Q 594 497 594 1153 
L 594 3053 
L 172 3053 
L 172 3500 
L 594 3500 
L 594 4494 
L 1172 4494 
z
" transform="scale(0.015625)"/>
       <path id="DejaVuSans-69" d="M 603 3500 
L 1178 3500 
L 1178 0 
L 603 0 
L 603 3500 
z
M 603 4863 
L 1178 4863 
L 1178 4134 
L 603 4134 
L 603 4863 
z
" transform="scale(0.015625)"/>
       <path id="DejaVuSans-6f" d="M 1959 3097 
Q 1497 3097 1228 2736 
Q 959 2375 959 1747 
Q 959 1119 1226 758 
Q 1494 397 1959 397 
Q 2419 397 2687 759 
Q 2956 1122 2956 1747 
Q 2956 2369 2687 2733 
Q 2419 3097 1959 3097 
z
M 1959 3584 
Q 2709 3584 3137 3096 
Q 3566 2609 3566 1747 
Q 3566 888 3137 398 
Q 2709 -91 1959 -91 
Q 1206 -91 779 398 
Q 353 888 353 1747 
Q 353 2609 779 3096 
Q 1206 3584 1959 3584 
z
" transform="scale(0.015625)"/>
       <path id="DejaVuSans-73" d="M 2834 3397 
L 2834 2853 
Q 2591 2978 2328 3040 
Q 2066 3103 1784 3103 
Q 1356 3103 1142 2972 
Q 928 2841 928 2578 
Q 928 2378 1081 2264 
Q 1234 2150 1697 2047 
L 1894 2003 
Q 2506 1872 2764 1633 
Q 3022 1394 3022 966 
Q 3022 478 2636 193 
Q 2250 -91 1575 -91 
Q 1294 -91 989 -36 
Q 684 19 347 128 
L 347 722 
Q 666 556 975 473 
Q 1284 391 1588 391 
Q 1994 391 2212 530 
Q 2431 669 2431 922 
Q 2431 1156 2273 1281 
Q 2116 1406 1581 1522 
L 1381 1569 
Q 847 1681 609 1914 
Q 372 2147 372 2553 
Q 372 3047 722 3315 
Q 1072 3584 1716 3584 
Q 2034 3584 2315 3537 
Q 2597 3491 2834 3397 
z
" transform="scale(0.015625)"/>
      </defs>
      <use xlink:href="#DejaVuSans-47"/>
      <use xlink:href="#DejaVuSans-65" x="77.490234"/>
      <use xlink:href="#DejaVuSans-6e" x="139.013672"/>
      <use xlink:href="#DejaVuSans-65" x="202.392578"/>
      <use xlink:href="#DejaVuSans-72" x="263.916016"/>
      <use xlink:href="#DejaVuSans-61" x="305.029297"/>
      <use xlink:href="#DejaVuSans-74" x="366.308594"/>
      <use xlink:href="#DejaVuSans-69" x="405.517578"/>
      <use xlink:href="#DejaVuSans-6f" x="433.300781"/>
      <use xlink:href="#DejaVuSans-6e" x="494.482422"/>
      <use xlink:href="#DejaVuSans-73" x="557.861328"/>
     </g>
    </g>
   </g>
   <g id="matplotlib.axis_2">
    <g id="ytick_1">
     <g id="line2d_19">
      <path d="M 57.6 284.976342 
L 414.72 284.976342 
" clip-path="url(#p7557c83470)" style="fill: none; stroke: #b0b0b0; stroke-width: 0.8; stroke-linecap: square"/>
     </g>
     <g id="line2d_20">
      <defs>
       <path id="mbbacef88c3" d="M 0 0 
L -3.5 0 
" style="stroke: #000000; stroke-width: 0.8"/>
      </defs>
      <g>
       <use xlink:href="#mbbacef88c3" x="57.6" y="284.976342" style="stroke: #000000; stroke-width: 0.8"/>
      </g>
     </g>
     <g id="text_11">
      <!-- −2000 -->
      <g transform="translate(16.770313 288.775561) scale(0.1 -0.1)">
       <defs>
        <path id="DejaVuSans-2212" d="M 678 2272 
L 4684 2272 
L 4684 1741 
L 678 1741 
L 678 2272 
z
" transform="scale(0.015625)"/>
       </defs>
       <use xlink:href="#DejaVuSans-2212"/>
       <use xlink:href="#DejaVuSans-32" x="83.789062"/>
       <use xlink:href="#DejaVuSans-30" x="147.412109"/>
       <use xlink:href="#DejaVuSans-30" x="211.035156"/>
       <use xlink:href="#DejaVuSans-30" x="274.658203"/>
      </g>
     </g>
    </g>
    <g id="ytick_2">
     <g id="line2d_21">
      <path d="M 57.6 249.211926 
L 414.72 249.211926 
" clip-path="url(#p7557c83470)" style="fill: none; stroke: #b0b0b0; stroke-width: 0.8; stroke-linecap: square"/>
     </g>
     <g id="line2d_22">
      <g>
       <use xlink:href="#mbbacef88c3" x="57.6" y="249.211926" style="stroke: #000000; stroke-width: 0.8"/>
      </g>
     </g>
     <g id="text_12">
      <!-- −1750 -->
      <g transform="translate(16.770313 253.011144) scale(0.1 -0.1)">
       <use xlink:href="#DejaVuSans-2212"/>
       <use xlink:href="#DejaVuSans-31" x="83.789062"/>
       <use xlink:href="#DejaVuSans-37" x="147.412109"/>
       <use xlink:href="#DejaVuSans-35" x="211.035156"/>
       <use xlink:href="#DejaVuSans-30" x="274.658203"/>
      </g>
     </g>
    </g>
    <g id="ytick_3">
     <g id="line2d_23">
      <path d="M 57.6 213.447509 
L 414.72 213.447509 
" clip-path="url(#p7557c83470)" style="fill: none; stroke: #b0b0b0; stroke-width: 0.8; stroke-linecap: square"/>
     </g>
     <g id="line2d_24">
      <g>
       <use xlink:href="#mbbacef88c3" x="57.6" y="213.447509" style="stroke: #000000; stroke-width: 0.8"/>
      </g>
     </g>
     <g id="text_13">
      <!-- −1500 -->
      <g transform="translate(16.770313 217.246728) scale(0.1 -0.1)">
       <use xlink:href="#DejaVuSans-2212"/>
       <use xlink:href="#DejaVuSans-31" x="83.789062"/>
       <use xlink:href="#DejaVuSans-35" x="147.412109"/>
       <use xlink:href="#DejaVuSans-30" x="211.035156"/>
       <use xlink:href="#DejaVuSans-30" x="274.658203"/>
      </g>
     </g>
    </g>
    <g id="ytick_4">
     <g id="line2d_25">
      <path d="M 57.6 177.683092 
L 414.72 177.683092 
" clip-path="url(#p7557c83470)" style="fill: none; stroke: #b0b0b0; stroke-width: 0.8; stroke-linecap: square"/>
     </g>
     <g id="line2d_26">
      <g>
       <use xlink:href="#mbbacef88c3" x="57.6" y="177.683092" style="stroke: #000000; stroke-width: 0.8"/>
      </g>
     </g>
     <g id="text_14">
      <!-- −1250 -->
      <g transform="translate(16.770313 181.482311) scale(0.1 -0.1)">
       <use xlink:href="#DejaVuSans-2212"/>
       <use xlink:href="#DejaVuSans-31" x="83.789062"/>
       <use xlink:href="#DejaVuSans-32" x="147.412109"/>
       <use xlink:href="#DejaVuSans-35" x="211.035156"/>
       <use xlink:href="#DejaVuSans-30" x="274.658203"/>
      </g>
     </g>
    </g>
    <g id="ytick_5">
     <g id="line2d_27">
      <path d="M 57.6 141.918675 
L 414.72 141.918675 
" clip-path="url(#p7557c83470)" style="fill: none; stroke: #b0b0b0; stroke-width: 0.8; stroke-linecap: square"/>
     </g>
     <g id="line2d_28">
      <g>
       <use xlink:href="#mbbacef88c3" x="57.6" y="141.918675" style="stroke: #000000; stroke-width: 0.8"/>
      </g>
     </g>
     <g id="text_15">
      <!-- −1000 -->
      <g transform="translate(16.770313 145.717894) scale(0.1 -0.1)">
       <use xlink:href="#DejaVuSans-2212"/>
       <use xlink:href="#DejaVuSans-31" x="83.789062"/>
       <use xlink:href="#DejaVuSans-30" x="147.412109"/>
       <use xlink:href="#DejaVuSans-30" x="211.035156"/>
       <use xlink:href="#DejaVuSans-30" x="274.658203"/>
      </g>
     </g>
    </g>
    <g id="ytick_6">
     <g id="line2d_29">
      <path d="M 57.6 106.154259 
L 414.72 106.154259 
" clip-path="url(#p7557c83470)" style="fill: none; stroke: #b0b0b0; stroke-width: 0.8; stroke-linecap: square"/>
     </g>
     <g id="line2d_30">
      <g>
       <use xlink:href="#mbbacef88c3" x="57.6" y="106.154259" style="stroke: #000000; stroke-width: 0.8"/>
      </g>
     </g>
     <g id="text_16">
      <!-- −750 -->
      <g transform="translate(23.132812 109.953478) scale(0.1 -0.1)">
       <use xlink:href="#DejaVuSans-2212"/>
       <use xlink:href="#DejaVuSans-37" x="83.789062"/>
       <use xlink:href="#DejaVuSans-35" x="147.412109"/>
       <use xlink:href="#DejaVuSans-30" x="211.035156"/>
      </g>
     </g>
    </g>
    <g id="ytick_7">
     <g id="line2d_31">
      <path d="M 57.6 70.389842 
L 414.72 70.389842 
" clip-path="url(#p7557c83470)" style="fill: none; stroke: #b0b0b0; stroke-width: 0.8; stroke-linecap: square"/>
     </g>
     <g id="line2d_32">
      <g>
       <use xlink:href="#mbbacef88c3" x="57.6" y="70.389842" style="stroke: #000000; stroke-width: 0.8"/>
      </g>
     </g>
     <g id="text_17">
      <!-- −500 -->
      <g transform="translate(23.132812 74.189061) scale(0.1 -0.1)">
       <use xlink:href="#DejaVuSans-2212"/>
       <use xlink:href="#DejaVuSans-35" x="83.789062"/>
       <use xlink:href="#DejaVuSans-30" x="147.412109"/>
       <use xlink:href="#DejaVuSans-30" x="211.035156"/>
      </g>
     </g>
    </g>
    <g id="text_18">
     <!-- Fitness -->
     <g transform="translate(10.690625 191.845187) rotate(-90) scale(0.1 -0.1)">
      <defs>
       <path id="DejaVuSans-46" d="M 628 4666 
L 3309 4666 
L 3309 4134 
L 1259 4134 
L 1259 2759 
L 3109 2759 
L 3109 2228 
L 1259 2228 
L 1259 0 
L 628 0 
L 628 4666 
z
" transform="scale(0.015625)"/>
      </defs>
      <use xlink:href="#DejaVuSans-46"/>
      <use xlink:href="#DejaVuSans-69" x="50.269531"/>
      <use xlink:href="#DejaVuSans-74" x="78.052734"/>
      <use xlink:href="#DejaVuSans-6e" x="117.261719"/>
      <use xlink:href="#DejaVuSans-65" x="180.640625"/>
      <use xlink:href="#DejaVuSans-73" x="242.164062"/>
      <use xlink:href="#DejaVuSans-73" x="294.263672"/>
     </g>
    </g>
   </g>
   <g id="line2d_33">
    <path d="M 73.832727 268.03101 
L 75.464157 266.118977 
L 77.095587 262.318896 
L 78.727017 260.369562 
L 80.358447 259.613679 
L 81.989877 259.409776 
L 83.621307 259.523734 
L 85.252736 258.254897 
L 86.884166 258.124066 
L 90.147026 257.585651 
L 91.778456 259.879295 
L 93.409886 259.312111 
L 95.041316 259.578007 
L 96.672746 257.331402 
L 98.304175 257.448019 
L 101.567035 258.57736 
L 103.198465 257.821878 
L 104.829895 259.571405 
L 106.461325 259.385552 
L 108.092755 259.675873 
L 109.724185 261.098285 
L 111.355614 260.382322 
L 112.987044 260.316812 
L 114.618474 260.626151 
L 116.249904 260.096764 
L 117.881334 260.243579 
L 119.512764 260.503258 
L 121.144194 261.327196 
L 122.775624 261.886909 
L 124.407053 260.899403 
L 126.038483 261.245614 
L 127.669913 260.473939 
L 129.301343 261.414185 
L 130.932773 261.267563 
L 132.564203 262.136258 
L 134.195633 261.732074 
L 135.827063 261.978659 
L 137.458492 260.979218 
L 139.089922 260.873097 
L 140.721352 261.185837 
L 142.352782 261.118958 
L 143.984212 260.762128 
L 145.615642 261.162694 
L 147.247072 259.921794 
L 148.878502 260.438731 
L 150.509931 260.496767 
L 152.141361 260.096332 
L 153.772791 260.088195 
L 155.404221 260.893046 
L 157.035651 259.616756 
L 158.667081 258.935285 
L 160.298511 258.042506 
L 161.929941 258.988742 
L 163.56137 258.98928 
L 165.1928 258.083577 
L 166.82423 259.231879 
L 168.45566 259.805585 
L 170.08709 259.426478 
L 171.71852 259.72458 
L 173.34995 259.30051 
L 174.98138 258.562774 
L 176.61281 258.895255 
L 178.244239 259.581698 
L 179.875669 257.665541 
L 181.507099 258.449363 
L 184.769959 259.200688 
L 186.401389 258.32245 
L 188.032819 258.849091 
L 189.664249 257.141816 
L 191.295678 258.753112 
L 192.927108 258.538688 
L 194.558538 259.137039 
L 196.189968 259.169914 
L 197.821398 258.128691 
L 199.452828 259.234404 
L 201.084258 257.245022 
L 202.715688 257.792916 
L 204.347117 257.823718 
L 205.978547 258.180447 
L 207.609977 257.392888 
L 210.872837 258.353277 
L 212.504267 256.682048 
L 214.135697 257.681996 
L 215.767127 258.164043 
L 217.398556 257.953389 
L 219.029986 258.311861 
L 222.292846 257.338522 
L 223.924276 259.690624 
L 225.555706 258.609749 
L 227.187136 258.131544 
L 228.818566 257.796938 
L 230.449995 257.733063 
L 232.081425 255.860519 
L 233.712855 257.49323 
L 235.344285 258.685227 
L 236.975715 258.632067 
L 238.607145 258.237839 
L 241.870005 257.846199 
L 243.501434 256.262906 
L 245.132864 258.109417 
L 246.764294 257.643798 
L 248.395724 258.817171 
L 250.027154 258.663289 
L 251.658584 258.686553 
L 253.290014 259.389581 
L 254.921444 258.953234 
L 256.552873 259.517596 
L 258.184303 259.011616 
L 259.815733 259.761223 
L 261.447163 260.104023 
L 263.078593 259.681485 
L 264.710023 258.446237 
L 266.341453 258.511664 
L 267.972883 259.372624 
L 269.604312 259.47044 
L 271.235742 259.709914 
L 274.498602 259.359116 
L 276.130032 258.244394 
L 277.761462 259.273157 
L 279.392892 258.580534 
L 281.024322 258.176149 
L 282.655751 257.323148 
L 284.287181 259.062981 
L 285.918611 258.066984 
L 287.550041 257.770374 
L 289.181471 257.821544 
L 290.812901 258.281578 
L 292.444331 258.532562 
L 294.075761 258.232237 
L 295.70719 259.497622 
L 297.33862 258.96617 
L 298.97005 259.168699 
L 300.60148 259.533599 
L 302.23291 259.509279 
L 303.86434 259.665987 
L 305.49577 259.264969 
L 307.1272 259.474055 
L 308.75863 258.630473 
L 310.390059 259.699549 
L 312.021489 259.586186 
L 313.652919 260.522258 
L 315.284349 260.053038 
L 316.915779 259.979694 
L 318.547209 259.495086 
L 320.178639 259.195875 
L 321.810069 259.32682 
L 323.441498 259.227813 
L 325.072928 258.551393 
L 326.704358 256.951667 
L 328.335788 257.895591 
L 329.967218 257.801046 
L 331.598648 257.996033 
L 333.230078 257.191514 
L 334.861508 258.29247 
L 336.492937 258.063014 
L 338.124367 257.243156 
L 339.755797 258.828327 
L 341.387227 257.273223 
L 343.018657 257.594475 
L 344.650087 258.908147 
L 346.281517 258.650804 
L 347.912947 258.143954 
L 349.544376 256.838788 
L 351.175806 256.744336 
L 352.807236 257.123688 
L 354.438666 257.304139 
L 356.070096 256.356773 
L 357.701526 257.499185 
L 359.332956 257.559328 
L 360.964386 258.046198 
L 364.227245 257.361302 
L 365.858675 257.175193 
L 367.490105 256.54319 
L 369.121535 257.470862 
L 370.752965 256.965798 
L 372.384395 256.749422 
L 374.015825 257.246505 
L 375.647254 255.736374 
L 377.278684 255.107701 
L 378.910114 252.351625 
L 380.541544 254.584498 
L 382.172974 255.833935 
L 383.804404 256.120613 
L 385.435834 254.793604 
L 387.067264 256.509113 
L 388.698693 256.602617 
L 390.330123 257.800564 
L 391.961553 255.423894 
L 393.592983 255.384693 
L 395.224413 254.083007 
L 396.855843 256.617661 
L 398.487273 256.764599 
L 398.487273 256.764599 
" clip-path="url(#p7557c83470)" style="fill: none; stroke: #0000ff; stroke-width: 1.5; stroke-linecap: square"/>
   </g>
   <g id="line2d_34">
    <path d="M 73.832727 287.968028 
L 75.464157 286.073806 
L 77.095587 285.201621 
L 78.727017 288.362961 
L 80.358447 285.885112 
L 81.989877 284.963291 
L 83.621307 284.907223 
L 85.252736 284.654184 
L 86.884166 286.201676 
L 88.515596 286.519582 
L 90.147026 285.578847 
L 91.778456 285.08843 
L 95.041316 284.685788 
L 96.672746 288.06704 
L 98.304175 287.653734 
L 99.935605 287.863673 
L 101.567035 288.221158 
L 103.198465 287.654741 
L 104.829895 286.354574 
L 106.461325 282.506993 
L 108.092755 283.251365 
L 109.724185 284.812641 
L 111.355614 283.806813 
L 112.987044 283.851181 
L 114.618474 284.316744 
L 116.249904 283.358344 
L 117.881334 283.583759 
L 119.512764 283.34576 
L 121.144194 280.834952 
L 122.775624 280.791197 
L 124.407053 280.254631 
L 126.038483 280.351248 
L 127.669913 279.416705 
L 129.301343 279.218941 
L 130.932773 278.80419 
L 132.564203 280.549447 
L 135.827063 279.030969 
L 137.458492 280.804688 
L 139.089922 281.252161 
L 140.721352 282.437887 
L 142.352782 282.367871 
L 143.984212 281.826826 
L 145.615642 282.974634 
L 147.247072 281.394463 
L 148.878502 282.428051 
L 150.509931 282.798396 
L 152.141361 282.960463 
L 153.772791 283.391418 
L 155.404221 284.879203 
L 157.035651 283.100177 
L 158.667081 282.777352 
L 160.298511 285.709521 
L 161.929941 283.581428 
L 163.56137 285.358345 
L 165.1928 287.852554 
L 166.82423 285.648505 
L 168.45566 286.531832 
L 170.08709 285.781196 
L 171.71852 285.492275 
L 173.34995 285.074004 
L 174.98138 285.393069 
L 176.61281 284.97329 
L 178.244239 285.364202 
L 179.875669 285.586494 
L 181.507099 290.538686 
L 183.138529 288.482758 
L 184.769959 288.811152 
L 186.401389 287.853515 
L 188.032819 288.374968 
L 189.664249 290.859863 
L 191.295678 290.82338 
L 192.927108 290.036654 
L 194.558538 291.115487 
L 196.189968 291.316599 
L 197.821398 291.309502 
L 201.084258 292.611873 
L 202.715688 290.745129 
L 204.347117 291.069929 
L 205.978547 291.1791 
L 207.609977 290.361994 
L 209.241407 291.208937 
L 210.872837 291.422038 
L 212.504267 292.253352 
L 214.135697 293.260026 
L 215.767127 292.172268 
L 217.398556 290.771558 
L 219.029986 290.455963 
L 220.661416 292.585632 
L 222.292846 292.632472 
L 223.924276 291.02929 
L 225.555706 290.200557 
L 227.187136 289.841525 
L 228.818566 289.252189 
L 230.449995 290.587045 
L 232.081425 293.267635 
L 233.712855 291.803488 
L 235.344285 292.503835 
L 236.975715 290.79458 
L 238.607145 291.699699 
L 240.238575 291.499215 
L 241.870005 290.45218 
L 245.132864 289.541345 
L 246.764294 289.071956 
L 248.395724 288.895965 
L 250.027154 289.181073 
L 251.658584 288.263491 
L 253.290014 288.206566 
L 254.921444 287.680754 
L 256.552873 288.362308 
L 258.184303 288.295084 
L 263.078593 287.005837 
L 264.710023 288.372586 
L 266.341453 287.505581 
L 267.972883 288.167185 
L 269.604312 288.293811 
L 271.235742 288.612619 
L 272.867172 286.818126 
L 274.498602 286.551859 
L 276.130032 286.730893 
L 277.761462 287.972942 
L 279.392892 288.092882 
L 281.024322 289.119706 
L 282.655751 292.131203 
L 284.287181 289.868373 
L 285.918611 290.852745 
L 287.550041 289.836951 
L 289.181471 288.440658 
L 290.812901 287.610091 
L 292.444331 288.761425 
L 294.075761 287.974586 
L 295.70719 288.213916 
L 297.33862 286.825318 
L 298.97005 286.245074 
L 300.60148 286.766149 
L 302.23291 286.738786 
L 303.86434 286.221074 
L 305.49577 287.084951 
L 307.1272 287.453853 
L 308.75863 288.526342 
L 310.390059 287.756794 
L 313.652919 287.304812 
L 315.284349 286.722349 
L 316.915779 286.646317 
L 318.547209 287.503545 
L 320.178639 287.858287 
L 321.810069 288.914442 
L 323.441498 290.189891 
L 325.072928 289.313888 
L 326.704358 291.686008 
L 328.335788 291.014543 
L 329.967218 290.982005 
L 331.598648 291.398628 
L 333.230078 293.086816 
L 334.861508 289.29055 
L 336.492937 289.567351 
L 338.124367 290.378983 
L 339.755797 288.916334 
L 341.387227 289.701094 
L 343.018657 289.747912 
L 344.650087 289.267056 
L 346.281517 287.279757 
L 347.912947 288.176928 
L 349.544376 290.12169 
L 351.175806 290.109118 
L 352.807236 291.619703 
L 354.438666 290.963906 
L 356.070096 292.330128 
L 357.701526 291.800544 
L 359.332956 291.017653 
L 362.595815 290.109629 
L 364.227245 290.218169 
L 365.858675 291.966427 
L 367.490105 291.83133 
L 369.121535 293.493839 
L 370.752965 293.726636 
L 374.015825 294.825693 
L 375.647254 294.773461 
L 380.541544 294.057311 
L 382.172974 295.008502 
L 383.804404 294.129732 
L 385.435834 295.488 
L 387.067264 293.716458 
L 388.698693 294.480777 
L 390.330123 291.929345 
L 391.961553 290.374919 
L 393.592983 292.330265 
L 395.224413 292.54085 
L 396.855843 291.836623 
L 398.487273 292.346577 
L 398.487273 292.346577 
" clip-path="url(#p7557c83470)" style="fill: none; stroke-dasharray: 9.6,2.4,1.5,2.4; stroke-dashoffset: 0; stroke: #008000; stroke-width: 1.5"/>
   </g>
   <g id="line2d_35">
    <path d="M 73.832727 248.093991 
L 75.464157 246.164149 
L 78.727017 232.376163 
L 80.358447 233.342246 
L 81.989877 233.856261 
L 83.621307 234.140244 
L 85.252736 231.85561 
L 86.884166 230.046457 
L 88.515596 229.086993 
L 90.147026 229.592455 
L 91.778456 234.67016 
L 93.409886 233.77305 
L 95.041316 234.470226 
L 96.672746 226.595764 
L 98.304175 227.242304 
L 99.935605 228.24478 
L 101.567035 228.933561 
L 103.198465 227.989015 
L 104.829895 232.788236 
L 106.461325 236.26411 
L 108.092755 236.100381 
L 109.724185 237.383929 
L 111.355614 236.957831 
L 112.987044 236.782444 
L 114.618474 236.935558 
L 116.249904 236.835184 
L 117.881334 236.903398 
L 119.512764 237.660756 
L 121.144194 241.819439 
L 122.775624 242.982621 
L 124.407053 241.544175 
L 126.038483 242.13998 
L 127.669913 241.531173 
L 129.301343 243.609429 
L 130.932773 243.730935 
L 134.195633 243.714354 
L 135.827063 244.926349 
L 137.458492 241.153747 
L 140.721352 239.933787 
L 143.984212 239.697429 
L 145.615642 239.350755 
L 147.247072 238.449126 
L 148.878502 238.449412 
L 150.509931 238.195137 
L 152.141361 237.232201 
L 153.772791 236.784971 
L 155.404221 236.906889 
L 157.035651 236.133334 
L 158.667081 235.093219 
L 160.298511 230.375492 
L 161.929941 234.396056 
L 163.56137 232.620216 
L 165.1928 228.314599 
L 166.82423 232.815253 
L 168.45566 233.079339 
L 170.08709 233.07176 
L 171.71852 233.956885 
L 173.34995 233.527016 
L 174.98138 231.732479 
L 178.244239 233.799194 
L 179.875669 229.744589 
L 181.507099 226.360039 
L 183.138529 229.212499 
L 184.769959 229.590224 
L 186.401389 228.791384 
L 188.032819 229.323215 
L 189.664249 223.42377 
L 191.295678 226.682845 
L 192.927108 227.040723 
L 194.558538 227.158591 
L 196.189968 227.023229 
L 197.821398 224.947879 
L 199.452828 226.459967 
L 201.084258 221.878172 
L 202.715688 224.840704 
L 204.347117 224.577506 
L 205.978547 225.181793 
L 207.609977 224.423783 
L 209.241407 224.62297 
L 210.872837 225.284517 
L 212.504267 221.110744 
L 214.135697 222.103966 
L 215.767127 224.155818 
L 219.029986 226.167758 
L 220.661416 222.971967 
L 222.292846 222.044572 
L 223.924276 228.351958 
L 225.555706 227.01894 
L 227.187136 226.421563 
L 228.818566 226.341687 
L 230.449995 224.879082 
L 232.081425 218.453402 
L 233.712855 223.182973 
L 236.975715 226.469554 
L 238.607145 224.775979 
L 240.238575 224.677841 
L 241.870005 225.240217 
L 243.501434 222.493124 
L 245.132864 226.67749 
L 246.764294 226.21564 
L 248.395724 228.738377 
L 250.027154 228.145504 
L 251.658584 229.109615 
L 253.290014 230.572596 
L 254.921444 230.225713 
L 256.552873 230.672885 
L 258.184303 229.728148 
L 259.815733 231.676835 
L 261.447163 232.763468 
L 263.078593 232.357133 
L 264.710023 228.519887 
L 267.972883 230.578063 
L 271.235742 230.80721 
L 272.867172 232.32062 
L 274.498602 232.166372 
L 276.130032 229.757894 
L 277.761462 230.573372 
L 279.392892 229.068185 
L 281.024322 227.232592 
L 282.655751 222.515094 
L 284.287181 228.257588 
L 285.918611 225.281223 
L 287.550041 225.703797 
L 289.181471 227.20243 
L 290.812901 228.953065 
L 292.444331 228.3037 
L 294.075761 228.489887 
L 295.70719 230.781328 
L 297.33862 231.107022 
L 298.97005 232.092323 
L 300.60148 232.301049 
L 302.23291 232.279772 
L 303.86434 233.1109 
L 305.49577 231.444987 
L 307.1272 231.494256 
L 308.75863 228.734605 
L 310.390059 231.642304 
L 312.021489 231.593436 
L 313.652919 233.739705 
L 315.284349 233.383727 
L 316.915779 233.313072 
L 318.547209 231.486627 
L 320.178639 230.533462 
L 321.810069 229.739197 
L 323.441498 228.265735 
L 325.072928 227.788897 
L 326.704358 222.217326 
L 328.335788 224.776639 
L 329.967218 224.620087 
L 331.598648 224.593439 
L 333.230078 221.296213 
L 334.861508 227.29439 
L 336.492937 226.558677 
L 338.124367 224.10733 
L 339.755797 228.74032 
L 341.387227 224.845352 
L 343.018657 225.441038 
L 344.650087 228.549238 
L 346.281517 230.021851 
L 347.912947 228.110979 
L 349.544376 223.555886 
L 351.175806 223.379555 
L 352.807236 222.627673 
L 354.438666 223.644371 
L 356.070096 220.383418 
L 357.701526 223.197825 
L 359.332956 224.101003 
L 360.964386 225.491675 
L 362.595815 225.210151 
L 364.227245 224.504435 
L 365.858675 222.383959 
L 367.490105 221.255051 
L 369.121535 221.447886 
L 370.752965 220.20496 
L 372.384395 219.215208 
L 374.015825 219.667318 
L 375.647254 216.699288 
L 377.278684 215.702579 
L 378.910114 210.414089 
L 380.541544 215.111684 
L 383.804404 218.111495 
L 385.435834 214.099208 
L 387.067264 219.301767 
L 388.698693 218.724458 
L 390.330123 223.671784 
L 391.961553 220.47287 
L 393.592983 218.439121 
L 395.224413 215.625165 
L 396.855843 221.398699 
L 398.487273 221.18262 
L 398.487273 221.18262 
" clip-path="url(#p7557c83470)" style="fill: none; stroke-dasharray: 9.6,2.4,1.5,2.4; stroke-dashoffset: 0; stroke: #008000; stroke-width: 1.5"/>
   </g>
   <g id="line2d_36">
    <path d="M 73.832727 130.361307 
L 77.095587 130.361307 
L 78.727017 81.837636 
L 95.041316 81.837636 
L 96.672746 76.706141 
L 179.875669 76.706141 
L 181.507099 53.568 
L 398.487273 53.568 
L 398.487273 53.568 
" clip-path="url(#p7557c83470)" style="fill: none; stroke: #ff0000; stroke-width: 1.5; stroke-linecap: square"/>
   </g>
   <g id="patch_3">
    <path d="M 57.6 307.584 
L 57.6 41.472 
" style="fill: none; stroke: #000000; stroke-width: 0.8; stroke-linejoin: miter; stroke-linecap: square"/>
   </g>
   <g id="patch_4">
    <path d="M 414.72 307.584 
L 414.72 41.472 
" style="fill: none; stroke: #000000; stroke-width: 0.8; stroke-linejoin: miter; stroke-linecap: square"/>
   </g>
   <g id="patch_5">
    <path d="M 57.6 307.584 
L 414.72 307.584 
" style="fill: none; stroke: #000000; stroke-width: 0.8; stroke-linejoin: miter; stroke-linecap: square"/>
   </g>
   <g id="patch_6">
    <path d="M 57.6 41.472 
L 414.72 41.472 
" style="fill: none; stroke: #000000; stroke-width: 0.8; stroke-linejoin: miter; stroke-linecap: square"/>
   </g>
   <g id="text_19">
    <!-- Population's average and best fitness -->
    <g transform="translate(123.529687 35.472) scale(0.12 -0.12)">
     <defs>
      <path id="DejaVuSans-50" d="M 1259 4147 
L 1259 2394 
L 2053 2394 
Q 2494 2394 2734 2622 
Q 2975 2850 2975 3272 
Q 2975 3691 2734 3919 
Q 2494 4147 2053 4147 
L 1259 4147 
z
M 628 4666 
L 2053 4666 
Q 2838 4666 3239 4311 
Q 3641 3956 3641 3272 
Q 3641 2581 3239 2228 
Q 2838 1875 2053 1875 
L 1259 1875 
L 1259 0 
L 628 0 
L 628 4666 
z
" transform="scale(0.015625)"/>
      <path id="DejaVuSans-70" d="M 1159 525 
L 1159 -1331 
L 581 -1331 
L 581 3500 
L 1159 3500 
L 1159 2969 
Q 1341 3281 1617 3432 
Q 1894 3584 2278 3584 
Q 2916 3584 3314 3078 
Q 3713 2572 3713 1747 
Q 3713 922 3314 415 
Q 2916 -91 2278 -91 
Q 1894 -91 1617 61 
Q 1341 213 1159 525 
z
M 3116 1747 
Q 3116 2381 2855 2742 
Q 2594 3103 2138 3103 
Q 1681 3103 1420 2742 
Q 1159 2381 1159 1747 
Q 1159 1113 1420 752 
Q 1681 391 2138 391 
Q 2594 391 2855 752 
Q 3116 1113 3116 1747 
z
" transform="scale(0.015625)"/>
      <path id="DejaVuSans-75" d="M 544 1381 
L 544 3500 
L 1119 3500 
L 1119 1403 
Q 1119 906 1312 657 
Q 1506 409 1894 409 
Q 2359 409 2629 706 
Q 2900 1003 2900 1516 
L 2900 3500 
L 3475 3500 
L 3475 0 
L 2900 0 
L 2900 538 
Q 2691 219 2414 64 
Q 2138 -91 1772 -91 
Q 1169 -91 856 284 
Q 544 659 544 1381 
z
M 1991 3584 
L 1991 3584 
z
" transform="scale(0.015625)"/>
      <path id="DejaVuSans-6c" d="M 603 4863 
L 1178 4863 
L 1178 0 
L 603 0 
L 603 4863 
z
" transform="scale(0.015625)"/>
      <path id="DejaVuSans-27" d="M 1147 4666 
L 1147 2931 
L 616 2931 
L 616 4666 
L 1147 4666 
z
" transform="scale(0.015625)"/>
      <path id="DejaVuSans-20" transform="scale(0.015625)"/>
      <path id="DejaVuSans-76" d="M 191 3500 
L 800 3500 
L 1894 563 
L 2988 3500 
L 3597 3500 
L 2284 0 
L 1503 0 
L 191 3500 
z
" transform="scale(0.015625)"/>
      <path id="DejaVuSans-67" d="M 2906 1791 
Q 2906 2416 2648 2759 
Q 2391 3103 1925 3103 
Q 1463 3103 1205 2759 
Q 947 2416 947 1791 
Q 947 1169 1205 825 
Q 1463 481 1925 481 
Q 2391 481 2648 825 
Q 2906 1169 2906 1791 
z
M 3481 434 
Q 3481 -459 3084 -895 
Q 2688 -1331 1869 -1331 
Q 1566 -1331 1297 -1286 
Q 1028 -1241 775 -1147 
L 775 -588 
Q 1028 -725 1275 -790 
Q 1522 -856 1778 -856 
Q 2344 -856 2625 -561 
Q 2906 -266 2906 331 
L 2906 616 
Q 2728 306 2450 153 
Q 2172 0 1784 0 
Q 1141 0 747 490 
Q 353 981 353 1791 
Q 353 2603 747 3093 
Q 1141 3584 1784 3584 
Q 2172 3584 2450 3431 
Q 2728 3278 2906 2969 
L 2906 3500 
L 3481 3500 
L 3481 434 
z
" transform="scale(0.015625)"/>
      <path id="DejaVuSans-64" d="M 2906 2969 
L 2906 4863 
L 3481 4863 
L 3481 0 
L 2906 0 
L 2906 525 
Q 2725 213 2448 61 
Q 2172 -91 1784 -91 
Q 1150 -91 751 415 
Q 353 922 353 1747 
Q 353 2572 751 3078 
Q 1150 3584 1784 3584 
Q 2172 3584 2448 3432 
Q 2725 3281 2906 2969 
z
M 947 1747 
Q 947 1113 1208 752 
Q 1469 391 1925 391 
Q 2381 391 2643 752 
Q 2906 1113 2906 1747 
Q 2906 2381 2643 2742 
Q 2381 3103 1925 3103 
Q 1469 3103 1208 2742 
Q 947 2381 947 1747 
z
" transform="scale(0.015625)"/>
      <path id="DejaVuSans-62" d="M 3116 1747 
Q 3116 2381 2855 2742 
Q 2594 3103 2138 3103 
Q 1681 3103 1420 2742 
Q 1159 2381 1159 1747 
Q 1159 1113 1420 752 
Q 1681 391 2138 391 
Q 2594 391 2855 752 
Q 3116 1113 3116 1747 
z
M 1159 2969 
Q 1341 3281 1617 3432 
Q 1894 3584 2278 3584 
Q 2916 3584 3314 3078 
Q 3713 2572 3713 1747 
Q 3713 922 3314 415 
Q 2916 -91 2278 -91 
Q 1894 -91 1617 61 
Q 1341 213 1159 525 
L 1159 0 
L 581 0 
L 581 4863 
L 1159 4863 
L 1159 2969 
z
" transform="scale(0.015625)"/>
      <path id="DejaVuSans-66" d="M 2375 4863 
L 2375 4384 
L 1825 4384 
Q 1516 4384 1395 4259 
Q 1275 4134 1275 3809 
L 1275 3500 
L 2222 3500 
L 2222 3053 
L 1275 3053 
L 1275 0 
L 697 0 
L 697 3053 
L 147 3053 
L 147 3500 
L 697 3500 
L 697 3744 
Q 697 4328 969 4595 
Q 1241 4863 1831 4863 
L 2375 4863 
z
" transform="scale(0.015625)"/>
     </defs>
     <use xlink:href="#DejaVuSans-50"/>
     <use xlink:href="#DejaVuSans-6f" x="56.677734"/>
     <use xlink:href="#DejaVuSans-70" x="117.859375"/>
     <use xlink:href="#DejaVuSans-75" x="181.335938"/>
     <use xlink:href="#DejaVuSans-6c" x="244.714844"/>
     <use xlink:href="#DejaVuSans-61" x="272.498047"/>
     <use xlink:href="#DejaVuSans-74" x="333.777344"/>
     <use xlink:href="#DejaVuSans-69" x="372.986328"/>
     <use xlink:href="#DejaVuSans-6f" x="400.769531"/>
     <use xlink:href="#DejaVuSans-6e" x="461.951172"/>
     <use xlink:href="#DejaVuSans-27" x="525.330078"/>
     <use xlink:href="#DejaVuSans-73" x="552.820312"/>
     <use xlink:href="#DejaVuSans-20" x="604.919922"/>
     <use xlink:href="#DejaVuSans-61" x="636.707031"/>
     <use xlink:href="#DejaVuSans-76" x="697.986328"/>
     <use xlink:href="#DejaVuSans-65" x="757.166016"/>
     <use xlink:href="#DejaVuSans-72" x="818.689453"/>
     <use xlink:href="#DejaVuSans-61" x="859.802734"/>
     <use xlink:href="#DejaVuSans-67" x="921.082031"/>
     <use xlink:href="#DejaVuSans-65" x="984.558594"/>
     <use xlink:href="#DejaVuSans-20" x="1046.082031"/>
     <use xlink:href="#DejaVuSans-61" x="1077.869141"/>
     <use xlink:href="#DejaVuSans-6e" x="1139.148438"/>
     <use xlink:href="#DejaVuSans-64" x="1202.527344"/>
     <use xlink:href="#DejaVuSans-20" x="1266.003906"/>
     <use xlink:href="#DejaVuSans-62" x="1297.791016"/>
     <use xlink:href="#DejaVuSans-65" x="1361.267578"/>
     <use xlink:href="#DejaVuSans-73" x="1422.791016"/>
     <use xlink:href="#DejaVuSans-74" x="1474.890625"/>
     <use xlink:href="#DejaVuSans-20" x="1514.099609"/>
     <use xlink:href="#DejaVuSans-66" x="1545.886719"/>
     <use xlink:href="#DejaVuSans-69" x="1581.091797"/>
     <use xlink:href="#DejaVuSans-74" x="1608.875"/>
     <use xlink:href="#DejaVuSans-6e" x="1648.083984"/>
     <use xlink:href="#DejaVuSans-65" x="1711.462891"/>
     <use xlink:href="#DejaVuSans-73" x="1772.986328"/>
     <use xlink:href="#DejaVuSans-73" x="1825.085938"/>
    </g>
   </g>
   <g id="legend_1">
    <g id="patch_7">
     <path d="M 334.779375 205.38425 
L 407.72 205.38425 
Q 409.72 205.38425 409.72 203.38425 
L 409.72 145.67175 
Q 409.72 143.67175 407.72 143.67175 
L 334.779375 143.67175 
Q 332.779375 143.67175 332.779375 145.67175 
L 332.779375 203.38425 
Q 332.779375 205.38425 334.779375 205.38425 
z
" style="fill: #ffffff; opacity: 0.8; stroke: #cccccc; stroke-linejoin: miter"/>
    </g>
    <g id="line2d_37">
     <path d="M 336.779375 151.770188 
L 346.779375 151.770188 
L 356.779375 151.770188 
" style="fill: none; stroke: #0000ff; stroke-width: 1.5; stroke-linecap: square"/>
    </g>
    <g id="text_20">
     <!-- average -->
     <g transform="translate(364.779375 155.270188) scale(0.1 -0.1)">
      <use xlink:href="#DejaVuSans-61"/>
      <use xlink:href="#DejaVuSans-76" x="61.279297"/>
      <use xlink:href="#DejaVuSans-65" x="120.458984"/>
      <use xlink:href="#DejaVuSans-72" x="181.982422"/>
      <use xlink:href="#DejaVuSans-61" x="223.095703"/>
      <use xlink:href="#DejaVuSans-67" x="284.375"/>
      <use xlink:href="#DejaVuSans-65" x="347.851562"/>
     </g>
    </g>
    <g id="line2d_38">
     <path d="M 336.779375 166.448313 
L 346.779375 166.448313 
L 356.779375 166.448313 
" style="fill: none; stroke-dasharray: 9.6,2.4,1.5,2.4; stroke-dashoffset: 0; stroke: #008000; stroke-width: 1.5"/>
    </g>
    <g id="text_21">
     <!-- -1 sd -->
     <g transform="translate(364.779375 169.948313) scale(0.1 -0.1)">
      <defs>
       <path id="DejaVuSans-2d" d="M 313 2009 
L 1997 2009 
L 1997 1497 
L 313 1497 
L 313 2009 
z
" transform="scale(0.015625)"/>
      </defs>
      <use xlink:href="#DejaVuSans-2d"/>
      <use xlink:href="#DejaVuSans-31" x="36.083984"/>
      <use xlink:href="#DejaVuSans-20" x="99.707031"/>
      <use xlink:href="#DejaVuSans-73" x="131.494141"/>
      <use xlink:href="#DejaVuSans-64" x="183.59375"/>
     </g>
    </g>
    <g id="line2d_39">
     <path d="M 336.779375 181.126438 
L 346.779375 181.126438 
L 356.779375 181.126438 
" style="fill: none; stroke-dasharray: 9.6,2.4,1.5,2.4; stroke-dashoffset: 0; stroke: #008000; stroke-width: 1.5"/>
    </g>
    <g id="text_22">
     <!-- +1 sd -->
     <g transform="translate(364.779375 184.626438) scale(0.1 -0.1)">
      <defs>
       <path id="DejaVuSans-2b" d="M 2944 4013 
L 2944 2272 
L 4684 2272 
L 4684 1741 
L 2944 1741 
L 2944 0 
L 2419 0 
L 2419 1741 
L 678 1741 
L 678 2272 
L 2419 2272 
L 2419 4013 
L 2944 4013 
z
" transform="scale(0.015625)"/>
      </defs>
      <use xlink:href="#DejaVuSans-2b"/>
      <use xlink:href="#DejaVuSans-31" x="83.789062"/>
      <use xlink:href="#DejaVuSans-20" x="147.412109"/>
      <use xlink:href="#DejaVuSans-73" x="179.199219"/>
      <use xlink:href="#DejaVuSans-64" x="231.298828"/>
     </g>
    </g>
    <g id="line2d_40">
     <path d="M 336.779375 195.804563 
L 346.779375 195.804563 
L 356.779375 195.804563 
" style="fill: none; stroke: #ff0000; stroke-width: 1.5; stroke-linecap: square"/>
    </g>
    <g id="text_23">
     <!-- best -->
     <g transform="translate(364.779375 199.304563) scale(0.1 -0.1)">
      <use xlink:href="#DejaVuSans-62"/>
      <use xlink:href="#DejaVuSans-65" x="63.476562"/>
      <use xlink:href="#DejaVuSans-73" x="125"/>
      <use xlink:href="#DejaVuSans-74" x="177.099609"/>
     </g>
    </g>
   </g>
  </g>
 </g>
 <defs>
  <clipPath id="p7557c83470">
   <rect x="57.6" y="41.472" width="357.12" height="266.112"/>
  </clipPath>
 </defs>
</svg>
