<?xml version="1.0" encoding="utf-8" standalone="no"?>
<!DOCTYPE svg PUBLIC "-//W3C//DTD SVG 1.1//EN"
  "http://www.w3.org/Graphics/SVG/1.1/DTD/svg11.dtd">
<svg xmlns:xlink="http://www.w3.org/1999/xlink" width="460.8pt" height="345.6pt" viewBox="0 0 460.8 345.6" xmlns="http://www.w3.org/2000/svg" version="1.1">
 <metadata>
  <rdf:RDF xmlns:dc="http://purl.org/dc/elements/1.1/" xmlns:cc="http://creativecommons.org/ns#" xmlns:rdf="http://www.w3.org/1999/02/22-rdf-syntax-ns#">
   <cc:Work>
    <dc:type rdf:resource="http://purl.org/dc/dcmitype/StillImage"/>
    <dc:date>2024-08-09T09:12:16.923662</dc:date>
    <dc:format>image/svg+xml</dc:format>
    <dc:creator>
     <cc:Agent>
      <dc:title>Matplotlib v3.8.4, https://matplotlib.org/</dc:title>
     </cc:Agent>
    </dc:creator>
   </cc:Work>
  </rdf:RDF>
 </metadata>
 <defs>
  <style type="text/css">*{stroke-linejoin: round; stroke-linecap: butt}</style>
 </defs>
 <g id="figure_1">
  <g id="patch_1">
   <path d="M 0 345.6 
L 460.8 345.6 
L 460.8 0 
L 0 0 
z
" style="fill: #ffffff"/>
  </g>
  <g id="axes_1">
   <g id="patch_2">
    <path d="M 57.6 307.584 
L 414.72 307.584 
L 414.72 41.472 
L 57.6 41.472 
z
" style="fill: #ffffff"/>
   </g>
   <g id="matplotlib.axis_1">
    <g id="xtick_1">
     <g id="line2d_1">
      <path d="M 73.832727 307.584 
L 73.832727 41.472 
" clip-path="url(#pc2af2f5348)" style="fill: none; stroke: #b0b0b0; stroke-width: 0.8; stroke-linecap: square"/>
     </g>
     <g id="line2d_2">
      <defs>
       <path id="m0a4ef33930" d="M 0 0 
L 0 3.5 
" style="stroke: #000000; stroke-width: 0.8"/>
      </defs>
      <g>
       <use xlink:href="#m0a4ef33930" x="73.832727" y="307.584" style="stroke: #000000; stroke-width: 0.8"/>
      </g>
     </g>
     <g id="text_1">
      <!-- 0 -->
      <g transform="translate(70.651477 322.182437) scale(0.1 -0.1)">
       <defs>
        <path id="DejaVuSans-30" d="M 2034 4250 
Q 1547 4250 1301 3770 
Q 1056 3291 1056 2328 
Q 1056 1369 1301 889 
Q 1547 409 2034 409 
Q 2525 409 2770 889 
Q 3016 1369 3016 2328 
Q 3016 3291 2770 3770 
Q 2525 4250 2034 4250 
z
M 2034 4750 
Q 2819 4750 3233 4129 
Q 3647 3509 3647 2328 
Q 3647 1150 3233 529 
Q 2819 -91 2034 -91 
Q 1250 -91 836 529 
Q 422 1150 422 2328 
Q 422 3509 836 4129 
Q 1250 4750 2034 4750 
z
" transform="scale(0.015625)"/>
       </defs>
       <use xlink:href="#DejaVuSans-30"/>
      </g>
     </g>
    </g>
    <g id="xtick_2">
     <g id="line2d_3">
      <path d="M 114.618474 307.584 
L 114.618474 41.472 
" clip-path="url(#pc2af2f5348)" style="fill: none; stroke: #b0b0b0; stroke-width: 0.8; stroke-linecap: square"/>
     </g>
     <g id="line2d_4">
      <g>
       <use xlink:href="#m0a4ef33930" x="114.618474" y="307.584" style="stroke: #000000; stroke-width: 0.8"/>
      </g>
     </g>
     <g id="text_2">
      <!-- 25 -->
      <g transform="translate(108.255974 322.182437) scale(0.1 -0.1)">
       <defs>
        <path id="DejaVuSans-32" d="M 1228 531 
L 3431 531 
L 3431 0 
L 469 0 
L 469 531 
Q 828 903 1448 1529 
Q 2069 2156 2228 2338 
Q 2531 2678 2651 2914 
Q 2772 3150 2772 3378 
Q 2772 3750 2511 3984 
Q 2250 4219 1831 4219 
Q 1534 4219 1204 4116 
Q 875 4013 500 3803 
L 500 4441 
Q 881 4594 1212 4672 
Q 1544 4750 1819 4750 
Q 2544 4750 2975 4387 
Q 3406 4025 3406 3419 
Q 3406 3131 3298 2873 
Q 3191 2616 2906 2266 
Q 2828 2175 2409 1742 
Q 1991 1309 1228 531 
z
" transform="scale(0.015625)"/>
        <path id="DejaVuSans-35" d="M 691 4666 
L 3169 4666 
L 3169 4134 
L 1269 4134 
L 1269 2991 
Q 1406 3038 1543 3061 
Q 1681 3084 1819 3084 
Q 2600 3084 3056 2656 
Q 3513 2228 3513 1497 
Q 3513 744 3044 326 
Q 2575 -91 1722 -91 
Q 1428 -91 1123 -41 
Q 819 9 494 109 
L 494 744 
Q 775 591 1075 516 
Q 1375 441 1709 441 
Q 2250 441 2565 725 
Q 2881 1009 2881 1497 
Q 2881 1984 2565 2268 
Q 2250 2553 1709 2553 
Q 1456 2553 1204 2497 
Q 953 2441 691 2322 
L 691 4666 
z
" transform="scale(0.015625)"/>
       </defs>
       <use xlink:href="#DejaVuSans-32"/>
       <use xlink:href="#DejaVuSans-35" x="63.623047"/>
      </g>
     </g>
    </g>
    <g id="xtick_3">
     <g id="line2d_5">
      <path d="M 155.404221 307.584 
L 155.404221 41.472 
" clip-path="url(#pc2af2f5348)" style="fill: none; stroke: #b0b0b0; stroke-width: 0.8; stroke-linecap: square"/>
     </g>
     <g id="line2d_6">
      <g>
       <use xlink:href="#m0a4ef33930" x="155.404221" y="307.584" style="stroke: #000000; stroke-width: 0.8"/>
      </g>
     </g>
     <g id="text_3">
      <!-- 50 -->
      <g transform="translate(149.041721 322.182437) scale(0.1 -0.1)">
       <use xlink:href="#DejaVuSans-35"/>
       <use xlink:href="#DejaVuSans-30" x="63.623047"/>
      </g>
     </g>
    </g>
    <g id="xtick_4">
     <g id="line2d_7">
      <path d="M 196.189968 307.584 
L 196.189968 41.472 
" clip-path="url(#pc2af2f5348)" style="fill: none; stroke: #b0b0b0; stroke-width: 0.8; stroke-linecap: square"/>
     </g>
     <g id="line2d_8">
      <g>
       <use xlink:href="#m0a4ef33930" x="196.189968" y="307.584" style="stroke: #000000; stroke-width: 0.8"/>
      </g>
     </g>
     <g id="text_4">
      <!-- 75 -->
      <g transform="translate(189.827468 322.182437) scale(0.1 -0.1)">
       <defs>
        <path id="DejaVuSans-37" d="M 525 4666 
L 3525 4666 
L 3525 4397 
L 1831 0 
L 1172 0 
L 2766 4134 
L 525 4134 
L 525 4666 
z
" transform="scale(0.015625)"/>
       </defs>
       <use xlink:href="#DejaVuSans-37"/>
       <use xlink:href="#DejaVuSans-35" x="63.623047"/>
      </g>
     </g>
    </g>
    <g id="xtick_5">
     <g id="line2d_9">
      <path d="M 236.975715 307.584 
L 236.975715 41.472 
" clip-path="url(#pc2af2f5348)" style="fill: none; stroke: #b0b0b0; stroke-width: 0.8; stroke-linecap: square"/>
     </g>
     <g id="line2d_10">
      <g>
       <use xlink:href="#m0a4ef33930" x="236.975715" y="307.584" style="stroke: #000000; stroke-width: 0.8"/>
      </g>
     </g>
     <g id="text_5">
      <!-- 100 -->
      <g transform="translate(227.431965 322.182437) scale(0.1 -0.1)">
       <defs>
        <path id="DejaVuSans-31" d="M 794 531 
L 1825 531 
L 1825 4091 
L 703 3866 
L 703 4441 
L 1819 4666 
L 2450 4666 
L 2450 531 
L 3481 531 
L 3481 0 
L 794 0 
L 794 531 
z
" transform="scale(0.015625)"/>
       </defs>
       <use xlink:href="#DejaVuSans-31"/>
       <use xlink:href="#DejaVuSans-30" x="63.623047"/>
       <use xlink:href="#DejaVuSans-30" x="127.246094"/>
      </g>
     </g>
    </g>
    <g id="xtick_6">
     <g id="line2d_11">
      <path d="M 277.761462 307.584 
L 277.761462 41.472 
" clip-path="url(#pc2af2f5348)" style="fill: none; stroke: #b0b0b0; stroke-width: 0.8; stroke-linecap: square"/>
     </g>
     <g id="line2d_12">
      <g>
       <use xlink:href="#m0a4ef33930" x="277.761462" y="307.584" style="stroke: #000000; stroke-width: 0.8"/>
      </g>
     </g>
     <g id="text_6">
      <!-- 125 -->
      <g transform="translate(268.217712 322.182437) scale(0.1 -0.1)">
       <use xlink:href="#DejaVuSans-31"/>
       <use xlink:href="#DejaVuSans-32" x="63.623047"/>
       <use xlink:href="#DejaVuSans-35" x="127.246094"/>
      </g>
     </g>
    </g>
    <g id="xtick_7">
     <g id="line2d_13">
      <path d="M 318.547209 307.584 
L 318.547209 41.472 
" clip-path="url(#pc2af2f5348)" style="fill: none; stroke: #b0b0b0; stroke-width: 0.8; stroke-linecap: square"/>
     </g>
     <g id="line2d_14">
      <g>
       <use xlink:href="#m0a4ef33930" x="318.547209" y="307.584" style="stroke: #000000; stroke-width: 0.8"/>
      </g>
     </g>
     <g id="text_7">
      <!-- 150 -->
      <g transform="translate(309.003459 322.182437) scale(0.1 -0.1)">
       <use xlink:href="#DejaVuSans-31"/>
       <use xlink:href="#DejaVuSans-35" x="63.623047"/>
       <use xlink:href="#DejaVuSans-30" x="127.246094"/>
      </g>
     </g>
    </g>
    <g id="xtick_8">
     <g id="line2d_15">
      <path d="M 359.332956 307.584 
L 359.332956 41.472 
" clip-path="url(#pc2af2f5348)" style="fill: none; stroke: #b0b0b0; stroke-width: 0.8; stroke-linecap: square"/>
     </g>
     <g id="line2d_16">
      <g>
       <use xlink:href="#m0a4ef33930" x="359.332956" y="307.584" style="stroke: #000000; stroke-width: 0.8"/>
      </g>
     </g>
     <g id="text_8">
      <!-- 175 -->
      <g transform="translate(349.789206 322.182437) scale(0.1 -0.1)">
       <use xlink:href="#DejaVuSans-31"/>
       <use xlink:href="#DejaVuSans-37" x="63.623047"/>
       <use xlink:href="#DejaVuSans-35" x="127.246094"/>
      </g>
     </g>
    </g>
    <g id="xtick_9">
     <g id="line2d_17">
      <path d="M 400.118703 307.584 
L 400.118703 41.472 
" clip-path="url(#pc2af2f5348)" style="fill: none; stroke: #b0b0b0; stroke-width: 0.8; stroke-linecap: square"/>
     </g>
     <g id="line2d_18">
      <g>
       <use xlink:href="#m0a4ef33930" x="400.118703" y="307.584" style="stroke: #000000; stroke-width: 0.8"/>
      </g>
     </g>
     <g id="text_9">
      <!-- 200 -->
      <g transform="translate(390.574953 322.182437) scale(0.1 -0.1)">
       <use xlink:href="#DejaVuSans-32"/>
       <use xlink:href="#DejaVuSans-30" x="63.623047"/>
       <use xlink:href="#DejaVuSans-30" x="127.246094"/>
      </g>
     </g>
    </g>
    <g id="text_10">
     <!-- Generations -->
     <g transform="translate(205.662344 335.860562) scale(0.1 -0.1)">
      <defs>
       <path id="DejaVuSans-47" d="M 3809 666 
L 3809 1919 
L 2778 1919 
L 2778 2438 
L 4434 2438 
L 4434 434 
Q 4069 175 3628 42 
Q 3188 -91 2688 -91 
Q 1594 -91 976 548 
Q 359 1188 359 2328 
Q 359 3472 976 4111 
Q 1594 4750 2688 4750 
Q 3144 4750 3555 4637 
Q 3966 4525 4313 4306 
L 4313 3634 
Q 3963 3931 3569 4081 
Q 3175 4231 2741 4231 
Q 1884 4231 1454 3753 
Q 1025 3275 1025 2328 
Q 1025 1384 1454 906 
Q 1884 428 2741 428 
Q 3075 428 3337 486 
Q 3600 544 3809 666 
z
" transform="scale(0.015625)"/>
       <path id="DejaVuSans-65" d="M 3597 1894 
L 3597 1613 
L 953 1613 
Q 991 1019 1311 708 
Q 1631 397 2203 397 
Q 2534 397 2845 478 
Q 3156 559 3463 722 
L 3463 178 
Q 3153 47 2828 -22 
Q 2503 -91 2169 -91 
Q 1331 -91 842 396 
Q 353 884 353 1716 
Q 353 2575 817 3079 
Q 1281 3584 2069 3584 
Q 2775 3584 3186 3129 
Q 3597 2675 3597 1894 
z
M 3022 2063 
Q 3016 2534 2758 2815 
Q 2500 3097 2075 3097 
Q 1594 3097 1305 2825 
Q 1016 2553 972 2059 
L 3022 2063 
z
" transform="scale(0.015625)"/>
       <path id="DejaVuSans-6e" d="M 3513 2113 
L 3513 0 
L 2938 0 
L 2938 2094 
Q 2938 2591 2744 2837 
Q 2550 3084 2163 3084 
Q 1697 3084 1428 2787 
Q 1159 2491 1159 1978 
L 1159 0 
L 581 0 
L 581 3500 
L 1159 3500 
L 1159 2956 
Q 1366 3272 1645 3428 
Q 1925 3584 2291 3584 
Q 2894 3584 3203 3211 
Q 3513 2838 3513 2113 
z
" transform="scale(0.015625)"/>
       <path id="DejaVuSans-72" d="M 2631 2963 
Q 2534 3019 2420 3045 
Q 2306 3072 2169 3072 
Q 1681 3072 1420 2755 
Q 1159 2438 1159 1844 
L 1159 0 
L 581 0 
L 581 3500 
L 1159 3500 
L 1159 2956 
Q 1341 3275 1631 3429 
Q 1922 3584 2338 3584 
Q 2397 3584 2469 3576 
Q 2541 3569 2628 3553 
L 2631 2963 
z
" transform="scale(0.015625)"/>
       <path id="DejaVuSans-61" d="M 2194 1759 
Q 1497 1759 1228 1600 
Q 959 1441 959 1056 
Q 959 750 1161 570 
Q 1363 391 1709 391 
Q 2188 391 2477 730 
Q 2766 1069 2766 1631 
L 2766 1759 
L 2194 1759 
z
M 3341 1997 
L 3341 0 
L 2766 0 
L 2766 531 
Q 2569 213 2275 61 
Q 1981 -91 1556 -91 
Q 1019 -91 701 211 
Q 384 513 384 1019 
Q 384 1609 779 1909 
Q 1175 2209 1959 2209 
L 2766 2209 
L 2766 2266 
Q 2766 2663 2505 2880 
Q 2244 3097 1772 3097 
Q 1472 3097 1187 3025 
Q 903 2953 641 2809 
L 641 3341 
Q 956 3463 1253 3523 
Q 1550 3584 1831 3584 
Q 2591 3584 2966 3190 
Q 3341 2797 3341 1997 
z
" transform="scale(0.015625)"/>
       <path id="DejaVuSans-74" d="M 1172 4494 
L 1172 3500 
L 2356 3500 
L 2356 3053 
L 1172 3053 
L 1172 1153 
Q 1172 725 1289 603 
Q 1406 481 1766 481 
L 2356 481 
L 2356 0 
L 1766 0 
Q 1100 0 847 248 
Q 594 497 594 1153 
L 594 3053 
L 172 3053 
L 172 3500 
L 594 3500 
L 594 4494 
L 1172 4494 
z
" transform="scale(0.015625)"/>
       <path id="DejaVuSans-69" d="M 603 3500 
L 1178 3500 
L 1178 0 
L 603 0 
L 603 3500 
z
M 603 4863 
L 1178 4863 
L 1178 4134 
L 603 4134 
L 603 4863 
z
" transform="scale(0.015625)"/>
       <path id="DejaVuSans-6f" d="M 1959 3097 
Q 1497 3097 1228 2736 
Q 959 2375 959 1747 
Q 959 1119 1226 758 
Q 1494 397 1959 397 
Q 2419 397 2687 759 
Q 2956 1122 2956 1747 
Q 2956 2369 2687 2733 
Q 2419 3097 1959 3097 
z
M 1959 3584 
Q 2709 3584 3137 3096 
Q 3566 2609 3566 1747 
Q 3566 888 3137 398 
Q 2709 -91 1959 -91 
Q 1206 -91 779 398 
Q 353 888 353 1747 
Q 353 2609 779 3096 
Q 1206 3584 1959 3584 
z
" transform="scale(0.015625)"/>
       <path id="DejaVuSans-73" d="M 2834 3397 
L 2834 2853 
Q 2591 2978 2328 3040 
Q 2066 3103 1784 3103 
Q 1356 3103 1142 2972 
Q 928 2841 928 2578 
Q 928 2378 1081 2264 
Q 1234 2150 1697 2047 
L 1894 2003 
Q 2506 1872 2764 1633 
Q 3022 1394 3022 966 
Q 3022 478 2636 193 
Q 2250 -91 1575 -91 
Q 1294 -91 989 -36 
Q 684 19 347 128 
L 347 722 
Q 666 556 975 473 
Q 1284 391 1588 391 
Q 1994 391 2212 530 
Q 2431 669 2431 922 
Q 2431 1156 2273 1281 
Q 2116 1406 1581 1522 
L 1381 1569 
Q 847 1681 609 1914 
Q 372 2147 372 2553 
Q 372 3047 722 3315 
Q 1072 3584 1716 3584 
Q 2034 3584 2315 3537 
Q 2597 3491 2834 3397 
z
" transform="scale(0.015625)"/>
      </defs>
      <use xlink:href="#DejaVuSans-47"/>
      <use xlink:href="#DejaVuSans-65" x="77.490234"/>
      <use xlink:href="#DejaVuSans-6e" x="139.013672"/>
      <use xlink:href="#DejaVuSans-65" x="202.392578"/>
      <use xlink:href="#DejaVuSans-72" x="263.916016"/>
      <use xlink:href="#DejaVuSans-61" x="305.029297"/>
      <use xlink:href="#DejaVuSans-74" x="366.308594"/>
      <use xlink:href="#DejaVuSans-69" x="405.517578"/>
      <use xlink:href="#DejaVuSans-6f" x="433.300781"/>
      <use xlink:href="#DejaVuSans-6e" x="494.482422"/>
      <use xlink:href="#DejaVuSans-73" x="557.861328"/>
     </g>
    </g>
   </g>
   <g id="matplotlib.axis_2">
    <g id="ytick_1">
     <g id="line2d_19">
      <path d="M 57.6 289.049716 
L 414.72 289.049716 
" clip-path="url(#pc2af2f5348)" style="fill: none; stroke: #b0b0b0; stroke-width: 0.8; stroke-linecap: square"/>
     </g>
     <g id="line2d_20">
      <defs>
       <path id="m6b334e6587" d="M 0 0 
L -3.5 0 
" style="stroke: #000000; stroke-width: 0.8"/>
      </defs>
      <g>
       <use xlink:href="#m6b334e6587" x="57.6" y="289.049716" style="stroke: #000000; stroke-width: 0.8"/>
      </g>
     </g>
     <g id="text_11">
      <!-- −2000 -->
      <g transform="translate(16.770313 292.848934) scale(0.1 -0.1)">
       <defs>
        <path id="DejaVuSans-2212" d="M 678 2272 
L 4684 2272 
L 4684 1741 
L 678 1741 
L 678 2272 
z
" transform="scale(0.015625)"/>
       </defs>
       <use xlink:href="#DejaVuSans-2212"/>
       <use xlink:href="#DejaVuSans-32" x="83.789062"/>
       <use xlink:href="#DejaVuSans-30" x="147.412109"/>
       <use xlink:href="#DejaVuSans-30" x="211.035156"/>
       <use xlink:href="#DejaVuSans-30" x="274.658203"/>
      </g>
     </g>
    </g>
    <g id="ytick_2">
     <g id="line2d_21">
      <path d="M 57.6 252.156949 
L 414.72 252.156949 
" clip-path="url(#pc2af2f5348)" style="fill: none; stroke: #b0b0b0; stroke-width: 0.8; stroke-linecap: square"/>
     </g>
     <g id="line2d_22">
      <g>
       <use xlink:href="#m6b334e6587" x="57.6" y="252.156949" style="stroke: #000000; stroke-width: 0.8"/>
      </g>
     </g>
     <g id="text_12">
      <!-- −1750 -->
      <g transform="translate(16.770313 255.956168) scale(0.1 -0.1)">
       <use xlink:href="#DejaVuSans-2212"/>
       <use xlink:href="#DejaVuSans-31" x="83.789062"/>
       <use xlink:href="#DejaVuSans-37" x="147.412109"/>
       <use xlink:href="#DejaVuSans-35" x="211.035156"/>
       <use xlink:href="#DejaVuSans-30" x="274.658203"/>
      </g>
     </g>
    </g>
    <g id="ytick_3">
     <g id="line2d_23">
      <path d="M 57.6 215.264183 
L 414.72 215.264183 
" clip-path="url(#pc2af2f5348)" style="fill: none; stroke: #b0b0b0; stroke-width: 0.8; stroke-linecap: square"/>
     </g>
     <g id="line2d_24">
      <g>
       <use xlink:href="#m6b334e6587" x="57.6" y="215.264183" style="stroke: #000000; stroke-width: 0.8"/>
      </g>
     </g>
     <g id="text_13">
      <!-- −1500 -->
      <g transform="translate(16.770313 219.063402) scale(0.1 -0.1)">
       <use xlink:href="#DejaVuSans-2212"/>
       <use xlink:href="#DejaVuSans-31" x="83.789062"/>
       <use xlink:href="#DejaVuSans-35" x="147.412109"/>
       <use xlink:href="#DejaVuSans-30" x="211.035156"/>
       <use xlink:href="#DejaVuSans-30" x="274.658203"/>
      </g>
     </g>
    </g>
    <g id="ytick_4">
     <g id="line2d_25">
      <path d="M 57.6 178.371416 
L 414.72 178.371416 
" clip-path="url(#pc2af2f5348)" style="fill: none; stroke: #b0b0b0; stroke-width: 0.8; stroke-linecap: square"/>
     </g>
     <g id="line2d_26">
      <g>
       <use xlink:href="#m6b334e6587" x="57.6" y="178.371416" style="stroke: #000000; stroke-width: 0.8"/>
      </g>
     </g>
     <g id="text_14">
      <!-- −1250 -->
      <g transform="translate(16.770313 182.170635) scale(0.1 -0.1)">
       <use xlink:href="#DejaVuSans-2212"/>
       <use xlink:href="#DejaVuSans-31" x="83.789062"/>
       <use xlink:href="#DejaVuSans-32" x="147.412109"/>
       <use xlink:href="#DejaVuSans-35" x="211.035156"/>
       <use xlink:href="#DejaVuSans-30" x="274.658203"/>
      </g>
     </g>
    </g>
    <g id="ytick_5">
     <g id="line2d_27">
      <path d="M 57.6 141.47865 
L 414.72 141.47865 
" clip-path="url(#pc2af2f5348)" style="fill: none; stroke: #b0b0b0; stroke-width: 0.8; stroke-linecap: square"/>
     </g>
     <g id="line2d_28">
      <g>
       <use xlink:href="#m6b334e6587" x="57.6" y="141.47865" style="stroke: #000000; stroke-width: 0.8"/>
      </g>
     </g>
     <g id="text_15">
      <!-- −1000 -->
      <g transform="translate(16.770313 145.277869) scale(0.1 -0.1)">
       <use xlink:href="#DejaVuSans-2212"/>
       <use xlink:href="#DejaVuSans-31" x="83.789062"/>
       <use xlink:href="#DejaVuSans-30" x="147.412109"/>
       <use xlink:href="#DejaVuSans-30" x="211.035156"/>
       <use xlink:href="#DejaVuSans-30" x="274.658203"/>
      </g>
     </g>
    </g>
    <g id="ytick_6">
     <g id="line2d_29">
      <path d="M 57.6 104.585884 
L 414.72 104.585884 
" clip-path="url(#pc2af2f5348)" style="fill: none; stroke: #b0b0b0; stroke-width: 0.8; stroke-linecap: square"/>
     </g>
     <g id="line2d_30">
      <g>
       <use xlink:href="#m6b334e6587" x="57.6" y="104.585884" style="stroke: #000000; stroke-width: 0.8"/>
      </g>
     </g>
     <g id="text_16">
      <!-- −750 -->
      <g transform="translate(23.132812 108.385102) scale(0.1 -0.1)">
       <use xlink:href="#DejaVuSans-2212"/>
       <use xlink:href="#DejaVuSans-37" x="83.789062"/>
       <use xlink:href="#DejaVuSans-35" x="147.412109"/>
       <use xlink:href="#DejaVuSans-30" x="211.035156"/>
      </g>
     </g>
    </g>
    <g id="ytick_7">
     <g id="line2d_31">
      <path d="M 57.6 67.693117 
L 414.72 67.693117 
" clip-path="url(#pc2af2f5348)" style="fill: none; stroke: #b0b0b0; stroke-width: 0.8; stroke-linecap: square"/>
     </g>
     <g id="line2d_32">
      <g>
       <use xlink:href="#m6b334e6587" x="57.6" y="67.693117" style="stroke: #000000; stroke-width: 0.8"/>
      </g>
     </g>
     <g id="text_17">
      <!-- −500 -->
      <g transform="translate(23.132812 71.492336) scale(0.1 -0.1)">
       <use xlink:href="#DejaVuSans-2212"/>
       <use xlink:href="#DejaVuSans-35" x="83.789062"/>
       <use xlink:href="#DejaVuSans-30" x="147.412109"/>
       <use xlink:href="#DejaVuSans-30" x="211.035156"/>
      </g>
     </g>
    </g>
    <g id="text_18">
     <!-- Fitness -->
     <g transform="translate(10.690625 191.845187) rotate(-90) scale(0.1 -0.1)">
      <defs>
       <path id="DejaVuSans-46" d="M 628 4666 
L 3309 4666 
L 3309 4134 
L 1259 4134 
L 1259 2759 
L 3109 2759 
L 3109 2228 
L 1259 2228 
L 1259 0 
L 628 0 
L 628 4666 
z
" transform="scale(0.015625)"/>
      </defs>
      <use xlink:href="#DejaVuSans-46"/>
      <use xlink:href="#DejaVuSans-69" x="50.269531"/>
      <use xlink:href="#DejaVuSans-74" x="78.052734"/>
      <use xlink:href="#DejaVuSans-6e" x="117.261719"/>
      <use xlink:href="#DejaVuSans-65" x="180.640625"/>
      <use xlink:href="#DejaVuSans-73" x="242.164062"/>
      <use xlink:href="#DejaVuSans-73" x="294.263672"/>
     </g>
    </g>
   </g>
   <g id="line2d_33">
    <path d="M 73.832727 270.476965 
L 75.464157 267.55888 
L 77.095587 266.224094 
L 78.727017 266.021514 
L 80.358447 264.302359 
L 81.989877 264.91923 
L 83.621307 265.352485 
L 85.252736 264.237258 
L 86.884166 263.758409 
L 88.515596 263.424397 
L 90.147026 263.887912 
L 91.778456 264.508392 
L 93.409886 262.553511 
L 95.041316 261.407408 
L 96.672746 261.842392 
L 98.304175 261.872203 
L 99.935605 260.814653 
L 101.567035 263.098494 
L 103.198465 263.05683 
L 104.829895 263.253232 
L 106.461325 262.83519 
L 108.092755 259.956757 
L 109.724185 263.534778 
L 111.355614 263.531974 
L 112.987044 262.683047 
L 114.618474 263.019669 
L 116.249904 261.804453 
L 117.881334 261.80464 
L 119.512764 262.535948 
L 121.144194 262.501387 
L 122.775624 261.306164 
L 124.407053 262.137598 
L 127.669913 262.551955 
L 129.301343 263.15901 
L 130.932773 263.330529 
L 132.564203 262.223176 
L 134.195633 262.642327 
L 135.827063 264.942055 
L 137.458492 263.51932 
L 139.089922 264.345669 
L 140.721352 263.572641 
L 142.352782 263.42699 
L 145.615642 264.679501 
L 147.247072 264.139608 
L 148.878502 264.243594 
L 150.509931 263.590268 
L 152.141361 263.800243 
L 153.772791 263.708305 
L 155.404221 263.035284 
L 157.035651 262.979948 
L 158.667081 263.078609 
L 160.298511 263.630746 
L 161.929941 263.886797 
L 163.56137 264.590626 
L 165.1928 263.955323 
L 168.45566 263.816436 
L 170.08709 263.211327 
L 171.71852 264.012198 
L 174.98138 265.149605 
L 176.61281 264.880111 
L 178.244239 263.842314 
L 179.875669 261.198567 
L 181.507099 263.264546 
L 183.138529 263.297936 
L 184.769959 261.681518 
L 188.032819 263.409186 
L 191.295678 263.080015 
L 192.927108 262.310669 
L 194.558538 263.571437 
L 196.189968 263.125438 
L 197.821398 263.508056 
L 199.452828 263.133623 
L 201.084258 262.566335 
L 204.347117 263.22866 
L 205.978547 263.295354 
L 207.609977 262.51545 
L 209.241407 262.333186 
L 210.872837 261.135978 
L 212.504267 261.931293 
L 214.135697 262.494891 
L 215.767127 262.394169 
L 217.398556 261.552133 
L 219.029986 262.983919 
L 220.661416 263.119291 
L 222.292846 262.259732 
L 223.924276 262.325182 
L 225.555706 262.608191 
L 228.818566 262.724268 
L 230.449995 261.688563 
L 232.081425 262.006159 
L 233.712855 262.976538 
L 235.344285 262.486836 
L 236.975715 264.028049 
L 238.607145 262.843629 
L 240.238575 262.071045 
L 241.870005 262.12154 
L 243.501434 261.782001 
L 245.132864 263.542935 
L 246.764294 262.715085 
L 248.395724 260.739959 
L 250.027154 261.648938 
L 251.658584 261.25637 
L 253.290014 260.54586 
L 254.921444 260.823353 
L 256.552873 260.801907 
L 258.184303 261.6755 
L 259.815733 262.388449 
L 261.447163 261.609534 
L 263.078593 261.289794 
L 264.710023 262.584421 
L 266.341453 261.075148 
L 269.604312 261.11918 
L 271.235742 259.791645 
L 272.867172 261.821779 
L 274.498602 261.217712 
L 276.130032 261.188587 
L 277.761462 262.834435 
L 279.392892 262.387498 
L 281.024322 262.946953 
L 282.655751 263.628328 
L 284.287181 263.199898 
L 285.918611 263.217786 
L 287.550041 262.986482 
L 289.181471 261.37603 
L 290.812901 263.86871 
L 292.444331 262.906394 
L 294.075761 262.401514 
L 295.70719 263.501553 
L 297.33862 262.708575 
L 298.97005 263.418618 
L 300.60148 262.314534 
L 302.23291 263.179179 
L 303.86434 261.586739 
L 305.49577 262.132979 
L 307.1272 263.603556 
L 308.75863 263.591795 
L 312.021489 264.301826 
L 313.652919 264.254731 
L 315.284349 263.958728 
L 316.915779 264.164064 
L 318.547209 263.637176 
L 320.178639 263.782377 
L 321.810069 263.578411 
L 323.441498 263.995695 
L 326.704358 263.308876 
L 328.335788 263.356622 
L 329.967218 264.043835 
L 331.598648 262.973763 
L 333.230078 263.816056 
L 334.861508 263.287175 
L 338.124367 263.12703 
L 339.755797 263.00056 
L 341.387227 263.64187 
L 343.018657 260.805671 
L 344.650087 260.212986 
L 346.281517 262.337411 
L 347.912947 263.305048 
L 349.544376 263.302583 
L 351.175806 261.814009 
L 352.807236 261.532572 
L 354.438666 261.784851 
L 356.070096 261.232399 
L 357.701526 261.450156 
L 359.332956 262.261303 
L 360.964386 261.899959 
L 362.595815 263.006565 
L 364.227245 263.305029 
L 365.858675 262.397613 
L 367.490105 262.574755 
L 369.121535 263.372595 
L 370.752965 261.48304 
L 372.384395 263.291538 
L 374.015825 260.900298 
L 375.647254 263.426424 
L 377.278684 263.507904 
L 378.910114 263.455318 
L 380.541544 263.860203 
L 383.804404 262.122949 
L 385.435834 263.640215 
L 387.067264 262.860379 
L 388.698693 262.808593 
L 390.330123 263.395081 
L 391.961553 264.816055 
L 393.592983 263.831657 
L 396.855843 263.832557 
L 398.487273 263.023759 
L 398.487273 263.023759 
" clip-path="url(#pc2af2f5348)" style="fill: none; stroke: #0000ff; stroke-width: 1.5; stroke-linecap: square"/>
   </g>
   <g id="line2d_34">
    <path d="M 73.832727 292.792226 
L 75.464157 292.978222 
L 77.095587 294.163788 
L 78.727017 291.27452 
L 80.358447 289.585651 
L 81.989877 290.036288 
L 83.621307 290.0398 
L 85.252736 288.969235 
L 86.884166 288.670876 
L 88.515596 288.158093 
L 90.147026 288.764812 
L 91.778456 289.78224 
L 93.409886 288.086382 
L 95.041316 290.191696 
L 96.672746 289.073338 
L 98.304175 287.114388 
L 99.935605 288.203302 
L 101.567035 288.794949 
L 103.198465 287.290224 
L 104.829895 287.652877 
L 106.461325 287.324037 
L 108.092755 292.832094 
L 109.724185 288.224946 
L 111.355614 288.290382 
L 112.987044 287.058442 
L 114.618474 287.74175 
L 116.249904 289.610683 
L 119.512764 289.889671 
L 121.144194 289.55898 
L 122.775624 287.925636 
L 124.407053 288.862898 
L 126.038483 289.370352 
L 127.669913 291.990823 
L 129.301343 289.583217 
L 130.932773 289.770611 
L 132.564203 288.55217 
L 134.195633 288.657672 
L 135.827063 287.963351 
L 137.458492 286.268539 
L 139.089922 287.520686 
L 140.721352 286.545186 
L 142.352782 287.819432 
L 143.984212 287.080314 
L 145.615642 287.852514 
L 147.247072 287.48081 
L 148.878502 286.992903 
L 150.509931 287.447788 
L 152.141361 287.551982 
L 153.772791 287.486227 
L 155.404221 286.529198 
L 157.035651 286.066937 
L 158.667081 285.94206 
L 160.298511 286.778103 
L 161.929941 286.986492 
L 163.56137 287.853315 
L 168.45566 287.050005 
L 170.08709 287.324576 
L 171.71852 286.488101 
L 173.34995 286.863445 
L 174.98138 286.408917 
L 176.61281 286.798359 
L 178.244239 286.181902 
L 179.875669 291.759722 
L 181.507099 290.858819 
L 183.138529 291.020967 
L 184.769959 291.468091 
L 186.401389 290.242551 
L 188.032819 291.212966 
L 189.664249 291.773843 
L 192.927108 291.308637 
L 194.558538 292.546904 
L 196.189968 291.187799 
L 197.821398 291.957162 
L 199.452828 291.118527 
L 201.084258 290.449357 
L 202.715688 291.231915 
L 204.347117 291.494663 
L 205.978547 291.918406 
L 207.609977 291.578319 
L 209.241407 290.894418 
L 210.872837 290.922953 
L 212.504267 290.545056 
L 214.135697 291.330549 
L 215.767127 291.113629 
L 217.398556 293.679733 
L 219.029986 291.586602 
L 220.661416 291.920961 
L 222.292846 290.703723 
L 223.924276 290.502834 
L 225.555706 291.460655 
L 227.187136 290.858593 
L 228.818566 292.011854 
L 230.449995 291.443062 
L 232.081425 293.663433 
L 233.712855 291.699393 
L 235.344285 294.032049 
L 236.975715 293.40019 
L 238.607145 291.83832 
L 240.238575 291.20443 
L 241.870005 291.317557 
L 243.501434 293.453628 
L 246.764294 291.621662 
L 248.395724 293.192502 
L 250.027154 294.334589 
L 253.290014 293.211139 
L 254.921444 292.91633 
L 256.552873 293.102935 
L 258.184303 294.602156 
L 259.815733 295.488 
L 261.447163 293.999936 
L 263.078593 294.235301 
L 264.710023 295.37237 
L 266.341453 293.958135 
L 267.972883 293.94732 
L 269.604312 294.226502 
L 271.235742 292.931621 
L 272.867172 294.236453 
L 274.498602 293.4938 
L 276.130032 293.597558 
L 277.761462 292.776296 
L 281.024322 291.695096 
L 282.655751 292.882784 
L 284.287181 291.713184 
L 285.918611 292.05015 
L 287.550041 291.992636 
L 289.181471 294.272326 
L 290.812901 293.461064 
L 292.444331 293.182204 
L 294.075761 291.43325 
L 295.70719 292.998662 
L 297.33862 292.386748 
L 298.97005 292.425576 
L 300.60148 290.999696 
L 302.23291 292.935383 
L 303.86434 291.995673 
L 305.49577 290.561274 
L 307.1272 290.295739 
L 312.021489 287.61838 
L 313.652919 288.011921 
L 315.284349 287.568028 
L 316.915779 287.410136 
L 318.547209 286.684492 
L 320.178639 286.489267 
L 321.810069 286.579881 
L 323.441498 287.082978 
L 325.072928 286.711249 
L 326.704358 286.666081 
L 328.335788 286.736825 
L 329.967218 287.729745 
L 331.598648 287.209315 
L 333.230078 288.352382 
L 334.861508 287.629527 
L 336.492937 288.031432 
L 338.124367 287.973121 
L 339.755797 289.029992 
L 341.387227 289.939146 
L 343.018657 293.069531 
L 344.650087 294.764996 
L 346.281517 294.604051 
L 347.912947 294.783308 
L 349.544376 293.68325 
L 351.175806 292.357659 
L 354.438666 291.922887 
L 356.070096 292.09141 
L 357.701526 292.460358 
L 359.332956 292.118146 
L 360.964386 292.243372 
L 362.595815 291.368765 
L 364.227245 290.927957 
L 365.858675 288.706987 
L 367.490105 288.237053 
L 369.121535 288.956533 
L 370.752965 294.358709 
L 372.384395 290.907155 
L 374.015825 290.933506 
L 375.647254 290.128575 
L 377.278684 290.041227 
L 378.910114 289.836752 
L 380.541544 288.748233 
L 382.172974 289.68287 
L 383.804404 291.46988 
L 385.435834 289.569782 
L 387.067264 290.41644 
L 388.698693 289.612477 
L 390.330123 292.32182 
L 391.961553 290.593041 
L 393.592983 289.19847 
L 395.224413 289.673874 
L 396.855843 289.183904 
L 398.487273 290.626209 
L 398.487273 290.626209 
" clip-path="url(#pc2af2f5348)" style="fill: none; stroke-dasharray: 9.6,2.4,1.5,2.4; stroke-dashoffset: 0; stroke: #008000; stroke-width: 1.5"/>
   </g>
   <g id="line2d_35">
    <path d="M 73.832727 248.161705 
L 75.464157 242.139537 
L 77.095587 238.284399 
L 78.727017 240.768508 
L 80.358447 239.019068 
L 83.621307 240.665171 
L 85.252736 239.505282 
L 86.884166 238.845943 
L 88.515596 238.690701 
L 91.778456 239.234545 
L 93.409886 237.020641 
L 95.041316 232.62312 
L 98.304175 236.630019 
L 99.935605 233.426003 
L 101.567035 237.402038 
L 103.198465 238.823437 
L 104.829895 238.853586 
L 106.461325 238.346344 
L 108.092755 227.08142 
L 109.724185 238.844611 
L 111.355614 238.773566 
L 112.987044 238.307652 
L 114.618474 238.297587 
L 116.249904 233.998224 
L 117.881334 233.889172 
L 119.512764 235.182225 
L 121.144194 235.443794 
L 122.775624 234.686691 
L 124.407053 235.412298 
L 126.038483 235.319981 
L 127.669913 233.113088 
L 129.301343 236.734803 
L 130.932773 236.890446 
L 132.564203 235.894182 
L 134.195633 236.626982 
L 135.827063 241.920758 
L 137.458492 240.770102 
L 139.089922 241.170651 
L 140.721352 240.600096 
L 142.352782 239.034548 
L 143.984212 241.122228 
L 145.615642 241.506487 
L 147.247072 240.798405 
L 148.878502 241.494284 
L 150.509931 239.732748 
L 152.141361 240.048503 
L 153.772791 239.930383 
L 155.404221 239.54137 
L 160.298511 240.48339 
L 161.929941 240.787103 
L 163.56137 241.327938 
L 165.1928 240.339128 
L 168.45566 240.582866 
L 170.08709 239.098078 
L 171.71852 241.536295 
L 173.34995 242.365096 
L 174.98138 243.890293 
L 176.61281 242.961863 
L 178.244239 241.502725 
L 179.875669 230.637412 
L 181.507099 235.670273 
L 183.138529 235.574905 
L 184.769959 231.894945 
L 186.401389 234.797547 
L 188.032819 235.605405 
L 189.664249 234.61946 
L 191.295678 234.648632 
L 192.927108 233.312702 
L 194.558538 234.59597 
L 196.189968 235.063077 
L 199.452828 235.148719 
L 201.084258 234.683313 
L 202.715688 234.535549 
L 204.347117 234.962656 
L 205.978547 234.672302 
L 207.609977 233.452581 
L 209.241407 233.771953 
L 210.872837 231.349003 
L 212.504267 233.31753 
L 214.135697 233.659234 
L 215.767127 233.674709 
L 217.398556 229.424532 
L 219.029986 234.381237 
L 220.661416 234.317621 
L 222.292846 233.815742 
L 223.924276 234.14753 
L 225.555706 233.755727 
L 227.187136 234.377868 
L 228.818566 233.436682 
L 232.081425 230.348885 
L 233.712855 234.253682 
L 235.344285 230.941623 
L 236.975715 234.655908 
L 240.238575 232.937659 
L 241.870005 232.925523 
L 243.501434 230.110373 
L 245.132864 234.589824 
L 246.764294 233.808508 
L 248.395724 228.287416 
L 250.027154 228.963288 
L 251.658584 228.717775 
L 253.290014 227.880581 
L 254.921444 228.730376 
L 256.552873 228.50088 
L 258.184303 228.748843 
L 259.815733 229.288898 
L 261.447163 229.219133 
L 263.078593 228.344287 
L 264.710023 229.796472 
L 266.341453 228.192161 
L 267.972883 228.26167 
L 269.604312 228.011859 
L 271.235742 226.651668 
L 272.867172 229.407104 
L 274.498602 228.941623 
L 276.130032 228.779616 
L 277.761462 232.892575 
L 279.392892 232.578807 
L 281.024322 234.19881 
L 282.655751 234.373872 
L 284.287181 234.686612 
L 287.550041 233.980328 
L 289.181471 228.479734 
L 290.812901 234.276355 
L 292.444331 232.630583 
L 295.70719 234.004444 
L 297.33862 233.030401 
L 298.97005 234.41166 
L 300.60148 233.629372 
L 302.23291 233.422974 
L 303.86434 231.177806 
L 305.49577 233.704684 
L 307.1272 236.911373 
L 308.75863 237.775301 
L 312.021489 240.985272 
L 313.652919 240.497542 
L 315.284349 240.349429 
L 316.915779 240.917992 
L 318.547209 240.58986 
L 320.178639 241.075487 
L 321.810069 240.576941 
L 323.441498 240.908412 
L 325.072928 240.621605 
L 326.704358 239.951671 
L 328.335788 239.976419 
L 329.967218 240.357924 
L 331.598648 238.738211 
L 333.230078 239.279729 
L 334.861508 238.944822 
L 336.492937 238.464584 
L 338.124367 238.280939 
L 339.755797 236.971127 
L 341.387227 237.344593 
L 343.018657 228.541811 
L 344.650087 225.660976 
L 346.281517 230.07077 
L 347.912947 231.826788 
L 349.544376 232.921916 
L 351.175806 231.27036 
L 352.807236 230.913768 
L 354.438666 231.646815 
L 356.070096 230.373387 
L 357.701526 230.439954 
L 359.332956 232.404461 
L 360.964386 231.556547 
L 362.595815 234.644365 
L 364.227245 235.682101 
L 365.858675 236.088239 
L 369.121535 237.788658 
L 370.752965 228.607371 
L 372.384395 235.67592 
L 374.015825 230.867089 
L 375.647254 236.724272 
L 377.278684 236.974582 
L 378.910114 237.073884 
L 380.541544 238.972172 
L 382.172974 236.345961 
L 383.804404 232.776018 
L 385.435834 237.710648 
L 387.067264 235.304318 
L 388.698693 236.004708 
L 390.330123 234.468341 
L 391.961553 239.039069 
L 395.224413 238.002993 
L 396.855843 238.48121 
L 398.487273 235.421308 
L 398.487273 235.421308 
" clip-path="url(#pc2af2f5348)" style="fill: none; stroke-dasharray: 9.6,2.4,1.5,2.4; stroke-dashoffset: 0; stroke: #008000; stroke-width: 1.5"/>
   </g>
   <g id="line2d_36">
    <path d="M 73.832727 80.353609 
L 341.387227 80.353609 
L 343.018657 58.532251 
L 369.121535 58.532251 
L 370.752965 53.568 
L 398.487273 53.568 
L 398.487273 53.568 
" clip-path="url(#pc2af2f5348)" style="fill: none; stroke: #ff0000; stroke-width: 1.5; stroke-linecap: square"/>
   </g>
   <g id="patch_3">
    <path d="M 57.6 307.584 
L 57.6 41.472 
" style="fill: none; stroke: #000000; stroke-width: 0.8; stroke-linejoin: miter; stroke-linecap: square"/>
   </g>
   <g id="patch_4">
    <path d="M 414.72 307.584 
L 414.72 41.472 
" style="fill: none; stroke: #000000; stroke-width: 0.8; stroke-linejoin: miter; stroke-linecap: square"/>
   </g>
   <g id="patch_5">
    <path d="M 57.6 307.584 
L 414.72 307.584 
" style="fill: none; stroke: #000000; stroke-width: 0.8; stroke-linejoin: miter; stroke-linecap: square"/>
   </g>
   <g id="patch_6">
    <path d="M 57.6 41.472 
L 414.72 41.472 
" style="fill: none; stroke: #000000; stroke-width: 0.8; stroke-linejoin: miter; stroke-linecap: square"/>
   </g>
   <g id="text_19">
    <!-- Population's average and best fitness -->
    <g transform="translate(123.529687 35.472) scale(0.12 -0.12)">
     <defs>
      <path id="DejaVuSans-50" d="M 1259 4147 
L 1259 2394 
L 2053 2394 
Q 2494 2394 2734 2622 
Q 2975 2850 2975 3272 
Q 2975 3691 2734 3919 
Q 2494 4147 2053 4147 
L 1259 4147 
z
M 628 4666 
L 2053 4666 
Q 2838 4666 3239 4311 
Q 3641 3956 3641 3272 
Q 3641 2581 3239 2228 
Q 2838 1875 2053 1875 
L 1259 1875 
L 1259 0 
L 628 0 
L 628 4666 
z
" transform="scale(0.015625)"/>
      <path id="DejaVuSans-70" d="M 1159 525 
L 1159 -1331 
L 581 -1331 
L 581 3500 
L 1159 3500 
L 1159 2969 
Q 1341 3281 1617 3432 
Q 1894 3584 2278 3584 
Q 2916 3584 3314 3078 
Q 3713 2572 3713 1747 
Q 3713 922 3314 415 
Q 2916 -91 2278 -91 
Q 1894 -91 1617 61 
Q 1341 213 1159 525 
z
M 3116 1747 
Q 3116 2381 2855 2742 
Q 2594 3103 2138 3103 
Q 1681 3103 1420 2742 
Q 1159 2381 1159 1747 
Q 1159 1113 1420 752 
Q 1681 391 2138 391 
Q 2594 391 2855 752 
Q 3116 1113 3116 1747 
z
" transform="scale(0.015625)"/>
      <path id="DejaVuSans-75" d="M 544 1381 
L 544 3500 
L 1119 3500 
L 1119 1403 
Q 1119 906 1312 657 
Q 1506 409 1894 409 
Q 2359 409 2629 706 
Q 2900 1003 2900 1516 
L 2900 3500 
L 3475 3500 
L 3475 0 
L 2900 0 
L 2900 538 
Q 2691 219 2414 64 
Q 2138 -91 1772 -91 
Q 1169 -91 856 284 
Q 544 659 544 1381 
z
M 1991 3584 
L 1991 3584 
z
" transform="scale(0.015625)"/>
      <path id="DejaVuSans-6c" d="M 603 4863 
L 1178 4863 
L 1178 0 
L 603 0 
L 603 4863 
z
" transform="scale(0.015625)"/>
      <path id="DejaVuSans-27" d="M 1147 4666 
L 1147 2931 
L 616 2931 
L 616 4666 
L 1147 4666 
z
" transform="scale(0.015625)"/>
      <path id="DejaVuSans-20" transform="scale(0.015625)"/>
      <path id="DejaVuSans-76" d="M 191 3500 
L 800 3500 
L 1894 563 
L 2988 3500 
L 3597 3500 
L 2284 0 
L 1503 0 
L 191 3500 
z
" transform="scale(0.015625)"/>
      <path id="DejaVuSans-67" d="M 2906 1791 
Q 2906 2416 2648 2759 
Q 2391 3103 1925 3103 
Q 1463 3103 1205 2759 
Q 947 2416 947 1791 
Q 947 1169 1205 825 
Q 1463 481 1925 481 
Q 2391 481 2648 825 
Q 2906 1169 2906 1791 
z
M 3481 434 
Q 3481 -459 3084 -895 
Q 2688 -1331 1869 -1331 
Q 1566 -1331 1297 -1286 
Q 1028 -1241 775 -1147 
L 775 -588 
Q 1028 -725 1275 -790 
Q 1522 -856 1778 -856 
Q 2344 -856 2625 -561 
Q 2906 -266 2906 331 
L 2906 616 
Q 2728 306 2450 153 
Q 2172 0 1784 0 
Q 1141 0 747 490 
Q 353 981 353 1791 
Q 353 2603 747 3093 
Q 1141 3584 1784 3584 
Q 2172 3584 2450 3431 
Q 2728 3278 2906 2969 
L 2906 3500 
L 3481 3500 
L 3481 434 
z
" transform="scale(0.015625)"/>
      <path id="DejaVuSans-64" d="M 2906 2969 
L 2906 4863 
L 3481 4863 
L 3481 0 
L 2906 0 
L 2906 525 
Q 2725 213 2448 61 
Q 2172 -91 1784 -91 
Q 1150 -91 751 415 
Q 353 922 353 1747 
Q 353 2572 751 3078 
Q 1150 3584 1784 3584 
Q 2172 3584 2448 3432 
Q 2725 3281 2906 2969 
z
M 947 1747 
Q 947 1113 1208 752 
Q 1469 391 1925 391 
Q 2381 391 2643 752 
Q 2906 1113 2906 1747 
Q 2906 2381 2643 2742 
Q 2381 3103 1925 3103 
Q 1469 3103 1208 2742 
Q 947 2381 947 1747 
z
" transform="scale(0.015625)"/>
      <path id="DejaVuSans-62" d="M 3116 1747 
Q 3116 2381 2855 2742 
Q 2594 3103 2138 3103 
Q 1681 3103 1420 2742 
Q 1159 2381 1159 1747 
Q 1159 1113 1420 752 
Q 1681 391 2138 391 
Q 2594 391 2855 752 
Q 3116 1113 3116 1747 
z
M 1159 2969 
Q 1341 3281 1617 3432 
Q 1894 3584 2278 3584 
Q 2916 3584 3314 3078 
Q 3713 2572 3713 1747 
Q 3713 922 3314 415 
Q 2916 -91 2278 -91 
Q 1894 -91 1617 61 
Q 1341 213 1159 525 
L 1159 0 
L 581 0 
L 581 4863 
L 1159 4863 
L 1159 2969 
z
" transform="scale(0.015625)"/>
      <path id="DejaVuSans-66" d="M 2375 4863 
L 2375 4384 
L 1825 4384 
Q 1516 4384 1395 4259 
Q 1275 4134 1275 3809 
L 1275 3500 
L 2222 3500 
L 2222 3053 
L 1275 3053 
L 1275 0 
L 697 0 
L 697 3053 
L 147 3053 
L 147 3500 
L 697 3500 
L 697 3744 
Q 697 4328 969 4595 
Q 1241 4863 1831 4863 
L 2375 4863 
z
" transform="scale(0.015625)"/>
     </defs>
     <use xlink:href="#DejaVuSans-50"/>
     <use xlink:href="#DejaVuSans-6f" x="56.677734"/>
     <use xlink:href="#DejaVuSans-70" x="117.859375"/>
     <use xlink:href="#DejaVuSans-75" x="181.335938"/>
     <use xlink:href="#DejaVuSans-6c" x="244.714844"/>
     <use xlink:href="#DejaVuSans-61" x="272.498047"/>
     <use xlink:href="#DejaVuSans-74" x="333.777344"/>
     <use xlink:href="#DejaVuSans-69" x="372.986328"/>
     <use xlink:href="#DejaVuSans-6f" x="400.769531"/>
     <use xlink:href="#DejaVuSans-6e" x="461.951172"/>
     <use xlink:href="#DejaVuSans-27" x="525.330078"/>
     <use xlink:href="#DejaVuSans-73" x="552.820312"/>
     <use xlink:href="#DejaVuSans-20" x="604.919922"/>
     <use xlink:href="#DejaVuSans-61" x="636.707031"/>
     <use xlink:href="#DejaVuSans-76" x="697.986328"/>
     <use xlink:href="#DejaVuSans-65" x="757.166016"/>
     <use xlink:href="#DejaVuSans-72" x="818.689453"/>
     <use xlink:href="#DejaVuSans-61" x="859.802734"/>
     <use xlink:href="#DejaVuSans-67" x="921.082031"/>
     <use xlink:href="#DejaVuSans-65" x="984.558594"/>
     <use xlink:href="#DejaVuSans-20" x="1046.082031"/>
     <use xlink:href="#DejaVuSans-61" x="1077.869141"/>
     <use xlink:href="#DejaVuSans-6e" x="1139.148438"/>
     <use xlink:href="#DejaVuSans-64" x="1202.527344"/>
     <use xlink:href="#DejaVuSans-20" x="1266.003906"/>
     <use xlink:href="#DejaVuSans-62" x="1297.791016"/>
     <use xlink:href="#DejaVuSans-65" x="1361.267578"/>
     <use xlink:href="#DejaVuSans-73" x="1422.791016"/>
     <use xlink:href="#DejaVuSans-74" x="1474.890625"/>
     <use xlink:href="#DejaVuSans-20" x="1514.099609"/>
     <use xlink:href="#DejaVuSans-66" x="1545.886719"/>
     <use xlink:href="#DejaVuSans-69" x="1581.091797"/>
     <use xlink:href="#DejaVuSans-74" x="1608.875"/>
     <use xlink:href="#DejaVuSans-6e" x="1648.083984"/>
     <use xlink:href="#DejaVuSans-65" x="1711.462891"/>
     <use xlink:href="#DejaVuSans-73" x="1772.986328"/>
     <use xlink:href="#DejaVuSans-73" x="1825.085938"/>
    </g>
   </g>
   <g id="legend_1">
    <g id="patch_7">
     <path d="M 334.779375 205.38425 
L 407.72 205.38425 
Q 409.72 205.38425 409.72 203.38425 
L 409.72 145.67175 
Q 409.72 143.67175 407.72 143.67175 
L 334.779375 143.67175 
Q 332.779375 143.67175 332.779375 145.67175 
L 332.779375 203.38425 
Q 332.779375 205.38425 334.779375 205.38425 
z
" style="fill: #ffffff; opacity: 0.8; stroke: #cccccc; stroke-linejoin: miter"/>
    </g>
    <g id="line2d_37">
     <path d="M 336.779375 151.770188 
L 346.779375 151.770188 
L 356.779375 151.770188 
" style="fill: none; stroke: #0000ff; stroke-width: 1.5; stroke-linecap: square"/>
    </g>
    <g id="text_20">
     <!-- average -->
     <g transform="translate(364.779375 155.270188) scale(0.1 -0.1)">
      <use xlink:href="#DejaVuSans-61"/>
      <use xlink:href="#DejaVuSans-76" x="61.279297"/>
      <use xlink:href="#DejaVuSans-65" x="120.458984"/>
      <use xlink:href="#DejaVuSans-72" x="181.982422"/>
      <use xlink:href="#DejaVuSans-61" x="223.095703"/>
      <use xlink:href="#DejaVuSans-67" x="284.375"/>
      <use xlink:href="#DejaVuSans-65" x="347.851562"/>
     </g>
    </g>
    <g id="line2d_38">
     <path d="M 336.779375 166.448313 
L 346.779375 166.448313 
L 356.779375 166.448313 
" style="fill: none; stroke-dasharray: 9.6,2.4,1.5,2.4; stroke-dashoffset: 0; stroke: #008000; stroke-width: 1.5"/>
    </g>
    <g id="text_21">
     <!-- -1 sd -->
     <g transform="translate(364.779375 169.948313) scale(0.1 -0.1)">
      <defs>
       <path id="DejaVuSans-2d" d="M 313 2009 
L 1997 2009 
L 1997 1497 
L 313 1497 
L 313 2009 
z
" transform="scale(0.015625)"/>
      </defs>
      <use xlink:href="#DejaVuSans-2d"/>
      <use xlink:href="#DejaVuSans-31" x="36.083984"/>
      <use xlink:href="#DejaVuSans-20" x="99.707031"/>
      <use xlink:href="#DejaVuSans-73" x="131.494141"/>
      <use xlink:href="#DejaVuSans-64" x="183.59375"/>
     </g>
    </g>
    <g id="line2d_39">
     <path d="M 336.779375 181.126438 
L 346.779375 181.126438 
L 356.779375 181.126438 
" style="fill: none; stroke-dasharray: 9.6,2.4,1.5,2.4; stroke-dashoffset: 0; stroke: #008000; stroke-width: 1.5"/>
    </g>
    <g id="text_22">
     <!-- +1 sd -->
     <g transform="translate(364.779375 184.626438) scale(0.1 -0.1)">
      <defs>
       <path id="DejaVuSans-2b" d="M 2944 4013 
L 2944 2272 
L 4684 2272 
L 4684 1741 
L 2944 1741 
L 2944 0 
L 2419 0 
L 2419 1741 
L 678 1741 
L 678 2272 
L 2419 2272 
L 2419 4013 
L 2944 4013 
z
" transform="scale(0.015625)"/>
      </defs>
      <use xlink:href="#DejaVuSans-2b"/>
      <use xlink:href="#DejaVuSans-31" x="83.789062"/>
      <use xlink:href="#DejaVuSans-20" x="147.412109"/>
      <use xlink:href="#DejaVuSans-73" x="179.199219"/>
      <use xlink:href="#DejaVuSans-64" x="231.298828"/>
     </g>
    </g>
    <g id="line2d_40">
     <path d="M 336.779375 195.804563 
L 346.779375 195.804563 
L 356.779375 195.804563 
" style="fill: none; stroke: #ff0000; stroke-width: 1.5; stroke-linecap: square"/>
    </g>
    <g id="text_23">
     <!-- best -->
     <g transform="translate(364.779375 199.304563) scale(0.1 -0.1)">
      <use xlink:href="#DejaVuSans-62"/>
      <use xlink:href="#DejaVuSans-65" x="63.476562"/>
      <use xlink:href="#DejaVuSans-73" x="125"/>
      <use xlink:href="#DejaVuSans-74" x="177.099609"/>
     </g>
    </g>
   </g>
  </g>
 </g>
 <defs>
  <clipPath id="pc2af2f5348">
   <rect x="57.6" y="41.472" width="357.12" height="266.112"/>
  </clipPath>
 </defs>
</svg>
