<?xml version="1.0" encoding="utf-8" standalone="no"?>
<!DOCTYPE svg PUBLIC "-//W3C//DTD SVG 1.1//EN"
  "http://www.w3.org/Graphics/SVG/1.1/DTD/svg11.dtd">
<svg xmlns:xlink="http://www.w3.org/1999/xlink" width="460.8pt" height="345.6pt" viewBox="0 0 460.8 345.6" xmlns="http://www.w3.org/2000/svg" version="1.1">
 <metadata>
  <rdf:RDF xmlns:dc="http://purl.org/dc/elements/1.1/" xmlns:cc="http://creativecommons.org/ns#" xmlns:rdf="http://www.w3.org/1999/02/22-rdf-syntax-ns#">
   <cc:Work>
    <dc:type rdf:resource="http://purl.org/dc/dcmitype/StillImage"/>
    <dc:date>2024-08-03T19:56:06.633458</dc:date>
    <dc:format>image/svg+xml</dc:format>
    <dc:creator>
     <cc:Agent>
      <dc:title>Matplotlib v3.8.4, https://matplotlib.org/</dc:title>
     </cc:Agent>
    </dc:creator>
   </cc:Work>
  </rdf:RDF>
 </metadata>
 <defs>
  <style type="text/css">*{stroke-linejoin: round; stroke-linecap: butt}</style>
 </defs>
 <g id="figure_1">
  <g id="patch_1">
   <path d="M 0 345.6 
L 460.8 345.6 
L 460.8 0 
L 0 0 
z
" style="fill: #ffffff"/>
  </g>
  <g id="axes_1">
   <g id="patch_2">
    <path d="M 57.6 307.584 
L 414.72 307.584 
L 414.72 41.472 
L 57.6 41.472 
z
" style="fill: #ffffff"/>
   </g>
   <g id="matplotlib.axis_1">
    <g id="xtick_1">
     <g id="line2d_1">
      <path d="M 73.832727 307.584 
L 73.832727 41.472 
" clip-path="url(#p9967fa38ad)" style="fill: none; stroke: #b0b0b0; stroke-width: 0.8; stroke-linecap: square"/>
     </g>
     <g id="line2d_2">
      <defs>
       <path id="mb9e375f7da" d="M 0 0 
L 0 3.5 
" style="stroke: #000000; stroke-width: 0.8"/>
      </defs>
      <g>
       <use xlink:href="#mb9e375f7da" x="73.832727" y="307.584" style="stroke: #000000; stroke-width: 0.8"/>
      </g>
     </g>
     <g id="text_1">
      <!-- 0 -->
      <g transform="translate(70.651477 322.182437) scale(0.1 -0.1)">
       <defs>
        <path id="DejaVuSans-30" d="M 2034 4250 
Q 1547 4250 1301 3770 
Q 1056 3291 1056 2328 
Q 1056 1369 1301 889 
Q 1547 409 2034 409 
Q 2525 409 2770 889 
Q 3016 1369 3016 2328 
Q 3016 3291 2770 3770 
Q 2525 4250 2034 4250 
z
M 2034 4750 
Q 2819 4750 3233 4129 
Q 3647 3509 3647 2328 
Q 3647 1150 3233 529 
Q 2819 -91 2034 -91 
Q 1250 -91 836 529 
Q 422 1150 422 2328 
Q 422 3509 836 4129 
Q 1250 4750 2034 4750 
z
" transform="scale(0.015625)"/>
       </defs>
       <use xlink:href="#DejaVuSans-30"/>
      </g>
     </g>
    </g>
    <g id="xtick_2">
     <g id="line2d_3">
      <path d="M 114.618474 307.584 
L 114.618474 41.472 
" clip-path="url(#p9967fa38ad)" style="fill: none; stroke: #b0b0b0; stroke-width: 0.8; stroke-linecap: square"/>
     </g>
     <g id="line2d_4">
      <g>
       <use xlink:href="#mb9e375f7da" x="114.618474" y="307.584" style="stroke: #000000; stroke-width: 0.8"/>
      </g>
     </g>
     <g id="text_2">
      <!-- 25 -->
      <g transform="translate(108.255974 322.182437) scale(0.1 -0.1)">
       <defs>
        <path id="DejaVuSans-32" d="M 1228 531 
L 3431 531 
L 3431 0 
L 469 0 
L 469 531 
Q 828 903 1448 1529 
Q 2069 2156 2228 2338 
Q 2531 2678 2651 2914 
Q 2772 3150 2772 3378 
Q 2772 3750 2511 3984 
Q 2250 4219 1831 4219 
Q 1534 4219 1204 4116 
Q 875 4013 500 3803 
L 500 4441 
Q 881 4594 1212 4672 
Q 1544 4750 1819 4750 
Q 2544 4750 2975 4387 
Q 3406 4025 3406 3419 
Q 3406 3131 3298 2873 
Q 3191 2616 2906 2266 
Q 2828 2175 2409 1742 
Q 1991 1309 1228 531 
z
" transform="scale(0.015625)"/>
        <path id="DejaVuSans-35" d="M 691 4666 
L 3169 4666 
L 3169 4134 
L 1269 4134 
L 1269 2991 
Q 1406 3038 1543 3061 
Q 1681 3084 1819 3084 
Q 2600 3084 3056 2656 
Q 3513 2228 3513 1497 
Q 3513 744 3044 326 
Q 2575 -91 1722 -91 
Q 1428 -91 1123 -41 
Q 819 9 494 109 
L 494 744 
Q 775 591 1075 516 
Q 1375 441 1709 441 
Q 2250 441 2565 725 
Q 2881 1009 2881 1497 
Q 2881 1984 2565 2268 
Q 2250 2553 1709 2553 
Q 1456 2553 1204 2497 
Q 953 2441 691 2322 
L 691 4666 
z
" transform="scale(0.015625)"/>
       </defs>
       <use xlink:href="#DejaVuSans-32"/>
       <use xlink:href="#DejaVuSans-35" x="63.623047"/>
      </g>
     </g>
    </g>
    <g id="xtick_3">
     <g id="line2d_5">
      <path d="M 155.404221 307.584 
L 155.404221 41.472 
" clip-path="url(#p9967fa38ad)" style="fill: none; stroke: #b0b0b0; stroke-width: 0.8; stroke-linecap: square"/>
     </g>
     <g id="line2d_6">
      <g>
       <use xlink:href="#mb9e375f7da" x="155.404221" y="307.584" style="stroke: #000000; stroke-width: 0.8"/>
      </g>
     </g>
     <g id="text_3">
      <!-- 50 -->
      <g transform="translate(149.041721 322.182437) scale(0.1 -0.1)">
       <use xlink:href="#DejaVuSans-35"/>
       <use xlink:href="#DejaVuSans-30" x="63.623047"/>
      </g>
     </g>
    </g>
    <g id="xtick_4">
     <g id="line2d_7">
      <path d="M 196.189968 307.584 
L 196.189968 41.472 
" clip-path="url(#p9967fa38ad)" style="fill: none; stroke: #b0b0b0; stroke-width: 0.8; stroke-linecap: square"/>
     </g>
     <g id="line2d_8">
      <g>
       <use xlink:href="#mb9e375f7da" x="196.189968" y="307.584" style="stroke: #000000; stroke-width: 0.8"/>
      </g>
     </g>
     <g id="text_4">
      <!-- 75 -->
      <g transform="translate(189.827468 322.182437) scale(0.1 -0.1)">
       <defs>
        <path id="DejaVuSans-37" d="M 525 4666 
L 3525 4666 
L 3525 4397 
L 1831 0 
L 1172 0 
L 2766 4134 
L 525 4134 
L 525 4666 
z
" transform="scale(0.015625)"/>
       </defs>
       <use xlink:href="#DejaVuSans-37"/>
       <use xlink:href="#DejaVuSans-35" x="63.623047"/>
      </g>
     </g>
    </g>
    <g id="xtick_5">
     <g id="line2d_9">
      <path d="M 236.975715 307.584 
L 236.975715 41.472 
" clip-path="url(#p9967fa38ad)" style="fill: none; stroke: #b0b0b0; stroke-width: 0.8; stroke-linecap: square"/>
     </g>
     <g id="line2d_10">
      <g>
       <use xlink:href="#mb9e375f7da" x="236.975715" y="307.584" style="stroke: #000000; stroke-width: 0.8"/>
      </g>
     </g>
     <g id="text_5">
      <!-- 100 -->
      <g transform="translate(227.431965 322.182437) scale(0.1 -0.1)">
       <defs>
        <path id="DejaVuSans-31" d="M 794 531 
L 1825 531 
L 1825 4091 
L 703 3866 
L 703 4441 
L 1819 4666 
L 2450 4666 
L 2450 531 
L 3481 531 
L 3481 0 
L 794 0 
L 794 531 
z
" transform="scale(0.015625)"/>
       </defs>
       <use xlink:href="#DejaVuSans-31"/>
       <use xlink:href="#DejaVuSans-30" x="63.623047"/>
       <use xlink:href="#DejaVuSans-30" x="127.246094"/>
      </g>
     </g>
    </g>
    <g id="xtick_6">
     <g id="line2d_11">
      <path d="M 277.761462 307.584 
L 277.761462 41.472 
" clip-path="url(#p9967fa38ad)" style="fill: none; stroke: #b0b0b0; stroke-width: 0.8; stroke-linecap: square"/>
     </g>
     <g id="line2d_12">
      <g>
       <use xlink:href="#mb9e375f7da" x="277.761462" y="307.584" style="stroke: #000000; stroke-width: 0.8"/>
      </g>
     </g>
     <g id="text_6">
      <!-- 125 -->
      <g transform="translate(268.217712 322.182437) scale(0.1 -0.1)">
       <use xlink:href="#DejaVuSans-31"/>
       <use xlink:href="#DejaVuSans-32" x="63.623047"/>
       <use xlink:href="#DejaVuSans-35" x="127.246094"/>
      </g>
     </g>
    </g>
    <g id="xtick_7">
     <g id="line2d_13">
      <path d="M 318.547209 307.584 
L 318.547209 41.472 
" clip-path="url(#p9967fa38ad)" style="fill: none; stroke: #b0b0b0; stroke-width: 0.8; stroke-linecap: square"/>
     </g>
     <g id="line2d_14">
      <g>
       <use xlink:href="#mb9e375f7da" x="318.547209" y="307.584" style="stroke: #000000; stroke-width: 0.8"/>
      </g>
     </g>
     <g id="text_7">
      <!-- 150 -->
      <g transform="translate(309.003459 322.182437) scale(0.1 -0.1)">
       <use xlink:href="#DejaVuSans-31"/>
       <use xlink:href="#DejaVuSans-35" x="63.623047"/>
       <use xlink:href="#DejaVuSans-30" x="127.246094"/>
      </g>
     </g>
    </g>
    <g id="xtick_8">
     <g id="line2d_15">
      <path d="M 359.332956 307.584 
L 359.332956 41.472 
" clip-path="url(#p9967fa38ad)" style="fill: none; stroke: #b0b0b0; stroke-width: 0.8; stroke-linecap: square"/>
     </g>
     <g id="line2d_16">
      <g>
       <use xlink:href="#mb9e375f7da" x="359.332956" y="307.584" style="stroke: #000000; stroke-width: 0.8"/>
      </g>
     </g>
     <g id="text_8">
      <!-- 175 -->
      <g transform="translate(349.789206 322.182437) scale(0.1 -0.1)">
       <use xlink:href="#DejaVuSans-31"/>
       <use xlink:href="#DejaVuSans-37" x="63.623047"/>
       <use xlink:href="#DejaVuSans-35" x="127.246094"/>
      </g>
     </g>
    </g>
    <g id="xtick_9">
     <g id="line2d_17">
      <path d="M 400.118703 307.584 
L 400.118703 41.472 
" clip-path="url(#p9967fa38ad)" style="fill: none; stroke: #b0b0b0; stroke-width: 0.8; stroke-linecap: square"/>
     </g>
     <g id="line2d_18">
      <g>
       <use xlink:href="#mb9e375f7da" x="400.118703" y="307.584" style="stroke: #000000; stroke-width: 0.8"/>
      </g>
     </g>
     <g id="text_9">
      <!-- 200 -->
      <g transform="translate(390.574953 322.182437) scale(0.1 -0.1)">
       <use xlink:href="#DejaVuSans-32"/>
       <use xlink:href="#DejaVuSans-30" x="63.623047"/>
       <use xlink:href="#DejaVuSans-30" x="127.246094"/>
      </g>
     </g>
    </g>
    <g id="text_10">
     <!-- Generations -->
     <g transform="translate(205.662344 335.860562) scale(0.1 -0.1)">
      <defs>
       <path id="DejaVuSans-47" d="M 3809 666 
L 3809 1919 
L 2778 1919 
L 2778 2438 
L 4434 2438 
L 4434 434 
Q 4069 175 3628 42 
Q 3188 -91 2688 -91 
Q 1594 -91 976 548 
Q 359 1188 359 2328 
Q 359 3472 976 4111 
Q 1594 4750 2688 4750 
Q 3144 4750 3555 4637 
Q 3966 4525 4313 4306 
L 4313 3634 
Q 3963 3931 3569 4081 
Q 3175 4231 2741 4231 
Q 1884 4231 1454 3753 
Q 1025 3275 1025 2328 
Q 1025 1384 1454 906 
Q 1884 428 2741 428 
Q 3075 428 3337 486 
Q 3600 544 3809 666 
z
" transform="scale(0.015625)"/>
       <path id="DejaVuSans-65" d="M 3597 1894 
L 3597 1613 
L 953 1613 
Q 991 1019 1311 708 
Q 1631 397 2203 397 
Q 2534 397 2845 478 
Q 3156 559 3463 722 
L 3463 178 
Q 3153 47 2828 -22 
Q 2503 -91 2169 -91 
Q 1331 -91 842 396 
Q 353 884 353 1716 
Q 353 2575 817 3079 
Q 1281 3584 2069 3584 
Q 2775 3584 3186 3129 
Q 3597 2675 3597 1894 
z
M 3022 2063 
Q 3016 2534 2758 2815 
Q 2500 3097 2075 3097 
Q 1594 3097 1305 2825 
Q 1016 2553 972 2059 
L 3022 2063 
z
" transform="scale(0.015625)"/>
       <path id="DejaVuSans-6e" d="M 3513 2113 
L 3513 0 
L 2938 0 
L 2938 2094 
Q 2938 2591 2744 2837 
Q 2550 3084 2163 3084 
Q 1697 3084 1428 2787 
Q 1159 2491 1159 1978 
L 1159 0 
L 581 0 
L 581 3500 
L 1159 3500 
L 1159 2956 
Q 1366 3272 1645 3428 
Q 1925 3584 2291 3584 
Q 2894 3584 3203 3211 
Q 3513 2838 3513 2113 
z
" transform="scale(0.015625)"/>
       <path id="DejaVuSans-72" d="M 2631 2963 
Q 2534 3019 2420 3045 
Q 2306 3072 2169 3072 
Q 1681 3072 1420 2755 
Q 1159 2438 1159 1844 
L 1159 0 
L 581 0 
L 581 3500 
L 1159 3500 
L 1159 2956 
Q 1341 3275 1631 3429 
Q 1922 3584 2338 3584 
Q 2397 3584 2469 3576 
Q 2541 3569 2628 3553 
L 2631 2963 
z
" transform="scale(0.015625)"/>
       <path id="DejaVuSans-61" d="M 2194 1759 
Q 1497 1759 1228 1600 
Q 959 1441 959 1056 
Q 959 750 1161 570 
Q 1363 391 1709 391 
Q 2188 391 2477 730 
Q 2766 1069 2766 1631 
L 2766 1759 
L 2194 1759 
z
M 3341 1997 
L 3341 0 
L 2766 0 
L 2766 531 
Q 2569 213 2275 61 
Q 1981 -91 1556 -91 
Q 1019 -91 701 211 
Q 384 513 384 1019 
Q 384 1609 779 1909 
Q 1175 2209 1959 2209 
L 2766 2209 
L 2766 2266 
Q 2766 2663 2505 2880 
Q 2244 3097 1772 3097 
Q 1472 3097 1187 3025 
Q 903 2953 641 2809 
L 641 3341 
Q 956 3463 1253 3523 
Q 1550 3584 1831 3584 
Q 2591 3584 2966 3190 
Q 3341 2797 3341 1997 
z
" transform="scale(0.015625)"/>
       <path id="DejaVuSans-74" d="M 1172 4494 
L 1172 3500 
L 2356 3500 
L 2356 3053 
L 1172 3053 
L 1172 1153 
Q 1172 725 1289 603 
Q 1406 481 1766 481 
L 2356 481 
L 2356 0 
L 1766 0 
Q 1100 0 847 248 
Q 594 497 594 1153 
L 594 3053 
L 172 3053 
L 172 3500 
L 594 3500 
L 594 4494 
L 1172 4494 
z
" transform="scale(0.015625)"/>
       <path id="DejaVuSans-69" d="M 603 3500 
L 1178 3500 
L 1178 0 
L 603 0 
L 603 3500 
z
M 603 4863 
L 1178 4863 
L 1178 4134 
L 603 4134 
L 603 4863 
z
" transform="scale(0.015625)"/>
       <path id="DejaVuSans-6f" d="M 1959 3097 
Q 1497 3097 1228 2736 
Q 959 2375 959 1747 
Q 959 1119 1226 758 
Q 1494 397 1959 397 
Q 2419 397 2687 759 
Q 2956 1122 2956 1747 
Q 2956 2369 2687 2733 
Q 2419 3097 1959 3097 
z
M 1959 3584 
Q 2709 3584 3137 3096 
Q 3566 2609 3566 1747 
Q 3566 888 3137 398 
Q 2709 -91 1959 -91 
Q 1206 -91 779 398 
Q 353 888 353 1747 
Q 353 2609 779 3096 
Q 1206 3584 1959 3584 
z
" transform="scale(0.015625)"/>
       <path id="DejaVuSans-73" d="M 2834 3397 
L 2834 2853 
Q 2591 2978 2328 3040 
Q 2066 3103 1784 3103 
Q 1356 3103 1142 2972 
Q 928 2841 928 2578 
Q 928 2378 1081 2264 
Q 1234 2150 1697 2047 
L 1894 2003 
Q 2506 1872 2764 1633 
Q 3022 1394 3022 966 
Q 3022 478 2636 193 
Q 2250 -91 1575 -91 
Q 1294 -91 989 -36 
Q 684 19 347 128 
L 347 722 
Q 666 556 975 473 
Q 1284 391 1588 391 
Q 1994 391 2212 530 
Q 2431 669 2431 922 
Q 2431 1156 2273 1281 
Q 2116 1406 1581 1522 
L 1381 1569 
Q 847 1681 609 1914 
Q 372 2147 372 2553 
Q 372 3047 722 3315 
Q 1072 3584 1716 3584 
Q 2034 3584 2315 3537 
Q 2597 3491 2834 3397 
z
" transform="scale(0.015625)"/>
      </defs>
      <use xlink:href="#DejaVuSans-47"/>
      <use xlink:href="#DejaVuSans-65" x="77.490234"/>
      <use xlink:href="#DejaVuSans-6e" x="139.013672"/>
      <use xlink:href="#DejaVuSans-65" x="202.392578"/>
      <use xlink:href="#DejaVuSans-72" x="263.916016"/>
      <use xlink:href="#DejaVuSans-61" x="305.029297"/>
      <use xlink:href="#DejaVuSans-74" x="366.308594"/>
      <use xlink:href="#DejaVuSans-69" x="405.517578"/>
      <use xlink:href="#DejaVuSans-6f" x="433.300781"/>
      <use xlink:href="#DejaVuSans-6e" x="494.482422"/>
      <use xlink:href="#DejaVuSans-73" x="557.861328"/>
     </g>
    </g>
   </g>
   <g id="matplotlib.axis_2">
    <g id="ytick_1">
     <g id="line2d_19">
      <path d="M 57.6 280.012163 
L 414.72 280.012163 
" clip-path="url(#p9967fa38ad)" style="fill: none; stroke: #b0b0b0; stroke-width: 0.8; stroke-linecap: square"/>
     </g>
     <g id="line2d_20">
      <defs>
       <path id="m36332d4643" d="M 0 0 
L -3.5 0 
" style="stroke: #000000; stroke-width: 0.8"/>
      </defs>
      <g>
       <use xlink:href="#m36332d4643" x="57.6" y="280.012163" style="stroke: #000000; stroke-width: 0.8"/>
      </g>
     </g>
     <g id="text_11">
      <!-- −2000 -->
      <g transform="translate(16.770313 283.811382) scale(0.1 -0.1)">
       <defs>
        <path id="DejaVuSans-2212" d="M 678 2272 
L 4684 2272 
L 4684 1741 
L 678 1741 
L 678 2272 
z
" transform="scale(0.015625)"/>
       </defs>
       <use xlink:href="#DejaVuSans-2212"/>
       <use xlink:href="#DejaVuSans-32" x="83.789062"/>
       <use xlink:href="#DejaVuSans-30" x="147.412109"/>
       <use xlink:href="#DejaVuSans-30" x="211.035156"/>
       <use xlink:href="#DejaVuSans-30" x="274.658203"/>
      </g>
     </g>
    </g>
    <g id="ytick_2">
     <g id="line2d_21">
      <path d="M 57.6 245.849815 
L 414.72 245.849815 
" clip-path="url(#p9967fa38ad)" style="fill: none; stroke: #b0b0b0; stroke-width: 0.8; stroke-linecap: square"/>
     </g>
     <g id="line2d_22">
      <g>
       <use xlink:href="#m36332d4643" x="57.6" y="245.849815" style="stroke: #000000; stroke-width: 0.8"/>
      </g>
     </g>
     <g id="text_12">
      <!-- −1750 -->
      <g transform="translate(16.770313 249.649034) scale(0.1 -0.1)">
       <use xlink:href="#DejaVuSans-2212"/>
       <use xlink:href="#DejaVuSans-31" x="83.789062"/>
       <use xlink:href="#DejaVuSans-37" x="147.412109"/>
       <use xlink:href="#DejaVuSans-35" x="211.035156"/>
       <use xlink:href="#DejaVuSans-30" x="274.658203"/>
      </g>
     </g>
    </g>
    <g id="ytick_3">
     <g id="line2d_23">
      <path d="M 57.6 211.687467 
L 414.72 211.687467 
" clip-path="url(#p9967fa38ad)" style="fill: none; stroke: #b0b0b0; stroke-width: 0.8; stroke-linecap: square"/>
     </g>
     <g id="line2d_24">
      <g>
       <use xlink:href="#m36332d4643" x="57.6" y="211.687467" style="stroke: #000000; stroke-width: 0.8"/>
      </g>
     </g>
     <g id="text_13">
      <!-- −1500 -->
      <g transform="translate(16.770313 215.486685) scale(0.1 -0.1)">
       <use xlink:href="#DejaVuSans-2212"/>
       <use xlink:href="#DejaVuSans-31" x="83.789062"/>
       <use xlink:href="#DejaVuSans-35" x="147.412109"/>
       <use xlink:href="#DejaVuSans-30" x="211.035156"/>
       <use xlink:href="#DejaVuSans-30" x="274.658203"/>
      </g>
     </g>
    </g>
    <g id="ytick_4">
     <g id="line2d_25">
      <path d="M 57.6 177.525118 
L 414.72 177.525118 
" clip-path="url(#p9967fa38ad)" style="fill: none; stroke: #b0b0b0; stroke-width: 0.8; stroke-linecap: square"/>
     </g>
     <g id="line2d_26">
      <g>
       <use xlink:href="#m36332d4643" x="57.6" y="177.525118" style="stroke: #000000; stroke-width: 0.8"/>
      </g>
     </g>
     <g id="text_14">
      <!-- −1250 -->
      <g transform="translate(16.770313 181.324337) scale(0.1 -0.1)">
       <use xlink:href="#DejaVuSans-2212"/>
       <use xlink:href="#DejaVuSans-31" x="83.789062"/>
       <use xlink:href="#DejaVuSans-32" x="147.412109"/>
       <use xlink:href="#DejaVuSans-35" x="211.035156"/>
       <use xlink:href="#DejaVuSans-30" x="274.658203"/>
      </g>
     </g>
    </g>
    <g id="ytick_5">
     <g id="line2d_27">
      <path d="M 57.6 143.36277 
L 414.72 143.36277 
" clip-path="url(#p9967fa38ad)" style="fill: none; stroke: #b0b0b0; stroke-width: 0.8; stroke-linecap: square"/>
     </g>
     <g id="line2d_28">
      <g>
       <use xlink:href="#m36332d4643" x="57.6" y="143.36277" style="stroke: #000000; stroke-width: 0.8"/>
      </g>
     </g>
     <g id="text_15">
      <!-- −1000 -->
      <g transform="translate(16.770313 147.161989) scale(0.1 -0.1)">
       <use xlink:href="#DejaVuSans-2212"/>
       <use xlink:href="#DejaVuSans-31" x="83.789062"/>
       <use xlink:href="#DejaVuSans-30" x="147.412109"/>
       <use xlink:href="#DejaVuSans-30" x="211.035156"/>
       <use xlink:href="#DejaVuSans-30" x="274.658203"/>
      </g>
     </g>
    </g>
    <g id="ytick_6">
     <g id="line2d_29">
      <path d="M 57.6 109.200422 
L 414.72 109.200422 
" clip-path="url(#p9967fa38ad)" style="fill: none; stroke: #b0b0b0; stroke-width: 0.8; stroke-linecap: square"/>
     </g>
     <g id="line2d_30">
      <g>
       <use xlink:href="#m36332d4643" x="57.6" y="109.200422" style="stroke: #000000; stroke-width: 0.8"/>
      </g>
     </g>
     <g id="text_16">
      <!-- −750 -->
      <g transform="translate(23.132812 112.999641) scale(0.1 -0.1)">
       <use xlink:href="#DejaVuSans-2212"/>
       <use xlink:href="#DejaVuSans-37" x="83.789062"/>
       <use xlink:href="#DejaVuSans-35" x="147.412109"/>
       <use xlink:href="#DejaVuSans-30" x="211.035156"/>
      </g>
     </g>
    </g>
    <g id="ytick_7">
     <g id="line2d_31">
      <path d="M 57.6 75.038074 
L 414.72 75.038074 
" clip-path="url(#p9967fa38ad)" style="fill: none; stroke: #b0b0b0; stroke-width: 0.8; stroke-linecap: square"/>
     </g>
     <g id="line2d_32">
      <g>
       <use xlink:href="#m36332d4643" x="57.6" y="75.038074" style="stroke: #000000; stroke-width: 0.8"/>
      </g>
     </g>
     <g id="text_17">
      <!-- −500 -->
      <g transform="translate(23.132812 78.837293) scale(0.1 -0.1)">
       <use xlink:href="#DejaVuSans-2212"/>
       <use xlink:href="#DejaVuSans-35" x="83.789062"/>
       <use xlink:href="#DejaVuSans-30" x="147.412109"/>
       <use xlink:href="#DejaVuSans-30" x="211.035156"/>
      </g>
     </g>
    </g>
    <g id="text_18">
     <!-- Fitness -->
     <g transform="translate(10.690625 191.845187) rotate(-90) scale(0.1 -0.1)">
      <defs>
       <path id="DejaVuSans-46" d="M 628 4666 
L 3309 4666 
L 3309 4134 
L 1259 4134 
L 1259 2759 
L 3109 2759 
L 3109 2228 
L 1259 2228 
L 1259 0 
L 628 0 
L 628 4666 
z
" transform="scale(0.015625)"/>
      </defs>
      <use xlink:href="#DejaVuSans-46"/>
      <use xlink:href="#DejaVuSans-69" x="50.269531"/>
      <use xlink:href="#DejaVuSans-74" x="78.052734"/>
      <use xlink:href="#DejaVuSans-6e" x="117.261719"/>
      <use xlink:href="#DejaVuSans-65" x="180.640625"/>
      <use xlink:href="#DejaVuSans-73" x="242.164062"/>
      <use xlink:href="#DejaVuSans-73" x="294.263672"/>
     </g>
    </g>
   </g>
   <g id="line2d_33">
    <path d="M 73.832727 261.54787 
L 75.464157 259.939045 
L 77.095587 257.959746 
L 78.727017 257.498905 
L 80.358447 258.269343 
L 81.989877 256.022945 
L 83.621307 257.853451 
L 85.252736 255.067907 
L 86.884166 257.347317 
L 90.147026 256.13377 
L 91.778456 255.182813 
L 93.409886 256.413369 
L 95.041316 254.389848 
L 96.672746 251.851112 
L 98.304175 252.150555 
L 99.935605 254.474842 
L 103.198465 254.596584 
L 104.829895 254.093336 
L 108.092755 253.54527 
L 109.724185 252.517403 
L 111.355614 251.341978 
L 112.987044 248.557904 
L 114.618474 251.496128 
L 116.249904 249.780262 
L 117.881334 251.881099 
L 119.512764 251.811685 
L 121.144194 251.09028 
L 122.775624 252.42939 
L 124.407053 250.815059 
L 126.038483 250.228511 
L 127.669913 249.012116 
L 129.301343 246.581396 
L 130.932773 249.403939 
L 132.564203 252.606313 
L 134.195633 252.120902 
L 135.827063 252.782707 
L 137.458492 251.380513 
L 139.089922 252.588282 
L 140.721352 252.064709 
L 142.352782 254.249863 
L 143.984212 253.359082 
L 145.615642 251.523335 
L 147.247072 248.744344 
L 148.878502 251.804176 
L 150.509931 253.02815 
L 152.141361 252.677057 
L 153.772791 250.650362 
L 155.404221 252.643259 
L 157.035651 249.48105 
L 158.667081 249.149561 
L 160.298511 248.606909 
L 161.929941 249.809944 
L 163.56137 249.569349 
L 165.1928 246.318406 
L 166.82423 246.225895 
L 168.45566 245.34804 
L 170.08709 247.776511 
L 171.71852 248.733028 
L 173.34995 248.978339 
L 174.98138 246.945367 
L 176.61281 248.688705 
L 178.244239 246.763607 
L 179.875669 247.087739 
L 181.507099 245.718918 
L 183.138529 248.69916 
L 184.769959 248.814234 
L 186.401389 250.144018 
L 188.032819 251.202486 
L 189.664249 250.986734 
L 191.295678 250.973319 
L 192.927108 248.796924 
L 194.558538 249.461112 
L 196.189968 249.446932 
L 197.821398 248.779973 
L 199.452828 251.67339 
L 201.084258 245.796867 
L 202.715688 250.122274 
L 204.347117 249.253753 
L 205.978547 247.784198 
L 207.609977 246.127767 
L 209.241407 249.707865 
L 210.872837 253.733535 
L 212.504267 252.40879 
L 214.135697 254.197336 
L 217.398556 253.296268 
L 219.029986 252.369636 
L 220.661416 252.38967 
L 222.292846 251.700914 
L 223.924276 249.407105 
L 225.555706 252.782317 
L 227.187136 252.83479 
L 228.818566 252.428139 
L 230.449995 253.045832 
L 232.081425 252.81387 
L 233.712855 250.143198 
L 235.344285 250.154708 
L 236.975715 251.477888 
L 238.607145 251.438466 
L 240.238575 252.042554 
L 241.870005 251.395607 
L 243.501434 250.939234 
L 245.132864 252.794595 
L 246.764294 252.302048 
L 248.395724 251.029742 
L 250.027154 252.188577 
L 251.658584 252.509453 
L 253.290014 253.412818 
L 254.921444 253.623929 
L 256.552873 253.47715 
L 258.184303 253.689047 
L 259.815733 253.12972 
L 261.447163 253.890573 
L 263.078593 253.128553 
L 264.710023 251.902541 
L 266.341453 254.521708 
L 267.972883 252.160911 
L 269.604312 253.71052 
L 271.235742 253.499916 
L 272.867172 253.840598 
L 274.498602 253.677128 
L 276.130032 254.215709 
L 277.761462 254.164023 
L 279.392892 253.083831 
L 282.655751 252.671242 
L 284.287181 253.967293 
L 285.918611 254.191846 
L 287.550041 253.19144 
L 289.181471 250.67552 
L 290.812901 250.368911 
L 292.444331 253.815045 
L 294.075761 254.451172 
L 295.70719 254.116541 
L 297.33862 253.307809 
L 298.97005 252.223528 
L 300.60148 254.642021 
L 302.23291 253.283162 
L 303.86434 255.109806 
L 305.49577 254.364954 
L 307.1272 254.598055 
L 308.75863 255.096664 
L 310.390059 254.50197 
L 312.021489 255.534334 
L 313.652919 255.824312 
L 315.284349 253.506699 
L 316.915779 254.249767 
L 318.547209 254.711586 
L 320.178639 253.942954 
L 321.810069 252.501878 
L 323.441498 253.216287 
L 325.072928 252.636585 
L 326.704358 253.129147 
L 328.335788 252.10398 
L 329.967218 252.217687 
L 331.598648 252.135868 
L 333.230078 251.319901 
L 334.861508 251.698748 
L 336.492937 251.82536 
L 338.124367 251.534007 
L 339.755797 252.340605 
L 341.387227 250.122199 
L 343.018657 249.569918 
L 344.650087 250.503229 
L 346.281517 247.837588 
L 347.912947 248.78005 
L 349.544376 250.412 
L 351.175806 249.323959 
L 352.807236 252.10964 
L 354.438666 252.934479 
L 356.070096 253.54373 
L 357.701526 253.080075 
L 359.332956 252.189881 
L 360.964386 252.736942 
L 362.595815 253.543286 
L 364.227245 250.68543 
L 365.858675 252.185871 
L 367.490105 251.851724 
L 369.121535 251.791912 
L 370.752965 252.095127 
L 372.384395 251.244623 
L 374.015825 252.638302 
L 375.647254 251.476624 
L 377.278684 249.775421 
L 378.910114 252.075108 
L 380.541544 250.265243 
L 382.172974 250.948961 
L 383.804404 252.177954 
L 385.435834 251.591725 
L 387.067264 250.38664 
L 388.698693 250.352505 
L 390.330123 250.815332 
L 391.961553 251.793967 
L 393.592983 252.999868 
L 395.224413 248.191638 
L 396.855843 251.143443 
L 398.487273 251.603561 
L 398.487273 251.603561 
" clip-path="url(#p9967fa38ad)" style="fill: none; stroke: #0000ff; stroke-width: 1.5; stroke-linecap: square"/>
   </g>
   <g id="line2d_34">
    <path d="M 73.832727 287.499833 
L 75.464157 288.494665 
L 77.095587 287.16441 
L 78.727017 286.541782 
L 80.358447 285.707702 
L 81.989877 285.551693 
L 83.621307 280.117695 
L 85.252736 282.054019 
L 86.884166 279.009042 
L 88.515596 281.20864 
L 90.147026 278.900592 
L 93.409886 282.325828 
L 95.041316 283.818173 
L 96.672746 285.856762 
L 98.304175 286.139866 
L 99.935605 286.028017 
L 103.198465 286.592512 
L 104.829895 285.842184 
L 106.461325 284.718002 
L 108.092755 284.963076 
L 109.724185 287.395431 
L 111.355614 289.018003 
L 112.987044 291.032124 
L 114.618474 291.023328 
L 116.249904 292.600399 
L 117.881334 291.298168 
L 119.512764 291.015841 
L 121.144194 290.279399 
L 122.775624 292.247173 
L 124.407053 292.038874 
L 127.669913 290.063043 
L 129.301343 292.517156 
L 132.564203 288.811095 
L 134.195633 289.215765 
L 135.827063 288.760383 
L 137.458492 289.556732 
L 139.089922 287.47568 
L 140.721352 288.709224 
L 142.352782 289.214812 
L 143.984212 289.144489 
L 145.615642 292.125074 
L 147.247072 292.685407 
L 148.878502 289.099443 
L 150.509931 290.235728 
L 152.141361 290.231666 
L 153.772791 290.610875 
L 155.404221 289.567735 
L 157.035651 291.377632 
L 158.667081 291.767882 
L 160.298511 291.582246 
L 161.929941 291.9872 
L 163.56137 291.322511 
L 165.1928 294.10404 
L 166.82423 295.488 
L 168.45566 293.108094 
L 170.08709 292.195044 
L 171.71852 294.202917 
L 173.34995 292.655092 
L 174.98138 292.608821 
L 176.61281 291.867083 
L 178.244239 292.951321 
L 179.875669 294.429429 
L 181.507099 292.673285 
L 183.138529 292.738138 
L 184.769959 292.386355 
L 186.401389 290.193142 
L 188.032819 290.386103 
L 191.295678 289.910257 
L 192.927108 290.763304 
L 194.558538 292.145634 
L 196.189968 290.257669 
L 197.821398 294.241041 
L 199.452828 291.101523 
L 201.084258 293.633889 
L 202.715688 290.824065 
L 204.347117 290.502948 
L 205.978547 291.212814 
L 207.609977 292.822494 
L 209.241407 289.579296 
L 210.872837 287.659051 
L 212.504267 289.24656 
L 214.135697 288.902257 
L 215.767127 287.105165 
L 217.398556 288.126451 
L 219.029986 288.044159 
L 220.661416 288.405013 
L 222.292846 290.85971 
L 223.924276 292.674566 
L 225.555706 288.515968 
L 227.187136 288.271055 
L 228.818566 287.742535 
L 230.449995 288.547362 
L 232.081425 288.375786 
L 233.712855 290.474121 
L 235.344285 289.559139 
L 236.975715 290.059537 
L 238.607145 290.040014 
L 240.238575 289.259968 
L 241.870005 291.24631 
L 243.501434 289.396631 
L 245.132864 288.903484 
L 246.764294 288.860941 
L 248.395724 289.059118 
L 250.027154 287.513565 
L 251.658584 288.644118 
L 253.290014 288.121556 
L 254.921444 288.566003 
L 256.552873 288.172568 
L 259.815733 287.572525 
L 261.447163 288.182552 
L 263.078593 287.576766 
L 264.710023 287.467019 
L 266.341453 288.654613 
L 267.972883 289.673078 
L 269.604312 288.327065 
L 271.235742 287.878548 
L 272.867172 288.139448 
L 274.498602 288.638053 
L 277.761462 288.882473 
L 279.392892 288.700516 
L 281.024322 288.185678 
L 282.655751 290.629491 
L 284.287181 288.819194 
L 285.918611 287.792876 
L 287.550041 287.16606 
L 289.181471 289.207232 
L 290.812901 289.446693 
L 292.444331 286.330872 
L 294.075761 286.864863 
L 295.70719 286.142998 
L 297.33862 287.414461 
L 298.97005 288.905069 
L 300.60148 286.389174 
L 302.23291 288.749678 
L 303.86434 285.603078 
L 305.49577 285.287772 
L 307.1272 284.721201 
L 308.75863 285.344372 
L 310.390059 285.513205 
L 312.021489 285.090672 
L 313.652919 283.811635 
L 315.284349 285.932723 
L 316.915779 285.080583 
L 318.547209 287.599503 
L 320.178639 286.653154 
L 321.810069 287.949295 
L 323.441498 286.491453 
L 325.072928 287.171828 
L 326.704358 286.607365 
L 328.335788 287.469282 
L 329.967218 288.100917 
L 331.598648 289.284235 
L 333.230078 288.789901 
L 334.861508 289.537791 
L 336.492937 288.691309 
L 338.124367 288.563282 
L 339.755797 289.711186 
L 341.387227 289.469548 
L 343.018657 290.971757 
L 344.650087 290.518954 
L 346.281517 293.751567 
L 347.912947 293.054915 
L 349.544376 293.34553 
L 351.175806 292.196487 
L 352.807236 289.917802 
L 354.438666 287.839748 
L 356.070096 287.760009 
L 357.701526 287.519458 
L 359.332956 288.450706 
L 360.964386 289.602822 
L 362.595815 290.246948 
L 364.227245 290.520472 
L 365.858675 289.108387 
L 367.490105 289.489194 
L 369.121535 289.115791 
L 370.752965 289.530998 
L 372.384395 288.589543 
L 374.015825 290.232393 
L 375.647254 289.28404 
L 377.278684 290.345586 
L 378.910114 289.57147 
L 382.172974 289.730531 
L 383.804404 289.401671 
L 385.435834 289.237992 
L 387.067264 290.21478 
L 388.698693 290.574049 
L 390.330123 291.068612 
L 391.961553 289.288601 
L 393.592983 290.272458 
L 395.224413 293.820999 
L 396.855843 290.138743 
L 398.487273 290.72049 
L 398.487273 290.72049 
" clip-path="url(#p9967fa38ad)" style="fill: none; stroke-dasharray: 9.6,2.4,1.5,2.4; stroke-dashoffset: 0; stroke: #008000; stroke-width: 1.5"/>
   </g>
   <g id="line2d_35">
    <path d="M 73.832727 235.595907 
L 75.464157 231.383426 
L 77.095587 228.755082 
L 78.727017 228.456028 
L 80.358447 230.830985 
L 81.989877 226.494196 
L 83.621307 235.589206 
L 85.252736 228.081794 
L 86.884166 235.685592 
L 88.515596 232.244393 
L 90.147026 233.366948 
L 91.778456 229.681435 
L 93.409886 230.50091 
L 95.041316 224.961523 
L 96.672746 217.845461 
L 98.304175 218.161243 
L 99.935605 222.921667 
L 101.567035 222.665629 
L 103.198465 222.600656 
L 104.829895 222.344487 
L 106.461325 222.890619 
L 108.092755 222.127464 
L 109.724185 217.639374 
L 111.355614 213.665953 
L 112.987044 206.083685 
L 114.618474 211.968928 
L 116.249904 206.960126 
L 117.881334 212.46403 
L 119.512764 212.607529 
L 121.144194 211.901161 
L 122.775624 212.611608 
L 124.407053 209.591245 
L 126.038483 209.405983 
L 127.669913 207.96119 
L 129.301343 200.645636 
L 130.932773 208.185871 
L 132.564203 216.401531 
L 134.195633 215.026039 
L 135.827063 216.805031 
L 137.458492 213.204294 
L 139.089922 217.700884 
L 140.721352 215.420193 
L 142.352782 219.284914 
L 143.984212 217.573675 
L 145.615642 210.921596 
L 147.247072 204.80328 
L 148.878502 214.508908 
L 150.509931 215.820571 
L 152.141361 215.122449 
L 153.772791 210.689848 
L 155.404221 215.718784 
L 157.035651 207.584467 
L 158.667081 206.531241 
L 160.298511 205.631573 
L 161.929941 207.632687 
L 163.56137 207.816186 
L 165.1928 198.532772 
L 166.82423 196.96379 
L 168.45566 197.587987 
L 170.08709 203.357977 
L 171.71852 203.263139 
L 173.34995 205.301586 
L 174.98138 201.281914 
L 176.61281 205.510327 
L 178.244239 200.575893 
L 179.875669 199.746049 
L 181.507099 198.764551 
L 183.138529 204.660183 
L 184.769959 205.242112 
L 186.401389 210.094894 
L 188.032819 212.018869 
L 189.664249 211.864136 
L 191.295678 212.036382 
L 192.927108 206.830544 
L 194.558538 206.77659 
L 196.189968 208.636195 
L 197.821398 203.318906 
L 199.452828 212.245258 
L 201.084258 197.959846 
L 202.715688 209.420483 
L 204.347117 208.004558 
L 205.978547 204.355581 
L 207.609977 199.43304 
L 210.872837 219.808018 
L 212.504267 215.57102 
L 214.135697 219.492416 
L 215.767127 220.296042 
L 219.029986 216.695112 
L 220.661416 216.374328 
L 222.292846 212.542119 
L 223.924276 206.139645 
L 225.555706 217.048666 
L 227.187136 217.398525 
L 228.818566 217.113743 
L 230.449995 217.544303 
L 232.081425 217.251955 
L 233.712855 209.812275 
L 235.344285 210.750277 
L 236.975715 212.896239 
L 238.607145 212.836917 
L 240.238575 214.825139 
L 241.870005 211.544905 
L 243.501434 212.481837 
L 245.132864 216.685705 
L 246.764294 215.743156 
L 248.395724 213.000366 
L 250.027154 216.863588 
L 251.658584 216.374788 
L 253.290014 218.704079 
L 254.921444 218.681855 
L 256.552873 218.781733 
L 258.184303 219.453915 
L 259.815733 218.686915 
L 261.447163 219.598593 
L 263.078593 218.680339 
L 264.710023 216.338064 
L 266.341453 220.388803 
L 267.972883 214.648744 
L 269.604312 219.093975 
L 271.235742 219.121284 
L 272.867172 219.541748 
L 274.498602 218.716202 
L 276.130032 219.644886 
L 277.761462 219.445573 
L 279.392892 217.467146 
L 281.024322 217.604501 
L 282.655751 214.712993 
L 284.287181 219.115392 
L 285.918611 220.590815 
L 287.550041 219.21682 
L 289.181471 212.143807 
L 290.812901 211.29113 
L 292.444331 221.299217 
L 294.075761 222.03748 
L 295.70719 222.090084 
L 297.33862 219.201156 
L 298.97005 215.541988 
L 300.60148 222.894869 
L 302.23291 217.816645 
L 303.86434 224.616534 
L 305.49577 223.442136 
L 307.1272 224.474909 
L 308.75863 224.848957 
L 310.390059 223.490736 
L 312.021489 225.977996 
L 313.652919 227.836989 
L 315.284349 221.080674 
L 316.915779 223.418952 
L 318.547209 221.82367 
L 320.178639 221.232754 
L 321.810069 217.054461 
L 323.441498 219.941122 
L 325.072928 218.101341 
L 326.704358 219.650929 
L 328.335788 216.738678 
L 329.967218 216.334456 
L 331.598648 214.987502 
L 333.230078 213.849901 
L 334.861508 213.859705 
L 336.492937 214.959412 
L 338.124367 214.504731 
L 339.755797 214.970025 
L 341.387227 210.77485 
L 343.018657 208.168079 
L 344.650087 210.487503 
L 346.281517 201.923609 
L 347.912947 204.505185 
L 349.544376 207.47847 
L 351.175806 206.45143 
L 352.807236 214.301478 
L 354.438666 218.02921 
L 356.070096 219.327452 
L 357.701526 218.640692 
L 359.332956 215.929055 
L 360.964386 215.871061 
L 362.595815 216.839624 
L 364.227245 210.850387 
L 365.858675 215.263355 
L 367.490105 214.214255 
L 370.752965 214.659257 
L 372.384395 213.899704 
L 374.015825 215.044212 
L 375.647254 213.669209 
L 377.278684 209.205256 
L 378.910114 214.578745 
L 380.541544 210.824774 
L 382.172974 212.167392 
L 383.804404 214.954236 
L 385.435834 213.945458 
L 387.067264 210.558501 
L 388.698693 210.130961 
L 390.330123 210.562053 
L 391.961553 214.299334 
L 393.592983 215.727278 
L 395.224413 202.562278 
L 396.855843 212.148142 
L 398.487273 212.486632 
L 398.487273 212.486632 
" clip-path="url(#p9967fa38ad)" style="fill: none; stroke-dasharray: 9.6,2.4,1.5,2.4; stroke-dashoffset: 0; stroke: #008000; stroke-width: 1.5"/>
   </g>
   <g id="line2d_36">
    <path d="M 73.832727 60.866458 
L 111.355614 60.866458 
L 112.987044 57.105865 
L 143.984212 57.105865 
L 145.615642 56.094649 
L 199.452828 56.031793 
L 201.084258 53.568 
L 398.487273 53.568 
L 398.487273 53.568 
" clip-path="url(#p9967fa38ad)" style="fill: none; stroke: #ff0000; stroke-width: 1.5; stroke-linecap: square"/>
   </g>
   <g id="patch_3">
    <path d="M 57.6 307.584 
L 57.6 41.472 
" style="fill: none; stroke: #000000; stroke-width: 0.8; stroke-linejoin: miter; stroke-linecap: square"/>
   </g>
   <g id="patch_4">
    <path d="M 414.72 307.584 
L 414.72 41.472 
" style="fill: none; stroke: #000000; stroke-width: 0.8; stroke-linejoin: miter; stroke-linecap: square"/>
   </g>
   <g id="patch_5">
    <path d="M 57.6 307.584 
L 414.72 307.584 
" style="fill: none; stroke: #000000; stroke-width: 0.8; stroke-linejoin: miter; stroke-linecap: square"/>
   </g>
   <g id="patch_6">
    <path d="M 57.6 41.472 
L 414.72 41.472 
" style="fill: none; stroke: #000000; stroke-width: 0.8; stroke-linejoin: miter; stroke-linecap: square"/>
   </g>
   <g id="text_19">
    <!-- Population's average and best fitness -->
    <g transform="translate(123.529687 35.472) scale(0.12 -0.12)">
     <defs>
      <path id="DejaVuSans-50" d="M 1259 4147 
L 1259 2394 
L 2053 2394 
Q 2494 2394 2734 2622 
Q 2975 2850 2975 3272 
Q 2975 3691 2734 3919 
Q 2494 4147 2053 4147 
L 1259 4147 
z
M 628 4666 
L 2053 4666 
Q 2838 4666 3239 4311 
Q 3641 3956 3641 3272 
Q 3641 2581 3239 2228 
Q 2838 1875 2053 1875 
L 1259 1875 
L 1259 0 
L 628 0 
L 628 4666 
z
" transform="scale(0.015625)"/>
      <path id="DejaVuSans-70" d="M 1159 525 
L 1159 -1331 
L 581 -1331 
L 581 3500 
L 1159 3500 
L 1159 2969 
Q 1341 3281 1617 3432 
Q 1894 3584 2278 3584 
Q 2916 3584 3314 3078 
Q 3713 2572 3713 1747 
Q 3713 922 3314 415 
Q 2916 -91 2278 -91 
Q 1894 -91 1617 61 
Q 1341 213 1159 525 
z
M 3116 1747 
Q 3116 2381 2855 2742 
Q 2594 3103 2138 3103 
Q 1681 3103 1420 2742 
Q 1159 2381 1159 1747 
Q 1159 1113 1420 752 
Q 1681 391 2138 391 
Q 2594 391 2855 752 
Q 3116 1113 3116 1747 
z
" transform="scale(0.015625)"/>
      <path id="DejaVuSans-75" d="M 544 1381 
L 544 3500 
L 1119 3500 
L 1119 1403 
Q 1119 906 1312 657 
Q 1506 409 1894 409 
Q 2359 409 2629 706 
Q 2900 1003 2900 1516 
L 2900 3500 
L 3475 3500 
L 3475 0 
L 2900 0 
L 2900 538 
Q 2691 219 2414 64 
Q 2138 -91 1772 -91 
Q 1169 -91 856 284 
Q 544 659 544 1381 
z
M 1991 3584 
L 1991 3584 
z
" transform="scale(0.015625)"/>
      <path id="DejaVuSans-6c" d="M 603 4863 
L 1178 4863 
L 1178 0 
L 603 0 
L 603 4863 
z
" transform="scale(0.015625)"/>
      <path id="DejaVuSans-27" d="M 1147 4666 
L 1147 2931 
L 616 2931 
L 616 4666 
L 1147 4666 
z
" transform="scale(0.015625)"/>
      <path id="DejaVuSans-20" transform="scale(0.015625)"/>
      <path id="DejaVuSans-76" d="M 191 3500 
L 800 3500 
L 1894 563 
L 2988 3500 
L 3597 3500 
L 2284 0 
L 1503 0 
L 191 3500 
z
" transform="scale(0.015625)"/>
      <path id="DejaVuSans-67" d="M 2906 1791 
Q 2906 2416 2648 2759 
Q 2391 3103 1925 3103 
Q 1463 3103 1205 2759 
Q 947 2416 947 1791 
Q 947 1169 1205 825 
Q 1463 481 1925 481 
Q 2391 481 2648 825 
Q 2906 1169 2906 1791 
z
M 3481 434 
Q 3481 -459 3084 -895 
Q 2688 -1331 1869 -1331 
Q 1566 -1331 1297 -1286 
Q 1028 -1241 775 -1147 
L 775 -588 
Q 1028 -725 1275 -790 
Q 1522 -856 1778 -856 
Q 2344 -856 2625 -561 
Q 2906 -266 2906 331 
L 2906 616 
Q 2728 306 2450 153 
Q 2172 0 1784 0 
Q 1141 0 747 490 
Q 353 981 353 1791 
Q 353 2603 747 3093 
Q 1141 3584 1784 3584 
Q 2172 3584 2450 3431 
Q 2728 3278 2906 2969 
L 2906 3500 
L 3481 3500 
L 3481 434 
z
" transform="scale(0.015625)"/>
      <path id="DejaVuSans-64" d="M 2906 2969 
L 2906 4863 
L 3481 4863 
L 3481 0 
L 2906 0 
L 2906 525 
Q 2725 213 2448 61 
Q 2172 -91 1784 -91 
Q 1150 -91 751 415 
Q 353 922 353 1747 
Q 353 2572 751 3078 
Q 1150 3584 1784 3584 
Q 2172 3584 2448 3432 
Q 2725 3281 2906 2969 
z
M 947 1747 
Q 947 1113 1208 752 
Q 1469 391 1925 391 
Q 2381 391 2643 752 
Q 2906 1113 2906 1747 
Q 2906 2381 2643 2742 
Q 2381 3103 1925 3103 
Q 1469 3103 1208 2742 
Q 947 2381 947 1747 
z
" transform="scale(0.015625)"/>
      <path id="DejaVuSans-62" d="M 3116 1747 
Q 3116 2381 2855 2742 
Q 2594 3103 2138 3103 
Q 1681 3103 1420 2742 
Q 1159 2381 1159 1747 
Q 1159 1113 1420 752 
Q 1681 391 2138 391 
Q 2594 391 2855 752 
Q 3116 1113 3116 1747 
z
M 1159 2969 
Q 1341 3281 1617 3432 
Q 1894 3584 2278 3584 
Q 2916 3584 3314 3078 
Q 3713 2572 3713 1747 
Q 3713 922 3314 415 
Q 2916 -91 2278 -91 
Q 1894 -91 1617 61 
Q 1341 213 1159 525 
L 1159 0 
L 581 0 
L 581 4863 
L 1159 4863 
L 1159 2969 
z
" transform="scale(0.015625)"/>
      <path id="DejaVuSans-66" d="M 2375 4863 
L 2375 4384 
L 1825 4384 
Q 1516 4384 1395 4259 
Q 1275 4134 1275 3809 
L 1275 3500 
L 2222 3500 
L 2222 3053 
L 1275 3053 
L 1275 0 
L 697 0 
L 697 3053 
L 147 3053 
L 147 3500 
L 697 3500 
L 697 3744 
Q 697 4328 969 4595 
Q 1241 4863 1831 4863 
L 2375 4863 
z
" transform="scale(0.015625)"/>
     </defs>
     <use xlink:href="#DejaVuSans-50"/>
     <use xlink:href="#DejaVuSans-6f" x="56.677734"/>
     <use xlink:href="#DejaVuSans-70" x="117.859375"/>
     <use xlink:href="#DejaVuSans-75" x="181.335938"/>
     <use xlink:href="#DejaVuSans-6c" x="244.714844"/>
     <use xlink:href="#DejaVuSans-61" x="272.498047"/>
     <use xlink:href="#DejaVuSans-74" x="333.777344"/>
     <use xlink:href="#DejaVuSans-69" x="372.986328"/>
     <use xlink:href="#DejaVuSans-6f" x="400.769531"/>
     <use xlink:href="#DejaVuSans-6e" x="461.951172"/>
     <use xlink:href="#DejaVuSans-27" x="525.330078"/>
     <use xlink:href="#DejaVuSans-73" x="552.820312"/>
     <use xlink:href="#DejaVuSans-20" x="604.919922"/>
     <use xlink:href="#DejaVuSans-61" x="636.707031"/>
     <use xlink:href="#DejaVuSans-76" x="697.986328"/>
     <use xlink:href="#DejaVuSans-65" x="757.166016"/>
     <use xlink:href="#DejaVuSans-72" x="818.689453"/>
     <use xlink:href="#DejaVuSans-61" x="859.802734"/>
     <use xlink:href="#DejaVuSans-67" x="921.082031"/>
     <use xlink:href="#DejaVuSans-65" x="984.558594"/>
     <use xlink:href="#DejaVuSans-20" x="1046.082031"/>
     <use xlink:href="#DejaVuSans-61" x="1077.869141"/>
     <use xlink:href="#DejaVuSans-6e" x="1139.148438"/>
     <use xlink:href="#DejaVuSans-64" x="1202.527344"/>
     <use xlink:href="#DejaVuSans-20" x="1266.003906"/>
     <use xlink:href="#DejaVuSans-62" x="1297.791016"/>
     <use xlink:href="#DejaVuSans-65" x="1361.267578"/>
     <use xlink:href="#DejaVuSans-73" x="1422.791016"/>
     <use xlink:href="#DejaVuSans-74" x="1474.890625"/>
     <use xlink:href="#DejaVuSans-20" x="1514.099609"/>
     <use xlink:href="#DejaVuSans-66" x="1545.886719"/>
     <use xlink:href="#DejaVuSans-69" x="1581.091797"/>
     <use xlink:href="#DejaVuSans-74" x="1608.875"/>
     <use xlink:href="#DejaVuSans-6e" x="1648.083984"/>
     <use xlink:href="#DejaVuSans-65" x="1711.462891"/>
     <use xlink:href="#DejaVuSans-73" x="1772.986328"/>
     <use xlink:href="#DejaVuSans-73" x="1825.085938"/>
    </g>
   </g>
   <g id="legend_1">
    <g id="patch_7">
     <path d="M 64.6 205.38425 
L 137.540625 205.38425 
Q 139.540625 205.38425 139.540625 203.38425 
L 139.540625 145.67175 
Q 139.540625 143.67175 137.540625 143.67175 
L 64.6 143.67175 
Q 62.6 143.67175 62.6 145.67175 
L 62.6 203.38425 
Q 62.6 205.38425 64.6 205.38425 
z
" style="fill: #ffffff; opacity: 0.8; stroke: #cccccc; stroke-linejoin: miter"/>
    </g>
    <g id="line2d_37">
     <path d="M 66.6 151.770188 
L 76.6 151.770188 
L 86.6 151.770188 
" style="fill: none; stroke: #0000ff; stroke-width: 1.5; stroke-linecap: square"/>
    </g>
    <g id="text_20">
     <!-- average -->
     <g transform="translate(94.6 155.270188) scale(0.1 -0.1)">
      <use xlink:href="#DejaVuSans-61"/>
      <use xlink:href="#DejaVuSans-76" x="61.279297"/>
      <use xlink:href="#DejaVuSans-65" x="120.458984"/>
      <use xlink:href="#DejaVuSans-72" x="181.982422"/>
      <use xlink:href="#DejaVuSans-61" x="223.095703"/>
      <use xlink:href="#DejaVuSans-67" x="284.375"/>
      <use xlink:href="#DejaVuSans-65" x="347.851562"/>
     </g>
    </g>
    <g id="line2d_38">
     <path d="M 66.6 166.448313 
L 76.6 166.448313 
L 86.6 166.448313 
" style="fill: none; stroke-dasharray: 9.6,2.4,1.5,2.4; stroke-dashoffset: 0; stroke: #008000; stroke-width: 1.5"/>
    </g>
    <g id="text_21">
     <!-- -1 sd -->
     <g transform="translate(94.6 169.948313) scale(0.1 -0.1)">
      <defs>
       <path id="DejaVuSans-2d" d="M 313 2009 
L 1997 2009 
L 1997 1497 
L 313 1497 
L 313 2009 
z
" transform="scale(0.015625)"/>
      </defs>
      <use xlink:href="#DejaVuSans-2d"/>
      <use xlink:href="#DejaVuSans-31" x="36.083984"/>
      <use xlink:href="#DejaVuSans-20" x="99.707031"/>
      <use xlink:href="#DejaVuSans-73" x="131.494141"/>
      <use xlink:href="#DejaVuSans-64" x="183.59375"/>
     </g>
    </g>
    <g id="line2d_39">
     <path d="M 66.6 181.126438 
L 76.6 181.126438 
L 86.6 181.126438 
" style="fill: none; stroke-dasharray: 9.6,2.4,1.5,2.4; stroke-dashoffset: 0; stroke: #008000; stroke-width: 1.5"/>
    </g>
    <g id="text_22">
     <!-- +1 sd -->
     <g transform="translate(94.6 184.626438) scale(0.1 -0.1)">
      <defs>
       <path id="DejaVuSans-2b" d="M 2944 4013 
L 2944 2272 
L 4684 2272 
L 4684 1741 
L 2944 1741 
L 2944 0 
L 2419 0 
L 2419 1741 
L 678 1741 
L 678 2272 
L 2419 2272 
L 2419 4013 
L 2944 4013 
z
" transform="scale(0.015625)"/>
      </defs>
      <use xlink:href="#DejaVuSans-2b"/>
      <use xlink:href="#DejaVuSans-31" x="83.789062"/>
      <use xlink:href="#DejaVuSans-20" x="147.412109"/>
      <use xlink:href="#DejaVuSans-73" x="179.199219"/>
      <use xlink:href="#DejaVuSans-64" x="231.298828"/>
     </g>
    </g>
    <g id="line2d_40">
     <path d="M 66.6 195.804563 
L 76.6 195.804563 
L 86.6 195.804563 
" style="fill: none; stroke: #ff0000; stroke-width: 1.5; stroke-linecap: square"/>
    </g>
    <g id="text_23">
     <!-- best -->
     <g transform="translate(94.6 199.304563) scale(0.1 -0.1)">
      <use xlink:href="#DejaVuSans-62"/>
      <use xlink:href="#DejaVuSans-65" x="63.476562"/>
      <use xlink:href="#DejaVuSans-73" x="125"/>
      <use xlink:href="#DejaVuSans-74" x="177.099609"/>
     </g>
    </g>
   </g>
  </g>
 </g>
 <defs>
  <clipPath id="p9967fa38ad">
   <rect x="57.6" y="41.472" width="357.12" height="266.112"/>
  </clipPath>
 </defs>
</svg>
