<?xml version="1.0" encoding="utf-8" standalone="no"?>
<!DOCTYPE svg PUBLIC "-//W3C//DTD SVG 1.1//EN"
  "http://www.w3.org/Graphics/SVG/1.1/DTD/svg11.dtd">
<svg xmlns:xlink="http://www.w3.org/1999/xlink" width="460.8pt" height="345.6pt" viewBox="0 0 460.8 345.6" xmlns="http://www.w3.org/2000/svg" version="1.1">
 <metadata>
  <rdf:RDF xmlns:dc="http://purl.org/dc/elements/1.1/" xmlns:cc="http://creativecommons.org/ns#" xmlns:rdf="http://www.w3.org/1999/02/22-rdf-syntax-ns#">
   <cc:Work>
    <dc:type rdf:resource="http://purl.org/dc/dcmitype/StillImage"/>
    <dc:date>2024-08-02T21:42:12.946986</dc:date>
    <dc:format>image/svg+xml</dc:format>
    <dc:creator>
     <cc:Agent>
      <dc:title>Matplotlib v3.8.4, https://matplotlib.org/</dc:title>
     </cc:Agent>
    </dc:creator>
   </cc:Work>
  </rdf:RDF>
 </metadata>
 <defs>
  <style type="text/css">*{stroke-linejoin: round; stroke-linecap: butt}</style>
 </defs>
 <g id="figure_1">
  <g id="patch_1">
   <path d="M 0 345.6 
L 460.8 345.6 
L 460.8 0 
L 0 0 
z
" style="fill: #ffffff"/>
  </g>
  <g id="axes_1">
   <g id="patch_2">
    <path d="M 57.6 307.584 
L 414.72 307.584 
L 414.72 41.472 
L 57.6 41.472 
z
" style="fill: #ffffff"/>
   </g>
   <g id="matplotlib.axis_1">
    <g id="xtick_1">
     <g id="line2d_1">
      <path d="M 73.832727 307.584 
L 73.832727 41.472 
" clip-path="url(#p84a6814779)" style="fill: none; stroke: #b0b0b0; stroke-width: 0.8; stroke-linecap: square"/>
     </g>
     <g id="line2d_2">
      <defs>
       <path id="m2c8eca9121" d="M 0 0 
L 0 3.5 
" style="stroke: #000000; stroke-width: 0.8"/>
      </defs>
      <g>
       <use xlink:href="#m2c8eca9121" x="73.832727" y="307.584" style="stroke: #000000; stroke-width: 0.8"/>
      </g>
     </g>
     <g id="text_1">
      <!-- 0 -->
      <g transform="translate(70.651477 322.182437) scale(0.1 -0.1)">
       <defs>
        <path id="DejaVuSans-30" d="M 2034 4250 
Q 1547 4250 1301 3770 
Q 1056 3291 1056 2328 
Q 1056 1369 1301 889 
Q 1547 409 2034 409 
Q 2525 409 2770 889 
Q 3016 1369 3016 2328 
Q 3016 3291 2770 3770 
Q 2525 4250 2034 4250 
z
M 2034 4750 
Q 2819 4750 3233 4129 
Q 3647 3509 3647 2328 
Q 3647 1150 3233 529 
Q 2819 -91 2034 -91 
Q 1250 -91 836 529 
Q 422 1150 422 2328 
Q 422 3509 836 4129 
Q 1250 4750 2034 4750 
z
" transform="scale(0.015625)"/>
       </defs>
       <use xlink:href="#DejaVuSans-30"/>
      </g>
     </g>
    </g>
    <g id="xtick_2">
     <g id="line2d_3">
      <path d="M 114.618474 307.584 
L 114.618474 41.472 
" clip-path="url(#p84a6814779)" style="fill: none; stroke: #b0b0b0; stroke-width: 0.8; stroke-linecap: square"/>
     </g>
     <g id="line2d_4">
      <g>
       <use xlink:href="#m2c8eca9121" x="114.618474" y="307.584" style="stroke: #000000; stroke-width: 0.8"/>
      </g>
     </g>
     <g id="text_2">
      <!-- 25 -->
      <g transform="translate(108.255974 322.182437) scale(0.1 -0.1)">
       <defs>
        <path id="DejaVuSans-32" d="M 1228 531 
L 3431 531 
L 3431 0 
L 469 0 
L 469 531 
Q 828 903 1448 1529 
Q 2069 2156 2228 2338 
Q 2531 2678 2651 2914 
Q 2772 3150 2772 3378 
Q 2772 3750 2511 3984 
Q 2250 4219 1831 4219 
Q 1534 4219 1204 4116 
Q 875 4013 500 3803 
L 500 4441 
Q 881 4594 1212 4672 
Q 1544 4750 1819 4750 
Q 2544 4750 2975 4387 
Q 3406 4025 3406 3419 
Q 3406 3131 3298 2873 
Q 3191 2616 2906 2266 
Q 2828 2175 2409 1742 
Q 1991 1309 1228 531 
z
" transform="scale(0.015625)"/>
        <path id="DejaVuSans-35" d="M 691 4666 
L 3169 4666 
L 3169 4134 
L 1269 4134 
L 1269 2991 
Q 1406 3038 1543 3061 
Q 1681 3084 1819 3084 
Q 2600 3084 3056 2656 
Q 3513 2228 3513 1497 
Q 3513 744 3044 326 
Q 2575 -91 1722 -91 
Q 1428 -91 1123 -41 
Q 819 9 494 109 
L 494 744 
Q 775 591 1075 516 
Q 1375 441 1709 441 
Q 2250 441 2565 725 
Q 2881 1009 2881 1497 
Q 2881 1984 2565 2268 
Q 2250 2553 1709 2553 
Q 1456 2553 1204 2497 
Q 953 2441 691 2322 
L 691 4666 
z
" transform="scale(0.015625)"/>
       </defs>
       <use xlink:href="#DejaVuSans-32"/>
       <use xlink:href="#DejaVuSans-35" x="63.623047"/>
      </g>
     </g>
    </g>
    <g id="xtick_3">
     <g id="line2d_5">
      <path d="M 155.404221 307.584 
L 155.404221 41.472 
" clip-path="url(#p84a6814779)" style="fill: none; stroke: #b0b0b0; stroke-width: 0.8; stroke-linecap: square"/>
     </g>
     <g id="line2d_6">
      <g>
       <use xlink:href="#m2c8eca9121" x="155.404221" y="307.584" style="stroke: #000000; stroke-width: 0.8"/>
      </g>
     </g>
     <g id="text_3">
      <!-- 50 -->
      <g transform="translate(149.041721 322.182437) scale(0.1 -0.1)">
       <use xlink:href="#DejaVuSans-35"/>
       <use xlink:href="#DejaVuSans-30" x="63.623047"/>
      </g>
     </g>
    </g>
    <g id="xtick_4">
     <g id="line2d_7">
      <path d="M 196.189968 307.584 
L 196.189968 41.472 
" clip-path="url(#p84a6814779)" style="fill: none; stroke: #b0b0b0; stroke-width: 0.8; stroke-linecap: square"/>
     </g>
     <g id="line2d_8">
      <g>
       <use xlink:href="#m2c8eca9121" x="196.189968" y="307.584" style="stroke: #000000; stroke-width: 0.8"/>
      </g>
     </g>
     <g id="text_4">
      <!-- 75 -->
      <g transform="translate(189.827468 322.182437) scale(0.1 -0.1)">
       <defs>
        <path id="DejaVuSans-37" d="M 525 4666 
L 3525 4666 
L 3525 4397 
L 1831 0 
L 1172 0 
L 2766 4134 
L 525 4134 
L 525 4666 
z
" transform="scale(0.015625)"/>
       </defs>
       <use xlink:href="#DejaVuSans-37"/>
       <use xlink:href="#DejaVuSans-35" x="63.623047"/>
      </g>
     </g>
    </g>
    <g id="xtick_5">
     <g id="line2d_9">
      <path d="M 236.975715 307.584 
L 236.975715 41.472 
" clip-path="url(#p84a6814779)" style="fill: none; stroke: #b0b0b0; stroke-width: 0.8; stroke-linecap: square"/>
     </g>
     <g id="line2d_10">
      <g>
       <use xlink:href="#m2c8eca9121" x="236.975715" y="307.584" style="stroke: #000000; stroke-width: 0.8"/>
      </g>
     </g>
     <g id="text_5">
      <!-- 100 -->
      <g transform="translate(227.431965 322.182437) scale(0.1 -0.1)">
       <defs>
        <path id="DejaVuSans-31" d="M 794 531 
L 1825 531 
L 1825 4091 
L 703 3866 
L 703 4441 
L 1819 4666 
L 2450 4666 
L 2450 531 
L 3481 531 
L 3481 0 
L 794 0 
L 794 531 
z
" transform="scale(0.015625)"/>
       </defs>
       <use xlink:href="#DejaVuSans-31"/>
       <use xlink:href="#DejaVuSans-30" x="63.623047"/>
       <use xlink:href="#DejaVuSans-30" x="127.246094"/>
      </g>
     </g>
    </g>
    <g id="xtick_6">
     <g id="line2d_11">
      <path d="M 277.761462 307.584 
L 277.761462 41.472 
" clip-path="url(#p84a6814779)" style="fill: none; stroke: #b0b0b0; stroke-width: 0.8; stroke-linecap: square"/>
     </g>
     <g id="line2d_12">
      <g>
       <use xlink:href="#m2c8eca9121" x="277.761462" y="307.584" style="stroke: #000000; stroke-width: 0.8"/>
      </g>
     </g>
     <g id="text_6">
      <!-- 125 -->
      <g transform="translate(268.217712 322.182437) scale(0.1 -0.1)">
       <use xlink:href="#DejaVuSans-31"/>
       <use xlink:href="#DejaVuSans-32" x="63.623047"/>
       <use xlink:href="#DejaVuSans-35" x="127.246094"/>
      </g>
     </g>
    </g>
    <g id="xtick_7">
     <g id="line2d_13">
      <path d="M 318.547209 307.584 
L 318.547209 41.472 
" clip-path="url(#p84a6814779)" style="fill: none; stroke: #b0b0b0; stroke-width: 0.8; stroke-linecap: square"/>
     </g>
     <g id="line2d_14">
      <g>
       <use xlink:href="#m2c8eca9121" x="318.547209" y="307.584" style="stroke: #000000; stroke-width: 0.8"/>
      </g>
     </g>
     <g id="text_7">
      <!-- 150 -->
      <g transform="translate(309.003459 322.182437) scale(0.1 -0.1)">
       <use xlink:href="#DejaVuSans-31"/>
       <use xlink:href="#DejaVuSans-35" x="63.623047"/>
       <use xlink:href="#DejaVuSans-30" x="127.246094"/>
      </g>
     </g>
    </g>
    <g id="xtick_8">
     <g id="line2d_15">
      <path d="M 359.332956 307.584 
L 359.332956 41.472 
" clip-path="url(#p84a6814779)" style="fill: none; stroke: #b0b0b0; stroke-width: 0.8; stroke-linecap: square"/>
     </g>
     <g id="line2d_16">
      <g>
       <use xlink:href="#m2c8eca9121" x="359.332956" y="307.584" style="stroke: #000000; stroke-width: 0.8"/>
      </g>
     </g>
     <g id="text_8">
      <!-- 175 -->
      <g transform="translate(349.789206 322.182437) scale(0.1 -0.1)">
       <use xlink:href="#DejaVuSans-31"/>
       <use xlink:href="#DejaVuSans-37" x="63.623047"/>
       <use xlink:href="#DejaVuSans-35" x="127.246094"/>
      </g>
     </g>
    </g>
    <g id="xtick_9">
     <g id="line2d_17">
      <path d="M 400.118703 307.584 
L 400.118703 41.472 
" clip-path="url(#p84a6814779)" style="fill: none; stroke: #b0b0b0; stroke-width: 0.8; stroke-linecap: square"/>
     </g>
     <g id="line2d_18">
      <g>
       <use xlink:href="#m2c8eca9121" x="400.118703" y="307.584" style="stroke: #000000; stroke-width: 0.8"/>
      </g>
     </g>
     <g id="text_9">
      <!-- 200 -->
      <g transform="translate(390.574953 322.182437) scale(0.1 -0.1)">
       <use xlink:href="#DejaVuSans-32"/>
       <use xlink:href="#DejaVuSans-30" x="63.623047"/>
       <use xlink:href="#DejaVuSans-30" x="127.246094"/>
      </g>
     </g>
    </g>
    <g id="text_10">
     <!-- Generations -->
     <g transform="translate(205.662344 335.860562) scale(0.1 -0.1)">
      <defs>
       <path id="DejaVuSans-47" d="M 3809 666 
L 3809 1919 
L 2778 1919 
L 2778 2438 
L 4434 2438 
L 4434 434 
Q 4069 175 3628 42 
Q 3188 -91 2688 -91 
Q 1594 -91 976 548 
Q 359 1188 359 2328 
Q 359 3472 976 4111 
Q 1594 4750 2688 4750 
Q 3144 4750 3555 4637 
Q 3966 4525 4313 4306 
L 4313 3634 
Q 3963 3931 3569 4081 
Q 3175 4231 2741 4231 
Q 1884 4231 1454 3753 
Q 1025 3275 1025 2328 
Q 1025 1384 1454 906 
Q 1884 428 2741 428 
Q 3075 428 3337 486 
Q 3600 544 3809 666 
z
" transform="scale(0.015625)"/>
       <path id="DejaVuSans-65" d="M 3597 1894 
L 3597 1613 
L 953 1613 
Q 991 1019 1311 708 
Q 1631 397 2203 397 
Q 2534 397 2845 478 
Q 3156 559 3463 722 
L 3463 178 
Q 3153 47 2828 -22 
Q 2503 -91 2169 -91 
Q 1331 -91 842 396 
Q 353 884 353 1716 
Q 353 2575 817 3079 
Q 1281 3584 2069 3584 
Q 2775 3584 3186 3129 
Q 3597 2675 3597 1894 
z
M 3022 2063 
Q 3016 2534 2758 2815 
Q 2500 3097 2075 3097 
Q 1594 3097 1305 2825 
Q 1016 2553 972 2059 
L 3022 2063 
z
" transform="scale(0.015625)"/>
       <path id="DejaVuSans-6e" d="M 3513 2113 
L 3513 0 
L 2938 0 
L 2938 2094 
Q 2938 2591 2744 2837 
Q 2550 3084 2163 3084 
Q 1697 3084 1428 2787 
Q 1159 2491 1159 1978 
L 1159 0 
L 581 0 
L 581 3500 
L 1159 3500 
L 1159 2956 
Q 1366 3272 1645 3428 
Q 1925 3584 2291 3584 
Q 2894 3584 3203 3211 
Q 3513 2838 3513 2113 
z
" transform="scale(0.015625)"/>
       <path id="DejaVuSans-72" d="M 2631 2963 
Q 2534 3019 2420 3045 
Q 2306 3072 2169 3072 
Q 1681 3072 1420 2755 
Q 1159 2438 1159 1844 
L 1159 0 
L 581 0 
L 581 3500 
L 1159 3500 
L 1159 2956 
Q 1341 3275 1631 3429 
Q 1922 3584 2338 3584 
Q 2397 3584 2469 3576 
Q 2541 3569 2628 3553 
L 2631 2963 
z
" transform="scale(0.015625)"/>
       <path id="DejaVuSans-61" d="M 2194 1759 
Q 1497 1759 1228 1600 
Q 959 1441 959 1056 
Q 959 750 1161 570 
Q 1363 391 1709 391 
Q 2188 391 2477 730 
Q 2766 1069 2766 1631 
L 2766 1759 
L 2194 1759 
z
M 3341 1997 
L 3341 0 
L 2766 0 
L 2766 531 
Q 2569 213 2275 61 
Q 1981 -91 1556 -91 
Q 1019 -91 701 211 
Q 384 513 384 1019 
Q 384 1609 779 1909 
Q 1175 2209 1959 2209 
L 2766 2209 
L 2766 2266 
Q 2766 2663 2505 2880 
Q 2244 3097 1772 3097 
Q 1472 3097 1187 3025 
Q 903 2953 641 2809 
L 641 3341 
Q 956 3463 1253 3523 
Q 1550 3584 1831 3584 
Q 2591 3584 2966 3190 
Q 3341 2797 3341 1997 
z
" transform="scale(0.015625)"/>
       <path id="DejaVuSans-74" d="M 1172 4494 
L 1172 3500 
L 2356 3500 
L 2356 3053 
L 1172 3053 
L 1172 1153 
Q 1172 725 1289 603 
Q 1406 481 1766 481 
L 2356 481 
L 2356 0 
L 1766 0 
Q 1100 0 847 248 
Q 594 497 594 1153 
L 594 3053 
L 172 3053 
L 172 3500 
L 594 3500 
L 594 4494 
L 1172 4494 
z
" transform="scale(0.015625)"/>
       <path id="DejaVuSans-69" d="M 603 3500 
L 1178 3500 
L 1178 0 
L 603 0 
L 603 3500 
z
M 603 4863 
L 1178 4863 
L 1178 4134 
L 603 4134 
L 603 4863 
z
" transform="scale(0.015625)"/>
       <path id="DejaVuSans-6f" d="M 1959 3097 
Q 1497 3097 1228 2736 
Q 959 2375 959 1747 
Q 959 1119 1226 758 
Q 1494 397 1959 397 
Q 2419 397 2687 759 
Q 2956 1122 2956 1747 
Q 2956 2369 2687 2733 
Q 2419 3097 1959 3097 
z
M 1959 3584 
Q 2709 3584 3137 3096 
Q 3566 2609 3566 1747 
Q 3566 888 3137 398 
Q 2709 -91 1959 -91 
Q 1206 -91 779 398 
Q 353 888 353 1747 
Q 353 2609 779 3096 
Q 1206 3584 1959 3584 
z
" transform="scale(0.015625)"/>
       <path id="DejaVuSans-73" d="M 2834 3397 
L 2834 2853 
Q 2591 2978 2328 3040 
Q 2066 3103 1784 3103 
Q 1356 3103 1142 2972 
Q 928 2841 928 2578 
Q 928 2378 1081 2264 
Q 1234 2150 1697 2047 
L 1894 2003 
Q 2506 1872 2764 1633 
Q 3022 1394 3022 966 
Q 3022 478 2636 193 
Q 2250 -91 1575 -91 
Q 1294 -91 989 -36 
Q 684 19 347 128 
L 347 722 
Q 666 556 975 473 
Q 1284 391 1588 391 
Q 1994 391 2212 530 
Q 2431 669 2431 922 
Q 2431 1156 2273 1281 
Q 2116 1406 1581 1522 
L 1381 1569 
Q 847 1681 609 1914 
Q 372 2147 372 2553 
Q 372 3047 722 3315 
Q 1072 3584 1716 3584 
Q 2034 3584 2315 3537 
Q 2597 3491 2834 3397 
z
" transform="scale(0.015625)"/>
      </defs>
      <use xlink:href="#DejaVuSans-47"/>
      <use xlink:href="#DejaVuSans-65" x="77.490234"/>
      <use xlink:href="#DejaVuSans-6e" x="139.013672"/>
      <use xlink:href="#DejaVuSans-65" x="202.392578"/>
      <use xlink:href="#DejaVuSans-72" x="263.916016"/>
      <use xlink:href="#DejaVuSans-61" x="305.029297"/>
      <use xlink:href="#DejaVuSans-74" x="366.308594"/>
      <use xlink:href="#DejaVuSans-69" x="405.517578"/>
      <use xlink:href="#DejaVuSans-6f" x="433.300781"/>
      <use xlink:href="#DejaVuSans-6e" x="494.482422"/>
      <use xlink:href="#DejaVuSans-73" x="557.861328"/>
     </g>
    </g>
   </g>
   <g id="matplotlib.axis_2">
    <g id="ytick_1">
     <g id="line2d_19">
      <path d="M 57.6 288.144003 
L 414.72 288.144003 
" clip-path="url(#p84a6814779)" style="fill: none; stroke: #b0b0b0; stroke-width: 0.8; stroke-linecap: square"/>
     </g>
     <g id="line2d_20">
      <defs>
       <path id="m21cec54ff7" d="M 0 0 
L -3.5 0 
" style="stroke: #000000; stroke-width: 0.8"/>
      </defs>
      <g>
       <use xlink:href="#m21cec54ff7" x="57.6" y="288.144003" style="stroke: #000000; stroke-width: 0.8"/>
      </g>
     </g>
     <g id="text_11">
      <!-- −2000 -->
      <g transform="translate(16.770313 291.943222) scale(0.1 -0.1)">
       <defs>
        <path id="DejaVuSans-2212" d="M 678 2272 
L 4684 2272 
L 4684 1741 
L 678 1741 
L 678 2272 
z
" transform="scale(0.015625)"/>
       </defs>
       <use xlink:href="#DejaVuSans-2212"/>
       <use xlink:href="#DejaVuSans-32" x="83.789062"/>
       <use xlink:href="#DejaVuSans-30" x="147.412109"/>
       <use xlink:href="#DejaVuSans-30" x="211.035156"/>
       <use xlink:href="#DejaVuSans-30" x="274.658203"/>
      </g>
     </g>
    </g>
    <g id="ytick_2">
     <g id="line2d_21">
      <path d="M 57.6 252.299087 
L 414.72 252.299087 
" clip-path="url(#p84a6814779)" style="fill: none; stroke: #b0b0b0; stroke-width: 0.8; stroke-linecap: square"/>
     </g>
     <g id="line2d_22">
      <g>
       <use xlink:href="#m21cec54ff7" x="57.6" y="252.299087" style="stroke: #000000; stroke-width: 0.8"/>
      </g>
     </g>
     <g id="text_12">
      <!-- −1750 -->
      <g transform="translate(16.770313 256.098306) scale(0.1 -0.1)">
       <use xlink:href="#DejaVuSans-2212"/>
       <use xlink:href="#DejaVuSans-31" x="83.789062"/>
       <use xlink:href="#DejaVuSans-37" x="147.412109"/>
       <use xlink:href="#DejaVuSans-35" x="211.035156"/>
       <use xlink:href="#DejaVuSans-30" x="274.658203"/>
      </g>
     </g>
    </g>
    <g id="ytick_3">
     <g id="line2d_23">
      <path d="M 57.6 216.45417 
L 414.72 216.45417 
" clip-path="url(#p84a6814779)" style="fill: none; stroke: #b0b0b0; stroke-width: 0.8; stroke-linecap: square"/>
     </g>
     <g id="line2d_24">
      <g>
       <use xlink:href="#m21cec54ff7" x="57.6" y="216.45417" style="stroke: #000000; stroke-width: 0.8"/>
      </g>
     </g>
     <g id="text_13">
      <!-- −1500 -->
      <g transform="translate(16.770313 220.253389) scale(0.1 -0.1)">
       <use xlink:href="#DejaVuSans-2212"/>
       <use xlink:href="#DejaVuSans-31" x="83.789062"/>
       <use xlink:href="#DejaVuSans-35" x="147.412109"/>
       <use xlink:href="#DejaVuSans-30" x="211.035156"/>
       <use xlink:href="#DejaVuSans-30" x="274.658203"/>
      </g>
     </g>
    </g>
    <g id="ytick_4">
     <g id="line2d_25">
      <path d="M 57.6 180.609254 
L 414.72 180.609254 
" clip-path="url(#p84a6814779)" style="fill: none; stroke: #b0b0b0; stroke-width: 0.8; stroke-linecap: square"/>
     </g>
     <g id="line2d_26">
      <g>
       <use xlink:href="#m21cec54ff7" x="57.6" y="180.609254" style="stroke: #000000; stroke-width: 0.8"/>
      </g>
     </g>
     <g id="text_14">
      <!-- −1250 -->
      <g transform="translate(16.770313 184.408473) scale(0.1 -0.1)">
       <use xlink:href="#DejaVuSans-2212"/>
       <use xlink:href="#DejaVuSans-31" x="83.789062"/>
       <use xlink:href="#DejaVuSans-32" x="147.412109"/>
       <use xlink:href="#DejaVuSans-35" x="211.035156"/>
       <use xlink:href="#DejaVuSans-30" x="274.658203"/>
      </g>
     </g>
    </g>
    <g id="ytick_5">
     <g id="line2d_27">
      <path d="M 57.6 144.764338 
L 414.72 144.764338 
" clip-path="url(#p84a6814779)" style="fill: none; stroke: #b0b0b0; stroke-width: 0.8; stroke-linecap: square"/>
     </g>
     <g id="line2d_28">
      <g>
       <use xlink:href="#m21cec54ff7" x="57.6" y="144.764338" style="stroke: #000000; stroke-width: 0.8"/>
      </g>
     </g>
     <g id="text_15">
      <!-- −1000 -->
      <g transform="translate(16.770313 148.563557) scale(0.1 -0.1)">
       <use xlink:href="#DejaVuSans-2212"/>
       <use xlink:href="#DejaVuSans-31" x="83.789062"/>
       <use xlink:href="#DejaVuSans-30" x="147.412109"/>
       <use xlink:href="#DejaVuSans-30" x="211.035156"/>
       <use xlink:href="#DejaVuSans-30" x="274.658203"/>
      </g>
     </g>
    </g>
    <g id="ytick_6">
     <g id="line2d_29">
      <path d="M 57.6 108.919422 
L 414.72 108.919422 
" clip-path="url(#p84a6814779)" style="fill: none; stroke: #b0b0b0; stroke-width: 0.8; stroke-linecap: square"/>
     </g>
     <g id="line2d_30">
      <g>
       <use xlink:href="#m21cec54ff7" x="57.6" y="108.919422" style="stroke: #000000; stroke-width: 0.8"/>
      </g>
     </g>
     <g id="text_16">
      <!-- −750 -->
      <g transform="translate(23.132812 112.71864) scale(0.1 -0.1)">
       <use xlink:href="#DejaVuSans-2212"/>
       <use xlink:href="#DejaVuSans-37" x="83.789062"/>
       <use xlink:href="#DejaVuSans-35" x="147.412109"/>
       <use xlink:href="#DejaVuSans-30" x="211.035156"/>
      </g>
     </g>
    </g>
    <g id="ytick_7">
     <g id="line2d_31">
      <path d="M 57.6 73.074505 
L 414.72 73.074505 
" clip-path="url(#p84a6814779)" style="fill: none; stroke: #b0b0b0; stroke-width: 0.8; stroke-linecap: square"/>
     </g>
     <g id="line2d_32">
      <g>
       <use xlink:href="#m21cec54ff7" x="57.6" y="73.074505" style="stroke: #000000; stroke-width: 0.8"/>
      </g>
     </g>
     <g id="text_17">
      <!-- −500 -->
      <g transform="translate(23.132812 76.873724) scale(0.1 -0.1)">
       <use xlink:href="#DejaVuSans-2212"/>
       <use xlink:href="#DejaVuSans-35" x="83.789062"/>
       <use xlink:href="#DejaVuSans-30" x="147.412109"/>
       <use xlink:href="#DejaVuSans-30" x="211.035156"/>
      </g>
     </g>
    </g>
    <g id="text_18">
     <!-- Fitness -->
     <g transform="translate(10.690625 191.845187) rotate(-90) scale(0.1 -0.1)">
      <defs>
       <path id="DejaVuSans-46" d="M 628 4666 
L 3309 4666 
L 3309 4134 
L 1259 4134 
L 1259 2759 
L 3109 2759 
L 3109 2228 
L 1259 2228 
L 1259 0 
L 628 0 
L 628 4666 
z
" transform="scale(0.015625)"/>
      </defs>
      <use xlink:href="#DejaVuSans-46"/>
      <use xlink:href="#DejaVuSans-69" x="50.269531"/>
      <use xlink:href="#DejaVuSans-74" x="78.052734"/>
      <use xlink:href="#DejaVuSans-6e" x="117.261719"/>
      <use xlink:href="#DejaVuSans-65" x="180.640625"/>
      <use xlink:href="#DejaVuSans-73" x="242.164062"/>
      <use xlink:href="#DejaVuSans-73" x="294.263672"/>
     </g>
    </g>
   </g>
   <g id="line2d_33">
    <path d="M 73.832727 270.709013 
L 75.464157 267.975734 
L 77.095587 268.004929 
L 78.727017 267.549744 
L 80.358447 266.875066 
L 81.989877 266.013161 
L 83.621307 264.826266 
L 85.252736 267.171183 
L 86.884166 265.865938 
L 88.515596 265.168379 
L 90.147026 265.44369 
L 91.778456 265.210112 
L 93.409886 265.132754 
L 95.041316 264.677445 
L 96.672746 264.635167 
L 98.304175 265.900361 
L 101.567035 265.571704 
L 103.198465 264.960455 
L 104.829895 264.999244 
L 106.461325 265.835805 
L 108.092755 264.50107 
L 109.724185 265.186212 
L 111.355614 264.907173 
L 112.987044 264.139022 
L 114.618474 264.16423 
L 116.249904 265.216962 
L 117.881334 264.455688 
L 119.512764 264.428312 
L 121.144194 265.496357 
L 122.775624 266.138072 
L 124.407053 264.68624 
L 126.038483 264.311512 
L 127.669913 264.496375 
L 129.301343 265.975002 
L 130.932773 264.465861 
L 134.195633 264.998877 
L 135.827063 265.672225 
L 137.458492 264.532661 
L 139.089922 264.79511 
L 140.721352 263.934983 
L 142.352782 263.961479 
L 143.984212 263.717417 
L 145.615642 263.274739 
L 147.247072 263.460913 
L 148.878502 263.924376 
L 150.509931 260.362889 
L 152.141361 262.218494 
L 153.772791 261.274956 
L 155.404221 262.505214 
L 157.035651 261.53791 
L 158.667081 260.808829 
L 160.298511 261.976284 
L 161.929941 260.061227 
L 163.56137 260.789268 
L 165.1928 261.734857 
L 166.82423 261.370314 
L 168.45566 261.89779 
L 170.08709 260.903398 
L 171.71852 260.6327 
L 173.34995 261.48007 
L 174.98138 261.101414 
L 176.61281 259.937803 
L 178.244239 261.135823 
L 179.875669 260.040482 
L 181.507099 262.413119 
L 183.138529 262.427254 
L 184.769959 260.104159 
L 186.401389 260.204748 
L 188.032819 262.333738 
L 189.664249 262.15252 
L 191.295678 261.090931 
L 192.927108 262.208641 
L 194.558538 261.038577 
L 196.189968 262.315764 
L 197.821398 261.521468 
L 199.452828 261.559705 
L 201.084258 261.956877 
L 202.715688 261.784602 
L 204.347117 262.124669 
L 205.978547 261.723071 
L 207.609977 260.427002 
L 209.241407 261.229108 
L 210.872837 261.310619 
L 212.504267 261.065858 
L 214.135697 261.921063 
L 215.767127 261.615363 
L 217.398556 262.179757 
L 220.661416 262.085322 
L 222.292846 260.358995 
L 223.924276 261.64894 
L 225.555706 262.212365 
L 227.187136 261.472153 
L 228.818566 260.083238 
L 232.081425 261.371978 
L 233.712855 261.815132 
L 236.975715 261.196337 
L 238.607145 261.602547 
L 241.870005 261.400115 
L 243.501434 261.559414 
L 248.395724 261.39804 
L 250.027154 261.773907 
L 251.658584 261.345194 
L 253.290014 262.347945 
L 254.921444 260.615233 
L 256.552873 261.521623 
L 258.184303 261.706192 
L 259.815733 263.225648 
L 261.447163 262.947605 
L 263.078593 262.042124 
L 264.710023 260.963858 
L 266.341453 260.830494 
L 267.972883 261.909536 
L 269.604312 261.252314 
L 271.235742 262.645411 
L 272.867172 262.727864 
L 274.498602 260.799843 
L 276.130032 261.37281 
L 277.761462 261.473751 
L 279.392892 262.416833 
L 281.024322 261.250768 
L 282.655751 260.961491 
L 284.287181 261.186204 
L 285.918611 261.692983 
L 287.550041 261.081283 
L 289.181471 262.285298 
L 290.812901 262.186527 
L 292.444331 262.774022 
L 294.075761 262.344056 
L 295.70719 262.406693 
L 297.33862 261.678979 
L 300.60148 262.666338 
L 302.23291 262.304703 
L 303.86434 260.657954 
L 307.1272 262.961574 
L 308.75863 262.428241 
L 310.390059 262.605247 
L 312.021489 261.626871 
L 313.652919 261.48154 
L 315.284349 262.194159 
L 316.915779 261.453815 
L 318.547209 261.857583 
L 320.178639 261.894798 
L 321.810069 261.426023 
L 323.441498 260.712696 
L 325.072928 261.216536 
L 326.704358 261.502204 
L 328.335788 260.589282 
L 329.967218 261.726282 
L 333.230078 261.548693 
L 334.861508 262.124768 
L 336.492937 259.763657 
L 338.124367 259.717753 
L 339.755797 260.822716 
L 341.387227 260.133728 
L 343.018657 260.761365 
L 344.650087 260.684105 
L 346.281517 260.493657 
L 347.912947 261.092238 
L 349.544376 261.529447 
L 351.175806 260.60946 
L 352.807236 261.136665 
L 354.438666 261.044663 
L 356.070096 260.393425 
L 357.701526 260.111339 
L 359.332956 261.453239 
L 362.595815 260.594348 
L 367.490105 261.329996 
L 369.121535 260.567647 
L 370.752965 261.426057 
L 372.384395 261.693262 
L 374.015825 260.635589 
L 375.647254 259.956607 
L 377.278684 260.610017 
L 378.910114 261.674845 
L 380.541544 261.049829 
L 382.172974 260.908578 
L 383.804404 260.274198 
L 385.435834 261.184998 
L 387.067264 261.138979 
L 388.698693 261.755757 
L 390.330123 260.371062 
L 391.961553 260.409891 
L 393.592983 260.992178 
L 395.224413 261.267467 
L 398.487273 259.915604 
L 398.487273 259.915604 
" clip-path="url(#p84a6814779)" style="fill: none; stroke: #0000ff; stroke-width: 1.5; stroke-linecap: square"/>
   </g>
   <g id="line2d_34">
    <path d="M 73.832727 287.275945 
L 75.464157 289.787909 
L 77.095587 283.612088 
L 80.358447 279.923029 
L 81.989877 278.842039 
L 83.621307 278.721572 
L 85.252736 280.596631 
L 86.884166 278.736114 
L 88.515596 277.907985 
L 90.147026 278.302004 
L 93.409886 277.758416 
L 95.041316 277.286643 
L 96.672746 277.281613 
L 98.304175 279.004754 
L 101.567035 277.821836 
L 103.198465 277.015674 
L 104.829895 277.046292 
L 106.461325 278.169461 
L 108.092755 277.41464 
L 109.724185 278.931027 
L 111.355614 278.187718 
L 112.987044 278.483514 
L 114.618474 279.280735 
L 116.249904 280.754381 
L 117.881334 279.462515 
L 119.512764 279.779442 
L 121.144194 281.159024 
L 122.775624 282.065046 
L 124.407053 279.797822 
L 127.669913 279.627639 
L 129.301343 281.846514 
L 130.932773 279.655283 
L 132.564203 279.928131 
L 134.195633 280.503909 
L 135.827063 281.347902 
L 137.458492 280.024565 
L 140.721352 280.437425 
L 142.352782 278.80171 
L 143.984212 283.606345 
L 145.615642 282.296162 
L 147.247072 282.962286 
L 148.878502 283.379252 
L 150.509931 289.418775 
L 153.772791 288.177146 
L 155.404221 288.843773 
L 157.035651 288.38818 
L 158.667081 290.110519 
L 160.298511 288.612211 
L 161.929941 293.903232 
L 163.56137 291.688615 
L 165.1928 293.042477 
L 166.82423 292.835931 
L 168.45566 293.101844 
L 170.08709 292.159281 
L 171.71852 291.349933 
L 173.34995 292.290831 
L 174.98138 292.095516 
L 176.61281 292.997305 
L 178.244239 292.455984 
L 179.875669 293.147097 
L 181.507099 290.356479 
L 183.138529 290.558533 
L 184.769959 291.869866 
L 186.401389 294.172289 
L 188.032819 291.411327 
L 189.664249 291.323152 
L 191.295678 293.463716 
L 192.927108 290.353623 
L 194.558538 291.684525 
L 196.189968 291.388869 
L 197.821398 290.515203 
L 199.452828 290.444055 
L 204.347117 292.518657 
L 205.978547 292.209747 
L 207.609977 290.756212 
L 209.241407 291.008399 
L 210.872837 291.552218 
L 212.504267 291.586919 
L 214.135697 292.524899 
L 215.767127 291.786689 
L 217.398556 292.78065 
L 219.029986 292.703274 
L 220.661416 293.00332 
L 222.292846 295.488 
L 223.924276 292.160281 
L 225.555706 293.076755 
L 227.187136 292.060542 
L 228.818566 294.994491 
L 230.449995 291.462241 
L 232.081425 291.595434 
L 233.712855 292.494979 
L 235.344285 292.381184 
L 236.975715 291.426107 
L 238.607145 292.072477 
L 240.238575 292.458009 
L 241.870005 292.50973 
L 245.132864 291.808623 
L 246.764294 292.000977 
L 248.395724 291.814923 
L 250.027154 292.321215 
L 251.658584 292.063518 
L 253.290014 293.25573 
L 254.921444 291.701236 
L 256.552873 291.682136 
L 258.184303 292.235814 
L 259.815733 294.153837 
L 261.447163 293.112673 
L 263.078593 293.094684 
L 264.710023 291.41797 
L 266.341453 291.503881 
L 267.972883 292.558185 
L 269.604312 291.153586 
L 271.235742 292.338657 
L 272.867172 293.238142 
L 274.498602 291.289384 
L 276.130032 292.070528 
L 277.761462 292.451334 
L 279.392892 292.690455 
L 281.024322 292.189889 
L 282.655751 293.315895 
L 284.287181 292.430158 
L 285.918611 293.726119 
L 287.550041 293.103942 
L 289.181471 291.286254 
L 290.812901 291.450254 
L 292.444331 291.91637 
L 294.075761 290.578638 
L 295.70719 290.794673 
L 298.97005 290.026866 
L 302.23291 289.873606 
L 303.86434 293.964282 
L 305.49577 290.315669 
L 307.1272 290.374043 
L 308.75863 289.647394 
L 310.390059 290.005021 
L 312.021489 289.999844 
L 315.284349 291.516973 
L 316.915779 290.960221 
L 318.547209 291.947284 
L 320.178639 290.681293 
L 321.810069 291.453322 
L 323.441498 292.850301 
L 325.072928 291.7466 
L 326.704358 291.631374 
L 328.335788 291.759255 
L 329.967218 290.857951 
L 331.598648 291.259564 
L 333.230078 291.293655 
L 334.861508 291.970716 
L 336.492937 291.466512 
L 338.124367 291.968073 
L 339.755797 291.761025 
L 341.387227 292.806546 
L 343.018657 290.369118 
L 344.650087 291.126323 
L 346.281517 292.617258 
L 347.912947 290.718073 
L 349.544376 291.519619 
L 351.175806 291.808088 
L 352.807236 290.611525 
L 354.438666 294.560763 
L 356.070096 294.1829 
L 357.701526 293.671527 
L 359.332956 292.173915 
L 360.964386 291.591715 
L 362.595815 293.252874 
L 365.858675 292.422255 
L 367.490105 292.76265 
L 369.121535 292.553783 
L 370.752965 294.158335 
L 372.384395 293.823057 
L 375.647254 291.438875 
L 377.278684 293.10032 
L 378.910114 293.922006 
L 380.541544 292.515491 
L 382.172974 291.287867 
L 383.804404 292.96581 
L 385.435834 292.034298 
L 387.067264 291.754928 
L 388.698693 292.662623 
L 390.330123 291.766731 
L 391.961553 291.890539 
L 393.592983 291.559506 
L 395.224413 292.037446 
L 396.855843 291.941529 
L 398.487273 293.069619 
L 398.487273 293.069619 
" clip-path="url(#p84a6814779)" style="fill: none; stroke-dasharray: 9.6,2.4,1.5,2.4; stroke-dashoffset: 0; stroke: #008000; stroke-width: 1.5"/>
   </g>
   <g id="line2d_35">
    <path d="M 73.832727 254.14208 
L 75.464157 246.163558 
L 77.095587 252.397769 
L 78.727017 253.376579 
L 80.358447 253.827104 
L 81.989877 253.184282 
L 83.621307 250.93096 
L 85.252736 253.745735 
L 86.884166 252.995762 
L 88.515596 252.428773 
L 90.147026 252.585376 
L 91.778456 252.349356 
L 93.409886 252.507092 
L 95.041316 252.068248 
L 96.672746 251.988721 
L 98.304175 252.795967 
L 101.567035 253.321573 
L 103.198465 252.905235 
L 104.829895 252.952196 
L 106.461325 253.502148 
L 108.092755 251.587501 
L 109.724185 251.441397 
L 111.355614 251.626628 
L 112.987044 249.79453 
L 114.618474 249.047726 
L 116.249904 249.679543 
L 117.881334 249.448861 
L 119.512764 249.077182 
L 121.144194 249.833691 
L 122.775624 250.211098 
L 126.038483 248.858615 
L 127.669913 249.365111 
L 129.301343 250.10349 
L 130.932773 249.276439 
L 132.564203 249.591662 
L 134.195633 249.493845 
L 135.827063 249.996548 
L 137.458492 249.040757 
L 139.089922 249.399152 
L 140.721352 247.432541 
L 142.352782 249.121248 
L 143.984212 243.82849 
L 145.615642 244.253316 
L 147.247072 243.95954 
L 148.878502 244.469499 
L 150.509931 231.307004 
L 152.141361 235.650223 
L 153.772791 234.372767 
L 155.404221 236.166655 
L 157.035651 234.687639 
L 158.667081 231.50714 
L 160.298511 235.340357 
L 161.929941 226.219222 
L 163.56137 229.889922 
L 165.1928 230.427237 
L 166.82423 229.904697 
L 168.45566 230.693735 
L 170.08709 229.647514 
L 171.71852 229.915467 
L 173.34995 230.669309 
L 174.98138 230.107313 
L 176.61281 226.878301 
L 178.244239 229.815662 
L 179.875669 226.933867 
L 181.507099 234.469759 
L 183.138529 234.295975 
L 184.769959 228.338452 
L 186.401389 226.237207 
L 188.032819 233.256149 
L 189.664249 232.981887 
L 191.295678 228.718146 
L 192.927108 234.063659 
L 194.558538 230.39263 
L 196.189968 233.242659 
L 197.821398 232.527733 
L 201.084258 232.762036 
L 202.715688 231.821261 
L 204.347117 231.730681 
L 205.978547 231.236396 
L 207.609977 230.097791 
L 209.241407 231.449817 
L 210.872837 231.069021 
L 212.504267 230.544797 
L 214.135697 231.317227 
L 217.398556 231.578864 
L 219.029986 231.476035 
L 220.661416 231.167325 
L 222.292846 225.229989 
L 223.924276 231.137599 
L 225.555706 231.347975 
L 227.187136 230.883765 
L 228.818566 225.171985 
L 230.449995 229.955402 
L 232.081425 231.148521 
L 233.712855 231.135285 
L 235.344285 230.721963 
L 238.607145 231.132618 
L 240.238575 230.621792 
L 241.870005 230.290499 
L 243.501434 230.915153 
L 245.132864 231.181298 
L 248.395724 230.981156 
L 250.027154 231.2266 
L 251.658584 230.626869 
L 253.290014 231.44016 
L 254.921444 229.52923 
L 256.552873 231.36111 
L 258.184303 231.176571 
L 259.815733 232.297459 
L 261.447163 232.782537 
L 263.078593 230.989564 
L 264.710023 230.509746 
L 266.341453 230.157106 
L 267.972883 231.260887 
L 269.604312 231.351042 
L 271.235742 232.952165 
L 272.867172 232.217586 
L 274.498602 230.310302 
L 276.130032 230.675093 
L 277.761462 230.496168 
L 279.392892 232.14321 
L 282.655751 228.607086 
L 284.287181 229.94225 
L 285.918611 229.659847 
L 287.550041 229.058624 
L 289.181471 233.284343 
L 290.812901 232.9228 
L 292.444331 233.631674 
L 294.075761 234.109473 
L 295.70719 234.018713 
L 297.33862 232.932835 
L 298.97005 234.433492 
L 300.60148 235.347813 
L 302.23291 234.735799 
L 303.86434 227.351627 
L 305.49577 233.412158 
L 307.1272 235.549105 
L 308.75863 235.209088 
L 310.390059 235.205473 
L 312.021489 233.253898 
L 313.652919 232.186131 
L 315.284349 232.871345 
L 316.915779 231.947409 
L 318.547209 231.767882 
L 320.178639 233.108302 
L 321.810069 231.398723 
L 323.441498 228.575092 
L 325.072928 230.686473 
L 326.704358 231.373035 
L 328.335788 229.419308 
L 329.967218 232.594612 
L 331.598648 232.096598 
L 333.230078 231.803731 
L 334.861508 232.27882 
L 336.492937 228.060802 
L 338.124367 227.467433 
L 339.755797 229.884407 
L 341.387227 227.46091 
L 343.018657 231.153613 
L 344.650087 230.241888 
L 346.281517 228.370057 
L 347.912947 231.466403 
L 349.544376 231.539276 
L 351.175806 229.410832 
L 352.807236 231.661806 
L 354.438666 227.528563 
L 356.070096 226.60395 
L 357.701526 226.551152 
L 359.332956 230.732563 
L 360.964386 230.416648 
L 362.595815 227.935821 
L 365.858675 229.524821 
L 367.490105 229.897342 
L 369.121535 228.581511 
L 370.752965 228.693779 
L 372.384395 229.563468 
L 374.015825 228.65605 
L 375.647254 228.474338 
L 377.278684 228.119714 
L 378.910114 229.427683 
L 380.541544 229.584168 
L 382.172974 230.529289 
L 383.804404 227.582585 
L 385.435834 230.335698 
L 387.067264 230.52303 
L 388.698693 230.848892 
L 390.330123 228.975392 
L 391.961553 228.929242 
L 393.592983 230.42485 
L 395.224413 230.497488 
L 396.855843 229.358086 
L 398.487273 226.761588 
L 398.487273 226.761588 
" clip-path="url(#p84a6814779)" style="fill: none; stroke-dasharray: 9.6,2.4,1.5,2.4; stroke-dashoffset: 0; stroke: #008000; stroke-width: 1.5"/>
   </g>
   <g id="line2d_36">
    <path d="M 73.832727 146.919665 
L 75.464157 139.544184 
L 142.352782 139.544184 
L 143.984212 138.596456 
L 148.878502 138.596456 
L 150.509931 53.75296 
L 160.298511 53.75296 
L 161.929941 53.568 
L 398.487273 53.568 
L 398.487273 53.568 
" clip-path="url(#p84a6814779)" style="fill: none; stroke: #ff0000; stroke-width: 1.5; stroke-linecap: square"/>
   </g>
   <g id="patch_3">
    <path d="M 57.6 307.584 
L 57.6 41.472 
" style="fill: none; stroke: #000000; stroke-width: 0.8; stroke-linejoin: miter; stroke-linecap: square"/>
   </g>
   <g id="patch_4">
    <path d="M 414.72 307.584 
L 414.72 41.472 
" style="fill: none; stroke: #000000; stroke-width: 0.8; stroke-linejoin: miter; stroke-linecap: square"/>
   </g>
   <g id="patch_5">
    <path d="M 57.6 307.584 
L 414.72 307.584 
" style="fill: none; stroke: #000000; stroke-width: 0.8; stroke-linejoin: miter; stroke-linecap: square"/>
   </g>
   <g id="patch_6">
    <path d="M 57.6 41.472 
L 414.72 41.472 
" style="fill: none; stroke: #000000; stroke-width: 0.8; stroke-linejoin: miter; stroke-linecap: square"/>
   </g>
   <g id="text_19">
    <!-- Population's average and best fitness -->
    <g transform="translate(123.529687 35.472) scale(0.12 -0.12)">
     <defs>
      <path id="DejaVuSans-50" d="M 1259 4147 
L 1259 2394 
L 2053 2394 
Q 2494 2394 2734 2622 
Q 2975 2850 2975 3272 
Q 2975 3691 2734 3919 
Q 2494 4147 2053 4147 
L 1259 4147 
z
M 628 4666 
L 2053 4666 
Q 2838 4666 3239 4311 
Q 3641 3956 3641 3272 
Q 3641 2581 3239 2228 
Q 2838 1875 2053 1875 
L 1259 1875 
L 1259 0 
L 628 0 
L 628 4666 
z
" transform="scale(0.015625)"/>
      <path id="DejaVuSans-70" d="M 1159 525 
L 1159 -1331 
L 581 -1331 
L 581 3500 
L 1159 3500 
L 1159 2969 
Q 1341 3281 1617 3432 
Q 1894 3584 2278 3584 
Q 2916 3584 3314 3078 
Q 3713 2572 3713 1747 
Q 3713 922 3314 415 
Q 2916 -91 2278 -91 
Q 1894 -91 1617 61 
Q 1341 213 1159 525 
z
M 3116 1747 
Q 3116 2381 2855 2742 
Q 2594 3103 2138 3103 
Q 1681 3103 1420 2742 
Q 1159 2381 1159 1747 
Q 1159 1113 1420 752 
Q 1681 391 2138 391 
Q 2594 391 2855 752 
Q 3116 1113 3116 1747 
z
" transform="scale(0.015625)"/>
      <path id="DejaVuSans-75" d="M 544 1381 
L 544 3500 
L 1119 3500 
L 1119 1403 
Q 1119 906 1312 657 
Q 1506 409 1894 409 
Q 2359 409 2629 706 
Q 2900 1003 2900 1516 
L 2900 3500 
L 3475 3500 
L 3475 0 
L 2900 0 
L 2900 538 
Q 2691 219 2414 64 
Q 2138 -91 1772 -91 
Q 1169 -91 856 284 
Q 544 659 544 1381 
z
M 1991 3584 
L 1991 3584 
z
" transform="scale(0.015625)"/>
      <path id="DejaVuSans-6c" d="M 603 4863 
L 1178 4863 
L 1178 0 
L 603 0 
L 603 4863 
z
" transform="scale(0.015625)"/>
      <path id="DejaVuSans-27" d="M 1147 4666 
L 1147 2931 
L 616 2931 
L 616 4666 
L 1147 4666 
z
" transform="scale(0.015625)"/>
      <path id="DejaVuSans-20" transform="scale(0.015625)"/>
      <path id="DejaVuSans-76" d="M 191 3500 
L 800 3500 
L 1894 563 
L 2988 3500 
L 3597 3500 
L 2284 0 
L 1503 0 
L 191 3500 
z
" transform="scale(0.015625)"/>
      <path id="DejaVuSans-67" d="M 2906 1791 
Q 2906 2416 2648 2759 
Q 2391 3103 1925 3103 
Q 1463 3103 1205 2759 
Q 947 2416 947 1791 
Q 947 1169 1205 825 
Q 1463 481 1925 481 
Q 2391 481 2648 825 
Q 2906 1169 2906 1791 
z
M 3481 434 
Q 3481 -459 3084 -895 
Q 2688 -1331 1869 -1331 
Q 1566 -1331 1297 -1286 
Q 1028 -1241 775 -1147 
L 775 -588 
Q 1028 -725 1275 -790 
Q 1522 -856 1778 -856 
Q 2344 -856 2625 -561 
Q 2906 -266 2906 331 
L 2906 616 
Q 2728 306 2450 153 
Q 2172 0 1784 0 
Q 1141 0 747 490 
Q 353 981 353 1791 
Q 353 2603 747 3093 
Q 1141 3584 1784 3584 
Q 2172 3584 2450 3431 
Q 2728 3278 2906 2969 
L 2906 3500 
L 3481 3500 
L 3481 434 
z
" transform="scale(0.015625)"/>
      <path id="DejaVuSans-64" d="M 2906 2969 
L 2906 4863 
L 3481 4863 
L 3481 0 
L 2906 0 
L 2906 525 
Q 2725 213 2448 61 
Q 2172 -91 1784 -91 
Q 1150 -91 751 415 
Q 353 922 353 1747 
Q 353 2572 751 3078 
Q 1150 3584 1784 3584 
Q 2172 3584 2448 3432 
Q 2725 3281 2906 2969 
z
M 947 1747 
Q 947 1113 1208 752 
Q 1469 391 1925 391 
Q 2381 391 2643 752 
Q 2906 1113 2906 1747 
Q 2906 2381 2643 2742 
Q 2381 3103 1925 3103 
Q 1469 3103 1208 2742 
Q 947 2381 947 1747 
z
" transform="scale(0.015625)"/>
      <path id="DejaVuSans-62" d="M 3116 1747 
Q 3116 2381 2855 2742 
Q 2594 3103 2138 3103 
Q 1681 3103 1420 2742 
Q 1159 2381 1159 1747 
Q 1159 1113 1420 752 
Q 1681 391 2138 391 
Q 2594 391 2855 752 
Q 3116 1113 3116 1747 
z
M 1159 2969 
Q 1341 3281 1617 3432 
Q 1894 3584 2278 3584 
Q 2916 3584 3314 3078 
Q 3713 2572 3713 1747 
Q 3713 922 3314 415 
Q 2916 -91 2278 -91 
Q 1894 -91 1617 61 
Q 1341 213 1159 525 
L 1159 0 
L 581 0 
L 581 4863 
L 1159 4863 
L 1159 2969 
z
" transform="scale(0.015625)"/>
      <path id="DejaVuSans-66" d="M 2375 4863 
L 2375 4384 
L 1825 4384 
Q 1516 4384 1395 4259 
Q 1275 4134 1275 3809 
L 1275 3500 
L 2222 3500 
L 2222 3053 
L 1275 3053 
L 1275 0 
L 697 0 
L 697 3053 
L 147 3053 
L 147 3500 
L 697 3500 
L 697 3744 
Q 697 4328 969 4595 
Q 1241 4863 1831 4863 
L 2375 4863 
z
" transform="scale(0.015625)"/>
     </defs>
     <use xlink:href="#DejaVuSans-50"/>
     <use xlink:href="#DejaVuSans-6f" x="56.677734"/>
     <use xlink:href="#DejaVuSans-70" x="117.859375"/>
     <use xlink:href="#DejaVuSans-75" x="181.335938"/>
     <use xlink:href="#DejaVuSans-6c" x="244.714844"/>
     <use xlink:href="#DejaVuSans-61" x="272.498047"/>
     <use xlink:href="#DejaVuSans-74" x="333.777344"/>
     <use xlink:href="#DejaVuSans-69" x="372.986328"/>
     <use xlink:href="#DejaVuSans-6f" x="400.769531"/>
     <use xlink:href="#DejaVuSans-6e" x="461.951172"/>
     <use xlink:href="#DejaVuSans-27" x="525.330078"/>
     <use xlink:href="#DejaVuSans-73" x="552.820312"/>
     <use xlink:href="#DejaVuSans-20" x="604.919922"/>
     <use xlink:href="#DejaVuSans-61" x="636.707031"/>
     <use xlink:href="#DejaVuSans-76" x="697.986328"/>
     <use xlink:href="#DejaVuSans-65" x="757.166016"/>
     <use xlink:href="#DejaVuSans-72" x="818.689453"/>
     <use xlink:href="#DejaVuSans-61" x="859.802734"/>
     <use xlink:href="#DejaVuSans-67" x="921.082031"/>
     <use xlink:href="#DejaVuSans-65" x="984.558594"/>
     <use xlink:href="#DejaVuSans-20" x="1046.082031"/>
     <use xlink:href="#DejaVuSans-61" x="1077.869141"/>
     <use xlink:href="#DejaVuSans-6e" x="1139.148438"/>
     <use xlink:href="#DejaVuSans-64" x="1202.527344"/>
     <use xlink:href="#DejaVuSans-20" x="1266.003906"/>
     <use xlink:href="#DejaVuSans-62" x="1297.791016"/>
     <use xlink:href="#DejaVuSans-65" x="1361.267578"/>
     <use xlink:href="#DejaVuSans-73" x="1422.791016"/>
     <use xlink:href="#DejaVuSans-74" x="1474.890625"/>
     <use xlink:href="#DejaVuSans-20" x="1514.099609"/>
     <use xlink:href="#DejaVuSans-66" x="1545.886719"/>
     <use xlink:href="#DejaVuSans-69" x="1581.091797"/>
     <use xlink:href="#DejaVuSans-74" x="1608.875"/>
     <use xlink:href="#DejaVuSans-6e" x="1648.083984"/>
     <use xlink:href="#DejaVuSans-65" x="1711.462891"/>
     <use xlink:href="#DejaVuSans-73" x="1772.986328"/>
     <use xlink:href="#DejaVuSans-73" x="1825.085938"/>
    </g>
   </g>
   <g id="legend_1">
    <g id="patch_7">
     <path d="M 64.6 108.1845 
L 137.540625 108.1845 
Q 139.540625 108.1845 139.540625 106.1845 
L 139.540625 48.472 
Q 139.540625 46.472 137.540625 46.472 
L 64.6 46.472 
Q 62.6 46.472 62.6 48.472 
L 62.6 106.1845 
Q 62.6 108.1845 64.6 108.1845 
z
" style="fill: #ffffff; opacity: 0.8; stroke: #cccccc; stroke-linejoin: miter"/>
    </g>
    <g id="line2d_37">
     <path d="M 66.6 54.570438 
L 76.6 54.570438 
L 86.6 54.570438 
" style="fill: none; stroke: #0000ff; stroke-width: 1.5; stroke-linecap: square"/>
    </g>
    <g id="text_20">
     <!-- average -->
     <g transform="translate(94.6 58.070438) scale(0.1 -0.1)">
      <use xlink:href="#DejaVuSans-61"/>
      <use xlink:href="#DejaVuSans-76" x="61.279297"/>
      <use xlink:href="#DejaVuSans-65" x="120.458984"/>
      <use xlink:href="#DejaVuSans-72" x="181.982422"/>
      <use xlink:href="#DejaVuSans-61" x="223.095703"/>
      <use xlink:href="#DejaVuSans-67" x="284.375"/>
      <use xlink:href="#DejaVuSans-65" x="347.851562"/>
     </g>
    </g>
    <g id="line2d_38">
     <path d="M 66.6 69.248563 
L 76.6 69.248563 
L 86.6 69.248563 
" style="fill: none; stroke-dasharray: 9.6,2.4,1.5,2.4; stroke-dashoffset: 0; stroke: #008000; stroke-width: 1.5"/>
    </g>
    <g id="text_21">
     <!-- -1 sd -->
     <g transform="translate(94.6 72.748563) scale(0.1 -0.1)">
      <defs>
       <path id="DejaVuSans-2d" d="M 313 2009 
L 1997 2009 
L 1997 1497 
L 313 1497 
L 313 2009 
z
" transform="scale(0.015625)"/>
      </defs>
      <use xlink:href="#DejaVuSans-2d"/>
      <use xlink:href="#DejaVuSans-31" x="36.083984"/>
      <use xlink:href="#DejaVuSans-20" x="99.707031"/>
      <use xlink:href="#DejaVuSans-73" x="131.494141"/>
      <use xlink:href="#DejaVuSans-64" x="183.59375"/>
     </g>
    </g>
    <g id="line2d_39">
     <path d="M 66.6 83.926688 
L 76.6 83.926688 
L 86.6 83.926688 
" style="fill: none; stroke-dasharray: 9.6,2.4,1.5,2.4; stroke-dashoffset: 0; stroke: #008000; stroke-width: 1.5"/>
    </g>
    <g id="text_22">
     <!-- +1 sd -->
     <g transform="translate(94.6 87.426688) scale(0.1 -0.1)">
      <defs>
       <path id="DejaVuSans-2b" d="M 2944 4013 
L 2944 2272 
L 4684 2272 
L 4684 1741 
L 2944 1741 
L 2944 0 
L 2419 0 
L 2419 1741 
L 678 1741 
L 678 2272 
L 2419 2272 
L 2419 4013 
L 2944 4013 
z
" transform="scale(0.015625)"/>
      </defs>
      <use xlink:href="#DejaVuSans-2b"/>
      <use xlink:href="#DejaVuSans-31" x="83.789062"/>
      <use xlink:href="#DejaVuSans-20" x="147.412109"/>
      <use xlink:href="#DejaVuSans-73" x="179.199219"/>
      <use xlink:href="#DejaVuSans-64" x="231.298828"/>
     </g>
    </g>
    <g id="line2d_40">
     <path d="M 66.6 98.604813 
L 76.6 98.604813 
L 86.6 98.604813 
" style="fill: none; stroke: #ff0000; stroke-width: 1.5; stroke-linecap: square"/>
    </g>
    <g id="text_23">
     <!-- best -->
     <g transform="translate(94.6 102.104813) scale(0.1 -0.1)">
      <use xlink:href="#DejaVuSans-62"/>
      <use xlink:href="#DejaVuSans-65" x="63.476562"/>
      <use xlink:href="#DejaVuSans-73" x="125"/>
      <use xlink:href="#DejaVuSans-74" x="177.099609"/>
     </g>
    </g>
   </g>
  </g>
 </g>
 <defs>
  <clipPath id="p84a6814779">
   <rect x="57.6" y="41.472" width="357.12" height="266.112"/>
  </clipPath>
 </defs>
</svg>
