<?xml version="1.0" encoding="utf-8" standalone="no"?>
<!DOCTYPE svg PUBLIC "-//W3C//DTD SVG 1.1//EN"
  "http://www.w3.org/Graphics/SVG/1.1/DTD/svg11.dtd">
<svg xmlns:xlink="http://www.w3.org/1999/xlink" width="460.8pt" height="345.6pt" viewBox="0 0 460.8 345.6" xmlns="http://www.w3.org/2000/svg" version="1.1">
 <metadata>
  <rdf:RDF xmlns:dc="http://purl.org/dc/elements/1.1/" xmlns:cc="http://creativecommons.org/ns#" xmlns:rdf="http://www.w3.org/1999/02/22-rdf-syntax-ns#">
   <cc:Work>
    <dc:type rdf:resource="http://purl.org/dc/dcmitype/StillImage"/>
    <dc:date>2024-08-06T14:01:15.896225</dc:date>
    <dc:format>image/svg+xml</dc:format>
    <dc:creator>
     <cc:Agent>
      <dc:title>Matplotlib v3.8.4, https://matplotlib.org/</dc:title>
     </cc:Agent>
    </dc:creator>
   </cc:Work>
  </rdf:RDF>
 </metadata>
 <defs>
  <style type="text/css">*{stroke-linejoin: round; stroke-linecap: butt}</style>
 </defs>
 <g id="figure_1">
  <g id="patch_1">
   <path d="M 0 345.6 
L 460.8 345.6 
L 460.8 0 
L 0 0 
z
" style="fill: #ffffff"/>
  </g>
  <g id="axes_1">
   <g id="patch_2">
    <path d="M 57.6 307.584 
L 414.72 307.584 
L 414.72 41.472 
L 57.6 41.472 
z
" style="fill: #ffffff"/>
   </g>
   <g id="matplotlib.axis_1">
    <g id="xtick_1">
     <g id="line2d_1">
      <path d="M 73.832727 307.584 
L 73.832727 41.472 
" clip-path="url(#pa117de2bff)" style="fill: none; stroke: #b0b0b0; stroke-width: 0.8; stroke-linecap: square"/>
     </g>
     <g id="line2d_2">
      <defs>
       <path id="m7f1f8e45f2" d="M 0 0 
L 0 3.5 
" style="stroke: #000000; stroke-width: 0.8"/>
      </defs>
      <g>
       <use xlink:href="#m7f1f8e45f2" x="73.832727" y="307.584" style="stroke: #000000; stroke-width: 0.8"/>
      </g>
     </g>
     <g id="text_1">
      <!-- 0 -->
      <g transform="translate(70.651477 322.182437) scale(0.1 -0.1)">
       <defs>
        <path id="DejaVuSans-30" d="M 2034 4250 
Q 1547 4250 1301 3770 
Q 1056 3291 1056 2328 
Q 1056 1369 1301 889 
Q 1547 409 2034 409 
Q 2525 409 2770 889 
Q 3016 1369 3016 2328 
Q 3016 3291 2770 3770 
Q 2525 4250 2034 4250 
z
M 2034 4750 
Q 2819 4750 3233 4129 
Q 3647 3509 3647 2328 
Q 3647 1150 3233 529 
Q 2819 -91 2034 -91 
Q 1250 -91 836 529 
Q 422 1150 422 2328 
Q 422 3509 836 4129 
Q 1250 4750 2034 4750 
z
" transform="scale(0.015625)"/>
       </defs>
       <use xlink:href="#DejaVuSans-30"/>
      </g>
     </g>
    </g>
    <g id="xtick_2">
     <g id="line2d_3">
      <path d="M 114.618474 307.584 
L 114.618474 41.472 
" clip-path="url(#pa117de2bff)" style="fill: none; stroke: #b0b0b0; stroke-width: 0.8; stroke-linecap: square"/>
     </g>
     <g id="line2d_4">
      <g>
       <use xlink:href="#m7f1f8e45f2" x="114.618474" y="307.584" style="stroke: #000000; stroke-width: 0.8"/>
      </g>
     </g>
     <g id="text_2">
      <!-- 25 -->
      <g transform="translate(108.255974 322.182437) scale(0.1 -0.1)">
       <defs>
        <path id="DejaVuSans-32" d="M 1228 531 
L 3431 531 
L 3431 0 
L 469 0 
L 469 531 
Q 828 903 1448 1529 
Q 2069 2156 2228 2338 
Q 2531 2678 2651 2914 
Q 2772 3150 2772 3378 
Q 2772 3750 2511 3984 
Q 2250 4219 1831 4219 
Q 1534 4219 1204 4116 
Q 875 4013 500 3803 
L 500 4441 
Q 881 4594 1212 4672 
Q 1544 4750 1819 4750 
Q 2544 4750 2975 4387 
Q 3406 4025 3406 3419 
Q 3406 3131 3298 2873 
Q 3191 2616 2906 2266 
Q 2828 2175 2409 1742 
Q 1991 1309 1228 531 
z
" transform="scale(0.015625)"/>
        <path id="DejaVuSans-35" d="M 691 4666 
L 3169 4666 
L 3169 4134 
L 1269 4134 
L 1269 2991 
Q 1406 3038 1543 3061 
Q 1681 3084 1819 3084 
Q 2600 3084 3056 2656 
Q 3513 2228 3513 1497 
Q 3513 744 3044 326 
Q 2575 -91 1722 -91 
Q 1428 -91 1123 -41 
Q 819 9 494 109 
L 494 744 
Q 775 591 1075 516 
Q 1375 441 1709 441 
Q 2250 441 2565 725 
Q 2881 1009 2881 1497 
Q 2881 1984 2565 2268 
Q 2250 2553 1709 2553 
Q 1456 2553 1204 2497 
Q 953 2441 691 2322 
L 691 4666 
z
" transform="scale(0.015625)"/>
       </defs>
       <use xlink:href="#DejaVuSans-32"/>
       <use xlink:href="#DejaVuSans-35" x="63.623047"/>
      </g>
     </g>
    </g>
    <g id="xtick_3">
     <g id="line2d_5">
      <path d="M 155.404221 307.584 
L 155.404221 41.472 
" clip-path="url(#pa117de2bff)" style="fill: none; stroke: #b0b0b0; stroke-width: 0.8; stroke-linecap: square"/>
     </g>
     <g id="line2d_6">
      <g>
       <use xlink:href="#m7f1f8e45f2" x="155.404221" y="307.584" style="stroke: #000000; stroke-width: 0.8"/>
      </g>
     </g>
     <g id="text_3">
      <!-- 50 -->
      <g transform="translate(149.041721 322.182437) scale(0.1 -0.1)">
       <use xlink:href="#DejaVuSans-35"/>
       <use xlink:href="#DejaVuSans-30" x="63.623047"/>
      </g>
     </g>
    </g>
    <g id="xtick_4">
     <g id="line2d_7">
      <path d="M 196.189968 307.584 
L 196.189968 41.472 
" clip-path="url(#pa117de2bff)" style="fill: none; stroke: #b0b0b0; stroke-width: 0.8; stroke-linecap: square"/>
     </g>
     <g id="line2d_8">
      <g>
       <use xlink:href="#m7f1f8e45f2" x="196.189968" y="307.584" style="stroke: #000000; stroke-width: 0.8"/>
      </g>
     </g>
     <g id="text_4">
      <!-- 75 -->
      <g transform="translate(189.827468 322.182437) scale(0.1 -0.1)">
       <defs>
        <path id="DejaVuSans-37" d="M 525 4666 
L 3525 4666 
L 3525 4397 
L 1831 0 
L 1172 0 
L 2766 4134 
L 525 4134 
L 525 4666 
z
" transform="scale(0.015625)"/>
       </defs>
       <use xlink:href="#DejaVuSans-37"/>
       <use xlink:href="#DejaVuSans-35" x="63.623047"/>
      </g>
     </g>
    </g>
    <g id="xtick_5">
     <g id="line2d_9">
      <path d="M 236.975715 307.584 
L 236.975715 41.472 
" clip-path="url(#pa117de2bff)" style="fill: none; stroke: #b0b0b0; stroke-width: 0.8; stroke-linecap: square"/>
     </g>
     <g id="line2d_10">
      <g>
       <use xlink:href="#m7f1f8e45f2" x="236.975715" y="307.584" style="stroke: #000000; stroke-width: 0.8"/>
      </g>
     </g>
     <g id="text_5">
      <!-- 100 -->
      <g transform="translate(227.431965 322.182437) scale(0.1 -0.1)">
       <defs>
        <path id="DejaVuSans-31" d="M 794 531 
L 1825 531 
L 1825 4091 
L 703 3866 
L 703 4441 
L 1819 4666 
L 2450 4666 
L 2450 531 
L 3481 531 
L 3481 0 
L 794 0 
L 794 531 
z
" transform="scale(0.015625)"/>
       </defs>
       <use xlink:href="#DejaVuSans-31"/>
       <use xlink:href="#DejaVuSans-30" x="63.623047"/>
       <use xlink:href="#DejaVuSans-30" x="127.246094"/>
      </g>
     </g>
    </g>
    <g id="xtick_6">
     <g id="line2d_11">
      <path d="M 277.761462 307.584 
L 277.761462 41.472 
" clip-path="url(#pa117de2bff)" style="fill: none; stroke: #b0b0b0; stroke-width: 0.8; stroke-linecap: square"/>
     </g>
     <g id="line2d_12">
      <g>
       <use xlink:href="#m7f1f8e45f2" x="277.761462" y="307.584" style="stroke: #000000; stroke-width: 0.8"/>
      </g>
     </g>
     <g id="text_6">
      <!-- 125 -->
      <g transform="translate(268.217712 322.182437) scale(0.1 -0.1)">
       <use xlink:href="#DejaVuSans-31"/>
       <use xlink:href="#DejaVuSans-32" x="63.623047"/>
       <use xlink:href="#DejaVuSans-35" x="127.246094"/>
      </g>
     </g>
    </g>
    <g id="xtick_7">
     <g id="line2d_13">
      <path d="M 318.547209 307.584 
L 318.547209 41.472 
" clip-path="url(#pa117de2bff)" style="fill: none; stroke: #b0b0b0; stroke-width: 0.8; stroke-linecap: square"/>
     </g>
     <g id="line2d_14">
      <g>
       <use xlink:href="#m7f1f8e45f2" x="318.547209" y="307.584" style="stroke: #000000; stroke-width: 0.8"/>
      </g>
     </g>
     <g id="text_7">
      <!-- 150 -->
      <g transform="translate(309.003459 322.182437) scale(0.1 -0.1)">
       <use xlink:href="#DejaVuSans-31"/>
       <use xlink:href="#DejaVuSans-35" x="63.623047"/>
       <use xlink:href="#DejaVuSans-30" x="127.246094"/>
      </g>
     </g>
    </g>
    <g id="xtick_8">
     <g id="line2d_15">
      <path d="M 359.332956 307.584 
L 359.332956 41.472 
" clip-path="url(#pa117de2bff)" style="fill: none; stroke: #b0b0b0; stroke-width: 0.8; stroke-linecap: square"/>
     </g>
     <g id="line2d_16">
      <g>
       <use xlink:href="#m7f1f8e45f2" x="359.332956" y="307.584" style="stroke: #000000; stroke-width: 0.8"/>
      </g>
     </g>
     <g id="text_8">
      <!-- 175 -->
      <g transform="translate(349.789206 322.182437) scale(0.1 -0.1)">
       <use xlink:href="#DejaVuSans-31"/>
       <use xlink:href="#DejaVuSans-37" x="63.623047"/>
       <use xlink:href="#DejaVuSans-35" x="127.246094"/>
      </g>
     </g>
    </g>
    <g id="xtick_9">
     <g id="line2d_17">
      <path d="M 400.118703 307.584 
L 400.118703 41.472 
" clip-path="url(#pa117de2bff)" style="fill: none; stroke: #b0b0b0; stroke-width: 0.8; stroke-linecap: square"/>
     </g>
     <g id="line2d_18">
      <g>
       <use xlink:href="#m7f1f8e45f2" x="400.118703" y="307.584" style="stroke: #000000; stroke-width: 0.8"/>
      </g>
     </g>
     <g id="text_9">
      <!-- 200 -->
      <g transform="translate(390.574953 322.182437) scale(0.1 -0.1)">
       <use xlink:href="#DejaVuSans-32"/>
       <use xlink:href="#DejaVuSans-30" x="63.623047"/>
       <use xlink:href="#DejaVuSans-30" x="127.246094"/>
      </g>
     </g>
    </g>
    <g id="text_10">
     <!-- Generations -->
     <g transform="translate(205.662344 335.860562) scale(0.1 -0.1)">
      <defs>
       <path id="DejaVuSans-47" d="M 3809 666 
L 3809 1919 
L 2778 1919 
L 2778 2438 
L 4434 2438 
L 4434 434 
Q 4069 175 3628 42 
Q 3188 -91 2688 -91 
Q 1594 -91 976 548 
Q 359 1188 359 2328 
Q 359 3472 976 4111 
Q 1594 4750 2688 4750 
Q 3144 4750 3555 4637 
Q 3966 4525 4313 4306 
L 4313 3634 
Q 3963 3931 3569 4081 
Q 3175 4231 2741 4231 
Q 1884 4231 1454 3753 
Q 1025 3275 1025 2328 
Q 1025 1384 1454 906 
Q 1884 428 2741 428 
Q 3075 428 3337 486 
Q 3600 544 3809 666 
z
" transform="scale(0.015625)"/>
       <path id="DejaVuSans-65" d="M 3597 1894 
L 3597 1613 
L 953 1613 
Q 991 1019 1311 708 
Q 1631 397 2203 397 
Q 2534 397 2845 478 
Q 3156 559 3463 722 
L 3463 178 
Q 3153 47 2828 -22 
Q 2503 -91 2169 -91 
Q 1331 -91 842 396 
Q 353 884 353 1716 
Q 353 2575 817 3079 
Q 1281 3584 2069 3584 
Q 2775 3584 3186 3129 
Q 3597 2675 3597 1894 
z
M 3022 2063 
Q 3016 2534 2758 2815 
Q 2500 3097 2075 3097 
Q 1594 3097 1305 2825 
Q 1016 2553 972 2059 
L 3022 2063 
z
" transform="scale(0.015625)"/>
       <path id="DejaVuSans-6e" d="M 3513 2113 
L 3513 0 
L 2938 0 
L 2938 2094 
Q 2938 2591 2744 2837 
Q 2550 3084 2163 3084 
Q 1697 3084 1428 2787 
Q 1159 2491 1159 1978 
L 1159 0 
L 581 0 
L 581 3500 
L 1159 3500 
L 1159 2956 
Q 1366 3272 1645 3428 
Q 1925 3584 2291 3584 
Q 2894 3584 3203 3211 
Q 3513 2838 3513 2113 
z
" transform="scale(0.015625)"/>
       <path id="DejaVuSans-72" d="M 2631 2963 
Q 2534 3019 2420 3045 
Q 2306 3072 2169 3072 
Q 1681 3072 1420 2755 
Q 1159 2438 1159 1844 
L 1159 0 
L 581 0 
L 581 3500 
L 1159 3500 
L 1159 2956 
Q 1341 3275 1631 3429 
Q 1922 3584 2338 3584 
Q 2397 3584 2469 3576 
Q 2541 3569 2628 3553 
L 2631 2963 
z
" transform="scale(0.015625)"/>
       <path id="DejaVuSans-61" d="M 2194 1759 
Q 1497 1759 1228 1600 
Q 959 1441 959 1056 
Q 959 750 1161 570 
Q 1363 391 1709 391 
Q 2188 391 2477 730 
Q 2766 1069 2766 1631 
L 2766 1759 
L 2194 1759 
z
M 3341 1997 
L 3341 0 
L 2766 0 
L 2766 531 
Q 2569 213 2275 61 
Q 1981 -91 1556 -91 
Q 1019 -91 701 211 
Q 384 513 384 1019 
Q 384 1609 779 1909 
Q 1175 2209 1959 2209 
L 2766 2209 
L 2766 2266 
Q 2766 2663 2505 2880 
Q 2244 3097 1772 3097 
Q 1472 3097 1187 3025 
Q 903 2953 641 2809 
L 641 3341 
Q 956 3463 1253 3523 
Q 1550 3584 1831 3584 
Q 2591 3584 2966 3190 
Q 3341 2797 3341 1997 
z
" transform="scale(0.015625)"/>
       <path id="DejaVuSans-74" d="M 1172 4494 
L 1172 3500 
L 2356 3500 
L 2356 3053 
L 1172 3053 
L 1172 1153 
Q 1172 725 1289 603 
Q 1406 481 1766 481 
L 2356 481 
L 2356 0 
L 1766 0 
Q 1100 0 847 248 
Q 594 497 594 1153 
L 594 3053 
L 172 3053 
L 172 3500 
L 594 3500 
L 594 4494 
L 1172 4494 
z
" transform="scale(0.015625)"/>
       <path id="DejaVuSans-69" d="M 603 3500 
L 1178 3500 
L 1178 0 
L 603 0 
L 603 3500 
z
M 603 4863 
L 1178 4863 
L 1178 4134 
L 603 4134 
L 603 4863 
z
" transform="scale(0.015625)"/>
       <path id="DejaVuSans-6f" d="M 1959 3097 
Q 1497 3097 1228 2736 
Q 959 2375 959 1747 
Q 959 1119 1226 758 
Q 1494 397 1959 397 
Q 2419 397 2687 759 
Q 2956 1122 2956 1747 
Q 2956 2369 2687 2733 
Q 2419 3097 1959 3097 
z
M 1959 3584 
Q 2709 3584 3137 3096 
Q 3566 2609 3566 1747 
Q 3566 888 3137 398 
Q 2709 -91 1959 -91 
Q 1206 -91 779 398 
Q 353 888 353 1747 
Q 353 2609 779 3096 
Q 1206 3584 1959 3584 
z
" transform="scale(0.015625)"/>
       <path id="DejaVuSans-73" d="M 2834 3397 
L 2834 2853 
Q 2591 2978 2328 3040 
Q 2066 3103 1784 3103 
Q 1356 3103 1142 2972 
Q 928 2841 928 2578 
Q 928 2378 1081 2264 
Q 1234 2150 1697 2047 
L 1894 2003 
Q 2506 1872 2764 1633 
Q 3022 1394 3022 966 
Q 3022 478 2636 193 
Q 2250 -91 1575 -91 
Q 1294 -91 989 -36 
Q 684 19 347 128 
L 347 722 
Q 666 556 975 473 
Q 1284 391 1588 391 
Q 1994 391 2212 530 
Q 2431 669 2431 922 
Q 2431 1156 2273 1281 
Q 2116 1406 1581 1522 
L 1381 1569 
Q 847 1681 609 1914 
Q 372 2147 372 2553 
Q 372 3047 722 3315 
Q 1072 3584 1716 3584 
Q 2034 3584 2315 3537 
Q 2597 3491 2834 3397 
z
" transform="scale(0.015625)"/>
      </defs>
      <use xlink:href="#DejaVuSans-47"/>
      <use xlink:href="#DejaVuSans-65" x="77.490234"/>
      <use xlink:href="#DejaVuSans-6e" x="139.013672"/>
      <use xlink:href="#DejaVuSans-65" x="202.392578"/>
      <use xlink:href="#DejaVuSans-72" x="263.916016"/>
      <use xlink:href="#DejaVuSans-61" x="305.029297"/>
      <use xlink:href="#DejaVuSans-74" x="366.308594"/>
      <use xlink:href="#DejaVuSans-69" x="405.517578"/>
      <use xlink:href="#DejaVuSans-6f" x="433.300781"/>
      <use xlink:href="#DejaVuSans-6e" x="494.482422"/>
      <use xlink:href="#DejaVuSans-73" x="557.861328"/>
     </g>
    </g>
   </g>
   <g id="matplotlib.axis_2">
    <g id="ytick_1">
     <g id="line2d_19">
      <path d="M 57.6 293.589147 
L 414.72 293.589147 
" clip-path="url(#pa117de2bff)" style="fill: none; stroke: #b0b0b0; stroke-width: 0.8; stroke-linecap: square"/>
     </g>
     <g id="line2d_20">
      <defs>
       <path id="m88b11f6d16" d="M 0 0 
L -3.5 0 
" style="stroke: #000000; stroke-width: 0.8"/>
      </defs>
      <g>
       <use xlink:href="#m88b11f6d16" x="57.6" y="293.589147" style="stroke: #000000; stroke-width: 0.8"/>
      </g>
     </g>
     <g id="text_11">
      <!-- −2600 -->
      <g transform="translate(16.770313 297.388366) scale(0.1 -0.1)">
       <defs>
        <path id="DejaVuSans-2212" d="M 678 2272 
L 4684 2272 
L 4684 1741 
L 678 1741 
L 678 2272 
z
" transform="scale(0.015625)"/>
        <path id="DejaVuSans-36" d="M 2113 2584 
Q 1688 2584 1439 2293 
Q 1191 2003 1191 1497 
Q 1191 994 1439 701 
Q 1688 409 2113 409 
Q 2538 409 2786 701 
Q 3034 994 3034 1497 
Q 3034 2003 2786 2293 
Q 2538 2584 2113 2584 
z
M 3366 4563 
L 3366 3988 
Q 3128 4100 2886 4159 
Q 2644 4219 2406 4219 
Q 1781 4219 1451 3797 
Q 1122 3375 1075 2522 
Q 1259 2794 1537 2939 
Q 1816 3084 2150 3084 
Q 2853 3084 3261 2657 
Q 3669 2231 3669 1497 
Q 3669 778 3244 343 
Q 2819 -91 2113 -91 
Q 1303 -91 875 529 
Q 447 1150 447 2328 
Q 447 3434 972 4092 
Q 1497 4750 2381 4750 
Q 2619 4750 2861 4703 
Q 3103 4656 3366 4563 
z
" transform="scale(0.015625)"/>
       </defs>
       <use xlink:href="#DejaVuSans-2212"/>
       <use xlink:href="#DejaVuSans-32" x="83.789062"/>
       <use xlink:href="#DejaVuSans-36" x="147.412109"/>
       <use xlink:href="#DejaVuSans-30" x="211.035156"/>
       <use xlink:href="#DejaVuSans-30" x="274.658203"/>
      </g>
     </g>
    </g>
    <g id="ytick_2">
     <g id="line2d_21">
      <path d="M 57.6 251.169336 
L 414.72 251.169336 
" clip-path="url(#pa117de2bff)" style="fill: none; stroke: #b0b0b0; stroke-width: 0.8; stroke-linecap: square"/>
     </g>
     <g id="line2d_22">
      <g>
       <use xlink:href="#m88b11f6d16" x="57.6" y="251.169336" style="stroke: #000000; stroke-width: 0.8"/>
      </g>
     </g>
     <g id="text_12">
      <!-- −2400 -->
      <g transform="translate(16.770313 254.968555) scale(0.1 -0.1)">
       <defs>
        <path id="DejaVuSans-34" d="M 2419 4116 
L 825 1625 
L 2419 1625 
L 2419 4116 
z
M 2253 4666 
L 3047 4666 
L 3047 1625 
L 3713 1625 
L 3713 1100 
L 3047 1100 
L 3047 0 
L 2419 0 
L 2419 1100 
L 313 1100 
L 313 1709 
L 2253 4666 
z
" transform="scale(0.015625)"/>
       </defs>
       <use xlink:href="#DejaVuSans-2212"/>
       <use xlink:href="#DejaVuSans-32" x="83.789062"/>
       <use xlink:href="#DejaVuSans-34" x="147.412109"/>
       <use xlink:href="#DejaVuSans-30" x="211.035156"/>
       <use xlink:href="#DejaVuSans-30" x="274.658203"/>
      </g>
     </g>
    </g>
    <g id="ytick_3">
     <g id="line2d_23">
      <path d="M 57.6 208.749526 
L 414.72 208.749526 
" clip-path="url(#pa117de2bff)" style="fill: none; stroke: #b0b0b0; stroke-width: 0.8; stroke-linecap: square"/>
     </g>
     <g id="line2d_24">
      <g>
       <use xlink:href="#m88b11f6d16" x="57.6" y="208.749526" style="stroke: #000000; stroke-width: 0.8"/>
      </g>
     </g>
     <g id="text_13">
      <!-- −2200 -->
      <g transform="translate(16.770313 212.548744) scale(0.1 -0.1)">
       <use xlink:href="#DejaVuSans-2212"/>
       <use xlink:href="#DejaVuSans-32" x="83.789062"/>
       <use xlink:href="#DejaVuSans-32" x="147.412109"/>
       <use xlink:href="#DejaVuSans-30" x="211.035156"/>
       <use xlink:href="#DejaVuSans-30" x="274.658203"/>
      </g>
     </g>
    </g>
    <g id="ytick_4">
     <g id="line2d_25">
      <path d="M 57.6 166.329715 
L 414.72 166.329715 
" clip-path="url(#pa117de2bff)" style="fill: none; stroke: #b0b0b0; stroke-width: 0.8; stroke-linecap: square"/>
     </g>
     <g id="line2d_26">
      <g>
       <use xlink:href="#m88b11f6d16" x="57.6" y="166.329715" style="stroke: #000000; stroke-width: 0.8"/>
      </g>
     </g>
     <g id="text_14">
      <!-- −2000 -->
      <g transform="translate(16.770313 170.128934) scale(0.1 -0.1)">
       <use xlink:href="#DejaVuSans-2212"/>
       <use xlink:href="#DejaVuSans-32" x="83.789062"/>
       <use xlink:href="#DejaVuSans-30" x="147.412109"/>
       <use xlink:href="#DejaVuSans-30" x="211.035156"/>
       <use xlink:href="#DejaVuSans-30" x="274.658203"/>
      </g>
     </g>
    </g>
    <g id="ytick_5">
     <g id="line2d_27">
      <path d="M 57.6 123.909905 
L 414.72 123.909905 
" clip-path="url(#pa117de2bff)" style="fill: none; stroke: #b0b0b0; stroke-width: 0.8; stroke-linecap: square"/>
     </g>
     <g id="line2d_28">
      <g>
       <use xlink:href="#m88b11f6d16" x="57.6" y="123.909905" style="stroke: #000000; stroke-width: 0.8"/>
      </g>
     </g>
     <g id="text_15">
      <!-- −1800 -->
      <g transform="translate(16.770313 127.709123) scale(0.1 -0.1)">
       <defs>
        <path id="DejaVuSans-38" d="M 2034 2216 
Q 1584 2216 1326 1975 
Q 1069 1734 1069 1313 
Q 1069 891 1326 650 
Q 1584 409 2034 409 
Q 2484 409 2743 651 
Q 3003 894 3003 1313 
Q 3003 1734 2745 1975 
Q 2488 2216 2034 2216 
z
M 1403 2484 
Q 997 2584 770 2862 
Q 544 3141 544 3541 
Q 544 4100 942 4425 
Q 1341 4750 2034 4750 
Q 2731 4750 3128 4425 
Q 3525 4100 3525 3541 
Q 3525 3141 3298 2862 
Q 3072 2584 2669 2484 
Q 3125 2378 3379 2068 
Q 3634 1759 3634 1313 
Q 3634 634 3220 271 
Q 2806 -91 2034 -91 
Q 1263 -91 848 271 
Q 434 634 434 1313 
Q 434 1759 690 2068 
Q 947 2378 1403 2484 
z
M 1172 3481 
Q 1172 3119 1398 2916 
Q 1625 2713 2034 2713 
Q 2441 2713 2670 2916 
Q 2900 3119 2900 3481 
Q 2900 3844 2670 4047 
Q 2441 4250 2034 4250 
Q 1625 4250 1398 4047 
Q 1172 3844 1172 3481 
z
" transform="scale(0.015625)"/>
       </defs>
       <use xlink:href="#DejaVuSans-2212"/>
       <use xlink:href="#DejaVuSans-31" x="83.789062"/>
       <use xlink:href="#DejaVuSans-38" x="147.412109"/>
       <use xlink:href="#DejaVuSans-30" x="211.035156"/>
       <use xlink:href="#DejaVuSans-30" x="274.658203"/>
      </g>
     </g>
    </g>
    <g id="ytick_6">
     <g id="line2d_29">
      <path d="M 57.6 81.490094 
L 414.72 81.490094 
" clip-path="url(#pa117de2bff)" style="fill: none; stroke: #b0b0b0; stroke-width: 0.8; stroke-linecap: square"/>
     </g>
     <g id="line2d_30">
      <g>
       <use xlink:href="#m88b11f6d16" x="57.6" y="81.490094" style="stroke: #000000; stroke-width: 0.8"/>
      </g>
     </g>
     <g id="text_16">
      <!-- −1600 -->
      <g transform="translate(16.770313 85.289313) scale(0.1 -0.1)">
       <use xlink:href="#DejaVuSans-2212"/>
       <use xlink:href="#DejaVuSans-31" x="83.789062"/>
       <use xlink:href="#DejaVuSans-36" x="147.412109"/>
       <use xlink:href="#DejaVuSans-30" x="211.035156"/>
       <use xlink:href="#DejaVuSans-30" x="274.658203"/>
      </g>
     </g>
    </g>
    <g id="text_17">
     <!-- Fitness -->
     <g transform="translate(10.690625 191.845187) rotate(-90) scale(0.1 -0.1)">
      <defs>
       <path id="DejaVuSans-46" d="M 628 4666 
L 3309 4666 
L 3309 4134 
L 1259 4134 
L 1259 2759 
L 3109 2759 
L 3109 2228 
L 1259 2228 
L 1259 0 
L 628 0 
L 628 4666 
z
" transform="scale(0.015625)"/>
      </defs>
      <use xlink:href="#DejaVuSans-46"/>
      <use xlink:href="#DejaVuSans-69" x="50.269531"/>
      <use xlink:href="#DejaVuSans-74" x="78.052734"/>
      <use xlink:href="#DejaVuSans-6e" x="117.261719"/>
      <use xlink:href="#DejaVuSans-65" x="180.640625"/>
      <use xlink:href="#DejaVuSans-73" x="242.164062"/>
      <use xlink:href="#DejaVuSans-73" x="294.263672"/>
     </g>
    </g>
   </g>
   <g id="line2d_31">
    <path d="M 73.832727 159.031069 
L 75.464157 154.084039 
L 77.095587 151.104205 
L 78.727017 147.772 
L 80.358447 146.489419 
L 81.989877 141.615027 
L 83.621307 145.995964 
L 85.252736 145.007617 
L 86.884166 145.390852 
L 88.515596 142.797738 
L 90.147026 144.709853 
L 91.778456 145.368184 
L 93.409886 145.171134 
L 95.041316 145.87665 
L 96.672746 144.083419 
L 98.304175 140.744245 
L 99.935605 143.513297 
L 101.567035 143.636077 
L 103.198465 143.372093 
L 104.829895 140.424093 
L 106.461325 142.431747 
L 108.092755 142.023022 
L 109.724185 142.656096 
L 111.355614 141.065505 
L 112.987044 141.834981 
L 114.618474 141.5366 
L 116.249904 142.766182 
L 117.881334 141.521035 
L 119.512764 141.01089 
L 121.144194 144.91438 
L 124.407053 140.729319 
L 126.038483 142.509179 
L 127.669913 141.176945 
L 129.301343 144.469565 
L 130.932773 140.325984 
L 132.564203 143.824691 
L 134.195633 138.617949 
L 135.827063 140.918216 
L 137.458492 141.40115 
L 139.089922 143.418264 
L 140.721352 141.130857 
L 142.352782 143.156117 
L 143.984212 142.253527 
L 145.615642 141.830894 
L 147.247072 144.505436 
L 148.878502 142.311272 
L 150.509931 145.298089 
L 152.141361 144.510614 
L 153.772791 145.386459 
L 155.404221 144.538022 
L 157.035651 142.510386 
L 158.667081 141.26527 
L 160.298511 143.245575 
L 161.929941 140.322426 
L 163.56137 143.894948 
L 165.1928 143.31294 
L 166.82423 140.297886 
L 168.45566 140.368521 
L 170.08709 139.702176 
L 171.71852 140.349639 
L 173.34995 140.230303 
L 174.98138 143.095914 
L 176.61281 143.557616 
L 178.244239 144.173063 
L 179.875669 145.305566 
L 181.507099 141.311805 
L 183.138529 143.159301 
L 184.769959 141.849368 
L 186.401389 142.381716 
L 188.032819 141.79101 
L 189.664249 142.516676 
L 191.295678 144.110283 
L 192.927108 143.279105 
L 194.558538 144.796692 
L 196.189968 145.046394 
L 197.821398 143.652043 
L 199.452828 141.801915 
L 201.084258 144.689396 
L 202.715688 140.315283 
L 205.978547 143.69495 
L 207.609977 142.327435 
L 209.241407 140.773249 
L 210.872837 141.497683 
L 212.504267 142.993632 
L 214.135697 141.572566 
L 215.767127 141.299165 
L 217.398556 142.260946 
L 219.029986 141.823534 
L 220.661416 144.048582 
L 222.292846 139.050803 
L 223.924276 140.447892 
L 225.555706 139.893002 
L 227.187136 141.091342 
L 228.818566 144.041233 
L 230.449995 139.686111 
L 233.712855 140.782176 
L 235.344285 140.268819 
L 236.975715 139.965761 
L 238.607145 137.712422 
L 240.238575 138.843863 
L 241.870005 140.42907 
L 243.501434 142.807202 
L 245.132864 142.170299 
L 246.764294 142.620159 
L 248.395724 139.301413 
L 250.027154 142.534794 
L 251.658584 139.207924 
L 253.290014 142.451474 
L 254.921444 146.765798 
L 256.552873 141.767881 
L 258.184303 143.10209 
L 259.815733 140.632559 
L 261.447163 144.073489 
L 263.078593 144.429953 
L 264.710023 141.744337 
L 266.341453 142.813344 
L 267.972883 141.134667 
L 269.604312 143.109458 
L 271.235742 141.631759 
L 272.867172 142.165046 
L 274.498602 143.545853 
L 276.130032 141.112994 
L 277.761462 139.533982 
L 279.392892 140.789131 
L 281.024322 142.19066 
L 282.655751 142.21978 
L 284.287181 142.423587 
L 285.918611 145.440463 
L 287.550041 145.520192 
L 289.181471 144.853456 
L 290.812901 140.124253 
L 292.444331 142.737321 
L 294.075761 143.933527 
L 295.70719 140.860593 
L 297.33862 141.608338 
L 298.97005 140.266264 
L 300.60148 142.159036 
L 302.23291 142.014454 
L 303.86434 142.562401 
L 305.49577 140.517467 
L 308.75863 141.916321 
L 310.390059 143.64858 
L 312.021489 141.615157 
L 313.652919 142.933364 
L 315.284349 143.643107 
L 316.915779 145.035194 
L 318.547209 145.323998 
L 320.178639 142.10022 
L 321.810069 144.469848 
L 323.441498 140.871391 
L 326.704358 142.064645 
L 328.335788 144.777815 
L 329.967218 143.456851 
L 331.598648 142.535288 
L 333.230078 141.86655 
L 334.861508 139.14981 
L 336.492937 141.479733 
L 338.124367 140.915603 
L 339.755797 144.718625 
L 341.387227 144.067739 
L 343.018657 145.818056 
L 344.650087 142.418678 
L 346.281517 142.981262 
L 347.912947 141.664161 
L 349.544376 142.003154 
L 351.175806 142.864826 
L 352.807236 143.168297 
L 354.438666 146.322294 
L 356.070096 143.221801 
L 357.701526 141.60979 
L 359.332956 140.693526 
L 360.964386 143.745762 
L 362.595815 140.155237 
L 364.227245 141.506243 
L 365.858675 142.402404 
L 367.490105 141.731221 
L 369.121535 141.487313 
L 370.752965 141.409021 
L 372.384395 140.982949 
L 374.015825 140.109871 
L 375.647254 139.892482 
L 377.278684 141.308991 
L 378.910114 142.887956 
L 383.804404 141.112424 
L 385.435834 141.913941 
L 387.067264 140.892587 
L 388.698693 170.794453 
L 390.330123 175.677214 
L 391.961553 175.774521 
L 393.592983 173.451965 
L 395.224413 173.604766 
L 396.855843 171.871738 
L 398.487273 173.784792 
L 398.487273 173.784792 
" clip-path="url(#pa117de2bff)" style="fill: none; stroke: #0000ff; stroke-width: 1.5; stroke-linecap: square"/>
   </g>
   <g id="line2d_32">
    <path d="M 73.832727 178.10544 
L 75.464157 175.002828 
L 77.095587 171.376861 
L 78.727017 166.645645 
L 80.358447 164.437705 
L 81.989877 160.845385 
L 83.621307 166.955606 
L 85.252736 162.746219 
L 86.884166 162.096647 
L 88.515596 158.843599 
L 90.147026 161.660453 
L 93.409886 163.299551 
L 95.041316 165.620422 
L 96.672746 163.03552 
L 98.304175 158.056591 
L 99.935605 162.604676 
L 101.567035 162.386196 
L 103.198465 162.819559 
L 104.829895 160.460995 
L 106.461325 162.662509 
L 108.092755 159.348359 
L 109.724185 159.504713 
L 111.355614 157.138945 
L 112.987044 159.893342 
L 114.618474 159.408688 
L 116.249904 161.571445 
L 117.881334 161.404324 
L 119.512764 160.072913 
L 121.144194 163.922706 
L 122.775624 161.417483 
L 124.407053 160.15524 
L 126.038483 161.299423 
L 127.669913 158.190656 
L 129.301343 164.062049 
L 130.932773 161.210063 
L 132.564203 164.923714 
L 134.195633 156.769108 
L 135.827063 161.234329 
L 137.458492 162.24039 
L 139.089922 162.905234 
L 140.721352 158.366758 
L 142.352782 161.650462 
L 143.984212 160.143521 
L 145.615642 159.893921 
L 147.247072 162.419663 
L 148.878502 159.440758 
L 150.509931 162.212733 
L 152.141361 161.17907 
L 153.772791 163.725408 
L 155.404221 162.888886 
L 157.035651 159.699569 
L 158.667081 157.915273 
L 160.298511 162.14938 
L 161.929941 158.918963 
L 163.56137 165.057658 
L 165.1928 163.303072 
L 166.82423 157.647703 
L 168.45566 157.132825 
L 170.08709 156.211997 
L 171.71852 156.606847 
L 173.34995 154.633098 
L 174.98138 158.04114 
L 176.61281 159.220511 
L 178.244239 159.926609 
L 179.875669 161.580483 
L 181.507099 153.736563 
L 183.138529 157.013681 
L 184.769959 154.353394 
L 186.401389 155.775444 
L 188.032819 155.418576 
L 189.664249 155.926636 
L 191.295678 158.69706 
L 192.927108 157.392834 
L 194.558538 160.827131 
L 197.821398 158.544334 
L 199.452828 155.234299 
L 201.084258 162.804464 
L 202.715688 157.962251 
L 204.347117 158.907678 
L 205.978547 162.456731 
L 207.609977 160.028081 
L 209.241407 157.319945 
L 210.872837 158.094516 
L 212.504267 159.645421 
L 214.135697 158.349977 
L 215.767127 158.800512 
L 217.398556 162.266607 
L 219.029986 159.752695 
L 220.661416 163.64497 
L 222.292846 155.327631 
L 225.555706 158.700306 
L 227.187136 158.880096 
L 228.818566 163.422341 
L 230.449995 156.467382 
L 232.081425 156.504495 
L 233.712855 159.114624 
L 235.344285 157.333033 
L 236.975715 157.894157 
L 238.607145 153.293899 
L 240.238575 156.639024 
L 241.870005 158.785343 
L 243.501434 162.641347 
L 245.132864 160.997845 
L 246.764294 162.846135 
L 248.395724 160.373588 
L 250.027154 164.569514 
L 251.658584 159.284573 
L 253.290014 161.981328 
L 254.921444 166.839133 
L 256.552873 160.965695 
L 258.184303 161.525892 
L 259.815733 158.465081 
L 261.447163 162.63096 
L 263.078593 163.372172 
L 264.710023 158.633246 
L 266.341453 159.915962 
L 267.972883 156.915073 
L 269.604312 159.619364 
L 271.235742 159.208522 
L 274.498602 162.361225 
L 276.130032 159.557106 
L 277.761462 156.16093 
L 279.392892 158.217716 
L 281.024322 161.421946 
L 282.655751 160.149279 
L 284.287181 160.388716 
L 285.918611 165.17107 
L 289.181471 164.460869 
L 290.812901 155.911204 
L 292.444331 161.736171 
L 294.075761 162.639648 
L 295.70719 158.555822 
L 297.33862 159.942549 
L 298.97005 156.933265 
L 300.60148 160.448056 
L 302.23291 161.25889 
L 303.86434 160.405994 
L 305.49577 157.134349 
L 307.1272 157.574773 
L 308.75863 158.322583 
L 310.390059 161.542777 
L 312.021489 158.504447 
L 313.652919 161.215242 
L 315.284349 161.769105 
L 316.915779 165.04303 
L 318.547209 164.127177 
L 320.178639 159.394715 
L 321.810069 162.569375 
L 323.441498 156.20322 
L 325.072928 158.005972 
L 326.704358 160.178592 
L 328.335788 163.209328 
L 329.967218 161.758104 
L 331.598648 161.13059 
L 333.230078 161.223479 
L 334.861508 155.909977 
L 336.492937 159.329737 
L 338.124367 159.568706 
L 339.755797 163.998923 
L 341.387227 162.591704 
L 343.018657 165.305864 
L 344.650087 160.068862 
L 346.281517 161.801473 
L 347.912947 159.668656 
L 349.544376 161.391333 
L 351.175806 163.771493 
L 352.807236 162.120089 
L 354.438666 166.343151 
L 356.070096 162.055047 
L 357.701526 159.468193 
L 359.332956 158.694951 
L 360.964386 162.869695 
L 362.595815 158.790671 
L 364.227245 158.826434 
L 365.858675 161.622097 
L 367.490105 160.139002 
L 369.121535 159.70684 
L 370.752965 159.675398 
L 372.384395 158.05226 
L 374.015825 156.839838 
L 375.647254 158.791297 
L 377.278684 159.928008 
L 378.910114 162.935825 
L 380.541544 162.325674 
L 382.172974 160.9976 
L 383.804404 160.945624 
L 385.435834 159.047154 
L 387.067264 159.308799 
L 388.698693 284.408397 
L 390.330123 293.813139 
L 391.961553 295.488 
L 393.592983 288.387056 
L 395.224413 293.641531 
L 396.855843 286.182091 
L 398.487273 289.820025 
L 398.487273 289.820025 
" clip-path="url(#pa117de2bff)" style="fill: none; stroke-dasharray: 9.6,2.4,1.5,2.4; stroke-dashoffset: 0; stroke: #008000; stroke-width: 1.5"/>
   </g>
   <g id="line2d_33">
    <path d="M 73.832727 139.956697 
L 75.464157 133.165249 
L 77.095587 130.831549 
L 78.727017 128.898354 
L 80.358447 128.541134 
L 81.989877 122.38467 
L 83.621307 125.036322 
L 85.252736 127.269016 
L 86.884166 128.685057 
L 88.515596 126.751877 
L 90.147026 127.759253 
L 91.778456 128.238307 
L 93.409886 127.042717 
L 96.672746 125.131317 
L 98.304175 123.431899 
L 99.935605 124.421918 
L 101.567035 124.885958 
L 103.198465 123.924628 
L 104.829895 120.38719 
L 106.461325 122.200986 
L 108.092755 124.697686 
L 109.724185 125.807478 
L 111.355614 124.992065 
L 112.987044 123.776621 
L 114.618474 123.664512 
L 116.249904 123.96092 
L 117.881334 121.637746 
L 119.512764 121.948866 
L 121.144194 125.906053 
L 122.775624 124.217758 
L 124.407053 121.303399 
L 126.038483 123.718935 
L 127.669913 124.163235 
L 129.301343 124.87708 
L 130.932773 119.441905 
L 132.564203 122.725668 
L 134.195633 120.466789 
L 135.827063 120.602103 
L 137.458492 120.561911 
L 139.089922 123.931293 
L 140.721352 123.894957 
L 142.352782 124.661771 
L 143.984212 124.363533 
L 145.615642 123.767866 
L 147.247072 126.591209 
L 148.878502 125.181786 
L 150.509931 128.383444 
L 152.141361 127.842159 
L 155.404221 126.187158 
L 157.035651 125.321202 
L 158.667081 124.615267 
L 160.298511 124.341771 
L 161.929941 121.725889 
L 163.56137 122.732238 
L 165.1928 123.322809 
L 166.82423 122.948069 
L 168.45566 123.604217 
L 170.08709 123.192356 
L 171.71852 124.09243 
L 173.34995 125.827508 
L 174.98138 128.150687 
L 176.61281 127.89472 
L 179.875669 129.030649 
L 181.507099 128.887046 
L 183.138529 129.30492 
L 184.769959 129.345343 
L 186.401389 128.987988 
L 188.032819 128.163443 
L 189.664249 129.106716 
L 191.295678 129.523505 
L 194.558538 128.766253 
L 196.189968 130.343053 
L 197.821398 128.759752 
L 199.452828 128.369532 
L 201.084258 126.574328 
L 202.715688 122.668316 
L 204.347117 125.179406 
L 207.609977 124.626788 
L 209.241407 124.226553 
L 210.872837 124.900851 
L 212.504267 126.341844 
L 214.135697 124.795156 
L 215.767127 123.797817 
L 217.398556 122.255285 
L 219.029986 123.894372 
L 220.661416 124.452195 
L 222.292846 122.773976 
L 223.924276 123.959074 
L 225.555706 121.085699 
L 227.187136 123.302588 
L 228.818566 124.660124 
L 230.449995 122.904839 
L 232.081425 123.855335 
L 233.712855 122.449728 
L 235.344285 123.204605 
L 236.975715 122.037365 
L 238.607145 122.130945 
L 240.238575 121.048701 
L 243.501434 122.973056 
L 245.132864 123.342753 
L 246.764294 122.394183 
L 248.395724 118.229239 
L 250.027154 120.500074 
L 251.658584 119.131275 
L 254.921444 126.692463 
L 256.552873 122.570067 
L 258.184303 124.678289 
L 259.815733 122.800038 
L 261.447163 125.516017 
L 263.078593 125.487733 
L 264.710023 124.855428 
L 266.341453 125.710725 
L 267.972883 125.354261 
L 269.604312 126.599551 
L 271.235742 124.054997 
L 272.867172 123.595122 
L 274.498602 124.730481 
L 276.130032 122.668882 
L 277.761462 122.907034 
L 279.392892 123.360546 
L 281.024322 122.959374 
L 282.655751 124.29028 
L 284.287181 124.458457 
L 285.918611 125.709857 
L 287.550041 126.212273 
L 290.812901 124.337303 
L 292.444331 123.73847 
L 294.075761 125.227406 
L 295.70719 123.165365 
L 297.33862 123.274128 
L 300.60148 123.870016 
L 302.23291 122.770018 
L 303.86434 124.718808 
L 305.49577 123.900584 
L 307.1272 124.94552 
L 308.75863 125.510059 
L 310.390059 125.754383 
L 312.021489 124.725867 
L 313.652919 124.651485 
L 315.284349 125.517108 
L 316.915779 125.027359 
L 318.547209 126.52082 
L 320.178639 124.805726 
L 321.810069 126.370322 
L 323.441498 125.539563 
L 325.072928 124.898383 
L 326.704358 123.950699 
L 328.335788 126.346302 
L 331.598648 123.939987 
L 333.230078 122.50962 
L 334.861508 122.389642 
L 336.492937 123.629728 
L 338.124367 122.2625 
L 339.755797 125.438327 
L 341.387227 125.543775 
L 343.018657 126.330248 
L 344.650087 124.768493 
L 347.912947 123.659667 
L 349.544376 122.614976 
L 351.175806 121.95816 
L 354.438666 126.301436 
L 356.070096 124.388555 
L 357.701526 123.751387 
L 359.332956 122.692101 
L 360.964386 124.621828 
L 362.595815 121.519804 
L 364.227245 124.186052 
L 365.858675 123.18271 
L 367.490105 123.32344 
L 370.752965 123.142644 
L 372.384395 123.913638 
L 374.015825 123.379905 
L 375.647254 120.993667 
L 377.278684 122.689973 
L 378.910114 122.840086 
L 380.541544 122.247373 
L 382.172974 122.41493 
L 383.804404 121.279225 
L 385.435834 124.780729 
L 387.067264 122.476375 
L 388.698693 57.18051 
L 390.330123 57.541289 
L 391.961553 56.061043 
L 393.592983 58.516874 
L 395.224413 53.568 
L 396.855843 57.561385 
L 398.487273 57.749559 
L 398.487273 57.749559 
" clip-path="url(#pa117de2bff)" style="fill: none; stroke-dasharray: 9.6,2.4,1.5,2.4; stroke-dashoffset: 0; stroke: #008000; stroke-width: 1.5"/>
   </g>
   <g id="line2d_34">
    <path d="M 73.832727 99.465489 
L 75.464157 97.350861 
L 80.358447 97.350861 
L 81.989877 96.324302 
L 135.827063 96.324302 
L 137.458492 96.197042 
L 287.550041 96.197042 
L 289.181471 95.516204 
L 398.487273 95.516204 
L 398.487273 95.516204 
" clip-path="url(#pa117de2bff)" style="fill: none; stroke: #ff0000; stroke-width: 1.5; stroke-linecap: square"/>
   </g>
   <g id="patch_3">
    <path d="M 57.6 307.584 
L 57.6 41.472 
" style="fill: none; stroke: #000000; stroke-width: 0.8; stroke-linejoin: miter; stroke-linecap: square"/>
   </g>
   <g id="patch_4">
    <path d="M 414.72 307.584 
L 414.72 41.472 
" style="fill: none; stroke: #000000; stroke-width: 0.8; stroke-linejoin: miter; stroke-linecap: square"/>
   </g>
   <g id="patch_5">
    <path d="M 57.6 307.584 
L 414.72 307.584 
" style="fill: none; stroke: #000000; stroke-width: 0.8; stroke-linejoin: miter; stroke-linecap: square"/>
   </g>
   <g id="patch_6">
    <path d="M 57.6 41.472 
L 414.72 41.472 
" style="fill: none; stroke: #000000; stroke-width: 0.8; stroke-linejoin: miter; stroke-linecap: square"/>
   </g>
   <g id="text_18">
    <!-- Population's average and best fitness -->
    <g transform="translate(123.529687 35.472) scale(0.12 -0.12)">
     <defs>
      <path id="DejaVuSans-50" d="M 1259 4147 
L 1259 2394 
L 2053 2394 
Q 2494 2394 2734 2622 
Q 2975 2850 2975 3272 
Q 2975 3691 2734 3919 
Q 2494 4147 2053 4147 
L 1259 4147 
z
M 628 4666 
L 2053 4666 
Q 2838 4666 3239 4311 
Q 3641 3956 3641 3272 
Q 3641 2581 3239 2228 
Q 2838 1875 2053 1875 
L 1259 1875 
L 1259 0 
L 628 0 
L 628 4666 
z
" transform="scale(0.015625)"/>
      <path id="DejaVuSans-70" d="M 1159 525 
L 1159 -1331 
L 581 -1331 
L 581 3500 
L 1159 3500 
L 1159 2969 
Q 1341 3281 1617 3432 
Q 1894 3584 2278 3584 
Q 2916 3584 3314 3078 
Q 3713 2572 3713 1747 
Q 3713 922 3314 415 
Q 2916 -91 2278 -91 
Q 1894 -91 1617 61 
Q 1341 213 1159 525 
z
M 3116 1747 
Q 3116 2381 2855 2742 
Q 2594 3103 2138 3103 
Q 1681 3103 1420 2742 
Q 1159 2381 1159 1747 
Q 1159 1113 1420 752 
Q 1681 391 2138 391 
Q 2594 391 2855 752 
Q 3116 1113 3116 1747 
z
" transform="scale(0.015625)"/>
      <path id="DejaVuSans-75" d="M 544 1381 
L 544 3500 
L 1119 3500 
L 1119 1403 
Q 1119 906 1312 657 
Q 1506 409 1894 409 
Q 2359 409 2629 706 
Q 2900 1003 2900 1516 
L 2900 3500 
L 3475 3500 
L 3475 0 
L 2900 0 
L 2900 538 
Q 2691 219 2414 64 
Q 2138 -91 1772 -91 
Q 1169 -91 856 284 
Q 544 659 544 1381 
z
M 1991 3584 
L 1991 3584 
z
" transform="scale(0.015625)"/>
      <path id="DejaVuSans-6c" d="M 603 4863 
L 1178 4863 
L 1178 0 
L 603 0 
L 603 4863 
z
" transform="scale(0.015625)"/>
      <path id="DejaVuSans-27" d="M 1147 4666 
L 1147 2931 
L 616 2931 
L 616 4666 
L 1147 4666 
z
" transform="scale(0.015625)"/>
      <path id="DejaVuSans-20" transform="scale(0.015625)"/>
      <path id="DejaVuSans-76" d="M 191 3500 
L 800 3500 
L 1894 563 
L 2988 3500 
L 3597 3500 
L 2284 0 
L 1503 0 
L 191 3500 
z
" transform="scale(0.015625)"/>
      <path id="DejaVuSans-67" d="M 2906 1791 
Q 2906 2416 2648 2759 
Q 2391 3103 1925 3103 
Q 1463 3103 1205 2759 
Q 947 2416 947 1791 
Q 947 1169 1205 825 
Q 1463 481 1925 481 
Q 2391 481 2648 825 
Q 2906 1169 2906 1791 
z
M 3481 434 
Q 3481 -459 3084 -895 
Q 2688 -1331 1869 -1331 
Q 1566 -1331 1297 -1286 
Q 1028 -1241 775 -1147 
L 775 -588 
Q 1028 -725 1275 -790 
Q 1522 -856 1778 -856 
Q 2344 -856 2625 -561 
Q 2906 -266 2906 331 
L 2906 616 
Q 2728 306 2450 153 
Q 2172 0 1784 0 
Q 1141 0 747 490 
Q 353 981 353 1791 
Q 353 2603 747 3093 
Q 1141 3584 1784 3584 
Q 2172 3584 2450 3431 
Q 2728 3278 2906 2969 
L 2906 3500 
L 3481 3500 
L 3481 434 
z
" transform="scale(0.015625)"/>
      <path id="DejaVuSans-64" d="M 2906 2969 
L 2906 4863 
L 3481 4863 
L 3481 0 
L 2906 0 
L 2906 525 
Q 2725 213 2448 61 
Q 2172 -91 1784 -91 
Q 1150 -91 751 415 
Q 353 922 353 1747 
Q 353 2572 751 3078 
Q 1150 3584 1784 3584 
Q 2172 3584 2448 3432 
Q 2725 3281 2906 2969 
z
M 947 1747 
Q 947 1113 1208 752 
Q 1469 391 1925 391 
Q 2381 391 2643 752 
Q 2906 1113 2906 1747 
Q 2906 2381 2643 2742 
Q 2381 3103 1925 3103 
Q 1469 3103 1208 2742 
Q 947 2381 947 1747 
z
" transform="scale(0.015625)"/>
      <path id="DejaVuSans-62" d="M 3116 1747 
Q 3116 2381 2855 2742 
Q 2594 3103 2138 3103 
Q 1681 3103 1420 2742 
Q 1159 2381 1159 1747 
Q 1159 1113 1420 752 
Q 1681 391 2138 391 
Q 2594 391 2855 752 
Q 3116 1113 3116 1747 
z
M 1159 2969 
Q 1341 3281 1617 3432 
Q 1894 3584 2278 3584 
Q 2916 3584 3314 3078 
Q 3713 2572 3713 1747 
Q 3713 922 3314 415 
Q 2916 -91 2278 -91 
Q 1894 -91 1617 61 
Q 1341 213 1159 525 
L 1159 0 
L 581 0 
L 581 4863 
L 1159 4863 
L 1159 2969 
z
" transform="scale(0.015625)"/>
      <path id="DejaVuSans-66" d="M 2375 4863 
L 2375 4384 
L 1825 4384 
Q 1516 4384 1395 4259 
Q 1275 4134 1275 3809 
L 1275 3500 
L 2222 3500 
L 2222 3053 
L 1275 3053 
L 1275 0 
L 697 0 
L 697 3053 
L 147 3053 
L 147 3500 
L 697 3500 
L 697 3744 
Q 697 4328 969 4595 
Q 1241 4863 1831 4863 
L 2375 4863 
z
" transform="scale(0.015625)"/>
     </defs>
     <use xlink:href="#DejaVuSans-50"/>
     <use xlink:href="#DejaVuSans-6f" x="56.677734"/>
     <use xlink:href="#DejaVuSans-70" x="117.859375"/>
     <use xlink:href="#DejaVuSans-75" x="181.335938"/>
     <use xlink:href="#DejaVuSans-6c" x="244.714844"/>
     <use xlink:href="#DejaVuSans-61" x="272.498047"/>
     <use xlink:href="#DejaVuSans-74" x="333.777344"/>
     <use xlink:href="#DejaVuSans-69" x="372.986328"/>
     <use xlink:href="#DejaVuSans-6f" x="400.769531"/>
     <use xlink:href="#DejaVuSans-6e" x="461.951172"/>
     <use xlink:href="#DejaVuSans-27" x="525.330078"/>
     <use xlink:href="#DejaVuSans-73" x="552.820312"/>
     <use xlink:href="#DejaVuSans-20" x="604.919922"/>
     <use xlink:href="#DejaVuSans-61" x="636.707031"/>
     <use xlink:href="#DejaVuSans-76" x="697.986328"/>
     <use xlink:href="#DejaVuSans-65" x="757.166016"/>
     <use xlink:href="#DejaVuSans-72" x="818.689453"/>
     <use xlink:href="#DejaVuSans-61" x="859.802734"/>
     <use xlink:href="#DejaVuSans-67" x="921.082031"/>
     <use xlink:href="#DejaVuSans-65" x="984.558594"/>
     <use xlink:href="#DejaVuSans-20" x="1046.082031"/>
     <use xlink:href="#DejaVuSans-61" x="1077.869141"/>
     <use xlink:href="#DejaVuSans-6e" x="1139.148438"/>
     <use xlink:href="#DejaVuSans-64" x="1202.527344"/>
     <use xlink:href="#DejaVuSans-20" x="1266.003906"/>
     <use xlink:href="#DejaVuSans-62" x="1297.791016"/>
     <use xlink:href="#DejaVuSans-65" x="1361.267578"/>
     <use xlink:href="#DejaVuSans-73" x="1422.791016"/>
     <use xlink:href="#DejaVuSans-74" x="1474.890625"/>
     <use xlink:href="#DejaVuSans-20" x="1514.099609"/>
     <use xlink:href="#DejaVuSans-66" x="1545.886719"/>
     <use xlink:href="#DejaVuSans-69" x="1581.091797"/>
     <use xlink:href="#DejaVuSans-74" x="1608.875"/>
     <use xlink:href="#DejaVuSans-6e" x="1648.083984"/>
     <use xlink:href="#DejaVuSans-65" x="1711.462891"/>
     <use xlink:href="#DejaVuSans-73" x="1772.986328"/>
     <use xlink:href="#DejaVuSans-73" x="1825.085938"/>
    </g>
   </g>
   <g id="legend_1">
    <g id="patch_7">
     <path d="M 64.6 302.584 
L 137.540625 302.584 
Q 139.540625 302.584 139.540625 300.584 
L 139.540625 242.8715 
Q 139.540625 240.8715 137.540625 240.8715 
L 64.6 240.8715 
Q 62.6 240.8715 62.6 242.8715 
L 62.6 300.584 
Q 62.6 302.584 64.6 302.584 
z
" style="fill: #ffffff; opacity: 0.8; stroke: #cccccc; stroke-linejoin: miter"/>
    </g>
    <g id="line2d_35">
     <path d="M 66.6 248.969937 
L 76.6 248.969937 
L 86.6 248.969937 
" style="fill: none; stroke: #0000ff; stroke-width: 1.5; stroke-linecap: square"/>
    </g>
    <g id="text_19">
     <!-- average -->
     <g transform="translate(94.6 252.469937) scale(0.1 -0.1)">
      <use xlink:href="#DejaVuSans-61"/>
      <use xlink:href="#DejaVuSans-76" x="61.279297"/>
      <use xlink:href="#DejaVuSans-65" x="120.458984"/>
      <use xlink:href="#DejaVuSans-72" x="181.982422"/>
      <use xlink:href="#DejaVuSans-61" x="223.095703"/>
      <use xlink:href="#DejaVuSans-67" x="284.375"/>
      <use xlink:href="#DejaVuSans-65" x="347.851562"/>
     </g>
    </g>
    <g id="line2d_36">
     <path d="M 66.6 263.648062 
L 76.6 263.648062 
L 86.6 263.648062 
" style="fill: none; stroke-dasharray: 9.6,2.4,1.5,2.4; stroke-dashoffset: 0; stroke: #008000; stroke-width: 1.5"/>
    </g>
    <g id="text_20">
     <!-- -1 sd -->
     <g transform="translate(94.6 267.148062) scale(0.1 -0.1)">
      <defs>
       <path id="DejaVuSans-2d" d="M 313 2009 
L 1997 2009 
L 1997 1497 
L 313 1497 
L 313 2009 
z
" transform="scale(0.015625)"/>
      </defs>
      <use xlink:href="#DejaVuSans-2d"/>
      <use xlink:href="#DejaVuSans-31" x="36.083984"/>
      <use xlink:href="#DejaVuSans-20" x="99.707031"/>
      <use xlink:href="#DejaVuSans-73" x="131.494141"/>
      <use xlink:href="#DejaVuSans-64" x="183.59375"/>
     </g>
    </g>
    <g id="line2d_37">
     <path d="M 66.6 278.326187 
L 76.6 278.326187 
L 86.6 278.326187 
" style="fill: none; stroke-dasharray: 9.6,2.4,1.5,2.4; stroke-dashoffset: 0; stroke: #008000; stroke-width: 1.5"/>
    </g>
    <g id="text_21">
     <!-- +1 sd -->
     <g transform="translate(94.6 281.826187) scale(0.1 -0.1)">
      <defs>
       <path id="DejaVuSans-2b" d="M 2944 4013 
L 2944 2272 
L 4684 2272 
L 4684 1741 
L 2944 1741 
L 2944 0 
L 2419 0 
L 2419 1741 
L 678 1741 
L 678 2272 
L 2419 2272 
L 2419 4013 
L 2944 4013 
z
" transform="scale(0.015625)"/>
      </defs>
      <use xlink:href="#DejaVuSans-2b"/>
      <use xlink:href="#DejaVuSans-31" x="83.789062"/>
      <use xlink:href="#DejaVuSans-20" x="147.412109"/>
      <use xlink:href="#DejaVuSans-73" x="179.199219"/>
      <use xlink:href="#DejaVuSans-64" x="231.298828"/>
     </g>
    </g>
    <g id="line2d_38">
     <path d="M 66.6 293.004312 
L 76.6 293.004312 
L 86.6 293.004312 
" style="fill: none; stroke: #ff0000; stroke-width: 1.5; stroke-linecap: square"/>
    </g>
    <g id="text_22">
     <!-- best -->
     <g transform="translate(94.6 296.504312) scale(0.1 -0.1)">
      <use xlink:href="#DejaVuSans-62"/>
      <use xlink:href="#DejaVuSans-65" x="63.476562"/>
      <use xlink:href="#DejaVuSans-73" x="125"/>
      <use xlink:href="#DejaVuSans-74" x="177.099609"/>
     </g>
    </g>
   </g>
  </g>
 </g>
 <defs>
  <clipPath id="pa117de2bff">
   <rect x="57.6" y="41.472" width="357.12" height="266.112"/>
  </clipPath>
 </defs>
</svg>
