<?xml version="1.0" encoding="utf-8" standalone="no"?>
<!DOCTYPE svg PUBLIC "-//W3C//DTD SVG 1.1//EN"
  "http://www.w3.org/Graphics/SVG/1.1/DTD/svg11.dtd">
<svg xmlns:xlink="http://www.w3.org/1999/xlink" width="460.8pt" height="345.6pt" viewBox="0 0 460.8 345.6" xmlns="http://www.w3.org/2000/svg" version="1.1">
 <metadata>
  <rdf:RDF xmlns:dc="http://purl.org/dc/elements/1.1/" xmlns:cc="http://creativecommons.org/ns#" xmlns:rdf="http://www.w3.org/1999/02/22-rdf-syntax-ns#">
   <cc:Work>
    <dc:type rdf:resource="http://purl.org/dc/dcmitype/StillImage"/>
    <dc:date>2024-08-14T11:34:11.131734</dc:date>
    <dc:format>image/svg+xml</dc:format>
    <dc:creator>
     <cc:Agent>
      <dc:title>Matplotlib v3.8.4, https://matplotlib.org/</dc:title>
     </cc:Agent>
    </dc:creator>
   </cc:Work>
  </rdf:RDF>
 </metadata>
 <defs>
  <style type="text/css">*{stroke-linejoin: round; stroke-linecap: butt}</style>
 </defs>
 <g id="figure_1">
  <g id="patch_1">
   <path d="M 0 345.6 
L 460.8 345.6 
L 460.8 0 
L 0 0 
z
" style="fill: #ffffff"/>
  </g>
  <g id="axes_1">
   <g id="patch_2">
    <path d="M 57.6 307.584 
L 414.72 307.584 
L 414.72 41.472 
L 57.6 41.472 
z
" style="fill: #ffffff"/>
   </g>
   <g id="matplotlib.axis_1">
    <g id="xtick_1">
     <g id="line2d_1">
      <path d="M 73.832727 307.584 
L 73.832727 41.472 
" clip-path="url(#pa6d62d3ba4)" style="fill: none; stroke: #b0b0b0; stroke-width: 0.8; stroke-linecap: square"/>
     </g>
     <g id="line2d_2">
      <defs>
       <path id="m81baadc244" d="M 0 0 
L 0 3.5 
" style="stroke: #000000; stroke-width: 0.8"/>
      </defs>
      <g>
       <use xlink:href="#m81baadc244" x="73.832727" y="307.584" style="stroke: #000000; stroke-width: 0.8"/>
      </g>
     </g>
     <g id="text_1">
      <!-- 0 -->
      <g transform="translate(70.651477 322.182437) scale(0.1 -0.1)">
       <defs>
        <path id="DejaVuSans-30" d="M 2034 4250 
Q 1547 4250 1301 3770 
Q 1056 3291 1056 2328 
Q 1056 1369 1301 889 
Q 1547 409 2034 409 
Q 2525 409 2770 889 
Q 3016 1369 3016 2328 
Q 3016 3291 2770 3770 
Q 2525 4250 2034 4250 
z
M 2034 4750 
Q 2819 4750 3233 4129 
Q 3647 3509 3647 2328 
Q 3647 1150 3233 529 
Q 2819 -91 2034 -91 
Q 1250 -91 836 529 
Q 422 1150 422 2328 
Q 422 3509 836 4129 
Q 1250 4750 2034 4750 
z
" transform="scale(0.015625)"/>
       </defs>
       <use xlink:href="#DejaVuSans-30"/>
      </g>
     </g>
    </g>
    <g id="xtick_2">
     <g id="line2d_3">
      <path d="M 128.122785 307.584 
L 128.122785 41.472 
" clip-path="url(#pa6d62d3ba4)" style="fill: none; stroke: #b0b0b0; stroke-width: 0.8; stroke-linecap: square"/>
     </g>
     <g id="line2d_4">
      <g>
       <use xlink:href="#m81baadc244" x="128.122785" y="307.584" style="stroke: #000000; stroke-width: 0.8"/>
      </g>
     </g>
     <g id="text_2">
      <!-- 50 -->
      <g transform="translate(121.760285 322.182437) scale(0.1 -0.1)">
       <defs>
        <path id="DejaVuSans-35" d="M 691 4666 
L 3169 4666 
L 3169 4134 
L 1269 4134 
L 1269 2991 
Q 1406 3038 1543 3061 
Q 1681 3084 1819 3084 
Q 2600 3084 3056 2656 
Q 3513 2228 3513 1497 
Q 3513 744 3044 326 
Q 2575 -91 1722 -91 
Q 1428 -91 1123 -41 
Q 819 9 494 109 
L 494 744 
Q 775 591 1075 516 
Q 1375 441 1709 441 
Q 2250 441 2565 725 
Q 2881 1009 2881 1497 
Q 2881 1984 2565 2268 
Q 2250 2553 1709 2553 
Q 1456 2553 1204 2497 
Q 953 2441 691 2322 
L 691 4666 
z
" transform="scale(0.015625)"/>
       </defs>
       <use xlink:href="#DejaVuSans-35"/>
       <use xlink:href="#DejaVuSans-30" x="63.623047"/>
      </g>
     </g>
    </g>
    <g id="xtick_3">
     <g id="line2d_5">
      <path d="M 182.412843 307.584 
L 182.412843 41.472 
" clip-path="url(#pa6d62d3ba4)" style="fill: none; stroke: #b0b0b0; stroke-width: 0.8; stroke-linecap: square"/>
     </g>
     <g id="line2d_6">
      <g>
       <use xlink:href="#m81baadc244" x="182.412843" y="307.584" style="stroke: #000000; stroke-width: 0.8"/>
      </g>
     </g>
     <g id="text_3">
      <!-- 100 -->
      <g transform="translate(172.869093 322.182437) scale(0.1 -0.1)">
       <defs>
        <path id="DejaVuSans-31" d="M 794 531 
L 1825 531 
L 1825 4091 
L 703 3866 
L 703 4441 
L 1819 4666 
L 2450 4666 
L 2450 531 
L 3481 531 
L 3481 0 
L 794 0 
L 794 531 
z
" transform="scale(0.015625)"/>
       </defs>
       <use xlink:href="#DejaVuSans-31"/>
       <use xlink:href="#DejaVuSans-30" x="63.623047"/>
       <use xlink:href="#DejaVuSans-30" x="127.246094"/>
      </g>
     </g>
    </g>
    <g id="xtick_4">
     <g id="line2d_7">
      <path d="M 236.702901 307.584 
L 236.702901 41.472 
" clip-path="url(#pa6d62d3ba4)" style="fill: none; stroke: #b0b0b0; stroke-width: 0.8; stroke-linecap: square"/>
     </g>
     <g id="line2d_8">
      <g>
       <use xlink:href="#m81baadc244" x="236.702901" y="307.584" style="stroke: #000000; stroke-width: 0.8"/>
      </g>
     </g>
     <g id="text_4">
      <!-- 150 -->
      <g transform="translate(227.159151 322.182437) scale(0.1 -0.1)">
       <use xlink:href="#DejaVuSans-31"/>
       <use xlink:href="#DejaVuSans-35" x="63.623047"/>
       <use xlink:href="#DejaVuSans-30" x="127.246094"/>
      </g>
     </g>
    </g>
    <g id="xtick_5">
     <g id="line2d_9">
      <path d="M 290.992958 307.584 
L 290.992958 41.472 
" clip-path="url(#pa6d62d3ba4)" style="fill: none; stroke: #b0b0b0; stroke-width: 0.8; stroke-linecap: square"/>
     </g>
     <g id="line2d_10">
      <g>
       <use xlink:href="#m81baadc244" x="290.992958" y="307.584" style="stroke: #000000; stroke-width: 0.8"/>
      </g>
     </g>
     <g id="text_5">
      <!-- 200 -->
      <g transform="translate(281.449208 322.182437) scale(0.1 -0.1)">
       <defs>
        <path id="DejaVuSans-32" d="M 1228 531 
L 3431 531 
L 3431 0 
L 469 0 
L 469 531 
Q 828 903 1448 1529 
Q 2069 2156 2228 2338 
Q 2531 2678 2651 2914 
Q 2772 3150 2772 3378 
Q 2772 3750 2511 3984 
Q 2250 4219 1831 4219 
Q 1534 4219 1204 4116 
Q 875 4013 500 3803 
L 500 4441 
Q 881 4594 1212 4672 
Q 1544 4750 1819 4750 
Q 2544 4750 2975 4387 
Q 3406 4025 3406 3419 
Q 3406 3131 3298 2873 
Q 3191 2616 2906 2266 
Q 2828 2175 2409 1742 
Q 1991 1309 1228 531 
z
" transform="scale(0.015625)"/>
       </defs>
       <use xlink:href="#DejaVuSans-32"/>
       <use xlink:href="#DejaVuSans-30" x="63.623047"/>
       <use xlink:href="#DejaVuSans-30" x="127.246094"/>
      </g>
     </g>
    </g>
    <g id="xtick_6">
     <g id="line2d_11">
      <path d="M 345.283016 307.584 
L 345.283016 41.472 
" clip-path="url(#pa6d62d3ba4)" style="fill: none; stroke: #b0b0b0; stroke-width: 0.8; stroke-linecap: square"/>
     </g>
     <g id="line2d_12">
      <g>
       <use xlink:href="#m81baadc244" x="345.283016" y="307.584" style="stroke: #000000; stroke-width: 0.8"/>
      </g>
     </g>
     <g id="text_6">
      <!-- 250 -->
      <g transform="translate(335.739266 322.182437) scale(0.1 -0.1)">
       <use xlink:href="#DejaVuSans-32"/>
       <use xlink:href="#DejaVuSans-35" x="63.623047"/>
       <use xlink:href="#DejaVuSans-30" x="127.246094"/>
      </g>
     </g>
    </g>
    <g id="xtick_7">
     <g id="line2d_13">
      <path d="M 399.573074 307.584 
L 399.573074 41.472 
" clip-path="url(#pa6d62d3ba4)" style="fill: none; stroke: #b0b0b0; stroke-width: 0.8; stroke-linecap: square"/>
     </g>
     <g id="line2d_14">
      <g>
       <use xlink:href="#m81baadc244" x="399.573074" y="307.584" style="stroke: #000000; stroke-width: 0.8"/>
      </g>
     </g>
     <g id="text_7">
      <!-- 300 -->
      <g transform="translate(390.029324 322.182437) scale(0.1 -0.1)">
       <defs>
        <path id="DejaVuSans-33" d="M 2597 2516 
Q 3050 2419 3304 2112 
Q 3559 1806 3559 1356 
Q 3559 666 3084 287 
Q 2609 -91 1734 -91 
Q 1441 -91 1130 -33 
Q 819 25 488 141 
L 488 750 
Q 750 597 1062 519 
Q 1375 441 1716 441 
Q 2309 441 2620 675 
Q 2931 909 2931 1356 
Q 2931 1769 2642 2001 
Q 2353 2234 1838 2234 
L 1294 2234 
L 1294 2753 
L 1863 2753 
Q 2328 2753 2575 2939 
Q 2822 3125 2822 3475 
Q 2822 3834 2567 4026 
Q 2313 4219 1838 4219 
Q 1578 4219 1281 4162 
Q 984 4106 628 3988 
L 628 4550 
Q 988 4650 1302 4700 
Q 1616 4750 1894 4750 
Q 2613 4750 3031 4423 
Q 3450 4097 3450 3541 
Q 3450 3153 3228 2886 
Q 3006 2619 2597 2516 
z
" transform="scale(0.015625)"/>
       </defs>
       <use xlink:href="#DejaVuSans-33"/>
       <use xlink:href="#DejaVuSans-30" x="63.623047"/>
       <use xlink:href="#DejaVuSans-30" x="127.246094"/>
      </g>
     </g>
    </g>
    <g id="text_8">
     <!-- Generations -->
     <g transform="translate(205.662344 335.860562) scale(0.1 -0.1)">
      <defs>
       <path id="DejaVuSans-47" d="M 3809 666 
L 3809 1919 
L 2778 1919 
L 2778 2438 
L 4434 2438 
L 4434 434 
Q 4069 175 3628 42 
Q 3188 -91 2688 -91 
Q 1594 -91 976 548 
Q 359 1188 359 2328 
Q 359 3472 976 4111 
Q 1594 4750 2688 4750 
Q 3144 4750 3555 4637 
Q 3966 4525 4313 4306 
L 4313 3634 
Q 3963 3931 3569 4081 
Q 3175 4231 2741 4231 
Q 1884 4231 1454 3753 
Q 1025 3275 1025 2328 
Q 1025 1384 1454 906 
Q 1884 428 2741 428 
Q 3075 428 3337 486 
Q 3600 544 3809 666 
z
" transform="scale(0.015625)"/>
       <path id="DejaVuSans-65" d="M 3597 1894 
L 3597 1613 
L 953 1613 
Q 991 1019 1311 708 
Q 1631 397 2203 397 
Q 2534 397 2845 478 
Q 3156 559 3463 722 
L 3463 178 
Q 3153 47 2828 -22 
Q 2503 -91 2169 -91 
Q 1331 -91 842 396 
Q 353 884 353 1716 
Q 353 2575 817 3079 
Q 1281 3584 2069 3584 
Q 2775 3584 3186 3129 
Q 3597 2675 3597 1894 
z
M 3022 2063 
Q 3016 2534 2758 2815 
Q 2500 3097 2075 3097 
Q 1594 3097 1305 2825 
Q 1016 2553 972 2059 
L 3022 2063 
z
" transform="scale(0.015625)"/>
       <path id="DejaVuSans-6e" d="M 3513 2113 
L 3513 0 
L 2938 0 
L 2938 2094 
Q 2938 2591 2744 2837 
Q 2550 3084 2163 3084 
Q 1697 3084 1428 2787 
Q 1159 2491 1159 1978 
L 1159 0 
L 581 0 
L 581 3500 
L 1159 3500 
L 1159 2956 
Q 1366 3272 1645 3428 
Q 1925 3584 2291 3584 
Q 2894 3584 3203 3211 
Q 3513 2838 3513 2113 
z
" transform="scale(0.015625)"/>
       <path id="DejaVuSans-72" d="M 2631 2963 
Q 2534 3019 2420 3045 
Q 2306 3072 2169 3072 
Q 1681 3072 1420 2755 
Q 1159 2438 1159 1844 
L 1159 0 
L 581 0 
L 581 3500 
L 1159 3500 
L 1159 2956 
Q 1341 3275 1631 3429 
Q 1922 3584 2338 3584 
Q 2397 3584 2469 3576 
Q 2541 3569 2628 3553 
L 2631 2963 
z
" transform="scale(0.015625)"/>
       <path id="DejaVuSans-61" d="M 2194 1759 
Q 1497 1759 1228 1600 
Q 959 1441 959 1056 
Q 959 750 1161 570 
Q 1363 391 1709 391 
Q 2188 391 2477 730 
Q 2766 1069 2766 1631 
L 2766 1759 
L 2194 1759 
z
M 3341 1997 
L 3341 0 
L 2766 0 
L 2766 531 
Q 2569 213 2275 61 
Q 1981 -91 1556 -91 
Q 1019 -91 701 211 
Q 384 513 384 1019 
Q 384 1609 779 1909 
Q 1175 2209 1959 2209 
L 2766 2209 
L 2766 2266 
Q 2766 2663 2505 2880 
Q 2244 3097 1772 3097 
Q 1472 3097 1187 3025 
Q 903 2953 641 2809 
L 641 3341 
Q 956 3463 1253 3523 
Q 1550 3584 1831 3584 
Q 2591 3584 2966 3190 
Q 3341 2797 3341 1997 
z
" transform="scale(0.015625)"/>
       <path id="DejaVuSans-74" d="M 1172 4494 
L 1172 3500 
L 2356 3500 
L 2356 3053 
L 1172 3053 
L 1172 1153 
Q 1172 725 1289 603 
Q 1406 481 1766 481 
L 2356 481 
L 2356 0 
L 1766 0 
Q 1100 0 847 248 
Q 594 497 594 1153 
L 594 3053 
L 172 3053 
L 172 3500 
L 594 3500 
L 594 4494 
L 1172 4494 
z
" transform="scale(0.015625)"/>
       <path id="DejaVuSans-69" d="M 603 3500 
L 1178 3500 
L 1178 0 
L 603 0 
L 603 3500 
z
M 603 4863 
L 1178 4863 
L 1178 4134 
L 603 4134 
L 603 4863 
z
" transform="scale(0.015625)"/>
       <path id="DejaVuSans-6f" d="M 1959 3097 
Q 1497 3097 1228 2736 
Q 959 2375 959 1747 
Q 959 1119 1226 758 
Q 1494 397 1959 397 
Q 2419 397 2687 759 
Q 2956 1122 2956 1747 
Q 2956 2369 2687 2733 
Q 2419 3097 1959 3097 
z
M 1959 3584 
Q 2709 3584 3137 3096 
Q 3566 2609 3566 1747 
Q 3566 888 3137 398 
Q 2709 -91 1959 -91 
Q 1206 -91 779 398 
Q 353 888 353 1747 
Q 353 2609 779 3096 
Q 1206 3584 1959 3584 
z
" transform="scale(0.015625)"/>
       <path id="DejaVuSans-73" d="M 2834 3397 
L 2834 2853 
Q 2591 2978 2328 3040 
Q 2066 3103 1784 3103 
Q 1356 3103 1142 2972 
Q 928 2841 928 2578 
Q 928 2378 1081 2264 
Q 1234 2150 1697 2047 
L 1894 2003 
Q 2506 1872 2764 1633 
Q 3022 1394 3022 966 
Q 3022 478 2636 193 
Q 2250 -91 1575 -91 
Q 1294 -91 989 -36 
Q 684 19 347 128 
L 347 722 
Q 666 556 975 473 
Q 1284 391 1588 391 
Q 1994 391 2212 530 
Q 2431 669 2431 922 
Q 2431 1156 2273 1281 
Q 2116 1406 1581 1522 
L 1381 1569 
Q 847 1681 609 1914 
Q 372 2147 372 2553 
Q 372 3047 722 3315 
Q 1072 3584 1716 3584 
Q 2034 3584 2315 3537 
Q 2597 3491 2834 3397 
z
" transform="scale(0.015625)"/>
      </defs>
      <use xlink:href="#DejaVuSans-47"/>
      <use xlink:href="#DejaVuSans-65" x="77.490234"/>
      <use xlink:href="#DejaVuSans-6e" x="139.013672"/>
      <use xlink:href="#DejaVuSans-65" x="202.392578"/>
      <use xlink:href="#DejaVuSans-72" x="263.916016"/>
      <use xlink:href="#DejaVuSans-61" x="305.029297"/>
      <use xlink:href="#DejaVuSans-74" x="366.308594"/>
      <use xlink:href="#DejaVuSans-69" x="405.517578"/>
      <use xlink:href="#DejaVuSans-6f" x="433.300781"/>
      <use xlink:href="#DejaVuSans-6e" x="494.482422"/>
      <use xlink:href="#DejaVuSans-73" x="557.861328"/>
     </g>
    </g>
   </g>
   <g id="matplotlib.axis_2">
    <g id="ytick_1">
     <g id="line2d_15">
      <path d="M 57.6 287.442092 
L 414.72 287.442092 
" clip-path="url(#pa6d62d3ba4)" style="fill: none; stroke: #b0b0b0; stroke-width: 0.8; stroke-linecap: square"/>
     </g>
     <g id="line2d_16">
      <defs>
       <path id="m2907c793e6" d="M 0 0 
L -3.5 0 
" style="stroke: #000000; stroke-width: 0.8"/>
      </defs>
      <g>
       <use xlink:href="#m2907c793e6" x="57.6" y="287.442092" style="stroke: #000000; stroke-width: 0.8"/>
      </g>
     </g>
     <g id="text_9">
      <!-- −2000 -->
      <g transform="translate(16.770313 291.241311) scale(0.1 -0.1)">
       <defs>
        <path id="DejaVuSans-2212" d="M 678 2272 
L 4684 2272 
L 4684 1741 
L 678 1741 
L 678 2272 
z
" transform="scale(0.015625)"/>
       </defs>
       <use xlink:href="#DejaVuSans-2212"/>
       <use xlink:href="#DejaVuSans-32" x="83.789062"/>
       <use xlink:href="#DejaVuSans-30" x="147.412109"/>
       <use xlink:href="#DejaVuSans-30" x="211.035156"/>
       <use xlink:href="#DejaVuSans-30" x="274.658203"/>
      </g>
     </g>
    </g>
    <g id="ytick_2">
     <g id="line2d_17">
      <path d="M 57.6 251.484374 
L 414.72 251.484374 
" clip-path="url(#pa6d62d3ba4)" style="fill: none; stroke: #b0b0b0; stroke-width: 0.8; stroke-linecap: square"/>
     </g>
     <g id="line2d_18">
      <g>
       <use xlink:href="#m2907c793e6" x="57.6" y="251.484374" style="stroke: #000000; stroke-width: 0.8"/>
      </g>
     </g>
     <g id="text_10">
      <!-- −1800 -->
      <g transform="translate(16.770313 255.283592) scale(0.1 -0.1)">
       <defs>
        <path id="DejaVuSans-38" d="M 2034 2216 
Q 1584 2216 1326 1975 
Q 1069 1734 1069 1313 
Q 1069 891 1326 650 
Q 1584 409 2034 409 
Q 2484 409 2743 651 
Q 3003 894 3003 1313 
Q 3003 1734 2745 1975 
Q 2488 2216 2034 2216 
z
M 1403 2484 
Q 997 2584 770 2862 
Q 544 3141 544 3541 
Q 544 4100 942 4425 
Q 1341 4750 2034 4750 
Q 2731 4750 3128 4425 
Q 3525 4100 3525 3541 
Q 3525 3141 3298 2862 
Q 3072 2584 2669 2484 
Q 3125 2378 3379 2068 
Q 3634 1759 3634 1313 
Q 3634 634 3220 271 
Q 2806 -91 2034 -91 
Q 1263 -91 848 271 
Q 434 634 434 1313 
Q 434 1759 690 2068 
Q 947 2378 1403 2484 
z
M 1172 3481 
Q 1172 3119 1398 2916 
Q 1625 2713 2034 2713 
Q 2441 2713 2670 2916 
Q 2900 3119 2900 3481 
Q 2900 3844 2670 4047 
Q 2441 4250 2034 4250 
Q 1625 4250 1398 4047 
Q 1172 3844 1172 3481 
z
" transform="scale(0.015625)"/>
       </defs>
       <use xlink:href="#DejaVuSans-2212"/>
       <use xlink:href="#DejaVuSans-31" x="83.789062"/>
       <use xlink:href="#DejaVuSans-38" x="147.412109"/>
       <use xlink:href="#DejaVuSans-30" x="211.035156"/>
       <use xlink:href="#DejaVuSans-30" x="274.658203"/>
      </g>
     </g>
    </g>
    <g id="ytick_3">
     <g id="line2d_19">
      <path d="M 57.6 215.526655 
L 414.72 215.526655 
" clip-path="url(#pa6d62d3ba4)" style="fill: none; stroke: #b0b0b0; stroke-width: 0.8; stroke-linecap: square"/>
     </g>
     <g id="line2d_20">
      <g>
       <use xlink:href="#m2907c793e6" x="57.6" y="215.526655" style="stroke: #000000; stroke-width: 0.8"/>
      </g>
     </g>
     <g id="text_11">
      <!-- −1600 -->
      <g transform="translate(16.770313 219.325874) scale(0.1 -0.1)">
       <defs>
        <path id="DejaVuSans-36" d="M 2113 2584 
Q 1688 2584 1439 2293 
Q 1191 2003 1191 1497 
Q 1191 994 1439 701 
Q 1688 409 2113 409 
Q 2538 409 2786 701 
Q 3034 994 3034 1497 
Q 3034 2003 2786 2293 
Q 2538 2584 2113 2584 
z
M 3366 4563 
L 3366 3988 
Q 3128 4100 2886 4159 
Q 2644 4219 2406 4219 
Q 1781 4219 1451 3797 
Q 1122 3375 1075 2522 
Q 1259 2794 1537 2939 
Q 1816 3084 2150 3084 
Q 2853 3084 3261 2657 
Q 3669 2231 3669 1497 
Q 3669 778 3244 343 
Q 2819 -91 2113 -91 
Q 1303 -91 875 529 
Q 447 1150 447 2328 
Q 447 3434 972 4092 
Q 1497 4750 2381 4750 
Q 2619 4750 2861 4703 
Q 3103 4656 3366 4563 
z
" transform="scale(0.015625)"/>
       </defs>
       <use xlink:href="#DejaVuSans-2212"/>
       <use xlink:href="#DejaVuSans-31" x="83.789062"/>
       <use xlink:href="#DejaVuSans-36" x="147.412109"/>
       <use xlink:href="#DejaVuSans-30" x="211.035156"/>
       <use xlink:href="#DejaVuSans-30" x="274.658203"/>
      </g>
     </g>
    </g>
    <g id="ytick_4">
     <g id="line2d_21">
      <path d="M 57.6 179.568937 
L 414.72 179.568937 
" clip-path="url(#pa6d62d3ba4)" style="fill: none; stroke: #b0b0b0; stroke-width: 0.8; stroke-linecap: square"/>
     </g>
     <g id="line2d_22">
      <g>
       <use xlink:href="#m2907c793e6" x="57.6" y="179.568937" style="stroke: #000000; stroke-width: 0.8"/>
      </g>
     </g>
     <g id="text_12">
      <!-- −1400 -->
      <g transform="translate(16.770313 183.368156) scale(0.1 -0.1)">
       <defs>
        <path id="DejaVuSans-34" d="M 2419 4116 
L 825 1625 
L 2419 1625 
L 2419 4116 
z
M 2253 4666 
L 3047 4666 
L 3047 1625 
L 3713 1625 
L 3713 1100 
L 3047 1100 
L 3047 0 
L 2419 0 
L 2419 1100 
L 313 1100 
L 313 1709 
L 2253 4666 
z
" transform="scale(0.015625)"/>
       </defs>
       <use xlink:href="#DejaVuSans-2212"/>
       <use xlink:href="#DejaVuSans-31" x="83.789062"/>
       <use xlink:href="#DejaVuSans-34" x="147.412109"/>
       <use xlink:href="#DejaVuSans-30" x="211.035156"/>
       <use xlink:href="#DejaVuSans-30" x="274.658203"/>
      </g>
     </g>
    </g>
    <g id="ytick_5">
     <g id="line2d_23">
      <path d="M 57.6 143.611218 
L 414.72 143.611218 
" clip-path="url(#pa6d62d3ba4)" style="fill: none; stroke: #b0b0b0; stroke-width: 0.8; stroke-linecap: square"/>
     </g>
     <g id="line2d_24">
      <g>
       <use xlink:href="#m2907c793e6" x="57.6" y="143.611218" style="stroke: #000000; stroke-width: 0.8"/>
      </g>
     </g>
     <g id="text_13">
      <!-- −1200 -->
      <g transform="translate(16.770313 147.410437) scale(0.1 -0.1)">
       <use xlink:href="#DejaVuSans-2212"/>
       <use xlink:href="#DejaVuSans-31" x="83.789062"/>
       <use xlink:href="#DejaVuSans-32" x="147.412109"/>
       <use xlink:href="#DejaVuSans-30" x="211.035156"/>
       <use xlink:href="#DejaVuSans-30" x="274.658203"/>
      </g>
     </g>
    </g>
    <g id="ytick_6">
     <g id="line2d_25">
      <path d="M 57.6 107.6535 
L 414.72 107.6535 
" clip-path="url(#pa6d62d3ba4)" style="fill: none; stroke: #b0b0b0; stroke-width: 0.8; stroke-linecap: square"/>
     </g>
     <g id="line2d_26">
      <g>
       <use xlink:href="#m2907c793e6" x="57.6" y="107.6535" style="stroke: #000000; stroke-width: 0.8"/>
      </g>
     </g>
     <g id="text_14">
      <!-- −1000 -->
      <g transform="translate(16.770313 111.452719) scale(0.1 -0.1)">
       <use xlink:href="#DejaVuSans-2212"/>
       <use xlink:href="#DejaVuSans-31" x="83.789062"/>
       <use xlink:href="#DejaVuSans-30" x="147.412109"/>
       <use xlink:href="#DejaVuSans-30" x="211.035156"/>
       <use xlink:href="#DejaVuSans-30" x="274.658203"/>
      </g>
     </g>
    </g>
    <g id="ytick_7">
     <g id="line2d_27">
      <path d="M 57.6 71.695782 
L 414.72 71.695782 
" clip-path="url(#pa6d62d3ba4)" style="fill: none; stroke: #b0b0b0; stroke-width: 0.8; stroke-linecap: square"/>
     </g>
     <g id="line2d_28">
      <g>
       <use xlink:href="#m2907c793e6" x="57.6" y="71.695782" style="stroke: #000000; stroke-width: 0.8"/>
      </g>
     </g>
     <g id="text_15">
      <!-- −800 -->
      <g transform="translate(23.132812 75.495) scale(0.1 -0.1)">
       <use xlink:href="#DejaVuSans-2212"/>
       <use xlink:href="#DejaVuSans-38" x="83.789062"/>
       <use xlink:href="#DejaVuSans-30" x="147.412109"/>
       <use xlink:href="#DejaVuSans-30" x="211.035156"/>
      </g>
     </g>
    </g>
    <g id="text_16">
     <!-- Fitness -->
     <g transform="translate(10.690625 191.845187) rotate(-90) scale(0.1 -0.1)">
      <defs>
       <path id="DejaVuSans-46" d="M 628 4666 
L 3309 4666 
L 3309 4134 
L 1259 4134 
L 1259 2759 
L 3109 2759 
L 3109 2228 
L 1259 2228 
L 1259 0 
L 628 0 
L 628 4666 
z
" transform="scale(0.015625)"/>
      </defs>
      <use xlink:href="#DejaVuSans-46"/>
      <use xlink:href="#DejaVuSans-69" x="50.269531"/>
      <use xlink:href="#DejaVuSans-74" x="78.052734"/>
      <use xlink:href="#DejaVuSans-6e" x="117.261719"/>
      <use xlink:href="#DejaVuSans-65" x="180.640625"/>
      <use xlink:href="#DejaVuSans-73" x="242.164062"/>
      <use xlink:href="#DejaVuSans-73" x="294.263672"/>
     </g>
    </g>
   </g>
   <g id="line2d_29">
    <path d="M 73.832727 266.629081 
L 74.918528 259.275008 
L 76.00433 259.605154 
L 77.090131 259.699885 
L 78.175932 258.016726 
L 80.347534 258.595613 
L 81.433335 257.628628 
L 82.519137 257.745984 
L 83.604938 258.637894 
L 84.690739 257.881181 
L 85.77654 256.848808 
L 86.862341 257.470411 
L 87.948142 258.372622 
L 89.033943 257.080208 
L 90.119745 258.555744 
L 91.205546 257.732586 
L 92.291347 257.840244 
L 93.377148 255.036044 
L 94.462949 256.08212 
L 95.54875 256.816227 
L 96.634552 259.029755 
L 97.720353 258.104288 
L 98.806154 255.571264 
L 99.891955 257.098348 
L 100.977756 257.486042 
L 102.063557 256.418524 
L 103.149358 257.06099 
L 105.320961 254.472256 
L 106.406762 256.361636 
L 107.492563 255.634752 
L 108.578364 256.57343 
L 109.664165 256.553641 
L 110.749967 255.886677 
L 111.835768 254.521383 
L 112.921569 255.099744 
L 114.00737 254.403218 
L 115.093171 254.845946 
L 117.264773 256.32254 
L 119.436376 255.585126 
L 120.522177 255.605826 
L 121.607978 255.800606 
L 122.693779 254.938984 
L 123.77958 256.579096 
L 124.865382 256.7836 
L 125.951183 256.37608 
L 127.036984 256.268154 
L 128.122785 257.365265 
L 129.208586 256.650102 
L 130.294387 257.38729 
L 132.46599 255.433759 
L 133.551791 256.428003 
L 134.637592 255.650425 
L 135.723393 257.015785 
L 136.809194 257.787506 
L 137.894995 257.276052 
L 138.980797 257.876884 
L 140.066598 258.243772 
L 141.152399 257.730765 
L 142.2382 258.172027 
L 143.324001 257.995295 
L 144.409802 258.170218 
L 145.495604 258.048557 
L 147.667206 255.581369 
L 148.753007 257.85354 
L 149.838808 257.446275 
L 150.924609 257.758726 
L 152.01041 257.74653 
L 153.096212 258.053002 
L 154.182013 257.942284 
L 156.353615 256.161046 
L 157.439416 257.084492 
L 158.525217 257.491115 
L 159.611019 257.701108 
L 160.69682 257.421051 
L 161.782621 256.070196 
L 162.868422 256.931466 
L 163.954223 257.212514 
L 165.040024 257.768433 
L 166.125825 258.476771 
L 167.211627 257.746675 
L 168.297428 258.526854 
L 169.383229 257.873898 
L 170.46903 258.309748 
L 171.554831 257.834873 
L 172.640632 257.179847 
L 173.726434 256.778924 
L 174.812235 257.367693 
L 175.898036 256.908637 
L 176.983837 257.783579 
L 178.069638 257.932577 
L 179.155439 257.816457 
L 180.24124 257.450853 
L 181.327042 257.868001 
L 182.412843 258.562354 
L 183.498644 257.279075 
L 184.584445 256.972527 
L 185.670246 257.161701 
L 187.841849 258.020776 
L 188.92765 258.2297 
L 190.013451 257.734511 
L 191.099252 256.023846 
L 192.185053 255.104163 
L 193.270854 256.198832 
L 194.356656 256.555266 
L 195.442457 255.924119 
L 196.528258 257.043742 
L 197.614059 257.164013 
L 198.69986 256.684332 
L 199.785661 256.340078 
L 200.871462 255.440192 
L 201.957264 254.171002 
L 203.043065 254.77379 
L 204.128866 255.194663 
L 205.214667 256.993629 
L 206.300468 256.728283 
L 207.386269 257.005345 
L 208.472071 255.846855 
L 211.729474 255.586428 
L 212.815275 254.457269 
L 213.901076 255.830653 
L 214.986877 256.801505 
L 216.072679 255.851596 
L 217.15848 256.355169 
L 218.244281 255.791734 
L 219.330082 255.794751 
L 220.415883 255.400415 
L 221.501684 255.534569 
L 222.587486 254.133203 
L 223.673287 255.905716 
L 224.759088 255.407523 
L 225.844889 256.438287 
L 226.93069 255.609849 
L 228.016491 257.247262 
L 229.102292 257.57241 
L 230.188094 257.739971 
L 231.273895 256.603155 
L 232.359696 256.693904 
L 233.445497 257.943693 
L 234.531298 256.828704 
L 235.617099 256.820361 
L 236.702901 256.295855 
L 237.788702 256.720103 
L 238.874503 255.765364 
L 239.960304 256.265791 
L 241.046105 255.272503 
L 242.131906 256.498633 
L 243.217708 255.9284 
L 244.303509 255.974616 
L 245.38931 257.617937 
L 246.475111 255.980098 
L 247.560912 256.848128 
L 248.646713 256.899827 
L 249.732514 257.167162 
L 250.818316 256.508822 
L 251.904117 256.933836 
L 252.989918 256.093566 
L 254.075719 257.76885 
L 255.16152 257.587756 
L 256.247321 257.657674 
L 257.333123 257.068551 
L 258.418924 254.43614 
L 259.504725 256.366015 
L 260.590526 257.179403 
L 261.676327 255.857692 
L 262.762128 258.309706 
L 263.847929 258.055332 
L 264.933731 259.490727 
L 266.019532 257.771182 
L 267.105333 257.894017 
L 268.191134 256.635324 
L 269.276935 253.994871 
L 270.362736 256.851382 
L 271.448538 257.769153 
L 272.534339 256.944676 
L 273.62014 257.048915 
L 274.705941 256.080621 
L 275.791742 256.657289 
L 276.877543 255.547223 
L 277.963344 254.771033 
L 279.049146 257.013598 
L 280.134947 256.223591 
L 281.220748 257.943906 
L 282.306549 258.021127 
L 283.39235 257.561206 
L 284.478151 256.78447 
L 285.563953 258.348978 
L 286.649754 258.288169 
L 287.735555 258.534017 
L 288.821356 257.997338 
L 289.907157 256.627218 
L 290.992958 257.704469 
L 292.07876 256.996508 
L 293.164561 257.139586 
L 294.250362 257.0052 
L 295.336163 257.209414 
L 296.421964 255.921706 
L 297.507765 256.074793 
L 298.593566 253.902301 
L 299.679368 254.736453 
L 300.765169 257.449958 
L 301.85097 257.126234 
L 304.022572 257.352465 
L 305.108373 256.561097 
L 306.194175 258.077172 
L 307.279976 255.6623 
L 309.451578 255.760752 
L 310.537379 256.802023 
L 311.62318 256.855343 
L 312.708981 256.324154 
L 313.794783 257.183051 
L 314.880584 258.426184 
L 317.052186 257.316165 
L 318.137987 258.231002 
L 319.223788 258.00281 
L 320.30959 258.50148 
L 321.395391 258.018475 
L 322.481192 258.273793 
L 323.566993 256.464712 
L 324.652794 253.725308 
L 325.738595 256.89631 
L 326.824396 257.210285 
L 327.910198 258.444744 
L 328.995999 258.861654 
L 330.0818 257.776236 
L 331.167601 257.757088 
L 332.253402 258.548199 
L 333.339203 256.421607 
L 334.425005 257.436505 
L 335.510806 256.835005 
L 336.596607 258.273239 
L 337.682408 257.863448 
L 338.768209 258.468083 
L 339.85401 258.141498 
L 340.939811 257.952766 
L 342.025613 257.560116 
L 343.111414 257.340522 
L 344.197215 258.613795 
L 345.283016 258.407003 
L 346.368817 257.605068 
L 347.454618 256.099678 
L 348.54042 258.271036 
L 349.626221 257.598291 
L 350.712022 258.132572 
L 351.797823 257.894834 
L 352.883624 256.545608 
L 353.969425 256.383218 
L 355.055227 256.906128 
L 356.141028 256.430481 
L 357.226829 258.184537 
L 358.31263 257.631638 
L 360.484232 257.823884 
L 361.570033 256.377438 
L 362.655835 256.315806 
L 363.741636 256.012444 
L 364.827437 258.209481 
L 365.913238 257.364501 
L 366.999039 258.290959 
L 368.08484 257.131509 
L 369.170642 258.012103 
L 370.256443 256.284555 
L 371.342244 257.060809 
L 372.428045 256.199856 
L 373.513846 256.627185 
L 374.599647 256.596522 
L 375.685448 256.120882 
L 376.77125 257.4862 
L 377.857051 255.604861 
L 378.942852 256.467883 
L 380.028653 257.544256 
L 381.114454 256.254903 
L 382.200255 256.580981 
L 383.286057 257.834669 
L 384.371858 258.100302 
L 385.457659 257.372614 
L 386.54346 257.703928 
L 387.629261 255.825105 
L 388.715062 255.279138 
L 389.800863 257.790891 
L 390.886665 257.544075 
L 391.972466 258.065987 
L 393.058267 256.300978 
L 394.144068 256.512573 
L 395.229869 257.451982 
L 396.31567 257.89833 
L 397.401472 257.842816 
L 398.487273 255.616183 
L 398.487273 255.616183 
" clip-path="url(#pa6d62d3ba4)" style="fill: none; stroke: #0000ff; stroke-width: 1.5; stroke-linecap: square"/>
   </g>
   <g id="line2d_30">
    <path d="M 73.832727 295.488 
L 74.918528 291.97605 
L 76.00433 291.246051 
L 77.090131 288.589338 
L 78.175932 289.509336 
L 79.261733 286.038167 
L 80.347534 283.862776 
L 81.433335 278.783676 
L 82.519137 280.332871 
L 83.604938 279.369046 
L 84.690739 280.067345 
L 85.77654 278.39055 
L 86.862341 279.945434 
L 87.948142 280.095686 
L 89.033943 278.984286 
L 90.119745 281.103894 
L 91.205546 279.680583 
L 92.291347 279.694972 
L 93.377148 287.568924 
L 94.462949 287.180807 
L 95.54875 285.38522 
L 96.634552 281.948684 
L 97.720353 280.722 
L 98.806154 282.740879 
L 99.891955 285.306149 
L 102.063557 281.493141 
L 103.149358 282.648173 
L 104.23516 284.421154 
L 105.320961 287.13732 
L 106.406762 285.102305 
L 108.578364 285.631065 
L 109.664165 285.509821 
L 110.749967 287.814106 
L 111.835768 287.287278 
L 112.921569 287.415191 
L 114.00737 286.336941 
L 115.093171 287.456642 
L 116.178972 285.556429 
L 117.264773 286.577348 
L 118.350575 285.491519 
L 119.436376 287.396385 
L 120.522177 286.506158 
L 121.607978 284.175975 
L 122.693779 286.222205 
L 123.77958 285.550868 
L 124.865382 285.537381 
L 125.951183 285.045113 
L 127.036984 284.772128 
L 128.122785 283.131849 
L 129.208586 283.56073 
L 130.294387 282.463888 
L 131.380189 283.874772 
L 132.46599 286.220456 
L 133.551791 283.824169 
L 134.637592 282.98833 
L 135.723393 282.379684 
L 137.894995 280.798079 
L 138.980797 281.680764 
L 140.066598 279.349434 
L 141.152399 278.518602 
L 142.2382 279.156013 
L 143.324001 278.73085 
L 144.409802 279.072916 
L 145.495604 278.823012 
L 146.581405 280.076873 
L 147.667206 282.581653 
L 148.753007 278.641278 
L 149.838808 278.281481 
L 150.924609 278.624874 
L 152.01041 278.484493 
L 153.096212 278.771183 
L 154.182013 278.717113 
L 155.267814 284.783682 
L 156.353615 283.975798 
L 157.439416 280.889386 
L 159.611019 281.53658 
L 160.69682 280.970063 
L 161.782621 285.737114 
L 162.868422 285.097932 
L 163.954223 282.47847 
L 165.040024 278.501013 
L 166.125825 279.400895 
L 167.211627 278.142665 
L 168.297428 279.386353 
L 169.383229 278.27927 
L 170.46903 278.803088 
L 171.554831 278.672906 
L 172.640632 278.954511 
L 173.726434 282.191184 
L 174.812235 279.113578 
L 175.898036 279.656854 
L 176.983837 278.462989 
L 178.069638 278.988327 
L 179.155439 278.883475 
L 180.24124 278.425082 
L 181.327042 279.775952 
L 182.412843 279.058286 
L 183.498644 281.854519 
L 184.584445 281.891677 
L 185.670246 277.330686 
L 186.756047 279.16425 
L 187.841849 278.70358 
L 188.92765 279.248104 
L 190.013451 278.073724 
L 191.099252 284.881706 
L 192.185053 287.0704 
L 193.270854 284.430098 
L 194.356656 284.575933 
L 195.442457 283.707461 
L 196.528258 281.752742 
L 197.614059 282.048542 
L 198.69986 281.883577 
L 199.785661 283.252235 
L 200.871462 284.979145 
L 201.957264 287.004266 
L 203.043065 285.814948 
L 204.128866 285.724885 
L 205.214667 282.217463 
L 206.300468 282.7784 
L 207.386269 283.149314 
L 208.472071 283.252056 
L 209.557872 283.534004 
L 210.643673 283.251407 
L 211.729474 283.101925 
L 212.815275 285.683519 
L 213.901076 285.449127 
L 214.986877 283.55351 
L 217.15848 283.486722 
L 218.244281 286.505182 
L 219.330082 285.874883 
L 220.415883 285.769466 
L 221.501684 285.524229 
L 222.587486 285.729385 
L 223.673287 285.71424 
L 224.759088 285.377869 
L 225.844889 284.891325 
L 226.93069 283.702429 
L 228.016491 282.681102 
L 230.188094 283.323681 
L 231.273895 282.168748 
L 232.359696 282.447484 
L 233.445497 283.474566 
L 234.531298 281.796972 
L 235.617099 283.143953 
L 236.702901 284.97729 
L 237.788702 281.555237 
L 238.874503 286.501338 
L 239.960304 283.579544 
L 241.046105 285.97343 
L 242.131906 285.905113 
L 243.217708 285.474098 
L 244.303509 285.283886 
L 245.38931 283.818884 
L 246.475111 288.324851 
L 247.560912 285.308897 
L 248.646713 283.595966 
L 249.732514 284.2476 
L 250.818316 283.047461 
L 252.989918 285.956971 
L 254.075719 285.049915 
L 255.16152 284.972691 
L 256.247321 281.590807 
L 257.333123 281.898025 
L 258.418924 287.745143 
L 259.504725 284.879397 
L 260.590526 282.524056 
L 261.676327 284.847126 
L 262.762128 279.286405 
L 263.847929 279.05266 
L 264.933731 280.075842 
L 266.019532 282.875604 
L 267.105333 283.0328 
L 268.191134 286.017518 
L 269.276935 289.890727 
L 270.362736 284.146687 
L 271.448538 283.025388 
L 272.534339 282.39203 
L 273.62014 282.077739 
L 274.705941 285.083282 
L 275.791742 285.654858 
L 276.877543 284.231792 
L 277.963344 286.730544 
L 279.049146 282.177678 
L 280.134947 285.413854 
L 281.220748 279.174546 
L 282.306549 279.884075 
L 283.39235 278.810685 
L 284.478151 283.295491 
L 285.563953 281.709866 
L 286.649754 279.899492 
L 287.735555 280.545626 
L 288.821356 279.951721 
L 289.907157 287.842993 
L 290.992958 284.121577 
L 292.07876 283.036292 
L 293.164561 286.167362 
L 294.250362 282.64935 
L 295.336163 282.589695 
L 296.421964 285.374339 
L 297.507765 285.570292 
L 298.593566 292.384648 
L 299.679368 287.907864 
L 300.765169 282.668377 
L 301.85097 282.417095 
L 302.936771 283.02226 
L 304.022572 282.598277 
L 305.108373 285.910315 
L 306.194175 283.66255 
L 307.279976 282.901625 
L 308.365777 284.682181 
L 309.451578 286.853417 
L 310.537379 284.467531 
L 311.62318 284.596823 
L 312.708981 286.334377 
L 313.794783 280.726248 
L 314.880584 279.547456 
L 315.966385 279.788618 
L 318.137987 279.225099 
L 319.223788 278.990793 
L 320.30959 279.711297 
L 321.395391 279.079073 
L 322.481192 279.45745 
L 324.652794 288.976683 
L 325.738595 282.233664 
L 326.824396 282.911074 
L 327.910198 279.584821 
L 328.995999 280.030042 
L 330.0818 281.951678 
L 331.167601 280.393365 
L 332.253402 279.692182 
L 333.339203 285.522172 
L 334.425005 281.79515 
L 335.510806 284.433553 
L 336.596607 279.39394 
L 337.682408 278.862962 
L 338.768209 279.805402 
L 339.85401 279.875348 
L 340.939811 279.574051 
L 342.025613 278.366355 
L 343.111414 278.834135 
L 344.197215 279.703624 
L 345.283016 279.472951 
L 346.368817 282.421637 
L 347.454618 284.117274 
L 348.54042 279.346709 
L 349.626221 278.477553 
L 350.712022 279.113452 
L 351.797823 278.950038 
L 352.883624 281.889043 
L 353.969425 281.788857 
L 355.055227 280.210969 
L 356.141028 281.042278 
L 357.226829 279.393477 
L 358.31263 279.906255 
L 359.398431 278.83151 
L 360.484232 278.788882 
L 361.570033 285.388892 
L 362.655835 283.625208 
L 363.741636 282.729227 
L 364.827437 279.267789 
L 365.913238 278.201896 
L 366.999039 279.345729 
L 368.08484 277.832949 
L 369.170642 279.150473 
L 370.256443 286.663832 
L 371.342244 278.414529 
L 372.428045 281.696906 
L 373.513846 282.226006 
L 374.599647 281.378934 
L 375.685448 281.279388 
L 376.77125 278.093481 
L 377.857051 282.37387 
L 378.942852 278.166238 
L 380.028653 278.136624 
L 381.114454 281.342172 
L 382.200255 281.551514 
L 383.286057 278.686641 
L 384.371858 279.088484 
L 385.457659 281.82127 
L 386.54346 278.477063 
L 387.629261 284.570456 
L 388.715062 285.830529 
L 389.800863 278.882197 
L 390.886665 278.516427 
L 391.972466 279.164639 
L 393.058267 280.002279 
L 394.144068 281.799627 
L 395.229869 278.341647 
L 396.31567 279.080911 
L 397.401472 278.905153 
L 398.487273 284.30387 
L 398.487273 284.30387 
" clip-path="url(#pa6d62d3ba4)" style="fill: none; stroke-dasharray: 9.6,2.4,1.5,2.4; stroke-dashoffset: 0; stroke: #008000; stroke-width: 1.5"/>
   </g>
   <g id="line2d_31">
    <path d="M 73.832727 237.770162 
L 74.918528 226.573966 
L 76.00433 227.964258 
L 77.090131 230.810433 
L 78.175932 226.524116 
L 79.261733 230.650974 
L 80.347534 233.32845 
L 81.433335 236.47358 
L 82.519137 235.159097 
L 83.604938 237.906743 
L 84.690739 235.695017 
L 86.862341 234.995389 
L 87.948142 236.649558 
L 89.033943 235.176129 
L 90.119745 236.007594 
L 91.205546 235.784589 
L 92.291347 235.985515 
L 93.377148 222.503164 
L 94.462949 224.983433 
L 95.54875 228.247233 
L 96.634552 236.110827 
L 97.720353 235.486576 
L 98.806154 228.401648 
L 99.891955 228.890547 
L 100.977756 231.492851 
L 102.063557 231.343907 
L 103.149358 231.473806 
L 104.23516 227.249981 
L 105.320961 221.807192 
L 106.406762 227.620968 
L 107.492563 225.851713 
L 108.578364 227.515795 
L 109.664165 227.597461 
L 110.749967 223.959247 
L 111.835768 221.755489 
L 112.921569 222.784297 
L 115.093171 222.23525 
L 116.178972 225.525587 
L 117.264773 226.067731 
L 118.350575 226.438807 
L 119.436376 223.773866 
L 120.522177 224.705493 
L 121.607978 227.425237 
L 122.693779 223.655763 
L 123.77958 227.607324 
L 124.865382 228.029818 
L 125.951183 227.707048 
L 127.036984 227.76418 
L 128.122785 231.598682 
L 129.208586 229.739475 
L 130.294387 232.310692 
L 131.380189 229.039749 
L 132.46599 224.647062 
L 133.551791 229.031836 
L 134.637592 228.31252 
L 135.723393 231.651885 
L 136.809194 233.963205 
L 137.894995 233.754025 
L 138.980797 234.073003 
L 140.066598 237.138109 
L 141.152399 236.942929 
L 142.2382 237.188041 
L 144.409802 237.267519 
L 145.495604 237.274102 
L 146.581405 233.554911 
L 147.667206 228.581084 
L 148.753007 237.065802 
L 149.838808 236.611068 
L 150.924609 236.892578 
L 152.01041 237.008567 
L 153.096212 237.334821 
L 154.182013 237.167456 
L 155.267814 229.31104 
L 156.353615 228.346294 
L 157.439416 233.279598 
L 158.525217 233.797184 
L 160.69682 233.872039 
L 161.782621 226.403277 
L 162.868422 228.765001 
L 163.954223 231.946558 
L 165.040024 237.035853 
L 166.125825 237.552647 
L 167.211627 237.350685 
L 168.297428 237.667355 
L 169.383229 237.468526 
L 170.46903 237.816408 
L 171.554831 236.99684 
L 172.640632 235.405184 
L 173.726434 231.366663 
L 174.812235 235.621807 
L 175.898036 234.160419 
L 176.983837 237.104168 
L 180.24124 236.476624 
L 181.327042 235.96005 
L 182.412843 238.066422 
L 183.498644 232.703631 
L 184.584445 232.053377 
L 185.670246 236.992716 
L 186.756047 236.094735 
L 187.841849 237.337972 
L 188.92765 237.211295 
L 190.013451 237.395297 
L 191.099252 227.165985 
L 192.185053 223.137927 
L 193.270854 227.967566 
L 194.356656 228.5346 
L 195.442457 228.140776 
L 196.528258 232.334742 
L 197.614059 232.279483 
L 198.69986 231.485086 
L 199.785661 229.42792 
L 200.871462 225.901238 
L 201.957264 221.337737 
L 203.043065 223.732632 
L 204.128866 224.664441 
L 205.214667 231.769795 
L 206.300468 230.678166 
L 207.386269 230.861376 
L 208.472071 228.441654 
L 209.557872 227.998701 
L 210.643673 228.293525 
L 211.729474 228.07093 
L 212.815275 223.231019 
L 213.901076 226.212179 
L 214.986877 230.0495 
L 216.072679 228.224431 
L 217.15848 229.223616 
L 218.244281 225.078286 
L 219.330082 225.71462 
L 220.415883 225.031364 
L 221.501684 225.544909 
L 222.587486 222.53702 
L 223.673287 226.097192 
L 224.759088 225.437176 
L 225.844889 227.98525 
L 226.93069 227.517269 
L 228.016491 231.813422 
L 229.102292 232.150029 
L 230.188094 232.156261 
L 231.273895 231.037562 
L 232.359696 230.940324 
L 233.445497 232.41282 
L 234.531298 231.860435 
L 235.617099 230.49677 
L 236.702901 227.614421 
L 237.788702 231.884968 
L 238.874503 225.029391 
L 239.960304 228.952038 
L 241.046105 224.571576 
L 242.131906 227.092153 
L 243.217708 226.382703 
L 244.303509 226.665345 
L 245.38931 231.41699 
L 246.475111 223.635345 
L 247.560912 228.38736 
L 248.646713 230.203687 
L 250.818316 229.970184 
L 251.904117 229.369117 
L 252.989918 226.23016 
L 254.075719 230.487785 
L 255.16152 230.202822 
L 256.247321 233.724541 
L 257.333123 232.239077 
L 258.418924 221.127137 
L 259.504725 227.852634 
L 260.590526 231.834751 
L 261.676327 226.868257 
L 262.762128 237.333007 
L 263.847929 237.058004 
L 264.933731 238.905612 
L 266.019532 232.666759 
L 267.105333 232.755234 
L 268.191134 227.25313 
L 269.276935 218.099015 
L 270.362736 229.556076 
L 271.448538 232.512918 
L 272.534339 231.497322 
L 273.62014 232.020091 
L 274.705941 227.07796 
L 275.791742 227.659721 
L 276.877543 226.862654 
L 277.963344 222.811521 
L 279.049146 231.849518 
L 280.134947 227.033328 
L 281.220748 236.713266 
L 282.306549 236.158178 
L 283.39235 236.311728 
L 284.478151 230.27345 
L 285.563953 234.98809 
L 286.649754 236.676846 
L 287.735555 236.522408 
L 288.821356 236.042955 
L 289.907157 225.411442 
L 290.992958 231.287361 
L 292.07876 230.956725 
L 293.164561 228.11181 
L 294.250362 231.36105 
L 295.336163 231.829132 
L 296.421964 226.469073 
L 297.507765 226.579295 
L 298.593566 215.419954 
L 299.679368 221.565042 
L 300.765169 232.23154 
L 302.936771 231.485997 
L 304.022572 232.106654 
L 305.108373 227.211879 
L 306.194175 232.491794 
L 307.279976 228.422976 
L 309.451578 224.668087 
L 310.537379 229.136516 
L 311.62318 229.113863 
L 312.708981 226.313931 
L 313.794783 233.639854 
L 314.880584 237.304912 
L 315.966385 235.921168 
L 317.052186 235.178069 
L 318.137987 237.236904 
L 319.223788 237.014827 
L 320.30959 237.291663 
L 321.395391 236.957877 
L 322.481192 237.090136 
L 323.566993 228.838797 
L 324.652794 218.473932 
L 325.738595 231.558955 
L 326.824396 231.509496 
L 327.910198 237.304668 
L 328.995999 237.693267 
L 330.0818 233.600795 
L 331.167601 235.120811 
L 332.253402 237.404216 
L 333.339203 227.321042 
L 334.425005 233.07786 
L 335.510806 229.236457 
L 336.596607 237.152537 
L 337.682408 236.863933 
L 338.768209 237.130764 
L 339.85401 236.407649 
L 340.939811 236.33148 
L 342.025613 236.753878 
L 343.111414 235.846909 
L 344.197215 237.523966 
L 345.283016 237.341055 
L 347.454618 228.082082 
L 348.54042 237.195364 
L 349.626221 236.719029 
L 350.712022 237.151693 
L 351.797823 236.83963 
L 352.883624 231.202173 
L 353.969425 230.977579 
L 355.055227 233.601287 
L 356.141028 231.818683 
L 357.226829 236.975598 
L 358.31263 235.35702 
L 359.398431 236.697452 
L 360.484232 236.858886 
L 361.570033 227.365984 
L 362.655835 229.006404 
L 363.741636 229.29566 
L 364.827437 237.151173 
L 365.913238 236.527106 
L 366.999039 237.236189 
L 368.08484 236.43007 
L 369.170642 236.873732 
L 370.256443 225.905279 
L 371.342244 235.70709 
L 372.428045 230.702805 
L 373.513846 231.028363 
L 374.599647 231.81411 
L 375.685448 230.962376 
L 376.77125 236.878918 
L 377.857051 228.835853 
L 378.942852 234.769527 
L 380.028653 236.951888 
L 381.114454 231.167634 
L 382.200255 231.610449 
L 383.286057 236.982697 
L 384.371858 237.112119 
L 385.457659 232.923958 
L 386.54346 236.930793 
L 387.629261 227.079755 
L 388.715062 224.727746 
L 389.800863 236.699584 
L 390.886665 236.571723 
L 391.972466 236.967336 
L 393.058267 232.599676 
L 394.144068 231.22552 
L 395.229869 236.562317 
L 397.401472 236.780479 
L 398.487273 226.928496 
L 398.487273 226.928496 
" clip-path="url(#pa6d62d3ba4)" style="fill: none; stroke-dasharray: 9.6,2.4,1.5,2.4; stroke-dashoffset: 0; stroke: #008000; stroke-width: 1.5"/>
   </g>
   <g id="line2d_32">
    <path d="M 73.832727 57.460457 
L 109.664165 57.460457 
L 110.749967 56.701728 
L 133.551791 56.701728 
L 134.637592 56.104831 
L 154.182013 56.104831 
L 155.267814 55.015305 
L 276.877543 55.015305 
L 277.963344 54.315924 
L 279.049146 54.315924 
L 280.134947 53.568 
L 398.487273 53.568 
L 398.487273 53.568 
" clip-path="url(#pa6d62d3ba4)" style="fill: none; stroke: #ff0000; stroke-width: 1.5; stroke-linecap: square"/>
   </g>
   <g id="patch_3">
    <path d="M 57.6 307.584 
L 57.6 41.472 
" style="fill: none; stroke: #000000; stroke-width: 0.8; stroke-linejoin: miter; stroke-linecap: square"/>
   </g>
   <g id="patch_4">
    <path d="M 414.72 307.584 
L 414.72 41.472 
" style="fill: none; stroke: #000000; stroke-width: 0.8; stroke-linejoin: miter; stroke-linecap: square"/>
   </g>
   <g id="patch_5">
    <path d="M 57.6 307.584 
L 414.72 307.584 
" style="fill: none; stroke: #000000; stroke-width: 0.8; stroke-linejoin: miter; stroke-linecap: square"/>
   </g>
   <g id="patch_6">
    <path d="M 57.6 41.472 
L 414.72 41.472 
" style="fill: none; stroke: #000000; stroke-width: 0.8; stroke-linejoin: miter; stroke-linecap: square"/>
   </g>
   <g id="text_17">
    <!-- Population's average and best fitness -->
    <g transform="translate(123.529687 35.472) scale(0.12 -0.12)">
     <defs>
      <path id="DejaVuSans-50" d="M 1259 4147 
L 1259 2394 
L 2053 2394 
Q 2494 2394 2734 2622 
Q 2975 2850 2975 3272 
Q 2975 3691 2734 3919 
Q 2494 4147 2053 4147 
L 1259 4147 
z
M 628 4666 
L 2053 4666 
Q 2838 4666 3239 4311 
Q 3641 3956 3641 3272 
Q 3641 2581 3239 2228 
Q 2838 1875 2053 1875 
L 1259 1875 
L 1259 0 
L 628 0 
L 628 4666 
z
" transform="scale(0.015625)"/>
      <path id="DejaVuSans-70" d="M 1159 525 
L 1159 -1331 
L 581 -1331 
L 581 3500 
L 1159 3500 
L 1159 2969 
Q 1341 3281 1617 3432 
Q 1894 3584 2278 3584 
Q 2916 3584 3314 3078 
Q 3713 2572 3713 1747 
Q 3713 922 3314 415 
Q 2916 -91 2278 -91 
Q 1894 -91 1617 61 
Q 1341 213 1159 525 
z
M 3116 1747 
Q 3116 2381 2855 2742 
Q 2594 3103 2138 3103 
Q 1681 3103 1420 2742 
Q 1159 2381 1159 1747 
Q 1159 1113 1420 752 
Q 1681 391 2138 391 
Q 2594 391 2855 752 
Q 3116 1113 3116 1747 
z
" transform="scale(0.015625)"/>
      <path id="DejaVuSans-75" d="M 544 1381 
L 544 3500 
L 1119 3500 
L 1119 1403 
Q 1119 906 1312 657 
Q 1506 409 1894 409 
Q 2359 409 2629 706 
Q 2900 1003 2900 1516 
L 2900 3500 
L 3475 3500 
L 3475 0 
L 2900 0 
L 2900 538 
Q 2691 219 2414 64 
Q 2138 -91 1772 -91 
Q 1169 -91 856 284 
Q 544 659 544 1381 
z
M 1991 3584 
L 1991 3584 
z
" transform="scale(0.015625)"/>
      <path id="DejaVuSans-6c" d="M 603 4863 
L 1178 4863 
L 1178 0 
L 603 0 
L 603 4863 
z
" transform="scale(0.015625)"/>
      <path id="DejaVuSans-27" d="M 1147 4666 
L 1147 2931 
L 616 2931 
L 616 4666 
L 1147 4666 
z
" transform="scale(0.015625)"/>
      <path id="DejaVuSans-20" transform="scale(0.015625)"/>
      <path id="DejaVuSans-76" d="M 191 3500 
L 800 3500 
L 1894 563 
L 2988 3500 
L 3597 3500 
L 2284 0 
L 1503 0 
L 191 3500 
z
" transform="scale(0.015625)"/>
      <path id="DejaVuSans-67" d="M 2906 1791 
Q 2906 2416 2648 2759 
Q 2391 3103 1925 3103 
Q 1463 3103 1205 2759 
Q 947 2416 947 1791 
Q 947 1169 1205 825 
Q 1463 481 1925 481 
Q 2391 481 2648 825 
Q 2906 1169 2906 1791 
z
M 3481 434 
Q 3481 -459 3084 -895 
Q 2688 -1331 1869 -1331 
Q 1566 -1331 1297 -1286 
Q 1028 -1241 775 -1147 
L 775 -588 
Q 1028 -725 1275 -790 
Q 1522 -856 1778 -856 
Q 2344 -856 2625 -561 
Q 2906 -266 2906 331 
L 2906 616 
Q 2728 306 2450 153 
Q 2172 0 1784 0 
Q 1141 0 747 490 
Q 353 981 353 1791 
Q 353 2603 747 3093 
Q 1141 3584 1784 3584 
Q 2172 3584 2450 3431 
Q 2728 3278 2906 2969 
L 2906 3500 
L 3481 3500 
L 3481 434 
z
" transform="scale(0.015625)"/>
      <path id="DejaVuSans-64" d="M 2906 2969 
L 2906 4863 
L 3481 4863 
L 3481 0 
L 2906 0 
L 2906 525 
Q 2725 213 2448 61 
Q 2172 -91 1784 -91 
Q 1150 -91 751 415 
Q 353 922 353 1747 
Q 353 2572 751 3078 
Q 1150 3584 1784 3584 
Q 2172 3584 2448 3432 
Q 2725 3281 2906 2969 
z
M 947 1747 
Q 947 1113 1208 752 
Q 1469 391 1925 391 
Q 2381 391 2643 752 
Q 2906 1113 2906 1747 
Q 2906 2381 2643 2742 
Q 2381 3103 1925 3103 
Q 1469 3103 1208 2742 
Q 947 2381 947 1747 
z
" transform="scale(0.015625)"/>
      <path id="DejaVuSans-62" d="M 3116 1747 
Q 3116 2381 2855 2742 
Q 2594 3103 2138 3103 
Q 1681 3103 1420 2742 
Q 1159 2381 1159 1747 
Q 1159 1113 1420 752 
Q 1681 391 2138 391 
Q 2594 391 2855 752 
Q 3116 1113 3116 1747 
z
M 1159 2969 
Q 1341 3281 1617 3432 
Q 1894 3584 2278 3584 
Q 2916 3584 3314 3078 
Q 3713 2572 3713 1747 
Q 3713 922 3314 415 
Q 2916 -91 2278 -91 
Q 1894 -91 1617 61 
Q 1341 213 1159 525 
L 1159 0 
L 581 0 
L 581 4863 
L 1159 4863 
L 1159 2969 
z
" transform="scale(0.015625)"/>
      <path id="DejaVuSans-66" d="M 2375 4863 
L 2375 4384 
L 1825 4384 
Q 1516 4384 1395 4259 
Q 1275 4134 1275 3809 
L 1275 3500 
L 2222 3500 
L 2222 3053 
L 1275 3053 
L 1275 0 
L 697 0 
L 697 3053 
L 147 3053 
L 147 3500 
L 697 3500 
L 697 3744 
Q 697 4328 969 4595 
Q 1241 4863 1831 4863 
L 2375 4863 
z
" transform="scale(0.015625)"/>
     </defs>
     <use xlink:href="#DejaVuSans-50"/>
     <use xlink:href="#DejaVuSans-6f" x="56.677734"/>
     <use xlink:href="#DejaVuSans-70" x="117.859375"/>
     <use xlink:href="#DejaVuSans-75" x="181.335938"/>
     <use xlink:href="#DejaVuSans-6c" x="244.714844"/>
     <use xlink:href="#DejaVuSans-61" x="272.498047"/>
     <use xlink:href="#DejaVuSans-74" x="333.777344"/>
     <use xlink:href="#DejaVuSans-69" x="372.986328"/>
     <use xlink:href="#DejaVuSans-6f" x="400.769531"/>
     <use xlink:href="#DejaVuSans-6e" x="461.951172"/>
     <use xlink:href="#DejaVuSans-27" x="525.330078"/>
     <use xlink:href="#DejaVuSans-73" x="552.820312"/>
     <use xlink:href="#DejaVuSans-20" x="604.919922"/>
     <use xlink:href="#DejaVuSans-61" x="636.707031"/>
     <use xlink:href="#DejaVuSans-76" x="697.986328"/>
     <use xlink:href="#DejaVuSans-65" x="757.166016"/>
     <use xlink:href="#DejaVuSans-72" x="818.689453"/>
     <use xlink:href="#DejaVuSans-61" x="859.802734"/>
     <use xlink:href="#DejaVuSans-67" x="921.082031"/>
     <use xlink:href="#DejaVuSans-65" x="984.558594"/>
     <use xlink:href="#DejaVuSans-20" x="1046.082031"/>
     <use xlink:href="#DejaVuSans-61" x="1077.869141"/>
     <use xlink:href="#DejaVuSans-6e" x="1139.148438"/>
     <use xlink:href="#DejaVuSans-64" x="1202.527344"/>
     <use xlink:href="#DejaVuSans-20" x="1266.003906"/>
     <use xlink:href="#DejaVuSans-62" x="1297.791016"/>
     <use xlink:href="#DejaVuSans-65" x="1361.267578"/>
     <use xlink:href="#DejaVuSans-73" x="1422.791016"/>
     <use xlink:href="#DejaVuSans-74" x="1474.890625"/>
     <use xlink:href="#DejaVuSans-20" x="1514.099609"/>
     <use xlink:href="#DejaVuSans-66" x="1545.886719"/>
     <use xlink:href="#DejaVuSans-69" x="1581.091797"/>
     <use xlink:href="#DejaVuSans-74" x="1608.875"/>
     <use xlink:href="#DejaVuSans-6e" x="1648.083984"/>
     <use xlink:href="#DejaVuSans-65" x="1711.462891"/>
     <use xlink:href="#DejaVuSans-73" x="1772.986328"/>
     <use xlink:href="#DejaVuSans-73" x="1825.085938"/>
    </g>
   </g>
   <g id="legend_1">
    <g id="patch_7">
     <path d="M 334.779375 205.38425 
L 407.72 205.38425 
Q 409.72 205.38425 409.72 203.38425 
L 409.72 145.67175 
Q 409.72 143.67175 407.72 143.67175 
L 334.779375 143.67175 
Q 332.779375 143.67175 332.779375 145.67175 
L 332.779375 203.38425 
Q 332.779375 205.38425 334.779375 205.38425 
z
" style="fill: #ffffff; opacity: 0.8; stroke: #cccccc; stroke-linejoin: miter"/>
    </g>
    <g id="line2d_33">
     <path d="M 336.779375 151.770188 
L 346.779375 151.770188 
L 356.779375 151.770188 
" style="fill: none; stroke: #0000ff; stroke-width: 1.5; stroke-linecap: square"/>
    </g>
    <g id="text_18">
     <!-- average -->
     <g transform="translate(364.779375 155.270188) scale(0.1 -0.1)">
      <use xlink:href="#DejaVuSans-61"/>
      <use xlink:href="#DejaVuSans-76" x="61.279297"/>
      <use xlink:href="#DejaVuSans-65" x="120.458984"/>
      <use xlink:href="#DejaVuSans-72" x="181.982422"/>
      <use xlink:href="#DejaVuSans-61" x="223.095703"/>
      <use xlink:href="#DejaVuSans-67" x="284.375"/>
      <use xlink:href="#DejaVuSans-65" x="347.851562"/>
     </g>
    </g>
    <g id="line2d_34">
     <path d="M 336.779375 166.448313 
L 346.779375 166.448313 
L 356.779375 166.448313 
" style="fill: none; stroke-dasharray: 9.6,2.4,1.5,2.4; stroke-dashoffset: 0; stroke: #008000; stroke-width: 1.5"/>
    </g>
    <g id="text_19">
     <!-- -1 sd -->
     <g transform="translate(364.779375 169.948313) scale(0.1 -0.1)">
      <defs>
       <path id="DejaVuSans-2d" d="M 313 2009 
L 1997 2009 
L 1997 1497 
L 313 1497 
L 313 2009 
z
" transform="scale(0.015625)"/>
      </defs>
      <use xlink:href="#DejaVuSans-2d"/>
      <use xlink:href="#DejaVuSans-31" x="36.083984"/>
      <use xlink:href="#DejaVuSans-20" x="99.707031"/>
      <use xlink:href="#DejaVuSans-73" x="131.494141"/>
      <use xlink:href="#DejaVuSans-64" x="183.59375"/>
     </g>
    </g>
    <g id="line2d_35">
     <path d="M 336.779375 181.126438 
L 346.779375 181.126438 
L 356.779375 181.126438 
" style="fill: none; stroke-dasharray: 9.6,2.4,1.5,2.4; stroke-dashoffset: 0; stroke: #008000; stroke-width: 1.5"/>
    </g>
    <g id="text_20">
     <!-- +1 sd -->
     <g transform="translate(364.779375 184.626438) scale(0.1 -0.1)">
      <defs>
       <path id="DejaVuSans-2b" d="M 2944 4013 
L 2944 2272 
L 4684 2272 
L 4684 1741 
L 2944 1741 
L 2944 0 
L 2419 0 
L 2419 1741 
L 678 1741 
L 678 2272 
L 2419 2272 
L 2419 4013 
L 2944 4013 
z
" transform="scale(0.015625)"/>
      </defs>
      <use xlink:href="#DejaVuSans-2b"/>
      <use xlink:href="#DejaVuSans-31" x="83.789062"/>
      <use xlink:href="#DejaVuSans-20" x="147.412109"/>
      <use xlink:href="#DejaVuSans-73" x="179.199219"/>
      <use xlink:href="#DejaVuSans-64" x="231.298828"/>
     </g>
    </g>
    <g id="line2d_36">
     <path d="M 336.779375 195.804563 
L 346.779375 195.804563 
L 356.779375 195.804563 
" style="fill: none; stroke: #ff0000; stroke-width: 1.5; stroke-linecap: square"/>
    </g>
    <g id="text_21">
     <!-- best -->
     <g transform="translate(364.779375 199.304563) scale(0.1 -0.1)">
      <use xlink:href="#DejaVuSans-62"/>
      <use xlink:href="#DejaVuSans-65" x="63.476562"/>
      <use xlink:href="#DejaVuSans-73" x="125"/>
      <use xlink:href="#DejaVuSans-74" x="177.099609"/>
     </g>
    </g>
   </g>
  </g>
 </g>
 <defs>
  <clipPath id="pa6d62d3ba4">
   <rect x="57.6" y="41.472" width="357.12" height="266.112"/>
  </clipPath>
 </defs>
</svg>
