<?xml version="1.0" encoding="utf-8" standalone="no"?>
<!DOCTYPE svg PUBLIC "-//W3C//DTD SVG 1.1//EN"
  "http://www.w3.org/Graphics/SVG/1.1/DTD/svg11.dtd">
<svg xmlns:xlink="http://www.w3.org/1999/xlink" width="460.8pt" height="345.6pt" viewBox="0 0 460.8 345.6" xmlns="http://www.w3.org/2000/svg" version="1.1">
 <metadata>
  <rdf:RDF xmlns:dc="http://purl.org/dc/elements/1.1/" xmlns:cc="http://creativecommons.org/ns#" xmlns:rdf="http://www.w3.org/1999/02/22-rdf-syntax-ns#">
   <cc:Work>
    <dc:type rdf:resource="http://purl.org/dc/dcmitype/StillImage"/>
    <dc:date>2024-08-08T20:46:25.705952</dc:date>
    <dc:format>image/svg+xml</dc:format>
    <dc:creator>
     <cc:Agent>
      <dc:title>Matplotlib v3.8.4, https://matplotlib.org/</dc:title>
     </cc:Agent>
    </dc:creator>
   </cc:Work>
  </rdf:RDF>
 </metadata>
 <defs>
  <style type="text/css">*{stroke-linejoin: round; stroke-linecap: butt}</style>
 </defs>
 <g id="figure_1">
  <g id="patch_1">
   <path d="M 0 345.6 
L 460.8 345.6 
L 460.8 0 
L 0 0 
z
" style="fill: #ffffff"/>
  </g>
  <g id="axes_1">
   <g id="patch_2">
    <path d="M 57.6 307.584 
L 414.72 307.584 
L 414.72 41.472 
L 57.6 41.472 
z
" style="fill: #ffffff"/>
   </g>
   <g id="matplotlib.axis_1">
    <g id="xtick_1">
     <g id="line2d_1">
      <path d="M 73.832727 307.584 
L 73.832727 41.472 
" clip-path="url(#pdafddc9d8f)" style="fill: none; stroke: #b0b0b0; stroke-width: 0.8; stroke-linecap: square"/>
     </g>
     <g id="line2d_2">
      <defs>
       <path id="m2d94c22b87" d="M 0 0 
L 0 3.5 
" style="stroke: #000000; stroke-width: 0.8"/>
      </defs>
      <g>
       <use xlink:href="#m2d94c22b87" x="73.832727" y="307.584" style="stroke: #000000; stroke-width: 0.8"/>
      </g>
     </g>
     <g id="text_1">
      <!-- 0 -->
      <g transform="translate(70.651477 322.182437) scale(0.1 -0.1)">
       <defs>
        <path id="DejaVuSans-30" d="M 2034 4250 
Q 1547 4250 1301 3770 
Q 1056 3291 1056 2328 
Q 1056 1369 1301 889 
Q 1547 409 2034 409 
Q 2525 409 2770 889 
Q 3016 1369 3016 2328 
Q 3016 3291 2770 3770 
Q 2525 4250 2034 4250 
z
M 2034 4750 
Q 2819 4750 3233 4129 
Q 3647 3509 3647 2328 
Q 3647 1150 3233 529 
Q 2819 -91 2034 -91 
Q 1250 -91 836 529 
Q 422 1150 422 2328 
Q 422 3509 836 4129 
Q 1250 4750 2034 4750 
z
" transform="scale(0.015625)"/>
       </defs>
       <use xlink:href="#DejaVuSans-30"/>
      </g>
     </g>
    </g>
    <g id="xtick_2">
     <g id="line2d_3">
      <path d="M 114.618474 307.584 
L 114.618474 41.472 
" clip-path="url(#pdafddc9d8f)" style="fill: none; stroke: #b0b0b0; stroke-width: 0.8; stroke-linecap: square"/>
     </g>
     <g id="line2d_4">
      <g>
       <use xlink:href="#m2d94c22b87" x="114.618474" y="307.584" style="stroke: #000000; stroke-width: 0.8"/>
      </g>
     </g>
     <g id="text_2">
      <!-- 25 -->
      <g transform="translate(108.255974 322.182437) scale(0.1 -0.1)">
       <defs>
        <path id="DejaVuSans-32" d="M 1228 531 
L 3431 531 
L 3431 0 
L 469 0 
L 469 531 
Q 828 903 1448 1529 
Q 2069 2156 2228 2338 
Q 2531 2678 2651 2914 
Q 2772 3150 2772 3378 
Q 2772 3750 2511 3984 
Q 2250 4219 1831 4219 
Q 1534 4219 1204 4116 
Q 875 4013 500 3803 
L 500 4441 
Q 881 4594 1212 4672 
Q 1544 4750 1819 4750 
Q 2544 4750 2975 4387 
Q 3406 4025 3406 3419 
Q 3406 3131 3298 2873 
Q 3191 2616 2906 2266 
Q 2828 2175 2409 1742 
Q 1991 1309 1228 531 
z
" transform="scale(0.015625)"/>
        <path id="DejaVuSans-35" d="M 691 4666 
L 3169 4666 
L 3169 4134 
L 1269 4134 
L 1269 2991 
Q 1406 3038 1543 3061 
Q 1681 3084 1819 3084 
Q 2600 3084 3056 2656 
Q 3513 2228 3513 1497 
Q 3513 744 3044 326 
Q 2575 -91 1722 -91 
Q 1428 -91 1123 -41 
Q 819 9 494 109 
L 494 744 
Q 775 591 1075 516 
Q 1375 441 1709 441 
Q 2250 441 2565 725 
Q 2881 1009 2881 1497 
Q 2881 1984 2565 2268 
Q 2250 2553 1709 2553 
Q 1456 2553 1204 2497 
Q 953 2441 691 2322 
L 691 4666 
z
" transform="scale(0.015625)"/>
       </defs>
       <use xlink:href="#DejaVuSans-32"/>
       <use xlink:href="#DejaVuSans-35" x="63.623047"/>
      </g>
     </g>
    </g>
    <g id="xtick_3">
     <g id="line2d_5">
      <path d="M 155.404221 307.584 
L 155.404221 41.472 
" clip-path="url(#pdafddc9d8f)" style="fill: none; stroke: #b0b0b0; stroke-width: 0.8; stroke-linecap: square"/>
     </g>
     <g id="line2d_6">
      <g>
       <use xlink:href="#m2d94c22b87" x="155.404221" y="307.584" style="stroke: #000000; stroke-width: 0.8"/>
      </g>
     </g>
     <g id="text_3">
      <!-- 50 -->
      <g transform="translate(149.041721 322.182437) scale(0.1 -0.1)">
       <use xlink:href="#DejaVuSans-35"/>
       <use xlink:href="#DejaVuSans-30" x="63.623047"/>
      </g>
     </g>
    </g>
    <g id="xtick_4">
     <g id="line2d_7">
      <path d="M 196.189968 307.584 
L 196.189968 41.472 
" clip-path="url(#pdafddc9d8f)" style="fill: none; stroke: #b0b0b0; stroke-width: 0.8; stroke-linecap: square"/>
     </g>
     <g id="line2d_8">
      <g>
       <use xlink:href="#m2d94c22b87" x="196.189968" y="307.584" style="stroke: #000000; stroke-width: 0.8"/>
      </g>
     </g>
     <g id="text_4">
      <!-- 75 -->
      <g transform="translate(189.827468 322.182437) scale(0.1 -0.1)">
       <defs>
        <path id="DejaVuSans-37" d="M 525 4666 
L 3525 4666 
L 3525 4397 
L 1831 0 
L 1172 0 
L 2766 4134 
L 525 4134 
L 525 4666 
z
" transform="scale(0.015625)"/>
       </defs>
       <use xlink:href="#DejaVuSans-37"/>
       <use xlink:href="#DejaVuSans-35" x="63.623047"/>
      </g>
     </g>
    </g>
    <g id="xtick_5">
     <g id="line2d_9">
      <path d="M 236.975715 307.584 
L 236.975715 41.472 
" clip-path="url(#pdafddc9d8f)" style="fill: none; stroke: #b0b0b0; stroke-width: 0.8; stroke-linecap: square"/>
     </g>
     <g id="line2d_10">
      <g>
       <use xlink:href="#m2d94c22b87" x="236.975715" y="307.584" style="stroke: #000000; stroke-width: 0.8"/>
      </g>
     </g>
     <g id="text_5">
      <!-- 100 -->
      <g transform="translate(227.431965 322.182437) scale(0.1 -0.1)">
       <defs>
        <path id="DejaVuSans-31" d="M 794 531 
L 1825 531 
L 1825 4091 
L 703 3866 
L 703 4441 
L 1819 4666 
L 2450 4666 
L 2450 531 
L 3481 531 
L 3481 0 
L 794 0 
L 794 531 
z
" transform="scale(0.015625)"/>
       </defs>
       <use xlink:href="#DejaVuSans-31"/>
       <use xlink:href="#DejaVuSans-30" x="63.623047"/>
       <use xlink:href="#DejaVuSans-30" x="127.246094"/>
      </g>
     </g>
    </g>
    <g id="xtick_6">
     <g id="line2d_11">
      <path d="M 277.761462 307.584 
L 277.761462 41.472 
" clip-path="url(#pdafddc9d8f)" style="fill: none; stroke: #b0b0b0; stroke-width: 0.8; stroke-linecap: square"/>
     </g>
     <g id="line2d_12">
      <g>
       <use xlink:href="#m2d94c22b87" x="277.761462" y="307.584" style="stroke: #000000; stroke-width: 0.8"/>
      </g>
     </g>
     <g id="text_6">
      <!-- 125 -->
      <g transform="translate(268.217712 322.182437) scale(0.1 -0.1)">
       <use xlink:href="#DejaVuSans-31"/>
       <use xlink:href="#DejaVuSans-32" x="63.623047"/>
       <use xlink:href="#DejaVuSans-35" x="127.246094"/>
      </g>
     </g>
    </g>
    <g id="xtick_7">
     <g id="line2d_13">
      <path d="M 318.547209 307.584 
L 318.547209 41.472 
" clip-path="url(#pdafddc9d8f)" style="fill: none; stroke: #b0b0b0; stroke-width: 0.8; stroke-linecap: square"/>
     </g>
     <g id="line2d_14">
      <g>
       <use xlink:href="#m2d94c22b87" x="318.547209" y="307.584" style="stroke: #000000; stroke-width: 0.8"/>
      </g>
     </g>
     <g id="text_7">
      <!-- 150 -->
      <g transform="translate(309.003459 322.182437) scale(0.1 -0.1)">
       <use xlink:href="#DejaVuSans-31"/>
       <use xlink:href="#DejaVuSans-35" x="63.623047"/>
       <use xlink:href="#DejaVuSans-30" x="127.246094"/>
      </g>
     </g>
    </g>
    <g id="xtick_8">
     <g id="line2d_15">
      <path d="M 359.332956 307.584 
L 359.332956 41.472 
" clip-path="url(#pdafddc9d8f)" style="fill: none; stroke: #b0b0b0; stroke-width: 0.8; stroke-linecap: square"/>
     </g>
     <g id="line2d_16">
      <g>
       <use xlink:href="#m2d94c22b87" x="359.332956" y="307.584" style="stroke: #000000; stroke-width: 0.8"/>
      </g>
     </g>
     <g id="text_8">
      <!-- 175 -->
      <g transform="translate(349.789206 322.182437) scale(0.1 -0.1)">
       <use xlink:href="#DejaVuSans-31"/>
       <use xlink:href="#DejaVuSans-37" x="63.623047"/>
       <use xlink:href="#DejaVuSans-35" x="127.246094"/>
      </g>
     </g>
    </g>
    <g id="xtick_9">
     <g id="line2d_17">
      <path d="M 400.118703 307.584 
L 400.118703 41.472 
" clip-path="url(#pdafddc9d8f)" style="fill: none; stroke: #b0b0b0; stroke-width: 0.8; stroke-linecap: square"/>
     </g>
     <g id="line2d_18">
      <g>
       <use xlink:href="#m2d94c22b87" x="400.118703" y="307.584" style="stroke: #000000; stroke-width: 0.8"/>
      </g>
     </g>
     <g id="text_9">
      <!-- 200 -->
      <g transform="translate(390.574953 322.182437) scale(0.1 -0.1)">
       <use xlink:href="#DejaVuSans-32"/>
       <use xlink:href="#DejaVuSans-30" x="63.623047"/>
       <use xlink:href="#DejaVuSans-30" x="127.246094"/>
      </g>
     </g>
    </g>
    <g id="text_10">
     <!-- Generations -->
     <g transform="translate(205.662344 335.860562) scale(0.1 -0.1)">
      <defs>
       <path id="DejaVuSans-47" d="M 3809 666 
L 3809 1919 
L 2778 1919 
L 2778 2438 
L 4434 2438 
L 4434 434 
Q 4069 175 3628 42 
Q 3188 -91 2688 -91 
Q 1594 -91 976 548 
Q 359 1188 359 2328 
Q 359 3472 976 4111 
Q 1594 4750 2688 4750 
Q 3144 4750 3555 4637 
Q 3966 4525 4313 4306 
L 4313 3634 
Q 3963 3931 3569 4081 
Q 3175 4231 2741 4231 
Q 1884 4231 1454 3753 
Q 1025 3275 1025 2328 
Q 1025 1384 1454 906 
Q 1884 428 2741 428 
Q 3075 428 3337 486 
Q 3600 544 3809 666 
z
" transform="scale(0.015625)"/>
       <path id="DejaVuSans-65" d="M 3597 1894 
L 3597 1613 
L 953 1613 
Q 991 1019 1311 708 
Q 1631 397 2203 397 
Q 2534 397 2845 478 
Q 3156 559 3463 722 
L 3463 178 
Q 3153 47 2828 -22 
Q 2503 -91 2169 -91 
Q 1331 -91 842 396 
Q 353 884 353 1716 
Q 353 2575 817 3079 
Q 1281 3584 2069 3584 
Q 2775 3584 3186 3129 
Q 3597 2675 3597 1894 
z
M 3022 2063 
Q 3016 2534 2758 2815 
Q 2500 3097 2075 3097 
Q 1594 3097 1305 2825 
Q 1016 2553 972 2059 
L 3022 2063 
z
" transform="scale(0.015625)"/>
       <path id="DejaVuSans-6e" d="M 3513 2113 
L 3513 0 
L 2938 0 
L 2938 2094 
Q 2938 2591 2744 2837 
Q 2550 3084 2163 3084 
Q 1697 3084 1428 2787 
Q 1159 2491 1159 1978 
L 1159 0 
L 581 0 
L 581 3500 
L 1159 3500 
L 1159 2956 
Q 1366 3272 1645 3428 
Q 1925 3584 2291 3584 
Q 2894 3584 3203 3211 
Q 3513 2838 3513 2113 
z
" transform="scale(0.015625)"/>
       <path id="DejaVuSans-72" d="M 2631 2963 
Q 2534 3019 2420 3045 
Q 2306 3072 2169 3072 
Q 1681 3072 1420 2755 
Q 1159 2438 1159 1844 
L 1159 0 
L 581 0 
L 581 3500 
L 1159 3500 
L 1159 2956 
Q 1341 3275 1631 3429 
Q 1922 3584 2338 3584 
Q 2397 3584 2469 3576 
Q 2541 3569 2628 3553 
L 2631 2963 
z
" transform="scale(0.015625)"/>
       <path id="DejaVuSans-61" d="M 2194 1759 
Q 1497 1759 1228 1600 
Q 959 1441 959 1056 
Q 959 750 1161 570 
Q 1363 391 1709 391 
Q 2188 391 2477 730 
Q 2766 1069 2766 1631 
L 2766 1759 
L 2194 1759 
z
M 3341 1997 
L 3341 0 
L 2766 0 
L 2766 531 
Q 2569 213 2275 61 
Q 1981 -91 1556 -91 
Q 1019 -91 701 211 
Q 384 513 384 1019 
Q 384 1609 779 1909 
Q 1175 2209 1959 2209 
L 2766 2209 
L 2766 2266 
Q 2766 2663 2505 2880 
Q 2244 3097 1772 3097 
Q 1472 3097 1187 3025 
Q 903 2953 641 2809 
L 641 3341 
Q 956 3463 1253 3523 
Q 1550 3584 1831 3584 
Q 2591 3584 2966 3190 
Q 3341 2797 3341 1997 
z
" transform="scale(0.015625)"/>
       <path id="DejaVuSans-74" d="M 1172 4494 
L 1172 3500 
L 2356 3500 
L 2356 3053 
L 1172 3053 
L 1172 1153 
Q 1172 725 1289 603 
Q 1406 481 1766 481 
L 2356 481 
L 2356 0 
L 1766 0 
Q 1100 0 847 248 
Q 594 497 594 1153 
L 594 3053 
L 172 3053 
L 172 3500 
L 594 3500 
L 594 4494 
L 1172 4494 
z
" transform="scale(0.015625)"/>
       <path id="DejaVuSans-69" d="M 603 3500 
L 1178 3500 
L 1178 0 
L 603 0 
L 603 3500 
z
M 603 4863 
L 1178 4863 
L 1178 4134 
L 603 4134 
L 603 4863 
z
" transform="scale(0.015625)"/>
       <path id="DejaVuSans-6f" d="M 1959 3097 
Q 1497 3097 1228 2736 
Q 959 2375 959 1747 
Q 959 1119 1226 758 
Q 1494 397 1959 397 
Q 2419 397 2687 759 
Q 2956 1122 2956 1747 
Q 2956 2369 2687 2733 
Q 2419 3097 1959 3097 
z
M 1959 3584 
Q 2709 3584 3137 3096 
Q 3566 2609 3566 1747 
Q 3566 888 3137 398 
Q 2709 -91 1959 -91 
Q 1206 -91 779 398 
Q 353 888 353 1747 
Q 353 2609 779 3096 
Q 1206 3584 1959 3584 
z
" transform="scale(0.015625)"/>
       <path id="DejaVuSans-73" d="M 2834 3397 
L 2834 2853 
Q 2591 2978 2328 3040 
Q 2066 3103 1784 3103 
Q 1356 3103 1142 2972 
Q 928 2841 928 2578 
Q 928 2378 1081 2264 
Q 1234 2150 1697 2047 
L 1894 2003 
Q 2506 1872 2764 1633 
Q 3022 1394 3022 966 
Q 3022 478 2636 193 
Q 2250 -91 1575 -91 
Q 1294 -91 989 -36 
Q 684 19 347 128 
L 347 722 
Q 666 556 975 473 
Q 1284 391 1588 391 
Q 1994 391 2212 530 
Q 2431 669 2431 922 
Q 2431 1156 2273 1281 
Q 2116 1406 1581 1522 
L 1381 1569 
Q 847 1681 609 1914 
Q 372 2147 372 2553 
Q 372 3047 722 3315 
Q 1072 3584 1716 3584 
Q 2034 3584 2315 3537 
Q 2597 3491 2834 3397 
z
" transform="scale(0.015625)"/>
      </defs>
      <use xlink:href="#DejaVuSans-47"/>
      <use xlink:href="#DejaVuSans-65" x="77.490234"/>
      <use xlink:href="#DejaVuSans-6e" x="139.013672"/>
      <use xlink:href="#DejaVuSans-65" x="202.392578"/>
      <use xlink:href="#DejaVuSans-72" x="263.916016"/>
      <use xlink:href="#DejaVuSans-61" x="305.029297"/>
      <use xlink:href="#DejaVuSans-74" x="366.308594"/>
      <use xlink:href="#DejaVuSans-69" x="405.517578"/>
      <use xlink:href="#DejaVuSans-6f" x="433.300781"/>
      <use xlink:href="#DejaVuSans-6e" x="494.482422"/>
      <use xlink:href="#DejaVuSans-73" x="557.861328"/>
     </g>
    </g>
   </g>
   <g id="matplotlib.axis_2">
    <g id="ytick_1">
     <g id="line2d_19">
      <path d="M 57.6 274.165486 
L 414.72 274.165486 
" clip-path="url(#pdafddc9d8f)" style="fill: none; stroke: #b0b0b0; stroke-width: 0.8; stroke-linecap: square"/>
     </g>
     <g id="line2d_20">
      <defs>
       <path id="mcdb465060f" d="M 0 0 
L -3.5 0 
" style="stroke: #000000; stroke-width: 0.8"/>
      </defs>
      <g>
       <use xlink:href="#mcdb465060f" x="57.6" y="274.165486" style="stroke: #000000; stroke-width: 0.8"/>
      </g>
     </g>
     <g id="text_11">
      <!-- −2000 -->
      <g transform="translate(16.770313 277.964704) scale(0.1 -0.1)">
       <defs>
        <path id="DejaVuSans-2212" d="M 678 2272 
L 4684 2272 
L 4684 1741 
L 678 1741 
L 678 2272 
z
" transform="scale(0.015625)"/>
       </defs>
       <use xlink:href="#DejaVuSans-2212"/>
       <use xlink:href="#DejaVuSans-32" x="83.789062"/>
       <use xlink:href="#DejaVuSans-30" x="147.412109"/>
       <use xlink:href="#DejaVuSans-30" x="211.035156"/>
       <use xlink:href="#DejaVuSans-30" x="274.658203"/>
      </g>
     </g>
    </g>
    <g id="ytick_2">
     <g id="line2d_21">
      <path d="M 57.6 239.670671 
L 414.72 239.670671 
" clip-path="url(#pdafddc9d8f)" style="fill: none; stroke: #b0b0b0; stroke-width: 0.8; stroke-linecap: square"/>
     </g>
     <g id="line2d_22">
      <g>
       <use xlink:href="#mcdb465060f" x="57.6" y="239.670671" style="stroke: #000000; stroke-width: 0.8"/>
      </g>
     </g>
     <g id="text_12">
      <!-- −1800 -->
      <g transform="translate(16.770313 243.46989) scale(0.1 -0.1)">
       <defs>
        <path id="DejaVuSans-38" d="M 2034 2216 
Q 1584 2216 1326 1975 
Q 1069 1734 1069 1313 
Q 1069 891 1326 650 
Q 1584 409 2034 409 
Q 2484 409 2743 651 
Q 3003 894 3003 1313 
Q 3003 1734 2745 1975 
Q 2488 2216 2034 2216 
z
M 1403 2484 
Q 997 2584 770 2862 
Q 544 3141 544 3541 
Q 544 4100 942 4425 
Q 1341 4750 2034 4750 
Q 2731 4750 3128 4425 
Q 3525 4100 3525 3541 
Q 3525 3141 3298 2862 
Q 3072 2584 2669 2484 
Q 3125 2378 3379 2068 
Q 3634 1759 3634 1313 
Q 3634 634 3220 271 
Q 2806 -91 2034 -91 
Q 1263 -91 848 271 
Q 434 634 434 1313 
Q 434 1759 690 2068 
Q 947 2378 1403 2484 
z
M 1172 3481 
Q 1172 3119 1398 2916 
Q 1625 2713 2034 2713 
Q 2441 2713 2670 2916 
Q 2900 3119 2900 3481 
Q 2900 3844 2670 4047 
Q 2441 4250 2034 4250 
Q 1625 4250 1398 4047 
Q 1172 3844 1172 3481 
z
" transform="scale(0.015625)"/>
       </defs>
       <use xlink:href="#DejaVuSans-2212"/>
       <use xlink:href="#DejaVuSans-31" x="83.789062"/>
       <use xlink:href="#DejaVuSans-38" x="147.412109"/>
       <use xlink:href="#DejaVuSans-30" x="211.035156"/>
       <use xlink:href="#DejaVuSans-30" x="274.658203"/>
      </g>
     </g>
    </g>
    <g id="ytick_3">
     <g id="line2d_23">
      <path d="M 57.6 205.175856 
L 414.72 205.175856 
" clip-path="url(#pdafddc9d8f)" style="fill: none; stroke: #b0b0b0; stroke-width: 0.8; stroke-linecap: square"/>
     </g>
     <g id="line2d_24">
      <g>
       <use xlink:href="#mcdb465060f" x="57.6" y="205.175856" style="stroke: #000000; stroke-width: 0.8"/>
      </g>
     </g>
     <g id="text_13">
      <!-- −1600 -->
      <g transform="translate(16.770313 208.975075) scale(0.1 -0.1)">
       <defs>
        <path id="DejaVuSans-36" d="M 2113 2584 
Q 1688 2584 1439 2293 
Q 1191 2003 1191 1497 
Q 1191 994 1439 701 
Q 1688 409 2113 409 
Q 2538 409 2786 701 
Q 3034 994 3034 1497 
Q 3034 2003 2786 2293 
Q 2538 2584 2113 2584 
z
M 3366 4563 
L 3366 3988 
Q 3128 4100 2886 4159 
Q 2644 4219 2406 4219 
Q 1781 4219 1451 3797 
Q 1122 3375 1075 2522 
Q 1259 2794 1537 2939 
Q 1816 3084 2150 3084 
Q 2853 3084 3261 2657 
Q 3669 2231 3669 1497 
Q 3669 778 3244 343 
Q 2819 -91 2113 -91 
Q 1303 -91 875 529 
Q 447 1150 447 2328 
Q 447 3434 972 4092 
Q 1497 4750 2381 4750 
Q 2619 4750 2861 4703 
Q 3103 4656 3366 4563 
z
" transform="scale(0.015625)"/>
       </defs>
       <use xlink:href="#DejaVuSans-2212"/>
       <use xlink:href="#DejaVuSans-31" x="83.789062"/>
       <use xlink:href="#DejaVuSans-36" x="147.412109"/>
       <use xlink:href="#DejaVuSans-30" x="211.035156"/>
       <use xlink:href="#DejaVuSans-30" x="274.658203"/>
      </g>
     </g>
    </g>
    <g id="ytick_4">
     <g id="line2d_25">
      <path d="M 57.6 170.681042 
L 414.72 170.681042 
" clip-path="url(#pdafddc9d8f)" style="fill: none; stroke: #b0b0b0; stroke-width: 0.8; stroke-linecap: square"/>
     </g>
     <g id="line2d_26">
      <g>
       <use xlink:href="#mcdb465060f" x="57.6" y="170.681042" style="stroke: #000000; stroke-width: 0.8"/>
      </g>
     </g>
     <g id="text_14">
      <!-- −1400 -->
      <g transform="translate(16.770313 174.48026) scale(0.1 -0.1)">
       <defs>
        <path id="DejaVuSans-34" d="M 2419 4116 
L 825 1625 
L 2419 1625 
L 2419 4116 
z
M 2253 4666 
L 3047 4666 
L 3047 1625 
L 3713 1625 
L 3713 1100 
L 3047 1100 
L 3047 0 
L 2419 0 
L 2419 1100 
L 313 1100 
L 313 1709 
L 2253 4666 
z
" transform="scale(0.015625)"/>
       </defs>
       <use xlink:href="#DejaVuSans-2212"/>
       <use xlink:href="#DejaVuSans-31" x="83.789062"/>
       <use xlink:href="#DejaVuSans-34" x="147.412109"/>
       <use xlink:href="#DejaVuSans-30" x="211.035156"/>
       <use xlink:href="#DejaVuSans-30" x="274.658203"/>
      </g>
     </g>
    </g>
    <g id="ytick_5">
     <g id="line2d_27">
      <path d="M 57.6 136.186227 
L 414.72 136.186227 
" clip-path="url(#pdafddc9d8f)" style="fill: none; stroke: #b0b0b0; stroke-width: 0.8; stroke-linecap: square"/>
     </g>
     <g id="line2d_28">
      <g>
       <use xlink:href="#mcdb465060f" x="57.6" y="136.186227" style="stroke: #000000; stroke-width: 0.8"/>
      </g>
     </g>
     <g id="text_15">
      <!-- −1200 -->
      <g transform="translate(16.770313 139.985446) scale(0.1 -0.1)">
       <use xlink:href="#DejaVuSans-2212"/>
       <use xlink:href="#DejaVuSans-31" x="83.789062"/>
       <use xlink:href="#DejaVuSans-32" x="147.412109"/>
       <use xlink:href="#DejaVuSans-30" x="211.035156"/>
       <use xlink:href="#DejaVuSans-30" x="274.658203"/>
      </g>
     </g>
    </g>
    <g id="ytick_6">
     <g id="line2d_29">
      <path d="M 57.6 101.691412 
L 414.72 101.691412 
" clip-path="url(#pdafddc9d8f)" style="fill: none; stroke: #b0b0b0; stroke-width: 0.8; stroke-linecap: square"/>
     </g>
     <g id="line2d_30">
      <g>
       <use xlink:href="#mcdb465060f" x="57.6" y="101.691412" style="stroke: #000000; stroke-width: 0.8"/>
      </g>
     </g>
     <g id="text_16">
      <!-- −1000 -->
      <g transform="translate(16.770313 105.490631) scale(0.1 -0.1)">
       <use xlink:href="#DejaVuSans-2212"/>
       <use xlink:href="#DejaVuSans-31" x="83.789062"/>
       <use xlink:href="#DejaVuSans-30" x="147.412109"/>
       <use xlink:href="#DejaVuSans-30" x="211.035156"/>
       <use xlink:href="#DejaVuSans-30" x="274.658203"/>
      </g>
     </g>
    </g>
    <g id="ytick_7">
     <g id="line2d_31">
      <path d="M 57.6 67.196598 
L 414.72 67.196598 
" clip-path="url(#pdafddc9d8f)" style="fill: none; stroke: #b0b0b0; stroke-width: 0.8; stroke-linecap: square"/>
     </g>
     <g id="line2d_32">
      <g>
       <use xlink:href="#mcdb465060f" x="57.6" y="67.196598" style="stroke: #000000; stroke-width: 0.8"/>
      </g>
     </g>
     <g id="text_17">
      <!-- −800 -->
      <g transform="translate(23.132812 70.995816) scale(0.1 -0.1)">
       <use xlink:href="#DejaVuSans-2212"/>
       <use xlink:href="#DejaVuSans-38" x="83.789062"/>
       <use xlink:href="#DejaVuSans-30" x="147.412109"/>
       <use xlink:href="#DejaVuSans-30" x="211.035156"/>
      </g>
     </g>
    </g>
    <g id="text_18">
     <!-- Fitness -->
     <g transform="translate(10.690625 191.845187) rotate(-90) scale(0.1 -0.1)">
      <defs>
       <path id="DejaVuSans-46" d="M 628 4666 
L 3309 4666 
L 3309 4134 
L 1259 4134 
L 1259 2759 
L 3109 2759 
L 3109 2228 
L 1259 2228 
L 1259 0 
L 628 0 
L 628 4666 
z
" transform="scale(0.015625)"/>
      </defs>
      <use xlink:href="#DejaVuSans-46"/>
      <use xlink:href="#DejaVuSans-69" x="50.269531"/>
      <use xlink:href="#DejaVuSans-74" x="78.052734"/>
      <use xlink:href="#DejaVuSans-6e" x="117.261719"/>
      <use xlink:href="#DejaVuSans-65" x="180.640625"/>
      <use xlink:href="#DejaVuSans-73" x="242.164062"/>
      <use xlink:href="#DejaVuSans-73" x="294.263672"/>
     </g>
    </g>
   </g>
   <g id="line2d_33">
    <path d="M 73.832727 264.671754 
L 75.464157 258.957369 
L 77.095587 260.32022 
L 78.727017 259.864767 
L 80.358447 254.274351 
L 81.989877 252.944309 
L 83.621307 250.618647 
L 85.252736 250.956894 
L 86.884166 250.812491 
L 88.515596 250.037804 
L 90.147026 252.721881 
L 91.778456 254.149248 
L 93.409886 250.978435 
L 95.041316 251.744989 
L 96.672746 253.143305 
L 98.304175 254.378956 
L 99.935605 251.860451 
L 101.567035 251.004485 
L 103.198465 252.381698 
L 104.829895 250.004328 
L 106.461325 250.310593 
L 108.092755 250.471882 
L 109.724185 249.354866 
L 111.355614 250.374049 
L 112.987044 244.651093 
L 114.618474 244.256424 
L 116.249904 247.052412 
L 117.881334 250.307423 
L 119.512764 250.439787 
L 121.144194 252.459968 
L 122.775624 250.407372 
L 124.407053 251.424588 
L 126.038483 252.113992 
L 127.669913 253.119338 
L 129.301343 252.128604 
L 130.932773 250.095273 
L 132.564203 250.680469 
L 134.195633 249.444221 
L 135.827063 253.021486 
L 137.458492 249.111675 
L 139.089922 251.117081 
L 140.721352 249.859413 
L 142.352782 252.622834 
L 143.984212 251.720256 
L 145.615642 252.534037 
L 147.247072 251.333426 
L 148.878502 254.096426 
L 150.509931 250.193764 
L 153.772791 252.817436 
L 155.404221 251.921459 
L 157.035651 254.813706 
L 158.667081 252.449896 
L 160.298511 254.388348 
L 161.929941 256.093793 
L 163.56137 254.760241 
L 165.1928 255.855223 
L 166.82423 255.448517 
L 168.45566 253.55704 
L 170.08709 253.849053 
L 171.71852 253.901719 
L 173.34995 255.373289 
L 174.98138 255.142305 
L 176.61281 256.192828 
L 178.244239 253.374371 
L 179.875669 253.976268 
L 181.507099 252.164457 
L 183.138529 253.910185 
L 186.401389 255.431286 
L 188.032819 252.619498 
L 189.664249 252.147939 
L 191.295678 253.458712 
L 192.927108 253.780312 
L 196.189968 250.111677 
L 197.821398 251.06102 
L 199.452828 250.422591 
L 201.084258 250.915521 
L 202.715688 252.597799 
L 204.347117 249.318518 
L 205.978547 249.43223 
L 207.609977 247.568636 
L 209.241407 249.229795 
L 210.872837 249.829782 
L 212.504267 251.01818 
L 214.135697 248.096146 
L 215.767127 248.472565 
L 217.398556 246.580278 
L 219.029986 249.658657 
L 220.661416 246.469209 
L 222.292846 244.655754 
L 223.924276 247.093298 
L 225.555706 246.490912 
L 227.187136 246.330186 
L 228.818566 250.034493 
L 230.449995 251.19697 
L 232.081425 251.784549 
L 233.712855 249.570243 
L 235.344285 251.673806 
L 236.975715 252.132317 
L 238.607145 246.669123 
L 240.238575 248.062088 
L 241.870005 245.301407 
L 243.501434 246.50452 
L 245.132864 250.828925 
L 246.764294 250.811907 
L 250.027154 249.670901 
L 251.658584 247.449508 
L 253.290014 251.353264 
L 254.921444 247.941471 
L 256.552873 249.433213 
L 258.184303 249.621506 
L 259.815733 250.99585 
L 261.447163 253.425208 
L 263.078593 252.601662 
L 264.710023 254.10993 
L 266.341453 252.580775 
L 267.972883 254.330939 
L 269.604312 251.820099 
L 271.235742 254.008464 
L 272.867172 253.24916 
L 274.498602 253.577279 
L 276.130032 250.070157 
L 277.761462 253.1304 
L 279.392892 248.800486 
L 281.024322 250.949679 
L 282.655751 251.818675 
L 284.287181 248.873224 
L 285.918611 251.815345 
L 287.550041 252.988596 
L 289.181471 252.783693 
L 290.812901 248.831606 
L 292.444331 249.166909 
L 294.075761 250.544931 
L 295.70719 250.921269 
L 297.33862 248.962715 
L 298.97005 251.887035 
L 300.60148 249.422787 
L 302.23291 250.716347 
L 303.86434 248.8199 
L 305.49577 249.980845 
L 307.1272 247.565656 
L 308.75863 247.729372 
L 310.390059 246.92447 
L 312.021489 245.786571 
L 313.652919 247.653626 
L 315.284349 245.989934 
L 316.915779 248.951481 
L 318.547209 246.934235 
L 320.178639 248.771669 
L 321.810069 248.492286 
L 323.441498 247.184263 
L 325.072928 249.897533 
L 328.335788 247.128275 
L 329.967218 246.220234 
L 331.598648 247.834019 
L 333.230078 246.984591 
L 334.861508 248.329855 
L 336.492937 247.643676 
L 338.124367 247.15796 
L 339.755797 248.246301 
L 341.387227 248.820642 
L 343.018657 248.906892 
L 344.650087 249.708033 
L 346.281517 251.022165 
L 347.912947 252.077361 
L 349.544376 249.706222 
L 351.175806 251.293421 
L 352.807236 249.55936 
L 354.438666 250.370489 
L 356.070096 250.260071 
L 357.701526 249.024622 
L 359.332956 250.63515 
L 360.964386 250.663488 
L 362.595815 249.951616 
L 364.227245 247.569257 
L 365.858675 248.94696 
L 367.490105 251.45849 
L 369.121535 249.141722 
L 370.752965 249.833114 
L 372.384395 250.009828 
L 374.015825 248.834331 
L 375.647254 250.021953 
L 377.278684 248.584951 
L 378.910114 249.583214 
L 380.541544 249.12435 
L 382.172974 249.782556 
L 383.804404 249.317121 
L 385.435834 250.324145 
L 387.067264 250.697494 
L 388.698693 249.533322 
L 390.330123 250.578948 
L 391.961553 248.636449 
L 393.592983 251.812541 
L 396.855843 249.523956 
L 398.487273 248.764634 
L 398.487273 248.764634 
" clip-path="url(#pdafddc9d8f)" style="fill: none; stroke: #0000ff; stroke-width: 1.5; stroke-linecap: square"/>
   </g>
   <g id="line2d_34">
    <path d="M 73.832727 280.278009 
L 75.464157 289.107157 
L 77.095587 289.707593 
L 78.727017 285.27865 
L 80.358447 288.273456 
L 81.989877 286.300504 
L 85.252736 281.805353 
L 86.884166 281.325088 
L 88.515596 282.527659 
L 90.147026 281.296717 
L 91.778456 282.643784 
L 93.409886 280.574757 
L 95.041316 282.128851 
L 96.672746 284.95233 
L 98.304175 283.100902 
L 99.935605 280.241734 
L 101.567035 280.866987 
L 103.198465 283.865184 
L 104.829895 283.353668 
L 106.461325 281.86926 
L 108.092755 283.182233 
L 109.724185 289.268581 
L 111.355614 288.237257 
L 112.987044 291.274469 
L 114.618474 291.811764 
L 116.249904 295.488 
L 117.881334 293.018308 
L 119.512764 290.245933 
L 121.144194 288.986309 
L 124.407053 288.395582 
L 126.038483 288.625927 
L 127.669913 287.107116 
L 129.301343 285.961788 
L 130.932773 283.414139 
L 132.564203 283.809211 
L 134.195633 284.74217 
L 135.827063 280.730179 
L 137.458492 284.507581 
L 139.089922 284.76992 
L 140.721352 288.594753 
L 142.352782 286.729051 
L 143.984212 281.633706 
L 145.615642 282.716475 
L 147.247072 281.089858 
L 148.878502 284.483891 
L 150.509931 279.400662 
L 152.141361 281.379692 
L 153.772791 283.055043 
L 155.404221 281.75811 
L 157.035651 277.827349 
L 158.667081 281.952797 
L 160.298511 276.941604 
L 161.929941 279.222542 
L 163.56137 277.77052 
L 165.1928 279.466486 
L 166.82423 278.266007 
L 168.45566 275.830695 
L 170.08709 276.678775 
L 171.71852 276.664116 
L 173.34995 278.486075 
L 174.98138 278.529552 
L 176.61281 279.631376 
L 178.244239 276.037938 
L 179.875669 279.570333 
L 181.507099 274.648941 
L 183.138529 276.827715 
L 184.769959 277.655301 
L 186.401389 278.892752 
L 188.032819 274.822262 
L 189.664249 273.958738 
L 191.295678 276.20377 
L 192.927108 276.664511 
L 194.558538 282.051425 
L 196.189968 278.85464 
L 197.821398 280.418164 
L 199.452828 279.489026 
L 201.084258 280.702982 
L 202.715688 282.937723 
L 204.347117 284.649136 
L 205.978547 285.808429 
L 207.609977 282.726064 
L 209.241407 285.631704 
L 212.504267 287.870474 
L 214.135697 284.410554 
L 215.767127 284.625018 
L 217.398556 287.888209 
L 219.029986 286.515539 
L 220.661416 286.940009 
L 222.292846 290.140543 
L 223.924276 291.893818 
L 225.555706 286.609694 
L 227.187136 287.684275 
L 228.818566 285.388008 
L 230.449995 287.019645 
L 232.081425 287.703779 
L 233.712855 285.045527 
L 235.344285 287.848768 
L 236.975715 287.911591 
L 238.607145 286.210418 
L 240.238575 288.145552 
L 241.870005 289.907037 
L 243.501434 286.697555 
L 245.132864 286.748506 
L 246.764294 286.500378 
L 250.027154 285.405757 
L 251.658584 284.376837 
L 253.290014 287.731937 
L 254.921444 282.457453 
L 256.552873 285.15047 
L 258.184303 287.351953 
L 259.815733 287.383152 
L 261.447163 283.963452 
L 263.078593 282.972722 
L 264.710023 285.148196 
L 266.341453 283.2305 
L 267.972883 285.093111 
L 269.604312 284.584851 
L 271.235742 284.879025 
L 272.867172 284.020991 
L 274.498602 284.289193 
L 276.130032 279.400788 
L 277.761462 283.192022 
L 279.392892 283.518824 
L 281.024322 280.858289 
L 282.655751 281.723304 
L 284.287181 283.977711 
L 285.918611 282.056658 
L 287.550041 283.36679 
L 289.181471 283.048683 
L 292.444331 285.03984 
L 294.075761 286.553585 
L 295.70719 291.743433 
L 297.33862 289.581149 
L 298.97005 288.060769 
L 300.60148 284.554444 
L 302.23291 286.431063 
L 303.86434 284.313447 
L 305.49577 291.545356 
L 307.1272 291.033269 
L 308.75863 288.2494 
L 310.390059 290.682392 
L 312.021489 293.701789 
L 313.652919 294.704345 
L 315.284349 292.357142 
L 316.915779 291.707154 
L 318.547209 288.908584 
L 320.178639 291.155566 
L 323.441498 290.850261 
L 325.072928 287.599509 
L 326.704358 286.28871 
L 328.335788 285.764473 
L 329.967218 284.049688 
L 331.598648 284.938703 
L 333.230078 283.353682 
L 334.861508 285.238276 
L 336.492937 284.88611 
L 338.124367 289.747034 
L 339.755797 285.642799 
L 341.387227 286.759537 
L 343.018657 286.481852 
L 344.650087 285.928348 
L 346.281517 287.566312 
L 347.912947 288.8558 
L 349.544376 285.656678 
L 351.175806 293.435969 
L 352.807236 285.519416 
L 354.438666 286.514041 
L 356.070096 286.259881 
L 357.701526 284.753564 
L 359.332956 286.759885 
L 360.964386 286.776679 
L 362.595815 286.431846 
L 364.227245 288.924148 
L 365.858675 290.225865 
L 367.490105 287.839948 
L 369.121535 290.568141 
L 370.752965 286.91026 
L 372.384395 286.092222 
L 374.015825 284.330168 
L 375.647254 286.02856 
L 377.278684 283.984439 
L 378.910114 285.584318 
L 380.541544 284.935375 
L 382.172974 286.196344 
L 383.804404 284.991613 
L 385.435834 286.412152 
L 387.067264 286.704875 
L 388.698693 284.881187 
L 390.330123 286.835038 
L 391.961553 289.685333 
L 393.592983 288.495738 
L 395.224413 288.931728 
L 396.855843 285.183645 
L 398.487273 284.281524 
L 398.487273 284.281524 
" clip-path="url(#pdafddc9d8f)" style="fill: none; stroke-dasharray: 9.6,2.4,1.5,2.4; stroke-dashoffset: 0; stroke: #008000; stroke-width: 1.5"/>
   </g>
   <g id="line2d_35">
    <path d="M 73.832727 249.065498 
L 75.464157 228.807582 
L 77.095587 230.932847 
L 78.727017 234.450884 
L 80.358447 220.275246 
L 81.989877 219.588113 
L 83.621307 217.112402 
L 85.252736 220.108436 
L 86.884166 220.299895 
L 88.515596 217.54795 
L 90.147026 224.147044 
L 91.778456 225.654713 
L 93.409886 221.382113 
L 96.672746 221.33428 
L 98.304175 225.65701 
L 101.567035 221.141983 
L 103.198465 220.898213 
L 104.829895 216.654988 
L 106.461325 218.751925 
L 108.092755 217.761531 
L 109.724185 209.441151 
L 111.355614 212.510841 
L 112.987044 198.027716 
L 114.618474 196.701084 
L 116.249904 198.616824 
L 117.881334 207.596537 
L 119.512764 210.633642 
L 121.144194 215.933627 
L 122.775624 212.079075 
L 124.407053 214.453595 
L 126.038483 215.602057 
L 127.669913 219.13156 
L 129.301343 218.29542 
L 130.932773 216.776406 
L 132.564203 217.551728 
L 134.195633 214.146272 
L 135.827063 225.312792 
L 137.458492 213.715769 
L 139.089922 217.464243 
L 140.721352 211.124074 
L 142.352782 218.516618 
L 143.984212 221.806806 
L 145.615642 222.3516 
L 147.247072 221.576994 
L 148.878502 223.70896 
L 150.509931 220.986866 
L 153.772791 222.57983 
L 155.404221 222.084807 
L 157.035651 231.800063 
L 158.667081 222.946995 
L 160.298511 231.835091 
L 161.929941 232.965044 
L 163.56137 231.749962 
L 166.82423 232.631026 
L 168.45566 231.283385 
L 170.08709 231.019332 
L 171.71852 231.139321 
L 173.34995 232.260502 
L 174.98138 231.755059 
L 176.61281 232.754279 
L 178.244239 230.710803 
L 179.875669 228.382204 
L 183.138529 230.992655 
L 184.769959 231.656201 
L 186.401389 231.969821 
L 188.032819 230.416734 
L 189.664249 230.33714 
L 191.295678 230.713654 
L 192.927108 230.896114 
L 194.558538 221.944175 
L 196.189968 221.368714 
L 197.821398 221.703877 
L 199.452828 221.356157 
L 201.084258 221.12806 
L 202.715688 222.257875 
L 204.347117 213.987901 
L 205.978547 213.056032 
L 207.609977 212.411208 
L 209.241407 212.827885 
L 210.872837 212.944486 
L 212.504267 214.165886 
L 214.135697 211.781738 
L 215.767127 212.320112 
L 217.398556 205.272346 
L 219.029986 212.801776 
L 222.292846 199.170965 
L 223.924276 202.292779 
L 225.555706 206.37213 
L 227.187136 204.976098 
L 228.818566 214.680978 
L 230.449995 215.374295 
L 232.081425 215.865319 
L 233.712855 214.094959 
L 235.344285 215.498844 
L 236.975715 216.353042 
L 238.607145 207.127828 
L 240.238575 207.978623 
L 241.870005 200.695778 
L 243.501434 206.311485 
L 245.132864 214.909344 
L 246.764294 215.123436 
L 248.395724 214.625818 
L 250.027154 213.936045 
L 251.658584 210.522179 
L 253.290014 214.974592 
L 254.921444 213.425489 
L 256.552873 213.715956 
L 258.184303 211.891058 
L 259.815733 214.608549 
L 261.447163 222.886965 
L 263.078593 222.230602 
L 264.710023 223.071665 
L 266.341453 221.931051 
L 267.972883 223.568767 
L 269.604312 219.055347 
L 271.235742 223.137903 
L 272.867172 222.47733 
L 274.498602 222.865366 
L 276.130032 220.739525 
L 277.761462 223.068778 
L 279.392892 214.082148 
L 281.024322 221.041069 
L 282.655751 221.914046 
L 284.287181 213.768737 
L 285.918611 221.574032 
L 287.550041 222.610401 
L 289.181471 222.518703 
L 290.812901 213.565959 
L 292.444331 213.293979 
L 294.075761 214.536277 
L 295.70719 210.099104 
L 297.33862 208.344281 
L 298.97005 215.713302 
L 300.60148 214.29113 
L 302.23291 215.00163 
L 303.86434 213.326354 
L 305.49577 208.416334 
L 307.1272 204.098042 
L 308.75863 207.209344 
L 310.390059 203.166549 
L 312.021489 197.871353 
L 313.652919 200.602906 
L 315.284349 199.622726 
L 316.915779 206.195809 
L 318.547209 204.959886 
L 320.178639 206.387772 
L 321.810069 205.960222 
L 323.441498 203.518265 
L 325.072928 212.195557 
L 326.704358 210.759019 
L 328.335788 208.492078 
L 329.967218 208.390779 
L 331.598648 210.729335 
L 333.230078 210.6155 
L 334.861508 211.421434 
L 336.492937 210.401243 
L 338.124367 204.568886 
L 339.755797 210.849803 
L 341.387227 210.881746 
L 343.018657 211.331932 
L 344.650087 213.487719 
L 346.281517 214.478018 
L 347.912947 215.298922 
L 349.544376 213.755766 
L 351.175806 209.150872 
L 352.807236 213.599305 
L 354.438666 214.226937 
L 356.070096 214.260261 
L 357.701526 213.29568 
L 359.332956 214.510416 
L 360.964386 214.550296 
L 362.595815 213.471386 
L 364.227245 206.214367 
L 365.858675 207.668055 
L 367.490105 215.077032 
L 369.121535 207.715304 
L 370.752965 212.755968 
L 372.384395 213.927435 
L 374.015825 213.338494 
L 375.647254 214.015346 
L 377.278684 213.185462 
L 378.910114 213.582109 
L 380.541544 213.313325 
L 382.172974 213.368768 
L 383.804404 213.642628 
L 385.435834 214.236137 
L 387.067264 214.690113 
L 388.698693 214.185458 
L 390.330123 214.322858 
L 391.961553 207.587565 
L 393.592983 215.129345 
L 395.224413 212.431128 
L 396.855843 213.864267 
L 398.487273 213.247744 
L 398.487273 213.247744 
" clip-path="url(#pdafddc9d8f)" style="fill: none; stroke-dasharray: 9.6,2.4,1.5,2.4; stroke-dashoffset: 0; stroke: #008000; stroke-width: 1.5"/>
   </g>
   <g id="line2d_36">
    <path d="M 73.832727 221.774761 
L 75.464157 55.170296 
L 135.827063 55.170296 
L 137.458492 54.970218 
L 277.761462 54.970218 
L 279.392892 54.337245 
L 364.227245 54.337245 
L 365.858675 53.568 
L 398.487273 53.568 
L 398.487273 53.568 
" clip-path="url(#pdafddc9d8f)" style="fill: none; stroke: #ff0000; stroke-width: 1.5; stroke-linecap: square"/>
   </g>
   <g id="patch_3">
    <path d="M 57.6 307.584 
L 57.6 41.472 
" style="fill: none; stroke: #000000; stroke-width: 0.8; stroke-linejoin: miter; stroke-linecap: square"/>
   </g>
   <g id="patch_4">
    <path d="M 414.72 307.584 
L 414.72 41.472 
" style="fill: none; stroke: #000000; stroke-width: 0.8; stroke-linejoin: miter; stroke-linecap: square"/>
   </g>
   <g id="patch_5">
    <path d="M 57.6 307.584 
L 414.72 307.584 
" style="fill: none; stroke: #000000; stroke-width: 0.8; stroke-linejoin: miter; stroke-linecap: square"/>
   </g>
   <g id="patch_6">
    <path d="M 57.6 41.472 
L 414.72 41.472 
" style="fill: none; stroke: #000000; stroke-width: 0.8; stroke-linejoin: miter; stroke-linecap: square"/>
   </g>
   <g id="text_19">
    <!-- Population's average and best fitness -->
    <g transform="translate(123.529687 35.472) scale(0.12 -0.12)">
     <defs>
      <path id="DejaVuSans-50" d="M 1259 4147 
L 1259 2394 
L 2053 2394 
Q 2494 2394 2734 2622 
Q 2975 2850 2975 3272 
Q 2975 3691 2734 3919 
Q 2494 4147 2053 4147 
L 1259 4147 
z
M 628 4666 
L 2053 4666 
Q 2838 4666 3239 4311 
Q 3641 3956 3641 3272 
Q 3641 2581 3239 2228 
Q 2838 1875 2053 1875 
L 1259 1875 
L 1259 0 
L 628 0 
L 628 4666 
z
" transform="scale(0.015625)"/>
      <path id="DejaVuSans-70" d="M 1159 525 
L 1159 -1331 
L 581 -1331 
L 581 3500 
L 1159 3500 
L 1159 2969 
Q 1341 3281 1617 3432 
Q 1894 3584 2278 3584 
Q 2916 3584 3314 3078 
Q 3713 2572 3713 1747 
Q 3713 922 3314 415 
Q 2916 -91 2278 -91 
Q 1894 -91 1617 61 
Q 1341 213 1159 525 
z
M 3116 1747 
Q 3116 2381 2855 2742 
Q 2594 3103 2138 3103 
Q 1681 3103 1420 2742 
Q 1159 2381 1159 1747 
Q 1159 1113 1420 752 
Q 1681 391 2138 391 
Q 2594 391 2855 752 
Q 3116 1113 3116 1747 
z
" transform="scale(0.015625)"/>
      <path id="DejaVuSans-75" d="M 544 1381 
L 544 3500 
L 1119 3500 
L 1119 1403 
Q 1119 906 1312 657 
Q 1506 409 1894 409 
Q 2359 409 2629 706 
Q 2900 1003 2900 1516 
L 2900 3500 
L 3475 3500 
L 3475 0 
L 2900 0 
L 2900 538 
Q 2691 219 2414 64 
Q 2138 -91 1772 -91 
Q 1169 -91 856 284 
Q 544 659 544 1381 
z
M 1991 3584 
L 1991 3584 
z
" transform="scale(0.015625)"/>
      <path id="DejaVuSans-6c" d="M 603 4863 
L 1178 4863 
L 1178 0 
L 603 0 
L 603 4863 
z
" transform="scale(0.015625)"/>
      <path id="DejaVuSans-27" d="M 1147 4666 
L 1147 2931 
L 616 2931 
L 616 4666 
L 1147 4666 
z
" transform="scale(0.015625)"/>
      <path id="DejaVuSans-20" transform="scale(0.015625)"/>
      <path id="DejaVuSans-76" d="M 191 3500 
L 800 3500 
L 1894 563 
L 2988 3500 
L 3597 3500 
L 2284 0 
L 1503 0 
L 191 3500 
z
" transform="scale(0.015625)"/>
      <path id="DejaVuSans-67" d="M 2906 1791 
Q 2906 2416 2648 2759 
Q 2391 3103 1925 3103 
Q 1463 3103 1205 2759 
Q 947 2416 947 1791 
Q 947 1169 1205 825 
Q 1463 481 1925 481 
Q 2391 481 2648 825 
Q 2906 1169 2906 1791 
z
M 3481 434 
Q 3481 -459 3084 -895 
Q 2688 -1331 1869 -1331 
Q 1566 -1331 1297 -1286 
Q 1028 -1241 775 -1147 
L 775 -588 
Q 1028 -725 1275 -790 
Q 1522 -856 1778 -856 
Q 2344 -856 2625 -561 
Q 2906 -266 2906 331 
L 2906 616 
Q 2728 306 2450 153 
Q 2172 0 1784 0 
Q 1141 0 747 490 
Q 353 981 353 1791 
Q 353 2603 747 3093 
Q 1141 3584 1784 3584 
Q 2172 3584 2450 3431 
Q 2728 3278 2906 2969 
L 2906 3500 
L 3481 3500 
L 3481 434 
z
" transform="scale(0.015625)"/>
      <path id="DejaVuSans-64" d="M 2906 2969 
L 2906 4863 
L 3481 4863 
L 3481 0 
L 2906 0 
L 2906 525 
Q 2725 213 2448 61 
Q 2172 -91 1784 -91 
Q 1150 -91 751 415 
Q 353 922 353 1747 
Q 353 2572 751 3078 
Q 1150 3584 1784 3584 
Q 2172 3584 2448 3432 
Q 2725 3281 2906 2969 
z
M 947 1747 
Q 947 1113 1208 752 
Q 1469 391 1925 391 
Q 2381 391 2643 752 
Q 2906 1113 2906 1747 
Q 2906 2381 2643 2742 
Q 2381 3103 1925 3103 
Q 1469 3103 1208 2742 
Q 947 2381 947 1747 
z
" transform="scale(0.015625)"/>
      <path id="DejaVuSans-62" d="M 3116 1747 
Q 3116 2381 2855 2742 
Q 2594 3103 2138 3103 
Q 1681 3103 1420 2742 
Q 1159 2381 1159 1747 
Q 1159 1113 1420 752 
Q 1681 391 2138 391 
Q 2594 391 2855 752 
Q 3116 1113 3116 1747 
z
M 1159 2969 
Q 1341 3281 1617 3432 
Q 1894 3584 2278 3584 
Q 2916 3584 3314 3078 
Q 3713 2572 3713 1747 
Q 3713 922 3314 415 
Q 2916 -91 2278 -91 
Q 1894 -91 1617 61 
Q 1341 213 1159 525 
L 1159 0 
L 581 0 
L 581 4863 
L 1159 4863 
L 1159 2969 
z
" transform="scale(0.015625)"/>
      <path id="DejaVuSans-66" d="M 2375 4863 
L 2375 4384 
L 1825 4384 
Q 1516 4384 1395 4259 
Q 1275 4134 1275 3809 
L 1275 3500 
L 2222 3500 
L 2222 3053 
L 1275 3053 
L 1275 0 
L 697 0 
L 697 3053 
L 147 3053 
L 147 3500 
L 697 3500 
L 697 3744 
Q 697 4328 969 4595 
Q 1241 4863 1831 4863 
L 2375 4863 
z
" transform="scale(0.015625)"/>
     </defs>
     <use xlink:href="#DejaVuSans-50"/>
     <use xlink:href="#DejaVuSans-6f" x="56.677734"/>
     <use xlink:href="#DejaVuSans-70" x="117.859375"/>
     <use xlink:href="#DejaVuSans-75" x="181.335938"/>
     <use xlink:href="#DejaVuSans-6c" x="244.714844"/>
     <use xlink:href="#DejaVuSans-61" x="272.498047"/>
     <use xlink:href="#DejaVuSans-74" x="333.777344"/>
     <use xlink:href="#DejaVuSans-69" x="372.986328"/>
     <use xlink:href="#DejaVuSans-6f" x="400.769531"/>
     <use xlink:href="#DejaVuSans-6e" x="461.951172"/>
     <use xlink:href="#DejaVuSans-27" x="525.330078"/>
     <use xlink:href="#DejaVuSans-73" x="552.820312"/>
     <use xlink:href="#DejaVuSans-20" x="604.919922"/>
     <use xlink:href="#DejaVuSans-61" x="636.707031"/>
     <use xlink:href="#DejaVuSans-76" x="697.986328"/>
     <use xlink:href="#DejaVuSans-65" x="757.166016"/>
     <use xlink:href="#DejaVuSans-72" x="818.689453"/>
     <use xlink:href="#DejaVuSans-61" x="859.802734"/>
     <use xlink:href="#DejaVuSans-67" x="921.082031"/>
     <use xlink:href="#DejaVuSans-65" x="984.558594"/>
     <use xlink:href="#DejaVuSans-20" x="1046.082031"/>
     <use xlink:href="#DejaVuSans-61" x="1077.869141"/>
     <use xlink:href="#DejaVuSans-6e" x="1139.148438"/>
     <use xlink:href="#DejaVuSans-64" x="1202.527344"/>
     <use xlink:href="#DejaVuSans-20" x="1266.003906"/>
     <use xlink:href="#DejaVuSans-62" x="1297.791016"/>
     <use xlink:href="#DejaVuSans-65" x="1361.267578"/>
     <use xlink:href="#DejaVuSans-73" x="1422.791016"/>
     <use xlink:href="#DejaVuSans-74" x="1474.890625"/>
     <use xlink:href="#DejaVuSans-20" x="1514.099609"/>
     <use xlink:href="#DejaVuSans-66" x="1545.886719"/>
     <use xlink:href="#DejaVuSans-69" x="1581.091797"/>
     <use xlink:href="#DejaVuSans-74" x="1608.875"/>
     <use xlink:href="#DejaVuSans-6e" x="1648.083984"/>
     <use xlink:href="#DejaVuSans-65" x="1711.462891"/>
     <use xlink:href="#DejaVuSans-73" x="1772.986328"/>
     <use xlink:href="#DejaVuSans-73" x="1825.085938"/>
    </g>
   </g>
   <g id="legend_1">
    <g id="patch_7">
     <path d="M 334.779375 205.38425 
L 407.72 205.38425 
Q 409.72 205.38425 409.72 203.38425 
L 409.72 145.67175 
Q 409.72 143.67175 407.72 143.67175 
L 334.779375 143.67175 
Q 332.779375 143.67175 332.779375 145.67175 
L 332.779375 203.38425 
Q 332.779375 205.38425 334.779375 205.38425 
z
" style="fill: #ffffff; opacity: 0.8; stroke: #cccccc; stroke-linejoin: miter"/>
    </g>
    <g id="line2d_37">
     <path d="M 336.779375 151.770188 
L 346.779375 151.770188 
L 356.779375 151.770188 
" style="fill: none; stroke: #0000ff; stroke-width: 1.5; stroke-linecap: square"/>
    </g>
    <g id="text_20">
     <!-- average -->
     <g transform="translate(364.779375 155.270188) scale(0.1 -0.1)">
      <use xlink:href="#DejaVuSans-61"/>
      <use xlink:href="#DejaVuSans-76" x="61.279297"/>
      <use xlink:href="#DejaVuSans-65" x="120.458984"/>
      <use xlink:href="#DejaVuSans-72" x="181.982422"/>
      <use xlink:href="#DejaVuSans-61" x="223.095703"/>
      <use xlink:href="#DejaVuSans-67" x="284.375"/>
      <use xlink:href="#DejaVuSans-65" x="347.851562"/>
     </g>
    </g>
    <g id="line2d_38">
     <path d="M 336.779375 166.448313 
L 346.779375 166.448313 
L 356.779375 166.448313 
" style="fill: none; stroke-dasharray: 9.6,2.4,1.5,2.4; stroke-dashoffset: 0; stroke: #008000; stroke-width: 1.5"/>
    </g>
    <g id="text_21">
     <!-- -1 sd -->
     <g transform="translate(364.779375 169.948313) scale(0.1 -0.1)">
      <defs>
       <path id="DejaVuSans-2d" d="M 313 2009 
L 1997 2009 
L 1997 1497 
L 313 1497 
L 313 2009 
z
" transform="scale(0.015625)"/>
      </defs>
      <use xlink:href="#DejaVuSans-2d"/>
      <use xlink:href="#DejaVuSans-31" x="36.083984"/>
      <use xlink:href="#DejaVuSans-20" x="99.707031"/>
      <use xlink:href="#DejaVuSans-73" x="131.494141"/>
      <use xlink:href="#DejaVuSans-64" x="183.59375"/>
     </g>
    </g>
    <g id="line2d_39">
     <path d="M 336.779375 181.126438 
L 346.779375 181.126438 
L 356.779375 181.126438 
" style="fill: none; stroke-dasharray: 9.6,2.4,1.5,2.4; stroke-dashoffset: 0; stroke: #008000; stroke-width: 1.5"/>
    </g>
    <g id="text_22">
     <!-- +1 sd -->
     <g transform="translate(364.779375 184.626438) scale(0.1 -0.1)">
      <defs>
       <path id="DejaVuSans-2b" d="M 2944 4013 
L 2944 2272 
L 4684 2272 
L 4684 1741 
L 2944 1741 
L 2944 0 
L 2419 0 
L 2419 1741 
L 678 1741 
L 678 2272 
L 2419 2272 
L 2419 4013 
L 2944 4013 
z
" transform="scale(0.015625)"/>
      </defs>
      <use xlink:href="#DejaVuSans-2b"/>
      <use xlink:href="#DejaVuSans-31" x="83.789062"/>
      <use xlink:href="#DejaVuSans-20" x="147.412109"/>
      <use xlink:href="#DejaVuSans-73" x="179.199219"/>
      <use xlink:href="#DejaVuSans-64" x="231.298828"/>
     </g>
    </g>
    <g id="line2d_40">
     <path d="M 336.779375 195.804563 
L 346.779375 195.804563 
L 356.779375 195.804563 
" style="fill: none; stroke: #ff0000; stroke-width: 1.5; stroke-linecap: square"/>
    </g>
    <g id="text_23">
     <!-- best -->
     <g transform="translate(364.779375 199.304563) scale(0.1 -0.1)">
      <use xlink:href="#DejaVuSans-62"/>
      <use xlink:href="#DejaVuSans-65" x="63.476562"/>
      <use xlink:href="#DejaVuSans-73" x="125"/>
      <use xlink:href="#DejaVuSans-74" x="177.099609"/>
     </g>
    </g>
   </g>
  </g>
 </g>
 <defs>
  <clipPath id="pdafddc9d8f">
   <rect x="57.6" y="41.472" width="357.12" height="266.112"/>
  </clipPath>
 </defs>
</svg>
