<?xml version="1.0" encoding="utf-8" standalone="no"?>
<!DOCTYPE svg PUBLIC "-//W3C//DTD SVG 1.1//EN"
  "http://www.w3.org/Graphics/SVG/1.1/DTD/svg11.dtd">
<svg xmlns:xlink="http://www.w3.org/1999/xlink" width="460.8pt" height="345.6pt" viewBox="0 0 460.8 345.6" xmlns="http://www.w3.org/2000/svg" version="1.1">
 <metadata>
  <rdf:RDF xmlns:dc="http://purl.org/dc/elements/1.1/" xmlns:cc="http://creativecommons.org/ns#" xmlns:rdf="http://www.w3.org/1999/02/22-rdf-syntax-ns#">
   <cc:Work>
    <dc:type rdf:resource="http://purl.org/dc/dcmitype/StillImage"/>
    <dc:date>2024-08-04T00:44:38.528207</dc:date>
    <dc:format>image/svg+xml</dc:format>
    <dc:creator>
     <cc:Agent>
      <dc:title>Matplotlib v3.8.4, https://matplotlib.org/</dc:title>
     </cc:Agent>
    </dc:creator>
   </cc:Work>
  </rdf:RDF>
 </metadata>
 <defs>
  <style type="text/css">*{stroke-linejoin: round; stroke-linecap: butt}</style>
 </defs>
 <g id="figure_1">
  <g id="patch_1">
   <path d="M 0 345.6 
L 460.8 345.6 
L 460.8 0 
L 0 0 
z
" style="fill: #ffffff"/>
  </g>
  <g id="axes_1">
   <g id="patch_2">
    <path d="M 57.6 307.584 
L 414.72 307.584 
L 414.72 41.472 
L 57.6 41.472 
z
" style="fill: #ffffff"/>
   </g>
   <g id="matplotlib.axis_1">
    <g id="xtick_1">
     <g id="line2d_1">
      <path d="M 73.832727 307.584 
L 73.832727 41.472 
" clip-path="url(#p304cc4dcb2)" style="fill: none; stroke: #b0b0b0; stroke-width: 0.8; stroke-linecap: square"/>
     </g>
     <g id="line2d_2">
      <defs>
       <path id="mc0a7c45877" d="M 0 0 
L 0 3.5 
" style="stroke: #000000; stroke-width: 0.8"/>
      </defs>
      <g>
       <use xlink:href="#mc0a7c45877" x="73.832727" y="307.584" style="stroke: #000000; stroke-width: 0.8"/>
      </g>
     </g>
     <g id="text_1">
      <!-- 0 -->
      <g transform="translate(70.651477 322.182437) scale(0.1 -0.1)">
       <defs>
        <path id="DejaVuSans-30" d="M 2034 4250 
Q 1547 4250 1301 3770 
Q 1056 3291 1056 2328 
Q 1056 1369 1301 889 
Q 1547 409 2034 409 
Q 2525 409 2770 889 
Q 3016 1369 3016 2328 
Q 3016 3291 2770 3770 
Q 2525 4250 2034 4250 
z
M 2034 4750 
Q 2819 4750 3233 4129 
Q 3647 3509 3647 2328 
Q 3647 1150 3233 529 
Q 2819 -91 2034 -91 
Q 1250 -91 836 529 
Q 422 1150 422 2328 
Q 422 3509 836 4129 
Q 1250 4750 2034 4750 
z
" transform="scale(0.015625)"/>
       </defs>
       <use xlink:href="#DejaVuSans-30"/>
      </g>
     </g>
    </g>
    <g id="xtick_2">
     <g id="line2d_3">
      <path d="M 114.618474 307.584 
L 114.618474 41.472 
" clip-path="url(#p304cc4dcb2)" style="fill: none; stroke: #b0b0b0; stroke-width: 0.8; stroke-linecap: square"/>
     </g>
     <g id="line2d_4">
      <g>
       <use xlink:href="#mc0a7c45877" x="114.618474" y="307.584" style="stroke: #000000; stroke-width: 0.8"/>
      </g>
     </g>
     <g id="text_2">
      <!-- 25 -->
      <g transform="translate(108.255974 322.182437) scale(0.1 -0.1)">
       <defs>
        <path id="DejaVuSans-32" d="M 1228 531 
L 3431 531 
L 3431 0 
L 469 0 
L 469 531 
Q 828 903 1448 1529 
Q 2069 2156 2228 2338 
Q 2531 2678 2651 2914 
Q 2772 3150 2772 3378 
Q 2772 3750 2511 3984 
Q 2250 4219 1831 4219 
Q 1534 4219 1204 4116 
Q 875 4013 500 3803 
L 500 4441 
Q 881 4594 1212 4672 
Q 1544 4750 1819 4750 
Q 2544 4750 2975 4387 
Q 3406 4025 3406 3419 
Q 3406 3131 3298 2873 
Q 3191 2616 2906 2266 
Q 2828 2175 2409 1742 
Q 1991 1309 1228 531 
z
" transform="scale(0.015625)"/>
        <path id="DejaVuSans-35" d="M 691 4666 
L 3169 4666 
L 3169 4134 
L 1269 4134 
L 1269 2991 
Q 1406 3038 1543 3061 
Q 1681 3084 1819 3084 
Q 2600 3084 3056 2656 
Q 3513 2228 3513 1497 
Q 3513 744 3044 326 
Q 2575 -91 1722 -91 
Q 1428 -91 1123 -41 
Q 819 9 494 109 
L 494 744 
Q 775 591 1075 516 
Q 1375 441 1709 441 
Q 2250 441 2565 725 
Q 2881 1009 2881 1497 
Q 2881 1984 2565 2268 
Q 2250 2553 1709 2553 
Q 1456 2553 1204 2497 
Q 953 2441 691 2322 
L 691 4666 
z
" transform="scale(0.015625)"/>
       </defs>
       <use xlink:href="#DejaVuSans-32"/>
       <use xlink:href="#DejaVuSans-35" x="63.623047"/>
      </g>
     </g>
    </g>
    <g id="xtick_3">
     <g id="line2d_5">
      <path d="M 155.404221 307.584 
L 155.404221 41.472 
" clip-path="url(#p304cc4dcb2)" style="fill: none; stroke: #b0b0b0; stroke-width: 0.8; stroke-linecap: square"/>
     </g>
     <g id="line2d_6">
      <g>
       <use xlink:href="#mc0a7c45877" x="155.404221" y="307.584" style="stroke: #000000; stroke-width: 0.8"/>
      </g>
     </g>
     <g id="text_3">
      <!-- 50 -->
      <g transform="translate(149.041721 322.182437) scale(0.1 -0.1)">
       <use xlink:href="#DejaVuSans-35"/>
       <use xlink:href="#DejaVuSans-30" x="63.623047"/>
      </g>
     </g>
    </g>
    <g id="xtick_4">
     <g id="line2d_7">
      <path d="M 196.189968 307.584 
L 196.189968 41.472 
" clip-path="url(#p304cc4dcb2)" style="fill: none; stroke: #b0b0b0; stroke-width: 0.8; stroke-linecap: square"/>
     </g>
     <g id="line2d_8">
      <g>
       <use xlink:href="#mc0a7c45877" x="196.189968" y="307.584" style="stroke: #000000; stroke-width: 0.8"/>
      </g>
     </g>
     <g id="text_4">
      <!-- 75 -->
      <g transform="translate(189.827468 322.182437) scale(0.1 -0.1)">
       <defs>
        <path id="DejaVuSans-37" d="M 525 4666 
L 3525 4666 
L 3525 4397 
L 1831 0 
L 1172 0 
L 2766 4134 
L 525 4134 
L 525 4666 
z
" transform="scale(0.015625)"/>
       </defs>
       <use xlink:href="#DejaVuSans-37"/>
       <use xlink:href="#DejaVuSans-35" x="63.623047"/>
      </g>
     </g>
    </g>
    <g id="xtick_5">
     <g id="line2d_9">
      <path d="M 236.975715 307.584 
L 236.975715 41.472 
" clip-path="url(#p304cc4dcb2)" style="fill: none; stroke: #b0b0b0; stroke-width: 0.8; stroke-linecap: square"/>
     </g>
     <g id="line2d_10">
      <g>
       <use xlink:href="#mc0a7c45877" x="236.975715" y="307.584" style="stroke: #000000; stroke-width: 0.8"/>
      </g>
     </g>
     <g id="text_5">
      <!-- 100 -->
      <g transform="translate(227.431965 322.182437) scale(0.1 -0.1)">
       <defs>
        <path id="DejaVuSans-31" d="M 794 531 
L 1825 531 
L 1825 4091 
L 703 3866 
L 703 4441 
L 1819 4666 
L 2450 4666 
L 2450 531 
L 3481 531 
L 3481 0 
L 794 0 
L 794 531 
z
" transform="scale(0.015625)"/>
       </defs>
       <use xlink:href="#DejaVuSans-31"/>
       <use xlink:href="#DejaVuSans-30" x="63.623047"/>
       <use xlink:href="#DejaVuSans-30" x="127.246094"/>
      </g>
     </g>
    </g>
    <g id="xtick_6">
     <g id="line2d_11">
      <path d="M 277.761462 307.584 
L 277.761462 41.472 
" clip-path="url(#p304cc4dcb2)" style="fill: none; stroke: #b0b0b0; stroke-width: 0.8; stroke-linecap: square"/>
     </g>
     <g id="line2d_12">
      <g>
       <use xlink:href="#mc0a7c45877" x="277.761462" y="307.584" style="stroke: #000000; stroke-width: 0.8"/>
      </g>
     </g>
     <g id="text_6">
      <!-- 125 -->
      <g transform="translate(268.217712 322.182437) scale(0.1 -0.1)">
       <use xlink:href="#DejaVuSans-31"/>
       <use xlink:href="#DejaVuSans-32" x="63.623047"/>
       <use xlink:href="#DejaVuSans-35" x="127.246094"/>
      </g>
     </g>
    </g>
    <g id="xtick_7">
     <g id="line2d_13">
      <path d="M 318.547209 307.584 
L 318.547209 41.472 
" clip-path="url(#p304cc4dcb2)" style="fill: none; stroke: #b0b0b0; stroke-width: 0.8; stroke-linecap: square"/>
     </g>
     <g id="line2d_14">
      <g>
       <use xlink:href="#mc0a7c45877" x="318.547209" y="307.584" style="stroke: #000000; stroke-width: 0.8"/>
      </g>
     </g>
     <g id="text_7">
      <!-- 150 -->
      <g transform="translate(309.003459 322.182437) scale(0.1 -0.1)">
       <use xlink:href="#DejaVuSans-31"/>
       <use xlink:href="#DejaVuSans-35" x="63.623047"/>
       <use xlink:href="#DejaVuSans-30" x="127.246094"/>
      </g>
     </g>
    </g>
    <g id="xtick_8">
     <g id="line2d_15">
      <path d="M 359.332956 307.584 
L 359.332956 41.472 
" clip-path="url(#p304cc4dcb2)" style="fill: none; stroke: #b0b0b0; stroke-width: 0.8; stroke-linecap: square"/>
     </g>
     <g id="line2d_16">
      <g>
       <use xlink:href="#mc0a7c45877" x="359.332956" y="307.584" style="stroke: #000000; stroke-width: 0.8"/>
      </g>
     </g>
     <g id="text_8">
      <!-- 175 -->
      <g transform="translate(349.789206 322.182437) scale(0.1 -0.1)">
       <use xlink:href="#DejaVuSans-31"/>
       <use xlink:href="#DejaVuSans-37" x="63.623047"/>
       <use xlink:href="#DejaVuSans-35" x="127.246094"/>
      </g>
     </g>
    </g>
    <g id="xtick_9">
     <g id="line2d_17">
      <path d="M 400.118703 307.584 
L 400.118703 41.472 
" clip-path="url(#p304cc4dcb2)" style="fill: none; stroke: #b0b0b0; stroke-width: 0.8; stroke-linecap: square"/>
     </g>
     <g id="line2d_18">
      <g>
       <use xlink:href="#mc0a7c45877" x="400.118703" y="307.584" style="stroke: #000000; stroke-width: 0.8"/>
      </g>
     </g>
     <g id="text_9">
      <!-- 200 -->
      <g transform="translate(390.574953 322.182437) scale(0.1 -0.1)">
       <use xlink:href="#DejaVuSans-32"/>
       <use xlink:href="#DejaVuSans-30" x="63.623047"/>
       <use xlink:href="#DejaVuSans-30" x="127.246094"/>
      </g>
     </g>
    </g>
    <g id="text_10">
     <!-- Generations -->
     <g transform="translate(205.662344 335.860562) scale(0.1 -0.1)">
      <defs>
       <path id="DejaVuSans-47" d="M 3809 666 
L 3809 1919 
L 2778 1919 
L 2778 2438 
L 4434 2438 
L 4434 434 
Q 4069 175 3628 42 
Q 3188 -91 2688 -91 
Q 1594 -91 976 548 
Q 359 1188 359 2328 
Q 359 3472 976 4111 
Q 1594 4750 2688 4750 
Q 3144 4750 3555 4637 
Q 3966 4525 4313 4306 
L 4313 3634 
Q 3963 3931 3569 4081 
Q 3175 4231 2741 4231 
Q 1884 4231 1454 3753 
Q 1025 3275 1025 2328 
Q 1025 1384 1454 906 
Q 1884 428 2741 428 
Q 3075 428 3337 486 
Q 3600 544 3809 666 
z
" transform="scale(0.015625)"/>
       <path id="DejaVuSans-65" d="M 3597 1894 
L 3597 1613 
L 953 1613 
Q 991 1019 1311 708 
Q 1631 397 2203 397 
Q 2534 397 2845 478 
Q 3156 559 3463 722 
L 3463 178 
Q 3153 47 2828 -22 
Q 2503 -91 2169 -91 
Q 1331 -91 842 396 
Q 353 884 353 1716 
Q 353 2575 817 3079 
Q 1281 3584 2069 3584 
Q 2775 3584 3186 3129 
Q 3597 2675 3597 1894 
z
M 3022 2063 
Q 3016 2534 2758 2815 
Q 2500 3097 2075 3097 
Q 1594 3097 1305 2825 
Q 1016 2553 972 2059 
L 3022 2063 
z
" transform="scale(0.015625)"/>
       <path id="DejaVuSans-6e" d="M 3513 2113 
L 3513 0 
L 2938 0 
L 2938 2094 
Q 2938 2591 2744 2837 
Q 2550 3084 2163 3084 
Q 1697 3084 1428 2787 
Q 1159 2491 1159 1978 
L 1159 0 
L 581 0 
L 581 3500 
L 1159 3500 
L 1159 2956 
Q 1366 3272 1645 3428 
Q 1925 3584 2291 3584 
Q 2894 3584 3203 3211 
Q 3513 2838 3513 2113 
z
" transform="scale(0.015625)"/>
       <path id="DejaVuSans-72" d="M 2631 2963 
Q 2534 3019 2420 3045 
Q 2306 3072 2169 3072 
Q 1681 3072 1420 2755 
Q 1159 2438 1159 1844 
L 1159 0 
L 581 0 
L 581 3500 
L 1159 3500 
L 1159 2956 
Q 1341 3275 1631 3429 
Q 1922 3584 2338 3584 
Q 2397 3584 2469 3576 
Q 2541 3569 2628 3553 
L 2631 2963 
z
" transform="scale(0.015625)"/>
       <path id="DejaVuSans-61" d="M 2194 1759 
Q 1497 1759 1228 1600 
Q 959 1441 959 1056 
Q 959 750 1161 570 
Q 1363 391 1709 391 
Q 2188 391 2477 730 
Q 2766 1069 2766 1631 
L 2766 1759 
L 2194 1759 
z
M 3341 1997 
L 3341 0 
L 2766 0 
L 2766 531 
Q 2569 213 2275 61 
Q 1981 -91 1556 -91 
Q 1019 -91 701 211 
Q 384 513 384 1019 
Q 384 1609 779 1909 
Q 1175 2209 1959 2209 
L 2766 2209 
L 2766 2266 
Q 2766 2663 2505 2880 
Q 2244 3097 1772 3097 
Q 1472 3097 1187 3025 
Q 903 2953 641 2809 
L 641 3341 
Q 956 3463 1253 3523 
Q 1550 3584 1831 3584 
Q 2591 3584 2966 3190 
Q 3341 2797 3341 1997 
z
" transform="scale(0.015625)"/>
       <path id="DejaVuSans-74" d="M 1172 4494 
L 1172 3500 
L 2356 3500 
L 2356 3053 
L 1172 3053 
L 1172 1153 
Q 1172 725 1289 603 
Q 1406 481 1766 481 
L 2356 481 
L 2356 0 
L 1766 0 
Q 1100 0 847 248 
Q 594 497 594 1153 
L 594 3053 
L 172 3053 
L 172 3500 
L 594 3500 
L 594 4494 
L 1172 4494 
z
" transform="scale(0.015625)"/>
       <path id="DejaVuSans-69" d="M 603 3500 
L 1178 3500 
L 1178 0 
L 603 0 
L 603 3500 
z
M 603 4863 
L 1178 4863 
L 1178 4134 
L 603 4134 
L 603 4863 
z
" transform="scale(0.015625)"/>
       <path id="DejaVuSans-6f" d="M 1959 3097 
Q 1497 3097 1228 2736 
Q 959 2375 959 1747 
Q 959 1119 1226 758 
Q 1494 397 1959 397 
Q 2419 397 2687 759 
Q 2956 1122 2956 1747 
Q 2956 2369 2687 2733 
Q 2419 3097 1959 3097 
z
M 1959 3584 
Q 2709 3584 3137 3096 
Q 3566 2609 3566 1747 
Q 3566 888 3137 398 
Q 2709 -91 1959 -91 
Q 1206 -91 779 398 
Q 353 888 353 1747 
Q 353 2609 779 3096 
Q 1206 3584 1959 3584 
z
" transform="scale(0.015625)"/>
       <path id="DejaVuSans-73" d="M 2834 3397 
L 2834 2853 
Q 2591 2978 2328 3040 
Q 2066 3103 1784 3103 
Q 1356 3103 1142 2972 
Q 928 2841 928 2578 
Q 928 2378 1081 2264 
Q 1234 2150 1697 2047 
L 1894 2003 
Q 2506 1872 2764 1633 
Q 3022 1394 3022 966 
Q 3022 478 2636 193 
Q 2250 -91 1575 -91 
Q 1294 -91 989 -36 
Q 684 19 347 128 
L 347 722 
Q 666 556 975 473 
Q 1284 391 1588 391 
Q 1994 391 2212 530 
Q 2431 669 2431 922 
Q 2431 1156 2273 1281 
Q 2116 1406 1581 1522 
L 1381 1569 
Q 847 1681 609 1914 
Q 372 2147 372 2553 
Q 372 3047 722 3315 
Q 1072 3584 1716 3584 
Q 2034 3584 2315 3537 
Q 2597 3491 2834 3397 
z
" transform="scale(0.015625)"/>
      </defs>
      <use xlink:href="#DejaVuSans-47"/>
      <use xlink:href="#DejaVuSans-65" x="77.490234"/>
      <use xlink:href="#DejaVuSans-6e" x="139.013672"/>
      <use xlink:href="#DejaVuSans-65" x="202.392578"/>
      <use xlink:href="#DejaVuSans-72" x="263.916016"/>
      <use xlink:href="#DejaVuSans-61" x="305.029297"/>
      <use xlink:href="#DejaVuSans-74" x="366.308594"/>
      <use xlink:href="#DejaVuSans-69" x="405.517578"/>
      <use xlink:href="#DejaVuSans-6f" x="433.300781"/>
      <use xlink:href="#DejaVuSans-6e" x="494.482422"/>
      <use xlink:href="#DejaVuSans-73" x="557.861328"/>
     </g>
    </g>
   </g>
   <g id="matplotlib.axis_2">
    <g id="ytick_1">
     <g id="line2d_19">
      <path d="M 57.6 300.471324 
L 414.72 300.471324 
" clip-path="url(#p304cc4dcb2)" style="fill: none; stroke: #b0b0b0; stroke-width: 0.8; stroke-linecap: square"/>
     </g>
     <g id="line2d_20">
      <defs>
       <path id="m2dd9dcd7a2" d="M 0 0 
L -3.5 0 
" style="stroke: #000000; stroke-width: 0.8"/>
      </defs>
      <g>
       <use xlink:href="#m2dd9dcd7a2" x="57.6" y="300.471324" style="stroke: #000000; stroke-width: 0.8"/>
      </g>
     </g>
     <g id="text_11">
      <!-- −2250 -->
      <g transform="translate(16.770313 304.270543) scale(0.1 -0.1)">
       <defs>
        <path id="DejaVuSans-2212" d="M 678 2272 
L 4684 2272 
L 4684 1741 
L 678 1741 
L 678 2272 
z
" transform="scale(0.015625)"/>
       </defs>
       <use xlink:href="#DejaVuSans-2212"/>
       <use xlink:href="#DejaVuSans-32" x="83.789062"/>
       <use xlink:href="#DejaVuSans-32" x="147.412109"/>
       <use xlink:href="#DejaVuSans-35" x="211.035156"/>
       <use xlink:href="#DejaVuSans-30" x="274.658203"/>
      </g>
     </g>
    </g>
    <g id="ytick_2">
     <g id="line2d_21">
      <path d="M 57.6 267.890554 
L 414.72 267.890554 
" clip-path="url(#p304cc4dcb2)" style="fill: none; stroke: #b0b0b0; stroke-width: 0.8; stroke-linecap: square"/>
     </g>
     <g id="line2d_22">
      <g>
       <use xlink:href="#m2dd9dcd7a2" x="57.6" y="267.890554" style="stroke: #000000; stroke-width: 0.8"/>
      </g>
     </g>
     <g id="text_12">
      <!-- −2000 -->
      <g transform="translate(16.770313 271.689773) scale(0.1 -0.1)">
       <use xlink:href="#DejaVuSans-2212"/>
       <use xlink:href="#DejaVuSans-32" x="83.789062"/>
       <use xlink:href="#DejaVuSans-30" x="147.412109"/>
       <use xlink:href="#DejaVuSans-30" x="211.035156"/>
       <use xlink:href="#DejaVuSans-30" x="274.658203"/>
      </g>
     </g>
    </g>
    <g id="ytick_3">
     <g id="line2d_23">
      <path d="M 57.6 235.309784 
L 414.72 235.309784 
" clip-path="url(#p304cc4dcb2)" style="fill: none; stroke: #b0b0b0; stroke-width: 0.8; stroke-linecap: square"/>
     </g>
     <g id="line2d_24">
      <g>
       <use xlink:href="#m2dd9dcd7a2" x="57.6" y="235.309784" style="stroke: #000000; stroke-width: 0.8"/>
      </g>
     </g>
     <g id="text_13">
      <!-- −1750 -->
      <g transform="translate(16.770313 239.109002) scale(0.1 -0.1)">
       <use xlink:href="#DejaVuSans-2212"/>
       <use xlink:href="#DejaVuSans-31" x="83.789062"/>
       <use xlink:href="#DejaVuSans-37" x="147.412109"/>
       <use xlink:href="#DejaVuSans-35" x="211.035156"/>
       <use xlink:href="#DejaVuSans-30" x="274.658203"/>
      </g>
     </g>
    </g>
    <g id="ytick_4">
     <g id="line2d_25">
      <path d="M 57.6 202.729013 
L 414.72 202.729013 
" clip-path="url(#p304cc4dcb2)" style="fill: none; stroke: #b0b0b0; stroke-width: 0.8; stroke-linecap: square"/>
     </g>
     <g id="line2d_26">
      <g>
       <use xlink:href="#m2dd9dcd7a2" x="57.6" y="202.729013" style="stroke: #000000; stroke-width: 0.8"/>
      </g>
     </g>
     <g id="text_14">
      <!-- −1500 -->
      <g transform="translate(16.770313 206.528232) scale(0.1 -0.1)">
       <use xlink:href="#DejaVuSans-2212"/>
       <use xlink:href="#DejaVuSans-31" x="83.789062"/>
       <use xlink:href="#DejaVuSans-35" x="147.412109"/>
       <use xlink:href="#DejaVuSans-30" x="211.035156"/>
       <use xlink:href="#DejaVuSans-30" x="274.658203"/>
      </g>
     </g>
    </g>
    <g id="ytick_5">
     <g id="line2d_27">
      <path d="M 57.6 170.148243 
L 414.72 170.148243 
" clip-path="url(#p304cc4dcb2)" style="fill: none; stroke: #b0b0b0; stroke-width: 0.8; stroke-linecap: square"/>
     </g>
     <g id="line2d_28">
      <g>
       <use xlink:href="#m2dd9dcd7a2" x="57.6" y="170.148243" style="stroke: #000000; stroke-width: 0.8"/>
      </g>
     </g>
     <g id="text_15">
      <!-- −1250 -->
      <g transform="translate(16.770313 173.947462) scale(0.1 -0.1)">
       <use xlink:href="#DejaVuSans-2212"/>
       <use xlink:href="#DejaVuSans-31" x="83.789062"/>
       <use xlink:href="#DejaVuSans-32" x="147.412109"/>
       <use xlink:href="#DejaVuSans-35" x="211.035156"/>
       <use xlink:href="#DejaVuSans-30" x="274.658203"/>
      </g>
     </g>
    </g>
    <g id="ytick_6">
     <g id="line2d_29">
      <path d="M 57.6 137.567472 
L 414.72 137.567472 
" clip-path="url(#p304cc4dcb2)" style="fill: none; stroke: #b0b0b0; stroke-width: 0.8; stroke-linecap: square"/>
     </g>
     <g id="line2d_30">
      <g>
       <use xlink:href="#m2dd9dcd7a2" x="57.6" y="137.567472" style="stroke: #000000; stroke-width: 0.8"/>
      </g>
     </g>
     <g id="text_16">
      <!-- −1000 -->
      <g transform="translate(16.770313 141.366691) scale(0.1 -0.1)">
       <use xlink:href="#DejaVuSans-2212"/>
       <use xlink:href="#DejaVuSans-31" x="83.789062"/>
       <use xlink:href="#DejaVuSans-30" x="147.412109"/>
       <use xlink:href="#DejaVuSans-30" x="211.035156"/>
       <use xlink:href="#DejaVuSans-30" x="274.658203"/>
      </g>
     </g>
    </g>
    <g id="ytick_7">
     <g id="line2d_31">
      <path d="M 57.6 104.986702 
L 414.72 104.986702 
" clip-path="url(#p304cc4dcb2)" style="fill: none; stroke: #b0b0b0; stroke-width: 0.8; stroke-linecap: square"/>
     </g>
     <g id="line2d_32">
      <g>
       <use xlink:href="#m2dd9dcd7a2" x="57.6" y="104.986702" style="stroke: #000000; stroke-width: 0.8"/>
      </g>
     </g>
     <g id="text_17">
      <!-- −750 -->
      <g transform="translate(23.132812 108.785921) scale(0.1 -0.1)">
       <use xlink:href="#DejaVuSans-2212"/>
       <use xlink:href="#DejaVuSans-37" x="83.789062"/>
       <use xlink:href="#DejaVuSans-35" x="147.412109"/>
       <use xlink:href="#DejaVuSans-30" x="211.035156"/>
      </g>
     </g>
    </g>
    <g id="ytick_8">
     <g id="line2d_33">
      <path d="M 57.6 72.405932 
L 414.72 72.405932 
" clip-path="url(#p304cc4dcb2)" style="fill: none; stroke: #b0b0b0; stroke-width: 0.8; stroke-linecap: square"/>
     </g>
     <g id="line2d_34">
      <g>
       <use xlink:href="#m2dd9dcd7a2" x="57.6" y="72.405932" style="stroke: #000000; stroke-width: 0.8"/>
      </g>
     </g>
     <g id="text_18">
      <!-- −500 -->
      <g transform="translate(23.132812 76.20515) scale(0.1 -0.1)">
       <use xlink:href="#DejaVuSans-2212"/>
       <use xlink:href="#DejaVuSans-35" x="83.789062"/>
       <use xlink:href="#DejaVuSans-30" x="147.412109"/>
       <use xlink:href="#DejaVuSans-30" x="211.035156"/>
      </g>
     </g>
    </g>
    <g id="text_19">
     <!-- Fitness -->
     <g transform="translate(10.690625 191.845187) rotate(-90) scale(0.1 -0.1)">
      <defs>
       <path id="DejaVuSans-46" d="M 628 4666 
L 3309 4666 
L 3309 4134 
L 1259 4134 
L 1259 2759 
L 3109 2759 
L 3109 2228 
L 1259 2228 
L 1259 0 
L 628 0 
L 628 4666 
z
" transform="scale(0.015625)"/>
      </defs>
      <use xlink:href="#DejaVuSans-46"/>
      <use xlink:href="#DejaVuSans-69" x="50.269531"/>
      <use xlink:href="#DejaVuSans-74" x="78.052734"/>
      <use xlink:href="#DejaVuSans-6e" x="117.261719"/>
      <use xlink:href="#DejaVuSans-65" x="180.640625"/>
      <use xlink:href="#DejaVuSans-73" x="242.164062"/>
      <use xlink:href="#DejaVuSans-73" x="294.263672"/>
     </g>
    </g>
   </g>
   <g id="line2d_35">
    <path d="M 73.832727 258.91328 
L 75.464157 254.498703 
L 77.095587 249.155187 
L 78.727017 250.192115 
L 80.358447 251.427711 
L 81.989877 248.114644 
L 83.621307 249.080053 
L 85.252736 248.597721 
L 86.884166 251.771916 
L 88.515596 249.149602 
L 90.147026 249.736581 
L 91.778456 247.378135 
L 93.409886 247.924764 
L 95.041316 247.898795 
L 96.672746 248.788526 
L 98.304175 246.238615 
L 99.935605 246.954523 
L 101.567035 246.326328 
L 103.198465 246.062577 
L 104.829895 246.622667 
L 106.461325 245.212569 
L 108.092755 247.196928 
L 109.724185 243.937758 
L 111.355614 245.284929 
L 112.987044 247.720692 
L 114.618474 247.001453 
L 116.249904 246.547402 
L 117.881334 247.98511 
L 119.512764 248.079242 
L 121.144194 248.398094 
L 122.775624 246.096855 
L 124.407053 244.851873 
L 126.038483 245.559374 
L 127.669913 242.8769 
L 129.301343 244.969554 
L 130.932773 244.102344 
L 132.564203 244.571034 
L 134.195633 245.298351 
L 135.827063 246.793207 
L 137.458492 246.178354 
L 139.089922 245.099839 
L 140.721352 245.26131 
L 142.352782 245.981026 
L 143.984212 244.075202 
L 145.615642 246.889583 
L 147.247072 247.458996 
L 148.878502 244.491523 
L 150.509931 247.669561 
L 152.141361 247.990629 
L 153.772791 243.856865 
L 155.404221 245.45268 
L 157.035651 246.543941 
L 158.667081 246.156601 
L 160.298511 246.0858 
L 161.929941 240.820341 
L 163.56137 243.301173 
L 165.1928 241.313192 
L 166.82423 244.729896 
L 168.45566 243.282307 
L 170.08709 243.954129 
L 171.71852 242.193621 
L 173.34995 243.410169 
L 174.98138 242.590318 
L 176.61281 246.179243 
L 178.244239 243.260456 
L 179.875669 238.544348 
L 181.507099 242.359075 
L 183.138529 242.688239 
L 184.769959 241.28599 
L 186.401389 241.705604 
L 188.032819 244.3869 
L 189.664249 239.107459 
L 191.295678 239.901996 
L 192.927108 242.046483 
L 194.558538 244.741838 
L 196.189968 243.674515 
L 197.821398 245.316681 
L 199.452828 245.029557 
L 201.084258 245.448844 
L 202.715688 243.277778 
L 204.347117 243.479184 
L 205.978547 243.867125 
L 207.609977 246.65445 
L 209.241407 240.980528 
L 210.872837 243.428179 
L 212.504267 245.395738 
L 214.135697 244.221666 
L 215.767127 245.242987 
L 217.398556 243.152283 
L 219.029986 248.35578 
L 220.661416 241.564272 
L 222.292846 243.381467 
L 223.924276 242.472656 
L 225.555706 244.343627 
L 227.187136 244.62945 
L 228.818566 247.132444 
L 230.449995 242.36007 
L 232.081425 248.145002 
L 233.712855 249.73414 
L 235.344285 248.439793 
L 236.975715 248.053699 
L 238.607145 247.461776 
L 240.238575 243.14688 
L 241.870005 246.229168 
L 243.501434 243.233716 
L 245.132864 246.9931 
L 246.764294 247.238726 
L 248.395724 245.100104 
L 250.027154 245.061004 
L 251.658584 243.724957 
L 253.290014 245.189326 
L 254.921444 236.518875 
L 256.552873 241.485392 
L 258.184303 244.379852 
L 259.815733 242.16363 
L 261.447163 242.455584 
L 263.078593 241.975696 
L 264.710023 238.484922 
L 266.341453 234.386784 
L 267.972883 241.62322 
L 269.604312 237.602436 
L 271.235742 241.958319 
L 272.867172 241.541582 
L 274.498602 235.688192 
L 276.130032 239.869193 
L 277.761462 243.692352 
L 279.392892 243.859929 
L 281.024322 243.292735 
L 282.655751 238.65524 
L 284.287181 242.35565 
L 285.918611 245.505141 
L 287.550041 243.129471 
L 289.181471 246.390674 
L 290.812901 245.919737 
L 292.444331 247.733456 
L 294.075761 243.987782 
L 295.70719 245.113106 
L 297.33862 248.344573 
L 298.97005 246.107007 
L 302.23291 249.419985 
L 303.86434 247.410616 
L 305.49577 244.846956 
L 307.1272 247.557381 
L 308.75863 246.431863 
L 310.390059 246.779819 
L 312.021489 245.251024 
L 313.652919 249.144762 
L 315.284349 246.708953 
L 316.915779 243.698068 
L 318.547209 246.063674 
L 320.178639 248.99327 
L 321.810069 248.693582 
L 323.441498 244.471534 
L 325.072928 245.368251 
L 326.704358 245.175888 
L 328.335788 241.319906 
L 329.967218 234.659278 
L 331.598648 240.515456 
L 333.230078 238.47247 
L 334.861508 240.914158 
L 336.492937 239.015367 
L 338.124367 236.905977 
L 339.755797 239.490459 
L 341.387227 237.691026 
L 343.018657 236.767556 
L 344.650087 238.424732 
L 346.281517 237.377371 
L 347.912947 237.200059 
L 349.544376 239.093627 
L 351.175806 242.60728 
L 352.807236 240.442973 
L 354.438666 243.368826 
L 356.070096 243.025386 
L 357.701526 241.261292 
L 359.332956 243.697738 
L 360.964386 243.763304 
L 362.595815 243.39802 
L 364.227245 244.345716 
L 365.858675 241.402803 
L 367.490105 242.157353 
L 369.121535 245.581009 
L 370.752965 247.309978 
L 372.384395 245.746202 
L 374.015825 247.282862 
L 377.278684 247.086684 
L 378.910114 243.660039 
L 380.541544 246.670825 
L 382.172974 247.048116 
L 383.804404 245.573518 
L 385.435834 246.307728 
L 387.067264 248.207935 
L 388.698693 249.349861 
L 390.330123 246.068078 
L 391.961553 243.277867 
L 393.592983 241.387583 
L 395.224413 246.235839 
L 396.855843 245.999322 
L 398.487273 244.392061 
L 398.487273 244.392061 
" clip-path="url(#p304cc4dcb2)" style="fill: none; stroke: #0000ff; stroke-width: 1.5; stroke-linecap: square"/>
   </g>
   <g id="line2d_36">
    <path d="M 73.832727 286.16182 
L 75.464157 287.932235 
L 77.095587 286.19715 
L 78.727017 282.52515 
L 80.358447 278.252304 
L 81.989877 277.771559 
L 83.621307 277.843585 
L 85.252736 276.807527 
L 86.884166 281.012693 
L 88.515596 281.249358 
L 90.147026 278.823096 
L 91.778456 281.778262 
L 93.409886 282.526949 
L 95.041316 279.951655 
L 96.672746 280.067591 
L 98.304175 277.238446 
L 99.935605 280.071194 
L 101.567035 283.624294 
L 103.198465 283.990081 
L 104.829895 282.763099 
L 106.461325 281.874723 
L 108.092755 284.17818 
L 109.724185 284.749722 
L 111.355614 284.966857 
L 112.987044 282.583101 
L 114.618474 283.590237 
L 116.249904 282.457914 
L 117.881334 285.231378 
L 119.512764 285.0419 
L 121.144194 284.421644 
L 122.775624 282.230682 
L 124.407053 284.374276 
L 126.038483 286.131952 
L 127.669913 286.842257 
L 129.301343 284.293205 
L 130.932773 287.46181 
L 132.564203 285.208343 
L 134.195633 288.166168 
L 135.827063 282.817075 
L 137.458492 284.778039 
L 139.089922 284.341144 
L 140.721352 284.664896 
L 142.352782 285.772572 
L 143.984212 283.877203 
L 145.615642 285.484074 
L 147.247072 282.441867 
L 148.878502 284.859035 
L 150.509931 280.969225 
L 152.141361 282.155947 
L 153.772791 283.092523 
L 155.404221 284.674935 
L 158.667081 287.300219 
L 160.298511 287.136655 
L 161.929941 285.633077 
L 163.56137 284.369723 
L 165.1928 285.511753 
L 166.82423 287.187534 
L 168.45566 283.572781 
L 170.08709 286.658982 
L 171.71852 285.062648 
L 173.34995 290.048426 
L 174.98138 287.685488 
L 176.61281 288.690715 
L 178.244239 285.355335 
L 179.875669 286.772288 
L 181.507099 287.389391 
L 183.138529 291.045894 
L 184.769959 290.935896 
L 186.401389 291.51457 
L 188.032819 286.513623 
L 189.664249 286.578209 
L 191.295678 289.378513 
L 192.927108 287.876215 
L 194.558538 286.725251 
L 196.189968 287.357747 
L 199.452828 287.353711 
L 201.084258 285.070869 
L 202.715688 285.564578 
L 205.978547 289.063067 
L 207.609977 290.185059 
L 209.241407 289.130644 
L 210.872837 289.416241 
L 212.504267 286.95116 
L 214.135697 288.762223 
L 215.767127 289.17289 
L 217.398556 287.875125 
L 219.029986 288.556652 
L 220.661416 286.739952 
L 222.292846 294.036248 
L 223.924276 290.203698 
L 225.555706 288.201312 
L 227.187136 287.649948 
L 228.818566 284.919087 
L 230.449995 288.163028 
L 232.081425 282.774021 
L 233.712855 284.436219 
L 235.344285 282.380639 
L 236.975715 282.657008 
L 238.607145 285.066501 
L 241.870005 285.328775 
L 243.501434 286.187744 
L 245.132864 284.746121 
L 246.764294 284.631335 
L 248.395724 281.91982 
L 250.027154 282.220643 
L 251.658584 283.13084 
L 253.290014 282.761931 
L 254.921444 289.636826 
L 256.552873 285.184703 
L 258.184303 287.593859 
L 259.815733 288.689996 
L 261.447163 287.985174 
L 263.078593 290.233669 
L 264.710023 290.985996 
L 266.341453 291.065697 
L 267.972883 292.300953 
L 269.604312 290.458437 
L 271.235742 295.488 
L 272.867172 291.941256 
L 274.498602 291.981819 
L 276.130032 292.402161 
L 277.761462 291.767945 
L 279.392892 288.343414 
L 281.024322 287.112122 
L 282.655751 292.16381 
L 285.918611 284.938393 
L 287.550041 285.721172 
L 289.181471 286.784633 
L 290.812901 282.509342 
L 292.444331 282.859808 
L 294.075761 283.331489 
L 297.33862 285.069753 
L 298.97005 285.105756 
L 300.60148 285.287446 
L 302.23291 283.266407 
L 303.86434 282.753608 
L 305.49577 283.108432 
L 307.1272 281.525632 
L 308.75863 281.095396 
L 310.390059 284.197114 
L 312.021489 284.932025 
L 313.652919 287.20571 
L 315.284349 281.849052 
L 316.915779 287.004123 
L 318.547209 282.824394 
L 320.178639 277.242754 
L 321.810069 280.111166 
L 323.441498 284.545343 
L 325.072928 283.991253 
L 326.704358 281.228349 
L 328.335788 282.367415 
L 329.967218 287.840624 
L 331.598648 285.015033 
L 333.230078 287.512257 
L 334.861508 290.220482 
L 336.492937 286.729535 
L 338.124367 287.769048 
L 339.755797 290.066546 
L 341.387227 289.375563 
L 343.018657 291.746665 
L 344.650087 288.649884 
L 346.281517 291.488132 
L 349.544376 289.381981 
L 351.175806 288.576495 
L 352.807236 287.585726 
L 354.438666 290.464779 
L 356.070096 289.107535 
L 357.701526 291.268668 
L 359.332956 289.650476 
L 360.964386 289.382738 
L 362.595815 290.740269 
L 364.227245 285.514248 
L 365.858675 286.934265 
L 367.490105 288.987972 
L 369.121535 287.662934 
L 370.752965 288.713146 
L 372.384395 289.397218 
L 374.015825 284.119913 
L 375.647254 283.17976 
L 377.278684 283.171094 
L 378.910114 282.977363 
L 380.541544 284.034709 
L 382.172974 283.195561 
L 383.804404 284.104557 
L 385.435834 284.740887 
L 387.067264 281.763341 
L 388.698693 282.421993 
L 390.330123 284.280902 
L 391.961553 285.340956 
L 393.592983 288.187698 
L 395.224413 287.726222 
L 396.855843 286.170293 
L 398.487273 286.132496 
L 398.487273 286.132496 
" clip-path="url(#p304cc4dcb2)" style="fill: none; stroke-dasharray: 9.6,2.4,1.5,2.4; stroke-dashoffset: 0; stroke: #008000; stroke-width: 1.5"/>
   </g>
   <g id="line2d_37">
    <path d="M 73.832727 231.664739 
L 75.464157 221.065171 
L 77.095587 212.113223 
L 78.727017 217.85908 
L 80.358447 224.603118 
L 81.989877 218.45773 
L 83.621307 220.316522 
L 85.252736 220.387916 
L 86.884166 222.531139 
L 88.515596 217.049846 
L 90.147026 220.650066 
L 91.778456 212.978009 
L 93.409886 213.322579 
L 95.041316 215.845935 
L 96.672746 217.50946 
L 98.304175 215.238785 
L 99.935605 213.837852 
L 101.567035 209.028362 
L 103.198465 208.135072 
L 104.829895 210.482236 
L 106.461325 208.550414 
L 108.092755 210.215675 
L 109.724185 203.125794 
L 111.355614 205.603002 
L 112.987044 212.858283 
L 114.618474 210.412668 
L 116.249904 210.63689 
L 117.881334 210.738841 
L 119.512764 211.116583 
L 121.144194 212.374544 
L 122.775624 209.963029 
L 124.407053 205.329471 
L 126.038483 204.986796 
L 127.669913 198.911543 
L 129.301343 205.645904 
L 130.932773 200.742877 
L 132.564203 203.933726 
L 134.195633 202.430533 
L 135.827063 210.769339 
L 137.458492 207.578669 
L 139.089922 205.858533 
L 140.721352 205.857725 
L 142.352782 206.18948 
L 143.984212 204.273201 
L 147.247072 212.476125 
L 148.878502 204.124012 
L 150.509931 214.369898 
L 152.141361 213.82531 
L 153.772791 204.621207 
L 155.404221 206.230426 
L 157.035651 207.07915 
L 158.667081 205.012982 
L 160.298511 205.034946 
L 161.929941 196.007604 
L 163.56137 202.232623 
L 165.1928 197.114631 
L 166.82423 202.272259 
L 168.45566 202.991833 
L 170.08709 201.249277 
L 171.71852 199.324594 
L 173.34995 196.771911 
L 174.98138 197.495147 
L 176.61281 203.66777 
L 178.244239 201.165576 
L 179.875669 190.316408 
L 181.507099 197.328758 
L 183.138529 194.330585 
L 184.769959 191.636085 
L 186.401389 191.896637 
L 188.032819 202.260178 
L 189.664249 191.636709 
L 191.295678 190.425479 
L 192.927108 196.216751 
L 194.558538 202.758425 
L 196.189968 199.991282 
L 197.821398 203.260048 
L 199.452828 202.705403 
L 201.084258 205.826818 
L 202.715688 200.990978 
L 204.347117 199.656289 
L 205.978547 198.671183 
L 207.609977 203.12384 
L 209.241407 192.830413 
L 210.872837 197.440118 
L 212.504267 203.840315 
L 214.135697 199.681109 
L 215.767127 201.313083 
L 217.398556 198.429442 
L 219.029986 208.154909 
L 220.661416 196.388593 
L 222.292846 192.726685 
L 223.924276 194.741615 
L 225.555706 200.485943 
L 227.187136 201.608952 
L 228.818566 209.3458 
L 230.449995 196.557113 
L 232.081425 213.515984 
L 233.712855 215.032061 
L 235.344285 214.498946 
L 236.975715 213.45039 
L 238.607145 209.857052 
L 240.238575 201.086107 
L 241.870005 207.129562 
L 243.501434 200.279687 
L 245.132864 209.24008 
L 246.764294 209.846117 
L 248.395724 208.280389 
L 250.027154 207.901364 
L 251.658584 204.319073 
L 253.290014 207.616721 
L 254.921444 183.400924 
L 256.552873 197.78608 
L 258.184303 201.165845 
L 259.815733 195.637264 
L 261.447163 196.925994 
L 263.078593 193.717724 
L 264.710023 185.983849 
L 266.341453 177.707872 
L 267.972883 190.945487 
L 269.604312 184.746435 
L 271.235742 188.428638 
L 272.867172 191.141909 
L 274.498602 179.394566 
L 277.761462 195.616759 
L 279.392892 199.376443 
L 281.024322 199.473347 
L 282.655751 185.146669 
L 284.287181 196.232562 
L 285.918611 206.071888 
L 287.550041 200.53777 
L 289.181471 205.996715 
L 292.444331 212.607104 
L 294.075761 204.644075 
L 295.70719 206.034212 
L 297.33862 211.619394 
L 298.97005 207.108258 
L 300.60148 210.349389 
L 302.23291 215.573562 
L 303.86434 212.067624 
L 305.49577 206.585479 
L 307.1272 213.589131 
L 308.75863 211.768329 
L 310.390059 209.362525 
L 312.021489 205.570023 
L 313.652919 211.083814 
L 315.284349 211.568854 
L 316.915779 200.392014 
L 318.547209 209.302953 
L 320.178639 220.743786 
L 321.810069 217.275998 
L 323.441498 204.397725 
L 326.704358 209.123427 
L 328.335788 200.272398 
L 329.967218 181.477932 
L 331.598648 196.015879 
L 333.230078 189.432683 
L 334.861508 191.607834 
L 336.492937 191.301198 
L 338.124367 186.042906 
L 339.755797 188.914372 
L 341.387227 186.006488 
L 343.018657 181.788448 
L 344.650087 188.199579 
L 346.281517 183.266609 
L 347.912947 183.96785 
L 349.544376 188.805273 
L 351.175806 196.638064 
L 352.807236 193.30022 
L 354.438666 196.272873 
L 356.070096 196.943238 
L 357.701526 191.253916 
L 359.332956 197.745 
L 360.964386 198.143869 
L 362.595815 196.055771 
L 364.227245 203.177184 
L 365.858675 195.87134 
L 367.490105 195.326735 
L 369.121535 203.499084 
L 370.752965 205.90681 
L 372.384395 202.095185 
L 374.015825 210.445811 
L 375.647254 211.205137 
L 377.278684 211.002273 
L 378.910114 204.342715 
L 380.541544 209.306941 
L 382.172974 210.900672 
L 383.804404 207.042479 
L 385.435834 207.874569 
L 387.067264 214.652529 
L 388.698693 216.277729 
L 390.330123 207.855255 
L 393.592983 194.587467 
L 395.224413 204.745456 
L 396.855843 205.828352 
L 398.487273 202.651625 
L 398.487273 202.651625 
" clip-path="url(#p304cc4dcb2)" style="fill: none; stroke-dasharray: 9.6,2.4,1.5,2.4; stroke-dashoffset: 0; stroke: #008000; stroke-width: 1.5"/>
   </g>
   <g id="line2d_38">
    <path d="M 73.832727 58.890404 
L 101.567035 58.890404 
L 103.198465 54.769581 
L 217.398556 54.769581 
L 219.029986 54.395552 
L 274.498602 54.387733 
L 276.130032 53.568 
L 398.487273 53.568 
L 398.487273 53.568 
" clip-path="url(#p304cc4dcb2)" style="fill: none; stroke: #ff0000; stroke-width: 1.5; stroke-linecap: square"/>
   </g>
   <g id="patch_3">
    <path d="M 57.6 307.584 
L 57.6 41.472 
" style="fill: none; stroke: #000000; stroke-width: 0.8; stroke-linejoin: miter; stroke-linecap: square"/>
   </g>
   <g id="patch_4">
    <path d="M 414.72 307.584 
L 414.72 41.472 
" style="fill: none; stroke: #000000; stroke-width: 0.8; stroke-linejoin: miter; stroke-linecap: square"/>
   </g>
   <g id="patch_5">
    <path d="M 57.6 307.584 
L 414.72 307.584 
" style="fill: none; stroke: #000000; stroke-width: 0.8; stroke-linejoin: miter; stroke-linecap: square"/>
   </g>
   <g id="patch_6">
    <path d="M 57.6 41.472 
L 414.72 41.472 
" style="fill: none; stroke: #000000; stroke-width: 0.8; stroke-linejoin: miter; stroke-linecap: square"/>
   </g>
   <g id="text_20">
    <!-- Population's average and best fitness -->
    <g transform="translate(123.529687 35.472) scale(0.12 -0.12)">
     <defs>
      <path id="DejaVuSans-50" d="M 1259 4147 
L 1259 2394 
L 2053 2394 
Q 2494 2394 2734 2622 
Q 2975 2850 2975 3272 
Q 2975 3691 2734 3919 
Q 2494 4147 2053 4147 
L 1259 4147 
z
M 628 4666 
L 2053 4666 
Q 2838 4666 3239 4311 
Q 3641 3956 3641 3272 
Q 3641 2581 3239 2228 
Q 2838 1875 2053 1875 
L 1259 1875 
L 1259 0 
L 628 0 
L 628 4666 
z
" transform="scale(0.015625)"/>
      <path id="DejaVuSans-70" d="M 1159 525 
L 1159 -1331 
L 581 -1331 
L 581 3500 
L 1159 3500 
L 1159 2969 
Q 1341 3281 1617 3432 
Q 1894 3584 2278 3584 
Q 2916 3584 3314 3078 
Q 3713 2572 3713 1747 
Q 3713 922 3314 415 
Q 2916 -91 2278 -91 
Q 1894 -91 1617 61 
Q 1341 213 1159 525 
z
M 3116 1747 
Q 3116 2381 2855 2742 
Q 2594 3103 2138 3103 
Q 1681 3103 1420 2742 
Q 1159 2381 1159 1747 
Q 1159 1113 1420 752 
Q 1681 391 2138 391 
Q 2594 391 2855 752 
Q 3116 1113 3116 1747 
z
" transform="scale(0.015625)"/>
      <path id="DejaVuSans-75" d="M 544 1381 
L 544 3500 
L 1119 3500 
L 1119 1403 
Q 1119 906 1312 657 
Q 1506 409 1894 409 
Q 2359 409 2629 706 
Q 2900 1003 2900 1516 
L 2900 3500 
L 3475 3500 
L 3475 0 
L 2900 0 
L 2900 538 
Q 2691 219 2414 64 
Q 2138 -91 1772 -91 
Q 1169 -91 856 284 
Q 544 659 544 1381 
z
M 1991 3584 
L 1991 3584 
z
" transform="scale(0.015625)"/>
      <path id="DejaVuSans-6c" d="M 603 4863 
L 1178 4863 
L 1178 0 
L 603 0 
L 603 4863 
z
" transform="scale(0.015625)"/>
      <path id="DejaVuSans-27" d="M 1147 4666 
L 1147 2931 
L 616 2931 
L 616 4666 
L 1147 4666 
z
" transform="scale(0.015625)"/>
      <path id="DejaVuSans-20" transform="scale(0.015625)"/>
      <path id="DejaVuSans-76" d="M 191 3500 
L 800 3500 
L 1894 563 
L 2988 3500 
L 3597 3500 
L 2284 0 
L 1503 0 
L 191 3500 
z
" transform="scale(0.015625)"/>
      <path id="DejaVuSans-67" d="M 2906 1791 
Q 2906 2416 2648 2759 
Q 2391 3103 1925 3103 
Q 1463 3103 1205 2759 
Q 947 2416 947 1791 
Q 947 1169 1205 825 
Q 1463 481 1925 481 
Q 2391 481 2648 825 
Q 2906 1169 2906 1791 
z
M 3481 434 
Q 3481 -459 3084 -895 
Q 2688 -1331 1869 -1331 
Q 1566 -1331 1297 -1286 
Q 1028 -1241 775 -1147 
L 775 -588 
Q 1028 -725 1275 -790 
Q 1522 -856 1778 -856 
Q 2344 -856 2625 -561 
Q 2906 -266 2906 331 
L 2906 616 
Q 2728 306 2450 153 
Q 2172 0 1784 0 
Q 1141 0 747 490 
Q 353 981 353 1791 
Q 353 2603 747 3093 
Q 1141 3584 1784 3584 
Q 2172 3584 2450 3431 
Q 2728 3278 2906 2969 
L 2906 3500 
L 3481 3500 
L 3481 434 
z
" transform="scale(0.015625)"/>
      <path id="DejaVuSans-64" d="M 2906 2969 
L 2906 4863 
L 3481 4863 
L 3481 0 
L 2906 0 
L 2906 525 
Q 2725 213 2448 61 
Q 2172 -91 1784 -91 
Q 1150 -91 751 415 
Q 353 922 353 1747 
Q 353 2572 751 3078 
Q 1150 3584 1784 3584 
Q 2172 3584 2448 3432 
Q 2725 3281 2906 2969 
z
M 947 1747 
Q 947 1113 1208 752 
Q 1469 391 1925 391 
Q 2381 391 2643 752 
Q 2906 1113 2906 1747 
Q 2906 2381 2643 2742 
Q 2381 3103 1925 3103 
Q 1469 3103 1208 2742 
Q 947 2381 947 1747 
z
" transform="scale(0.015625)"/>
      <path id="DejaVuSans-62" d="M 3116 1747 
Q 3116 2381 2855 2742 
Q 2594 3103 2138 3103 
Q 1681 3103 1420 2742 
Q 1159 2381 1159 1747 
Q 1159 1113 1420 752 
Q 1681 391 2138 391 
Q 2594 391 2855 752 
Q 3116 1113 3116 1747 
z
M 1159 2969 
Q 1341 3281 1617 3432 
Q 1894 3584 2278 3584 
Q 2916 3584 3314 3078 
Q 3713 2572 3713 1747 
Q 3713 922 3314 415 
Q 2916 -91 2278 -91 
Q 1894 -91 1617 61 
Q 1341 213 1159 525 
L 1159 0 
L 581 0 
L 581 4863 
L 1159 4863 
L 1159 2969 
z
" transform="scale(0.015625)"/>
      <path id="DejaVuSans-66" d="M 2375 4863 
L 2375 4384 
L 1825 4384 
Q 1516 4384 1395 4259 
Q 1275 4134 1275 3809 
L 1275 3500 
L 2222 3500 
L 2222 3053 
L 1275 3053 
L 1275 0 
L 697 0 
L 697 3053 
L 147 3053 
L 147 3500 
L 697 3500 
L 697 3744 
Q 697 4328 969 4595 
Q 1241 4863 1831 4863 
L 2375 4863 
z
" transform="scale(0.015625)"/>
     </defs>
     <use xlink:href="#DejaVuSans-50"/>
     <use xlink:href="#DejaVuSans-6f" x="56.677734"/>
     <use xlink:href="#DejaVuSans-70" x="117.859375"/>
     <use xlink:href="#DejaVuSans-75" x="181.335938"/>
     <use xlink:href="#DejaVuSans-6c" x="244.714844"/>
     <use xlink:href="#DejaVuSans-61" x="272.498047"/>
     <use xlink:href="#DejaVuSans-74" x="333.777344"/>
     <use xlink:href="#DejaVuSans-69" x="372.986328"/>
     <use xlink:href="#DejaVuSans-6f" x="400.769531"/>
     <use xlink:href="#DejaVuSans-6e" x="461.951172"/>
     <use xlink:href="#DejaVuSans-27" x="525.330078"/>
     <use xlink:href="#DejaVuSans-73" x="552.820312"/>
     <use xlink:href="#DejaVuSans-20" x="604.919922"/>
     <use xlink:href="#DejaVuSans-61" x="636.707031"/>
     <use xlink:href="#DejaVuSans-76" x="697.986328"/>
     <use xlink:href="#DejaVuSans-65" x="757.166016"/>
     <use xlink:href="#DejaVuSans-72" x="818.689453"/>
     <use xlink:href="#DejaVuSans-61" x="859.802734"/>
     <use xlink:href="#DejaVuSans-67" x="921.082031"/>
     <use xlink:href="#DejaVuSans-65" x="984.558594"/>
     <use xlink:href="#DejaVuSans-20" x="1046.082031"/>
     <use xlink:href="#DejaVuSans-61" x="1077.869141"/>
     <use xlink:href="#DejaVuSans-6e" x="1139.148438"/>
     <use xlink:href="#DejaVuSans-64" x="1202.527344"/>
     <use xlink:href="#DejaVuSans-20" x="1266.003906"/>
     <use xlink:href="#DejaVuSans-62" x="1297.791016"/>
     <use xlink:href="#DejaVuSans-65" x="1361.267578"/>
     <use xlink:href="#DejaVuSans-73" x="1422.791016"/>
     <use xlink:href="#DejaVuSans-74" x="1474.890625"/>
     <use xlink:href="#DejaVuSans-20" x="1514.099609"/>
     <use xlink:href="#DejaVuSans-66" x="1545.886719"/>
     <use xlink:href="#DejaVuSans-69" x="1581.091797"/>
     <use xlink:href="#DejaVuSans-74" x="1608.875"/>
     <use xlink:href="#DejaVuSans-6e" x="1648.083984"/>
     <use xlink:href="#DejaVuSans-65" x="1711.462891"/>
     <use xlink:href="#DejaVuSans-73" x="1772.986328"/>
     <use xlink:href="#DejaVuSans-73" x="1825.085938"/>
    </g>
   </g>
   <g id="legend_1">
    <g id="patch_7">
     <path d="M 64.6 205.38425 
L 137.540625 205.38425 
Q 139.540625 205.38425 139.540625 203.38425 
L 139.540625 145.67175 
Q 139.540625 143.67175 137.540625 143.67175 
L 64.6 143.67175 
Q 62.6 143.67175 62.6 145.67175 
L 62.6 203.38425 
Q 62.6 205.38425 64.6 205.38425 
z
" style="fill: #ffffff; opacity: 0.8; stroke: #cccccc; stroke-linejoin: miter"/>
    </g>
    <g id="line2d_39">
     <path d="M 66.6 151.770188 
L 76.6 151.770188 
L 86.6 151.770188 
" style="fill: none; stroke: #0000ff; stroke-width: 1.5; stroke-linecap: square"/>
    </g>
    <g id="text_21">
     <!-- average -->
     <g transform="translate(94.6 155.270188) scale(0.1 -0.1)">
      <use xlink:href="#DejaVuSans-61"/>
      <use xlink:href="#DejaVuSans-76" x="61.279297"/>
      <use xlink:href="#DejaVuSans-65" x="120.458984"/>
      <use xlink:href="#DejaVuSans-72" x="181.982422"/>
      <use xlink:href="#DejaVuSans-61" x="223.095703"/>
      <use xlink:href="#DejaVuSans-67" x="284.375"/>
      <use xlink:href="#DejaVuSans-65" x="347.851562"/>
     </g>
    </g>
    <g id="line2d_40">
     <path d="M 66.6 166.448313 
L 76.6 166.448313 
L 86.6 166.448313 
" style="fill: none; stroke-dasharray: 9.6,2.4,1.5,2.4; stroke-dashoffset: 0; stroke: #008000; stroke-width: 1.5"/>
    </g>
    <g id="text_22">
     <!-- -1 sd -->
     <g transform="translate(94.6 169.948313) scale(0.1 -0.1)">
      <defs>
       <path id="DejaVuSans-2d" d="M 313 2009 
L 1997 2009 
L 1997 1497 
L 313 1497 
L 313 2009 
z
" transform="scale(0.015625)"/>
      </defs>
      <use xlink:href="#DejaVuSans-2d"/>
      <use xlink:href="#DejaVuSans-31" x="36.083984"/>
      <use xlink:href="#DejaVuSans-20" x="99.707031"/>
      <use xlink:href="#DejaVuSans-73" x="131.494141"/>
      <use xlink:href="#DejaVuSans-64" x="183.59375"/>
     </g>
    </g>
    <g id="line2d_41">
     <path d="M 66.6 181.126438 
L 76.6 181.126438 
L 86.6 181.126438 
" style="fill: none; stroke-dasharray: 9.6,2.4,1.5,2.4; stroke-dashoffset: 0; stroke: #008000; stroke-width: 1.5"/>
    </g>
    <g id="text_23">
     <!-- +1 sd -->
     <g transform="translate(94.6 184.626438) scale(0.1 -0.1)">
      <defs>
       <path id="DejaVuSans-2b" d="M 2944 4013 
L 2944 2272 
L 4684 2272 
L 4684 1741 
L 2944 1741 
L 2944 0 
L 2419 0 
L 2419 1741 
L 678 1741 
L 678 2272 
L 2419 2272 
L 2419 4013 
L 2944 4013 
z
" transform="scale(0.015625)"/>
      </defs>
      <use xlink:href="#DejaVuSans-2b"/>
      <use xlink:href="#DejaVuSans-31" x="83.789062"/>
      <use xlink:href="#DejaVuSans-20" x="147.412109"/>
      <use xlink:href="#DejaVuSans-73" x="179.199219"/>
      <use xlink:href="#DejaVuSans-64" x="231.298828"/>
     </g>
    </g>
    <g id="line2d_42">
     <path d="M 66.6 195.804563 
L 76.6 195.804563 
L 86.6 195.804563 
" style="fill: none; stroke: #ff0000; stroke-width: 1.5; stroke-linecap: square"/>
    </g>
    <g id="text_24">
     <!-- best -->
     <g transform="translate(94.6 199.304563) scale(0.1 -0.1)">
      <use xlink:href="#DejaVuSans-62"/>
      <use xlink:href="#DejaVuSans-65" x="63.476562"/>
      <use xlink:href="#DejaVuSans-73" x="125"/>
      <use xlink:href="#DejaVuSans-74" x="177.099609"/>
     </g>
    </g>
   </g>
  </g>
 </g>
 <defs>
  <clipPath id="p304cc4dcb2">
   <rect x="57.6" y="41.472" width="357.12" height="266.112"/>
  </clipPath>
 </defs>
</svg>
