<?xml version="1.0" encoding="utf-8" standalone="no"?>
<!DOCTYPE svg PUBLIC "-//W3C//DTD SVG 1.1//EN"
  "http://www.w3.org/Graphics/SVG/1.1/DTD/svg11.dtd">
<svg xmlns:xlink="http://www.w3.org/1999/xlink" width="460.8pt" height="345.6pt" viewBox="0 0 460.8 345.6" xmlns="http://www.w3.org/2000/svg" version="1.1">
 <metadata>
  <rdf:RDF xmlns:dc="http://purl.org/dc/elements/1.1/" xmlns:cc="http://creativecommons.org/ns#" xmlns:rdf="http://www.w3.org/1999/02/22-rdf-syntax-ns#">
   <cc:Work>
    <dc:type rdf:resource="http://purl.org/dc/dcmitype/StillImage"/>
    <dc:date>2024-08-08T12:00:16.094053</dc:date>
    <dc:format>image/svg+xml</dc:format>
    <dc:creator>
     <cc:Agent>
      <dc:title>Matplotlib v3.8.4, https://matplotlib.org/</dc:title>
     </cc:Agent>
    </dc:creator>
   </cc:Work>
  </rdf:RDF>
 </metadata>
 <defs>
  <style type="text/css">*{stroke-linejoin: round; stroke-linecap: butt}</style>
 </defs>
 <g id="figure_1">
  <g id="patch_1">
   <path d="M 0 345.6 
L 460.8 345.6 
L 460.8 0 
L 0 0 
z
" style="fill: #ffffff"/>
  </g>
  <g id="axes_1">
   <g id="patch_2">
    <path d="M 57.6 307.584 
L 414.72 307.584 
L 414.72 41.472 
L 57.6 41.472 
z
" style="fill: #ffffff"/>
   </g>
   <g id="matplotlib.axis_1">
    <g id="xtick_1">
     <g id="line2d_1">
      <path d="M 73.832727 307.584 
L 73.832727 41.472 
" clip-path="url(#p259c5f4fff)" style="fill: none; stroke: #b0b0b0; stroke-width: 0.8; stroke-linecap: square"/>
     </g>
     <g id="line2d_2">
      <defs>
       <path id="mee0f0f1e18" d="M 0 0 
L 0 3.5 
" style="stroke: #000000; stroke-width: 0.8"/>
      </defs>
      <g>
       <use xlink:href="#mee0f0f1e18" x="73.832727" y="307.584" style="stroke: #000000; stroke-width: 0.8"/>
      </g>
     </g>
     <g id="text_1">
      <!-- 0 -->
      <g transform="translate(70.651477 322.182437) scale(0.1 -0.1)">
       <defs>
        <path id="DejaVuSans-30" d="M 2034 4250 
Q 1547 4250 1301 3770 
Q 1056 3291 1056 2328 
Q 1056 1369 1301 889 
Q 1547 409 2034 409 
Q 2525 409 2770 889 
Q 3016 1369 3016 2328 
Q 3016 3291 2770 3770 
Q 2525 4250 2034 4250 
z
M 2034 4750 
Q 2819 4750 3233 4129 
Q 3647 3509 3647 2328 
Q 3647 1150 3233 529 
Q 2819 -91 2034 -91 
Q 1250 -91 836 529 
Q 422 1150 422 2328 
Q 422 3509 836 4129 
Q 1250 4750 2034 4750 
z
" transform="scale(0.015625)"/>
       </defs>
       <use xlink:href="#DejaVuSans-30"/>
      </g>
     </g>
    </g>
    <g id="xtick_2">
     <g id="line2d_3">
      <path d="M 114.618474 307.584 
L 114.618474 41.472 
" clip-path="url(#p259c5f4fff)" style="fill: none; stroke: #b0b0b0; stroke-width: 0.8; stroke-linecap: square"/>
     </g>
     <g id="line2d_4">
      <g>
       <use xlink:href="#mee0f0f1e18" x="114.618474" y="307.584" style="stroke: #000000; stroke-width: 0.8"/>
      </g>
     </g>
     <g id="text_2">
      <!-- 25 -->
      <g transform="translate(108.255974 322.182437) scale(0.1 -0.1)">
       <defs>
        <path id="DejaVuSans-32" d="M 1228 531 
L 3431 531 
L 3431 0 
L 469 0 
L 469 531 
Q 828 903 1448 1529 
Q 2069 2156 2228 2338 
Q 2531 2678 2651 2914 
Q 2772 3150 2772 3378 
Q 2772 3750 2511 3984 
Q 2250 4219 1831 4219 
Q 1534 4219 1204 4116 
Q 875 4013 500 3803 
L 500 4441 
Q 881 4594 1212 4672 
Q 1544 4750 1819 4750 
Q 2544 4750 2975 4387 
Q 3406 4025 3406 3419 
Q 3406 3131 3298 2873 
Q 3191 2616 2906 2266 
Q 2828 2175 2409 1742 
Q 1991 1309 1228 531 
z
" transform="scale(0.015625)"/>
        <path id="DejaVuSans-35" d="M 691 4666 
L 3169 4666 
L 3169 4134 
L 1269 4134 
L 1269 2991 
Q 1406 3038 1543 3061 
Q 1681 3084 1819 3084 
Q 2600 3084 3056 2656 
Q 3513 2228 3513 1497 
Q 3513 744 3044 326 
Q 2575 -91 1722 -91 
Q 1428 -91 1123 -41 
Q 819 9 494 109 
L 494 744 
Q 775 591 1075 516 
Q 1375 441 1709 441 
Q 2250 441 2565 725 
Q 2881 1009 2881 1497 
Q 2881 1984 2565 2268 
Q 2250 2553 1709 2553 
Q 1456 2553 1204 2497 
Q 953 2441 691 2322 
L 691 4666 
z
" transform="scale(0.015625)"/>
       </defs>
       <use xlink:href="#DejaVuSans-32"/>
       <use xlink:href="#DejaVuSans-35" x="63.623047"/>
      </g>
     </g>
    </g>
    <g id="xtick_3">
     <g id="line2d_5">
      <path d="M 155.404221 307.584 
L 155.404221 41.472 
" clip-path="url(#p259c5f4fff)" style="fill: none; stroke: #b0b0b0; stroke-width: 0.8; stroke-linecap: square"/>
     </g>
     <g id="line2d_6">
      <g>
       <use xlink:href="#mee0f0f1e18" x="155.404221" y="307.584" style="stroke: #000000; stroke-width: 0.8"/>
      </g>
     </g>
     <g id="text_3">
      <!-- 50 -->
      <g transform="translate(149.041721 322.182437) scale(0.1 -0.1)">
       <use xlink:href="#DejaVuSans-35"/>
       <use xlink:href="#DejaVuSans-30" x="63.623047"/>
      </g>
     </g>
    </g>
    <g id="xtick_4">
     <g id="line2d_7">
      <path d="M 196.189968 307.584 
L 196.189968 41.472 
" clip-path="url(#p259c5f4fff)" style="fill: none; stroke: #b0b0b0; stroke-width: 0.8; stroke-linecap: square"/>
     </g>
     <g id="line2d_8">
      <g>
       <use xlink:href="#mee0f0f1e18" x="196.189968" y="307.584" style="stroke: #000000; stroke-width: 0.8"/>
      </g>
     </g>
     <g id="text_4">
      <!-- 75 -->
      <g transform="translate(189.827468 322.182437) scale(0.1 -0.1)">
       <defs>
        <path id="DejaVuSans-37" d="M 525 4666 
L 3525 4666 
L 3525 4397 
L 1831 0 
L 1172 0 
L 2766 4134 
L 525 4134 
L 525 4666 
z
" transform="scale(0.015625)"/>
       </defs>
       <use xlink:href="#DejaVuSans-37"/>
       <use xlink:href="#DejaVuSans-35" x="63.623047"/>
      </g>
     </g>
    </g>
    <g id="xtick_5">
     <g id="line2d_9">
      <path d="M 236.975715 307.584 
L 236.975715 41.472 
" clip-path="url(#p259c5f4fff)" style="fill: none; stroke: #b0b0b0; stroke-width: 0.8; stroke-linecap: square"/>
     </g>
     <g id="line2d_10">
      <g>
       <use xlink:href="#mee0f0f1e18" x="236.975715" y="307.584" style="stroke: #000000; stroke-width: 0.8"/>
      </g>
     </g>
     <g id="text_5">
      <!-- 100 -->
      <g transform="translate(227.431965 322.182437) scale(0.1 -0.1)">
       <defs>
        <path id="DejaVuSans-31" d="M 794 531 
L 1825 531 
L 1825 4091 
L 703 3866 
L 703 4441 
L 1819 4666 
L 2450 4666 
L 2450 531 
L 3481 531 
L 3481 0 
L 794 0 
L 794 531 
z
" transform="scale(0.015625)"/>
       </defs>
       <use xlink:href="#DejaVuSans-31"/>
       <use xlink:href="#DejaVuSans-30" x="63.623047"/>
       <use xlink:href="#DejaVuSans-30" x="127.246094"/>
      </g>
     </g>
    </g>
    <g id="xtick_6">
     <g id="line2d_11">
      <path d="M 277.761462 307.584 
L 277.761462 41.472 
" clip-path="url(#p259c5f4fff)" style="fill: none; stroke: #b0b0b0; stroke-width: 0.8; stroke-linecap: square"/>
     </g>
     <g id="line2d_12">
      <g>
       <use xlink:href="#mee0f0f1e18" x="277.761462" y="307.584" style="stroke: #000000; stroke-width: 0.8"/>
      </g>
     </g>
     <g id="text_6">
      <!-- 125 -->
      <g transform="translate(268.217712 322.182437) scale(0.1 -0.1)">
       <use xlink:href="#DejaVuSans-31"/>
       <use xlink:href="#DejaVuSans-32" x="63.623047"/>
       <use xlink:href="#DejaVuSans-35" x="127.246094"/>
      </g>
     </g>
    </g>
    <g id="xtick_7">
     <g id="line2d_13">
      <path d="M 318.547209 307.584 
L 318.547209 41.472 
" clip-path="url(#p259c5f4fff)" style="fill: none; stroke: #b0b0b0; stroke-width: 0.8; stroke-linecap: square"/>
     </g>
     <g id="line2d_14">
      <g>
       <use xlink:href="#mee0f0f1e18" x="318.547209" y="307.584" style="stroke: #000000; stroke-width: 0.8"/>
      </g>
     </g>
     <g id="text_7">
      <!-- 150 -->
      <g transform="translate(309.003459 322.182437) scale(0.1 -0.1)">
       <use xlink:href="#DejaVuSans-31"/>
       <use xlink:href="#DejaVuSans-35" x="63.623047"/>
       <use xlink:href="#DejaVuSans-30" x="127.246094"/>
      </g>
     </g>
    </g>
    <g id="xtick_8">
     <g id="line2d_15">
      <path d="M 359.332956 307.584 
L 359.332956 41.472 
" clip-path="url(#p259c5f4fff)" style="fill: none; stroke: #b0b0b0; stroke-width: 0.8; stroke-linecap: square"/>
     </g>
     <g id="line2d_16">
      <g>
       <use xlink:href="#mee0f0f1e18" x="359.332956" y="307.584" style="stroke: #000000; stroke-width: 0.8"/>
      </g>
     </g>
     <g id="text_8">
      <!-- 175 -->
      <g transform="translate(349.789206 322.182437) scale(0.1 -0.1)">
       <use xlink:href="#DejaVuSans-31"/>
       <use xlink:href="#DejaVuSans-37" x="63.623047"/>
       <use xlink:href="#DejaVuSans-35" x="127.246094"/>
      </g>
     </g>
    </g>
    <g id="xtick_9">
     <g id="line2d_17">
      <path d="M 400.118703 307.584 
L 400.118703 41.472 
" clip-path="url(#p259c5f4fff)" style="fill: none; stroke: #b0b0b0; stroke-width: 0.8; stroke-linecap: square"/>
     </g>
     <g id="line2d_18">
      <g>
       <use xlink:href="#mee0f0f1e18" x="400.118703" y="307.584" style="stroke: #000000; stroke-width: 0.8"/>
      </g>
     </g>
     <g id="text_9">
      <!-- 200 -->
      <g transform="translate(390.574953 322.182437) scale(0.1 -0.1)">
       <use xlink:href="#DejaVuSans-32"/>
       <use xlink:href="#DejaVuSans-30" x="63.623047"/>
       <use xlink:href="#DejaVuSans-30" x="127.246094"/>
      </g>
     </g>
    </g>
    <g id="text_10">
     <!-- Generations -->
     <g transform="translate(205.662344 335.860562) scale(0.1 -0.1)">
      <defs>
       <path id="DejaVuSans-47" d="M 3809 666 
L 3809 1919 
L 2778 1919 
L 2778 2438 
L 4434 2438 
L 4434 434 
Q 4069 175 3628 42 
Q 3188 -91 2688 -91 
Q 1594 -91 976 548 
Q 359 1188 359 2328 
Q 359 3472 976 4111 
Q 1594 4750 2688 4750 
Q 3144 4750 3555 4637 
Q 3966 4525 4313 4306 
L 4313 3634 
Q 3963 3931 3569 4081 
Q 3175 4231 2741 4231 
Q 1884 4231 1454 3753 
Q 1025 3275 1025 2328 
Q 1025 1384 1454 906 
Q 1884 428 2741 428 
Q 3075 428 3337 486 
Q 3600 544 3809 666 
z
" transform="scale(0.015625)"/>
       <path id="DejaVuSans-65" d="M 3597 1894 
L 3597 1613 
L 953 1613 
Q 991 1019 1311 708 
Q 1631 397 2203 397 
Q 2534 397 2845 478 
Q 3156 559 3463 722 
L 3463 178 
Q 3153 47 2828 -22 
Q 2503 -91 2169 -91 
Q 1331 -91 842 396 
Q 353 884 353 1716 
Q 353 2575 817 3079 
Q 1281 3584 2069 3584 
Q 2775 3584 3186 3129 
Q 3597 2675 3597 1894 
z
M 3022 2063 
Q 3016 2534 2758 2815 
Q 2500 3097 2075 3097 
Q 1594 3097 1305 2825 
Q 1016 2553 972 2059 
L 3022 2063 
z
" transform="scale(0.015625)"/>
       <path id="DejaVuSans-6e" d="M 3513 2113 
L 3513 0 
L 2938 0 
L 2938 2094 
Q 2938 2591 2744 2837 
Q 2550 3084 2163 3084 
Q 1697 3084 1428 2787 
Q 1159 2491 1159 1978 
L 1159 0 
L 581 0 
L 581 3500 
L 1159 3500 
L 1159 2956 
Q 1366 3272 1645 3428 
Q 1925 3584 2291 3584 
Q 2894 3584 3203 3211 
Q 3513 2838 3513 2113 
z
" transform="scale(0.015625)"/>
       <path id="DejaVuSans-72" d="M 2631 2963 
Q 2534 3019 2420 3045 
Q 2306 3072 2169 3072 
Q 1681 3072 1420 2755 
Q 1159 2438 1159 1844 
L 1159 0 
L 581 0 
L 581 3500 
L 1159 3500 
L 1159 2956 
Q 1341 3275 1631 3429 
Q 1922 3584 2338 3584 
Q 2397 3584 2469 3576 
Q 2541 3569 2628 3553 
L 2631 2963 
z
" transform="scale(0.015625)"/>
       <path id="DejaVuSans-61" d="M 2194 1759 
Q 1497 1759 1228 1600 
Q 959 1441 959 1056 
Q 959 750 1161 570 
Q 1363 391 1709 391 
Q 2188 391 2477 730 
Q 2766 1069 2766 1631 
L 2766 1759 
L 2194 1759 
z
M 3341 1997 
L 3341 0 
L 2766 0 
L 2766 531 
Q 2569 213 2275 61 
Q 1981 -91 1556 -91 
Q 1019 -91 701 211 
Q 384 513 384 1019 
Q 384 1609 779 1909 
Q 1175 2209 1959 2209 
L 2766 2209 
L 2766 2266 
Q 2766 2663 2505 2880 
Q 2244 3097 1772 3097 
Q 1472 3097 1187 3025 
Q 903 2953 641 2809 
L 641 3341 
Q 956 3463 1253 3523 
Q 1550 3584 1831 3584 
Q 2591 3584 2966 3190 
Q 3341 2797 3341 1997 
z
" transform="scale(0.015625)"/>
       <path id="DejaVuSans-74" d="M 1172 4494 
L 1172 3500 
L 2356 3500 
L 2356 3053 
L 1172 3053 
L 1172 1153 
Q 1172 725 1289 603 
Q 1406 481 1766 481 
L 2356 481 
L 2356 0 
L 1766 0 
Q 1100 0 847 248 
Q 594 497 594 1153 
L 594 3053 
L 172 3053 
L 172 3500 
L 594 3500 
L 594 4494 
L 1172 4494 
z
" transform="scale(0.015625)"/>
       <path id="DejaVuSans-69" d="M 603 3500 
L 1178 3500 
L 1178 0 
L 603 0 
L 603 3500 
z
M 603 4863 
L 1178 4863 
L 1178 4134 
L 603 4134 
L 603 4863 
z
" transform="scale(0.015625)"/>
       <path id="DejaVuSans-6f" d="M 1959 3097 
Q 1497 3097 1228 2736 
Q 959 2375 959 1747 
Q 959 1119 1226 758 
Q 1494 397 1959 397 
Q 2419 397 2687 759 
Q 2956 1122 2956 1747 
Q 2956 2369 2687 2733 
Q 2419 3097 1959 3097 
z
M 1959 3584 
Q 2709 3584 3137 3096 
Q 3566 2609 3566 1747 
Q 3566 888 3137 398 
Q 2709 -91 1959 -91 
Q 1206 -91 779 398 
Q 353 888 353 1747 
Q 353 2609 779 3096 
Q 1206 3584 1959 3584 
z
" transform="scale(0.015625)"/>
       <path id="DejaVuSans-73" d="M 2834 3397 
L 2834 2853 
Q 2591 2978 2328 3040 
Q 2066 3103 1784 3103 
Q 1356 3103 1142 2972 
Q 928 2841 928 2578 
Q 928 2378 1081 2264 
Q 1234 2150 1697 2047 
L 1894 2003 
Q 2506 1872 2764 1633 
Q 3022 1394 3022 966 
Q 3022 478 2636 193 
Q 2250 -91 1575 -91 
Q 1294 -91 989 -36 
Q 684 19 347 128 
L 347 722 
Q 666 556 975 473 
Q 1284 391 1588 391 
Q 1994 391 2212 530 
Q 2431 669 2431 922 
Q 2431 1156 2273 1281 
Q 2116 1406 1581 1522 
L 1381 1569 
Q 847 1681 609 1914 
Q 372 2147 372 2553 
Q 372 3047 722 3315 
Q 1072 3584 1716 3584 
Q 2034 3584 2315 3537 
Q 2597 3491 2834 3397 
z
" transform="scale(0.015625)"/>
      </defs>
      <use xlink:href="#DejaVuSans-47"/>
      <use xlink:href="#DejaVuSans-65" x="77.490234"/>
      <use xlink:href="#DejaVuSans-6e" x="139.013672"/>
      <use xlink:href="#DejaVuSans-65" x="202.392578"/>
      <use xlink:href="#DejaVuSans-72" x="263.916016"/>
      <use xlink:href="#DejaVuSans-61" x="305.029297"/>
      <use xlink:href="#DejaVuSans-74" x="366.308594"/>
      <use xlink:href="#DejaVuSans-69" x="405.517578"/>
      <use xlink:href="#DejaVuSans-6f" x="433.300781"/>
      <use xlink:href="#DejaVuSans-6e" x="494.482422"/>
      <use xlink:href="#DejaVuSans-73" x="557.861328"/>
     </g>
    </g>
   </g>
   <g id="matplotlib.axis_2">
    <g id="ytick_1">
     <g id="line2d_19">
      <path d="M 57.6 295.274824 
L 414.72 295.274824 
" clip-path="url(#p259c5f4fff)" style="fill: none; stroke: #b0b0b0; stroke-width: 0.8; stroke-linecap: square"/>
     </g>
     <g id="line2d_20">
      <defs>
       <path id="mc22d19de81" d="M 0 0 
L -3.5 0 
" style="stroke: #000000; stroke-width: 0.8"/>
      </defs>
      <g>
       <use xlink:href="#mc22d19de81" x="57.6" y="295.274824" style="stroke: #000000; stroke-width: 0.8"/>
      </g>
     </g>
     <g id="text_11">
      <!-- −2000 -->
      <g transform="translate(16.770313 299.074043) scale(0.1 -0.1)">
       <defs>
        <path id="DejaVuSans-2212" d="M 678 2272 
L 4684 2272 
L 4684 1741 
L 678 1741 
L 678 2272 
z
" transform="scale(0.015625)"/>
       </defs>
       <use xlink:href="#DejaVuSans-2212"/>
       <use xlink:href="#DejaVuSans-32" x="83.789062"/>
       <use xlink:href="#DejaVuSans-30" x="147.412109"/>
       <use xlink:href="#DejaVuSans-30" x="211.035156"/>
       <use xlink:href="#DejaVuSans-30" x="274.658203"/>
      </g>
     </g>
    </g>
    <g id="ytick_2">
     <g id="line2d_21">
      <path d="M 57.6 256.850659 
L 414.72 256.850659 
" clip-path="url(#p259c5f4fff)" style="fill: none; stroke: #b0b0b0; stroke-width: 0.8; stroke-linecap: square"/>
     </g>
     <g id="line2d_22">
      <g>
       <use xlink:href="#mc22d19de81" x="57.6" y="256.850659" style="stroke: #000000; stroke-width: 0.8"/>
      </g>
     </g>
     <g id="text_12">
      <!-- −1800 -->
      <g transform="translate(16.770313 260.649877) scale(0.1 -0.1)">
       <defs>
        <path id="DejaVuSans-38" d="M 2034 2216 
Q 1584 2216 1326 1975 
Q 1069 1734 1069 1313 
Q 1069 891 1326 650 
Q 1584 409 2034 409 
Q 2484 409 2743 651 
Q 3003 894 3003 1313 
Q 3003 1734 2745 1975 
Q 2488 2216 2034 2216 
z
M 1403 2484 
Q 997 2584 770 2862 
Q 544 3141 544 3541 
Q 544 4100 942 4425 
Q 1341 4750 2034 4750 
Q 2731 4750 3128 4425 
Q 3525 4100 3525 3541 
Q 3525 3141 3298 2862 
Q 3072 2584 2669 2484 
Q 3125 2378 3379 2068 
Q 3634 1759 3634 1313 
Q 3634 634 3220 271 
Q 2806 -91 2034 -91 
Q 1263 -91 848 271 
Q 434 634 434 1313 
Q 434 1759 690 2068 
Q 947 2378 1403 2484 
z
M 1172 3481 
Q 1172 3119 1398 2916 
Q 1625 2713 2034 2713 
Q 2441 2713 2670 2916 
Q 2900 3119 2900 3481 
Q 2900 3844 2670 4047 
Q 2441 4250 2034 4250 
Q 1625 4250 1398 4047 
Q 1172 3844 1172 3481 
z
" transform="scale(0.015625)"/>
       </defs>
       <use xlink:href="#DejaVuSans-2212"/>
       <use xlink:href="#DejaVuSans-31" x="83.789062"/>
       <use xlink:href="#DejaVuSans-38" x="147.412109"/>
       <use xlink:href="#DejaVuSans-30" x="211.035156"/>
       <use xlink:href="#DejaVuSans-30" x="274.658203"/>
      </g>
     </g>
    </g>
    <g id="ytick_3">
     <g id="line2d_23">
      <path d="M 57.6 218.426493 
L 414.72 218.426493 
" clip-path="url(#p259c5f4fff)" style="fill: none; stroke: #b0b0b0; stroke-width: 0.8; stroke-linecap: square"/>
     </g>
     <g id="line2d_24">
      <g>
       <use xlink:href="#mc22d19de81" x="57.6" y="218.426493" style="stroke: #000000; stroke-width: 0.8"/>
      </g>
     </g>
     <g id="text_13">
      <!-- −1600 -->
      <g transform="translate(16.770313 222.225712) scale(0.1 -0.1)">
       <defs>
        <path id="DejaVuSans-36" d="M 2113 2584 
Q 1688 2584 1439 2293 
Q 1191 2003 1191 1497 
Q 1191 994 1439 701 
Q 1688 409 2113 409 
Q 2538 409 2786 701 
Q 3034 994 3034 1497 
Q 3034 2003 2786 2293 
Q 2538 2584 2113 2584 
z
M 3366 4563 
L 3366 3988 
Q 3128 4100 2886 4159 
Q 2644 4219 2406 4219 
Q 1781 4219 1451 3797 
Q 1122 3375 1075 2522 
Q 1259 2794 1537 2939 
Q 1816 3084 2150 3084 
Q 2853 3084 3261 2657 
Q 3669 2231 3669 1497 
Q 3669 778 3244 343 
Q 2819 -91 2113 -91 
Q 1303 -91 875 529 
Q 447 1150 447 2328 
Q 447 3434 972 4092 
Q 1497 4750 2381 4750 
Q 2619 4750 2861 4703 
Q 3103 4656 3366 4563 
z
" transform="scale(0.015625)"/>
       </defs>
       <use xlink:href="#DejaVuSans-2212"/>
       <use xlink:href="#DejaVuSans-31" x="83.789062"/>
       <use xlink:href="#DejaVuSans-36" x="147.412109"/>
       <use xlink:href="#DejaVuSans-30" x="211.035156"/>
       <use xlink:href="#DejaVuSans-30" x="274.658203"/>
      </g>
     </g>
    </g>
    <g id="ytick_4">
     <g id="line2d_25">
      <path d="M 57.6 180.002327 
L 414.72 180.002327 
" clip-path="url(#p259c5f4fff)" style="fill: none; stroke: #b0b0b0; stroke-width: 0.8; stroke-linecap: square"/>
     </g>
     <g id="line2d_26">
      <g>
       <use xlink:href="#mc22d19de81" x="57.6" y="180.002327" style="stroke: #000000; stroke-width: 0.8"/>
      </g>
     </g>
     <g id="text_14">
      <!-- −1400 -->
      <g transform="translate(16.770313 183.801546) scale(0.1 -0.1)">
       <defs>
        <path id="DejaVuSans-34" d="M 2419 4116 
L 825 1625 
L 2419 1625 
L 2419 4116 
z
M 2253 4666 
L 3047 4666 
L 3047 1625 
L 3713 1625 
L 3713 1100 
L 3047 1100 
L 3047 0 
L 2419 0 
L 2419 1100 
L 313 1100 
L 313 1709 
L 2253 4666 
z
" transform="scale(0.015625)"/>
       </defs>
       <use xlink:href="#DejaVuSans-2212"/>
       <use xlink:href="#DejaVuSans-31" x="83.789062"/>
       <use xlink:href="#DejaVuSans-34" x="147.412109"/>
       <use xlink:href="#DejaVuSans-30" x="211.035156"/>
       <use xlink:href="#DejaVuSans-30" x="274.658203"/>
      </g>
     </g>
    </g>
    <g id="ytick_5">
     <g id="line2d_27">
      <path d="M 57.6 141.578162 
L 414.72 141.578162 
" clip-path="url(#p259c5f4fff)" style="fill: none; stroke: #b0b0b0; stroke-width: 0.8; stroke-linecap: square"/>
     </g>
     <g id="line2d_28">
      <g>
       <use xlink:href="#mc22d19de81" x="57.6" y="141.578162" style="stroke: #000000; stroke-width: 0.8"/>
      </g>
     </g>
     <g id="text_15">
      <!-- −1200 -->
      <g transform="translate(16.770313 145.37738) scale(0.1 -0.1)">
       <use xlink:href="#DejaVuSans-2212"/>
       <use xlink:href="#DejaVuSans-31" x="83.789062"/>
       <use xlink:href="#DejaVuSans-32" x="147.412109"/>
       <use xlink:href="#DejaVuSans-30" x="211.035156"/>
       <use xlink:href="#DejaVuSans-30" x="274.658203"/>
      </g>
     </g>
    </g>
    <g id="ytick_6">
     <g id="line2d_29">
      <path d="M 57.6 103.153996 
L 414.72 103.153996 
" clip-path="url(#p259c5f4fff)" style="fill: none; stroke: #b0b0b0; stroke-width: 0.8; stroke-linecap: square"/>
     </g>
     <g id="line2d_30">
      <g>
       <use xlink:href="#mc22d19de81" x="57.6" y="103.153996" style="stroke: #000000; stroke-width: 0.8"/>
      </g>
     </g>
     <g id="text_16">
      <!-- −1000 -->
      <g transform="translate(16.770313 106.953215) scale(0.1 -0.1)">
       <use xlink:href="#DejaVuSans-2212"/>
       <use xlink:href="#DejaVuSans-31" x="83.789062"/>
       <use xlink:href="#DejaVuSans-30" x="147.412109"/>
       <use xlink:href="#DejaVuSans-30" x="211.035156"/>
       <use xlink:href="#DejaVuSans-30" x="274.658203"/>
      </g>
     </g>
    </g>
    <g id="ytick_7">
     <g id="line2d_31">
      <path d="M 57.6 64.72983 
L 414.72 64.72983 
" clip-path="url(#p259c5f4fff)" style="fill: none; stroke: #b0b0b0; stroke-width: 0.8; stroke-linecap: square"/>
     </g>
     <g id="line2d_32">
      <g>
       <use xlink:href="#mc22d19de81" x="57.6" y="64.72983" style="stroke: #000000; stroke-width: 0.8"/>
      </g>
     </g>
     <g id="text_17">
      <!-- −800 -->
      <g transform="translate(23.132812 68.529049) scale(0.1 -0.1)">
       <use xlink:href="#DejaVuSans-2212"/>
       <use xlink:href="#DejaVuSans-38" x="83.789062"/>
       <use xlink:href="#DejaVuSans-30" x="147.412109"/>
       <use xlink:href="#DejaVuSans-30" x="211.035156"/>
      </g>
     </g>
    </g>
    <g id="text_18">
     <!-- Fitness -->
     <g transform="translate(10.690625 191.845187) rotate(-90) scale(0.1 -0.1)">
      <defs>
       <path id="DejaVuSans-46" d="M 628 4666 
L 3309 4666 
L 3309 4134 
L 1259 4134 
L 1259 2759 
L 3109 2759 
L 3109 2228 
L 1259 2228 
L 1259 0 
L 628 0 
L 628 4666 
z
" transform="scale(0.015625)"/>
      </defs>
      <use xlink:href="#DejaVuSans-46"/>
      <use xlink:href="#DejaVuSans-69" x="50.269531"/>
      <use xlink:href="#DejaVuSans-74" x="78.052734"/>
      <use xlink:href="#DejaVuSans-6e" x="117.261719"/>
      <use xlink:href="#DejaVuSans-65" x="180.640625"/>
      <use xlink:href="#DejaVuSans-73" x="242.164062"/>
      <use xlink:href="#DejaVuSans-73" x="294.263672"/>
     </g>
    </g>
   </g>
   <g id="line2d_33">
    <path d="M 73.832727 273.477932 
L 75.464157 270.574259 
L 77.095587 268.072982 
L 78.727017 267.99897 
L 80.358447 264.62724 
L 83.621307 263.382519 
L 85.252736 264.11755 
L 86.884166 264.140916 
L 88.515596 264.634831 
L 90.147026 264.466984 
L 93.409886 264.5825 
L 95.041316 265.194396 
L 96.672746 264.050355 
L 98.304175 265.426372 
L 99.935605 264.772046 
L 101.567035 263.976603 
L 103.198465 265.432107 
L 104.829895 264.927045 
L 106.461325 265.348184 
L 108.092755 264.756698 
L 111.355614 265.355775 
L 112.987044 264.538026 
L 114.618474 264.753469 
L 116.249904 263.972659 
L 117.881334 264.599027 
L 119.512764 265.820608 
L 121.144194 264.4325 
L 122.775624 265.102629 
L 124.407053 264.646185 
L 126.038483 265.4864 
L 127.669913 264.388029 
L 129.301343 264.594232 
L 130.932773 265.267512 
L 132.564203 263.884496 
L 134.195633 264.338701 
L 135.827063 265.130305 
L 137.458492 262.254794 
L 139.089922 265.014336 
L 140.721352 265.57696 
L 142.352782 264.224702 
L 143.984212 263.615437 
L 145.615642 265.011095 
L 147.247072 265.134893 
L 148.878502 265.020376 
L 150.509931 265.149367 
L 152.141361 264.18738 
L 153.772791 265.427856 
L 155.404221 264.585744 
L 157.035651 265.370543 
L 158.667081 265.442466 
L 160.298511 265.003379 
L 161.929941 264.753446 
L 163.56137 266.003962 
L 165.1928 265.481815 
L 166.82423 265.548234 
L 168.45566 264.315072 
L 170.08709 265.192588 
L 171.71852 264.984797 
L 173.34995 264.315576 
L 174.98138 266.090804 
L 176.61281 264.664237 
L 178.244239 266.437531 
L 179.875669 264.405948 
L 181.507099 265.130955 
L 183.138529 265.35637 
L 184.769959 264.731286 
L 186.401389 265.575561 
L 188.032819 266.135014 
L 189.664249 265.7524 
L 191.295678 264.328837 
L 192.927108 264.027563 
L 194.558538 265.383194 
L 196.189968 264.226607 
L 197.821398 264.25854 
L 199.452828 263.956093 
L 202.715688 264.234878 
L 204.347117 263.630763 
L 207.609977 264.758301 
L 209.241407 264.137943 
L 210.872837 264.312337 
L 212.504267 265.269941 
L 214.135697 264.862466 
L 215.767127 263.713956 
L 217.398556 263.763325 
L 219.029986 264.942643 
L 220.661416 263.84474 
L 222.292846 263.855585 
L 223.924276 264.545257 
L 225.555706 265.384258 
L 227.187136 265.322422 
L 228.818566 263.752248 
L 230.449995 263.833535 
L 232.081425 264.491753 
L 233.712855 264.374428 
L 235.344285 262.332414 
L 236.975715 264.588018 
L 238.607145 264.037285 
L 240.238575 262.781914 
L 241.870005 263.2866 
L 243.501434 263.647048 
L 245.132864 265.514821 
L 246.764294 265.387294 
L 248.395724 264.714402 
L 250.027154 264.293172 
L 251.658584 262.507141 
L 253.290014 263.969739 
L 254.921444 263.252424 
L 256.552873 263.907064 
L 258.184303 263.677189 
L 259.815733 261.969979 
L 261.447163 261.736787 
L 263.078593 262.890463 
L 264.710023 261.913796 
L 266.341453 261.784426 
L 267.972883 262.020079 
L 271.235742 261.731874 
L 272.867172 261.845201 
L 274.498602 262.402091 
L 276.130032 262.007562 
L 277.761462 262.174357 
L 279.392892 261.819836 
L 281.024322 259.941084 
L 282.655751 260.512511 
L 284.287181 261.285587 
L 285.918611 261.667063 
L 287.550041 261.066031 
L 289.181471 261.453157 
L 290.812901 261.662418 
L 292.444331 261.501287 
L 294.075761 261.079495 
L 295.70719 260.022395 
L 297.33862 261.204934 
L 298.97005 261.755376 
L 300.60148 260.642424 
L 302.23291 261.535977 
L 303.86434 262.151182 
L 305.49577 261.104257 
L 307.1272 260.868375 
L 310.390059 262.617363 
L 312.021489 261.576839 
L 313.652919 262.36771 
L 315.284349 263.534474 
L 316.915779 261.904596 
L 318.547209 262.665393 
L 320.178639 262.306847 
L 321.810069 262.550398 
L 323.441498 263.464941 
L 325.072928 260.90002 
L 326.704358 262.498762 
L 328.335788 261.03204 
L 329.967218 261.707639 
L 331.598648 262.245686 
L 333.230078 261.978094 
L 334.861508 262.781946 
L 336.492937 262.111941 
L 338.124367 262.480486 
L 339.755797 263.475051 
L 341.387227 261.967416 
L 343.018657 262.063463 
L 344.650087 261.760538 
L 346.281517 260.27137 
L 347.912947 262.646476 
L 349.544376 262.304775 
L 352.807236 262.942946 
L 354.438666 261.853359 
L 356.070096 261.671907 
L 357.701526 262.009537 
L 359.332956 263.340184 
L 360.964386 262.97712 
L 362.595815 261.316391 
L 364.227245 262.818022 
L 365.858675 261.998125 
L 367.490105 261.889466 
L 369.121535 261.606956 
L 372.384395 262.312291 
L 375.647254 260.732608 
L 377.278684 261.53109 
L 378.910114 260.938049 
L 380.541544 261.786749 
L 382.172974 261.453809 
L 383.804404 259.920612 
L 385.435834 259.887021 
L 387.067264 259.983289 
L 388.698693 260.369988 
L 390.330123 261.23391 
L 391.961553 261.401341 
L 393.592983 262.248698 
L 395.224413 260.458307 
L 396.855843 260.307584 
L 398.487273 260.011046 
L 398.487273 260.011046 
" clip-path="url(#p259c5f4fff)" style="fill: none; stroke: #0000ff; stroke-width: 1.5; stroke-linecap: square"/>
   </g>
   <g id="line2d_34">
    <path d="M 73.832727 285.227864 
L 75.464157 287.491377 
L 77.095587 286.384502 
L 78.727017 281.145099 
L 80.358447 286.117416 
L 81.989877 284.251322 
L 83.621307 283.503914 
L 85.252736 284.127861 
L 86.884166 284.05714 
L 88.515596 282.449731 
L 90.147026 282.014434 
L 93.409886 282.544092 
L 95.041316 283.203059 
L 96.672746 281.400468 
L 98.304175 283.051434 
L 99.935605 282.082423 
L 101.567035 281.404923 
L 103.198465 283.25084 
L 104.829895 282.635898 
L 106.461325 283.096194 
L 108.092755 282.875568 
L 109.724185 283.533835 
L 111.355614 283.800098 
L 112.987044 282.918441 
L 114.618474 282.650007 
L 116.249904 282.201268 
L 117.881334 282.62668 
L 119.512764 284.520704 
L 121.144194 282.604535 
L 122.775624 283.56746 
L 124.407053 282.101806 
L 126.038483 283.680406 
L 127.669913 282.298501 
L 129.301343 282.451026 
L 130.932773 283.195379 
L 132.564203 281.304862 
L 134.195633 282.062269 
L 135.827063 283.246653 
L 137.458492 285.095731 
L 139.089922 282.062236 
L 140.721352 283.110161 
L 142.352782 281.290268 
L 143.984212 283.141791 
L 145.615642 282.81213 
L 147.247072 283.567248 
L 148.878502 282.725944 
L 150.509931 283.099003 
L 152.141361 281.601616 
L 153.772791 282.569611 
L 155.404221 281.91503 
L 157.035651 283.706756 
L 158.667081 285.26617 
L 160.298511 282.692992 
L 161.929941 282.269793 
L 163.56137 283.747604 
L 165.1928 283.224025 
L 166.82423 283.172987 
L 168.45566 281.851107 
L 170.08709 283.809217 
L 171.71852 283.246755 
L 173.34995 289.612634 
L 174.98138 284.52677 
L 176.61281 283.619993 
L 178.244239 285.779589 
L 179.875669 282.74262 
L 181.507099 283.768938 
L 183.138529 284.123359 
L 184.769959 283.26486 
L 186.401389 284.590201 
L 188.032819 284.954038 
L 189.664249 284.538425 
L 191.295678 284.57151 
L 192.927108 284.337674 
L 194.558538 285.945172 
L 196.189968 284.615026 
L 197.821398 284.531506 
L 199.452828 284.067254 
L 201.084258 284.536581 
L 202.715688 284.683888 
L 204.347117 283.728537 
L 205.978547 286.188825 
L 209.241407 284.478713 
L 210.872837 284.594092 
L 212.504267 285.898223 
L 214.135697 285.574874 
L 215.767127 283.624315 
L 217.398556 284.095159 
L 219.029986 285.563093 
L 220.661416 283.66588 
L 223.924276 284.884575 
L 225.555706 285.951366 
L 227.187136 285.778152 
L 228.818566 284.113321 
L 230.449995 284.020095 
L 232.081425 284.976549 
L 233.712855 284.909659 
L 235.344285 283.867224 
L 236.975715 285.019007 
L 238.607145 284.499205 
L 240.238575 284.278055 
L 241.870005 285.379023 
L 243.501434 285.739705 
L 245.132864 285.809277 
L 246.764294 287.753192 
L 248.395724 285.215101 
L 250.027154 284.208151 
L 251.658584 285.047598 
L 253.290014 283.735687 
L 254.921444 282.760131 
L 256.552873 283.602347 
L 258.184303 292.986794 
L 259.815733 291.080733 
L 261.447163 290.32122 
L 263.078593 291.927949 
L 264.710023 290.122648 
L 266.341453 290.567731 
L 267.972883 290.372848 
L 269.604312 290.320643 
L 271.235742 290.117867 
L 272.867172 290.359073 
L 274.498602 290.89132 
L 276.130032 290.655194 
L 277.761462 291.625177 
L 279.392892 290.900827 
L 281.024322 293.502328 
L 282.655751 292.44986 
L 284.287181 294.000133 
L 285.918611 294.302448 
L 287.550041 293.676261 
L 290.812901 293.682577 
L 292.444331 294.125767 
L 295.70719 290.395126 
L 297.33862 290.168533 
L 298.97005 292.711407 
L 300.60148 291.377445 
L 302.23291 292.693967 
L 303.86434 292.801812 
L 305.49577 291.298245 
L 307.1272 290.309174 
L 308.75863 290.456184 
L 310.390059 290.801692 
L 312.021489 288.707727 
L 313.652919 289.706775 
L 315.284349 290.552325 
L 316.915779 289.412052 
L 318.547209 289.289554 
L 320.178639 288.883926 
L 321.810069 289.966154 
L 323.441498 291.787985 
L 325.072928 290.1297 
L 326.704358 295.095832 
L 328.335788 293.173682 
L 329.967218 292.839662 
L 331.598648 292.73409 
L 333.230078 291.524195 
L 334.861508 291.020428 
L 336.492937 291.081602 
L 338.124367 292.657713 
L 339.755797 292.286515 
L 341.387227 292.090843 
L 343.018657 292.882739 
L 344.650087 292.013341 
L 346.281517 294.18983 
L 347.912947 290.758622 
L 349.544376 289.800074 
L 351.175806 290.881163 
L 352.807236 291.393046 
L 354.438666 289.052831 
L 356.070096 290.507593 
L 357.701526 293.154885 
L 359.332956 291.270917 
L 360.964386 291.102085 
L 362.595815 290.278537 
L 364.227245 290.767348 
L 365.858675 291.924232 
L 367.490105 291.549187 
L 369.121535 291.492845 
L 370.752965 292.562311 
L 374.015825 293.607027 
L 375.647254 295.488 
L 377.278684 291.654671 
L 378.910114 292.725221 
L 380.541544 294.485257 
L 382.172974 294.052607 
L 383.804404 293.033933 
L 385.435834 292.588732 
L 387.067264 293.062914 
L 388.698693 293.410995 
L 390.330123 294.52989 
L 391.961553 293.705391 
L 393.592983 294.443088 
L 395.224413 293.325077 
L 396.855843 292.982664 
L 398.487273 294.769152 
L 398.487273 294.769152 
" clip-path="url(#p259c5f4fff)" style="fill: none; stroke-dasharray: 9.6,2.4,1.5,2.4; stroke-dashoffset: 0; stroke: #008000; stroke-width: 1.5"/>
   </g>
   <g id="line2d_35">
    <path d="M 73.832727 261.728 
L 75.464157 253.657142 
L 77.095587 249.761463 
L 78.727017 254.852842 
L 80.358447 243.137063 
L 81.989877 243.807905 
L 83.621307 243.261125 
L 85.252736 244.10724 
L 86.884166 244.224692 
L 88.515596 246.819931 
L 90.147026 246.919535 
L 91.778456 246.69006 
L 93.409886 246.620908 
L 95.041316 247.185733 
L 96.672746 246.700242 
L 98.304175 247.80131 
L 99.935605 247.46167 
L 101.567035 246.548284 
L 103.198465 247.613374 
L 104.829895 247.218192 
L 106.461325 247.600175 
L 108.092755 246.637828 
L 109.724185 246.548653 
L 111.355614 246.911451 
L 112.987044 246.15761 
L 114.618474 246.85693 
L 116.249904 245.74405 
L 117.881334 246.571374 
L 119.512764 247.120512 
L 121.144194 246.260464 
L 122.775624 246.637797 
L 124.407053 247.190565 
L 126.038483 247.292394 
L 127.669913 246.477557 
L 129.301343 246.737438 
L 130.932773 247.339646 
L 132.564203 246.46413 
L 134.195633 246.615133 
L 135.827063 247.013958 
L 137.458492 239.413858 
L 139.089922 247.966436 
L 140.721352 248.043759 
L 142.352782 247.159135 
L 143.984212 244.089084 
L 145.615642 247.21006 
L 147.247072 246.702539 
L 148.878502 247.314808 
L 150.509931 247.199731 
L 152.141361 246.773144 
L 153.772791 248.286101 
L 155.404221 247.256457 
L 157.035651 247.03433 
L 158.667081 245.618761 
L 160.298511 247.313767 
L 161.929941 247.237098 
L 163.56137 248.26032 
L 165.1928 247.739605 
L 166.82423 247.923481 
L 168.45566 246.779038 
L 170.08709 246.575958 
L 171.71852 246.72284 
L 173.34995 239.018518 
L 174.98138 247.654838 
L 176.61281 245.70848 
L 178.244239 247.095474 
L 179.875669 246.069277 
L 181.507099 246.492971 
L 183.138529 246.589381 
L 184.769959 246.197711 
L 186.401389 246.56092 
L 188.032819 247.31599 
L 189.664249 246.966375 
L 191.295678 244.086164 
L 192.927108 243.717451 
L 194.558538 244.821215 
L 196.189968 243.838188 
L 197.821398 243.985575 
L 201.084258 243.73531 
L 202.715688 243.785869 
L 204.347117 243.53299 
L 205.978547 242.288978 
L 207.609977 244.190091 
L 209.241407 243.797173 
L 210.872837 244.030583 
L 212.504267 244.641659 
L 214.135697 244.150057 
L 217.398556 243.431492 
L 219.029986 244.322193 
L 220.661416 244.0236 
L 222.292846 243.472937 
L 225.555706 244.81715 
L 227.187136 244.866692 
L 228.818566 243.391174 
L 232.081425 244.006957 
L 233.712855 243.839197 
L 235.344285 240.797604 
L 236.975715 244.157029 
L 238.607145 243.575365 
L 240.238575 241.285774 
L 241.870005 241.194178 
L 243.501434 241.55439 
L 245.132864 245.220364 
L 246.764294 243.021397 
L 248.395724 244.213702 
L 250.027154 244.378193 
L 251.658584 239.966684 
L 253.290014 244.20379 
L 254.921444 243.744717 
L 256.552873 244.211781 
L 258.184303 234.367584 
L 259.815733 232.859225 
L 261.447163 233.152354 
L 263.078593 233.852977 
L 264.710023 233.704944 
L 266.341453 233.001122 
L 267.972883 233.66731 
L 269.604312 233.333071 
L 272.867172 233.331329 
L 274.498602 233.912862 
L 277.761462 232.723538 
L 279.392892 232.738846 
L 281.024322 226.379841 
L 282.655751 228.575163 
L 284.287181 228.571041 
L 285.918611 229.031678 
L 287.550041 228.455802 
L 289.181471 229.202726 
L 290.812901 229.642258 
L 292.444331 228.876808 
L 294.075761 229.889453 
L 295.70719 229.649664 
L 297.33862 232.241335 
L 298.97005 230.799345 
L 300.60148 229.907404 
L 302.23291 230.377986 
L 303.86434 231.500552 
L 305.49577 230.910269 
L 307.1272 231.427576 
L 308.75863 233.106831 
L 310.390059 234.433034 
L 312.021489 234.445951 
L 313.652919 235.028644 
L 315.284349 236.516623 
L 316.915779 234.397141 
L 318.547209 236.041231 
L 320.178639 235.729768 
L 321.810069 235.134642 
L 323.441498 235.141898 
L 325.072928 231.670339 
L 326.704358 229.901693 
L 328.335788 228.890398 
L 329.967218 230.575617 
L 331.598648 231.757283 
L 333.230078 232.431993 
L 334.861508 234.543463 
L 336.492937 233.142281 
L 338.124367 232.303259 
L 339.755797 234.663586 
L 341.387227 231.843988 
L 343.018657 231.244187 
L 344.650087 231.507735 
L 346.281517 226.352909 
L 347.912947 234.534329 
L 349.544376 234.809477 
L 351.175806 234.350275 
L 354.438666 234.653888 
L 357.701526 230.86419 
L 359.332956 235.40945 
L 360.964386 234.852155 
L 362.595815 232.354245 
L 364.227245 234.868696 
L 365.858675 232.072018 
L 367.490105 232.229746 
L 370.752965 231.306428 
L 372.384395 231.498313 
L 374.015825 229.366068 
L 375.647254 225.977216 
L 377.278684 231.407509 
L 378.910114 229.150877 
L 380.541544 229.08824 
L 382.172974 228.855011 
L 383.804404 226.807291 
L 385.435834 227.185311 
L 387.067264 226.903664 
L 388.698693 227.328981 
L 390.330123 227.93793 
L 391.961553 229.09729 
L 393.592983 230.054308 
L 395.224413 227.591538 
L 396.855843 227.632503 
L 398.487273 225.252939 
L 398.487273 225.252939 
" clip-path="url(#p259c5f4fff)" style="fill: none; stroke-dasharray: 9.6,2.4,1.5,2.4; stroke-dashoffset: 0; stroke: #008000; stroke-width: 1.5"/>
   </g>
   <g id="line2d_36">
    <path d="M 73.832727 179.697178 
L 78.727017 179.697178 
L 80.358447 91.021944 
L 171.71852 91.021944 
L 173.34995 88.011386 
L 256.552873 88.011386 
L 258.184303 53.568 
L 398.487273 53.568 
L 398.487273 53.568 
" clip-path="url(#p259c5f4fff)" style="fill: none; stroke: #ff0000; stroke-width: 1.5; stroke-linecap: square"/>
   </g>
   <g id="patch_3">
    <path d="M 57.6 307.584 
L 57.6 41.472 
" style="fill: none; stroke: #000000; stroke-width: 0.8; stroke-linejoin: miter; stroke-linecap: square"/>
   </g>
   <g id="patch_4">
    <path d="M 414.72 307.584 
L 414.72 41.472 
" style="fill: none; stroke: #000000; stroke-width: 0.8; stroke-linejoin: miter; stroke-linecap: square"/>
   </g>
   <g id="patch_5">
    <path d="M 57.6 307.584 
L 414.72 307.584 
" style="fill: none; stroke: #000000; stroke-width: 0.8; stroke-linejoin: miter; stroke-linecap: square"/>
   </g>
   <g id="patch_6">
    <path d="M 57.6 41.472 
L 414.72 41.472 
" style="fill: none; stroke: #000000; stroke-width: 0.8; stroke-linejoin: miter; stroke-linecap: square"/>
   </g>
   <g id="text_19">
    <!-- Population's average and best fitness -->
    <g transform="translate(123.529687 35.472) scale(0.12 -0.12)">
     <defs>
      <path id="DejaVuSans-50" d="M 1259 4147 
L 1259 2394 
L 2053 2394 
Q 2494 2394 2734 2622 
Q 2975 2850 2975 3272 
Q 2975 3691 2734 3919 
Q 2494 4147 2053 4147 
L 1259 4147 
z
M 628 4666 
L 2053 4666 
Q 2838 4666 3239 4311 
Q 3641 3956 3641 3272 
Q 3641 2581 3239 2228 
Q 2838 1875 2053 1875 
L 1259 1875 
L 1259 0 
L 628 0 
L 628 4666 
z
" transform="scale(0.015625)"/>
      <path id="DejaVuSans-70" d="M 1159 525 
L 1159 -1331 
L 581 -1331 
L 581 3500 
L 1159 3500 
L 1159 2969 
Q 1341 3281 1617 3432 
Q 1894 3584 2278 3584 
Q 2916 3584 3314 3078 
Q 3713 2572 3713 1747 
Q 3713 922 3314 415 
Q 2916 -91 2278 -91 
Q 1894 -91 1617 61 
Q 1341 213 1159 525 
z
M 3116 1747 
Q 3116 2381 2855 2742 
Q 2594 3103 2138 3103 
Q 1681 3103 1420 2742 
Q 1159 2381 1159 1747 
Q 1159 1113 1420 752 
Q 1681 391 2138 391 
Q 2594 391 2855 752 
Q 3116 1113 3116 1747 
z
" transform="scale(0.015625)"/>
      <path id="DejaVuSans-75" d="M 544 1381 
L 544 3500 
L 1119 3500 
L 1119 1403 
Q 1119 906 1312 657 
Q 1506 409 1894 409 
Q 2359 409 2629 706 
Q 2900 1003 2900 1516 
L 2900 3500 
L 3475 3500 
L 3475 0 
L 2900 0 
L 2900 538 
Q 2691 219 2414 64 
Q 2138 -91 1772 -91 
Q 1169 -91 856 284 
Q 544 659 544 1381 
z
M 1991 3584 
L 1991 3584 
z
" transform="scale(0.015625)"/>
      <path id="DejaVuSans-6c" d="M 603 4863 
L 1178 4863 
L 1178 0 
L 603 0 
L 603 4863 
z
" transform="scale(0.015625)"/>
      <path id="DejaVuSans-27" d="M 1147 4666 
L 1147 2931 
L 616 2931 
L 616 4666 
L 1147 4666 
z
" transform="scale(0.015625)"/>
      <path id="DejaVuSans-20" transform="scale(0.015625)"/>
      <path id="DejaVuSans-76" d="M 191 3500 
L 800 3500 
L 1894 563 
L 2988 3500 
L 3597 3500 
L 2284 0 
L 1503 0 
L 191 3500 
z
" transform="scale(0.015625)"/>
      <path id="DejaVuSans-67" d="M 2906 1791 
Q 2906 2416 2648 2759 
Q 2391 3103 1925 3103 
Q 1463 3103 1205 2759 
Q 947 2416 947 1791 
Q 947 1169 1205 825 
Q 1463 481 1925 481 
Q 2391 481 2648 825 
Q 2906 1169 2906 1791 
z
M 3481 434 
Q 3481 -459 3084 -895 
Q 2688 -1331 1869 -1331 
Q 1566 -1331 1297 -1286 
Q 1028 -1241 775 -1147 
L 775 -588 
Q 1028 -725 1275 -790 
Q 1522 -856 1778 -856 
Q 2344 -856 2625 -561 
Q 2906 -266 2906 331 
L 2906 616 
Q 2728 306 2450 153 
Q 2172 0 1784 0 
Q 1141 0 747 490 
Q 353 981 353 1791 
Q 353 2603 747 3093 
Q 1141 3584 1784 3584 
Q 2172 3584 2450 3431 
Q 2728 3278 2906 2969 
L 2906 3500 
L 3481 3500 
L 3481 434 
z
" transform="scale(0.015625)"/>
      <path id="DejaVuSans-64" d="M 2906 2969 
L 2906 4863 
L 3481 4863 
L 3481 0 
L 2906 0 
L 2906 525 
Q 2725 213 2448 61 
Q 2172 -91 1784 -91 
Q 1150 -91 751 415 
Q 353 922 353 1747 
Q 353 2572 751 3078 
Q 1150 3584 1784 3584 
Q 2172 3584 2448 3432 
Q 2725 3281 2906 2969 
z
M 947 1747 
Q 947 1113 1208 752 
Q 1469 391 1925 391 
Q 2381 391 2643 752 
Q 2906 1113 2906 1747 
Q 2906 2381 2643 2742 
Q 2381 3103 1925 3103 
Q 1469 3103 1208 2742 
Q 947 2381 947 1747 
z
" transform="scale(0.015625)"/>
      <path id="DejaVuSans-62" d="M 3116 1747 
Q 3116 2381 2855 2742 
Q 2594 3103 2138 3103 
Q 1681 3103 1420 2742 
Q 1159 2381 1159 1747 
Q 1159 1113 1420 752 
Q 1681 391 2138 391 
Q 2594 391 2855 752 
Q 3116 1113 3116 1747 
z
M 1159 2969 
Q 1341 3281 1617 3432 
Q 1894 3584 2278 3584 
Q 2916 3584 3314 3078 
Q 3713 2572 3713 1747 
Q 3713 922 3314 415 
Q 2916 -91 2278 -91 
Q 1894 -91 1617 61 
Q 1341 213 1159 525 
L 1159 0 
L 581 0 
L 581 4863 
L 1159 4863 
L 1159 2969 
z
" transform="scale(0.015625)"/>
      <path id="DejaVuSans-66" d="M 2375 4863 
L 2375 4384 
L 1825 4384 
Q 1516 4384 1395 4259 
Q 1275 4134 1275 3809 
L 1275 3500 
L 2222 3500 
L 2222 3053 
L 1275 3053 
L 1275 0 
L 697 0 
L 697 3053 
L 147 3053 
L 147 3500 
L 697 3500 
L 697 3744 
Q 697 4328 969 4595 
Q 1241 4863 1831 4863 
L 2375 4863 
z
" transform="scale(0.015625)"/>
     </defs>
     <use xlink:href="#DejaVuSans-50"/>
     <use xlink:href="#DejaVuSans-6f" x="56.677734"/>
     <use xlink:href="#DejaVuSans-70" x="117.859375"/>
     <use xlink:href="#DejaVuSans-75" x="181.335938"/>
     <use xlink:href="#DejaVuSans-6c" x="244.714844"/>
     <use xlink:href="#DejaVuSans-61" x="272.498047"/>
     <use xlink:href="#DejaVuSans-74" x="333.777344"/>
     <use xlink:href="#DejaVuSans-69" x="372.986328"/>
     <use xlink:href="#DejaVuSans-6f" x="400.769531"/>
     <use xlink:href="#DejaVuSans-6e" x="461.951172"/>
     <use xlink:href="#DejaVuSans-27" x="525.330078"/>
     <use xlink:href="#DejaVuSans-73" x="552.820312"/>
     <use xlink:href="#DejaVuSans-20" x="604.919922"/>
     <use xlink:href="#DejaVuSans-61" x="636.707031"/>
     <use xlink:href="#DejaVuSans-76" x="697.986328"/>
     <use xlink:href="#DejaVuSans-65" x="757.166016"/>
     <use xlink:href="#DejaVuSans-72" x="818.689453"/>
     <use xlink:href="#DejaVuSans-61" x="859.802734"/>
     <use xlink:href="#DejaVuSans-67" x="921.082031"/>
     <use xlink:href="#DejaVuSans-65" x="984.558594"/>
     <use xlink:href="#DejaVuSans-20" x="1046.082031"/>
     <use xlink:href="#DejaVuSans-61" x="1077.869141"/>
     <use xlink:href="#DejaVuSans-6e" x="1139.148438"/>
     <use xlink:href="#DejaVuSans-64" x="1202.527344"/>
     <use xlink:href="#DejaVuSans-20" x="1266.003906"/>
     <use xlink:href="#DejaVuSans-62" x="1297.791016"/>
     <use xlink:href="#DejaVuSans-65" x="1361.267578"/>
     <use xlink:href="#DejaVuSans-73" x="1422.791016"/>
     <use xlink:href="#DejaVuSans-74" x="1474.890625"/>
     <use xlink:href="#DejaVuSans-20" x="1514.099609"/>
     <use xlink:href="#DejaVuSans-66" x="1545.886719"/>
     <use xlink:href="#DejaVuSans-69" x="1581.091797"/>
     <use xlink:href="#DejaVuSans-74" x="1608.875"/>
     <use xlink:href="#DejaVuSans-6e" x="1648.083984"/>
     <use xlink:href="#DejaVuSans-65" x="1711.462891"/>
     <use xlink:href="#DejaVuSans-73" x="1772.986328"/>
     <use xlink:href="#DejaVuSans-73" x="1825.085938"/>
    </g>
   </g>
   <g id="legend_1">
    <g id="patch_7">
     <path d="M 334.779375 205.38425 
L 407.72 205.38425 
Q 409.72 205.38425 409.72 203.38425 
L 409.72 145.67175 
Q 409.72 143.67175 407.72 143.67175 
L 334.779375 143.67175 
Q 332.779375 143.67175 332.779375 145.67175 
L 332.779375 203.38425 
Q 332.779375 205.38425 334.779375 205.38425 
z
" style="fill: #ffffff; opacity: 0.8; stroke: #cccccc; stroke-linejoin: miter"/>
    </g>
    <g id="line2d_37">
     <path d="M 336.779375 151.770188 
L 346.779375 151.770188 
L 356.779375 151.770188 
" style="fill: none; stroke: #0000ff; stroke-width: 1.5; stroke-linecap: square"/>
    </g>
    <g id="text_20">
     <!-- average -->
     <g transform="translate(364.779375 155.270188) scale(0.1 -0.1)">
      <use xlink:href="#DejaVuSans-61"/>
      <use xlink:href="#DejaVuSans-76" x="61.279297"/>
      <use xlink:href="#DejaVuSans-65" x="120.458984"/>
      <use xlink:href="#DejaVuSans-72" x="181.982422"/>
      <use xlink:href="#DejaVuSans-61" x="223.095703"/>
      <use xlink:href="#DejaVuSans-67" x="284.375"/>
      <use xlink:href="#DejaVuSans-65" x="347.851562"/>
     </g>
    </g>
    <g id="line2d_38">
     <path d="M 336.779375 166.448313 
L 346.779375 166.448313 
L 356.779375 166.448313 
" style="fill: none; stroke-dasharray: 9.6,2.4,1.5,2.4; stroke-dashoffset: 0; stroke: #008000; stroke-width: 1.5"/>
    </g>
    <g id="text_21">
     <!-- -1 sd -->
     <g transform="translate(364.779375 169.948313) scale(0.1 -0.1)">
      <defs>
       <path id="DejaVuSans-2d" d="M 313 2009 
L 1997 2009 
L 1997 1497 
L 313 1497 
L 313 2009 
z
" transform="scale(0.015625)"/>
      </defs>
      <use xlink:href="#DejaVuSans-2d"/>
      <use xlink:href="#DejaVuSans-31" x="36.083984"/>
      <use xlink:href="#DejaVuSans-20" x="99.707031"/>
      <use xlink:href="#DejaVuSans-73" x="131.494141"/>
      <use xlink:href="#DejaVuSans-64" x="183.59375"/>
     </g>
    </g>
    <g id="line2d_39">
     <path d="M 336.779375 181.126438 
L 346.779375 181.126438 
L 356.779375 181.126438 
" style="fill: none; stroke-dasharray: 9.6,2.4,1.5,2.4; stroke-dashoffset: 0; stroke: #008000; stroke-width: 1.5"/>
    </g>
    <g id="text_22">
     <!-- +1 sd -->
     <g transform="translate(364.779375 184.626438) scale(0.1 -0.1)">
      <defs>
       <path id="DejaVuSans-2b" d="M 2944 4013 
L 2944 2272 
L 4684 2272 
L 4684 1741 
L 2944 1741 
L 2944 0 
L 2419 0 
L 2419 1741 
L 678 1741 
L 678 2272 
L 2419 2272 
L 2419 4013 
L 2944 4013 
z
" transform="scale(0.015625)"/>
      </defs>
      <use xlink:href="#DejaVuSans-2b"/>
      <use xlink:href="#DejaVuSans-31" x="83.789062"/>
      <use xlink:href="#DejaVuSans-20" x="147.412109"/>
      <use xlink:href="#DejaVuSans-73" x="179.199219"/>
      <use xlink:href="#DejaVuSans-64" x="231.298828"/>
     </g>
    </g>
    <g id="line2d_40">
     <path d="M 336.779375 195.804563 
L 346.779375 195.804563 
L 356.779375 195.804563 
" style="fill: none; stroke: #ff0000; stroke-width: 1.5; stroke-linecap: square"/>
    </g>
    <g id="text_23">
     <!-- best -->
     <g transform="translate(364.779375 199.304563) scale(0.1 -0.1)">
      <use xlink:href="#DejaVuSans-62"/>
      <use xlink:href="#DejaVuSans-65" x="63.476562"/>
      <use xlink:href="#DejaVuSans-73" x="125"/>
      <use xlink:href="#DejaVuSans-74" x="177.099609"/>
     </g>
    </g>
   </g>
  </g>
 </g>
 <defs>
  <clipPath id="p259c5f4fff">
   <rect x="57.6" y="41.472" width="357.12" height="266.112"/>
  </clipPath>
 </defs>
</svg>
