<?xml version="1.0" encoding="utf-8" standalone="no"?>
<!DOCTYPE svg PUBLIC "-//W3C//DTD SVG 1.1//EN"
  "http://www.w3.org/Graphics/SVG/1.1/DTD/svg11.dtd">
<svg xmlns:xlink="http://www.w3.org/1999/xlink" width="460.8pt" height="345.6pt" viewBox="0 0 460.8 345.6" xmlns="http://www.w3.org/2000/svg" version="1.1">
 <metadata>
  <rdf:RDF xmlns:dc="http://purl.org/dc/elements/1.1/" xmlns:cc="http://creativecommons.org/ns#" xmlns:rdf="http://www.w3.org/1999/02/22-rdf-syntax-ns#">
   <cc:Work>
    <dc:type rdf:resource="http://purl.org/dc/dcmitype/StillImage"/>
    <dc:date>2024-08-07T04:31:27.167885</dc:date>
    <dc:format>image/svg+xml</dc:format>
    <dc:creator>
     <cc:Agent>
      <dc:title>Matplotlib v3.8.4, https://matplotlib.org/</dc:title>
     </cc:Agent>
    </dc:creator>
   </cc:Work>
  </rdf:RDF>
 </metadata>
 <defs>
  <style type="text/css">*{stroke-linejoin: round; stroke-linecap: butt}</style>
 </defs>
 <g id="figure_1">
  <g id="patch_1">
   <path d="M 0 345.6 
L 460.8 345.6 
L 460.8 0 
L 0 0 
z
" style="fill: #ffffff"/>
  </g>
  <g id="axes_1">
   <g id="patch_2">
    <path d="M 57.6 307.584 
L 414.72 307.584 
L 414.72 41.472 
L 57.6 41.472 
z
" style="fill: #ffffff"/>
   </g>
   <g id="matplotlib.axis_1">
    <g id="xtick_1">
     <g id="line2d_1">
      <path d="M 73.832727 307.584 
L 73.832727 41.472 
" clip-path="url(#p81c1043030)" style="fill: none; stroke: #b0b0b0; stroke-width: 0.8; stroke-linecap: square"/>
     </g>
     <g id="line2d_2">
      <defs>
       <path id="mac66894731" d="M 0 0 
L 0 3.5 
" style="stroke: #000000; stroke-width: 0.8"/>
      </defs>
      <g>
       <use xlink:href="#mac66894731" x="73.832727" y="307.584" style="stroke: #000000; stroke-width: 0.8"/>
      </g>
     </g>
     <g id="text_1">
      <!-- 0 -->
      <g transform="translate(70.651477 322.182437) scale(0.1 -0.1)">
       <defs>
        <path id="DejaVuSans-30" d="M 2034 4250 
Q 1547 4250 1301 3770 
Q 1056 3291 1056 2328 
Q 1056 1369 1301 889 
Q 1547 409 2034 409 
Q 2525 409 2770 889 
Q 3016 1369 3016 2328 
Q 3016 3291 2770 3770 
Q 2525 4250 2034 4250 
z
M 2034 4750 
Q 2819 4750 3233 4129 
Q 3647 3509 3647 2328 
Q 3647 1150 3233 529 
Q 2819 -91 2034 -91 
Q 1250 -91 836 529 
Q 422 1150 422 2328 
Q 422 3509 836 4129 
Q 1250 4750 2034 4750 
z
" transform="scale(0.015625)"/>
       </defs>
       <use xlink:href="#DejaVuSans-30"/>
      </g>
     </g>
    </g>
    <g id="xtick_2">
     <g id="line2d_3">
      <path d="M 114.618474 307.584 
L 114.618474 41.472 
" clip-path="url(#p81c1043030)" style="fill: none; stroke: #b0b0b0; stroke-width: 0.8; stroke-linecap: square"/>
     </g>
     <g id="line2d_4">
      <g>
       <use xlink:href="#mac66894731" x="114.618474" y="307.584" style="stroke: #000000; stroke-width: 0.8"/>
      </g>
     </g>
     <g id="text_2">
      <!-- 25 -->
      <g transform="translate(108.255974 322.182437) scale(0.1 -0.1)">
       <defs>
        <path id="DejaVuSans-32" d="M 1228 531 
L 3431 531 
L 3431 0 
L 469 0 
L 469 531 
Q 828 903 1448 1529 
Q 2069 2156 2228 2338 
Q 2531 2678 2651 2914 
Q 2772 3150 2772 3378 
Q 2772 3750 2511 3984 
Q 2250 4219 1831 4219 
Q 1534 4219 1204 4116 
Q 875 4013 500 3803 
L 500 4441 
Q 881 4594 1212 4672 
Q 1544 4750 1819 4750 
Q 2544 4750 2975 4387 
Q 3406 4025 3406 3419 
Q 3406 3131 3298 2873 
Q 3191 2616 2906 2266 
Q 2828 2175 2409 1742 
Q 1991 1309 1228 531 
z
" transform="scale(0.015625)"/>
        <path id="DejaVuSans-35" d="M 691 4666 
L 3169 4666 
L 3169 4134 
L 1269 4134 
L 1269 2991 
Q 1406 3038 1543 3061 
Q 1681 3084 1819 3084 
Q 2600 3084 3056 2656 
Q 3513 2228 3513 1497 
Q 3513 744 3044 326 
Q 2575 -91 1722 -91 
Q 1428 -91 1123 -41 
Q 819 9 494 109 
L 494 744 
Q 775 591 1075 516 
Q 1375 441 1709 441 
Q 2250 441 2565 725 
Q 2881 1009 2881 1497 
Q 2881 1984 2565 2268 
Q 2250 2553 1709 2553 
Q 1456 2553 1204 2497 
Q 953 2441 691 2322 
L 691 4666 
z
" transform="scale(0.015625)"/>
       </defs>
       <use xlink:href="#DejaVuSans-32"/>
       <use xlink:href="#DejaVuSans-35" x="63.623047"/>
      </g>
     </g>
    </g>
    <g id="xtick_3">
     <g id="line2d_5">
      <path d="M 155.404221 307.584 
L 155.404221 41.472 
" clip-path="url(#p81c1043030)" style="fill: none; stroke: #b0b0b0; stroke-width: 0.8; stroke-linecap: square"/>
     </g>
     <g id="line2d_6">
      <g>
       <use xlink:href="#mac66894731" x="155.404221" y="307.584" style="stroke: #000000; stroke-width: 0.8"/>
      </g>
     </g>
     <g id="text_3">
      <!-- 50 -->
      <g transform="translate(149.041721 322.182437) scale(0.1 -0.1)">
       <use xlink:href="#DejaVuSans-35"/>
       <use xlink:href="#DejaVuSans-30" x="63.623047"/>
      </g>
     </g>
    </g>
    <g id="xtick_4">
     <g id="line2d_7">
      <path d="M 196.189968 307.584 
L 196.189968 41.472 
" clip-path="url(#p81c1043030)" style="fill: none; stroke: #b0b0b0; stroke-width: 0.8; stroke-linecap: square"/>
     </g>
     <g id="line2d_8">
      <g>
       <use xlink:href="#mac66894731" x="196.189968" y="307.584" style="stroke: #000000; stroke-width: 0.8"/>
      </g>
     </g>
     <g id="text_4">
      <!-- 75 -->
      <g transform="translate(189.827468 322.182437) scale(0.1 -0.1)">
       <defs>
        <path id="DejaVuSans-37" d="M 525 4666 
L 3525 4666 
L 3525 4397 
L 1831 0 
L 1172 0 
L 2766 4134 
L 525 4134 
L 525 4666 
z
" transform="scale(0.015625)"/>
       </defs>
       <use xlink:href="#DejaVuSans-37"/>
       <use xlink:href="#DejaVuSans-35" x="63.623047"/>
      </g>
     </g>
    </g>
    <g id="xtick_5">
     <g id="line2d_9">
      <path d="M 236.975715 307.584 
L 236.975715 41.472 
" clip-path="url(#p81c1043030)" style="fill: none; stroke: #b0b0b0; stroke-width: 0.8; stroke-linecap: square"/>
     </g>
     <g id="line2d_10">
      <g>
       <use xlink:href="#mac66894731" x="236.975715" y="307.584" style="stroke: #000000; stroke-width: 0.8"/>
      </g>
     </g>
     <g id="text_5">
      <!-- 100 -->
      <g transform="translate(227.431965 322.182437) scale(0.1 -0.1)">
       <defs>
        <path id="DejaVuSans-31" d="M 794 531 
L 1825 531 
L 1825 4091 
L 703 3866 
L 703 4441 
L 1819 4666 
L 2450 4666 
L 2450 531 
L 3481 531 
L 3481 0 
L 794 0 
L 794 531 
z
" transform="scale(0.015625)"/>
       </defs>
       <use xlink:href="#DejaVuSans-31"/>
       <use xlink:href="#DejaVuSans-30" x="63.623047"/>
       <use xlink:href="#DejaVuSans-30" x="127.246094"/>
      </g>
     </g>
    </g>
    <g id="xtick_6">
     <g id="line2d_11">
      <path d="M 277.761462 307.584 
L 277.761462 41.472 
" clip-path="url(#p81c1043030)" style="fill: none; stroke: #b0b0b0; stroke-width: 0.8; stroke-linecap: square"/>
     </g>
     <g id="line2d_12">
      <g>
       <use xlink:href="#mac66894731" x="277.761462" y="307.584" style="stroke: #000000; stroke-width: 0.8"/>
      </g>
     </g>
     <g id="text_6">
      <!-- 125 -->
      <g transform="translate(268.217712 322.182437) scale(0.1 -0.1)">
       <use xlink:href="#DejaVuSans-31"/>
       <use xlink:href="#DejaVuSans-32" x="63.623047"/>
       <use xlink:href="#DejaVuSans-35" x="127.246094"/>
      </g>
     </g>
    </g>
    <g id="xtick_7">
     <g id="line2d_13">
      <path d="M 318.547209 307.584 
L 318.547209 41.472 
" clip-path="url(#p81c1043030)" style="fill: none; stroke: #b0b0b0; stroke-width: 0.8; stroke-linecap: square"/>
     </g>
     <g id="line2d_14">
      <g>
       <use xlink:href="#mac66894731" x="318.547209" y="307.584" style="stroke: #000000; stroke-width: 0.8"/>
      </g>
     </g>
     <g id="text_7">
      <!-- 150 -->
      <g transform="translate(309.003459 322.182437) scale(0.1 -0.1)">
       <use xlink:href="#DejaVuSans-31"/>
       <use xlink:href="#DejaVuSans-35" x="63.623047"/>
       <use xlink:href="#DejaVuSans-30" x="127.246094"/>
      </g>
     </g>
    </g>
    <g id="xtick_8">
     <g id="line2d_15">
      <path d="M 359.332956 307.584 
L 359.332956 41.472 
" clip-path="url(#p81c1043030)" style="fill: none; stroke: #b0b0b0; stroke-width: 0.8; stroke-linecap: square"/>
     </g>
     <g id="line2d_16">
      <g>
       <use xlink:href="#mac66894731" x="359.332956" y="307.584" style="stroke: #000000; stroke-width: 0.8"/>
      </g>
     </g>
     <g id="text_8">
      <!-- 175 -->
      <g transform="translate(349.789206 322.182437) scale(0.1 -0.1)">
       <use xlink:href="#DejaVuSans-31"/>
       <use xlink:href="#DejaVuSans-37" x="63.623047"/>
       <use xlink:href="#DejaVuSans-35" x="127.246094"/>
      </g>
     </g>
    </g>
    <g id="xtick_9">
     <g id="line2d_17">
      <path d="M 400.118703 307.584 
L 400.118703 41.472 
" clip-path="url(#p81c1043030)" style="fill: none; stroke: #b0b0b0; stroke-width: 0.8; stroke-linecap: square"/>
     </g>
     <g id="line2d_18">
      <g>
       <use xlink:href="#mac66894731" x="400.118703" y="307.584" style="stroke: #000000; stroke-width: 0.8"/>
      </g>
     </g>
     <g id="text_9">
      <!-- 200 -->
      <g transform="translate(390.574953 322.182437) scale(0.1 -0.1)">
       <use xlink:href="#DejaVuSans-32"/>
       <use xlink:href="#DejaVuSans-30" x="63.623047"/>
       <use xlink:href="#DejaVuSans-30" x="127.246094"/>
      </g>
     </g>
    </g>
    <g id="text_10">
     <!-- Generations -->
     <g transform="translate(205.662344 335.860562) scale(0.1 -0.1)">
      <defs>
       <path id="DejaVuSans-47" d="M 3809 666 
L 3809 1919 
L 2778 1919 
L 2778 2438 
L 4434 2438 
L 4434 434 
Q 4069 175 3628 42 
Q 3188 -91 2688 -91 
Q 1594 -91 976 548 
Q 359 1188 359 2328 
Q 359 3472 976 4111 
Q 1594 4750 2688 4750 
Q 3144 4750 3555 4637 
Q 3966 4525 4313 4306 
L 4313 3634 
Q 3963 3931 3569 4081 
Q 3175 4231 2741 4231 
Q 1884 4231 1454 3753 
Q 1025 3275 1025 2328 
Q 1025 1384 1454 906 
Q 1884 428 2741 428 
Q 3075 428 3337 486 
Q 3600 544 3809 666 
z
" transform="scale(0.015625)"/>
       <path id="DejaVuSans-65" d="M 3597 1894 
L 3597 1613 
L 953 1613 
Q 991 1019 1311 708 
Q 1631 397 2203 397 
Q 2534 397 2845 478 
Q 3156 559 3463 722 
L 3463 178 
Q 3153 47 2828 -22 
Q 2503 -91 2169 -91 
Q 1331 -91 842 396 
Q 353 884 353 1716 
Q 353 2575 817 3079 
Q 1281 3584 2069 3584 
Q 2775 3584 3186 3129 
Q 3597 2675 3597 1894 
z
M 3022 2063 
Q 3016 2534 2758 2815 
Q 2500 3097 2075 3097 
Q 1594 3097 1305 2825 
Q 1016 2553 972 2059 
L 3022 2063 
z
" transform="scale(0.015625)"/>
       <path id="DejaVuSans-6e" d="M 3513 2113 
L 3513 0 
L 2938 0 
L 2938 2094 
Q 2938 2591 2744 2837 
Q 2550 3084 2163 3084 
Q 1697 3084 1428 2787 
Q 1159 2491 1159 1978 
L 1159 0 
L 581 0 
L 581 3500 
L 1159 3500 
L 1159 2956 
Q 1366 3272 1645 3428 
Q 1925 3584 2291 3584 
Q 2894 3584 3203 3211 
Q 3513 2838 3513 2113 
z
" transform="scale(0.015625)"/>
       <path id="DejaVuSans-72" d="M 2631 2963 
Q 2534 3019 2420 3045 
Q 2306 3072 2169 3072 
Q 1681 3072 1420 2755 
Q 1159 2438 1159 1844 
L 1159 0 
L 581 0 
L 581 3500 
L 1159 3500 
L 1159 2956 
Q 1341 3275 1631 3429 
Q 1922 3584 2338 3584 
Q 2397 3584 2469 3576 
Q 2541 3569 2628 3553 
L 2631 2963 
z
" transform="scale(0.015625)"/>
       <path id="DejaVuSans-61" d="M 2194 1759 
Q 1497 1759 1228 1600 
Q 959 1441 959 1056 
Q 959 750 1161 570 
Q 1363 391 1709 391 
Q 2188 391 2477 730 
Q 2766 1069 2766 1631 
L 2766 1759 
L 2194 1759 
z
M 3341 1997 
L 3341 0 
L 2766 0 
L 2766 531 
Q 2569 213 2275 61 
Q 1981 -91 1556 -91 
Q 1019 -91 701 211 
Q 384 513 384 1019 
Q 384 1609 779 1909 
Q 1175 2209 1959 2209 
L 2766 2209 
L 2766 2266 
Q 2766 2663 2505 2880 
Q 2244 3097 1772 3097 
Q 1472 3097 1187 3025 
Q 903 2953 641 2809 
L 641 3341 
Q 956 3463 1253 3523 
Q 1550 3584 1831 3584 
Q 2591 3584 2966 3190 
Q 3341 2797 3341 1997 
z
" transform="scale(0.015625)"/>
       <path id="DejaVuSans-74" d="M 1172 4494 
L 1172 3500 
L 2356 3500 
L 2356 3053 
L 1172 3053 
L 1172 1153 
Q 1172 725 1289 603 
Q 1406 481 1766 481 
L 2356 481 
L 2356 0 
L 1766 0 
Q 1100 0 847 248 
Q 594 497 594 1153 
L 594 3053 
L 172 3053 
L 172 3500 
L 594 3500 
L 594 4494 
L 1172 4494 
z
" transform="scale(0.015625)"/>
       <path id="DejaVuSans-69" d="M 603 3500 
L 1178 3500 
L 1178 0 
L 603 0 
L 603 3500 
z
M 603 4863 
L 1178 4863 
L 1178 4134 
L 603 4134 
L 603 4863 
z
" transform="scale(0.015625)"/>
       <path id="DejaVuSans-6f" d="M 1959 3097 
Q 1497 3097 1228 2736 
Q 959 2375 959 1747 
Q 959 1119 1226 758 
Q 1494 397 1959 397 
Q 2419 397 2687 759 
Q 2956 1122 2956 1747 
Q 2956 2369 2687 2733 
Q 2419 3097 1959 3097 
z
M 1959 3584 
Q 2709 3584 3137 3096 
Q 3566 2609 3566 1747 
Q 3566 888 3137 398 
Q 2709 -91 1959 -91 
Q 1206 -91 779 398 
Q 353 888 353 1747 
Q 353 2609 779 3096 
Q 1206 3584 1959 3584 
z
" transform="scale(0.015625)"/>
       <path id="DejaVuSans-73" d="M 2834 3397 
L 2834 2853 
Q 2591 2978 2328 3040 
Q 2066 3103 1784 3103 
Q 1356 3103 1142 2972 
Q 928 2841 928 2578 
Q 928 2378 1081 2264 
Q 1234 2150 1697 2047 
L 1894 2003 
Q 2506 1872 2764 1633 
Q 3022 1394 3022 966 
Q 3022 478 2636 193 
Q 2250 -91 1575 -91 
Q 1294 -91 989 -36 
Q 684 19 347 128 
L 347 722 
Q 666 556 975 473 
Q 1284 391 1588 391 
Q 1994 391 2212 530 
Q 2431 669 2431 922 
Q 2431 1156 2273 1281 
Q 2116 1406 1581 1522 
L 1381 1569 
Q 847 1681 609 1914 
Q 372 2147 372 2553 
Q 372 3047 722 3315 
Q 1072 3584 1716 3584 
Q 2034 3584 2315 3537 
Q 2597 3491 2834 3397 
z
" transform="scale(0.015625)"/>
      </defs>
      <use xlink:href="#DejaVuSans-47"/>
      <use xlink:href="#DejaVuSans-65" x="77.490234"/>
      <use xlink:href="#DejaVuSans-6e" x="139.013672"/>
      <use xlink:href="#DejaVuSans-65" x="202.392578"/>
      <use xlink:href="#DejaVuSans-72" x="263.916016"/>
      <use xlink:href="#DejaVuSans-61" x="305.029297"/>
      <use xlink:href="#DejaVuSans-74" x="366.308594"/>
      <use xlink:href="#DejaVuSans-69" x="405.517578"/>
      <use xlink:href="#DejaVuSans-6f" x="433.300781"/>
      <use xlink:href="#DejaVuSans-6e" x="494.482422"/>
      <use xlink:href="#DejaVuSans-73" x="557.861328"/>
     </g>
    </g>
   </g>
   <g id="matplotlib.axis_2">
    <g id="ytick_1">
     <g id="line2d_19">
      <path d="M 57.6 306.655461 
L 414.72 306.655461 
" clip-path="url(#p81c1043030)" style="fill: none; stroke: #b0b0b0; stroke-width: 0.8; stroke-linecap: square"/>
     </g>
     <g id="line2d_20">
      <defs>
       <path id="m92c6f9f727" d="M 0 0 
L -3.5 0 
" style="stroke: #000000; stroke-width: 0.8"/>
      </defs>
      <g>
       <use xlink:href="#m92c6f9f727" x="57.6" y="306.655461" style="stroke: #000000; stroke-width: 0.8"/>
      </g>
     </g>
     <g id="text_11">
      <!-- −2250 -->
      <g transform="translate(16.770313 310.45468) scale(0.1 -0.1)">
       <defs>
        <path id="DejaVuSans-2212" d="M 678 2272 
L 4684 2272 
L 4684 1741 
L 678 1741 
L 678 2272 
z
" transform="scale(0.015625)"/>
       </defs>
       <use xlink:href="#DejaVuSans-2212"/>
       <use xlink:href="#DejaVuSans-32" x="83.789062"/>
       <use xlink:href="#DejaVuSans-32" x="147.412109"/>
       <use xlink:href="#DejaVuSans-35" x="211.035156"/>
       <use xlink:href="#DejaVuSans-30" x="274.658203"/>
      </g>
     </g>
    </g>
    <g id="ytick_2">
     <g id="line2d_21">
      <path d="M 57.6 273.054867 
L 414.72 273.054867 
" clip-path="url(#p81c1043030)" style="fill: none; stroke: #b0b0b0; stroke-width: 0.8; stroke-linecap: square"/>
     </g>
     <g id="line2d_22">
      <g>
       <use xlink:href="#m92c6f9f727" x="57.6" y="273.054867" style="stroke: #000000; stroke-width: 0.8"/>
      </g>
     </g>
     <g id="text_12">
      <!-- −2000 -->
      <g transform="translate(16.770313 276.854086) scale(0.1 -0.1)">
       <use xlink:href="#DejaVuSans-2212"/>
       <use xlink:href="#DejaVuSans-32" x="83.789062"/>
       <use xlink:href="#DejaVuSans-30" x="147.412109"/>
       <use xlink:href="#DejaVuSans-30" x="211.035156"/>
       <use xlink:href="#DejaVuSans-30" x="274.658203"/>
      </g>
     </g>
    </g>
    <g id="ytick_3">
     <g id="line2d_23">
      <path d="M 57.6 239.454274 
L 414.72 239.454274 
" clip-path="url(#p81c1043030)" style="fill: none; stroke: #b0b0b0; stroke-width: 0.8; stroke-linecap: square"/>
     </g>
     <g id="line2d_24">
      <g>
       <use xlink:href="#m92c6f9f727" x="57.6" y="239.454274" style="stroke: #000000; stroke-width: 0.8"/>
      </g>
     </g>
     <g id="text_13">
      <!-- −1750 -->
      <g transform="translate(16.770313 243.253492) scale(0.1 -0.1)">
       <use xlink:href="#DejaVuSans-2212"/>
       <use xlink:href="#DejaVuSans-31" x="83.789062"/>
       <use xlink:href="#DejaVuSans-37" x="147.412109"/>
       <use xlink:href="#DejaVuSans-35" x="211.035156"/>
       <use xlink:href="#DejaVuSans-30" x="274.658203"/>
      </g>
     </g>
    </g>
    <g id="ytick_4">
     <g id="line2d_25">
      <path d="M 57.6 205.85368 
L 414.72 205.85368 
" clip-path="url(#p81c1043030)" style="fill: none; stroke: #b0b0b0; stroke-width: 0.8; stroke-linecap: square"/>
     </g>
     <g id="line2d_26">
      <g>
       <use xlink:href="#m92c6f9f727" x="57.6" y="205.85368" style="stroke: #000000; stroke-width: 0.8"/>
      </g>
     </g>
     <g id="text_14">
      <!-- −1500 -->
      <g transform="translate(16.770313 209.652898) scale(0.1 -0.1)">
       <use xlink:href="#DejaVuSans-2212"/>
       <use xlink:href="#DejaVuSans-31" x="83.789062"/>
       <use xlink:href="#DejaVuSans-35" x="147.412109"/>
       <use xlink:href="#DejaVuSans-30" x="211.035156"/>
       <use xlink:href="#DejaVuSans-30" x="274.658203"/>
      </g>
     </g>
    </g>
    <g id="ytick_5">
     <g id="line2d_27">
      <path d="M 57.6 172.253086 
L 414.72 172.253086 
" clip-path="url(#p81c1043030)" style="fill: none; stroke: #b0b0b0; stroke-width: 0.8; stroke-linecap: square"/>
     </g>
     <g id="line2d_28">
      <g>
       <use xlink:href="#m92c6f9f727" x="57.6" y="172.253086" style="stroke: #000000; stroke-width: 0.8"/>
      </g>
     </g>
     <g id="text_15">
      <!-- −1250 -->
      <g transform="translate(16.770313 176.052305) scale(0.1 -0.1)">
       <use xlink:href="#DejaVuSans-2212"/>
       <use xlink:href="#DejaVuSans-31" x="83.789062"/>
       <use xlink:href="#DejaVuSans-32" x="147.412109"/>
       <use xlink:href="#DejaVuSans-35" x="211.035156"/>
       <use xlink:href="#DejaVuSans-30" x="274.658203"/>
      </g>
     </g>
    </g>
    <g id="ytick_6">
     <g id="line2d_29">
      <path d="M 57.6 138.652492 
L 414.72 138.652492 
" clip-path="url(#p81c1043030)" style="fill: none; stroke: #b0b0b0; stroke-width: 0.8; stroke-linecap: square"/>
     </g>
     <g id="line2d_30">
      <g>
       <use xlink:href="#m92c6f9f727" x="57.6" y="138.652492" style="stroke: #000000; stroke-width: 0.8"/>
      </g>
     </g>
     <g id="text_16">
      <!-- −1000 -->
      <g transform="translate(16.770313 142.451711) scale(0.1 -0.1)">
       <use xlink:href="#DejaVuSans-2212"/>
       <use xlink:href="#DejaVuSans-31" x="83.789062"/>
       <use xlink:href="#DejaVuSans-30" x="147.412109"/>
       <use xlink:href="#DejaVuSans-30" x="211.035156"/>
       <use xlink:href="#DejaVuSans-30" x="274.658203"/>
      </g>
     </g>
    </g>
    <g id="ytick_7">
     <g id="line2d_31">
      <path d="M 57.6 105.051898 
L 414.72 105.051898 
" clip-path="url(#p81c1043030)" style="fill: none; stroke: #b0b0b0; stroke-width: 0.8; stroke-linecap: square"/>
     </g>
     <g id="line2d_32">
      <g>
       <use xlink:href="#m92c6f9f727" x="57.6" y="105.051898" style="stroke: #000000; stroke-width: 0.8"/>
      </g>
     </g>
     <g id="text_17">
      <!-- −750 -->
      <g transform="translate(23.132812 108.851117) scale(0.1 -0.1)">
       <use xlink:href="#DejaVuSans-2212"/>
       <use xlink:href="#DejaVuSans-37" x="83.789062"/>
       <use xlink:href="#DejaVuSans-35" x="147.412109"/>
       <use xlink:href="#DejaVuSans-30" x="211.035156"/>
      </g>
     </g>
    </g>
    <g id="ytick_8">
     <g id="line2d_33">
      <path d="M 57.6 71.451305 
L 414.72 71.451305 
" clip-path="url(#p81c1043030)" style="fill: none; stroke: #b0b0b0; stroke-width: 0.8; stroke-linecap: square"/>
     </g>
     <g id="line2d_34">
      <g>
       <use xlink:href="#m92c6f9f727" x="57.6" y="71.451305" style="stroke: #000000; stroke-width: 0.8"/>
      </g>
     </g>
     <g id="text_18">
      <!-- −500 -->
      <g transform="translate(23.132812 75.250523) scale(0.1 -0.1)">
       <use xlink:href="#DejaVuSans-2212"/>
       <use xlink:href="#DejaVuSans-35" x="83.789062"/>
       <use xlink:href="#DejaVuSans-30" x="147.412109"/>
       <use xlink:href="#DejaVuSans-30" x="211.035156"/>
      </g>
     </g>
    </g>
    <g id="text_19">
     <!-- Fitness -->
     <g transform="translate(10.690625 191.845187) rotate(-90) scale(0.1 -0.1)">
      <defs>
       <path id="DejaVuSans-46" d="M 628 4666 
L 3309 4666 
L 3309 4134 
L 1259 4134 
L 1259 2759 
L 3109 2759 
L 3109 2228 
L 1259 2228 
L 1259 0 
L 628 0 
L 628 4666 
z
" transform="scale(0.015625)"/>
      </defs>
      <use xlink:href="#DejaVuSans-46"/>
      <use xlink:href="#DejaVuSans-69" x="50.269531"/>
      <use xlink:href="#DejaVuSans-74" x="78.052734"/>
      <use xlink:href="#DejaVuSans-6e" x="117.261719"/>
      <use xlink:href="#DejaVuSans-65" x="180.640625"/>
      <use xlink:href="#DejaVuSans-73" x="242.164062"/>
      <use xlink:href="#DejaVuSans-73" x="294.263672"/>
     </g>
    </g>
   </g>
   <g id="line2d_35">
    <path d="M 73.832727 266.49273 
L 75.464157 262.473929 
L 77.095587 260.567328 
L 78.727017 259.36146 
L 80.358447 259.449156 
L 81.989877 258.112292 
L 83.621307 258.396291 
L 85.252736 259.470943 
L 86.884166 256.737235 
L 88.515596 255.58036 
L 90.147026 254.945853 
L 91.778456 251.680817 
L 93.409886 254.986265 
L 95.041316 254.416857 
L 96.672746 254.986326 
L 98.304175 256.791449 
L 99.935605 255.48059 
L 101.567035 255.025705 
L 103.198465 255.044205 
L 104.829895 255.706128 
L 106.461325 255.387372 
L 108.092755 253.290645 
L 109.724185 256.022586 
L 111.355614 254.832638 
L 112.987044 251.965019 
L 114.618474 253.146811 
L 116.249904 253.595608 
L 117.881334 253.523477 
L 119.512764 252.155993 
L 121.144194 254.43322 
L 122.775624 254.870766 
L 124.407053 254.080013 
L 126.038483 253.747936 
L 127.669913 252.227934 
L 129.301343 251.539864 
L 130.932773 253.005042 
L 132.564203 249.982293 
L 134.195633 252.621159 
L 135.827063 253.333286 
L 137.458492 254.239574 
L 139.089922 253.232827 
L 140.721352 253.655581 
L 142.352782 254.714547 
L 143.984212 253.877009 
L 145.615642 255.303689 
L 147.247072 254.976704 
L 148.878502 255.350416 
L 150.509931 255.437201 
L 152.141361 254.871368 
L 153.772791 254.081845 
L 155.404221 254.421725 
L 157.035651 251.755057 
L 160.298511 256.146929 
L 161.929941 256.131978 
L 163.56137 252.736267 
L 165.1928 255.486018 
L 166.82423 255.003103 
L 170.08709 254.951545 
L 171.71852 254.563881 
L 173.34995 254.302763 
L 174.98138 255.2402 
L 176.61281 254.61787 
L 178.244239 252.931542 
L 179.875669 250.55294 
L 181.507099 251.21315 
L 183.138529 253.707778 
L 184.769959 251.934474 
L 186.401389 250.777618 
L 188.032819 250.762171 
L 189.664249 252.400834 
L 191.295678 250.36869 
L 192.927108 251.264583 
L 194.558538 249.585684 
L 196.189968 250.874569 
L 197.821398 250.581113 
L 199.452828 251.846001 
L 201.084258 250.308327 
L 202.715688 250.237499 
L 204.347117 251.719491 
L 205.978547 254.119242 
L 207.609977 251.178289 
L 209.241407 251.962645 
L 210.872837 250.94924 
L 212.504267 252.788413 
L 214.135697 251.407075 
L 215.767127 250.238578 
L 217.398556 254.581606 
L 219.029986 251.150653 
L 220.661416 251.933296 
L 222.292846 253.477533 
L 223.924276 248.878623 
L 225.555706 252.568404 
L 227.187136 250.411132 
L 228.818566 251.574249 
L 230.449995 252.129939 
L 232.081425 250.597313 
L 233.712855 250.407513 
L 235.344285 252.910954 
L 236.975715 253.235371 
L 238.607145 253.271033 
L 240.238575 253.490063 
L 241.870005 252.609775 
L 243.501434 252.245106 
L 245.132864 252.700738 
L 246.764294 251.951609 
L 250.027154 253.920803 
L 251.658584 252.390088 
L 253.290014 253.668854 
L 254.921444 253.299135 
L 256.552873 251.510628 
L 258.184303 253.213926 
L 259.815733 250.847942 
L 261.447163 249.41291 
L 263.078593 249.180592 
L 264.710023 249.756702 
L 266.341453 250.501117 
L 267.972883 249.682045 
L 269.604312 250.624039 
L 271.235742 249.185538 
L 272.867172 248.745913 
L 274.498602 251.305681 
L 276.130032 251.357697 
L 277.761462 249.041402 
L 279.392892 246.44453 
L 281.024322 248.58312 
L 282.655751 249.920997 
L 284.287181 248.776367 
L 285.918611 248.052472 
L 287.550041 250.374965 
L 289.181471 251.398741 
L 290.812901 250.887528 
L 292.444331 251.701522 
L 294.075761 250.077132 
L 295.70719 248.704357 
L 297.33862 252.922352 
L 298.97005 250.372541 
L 300.60148 249.827964 
L 302.23291 250.595194 
L 303.86434 250.508016 
L 305.49577 249.394689 
L 307.1272 251.714775 
L 308.75863 252.59256 
L 310.390059 252.207334 
L 312.021489 250.543736 
L 313.652919 250.949106 
L 315.284349 251.694205 
L 316.915779 249.394573 
L 318.547209 251.254755 
L 320.178639 251.605356 
L 321.810069 252.095711 
L 323.441498 252.371619 
L 325.072928 254.182421 
L 326.704358 251.329998 
L 329.967218 252.93965 
L 331.598648 252.340648 
L 333.230078 252.886802 
L 334.861508 253.671275 
L 336.492937 252.507017 
L 338.124367 252.314492 
L 339.755797 250.442175 
L 341.387227 251.286649 
L 343.018657 251.165306 
L 344.650087 252.428665 
L 346.281517 252.556918 
L 347.912947 252.349401 
L 349.544376 252.566826 
L 351.175806 252.009074 
L 352.807236 250.919105 
L 354.438666 252.244186 
L 356.070096 250.297754 
L 357.701526 249.622595 
L 359.332956 251.672069 
L 360.964386 252.316074 
L 362.595815 251.671208 
L 364.227245 252.766036 
L 365.858675 251.046417 
L 367.490105 250.048237 
L 369.121535 248.884444 
L 370.752965 250.138817 
L 372.384395 248.873222 
L 374.015825 250.157951 
L 375.647254 253.317744 
L 377.278684 252.145606 
L 378.910114 248.927414 
L 380.541544 246.5531 
L 382.172974 246.16263 
L 383.804404 244.317933 
L 385.435834 250.980699 
L 387.067264 249.586326 
L 388.698693 249.803799 
L 390.330123 249.818406 
L 391.961553 251.929269 
L 393.592983 250.934228 
L 395.224413 249.781379 
L 396.855843 249.297932 
L 398.487273 247.880027 
L 398.487273 247.880027 
" clip-path="url(#p81c1043030)" style="fill: none; stroke: #0000ff; stroke-width: 1.5; stroke-linecap: square"/>
   </g>
   <g id="line2d_36">
    <path d="M 73.832727 288.778417 
L 75.464157 290.259913 
L 77.095587 289.08624 
L 78.727017 282.218353 
L 80.358447 281.978363 
L 81.989877 281.013438 
L 83.621307 279.389033 
L 85.252736 280.568973 
L 86.884166 276.938755 
L 88.515596 281.348678 
L 90.147026 281.138627 
L 91.778456 280.52481 
L 93.409886 284.302423 
L 95.041316 284.012127 
L 96.672746 279.366656 
L 98.304175 282.574156 
L 99.935605 280.717763 
L 101.567035 279.942635 
L 103.198465 279.911855 
L 104.829895 280.606171 
L 106.461325 280.193943 
L 109.724185 284.282095 
L 111.355614 281.714877 
L 112.987044 279.594869 
L 114.618474 284.76101 
L 116.249904 280.244089 
L 117.881334 281.378789 
L 119.512764 286.164098 
L 121.144194 284.254862 
L 122.775624 284.591308 
L 124.407053 284.421107 
L 126.038483 283.655773 
L 127.669913 281.639155 
L 129.301343 287.712212 
L 130.932773 285.915668 
L 132.564203 283.135978 
L 134.195633 284.512878 
L 135.827063 283.7184 
L 137.458492 284.628867 
L 139.089922 282.923707 
L 140.721352 283.371102 
L 142.352782 277.989024 
L 143.984212 280.743245 
L 145.615642 279.541881 
L 147.247072 280.214511 
L 148.878502 280.711359 
L 150.509931 280.233026 
L 152.141361 279.249272 
L 153.772791 281.829792 
L 155.404221 282.324793 
L 157.035651 280.756806 
L 158.667081 279.983042 
L 160.298511 280.784825 
L 161.929941 281.005773 
L 163.56137 284.031728 
L 165.1928 282.263484 
L 166.82423 281.343937 
L 168.45566 281.08867 
L 170.08709 281.315558 
L 171.71852 279.867239 
L 173.34995 282.592183 
L 174.98138 280.89014 
L 176.61281 280.468651 
L 178.244239 281.974374 
L 179.875669 284.719295 
L 181.507099 285.566653 
L 183.138529 284.564288 
L 184.769959 282.137312 
L 186.401389 283.320646 
L 188.032819 285.255646 
L 189.664249 286.565914 
L 191.295678 285.127823 
L 192.927108 286.960777 
L 194.558538 287.390149 
L 196.189968 287.090745 
L 197.821398 284.996274 
L 199.452828 285.777698 
L 201.084258 286.847562 
L 202.715688 285.119901 
L 204.347117 286.599891 
L 205.978547 289.145807 
L 207.609977 285.426526 
L 209.241407 285.807211 
L 210.872837 285.787329 
L 212.504267 287.390264 
L 214.135697 287.94984 
L 215.767127 294.293614 
L 217.398556 291.637832 
L 219.029986 290.749212 
L 220.661416 287.924037 
L 222.292846 290.956813 
L 223.924276 290.371857 
L 225.555706 290.850865 
L 227.187136 286.649433 
L 228.818566 288.806473 
L 230.449995 289.689453 
L 232.081425 286.590945 
L 233.712855 287.115941 
L 235.344285 288.455818 
L 236.975715 290.492605 
L 238.607145 286.763403 
L 240.238575 287.146608 
L 241.870005 288.291638 
L 243.501434 288.126164 
L 245.132864 286.365002 
L 246.764294 285.076107 
L 248.395724 287.498765 
L 250.027154 287.727184 
L 251.658584 287.57611 
L 253.290014 288.138424 
L 254.921444 289.240426 
L 256.552873 286.879603 
L 259.815733 291.212139 
L 261.447163 290.241555 
L 263.078593 289.825995 
L 264.710023 288.148811 
L 266.341453 287.878874 
L 269.604312 291.226341 
L 271.235742 289.339366 
L 272.867172 288.172131 
L 274.498602 290.784003 
L 276.130032 291.148973 
L 277.761462 291.050949 
L 279.392892 289.674001 
L 281.024322 286.14573 
L 282.655751 289.571912 
L 284.287181 289.223846 
L 285.918611 290.798983 
L 287.550041 288.883022 
L 289.181471 289.132245 
L 290.812901 289.934016 
L 292.444331 289.369231 
L 294.075761 292.720625 
L 295.70719 292.34823 
L 297.33862 294.280645 
L 298.97005 291.269443 
L 300.60148 293.116881 
L 302.23291 291.370695 
L 303.86434 291.531741 
L 305.49577 291.108478 
L 308.75863 291.786729 
L 310.390059 290.736785 
L 312.021489 291.554992 
L 313.652919 295.112076 
L 315.284349 290.835809 
L 316.915779 290.277121 
L 318.547209 290.771256 
L 320.178639 288.90663 
L 321.810069 290.342951 
L 323.441498 291.041324 
L 325.072928 289.362524 
L 326.704358 288.008384 
L 328.335788 288.419616 
L 329.967218 291.543956 
L 331.598648 288.063486 
L 333.230078 288.496012 
L 334.861508 289.111736 
L 336.492937 290.86628 
L 338.124367 288.491611 
L 339.755797 288.849038 
L 341.387227 290.389395 
L 343.018657 290.982025 
L 344.650087 289.484656 
L 346.281517 288.578828 
L 347.912947 291.79598 
L 349.544376 289.000356 
L 351.175806 287.620278 
L 352.807236 288.634412 
L 354.438666 290.000597 
L 356.070096 285.513739 
L 357.701526 289.127747 
L 359.332956 287.478157 
L 360.964386 288.14988 
L 362.595815 289.568671 
L 364.227245 291.467121 
L 365.858675 291.180741 
L 367.490105 290.513861 
L 369.121535 289.362105 
L 370.752965 291.487552 
L 372.384395 290.964502 
L 374.015825 289.095469 
L 375.647254 294.221456 
L 377.278684 290.92188 
L 378.910114 293.100204 
L 380.541544 293.06025 
L 382.172974 295.488 
L 383.804404 294.844863 
L 385.435834 293.007742 
L 387.067264 292.185891 
L 388.698693 293.78026 
L 390.330123 291.050144 
L 391.961553 293.666288 
L 393.592983 293.84677 
L 395.224413 292.002996 
L 396.855843 293.664701 
L 398.487273 289.539306 
L 398.487273 289.539306 
" clip-path="url(#p81c1043030)" style="fill: none; stroke-dasharray: 9.6,2.4,1.5,2.4; stroke-dashoffset: 0; stroke: #008000; stroke-width: 1.5"/>
   </g>
   <g id="line2d_37">
    <path d="M 73.832727 244.207043 
L 75.464157 234.687945 
L 77.095587 232.048417 
L 78.727017 236.504566 
L 80.358447 236.919948 
L 81.989877 235.211147 
L 83.621307 237.403549 
L 85.252736 238.372912 
L 86.884166 236.535715 
L 88.515596 229.812043 
L 90.147026 228.753079 
L 91.778456 222.836825 
L 93.409886 225.670107 
L 95.041316 224.821586 
L 96.672746 230.605996 
L 98.304175 231.008743 
L 99.935605 230.243416 
L 101.567035 230.108776 
L 103.198465 230.176556 
L 104.829895 230.806085 
L 106.461325 230.580802 
L 108.092755 224.268955 
L 109.724185 227.763077 
L 111.355614 227.950399 
L 112.987044 224.33517 
L 114.618474 221.532612 
L 116.249904 226.947127 
L 117.881334 225.668164 
L 119.512764 218.147889 
L 121.144194 224.611577 
L 122.775624 225.150224 
L 124.407053 223.738919 
L 126.038483 223.840098 
L 127.669913 222.816713 
L 129.301343 215.367516 
L 130.932773 220.094417 
L 132.564203 216.828608 
L 134.195633 220.72944 
L 135.827063 222.948173 
L 137.458492 223.85028 
L 139.089922 223.541948 
L 140.721352 223.940061 
L 142.352782 231.440071 
L 143.984212 227.010773 
L 145.615642 231.065497 
L 147.247072 229.738897 
L 148.878502 229.989473 
L 150.509931 230.641375 
L 152.141361 230.493464 
L 153.772791 226.333898 
L 155.404221 226.518657 
L 157.035651 222.753307 
L 158.667081 227.891425 
L 160.298511 231.509034 
L 161.929941 231.258183 
L 163.56137 221.440807 
L 165.1928 228.708553 
L 166.82423 228.662269 
L 168.45566 228.969743 
L 170.08709 228.587532 
L 171.71852 229.260524 
L 173.34995 226.013343 
L 174.98138 229.59026 
L 176.61281 228.767089 
L 178.244239 223.88871 
L 179.875669 216.386585 
L 181.507099 216.859646 
L 183.138529 222.851269 
L 184.769959 221.731636 
L 186.401389 218.23459 
L 188.032819 216.268696 
L 189.664249 218.235754 
L 191.295678 215.609556 
L 192.927108 215.568389 
L 194.558538 211.78122 
L 196.189968 214.658394 
L 197.821398 216.165952 
L 199.452828 217.914303 
L 201.084258 213.769092 
L 204.347117 216.839091 
L 205.978547 219.092677 
L 207.609977 216.930051 
L 209.241407 218.118079 
L 210.872837 216.111151 
L 212.504267 218.186562 
L 214.135697 214.864311 
L 215.767127 206.183543 
L 217.398556 217.525381 
L 219.029986 211.552094 
L 220.661416 215.942556 
L 222.292846 215.998252 
L 223.924276 207.385388 
L 225.555706 214.285944 
L 227.187136 214.172831 
L 232.081425 214.603681 
L 233.712855 213.699086 
L 235.344285 217.36609 
L 236.975715 215.978136 
L 238.607145 219.778664 
L 240.238575 219.833518 
L 241.870005 216.927912 
L 243.501434 216.364048 
L 245.132864 219.036474 
L 246.764294 218.827111 
L 248.395724 218.444621 
L 250.027154 220.114423 
L 251.658584 217.204067 
L 253.290014 219.199285 
L 254.921444 217.357844 
L 256.552873 216.141654 
L 258.184303 217.463318 
L 259.815733 210.483744 
L 261.447163 208.584265 
L 263.078593 208.535189 
L 264.710023 211.364594 
L 266.341453 213.123359 
L 267.972883 209.744314 
L 269.604312 210.021736 
L 271.235742 209.031711 
L 272.867172 209.319694 
L 274.498602 211.82736 
L 276.130032 211.566421 
L 277.761462 207.031856 
L 279.392892 203.215058 
L 281.024322 211.020511 
L 282.655751 210.270082 
L 284.287181 208.328889 
L 285.918611 205.305961 
L 287.550041 211.866907 
L 289.181471 213.665238 
L 290.812901 211.841041 
L 292.444331 214.033813 
L 294.075761 207.433638 
L 295.70719 205.060484 
L 297.33862 211.564058 
L 298.97005 209.47564 
L 300.60148 206.539046 
L 302.23291 209.819692 
L 303.86434 209.484291 
L 305.49577 207.6809 
L 307.1272 211.985902 
L 308.75863 213.398392 
L 310.390059 213.677883 
L 312.021489 209.532479 
L 313.652919 206.786137 
L 315.284349 212.552602 
L 316.915779 208.512026 
L 318.547209 211.738254 
L 320.178639 214.304082 
L 321.810069 213.84847 
L 323.441498 213.701914 
L 325.072928 219.002317 
L 326.704358 214.651612 
L 328.335788 215.903294 
L 329.967218 214.335344 
L 331.598648 216.617809 
L 333.230078 217.277591 
L 334.861508 218.230815 
L 336.492937 214.147753 
L 338.124367 216.137373 
L 339.755797 212.035313 
L 341.387227 212.183904 
L 343.018657 211.348587 
L 344.650087 215.372674 
L 346.281517 216.535008 
L 347.912947 212.902822 
L 349.544376 216.133296 
L 351.175806 216.39787 
L 352.807236 213.203799 
L 354.438666 214.487775 
L 356.070096 215.081768 
L 357.701526 210.117442 
L 359.332956 215.86598 
L 360.964386 216.482269 
L 362.595815 213.773744 
L 364.227245 214.064951 
L 365.858675 210.912094 
L 367.490105 209.582612 
L 369.121535 208.406782 
L 370.752965 208.790082 
L 372.384395 206.781943 
L 374.015825 211.220433 
L 375.647254 212.414033 
L 377.278684 213.369333 
L 378.910114 204.754624 
L 380.541544 200.045949 
L 383.804404 193.791003 
L 385.435834 208.953657 
L 387.067264 206.98676 
L 388.698693 205.827338 
L 390.330123 208.586668 
L 391.961553 210.192251 
L 393.592983 208.021686 
L 395.224413 207.559763 
L 396.855843 204.931164 
L 398.487273 206.220748 
L 398.487273 206.220748 
" clip-path="url(#p81c1043030)" style="fill: none; stroke-dasharray: 9.6,2.4,1.5,2.4; stroke-dashoffset: 0; stroke: #008000; stroke-width: 1.5"/>
   </g>
   <g id="line2d_38">
    <path d="M 73.832727 101.51467 
L 112.987044 101.51467 
L 114.618474 80.002267 
L 117.881334 80.002267 
L 119.512764 53.69973 
L 382.172974 53.69973 
L 383.804404 53.568 
L 398.487273 53.568 
L 398.487273 53.568 
" clip-path="url(#p81c1043030)" style="fill: none; stroke: #ff0000; stroke-width: 1.5; stroke-linecap: square"/>
   </g>
   <g id="patch_3">
    <path d="M 57.6 307.584 
L 57.6 41.472 
" style="fill: none; stroke: #000000; stroke-width: 0.8; stroke-linejoin: miter; stroke-linecap: square"/>
   </g>
   <g id="patch_4">
    <path d="M 414.72 307.584 
L 414.72 41.472 
" style="fill: none; stroke: #000000; stroke-width: 0.8; stroke-linejoin: miter; stroke-linecap: square"/>
   </g>
   <g id="patch_5">
    <path d="M 57.6 307.584 
L 414.72 307.584 
" style="fill: none; stroke: #000000; stroke-width: 0.8; stroke-linejoin: miter; stroke-linecap: square"/>
   </g>
   <g id="patch_6">
    <path d="M 57.6 41.472 
L 414.72 41.472 
" style="fill: none; stroke: #000000; stroke-width: 0.8; stroke-linejoin: miter; stroke-linecap: square"/>
   </g>
   <g id="text_20">
    <!-- Population's average and best fitness -->
    <g transform="translate(123.529687 35.472) scale(0.12 -0.12)">
     <defs>
      <path id="DejaVuSans-50" d="M 1259 4147 
L 1259 2394 
L 2053 2394 
Q 2494 2394 2734 2622 
Q 2975 2850 2975 3272 
Q 2975 3691 2734 3919 
Q 2494 4147 2053 4147 
L 1259 4147 
z
M 628 4666 
L 2053 4666 
Q 2838 4666 3239 4311 
Q 3641 3956 3641 3272 
Q 3641 2581 3239 2228 
Q 2838 1875 2053 1875 
L 1259 1875 
L 1259 0 
L 628 0 
L 628 4666 
z
" transform="scale(0.015625)"/>
      <path id="DejaVuSans-70" d="M 1159 525 
L 1159 -1331 
L 581 -1331 
L 581 3500 
L 1159 3500 
L 1159 2969 
Q 1341 3281 1617 3432 
Q 1894 3584 2278 3584 
Q 2916 3584 3314 3078 
Q 3713 2572 3713 1747 
Q 3713 922 3314 415 
Q 2916 -91 2278 -91 
Q 1894 -91 1617 61 
Q 1341 213 1159 525 
z
M 3116 1747 
Q 3116 2381 2855 2742 
Q 2594 3103 2138 3103 
Q 1681 3103 1420 2742 
Q 1159 2381 1159 1747 
Q 1159 1113 1420 752 
Q 1681 391 2138 391 
Q 2594 391 2855 752 
Q 3116 1113 3116 1747 
z
" transform="scale(0.015625)"/>
      <path id="DejaVuSans-75" d="M 544 1381 
L 544 3500 
L 1119 3500 
L 1119 1403 
Q 1119 906 1312 657 
Q 1506 409 1894 409 
Q 2359 409 2629 706 
Q 2900 1003 2900 1516 
L 2900 3500 
L 3475 3500 
L 3475 0 
L 2900 0 
L 2900 538 
Q 2691 219 2414 64 
Q 2138 -91 1772 -91 
Q 1169 -91 856 284 
Q 544 659 544 1381 
z
M 1991 3584 
L 1991 3584 
z
" transform="scale(0.015625)"/>
      <path id="DejaVuSans-6c" d="M 603 4863 
L 1178 4863 
L 1178 0 
L 603 0 
L 603 4863 
z
" transform="scale(0.015625)"/>
      <path id="DejaVuSans-27" d="M 1147 4666 
L 1147 2931 
L 616 2931 
L 616 4666 
L 1147 4666 
z
" transform="scale(0.015625)"/>
      <path id="DejaVuSans-20" transform="scale(0.015625)"/>
      <path id="DejaVuSans-76" d="M 191 3500 
L 800 3500 
L 1894 563 
L 2988 3500 
L 3597 3500 
L 2284 0 
L 1503 0 
L 191 3500 
z
" transform="scale(0.015625)"/>
      <path id="DejaVuSans-67" d="M 2906 1791 
Q 2906 2416 2648 2759 
Q 2391 3103 1925 3103 
Q 1463 3103 1205 2759 
Q 947 2416 947 1791 
Q 947 1169 1205 825 
Q 1463 481 1925 481 
Q 2391 481 2648 825 
Q 2906 1169 2906 1791 
z
M 3481 434 
Q 3481 -459 3084 -895 
Q 2688 -1331 1869 -1331 
Q 1566 -1331 1297 -1286 
Q 1028 -1241 775 -1147 
L 775 -588 
Q 1028 -725 1275 -790 
Q 1522 -856 1778 -856 
Q 2344 -856 2625 -561 
Q 2906 -266 2906 331 
L 2906 616 
Q 2728 306 2450 153 
Q 2172 0 1784 0 
Q 1141 0 747 490 
Q 353 981 353 1791 
Q 353 2603 747 3093 
Q 1141 3584 1784 3584 
Q 2172 3584 2450 3431 
Q 2728 3278 2906 2969 
L 2906 3500 
L 3481 3500 
L 3481 434 
z
" transform="scale(0.015625)"/>
      <path id="DejaVuSans-64" d="M 2906 2969 
L 2906 4863 
L 3481 4863 
L 3481 0 
L 2906 0 
L 2906 525 
Q 2725 213 2448 61 
Q 2172 -91 1784 -91 
Q 1150 -91 751 415 
Q 353 922 353 1747 
Q 353 2572 751 3078 
Q 1150 3584 1784 3584 
Q 2172 3584 2448 3432 
Q 2725 3281 2906 2969 
z
M 947 1747 
Q 947 1113 1208 752 
Q 1469 391 1925 391 
Q 2381 391 2643 752 
Q 2906 1113 2906 1747 
Q 2906 2381 2643 2742 
Q 2381 3103 1925 3103 
Q 1469 3103 1208 2742 
Q 947 2381 947 1747 
z
" transform="scale(0.015625)"/>
      <path id="DejaVuSans-62" d="M 3116 1747 
Q 3116 2381 2855 2742 
Q 2594 3103 2138 3103 
Q 1681 3103 1420 2742 
Q 1159 2381 1159 1747 
Q 1159 1113 1420 752 
Q 1681 391 2138 391 
Q 2594 391 2855 752 
Q 3116 1113 3116 1747 
z
M 1159 2969 
Q 1341 3281 1617 3432 
Q 1894 3584 2278 3584 
Q 2916 3584 3314 3078 
Q 3713 2572 3713 1747 
Q 3713 922 3314 415 
Q 2916 -91 2278 -91 
Q 1894 -91 1617 61 
Q 1341 213 1159 525 
L 1159 0 
L 581 0 
L 581 4863 
L 1159 4863 
L 1159 2969 
z
" transform="scale(0.015625)"/>
      <path id="DejaVuSans-66" d="M 2375 4863 
L 2375 4384 
L 1825 4384 
Q 1516 4384 1395 4259 
Q 1275 4134 1275 3809 
L 1275 3500 
L 2222 3500 
L 2222 3053 
L 1275 3053 
L 1275 0 
L 697 0 
L 697 3053 
L 147 3053 
L 147 3500 
L 697 3500 
L 697 3744 
Q 697 4328 969 4595 
Q 1241 4863 1831 4863 
L 2375 4863 
z
" transform="scale(0.015625)"/>
     </defs>
     <use xlink:href="#DejaVuSans-50"/>
     <use xlink:href="#DejaVuSans-6f" x="56.677734"/>
     <use xlink:href="#DejaVuSans-70" x="117.859375"/>
     <use xlink:href="#DejaVuSans-75" x="181.335938"/>
     <use xlink:href="#DejaVuSans-6c" x="244.714844"/>
     <use xlink:href="#DejaVuSans-61" x="272.498047"/>
     <use xlink:href="#DejaVuSans-74" x="333.777344"/>
     <use xlink:href="#DejaVuSans-69" x="372.986328"/>
     <use xlink:href="#DejaVuSans-6f" x="400.769531"/>
     <use xlink:href="#DejaVuSans-6e" x="461.951172"/>
     <use xlink:href="#DejaVuSans-27" x="525.330078"/>
     <use xlink:href="#DejaVuSans-73" x="552.820312"/>
     <use xlink:href="#DejaVuSans-20" x="604.919922"/>
     <use xlink:href="#DejaVuSans-61" x="636.707031"/>
     <use xlink:href="#DejaVuSans-76" x="697.986328"/>
     <use xlink:href="#DejaVuSans-65" x="757.166016"/>
     <use xlink:href="#DejaVuSans-72" x="818.689453"/>
     <use xlink:href="#DejaVuSans-61" x="859.802734"/>
     <use xlink:href="#DejaVuSans-67" x="921.082031"/>
     <use xlink:href="#DejaVuSans-65" x="984.558594"/>
     <use xlink:href="#DejaVuSans-20" x="1046.082031"/>
     <use xlink:href="#DejaVuSans-61" x="1077.869141"/>
     <use xlink:href="#DejaVuSans-6e" x="1139.148438"/>
     <use xlink:href="#DejaVuSans-64" x="1202.527344"/>
     <use xlink:href="#DejaVuSans-20" x="1266.003906"/>
     <use xlink:href="#DejaVuSans-62" x="1297.791016"/>
     <use xlink:href="#DejaVuSans-65" x="1361.267578"/>
     <use xlink:href="#DejaVuSans-73" x="1422.791016"/>
     <use xlink:href="#DejaVuSans-74" x="1474.890625"/>
     <use xlink:href="#DejaVuSans-20" x="1514.099609"/>
     <use xlink:href="#DejaVuSans-66" x="1545.886719"/>
     <use xlink:href="#DejaVuSans-69" x="1581.091797"/>
     <use xlink:href="#DejaVuSans-74" x="1608.875"/>
     <use xlink:href="#DejaVuSans-6e" x="1648.083984"/>
     <use xlink:href="#DejaVuSans-65" x="1711.462891"/>
     <use xlink:href="#DejaVuSans-73" x="1772.986328"/>
     <use xlink:href="#DejaVuSans-73" x="1825.085938"/>
    </g>
   </g>
   <g id="legend_1">
    <g id="patch_7">
     <path d="M 64.6 205.38425 
L 137.540625 205.38425 
Q 139.540625 205.38425 139.540625 203.38425 
L 139.540625 145.67175 
Q 139.540625 143.67175 137.540625 143.67175 
L 64.6 143.67175 
Q 62.6 143.67175 62.6 145.67175 
L 62.6 203.38425 
Q 62.6 205.38425 64.6 205.38425 
z
" style="fill: #ffffff; opacity: 0.8; stroke: #cccccc; stroke-linejoin: miter"/>
    </g>
    <g id="line2d_39">
     <path d="M 66.6 151.770188 
L 76.6 151.770188 
L 86.6 151.770188 
" style="fill: none; stroke: #0000ff; stroke-width: 1.5; stroke-linecap: square"/>
    </g>
    <g id="text_21">
     <!-- average -->
     <g transform="translate(94.6 155.270188) scale(0.1 -0.1)">
      <use xlink:href="#DejaVuSans-61"/>
      <use xlink:href="#DejaVuSans-76" x="61.279297"/>
      <use xlink:href="#DejaVuSans-65" x="120.458984"/>
      <use xlink:href="#DejaVuSans-72" x="181.982422"/>
      <use xlink:href="#DejaVuSans-61" x="223.095703"/>
      <use xlink:href="#DejaVuSans-67" x="284.375"/>
      <use xlink:href="#DejaVuSans-65" x="347.851562"/>
     </g>
    </g>
    <g id="line2d_40">
     <path d="M 66.6 166.448313 
L 76.6 166.448313 
L 86.6 166.448313 
" style="fill: none; stroke-dasharray: 9.6,2.4,1.5,2.4; stroke-dashoffset: 0; stroke: #008000; stroke-width: 1.5"/>
    </g>
    <g id="text_22">
     <!-- -1 sd -->
     <g transform="translate(94.6 169.948313) scale(0.1 -0.1)">
      <defs>
       <path id="DejaVuSans-2d" d="M 313 2009 
L 1997 2009 
L 1997 1497 
L 313 1497 
L 313 2009 
z
" transform="scale(0.015625)"/>
      </defs>
      <use xlink:href="#DejaVuSans-2d"/>
      <use xlink:href="#DejaVuSans-31" x="36.083984"/>
      <use xlink:href="#DejaVuSans-20" x="99.707031"/>
      <use xlink:href="#DejaVuSans-73" x="131.494141"/>
      <use xlink:href="#DejaVuSans-64" x="183.59375"/>
     </g>
    </g>
    <g id="line2d_41">
     <path d="M 66.6 181.126438 
L 76.6 181.126438 
L 86.6 181.126438 
" style="fill: none; stroke-dasharray: 9.6,2.4,1.5,2.4; stroke-dashoffset: 0; stroke: #008000; stroke-width: 1.5"/>
    </g>
    <g id="text_23">
     <!-- +1 sd -->
     <g transform="translate(94.6 184.626438) scale(0.1 -0.1)">
      <defs>
       <path id="DejaVuSans-2b" d="M 2944 4013 
L 2944 2272 
L 4684 2272 
L 4684 1741 
L 2944 1741 
L 2944 0 
L 2419 0 
L 2419 1741 
L 678 1741 
L 678 2272 
L 2419 2272 
L 2419 4013 
L 2944 4013 
z
" transform="scale(0.015625)"/>
      </defs>
      <use xlink:href="#DejaVuSans-2b"/>
      <use xlink:href="#DejaVuSans-31" x="83.789062"/>
      <use xlink:href="#DejaVuSans-20" x="147.412109"/>
      <use xlink:href="#DejaVuSans-73" x="179.199219"/>
      <use xlink:href="#DejaVuSans-64" x="231.298828"/>
     </g>
    </g>
    <g id="line2d_42">
     <path d="M 66.6 195.804563 
L 76.6 195.804563 
L 86.6 195.804563 
" style="fill: none; stroke: #ff0000; stroke-width: 1.5; stroke-linecap: square"/>
    </g>
    <g id="text_24">
     <!-- best -->
     <g transform="translate(94.6 199.304563) scale(0.1 -0.1)">
      <use xlink:href="#DejaVuSans-62"/>
      <use xlink:href="#DejaVuSans-65" x="63.476562"/>
      <use xlink:href="#DejaVuSans-73" x="125"/>
      <use xlink:href="#DejaVuSans-74" x="177.099609"/>
     </g>
    </g>
   </g>
  </g>
 </g>
 <defs>
  <clipPath id="p81c1043030">
   <rect x="57.6" y="41.472" width="357.12" height="266.112"/>
  </clipPath>
 </defs>
</svg>
