<?xml version="1.0" encoding="utf-8" standalone="no"?>
<!DOCTYPE svg PUBLIC "-//W3C//DTD SVG 1.1//EN"
  "http://www.w3.org/Graphics/SVG/1.1/DTD/svg11.dtd">
<svg xmlns:xlink="http://www.w3.org/1999/xlink" width="460.8pt" height="345.6pt" viewBox="0 0 460.8 345.6" xmlns="http://www.w3.org/2000/svg" version="1.1">
 <metadata>
  <rdf:RDF xmlns:dc="http://purl.org/dc/elements/1.1/" xmlns:cc="http://creativecommons.org/ns#" xmlns:rdf="http://www.w3.org/1999/02/22-rdf-syntax-ns#">
   <cc:Work>
    <dc:type rdf:resource="http://purl.org/dc/dcmitype/StillImage"/>
    <dc:date>2024-08-02T12:59:00.908587</dc:date>
    <dc:format>image/svg+xml</dc:format>
    <dc:creator>
     <cc:Agent>
      <dc:title>Matplotlib v3.8.4, https://matplotlib.org/</dc:title>
     </cc:Agent>
    </dc:creator>
   </cc:Work>
  </rdf:RDF>
 </metadata>
 <defs>
  <style type="text/css">*{stroke-linejoin: round; stroke-linecap: butt}</style>
 </defs>
 <g id="figure_1">
  <g id="patch_1">
   <path d="M 0 345.6 
L 460.8 345.6 
L 460.8 0 
L 0 0 
z
" style="fill: #ffffff"/>
  </g>
  <g id="axes_1">
   <g id="patch_2">
    <path d="M 57.6 307.584 
L 414.72 307.584 
L 414.72 41.472 
L 57.6 41.472 
z
" style="fill: #ffffff"/>
   </g>
   <g id="matplotlib.axis_1">
    <g id="xtick_1">
     <g id="line2d_1">
      <path d="M 73.832727 307.584 
L 73.832727 41.472 
" clip-path="url(#p86a46886f2)" style="fill: none; stroke: #b0b0b0; stroke-width: 0.8; stroke-linecap: square"/>
     </g>
     <g id="line2d_2">
      <defs>
       <path id="m5447db3b2b" d="M 0 0 
L 0 3.5 
" style="stroke: #000000; stroke-width: 0.8"/>
      </defs>
      <g>
       <use xlink:href="#m5447db3b2b" x="73.832727" y="307.584" style="stroke: #000000; stroke-width: 0.8"/>
      </g>
     </g>
     <g id="text_1">
      <!-- 0 -->
      <g transform="translate(70.651477 322.182437) scale(0.1 -0.1)">
       <defs>
        <path id="DejaVuSans-30" d="M 2034 4250 
Q 1547 4250 1301 3770 
Q 1056 3291 1056 2328 
Q 1056 1369 1301 889 
Q 1547 409 2034 409 
Q 2525 409 2770 889 
Q 3016 1369 3016 2328 
Q 3016 3291 2770 3770 
Q 2525 4250 2034 4250 
z
M 2034 4750 
Q 2819 4750 3233 4129 
Q 3647 3509 3647 2328 
Q 3647 1150 3233 529 
Q 2819 -91 2034 -91 
Q 1250 -91 836 529 
Q 422 1150 422 2328 
Q 422 3509 836 4129 
Q 1250 4750 2034 4750 
z
" transform="scale(0.015625)"/>
       </defs>
       <use xlink:href="#DejaVuSans-30"/>
      </g>
     </g>
    </g>
    <g id="xtick_2">
     <g id="line2d_3">
      <path d="M 114.618474 307.584 
L 114.618474 41.472 
" clip-path="url(#p86a46886f2)" style="fill: none; stroke: #b0b0b0; stroke-width: 0.8; stroke-linecap: square"/>
     </g>
     <g id="line2d_4">
      <g>
       <use xlink:href="#m5447db3b2b" x="114.618474" y="307.584" style="stroke: #000000; stroke-width: 0.8"/>
      </g>
     </g>
     <g id="text_2">
      <!-- 25 -->
      <g transform="translate(108.255974 322.182437) scale(0.1 -0.1)">
       <defs>
        <path id="DejaVuSans-32" d="M 1228 531 
L 3431 531 
L 3431 0 
L 469 0 
L 469 531 
Q 828 903 1448 1529 
Q 2069 2156 2228 2338 
Q 2531 2678 2651 2914 
Q 2772 3150 2772 3378 
Q 2772 3750 2511 3984 
Q 2250 4219 1831 4219 
Q 1534 4219 1204 4116 
Q 875 4013 500 3803 
L 500 4441 
Q 881 4594 1212 4672 
Q 1544 4750 1819 4750 
Q 2544 4750 2975 4387 
Q 3406 4025 3406 3419 
Q 3406 3131 3298 2873 
Q 3191 2616 2906 2266 
Q 2828 2175 2409 1742 
Q 1991 1309 1228 531 
z
" transform="scale(0.015625)"/>
        <path id="DejaVuSans-35" d="M 691 4666 
L 3169 4666 
L 3169 4134 
L 1269 4134 
L 1269 2991 
Q 1406 3038 1543 3061 
Q 1681 3084 1819 3084 
Q 2600 3084 3056 2656 
Q 3513 2228 3513 1497 
Q 3513 744 3044 326 
Q 2575 -91 1722 -91 
Q 1428 -91 1123 -41 
Q 819 9 494 109 
L 494 744 
Q 775 591 1075 516 
Q 1375 441 1709 441 
Q 2250 441 2565 725 
Q 2881 1009 2881 1497 
Q 2881 1984 2565 2268 
Q 2250 2553 1709 2553 
Q 1456 2553 1204 2497 
Q 953 2441 691 2322 
L 691 4666 
z
" transform="scale(0.015625)"/>
       </defs>
       <use xlink:href="#DejaVuSans-32"/>
       <use xlink:href="#DejaVuSans-35" x="63.623047"/>
      </g>
     </g>
    </g>
    <g id="xtick_3">
     <g id="line2d_5">
      <path d="M 155.404221 307.584 
L 155.404221 41.472 
" clip-path="url(#p86a46886f2)" style="fill: none; stroke: #b0b0b0; stroke-width: 0.8; stroke-linecap: square"/>
     </g>
     <g id="line2d_6">
      <g>
       <use xlink:href="#m5447db3b2b" x="155.404221" y="307.584" style="stroke: #000000; stroke-width: 0.8"/>
      </g>
     </g>
     <g id="text_3">
      <!-- 50 -->
      <g transform="translate(149.041721 322.182437) scale(0.1 -0.1)">
       <use xlink:href="#DejaVuSans-35"/>
       <use xlink:href="#DejaVuSans-30" x="63.623047"/>
      </g>
     </g>
    </g>
    <g id="xtick_4">
     <g id="line2d_7">
      <path d="M 196.189968 307.584 
L 196.189968 41.472 
" clip-path="url(#p86a46886f2)" style="fill: none; stroke: #b0b0b0; stroke-width: 0.8; stroke-linecap: square"/>
     </g>
     <g id="line2d_8">
      <g>
       <use xlink:href="#m5447db3b2b" x="196.189968" y="307.584" style="stroke: #000000; stroke-width: 0.8"/>
      </g>
     </g>
     <g id="text_4">
      <!-- 75 -->
      <g transform="translate(189.827468 322.182437) scale(0.1 -0.1)">
       <defs>
        <path id="DejaVuSans-37" d="M 525 4666 
L 3525 4666 
L 3525 4397 
L 1831 0 
L 1172 0 
L 2766 4134 
L 525 4134 
L 525 4666 
z
" transform="scale(0.015625)"/>
       </defs>
       <use xlink:href="#DejaVuSans-37"/>
       <use xlink:href="#DejaVuSans-35" x="63.623047"/>
      </g>
     </g>
    </g>
    <g id="xtick_5">
     <g id="line2d_9">
      <path d="M 236.975715 307.584 
L 236.975715 41.472 
" clip-path="url(#p86a46886f2)" style="fill: none; stroke: #b0b0b0; stroke-width: 0.8; stroke-linecap: square"/>
     </g>
     <g id="line2d_10">
      <g>
       <use xlink:href="#m5447db3b2b" x="236.975715" y="307.584" style="stroke: #000000; stroke-width: 0.8"/>
      </g>
     </g>
     <g id="text_5">
      <!-- 100 -->
      <g transform="translate(227.431965 322.182437) scale(0.1 -0.1)">
       <defs>
        <path id="DejaVuSans-31" d="M 794 531 
L 1825 531 
L 1825 4091 
L 703 3866 
L 703 4441 
L 1819 4666 
L 2450 4666 
L 2450 531 
L 3481 531 
L 3481 0 
L 794 0 
L 794 531 
z
" transform="scale(0.015625)"/>
       </defs>
       <use xlink:href="#DejaVuSans-31"/>
       <use xlink:href="#DejaVuSans-30" x="63.623047"/>
       <use xlink:href="#DejaVuSans-30" x="127.246094"/>
      </g>
     </g>
    </g>
    <g id="xtick_6">
     <g id="line2d_11">
      <path d="M 277.761462 307.584 
L 277.761462 41.472 
" clip-path="url(#p86a46886f2)" style="fill: none; stroke: #b0b0b0; stroke-width: 0.8; stroke-linecap: square"/>
     </g>
     <g id="line2d_12">
      <g>
       <use xlink:href="#m5447db3b2b" x="277.761462" y="307.584" style="stroke: #000000; stroke-width: 0.8"/>
      </g>
     </g>
     <g id="text_6">
      <!-- 125 -->
      <g transform="translate(268.217712 322.182437) scale(0.1 -0.1)">
       <use xlink:href="#DejaVuSans-31"/>
       <use xlink:href="#DejaVuSans-32" x="63.623047"/>
       <use xlink:href="#DejaVuSans-35" x="127.246094"/>
      </g>
     </g>
    </g>
    <g id="xtick_7">
     <g id="line2d_13">
      <path d="M 318.547209 307.584 
L 318.547209 41.472 
" clip-path="url(#p86a46886f2)" style="fill: none; stroke: #b0b0b0; stroke-width: 0.8; stroke-linecap: square"/>
     </g>
     <g id="line2d_14">
      <g>
       <use xlink:href="#m5447db3b2b" x="318.547209" y="307.584" style="stroke: #000000; stroke-width: 0.8"/>
      </g>
     </g>
     <g id="text_7">
      <!-- 150 -->
      <g transform="translate(309.003459 322.182437) scale(0.1 -0.1)">
       <use xlink:href="#DejaVuSans-31"/>
       <use xlink:href="#DejaVuSans-35" x="63.623047"/>
       <use xlink:href="#DejaVuSans-30" x="127.246094"/>
      </g>
     </g>
    </g>
    <g id="xtick_8">
     <g id="line2d_15">
      <path d="M 359.332956 307.584 
L 359.332956 41.472 
" clip-path="url(#p86a46886f2)" style="fill: none; stroke: #b0b0b0; stroke-width: 0.8; stroke-linecap: square"/>
     </g>
     <g id="line2d_16">
      <g>
       <use xlink:href="#m5447db3b2b" x="359.332956" y="307.584" style="stroke: #000000; stroke-width: 0.8"/>
      </g>
     </g>
     <g id="text_8">
      <!-- 175 -->
      <g transform="translate(349.789206 322.182437) scale(0.1 -0.1)">
       <use xlink:href="#DejaVuSans-31"/>
       <use xlink:href="#DejaVuSans-37" x="63.623047"/>
       <use xlink:href="#DejaVuSans-35" x="127.246094"/>
      </g>
     </g>
    </g>
    <g id="xtick_9">
     <g id="line2d_17">
      <path d="M 400.118703 307.584 
L 400.118703 41.472 
" clip-path="url(#p86a46886f2)" style="fill: none; stroke: #b0b0b0; stroke-width: 0.8; stroke-linecap: square"/>
     </g>
     <g id="line2d_18">
      <g>
       <use xlink:href="#m5447db3b2b" x="400.118703" y="307.584" style="stroke: #000000; stroke-width: 0.8"/>
      </g>
     </g>
     <g id="text_9">
      <!-- 200 -->
      <g transform="translate(390.574953 322.182437) scale(0.1 -0.1)">
       <use xlink:href="#DejaVuSans-32"/>
       <use xlink:href="#DejaVuSans-30" x="63.623047"/>
       <use xlink:href="#DejaVuSans-30" x="127.246094"/>
      </g>
     </g>
    </g>
    <g id="text_10">
     <!-- Generations -->
     <g transform="translate(205.662344 335.860562) scale(0.1 -0.1)">
      <defs>
       <path id="DejaVuSans-47" d="M 3809 666 
L 3809 1919 
L 2778 1919 
L 2778 2438 
L 4434 2438 
L 4434 434 
Q 4069 175 3628 42 
Q 3188 -91 2688 -91 
Q 1594 -91 976 548 
Q 359 1188 359 2328 
Q 359 3472 976 4111 
Q 1594 4750 2688 4750 
Q 3144 4750 3555 4637 
Q 3966 4525 4313 4306 
L 4313 3634 
Q 3963 3931 3569 4081 
Q 3175 4231 2741 4231 
Q 1884 4231 1454 3753 
Q 1025 3275 1025 2328 
Q 1025 1384 1454 906 
Q 1884 428 2741 428 
Q 3075 428 3337 486 
Q 3600 544 3809 666 
z
" transform="scale(0.015625)"/>
       <path id="DejaVuSans-65" d="M 3597 1894 
L 3597 1613 
L 953 1613 
Q 991 1019 1311 708 
Q 1631 397 2203 397 
Q 2534 397 2845 478 
Q 3156 559 3463 722 
L 3463 178 
Q 3153 47 2828 -22 
Q 2503 -91 2169 -91 
Q 1331 -91 842 396 
Q 353 884 353 1716 
Q 353 2575 817 3079 
Q 1281 3584 2069 3584 
Q 2775 3584 3186 3129 
Q 3597 2675 3597 1894 
z
M 3022 2063 
Q 3016 2534 2758 2815 
Q 2500 3097 2075 3097 
Q 1594 3097 1305 2825 
Q 1016 2553 972 2059 
L 3022 2063 
z
" transform="scale(0.015625)"/>
       <path id="DejaVuSans-6e" d="M 3513 2113 
L 3513 0 
L 2938 0 
L 2938 2094 
Q 2938 2591 2744 2837 
Q 2550 3084 2163 3084 
Q 1697 3084 1428 2787 
Q 1159 2491 1159 1978 
L 1159 0 
L 581 0 
L 581 3500 
L 1159 3500 
L 1159 2956 
Q 1366 3272 1645 3428 
Q 1925 3584 2291 3584 
Q 2894 3584 3203 3211 
Q 3513 2838 3513 2113 
z
" transform="scale(0.015625)"/>
       <path id="DejaVuSans-72" d="M 2631 2963 
Q 2534 3019 2420 3045 
Q 2306 3072 2169 3072 
Q 1681 3072 1420 2755 
Q 1159 2438 1159 1844 
L 1159 0 
L 581 0 
L 581 3500 
L 1159 3500 
L 1159 2956 
Q 1341 3275 1631 3429 
Q 1922 3584 2338 3584 
Q 2397 3584 2469 3576 
Q 2541 3569 2628 3553 
L 2631 2963 
z
" transform="scale(0.015625)"/>
       <path id="DejaVuSans-61" d="M 2194 1759 
Q 1497 1759 1228 1600 
Q 959 1441 959 1056 
Q 959 750 1161 570 
Q 1363 391 1709 391 
Q 2188 391 2477 730 
Q 2766 1069 2766 1631 
L 2766 1759 
L 2194 1759 
z
M 3341 1997 
L 3341 0 
L 2766 0 
L 2766 531 
Q 2569 213 2275 61 
Q 1981 -91 1556 -91 
Q 1019 -91 701 211 
Q 384 513 384 1019 
Q 384 1609 779 1909 
Q 1175 2209 1959 2209 
L 2766 2209 
L 2766 2266 
Q 2766 2663 2505 2880 
Q 2244 3097 1772 3097 
Q 1472 3097 1187 3025 
Q 903 2953 641 2809 
L 641 3341 
Q 956 3463 1253 3523 
Q 1550 3584 1831 3584 
Q 2591 3584 2966 3190 
Q 3341 2797 3341 1997 
z
" transform="scale(0.015625)"/>
       <path id="DejaVuSans-74" d="M 1172 4494 
L 1172 3500 
L 2356 3500 
L 2356 3053 
L 1172 3053 
L 1172 1153 
Q 1172 725 1289 603 
Q 1406 481 1766 481 
L 2356 481 
L 2356 0 
L 1766 0 
Q 1100 0 847 248 
Q 594 497 594 1153 
L 594 3053 
L 172 3053 
L 172 3500 
L 594 3500 
L 594 4494 
L 1172 4494 
z
" transform="scale(0.015625)"/>
       <path id="DejaVuSans-69" d="M 603 3500 
L 1178 3500 
L 1178 0 
L 603 0 
L 603 3500 
z
M 603 4863 
L 1178 4863 
L 1178 4134 
L 603 4134 
L 603 4863 
z
" transform="scale(0.015625)"/>
       <path id="DejaVuSans-6f" d="M 1959 3097 
Q 1497 3097 1228 2736 
Q 959 2375 959 1747 
Q 959 1119 1226 758 
Q 1494 397 1959 397 
Q 2419 397 2687 759 
Q 2956 1122 2956 1747 
Q 2956 2369 2687 2733 
Q 2419 3097 1959 3097 
z
M 1959 3584 
Q 2709 3584 3137 3096 
Q 3566 2609 3566 1747 
Q 3566 888 3137 398 
Q 2709 -91 1959 -91 
Q 1206 -91 779 398 
Q 353 888 353 1747 
Q 353 2609 779 3096 
Q 1206 3584 1959 3584 
z
" transform="scale(0.015625)"/>
       <path id="DejaVuSans-73" d="M 2834 3397 
L 2834 2853 
Q 2591 2978 2328 3040 
Q 2066 3103 1784 3103 
Q 1356 3103 1142 2972 
Q 928 2841 928 2578 
Q 928 2378 1081 2264 
Q 1234 2150 1697 2047 
L 1894 2003 
Q 2506 1872 2764 1633 
Q 3022 1394 3022 966 
Q 3022 478 2636 193 
Q 2250 -91 1575 -91 
Q 1294 -91 989 -36 
Q 684 19 347 128 
L 347 722 
Q 666 556 975 473 
Q 1284 391 1588 391 
Q 1994 391 2212 530 
Q 2431 669 2431 922 
Q 2431 1156 2273 1281 
Q 2116 1406 1581 1522 
L 1381 1569 
Q 847 1681 609 1914 
Q 372 2147 372 2553 
Q 372 3047 722 3315 
Q 1072 3584 1716 3584 
Q 2034 3584 2315 3537 
Q 2597 3491 2834 3397 
z
" transform="scale(0.015625)"/>
      </defs>
      <use xlink:href="#DejaVuSans-47"/>
      <use xlink:href="#DejaVuSans-65" x="77.490234"/>
      <use xlink:href="#DejaVuSans-6e" x="139.013672"/>
      <use xlink:href="#DejaVuSans-65" x="202.392578"/>
      <use xlink:href="#DejaVuSans-72" x="263.916016"/>
      <use xlink:href="#DejaVuSans-61" x="305.029297"/>
      <use xlink:href="#DejaVuSans-74" x="366.308594"/>
      <use xlink:href="#DejaVuSans-69" x="405.517578"/>
      <use xlink:href="#DejaVuSans-6f" x="433.300781"/>
      <use xlink:href="#DejaVuSans-6e" x="494.482422"/>
      <use xlink:href="#DejaVuSans-73" x="557.861328"/>
     </g>
    </g>
   </g>
   <g id="matplotlib.axis_2">
    <g id="ytick_1">
     <g id="line2d_19">
      <path d="M 57.6 281.050113 
L 414.72 281.050113 
" clip-path="url(#p86a46886f2)" style="fill: none; stroke: #b0b0b0; stroke-width: 0.8; stroke-linecap: square"/>
     </g>
     <g id="line2d_20">
      <defs>
       <path id="m2618326c5d" d="M 0 0 
L -3.5 0 
" style="stroke: #000000; stroke-width: 0.8"/>
      </defs>
      <g>
       <use xlink:href="#m2618326c5d" x="57.6" y="281.050113" style="stroke: #000000; stroke-width: 0.8"/>
      </g>
     </g>
     <g id="text_11">
      <!-- −2000 -->
      <g transform="translate(16.770313 284.849332) scale(0.1 -0.1)">
       <defs>
        <path id="DejaVuSans-2212" d="M 678 2272 
L 4684 2272 
L 4684 1741 
L 678 1741 
L 678 2272 
z
" transform="scale(0.015625)"/>
       </defs>
       <use xlink:href="#DejaVuSans-2212"/>
       <use xlink:href="#DejaVuSans-32" x="83.789062"/>
       <use xlink:href="#DejaVuSans-30" x="147.412109"/>
       <use xlink:href="#DejaVuSans-30" x="211.035156"/>
       <use xlink:href="#DejaVuSans-30" x="274.658203"/>
      </g>
     </g>
    </g>
    <g id="ytick_2">
     <g id="line2d_21">
      <path d="M 57.6 246.334392 
L 414.72 246.334392 
" clip-path="url(#p86a46886f2)" style="fill: none; stroke: #b0b0b0; stroke-width: 0.8; stroke-linecap: square"/>
     </g>
     <g id="line2d_22">
      <g>
       <use xlink:href="#m2618326c5d" x="57.6" y="246.334392" style="stroke: #000000; stroke-width: 0.8"/>
      </g>
     </g>
     <g id="text_12">
      <!-- −1750 -->
      <g transform="translate(16.770313 250.133611) scale(0.1 -0.1)">
       <use xlink:href="#DejaVuSans-2212"/>
       <use xlink:href="#DejaVuSans-31" x="83.789062"/>
       <use xlink:href="#DejaVuSans-37" x="147.412109"/>
       <use xlink:href="#DejaVuSans-35" x="211.035156"/>
       <use xlink:href="#DejaVuSans-30" x="274.658203"/>
      </g>
     </g>
    </g>
    <g id="ytick_3">
     <g id="line2d_23">
      <path d="M 57.6 211.618671 
L 414.72 211.618671 
" clip-path="url(#p86a46886f2)" style="fill: none; stroke: #b0b0b0; stroke-width: 0.8; stroke-linecap: square"/>
     </g>
     <g id="line2d_24">
      <g>
       <use xlink:href="#m2618326c5d" x="57.6" y="211.618671" style="stroke: #000000; stroke-width: 0.8"/>
      </g>
     </g>
     <g id="text_13">
      <!-- −1500 -->
      <g transform="translate(16.770313 215.41789) scale(0.1 -0.1)">
       <use xlink:href="#DejaVuSans-2212"/>
       <use xlink:href="#DejaVuSans-31" x="83.789062"/>
       <use xlink:href="#DejaVuSans-35" x="147.412109"/>
       <use xlink:href="#DejaVuSans-30" x="211.035156"/>
       <use xlink:href="#DejaVuSans-30" x="274.658203"/>
      </g>
     </g>
    </g>
    <g id="ytick_4">
     <g id="line2d_25">
      <path d="M 57.6 176.90295 
L 414.72 176.90295 
" clip-path="url(#p86a46886f2)" style="fill: none; stroke: #b0b0b0; stroke-width: 0.8; stroke-linecap: square"/>
     </g>
     <g id="line2d_26">
      <g>
       <use xlink:href="#m2618326c5d" x="57.6" y="176.90295" style="stroke: #000000; stroke-width: 0.8"/>
      </g>
     </g>
     <g id="text_14">
      <!-- −1250 -->
      <g transform="translate(16.770313 180.702169) scale(0.1 -0.1)">
       <use xlink:href="#DejaVuSans-2212"/>
       <use xlink:href="#DejaVuSans-31" x="83.789062"/>
       <use xlink:href="#DejaVuSans-32" x="147.412109"/>
       <use xlink:href="#DejaVuSans-35" x="211.035156"/>
       <use xlink:href="#DejaVuSans-30" x="274.658203"/>
      </g>
     </g>
    </g>
    <g id="ytick_5">
     <g id="line2d_27">
      <path d="M 57.6 142.187229 
L 414.72 142.187229 
" clip-path="url(#p86a46886f2)" style="fill: none; stroke: #b0b0b0; stroke-width: 0.8; stroke-linecap: square"/>
     </g>
     <g id="line2d_28">
      <g>
       <use xlink:href="#m2618326c5d" x="57.6" y="142.187229" style="stroke: #000000; stroke-width: 0.8"/>
      </g>
     </g>
     <g id="text_15">
      <!-- −1000 -->
      <g transform="translate(16.770313 145.986448) scale(0.1 -0.1)">
       <use xlink:href="#DejaVuSans-2212"/>
       <use xlink:href="#DejaVuSans-31" x="83.789062"/>
       <use xlink:href="#DejaVuSans-30" x="147.412109"/>
       <use xlink:href="#DejaVuSans-30" x="211.035156"/>
       <use xlink:href="#DejaVuSans-30" x="274.658203"/>
      </g>
     </g>
    </g>
    <g id="ytick_6">
     <g id="line2d_29">
      <path d="M 57.6 107.471508 
L 414.72 107.471508 
" clip-path="url(#p86a46886f2)" style="fill: none; stroke: #b0b0b0; stroke-width: 0.8; stroke-linecap: square"/>
     </g>
     <g id="line2d_30">
      <g>
       <use xlink:href="#m2618326c5d" x="57.6" y="107.471508" style="stroke: #000000; stroke-width: 0.8"/>
      </g>
     </g>
     <g id="text_16">
      <!-- −750 -->
      <g transform="translate(23.132812 111.270727) scale(0.1 -0.1)">
       <use xlink:href="#DejaVuSans-2212"/>
       <use xlink:href="#DejaVuSans-37" x="83.789062"/>
       <use xlink:href="#DejaVuSans-35" x="147.412109"/>
       <use xlink:href="#DejaVuSans-30" x="211.035156"/>
      </g>
     </g>
    </g>
    <g id="ytick_7">
     <g id="line2d_31">
      <path d="M 57.6 72.755787 
L 414.72 72.755787 
" clip-path="url(#p86a46886f2)" style="fill: none; stroke: #b0b0b0; stroke-width: 0.8; stroke-linecap: square"/>
     </g>
     <g id="line2d_32">
      <g>
       <use xlink:href="#m2618326c5d" x="57.6" y="72.755787" style="stroke: #000000; stroke-width: 0.8"/>
      </g>
     </g>
     <g id="text_17">
      <!-- −500 -->
      <g transform="translate(23.132812 76.555006) scale(0.1 -0.1)">
       <use xlink:href="#DejaVuSans-2212"/>
       <use xlink:href="#DejaVuSans-35" x="83.789062"/>
       <use xlink:href="#DejaVuSans-30" x="147.412109"/>
       <use xlink:href="#DejaVuSans-30" x="211.035156"/>
      </g>
     </g>
    </g>
    <g id="text_18">
     <!-- Fitness -->
     <g transform="translate(10.690625 191.845187) rotate(-90) scale(0.1 -0.1)">
      <defs>
       <path id="DejaVuSans-46" d="M 628 4666 
L 3309 4666 
L 3309 4134 
L 1259 4134 
L 1259 2759 
L 3109 2759 
L 3109 2228 
L 1259 2228 
L 1259 0 
L 628 0 
L 628 4666 
z
" transform="scale(0.015625)"/>
      </defs>
      <use xlink:href="#DejaVuSans-46"/>
      <use xlink:href="#DejaVuSans-69" x="50.269531"/>
      <use xlink:href="#DejaVuSans-74" x="78.052734"/>
      <use xlink:href="#DejaVuSans-6e" x="117.261719"/>
      <use xlink:href="#DejaVuSans-65" x="180.640625"/>
      <use xlink:href="#DejaVuSans-73" x="242.164062"/>
      <use xlink:href="#DejaVuSans-73" x="294.263672"/>
     </g>
    </g>
   </g>
   <g id="line2d_33">
    <path d="M 73.832727 265.426225 
L 75.464157 262.857902 
L 77.095587 258.7343 
L 78.727017 259.512697 
L 80.358447 256.607697 
L 81.989877 256.944259 
L 83.621307 256.564006 
L 85.252736 257.464661 
L 86.884166 257.269506 
L 88.515596 256.916019 
L 90.147026 255.898456 
L 91.778456 255.681192 
L 93.409886 256.638141 
L 95.041316 256.72568 
L 96.672746 257.624676 
L 98.304175 256.91604 
L 99.935605 255.325488 
L 103.198465 255.489346 
L 104.829895 254.163904 
L 106.461325 255.371691 
L 108.092755 254.639165 
L 109.724185 254.433512 
L 111.355614 253.933981 
L 112.987044 254.859809 
L 116.249904 255.202967 
L 117.881334 255.715864 
L 119.512764 255.20185 
L 121.144194 256.765251 
L 122.775624 254.833469 
L 124.407053 255.573675 
L 126.038483 256.150905 
L 127.669913 254.999018 
L 129.301343 256.504731 
L 130.932773 256.013618 
L 132.564203 255.898328 
L 134.195633 255.056855 
L 135.827063 255.529536 
L 137.458492 254.891448 
L 139.089922 253.409755 
L 140.721352 254.789897 
L 142.352782 253.644105 
L 143.984212 255.236664 
L 145.615642 255.472899 
L 147.247072 253.499363 
L 148.878502 251.315767 
L 150.509931 252.950451 
L 152.141361 254.204327 
L 153.772791 254.176793 
L 157.035651 254.915756 
L 158.667081 251.754405 
L 160.298511 253.245137 
L 161.929941 254.262624 
L 163.56137 253.252709 
L 165.1928 254.377561 
L 166.82423 252.652802 
L 168.45566 254.940737 
L 170.08709 255.940599 
L 171.71852 256.042316 
L 173.34995 256.006432 
L 174.98138 255.390004 
L 176.61281 255.731998 
L 178.244239 255.874306 
L 179.875669 254.056734 
L 181.507099 250.555515 
L 183.138529 252.035175 
L 186.401389 255.29332 
L 188.032819 254.449756 
L 189.664249 252.151201 
L 191.295678 256.099639 
L 192.927108 255.681356 
L 194.558538 255.644196 
L 196.189968 251.983401 
L 197.821398 252.459425 
L 199.452828 253.473356 
L 201.084258 255.821955 
L 202.715688 255.734735 
L 204.347117 253.014361 
L 205.978547 255.929672 
L 207.609977 255.39593 
L 209.241407 255.645321 
L 212.504267 255.247168 
L 214.135697 255.847839 
L 215.767127 254.792305 
L 217.398556 254.032695 
L 219.029986 251.006545 
L 220.661416 255.021246 
L 222.292846 255.373 
L 223.924276 254.87678 
L 225.555706 256.651251 
L 227.187136 255.168995 
L 228.818566 256.298296 
L 230.449995 255.584316 
L 232.081425 252.694155 
L 233.712855 254.318905 
L 235.344285 255.730757 
L 236.975715 255.372081 
L 240.238575 256.694514 
L 243.501434 253.598851 
L 245.132864 255.983438 
L 246.764294 254.767938 
L 248.395724 253.26894 
L 250.027154 254.166978 
L 251.658584 254.671398 
L 253.290014 254.071527 
L 254.921444 254.388091 
L 256.552873 255.5609 
L 258.184303 254.853597 
L 259.815733 254.429422 
L 261.447163 253.260407 
L 263.078593 253.678476 
L 264.710023 252.399111 
L 266.341453 252.13275 
L 267.972883 253.247418 
L 269.604312 251.827471 
L 271.235742 254.194029 
L 272.867172 255.399753 
L 274.498602 254.798491 
L 276.130032 252.871376 
L 277.761462 252.752493 
L 279.392892 253.687978 
L 281.024322 252.251988 
L 282.655751 251.778451 
L 284.287181 252.934776 
L 285.918611 254.63993 
L 287.550041 251.759518 
L 289.181471 254.50964 
L 290.812901 254.128378 
L 292.444331 253.97791 
L 294.075761 254.267012 
L 295.70719 253.680678 
L 297.33862 253.721302 
L 298.97005 253.0021 
L 300.60148 254.082936 
L 302.23291 255.752756 
L 303.86434 254.141756 
L 305.49577 254.254243 
L 307.1272 255.367842 
L 308.75863 254.691307 
L 310.390059 254.442702 
L 312.021489 252.021942 
L 313.652919 254.699602 
L 315.284349 254.090032 
L 316.915779 252.909178 
L 318.547209 253.588394 
L 320.178639 251.575305 
L 321.810069 254.520562 
L 323.441498 254.518308 
L 325.072928 254.189979 
L 326.704358 251.983131 
L 328.335788 252.704191 
L 329.967218 253.981923 
L 331.598648 254.718177 
L 333.230078 255.62264 
L 336.492937 252.46328 
L 338.124367 251.715788 
L 339.755797 252.046856 
L 341.387227 252.745974 
L 343.018657 253.932418 
L 344.650087 251.642162 
L 346.281517 251.071076 
L 347.912947 251.590208 
L 349.544376 249.995456 
L 351.175806 247.750499 
L 352.807236 250.654266 
L 354.438666 246.901325 
L 356.070096 248.169851 
L 357.701526 247.069965 
L 359.332956 248.118169 
L 360.964386 247.111699 
L 362.595815 250.869153 
L 365.858675 249.152613 
L 369.121535 249.828557 
L 370.752965 249.170663 
L 372.384395 247.357643 
L 374.015825 251.971157 
L 375.647254 251.002677 
L 377.278684 247.802558 
L 378.910114 251.189133 
L 380.541544 249.834789 
L 382.172974 248.243469 
L 383.804404 251.228887 
L 385.435834 251.425021 
L 387.067264 252.293216 
L 388.698693 250.119824 
L 390.330123 250.709935 
L 391.961553 250.176453 
L 393.592983 252.538538 
L 395.224413 250.870393 
L 396.855843 247.347376 
L 398.487273 252.045489 
L 398.487273 252.045489 
" clip-path="url(#p86a46886f2)" style="fill: none; stroke: #0000ff; stroke-width: 1.5; stroke-linecap: square"/>
   </g>
   <g id="line2d_34">
    <path d="M 73.832727 279.528897 
L 75.464157 282.767834 
L 77.095587 279.572936 
L 78.727017 280.68092 
L 80.358447 286.736261 
L 81.989877 284.197666 
L 83.621307 283.699742 
L 88.515596 283.097013 
L 90.147026 288.824439 
L 91.778456 285.468604 
L 93.409886 281.832652 
L 95.041316 281.955321 
L 96.672746 283.385374 
L 98.304175 282.467835 
L 99.935605 284.328221 
L 101.567035 284.837678 
L 103.198465 284.074489 
L 104.829895 285.824313 
L 106.461325 283.982013 
L 108.092755 283.890504 
L 109.724185 284.510239 
L 111.355614 283.936893 
L 112.987044 285.202146 
L 114.618474 284.509921 
L 116.249904 284.435007 
L 117.881334 285.629353 
L 119.512764 286.25251 
L 121.144194 286.287367 
L 122.775624 283.990974 
L 124.407053 284.654425 
L 126.038483 286.04689 
L 127.669913 286.42971 
L 129.301343 285.96726 
L 130.932773 284.483357 
L 132.564203 285.380622 
L 134.195633 284.447113 
L 135.827063 285.68749 
L 137.458492 284.241483 
L 139.089922 286.229404 
L 140.721352 287.907013 
L 142.352782 286.295333 
L 143.984212 285.29558 
L 145.615642 285.301993 
L 147.247072 286.50877 
L 148.878502 290.084521 
L 150.509931 288.791573 
L 152.141361 286.225648 
L 153.772791 286.054944 
L 155.404221 286.441795 
L 157.035651 285.862429 
L 158.667081 288.079763 
L 160.298511 287.688016 
L 161.929941 289.344502 
L 163.56137 288.30839 
L 165.1928 285.307035 
L 166.82423 286.726077 
L 168.45566 285.882966 
L 170.08709 282.906839 
L 173.34995 282.828337 
L 174.98138 282.062583 
L 178.244239 282.693871 
L 179.875669 284.998187 
L 181.507099 289.22315 
L 183.138529 290.70937 
L 184.769959 288.731382 
L 186.401389 284.925679 
L 188.032819 287.12992 
L 189.664249 288.155155 
L 191.295678 285.245229 
L 192.927108 284.918271 
L 194.558538 284.764003 
L 196.189968 287.939831 
L 197.821398 290.544552 
L 199.452828 288.589426 
L 201.084258 284.947764 
L 202.715688 284.809587 
L 204.347117 287.956234 
L 205.978547 284.868839 
L 207.609977 284.121022 
L 209.241407 284.552566 
L 210.872837 284.326947 
L 212.504267 283.917366 
L 214.135697 284.893455 
L 215.767127 284.016152 
L 217.398556 286.698534 
L 219.029986 290.802933 
L 220.661416 285.04882 
L 222.292846 285.697117 
L 223.924276 287.879861 
L 227.187136 284.1504 
L 228.818566 285.488008 
L 230.449995 284.331729 
L 232.081425 288.755446 
L 233.712855 287.076761 
L 235.344285 285.053156 
L 236.975715 284.319955 
L 238.607145 284.903526 
L 240.238575 285.976995 
L 241.870005 284.095548 
L 243.501434 286.236597 
L 245.132864 285.018621 
L 246.764294 287.254852 
L 250.027154 289.089748 
L 251.658584 285.71351 
L 253.290014 284.822395 
L 254.921444 285.381208 
L 256.552873 286.781381 
L 258.184303 285.957277 
L 259.815733 286.743689 
L 261.447163 284.96421 
L 263.078593 285.748779 
L 264.710023 285.274115 
L 266.341453 287.865771 
L 267.972883 288.060321 
L 269.604312 289.023337 
L 271.235742 285.794076 
L 272.867172 281.233183 
L 274.498602 282.31751 
L 276.130032 285.204861 
L 277.761462 287.33055 
L 279.392892 287.424972 
L 281.024322 289.154068 
L 282.655751 290.240613 
L 284.287181 288.786665 
L 285.918611 287.672369 
L 287.550041 288.38143 
L 289.181471 286.919718 
L 290.812901 287.16841 
L 292.444331 286.944616 
L 294.075761 286.966868 
L 295.70719 286.229914 
L 297.33862 286.444499 
L 298.97005 286.906308 
L 300.60148 286.59983 
L 302.23291 287.729986 
L 303.86434 287.263023 
L 305.49577 287.199022 
L 307.1272 285.695207 
L 308.75863 285.04963 
L 310.390059 285.468612 
L 312.021489 288.508277 
L 313.652919 286.317138 
L 315.284349 286.607719 
L 316.915779 286.634091 
L 318.547209 284.406188 
L 320.178639 286.542977 
L 321.810069 286.171943 
L 323.441498 285.445024 
L 325.072928 285.09514 
L 326.704358 287.011643 
L 328.335788 286.719505 
L 329.967218 289.119087 
L 331.598648 284.331146 
L 333.230078 285.226479 
L 334.861508 287.129364 
L 336.492937 287.719542 
L 338.124367 287.661467 
L 339.755797 287.790788 
L 341.387227 286.495286 
L 343.018657 287.112957 
L 344.650087 285.765118 
L 346.281517 287.414753 
L 347.912947 287.99355 
L 349.544376 289.774692 
L 351.175806 293.917139 
L 352.807236 292.487688 
L 354.438666 293.504677 
L 356.070096 292.877298 
L 357.701526 293.87917 
L 359.332956 294.571779 
L 360.964386 295.488 
L 362.595815 294.415636 
L 364.227245 293.92543 
L 365.858675 292.903645 
L 367.490105 294.486054 
L 369.121535 295.222743 
L 370.752965 294.33182 
L 372.384395 293.864135 
L 374.015825 295.484232 
L 375.647254 293.791308 
L 377.278684 292.893946 
L 378.910114 293.705137 
L 380.541544 293.743925 
L 382.172974 293.49576 
L 383.804404 294.113258 
L 385.435834 292.861494 
L 387.067264 290.463393 
L 388.698693 292.670267 
L 390.330123 291.0757 
L 391.961553 293.944678 
L 393.592983 290.691945 
L 396.855843 293.389559 
L 398.487273 292.701434 
L 398.487273 292.701434 
" clip-path="url(#p86a46886f2)" style="fill: none; stroke-dasharray: 9.6,2.4,1.5,2.4; stroke-dashoffset: 0; stroke: #008000; stroke-width: 1.5"/>
   </g>
   <g id="line2d_35">
    <path d="M 73.832727 251.323553 
L 75.464157 242.947969 
L 77.095587 237.895663 
L 78.727017 238.344474 
L 80.358447 226.479133 
L 81.989877 229.690852 
L 83.621307 229.42827 
L 85.252736 231.402811 
L 86.884166 231.147903 
L 88.515596 230.735024 
L 90.147026 222.972474 
L 91.778456 225.893781 
L 93.409886 231.443629 
L 95.041316 231.496038 
L 96.672746 231.863979 
L 98.304175 231.364244 
L 99.935605 226.322755 
L 101.567035 225.921018 
L 103.198465 226.904203 
L 104.829895 222.503495 
L 106.461325 226.76137 
L 108.092755 225.387826 
L 109.724185 224.356784 
L 111.355614 223.931068 
L 112.987044 224.517472 
L 114.618474 225.526312 
L 116.249904 225.970926 
L 117.881334 225.802374 
L 119.512764 224.15119 
L 121.144194 227.243135 
L 122.775624 225.675964 
L 124.407053 226.492926 
L 126.038483 226.25492 
L 127.669913 223.568326 
L 129.301343 227.042201 
L 130.932773 227.54388 
L 132.564203 226.416033 
L 134.195633 225.666596 
L 135.827063 225.371582 
L 137.458492 225.541412 
L 139.089922 220.590106 
L 140.721352 221.672781 
L 142.352782 220.992877 
L 143.984212 225.177747 
L 145.615642 225.643804 
L 147.247072 220.489957 
L 148.878502 212.547012 
L 150.509931 217.109329 
L 152.141361 222.183005 
L 153.772791 222.298642 
L 155.404221 222.726456 
L 157.035651 223.969083 
L 158.667081 215.429046 
L 160.298511 218.802258 
L 161.929941 219.180745 
L 163.56137 218.197029 
L 165.1928 223.448087 
L 166.82423 218.579526 
L 168.45566 223.998508 
L 170.08709 228.97436 
L 171.71852 229.188111 
L 173.34995 229.184526 
L 174.98138 228.717425 
L 176.61281 229.107558 
L 178.244239 229.054741 
L 179.875669 223.115281 
L 181.507099 211.887881 
L 183.138529 213.36098 
L 184.769959 218.729672 
L 186.401389 225.660961 
L 188.032819 221.769592 
L 189.664249 216.147248 
L 191.295678 226.954048 
L 192.927108 226.444441 
L 194.558538 226.52439 
L 196.189968 216.026972 
L 197.821398 214.374299 
L 199.452828 218.357286 
L 201.084258 226.696145 
L 202.715688 226.659883 
L 204.347117 218.072487 
L 205.978547 226.990505 
L 207.609977 226.670838 
L 209.241407 226.738077 
L 210.872837 226.489117 
L 212.504267 226.57697 
L 214.135697 226.802222 
L 215.767127 225.568458 
L 217.398556 221.366856 
L 219.029986 211.210157 
L 220.661416 224.993672 
L 222.292846 225.048883 
L 223.924276 221.873699 
L 225.555706 227.309938 
L 227.187136 226.18759 
L 228.818566 227.108584 
L 230.449995 226.836903 
L 232.081425 216.632864 
L 235.344285 226.408358 
L 236.975715 226.424207 
L 238.607145 227.118659 
L 240.238575 227.412033 
L 241.870005 226.106918 
L 243.501434 220.961106 
L 245.132864 226.948256 
L 246.764294 222.281024 
L 248.395724 218.304482 
L 250.027154 219.244208 
L 251.658584 223.629286 
L 253.290014 223.32066 
L 254.921444 223.394973 
L 256.552873 224.340419 
L 258.184303 223.749918 
L 259.815733 222.115155 
L 261.447163 221.556605 
L 263.078593 221.608173 
L 264.710023 219.524108 
L 266.341453 216.39973 
L 267.972883 218.434515 
L 269.604312 214.631604 
L 271.235742 222.593982 
L 272.867172 229.566323 
L 274.498602 227.279472 
L 276.130032 220.537891 
L 277.761462 218.174436 
L 279.392892 219.950985 
L 281.024322 215.349907 
L 282.655751 213.316288 
L 284.287181 217.082886 
L 285.918611 221.607491 
L 287.550041 215.137606 
L 289.181471 222.099561 
L 290.812901 221.088345 
L 292.444331 221.011204 
L 294.075761 221.567157 
L 295.70719 221.131442 
L 297.33862 220.998104 
L 298.97005 219.097892 
L 300.60148 221.566041 
L 302.23291 223.775526 
L 303.86434 221.020488 
L 305.49577 221.309465 
L 307.1272 225.040477 
L 308.75863 224.332985 
L 310.390059 223.416792 
L 312.021489 215.535607 
L 313.652919 223.082067 
L 315.284349 221.572346 
L 316.915779 219.184265 
L 318.547209 222.7706 
L 320.178639 216.607632 
L 321.810069 222.86918 
L 323.441498 223.591593 
L 325.072928 223.284818 
L 326.704358 216.954619 
L 328.335788 218.688877 
L 329.967218 218.844759 
L 331.598648 225.105208 
L 333.230078 226.018801 
L 334.861508 220.893048 
L 336.492937 217.207017 
L 338.124367 215.770109 
L 339.755797 216.302924 
L 341.387227 218.996661 
L 343.018657 220.75188 
L 344.650087 217.519205 
L 346.281517 214.727399 
L 347.912947 215.186865 
L 349.544376 210.21622 
L 351.175806 201.583859 
L 352.807236 208.820845 
L 354.438666 200.297973 
L 356.070096 203.462404 
L 357.701526 200.260761 
L 359.332956 201.664559 
L 360.964386 198.735398 
L 362.595815 207.32267 
L 364.227245 206.185904 
L 367.490105 204.607477 
L 369.121535 204.43437 
L 370.752965 204.009506 
L 372.384395 200.851152 
L 374.015825 208.458081 
L 375.647254 208.214046 
L 377.278684 202.711171 
L 378.910114 208.673129 
L 382.172974 202.991177 
L 383.804404 208.344517 
L 385.435834 209.988549 
L 387.067264 214.12304 
L 388.698693 207.569381 
L 390.330123 210.34417 
L 391.961553 206.408228 
L 393.592983 214.385131 
L 395.224413 209.715643 
L 396.855843 201.305193 
L 398.487273 211.389544 
L 398.487273 211.389544 
" clip-path="url(#p86a46886f2)" style="fill: none; stroke-dasharray: 9.6,2.4,1.5,2.4; stroke-dashoffset: 0; stroke: #008000; stroke-width: 1.5"/>
   </g>
   <g id="line2d_36">
    <path d="M 73.832727 172.810915 
L 75.464157 106.288662 
L 78.727017 106.288662 
L 80.358447 53.568 
L 398.487273 53.568 
L 398.487273 53.568 
" clip-path="url(#p86a46886f2)" style="fill: none; stroke: #ff0000; stroke-width: 1.5; stroke-linecap: square"/>
   </g>
   <g id="patch_3">
    <path d="M 57.6 307.584 
L 57.6 41.472 
" style="fill: none; stroke: #000000; stroke-width: 0.8; stroke-linejoin: miter; stroke-linecap: square"/>
   </g>
   <g id="patch_4">
    <path d="M 414.72 307.584 
L 414.72 41.472 
" style="fill: none; stroke: #000000; stroke-width: 0.8; stroke-linejoin: miter; stroke-linecap: square"/>
   </g>
   <g id="patch_5">
    <path d="M 57.6 307.584 
L 414.72 307.584 
" style="fill: none; stroke: #000000; stroke-width: 0.8; stroke-linejoin: miter; stroke-linecap: square"/>
   </g>
   <g id="patch_6">
    <path d="M 57.6 41.472 
L 414.72 41.472 
" style="fill: none; stroke: #000000; stroke-width: 0.8; stroke-linejoin: miter; stroke-linecap: square"/>
   </g>
   <g id="text_19">
    <!-- Population's average and best fitness -->
    <g transform="translate(123.529687 35.472) scale(0.12 -0.12)">
     <defs>
      <path id="DejaVuSans-50" d="M 1259 4147 
L 1259 2394 
L 2053 2394 
Q 2494 2394 2734 2622 
Q 2975 2850 2975 3272 
Q 2975 3691 2734 3919 
Q 2494 4147 2053 4147 
L 1259 4147 
z
M 628 4666 
L 2053 4666 
Q 2838 4666 3239 4311 
Q 3641 3956 3641 3272 
Q 3641 2581 3239 2228 
Q 2838 1875 2053 1875 
L 1259 1875 
L 1259 0 
L 628 0 
L 628 4666 
z
" transform="scale(0.015625)"/>
      <path id="DejaVuSans-70" d="M 1159 525 
L 1159 -1331 
L 581 -1331 
L 581 3500 
L 1159 3500 
L 1159 2969 
Q 1341 3281 1617 3432 
Q 1894 3584 2278 3584 
Q 2916 3584 3314 3078 
Q 3713 2572 3713 1747 
Q 3713 922 3314 415 
Q 2916 -91 2278 -91 
Q 1894 -91 1617 61 
Q 1341 213 1159 525 
z
M 3116 1747 
Q 3116 2381 2855 2742 
Q 2594 3103 2138 3103 
Q 1681 3103 1420 2742 
Q 1159 2381 1159 1747 
Q 1159 1113 1420 752 
Q 1681 391 2138 391 
Q 2594 391 2855 752 
Q 3116 1113 3116 1747 
z
" transform="scale(0.015625)"/>
      <path id="DejaVuSans-75" d="M 544 1381 
L 544 3500 
L 1119 3500 
L 1119 1403 
Q 1119 906 1312 657 
Q 1506 409 1894 409 
Q 2359 409 2629 706 
Q 2900 1003 2900 1516 
L 2900 3500 
L 3475 3500 
L 3475 0 
L 2900 0 
L 2900 538 
Q 2691 219 2414 64 
Q 2138 -91 1772 -91 
Q 1169 -91 856 284 
Q 544 659 544 1381 
z
M 1991 3584 
L 1991 3584 
z
" transform="scale(0.015625)"/>
      <path id="DejaVuSans-6c" d="M 603 4863 
L 1178 4863 
L 1178 0 
L 603 0 
L 603 4863 
z
" transform="scale(0.015625)"/>
      <path id="DejaVuSans-27" d="M 1147 4666 
L 1147 2931 
L 616 2931 
L 616 4666 
L 1147 4666 
z
" transform="scale(0.015625)"/>
      <path id="DejaVuSans-20" transform="scale(0.015625)"/>
      <path id="DejaVuSans-76" d="M 191 3500 
L 800 3500 
L 1894 563 
L 2988 3500 
L 3597 3500 
L 2284 0 
L 1503 0 
L 191 3500 
z
" transform="scale(0.015625)"/>
      <path id="DejaVuSans-67" d="M 2906 1791 
Q 2906 2416 2648 2759 
Q 2391 3103 1925 3103 
Q 1463 3103 1205 2759 
Q 947 2416 947 1791 
Q 947 1169 1205 825 
Q 1463 481 1925 481 
Q 2391 481 2648 825 
Q 2906 1169 2906 1791 
z
M 3481 434 
Q 3481 -459 3084 -895 
Q 2688 -1331 1869 -1331 
Q 1566 -1331 1297 -1286 
Q 1028 -1241 775 -1147 
L 775 -588 
Q 1028 -725 1275 -790 
Q 1522 -856 1778 -856 
Q 2344 -856 2625 -561 
Q 2906 -266 2906 331 
L 2906 616 
Q 2728 306 2450 153 
Q 2172 0 1784 0 
Q 1141 0 747 490 
Q 353 981 353 1791 
Q 353 2603 747 3093 
Q 1141 3584 1784 3584 
Q 2172 3584 2450 3431 
Q 2728 3278 2906 2969 
L 2906 3500 
L 3481 3500 
L 3481 434 
z
" transform="scale(0.015625)"/>
      <path id="DejaVuSans-64" d="M 2906 2969 
L 2906 4863 
L 3481 4863 
L 3481 0 
L 2906 0 
L 2906 525 
Q 2725 213 2448 61 
Q 2172 -91 1784 -91 
Q 1150 -91 751 415 
Q 353 922 353 1747 
Q 353 2572 751 3078 
Q 1150 3584 1784 3584 
Q 2172 3584 2448 3432 
Q 2725 3281 2906 2969 
z
M 947 1747 
Q 947 1113 1208 752 
Q 1469 391 1925 391 
Q 2381 391 2643 752 
Q 2906 1113 2906 1747 
Q 2906 2381 2643 2742 
Q 2381 3103 1925 3103 
Q 1469 3103 1208 2742 
Q 947 2381 947 1747 
z
" transform="scale(0.015625)"/>
      <path id="DejaVuSans-62" d="M 3116 1747 
Q 3116 2381 2855 2742 
Q 2594 3103 2138 3103 
Q 1681 3103 1420 2742 
Q 1159 2381 1159 1747 
Q 1159 1113 1420 752 
Q 1681 391 2138 391 
Q 2594 391 2855 752 
Q 3116 1113 3116 1747 
z
M 1159 2969 
Q 1341 3281 1617 3432 
Q 1894 3584 2278 3584 
Q 2916 3584 3314 3078 
Q 3713 2572 3713 1747 
Q 3713 922 3314 415 
Q 2916 -91 2278 -91 
Q 1894 -91 1617 61 
Q 1341 213 1159 525 
L 1159 0 
L 581 0 
L 581 4863 
L 1159 4863 
L 1159 2969 
z
" transform="scale(0.015625)"/>
      <path id="DejaVuSans-66" d="M 2375 4863 
L 2375 4384 
L 1825 4384 
Q 1516 4384 1395 4259 
Q 1275 4134 1275 3809 
L 1275 3500 
L 2222 3500 
L 2222 3053 
L 1275 3053 
L 1275 0 
L 697 0 
L 697 3053 
L 147 3053 
L 147 3500 
L 697 3500 
L 697 3744 
Q 697 4328 969 4595 
Q 1241 4863 1831 4863 
L 2375 4863 
z
" transform="scale(0.015625)"/>
     </defs>
     <use xlink:href="#DejaVuSans-50"/>
     <use xlink:href="#DejaVuSans-6f" x="56.677734"/>
     <use xlink:href="#DejaVuSans-70" x="117.859375"/>
     <use xlink:href="#DejaVuSans-75" x="181.335938"/>
     <use xlink:href="#DejaVuSans-6c" x="244.714844"/>
     <use xlink:href="#DejaVuSans-61" x="272.498047"/>
     <use xlink:href="#DejaVuSans-74" x="333.777344"/>
     <use xlink:href="#DejaVuSans-69" x="372.986328"/>
     <use xlink:href="#DejaVuSans-6f" x="400.769531"/>
     <use xlink:href="#DejaVuSans-6e" x="461.951172"/>
     <use xlink:href="#DejaVuSans-27" x="525.330078"/>
     <use xlink:href="#DejaVuSans-73" x="552.820312"/>
     <use xlink:href="#DejaVuSans-20" x="604.919922"/>
     <use xlink:href="#DejaVuSans-61" x="636.707031"/>
     <use xlink:href="#DejaVuSans-76" x="697.986328"/>
     <use xlink:href="#DejaVuSans-65" x="757.166016"/>
     <use xlink:href="#DejaVuSans-72" x="818.689453"/>
     <use xlink:href="#DejaVuSans-61" x="859.802734"/>
     <use xlink:href="#DejaVuSans-67" x="921.082031"/>
     <use xlink:href="#DejaVuSans-65" x="984.558594"/>
     <use xlink:href="#DejaVuSans-20" x="1046.082031"/>
     <use xlink:href="#DejaVuSans-61" x="1077.869141"/>
     <use xlink:href="#DejaVuSans-6e" x="1139.148438"/>
     <use xlink:href="#DejaVuSans-64" x="1202.527344"/>
     <use xlink:href="#DejaVuSans-20" x="1266.003906"/>
     <use xlink:href="#DejaVuSans-62" x="1297.791016"/>
     <use xlink:href="#DejaVuSans-65" x="1361.267578"/>
     <use xlink:href="#DejaVuSans-73" x="1422.791016"/>
     <use xlink:href="#DejaVuSans-74" x="1474.890625"/>
     <use xlink:href="#DejaVuSans-20" x="1514.099609"/>
     <use xlink:href="#DejaVuSans-66" x="1545.886719"/>
     <use xlink:href="#DejaVuSans-69" x="1581.091797"/>
     <use xlink:href="#DejaVuSans-74" x="1608.875"/>
     <use xlink:href="#DejaVuSans-6e" x="1648.083984"/>
     <use xlink:href="#DejaVuSans-65" x="1711.462891"/>
     <use xlink:href="#DejaVuSans-73" x="1772.986328"/>
     <use xlink:href="#DejaVuSans-73" x="1825.085938"/>
    </g>
   </g>
   <g id="legend_1">
    <g id="patch_7">
     <path d="M 199.689687 205.38425 
L 272.630313 205.38425 
Q 274.630313 205.38425 274.630313 203.38425 
L 274.630313 145.67175 
Q 274.630313 143.67175 272.630313 143.67175 
L 199.689687 143.67175 
Q 197.689687 143.67175 197.689687 145.67175 
L 197.689687 203.38425 
Q 197.689687 205.38425 199.689687 205.38425 
z
" style="fill: #ffffff; opacity: 0.8; stroke: #cccccc; stroke-linejoin: miter"/>
    </g>
    <g id="line2d_37">
     <path d="M 201.689687 151.770188 
L 211.689687 151.770188 
L 221.689687 151.770188 
" style="fill: none; stroke: #0000ff; stroke-width: 1.5; stroke-linecap: square"/>
    </g>
    <g id="text_20">
     <!-- average -->
     <g transform="translate(229.689687 155.270188) scale(0.1 -0.1)">
      <use xlink:href="#DejaVuSans-61"/>
      <use xlink:href="#DejaVuSans-76" x="61.279297"/>
      <use xlink:href="#DejaVuSans-65" x="120.458984"/>
      <use xlink:href="#DejaVuSans-72" x="181.982422"/>
      <use xlink:href="#DejaVuSans-61" x="223.095703"/>
      <use xlink:href="#DejaVuSans-67" x="284.375"/>
      <use xlink:href="#DejaVuSans-65" x="347.851562"/>
     </g>
    </g>
    <g id="line2d_38">
     <path d="M 201.689687 166.448313 
L 211.689687 166.448313 
L 221.689687 166.448313 
" style="fill: none; stroke-dasharray: 9.6,2.4,1.5,2.4; stroke-dashoffset: 0; stroke: #008000; stroke-width: 1.5"/>
    </g>
    <g id="text_21">
     <!-- -1 sd -->
     <g transform="translate(229.689687 169.948313) scale(0.1 -0.1)">
      <defs>
       <path id="DejaVuSans-2d" d="M 313 2009 
L 1997 2009 
L 1997 1497 
L 313 1497 
L 313 2009 
z
" transform="scale(0.015625)"/>
      </defs>
      <use xlink:href="#DejaVuSans-2d"/>
      <use xlink:href="#DejaVuSans-31" x="36.083984"/>
      <use xlink:href="#DejaVuSans-20" x="99.707031"/>
      <use xlink:href="#DejaVuSans-73" x="131.494141"/>
      <use xlink:href="#DejaVuSans-64" x="183.59375"/>
     </g>
    </g>
    <g id="line2d_39">
     <path d="M 201.689687 181.126438 
L 211.689687 181.126438 
L 221.689687 181.126438 
" style="fill: none; stroke-dasharray: 9.6,2.4,1.5,2.4; stroke-dashoffset: 0; stroke: #008000; stroke-width: 1.5"/>
    </g>
    <g id="text_22">
     <!-- +1 sd -->
     <g transform="translate(229.689687 184.626438) scale(0.1 -0.1)">
      <defs>
       <path id="DejaVuSans-2b" d="M 2944 4013 
L 2944 2272 
L 4684 2272 
L 4684 1741 
L 2944 1741 
L 2944 0 
L 2419 0 
L 2419 1741 
L 678 1741 
L 678 2272 
L 2419 2272 
L 2419 4013 
L 2944 4013 
z
" transform="scale(0.015625)"/>
      </defs>
      <use xlink:href="#DejaVuSans-2b"/>
      <use xlink:href="#DejaVuSans-31" x="83.789062"/>
      <use xlink:href="#DejaVuSans-20" x="147.412109"/>
      <use xlink:href="#DejaVuSans-73" x="179.199219"/>
      <use xlink:href="#DejaVuSans-64" x="231.298828"/>
     </g>
    </g>
    <g id="line2d_40">
     <path d="M 201.689687 195.804563 
L 211.689687 195.804563 
L 221.689687 195.804563 
" style="fill: none; stroke: #ff0000; stroke-width: 1.5; stroke-linecap: square"/>
    </g>
    <g id="text_23">
     <!-- best -->
     <g transform="translate(229.689687 199.304563) scale(0.1 -0.1)">
      <use xlink:href="#DejaVuSans-62"/>
      <use xlink:href="#DejaVuSans-65" x="63.476562"/>
      <use xlink:href="#DejaVuSans-73" x="125"/>
      <use xlink:href="#DejaVuSans-74" x="177.099609"/>
     </g>
    </g>
   </g>
  </g>
 </g>
 <defs>
  <clipPath id="p86a46886f2">
   <rect x="57.6" y="41.472" width="357.12" height="266.112"/>
  </clipPath>
 </defs>
</svg>
