<?xml version="1.0" encoding="utf-8" standalone="no"?>
<!DOCTYPE svg PUBLIC "-//W3C//DTD SVG 1.1//EN"
  "http://www.w3.org/Graphics/SVG/1.1/DTD/svg11.dtd">
<svg xmlns:xlink="http://www.w3.org/1999/xlink" width="460.8pt" height="345.6pt" viewBox="0 0 460.8 345.6" xmlns="http://www.w3.org/2000/svg" version="1.1">
 <metadata>
  <rdf:RDF xmlns:dc="http://purl.org/dc/elements/1.1/" xmlns:cc="http://creativecommons.org/ns#" xmlns:rdf="http://www.w3.org/1999/02/22-rdf-syntax-ns#">
   <cc:Work>
    <dc:type rdf:resource="http://purl.org/dc/dcmitype/StillImage"/>
    <dc:date>2024-08-02T06:24:28.284266</dc:date>
    <dc:format>image/svg+xml</dc:format>
    <dc:creator>
     <cc:Agent>
      <dc:title>Matplotlib v3.8.4, https://matplotlib.org/</dc:title>
     </cc:Agent>
    </dc:creator>
   </cc:Work>
  </rdf:RDF>
 </metadata>
 <defs>
  <style type="text/css">*{stroke-linejoin: round; stroke-linecap: butt}</style>
 </defs>
 <g id="figure_1">
  <g id="patch_1">
   <path d="M 0 345.6 
L 460.8 345.6 
L 460.8 0 
L 0 0 
z
" style="fill: #ffffff"/>
  </g>
  <g id="axes_1">
   <g id="patch_2">
    <path d="M 57.6 307.584 
L 414.72 307.584 
L 414.72 41.472 
L 57.6 41.472 
z
" style="fill: #ffffff"/>
   </g>
   <g id="matplotlib.axis_1">
    <g id="xtick_1">
     <g id="line2d_1">
      <path d="M 73.832727 307.584 
L 73.832727 41.472 
" clip-path="url(#pb4c29f4eec)" style="fill: none; stroke: #b0b0b0; stroke-width: 0.8; stroke-linecap: square"/>
     </g>
     <g id="line2d_2">
      <defs>
       <path id="m1f466273a8" d="M 0 0 
L 0 3.5 
" style="stroke: #000000; stroke-width: 0.8"/>
      </defs>
      <g>
       <use xlink:href="#m1f466273a8" x="73.832727" y="307.584" style="stroke: #000000; stroke-width: 0.8"/>
      </g>
     </g>
     <g id="text_1">
      <!-- 0 -->
      <g transform="translate(70.651477 322.182437) scale(0.1 -0.1)">
       <defs>
        <path id="DejaVuSans-30" d="M 2034 4250 
Q 1547 4250 1301 3770 
Q 1056 3291 1056 2328 
Q 1056 1369 1301 889 
Q 1547 409 2034 409 
Q 2525 409 2770 889 
Q 3016 1369 3016 2328 
Q 3016 3291 2770 3770 
Q 2525 4250 2034 4250 
z
M 2034 4750 
Q 2819 4750 3233 4129 
Q 3647 3509 3647 2328 
Q 3647 1150 3233 529 
Q 2819 -91 2034 -91 
Q 1250 -91 836 529 
Q 422 1150 422 2328 
Q 422 3509 836 4129 
Q 1250 4750 2034 4750 
z
" transform="scale(0.015625)"/>
       </defs>
       <use xlink:href="#DejaVuSans-30"/>
      </g>
     </g>
    </g>
    <g id="xtick_2">
     <g id="line2d_3">
      <path d="M 114.618474 307.584 
L 114.618474 41.472 
" clip-path="url(#pb4c29f4eec)" style="fill: none; stroke: #b0b0b0; stroke-width: 0.8; stroke-linecap: square"/>
     </g>
     <g id="line2d_4">
      <g>
       <use xlink:href="#m1f466273a8" x="114.618474" y="307.584" style="stroke: #000000; stroke-width: 0.8"/>
      </g>
     </g>
     <g id="text_2">
      <!-- 25 -->
      <g transform="translate(108.255974 322.182437) scale(0.1 -0.1)">
       <defs>
        <path id="DejaVuSans-32" d="M 1228 531 
L 3431 531 
L 3431 0 
L 469 0 
L 469 531 
Q 828 903 1448 1529 
Q 2069 2156 2228 2338 
Q 2531 2678 2651 2914 
Q 2772 3150 2772 3378 
Q 2772 3750 2511 3984 
Q 2250 4219 1831 4219 
Q 1534 4219 1204 4116 
Q 875 4013 500 3803 
L 500 4441 
Q 881 4594 1212 4672 
Q 1544 4750 1819 4750 
Q 2544 4750 2975 4387 
Q 3406 4025 3406 3419 
Q 3406 3131 3298 2873 
Q 3191 2616 2906 2266 
Q 2828 2175 2409 1742 
Q 1991 1309 1228 531 
z
" transform="scale(0.015625)"/>
        <path id="DejaVuSans-35" d="M 691 4666 
L 3169 4666 
L 3169 4134 
L 1269 4134 
L 1269 2991 
Q 1406 3038 1543 3061 
Q 1681 3084 1819 3084 
Q 2600 3084 3056 2656 
Q 3513 2228 3513 1497 
Q 3513 744 3044 326 
Q 2575 -91 1722 -91 
Q 1428 -91 1123 -41 
Q 819 9 494 109 
L 494 744 
Q 775 591 1075 516 
Q 1375 441 1709 441 
Q 2250 441 2565 725 
Q 2881 1009 2881 1497 
Q 2881 1984 2565 2268 
Q 2250 2553 1709 2553 
Q 1456 2553 1204 2497 
Q 953 2441 691 2322 
L 691 4666 
z
" transform="scale(0.015625)"/>
       </defs>
       <use xlink:href="#DejaVuSans-32"/>
       <use xlink:href="#DejaVuSans-35" x="63.623047"/>
      </g>
     </g>
    </g>
    <g id="xtick_3">
     <g id="line2d_5">
      <path d="M 155.404221 307.584 
L 155.404221 41.472 
" clip-path="url(#pb4c29f4eec)" style="fill: none; stroke: #b0b0b0; stroke-width: 0.8; stroke-linecap: square"/>
     </g>
     <g id="line2d_6">
      <g>
       <use xlink:href="#m1f466273a8" x="155.404221" y="307.584" style="stroke: #000000; stroke-width: 0.8"/>
      </g>
     </g>
     <g id="text_3">
      <!-- 50 -->
      <g transform="translate(149.041721 322.182437) scale(0.1 -0.1)">
       <use xlink:href="#DejaVuSans-35"/>
       <use xlink:href="#DejaVuSans-30" x="63.623047"/>
      </g>
     </g>
    </g>
    <g id="xtick_4">
     <g id="line2d_7">
      <path d="M 196.189968 307.584 
L 196.189968 41.472 
" clip-path="url(#pb4c29f4eec)" style="fill: none; stroke: #b0b0b0; stroke-width: 0.8; stroke-linecap: square"/>
     </g>
     <g id="line2d_8">
      <g>
       <use xlink:href="#m1f466273a8" x="196.189968" y="307.584" style="stroke: #000000; stroke-width: 0.8"/>
      </g>
     </g>
     <g id="text_4">
      <!-- 75 -->
      <g transform="translate(189.827468 322.182437) scale(0.1 -0.1)">
       <defs>
        <path id="DejaVuSans-37" d="M 525 4666 
L 3525 4666 
L 3525 4397 
L 1831 0 
L 1172 0 
L 2766 4134 
L 525 4134 
L 525 4666 
z
" transform="scale(0.015625)"/>
       </defs>
       <use xlink:href="#DejaVuSans-37"/>
       <use xlink:href="#DejaVuSans-35" x="63.623047"/>
      </g>
     </g>
    </g>
    <g id="xtick_5">
     <g id="line2d_9">
      <path d="M 236.975715 307.584 
L 236.975715 41.472 
" clip-path="url(#pb4c29f4eec)" style="fill: none; stroke: #b0b0b0; stroke-width: 0.8; stroke-linecap: square"/>
     </g>
     <g id="line2d_10">
      <g>
       <use xlink:href="#m1f466273a8" x="236.975715" y="307.584" style="stroke: #000000; stroke-width: 0.8"/>
      </g>
     </g>
     <g id="text_5">
      <!-- 100 -->
      <g transform="translate(227.431965 322.182437) scale(0.1 -0.1)">
       <defs>
        <path id="DejaVuSans-31" d="M 794 531 
L 1825 531 
L 1825 4091 
L 703 3866 
L 703 4441 
L 1819 4666 
L 2450 4666 
L 2450 531 
L 3481 531 
L 3481 0 
L 794 0 
L 794 531 
z
" transform="scale(0.015625)"/>
       </defs>
       <use xlink:href="#DejaVuSans-31"/>
       <use xlink:href="#DejaVuSans-30" x="63.623047"/>
       <use xlink:href="#DejaVuSans-30" x="127.246094"/>
      </g>
     </g>
    </g>
    <g id="xtick_6">
     <g id="line2d_11">
      <path d="M 277.761462 307.584 
L 277.761462 41.472 
" clip-path="url(#pb4c29f4eec)" style="fill: none; stroke: #b0b0b0; stroke-width: 0.8; stroke-linecap: square"/>
     </g>
     <g id="line2d_12">
      <g>
       <use xlink:href="#m1f466273a8" x="277.761462" y="307.584" style="stroke: #000000; stroke-width: 0.8"/>
      </g>
     </g>
     <g id="text_6">
      <!-- 125 -->
      <g transform="translate(268.217712 322.182437) scale(0.1 -0.1)">
       <use xlink:href="#DejaVuSans-31"/>
       <use xlink:href="#DejaVuSans-32" x="63.623047"/>
       <use xlink:href="#DejaVuSans-35" x="127.246094"/>
      </g>
     </g>
    </g>
    <g id="xtick_7">
     <g id="line2d_13">
      <path d="M 318.547209 307.584 
L 318.547209 41.472 
" clip-path="url(#pb4c29f4eec)" style="fill: none; stroke: #b0b0b0; stroke-width: 0.8; stroke-linecap: square"/>
     </g>
     <g id="line2d_14">
      <g>
       <use xlink:href="#m1f466273a8" x="318.547209" y="307.584" style="stroke: #000000; stroke-width: 0.8"/>
      </g>
     </g>
     <g id="text_7">
      <!-- 150 -->
      <g transform="translate(309.003459 322.182437) scale(0.1 -0.1)">
       <use xlink:href="#DejaVuSans-31"/>
       <use xlink:href="#DejaVuSans-35" x="63.623047"/>
       <use xlink:href="#DejaVuSans-30" x="127.246094"/>
      </g>
     </g>
    </g>
    <g id="xtick_8">
     <g id="line2d_15">
      <path d="M 359.332956 307.584 
L 359.332956 41.472 
" clip-path="url(#pb4c29f4eec)" style="fill: none; stroke: #b0b0b0; stroke-width: 0.8; stroke-linecap: square"/>
     </g>
     <g id="line2d_16">
      <g>
       <use xlink:href="#m1f466273a8" x="359.332956" y="307.584" style="stroke: #000000; stroke-width: 0.8"/>
      </g>
     </g>
     <g id="text_8">
      <!-- 175 -->
      <g transform="translate(349.789206 322.182437) scale(0.1 -0.1)">
       <use xlink:href="#DejaVuSans-31"/>
       <use xlink:href="#DejaVuSans-37" x="63.623047"/>
       <use xlink:href="#DejaVuSans-35" x="127.246094"/>
      </g>
     </g>
    </g>
    <g id="xtick_9">
     <g id="line2d_17">
      <path d="M 400.118703 307.584 
L 400.118703 41.472 
" clip-path="url(#pb4c29f4eec)" style="fill: none; stroke: #b0b0b0; stroke-width: 0.8; stroke-linecap: square"/>
     </g>
     <g id="line2d_18">
      <g>
       <use xlink:href="#m1f466273a8" x="400.118703" y="307.584" style="stroke: #000000; stroke-width: 0.8"/>
      </g>
     </g>
     <g id="text_9">
      <!-- 200 -->
      <g transform="translate(390.574953 322.182437) scale(0.1 -0.1)">
       <use xlink:href="#DejaVuSans-32"/>
       <use xlink:href="#DejaVuSans-30" x="63.623047"/>
       <use xlink:href="#DejaVuSans-30" x="127.246094"/>
      </g>
     </g>
    </g>
    <g id="text_10">
     <!-- Generations -->
     <g transform="translate(205.662344 335.860562) scale(0.1 -0.1)">
      <defs>
       <path id="DejaVuSans-47" d="M 3809 666 
L 3809 1919 
L 2778 1919 
L 2778 2438 
L 4434 2438 
L 4434 434 
Q 4069 175 3628 42 
Q 3188 -91 2688 -91 
Q 1594 -91 976 548 
Q 359 1188 359 2328 
Q 359 3472 976 4111 
Q 1594 4750 2688 4750 
Q 3144 4750 3555 4637 
Q 3966 4525 4313 4306 
L 4313 3634 
Q 3963 3931 3569 4081 
Q 3175 4231 2741 4231 
Q 1884 4231 1454 3753 
Q 1025 3275 1025 2328 
Q 1025 1384 1454 906 
Q 1884 428 2741 428 
Q 3075 428 3337 486 
Q 3600 544 3809 666 
z
" transform="scale(0.015625)"/>
       <path id="DejaVuSans-65" d="M 3597 1894 
L 3597 1613 
L 953 1613 
Q 991 1019 1311 708 
Q 1631 397 2203 397 
Q 2534 397 2845 478 
Q 3156 559 3463 722 
L 3463 178 
Q 3153 47 2828 -22 
Q 2503 -91 2169 -91 
Q 1331 -91 842 396 
Q 353 884 353 1716 
Q 353 2575 817 3079 
Q 1281 3584 2069 3584 
Q 2775 3584 3186 3129 
Q 3597 2675 3597 1894 
z
M 3022 2063 
Q 3016 2534 2758 2815 
Q 2500 3097 2075 3097 
Q 1594 3097 1305 2825 
Q 1016 2553 972 2059 
L 3022 2063 
z
" transform="scale(0.015625)"/>
       <path id="DejaVuSans-6e" d="M 3513 2113 
L 3513 0 
L 2938 0 
L 2938 2094 
Q 2938 2591 2744 2837 
Q 2550 3084 2163 3084 
Q 1697 3084 1428 2787 
Q 1159 2491 1159 1978 
L 1159 0 
L 581 0 
L 581 3500 
L 1159 3500 
L 1159 2956 
Q 1366 3272 1645 3428 
Q 1925 3584 2291 3584 
Q 2894 3584 3203 3211 
Q 3513 2838 3513 2113 
z
" transform="scale(0.015625)"/>
       <path id="DejaVuSans-72" d="M 2631 2963 
Q 2534 3019 2420 3045 
Q 2306 3072 2169 3072 
Q 1681 3072 1420 2755 
Q 1159 2438 1159 1844 
L 1159 0 
L 581 0 
L 581 3500 
L 1159 3500 
L 1159 2956 
Q 1341 3275 1631 3429 
Q 1922 3584 2338 3584 
Q 2397 3584 2469 3576 
Q 2541 3569 2628 3553 
L 2631 2963 
z
" transform="scale(0.015625)"/>
       <path id="DejaVuSans-61" d="M 2194 1759 
Q 1497 1759 1228 1600 
Q 959 1441 959 1056 
Q 959 750 1161 570 
Q 1363 391 1709 391 
Q 2188 391 2477 730 
Q 2766 1069 2766 1631 
L 2766 1759 
L 2194 1759 
z
M 3341 1997 
L 3341 0 
L 2766 0 
L 2766 531 
Q 2569 213 2275 61 
Q 1981 -91 1556 -91 
Q 1019 -91 701 211 
Q 384 513 384 1019 
Q 384 1609 779 1909 
Q 1175 2209 1959 2209 
L 2766 2209 
L 2766 2266 
Q 2766 2663 2505 2880 
Q 2244 3097 1772 3097 
Q 1472 3097 1187 3025 
Q 903 2953 641 2809 
L 641 3341 
Q 956 3463 1253 3523 
Q 1550 3584 1831 3584 
Q 2591 3584 2966 3190 
Q 3341 2797 3341 1997 
z
" transform="scale(0.015625)"/>
       <path id="DejaVuSans-74" d="M 1172 4494 
L 1172 3500 
L 2356 3500 
L 2356 3053 
L 1172 3053 
L 1172 1153 
Q 1172 725 1289 603 
Q 1406 481 1766 481 
L 2356 481 
L 2356 0 
L 1766 0 
Q 1100 0 847 248 
Q 594 497 594 1153 
L 594 3053 
L 172 3053 
L 172 3500 
L 594 3500 
L 594 4494 
L 1172 4494 
z
" transform="scale(0.015625)"/>
       <path id="DejaVuSans-69" d="M 603 3500 
L 1178 3500 
L 1178 0 
L 603 0 
L 603 3500 
z
M 603 4863 
L 1178 4863 
L 1178 4134 
L 603 4134 
L 603 4863 
z
" transform="scale(0.015625)"/>
       <path id="DejaVuSans-6f" d="M 1959 3097 
Q 1497 3097 1228 2736 
Q 959 2375 959 1747 
Q 959 1119 1226 758 
Q 1494 397 1959 397 
Q 2419 397 2687 759 
Q 2956 1122 2956 1747 
Q 2956 2369 2687 2733 
Q 2419 3097 1959 3097 
z
M 1959 3584 
Q 2709 3584 3137 3096 
Q 3566 2609 3566 1747 
Q 3566 888 3137 398 
Q 2709 -91 1959 -91 
Q 1206 -91 779 398 
Q 353 888 353 1747 
Q 353 2609 779 3096 
Q 1206 3584 1959 3584 
z
" transform="scale(0.015625)"/>
       <path id="DejaVuSans-73" d="M 2834 3397 
L 2834 2853 
Q 2591 2978 2328 3040 
Q 2066 3103 1784 3103 
Q 1356 3103 1142 2972 
Q 928 2841 928 2578 
Q 928 2378 1081 2264 
Q 1234 2150 1697 2047 
L 1894 2003 
Q 2506 1872 2764 1633 
Q 3022 1394 3022 966 
Q 3022 478 2636 193 
Q 2250 -91 1575 -91 
Q 1294 -91 989 -36 
Q 684 19 347 128 
L 347 722 
Q 666 556 975 473 
Q 1284 391 1588 391 
Q 1994 391 2212 530 
Q 2431 669 2431 922 
Q 2431 1156 2273 1281 
Q 2116 1406 1581 1522 
L 1381 1569 
Q 847 1681 609 1914 
Q 372 2147 372 2553 
Q 372 3047 722 3315 
Q 1072 3584 1716 3584 
Q 2034 3584 2315 3537 
Q 2597 3491 2834 3397 
z
" transform="scale(0.015625)"/>
      </defs>
      <use xlink:href="#DejaVuSans-47"/>
      <use xlink:href="#DejaVuSans-65" x="77.490234"/>
      <use xlink:href="#DejaVuSans-6e" x="139.013672"/>
      <use xlink:href="#DejaVuSans-65" x="202.392578"/>
      <use xlink:href="#DejaVuSans-72" x="263.916016"/>
      <use xlink:href="#DejaVuSans-61" x="305.029297"/>
      <use xlink:href="#DejaVuSans-74" x="366.308594"/>
      <use xlink:href="#DejaVuSans-69" x="405.517578"/>
      <use xlink:href="#DejaVuSans-6f" x="433.300781"/>
      <use xlink:href="#DejaVuSans-6e" x="494.482422"/>
      <use xlink:href="#DejaVuSans-73" x="557.861328"/>
     </g>
    </g>
   </g>
   <g id="matplotlib.axis_2">
    <g id="ytick_1">
     <g id="line2d_19">
      <path d="M 57.6 280.365014 
L 414.72 280.365014 
" clip-path="url(#pb4c29f4eec)" style="fill: none; stroke: #b0b0b0; stroke-width: 0.8; stroke-linecap: square"/>
     </g>
     <g id="line2d_20">
      <defs>
       <path id="m085c54f1bd" d="M 0 0 
L -3.5 0 
" style="stroke: #000000; stroke-width: 0.8"/>
      </defs>
      <g>
       <use xlink:href="#m085c54f1bd" x="57.6" y="280.365014" style="stroke: #000000; stroke-width: 0.8"/>
      </g>
     </g>
     <g id="text_11">
      <!-- −2000 -->
      <g transform="translate(16.770313 284.164233) scale(0.1 -0.1)">
       <defs>
        <path id="DejaVuSans-2212" d="M 678 2272 
L 4684 2272 
L 4684 1741 
L 678 1741 
L 678 2272 
z
" transform="scale(0.015625)"/>
       </defs>
       <use xlink:href="#DejaVuSans-2212"/>
       <use xlink:href="#DejaVuSans-32" x="83.789062"/>
       <use xlink:href="#DejaVuSans-30" x="147.412109"/>
       <use xlink:href="#DejaVuSans-30" x="211.035156"/>
       <use xlink:href="#DejaVuSans-30" x="274.658203"/>
      </g>
     </g>
    </g>
    <g id="ytick_2">
     <g id="line2d_21">
      <path d="M 57.6 222.132681 
L 414.72 222.132681 
" clip-path="url(#pb4c29f4eec)" style="fill: none; stroke: #b0b0b0; stroke-width: 0.8; stroke-linecap: square"/>
     </g>
     <g id="line2d_22">
      <g>
       <use xlink:href="#m085c54f1bd" x="57.6" y="222.132681" style="stroke: #000000; stroke-width: 0.8"/>
      </g>
     </g>
     <g id="text_12">
      <!-- −1800 -->
      <g transform="translate(16.770313 225.931899) scale(0.1 -0.1)">
       <defs>
        <path id="DejaVuSans-38" d="M 2034 2216 
Q 1584 2216 1326 1975 
Q 1069 1734 1069 1313 
Q 1069 891 1326 650 
Q 1584 409 2034 409 
Q 2484 409 2743 651 
Q 3003 894 3003 1313 
Q 3003 1734 2745 1975 
Q 2488 2216 2034 2216 
z
M 1403 2484 
Q 997 2584 770 2862 
Q 544 3141 544 3541 
Q 544 4100 942 4425 
Q 1341 4750 2034 4750 
Q 2731 4750 3128 4425 
Q 3525 4100 3525 3541 
Q 3525 3141 3298 2862 
Q 3072 2584 2669 2484 
Q 3125 2378 3379 2068 
Q 3634 1759 3634 1313 
Q 3634 634 3220 271 
Q 2806 -91 2034 -91 
Q 1263 -91 848 271 
Q 434 634 434 1313 
Q 434 1759 690 2068 
Q 947 2378 1403 2484 
z
M 1172 3481 
Q 1172 3119 1398 2916 
Q 1625 2713 2034 2713 
Q 2441 2713 2670 2916 
Q 2900 3119 2900 3481 
Q 2900 3844 2670 4047 
Q 2441 4250 2034 4250 
Q 1625 4250 1398 4047 
Q 1172 3844 1172 3481 
z
" transform="scale(0.015625)"/>
       </defs>
       <use xlink:href="#DejaVuSans-2212"/>
       <use xlink:href="#DejaVuSans-31" x="83.789062"/>
       <use xlink:href="#DejaVuSans-38" x="147.412109"/>
       <use xlink:href="#DejaVuSans-30" x="211.035156"/>
       <use xlink:href="#DejaVuSans-30" x="274.658203"/>
      </g>
     </g>
    </g>
    <g id="ytick_3">
     <g id="line2d_23">
      <path d="M 57.6 163.900347 
L 414.72 163.900347 
" clip-path="url(#pb4c29f4eec)" style="fill: none; stroke: #b0b0b0; stroke-width: 0.8; stroke-linecap: square"/>
     </g>
     <g id="line2d_24">
      <g>
       <use xlink:href="#m085c54f1bd" x="57.6" y="163.900347" style="stroke: #000000; stroke-width: 0.8"/>
      </g>
     </g>
     <g id="text_13">
      <!-- −1600 -->
      <g transform="translate(16.770313 167.699566) scale(0.1 -0.1)">
       <defs>
        <path id="DejaVuSans-36" d="M 2113 2584 
Q 1688 2584 1439 2293 
Q 1191 2003 1191 1497 
Q 1191 994 1439 701 
Q 1688 409 2113 409 
Q 2538 409 2786 701 
Q 3034 994 3034 1497 
Q 3034 2003 2786 2293 
Q 2538 2584 2113 2584 
z
M 3366 4563 
L 3366 3988 
Q 3128 4100 2886 4159 
Q 2644 4219 2406 4219 
Q 1781 4219 1451 3797 
Q 1122 3375 1075 2522 
Q 1259 2794 1537 2939 
Q 1816 3084 2150 3084 
Q 2853 3084 3261 2657 
Q 3669 2231 3669 1497 
Q 3669 778 3244 343 
Q 2819 -91 2113 -91 
Q 1303 -91 875 529 
Q 447 1150 447 2328 
Q 447 3434 972 4092 
Q 1497 4750 2381 4750 
Q 2619 4750 2861 4703 
Q 3103 4656 3366 4563 
z
" transform="scale(0.015625)"/>
       </defs>
       <use xlink:href="#DejaVuSans-2212"/>
       <use xlink:href="#DejaVuSans-31" x="83.789062"/>
       <use xlink:href="#DejaVuSans-36" x="147.412109"/>
       <use xlink:href="#DejaVuSans-30" x="211.035156"/>
       <use xlink:href="#DejaVuSans-30" x="274.658203"/>
      </g>
     </g>
    </g>
    <g id="ytick_4">
     <g id="line2d_25">
      <path d="M 57.6 105.668014 
L 414.72 105.668014 
" clip-path="url(#pb4c29f4eec)" style="fill: none; stroke: #b0b0b0; stroke-width: 0.8; stroke-linecap: square"/>
     </g>
     <g id="line2d_26">
      <g>
       <use xlink:href="#m085c54f1bd" x="57.6" y="105.668014" style="stroke: #000000; stroke-width: 0.8"/>
      </g>
     </g>
     <g id="text_14">
      <!-- −1400 -->
      <g transform="translate(16.770313 109.467233) scale(0.1 -0.1)">
       <defs>
        <path id="DejaVuSans-34" d="M 2419 4116 
L 825 1625 
L 2419 1625 
L 2419 4116 
z
M 2253 4666 
L 3047 4666 
L 3047 1625 
L 3713 1625 
L 3713 1100 
L 3047 1100 
L 3047 0 
L 2419 0 
L 2419 1100 
L 313 1100 
L 313 1709 
L 2253 4666 
z
" transform="scale(0.015625)"/>
       </defs>
       <use xlink:href="#DejaVuSans-2212"/>
       <use xlink:href="#DejaVuSans-31" x="83.789062"/>
       <use xlink:href="#DejaVuSans-34" x="147.412109"/>
       <use xlink:href="#DejaVuSans-30" x="211.035156"/>
       <use xlink:href="#DejaVuSans-30" x="274.658203"/>
      </g>
     </g>
    </g>
    <g id="ytick_5">
     <g id="line2d_27">
      <path d="M 57.6 47.435681 
L 414.72 47.435681 
" clip-path="url(#pb4c29f4eec)" style="fill: none; stroke: #b0b0b0; stroke-width: 0.8; stroke-linecap: square"/>
     </g>
     <g id="line2d_28">
      <g>
       <use xlink:href="#m085c54f1bd" x="57.6" y="47.435681" style="stroke: #000000; stroke-width: 0.8"/>
      </g>
     </g>
     <g id="text_15">
      <!-- −1200 -->
      <g transform="translate(16.770313 51.2349) scale(0.1 -0.1)">
       <use xlink:href="#DejaVuSans-2212"/>
       <use xlink:href="#DejaVuSans-31" x="83.789062"/>
       <use xlink:href="#DejaVuSans-32" x="147.412109"/>
       <use xlink:href="#DejaVuSans-30" x="211.035156"/>
       <use xlink:href="#DejaVuSans-30" x="274.658203"/>
      </g>
     </g>
    </g>
    <g id="text_16">
     <!-- Fitness -->
     <g transform="translate(10.690625 191.845187) rotate(-90) scale(0.1 -0.1)">
      <defs>
       <path id="DejaVuSans-46" d="M 628 4666 
L 3309 4666 
L 3309 4134 
L 1259 4134 
L 1259 2759 
L 3109 2759 
L 3109 2228 
L 1259 2228 
L 1259 0 
L 628 0 
L 628 4666 
z
" transform="scale(0.015625)"/>
      </defs>
      <use xlink:href="#DejaVuSans-46"/>
      <use xlink:href="#DejaVuSans-69" x="50.269531"/>
      <use xlink:href="#DejaVuSans-74" x="78.052734"/>
      <use xlink:href="#DejaVuSans-6e" x="117.261719"/>
      <use xlink:href="#DejaVuSans-65" x="180.640625"/>
      <use xlink:href="#DejaVuSans-73" x="242.164062"/>
      <use xlink:href="#DejaVuSans-73" x="294.263672"/>
     </g>
    </g>
   </g>
   <g id="line2d_29">
    <path d="M 73.832727 265.745088 
L 75.464157 265.547662 
L 77.095587 256.769185 
L 78.727017 253.766202 
L 80.358447 254.708343 
L 81.989877 252.354063 
L 83.621307 247.923221 
L 85.252736 246.068249 
L 86.884166 247.465159 
L 88.515596 246.302953 
L 90.147026 249.125402 
L 91.778456 246.815614 
L 93.409886 247.430165 
L 95.041316 246.008361 
L 96.672746 245.640167 
L 98.304175 243.699303 
L 99.935605 245.503587 
L 101.567035 243.028189 
L 103.198465 246.558541 
L 104.829895 245.369771 
L 106.461325 246.120104 
L 108.092755 243.099203 
L 109.724185 245.464532 
L 112.987044 245.297616 
L 114.618474 246.168409 
L 116.249904 248.956002 
L 117.881334 248.813708 
L 119.512764 245.049814 
L 121.144194 246.355184 
L 122.775624 245.573 
L 124.407053 247.681689 
L 126.038483 243.974991 
L 127.669913 243.741711 
L 129.301343 249.348877 
L 130.932773 245.573358 
L 132.564203 247.263518 
L 134.195633 245.716722 
L 135.827063 245.996543 
L 137.458492 243.398114 
L 139.089922 243.083407 
L 140.721352 245.321939 
L 142.352782 245.070314 
L 143.984212 242.860346 
L 145.615642 247.068888 
L 147.247072 247.936059 
L 148.878502 243.835569 
L 150.509931 246.17731 
L 152.141361 245.207073 
L 153.772791 250.957499 
L 155.404221 244.35462 
L 157.035651 245.370972 
L 158.667081 243.703483 
L 160.298511 243.465965 
L 161.929941 243.855442 
L 163.56137 245.107694 
L 165.1928 242.159409 
L 166.82423 245.565953 
L 168.45566 249.31881 
L 170.08709 248.758832 
L 171.71852 246.988415 
L 173.34995 246.248658 
L 174.98138 247.330441 
L 176.61281 247.362107 
L 178.244239 243.550272 
L 179.875669 244.999569 
L 181.507099 244.786697 
L 183.138529 245.014325 
L 184.769959 245.047394 
L 186.401389 245.252363 
L 188.032819 247.693932 
L 189.664249 247.196139 
L 191.295678 245.378097 
L 192.927108 245.556618 
L 194.558538 243.979295 
L 196.189968 246.73141 
L 197.821398 246.64607 
L 199.452828 245.49718 
L 201.084258 245.035461 
L 202.715688 245.556349 
L 204.347117 243.683515 
L 205.978547 245.459541 
L 207.609977 243.500534 
L 209.241407 243.51206 
L 210.872837 243.869286 
L 212.504267 245.113593 
L 214.135697 242.266875 
L 215.767127 246.121252 
L 217.398556 245.565028 
L 219.029986 242.871295 
L 220.661416 245.040389 
L 222.292846 245.441891 
L 223.924276 248.352382 
L 225.555706 246.742938 
L 227.187136 243.976856 
L 228.818566 245.784204 
L 230.449995 243.751201 
L 232.081425 248.773235 
L 233.712855 245.208246 
L 235.344285 246.576135 
L 236.975715 241.265775 
L 238.607145 247.82382 
L 240.238575 247.872461 
L 241.870005 246.492612 
L 243.501434 242.329247 
L 245.132864 247.717237 
L 246.764294 246.818901 
L 248.395724 241.527552 
L 250.027154 247.049378 
L 251.658584 245.395483 
L 253.290014 242.29295 
L 254.921444 244.0827 
L 256.552873 243.505506 
L 258.184303 243.281329 
L 259.815733 242.202808 
L 261.447163 247.364491 
L 263.078593 250.023695 
L 264.710023 246.225265 
L 266.341453 248.482375 
L 267.972883 247.03239 
L 269.604312 241.927107 
L 271.235742 247.821158 
L 272.867172 248.334006 
L 274.498602 247.505248 
L 276.130032 244.4633 
L 277.761462 247.683432 
L 279.392892 248.388462 
L 281.024322 250.20341 
L 282.655751 247.986018 
L 284.287181 251.600334 
L 285.918611 245.583846 
L 287.550041 248.780624 
L 289.181471 250.024139 
L 290.812901 248.79483 
L 292.444331 252.113253 
L 294.075761 246.011776 
L 295.70719 244.780987 
L 297.33862 245.642534 
L 298.97005 244.238054 
L 300.60148 244.281895 
L 302.23291 243.35486 
L 303.86434 243.816849 
L 305.49577 237.285675 
L 307.1272 243.649937 
L 308.75863 242.521889 
L 310.390059 245.000697 
L 312.021489 242.247226 
L 313.652919 242.651464 
L 315.284349 242.669187 
L 316.915779 241.435549 
L 318.547209 243.896063 
L 320.178639 243.151308 
L 321.810069 242.53778 
L 323.441498 244.462517 
L 325.072928 247.213275 
L 326.704358 242.087861 
L 328.335788 239.242781 
L 329.967218 242.779976 
L 331.598648 244.381869 
L 333.230078 243.848708 
L 336.492937 242.451849 
L 338.124367 243.275756 
L 339.755797 242.867346 
L 341.387227 239.547103 
L 343.018657 238.899966 
L 344.650087 242.839478 
L 346.281517 241.512997 
L 347.912947 238.238233 
L 349.544376 239.946184 
L 351.175806 239.691998 
L 352.807236 243.830311 
L 354.438666 239.109949 
L 356.070096 237.896129 
L 357.701526 242.30192 
L 359.332956 239.22408 
L 360.964386 236.939221 
L 362.595815 240.633361 
L 364.227245 243.068854 
L 365.858675 244.065297 
L 367.490105 242.412839 
L 369.121535 242.947141 
L 370.752965 246.029046 
L 372.384395 243.21115 
L 374.015825 242.955067 
L 375.647254 243.809565 
L 377.278684 242.300954 
L 378.910114 245.409833 
L 380.541544 244.166855 
L 382.172974 240.399966 
L 383.804404 243.862361 
L 385.435834 241.352005 
L 387.067264 243.977954 
L 388.698693 243.784529 
L 390.330123 243.890761 
L 391.961553 246.160242 
L 393.592983 240.145764 
L 395.224413 243.501331 
L 396.855843 244.013409 
L 398.487273 248.102831 
L 398.487273 248.102831 
" clip-path="url(#pb4c29f4eec)" style="fill: none; stroke: #0000ff; stroke-width: 1.5; stroke-linecap: square"/>
   </g>
   <g id="line2d_30">
    <path d="M 73.832727 294.526052 
L 75.464157 295.488 
L 77.095587 285.271778 
L 78.727017 278.495541 
L 80.358447 280.062778 
L 81.989877 276.233304 
L 83.621307 271.442234 
L 85.252736 268.122322 
L 86.884166 269.527774 
L 88.515596 268.333211 
L 90.147026 272.582413 
L 91.778456 269.583803 
L 93.409886 271.090609 
L 95.041316 271.028676 
L 96.672746 269.025745 
L 98.304175 266.584695 
L 99.935605 268.365769 
L 101.567035 265.960739 
L 103.198465 271.3387 
L 104.829895 268.363591 
L 106.461325 269.978603 
L 108.092755 264.848876 
L 109.724185 269.098757 
L 111.355614 269.54836 
L 112.987044 269.419463 
L 114.618474 271.873776 
L 116.249904 272.865483 
L 117.881334 272.03411 
L 119.512764 268.651168 
L 121.144194 271.947179 
L 122.775624 271.46287 
L 124.407053 274.024967 
L 126.038483 269.32094 
L 127.669913 268.519216 
L 129.301343 275.906964 
L 130.932773 272.463324 
L 132.564203 271.824228 
L 134.195633 271.656495 
L 135.827063 270.235173 
L 137.458492 267.411227 
L 139.089922 266.852296 
L 140.721352 267.940163 
L 142.352782 270.969932 
L 143.984212 265.493885 
L 145.615642 272.202005 
L 147.247072 272.153052 
L 148.878502 264.423122 
L 150.509931 266.788783 
L 152.141361 266.710425 
L 153.772791 274.126007 
L 155.404221 264.43837 
L 157.035651 264.99255 
L 158.667081 274.056348 
L 160.298511 270.953413 
L 161.929941 271.103187 
L 163.56137 273.773417 
L 165.1928 271.42227 
L 166.82423 274.703085 
L 168.45566 278.493378 
L 170.08709 279.358172 
L 171.71852 276.20149 
L 173.34995 274.612844 
L 174.98138 276.527801 
L 176.61281 276.495951 
L 178.244239 270.923062 
L 181.507099 274.008815 
L 184.769959 275.081206 
L 186.401389 276.431128 
L 188.032819 279.106466 
L 191.295678 274.856819 
L 192.927108 273.345862 
L 194.558538 270.923291 
L 196.189968 274.456333 
L 197.821398 275.565923 
L 199.452828 272.912821 
L 201.084258 273.515025 
L 202.715688 273.237743 
L 204.347117 272.036036 
L 205.978547 274.902872 
L 207.609977 270.247222 
L 209.241407 269.570754 
L 210.872837 270.928142 
L 212.504267 272.686565 
L 214.135697 269.623071 
L 215.767127 277.293701 
L 217.398556 276.683459 
L 219.029986 272.065404 
L 220.661416 274.801536 
L 222.292846 274.589142 
L 223.924276 281.302072 
L 227.187136 272.783939 
L 228.818566 276.052743 
L 230.449995 273.239731 
L 232.081425 280.112649 
L 233.712855 275.078873 
L 235.344285 275.553656 
L 236.975715 270.09531 
L 238.607145 279.452568 
L 240.238575 277.503998 
L 241.870005 274.192879 
L 243.501434 268.532089 
L 245.132864 276.522913 
L 246.764294 275.929727 
L 248.395724 270.926645 
L 250.027154 276.167117 
L 251.658584 273.976333 
L 253.290014 268.518543 
L 254.921444 272.11326 
L 256.552873 272.328872 
L 258.184303 270.544549 
L 259.815733 269.600341 
L 261.447163 276.419487 
L 263.078593 280.280787 
L 264.710023 275.114356 
L 266.341453 278.454366 
L 267.972883 275.350374 
L 269.604312 267.552049 
L 271.235742 277.502841 
L 272.867172 277.813711 
L 274.498602 277.674913 
L 276.130032 272.372971 
L 277.761462 277.743471 
L 279.392892 277.814374 
L 281.024322 280.824784 
L 282.655751 277.651614 
L 284.287181 281.978068 
L 285.918611 274.542224 
L 287.550041 278.290216 
L 289.181471 279.43075 
L 290.812901 278.873972 
L 292.444331 284.15356 
L 294.075761 274.017964 
L 295.70719 273.223089 
L 297.33862 273.630592 
L 298.97005 271.397935 
L 300.60148 271.871007 
L 302.23291 271.237137 
L 303.86434 272.669671 
L 305.49577 268.53903 
L 307.1272 277.961842 
L 308.75863 275.916515 
L 310.390059 280.435454 
L 312.021489 275.281033 
L 313.652919 278.012008 
L 315.284349 276.668289 
L 316.915779 275.163883 
L 318.547209 277.862807 
L 320.178639 277.063048 
L 321.810069 282.951129 
L 323.441498 283.142906 
L 325.072928 288.10558 
L 326.704358 281.36821 
L 328.335788 276.93538 
L 329.967218 281.528666 
L 331.598648 284.198993 
L 333.230078 284.927728 
L 334.861508 285.340358 
L 336.492937 282.074865 
L 338.124367 283.660596 
L 339.755797 282.749365 
L 341.387227 278.372229 
L 343.018657 278.819477 
L 344.650087 282.539847 
L 347.912947 274.991751 
L 349.544376 276.87559 
L 351.175806 276.815799 
L 352.807236 283.276994 
L 354.438666 277.37507 
L 356.070096 276.552422 
L 357.701526 279.433618 
L 359.332956 276.224363 
L 360.964386 277.677925 
L 362.595815 278.828521 
L 364.227245 281.435145 
L 365.858675 284.576558 
L 367.490105 282.591831 
L 369.121535 288.534506 
L 370.752965 285.906038 
L 372.384395 281.462092 
L 374.015825 279.914562 
L 375.647254 284.972048 
L 377.278684 280.133964 
L 378.910114 285.615725 
L 380.541544 282.373468 
L 382.172974 277.974669 
L 383.804404 283.382499 
L 385.435834 280.825927 
L 387.067264 284.639146 
L 388.698693 283.129928 
L 390.330123 283.724183 
L 391.961553 286.786281 
L 393.592983 280.91833 
L 395.224413 283.266474 
L 396.855843 283.004934 
L 398.487273 288.216468 
L 398.487273 288.216468 
" clip-path="url(#pb4c29f4eec)" style="fill: none; stroke-dasharray: 9.6,2.4,1.5,2.4; stroke-dashoffset: 0; stroke: #008000; stroke-width: 1.5"/>
   </g>
   <g id="line2d_31">
    <path d="M 73.832727 236.964124 
L 75.464157 235.607324 
L 77.095587 228.266592 
L 78.727017 229.036862 
L 80.358447 229.353907 
L 81.989877 228.474822 
L 83.621307 224.404208 
L 85.252736 224.014176 
L 86.884166 225.402544 
L 88.515596 224.272695 
L 90.147026 225.668392 
L 91.778456 224.047425 
L 93.409886 223.769721 
L 95.041316 220.988046 
L 96.672746 222.254589 
L 98.304175 220.81391 
L 99.935605 222.641405 
L 101.567035 220.095639 
L 103.198465 221.778382 
L 104.829895 222.375951 
L 106.461325 222.261605 
L 108.092755 221.34953 
L 109.724185 221.830306 
L 111.355614 221.154375 
L 112.987044 221.175768 
L 114.618474 220.463041 
L 116.249904 225.046521 
L 117.881334 225.593306 
L 119.512764 221.448459 
L 121.144194 220.76319 
L 122.775624 219.68313 
L 124.407053 221.33841 
L 126.038483 218.629042 
L 127.669913 218.964206 
L 129.301343 222.790791 
L 130.932773 218.683391 
L 132.564203 222.702808 
L 134.195633 219.776949 
L 135.827063 221.757913 
L 137.458492 219.385001 
L 139.089922 219.314518 
L 140.721352 222.703714 
L 142.352782 219.170696 
L 143.984212 220.226807 
L 147.247072 223.719066 
L 148.878502 223.248016 
L 150.509931 225.565837 
L 152.141361 223.703721 
L 153.772791 227.788991 
L 155.404221 224.270869 
L 157.035651 225.749394 
L 158.667081 213.350618 
L 160.298511 215.978518 
L 161.929941 216.607697 
L 163.56137 216.44197 
L 165.1928 212.896547 
L 168.45566 220.144242 
L 170.08709 218.159491 
L 171.71852 217.775339 
L 173.34995 217.884472 
L 174.98138 218.13308 
L 176.61281 218.228264 
L 178.244239 216.177482 
L 179.875669 217.457512 
L 181.507099 215.564579 
L 183.138529 215.476009 
L 184.769959 215.013581 
L 186.401389 214.073599 
L 188.032819 216.281398 
L 189.664249 217.474412 
L 191.295678 215.899376 
L 192.927108 217.767374 
L 194.558538 217.035298 
L 196.189968 219.006487 
L 197.821398 217.726217 
L 199.452828 218.081538 
L 201.084258 216.555897 
L 202.715688 217.874955 
L 204.347117 215.330995 
L 209.241407 217.453365 
L 210.872837 216.81043 
L 212.504267 217.540622 
L 214.135697 214.910678 
L 215.767127 214.948803 
L 217.398556 214.446598 
L 219.029986 213.677185 
L 220.661416 215.279242 
L 222.292846 216.294639 
L 223.924276 215.402691 
L 225.555706 216.44235 
L 227.187136 215.169773 
L 228.818566 215.515665 
L 230.449995 214.262672 
L 232.081425 217.433822 
L 233.712855 215.33762 
L 235.344285 217.598614 
L 236.975715 212.43624 
L 238.607145 216.195072 
L 240.238575 218.240924 
L 241.870005 218.792344 
L 243.501434 216.126404 
L 245.132864 218.911561 
L 246.764294 217.708075 
L 248.395724 212.128459 
L 250.027154 217.931639 
L 251.658584 216.814634 
L 253.290014 216.067356 
L 254.921444 216.05214 
L 256.552873 214.68214 
L 258.184303 216.01811 
L 259.815733 214.805276 
L 261.447163 218.309494 
L 263.078593 219.766604 
L 264.710023 217.336174 
L 266.341453 218.510384 
L 267.972883 218.714406 
L 269.604312 216.302165 
L 271.235742 218.139475 
L 272.867172 218.854302 
L 274.498602 217.335583 
L 276.130032 216.55363 
L 277.761462 217.623392 
L 279.392892 218.96255 
L 281.024322 219.582036 
L 282.655751 218.320421 
L 284.287181 221.2226 
L 285.918611 216.625468 
L 287.550041 219.271033 
L 289.181471 220.617527 
L 290.812901 218.715687 
L 292.444331 220.072945 
L 294.075761 218.005588 
L 295.70719 216.338884 
L 297.33862 217.654476 
L 298.97005 217.078172 
L 300.60148 216.692784 
L 302.23291 215.472582 
L 303.86434 214.964028 
L 305.49577 206.032319 
L 307.1272 209.338031 
L 308.75863 209.127262 
L 310.390059 209.56594 
L 312.021489 209.213418 
L 313.652919 207.29092 
L 315.284349 208.670085 
L 316.915779 207.707215 
L 318.547209 209.929319 
L 320.178639 209.239568 
L 321.810069 202.12443 
L 323.441498 205.782128 
L 325.072928 206.32097 
L 326.704358 202.807511 
L 328.335788 201.550183 
L 329.967218 204.031285 
L 331.598648 204.564745 
L 334.861508 200.854799 
L 336.492937 202.828833 
L 339.755797 202.985328 
L 341.387227 200.721977 
L 343.018657 198.980456 
L 344.650087 203.139109 
L 346.281517 204.204314 
L 347.912947 201.484716 
L 349.544376 203.016779 
L 351.175806 202.568196 
L 352.807236 204.383628 
L 354.438666 200.844829 
L 356.070096 199.239837 
L 357.701526 205.170223 
L 359.332956 202.223797 
L 360.964386 196.200517 
L 362.595815 202.438201 
L 364.227245 204.702562 
L 365.858675 203.554037 
L 367.490105 202.233848 
L 369.121535 197.359776 
L 370.752965 206.152054 
L 372.384395 204.960208 
L 374.015825 205.995571 
L 375.647254 202.647082 
L 377.278684 204.467944 
L 380.541544 205.960243 
L 382.172974 202.825263 
L 383.804404 204.342222 
L 385.435834 201.878084 
L 387.067264 203.316763 
L 388.698693 204.43913 
L 390.330123 204.05734 
L 391.961553 205.534203 
L 393.592983 199.373198 
L 395.224413 203.736189 
L 396.855843 205.021884 
L 398.487273 207.989195 
L 398.487273 207.989195 
" clip-path="url(#pb4c29f4eec)" style="fill: none; stroke-dasharray: 9.6,2.4,1.5,2.4; stroke-dashoffset: 0; stroke: #008000; stroke-width: 1.5"/>
   </g>
   <g id="line2d_32">
    <path d="M 73.832727 187.813455 
L 75.464157 187.673697 
L 77.095587 186.113071 
L 81.989877 186.113071 
L 83.621307 185.900523 
L 106.461325 185.87723 
L 108.092755 185.388078 
L 137.458492 185.388078 
L 139.089922 184.334073 
L 142.352782 184.334073 
L 143.984212 182.592926 
L 157.035651 182.592926 
L 158.667081 54.866587 
L 367.490105 54.866587 
L 369.121535 53.568 
L 398.487273 53.568 
L 398.487273 53.568 
" clip-path="url(#pb4c29f4eec)" style="fill: none; stroke: #ff0000; stroke-width: 1.5; stroke-linecap: square"/>
   </g>
   <g id="patch_3">
    <path d="M 57.6 307.584 
L 57.6 41.472 
" style="fill: none; stroke: #000000; stroke-width: 0.8; stroke-linejoin: miter; stroke-linecap: square"/>
   </g>
   <g id="patch_4">
    <path d="M 414.72 307.584 
L 414.72 41.472 
" style="fill: none; stroke: #000000; stroke-width: 0.8; stroke-linejoin: miter; stroke-linecap: square"/>
   </g>
   <g id="patch_5">
    <path d="M 57.6 307.584 
L 414.72 307.584 
" style="fill: none; stroke: #000000; stroke-width: 0.8; stroke-linejoin: miter; stroke-linecap: square"/>
   </g>
   <g id="patch_6">
    <path d="M 57.6 41.472 
L 414.72 41.472 
" style="fill: none; stroke: #000000; stroke-width: 0.8; stroke-linejoin: miter; stroke-linecap: square"/>
   </g>
   <g id="text_17">
    <!-- Population's average and best fitness -->
    <g transform="translate(123.529687 35.472) scale(0.12 -0.12)">
     <defs>
      <path id="DejaVuSans-50" d="M 1259 4147 
L 1259 2394 
L 2053 2394 
Q 2494 2394 2734 2622 
Q 2975 2850 2975 3272 
Q 2975 3691 2734 3919 
Q 2494 4147 2053 4147 
L 1259 4147 
z
M 628 4666 
L 2053 4666 
Q 2838 4666 3239 4311 
Q 3641 3956 3641 3272 
Q 3641 2581 3239 2228 
Q 2838 1875 2053 1875 
L 1259 1875 
L 1259 0 
L 628 0 
L 628 4666 
z
" transform="scale(0.015625)"/>
      <path id="DejaVuSans-70" d="M 1159 525 
L 1159 -1331 
L 581 -1331 
L 581 3500 
L 1159 3500 
L 1159 2969 
Q 1341 3281 1617 3432 
Q 1894 3584 2278 3584 
Q 2916 3584 3314 3078 
Q 3713 2572 3713 1747 
Q 3713 922 3314 415 
Q 2916 -91 2278 -91 
Q 1894 -91 1617 61 
Q 1341 213 1159 525 
z
M 3116 1747 
Q 3116 2381 2855 2742 
Q 2594 3103 2138 3103 
Q 1681 3103 1420 2742 
Q 1159 2381 1159 1747 
Q 1159 1113 1420 752 
Q 1681 391 2138 391 
Q 2594 391 2855 752 
Q 3116 1113 3116 1747 
z
" transform="scale(0.015625)"/>
      <path id="DejaVuSans-75" d="M 544 1381 
L 544 3500 
L 1119 3500 
L 1119 1403 
Q 1119 906 1312 657 
Q 1506 409 1894 409 
Q 2359 409 2629 706 
Q 2900 1003 2900 1516 
L 2900 3500 
L 3475 3500 
L 3475 0 
L 2900 0 
L 2900 538 
Q 2691 219 2414 64 
Q 2138 -91 1772 -91 
Q 1169 -91 856 284 
Q 544 659 544 1381 
z
M 1991 3584 
L 1991 3584 
z
" transform="scale(0.015625)"/>
      <path id="DejaVuSans-6c" d="M 603 4863 
L 1178 4863 
L 1178 0 
L 603 0 
L 603 4863 
z
" transform="scale(0.015625)"/>
      <path id="DejaVuSans-27" d="M 1147 4666 
L 1147 2931 
L 616 2931 
L 616 4666 
L 1147 4666 
z
" transform="scale(0.015625)"/>
      <path id="DejaVuSans-20" transform="scale(0.015625)"/>
      <path id="DejaVuSans-76" d="M 191 3500 
L 800 3500 
L 1894 563 
L 2988 3500 
L 3597 3500 
L 2284 0 
L 1503 0 
L 191 3500 
z
" transform="scale(0.015625)"/>
      <path id="DejaVuSans-67" d="M 2906 1791 
Q 2906 2416 2648 2759 
Q 2391 3103 1925 3103 
Q 1463 3103 1205 2759 
Q 947 2416 947 1791 
Q 947 1169 1205 825 
Q 1463 481 1925 481 
Q 2391 481 2648 825 
Q 2906 1169 2906 1791 
z
M 3481 434 
Q 3481 -459 3084 -895 
Q 2688 -1331 1869 -1331 
Q 1566 -1331 1297 -1286 
Q 1028 -1241 775 -1147 
L 775 -588 
Q 1028 -725 1275 -790 
Q 1522 -856 1778 -856 
Q 2344 -856 2625 -561 
Q 2906 -266 2906 331 
L 2906 616 
Q 2728 306 2450 153 
Q 2172 0 1784 0 
Q 1141 0 747 490 
Q 353 981 353 1791 
Q 353 2603 747 3093 
Q 1141 3584 1784 3584 
Q 2172 3584 2450 3431 
Q 2728 3278 2906 2969 
L 2906 3500 
L 3481 3500 
L 3481 434 
z
" transform="scale(0.015625)"/>
      <path id="DejaVuSans-64" d="M 2906 2969 
L 2906 4863 
L 3481 4863 
L 3481 0 
L 2906 0 
L 2906 525 
Q 2725 213 2448 61 
Q 2172 -91 1784 -91 
Q 1150 -91 751 415 
Q 353 922 353 1747 
Q 353 2572 751 3078 
Q 1150 3584 1784 3584 
Q 2172 3584 2448 3432 
Q 2725 3281 2906 2969 
z
M 947 1747 
Q 947 1113 1208 752 
Q 1469 391 1925 391 
Q 2381 391 2643 752 
Q 2906 1113 2906 1747 
Q 2906 2381 2643 2742 
Q 2381 3103 1925 3103 
Q 1469 3103 1208 2742 
Q 947 2381 947 1747 
z
" transform="scale(0.015625)"/>
      <path id="DejaVuSans-62" d="M 3116 1747 
Q 3116 2381 2855 2742 
Q 2594 3103 2138 3103 
Q 1681 3103 1420 2742 
Q 1159 2381 1159 1747 
Q 1159 1113 1420 752 
Q 1681 391 2138 391 
Q 2594 391 2855 752 
Q 3116 1113 3116 1747 
z
M 1159 2969 
Q 1341 3281 1617 3432 
Q 1894 3584 2278 3584 
Q 2916 3584 3314 3078 
Q 3713 2572 3713 1747 
Q 3713 922 3314 415 
Q 2916 -91 2278 -91 
Q 1894 -91 1617 61 
Q 1341 213 1159 525 
L 1159 0 
L 581 0 
L 581 4863 
L 1159 4863 
L 1159 2969 
z
" transform="scale(0.015625)"/>
      <path id="DejaVuSans-66" d="M 2375 4863 
L 2375 4384 
L 1825 4384 
Q 1516 4384 1395 4259 
Q 1275 4134 1275 3809 
L 1275 3500 
L 2222 3500 
L 2222 3053 
L 1275 3053 
L 1275 0 
L 697 0 
L 697 3053 
L 147 3053 
L 147 3500 
L 697 3500 
L 697 3744 
Q 697 4328 969 4595 
Q 1241 4863 1831 4863 
L 2375 4863 
z
" transform="scale(0.015625)"/>
     </defs>
     <use xlink:href="#DejaVuSans-50"/>
     <use xlink:href="#DejaVuSans-6f" x="56.677734"/>
     <use xlink:href="#DejaVuSans-70" x="117.859375"/>
     <use xlink:href="#DejaVuSans-75" x="181.335938"/>
     <use xlink:href="#DejaVuSans-6c" x="244.714844"/>
     <use xlink:href="#DejaVuSans-61" x="272.498047"/>
     <use xlink:href="#DejaVuSans-74" x="333.777344"/>
     <use xlink:href="#DejaVuSans-69" x="372.986328"/>
     <use xlink:href="#DejaVuSans-6f" x="400.769531"/>
     <use xlink:href="#DejaVuSans-6e" x="461.951172"/>
     <use xlink:href="#DejaVuSans-27" x="525.330078"/>
     <use xlink:href="#DejaVuSans-73" x="552.820312"/>
     <use xlink:href="#DejaVuSans-20" x="604.919922"/>
     <use xlink:href="#DejaVuSans-61" x="636.707031"/>
     <use xlink:href="#DejaVuSans-76" x="697.986328"/>
     <use xlink:href="#DejaVuSans-65" x="757.166016"/>
     <use xlink:href="#DejaVuSans-72" x="818.689453"/>
     <use xlink:href="#DejaVuSans-61" x="859.802734"/>
     <use xlink:href="#DejaVuSans-67" x="921.082031"/>
     <use xlink:href="#DejaVuSans-65" x="984.558594"/>
     <use xlink:href="#DejaVuSans-20" x="1046.082031"/>
     <use xlink:href="#DejaVuSans-61" x="1077.869141"/>
     <use xlink:href="#DejaVuSans-6e" x="1139.148438"/>
     <use xlink:href="#DejaVuSans-64" x="1202.527344"/>
     <use xlink:href="#DejaVuSans-20" x="1266.003906"/>
     <use xlink:href="#DejaVuSans-62" x="1297.791016"/>
     <use xlink:href="#DejaVuSans-65" x="1361.267578"/>
     <use xlink:href="#DejaVuSans-73" x="1422.791016"/>
     <use xlink:href="#DejaVuSans-74" x="1474.890625"/>
     <use xlink:href="#DejaVuSans-20" x="1514.099609"/>
     <use xlink:href="#DejaVuSans-66" x="1545.886719"/>
     <use xlink:href="#DejaVuSans-69" x="1581.091797"/>
     <use xlink:href="#DejaVuSans-74" x="1608.875"/>
     <use xlink:href="#DejaVuSans-6e" x="1648.083984"/>
     <use xlink:href="#DejaVuSans-65" x="1711.462891"/>
     <use xlink:href="#DejaVuSans-73" x="1772.986328"/>
     <use xlink:href="#DejaVuSans-73" x="1825.085938"/>
    </g>
   </g>
   <g id="legend_1">
    <g id="patch_7">
     <path d="M 64.6 108.1845 
L 137.540625 108.1845 
Q 139.540625 108.1845 139.540625 106.1845 
L 139.540625 48.472 
Q 139.540625 46.472 137.540625 46.472 
L 64.6 46.472 
Q 62.6 46.472 62.6 48.472 
L 62.6 106.1845 
Q 62.6 108.1845 64.6 108.1845 
z
" style="fill: #ffffff; opacity: 0.8; stroke: #cccccc; stroke-linejoin: miter"/>
    </g>
    <g id="line2d_33">
     <path d="M 66.6 54.570438 
L 76.6 54.570438 
L 86.6 54.570438 
" style="fill: none; stroke: #0000ff; stroke-width: 1.5; stroke-linecap: square"/>
    </g>
    <g id="text_18">
     <!-- average -->
     <g transform="translate(94.6 58.070438) scale(0.1 -0.1)">
      <use xlink:href="#DejaVuSans-61"/>
      <use xlink:href="#DejaVuSans-76" x="61.279297"/>
      <use xlink:href="#DejaVuSans-65" x="120.458984"/>
      <use xlink:href="#DejaVuSans-72" x="181.982422"/>
      <use xlink:href="#DejaVuSans-61" x="223.095703"/>
      <use xlink:href="#DejaVuSans-67" x="284.375"/>
      <use xlink:href="#DejaVuSans-65" x="347.851562"/>
     </g>
    </g>
    <g id="line2d_34">
     <path d="M 66.6 69.248563 
L 76.6 69.248563 
L 86.6 69.248563 
" style="fill: none; stroke-dasharray: 9.6,2.4,1.5,2.4; stroke-dashoffset: 0; stroke: #008000; stroke-width: 1.5"/>
    </g>
    <g id="text_19">
     <!-- -1 sd -->
     <g transform="translate(94.6 72.748563) scale(0.1 -0.1)">
      <defs>
       <path id="DejaVuSans-2d" d="M 313 2009 
L 1997 2009 
L 1997 1497 
L 313 1497 
L 313 2009 
z
" transform="scale(0.015625)"/>
      </defs>
      <use xlink:href="#DejaVuSans-2d"/>
      <use xlink:href="#DejaVuSans-31" x="36.083984"/>
      <use xlink:href="#DejaVuSans-20" x="99.707031"/>
      <use xlink:href="#DejaVuSans-73" x="131.494141"/>
      <use xlink:href="#DejaVuSans-64" x="183.59375"/>
     </g>
    </g>
    <g id="line2d_35">
     <path d="M 66.6 83.926688 
L 76.6 83.926688 
L 86.6 83.926688 
" style="fill: none; stroke-dasharray: 9.6,2.4,1.5,2.4; stroke-dashoffset: 0; stroke: #008000; stroke-width: 1.5"/>
    </g>
    <g id="text_20">
     <!-- +1 sd -->
     <g transform="translate(94.6 87.426688) scale(0.1 -0.1)">
      <defs>
       <path id="DejaVuSans-2b" d="M 2944 4013 
L 2944 2272 
L 4684 2272 
L 4684 1741 
L 2944 1741 
L 2944 0 
L 2419 0 
L 2419 1741 
L 678 1741 
L 678 2272 
L 2419 2272 
L 2419 4013 
L 2944 4013 
z
" transform="scale(0.015625)"/>
      </defs>
      <use xlink:href="#DejaVuSans-2b"/>
      <use xlink:href="#DejaVuSans-31" x="83.789062"/>
      <use xlink:href="#DejaVuSans-20" x="147.412109"/>
      <use xlink:href="#DejaVuSans-73" x="179.199219"/>
      <use xlink:href="#DejaVuSans-64" x="231.298828"/>
     </g>
    </g>
    <g id="line2d_36">
     <path d="M 66.6 98.604813 
L 76.6 98.604813 
L 86.6 98.604813 
" style="fill: none; stroke: #ff0000; stroke-width: 1.5; stroke-linecap: square"/>
    </g>
    <g id="text_21">
     <!-- best -->
     <g transform="translate(94.6 102.104813) scale(0.1 -0.1)">
      <use xlink:href="#DejaVuSans-62"/>
      <use xlink:href="#DejaVuSans-65" x="63.476562"/>
      <use xlink:href="#DejaVuSans-73" x="125"/>
      <use xlink:href="#DejaVuSans-74" x="177.099609"/>
     </g>
    </g>
   </g>
  </g>
 </g>
 <defs>
  <clipPath id="pb4c29f4eec">
   <rect x="57.6" y="41.472" width="357.12" height="266.112"/>
  </clipPath>
 </defs>
</svg>
