<?xml version="1.0" encoding="utf-8" standalone="no"?>
<!DOCTYPE svg PUBLIC "-//W3C//DTD SVG 1.1//EN"
  "http://www.w3.org/Graphics/SVG/1.1/DTD/svg11.dtd">
<svg xmlns:xlink="http://www.w3.org/1999/xlink" width="460.8pt" height="345.6pt" viewBox="0 0 460.8 345.6" xmlns="http://www.w3.org/2000/svg" version="1.1">
 <metadata>
  <rdf:RDF xmlns:dc="http://purl.org/dc/elements/1.1/" xmlns:cc="http://creativecommons.org/ns#" xmlns:rdf="http://www.w3.org/1999/02/22-rdf-syntax-ns#">
   <cc:Work>
    <dc:type rdf:resource="http://purl.org/dc/dcmitype/StillImage"/>
    <dc:date>2024-08-02T14:35:06.190753</dc:date>
    <dc:format>image/svg+xml</dc:format>
    <dc:creator>
     <cc:Agent>
      <dc:title>Matplotlib v3.8.4, https://matplotlib.org/</dc:title>
     </cc:Agent>
    </dc:creator>
   </cc:Work>
  </rdf:RDF>
 </metadata>
 <defs>
  <style type="text/css">*{stroke-linejoin: round; stroke-linecap: butt}</style>
 </defs>
 <g id="figure_1">
  <g id="patch_1">
   <path d="M 0 345.6 
L 460.8 345.6 
L 460.8 0 
L 0 0 
z
" style="fill: #ffffff"/>
  </g>
  <g id="axes_1">
   <g id="patch_2">
    <path d="M 57.6 307.584 
L 414.72 307.584 
L 414.72 41.472 
L 57.6 41.472 
z
" style="fill: #ffffff"/>
   </g>
   <g id="matplotlib.axis_1">
    <g id="xtick_1">
     <g id="line2d_1">
      <path d="M 73.832727 307.584 
L 73.832727 41.472 
" clip-path="url(#p3a861d23c4)" style="fill: none; stroke: #b0b0b0; stroke-width: 0.8; stroke-linecap: square"/>
     </g>
     <g id="line2d_2">
      <defs>
       <path id="me6d53f0e66" d="M 0 0 
L 0 3.5 
" style="stroke: #000000; stroke-width: 0.8"/>
      </defs>
      <g>
       <use xlink:href="#me6d53f0e66" x="73.832727" y="307.584" style="stroke: #000000; stroke-width: 0.8"/>
      </g>
     </g>
     <g id="text_1">
      <!-- 0 -->
      <g transform="translate(70.651477 322.182437) scale(0.1 -0.1)">
       <defs>
        <path id="DejaVuSans-30" d="M 2034 4250 
Q 1547 4250 1301 3770 
Q 1056 3291 1056 2328 
Q 1056 1369 1301 889 
Q 1547 409 2034 409 
Q 2525 409 2770 889 
Q 3016 1369 3016 2328 
Q 3016 3291 2770 3770 
Q 2525 4250 2034 4250 
z
M 2034 4750 
Q 2819 4750 3233 4129 
Q 3647 3509 3647 2328 
Q 3647 1150 3233 529 
Q 2819 -91 2034 -91 
Q 1250 -91 836 529 
Q 422 1150 422 2328 
Q 422 3509 836 4129 
Q 1250 4750 2034 4750 
z
" transform="scale(0.015625)"/>
       </defs>
       <use xlink:href="#DejaVuSans-30"/>
      </g>
     </g>
    </g>
    <g id="xtick_2">
     <g id="line2d_3">
      <path d="M 114.618474 307.584 
L 114.618474 41.472 
" clip-path="url(#p3a861d23c4)" style="fill: none; stroke: #b0b0b0; stroke-width: 0.8; stroke-linecap: square"/>
     </g>
     <g id="line2d_4">
      <g>
       <use xlink:href="#me6d53f0e66" x="114.618474" y="307.584" style="stroke: #000000; stroke-width: 0.8"/>
      </g>
     </g>
     <g id="text_2">
      <!-- 25 -->
      <g transform="translate(108.255974 322.182437) scale(0.1 -0.1)">
       <defs>
        <path id="DejaVuSans-32" d="M 1228 531 
L 3431 531 
L 3431 0 
L 469 0 
L 469 531 
Q 828 903 1448 1529 
Q 2069 2156 2228 2338 
Q 2531 2678 2651 2914 
Q 2772 3150 2772 3378 
Q 2772 3750 2511 3984 
Q 2250 4219 1831 4219 
Q 1534 4219 1204 4116 
Q 875 4013 500 3803 
L 500 4441 
Q 881 4594 1212 4672 
Q 1544 4750 1819 4750 
Q 2544 4750 2975 4387 
Q 3406 4025 3406 3419 
Q 3406 3131 3298 2873 
Q 3191 2616 2906 2266 
Q 2828 2175 2409 1742 
Q 1991 1309 1228 531 
z
" transform="scale(0.015625)"/>
        <path id="DejaVuSans-35" d="M 691 4666 
L 3169 4666 
L 3169 4134 
L 1269 4134 
L 1269 2991 
Q 1406 3038 1543 3061 
Q 1681 3084 1819 3084 
Q 2600 3084 3056 2656 
Q 3513 2228 3513 1497 
Q 3513 744 3044 326 
Q 2575 -91 1722 -91 
Q 1428 -91 1123 -41 
Q 819 9 494 109 
L 494 744 
Q 775 591 1075 516 
Q 1375 441 1709 441 
Q 2250 441 2565 725 
Q 2881 1009 2881 1497 
Q 2881 1984 2565 2268 
Q 2250 2553 1709 2553 
Q 1456 2553 1204 2497 
Q 953 2441 691 2322 
L 691 4666 
z
" transform="scale(0.015625)"/>
       </defs>
       <use xlink:href="#DejaVuSans-32"/>
       <use xlink:href="#DejaVuSans-35" x="63.623047"/>
      </g>
     </g>
    </g>
    <g id="xtick_3">
     <g id="line2d_5">
      <path d="M 155.404221 307.584 
L 155.404221 41.472 
" clip-path="url(#p3a861d23c4)" style="fill: none; stroke: #b0b0b0; stroke-width: 0.8; stroke-linecap: square"/>
     </g>
     <g id="line2d_6">
      <g>
       <use xlink:href="#me6d53f0e66" x="155.404221" y="307.584" style="stroke: #000000; stroke-width: 0.8"/>
      </g>
     </g>
     <g id="text_3">
      <!-- 50 -->
      <g transform="translate(149.041721 322.182437) scale(0.1 -0.1)">
       <use xlink:href="#DejaVuSans-35"/>
       <use xlink:href="#DejaVuSans-30" x="63.623047"/>
      </g>
     </g>
    </g>
    <g id="xtick_4">
     <g id="line2d_7">
      <path d="M 196.189968 307.584 
L 196.189968 41.472 
" clip-path="url(#p3a861d23c4)" style="fill: none; stroke: #b0b0b0; stroke-width: 0.8; stroke-linecap: square"/>
     </g>
     <g id="line2d_8">
      <g>
       <use xlink:href="#me6d53f0e66" x="196.189968" y="307.584" style="stroke: #000000; stroke-width: 0.8"/>
      </g>
     </g>
     <g id="text_4">
      <!-- 75 -->
      <g transform="translate(189.827468 322.182437) scale(0.1 -0.1)">
       <defs>
        <path id="DejaVuSans-37" d="M 525 4666 
L 3525 4666 
L 3525 4397 
L 1831 0 
L 1172 0 
L 2766 4134 
L 525 4134 
L 525 4666 
z
" transform="scale(0.015625)"/>
       </defs>
       <use xlink:href="#DejaVuSans-37"/>
       <use xlink:href="#DejaVuSans-35" x="63.623047"/>
      </g>
     </g>
    </g>
    <g id="xtick_5">
     <g id="line2d_9">
      <path d="M 236.975715 307.584 
L 236.975715 41.472 
" clip-path="url(#p3a861d23c4)" style="fill: none; stroke: #b0b0b0; stroke-width: 0.8; stroke-linecap: square"/>
     </g>
     <g id="line2d_10">
      <g>
       <use xlink:href="#me6d53f0e66" x="236.975715" y="307.584" style="stroke: #000000; stroke-width: 0.8"/>
      </g>
     </g>
     <g id="text_5">
      <!-- 100 -->
      <g transform="translate(227.431965 322.182437) scale(0.1 -0.1)">
       <defs>
        <path id="DejaVuSans-31" d="M 794 531 
L 1825 531 
L 1825 4091 
L 703 3866 
L 703 4441 
L 1819 4666 
L 2450 4666 
L 2450 531 
L 3481 531 
L 3481 0 
L 794 0 
L 794 531 
z
" transform="scale(0.015625)"/>
       </defs>
       <use xlink:href="#DejaVuSans-31"/>
       <use xlink:href="#DejaVuSans-30" x="63.623047"/>
       <use xlink:href="#DejaVuSans-30" x="127.246094"/>
      </g>
     </g>
    </g>
    <g id="xtick_6">
     <g id="line2d_11">
      <path d="M 277.761462 307.584 
L 277.761462 41.472 
" clip-path="url(#p3a861d23c4)" style="fill: none; stroke: #b0b0b0; stroke-width: 0.8; stroke-linecap: square"/>
     </g>
     <g id="line2d_12">
      <g>
       <use xlink:href="#me6d53f0e66" x="277.761462" y="307.584" style="stroke: #000000; stroke-width: 0.8"/>
      </g>
     </g>
     <g id="text_6">
      <!-- 125 -->
      <g transform="translate(268.217712 322.182437) scale(0.1 -0.1)">
       <use xlink:href="#DejaVuSans-31"/>
       <use xlink:href="#DejaVuSans-32" x="63.623047"/>
       <use xlink:href="#DejaVuSans-35" x="127.246094"/>
      </g>
     </g>
    </g>
    <g id="xtick_7">
     <g id="line2d_13">
      <path d="M 318.547209 307.584 
L 318.547209 41.472 
" clip-path="url(#p3a861d23c4)" style="fill: none; stroke: #b0b0b0; stroke-width: 0.8; stroke-linecap: square"/>
     </g>
     <g id="line2d_14">
      <g>
       <use xlink:href="#me6d53f0e66" x="318.547209" y="307.584" style="stroke: #000000; stroke-width: 0.8"/>
      </g>
     </g>
     <g id="text_7">
      <!-- 150 -->
      <g transform="translate(309.003459 322.182437) scale(0.1 -0.1)">
       <use xlink:href="#DejaVuSans-31"/>
       <use xlink:href="#DejaVuSans-35" x="63.623047"/>
       <use xlink:href="#DejaVuSans-30" x="127.246094"/>
      </g>
     </g>
    </g>
    <g id="xtick_8">
     <g id="line2d_15">
      <path d="M 359.332956 307.584 
L 359.332956 41.472 
" clip-path="url(#p3a861d23c4)" style="fill: none; stroke: #b0b0b0; stroke-width: 0.8; stroke-linecap: square"/>
     </g>
     <g id="line2d_16">
      <g>
       <use xlink:href="#me6d53f0e66" x="359.332956" y="307.584" style="stroke: #000000; stroke-width: 0.8"/>
      </g>
     </g>
     <g id="text_8">
      <!-- 175 -->
      <g transform="translate(349.789206 322.182437) scale(0.1 -0.1)">
       <use xlink:href="#DejaVuSans-31"/>
       <use xlink:href="#DejaVuSans-37" x="63.623047"/>
       <use xlink:href="#DejaVuSans-35" x="127.246094"/>
      </g>
     </g>
    </g>
    <g id="xtick_9">
     <g id="line2d_17">
      <path d="M 400.118703 307.584 
L 400.118703 41.472 
" clip-path="url(#p3a861d23c4)" style="fill: none; stroke: #b0b0b0; stroke-width: 0.8; stroke-linecap: square"/>
     </g>
     <g id="line2d_18">
      <g>
       <use xlink:href="#me6d53f0e66" x="400.118703" y="307.584" style="stroke: #000000; stroke-width: 0.8"/>
      </g>
     </g>
     <g id="text_9">
      <!-- 200 -->
      <g transform="translate(390.574953 322.182437) scale(0.1 -0.1)">
       <use xlink:href="#DejaVuSans-32"/>
       <use xlink:href="#DejaVuSans-30" x="63.623047"/>
       <use xlink:href="#DejaVuSans-30" x="127.246094"/>
      </g>
     </g>
    </g>
    <g id="text_10">
     <!-- Generations -->
     <g transform="translate(205.662344 335.860562) scale(0.1 -0.1)">
      <defs>
       <path id="DejaVuSans-47" d="M 3809 666 
L 3809 1919 
L 2778 1919 
L 2778 2438 
L 4434 2438 
L 4434 434 
Q 4069 175 3628 42 
Q 3188 -91 2688 -91 
Q 1594 -91 976 548 
Q 359 1188 359 2328 
Q 359 3472 976 4111 
Q 1594 4750 2688 4750 
Q 3144 4750 3555 4637 
Q 3966 4525 4313 4306 
L 4313 3634 
Q 3963 3931 3569 4081 
Q 3175 4231 2741 4231 
Q 1884 4231 1454 3753 
Q 1025 3275 1025 2328 
Q 1025 1384 1454 906 
Q 1884 428 2741 428 
Q 3075 428 3337 486 
Q 3600 544 3809 666 
z
" transform="scale(0.015625)"/>
       <path id="DejaVuSans-65" d="M 3597 1894 
L 3597 1613 
L 953 1613 
Q 991 1019 1311 708 
Q 1631 397 2203 397 
Q 2534 397 2845 478 
Q 3156 559 3463 722 
L 3463 178 
Q 3153 47 2828 -22 
Q 2503 -91 2169 -91 
Q 1331 -91 842 396 
Q 353 884 353 1716 
Q 353 2575 817 3079 
Q 1281 3584 2069 3584 
Q 2775 3584 3186 3129 
Q 3597 2675 3597 1894 
z
M 3022 2063 
Q 3016 2534 2758 2815 
Q 2500 3097 2075 3097 
Q 1594 3097 1305 2825 
Q 1016 2553 972 2059 
L 3022 2063 
z
" transform="scale(0.015625)"/>
       <path id="DejaVuSans-6e" d="M 3513 2113 
L 3513 0 
L 2938 0 
L 2938 2094 
Q 2938 2591 2744 2837 
Q 2550 3084 2163 3084 
Q 1697 3084 1428 2787 
Q 1159 2491 1159 1978 
L 1159 0 
L 581 0 
L 581 3500 
L 1159 3500 
L 1159 2956 
Q 1366 3272 1645 3428 
Q 1925 3584 2291 3584 
Q 2894 3584 3203 3211 
Q 3513 2838 3513 2113 
z
" transform="scale(0.015625)"/>
       <path id="DejaVuSans-72" d="M 2631 2963 
Q 2534 3019 2420 3045 
Q 2306 3072 2169 3072 
Q 1681 3072 1420 2755 
Q 1159 2438 1159 1844 
L 1159 0 
L 581 0 
L 581 3500 
L 1159 3500 
L 1159 2956 
Q 1341 3275 1631 3429 
Q 1922 3584 2338 3584 
Q 2397 3584 2469 3576 
Q 2541 3569 2628 3553 
L 2631 2963 
z
" transform="scale(0.015625)"/>
       <path id="DejaVuSans-61" d="M 2194 1759 
Q 1497 1759 1228 1600 
Q 959 1441 959 1056 
Q 959 750 1161 570 
Q 1363 391 1709 391 
Q 2188 391 2477 730 
Q 2766 1069 2766 1631 
L 2766 1759 
L 2194 1759 
z
M 3341 1997 
L 3341 0 
L 2766 0 
L 2766 531 
Q 2569 213 2275 61 
Q 1981 -91 1556 -91 
Q 1019 -91 701 211 
Q 384 513 384 1019 
Q 384 1609 779 1909 
Q 1175 2209 1959 2209 
L 2766 2209 
L 2766 2266 
Q 2766 2663 2505 2880 
Q 2244 3097 1772 3097 
Q 1472 3097 1187 3025 
Q 903 2953 641 2809 
L 641 3341 
Q 956 3463 1253 3523 
Q 1550 3584 1831 3584 
Q 2591 3584 2966 3190 
Q 3341 2797 3341 1997 
z
" transform="scale(0.015625)"/>
       <path id="DejaVuSans-74" d="M 1172 4494 
L 1172 3500 
L 2356 3500 
L 2356 3053 
L 1172 3053 
L 1172 1153 
Q 1172 725 1289 603 
Q 1406 481 1766 481 
L 2356 481 
L 2356 0 
L 1766 0 
Q 1100 0 847 248 
Q 594 497 594 1153 
L 594 3053 
L 172 3053 
L 172 3500 
L 594 3500 
L 594 4494 
L 1172 4494 
z
" transform="scale(0.015625)"/>
       <path id="DejaVuSans-69" d="M 603 3500 
L 1178 3500 
L 1178 0 
L 603 0 
L 603 3500 
z
M 603 4863 
L 1178 4863 
L 1178 4134 
L 603 4134 
L 603 4863 
z
" transform="scale(0.015625)"/>
       <path id="DejaVuSans-6f" d="M 1959 3097 
Q 1497 3097 1228 2736 
Q 959 2375 959 1747 
Q 959 1119 1226 758 
Q 1494 397 1959 397 
Q 2419 397 2687 759 
Q 2956 1122 2956 1747 
Q 2956 2369 2687 2733 
Q 2419 3097 1959 3097 
z
M 1959 3584 
Q 2709 3584 3137 3096 
Q 3566 2609 3566 1747 
Q 3566 888 3137 398 
Q 2709 -91 1959 -91 
Q 1206 -91 779 398 
Q 353 888 353 1747 
Q 353 2609 779 3096 
Q 1206 3584 1959 3584 
z
" transform="scale(0.015625)"/>
       <path id="DejaVuSans-73" d="M 2834 3397 
L 2834 2853 
Q 2591 2978 2328 3040 
Q 2066 3103 1784 3103 
Q 1356 3103 1142 2972 
Q 928 2841 928 2578 
Q 928 2378 1081 2264 
Q 1234 2150 1697 2047 
L 1894 2003 
Q 2506 1872 2764 1633 
Q 3022 1394 3022 966 
Q 3022 478 2636 193 
Q 2250 -91 1575 -91 
Q 1294 -91 989 -36 
Q 684 19 347 128 
L 347 722 
Q 666 556 975 473 
Q 1284 391 1588 391 
Q 1994 391 2212 530 
Q 2431 669 2431 922 
Q 2431 1156 2273 1281 
Q 2116 1406 1581 1522 
L 1381 1569 
Q 847 1681 609 1914 
Q 372 2147 372 2553 
Q 372 3047 722 3315 
Q 1072 3584 1716 3584 
Q 2034 3584 2315 3537 
Q 2597 3491 2834 3397 
z
" transform="scale(0.015625)"/>
      </defs>
      <use xlink:href="#DejaVuSans-47"/>
      <use xlink:href="#DejaVuSans-65" x="77.490234"/>
      <use xlink:href="#DejaVuSans-6e" x="139.013672"/>
      <use xlink:href="#DejaVuSans-65" x="202.392578"/>
      <use xlink:href="#DejaVuSans-72" x="263.916016"/>
      <use xlink:href="#DejaVuSans-61" x="305.029297"/>
      <use xlink:href="#DejaVuSans-74" x="366.308594"/>
      <use xlink:href="#DejaVuSans-69" x="405.517578"/>
      <use xlink:href="#DejaVuSans-6f" x="433.300781"/>
      <use xlink:href="#DejaVuSans-6e" x="494.482422"/>
      <use xlink:href="#DejaVuSans-73" x="557.861328"/>
     </g>
    </g>
   </g>
   <g id="matplotlib.axis_2">
    <g id="ytick_1">
     <g id="line2d_19">
      <path d="M 57.6 282.691289 
L 414.72 282.691289 
" clip-path="url(#p3a861d23c4)" style="fill: none; stroke: #b0b0b0; stroke-width: 0.8; stroke-linecap: square"/>
     </g>
     <g id="line2d_20">
      <defs>
       <path id="m1547dfaead" d="M 0 0 
L -3.5 0 
" style="stroke: #000000; stroke-width: 0.8"/>
      </defs>
      <g>
       <use xlink:href="#m1547dfaead" x="57.6" y="282.691289" style="stroke: #000000; stroke-width: 0.8"/>
      </g>
     </g>
     <g id="text_11">
      <!-- −2000 -->
      <g transform="translate(16.770313 286.490507) scale(0.1 -0.1)">
       <defs>
        <path id="DejaVuSans-2212" d="M 678 2272 
L 4684 2272 
L 4684 1741 
L 678 1741 
L 678 2272 
z
" transform="scale(0.015625)"/>
       </defs>
       <use xlink:href="#DejaVuSans-2212"/>
       <use xlink:href="#DejaVuSans-32" x="83.789062"/>
       <use xlink:href="#DejaVuSans-30" x="147.412109"/>
       <use xlink:href="#DejaVuSans-30" x="211.035156"/>
       <use xlink:href="#DejaVuSans-30" x="274.658203"/>
      </g>
     </g>
    </g>
    <g id="ytick_2">
     <g id="line2d_21">
      <path d="M 57.6 247.670596 
L 414.72 247.670596 
" clip-path="url(#p3a861d23c4)" style="fill: none; stroke: #b0b0b0; stroke-width: 0.8; stroke-linecap: square"/>
     </g>
     <g id="line2d_22">
      <g>
       <use xlink:href="#m1547dfaead" x="57.6" y="247.670596" style="stroke: #000000; stroke-width: 0.8"/>
      </g>
     </g>
     <g id="text_12">
      <!-- −1750 -->
      <g transform="translate(16.770313 251.469815) scale(0.1 -0.1)">
       <use xlink:href="#DejaVuSans-2212"/>
       <use xlink:href="#DejaVuSans-31" x="83.789062"/>
       <use xlink:href="#DejaVuSans-37" x="147.412109"/>
       <use xlink:href="#DejaVuSans-35" x="211.035156"/>
       <use xlink:href="#DejaVuSans-30" x="274.658203"/>
      </g>
     </g>
    </g>
    <g id="ytick_3">
     <g id="line2d_23">
      <path d="M 57.6 212.649903 
L 414.72 212.649903 
" clip-path="url(#p3a861d23c4)" style="fill: none; stroke: #b0b0b0; stroke-width: 0.8; stroke-linecap: square"/>
     </g>
     <g id="line2d_24">
      <g>
       <use xlink:href="#m1547dfaead" x="57.6" y="212.649903" style="stroke: #000000; stroke-width: 0.8"/>
      </g>
     </g>
     <g id="text_13">
      <!-- −1500 -->
      <g transform="translate(16.770313 216.449122) scale(0.1 -0.1)">
       <use xlink:href="#DejaVuSans-2212"/>
       <use xlink:href="#DejaVuSans-31" x="83.789062"/>
       <use xlink:href="#DejaVuSans-35" x="147.412109"/>
       <use xlink:href="#DejaVuSans-30" x="211.035156"/>
       <use xlink:href="#DejaVuSans-30" x="274.658203"/>
      </g>
     </g>
    </g>
    <g id="ytick_4">
     <g id="line2d_25">
      <path d="M 57.6 177.62921 
L 414.72 177.62921 
" clip-path="url(#p3a861d23c4)" style="fill: none; stroke: #b0b0b0; stroke-width: 0.8; stroke-linecap: square"/>
     </g>
     <g id="line2d_26">
      <g>
       <use xlink:href="#m1547dfaead" x="57.6" y="177.62921" style="stroke: #000000; stroke-width: 0.8"/>
      </g>
     </g>
     <g id="text_14">
      <!-- −1250 -->
      <g transform="translate(16.770313 181.428429) scale(0.1 -0.1)">
       <use xlink:href="#DejaVuSans-2212"/>
       <use xlink:href="#DejaVuSans-31" x="83.789062"/>
       <use xlink:href="#DejaVuSans-32" x="147.412109"/>
       <use xlink:href="#DejaVuSans-35" x="211.035156"/>
       <use xlink:href="#DejaVuSans-30" x="274.658203"/>
      </g>
     </g>
    </g>
    <g id="ytick_5">
     <g id="line2d_27">
      <path d="M 57.6 142.608518 
L 414.72 142.608518 
" clip-path="url(#p3a861d23c4)" style="fill: none; stroke: #b0b0b0; stroke-width: 0.8; stroke-linecap: square"/>
     </g>
     <g id="line2d_28">
      <g>
       <use xlink:href="#m1547dfaead" x="57.6" y="142.608518" style="stroke: #000000; stroke-width: 0.8"/>
      </g>
     </g>
     <g id="text_15">
      <!-- −1000 -->
      <g transform="translate(16.770313 146.407736) scale(0.1 -0.1)">
       <use xlink:href="#DejaVuSans-2212"/>
       <use xlink:href="#DejaVuSans-31" x="83.789062"/>
       <use xlink:href="#DejaVuSans-30" x="147.412109"/>
       <use xlink:href="#DejaVuSans-30" x="211.035156"/>
       <use xlink:href="#DejaVuSans-30" x="274.658203"/>
      </g>
     </g>
    </g>
    <g id="ytick_6">
     <g id="line2d_29">
      <path d="M 57.6 107.587825 
L 414.72 107.587825 
" clip-path="url(#p3a861d23c4)" style="fill: none; stroke: #b0b0b0; stroke-width: 0.8; stroke-linecap: square"/>
     </g>
     <g id="line2d_30">
      <g>
       <use xlink:href="#m1547dfaead" x="57.6" y="107.587825" style="stroke: #000000; stroke-width: 0.8"/>
      </g>
     </g>
     <g id="text_16">
      <!-- −750 -->
      <g transform="translate(23.132812 111.387044) scale(0.1 -0.1)">
       <use xlink:href="#DejaVuSans-2212"/>
       <use xlink:href="#DejaVuSans-37" x="83.789062"/>
       <use xlink:href="#DejaVuSans-35" x="147.412109"/>
       <use xlink:href="#DejaVuSans-30" x="211.035156"/>
      </g>
     </g>
    </g>
    <g id="ytick_7">
     <g id="line2d_31">
      <path d="M 57.6 72.567132 
L 414.72 72.567132 
" clip-path="url(#p3a861d23c4)" style="fill: none; stroke: #b0b0b0; stroke-width: 0.8; stroke-linecap: square"/>
     </g>
     <g id="line2d_32">
      <g>
       <use xlink:href="#m1547dfaead" x="57.6" y="72.567132" style="stroke: #000000; stroke-width: 0.8"/>
      </g>
     </g>
     <g id="text_17">
      <!-- −500 -->
      <g transform="translate(23.132812 76.366351) scale(0.1 -0.1)">
       <use xlink:href="#DejaVuSans-2212"/>
       <use xlink:href="#DejaVuSans-35" x="83.789062"/>
       <use xlink:href="#DejaVuSans-30" x="147.412109"/>
       <use xlink:href="#DejaVuSans-30" x="211.035156"/>
      </g>
     </g>
    </g>
    <g id="text_18">
     <!-- Fitness -->
     <g transform="translate(10.690625 191.845187) rotate(-90) scale(0.1 -0.1)">
      <defs>
       <path id="DejaVuSans-46" d="M 628 4666 
L 3309 4666 
L 3309 4134 
L 1259 4134 
L 1259 2759 
L 3109 2759 
L 3109 2228 
L 1259 2228 
L 1259 0 
L 628 0 
L 628 4666 
z
" transform="scale(0.015625)"/>
      </defs>
      <use xlink:href="#DejaVuSans-46"/>
      <use xlink:href="#DejaVuSans-69" x="50.269531"/>
      <use xlink:href="#DejaVuSans-74" x="78.052734"/>
      <use xlink:href="#DejaVuSans-6e" x="117.261719"/>
      <use xlink:href="#DejaVuSans-65" x="180.640625"/>
      <use xlink:href="#DejaVuSans-73" x="242.164062"/>
      <use xlink:href="#DejaVuSans-73" x="294.263672"/>
     </g>
    </g>
   </g>
   <g id="line2d_33">
    <path d="M 73.832727 265.35846 
L 75.464157 265.987849 
L 77.095587 263.800368 
L 78.727017 263.409911 
L 80.358447 263.221327 
L 83.621307 261.674909 
L 86.884166 262.220508 
L 88.515596 261.363853 
L 90.147026 261.748397 
L 91.778456 260.843136 
L 93.409886 260.733411 
L 95.041316 261.847243 
L 96.672746 261.208589 
L 98.304175 261.155691 
L 99.935605 260.896228 
L 101.567035 259.660217 
L 103.198465 260.006781 
L 104.829895 258.397024 
L 106.461325 259.173586 
L 108.092755 257.092994 
L 109.724185 257.714904 
L 111.355614 259.219297 
L 112.987044 258.024316 
L 116.249904 257.834465 
L 117.881334 256.938392 
L 119.512764 256.984883 
L 121.144194 258.803981 
L 122.775624 259.220746 
L 124.407053 258.375931 
L 126.038483 256.863724 
L 127.669913 254.779759 
L 129.301343 256.737086 
L 130.932773 258.916669 
L 132.564203 258.262697 
L 134.195633 257.917368 
L 135.827063 256.733141 
L 137.458492 256.710891 
L 139.089922 256.914594 
L 140.721352 258.130017 
L 142.352782 256.877796 
L 143.984212 257.513946 
L 145.615642 256.510552 
L 147.247072 259.278407 
L 148.878502 259.675801 
L 150.509931 259.504657 
L 152.141361 259.071353 
L 153.772791 258.228627 
L 155.404221 259.319893 
L 157.035651 258.278227 
L 158.667081 258.263074 
L 160.298511 258.013644 
L 161.929941 259.008953 
L 163.56137 258.216908 
L 165.1928 257.700977 
L 166.82423 258.278544 
L 168.45566 254.890003 
L 170.08709 255.70859 
L 173.34995 255.295282 
L 174.98138 255.620924 
L 176.61281 255.295916 
L 178.244239 255.153933 
L 179.875669 255.854281 
L 181.507099 254.90328 
L 183.138529 254.381513 
L 184.769959 256.268521 
L 186.401389 255.828879 
L 188.032819 256.648266 
L 189.664249 254.312306 
L 191.295678 255.421649 
L 192.927108 254.814302 
L 194.558538 256.048563 
L 196.189968 255.831994 
L 197.821398 255.779538 
L 199.452828 255.132526 
L 201.084258 253.472313 
L 202.715688 253.050809 
L 204.347117 252.755023 
L 205.978547 255.117025 
L 207.609977 254.351473 
L 209.241407 255.440657 
L 210.872837 254.330198 
L 212.504267 253.390531 
L 214.135697 251.66192 
L 215.767127 254.508592 
L 217.398556 251.455179 
L 219.029986 253.622081 
L 220.661416 251.184557 
L 222.292846 247.850394 
L 223.924276 253.700217 
L 225.555706 253.46492 
L 227.187136 254.022884 
L 228.818566 254.426577 
L 230.449995 255.572512 
L 232.081425 256.327639 
L 233.712855 255.749802 
L 235.344285 255.354939 
L 236.975715 255.711398 
L 238.607145 256.206654 
L 240.238575 255.83395 
L 241.870005 254.559824 
L 243.501434 253.093964 
L 245.132864 255.73241 
L 246.764294 254.207386 
L 248.395724 255.218858 
L 250.027154 255.395262 
L 253.290014 255.178369 
L 254.921444 256.594945 
L 256.552873 256.003506 
L 258.184303 256.095286 
L 259.815733 255.922882 
L 261.447163 255.613011 
L 263.078593 255.434007 
L 264.710023 256.691703 
L 266.341453 256.146116 
L 267.972883 255.955683 
L 269.604312 256.0221 
L 271.235742 255.311141 
L 272.867172 256.081855 
L 274.498602 255.469404 
L 276.130032 255.973378 
L 277.761462 257.429005 
L 279.392892 255.934768 
L 281.024322 253.614176 
L 284.287181 253.525527 
L 285.918611 251.55302 
L 287.550041 254.056054 
L 289.181471 252.59588 
L 290.812901 254.645511 
L 292.444331 253.576159 
L 294.075761 255.494995 
L 295.70719 252.225702 
L 297.33862 255.830024 
L 298.97005 255.317821 
L 300.60148 255.598526 
L 302.23291 252.697188 
L 303.86434 254.030692 
L 305.49577 255.720791 
L 307.1272 256.453436 
L 308.75863 256.57085 
L 310.390059 256.985705 
L 312.021489 256.397947 
L 315.284349 256.50598 
L 316.915779 256.01579 
L 320.178639 256.668497 
L 321.810069 255.601652 
L 323.441498 255.239364 
L 325.072928 254.130314 
L 326.704358 254.641114 
L 328.335788 255.635974 
L 329.967218 255.724611 
L 331.598648 255.477056 
L 333.230078 254.119737 
L 334.861508 254.971777 
L 336.492937 254.350574 
L 338.124367 256.816405 
L 339.755797 255.373022 
L 341.387227 255.394155 
L 343.018657 254.460527 
L 344.650087 254.56995 
L 347.912947 255.591954 
L 349.544376 255.457929 
L 351.175806 256.116116 
L 352.807236 255.61635 
L 354.438666 255.521704 
L 356.070096 253.266627 
L 357.701526 253.600517 
L 359.332956 255.545429 
L 360.964386 255.57199 
L 362.595815 254.101397 
L 364.227245 255.727134 
L 365.858675 254.938628 
L 367.490105 255.375612 
L 369.121535 253.827458 
L 370.752965 252.11761 
L 372.384395 255.218253 
L 374.015825 254.788324 
L 375.647254 254.909211 
L 377.278684 253.982597 
L 378.910114 250.591423 
L 380.541544 253.307851 
L 382.172974 254.253937 
L 383.804404 255.875743 
L 385.435834 254.937906 
L 387.067264 251.92563 
L 388.698693 255.128557 
L 391.961553 254.841908 
L 393.592983 255.238037 
L 395.224413 256.126351 
L 396.855843 255.801332 
L 398.487273 255.730113 
L 398.487273 255.730113 
" clip-path="url(#p3a861d23c4)" style="fill: none; stroke: #0000ff; stroke-width: 1.5; stroke-linecap: square"/>
   </g>
   <g id="line2d_34">
    <path d="M 73.832727 280.746216 
L 75.464157 281.010389 
L 77.095587 278.363736 
L 78.727017 273.973324 
L 80.358447 274.086893 
L 81.989877 273.975446 
L 83.621307 272.938959 
L 85.252736 273.087436 
L 86.884166 272.630711 
L 88.515596 271.386475 
L 90.147026 271.68167 
L 91.778456 273.447764 
L 93.409886 273.111902 
L 95.041316 274.281004 
L 96.672746 273.629174 
L 98.304175 273.762661 
L 99.935605 273.175125 
L 101.567035 272.442031 
L 103.198465 272.982518 
L 104.829895 273.900487 
L 106.461325 276.315768 
L 108.092755 281.122068 
L 109.724185 281.500472 
L 111.355614 279.487664 
L 112.987044 280.365231 
L 114.618474 282.420333 
L 116.249904 282.505943 
L 117.881334 280.765799 
L 119.512764 281.168766 
L 121.144194 279.587338 
L 122.775624 280.340856 
L 124.407053 279.782599 
L 126.038483 282.314509 
L 127.669913 283.681899 
L 129.301343 280.529821 
L 130.932773 279.475791 
L 132.564203 280.493549 
L 134.195633 280.862972 
L 137.458492 280.758583 
L 140.721352 277.946057 
L 142.352782 281.986454 
L 143.984212 281.607384 
L 145.615642 282.618352 
L 147.247072 278.080036 
L 148.878502 277.82025 
L 150.509931 279.056962 
L 152.141361 277.699072 
L 153.772791 276.173977 
L 155.404221 276.997954 
L 157.035651 279.40488 
L 158.667081 278.728426 
L 160.298511 278.403276 
L 161.929941 279.818035 
L 163.56137 278.883058 
L 165.1928 279.012412 
L 166.82423 278.964431 
L 168.45566 285.384744 
L 170.08709 283.654155 
L 171.71852 282.617872 
L 173.34995 284.193839 
L 174.98138 282.780367 
L 176.61281 286.27971 
L 178.244239 284.900392 
L 179.875669 287.275759 
L 181.507099 286.160929 
L 183.138529 287.547138 
L 184.769959 288.063124 
L 186.401389 287.866548 
L 188.032819 287.098331 
L 189.664249 286.74853 
L 191.295678 287.168418 
L 192.927108 286.738259 
L 196.189968 285.589075 
L 197.821398 285.382155 
L 199.452828 286.71284 
L 201.084258 287.793118 
L 202.715688 287.544687 
L 204.347117 289.735883 
L 205.978547 288.383501 
L 207.609977 287.697722 
L 209.241407 288.810491 
L 210.872837 288.76856 
L 212.504267 287.432929 
L 214.135697 289.087379 
L 215.767127 288.77246 
L 217.398556 288.89773 
L 219.029986 287.996127 
L 220.661416 290.248777 
L 222.292846 288.659971 
L 223.924276 289.051627 
L 225.555706 293.446233 
L 227.187136 289.120801 
L 228.818566 289.208504 
L 230.449995 286.464285 
L 232.081425 287.46925 
L 233.712855 287.166008 
L 235.344285 287.365344 
L 236.975715 286.620748 
L 238.607145 287.39915 
L 241.870005 286.778856 
L 243.501434 288.404247 
L 245.132864 286.437781 
L 246.764294 287.894663 
L 248.395724 285.825864 
L 250.027154 284.947018 
L 251.658584 285.765905 
L 253.290014 285.638072 
L 254.921444 286.742931 
L 256.552873 285.827064 
L 259.815733 286.333281 
L 261.447163 285.938356 
L 263.078593 286.017126 
L 264.710023 286.407492 
L 266.341453 286.164745 
L 267.972883 285.46517 
L 269.604312 286.019784 
L 271.235742 286.44761 
L 272.867172 287.351229 
L 274.498602 286.01971 
L 276.130032 286.476294 
L 277.761462 289.258857 
L 279.392892 287.20012 
L 281.024322 290.558298 
L 282.655751 290.932145 
L 284.287181 291.005277 
L 285.918611 291.998152 
L 289.181471 292.542109 
L 290.812901 290.773024 
L 292.444331 293.662897 
L 294.075761 291.798744 
L 295.70719 295.488 
L 297.33862 289.822074 
L 298.97005 290.017574 
L 300.60148 289.911556 
L 302.23291 292.673978 
L 303.86434 288.847797 
L 305.49577 287.596657 
L 307.1272 287.298704 
L 308.75863 287.537131 
L 310.390059 288.270179 
L 312.021489 287.48994 
L 315.284349 286.941405 
L 316.915779 286.448908 
L 318.547209 287.118219 
L 320.178639 287.633211 
L 323.441498 286.874675 
L 325.072928 289.207706 
L 326.704358 287.989868 
L 328.335788 288.578117 
L 331.598648 288.767137 
L 333.230078 287.806881 
L 334.861508 287.854537 
L 336.492937 288.418219 
L 338.124367 289.697665 
L 339.755797 290.510295 
L 341.387227 288.417449 
L 343.018657 289.398693 
L 344.650087 287.830644 
L 346.281517 288.712862 
L 349.544376 288.731804 
L 351.175806 289.603888 
L 352.807236 288.444356 
L 354.438666 288.521771 
L 356.070096 288.82199 
L 357.701526 289.921456 
L 359.332956 289.165949 
L 360.964386 289.619464 
L 362.595815 288.562046 
L 364.227245 289.254299 
L 365.858675 288.610982 
L 367.490105 289.498385 
L 369.121535 290.780338 
L 370.752965 293.962952 
L 372.384395 293.890644 
L 374.015825 293.188936 
L 375.647254 293.290006 
L 377.278684 292.414105 
L 378.910114 293.974029 
L 380.541544 293.067972 
L 382.172974 293.051607 
L 383.804404 291.682731 
L 385.435834 289.897068 
L 387.067264 294.183493 
L 388.698693 290.011374 
L 391.961553 289.474823 
L 393.592983 290.057133 
L 395.224413 291.793629 
L 396.855843 290.669974 
L 398.487273 290.406765 
L 398.487273 290.406765 
" clip-path="url(#p3a861d23c4)" style="fill: none; stroke-dasharray: 9.6,2.4,1.5,2.4; stroke-dashoffset: 0; stroke: #008000; stroke-width: 1.5"/>
   </g>
   <g id="line2d_35">
    <path d="M 73.832727 249.970704 
L 75.464157 250.965309 
L 77.095587 249.236999 
L 78.727017 252.846499 
L 80.358447 252.355761 
L 81.989877 250.91278 
L 83.621307 250.410859 
L 85.252736 250.816716 
L 86.884166 251.810304 
L 88.515596 251.341231 
L 90.147026 251.815125 
L 91.778456 248.238508 
L 93.409886 248.35492 
L 95.041316 249.413481 
L 96.672746 248.788004 
L 98.304175 248.548722 
L 99.935605 248.61733 
L 101.567035 246.878403 
L 103.198465 247.031044 
L 104.829895 242.893561 
L 106.461325 242.031404 
L 108.092755 233.063921 
L 109.724185 233.929335 
L 111.355614 238.95093 
L 112.987044 235.683401 
L 114.618474 233.506376 
L 116.249904 233.162987 
L 117.881334 233.110985 
L 119.512764 232.801 
L 121.144194 238.020625 
L 122.775624 238.100636 
L 124.407053 236.969263 
L 127.669913 225.87762 
L 129.301343 232.944351 
L 130.932773 238.357547 
L 132.564203 236.031845 
L 134.195633 234.971764 
L 135.827063 232.636164 
L 137.458492 232.6632 
L 139.089922 234.475003 
L 140.721352 238.313978 
L 142.352782 231.769138 
L 143.984212 233.420508 
L 145.615642 230.402753 
L 147.247072 240.476779 
L 148.878502 241.531352 
L 150.509931 239.952351 
L 152.141361 240.443634 
L 153.772791 240.283278 
L 155.404221 241.641832 
L 157.035651 237.151575 
L 158.667081 237.797721 
L 160.298511 237.624012 
L 161.929941 238.19987 
L 163.56137 237.550758 
L 165.1928 236.389542 
L 166.82423 237.592658 
L 168.45566 224.395263 
L 170.08709 227.763025 
L 171.71852 228.363805 
L 173.34995 226.396726 
L 174.98138 228.461481 
L 176.61281 224.312121 
L 178.244239 225.407475 
L 179.875669 224.432803 
L 181.507099 223.645631 
L 183.138529 221.215887 
L 184.769959 224.473917 
L 186.401389 223.79121 
L 188.032819 226.198201 
L 189.664249 221.876083 
L 191.295678 223.674881 
L 192.927108 222.890345 
L 194.558538 225.953489 
L 197.821398 226.176922 
L 199.452828 223.552212 
L 201.084258 219.151509 
L 202.715688 218.556931 
L 204.347117 215.774162 
L 205.978547 221.85055 
L 207.609977 221.005223 
L 209.241407 222.070824 
L 210.872837 219.891837 
L 212.504267 219.348134 
L 214.135697 214.23646 
L 215.767127 220.244725 
L 217.398556 214.012627 
L 219.029986 219.248035 
L 220.661416 212.120338 
L 222.292846 207.040817 
L 223.924276 218.348808 
L 225.555706 213.483608 
L 227.187136 218.924966 
L 228.818566 219.644649 
L 230.449995 224.680739 
L 232.081425 225.186027 
L 233.712855 224.333597 
L 235.344285 223.344534 
L 236.975715 224.802048 
L 238.607145 225.014157 
L 240.238575 224.61666 
L 241.870005 222.340791 
L 243.501434 217.783682 
L 245.132864 225.027039 
L 246.764294 220.520108 
L 248.395724 224.611852 
L 250.027154 225.843505 
L 251.658584 224.80974 
L 253.290014 224.718666 
L 254.921444 226.446959 
L 256.552873 226.179947 
L 258.184303 226.11368 
L 259.815733 225.512483 
L 261.447163 225.287666 
L 263.078593 224.850888 
L 264.710023 226.975913 
L 266.341453 226.127486 
L 267.972883 226.446197 
L 269.604312 226.024417 
L 271.235742 224.174672 
L 272.867172 224.812482 
L 274.498602 224.919099 
L 276.130032 225.470461 
L 277.761462 225.599154 
L 279.392892 224.669417 
L 281.024322 216.670055 
L 284.287181 216.045778 
L 285.918611 211.107887 
L 287.550041 215.857614 
L 289.181471 212.649652 
L 290.812901 218.517998 
L 292.444331 213.489422 
L 294.075761 219.191247 
L 295.70719 208.963404 
L 297.33862 221.837973 
L 298.97005 220.618068 
L 300.60148 221.285495 
L 302.23291 212.720398 
L 303.86434 219.213587 
L 305.49577 223.844925 
L 307.1272 225.608168 
L 310.390059 225.701231 
L 312.021489 225.305955 
L 313.652919 225.759254 
L 315.284349 226.070555 
L 316.915779 225.582673 
L 320.178639 225.703784 
L 321.810069 223.916142 
L 323.441498 223.604054 
L 325.072928 219.052921 
L 326.704358 221.29236 
L 328.335788 222.693832 
L 329.967218 222.764436 
L 331.598648 222.186974 
L 333.230078 220.432594 
L 334.861508 222.089017 
L 336.492937 220.282929 
L 338.124367 223.935145 
L 339.755797 220.235749 
L 341.387227 222.370862 
L 343.018657 219.52236 
L 344.650087 221.309255 
L 346.281517 221.511185 
L 347.912947 222.441233 
L 349.544376 222.184054 
L 351.175806 222.628344 
L 352.807236 222.788344 
L 354.438666 222.521637 
L 356.070096 217.711265 
L 357.701526 217.279578 
L 359.332956 221.924908 
L 360.964386 221.524515 
L 362.595815 219.640749 
L 364.227245 222.19997 
L 365.858675 221.266275 
L 367.490105 221.25284 
L 369.121535 216.874577 
L 370.752965 210.272269 
L 372.384395 216.545862 
L 374.015825 216.387712 
L 375.647254 216.528416 
L 377.278684 215.551089 
L 378.910114 207.208817 
L 380.541544 213.54773 
L 382.172974 215.456267 
L 383.804404 220.068755 
L 385.435834 219.978745 
L 387.067264 209.667767 
L 388.698693 220.245741 
L 391.961553 220.208993 
L 393.592983 220.418942 
L 395.224413 220.459073 
L 396.855843 220.93269 
L 398.487273 221.053461 
L 398.487273 221.053461 
" clip-path="url(#p3a861d23c4)" style="fill: none; stroke-dasharray: 9.6,2.4,1.5,2.4; stroke-dashoffset: 0; stroke: #008000; stroke-width: 1.5"/>
   </g>
   <g id="line2d_36">
    <path d="M 73.832727 174.997313 
L 103.198465 174.997313 
L 104.829895 173.534843 
L 106.461325 141.545558 
L 108.092755 136.698693 
L 124.407053 136.698693 
L 126.038483 136.426925 
L 132.564203 136.426925 
L 134.195633 104.172856 
L 166.82423 104.172856 
L 168.45566 103.861872 
L 174.98138 103.861872 
L 176.61281 103.43882 
L 202.715688 103.43882 
L 204.347117 56.941206 
L 223.924276 56.941206 
L 225.555706 56.794116 
L 281.024322 56.794116 
L 282.655751 53.702481 
L 284.287181 53.702481 
L 285.918611 53.568 
L 398.487273 53.568 
L 398.487273 53.568 
" clip-path="url(#p3a861d23c4)" style="fill: none; stroke: #ff0000; stroke-width: 1.5; stroke-linecap: square"/>
   </g>
   <g id="patch_3">
    <path d="M 57.6 307.584 
L 57.6 41.472 
" style="fill: none; stroke: #000000; stroke-width: 0.8; stroke-linejoin: miter; stroke-linecap: square"/>
   </g>
   <g id="patch_4">
    <path d="M 414.72 307.584 
L 414.72 41.472 
" style="fill: none; stroke: #000000; stroke-width: 0.8; stroke-linejoin: miter; stroke-linecap: square"/>
   </g>
   <g id="patch_5">
    <path d="M 57.6 307.584 
L 414.72 307.584 
" style="fill: none; stroke: #000000; stroke-width: 0.8; stroke-linejoin: miter; stroke-linecap: square"/>
   </g>
   <g id="patch_6">
    <path d="M 57.6 41.472 
L 414.72 41.472 
" style="fill: none; stroke: #000000; stroke-width: 0.8; stroke-linejoin: miter; stroke-linecap: square"/>
   </g>
   <g id="text_19">
    <!-- Population's average and best fitness -->
    <g transform="translate(123.529687 35.472) scale(0.12 -0.12)">
     <defs>
      <path id="DejaVuSans-50" d="M 1259 4147 
L 1259 2394 
L 2053 2394 
Q 2494 2394 2734 2622 
Q 2975 2850 2975 3272 
Q 2975 3691 2734 3919 
Q 2494 4147 2053 4147 
L 1259 4147 
z
M 628 4666 
L 2053 4666 
Q 2838 4666 3239 4311 
Q 3641 3956 3641 3272 
Q 3641 2581 3239 2228 
Q 2838 1875 2053 1875 
L 1259 1875 
L 1259 0 
L 628 0 
L 628 4666 
z
" transform="scale(0.015625)"/>
      <path id="DejaVuSans-70" d="M 1159 525 
L 1159 -1331 
L 581 -1331 
L 581 3500 
L 1159 3500 
L 1159 2969 
Q 1341 3281 1617 3432 
Q 1894 3584 2278 3584 
Q 2916 3584 3314 3078 
Q 3713 2572 3713 1747 
Q 3713 922 3314 415 
Q 2916 -91 2278 -91 
Q 1894 -91 1617 61 
Q 1341 213 1159 525 
z
M 3116 1747 
Q 3116 2381 2855 2742 
Q 2594 3103 2138 3103 
Q 1681 3103 1420 2742 
Q 1159 2381 1159 1747 
Q 1159 1113 1420 752 
Q 1681 391 2138 391 
Q 2594 391 2855 752 
Q 3116 1113 3116 1747 
z
" transform="scale(0.015625)"/>
      <path id="DejaVuSans-75" d="M 544 1381 
L 544 3500 
L 1119 3500 
L 1119 1403 
Q 1119 906 1312 657 
Q 1506 409 1894 409 
Q 2359 409 2629 706 
Q 2900 1003 2900 1516 
L 2900 3500 
L 3475 3500 
L 3475 0 
L 2900 0 
L 2900 538 
Q 2691 219 2414 64 
Q 2138 -91 1772 -91 
Q 1169 -91 856 284 
Q 544 659 544 1381 
z
M 1991 3584 
L 1991 3584 
z
" transform="scale(0.015625)"/>
      <path id="DejaVuSans-6c" d="M 603 4863 
L 1178 4863 
L 1178 0 
L 603 0 
L 603 4863 
z
" transform="scale(0.015625)"/>
      <path id="DejaVuSans-27" d="M 1147 4666 
L 1147 2931 
L 616 2931 
L 616 4666 
L 1147 4666 
z
" transform="scale(0.015625)"/>
      <path id="DejaVuSans-20" transform="scale(0.015625)"/>
      <path id="DejaVuSans-76" d="M 191 3500 
L 800 3500 
L 1894 563 
L 2988 3500 
L 3597 3500 
L 2284 0 
L 1503 0 
L 191 3500 
z
" transform="scale(0.015625)"/>
      <path id="DejaVuSans-67" d="M 2906 1791 
Q 2906 2416 2648 2759 
Q 2391 3103 1925 3103 
Q 1463 3103 1205 2759 
Q 947 2416 947 1791 
Q 947 1169 1205 825 
Q 1463 481 1925 481 
Q 2391 481 2648 825 
Q 2906 1169 2906 1791 
z
M 3481 434 
Q 3481 -459 3084 -895 
Q 2688 -1331 1869 -1331 
Q 1566 -1331 1297 -1286 
Q 1028 -1241 775 -1147 
L 775 -588 
Q 1028 -725 1275 -790 
Q 1522 -856 1778 -856 
Q 2344 -856 2625 -561 
Q 2906 -266 2906 331 
L 2906 616 
Q 2728 306 2450 153 
Q 2172 0 1784 0 
Q 1141 0 747 490 
Q 353 981 353 1791 
Q 353 2603 747 3093 
Q 1141 3584 1784 3584 
Q 2172 3584 2450 3431 
Q 2728 3278 2906 2969 
L 2906 3500 
L 3481 3500 
L 3481 434 
z
" transform="scale(0.015625)"/>
      <path id="DejaVuSans-64" d="M 2906 2969 
L 2906 4863 
L 3481 4863 
L 3481 0 
L 2906 0 
L 2906 525 
Q 2725 213 2448 61 
Q 2172 -91 1784 -91 
Q 1150 -91 751 415 
Q 353 922 353 1747 
Q 353 2572 751 3078 
Q 1150 3584 1784 3584 
Q 2172 3584 2448 3432 
Q 2725 3281 2906 2969 
z
M 947 1747 
Q 947 1113 1208 752 
Q 1469 391 1925 391 
Q 2381 391 2643 752 
Q 2906 1113 2906 1747 
Q 2906 2381 2643 2742 
Q 2381 3103 1925 3103 
Q 1469 3103 1208 2742 
Q 947 2381 947 1747 
z
" transform="scale(0.015625)"/>
      <path id="DejaVuSans-62" d="M 3116 1747 
Q 3116 2381 2855 2742 
Q 2594 3103 2138 3103 
Q 1681 3103 1420 2742 
Q 1159 2381 1159 1747 
Q 1159 1113 1420 752 
Q 1681 391 2138 391 
Q 2594 391 2855 752 
Q 3116 1113 3116 1747 
z
M 1159 2969 
Q 1341 3281 1617 3432 
Q 1894 3584 2278 3584 
Q 2916 3584 3314 3078 
Q 3713 2572 3713 1747 
Q 3713 922 3314 415 
Q 2916 -91 2278 -91 
Q 1894 -91 1617 61 
Q 1341 213 1159 525 
L 1159 0 
L 581 0 
L 581 4863 
L 1159 4863 
L 1159 2969 
z
" transform="scale(0.015625)"/>
      <path id="DejaVuSans-66" d="M 2375 4863 
L 2375 4384 
L 1825 4384 
Q 1516 4384 1395 4259 
Q 1275 4134 1275 3809 
L 1275 3500 
L 2222 3500 
L 2222 3053 
L 1275 3053 
L 1275 0 
L 697 0 
L 697 3053 
L 147 3053 
L 147 3500 
L 697 3500 
L 697 3744 
Q 697 4328 969 4595 
Q 1241 4863 1831 4863 
L 2375 4863 
z
" transform="scale(0.015625)"/>
     </defs>
     <use xlink:href="#DejaVuSans-50"/>
     <use xlink:href="#DejaVuSans-6f" x="56.677734"/>
     <use xlink:href="#DejaVuSans-70" x="117.859375"/>
     <use xlink:href="#DejaVuSans-75" x="181.335938"/>
     <use xlink:href="#DejaVuSans-6c" x="244.714844"/>
     <use xlink:href="#DejaVuSans-61" x="272.498047"/>
     <use xlink:href="#DejaVuSans-74" x="333.777344"/>
     <use xlink:href="#DejaVuSans-69" x="372.986328"/>
     <use xlink:href="#DejaVuSans-6f" x="400.769531"/>
     <use xlink:href="#DejaVuSans-6e" x="461.951172"/>
     <use xlink:href="#DejaVuSans-27" x="525.330078"/>
     <use xlink:href="#DejaVuSans-73" x="552.820312"/>
     <use xlink:href="#DejaVuSans-20" x="604.919922"/>
     <use xlink:href="#DejaVuSans-61" x="636.707031"/>
     <use xlink:href="#DejaVuSans-76" x="697.986328"/>
     <use xlink:href="#DejaVuSans-65" x="757.166016"/>
     <use xlink:href="#DejaVuSans-72" x="818.689453"/>
     <use xlink:href="#DejaVuSans-61" x="859.802734"/>
     <use xlink:href="#DejaVuSans-67" x="921.082031"/>
     <use xlink:href="#DejaVuSans-65" x="984.558594"/>
     <use xlink:href="#DejaVuSans-20" x="1046.082031"/>
     <use xlink:href="#DejaVuSans-61" x="1077.869141"/>
     <use xlink:href="#DejaVuSans-6e" x="1139.148438"/>
     <use xlink:href="#DejaVuSans-64" x="1202.527344"/>
     <use xlink:href="#DejaVuSans-20" x="1266.003906"/>
     <use xlink:href="#DejaVuSans-62" x="1297.791016"/>
     <use xlink:href="#DejaVuSans-65" x="1361.267578"/>
     <use xlink:href="#DejaVuSans-73" x="1422.791016"/>
     <use xlink:href="#DejaVuSans-74" x="1474.890625"/>
     <use xlink:href="#DejaVuSans-20" x="1514.099609"/>
     <use xlink:href="#DejaVuSans-66" x="1545.886719"/>
     <use xlink:href="#DejaVuSans-69" x="1581.091797"/>
     <use xlink:href="#DejaVuSans-74" x="1608.875"/>
     <use xlink:href="#DejaVuSans-6e" x="1648.083984"/>
     <use xlink:href="#DejaVuSans-65" x="1711.462891"/>
     <use xlink:href="#DejaVuSans-73" x="1772.986328"/>
     <use xlink:href="#DejaVuSans-73" x="1825.085938"/>
    </g>
   </g>
   <g id="legend_1">
    <g id="patch_7">
     <path d="M 334.779375 205.38425 
L 407.72 205.38425 
Q 409.72 205.38425 409.72 203.38425 
L 409.72 145.67175 
Q 409.72 143.67175 407.72 143.67175 
L 334.779375 143.67175 
Q 332.779375 143.67175 332.779375 145.67175 
L 332.779375 203.38425 
Q 332.779375 205.38425 334.779375 205.38425 
z
" style="fill: #ffffff; opacity: 0.8; stroke: #cccccc; stroke-linejoin: miter"/>
    </g>
    <g id="line2d_37">
     <path d="M 336.779375 151.770188 
L 346.779375 151.770188 
L 356.779375 151.770188 
" style="fill: none; stroke: #0000ff; stroke-width: 1.5; stroke-linecap: square"/>
    </g>
    <g id="text_20">
     <!-- average -->
     <g transform="translate(364.779375 155.270188) scale(0.1 -0.1)">
      <use xlink:href="#DejaVuSans-61"/>
      <use xlink:href="#DejaVuSans-76" x="61.279297"/>
      <use xlink:href="#DejaVuSans-65" x="120.458984"/>
      <use xlink:href="#DejaVuSans-72" x="181.982422"/>
      <use xlink:href="#DejaVuSans-61" x="223.095703"/>
      <use xlink:href="#DejaVuSans-67" x="284.375"/>
      <use xlink:href="#DejaVuSans-65" x="347.851562"/>
     </g>
    </g>
    <g id="line2d_38">
     <path d="M 336.779375 166.448313 
L 346.779375 166.448313 
L 356.779375 166.448313 
" style="fill: none; stroke-dasharray: 9.6,2.4,1.5,2.4; stroke-dashoffset: 0; stroke: #008000; stroke-width: 1.5"/>
    </g>
    <g id="text_21">
     <!-- -1 sd -->
     <g transform="translate(364.779375 169.948313) scale(0.1 -0.1)">
      <defs>
       <path id="DejaVuSans-2d" d="M 313 2009 
L 1997 2009 
L 1997 1497 
L 313 1497 
L 313 2009 
z
" transform="scale(0.015625)"/>
      </defs>
      <use xlink:href="#DejaVuSans-2d"/>
      <use xlink:href="#DejaVuSans-31" x="36.083984"/>
      <use xlink:href="#DejaVuSans-20" x="99.707031"/>
      <use xlink:href="#DejaVuSans-73" x="131.494141"/>
      <use xlink:href="#DejaVuSans-64" x="183.59375"/>
     </g>
    </g>
    <g id="line2d_39">
     <path d="M 336.779375 181.126438 
L 346.779375 181.126438 
L 356.779375 181.126438 
" style="fill: none; stroke-dasharray: 9.6,2.4,1.5,2.4; stroke-dashoffset: 0; stroke: #008000; stroke-width: 1.5"/>
    </g>
    <g id="text_22">
     <!-- +1 sd -->
     <g transform="translate(364.779375 184.626438) scale(0.1 -0.1)">
      <defs>
       <path id="DejaVuSans-2b" d="M 2944 4013 
L 2944 2272 
L 4684 2272 
L 4684 1741 
L 2944 1741 
L 2944 0 
L 2419 0 
L 2419 1741 
L 678 1741 
L 678 2272 
L 2419 2272 
L 2419 4013 
L 2944 4013 
z
" transform="scale(0.015625)"/>
      </defs>
      <use xlink:href="#DejaVuSans-2b"/>
      <use xlink:href="#DejaVuSans-31" x="83.789062"/>
      <use xlink:href="#DejaVuSans-20" x="147.412109"/>
      <use xlink:href="#DejaVuSans-73" x="179.199219"/>
      <use xlink:href="#DejaVuSans-64" x="231.298828"/>
     </g>
    </g>
    <g id="line2d_40">
     <path d="M 336.779375 195.804563 
L 346.779375 195.804563 
L 356.779375 195.804563 
" style="fill: none; stroke: #ff0000; stroke-width: 1.5; stroke-linecap: square"/>
    </g>
    <g id="text_23">
     <!-- best -->
     <g transform="translate(364.779375 199.304563) scale(0.1 -0.1)">
      <use xlink:href="#DejaVuSans-62"/>
      <use xlink:href="#DejaVuSans-65" x="63.476562"/>
      <use xlink:href="#DejaVuSans-73" x="125"/>
      <use xlink:href="#DejaVuSans-74" x="177.099609"/>
     </g>
    </g>
   </g>
  </g>
 </g>
 <defs>
  <clipPath id="p3a861d23c4">
   <rect x="57.6" y="41.472" width="357.12" height="266.112"/>
  </clipPath>
 </defs>
</svg>
