<?xml version="1.0" encoding="utf-8" standalone="no"?>
<!DOCTYPE svg PUBLIC "-//W3C//DTD SVG 1.1//EN"
  "http://www.w3.org/Graphics/SVG/1.1/DTD/svg11.dtd">
<svg xmlns:xlink="http://www.w3.org/1999/xlink" width="460.8pt" height="345.6pt" viewBox="0 0 460.8 345.6" xmlns="http://www.w3.org/2000/svg" version="1.1">
 <metadata>
  <rdf:RDF xmlns:dc="http://purl.org/dc/elements/1.1/" xmlns:cc="http://creativecommons.org/ns#" xmlns:rdf="http://www.w3.org/1999/02/22-rdf-syntax-ns#">
   <cc:Work>
    <dc:type rdf:resource="http://purl.org/dc/dcmitype/StillImage"/>
    <dc:date>2024-08-04T07:48:21.872445</dc:date>
    <dc:format>image/svg+xml</dc:format>
    <dc:creator>
     <cc:Agent>
      <dc:title>Matplotlib v3.8.4, https://matplotlib.org/</dc:title>
     </cc:Agent>
    </dc:creator>
   </cc:Work>
  </rdf:RDF>
 </metadata>
 <defs>
  <style type="text/css">*{stroke-linejoin: round; stroke-linecap: butt}</style>
 </defs>
 <g id="figure_1">
  <g id="patch_1">
   <path d="M 0 345.6 
L 460.8 345.6 
L 460.8 0 
L 0 0 
z
" style="fill: #ffffff"/>
  </g>
  <g id="axes_1">
   <g id="patch_2">
    <path d="M 57.6 307.584 
L 414.72 307.584 
L 414.72 41.472 
L 57.6 41.472 
z
" style="fill: #ffffff"/>
   </g>
   <g id="matplotlib.axis_1">
    <g id="xtick_1">
     <g id="line2d_1">
      <path d="M 73.832727 307.584 
L 73.832727 41.472 
" clip-path="url(#pf9bc42e574)" style="fill: none; stroke: #b0b0b0; stroke-width: 0.8; stroke-linecap: square"/>
     </g>
     <g id="line2d_2">
      <defs>
       <path id="mf740e7f4f2" d="M 0 0 
L 0 3.5 
" style="stroke: #000000; stroke-width: 0.8"/>
      </defs>
      <g>
       <use xlink:href="#mf740e7f4f2" x="73.832727" y="307.584" style="stroke: #000000; stroke-width: 0.8"/>
      </g>
     </g>
     <g id="text_1">
      <!-- 0 -->
      <g transform="translate(70.651477 322.182437) scale(0.1 -0.1)">
       <defs>
        <path id="DejaVuSans-30" d="M 2034 4250 
Q 1547 4250 1301 3770 
Q 1056 3291 1056 2328 
Q 1056 1369 1301 889 
Q 1547 409 2034 409 
Q 2525 409 2770 889 
Q 3016 1369 3016 2328 
Q 3016 3291 2770 3770 
Q 2525 4250 2034 4250 
z
M 2034 4750 
Q 2819 4750 3233 4129 
Q 3647 3509 3647 2328 
Q 3647 1150 3233 529 
Q 2819 -91 2034 -91 
Q 1250 -91 836 529 
Q 422 1150 422 2328 
Q 422 3509 836 4129 
Q 1250 4750 2034 4750 
z
" transform="scale(0.015625)"/>
       </defs>
       <use xlink:href="#DejaVuSans-30"/>
      </g>
     </g>
    </g>
    <g id="xtick_2">
     <g id="line2d_3">
      <path d="M 114.618474 307.584 
L 114.618474 41.472 
" clip-path="url(#pf9bc42e574)" style="fill: none; stroke: #b0b0b0; stroke-width: 0.8; stroke-linecap: square"/>
     </g>
     <g id="line2d_4">
      <g>
       <use xlink:href="#mf740e7f4f2" x="114.618474" y="307.584" style="stroke: #000000; stroke-width: 0.8"/>
      </g>
     </g>
     <g id="text_2">
      <!-- 25 -->
      <g transform="translate(108.255974 322.182437) scale(0.1 -0.1)">
       <defs>
        <path id="DejaVuSans-32" d="M 1228 531 
L 3431 531 
L 3431 0 
L 469 0 
L 469 531 
Q 828 903 1448 1529 
Q 2069 2156 2228 2338 
Q 2531 2678 2651 2914 
Q 2772 3150 2772 3378 
Q 2772 3750 2511 3984 
Q 2250 4219 1831 4219 
Q 1534 4219 1204 4116 
Q 875 4013 500 3803 
L 500 4441 
Q 881 4594 1212 4672 
Q 1544 4750 1819 4750 
Q 2544 4750 2975 4387 
Q 3406 4025 3406 3419 
Q 3406 3131 3298 2873 
Q 3191 2616 2906 2266 
Q 2828 2175 2409 1742 
Q 1991 1309 1228 531 
z
" transform="scale(0.015625)"/>
        <path id="DejaVuSans-35" d="M 691 4666 
L 3169 4666 
L 3169 4134 
L 1269 4134 
L 1269 2991 
Q 1406 3038 1543 3061 
Q 1681 3084 1819 3084 
Q 2600 3084 3056 2656 
Q 3513 2228 3513 1497 
Q 3513 744 3044 326 
Q 2575 -91 1722 -91 
Q 1428 -91 1123 -41 
Q 819 9 494 109 
L 494 744 
Q 775 591 1075 516 
Q 1375 441 1709 441 
Q 2250 441 2565 725 
Q 2881 1009 2881 1497 
Q 2881 1984 2565 2268 
Q 2250 2553 1709 2553 
Q 1456 2553 1204 2497 
Q 953 2441 691 2322 
L 691 4666 
z
" transform="scale(0.015625)"/>
       </defs>
       <use xlink:href="#DejaVuSans-32"/>
       <use xlink:href="#DejaVuSans-35" x="63.623047"/>
      </g>
     </g>
    </g>
    <g id="xtick_3">
     <g id="line2d_5">
      <path d="M 155.404221 307.584 
L 155.404221 41.472 
" clip-path="url(#pf9bc42e574)" style="fill: none; stroke: #b0b0b0; stroke-width: 0.8; stroke-linecap: square"/>
     </g>
     <g id="line2d_6">
      <g>
       <use xlink:href="#mf740e7f4f2" x="155.404221" y="307.584" style="stroke: #000000; stroke-width: 0.8"/>
      </g>
     </g>
     <g id="text_3">
      <!-- 50 -->
      <g transform="translate(149.041721 322.182437) scale(0.1 -0.1)">
       <use xlink:href="#DejaVuSans-35"/>
       <use xlink:href="#DejaVuSans-30" x="63.623047"/>
      </g>
     </g>
    </g>
    <g id="xtick_4">
     <g id="line2d_7">
      <path d="M 196.189968 307.584 
L 196.189968 41.472 
" clip-path="url(#pf9bc42e574)" style="fill: none; stroke: #b0b0b0; stroke-width: 0.8; stroke-linecap: square"/>
     </g>
     <g id="line2d_8">
      <g>
       <use xlink:href="#mf740e7f4f2" x="196.189968" y="307.584" style="stroke: #000000; stroke-width: 0.8"/>
      </g>
     </g>
     <g id="text_4">
      <!-- 75 -->
      <g transform="translate(189.827468 322.182437) scale(0.1 -0.1)">
       <defs>
        <path id="DejaVuSans-37" d="M 525 4666 
L 3525 4666 
L 3525 4397 
L 1831 0 
L 1172 0 
L 2766 4134 
L 525 4134 
L 525 4666 
z
" transform="scale(0.015625)"/>
       </defs>
       <use xlink:href="#DejaVuSans-37"/>
       <use xlink:href="#DejaVuSans-35" x="63.623047"/>
      </g>
     </g>
    </g>
    <g id="xtick_5">
     <g id="line2d_9">
      <path d="M 236.975715 307.584 
L 236.975715 41.472 
" clip-path="url(#pf9bc42e574)" style="fill: none; stroke: #b0b0b0; stroke-width: 0.8; stroke-linecap: square"/>
     </g>
     <g id="line2d_10">
      <g>
       <use xlink:href="#mf740e7f4f2" x="236.975715" y="307.584" style="stroke: #000000; stroke-width: 0.8"/>
      </g>
     </g>
     <g id="text_5">
      <!-- 100 -->
      <g transform="translate(227.431965 322.182437) scale(0.1 -0.1)">
       <defs>
        <path id="DejaVuSans-31" d="M 794 531 
L 1825 531 
L 1825 4091 
L 703 3866 
L 703 4441 
L 1819 4666 
L 2450 4666 
L 2450 531 
L 3481 531 
L 3481 0 
L 794 0 
L 794 531 
z
" transform="scale(0.015625)"/>
       </defs>
       <use xlink:href="#DejaVuSans-31"/>
       <use xlink:href="#DejaVuSans-30" x="63.623047"/>
       <use xlink:href="#DejaVuSans-30" x="127.246094"/>
      </g>
     </g>
    </g>
    <g id="xtick_6">
     <g id="line2d_11">
      <path d="M 277.761462 307.584 
L 277.761462 41.472 
" clip-path="url(#pf9bc42e574)" style="fill: none; stroke: #b0b0b0; stroke-width: 0.8; stroke-linecap: square"/>
     </g>
     <g id="line2d_12">
      <g>
       <use xlink:href="#mf740e7f4f2" x="277.761462" y="307.584" style="stroke: #000000; stroke-width: 0.8"/>
      </g>
     </g>
     <g id="text_6">
      <!-- 125 -->
      <g transform="translate(268.217712 322.182437) scale(0.1 -0.1)">
       <use xlink:href="#DejaVuSans-31"/>
       <use xlink:href="#DejaVuSans-32" x="63.623047"/>
       <use xlink:href="#DejaVuSans-35" x="127.246094"/>
      </g>
     </g>
    </g>
    <g id="xtick_7">
     <g id="line2d_13">
      <path d="M 318.547209 307.584 
L 318.547209 41.472 
" clip-path="url(#pf9bc42e574)" style="fill: none; stroke: #b0b0b0; stroke-width: 0.8; stroke-linecap: square"/>
     </g>
     <g id="line2d_14">
      <g>
       <use xlink:href="#mf740e7f4f2" x="318.547209" y="307.584" style="stroke: #000000; stroke-width: 0.8"/>
      </g>
     </g>
     <g id="text_7">
      <!-- 150 -->
      <g transform="translate(309.003459 322.182437) scale(0.1 -0.1)">
       <use xlink:href="#DejaVuSans-31"/>
       <use xlink:href="#DejaVuSans-35" x="63.623047"/>
       <use xlink:href="#DejaVuSans-30" x="127.246094"/>
      </g>
     </g>
    </g>
    <g id="xtick_8">
     <g id="line2d_15">
      <path d="M 359.332956 307.584 
L 359.332956 41.472 
" clip-path="url(#pf9bc42e574)" style="fill: none; stroke: #b0b0b0; stroke-width: 0.8; stroke-linecap: square"/>
     </g>
     <g id="line2d_16">
      <g>
       <use xlink:href="#mf740e7f4f2" x="359.332956" y="307.584" style="stroke: #000000; stroke-width: 0.8"/>
      </g>
     </g>
     <g id="text_8">
      <!-- 175 -->
      <g transform="translate(349.789206 322.182437) scale(0.1 -0.1)">
       <use xlink:href="#DejaVuSans-31"/>
       <use xlink:href="#DejaVuSans-37" x="63.623047"/>
       <use xlink:href="#DejaVuSans-35" x="127.246094"/>
      </g>
     </g>
    </g>
    <g id="xtick_9">
     <g id="line2d_17">
      <path d="M 400.118703 307.584 
L 400.118703 41.472 
" clip-path="url(#pf9bc42e574)" style="fill: none; stroke: #b0b0b0; stroke-width: 0.8; stroke-linecap: square"/>
     </g>
     <g id="line2d_18">
      <g>
       <use xlink:href="#mf740e7f4f2" x="400.118703" y="307.584" style="stroke: #000000; stroke-width: 0.8"/>
      </g>
     </g>
     <g id="text_9">
      <!-- 200 -->
      <g transform="translate(390.574953 322.182437) scale(0.1 -0.1)">
       <use xlink:href="#DejaVuSans-32"/>
       <use xlink:href="#DejaVuSans-30" x="63.623047"/>
       <use xlink:href="#DejaVuSans-30" x="127.246094"/>
      </g>
     </g>
    </g>
    <g id="text_10">
     <!-- Generations -->
     <g transform="translate(205.662344 335.860562) scale(0.1 -0.1)">
      <defs>
       <path id="DejaVuSans-47" d="M 3809 666 
L 3809 1919 
L 2778 1919 
L 2778 2438 
L 4434 2438 
L 4434 434 
Q 4069 175 3628 42 
Q 3188 -91 2688 -91 
Q 1594 -91 976 548 
Q 359 1188 359 2328 
Q 359 3472 976 4111 
Q 1594 4750 2688 4750 
Q 3144 4750 3555 4637 
Q 3966 4525 4313 4306 
L 4313 3634 
Q 3963 3931 3569 4081 
Q 3175 4231 2741 4231 
Q 1884 4231 1454 3753 
Q 1025 3275 1025 2328 
Q 1025 1384 1454 906 
Q 1884 428 2741 428 
Q 3075 428 3337 486 
Q 3600 544 3809 666 
z
" transform="scale(0.015625)"/>
       <path id="DejaVuSans-65" d="M 3597 1894 
L 3597 1613 
L 953 1613 
Q 991 1019 1311 708 
Q 1631 397 2203 397 
Q 2534 397 2845 478 
Q 3156 559 3463 722 
L 3463 178 
Q 3153 47 2828 -22 
Q 2503 -91 2169 -91 
Q 1331 -91 842 396 
Q 353 884 353 1716 
Q 353 2575 817 3079 
Q 1281 3584 2069 3584 
Q 2775 3584 3186 3129 
Q 3597 2675 3597 1894 
z
M 3022 2063 
Q 3016 2534 2758 2815 
Q 2500 3097 2075 3097 
Q 1594 3097 1305 2825 
Q 1016 2553 972 2059 
L 3022 2063 
z
" transform="scale(0.015625)"/>
       <path id="DejaVuSans-6e" d="M 3513 2113 
L 3513 0 
L 2938 0 
L 2938 2094 
Q 2938 2591 2744 2837 
Q 2550 3084 2163 3084 
Q 1697 3084 1428 2787 
Q 1159 2491 1159 1978 
L 1159 0 
L 581 0 
L 581 3500 
L 1159 3500 
L 1159 2956 
Q 1366 3272 1645 3428 
Q 1925 3584 2291 3584 
Q 2894 3584 3203 3211 
Q 3513 2838 3513 2113 
z
" transform="scale(0.015625)"/>
       <path id="DejaVuSans-72" d="M 2631 2963 
Q 2534 3019 2420 3045 
Q 2306 3072 2169 3072 
Q 1681 3072 1420 2755 
Q 1159 2438 1159 1844 
L 1159 0 
L 581 0 
L 581 3500 
L 1159 3500 
L 1159 2956 
Q 1341 3275 1631 3429 
Q 1922 3584 2338 3584 
Q 2397 3584 2469 3576 
Q 2541 3569 2628 3553 
L 2631 2963 
z
" transform="scale(0.015625)"/>
       <path id="DejaVuSans-61" d="M 2194 1759 
Q 1497 1759 1228 1600 
Q 959 1441 959 1056 
Q 959 750 1161 570 
Q 1363 391 1709 391 
Q 2188 391 2477 730 
Q 2766 1069 2766 1631 
L 2766 1759 
L 2194 1759 
z
M 3341 1997 
L 3341 0 
L 2766 0 
L 2766 531 
Q 2569 213 2275 61 
Q 1981 -91 1556 -91 
Q 1019 -91 701 211 
Q 384 513 384 1019 
Q 384 1609 779 1909 
Q 1175 2209 1959 2209 
L 2766 2209 
L 2766 2266 
Q 2766 2663 2505 2880 
Q 2244 3097 1772 3097 
Q 1472 3097 1187 3025 
Q 903 2953 641 2809 
L 641 3341 
Q 956 3463 1253 3523 
Q 1550 3584 1831 3584 
Q 2591 3584 2966 3190 
Q 3341 2797 3341 1997 
z
" transform="scale(0.015625)"/>
       <path id="DejaVuSans-74" d="M 1172 4494 
L 1172 3500 
L 2356 3500 
L 2356 3053 
L 1172 3053 
L 1172 1153 
Q 1172 725 1289 603 
Q 1406 481 1766 481 
L 2356 481 
L 2356 0 
L 1766 0 
Q 1100 0 847 248 
Q 594 497 594 1153 
L 594 3053 
L 172 3053 
L 172 3500 
L 594 3500 
L 594 4494 
L 1172 4494 
z
" transform="scale(0.015625)"/>
       <path id="DejaVuSans-69" d="M 603 3500 
L 1178 3500 
L 1178 0 
L 603 0 
L 603 3500 
z
M 603 4863 
L 1178 4863 
L 1178 4134 
L 603 4134 
L 603 4863 
z
" transform="scale(0.015625)"/>
       <path id="DejaVuSans-6f" d="M 1959 3097 
Q 1497 3097 1228 2736 
Q 959 2375 959 1747 
Q 959 1119 1226 758 
Q 1494 397 1959 397 
Q 2419 397 2687 759 
Q 2956 1122 2956 1747 
Q 2956 2369 2687 2733 
Q 2419 3097 1959 3097 
z
M 1959 3584 
Q 2709 3584 3137 3096 
Q 3566 2609 3566 1747 
Q 3566 888 3137 398 
Q 2709 -91 1959 -91 
Q 1206 -91 779 398 
Q 353 888 353 1747 
Q 353 2609 779 3096 
Q 1206 3584 1959 3584 
z
" transform="scale(0.015625)"/>
       <path id="DejaVuSans-73" d="M 2834 3397 
L 2834 2853 
Q 2591 2978 2328 3040 
Q 2066 3103 1784 3103 
Q 1356 3103 1142 2972 
Q 928 2841 928 2578 
Q 928 2378 1081 2264 
Q 1234 2150 1697 2047 
L 1894 2003 
Q 2506 1872 2764 1633 
Q 3022 1394 3022 966 
Q 3022 478 2636 193 
Q 2250 -91 1575 -91 
Q 1294 -91 989 -36 
Q 684 19 347 128 
L 347 722 
Q 666 556 975 473 
Q 1284 391 1588 391 
Q 1994 391 2212 530 
Q 2431 669 2431 922 
Q 2431 1156 2273 1281 
Q 2116 1406 1581 1522 
L 1381 1569 
Q 847 1681 609 1914 
Q 372 2147 372 2553 
Q 372 3047 722 3315 
Q 1072 3584 1716 3584 
Q 2034 3584 2315 3537 
Q 2597 3491 2834 3397 
z
" transform="scale(0.015625)"/>
      </defs>
      <use xlink:href="#DejaVuSans-47"/>
      <use xlink:href="#DejaVuSans-65" x="77.490234"/>
      <use xlink:href="#DejaVuSans-6e" x="139.013672"/>
      <use xlink:href="#DejaVuSans-65" x="202.392578"/>
      <use xlink:href="#DejaVuSans-72" x="263.916016"/>
      <use xlink:href="#DejaVuSans-61" x="305.029297"/>
      <use xlink:href="#DejaVuSans-74" x="366.308594"/>
      <use xlink:href="#DejaVuSans-69" x="405.517578"/>
      <use xlink:href="#DejaVuSans-6f" x="433.300781"/>
      <use xlink:href="#DejaVuSans-6e" x="494.482422"/>
      <use xlink:href="#DejaVuSans-73" x="557.861328"/>
     </g>
    </g>
   </g>
   <g id="matplotlib.axis_2">
    <g id="ytick_1">
     <g id="line2d_19">
      <path d="M 57.6 277.102885 
L 414.72 277.102885 
" clip-path="url(#pf9bc42e574)" style="fill: none; stroke: #b0b0b0; stroke-width: 0.8; stroke-linecap: square"/>
     </g>
     <g id="line2d_20">
      <defs>
       <path id="m190c43e329" d="M 0 0 
L -3.5 0 
" style="stroke: #000000; stroke-width: 0.8"/>
      </defs>
      <g>
       <use xlink:href="#m190c43e329" x="57.6" y="277.102885" style="stroke: #000000; stroke-width: 0.8"/>
      </g>
     </g>
     <g id="text_11">
      <!-- −2000 -->
      <g transform="translate(16.770313 280.902104) scale(0.1 -0.1)">
       <defs>
        <path id="DejaVuSans-2212" d="M 678 2272 
L 4684 2272 
L 4684 1741 
L 678 1741 
L 678 2272 
z
" transform="scale(0.015625)"/>
       </defs>
       <use xlink:href="#DejaVuSans-2212"/>
       <use xlink:href="#DejaVuSans-32" x="83.789062"/>
       <use xlink:href="#DejaVuSans-30" x="147.412109"/>
       <use xlink:href="#DejaVuSans-30" x="211.035156"/>
       <use xlink:href="#DejaVuSans-30" x="274.658203"/>
      </g>
     </g>
    </g>
    <g id="ytick_2">
     <g id="line2d_21">
      <path d="M 57.6 243.060822 
L 414.72 243.060822 
" clip-path="url(#pf9bc42e574)" style="fill: none; stroke: #b0b0b0; stroke-width: 0.8; stroke-linecap: square"/>
     </g>
     <g id="line2d_22">
      <g>
       <use xlink:href="#m190c43e329" x="57.6" y="243.060822" style="stroke: #000000; stroke-width: 0.8"/>
      </g>
     </g>
     <g id="text_12">
      <!-- −1750 -->
      <g transform="translate(16.770313 246.860041) scale(0.1 -0.1)">
       <use xlink:href="#DejaVuSans-2212"/>
       <use xlink:href="#DejaVuSans-31" x="83.789062"/>
       <use xlink:href="#DejaVuSans-37" x="147.412109"/>
       <use xlink:href="#DejaVuSans-35" x="211.035156"/>
       <use xlink:href="#DejaVuSans-30" x="274.658203"/>
      </g>
     </g>
    </g>
    <g id="ytick_3">
     <g id="line2d_23">
      <path d="M 57.6 209.018759 
L 414.72 209.018759 
" clip-path="url(#pf9bc42e574)" style="fill: none; stroke: #b0b0b0; stroke-width: 0.8; stroke-linecap: square"/>
     </g>
     <g id="line2d_24">
      <g>
       <use xlink:href="#m190c43e329" x="57.6" y="209.018759" style="stroke: #000000; stroke-width: 0.8"/>
      </g>
     </g>
     <g id="text_13">
      <!-- −1500 -->
      <g transform="translate(16.770313 212.817977) scale(0.1 -0.1)">
       <use xlink:href="#DejaVuSans-2212"/>
       <use xlink:href="#DejaVuSans-31" x="83.789062"/>
       <use xlink:href="#DejaVuSans-35" x="147.412109"/>
       <use xlink:href="#DejaVuSans-30" x="211.035156"/>
       <use xlink:href="#DejaVuSans-30" x="274.658203"/>
      </g>
     </g>
    </g>
    <g id="ytick_4">
     <g id="line2d_25">
      <path d="M 57.6 174.976695 
L 414.72 174.976695 
" clip-path="url(#pf9bc42e574)" style="fill: none; stroke: #b0b0b0; stroke-width: 0.8; stroke-linecap: square"/>
     </g>
     <g id="line2d_26">
      <g>
       <use xlink:href="#m190c43e329" x="57.6" y="174.976695" style="stroke: #000000; stroke-width: 0.8"/>
      </g>
     </g>
     <g id="text_14">
      <!-- −1250 -->
      <g transform="translate(16.770313 178.775914) scale(0.1 -0.1)">
       <use xlink:href="#DejaVuSans-2212"/>
       <use xlink:href="#DejaVuSans-31" x="83.789062"/>
       <use xlink:href="#DejaVuSans-32" x="147.412109"/>
       <use xlink:href="#DejaVuSans-35" x="211.035156"/>
       <use xlink:href="#DejaVuSans-30" x="274.658203"/>
      </g>
     </g>
    </g>
    <g id="ytick_5">
     <g id="line2d_27">
      <path d="M 57.6 140.934632 
L 414.72 140.934632 
" clip-path="url(#pf9bc42e574)" style="fill: none; stroke: #b0b0b0; stroke-width: 0.8; stroke-linecap: square"/>
     </g>
     <g id="line2d_28">
      <g>
       <use xlink:href="#m190c43e329" x="57.6" y="140.934632" style="stroke: #000000; stroke-width: 0.8"/>
      </g>
     </g>
     <g id="text_15">
      <!-- −1000 -->
      <g transform="translate(16.770313 144.733851) scale(0.1 -0.1)">
       <use xlink:href="#DejaVuSans-2212"/>
       <use xlink:href="#DejaVuSans-31" x="83.789062"/>
       <use xlink:href="#DejaVuSans-30" x="147.412109"/>
       <use xlink:href="#DejaVuSans-30" x="211.035156"/>
       <use xlink:href="#DejaVuSans-30" x="274.658203"/>
      </g>
     </g>
    </g>
    <g id="ytick_6">
     <g id="line2d_29">
      <path d="M 57.6 106.892569 
L 414.72 106.892569 
" clip-path="url(#pf9bc42e574)" style="fill: none; stroke: #b0b0b0; stroke-width: 0.8; stroke-linecap: square"/>
     </g>
     <g id="line2d_30">
      <g>
       <use xlink:href="#m190c43e329" x="57.6" y="106.892569" style="stroke: #000000; stroke-width: 0.8"/>
      </g>
     </g>
     <g id="text_16">
      <!-- −750 -->
      <g transform="translate(23.132812 110.691788) scale(0.1 -0.1)">
       <use xlink:href="#DejaVuSans-2212"/>
       <use xlink:href="#DejaVuSans-37" x="83.789062"/>
       <use xlink:href="#DejaVuSans-35" x="147.412109"/>
       <use xlink:href="#DejaVuSans-30" x="211.035156"/>
      </g>
     </g>
    </g>
    <g id="ytick_7">
     <g id="line2d_31">
      <path d="M 57.6 72.850506 
L 414.72 72.850506 
" clip-path="url(#pf9bc42e574)" style="fill: none; stroke: #b0b0b0; stroke-width: 0.8; stroke-linecap: square"/>
     </g>
     <g id="line2d_32">
      <g>
       <use xlink:href="#m190c43e329" x="57.6" y="72.850506" style="stroke: #000000; stroke-width: 0.8"/>
      </g>
     </g>
     <g id="text_17">
      <!-- −500 -->
      <g transform="translate(23.132812 76.649725) scale(0.1 -0.1)">
       <use xlink:href="#DejaVuSans-2212"/>
       <use xlink:href="#DejaVuSans-35" x="83.789062"/>
       <use xlink:href="#DejaVuSans-30" x="147.412109"/>
       <use xlink:href="#DejaVuSans-30" x="211.035156"/>
      </g>
     </g>
    </g>
    <g id="text_18">
     <!-- Fitness -->
     <g transform="translate(10.690625 191.845187) rotate(-90) scale(0.1 -0.1)">
      <defs>
       <path id="DejaVuSans-46" d="M 628 4666 
L 3309 4666 
L 3309 4134 
L 1259 4134 
L 1259 2759 
L 3109 2759 
L 3109 2228 
L 1259 2228 
L 1259 0 
L 628 0 
L 628 4666 
z
" transform="scale(0.015625)"/>
      </defs>
      <use xlink:href="#DejaVuSans-46"/>
      <use xlink:href="#DejaVuSans-69" x="50.269531"/>
      <use xlink:href="#DejaVuSans-74" x="78.052734"/>
      <use xlink:href="#DejaVuSans-6e" x="117.261719"/>
      <use xlink:href="#DejaVuSans-65" x="180.640625"/>
      <use xlink:href="#DejaVuSans-73" x="242.164062"/>
      <use xlink:href="#DejaVuSans-73" x="294.263672"/>
     </g>
    </g>
   </g>
   <g id="line2d_33">
    <path d="M 73.832727 257.954113 
L 75.464157 256.960078 
L 77.095587 252.691359 
L 78.727017 251.720057 
L 80.358447 249.227007 
L 81.989877 247.759736 
L 83.621307 247.339326 
L 85.252736 247.711038 
L 86.884166 247.485718 
L 88.515596 245.788954 
L 90.147026 238.378544 
L 91.778456 245.652156 
L 93.409886 246.907469 
L 95.041316 250.01323 
L 96.672746 250.66068 
L 98.304175 247.742254 
L 99.935605 249.504727 
L 101.567035 248.835275 
L 103.198465 246.29831 
L 104.829895 245.418012 
L 106.461325 249.518514 
L 108.092755 248.039457 
L 109.724185 249.668598 
L 111.355614 249.358903 
L 112.987044 249.390143 
L 114.618474 249.290776 
L 116.249904 250.880375 
L 117.881334 251.551534 
L 119.512764 250.062738 
L 121.144194 249.537643 
L 122.775624 251.108752 
L 124.407053 251.748365 
L 126.038483 248.965364 
L 127.669913 251.813123 
L 129.301343 250.199488 
L 130.932773 250.580832 
L 132.564203 248.93647 
L 134.195633 250.128634 
L 135.827063 248.139765 
L 137.458492 250.129586 
L 139.089922 249.104131 
L 140.721352 245.680208 
L 142.352782 250.697864 
L 143.984212 249.787902 
L 145.615642 249.394593 
L 147.247072 249.830358 
L 148.878502 246.433255 
L 150.509931 248.206041 
L 152.141361 248.893974 
L 153.772791 247.974488 
L 155.404221 248.382608 
L 157.035651 249.259364 
L 158.667081 249.45606 
L 160.298511 249.305253 
L 161.929941 245.471948 
L 163.56137 249.118595 
L 165.1928 248.658275 
L 166.82423 249.160112 
L 168.45566 245.472393 
L 170.08709 247.658864 
L 171.71852 249.121035 
L 173.34995 247.619001 
L 174.98138 249.473725 
L 176.61281 248.959808 
L 178.244239 247.800556 
L 179.875669 248.93392 
L 181.507099 246.598066 
L 184.769959 249.007427 
L 186.401389 249.016384 
L 188.032819 249.94843 
L 189.664249 249.140031 
L 191.295678 245.351341 
L 192.927108 247.413353 
L 194.558538 248.961522 
L 196.189968 247.125998 
L 197.821398 247.194517 
L 199.452828 248.991809 
L 201.084258 249.761673 
L 202.715688 250.870801 
L 204.347117 248.97183 
L 205.978547 250.21826 
L 207.609977 250.642638 
L 209.241407 251.281466 
L 212.504267 250.539327 
L 214.135697 250.759409 
L 217.398556 250.068437 
L 219.029986 251.504419 
L 220.661416 250.823769 
L 222.292846 249.133102 
L 223.924276 245.127181 
L 225.555706 243.180373 
L 227.187136 245.31998 
L 230.449995 251.333429 
L 232.081425 252.274524 
L 233.712855 252.59638 
L 235.344285 252.049988 
L 236.975715 252.294343 
L 238.607145 252.673539 
L 241.870005 253.085898 
L 243.501434 252.350967 
L 245.132864 252.33526 
L 246.764294 252.118846 
L 250.027154 252.288443 
L 251.658584 251.870374 
L 253.290014 251.941387 
L 256.552873 252.717746 
L 258.184303 251.88417 
L 259.815733 252.382259 
L 261.447163 250.260775 
L 263.078593 251.923817 
L 264.710023 252.031512 
L 266.341453 251.912818 
L 269.604312 252.961209 
L 271.235742 248.802912 
L 272.867172 252.51695 
L 274.498602 250.521285 
L 276.130032 251.880159 
L 277.761462 249.690933 
L 279.392892 247.91003 
L 281.024322 252.986929 
L 282.655751 251.072862 
L 284.287181 252.330448 
L 285.918611 252.397857 
L 287.550041 252.854255 
L 289.181471 252.710164 
L 290.812901 252.989576 
L 292.444331 251.179983 
L 294.075761 252.809889 
L 295.70719 253.175149 
L 297.33862 252.804987 
L 298.97005 252.969311 
L 300.60148 251.745859 
L 302.23291 252.781124 
L 303.86434 251.689718 
L 305.49577 251.555088 
L 307.1272 248.301872 
L 308.75863 247.947955 
L 310.390059 249.234849 
L 312.021489 249.007526 
L 313.652919 251.684577 
L 315.284349 247.439326 
L 316.915779 250.975951 
L 318.547209 250.828677 
L 320.178639 251.178787 
L 321.810069 250.586276 
L 323.441498 249.825375 
L 325.072928 249.960413 
L 326.704358 249.001013 
L 328.335788 248.864147 
L 329.967218 249.668345 
L 331.598648 251.72646 
L 333.230078 251.487469 
L 334.861508 251.394393 
L 336.492937 250.944377 
L 338.124367 251.63902 
L 341.387227 250.769279 
L 343.018657 247.470893 
L 344.650087 248.809611 
L 346.281517 249.123316 
L 347.912947 248.232509 
L 349.544376 250.102971 
L 351.175806 249.055671 
L 352.807236 249.764753 
L 354.438666 249.269441 
L 356.070096 247.239987 
L 357.701526 251.278534 
L 359.332956 249.716106 
L 360.964386 252.099154 
L 362.595815 251.315727 
L 364.227245 252.937257 
L 365.858675 252.68367 
L 367.490105 251.433382 
L 370.752965 249.380726 
L 372.384395 250.396777 
L 374.015825 249.78333 
L 375.647254 251.09257 
L 377.278684 250.243797 
L 378.910114 247.450645 
L 380.541544 250.65656 
L 382.172974 250.925104 
L 383.804404 250.931591 
L 385.435834 249.463465 
L 387.067264 245.871506 
L 388.698693 247.807458 
L 390.330123 243.633225 
L 391.961553 247.174754 
L 393.592983 249.691176 
L 395.224413 248.319001 
L 396.855843 248.684234 
L 398.487273 249.707516 
L 398.487273 249.707516 
" clip-path="url(#pf9bc42e574)" style="fill: none; stroke: #0000ff; stroke-width: 1.5; stroke-linecap: square"/>
   </g>
   <g id="line2d_34">
    <path d="M 73.832727 284.929046 
L 75.464157 286.107399 
L 77.095587 286.071728 
L 78.727017 289.798593 
L 81.989877 292.556887 
L 83.621307 292.140826 
L 85.252736 290.326981 
L 86.884166 288.806449 
L 88.515596 290.674584 
L 90.147026 294.007419 
L 91.778456 291.08858 
L 93.409886 290.73132 
L 95.041316 285.792434 
L 96.672746 286.993682 
L 98.304175 287.422458 
L 99.935605 285.631337 
L 101.567035 286.72106 
L 103.198465 288.295951 
L 104.829895 289.280863 
L 106.461325 287.370347 
L 108.092755 287.546101 
L 109.724185 288.044575 
L 111.355614 286.651018 
L 112.987044 287.362298 
L 114.618474 287.385128 
L 116.249904 285.512404 
L 117.881334 286.060391 
L 119.512764 284.146331 
L 121.144194 287.391649 
L 122.775624 285.358896 
L 126.038483 287.549045 
L 127.669913 285.713335 
L 129.301343 286.330475 
L 130.932773 286.675229 
L 132.564203 287.802055 
L 134.195633 287.678854 
L 135.827063 288.804655 
L 137.458492 288.393196 
L 139.089922 287.110046 
L 140.721352 288.579963 
L 142.352782 288.964013 
L 143.984212 287.395559 
L 145.615642 287.065056 
L 147.247072 287.616489 
L 148.878502 287.854175 
L 150.509931 287.81042 
L 152.141361 286.403336 
L 153.772791 288.194271 
L 155.404221 287.898517 
L 157.035651 287.483125 
L 158.667081 287.935697 
L 160.298511 287.147276 
L 161.929941 289.369558 
L 163.56137 286.883205 
L 165.1928 286.52756 
L 166.82423 287.356106 
L 168.45566 289.870994 
L 170.08709 289.698912 
L 171.71852 288.142302 
L 173.34995 291.245205 
L 174.98138 288.595022 
L 176.61281 288.325952 
L 178.244239 288.35237 
L 179.875669 288.064664 
L 181.507099 289.76031 
L 183.138529 290.58834 
L 184.769959 288.604533 
L 186.401389 288.179949 
L 188.032819 289.571417 
L 189.664249 288.574774 
L 191.295678 291.79439 
L 192.927108 291.005419 
L 194.558538 288.22408 
L 196.189968 288.786713 
L 197.821398 290.359193 
L 199.452828 288.78488 
L 201.084258 289.320303 
L 202.715688 285.505505 
L 204.347117 287.139326 
L 205.978547 284.778585 
L 209.241407 285.447708 
L 210.872837 284.791911 
L 212.504267 285.016282 
L 215.767127 284.772736 
L 217.398556 286.650349 
L 219.029986 286.210443 
L 220.661416 285.179607 
L 222.292846 287.172393 
L 223.924276 295.488 
L 225.555706 291.588323 
L 227.187136 291.631792 
L 228.818566 287.834604 
L 230.449995 285.768094 
L 232.081425 280.65258 
L 233.712855 281.064053 
L 235.344285 280.524218 
L 238.607145 280.845511 
L 240.238575 281.522838 
L 241.870005 281.684878 
L 243.501434 280.750203 
L 245.132864 280.468347 
L 248.395724 280.214414 
L 250.027154 280.565444 
L 251.658584 280.16479 
L 253.290014 280.08642 
L 254.921444 280.773553 
L 256.552873 281.097388 
L 258.184303 280.022593 
L 259.815733 280.816601 
L 261.447163 284.728873 
L 263.078593 280.217406 
L 264.710023 280.237069 
L 266.341453 280.043222 
L 267.972883 280.667557 
L 269.604312 281.827148 
L 271.235742 288.424414 
L 272.867172 281.106651 
L 274.498602 283.535541 
L 276.130032 280.317163 
L 277.761462 283.299693 
L 279.392892 285.345498 
L 281.024322 281.83642 
L 282.655751 284.022527 
L 284.287181 280.740265 
L 285.918611 281.007755 
L 287.550041 280.79735 
L 289.181471 281.487434 
L 290.812901 281.675182 
L 292.444331 285.485158 
L 294.075761 281.486548 
L 295.70719 281.797294 
L 297.33862 281.33796 
L 298.97005 281.396977 
L 300.60148 280.933937 
L 302.23291 281.324293 
L 303.86434 284.046667 
L 305.49577 284.026451 
L 307.1272 287.787949 
L 308.75863 285.949504 
L 310.390059 285.507484 
L 312.021489 285.25045 
L 313.652919 284.433542 
L 315.284349 288.629646 
L 316.915779 284.088087 
L 318.547209 283.689476 
L 320.178639 284.309001 
L 321.810069 283.225068 
L 325.072928 286.162946 
L 326.704358 285.480577 
L 328.335788 288.17825 
L 329.967218 284.018012 
L 331.598648 284.31145 
L 333.230078 284.369888 
L 336.492937 283.502033 
L 338.124367 283.888947 
L 339.755797 283.17983 
L 341.387227 286.722083 
L 343.018657 289.89036 
L 344.650087 284.163359 
L 347.912947 288.127367 
L 349.544376 284.537704 
L 351.175806 286.837419 
L 352.807236 284.768385 
L 354.438666 285.606542 
L 356.070096 287.653854 
L 357.701526 286.325422 
L 359.332956 287.25815 
L 360.964386 285.562591 
L 362.595815 284.726184 
L 364.227245 285.973041 
L 365.858675 285.802465 
L 369.121535 283.441398 
L 370.752965 288.189914 
L 372.384395 284.22262 
L 374.015825 287.259187 
L 375.647254 285.147931 
L 377.278684 284.015119 
L 378.910114 290.023616 
L 380.541544 283.872403 
L 382.172974 284.711718 
L 383.804404 284.893023 
L 385.435834 287.754638 
L 387.067264 290.276279 
L 388.698693 289.841307 
L 390.330123 291.576368 
L 391.961553 290.670583 
L 393.592983 287.274268 
L 395.224413 291.548315 
L 396.855843 288.823407 
L 398.487273 288.103963 
L 398.487273 288.103963 
" clip-path="url(#pf9bc42e574)" style="fill: none; stroke-dasharray: 9.6,2.4,1.5,2.4; stroke-dashoffset: 0; stroke: #008000; stroke-width: 1.5"/>
   </g>
   <g id="line2d_35">
    <path d="M 73.832727 230.97918 
L 75.464157 227.812757 
L 77.095587 219.310991 
L 78.727017 213.641522 
L 80.358447 207.220091 
L 81.989877 202.962585 
L 83.621307 202.537826 
L 85.252736 205.095095 
L 86.884166 206.164986 
L 88.515596 200.903323 
L 90.147026 182.749668 
L 91.778456 200.215733 
L 93.409886 203.083617 
L 95.041316 214.234026 
L 96.672746 214.327677 
L 98.304175 208.06205 
L 99.935605 213.378116 
L 101.567035 210.949491 
L 103.198465 204.30067 
L 104.829895 201.555161 
L 106.461325 211.666681 
L 108.092755 208.532814 
L 109.724185 211.292621 
L 111.355614 212.066788 
L 112.987044 211.417988 
L 114.618474 211.196425 
L 116.249904 216.248346 
L 117.881334 217.042677 
L 119.512764 215.979146 
L 121.144194 211.683637 
L 122.775624 216.858607 
L 124.407053 217.013184 
L 126.038483 210.381684 
L 127.669913 217.912912 
L 129.301343 214.0685 
L 130.932773 214.486434 
L 132.564203 210.070884 
L 134.195633 212.578413 
L 135.827063 207.474874 
L 137.458492 211.865977 
L 139.089922 211.098215 
L 140.721352 202.780452 
L 142.352782 212.431715 
L 143.984212 212.180245 
L 145.615642 211.72413 
L 147.247072 212.044227 
L 148.878502 205.012334 
L 150.509931 208.601663 
L 152.141361 211.384613 
L 153.772791 207.754704 
L 155.404221 208.8667 
L 157.035651 211.035603 
L 158.667081 210.976423 
L 160.298511 211.463231 
L 161.929941 201.574338 
L 163.56137 211.353985 
L 165.1928 210.78899 
L 166.82423 210.964118 
L 168.45566 201.073792 
L 171.71852 210.099768 
L 173.34995 203.992797 
L 174.98138 210.352428 
L 176.61281 209.593663 
L 178.244239 207.248743 
L 179.875669 209.803176 
L 181.507099 203.435822 
L 183.138529 205.096829 
L 184.769959 209.41032 
L 188.032819 210.325444 
L 189.664249 209.705288 
L 191.295678 198.908293 
L 192.927108 203.821288 
L 194.558538 209.698965 
L 196.189968 205.465283 
L 197.821398 204.029841 
L 199.452828 209.198738 
L 201.084258 210.203043 
L 202.715688 216.236098 
L 204.347117 210.804333 
L 205.978547 215.657935 
L 207.609977 216.156734 
L 209.241407 217.115225 
L 210.872837 217.05768 
L 212.504267 216.062372 
L 214.135697 216.58162 
L 215.767127 216.164516 
L 217.398556 213.486525 
L 219.029986 216.798396 
L 220.661416 216.467931 
L 222.292846 211.093811 
L 223.924276 194.766362 
L 225.555706 194.772422 
L 227.187136 199.008169 
L 228.818566 208.809067 
L 230.449995 216.898764 
L 232.081425 223.896469 
L 233.712855 224.128707 
L 235.344285 223.575758 
L 236.975715 223.87641 
L 238.607145 224.501567 
L 240.238575 224.305248 
L 241.870005 224.486918 
L 243.501434 223.951731 
L 245.132864 224.202174 
L 246.764294 223.925129 
L 248.395724 224.304383 
L 250.027154 224.011441 
L 251.658584 223.575959 
L 256.552873 224.338104 
L 258.184303 223.745747 
L 259.815733 223.947916 
L 261.447163 215.792677 
L 263.078593 223.630227 
L 264.710023 223.825954 
L 266.341453 223.782415 
L 267.972883 224.146448 
L 269.604312 224.095269 
L 271.235742 209.181411 
L 272.867172 223.927249 
L 274.498602 217.507029 
L 276.130032 223.443155 
L 277.761462 216.082173 
L 279.392892 210.474563 
L 281.024322 224.137439 
L 282.655751 218.123196 
L 284.287181 223.92063 
L 285.918611 223.78796 
L 287.550041 224.911161 
L 289.181471 223.932894 
L 290.812901 224.303971 
L 292.444331 216.874807 
L 294.075761 224.13323 
L 295.70719 224.553005 
L 297.33862 224.272014 
L 298.97005 224.541644 
L 300.60148 222.557781 
L 302.23291 224.237955 
L 303.86434 219.33277 
L 305.49577 219.083725 
L 307.1272 208.815796 
L 308.75863 209.946405 
L 310.390059 212.962214 
L 312.021489 212.764603 
L 313.652919 218.935613 
L 315.284349 206.249007 
L 316.915779 217.863814 
L 320.178639 218.048573 
L 321.810069 217.947483 
L 323.441498 214.908479 
L 326.704358 212.52145 
L 328.335788 209.550044 
L 329.967218 215.318677 
L 331.598648 219.14147 
L 333.230078 218.605051 
L 334.861508 218.822512 
L 336.492937 218.386722 
L 338.124367 219.389094 
L 339.755797 219.189503 
L 341.387227 214.816475 
L 343.018657 205.051425 
L 344.650087 213.455862 
L 346.281517 212.167905 
L 347.912947 208.337652 
L 349.544376 215.668238 
L 351.175806 211.273922 
L 352.807236 214.76112 
L 354.438666 212.93234 
L 356.070096 206.82612 
L 357.701526 216.231646 
L 359.332956 212.174062 
L 360.964386 218.635716 
L 362.595815 217.905271 
L 364.227245 219.901474 
L 365.858675 219.564874 
L 367.490105 218.295802 
L 369.121535 217.440176 
L 370.752965 210.571537 
L 372.384395 216.570934 
L 374.015825 212.307472 
L 375.647254 217.03721 
L 377.278684 216.472475 
L 378.910114 204.877674 
L 380.541544 217.440716 
L 382.172974 217.138491 
L 383.804404 216.970159 
L 385.435834 211.172291 
L 387.067264 201.466732 
L 388.698693 205.773609 
L 390.330123 195.690082 
L 393.592983 212.108085 
L 395.224413 205.089687 
L 396.855843 208.545061 
L 398.487273 211.311069 
L 398.487273 211.311069 
" clip-path="url(#pf9bc42e574)" style="fill: none; stroke-dasharray: 9.6,2.4,1.5,2.4; stroke-dashoffset: 0; stroke: #008000; stroke-width: 1.5"/>
   </g>
   <g id="line2d_36">
    <path d="M 73.832727 58.728788 
L 88.515596 58.728788 
L 90.147026 53.568 
L 398.487273 53.568 
L 398.487273 53.568 
" clip-path="url(#pf9bc42e574)" style="fill: none; stroke: #ff0000; stroke-width: 1.5; stroke-linecap: square"/>
   </g>
   <g id="patch_3">
    <path d="M 57.6 307.584 
L 57.6 41.472 
" style="fill: none; stroke: #000000; stroke-width: 0.8; stroke-linejoin: miter; stroke-linecap: square"/>
   </g>
   <g id="patch_4">
    <path d="M 414.72 307.584 
L 414.72 41.472 
" style="fill: none; stroke: #000000; stroke-width: 0.8; stroke-linejoin: miter; stroke-linecap: square"/>
   </g>
   <g id="patch_5">
    <path d="M 57.6 307.584 
L 414.72 307.584 
" style="fill: none; stroke: #000000; stroke-width: 0.8; stroke-linejoin: miter; stroke-linecap: square"/>
   </g>
   <g id="patch_6">
    <path d="M 57.6 41.472 
L 414.72 41.472 
" style="fill: none; stroke: #000000; stroke-width: 0.8; stroke-linejoin: miter; stroke-linecap: square"/>
   </g>
   <g id="text_19">
    <!-- Population's average and best fitness -->
    <g transform="translate(123.529687 35.472) scale(0.12 -0.12)">
     <defs>
      <path id="DejaVuSans-50" d="M 1259 4147 
L 1259 2394 
L 2053 2394 
Q 2494 2394 2734 2622 
Q 2975 2850 2975 3272 
Q 2975 3691 2734 3919 
Q 2494 4147 2053 4147 
L 1259 4147 
z
M 628 4666 
L 2053 4666 
Q 2838 4666 3239 4311 
Q 3641 3956 3641 3272 
Q 3641 2581 3239 2228 
Q 2838 1875 2053 1875 
L 1259 1875 
L 1259 0 
L 628 0 
L 628 4666 
z
" transform="scale(0.015625)"/>
      <path id="DejaVuSans-70" d="M 1159 525 
L 1159 -1331 
L 581 -1331 
L 581 3500 
L 1159 3500 
L 1159 2969 
Q 1341 3281 1617 3432 
Q 1894 3584 2278 3584 
Q 2916 3584 3314 3078 
Q 3713 2572 3713 1747 
Q 3713 922 3314 415 
Q 2916 -91 2278 -91 
Q 1894 -91 1617 61 
Q 1341 213 1159 525 
z
M 3116 1747 
Q 3116 2381 2855 2742 
Q 2594 3103 2138 3103 
Q 1681 3103 1420 2742 
Q 1159 2381 1159 1747 
Q 1159 1113 1420 752 
Q 1681 391 2138 391 
Q 2594 391 2855 752 
Q 3116 1113 3116 1747 
z
" transform="scale(0.015625)"/>
      <path id="DejaVuSans-75" d="M 544 1381 
L 544 3500 
L 1119 3500 
L 1119 1403 
Q 1119 906 1312 657 
Q 1506 409 1894 409 
Q 2359 409 2629 706 
Q 2900 1003 2900 1516 
L 2900 3500 
L 3475 3500 
L 3475 0 
L 2900 0 
L 2900 538 
Q 2691 219 2414 64 
Q 2138 -91 1772 -91 
Q 1169 -91 856 284 
Q 544 659 544 1381 
z
M 1991 3584 
L 1991 3584 
z
" transform="scale(0.015625)"/>
      <path id="DejaVuSans-6c" d="M 603 4863 
L 1178 4863 
L 1178 0 
L 603 0 
L 603 4863 
z
" transform="scale(0.015625)"/>
      <path id="DejaVuSans-27" d="M 1147 4666 
L 1147 2931 
L 616 2931 
L 616 4666 
L 1147 4666 
z
" transform="scale(0.015625)"/>
      <path id="DejaVuSans-20" transform="scale(0.015625)"/>
      <path id="DejaVuSans-76" d="M 191 3500 
L 800 3500 
L 1894 563 
L 2988 3500 
L 3597 3500 
L 2284 0 
L 1503 0 
L 191 3500 
z
" transform="scale(0.015625)"/>
      <path id="DejaVuSans-67" d="M 2906 1791 
Q 2906 2416 2648 2759 
Q 2391 3103 1925 3103 
Q 1463 3103 1205 2759 
Q 947 2416 947 1791 
Q 947 1169 1205 825 
Q 1463 481 1925 481 
Q 2391 481 2648 825 
Q 2906 1169 2906 1791 
z
M 3481 434 
Q 3481 -459 3084 -895 
Q 2688 -1331 1869 -1331 
Q 1566 -1331 1297 -1286 
Q 1028 -1241 775 -1147 
L 775 -588 
Q 1028 -725 1275 -790 
Q 1522 -856 1778 -856 
Q 2344 -856 2625 -561 
Q 2906 -266 2906 331 
L 2906 616 
Q 2728 306 2450 153 
Q 2172 0 1784 0 
Q 1141 0 747 490 
Q 353 981 353 1791 
Q 353 2603 747 3093 
Q 1141 3584 1784 3584 
Q 2172 3584 2450 3431 
Q 2728 3278 2906 2969 
L 2906 3500 
L 3481 3500 
L 3481 434 
z
" transform="scale(0.015625)"/>
      <path id="DejaVuSans-64" d="M 2906 2969 
L 2906 4863 
L 3481 4863 
L 3481 0 
L 2906 0 
L 2906 525 
Q 2725 213 2448 61 
Q 2172 -91 1784 -91 
Q 1150 -91 751 415 
Q 353 922 353 1747 
Q 353 2572 751 3078 
Q 1150 3584 1784 3584 
Q 2172 3584 2448 3432 
Q 2725 3281 2906 2969 
z
M 947 1747 
Q 947 1113 1208 752 
Q 1469 391 1925 391 
Q 2381 391 2643 752 
Q 2906 1113 2906 1747 
Q 2906 2381 2643 2742 
Q 2381 3103 1925 3103 
Q 1469 3103 1208 2742 
Q 947 2381 947 1747 
z
" transform="scale(0.015625)"/>
      <path id="DejaVuSans-62" d="M 3116 1747 
Q 3116 2381 2855 2742 
Q 2594 3103 2138 3103 
Q 1681 3103 1420 2742 
Q 1159 2381 1159 1747 
Q 1159 1113 1420 752 
Q 1681 391 2138 391 
Q 2594 391 2855 752 
Q 3116 1113 3116 1747 
z
M 1159 2969 
Q 1341 3281 1617 3432 
Q 1894 3584 2278 3584 
Q 2916 3584 3314 3078 
Q 3713 2572 3713 1747 
Q 3713 922 3314 415 
Q 2916 -91 2278 -91 
Q 1894 -91 1617 61 
Q 1341 213 1159 525 
L 1159 0 
L 581 0 
L 581 4863 
L 1159 4863 
L 1159 2969 
z
" transform="scale(0.015625)"/>
      <path id="DejaVuSans-66" d="M 2375 4863 
L 2375 4384 
L 1825 4384 
Q 1516 4384 1395 4259 
Q 1275 4134 1275 3809 
L 1275 3500 
L 2222 3500 
L 2222 3053 
L 1275 3053 
L 1275 0 
L 697 0 
L 697 3053 
L 147 3053 
L 147 3500 
L 697 3500 
L 697 3744 
Q 697 4328 969 4595 
Q 1241 4863 1831 4863 
L 2375 4863 
z
" transform="scale(0.015625)"/>
     </defs>
     <use xlink:href="#DejaVuSans-50"/>
     <use xlink:href="#DejaVuSans-6f" x="56.677734"/>
     <use xlink:href="#DejaVuSans-70" x="117.859375"/>
     <use xlink:href="#DejaVuSans-75" x="181.335938"/>
     <use xlink:href="#DejaVuSans-6c" x="244.714844"/>
     <use xlink:href="#DejaVuSans-61" x="272.498047"/>
     <use xlink:href="#DejaVuSans-74" x="333.777344"/>
     <use xlink:href="#DejaVuSans-69" x="372.986328"/>
     <use xlink:href="#DejaVuSans-6f" x="400.769531"/>
     <use xlink:href="#DejaVuSans-6e" x="461.951172"/>
     <use xlink:href="#DejaVuSans-27" x="525.330078"/>
     <use xlink:href="#DejaVuSans-73" x="552.820312"/>
     <use xlink:href="#DejaVuSans-20" x="604.919922"/>
     <use xlink:href="#DejaVuSans-61" x="636.707031"/>
     <use xlink:href="#DejaVuSans-76" x="697.986328"/>
     <use xlink:href="#DejaVuSans-65" x="757.166016"/>
     <use xlink:href="#DejaVuSans-72" x="818.689453"/>
     <use xlink:href="#DejaVuSans-61" x="859.802734"/>
     <use xlink:href="#DejaVuSans-67" x="921.082031"/>
     <use xlink:href="#DejaVuSans-65" x="984.558594"/>
     <use xlink:href="#DejaVuSans-20" x="1046.082031"/>
     <use xlink:href="#DejaVuSans-61" x="1077.869141"/>
     <use xlink:href="#DejaVuSans-6e" x="1139.148438"/>
     <use xlink:href="#DejaVuSans-64" x="1202.527344"/>
     <use xlink:href="#DejaVuSans-20" x="1266.003906"/>
     <use xlink:href="#DejaVuSans-62" x="1297.791016"/>
     <use xlink:href="#DejaVuSans-65" x="1361.267578"/>
     <use xlink:href="#DejaVuSans-73" x="1422.791016"/>
     <use xlink:href="#DejaVuSans-74" x="1474.890625"/>
     <use xlink:href="#DejaVuSans-20" x="1514.099609"/>
     <use xlink:href="#DejaVuSans-66" x="1545.886719"/>
     <use xlink:href="#DejaVuSans-69" x="1581.091797"/>
     <use xlink:href="#DejaVuSans-74" x="1608.875"/>
     <use xlink:href="#DejaVuSans-6e" x="1648.083984"/>
     <use xlink:href="#DejaVuSans-65" x="1711.462891"/>
     <use xlink:href="#DejaVuSans-73" x="1772.986328"/>
     <use xlink:href="#DejaVuSans-73" x="1825.085938"/>
    </g>
   </g>
   <g id="legend_1">
    <g id="patch_7">
     <path d="M 199.689687 205.38425 
L 272.630313 205.38425 
Q 274.630313 205.38425 274.630313 203.38425 
L 274.630313 145.67175 
Q 274.630313 143.67175 272.630313 143.67175 
L 199.689687 143.67175 
Q 197.689687 143.67175 197.689687 145.67175 
L 197.689687 203.38425 
Q 197.689687 205.38425 199.689687 205.38425 
z
" style="fill: #ffffff; opacity: 0.8; stroke: #cccccc; stroke-linejoin: miter"/>
    </g>
    <g id="line2d_37">
     <path d="M 201.689687 151.770188 
L 211.689687 151.770188 
L 221.689687 151.770188 
" style="fill: none; stroke: #0000ff; stroke-width: 1.5; stroke-linecap: square"/>
    </g>
    <g id="text_20">
     <!-- average -->
     <g transform="translate(229.689687 155.270188) scale(0.1 -0.1)">
      <use xlink:href="#DejaVuSans-61"/>
      <use xlink:href="#DejaVuSans-76" x="61.279297"/>
      <use xlink:href="#DejaVuSans-65" x="120.458984"/>
      <use xlink:href="#DejaVuSans-72" x="181.982422"/>
      <use xlink:href="#DejaVuSans-61" x="223.095703"/>
      <use xlink:href="#DejaVuSans-67" x="284.375"/>
      <use xlink:href="#DejaVuSans-65" x="347.851562"/>
     </g>
    </g>
    <g id="line2d_38">
     <path d="M 201.689687 166.448313 
L 211.689687 166.448313 
L 221.689687 166.448313 
" style="fill: none; stroke-dasharray: 9.6,2.4,1.5,2.4; stroke-dashoffset: 0; stroke: #008000; stroke-width: 1.5"/>
    </g>
    <g id="text_21">
     <!-- -1 sd -->
     <g transform="translate(229.689687 169.948313) scale(0.1 -0.1)">
      <defs>
       <path id="DejaVuSans-2d" d="M 313 2009 
L 1997 2009 
L 1997 1497 
L 313 1497 
L 313 2009 
z
" transform="scale(0.015625)"/>
      </defs>
      <use xlink:href="#DejaVuSans-2d"/>
      <use xlink:href="#DejaVuSans-31" x="36.083984"/>
      <use xlink:href="#DejaVuSans-20" x="99.707031"/>
      <use xlink:href="#DejaVuSans-73" x="131.494141"/>
      <use xlink:href="#DejaVuSans-64" x="183.59375"/>
     </g>
    </g>
    <g id="line2d_39">
     <path d="M 201.689687 181.126438 
L 211.689687 181.126438 
L 221.689687 181.126438 
" style="fill: none; stroke-dasharray: 9.6,2.4,1.5,2.4; stroke-dashoffset: 0; stroke: #008000; stroke-width: 1.5"/>
    </g>
    <g id="text_22">
     <!-- +1 sd -->
     <g transform="translate(229.689687 184.626438) scale(0.1 -0.1)">
      <defs>
       <path id="DejaVuSans-2b" d="M 2944 4013 
L 2944 2272 
L 4684 2272 
L 4684 1741 
L 2944 1741 
L 2944 0 
L 2419 0 
L 2419 1741 
L 678 1741 
L 678 2272 
L 2419 2272 
L 2419 4013 
L 2944 4013 
z
" transform="scale(0.015625)"/>
      </defs>
      <use xlink:href="#DejaVuSans-2b"/>
      <use xlink:href="#DejaVuSans-31" x="83.789062"/>
      <use xlink:href="#DejaVuSans-20" x="147.412109"/>
      <use xlink:href="#DejaVuSans-73" x="179.199219"/>
      <use xlink:href="#DejaVuSans-64" x="231.298828"/>
     </g>
    </g>
    <g id="line2d_40">
     <path d="M 201.689687 195.804563 
L 211.689687 195.804563 
L 221.689687 195.804563 
" style="fill: none; stroke: #ff0000; stroke-width: 1.5; stroke-linecap: square"/>
    </g>
    <g id="text_23">
     <!-- best -->
     <g transform="translate(229.689687 199.304563) scale(0.1 -0.1)">
      <use xlink:href="#DejaVuSans-62"/>
      <use xlink:href="#DejaVuSans-65" x="63.476562"/>
      <use xlink:href="#DejaVuSans-73" x="125"/>
      <use xlink:href="#DejaVuSans-74" x="177.099609"/>
     </g>
    </g>
   </g>
  </g>
 </g>
 <defs>
  <clipPath id="pf9bc42e574">
   <rect x="57.6" y="41.472" width="357.12" height="266.112"/>
  </clipPath>
 </defs>
</svg>
