<?xml version="1.0" encoding="utf-8" standalone="no"?>
<!DOCTYPE svg PUBLIC "-//W3C//DTD SVG 1.1//EN"
  "http://www.w3.org/Graphics/SVG/1.1/DTD/svg11.dtd">
<svg xmlns:xlink="http://www.w3.org/1999/xlink" width="460.8pt" height="345.6pt" viewBox="0 0 460.8 345.6" xmlns="http://www.w3.org/2000/svg" version="1.1">
 <metadata>
  <rdf:RDF xmlns:dc="http://purl.org/dc/elements/1.1/" xmlns:cc="http://creativecommons.org/ns#" xmlns:rdf="http://www.w3.org/1999/02/22-rdf-syntax-ns#">
   <cc:Work>
    <dc:type rdf:resource="http://purl.org/dc/dcmitype/StillImage"/>
    <dc:date>2024-08-09T16:41:38.249398</dc:date>
    <dc:format>image/svg+xml</dc:format>
    <dc:creator>
     <cc:Agent>
      <dc:title>Matplotlib v3.8.4, https://matplotlib.org/</dc:title>
     </cc:Agent>
    </dc:creator>
   </cc:Work>
  </rdf:RDF>
 </metadata>
 <defs>
  <style type="text/css">*{stroke-linejoin: round; stroke-linecap: butt}</style>
 </defs>
 <g id="figure_1">
  <g id="patch_1">
   <path d="M 0 345.6 
L 460.8 345.6 
L 460.8 0 
L 0 0 
z
" style="fill: #ffffff"/>
  </g>
  <g id="axes_1">
   <g id="patch_2">
    <path d="M 57.6 307.584 
L 414.72 307.584 
L 414.72 41.472 
L 57.6 41.472 
z
" style="fill: #ffffff"/>
   </g>
   <g id="matplotlib.axis_1">
    <g id="xtick_1">
     <g id="line2d_1">
      <path d="M 73.832727 307.584 
L 73.832727 41.472 
" clip-path="url(#pfb4ad33728)" style="fill: none; stroke: #b0b0b0; stroke-width: 0.8; stroke-linecap: square"/>
     </g>
     <g id="line2d_2">
      <defs>
       <path id="mb9b0378ae8" d="M 0 0 
L 0 3.5 
" style="stroke: #000000; stroke-width: 0.8"/>
      </defs>
      <g>
       <use xlink:href="#mb9b0378ae8" x="73.832727" y="307.584" style="stroke: #000000; stroke-width: 0.8"/>
      </g>
     </g>
     <g id="text_1">
      <!-- 0 -->
      <g transform="translate(70.651477 322.182437) scale(0.1 -0.1)">
       <defs>
        <path id="DejaVuSans-30" d="M 2034 4250 
Q 1547 4250 1301 3770 
Q 1056 3291 1056 2328 
Q 1056 1369 1301 889 
Q 1547 409 2034 409 
Q 2525 409 2770 889 
Q 3016 1369 3016 2328 
Q 3016 3291 2770 3770 
Q 2525 4250 2034 4250 
z
M 2034 4750 
Q 2819 4750 3233 4129 
Q 3647 3509 3647 2328 
Q 3647 1150 3233 529 
Q 2819 -91 2034 -91 
Q 1250 -91 836 529 
Q 422 1150 422 2328 
Q 422 3509 836 4129 
Q 1250 4750 2034 4750 
z
" transform="scale(0.015625)"/>
       </defs>
       <use xlink:href="#DejaVuSans-30"/>
      </g>
     </g>
    </g>
    <g id="xtick_2">
     <g id="line2d_3">
      <path d="M 114.618474 307.584 
L 114.618474 41.472 
" clip-path="url(#pfb4ad33728)" style="fill: none; stroke: #b0b0b0; stroke-width: 0.8; stroke-linecap: square"/>
     </g>
     <g id="line2d_4">
      <g>
       <use xlink:href="#mb9b0378ae8" x="114.618474" y="307.584" style="stroke: #000000; stroke-width: 0.8"/>
      </g>
     </g>
     <g id="text_2">
      <!-- 25 -->
      <g transform="translate(108.255974 322.182437) scale(0.1 -0.1)">
       <defs>
        <path id="DejaVuSans-32" d="M 1228 531 
L 3431 531 
L 3431 0 
L 469 0 
L 469 531 
Q 828 903 1448 1529 
Q 2069 2156 2228 2338 
Q 2531 2678 2651 2914 
Q 2772 3150 2772 3378 
Q 2772 3750 2511 3984 
Q 2250 4219 1831 4219 
Q 1534 4219 1204 4116 
Q 875 4013 500 3803 
L 500 4441 
Q 881 4594 1212 4672 
Q 1544 4750 1819 4750 
Q 2544 4750 2975 4387 
Q 3406 4025 3406 3419 
Q 3406 3131 3298 2873 
Q 3191 2616 2906 2266 
Q 2828 2175 2409 1742 
Q 1991 1309 1228 531 
z
" transform="scale(0.015625)"/>
        <path id="DejaVuSans-35" d="M 691 4666 
L 3169 4666 
L 3169 4134 
L 1269 4134 
L 1269 2991 
Q 1406 3038 1543 3061 
Q 1681 3084 1819 3084 
Q 2600 3084 3056 2656 
Q 3513 2228 3513 1497 
Q 3513 744 3044 326 
Q 2575 -91 1722 -91 
Q 1428 -91 1123 -41 
Q 819 9 494 109 
L 494 744 
Q 775 591 1075 516 
Q 1375 441 1709 441 
Q 2250 441 2565 725 
Q 2881 1009 2881 1497 
Q 2881 1984 2565 2268 
Q 2250 2553 1709 2553 
Q 1456 2553 1204 2497 
Q 953 2441 691 2322 
L 691 4666 
z
" transform="scale(0.015625)"/>
       </defs>
       <use xlink:href="#DejaVuSans-32"/>
       <use xlink:href="#DejaVuSans-35" x="63.623047"/>
      </g>
     </g>
    </g>
    <g id="xtick_3">
     <g id="line2d_5">
      <path d="M 155.404221 307.584 
L 155.404221 41.472 
" clip-path="url(#pfb4ad33728)" style="fill: none; stroke: #b0b0b0; stroke-width: 0.8; stroke-linecap: square"/>
     </g>
     <g id="line2d_6">
      <g>
       <use xlink:href="#mb9b0378ae8" x="155.404221" y="307.584" style="stroke: #000000; stroke-width: 0.8"/>
      </g>
     </g>
     <g id="text_3">
      <!-- 50 -->
      <g transform="translate(149.041721 322.182437) scale(0.1 -0.1)">
       <use xlink:href="#DejaVuSans-35"/>
       <use xlink:href="#DejaVuSans-30" x="63.623047"/>
      </g>
     </g>
    </g>
    <g id="xtick_4">
     <g id="line2d_7">
      <path d="M 196.189968 307.584 
L 196.189968 41.472 
" clip-path="url(#pfb4ad33728)" style="fill: none; stroke: #b0b0b0; stroke-width: 0.8; stroke-linecap: square"/>
     </g>
     <g id="line2d_8">
      <g>
       <use xlink:href="#mb9b0378ae8" x="196.189968" y="307.584" style="stroke: #000000; stroke-width: 0.8"/>
      </g>
     </g>
     <g id="text_4">
      <!-- 75 -->
      <g transform="translate(189.827468 322.182437) scale(0.1 -0.1)">
       <defs>
        <path id="DejaVuSans-37" d="M 525 4666 
L 3525 4666 
L 3525 4397 
L 1831 0 
L 1172 0 
L 2766 4134 
L 525 4134 
L 525 4666 
z
" transform="scale(0.015625)"/>
       </defs>
       <use xlink:href="#DejaVuSans-37"/>
       <use xlink:href="#DejaVuSans-35" x="63.623047"/>
      </g>
     </g>
    </g>
    <g id="xtick_5">
     <g id="line2d_9">
      <path d="M 236.975715 307.584 
L 236.975715 41.472 
" clip-path="url(#pfb4ad33728)" style="fill: none; stroke: #b0b0b0; stroke-width: 0.8; stroke-linecap: square"/>
     </g>
     <g id="line2d_10">
      <g>
       <use xlink:href="#mb9b0378ae8" x="236.975715" y="307.584" style="stroke: #000000; stroke-width: 0.8"/>
      </g>
     </g>
     <g id="text_5">
      <!-- 100 -->
      <g transform="translate(227.431965 322.182437) scale(0.1 -0.1)">
       <defs>
        <path id="DejaVuSans-31" d="M 794 531 
L 1825 531 
L 1825 4091 
L 703 3866 
L 703 4441 
L 1819 4666 
L 2450 4666 
L 2450 531 
L 3481 531 
L 3481 0 
L 794 0 
L 794 531 
z
" transform="scale(0.015625)"/>
       </defs>
       <use xlink:href="#DejaVuSans-31"/>
       <use xlink:href="#DejaVuSans-30" x="63.623047"/>
       <use xlink:href="#DejaVuSans-30" x="127.246094"/>
      </g>
     </g>
    </g>
    <g id="xtick_6">
     <g id="line2d_11">
      <path d="M 277.761462 307.584 
L 277.761462 41.472 
" clip-path="url(#pfb4ad33728)" style="fill: none; stroke: #b0b0b0; stroke-width: 0.8; stroke-linecap: square"/>
     </g>
     <g id="line2d_12">
      <g>
       <use xlink:href="#mb9b0378ae8" x="277.761462" y="307.584" style="stroke: #000000; stroke-width: 0.8"/>
      </g>
     </g>
     <g id="text_6">
      <!-- 125 -->
      <g transform="translate(268.217712 322.182437) scale(0.1 -0.1)">
       <use xlink:href="#DejaVuSans-31"/>
       <use xlink:href="#DejaVuSans-32" x="63.623047"/>
       <use xlink:href="#DejaVuSans-35" x="127.246094"/>
      </g>
     </g>
    </g>
    <g id="xtick_7">
     <g id="line2d_13">
      <path d="M 318.547209 307.584 
L 318.547209 41.472 
" clip-path="url(#pfb4ad33728)" style="fill: none; stroke: #b0b0b0; stroke-width: 0.8; stroke-linecap: square"/>
     </g>
     <g id="line2d_14">
      <g>
       <use xlink:href="#mb9b0378ae8" x="318.547209" y="307.584" style="stroke: #000000; stroke-width: 0.8"/>
      </g>
     </g>
     <g id="text_7">
      <!-- 150 -->
      <g transform="translate(309.003459 322.182437) scale(0.1 -0.1)">
       <use xlink:href="#DejaVuSans-31"/>
       <use xlink:href="#DejaVuSans-35" x="63.623047"/>
       <use xlink:href="#DejaVuSans-30" x="127.246094"/>
      </g>
     </g>
    </g>
    <g id="xtick_8">
     <g id="line2d_15">
      <path d="M 359.332956 307.584 
L 359.332956 41.472 
" clip-path="url(#pfb4ad33728)" style="fill: none; stroke: #b0b0b0; stroke-width: 0.8; stroke-linecap: square"/>
     </g>
     <g id="line2d_16">
      <g>
       <use xlink:href="#mb9b0378ae8" x="359.332956" y="307.584" style="stroke: #000000; stroke-width: 0.8"/>
      </g>
     </g>
     <g id="text_8">
      <!-- 175 -->
      <g transform="translate(349.789206 322.182437) scale(0.1 -0.1)">
       <use xlink:href="#DejaVuSans-31"/>
       <use xlink:href="#DejaVuSans-37" x="63.623047"/>
       <use xlink:href="#DejaVuSans-35" x="127.246094"/>
      </g>
     </g>
    </g>
    <g id="xtick_9">
     <g id="line2d_17">
      <path d="M 400.118703 307.584 
L 400.118703 41.472 
" clip-path="url(#pfb4ad33728)" style="fill: none; stroke: #b0b0b0; stroke-width: 0.8; stroke-linecap: square"/>
     </g>
     <g id="line2d_18">
      <g>
       <use xlink:href="#mb9b0378ae8" x="400.118703" y="307.584" style="stroke: #000000; stroke-width: 0.8"/>
      </g>
     </g>
     <g id="text_9">
      <!-- 200 -->
      <g transform="translate(390.574953 322.182437) scale(0.1 -0.1)">
       <use xlink:href="#DejaVuSans-32"/>
       <use xlink:href="#DejaVuSans-30" x="63.623047"/>
       <use xlink:href="#DejaVuSans-30" x="127.246094"/>
      </g>
     </g>
    </g>
    <g id="text_10">
     <!-- Generations -->
     <g transform="translate(205.662344 335.860562) scale(0.1 -0.1)">
      <defs>
       <path id="DejaVuSans-47" d="M 3809 666 
L 3809 1919 
L 2778 1919 
L 2778 2438 
L 4434 2438 
L 4434 434 
Q 4069 175 3628 42 
Q 3188 -91 2688 -91 
Q 1594 -91 976 548 
Q 359 1188 359 2328 
Q 359 3472 976 4111 
Q 1594 4750 2688 4750 
Q 3144 4750 3555 4637 
Q 3966 4525 4313 4306 
L 4313 3634 
Q 3963 3931 3569 4081 
Q 3175 4231 2741 4231 
Q 1884 4231 1454 3753 
Q 1025 3275 1025 2328 
Q 1025 1384 1454 906 
Q 1884 428 2741 428 
Q 3075 428 3337 486 
Q 3600 544 3809 666 
z
" transform="scale(0.015625)"/>
       <path id="DejaVuSans-65" d="M 3597 1894 
L 3597 1613 
L 953 1613 
Q 991 1019 1311 708 
Q 1631 397 2203 397 
Q 2534 397 2845 478 
Q 3156 559 3463 722 
L 3463 178 
Q 3153 47 2828 -22 
Q 2503 -91 2169 -91 
Q 1331 -91 842 396 
Q 353 884 353 1716 
Q 353 2575 817 3079 
Q 1281 3584 2069 3584 
Q 2775 3584 3186 3129 
Q 3597 2675 3597 1894 
z
M 3022 2063 
Q 3016 2534 2758 2815 
Q 2500 3097 2075 3097 
Q 1594 3097 1305 2825 
Q 1016 2553 972 2059 
L 3022 2063 
z
" transform="scale(0.015625)"/>
       <path id="DejaVuSans-6e" d="M 3513 2113 
L 3513 0 
L 2938 0 
L 2938 2094 
Q 2938 2591 2744 2837 
Q 2550 3084 2163 3084 
Q 1697 3084 1428 2787 
Q 1159 2491 1159 1978 
L 1159 0 
L 581 0 
L 581 3500 
L 1159 3500 
L 1159 2956 
Q 1366 3272 1645 3428 
Q 1925 3584 2291 3584 
Q 2894 3584 3203 3211 
Q 3513 2838 3513 2113 
z
" transform="scale(0.015625)"/>
       <path id="DejaVuSans-72" d="M 2631 2963 
Q 2534 3019 2420 3045 
Q 2306 3072 2169 3072 
Q 1681 3072 1420 2755 
Q 1159 2438 1159 1844 
L 1159 0 
L 581 0 
L 581 3500 
L 1159 3500 
L 1159 2956 
Q 1341 3275 1631 3429 
Q 1922 3584 2338 3584 
Q 2397 3584 2469 3576 
Q 2541 3569 2628 3553 
L 2631 2963 
z
" transform="scale(0.015625)"/>
       <path id="DejaVuSans-61" d="M 2194 1759 
Q 1497 1759 1228 1600 
Q 959 1441 959 1056 
Q 959 750 1161 570 
Q 1363 391 1709 391 
Q 2188 391 2477 730 
Q 2766 1069 2766 1631 
L 2766 1759 
L 2194 1759 
z
M 3341 1997 
L 3341 0 
L 2766 0 
L 2766 531 
Q 2569 213 2275 61 
Q 1981 -91 1556 -91 
Q 1019 -91 701 211 
Q 384 513 384 1019 
Q 384 1609 779 1909 
Q 1175 2209 1959 2209 
L 2766 2209 
L 2766 2266 
Q 2766 2663 2505 2880 
Q 2244 3097 1772 3097 
Q 1472 3097 1187 3025 
Q 903 2953 641 2809 
L 641 3341 
Q 956 3463 1253 3523 
Q 1550 3584 1831 3584 
Q 2591 3584 2966 3190 
Q 3341 2797 3341 1997 
z
" transform="scale(0.015625)"/>
       <path id="DejaVuSans-74" d="M 1172 4494 
L 1172 3500 
L 2356 3500 
L 2356 3053 
L 1172 3053 
L 1172 1153 
Q 1172 725 1289 603 
Q 1406 481 1766 481 
L 2356 481 
L 2356 0 
L 1766 0 
Q 1100 0 847 248 
Q 594 497 594 1153 
L 594 3053 
L 172 3053 
L 172 3500 
L 594 3500 
L 594 4494 
L 1172 4494 
z
" transform="scale(0.015625)"/>
       <path id="DejaVuSans-69" d="M 603 3500 
L 1178 3500 
L 1178 0 
L 603 0 
L 603 3500 
z
M 603 4863 
L 1178 4863 
L 1178 4134 
L 603 4134 
L 603 4863 
z
" transform="scale(0.015625)"/>
       <path id="DejaVuSans-6f" d="M 1959 3097 
Q 1497 3097 1228 2736 
Q 959 2375 959 1747 
Q 959 1119 1226 758 
Q 1494 397 1959 397 
Q 2419 397 2687 759 
Q 2956 1122 2956 1747 
Q 2956 2369 2687 2733 
Q 2419 3097 1959 3097 
z
M 1959 3584 
Q 2709 3584 3137 3096 
Q 3566 2609 3566 1747 
Q 3566 888 3137 398 
Q 2709 -91 1959 -91 
Q 1206 -91 779 398 
Q 353 888 353 1747 
Q 353 2609 779 3096 
Q 1206 3584 1959 3584 
z
" transform="scale(0.015625)"/>
       <path id="DejaVuSans-73" d="M 2834 3397 
L 2834 2853 
Q 2591 2978 2328 3040 
Q 2066 3103 1784 3103 
Q 1356 3103 1142 2972 
Q 928 2841 928 2578 
Q 928 2378 1081 2264 
Q 1234 2150 1697 2047 
L 1894 2003 
Q 2506 1872 2764 1633 
Q 3022 1394 3022 966 
Q 3022 478 2636 193 
Q 2250 -91 1575 -91 
Q 1294 -91 989 -36 
Q 684 19 347 128 
L 347 722 
Q 666 556 975 473 
Q 1284 391 1588 391 
Q 1994 391 2212 530 
Q 2431 669 2431 922 
Q 2431 1156 2273 1281 
Q 2116 1406 1581 1522 
L 1381 1569 
Q 847 1681 609 1914 
Q 372 2147 372 2553 
Q 372 3047 722 3315 
Q 1072 3584 1716 3584 
Q 2034 3584 2315 3537 
Q 2597 3491 2834 3397 
z
" transform="scale(0.015625)"/>
      </defs>
      <use xlink:href="#DejaVuSans-47"/>
      <use xlink:href="#DejaVuSans-65" x="77.490234"/>
      <use xlink:href="#DejaVuSans-6e" x="139.013672"/>
      <use xlink:href="#DejaVuSans-65" x="202.392578"/>
      <use xlink:href="#DejaVuSans-72" x="263.916016"/>
      <use xlink:href="#DejaVuSans-61" x="305.029297"/>
      <use xlink:href="#DejaVuSans-74" x="366.308594"/>
      <use xlink:href="#DejaVuSans-69" x="405.517578"/>
      <use xlink:href="#DejaVuSans-6f" x="433.300781"/>
      <use xlink:href="#DejaVuSans-6e" x="494.482422"/>
      <use xlink:href="#DejaVuSans-73" x="557.861328"/>
     </g>
    </g>
   </g>
   <g id="matplotlib.axis_2">
    <g id="ytick_1">
     <g id="line2d_19">
      <path d="M 57.6 302.679382 
L 414.72 302.679382 
" clip-path="url(#pfb4ad33728)" style="fill: none; stroke: #b0b0b0; stroke-width: 0.8; stroke-linecap: square"/>
     </g>
     <g id="line2d_20">
      <defs>
       <path id="m0d40b92722" d="M 0 0 
L -3.5 0 
" style="stroke: #000000; stroke-width: 0.8"/>
      </defs>
      <g>
       <use xlink:href="#m0d40b92722" x="57.6" y="302.679382" style="stroke: #000000; stroke-width: 0.8"/>
      </g>
     </g>
     <g id="text_11">
      <!-- −2250 -->
      <g transform="translate(16.770313 306.478601) scale(0.1 -0.1)">
       <defs>
        <path id="DejaVuSans-2212" d="M 678 2272 
L 4684 2272 
L 4684 1741 
L 678 1741 
L 678 2272 
z
" transform="scale(0.015625)"/>
       </defs>
       <use xlink:href="#DejaVuSans-2212"/>
       <use xlink:href="#DejaVuSans-32" x="83.789062"/>
       <use xlink:href="#DejaVuSans-32" x="147.412109"/>
       <use xlink:href="#DejaVuSans-35" x="211.035156"/>
       <use xlink:href="#DejaVuSans-30" x="274.658203"/>
      </g>
     </g>
    </g>
    <g id="ytick_2">
     <g id="line2d_21">
      <path d="M 57.6 270.809325 
L 414.72 270.809325 
" clip-path="url(#pfb4ad33728)" style="fill: none; stroke: #b0b0b0; stroke-width: 0.8; stroke-linecap: square"/>
     </g>
     <g id="line2d_22">
      <g>
       <use xlink:href="#m0d40b92722" x="57.6" y="270.809325" style="stroke: #000000; stroke-width: 0.8"/>
      </g>
     </g>
     <g id="text_12">
      <!-- −2000 -->
      <g transform="translate(16.770313 274.608544) scale(0.1 -0.1)">
       <use xlink:href="#DejaVuSans-2212"/>
       <use xlink:href="#DejaVuSans-32" x="83.789062"/>
       <use xlink:href="#DejaVuSans-30" x="147.412109"/>
       <use xlink:href="#DejaVuSans-30" x="211.035156"/>
       <use xlink:href="#DejaVuSans-30" x="274.658203"/>
      </g>
     </g>
    </g>
    <g id="ytick_3">
     <g id="line2d_23">
      <path d="M 57.6 238.939269 
L 414.72 238.939269 
" clip-path="url(#pfb4ad33728)" style="fill: none; stroke: #b0b0b0; stroke-width: 0.8; stroke-linecap: square"/>
     </g>
     <g id="line2d_24">
      <g>
       <use xlink:href="#m0d40b92722" x="57.6" y="238.939269" style="stroke: #000000; stroke-width: 0.8"/>
      </g>
     </g>
     <g id="text_13">
      <!-- −1750 -->
      <g transform="translate(16.770313 242.738487) scale(0.1 -0.1)">
       <use xlink:href="#DejaVuSans-2212"/>
       <use xlink:href="#DejaVuSans-31" x="83.789062"/>
       <use xlink:href="#DejaVuSans-37" x="147.412109"/>
       <use xlink:href="#DejaVuSans-35" x="211.035156"/>
       <use xlink:href="#DejaVuSans-30" x="274.658203"/>
      </g>
     </g>
    </g>
    <g id="ytick_4">
     <g id="line2d_25">
      <path d="M 57.6 207.069212 
L 414.72 207.069212 
" clip-path="url(#pfb4ad33728)" style="fill: none; stroke: #b0b0b0; stroke-width: 0.8; stroke-linecap: square"/>
     </g>
     <g id="line2d_26">
      <g>
       <use xlink:href="#m0d40b92722" x="57.6" y="207.069212" style="stroke: #000000; stroke-width: 0.8"/>
      </g>
     </g>
     <g id="text_14">
      <!-- −1500 -->
      <g transform="translate(16.770313 210.868431) scale(0.1 -0.1)">
       <use xlink:href="#DejaVuSans-2212"/>
       <use xlink:href="#DejaVuSans-31" x="83.789062"/>
       <use xlink:href="#DejaVuSans-35" x="147.412109"/>
       <use xlink:href="#DejaVuSans-30" x="211.035156"/>
       <use xlink:href="#DejaVuSans-30" x="274.658203"/>
      </g>
     </g>
    </g>
    <g id="ytick_5">
     <g id="line2d_27">
      <path d="M 57.6 175.199156 
L 414.72 175.199156 
" clip-path="url(#pfb4ad33728)" style="fill: none; stroke: #b0b0b0; stroke-width: 0.8; stroke-linecap: square"/>
     </g>
     <g id="line2d_28">
      <g>
       <use xlink:href="#m0d40b92722" x="57.6" y="175.199156" style="stroke: #000000; stroke-width: 0.8"/>
      </g>
     </g>
     <g id="text_15">
      <!-- −1250 -->
      <g transform="translate(16.770313 178.998374) scale(0.1 -0.1)">
       <use xlink:href="#DejaVuSans-2212"/>
       <use xlink:href="#DejaVuSans-31" x="83.789062"/>
       <use xlink:href="#DejaVuSans-32" x="147.412109"/>
       <use xlink:href="#DejaVuSans-35" x="211.035156"/>
       <use xlink:href="#DejaVuSans-30" x="274.658203"/>
      </g>
     </g>
    </g>
    <g id="ytick_6">
     <g id="line2d_29">
      <path d="M 57.6 143.329099 
L 414.72 143.329099 
" clip-path="url(#pfb4ad33728)" style="fill: none; stroke: #b0b0b0; stroke-width: 0.8; stroke-linecap: square"/>
     </g>
     <g id="line2d_30">
      <g>
       <use xlink:href="#m0d40b92722" x="57.6" y="143.329099" style="stroke: #000000; stroke-width: 0.8"/>
      </g>
     </g>
     <g id="text_16">
      <!-- −1000 -->
      <g transform="translate(16.770313 147.128318) scale(0.1 -0.1)">
       <use xlink:href="#DejaVuSans-2212"/>
       <use xlink:href="#DejaVuSans-31" x="83.789062"/>
       <use xlink:href="#DejaVuSans-30" x="147.412109"/>
       <use xlink:href="#DejaVuSans-30" x="211.035156"/>
       <use xlink:href="#DejaVuSans-30" x="274.658203"/>
      </g>
     </g>
    </g>
    <g id="ytick_7">
     <g id="line2d_31">
      <path d="M 57.6 111.459042 
L 414.72 111.459042 
" clip-path="url(#pfb4ad33728)" style="fill: none; stroke: #b0b0b0; stroke-width: 0.8; stroke-linecap: square"/>
     </g>
     <g id="line2d_32">
      <g>
       <use xlink:href="#m0d40b92722" x="57.6" y="111.459042" style="stroke: #000000; stroke-width: 0.8"/>
      </g>
     </g>
     <g id="text_17">
      <!-- −750 -->
      <g transform="translate(23.132812 115.258261) scale(0.1 -0.1)">
       <use xlink:href="#DejaVuSans-2212"/>
       <use xlink:href="#DejaVuSans-37" x="83.789062"/>
       <use xlink:href="#DejaVuSans-35" x="147.412109"/>
       <use xlink:href="#DejaVuSans-30" x="211.035156"/>
      </g>
     </g>
    </g>
    <g id="ytick_8">
     <g id="line2d_33">
      <path d="M 57.6 79.588986 
L 414.72 79.588986 
" clip-path="url(#pfb4ad33728)" style="fill: none; stroke: #b0b0b0; stroke-width: 0.8; stroke-linecap: square"/>
     </g>
     <g id="line2d_34">
      <g>
       <use xlink:href="#m0d40b92722" x="57.6" y="79.588986" style="stroke: #000000; stroke-width: 0.8"/>
      </g>
     </g>
     <g id="text_18">
      <!-- −500 -->
      <g transform="translate(23.132812 83.388205) scale(0.1 -0.1)">
       <use xlink:href="#DejaVuSans-2212"/>
       <use xlink:href="#DejaVuSans-35" x="83.789062"/>
       <use xlink:href="#DejaVuSans-30" x="147.412109"/>
       <use xlink:href="#DejaVuSans-30" x="211.035156"/>
      </g>
     </g>
    </g>
    <g id="ytick_9">
     <g id="line2d_35">
      <path d="M 57.6 47.718929 
L 414.72 47.718929 
" clip-path="url(#pfb4ad33728)" style="fill: none; stroke: #b0b0b0; stroke-width: 0.8; stroke-linecap: square"/>
     </g>
     <g id="line2d_36">
      <g>
       <use xlink:href="#m0d40b92722" x="57.6" y="47.718929" style="stroke: #000000; stroke-width: 0.8"/>
      </g>
     </g>
     <g id="text_19">
      <!-- −250 -->
      <g transform="translate(23.132812 51.518148) scale(0.1 -0.1)">
       <use xlink:href="#DejaVuSans-2212"/>
       <use xlink:href="#DejaVuSans-32" x="83.789062"/>
       <use xlink:href="#DejaVuSans-35" x="147.412109"/>
       <use xlink:href="#DejaVuSans-30" x="211.035156"/>
      </g>
     </g>
    </g>
    <g id="text_20">
     <!-- Fitness -->
     <g transform="translate(10.690625 191.845187) rotate(-90) scale(0.1 -0.1)">
      <defs>
       <path id="DejaVuSans-46" d="M 628 4666 
L 3309 4666 
L 3309 4134 
L 1259 4134 
L 1259 2759 
L 3109 2759 
L 3109 2228 
L 1259 2228 
L 1259 0 
L 628 0 
L 628 4666 
z
" transform="scale(0.015625)"/>
      </defs>
      <use xlink:href="#DejaVuSans-46"/>
      <use xlink:href="#DejaVuSans-69" x="50.269531"/>
      <use xlink:href="#DejaVuSans-74" x="78.052734"/>
      <use xlink:href="#DejaVuSans-6e" x="117.261719"/>
      <use xlink:href="#DejaVuSans-65" x="180.640625"/>
      <use xlink:href="#DejaVuSans-73" x="242.164062"/>
      <use xlink:href="#DejaVuSans-73" x="294.263672"/>
     </g>
    </g>
   </g>
   <g id="line2d_37">
    <path d="M 73.832727 259.817028 
L 75.464157 252.894905 
L 77.095587 256.360239 
L 78.727017 253.885815 
L 80.358447 252.218669 
L 81.989877 248.395503 
L 83.621307 251.163779 
L 85.252736 247.651081 
L 86.884166 247.412924 
L 88.515596 250.276577 
L 90.147026 250.235371 
L 91.778456 249.461003 
L 93.409886 249.073172 
L 95.041316 247.938784 
L 96.672746 247.523809 
L 98.304175 247.930596 
L 99.935605 248.642723 
L 101.567035 247.05785 
L 103.198465 247.448518 
L 104.829895 248.294977 
L 106.461325 245.959894 
L 108.092755 251.36792 
L 109.724185 249.432801 
L 111.355614 246.439555 
L 112.987044 249.08409 
L 114.618474 248.169404 
L 116.249904 249.610361 
L 117.881334 247.752031 
L 119.512764 249.667607 
L 121.144194 249.090742 
L 122.775624 249.775257 
L 124.407053 248.827567 
L 126.038483 246.212651 
L 127.669913 249.233358 
L 129.301343 246.605118 
L 130.932773 246.652373 
L 132.564203 250.748929 
L 134.195633 249.764536 
L 137.458492 250.506408 
L 139.089922 250.246794 
L 140.721352 247.225379 
L 142.352782 249.538263 
L 143.984212 249.960116 
L 145.615642 249.430517 
L 147.247072 249.922655 
L 148.878502 249.018133 
L 150.509931 251.690305 
L 152.141361 250.190338 
L 153.772791 246.141159 
L 155.404221 250.148796 
L 157.035651 251.614446 
L 158.667081 252.685369 
L 160.298511 252.948144 
L 161.929941 254.176364 
L 163.56137 254.218858 
L 165.1928 251.724222 
L 166.82423 251.854073 
L 168.45566 251.57655 
L 170.08709 252.2778 
L 171.71852 249.625627 
L 173.34995 249.597507 
L 174.98138 250.021941 
L 176.61281 251.660467 
L 178.244239 251.934822 
L 179.875669 250.129778 
L 183.138529 247.55618 
L 184.769959 252.010989 
L 186.401389 246.935195 
L 188.032819 250.440263 
L 189.664249 249.183743 
L 191.295678 248.281532 
L 192.927108 249.007317 
L 194.558538 246.378219 
L 196.189968 247.715798 
L 197.821398 249.77189 
L 199.452828 250.122091 
L 202.715688 245.212472 
L 204.347117 246.559827 
L 205.978547 245.334712 
L 207.609977 247.095854 
L 209.241407 247.202479 
L 210.872837 245.786002 
L 212.504267 245.143355 
L 214.135697 248.084499 
L 215.767127 248.659948 
L 217.398556 250.84765 
L 219.029986 248.724036 
L 220.661416 246.285807 
L 222.292846 250.725627 
L 223.924276 247.587532 
L 225.555706 249.689212 
L 227.187136 247.722038 
L 228.818566 247.926781 
L 230.449995 248.782034 
L 232.081425 249.040074 
L 235.344285 249.927289 
L 236.975715 248.384757 
L 238.607145 247.156155 
L 241.870005 248.520749 
L 243.501434 250.210972 
L 245.132864 249.662389 
L 246.764294 249.241345 
L 248.395724 245.913722 
L 250.027154 246.082471 
L 251.658584 248.159883 
L 253.290014 251.009556 
L 254.921444 247.948898 
L 256.552873 246.160442 
L 258.184303 245.686672 
L 259.815733 249.797399 
L 261.447163 248.32183 
L 263.078593 250.947773 
L 264.710023 249.490738 
L 266.341453 249.044875 
L 267.972883 250.284251 
L 269.604312 249.719716 
L 271.235742 248.956946 
L 272.867172 248.429872 
L 274.498602 251.41282 
L 276.130032 249.569718 
L 277.761462 252.6932 
L 279.392892 249.357785 
L 281.024322 249.632607 
L 282.655751 247.766309 
L 284.287181 254.907208 
L 285.918611 252.382701 
L 287.550041 251.047907 
L 289.181471 250.28659 
L 290.812901 253.599003 
L 292.444331 249.758772 
L 294.075761 251.878365 
L 295.70719 251.408041 
L 297.33862 251.47509 
L 300.60148 251.919048 
L 302.23291 251.549621 
L 303.86434 252.487154 
L 305.49577 252.760029 
L 312.021489 249.975664 
L 313.652919 251.67149 
L 315.284349 250.019011 
L 316.915779 253.36907 
L 318.547209 252.287991 
L 320.178639 252.646706 
L 321.810069 251.517866 
L 323.441498 251.870007 
L 325.072928 250.683864 
L 326.704358 254.082824 
L 328.335788 251.504957 
L 329.967218 251.056275 
L 331.598648 253.399512 
L 333.230078 250.485869 
L 334.861508 251.520432 
L 336.492937 253.037888 
L 338.124367 251.05997 
L 339.755797 251.323517 
L 341.387227 247.768476 
L 343.018657 249.30181 
L 344.650087 247.861681 
L 346.281517 248.79453 
L 347.912947 245.823316 
L 349.544376 248.849413 
L 351.175806 247.926357 
L 352.807236 243.322565 
L 354.438666 244.808227 
L 356.070096 251.177155 
L 357.701526 251.416842 
L 359.332956 248.612406 
L 360.964386 249.509422 
L 362.595815 247.686121 
L 364.227245 245.056936 
L 365.858675 243.854715 
L 367.490105 245.861686 
L 369.121535 245.581741 
L 370.752965 247.812228 
L 372.384395 252.294732 
L 374.015825 251.050685 
L 375.647254 251.818891 
L 377.278684 249.155868 
L 378.910114 246.736307 
L 380.541544 249.937168 
L 382.172974 249.856071 
L 383.804404 250.175445 
L 385.435834 251.897291 
L 387.067264 250.827919 
L 388.698693 249.514215 
L 390.330123 251.468476 
L 391.961553 250.211424 
L 393.592983 249.69895 
L 395.224413 248.047487 
L 396.855843 248.320456 
L 398.487273 247.304771 
L 398.487273 247.304771 
" clip-path="url(#pfb4ad33728)" style="fill: none; stroke: #0000ff; stroke-width: 1.5; stroke-linecap: square"/>
   </g>
   <g id="line2d_38">
    <path d="M 73.832727 288.913354 
L 75.464157 290.108469 
L 77.095587 292.170088 
L 78.727017 288.986646 
L 80.358447 292.327311 
L 81.989877 292.671241 
L 83.621307 289.257733 
L 85.252736 292.031189 
L 86.884166 289.567035 
L 88.515596 290.038225 
L 90.147026 288.11063 
L 91.778456 284.247135 
L 93.409886 288.644204 
L 95.041316 286.824722 
L 96.672746 286.069503 
L 98.304175 290.671342 
L 99.935605 291.741348 
L 101.567035 288.589897 
L 103.198465 289.860254 
L 104.829895 291.623171 
L 106.461325 289.596669 
L 108.092755 289.873567 
L 109.724185 286.602023 
L 111.355614 285.981532 
L 112.987044 288.069976 
L 114.618474 290.978612 
L 116.249904 288.771476 
L 117.881334 285.500467 
L 119.512764 287.026379 
L 121.144194 287.974991 
L 122.775624 290.905551 
L 124.407053 287.66233 
L 126.038483 289.936612 
L 127.669913 289.769353 
L 129.301343 291.193363 
L 130.932773 289.954497 
L 132.564203 286.311643 
L 134.195633 288.134922 
L 135.827063 291.695116 
L 137.458492 287.938374 
L 139.089922 286.915768 
L 140.721352 285.390117 
L 142.352782 287.468566 
L 143.984212 286.668245 
L 145.615642 290.07405 
L 147.247072 289.612179 
L 148.878502 291.224493 
L 150.509931 291.848281 
L 152.141361 289.957004 
L 153.772791 293.676042 
L 155.404221 287.09702 
L 157.035651 286.385342 
L 158.667081 282.391042 
L 160.298511 283.031498 
L 161.929941 284.226097 
L 163.56137 286.42642 
L 165.1928 287.654494 
L 166.82423 285.295019 
L 168.45566 283.260357 
L 170.08709 283.626235 
L 171.71852 289.730192 
L 173.34995 286.566352 
L 174.98138 285.846914 
L 176.61281 286.226085 
L 178.244239 286.331387 
L 179.875669 284.378192 
L 181.507099 286.867525 
L 183.138529 288.398403 
L 184.769959 289.534153 
L 186.401389 287.744151 
L 188.032819 290.704035 
L 189.664249 289.248331 
L 191.295678 289.601236 
L 194.558538 293.631749 
L 196.189968 291.153119 
L 197.821398 291.413225 
L 199.452828 291.850673 
L 201.084258 290.840944 
L 202.715688 290.953098 
L 204.347117 290.105106 
L 205.978547 291.839496 
L 207.609977 291.550965 
L 209.241407 293.042133 
L 210.872837 290.910273 
L 212.504267 290.288699 
L 214.135697 295.488 
L 215.767127 292.418654 
L 217.398556 288.942638 
L 219.029986 287.586539 
L 220.661416 285.600671 
L 222.292846 289.190182 
L 223.924276 285.303266 
L 225.555706 289.95591 
L 227.187136 287.224327 
L 228.818566 287.077193 
L 230.449995 287.519973 
L 232.081425 287.166653 
L 233.712855 288.939215 
L 235.344285 289.246862 
L 236.975715 292.013207 
L 238.607145 290.474737 
L 240.238575 289.204378 
L 241.870005 291.840157 
L 243.501434 289.788088 
L 245.132864 289.255935 
L 246.764294 289.772862 
L 248.395724 289.934593 
L 250.027154 289.843012 
L 251.658584 291.506582 
L 253.290014 290.660197 
L 254.921444 291.609807 
L 256.552873 291.122522 
L 258.184303 294.446196 
L 259.815733 288.863562 
L 261.447163 288.663974 
L 263.078593 290.365431 
L 264.710023 289.306012 
L 266.341453 288.080356 
L 267.972883 290.681069 
L 269.604312 290.784695 
L 271.235742 283.781197 
L 272.867172 290.636903 
L 274.498602 286.653312 
L 276.130032 288.960158 
L 277.761462 291.810307 
L 279.392892 292.021584 
L 281.024322 291.676947 
L 282.655751 293.464655 
L 285.918611 287.76824 
L 287.550041 288.609828 
L 289.181471 291.194829 
L 290.812901 293.469417 
L 292.444331 294.592276 
L 294.075761 287.13975 
L 295.70719 286.615362 
L 297.33862 286.569923 
L 298.97005 286.924312 
L 300.60148 286.909245 
L 302.23291 286.532663 
L 303.86434 287.945995 
L 305.49577 288.775464 
L 307.1272 287.664927 
L 308.75863 286.128479 
L 310.390059 288.720706 
L 312.021489 287.298607 
L 313.652919 289.802797 
L 315.284349 287.555113 
L 316.915779 287.787595 
L 318.547209 287.016547 
L 320.178639 287.184632 
L 321.810069 289.714541 
L 323.441498 290.898038 
L 325.072928 289.404379 
L 326.704358 289.113716 
L 328.335788 290.542792 
L 329.967218 286.234613 
L 331.598648 289.032384 
L 333.230078 283.887796 
L 334.861508 285.422611 
L 336.492937 286.635519 
L 338.124367 287.702583 
L 339.755797 288.374112 
L 341.387227 286.813181 
L 343.018657 287.21323 
L 344.650087 287.789211 
L 346.281517 289.90566 
L 347.912947 293.681315 
L 349.544376 291.311937 
L 351.175806 293.241958 
L 352.807236 292.954034 
L 354.438666 293.418085 
L 357.701526 292.303087 
L 360.964386 288.203792 
L 362.595815 287.83859 
L 364.227245 291.691429 
L 365.858675 294.313461 
L 367.490105 291.005812 
L 369.121535 290.321433 
L 370.752965 292.559994 
L 372.384395 287.96772 
L 374.015825 287.479249 
L 375.647254 288.735631 
L 377.278684 288.512693 
L 378.910114 290.108661 
L 380.541544 286.83115 
L 382.172974 285.338488 
L 383.804404 285.861214 
L 385.435834 288.731621 
L 387.067264 286.801887 
L 388.698693 288.180581 
L 390.330123 287.836198 
L 393.592983 289.387218 
L 395.224413 288.677356 
L 398.487273 292.856216 
L 398.487273 292.856216 
" clip-path="url(#pfb4ad33728)" style="fill: none; stroke-dasharray: 9.6,2.4,1.5,2.4; stroke-dashoffset: 0; stroke: #008000; stroke-width: 1.5"/>
   </g>
   <g id="line2d_39">
    <path d="M 73.832727 230.720703 
L 75.464157 215.681341 
L 77.095587 220.55039 
L 78.727017 218.784983 
L 80.358447 212.110028 
L 81.989877 204.119766 
L 83.621307 213.069826 
L 85.252736 203.270973 
L 86.884166 205.258814 
L 88.515596 210.514929 
L 90.147026 212.360112 
L 91.778456 214.674872 
L 93.409886 209.50214 
L 95.041316 209.052845 
L 96.672746 208.978115 
L 98.304175 205.189851 
L 99.935605 205.544099 
L 101.567035 205.525804 
L 103.198465 205.036782 
L 104.829895 204.966783 
L 106.461325 202.323118 
L 108.092755 212.862272 
L 109.724185 212.263579 
L 111.355614 206.897578 
L 112.987044 210.098204 
L 114.618474 205.360196 
L 116.249904 210.449245 
L 117.881334 210.003595 
L 119.512764 212.308836 
L 121.144194 210.206494 
L 122.775624 208.644964 
L 124.407053 209.992804 
L 126.038483 202.488689 
L 127.669913 208.697362 
L 129.301343 202.016874 
L 130.932773 203.350248 
L 132.564203 215.186216 
L 134.195633 211.394149 
L 135.827063 208.472978 
L 137.458492 213.074442 
L 139.089922 213.57782 
L 140.721352 209.060641 
L 142.352782 211.60796 
L 143.984212 213.251986 
L 145.615642 208.786983 
L 147.247072 210.23313 
L 148.878502 206.811773 
L 150.509931 211.53233 
L 152.141361 210.423672 
L 153.772791 198.606277 
L 155.404221 213.200572 
L 157.035651 216.843551 
L 158.667081 222.979696 
L 160.298511 222.86479 
L 161.929941 224.12663 
L 163.56137 222.011296 
L 165.1928 215.79395 
L 166.82423 218.413127 
L 168.45566 219.892742 
L 170.08709 220.929365 
L 171.71852 209.521063 
L 173.34995 212.628662 
L 174.98138 214.196967 
L 176.61281 217.094848 
L 178.244239 217.538258 
L 179.875669 215.881363 
L 181.507099 210.76538 
L 183.138529 206.713958 
L 184.769959 214.487826 
L 186.401389 206.126239 
L 188.032819 210.176492 
L 189.664249 209.119154 
L 191.295678 206.961827 
L 192.927108 206.47106 
L 194.558538 199.12469 
L 196.189968 204.278476 
L 197.821398 208.130555 
L 199.452828 208.39351 
L 201.084258 204.39325 
L 202.715688 199.471846 
L 204.347117 203.014548 
L 205.978547 198.829927 
L 207.609977 202.640744 
L 209.241407 201.362824 
L 212.504267 199.998012 
L 214.135697 200.680999 
L 215.767127 204.901241 
L 217.398556 212.752662 
L 220.661416 206.970943 
L 222.292846 212.261072 
L 223.924276 209.871797 
L 225.555706 209.422514 
L 227.187136 208.219749 
L 228.818566 208.776369 
L 230.449995 210.044095 
L 232.081425 210.913494 
L 233.712855 209.937978 
L 235.344285 210.607716 
L 236.975715 204.756307 
L 238.607145 203.837572 
L 240.238575 206.407398 
L 241.870005 205.20134 
L 243.501434 210.633856 
L 245.132864 210.068844 
L 246.764294 208.709828 
L 248.395724 201.89285 
L 250.027154 202.32193 
L 251.658584 204.813184 
L 253.290014 211.358915 
L 254.921444 204.287988 
L 256.552873 201.198361 
L 258.184303 196.927149 
L 259.815733 210.731235 
L 261.447163 207.979686 
L 263.078593 211.530114 
L 264.710023 209.675464 
L 266.341453 210.009394 
L 267.972883 209.887433 
L 269.604312 208.654738 
L 271.235742 214.132695 
L 272.867172 206.22284 
L 274.498602 216.172329 
L 276.130032 210.179278 
L 277.761462 213.576094 
L 279.392892 206.693986 
L 281.024322 207.588267 
L 282.655751 202.067963 
L 284.287181 219.15782 
L 285.918611 216.997162 
L 287.550041 213.485987 
L 289.181471 209.378351 
L 290.812901 213.728589 
L 292.444331 204.925267 
L 294.075761 216.616981 
L 295.70719 216.200719 
L 298.97005 216.483071 
L 300.60148 216.928852 
L 302.23291 216.566578 
L 303.86434 217.028313 
L 307.1272 216.423614 
L 308.75863 216.533378 
L 310.390059 212.368506 
L 312.021489 212.65272 
L 313.652919 213.540182 
L 315.284349 212.482909 
L 316.915779 218.950545 
L 318.547209 217.559435 
L 320.178639 218.10878 
L 321.810069 213.321192 
L 323.441498 212.841976 
L 325.072928 211.963349 
L 326.704358 219.051932 
L 328.335788 212.467122 
L 329.967218 215.877936 
L 331.598648 217.766639 
L 333.230078 217.083942 
L 334.861508 217.618253 
L 336.492937 219.440258 
L 338.124367 214.417356 
L 339.755797 214.272923 
L 341.387227 208.723771 
L 343.018657 211.39039 
L 344.650087 207.934151 
L 346.281517 207.683401 
L 347.912947 197.965317 
L 349.544376 206.386888 
L 351.175806 202.610756 
L 352.807236 193.691095 
L 354.438666 196.198368 
L 356.070096 209.509438 
L 357.701526 210.530597 
L 359.332956 206.944145 
L 360.964386 210.815052 
L 362.595815 207.533653 
L 364.227245 198.422444 
L 365.858675 193.395969 
L 367.490105 200.71756 
L 369.121535 200.842049 
L 370.752965 203.064463 
L 372.384395 216.621745 
L 374.015825 214.622122 
L 375.647254 214.90215 
L 377.278684 209.799043 
L 378.910114 203.363953 
L 380.541544 213.043186 
L 382.172974 214.373653 
L 383.804404 214.489675 
L 385.435834 215.062961 
L 387.067264 214.853951 
L 388.698693 210.84785 
L 390.330123 215.100754 
L 391.961553 211.784118 
L 393.592983 210.010682 
L 395.224413 207.417618 
L 396.855843 205.934118 
L 398.487273 201.753326 
L 398.487273 201.753326 
" clip-path="url(#pfb4ad33728)" style="fill: none; stroke-dasharray: 9.6,2.4,1.5,2.4; stroke-dashoffset: 0; stroke: #008000; stroke-width: 1.5"/>
   </g>
   <g id="line2d_40">
    <path d="M 73.832727 65.093529 
L 78.727017 65.093529 
L 80.358447 63.869709 
L 98.304175 63.869709 
L 99.935605 62.003396 
L 127.669913 62.003396 
L 129.301343 61.624786 
L 145.615642 61.624786 
L 147.247072 58.428834 
L 152.141361 58.428834 
L 153.772791 56.53828 
L 290.812901 56.53828 
L 292.444331 53.568 
L 398.487273 53.568 
L 398.487273 53.568 
" clip-path="url(#pfb4ad33728)" style="fill: none; stroke: #ff0000; stroke-width: 1.5; stroke-linecap: square"/>
   </g>
   <g id="patch_3">
    <path d="M 57.6 307.584 
L 57.6 41.472 
" style="fill: none; stroke: #000000; stroke-width: 0.8; stroke-linejoin: miter; stroke-linecap: square"/>
   </g>
   <g id="patch_4">
    <path d="M 414.72 307.584 
L 414.72 41.472 
" style="fill: none; stroke: #000000; stroke-width: 0.8; stroke-linejoin: miter; stroke-linecap: square"/>
   </g>
   <g id="patch_5">
    <path d="M 57.6 307.584 
L 414.72 307.584 
" style="fill: none; stroke: #000000; stroke-width: 0.8; stroke-linejoin: miter; stroke-linecap: square"/>
   </g>
   <g id="patch_6">
    <path d="M 57.6 41.472 
L 414.72 41.472 
" style="fill: none; stroke: #000000; stroke-width: 0.8; stroke-linejoin: miter; stroke-linecap: square"/>
   </g>
   <g id="text_21">
    <!-- Population's average and best fitness -->
    <g transform="translate(123.529687 35.472) scale(0.12 -0.12)">
     <defs>
      <path id="DejaVuSans-50" d="M 1259 4147 
L 1259 2394 
L 2053 2394 
Q 2494 2394 2734 2622 
Q 2975 2850 2975 3272 
Q 2975 3691 2734 3919 
Q 2494 4147 2053 4147 
L 1259 4147 
z
M 628 4666 
L 2053 4666 
Q 2838 4666 3239 4311 
Q 3641 3956 3641 3272 
Q 3641 2581 3239 2228 
Q 2838 1875 2053 1875 
L 1259 1875 
L 1259 0 
L 628 0 
L 628 4666 
z
" transform="scale(0.015625)"/>
      <path id="DejaVuSans-70" d="M 1159 525 
L 1159 -1331 
L 581 -1331 
L 581 3500 
L 1159 3500 
L 1159 2969 
Q 1341 3281 1617 3432 
Q 1894 3584 2278 3584 
Q 2916 3584 3314 3078 
Q 3713 2572 3713 1747 
Q 3713 922 3314 415 
Q 2916 -91 2278 -91 
Q 1894 -91 1617 61 
Q 1341 213 1159 525 
z
M 3116 1747 
Q 3116 2381 2855 2742 
Q 2594 3103 2138 3103 
Q 1681 3103 1420 2742 
Q 1159 2381 1159 1747 
Q 1159 1113 1420 752 
Q 1681 391 2138 391 
Q 2594 391 2855 752 
Q 3116 1113 3116 1747 
z
" transform="scale(0.015625)"/>
      <path id="DejaVuSans-75" d="M 544 1381 
L 544 3500 
L 1119 3500 
L 1119 1403 
Q 1119 906 1312 657 
Q 1506 409 1894 409 
Q 2359 409 2629 706 
Q 2900 1003 2900 1516 
L 2900 3500 
L 3475 3500 
L 3475 0 
L 2900 0 
L 2900 538 
Q 2691 219 2414 64 
Q 2138 -91 1772 -91 
Q 1169 -91 856 284 
Q 544 659 544 1381 
z
M 1991 3584 
L 1991 3584 
z
" transform="scale(0.015625)"/>
      <path id="DejaVuSans-6c" d="M 603 4863 
L 1178 4863 
L 1178 0 
L 603 0 
L 603 4863 
z
" transform="scale(0.015625)"/>
      <path id="DejaVuSans-27" d="M 1147 4666 
L 1147 2931 
L 616 2931 
L 616 4666 
L 1147 4666 
z
" transform="scale(0.015625)"/>
      <path id="DejaVuSans-20" transform="scale(0.015625)"/>
      <path id="DejaVuSans-76" d="M 191 3500 
L 800 3500 
L 1894 563 
L 2988 3500 
L 3597 3500 
L 2284 0 
L 1503 0 
L 191 3500 
z
" transform="scale(0.015625)"/>
      <path id="DejaVuSans-67" d="M 2906 1791 
Q 2906 2416 2648 2759 
Q 2391 3103 1925 3103 
Q 1463 3103 1205 2759 
Q 947 2416 947 1791 
Q 947 1169 1205 825 
Q 1463 481 1925 481 
Q 2391 481 2648 825 
Q 2906 1169 2906 1791 
z
M 3481 434 
Q 3481 -459 3084 -895 
Q 2688 -1331 1869 -1331 
Q 1566 -1331 1297 -1286 
Q 1028 -1241 775 -1147 
L 775 -588 
Q 1028 -725 1275 -790 
Q 1522 -856 1778 -856 
Q 2344 -856 2625 -561 
Q 2906 -266 2906 331 
L 2906 616 
Q 2728 306 2450 153 
Q 2172 0 1784 0 
Q 1141 0 747 490 
Q 353 981 353 1791 
Q 353 2603 747 3093 
Q 1141 3584 1784 3584 
Q 2172 3584 2450 3431 
Q 2728 3278 2906 2969 
L 2906 3500 
L 3481 3500 
L 3481 434 
z
" transform="scale(0.015625)"/>
      <path id="DejaVuSans-64" d="M 2906 2969 
L 2906 4863 
L 3481 4863 
L 3481 0 
L 2906 0 
L 2906 525 
Q 2725 213 2448 61 
Q 2172 -91 1784 -91 
Q 1150 -91 751 415 
Q 353 922 353 1747 
Q 353 2572 751 3078 
Q 1150 3584 1784 3584 
Q 2172 3584 2448 3432 
Q 2725 3281 2906 2969 
z
M 947 1747 
Q 947 1113 1208 752 
Q 1469 391 1925 391 
Q 2381 391 2643 752 
Q 2906 1113 2906 1747 
Q 2906 2381 2643 2742 
Q 2381 3103 1925 3103 
Q 1469 3103 1208 2742 
Q 947 2381 947 1747 
z
" transform="scale(0.015625)"/>
      <path id="DejaVuSans-62" d="M 3116 1747 
Q 3116 2381 2855 2742 
Q 2594 3103 2138 3103 
Q 1681 3103 1420 2742 
Q 1159 2381 1159 1747 
Q 1159 1113 1420 752 
Q 1681 391 2138 391 
Q 2594 391 2855 752 
Q 3116 1113 3116 1747 
z
M 1159 2969 
Q 1341 3281 1617 3432 
Q 1894 3584 2278 3584 
Q 2916 3584 3314 3078 
Q 3713 2572 3713 1747 
Q 3713 922 3314 415 
Q 2916 -91 2278 -91 
Q 1894 -91 1617 61 
Q 1341 213 1159 525 
L 1159 0 
L 581 0 
L 581 4863 
L 1159 4863 
L 1159 2969 
z
" transform="scale(0.015625)"/>
      <path id="DejaVuSans-66" d="M 2375 4863 
L 2375 4384 
L 1825 4384 
Q 1516 4384 1395 4259 
Q 1275 4134 1275 3809 
L 1275 3500 
L 2222 3500 
L 2222 3053 
L 1275 3053 
L 1275 0 
L 697 0 
L 697 3053 
L 147 3053 
L 147 3500 
L 697 3500 
L 697 3744 
Q 697 4328 969 4595 
Q 1241 4863 1831 4863 
L 2375 4863 
z
" transform="scale(0.015625)"/>
     </defs>
     <use xlink:href="#DejaVuSans-50"/>
     <use xlink:href="#DejaVuSans-6f" x="56.677734"/>
     <use xlink:href="#DejaVuSans-70" x="117.859375"/>
     <use xlink:href="#DejaVuSans-75" x="181.335938"/>
     <use xlink:href="#DejaVuSans-6c" x="244.714844"/>
     <use xlink:href="#DejaVuSans-61" x="272.498047"/>
     <use xlink:href="#DejaVuSans-74" x="333.777344"/>
     <use xlink:href="#DejaVuSans-69" x="372.986328"/>
     <use xlink:href="#DejaVuSans-6f" x="400.769531"/>
     <use xlink:href="#DejaVuSans-6e" x="461.951172"/>
     <use xlink:href="#DejaVuSans-27" x="525.330078"/>
     <use xlink:href="#DejaVuSans-73" x="552.820312"/>
     <use xlink:href="#DejaVuSans-20" x="604.919922"/>
     <use xlink:href="#DejaVuSans-61" x="636.707031"/>
     <use xlink:href="#DejaVuSans-76" x="697.986328"/>
     <use xlink:href="#DejaVuSans-65" x="757.166016"/>
     <use xlink:href="#DejaVuSans-72" x="818.689453"/>
     <use xlink:href="#DejaVuSans-61" x="859.802734"/>
     <use xlink:href="#DejaVuSans-67" x="921.082031"/>
     <use xlink:href="#DejaVuSans-65" x="984.558594"/>
     <use xlink:href="#DejaVuSans-20" x="1046.082031"/>
     <use xlink:href="#DejaVuSans-61" x="1077.869141"/>
     <use xlink:href="#DejaVuSans-6e" x="1139.148438"/>
     <use xlink:href="#DejaVuSans-64" x="1202.527344"/>
     <use xlink:href="#DejaVuSans-20" x="1266.003906"/>
     <use xlink:href="#DejaVuSans-62" x="1297.791016"/>
     <use xlink:href="#DejaVuSans-65" x="1361.267578"/>
     <use xlink:href="#DejaVuSans-73" x="1422.791016"/>
     <use xlink:href="#DejaVuSans-74" x="1474.890625"/>
     <use xlink:href="#DejaVuSans-20" x="1514.099609"/>
     <use xlink:href="#DejaVuSans-66" x="1545.886719"/>
     <use xlink:href="#DejaVuSans-69" x="1581.091797"/>
     <use xlink:href="#DejaVuSans-74" x="1608.875"/>
     <use xlink:href="#DejaVuSans-6e" x="1648.083984"/>
     <use xlink:href="#DejaVuSans-65" x="1711.462891"/>
     <use xlink:href="#DejaVuSans-73" x="1772.986328"/>
     <use xlink:href="#DejaVuSans-73" x="1825.085938"/>
    </g>
   </g>
   <g id="legend_1">
    <g id="patch_7">
     <path d="M 334.779375 205.38425 
L 407.72 205.38425 
Q 409.72 205.38425 409.72 203.38425 
L 409.72 145.67175 
Q 409.72 143.67175 407.72 143.67175 
L 334.779375 143.67175 
Q 332.779375 143.67175 332.779375 145.67175 
L 332.779375 203.38425 
Q 332.779375 205.38425 334.779375 205.38425 
z
" style="fill: #ffffff; opacity: 0.8; stroke: #cccccc; stroke-linejoin: miter"/>
    </g>
    <g id="line2d_41">
     <path d="M 336.779375 151.770188 
L 346.779375 151.770188 
L 356.779375 151.770188 
" style="fill: none; stroke: #0000ff; stroke-width: 1.5; stroke-linecap: square"/>
    </g>
    <g id="text_22">
     <!-- average -->
     <g transform="translate(364.779375 155.270188) scale(0.1 -0.1)">
      <use xlink:href="#DejaVuSans-61"/>
      <use xlink:href="#DejaVuSans-76" x="61.279297"/>
      <use xlink:href="#DejaVuSans-65" x="120.458984"/>
      <use xlink:href="#DejaVuSans-72" x="181.982422"/>
      <use xlink:href="#DejaVuSans-61" x="223.095703"/>
      <use xlink:href="#DejaVuSans-67" x="284.375"/>
      <use xlink:href="#DejaVuSans-65" x="347.851562"/>
     </g>
    </g>
    <g id="line2d_42">
     <path d="M 336.779375 166.448313 
L 346.779375 166.448313 
L 356.779375 166.448313 
" style="fill: none; stroke-dasharray: 9.6,2.4,1.5,2.4; stroke-dashoffset: 0; stroke: #008000; stroke-width: 1.5"/>
    </g>
    <g id="text_23">
     <!-- -1 sd -->
     <g transform="translate(364.779375 169.948313) scale(0.1 -0.1)">
      <defs>
       <path id="DejaVuSans-2d" d="M 313 2009 
L 1997 2009 
L 1997 1497 
L 313 1497 
L 313 2009 
z
" transform="scale(0.015625)"/>
      </defs>
      <use xlink:href="#DejaVuSans-2d"/>
      <use xlink:href="#DejaVuSans-31" x="36.083984"/>
      <use xlink:href="#DejaVuSans-20" x="99.707031"/>
      <use xlink:href="#DejaVuSans-73" x="131.494141"/>
      <use xlink:href="#DejaVuSans-64" x="183.59375"/>
     </g>
    </g>
    <g id="line2d_43">
     <path d="M 336.779375 181.126438 
L 346.779375 181.126438 
L 356.779375 181.126438 
" style="fill: none; stroke-dasharray: 9.6,2.4,1.5,2.4; stroke-dashoffset: 0; stroke: #008000; stroke-width: 1.5"/>
    </g>
    <g id="text_24">
     <!-- +1 sd -->
     <g transform="translate(364.779375 184.626438) scale(0.1 -0.1)">
      <defs>
       <path id="DejaVuSans-2b" d="M 2944 4013 
L 2944 2272 
L 4684 2272 
L 4684 1741 
L 2944 1741 
L 2944 0 
L 2419 0 
L 2419 1741 
L 678 1741 
L 678 2272 
L 2419 2272 
L 2419 4013 
L 2944 4013 
z
" transform="scale(0.015625)"/>
      </defs>
      <use xlink:href="#DejaVuSans-2b"/>
      <use xlink:href="#DejaVuSans-31" x="83.789062"/>
      <use xlink:href="#DejaVuSans-20" x="147.412109"/>
      <use xlink:href="#DejaVuSans-73" x="179.199219"/>
      <use xlink:href="#DejaVuSans-64" x="231.298828"/>
     </g>
    </g>
    <g id="line2d_44">
     <path d="M 336.779375 195.804563 
L 346.779375 195.804563 
L 356.779375 195.804563 
" style="fill: none; stroke: #ff0000; stroke-width: 1.5; stroke-linecap: square"/>
    </g>
    <g id="text_25">
     <!-- best -->
     <g transform="translate(364.779375 199.304563) scale(0.1 -0.1)">
      <use xlink:href="#DejaVuSans-62"/>
      <use xlink:href="#DejaVuSans-65" x="63.476562"/>
      <use xlink:href="#DejaVuSans-73" x="125"/>
      <use xlink:href="#DejaVuSans-74" x="177.099609"/>
     </g>
    </g>
   </g>
  </g>
 </g>
 <defs>
  <clipPath id="pfb4ad33728">
   <rect x="57.6" y="41.472" width="357.12" height="266.112"/>
  </clipPath>
 </defs>
</svg>
