<?xml version="1.0" encoding="utf-8" standalone="no"?>
<!DOCTYPE svg PUBLIC "-//W3C//DTD SVG 1.1//EN"
  "http://www.w3.org/Graphics/SVG/1.1/DTD/svg11.dtd">
<svg xmlns:xlink="http://www.w3.org/1999/xlink" width="460.8pt" height="345.6pt" viewBox="0 0 460.8 345.6" xmlns="http://www.w3.org/2000/svg" version="1.1">
 <metadata>
  <rdf:RDF xmlns:dc="http://purl.org/dc/elements/1.1/" xmlns:cc="http://creativecommons.org/ns#" xmlns:rdf="http://www.w3.org/1999/02/22-rdf-syntax-ns#">
   <cc:Work>
    <dc:type rdf:resource="http://purl.org/dc/dcmitype/StillImage"/>
    <dc:date>2024-08-04T23:37:38.181887</dc:date>
    <dc:format>image/svg+xml</dc:format>
    <dc:creator>
     <cc:Agent>
      <dc:title>Matplotlib v3.8.4, https://matplotlib.org/</dc:title>
     </cc:Agent>
    </dc:creator>
   </cc:Work>
  </rdf:RDF>
 </metadata>
 <defs>
  <style type="text/css">*{stroke-linejoin: round; stroke-linecap: butt}</style>
 </defs>
 <g id="figure_1">
  <g id="patch_1">
   <path d="M 0 345.6 
L 460.8 345.6 
L 460.8 0 
L 0 0 
z
" style="fill: #ffffff"/>
  </g>
  <g id="axes_1">
   <g id="patch_2">
    <path d="M 57.6 307.584 
L 414.72 307.584 
L 414.72 41.472 
L 57.6 41.472 
z
" style="fill: #ffffff"/>
   </g>
   <g id="matplotlib.axis_1">
    <g id="xtick_1">
     <g id="line2d_1">
      <path d="M 73.832727 307.584 
L 73.832727 41.472 
" clip-path="url(#pa3caebe778)" style="fill: none; stroke: #b0b0b0; stroke-width: 0.8; stroke-linecap: square"/>
     </g>
     <g id="line2d_2">
      <defs>
       <path id="md58ea0ea2a" d="M 0 0 
L 0 3.5 
" style="stroke: #000000; stroke-width: 0.8"/>
      </defs>
      <g>
       <use xlink:href="#md58ea0ea2a" x="73.832727" y="307.584" style="stroke: #000000; stroke-width: 0.8"/>
      </g>
     </g>
     <g id="text_1">
      <!-- 0 -->
      <g transform="translate(70.651477 322.182437) scale(0.1 -0.1)">
       <defs>
        <path id="DejaVuSans-30" d="M 2034 4250 
Q 1547 4250 1301 3770 
Q 1056 3291 1056 2328 
Q 1056 1369 1301 889 
Q 1547 409 2034 409 
Q 2525 409 2770 889 
Q 3016 1369 3016 2328 
Q 3016 3291 2770 3770 
Q 2525 4250 2034 4250 
z
M 2034 4750 
Q 2819 4750 3233 4129 
Q 3647 3509 3647 2328 
Q 3647 1150 3233 529 
Q 2819 -91 2034 -91 
Q 1250 -91 836 529 
Q 422 1150 422 2328 
Q 422 3509 836 4129 
Q 1250 4750 2034 4750 
z
" transform="scale(0.015625)"/>
       </defs>
       <use xlink:href="#DejaVuSans-30"/>
      </g>
     </g>
    </g>
    <g id="xtick_2">
     <g id="line2d_3">
      <path d="M 114.618474 307.584 
L 114.618474 41.472 
" clip-path="url(#pa3caebe778)" style="fill: none; stroke: #b0b0b0; stroke-width: 0.8; stroke-linecap: square"/>
     </g>
     <g id="line2d_4">
      <g>
       <use xlink:href="#md58ea0ea2a" x="114.618474" y="307.584" style="stroke: #000000; stroke-width: 0.8"/>
      </g>
     </g>
     <g id="text_2">
      <!-- 25 -->
      <g transform="translate(108.255974 322.182437) scale(0.1 -0.1)">
       <defs>
        <path id="DejaVuSans-32" d="M 1228 531 
L 3431 531 
L 3431 0 
L 469 0 
L 469 531 
Q 828 903 1448 1529 
Q 2069 2156 2228 2338 
Q 2531 2678 2651 2914 
Q 2772 3150 2772 3378 
Q 2772 3750 2511 3984 
Q 2250 4219 1831 4219 
Q 1534 4219 1204 4116 
Q 875 4013 500 3803 
L 500 4441 
Q 881 4594 1212 4672 
Q 1544 4750 1819 4750 
Q 2544 4750 2975 4387 
Q 3406 4025 3406 3419 
Q 3406 3131 3298 2873 
Q 3191 2616 2906 2266 
Q 2828 2175 2409 1742 
Q 1991 1309 1228 531 
z
" transform="scale(0.015625)"/>
        <path id="DejaVuSans-35" d="M 691 4666 
L 3169 4666 
L 3169 4134 
L 1269 4134 
L 1269 2991 
Q 1406 3038 1543 3061 
Q 1681 3084 1819 3084 
Q 2600 3084 3056 2656 
Q 3513 2228 3513 1497 
Q 3513 744 3044 326 
Q 2575 -91 1722 -91 
Q 1428 -91 1123 -41 
Q 819 9 494 109 
L 494 744 
Q 775 591 1075 516 
Q 1375 441 1709 441 
Q 2250 441 2565 725 
Q 2881 1009 2881 1497 
Q 2881 1984 2565 2268 
Q 2250 2553 1709 2553 
Q 1456 2553 1204 2497 
Q 953 2441 691 2322 
L 691 4666 
z
" transform="scale(0.015625)"/>
       </defs>
       <use xlink:href="#DejaVuSans-32"/>
       <use xlink:href="#DejaVuSans-35" x="63.623047"/>
      </g>
     </g>
    </g>
    <g id="xtick_3">
     <g id="line2d_5">
      <path d="M 155.404221 307.584 
L 155.404221 41.472 
" clip-path="url(#pa3caebe778)" style="fill: none; stroke: #b0b0b0; stroke-width: 0.8; stroke-linecap: square"/>
     </g>
     <g id="line2d_6">
      <g>
       <use xlink:href="#md58ea0ea2a" x="155.404221" y="307.584" style="stroke: #000000; stroke-width: 0.8"/>
      </g>
     </g>
     <g id="text_3">
      <!-- 50 -->
      <g transform="translate(149.041721 322.182437) scale(0.1 -0.1)">
       <use xlink:href="#DejaVuSans-35"/>
       <use xlink:href="#DejaVuSans-30" x="63.623047"/>
      </g>
     </g>
    </g>
    <g id="xtick_4">
     <g id="line2d_7">
      <path d="M 196.189968 307.584 
L 196.189968 41.472 
" clip-path="url(#pa3caebe778)" style="fill: none; stroke: #b0b0b0; stroke-width: 0.8; stroke-linecap: square"/>
     </g>
     <g id="line2d_8">
      <g>
       <use xlink:href="#md58ea0ea2a" x="196.189968" y="307.584" style="stroke: #000000; stroke-width: 0.8"/>
      </g>
     </g>
     <g id="text_4">
      <!-- 75 -->
      <g transform="translate(189.827468 322.182437) scale(0.1 -0.1)">
       <defs>
        <path id="DejaVuSans-37" d="M 525 4666 
L 3525 4666 
L 3525 4397 
L 1831 0 
L 1172 0 
L 2766 4134 
L 525 4134 
L 525 4666 
z
" transform="scale(0.015625)"/>
       </defs>
       <use xlink:href="#DejaVuSans-37"/>
       <use xlink:href="#DejaVuSans-35" x="63.623047"/>
      </g>
     </g>
    </g>
    <g id="xtick_5">
     <g id="line2d_9">
      <path d="M 236.975715 307.584 
L 236.975715 41.472 
" clip-path="url(#pa3caebe778)" style="fill: none; stroke: #b0b0b0; stroke-width: 0.8; stroke-linecap: square"/>
     </g>
     <g id="line2d_10">
      <g>
       <use xlink:href="#md58ea0ea2a" x="236.975715" y="307.584" style="stroke: #000000; stroke-width: 0.8"/>
      </g>
     </g>
     <g id="text_5">
      <!-- 100 -->
      <g transform="translate(227.431965 322.182437) scale(0.1 -0.1)">
       <defs>
        <path id="DejaVuSans-31" d="M 794 531 
L 1825 531 
L 1825 4091 
L 703 3866 
L 703 4441 
L 1819 4666 
L 2450 4666 
L 2450 531 
L 3481 531 
L 3481 0 
L 794 0 
L 794 531 
z
" transform="scale(0.015625)"/>
       </defs>
       <use xlink:href="#DejaVuSans-31"/>
       <use xlink:href="#DejaVuSans-30" x="63.623047"/>
       <use xlink:href="#DejaVuSans-30" x="127.246094"/>
      </g>
     </g>
    </g>
    <g id="xtick_6">
     <g id="line2d_11">
      <path d="M 277.761462 307.584 
L 277.761462 41.472 
" clip-path="url(#pa3caebe778)" style="fill: none; stroke: #b0b0b0; stroke-width: 0.8; stroke-linecap: square"/>
     </g>
     <g id="line2d_12">
      <g>
       <use xlink:href="#md58ea0ea2a" x="277.761462" y="307.584" style="stroke: #000000; stroke-width: 0.8"/>
      </g>
     </g>
     <g id="text_6">
      <!-- 125 -->
      <g transform="translate(268.217712 322.182437) scale(0.1 -0.1)">
       <use xlink:href="#DejaVuSans-31"/>
       <use xlink:href="#DejaVuSans-32" x="63.623047"/>
       <use xlink:href="#DejaVuSans-35" x="127.246094"/>
      </g>
     </g>
    </g>
    <g id="xtick_7">
     <g id="line2d_13">
      <path d="M 318.547209 307.584 
L 318.547209 41.472 
" clip-path="url(#pa3caebe778)" style="fill: none; stroke: #b0b0b0; stroke-width: 0.8; stroke-linecap: square"/>
     </g>
     <g id="line2d_14">
      <g>
       <use xlink:href="#md58ea0ea2a" x="318.547209" y="307.584" style="stroke: #000000; stroke-width: 0.8"/>
      </g>
     </g>
     <g id="text_7">
      <!-- 150 -->
      <g transform="translate(309.003459 322.182437) scale(0.1 -0.1)">
       <use xlink:href="#DejaVuSans-31"/>
       <use xlink:href="#DejaVuSans-35" x="63.623047"/>
       <use xlink:href="#DejaVuSans-30" x="127.246094"/>
      </g>
     </g>
    </g>
    <g id="xtick_8">
     <g id="line2d_15">
      <path d="M 359.332956 307.584 
L 359.332956 41.472 
" clip-path="url(#pa3caebe778)" style="fill: none; stroke: #b0b0b0; stroke-width: 0.8; stroke-linecap: square"/>
     </g>
     <g id="line2d_16">
      <g>
       <use xlink:href="#md58ea0ea2a" x="359.332956" y="307.584" style="stroke: #000000; stroke-width: 0.8"/>
      </g>
     </g>
     <g id="text_8">
      <!-- 175 -->
      <g transform="translate(349.789206 322.182437) scale(0.1 -0.1)">
       <use xlink:href="#DejaVuSans-31"/>
       <use xlink:href="#DejaVuSans-37" x="63.623047"/>
       <use xlink:href="#DejaVuSans-35" x="127.246094"/>
      </g>
     </g>
    </g>
    <g id="xtick_9">
     <g id="line2d_17">
      <path d="M 400.118703 307.584 
L 400.118703 41.472 
" clip-path="url(#pa3caebe778)" style="fill: none; stroke: #b0b0b0; stroke-width: 0.8; stroke-linecap: square"/>
     </g>
     <g id="line2d_18">
      <g>
       <use xlink:href="#md58ea0ea2a" x="400.118703" y="307.584" style="stroke: #000000; stroke-width: 0.8"/>
      </g>
     </g>
     <g id="text_9">
      <!-- 200 -->
      <g transform="translate(390.574953 322.182437) scale(0.1 -0.1)">
       <use xlink:href="#DejaVuSans-32"/>
       <use xlink:href="#DejaVuSans-30" x="63.623047"/>
       <use xlink:href="#DejaVuSans-30" x="127.246094"/>
      </g>
     </g>
    </g>
    <g id="text_10">
     <!-- Generations -->
     <g transform="translate(205.662344 335.860562) scale(0.1 -0.1)">
      <defs>
       <path id="DejaVuSans-47" d="M 3809 666 
L 3809 1919 
L 2778 1919 
L 2778 2438 
L 4434 2438 
L 4434 434 
Q 4069 175 3628 42 
Q 3188 -91 2688 -91 
Q 1594 -91 976 548 
Q 359 1188 359 2328 
Q 359 3472 976 4111 
Q 1594 4750 2688 4750 
Q 3144 4750 3555 4637 
Q 3966 4525 4313 4306 
L 4313 3634 
Q 3963 3931 3569 4081 
Q 3175 4231 2741 4231 
Q 1884 4231 1454 3753 
Q 1025 3275 1025 2328 
Q 1025 1384 1454 906 
Q 1884 428 2741 428 
Q 3075 428 3337 486 
Q 3600 544 3809 666 
z
" transform="scale(0.015625)"/>
       <path id="DejaVuSans-65" d="M 3597 1894 
L 3597 1613 
L 953 1613 
Q 991 1019 1311 708 
Q 1631 397 2203 397 
Q 2534 397 2845 478 
Q 3156 559 3463 722 
L 3463 178 
Q 3153 47 2828 -22 
Q 2503 -91 2169 -91 
Q 1331 -91 842 396 
Q 353 884 353 1716 
Q 353 2575 817 3079 
Q 1281 3584 2069 3584 
Q 2775 3584 3186 3129 
Q 3597 2675 3597 1894 
z
M 3022 2063 
Q 3016 2534 2758 2815 
Q 2500 3097 2075 3097 
Q 1594 3097 1305 2825 
Q 1016 2553 972 2059 
L 3022 2063 
z
" transform="scale(0.015625)"/>
       <path id="DejaVuSans-6e" d="M 3513 2113 
L 3513 0 
L 2938 0 
L 2938 2094 
Q 2938 2591 2744 2837 
Q 2550 3084 2163 3084 
Q 1697 3084 1428 2787 
Q 1159 2491 1159 1978 
L 1159 0 
L 581 0 
L 581 3500 
L 1159 3500 
L 1159 2956 
Q 1366 3272 1645 3428 
Q 1925 3584 2291 3584 
Q 2894 3584 3203 3211 
Q 3513 2838 3513 2113 
z
" transform="scale(0.015625)"/>
       <path id="DejaVuSans-72" d="M 2631 2963 
Q 2534 3019 2420 3045 
Q 2306 3072 2169 3072 
Q 1681 3072 1420 2755 
Q 1159 2438 1159 1844 
L 1159 0 
L 581 0 
L 581 3500 
L 1159 3500 
L 1159 2956 
Q 1341 3275 1631 3429 
Q 1922 3584 2338 3584 
Q 2397 3584 2469 3576 
Q 2541 3569 2628 3553 
L 2631 2963 
z
" transform="scale(0.015625)"/>
       <path id="DejaVuSans-61" d="M 2194 1759 
Q 1497 1759 1228 1600 
Q 959 1441 959 1056 
Q 959 750 1161 570 
Q 1363 391 1709 391 
Q 2188 391 2477 730 
Q 2766 1069 2766 1631 
L 2766 1759 
L 2194 1759 
z
M 3341 1997 
L 3341 0 
L 2766 0 
L 2766 531 
Q 2569 213 2275 61 
Q 1981 -91 1556 -91 
Q 1019 -91 701 211 
Q 384 513 384 1019 
Q 384 1609 779 1909 
Q 1175 2209 1959 2209 
L 2766 2209 
L 2766 2266 
Q 2766 2663 2505 2880 
Q 2244 3097 1772 3097 
Q 1472 3097 1187 3025 
Q 903 2953 641 2809 
L 641 3341 
Q 956 3463 1253 3523 
Q 1550 3584 1831 3584 
Q 2591 3584 2966 3190 
Q 3341 2797 3341 1997 
z
" transform="scale(0.015625)"/>
       <path id="DejaVuSans-74" d="M 1172 4494 
L 1172 3500 
L 2356 3500 
L 2356 3053 
L 1172 3053 
L 1172 1153 
Q 1172 725 1289 603 
Q 1406 481 1766 481 
L 2356 481 
L 2356 0 
L 1766 0 
Q 1100 0 847 248 
Q 594 497 594 1153 
L 594 3053 
L 172 3053 
L 172 3500 
L 594 3500 
L 594 4494 
L 1172 4494 
z
" transform="scale(0.015625)"/>
       <path id="DejaVuSans-69" d="M 603 3500 
L 1178 3500 
L 1178 0 
L 603 0 
L 603 3500 
z
M 603 4863 
L 1178 4863 
L 1178 4134 
L 603 4134 
L 603 4863 
z
" transform="scale(0.015625)"/>
       <path id="DejaVuSans-6f" d="M 1959 3097 
Q 1497 3097 1228 2736 
Q 959 2375 959 1747 
Q 959 1119 1226 758 
Q 1494 397 1959 397 
Q 2419 397 2687 759 
Q 2956 1122 2956 1747 
Q 2956 2369 2687 2733 
Q 2419 3097 1959 3097 
z
M 1959 3584 
Q 2709 3584 3137 3096 
Q 3566 2609 3566 1747 
Q 3566 888 3137 398 
Q 2709 -91 1959 -91 
Q 1206 -91 779 398 
Q 353 888 353 1747 
Q 353 2609 779 3096 
Q 1206 3584 1959 3584 
z
" transform="scale(0.015625)"/>
       <path id="DejaVuSans-73" d="M 2834 3397 
L 2834 2853 
Q 2591 2978 2328 3040 
Q 2066 3103 1784 3103 
Q 1356 3103 1142 2972 
Q 928 2841 928 2578 
Q 928 2378 1081 2264 
Q 1234 2150 1697 2047 
L 1894 2003 
Q 2506 1872 2764 1633 
Q 3022 1394 3022 966 
Q 3022 478 2636 193 
Q 2250 -91 1575 -91 
Q 1294 -91 989 -36 
Q 684 19 347 128 
L 347 722 
Q 666 556 975 473 
Q 1284 391 1588 391 
Q 1994 391 2212 530 
Q 2431 669 2431 922 
Q 2431 1156 2273 1281 
Q 2116 1406 1581 1522 
L 1381 1569 
Q 847 1681 609 1914 
Q 372 2147 372 2553 
Q 372 3047 722 3315 
Q 1072 3584 1716 3584 
Q 2034 3584 2315 3537 
Q 2597 3491 2834 3397 
z
" transform="scale(0.015625)"/>
      </defs>
      <use xlink:href="#DejaVuSans-47"/>
      <use xlink:href="#DejaVuSans-65" x="77.490234"/>
      <use xlink:href="#DejaVuSans-6e" x="139.013672"/>
      <use xlink:href="#DejaVuSans-65" x="202.392578"/>
      <use xlink:href="#DejaVuSans-72" x="263.916016"/>
      <use xlink:href="#DejaVuSans-61" x="305.029297"/>
      <use xlink:href="#DejaVuSans-74" x="366.308594"/>
      <use xlink:href="#DejaVuSans-69" x="405.517578"/>
      <use xlink:href="#DejaVuSans-6f" x="433.300781"/>
      <use xlink:href="#DejaVuSans-6e" x="494.482422"/>
      <use xlink:href="#DejaVuSans-73" x="557.861328"/>
     </g>
    </g>
   </g>
   <g id="matplotlib.axis_2">
    <g id="ytick_1">
     <g id="line2d_19">
      <path d="M 57.6 283.237791 
L 414.72 283.237791 
" clip-path="url(#pa3caebe778)" style="fill: none; stroke: #b0b0b0; stroke-width: 0.8; stroke-linecap: square"/>
     </g>
     <g id="line2d_20">
      <defs>
       <path id="m10ef981109" d="M 0 0 
L -3.5 0 
" style="stroke: #000000; stroke-width: 0.8"/>
      </defs>
      <g>
       <use xlink:href="#m10ef981109" x="57.6" y="283.237791" style="stroke: #000000; stroke-width: 0.8"/>
      </g>
     </g>
     <g id="text_11">
      <!-- −2000 -->
      <g transform="translate(16.770313 287.03701) scale(0.1 -0.1)">
       <defs>
        <path id="DejaVuSans-2212" d="M 678 2272 
L 4684 2272 
L 4684 1741 
L 678 1741 
L 678 2272 
z
" transform="scale(0.015625)"/>
       </defs>
       <use xlink:href="#DejaVuSans-2212"/>
       <use xlink:href="#DejaVuSans-32" x="83.789062"/>
       <use xlink:href="#DejaVuSans-30" x="147.412109"/>
       <use xlink:href="#DejaVuSans-30" x="211.035156"/>
       <use xlink:href="#DejaVuSans-30" x="274.658203"/>
      </g>
     </g>
    </g>
    <g id="ytick_2">
     <g id="line2d_21">
      <path d="M 57.6 247.948232 
L 414.72 247.948232 
" clip-path="url(#pa3caebe778)" style="fill: none; stroke: #b0b0b0; stroke-width: 0.8; stroke-linecap: square"/>
     </g>
     <g id="line2d_22">
      <g>
       <use xlink:href="#m10ef981109" x="57.6" y="247.948232" style="stroke: #000000; stroke-width: 0.8"/>
      </g>
     </g>
     <g id="text_12">
      <!-- −1750 -->
      <g transform="translate(16.770313 251.74745) scale(0.1 -0.1)">
       <use xlink:href="#DejaVuSans-2212"/>
       <use xlink:href="#DejaVuSans-31" x="83.789062"/>
       <use xlink:href="#DejaVuSans-37" x="147.412109"/>
       <use xlink:href="#DejaVuSans-35" x="211.035156"/>
       <use xlink:href="#DejaVuSans-30" x="274.658203"/>
      </g>
     </g>
    </g>
    <g id="ytick_3">
     <g id="line2d_23">
      <path d="M 57.6 212.658672 
L 414.72 212.658672 
" clip-path="url(#pa3caebe778)" style="fill: none; stroke: #b0b0b0; stroke-width: 0.8; stroke-linecap: square"/>
     </g>
     <g id="line2d_24">
      <g>
       <use xlink:href="#m10ef981109" x="57.6" y="212.658672" style="stroke: #000000; stroke-width: 0.8"/>
      </g>
     </g>
     <g id="text_13">
      <!-- −1500 -->
      <g transform="translate(16.770313 216.457891) scale(0.1 -0.1)">
       <use xlink:href="#DejaVuSans-2212"/>
       <use xlink:href="#DejaVuSans-31" x="83.789062"/>
       <use xlink:href="#DejaVuSans-35" x="147.412109"/>
       <use xlink:href="#DejaVuSans-30" x="211.035156"/>
       <use xlink:href="#DejaVuSans-30" x="274.658203"/>
      </g>
     </g>
    </g>
    <g id="ytick_4">
     <g id="line2d_25">
      <path d="M 57.6 177.369113 
L 414.72 177.369113 
" clip-path="url(#pa3caebe778)" style="fill: none; stroke: #b0b0b0; stroke-width: 0.8; stroke-linecap: square"/>
     </g>
     <g id="line2d_26">
      <g>
       <use xlink:href="#m10ef981109" x="57.6" y="177.369113" style="stroke: #000000; stroke-width: 0.8"/>
      </g>
     </g>
     <g id="text_14">
      <!-- −1250 -->
      <g transform="translate(16.770313 181.168332) scale(0.1 -0.1)">
       <use xlink:href="#DejaVuSans-2212"/>
       <use xlink:href="#DejaVuSans-31" x="83.789062"/>
       <use xlink:href="#DejaVuSans-32" x="147.412109"/>
       <use xlink:href="#DejaVuSans-35" x="211.035156"/>
       <use xlink:href="#DejaVuSans-30" x="274.658203"/>
      </g>
     </g>
    </g>
    <g id="ytick_5">
     <g id="line2d_27">
      <path d="M 57.6 142.079554 
L 414.72 142.079554 
" clip-path="url(#pa3caebe778)" style="fill: none; stroke: #b0b0b0; stroke-width: 0.8; stroke-linecap: square"/>
     </g>
     <g id="line2d_28">
      <g>
       <use xlink:href="#m10ef981109" x="57.6" y="142.079554" style="stroke: #000000; stroke-width: 0.8"/>
      </g>
     </g>
     <g id="text_15">
      <!-- −1000 -->
      <g transform="translate(16.770313 145.878772) scale(0.1 -0.1)">
       <use xlink:href="#DejaVuSans-2212"/>
       <use xlink:href="#DejaVuSans-31" x="83.789062"/>
       <use xlink:href="#DejaVuSans-30" x="147.412109"/>
       <use xlink:href="#DejaVuSans-30" x="211.035156"/>
       <use xlink:href="#DejaVuSans-30" x="274.658203"/>
      </g>
     </g>
    </g>
    <g id="ytick_6">
     <g id="line2d_29">
      <path d="M 57.6 106.789994 
L 414.72 106.789994 
" clip-path="url(#pa3caebe778)" style="fill: none; stroke: #b0b0b0; stroke-width: 0.8; stroke-linecap: square"/>
     </g>
     <g id="line2d_30">
      <g>
       <use xlink:href="#m10ef981109" x="57.6" y="106.789994" style="stroke: #000000; stroke-width: 0.8"/>
      </g>
     </g>
     <g id="text_16">
      <!-- −750 -->
      <g transform="translate(23.132812 110.589213) scale(0.1 -0.1)">
       <use xlink:href="#DejaVuSans-2212"/>
       <use xlink:href="#DejaVuSans-37" x="83.789062"/>
       <use xlink:href="#DejaVuSans-35" x="147.412109"/>
       <use xlink:href="#DejaVuSans-30" x="211.035156"/>
      </g>
     </g>
    </g>
    <g id="ytick_7">
     <g id="line2d_31">
      <path d="M 57.6 71.500435 
L 414.72 71.500435 
" clip-path="url(#pa3caebe778)" style="fill: none; stroke: #b0b0b0; stroke-width: 0.8; stroke-linecap: square"/>
     </g>
     <g id="line2d_32">
      <g>
       <use xlink:href="#m10ef981109" x="57.6" y="71.500435" style="stroke: #000000; stroke-width: 0.8"/>
      </g>
     </g>
     <g id="text_17">
      <!-- −500 -->
      <g transform="translate(23.132812 75.299654) scale(0.1 -0.1)">
       <use xlink:href="#DejaVuSans-2212"/>
       <use xlink:href="#DejaVuSans-35" x="83.789062"/>
       <use xlink:href="#DejaVuSans-30" x="147.412109"/>
       <use xlink:href="#DejaVuSans-30" x="211.035156"/>
      </g>
     </g>
    </g>
    <g id="text_18">
     <!-- Fitness -->
     <g transform="translate(10.690625 191.845187) rotate(-90) scale(0.1 -0.1)">
      <defs>
       <path id="DejaVuSans-46" d="M 628 4666 
L 3309 4666 
L 3309 4134 
L 1259 4134 
L 1259 2759 
L 3109 2759 
L 3109 2228 
L 1259 2228 
L 1259 0 
L 628 0 
L 628 4666 
z
" transform="scale(0.015625)"/>
      </defs>
      <use xlink:href="#DejaVuSans-46"/>
      <use xlink:href="#DejaVuSans-69" x="50.269531"/>
      <use xlink:href="#DejaVuSans-74" x="78.052734"/>
      <use xlink:href="#DejaVuSans-6e" x="117.261719"/>
      <use xlink:href="#DejaVuSans-65" x="180.640625"/>
      <use xlink:href="#DejaVuSans-73" x="242.164062"/>
      <use xlink:href="#DejaVuSans-73" x="294.263672"/>
     </g>
    </g>
   </g>
   <g id="line2d_33">
    <path d="M 73.832727 268.768482 
L 75.464157 266.381784 
L 77.095587 263.302353 
L 78.727017 263.317193 
L 80.358447 261.632701 
L 81.989877 262.039437 
L 83.621307 261.106279 
L 85.252736 261.445178 
L 86.884166 262.403815 
L 88.515596 261.736118 
L 90.147026 261.216541 
L 91.778456 261.733801 
L 93.409886 261.257835 
L 95.041316 261.851265 
L 96.672746 260.132343 
L 98.304175 259.862266 
L 99.935605 260.768061 
L 101.567035 260.999852 
L 103.198465 259.366416 
L 104.829895 259.558747 
L 106.461325 258.748814 
L 108.092755 259.506863 
L 109.724185 259.987943 
L 111.355614 259.143031 
L 112.987044 259.19284 
L 114.618474 257.016266 
L 116.249904 256.664552 
L 117.881334 257.9652 
L 121.144194 256.547061 
L 122.775624 257.277607 
L 124.407053 257.019144 
L 126.038483 257.773118 
L 127.669913 257.805056 
L 129.301343 257.662835 
L 130.932773 258.232759 
L 132.564203 256.950925 
L 134.195633 258.080004 
L 135.827063 255.191129 
L 137.458492 256.098763 
L 139.089922 255.992053 
L 140.721352 256.612709 
L 142.352782 257.568771 
L 143.984212 256.165619 
L 145.615642 257.828955 
L 147.247072 257.598448 
L 148.878502 257.726201 
L 150.509931 257.033659 
L 152.141361 256.691513 
L 153.772791 258.021543 
L 157.035651 256.178943 
L 158.667081 257.258093 
L 161.929941 257.058905 
L 163.56137 257.464843 
L 165.1928 256.117589 
L 166.82423 257.244286 
L 168.45566 256.73307 
L 170.08709 257.754573 
L 171.71852 255.795694 
L 173.34995 254.75652 
L 174.98138 256.084346 
L 176.61281 256.945329 
L 178.244239 256.006415 
L 179.875669 256.723029 
L 183.138529 257.762245 
L 184.769959 257.039375 
L 188.032819 258.273654 
L 189.664249 257.405562 
L 191.295678 258.24249 
L 192.927108 258.210006 
L 194.558538 257.771458 
L 196.189968 257.594276 
L 197.821398 257.951537 
L 201.084258 257.731377 
L 202.715688 257.417476 
L 204.347117 257.775549 
L 207.609977 258.03751 
L 209.241407 255.986507 
L 210.872837 255.271617 
L 212.504267 257.435485 
L 214.135697 256.018229 
L 215.767127 256.575778 
L 217.398556 255.44084 
L 222.292846 257.669483 
L 223.924276 256.269462 
L 225.555706 257.203943 
L 227.187136 256.869213 
L 228.818566 257.410641 
L 230.449995 256.691638 
L 232.081425 256.334199 
L 235.344285 259.432067 
L 236.975715 257.576643 
L 238.607145 257.934948 
L 240.238575 257.329376 
L 241.870005 257.814424 
L 243.501434 258.021865 
L 245.132864 256.07101 
L 246.764294 257.228702 
L 248.395724 256.110946 
L 250.027154 258.418028 
L 251.658584 257.173397 
L 253.290014 257.949872 
L 254.921444 258.998415 
L 256.552873 257.884902 
L 259.815733 254.850646 
L 261.447163 256.753157 
L 264.710023 257.501858 
L 266.341453 258.629456 
L 269.604312 258.088575 
L 271.235742 258.112943 
L 272.867172 258.447117 
L 274.498602 258.500423 
L 276.130032 259.117907 
L 277.761462 258.235441 
L 279.392892 258.319613 
L 281.024322 257.725707 
L 282.655751 257.986841 
L 284.287181 258.404802 
L 285.918611 257.851476 
L 287.550041 257.418914 
L 289.181471 258.33555 
L 290.812901 257.510454 
L 292.444331 258.286032 
L 294.075761 255.84469 
L 295.70719 251.968621 
L 297.33862 256.621316 
L 300.60148 257.032323 
L 302.23291 256.423437 
L 303.86434 256.340282 
L 305.49577 258.115064 
L 307.1272 257.546306 
L 308.75863 257.458026 
L 310.390059 256.284571 
L 312.021489 257.597476 
L 313.652919 257.449952 
L 315.284349 256.960806 
L 316.915779 257.17921 
L 318.547209 257.773839 
L 320.178639 258.112224 
L 321.810069 256.835275 
L 323.441498 257.773204 
L 325.072928 257.831858 
L 326.704358 254.532569 
L 328.335788 258.222807 
L 329.967218 254.626355 
L 331.598648 258.227423 
L 333.230078 257.997782 
L 334.861508 257.904371 
L 336.492937 257.932602 
L 338.124367 257.194844 
L 339.755797 255.725261 
L 341.387227 257.670333 
L 343.018657 258.260001 
L 344.650087 257.45064 
L 347.912947 257.261687 
L 351.175806 254.306605 
L 352.807236 257.990691 
L 354.438666 256.709483 
L 356.070096 256.395892 
L 357.701526 256.888935 
L 359.332956 257.0984 
L 360.964386 256.837743 
L 362.595815 257.011164 
L 364.227245 254.171741 
L 365.858675 255.309193 
L 367.490105 254.128762 
L 369.121535 253.410957 
L 370.752965 255.825322 
L 372.384395 256.042967 
L 375.647254 255.668998 
L 377.278684 256.104646 
L 378.910114 254.385794 
L 380.541544 256.99064 
L 382.172974 255.295569 
L 383.804404 249.076696 
L 385.435834 254.883557 
L 387.067264 255.949654 
L 388.698693 256.379495 
L 390.330123 253.597977 
L 391.961553 255.889015 
L 393.592983 256.45781 
L 395.224413 254.738463 
L 396.855843 256.245052 
L 398.487273 256.275693 
L 398.487273 256.275693 
" clip-path="url(#pa3caebe778)" style="fill: none; stroke: #0000ff; stroke-width: 1.5; stroke-linecap: square"/>
   </g>
   <g id="line2d_34">
    <path d="M 73.832727 278.42041 
L 75.464157 278.347441 
L 77.095587 277.06773 
L 78.727017 275.583038 
L 80.358447 273.201136 
L 81.989877 271.183061 
L 83.621307 269.948413 
L 85.252736 272.47081 
L 90.147026 270.152543 
L 91.778456 270.71707 
L 93.409886 269.973123 
L 95.041316 271.085327 
L 96.672746 270.451891 
L 99.935605 273.395152 
L 101.567035 273.202269 
L 103.198465 272.37844 
L 104.829895 272.877009 
L 106.461325 273.077438 
L 108.092755 272.823401 
L 109.724185 273.504208 
L 111.355614 272.942596 
L 112.987044 274.267061 
L 114.618474 281.14287 
L 116.249904 280.958897 
L 117.881334 281.630883 
L 119.512764 280.161241 
L 121.144194 280.26294 
L 122.775624 280.161564 
L 124.407053 281.123326 
L 126.038483 280.339786 
L 129.301343 280.455996 
L 130.932773 280.621509 
L 132.564203 280.615554 
L 134.195633 280.479741 
L 135.827063 282.387755 
L 137.458492 283.652327 
L 139.089922 286.279827 
L 140.721352 284.400921 
L 142.352782 285.233198 
L 143.984212 284.326144 
L 145.615642 285.118893 
L 147.247072 284.131298 
L 148.878502 284.700058 
L 150.509931 283.946627 
L 152.141361 285.20395 
L 153.772791 285.235839 
L 155.404221 283.932952 
L 157.035651 284.191069 
L 158.667081 285.042064 
L 160.298511 284.184943 
L 161.929941 284.874249 
L 163.56137 284.852547 
L 165.1928 284.435169 
L 166.82423 284.366055 
L 168.45566 286.73164 
L 170.08709 285.058511 
L 171.71852 285.664737 
L 173.34995 285.280119 
L 176.61281 287.165373 
L 178.244239 286.076758 
L 179.875669 286.859688 
L 181.507099 284.224704 
L 183.138529 284.882202 
L 184.769959 283.912868 
L 186.401389 284.515873 
L 188.032819 285.834337 
L 189.664249 286.073904 
L 191.295678 285.460373 
L 194.558538 285.700958 
L 196.189968 285.53676 
L 197.821398 285.155931 
L 199.452828 284.993215 
L 201.084258 284.666859 
L 202.715688 284.724448 
L 204.347117 285.04872 
L 205.978547 286.073448 
L 207.609977 285.476981 
L 209.241407 286.365776 
L 210.872837 289.2342 
L 212.504267 287.629982 
L 214.135697 285.657391 
L 215.767127 287.360353 
L 217.398556 286.503387 
L 219.029986 286.713158 
L 220.661416 286.750098 
L 222.292846 288.104061 
L 223.924276 286.141061 
L 225.555706 287.507174 
L 227.187136 287.286971 
L 228.818566 287.716529 
L 230.449995 286.869961 
L 232.081425 286.266536 
L 233.712855 284.024179 
L 235.344285 286.080891 
L 236.975715 284.149691 
L 238.607145 284.524692 
L 240.238575 283.812054 
L 241.870005 284.431997 
L 243.501434 284.682348 
L 245.132864 286.833449 
L 246.764294 287.873133 
L 250.027154 284.433872 
L 251.658584 283.629385 
L 253.290014 283.846382 
L 254.921444 285.312848 
L 256.552873 283.922806 
L 258.184303 289.915225 
L 259.815733 292.531831 
L 261.447163 285.180905 
L 263.078593 287.656962 
L 264.710023 287.733407 
L 266.341453 286.128049 
L 269.604312 285.54012 
L 271.235742 285.571562 
L 272.867172 285.972122 
L 274.498602 285.921226 
L 276.130032 286.633027 
L 277.761462 285.592879 
L 281.024322 285.741257 
L 282.655751 285.424512 
L 284.287181 285.845581 
L 285.918611 285.152698 
L 287.550041 285.338929 
L 289.181471 285.777202 
L 290.812901 284.820653 
L 292.444331 285.640674 
L 294.075761 289.886415 
L 295.70719 292.738373 
L 297.33862 288.482156 
L 298.97005 288.286312 
L 300.60148 288.494997 
L 302.23291 287.784267 
L 303.86434 288.672573 
L 305.49577 286.14643 
L 307.1272 284.728902 
L 308.75863 284.610093 
L 310.390059 287.370632 
L 312.021489 284.822631 
L 313.652919 284.634863 
L 315.284349 284.129125 
L 316.915779 284.291512 
L 318.547209 285.056764 
L 320.178639 285.497903 
L 321.810069 283.984614 
L 323.441498 285.019664 
L 325.072928 285.851859 
L 326.704358 287.868166 
L 328.335788 285.578012 
L 329.967218 289.37122 
L 331.598648 285.625772 
L 333.230078 285.160774 
L 336.492937 285.405162 
L 338.124367 284.454168 
L 339.755797 288.376192 
L 341.387227 285.071074 
L 343.018657 285.527335 
L 344.650087 284.752321 
L 347.912947 284.541825 
L 349.544376 286.834225 
L 351.175806 292.563656 
L 352.807236 286.848696 
L 354.438666 288.733214 
L 356.070096 284.54711 
L 357.701526 287.032942 
L 359.332956 287.316292 
L 360.964386 286.782055 
L 362.595815 287.199501 
L 364.227245 290.216616 
L 365.858675 285.766005 
L 367.490105 288.7392 
L 369.121535 290.271789 
L 370.752965 288.248336 
L 372.384395 288.718033 
L 375.647254 288.19894 
L 377.278684 288.589827 
L 378.910114 290.975392 
L 380.541544 289.698911 
L 382.172974 287.386248 
L 383.804404 295.488 
L 385.435834 290.596937 
L 387.067264 288.372126 
L 388.698693 288.910596 
L 390.330123 291.658024 
L 391.961553 289.579736 
L 393.592983 289.019309 
L 395.224413 289.472569 
L 396.855843 288.953981 
L 398.487273 288.981371 
L 398.487273 288.981371 
" clip-path="url(#pa3caebe778)" style="fill: none; stroke-dasharray: 9.6,2.4,1.5,2.4; stroke-dashoffset: 0; stroke: #008000; stroke-width: 1.5"/>
   </g>
   <g id="line2d_35">
    <path d="M 73.832727 259.116553 
L 77.095587 249.536975 
L 78.727017 251.051348 
L 80.358447 250.064266 
L 81.989877 252.895812 
L 83.621307 252.264144 
L 85.252736 250.419546 
L 86.884166 253.13977 
L 88.515596 252.633523 
L 90.147026 252.280539 
L 91.778456 252.750531 
L 93.409886 252.542548 
L 95.041316 252.617203 
L 96.672746 249.812794 
L 98.304175 247.768275 
L 99.935605 248.14097 
L 101.567035 248.797436 
L 103.198465 246.354391 
L 104.829895 246.240486 
L 106.461325 244.420189 
L 108.092755 246.190325 
L 109.724185 246.471679 
L 112.987044 244.118619 
L 114.618474 232.889661 
L 116.249904 232.370208 
L 117.881334 234.299517 
L 119.512764 234.45998 
L 121.144194 232.831182 
L 122.775624 234.393649 
L 124.407053 232.914962 
L 126.038483 235.20645 
L 127.669913 235.222016 
L 129.301343 234.869675 
L 130.932773 235.844009 
L 132.564203 233.286296 
L 134.195633 235.680267 
L 135.827063 227.994503 
L 137.458492 228.545199 
L 139.089922 225.704278 
L 140.721352 228.824496 
L 142.352782 229.904343 
L 143.984212 228.005093 
L 145.615642 230.539017 
L 147.247072 231.065598 
L 148.878502 230.752344 
L 150.509931 230.12069 
L 152.141361 228.179076 
L 153.772791 230.807247 
L 155.404221 230.353013 
L 157.035651 228.166818 
L 158.667081 229.474123 
L 160.298511 230.059679 
L 161.929941 229.243562 
L 163.56137 230.077139 
L 165.1928 227.800009 
L 166.82423 230.122516 
L 168.45566 226.7345 
L 170.08709 230.450634 
L 171.71852 225.926651 
L 173.34995 224.232921 
L 174.98138 225.881915 
L 176.61281 226.725285 
L 178.244239 225.936073 
L 179.875669 226.58637 
L 181.507099 230.279086 
L 183.138529 230.642288 
L 184.769959 230.165881 
L 186.401389 230.877874 
L 188.032819 230.712971 
L 189.664249 228.737219 
L 191.295678 231.024608 
L 192.927108 230.812368 
L 194.558538 229.841958 
L 196.189968 229.651792 
L 197.821398 230.747143 
L 199.452828 230.715228 
L 201.084258 230.795895 
L 202.715688 230.110505 
L 204.347117 230.502378 
L 205.978547 229.702322 
L 207.609977 230.59804 
L 209.241407 225.607237 
L 210.872837 221.309033 
L 212.504267 227.240988 
L 214.135697 226.379066 
L 215.767127 225.791202 
L 217.398556 224.378293 
L 219.029986 225.693837 
L 220.661416 227.201151 
L 222.292846 227.234906 
L 223.924276 226.397863 
L 225.555706 226.900712 
L 227.187136 226.451454 
L 228.818566 227.104754 
L 230.449995 226.513314 
L 232.081425 226.401862 
L 233.712855 231.732611 
L 235.344285 232.783243 
L 236.975715 231.003595 
L 238.607145 231.345203 
L 240.238575 230.846698 
L 241.870005 231.196852 
L 243.501434 231.361382 
L 245.132864 225.308571 
L 246.764294 226.584272 
L 248.395724 226.086643 
L 250.027154 232.402184 
L 251.658584 230.717408 
L 253.290014 232.053361 
L 254.921444 232.683982 
L 256.552873 231.846999 
L 258.184303 222.927713 
L 259.815733 217.169461 
L 261.447163 228.325409 
L 263.078593 226.528041 
L 264.710023 227.27031 
L 266.341453 231.130863 
L 267.972883 230.981317 
L 269.604312 230.63703 
L 271.235742 230.654323 
L 274.498602 231.07962 
L 276.130032 231.602788 
L 277.761462 230.878002 
L 279.392892 230.924254 
L 281.024322 229.710156 
L 282.655751 230.549171 
L 284.287181 230.964024 
L 285.918611 230.550254 
L 287.550041 229.498898 
L 289.181471 230.893899 
L 290.812901 230.200254 
L 292.444331 230.93139 
L 294.075761 221.802964 
L 295.70719 211.198869 
L 297.33862 224.760475 
L 298.97005 225.32835 
L 300.60148 225.56965 
L 302.23291 225.062608 
L 303.86434 224.00799 
L 305.49577 230.083697 
L 307.1272 230.36371 
L 308.75863 230.305959 
L 310.390059 225.19851 
L 312.021489 230.372321 
L 313.652919 230.26504 
L 315.284349 229.792488 
L 316.915779 230.066909 
L 318.547209 230.490915 
L 320.178639 230.726544 
L 321.810069 229.685937 
L 323.441498 230.526744 
L 325.072928 229.811857 
L 326.704358 221.196972 
L 328.335788 230.867603 
L 329.967218 219.88149 
L 331.598648 230.829075 
L 333.230078 230.83479 
L 334.861508 230.480066 
L 336.492937 230.460043 
L 338.124367 229.93552 
L 339.755797 223.07433 
L 341.387227 230.269592 
L 343.018657 230.992667 
L 344.650087 230.148959 
L 347.912947 229.981549 
L 349.544376 224.629553 
L 351.175806 216.049555 
L 352.807236 229.132687 
L 354.438666 224.685752 
L 356.070096 228.244675 
L 357.701526 226.744928 
L 359.332956 226.880507 
L 362.595815 226.822827 
L 364.227245 218.126866 
L 365.858675 224.852381 
L 367.490105 219.518325 
L 369.121535 216.550124 
L 370.752965 223.402309 
L 374.015825 223.274956 
L 375.647254 223.139055 
L 377.278684 223.619465 
L 378.910114 217.796195 
L 380.541544 224.282368 
L 382.172974 223.20489 
L 383.804404 202.665391 
L 385.435834 219.170177 
L 387.067264 223.527183 
L 388.698693 223.848395 
L 390.330123 215.53793 
L 391.961553 222.198295 
L 393.592983 223.896311 
L 395.224413 220.004357 
L 396.855843 223.536122 
L 398.487273 223.570015 
L 398.487273 223.570015 
" clip-path="url(#pa3caebe778)" style="fill: none; stroke-dasharray: 9.6,2.4,1.5,2.4; stroke-dashoffset: 0; stroke: #008000; stroke-width: 1.5"/>
   </g>
   <g id="line2d_36">
    <path d="M 73.832727 198.334203 
L 75.464157 196.977646 
L 77.095587 180.397197 
L 112.987044 180.397197 
L 114.618474 106.481117 
L 134.195633 106.481117 
L 135.827063 102.688186 
L 209.241407 102.688186 
L 210.872837 53.568 
L 398.487273 53.568 
L 398.487273 53.568 
" clip-path="url(#pa3caebe778)" style="fill: none; stroke: #ff0000; stroke-width: 1.5; stroke-linecap: square"/>
   </g>
   <g id="patch_3">
    <path d="M 57.6 307.584 
L 57.6 41.472 
" style="fill: none; stroke: #000000; stroke-width: 0.8; stroke-linejoin: miter; stroke-linecap: square"/>
   </g>
   <g id="patch_4">
    <path d="M 414.72 307.584 
L 414.72 41.472 
" style="fill: none; stroke: #000000; stroke-width: 0.8; stroke-linejoin: miter; stroke-linecap: square"/>
   </g>
   <g id="patch_5">
    <path d="M 57.6 307.584 
L 414.72 307.584 
" style="fill: none; stroke: #000000; stroke-width: 0.8; stroke-linejoin: miter; stroke-linecap: square"/>
   </g>
   <g id="patch_6">
    <path d="M 57.6 41.472 
L 414.72 41.472 
" style="fill: none; stroke: #000000; stroke-width: 0.8; stroke-linejoin: miter; stroke-linecap: square"/>
   </g>
   <g id="text_19">
    <!-- Population's average and best fitness -->
    <g transform="translate(123.529687 35.472) scale(0.12 -0.12)">
     <defs>
      <path id="DejaVuSans-50" d="M 1259 4147 
L 1259 2394 
L 2053 2394 
Q 2494 2394 2734 2622 
Q 2975 2850 2975 3272 
Q 2975 3691 2734 3919 
Q 2494 4147 2053 4147 
L 1259 4147 
z
M 628 4666 
L 2053 4666 
Q 2838 4666 3239 4311 
Q 3641 3956 3641 3272 
Q 3641 2581 3239 2228 
Q 2838 1875 2053 1875 
L 1259 1875 
L 1259 0 
L 628 0 
L 628 4666 
z
" transform="scale(0.015625)"/>
      <path id="DejaVuSans-70" d="M 1159 525 
L 1159 -1331 
L 581 -1331 
L 581 3500 
L 1159 3500 
L 1159 2969 
Q 1341 3281 1617 3432 
Q 1894 3584 2278 3584 
Q 2916 3584 3314 3078 
Q 3713 2572 3713 1747 
Q 3713 922 3314 415 
Q 2916 -91 2278 -91 
Q 1894 -91 1617 61 
Q 1341 213 1159 525 
z
M 3116 1747 
Q 3116 2381 2855 2742 
Q 2594 3103 2138 3103 
Q 1681 3103 1420 2742 
Q 1159 2381 1159 1747 
Q 1159 1113 1420 752 
Q 1681 391 2138 391 
Q 2594 391 2855 752 
Q 3116 1113 3116 1747 
z
" transform="scale(0.015625)"/>
      <path id="DejaVuSans-75" d="M 544 1381 
L 544 3500 
L 1119 3500 
L 1119 1403 
Q 1119 906 1312 657 
Q 1506 409 1894 409 
Q 2359 409 2629 706 
Q 2900 1003 2900 1516 
L 2900 3500 
L 3475 3500 
L 3475 0 
L 2900 0 
L 2900 538 
Q 2691 219 2414 64 
Q 2138 -91 1772 -91 
Q 1169 -91 856 284 
Q 544 659 544 1381 
z
M 1991 3584 
L 1991 3584 
z
" transform="scale(0.015625)"/>
      <path id="DejaVuSans-6c" d="M 603 4863 
L 1178 4863 
L 1178 0 
L 603 0 
L 603 4863 
z
" transform="scale(0.015625)"/>
      <path id="DejaVuSans-27" d="M 1147 4666 
L 1147 2931 
L 616 2931 
L 616 4666 
L 1147 4666 
z
" transform="scale(0.015625)"/>
      <path id="DejaVuSans-20" transform="scale(0.015625)"/>
      <path id="DejaVuSans-76" d="M 191 3500 
L 800 3500 
L 1894 563 
L 2988 3500 
L 3597 3500 
L 2284 0 
L 1503 0 
L 191 3500 
z
" transform="scale(0.015625)"/>
      <path id="DejaVuSans-67" d="M 2906 1791 
Q 2906 2416 2648 2759 
Q 2391 3103 1925 3103 
Q 1463 3103 1205 2759 
Q 947 2416 947 1791 
Q 947 1169 1205 825 
Q 1463 481 1925 481 
Q 2391 481 2648 825 
Q 2906 1169 2906 1791 
z
M 3481 434 
Q 3481 -459 3084 -895 
Q 2688 -1331 1869 -1331 
Q 1566 -1331 1297 -1286 
Q 1028 -1241 775 -1147 
L 775 -588 
Q 1028 -725 1275 -790 
Q 1522 -856 1778 -856 
Q 2344 -856 2625 -561 
Q 2906 -266 2906 331 
L 2906 616 
Q 2728 306 2450 153 
Q 2172 0 1784 0 
Q 1141 0 747 490 
Q 353 981 353 1791 
Q 353 2603 747 3093 
Q 1141 3584 1784 3584 
Q 2172 3584 2450 3431 
Q 2728 3278 2906 2969 
L 2906 3500 
L 3481 3500 
L 3481 434 
z
" transform="scale(0.015625)"/>
      <path id="DejaVuSans-64" d="M 2906 2969 
L 2906 4863 
L 3481 4863 
L 3481 0 
L 2906 0 
L 2906 525 
Q 2725 213 2448 61 
Q 2172 -91 1784 -91 
Q 1150 -91 751 415 
Q 353 922 353 1747 
Q 353 2572 751 3078 
Q 1150 3584 1784 3584 
Q 2172 3584 2448 3432 
Q 2725 3281 2906 2969 
z
M 947 1747 
Q 947 1113 1208 752 
Q 1469 391 1925 391 
Q 2381 391 2643 752 
Q 2906 1113 2906 1747 
Q 2906 2381 2643 2742 
Q 2381 3103 1925 3103 
Q 1469 3103 1208 2742 
Q 947 2381 947 1747 
z
" transform="scale(0.015625)"/>
      <path id="DejaVuSans-62" d="M 3116 1747 
Q 3116 2381 2855 2742 
Q 2594 3103 2138 3103 
Q 1681 3103 1420 2742 
Q 1159 2381 1159 1747 
Q 1159 1113 1420 752 
Q 1681 391 2138 391 
Q 2594 391 2855 752 
Q 3116 1113 3116 1747 
z
M 1159 2969 
Q 1341 3281 1617 3432 
Q 1894 3584 2278 3584 
Q 2916 3584 3314 3078 
Q 3713 2572 3713 1747 
Q 3713 922 3314 415 
Q 2916 -91 2278 -91 
Q 1894 -91 1617 61 
Q 1341 213 1159 525 
L 1159 0 
L 581 0 
L 581 4863 
L 1159 4863 
L 1159 2969 
z
" transform="scale(0.015625)"/>
      <path id="DejaVuSans-66" d="M 2375 4863 
L 2375 4384 
L 1825 4384 
Q 1516 4384 1395 4259 
Q 1275 4134 1275 3809 
L 1275 3500 
L 2222 3500 
L 2222 3053 
L 1275 3053 
L 1275 0 
L 697 0 
L 697 3053 
L 147 3053 
L 147 3500 
L 697 3500 
L 697 3744 
Q 697 4328 969 4595 
Q 1241 4863 1831 4863 
L 2375 4863 
z
" transform="scale(0.015625)"/>
     </defs>
     <use xlink:href="#DejaVuSans-50"/>
     <use xlink:href="#DejaVuSans-6f" x="56.677734"/>
     <use xlink:href="#DejaVuSans-70" x="117.859375"/>
     <use xlink:href="#DejaVuSans-75" x="181.335938"/>
     <use xlink:href="#DejaVuSans-6c" x="244.714844"/>
     <use xlink:href="#DejaVuSans-61" x="272.498047"/>
     <use xlink:href="#DejaVuSans-74" x="333.777344"/>
     <use xlink:href="#DejaVuSans-69" x="372.986328"/>
     <use xlink:href="#DejaVuSans-6f" x="400.769531"/>
     <use xlink:href="#DejaVuSans-6e" x="461.951172"/>
     <use xlink:href="#DejaVuSans-27" x="525.330078"/>
     <use xlink:href="#DejaVuSans-73" x="552.820312"/>
     <use xlink:href="#DejaVuSans-20" x="604.919922"/>
     <use xlink:href="#DejaVuSans-61" x="636.707031"/>
     <use xlink:href="#DejaVuSans-76" x="697.986328"/>
     <use xlink:href="#DejaVuSans-65" x="757.166016"/>
     <use xlink:href="#DejaVuSans-72" x="818.689453"/>
     <use xlink:href="#DejaVuSans-61" x="859.802734"/>
     <use xlink:href="#DejaVuSans-67" x="921.082031"/>
     <use xlink:href="#DejaVuSans-65" x="984.558594"/>
     <use xlink:href="#DejaVuSans-20" x="1046.082031"/>
     <use xlink:href="#DejaVuSans-61" x="1077.869141"/>
     <use xlink:href="#DejaVuSans-6e" x="1139.148438"/>
     <use xlink:href="#DejaVuSans-64" x="1202.527344"/>
     <use xlink:href="#DejaVuSans-20" x="1266.003906"/>
     <use xlink:href="#DejaVuSans-62" x="1297.791016"/>
     <use xlink:href="#DejaVuSans-65" x="1361.267578"/>
     <use xlink:href="#DejaVuSans-73" x="1422.791016"/>
     <use xlink:href="#DejaVuSans-74" x="1474.890625"/>
     <use xlink:href="#DejaVuSans-20" x="1514.099609"/>
     <use xlink:href="#DejaVuSans-66" x="1545.886719"/>
     <use xlink:href="#DejaVuSans-69" x="1581.091797"/>
     <use xlink:href="#DejaVuSans-74" x="1608.875"/>
     <use xlink:href="#DejaVuSans-6e" x="1648.083984"/>
     <use xlink:href="#DejaVuSans-65" x="1711.462891"/>
     <use xlink:href="#DejaVuSans-73" x="1772.986328"/>
     <use xlink:href="#DejaVuSans-73" x="1825.085938"/>
    </g>
   </g>
   <g id="legend_1">
    <g id="patch_7">
     <path d="M 199.689687 205.38425 
L 272.630313 205.38425 
Q 274.630313 205.38425 274.630313 203.38425 
L 274.630313 145.67175 
Q 274.630313 143.67175 272.630313 143.67175 
L 199.689687 143.67175 
Q 197.689687 143.67175 197.689687 145.67175 
L 197.689687 203.38425 
Q 197.689687 205.38425 199.689687 205.38425 
z
" style="fill: #ffffff; opacity: 0.8; stroke: #cccccc; stroke-linejoin: miter"/>
    </g>
    <g id="line2d_37">
     <path d="M 201.689687 151.770188 
L 211.689687 151.770188 
L 221.689687 151.770188 
" style="fill: none; stroke: #0000ff; stroke-width: 1.5; stroke-linecap: square"/>
    </g>
    <g id="text_20">
     <!-- average -->
     <g transform="translate(229.689687 155.270188) scale(0.1 -0.1)">
      <use xlink:href="#DejaVuSans-61"/>
      <use xlink:href="#DejaVuSans-76" x="61.279297"/>
      <use xlink:href="#DejaVuSans-65" x="120.458984"/>
      <use xlink:href="#DejaVuSans-72" x="181.982422"/>
      <use xlink:href="#DejaVuSans-61" x="223.095703"/>
      <use xlink:href="#DejaVuSans-67" x="284.375"/>
      <use xlink:href="#DejaVuSans-65" x="347.851562"/>
     </g>
    </g>
    <g id="line2d_38">
     <path d="M 201.689687 166.448313 
L 211.689687 166.448313 
L 221.689687 166.448313 
" style="fill: none; stroke-dasharray: 9.6,2.4,1.5,2.4; stroke-dashoffset: 0; stroke: #008000; stroke-width: 1.5"/>
    </g>
    <g id="text_21">
     <!-- -1 sd -->
     <g transform="translate(229.689687 169.948313) scale(0.1 -0.1)">
      <defs>
       <path id="DejaVuSans-2d" d="M 313 2009 
L 1997 2009 
L 1997 1497 
L 313 1497 
L 313 2009 
z
" transform="scale(0.015625)"/>
      </defs>
      <use xlink:href="#DejaVuSans-2d"/>
      <use xlink:href="#DejaVuSans-31" x="36.083984"/>
      <use xlink:href="#DejaVuSans-20" x="99.707031"/>
      <use xlink:href="#DejaVuSans-73" x="131.494141"/>
      <use xlink:href="#DejaVuSans-64" x="183.59375"/>
     </g>
    </g>
    <g id="line2d_39">
     <path d="M 201.689687 181.126438 
L 211.689687 181.126438 
L 221.689687 181.126438 
" style="fill: none; stroke-dasharray: 9.6,2.4,1.5,2.4; stroke-dashoffset: 0; stroke: #008000; stroke-width: 1.5"/>
    </g>
    <g id="text_22">
     <!-- +1 sd -->
     <g transform="translate(229.689687 184.626438) scale(0.1 -0.1)">
      <defs>
       <path id="DejaVuSans-2b" d="M 2944 4013 
L 2944 2272 
L 4684 2272 
L 4684 1741 
L 2944 1741 
L 2944 0 
L 2419 0 
L 2419 1741 
L 678 1741 
L 678 2272 
L 2419 2272 
L 2419 4013 
L 2944 4013 
z
" transform="scale(0.015625)"/>
      </defs>
      <use xlink:href="#DejaVuSans-2b"/>
      <use xlink:href="#DejaVuSans-31" x="83.789062"/>
      <use xlink:href="#DejaVuSans-20" x="147.412109"/>
      <use xlink:href="#DejaVuSans-73" x="179.199219"/>
      <use xlink:href="#DejaVuSans-64" x="231.298828"/>
     </g>
    </g>
    <g id="line2d_40">
     <path d="M 201.689687 195.804563 
L 211.689687 195.804563 
L 221.689687 195.804563 
" style="fill: none; stroke: #ff0000; stroke-width: 1.5; stroke-linecap: square"/>
    </g>
    <g id="text_23">
     <!-- best -->
     <g transform="translate(229.689687 199.304563) scale(0.1 -0.1)">
      <use xlink:href="#DejaVuSans-62"/>
      <use xlink:href="#DejaVuSans-65" x="63.476562"/>
      <use xlink:href="#DejaVuSans-73" x="125"/>
      <use xlink:href="#DejaVuSans-74" x="177.099609"/>
     </g>
    </g>
   </g>
  </g>
 </g>
 <defs>
  <clipPath id="pa3caebe778">
   <rect x="57.6" y="41.472" width="357.12" height="266.112"/>
  </clipPath>
 </defs>
</svg>
