<?xml version="1.0" encoding="utf-8" standalone="no"?>
<!DOCTYPE svg PUBLIC "-//W3C//DTD SVG 1.1//EN"
  "http://www.w3.org/Graphics/SVG/1.1/DTD/svg11.dtd">
<svg xmlns:xlink="http://www.w3.org/1999/xlink" width="460.8pt" height="345.6pt" viewBox="0 0 460.8 345.6" xmlns="http://www.w3.org/2000/svg" version="1.1">
 <metadata>
  <rdf:RDF xmlns:dc="http://purl.org/dc/elements/1.1/" xmlns:cc="http://creativecommons.org/ns#" xmlns:rdf="http://www.w3.org/1999/02/22-rdf-syntax-ns#">
   <cc:Work>
    <dc:type rdf:resource="http://purl.org/dc/dcmitype/StillImage"/>
    <dc:date>2024-08-06T11:56:44.796607</dc:date>
    <dc:format>image/svg+xml</dc:format>
    <dc:creator>
     <cc:Agent>
      <dc:title>Matplotlib v3.8.4, https://matplotlib.org/</dc:title>
     </cc:Agent>
    </dc:creator>
   </cc:Work>
  </rdf:RDF>
 </metadata>
 <defs>
  <style type="text/css">*{stroke-linejoin: round; stroke-linecap: butt}</style>
 </defs>
 <g id="figure_1">
  <g id="patch_1">
   <path d="M 0 345.6 
L 460.8 345.6 
L 460.8 0 
L 0 0 
z
" style="fill: #ffffff"/>
  </g>
  <g id="axes_1">
   <g id="patch_2">
    <path d="M 57.6 307.584 
L 414.72 307.584 
L 414.72 41.472 
L 57.6 41.472 
z
" style="fill: #ffffff"/>
   </g>
   <g id="matplotlib.axis_1">
    <g id="xtick_1">
     <g id="line2d_1">
      <path d="M 73.832727 307.584 
L 73.832727 41.472 
" clip-path="url(#pef41b19d14)" style="fill: none; stroke: #b0b0b0; stroke-width: 0.8; stroke-linecap: square"/>
     </g>
     <g id="line2d_2">
      <defs>
       <path id="m44db4d32cd" d="M 0 0 
L 0 3.5 
" style="stroke: #000000; stroke-width: 0.8"/>
      </defs>
      <g>
       <use xlink:href="#m44db4d32cd" x="73.832727" y="307.584" style="stroke: #000000; stroke-width: 0.8"/>
      </g>
     </g>
     <g id="text_1">
      <!-- 0 -->
      <g transform="translate(70.651477 322.182437) scale(0.1 -0.1)">
       <defs>
        <path id="DejaVuSans-30" d="M 2034 4250 
Q 1547 4250 1301 3770 
Q 1056 3291 1056 2328 
Q 1056 1369 1301 889 
Q 1547 409 2034 409 
Q 2525 409 2770 889 
Q 3016 1369 3016 2328 
Q 3016 3291 2770 3770 
Q 2525 4250 2034 4250 
z
M 2034 4750 
Q 2819 4750 3233 4129 
Q 3647 3509 3647 2328 
Q 3647 1150 3233 529 
Q 2819 -91 2034 -91 
Q 1250 -91 836 529 
Q 422 1150 422 2328 
Q 422 3509 836 4129 
Q 1250 4750 2034 4750 
z
" transform="scale(0.015625)"/>
       </defs>
       <use xlink:href="#DejaVuSans-30"/>
      </g>
     </g>
    </g>
    <g id="xtick_2">
     <g id="line2d_3">
      <path d="M 114.618474 307.584 
L 114.618474 41.472 
" clip-path="url(#pef41b19d14)" style="fill: none; stroke: #b0b0b0; stroke-width: 0.8; stroke-linecap: square"/>
     </g>
     <g id="line2d_4">
      <g>
       <use xlink:href="#m44db4d32cd" x="114.618474" y="307.584" style="stroke: #000000; stroke-width: 0.8"/>
      </g>
     </g>
     <g id="text_2">
      <!-- 25 -->
      <g transform="translate(108.255974 322.182437) scale(0.1 -0.1)">
       <defs>
        <path id="DejaVuSans-32" d="M 1228 531 
L 3431 531 
L 3431 0 
L 469 0 
L 469 531 
Q 828 903 1448 1529 
Q 2069 2156 2228 2338 
Q 2531 2678 2651 2914 
Q 2772 3150 2772 3378 
Q 2772 3750 2511 3984 
Q 2250 4219 1831 4219 
Q 1534 4219 1204 4116 
Q 875 4013 500 3803 
L 500 4441 
Q 881 4594 1212 4672 
Q 1544 4750 1819 4750 
Q 2544 4750 2975 4387 
Q 3406 4025 3406 3419 
Q 3406 3131 3298 2873 
Q 3191 2616 2906 2266 
Q 2828 2175 2409 1742 
Q 1991 1309 1228 531 
z
" transform="scale(0.015625)"/>
        <path id="DejaVuSans-35" d="M 691 4666 
L 3169 4666 
L 3169 4134 
L 1269 4134 
L 1269 2991 
Q 1406 3038 1543 3061 
Q 1681 3084 1819 3084 
Q 2600 3084 3056 2656 
Q 3513 2228 3513 1497 
Q 3513 744 3044 326 
Q 2575 -91 1722 -91 
Q 1428 -91 1123 -41 
Q 819 9 494 109 
L 494 744 
Q 775 591 1075 516 
Q 1375 441 1709 441 
Q 2250 441 2565 725 
Q 2881 1009 2881 1497 
Q 2881 1984 2565 2268 
Q 2250 2553 1709 2553 
Q 1456 2553 1204 2497 
Q 953 2441 691 2322 
L 691 4666 
z
" transform="scale(0.015625)"/>
       </defs>
       <use xlink:href="#DejaVuSans-32"/>
       <use xlink:href="#DejaVuSans-35" x="63.623047"/>
      </g>
     </g>
    </g>
    <g id="xtick_3">
     <g id="line2d_5">
      <path d="M 155.404221 307.584 
L 155.404221 41.472 
" clip-path="url(#pef41b19d14)" style="fill: none; stroke: #b0b0b0; stroke-width: 0.8; stroke-linecap: square"/>
     </g>
     <g id="line2d_6">
      <g>
       <use xlink:href="#m44db4d32cd" x="155.404221" y="307.584" style="stroke: #000000; stroke-width: 0.8"/>
      </g>
     </g>
     <g id="text_3">
      <!-- 50 -->
      <g transform="translate(149.041721 322.182437) scale(0.1 -0.1)">
       <use xlink:href="#DejaVuSans-35"/>
       <use xlink:href="#DejaVuSans-30" x="63.623047"/>
      </g>
     </g>
    </g>
    <g id="xtick_4">
     <g id="line2d_7">
      <path d="M 196.189968 307.584 
L 196.189968 41.472 
" clip-path="url(#pef41b19d14)" style="fill: none; stroke: #b0b0b0; stroke-width: 0.8; stroke-linecap: square"/>
     </g>
     <g id="line2d_8">
      <g>
       <use xlink:href="#m44db4d32cd" x="196.189968" y="307.584" style="stroke: #000000; stroke-width: 0.8"/>
      </g>
     </g>
     <g id="text_4">
      <!-- 75 -->
      <g transform="translate(189.827468 322.182437) scale(0.1 -0.1)">
       <defs>
        <path id="DejaVuSans-37" d="M 525 4666 
L 3525 4666 
L 3525 4397 
L 1831 0 
L 1172 0 
L 2766 4134 
L 525 4134 
L 525 4666 
z
" transform="scale(0.015625)"/>
       </defs>
       <use xlink:href="#DejaVuSans-37"/>
       <use xlink:href="#DejaVuSans-35" x="63.623047"/>
      </g>
     </g>
    </g>
    <g id="xtick_5">
     <g id="line2d_9">
      <path d="M 236.975715 307.584 
L 236.975715 41.472 
" clip-path="url(#pef41b19d14)" style="fill: none; stroke: #b0b0b0; stroke-width: 0.8; stroke-linecap: square"/>
     </g>
     <g id="line2d_10">
      <g>
       <use xlink:href="#m44db4d32cd" x="236.975715" y="307.584" style="stroke: #000000; stroke-width: 0.8"/>
      </g>
     </g>
     <g id="text_5">
      <!-- 100 -->
      <g transform="translate(227.431965 322.182437) scale(0.1 -0.1)">
       <defs>
        <path id="DejaVuSans-31" d="M 794 531 
L 1825 531 
L 1825 4091 
L 703 3866 
L 703 4441 
L 1819 4666 
L 2450 4666 
L 2450 531 
L 3481 531 
L 3481 0 
L 794 0 
L 794 531 
z
" transform="scale(0.015625)"/>
       </defs>
       <use xlink:href="#DejaVuSans-31"/>
       <use xlink:href="#DejaVuSans-30" x="63.623047"/>
       <use xlink:href="#DejaVuSans-30" x="127.246094"/>
      </g>
     </g>
    </g>
    <g id="xtick_6">
     <g id="line2d_11">
      <path d="M 277.761462 307.584 
L 277.761462 41.472 
" clip-path="url(#pef41b19d14)" style="fill: none; stroke: #b0b0b0; stroke-width: 0.8; stroke-linecap: square"/>
     </g>
     <g id="line2d_12">
      <g>
       <use xlink:href="#m44db4d32cd" x="277.761462" y="307.584" style="stroke: #000000; stroke-width: 0.8"/>
      </g>
     </g>
     <g id="text_6">
      <!-- 125 -->
      <g transform="translate(268.217712 322.182437) scale(0.1 -0.1)">
       <use xlink:href="#DejaVuSans-31"/>
       <use xlink:href="#DejaVuSans-32" x="63.623047"/>
       <use xlink:href="#DejaVuSans-35" x="127.246094"/>
      </g>
     </g>
    </g>
    <g id="xtick_7">
     <g id="line2d_13">
      <path d="M 318.547209 307.584 
L 318.547209 41.472 
" clip-path="url(#pef41b19d14)" style="fill: none; stroke: #b0b0b0; stroke-width: 0.8; stroke-linecap: square"/>
     </g>
     <g id="line2d_14">
      <g>
       <use xlink:href="#m44db4d32cd" x="318.547209" y="307.584" style="stroke: #000000; stroke-width: 0.8"/>
      </g>
     </g>
     <g id="text_7">
      <!-- 150 -->
      <g transform="translate(309.003459 322.182437) scale(0.1 -0.1)">
       <use xlink:href="#DejaVuSans-31"/>
       <use xlink:href="#DejaVuSans-35" x="63.623047"/>
       <use xlink:href="#DejaVuSans-30" x="127.246094"/>
      </g>
     </g>
    </g>
    <g id="xtick_8">
     <g id="line2d_15">
      <path d="M 359.332956 307.584 
L 359.332956 41.472 
" clip-path="url(#pef41b19d14)" style="fill: none; stroke: #b0b0b0; stroke-width: 0.8; stroke-linecap: square"/>
     </g>
     <g id="line2d_16">
      <g>
       <use xlink:href="#m44db4d32cd" x="359.332956" y="307.584" style="stroke: #000000; stroke-width: 0.8"/>
      </g>
     </g>
     <g id="text_8">
      <!-- 175 -->
      <g transform="translate(349.789206 322.182437) scale(0.1 -0.1)">
       <use xlink:href="#DejaVuSans-31"/>
       <use xlink:href="#DejaVuSans-37" x="63.623047"/>
       <use xlink:href="#DejaVuSans-35" x="127.246094"/>
      </g>
     </g>
    </g>
    <g id="xtick_9">
     <g id="line2d_17">
      <path d="M 400.118703 307.584 
L 400.118703 41.472 
" clip-path="url(#pef41b19d14)" style="fill: none; stroke: #b0b0b0; stroke-width: 0.8; stroke-linecap: square"/>
     </g>
     <g id="line2d_18">
      <g>
       <use xlink:href="#m44db4d32cd" x="400.118703" y="307.584" style="stroke: #000000; stroke-width: 0.8"/>
      </g>
     </g>
     <g id="text_9">
      <!-- 200 -->
      <g transform="translate(390.574953 322.182437) scale(0.1 -0.1)">
       <use xlink:href="#DejaVuSans-32"/>
       <use xlink:href="#DejaVuSans-30" x="63.623047"/>
       <use xlink:href="#DejaVuSans-30" x="127.246094"/>
      </g>
     </g>
    </g>
    <g id="text_10">
     <!-- Generations -->
     <g transform="translate(205.662344 335.860562) scale(0.1 -0.1)">
      <defs>
       <path id="DejaVuSans-47" d="M 3809 666 
L 3809 1919 
L 2778 1919 
L 2778 2438 
L 4434 2438 
L 4434 434 
Q 4069 175 3628 42 
Q 3188 -91 2688 -91 
Q 1594 -91 976 548 
Q 359 1188 359 2328 
Q 359 3472 976 4111 
Q 1594 4750 2688 4750 
Q 3144 4750 3555 4637 
Q 3966 4525 4313 4306 
L 4313 3634 
Q 3963 3931 3569 4081 
Q 3175 4231 2741 4231 
Q 1884 4231 1454 3753 
Q 1025 3275 1025 2328 
Q 1025 1384 1454 906 
Q 1884 428 2741 428 
Q 3075 428 3337 486 
Q 3600 544 3809 666 
z
" transform="scale(0.015625)"/>
       <path id="DejaVuSans-65" d="M 3597 1894 
L 3597 1613 
L 953 1613 
Q 991 1019 1311 708 
Q 1631 397 2203 397 
Q 2534 397 2845 478 
Q 3156 559 3463 722 
L 3463 178 
Q 3153 47 2828 -22 
Q 2503 -91 2169 -91 
Q 1331 -91 842 396 
Q 353 884 353 1716 
Q 353 2575 817 3079 
Q 1281 3584 2069 3584 
Q 2775 3584 3186 3129 
Q 3597 2675 3597 1894 
z
M 3022 2063 
Q 3016 2534 2758 2815 
Q 2500 3097 2075 3097 
Q 1594 3097 1305 2825 
Q 1016 2553 972 2059 
L 3022 2063 
z
" transform="scale(0.015625)"/>
       <path id="DejaVuSans-6e" d="M 3513 2113 
L 3513 0 
L 2938 0 
L 2938 2094 
Q 2938 2591 2744 2837 
Q 2550 3084 2163 3084 
Q 1697 3084 1428 2787 
Q 1159 2491 1159 1978 
L 1159 0 
L 581 0 
L 581 3500 
L 1159 3500 
L 1159 2956 
Q 1366 3272 1645 3428 
Q 1925 3584 2291 3584 
Q 2894 3584 3203 3211 
Q 3513 2838 3513 2113 
z
" transform="scale(0.015625)"/>
       <path id="DejaVuSans-72" d="M 2631 2963 
Q 2534 3019 2420 3045 
Q 2306 3072 2169 3072 
Q 1681 3072 1420 2755 
Q 1159 2438 1159 1844 
L 1159 0 
L 581 0 
L 581 3500 
L 1159 3500 
L 1159 2956 
Q 1341 3275 1631 3429 
Q 1922 3584 2338 3584 
Q 2397 3584 2469 3576 
Q 2541 3569 2628 3553 
L 2631 2963 
z
" transform="scale(0.015625)"/>
       <path id="DejaVuSans-61" d="M 2194 1759 
Q 1497 1759 1228 1600 
Q 959 1441 959 1056 
Q 959 750 1161 570 
Q 1363 391 1709 391 
Q 2188 391 2477 730 
Q 2766 1069 2766 1631 
L 2766 1759 
L 2194 1759 
z
M 3341 1997 
L 3341 0 
L 2766 0 
L 2766 531 
Q 2569 213 2275 61 
Q 1981 -91 1556 -91 
Q 1019 -91 701 211 
Q 384 513 384 1019 
Q 384 1609 779 1909 
Q 1175 2209 1959 2209 
L 2766 2209 
L 2766 2266 
Q 2766 2663 2505 2880 
Q 2244 3097 1772 3097 
Q 1472 3097 1187 3025 
Q 903 2953 641 2809 
L 641 3341 
Q 956 3463 1253 3523 
Q 1550 3584 1831 3584 
Q 2591 3584 2966 3190 
Q 3341 2797 3341 1997 
z
" transform="scale(0.015625)"/>
       <path id="DejaVuSans-74" d="M 1172 4494 
L 1172 3500 
L 2356 3500 
L 2356 3053 
L 1172 3053 
L 1172 1153 
Q 1172 725 1289 603 
Q 1406 481 1766 481 
L 2356 481 
L 2356 0 
L 1766 0 
Q 1100 0 847 248 
Q 594 497 594 1153 
L 594 3053 
L 172 3053 
L 172 3500 
L 594 3500 
L 594 4494 
L 1172 4494 
z
" transform="scale(0.015625)"/>
       <path id="DejaVuSans-69" d="M 603 3500 
L 1178 3500 
L 1178 0 
L 603 0 
L 603 3500 
z
M 603 4863 
L 1178 4863 
L 1178 4134 
L 603 4134 
L 603 4863 
z
" transform="scale(0.015625)"/>
       <path id="DejaVuSans-6f" d="M 1959 3097 
Q 1497 3097 1228 2736 
Q 959 2375 959 1747 
Q 959 1119 1226 758 
Q 1494 397 1959 397 
Q 2419 397 2687 759 
Q 2956 1122 2956 1747 
Q 2956 2369 2687 2733 
Q 2419 3097 1959 3097 
z
M 1959 3584 
Q 2709 3584 3137 3096 
Q 3566 2609 3566 1747 
Q 3566 888 3137 398 
Q 2709 -91 1959 -91 
Q 1206 -91 779 398 
Q 353 888 353 1747 
Q 353 2609 779 3096 
Q 1206 3584 1959 3584 
z
" transform="scale(0.015625)"/>
       <path id="DejaVuSans-73" d="M 2834 3397 
L 2834 2853 
Q 2591 2978 2328 3040 
Q 2066 3103 1784 3103 
Q 1356 3103 1142 2972 
Q 928 2841 928 2578 
Q 928 2378 1081 2264 
Q 1234 2150 1697 2047 
L 1894 2003 
Q 2506 1872 2764 1633 
Q 3022 1394 3022 966 
Q 3022 478 2636 193 
Q 2250 -91 1575 -91 
Q 1294 -91 989 -36 
Q 684 19 347 128 
L 347 722 
Q 666 556 975 473 
Q 1284 391 1588 391 
Q 1994 391 2212 530 
Q 2431 669 2431 922 
Q 2431 1156 2273 1281 
Q 2116 1406 1581 1522 
L 1381 1569 
Q 847 1681 609 1914 
Q 372 2147 372 2553 
Q 372 3047 722 3315 
Q 1072 3584 1716 3584 
Q 2034 3584 2315 3537 
Q 2597 3491 2834 3397 
z
" transform="scale(0.015625)"/>
      </defs>
      <use xlink:href="#DejaVuSans-47"/>
      <use xlink:href="#DejaVuSans-65" x="77.490234"/>
      <use xlink:href="#DejaVuSans-6e" x="139.013672"/>
      <use xlink:href="#DejaVuSans-65" x="202.392578"/>
      <use xlink:href="#DejaVuSans-72" x="263.916016"/>
      <use xlink:href="#DejaVuSans-61" x="305.029297"/>
      <use xlink:href="#DejaVuSans-74" x="366.308594"/>
      <use xlink:href="#DejaVuSans-69" x="405.517578"/>
      <use xlink:href="#DejaVuSans-6f" x="433.300781"/>
      <use xlink:href="#DejaVuSans-6e" x="494.482422"/>
      <use xlink:href="#DejaVuSans-73" x="557.861328"/>
     </g>
    </g>
   </g>
   <g id="matplotlib.axis_2">
    <g id="ytick_1">
     <g id="line2d_19">
      <path d="M 57.6 291.784107 
L 414.72 291.784107 
" clip-path="url(#pef41b19d14)" style="fill: none; stroke: #b0b0b0; stroke-width: 0.8; stroke-linecap: square"/>
     </g>
     <g id="line2d_20">
      <defs>
       <path id="m107b05de51" d="M 0 0 
L -3.5 0 
" style="stroke: #000000; stroke-width: 0.8"/>
      </defs>
      <g>
       <use xlink:href="#m107b05de51" x="57.6" y="291.784107" style="stroke: #000000; stroke-width: 0.8"/>
      </g>
     </g>
     <g id="text_11">
      <!-- −2050 -->
      <g transform="translate(16.770313 295.583326) scale(0.1 -0.1)">
       <defs>
        <path id="DejaVuSans-2212" d="M 678 2272 
L 4684 2272 
L 4684 1741 
L 678 1741 
L 678 2272 
z
" transform="scale(0.015625)"/>
       </defs>
       <use xlink:href="#DejaVuSans-2212"/>
       <use xlink:href="#DejaVuSans-32" x="83.789062"/>
       <use xlink:href="#DejaVuSans-30" x="147.412109"/>
       <use xlink:href="#DejaVuSans-35" x="211.035156"/>
       <use xlink:href="#DejaVuSans-30" x="274.658203"/>
      </g>
     </g>
    </g>
    <g id="ytick_2">
     <g id="line2d_21">
      <path d="M 57.6 260.998877 
L 414.72 260.998877 
" clip-path="url(#pef41b19d14)" style="fill: none; stroke: #b0b0b0; stroke-width: 0.8; stroke-linecap: square"/>
     </g>
     <g id="line2d_22">
      <g>
       <use xlink:href="#m107b05de51" x="57.6" y="260.998877" style="stroke: #000000; stroke-width: 0.8"/>
      </g>
     </g>
     <g id="text_12">
      <!-- −2000 -->
      <g transform="translate(16.770313 264.798096) scale(0.1 -0.1)">
       <use xlink:href="#DejaVuSans-2212"/>
       <use xlink:href="#DejaVuSans-32" x="83.789062"/>
       <use xlink:href="#DejaVuSans-30" x="147.412109"/>
       <use xlink:href="#DejaVuSans-30" x="211.035156"/>
       <use xlink:href="#DejaVuSans-30" x="274.658203"/>
      </g>
     </g>
    </g>
    <g id="ytick_3">
     <g id="line2d_23">
      <path d="M 57.6 230.213648 
L 414.72 230.213648 
" clip-path="url(#pef41b19d14)" style="fill: none; stroke: #b0b0b0; stroke-width: 0.8; stroke-linecap: square"/>
     </g>
     <g id="line2d_24">
      <g>
       <use xlink:href="#m107b05de51" x="57.6" y="230.213648" style="stroke: #000000; stroke-width: 0.8"/>
      </g>
     </g>
     <g id="text_13">
      <!-- −1950 -->
      <g transform="translate(16.770313 234.012866) scale(0.1 -0.1)">
       <defs>
        <path id="DejaVuSans-39" d="M 703 97 
L 703 672 
Q 941 559 1184 500 
Q 1428 441 1663 441 
Q 2288 441 2617 861 
Q 2947 1281 2994 2138 
Q 2813 1869 2534 1725 
Q 2256 1581 1919 1581 
Q 1219 1581 811 2004 
Q 403 2428 403 3163 
Q 403 3881 828 4315 
Q 1253 4750 1959 4750 
Q 2769 4750 3195 4129 
Q 3622 3509 3622 2328 
Q 3622 1225 3098 567 
Q 2575 -91 1691 -91 
Q 1453 -91 1209 -44 
Q 966 3 703 97 
z
M 1959 2075 
Q 2384 2075 2632 2365 
Q 2881 2656 2881 3163 
Q 2881 3666 2632 3958 
Q 2384 4250 1959 4250 
Q 1534 4250 1286 3958 
Q 1038 3666 1038 3163 
Q 1038 2656 1286 2365 
Q 1534 2075 1959 2075 
z
" transform="scale(0.015625)"/>
       </defs>
       <use xlink:href="#DejaVuSans-2212"/>
       <use xlink:href="#DejaVuSans-31" x="83.789062"/>
       <use xlink:href="#DejaVuSans-39" x="147.412109"/>
       <use xlink:href="#DejaVuSans-35" x="211.035156"/>
       <use xlink:href="#DejaVuSans-30" x="274.658203"/>
      </g>
     </g>
    </g>
    <g id="ytick_4">
     <g id="line2d_25">
      <path d="M 57.6 199.428418 
L 414.72 199.428418 
" clip-path="url(#pef41b19d14)" style="fill: none; stroke: #b0b0b0; stroke-width: 0.8; stroke-linecap: square"/>
     </g>
     <g id="line2d_26">
      <g>
       <use xlink:href="#m107b05de51" x="57.6" y="199.428418" style="stroke: #000000; stroke-width: 0.8"/>
      </g>
     </g>
     <g id="text_14">
      <!-- −1900 -->
      <g transform="translate(16.770313 203.227637) scale(0.1 -0.1)">
       <use xlink:href="#DejaVuSans-2212"/>
       <use xlink:href="#DejaVuSans-31" x="83.789062"/>
       <use xlink:href="#DejaVuSans-39" x="147.412109"/>
       <use xlink:href="#DejaVuSans-30" x="211.035156"/>
       <use xlink:href="#DejaVuSans-30" x="274.658203"/>
      </g>
     </g>
    </g>
    <g id="ytick_5">
     <g id="line2d_27">
      <path d="M 57.6 168.643188 
L 414.72 168.643188 
" clip-path="url(#pef41b19d14)" style="fill: none; stroke: #b0b0b0; stroke-width: 0.8; stroke-linecap: square"/>
     </g>
     <g id="line2d_28">
      <g>
       <use xlink:href="#m107b05de51" x="57.6" y="168.643188" style="stroke: #000000; stroke-width: 0.8"/>
      </g>
     </g>
     <g id="text_15">
      <!-- −1850 -->
      <g transform="translate(16.770313 172.442407) scale(0.1 -0.1)">
       <defs>
        <path id="DejaVuSans-38" d="M 2034 2216 
Q 1584 2216 1326 1975 
Q 1069 1734 1069 1313 
Q 1069 891 1326 650 
Q 1584 409 2034 409 
Q 2484 409 2743 651 
Q 3003 894 3003 1313 
Q 3003 1734 2745 1975 
Q 2488 2216 2034 2216 
z
M 1403 2484 
Q 997 2584 770 2862 
Q 544 3141 544 3541 
Q 544 4100 942 4425 
Q 1341 4750 2034 4750 
Q 2731 4750 3128 4425 
Q 3525 4100 3525 3541 
Q 3525 3141 3298 2862 
Q 3072 2584 2669 2484 
Q 3125 2378 3379 2068 
Q 3634 1759 3634 1313 
Q 3634 634 3220 271 
Q 2806 -91 2034 -91 
Q 1263 -91 848 271 
Q 434 634 434 1313 
Q 434 1759 690 2068 
Q 947 2378 1403 2484 
z
M 1172 3481 
Q 1172 3119 1398 2916 
Q 1625 2713 2034 2713 
Q 2441 2713 2670 2916 
Q 2900 3119 2900 3481 
Q 2900 3844 2670 4047 
Q 2441 4250 2034 4250 
Q 1625 4250 1398 4047 
Q 1172 3844 1172 3481 
z
" transform="scale(0.015625)"/>
       </defs>
       <use xlink:href="#DejaVuSans-2212"/>
       <use xlink:href="#DejaVuSans-31" x="83.789062"/>
       <use xlink:href="#DejaVuSans-38" x="147.412109"/>
       <use xlink:href="#DejaVuSans-35" x="211.035156"/>
       <use xlink:href="#DejaVuSans-30" x="274.658203"/>
      </g>
     </g>
    </g>
    <g id="ytick_6">
     <g id="line2d_29">
      <path d="M 57.6 137.857959 
L 414.72 137.857959 
" clip-path="url(#pef41b19d14)" style="fill: none; stroke: #b0b0b0; stroke-width: 0.8; stroke-linecap: square"/>
     </g>
     <g id="line2d_30">
      <g>
       <use xlink:href="#m107b05de51" x="57.6" y="137.857959" style="stroke: #000000; stroke-width: 0.8"/>
      </g>
     </g>
     <g id="text_16">
      <!-- −1800 -->
      <g transform="translate(16.770313 141.657178) scale(0.1 -0.1)">
       <use xlink:href="#DejaVuSans-2212"/>
       <use xlink:href="#DejaVuSans-31" x="83.789062"/>
       <use xlink:href="#DejaVuSans-38" x="147.412109"/>
       <use xlink:href="#DejaVuSans-30" x="211.035156"/>
       <use xlink:href="#DejaVuSans-30" x="274.658203"/>
      </g>
     </g>
    </g>
    <g id="ytick_7">
     <g id="line2d_31">
      <path d="M 57.6 107.072729 
L 414.72 107.072729 
" clip-path="url(#pef41b19d14)" style="fill: none; stroke: #b0b0b0; stroke-width: 0.8; stroke-linecap: square"/>
     </g>
     <g id="line2d_32">
      <g>
       <use xlink:href="#m107b05de51" x="57.6" y="107.072729" style="stroke: #000000; stroke-width: 0.8"/>
      </g>
     </g>
     <g id="text_17">
      <!-- −1750 -->
      <g transform="translate(16.770313 110.871948) scale(0.1 -0.1)">
       <use xlink:href="#DejaVuSans-2212"/>
       <use xlink:href="#DejaVuSans-31" x="83.789062"/>
       <use xlink:href="#DejaVuSans-37" x="147.412109"/>
       <use xlink:href="#DejaVuSans-35" x="211.035156"/>
       <use xlink:href="#DejaVuSans-30" x="274.658203"/>
      </g>
     </g>
    </g>
    <g id="ytick_8">
     <g id="line2d_33">
      <path d="M 57.6 76.287499 
L 414.72 76.287499 
" clip-path="url(#pef41b19d14)" style="fill: none; stroke: #b0b0b0; stroke-width: 0.8; stroke-linecap: square"/>
     </g>
     <g id="line2d_34">
      <g>
       <use xlink:href="#m107b05de51" x="57.6" y="76.287499" style="stroke: #000000; stroke-width: 0.8"/>
      </g>
     </g>
     <g id="text_18">
      <!-- −1700 -->
      <g transform="translate(16.770313 80.086718) scale(0.1 -0.1)">
       <use xlink:href="#DejaVuSans-2212"/>
       <use xlink:href="#DejaVuSans-31" x="83.789062"/>
       <use xlink:href="#DejaVuSans-37" x="147.412109"/>
       <use xlink:href="#DejaVuSans-30" x="211.035156"/>
       <use xlink:href="#DejaVuSans-30" x="274.658203"/>
      </g>
     </g>
    </g>
    <g id="ytick_9">
     <g id="line2d_35">
      <path d="M 57.6 45.50227 
L 414.72 45.50227 
" clip-path="url(#pef41b19d14)" style="fill: none; stroke: #b0b0b0; stroke-width: 0.8; stroke-linecap: square"/>
     </g>
     <g id="line2d_36">
      <g>
       <use xlink:href="#m107b05de51" x="57.6" y="45.50227" style="stroke: #000000; stroke-width: 0.8"/>
      </g>
     </g>
     <g id="text_19">
      <!-- −1650 -->
      <g transform="translate(16.770313 49.301489) scale(0.1 -0.1)">
       <defs>
        <path id="DejaVuSans-36" d="M 2113 2584 
Q 1688 2584 1439 2293 
Q 1191 2003 1191 1497 
Q 1191 994 1439 701 
Q 1688 409 2113 409 
Q 2538 409 2786 701 
Q 3034 994 3034 1497 
Q 3034 2003 2786 2293 
Q 2538 2584 2113 2584 
z
M 3366 4563 
L 3366 3988 
Q 3128 4100 2886 4159 
Q 2644 4219 2406 4219 
Q 1781 4219 1451 3797 
Q 1122 3375 1075 2522 
Q 1259 2794 1537 2939 
Q 1816 3084 2150 3084 
Q 2853 3084 3261 2657 
Q 3669 2231 3669 1497 
Q 3669 778 3244 343 
Q 2819 -91 2113 -91 
Q 1303 -91 875 529 
Q 447 1150 447 2328 
Q 447 3434 972 4092 
Q 1497 4750 2381 4750 
Q 2619 4750 2861 4703 
Q 3103 4656 3366 4563 
z
" transform="scale(0.015625)"/>
       </defs>
       <use xlink:href="#DejaVuSans-2212"/>
       <use xlink:href="#DejaVuSans-31" x="83.789062"/>
       <use xlink:href="#DejaVuSans-36" x="147.412109"/>
       <use xlink:href="#DejaVuSans-35" x="211.035156"/>
       <use xlink:href="#DejaVuSans-30" x="274.658203"/>
      </g>
     </g>
    </g>
    <g id="text_20">
     <!-- Fitness -->
     <g transform="translate(10.690625 191.845187) rotate(-90) scale(0.1 -0.1)">
      <defs>
       <path id="DejaVuSans-46" d="M 628 4666 
L 3309 4666 
L 3309 4134 
L 1259 4134 
L 1259 2759 
L 3109 2759 
L 3109 2228 
L 1259 2228 
L 1259 0 
L 628 0 
L 628 4666 
z
" transform="scale(0.015625)"/>
      </defs>
      <use xlink:href="#DejaVuSans-46"/>
      <use xlink:href="#DejaVuSans-69" x="50.269531"/>
      <use xlink:href="#DejaVuSans-74" x="78.052734"/>
      <use xlink:href="#DejaVuSans-6e" x="117.261719"/>
      <use xlink:href="#DejaVuSans-65" x="180.640625"/>
      <use xlink:href="#DejaVuSans-73" x="242.164062"/>
      <use xlink:href="#DejaVuSans-73" x="294.263672"/>
     </g>
    </g>
   </g>
   <g id="line2d_37">
    <path d="M 73.832727 242.318769 
L 75.464157 227.849161 
L 77.095587 225.932245 
L 78.727017 209.737064 
L 80.358447 209.076143 
L 81.989877 203.807192 
L 83.621307 201.09571 
L 85.252736 195.349666 
L 86.884166 194.721506 
L 88.515596 192.353321 
L 90.147026 190.945742 
L 91.778456 192.319122 
L 93.409886 199.072834 
L 95.041316 196.291699 
L 96.672746 193.06819 
L 98.304175 190.467465 
L 99.935605 196.959624 
L 101.567035 190.676962 
L 103.198465 191.831529 
L 104.829895 189.928561 
L 106.461325 195.185833 
L 108.092755 192.302325 
L 111.355614 194.614437 
L 112.987044 196.911787 
L 114.618474 186.303397 
L 116.249904 196.06422 
L 117.881334 189.678407 
L 119.512764 192.520918 
L 121.144194 197.735969 
L 122.775624 200.11302 
L 124.407053 183.194713 
L 126.038483 184.4913 
L 127.669913 186.598831 
L 129.301343 184.824838 
L 130.932773 192.559821 
L 132.564203 198.838081 
L 134.195633 186.854023 
L 135.827063 195.014801 
L 137.458492 201.620451 
L 139.089922 196.549237 
L 140.721352 199.344832 
L 142.352782 195.242 
L 143.984212 194.31098 
L 145.615642 198.984803 
L 147.247072 194.547871 
L 148.878502 203.800356 
L 150.509931 195.318097 
L 152.141361 194.393186 
L 153.772791 192.184806 
L 155.404221 191.612787 
L 157.035651 197.8454 
L 158.667081 194.210503 
L 160.298511 197.09947 
L 161.929941 195.377935 
L 163.56137 192.543804 
L 165.1928 187.354622 
L 166.82423 199.11679 
L 168.45566 195.723653 
L 170.08709 189.727201 
L 171.71852 192.801238 
L 173.34995 198.19308 
L 174.98138 193.600959 
L 176.61281 196.527957 
L 178.244239 193.283442 
L 179.875669 196.831771 
L 181.507099 204.967966 
L 183.138529 197.139698 
L 184.769959 196.378568 
L 186.401389 187.512263 
L 188.032819 197.656504 
L 189.664249 200.009827 
L 191.295678 198.16356 
L 192.927108 194.65209 
L 194.558538 196.256592 
L 196.189968 202.349906 
L 197.821398 190.949663 
L 199.452828 188.950876 
L 201.084258 197.587827 
L 202.715688 190.719429 
L 204.347117 188.12205 
L 205.978547 195.236079 
L 207.609977 185.863903 
L 209.241407 191.790755 
L 210.872837 186.765468 
L 212.504267 195.446741 
L 214.135697 187.667537 
L 215.767127 184.979582 
L 217.398556 189.213215 
L 219.029986 190.104678 
L 220.661416 191.87738 
L 222.292846 187.823044 
L 223.924276 185.974525 
L 225.555706 193.493258 
L 227.187136 189.07131 
L 228.818566 190.546298 
L 230.449995 185.840062 
L 232.081425 190.046077 
L 233.712855 189.124443 
L 235.344285 184.941813 
L 236.975715 187.88987 
L 238.607145 193.903536 
L 240.238575 194.455577 
L 241.870005 194.76988 
L 243.501434 192.606181 
L 245.132864 194.923776 
L 246.764294 196.701571 
L 248.395724 194.907202 
L 250.027154 200.336795 
L 251.658584 195.630844 
L 253.290014 189.316164 
L 254.921444 196.870706 
L 256.552873 187.064906 
L 258.184303 195.625467 
L 259.815733 191.121393 
L 261.447163 200.936654 
L 263.078593 194.14683 
L 264.710023 192.168932 
L 266.341453 197.159234 
L 267.972883 198.896422 
L 269.604312 196.186101 
L 271.235742 195.132744 
L 272.867172 190.200661 
L 274.498602 184.164696 
L 276.130032 190.287524 
L 277.761462 190.021068 
L 279.392892 188.86454 
L 281.024322 192.034162 
L 282.655751 192.568314 
L 284.287181 191.167048 
L 285.918611 192.336694 
L 287.550041 191.632251 
L 289.181471 188.148136 
L 290.812901 186.137422 
L 292.444331 191.981685 
L 294.075761 194.133445 
L 295.70719 196.616914 
L 297.33862 193.821658 
L 298.97005 198.53429 
L 300.60148 194.997304 
L 302.23291 193.137823 
L 303.86434 198.033151 
L 305.49577 195.252703 
L 307.1272 195.946408 
L 308.75863 194.645866 
L 310.390059 196.966894 
L 312.021489 196.700007 
L 313.652919 197.749958 
L 315.284349 202.536291 
L 316.915779 196.005664 
L 318.547209 196.516702 
L 320.178639 198.810364 
L 321.810069 196.281446 
L 323.441498 204.759787 
L 325.072928 198.767295 
L 326.704358 193.872645 
L 328.335788 195.814597 
L 329.967218 196.684594 
L 331.598648 190.597877 
L 333.230078 195.220563 
L 334.861508 190.586473 
L 336.492937 190.143877 
L 338.124367 187.577375 
L 339.755797 191.809099 
L 341.387227 193.186547 
L 343.018657 198.08408 
L 344.650087 190.767559 
L 346.281517 202.369218 
L 347.912947 202.649651 
L 349.544376 194.324414 
L 351.175806 194.290705 
L 352.807236 193.325469 
L 354.438666 188.463788 
L 356.070096 191.275564 
L 357.701526 196.486201 
L 359.332956 194.907283 
L 360.964386 191.271902 
L 362.595815 190.881628 
L 364.227245 185.707239 
L 365.858675 186.114211 
L 367.490105 195.761452 
L 369.121535 193.822927 
L 370.752965 189.216269 
L 372.384395 192.649723 
L 374.015825 197.104336 
L 375.647254 187.305033 
L 377.278684 190.743381 
L 378.910114 186.202223 
L 380.541544 186.407398 
L 382.172974 190.479609 
L 383.804404 195.461168 
L 385.435834 188.558647 
L 387.067264 189.775411 
L 388.698693 192.892088 
L 390.330123 185.191245 
L 391.961553 187.869804 
L 393.592983 198.518291 
L 395.224413 196.95674 
L 396.855843 197.231873 
L 398.487273 193.544361 
L 398.487273 193.544361 
" clip-path="url(#pef41b19d14)" style="fill: none; stroke: #0000ff; stroke-width: 1.5; stroke-linecap: square"/>
   </g>
   <g id="line2d_38">
    <path d="M 73.832727 295.488 
L 75.464157 281.194863 
L 77.095587 279.821847 
L 78.727017 260.102975 
L 80.358447 263.362479 
L 81.989877 251.894253 
L 85.252736 241.44573 
L 86.884166 240.041557 
L 88.515596 236.989636 
L 90.147026 235.946405 
L 91.778456 237.525345 
L 93.409886 247.376084 
L 95.041316 248.81603 
L 96.672746 239.041013 
L 98.304175 233.616953 
L 99.935605 248.224285 
L 101.567035 239.213292 
L 103.198465 239.580563 
L 104.829895 231.25652 
L 106.461325 246.756408 
L 108.092755 244.180641 
L 109.724185 243.578864 
L 111.355614 240.761422 
L 112.987044 245.907215 
L 114.618474 231.246139 
L 116.249904 244.142752 
L 117.881334 235.017254 
L 119.512764 241.856183 
L 121.144194 250.166633 
L 122.775624 250.148477 
L 124.407053 228.042248 
L 126.038483 236.045184 
L 127.669913 238.952354 
L 129.301343 229.640138 
L 130.932773 239.654552 
L 132.564203 247.157514 
L 134.195633 229.236217 
L 137.458492 250.359743 
L 139.089922 242.805943 
L 140.721352 242.880844 
L 142.352782 237.562631 
L 143.984212 236.681487 
L 145.615642 244.87463 
L 147.247072 235.552977 
L 148.878502 249.581815 
L 150.509931 238.009093 
L 152.141361 236.684119 
L 153.772791 232.993984 
L 155.404221 232.475132 
L 157.035651 243.965972 
L 158.667081 235.969944 
L 160.298511 240.289192 
L 161.929941 243.396577 
L 163.56137 237.727438 
L 165.1928 228.951524 
L 166.82423 243.905428 
L 168.45566 240.532554 
L 170.08709 229.313496 
L 171.71852 235.661003 
L 173.34995 243.03656 
L 174.98138 239.164674 
L 176.61281 242.381673 
L 178.244239 236.877157 
L 179.875669 241.8233 
L 181.507099 255.817054 
L 183.138529 247.184639 
L 184.769959 243.218223 
L 186.401389 228.360524 
L 188.032819 247.392361 
L 189.664249 252.212191 
L 191.295678 250.606079 
L 192.927108 244.559355 
L 194.558538 240.978393 
L 196.189968 252.628737 
L 197.821398 234.72033 
L 201.084258 246.106493 
L 202.715688 234.55234 
L 204.347117 231.794023 
L 205.978547 241.615888 
L 207.609977 225.942945 
L 209.241407 239.035121 
L 210.872837 228.379349 
L 212.504267 248.762804 
L 214.135697 234.589015 
L 215.767127 232.558442 
L 217.398556 238.817244 
L 219.029986 240.044721 
L 220.661416 240.518888 
L 222.292846 236.690769 
L 223.924276 229.173884 
L 225.555706 243.055384 
L 227.187136 234.466405 
L 228.818566 238.227815 
L 230.449995 230.337886 
L 232.081425 235.248468 
L 233.712855 235.478765 
L 235.344285 227.282712 
L 236.975715 232.859436 
L 238.607145 244.435754 
L 240.238575 243.170953 
L 241.870005 242.370187 
L 243.501434 238.943774 
L 245.132864 242.861746 
L 246.764294 249.428464 
L 248.395724 242.226351 
L 250.027154 251.405998 
L 251.658584 245.669652 
L 253.290014 238.691409 
L 254.921444 244.980103 
L 256.552873 229.047228 
L 258.184303 243.029602 
L 259.815733 236.188365 
L 261.447163 249.833114 
L 263.078593 239.820117 
L 264.710023 240.091078 
L 266.341453 245.193543 
L 267.972883 248.146402 
L 269.604312 244.49124 
L 271.235742 242.490154 
L 272.867172 234.262601 
L 274.498602 225.120237 
L 276.130032 234.685505 
L 277.761462 232.17247 
L 279.392892 232.738598 
L 281.024322 237.774704 
L 282.655751 240.75622 
L 284.287181 238.681576 
L 285.918611 238.424715 
L 287.550041 236.626857 
L 289.181471 232.047835 
L 290.812901 230.135497 
L 292.444331 239.725353 
L 294.075761 241.528644 
L 295.70719 247.05543 
L 297.33862 246.293812 
L 298.97005 248.119252 
L 300.60148 245.197571 
L 302.23291 240.95818 
L 303.86434 246.173546 
L 305.49577 245.354838 
L 307.1272 244.780085 
L 308.75863 244.621409 
L 310.390059 248.041186 
L 312.021489 247.960505 
L 313.652919 252.995417 
L 315.284349 260.82362 
L 316.915779 251.57736 
L 318.547209 252.954796 
L 320.178639 258.821919 
L 321.810069 256.326966 
L 323.441498 263.726412 
L 326.704358 245.55163 
L 328.335788 250.416652 
L 329.967218 251.592016 
L 331.598648 241.558116 
L 333.230078 249.578054 
L 334.861508 247.52463 
L 336.492937 243.544361 
L 338.124367 241.392301 
L 339.755797 250.268863 
L 341.387227 253.609531 
L 343.018657 259.697359 
L 344.650087 248.044529 
L 346.281517 263.064287 
L 347.912947 258.093666 
L 349.544376 246.871105 
L 351.175806 248.841806 
L 352.807236 249.163435 
L 354.438666 236.65065 
L 356.070096 241.370197 
L 357.701526 248.374856 
L 359.332956 248.511709 
L 360.964386 244.094914 
L 362.595815 245.013321 
L 364.227245 238.117563 
L 365.858675 241.937119 
L 367.490105 255.804255 
L 369.121535 247.522242 
L 370.752965 240.338538 
L 374.015825 254.038392 
L 375.647254 242.114635 
L 377.278684 247.010453 
L 378.910114 241.303995 
L 380.541544 244.000047 
L 382.172974 244.993995 
L 383.804404 253.802161 
L 385.435834 249.678084 
L 387.067264 249.609258 
L 388.698693 252.206243 
L 390.330123 238.051023 
L 391.961553 247.74908 
L 393.592983 258.542353 
L 395.224413 251.484092 
L 396.855843 250.959042 
L 398.487273 244.547643 
L 398.487273 244.547643 
" clip-path="url(#pef41b19d14)" style="fill: none; stroke-dasharray: 9.6,2.4,1.5,2.4; stroke-dashoffset: 0; stroke: #008000; stroke-width: 1.5"/>
   </g>
   <g id="line2d_39">
    <path d="M 73.832727 189.149539 
L 75.464157 174.503459 
L 77.095587 172.042644 
L 78.727017 159.371152 
L 80.358447 154.789807 
L 81.989877 155.720131 
L 83.621307 155.444037 
L 85.252736 149.253601 
L 86.884166 149.401455 
L 90.147026 145.94508 
L 91.778456 147.112899 
L 93.409886 150.769584 
L 95.041316 143.767368 
L 96.672746 147.095366 
L 98.304175 147.317978 
L 99.935605 145.694963 
L 101.567035 142.140632 
L 103.198465 144.082495 
L 104.829895 148.600602 
L 106.461325 143.615258 
L 108.092755 140.424008 
L 109.724185 143.412113 
L 111.355614 148.467452 
L 112.987044 147.916359 
L 114.618474 141.360655 
L 116.249904 147.985688 
L 117.881334 144.339561 
L 119.512764 143.185653 
L 121.144194 145.305305 
L 122.775624 150.077563 
L 124.407053 138.347179 
L 126.038483 132.937417 
L 127.669913 134.245307 
L 130.932773 145.46509 
L 132.564203 150.518647 
L 134.195633 144.47183 
L 135.827063 150.471503 
L 137.458492 152.881158 
L 139.089922 150.292531 
L 140.721352 155.808819 
L 142.352782 152.921369 
L 143.984212 151.940473 
L 145.615642 153.094975 
L 147.247072 153.542764 
L 148.878502 158.018897 
L 150.509931 152.627102 
L 152.141361 152.102253 
L 155.404221 150.750442 
L 157.035651 151.724827 
L 158.667081 152.451062 
L 160.298511 153.909748 
L 161.929941 147.359294 
L 163.56137 147.360171 
L 165.1928 145.75772 
L 166.82423 154.328152 
L 168.45566 150.914751 
L 170.08709 150.140905 
L 171.71852 149.941473 
L 173.34995 153.3496 
L 174.98138 148.037244 
L 176.61281 150.674241 
L 178.244239 149.689728 
L 181.507099 154.118878 
L 183.138529 147.094756 
L 184.769959 149.538913 
L 186.401389 146.664001 
L 188.032819 147.920647 
L 189.664249 147.807464 
L 191.295678 145.72104 
L 192.927108 144.744824 
L 194.558538 151.534791 
L 196.189968 152.071076 
L 197.821398 147.178996 
L 199.452828 137.38518 
L 201.084258 149.069161 
L 202.715688 146.886518 
L 204.347117 144.450077 
L 205.978547 148.856271 
L 207.609977 145.78486 
L 209.241407 144.546389 
L 210.872837 145.151587 
L 212.504267 142.130678 
L 214.135697 140.746058 
L 215.767127 137.400722 
L 217.398556 139.609186 
L 219.029986 140.164634 
L 220.661416 143.235873 
L 222.292846 138.955319 
L 223.924276 142.775166 
L 225.555706 143.931132 
L 227.187136 143.676216 
L 228.818566 142.864782 
L 230.449995 141.342237 
L 232.081425 144.843686 
L 233.712855 142.770121 
L 235.344285 142.600913 
L 236.975715 142.920304 
L 238.607145 143.371319 
L 240.238575 145.740202 
L 241.870005 147.169572 
L 243.501434 146.268588 
L 245.132864 146.985807 
L 246.764294 143.974678 
L 248.395724 147.588053 
L 250.027154 149.267591 
L 251.658584 145.592036 
L 253.290014 139.940918 
L 254.921444 148.761309 
L 256.552873 145.082585 
L 258.184303 148.221333 
L 259.815733 146.054421 
L 261.447163 152.040194 
L 263.078593 148.473543 
L 264.710023 144.246786 
L 266.341453 149.124926 
L 267.972883 149.646442 
L 269.604312 147.880962 
L 271.235742 147.775334 
L 272.867172 146.138721 
L 274.498602 143.209156 
L 276.130032 145.889543 
L 277.761462 147.869665 
L 279.392892 144.990482 
L 281.024322 146.29362 
L 282.655751 144.380409 
L 284.287181 143.65252 
L 285.918611 146.248673 
L 287.550041 146.637645 
L 289.181471 144.248437 
L 290.812901 142.139346 
L 292.444331 144.238016 
L 294.075761 146.738247 
L 295.70719 146.178399 
L 297.33862 141.349504 
L 298.97005 148.949329 
L 300.60148 144.797038 
L 302.23291 145.317466 
L 303.86434 149.892756 
L 305.49577 145.150568 
L 307.1272 147.11273 
L 308.75863 144.670323 
L 310.390059 145.892603 
L 312.021489 145.439509 
L 313.652919 142.504499 
L 315.284349 144.248962 
L 316.915779 140.433967 
L 318.547209 140.078609 
L 320.178639 138.798809 
L 321.810069 136.235926 
L 323.441498 145.793163 
L 325.072928 142.635647 
L 326.704358 142.19366 
L 328.335788 141.212541 
L 329.967218 141.777171 
L 331.598648 139.637639 
L 333.230078 140.863073 
L 334.861508 133.648315 
L 336.492937 136.743393 
L 338.124367 133.762449 
L 339.755797 133.349334 
L 341.387227 132.763564 
L 343.018657 136.470801 
L 344.650087 133.49059 
L 346.281517 141.674148 
L 347.912947 147.205636 
L 349.544376 141.777722 
L 351.175806 139.739604 
L 352.807236 137.487503 
L 354.438666 140.276927 
L 356.070096 141.180931 
L 357.701526 144.597546 
L 359.332956 141.302857 
L 360.964386 138.448889 
L 362.595815 136.749936 
L 364.227245 133.296915 
L 365.858675 130.291304 
L 367.490105 135.718648 
L 369.121535 140.123612 
L 370.752965 138.093999 
L 372.384395 138.166397 
L 374.015825 140.170279 
L 375.647254 132.49543 
L 377.278684 134.476309 
L 378.910114 131.100451 
L 380.541544 128.814749 
L 382.172974 135.965224 
L 383.804404 137.120176 
L 385.435834 127.43921 
L 387.067264 129.941565 
L 388.698693 133.577933 
L 390.330123 132.331468 
L 391.961553 127.990528 
L 393.592983 138.49423 
L 395.224413 142.429387 
L 396.855843 143.504703 
L 398.487273 142.541079 
L 398.487273 142.541079 
" clip-path="url(#pef41b19d14)" style="fill: none; stroke-dasharray: 9.6,2.4,1.5,2.4; stroke-dashoffset: 0; stroke: #008000; stroke-width: 1.5"/>
   </g>
   <g id="line2d_40">
    <path d="M 73.832727 64.767667 
L 78.727017 64.767667 
L 80.358447 62.391047 
L 83.621307 62.391047 
L 85.252736 61.812285 
L 119.512764 61.812285 
L 121.144194 61.46749 
L 124.407053 61.46749 
L 126.038483 58.75839 
L 328.335788 58.75839 
L 329.967218 53.801968 
L 383.804404 53.801968 
L 385.435834 53.568 
L 398.487273 53.568 
L 398.487273 53.568 
" clip-path="url(#pef41b19d14)" style="fill: none; stroke: #ff0000; stroke-width: 1.5; stroke-linecap: square"/>
   </g>
   <g id="patch_3">
    <path d="M 57.6 307.584 
L 57.6 41.472 
" style="fill: none; stroke: #000000; stroke-width: 0.8; stroke-linejoin: miter; stroke-linecap: square"/>
   </g>
   <g id="patch_4">
    <path d="M 414.72 307.584 
L 414.72 41.472 
" style="fill: none; stroke: #000000; stroke-width: 0.8; stroke-linejoin: miter; stroke-linecap: square"/>
   </g>
   <g id="patch_5">
    <path d="M 57.6 307.584 
L 414.72 307.584 
" style="fill: none; stroke: #000000; stroke-width: 0.8; stroke-linejoin: miter; stroke-linecap: square"/>
   </g>
   <g id="patch_6">
    <path d="M 57.6 41.472 
L 414.72 41.472 
" style="fill: none; stroke: #000000; stroke-width: 0.8; stroke-linejoin: miter; stroke-linecap: square"/>
   </g>
   <g id="text_21">
    <!-- Population's average and best fitness -->
    <g transform="translate(123.529687 35.472) scale(0.12 -0.12)">
     <defs>
      <path id="DejaVuSans-50" d="M 1259 4147 
L 1259 2394 
L 2053 2394 
Q 2494 2394 2734 2622 
Q 2975 2850 2975 3272 
Q 2975 3691 2734 3919 
Q 2494 4147 2053 4147 
L 1259 4147 
z
M 628 4666 
L 2053 4666 
Q 2838 4666 3239 4311 
Q 3641 3956 3641 3272 
Q 3641 2581 3239 2228 
Q 2838 1875 2053 1875 
L 1259 1875 
L 1259 0 
L 628 0 
L 628 4666 
z
" transform="scale(0.015625)"/>
      <path id="DejaVuSans-70" d="M 1159 525 
L 1159 -1331 
L 581 -1331 
L 581 3500 
L 1159 3500 
L 1159 2969 
Q 1341 3281 1617 3432 
Q 1894 3584 2278 3584 
Q 2916 3584 3314 3078 
Q 3713 2572 3713 1747 
Q 3713 922 3314 415 
Q 2916 -91 2278 -91 
Q 1894 -91 1617 61 
Q 1341 213 1159 525 
z
M 3116 1747 
Q 3116 2381 2855 2742 
Q 2594 3103 2138 3103 
Q 1681 3103 1420 2742 
Q 1159 2381 1159 1747 
Q 1159 1113 1420 752 
Q 1681 391 2138 391 
Q 2594 391 2855 752 
Q 3116 1113 3116 1747 
z
" transform="scale(0.015625)"/>
      <path id="DejaVuSans-75" d="M 544 1381 
L 544 3500 
L 1119 3500 
L 1119 1403 
Q 1119 906 1312 657 
Q 1506 409 1894 409 
Q 2359 409 2629 706 
Q 2900 1003 2900 1516 
L 2900 3500 
L 3475 3500 
L 3475 0 
L 2900 0 
L 2900 538 
Q 2691 219 2414 64 
Q 2138 -91 1772 -91 
Q 1169 -91 856 284 
Q 544 659 544 1381 
z
M 1991 3584 
L 1991 3584 
z
" transform="scale(0.015625)"/>
      <path id="DejaVuSans-6c" d="M 603 4863 
L 1178 4863 
L 1178 0 
L 603 0 
L 603 4863 
z
" transform="scale(0.015625)"/>
      <path id="DejaVuSans-27" d="M 1147 4666 
L 1147 2931 
L 616 2931 
L 616 4666 
L 1147 4666 
z
" transform="scale(0.015625)"/>
      <path id="DejaVuSans-20" transform="scale(0.015625)"/>
      <path id="DejaVuSans-76" d="M 191 3500 
L 800 3500 
L 1894 563 
L 2988 3500 
L 3597 3500 
L 2284 0 
L 1503 0 
L 191 3500 
z
" transform="scale(0.015625)"/>
      <path id="DejaVuSans-67" d="M 2906 1791 
Q 2906 2416 2648 2759 
Q 2391 3103 1925 3103 
Q 1463 3103 1205 2759 
Q 947 2416 947 1791 
Q 947 1169 1205 825 
Q 1463 481 1925 481 
Q 2391 481 2648 825 
Q 2906 1169 2906 1791 
z
M 3481 434 
Q 3481 -459 3084 -895 
Q 2688 -1331 1869 -1331 
Q 1566 -1331 1297 -1286 
Q 1028 -1241 775 -1147 
L 775 -588 
Q 1028 -725 1275 -790 
Q 1522 -856 1778 -856 
Q 2344 -856 2625 -561 
Q 2906 -266 2906 331 
L 2906 616 
Q 2728 306 2450 153 
Q 2172 0 1784 0 
Q 1141 0 747 490 
Q 353 981 353 1791 
Q 353 2603 747 3093 
Q 1141 3584 1784 3584 
Q 2172 3584 2450 3431 
Q 2728 3278 2906 2969 
L 2906 3500 
L 3481 3500 
L 3481 434 
z
" transform="scale(0.015625)"/>
      <path id="DejaVuSans-64" d="M 2906 2969 
L 2906 4863 
L 3481 4863 
L 3481 0 
L 2906 0 
L 2906 525 
Q 2725 213 2448 61 
Q 2172 -91 1784 -91 
Q 1150 -91 751 415 
Q 353 922 353 1747 
Q 353 2572 751 3078 
Q 1150 3584 1784 3584 
Q 2172 3584 2448 3432 
Q 2725 3281 2906 2969 
z
M 947 1747 
Q 947 1113 1208 752 
Q 1469 391 1925 391 
Q 2381 391 2643 752 
Q 2906 1113 2906 1747 
Q 2906 2381 2643 2742 
Q 2381 3103 1925 3103 
Q 1469 3103 1208 2742 
Q 947 2381 947 1747 
z
" transform="scale(0.015625)"/>
      <path id="DejaVuSans-62" d="M 3116 1747 
Q 3116 2381 2855 2742 
Q 2594 3103 2138 3103 
Q 1681 3103 1420 2742 
Q 1159 2381 1159 1747 
Q 1159 1113 1420 752 
Q 1681 391 2138 391 
Q 2594 391 2855 752 
Q 3116 1113 3116 1747 
z
M 1159 2969 
Q 1341 3281 1617 3432 
Q 1894 3584 2278 3584 
Q 2916 3584 3314 3078 
Q 3713 2572 3713 1747 
Q 3713 922 3314 415 
Q 2916 -91 2278 -91 
Q 1894 -91 1617 61 
Q 1341 213 1159 525 
L 1159 0 
L 581 0 
L 581 4863 
L 1159 4863 
L 1159 2969 
z
" transform="scale(0.015625)"/>
      <path id="DejaVuSans-66" d="M 2375 4863 
L 2375 4384 
L 1825 4384 
Q 1516 4384 1395 4259 
Q 1275 4134 1275 3809 
L 1275 3500 
L 2222 3500 
L 2222 3053 
L 1275 3053 
L 1275 0 
L 697 0 
L 697 3053 
L 147 3053 
L 147 3500 
L 697 3500 
L 697 3744 
Q 697 4328 969 4595 
Q 1241 4863 1831 4863 
L 2375 4863 
z
" transform="scale(0.015625)"/>
     </defs>
     <use xlink:href="#DejaVuSans-50"/>
     <use xlink:href="#DejaVuSans-6f" x="56.677734"/>
     <use xlink:href="#DejaVuSans-70" x="117.859375"/>
     <use xlink:href="#DejaVuSans-75" x="181.335938"/>
     <use xlink:href="#DejaVuSans-6c" x="244.714844"/>
     <use xlink:href="#DejaVuSans-61" x="272.498047"/>
     <use xlink:href="#DejaVuSans-74" x="333.777344"/>
     <use xlink:href="#DejaVuSans-69" x="372.986328"/>
     <use xlink:href="#DejaVuSans-6f" x="400.769531"/>
     <use xlink:href="#DejaVuSans-6e" x="461.951172"/>
     <use xlink:href="#DejaVuSans-27" x="525.330078"/>
     <use xlink:href="#DejaVuSans-73" x="552.820312"/>
     <use xlink:href="#DejaVuSans-20" x="604.919922"/>
     <use xlink:href="#DejaVuSans-61" x="636.707031"/>
     <use xlink:href="#DejaVuSans-76" x="697.986328"/>
     <use xlink:href="#DejaVuSans-65" x="757.166016"/>
     <use xlink:href="#DejaVuSans-72" x="818.689453"/>
     <use xlink:href="#DejaVuSans-61" x="859.802734"/>
     <use xlink:href="#DejaVuSans-67" x="921.082031"/>
     <use xlink:href="#DejaVuSans-65" x="984.558594"/>
     <use xlink:href="#DejaVuSans-20" x="1046.082031"/>
     <use xlink:href="#DejaVuSans-61" x="1077.869141"/>
     <use xlink:href="#DejaVuSans-6e" x="1139.148438"/>
     <use xlink:href="#DejaVuSans-64" x="1202.527344"/>
     <use xlink:href="#DejaVuSans-20" x="1266.003906"/>
     <use xlink:href="#DejaVuSans-62" x="1297.791016"/>
     <use xlink:href="#DejaVuSans-65" x="1361.267578"/>
     <use xlink:href="#DejaVuSans-73" x="1422.791016"/>
     <use xlink:href="#DejaVuSans-74" x="1474.890625"/>
     <use xlink:href="#DejaVuSans-20" x="1514.099609"/>
     <use xlink:href="#DejaVuSans-66" x="1545.886719"/>
     <use xlink:href="#DejaVuSans-69" x="1581.091797"/>
     <use xlink:href="#DejaVuSans-74" x="1608.875"/>
     <use xlink:href="#DejaVuSans-6e" x="1648.083984"/>
     <use xlink:href="#DejaVuSans-65" x="1711.462891"/>
     <use xlink:href="#DejaVuSans-73" x="1772.986328"/>
     <use xlink:href="#DejaVuSans-73" x="1825.085938"/>
    </g>
   </g>
   <g id="legend_1">
    <g id="patch_7">
     <path d="M 199.689687 302.584 
L 272.630313 302.584 
Q 274.630313 302.584 274.630313 300.584 
L 274.630313 242.8715 
Q 274.630313 240.8715 272.630313 240.8715 
L 199.689687 240.8715 
Q 197.689687 240.8715 197.689687 242.8715 
L 197.689687 300.584 
Q 197.689687 302.584 199.689687 302.584 
z
" style="fill: #ffffff; opacity: 0.8; stroke: #cccccc; stroke-linejoin: miter"/>
    </g>
    <g id="line2d_41">
     <path d="M 201.689687 248.969937 
L 211.689687 248.969937 
L 221.689687 248.969937 
" style="fill: none; stroke: #0000ff; stroke-width: 1.5; stroke-linecap: square"/>
    </g>
    <g id="text_22">
     <!-- average -->
     <g transform="translate(229.689687 252.469937) scale(0.1 -0.1)">
      <use xlink:href="#DejaVuSans-61"/>
      <use xlink:href="#DejaVuSans-76" x="61.279297"/>
      <use xlink:href="#DejaVuSans-65" x="120.458984"/>
      <use xlink:href="#DejaVuSans-72" x="181.982422"/>
      <use xlink:href="#DejaVuSans-61" x="223.095703"/>
      <use xlink:href="#DejaVuSans-67" x="284.375"/>
      <use xlink:href="#DejaVuSans-65" x="347.851562"/>
     </g>
    </g>
    <g id="line2d_42">
     <path d="M 201.689687 263.648062 
L 211.689687 263.648062 
L 221.689687 263.648062 
" style="fill: none; stroke-dasharray: 9.6,2.4,1.5,2.4; stroke-dashoffset: 0; stroke: #008000; stroke-width: 1.5"/>
    </g>
    <g id="text_23">
     <!-- -1 sd -->
     <g transform="translate(229.689687 267.148062) scale(0.1 -0.1)">
      <defs>
       <path id="DejaVuSans-2d" d="M 313 2009 
L 1997 2009 
L 1997 1497 
L 313 1497 
L 313 2009 
z
" transform="scale(0.015625)"/>
      </defs>
      <use xlink:href="#DejaVuSans-2d"/>
      <use xlink:href="#DejaVuSans-31" x="36.083984"/>
      <use xlink:href="#DejaVuSans-20" x="99.707031"/>
      <use xlink:href="#DejaVuSans-73" x="131.494141"/>
      <use xlink:href="#DejaVuSans-64" x="183.59375"/>
     </g>
    </g>
    <g id="line2d_43">
     <path d="M 201.689687 278.326187 
L 211.689687 278.326187 
L 221.689687 278.326187 
" style="fill: none; stroke-dasharray: 9.6,2.4,1.5,2.4; stroke-dashoffset: 0; stroke: #008000; stroke-width: 1.5"/>
    </g>
    <g id="text_24">
     <!-- +1 sd -->
     <g transform="translate(229.689687 281.826187) scale(0.1 -0.1)">
      <defs>
       <path id="DejaVuSans-2b" d="M 2944 4013 
L 2944 2272 
L 4684 2272 
L 4684 1741 
L 2944 1741 
L 2944 0 
L 2419 0 
L 2419 1741 
L 678 1741 
L 678 2272 
L 2419 2272 
L 2419 4013 
L 2944 4013 
z
" transform="scale(0.015625)"/>
      </defs>
      <use xlink:href="#DejaVuSans-2b"/>
      <use xlink:href="#DejaVuSans-31" x="83.789062"/>
      <use xlink:href="#DejaVuSans-20" x="147.412109"/>
      <use xlink:href="#DejaVuSans-73" x="179.199219"/>
      <use xlink:href="#DejaVuSans-64" x="231.298828"/>
     </g>
    </g>
    <g id="line2d_44">
     <path d="M 201.689687 293.004312 
L 211.689687 293.004312 
L 221.689687 293.004312 
" style="fill: none; stroke: #ff0000; stroke-width: 1.5; stroke-linecap: square"/>
    </g>
    <g id="text_25">
     <!-- best -->
     <g transform="translate(229.689687 296.504312) scale(0.1 -0.1)">
      <use xlink:href="#DejaVuSans-62"/>
      <use xlink:href="#DejaVuSans-65" x="63.476562"/>
      <use xlink:href="#DejaVuSans-73" x="125"/>
      <use xlink:href="#DejaVuSans-74" x="177.099609"/>
     </g>
    </g>
   </g>
  </g>
 </g>
 <defs>
  <clipPath id="pef41b19d14">
   <rect x="57.6" y="41.472" width="357.12" height="266.112"/>
  </clipPath>
 </defs>
</svg>
