<?xml version="1.0" encoding="utf-8" standalone="no"?>
<!DOCTYPE svg PUBLIC "-//W3C//DTD SVG 1.1//EN"
  "http://www.w3.org/Graphics/SVG/1.1/DTD/svg11.dtd">
<svg xmlns:xlink="http://www.w3.org/1999/xlink" width="460.8pt" height="345.6pt" viewBox="0 0 460.8 345.6" xmlns="http://www.w3.org/2000/svg" version="1.1">
 <metadata>
  <rdf:RDF xmlns:dc="http://purl.org/dc/elements/1.1/" xmlns:cc="http://creativecommons.org/ns#" xmlns:rdf="http://www.w3.org/1999/02/22-rdf-syntax-ns#">
   <cc:Work>
    <dc:type rdf:resource="http://purl.org/dc/dcmitype/StillImage"/>
    <dc:date>2024-08-22T09:24:41.754126</dc:date>
    <dc:format>image/svg+xml</dc:format>
    <dc:creator>
     <cc:Agent>
      <dc:title>Matplotlib v3.8.4, https://matplotlib.org/</dc:title>
     </cc:Agent>
    </dc:creator>
   </cc:Work>
  </rdf:RDF>
 </metadata>
 <defs>
  <style type="text/css">*{stroke-linejoin: round; stroke-linecap: butt}</style>
 </defs>
 <g id="figure_1">
  <g id="patch_1">
   <path d="M 0 345.6 
L 460.8 345.6 
L 460.8 0 
L 0 0 
z
" style="fill: #ffffff"/>
  </g>
  <g id="axes_1">
   <g id="patch_2">
    <path d="M 57.6 307.584 
L 414.72 307.584 
L 414.72 41.472 
L 57.6 41.472 
z
" style="fill: #ffffff"/>
   </g>
   <g id="matplotlib.axis_1">
    <g id="xtick_1">
     <g id="line2d_1">
      <path d="M 73.832727 307.584 
L 73.832727 41.472 
" clip-path="url(#pf3ab9670ff)" style="fill: none; stroke: #b0b0b0; stroke-width: 0.8; stroke-linecap: square"/>
     </g>
     <g id="line2d_2">
      <defs>
       <path id="ma248048670" d="M 0 0 
L 0 3.5 
" style="stroke: #000000; stroke-width: 0.8"/>
      </defs>
      <g>
       <use xlink:href="#ma248048670" x="73.832727" y="307.584" style="stroke: #000000; stroke-width: 0.8"/>
      </g>
     </g>
     <g id="text_1">
      <!-- 0 -->
      <g transform="translate(70.651477 322.182437) scale(0.1 -0.1)">
       <defs>
        <path id="DejaVuSans-30" d="M 2034 4250 
Q 1547 4250 1301 3770 
Q 1056 3291 1056 2328 
Q 1056 1369 1301 889 
Q 1547 409 2034 409 
Q 2525 409 2770 889 
Q 3016 1369 3016 2328 
Q 3016 3291 2770 3770 
Q 2525 4250 2034 4250 
z
M 2034 4750 
Q 2819 4750 3233 4129 
Q 3647 3509 3647 2328 
Q 3647 1150 3233 529 
Q 2819 -91 2034 -91 
Q 1250 -91 836 529 
Q 422 1150 422 2328 
Q 422 3509 836 4129 
Q 1250 4750 2034 4750 
z
" transform="scale(0.015625)"/>
       </defs>
       <use xlink:href="#DejaVuSans-30"/>
      </g>
     </g>
    </g>
    <g id="xtick_2">
     <g id="line2d_3">
      <path d="M 114.618474 307.584 
L 114.618474 41.472 
" clip-path="url(#pf3ab9670ff)" style="fill: none; stroke: #b0b0b0; stroke-width: 0.8; stroke-linecap: square"/>
     </g>
     <g id="line2d_4">
      <g>
       <use xlink:href="#ma248048670" x="114.618474" y="307.584" style="stroke: #000000; stroke-width: 0.8"/>
      </g>
     </g>
     <g id="text_2">
      <!-- 25 -->
      <g transform="translate(108.255974 322.182437) scale(0.1 -0.1)">
       <defs>
        <path id="DejaVuSans-32" d="M 1228 531 
L 3431 531 
L 3431 0 
L 469 0 
L 469 531 
Q 828 903 1448 1529 
Q 2069 2156 2228 2338 
Q 2531 2678 2651 2914 
Q 2772 3150 2772 3378 
Q 2772 3750 2511 3984 
Q 2250 4219 1831 4219 
Q 1534 4219 1204 4116 
Q 875 4013 500 3803 
L 500 4441 
Q 881 4594 1212 4672 
Q 1544 4750 1819 4750 
Q 2544 4750 2975 4387 
Q 3406 4025 3406 3419 
Q 3406 3131 3298 2873 
Q 3191 2616 2906 2266 
Q 2828 2175 2409 1742 
Q 1991 1309 1228 531 
z
" transform="scale(0.015625)"/>
        <path id="DejaVuSans-35" d="M 691 4666 
L 3169 4666 
L 3169 4134 
L 1269 4134 
L 1269 2991 
Q 1406 3038 1543 3061 
Q 1681 3084 1819 3084 
Q 2600 3084 3056 2656 
Q 3513 2228 3513 1497 
Q 3513 744 3044 326 
Q 2575 -91 1722 -91 
Q 1428 -91 1123 -41 
Q 819 9 494 109 
L 494 744 
Q 775 591 1075 516 
Q 1375 441 1709 441 
Q 2250 441 2565 725 
Q 2881 1009 2881 1497 
Q 2881 1984 2565 2268 
Q 2250 2553 1709 2553 
Q 1456 2553 1204 2497 
Q 953 2441 691 2322 
L 691 4666 
z
" transform="scale(0.015625)"/>
       </defs>
       <use xlink:href="#DejaVuSans-32"/>
       <use xlink:href="#DejaVuSans-35" x="63.623047"/>
      </g>
     </g>
    </g>
    <g id="xtick_3">
     <g id="line2d_5">
      <path d="M 155.404221 307.584 
L 155.404221 41.472 
" clip-path="url(#pf3ab9670ff)" style="fill: none; stroke: #b0b0b0; stroke-width: 0.8; stroke-linecap: square"/>
     </g>
     <g id="line2d_6">
      <g>
       <use xlink:href="#ma248048670" x="155.404221" y="307.584" style="stroke: #000000; stroke-width: 0.8"/>
      </g>
     </g>
     <g id="text_3">
      <!-- 50 -->
      <g transform="translate(149.041721 322.182437) scale(0.1 -0.1)">
       <use xlink:href="#DejaVuSans-35"/>
       <use xlink:href="#DejaVuSans-30" x="63.623047"/>
      </g>
     </g>
    </g>
    <g id="xtick_4">
     <g id="line2d_7">
      <path d="M 196.189968 307.584 
L 196.189968 41.472 
" clip-path="url(#pf3ab9670ff)" style="fill: none; stroke: #b0b0b0; stroke-width: 0.8; stroke-linecap: square"/>
     </g>
     <g id="line2d_8">
      <g>
       <use xlink:href="#ma248048670" x="196.189968" y="307.584" style="stroke: #000000; stroke-width: 0.8"/>
      </g>
     </g>
     <g id="text_4">
      <!-- 75 -->
      <g transform="translate(189.827468 322.182437) scale(0.1 -0.1)">
       <defs>
        <path id="DejaVuSans-37" d="M 525 4666 
L 3525 4666 
L 3525 4397 
L 1831 0 
L 1172 0 
L 2766 4134 
L 525 4134 
L 525 4666 
z
" transform="scale(0.015625)"/>
       </defs>
       <use xlink:href="#DejaVuSans-37"/>
       <use xlink:href="#DejaVuSans-35" x="63.623047"/>
      </g>
     </g>
    </g>
    <g id="xtick_5">
     <g id="line2d_9">
      <path d="M 236.975715 307.584 
L 236.975715 41.472 
" clip-path="url(#pf3ab9670ff)" style="fill: none; stroke: #b0b0b0; stroke-width: 0.8; stroke-linecap: square"/>
     </g>
     <g id="line2d_10">
      <g>
       <use xlink:href="#ma248048670" x="236.975715" y="307.584" style="stroke: #000000; stroke-width: 0.8"/>
      </g>
     </g>
     <g id="text_5">
      <!-- 100 -->
      <g transform="translate(227.431965 322.182437) scale(0.1 -0.1)">
       <defs>
        <path id="DejaVuSans-31" d="M 794 531 
L 1825 531 
L 1825 4091 
L 703 3866 
L 703 4441 
L 1819 4666 
L 2450 4666 
L 2450 531 
L 3481 531 
L 3481 0 
L 794 0 
L 794 531 
z
" transform="scale(0.015625)"/>
       </defs>
       <use xlink:href="#DejaVuSans-31"/>
       <use xlink:href="#DejaVuSans-30" x="63.623047"/>
       <use xlink:href="#DejaVuSans-30" x="127.246094"/>
      </g>
     </g>
    </g>
    <g id="xtick_6">
     <g id="line2d_11">
      <path d="M 277.761462 307.584 
L 277.761462 41.472 
" clip-path="url(#pf3ab9670ff)" style="fill: none; stroke: #b0b0b0; stroke-width: 0.8; stroke-linecap: square"/>
     </g>
     <g id="line2d_12">
      <g>
       <use xlink:href="#ma248048670" x="277.761462" y="307.584" style="stroke: #000000; stroke-width: 0.8"/>
      </g>
     </g>
     <g id="text_6">
      <!-- 125 -->
      <g transform="translate(268.217712 322.182437) scale(0.1 -0.1)">
       <use xlink:href="#DejaVuSans-31"/>
       <use xlink:href="#DejaVuSans-32" x="63.623047"/>
       <use xlink:href="#DejaVuSans-35" x="127.246094"/>
      </g>
     </g>
    </g>
    <g id="xtick_7">
     <g id="line2d_13">
      <path d="M 318.547209 307.584 
L 318.547209 41.472 
" clip-path="url(#pf3ab9670ff)" style="fill: none; stroke: #b0b0b0; stroke-width: 0.8; stroke-linecap: square"/>
     </g>
     <g id="line2d_14">
      <g>
       <use xlink:href="#ma248048670" x="318.547209" y="307.584" style="stroke: #000000; stroke-width: 0.8"/>
      </g>
     </g>
     <g id="text_7">
      <!-- 150 -->
      <g transform="translate(309.003459 322.182437) scale(0.1 -0.1)">
       <use xlink:href="#DejaVuSans-31"/>
       <use xlink:href="#DejaVuSans-35" x="63.623047"/>
       <use xlink:href="#DejaVuSans-30" x="127.246094"/>
      </g>
     </g>
    </g>
    <g id="xtick_8">
     <g id="line2d_15">
      <path d="M 359.332956 307.584 
L 359.332956 41.472 
" clip-path="url(#pf3ab9670ff)" style="fill: none; stroke: #b0b0b0; stroke-width: 0.8; stroke-linecap: square"/>
     </g>
     <g id="line2d_16">
      <g>
       <use xlink:href="#ma248048670" x="359.332956" y="307.584" style="stroke: #000000; stroke-width: 0.8"/>
      </g>
     </g>
     <g id="text_8">
      <!-- 175 -->
      <g transform="translate(349.789206 322.182437) scale(0.1 -0.1)">
       <use xlink:href="#DejaVuSans-31"/>
       <use xlink:href="#DejaVuSans-37" x="63.623047"/>
       <use xlink:href="#DejaVuSans-35" x="127.246094"/>
      </g>
     </g>
    </g>
    <g id="xtick_9">
     <g id="line2d_17">
      <path d="M 400.118703 307.584 
L 400.118703 41.472 
" clip-path="url(#pf3ab9670ff)" style="fill: none; stroke: #b0b0b0; stroke-width: 0.8; stroke-linecap: square"/>
     </g>
     <g id="line2d_18">
      <g>
       <use xlink:href="#ma248048670" x="400.118703" y="307.584" style="stroke: #000000; stroke-width: 0.8"/>
      </g>
     </g>
     <g id="text_9">
      <!-- 200 -->
      <g transform="translate(390.574953 322.182437) scale(0.1 -0.1)">
       <use xlink:href="#DejaVuSans-32"/>
       <use xlink:href="#DejaVuSans-30" x="63.623047"/>
       <use xlink:href="#DejaVuSans-30" x="127.246094"/>
      </g>
     </g>
    </g>
    <g id="text_10">
     <!-- Generations -->
     <g transform="translate(205.662344 335.860562) scale(0.1 -0.1)">
      <defs>
       <path id="DejaVuSans-47" d="M 3809 666 
L 3809 1919 
L 2778 1919 
L 2778 2438 
L 4434 2438 
L 4434 434 
Q 4069 175 3628 42 
Q 3188 -91 2688 -91 
Q 1594 -91 976 548 
Q 359 1188 359 2328 
Q 359 3472 976 4111 
Q 1594 4750 2688 4750 
Q 3144 4750 3555 4637 
Q 3966 4525 4313 4306 
L 4313 3634 
Q 3963 3931 3569 4081 
Q 3175 4231 2741 4231 
Q 1884 4231 1454 3753 
Q 1025 3275 1025 2328 
Q 1025 1384 1454 906 
Q 1884 428 2741 428 
Q 3075 428 3337 486 
Q 3600 544 3809 666 
z
" transform="scale(0.015625)"/>
       <path id="DejaVuSans-65" d="M 3597 1894 
L 3597 1613 
L 953 1613 
Q 991 1019 1311 708 
Q 1631 397 2203 397 
Q 2534 397 2845 478 
Q 3156 559 3463 722 
L 3463 178 
Q 3153 47 2828 -22 
Q 2503 -91 2169 -91 
Q 1331 -91 842 396 
Q 353 884 353 1716 
Q 353 2575 817 3079 
Q 1281 3584 2069 3584 
Q 2775 3584 3186 3129 
Q 3597 2675 3597 1894 
z
M 3022 2063 
Q 3016 2534 2758 2815 
Q 2500 3097 2075 3097 
Q 1594 3097 1305 2825 
Q 1016 2553 972 2059 
L 3022 2063 
z
" transform="scale(0.015625)"/>
       <path id="DejaVuSans-6e" d="M 3513 2113 
L 3513 0 
L 2938 0 
L 2938 2094 
Q 2938 2591 2744 2837 
Q 2550 3084 2163 3084 
Q 1697 3084 1428 2787 
Q 1159 2491 1159 1978 
L 1159 0 
L 581 0 
L 581 3500 
L 1159 3500 
L 1159 2956 
Q 1366 3272 1645 3428 
Q 1925 3584 2291 3584 
Q 2894 3584 3203 3211 
Q 3513 2838 3513 2113 
z
" transform="scale(0.015625)"/>
       <path id="DejaVuSans-72" d="M 2631 2963 
Q 2534 3019 2420 3045 
Q 2306 3072 2169 3072 
Q 1681 3072 1420 2755 
Q 1159 2438 1159 1844 
L 1159 0 
L 581 0 
L 581 3500 
L 1159 3500 
L 1159 2956 
Q 1341 3275 1631 3429 
Q 1922 3584 2338 3584 
Q 2397 3584 2469 3576 
Q 2541 3569 2628 3553 
L 2631 2963 
z
" transform="scale(0.015625)"/>
       <path id="DejaVuSans-61" d="M 2194 1759 
Q 1497 1759 1228 1600 
Q 959 1441 959 1056 
Q 959 750 1161 570 
Q 1363 391 1709 391 
Q 2188 391 2477 730 
Q 2766 1069 2766 1631 
L 2766 1759 
L 2194 1759 
z
M 3341 1997 
L 3341 0 
L 2766 0 
L 2766 531 
Q 2569 213 2275 61 
Q 1981 -91 1556 -91 
Q 1019 -91 701 211 
Q 384 513 384 1019 
Q 384 1609 779 1909 
Q 1175 2209 1959 2209 
L 2766 2209 
L 2766 2266 
Q 2766 2663 2505 2880 
Q 2244 3097 1772 3097 
Q 1472 3097 1187 3025 
Q 903 2953 641 2809 
L 641 3341 
Q 956 3463 1253 3523 
Q 1550 3584 1831 3584 
Q 2591 3584 2966 3190 
Q 3341 2797 3341 1997 
z
" transform="scale(0.015625)"/>
       <path id="DejaVuSans-74" d="M 1172 4494 
L 1172 3500 
L 2356 3500 
L 2356 3053 
L 1172 3053 
L 1172 1153 
Q 1172 725 1289 603 
Q 1406 481 1766 481 
L 2356 481 
L 2356 0 
L 1766 0 
Q 1100 0 847 248 
Q 594 497 594 1153 
L 594 3053 
L 172 3053 
L 172 3500 
L 594 3500 
L 594 4494 
L 1172 4494 
z
" transform="scale(0.015625)"/>
       <path id="DejaVuSans-69" d="M 603 3500 
L 1178 3500 
L 1178 0 
L 603 0 
L 603 3500 
z
M 603 4863 
L 1178 4863 
L 1178 4134 
L 603 4134 
L 603 4863 
z
" transform="scale(0.015625)"/>
       <path id="DejaVuSans-6f" d="M 1959 3097 
Q 1497 3097 1228 2736 
Q 959 2375 959 1747 
Q 959 1119 1226 758 
Q 1494 397 1959 397 
Q 2419 397 2687 759 
Q 2956 1122 2956 1747 
Q 2956 2369 2687 2733 
Q 2419 3097 1959 3097 
z
M 1959 3584 
Q 2709 3584 3137 3096 
Q 3566 2609 3566 1747 
Q 3566 888 3137 398 
Q 2709 -91 1959 -91 
Q 1206 -91 779 398 
Q 353 888 353 1747 
Q 353 2609 779 3096 
Q 1206 3584 1959 3584 
z
" transform="scale(0.015625)"/>
       <path id="DejaVuSans-73" d="M 2834 3397 
L 2834 2853 
Q 2591 2978 2328 3040 
Q 2066 3103 1784 3103 
Q 1356 3103 1142 2972 
Q 928 2841 928 2578 
Q 928 2378 1081 2264 
Q 1234 2150 1697 2047 
L 1894 2003 
Q 2506 1872 2764 1633 
Q 3022 1394 3022 966 
Q 3022 478 2636 193 
Q 2250 -91 1575 -91 
Q 1294 -91 989 -36 
Q 684 19 347 128 
L 347 722 
Q 666 556 975 473 
Q 1284 391 1588 391 
Q 1994 391 2212 530 
Q 2431 669 2431 922 
Q 2431 1156 2273 1281 
Q 2116 1406 1581 1522 
L 1381 1569 
Q 847 1681 609 1914 
Q 372 2147 372 2553 
Q 372 3047 722 3315 
Q 1072 3584 1716 3584 
Q 2034 3584 2315 3537 
Q 2597 3491 2834 3397 
z
" transform="scale(0.015625)"/>
      </defs>
      <use xlink:href="#DejaVuSans-47"/>
      <use xlink:href="#DejaVuSans-65" x="77.490234"/>
      <use xlink:href="#DejaVuSans-6e" x="139.013672"/>
      <use xlink:href="#DejaVuSans-65" x="202.392578"/>
      <use xlink:href="#DejaVuSans-72" x="263.916016"/>
      <use xlink:href="#DejaVuSans-61" x="305.029297"/>
      <use xlink:href="#DejaVuSans-74" x="366.308594"/>
      <use xlink:href="#DejaVuSans-69" x="405.517578"/>
      <use xlink:href="#DejaVuSans-6f" x="433.300781"/>
      <use xlink:href="#DejaVuSans-6e" x="494.482422"/>
      <use xlink:href="#DejaVuSans-73" x="557.861328"/>
     </g>
    </g>
   </g>
   <g id="matplotlib.axis_2">
    <g id="ytick_1">
     <g id="line2d_19">
      <path d="M 57.6 282.147866 
L 414.72 282.147866 
" clip-path="url(#pf3ab9670ff)" style="fill: none; stroke: #b0b0b0; stroke-width: 0.8; stroke-linecap: square"/>
     </g>
     <g id="line2d_20">
      <defs>
       <path id="m05f828b01a" d="M 0 0 
L -3.5 0 
" style="stroke: #000000; stroke-width: 0.8"/>
      </defs>
      <g>
       <use xlink:href="#m05f828b01a" x="57.6" y="282.147866" style="stroke: #000000; stroke-width: 0.8"/>
      </g>
     </g>
     <g id="text_11">
      <!-- −900 -->
      <g transform="translate(23.132812 285.947085) scale(0.1 -0.1)">
       <defs>
        <path id="DejaVuSans-2212" d="M 678 2272 
L 4684 2272 
L 4684 1741 
L 678 1741 
L 678 2272 
z
" transform="scale(0.015625)"/>
        <path id="DejaVuSans-39" d="M 703 97 
L 703 672 
Q 941 559 1184 500 
Q 1428 441 1663 441 
Q 2288 441 2617 861 
Q 2947 1281 2994 2138 
Q 2813 1869 2534 1725 
Q 2256 1581 1919 1581 
Q 1219 1581 811 2004 
Q 403 2428 403 3163 
Q 403 3881 828 4315 
Q 1253 4750 1959 4750 
Q 2769 4750 3195 4129 
Q 3622 3509 3622 2328 
Q 3622 1225 3098 567 
Q 2575 -91 1691 -91 
Q 1453 -91 1209 -44 
Q 966 3 703 97 
z
M 1959 2075 
Q 2384 2075 2632 2365 
Q 2881 2656 2881 3163 
Q 2881 3666 2632 3958 
Q 2384 4250 1959 4250 
Q 1534 4250 1286 3958 
Q 1038 3666 1038 3163 
Q 1038 2656 1286 2365 
Q 1534 2075 1959 2075 
z
" transform="scale(0.015625)"/>
       </defs>
       <use xlink:href="#DejaVuSans-2212"/>
       <use xlink:href="#DejaVuSans-39" x="83.789062"/>
       <use xlink:href="#DejaVuSans-30" x="147.412109"/>
       <use xlink:href="#DejaVuSans-30" x="211.035156"/>
      </g>
     </g>
    </g>
    <g id="ytick_2">
     <g id="line2d_21">
      <path d="M 57.6 243.820619 
L 414.72 243.820619 
" clip-path="url(#pf3ab9670ff)" style="fill: none; stroke: #b0b0b0; stroke-width: 0.8; stroke-linecap: square"/>
     </g>
     <g id="line2d_22">
      <g>
       <use xlink:href="#m05f828b01a" x="57.6" y="243.820619" style="stroke: #000000; stroke-width: 0.8"/>
      </g>
     </g>
     <g id="text_12">
      <!-- −800 -->
      <g transform="translate(23.132812 247.619838) scale(0.1 -0.1)">
       <defs>
        <path id="DejaVuSans-38" d="M 2034 2216 
Q 1584 2216 1326 1975 
Q 1069 1734 1069 1313 
Q 1069 891 1326 650 
Q 1584 409 2034 409 
Q 2484 409 2743 651 
Q 3003 894 3003 1313 
Q 3003 1734 2745 1975 
Q 2488 2216 2034 2216 
z
M 1403 2484 
Q 997 2584 770 2862 
Q 544 3141 544 3541 
Q 544 4100 942 4425 
Q 1341 4750 2034 4750 
Q 2731 4750 3128 4425 
Q 3525 4100 3525 3541 
Q 3525 3141 3298 2862 
Q 3072 2584 2669 2484 
Q 3125 2378 3379 2068 
Q 3634 1759 3634 1313 
Q 3634 634 3220 271 
Q 2806 -91 2034 -91 
Q 1263 -91 848 271 
Q 434 634 434 1313 
Q 434 1759 690 2068 
Q 947 2378 1403 2484 
z
M 1172 3481 
Q 1172 3119 1398 2916 
Q 1625 2713 2034 2713 
Q 2441 2713 2670 2916 
Q 2900 3119 2900 3481 
Q 2900 3844 2670 4047 
Q 2441 4250 2034 4250 
Q 1625 4250 1398 4047 
Q 1172 3844 1172 3481 
z
" transform="scale(0.015625)"/>
       </defs>
       <use xlink:href="#DejaVuSans-2212"/>
       <use xlink:href="#DejaVuSans-38" x="83.789062"/>
       <use xlink:href="#DejaVuSans-30" x="147.412109"/>
       <use xlink:href="#DejaVuSans-30" x="211.035156"/>
      </g>
     </g>
    </g>
    <g id="ytick_3">
     <g id="line2d_23">
      <path d="M 57.6 205.493373 
L 414.72 205.493373 
" clip-path="url(#pf3ab9670ff)" style="fill: none; stroke: #b0b0b0; stroke-width: 0.8; stroke-linecap: square"/>
     </g>
     <g id="line2d_24">
      <g>
       <use xlink:href="#m05f828b01a" x="57.6" y="205.493373" style="stroke: #000000; stroke-width: 0.8"/>
      </g>
     </g>
     <g id="text_13">
      <!-- −700 -->
      <g transform="translate(23.132812 209.292592) scale(0.1 -0.1)">
       <use xlink:href="#DejaVuSans-2212"/>
       <use xlink:href="#DejaVuSans-37" x="83.789062"/>
       <use xlink:href="#DejaVuSans-30" x="147.412109"/>
       <use xlink:href="#DejaVuSans-30" x="211.035156"/>
      </g>
     </g>
    </g>
    <g id="ytick_4">
     <g id="line2d_25">
      <path d="M 57.6 167.166126 
L 414.72 167.166126 
" clip-path="url(#pf3ab9670ff)" style="fill: none; stroke: #b0b0b0; stroke-width: 0.8; stroke-linecap: square"/>
     </g>
     <g id="line2d_26">
      <g>
       <use xlink:href="#m05f828b01a" x="57.6" y="167.166126" style="stroke: #000000; stroke-width: 0.8"/>
      </g>
     </g>
     <g id="text_14">
      <!-- −600 -->
      <g transform="translate(23.132812 170.965345) scale(0.1 -0.1)">
       <defs>
        <path id="DejaVuSans-36" d="M 2113 2584 
Q 1688 2584 1439 2293 
Q 1191 2003 1191 1497 
Q 1191 994 1439 701 
Q 1688 409 2113 409 
Q 2538 409 2786 701 
Q 3034 994 3034 1497 
Q 3034 2003 2786 2293 
Q 2538 2584 2113 2584 
z
M 3366 4563 
L 3366 3988 
Q 3128 4100 2886 4159 
Q 2644 4219 2406 4219 
Q 1781 4219 1451 3797 
Q 1122 3375 1075 2522 
Q 1259 2794 1537 2939 
Q 1816 3084 2150 3084 
Q 2853 3084 3261 2657 
Q 3669 2231 3669 1497 
Q 3669 778 3244 343 
Q 2819 -91 2113 -91 
Q 1303 -91 875 529 
Q 447 1150 447 2328 
Q 447 3434 972 4092 
Q 1497 4750 2381 4750 
Q 2619 4750 2861 4703 
Q 3103 4656 3366 4563 
z
" transform="scale(0.015625)"/>
       </defs>
       <use xlink:href="#DejaVuSans-2212"/>
       <use xlink:href="#DejaVuSans-36" x="83.789062"/>
       <use xlink:href="#DejaVuSans-30" x="147.412109"/>
       <use xlink:href="#DejaVuSans-30" x="211.035156"/>
      </g>
     </g>
    </g>
    <g id="ytick_5">
     <g id="line2d_27">
      <path d="M 57.6 128.83888 
L 414.72 128.83888 
" clip-path="url(#pf3ab9670ff)" style="fill: none; stroke: #b0b0b0; stroke-width: 0.8; stroke-linecap: square"/>
     </g>
     <g id="line2d_28">
      <g>
       <use xlink:href="#m05f828b01a" x="57.6" y="128.83888" style="stroke: #000000; stroke-width: 0.8"/>
      </g>
     </g>
     <g id="text_15">
      <!-- −500 -->
      <g transform="translate(23.132812 132.638098) scale(0.1 -0.1)">
       <use xlink:href="#DejaVuSans-2212"/>
       <use xlink:href="#DejaVuSans-35" x="83.789062"/>
       <use xlink:href="#DejaVuSans-30" x="147.412109"/>
       <use xlink:href="#DejaVuSans-30" x="211.035156"/>
      </g>
     </g>
    </g>
    <g id="ytick_6">
     <g id="line2d_29">
      <path d="M 57.6 90.511633 
L 414.72 90.511633 
" clip-path="url(#pf3ab9670ff)" style="fill: none; stroke: #b0b0b0; stroke-width: 0.8; stroke-linecap: square"/>
     </g>
     <g id="line2d_30">
      <g>
       <use xlink:href="#m05f828b01a" x="57.6" y="90.511633" style="stroke: #000000; stroke-width: 0.8"/>
      </g>
     </g>
     <g id="text_16">
      <!-- −400 -->
      <g transform="translate(23.132812 94.310852) scale(0.1 -0.1)">
       <defs>
        <path id="DejaVuSans-34" d="M 2419 4116 
L 825 1625 
L 2419 1625 
L 2419 4116 
z
M 2253 4666 
L 3047 4666 
L 3047 1625 
L 3713 1625 
L 3713 1100 
L 3047 1100 
L 3047 0 
L 2419 0 
L 2419 1100 
L 313 1100 
L 313 1709 
L 2253 4666 
z
" transform="scale(0.015625)"/>
       </defs>
       <use xlink:href="#DejaVuSans-2212"/>
       <use xlink:href="#DejaVuSans-34" x="83.789062"/>
       <use xlink:href="#DejaVuSans-30" x="147.412109"/>
       <use xlink:href="#DejaVuSans-30" x="211.035156"/>
      </g>
     </g>
    </g>
    <g id="ytick_7">
     <g id="line2d_31">
      <path d="M 57.6 52.184386 
L 414.72 52.184386 
" clip-path="url(#pf3ab9670ff)" style="fill: none; stroke: #b0b0b0; stroke-width: 0.8; stroke-linecap: square"/>
     </g>
     <g id="line2d_32">
      <g>
       <use xlink:href="#m05f828b01a" x="57.6" y="52.184386" style="stroke: #000000; stroke-width: 0.8"/>
      </g>
     </g>
     <g id="text_17">
      <!-- −300 -->
      <g transform="translate(23.132812 55.983605) scale(0.1 -0.1)">
       <defs>
        <path id="DejaVuSans-33" d="M 2597 2516 
Q 3050 2419 3304 2112 
Q 3559 1806 3559 1356 
Q 3559 666 3084 287 
Q 2609 -91 1734 -91 
Q 1441 -91 1130 -33 
Q 819 25 488 141 
L 488 750 
Q 750 597 1062 519 
Q 1375 441 1716 441 
Q 2309 441 2620 675 
Q 2931 909 2931 1356 
Q 2931 1769 2642 2001 
Q 2353 2234 1838 2234 
L 1294 2234 
L 1294 2753 
L 1863 2753 
Q 2328 2753 2575 2939 
Q 2822 3125 2822 3475 
Q 2822 3834 2567 4026 
Q 2313 4219 1838 4219 
Q 1578 4219 1281 4162 
Q 984 4106 628 3988 
L 628 4550 
Q 988 4650 1302 4700 
Q 1616 4750 1894 4750 
Q 2613 4750 3031 4423 
Q 3450 4097 3450 3541 
Q 3450 3153 3228 2886 
Q 3006 2619 2597 2516 
z
" transform="scale(0.015625)"/>
       </defs>
       <use xlink:href="#DejaVuSans-2212"/>
       <use xlink:href="#DejaVuSans-33" x="83.789062"/>
       <use xlink:href="#DejaVuSans-30" x="147.412109"/>
       <use xlink:href="#DejaVuSans-30" x="211.035156"/>
      </g>
     </g>
    </g>
    <g id="text_18">
     <!-- Fitness -->
     <g transform="translate(17.053125 191.845187) rotate(-90) scale(0.1 -0.1)">
      <defs>
       <path id="DejaVuSans-46" d="M 628 4666 
L 3309 4666 
L 3309 4134 
L 1259 4134 
L 1259 2759 
L 3109 2759 
L 3109 2228 
L 1259 2228 
L 1259 0 
L 628 0 
L 628 4666 
z
" transform="scale(0.015625)"/>
      </defs>
      <use xlink:href="#DejaVuSans-46"/>
      <use xlink:href="#DejaVuSans-69" x="50.269531"/>
      <use xlink:href="#DejaVuSans-74" x="78.052734"/>
      <use xlink:href="#DejaVuSans-6e" x="117.261719"/>
      <use xlink:href="#DejaVuSans-65" x="180.640625"/>
      <use xlink:href="#DejaVuSans-73" x="242.164062"/>
      <use xlink:href="#DejaVuSans-73" x="294.263672"/>
     </g>
    </g>
   </g>
   <g id="line2d_33">
    <path d="M 73.832727 228.854366 
L 75.464157 199.25505 
L 77.095587 189.938776 
L 78.727017 175.118774 
L 80.358447 163.67891 
L 81.989877 150.106558 
L 83.621307 157.965913 
L 85.252736 153.529509 
L 86.884166 153.412394 
L 88.515596 165.049486 
L 90.147026 152.080596 
L 91.778456 147.021065 
L 93.409886 146.015235 
L 95.041316 147.290795 
L 96.672746 146.830012 
L 98.304175 151.955474 
L 99.935605 155.416235 
L 101.567035 148.212189 
L 103.198465 142.958637 
L 104.829895 148.632557 
L 106.461325 152.222202 
L 108.092755 151.762472 
L 109.724185 147.049014 
L 111.355614 143.367721 
L 112.987044 151.703728 
L 114.618474 146.669198 
L 116.249904 150.470426 
L 117.881334 149.795824 
L 119.512764 141.24964 
L 121.144194 138.670585 
L 122.775624 147.821797 
L 124.407053 143.182004 
L 126.038483 153.789843 
L 127.669913 150.451279 
L 129.301343 149.78023 
L 130.932773 141.277285 
L 132.564203 137.371322 
L 134.195633 132.097113 
L 135.827063 153.718489 
L 137.458492 144.009511 
L 139.089922 154.964469 
L 140.721352 151.148036 
L 142.352782 149.734469 
L 143.984212 147.994063 
L 145.615642 146.937385 
L 147.247072 153.150925 
L 148.878502 149.55501 
L 150.509931 153.192125 
L 152.141361 154.067622 
L 153.772791 144.635154 
L 155.404221 143.212583 
L 157.035651 150.272109 
L 158.667081 144.591679 
L 160.298511 145.472266 
L 161.929941 139.234657 
L 163.56137 145.043226 
L 165.1928 144.933693 
L 166.82423 146.607539 
L 168.45566 146.021636 
L 171.71852 141.749116 
L 173.34995 143.950048 
L 174.98138 138.266631 
L 176.61281 139.149623 
L 178.244239 150.16626 
L 179.875669 145.079766 
L 181.507099 148.929496 
L 183.138529 150.511534 
L 184.769959 146.25087 
L 186.401389 140.904181 
L 188.032819 156.263959 
L 189.664249 155.666836 
L 192.927108 152.669244 
L 194.558538 141.371928 
L 196.189968 147.080144 
L 197.821398 151.93645 
L 199.452828 149.562042 
L 201.084258 153.11164 
L 202.715688 157.587956 
L 204.347117 156.99747 
L 205.978547 148.829005 
L 207.609977 156.008651 
L 209.241407 156.068305 
L 210.872837 151.400818 
L 212.504267 149.143498 
L 214.135697 143.053393 
L 215.767127 139.988313 
L 217.398556 148.062771 
L 219.029986 145.641013 
L 220.661416 145.417653 
L 222.292846 150.212885 
L 223.924276 141.366871 
L 225.555706 149.993939 
L 227.187136 149.987776 
L 228.818566 139.801499 
L 230.449995 146.632656 
L 232.081425 141.032371 
L 233.712855 151.036541 
L 235.344285 150.623084 
L 236.975715 143.489614 
L 238.607145 145.604102 
L 240.238575 140.493526 
L 241.870005 152.061431 
L 243.501434 144.778113 
L 245.132864 148.088793 
L 246.764294 150.107934 
L 248.395724 148.545472 
L 250.027154 146.682506 
L 251.658584 137.813543 
L 253.290014 146.555142 
L 254.921444 151.906149 
L 256.552873 146.846397 
L 258.184303 144.988733 
L 259.815733 144.881765 
L 261.447163 141.482213 
L 263.078593 148.711524 
L 264.710023 136.806333 
L 266.341453 148.132128 
L 267.972883 139.901602 
L 269.604312 146.226069 
L 271.235742 150.572242 
L 272.867172 163.287442 
L 274.498602 153.384246 
L 276.130032 145.027306 
L 277.761462 139.600583 
L 279.392892 151.77014 
L 281.024322 156.187503 
L 282.655751 138.929395 
L 284.287181 147.567582 
L 285.918611 154.714754 
L 287.550041 158.695126 
L 289.181471 163.990139 
L 290.812901 167.126747 
L 292.444331 152.861108 
L 294.075761 150.829062 
L 295.70719 150.731824 
L 297.33862 146.415375 
L 298.97005 156.938254 
L 300.60148 147.43646 
L 302.23291 146.130754 
L 303.86434 144.411125 
L 305.49577 141.144924 
L 307.1272 147.828753 
L 308.75863 151.782096 
L 310.390059 146.868717 
L 312.021489 147.972104 
L 313.652919 137.050027 
L 315.284349 148.477091 
L 316.915779 156.330074 
L 318.547209 146.585736 
L 320.178639 145.730912 
L 321.810069 142.85627 
L 323.441498 136.337885 
L 325.072928 139.036433 
L 326.704358 140.72535 
L 328.335788 141.182308 
L 329.967218 146.861907 
L 331.598648 145.064368 
L 333.230078 145.631824 
L 334.861508 152.543406 
L 336.492937 143.756291 
L 338.124367 142.592519 
L 339.755797 145.277774 
L 341.387227 146.989791 
L 343.018657 141.866236 
L 344.650087 155.860841 
L 346.281517 151.177569 
L 347.912947 149.888087 
L 349.544376 156.383571 
L 351.175806 155.2835 
L 352.807236 136.670831 
L 354.438666 145.135925 
L 356.070096 144.365653 
L 357.701526 153.901582 
L 359.332956 151.612857 
L 360.964386 148.524944 
L 362.595815 155.25083 
L 364.227245 155.549814 
L 365.858675 148.646243 
L 367.490105 151.992635 
L 369.121535 139.409879 
L 370.752965 148.509802 
L 372.384395 145.344072 
L 374.015825 153.21328 
L 375.647254 152.181075 
L 377.278684 143.926903 
L 378.910114 148.831624 
L 380.541544 146.855473 
L 382.172974 146.011964 
L 383.804404 139.333186 
L 385.435834 144.00425 
L 387.067264 146.668753 
L 388.698693 143.90323 
L 390.330123 137.5292 
L 391.961553 143.456398 
L 393.592983 139.392785 
L 395.224413 156.01627 
L 396.855843 142.892836 
L 398.487273 138.564362 
L 398.487273 138.564362 
" clip-path="url(#pf3ab9670ff)" style="fill: none; stroke: #0000ff; stroke-width: 1.5; stroke-linecap: square"/>
   </g>
   <g id="line2d_34">
    <path d="M 73.832727 295.488 
L 75.464157 274.686985 
L 77.095587 257.576537 
L 78.727017 243.13447 
L 80.358447 224.123756 
L 81.989877 203.205191 
L 83.621307 216.750508 
L 85.252736 206.821999 
L 86.884166 208.96329 
L 88.515596 228.138837 
L 90.147026 207.178418 
L 91.778456 199.740851 
L 93.409886 200.774052 
L 95.041316 198.953995 
L 96.672746 196.618832 
L 98.304175 206.142465 
L 99.935605 212.837357 
L 103.198465 189.453618 
L 104.829895 205.950242 
L 106.461325 208.833615 
L 108.092755 209.224845 
L 109.724185 199.385912 
L 111.355614 193.171458 
L 112.987044 211.958156 
L 114.618474 199.553974 
L 116.249904 207.864301 
L 117.881334 210.72111 
L 119.512764 184.745809 
L 121.144194 183.509358 
L 122.775624 200.584408 
L 124.407053 194.014654 
L 126.038483 215.929795 
L 127.669913 205.299847 
L 129.301343 204.176094 
L 130.932773 189.913528 
L 132.564203 182.017079 
L 134.195633 168.437319 
L 135.827063 213.385354 
L 137.458492 195.839247 
L 139.089922 214.963211 
L 140.721352 208.585261 
L 142.352782 211.390689 
L 143.984212 202.810576 
L 145.615642 202.080222 
L 147.247072 213.717683 
L 148.878502 208.903245 
L 150.509931 212.465937 
L 152.141361 214.29607 
L 153.772791 195.358757 
L 155.404221 194.353639 
L 157.035651 204.825412 
L 158.667081 197.282429 
L 160.298511 193.055907 
L 161.929941 183.360002 
L 163.56137 202.160125 
L 165.1928 198.448714 
L 166.82423 200.966694 
L 168.45566 203.177024 
L 170.08709 196.310537 
L 171.71852 190.489063 
L 173.34995 195.987878 
L 174.98138 189.859183 
L 176.61281 192.240749 
L 178.244239 208.768574 
L 179.875669 200.817905 
L 181.507099 204.625252 
L 183.138529 212.372072 
L 184.769959 201.537747 
L 186.401389 191.450863 
L 188.032819 217.821934 
L 189.664249 218.619978 
L 191.295678 213.242865 
L 192.927108 212.322938 
L 194.558538 188.509013 
L 196.189968 203.550241 
L 197.821398 213.793501 
L 199.452828 205.488529 
L 201.084258 210.618603 
L 202.715688 221.199975 
L 204.347117 217.338389 
L 205.978547 203.956514 
L 207.609977 220.382447 
L 210.872837 212.470747 
L 212.504267 206.366598 
L 214.135697 194.134709 
L 215.767127 186.472865 
L 217.398556 206.406842 
L 219.029986 199.750282 
L 220.661416 197.666306 
L 222.292846 209.092616 
L 223.924276 188.55629 
L 225.555706 210.85219 
L 227.187136 207.28007 
L 228.818566 186.840058 
L 230.449995 202.64245 
L 232.081425 190.781107 
L 233.712855 208.602378 
L 235.344285 210.519327 
L 236.975715 196.933241 
L 238.607145 199.172578 
L 240.238575 191.157755 
L 241.870005 211.652141 
L 243.501434 197.684523 
L 245.132864 206.880915 
L 246.764294 207.093634 
L 248.395724 201.94323 
L 250.027154 199.541454 
L 251.658584 186.504955 
L 253.290014 204.577297 
L 254.921444 211.988715 
L 258.184303 197.956108 
L 259.815733 200.170621 
L 261.447163 198.66356 
L 263.078593 208.314184 
L 264.710023 182.371582 
L 266.341453 205.934681 
L 267.972883 189.304596 
L 269.604312 201.496007 
L 271.235742 212.035668 
L 272.867172 229.511748 
L 274.498602 214.94819 
L 276.130032 198.42865 
L 277.761462 186.59513 
L 279.392892 211.81819 
L 281.024322 225.163086 
L 282.655751 185.393644 
L 284.287181 203.962685 
L 285.918611 217.805313 
L 287.550041 227.599781 
L 289.181471 230.901268 
L 290.812901 235.2036 
L 292.444331 211.170709 
L 294.075761 215.464311 
L 295.70719 209.916953 
L 297.33862 199.371897 
L 298.97005 223.901337 
L 300.60148 205.827971 
L 302.23291 202.254816 
L 303.86434 195.969528 
L 305.49577 192.109904 
L 307.1272 205.415848 
L 308.75863 215.287529 
L 310.390059 204.291204 
L 312.021489 207.854038 
L 313.652919 183.966693 
L 315.284349 205.21183 
L 316.915779 217.876494 
L 318.547209 202.198573 
L 320.178639 198.215461 
L 321.810069 198.079053 
L 323.441498 182.291925 
L 325.072928 184.11902 
L 326.704358 188.357213 
L 328.335788 190.870779 
L 329.967218 199.84071 
L 331.598648 200.267469 
L 333.230078 203.912226 
L 334.861508 213.52251 
L 336.492937 196.84218 
L 338.124367 198.905389 
L 339.755797 199.391897 
L 341.387227 205.596739 
L 343.018657 192.262588 
L 344.650087 220.314615 
L 346.281517 210.570651 
L 347.912947 209.787841 
L 349.544376 223.001762 
L 351.175806 215.642321 
L 352.807236 181.523051 
L 354.438666 199.461659 
L 356.070096 198.83508 
L 357.701526 215.927277 
L 359.332956 212.167289 
L 360.964386 211.144301 
L 362.595815 224.202547 
L 364.227245 222.348664 
L 365.858675 206.476215 
L 367.490105 212.203761 
L 369.121535 185.803111 
L 370.752965 202.580135 
L 372.384395 202.313669 
L 374.015825 215.044457 
L 375.647254 213.35218 
L 377.278684 199.512998 
L 378.910114 209.316356 
L 380.541544 202.343683 
L 382.172974 200.176501 
L 383.804404 187.380603 
L 387.067264 207.942758 
L 388.698693 201.315909 
L 390.330123 185.067169 
L 391.961553 196.488257 
L 393.592983 187.358192 
L 395.224413 225.527893 
L 396.855843 195.937439 
L 398.487273 189.351987 
L 398.487273 189.351987 
" clip-path="url(#pf3ab9670ff)" style="fill: none; stroke-dasharray: 9.6,2.4,1.5,2.4; stroke-dashoffset: 0; stroke: #008000; stroke-width: 1.5"/>
   </g>
   <g id="line2d_35">
    <path d="M 73.832727 162.220733 
L 75.464157 123.823115 
L 77.095587 122.301014 
L 78.727017 107.103079 
L 80.358447 103.234065 
L 81.989877 97.007926 
L 83.621307 99.181317 
L 85.252736 100.237019 
L 86.884166 97.861497 
L 88.515596 101.960135 
L 90.147026 96.982774 
L 91.778456 94.301279 
L 93.409886 91.256419 
L 95.041316 95.627596 
L 96.672746 97.041191 
L 98.304175 97.768484 
L 99.935605 97.995112 
L 101.567035 94.90963 
L 103.198465 96.463657 
L 104.829895 91.314872 
L 106.461325 95.610788 
L 108.092755 94.3001 
L 109.724185 94.712115 
L 111.355614 93.563985 
L 112.987044 91.4493 
L 114.618474 93.784423 
L 116.249904 93.076551 
L 117.881334 88.870538 
L 119.512764 97.75347 
L 121.144194 93.831812 
L 122.775624 95.059186 
L 124.407053 92.349355 
L 126.038483 91.64989 
L 127.669913 95.602711 
L 129.301343 95.384367 
L 130.932773 92.641043 
L 132.564203 92.725564 
L 134.195633 95.756908 
L 135.827063 94.051624 
L 137.458492 92.179775 
L 139.089922 94.965728 
L 140.721352 93.710811 
L 142.352782 88.078248 
L 143.984212 93.177551 
L 145.615642 91.794548 
L 147.247072 92.584168 
L 148.878502 90.206774 
L 150.509931 93.918313 
L 152.141361 93.839174 
L 153.772791 93.911551 
L 155.404221 92.071526 
L 157.035651 95.718805 
L 158.667081 91.900928 
L 160.298511 97.888625 
L 161.929941 95.109311 
L 163.56137 87.926327 
L 165.1928 91.418672 
L 166.82423 92.248383 
L 168.45566 88.866248 
L 170.08709 91.626289 
L 171.71852 93.00917 
L 173.34995 91.912218 
L 174.98138 86.674079 
L 176.61281 86.058496 
L 178.244239 91.563947 
L 179.875669 89.341628 
L 181.507099 93.23374 
L 183.138529 88.650995 
L 184.769959 90.963992 
L 186.401389 90.357499 
L 188.032819 94.705985 
L 189.664249 92.713694 
L 191.295678 95.158169 
L 192.927108 93.015549 
L 194.558538 94.234843 
L 196.189968 90.610048 
L 197.821398 90.079399 
L 199.452828 93.635556 
L 201.084258 95.604677 
L 202.715688 93.975937 
L 204.347117 96.65655 
L 205.978547 93.701497 
L 207.609977 91.634856 
L 209.241407 95.842716 
L 210.872837 90.330888 
L 212.504267 91.920398 
L 214.135697 91.972077 
L 215.767127 93.50376 
L 217.398556 89.718699 
L 219.029986 91.531744 
L 220.661416 93.169 
L 222.292846 91.333153 
L 223.924276 94.177452 
L 225.555706 89.135688 
L 227.187136 92.695482 
L 228.818566 92.762941 
L 230.449995 90.622862 
L 232.081425 91.283634 
L 233.712855 93.470704 
L 235.344285 90.72684 
L 236.975715 90.045988 
L 238.607145 92.035626 
L 240.238575 89.829296 
L 241.870005 92.470721 
L 243.501434 91.871702 
L 245.132864 89.296671 
L 246.764294 93.122235 
L 248.395724 95.147715 
L 250.027154 93.823558 
L 251.658584 89.12213 
L 253.290014 88.532986 
L 254.921444 91.823584 
L 256.552873 88.674775 
L 258.184303 92.021358 
L 259.815733 89.592909 
L 261.447163 84.300866 
L 263.078593 89.108864 
L 264.710023 91.241085 
L 266.341453 90.329574 
L 267.972883 90.498609 
L 269.604312 90.95613 
L 271.235742 89.108816 
L 272.867172 97.063136 
L 274.498602 91.820302 
L 276.130032 91.625961 
L 277.761462 92.606037 
L 279.392892 91.72209 
L 281.024322 87.21192 
L 282.655751 92.465146 
L 284.287181 91.172478 
L 285.918611 91.624194 
L 287.550041 89.790472 
L 289.181471 97.079009 
L 290.812901 99.049894 
L 292.444331 94.551506 
L 294.075761 86.193813 
L 295.70719 91.546696 
L 297.33862 93.458854 
L 298.97005 89.97517 
L 300.60148 89.044949 
L 302.23291 90.006691 
L 303.86434 92.852721 
L 305.49577 90.179944 
L 307.1272 90.241657 
L 308.75863 88.276662 
L 310.390059 89.44623 
L 312.021489 88.09017 
L 313.652919 90.133361 
L 315.284349 91.742352 
L 316.915779 94.783654 
L 318.547209 90.9729 
L 320.178639 93.246362 
L 321.810069 87.633487 
L 323.441498 90.383844 
L 325.072928 93.953846 
L 326.704358 93.093486 
L 328.335788 91.493837 
L 329.967218 93.883103 
L 331.598648 89.861266 
L 333.230078 87.351423 
L 334.861508 91.564302 
L 336.492937 90.670401 
L 338.124367 86.279649 
L 339.755797 91.163651 
L 341.387227 88.382843 
L 343.018657 91.469884 
L 344.650087 91.407066 
L 346.281517 91.784486 
L 347.912947 89.988333 
L 349.544376 89.765381 
L 351.175806 94.92468 
L 352.807236 91.818612 
L 356.070096 89.896225 
L 357.701526 91.875888 
L 359.332956 91.058425 
L 360.964386 85.905588 
L 362.595815 86.299114 
L 364.227245 88.750964 
L 365.858675 90.81627 
L 367.490105 91.781508 
L 369.121535 93.016648 
L 370.752965 94.439469 
L 372.384395 88.374475 
L 374.015825 91.382103 
L 375.647254 91.00997 
L 377.278684 88.340807 
L 378.910114 88.346892 
L 380.541544 91.367263 
L 382.172974 91.847427 
L 383.804404 91.28577 
L 385.435834 90.391689 
L 387.067264 85.394747 
L 388.698693 86.49055 
L 390.330123 89.991231 
L 391.961553 90.42454 
L 393.592983 91.427378 
L 395.224413 86.504647 
L 396.855843 89.848233 
L 398.487273 87.776736 
L 398.487273 87.776736 
" clip-path="url(#pf3ab9670ff)" style="fill: none; stroke-dasharray: 9.6,2.4,1.5,2.4; stroke-dashoffset: 0; stroke: #008000; stroke-width: 1.5"/>
   </g>
   <g id="line2d_36">
    <path d="M 73.832727 90.124528 
L 75.464157 90.124528 
L 77.095587 83.275449 
L 135.827063 83.275449 
L 137.458492 63.943186 
L 145.615642 63.943186 
L 147.247072 54.407367 
L 396.855843 54.407367 
L 398.487273 53.568 
L 398.487273 53.568 
" clip-path="url(#pf3ab9670ff)" style="fill: none; stroke: #ff0000; stroke-width: 1.5; stroke-linecap: square"/>
   </g>
   <g id="patch_3">
    <path d="M 57.6 307.584 
L 57.6 41.472 
" style="fill: none; stroke: #000000; stroke-width: 0.8; stroke-linejoin: miter; stroke-linecap: square"/>
   </g>
   <g id="patch_4">
    <path d="M 414.72 307.584 
L 414.72 41.472 
" style="fill: none; stroke: #000000; stroke-width: 0.8; stroke-linejoin: miter; stroke-linecap: square"/>
   </g>
   <g id="patch_5">
    <path d="M 57.6 307.584 
L 414.72 307.584 
" style="fill: none; stroke: #000000; stroke-width: 0.8; stroke-linejoin: miter; stroke-linecap: square"/>
   </g>
   <g id="patch_6">
    <path d="M 57.6 41.472 
L 414.72 41.472 
" style="fill: none; stroke: #000000; stroke-width: 0.8; stroke-linejoin: miter; stroke-linecap: square"/>
   </g>
   <g id="text_19">
    <!-- Population's average and best fitness -->
    <g transform="translate(123.529687 35.472) scale(0.12 -0.12)">
     <defs>
      <path id="DejaVuSans-50" d="M 1259 4147 
L 1259 2394 
L 2053 2394 
Q 2494 2394 2734 2622 
Q 2975 2850 2975 3272 
Q 2975 3691 2734 3919 
Q 2494 4147 2053 4147 
L 1259 4147 
z
M 628 4666 
L 2053 4666 
Q 2838 4666 3239 4311 
Q 3641 3956 3641 3272 
Q 3641 2581 3239 2228 
Q 2838 1875 2053 1875 
L 1259 1875 
L 1259 0 
L 628 0 
L 628 4666 
z
" transform="scale(0.015625)"/>
      <path id="DejaVuSans-70" d="M 1159 525 
L 1159 -1331 
L 581 -1331 
L 581 3500 
L 1159 3500 
L 1159 2969 
Q 1341 3281 1617 3432 
Q 1894 3584 2278 3584 
Q 2916 3584 3314 3078 
Q 3713 2572 3713 1747 
Q 3713 922 3314 415 
Q 2916 -91 2278 -91 
Q 1894 -91 1617 61 
Q 1341 213 1159 525 
z
M 3116 1747 
Q 3116 2381 2855 2742 
Q 2594 3103 2138 3103 
Q 1681 3103 1420 2742 
Q 1159 2381 1159 1747 
Q 1159 1113 1420 752 
Q 1681 391 2138 391 
Q 2594 391 2855 752 
Q 3116 1113 3116 1747 
z
" transform="scale(0.015625)"/>
      <path id="DejaVuSans-75" d="M 544 1381 
L 544 3500 
L 1119 3500 
L 1119 1403 
Q 1119 906 1312 657 
Q 1506 409 1894 409 
Q 2359 409 2629 706 
Q 2900 1003 2900 1516 
L 2900 3500 
L 3475 3500 
L 3475 0 
L 2900 0 
L 2900 538 
Q 2691 219 2414 64 
Q 2138 -91 1772 -91 
Q 1169 -91 856 284 
Q 544 659 544 1381 
z
M 1991 3584 
L 1991 3584 
z
" transform="scale(0.015625)"/>
      <path id="DejaVuSans-6c" d="M 603 4863 
L 1178 4863 
L 1178 0 
L 603 0 
L 603 4863 
z
" transform="scale(0.015625)"/>
      <path id="DejaVuSans-27" d="M 1147 4666 
L 1147 2931 
L 616 2931 
L 616 4666 
L 1147 4666 
z
" transform="scale(0.015625)"/>
      <path id="DejaVuSans-20" transform="scale(0.015625)"/>
      <path id="DejaVuSans-76" d="M 191 3500 
L 800 3500 
L 1894 563 
L 2988 3500 
L 3597 3500 
L 2284 0 
L 1503 0 
L 191 3500 
z
" transform="scale(0.015625)"/>
      <path id="DejaVuSans-67" d="M 2906 1791 
Q 2906 2416 2648 2759 
Q 2391 3103 1925 3103 
Q 1463 3103 1205 2759 
Q 947 2416 947 1791 
Q 947 1169 1205 825 
Q 1463 481 1925 481 
Q 2391 481 2648 825 
Q 2906 1169 2906 1791 
z
M 3481 434 
Q 3481 -459 3084 -895 
Q 2688 -1331 1869 -1331 
Q 1566 -1331 1297 -1286 
Q 1028 -1241 775 -1147 
L 775 -588 
Q 1028 -725 1275 -790 
Q 1522 -856 1778 -856 
Q 2344 -856 2625 -561 
Q 2906 -266 2906 331 
L 2906 616 
Q 2728 306 2450 153 
Q 2172 0 1784 0 
Q 1141 0 747 490 
Q 353 981 353 1791 
Q 353 2603 747 3093 
Q 1141 3584 1784 3584 
Q 2172 3584 2450 3431 
Q 2728 3278 2906 2969 
L 2906 3500 
L 3481 3500 
L 3481 434 
z
" transform="scale(0.015625)"/>
      <path id="DejaVuSans-64" d="M 2906 2969 
L 2906 4863 
L 3481 4863 
L 3481 0 
L 2906 0 
L 2906 525 
Q 2725 213 2448 61 
Q 2172 -91 1784 -91 
Q 1150 -91 751 415 
Q 353 922 353 1747 
Q 353 2572 751 3078 
Q 1150 3584 1784 3584 
Q 2172 3584 2448 3432 
Q 2725 3281 2906 2969 
z
M 947 1747 
Q 947 1113 1208 752 
Q 1469 391 1925 391 
Q 2381 391 2643 752 
Q 2906 1113 2906 1747 
Q 2906 2381 2643 2742 
Q 2381 3103 1925 3103 
Q 1469 3103 1208 2742 
Q 947 2381 947 1747 
z
" transform="scale(0.015625)"/>
      <path id="DejaVuSans-62" d="M 3116 1747 
Q 3116 2381 2855 2742 
Q 2594 3103 2138 3103 
Q 1681 3103 1420 2742 
Q 1159 2381 1159 1747 
Q 1159 1113 1420 752 
Q 1681 391 2138 391 
Q 2594 391 2855 752 
Q 3116 1113 3116 1747 
z
M 1159 2969 
Q 1341 3281 1617 3432 
Q 1894 3584 2278 3584 
Q 2916 3584 3314 3078 
Q 3713 2572 3713 1747 
Q 3713 922 3314 415 
Q 2916 -91 2278 -91 
Q 1894 -91 1617 61 
Q 1341 213 1159 525 
L 1159 0 
L 581 0 
L 581 4863 
L 1159 4863 
L 1159 2969 
z
" transform="scale(0.015625)"/>
      <path id="DejaVuSans-66" d="M 2375 4863 
L 2375 4384 
L 1825 4384 
Q 1516 4384 1395 4259 
Q 1275 4134 1275 3809 
L 1275 3500 
L 2222 3500 
L 2222 3053 
L 1275 3053 
L 1275 0 
L 697 0 
L 697 3053 
L 147 3053 
L 147 3500 
L 697 3500 
L 697 3744 
Q 697 4328 969 4595 
Q 1241 4863 1831 4863 
L 2375 4863 
z
" transform="scale(0.015625)"/>
     </defs>
     <use xlink:href="#DejaVuSans-50"/>
     <use xlink:href="#DejaVuSans-6f" x="56.677734"/>
     <use xlink:href="#DejaVuSans-70" x="117.859375"/>
     <use xlink:href="#DejaVuSans-75" x="181.335938"/>
     <use xlink:href="#DejaVuSans-6c" x="244.714844"/>
     <use xlink:href="#DejaVuSans-61" x="272.498047"/>
     <use xlink:href="#DejaVuSans-74" x="333.777344"/>
     <use xlink:href="#DejaVuSans-69" x="372.986328"/>
     <use xlink:href="#DejaVuSans-6f" x="400.769531"/>
     <use xlink:href="#DejaVuSans-6e" x="461.951172"/>
     <use xlink:href="#DejaVuSans-27" x="525.330078"/>
     <use xlink:href="#DejaVuSans-73" x="552.820312"/>
     <use xlink:href="#DejaVuSans-20" x="604.919922"/>
     <use xlink:href="#DejaVuSans-61" x="636.707031"/>
     <use xlink:href="#DejaVuSans-76" x="697.986328"/>
     <use xlink:href="#DejaVuSans-65" x="757.166016"/>
     <use xlink:href="#DejaVuSans-72" x="818.689453"/>
     <use xlink:href="#DejaVuSans-61" x="859.802734"/>
     <use xlink:href="#DejaVuSans-67" x="921.082031"/>
     <use xlink:href="#DejaVuSans-65" x="984.558594"/>
     <use xlink:href="#DejaVuSans-20" x="1046.082031"/>
     <use xlink:href="#DejaVuSans-61" x="1077.869141"/>
     <use xlink:href="#DejaVuSans-6e" x="1139.148438"/>
     <use xlink:href="#DejaVuSans-64" x="1202.527344"/>
     <use xlink:href="#DejaVuSans-20" x="1266.003906"/>
     <use xlink:href="#DejaVuSans-62" x="1297.791016"/>
     <use xlink:href="#DejaVuSans-65" x="1361.267578"/>
     <use xlink:href="#DejaVuSans-73" x="1422.791016"/>
     <use xlink:href="#DejaVuSans-74" x="1474.890625"/>
     <use xlink:href="#DejaVuSans-20" x="1514.099609"/>
     <use xlink:href="#DejaVuSans-66" x="1545.886719"/>
     <use xlink:href="#DejaVuSans-69" x="1581.091797"/>
     <use xlink:href="#DejaVuSans-74" x="1608.875"/>
     <use xlink:href="#DejaVuSans-6e" x="1648.083984"/>
     <use xlink:href="#DejaVuSans-65" x="1711.462891"/>
     <use xlink:href="#DejaVuSans-73" x="1772.986328"/>
     <use xlink:href="#DejaVuSans-73" x="1825.085938"/>
    </g>
   </g>
   <g id="legend_1">
    <g id="patch_7">
     <path d="M 334.779375 302.584 
L 407.72 302.584 
Q 409.72 302.584 409.72 300.584 
L 409.72 242.8715 
Q 409.72 240.8715 407.72 240.8715 
L 334.779375 240.8715 
Q 332.779375 240.8715 332.779375 242.8715 
L 332.779375 300.584 
Q 332.779375 302.584 334.779375 302.584 
z
" style="fill: #ffffff; opacity: 0.8; stroke: #cccccc; stroke-linejoin: miter"/>
    </g>
    <g id="line2d_37">
     <path d="M 336.779375 248.969937 
L 346.779375 248.969937 
L 356.779375 248.969937 
" style="fill: none; stroke: #0000ff; stroke-width: 1.5; stroke-linecap: square"/>
    </g>
    <g id="text_20">
     <!-- average -->
     <g transform="translate(364.779375 252.469937) scale(0.1 -0.1)">
      <use xlink:href="#DejaVuSans-61"/>
      <use xlink:href="#DejaVuSans-76" x="61.279297"/>
      <use xlink:href="#DejaVuSans-65" x="120.458984"/>
      <use xlink:href="#DejaVuSans-72" x="181.982422"/>
      <use xlink:href="#DejaVuSans-61" x="223.095703"/>
      <use xlink:href="#DejaVuSans-67" x="284.375"/>
      <use xlink:href="#DejaVuSans-65" x="347.851562"/>
     </g>
    </g>
    <g id="line2d_38">
     <path d="M 336.779375 263.648062 
L 346.779375 263.648062 
L 356.779375 263.648062 
" style="fill: none; stroke-dasharray: 9.6,2.4,1.5,2.4; stroke-dashoffset: 0; stroke: #008000; stroke-width: 1.5"/>
    </g>
    <g id="text_21">
     <!-- -1 sd -->
     <g transform="translate(364.779375 267.148062) scale(0.1 -0.1)">
      <defs>
       <path id="DejaVuSans-2d" d="M 313 2009 
L 1997 2009 
L 1997 1497 
L 313 1497 
L 313 2009 
z
" transform="scale(0.015625)"/>
      </defs>
      <use xlink:href="#DejaVuSans-2d"/>
      <use xlink:href="#DejaVuSans-31" x="36.083984"/>
      <use xlink:href="#DejaVuSans-20" x="99.707031"/>
      <use xlink:href="#DejaVuSans-73" x="131.494141"/>
      <use xlink:href="#DejaVuSans-64" x="183.59375"/>
     </g>
    </g>
    <g id="line2d_39">
     <path d="M 336.779375 278.326187 
L 346.779375 278.326187 
L 356.779375 278.326187 
" style="fill: none; stroke-dasharray: 9.6,2.4,1.5,2.4; stroke-dashoffset: 0; stroke: #008000; stroke-width: 1.5"/>
    </g>
    <g id="text_22">
     <!-- +1 sd -->
     <g transform="translate(364.779375 281.826187) scale(0.1 -0.1)">
      <defs>
       <path id="DejaVuSans-2b" d="M 2944 4013 
L 2944 2272 
L 4684 2272 
L 4684 1741 
L 2944 1741 
L 2944 0 
L 2419 0 
L 2419 1741 
L 678 1741 
L 678 2272 
L 2419 2272 
L 2419 4013 
L 2944 4013 
z
" transform="scale(0.015625)"/>
      </defs>
      <use xlink:href="#DejaVuSans-2b"/>
      <use xlink:href="#DejaVuSans-31" x="83.789062"/>
      <use xlink:href="#DejaVuSans-20" x="147.412109"/>
      <use xlink:href="#DejaVuSans-73" x="179.199219"/>
      <use xlink:href="#DejaVuSans-64" x="231.298828"/>
     </g>
    </g>
    <g id="line2d_40">
     <path d="M 336.779375 293.004312 
L 346.779375 293.004312 
L 356.779375 293.004312 
" style="fill: none; stroke: #ff0000; stroke-width: 1.5; stroke-linecap: square"/>
    </g>
    <g id="text_23">
     <!-- best -->
     <g transform="translate(364.779375 296.504312) scale(0.1 -0.1)">
      <use xlink:href="#DejaVuSans-62"/>
      <use xlink:href="#DejaVuSans-65" x="63.476562"/>
      <use xlink:href="#DejaVuSans-73" x="125"/>
      <use xlink:href="#DejaVuSans-74" x="177.099609"/>
     </g>
    </g>
   </g>
  </g>
 </g>
 <defs>
  <clipPath id="pf3ab9670ff">
   <rect x="57.6" y="41.472" width="357.12" height="266.112"/>
  </clipPath>
 </defs>
</svg>
