<?xml version="1.0" encoding="utf-8" standalone="no"?>
<!DOCTYPE svg PUBLIC "-//W3C//DTD SVG 1.1//EN"
  "http://www.w3.org/Graphics/SVG/1.1/DTD/svg11.dtd">
<svg xmlns:xlink="http://www.w3.org/1999/xlink" width="460.8pt" height="345.6pt" viewBox="0 0 460.8 345.6" xmlns="http://www.w3.org/2000/svg" version="1.1">
 <metadata>
  <rdf:RDF xmlns:dc="http://purl.org/dc/elements/1.1/" xmlns:cc="http://creativecommons.org/ns#" xmlns:rdf="http://www.w3.org/1999/02/22-rdf-syntax-ns#">
   <cc:Work>
    <dc:type rdf:resource="http://purl.org/dc/dcmitype/StillImage"/>
    <dc:date>2024-08-03T13:14:04.059960</dc:date>
    <dc:format>image/svg+xml</dc:format>
    <dc:creator>
     <cc:Agent>
      <dc:title>Matplotlib v3.8.4, https://matplotlib.org/</dc:title>
     </cc:Agent>
    </dc:creator>
   </cc:Work>
  </rdf:RDF>
 </metadata>
 <defs>
  <style type="text/css">*{stroke-linejoin: round; stroke-linecap: butt}</style>
 </defs>
 <g id="figure_1">
  <g id="patch_1">
   <path d="M 0 345.6 
L 460.8 345.6 
L 460.8 0 
L 0 0 
z
" style="fill: #ffffff"/>
  </g>
  <g id="axes_1">
   <g id="patch_2">
    <path d="M 57.6 307.584 
L 414.72 307.584 
L 414.72 41.472 
L 57.6 41.472 
z
" style="fill: #ffffff"/>
   </g>
   <g id="matplotlib.axis_1">
    <g id="xtick_1">
     <g id="line2d_1">
      <path d="M 73.832727 307.584 
L 73.832727 41.472 
" clip-path="url(#pa5abf2b14f)" style="fill: none; stroke: #b0b0b0; stroke-width: 0.8; stroke-linecap: square"/>
     </g>
     <g id="line2d_2">
      <defs>
       <path id="m862b1fc173" d="M 0 0 
L 0 3.5 
" style="stroke: #000000; stroke-width: 0.8"/>
      </defs>
      <g>
       <use xlink:href="#m862b1fc173" x="73.832727" y="307.584" style="stroke: #000000; stroke-width: 0.8"/>
      </g>
     </g>
     <g id="text_1">
      <!-- 0 -->
      <g transform="translate(70.651477 322.182437) scale(0.1 -0.1)">
       <defs>
        <path id="DejaVuSans-30" d="M 2034 4250 
Q 1547 4250 1301 3770 
Q 1056 3291 1056 2328 
Q 1056 1369 1301 889 
Q 1547 409 2034 409 
Q 2525 409 2770 889 
Q 3016 1369 3016 2328 
Q 3016 3291 2770 3770 
Q 2525 4250 2034 4250 
z
M 2034 4750 
Q 2819 4750 3233 4129 
Q 3647 3509 3647 2328 
Q 3647 1150 3233 529 
Q 2819 -91 2034 -91 
Q 1250 -91 836 529 
Q 422 1150 422 2328 
Q 422 3509 836 4129 
Q 1250 4750 2034 4750 
z
" transform="scale(0.015625)"/>
       </defs>
       <use xlink:href="#DejaVuSans-30"/>
      </g>
     </g>
    </g>
    <g id="xtick_2">
     <g id="line2d_3">
      <path d="M 114.618474 307.584 
L 114.618474 41.472 
" clip-path="url(#pa5abf2b14f)" style="fill: none; stroke: #b0b0b0; stroke-width: 0.8; stroke-linecap: square"/>
     </g>
     <g id="line2d_4">
      <g>
       <use xlink:href="#m862b1fc173" x="114.618474" y="307.584" style="stroke: #000000; stroke-width: 0.8"/>
      </g>
     </g>
     <g id="text_2">
      <!-- 25 -->
      <g transform="translate(108.255974 322.182437) scale(0.1 -0.1)">
       <defs>
        <path id="DejaVuSans-32" d="M 1228 531 
L 3431 531 
L 3431 0 
L 469 0 
L 469 531 
Q 828 903 1448 1529 
Q 2069 2156 2228 2338 
Q 2531 2678 2651 2914 
Q 2772 3150 2772 3378 
Q 2772 3750 2511 3984 
Q 2250 4219 1831 4219 
Q 1534 4219 1204 4116 
Q 875 4013 500 3803 
L 500 4441 
Q 881 4594 1212 4672 
Q 1544 4750 1819 4750 
Q 2544 4750 2975 4387 
Q 3406 4025 3406 3419 
Q 3406 3131 3298 2873 
Q 3191 2616 2906 2266 
Q 2828 2175 2409 1742 
Q 1991 1309 1228 531 
z
" transform="scale(0.015625)"/>
        <path id="DejaVuSans-35" d="M 691 4666 
L 3169 4666 
L 3169 4134 
L 1269 4134 
L 1269 2991 
Q 1406 3038 1543 3061 
Q 1681 3084 1819 3084 
Q 2600 3084 3056 2656 
Q 3513 2228 3513 1497 
Q 3513 744 3044 326 
Q 2575 -91 1722 -91 
Q 1428 -91 1123 -41 
Q 819 9 494 109 
L 494 744 
Q 775 591 1075 516 
Q 1375 441 1709 441 
Q 2250 441 2565 725 
Q 2881 1009 2881 1497 
Q 2881 1984 2565 2268 
Q 2250 2553 1709 2553 
Q 1456 2553 1204 2497 
Q 953 2441 691 2322 
L 691 4666 
z
" transform="scale(0.015625)"/>
       </defs>
       <use xlink:href="#DejaVuSans-32"/>
       <use xlink:href="#DejaVuSans-35" x="63.623047"/>
      </g>
     </g>
    </g>
    <g id="xtick_3">
     <g id="line2d_5">
      <path d="M 155.404221 307.584 
L 155.404221 41.472 
" clip-path="url(#pa5abf2b14f)" style="fill: none; stroke: #b0b0b0; stroke-width: 0.8; stroke-linecap: square"/>
     </g>
     <g id="line2d_6">
      <g>
       <use xlink:href="#m862b1fc173" x="155.404221" y="307.584" style="stroke: #000000; stroke-width: 0.8"/>
      </g>
     </g>
     <g id="text_3">
      <!-- 50 -->
      <g transform="translate(149.041721 322.182437) scale(0.1 -0.1)">
       <use xlink:href="#DejaVuSans-35"/>
       <use xlink:href="#DejaVuSans-30" x="63.623047"/>
      </g>
     </g>
    </g>
    <g id="xtick_4">
     <g id="line2d_7">
      <path d="M 196.189968 307.584 
L 196.189968 41.472 
" clip-path="url(#pa5abf2b14f)" style="fill: none; stroke: #b0b0b0; stroke-width: 0.8; stroke-linecap: square"/>
     </g>
     <g id="line2d_8">
      <g>
       <use xlink:href="#m862b1fc173" x="196.189968" y="307.584" style="stroke: #000000; stroke-width: 0.8"/>
      </g>
     </g>
     <g id="text_4">
      <!-- 75 -->
      <g transform="translate(189.827468 322.182437) scale(0.1 -0.1)">
       <defs>
        <path id="DejaVuSans-37" d="M 525 4666 
L 3525 4666 
L 3525 4397 
L 1831 0 
L 1172 0 
L 2766 4134 
L 525 4134 
L 525 4666 
z
" transform="scale(0.015625)"/>
       </defs>
       <use xlink:href="#DejaVuSans-37"/>
       <use xlink:href="#DejaVuSans-35" x="63.623047"/>
      </g>
     </g>
    </g>
    <g id="xtick_5">
     <g id="line2d_9">
      <path d="M 236.975715 307.584 
L 236.975715 41.472 
" clip-path="url(#pa5abf2b14f)" style="fill: none; stroke: #b0b0b0; stroke-width: 0.8; stroke-linecap: square"/>
     </g>
     <g id="line2d_10">
      <g>
       <use xlink:href="#m862b1fc173" x="236.975715" y="307.584" style="stroke: #000000; stroke-width: 0.8"/>
      </g>
     </g>
     <g id="text_5">
      <!-- 100 -->
      <g transform="translate(227.431965 322.182437) scale(0.1 -0.1)">
       <defs>
        <path id="DejaVuSans-31" d="M 794 531 
L 1825 531 
L 1825 4091 
L 703 3866 
L 703 4441 
L 1819 4666 
L 2450 4666 
L 2450 531 
L 3481 531 
L 3481 0 
L 794 0 
L 794 531 
z
" transform="scale(0.015625)"/>
       </defs>
       <use xlink:href="#DejaVuSans-31"/>
       <use xlink:href="#DejaVuSans-30" x="63.623047"/>
       <use xlink:href="#DejaVuSans-30" x="127.246094"/>
      </g>
     </g>
    </g>
    <g id="xtick_6">
     <g id="line2d_11">
      <path d="M 277.761462 307.584 
L 277.761462 41.472 
" clip-path="url(#pa5abf2b14f)" style="fill: none; stroke: #b0b0b0; stroke-width: 0.8; stroke-linecap: square"/>
     </g>
     <g id="line2d_12">
      <g>
       <use xlink:href="#m862b1fc173" x="277.761462" y="307.584" style="stroke: #000000; stroke-width: 0.8"/>
      </g>
     </g>
     <g id="text_6">
      <!-- 125 -->
      <g transform="translate(268.217712 322.182437) scale(0.1 -0.1)">
       <use xlink:href="#DejaVuSans-31"/>
       <use xlink:href="#DejaVuSans-32" x="63.623047"/>
       <use xlink:href="#DejaVuSans-35" x="127.246094"/>
      </g>
     </g>
    </g>
    <g id="xtick_7">
     <g id="line2d_13">
      <path d="M 318.547209 307.584 
L 318.547209 41.472 
" clip-path="url(#pa5abf2b14f)" style="fill: none; stroke: #b0b0b0; stroke-width: 0.8; stroke-linecap: square"/>
     </g>
     <g id="line2d_14">
      <g>
       <use xlink:href="#m862b1fc173" x="318.547209" y="307.584" style="stroke: #000000; stroke-width: 0.8"/>
      </g>
     </g>
     <g id="text_7">
      <!-- 150 -->
      <g transform="translate(309.003459 322.182437) scale(0.1 -0.1)">
       <use xlink:href="#DejaVuSans-31"/>
       <use xlink:href="#DejaVuSans-35" x="63.623047"/>
       <use xlink:href="#DejaVuSans-30" x="127.246094"/>
      </g>
     </g>
    </g>
    <g id="xtick_8">
     <g id="line2d_15">
      <path d="M 359.332956 307.584 
L 359.332956 41.472 
" clip-path="url(#pa5abf2b14f)" style="fill: none; stroke: #b0b0b0; stroke-width: 0.8; stroke-linecap: square"/>
     </g>
     <g id="line2d_16">
      <g>
       <use xlink:href="#m862b1fc173" x="359.332956" y="307.584" style="stroke: #000000; stroke-width: 0.8"/>
      </g>
     </g>
     <g id="text_8">
      <!-- 175 -->
      <g transform="translate(349.789206 322.182437) scale(0.1 -0.1)">
       <use xlink:href="#DejaVuSans-31"/>
       <use xlink:href="#DejaVuSans-37" x="63.623047"/>
       <use xlink:href="#DejaVuSans-35" x="127.246094"/>
      </g>
     </g>
    </g>
    <g id="xtick_9">
     <g id="line2d_17">
      <path d="M 400.118703 307.584 
L 400.118703 41.472 
" clip-path="url(#pa5abf2b14f)" style="fill: none; stroke: #b0b0b0; stroke-width: 0.8; stroke-linecap: square"/>
     </g>
     <g id="line2d_18">
      <g>
       <use xlink:href="#m862b1fc173" x="400.118703" y="307.584" style="stroke: #000000; stroke-width: 0.8"/>
      </g>
     </g>
     <g id="text_9">
      <!-- 200 -->
      <g transform="translate(390.574953 322.182437) scale(0.1 -0.1)">
       <use xlink:href="#DejaVuSans-32"/>
       <use xlink:href="#DejaVuSans-30" x="63.623047"/>
       <use xlink:href="#DejaVuSans-30" x="127.246094"/>
      </g>
     </g>
    </g>
    <g id="text_10">
     <!-- Generations -->
     <g transform="translate(205.662344 335.860562) scale(0.1 -0.1)">
      <defs>
       <path id="DejaVuSans-47" d="M 3809 666 
L 3809 1919 
L 2778 1919 
L 2778 2438 
L 4434 2438 
L 4434 434 
Q 4069 175 3628 42 
Q 3188 -91 2688 -91 
Q 1594 -91 976 548 
Q 359 1188 359 2328 
Q 359 3472 976 4111 
Q 1594 4750 2688 4750 
Q 3144 4750 3555 4637 
Q 3966 4525 4313 4306 
L 4313 3634 
Q 3963 3931 3569 4081 
Q 3175 4231 2741 4231 
Q 1884 4231 1454 3753 
Q 1025 3275 1025 2328 
Q 1025 1384 1454 906 
Q 1884 428 2741 428 
Q 3075 428 3337 486 
Q 3600 544 3809 666 
z
" transform="scale(0.015625)"/>
       <path id="DejaVuSans-65" d="M 3597 1894 
L 3597 1613 
L 953 1613 
Q 991 1019 1311 708 
Q 1631 397 2203 397 
Q 2534 397 2845 478 
Q 3156 559 3463 722 
L 3463 178 
Q 3153 47 2828 -22 
Q 2503 -91 2169 -91 
Q 1331 -91 842 396 
Q 353 884 353 1716 
Q 353 2575 817 3079 
Q 1281 3584 2069 3584 
Q 2775 3584 3186 3129 
Q 3597 2675 3597 1894 
z
M 3022 2063 
Q 3016 2534 2758 2815 
Q 2500 3097 2075 3097 
Q 1594 3097 1305 2825 
Q 1016 2553 972 2059 
L 3022 2063 
z
" transform="scale(0.015625)"/>
       <path id="DejaVuSans-6e" d="M 3513 2113 
L 3513 0 
L 2938 0 
L 2938 2094 
Q 2938 2591 2744 2837 
Q 2550 3084 2163 3084 
Q 1697 3084 1428 2787 
Q 1159 2491 1159 1978 
L 1159 0 
L 581 0 
L 581 3500 
L 1159 3500 
L 1159 2956 
Q 1366 3272 1645 3428 
Q 1925 3584 2291 3584 
Q 2894 3584 3203 3211 
Q 3513 2838 3513 2113 
z
" transform="scale(0.015625)"/>
       <path id="DejaVuSans-72" d="M 2631 2963 
Q 2534 3019 2420 3045 
Q 2306 3072 2169 3072 
Q 1681 3072 1420 2755 
Q 1159 2438 1159 1844 
L 1159 0 
L 581 0 
L 581 3500 
L 1159 3500 
L 1159 2956 
Q 1341 3275 1631 3429 
Q 1922 3584 2338 3584 
Q 2397 3584 2469 3576 
Q 2541 3569 2628 3553 
L 2631 2963 
z
" transform="scale(0.015625)"/>
       <path id="DejaVuSans-61" d="M 2194 1759 
Q 1497 1759 1228 1600 
Q 959 1441 959 1056 
Q 959 750 1161 570 
Q 1363 391 1709 391 
Q 2188 391 2477 730 
Q 2766 1069 2766 1631 
L 2766 1759 
L 2194 1759 
z
M 3341 1997 
L 3341 0 
L 2766 0 
L 2766 531 
Q 2569 213 2275 61 
Q 1981 -91 1556 -91 
Q 1019 -91 701 211 
Q 384 513 384 1019 
Q 384 1609 779 1909 
Q 1175 2209 1959 2209 
L 2766 2209 
L 2766 2266 
Q 2766 2663 2505 2880 
Q 2244 3097 1772 3097 
Q 1472 3097 1187 3025 
Q 903 2953 641 2809 
L 641 3341 
Q 956 3463 1253 3523 
Q 1550 3584 1831 3584 
Q 2591 3584 2966 3190 
Q 3341 2797 3341 1997 
z
" transform="scale(0.015625)"/>
       <path id="DejaVuSans-74" d="M 1172 4494 
L 1172 3500 
L 2356 3500 
L 2356 3053 
L 1172 3053 
L 1172 1153 
Q 1172 725 1289 603 
Q 1406 481 1766 481 
L 2356 481 
L 2356 0 
L 1766 0 
Q 1100 0 847 248 
Q 594 497 594 1153 
L 594 3053 
L 172 3053 
L 172 3500 
L 594 3500 
L 594 4494 
L 1172 4494 
z
" transform="scale(0.015625)"/>
       <path id="DejaVuSans-69" d="M 603 3500 
L 1178 3500 
L 1178 0 
L 603 0 
L 603 3500 
z
M 603 4863 
L 1178 4863 
L 1178 4134 
L 603 4134 
L 603 4863 
z
" transform="scale(0.015625)"/>
       <path id="DejaVuSans-6f" d="M 1959 3097 
Q 1497 3097 1228 2736 
Q 959 2375 959 1747 
Q 959 1119 1226 758 
Q 1494 397 1959 397 
Q 2419 397 2687 759 
Q 2956 1122 2956 1747 
Q 2956 2369 2687 2733 
Q 2419 3097 1959 3097 
z
M 1959 3584 
Q 2709 3584 3137 3096 
Q 3566 2609 3566 1747 
Q 3566 888 3137 398 
Q 2709 -91 1959 -91 
Q 1206 -91 779 398 
Q 353 888 353 1747 
Q 353 2609 779 3096 
Q 1206 3584 1959 3584 
z
" transform="scale(0.015625)"/>
       <path id="DejaVuSans-73" d="M 2834 3397 
L 2834 2853 
Q 2591 2978 2328 3040 
Q 2066 3103 1784 3103 
Q 1356 3103 1142 2972 
Q 928 2841 928 2578 
Q 928 2378 1081 2264 
Q 1234 2150 1697 2047 
L 1894 2003 
Q 2506 1872 2764 1633 
Q 3022 1394 3022 966 
Q 3022 478 2636 193 
Q 2250 -91 1575 -91 
Q 1294 -91 989 -36 
Q 684 19 347 128 
L 347 722 
Q 666 556 975 473 
Q 1284 391 1588 391 
Q 1994 391 2212 530 
Q 2431 669 2431 922 
Q 2431 1156 2273 1281 
Q 2116 1406 1581 1522 
L 1381 1569 
Q 847 1681 609 1914 
Q 372 2147 372 2553 
Q 372 3047 722 3315 
Q 1072 3584 1716 3584 
Q 2034 3584 2315 3537 
Q 2597 3491 2834 3397 
z
" transform="scale(0.015625)"/>
      </defs>
      <use xlink:href="#DejaVuSans-47"/>
      <use xlink:href="#DejaVuSans-65" x="77.490234"/>
      <use xlink:href="#DejaVuSans-6e" x="139.013672"/>
      <use xlink:href="#DejaVuSans-65" x="202.392578"/>
      <use xlink:href="#DejaVuSans-72" x="263.916016"/>
      <use xlink:href="#DejaVuSans-61" x="305.029297"/>
      <use xlink:href="#DejaVuSans-74" x="366.308594"/>
      <use xlink:href="#DejaVuSans-69" x="405.517578"/>
      <use xlink:href="#DejaVuSans-6f" x="433.300781"/>
      <use xlink:href="#DejaVuSans-6e" x="494.482422"/>
      <use xlink:href="#DejaVuSans-73" x="557.861328"/>
     </g>
    </g>
   </g>
   <g id="matplotlib.axis_2">
    <g id="ytick_1">
     <g id="line2d_19">
      <path d="M 57.6 300.107267 
L 414.72 300.107267 
" clip-path="url(#pa5abf2b14f)" style="fill: none; stroke: #b0b0b0; stroke-width: 0.8; stroke-linecap: square"/>
     </g>
     <g id="line2d_20">
      <defs>
       <path id="ma3189f5ba8" d="M 0 0 
L -3.5 0 
" style="stroke: #000000; stroke-width: 0.8"/>
      </defs>
      <g>
       <use xlink:href="#ma3189f5ba8" x="57.6" y="300.107267" style="stroke: #000000; stroke-width: 0.8"/>
      </g>
     </g>
     <g id="text_11">
      <!-- −2050 -->
      <g transform="translate(16.770313 303.906486) scale(0.1 -0.1)">
       <defs>
        <path id="DejaVuSans-2212" d="M 678 2272 
L 4684 2272 
L 4684 1741 
L 678 1741 
L 678 2272 
z
" transform="scale(0.015625)"/>
       </defs>
       <use xlink:href="#DejaVuSans-2212"/>
       <use xlink:href="#DejaVuSans-32" x="83.789062"/>
       <use xlink:href="#DejaVuSans-30" x="147.412109"/>
       <use xlink:href="#DejaVuSans-35" x="211.035156"/>
       <use xlink:href="#DejaVuSans-30" x="274.658203"/>
      </g>
     </g>
    </g>
    <g id="ytick_2">
     <g id="line2d_21">
      <path d="M 57.6 268.142317 
L 414.72 268.142317 
" clip-path="url(#pa5abf2b14f)" style="fill: none; stroke: #b0b0b0; stroke-width: 0.8; stroke-linecap: square"/>
     </g>
     <g id="line2d_22">
      <g>
       <use xlink:href="#ma3189f5ba8" x="57.6" y="268.142317" style="stroke: #000000; stroke-width: 0.8"/>
      </g>
     </g>
     <g id="text_12">
      <!-- −2000 -->
      <g transform="translate(16.770313 271.941536) scale(0.1 -0.1)">
       <use xlink:href="#DejaVuSans-2212"/>
       <use xlink:href="#DejaVuSans-32" x="83.789062"/>
       <use xlink:href="#DejaVuSans-30" x="147.412109"/>
       <use xlink:href="#DejaVuSans-30" x="211.035156"/>
       <use xlink:href="#DejaVuSans-30" x="274.658203"/>
      </g>
     </g>
    </g>
    <g id="ytick_3">
     <g id="line2d_23">
      <path d="M 57.6 236.177367 
L 414.72 236.177367 
" clip-path="url(#pa5abf2b14f)" style="fill: none; stroke: #b0b0b0; stroke-width: 0.8; stroke-linecap: square"/>
     </g>
     <g id="line2d_24">
      <g>
       <use xlink:href="#ma3189f5ba8" x="57.6" y="236.177367" style="stroke: #000000; stroke-width: 0.8"/>
      </g>
     </g>
     <g id="text_13">
      <!-- −1950 -->
      <g transform="translate(16.770313 239.976586) scale(0.1 -0.1)">
       <defs>
        <path id="DejaVuSans-39" d="M 703 97 
L 703 672 
Q 941 559 1184 500 
Q 1428 441 1663 441 
Q 2288 441 2617 861 
Q 2947 1281 2994 2138 
Q 2813 1869 2534 1725 
Q 2256 1581 1919 1581 
Q 1219 1581 811 2004 
Q 403 2428 403 3163 
Q 403 3881 828 4315 
Q 1253 4750 1959 4750 
Q 2769 4750 3195 4129 
Q 3622 3509 3622 2328 
Q 3622 1225 3098 567 
Q 2575 -91 1691 -91 
Q 1453 -91 1209 -44 
Q 966 3 703 97 
z
M 1959 2075 
Q 2384 2075 2632 2365 
Q 2881 2656 2881 3163 
Q 2881 3666 2632 3958 
Q 2384 4250 1959 4250 
Q 1534 4250 1286 3958 
Q 1038 3666 1038 3163 
Q 1038 2656 1286 2365 
Q 1534 2075 1959 2075 
z
" transform="scale(0.015625)"/>
       </defs>
       <use xlink:href="#DejaVuSans-2212"/>
       <use xlink:href="#DejaVuSans-31" x="83.789062"/>
       <use xlink:href="#DejaVuSans-39" x="147.412109"/>
       <use xlink:href="#DejaVuSans-35" x="211.035156"/>
       <use xlink:href="#DejaVuSans-30" x="274.658203"/>
      </g>
     </g>
    </g>
    <g id="ytick_4">
     <g id="line2d_25">
      <path d="M 57.6 204.212417 
L 414.72 204.212417 
" clip-path="url(#pa5abf2b14f)" style="fill: none; stroke: #b0b0b0; stroke-width: 0.8; stroke-linecap: square"/>
     </g>
     <g id="line2d_26">
      <g>
       <use xlink:href="#ma3189f5ba8" x="57.6" y="204.212417" style="stroke: #000000; stroke-width: 0.8"/>
      </g>
     </g>
     <g id="text_14">
      <!-- −1900 -->
      <g transform="translate(16.770313 208.011636) scale(0.1 -0.1)">
       <use xlink:href="#DejaVuSans-2212"/>
       <use xlink:href="#DejaVuSans-31" x="83.789062"/>
       <use xlink:href="#DejaVuSans-39" x="147.412109"/>
       <use xlink:href="#DejaVuSans-30" x="211.035156"/>
       <use xlink:href="#DejaVuSans-30" x="274.658203"/>
      </g>
     </g>
    </g>
    <g id="ytick_5">
     <g id="line2d_27">
      <path d="M 57.6 172.247467 
L 414.72 172.247467 
" clip-path="url(#pa5abf2b14f)" style="fill: none; stroke: #b0b0b0; stroke-width: 0.8; stroke-linecap: square"/>
     </g>
     <g id="line2d_28">
      <g>
       <use xlink:href="#ma3189f5ba8" x="57.6" y="172.247467" style="stroke: #000000; stroke-width: 0.8"/>
      </g>
     </g>
     <g id="text_15">
      <!-- −1850 -->
      <g transform="translate(16.770313 176.046686) scale(0.1 -0.1)">
       <defs>
        <path id="DejaVuSans-38" d="M 2034 2216 
Q 1584 2216 1326 1975 
Q 1069 1734 1069 1313 
Q 1069 891 1326 650 
Q 1584 409 2034 409 
Q 2484 409 2743 651 
Q 3003 894 3003 1313 
Q 3003 1734 2745 1975 
Q 2488 2216 2034 2216 
z
M 1403 2484 
Q 997 2584 770 2862 
Q 544 3141 544 3541 
Q 544 4100 942 4425 
Q 1341 4750 2034 4750 
Q 2731 4750 3128 4425 
Q 3525 4100 3525 3541 
Q 3525 3141 3298 2862 
Q 3072 2584 2669 2484 
Q 3125 2378 3379 2068 
Q 3634 1759 3634 1313 
Q 3634 634 3220 271 
Q 2806 -91 2034 -91 
Q 1263 -91 848 271 
Q 434 634 434 1313 
Q 434 1759 690 2068 
Q 947 2378 1403 2484 
z
M 1172 3481 
Q 1172 3119 1398 2916 
Q 1625 2713 2034 2713 
Q 2441 2713 2670 2916 
Q 2900 3119 2900 3481 
Q 2900 3844 2670 4047 
Q 2441 4250 2034 4250 
Q 1625 4250 1398 4047 
Q 1172 3844 1172 3481 
z
" transform="scale(0.015625)"/>
       </defs>
       <use xlink:href="#DejaVuSans-2212"/>
       <use xlink:href="#DejaVuSans-31" x="83.789062"/>
       <use xlink:href="#DejaVuSans-38" x="147.412109"/>
       <use xlink:href="#DejaVuSans-35" x="211.035156"/>
       <use xlink:href="#DejaVuSans-30" x="274.658203"/>
      </g>
     </g>
    </g>
    <g id="ytick_6">
     <g id="line2d_29">
      <path d="M 57.6 140.282517 
L 414.72 140.282517 
" clip-path="url(#pa5abf2b14f)" style="fill: none; stroke: #b0b0b0; stroke-width: 0.8; stroke-linecap: square"/>
     </g>
     <g id="line2d_30">
      <g>
       <use xlink:href="#ma3189f5ba8" x="57.6" y="140.282517" style="stroke: #000000; stroke-width: 0.8"/>
      </g>
     </g>
     <g id="text_16">
      <!-- −1800 -->
      <g transform="translate(16.770313 144.081735) scale(0.1 -0.1)">
       <use xlink:href="#DejaVuSans-2212"/>
       <use xlink:href="#DejaVuSans-31" x="83.789062"/>
       <use xlink:href="#DejaVuSans-38" x="147.412109"/>
       <use xlink:href="#DejaVuSans-30" x="211.035156"/>
       <use xlink:href="#DejaVuSans-30" x="274.658203"/>
      </g>
     </g>
    </g>
    <g id="ytick_7">
     <g id="line2d_31">
      <path d="M 57.6 108.317567 
L 414.72 108.317567 
" clip-path="url(#pa5abf2b14f)" style="fill: none; stroke: #b0b0b0; stroke-width: 0.8; stroke-linecap: square"/>
     </g>
     <g id="line2d_32">
      <g>
       <use xlink:href="#ma3189f5ba8" x="57.6" y="108.317567" style="stroke: #000000; stroke-width: 0.8"/>
      </g>
     </g>
     <g id="text_17">
      <!-- −1750 -->
      <g transform="translate(16.770313 112.116785) scale(0.1 -0.1)">
       <use xlink:href="#DejaVuSans-2212"/>
       <use xlink:href="#DejaVuSans-31" x="83.789062"/>
       <use xlink:href="#DejaVuSans-37" x="147.412109"/>
       <use xlink:href="#DejaVuSans-35" x="211.035156"/>
       <use xlink:href="#DejaVuSans-30" x="274.658203"/>
      </g>
     </g>
    </g>
    <g id="ytick_8">
     <g id="line2d_33">
      <path d="M 57.6 76.352616 
L 414.72 76.352616 
" clip-path="url(#pa5abf2b14f)" style="fill: none; stroke: #b0b0b0; stroke-width: 0.8; stroke-linecap: square"/>
     </g>
     <g id="line2d_34">
      <g>
       <use xlink:href="#ma3189f5ba8" x="57.6" y="76.352616" style="stroke: #000000; stroke-width: 0.8"/>
      </g>
     </g>
     <g id="text_18">
      <!-- −1700 -->
      <g transform="translate(16.770313 80.151835) scale(0.1 -0.1)">
       <use xlink:href="#DejaVuSans-2212"/>
       <use xlink:href="#DejaVuSans-31" x="83.789062"/>
       <use xlink:href="#DejaVuSans-37" x="147.412109"/>
       <use xlink:href="#DejaVuSans-30" x="211.035156"/>
       <use xlink:href="#DejaVuSans-30" x="274.658203"/>
      </g>
     </g>
    </g>
    <g id="ytick_9">
     <g id="line2d_35">
      <path d="M 57.6 44.387666 
L 414.72 44.387666 
" clip-path="url(#pa5abf2b14f)" style="fill: none; stroke: #b0b0b0; stroke-width: 0.8; stroke-linecap: square"/>
     </g>
     <g id="line2d_36">
      <g>
       <use xlink:href="#ma3189f5ba8" x="57.6" y="44.387666" style="stroke: #000000; stroke-width: 0.8"/>
      </g>
     </g>
     <g id="text_19">
      <!-- −1650 -->
      <g transform="translate(16.770313 48.186885) scale(0.1 -0.1)">
       <defs>
        <path id="DejaVuSans-36" d="M 2113 2584 
Q 1688 2584 1439 2293 
Q 1191 2003 1191 1497 
Q 1191 994 1439 701 
Q 1688 409 2113 409 
Q 2538 409 2786 701 
Q 3034 994 3034 1497 
Q 3034 2003 2786 2293 
Q 2538 2584 2113 2584 
z
M 3366 4563 
L 3366 3988 
Q 3128 4100 2886 4159 
Q 2644 4219 2406 4219 
Q 1781 4219 1451 3797 
Q 1122 3375 1075 2522 
Q 1259 2794 1537 2939 
Q 1816 3084 2150 3084 
Q 2853 3084 3261 2657 
Q 3669 2231 3669 1497 
Q 3669 778 3244 343 
Q 2819 -91 2113 -91 
Q 1303 -91 875 529 
Q 447 1150 447 2328 
Q 447 3434 972 4092 
Q 1497 4750 2381 4750 
Q 2619 4750 2861 4703 
Q 3103 4656 3366 4563 
z
" transform="scale(0.015625)"/>
       </defs>
       <use xlink:href="#DejaVuSans-2212"/>
       <use xlink:href="#DejaVuSans-31" x="83.789062"/>
       <use xlink:href="#DejaVuSans-36" x="147.412109"/>
       <use xlink:href="#DejaVuSans-35" x="211.035156"/>
       <use xlink:href="#DejaVuSans-30" x="274.658203"/>
      </g>
     </g>
    </g>
    <g id="text_20">
     <!-- Fitness -->
     <g transform="translate(10.690625 191.845187) rotate(-90) scale(0.1 -0.1)">
      <defs>
       <path id="DejaVuSans-46" d="M 628 4666 
L 3309 4666 
L 3309 4134 
L 1259 4134 
L 1259 2759 
L 3109 2759 
L 3109 2228 
L 1259 2228 
L 1259 0 
L 628 0 
L 628 4666 
z
" transform="scale(0.015625)"/>
      </defs>
      <use xlink:href="#DejaVuSans-46"/>
      <use xlink:href="#DejaVuSans-69" x="50.269531"/>
      <use xlink:href="#DejaVuSans-74" x="78.052734"/>
      <use xlink:href="#DejaVuSans-6e" x="117.261719"/>
      <use xlink:href="#DejaVuSans-65" x="180.640625"/>
      <use xlink:href="#DejaVuSans-73" x="242.164062"/>
      <use xlink:href="#DejaVuSans-73" x="294.263672"/>
     </g>
    </g>
   </g>
   <g id="line2d_37">
    <path d="M 73.832727 237.844787 
L 75.464157 225.339622 
L 77.095587 209.816854 
L 78.727017 207.128435 
L 80.358447 202.262186 
L 81.989877 204.042742 
L 83.621307 194.91707 
L 85.252736 201.784187 
L 86.884166 193.779117 
L 88.515596 199.30922 
L 90.147026 193.498445 
L 91.778456 189.653821 
L 93.409886 192.002482 
L 95.041316 189.748673 
L 96.672746 188.234417 
L 98.304175 193.456078 
L 99.935605 193.638111 
L 101.567035 192.449271 
L 103.198465 191.456738 
L 104.829895 192.348438 
L 106.461325 193.00808 
L 108.092755 190.605126 
L 109.724185 196.940787 
L 111.355614 194.885311 
L 112.987044 190.697849 
L 114.618474 190.311468 
L 116.249904 196.779859 
L 119.512764 196.621936 
L 121.144194 190.506212 
L 122.775624 190.553345 
L 124.407053 191.328732 
L 126.038483 200.385626 
L 127.669913 187.984379 
L 129.301343 188.063138 
L 130.932773 193.191682 
L 132.564203 190.628701 
L 134.195633 189.482916 
L 135.827063 194.524757 
L 137.458492 188.487459 
L 139.089922 196.118443 
L 140.721352 194.844175 
L 142.352782 189.645039 
L 143.984212 192.317094 
L 145.615642 194.449137 
L 147.247072 189.63273 
L 148.878502 197.817241 
L 150.509931 194.651523 
L 152.141361 199.940466 
L 153.772791 185.699978 
L 155.404221 197.380602 
L 157.035651 191.924195 
L 158.667081 202.542888 
L 160.298511 197.083931 
L 161.929941 194.350469 
L 163.56137 194.698659 
L 165.1928 195.163531 
L 166.82423 197.891429 
L 168.45566 191.005016 
L 170.08709 199.633745 
L 171.71852 200.757103 
L 173.34995 194.441776 
L 174.98138 194.455765 
L 176.61281 191.572653 
L 178.244239 209.369493 
L 179.875669 201.978478 
L 181.507099 200.890428 
L 183.138529 198.567783 
L 184.769959 207.098539 
L 186.401389 193.432823 
L 188.032819 201.082835 
L 192.927108 189.813084 
L 194.558538 187.97385 
L 196.189968 199.771441 
L 197.821398 196.623292 
L 199.452828 194.806574 
L 201.084258 189.285338 
L 202.715688 193.184629 
L 204.347117 191.236 
L 205.978547 193.311816 
L 207.609977 193.429906 
L 209.241407 198.208108 
L 210.872837 190.800634 
L 212.504267 187.15721 
L 215.767127 195.984068 
L 217.398556 197.589162 
L 219.029986 193.714139 
L 220.661416 185.805894 
L 222.292846 187.497138 
L 223.924276 190.97329 
L 225.555706 189.44017 
L 227.187136 194.821691 
L 228.818566 197.0074 
L 230.449995 195.817275 
L 232.081425 196.799357 
L 233.712855 193.547619 
L 235.344285 186.954451 
L 236.975715 191.446085 
L 238.607145 194.722454 
L 240.238575 188.491158 
L 241.870005 190.429875 
L 243.501434 195.540643 
L 245.132864 193.422164 
L 246.764294 190.585042 
L 248.395724 191.911459 
L 250.027154 194.249124 
L 251.658584 193.929559 
L 253.290014 184.008118 
L 254.921444 196.144245 
L 256.552873 195.70666 
L 258.184303 184.113256 
L 259.815733 198.19506 
L 261.447163 184.872959 
L 263.078593 189.230267 
L 264.710023 199.440175 
L 266.341453 194.22964 
L 267.972883 187.047601 
L 269.604312 196.938744 
L 271.235742 192.249002 
L 272.867172 199.216204 
L 274.498602 199.178942 
L 276.130032 198.717888 
L 277.761462 196.023055 
L 279.392892 186.313705 
L 281.024322 185.781845 
L 282.655751 190.323258 
L 284.287181 194.190157 
L 285.918611 195.91414 
L 287.550041 193.980238 
L 289.181471 193.621025 
L 290.812901 193.401456 
L 292.444331 193.726952 
L 294.075761 196.298942 
L 295.70719 191.118089 
L 297.33862 192.706462 
L 298.97005 197.570273 
L 300.60148 197.346806 
L 302.23291 197.581921 
L 303.86434 195.633082 
L 305.49577 207.238643 
L 307.1272 195.272071 
L 308.75863 197.024404 
L 310.390059 194.810021 
L 312.021489 199.962188 
L 313.652919 200.969671 
L 315.284349 189.758512 
L 316.915779 189.451713 
L 318.547209 195.417359 
L 320.178639 199.240525 
L 321.810069 190.671081 
L 323.441498 185.6135 
L 325.072928 194.927064 
L 326.704358 197.563011 
L 328.335788 197.748858 
L 329.967218 200.94432 
L 331.598648 202.343187 
L 333.230078 191.235644 
L 334.861508 189.65653 
L 336.492937 190.806575 
L 338.124367 198.761844 
L 339.755797 200.072906 
L 341.387227 190.820639 
L 343.018657 193.014795 
L 344.650087 187.512846 
L 346.281517 195.826867 
L 347.912947 199.752272 
L 349.544376 193.252482 
L 351.175806 197.637203 
L 352.807236 190.034034 
L 354.438666 195.40675 
L 356.070096 197.832263 
L 357.701526 198.565917 
L 359.332956 185.184694 
L 360.964386 184.848743 
L 362.595815 183.716936 
L 364.227245 187.374515 
L 365.858675 193.72493 
L 367.490105 186.078963 
L 369.121535 193.686252 
L 370.752965 187.69844 
L 372.384395 191.061024 
L 374.015825 188.624709 
L 375.647254 193.203638 
L 377.278684 192.152374 
L 378.910114 196.516678 
L 380.541544 189.775728 
L 382.172974 193.673796 
L 383.804404 194.714032 
L 385.435834 195.043559 
L 387.067264 196.6428 
L 388.698693 187.557304 
L 390.330123 196.776611 
L 391.961553 201.639323 
L 393.592983 193.570657 
L 395.224413 193.163252 
L 396.855843 192.59641 
L 398.487273 196.384797 
L 398.487273 196.384797 
" clip-path="url(#pa5abf2b14f)" style="fill: none; stroke: #0000ff; stroke-width: 1.5; stroke-linecap: square"/>
   </g>
   <g id="line2d_38">
    <path d="M 73.832727 295.488 
L 75.464157 289.431369 
L 77.095587 274.360028 
L 78.727017 266.841168 
L 80.358447 256.50958 
L 81.989877 260.247941 
L 83.621307 249.787493 
L 85.252736 260.020784 
L 86.884166 254.707395 
L 88.515596 256.679609 
L 90.147026 247.921423 
L 91.778456 245.579491 
L 93.409886 245.877477 
L 95.041316 245.010723 
L 96.672746 242.002143 
L 98.304175 248.893237 
L 99.935605 245.948068 
L 101.567035 243.90528 
L 103.198465 249.09071 
L 106.461325 246.3405 
L 108.092755 250.453404 
L 109.724185 257.786661 
L 111.355614 251.300883 
L 112.987044 246.458588 
L 114.618474 249.184944 
L 116.249904 254.855393 
L 117.881334 262.816214 
L 119.512764 258.509307 
L 121.144194 248.188903 
L 122.775624 250.56439 
L 124.407053 251.734815 
L 126.038483 259.707077 
L 127.669913 245.470819 
L 129.301343 241.272116 
L 130.932773 247.511339 
L 132.564203 244.771594 
L 134.195633 245.283049 
L 135.827063 248.077126 
L 137.458492 237.320726 
L 139.089922 249.473973 
L 140.721352 248.824957 
L 142.352782 240.699909 
L 143.984212 240.47179 
L 145.615642 246.108151 
L 147.247072 243.844072 
L 148.878502 256.261491 
L 150.509931 256.594603 
L 152.141361 259.114229 
L 153.772791 242.408409 
L 155.404221 249.347492 
L 157.035651 243.606804 
L 158.667081 254.340876 
L 160.298511 245.965203 
L 161.929941 243.453688 
L 163.56137 241.436717 
L 165.1928 241.043959 
L 166.82423 246.814071 
L 168.45566 231.175268 
L 170.08709 249.720033 
L 171.71852 250.988394 
L 173.34995 240.866702 
L 174.98138 240.427799 
L 176.61281 238.216255 
L 178.244239 262.777025 
L 179.875669 247.588007 
L 181.507099 248.032132 
L 183.138529 241.985783 
L 184.769959 255.087397 
L 186.401389 235.816959 
L 188.032819 249.613683 
L 189.664249 243.228729 
L 191.295678 236.14627 
L 192.927108 230.453975 
L 194.558538 226.171467 
L 196.189968 247.800617 
L 197.821398 240.696372 
L 199.452828 236.956886 
L 201.084258 230.430775 
L 202.715688 234.789613 
L 204.347117 233.453752 
L 205.978547 240.914277 
L 207.609977 242.199335 
L 209.241407 252.524366 
L 210.872837 239.317231 
L 212.504267 233.973869 
L 214.135697 245.192333 
L 215.767127 250.714409 
L 217.398556 249.384922 
L 219.029986 246.951244 
L 220.661416 233.537568 
L 222.292846 241.253549 
L 223.924276 246.297956 
L 225.555706 246.976006 
L 227.187136 253.086226 
L 228.818566 252.232012 
L 230.449995 252.183123 
L 232.081425 256.401866 
L 233.712855 247.187241 
L 235.344285 236.967459 
L 236.975715 244.201476 
L 238.607145 249.067663 
L 240.238575 238.968359 
L 241.870005 235.822853 
L 243.501434 246.902997 
L 245.132864 240.87981 
L 246.764294 236.63711 
L 248.395724 241.733392 
L 250.027154 239.000362 
L 251.658584 241.537913 
L 253.290014 218.328628 
L 254.921444 245.942367 
L 256.552873 244.390191 
L 258.184303 228.201476 
L 259.815733 248.518943 
L 261.447163 224.214882 
L 263.078593 234.022001 
L 264.710023 250.630713 
L 266.341453 247.536653 
L 267.972883 234.60383 
L 269.604312 255.431799 
L 271.235742 249.168675 
L 272.867172 260.207672 
L 274.498602 258.098658 
L 276.130032 259.943312 
L 277.761462 250.891786 
L 279.392892 240.766597 
L 281.024322 240.424128 
L 282.655751 239.753164 
L 284.287181 256.371848 
L 285.918611 249.401196 
L 287.550041 245.872847 
L 289.181471 250.833537 
L 290.812901 246.959465 
L 292.444331 246.5672 
L 294.075761 253.980438 
L 295.70719 242.349605 
L 297.33862 246.472496 
L 298.97005 254.330238 
L 300.60148 255.954568 
L 302.23291 254.186172 
L 303.86434 255.896902 
L 305.49577 262.935359 
L 307.1272 246.475062 
L 308.75863 253.114901 
L 310.390059 251.168212 
L 312.021489 255.098633 
L 313.652919 257.688305 
L 315.284349 237.310494 
L 316.915779 239.244883 
L 318.547209 249.642531 
L 320.178639 250.817478 
L 321.810069 232.811659 
L 323.441498 237.495255 
L 325.072928 247.79283 
L 326.704358 253.048707 
L 328.335788 249.35738 
L 329.967218 255.840379 
L 331.598648 257.940152 
L 333.230078 243.223335 
L 334.861508 240.964286 
L 336.492937 241.019845 
L 338.124367 255.319579 
L 339.755797 257.21477 
L 341.387227 241.048271 
L 343.018657 248.875051 
L 344.650087 238.175201 
L 346.281517 252.008257 
L 347.912947 254.480618 
L 349.544376 248.32067 
L 351.175806 256.970447 
L 352.807236 244.273608 
L 354.438666 251.795954 
L 356.070096 260.44689 
L 357.701526 264.840451 
L 359.332956 243.180801 
L 360.964386 243.292652 
L 362.595815 240.986503 
L 364.227245 248.12814 
L 365.858675 260.327904 
L 367.490105 247.784319 
L 369.121535 262.073387 
L 370.752965 254.224109 
L 372.384395 258.470754 
L 374.015825 256.292375 
L 375.647254 258.901281 
L 377.278684 257.688498 
L 378.910114 260.354561 
L 380.541544 255.185335 
L 382.172974 256.091198 
L 383.804404 256.808445 
L 385.435834 253.002518 
L 387.067264 259.636929 
L 388.698693 249.714391 
L 390.330123 261.432504 
L 391.961553 265.288509 
L 393.592983 254.642859 
L 395.224413 255.034834 
L 396.855843 252.782624 
L 398.487273 254.101606 
L 398.487273 254.101606 
" clip-path="url(#pa5abf2b14f)" style="fill: none; stroke-dasharray: 9.6,2.4,1.5,2.4; stroke-dashoffset: 0; stroke: #008000; stroke-width: 1.5"/>
   </g>
   <g id="line2d_39">
    <path d="M 73.832727 180.201573 
L 75.464157 161.247874 
L 77.095587 145.27368 
L 78.727017 147.415703 
L 80.358447 148.014792 
L 81.989877 147.837542 
L 83.621307 140.046647 
L 85.252736 143.54759 
L 86.884166 132.850838 
L 88.515596 141.938831 
L 90.147026 139.075466 
L 91.778456 133.72815 
L 93.409886 138.127486 
L 95.041316 134.486624 
L 96.672746 134.466691 
L 99.935605 141.328155 
L 101.567035 140.993262 
L 103.198465 133.822765 
L 104.829895 136.912135 
L 106.461325 139.675661 
L 108.092755 130.756847 
L 109.724185 136.094913 
L 111.355614 138.469739 
L 114.618474 131.437991 
L 116.249904 138.704325 
L 117.881334 130.513249 
L 119.512764 134.734566 
L 121.144194 132.82352 
L 122.775624 130.5423 
L 124.407053 130.922648 
L 126.038483 141.064176 
L 127.669913 130.497938 
L 129.301343 134.85416 
L 130.932773 138.872025 
L 132.564203 136.485807 
L 134.195633 133.682784 
L 135.827063 140.972389 
L 137.458492 139.654193 
L 139.089922 142.762913 
L 140.721352 140.863393 
L 142.352782 138.590169 
L 143.984212 144.162398 
L 145.615642 142.790123 
L 147.247072 135.421388 
L 148.878502 139.372991 
L 150.509931 132.708443 
L 152.141361 140.766702 
L 153.772791 128.991546 
L 155.404221 145.413712 
L 157.035651 140.241586 
L 158.667081 150.7449 
L 160.298511 148.20266 
L 161.929941 145.247249 
L 163.56137 147.960602 
L 165.1928 149.283103 
L 166.82423 148.968786 
L 168.45566 150.834765 
L 170.08709 149.547456 
L 171.71852 150.525811 
L 173.34995 148.01685 
L 174.98138 148.48373 
L 176.61281 144.929051 
L 178.244239 155.961962 
L 179.875669 156.36895 
L 181.507099 153.748723 
L 183.138529 155.149783 
L 184.769959 159.10968 
L 186.401389 151.048687 
L 188.032819 152.551988 
L 189.664249 151.501146 
L 191.295678 151.638412 
L 192.927108 149.172194 
L 194.558538 149.776233 
L 196.189968 151.742265 
L 197.821398 152.550212 
L 199.452828 152.656262 
L 201.084258 148.139902 
L 202.715688 151.579644 
L 204.347117 149.018247 
L 205.978547 145.709355 
L 207.609977 144.660477 
L 209.241407 143.891851 
L 210.872837 142.284038 
L 212.504267 140.34055 
L 214.135697 137.86742 
L 215.767127 141.253726 
L 217.398556 145.793402 
L 219.029986 140.477034 
L 220.661416 138.074221 
L 222.292846 133.740728 
L 223.924276 135.648624 
L 225.555706 131.904335 
L 227.187136 136.557155 
L 228.818566 141.782788 
L 232.081425 137.196847 
L 233.712855 139.907996 
L 235.344285 136.941442 
L 238.607145 140.377244 
L 240.238575 138.013958 
L 241.870005 145.036898 
L 243.501434 144.178288 
L 245.132864 145.964518 
L 246.764294 144.532975 
L 248.395724 142.089526 
L 250.027154 149.497886 
L 251.658584 146.321204 
L 253.290014 149.687607 
L 254.921444 146.346122 
L 256.552873 147.023129 
L 258.184303 140.025036 
L 259.815733 147.871176 
L 261.447163 145.531035 
L 263.078593 144.438533 
L 264.710023 148.249638 
L 266.341453 140.922627 
L 267.972883 139.491371 
L 269.604312 138.445689 
L 271.235742 135.329328 
L 272.867172 138.224736 
L 274.498602 140.259226 
L 276.130032 137.492464 
L 277.761462 141.154324 
L 279.392892 131.860812 
L 281.024322 131.139562 
L 282.655751 140.893352 
L 284.287181 132.008466 
L 285.918611 142.427084 
L 287.550041 142.08763 
L 289.181471 136.408513 
L 290.812901 139.843448 
L 292.444331 140.886703 
L 294.075761 138.617446 
L 295.70719 139.886573 
L 297.33862 138.940427 
L 298.97005 140.810308 
L 300.60148 138.739045 
L 302.23291 140.97767 
L 303.86434 135.369263 
L 305.49577 151.541927 
L 307.1272 144.06908 
L 308.75863 140.933908 
L 310.390059 138.45183 
L 312.021489 144.825742 
L 313.652919 144.251036 
L 315.284349 142.20653 
L 316.915779 139.658543 
L 318.547209 141.192187 
L 320.178639 147.663572 
L 321.810069 148.530502 
L 323.441498 133.731745 
L 325.072928 142.061299 
L 326.704358 142.077315 
L 328.335788 146.140336 
L 329.967218 146.048262 
L 331.598648 146.746223 
L 333.230078 139.247954 
L 334.861508 138.348773 
L 336.492937 140.593305 
L 338.124367 142.204108 
L 339.755797 142.931041 
L 341.387227 140.593007 
L 343.018657 137.15454 
L 344.650087 136.850491 
L 346.281517 139.645477 
L 347.912947 145.023925 
L 349.544376 138.184293 
L 351.175806 138.303959 
L 352.807236 135.794461 
L 354.438666 139.017546 
L 356.070096 135.217635 
L 357.701526 132.291382 
L 359.332956 127.188587 
L 360.964386 126.404834 
L 362.595815 126.447368 
L 364.227245 126.62089 
L 365.858675 127.121956 
L 367.490105 124.373606 
L 369.121535 125.299117 
L 370.752965 121.172771 
L 372.384395 123.651294 
L 374.015825 120.957043 
L 375.647254 127.505995 
L 377.278684 126.61625 
L 378.910114 132.678794 
L 380.541544 124.36612 
L 382.172974 131.256394 
L 383.804404 132.619619 
L 385.435834 137.0846 
L 387.067264 133.648671 
L 388.698693 125.400218 
L 390.330123 132.120718 
L 391.961553 137.990138 
L 393.592983 132.498455 
L 395.224413 131.291671 
L 396.855843 132.410195 
L 398.487273 138.667987 
L 398.487273 138.667987 
" clip-path="url(#pa5abf2b14f)" style="fill: none; stroke-dasharray: 9.6,2.4,1.5,2.4; stroke-dashoffset: 0; stroke: #008000; stroke-width: 1.5"/>
   </g>
   <g id="line2d_40">
    <path d="M 73.832727 56.086838 
L 85.252736 56.086838 
L 86.884166 55.447539 
L 122.775624 55.447539 
L 124.407053 53.568 
L 398.487273 53.568 
L 398.487273 53.568 
" clip-path="url(#pa5abf2b14f)" style="fill: none; stroke: #ff0000; stroke-width: 1.5; stroke-linecap: square"/>
   </g>
   <g id="patch_3">
    <path d="M 57.6 307.584 
L 57.6 41.472 
" style="fill: none; stroke: #000000; stroke-width: 0.8; stroke-linejoin: miter; stroke-linecap: square"/>
   </g>
   <g id="patch_4">
    <path d="M 414.72 307.584 
L 414.72 41.472 
" style="fill: none; stroke: #000000; stroke-width: 0.8; stroke-linejoin: miter; stroke-linecap: square"/>
   </g>
   <g id="patch_5">
    <path d="M 57.6 307.584 
L 414.72 307.584 
" style="fill: none; stroke: #000000; stroke-width: 0.8; stroke-linejoin: miter; stroke-linecap: square"/>
   </g>
   <g id="patch_6">
    <path d="M 57.6 41.472 
L 414.72 41.472 
" style="fill: none; stroke: #000000; stroke-width: 0.8; stroke-linejoin: miter; stroke-linecap: square"/>
   </g>
   <g id="text_21">
    <!-- Population's average and best fitness -->
    <g transform="translate(123.529687 35.472) scale(0.12 -0.12)">
     <defs>
      <path id="DejaVuSans-50" d="M 1259 4147 
L 1259 2394 
L 2053 2394 
Q 2494 2394 2734 2622 
Q 2975 2850 2975 3272 
Q 2975 3691 2734 3919 
Q 2494 4147 2053 4147 
L 1259 4147 
z
M 628 4666 
L 2053 4666 
Q 2838 4666 3239 4311 
Q 3641 3956 3641 3272 
Q 3641 2581 3239 2228 
Q 2838 1875 2053 1875 
L 1259 1875 
L 1259 0 
L 628 0 
L 628 4666 
z
" transform="scale(0.015625)"/>
      <path id="DejaVuSans-70" d="M 1159 525 
L 1159 -1331 
L 581 -1331 
L 581 3500 
L 1159 3500 
L 1159 2969 
Q 1341 3281 1617 3432 
Q 1894 3584 2278 3584 
Q 2916 3584 3314 3078 
Q 3713 2572 3713 1747 
Q 3713 922 3314 415 
Q 2916 -91 2278 -91 
Q 1894 -91 1617 61 
Q 1341 213 1159 525 
z
M 3116 1747 
Q 3116 2381 2855 2742 
Q 2594 3103 2138 3103 
Q 1681 3103 1420 2742 
Q 1159 2381 1159 1747 
Q 1159 1113 1420 752 
Q 1681 391 2138 391 
Q 2594 391 2855 752 
Q 3116 1113 3116 1747 
z
" transform="scale(0.015625)"/>
      <path id="DejaVuSans-75" d="M 544 1381 
L 544 3500 
L 1119 3500 
L 1119 1403 
Q 1119 906 1312 657 
Q 1506 409 1894 409 
Q 2359 409 2629 706 
Q 2900 1003 2900 1516 
L 2900 3500 
L 3475 3500 
L 3475 0 
L 2900 0 
L 2900 538 
Q 2691 219 2414 64 
Q 2138 -91 1772 -91 
Q 1169 -91 856 284 
Q 544 659 544 1381 
z
M 1991 3584 
L 1991 3584 
z
" transform="scale(0.015625)"/>
      <path id="DejaVuSans-6c" d="M 603 4863 
L 1178 4863 
L 1178 0 
L 603 0 
L 603 4863 
z
" transform="scale(0.015625)"/>
      <path id="DejaVuSans-27" d="M 1147 4666 
L 1147 2931 
L 616 2931 
L 616 4666 
L 1147 4666 
z
" transform="scale(0.015625)"/>
      <path id="DejaVuSans-20" transform="scale(0.015625)"/>
      <path id="DejaVuSans-76" d="M 191 3500 
L 800 3500 
L 1894 563 
L 2988 3500 
L 3597 3500 
L 2284 0 
L 1503 0 
L 191 3500 
z
" transform="scale(0.015625)"/>
      <path id="DejaVuSans-67" d="M 2906 1791 
Q 2906 2416 2648 2759 
Q 2391 3103 1925 3103 
Q 1463 3103 1205 2759 
Q 947 2416 947 1791 
Q 947 1169 1205 825 
Q 1463 481 1925 481 
Q 2391 481 2648 825 
Q 2906 1169 2906 1791 
z
M 3481 434 
Q 3481 -459 3084 -895 
Q 2688 -1331 1869 -1331 
Q 1566 -1331 1297 -1286 
Q 1028 -1241 775 -1147 
L 775 -588 
Q 1028 -725 1275 -790 
Q 1522 -856 1778 -856 
Q 2344 -856 2625 -561 
Q 2906 -266 2906 331 
L 2906 616 
Q 2728 306 2450 153 
Q 2172 0 1784 0 
Q 1141 0 747 490 
Q 353 981 353 1791 
Q 353 2603 747 3093 
Q 1141 3584 1784 3584 
Q 2172 3584 2450 3431 
Q 2728 3278 2906 2969 
L 2906 3500 
L 3481 3500 
L 3481 434 
z
" transform="scale(0.015625)"/>
      <path id="DejaVuSans-64" d="M 2906 2969 
L 2906 4863 
L 3481 4863 
L 3481 0 
L 2906 0 
L 2906 525 
Q 2725 213 2448 61 
Q 2172 -91 1784 -91 
Q 1150 -91 751 415 
Q 353 922 353 1747 
Q 353 2572 751 3078 
Q 1150 3584 1784 3584 
Q 2172 3584 2448 3432 
Q 2725 3281 2906 2969 
z
M 947 1747 
Q 947 1113 1208 752 
Q 1469 391 1925 391 
Q 2381 391 2643 752 
Q 2906 1113 2906 1747 
Q 2906 2381 2643 2742 
Q 2381 3103 1925 3103 
Q 1469 3103 1208 2742 
Q 947 2381 947 1747 
z
" transform="scale(0.015625)"/>
      <path id="DejaVuSans-62" d="M 3116 1747 
Q 3116 2381 2855 2742 
Q 2594 3103 2138 3103 
Q 1681 3103 1420 2742 
Q 1159 2381 1159 1747 
Q 1159 1113 1420 752 
Q 1681 391 2138 391 
Q 2594 391 2855 752 
Q 3116 1113 3116 1747 
z
M 1159 2969 
Q 1341 3281 1617 3432 
Q 1894 3584 2278 3584 
Q 2916 3584 3314 3078 
Q 3713 2572 3713 1747 
Q 3713 922 3314 415 
Q 2916 -91 2278 -91 
Q 1894 -91 1617 61 
Q 1341 213 1159 525 
L 1159 0 
L 581 0 
L 581 4863 
L 1159 4863 
L 1159 2969 
z
" transform="scale(0.015625)"/>
      <path id="DejaVuSans-66" d="M 2375 4863 
L 2375 4384 
L 1825 4384 
Q 1516 4384 1395 4259 
Q 1275 4134 1275 3809 
L 1275 3500 
L 2222 3500 
L 2222 3053 
L 1275 3053 
L 1275 0 
L 697 0 
L 697 3053 
L 147 3053 
L 147 3500 
L 697 3500 
L 697 3744 
Q 697 4328 969 4595 
Q 1241 4863 1831 4863 
L 2375 4863 
z
" transform="scale(0.015625)"/>
     </defs>
     <use xlink:href="#DejaVuSans-50"/>
     <use xlink:href="#DejaVuSans-6f" x="56.677734"/>
     <use xlink:href="#DejaVuSans-70" x="117.859375"/>
     <use xlink:href="#DejaVuSans-75" x="181.335938"/>
     <use xlink:href="#DejaVuSans-6c" x="244.714844"/>
     <use xlink:href="#DejaVuSans-61" x="272.498047"/>
     <use xlink:href="#DejaVuSans-74" x="333.777344"/>
     <use xlink:href="#DejaVuSans-69" x="372.986328"/>
     <use xlink:href="#DejaVuSans-6f" x="400.769531"/>
     <use xlink:href="#DejaVuSans-6e" x="461.951172"/>
     <use xlink:href="#DejaVuSans-27" x="525.330078"/>
     <use xlink:href="#DejaVuSans-73" x="552.820312"/>
     <use xlink:href="#DejaVuSans-20" x="604.919922"/>
     <use xlink:href="#DejaVuSans-61" x="636.707031"/>
     <use xlink:href="#DejaVuSans-76" x="697.986328"/>
     <use xlink:href="#DejaVuSans-65" x="757.166016"/>
     <use xlink:href="#DejaVuSans-72" x="818.689453"/>
     <use xlink:href="#DejaVuSans-61" x="859.802734"/>
     <use xlink:href="#DejaVuSans-67" x="921.082031"/>
     <use xlink:href="#DejaVuSans-65" x="984.558594"/>
     <use xlink:href="#DejaVuSans-20" x="1046.082031"/>
     <use xlink:href="#DejaVuSans-61" x="1077.869141"/>
     <use xlink:href="#DejaVuSans-6e" x="1139.148438"/>
     <use xlink:href="#DejaVuSans-64" x="1202.527344"/>
     <use xlink:href="#DejaVuSans-20" x="1266.003906"/>
     <use xlink:href="#DejaVuSans-62" x="1297.791016"/>
     <use xlink:href="#DejaVuSans-65" x="1361.267578"/>
     <use xlink:href="#DejaVuSans-73" x="1422.791016"/>
     <use xlink:href="#DejaVuSans-74" x="1474.890625"/>
     <use xlink:href="#DejaVuSans-20" x="1514.099609"/>
     <use xlink:href="#DejaVuSans-66" x="1545.886719"/>
     <use xlink:href="#DejaVuSans-69" x="1581.091797"/>
     <use xlink:href="#DejaVuSans-74" x="1608.875"/>
     <use xlink:href="#DejaVuSans-6e" x="1648.083984"/>
     <use xlink:href="#DejaVuSans-65" x="1711.462891"/>
     <use xlink:href="#DejaVuSans-73" x="1772.986328"/>
     <use xlink:href="#DejaVuSans-73" x="1825.085938"/>
    </g>
   </g>
   <g id="legend_1">
    <g id="patch_7">
     <path d="M 199.689687 302.584 
L 272.630313 302.584 
Q 274.630313 302.584 274.630313 300.584 
L 274.630313 242.8715 
Q 274.630313 240.8715 272.630313 240.8715 
L 199.689687 240.8715 
Q 197.689687 240.8715 197.689687 242.8715 
L 197.689687 300.584 
Q 197.689687 302.584 199.689687 302.584 
z
" style="fill: #ffffff; opacity: 0.8; stroke: #cccccc; stroke-linejoin: miter"/>
    </g>
    <g id="line2d_41">
     <path d="M 201.689687 248.969937 
L 211.689687 248.969937 
L 221.689687 248.969937 
" style="fill: none; stroke: #0000ff; stroke-width: 1.5; stroke-linecap: square"/>
    </g>
    <g id="text_22">
     <!-- average -->
     <g transform="translate(229.689687 252.469937) scale(0.1 -0.1)">
      <use xlink:href="#DejaVuSans-61"/>
      <use xlink:href="#DejaVuSans-76" x="61.279297"/>
      <use xlink:href="#DejaVuSans-65" x="120.458984"/>
      <use xlink:href="#DejaVuSans-72" x="181.982422"/>
      <use xlink:href="#DejaVuSans-61" x="223.095703"/>
      <use xlink:href="#DejaVuSans-67" x="284.375"/>
      <use xlink:href="#DejaVuSans-65" x="347.851562"/>
     </g>
    </g>
    <g id="line2d_42">
     <path d="M 201.689687 263.648062 
L 211.689687 263.648062 
L 221.689687 263.648062 
" style="fill: none; stroke-dasharray: 9.6,2.4,1.5,2.4; stroke-dashoffset: 0; stroke: #008000; stroke-width: 1.5"/>
    </g>
    <g id="text_23">
     <!-- -1 sd -->
     <g transform="translate(229.689687 267.148062) scale(0.1 -0.1)">
      <defs>
       <path id="DejaVuSans-2d" d="M 313 2009 
L 1997 2009 
L 1997 1497 
L 313 1497 
L 313 2009 
z
" transform="scale(0.015625)"/>
      </defs>
      <use xlink:href="#DejaVuSans-2d"/>
      <use xlink:href="#DejaVuSans-31" x="36.083984"/>
      <use xlink:href="#DejaVuSans-20" x="99.707031"/>
      <use xlink:href="#DejaVuSans-73" x="131.494141"/>
      <use xlink:href="#DejaVuSans-64" x="183.59375"/>
     </g>
    </g>
    <g id="line2d_43">
     <path d="M 201.689687 278.326187 
L 211.689687 278.326187 
L 221.689687 278.326187 
" style="fill: none; stroke-dasharray: 9.6,2.4,1.5,2.4; stroke-dashoffset: 0; stroke: #008000; stroke-width: 1.5"/>
    </g>
    <g id="text_24">
     <!-- +1 sd -->
     <g transform="translate(229.689687 281.826187) scale(0.1 -0.1)">
      <defs>
       <path id="DejaVuSans-2b" d="M 2944 4013 
L 2944 2272 
L 4684 2272 
L 4684 1741 
L 2944 1741 
L 2944 0 
L 2419 0 
L 2419 1741 
L 678 1741 
L 678 2272 
L 2419 2272 
L 2419 4013 
L 2944 4013 
z
" transform="scale(0.015625)"/>
      </defs>
      <use xlink:href="#DejaVuSans-2b"/>
      <use xlink:href="#DejaVuSans-31" x="83.789062"/>
      <use xlink:href="#DejaVuSans-20" x="147.412109"/>
      <use xlink:href="#DejaVuSans-73" x="179.199219"/>
      <use xlink:href="#DejaVuSans-64" x="231.298828"/>
     </g>
    </g>
    <g id="line2d_44">
     <path d="M 201.689687 293.004312 
L 211.689687 293.004312 
L 221.689687 293.004312 
" style="fill: none; stroke: #ff0000; stroke-width: 1.5; stroke-linecap: square"/>
    </g>
    <g id="text_25">
     <!-- best -->
     <g transform="translate(229.689687 296.504312) scale(0.1 -0.1)">
      <use xlink:href="#DejaVuSans-62"/>
      <use xlink:href="#DejaVuSans-65" x="63.476562"/>
      <use xlink:href="#DejaVuSans-73" x="125"/>
      <use xlink:href="#DejaVuSans-74" x="177.099609"/>
     </g>
    </g>
   </g>
  </g>
 </g>
 <defs>
  <clipPath id="pa5abf2b14f">
   <rect x="57.6" y="41.472" width="357.12" height="266.112"/>
  </clipPath>
 </defs>
</svg>
