<?xml version="1.0" encoding="utf-8" standalone="no"?>
<!DOCTYPE svg PUBLIC "-//W3C//DTD SVG 1.1//EN"
  "http://www.w3.org/Graphics/SVG/1.1/DTD/svg11.dtd">
<svg xmlns:xlink="http://www.w3.org/1999/xlink" width="460.8pt" height="345.6pt" viewBox="0 0 460.8 345.6" xmlns="http://www.w3.org/2000/svg" version="1.1">
 <metadata>
  <rdf:RDF xmlns:dc="http://purl.org/dc/elements/1.1/" xmlns:cc="http://creativecommons.org/ns#" xmlns:rdf="http://www.w3.org/1999/02/22-rdf-syntax-ns#">
   <cc:Work>
    <dc:type rdf:resource="http://purl.org/dc/dcmitype/StillImage"/>
    <dc:date>2024-08-07T09:41:09.021791</dc:date>
    <dc:format>image/svg+xml</dc:format>
    <dc:creator>
     <cc:Agent>
      <dc:title>Matplotlib v3.8.4, https://matplotlib.org/</dc:title>
     </cc:Agent>
    </dc:creator>
   </cc:Work>
  </rdf:RDF>
 </metadata>
 <defs>
  <style type="text/css">*{stroke-linejoin: round; stroke-linecap: butt}</style>
 </defs>
 <g id="figure_1">
  <g id="patch_1">
   <path d="M 0 345.6 
L 460.8 345.6 
L 460.8 0 
L 0 0 
z
" style="fill: #ffffff"/>
  </g>
  <g id="axes_1">
   <g id="patch_2">
    <path d="M 57.6 307.584 
L 414.72 307.584 
L 414.72 41.472 
L 57.6 41.472 
z
" style="fill: #ffffff"/>
   </g>
   <g id="PolyCollection_1">
    <path d="M 73.832727 170.205308 
L 73.832727 307.584 
L 77.112066 307.584 
L 80.391405 307.584 
L 83.670744 307.584 
L 86.950083 307.584 
L 90.229421 307.584 
L 93.50876 307.584 
L 96.788099 307.584 
L 100.067438 307.584 
L 103.346777 307.584 
L 106.626116 307.584 
L 109.905455 307.584 
L 113.184793 307.584 
L 116.464132 307.584 
L 119.743471 307.584 
L 123.02281 307.584 
L 126.302149 307.584 
L 129.581488 307.584 
L 132.860826 307.584 
L 136.140165 307.584 
L 139.419504 307.584 
L 142.698843 307.584 
L 145.978182 307.584 
L 149.257521 307.584 
L 152.53686 307.584 
L 155.816198 307.584 
L 159.095537 307.584 
L 162.374876 307.584 
L 165.654215 307.584 
L 168.933554 307.584 
L 172.212893 307.584 
L 175.492231 307.584 
L 178.77157 307.584 
L 182.050909 307.584 
L 185.330248 307.584 
L 188.609587 307.584 
L 191.888926 307.584 
L 195.168264 307.584 
L 198.447603 307.584 
L 201.726942 307.584 
L 205.006281 307.584 
L 208.28562 307.584 
L 211.564959 307.584 
L 214.844298 307.584 
L 218.123636 307.584 
L 221.402975 307.584 
L 224.682314 307.584 
L 227.961653 307.584 
L 231.240992 307.584 
L 234.520331 307.584 
L 237.799669 307.584 
L 241.079008 307.584 
L 244.358347 307.584 
L 247.637686 307.584 
L 250.917025 307.584 
L 254.196364 307.584 
L 257.475702 307.584 
L 260.755041 307.584 
L 264.03438 307.584 
L 267.313719 307.584 
L 270.593058 307.584 
L 273.872397 307.584 
L 277.151736 307.584 
L 280.431074 307.584 
L 283.710413 307.584 
L 286.989752 307.584 
L 290.269091 307.584 
L 293.54843 307.584 
L 296.827769 307.584 
L 300.107107 307.584 
L 303.386446 307.584 
L 306.665785 307.584 
L 309.945124 307.584 
L 313.224463 307.584 
L 316.503802 307.584 
L 319.78314 307.584 
L 323.062479 307.584 
L 326.341818 307.584 
L 329.621157 307.584 
L 332.900496 307.584 
L 336.179835 307.584 
L 339.459174 307.584 
L 342.738512 307.584 
L 346.017851 307.584 
L 349.29719 307.584 
L 352.576529 307.584 
L 355.855868 307.584 
L 359.135207 307.584 
L 362.414545 307.584 
L 365.693884 307.584 
L 368.973223 307.584 
L 372.252562 307.584 
L 375.531901 307.584 
L 378.81124 307.584 
L 382.090579 307.584 
L 385.369917 307.584 
L 388.649256 307.584 
L 391.928595 307.584 
L 395.207934 307.584 
L 398.487273 307.584 
L 398.487273 307.584 
L 398.487273 307.584 
L 395.207934 307.584 
L 391.928595 307.584 
L 388.649256 307.584 
L 385.369917 307.584 
L 382.090579 307.584 
L 378.81124 307.584 
L 375.531901 307.584 
L 372.252562 307.584 
L 368.973223 307.584 
L 365.693884 307.584 
L 362.414545 307.584 
L 359.135207 307.584 
L 355.855868 307.584 
L 352.576529 307.584 
L 349.29719 307.584 
L 346.017851 307.584 
L 342.738512 307.584 
L 339.459174 307.584 
L 336.179835 307.584 
L 332.900496 307.584 
L 329.621157 307.584 
L 326.341818 307.584 
L 323.062479 307.584 
L 319.78314 307.584 
L 316.503802 307.584 
L 313.224463 307.584 
L 309.945124 307.584 
L 306.665785 307.584 
L 303.386446 307.584 
L 300.107107 307.584 
L 296.827769 307.584 
L 293.54843 307.584 
L 290.269091 307.584 
L 286.989752 307.584 
L 283.710413 307.584 
L 280.431074 307.584 
L 277.151736 307.584 
L 273.872397 307.584 
L 270.593058 307.584 
L 267.313719 307.584 
L 264.03438 307.584 
L 260.755041 307.584 
L 257.475702 307.584 
L 254.196364 307.584 
L 250.917025 307.584 
L 247.637686 307.584 
L 244.358347 307.584 
L 241.079008 307.584 
L 237.799669 307.584 
L 234.520331 307.584 
L 231.240992 307.584 
L 227.961653 307.584 
L 224.682314 307.584 
L 221.402975 307.584 
L 218.123636 307.584 
L 214.844298 307.584 
L 211.564959 307.584 
L 208.28562 307.584 
L 205.006281 307.584 
L 201.726942 307.584 
L 198.447603 307.584 
L 195.168264 307.584 
L 191.888926 307.584 
L 188.609587 307.584 
L 185.330248 307.584 
L 182.050909 307.584 
L 178.77157 307.584 
L 175.492231 307.584 
L 172.212893 307.584 
L 168.933554 307.584 
L 165.654215 307.584 
L 162.374876 307.584 
L 159.095537 307.584 
L 155.816198 307.584 
L 152.53686 307.584 
L 149.257521 307.584 
L 145.978182 307.584 
L 142.698843 307.584 
L 139.419504 288.635215 
L 136.140165 288.635215 
L 132.860826 286.266617 
L 129.581488 288.635215 
L 126.302149 286.266617 
L 123.02281 274.423626 
L 119.743471 279.160822 
L 116.464132 291.003813 
L 113.184793 283.898019 
L 109.905455 286.266617 
L 106.626116 288.635215 
L 103.346777 291.003813 
L 100.067438 281.529421 
L 96.788099 267.317832 
L 93.50876 272.055028 
L 90.229421 212.840075 
L 86.950083 283.898019 
L 83.670744 246.000449 
L 80.391405 272.055028 
L 77.112066 243.63185 
L 73.832727 170.205308 
z
" clip-path="url(#pb509cda880)" style="fill: #1f77b4"/>
   </g>
   <g id="PolyCollection_2">
    <path d="M 73.832727 151.256523 
L 73.832727 170.205308 
L 77.112066 243.63185 
L 80.391405 272.055028 
L 83.670744 246.000449 
L 86.950083 283.898019 
L 90.229421 212.840075 
L 93.50876 272.055028 
L 96.788099 267.317832 
L 100.067438 281.529421 
L 103.346777 291.003813 
L 106.626116 288.635215 
L 109.905455 286.266617 
L 113.184793 283.898019 
L 116.464132 291.003813 
L 119.743471 279.160822 
L 123.02281 274.423626 
L 126.302149 286.266617 
L 129.581488 288.635215 
L 132.860826 286.266617 
L 136.140165 288.635215 
L 139.419504 288.635215 
L 142.698843 307.584 
L 145.978182 307.584 
L 149.257521 307.584 
L 152.53686 307.584 
L 155.816198 307.584 
L 159.095537 307.584 
L 162.374876 307.584 
L 165.654215 307.584 
L 168.933554 307.584 
L 172.212893 307.584 
L 175.492231 307.584 
L 178.77157 307.584 
L 182.050909 307.584 
L 185.330248 307.584 
L 188.609587 307.584 
L 191.888926 307.584 
L 195.168264 307.584 
L 198.447603 307.584 
L 201.726942 307.584 
L 205.006281 307.584 
L 208.28562 307.584 
L 211.564959 307.584 
L 214.844298 307.584 
L 218.123636 307.584 
L 221.402975 307.584 
L 224.682314 307.584 
L 227.961653 307.584 
L 231.240992 307.584 
L 234.520331 307.584 
L 237.799669 307.584 
L 241.079008 307.584 
L 244.358347 307.584 
L 247.637686 307.584 
L 250.917025 307.584 
L 254.196364 307.584 
L 257.475702 307.584 
L 260.755041 307.584 
L 264.03438 307.584 
L 267.313719 307.584 
L 270.593058 307.584 
L 273.872397 307.584 
L 277.151736 307.584 
L 280.431074 307.584 
L 283.710413 307.584 
L 286.989752 307.584 
L 290.269091 307.584 
L 293.54843 307.584 
L 296.827769 307.584 
L 300.107107 307.584 
L 303.386446 307.584 
L 306.665785 307.584 
L 309.945124 307.584 
L 313.224463 307.584 
L 316.503802 307.584 
L 319.78314 307.584 
L 323.062479 307.584 
L 326.341818 307.584 
L 329.621157 307.584 
L 332.900496 307.584 
L 336.179835 307.584 
L 339.459174 307.584 
L 342.738512 307.584 
L 346.017851 307.584 
L 349.29719 307.584 
L 352.576529 307.584 
L 355.855868 307.584 
L 359.135207 307.584 
L 362.414545 307.584 
L 365.693884 307.584 
L 368.973223 307.584 
L 372.252562 307.584 
L 375.531901 307.584 
L 378.81124 307.584 
L 382.090579 307.584 
L 385.369917 307.584 
L 388.649256 307.584 
L 391.928595 307.584 
L 395.207934 307.584 
L 398.487273 307.584 
L 398.487273 307.584 
L 398.487273 307.584 
L 395.207934 307.584 
L 391.928595 307.584 
L 388.649256 307.584 
L 385.369917 307.584 
L 382.090579 307.584 
L 378.81124 307.584 
L 375.531901 307.584 
L 372.252562 307.584 
L 368.973223 307.584 
L 365.693884 307.584 
L 362.414545 307.584 
L 359.135207 307.584 
L 355.855868 307.584 
L 352.576529 307.584 
L 349.29719 307.584 
L 346.017851 307.584 
L 342.738512 307.584 
L 339.459174 307.584 
L 336.179835 307.584 
L 332.900496 307.584 
L 329.621157 307.584 
L 326.341818 307.584 
L 323.062479 307.584 
L 319.78314 307.584 
L 316.503802 307.584 
L 313.224463 307.584 
L 309.945124 307.584 
L 306.665785 307.584 
L 303.386446 307.584 
L 300.107107 307.584 
L 296.827769 307.584 
L 293.54843 307.584 
L 290.269091 307.584 
L 286.989752 307.584 
L 283.710413 307.584 
L 280.431074 307.584 
L 277.151736 307.584 
L 273.872397 307.584 
L 270.593058 307.584 
L 267.313719 307.584 
L 264.03438 307.584 
L 260.755041 307.584 
L 257.475702 307.584 
L 254.196364 307.584 
L 250.917025 307.584 
L 247.637686 307.584 
L 244.358347 307.584 
L 241.079008 307.584 
L 237.799669 307.584 
L 234.520331 307.584 
L 231.240992 307.584 
L 227.961653 307.584 
L 224.682314 307.584 
L 221.402975 307.584 
L 218.123636 307.584 
L 214.844298 307.584 
L 211.564959 307.584 
L 208.28562 307.584 
L 205.006281 307.584 
L 201.726942 307.584 
L 198.447603 307.584 
L 195.168264 307.584 
L 191.888926 276.792224 
L 188.609587 276.792224 
L 185.330248 274.423626 
L 182.050909 288.635215 
L 178.77157 288.635215 
L 175.492231 286.266617 
L 172.212893 283.898019 
L 168.933554 288.635215 
L 165.654215 286.266617 
L 162.374876 276.792224 
L 159.095537 281.529421 
L 155.816198 286.266617 
L 152.53686 293.372411 
L 149.257521 279.160822 
L 145.978182 276.792224 
L 142.698843 286.266617 
L 139.419504 264.949234 
L 136.140165 269.68643 
L 132.860826 272.055028 
L 129.581488 269.68643 
L 126.302149 253.106243 
L 123.02281 246.000449 
L 119.743471 255.474841 
L 116.464132 269.68643 
L 113.184793 262.580636 
L 109.905455 260.212037 
L 106.626116 260.212037 
L 103.346777 262.580636 
L 100.067438 260.212037 
L 96.788099 248.369047 
L 93.50876 250.737645 
L 90.229421 198.628486 
L 86.950083 236.526056 
L 83.670744 231.78886 
L 80.391405 231.78886 
L 77.112066 200.997084 
L 73.832727 151.256523 
z
" clip-path="url(#pb509cda880)" style="fill: #ff7f0e"/>
   </g>
   <g id="PolyCollection_3">
    <path d="M 73.832727 129.93914 
L 73.832727 151.256523 
L 77.112066 200.997084 
L 80.391405 231.78886 
L 83.670744 231.78886 
L 86.950083 236.526056 
L 90.229421 198.628486 
L 93.50876 250.737645 
L 96.788099 248.369047 
L 100.067438 260.212037 
L 103.346777 262.580636 
L 106.626116 260.212037 
L 109.905455 260.212037 
L 113.184793 262.580636 
L 116.464132 269.68643 
L 119.743471 255.474841 
L 123.02281 246.000449 
L 126.302149 253.106243 
L 129.581488 269.68643 
L 132.860826 272.055028 
L 136.140165 269.68643 
L 139.419504 264.949234 
L 142.698843 286.266617 
L 145.978182 276.792224 
L 149.257521 279.160822 
L 152.53686 293.372411 
L 155.816198 286.266617 
L 159.095537 281.529421 
L 162.374876 276.792224 
L 165.654215 286.266617 
L 168.933554 288.635215 
L 172.212893 283.898019 
L 175.492231 286.266617 
L 178.77157 288.635215 
L 182.050909 288.635215 
L 185.330248 274.423626 
L 188.609587 276.792224 
L 191.888926 276.792224 
L 195.168264 307.584 
L 198.447603 307.584 
L 201.726942 307.584 
L 205.006281 307.584 
L 208.28562 307.584 
L 211.564959 307.584 
L 214.844298 307.584 
L 218.123636 307.584 
L 221.402975 307.584 
L 224.682314 307.584 
L 227.961653 307.584 
L 231.240992 307.584 
L 234.520331 307.584 
L 237.799669 307.584 
L 241.079008 307.584 
L 244.358347 307.584 
L 247.637686 307.584 
L 250.917025 307.584 
L 254.196364 307.584 
L 257.475702 307.584 
L 260.755041 307.584 
L 264.03438 307.584 
L 267.313719 307.584 
L 270.593058 307.584 
L 273.872397 307.584 
L 277.151736 307.584 
L 280.431074 307.584 
L 283.710413 307.584 
L 286.989752 307.584 
L 290.269091 307.584 
L 293.54843 307.584 
L 296.827769 307.584 
L 300.107107 307.584 
L 303.386446 307.584 
L 306.665785 307.584 
L 309.945124 307.584 
L 313.224463 307.584 
L 316.503802 307.584 
L 319.78314 307.584 
L 323.062479 307.584 
L 326.341818 307.584 
L 329.621157 307.584 
L 332.900496 307.584 
L 336.179835 307.584 
L 339.459174 307.584 
L 342.738512 307.584 
L 346.017851 307.584 
L 349.29719 307.584 
L 352.576529 307.584 
L 355.855868 307.584 
L 359.135207 307.584 
L 362.414545 307.584 
L 365.693884 307.584 
L 368.973223 307.584 
L 372.252562 307.584 
L 375.531901 307.584 
L 378.81124 307.584 
L 382.090579 307.584 
L 385.369917 307.584 
L 388.649256 307.584 
L 391.928595 307.584 
L 395.207934 307.584 
L 398.487273 307.584 
L 398.487273 307.584 
L 398.487273 307.584 
L 395.207934 307.584 
L 391.928595 307.584 
L 388.649256 307.584 
L 385.369917 307.584 
L 382.090579 307.584 
L 378.81124 307.584 
L 375.531901 307.584 
L 372.252562 307.584 
L 368.973223 307.584 
L 365.693884 307.584 
L 362.414545 307.584 
L 359.135207 307.584 
L 355.855868 307.584 
L 352.576529 307.584 
L 349.29719 307.584 
L 346.017851 307.584 
L 342.738512 307.584 
L 339.459174 307.584 
L 336.179835 307.584 
L 332.900496 307.584 
L 329.621157 307.584 
L 326.341818 307.584 
L 323.062479 307.584 
L 319.78314 307.584 
L 316.503802 307.584 
L 313.224463 307.584 
L 309.945124 307.584 
L 306.665785 307.584 
L 303.386446 307.584 
L 300.107107 307.584 
L 296.827769 307.584 
L 293.54843 307.584 
L 290.269091 307.584 
L 286.989752 307.584 
L 283.710413 307.584 
L 280.431074 307.584 
L 277.151736 307.584 
L 273.872397 307.584 
L 270.593058 307.584 
L 267.313719 307.584 
L 264.03438 307.584 
L 260.755041 307.584 
L 257.475702 307.584 
L 254.196364 307.584 
L 250.917025 307.584 
L 247.637686 307.584 
L 244.358347 307.584 
L 241.079008 307.584 
L 237.799669 307.584 
L 234.520331 307.584 
L 231.240992 307.584 
L 227.961653 307.584 
L 224.682314 307.584 
L 221.402975 307.584 
L 218.123636 307.584 
L 214.844298 307.584 
L 211.564959 307.584 
L 208.28562 307.584 
L 205.006281 307.584 
L 201.726942 307.584 
L 198.447603 307.584 
L 195.168264 307.584 
L 191.888926 276.792224 
L 188.609587 276.792224 
L 185.330248 274.423626 
L 182.050909 288.635215 
L 178.77157 288.635215 
L 175.492231 286.266617 
L 172.212893 283.898019 
L 168.933554 288.635215 
L 165.654215 286.266617 
L 162.374876 276.792224 
L 159.095537 281.529421 
L 155.816198 286.266617 
L 152.53686 293.372411 
L 149.257521 279.160822 
L 145.978182 276.792224 
L 142.698843 262.580636 
L 139.419504 231.78886 
L 136.140165 248.369047 
L 132.860826 246.000449 
L 129.581488 248.369047 
L 126.302149 231.78886 
L 123.02281 227.051664 
L 119.743471 238.894654 
L 116.464132 250.737645 
L 113.184793 241.263252 
L 109.905455 241.263252 
L 106.626116 241.263252 
L 103.346777 241.263252 
L 100.067438 231.78886 
L 96.788099 234.157458 
L 93.50876 224.683065 
L 90.229421 184.416897 
L 86.950083 189.154093 
L 83.670744 198.628486 
L 80.391405 196.259888 
L 77.112066 179.679701 
L 73.832727 129.93914 
z
" clip-path="url(#pb509cda880)" style="fill: #2ca02c"/>
   </g>
   <g id="PolyCollection_4">
    <path d="M 73.832727 108.621757 
L 73.832727 129.93914 
L 77.112066 179.679701 
L 80.391405 196.259888 
L 83.670744 198.628486 
L 86.950083 189.154093 
L 90.229421 184.416897 
L 93.50876 224.683065 
L 96.788099 234.157458 
L 100.067438 231.78886 
L 103.346777 241.263252 
L 106.626116 241.263252 
L 109.905455 241.263252 
L 113.184793 241.263252 
L 116.464132 250.737645 
L 119.743471 238.894654 
L 123.02281 227.051664 
L 126.302149 231.78886 
L 129.581488 248.369047 
L 132.860826 246.000449 
L 136.140165 248.369047 
L 139.419504 231.78886 
L 142.698843 262.580636 
L 145.978182 276.792224 
L 149.257521 279.160822 
L 152.53686 293.372411 
L 155.816198 286.266617 
L 159.095537 281.529421 
L 162.374876 276.792224 
L 165.654215 286.266617 
L 168.933554 288.635215 
L 172.212893 283.898019 
L 175.492231 286.266617 
L 178.77157 288.635215 
L 182.050909 288.635215 
L 185.330248 274.423626 
L 188.609587 276.792224 
L 191.888926 276.792224 
L 195.168264 307.584 
L 198.447603 307.584 
L 201.726942 307.584 
L 205.006281 307.584 
L 208.28562 307.584 
L 211.564959 307.584 
L 214.844298 307.584 
L 218.123636 307.584 
L 221.402975 307.584 
L 224.682314 307.584 
L 227.961653 307.584 
L 231.240992 307.584 
L 234.520331 307.584 
L 237.799669 307.584 
L 241.079008 307.584 
L 244.358347 307.584 
L 247.637686 307.584 
L 250.917025 307.584 
L 254.196364 307.584 
L 257.475702 307.584 
L 260.755041 307.584 
L 264.03438 307.584 
L 267.313719 307.584 
L 270.593058 307.584 
L 273.872397 307.584 
L 277.151736 307.584 
L 280.431074 307.584 
L 283.710413 307.584 
L 286.989752 307.584 
L 290.269091 307.584 
L 293.54843 307.584 
L 296.827769 307.584 
L 300.107107 307.584 
L 303.386446 307.584 
L 306.665785 307.584 
L 309.945124 307.584 
L 313.224463 307.584 
L 316.503802 307.584 
L 319.78314 307.584 
L 323.062479 307.584 
L 326.341818 307.584 
L 329.621157 307.584 
L 332.900496 307.584 
L 336.179835 307.584 
L 339.459174 307.584 
L 342.738512 307.584 
L 346.017851 307.584 
L 349.29719 307.584 
L 352.576529 307.584 
L 355.855868 307.584 
L 359.135207 307.584 
L 362.414545 307.584 
L 365.693884 307.584 
L 368.973223 307.584 
L 372.252562 307.584 
L 375.531901 307.584 
L 378.81124 307.584 
L 382.090579 307.584 
L 385.369917 307.584 
L 388.649256 307.584 
L 391.928595 307.584 
L 395.207934 307.584 
L 398.487273 307.584 
L 398.487273 307.584 
L 398.487273 307.584 
L 395.207934 307.584 
L 391.928595 307.584 
L 388.649256 307.584 
L 385.369917 307.584 
L 382.090579 307.584 
L 378.81124 307.584 
L 375.531901 307.584 
L 372.252562 307.584 
L 368.973223 307.584 
L 365.693884 307.584 
L 362.414545 307.584 
L 359.135207 307.584 
L 355.855868 307.584 
L 352.576529 307.584 
L 349.29719 307.584 
L 346.017851 307.584 
L 342.738512 307.584 
L 339.459174 307.584 
L 336.179835 307.584 
L 332.900496 307.584 
L 329.621157 307.584 
L 326.341818 307.584 
L 323.062479 307.584 
L 319.78314 307.584 
L 316.503802 307.584 
L 313.224463 307.584 
L 309.945124 307.584 
L 306.665785 307.584 
L 303.386446 307.584 
L 300.107107 307.584 
L 296.827769 307.584 
L 293.54843 307.584 
L 290.269091 307.584 
L 286.989752 307.584 
L 283.710413 307.584 
L 280.431074 307.584 
L 277.151736 307.584 
L 273.872397 307.584 
L 270.593058 307.584 
L 267.313719 307.584 
L 264.03438 307.584 
L 260.755041 307.584 
L 257.475702 307.584 
L 254.196364 307.584 
L 250.917025 307.584 
L 247.637686 307.584 
L 244.358347 307.584 
L 241.079008 307.584 
L 237.799669 307.584 
L 234.520331 307.584 
L 231.240992 307.584 
L 227.961653 307.584 
L 224.682314 307.584 
L 221.402975 307.584 
L 218.123636 307.584 
L 214.844298 307.584 
L 211.564959 307.584 
L 208.28562 307.584 
L 205.006281 307.584 
L 201.726942 307.584 
L 198.447603 307.584 
L 195.168264 307.584 
L 191.888926 276.792224 
L 188.609587 276.792224 
L 185.330248 274.423626 
L 182.050909 288.635215 
L 178.77157 288.635215 
L 175.492231 260.212037 
L 172.212893 248.369047 
L 168.933554 283.898019 
L 165.654215 267.317832 
L 162.374876 269.68643 
L 159.095537 253.106243 
L 155.816198 274.423626 
L 152.53686 276.792224 
L 149.257521 250.737645 
L 145.978182 253.106243 
L 142.698843 241.263252 
L 139.419504 210.471477 
L 136.140165 238.894654 
L 132.860826 212.840075 
L 129.581488 231.78886 
L 126.302149 203.365682 
L 123.02281 196.259888 
L 119.743471 219.945869 
L 116.464132 238.894654 
L 113.184793 212.840075 
L 109.905455 212.840075 
L 106.626116 219.945869 
L 103.346777 212.840075 
L 100.067438 205.73428 
L 96.788099 212.840075 
L 93.50876 193.89129 
L 90.229421 163.099514 
L 86.950083 153.625121 
L 83.670744 172.573907 
L 80.391405 172.573907 
L 77.112066 160.730916 
L 73.832727 108.621757 
z
" clip-path="url(#pb509cda880)" style="fill: #d62728"/>
   </g>
   <g id="PolyCollection_5">
    <path d="M 73.832727 99.147364 
L 73.832727 108.621757 
L 77.112066 160.730916 
L 80.391405 172.573907 
L 83.670744 172.573907 
L 86.950083 153.625121 
L 90.229421 163.099514 
L 93.50876 193.89129 
L 96.788099 212.840075 
L 100.067438 205.73428 
L 103.346777 212.840075 
L 106.626116 219.945869 
L 109.905455 212.840075 
L 113.184793 212.840075 
L 116.464132 238.894654 
L 119.743471 219.945869 
L 123.02281 196.259888 
L 126.302149 203.365682 
L 129.581488 231.78886 
L 132.860826 212.840075 
L 136.140165 238.894654 
L 139.419504 210.471477 
L 142.698843 241.263252 
L 145.978182 253.106243 
L 149.257521 250.737645 
L 152.53686 276.792224 
L 155.816198 274.423626 
L 159.095537 253.106243 
L 162.374876 269.68643 
L 165.654215 267.317832 
L 168.933554 283.898019 
L 172.212893 248.369047 
L 175.492231 260.212037 
L 178.77157 288.635215 
L 182.050909 288.635215 
L 185.330248 274.423626 
L 188.609587 276.792224 
L 191.888926 276.792224 
L 195.168264 307.584 
L 198.447603 307.584 
L 201.726942 307.584 
L 205.006281 307.584 
L 208.28562 307.584 
L 211.564959 307.584 
L 214.844298 307.584 
L 218.123636 307.584 
L 221.402975 307.584 
L 224.682314 307.584 
L 227.961653 307.584 
L 231.240992 307.584 
L 234.520331 307.584 
L 237.799669 307.584 
L 241.079008 307.584 
L 244.358347 307.584 
L 247.637686 307.584 
L 250.917025 307.584 
L 254.196364 307.584 
L 257.475702 307.584 
L 260.755041 307.584 
L 264.03438 307.584 
L 267.313719 307.584 
L 270.593058 307.584 
L 273.872397 307.584 
L 277.151736 307.584 
L 280.431074 307.584 
L 283.710413 307.584 
L 286.989752 307.584 
L 290.269091 307.584 
L 293.54843 307.584 
L 296.827769 307.584 
L 300.107107 307.584 
L 303.386446 307.584 
L 306.665785 307.584 
L 309.945124 307.584 
L 313.224463 307.584 
L 316.503802 307.584 
L 319.78314 307.584 
L 323.062479 307.584 
L 326.341818 307.584 
L 329.621157 307.584 
L 332.900496 307.584 
L 336.179835 307.584 
L 339.459174 307.584 
L 342.738512 307.584 
L 346.017851 307.584 
L 349.29719 307.584 
L 352.576529 307.584 
L 355.855868 307.584 
L 359.135207 307.584 
L 362.414545 307.584 
L 365.693884 307.584 
L 368.973223 307.584 
L 372.252562 307.584 
L 375.531901 307.584 
L 378.81124 307.584 
L 382.090579 307.584 
L 385.369917 307.584 
L 388.649256 307.584 
L 391.928595 307.584 
L 395.207934 307.584 
L 398.487273 307.584 
L 398.487273 307.584 
L 398.487273 307.584 
L 395.207934 307.584 
L 391.928595 307.584 
L 388.649256 307.584 
L 385.369917 307.584 
L 382.090579 307.584 
L 378.81124 307.584 
L 375.531901 307.584 
L 372.252562 307.584 
L 368.973223 307.584 
L 365.693884 307.584 
L 362.414545 307.584 
L 359.135207 307.584 
L 355.855868 307.584 
L 352.576529 307.584 
L 349.29719 307.584 
L 346.017851 307.584 
L 342.738512 307.584 
L 339.459174 307.584 
L 336.179835 307.584 
L 332.900496 307.584 
L 329.621157 307.584 
L 326.341818 307.584 
L 323.062479 307.584 
L 319.78314 307.584 
L 316.503802 307.584 
L 313.224463 307.584 
L 309.945124 307.584 
L 306.665785 307.584 
L 303.386446 307.584 
L 300.107107 307.584 
L 296.827769 307.584 
L 293.54843 307.584 
L 290.269091 307.584 
L 286.989752 307.584 
L 283.710413 307.584 
L 280.431074 307.584 
L 277.151736 307.584 
L 273.872397 307.584 
L 270.593058 307.584 
L 267.313719 307.584 
L 264.03438 307.584 
L 260.755041 307.584 
L 257.475702 307.584 
L 254.196364 307.584 
L 250.917025 307.584 
L 247.637686 307.584 
L 244.358347 307.584 
L 241.079008 307.584 
L 237.799669 307.584 
L 234.520331 307.584 
L 231.240992 307.584 
L 227.961653 307.584 
L 224.682314 307.584 
L 221.402975 307.584 
L 218.123636 307.584 
L 214.844298 307.584 
L 211.564959 307.584 
L 208.28562 307.584 
L 205.006281 307.584 
L 201.726942 307.584 
L 198.447603 307.584 
L 195.168264 307.584 
L 191.888926 276.792224 
L 188.609587 276.792224 
L 185.330248 274.423626 
L 182.050909 288.635215 
L 178.77157 288.635215 
L 175.492231 260.212037 
L 172.212893 248.369047 
L 168.933554 283.898019 
L 165.654215 267.317832 
L 162.374876 269.68643 
L 159.095537 253.106243 
L 155.816198 274.423626 
L 152.53686 276.792224 
L 149.257521 250.737645 
L 145.978182 253.106243 
L 142.698843 241.263252 
L 139.419504 193.89129 
L 136.140165 219.945869 
L 132.860826 200.997084 
L 129.581488 210.471477 
L 126.302149 186.785495 
L 123.02281 179.679701 
L 119.743471 200.997084 
L 116.464132 224.683065 
L 113.184793 200.997084 
L 109.905455 196.259888 
L 106.626116 198.628486 
L 103.346777 193.89129 
L 100.067438 191.522692 
L 96.788099 193.89129 
L 93.50876 172.573907 
L 90.229421 144.150729 
L 86.950083 134.676336 
L 83.670744 148.887925 
L 80.391405 148.887925 
L 77.112066 141.782131 
L 73.832727 99.147364 
z
" clip-path="url(#pb509cda880)" style="fill: #9467bd"/>
   </g>
   <g id="PolyCollection_6">
    <path d="M 73.832727 87.304374 
L 73.832727 99.147364 
L 77.112066 141.782131 
L 80.391405 148.887925 
L 83.670744 148.887925 
L 86.950083 134.676336 
L 90.229421 144.150729 
L 93.50876 172.573907 
L 96.788099 193.89129 
L 100.067438 191.522692 
L 103.346777 193.89129 
L 106.626116 198.628486 
L 109.905455 196.259888 
L 113.184793 200.997084 
L 116.464132 224.683065 
L 119.743471 200.997084 
L 123.02281 179.679701 
L 126.302149 186.785495 
L 129.581488 210.471477 
L 132.860826 200.997084 
L 136.140165 219.945869 
L 139.419504 193.89129 
L 142.698843 241.263252 
L 145.978182 253.106243 
L 149.257521 250.737645 
L 152.53686 276.792224 
L 155.816198 274.423626 
L 159.095537 253.106243 
L 162.374876 269.68643 
L 165.654215 267.317832 
L 168.933554 283.898019 
L 172.212893 248.369047 
L 175.492231 260.212037 
L 178.77157 288.635215 
L 182.050909 288.635215 
L 185.330248 274.423626 
L 188.609587 276.792224 
L 191.888926 276.792224 
L 195.168264 307.584 
L 198.447603 307.584 
L 201.726942 307.584 
L 205.006281 307.584 
L 208.28562 307.584 
L 211.564959 307.584 
L 214.844298 307.584 
L 218.123636 307.584 
L 221.402975 307.584 
L 224.682314 307.584 
L 227.961653 307.584 
L 231.240992 307.584 
L 234.520331 307.584 
L 237.799669 307.584 
L 241.079008 307.584 
L 244.358347 307.584 
L 247.637686 307.584 
L 250.917025 307.584 
L 254.196364 307.584 
L 257.475702 307.584 
L 260.755041 307.584 
L 264.03438 307.584 
L 267.313719 307.584 
L 270.593058 307.584 
L 273.872397 307.584 
L 277.151736 307.584 
L 280.431074 307.584 
L 283.710413 307.584 
L 286.989752 307.584 
L 290.269091 307.584 
L 293.54843 307.584 
L 296.827769 307.584 
L 300.107107 307.584 
L 303.386446 307.584 
L 306.665785 307.584 
L 309.945124 307.584 
L 313.224463 307.584 
L 316.503802 307.584 
L 319.78314 307.584 
L 323.062479 307.584 
L 326.341818 307.584 
L 329.621157 307.584 
L 332.900496 307.584 
L 336.179835 307.584 
L 339.459174 307.584 
L 342.738512 307.584 
L 346.017851 307.584 
L 349.29719 307.584 
L 352.576529 307.584 
L 355.855868 307.584 
L 359.135207 307.584 
L 362.414545 307.584 
L 365.693884 307.584 
L 368.973223 307.584 
L 372.252562 307.584 
L 375.531901 307.584 
L 378.81124 307.584 
L 382.090579 307.584 
L 385.369917 307.584 
L 388.649256 307.584 
L 391.928595 307.584 
L 395.207934 307.584 
L 398.487273 307.584 
L 398.487273 193.89129 
L 398.487273 193.89129 
L 395.207934 182.048299 
L 391.928595 198.628486 
L 388.649256 227.051664 
L 385.369917 212.840075 
L 382.090579 137.044935 
L 378.81124 248.369047 
L 375.531901 205.73428 
L 372.252562 231.78886 
L 368.973223 129.93914 
L 365.693884 227.051664 
L 362.414545 238.894654 
L 359.135207 210.471477 
L 355.855868 267.317832 
L 352.576529 246.000449 
L 349.29719 246.000449 
L 346.017851 217.577271 
L 342.738512 212.840075 
L 339.459174 231.78886 
L 336.179835 210.471477 
L 332.900496 217.577271 
L 329.621157 264.949234 
L 326.341818 224.683065 
L 323.062479 246.000449 
L 319.78314 229.420262 
L 316.503802 238.894654 
L 313.224463 236.526056 
L 309.945124 231.78886 
L 306.665785 229.420262 
L 303.386446 227.051664 
L 300.107107 215.208673 
L 296.827769 229.420262 
L 293.54843 241.263252 
L 290.269091 248.369047 
L 286.989752 276.792224 
L 283.710413 260.212037 
L 280.431074 274.423626 
L 277.151736 253.106243 
L 273.872397 234.157458 
L 270.593058 250.737645 
L 267.313719 255.474841 
L 264.03438 253.106243 
L 260.755041 250.737645 
L 257.475702 262.580636 
L 254.196364 250.737645 
L 250.917025 246.000449 
L 247.637686 264.949234 
L 244.358347 267.317832 
L 241.079008 238.894654 
L 237.799669 260.212037 
L 234.520331 283.898019 
L 231.240992 248.369047 
L 227.961653 267.317832 
L 224.682314 269.68643 
L 221.402975 286.266617 
L 218.123636 279.160822 
L 214.844298 286.266617 
L 211.564959 281.529421 
L 208.28562 269.68643 
L 205.006281 250.737645 
L 201.726942 283.898019 
L 198.447603 260.212037 
L 195.168264 264.949234 
L 191.888926 234.157458 
L 188.609587 250.737645 
L 185.330248 224.683065 
L 182.050909 241.263252 
L 178.77157 248.369047 
L 175.492231 234.157458 
L 172.212893 222.314467 
L 168.933554 148.887925 
L 165.654215 255.474841 
L 162.374876 179.679701 
L 159.095537 203.365682 
L 155.816198 243.63185 
L 152.53686 243.63185 
L 149.257521 215.208673 
L 145.978182 208.102879 
L 142.698843 208.102879 
L 139.419504 177.311103 
L 136.140165 155.99372 
L 132.860826 182.048299 
L 129.581488 189.154093 
L 126.302149 160.730916 
L 123.02281 167.83671 
L 119.743471 160.730916 
L 116.464132 182.048299 
L 113.184793 172.573907 
L 109.905455 167.83671 
L 106.626116 165.468112 
L 103.346777 160.730916 
L 100.067438 163.099514 
L 96.788099 165.468112 
L 93.50876 141.782131 
L 90.229421 122.833346 
L 86.950083 115.727551 
L 83.670744 127.570542 
L 80.391405 118.09615 
L 77.112066 113.358953 
L 73.832727 87.304374 
z
" clip-path="url(#pb509cda880)" style="fill: #8c564b"/>
   </g>
   <g id="PolyCollection_7">
    <path d="M 73.832727 82.567178 
L 73.832727 87.304374 
L 77.112066 113.358953 
L 80.391405 118.09615 
L 83.670744 127.570542 
L 86.950083 115.727551 
L 90.229421 122.833346 
L 93.50876 141.782131 
L 96.788099 165.468112 
L 100.067438 163.099514 
L 103.346777 160.730916 
L 106.626116 165.468112 
L 109.905455 167.83671 
L 113.184793 172.573907 
L 116.464132 182.048299 
L 119.743471 160.730916 
L 123.02281 167.83671 
L 126.302149 160.730916 
L 129.581488 189.154093 
L 132.860826 182.048299 
L 136.140165 155.99372 
L 139.419504 177.311103 
L 142.698843 208.102879 
L 145.978182 208.102879 
L 149.257521 215.208673 
L 152.53686 243.63185 
L 155.816198 243.63185 
L 159.095537 203.365682 
L 162.374876 179.679701 
L 165.654215 255.474841 
L 168.933554 148.887925 
L 172.212893 222.314467 
L 175.492231 234.157458 
L 178.77157 248.369047 
L 182.050909 241.263252 
L 185.330248 224.683065 
L 188.609587 250.737645 
L 191.888926 234.157458 
L 195.168264 264.949234 
L 198.447603 260.212037 
L 201.726942 283.898019 
L 205.006281 250.737645 
L 208.28562 269.68643 
L 211.564959 281.529421 
L 214.844298 286.266617 
L 218.123636 279.160822 
L 221.402975 286.266617 
L 224.682314 269.68643 
L 227.961653 267.317832 
L 231.240992 248.369047 
L 234.520331 283.898019 
L 237.799669 260.212037 
L 241.079008 238.894654 
L 244.358347 267.317832 
L 247.637686 264.949234 
L 250.917025 246.000449 
L 254.196364 250.737645 
L 257.475702 262.580636 
L 260.755041 250.737645 
L 264.03438 253.106243 
L 267.313719 255.474841 
L 270.593058 250.737645 
L 273.872397 234.157458 
L 277.151736 253.106243 
L 280.431074 274.423626 
L 283.710413 260.212037 
L 286.989752 276.792224 
L 290.269091 248.369047 
L 293.54843 241.263252 
L 296.827769 229.420262 
L 300.107107 215.208673 
L 303.386446 227.051664 
L 306.665785 229.420262 
L 309.945124 231.78886 
L 313.224463 236.526056 
L 316.503802 238.894654 
L 319.78314 229.420262 
L 323.062479 246.000449 
L 326.341818 224.683065 
L 329.621157 264.949234 
L 332.900496 217.577271 
L 336.179835 210.471477 
L 339.459174 231.78886 
L 342.738512 212.840075 
L 346.017851 217.577271 
L 349.29719 246.000449 
L 352.576529 246.000449 
L 355.855868 267.317832 
L 359.135207 210.471477 
L 362.414545 238.894654 
L 365.693884 227.051664 
L 368.973223 129.93914 
L 372.252562 231.78886 
L 375.531901 205.73428 
L 378.81124 248.369047 
L 382.090579 137.044935 
L 385.369917 212.840075 
L 388.649256 227.051664 
L 391.928595 198.628486 
L 395.207934 182.048299 
L 398.487273 193.89129 
L 398.487273 193.89129 
L 398.487273 193.89129 
L 395.207934 182.048299 
L 391.928595 198.628486 
L 388.649256 227.051664 
L 385.369917 212.840075 
L 382.090579 137.044935 
L 378.81124 248.369047 
L 375.531901 205.73428 
L 372.252562 231.78886 
L 368.973223 129.93914 
L 365.693884 227.051664 
L 362.414545 238.894654 
L 359.135207 210.471477 
L 355.855868 267.317832 
L 352.576529 246.000449 
L 349.29719 246.000449 
L 346.017851 217.577271 
L 342.738512 212.840075 
L 339.459174 231.78886 
L 336.179835 210.471477 
L 332.900496 217.577271 
L 329.621157 264.949234 
L 326.341818 224.683065 
L 323.062479 246.000449 
L 319.78314 229.420262 
L 316.503802 238.894654 
L 313.224463 236.526056 
L 309.945124 231.78886 
L 306.665785 229.420262 
L 303.386446 227.051664 
L 300.107107 215.208673 
L 296.827769 229.420262 
L 293.54843 241.263252 
L 290.269091 248.369047 
L 286.989752 276.792224 
L 283.710413 260.212037 
L 280.431074 274.423626 
L 277.151736 253.106243 
L 273.872397 234.157458 
L 270.593058 250.737645 
L 267.313719 255.474841 
L 264.03438 253.106243 
L 260.755041 250.737645 
L 257.475702 262.580636 
L 254.196364 250.737645 
L 250.917025 246.000449 
L 247.637686 264.949234 
L 244.358347 267.317832 
L 241.079008 238.894654 
L 237.799669 260.212037 
L 234.520331 283.898019 
L 231.240992 248.369047 
L 227.961653 267.317832 
L 224.682314 269.68643 
L 221.402975 286.266617 
L 218.123636 279.160822 
L 214.844298 286.266617 
L 211.564959 281.529421 
L 208.28562 269.68643 
L 205.006281 250.737645 
L 201.726942 283.898019 
L 198.447603 260.212037 
L 195.168264 264.949234 
L 191.888926 234.157458 
L 188.609587 250.737645 
L 185.330248 224.683065 
L 182.050909 241.263252 
L 178.77157 248.369047 
L 175.492231 234.157458 
L 172.212893 222.314467 
L 168.933554 148.887925 
L 165.654215 255.474841 
L 162.374876 179.679701 
L 159.095537 203.365682 
L 155.816198 243.63185 
L 152.53686 243.63185 
L 149.257521 182.048299 
L 145.978182 182.048299 
L 142.698843 179.679701 
L 139.419504 158.362318 
L 136.140165 134.676336 
L 132.860826 155.99372 
L 129.581488 158.362318 
L 126.302149 139.413533 
L 123.02281 139.413533 
L 119.743471 132.307738 
L 116.464132 155.99372 
L 113.184793 146.519327 
L 109.905455 144.150729 
L 106.626116 132.307738 
L 103.346777 122.833346 
L 100.067438 129.93914 
L 96.788099 132.307738 
L 93.50876 108.621757 
L 90.229421 92.04157 
L 86.950083 101.515963 
L 83.670744 89.672972 
L 80.391405 92.04157 
L 77.112066 94.410168 
L 73.832727 82.567178 
z
" clip-path="url(#pb509cda880)" style="fill: #e377c2"/>
   </g>
   <g id="PolyCollection_8">
    <path d="M 73.832727 70.724187 
L 73.832727 82.567178 
L 77.112066 94.410168 
L 80.391405 92.04157 
L 83.670744 89.672972 
L 86.950083 101.515963 
L 90.229421 92.04157 
L 93.50876 108.621757 
L 96.788099 132.307738 
L 100.067438 129.93914 
L 103.346777 122.833346 
L 106.626116 132.307738 
L 109.905455 144.150729 
L 113.184793 146.519327 
L 116.464132 155.99372 
L 119.743471 132.307738 
L 123.02281 139.413533 
L 126.302149 139.413533 
L 129.581488 158.362318 
L 132.860826 155.99372 
L 136.140165 134.676336 
L 139.419504 158.362318 
L 142.698843 179.679701 
L 145.978182 182.048299 
L 149.257521 182.048299 
L 152.53686 243.63185 
L 155.816198 243.63185 
L 159.095537 203.365682 
L 162.374876 179.679701 
L 165.654215 255.474841 
L 168.933554 148.887925 
L 172.212893 222.314467 
L 175.492231 234.157458 
L 178.77157 248.369047 
L 182.050909 241.263252 
L 185.330248 224.683065 
L 188.609587 250.737645 
L 191.888926 234.157458 
L 195.168264 264.949234 
L 198.447603 260.212037 
L 201.726942 283.898019 
L 205.006281 250.737645 
L 208.28562 269.68643 
L 211.564959 281.529421 
L 214.844298 286.266617 
L 218.123636 279.160822 
L 221.402975 286.266617 
L 224.682314 269.68643 
L 227.961653 267.317832 
L 231.240992 248.369047 
L 234.520331 283.898019 
L 237.799669 260.212037 
L 241.079008 238.894654 
L 244.358347 267.317832 
L 247.637686 264.949234 
L 250.917025 246.000449 
L 254.196364 250.737645 
L 257.475702 262.580636 
L 260.755041 250.737645 
L 264.03438 253.106243 
L 267.313719 255.474841 
L 270.593058 250.737645 
L 273.872397 234.157458 
L 277.151736 253.106243 
L 280.431074 274.423626 
L 283.710413 260.212037 
L 286.989752 276.792224 
L 290.269091 248.369047 
L 293.54843 241.263252 
L 296.827769 229.420262 
L 300.107107 215.208673 
L 303.386446 227.051664 
L 306.665785 229.420262 
L 309.945124 231.78886 
L 313.224463 236.526056 
L 316.503802 238.894654 
L 319.78314 229.420262 
L 323.062479 246.000449 
L 326.341818 224.683065 
L 329.621157 264.949234 
L 332.900496 217.577271 
L 336.179835 210.471477 
L 339.459174 231.78886 
L 342.738512 212.840075 
L 346.017851 217.577271 
L 349.29719 246.000449 
L 352.576529 246.000449 
L 355.855868 267.317832 
L 359.135207 210.471477 
L 362.414545 238.894654 
L 365.693884 227.051664 
L 368.973223 129.93914 
L 372.252562 231.78886 
L 375.531901 205.73428 
L 378.81124 248.369047 
L 382.090579 137.044935 
L 385.369917 212.840075 
L 388.649256 227.051664 
L 391.928595 198.628486 
L 395.207934 182.048299 
L 398.487273 193.89129 
L 398.487273 193.89129 
L 398.487273 193.89129 
L 395.207934 182.048299 
L 391.928595 198.628486 
L 388.649256 227.051664 
L 385.369917 212.840075 
L 382.090579 137.044935 
L 378.81124 248.369047 
L 375.531901 205.73428 
L 372.252562 231.78886 
L 368.973223 129.93914 
L 365.693884 227.051664 
L 362.414545 238.894654 
L 359.135207 210.471477 
L 355.855868 267.317832 
L 352.576529 246.000449 
L 349.29719 246.000449 
L 346.017851 217.577271 
L 342.738512 212.840075 
L 339.459174 231.78886 
L 336.179835 210.471477 
L 332.900496 217.577271 
L 329.621157 264.949234 
L 326.341818 224.683065 
L 323.062479 246.000449 
L 319.78314 229.420262 
L 316.503802 238.894654 
L 313.224463 236.526056 
L 309.945124 231.78886 
L 306.665785 229.420262 
L 303.386446 227.051664 
L 300.107107 215.208673 
L 296.827769 229.420262 
L 293.54843 241.263252 
L 290.269091 248.369047 
L 286.989752 276.792224 
L 283.710413 217.577271 
L 280.431074 215.208673 
L 277.151736 196.259888 
L 273.872397 210.471477 
L 270.593058 236.526056 
L 267.313719 241.263252 
L 264.03438 241.263252 
L 260.755041 205.73428 
L 257.475702 234.157458 
L 254.196364 231.78886 
L 250.917025 198.628486 
L 247.637686 231.78886 
L 244.358347 200.997084 
L 241.079008 193.89129 
L 237.799669 234.157458 
L 234.520331 260.212037 
L 231.240992 191.522692 
L 227.961653 241.263252 
L 224.682314 212.840075 
L 221.402975 241.263252 
L 218.123636 200.997084 
L 214.844298 250.737645 
L 211.564959 227.051664 
L 208.28562 229.420262 
L 205.006281 222.314467 
L 201.726942 189.154093 
L 198.447603 217.577271 
L 195.168264 231.78886 
L 191.888926 170.205308 
L 188.609587 193.89129 
L 185.330248 177.311103 
L 182.050909 189.154093 
L 178.77157 177.311103 
L 175.492231 215.208673 
L 172.212893 182.048299 
L 168.933554 144.150729 
L 165.654215 200.997084 
L 162.374876 160.730916 
L 159.095537 170.205308 
L 155.816198 205.73428 
L 152.53686 227.051664 
L 149.257521 165.468112 
L 145.978182 163.099514 
L 142.698843 165.468112 
L 139.419504 137.044935 
L 136.140165 118.09615 
L 132.860826 129.93914 
L 129.581488 137.044935 
L 126.302149 122.833346 
L 123.02281 120.464748 
L 119.743471 115.727551 
L 116.464132 141.782131 
L 113.184793 132.307738 
L 109.905455 127.570542 
L 106.626116 110.990355 
L 103.346777 103.884561 
L 100.067438 108.621757 
L 96.788099 110.990355 
L 93.50876 92.04157 
L 90.229421 82.567178 
L 86.950083 77.829981 
L 83.670744 65.986991 
L 80.391405 65.986991 
L 77.112066 68.355589 
L 73.832727 70.724187 
z
" clip-path="url(#pb509cda880)" style="fill: #7f7f7f"/>
   </g>
   <g id="PolyCollection_9">
    <path d="M 73.832727 70.724187 
L 73.832727 70.724187 
L 77.112066 68.355589 
L 80.391405 65.986991 
L 83.670744 65.986991 
L 86.950083 77.829981 
L 90.229421 82.567178 
L 93.50876 92.04157 
L 96.788099 110.990355 
L 100.067438 108.621757 
L 103.346777 103.884561 
L 106.626116 110.990355 
L 109.905455 127.570542 
L 113.184793 132.307738 
L 116.464132 141.782131 
L 119.743471 115.727551 
L 123.02281 120.464748 
L 126.302149 122.833346 
L 129.581488 137.044935 
L 132.860826 129.93914 
L 136.140165 118.09615 
L 139.419504 137.044935 
L 142.698843 165.468112 
L 145.978182 163.099514 
L 149.257521 165.468112 
L 152.53686 227.051664 
L 155.816198 205.73428 
L 159.095537 170.205308 
L 162.374876 160.730916 
L 165.654215 200.997084 
L 168.933554 144.150729 
L 172.212893 182.048299 
L 175.492231 215.208673 
L 178.77157 177.311103 
L 182.050909 189.154093 
L 185.330248 177.311103 
L 188.609587 193.89129 
L 191.888926 170.205308 
L 195.168264 231.78886 
L 198.447603 217.577271 
L 201.726942 189.154093 
L 205.006281 222.314467 
L 208.28562 229.420262 
L 211.564959 227.051664 
L 214.844298 250.737645 
L 218.123636 200.997084 
L 221.402975 241.263252 
L 224.682314 212.840075 
L 227.961653 241.263252 
L 231.240992 191.522692 
L 234.520331 260.212037 
L 237.799669 234.157458 
L 241.079008 193.89129 
L 244.358347 200.997084 
L 247.637686 231.78886 
L 250.917025 198.628486 
L 254.196364 231.78886 
L 257.475702 234.157458 
L 260.755041 205.73428 
L 264.03438 241.263252 
L 267.313719 241.263252 
L 270.593058 236.526056 
L 273.872397 210.471477 
L 277.151736 196.259888 
L 280.431074 215.208673 
L 283.710413 217.577271 
L 286.989752 276.792224 
L 290.269091 248.369047 
L 293.54843 241.263252 
L 296.827769 229.420262 
L 300.107107 215.208673 
L 303.386446 227.051664 
L 306.665785 229.420262 
L 309.945124 231.78886 
L 313.224463 236.526056 
L 316.503802 238.894654 
L 319.78314 229.420262 
L 323.062479 246.000449 
L 326.341818 224.683065 
L 329.621157 264.949234 
L 332.900496 217.577271 
L 336.179835 210.471477 
L 339.459174 231.78886 
L 342.738512 212.840075 
L 346.017851 217.577271 
L 349.29719 246.000449 
L 352.576529 246.000449 
L 355.855868 267.317832 
L 359.135207 210.471477 
L 362.414545 238.894654 
L 365.693884 227.051664 
L 368.973223 129.93914 
L 372.252562 231.78886 
L 375.531901 205.73428 
L 378.81124 248.369047 
L 382.090579 137.044935 
L 385.369917 212.840075 
L 388.649256 227.051664 
L 391.928595 198.628486 
L 395.207934 182.048299 
L 398.487273 193.89129 
L 398.487273 193.89129 
L 398.487273 193.89129 
L 395.207934 182.048299 
L 391.928595 198.628486 
L 388.649256 227.051664 
L 385.369917 212.840075 
L 382.090579 137.044935 
L 378.81124 248.369047 
L 375.531901 205.73428 
L 372.252562 231.78886 
L 368.973223 129.93914 
L 365.693884 227.051664 
L 362.414545 238.894654 
L 359.135207 210.471477 
L 355.855868 267.317832 
L 352.576529 246.000449 
L 349.29719 246.000449 
L 346.017851 217.577271 
L 342.738512 212.840075 
L 339.459174 231.78886 
L 336.179835 210.471477 
L 332.900496 217.577271 
L 329.621157 264.949234 
L 326.341818 224.683065 
L 323.062479 246.000449 
L 319.78314 229.420262 
L 316.503802 238.894654 
L 313.224463 236.526056 
L 309.945124 231.78886 
L 306.665785 229.420262 
L 303.386446 227.051664 
L 300.107107 215.208673 
L 296.827769 229.420262 
L 293.54843 241.263252 
L 290.269091 248.369047 
L 286.989752 276.792224 
L 283.710413 217.577271 
L 280.431074 215.208673 
L 277.151736 196.259888 
L 273.872397 163.099514 
L 270.593058 203.365682 
L 267.313719 198.628486 
L 264.03438 200.997084 
L 260.755041 158.362318 
L 257.475702 182.048299 
L 254.196364 189.154093 
L 250.917025 160.730916 
L 247.637686 189.154093 
L 244.358347 158.362318 
L 241.079008 146.519327 
L 237.799669 189.154093 
L 234.520331 203.365682 
L 231.240992 141.782131 
L 227.961653 200.997084 
L 224.682314 172.573907 
L 221.402975 208.102879 
L 218.123636 165.468112 
L 214.844298 212.840075 
L 211.564959 170.205308 
L 208.28562 198.628486 
L 205.006281 186.785495 
L 201.726942 155.99372 
L 198.447603 179.679701 
L 195.168264 189.154093 
L 191.888926 146.519327 
L 188.609587 163.099514 
L 185.330248 148.887925 
L 182.050909 158.362318 
L 178.77157 158.362318 
L 175.492231 172.573907 
L 172.212893 141.782131 
L 168.933554 110.990355 
L 165.654215 160.730916 
L 162.374876 120.464748 
L 159.095537 106.253159 
L 155.816198 163.099514 
L 152.53686 219.945869 
L 149.257521 122.833346 
L 145.978182 125.201944 
L 142.698843 127.570542 
L 139.419504 118.09615 
L 136.140165 94.410168 
L 132.860826 99.147364 
L 129.581488 115.727551 
L 126.302149 113.358953 
L 123.02281 103.884561 
L 119.743471 101.515963 
L 116.464132 108.621757 
L 113.184793 99.147364 
L 109.905455 99.147364 
L 106.626116 87.304374 
L 103.346777 77.829981 
L 100.067438 84.935776 
L 96.788099 87.304374 
L 93.50876 70.724187 
L 90.229421 61.249794 
L 86.950083 68.355589 
L 83.670744 65.986991 
L 80.391405 65.986991 
L 77.112066 68.355589 
L 73.832727 70.724187 
z
" clip-path="url(#pb509cda880)" style="fill: #bcbd22"/>
   </g>
   <g id="PolyCollection_10">
    <path d="M 73.832727 70.724187 
L 73.832727 70.724187 
L 77.112066 68.355589 
L 80.391405 65.986991 
L 83.670744 65.986991 
L 86.950083 68.355589 
L 90.229421 61.249794 
L 93.50876 70.724187 
L 96.788099 87.304374 
L 100.067438 84.935776 
L 103.346777 77.829981 
L 106.626116 87.304374 
L 109.905455 99.147364 
L 113.184793 99.147364 
L 116.464132 108.621757 
L 119.743471 101.515963 
L 123.02281 103.884561 
L 126.302149 113.358953 
L 129.581488 115.727551 
L 132.860826 99.147364 
L 136.140165 94.410168 
L 139.419504 118.09615 
L 142.698843 127.570542 
L 145.978182 125.201944 
L 149.257521 122.833346 
L 152.53686 219.945869 
L 155.816198 163.099514 
L 159.095537 106.253159 
L 162.374876 120.464748 
L 165.654215 160.730916 
L 168.933554 110.990355 
L 172.212893 141.782131 
L 175.492231 172.573907 
L 178.77157 158.362318 
L 182.050909 158.362318 
L 185.330248 148.887925 
L 188.609587 163.099514 
L 191.888926 146.519327 
L 195.168264 189.154093 
L 198.447603 179.679701 
L 201.726942 155.99372 
L 205.006281 186.785495 
L 208.28562 198.628486 
L 211.564959 170.205308 
L 214.844298 212.840075 
L 218.123636 165.468112 
L 221.402975 208.102879 
L 224.682314 172.573907 
L 227.961653 200.997084 
L 231.240992 141.782131 
L 234.520331 203.365682 
L 237.799669 189.154093 
L 241.079008 146.519327 
L 244.358347 158.362318 
L 247.637686 189.154093 
L 250.917025 160.730916 
L 254.196364 189.154093 
L 257.475702 182.048299 
L 260.755041 158.362318 
L 264.03438 200.997084 
L 267.313719 198.628486 
L 270.593058 203.365682 
L 273.872397 163.099514 
L 277.151736 196.259888 
L 280.431074 215.208673 
L 283.710413 217.577271 
L 286.989752 276.792224 
L 290.269091 248.369047 
L 293.54843 241.263252 
L 296.827769 229.420262 
L 300.107107 215.208673 
L 303.386446 227.051664 
L 306.665785 229.420262 
L 309.945124 231.78886 
L 313.224463 236.526056 
L 316.503802 238.894654 
L 319.78314 229.420262 
L 323.062479 246.000449 
L 326.341818 224.683065 
L 329.621157 264.949234 
L 332.900496 217.577271 
L 336.179835 210.471477 
L 339.459174 231.78886 
L 342.738512 212.840075 
L 346.017851 217.577271 
L 349.29719 246.000449 
L 352.576529 246.000449 
L 355.855868 267.317832 
L 359.135207 210.471477 
L 362.414545 238.894654 
L 365.693884 227.051664 
L 368.973223 129.93914 
L 372.252562 231.78886 
L 375.531901 205.73428 
L 378.81124 248.369047 
L 382.090579 137.044935 
L 385.369917 212.840075 
L 388.649256 227.051664 
L 391.928595 198.628486 
L 395.207934 182.048299 
L 398.487273 193.89129 
L 398.487273 193.89129 
L 398.487273 193.89129 
L 395.207934 182.048299 
L 391.928595 198.628486 
L 388.649256 227.051664 
L 385.369917 212.840075 
L 382.090579 137.044935 
L 378.81124 248.369047 
L 375.531901 205.73428 
L 372.252562 231.78886 
L 368.973223 129.93914 
L 365.693884 227.051664 
L 362.414545 238.894654 
L 359.135207 210.471477 
L 355.855868 267.317832 
L 352.576529 246.000449 
L 349.29719 246.000449 
L 346.017851 217.577271 
L 342.738512 212.840075 
L 339.459174 231.78886 
L 336.179835 210.471477 
L 332.900496 217.577271 
L 329.621157 264.949234 
L 326.341818 224.683065 
L 323.062479 246.000449 
L 319.78314 229.420262 
L 316.503802 238.894654 
L 313.224463 236.526056 
L 309.945124 231.78886 
L 306.665785 229.420262 
L 303.386446 227.051664 
L 300.107107 215.208673 
L 296.827769 229.420262 
L 293.54843 241.263252 
L 290.269091 248.369047 
L 286.989752 276.792224 
L 283.710413 217.577271 
L 280.431074 215.208673 
L 277.151736 196.259888 
L 273.872397 163.099514 
L 270.593058 203.365682 
L 267.313719 198.628486 
L 264.03438 200.997084 
L 260.755041 158.362318 
L 257.475702 182.048299 
L 254.196364 189.154093 
L 250.917025 160.730916 
L 247.637686 189.154093 
L 244.358347 158.362318 
L 241.079008 146.519327 
L 237.799669 189.154093 
L 234.520331 165.468112 
L 231.240992 127.570542 
L 227.961653 115.727551 
L 224.682314 141.782131 
L 221.402975 189.154093 
L 218.123636 118.09615 
L 214.844298 182.048299 
L 211.564959 134.676336 
L 208.28562 158.362318 
L 205.006281 163.099514 
L 201.726942 118.09615 
L 198.447603 141.782131 
L 195.168264 146.519327 
L 191.888926 115.727551 
L 188.609587 122.833346 
L 185.330248 120.464748 
L 182.050909 125.201944 
L 178.77157 134.676336 
L 175.492231 137.044935 
L 172.212893 103.884561 
L 168.933554 87.304374 
L 165.654215 151.256523 
L 162.374876 118.09615 
L 159.095537 92.04157 
L 155.816198 75.461383 
L 152.53686 186.785495 
L 149.257521 101.515963 
L 145.978182 99.147364 
L 142.698843 106.253159 
L 139.419504 96.778766 
L 136.140165 73.092785 
L 132.860826 80.198579 
L 129.581488 99.147364 
L 126.302149 92.04157 
L 123.02281 84.935776 
L 119.743471 80.198579 
L 116.464132 92.04157 
L 113.184793 89.672972 
L 109.905455 84.935776 
L 106.626116 68.355589 
L 103.346777 61.249794 
L 100.067438 63.618393 
L 96.788099 63.618393 
L 93.50876 63.618393 
L 90.229421 61.249794 
L 86.950083 68.355589 
L 83.670744 65.986991 
L 80.391405 65.986991 
L 77.112066 68.355589 
L 73.832727 70.724187 
z
" clip-path="url(#pb509cda880)" style="fill: #17becf"/>
   </g>
   <g id="PolyCollection_11">
    <path d="M 73.832727 70.724187 
L 73.832727 70.724187 
L 77.112066 68.355589 
L 80.391405 65.986991 
L 83.670744 65.986991 
L 86.950083 68.355589 
L 90.229421 61.249794 
L 93.50876 63.618393 
L 96.788099 63.618393 
L 100.067438 63.618393 
L 103.346777 61.249794 
L 106.626116 68.355589 
L 109.905455 84.935776 
L 113.184793 89.672972 
L 116.464132 92.04157 
L 119.743471 80.198579 
L 123.02281 84.935776 
L 126.302149 92.04157 
L 129.581488 99.147364 
L 132.860826 80.198579 
L 136.140165 73.092785 
L 139.419504 96.778766 
L 142.698843 106.253159 
L 145.978182 99.147364 
L 149.257521 101.515963 
L 152.53686 186.785495 
L 155.816198 75.461383 
L 159.095537 92.04157 
L 162.374876 118.09615 
L 165.654215 151.256523 
L 168.933554 87.304374 
L 172.212893 103.884561 
L 175.492231 137.044935 
L 178.77157 134.676336 
L 182.050909 125.201944 
L 185.330248 120.464748 
L 188.609587 122.833346 
L 191.888926 115.727551 
L 195.168264 146.519327 
L 198.447603 141.782131 
L 201.726942 118.09615 
L 205.006281 163.099514 
L 208.28562 158.362318 
L 211.564959 134.676336 
L 214.844298 182.048299 
L 218.123636 118.09615 
L 221.402975 189.154093 
L 224.682314 141.782131 
L 227.961653 115.727551 
L 231.240992 127.570542 
L 234.520331 165.468112 
L 237.799669 189.154093 
L 241.079008 146.519327 
L 244.358347 158.362318 
L 247.637686 189.154093 
L 250.917025 160.730916 
L 254.196364 189.154093 
L 257.475702 182.048299 
L 260.755041 158.362318 
L 264.03438 200.997084 
L 267.313719 198.628486 
L 270.593058 203.365682 
L 273.872397 163.099514 
L 277.151736 196.259888 
L 280.431074 215.208673 
L 283.710413 217.577271 
L 286.989752 276.792224 
L 290.269091 248.369047 
L 293.54843 241.263252 
L 296.827769 229.420262 
L 300.107107 215.208673 
L 303.386446 227.051664 
L 306.665785 229.420262 
L 309.945124 231.78886 
L 313.224463 236.526056 
L 316.503802 238.894654 
L 319.78314 229.420262 
L 323.062479 246.000449 
L 326.341818 224.683065 
L 329.621157 264.949234 
L 332.900496 217.577271 
L 336.179835 210.471477 
L 339.459174 231.78886 
L 342.738512 212.840075 
L 346.017851 217.577271 
L 349.29719 246.000449 
L 352.576529 246.000449 
L 355.855868 267.317832 
L 359.135207 210.471477 
L 362.414545 238.894654 
L 365.693884 227.051664 
L 368.973223 129.93914 
L 372.252562 231.78886 
L 375.531901 205.73428 
L 378.81124 248.369047 
L 382.090579 137.044935 
L 385.369917 212.840075 
L 388.649256 227.051664 
L 391.928595 198.628486 
L 395.207934 182.048299 
L 398.487273 193.89129 
L 398.487273 193.89129 
L 398.487273 193.89129 
L 395.207934 182.048299 
L 391.928595 198.628486 
L 388.649256 227.051664 
L 385.369917 212.840075 
L 382.090579 137.044935 
L 378.81124 248.369047 
L 375.531901 205.73428 
L 372.252562 231.78886 
L 368.973223 129.93914 
L 365.693884 227.051664 
L 362.414545 238.894654 
L 359.135207 210.471477 
L 355.855868 267.317832 
L 352.576529 246.000449 
L 349.29719 246.000449 
L 346.017851 217.577271 
L 342.738512 212.840075 
L 339.459174 231.78886 
L 336.179835 210.471477 
L 332.900496 217.577271 
L 329.621157 264.949234 
L 326.341818 224.683065 
L 323.062479 246.000449 
L 319.78314 229.420262 
L 316.503802 238.894654 
L 313.224463 236.526056 
L 309.945124 231.78886 
L 306.665785 229.420262 
L 303.386446 227.051664 
L 300.107107 215.208673 
L 296.827769 229.420262 
L 293.54843 241.263252 
L 290.269091 248.369047 
L 286.989752 276.792224 
L 283.710413 217.577271 
L 280.431074 215.208673 
L 277.151736 196.259888 
L 273.872397 163.099514 
L 270.593058 203.365682 
L 267.313719 198.628486 
L 264.03438 200.997084 
L 260.755041 158.362318 
L 257.475702 182.048299 
L 254.196364 189.154093 
L 250.917025 160.730916 
L 247.637686 189.154093 
L 244.358347 158.362318 
L 241.079008 146.519327 
L 237.799669 189.154093 
L 234.520331 165.468112 
L 231.240992 127.570542 
L 227.961653 115.727551 
L 224.682314 141.782131 
L 221.402975 189.154093 
L 218.123636 118.09615 
L 214.844298 182.048299 
L 211.564959 134.676336 
L 208.28562 158.362318 
L 205.006281 163.099514 
L 201.726942 118.09615 
L 198.447603 141.782131 
L 195.168264 146.519327 
L 191.888926 115.727551 
L 188.609587 122.833346 
L 185.330248 120.464748 
L 182.050909 125.201944 
L 178.77157 134.676336 
L 175.492231 110.990355 
L 172.212893 84.935776 
L 168.933554 75.461383 
L 165.654215 141.782131 
L 162.374876 108.621757 
L 159.095537 75.461383 
L 155.816198 68.355589 
L 152.53686 68.355589 
L 149.257521 73.092785 
L 145.978182 68.355589 
L 142.698843 75.461383 
L 139.419504 58.881196 
L 136.140165 63.618393 
L 132.860826 65.986991 
L 129.581488 61.249794 
L 126.302149 70.724187 
L 123.02281 68.355589 
L 119.743471 61.249794 
L 116.464132 63.618393 
L 113.184793 65.986991 
L 109.905455 58.881196 
L 106.626116 63.618393 
L 103.346777 61.249794 
L 100.067438 63.618393 
L 96.788099 63.618393 
L 93.50876 63.618393 
L 90.229421 61.249794 
L 86.950083 68.355589 
L 83.670744 65.986991 
L 80.391405 65.986991 
L 77.112066 68.355589 
L 73.832727 70.724187 
z
" clip-path="url(#pb509cda880)" style="fill: #1f77b4"/>
   </g>
   <g id="PolyCollection_12">
    <path d="M 73.832727 70.724187 
L 73.832727 70.724187 
L 77.112066 68.355589 
L 80.391405 65.986991 
L 83.670744 65.986991 
L 86.950083 68.355589 
L 90.229421 61.249794 
L 93.50876 63.618393 
L 96.788099 63.618393 
L 100.067438 63.618393 
L 103.346777 61.249794 
L 106.626116 63.618393 
L 109.905455 58.881196 
L 113.184793 65.986991 
L 116.464132 63.618393 
L 119.743471 61.249794 
L 123.02281 68.355589 
L 126.302149 70.724187 
L 129.581488 61.249794 
L 132.860826 65.986991 
L 136.140165 63.618393 
L 139.419504 58.881196 
L 142.698843 75.461383 
L 145.978182 68.355589 
L 149.257521 73.092785 
L 152.53686 68.355589 
L 155.816198 68.355589 
L 159.095537 75.461383 
L 162.374876 108.621757 
L 165.654215 141.782131 
L 168.933554 75.461383 
L 172.212893 84.935776 
L 175.492231 110.990355 
L 178.77157 134.676336 
L 182.050909 125.201944 
L 185.330248 120.464748 
L 188.609587 122.833346 
L 191.888926 115.727551 
L 195.168264 146.519327 
L 198.447603 141.782131 
L 201.726942 118.09615 
L 205.006281 163.099514 
L 208.28562 158.362318 
L 211.564959 134.676336 
L 214.844298 182.048299 
L 218.123636 118.09615 
L 221.402975 189.154093 
L 224.682314 141.782131 
L 227.961653 115.727551 
L 231.240992 127.570542 
L 234.520331 165.468112 
L 237.799669 189.154093 
L 241.079008 146.519327 
L 244.358347 158.362318 
L 247.637686 189.154093 
L 250.917025 160.730916 
L 254.196364 189.154093 
L 257.475702 182.048299 
L 260.755041 158.362318 
L 264.03438 200.997084 
L 267.313719 198.628486 
L 270.593058 203.365682 
L 273.872397 163.099514 
L 277.151736 196.259888 
L 280.431074 215.208673 
L 283.710413 217.577271 
L 286.989752 276.792224 
L 290.269091 248.369047 
L 293.54843 241.263252 
L 296.827769 229.420262 
L 300.107107 215.208673 
L 303.386446 227.051664 
L 306.665785 229.420262 
L 309.945124 231.78886 
L 313.224463 236.526056 
L 316.503802 238.894654 
L 319.78314 229.420262 
L 323.062479 246.000449 
L 326.341818 224.683065 
L 329.621157 264.949234 
L 332.900496 217.577271 
L 336.179835 210.471477 
L 339.459174 231.78886 
L 342.738512 212.840075 
L 346.017851 217.577271 
L 349.29719 246.000449 
L 352.576529 246.000449 
L 355.855868 267.317832 
L 359.135207 210.471477 
L 362.414545 238.894654 
L 365.693884 227.051664 
L 368.973223 129.93914 
L 372.252562 231.78886 
L 375.531901 205.73428 
L 378.81124 248.369047 
L 382.090579 137.044935 
L 385.369917 212.840075 
L 388.649256 227.051664 
L 391.928595 198.628486 
L 395.207934 182.048299 
L 398.487273 193.89129 
L 398.487273 151.256523 
L 398.487273 151.256523 
L 395.207934 94.410168 
L 391.928595 120.464748 
L 388.649256 167.83671 
L 385.369917 172.573907 
L 382.090579 108.621757 
L 378.81124 148.887925 
L 375.531901 144.150729 
L 372.252562 151.256523 
L 368.973223 106.253159 
L 365.693884 148.887925 
L 362.414545 186.785495 
L 359.135207 153.625121 
L 355.855868 172.573907 
L 352.576529 170.205308 
L 349.29719 182.048299 
L 346.017851 139.413533 
L 342.738512 165.468112 
L 339.459174 165.468112 
L 336.179835 148.887925 
L 332.900496 132.307738 
L 329.621157 179.679701 
L 326.341818 151.256523 
L 323.062479 172.573907 
L 319.78314 174.942505 
L 316.503802 148.887925 
L 313.224463 198.628486 
L 309.945124 165.468112 
L 306.665785 127.570542 
L 303.386446 151.256523 
L 300.107107 146.519327 
L 296.827769 134.676336 
L 293.54843 189.154093 
L 290.269091 182.048299 
L 286.989752 231.78886 
L 283.710413 167.83671 
L 280.431074 155.99372 
L 277.151736 158.362318 
L 273.872397 118.09615 
L 270.593058 106.253159 
L 267.313719 122.833346 
L 264.03438 106.253159 
L 260.755041 110.990355 
L 257.475702 96.778766 
L 254.196364 96.778766 
L 250.917025 103.884561 
L 247.637686 108.621757 
L 244.358347 99.147364 
L 241.079008 120.464748 
L 237.799669 120.464748 
L 234.520331 99.147364 
L 231.240992 94.410168 
L 227.961653 92.04157 
L 224.682314 96.778766 
L 221.402975 84.935776 
L 218.123636 89.672972 
L 214.844298 87.304374 
L 211.564959 92.04157 
L 208.28562 103.884561 
L 205.006281 118.09615 
L 201.726942 89.672972 
L 198.447603 110.990355 
L 195.168264 106.253159 
L 191.888926 84.935776 
L 188.609587 99.147364 
L 185.330248 106.253159 
L 182.050909 103.884561 
L 178.77157 103.884561 
L 175.492231 82.567178 
L 172.212893 56.512598 
L 168.933554 63.618393 
L 165.654215 54.144 
L 162.374876 58.881196 
L 159.095537 68.355589 
L 155.816198 68.355589 
L 152.53686 68.355589 
L 149.257521 73.092785 
L 145.978182 68.355589 
L 142.698843 75.461383 
L 139.419504 58.881196 
L 136.140165 63.618393 
L 132.860826 65.986991 
L 129.581488 61.249794 
L 126.302149 70.724187 
L 123.02281 68.355589 
L 119.743471 61.249794 
L 116.464132 63.618393 
L 113.184793 65.986991 
L 109.905455 58.881196 
L 106.626116 63.618393 
L 103.346777 61.249794 
L 100.067438 63.618393 
L 96.788099 63.618393 
L 93.50876 63.618393 
L 90.229421 61.249794 
L 86.950083 68.355589 
L 83.670744 65.986991 
L 80.391405 65.986991 
L 77.112066 68.355589 
L 73.832727 70.724187 
z
" clip-path="url(#pb509cda880)" style="fill: #ff7f0e"/>
   </g>
   <g id="PolyCollection_13">
    <path d="M 73.832727 70.724187 
L 73.832727 70.724187 
L 77.112066 68.355589 
L 80.391405 65.986991 
L 83.670744 65.986991 
L 86.950083 68.355589 
L 90.229421 61.249794 
L 93.50876 63.618393 
L 96.788099 63.618393 
L 100.067438 63.618393 
L 103.346777 61.249794 
L 106.626116 63.618393 
L 109.905455 58.881196 
L 113.184793 65.986991 
L 116.464132 63.618393 
L 119.743471 61.249794 
L 123.02281 68.355589 
L 126.302149 70.724187 
L 129.581488 61.249794 
L 132.860826 65.986991 
L 136.140165 63.618393 
L 139.419504 58.881196 
L 142.698843 75.461383 
L 145.978182 68.355589 
L 149.257521 73.092785 
L 152.53686 68.355589 
L 155.816198 68.355589 
L 159.095537 68.355589 
L 162.374876 58.881196 
L 165.654215 54.144 
L 168.933554 63.618393 
L 172.212893 56.512598 
L 175.492231 82.567178 
L 178.77157 103.884561 
L 182.050909 103.884561 
L 185.330248 106.253159 
L 188.609587 99.147364 
L 191.888926 84.935776 
L 195.168264 106.253159 
L 198.447603 110.990355 
L 201.726942 89.672972 
L 205.006281 118.09615 
L 208.28562 103.884561 
L 211.564959 92.04157 
L 214.844298 87.304374 
L 218.123636 89.672972 
L 221.402975 84.935776 
L 224.682314 96.778766 
L 227.961653 92.04157 
L 231.240992 94.410168 
L 234.520331 99.147364 
L 237.799669 120.464748 
L 241.079008 120.464748 
L 244.358347 99.147364 
L 247.637686 108.621757 
L 250.917025 103.884561 
L 254.196364 96.778766 
L 257.475702 96.778766 
L 260.755041 110.990355 
L 264.03438 106.253159 
L 267.313719 122.833346 
L 270.593058 106.253159 
L 273.872397 118.09615 
L 277.151736 158.362318 
L 280.431074 155.99372 
L 283.710413 167.83671 
L 286.989752 231.78886 
L 290.269091 182.048299 
L 293.54843 189.154093 
L 296.827769 134.676336 
L 300.107107 146.519327 
L 303.386446 151.256523 
L 306.665785 127.570542 
L 309.945124 165.468112 
L 313.224463 198.628486 
L 316.503802 148.887925 
L 319.78314 174.942505 
L 323.062479 172.573907 
L 326.341818 151.256523 
L 329.621157 179.679701 
L 332.900496 132.307738 
L 336.179835 148.887925 
L 339.459174 165.468112 
L 342.738512 165.468112 
L 346.017851 139.413533 
L 349.29719 182.048299 
L 352.576529 170.205308 
L 355.855868 172.573907 
L 359.135207 153.625121 
L 362.414545 186.785495 
L 365.693884 148.887925 
L 368.973223 106.253159 
L 372.252562 151.256523 
L 375.531901 144.150729 
L 378.81124 148.887925 
L 382.090579 108.621757 
L 385.369917 172.573907 
L 388.649256 167.83671 
L 391.928595 120.464748 
L 395.207934 94.410168 
L 398.487273 151.256523 
L 398.487273 73.092785 
L 398.487273 73.092785 
L 395.207934 70.724187 
L 391.928595 73.092785 
L 388.649256 70.724187 
L 385.369917 73.092785 
L 382.090579 73.092785 
L 378.81124 73.092785 
L 375.531901 73.092785 
L 372.252562 70.724187 
L 368.973223 70.724187 
L 365.693884 68.355589 
L 362.414545 68.355589 
L 359.135207 70.724187 
L 355.855868 70.724187 
L 352.576529 73.092785 
L 349.29719 68.355589 
L 346.017851 70.724187 
L 342.738512 70.724187 
L 339.459174 68.355589 
L 336.179835 73.092785 
L 332.900496 70.724187 
L 329.621157 70.724187 
L 326.341818 68.355589 
L 323.062479 68.355589 
L 319.78314 70.724187 
L 316.503802 70.724187 
L 313.224463 68.355589 
L 309.945124 70.724187 
L 306.665785 68.355589 
L 303.386446 68.355589 
L 300.107107 70.724187 
L 296.827769 68.355589 
L 293.54843 70.724187 
L 290.269091 70.724187 
L 286.989752 73.092785 
L 283.710413 73.092785 
L 280.431074 70.724187 
L 277.151736 70.724187 
L 273.872397 68.355589 
L 270.593058 68.355589 
L 267.313719 73.092785 
L 264.03438 70.724187 
L 260.755041 73.092785 
L 257.475702 70.724187 
L 254.196364 70.724187 
L 250.917025 70.724187 
L 247.637686 68.355589 
L 244.358347 68.355589 
L 241.079008 70.724187 
L 237.799669 70.724187 
L 234.520331 70.724187 
L 231.240992 68.355589 
L 227.961653 65.986991 
L 224.682314 68.355589 
L 221.402975 68.355589 
L 218.123636 68.355589 
L 214.844298 68.355589 
L 211.564959 73.092785 
L 208.28562 75.461383 
L 205.006281 75.461383 
L 201.726942 75.461383 
L 198.447603 73.092785 
L 195.168264 68.355589 
L 191.888926 70.724187 
L 188.609587 73.092785 
L 185.330248 73.092785 
L 182.050909 70.724187 
L 178.77157 73.092785 
L 175.492231 70.724187 
L 172.212893 56.512598 
L 168.933554 63.618393 
L 165.654215 54.144 
L 162.374876 58.881196 
L 159.095537 68.355589 
L 155.816198 68.355589 
L 152.53686 68.355589 
L 149.257521 73.092785 
L 145.978182 68.355589 
L 142.698843 75.461383 
L 139.419504 58.881196 
L 136.140165 63.618393 
L 132.860826 65.986991 
L 129.581488 61.249794 
L 126.302149 70.724187 
L 123.02281 68.355589 
L 119.743471 61.249794 
L 116.464132 63.618393 
L 113.184793 65.986991 
L 109.905455 58.881196 
L 106.626116 63.618393 
L 103.346777 61.249794 
L 100.067438 63.618393 
L 96.788099 63.618393 
L 93.50876 63.618393 
L 90.229421 61.249794 
L 86.950083 68.355589 
L 83.670744 65.986991 
L 80.391405 65.986991 
L 77.112066 68.355589 
L 73.832727 70.724187 
z
" clip-path="url(#pb509cda880)" style="fill: #2ca02c"/>
   </g>
   <g id="matplotlib.axis_1">
    <g id="xtick_1">
     <g id="line2d_1">
      <defs>
       <path id="m4d288cbc97" d="M 0 0 
L 0 3.5 
" style="stroke: #000000; stroke-width: 0.8"/>
      </defs>
      <g>
       <use xlink:href="#m4d288cbc97" x="73.832727" y="307.584" style="stroke: #000000; stroke-width: 0.8"/>
      </g>
     </g>
     <g id="text_1">
      <!-- 0 -->
      <g transform="translate(70.651477 322.182437) scale(0.1 -0.1)">
       <defs>
        <path id="DejaVuSans-30" d="M 2034 4250 
Q 1547 4250 1301 3770 
Q 1056 3291 1056 2328 
Q 1056 1369 1301 889 
Q 1547 409 2034 409 
Q 2525 409 2770 889 
Q 3016 1369 3016 2328 
Q 3016 3291 2770 3770 
Q 2525 4250 2034 4250 
z
M 2034 4750 
Q 2819 4750 3233 4129 
Q 3647 3509 3647 2328 
Q 3647 1150 3233 529 
Q 2819 -91 2034 -91 
Q 1250 -91 836 529 
Q 422 1150 422 2328 
Q 422 3509 836 4129 
Q 1250 4750 2034 4750 
z
" transform="scale(0.015625)"/>
       </defs>
       <use xlink:href="#DejaVuSans-30"/>
      </g>
     </g>
    </g>
    <g id="xtick_2">
     <g id="line2d_2">
      <g>
       <use xlink:href="#m4d288cbc97" x="139.419504" y="307.584" style="stroke: #000000; stroke-width: 0.8"/>
      </g>
     </g>
     <g id="text_2">
      <!-- 20 -->
      <g transform="translate(133.057004 322.182437) scale(0.1 -0.1)">
       <defs>
        <path id="DejaVuSans-32" d="M 1228 531 
L 3431 531 
L 3431 0 
L 469 0 
L 469 531 
Q 828 903 1448 1529 
Q 2069 2156 2228 2338 
Q 2531 2678 2651 2914 
Q 2772 3150 2772 3378 
Q 2772 3750 2511 3984 
Q 2250 4219 1831 4219 
Q 1534 4219 1204 4116 
Q 875 4013 500 3803 
L 500 4441 
Q 881 4594 1212 4672 
Q 1544 4750 1819 4750 
Q 2544 4750 2975 4387 
Q 3406 4025 3406 3419 
Q 3406 3131 3298 2873 
Q 3191 2616 2906 2266 
Q 2828 2175 2409 1742 
Q 1991 1309 1228 531 
z
" transform="scale(0.015625)"/>
       </defs>
       <use xlink:href="#DejaVuSans-32"/>
       <use xlink:href="#DejaVuSans-30" x="63.623047"/>
      </g>
     </g>
    </g>
    <g id="xtick_3">
     <g id="line2d_3">
      <g>
       <use xlink:href="#m4d288cbc97" x="205.006281" y="307.584" style="stroke: #000000; stroke-width: 0.8"/>
      </g>
     </g>
     <g id="text_3">
      <!-- 40 -->
      <g transform="translate(198.643781 322.182437) scale(0.1 -0.1)">
       <defs>
        <path id="DejaVuSans-34" d="M 2419 4116 
L 825 1625 
L 2419 1625 
L 2419 4116 
z
M 2253 4666 
L 3047 4666 
L 3047 1625 
L 3713 1625 
L 3713 1100 
L 3047 1100 
L 3047 0 
L 2419 0 
L 2419 1100 
L 313 1100 
L 313 1709 
L 2253 4666 
z
" transform="scale(0.015625)"/>
       </defs>
       <use xlink:href="#DejaVuSans-34"/>
       <use xlink:href="#DejaVuSans-30" x="63.623047"/>
      </g>
     </g>
    </g>
    <g id="xtick_4">
     <g id="line2d_4">
      <g>
       <use xlink:href="#m4d288cbc97" x="270.593058" y="307.584" style="stroke: #000000; stroke-width: 0.8"/>
      </g>
     </g>
     <g id="text_4">
      <!-- 60 -->
      <g transform="translate(264.230558 322.182437) scale(0.1 -0.1)">
       <defs>
        <path id="DejaVuSans-36" d="M 2113 2584 
Q 1688 2584 1439 2293 
Q 1191 2003 1191 1497 
Q 1191 994 1439 701 
Q 1688 409 2113 409 
Q 2538 409 2786 701 
Q 3034 994 3034 1497 
Q 3034 2003 2786 2293 
Q 2538 2584 2113 2584 
z
M 3366 4563 
L 3366 3988 
Q 3128 4100 2886 4159 
Q 2644 4219 2406 4219 
Q 1781 4219 1451 3797 
Q 1122 3375 1075 2522 
Q 1259 2794 1537 2939 
Q 1816 3084 2150 3084 
Q 2853 3084 3261 2657 
Q 3669 2231 3669 1497 
Q 3669 778 3244 343 
Q 2819 -91 2113 -91 
Q 1303 -91 875 529 
Q 447 1150 447 2328 
Q 447 3434 972 4092 
Q 1497 4750 2381 4750 
Q 2619 4750 2861 4703 
Q 3103 4656 3366 4563 
z
" transform="scale(0.015625)"/>
       </defs>
       <use xlink:href="#DejaVuSans-36"/>
       <use xlink:href="#DejaVuSans-30" x="63.623047"/>
      </g>
     </g>
    </g>
    <g id="xtick_5">
     <g id="line2d_5">
      <g>
       <use xlink:href="#m4d288cbc97" x="336.179835" y="307.584" style="stroke: #000000; stroke-width: 0.8"/>
      </g>
     </g>
     <g id="text_5">
      <!-- 80 -->
      <g transform="translate(329.817335 322.182437) scale(0.1 -0.1)">
       <defs>
        <path id="DejaVuSans-38" d="M 2034 2216 
Q 1584 2216 1326 1975 
Q 1069 1734 1069 1313 
Q 1069 891 1326 650 
Q 1584 409 2034 409 
Q 2484 409 2743 651 
Q 3003 894 3003 1313 
Q 3003 1734 2745 1975 
Q 2488 2216 2034 2216 
z
M 1403 2484 
Q 997 2584 770 2862 
Q 544 3141 544 3541 
Q 544 4100 942 4425 
Q 1341 4750 2034 4750 
Q 2731 4750 3128 4425 
Q 3525 4100 3525 3541 
Q 3525 3141 3298 2862 
Q 3072 2584 2669 2484 
Q 3125 2378 3379 2068 
Q 3634 1759 3634 1313 
Q 3634 634 3220 271 
Q 2806 -91 2034 -91 
Q 1263 -91 848 271 
Q 434 634 434 1313 
Q 434 1759 690 2068 
Q 947 2378 1403 2484 
z
M 1172 3481 
Q 1172 3119 1398 2916 
Q 1625 2713 2034 2713 
Q 2441 2713 2670 2916 
Q 2900 3119 2900 3481 
Q 2900 3844 2670 4047 
Q 2441 4250 2034 4250 
Q 1625 4250 1398 4047 
Q 1172 3844 1172 3481 
z
" transform="scale(0.015625)"/>
       </defs>
       <use xlink:href="#DejaVuSans-38"/>
       <use xlink:href="#DejaVuSans-30" x="63.623047"/>
      </g>
     </g>
    </g>
    <g id="xtick_6">
     <g id="line2d_6">
      <g>
       <use xlink:href="#m4d288cbc97" x="401.766612" y="307.584" style="stroke: #000000; stroke-width: 0.8"/>
      </g>
     </g>
     <g id="text_6">
      <!-- 100 -->
      <g transform="translate(392.222862 322.182437) scale(0.1 -0.1)">
       <defs>
        <path id="DejaVuSans-31" d="M 794 531 
L 1825 531 
L 1825 4091 
L 703 3866 
L 703 4441 
L 1819 4666 
L 2450 4666 
L 2450 531 
L 3481 531 
L 3481 0 
L 794 0 
L 794 531 
z
" transform="scale(0.015625)"/>
       </defs>
       <use xlink:href="#DejaVuSans-31"/>
       <use xlink:href="#DejaVuSans-30" x="63.623047"/>
       <use xlink:href="#DejaVuSans-30" x="127.246094"/>
      </g>
     </g>
    </g>
    <g id="text_7">
     <!-- Generations -->
     <g transform="translate(205.662344 335.860562) scale(0.1 -0.1)">
      <defs>
       <path id="DejaVuSans-47" d="M 3809 666 
L 3809 1919 
L 2778 1919 
L 2778 2438 
L 4434 2438 
L 4434 434 
Q 4069 175 3628 42 
Q 3188 -91 2688 -91 
Q 1594 -91 976 548 
Q 359 1188 359 2328 
Q 359 3472 976 4111 
Q 1594 4750 2688 4750 
Q 3144 4750 3555 4637 
Q 3966 4525 4313 4306 
L 4313 3634 
Q 3963 3931 3569 4081 
Q 3175 4231 2741 4231 
Q 1884 4231 1454 3753 
Q 1025 3275 1025 2328 
Q 1025 1384 1454 906 
Q 1884 428 2741 428 
Q 3075 428 3337 486 
Q 3600 544 3809 666 
z
" transform="scale(0.015625)"/>
       <path id="DejaVuSans-65" d="M 3597 1894 
L 3597 1613 
L 953 1613 
Q 991 1019 1311 708 
Q 1631 397 2203 397 
Q 2534 397 2845 478 
Q 3156 559 3463 722 
L 3463 178 
Q 3153 47 2828 -22 
Q 2503 -91 2169 -91 
Q 1331 -91 842 396 
Q 353 884 353 1716 
Q 353 2575 817 3079 
Q 1281 3584 2069 3584 
Q 2775 3584 3186 3129 
Q 3597 2675 3597 1894 
z
M 3022 2063 
Q 3016 2534 2758 2815 
Q 2500 3097 2075 3097 
Q 1594 3097 1305 2825 
Q 1016 2553 972 2059 
L 3022 2063 
z
" transform="scale(0.015625)"/>
       <path id="DejaVuSans-6e" d="M 3513 2113 
L 3513 0 
L 2938 0 
L 2938 2094 
Q 2938 2591 2744 2837 
Q 2550 3084 2163 3084 
Q 1697 3084 1428 2787 
Q 1159 2491 1159 1978 
L 1159 0 
L 581 0 
L 581 3500 
L 1159 3500 
L 1159 2956 
Q 1366 3272 1645 3428 
Q 1925 3584 2291 3584 
Q 2894 3584 3203 3211 
Q 3513 2838 3513 2113 
z
" transform="scale(0.015625)"/>
       <path id="DejaVuSans-72" d="M 2631 2963 
Q 2534 3019 2420 3045 
Q 2306 3072 2169 3072 
Q 1681 3072 1420 2755 
Q 1159 2438 1159 1844 
L 1159 0 
L 581 0 
L 581 3500 
L 1159 3500 
L 1159 2956 
Q 1341 3275 1631 3429 
Q 1922 3584 2338 3584 
Q 2397 3584 2469 3576 
Q 2541 3569 2628 3553 
L 2631 2963 
z
" transform="scale(0.015625)"/>
       <path id="DejaVuSans-61" d="M 2194 1759 
Q 1497 1759 1228 1600 
Q 959 1441 959 1056 
Q 959 750 1161 570 
Q 1363 391 1709 391 
Q 2188 391 2477 730 
Q 2766 1069 2766 1631 
L 2766 1759 
L 2194 1759 
z
M 3341 1997 
L 3341 0 
L 2766 0 
L 2766 531 
Q 2569 213 2275 61 
Q 1981 -91 1556 -91 
Q 1019 -91 701 211 
Q 384 513 384 1019 
Q 384 1609 779 1909 
Q 1175 2209 1959 2209 
L 2766 2209 
L 2766 2266 
Q 2766 2663 2505 2880 
Q 2244 3097 1772 3097 
Q 1472 3097 1187 3025 
Q 903 2953 641 2809 
L 641 3341 
Q 956 3463 1253 3523 
Q 1550 3584 1831 3584 
Q 2591 3584 2966 3190 
Q 3341 2797 3341 1997 
z
" transform="scale(0.015625)"/>
       <path id="DejaVuSans-74" d="M 1172 4494 
L 1172 3500 
L 2356 3500 
L 2356 3053 
L 1172 3053 
L 1172 1153 
Q 1172 725 1289 603 
Q 1406 481 1766 481 
L 2356 481 
L 2356 0 
L 1766 0 
Q 1100 0 847 248 
Q 594 497 594 1153 
L 594 3053 
L 172 3053 
L 172 3500 
L 594 3500 
L 594 4494 
L 1172 4494 
z
" transform="scale(0.015625)"/>
       <path id="DejaVuSans-69" d="M 603 3500 
L 1178 3500 
L 1178 0 
L 603 0 
L 603 3500 
z
M 603 4863 
L 1178 4863 
L 1178 4134 
L 603 4134 
L 603 4863 
z
" transform="scale(0.015625)"/>
       <path id="DejaVuSans-6f" d="M 1959 3097 
Q 1497 3097 1228 2736 
Q 959 2375 959 1747 
Q 959 1119 1226 758 
Q 1494 397 1959 397 
Q 2419 397 2687 759 
Q 2956 1122 2956 1747 
Q 2956 2369 2687 2733 
Q 2419 3097 1959 3097 
z
M 1959 3584 
Q 2709 3584 3137 3096 
Q 3566 2609 3566 1747 
Q 3566 888 3137 398 
Q 2709 -91 1959 -91 
Q 1206 -91 779 398 
Q 353 888 353 1747 
Q 353 2609 779 3096 
Q 1206 3584 1959 3584 
z
" transform="scale(0.015625)"/>
       <path id="DejaVuSans-73" d="M 2834 3397 
L 2834 2853 
Q 2591 2978 2328 3040 
Q 2066 3103 1784 3103 
Q 1356 3103 1142 2972 
Q 928 2841 928 2578 
Q 928 2378 1081 2264 
Q 1234 2150 1697 2047 
L 1894 2003 
Q 2506 1872 2764 1633 
Q 3022 1394 3022 966 
Q 3022 478 2636 193 
Q 2250 -91 1575 -91 
Q 1294 -91 989 -36 
Q 684 19 347 128 
L 347 722 
Q 666 556 975 473 
Q 1284 391 1588 391 
Q 1994 391 2212 530 
Q 2431 669 2431 922 
Q 2431 1156 2273 1281 
Q 2116 1406 1581 1522 
L 1381 1569 
Q 847 1681 609 1914 
Q 372 2147 372 2553 
Q 372 3047 722 3315 
Q 1072 3584 1716 3584 
Q 2034 3584 2315 3537 
Q 2597 3491 2834 3397 
z
" transform="scale(0.015625)"/>
      </defs>
      <use xlink:href="#DejaVuSans-47"/>
      <use xlink:href="#DejaVuSans-65" x="77.490234"/>
      <use xlink:href="#DejaVuSans-6e" x="139.013672"/>
      <use xlink:href="#DejaVuSans-65" x="202.392578"/>
      <use xlink:href="#DejaVuSans-72" x="263.916016"/>
      <use xlink:href="#DejaVuSans-61" x="305.029297"/>
      <use xlink:href="#DejaVuSans-74" x="366.308594"/>
      <use xlink:href="#DejaVuSans-69" x="405.517578"/>
      <use xlink:href="#DejaVuSans-6f" x="433.300781"/>
      <use xlink:href="#DejaVuSans-6e" x="494.482422"/>
      <use xlink:href="#DejaVuSans-73" x="557.861328"/>
     </g>
    </g>
   </g>
   <g id="matplotlib.axis_2">
    <g id="ytick_1">
     <g id="line2d_7">
      <defs>
       <path id="md17a7a4594" d="M 0 0 
L -3.5 0 
" style="stroke: #000000; stroke-width: 0.8"/>
      </defs>
      <g>
       <use xlink:href="#md17a7a4594" x="57.6" y="307.584" style="stroke: #000000; stroke-width: 0.8"/>
      </g>
     </g>
     <g id="text_8">
      <!-- 0 -->
      <g transform="translate(44.2375 311.383219) scale(0.1 -0.1)">
       <use xlink:href="#DejaVuSans-30"/>
      </g>
     </g>
    </g>
    <g id="ytick_2">
     <g id="line2d_8">
      <g>
       <use xlink:href="#md17a7a4594" x="57.6" y="260.212037" style="stroke: #000000; stroke-width: 0.8"/>
      </g>
     </g>
     <g id="text_9">
      <!-- 20 -->
      <g transform="translate(37.875 264.011256) scale(0.1 -0.1)">
       <use xlink:href="#DejaVuSans-32"/>
       <use xlink:href="#DejaVuSans-30" x="63.623047"/>
      </g>
     </g>
    </g>
    <g id="ytick_3">
     <g id="line2d_9">
      <g>
       <use xlink:href="#md17a7a4594" x="57.6" y="212.840075" style="stroke: #000000; stroke-width: 0.8"/>
      </g>
     </g>
     <g id="text_10">
      <!-- 40 -->
      <g transform="translate(37.875 216.639294) scale(0.1 -0.1)">
       <use xlink:href="#DejaVuSans-34"/>
       <use xlink:href="#DejaVuSans-30" x="63.623047"/>
      </g>
     </g>
    </g>
    <g id="ytick_4">
     <g id="line2d_10">
      <g>
       <use xlink:href="#md17a7a4594" x="57.6" y="165.468112" style="stroke: #000000; stroke-width: 0.8"/>
      </g>
     </g>
     <g id="text_11">
      <!-- 60 -->
      <g transform="translate(37.875 169.267331) scale(0.1 -0.1)">
       <use xlink:href="#DejaVuSans-36"/>
       <use xlink:href="#DejaVuSans-30" x="63.623047"/>
      </g>
     </g>
    </g>
    <g id="ytick_5">
     <g id="line2d_11">
      <g>
       <use xlink:href="#md17a7a4594" x="57.6" y="118.09615" style="stroke: #000000; stroke-width: 0.8"/>
      </g>
     </g>
     <g id="text_12">
      <!-- 80 -->
      <g transform="translate(37.875 121.895368) scale(0.1 -0.1)">
       <use xlink:href="#DejaVuSans-38"/>
       <use xlink:href="#DejaVuSans-30" x="63.623047"/>
      </g>
     </g>
    </g>
    <g id="ytick_6">
     <g id="line2d_12">
      <g>
       <use xlink:href="#md17a7a4594" x="57.6" y="70.724187" style="stroke: #000000; stroke-width: 0.8"/>
      </g>
     </g>
     <g id="text_13">
      <!-- 100 -->
      <g transform="translate(31.5125 74.523406) scale(0.1 -0.1)">
       <use xlink:href="#DejaVuSans-31"/>
       <use xlink:href="#DejaVuSans-30" x="63.623047"/>
       <use xlink:href="#DejaVuSans-30" x="127.246094"/>
      </g>
     </g>
    </g>
    <g id="text_14">
     <!-- Size per Species -->
     <g transform="translate(25.432812 215.520969) rotate(-90) scale(0.1 -0.1)">
      <defs>
       <path id="DejaVuSans-53" d="M 3425 4513 
L 3425 3897 
Q 3066 4069 2747 4153 
Q 2428 4238 2131 4238 
Q 1616 4238 1336 4038 
Q 1056 3838 1056 3469 
Q 1056 3159 1242 3001 
Q 1428 2844 1947 2747 
L 2328 2669 
Q 3034 2534 3370 2195 
Q 3706 1856 3706 1288 
Q 3706 609 3251 259 
Q 2797 -91 1919 -91 
Q 1588 -91 1214 -16 
Q 841 59 441 206 
L 441 856 
Q 825 641 1194 531 
Q 1563 422 1919 422 
Q 2459 422 2753 634 
Q 3047 847 3047 1241 
Q 3047 1584 2836 1778 
Q 2625 1972 2144 2069 
L 1759 2144 
Q 1053 2284 737 2584 
Q 422 2884 422 3419 
Q 422 4038 858 4394 
Q 1294 4750 2059 4750 
Q 2388 4750 2728 4690 
Q 3069 4631 3425 4513 
z
" transform="scale(0.015625)"/>
       <path id="DejaVuSans-7a" d="M 353 3500 
L 3084 3500 
L 3084 2975 
L 922 459 
L 3084 459 
L 3084 0 
L 275 0 
L 275 525 
L 2438 3041 
L 353 3041 
L 353 3500 
z
" transform="scale(0.015625)"/>
       <path id="DejaVuSans-20" transform="scale(0.015625)"/>
       <path id="DejaVuSans-70" d="M 1159 525 
L 1159 -1331 
L 581 -1331 
L 581 3500 
L 1159 3500 
L 1159 2969 
Q 1341 3281 1617 3432 
Q 1894 3584 2278 3584 
Q 2916 3584 3314 3078 
Q 3713 2572 3713 1747 
Q 3713 922 3314 415 
Q 2916 -91 2278 -91 
Q 1894 -91 1617 61 
Q 1341 213 1159 525 
z
M 3116 1747 
Q 3116 2381 2855 2742 
Q 2594 3103 2138 3103 
Q 1681 3103 1420 2742 
Q 1159 2381 1159 1747 
Q 1159 1113 1420 752 
Q 1681 391 2138 391 
Q 2594 391 2855 752 
Q 3116 1113 3116 1747 
z
" transform="scale(0.015625)"/>
       <path id="DejaVuSans-63" d="M 3122 3366 
L 3122 2828 
Q 2878 2963 2633 3030 
Q 2388 3097 2138 3097 
Q 1578 3097 1268 2742 
Q 959 2388 959 1747 
Q 959 1106 1268 751 
Q 1578 397 2138 397 
Q 2388 397 2633 464 
Q 2878 531 3122 666 
L 3122 134 
Q 2881 22 2623 -34 
Q 2366 -91 2075 -91 
Q 1284 -91 818 406 
Q 353 903 353 1747 
Q 353 2603 823 3093 
Q 1294 3584 2113 3584 
Q 2378 3584 2631 3529 
Q 2884 3475 3122 3366 
z
" transform="scale(0.015625)"/>
      </defs>
      <use xlink:href="#DejaVuSans-53"/>
      <use xlink:href="#DejaVuSans-69" x="63.476562"/>
      <use xlink:href="#DejaVuSans-7a" x="91.259766"/>
      <use xlink:href="#DejaVuSans-65" x="143.75"/>
      <use xlink:href="#DejaVuSans-20" x="205.273438"/>
      <use xlink:href="#DejaVuSans-70" x="237.060547"/>
      <use xlink:href="#DejaVuSans-65" x="300.537109"/>
      <use xlink:href="#DejaVuSans-72" x="362.060547"/>
      <use xlink:href="#DejaVuSans-20" x="403.173828"/>
      <use xlink:href="#DejaVuSans-53" x="434.960938"/>
      <use xlink:href="#DejaVuSans-70" x="498.4375"/>
      <use xlink:href="#DejaVuSans-65" x="561.914062"/>
      <use xlink:href="#DejaVuSans-63" x="623.4375"/>
      <use xlink:href="#DejaVuSans-69" x="678.417969"/>
      <use xlink:href="#DejaVuSans-65" x="706.201172"/>
      <use xlink:href="#DejaVuSans-73" x="767.724609"/>
     </g>
    </g>
   </g>
   <g id="patch_3">
    <path d="M 57.6 307.584 
L 57.6 41.472 
" style="fill: none; stroke: #000000; stroke-width: 0.8; stroke-linejoin: miter; stroke-linecap: square"/>
   </g>
   <g id="patch_4">
    <path d="M 414.72 307.584 
L 414.72 41.472 
" style="fill: none; stroke: #000000; stroke-width: 0.8; stroke-linejoin: miter; stroke-linecap: square"/>
   </g>
   <g id="patch_5">
    <path d="M 57.6 307.584 
L 414.72 307.584 
" style="fill: none; stroke: #000000; stroke-width: 0.8; stroke-linejoin: miter; stroke-linecap: square"/>
   </g>
   <g id="patch_6">
    <path d="M 57.6 41.472 
L 414.72 41.472 
" style="fill: none; stroke: #000000; stroke-width: 0.8; stroke-linejoin: miter; stroke-linecap: square"/>
   </g>
   <g id="text_15">
    <!-- Speciation -->
    <g transform="translate(204.714375 35.472) scale(0.12 -0.12)">
     <use xlink:href="#DejaVuSans-53"/>
     <use xlink:href="#DejaVuSans-70" x="63.476562"/>
     <use xlink:href="#DejaVuSans-65" x="126.953125"/>
     <use xlink:href="#DejaVuSans-63" x="188.476562"/>
     <use xlink:href="#DejaVuSans-69" x="243.457031"/>
     <use xlink:href="#DejaVuSans-61" x="271.240234"/>
     <use xlink:href="#DejaVuSans-74" x="332.519531"/>
     <use xlink:href="#DejaVuSans-69" x="371.728516"/>
     <use xlink:href="#DejaVuSans-6f" x="399.511719"/>
     <use xlink:href="#DejaVuSans-6e" x="460.693359"/>
    </g>
   </g>
  </g>
 </g>
 <defs>
  <clipPath id="pb509cda880">
   <rect x="57.6" y="41.472" width="357.12" height="266.112"/>
  </clipPath>
 </defs>
</svg>
