<?xml version="1.0" encoding="utf-8" standalone="no"?>
<!DOCTYPE svg PUBLIC "-//W3C//DTD SVG 1.1//EN"
  "http://www.w3.org/Graphics/SVG/1.1/DTD/svg11.dtd">
<svg xmlns:xlink="http://www.w3.org/1999/xlink" width="460.8pt" height="345.6pt" viewBox="0 0 460.8 345.6" xmlns="http://www.w3.org/2000/svg" version="1.1">
 <metadata>
  <rdf:RDF xmlns:dc="http://purl.org/dc/elements/1.1/" xmlns:cc="http://creativecommons.org/ns#" xmlns:rdf="http://www.w3.org/1999/02/22-rdf-syntax-ns#">
   <cc:Work>
    <dc:type rdf:resource="http://purl.org/dc/dcmitype/StillImage"/>
    <dc:date>2024-08-11T15:07:08.587009</dc:date>
    <dc:format>image/svg+xml</dc:format>
    <dc:creator>
     <cc:Agent>
      <dc:title>Matplotlib v3.8.4, https://matplotlib.org/</dc:title>
     </cc:Agent>
    </dc:creator>
   </cc:Work>
  </rdf:RDF>
 </metadata>
 <defs>
  <style type="text/css">*{stroke-linejoin: round; stroke-linecap: butt}</style>
 </defs>
 <g id="figure_1">
  <g id="patch_1">
   <path d="M 0 345.6 
L 460.8 345.6 
L 460.8 0 
L 0 0 
z
" style="fill: #ffffff"/>
  </g>
  <g id="axes_1">
   <g id="patch_2">
    <path d="M 57.6 307.584 
L 414.72 307.584 
L 414.72 41.472 
L 57.6 41.472 
z
" style="fill: #ffffff"/>
   </g>
   <g id="PolyCollection_1">
    <path d="M 73.832727 273.467077 
L 73.832727 307.584 
L 80.45833 307.584 
L 87.083933 307.584 
L 93.709536 307.584 
L 100.335139 307.584 
L 106.960742 307.584 
L 113.586345 307.584 
L 120.211948 307.584 
L 126.837551 307.584 
L 133.463154 307.584 
L 140.088757 307.584 
L 146.71436 307.584 
L 153.339963 307.584 
L 159.965566 307.584 
L 166.591169 307.584 
L 173.216772 307.584 
L 179.842375 307.584 
L 186.467978 307.584 
L 193.093581 307.584 
L 199.719184 307.584 
L 206.344787 307.584 
L 212.97039 307.584 
L 219.595993 307.584 
L 226.221596 307.584 
L 232.847199 307.584 
L 239.472801 307.584 
L 246.098404 307.584 
L 252.724007 307.584 
L 259.34961 307.584 
L 265.975213 307.584 
L 272.600816 307.584 
L 279.226419 307.584 
L 285.852022 307.584 
L 292.477625 307.584 
L 299.103228 307.584 
L 305.728831 307.584 
L 312.354434 307.584 
L 318.980037 307.584 
L 325.60564 307.584 
L 332.231243 307.584 
L 338.856846 307.584 
L 345.482449 307.584 
L 352.108052 307.584 
L 358.733655 307.584 
L 365.359258 307.584 
L 371.984861 307.584 
L 378.610464 307.584 
L 385.236067 307.584 
L 391.86167 307.584 
L 398.487273 307.584 
L 398.487273 307.584 
L 398.487273 307.584 
L 391.86167 307.584 
L 385.236067 307.584 
L 378.610464 307.584 
L 371.984861 307.584 
L 365.359258 307.584 
L 358.733655 307.584 
L 352.108052 307.584 
L 345.482449 307.584 
L 338.856846 307.584 
L 332.231243 307.584 
L 325.60564 289.307077 
L 318.980037 297.836308 
L 312.354434 301.491692 
L 305.728831 290.525538 
L 299.103228 295.399385 
L 292.477625 292.962462 
L 285.852022 297.836308 
L 279.226419 294.180923 
L 272.600816 294.180923 
L 265.975213 297.836308 
L 259.34961 281.996308 
L 252.724007 297.836308 
L 246.098404 290.525538 
L 239.472801 284.433231 
L 232.847199 290.525538 
L 226.221596 286.870154 
L 219.595993 286.870154 
L 212.97039 295.399385 
L 206.344787 286.870154 
L 199.719184 271.030154 
L 193.093581 261.282462 
L 186.467978 268.593231 
L 179.842375 272.248615 
L 173.216772 289.307077 
L 166.591169 289.307077 
L 159.965566 283.214769 
L 153.339963 285.651692 
L 146.71436 285.651692 
L 140.088757 291.744 
L 133.463154 301.491692 
L 126.837551 264.937846 
L 120.211948 280.777846 
L 113.586345 271.030154 
L 106.960742 277.122462 
L 100.335139 284.433231 
L 93.709536 290.525538 
L 87.083933 280.777846 
L 80.45833 281.996308 
L 73.832727 273.467077 
z
" clip-path="url(#p4394a6c08b)" style="fill: #1f77b4"/>
   </g>
   <g id="PolyCollection_2">
    <path d="M 73.832727 219.854769 
L 73.832727 273.467077 
L 80.45833 281.996308 
L 87.083933 280.777846 
L 93.709536 290.525538 
L 100.335139 284.433231 
L 106.960742 277.122462 
L 113.586345 271.030154 
L 120.211948 280.777846 
L 126.837551 264.937846 
L 133.463154 301.491692 
L 140.088757 291.744 
L 146.71436 285.651692 
L 153.339963 285.651692 
L 159.965566 283.214769 
L 166.591169 289.307077 
L 173.216772 289.307077 
L 179.842375 272.248615 
L 186.467978 268.593231 
L 193.093581 261.282462 
L 199.719184 271.030154 
L 206.344787 286.870154 
L 212.97039 295.399385 
L 219.595993 286.870154 
L 226.221596 286.870154 
L 232.847199 290.525538 
L 239.472801 284.433231 
L 246.098404 290.525538 
L 252.724007 297.836308 
L 259.34961 281.996308 
L 265.975213 297.836308 
L 272.600816 294.180923 
L 279.226419 294.180923 
L 285.852022 297.836308 
L 292.477625 292.962462 
L 299.103228 295.399385 
L 305.728831 290.525538 
L 312.354434 301.491692 
L 318.980037 297.836308 
L 325.60564 289.307077 
L 332.231243 307.584 
L 338.856846 307.584 
L 345.482449 307.584 
L 352.108052 307.584 
L 358.733655 307.584 
L 365.359258 307.584 
L 371.984861 307.584 
L 378.610464 307.584 
L 385.236067 307.584 
L 391.86167 307.584 
L 398.487273 307.584 
L 398.487273 290.525538 
L 398.487273 290.525538 
L 391.86167 290.525538 
L 385.236067 300.273231 
L 378.610464 290.525538 
L 371.984861 245.442462 
L 365.359258 285.651692 
L 358.733655 238.131692 
L 352.108052 291.744 
L 345.482449 294.180923 
L 338.856846 294.180923 
L 332.231243 296.617846 
L 325.60564 271.030154 
L 318.980037 281.996308 
L 312.354434 283.214769 
L 305.728831 277.122462 
L 299.103228 277.122462 
L 292.477625 274.685538 
L 285.852022 258.845538 
L 279.226419 288.088615 
L 272.600816 275.904 
L 265.975213 288.088615 
L 259.34961 267.374769 
L 252.724007 280.777846 
L 246.098404 267.374769 
L 239.472801 266.156308 
L 232.847199 268.593231 
L 226.221596 266.156308 
L 219.595993 272.248615 
L 212.97039 279.559385 
L 206.344787 269.811692 
L 199.719184 244.224 
L 193.093581 238.131692 
L 186.467978 253.971692 
L 179.842375 245.442462 
L 173.216772 277.122462 
L 166.591169 241.787077 
L 159.965566 250.316308 
L 153.339963 279.559385 
L 146.71436 267.374769 
L 140.088757 271.030154 
L 133.463154 250.316308 
L 126.837551 244.224 
L 120.211948 249.097846 
L 113.586345 252.753231 
L 106.960742 262.500923 
L 100.335139 274.685538 
L 93.709536 275.904 
L 87.083933 267.374769 
L 80.45833 257.627077 
L 73.832727 219.854769 
z
" clip-path="url(#p4394a6c08b)" style="fill: #ff7f0e"/>
   </g>
   <g id="PolyCollection_3">
    <path d="M 73.832727 123.596308 
L 73.832727 219.854769 
L 80.45833 257.627077 
L 87.083933 267.374769 
L 93.709536 275.904 
L 100.335139 274.685538 
L 106.960742 262.500923 
L 113.586345 252.753231 
L 120.211948 249.097846 
L 126.837551 244.224 
L 133.463154 250.316308 
L 140.088757 271.030154 
L 146.71436 267.374769 
L 153.339963 279.559385 
L 159.965566 250.316308 
L 166.591169 241.787077 
L 173.216772 277.122462 
L 179.842375 245.442462 
L 186.467978 253.971692 
L 193.093581 238.131692 
L 199.719184 244.224 
L 206.344787 269.811692 
L 212.97039 279.559385 
L 219.595993 272.248615 
L 226.221596 266.156308 
L 232.847199 268.593231 
L 239.472801 266.156308 
L 246.098404 267.374769 
L 252.724007 280.777846 
L 259.34961 267.374769 
L 265.975213 288.088615 
L 272.600816 275.904 
L 279.226419 288.088615 
L 285.852022 258.845538 
L 292.477625 274.685538 
L 299.103228 277.122462 
L 305.728831 277.122462 
L 312.354434 283.214769 
L 318.980037 281.996308 
L 325.60564 271.030154 
L 332.231243 296.617846 
L 338.856846 294.180923 
L 345.482449 294.180923 
L 352.108052 291.744 
L 358.733655 238.131692 
L 365.359258 285.651692 
L 371.984861 245.442462 
L 378.610464 290.525538 
L 385.236067 300.273231 
L 391.86167 290.525538 
L 398.487273 290.525538 
L 398.487273 290.525538 
L 398.487273 290.525538 
L 391.86167 290.525538 
L 385.236067 300.273231 
L 378.610464 290.525538 
L 371.984861 245.442462 
L 365.359258 285.651692 
L 358.733655 238.131692 
L 352.108052 291.744 
L 345.482449 294.180923 
L 338.856846 294.180923 
L 332.231243 296.617846 
L 325.60564 271.030154 
L 318.980037 264.937846 
L 312.354434 202.796308 
L 305.728831 262.500923 
L 299.103228 221.073231 
L 292.477625 247.879385 
L 285.852022 213.762462 
L 279.226419 274.685538 
L 272.600816 264.937846 
L 265.975213 281.996308 
L 259.34961 250.316308 
L 252.724007 268.593231 
L 246.098404 244.224 
L 239.472801 243.005538 
L 232.847199 250.316308 
L 226.221596 244.224 
L 219.595993 246.660923 
L 212.97039 266.156308 
L 206.344787 255.190154 
L 199.719184 221.073231 
L 193.093581 214.980923 
L 186.467978 241.787077 
L 179.842375 229.602462 
L 173.216772 249.097846 
L 166.591169 221.073231 
L 159.965566 233.257846 
L 153.339963 264.937846 
L 146.71436 245.442462 
L 140.088757 234.476308 
L 133.463154 228.384 
L 126.837551 228.384 
L 120.211948 225.947077 
L 113.586345 233.257846 
L 106.960742 228.384 
L 100.335139 207.670154 
L 93.709536 216.199385 
L 87.083933 233.257846 
L 80.45833 193.048615 
L 73.832727 123.596308 
z
" clip-path="url(#p4394a6c08b)" style="fill: #2ca02c"/>
   </g>
   <g id="PolyCollection_4">
    <path d="M 73.832727 115.067077 
L 73.832727 123.596308 
L 80.45833 193.048615 
L 87.083933 233.257846 
L 93.709536 216.199385 
L 100.335139 207.670154 
L 106.960742 228.384 
L 113.586345 233.257846 
L 120.211948 225.947077 
L 126.837551 228.384 
L 133.463154 228.384 
L 140.088757 234.476308 
L 146.71436 245.442462 
L 153.339963 264.937846 
L 159.965566 233.257846 
L 166.591169 221.073231 
L 173.216772 249.097846 
L 179.842375 229.602462 
L 186.467978 241.787077 
L 193.093581 214.980923 
L 199.719184 221.073231 
L 206.344787 255.190154 
L 212.97039 266.156308 
L 219.595993 246.660923 
L 226.221596 244.224 
L 232.847199 250.316308 
L 239.472801 243.005538 
L 246.098404 244.224 
L 252.724007 268.593231 
L 259.34961 250.316308 
L 265.975213 281.996308 
L 272.600816 264.937846 
L 279.226419 274.685538 
L 285.852022 213.762462 
L 292.477625 247.879385 
L 299.103228 221.073231 
L 305.728831 262.500923 
L 312.354434 202.796308 
L 318.980037 264.937846 
L 325.60564 271.030154 
L 332.231243 296.617846 
L 338.856846 294.180923 
L 345.482449 294.180923 
L 352.108052 291.744 
L 358.733655 238.131692 
L 365.359258 285.651692 
L 371.984861 245.442462 
L 378.610464 290.525538 
L 385.236067 300.273231 
L 391.86167 290.525538 
L 398.487273 290.525538 
L 398.487273 229.602462 
L 398.487273 229.602462 
L 391.86167 255.190154 
L 385.236067 245.442462 
L 378.610464 255.190154 
L 371.984861 222.291692 
L 365.359258 264.937846 
L 358.733655 232.039385 
L 352.108052 268.593231 
L 345.482449 272.248615 
L 338.856846 272.248615 
L 332.231243 262.500923 
L 325.60564 250.316308 
L 318.980037 252.753231 
L 312.354434 194.267077 
L 305.728831 245.442462 
L 299.103228 210.107077 
L 292.477625 234.476308 
L 285.852022 200.359385 
L 279.226419 264.937846 
L 272.600816 172.334769 
L 265.975213 269.811692 
L 259.34961 227.165538 
L 252.724007 262.500923 
L 246.098404 219.854769 
L 239.472801 219.854769 
L 232.847199 228.384 
L 226.221596 234.476308 
L 219.595993 233.257846 
L 212.97039 247.879385 
L 206.344787 239.350154 
L 199.719184 206.451692 
L 193.093581 201.577846 
L 186.467978 232.039385 
L 179.842375 213.762462 
L 173.216772 239.350154 
L 166.591169 213.762462 
L 159.965566 221.073231 
L 153.339963 252.753231 
L 146.71436 235.694769 
L 140.088757 214.980923 
L 133.463154 212.544 
L 126.837551 214.980923 
L 120.211948 212.544 
L 113.586345 219.854769 
L 106.960742 214.980923 
L 100.335139 194.267077 
L 93.709536 197.922462 
L 87.083933 217.417846 
L 80.45833 177.208615 
L 73.832727 115.067077 
z
" clip-path="url(#p4394a6c08b)" style="fill: #d62728"/>
   </g>
   <g id="PolyCollection_5">
    <path d="M 73.832727 90.697846 
L 73.832727 115.067077 
L 80.45833 177.208615 
L 87.083933 217.417846 
L 93.709536 197.922462 
L 100.335139 194.267077 
L 106.960742 214.980923 
L 113.586345 219.854769 
L 120.211948 212.544 
L 126.837551 214.980923 
L 133.463154 212.544 
L 140.088757 214.980923 
L 146.71436 235.694769 
L 153.339963 252.753231 
L 159.965566 221.073231 
L 166.591169 213.762462 
L 173.216772 239.350154 
L 179.842375 213.762462 
L 186.467978 232.039385 
L 193.093581 201.577846 
L 199.719184 206.451692 
L 206.344787 239.350154 
L 212.97039 247.879385 
L 219.595993 233.257846 
L 226.221596 234.476308 
L 232.847199 228.384 
L 239.472801 219.854769 
L 246.098404 219.854769 
L 252.724007 262.500923 
L 259.34961 227.165538 
L 265.975213 269.811692 
L 272.600816 172.334769 
L 279.226419 264.937846 
L 285.852022 200.359385 
L 292.477625 234.476308 
L 299.103228 210.107077 
L 305.728831 245.442462 
L 312.354434 194.267077 
L 318.980037 252.753231 
L 325.60564 250.316308 
L 332.231243 262.500923 
L 338.856846 272.248615 
L 345.482449 272.248615 
L 352.108052 268.593231 
L 358.733655 232.039385 
L 365.359258 264.937846 
L 371.984861 222.291692 
L 378.610464 255.190154 
L 385.236067 245.442462 
L 391.86167 255.190154 
L 398.487273 229.602462 
L 398.487273 229.602462 
L 398.487273 229.602462 
L 391.86167 255.190154 
L 385.236067 245.442462 
L 378.610464 255.190154 
L 371.984861 222.291692 
L 365.359258 264.937846 
L 358.733655 232.039385 
L 352.108052 268.593231 
L 345.482449 272.248615 
L 338.856846 272.248615 
L 332.231243 262.500923 
L 325.60564 250.316308 
L 318.980037 239.350154 
L 312.354434 185.737846 
L 305.728831 230.820923 
L 299.103228 191.830154 
L 292.477625 213.762462 
L 285.852022 184.519385 
L 279.226419 245.442462 
L 272.600816 166.242462 
L 265.975213 257.627077 
L 259.34961 204.014769 
L 252.724007 253.971692 
L 246.098404 191.830154 
L 239.472801 178.427077 
L 232.847199 207.670154 
L 226.221596 189.393231 
L 219.595993 219.854769 
L 212.97039 217.417846 
L 206.344787 206.451692 
L 199.719184 188.174769 
L 193.093581 174.771692 
L 186.467978 171.116308 
L 179.842375 190.611692 
L 173.216772 213.762462 
L 166.591169 184.519385 
L 159.965566 188.174769 
L 153.339963 232.039385 
L 146.71436 216.199385 
L 140.088757 199.140923 
L 133.463154 188.174769 
L 126.837551 193.048615 
L 120.211948 184.519385 
L 113.586345 186.956308 
L 106.960742 184.519385 
L 100.335139 171.116308 
L 93.709536 172.334769 
L 87.083933 150.402462 
L 80.45833 128.470154 
L 73.832727 90.697846 
z
" clip-path="url(#p4394a6c08b)" style="fill: #9467bd"/>
   </g>
   <g id="PolyCollection_6">
    <path d="M 73.832727 87.042462 
L 73.832727 90.697846 
L 80.45833 128.470154 
L 87.083933 150.402462 
L 93.709536 172.334769 
L 100.335139 171.116308 
L 106.960742 184.519385 
L 113.586345 186.956308 
L 120.211948 184.519385 
L 126.837551 193.048615 
L 133.463154 188.174769 
L 140.088757 199.140923 
L 146.71436 216.199385 
L 153.339963 232.039385 
L 159.965566 188.174769 
L 166.591169 184.519385 
L 173.216772 213.762462 
L 179.842375 190.611692 
L 186.467978 171.116308 
L 193.093581 174.771692 
L 199.719184 188.174769 
L 206.344787 206.451692 
L 212.97039 217.417846 
L 219.595993 219.854769 
L 226.221596 189.393231 
L 232.847199 207.670154 
L 239.472801 178.427077 
L 246.098404 191.830154 
L 252.724007 253.971692 
L 259.34961 204.014769 
L 265.975213 257.627077 
L 272.600816 166.242462 
L 279.226419 245.442462 
L 285.852022 184.519385 
L 292.477625 213.762462 
L 299.103228 191.830154 
L 305.728831 230.820923 
L 312.354434 185.737846 
L 318.980037 239.350154 
L 325.60564 250.316308 
L 332.231243 262.500923 
L 338.856846 272.248615 
L 345.482449 272.248615 
L 352.108052 268.593231 
L 358.733655 232.039385 
L 365.359258 264.937846 
L 371.984861 222.291692 
L 378.610464 255.190154 
L 385.236067 245.442462 
L 391.86167 255.190154 
L 398.487273 229.602462 
L 398.487273 229.602462 
L 398.487273 229.602462 
L 391.86167 255.190154 
L 385.236067 245.442462 
L 378.610464 255.190154 
L 371.984861 222.291692 
L 365.359258 264.937846 
L 358.733655 232.039385 
L 352.108052 268.593231 
L 345.482449 272.248615 
L 338.856846 272.248615 
L 332.231243 262.500923 
L 325.60564 250.316308 
L 318.980037 239.350154 
L 312.354434 185.737846 
L 305.728831 230.820923 
L 299.103228 191.830154 
L 292.477625 213.762462 
L 285.852022 184.519385 
L 279.226419 245.442462 
L 272.600816 166.242462 
L 265.975213 257.627077 
L 259.34961 204.014769 
L 252.724007 253.971692 
L 246.098404 191.830154 
L 239.472801 178.427077 
L 232.847199 190.611692 
L 226.221596 172.334769 
L 219.595993 207.670154 
L 212.97039 201.577846 
L 206.344787 190.611692 
L 199.719184 171.116308 
L 193.093581 161.368615 
L 186.467978 158.931692 
L 179.842375 179.645538 
L 173.216772 197.922462 
L 166.591169 169.897846 
L 159.965566 163.805538 
L 153.339963 217.417846 
L 146.71436 207.670154 
L 140.088757 184.519385 
L 133.463154 175.990154 
L 126.837551 179.645538 
L 120.211948 174.771692 
L 113.586345 178.427077 
L 106.960742 173.553231 
L 100.335139 160.150154 
L 93.709536 161.368615 
L 87.083933 140.654769 
L 80.45833 118.722462 
L 73.832727 87.042462 
z
" clip-path="url(#p4394a6c08b)" style="fill: #8c564b"/>
   </g>
   <g id="PolyCollection_7">
    <path d="M 73.832727 77.294769 
L 73.832727 87.042462 
L 80.45833 118.722462 
L 87.083933 140.654769 
L 93.709536 161.368615 
L 100.335139 160.150154 
L 106.960742 173.553231 
L 113.586345 178.427077 
L 120.211948 174.771692 
L 126.837551 179.645538 
L 133.463154 175.990154 
L 140.088757 184.519385 
L 146.71436 207.670154 
L 153.339963 217.417846 
L 159.965566 163.805538 
L 166.591169 169.897846 
L 173.216772 197.922462 
L 179.842375 179.645538 
L 186.467978 158.931692 
L 193.093581 161.368615 
L 199.719184 171.116308 
L 206.344787 190.611692 
L 212.97039 201.577846 
L 219.595993 207.670154 
L 226.221596 172.334769 
L 232.847199 190.611692 
L 239.472801 178.427077 
L 246.098404 191.830154 
L 252.724007 253.971692 
L 259.34961 204.014769 
L 265.975213 257.627077 
L 272.600816 166.242462 
L 279.226419 245.442462 
L 285.852022 184.519385 
L 292.477625 213.762462 
L 299.103228 191.830154 
L 305.728831 230.820923 
L 312.354434 185.737846 
L 318.980037 239.350154 
L 325.60564 250.316308 
L 332.231243 262.500923 
L 338.856846 272.248615 
L 345.482449 272.248615 
L 352.108052 268.593231 
L 358.733655 232.039385 
L 365.359258 264.937846 
L 371.984861 222.291692 
L 378.610464 255.190154 
L 385.236067 245.442462 
L 391.86167 255.190154 
L 398.487273 229.602462 
L 398.487273 229.602462 
L 398.487273 229.602462 
L 391.86167 255.190154 
L 385.236067 245.442462 
L 378.610464 255.190154 
L 371.984861 222.291692 
L 365.359258 264.937846 
L 358.733655 232.039385 
L 352.108052 268.593231 
L 345.482449 272.248615 
L 338.856846 272.248615 
L 332.231243 262.500923 
L 325.60564 250.316308 
L 318.980037 239.350154 
L 312.354434 185.737846 
L 305.728831 230.820923 
L 299.103228 191.830154 
L 292.477625 213.762462 
L 285.852022 184.519385 
L 279.226419 245.442462 
L 272.600816 166.242462 
L 265.975213 257.627077 
L 259.34961 204.014769 
L 252.724007 253.971692 
L 246.098404 191.830154 
L 239.472801 178.427077 
L 232.847199 190.611692 
L 226.221596 155.276308 
L 219.595993 182.082462 
L 212.97039 180.864 
L 206.344787 169.897846 
L 199.719184 147.965538 
L 193.093581 140.654769 
L 186.467978 141.873231 
L 179.842375 167.460923 
L 173.216772 177.208615 
L 166.591169 152.839385 
L 159.965566 146.747077 
L 153.339963 199.140923 
L 146.71436 183.300923 
L 140.088757 163.805538 
L 133.463154 150.402462 
L 126.837551 160.150154 
L 120.211948 150.402462 
L 113.586345 158.931692 
L 106.960742 146.747077 
L 100.335139 140.654769 
L 93.709536 122.377846 
L 87.083933 116.285538 
L 80.45833 107.756308 
L 73.832727 77.294769 
z
" clip-path="url(#p4394a6c08b)" style="fill: #e377c2"/>
   </g>
   <g id="PolyCollection_8">
    <path d="M 73.832727 72.420923 
L 73.832727 77.294769 
L 80.45833 107.756308 
L 87.083933 116.285538 
L 93.709536 122.377846 
L 100.335139 140.654769 
L 106.960742 146.747077 
L 113.586345 158.931692 
L 120.211948 150.402462 
L 126.837551 160.150154 
L 133.463154 150.402462 
L 140.088757 163.805538 
L 146.71436 183.300923 
L 153.339963 199.140923 
L 159.965566 146.747077 
L 166.591169 152.839385 
L 173.216772 177.208615 
L 179.842375 167.460923 
L 186.467978 141.873231 
L 193.093581 140.654769 
L 199.719184 147.965538 
L 206.344787 169.897846 
L 212.97039 180.864 
L 219.595993 182.082462 
L 226.221596 155.276308 
L 232.847199 190.611692 
L 239.472801 178.427077 
L 246.098404 191.830154 
L 252.724007 253.971692 
L 259.34961 204.014769 
L 265.975213 257.627077 
L 272.600816 166.242462 
L 279.226419 245.442462 
L 285.852022 184.519385 
L 292.477625 213.762462 
L 299.103228 191.830154 
L 305.728831 230.820923 
L 312.354434 185.737846 
L 318.980037 239.350154 
L 325.60564 250.316308 
L 332.231243 262.500923 
L 338.856846 272.248615 
L 345.482449 272.248615 
L 352.108052 268.593231 
L 358.733655 232.039385 
L 365.359258 264.937846 
L 371.984861 222.291692 
L 378.610464 255.190154 
L 385.236067 245.442462 
L 391.86167 255.190154 
L 398.487273 229.602462 
L 398.487273 229.602462 
L 398.487273 229.602462 
L 391.86167 255.190154 
L 385.236067 245.442462 
L 378.610464 255.190154 
L 371.984861 222.291692 
L 365.359258 264.937846 
L 358.733655 232.039385 
L 352.108052 268.593231 
L 345.482449 272.248615 
L 338.856846 272.248615 
L 332.231243 262.500923 
L 325.60564 250.316308 
L 318.980037 239.350154 
L 312.354434 174.771692 
L 305.728831 216.199385 
L 299.103228 179.645538 
L 292.477625 199.140923 
L 285.852022 168.679385 
L 279.226419 232.039385 
L 272.600816 155.276308 
L 265.975213 243.005538 
L 259.34961 188.174769 
L 252.724007 145.528615 
L 246.098404 166.242462 
L 239.472801 165.024 
L 232.847199 119.940923 
L 226.221596 115.067077 
L 219.595993 160.150154 
L 212.97039 165.024 
L 206.344787 143.091692 
L 199.719184 123.596308 
L 193.093581 124.814769 
L 186.467978 117.504 
L 179.842375 117.504 
L 173.216772 147.965538 
L 166.591169 134.562462 
L 159.965566 122.377846 
L 153.339963 178.427077 
L 146.71436 167.460923 
L 140.088757 149.184 
L 133.463154 133.344 
L 126.837551 144.310154 
L 120.211948 129.688615 
L 113.586345 143.091692 
L 106.960742 123.596308 
L 100.335139 122.377846 
L 93.709536 110.193231 
L 87.083933 106.537846 
L 80.45833 91.916308 
L 73.832727 72.420923 
z
" clip-path="url(#p4394a6c08b)" style="fill: #7f7f7f"/>
   </g>
   <g id="PolyCollection_9">
    <path d="M 73.832727 71.202462 
L 73.832727 72.420923 
L 80.45833 91.916308 
L 87.083933 106.537846 
L 93.709536 110.193231 
L 100.335139 122.377846 
L 106.960742 123.596308 
L 113.586345 143.091692 
L 120.211948 129.688615 
L 126.837551 144.310154 
L 133.463154 133.344 
L 140.088757 149.184 
L 146.71436 167.460923 
L 153.339963 178.427077 
L 159.965566 122.377846 
L 166.591169 134.562462 
L 173.216772 147.965538 
L 179.842375 117.504 
L 186.467978 117.504 
L 193.093581 124.814769 
L 199.719184 123.596308 
L 206.344787 143.091692 
L 212.97039 165.024 
L 219.595993 160.150154 
L 226.221596 115.067077 
L 232.847199 119.940923 
L 239.472801 165.024 
L 246.098404 166.242462 
L 252.724007 145.528615 
L 259.34961 188.174769 
L 265.975213 243.005538 
L 272.600816 155.276308 
L 279.226419 232.039385 
L 285.852022 168.679385 
L 292.477625 199.140923 
L 299.103228 179.645538 
L 305.728831 216.199385 
L 312.354434 174.771692 
L 318.980037 239.350154 
L 325.60564 250.316308 
L 332.231243 262.500923 
L 338.856846 272.248615 
L 345.482449 272.248615 
L 352.108052 268.593231 
L 358.733655 232.039385 
L 365.359258 264.937846 
L 371.984861 222.291692 
L 378.610464 255.190154 
L 385.236067 245.442462 
L 391.86167 255.190154 
L 398.487273 229.602462 
L 398.487273 229.602462 
L 398.487273 229.602462 
L 391.86167 255.190154 
L 385.236067 245.442462 
L 378.610464 255.190154 
L 371.984861 222.291692 
L 365.359258 264.937846 
L 358.733655 232.039385 
L 352.108052 268.593231 
L 345.482449 272.248615 
L 338.856846 272.248615 
L 332.231243 262.500923 
L 325.60564 250.316308 
L 318.980037 239.350154 
L 312.354434 174.771692 
L 305.728831 216.199385 
L 299.103228 179.645538 
L 292.477625 199.140923 
L 285.852022 168.679385 
L 279.226419 232.039385 
L 272.600816 155.276308 
L 265.975213 243.005538 
L 259.34961 188.174769 
L 252.724007 145.528615 
L 246.098404 166.242462 
L 239.472801 165.024 
L 232.847199 119.940923 
L 226.221596 115.067077 
L 219.595993 150.402462 
L 212.97039 154.057846 
L 206.344787 130.907077 
L 199.719184 111.411692 
L 193.093581 112.630154 
L 186.467978 104.100923 
L 179.842375 105.319385 
L 173.216772 135.780923 
L 166.591169 123.596308 
L 159.965566 107.756308 
L 153.339963 161.368615 
L 146.71436 150.402462 
L 140.088757 133.344 
L 133.463154 118.722462 
L 126.837551 129.688615 
L 120.211948 116.285538 
L 113.586345 126.033231 
L 106.960742 108.974769 
L 100.335139 110.193231 
L 93.709536 98.008615 
L 87.083933 95.571692 
L 80.45833 82.168615 
L 73.832727 71.202462 
z
" clip-path="url(#p4394a6c08b)" style="fill: #bcbd22"/>
   </g>
   <g id="PolyCollection_10">
    <path d="M 73.832727 68.765538 
L 73.832727 71.202462 
L 80.45833 82.168615 
L 87.083933 95.571692 
L 93.709536 98.008615 
L 100.335139 110.193231 
L 106.960742 108.974769 
L 113.586345 126.033231 
L 120.211948 116.285538 
L 126.837551 129.688615 
L 133.463154 118.722462 
L 140.088757 133.344 
L 146.71436 150.402462 
L 153.339963 161.368615 
L 159.965566 107.756308 
L 166.591169 123.596308 
L 173.216772 135.780923 
L 179.842375 105.319385 
L 186.467978 104.100923 
L 193.093581 112.630154 
L 199.719184 111.411692 
L 206.344787 130.907077 
L 212.97039 154.057846 
L 219.595993 150.402462 
L 226.221596 115.067077 
L 232.847199 119.940923 
L 239.472801 165.024 
L 246.098404 166.242462 
L 252.724007 145.528615 
L 259.34961 188.174769 
L 265.975213 243.005538 
L 272.600816 155.276308 
L 279.226419 232.039385 
L 285.852022 168.679385 
L 292.477625 199.140923 
L 299.103228 179.645538 
L 305.728831 216.199385 
L 312.354434 174.771692 
L 318.980037 239.350154 
L 325.60564 250.316308 
L 332.231243 262.500923 
L 338.856846 272.248615 
L 345.482449 272.248615 
L 352.108052 268.593231 
L 358.733655 232.039385 
L 365.359258 264.937846 
L 371.984861 222.291692 
L 378.610464 255.190154 
L 385.236067 245.442462 
L 391.86167 255.190154 
L 398.487273 229.602462 
L 398.487273 218.636308 
L 398.487273 218.636308 
L 391.86167 236.913231 
L 385.236067 222.291692 
L 378.610464 230.820923 
L 371.984861 208.888615 
L 365.359258 232.039385 
L 358.733655 217.417846 
L 352.108052 238.131692 
L 345.482449 241.787077 
L 338.856846 241.787077 
L 332.231243 229.602462 
L 325.60564 211.325538 
L 318.980037 208.888615 
L 312.354434 160.150154 
L 305.728831 201.577846 
L 299.103228 166.242462 
L 292.477625 186.956308 
L 285.852022 161.368615 
L 279.226419 157.713231 
L 272.600816 150.402462 
L 265.975213 175.990154 
L 259.34961 150.402462 
L 252.724007 123.596308 
L 246.098404 136.999385 
L 239.472801 117.504 
L 232.847199 93.134769 
L 226.221596 93.134769 
L 219.595993 140.654769 
L 212.97039 136.999385 
L 206.344787 112.630154 
L 199.719184 90.697846 
L 193.093581 93.134769 
L 186.467978 90.697846 
L 179.842375 91.916308 
L 173.216772 132.125538 
L 166.591169 88.260923 
L 159.965566 90.697846 
L 153.339963 149.184 
L 146.71436 122.377846 
L 140.088757 111.411692 
L 133.463154 89.479385 
L 126.837551 90.697846 
L 120.211948 95.571692 
L 113.586345 107.756308 
L 106.960742 93.134769 
L 100.335139 78.513231 
L 93.709536 88.260923 
L 87.083933 78.513231 
L 80.45833 71.202462 
L 73.832727 68.765538 
z
" clip-path="url(#p4394a6c08b)" style="fill: #17becf"/>
   </g>
   <g id="PolyCollection_11">
    <path d="M 73.832727 63.891692 
L 73.832727 68.765538 
L 80.45833 71.202462 
L 87.083933 78.513231 
L 93.709536 88.260923 
L 100.335139 78.513231 
L 106.960742 93.134769 
L 113.586345 107.756308 
L 120.211948 95.571692 
L 126.837551 90.697846 
L 133.463154 89.479385 
L 140.088757 111.411692 
L 146.71436 122.377846 
L 153.339963 149.184 
L 159.965566 90.697846 
L 166.591169 88.260923 
L 173.216772 132.125538 
L 179.842375 91.916308 
L 186.467978 90.697846 
L 193.093581 93.134769 
L 199.719184 90.697846 
L 206.344787 112.630154 
L 212.97039 136.999385 
L 219.595993 140.654769 
L 226.221596 93.134769 
L 232.847199 93.134769 
L 239.472801 117.504 
L 246.098404 136.999385 
L 252.724007 123.596308 
L 259.34961 150.402462 
L 265.975213 175.990154 
L 272.600816 150.402462 
L 279.226419 157.713231 
L 285.852022 161.368615 
L 292.477625 186.956308 
L 299.103228 166.242462 
L 305.728831 201.577846 
L 312.354434 160.150154 
L 318.980037 208.888615 
L 325.60564 211.325538 
L 332.231243 229.602462 
L 338.856846 241.787077 
L 345.482449 241.787077 
L 352.108052 238.131692 
L 358.733655 217.417846 
L 365.359258 232.039385 
L 371.984861 208.888615 
L 378.610464 230.820923 
L 385.236067 222.291692 
L 391.86167 236.913231 
L 398.487273 218.636308 
L 398.487273 218.636308 
L 398.487273 218.636308 
L 391.86167 236.913231 
L 385.236067 222.291692 
L 378.610464 230.820923 
L 371.984861 208.888615 
L 365.359258 232.039385 
L 358.733655 195.485538 
L 352.108052 221.073231 
L 345.482449 224.728615 
L 338.856846 211.325538 
L 332.231243 197.922462 
L 325.60564 175.990154 
L 318.980037 152.839385 
L 312.354434 147.965538 
L 305.728831 128.470154 
L 299.103228 133.344 
L 292.477625 123.596308 
L 285.852022 129.688615 
L 279.226419 133.344 
L 272.600816 135.780923 
L 265.975213 162.587077 
L 259.34961 129.688615 
L 252.724007 105.319385 
L 246.098404 106.537846 
L 239.472801 93.134769 
L 232.847199 80.950154 
L 226.221596 82.168615 
L 219.595993 71.202462 
L 212.97039 74.857846 
L 206.344787 80.950154 
L 199.719184 78.513231 
L 193.093581 76.076308 
L 186.467978 77.294769 
L 179.842375 80.950154 
L 173.216772 77.294769 
L 166.591169 72.420923 
L 159.965566 77.294769 
L 153.339963 77.294769 
L 146.71436 74.857846 
L 140.088757 78.513231 
L 133.463154 74.857846 
L 126.837551 69.984 
L 120.211948 66.328615 
L 113.586345 63.891692 
L 106.960742 63.891692 
L 100.335139 65.110154 
L 93.709536 62.673231 
L 87.083933 62.673231 
L 80.45833 54.144 
L 73.832727 63.891692 
z
" clip-path="url(#p4394a6c08b)" style="fill: #1f77b4"/>
   </g>
   <g id="PolyCollection_12">
    <path d="M 73.832727 63.891692 
L 73.832727 63.891692 
L 80.45833 54.144 
L 87.083933 62.673231 
L 93.709536 62.673231 
L 100.335139 65.110154 
L 106.960742 63.891692 
L 113.586345 63.891692 
L 120.211948 66.328615 
L 126.837551 69.984 
L 133.463154 74.857846 
L 140.088757 78.513231 
L 146.71436 74.857846 
L 153.339963 77.294769 
L 159.965566 77.294769 
L 166.591169 72.420923 
L 173.216772 77.294769 
L 179.842375 80.950154 
L 186.467978 77.294769 
L 193.093581 76.076308 
L 199.719184 78.513231 
L 206.344787 80.950154 
L 212.97039 74.857846 
L 219.595993 71.202462 
L 226.221596 82.168615 
L 232.847199 80.950154 
L 239.472801 93.134769 
L 246.098404 106.537846 
L 252.724007 105.319385 
L 259.34961 129.688615 
L 265.975213 162.587077 
L 272.600816 135.780923 
L 279.226419 133.344 
L 285.852022 129.688615 
L 292.477625 123.596308 
L 299.103228 133.344 
L 305.728831 128.470154 
L 312.354434 147.965538 
L 318.980037 152.839385 
L 325.60564 175.990154 
L 332.231243 197.922462 
L 338.856846 211.325538 
L 345.482449 224.728615 
L 352.108052 221.073231 
L 358.733655 195.485538 
L 365.359258 232.039385 
L 371.984861 208.888615 
L 378.610464 230.820923 
L 385.236067 222.291692 
L 391.86167 236.913231 
L 398.487273 218.636308 
L 398.487273 218.636308 
L 398.487273 218.636308 
L 391.86167 236.913231 
L 385.236067 222.291692 
L 378.610464 230.820923 
L 371.984861 208.888615 
L 365.359258 232.039385 
L 358.733655 195.485538 
L 352.108052 221.073231 
L 345.482449 224.728615 
L 338.856846 211.325538 
L 332.231243 197.922462 
L 325.60564 175.990154 
L 318.980037 152.839385 
L 312.354434 147.965538 
L 305.728831 128.470154 
L 299.103228 133.344 
L 292.477625 123.596308 
L 285.852022 129.688615 
L 279.226419 133.344 
L 272.600816 135.780923 
L 265.975213 162.587077 
L 259.34961 129.688615 
L 252.724007 93.134769 
L 246.098404 88.260923 
L 239.472801 71.202462 
L 232.847199 62.673231 
L 226.221596 67.547077 
L 219.595993 63.891692 
L 212.97039 63.891692 
L 206.344787 66.328615 
L 199.719184 65.110154 
L 193.093581 62.673231 
L 186.467978 63.891692 
L 179.842375 65.110154 
L 173.216772 63.891692 
L 166.591169 63.891692 
L 159.965566 65.110154 
L 153.339963 63.891692 
L 146.71436 61.454769 
L 140.088757 63.891692 
L 133.463154 63.891692 
L 126.837551 63.891692 
L 120.211948 62.673231 
L 113.586345 63.891692 
L 106.960742 63.891692 
L 100.335139 65.110154 
L 93.709536 62.673231 
L 87.083933 62.673231 
L 80.45833 54.144 
L 73.832727 63.891692 
z
" clip-path="url(#p4394a6c08b)" style="fill: #ff7f0e"/>
   </g>
   <g id="PolyCollection_13">
    <path d="M 73.832727 63.891692 
L 73.832727 63.891692 
L 80.45833 54.144 
L 87.083933 62.673231 
L 93.709536 62.673231 
L 100.335139 65.110154 
L 106.960742 63.891692 
L 113.586345 63.891692 
L 120.211948 62.673231 
L 126.837551 63.891692 
L 133.463154 63.891692 
L 140.088757 63.891692 
L 146.71436 61.454769 
L 153.339963 63.891692 
L 159.965566 65.110154 
L 166.591169 63.891692 
L 173.216772 63.891692 
L 179.842375 65.110154 
L 186.467978 63.891692 
L 193.093581 62.673231 
L 199.719184 65.110154 
L 206.344787 66.328615 
L 212.97039 63.891692 
L 219.595993 63.891692 
L 226.221596 67.547077 
L 232.847199 62.673231 
L 239.472801 71.202462 
L 246.098404 88.260923 
L 252.724007 93.134769 
L 259.34961 129.688615 
L 265.975213 162.587077 
L 272.600816 135.780923 
L 279.226419 133.344 
L 285.852022 129.688615 
L 292.477625 123.596308 
L 299.103228 133.344 
L 305.728831 128.470154 
L 312.354434 147.965538 
L 318.980037 152.839385 
L 325.60564 175.990154 
L 332.231243 197.922462 
L 338.856846 211.325538 
L 345.482449 224.728615 
L 352.108052 221.073231 
L 358.733655 195.485538 
L 365.359258 232.039385 
L 371.984861 208.888615 
L 378.610464 230.820923 
L 385.236067 222.291692 
L 391.86167 236.913231 
L 398.487273 218.636308 
L 398.487273 218.636308 
L 398.487273 218.636308 
L 391.86167 236.913231 
L 385.236067 222.291692 
L 378.610464 230.820923 
L 371.984861 195.485538 
L 365.359258 216.199385 
L 358.733655 179.645538 
L 352.108052 206.451692 
L 345.482449 212.544 
L 338.856846 197.922462 
L 332.231243 180.864 
L 325.60564 160.150154 
L 318.980037 144.310154 
L 312.354434 139.436308 
L 305.728831 118.722462 
L 299.103228 123.596308 
L 292.477625 115.067077 
L 285.852022 118.722462 
L 279.226419 119.940923 
L 272.600816 123.596308 
L 265.975213 150.402462 
L 259.34961 117.504 
L 252.724007 84.605538 
L 246.098404 79.731692 
L 239.472801 68.765538 
L 232.847199 62.673231 
L 226.221596 67.547077 
L 219.595993 63.891692 
L 212.97039 63.891692 
L 206.344787 66.328615 
L 199.719184 65.110154 
L 193.093581 62.673231 
L 186.467978 63.891692 
L 179.842375 65.110154 
L 173.216772 63.891692 
L 166.591169 63.891692 
L 159.965566 65.110154 
L 153.339963 63.891692 
L 146.71436 61.454769 
L 140.088757 63.891692 
L 133.463154 63.891692 
L 126.837551 63.891692 
L 120.211948 62.673231 
L 113.586345 63.891692 
L 106.960742 63.891692 
L 100.335139 65.110154 
L 93.709536 62.673231 
L 87.083933 62.673231 
L 80.45833 54.144 
L 73.832727 63.891692 
z
" clip-path="url(#p4394a6c08b)" style="fill: #2ca02c"/>
   </g>
   <g id="PolyCollection_14">
    <path d="M 73.832727 63.891692 
L 73.832727 63.891692 
L 80.45833 54.144 
L 87.083933 62.673231 
L 93.709536 62.673231 
L 100.335139 65.110154 
L 106.960742 63.891692 
L 113.586345 63.891692 
L 120.211948 62.673231 
L 126.837551 63.891692 
L 133.463154 63.891692 
L 140.088757 63.891692 
L 146.71436 61.454769 
L 153.339963 63.891692 
L 159.965566 65.110154 
L 166.591169 63.891692 
L 173.216772 63.891692 
L 179.842375 65.110154 
L 186.467978 63.891692 
L 193.093581 62.673231 
L 199.719184 65.110154 
L 206.344787 66.328615 
L 212.97039 63.891692 
L 219.595993 63.891692 
L 226.221596 67.547077 
L 232.847199 62.673231 
L 239.472801 68.765538 
L 246.098404 79.731692 
L 252.724007 84.605538 
L 259.34961 117.504 
L 265.975213 150.402462 
L 272.600816 123.596308 
L 279.226419 119.940923 
L 285.852022 118.722462 
L 292.477625 115.067077 
L 299.103228 123.596308 
L 305.728831 118.722462 
L 312.354434 139.436308 
L 318.980037 144.310154 
L 325.60564 160.150154 
L 332.231243 180.864 
L 338.856846 197.922462 
L 345.482449 212.544 
L 352.108052 206.451692 
L 358.733655 179.645538 
L 365.359258 216.199385 
L 371.984861 195.485538 
L 378.610464 230.820923 
L 385.236067 222.291692 
L 391.86167 236.913231 
L 398.487273 218.636308 
L 398.487273 196.704 
L 398.487273 196.704 
L 391.86167 194.267077 
L 385.236067 196.704 
L 378.610464 201.577846 
L 371.984861 165.024 
L 365.359258 189.393231 
L 358.733655 154.057846 
L 352.108052 188.174769 
L 345.482449 177.208615 
L 338.856846 167.460923 
L 332.231243 165.024 
L 325.60564 139.436308 
L 318.980037 115.067077 
L 312.354434 107.756308 
L 305.728831 105.319385 
L 299.103228 102.882462 
L 292.477625 98.008615 
L 285.852022 107.756308 
L 279.226419 107.756308 
L 272.600816 112.630154 
L 265.975213 135.780923 
L 259.34961 99.227077 
L 252.724007 73.639385 
L 246.098404 69.984 
L 239.472801 62.673231 
L 232.847199 62.673231 
L 226.221596 67.547077 
L 219.595993 63.891692 
L 212.97039 63.891692 
L 206.344787 66.328615 
L 199.719184 65.110154 
L 193.093581 62.673231 
L 186.467978 63.891692 
L 179.842375 65.110154 
L 173.216772 63.891692 
L 166.591169 63.891692 
L 159.965566 65.110154 
L 153.339963 63.891692 
L 146.71436 61.454769 
L 140.088757 63.891692 
L 133.463154 63.891692 
L 126.837551 63.891692 
L 120.211948 62.673231 
L 113.586345 63.891692 
L 106.960742 63.891692 
L 100.335139 65.110154 
L 93.709536 62.673231 
L 87.083933 62.673231 
L 80.45833 54.144 
L 73.832727 63.891692 
z
" clip-path="url(#p4394a6c08b)" style="fill: #d62728"/>
   </g>
   <g id="PolyCollection_15">
    <path d="M 73.832727 63.891692 
L 73.832727 63.891692 
L 80.45833 54.144 
L 87.083933 62.673231 
L 93.709536 62.673231 
L 100.335139 65.110154 
L 106.960742 63.891692 
L 113.586345 63.891692 
L 120.211948 62.673231 
L 126.837551 63.891692 
L 133.463154 63.891692 
L 140.088757 63.891692 
L 146.71436 61.454769 
L 153.339963 63.891692 
L 159.965566 65.110154 
L 166.591169 63.891692 
L 173.216772 63.891692 
L 179.842375 65.110154 
L 186.467978 63.891692 
L 193.093581 62.673231 
L 199.719184 65.110154 
L 206.344787 66.328615 
L 212.97039 63.891692 
L 219.595993 63.891692 
L 226.221596 67.547077 
L 232.847199 62.673231 
L 239.472801 62.673231 
L 246.098404 69.984 
L 252.724007 73.639385 
L 259.34961 99.227077 
L 265.975213 135.780923 
L 272.600816 112.630154 
L 279.226419 107.756308 
L 285.852022 107.756308 
L 292.477625 98.008615 
L 299.103228 102.882462 
L 305.728831 105.319385 
L 312.354434 107.756308 
L 318.980037 115.067077 
L 325.60564 139.436308 
L 332.231243 165.024 
L 338.856846 167.460923 
L 345.482449 177.208615 
L 352.108052 188.174769 
L 358.733655 154.057846 
L 365.359258 189.393231 
L 371.984861 165.024 
L 378.610464 201.577846 
L 385.236067 196.704 
L 391.86167 194.267077 
L 398.487273 196.704 
L 398.487273 177.208615 
L 398.487273 177.208615 
L 391.86167 179.645538 
L 385.236067 130.907077 
L 378.610464 171.116308 
L 371.984861 143.091692 
L 365.359258 155.276308 
L 358.733655 132.125538 
L 352.108052 155.276308 
L 345.482449 154.057846 
L 338.856846 143.091692 
L 332.231243 138.217846 
L 325.60564 119.940923 
L 318.980037 99.227077 
L 312.354434 89.479385 
L 305.728831 89.479385 
L 299.103228 94.353231 
L 292.477625 91.916308 
L 285.852022 93.134769 
L 279.226419 90.697846 
L 272.600816 102.882462 
L 265.975213 94.353231 
L 259.34961 87.042462 
L 252.724007 69.984 
L 246.098404 66.328615 
L 239.472801 62.673231 
L 232.847199 62.673231 
L 226.221596 67.547077 
L 219.595993 63.891692 
L 212.97039 63.891692 
L 206.344787 66.328615 
L 199.719184 65.110154 
L 193.093581 62.673231 
L 186.467978 63.891692 
L 179.842375 65.110154 
L 173.216772 63.891692 
L 166.591169 63.891692 
L 159.965566 65.110154 
L 153.339963 63.891692 
L 146.71436 61.454769 
L 140.088757 63.891692 
L 133.463154 63.891692 
L 126.837551 63.891692 
L 120.211948 62.673231 
L 113.586345 63.891692 
L 106.960742 63.891692 
L 100.335139 65.110154 
L 93.709536 62.673231 
L 87.083933 62.673231 
L 80.45833 54.144 
L 73.832727 63.891692 
z
" clip-path="url(#p4394a6c08b)" style="fill: #9467bd"/>
   </g>
   <g id="PolyCollection_16">
    <path d="M 73.832727 63.891692 
L 73.832727 63.891692 
L 80.45833 54.144 
L 87.083933 62.673231 
L 93.709536 62.673231 
L 100.335139 65.110154 
L 106.960742 63.891692 
L 113.586345 63.891692 
L 120.211948 62.673231 
L 126.837551 63.891692 
L 133.463154 63.891692 
L 140.088757 63.891692 
L 146.71436 61.454769 
L 153.339963 63.891692 
L 159.965566 65.110154 
L 166.591169 63.891692 
L 173.216772 63.891692 
L 179.842375 65.110154 
L 186.467978 63.891692 
L 193.093581 62.673231 
L 199.719184 65.110154 
L 206.344787 66.328615 
L 212.97039 63.891692 
L 219.595993 63.891692 
L 226.221596 67.547077 
L 232.847199 62.673231 
L 239.472801 62.673231 
L 246.098404 66.328615 
L 252.724007 69.984 
L 259.34961 87.042462 
L 265.975213 94.353231 
L 272.600816 102.882462 
L 279.226419 90.697846 
L 285.852022 93.134769 
L 292.477625 91.916308 
L 299.103228 94.353231 
L 305.728831 89.479385 
L 312.354434 89.479385 
L 318.980037 99.227077 
L 325.60564 119.940923 
L 332.231243 138.217846 
L 338.856846 143.091692 
L 345.482449 154.057846 
L 352.108052 155.276308 
L 358.733655 132.125538 
L 365.359258 155.276308 
L 371.984861 143.091692 
L 378.610464 171.116308 
L 385.236067 130.907077 
L 391.86167 179.645538 
L 398.487273 177.208615 
L 398.487273 177.208615 
L 398.487273 177.208615 
L 391.86167 179.645538 
L 385.236067 130.907077 
L 378.610464 150.402462 
L 371.984861 124.814769 
L 365.359258 139.436308 
L 358.733655 117.504 
L 352.108052 136.999385 
L 345.482449 135.780923 
L 338.856846 119.940923 
L 332.231243 123.596308 
L 325.60564 101.664 
L 318.980037 84.605538 
L 312.354434 79.731692 
L 305.728831 77.294769 
L 299.103228 79.731692 
L 292.477625 80.950154 
L 285.852022 82.168615 
L 279.226419 76.076308 
L 272.600816 90.697846 
L 265.975213 82.168615 
L 259.34961 74.857846 
L 252.724007 62.673231 
L 246.098404 62.673231 
L 239.472801 62.673231 
L 232.847199 62.673231 
L 226.221596 67.547077 
L 219.595993 63.891692 
L 212.97039 63.891692 
L 206.344787 66.328615 
L 199.719184 65.110154 
L 193.093581 62.673231 
L 186.467978 63.891692 
L 179.842375 65.110154 
L 173.216772 63.891692 
L 166.591169 63.891692 
L 159.965566 65.110154 
L 153.339963 63.891692 
L 146.71436 61.454769 
L 140.088757 63.891692 
L 133.463154 63.891692 
L 126.837551 63.891692 
L 120.211948 62.673231 
L 113.586345 63.891692 
L 106.960742 63.891692 
L 100.335139 65.110154 
L 93.709536 62.673231 
L 87.083933 62.673231 
L 80.45833 54.144 
L 73.832727 63.891692 
z
" clip-path="url(#p4394a6c08b)" style="fill: #8c564b"/>
   </g>
   <g id="PolyCollection_17">
    <path d="M 73.832727 63.891692 
L 73.832727 63.891692 
L 80.45833 54.144 
L 87.083933 62.673231 
L 93.709536 62.673231 
L 100.335139 65.110154 
L 106.960742 63.891692 
L 113.586345 63.891692 
L 120.211948 62.673231 
L 126.837551 63.891692 
L 133.463154 63.891692 
L 140.088757 63.891692 
L 146.71436 61.454769 
L 153.339963 63.891692 
L 159.965566 65.110154 
L 166.591169 63.891692 
L 173.216772 63.891692 
L 179.842375 65.110154 
L 186.467978 63.891692 
L 193.093581 62.673231 
L 199.719184 65.110154 
L 206.344787 66.328615 
L 212.97039 63.891692 
L 219.595993 63.891692 
L 226.221596 67.547077 
L 232.847199 62.673231 
L 239.472801 62.673231 
L 246.098404 62.673231 
L 252.724007 62.673231 
L 259.34961 74.857846 
L 265.975213 82.168615 
L 272.600816 90.697846 
L 279.226419 76.076308 
L 285.852022 82.168615 
L 292.477625 80.950154 
L 299.103228 79.731692 
L 305.728831 77.294769 
L 312.354434 79.731692 
L 318.980037 84.605538 
L 325.60564 101.664 
L 332.231243 123.596308 
L 338.856846 119.940923 
L 345.482449 135.780923 
L 352.108052 136.999385 
L 358.733655 117.504 
L 365.359258 139.436308 
L 371.984861 124.814769 
L 378.610464 150.402462 
L 385.236067 130.907077 
L 391.86167 179.645538 
L 398.487273 177.208615 
L 398.487273 154.057846 
L 398.487273 154.057846 
L 391.86167 150.402462 
L 385.236067 100.445538 
L 378.610464 106.537846 
L 371.984861 100.445538 
L 365.359258 98.008615 
L 358.733655 91.916308 
L 352.108052 94.353231 
L 345.482449 89.479385 
L 338.856846 83.387077 
L 332.231243 76.076308 
L 325.60564 67.547077 
L 318.980037 65.110154 
L 312.354434 66.328615 
L 305.728831 63.891692 
L 299.103228 63.891692 
L 292.477625 62.673231 
L 285.852022 61.454769 
L 279.226419 60.236308 
L 272.600816 65.110154 
L 265.975213 65.110154 
L 259.34961 66.328615 
L 252.724007 62.673231 
L 246.098404 62.673231 
L 239.472801 62.673231 
L 232.847199 62.673231 
L 226.221596 67.547077 
L 219.595993 63.891692 
L 212.97039 63.891692 
L 206.344787 66.328615 
L 199.719184 65.110154 
L 193.093581 62.673231 
L 186.467978 63.891692 
L 179.842375 65.110154 
L 173.216772 63.891692 
L 166.591169 63.891692 
L 159.965566 65.110154 
L 153.339963 63.891692 
L 146.71436 61.454769 
L 140.088757 63.891692 
L 133.463154 63.891692 
L 126.837551 63.891692 
L 120.211948 62.673231 
L 113.586345 63.891692 
L 106.960742 63.891692 
L 100.335139 65.110154 
L 93.709536 62.673231 
L 87.083933 62.673231 
L 80.45833 54.144 
L 73.832727 63.891692 
z
" clip-path="url(#p4394a6c08b)" style="fill: #e377c2"/>
   </g>
   <g id="PolyCollection_18">
    <path d="M 73.832727 63.891692 
L 73.832727 63.891692 
L 80.45833 54.144 
L 87.083933 62.673231 
L 93.709536 62.673231 
L 100.335139 65.110154 
L 106.960742 63.891692 
L 113.586345 63.891692 
L 120.211948 62.673231 
L 126.837551 63.891692 
L 133.463154 63.891692 
L 140.088757 63.891692 
L 146.71436 61.454769 
L 153.339963 63.891692 
L 159.965566 65.110154 
L 166.591169 63.891692 
L 173.216772 63.891692 
L 179.842375 65.110154 
L 186.467978 63.891692 
L 193.093581 62.673231 
L 199.719184 65.110154 
L 206.344787 66.328615 
L 212.97039 63.891692 
L 219.595993 63.891692 
L 226.221596 67.547077 
L 232.847199 62.673231 
L 239.472801 62.673231 
L 246.098404 62.673231 
L 252.724007 62.673231 
L 259.34961 66.328615 
L 265.975213 65.110154 
L 272.600816 65.110154 
L 279.226419 60.236308 
L 285.852022 61.454769 
L 292.477625 62.673231 
L 299.103228 63.891692 
L 305.728831 63.891692 
L 312.354434 66.328615 
L 318.980037 65.110154 
L 325.60564 67.547077 
L 332.231243 76.076308 
L 338.856846 83.387077 
L 345.482449 89.479385 
L 352.108052 94.353231 
L 358.733655 91.916308 
L 365.359258 98.008615 
L 371.984861 100.445538 
L 378.610464 106.537846 
L 385.236067 100.445538 
L 391.86167 150.402462 
L 398.487273 154.057846 
L 398.487273 138.217846 
L 398.487273 138.217846 
L 391.86167 134.562462 
L 385.236067 78.513231 
L 378.610464 87.042462 
L 371.984861 82.168615 
L 365.359258 78.513231 
L 358.733655 78.513231 
L 352.108052 82.168615 
L 345.482449 76.076308 
L 338.856846 69.984 
L 332.231243 63.891692 
L 325.60564 63.891692 
L 318.980037 65.110154 
L 312.354434 66.328615 
L 305.728831 63.891692 
L 299.103228 63.891692 
L 292.477625 62.673231 
L 285.852022 61.454769 
L 279.226419 60.236308 
L 272.600816 65.110154 
L 265.975213 65.110154 
L 259.34961 66.328615 
L 252.724007 62.673231 
L 246.098404 62.673231 
L 239.472801 62.673231 
L 232.847199 62.673231 
L 226.221596 67.547077 
L 219.595993 63.891692 
L 212.97039 63.891692 
L 206.344787 66.328615 
L 199.719184 65.110154 
L 193.093581 62.673231 
L 186.467978 63.891692 
L 179.842375 65.110154 
L 173.216772 63.891692 
L 166.591169 63.891692 
L 159.965566 65.110154 
L 153.339963 63.891692 
L 146.71436 61.454769 
L 140.088757 63.891692 
L 133.463154 63.891692 
L 126.837551 63.891692 
L 120.211948 62.673231 
L 113.586345 63.891692 
L 106.960742 63.891692 
L 100.335139 65.110154 
L 93.709536 62.673231 
L 87.083933 62.673231 
L 80.45833 54.144 
L 73.832727 63.891692 
z
" clip-path="url(#p4394a6c08b)" style="fill: #7f7f7f"/>
   </g>
   <g id="PolyCollection_19">
    <path d="M 73.832727 63.891692 
L 73.832727 63.891692 
L 80.45833 54.144 
L 87.083933 62.673231 
L 93.709536 62.673231 
L 100.335139 65.110154 
L 106.960742 63.891692 
L 113.586345 63.891692 
L 120.211948 62.673231 
L 126.837551 63.891692 
L 133.463154 63.891692 
L 140.088757 63.891692 
L 146.71436 61.454769 
L 153.339963 63.891692 
L 159.965566 65.110154 
L 166.591169 63.891692 
L 173.216772 63.891692 
L 179.842375 65.110154 
L 186.467978 63.891692 
L 193.093581 62.673231 
L 199.719184 65.110154 
L 206.344787 66.328615 
L 212.97039 63.891692 
L 219.595993 63.891692 
L 226.221596 67.547077 
L 232.847199 62.673231 
L 239.472801 62.673231 
L 246.098404 62.673231 
L 252.724007 62.673231 
L 259.34961 66.328615 
L 265.975213 65.110154 
L 272.600816 65.110154 
L 279.226419 60.236308 
L 285.852022 61.454769 
L 292.477625 62.673231 
L 299.103228 63.891692 
L 305.728831 63.891692 
L 312.354434 66.328615 
L 318.980037 65.110154 
L 325.60564 63.891692 
L 332.231243 63.891692 
L 338.856846 69.984 
L 345.482449 76.076308 
L 352.108052 82.168615 
L 358.733655 78.513231 
L 365.359258 78.513231 
L 371.984861 82.168615 
L 378.610464 87.042462 
L 385.236067 78.513231 
L 391.86167 134.562462 
L 398.487273 138.217846 
L 398.487273 122.377846 
L 398.487273 122.377846 
L 391.86167 93.134769 
L 385.236067 63.891692 
L 378.610464 67.547077 
L 371.984861 61.454769 
L 365.359258 61.454769 
L 358.733655 65.110154 
L 352.108052 65.110154 
L 345.482449 62.673231 
L 338.856846 59.017846 
L 332.231243 62.673231 
L 325.60564 63.891692 
L 318.980037 65.110154 
L 312.354434 66.328615 
L 305.728831 63.891692 
L 299.103228 63.891692 
L 292.477625 62.673231 
L 285.852022 61.454769 
L 279.226419 60.236308 
L 272.600816 65.110154 
L 265.975213 65.110154 
L 259.34961 66.328615 
L 252.724007 62.673231 
L 246.098404 62.673231 
L 239.472801 62.673231 
L 232.847199 62.673231 
L 226.221596 67.547077 
L 219.595993 63.891692 
L 212.97039 63.891692 
L 206.344787 66.328615 
L 199.719184 65.110154 
L 193.093581 62.673231 
L 186.467978 63.891692 
L 179.842375 65.110154 
L 173.216772 63.891692 
L 166.591169 63.891692 
L 159.965566 65.110154 
L 153.339963 63.891692 
L 146.71436 61.454769 
L 140.088757 63.891692 
L 133.463154 63.891692 
L 126.837551 63.891692 
L 120.211948 62.673231 
L 113.586345 63.891692 
L 106.960742 63.891692 
L 100.335139 65.110154 
L 93.709536 62.673231 
L 87.083933 62.673231 
L 80.45833 54.144 
L 73.832727 63.891692 
z
" clip-path="url(#p4394a6c08b)" style="fill: #bcbd22"/>
   </g>
   <g id="PolyCollection_20">
    <path d="M 73.832727 63.891692 
L 73.832727 63.891692 
L 80.45833 54.144 
L 87.083933 62.673231 
L 93.709536 62.673231 
L 100.335139 65.110154 
L 106.960742 63.891692 
L 113.586345 63.891692 
L 120.211948 62.673231 
L 126.837551 63.891692 
L 133.463154 63.891692 
L 140.088757 63.891692 
L 146.71436 61.454769 
L 153.339963 63.891692 
L 159.965566 65.110154 
L 166.591169 63.891692 
L 173.216772 63.891692 
L 179.842375 65.110154 
L 186.467978 63.891692 
L 193.093581 62.673231 
L 199.719184 65.110154 
L 206.344787 66.328615 
L 212.97039 63.891692 
L 219.595993 63.891692 
L 226.221596 67.547077 
L 232.847199 62.673231 
L 239.472801 62.673231 
L 246.098404 62.673231 
L 252.724007 62.673231 
L 259.34961 66.328615 
L 265.975213 65.110154 
L 272.600816 65.110154 
L 279.226419 60.236308 
L 285.852022 61.454769 
L 292.477625 62.673231 
L 299.103228 63.891692 
L 305.728831 63.891692 
L 312.354434 66.328615 
L 318.980037 65.110154 
L 325.60564 63.891692 
L 332.231243 62.673231 
L 338.856846 59.017846 
L 345.482449 62.673231 
L 352.108052 65.110154 
L 358.733655 65.110154 
L 365.359258 61.454769 
L 371.984861 61.454769 
L 378.610464 67.547077 
L 385.236067 63.891692 
L 391.86167 93.134769 
L 398.487273 122.377846 
L 398.487273 113.848615 
L 398.487273 113.848615 
L 391.86167 66.328615 
L 385.236067 63.891692 
L 378.610464 67.547077 
L 371.984861 61.454769 
L 365.359258 61.454769 
L 358.733655 65.110154 
L 352.108052 65.110154 
L 345.482449 62.673231 
L 338.856846 59.017846 
L 332.231243 62.673231 
L 325.60564 63.891692 
L 318.980037 65.110154 
L 312.354434 66.328615 
L 305.728831 63.891692 
L 299.103228 63.891692 
L 292.477625 62.673231 
L 285.852022 61.454769 
L 279.226419 60.236308 
L 272.600816 65.110154 
L 265.975213 65.110154 
L 259.34961 66.328615 
L 252.724007 62.673231 
L 246.098404 62.673231 
L 239.472801 62.673231 
L 232.847199 62.673231 
L 226.221596 67.547077 
L 219.595993 63.891692 
L 212.97039 63.891692 
L 206.344787 66.328615 
L 199.719184 65.110154 
L 193.093581 62.673231 
L 186.467978 63.891692 
L 179.842375 65.110154 
L 173.216772 63.891692 
L 166.591169 63.891692 
L 159.965566 65.110154 
L 153.339963 63.891692 
L 146.71436 61.454769 
L 140.088757 63.891692 
L 133.463154 63.891692 
L 126.837551 63.891692 
L 120.211948 62.673231 
L 113.586345 63.891692 
L 106.960742 63.891692 
L 100.335139 65.110154 
L 93.709536 62.673231 
L 87.083933 62.673231 
L 80.45833 54.144 
L 73.832727 63.891692 
z
" clip-path="url(#p4394a6c08b)" style="fill: #17becf"/>
   </g>
   <g id="PolyCollection_21">
    <path d="M 73.832727 63.891692 
L 73.832727 63.891692 
L 80.45833 54.144 
L 87.083933 62.673231 
L 93.709536 62.673231 
L 100.335139 65.110154 
L 106.960742 63.891692 
L 113.586345 63.891692 
L 120.211948 62.673231 
L 126.837551 63.891692 
L 133.463154 63.891692 
L 140.088757 63.891692 
L 146.71436 61.454769 
L 153.339963 63.891692 
L 159.965566 65.110154 
L 166.591169 63.891692 
L 173.216772 63.891692 
L 179.842375 65.110154 
L 186.467978 63.891692 
L 193.093581 62.673231 
L 199.719184 65.110154 
L 206.344787 66.328615 
L 212.97039 63.891692 
L 219.595993 63.891692 
L 226.221596 67.547077 
L 232.847199 62.673231 
L 239.472801 62.673231 
L 246.098404 62.673231 
L 252.724007 62.673231 
L 259.34961 66.328615 
L 265.975213 65.110154 
L 272.600816 65.110154 
L 279.226419 60.236308 
L 285.852022 61.454769 
L 292.477625 62.673231 
L 299.103228 63.891692 
L 305.728831 63.891692 
L 312.354434 66.328615 
L 318.980037 65.110154 
L 325.60564 63.891692 
L 332.231243 62.673231 
L 338.856846 59.017846 
L 345.482449 62.673231 
L 352.108052 65.110154 
L 358.733655 65.110154 
L 365.359258 61.454769 
L 371.984861 61.454769 
L 378.610464 67.547077 
L 385.236067 63.891692 
L 391.86167 66.328615 
L 398.487273 113.848615 
L 398.487273 100.445538 
L 398.487273 100.445538 
L 391.86167 65.110154 
L 385.236067 63.891692 
L 378.610464 67.547077 
L 371.984861 61.454769 
L 365.359258 61.454769 
L 358.733655 65.110154 
L 352.108052 65.110154 
L 345.482449 62.673231 
L 338.856846 59.017846 
L 332.231243 62.673231 
L 325.60564 63.891692 
L 318.980037 65.110154 
L 312.354434 66.328615 
L 305.728831 63.891692 
L 299.103228 63.891692 
L 292.477625 62.673231 
L 285.852022 61.454769 
L 279.226419 60.236308 
L 272.600816 65.110154 
L 265.975213 65.110154 
L 259.34961 66.328615 
L 252.724007 62.673231 
L 246.098404 62.673231 
L 239.472801 62.673231 
L 232.847199 62.673231 
L 226.221596 67.547077 
L 219.595993 63.891692 
L 212.97039 63.891692 
L 206.344787 66.328615 
L 199.719184 65.110154 
L 193.093581 62.673231 
L 186.467978 63.891692 
L 179.842375 65.110154 
L 173.216772 63.891692 
L 166.591169 63.891692 
L 159.965566 65.110154 
L 153.339963 63.891692 
L 146.71436 61.454769 
L 140.088757 63.891692 
L 133.463154 63.891692 
L 126.837551 63.891692 
L 120.211948 62.673231 
L 113.586345 63.891692 
L 106.960742 63.891692 
L 100.335139 65.110154 
L 93.709536 62.673231 
L 87.083933 62.673231 
L 80.45833 54.144 
L 73.832727 63.891692 
z
" clip-path="url(#p4394a6c08b)" style="fill: #1f77b4"/>
   </g>
   <g id="PolyCollection_22">
    <path d="M 73.832727 63.891692 
L 73.832727 63.891692 
L 80.45833 54.144 
L 87.083933 62.673231 
L 93.709536 62.673231 
L 100.335139 65.110154 
L 106.960742 63.891692 
L 113.586345 63.891692 
L 120.211948 62.673231 
L 126.837551 63.891692 
L 133.463154 63.891692 
L 140.088757 63.891692 
L 146.71436 61.454769 
L 153.339963 63.891692 
L 159.965566 65.110154 
L 166.591169 63.891692 
L 173.216772 63.891692 
L 179.842375 65.110154 
L 186.467978 63.891692 
L 193.093581 62.673231 
L 199.719184 65.110154 
L 206.344787 66.328615 
L 212.97039 63.891692 
L 219.595993 63.891692 
L 226.221596 67.547077 
L 232.847199 62.673231 
L 239.472801 62.673231 
L 246.098404 62.673231 
L 252.724007 62.673231 
L 259.34961 66.328615 
L 265.975213 65.110154 
L 272.600816 65.110154 
L 279.226419 60.236308 
L 285.852022 61.454769 
L 292.477625 62.673231 
L 299.103228 63.891692 
L 305.728831 63.891692 
L 312.354434 66.328615 
L 318.980037 65.110154 
L 325.60564 63.891692 
L 332.231243 62.673231 
L 338.856846 59.017846 
L 345.482449 62.673231 
L 352.108052 65.110154 
L 358.733655 65.110154 
L 365.359258 61.454769 
L 371.984861 61.454769 
L 378.610464 67.547077 
L 385.236067 63.891692 
L 391.86167 65.110154 
L 398.487273 100.445538 
L 398.487273 63.891692 
L 398.487273 63.891692 
L 391.86167 63.891692 
L 385.236067 63.891692 
L 378.610464 67.547077 
L 371.984861 61.454769 
L 365.359258 61.454769 
L 358.733655 65.110154 
L 352.108052 65.110154 
L 345.482449 62.673231 
L 338.856846 59.017846 
L 332.231243 62.673231 
L 325.60564 63.891692 
L 318.980037 65.110154 
L 312.354434 66.328615 
L 305.728831 63.891692 
L 299.103228 63.891692 
L 292.477625 62.673231 
L 285.852022 61.454769 
L 279.226419 60.236308 
L 272.600816 65.110154 
L 265.975213 65.110154 
L 259.34961 66.328615 
L 252.724007 62.673231 
L 246.098404 62.673231 
L 239.472801 62.673231 
L 232.847199 62.673231 
L 226.221596 67.547077 
L 219.595993 63.891692 
L 212.97039 63.891692 
L 206.344787 66.328615 
L 199.719184 65.110154 
L 193.093581 62.673231 
L 186.467978 63.891692 
L 179.842375 65.110154 
L 173.216772 63.891692 
L 166.591169 63.891692 
L 159.965566 65.110154 
L 153.339963 63.891692 
L 146.71436 61.454769 
L 140.088757 63.891692 
L 133.463154 63.891692 
L 126.837551 63.891692 
L 120.211948 62.673231 
L 113.586345 63.891692 
L 106.960742 63.891692 
L 100.335139 65.110154 
L 93.709536 62.673231 
L 87.083933 62.673231 
L 80.45833 54.144 
L 73.832727 63.891692 
z
" clip-path="url(#p4394a6c08b)" style="fill: #ff7f0e"/>
   </g>
   <g id="matplotlib.axis_1">
    <g id="xtick_1">
     <g id="line2d_1">
      <defs>
       <path id="m5c74fc79b5" d="M 0 0 
L 0 3.5 
" style="stroke: #000000; stroke-width: 0.8"/>
      </defs>
      <g>
       <use xlink:href="#m5c74fc79b5" x="73.832727" y="307.584" style="stroke: #000000; stroke-width: 0.8"/>
      </g>
     </g>
     <g id="text_1">
      <!-- 0 -->
      <g transform="translate(70.651477 322.182437) scale(0.1 -0.1)">
       <defs>
        <path id="DejaVuSans-30" d="M 2034 4250 
Q 1547 4250 1301 3770 
Q 1056 3291 1056 2328 
Q 1056 1369 1301 889 
Q 1547 409 2034 409 
Q 2525 409 2770 889 
Q 3016 1369 3016 2328 
Q 3016 3291 2770 3770 
Q 2525 4250 2034 4250 
z
M 2034 4750 
Q 2819 4750 3233 4129 
Q 3647 3509 3647 2328 
Q 3647 1150 3233 529 
Q 2819 -91 2034 -91 
Q 1250 -91 836 529 
Q 422 1150 422 2328 
Q 422 3509 836 4129 
Q 1250 4750 2034 4750 
z
" transform="scale(0.015625)"/>
       </defs>
       <use xlink:href="#DejaVuSans-30"/>
      </g>
     </g>
    </g>
    <g id="xtick_2">
     <g id="line2d_2">
      <g>
       <use xlink:href="#m5c74fc79b5" x="140.088757" y="307.584" style="stroke: #000000; stroke-width: 0.8"/>
      </g>
     </g>
     <g id="text_2">
      <!-- 10 -->
      <g transform="translate(133.726257 322.182437) scale(0.1 -0.1)">
       <defs>
        <path id="DejaVuSans-31" d="M 794 531 
L 1825 531 
L 1825 4091 
L 703 3866 
L 703 4441 
L 1819 4666 
L 2450 4666 
L 2450 531 
L 3481 531 
L 3481 0 
L 794 0 
L 794 531 
z
" transform="scale(0.015625)"/>
       </defs>
       <use xlink:href="#DejaVuSans-31"/>
       <use xlink:href="#DejaVuSans-30" x="63.623047"/>
      </g>
     </g>
    </g>
    <g id="xtick_3">
     <g id="line2d_3">
      <g>
       <use xlink:href="#m5c74fc79b5" x="206.344787" y="307.584" style="stroke: #000000; stroke-width: 0.8"/>
      </g>
     </g>
     <g id="text_3">
      <!-- 20 -->
      <g transform="translate(199.982287 322.182437) scale(0.1 -0.1)">
       <defs>
        <path id="DejaVuSans-32" d="M 1228 531 
L 3431 531 
L 3431 0 
L 469 0 
L 469 531 
Q 828 903 1448 1529 
Q 2069 2156 2228 2338 
Q 2531 2678 2651 2914 
Q 2772 3150 2772 3378 
Q 2772 3750 2511 3984 
Q 2250 4219 1831 4219 
Q 1534 4219 1204 4116 
Q 875 4013 500 3803 
L 500 4441 
Q 881 4594 1212 4672 
Q 1544 4750 1819 4750 
Q 2544 4750 2975 4387 
Q 3406 4025 3406 3419 
Q 3406 3131 3298 2873 
Q 3191 2616 2906 2266 
Q 2828 2175 2409 1742 
Q 1991 1309 1228 531 
z
" transform="scale(0.015625)"/>
       </defs>
       <use xlink:href="#DejaVuSans-32"/>
       <use xlink:href="#DejaVuSans-30" x="63.623047"/>
      </g>
     </g>
    </g>
    <g id="xtick_4">
     <g id="line2d_4">
      <g>
       <use xlink:href="#m5c74fc79b5" x="272.600816" y="307.584" style="stroke: #000000; stroke-width: 0.8"/>
      </g>
     </g>
     <g id="text_4">
      <!-- 30 -->
      <g transform="translate(266.238316 322.182437) scale(0.1 -0.1)">
       <defs>
        <path id="DejaVuSans-33" d="M 2597 2516 
Q 3050 2419 3304 2112 
Q 3559 1806 3559 1356 
Q 3559 666 3084 287 
Q 2609 -91 1734 -91 
Q 1441 -91 1130 -33 
Q 819 25 488 141 
L 488 750 
Q 750 597 1062 519 
Q 1375 441 1716 441 
Q 2309 441 2620 675 
Q 2931 909 2931 1356 
Q 2931 1769 2642 2001 
Q 2353 2234 1838 2234 
L 1294 2234 
L 1294 2753 
L 1863 2753 
Q 2328 2753 2575 2939 
Q 2822 3125 2822 3475 
Q 2822 3834 2567 4026 
Q 2313 4219 1838 4219 
Q 1578 4219 1281 4162 
Q 984 4106 628 3988 
L 628 4550 
Q 988 4650 1302 4700 
Q 1616 4750 1894 4750 
Q 2613 4750 3031 4423 
Q 3450 4097 3450 3541 
Q 3450 3153 3228 2886 
Q 3006 2619 2597 2516 
z
" transform="scale(0.015625)"/>
       </defs>
       <use xlink:href="#DejaVuSans-33"/>
       <use xlink:href="#DejaVuSans-30" x="63.623047"/>
      </g>
     </g>
    </g>
    <g id="xtick_5">
     <g id="line2d_5">
      <g>
       <use xlink:href="#m5c74fc79b5" x="338.856846" y="307.584" style="stroke: #000000; stroke-width: 0.8"/>
      </g>
     </g>
     <g id="text_5">
      <!-- 40 -->
      <g transform="translate(332.494346 322.182437) scale(0.1 -0.1)">
       <defs>
        <path id="DejaVuSans-34" d="M 2419 4116 
L 825 1625 
L 2419 1625 
L 2419 4116 
z
M 2253 4666 
L 3047 4666 
L 3047 1625 
L 3713 1625 
L 3713 1100 
L 3047 1100 
L 3047 0 
L 2419 0 
L 2419 1100 
L 313 1100 
L 313 1709 
L 2253 4666 
z
" transform="scale(0.015625)"/>
       </defs>
       <use xlink:href="#DejaVuSans-34"/>
       <use xlink:href="#DejaVuSans-30" x="63.623047"/>
      </g>
     </g>
    </g>
    <g id="xtick_6">
     <g id="line2d_6">
      <g>
       <use xlink:href="#m5c74fc79b5" x="405.112876" y="307.584" style="stroke: #000000; stroke-width: 0.8"/>
      </g>
     </g>
     <g id="text_6">
      <!-- 50 -->
      <g transform="translate(398.750376 322.182437) scale(0.1 -0.1)">
       <defs>
        <path id="DejaVuSans-35" d="M 691 4666 
L 3169 4666 
L 3169 4134 
L 1269 4134 
L 1269 2991 
Q 1406 3038 1543 3061 
Q 1681 3084 1819 3084 
Q 2600 3084 3056 2656 
Q 3513 2228 3513 1497 
Q 3513 744 3044 326 
Q 2575 -91 1722 -91 
Q 1428 -91 1123 -41 
Q 819 9 494 109 
L 494 744 
Q 775 591 1075 516 
Q 1375 441 1709 441 
Q 2250 441 2565 725 
Q 2881 1009 2881 1497 
Q 2881 1984 2565 2268 
Q 2250 2553 1709 2553 
Q 1456 2553 1204 2497 
Q 953 2441 691 2322 
L 691 4666 
z
" transform="scale(0.015625)"/>
       </defs>
       <use xlink:href="#DejaVuSans-35"/>
       <use xlink:href="#DejaVuSans-30" x="63.623047"/>
      </g>
     </g>
    </g>
    <g id="text_7">
     <!-- Generations -->
     <g transform="translate(205.662344 335.860562) scale(0.1 -0.1)">
      <defs>
       <path id="DejaVuSans-47" d="M 3809 666 
L 3809 1919 
L 2778 1919 
L 2778 2438 
L 4434 2438 
L 4434 434 
Q 4069 175 3628 42 
Q 3188 -91 2688 -91 
Q 1594 -91 976 548 
Q 359 1188 359 2328 
Q 359 3472 976 4111 
Q 1594 4750 2688 4750 
Q 3144 4750 3555 4637 
Q 3966 4525 4313 4306 
L 4313 3634 
Q 3963 3931 3569 4081 
Q 3175 4231 2741 4231 
Q 1884 4231 1454 3753 
Q 1025 3275 1025 2328 
Q 1025 1384 1454 906 
Q 1884 428 2741 428 
Q 3075 428 3337 486 
Q 3600 544 3809 666 
z
" transform="scale(0.015625)"/>
       <path id="DejaVuSans-65" d="M 3597 1894 
L 3597 1613 
L 953 1613 
Q 991 1019 1311 708 
Q 1631 397 2203 397 
Q 2534 397 2845 478 
Q 3156 559 3463 722 
L 3463 178 
Q 3153 47 2828 -22 
Q 2503 -91 2169 -91 
Q 1331 -91 842 396 
Q 353 884 353 1716 
Q 353 2575 817 3079 
Q 1281 3584 2069 3584 
Q 2775 3584 3186 3129 
Q 3597 2675 3597 1894 
z
M 3022 2063 
Q 3016 2534 2758 2815 
Q 2500 3097 2075 3097 
Q 1594 3097 1305 2825 
Q 1016 2553 972 2059 
L 3022 2063 
z
" transform="scale(0.015625)"/>
       <path id="DejaVuSans-6e" d="M 3513 2113 
L 3513 0 
L 2938 0 
L 2938 2094 
Q 2938 2591 2744 2837 
Q 2550 3084 2163 3084 
Q 1697 3084 1428 2787 
Q 1159 2491 1159 1978 
L 1159 0 
L 581 0 
L 581 3500 
L 1159 3500 
L 1159 2956 
Q 1366 3272 1645 3428 
Q 1925 3584 2291 3584 
Q 2894 3584 3203 3211 
Q 3513 2838 3513 2113 
z
" transform="scale(0.015625)"/>
       <path id="DejaVuSans-72" d="M 2631 2963 
Q 2534 3019 2420 3045 
Q 2306 3072 2169 3072 
Q 1681 3072 1420 2755 
Q 1159 2438 1159 1844 
L 1159 0 
L 581 0 
L 581 3500 
L 1159 3500 
L 1159 2956 
Q 1341 3275 1631 3429 
Q 1922 3584 2338 3584 
Q 2397 3584 2469 3576 
Q 2541 3569 2628 3553 
L 2631 2963 
z
" transform="scale(0.015625)"/>
       <path id="DejaVuSans-61" d="M 2194 1759 
Q 1497 1759 1228 1600 
Q 959 1441 959 1056 
Q 959 750 1161 570 
Q 1363 391 1709 391 
Q 2188 391 2477 730 
Q 2766 1069 2766 1631 
L 2766 1759 
L 2194 1759 
z
M 3341 1997 
L 3341 0 
L 2766 0 
L 2766 531 
Q 2569 213 2275 61 
Q 1981 -91 1556 -91 
Q 1019 -91 701 211 
Q 384 513 384 1019 
Q 384 1609 779 1909 
Q 1175 2209 1959 2209 
L 2766 2209 
L 2766 2266 
Q 2766 2663 2505 2880 
Q 2244 3097 1772 3097 
Q 1472 3097 1187 3025 
Q 903 2953 641 2809 
L 641 3341 
Q 956 3463 1253 3523 
Q 1550 3584 1831 3584 
Q 2591 3584 2966 3190 
Q 3341 2797 3341 1997 
z
" transform="scale(0.015625)"/>
       <path id="DejaVuSans-74" d="M 1172 4494 
L 1172 3500 
L 2356 3500 
L 2356 3053 
L 1172 3053 
L 1172 1153 
Q 1172 725 1289 603 
Q 1406 481 1766 481 
L 2356 481 
L 2356 0 
L 1766 0 
Q 1100 0 847 248 
Q 594 497 594 1153 
L 594 3053 
L 172 3053 
L 172 3500 
L 594 3500 
L 594 4494 
L 1172 4494 
z
" transform="scale(0.015625)"/>
       <path id="DejaVuSans-69" d="M 603 3500 
L 1178 3500 
L 1178 0 
L 603 0 
L 603 3500 
z
M 603 4863 
L 1178 4863 
L 1178 4134 
L 603 4134 
L 603 4863 
z
" transform="scale(0.015625)"/>
       <path id="DejaVuSans-6f" d="M 1959 3097 
Q 1497 3097 1228 2736 
Q 959 2375 959 1747 
Q 959 1119 1226 758 
Q 1494 397 1959 397 
Q 2419 397 2687 759 
Q 2956 1122 2956 1747 
Q 2956 2369 2687 2733 
Q 2419 3097 1959 3097 
z
M 1959 3584 
Q 2709 3584 3137 3096 
Q 3566 2609 3566 1747 
Q 3566 888 3137 398 
Q 2709 -91 1959 -91 
Q 1206 -91 779 398 
Q 353 888 353 1747 
Q 353 2609 779 3096 
Q 1206 3584 1959 3584 
z
" transform="scale(0.015625)"/>
       <path id="DejaVuSans-73" d="M 2834 3397 
L 2834 2853 
Q 2591 2978 2328 3040 
Q 2066 3103 1784 3103 
Q 1356 3103 1142 2972 
Q 928 2841 928 2578 
Q 928 2378 1081 2264 
Q 1234 2150 1697 2047 
L 1894 2003 
Q 2506 1872 2764 1633 
Q 3022 1394 3022 966 
Q 3022 478 2636 193 
Q 2250 -91 1575 -91 
Q 1294 -91 989 -36 
Q 684 19 347 128 
L 347 722 
Q 666 556 975 473 
Q 1284 391 1588 391 
Q 1994 391 2212 530 
Q 2431 669 2431 922 
Q 2431 1156 2273 1281 
Q 2116 1406 1581 1522 
L 1381 1569 
Q 847 1681 609 1914 
Q 372 2147 372 2553 
Q 372 3047 722 3315 
Q 1072 3584 1716 3584 
Q 2034 3584 2315 3537 
Q 2597 3491 2834 3397 
z
" transform="scale(0.015625)"/>
      </defs>
      <use xlink:href="#DejaVuSans-47"/>
      <use xlink:href="#DejaVuSans-65" x="77.490234"/>
      <use xlink:href="#DejaVuSans-6e" x="139.013672"/>
      <use xlink:href="#DejaVuSans-65" x="202.392578"/>
      <use xlink:href="#DejaVuSans-72" x="263.916016"/>
      <use xlink:href="#DejaVuSans-61" x="305.029297"/>
      <use xlink:href="#DejaVuSans-74" x="366.308594"/>
      <use xlink:href="#DejaVuSans-69" x="405.517578"/>
      <use xlink:href="#DejaVuSans-6f" x="433.300781"/>
      <use xlink:href="#DejaVuSans-6e" x="494.482422"/>
      <use xlink:href="#DejaVuSans-73" x="557.861328"/>
     </g>
    </g>
   </g>
   <g id="matplotlib.axis_2">
    <g id="ytick_1">
     <g id="line2d_7">
      <defs>
       <path id="m372572c440" d="M 0 0 
L -3.5 0 
" style="stroke: #000000; stroke-width: 0.8"/>
      </defs>
      <g>
       <use xlink:href="#m372572c440" x="57.6" y="307.584" style="stroke: #000000; stroke-width: 0.8"/>
      </g>
     </g>
     <g id="text_8">
      <!-- 0 -->
      <g transform="translate(44.2375 311.383219) scale(0.1 -0.1)">
       <use xlink:href="#DejaVuSans-30"/>
      </g>
     </g>
    </g>
    <g id="ytick_2">
     <g id="line2d_8">
      <g>
       <use xlink:href="#m372572c440" x="57.6" y="277.122462" style="stroke: #000000; stroke-width: 0.8"/>
      </g>
     </g>
     <g id="text_9">
      <!-- 25 -->
      <g transform="translate(37.875 280.92168) scale(0.1 -0.1)">
       <use xlink:href="#DejaVuSans-32"/>
       <use xlink:href="#DejaVuSans-35" x="63.623047"/>
      </g>
     </g>
    </g>
    <g id="ytick_3">
     <g id="line2d_9">
      <g>
       <use xlink:href="#m372572c440" x="57.6" y="246.660923" style="stroke: #000000; stroke-width: 0.8"/>
      </g>
     </g>
     <g id="text_10">
      <!-- 50 -->
      <g transform="translate(37.875 250.460142) scale(0.1 -0.1)">
       <use xlink:href="#DejaVuSans-35"/>
       <use xlink:href="#DejaVuSans-30" x="63.623047"/>
      </g>
     </g>
    </g>
    <g id="ytick_4">
     <g id="line2d_10">
      <g>
       <use xlink:href="#m372572c440" x="57.6" y="216.199385" style="stroke: #000000; stroke-width: 0.8"/>
      </g>
     </g>
     <g id="text_11">
      <!-- 75 -->
      <g transform="translate(37.875 219.998603) scale(0.1 -0.1)">
       <defs>
        <path id="DejaVuSans-37" d="M 525 4666 
L 3525 4666 
L 3525 4397 
L 1831 0 
L 1172 0 
L 2766 4134 
L 525 4134 
L 525 4666 
z
" transform="scale(0.015625)"/>
       </defs>
       <use xlink:href="#DejaVuSans-37"/>
       <use xlink:href="#DejaVuSans-35" x="63.623047"/>
      </g>
     </g>
    </g>
    <g id="ytick_5">
     <g id="line2d_11">
      <g>
       <use xlink:href="#m372572c440" x="57.6" y="185.737846" style="stroke: #000000; stroke-width: 0.8"/>
      </g>
     </g>
     <g id="text_12">
      <!-- 100 -->
      <g transform="translate(31.5125 189.537065) scale(0.1 -0.1)">
       <use xlink:href="#DejaVuSans-31"/>
       <use xlink:href="#DejaVuSans-30" x="63.623047"/>
       <use xlink:href="#DejaVuSans-30" x="127.246094"/>
      </g>
     </g>
    </g>
    <g id="ytick_6">
     <g id="line2d_12">
      <g>
       <use xlink:href="#m372572c440" x="57.6" y="155.276308" style="stroke: #000000; stroke-width: 0.8"/>
      </g>
     </g>
     <g id="text_13">
      <!-- 125 -->
      <g transform="translate(31.5125 159.075526) scale(0.1 -0.1)">
       <use xlink:href="#DejaVuSans-31"/>
       <use xlink:href="#DejaVuSans-32" x="63.623047"/>
       <use xlink:href="#DejaVuSans-35" x="127.246094"/>
      </g>
     </g>
    </g>
    <g id="ytick_7">
     <g id="line2d_13">
      <g>
       <use xlink:href="#m372572c440" x="57.6" y="124.814769" style="stroke: #000000; stroke-width: 0.8"/>
      </g>
     </g>
     <g id="text_14">
      <!-- 150 -->
      <g transform="translate(31.5125 128.613988) scale(0.1 -0.1)">
       <use xlink:href="#DejaVuSans-31"/>
       <use xlink:href="#DejaVuSans-35" x="63.623047"/>
       <use xlink:href="#DejaVuSans-30" x="127.246094"/>
      </g>
     </g>
    </g>
    <g id="ytick_8">
     <g id="line2d_14">
      <g>
       <use xlink:href="#m372572c440" x="57.6" y="94.353231" style="stroke: #000000; stroke-width: 0.8"/>
      </g>
     </g>
     <g id="text_15">
      <!-- 175 -->
      <g transform="translate(31.5125 98.15245) scale(0.1 -0.1)">
       <use xlink:href="#DejaVuSans-31"/>
       <use xlink:href="#DejaVuSans-37" x="63.623047"/>
       <use xlink:href="#DejaVuSans-35" x="127.246094"/>
      </g>
     </g>
    </g>
    <g id="ytick_9">
     <g id="line2d_15">
      <g>
       <use xlink:href="#m372572c440" x="57.6" y="63.891692" style="stroke: #000000; stroke-width: 0.8"/>
      </g>
     </g>
     <g id="text_16">
      <!-- 200 -->
      <g transform="translate(31.5125 67.690911) scale(0.1 -0.1)">
       <use xlink:href="#DejaVuSans-32"/>
       <use xlink:href="#DejaVuSans-30" x="63.623047"/>
       <use xlink:href="#DejaVuSans-30" x="127.246094"/>
      </g>
     </g>
    </g>
    <g id="text_17">
     <!-- Size per Species -->
     <g transform="translate(25.432812 215.520969) rotate(-90) scale(0.1 -0.1)">
      <defs>
       <path id="DejaVuSans-53" d="M 3425 4513 
L 3425 3897 
Q 3066 4069 2747 4153 
Q 2428 4238 2131 4238 
Q 1616 4238 1336 4038 
Q 1056 3838 1056 3469 
Q 1056 3159 1242 3001 
Q 1428 2844 1947 2747 
L 2328 2669 
Q 3034 2534 3370 2195 
Q 3706 1856 3706 1288 
Q 3706 609 3251 259 
Q 2797 -91 1919 -91 
Q 1588 -91 1214 -16 
Q 841 59 441 206 
L 441 856 
Q 825 641 1194 531 
Q 1563 422 1919 422 
Q 2459 422 2753 634 
Q 3047 847 3047 1241 
Q 3047 1584 2836 1778 
Q 2625 1972 2144 2069 
L 1759 2144 
Q 1053 2284 737 2584 
Q 422 2884 422 3419 
Q 422 4038 858 4394 
Q 1294 4750 2059 4750 
Q 2388 4750 2728 4690 
Q 3069 4631 3425 4513 
z
" transform="scale(0.015625)"/>
       <path id="DejaVuSans-7a" d="M 353 3500 
L 3084 3500 
L 3084 2975 
L 922 459 
L 3084 459 
L 3084 0 
L 275 0 
L 275 525 
L 2438 3041 
L 353 3041 
L 353 3500 
z
" transform="scale(0.015625)"/>
       <path id="DejaVuSans-20" transform="scale(0.015625)"/>
       <path id="DejaVuSans-70" d="M 1159 525 
L 1159 -1331 
L 581 -1331 
L 581 3500 
L 1159 3500 
L 1159 2969 
Q 1341 3281 1617 3432 
Q 1894 3584 2278 3584 
Q 2916 3584 3314 3078 
Q 3713 2572 3713 1747 
Q 3713 922 3314 415 
Q 2916 -91 2278 -91 
Q 1894 -91 1617 61 
Q 1341 213 1159 525 
z
M 3116 1747 
Q 3116 2381 2855 2742 
Q 2594 3103 2138 3103 
Q 1681 3103 1420 2742 
Q 1159 2381 1159 1747 
Q 1159 1113 1420 752 
Q 1681 391 2138 391 
Q 2594 391 2855 752 
Q 3116 1113 3116 1747 
z
" transform="scale(0.015625)"/>
       <path id="DejaVuSans-63" d="M 3122 3366 
L 3122 2828 
Q 2878 2963 2633 3030 
Q 2388 3097 2138 3097 
Q 1578 3097 1268 2742 
Q 959 2388 959 1747 
Q 959 1106 1268 751 
Q 1578 397 2138 397 
Q 2388 397 2633 464 
Q 2878 531 3122 666 
L 3122 134 
Q 2881 22 2623 -34 
Q 2366 -91 2075 -91 
Q 1284 -91 818 406 
Q 353 903 353 1747 
Q 353 2603 823 3093 
Q 1294 3584 2113 3584 
Q 2378 3584 2631 3529 
Q 2884 3475 3122 3366 
z
" transform="scale(0.015625)"/>
      </defs>
      <use xlink:href="#DejaVuSans-53"/>
      <use xlink:href="#DejaVuSans-69" x="63.476562"/>
      <use xlink:href="#DejaVuSans-7a" x="91.259766"/>
      <use xlink:href="#DejaVuSans-65" x="143.75"/>
      <use xlink:href="#DejaVuSans-20" x="205.273438"/>
      <use xlink:href="#DejaVuSans-70" x="237.060547"/>
      <use xlink:href="#DejaVuSans-65" x="300.537109"/>
      <use xlink:href="#DejaVuSans-72" x="362.060547"/>
      <use xlink:href="#DejaVuSans-20" x="403.173828"/>
      <use xlink:href="#DejaVuSans-53" x="434.960938"/>
      <use xlink:href="#DejaVuSans-70" x="498.4375"/>
      <use xlink:href="#DejaVuSans-65" x="561.914062"/>
      <use xlink:href="#DejaVuSans-63" x="623.4375"/>
      <use xlink:href="#DejaVuSans-69" x="678.417969"/>
      <use xlink:href="#DejaVuSans-65" x="706.201172"/>
      <use xlink:href="#DejaVuSans-73" x="767.724609"/>
     </g>
    </g>
   </g>
   <g id="patch_3">
    <path d="M 57.6 307.584 
L 57.6 41.472 
" style="fill: none; stroke: #000000; stroke-width: 0.8; stroke-linejoin: miter; stroke-linecap: square"/>
   </g>
   <g id="patch_4">
    <path d="M 414.72 307.584 
L 414.72 41.472 
" style="fill: none; stroke: #000000; stroke-width: 0.8; stroke-linejoin: miter; stroke-linecap: square"/>
   </g>
   <g id="patch_5">
    <path d="M 57.6 307.584 
L 414.72 307.584 
" style="fill: none; stroke: #000000; stroke-width: 0.8; stroke-linejoin: miter; stroke-linecap: square"/>
   </g>
   <g id="patch_6">
    <path d="M 57.6 41.472 
L 414.72 41.472 
" style="fill: none; stroke: #000000; stroke-width: 0.8; stroke-linejoin: miter; stroke-linecap: square"/>
   </g>
   <g id="text_18">
    <!-- Speciation -->
    <g transform="translate(204.714375 35.472) scale(0.12 -0.12)">
     <use xlink:href="#DejaVuSans-53"/>
     <use xlink:href="#DejaVuSans-70" x="63.476562"/>
     <use xlink:href="#DejaVuSans-65" x="126.953125"/>
     <use xlink:href="#DejaVuSans-63" x="188.476562"/>
     <use xlink:href="#DejaVuSans-69" x="243.457031"/>
     <use xlink:href="#DejaVuSans-61" x="271.240234"/>
     <use xlink:href="#DejaVuSans-74" x="332.519531"/>
     <use xlink:href="#DejaVuSans-69" x="371.728516"/>
     <use xlink:href="#DejaVuSans-6f" x="399.511719"/>
     <use xlink:href="#DejaVuSans-6e" x="460.693359"/>
    </g>
   </g>
  </g>
 </g>
 <defs>
  <clipPath id="p4394a6c08b">
   <rect x="57.6" y="41.472" width="357.12" height="266.112"/>
  </clipPath>
 </defs>
</svg>
