<?xml version="1.0" encoding="utf-8" standalone="no"?>
<!DOCTYPE svg PUBLIC "-//W3C//DTD SVG 1.1//EN"
  "http://www.w3.org/Graphics/SVG/1.1/DTD/svg11.dtd">
<svg xmlns:xlink="http://www.w3.org/1999/xlink" width="460.8pt" height="345.6pt" viewBox="0 0 460.8 345.6" xmlns="http://www.w3.org/2000/svg" version="1.1">
 <metadata>
  <rdf:RDF xmlns:dc="http://purl.org/dc/elements/1.1/" xmlns:cc="http://creativecommons.org/ns#" xmlns:rdf="http://www.w3.org/1999/02/22-rdf-syntax-ns#">
   <cc:Work>
    <dc:type rdf:resource="http://purl.org/dc/dcmitype/StillImage"/>
    <dc:date>2024-08-12T08:06:31.309433</dc:date>
    <dc:format>image/svg+xml</dc:format>
    <dc:creator>
     <cc:Agent>
      <dc:title>Matplotlib v3.8.4, https://matplotlib.org/</dc:title>
     </cc:Agent>
    </dc:creator>
   </cc:Work>
  </rdf:RDF>
 </metadata>
 <defs>
  <style type="text/css">*{stroke-linejoin: round; stroke-linecap: butt}</style>
 </defs>
 <g id="figure_1">
  <g id="patch_1">
   <path d="M 0 345.6 
L 460.8 345.6 
L 460.8 0 
L 0 0 
z
" style="fill: #ffffff"/>
  </g>
  <g id="axes_1">
   <g id="patch_2">
    <path d="M 57.6 307.584 
L 414.72 307.584 
L 414.72 41.472 
L 57.6 41.472 
z
" style="fill: #ffffff"/>
   </g>
   <g id="PolyCollection_1">
    <path d="M 73.832727 184.484571 
L 73.832727 307.584 
L 80.45833 307.584 
L 87.083933 307.584 
L 93.709536 307.584 
L 100.335139 307.584 
L 106.960742 307.584 
L 113.586345 307.584 
L 120.211948 307.584 
L 126.837551 307.584 
L 133.463154 307.584 
L 140.088757 307.584 
L 146.71436 307.584 
L 153.339963 307.584 
L 159.965566 307.584 
L 166.591169 307.584 
L 173.216772 307.584 
L 179.842375 307.584 
L 186.467978 307.584 
L 193.093581 307.584 
L 199.719184 307.584 
L 206.344787 307.584 
L 212.97039 307.584 
L 219.595993 307.584 
L 226.221596 307.584 
L 232.847199 307.584 
L 239.472801 307.584 
L 246.098404 307.584 
L 252.724007 307.584 
L 259.34961 307.584 
L 265.975213 307.584 
L 272.600816 307.584 
L 279.226419 307.584 
L 285.852022 307.584 
L 292.477625 307.584 
L 299.103228 307.584 
L 305.728831 307.584 
L 312.354434 307.584 
L 318.980037 307.584 
L 325.60564 307.584 
L 332.231243 307.584 
L 338.856846 307.584 
L 345.482449 307.584 
L 352.108052 307.584 
L 358.733655 307.584 
L 365.359258 307.584 
L 371.984861 307.584 
L 378.610464 307.584 
L 385.236067 307.584 
L 391.86167 307.584 
L 398.487273 307.584 
L 398.487273 307.584 
L 398.487273 307.584 
L 391.86167 307.584 
L 385.236067 307.584 
L 378.610464 307.584 
L 371.984861 307.584 
L 365.359258 307.584 
L 358.733655 307.584 
L 352.108052 307.584 
L 345.482449 307.584 
L 338.856846 307.584 
L 332.231243 307.584 
L 325.60564 303.963429 
L 318.980037 284.653714 
L 312.354434 294.308571 
L 305.728831 278.619429 
L 299.103228 277.412571 
L 292.477625 289.481143 
L 285.852022 279.826286 
L 279.226419 295.515429 
L 272.600816 284.653714 
L 265.975213 290.688 
L 259.34961 293.101714 
L 252.724007 285.860571 
L 246.098404 281.033143 
L 239.472801 289.481143 
L 232.847199 289.481143 
L 226.221596 297.929143 
L 219.595993 289.481143 
L 212.97039 290.688 
L 206.344787 256.896 
L 199.719184 297.929143 
L 193.093581 279.826286 
L 186.467978 282.24 
L 179.842375 293.101714 
L 173.216772 289.481143 
L 166.591169 281.033143 
L 159.965566 288.274286 
L 153.339963 289.481143 
L 146.71436 285.860571 
L 140.088757 271.378286 
L 133.463154 237.586286 
L 126.837551 296.722286 
L 120.211948 293.101714 
L 113.586345 289.481143 
L 106.960742 276.205714 
L 100.335139 271.378286 
L 93.709536 264.137143 
L 87.083933 268.964571 
L 80.45833 246.034286 
L 73.832727 184.484571 
z
" clip-path="url(#p58e7a27d06)" style="fill: #1f77b4"/>
   </g>
   <g id="PolyCollection_2">
    <path d="M 73.832727 168.795429 
L 73.832727 184.484571 
L 80.45833 246.034286 
L 87.083933 268.964571 
L 93.709536 264.137143 
L 100.335139 271.378286 
L 106.960742 276.205714 
L 113.586345 289.481143 
L 120.211948 293.101714 
L 126.837551 296.722286 
L 133.463154 237.586286 
L 140.088757 271.378286 
L 146.71436 285.860571 
L 153.339963 289.481143 
L 159.965566 288.274286 
L 166.591169 281.033143 
L 173.216772 289.481143 
L 179.842375 293.101714 
L 186.467978 282.24 
L 193.093581 279.826286 
L 199.719184 297.929143 
L 206.344787 256.896 
L 212.97039 290.688 
L 219.595993 289.481143 
L 226.221596 297.929143 
L 232.847199 289.481143 
L 239.472801 289.481143 
L 246.098404 281.033143 
L 252.724007 285.860571 
L 259.34961 293.101714 
L 265.975213 290.688 
L 272.600816 284.653714 
L 279.226419 295.515429 
L 285.852022 279.826286 
L 292.477625 289.481143 
L 299.103228 277.412571 
L 305.728831 278.619429 
L 312.354434 294.308571 
L 318.980037 284.653714 
L 325.60564 303.963429 
L 332.231243 307.584 
L 338.856846 307.584 
L 345.482449 307.584 
L 352.108052 307.584 
L 358.733655 307.584 
L 365.359258 307.584 
L 371.984861 307.584 
L 378.610464 307.584 
L 385.236067 307.584 
L 391.86167 307.584 
L 398.487273 307.584 
L 398.487273 307.584 
L 398.487273 307.584 
L 391.86167 307.584 
L 385.236067 307.584 
L 378.610464 307.584 
L 371.984861 307.584 
L 365.359258 307.584 
L 358.733655 307.584 
L 352.108052 307.584 
L 345.482449 307.584 
L 338.856846 307.584 
L 332.231243 307.584 
L 325.60564 303.963429 
L 318.980037 284.653714 
L 312.354434 294.308571 
L 305.728831 278.619429 
L 299.103228 277.412571 
L 292.477625 289.481143 
L 285.852022 279.826286 
L 279.226419 295.515429 
L 272.600816 284.653714 
L 265.975213 290.688 
L 259.34961 293.101714 
L 252.724007 285.860571 
L 246.098404 281.033143 
L 239.472801 273.792 
L 232.847199 272.585143 
L 226.221596 285.860571 
L 219.595993 276.205714 
L 212.97039 277.412571 
L 206.344787 243.620571 
L 199.719184 285.860571 
L 193.093581 271.378286 
L 186.467978 259.309714 
L 179.842375 287.067429 
L 173.216772 278.619429 
L 166.591169 264.137143 
L 159.965566 276.205714 
L 153.339963 271.378286 
L 146.71436 267.757714 
L 140.088757 253.275429 
L 133.463154 220.690286 
L 126.837551 284.653714 
L 120.211948 276.205714 
L 113.586345 266.550857 
L 106.960742 247.241143 
L 100.335139 252.068571 
L 93.709536 242.413714 
L 87.083933 236.379429 
L 80.45833 227.931429 
L 73.832727 168.795429 
z
" clip-path="url(#p58e7a27d06)" style="fill: #ff7f0e"/>
   </g>
   <g id="PolyCollection_3">
    <path d="M 73.832727 139.830857 
L 73.832727 168.795429 
L 80.45833 227.931429 
L 87.083933 236.379429 
L 93.709536 242.413714 
L 100.335139 252.068571 
L 106.960742 247.241143 
L 113.586345 266.550857 
L 120.211948 276.205714 
L 126.837551 284.653714 
L 133.463154 220.690286 
L 140.088757 253.275429 
L 146.71436 267.757714 
L 153.339963 271.378286 
L 159.965566 276.205714 
L 166.591169 264.137143 
L 173.216772 278.619429 
L 179.842375 287.067429 
L 186.467978 259.309714 
L 193.093581 271.378286 
L 199.719184 285.860571 
L 206.344787 243.620571 
L 212.97039 277.412571 
L 219.595993 276.205714 
L 226.221596 285.860571 
L 232.847199 272.585143 
L 239.472801 273.792 
L 246.098404 281.033143 
L 252.724007 285.860571 
L 259.34961 293.101714 
L 265.975213 290.688 
L 272.600816 284.653714 
L 279.226419 295.515429 
L 285.852022 279.826286 
L 292.477625 289.481143 
L 299.103228 277.412571 
L 305.728831 278.619429 
L 312.354434 294.308571 
L 318.980037 284.653714 
L 325.60564 303.963429 
L 332.231243 307.584 
L 338.856846 307.584 
L 345.482449 307.584 
L 352.108052 307.584 
L 358.733655 307.584 
L 365.359258 307.584 
L 371.984861 307.584 
L 378.610464 307.584 
L 385.236067 307.584 
L 391.86167 307.584 
L 398.487273 307.584 
L 398.487273 307.584 
L 398.487273 307.584 
L 391.86167 307.584 
L 385.236067 307.584 
L 378.610464 307.584 
L 371.984861 307.584 
L 365.359258 307.584 
L 358.733655 307.584 
L 352.108052 307.584 
L 345.482449 307.584 
L 338.856846 307.584 
L 332.231243 307.584 
L 325.60564 303.963429 
L 318.980037 284.653714 
L 312.354434 294.308571 
L 305.728831 278.619429 
L 299.103228 277.412571 
L 292.477625 289.481143 
L 285.852022 279.826286 
L 279.226419 295.515429 
L 272.600816 284.653714 
L 265.975213 290.688 
L 259.34961 293.101714 
L 252.724007 274.998857 
L 246.098404 264.137143 
L 239.472801 253.275429 
L 232.847199 246.034286 
L 226.221596 259.309714 
L 219.595993 255.689143 
L 212.97039 258.102857 
L 206.344787 231.552 
L 199.719184 268.964571 
L 193.093581 253.275429 
L 186.467978 240 
L 179.842375 270.171429 
L 173.216772 241.206857 
L 166.591169 246.034286 
L 159.965566 203.794286 
L 153.339963 252.068571 
L 146.71436 244.827429 
L 140.088757 232.758857 
L 133.463154 213.449143 
L 126.837551 231.552 
L 120.211948 248.448 
L 113.586345 235.172571 
L 106.960742 227.931429 
L 100.335139 207.414857 
L 93.709536 191.725714 
L 87.083933 220.690286 
L 80.45833 185.691429 
L 73.832727 139.830857 
z
" clip-path="url(#p58e7a27d06)" style="fill: #2ca02c"/>
   </g>
   <g id="PolyCollection_4">
    <path d="M 73.832727 120.521143 
L 73.832727 139.830857 
L 80.45833 185.691429 
L 87.083933 220.690286 
L 93.709536 191.725714 
L 100.335139 207.414857 
L 106.960742 227.931429 
L 113.586345 235.172571 
L 120.211948 248.448 
L 126.837551 231.552 
L 133.463154 213.449143 
L 140.088757 232.758857 
L 146.71436 244.827429 
L 153.339963 252.068571 
L 159.965566 203.794286 
L 166.591169 246.034286 
L 173.216772 241.206857 
L 179.842375 270.171429 
L 186.467978 240 
L 193.093581 253.275429 
L 199.719184 268.964571 
L 206.344787 231.552 
L 212.97039 258.102857 
L 219.595993 255.689143 
L 226.221596 259.309714 
L 232.847199 246.034286 
L 239.472801 253.275429 
L 246.098404 264.137143 
L 252.724007 274.998857 
L 259.34961 293.101714 
L 265.975213 290.688 
L 272.600816 284.653714 
L 279.226419 295.515429 
L 285.852022 279.826286 
L 292.477625 289.481143 
L 299.103228 277.412571 
L 305.728831 278.619429 
L 312.354434 294.308571 
L 318.980037 284.653714 
L 325.60564 303.963429 
L 332.231243 307.584 
L 338.856846 307.584 
L 345.482449 307.584 
L 352.108052 307.584 
L 358.733655 307.584 
L 365.359258 307.584 
L 371.984861 307.584 
L 378.610464 307.584 
L 385.236067 307.584 
L 391.86167 307.584 
L 398.487273 307.584 
L 398.487273 252.068571 
L 398.487273 252.068571 
L 391.86167 240 
L 385.236067 250.861714 
L 378.610464 264.137143 
L 371.984861 278.619429 
L 365.359258 287.067429 
L 358.733655 293.101714 
L 352.108052 291.894857 
L 345.482449 281.033143 
L 338.856846 295.515429 
L 332.231243 291.894857 
L 325.60564 290.688 
L 318.980037 265.344 
L 312.354434 274.998857 
L 305.728831 255.689143 
L 299.103228 260.516571 
L 292.477625 270.171429 
L 285.852022 266.550857 
L 279.226419 278.619429 
L 272.600816 261.723429 
L 265.975213 271.378286 
L 259.34961 274.998857 
L 252.724007 259.309714 
L 246.098404 252.068571 
L 239.472801 238.793143 
L 232.847199 223.104 
L 226.221596 235.172571 
L 219.595993 229.138286 
L 212.97039 246.034286 
L 206.344787 211.035429 
L 199.719184 246.034286 
L 193.093581 244.827429 
L 186.467978 232.758857 
L 179.842375 255.689143 
L 173.216772 232.758857 
L 166.591169 232.758857 
L 159.965566 194.139429 
L 153.339963 235.172571 
L 146.71436 229.138286 
L 140.088757 223.104 
L 133.463154 198.966857 
L 126.837551 215.862857 
L 120.211948 230.345143 
L 113.586345 227.931429 
L 106.960742 194.139429 
L 100.335139 188.105143 
L 93.709536 168.795429 
L 87.083933 209.828571 
L 80.45833 176.036571 
L 73.832727 120.521143 
z
" clip-path="url(#p58e7a27d06)" style="fill: #d62728"/>
   </g>
   <g id="PolyCollection_5">
    <path d="M 73.832727 112.073143 
L 73.832727 120.521143 
L 80.45833 176.036571 
L 87.083933 209.828571 
L 93.709536 168.795429 
L 100.335139 188.105143 
L 106.960742 194.139429 
L 113.586345 227.931429 
L 120.211948 230.345143 
L 126.837551 215.862857 
L 133.463154 198.966857 
L 140.088757 223.104 
L 146.71436 229.138286 
L 153.339963 235.172571 
L 159.965566 194.139429 
L 166.591169 232.758857 
L 173.216772 232.758857 
L 179.842375 255.689143 
L 186.467978 232.758857 
L 193.093581 244.827429 
L 199.719184 246.034286 
L 206.344787 211.035429 
L 212.97039 246.034286 
L 219.595993 229.138286 
L 226.221596 235.172571 
L 232.847199 223.104 
L 239.472801 238.793143 
L 246.098404 252.068571 
L 252.724007 259.309714 
L 259.34961 274.998857 
L 265.975213 271.378286 
L 272.600816 261.723429 
L 279.226419 278.619429 
L 285.852022 266.550857 
L 292.477625 270.171429 
L 299.103228 260.516571 
L 305.728831 255.689143 
L 312.354434 274.998857 
L 318.980037 265.344 
L 325.60564 290.688 
L 332.231243 291.894857 
L 338.856846 295.515429 
L 345.482449 281.033143 
L 352.108052 291.894857 
L 358.733655 293.101714 
L 365.359258 287.067429 
L 371.984861 278.619429 
L 378.610464 264.137143 
L 385.236067 250.861714 
L 391.86167 240 
L 398.487273 252.068571 
L 398.487273 252.068571 
L 398.487273 252.068571 
L 391.86167 240 
L 385.236067 250.861714 
L 378.610464 264.137143 
L 371.984861 278.619429 
L 365.359258 287.067429 
L 358.733655 293.101714 
L 352.108052 291.894857 
L 345.482449 281.033143 
L 338.856846 295.515429 
L 332.231243 291.894857 
L 325.60564 290.688 
L 318.980037 265.344 
L 312.354434 274.998857 
L 305.728831 255.689143 
L 299.103228 260.516571 
L 292.477625 270.171429 
L 285.852022 266.550857 
L 279.226419 278.619429 
L 272.600816 261.723429 
L 265.975213 271.378286 
L 259.34961 274.998857 
L 252.724007 259.309714 
L 246.098404 252.068571 
L 239.472801 238.793143 
L 232.847199 223.104 
L 226.221596 235.172571 
L 219.595993 229.138286 
L 212.97039 235.172571 
L 206.344787 201.380571 
L 199.719184 240 
L 193.093581 233.965714 
L 186.467978 219.483429 
L 179.842375 250.861714 
L 173.216772 224.310857 
L 166.591169 223.104 
L 159.965566 185.691429 
L 153.339963 225.517714 
L 146.71436 219.483429 
L 140.088757 214.656 
L 133.463154 189.312 
L 126.837551 207.414857 
L 120.211948 221.897143 
L 113.586345 219.483429 
L 106.960742 189.312 
L 100.335139 179.657143 
L 93.709536 145.865143 
L 87.083933 189.312 
L 80.45833 155.52 
L 73.832727 112.073143 
z
" clip-path="url(#p58e7a27d06)" style="fill: #9467bd"/>
   </g>
   <g id="PolyCollection_6">
    <path d="M 73.832727 101.211429 
L 73.832727 112.073143 
L 80.45833 155.52 
L 87.083933 189.312 
L 93.709536 145.865143 
L 100.335139 179.657143 
L 106.960742 189.312 
L 113.586345 219.483429 
L 120.211948 221.897143 
L 126.837551 207.414857 
L 133.463154 189.312 
L 140.088757 214.656 
L 146.71436 219.483429 
L 153.339963 225.517714 
L 159.965566 185.691429 
L 166.591169 223.104 
L 173.216772 224.310857 
L 179.842375 250.861714 
L 186.467978 219.483429 
L 193.093581 233.965714 
L 199.719184 240 
L 206.344787 201.380571 
L 212.97039 235.172571 
L 219.595993 229.138286 
L 226.221596 235.172571 
L 232.847199 223.104 
L 239.472801 238.793143 
L 246.098404 252.068571 
L 252.724007 259.309714 
L 259.34961 274.998857 
L 265.975213 271.378286 
L 272.600816 261.723429 
L 279.226419 278.619429 
L 285.852022 266.550857 
L 292.477625 270.171429 
L 299.103228 260.516571 
L 305.728831 255.689143 
L 312.354434 274.998857 
L 318.980037 265.344 
L 325.60564 290.688 
L 332.231243 291.894857 
L 338.856846 295.515429 
L 345.482449 281.033143 
L 352.108052 291.894857 
L 358.733655 293.101714 
L 365.359258 287.067429 
L 371.984861 278.619429 
L 378.610464 264.137143 
L 385.236067 250.861714 
L 391.86167 240 
L 398.487273 252.068571 
L 398.487273 252.068571 
L 398.487273 252.068571 
L 391.86167 240 
L 385.236067 250.861714 
L 378.610464 264.137143 
L 371.984861 278.619429 
L 365.359258 287.067429 
L 358.733655 293.101714 
L 352.108052 291.894857 
L 345.482449 281.033143 
L 338.856846 295.515429 
L 332.231243 291.894857 
L 325.60564 290.688 
L 318.980037 265.344 
L 312.354434 274.998857 
L 305.728831 255.689143 
L 299.103228 260.516571 
L 292.477625 270.171429 
L 285.852022 266.550857 
L 279.226419 278.619429 
L 272.600816 261.723429 
L 265.975213 271.378286 
L 259.34961 274.998857 
L 252.724007 259.309714 
L 246.098404 252.068571 
L 239.472801 238.793143 
L 232.847199 223.104 
L 226.221596 235.172571 
L 219.595993 208.621714 
L 212.97039 218.276571 
L 206.344787 188.105143 
L 199.719184 224.310857 
L 193.093581 223.104 
L 186.467978 205.001143 
L 179.842375 240 
L 173.216772 213.449143 
L 166.591169 207.414857 
L 159.965566 171.209143 
L 153.339963 213.449143 
L 146.71436 201.380571 
L 140.088757 196.553143 
L 133.463154 171.209143 
L 126.837551 184.484571 
L 120.211948 198.966857 
L 113.586345 194.139429 
L 106.960742 167.588571 
L 100.335139 161.554286 
L 93.709536 126.555429 
L 87.083933 128.969143 
L 80.45833 116.900571 
L 73.832727 101.211429 
z
" clip-path="url(#p58e7a27d06)" style="fill: #8c564b"/>
   </g>
   <g id="PolyCollection_7">
    <path d="M 73.832727 83.108571 
L 73.832727 101.211429 
L 80.45833 116.900571 
L 87.083933 128.969143 
L 93.709536 126.555429 
L 100.335139 161.554286 
L 106.960742 167.588571 
L 113.586345 194.139429 
L 120.211948 198.966857 
L 126.837551 184.484571 
L 133.463154 171.209143 
L 140.088757 196.553143 
L 146.71436 201.380571 
L 153.339963 213.449143 
L 159.965566 171.209143 
L 166.591169 207.414857 
L 173.216772 213.449143 
L 179.842375 240 
L 186.467978 205.001143 
L 193.093581 223.104 
L 199.719184 224.310857 
L 206.344787 188.105143 
L 212.97039 218.276571 
L 219.595993 208.621714 
L 226.221596 235.172571 
L 232.847199 223.104 
L 239.472801 238.793143 
L 246.098404 252.068571 
L 252.724007 259.309714 
L 259.34961 274.998857 
L 265.975213 271.378286 
L 272.600816 261.723429 
L 279.226419 278.619429 
L 285.852022 266.550857 
L 292.477625 270.171429 
L 299.103228 260.516571 
L 305.728831 255.689143 
L 312.354434 274.998857 
L 318.980037 265.344 
L 325.60564 290.688 
L 332.231243 291.894857 
L 338.856846 295.515429 
L 345.482449 281.033143 
L 352.108052 291.894857 
L 358.733655 293.101714 
L 365.359258 287.067429 
L 371.984861 278.619429 
L 378.610464 264.137143 
L 385.236067 250.861714 
L 391.86167 240 
L 398.487273 252.068571 
L 398.487273 252.068571 
L 398.487273 252.068571 
L 391.86167 240 
L 385.236067 250.861714 
L 378.610464 264.137143 
L 371.984861 278.619429 
L 365.359258 287.067429 
L 358.733655 293.101714 
L 352.108052 291.894857 
L 345.482449 281.033143 
L 338.856846 295.515429 
L 332.231243 291.894857 
L 325.60564 290.688 
L 318.980037 265.344 
L 312.354434 274.998857 
L 305.728831 255.689143 
L 299.103228 260.516571 
L 292.477625 270.171429 
L 285.852022 266.550857 
L 279.226419 278.619429 
L 272.600816 261.723429 
L 265.975213 271.378286 
L 259.34961 274.998857 
L 252.724007 259.309714 
L 246.098404 252.068571 
L 239.472801 238.793143 
L 232.847199 223.104 
L 226.221596 235.172571 
L 219.595993 208.621714 
L 212.97039 209.828571 
L 206.344787 178.450286 
L 199.719184 211.035429 
L 193.093581 211.035429 
L 186.467978 186.898286 
L 179.842375 229.138286 
L 173.216772 197.76 
L 166.591169 190.518857 
L 159.965566 160.347429 
L 153.339963 197.76 
L 146.71436 190.518857 
L 140.088757 184.484571 
L 133.463154 159.140571 
L 126.837551 172.416 
L 120.211948 176.036571 
L 113.586345 172.416 
L 106.960742 149.485714 
L 100.335139 153.106286 
L 93.709536 110.866286 
L 87.083933 109.659429 
L 80.45833 93.970286 
L 73.832727 83.108571 
z
" clip-path="url(#p58e7a27d06)" style="fill: #e377c2"/>
   </g>
   <g id="PolyCollection_8">
    <path d="M 73.832727 67.419429 
L 73.832727 83.108571 
L 80.45833 93.970286 
L 87.083933 109.659429 
L 93.709536 110.866286 
L 100.335139 153.106286 
L 106.960742 149.485714 
L 113.586345 172.416 
L 120.211948 176.036571 
L 126.837551 172.416 
L 133.463154 159.140571 
L 140.088757 184.484571 
L 146.71436 190.518857 
L 153.339963 197.76 
L 159.965566 160.347429 
L 166.591169 190.518857 
L 173.216772 197.76 
L 179.842375 229.138286 
L 186.467978 186.898286 
L 193.093581 211.035429 
L 199.719184 211.035429 
L 206.344787 178.450286 
L 212.97039 209.828571 
L 219.595993 208.621714 
L 226.221596 235.172571 
L 232.847199 223.104 
L 239.472801 238.793143 
L 246.098404 252.068571 
L 252.724007 259.309714 
L 259.34961 274.998857 
L 265.975213 271.378286 
L 272.600816 261.723429 
L 279.226419 278.619429 
L 285.852022 266.550857 
L 292.477625 270.171429 
L 299.103228 260.516571 
L 305.728831 255.689143 
L 312.354434 274.998857 
L 318.980037 265.344 
L 325.60564 290.688 
L 332.231243 291.894857 
L 338.856846 295.515429 
L 345.482449 281.033143 
L 352.108052 291.894857 
L 358.733655 293.101714 
L 365.359258 287.067429 
L 371.984861 278.619429 
L 378.610464 264.137143 
L 385.236067 250.861714 
L 391.86167 240 
L 398.487273 252.068571 
L 398.487273 252.068571 
L 398.487273 252.068571 
L 391.86167 240 
L 385.236067 250.861714 
L 378.610464 264.137143 
L 371.984861 278.619429 
L 365.359258 287.067429 
L 358.733655 293.101714 
L 352.108052 291.894857 
L 345.482449 281.033143 
L 338.856846 295.515429 
L 332.231243 291.894857 
L 325.60564 290.688 
L 318.980037 265.344 
L 312.354434 274.998857 
L 305.728831 255.689143 
L 299.103228 260.516571 
L 292.477625 270.171429 
L 285.852022 266.550857 
L 279.226419 278.619429 
L 272.600816 261.723429 
L 265.975213 271.378286 
L 259.34961 274.998857 
L 252.724007 259.309714 
L 246.098404 252.068571 
L 239.472801 238.793143 
L 232.847199 223.104 
L 226.221596 235.172571 
L 219.595993 208.621714 
L 212.97039 200.173714 
L 206.344787 168.795429 
L 199.719184 205.001143 
L 193.093581 201.380571 
L 186.467978 173.622857 
L 179.842375 218.276571 
L 173.216772 186.898286 
L 166.591169 182.070857 
L 159.965566 157.933714 
L 153.339963 185.691429 
L 146.71436 174.829714 
L 140.088757 172.416 
L 133.463154 155.52 
L 126.837551 149.485714 
L 120.211948 155.52 
L 113.586345 141.037714 
L 106.960742 106.038857 
L 100.335139 107.245714 
L 93.709536 81.901714 
L 87.083933 93.970286 
L 80.45833 78.281143 
L 73.832727 67.419429 
z
" clip-path="url(#p58e7a27d06)" style="fill: #7f7f7f"/>
   </g>
   <g id="PolyCollection_9">
    <path d="M 73.832727 66.212571 
L 73.832727 67.419429 
L 80.45833 78.281143 
L 87.083933 93.970286 
L 93.709536 81.901714 
L 100.335139 107.245714 
L 106.960742 106.038857 
L 113.586345 141.037714 
L 120.211948 155.52 
L 126.837551 149.485714 
L 133.463154 155.52 
L 140.088757 172.416 
L 146.71436 174.829714 
L 153.339963 185.691429 
L 159.965566 157.933714 
L 166.591169 182.070857 
L 173.216772 186.898286 
L 179.842375 218.276571 
L 186.467978 173.622857 
L 193.093581 201.380571 
L 199.719184 205.001143 
L 206.344787 168.795429 
L 212.97039 200.173714 
L 219.595993 208.621714 
L 226.221596 235.172571 
L 232.847199 223.104 
L 239.472801 238.793143 
L 246.098404 252.068571 
L 252.724007 259.309714 
L 259.34961 274.998857 
L 265.975213 271.378286 
L 272.600816 261.723429 
L 279.226419 278.619429 
L 285.852022 266.550857 
L 292.477625 270.171429 
L 299.103228 260.516571 
L 305.728831 255.689143 
L 312.354434 274.998857 
L 318.980037 265.344 
L 325.60564 290.688 
L 332.231243 291.894857 
L 338.856846 295.515429 
L 345.482449 281.033143 
L 352.108052 291.894857 
L 358.733655 293.101714 
L 365.359258 287.067429 
L 371.984861 278.619429 
L 378.610464 264.137143 
L 385.236067 250.861714 
L 391.86167 240 
L 398.487273 252.068571 
L 398.487273 252.068571 
L 398.487273 252.068571 
L 391.86167 240 
L 385.236067 250.861714 
L 378.610464 264.137143 
L 371.984861 278.619429 
L 365.359258 287.067429 
L 358.733655 293.101714 
L 352.108052 291.894857 
L 345.482449 281.033143 
L 338.856846 295.515429 
L 332.231243 291.894857 
L 325.60564 290.688 
L 318.980037 265.344 
L 312.354434 274.998857 
L 305.728831 255.689143 
L 299.103228 260.516571 
L 292.477625 270.171429 
L 285.852022 266.550857 
L 279.226419 278.619429 
L 272.600816 261.723429 
L 265.975213 271.378286 
L 259.34961 274.998857 
L 252.724007 259.309714 
L 246.098404 252.068571 
L 239.472801 238.793143 
L 232.847199 223.104 
L 226.221596 235.172571 
L 219.595993 196.553143 
L 212.97039 186.898286 
L 206.344787 157.933714 
L 199.719184 195.346286 
L 193.093581 192.932571 
L 186.467978 167.588571 
L 179.842375 207.414857 
L 173.216772 178.450286 
L 166.591169 172.416 
L 159.965566 148.278857 
L 153.339963 177.243429 
L 146.71436 166.381714 
L 140.088757 156.726857 
L 133.463154 138.624 
L 126.837551 137.417143 
L 120.211948 138.624 
L 113.586345 128.969143 
L 106.960742 101.211429 
L 100.335139 92.763429 
L 93.709536 71.04 
L 87.083933 67.419429 
L 80.45833 66.212571 
L 73.832727 66.212571 
z
" clip-path="url(#p58e7a27d06)" style="fill: #bcbd22"/>
   </g>
   <g id="PolyCollection_10">
    <path d="M 73.832727 66.212571 
L 73.832727 66.212571 
L 80.45833 66.212571 
L 87.083933 67.419429 
L 93.709536 71.04 
L 100.335139 92.763429 
L 106.960742 101.211429 
L 113.586345 128.969143 
L 120.211948 138.624 
L 126.837551 137.417143 
L 133.463154 138.624 
L 140.088757 156.726857 
L 146.71436 166.381714 
L 153.339963 177.243429 
L 159.965566 148.278857 
L 166.591169 172.416 
L 173.216772 178.450286 
L 179.842375 207.414857 
L 186.467978 167.588571 
L 193.093581 192.932571 
L 199.719184 195.346286 
L 206.344787 157.933714 
L 212.97039 186.898286 
L 219.595993 196.553143 
L 226.221596 235.172571 
L 232.847199 223.104 
L 239.472801 238.793143 
L 246.098404 252.068571 
L 252.724007 259.309714 
L 259.34961 274.998857 
L 265.975213 271.378286 
L 272.600816 261.723429 
L 279.226419 278.619429 
L 285.852022 266.550857 
L 292.477625 270.171429 
L 299.103228 260.516571 
L 305.728831 255.689143 
L 312.354434 274.998857 
L 318.980037 265.344 
L 325.60564 290.688 
L 332.231243 291.894857 
L 338.856846 295.515429 
L 345.482449 281.033143 
L 352.108052 291.894857 
L 358.733655 293.101714 
L 365.359258 287.067429 
L 371.984861 278.619429 
L 378.610464 264.137143 
L 385.236067 250.861714 
L 391.86167 240 
L 398.487273 252.068571 
L 398.487273 252.068571 
L 398.487273 252.068571 
L 391.86167 240 
L 385.236067 250.861714 
L 378.610464 214.656 
L 371.984861 244.827429 
L 365.359258 259.309714 
L 358.733655 270.171429 
L 352.108052 271.378286 
L 345.482449 252.068571 
L 338.856846 273.792 
L 332.231243 273.792 
L 325.60564 271.378286 
L 318.980037 247.241143 
L 312.354434 249.654857 
L 305.728831 231.552 
L 299.103228 243.620571 
L 292.477625 248.448 
L 285.852022 254.482286 
L 279.226419 264.137143 
L 272.600816 233.965714 
L 265.975213 215.862857 
L 259.34961 250.861714 
L 252.724007 211.035429 
L 246.098404 243.620571 
L 239.472801 218.276571 
L 232.847199 198.966857 
L 226.221596 220.690286 
L 219.595993 180.864 
L 212.97039 154.313143 
L 206.344787 149.485714 
L 199.719184 176.036571 
L 193.093581 180.864 
L 186.467978 154.313143 
L 179.842375 202.587429 
L 173.216772 160.347429 
L 166.591169 154.313143 
L 159.965566 133.796571 
L 153.339963 154.313143 
L 146.71436 145.865143 
L 140.088757 143.451429 
L 133.463154 126.555429 
L 126.837551 121.728 
L 120.211948 116.900571 
L 113.586345 103.625143 
L 106.960742 80.694857 
L 100.335139 75.867429 
L 93.709536 66.212571 
L 87.083933 67.419429 
L 80.45833 66.212571 
L 73.832727 66.212571 
z
" clip-path="url(#p58e7a27d06)" style="fill: #17becf"/>
   </g>
   <g id="PolyCollection_11">
    <path d="M 73.832727 66.212571 
L 73.832727 66.212571 
L 80.45833 66.212571 
L 87.083933 67.419429 
L 93.709536 66.212571 
L 100.335139 75.867429 
L 106.960742 80.694857 
L 113.586345 103.625143 
L 120.211948 116.900571 
L 126.837551 121.728 
L 133.463154 126.555429 
L 140.088757 143.451429 
L 146.71436 145.865143 
L 153.339963 154.313143 
L 159.965566 133.796571 
L 166.591169 154.313143 
L 173.216772 160.347429 
L 179.842375 202.587429 
L 186.467978 154.313143 
L 193.093581 180.864 
L 199.719184 176.036571 
L 206.344787 149.485714 
L 212.97039 154.313143 
L 219.595993 180.864 
L 226.221596 220.690286 
L 232.847199 198.966857 
L 239.472801 218.276571 
L 246.098404 243.620571 
L 252.724007 211.035429 
L 259.34961 250.861714 
L 265.975213 215.862857 
L 272.600816 233.965714 
L 279.226419 264.137143 
L 285.852022 254.482286 
L 292.477625 248.448 
L 299.103228 243.620571 
L 305.728831 231.552 
L 312.354434 249.654857 
L 318.980037 247.241143 
L 325.60564 271.378286 
L 332.231243 273.792 
L 338.856846 273.792 
L 345.482449 252.068571 
L 352.108052 271.378286 
L 358.733655 270.171429 
L 365.359258 259.309714 
L 371.984861 244.827429 
L 378.610464 214.656 
L 385.236067 250.861714 
L 391.86167 240 
L 398.487273 252.068571 
L 398.487273 211.035429 
L 398.487273 211.035429 
L 391.86167 154.313143 
L 385.236067 167.588571 
L 378.610464 160.347429 
L 371.984861 203.794286 
L 365.359258 200.173714 
L 358.733655 203.794286 
L 352.108052 179.657143 
L 345.482449 202.587429 
L 338.856846 156.726857 
L 332.231243 260.516571 
L 325.60564 171.209143 
L 318.980037 232.758857 
L 312.354434 233.965714 
L 305.728831 218.276571 
L 299.103228 230.345143 
L 292.477625 236.379429 
L 285.852022 241.206857 
L 279.226419 255.689143 
L 272.600816 221.897143 
L 265.975213 202.587429 
L 259.34961 241.206857 
L 252.724007 198.966857 
L 246.098404 232.758857 
L 239.472801 206.208 
L 232.847199 188.105143 
L 226.221596 206.208 
L 219.595993 173.622857 
L 212.97039 149.485714 
L 206.344787 141.037714 
L 199.719184 170.002286 
L 193.093581 173.622857 
L 186.467978 142.244571 
L 179.842375 200.173714 
L 173.216772 144.658286 
L 166.591169 145.865143 
L 159.965566 122.934857 
L 153.339963 142.244571 
L 146.71436 135.003429 
L 140.088757 128.969143 
L 133.463154 115.693714 
L 126.837551 106.038857 
L 120.211948 101.211429 
L 113.586345 84.315429 
L 106.960742 68.626286 
L 100.335139 63.798857 
L 93.709536 65.005714 
L 87.083933 67.419429 
L 80.45833 66.212571 
L 73.832727 66.212571 
z
" clip-path="url(#p58e7a27d06)" style="fill: #1f77b4"/>
   </g>
   <g id="PolyCollection_12">
    <path d="M 73.832727 66.212571 
L 73.832727 66.212571 
L 80.45833 66.212571 
L 87.083933 67.419429 
L 93.709536 65.005714 
L 100.335139 63.798857 
L 106.960742 68.626286 
L 113.586345 84.315429 
L 120.211948 101.211429 
L 126.837551 106.038857 
L 133.463154 115.693714 
L 140.088757 128.969143 
L 146.71436 135.003429 
L 153.339963 142.244571 
L 159.965566 122.934857 
L 166.591169 145.865143 
L 173.216772 144.658286 
L 179.842375 200.173714 
L 186.467978 142.244571 
L 193.093581 173.622857 
L 199.719184 170.002286 
L 206.344787 141.037714 
L 212.97039 149.485714 
L 219.595993 173.622857 
L 226.221596 206.208 
L 232.847199 188.105143 
L 239.472801 206.208 
L 246.098404 232.758857 
L 252.724007 198.966857 
L 259.34961 241.206857 
L 265.975213 202.587429 
L 272.600816 221.897143 
L 279.226419 255.689143 
L 285.852022 241.206857 
L 292.477625 236.379429 
L 299.103228 230.345143 
L 305.728831 218.276571 
L 312.354434 233.965714 
L 318.980037 232.758857 
L 325.60564 171.209143 
L 332.231243 260.516571 
L 338.856846 156.726857 
L 345.482449 202.587429 
L 352.108052 179.657143 
L 358.733655 203.794286 
L 365.359258 200.173714 
L 371.984861 203.794286 
L 378.610464 160.347429 
L 385.236067 167.588571 
L 391.86167 154.313143 
L 398.487273 211.035429 
L 398.487273 170.002286 
L 398.487273 170.002286 
L 391.86167 100.004571 
L 385.236067 109.659429 
L 378.610464 121.728 
L 371.984861 180.864 
L 365.359258 177.243429 
L 358.733655 178.450286 
L 352.108052 155.52 
L 345.482449 178.450286 
L 338.856846 141.037714 
L 332.231243 243.620571 
L 325.60564 148.278857 
L 318.980037 211.035429 
L 312.354434 212.242286 
L 305.728831 201.380571 
L 299.103228 212.242286 
L 292.477625 223.104 
L 285.852022 223.104 
L 279.226419 236.379429 
L 272.600816 202.587429 
L 265.975213 185.691429 
L 259.34961 226.724571 
L 252.724007 183.277714 
L 246.098404 215.862857 
L 239.472801 190.518857 
L 232.847199 168.795429 
L 226.221596 190.518857 
L 219.595993 156.726857 
L 212.97039 139.830857 
L 206.344787 126.555429 
L 199.719184 161.554286 
L 193.093581 160.347429 
L 186.467978 126.555429 
L 179.842375 188.105143 
L 173.216772 131.382857 
L 166.591169 133.796571 
L 159.965566 113.28 
L 153.339963 131.382857 
L 146.71436 124.141714 
L 140.088757 115.693714 
L 133.463154 102.418286 
L 126.837551 95.177143 
L 120.211948 86.729143 
L 113.586345 68.626286 
L 106.960742 63.798857 
L 100.335139 63.798857 
L 93.709536 65.005714 
L 87.083933 67.419429 
L 80.45833 66.212571 
L 73.832727 66.212571 
z
" clip-path="url(#p58e7a27d06)" style="fill: #ff7f0e"/>
   </g>
   <g id="PolyCollection_13">
    <path d="M 73.832727 66.212571 
L 73.832727 66.212571 
L 80.45833 66.212571 
L 87.083933 67.419429 
L 93.709536 65.005714 
L 100.335139 63.798857 
L 106.960742 63.798857 
L 113.586345 68.626286 
L 120.211948 86.729143 
L 126.837551 95.177143 
L 133.463154 102.418286 
L 140.088757 115.693714 
L 146.71436 124.141714 
L 153.339963 131.382857 
L 159.965566 113.28 
L 166.591169 133.796571 
L 173.216772 131.382857 
L 179.842375 188.105143 
L 186.467978 126.555429 
L 193.093581 160.347429 
L 199.719184 161.554286 
L 206.344787 126.555429 
L 212.97039 139.830857 
L 219.595993 156.726857 
L 226.221596 190.518857 
L 232.847199 168.795429 
L 239.472801 190.518857 
L 246.098404 215.862857 
L 252.724007 183.277714 
L 259.34961 226.724571 
L 265.975213 185.691429 
L 272.600816 202.587429 
L 279.226419 236.379429 
L 285.852022 223.104 
L 292.477625 223.104 
L 299.103228 212.242286 
L 305.728831 201.380571 
L 312.354434 212.242286 
L 318.980037 211.035429 
L 325.60564 148.278857 
L 332.231243 243.620571 
L 338.856846 141.037714 
L 345.482449 178.450286 
L 352.108052 155.52 
L 358.733655 178.450286 
L 365.359258 177.243429 
L 371.984861 180.864 
L 378.610464 121.728 
L 385.236067 109.659429 
L 391.86167 100.004571 
L 398.487273 170.002286 
L 398.487273 170.002286 
L 398.487273 170.002286 
L 391.86167 100.004571 
L 385.236067 109.659429 
L 378.610464 121.728 
L 371.984861 180.864 
L 365.359258 177.243429 
L 358.733655 178.450286 
L 352.108052 155.52 
L 345.482449 178.450286 
L 338.856846 141.037714 
L 332.231243 243.620571 
L 325.60564 148.278857 
L 318.980037 211.035429 
L 312.354434 212.242286 
L 305.728831 201.380571 
L 299.103228 192.932571 
L 292.477625 203.794286 
L 285.852022 196.553143 
L 279.226419 220.690286 
L 272.600816 183.277714 
L 265.975213 173.622857 
L 259.34961 211.035429 
L 252.724007 172.416 
L 246.098404 191.725714 
L 239.472801 172.416 
L 232.847199 151.899429 
L 226.221596 173.622857 
L 219.595993 139.830857 
L 212.97039 127.762286 
L 206.344787 113.28 
L 199.719184 148.278857 
L 193.093581 147.072 
L 186.467978 106.038857 
L 179.842375 173.622857 
L 173.216772 121.728 
L 166.591169 114.486857 
L 159.965566 107.245714 
L 153.339963 115.693714 
L 146.71436 112.073143 
L 140.088757 100.004571 
L 133.463154 93.970286 
L 126.837551 84.315429 
L 120.211948 71.04 
L 113.586345 62.592 
L 106.960742 63.798857 
L 100.335139 63.798857 
L 93.709536 65.005714 
L 87.083933 67.419429 
L 80.45833 66.212571 
L 73.832727 66.212571 
z
" clip-path="url(#p58e7a27d06)" style="fill: #2ca02c"/>
   </g>
   <g id="PolyCollection_14">
    <path d="M 73.832727 66.212571 
L 73.832727 66.212571 
L 80.45833 66.212571 
L 87.083933 67.419429 
L 93.709536 65.005714 
L 100.335139 63.798857 
L 106.960742 63.798857 
L 113.586345 62.592 
L 120.211948 71.04 
L 126.837551 84.315429 
L 133.463154 93.970286 
L 140.088757 100.004571 
L 146.71436 112.073143 
L 153.339963 115.693714 
L 159.965566 107.245714 
L 166.591169 114.486857 
L 173.216772 121.728 
L 179.842375 173.622857 
L 186.467978 106.038857 
L 193.093581 147.072 
L 199.719184 148.278857 
L 206.344787 113.28 
L 212.97039 127.762286 
L 219.595993 139.830857 
L 226.221596 173.622857 
L 232.847199 151.899429 
L 239.472801 172.416 
L 246.098404 191.725714 
L 252.724007 172.416 
L 259.34961 211.035429 
L 265.975213 173.622857 
L 272.600816 183.277714 
L 279.226419 220.690286 
L 285.852022 196.553143 
L 292.477625 203.794286 
L 299.103228 192.932571 
L 305.728831 201.380571 
L 312.354434 212.242286 
L 318.980037 211.035429 
L 325.60564 148.278857 
L 332.231243 243.620571 
L 338.856846 141.037714 
L 345.482449 178.450286 
L 352.108052 155.52 
L 358.733655 178.450286 
L 365.359258 177.243429 
L 371.984861 180.864 
L 378.610464 121.728 
L 385.236067 109.659429 
L 391.86167 100.004571 
L 398.487273 170.002286 
L 398.487273 65.005714 
L 398.487273 65.005714 
L 391.86167 66.212571 
L 385.236067 67.419429 
L 378.610464 89.142857 
L 371.984861 157.933714 
L 365.359258 159.140571 
L 358.733655 165.174857 
L 352.108052 135.003429 
L 345.482449 162.761143 
L 338.856846 132.589714 
L 332.231243 231.552 
L 325.60564 145.865143 
L 318.980037 191.725714 
L 312.354434 195.346286 
L 305.728831 195.346286 
L 299.103228 173.622857 
L 292.477625 174.829714 
L 285.852022 166.381714 
L 279.226419 214.656 
L 272.600816 174.829714 
L 265.975213 167.588571 
L 259.34961 161.554286 
L 252.724007 161.554286 
L 246.098404 171.209143 
L 239.472801 153.106286 
L 232.847199 118.107429 
L 226.221596 156.726857 
L 219.595993 127.762286 
L 212.97039 116.900571 
L 206.344787 107.245714 
L 199.719184 142.244571 
L 193.093581 136.210286 
L 186.467978 93.970286 
L 179.842375 168.795429 
L 173.216772 108.452571 
L 166.591169 101.211429 
L 159.965566 95.177143 
L 153.339963 98.797714 
L 146.71436 93.970286 
L 140.088757 85.522286 
L 133.463154 83.108571 
L 126.837551 74.660571 
L 120.211948 66.212571 
L 113.586345 62.592 
L 106.960742 63.798857 
L 100.335139 63.798857 
L 93.709536 65.005714 
L 87.083933 67.419429 
L 80.45833 66.212571 
L 73.832727 66.212571 
z
" clip-path="url(#p58e7a27d06)" style="fill: #d62728"/>
   </g>
   <g id="PolyCollection_15">
    <path d="M 73.832727 66.212571 
L 73.832727 66.212571 
L 80.45833 66.212571 
L 87.083933 67.419429 
L 93.709536 65.005714 
L 100.335139 63.798857 
L 106.960742 63.798857 
L 113.586345 62.592 
L 120.211948 66.212571 
L 126.837551 74.660571 
L 133.463154 83.108571 
L 140.088757 85.522286 
L 146.71436 93.970286 
L 153.339963 98.797714 
L 159.965566 95.177143 
L 166.591169 101.211429 
L 173.216772 108.452571 
L 179.842375 168.795429 
L 186.467978 93.970286 
L 193.093581 136.210286 
L 199.719184 142.244571 
L 206.344787 107.245714 
L 212.97039 116.900571 
L 219.595993 127.762286 
L 226.221596 156.726857 
L 232.847199 118.107429 
L 239.472801 153.106286 
L 246.098404 171.209143 
L 252.724007 161.554286 
L 259.34961 161.554286 
L 265.975213 167.588571 
L 272.600816 174.829714 
L 279.226419 214.656 
L 285.852022 166.381714 
L 292.477625 174.829714 
L 299.103228 173.622857 
L 305.728831 195.346286 
L 312.354434 195.346286 
L 318.980037 191.725714 
L 325.60564 145.865143 
L 332.231243 231.552 
L 338.856846 132.589714 
L 345.482449 162.761143 
L 352.108052 135.003429 
L 358.733655 165.174857 
L 365.359258 159.140571 
L 371.984861 157.933714 
L 378.610464 89.142857 
L 385.236067 67.419429 
L 391.86167 66.212571 
L 398.487273 65.005714 
L 398.487273 65.005714 
L 398.487273 65.005714 
L 391.86167 66.212571 
L 385.236067 67.419429 
L 378.610464 89.142857 
L 371.984861 157.933714 
L 365.359258 159.140571 
L 358.733655 165.174857 
L 352.108052 135.003429 
L 345.482449 162.761143 
L 338.856846 132.589714 
L 332.231243 231.552 
L 325.60564 145.865143 
L 318.980037 191.725714 
L 312.354434 195.346286 
L 305.728831 195.346286 
L 299.103228 173.622857 
L 292.477625 174.829714 
L 285.852022 166.381714 
L 279.226419 214.656 
L 272.600816 174.829714 
L 265.975213 167.588571 
L 259.34961 149.485714 
L 252.724007 150.692571 
L 246.098404 161.554286 
L 239.472801 141.037714 
L 232.847199 107.245714 
L 226.221596 144.658286 
L 219.595993 120.521143 
L 212.97039 109.659429 
L 206.344787 98.797714 
L 199.719184 132.589714 
L 193.093581 130.176 
L 186.467978 80.694857 
L 179.842375 159.140571 
L 173.216772 95.177143 
L 166.591169 85.522286 
L 159.965566 84.315429 
L 153.339963 81.901714 
L 146.71436 78.281143 
L 140.088757 75.867429 
L 133.463154 74.660571 
L 126.837551 65.005714 
L 120.211948 65.005714 
L 113.586345 62.592 
L 106.960742 63.798857 
L 100.335139 63.798857 
L 93.709536 65.005714 
L 87.083933 67.419429 
L 80.45833 66.212571 
L 73.832727 66.212571 
z
" clip-path="url(#p58e7a27d06)" style="fill: #9467bd"/>
   </g>
   <g id="PolyCollection_16">
    <path d="M 73.832727 66.212571 
L 73.832727 66.212571 
L 80.45833 66.212571 
L 87.083933 67.419429 
L 93.709536 65.005714 
L 100.335139 63.798857 
L 106.960742 63.798857 
L 113.586345 62.592 
L 120.211948 65.005714 
L 126.837551 65.005714 
L 133.463154 74.660571 
L 140.088757 75.867429 
L 146.71436 78.281143 
L 153.339963 81.901714 
L 159.965566 84.315429 
L 166.591169 85.522286 
L 173.216772 95.177143 
L 179.842375 159.140571 
L 186.467978 80.694857 
L 193.093581 130.176 
L 199.719184 132.589714 
L 206.344787 98.797714 
L 212.97039 109.659429 
L 219.595993 120.521143 
L 226.221596 144.658286 
L 232.847199 107.245714 
L 239.472801 141.037714 
L 246.098404 161.554286 
L 252.724007 150.692571 
L 259.34961 149.485714 
L 265.975213 167.588571 
L 272.600816 174.829714 
L 279.226419 214.656 
L 285.852022 166.381714 
L 292.477625 174.829714 
L 299.103228 173.622857 
L 305.728831 195.346286 
L 312.354434 195.346286 
L 318.980037 191.725714 
L 325.60564 145.865143 
L 332.231243 231.552 
L 338.856846 132.589714 
L 345.482449 162.761143 
L 352.108052 135.003429 
L 358.733655 165.174857 
L 365.359258 159.140571 
L 371.984861 157.933714 
L 378.610464 89.142857 
L 385.236067 67.419429 
L 391.86167 66.212571 
L 398.487273 65.005714 
L 398.487273 65.005714 
L 398.487273 65.005714 
L 391.86167 66.212571 
L 385.236067 67.419429 
L 378.610464 89.142857 
L 371.984861 157.933714 
L 365.359258 159.140571 
L 358.733655 165.174857 
L 352.108052 135.003429 
L 345.482449 162.761143 
L 338.856846 132.589714 
L 332.231243 214.656 
L 325.60564 132.589714 
L 318.980037 177.243429 
L 312.354434 178.450286 
L 305.728831 174.829714 
L 299.103228 149.485714 
L 292.477625 154.313143 
L 285.852022 151.899429 
L 279.226419 203.794286 
L 272.600816 155.52 
L 265.975213 149.485714 
L 259.34961 137.417143 
L 252.724007 135.003429 
L 246.098404 131.382857 
L 239.472801 115.693714 
L 232.847199 92.763429 
L 226.221596 127.762286 
L 219.595993 110.866286 
L 212.97039 96.384 
L 206.344787 91.556571 
L 199.719184 119.314286 
L 193.093581 120.521143 
L 186.467978 71.04 
L 179.842375 148.278857 
L 173.216772 85.522286 
L 166.591169 75.867429 
L 159.965566 73.453714 
L 153.339963 67.419429 
L 146.71436 65.005714 
L 140.088757 63.798857 
L 133.463154 65.005714 
L 126.837551 63.798857 
L 120.211948 65.005714 
L 113.586345 62.592 
L 106.960742 63.798857 
L 100.335139 63.798857 
L 93.709536 65.005714 
L 87.083933 67.419429 
L 80.45833 66.212571 
L 73.832727 66.212571 
z
" clip-path="url(#p58e7a27d06)" style="fill: #8c564b"/>
   </g>
   <g id="PolyCollection_17">
    <path d="M 73.832727 66.212571 
L 73.832727 66.212571 
L 80.45833 66.212571 
L 87.083933 67.419429 
L 93.709536 65.005714 
L 100.335139 63.798857 
L 106.960742 63.798857 
L 113.586345 62.592 
L 120.211948 65.005714 
L 126.837551 63.798857 
L 133.463154 65.005714 
L 140.088757 63.798857 
L 146.71436 65.005714 
L 153.339963 67.419429 
L 159.965566 73.453714 
L 166.591169 75.867429 
L 173.216772 85.522286 
L 179.842375 148.278857 
L 186.467978 71.04 
L 193.093581 120.521143 
L 199.719184 119.314286 
L 206.344787 91.556571 
L 212.97039 96.384 
L 219.595993 110.866286 
L 226.221596 127.762286 
L 232.847199 92.763429 
L 239.472801 115.693714 
L 246.098404 131.382857 
L 252.724007 135.003429 
L 259.34961 137.417143 
L 265.975213 149.485714 
L 272.600816 155.52 
L 279.226419 203.794286 
L 285.852022 151.899429 
L 292.477625 154.313143 
L 299.103228 149.485714 
L 305.728831 174.829714 
L 312.354434 178.450286 
L 318.980037 177.243429 
L 325.60564 132.589714 
L 332.231243 214.656 
L 338.856846 132.589714 
L 345.482449 162.761143 
L 352.108052 135.003429 
L 358.733655 165.174857 
L 365.359258 159.140571 
L 371.984861 157.933714 
L 378.610464 89.142857 
L 385.236067 67.419429 
L 391.86167 66.212571 
L 398.487273 65.005714 
L 398.487273 65.005714 
L 398.487273 65.005714 
L 391.86167 66.212571 
L 385.236067 67.419429 
L 378.610464 89.142857 
L 371.984861 136.210286 
L 365.359258 133.796571 
L 358.733655 143.451429 
L 352.108052 126.555429 
L 345.482449 133.796571 
L 338.856846 122.934857 
L 332.231243 201.380571 
L 325.60564 125.348571 
L 318.980037 147.072 
L 312.354434 162.761143 
L 305.728831 150.692571 
L 299.103228 136.210286 
L 292.477625 133.796571 
L 285.852022 133.796571 
L 279.226419 190.518857 
L 272.600816 141.037714 
L 265.975213 136.210286 
L 259.34961 130.176 
L 252.724007 116.900571 
L 246.098404 115.693714 
L 239.472801 100.004571 
L 232.847199 80.694857 
L 226.221596 114.486857 
L 219.595993 102.418286 
L 212.97039 86.729143 
L 206.344787 83.108571 
L 199.719184 110.866286 
L 193.093581 112.073143 
L 186.467978 58.971429 
L 179.842375 139.830857 
L 173.216772 73.453714 
L 166.591169 62.592 
L 159.965566 65.005714 
L 153.339963 63.798857 
L 146.71436 65.005714 
L 140.088757 63.798857 
L 133.463154 65.005714 
L 126.837551 63.798857 
L 120.211948 65.005714 
L 113.586345 62.592 
L 106.960742 63.798857 
L 100.335139 63.798857 
L 93.709536 65.005714 
L 87.083933 67.419429 
L 80.45833 66.212571 
L 73.832727 66.212571 
z
" clip-path="url(#p58e7a27d06)" style="fill: #e377c2"/>
   </g>
   <g id="PolyCollection_18">
    <path d="M 73.832727 66.212571 
L 73.832727 66.212571 
L 80.45833 66.212571 
L 87.083933 67.419429 
L 93.709536 65.005714 
L 100.335139 63.798857 
L 106.960742 63.798857 
L 113.586345 62.592 
L 120.211948 65.005714 
L 126.837551 63.798857 
L 133.463154 65.005714 
L 140.088757 63.798857 
L 146.71436 65.005714 
L 153.339963 63.798857 
L 159.965566 65.005714 
L 166.591169 62.592 
L 173.216772 73.453714 
L 179.842375 139.830857 
L 186.467978 58.971429 
L 193.093581 112.073143 
L 199.719184 110.866286 
L 206.344787 83.108571 
L 212.97039 86.729143 
L 219.595993 102.418286 
L 226.221596 114.486857 
L 232.847199 80.694857 
L 239.472801 100.004571 
L 246.098404 115.693714 
L 252.724007 116.900571 
L 259.34961 130.176 
L 265.975213 136.210286 
L 272.600816 141.037714 
L 279.226419 190.518857 
L 285.852022 133.796571 
L 292.477625 133.796571 
L 299.103228 136.210286 
L 305.728831 150.692571 
L 312.354434 162.761143 
L 318.980037 147.072 
L 325.60564 125.348571 
L 332.231243 201.380571 
L 338.856846 122.934857 
L 345.482449 133.796571 
L 352.108052 126.555429 
L 358.733655 143.451429 
L 365.359258 133.796571 
L 371.984861 136.210286 
L 378.610464 89.142857 
L 385.236067 67.419429 
L 391.86167 66.212571 
L 398.487273 65.005714 
L 398.487273 65.005714 
L 398.487273 65.005714 
L 391.86167 66.212571 
L 385.236067 67.419429 
L 378.610464 89.142857 
L 371.984861 136.210286 
L 365.359258 133.796571 
L 358.733655 126.555429 
L 352.108052 119.314286 
L 345.482449 122.934857 
L 338.856846 118.107429 
L 332.231243 110.866286 
L 325.60564 109.659429 
L 318.980037 127.762286 
L 312.354434 119.314286 
L 305.728831 132.589714 
L 299.103228 121.728 
L 292.477625 113.28 
L 285.852022 112.073143 
L 279.226419 114.486857 
L 272.600816 115.693714 
L 265.975213 118.107429 
L 259.34961 119.314286 
L 252.724007 103.625143 
L 246.098404 103.625143 
L 239.472801 81.901714 
L 232.847199 68.626286 
L 226.221596 63.798857 
L 219.595993 65.005714 
L 212.97039 60.178286 
L 206.344787 58.971429 
L 199.719184 60.178286 
L 193.093581 58.971429 
L 186.467978 54.144 
L 179.842375 62.592 
L 173.216772 68.626286 
L 166.591169 62.592 
L 159.965566 65.005714 
L 153.339963 63.798857 
L 146.71436 65.005714 
L 140.088757 63.798857 
L 133.463154 65.005714 
L 126.837551 63.798857 
L 120.211948 65.005714 
L 113.586345 62.592 
L 106.960742 63.798857 
L 100.335139 63.798857 
L 93.709536 65.005714 
L 87.083933 67.419429 
L 80.45833 66.212571 
L 73.832727 66.212571 
z
" clip-path="url(#p58e7a27d06)" style="fill: #7f7f7f"/>
   </g>
   <g id="PolyCollection_19">
    <path d="M 73.832727 66.212571 
L 73.832727 66.212571 
L 80.45833 66.212571 
L 87.083933 67.419429 
L 93.709536 65.005714 
L 100.335139 63.798857 
L 106.960742 63.798857 
L 113.586345 62.592 
L 120.211948 65.005714 
L 126.837551 63.798857 
L 133.463154 65.005714 
L 140.088757 63.798857 
L 146.71436 65.005714 
L 153.339963 63.798857 
L 159.965566 65.005714 
L 166.591169 62.592 
L 173.216772 68.626286 
L 179.842375 62.592 
L 186.467978 54.144 
L 193.093581 58.971429 
L 199.719184 60.178286 
L 206.344787 58.971429 
L 212.97039 60.178286 
L 219.595993 65.005714 
L 226.221596 63.798857 
L 232.847199 68.626286 
L 239.472801 81.901714 
L 246.098404 103.625143 
L 252.724007 103.625143 
L 259.34961 119.314286 
L 265.975213 118.107429 
L 272.600816 115.693714 
L 279.226419 114.486857 
L 285.852022 112.073143 
L 292.477625 113.28 
L 299.103228 121.728 
L 305.728831 132.589714 
L 312.354434 119.314286 
L 318.980037 127.762286 
L 325.60564 109.659429 
L 332.231243 110.866286 
L 338.856846 118.107429 
L 345.482449 122.934857 
L 352.108052 119.314286 
L 358.733655 126.555429 
L 365.359258 133.796571 
L 371.984861 136.210286 
L 378.610464 89.142857 
L 385.236067 67.419429 
L 391.86167 66.212571 
L 398.487273 65.005714 
L 398.487273 65.005714 
L 398.487273 65.005714 
L 391.86167 66.212571 
L 385.236067 67.419429 
L 378.610464 89.142857 
L 371.984861 110.866286 
L 365.359258 102.418286 
L 358.733655 103.625143 
L 352.108052 100.004571 
L 345.482449 98.797714 
L 338.856846 100.004571 
L 332.231243 98.797714 
L 325.60564 96.384 
L 318.980037 106.038857 
L 312.354434 97.590857 
L 305.728831 109.659429 
L 299.103228 101.211429 
L 292.477625 96.384 
L 285.852022 98.797714 
L 279.226419 95.177143 
L 272.600816 98.797714 
L 265.975213 101.211429 
L 259.34961 102.418286 
L 252.724007 87.936 
L 246.098404 83.108571 
L 239.472801 69.833143 
L 232.847199 66.212571 
L 226.221596 63.798857 
L 219.595993 65.005714 
L 212.97039 60.178286 
L 206.344787 58.971429 
L 199.719184 60.178286 
L 193.093581 58.971429 
L 186.467978 54.144 
L 179.842375 62.592 
L 173.216772 68.626286 
L 166.591169 62.592 
L 159.965566 65.005714 
L 153.339963 63.798857 
L 146.71436 65.005714 
L 140.088757 63.798857 
L 133.463154 65.005714 
L 126.837551 63.798857 
L 120.211948 65.005714 
L 113.586345 62.592 
L 106.960742 63.798857 
L 100.335139 63.798857 
L 93.709536 65.005714 
L 87.083933 67.419429 
L 80.45833 66.212571 
L 73.832727 66.212571 
z
" clip-path="url(#p58e7a27d06)" style="fill: #bcbd22"/>
   </g>
   <g id="PolyCollection_20">
    <path d="M 73.832727 66.212571 
L 73.832727 66.212571 
L 80.45833 66.212571 
L 87.083933 67.419429 
L 93.709536 65.005714 
L 100.335139 63.798857 
L 106.960742 63.798857 
L 113.586345 62.592 
L 120.211948 65.005714 
L 126.837551 63.798857 
L 133.463154 65.005714 
L 140.088757 63.798857 
L 146.71436 65.005714 
L 153.339963 63.798857 
L 159.965566 65.005714 
L 166.591169 62.592 
L 173.216772 68.626286 
L 179.842375 62.592 
L 186.467978 54.144 
L 193.093581 58.971429 
L 199.719184 60.178286 
L 206.344787 58.971429 
L 212.97039 60.178286 
L 219.595993 65.005714 
L 226.221596 63.798857 
L 232.847199 66.212571 
L 239.472801 69.833143 
L 246.098404 83.108571 
L 252.724007 87.936 
L 259.34961 102.418286 
L 265.975213 101.211429 
L 272.600816 98.797714 
L 279.226419 95.177143 
L 285.852022 98.797714 
L 292.477625 96.384 
L 299.103228 101.211429 
L 305.728831 109.659429 
L 312.354434 97.590857 
L 318.980037 106.038857 
L 325.60564 96.384 
L 332.231243 98.797714 
L 338.856846 100.004571 
L 345.482449 98.797714 
L 352.108052 100.004571 
L 358.733655 103.625143 
L 365.359258 102.418286 
L 371.984861 110.866286 
L 378.610464 89.142857 
L 385.236067 67.419429 
L 391.86167 66.212571 
L 398.487273 65.005714 
L 398.487273 65.005714 
L 398.487273 65.005714 
L 391.86167 66.212571 
L 385.236067 67.419429 
L 378.610464 89.142857 
L 371.984861 98.797714 
L 365.359258 90.349714 
L 358.733655 91.556571 
L 352.108052 85.522286 
L 345.482449 86.729143 
L 338.856846 86.729143 
L 332.231243 85.522286 
L 325.60564 85.522286 
L 318.980037 93.970286 
L 312.354434 86.729143 
L 305.728831 96.384 
L 299.103228 85.522286 
L 292.477625 83.108571 
L 285.852022 86.729143 
L 279.226419 84.315429 
L 272.600816 87.936 
L 265.975213 91.556571 
L 259.34961 95.177143 
L 252.724007 77.074286 
L 246.098404 81.901714 
L 239.472801 61.385143 
L 232.847199 65.005714 
L 226.221596 63.798857 
L 219.595993 65.005714 
L 212.97039 60.178286 
L 206.344787 58.971429 
L 199.719184 60.178286 
L 193.093581 58.971429 
L 186.467978 54.144 
L 179.842375 62.592 
L 173.216772 68.626286 
L 166.591169 62.592 
L 159.965566 65.005714 
L 153.339963 63.798857 
L 146.71436 65.005714 
L 140.088757 63.798857 
L 133.463154 65.005714 
L 126.837551 63.798857 
L 120.211948 65.005714 
L 113.586345 62.592 
L 106.960742 63.798857 
L 100.335139 63.798857 
L 93.709536 65.005714 
L 87.083933 67.419429 
L 80.45833 66.212571 
L 73.832727 66.212571 
z
" clip-path="url(#p58e7a27d06)" style="fill: #17becf"/>
   </g>
   <g id="PolyCollection_21">
    <path d="M 73.832727 66.212571 
L 73.832727 66.212571 
L 80.45833 66.212571 
L 87.083933 67.419429 
L 93.709536 65.005714 
L 100.335139 63.798857 
L 106.960742 63.798857 
L 113.586345 62.592 
L 120.211948 65.005714 
L 126.837551 63.798857 
L 133.463154 65.005714 
L 140.088757 63.798857 
L 146.71436 65.005714 
L 153.339963 63.798857 
L 159.965566 65.005714 
L 166.591169 62.592 
L 173.216772 68.626286 
L 179.842375 62.592 
L 186.467978 54.144 
L 193.093581 58.971429 
L 199.719184 60.178286 
L 206.344787 58.971429 
L 212.97039 60.178286 
L 219.595993 65.005714 
L 226.221596 63.798857 
L 232.847199 65.005714 
L 239.472801 61.385143 
L 246.098404 81.901714 
L 252.724007 77.074286 
L 259.34961 95.177143 
L 265.975213 91.556571 
L 272.600816 87.936 
L 279.226419 84.315429 
L 285.852022 86.729143 
L 292.477625 83.108571 
L 299.103228 85.522286 
L 305.728831 96.384 
L 312.354434 86.729143 
L 318.980037 93.970286 
L 325.60564 85.522286 
L 332.231243 85.522286 
L 338.856846 86.729143 
L 345.482449 86.729143 
L 352.108052 85.522286 
L 358.733655 91.556571 
L 365.359258 90.349714 
L 371.984861 98.797714 
L 378.610464 89.142857 
L 385.236067 67.419429 
L 391.86167 66.212571 
L 398.487273 65.005714 
L 398.487273 65.005714 
L 398.487273 65.005714 
L 391.86167 66.212571 
L 385.236067 67.419429 
L 378.610464 63.798857 
L 371.984861 81.901714 
L 365.359258 78.281143 
L 358.733655 80.694857 
L 352.108052 75.867429 
L 345.482449 74.660571 
L 338.856846 78.281143 
L 332.231243 78.281143 
L 325.60564 75.867429 
L 318.980037 81.901714 
L 312.354434 77.074286 
L 305.728831 84.315429 
L 299.103228 73.453714 
L 292.477625 72.246857 
L 285.852022 75.867429 
L 279.226419 74.660571 
L 272.600816 78.281143 
L 265.975213 83.108571 
L 259.34961 86.729143 
L 252.724007 71.04 
L 246.098404 73.453714 
L 239.472801 60.178286 
L 232.847199 65.005714 
L 226.221596 63.798857 
L 219.595993 65.005714 
L 212.97039 60.178286 
L 206.344787 58.971429 
L 199.719184 60.178286 
L 193.093581 58.971429 
L 186.467978 54.144 
L 179.842375 62.592 
L 173.216772 68.626286 
L 166.591169 62.592 
L 159.965566 65.005714 
L 153.339963 63.798857 
L 146.71436 65.005714 
L 140.088757 63.798857 
L 133.463154 65.005714 
L 126.837551 63.798857 
L 120.211948 65.005714 
L 113.586345 62.592 
L 106.960742 63.798857 
L 100.335139 63.798857 
L 93.709536 65.005714 
L 87.083933 67.419429 
L 80.45833 66.212571 
L 73.832727 66.212571 
z
" clip-path="url(#p58e7a27d06)" style="fill: #1f77b4"/>
   </g>
   <g id="PolyCollection_22">
    <path d="M 73.832727 66.212571 
L 73.832727 66.212571 
L 80.45833 66.212571 
L 87.083933 67.419429 
L 93.709536 65.005714 
L 100.335139 63.798857 
L 106.960742 63.798857 
L 113.586345 62.592 
L 120.211948 65.005714 
L 126.837551 63.798857 
L 133.463154 65.005714 
L 140.088757 63.798857 
L 146.71436 65.005714 
L 153.339963 63.798857 
L 159.965566 65.005714 
L 166.591169 62.592 
L 173.216772 68.626286 
L 179.842375 62.592 
L 186.467978 54.144 
L 193.093581 58.971429 
L 199.719184 60.178286 
L 206.344787 58.971429 
L 212.97039 60.178286 
L 219.595993 65.005714 
L 226.221596 63.798857 
L 232.847199 65.005714 
L 239.472801 60.178286 
L 246.098404 73.453714 
L 252.724007 71.04 
L 259.34961 86.729143 
L 265.975213 83.108571 
L 272.600816 78.281143 
L 279.226419 74.660571 
L 285.852022 75.867429 
L 292.477625 72.246857 
L 299.103228 73.453714 
L 305.728831 84.315429 
L 312.354434 77.074286 
L 318.980037 81.901714 
L 325.60564 75.867429 
L 332.231243 78.281143 
L 338.856846 78.281143 
L 345.482449 74.660571 
L 352.108052 75.867429 
L 358.733655 80.694857 
L 365.359258 78.281143 
L 371.984861 81.901714 
L 378.610464 63.798857 
L 385.236067 67.419429 
L 391.86167 66.212571 
L 398.487273 65.005714 
L 398.487273 65.005714 
L 398.487273 65.005714 
L 391.86167 66.212571 
L 385.236067 67.419429 
L 378.610464 63.798857 
L 371.984861 65.005714 
L 365.359258 65.005714 
L 358.733655 65.005714 
L 352.108052 62.592 
L 345.482449 62.592 
L 338.856846 63.798857 
L 332.231243 68.626286 
L 325.60564 66.212571 
L 318.980037 68.626286 
L 312.354434 69.833143 
L 305.728831 72.246857 
L 299.103228 62.592 
L 292.477625 63.798857 
L 285.852022 67.419429 
L 279.226419 67.419429 
L 272.600816 68.626286 
L 265.975213 69.833143 
L 259.34961 69.833143 
L 252.724007 60.178286 
L 246.098404 63.798857 
L 239.472801 58.971429 
L 232.847199 65.005714 
L 226.221596 63.798857 
L 219.595993 65.005714 
L 212.97039 60.178286 
L 206.344787 58.971429 
L 199.719184 60.178286 
L 193.093581 58.971429 
L 186.467978 54.144 
L 179.842375 62.592 
L 173.216772 68.626286 
L 166.591169 62.592 
L 159.965566 65.005714 
L 153.339963 63.798857 
L 146.71436 65.005714 
L 140.088757 63.798857 
L 133.463154 65.005714 
L 126.837551 63.798857 
L 120.211948 65.005714 
L 113.586345 62.592 
L 106.960742 63.798857 
L 100.335139 63.798857 
L 93.709536 65.005714 
L 87.083933 67.419429 
L 80.45833 66.212571 
L 73.832727 66.212571 
z
" clip-path="url(#p58e7a27d06)" style="fill: #ff7f0e"/>
   </g>
   <g id="matplotlib.axis_1">
    <g id="xtick_1">
     <g id="line2d_1">
      <defs>
       <path id="m12f11dee0e" d="M 0 0 
L 0 3.5 
" style="stroke: #000000; stroke-width: 0.8"/>
      </defs>
      <g>
       <use xlink:href="#m12f11dee0e" x="73.832727" y="307.584" style="stroke: #000000; stroke-width: 0.8"/>
      </g>
     </g>
     <g id="text_1">
      <!-- 0 -->
      <g transform="translate(70.651477 322.182437) scale(0.1 -0.1)">
       <defs>
        <path id="DejaVuSans-30" d="M 2034 4250 
Q 1547 4250 1301 3770 
Q 1056 3291 1056 2328 
Q 1056 1369 1301 889 
Q 1547 409 2034 409 
Q 2525 409 2770 889 
Q 3016 1369 3016 2328 
Q 3016 3291 2770 3770 
Q 2525 4250 2034 4250 
z
M 2034 4750 
Q 2819 4750 3233 4129 
Q 3647 3509 3647 2328 
Q 3647 1150 3233 529 
Q 2819 -91 2034 -91 
Q 1250 -91 836 529 
Q 422 1150 422 2328 
Q 422 3509 836 4129 
Q 1250 4750 2034 4750 
z
" transform="scale(0.015625)"/>
       </defs>
       <use xlink:href="#DejaVuSans-30"/>
      </g>
     </g>
    </g>
    <g id="xtick_2">
     <g id="line2d_2">
      <g>
       <use xlink:href="#m12f11dee0e" x="140.088757" y="307.584" style="stroke: #000000; stroke-width: 0.8"/>
      </g>
     </g>
     <g id="text_2">
      <!-- 10 -->
      <g transform="translate(133.726257 322.182437) scale(0.1 -0.1)">
       <defs>
        <path id="DejaVuSans-31" d="M 794 531 
L 1825 531 
L 1825 4091 
L 703 3866 
L 703 4441 
L 1819 4666 
L 2450 4666 
L 2450 531 
L 3481 531 
L 3481 0 
L 794 0 
L 794 531 
z
" transform="scale(0.015625)"/>
       </defs>
       <use xlink:href="#DejaVuSans-31"/>
       <use xlink:href="#DejaVuSans-30" x="63.623047"/>
      </g>
     </g>
    </g>
    <g id="xtick_3">
     <g id="line2d_3">
      <g>
       <use xlink:href="#m12f11dee0e" x="206.344787" y="307.584" style="stroke: #000000; stroke-width: 0.8"/>
      </g>
     </g>
     <g id="text_3">
      <!-- 20 -->
      <g transform="translate(199.982287 322.182437) scale(0.1 -0.1)">
       <defs>
        <path id="DejaVuSans-32" d="M 1228 531 
L 3431 531 
L 3431 0 
L 469 0 
L 469 531 
Q 828 903 1448 1529 
Q 2069 2156 2228 2338 
Q 2531 2678 2651 2914 
Q 2772 3150 2772 3378 
Q 2772 3750 2511 3984 
Q 2250 4219 1831 4219 
Q 1534 4219 1204 4116 
Q 875 4013 500 3803 
L 500 4441 
Q 881 4594 1212 4672 
Q 1544 4750 1819 4750 
Q 2544 4750 2975 4387 
Q 3406 4025 3406 3419 
Q 3406 3131 3298 2873 
Q 3191 2616 2906 2266 
Q 2828 2175 2409 1742 
Q 1991 1309 1228 531 
z
" transform="scale(0.015625)"/>
       </defs>
       <use xlink:href="#DejaVuSans-32"/>
       <use xlink:href="#DejaVuSans-30" x="63.623047"/>
      </g>
     </g>
    </g>
    <g id="xtick_4">
     <g id="line2d_4">
      <g>
       <use xlink:href="#m12f11dee0e" x="272.600816" y="307.584" style="stroke: #000000; stroke-width: 0.8"/>
      </g>
     </g>
     <g id="text_4">
      <!-- 30 -->
      <g transform="translate(266.238316 322.182437) scale(0.1 -0.1)">
       <defs>
        <path id="DejaVuSans-33" d="M 2597 2516 
Q 3050 2419 3304 2112 
Q 3559 1806 3559 1356 
Q 3559 666 3084 287 
Q 2609 -91 1734 -91 
Q 1441 -91 1130 -33 
Q 819 25 488 141 
L 488 750 
Q 750 597 1062 519 
Q 1375 441 1716 441 
Q 2309 441 2620 675 
Q 2931 909 2931 1356 
Q 2931 1769 2642 2001 
Q 2353 2234 1838 2234 
L 1294 2234 
L 1294 2753 
L 1863 2753 
Q 2328 2753 2575 2939 
Q 2822 3125 2822 3475 
Q 2822 3834 2567 4026 
Q 2313 4219 1838 4219 
Q 1578 4219 1281 4162 
Q 984 4106 628 3988 
L 628 4550 
Q 988 4650 1302 4700 
Q 1616 4750 1894 4750 
Q 2613 4750 3031 4423 
Q 3450 4097 3450 3541 
Q 3450 3153 3228 2886 
Q 3006 2619 2597 2516 
z
" transform="scale(0.015625)"/>
       </defs>
       <use xlink:href="#DejaVuSans-33"/>
       <use xlink:href="#DejaVuSans-30" x="63.623047"/>
      </g>
     </g>
    </g>
    <g id="xtick_5">
     <g id="line2d_5">
      <g>
       <use xlink:href="#m12f11dee0e" x="338.856846" y="307.584" style="stroke: #000000; stroke-width: 0.8"/>
      </g>
     </g>
     <g id="text_5">
      <!-- 40 -->
      <g transform="translate(332.494346 322.182437) scale(0.1 -0.1)">
       <defs>
        <path id="DejaVuSans-34" d="M 2419 4116 
L 825 1625 
L 2419 1625 
L 2419 4116 
z
M 2253 4666 
L 3047 4666 
L 3047 1625 
L 3713 1625 
L 3713 1100 
L 3047 1100 
L 3047 0 
L 2419 0 
L 2419 1100 
L 313 1100 
L 313 1709 
L 2253 4666 
z
" transform="scale(0.015625)"/>
       </defs>
       <use xlink:href="#DejaVuSans-34"/>
       <use xlink:href="#DejaVuSans-30" x="63.623047"/>
      </g>
     </g>
    </g>
    <g id="xtick_6">
     <g id="line2d_6">
      <g>
       <use xlink:href="#m12f11dee0e" x="405.112876" y="307.584" style="stroke: #000000; stroke-width: 0.8"/>
      </g>
     </g>
     <g id="text_6">
      <!-- 50 -->
      <g transform="translate(398.750376 322.182437) scale(0.1 -0.1)">
       <defs>
        <path id="DejaVuSans-35" d="M 691 4666 
L 3169 4666 
L 3169 4134 
L 1269 4134 
L 1269 2991 
Q 1406 3038 1543 3061 
Q 1681 3084 1819 3084 
Q 2600 3084 3056 2656 
Q 3513 2228 3513 1497 
Q 3513 744 3044 326 
Q 2575 -91 1722 -91 
Q 1428 -91 1123 -41 
Q 819 9 494 109 
L 494 744 
Q 775 591 1075 516 
Q 1375 441 1709 441 
Q 2250 441 2565 725 
Q 2881 1009 2881 1497 
Q 2881 1984 2565 2268 
Q 2250 2553 1709 2553 
Q 1456 2553 1204 2497 
Q 953 2441 691 2322 
L 691 4666 
z
" transform="scale(0.015625)"/>
       </defs>
       <use xlink:href="#DejaVuSans-35"/>
       <use xlink:href="#DejaVuSans-30" x="63.623047"/>
      </g>
     </g>
    </g>
    <g id="text_7">
     <!-- Generations -->
     <g transform="translate(205.662344 335.860562) scale(0.1 -0.1)">
      <defs>
       <path id="DejaVuSans-47" d="M 3809 666 
L 3809 1919 
L 2778 1919 
L 2778 2438 
L 4434 2438 
L 4434 434 
Q 4069 175 3628 42 
Q 3188 -91 2688 -91 
Q 1594 -91 976 548 
Q 359 1188 359 2328 
Q 359 3472 976 4111 
Q 1594 4750 2688 4750 
Q 3144 4750 3555 4637 
Q 3966 4525 4313 4306 
L 4313 3634 
Q 3963 3931 3569 4081 
Q 3175 4231 2741 4231 
Q 1884 4231 1454 3753 
Q 1025 3275 1025 2328 
Q 1025 1384 1454 906 
Q 1884 428 2741 428 
Q 3075 428 3337 486 
Q 3600 544 3809 666 
z
" transform="scale(0.015625)"/>
       <path id="DejaVuSans-65" d="M 3597 1894 
L 3597 1613 
L 953 1613 
Q 991 1019 1311 708 
Q 1631 397 2203 397 
Q 2534 397 2845 478 
Q 3156 559 3463 722 
L 3463 178 
Q 3153 47 2828 -22 
Q 2503 -91 2169 -91 
Q 1331 -91 842 396 
Q 353 884 353 1716 
Q 353 2575 817 3079 
Q 1281 3584 2069 3584 
Q 2775 3584 3186 3129 
Q 3597 2675 3597 1894 
z
M 3022 2063 
Q 3016 2534 2758 2815 
Q 2500 3097 2075 3097 
Q 1594 3097 1305 2825 
Q 1016 2553 972 2059 
L 3022 2063 
z
" transform="scale(0.015625)"/>
       <path id="DejaVuSans-6e" d="M 3513 2113 
L 3513 0 
L 2938 0 
L 2938 2094 
Q 2938 2591 2744 2837 
Q 2550 3084 2163 3084 
Q 1697 3084 1428 2787 
Q 1159 2491 1159 1978 
L 1159 0 
L 581 0 
L 581 3500 
L 1159 3500 
L 1159 2956 
Q 1366 3272 1645 3428 
Q 1925 3584 2291 3584 
Q 2894 3584 3203 3211 
Q 3513 2838 3513 2113 
z
" transform="scale(0.015625)"/>
       <path id="DejaVuSans-72" d="M 2631 2963 
Q 2534 3019 2420 3045 
Q 2306 3072 2169 3072 
Q 1681 3072 1420 2755 
Q 1159 2438 1159 1844 
L 1159 0 
L 581 0 
L 581 3500 
L 1159 3500 
L 1159 2956 
Q 1341 3275 1631 3429 
Q 1922 3584 2338 3584 
Q 2397 3584 2469 3576 
Q 2541 3569 2628 3553 
L 2631 2963 
z
" transform="scale(0.015625)"/>
       <path id="DejaVuSans-61" d="M 2194 1759 
Q 1497 1759 1228 1600 
Q 959 1441 959 1056 
Q 959 750 1161 570 
Q 1363 391 1709 391 
Q 2188 391 2477 730 
Q 2766 1069 2766 1631 
L 2766 1759 
L 2194 1759 
z
M 3341 1997 
L 3341 0 
L 2766 0 
L 2766 531 
Q 2569 213 2275 61 
Q 1981 -91 1556 -91 
Q 1019 -91 701 211 
Q 384 513 384 1019 
Q 384 1609 779 1909 
Q 1175 2209 1959 2209 
L 2766 2209 
L 2766 2266 
Q 2766 2663 2505 2880 
Q 2244 3097 1772 3097 
Q 1472 3097 1187 3025 
Q 903 2953 641 2809 
L 641 3341 
Q 956 3463 1253 3523 
Q 1550 3584 1831 3584 
Q 2591 3584 2966 3190 
Q 3341 2797 3341 1997 
z
" transform="scale(0.015625)"/>
       <path id="DejaVuSans-74" d="M 1172 4494 
L 1172 3500 
L 2356 3500 
L 2356 3053 
L 1172 3053 
L 1172 1153 
Q 1172 725 1289 603 
Q 1406 481 1766 481 
L 2356 481 
L 2356 0 
L 1766 0 
Q 1100 0 847 248 
Q 594 497 594 1153 
L 594 3053 
L 172 3053 
L 172 3500 
L 594 3500 
L 594 4494 
L 1172 4494 
z
" transform="scale(0.015625)"/>
       <path id="DejaVuSans-69" d="M 603 3500 
L 1178 3500 
L 1178 0 
L 603 0 
L 603 3500 
z
M 603 4863 
L 1178 4863 
L 1178 4134 
L 603 4134 
L 603 4863 
z
" transform="scale(0.015625)"/>
       <path id="DejaVuSans-6f" d="M 1959 3097 
Q 1497 3097 1228 2736 
Q 959 2375 959 1747 
Q 959 1119 1226 758 
Q 1494 397 1959 397 
Q 2419 397 2687 759 
Q 2956 1122 2956 1747 
Q 2956 2369 2687 2733 
Q 2419 3097 1959 3097 
z
M 1959 3584 
Q 2709 3584 3137 3096 
Q 3566 2609 3566 1747 
Q 3566 888 3137 398 
Q 2709 -91 1959 -91 
Q 1206 -91 779 398 
Q 353 888 353 1747 
Q 353 2609 779 3096 
Q 1206 3584 1959 3584 
z
" transform="scale(0.015625)"/>
       <path id="DejaVuSans-73" d="M 2834 3397 
L 2834 2853 
Q 2591 2978 2328 3040 
Q 2066 3103 1784 3103 
Q 1356 3103 1142 2972 
Q 928 2841 928 2578 
Q 928 2378 1081 2264 
Q 1234 2150 1697 2047 
L 1894 2003 
Q 2506 1872 2764 1633 
Q 3022 1394 3022 966 
Q 3022 478 2636 193 
Q 2250 -91 1575 -91 
Q 1294 -91 989 -36 
Q 684 19 347 128 
L 347 722 
Q 666 556 975 473 
Q 1284 391 1588 391 
Q 1994 391 2212 530 
Q 2431 669 2431 922 
Q 2431 1156 2273 1281 
Q 2116 1406 1581 1522 
L 1381 1569 
Q 847 1681 609 1914 
Q 372 2147 372 2553 
Q 372 3047 722 3315 
Q 1072 3584 1716 3584 
Q 2034 3584 2315 3537 
Q 2597 3491 2834 3397 
z
" transform="scale(0.015625)"/>
      </defs>
      <use xlink:href="#DejaVuSans-47"/>
      <use xlink:href="#DejaVuSans-65" x="77.490234"/>
      <use xlink:href="#DejaVuSans-6e" x="139.013672"/>
      <use xlink:href="#DejaVuSans-65" x="202.392578"/>
      <use xlink:href="#DejaVuSans-72" x="263.916016"/>
      <use xlink:href="#DejaVuSans-61" x="305.029297"/>
      <use xlink:href="#DejaVuSans-74" x="366.308594"/>
      <use xlink:href="#DejaVuSans-69" x="405.517578"/>
      <use xlink:href="#DejaVuSans-6f" x="433.300781"/>
      <use xlink:href="#DejaVuSans-6e" x="494.482422"/>
      <use xlink:href="#DejaVuSans-73" x="557.861328"/>
     </g>
    </g>
   </g>
   <g id="matplotlib.axis_2">
    <g id="ytick_1">
     <g id="line2d_7">
      <defs>
       <path id="mfc2d508258" d="M 0 0 
L -3.5 0 
" style="stroke: #000000; stroke-width: 0.8"/>
      </defs>
      <g>
       <use xlink:href="#mfc2d508258" x="57.6" y="307.584" style="stroke: #000000; stroke-width: 0.8"/>
      </g>
     </g>
     <g id="text_8">
      <!-- 0 -->
      <g transform="translate(44.2375 311.383219) scale(0.1 -0.1)">
       <use xlink:href="#DejaVuSans-30"/>
      </g>
     </g>
    </g>
    <g id="ytick_2">
     <g id="line2d_8">
      <g>
       <use xlink:href="#mfc2d508258" x="57.6" y="277.412571" style="stroke: #000000; stroke-width: 0.8"/>
      </g>
     </g>
     <g id="text_9">
      <!-- 25 -->
      <g transform="translate(37.875 281.21179) scale(0.1 -0.1)">
       <use xlink:href="#DejaVuSans-32"/>
       <use xlink:href="#DejaVuSans-35" x="63.623047"/>
      </g>
     </g>
    </g>
    <g id="ytick_3">
     <g id="line2d_9">
      <g>
       <use xlink:href="#mfc2d508258" x="57.6" y="247.241143" style="stroke: #000000; stroke-width: 0.8"/>
      </g>
     </g>
     <g id="text_10">
      <!-- 50 -->
      <g transform="translate(37.875 251.040362) scale(0.1 -0.1)">
       <use xlink:href="#DejaVuSans-35"/>
       <use xlink:href="#DejaVuSans-30" x="63.623047"/>
      </g>
     </g>
    </g>
    <g id="ytick_4">
     <g id="line2d_10">
      <g>
       <use xlink:href="#mfc2d508258" x="57.6" y="217.069714" style="stroke: #000000; stroke-width: 0.8"/>
      </g>
     </g>
     <g id="text_11">
      <!-- 75 -->
      <g transform="translate(37.875 220.868933) scale(0.1 -0.1)">
       <defs>
        <path id="DejaVuSans-37" d="M 525 4666 
L 3525 4666 
L 3525 4397 
L 1831 0 
L 1172 0 
L 2766 4134 
L 525 4134 
L 525 4666 
z
" transform="scale(0.015625)"/>
       </defs>
       <use xlink:href="#DejaVuSans-37"/>
       <use xlink:href="#DejaVuSans-35" x="63.623047"/>
      </g>
     </g>
    </g>
    <g id="ytick_5">
     <g id="line2d_11">
      <g>
       <use xlink:href="#mfc2d508258" x="57.6" y="186.898286" style="stroke: #000000; stroke-width: 0.8"/>
      </g>
     </g>
     <g id="text_12">
      <!-- 100 -->
      <g transform="translate(31.5125 190.697504) scale(0.1 -0.1)">
       <use xlink:href="#DejaVuSans-31"/>
       <use xlink:href="#DejaVuSans-30" x="63.623047"/>
       <use xlink:href="#DejaVuSans-30" x="127.246094"/>
      </g>
     </g>
    </g>
    <g id="ytick_6">
     <g id="line2d_12">
      <g>
       <use xlink:href="#mfc2d508258" x="57.6" y="156.726857" style="stroke: #000000; stroke-width: 0.8"/>
      </g>
     </g>
     <g id="text_13">
      <!-- 125 -->
      <g transform="translate(31.5125 160.526076) scale(0.1 -0.1)">
       <use xlink:href="#DejaVuSans-31"/>
       <use xlink:href="#DejaVuSans-32" x="63.623047"/>
       <use xlink:href="#DejaVuSans-35" x="127.246094"/>
      </g>
     </g>
    </g>
    <g id="ytick_7">
     <g id="line2d_13">
      <g>
       <use xlink:href="#mfc2d508258" x="57.6" y="126.555429" style="stroke: #000000; stroke-width: 0.8"/>
      </g>
     </g>
     <g id="text_14">
      <!-- 150 -->
      <g transform="translate(31.5125 130.354647) scale(0.1 -0.1)">
       <use xlink:href="#DejaVuSans-31"/>
       <use xlink:href="#DejaVuSans-35" x="63.623047"/>
       <use xlink:href="#DejaVuSans-30" x="127.246094"/>
      </g>
     </g>
    </g>
    <g id="ytick_8">
     <g id="line2d_14">
      <g>
       <use xlink:href="#mfc2d508258" x="57.6" y="96.384" style="stroke: #000000; stroke-width: 0.8"/>
      </g>
     </g>
     <g id="text_15">
      <!-- 175 -->
      <g transform="translate(31.5125 100.183219) scale(0.1 -0.1)">
       <use xlink:href="#DejaVuSans-31"/>
       <use xlink:href="#DejaVuSans-37" x="63.623047"/>
       <use xlink:href="#DejaVuSans-35" x="127.246094"/>
      </g>
     </g>
    </g>
    <g id="ytick_9">
     <g id="line2d_15">
      <g>
       <use xlink:href="#mfc2d508258" x="57.6" y="66.212571" style="stroke: #000000; stroke-width: 0.8"/>
      </g>
     </g>
     <g id="text_16">
      <!-- 200 -->
      <g transform="translate(31.5125 70.01179) scale(0.1 -0.1)">
       <use xlink:href="#DejaVuSans-32"/>
       <use xlink:href="#DejaVuSans-30" x="63.623047"/>
       <use xlink:href="#DejaVuSans-30" x="127.246094"/>
      </g>
     </g>
    </g>
    <g id="text_17">
     <!-- Size per Species -->
     <g transform="translate(25.432812 215.520969) rotate(-90) scale(0.1 -0.1)">
      <defs>
       <path id="DejaVuSans-53" d="M 3425 4513 
L 3425 3897 
Q 3066 4069 2747 4153 
Q 2428 4238 2131 4238 
Q 1616 4238 1336 4038 
Q 1056 3838 1056 3469 
Q 1056 3159 1242 3001 
Q 1428 2844 1947 2747 
L 2328 2669 
Q 3034 2534 3370 2195 
Q 3706 1856 3706 1288 
Q 3706 609 3251 259 
Q 2797 -91 1919 -91 
Q 1588 -91 1214 -16 
Q 841 59 441 206 
L 441 856 
Q 825 641 1194 531 
Q 1563 422 1919 422 
Q 2459 422 2753 634 
Q 3047 847 3047 1241 
Q 3047 1584 2836 1778 
Q 2625 1972 2144 2069 
L 1759 2144 
Q 1053 2284 737 2584 
Q 422 2884 422 3419 
Q 422 4038 858 4394 
Q 1294 4750 2059 4750 
Q 2388 4750 2728 4690 
Q 3069 4631 3425 4513 
z
" transform="scale(0.015625)"/>
       <path id="DejaVuSans-7a" d="M 353 3500 
L 3084 3500 
L 3084 2975 
L 922 459 
L 3084 459 
L 3084 0 
L 275 0 
L 275 525 
L 2438 3041 
L 353 3041 
L 353 3500 
z
" transform="scale(0.015625)"/>
       <path id="DejaVuSans-20" transform="scale(0.015625)"/>
       <path id="DejaVuSans-70" d="M 1159 525 
L 1159 -1331 
L 581 -1331 
L 581 3500 
L 1159 3500 
L 1159 2969 
Q 1341 3281 1617 3432 
Q 1894 3584 2278 3584 
Q 2916 3584 3314 3078 
Q 3713 2572 3713 1747 
Q 3713 922 3314 415 
Q 2916 -91 2278 -91 
Q 1894 -91 1617 61 
Q 1341 213 1159 525 
z
M 3116 1747 
Q 3116 2381 2855 2742 
Q 2594 3103 2138 3103 
Q 1681 3103 1420 2742 
Q 1159 2381 1159 1747 
Q 1159 1113 1420 752 
Q 1681 391 2138 391 
Q 2594 391 2855 752 
Q 3116 1113 3116 1747 
z
" transform="scale(0.015625)"/>
       <path id="DejaVuSans-63" d="M 3122 3366 
L 3122 2828 
Q 2878 2963 2633 3030 
Q 2388 3097 2138 3097 
Q 1578 3097 1268 2742 
Q 959 2388 959 1747 
Q 959 1106 1268 751 
Q 1578 397 2138 397 
Q 2388 397 2633 464 
Q 2878 531 3122 666 
L 3122 134 
Q 2881 22 2623 -34 
Q 2366 -91 2075 -91 
Q 1284 -91 818 406 
Q 353 903 353 1747 
Q 353 2603 823 3093 
Q 1294 3584 2113 3584 
Q 2378 3584 2631 3529 
Q 2884 3475 3122 3366 
z
" transform="scale(0.015625)"/>
      </defs>
      <use xlink:href="#DejaVuSans-53"/>
      <use xlink:href="#DejaVuSans-69" x="63.476562"/>
      <use xlink:href="#DejaVuSans-7a" x="91.259766"/>
      <use xlink:href="#DejaVuSans-65" x="143.75"/>
      <use xlink:href="#DejaVuSans-20" x="205.273438"/>
      <use xlink:href="#DejaVuSans-70" x="237.060547"/>
      <use xlink:href="#DejaVuSans-65" x="300.537109"/>
      <use xlink:href="#DejaVuSans-72" x="362.060547"/>
      <use xlink:href="#DejaVuSans-20" x="403.173828"/>
      <use xlink:href="#DejaVuSans-53" x="434.960938"/>
      <use xlink:href="#DejaVuSans-70" x="498.4375"/>
      <use xlink:href="#DejaVuSans-65" x="561.914062"/>
      <use xlink:href="#DejaVuSans-63" x="623.4375"/>
      <use xlink:href="#DejaVuSans-69" x="678.417969"/>
      <use xlink:href="#DejaVuSans-65" x="706.201172"/>
      <use xlink:href="#DejaVuSans-73" x="767.724609"/>
     </g>
    </g>
   </g>
   <g id="patch_3">
    <path d="M 57.6 307.584 
L 57.6 41.472 
" style="fill: none; stroke: #000000; stroke-width: 0.8; stroke-linejoin: miter; stroke-linecap: square"/>
   </g>
   <g id="patch_4">
    <path d="M 414.72 307.584 
L 414.72 41.472 
" style="fill: none; stroke: #000000; stroke-width: 0.8; stroke-linejoin: miter; stroke-linecap: square"/>
   </g>
   <g id="patch_5">
    <path d="M 57.6 307.584 
L 414.72 307.584 
" style="fill: none; stroke: #000000; stroke-width: 0.8; stroke-linejoin: miter; stroke-linecap: square"/>
   </g>
   <g id="patch_6">
    <path d="M 57.6 41.472 
L 414.72 41.472 
" style="fill: none; stroke: #000000; stroke-width: 0.8; stroke-linejoin: miter; stroke-linecap: square"/>
   </g>
   <g id="text_18">
    <!-- Speciation -->
    <g transform="translate(204.714375 35.472) scale(0.12 -0.12)">
     <use xlink:href="#DejaVuSans-53"/>
     <use xlink:href="#DejaVuSans-70" x="63.476562"/>
     <use xlink:href="#DejaVuSans-65" x="126.953125"/>
     <use xlink:href="#DejaVuSans-63" x="188.476562"/>
     <use xlink:href="#DejaVuSans-69" x="243.457031"/>
     <use xlink:href="#DejaVuSans-61" x="271.240234"/>
     <use xlink:href="#DejaVuSans-74" x="332.519531"/>
     <use xlink:href="#DejaVuSans-69" x="371.728516"/>
     <use xlink:href="#DejaVuSans-6f" x="399.511719"/>
     <use xlink:href="#DejaVuSans-6e" x="460.693359"/>
    </g>
   </g>
  </g>
 </g>
 <defs>
  <clipPath id="p58e7a27d06">
   <rect x="57.6" y="41.472" width="357.12" height="266.112"/>
  </clipPath>
 </defs>
</svg>
