<?xml version="1.0" encoding="utf-8" standalone="no"?>
<!DOCTYPE svg PUBLIC "-//W3C//DTD SVG 1.1//EN"
  "http://www.w3.org/Graphics/SVG/1.1/DTD/svg11.dtd">
<svg xmlns:xlink="http://www.w3.org/1999/xlink" width="460.8pt" height="345.6pt" viewBox="0 0 460.8 345.6" xmlns="http://www.w3.org/2000/svg" version="1.1">
 <metadata>
  <rdf:RDF xmlns:dc="http://purl.org/dc/elements/1.1/" xmlns:cc="http://creativecommons.org/ns#" xmlns:rdf="http://www.w3.org/1999/02/22-rdf-syntax-ns#">
   <cc:Work>
    <dc:type rdf:resource="http://purl.org/dc/dcmitype/StillImage"/>
    <dc:date>2024-08-10T10:15:05.147900</dc:date>
    <dc:format>image/svg+xml</dc:format>
    <dc:creator>
     <cc:Agent>
      <dc:title>Matplotlib v3.8.4, https://matplotlib.org/</dc:title>
     </cc:Agent>
    </dc:creator>
   </cc:Work>
  </rdf:RDF>
 </metadata>
 <defs>
  <style type="text/css">*{stroke-linejoin: round; stroke-linecap: butt}</style>
 </defs>
 <g id="figure_1">
  <g id="patch_1">
   <path d="M 0 345.6 
L 460.8 345.6 
L 460.8 0 
L 0 0 
z
" style="fill: #ffffff"/>
  </g>
  <g id="axes_1">
   <g id="patch_2">
    <path d="M 57.6 307.584 
L 414.72 307.584 
L 414.72 41.472 
L 57.6 41.472 
z
" style="fill: #ffffff"/>
   </g>
   <g id="PolyCollection_1">
    <path d="M 73.832727 273.302261 
L 73.832727 307.584 
L 80.45833 307.584 
L 87.083933 307.584 
L 93.709536 307.584 
L 100.335139 307.584 
L 106.960742 307.584 
L 113.586345 307.584 
L 120.211948 307.584 
L 126.837551 307.584 
L 133.463154 307.584 
L 140.088757 307.584 
L 146.71436 307.584 
L 153.339963 307.584 
L 159.965566 307.584 
L 166.591169 307.584 
L 173.216772 307.584 
L 179.842375 307.584 
L 186.467978 307.584 
L 193.093581 307.584 
L 199.719184 307.584 
L 206.344787 307.584 
L 212.97039 307.584 
L 219.595993 307.584 
L 226.221596 307.584 
L 232.847199 307.584 
L 239.472801 307.584 
L 246.098404 307.584 
L 252.724007 307.584 
L 259.34961 307.584 
L 265.975213 307.584 
L 272.600816 307.584 
L 279.226419 307.584 
L 285.852022 307.584 
L 292.477625 307.584 
L 299.103228 307.584 
L 305.728831 307.584 
L 312.354434 307.584 
L 318.980037 307.584 
L 325.60564 307.584 
L 332.231243 307.584 
L 338.856846 307.584 
L 345.482449 307.584 
L 352.108052 307.584 
L 358.733655 307.584 
L 365.359258 307.584 
L 371.984861 307.584 
L 378.610464 307.584 
L 385.236067 307.584 
L 391.86167 307.584 
L 398.487273 307.584 
L 398.487273 307.584 
L 398.487273 307.584 
L 391.86167 307.584 
L 385.236067 307.584 
L 378.610464 307.584 
L 371.984861 307.584 
L 365.359258 307.584 
L 358.733655 307.584 
L 352.108052 307.584 
L 345.482449 286.770087 
L 338.856846 291.667478 
L 332.231243 272.077913 
L 325.60564 231.674435 
L 318.980037 286.770087 
L 312.354434 280.648348 
L 305.728831 289.218783 
L 299.103228 286.770087 
L 292.477625 285.545739 
L 285.852022 297.789217 
L 279.226419 289.218783 
L 272.600816 283.097043 
L 265.975213 294.116174 
L 259.34961 289.218783 
L 252.724007 295.340522 
L 246.098404 291.667478 
L 239.472801 289.218783 
L 232.847199 300.237913 
L 226.221596 297.789217 
L 219.595993 286.770087 
L 212.97039 295.340522 
L 206.344787 299.013565 
L 199.719184 281.872696 
L 193.093581 286.770087 
L 186.467978 299.013565 
L 179.842375 216.982261 
L 173.216772 294.116174 
L 166.591169 291.667478 
L 159.965566 290.44313 
L 153.339963 292.891826 
L 146.71436 287.994435 
L 140.088757 286.770087 
L 133.463154 281.872696 
L 126.837551 290.44313 
L 120.211948 284.321391 
L 113.586345 296.56487 
L 106.960742 291.667478 
L 100.335139 276.975304 
L 93.709536 289.218783 
L 87.083933 295.340522 
L 80.45833 287.994435 
L 73.832727 273.302261 
z
" clip-path="url(#p28fe8f34f2)" style="fill: #1f77b4"/>
   </g>
   <g id="PolyCollection_2">
    <path d="M 73.832727 219.430957 
L 73.832727 273.302261 
L 80.45833 287.994435 
L 87.083933 295.340522 
L 93.709536 289.218783 
L 100.335139 276.975304 
L 106.960742 291.667478 
L 113.586345 296.56487 
L 120.211948 284.321391 
L 126.837551 290.44313 
L 133.463154 281.872696 
L 140.088757 286.770087 
L 146.71436 287.994435 
L 153.339963 292.891826 
L 159.965566 290.44313 
L 166.591169 291.667478 
L 173.216772 294.116174 
L 179.842375 216.982261 
L 186.467978 299.013565 
L 193.093581 286.770087 
L 199.719184 281.872696 
L 206.344787 299.013565 
L 212.97039 295.340522 
L 219.595993 286.770087 
L 226.221596 297.789217 
L 232.847199 300.237913 
L 239.472801 289.218783 
L 246.098404 291.667478 
L 252.724007 295.340522 
L 259.34961 289.218783 
L 265.975213 294.116174 
L 272.600816 283.097043 
L 279.226419 289.218783 
L 285.852022 297.789217 
L 292.477625 285.545739 
L 299.103228 286.770087 
L 305.728831 289.218783 
L 312.354434 280.648348 
L 318.980037 286.770087 
L 325.60564 231.674435 
L 332.231243 272.077913 
L 338.856846 291.667478 
L 345.482449 286.770087 
L 352.108052 307.584 
L 358.733655 307.584 
L 365.359258 307.584 
L 371.984861 307.584 
L 378.610464 307.584 
L 385.236067 307.584 
L 391.86167 307.584 
L 398.487273 307.584 
L 398.487273 307.584 
L 398.487273 307.584 
L 391.86167 307.584 
L 385.236067 307.584 
L 378.610464 307.584 
L 371.984861 307.584 
L 365.359258 307.584 
L 358.733655 307.584 
L 352.108052 307.584 
L 345.482449 286.770087 
L 338.856846 291.667478 
L 332.231243 272.077913 
L 325.60564 231.674435 
L 318.980037 286.770087 
L 312.354434 280.648348 
L 305.728831 289.218783 
L 299.103228 286.770087 
L 292.477625 285.545739 
L 285.852022 297.789217 
L 279.226419 289.218783 
L 272.600816 283.097043 
L 265.975213 283.097043 
L 259.34961 269.629217 
L 252.724007 281.872696 
L 246.098404 284.321391 
L 239.472801 283.097043 
L 232.847199 232.898783 
L 226.221596 279.424 
L 219.595993 240.24487 
L 212.97039 281.872696 
L 206.344787 225.552696 
L 199.719184 276.975304 
L 193.093581 228.001391 
L 186.467978 283.097043 
L 179.842375 207.187478 
L 173.216772 279.424 
L 166.591169 276.975304 
L 159.965566 274.526609 
L 153.339963 285.545739 
L 146.71436 270.853565 
L 140.088757 273.302261 
L 133.463154 253.712696 
L 126.837551 265.956174 
L 120.211948 256.161391 
L 113.586345 254.937043 
L 106.960742 237.796174 
L 100.335139 242.693565 
L 93.709536 269.629217 
L 87.083933 273.302261 
L 80.45833 262.28313 
L 73.832727 219.430957 
z
" clip-path="url(#p28fe8f34f2)" style="fill: #ff7f0e"/>
   </g>
   <g id="PolyCollection_3">
    <path d="M 73.832727 122.707478 
L 73.832727 219.430957 
L 80.45833 262.28313 
L 87.083933 273.302261 
L 93.709536 269.629217 
L 100.335139 242.693565 
L 106.960742 237.796174 
L 113.586345 254.937043 
L 120.211948 256.161391 
L 126.837551 265.956174 
L 133.463154 253.712696 
L 140.088757 273.302261 
L 146.71436 270.853565 
L 153.339963 285.545739 
L 159.965566 274.526609 
L 166.591169 276.975304 
L 173.216772 279.424 
L 179.842375 207.187478 
L 186.467978 283.097043 
L 193.093581 228.001391 
L 199.719184 276.975304 
L 206.344787 225.552696 
L 212.97039 281.872696 
L 219.595993 240.24487 
L 226.221596 279.424 
L 232.847199 232.898783 
L 239.472801 283.097043 
L 246.098404 284.321391 
L 252.724007 281.872696 
L 259.34961 269.629217 
L 265.975213 283.097043 
L 272.600816 283.097043 
L 279.226419 289.218783 
L 285.852022 297.789217 
L 292.477625 285.545739 
L 299.103228 286.770087 
L 305.728831 289.218783 
L 312.354434 280.648348 
L 318.980037 286.770087 
L 325.60564 231.674435 
L 332.231243 272.077913 
L 338.856846 291.667478 
L 345.482449 286.770087 
L 352.108052 307.584 
L 358.733655 307.584 
L 365.359258 307.584 
L 371.984861 307.584 
L 378.610464 307.584 
L 385.236067 307.584 
L 391.86167 307.584 
L 398.487273 307.584 
L 398.487273 274.526609 
L 398.487273 274.526609 
L 391.86167 267.180522 
L 385.236067 284.321391 
L 378.610464 264.731826 
L 371.984861 289.218783 
L 365.359258 284.321391 
L 358.733655 258.610087 
L 352.108052 269.629217 
L 345.482449 273.302261 
L 338.856846 257.385739 
L 332.231243 259.834435 
L 325.60564 223.104 
L 318.980037 263.507478 
L 312.354434 246.366609 
L 305.728831 254.937043 
L 299.103228 248.815304 
L 292.477625 252.488348 
L 285.852022 294.116174 
L 279.226419 246.366609 
L 272.600816 261.058783 
L 265.975213 275.750957 
L 259.34961 251.264 
L 252.724007 276.975304 
L 246.098404 257.385739 
L 239.472801 225.552696 
L 232.847199 226.777043 
L 226.221596 254.937043 
L 219.595993 207.187478 
L 212.97039 232.898783 
L 206.344787 210.860522 
L 199.719184 229.225739 
L 193.093581 216.982261 
L 186.467978 246.366609 
L 179.842375 201.065739 
L 173.216772 212.08487 
L 166.591169 264.731826 
L 159.965566 225.552696 
L 153.339963 273.302261 
L 146.71436 223.104 
L 140.088757 236.571826 
L 133.463154 224.328348 
L 126.837551 220.655304 
L 120.211948 225.552696 
L 113.586345 241.469217 
L 106.960742 218.206609 
L 100.335139 201.065739 
L 93.709536 224.328348 
L 87.083933 226.777043 
L 80.45833 219.430957 
L 73.832727 122.707478 
z
" clip-path="url(#p28fe8f34f2)" style="fill: #2ca02c"/>
   </g>
   <g id="PolyCollection_4">
    <path d="M 73.832727 114.137043 
L 73.832727 122.707478 
L 80.45833 219.430957 
L 87.083933 226.777043 
L 93.709536 224.328348 
L 100.335139 201.065739 
L 106.960742 218.206609 
L 113.586345 241.469217 
L 120.211948 225.552696 
L 126.837551 220.655304 
L 133.463154 224.328348 
L 140.088757 236.571826 
L 146.71436 223.104 
L 153.339963 273.302261 
L 159.965566 225.552696 
L 166.591169 264.731826 
L 173.216772 212.08487 
L 179.842375 201.065739 
L 186.467978 246.366609 
L 193.093581 216.982261 
L 199.719184 229.225739 
L 206.344787 210.860522 
L 212.97039 232.898783 
L 219.595993 207.187478 
L 226.221596 254.937043 
L 232.847199 226.777043 
L 239.472801 225.552696 
L 246.098404 257.385739 
L 252.724007 276.975304 
L 259.34961 251.264 
L 265.975213 275.750957 
L 272.600816 261.058783 
L 279.226419 246.366609 
L 285.852022 294.116174 
L 292.477625 252.488348 
L 299.103228 248.815304 
L 305.728831 254.937043 
L 312.354434 246.366609 
L 318.980037 263.507478 
L 325.60564 223.104 
L 332.231243 259.834435 
L 338.856846 257.385739 
L 345.482449 273.302261 
L 352.108052 269.629217 
L 358.733655 258.610087 
L 365.359258 284.321391 
L 371.984861 289.218783 
L 378.610464 264.731826 
L 385.236067 284.321391 
L 391.86167 267.180522 
L 398.487273 274.526609 
L 398.487273 259.834435 
L 398.487273 259.834435 
L 391.86167 248.815304 
L 385.236067 261.058783 
L 378.610464 243.917913 
L 371.984861 272.077913 
L 365.359258 262.28313 
L 358.733655 235.347478 
L 352.108052 248.815304 
L 345.482449 248.815304 
L 338.856846 229.225739 
L 332.231243 240.24487 
L 325.60564 201.065739 
L 318.980037 241.469217 
L 312.354434 228.001391 
L 305.728831 229.225739 
L 299.103228 228.001391 
L 292.477625 234.12313 
L 285.852022 280.648348 
L 279.226419 228.001391 
L 272.600816 243.917913 
L 265.975213 259.834435 
L 259.34961 224.328348 
L 252.724007 274.526609 
L 246.098404 239.020522 
L 239.472801 205.96313 
L 232.847199 212.08487 
L 226.221596 235.347478 
L 219.595993 188.822261 
L 212.97039 220.655304 
L 206.344787 196.168348 
L 199.719184 208.411826 
L 193.093581 198.617043 
L 186.467978 225.552696 
L 179.842375 183.92487 
L 173.216772 196.168348 
L 166.591169 250.039652 
L 159.965566 212.08487 
L 153.339963 259.834435 
L 146.71436 207.187478 
L 140.088757 226.777043 
L 133.463154 203.514435 
L 126.837551 202.290087 
L 120.211948 208.411826 
L 113.586345 221.879652 
L 106.960742 199.841391 
L 100.335139 182.700522 
L 93.709536 208.411826 
L 87.083933 212.08487 
L 80.45833 199.841391 
L 73.832727 114.137043 
z
" clip-path="url(#p28fe8f34f2)" style="fill: #d62728"/>
   </g>
   <g id="PolyCollection_5">
    <path d="M 73.832727 89.650087 
L 73.832727 114.137043 
L 80.45833 199.841391 
L 87.083933 212.08487 
L 93.709536 208.411826 
L 100.335139 182.700522 
L 106.960742 199.841391 
L 113.586345 221.879652 
L 120.211948 208.411826 
L 126.837551 202.290087 
L 133.463154 203.514435 
L 140.088757 226.777043 
L 146.71436 207.187478 
L 153.339963 259.834435 
L 159.965566 212.08487 
L 166.591169 250.039652 
L 173.216772 196.168348 
L 179.842375 183.92487 
L 186.467978 225.552696 
L 193.093581 198.617043 
L 199.719184 208.411826 
L 206.344787 196.168348 
L 212.97039 220.655304 
L 219.595993 188.822261 
L 226.221596 235.347478 
L 232.847199 212.08487 
L 239.472801 205.96313 
L 246.098404 239.020522 
L 252.724007 274.526609 
L 259.34961 224.328348 
L 265.975213 259.834435 
L 272.600816 243.917913 
L 279.226419 228.001391 
L 285.852022 280.648348 
L 292.477625 234.12313 
L 299.103228 228.001391 
L 305.728831 229.225739 
L 312.354434 228.001391 
L 318.980037 241.469217 
L 325.60564 201.065739 
L 332.231243 240.24487 
L 338.856846 229.225739 
L 345.482449 248.815304 
L 352.108052 248.815304 
L 358.733655 235.347478 
L 365.359258 262.28313 
L 371.984861 272.077913 
L 378.610464 243.917913 
L 385.236067 261.058783 
L 391.86167 248.815304 
L 398.487273 259.834435 
L 398.487273 259.834435 
L 398.487273 259.834435 
L 391.86167 248.815304 
L 385.236067 261.058783 
L 378.610464 243.917913 
L 371.984861 272.077913 
L 365.359258 262.28313 
L 358.733655 235.347478 
L 352.108052 248.815304 
L 345.482449 248.815304 
L 338.856846 229.225739 
L 332.231243 240.24487 
L 325.60564 201.065739 
L 318.980037 241.469217 
L 312.354434 228.001391 
L 305.728831 229.225739 
L 299.103228 228.001391 
L 292.477625 234.12313 
L 285.852022 224.328348 
L 279.226419 213.309217 
L 272.600816 232.898783 
L 265.975213 171.681391 
L 259.34961 177.80313 
L 252.724007 172.905739 
L 246.098404 209.636174 
L 239.472801 188.822261 
L 232.847199 171.681391 
L 226.221596 214.533565 
L 219.595993 155.76487 
L 212.97039 202.290087 
L 206.344787 187.597913 
L 199.719184 196.168348 
L 193.093581 185.149217 
L 186.467978 209.636174 
L 179.842375 164.335304 
L 173.216772 179.027478 
L 166.591169 179.027478 
L 159.965566 196.168348 
L 153.339963 182.700522 
L 146.71436 191.270957 
L 140.088757 176.578783 
L 133.463154 187.597913 
L 126.837551 169.232696 
L 120.211948 181.476174 
L 113.586345 182.700522 
L 106.960742 179.027478 
L 100.335139 169.232696 
L 93.709536 172.905739 
L 87.083933 176.578783 
L 80.45833 137.399652 
L 73.832727 89.650087 
z
" clip-path="url(#p28fe8f34f2)" style="fill: #9467bd"/>
   </g>
   <g id="PolyCollection_6">
    <path d="M 73.832727 85.977043 
L 73.832727 89.650087 
L 80.45833 137.399652 
L 87.083933 176.578783 
L 93.709536 172.905739 
L 100.335139 169.232696 
L 106.960742 179.027478 
L 113.586345 182.700522 
L 120.211948 181.476174 
L 126.837551 169.232696 
L 133.463154 187.597913 
L 140.088757 176.578783 
L 146.71436 191.270957 
L 153.339963 182.700522 
L 159.965566 196.168348 
L 166.591169 179.027478 
L 173.216772 179.027478 
L 179.842375 164.335304 
L 186.467978 209.636174 
L 193.093581 185.149217 
L 199.719184 196.168348 
L 206.344787 187.597913 
L 212.97039 202.290087 
L 219.595993 155.76487 
L 226.221596 214.533565 
L 232.847199 171.681391 
L 239.472801 188.822261 
L 246.098404 209.636174 
L 252.724007 172.905739 
L 259.34961 177.80313 
L 265.975213 171.681391 
L 272.600816 232.898783 
L 279.226419 213.309217 
L 285.852022 224.328348 
L 292.477625 234.12313 
L 299.103228 228.001391 
L 305.728831 229.225739 
L 312.354434 228.001391 
L 318.980037 241.469217 
L 325.60564 201.065739 
L 332.231243 240.24487 
L 338.856846 229.225739 
L 345.482449 248.815304 
L 352.108052 248.815304 
L 358.733655 235.347478 
L 365.359258 262.28313 
L 371.984861 272.077913 
L 378.610464 243.917913 
L 385.236067 261.058783 
L 391.86167 248.815304 
L 398.487273 259.834435 
L 398.487273 259.834435 
L 398.487273 259.834435 
L 391.86167 248.815304 
L 385.236067 261.058783 
L 378.610464 243.917913 
L 371.984861 272.077913 
L 365.359258 262.28313 
L 358.733655 235.347478 
L 352.108052 248.815304 
L 345.482449 248.815304 
L 338.856846 229.225739 
L 332.231243 240.24487 
L 325.60564 201.065739 
L 318.980037 241.469217 
L 312.354434 214.533565 
L 305.728831 219.430957 
L 299.103228 213.309217 
L 292.477625 225.552696 
L 285.852022 208.411826 
L 279.226419 196.168348 
L 272.600816 219.430957 
L 265.975213 164.335304 
L 259.34961 165.559652 
L 252.724007 164.335304 
L 246.098404 198.617043 
L 239.472801 176.578783 
L 232.847199 165.559652 
L 226.221596 191.270957 
L 219.595993 153.316174 
L 212.97039 191.270957 
L 206.344787 177.80313 
L 199.719184 181.476174 
L 193.093581 177.80313 
L 186.467978 181.476174 
L 179.842375 153.316174 
L 173.216772 168.008348 
L 166.591169 168.008348 
L 159.965566 185.149217 
L 153.339963 171.681391 
L 146.71436 177.80313 
L 140.088757 165.559652 
L 133.463154 175.354435 
L 126.837551 156.989217 
L 120.211948 165.559652 
L 113.586345 169.232696 
L 106.960742 164.335304 
L 100.335139 155.76487 
L 93.709536 165.559652 
L 87.083933 169.232696 
L 80.45833 133.726609 
L 73.832727 85.977043 
z
" clip-path="url(#p28fe8f34f2)" style="fill: #8c564b"/>
   </g>
   <g id="PolyCollection_7">
    <path d="M 73.832727 76.182261 
L 73.832727 85.977043 
L 80.45833 133.726609 
L 87.083933 169.232696 
L 93.709536 165.559652 
L 100.335139 155.76487 
L 106.960742 164.335304 
L 113.586345 169.232696 
L 120.211948 165.559652 
L 126.837551 156.989217 
L 133.463154 175.354435 
L 140.088757 165.559652 
L 146.71436 177.80313 
L 153.339963 171.681391 
L 159.965566 185.149217 
L 166.591169 168.008348 
L 173.216772 168.008348 
L 179.842375 153.316174 
L 186.467978 181.476174 
L 193.093581 177.80313 
L 199.719184 181.476174 
L 206.344787 177.80313 
L 212.97039 191.270957 
L 219.595993 153.316174 
L 226.221596 191.270957 
L 232.847199 165.559652 
L 239.472801 176.578783 
L 246.098404 198.617043 
L 252.724007 164.335304 
L 259.34961 165.559652 
L 265.975213 164.335304 
L 272.600816 219.430957 
L 279.226419 196.168348 
L 285.852022 208.411826 
L 292.477625 225.552696 
L 299.103228 213.309217 
L 305.728831 219.430957 
L 312.354434 214.533565 
L 318.980037 241.469217 
L 325.60564 201.065739 
L 332.231243 240.24487 
L 338.856846 229.225739 
L 345.482449 248.815304 
L 352.108052 248.815304 
L 358.733655 235.347478 
L 365.359258 262.28313 
L 371.984861 272.077913 
L 378.610464 243.917913 
L 385.236067 261.058783 
L 391.86167 248.815304 
L 398.487273 259.834435 
L 398.487273 259.834435 
L 398.487273 259.834435 
L 391.86167 248.815304 
L 385.236067 261.058783 
L 378.610464 243.917913 
L 371.984861 272.077913 
L 365.359258 262.28313 
L 358.733655 235.347478 
L 352.108052 248.815304 
L 345.482449 248.815304 
L 338.856846 229.225739 
L 332.231243 240.24487 
L 325.60564 201.065739 
L 318.980037 241.469217 
L 312.354434 214.533565 
L 305.728831 219.430957 
L 299.103228 213.309217 
L 292.477625 225.552696 
L 285.852022 208.411826 
L 279.226419 196.168348 
L 272.600816 219.430957 
L 265.975213 164.335304 
L 259.34961 165.559652 
L 252.724007 164.335304 
L 246.098404 198.617043 
L 239.472801 176.578783 
L 232.847199 150.867478 
L 226.221596 176.578783 
L 219.595993 138.624 
L 212.97039 176.578783 
L 206.344787 163.110957 
L 199.719184 171.681391 
L 193.093581 166.784 
L 186.467978 168.008348 
L 179.842375 141.072696 
L 173.216772 153.316174 
L 166.591169 153.316174 
L 159.965566 175.354435 
L 153.339963 153.316174 
L 146.71436 160.662261 
L 140.088757 156.989217 
L 133.463154 163.110957 
L 126.837551 144.745739 
L 120.211948 154.540522 
L 113.586345 168.008348 
L 106.960742 144.745739 
L 100.335139 130.053565 
L 93.709536 158.213565 
L 87.083933 160.662261 
L 80.45833 125.156174 
L 73.832727 76.182261 
z
" clip-path="url(#p28fe8f34f2)" style="fill: #e377c2"/>
   </g>
   <g id="PolyCollection_8">
    <path d="M 73.832727 71.28487 
L 73.832727 76.182261 
L 80.45833 125.156174 
L 87.083933 160.662261 
L 93.709536 158.213565 
L 100.335139 130.053565 
L 106.960742 144.745739 
L 113.586345 168.008348 
L 120.211948 154.540522 
L 126.837551 144.745739 
L 133.463154 163.110957 
L 140.088757 156.989217 
L 146.71436 160.662261 
L 153.339963 153.316174 
L 159.965566 175.354435 
L 166.591169 153.316174 
L 173.216772 153.316174 
L 179.842375 141.072696 
L 186.467978 168.008348 
L 193.093581 166.784 
L 199.719184 171.681391 
L 206.344787 163.110957 
L 212.97039 176.578783 
L 219.595993 138.624 
L 226.221596 176.578783 
L 232.847199 150.867478 
L 239.472801 176.578783 
L 246.098404 198.617043 
L 252.724007 164.335304 
L 259.34961 165.559652 
L 265.975213 164.335304 
L 272.600816 219.430957 
L 279.226419 196.168348 
L 285.852022 208.411826 
L 292.477625 225.552696 
L 299.103228 213.309217 
L 305.728831 219.430957 
L 312.354434 214.533565 
L 318.980037 241.469217 
L 325.60564 201.065739 
L 332.231243 240.24487 
L 338.856846 229.225739 
L 345.482449 248.815304 
L 352.108052 248.815304 
L 358.733655 235.347478 
L 365.359258 262.28313 
L 371.984861 272.077913 
L 378.610464 243.917913 
L 385.236067 261.058783 
L 391.86167 248.815304 
L 398.487273 259.834435 
L 398.487273 259.834435 
L 398.487273 259.834435 
L 391.86167 248.815304 
L 385.236067 261.058783 
L 378.610464 223.104 
L 371.984861 253.712696 
L 365.359258 246.366609 
L 358.733655 221.879652 
L 352.108052 230.450087 
L 345.482449 210.860522 
L 338.856846 210.860522 
L 332.231243 186.373565 
L 325.60564 186.373565 
L 318.980037 226.777043 
L 312.354434 204.738783 
L 305.728831 207.187478 
L 299.103228 203.514435 
L 292.477625 215.757913 
L 285.852022 197.392696 
L 279.226419 185.149217 
L 272.600816 204.738783 
L 265.975213 156.989217 
L 259.34961 154.540522 
L 252.724007 155.76487 
L 246.098404 183.92487 
L 239.472801 169.232696 
L 232.847199 138.624 
L 226.221596 160.662261 
L 219.595993 128.829217 
L 212.97039 155.76487 
L 206.344787 147.194435 
L 199.719184 155.76487 
L 193.093581 144.745739 
L 186.467978 147.194435 
L 179.842375 123.931826 
L 173.216772 141.072696 
L 166.591169 136.175304 
L 159.965566 158.213565 
L 153.339963 139.848348 
L 146.71436 144.745739 
L 140.088757 143.521391 
L 133.463154 136.175304 
L 126.837551 133.726609 
L 120.211948 133.726609 
L 113.586345 156.989217 
L 106.960742 130.053565 
L 100.335139 115.361391 
L 93.709536 131.277913 
L 87.083933 144.745739 
L 80.45833 110.464 
L 73.832727 71.28487 
z
" clip-path="url(#p28fe8f34f2)" style="fill: #7f7f7f"/>
   </g>
   <g id="PolyCollection_9">
    <path d="M 73.832727 70.060522 
L 73.832727 71.28487 
L 80.45833 110.464 
L 87.083933 144.745739 
L 93.709536 131.277913 
L 100.335139 115.361391 
L 106.960742 130.053565 
L 113.586345 156.989217 
L 120.211948 133.726609 
L 126.837551 133.726609 
L 133.463154 136.175304 
L 140.088757 143.521391 
L 146.71436 144.745739 
L 153.339963 139.848348 
L 159.965566 158.213565 
L 166.591169 136.175304 
L 173.216772 141.072696 
L 179.842375 123.931826 
L 186.467978 147.194435 
L 193.093581 144.745739 
L 199.719184 155.76487 
L 206.344787 147.194435 
L 212.97039 155.76487 
L 219.595993 128.829217 
L 226.221596 160.662261 
L 232.847199 138.624 
L 239.472801 169.232696 
L 246.098404 183.92487 
L 252.724007 155.76487 
L 259.34961 154.540522 
L 265.975213 156.989217 
L 272.600816 204.738783 
L 279.226419 185.149217 
L 285.852022 197.392696 
L 292.477625 215.757913 
L 299.103228 203.514435 
L 305.728831 207.187478 
L 312.354434 204.738783 
L 318.980037 226.777043 
L 325.60564 186.373565 
L 332.231243 186.373565 
L 338.856846 210.860522 
L 345.482449 210.860522 
L 352.108052 230.450087 
L 358.733655 221.879652 
L 365.359258 246.366609 
L 371.984861 253.712696 
L 378.610464 223.104 
L 385.236067 261.058783 
L 391.86167 248.815304 
L 398.487273 259.834435 
L 398.487273 245.142261 
L 398.487273 245.142261 
L 391.86167 236.571826 
L 385.236067 242.693565 
L 378.610464 205.96313 
L 371.984861 235.347478 
L 365.359258 226.777043 
L 358.733655 208.411826 
L 352.108052 221.879652 
L 345.482449 204.738783 
L 338.856846 199.841391 
L 332.231243 175.354435 
L 325.60564 177.80313 
L 318.980037 221.879652 
L 312.354434 196.168348 
L 305.728831 193.719652 
L 299.103228 191.270957 
L 292.477625 190.046609 
L 285.852022 192.495304 
L 279.226419 165.559652 
L 272.600816 199.841391 
L 265.975213 148.418783 
L 259.34961 144.745739 
L 252.724007 136.175304 
L 246.098404 170.457043 
L 239.472801 163.110957 
L 232.847199 128.829217 
L 226.221596 155.76487 
L 219.595993 125.156174 
L 212.97039 143.521391 
L 206.344787 133.726609 
L 199.719184 148.418783 
L 193.093581 133.726609 
L 186.467978 134.950957 
L 179.842375 114.137043 
L 173.216772 131.277913 
L 166.591169 125.156174 
L 159.965566 144.745739 
L 153.339963 123.931826 
L 146.71436 131.277913 
L 140.088757 130.053565 
L 133.463154 122.707478 
L 126.837551 125.156174 
L 120.211948 115.361391 
L 113.586345 142.297043 
L 106.960742 114.137043 
L 100.335139 98.220522 
L 93.709536 115.361391 
L 87.083933 132.502261 
L 80.45833 100.669217 
L 73.832727 70.060522 
z
" clip-path="url(#p28fe8f34f2)" style="fill: #bcbd22"/>
   </g>
   <g id="PolyCollection_10">
    <path d="M 73.832727 67.611826 
L 73.832727 70.060522 
L 80.45833 100.669217 
L 87.083933 132.502261 
L 93.709536 115.361391 
L 100.335139 98.220522 
L 106.960742 114.137043 
L 113.586345 142.297043 
L 120.211948 115.361391 
L 126.837551 125.156174 
L 133.463154 122.707478 
L 140.088757 130.053565 
L 146.71436 131.277913 
L 153.339963 123.931826 
L 159.965566 144.745739 
L 166.591169 125.156174 
L 173.216772 131.277913 
L 179.842375 114.137043 
L 186.467978 134.950957 
L 193.093581 133.726609 
L 199.719184 148.418783 
L 206.344787 133.726609 
L 212.97039 143.521391 
L 219.595993 125.156174 
L 226.221596 155.76487 
L 232.847199 128.829217 
L 239.472801 163.110957 
L 246.098404 170.457043 
L 252.724007 136.175304 
L 259.34961 144.745739 
L 265.975213 148.418783 
L 272.600816 199.841391 
L 279.226419 165.559652 
L 285.852022 192.495304 
L 292.477625 190.046609 
L 299.103228 191.270957 
L 305.728831 193.719652 
L 312.354434 196.168348 
L 318.980037 221.879652 
L 325.60564 177.80313 
L 332.231243 175.354435 
L 338.856846 199.841391 
L 345.482449 204.738783 
L 352.108052 221.879652 
L 358.733655 208.411826 
L 365.359258 226.777043 
L 371.984861 235.347478 
L 378.610464 205.96313 
L 385.236067 242.693565 
L 391.86167 236.571826 
L 398.487273 245.142261 
L 398.487273 236.571826 
L 398.487273 236.571826 
L 391.86167 223.104 
L 385.236067 239.020522 
L 378.610464 196.168348 
L 371.984861 225.552696 
L 365.359258 212.08487 
L 358.733655 193.719652 
L 352.108052 205.96313 
L 345.482449 199.841391 
L 338.856846 193.719652 
L 332.231243 150.867478 
L 325.60564 165.559652 
L 318.980037 214.533565 
L 312.354434 181.476174 
L 305.728831 170.457043 
L 299.103228 181.476174 
L 292.477625 169.232696 
L 285.852022 180.251826 
L 279.226419 144.745739 
L 272.600816 180.251826 
L 265.975213 137.399652 
L 259.34961 127.60487 
L 252.724007 123.931826 
L 246.098404 144.745739 
L 239.472801 132.502261 
L 232.847199 115.361391 
L 226.221596 143.521391 
L 219.595993 117.810087 
L 212.97039 126.380522 
L 206.344787 114.137043 
L 199.719184 128.829217 
L 193.093581 127.60487 
L 186.467978 120.258783 
L 179.842375 99.44487 
L 173.216772 117.810087 
L 166.591169 109.239652 
L 159.965566 131.277913 
L 153.339963 109.239652 
L 146.71436 116.585739 
L 140.088757 116.585739 
L 133.463154 112.912696 
L 126.837551 112.912696 
L 120.211948 98.220522 
L 113.586345 128.829217 
L 106.960742 99.44487 
L 100.335139 84.752696 
L 93.709536 103.117913 
L 87.083933 119.034435 
L 80.45833 90.874435 
L 73.832727 67.611826 
z
" clip-path="url(#p28fe8f34f2)" style="fill: #17becf"/>
   </g>
   <g id="PolyCollection_11">
    <path d="M 73.832727 62.714435 
L 73.832727 67.611826 
L 80.45833 90.874435 
L 87.083933 119.034435 
L 93.709536 103.117913 
L 100.335139 84.752696 
L 106.960742 99.44487 
L 113.586345 128.829217 
L 120.211948 98.220522 
L 126.837551 112.912696 
L 133.463154 112.912696 
L 140.088757 116.585739 
L 146.71436 116.585739 
L 153.339963 109.239652 
L 159.965566 131.277913 
L 166.591169 109.239652 
L 173.216772 117.810087 
L 179.842375 99.44487 
L 186.467978 120.258783 
L 193.093581 127.60487 
L 199.719184 128.829217 
L 206.344787 114.137043 
L 212.97039 126.380522 
L 219.595993 117.810087 
L 226.221596 143.521391 
L 232.847199 115.361391 
L 239.472801 132.502261 
L 246.098404 144.745739 
L 252.724007 123.931826 
L 259.34961 127.60487 
L 265.975213 137.399652 
L 272.600816 180.251826 
L 279.226419 144.745739 
L 285.852022 180.251826 
L 292.477625 169.232696 
L 299.103228 181.476174 
L 305.728831 170.457043 
L 312.354434 181.476174 
L 318.980037 214.533565 
L 325.60564 165.559652 
L 332.231243 150.867478 
L 338.856846 193.719652 
L 345.482449 199.841391 
L 352.108052 205.96313 
L 358.733655 193.719652 
L 365.359258 212.08487 
L 371.984861 225.552696 
L 378.610464 196.168348 
L 385.236067 239.020522 
L 391.86167 223.104 
L 398.487273 236.571826 
L 398.487273 219.430957 
L 398.487273 219.430957 
L 391.86167 208.411826 
L 385.236067 191.270957 
L 378.610464 190.046609 
L 371.984861 139.848348 
L 365.359258 202.290087 
L 358.733655 165.559652 
L 352.108052 165.559652 
L 345.482449 186.373565 
L 338.856846 177.80313 
L 332.231243 133.726609 
L 325.60564 142.297043 
L 318.980037 185.149217 
L 312.354434 174.130087 
L 305.728831 150.867478 
L 299.103228 164.335304 
L 292.477625 139.848348 
L 285.852022 164.335304 
L 279.226419 123.931826 
L 272.600816 161.886609 
L 265.975213 122.707478 
L 259.34961 117.810087 
L 252.724007 109.239652 
L 246.098404 126.380522 
L 239.472801 119.034435 
L 232.847199 108.015304 
L 226.221596 112.912696 
L 219.595993 109.239652 
L 212.97039 105.566609 
L 206.344787 96.996174 
L 199.719184 108.015304 
L 193.093581 103.117913 
L 186.467978 99.44487 
L 179.842375 92.098783 
L 173.216772 100.669217 
L 166.591169 92.098783 
L 159.965566 112.912696 
L 153.339963 88.425739 
L 146.71436 96.996174 
L 140.088757 101.893565 
L 133.463154 90.874435 
L 126.837551 87.201391 
L 120.211948 79.855304 
L 113.586345 110.464 
L 106.960742 85.977043 
L 100.335139 78.630957 
L 93.709536 73.733565 
L 87.083933 95.771826 
L 80.45833 65.16313 
L 73.832727 62.714435 
z
" clip-path="url(#p28fe8f34f2)" style="fill: #1f77b4"/>
   </g>
   <g id="PolyCollection_12">
    <path d="M 73.832727 62.714435 
L 73.832727 62.714435 
L 80.45833 65.16313 
L 87.083933 95.771826 
L 93.709536 73.733565 
L 100.335139 78.630957 
L 106.960742 85.977043 
L 113.586345 110.464 
L 120.211948 79.855304 
L 126.837551 87.201391 
L 133.463154 90.874435 
L 140.088757 101.893565 
L 146.71436 96.996174 
L 153.339963 88.425739 
L 159.965566 112.912696 
L 166.591169 92.098783 
L 173.216772 100.669217 
L 179.842375 92.098783 
L 186.467978 99.44487 
L 193.093581 103.117913 
L 199.719184 108.015304 
L 206.344787 96.996174 
L 212.97039 105.566609 
L 219.595993 109.239652 
L 226.221596 112.912696 
L 232.847199 108.015304 
L 239.472801 119.034435 
L 246.098404 126.380522 
L 252.724007 109.239652 
L 259.34961 117.810087 
L 265.975213 122.707478 
L 272.600816 161.886609 
L 279.226419 123.931826 
L 285.852022 164.335304 
L 292.477625 139.848348 
L 299.103228 164.335304 
L 305.728831 150.867478 
L 312.354434 174.130087 
L 318.980037 185.149217 
L 325.60564 142.297043 
L 332.231243 133.726609 
L 338.856846 177.80313 
L 345.482449 186.373565 
L 352.108052 165.559652 
L 358.733655 165.559652 
L 365.359258 202.290087 
L 371.984861 139.848348 
L 378.610464 190.046609 
L 385.236067 191.270957 
L 391.86167 208.411826 
L 398.487273 219.430957 
L 398.487273 219.430957 
L 398.487273 219.430957 
L 391.86167 208.411826 
L 385.236067 191.270957 
L 378.610464 190.046609 
L 371.984861 139.848348 
L 365.359258 202.290087 
L 358.733655 165.559652 
L 352.108052 165.559652 
L 345.482449 186.373565 
L 338.856846 177.80313 
L 332.231243 133.726609 
L 325.60564 142.297043 
L 318.980037 185.149217 
L 312.354434 174.130087 
L 305.728831 150.867478 
L 299.103228 164.335304 
L 292.477625 139.848348 
L 285.852022 164.335304 
L 279.226419 123.931826 
L 272.600816 161.886609 
L 265.975213 122.707478 
L 259.34961 117.810087 
L 252.724007 109.239652 
L 246.098404 112.912696 
L 239.472801 110.464 
L 232.847199 93.32313 
L 226.221596 98.220522 
L 219.595993 94.547478 
L 212.97039 88.425739 
L 206.344787 82.304 
L 199.719184 90.874435 
L 193.093581 84.752696 
L 186.467978 84.752696 
L 179.842375 81.079652 
L 173.216772 84.752696 
L 166.591169 82.304 
L 159.965566 77.406609 
L 153.339963 73.733565 
L 146.71436 81.079652 
L 140.088757 79.855304 
L 133.463154 77.406609 
L 126.837551 74.957913 
L 120.211948 70.060522 
L 113.586345 71.28487 
L 106.960742 73.733565 
L 100.335139 65.16313 
L 93.709536 61.490087 
L 87.083933 61.490087 
L 80.45833 56.592696 
L 73.832727 62.714435 
z
" clip-path="url(#p28fe8f34f2)" style="fill: #ff7f0e"/>
   </g>
   <g id="PolyCollection_13">
    <path d="M 73.832727 62.714435 
L 73.832727 62.714435 
L 80.45833 56.592696 
L 87.083933 61.490087 
L 93.709536 61.490087 
L 100.335139 65.16313 
L 106.960742 73.733565 
L 113.586345 71.28487 
L 120.211948 70.060522 
L 126.837551 74.957913 
L 133.463154 77.406609 
L 140.088757 79.855304 
L 146.71436 81.079652 
L 153.339963 73.733565 
L 159.965566 77.406609 
L 166.591169 82.304 
L 173.216772 84.752696 
L 179.842375 81.079652 
L 186.467978 84.752696 
L 193.093581 84.752696 
L 199.719184 90.874435 
L 206.344787 82.304 
L 212.97039 88.425739 
L 219.595993 94.547478 
L 226.221596 98.220522 
L 232.847199 93.32313 
L 239.472801 110.464 
L 246.098404 112.912696 
L 252.724007 109.239652 
L 259.34961 117.810087 
L 265.975213 122.707478 
L 272.600816 161.886609 
L 279.226419 123.931826 
L 285.852022 164.335304 
L 292.477625 139.848348 
L 299.103228 164.335304 
L 305.728831 150.867478 
L 312.354434 174.130087 
L 318.980037 185.149217 
L 325.60564 142.297043 
L 332.231243 133.726609 
L 338.856846 177.80313 
L 345.482449 186.373565 
L 352.108052 165.559652 
L 358.733655 165.559652 
L 365.359258 202.290087 
L 371.984861 139.848348 
L 378.610464 190.046609 
L 385.236067 191.270957 
L 391.86167 208.411826 
L 398.487273 219.430957 
L 398.487273 205.96313 
L 398.487273 205.96313 
L 391.86167 202.290087 
L 385.236067 188.822261 
L 378.610464 179.027478 
L 371.984861 137.399652 
L 365.359258 145.970087 
L 358.733655 150.867478 
L 352.108052 153.316174 
L 345.482449 136.175304 
L 338.856846 143.521391 
L 332.231243 121.48313 
L 325.60564 131.277913 
L 318.980037 159.437913 
L 312.354434 155.76487 
L 305.728831 139.848348 
L 299.103228 138.624 
L 292.477625 132.502261 
L 285.852022 144.745739 
L 279.226419 111.688348 
L 272.600816 154.540522 
L 265.975213 110.464 
L 259.34961 106.790957 
L 252.724007 94.547478 
L 246.098404 95.771826 
L 239.472801 95.771826 
L 232.847199 76.182261 
L 226.221596 71.28487 
L 219.595993 70.060522 
L 212.97039 74.957913 
L 206.344787 74.957913 
L 199.719184 77.406609 
L 193.093581 67.611826 
L 186.467978 67.611826 
L 179.842375 68.836174 
L 173.216772 70.060522 
L 166.591169 71.28487 
L 159.965566 63.938783 
L 153.339963 60.265739 
L 146.71436 63.938783 
L 140.088757 65.16313 
L 133.463154 62.714435 
L 126.837551 63.938783 
L 120.211948 60.265739 
L 113.586345 63.938783 
L 106.960742 63.938783 
L 100.335139 62.714435 
L 93.709536 61.490087 
L 87.083933 61.490087 
L 80.45833 56.592696 
L 73.832727 62.714435 
z
" clip-path="url(#p28fe8f34f2)" style="fill: #2ca02c"/>
   </g>
   <g id="PolyCollection_14">
    <path d="M 73.832727 62.714435 
L 73.832727 62.714435 
L 80.45833 56.592696 
L 87.083933 61.490087 
L 93.709536 61.490087 
L 100.335139 62.714435 
L 106.960742 63.938783 
L 113.586345 63.938783 
L 120.211948 60.265739 
L 126.837551 63.938783 
L 133.463154 62.714435 
L 140.088757 65.16313 
L 146.71436 63.938783 
L 153.339963 60.265739 
L 159.965566 63.938783 
L 166.591169 71.28487 
L 173.216772 70.060522 
L 179.842375 68.836174 
L 186.467978 67.611826 
L 193.093581 67.611826 
L 199.719184 77.406609 
L 206.344787 74.957913 
L 212.97039 74.957913 
L 219.595993 70.060522 
L 226.221596 71.28487 
L 232.847199 76.182261 
L 239.472801 95.771826 
L 246.098404 95.771826 
L 252.724007 94.547478 
L 259.34961 106.790957 
L 265.975213 110.464 
L 272.600816 154.540522 
L 279.226419 111.688348 
L 285.852022 144.745739 
L 292.477625 132.502261 
L 299.103228 138.624 
L 305.728831 139.848348 
L 312.354434 155.76487 
L 318.980037 159.437913 
L 325.60564 131.277913 
L 332.231243 121.48313 
L 338.856846 143.521391 
L 345.482449 136.175304 
L 352.108052 153.316174 
L 358.733655 150.867478 
L 365.359258 145.970087 
L 371.984861 137.399652 
L 378.610464 179.027478 
L 385.236067 188.822261 
L 391.86167 202.290087 
L 398.487273 205.96313 
L 398.487273 193.719652 
L 398.487273 193.719652 
L 391.86167 188.822261 
L 385.236067 181.476174 
L 378.610464 165.559652 
L 371.984861 132.502261 
L 365.359258 138.624 
L 358.733655 138.624 
L 352.108052 143.521391 
L 345.482449 125.156174 
L 338.856846 126.380522 
L 332.231243 108.015304 
L 325.60564 116.585739 
L 318.980037 139.848348 
L 312.354434 134.950957 
L 305.728831 125.156174 
L 299.103228 127.60487 
L 292.477625 122.707478 
L 285.852022 127.60487 
L 279.226419 109.239652 
L 272.600816 136.175304 
L 265.975213 95.771826 
L 259.34961 93.32313 
L 252.724007 92.098783 
L 246.098404 88.425739 
L 239.472801 81.079652 
L 232.847199 71.28487 
L 226.221596 60.265739 
L 219.595993 59.041391 
L 212.97039 62.714435 
L 206.344787 62.714435 
L 199.719184 61.490087 
L 193.093581 60.265739 
L 186.467978 60.265739 
L 179.842375 60.265739 
L 173.216772 60.265739 
L 166.591169 60.265739 
L 159.965566 62.714435 
L 153.339963 60.265739 
L 146.71436 63.938783 
L 140.088757 65.16313 
L 133.463154 62.714435 
L 126.837551 63.938783 
L 120.211948 60.265739 
L 113.586345 63.938783 
L 106.960742 63.938783 
L 100.335139 62.714435 
L 93.709536 61.490087 
L 87.083933 61.490087 
L 80.45833 56.592696 
L 73.832727 62.714435 
z
" clip-path="url(#p28fe8f34f2)" style="fill: #d62728"/>
   </g>
   <g id="PolyCollection_15">
    <path d="M 73.832727 62.714435 
L 73.832727 62.714435 
L 80.45833 56.592696 
L 87.083933 61.490087 
L 93.709536 61.490087 
L 100.335139 62.714435 
L 106.960742 63.938783 
L 113.586345 63.938783 
L 120.211948 60.265739 
L 126.837551 63.938783 
L 133.463154 62.714435 
L 140.088757 65.16313 
L 146.71436 63.938783 
L 153.339963 60.265739 
L 159.965566 62.714435 
L 166.591169 60.265739 
L 173.216772 60.265739 
L 179.842375 60.265739 
L 186.467978 60.265739 
L 193.093581 60.265739 
L 199.719184 61.490087 
L 206.344787 62.714435 
L 212.97039 62.714435 
L 219.595993 59.041391 
L 226.221596 60.265739 
L 232.847199 71.28487 
L 239.472801 81.079652 
L 246.098404 88.425739 
L 252.724007 92.098783 
L 259.34961 93.32313 
L 265.975213 95.771826 
L 272.600816 136.175304 
L 279.226419 109.239652 
L 285.852022 127.60487 
L 292.477625 122.707478 
L 299.103228 127.60487 
L 305.728831 125.156174 
L 312.354434 134.950957 
L 318.980037 139.848348 
L 325.60564 116.585739 
L 332.231243 108.015304 
L 338.856846 126.380522 
L 345.482449 125.156174 
L 352.108052 143.521391 
L 358.733655 138.624 
L 365.359258 138.624 
L 371.984861 132.502261 
L 378.610464 165.559652 
L 385.236067 181.476174 
L 391.86167 188.822261 
L 398.487273 193.719652 
L 398.487273 148.418783 
L 398.487273 148.418783 
L 391.86167 153.316174 
L 385.236067 153.316174 
L 378.610464 142.297043 
L 371.984861 121.48313 
L 365.359258 125.156174 
L 358.733655 123.931826 
L 352.108052 128.829217 
L 345.482449 110.464 
L 338.856846 114.137043 
L 332.231243 96.996174 
L 325.60564 111.688348 
L 318.980037 116.585739 
L 312.354434 116.585739 
L 305.728831 100.669217 
L 299.103228 110.464 
L 292.477625 110.464 
L 285.852022 110.464 
L 279.226419 95.771826 
L 272.600816 100.669217 
L 265.975213 83.528348 
L 259.34961 79.855304 
L 252.724007 82.304 
L 246.098404 78.630957 
L 239.472801 71.28487 
L 232.847199 66.387478 
L 226.221596 57.817043 
L 219.595993 59.041391 
L 212.97039 62.714435 
L 206.344787 62.714435 
L 199.719184 61.490087 
L 193.093581 60.265739 
L 186.467978 60.265739 
L 179.842375 60.265739 
L 173.216772 60.265739 
L 166.591169 60.265739 
L 159.965566 62.714435 
L 153.339963 60.265739 
L 146.71436 63.938783 
L 140.088757 65.16313 
L 133.463154 62.714435 
L 126.837551 63.938783 
L 120.211948 60.265739 
L 113.586345 63.938783 
L 106.960742 63.938783 
L 100.335139 62.714435 
L 93.709536 61.490087 
L 87.083933 61.490087 
L 80.45833 56.592696 
L 73.832727 62.714435 
z
" clip-path="url(#p28fe8f34f2)" style="fill: #9467bd"/>
   </g>
   <g id="PolyCollection_16">
    <path d="M 73.832727 62.714435 
L 73.832727 62.714435 
L 80.45833 56.592696 
L 87.083933 61.490087 
L 93.709536 61.490087 
L 100.335139 62.714435 
L 106.960742 63.938783 
L 113.586345 63.938783 
L 120.211948 60.265739 
L 126.837551 63.938783 
L 133.463154 62.714435 
L 140.088757 65.16313 
L 146.71436 63.938783 
L 153.339963 60.265739 
L 159.965566 62.714435 
L 166.591169 60.265739 
L 173.216772 60.265739 
L 179.842375 60.265739 
L 186.467978 60.265739 
L 193.093581 60.265739 
L 199.719184 61.490087 
L 206.344787 62.714435 
L 212.97039 62.714435 
L 219.595993 59.041391 
L 226.221596 57.817043 
L 232.847199 66.387478 
L 239.472801 71.28487 
L 246.098404 78.630957 
L 252.724007 82.304 
L 259.34961 79.855304 
L 265.975213 83.528348 
L 272.600816 100.669217 
L 279.226419 95.771826 
L 285.852022 110.464 
L 292.477625 110.464 
L 299.103228 110.464 
L 305.728831 100.669217 
L 312.354434 116.585739 
L 318.980037 116.585739 
L 325.60564 111.688348 
L 332.231243 96.996174 
L 338.856846 114.137043 
L 345.482449 110.464 
L 352.108052 128.829217 
L 358.733655 123.931826 
L 365.359258 125.156174 
L 371.984861 121.48313 
L 378.610464 142.297043 
L 385.236067 153.316174 
L 391.86167 153.316174 
L 398.487273 148.418783 
L 398.487273 132.502261 
L 398.487273 132.502261 
L 391.86167 139.848348 
L 385.236067 137.399652 
L 378.610464 120.258783 
L 371.984861 108.015304 
L 365.359258 109.239652 
L 358.733655 99.44487 
L 352.108052 101.893565 
L 345.482449 93.32313 
L 338.856846 90.874435 
L 332.231243 87.201391 
L 325.60564 92.098783 
L 318.980037 87.201391 
L 312.354434 90.874435 
L 305.728831 84.752696 
L 299.103228 89.650087 
L 292.477625 90.874435 
L 285.852022 83.528348 
L 279.226419 81.079652 
L 272.600816 81.079652 
L 265.975213 67.611826 
L 259.34961 65.16313 
L 252.724007 67.611826 
L 246.098404 62.714435 
L 239.472801 63.938783 
L 232.847199 54.144 
L 226.221596 56.592696 
L 219.595993 59.041391 
L 212.97039 62.714435 
L 206.344787 62.714435 
L 199.719184 61.490087 
L 193.093581 60.265739 
L 186.467978 60.265739 
L 179.842375 60.265739 
L 173.216772 60.265739 
L 166.591169 60.265739 
L 159.965566 62.714435 
L 153.339963 60.265739 
L 146.71436 63.938783 
L 140.088757 65.16313 
L 133.463154 62.714435 
L 126.837551 63.938783 
L 120.211948 60.265739 
L 113.586345 63.938783 
L 106.960742 63.938783 
L 100.335139 62.714435 
L 93.709536 61.490087 
L 87.083933 61.490087 
L 80.45833 56.592696 
L 73.832727 62.714435 
z
" clip-path="url(#p28fe8f34f2)" style="fill: #8c564b"/>
   </g>
   <g id="PolyCollection_17">
    <path d="M 73.832727 62.714435 
L 73.832727 62.714435 
L 80.45833 56.592696 
L 87.083933 61.490087 
L 93.709536 61.490087 
L 100.335139 62.714435 
L 106.960742 63.938783 
L 113.586345 63.938783 
L 120.211948 60.265739 
L 126.837551 63.938783 
L 133.463154 62.714435 
L 140.088757 65.16313 
L 146.71436 63.938783 
L 153.339963 60.265739 
L 159.965566 62.714435 
L 166.591169 60.265739 
L 173.216772 60.265739 
L 179.842375 60.265739 
L 186.467978 60.265739 
L 193.093581 60.265739 
L 199.719184 61.490087 
L 206.344787 62.714435 
L 212.97039 62.714435 
L 219.595993 59.041391 
L 226.221596 56.592696 
L 232.847199 54.144 
L 239.472801 63.938783 
L 246.098404 62.714435 
L 252.724007 67.611826 
L 259.34961 65.16313 
L 265.975213 67.611826 
L 272.600816 81.079652 
L 279.226419 81.079652 
L 285.852022 83.528348 
L 292.477625 90.874435 
L 299.103228 89.650087 
L 305.728831 84.752696 
L 312.354434 90.874435 
L 318.980037 87.201391 
L 325.60564 92.098783 
L 332.231243 87.201391 
L 338.856846 90.874435 
L 345.482449 93.32313 
L 352.108052 101.893565 
L 358.733655 99.44487 
L 365.359258 109.239652 
L 371.984861 108.015304 
L 378.610464 120.258783 
L 385.236067 137.399652 
L 391.86167 139.848348 
L 398.487273 132.502261 
L 398.487273 132.502261 
L 398.487273 132.502261 
L 391.86167 130.053565 
L 385.236067 123.931826 
L 378.610464 106.790957 
L 371.984861 95.771826 
L 365.359258 99.44487 
L 358.733655 89.650087 
L 352.108052 90.874435 
L 345.482449 81.079652 
L 338.856846 78.630957 
L 332.231243 77.406609 
L 325.60564 74.957913 
L 318.980037 73.733565 
L 312.354434 76.182261 
L 305.728831 71.28487 
L 299.103228 74.957913 
L 292.477625 76.182261 
L 285.852022 71.28487 
L 279.226419 71.28487 
L 272.600816 70.060522 
L 265.975213 61.490087 
L 259.34961 63.938783 
L 252.724007 67.611826 
L 246.098404 62.714435 
L 239.472801 63.938783 
L 232.847199 54.144 
L 226.221596 56.592696 
L 219.595993 59.041391 
L 212.97039 62.714435 
L 206.344787 62.714435 
L 199.719184 61.490087 
L 193.093581 60.265739 
L 186.467978 60.265739 
L 179.842375 60.265739 
L 173.216772 60.265739 
L 166.591169 60.265739 
L 159.965566 62.714435 
L 153.339963 60.265739 
L 146.71436 63.938783 
L 140.088757 65.16313 
L 133.463154 62.714435 
L 126.837551 63.938783 
L 120.211948 60.265739 
L 113.586345 63.938783 
L 106.960742 63.938783 
L 100.335139 62.714435 
L 93.709536 61.490087 
L 87.083933 61.490087 
L 80.45833 56.592696 
L 73.832727 62.714435 
z
" clip-path="url(#p28fe8f34f2)" style="fill: #e377c2"/>
   </g>
   <g id="PolyCollection_18">
    <path d="M 73.832727 62.714435 
L 73.832727 62.714435 
L 80.45833 56.592696 
L 87.083933 61.490087 
L 93.709536 61.490087 
L 100.335139 62.714435 
L 106.960742 63.938783 
L 113.586345 63.938783 
L 120.211948 60.265739 
L 126.837551 63.938783 
L 133.463154 62.714435 
L 140.088757 65.16313 
L 146.71436 63.938783 
L 153.339963 60.265739 
L 159.965566 62.714435 
L 166.591169 60.265739 
L 173.216772 60.265739 
L 179.842375 60.265739 
L 186.467978 60.265739 
L 193.093581 60.265739 
L 199.719184 61.490087 
L 206.344787 62.714435 
L 212.97039 62.714435 
L 219.595993 59.041391 
L 226.221596 56.592696 
L 232.847199 54.144 
L 239.472801 63.938783 
L 246.098404 62.714435 
L 252.724007 67.611826 
L 259.34961 63.938783 
L 265.975213 61.490087 
L 272.600816 70.060522 
L 279.226419 71.28487 
L 285.852022 71.28487 
L 292.477625 76.182261 
L 299.103228 74.957913 
L 305.728831 71.28487 
L 312.354434 76.182261 
L 318.980037 73.733565 
L 325.60564 74.957913 
L 332.231243 77.406609 
L 338.856846 78.630957 
L 345.482449 81.079652 
L 352.108052 90.874435 
L 358.733655 89.650087 
L 365.359258 99.44487 
L 371.984861 95.771826 
L 378.610464 106.790957 
L 385.236067 123.931826 
L 391.86167 130.053565 
L 398.487273 132.502261 
L 398.487273 101.893565 
L 398.487273 101.893565 
L 391.86167 105.566609 
L 385.236067 108.015304 
L 378.610464 90.874435 
L 371.984861 92.098783 
L 365.359258 92.098783 
L 358.733655 76.182261 
L 352.108052 74.957913 
L 345.482449 70.060522 
L 338.856846 65.16313 
L 332.231243 60.265739 
L 325.60564 59.041391 
L 318.980037 61.490087 
L 312.354434 62.714435 
L 305.728831 61.490087 
L 299.103228 61.490087 
L 292.477625 61.490087 
L 285.852022 60.265739 
L 279.226419 61.490087 
L 272.600816 68.836174 
L 265.975213 61.490087 
L 259.34961 63.938783 
L 252.724007 67.611826 
L 246.098404 62.714435 
L 239.472801 63.938783 
L 232.847199 54.144 
L 226.221596 56.592696 
L 219.595993 59.041391 
L 212.97039 62.714435 
L 206.344787 62.714435 
L 199.719184 61.490087 
L 193.093581 60.265739 
L 186.467978 60.265739 
L 179.842375 60.265739 
L 173.216772 60.265739 
L 166.591169 60.265739 
L 159.965566 62.714435 
L 153.339963 60.265739 
L 146.71436 63.938783 
L 140.088757 65.16313 
L 133.463154 62.714435 
L 126.837551 63.938783 
L 120.211948 60.265739 
L 113.586345 63.938783 
L 106.960742 63.938783 
L 100.335139 62.714435 
L 93.709536 61.490087 
L 87.083933 61.490087 
L 80.45833 56.592696 
L 73.832727 62.714435 
z
" clip-path="url(#p28fe8f34f2)" style="fill: #7f7f7f"/>
   </g>
   <g id="PolyCollection_19">
    <path d="M 73.832727 62.714435 
L 73.832727 62.714435 
L 80.45833 56.592696 
L 87.083933 61.490087 
L 93.709536 61.490087 
L 100.335139 62.714435 
L 106.960742 63.938783 
L 113.586345 63.938783 
L 120.211948 60.265739 
L 126.837551 63.938783 
L 133.463154 62.714435 
L 140.088757 65.16313 
L 146.71436 63.938783 
L 153.339963 60.265739 
L 159.965566 62.714435 
L 166.591169 60.265739 
L 173.216772 60.265739 
L 179.842375 60.265739 
L 186.467978 60.265739 
L 193.093581 60.265739 
L 199.719184 61.490087 
L 206.344787 62.714435 
L 212.97039 62.714435 
L 219.595993 59.041391 
L 226.221596 56.592696 
L 232.847199 54.144 
L 239.472801 63.938783 
L 246.098404 62.714435 
L 252.724007 67.611826 
L 259.34961 63.938783 
L 265.975213 61.490087 
L 272.600816 68.836174 
L 279.226419 61.490087 
L 285.852022 60.265739 
L 292.477625 61.490087 
L 299.103228 61.490087 
L 305.728831 61.490087 
L 312.354434 62.714435 
L 318.980037 61.490087 
L 325.60564 59.041391 
L 332.231243 60.265739 
L 338.856846 65.16313 
L 345.482449 70.060522 
L 352.108052 74.957913 
L 358.733655 76.182261 
L 365.359258 92.098783 
L 371.984861 92.098783 
L 378.610464 90.874435 
L 385.236067 108.015304 
L 391.86167 105.566609 
L 398.487273 101.893565 
L 398.487273 88.425739 
L 398.487273 88.425739 
L 391.86167 90.874435 
L 385.236067 93.32313 
L 378.610464 81.079652 
L 371.984861 81.079652 
L 365.359258 79.855304 
L 358.733655 62.714435 
L 352.108052 62.714435 
L 345.482449 62.714435 
L 338.856846 62.714435 
L 332.231243 60.265739 
L 325.60564 59.041391 
L 318.980037 61.490087 
L 312.354434 62.714435 
L 305.728831 61.490087 
L 299.103228 61.490087 
L 292.477625 61.490087 
L 285.852022 60.265739 
L 279.226419 61.490087 
L 272.600816 68.836174 
L 265.975213 61.490087 
L 259.34961 63.938783 
L 252.724007 67.611826 
L 246.098404 62.714435 
L 239.472801 63.938783 
L 232.847199 54.144 
L 226.221596 56.592696 
L 219.595993 59.041391 
L 212.97039 62.714435 
L 206.344787 62.714435 
L 199.719184 61.490087 
L 193.093581 60.265739 
L 186.467978 60.265739 
L 179.842375 60.265739 
L 173.216772 60.265739 
L 166.591169 60.265739 
L 159.965566 62.714435 
L 153.339963 60.265739 
L 146.71436 63.938783 
L 140.088757 65.16313 
L 133.463154 62.714435 
L 126.837551 63.938783 
L 120.211948 60.265739 
L 113.586345 63.938783 
L 106.960742 63.938783 
L 100.335139 62.714435 
L 93.709536 61.490087 
L 87.083933 61.490087 
L 80.45833 56.592696 
L 73.832727 62.714435 
z
" clip-path="url(#p28fe8f34f2)" style="fill: #bcbd22"/>
   </g>
   <g id="PolyCollection_20">
    <path d="M 73.832727 62.714435 
L 73.832727 62.714435 
L 80.45833 56.592696 
L 87.083933 61.490087 
L 93.709536 61.490087 
L 100.335139 62.714435 
L 106.960742 63.938783 
L 113.586345 63.938783 
L 120.211948 60.265739 
L 126.837551 63.938783 
L 133.463154 62.714435 
L 140.088757 65.16313 
L 146.71436 63.938783 
L 153.339963 60.265739 
L 159.965566 62.714435 
L 166.591169 60.265739 
L 173.216772 60.265739 
L 179.842375 60.265739 
L 186.467978 60.265739 
L 193.093581 60.265739 
L 199.719184 61.490087 
L 206.344787 62.714435 
L 212.97039 62.714435 
L 219.595993 59.041391 
L 226.221596 56.592696 
L 232.847199 54.144 
L 239.472801 63.938783 
L 246.098404 62.714435 
L 252.724007 67.611826 
L 259.34961 63.938783 
L 265.975213 61.490087 
L 272.600816 68.836174 
L 279.226419 61.490087 
L 285.852022 60.265739 
L 292.477625 61.490087 
L 299.103228 61.490087 
L 305.728831 61.490087 
L 312.354434 62.714435 
L 318.980037 61.490087 
L 325.60564 59.041391 
L 332.231243 60.265739 
L 338.856846 62.714435 
L 345.482449 62.714435 
L 352.108052 62.714435 
L 358.733655 62.714435 
L 365.359258 79.855304 
L 371.984861 81.079652 
L 378.610464 81.079652 
L 385.236067 93.32313 
L 391.86167 90.874435 
L 398.487273 88.425739 
L 398.487273 73.733565 
L 398.487273 73.733565 
L 391.86167 78.630957 
L 385.236067 79.855304 
L 378.610464 71.28487 
L 371.984861 70.060522 
L 365.359258 68.836174 
L 358.733655 61.490087 
L 352.108052 62.714435 
L 345.482449 62.714435 
L 338.856846 62.714435 
L 332.231243 60.265739 
L 325.60564 59.041391 
L 318.980037 61.490087 
L 312.354434 62.714435 
L 305.728831 61.490087 
L 299.103228 61.490087 
L 292.477625 61.490087 
L 285.852022 60.265739 
L 279.226419 61.490087 
L 272.600816 68.836174 
L 265.975213 61.490087 
L 259.34961 63.938783 
L 252.724007 67.611826 
L 246.098404 62.714435 
L 239.472801 63.938783 
L 232.847199 54.144 
L 226.221596 56.592696 
L 219.595993 59.041391 
L 212.97039 62.714435 
L 206.344787 62.714435 
L 199.719184 61.490087 
L 193.093581 60.265739 
L 186.467978 60.265739 
L 179.842375 60.265739 
L 173.216772 60.265739 
L 166.591169 60.265739 
L 159.965566 62.714435 
L 153.339963 60.265739 
L 146.71436 63.938783 
L 140.088757 65.16313 
L 133.463154 62.714435 
L 126.837551 63.938783 
L 120.211948 60.265739 
L 113.586345 63.938783 
L 106.960742 63.938783 
L 100.335139 62.714435 
L 93.709536 61.490087 
L 87.083933 61.490087 
L 80.45833 56.592696 
L 73.832727 62.714435 
z
" clip-path="url(#p28fe8f34f2)" style="fill: #17becf"/>
   </g>
   <g id="PolyCollection_21">
    <path d="M 73.832727 62.714435 
L 73.832727 62.714435 
L 80.45833 56.592696 
L 87.083933 61.490087 
L 93.709536 61.490087 
L 100.335139 62.714435 
L 106.960742 63.938783 
L 113.586345 63.938783 
L 120.211948 60.265739 
L 126.837551 63.938783 
L 133.463154 62.714435 
L 140.088757 65.16313 
L 146.71436 63.938783 
L 153.339963 60.265739 
L 159.965566 62.714435 
L 166.591169 60.265739 
L 173.216772 60.265739 
L 179.842375 60.265739 
L 186.467978 60.265739 
L 193.093581 60.265739 
L 199.719184 61.490087 
L 206.344787 62.714435 
L 212.97039 62.714435 
L 219.595993 59.041391 
L 226.221596 56.592696 
L 232.847199 54.144 
L 239.472801 63.938783 
L 246.098404 62.714435 
L 252.724007 67.611826 
L 259.34961 63.938783 
L 265.975213 61.490087 
L 272.600816 68.836174 
L 279.226419 61.490087 
L 285.852022 60.265739 
L 292.477625 61.490087 
L 299.103228 61.490087 
L 305.728831 61.490087 
L 312.354434 62.714435 
L 318.980037 61.490087 
L 325.60564 59.041391 
L 332.231243 60.265739 
L 338.856846 62.714435 
L 345.482449 62.714435 
L 352.108052 62.714435 
L 358.733655 61.490087 
L 365.359258 68.836174 
L 371.984861 70.060522 
L 378.610464 71.28487 
L 385.236067 79.855304 
L 391.86167 78.630957 
L 398.487273 73.733565 
L 398.487273 65.16313 
L 398.487273 65.16313 
L 391.86167 65.16313 
L 385.236067 66.387478 
L 378.610464 57.817043 
L 371.984861 61.490087 
L 365.359258 60.265739 
L 358.733655 57.817043 
L 352.108052 62.714435 
L 345.482449 62.714435 
L 338.856846 62.714435 
L 332.231243 60.265739 
L 325.60564 59.041391 
L 318.980037 61.490087 
L 312.354434 62.714435 
L 305.728831 61.490087 
L 299.103228 61.490087 
L 292.477625 61.490087 
L 285.852022 60.265739 
L 279.226419 61.490087 
L 272.600816 68.836174 
L 265.975213 61.490087 
L 259.34961 63.938783 
L 252.724007 67.611826 
L 246.098404 62.714435 
L 239.472801 63.938783 
L 232.847199 54.144 
L 226.221596 56.592696 
L 219.595993 59.041391 
L 212.97039 62.714435 
L 206.344787 62.714435 
L 199.719184 61.490087 
L 193.093581 60.265739 
L 186.467978 60.265739 
L 179.842375 60.265739 
L 173.216772 60.265739 
L 166.591169 60.265739 
L 159.965566 62.714435 
L 153.339963 60.265739 
L 146.71436 63.938783 
L 140.088757 65.16313 
L 133.463154 62.714435 
L 126.837551 63.938783 
L 120.211948 60.265739 
L 113.586345 63.938783 
L 106.960742 63.938783 
L 100.335139 62.714435 
L 93.709536 61.490087 
L 87.083933 61.490087 
L 80.45833 56.592696 
L 73.832727 62.714435 
z
" clip-path="url(#p28fe8f34f2)" style="fill: #1f77b4"/>
   </g>
   <g id="matplotlib.axis_1">
    <g id="xtick_1">
     <g id="line2d_1">
      <defs>
       <path id="m3a4b5a624c" d="M 0 0 
L 0 3.5 
" style="stroke: #000000; stroke-width: 0.8"/>
      </defs>
      <g>
       <use xlink:href="#m3a4b5a624c" x="73.832727" y="307.584" style="stroke: #000000; stroke-width: 0.8"/>
      </g>
     </g>
     <g id="text_1">
      <!-- 0 -->
      <g transform="translate(70.651477 322.182437) scale(0.1 -0.1)">
       <defs>
        <path id="DejaVuSans-30" d="M 2034 4250 
Q 1547 4250 1301 3770 
Q 1056 3291 1056 2328 
Q 1056 1369 1301 889 
Q 1547 409 2034 409 
Q 2525 409 2770 889 
Q 3016 1369 3016 2328 
Q 3016 3291 2770 3770 
Q 2525 4250 2034 4250 
z
M 2034 4750 
Q 2819 4750 3233 4129 
Q 3647 3509 3647 2328 
Q 3647 1150 3233 529 
Q 2819 -91 2034 -91 
Q 1250 -91 836 529 
Q 422 1150 422 2328 
Q 422 3509 836 4129 
Q 1250 4750 2034 4750 
z
" transform="scale(0.015625)"/>
       </defs>
       <use xlink:href="#DejaVuSans-30"/>
      </g>
     </g>
    </g>
    <g id="xtick_2">
     <g id="line2d_2">
      <g>
       <use xlink:href="#m3a4b5a624c" x="140.088757" y="307.584" style="stroke: #000000; stroke-width: 0.8"/>
      </g>
     </g>
     <g id="text_2">
      <!-- 10 -->
      <g transform="translate(133.726257 322.182437) scale(0.1 -0.1)">
       <defs>
        <path id="DejaVuSans-31" d="M 794 531 
L 1825 531 
L 1825 4091 
L 703 3866 
L 703 4441 
L 1819 4666 
L 2450 4666 
L 2450 531 
L 3481 531 
L 3481 0 
L 794 0 
L 794 531 
z
" transform="scale(0.015625)"/>
       </defs>
       <use xlink:href="#DejaVuSans-31"/>
       <use xlink:href="#DejaVuSans-30" x="63.623047"/>
      </g>
     </g>
    </g>
    <g id="xtick_3">
     <g id="line2d_3">
      <g>
       <use xlink:href="#m3a4b5a624c" x="206.344787" y="307.584" style="stroke: #000000; stroke-width: 0.8"/>
      </g>
     </g>
     <g id="text_3">
      <!-- 20 -->
      <g transform="translate(199.982287 322.182437) scale(0.1 -0.1)">
       <defs>
        <path id="DejaVuSans-32" d="M 1228 531 
L 3431 531 
L 3431 0 
L 469 0 
L 469 531 
Q 828 903 1448 1529 
Q 2069 2156 2228 2338 
Q 2531 2678 2651 2914 
Q 2772 3150 2772 3378 
Q 2772 3750 2511 3984 
Q 2250 4219 1831 4219 
Q 1534 4219 1204 4116 
Q 875 4013 500 3803 
L 500 4441 
Q 881 4594 1212 4672 
Q 1544 4750 1819 4750 
Q 2544 4750 2975 4387 
Q 3406 4025 3406 3419 
Q 3406 3131 3298 2873 
Q 3191 2616 2906 2266 
Q 2828 2175 2409 1742 
Q 1991 1309 1228 531 
z
" transform="scale(0.015625)"/>
       </defs>
       <use xlink:href="#DejaVuSans-32"/>
       <use xlink:href="#DejaVuSans-30" x="63.623047"/>
      </g>
     </g>
    </g>
    <g id="xtick_4">
     <g id="line2d_4">
      <g>
       <use xlink:href="#m3a4b5a624c" x="272.600816" y="307.584" style="stroke: #000000; stroke-width: 0.8"/>
      </g>
     </g>
     <g id="text_4">
      <!-- 30 -->
      <g transform="translate(266.238316 322.182437) scale(0.1 -0.1)">
       <defs>
        <path id="DejaVuSans-33" d="M 2597 2516 
Q 3050 2419 3304 2112 
Q 3559 1806 3559 1356 
Q 3559 666 3084 287 
Q 2609 -91 1734 -91 
Q 1441 -91 1130 -33 
Q 819 25 488 141 
L 488 750 
Q 750 597 1062 519 
Q 1375 441 1716 441 
Q 2309 441 2620 675 
Q 2931 909 2931 1356 
Q 2931 1769 2642 2001 
Q 2353 2234 1838 2234 
L 1294 2234 
L 1294 2753 
L 1863 2753 
Q 2328 2753 2575 2939 
Q 2822 3125 2822 3475 
Q 2822 3834 2567 4026 
Q 2313 4219 1838 4219 
Q 1578 4219 1281 4162 
Q 984 4106 628 3988 
L 628 4550 
Q 988 4650 1302 4700 
Q 1616 4750 1894 4750 
Q 2613 4750 3031 4423 
Q 3450 4097 3450 3541 
Q 3450 3153 3228 2886 
Q 3006 2619 2597 2516 
z
" transform="scale(0.015625)"/>
       </defs>
       <use xlink:href="#DejaVuSans-33"/>
       <use xlink:href="#DejaVuSans-30" x="63.623047"/>
      </g>
     </g>
    </g>
    <g id="xtick_5">
     <g id="line2d_5">
      <g>
       <use xlink:href="#m3a4b5a624c" x="338.856846" y="307.584" style="stroke: #000000; stroke-width: 0.8"/>
      </g>
     </g>
     <g id="text_5">
      <!-- 40 -->
      <g transform="translate(332.494346 322.182437) scale(0.1 -0.1)">
       <defs>
        <path id="DejaVuSans-34" d="M 2419 4116 
L 825 1625 
L 2419 1625 
L 2419 4116 
z
M 2253 4666 
L 3047 4666 
L 3047 1625 
L 3713 1625 
L 3713 1100 
L 3047 1100 
L 3047 0 
L 2419 0 
L 2419 1100 
L 313 1100 
L 313 1709 
L 2253 4666 
z
" transform="scale(0.015625)"/>
       </defs>
       <use xlink:href="#DejaVuSans-34"/>
       <use xlink:href="#DejaVuSans-30" x="63.623047"/>
      </g>
     </g>
    </g>
    <g id="xtick_6">
     <g id="line2d_6">
      <g>
       <use xlink:href="#m3a4b5a624c" x="405.112876" y="307.584" style="stroke: #000000; stroke-width: 0.8"/>
      </g>
     </g>
     <g id="text_6">
      <!-- 50 -->
      <g transform="translate(398.750376 322.182437) scale(0.1 -0.1)">
       <defs>
        <path id="DejaVuSans-35" d="M 691 4666 
L 3169 4666 
L 3169 4134 
L 1269 4134 
L 1269 2991 
Q 1406 3038 1543 3061 
Q 1681 3084 1819 3084 
Q 2600 3084 3056 2656 
Q 3513 2228 3513 1497 
Q 3513 744 3044 326 
Q 2575 -91 1722 -91 
Q 1428 -91 1123 -41 
Q 819 9 494 109 
L 494 744 
Q 775 591 1075 516 
Q 1375 441 1709 441 
Q 2250 441 2565 725 
Q 2881 1009 2881 1497 
Q 2881 1984 2565 2268 
Q 2250 2553 1709 2553 
Q 1456 2553 1204 2497 
Q 953 2441 691 2322 
L 691 4666 
z
" transform="scale(0.015625)"/>
       </defs>
       <use xlink:href="#DejaVuSans-35"/>
       <use xlink:href="#DejaVuSans-30" x="63.623047"/>
      </g>
     </g>
    </g>
    <g id="text_7">
     <!-- Generations -->
     <g transform="translate(205.662344 335.860562) scale(0.1 -0.1)">
      <defs>
       <path id="DejaVuSans-47" d="M 3809 666 
L 3809 1919 
L 2778 1919 
L 2778 2438 
L 4434 2438 
L 4434 434 
Q 4069 175 3628 42 
Q 3188 -91 2688 -91 
Q 1594 -91 976 548 
Q 359 1188 359 2328 
Q 359 3472 976 4111 
Q 1594 4750 2688 4750 
Q 3144 4750 3555 4637 
Q 3966 4525 4313 4306 
L 4313 3634 
Q 3963 3931 3569 4081 
Q 3175 4231 2741 4231 
Q 1884 4231 1454 3753 
Q 1025 3275 1025 2328 
Q 1025 1384 1454 906 
Q 1884 428 2741 428 
Q 3075 428 3337 486 
Q 3600 544 3809 666 
z
" transform="scale(0.015625)"/>
       <path id="DejaVuSans-65" d="M 3597 1894 
L 3597 1613 
L 953 1613 
Q 991 1019 1311 708 
Q 1631 397 2203 397 
Q 2534 397 2845 478 
Q 3156 559 3463 722 
L 3463 178 
Q 3153 47 2828 -22 
Q 2503 -91 2169 -91 
Q 1331 -91 842 396 
Q 353 884 353 1716 
Q 353 2575 817 3079 
Q 1281 3584 2069 3584 
Q 2775 3584 3186 3129 
Q 3597 2675 3597 1894 
z
M 3022 2063 
Q 3016 2534 2758 2815 
Q 2500 3097 2075 3097 
Q 1594 3097 1305 2825 
Q 1016 2553 972 2059 
L 3022 2063 
z
" transform="scale(0.015625)"/>
       <path id="DejaVuSans-6e" d="M 3513 2113 
L 3513 0 
L 2938 0 
L 2938 2094 
Q 2938 2591 2744 2837 
Q 2550 3084 2163 3084 
Q 1697 3084 1428 2787 
Q 1159 2491 1159 1978 
L 1159 0 
L 581 0 
L 581 3500 
L 1159 3500 
L 1159 2956 
Q 1366 3272 1645 3428 
Q 1925 3584 2291 3584 
Q 2894 3584 3203 3211 
Q 3513 2838 3513 2113 
z
" transform="scale(0.015625)"/>
       <path id="DejaVuSans-72" d="M 2631 2963 
Q 2534 3019 2420 3045 
Q 2306 3072 2169 3072 
Q 1681 3072 1420 2755 
Q 1159 2438 1159 1844 
L 1159 0 
L 581 0 
L 581 3500 
L 1159 3500 
L 1159 2956 
Q 1341 3275 1631 3429 
Q 1922 3584 2338 3584 
Q 2397 3584 2469 3576 
Q 2541 3569 2628 3553 
L 2631 2963 
z
" transform="scale(0.015625)"/>
       <path id="DejaVuSans-61" d="M 2194 1759 
Q 1497 1759 1228 1600 
Q 959 1441 959 1056 
Q 959 750 1161 570 
Q 1363 391 1709 391 
Q 2188 391 2477 730 
Q 2766 1069 2766 1631 
L 2766 1759 
L 2194 1759 
z
M 3341 1997 
L 3341 0 
L 2766 0 
L 2766 531 
Q 2569 213 2275 61 
Q 1981 -91 1556 -91 
Q 1019 -91 701 211 
Q 384 513 384 1019 
Q 384 1609 779 1909 
Q 1175 2209 1959 2209 
L 2766 2209 
L 2766 2266 
Q 2766 2663 2505 2880 
Q 2244 3097 1772 3097 
Q 1472 3097 1187 3025 
Q 903 2953 641 2809 
L 641 3341 
Q 956 3463 1253 3523 
Q 1550 3584 1831 3584 
Q 2591 3584 2966 3190 
Q 3341 2797 3341 1997 
z
" transform="scale(0.015625)"/>
       <path id="DejaVuSans-74" d="M 1172 4494 
L 1172 3500 
L 2356 3500 
L 2356 3053 
L 1172 3053 
L 1172 1153 
Q 1172 725 1289 603 
Q 1406 481 1766 481 
L 2356 481 
L 2356 0 
L 1766 0 
Q 1100 0 847 248 
Q 594 497 594 1153 
L 594 3053 
L 172 3053 
L 172 3500 
L 594 3500 
L 594 4494 
L 1172 4494 
z
" transform="scale(0.015625)"/>
       <path id="DejaVuSans-69" d="M 603 3500 
L 1178 3500 
L 1178 0 
L 603 0 
L 603 3500 
z
M 603 4863 
L 1178 4863 
L 1178 4134 
L 603 4134 
L 603 4863 
z
" transform="scale(0.015625)"/>
       <path id="DejaVuSans-6f" d="M 1959 3097 
Q 1497 3097 1228 2736 
Q 959 2375 959 1747 
Q 959 1119 1226 758 
Q 1494 397 1959 397 
Q 2419 397 2687 759 
Q 2956 1122 2956 1747 
Q 2956 2369 2687 2733 
Q 2419 3097 1959 3097 
z
M 1959 3584 
Q 2709 3584 3137 3096 
Q 3566 2609 3566 1747 
Q 3566 888 3137 398 
Q 2709 -91 1959 -91 
Q 1206 -91 779 398 
Q 353 888 353 1747 
Q 353 2609 779 3096 
Q 1206 3584 1959 3584 
z
" transform="scale(0.015625)"/>
       <path id="DejaVuSans-73" d="M 2834 3397 
L 2834 2853 
Q 2591 2978 2328 3040 
Q 2066 3103 1784 3103 
Q 1356 3103 1142 2972 
Q 928 2841 928 2578 
Q 928 2378 1081 2264 
Q 1234 2150 1697 2047 
L 1894 2003 
Q 2506 1872 2764 1633 
Q 3022 1394 3022 966 
Q 3022 478 2636 193 
Q 2250 -91 1575 -91 
Q 1294 -91 989 -36 
Q 684 19 347 128 
L 347 722 
Q 666 556 975 473 
Q 1284 391 1588 391 
Q 1994 391 2212 530 
Q 2431 669 2431 922 
Q 2431 1156 2273 1281 
Q 2116 1406 1581 1522 
L 1381 1569 
Q 847 1681 609 1914 
Q 372 2147 372 2553 
Q 372 3047 722 3315 
Q 1072 3584 1716 3584 
Q 2034 3584 2315 3537 
Q 2597 3491 2834 3397 
z
" transform="scale(0.015625)"/>
      </defs>
      <use xlink:href="#DejaVuSans-47"/>
      <use xlink:href="#DejaVuSans-65" x="77.490234"/>
      <use xlink:href="#DejaVuSans-6e" x="139.013672"/>
      <use xlink:href="#DejaVuSans-65" x="202.392578"/>
      <use xlink:href="#DejaVuSans-72" x="263.916016"/>
      <use xlink:href="#DejaVuSans-61" x="305.029297"/>
      <use xlink:href="#DejaVuSans-74" x="366.308594"/>
      <use xlink:href="#DejaVuSans-69" x="405.517578"/>
      <use xlink:href="#DejaVuSans-6f" x="433.300781"/>
      <use xlink:href="#DejaVuSans-6e" x="494.482422"/>
      <use xlink:href="#DejaVuSans-73" x="557.861328"/>
     </g>
    </g>
   </g>
   <g id="matplotlib.axis_2">
    <g id="ytick_1">
     <g id="line2d_7">
      <defs>
       <path id="m598c3bf2e5" d="M 0 0 
L -3.5 0 
" style="stroke: #000000; stroke-width: 0.8"/>
      </defs>
      <g>
       <use xlink:href="#m598c3bf2e5" x="57.6" y="307.584" style="stroke: #000000; stroke-width: 0.8"/>
      </g>
     </g>
     <g id="text_8">
      <!-- 0 -->
      <g transform="translate(44.2375 311.383219) scale(0.1 -0.1)">
       <use xlink:href="#DejaVuSans-30"/>
      </g>
     </g>
    </g>
    <g id="ytick_2">
     <g id="line2d_8">
      <g>
       <use xlink:href="#m598c3bf2e5" x="57.6" y="276.975304" style="stroke: #000000; stroke-width: 0.8"/>
      </g>
     </g>
     <g id="text_9">
      <!-- 25 -->
      <g transform="translate(37.875 280.774523) scale(0.1 -0.1)">
       <use xlink:href="#DejaVuSans-32"/>
       <use xlink:href="#DejaVuSans-35" x="63.623047"/>
      </g>
     </g>
    </g>
    <g id="ytick_3">
     <g id="line2d_9">
      <g>
       <use xlink:href="#m598c3bf2e5" x="57.6" y="246.366609" style="stroke: #000000; stroke-width: 0.8"/>
      </g>
     </g>
     <g id="text_10">
      <!-- 50 -->
      <g transform="translate(37.875 250.165827) scale(0.1 -0.1)">
       <use xlink:href="#DejaVuSans-35"/>
       <use xlink:href="#DejaVuSans-30" x="63.623047"/>
      </g>
     </g>
    </g>
    <g id="ytick_4">
     <g id="line2d_10">
      <g>
       <use xlink:href="#m598c3bf2e5" x="57.6" y="215.757913" style="stroke: #000000; stroke-width: 0.8"/>
      </g>
     </g>
     <g id="text_11">
      <!-- 75 -->
      <g transform="translate(37.875 219.557132) scale(0.1 -0.1)">
       <defs>
        <path id="DejaVuSans-37" d="M 525 4666 
L 3525 4666 
L 3525 4397 
L 1831 0 
L 1172 0 
L 2766 4134 
L 525 4134 
L 525 4666 
z
" transform="scale(0.015625)"/>
       </defs>
       <use xlink:href="#DejaVuSans-37"/>
       <use xlink:href="#DejaVuSans-35" x="63.623047"/>
      </g>
     </g>
    </g>
    <g id="ytick_5">
     <g id="line2d_11">
      <g>
       <use xlink:href="#m598c3bf2e5" x="57.6" y="185.149217" style="stroke: #000000; stroke-width: 0.8"/>
      </g>
     </g>
     <g id="text_12">
      <!-- 100 -->
      <g transform="translate(31.5125 188.948436) scale(0.1 -0.1)">
       <use xlink:href="#DejaVuSans-31"/>
       <use xlink:href="#DejaVuSans-30" x="63.623047"/>
       <use xlink:href="#DejaVuSans-30" x="127.246094"/>
      </g>
     </g>
    </g>
    <g id="ytick_6">
     <g id="line2d_12">
      <g>
       <use xlink:href="#m598c3bf2e5" x="57.6" y="154.540522" style="stroke: #000000; stroke-width: 0.8"/>
      </g>
     </g>
     <g id="text_13">
      <!-- 125 -->
      <g transform="translate(31.5125 158.33974) scale(0.1 -0.1)">
       <use xlink:href="#DejaVuSans-31"/>
       <use xlink:href="#DejaVuSans-32" x="63.623047"/>
       <use xlink:href="#DejaVuSans-35" x="127.246094"/>
      </g>
     </g>
    </g>
    <g id="ytick_7">
     <g id="line2d_13">
      <g>
       <use xlink:href="#m598c3bf2e5" x="57.6" y="123.931826" style="stroke: #000000; stroke-width: 0.8"/>
      </g>
     </g>
     <g id="text_14">
      <!-- 150 -->
      <g transform="translate(31.5125 127.731045) scale(0.1 -0.1)">
       <use xlink:href="#DejaVuSans-31"/>
       <use xlink:href="#DejaVuSans-35" x="63.623047"/>
       <use xlink:href="#DejaVuSans-30" x="127.246094"/>
      </g>
     </g>
    </g>
    <g id="ytick_8">
     <g id="line2d_14">
      <g>
       <use xlink:href="#m598c3bf2e5" x="57.6" y="93.32313" style="stroke: #000000; stroke-width: 0.8"/>
      </g>
     </g>
     <g id="text_15">
      <!-- 175 -->
      <g transform="translate(31.5125 97.122349) scale(0.1 -0.1)">
       <use xlink:href="#DejaVuSans-31"/>
       <use xlink:href="#DejaVuSans-37" x="63.623047"/>
       <use xlink:href="#DejaVuSans-35" x="127.246094"/>
      </g>
     </g>
    </g>
    <g id="ytick_9">
     <g id="line2d_15">
      <g>
       <use xlink:href="#m598c3bf2e5" x="57.6" y="62.714435" style="stroke: #000000; stroke-width: 0.8"/>
      </g>
     </g>
     <g id="text_16">
      <!-- 200 -->
      <g transform="translate(31.5125 66.513654) scale(0.1 -0.1)">
       <use xlink:href="#DejaVuSans-32"/>
       <use xlink:href="#DejaVuSans-30" x="63.623047"/>
       <use xlink:href="#DejaVuSans-30" x="127.246094"/>
      </g>
     </g>
    </g>
    <g id="text_17">
     <!-- Size per Species -->
     <g transform="translate(25.432812 215.520969) rotate(-90) scale(0.1 -0.1)">
      <defs>
       <path id="DejaVuSans-53" d="M 3425 4513 
L 3425 3897 
Q 3066 4069 2747 4153 
Q 2428 4238 2131 4238 
Q 1616 4238 1336 4038 
Q 1056 3838 1056 3469 
Q 1056 3159 1242 3001 
Q 1428 2844 1947 2747 
L 2328 2669 
Q 3034 2534 3370 2195 
Q 3706 1856 3706 1288 
Q 3706 609 3251 259 
Q 2797 -91 1919 -91 
Q 1588 -91 1214 -16 
Q 841 59 441 206 
L 441 856 
Q 825 641 1194 531 
Q 1563 422 1919 422 
Q 2459 422 2753 634 
Q 3047 847 3047 1241 
Q 3047 1584 2836 1778 
Q 2625 1972 2144 2069 
L 1759 2144 
Q 1053 2284 737 2584 
Q 422 2884 422 3419 
Q 422 4038 858 4394 
Q 1294 4750 2059 4750 
Q 2388 4750 2728 4690 
Q 3069 4631 3425 4513 
z
" transform="scale(0.015625)"/>
       <path id="DejaVuSans-7a" d="M 353 3500 
L 3084 3500 
L 3084 2975 
L 922 459 
L 3084 459 
L 3084 0 
L 275 0 
L 275 525 
L 2438 3041 
L 353 3041 
L 353 3500 
z
" transform="scale(0.015625)"/>
       <path id="DejaVuSans-20" transform="scale(0.015625)"/>
       <path id="DejaVuSans-70" d="M 1159 525 
L 1159 -1331 
L 581 -1331 
L 581 3500 
L 1159 3500 
L 1159 2969 
Q 1341 3281 1617 3432 
Q 1894 3584 2278 3584 
Q 2916 3584 3314 3078 
Q 3713 2572 3713 1747 
Q 3713 922 3314 415 
Q 2916 -91 2278 -91 
Q 1894 -91 1617 61 
Q 1341 213 1159 525 
z
M 3116 1747 
Q 3116 2381 2855 2742 
Q 2594 3103 2138 3103 
Q 1681 3103 1420 2742 
Q 1159 2381 1159 1747 
Q 1159 1113 1420 752 
Q 1681 391 2138 391 
Q 2594 391 2855 752 
Q 3116 1113 3116 1747 
z
" transform="scale(0.015625)"/>
       <path id="DejaVuSans-63" d="M 3122 3366 
L 3122 2828 
Q 2878 2963 2633 3030 
Q 2388 3097 2138 3097 
Q 1578 3097 1268 2742 
Q 959 2388 959 1747 
Q 959 1106 1268 751 
Q 1578 397 2138 397 
Q 2388 397 2633 464 
Q 2878 531 3122 666 
L 3122 134 
Q 2881 22 2623 -34 
Q 2366 -91 2075 -91 
Q 1284 -91 818 406 
Q 353 903 353 1747 
Q 353 2603 823 3093 
Q 1294 3584 2113 3584 
Q 2378 3584 2631 3529 
Q 2884 3475 3122 3366 
z
" transform="scale(0.015625)"/>
      </defs>
      <use xlink:href="#DejaVuSans-53"/>
      <use xlink:href="#DejaVuSans-69" x="63.476562"/>
      <use xlink:href="#DejaVuSans-7a" x="91.259766"/>
      <use xlink:href="#DejaVuSans-65" x="143.75"/>
      <use xlink:href="#DejaVuSans-20" x="205.273438"/>
      <use xlink:href="#DejaVuSans-70" x="237.060547"/>
      <use xlink:href="#DejaVuSans-65" x="300.537109"/>
      <use xlink:href="#DejaVuSans-72" x="362.060547"/>
      <use xlink:href="#DejaVuSans-20" x="403.173828"/>
      <use xlink:href="#DejaVuSans-53" x="434.960938"/>
      <use xlink:href="#DejaVuSans-70" x="498.4375"/>
      <use xlink:href="#DejaVuSans-65" x="561.914062"/>
      <use xlink:href="#DejaVuSans-63" x="623.4375"/>
      <use xlink:href="#DejaVuSans-69" x="678.417969"/>
      <use xlink:href="#DejaVuSans-65" x="706.201172"/>
      <use xlink:href="#DejaVuSans-73" x="767.724609"/>
     </g>
    </g>
   </g>
   <g id="patch_3">
    <path d="M 57.6 307.584 
L 57.6 41.472 
" style="fill: none; stroke: #000000; stroke-width: 0.8; stroke-linejoin: miter; stroke-linecap: square"/>
   </g>
   <g id="patch_4">
    <path d="M 414.72 307.584 
L 414.72 41.472 
" style="fill: none; stroke: #000000; stroke-width: 0.8; stroke-linejoin: miter; stroke-linecap: square"/>
   </g>
   <g id="patch_5">
    <path d="M 57.6 307.584 
L 414.72 307.584 
" style="fill: none; stroke: #000000; stroke-width: 0.8; stroke-linejoin: miter; stroke-linecap: square"/>
   </g>
   <g id="patch_6">
    <path d="M 57.6 41.472 
L 414.72 41.472 
" style="fill: none; stroke: #000000; stroke-width: 0.8; stroke-linejoin: miter; stroke-linecap: square"/>
   </g>
   <g id="text_18">
    <!-- Speciation -->
    <g transform="translate(204.714375 35.472) scale(0.12 -0.12)">
     <use xlink:href="#DejaVuSans-53"/>
     <use xlink:href="#DejaVuSans-70" x="63.476562"/>
     <use xlink:href="#DejaVuSans-65" x="126.953125"/>
     <use xlink:href="#DejaVuSans-63" x="188.476562"/>
     <use xlink:href="#DejaVuSans-69" x="243.457031"/>
     <use xlink:href="#DejaVuSans-61" x="271.240234"/>
     <use xlink:href="#DejaVuSans-74" x="332.519531"/>
     <use xlink:href="#DejaVuSans-69" x="371.728516"/>
     <use xlink:href="#DejaVuSans-6f" x="399.511719"/>
     <use xlink:href="#DejaVuSans-6e" x="460.693359"/>
    </g>
   </g>
  </g>
 </g>
 <defs>
  <clipPath id="p28fe8f34f2">
   <rect x="57.6" y="41.472" width="357.12" height="266.112"/>
  </clipPath>
 </defs>
</svg>
