<?xml version="1.0" encoding="utf-8" standalone="no"?>
<!DOCTYPE svg PUBLIC "-//W3C//DTD SVG 1.1//EN"
  "http://www.w3.org/Graphics/SVG/1.1/DTD/svg11.dtd">
<svg xmlns:xlink="http://www.w3.org/1999/xlink" width="460.8pt" height="345.6pt" viewBox="0 0 460.8 345.6" xmlns="http://www.w3.org/2000/svg" version="1.1">
 <metadata>
  <rdf:RDF xmlns:dc="http://purl.org/dc/elements/1.1/" xmlns:cc="http://creativecommons.org/ns#" xmlns:rdf="http://www.w3.org/1999/02/22-rdf-syntax-ns#">
   <cc:Work>
    <dc:type rdf:resource="http://purl.org/dc/dcmitype/StillImage"/>
    <dc:date>2024-08-10T00:58:21.964267</dc:date>
    <dc:format>image/svg+xml</dc:format>
    <dc:creator>
     <cc:Agent>
      <dc:title>Matplotlib v3.8.4, https://matplotlib.org/</dc:title>
     </cc:Agent>
    </dc:creator>
   </cc:Work>
  </rdf:RDF>
 </metadata>
 <defs>
  <style type="text/css">*{stroke-linejoin: round; stroke-linecap: butt}</style>
 </defs>
 <g id="figure_1">
  <g id="patch_1">
   <path d="M 0 345.6 
L 460.8 345.6 
L 460.8 0 
L 0 0 
z
" style="fill: #ffffff"/>
  </g>
  <g id="axes_1">
   <g id="patch_2">
    <path d="M 57.6 307.584 
L 414.72 307.584 
L 414.72 41.472 
L 57.6 41.472 
z
" style="fill: #ffffff"/>
   </g>
   <g id="PolyCollection_1">
    <path d="M 73.832727 200.741647 
L 73.832727 307.584 
L 80.45833 307.584 
L 87.083933 307.584 
L 93.709536 307.584 
L 100.335139 307.584 
L 106.960742 307.584 
L 113.586345 307.584 
L 120.211948 307.584 
L 126.837551 307.584 
L 133.463154 307.584 
L 140.088757 307.584 
L 146.71436 307.584 
L 153.339963 307.584 
L 159.965566 307.584 
L 166.591169 307.584 
L 173.216772 307.584 
L 179.842375 307.584 
L 186.467978 307.584 
L 193.093581 307.584 
L 199.719184 307.584 
L 206.344787 307.584 
L 212.97039 307.584 
L 219.595993 307.584 
L 226.221596 307.584 
L 232.847199 307.584 
L 239.472801 307.584 
L 246.098404 307.584 
L 252.724007 307.584 
L 259.34961 307.584 
L 265.975213 307.584 
L 272.600816 307.584 
L 279.226419 307.584 
L 285.852022 307.584 
L 292.477625 307.584 
L 299.103228 307.584 
L 305.728831 307.584 
L 312.354434 307.584 
L 318.980037 307.584 
L 325.60564 307.584 
L 332.231243 307.584 
L 338.856846 307.584 
L 345.482449 307.584 
L 352.108052 307.584 
L 358.733655 307.584 
L 365.359258 307.584 
L 371.984861 307.584 
L 378.610464 307.584 
L 385.236067 307.584 
L 391.86167 307.584 
L 398.487273 307.584 
L 398.487273 262.859294 
L 398.487273 262.859294 
L 391.86167 286.464 
L 385.236067 290.191059 
L 378.610464 231.800471 
L 371.984861 262.859294 
L 365.359258 234.285176 
L 358.733655 204.468706 
L 352.108052 259.132235 
L 345.482449 266.586353 
L 338.856846 269.071059 
L 332.231243 262.859294 
L 325.60564 170.925176 
L 318.980037 269.071059 
L 312.354434 295.160471 
L 305.728831 274.040471 
L 299.103228 285.221647 
L 292.477625 295.160471 
L 285.852022 219.376941 
L 279.226419 286.464 
L 272.600816 288.948706 
L 265.975213 283.979294 
L 259.34961 285.221647 
L 252.724007 298.887529 
L 246.098404 293.918118 
L 239.472801 274.040471 
L 232.847199 260.374588 
L 226.221596 246.708706 
L 219.595993 290.191059 
L 212.97039 255.405176 
L 206.344787 285.221647 
L 199.719184 281.494588 
L 193.093581 290.191059 
L 186.467978 301.372235 
L 179.842375 285.221647 
L 173.216772 293.918118 
L 166.591169 285.221647 
L 159.965566 267.828706 
L 153.339963 269.071059 
L 146.71436 261.616941 
L 140.088757 277.767529 
L 133.463154 245.466353 
L 126.837551 288.948706 
L 120.211948 252.920471 
L 113.586345 279.009882 
L 106.960742 281.494588 
L 100.335139 267.828706 
L 93.709536 283.979294 
L 87.083933 250.435765 
L 80.45833 231.800471 
L 73.832727 200.741647 
z
" clip-path="url(#p54c9d5a8be)" style="fill: #1f77b4"/>
   </g>
   <g id="PolyCollection_2">
    <path d="M 73.832727 162.228706 
L 73.832727 200.741647 
L 80.45833 231.800471 
L 87.083933 250.435765 
L 93.709536 283.979294 
L 100.335139 267.828706 
L 106.960742 281.494588 
L 113.586345 279.009882 
L 120.211948 252.920471 
L 126.837551 288.948706 
L 133.463154 245.466353 
L 140.088757 277.767529 
L 146.71436 261.616941 
L 153.339963 269.071059 
L 159.965566 267.828706 
L 166.591169 285.221647 
L 173.216772 293.918118 
L 179.842375 285.221647 
L 186.467978 301.372235 
L 193.093581 290.191059 
L 199.719184 281.494588 
L 206.344787 285.221647 
L 212.97039 255.405176 
L 219.595993 290.191059 
L 226.221596 246.708706 
L 232.847199 260.374588 
L 239.472801 274.040471 
L 246.098404 293.918118 
L 252.724007 298.887529 
L 259.34961 285.221647 
L 265.975213 283.979294 
L 272.600816 288.948706 
L 279.226419 286.464 
L 285.852022 219.376941 
L 292.477625 295.160471 
L 299.103228 285.221647 
L 305.728831 274.040471 
L 312.354434 295.160471 
L 318.980037 269.071059 
L 325.60564 170.925176 
L 332.231243 262.859294 
L 338.856846 269.071059 
L 345.482449 266.586353 
L 352.108052 259.132235 
L 358.733655 204.468706 
L 365.359258 234.285176 
L 371.984861 262.859294 
L 378.610464 231.800471 
L 385.236067 290.191059 
L 391.86167 286.464 
L 398.487273 262.859294 
L 398.487273 262.859294 
L 398.487273 262.859294 
L 391.86167 224.346353 
L 385.236067 201.984 
L 378.610464 188.318118 
L 371.984861 216.892235 
L 365.359258 189.560471 
L 358.733655 169.682824 
L 352.108052 224.346353 
L 345.482449 242.981647 
L 338.856846 187.075765 
L 332.231243 219.376941 
L 325.60564 152.289882 
L 318.980037 224.346353 
L 312.354434 175.894588 
L 305.728831 256.647529 
L 299.103228 261.616941 
L 292.477625 169.682824 
L 285.852022 192.045176 
L 279.226419 269.071059 
L 272.600816 230.558118 
L 265.975213 266.586353 
L 259.34961 266.586353 
L 252.724007 206.953412 
L 246.098404 276.525176 
L 239.472801 247.951059 
L 232.847199 225.588706 
L 226.221596 208.195765 
L 219.595993 271.555765 
L 212.97039 210.680471 
L 206.344787 257.889882 
L 199.719184 262.859294 
L 193.093581 270.313412 
L 186.467978 286.464 
L 179.842375 282.736941 
L 173.216772 264.101647 
L 166.591169 269.071059 
L 159.965566 239.254588 
L 153.339963 245.466353 
L 146.71436 240.496941 
L 140.088757 259.132235 
L 133.463154 221.861647 
L 126.837551 265.344 
L 120.211948 230.558118 
L 113.586345 256.647529 
L 106.960742 260.374588 
L 100.335139 251.678118 
L 93.709536 261.616941 
L 87.083933 224.346353 
L 80.45833 194.529882 
L 73.832727 162.228706 
z
" clip-path="url(#p54c9d5a8be)" style="fill: #ff7f0e"/>
   </g>
   <g id="PolyCollection_3">
    <path d="M 73.832727 149.805176 
L 73.832727 162.228706 
L 80.45833 194.529882 
L 87.083933 224.346353 
L 93.709536 261.616941 
L 100.335139 251.678118 
L 106.960742 260.374588 
L 113.586345 256.647529 
L 120.211948 230.558118 
L 126.837551 265.344 
L 133.463154 221.861647 
L 140.088757 259.132235 
L 146.71436 240.496941 
L 153.339963 245.466353 
L 159.965566 239.254588 
L 166.591169 269.071059 
L 173.216772 264.101647 
L 179.842375 282.736941 
L 186.467978 286.464 
L 193.093581 270.313412 
L 199.719184 262.859294 
L 206.344787 257.889882 
L 212.97039 210.680471 
L 219.595993 271.555765 
L 226.221596 208.195765 
L 232.847199 225.588706 
L 239.472801 247.951059 
L 246.098404 276.525176 
L 252.724007 206.953412 
L 259.34961 266.586353 
L 265.975213 266.586353 
L 272.600816 230.558118 
L 279.226419 269.071059 
L 285.852022 192.045176 
L 292.477625 169.682824 
L 299.103228 261.616941 
L 305.728831 256.647529 
L 312.354434 175.894588 
L 318.980037 224.346353 
L 325.60564 152.289882 
L 332.231243 219.376941 
L 338.856846 187.075765 
L 345.482449 242.981647 
L 352.108052 224.346353 
L 358.733655 169.682824 
L 365.359258 189.560471 
L 371.984861 216.892235 
L 378.610464 188.318118 
L 385.236067 201.984 
L 391.86167 224.346353 
L 398.487273 262.859294 
L 398.487273 262.859294 
L 398.487273 262.859294 
L 391.86167 224.346353 
L 385.236067 201.984 
L 378.610464 188.318118 
L 371.984861 216.892235 
L 365.359258 189.560471 
L 358.733655 169.682824 
L 352.108052 224.346353 
L 345.482449 242.981647 
L 338.856846 187.075765 
L 332.231243 219.376941 
L 325.60564 152.289882 
L 318.980037 224.346353 
L 312.354434 175.894588 
L 305.728831 208.195765 
L 299.103228 219.376941 
L 292.477625 154.774588 
L 285.852022 179.621647 
L 279.226419 259.132235 
L 272.600816 203.226353 
L 265.975213 256.647529 
L 259.34961 250.435765 
L 252.724007 188.318118 
L 246.098404 245.466353 
L 239.472801 229.315765 
L 232.847199 200.741647 
L 226.221596 194.529882 
L 219.595993 256.647529 
L 212.97039 194.529882 
L 206.344787 229.315765 
L 199.719184 254.162824 
L 193.093581 245.466353 
L 186.467978 267.828706 
L 179.842375 265.344 
L 173.216772 252.920471 
L 166.591169 221.861647 
L 159.965566 216.892235 
L 153.339963 226.831059 
L 146.71436 215.649882 
L 140.088757 245.466353 
L 133.463154 199.499294 
L 126.837551 239.254588 
L 120.211948 213.165176 
L 113.586345 242.981647 
L 106.960742 240.496941 
L 100.335139 229.315765 
L 93.709536 242.981647 
L 87.083933 210.680471 
L 80.45833 182.106353 
L 73.832727 149.805176 
z
" clip-path="url(#p54c9d5a8be)" style="fill: #2ca02c"/>
   </g>
   <g id="PolyCollection_4">
    <path d="M 73.832727 121.231059 
L 73.832727 149.805176 
L 80.45833 182.106353 
L 87.083933 210.680471 
L 93.709536 242.981647 
L 100.335139 229.315765 
L 106.960742 240.496941 
L 113.586345 242.981647 
L 120.211948 213.165176 
L 126.837551 239.254588 
L 133.463154 199.499294 
L 140.088757 245.466353 
L 146.71436 215.649882 
L 153.339963 226.831059 
L 159.965566 216.892235 
L 166.591169 221.861647 
L 173.216772 252.920471 
L 179.842375 265.344 
L 186.467978 267.828706 
L 193.093581 245.466353 
L 199.719184 254.162824 
L 206.344787 229.315765 
L 212.97039 194.529882 
L 219.595993 256.647529 
L 226.221596 194.529882 
L 232.847199 200.741647 
L 239.472801 229.315765 
L 246.098404 245.466353 
L 252.724007 188.318118 
L 259.34961 250.435765 
L 265.975213 256.647529 
L 272.600816 203.226353 
L 279.226419 259.132235 
L 285.852022 179.621647 
L 292.477625 154.774588 
L 299.103228 219.376941 
L 305.728831 208.195765 
L 312.354434 175.894588 
L 318.980037 224.346353 
L 325.60564 152.289882 
L 332.231243 219.376941 
L 338.856846 187.075765 
L 345.482449 242.981647 
L 352.108052 224.346353 
L 358.733655 169.682824 
L 365.359258 189.560471 
L 371.984861 216.892235 
L 378.610464 188.318118 
L 385.236067 201.984 
L 391.86167 224.346353 
L 398.487273 262.859294 
L 398.487273 262.859294 
L 398.487273 262.859294 
L 391.86167 224.346353 
L 385.236067 201.984 
L 378.610464 188.318118 
L 371.984861 216.892235 
L 365.359258 189.560471 
L 358.733655 169.682824 
L 352.108052 224.346353 
L 345.482449 242.981647 
L 338.856846 187.075765 
L 332.231243 219.376941 
L 325.60564 152.289882 
L 318.980037 224.346353 
L 312.354434 175.894588 
L 305.728831 208.195765 
L 299.103228 219.376941 
L 292.477625 154.774588 
L 285.852022 179.621647 
L 279.226419 238.012235 
L 272.600816 183.348706 
L 265.975213 234.285176 
L 259.34961 228.073412 
L 252.724007 179.621647 
L 246.098404 224.346353 
L 239.472801 210.680471 
L 232.847199 194.529882 
L 226.221596 167.198118 
L 219.595993 221.861647 
L 212.97039 180.864 
L 206.344787 210.680471 
L 199.719184 241.739294 
L 193.093581 190.802824 
L 186.467978 262.859294 
L 179.842375 240.496941 
L 173.216772 233.042824 
L 166.591169 206.953412 
L 159.965566 203.226353 
L 153.339963 208.195765 
L 146.71436 194.529882 
L 140.088757 231.800471 
L 133.463154 187.075765 
L 126.837551 172.167529 
L 120.211948 187.075765 
L 113.586345 219.376941 
L 106.960742 199.499294 
L 100.335139 200.741647 
L 93.709536 224.346353 
L 87.083933 173.409882 
L 80.45833 165.955765 
L 73.832727 121.231059 
z
" clip-path="url(#p54c9d5a8be)" style="fill: #d62728"/>
   </g>
   <g id="PolyCollection_5">
    <path d="M 73.832727 90.172235 
L 73.832727 121.231059 
L 80.45833 165.955765 
L 87.083933 173.409882 
L 93.709536 224.346353 
L 100.335139 200.741647 
L 106.960742 199.499294 
L 113.586345 219.376941 
L 120.211948 187.075765 
L 126.837551 172.167529 
L 133.463154 187.075765 
L 140.088757 231.800471 
L 146.71436 194.529882 
L 153.339963 208.195765 
L 159.965566 203.226353 
L 166.591169 206.953412 
L 173.216772 233.042824 
L 179.842375 240.496941 
L 186.467978 262.859294 
L 193.093581 190.802824 
L 199.719184 241.739294 
L 206.344787 210.680471 
L 212.97039 180.864 
L 219.595993 221.861647 
L 226.221596 167.198118 
L 232.847199 194.529882 
L 239.472801 210.680471 
L 246.098404 224.346353 
L 252.724007 179.621647 
L 259.34961 228.073412 
L 265.975213 234.285176 
L 272.600816 183.348706 
L 279.226419 238.012235 
L 285.852022 179.621647 
L 292.477625 154.774588 
L 299.103228 219.376941 
L 305.728831 208.195765 
L 312.354434 175.894588 
L 318.980037 224.346353 
L 325.60564 152.289882 
L 332.231243 219.376941 
L 338.856846 187.075765 
L 345.482449 242.981647 
L 352.108052 224.346353 
L 358.733655 169.682824 
L 365.359258 189.560471 
L 371.984861 216.892235 
L 378.610464 188.318118 
L 385.236067 201.984 
L 391.86167 224.346353 
L 398.487273 262.859294 
L 398.487273 262.859294 
L 398.487273 262.859294 
L 391.86167 224.346353 
L 385.236067 201.984 
L 378.610464 188.318118 
L 371.984861 216.892235 
L 365.359258 189.560471 
L 358.733655 169.682824 
L 352.108052 224.346353 
L 345.482449 242.981647 
L 338.856846 187.075765 
L 332.231243 219.376941 
L 325.60564 152.289882 
L 318.980037 224.346353 
L 312.354434 175.894588 
L 305.728831 208.195765 
L 299.103228 219.376941 
L 292.477625 154.774588 
L 285.852022 179.621647 
L 279.226419 238.012235 
L 272.600816 183.348706 
L 265.975213 234.285176 
L 259.34961 228.073412 
L 252.724007 179.621647 
L 246.098404 224.346353 
L 239.472801 210.680471 
L 232.847199 194.529882 
L 226.221596 146.078118 
L 219.595993 199.499294 
L 212.97039 162.228706 
L 206.344787 188.318118 
L 199.719184 225.588706 
L 193.093581 182.106353 
L 186.467978 174.652235 
L 179.842375 208.195765 
L 173.216772 214.407529 
L 166.591169 189.560471 
L 159.965566 187.075765 
L 153.339963 194.529882 
L 146.71436 184.591059 
L 140.088757 170.925176 
L 133.463154 169.682824 
L 126.837551 162.228706 
L 120.211948 163.471059 
L 113.586345 182.106353 
L 106.960742 168.440471 
L 100.335139 183.348706 
L 93.709536 172.167529 
L 87.083933 149.805176 
L 80.45833 138.624 
L 73.832727 90.172235 
z
" clip-path="url(#p54c9d5a8be)" style="fill: #9467bd"/>
   </g>
   <g id="PolyCollection_6">
    <path d="M 73.832727 86.445176 
L 73.832727 90.172235 
L 80.45833 138.624 
L 87.083933 149.805176 
L 93.709536 172.167529 
L 100.335139 183.348706 
L 106.960742 168.440471 
L 113.586345 182.106353 
L 120.211948 163.471059 
L 126.837551 162.228706 
L 133.463154 169.682824 
L 140.088757 170.925176 
L 146.71436 184.591059 
L 153.339963 194.529882 
L 159.965566 187.075765 
L 166.591169 189.560471 
L 173.216772 214.407529 
L 179.842375 208.195765 
L 186.467978 174.652235 
L 193.093581 182.106353 
L 199.719184 225.588706 
L 206.344787 188.318118 
L 212.97039 162.228706 
L 219.595993 199.499294 
L 226.221596 146.078118 
L 232.847199 194.529882 
L 239.472801 210.680471 
L 246.098404 224.346353 
L 252.724007 179.621647 
L 259.34961 228.073412 
L 265.975213 234.285176 
L 272.600816 183.348706 
L 279.226419 238.012235 
L 285.852022 179.621647 
L 292.477625 154.774588 
L 299.103228 219.376941 
L 305.728831 208.195765 
L 312.354434 175.894588 
L 318.980037 224.346353 
L 325.60564 152.289882 
L 332.231243 219.376941 
L 338.856846 187.075765 
L 345.482449 242.981647 
L 352.108052 224.346353 
L 358.733655 169.682824 
L 365.359258 189.560471 
L 371.984861 216.892235 
L 378.610464 188.318118 
L 385.236067 201.984 
L 391.86167 224.346353 
L 398.487273 262.859294 
L 398.487273 211.922824 
L 398.487273 211.922824 
L 391.86167 189.560471 
L 385.236067 175.894588 
L 378.610464 147.320471 
L 371.984861 173.409882 
L 365.359258 162.228706 
L 358.733655 144.835765 
L 352.108052 192.045176 
L 345.482449 185.833412 
L 338.856846 169.682824 
L 332.231243 180.864 
L 325.60564 146.078118 
L 318.980037 173.409882 
L 312.354434 167.198118 
L 305.728831 185.833412 
L 299.103228 184.591059 
L 292.477625 141.108706 
L 285.852022 159.744 
L 279.226419 213.165176 
L 272.600816 160.986353 
L 265.975213 211.922824 
L 259.34961 193.287529 
L 252.724007 163.471059 
L 246.098404 190.802824 
L 239.472801 188.318118 
L 232.847199 175.894588 
L 226.221596 141.108706 
L 219.595993 179.621647 
L 212.97039 154.774588 
L 206.344787 175.894588 
L 199.719184 208.195765 
L 193.093581 158.501647 
L 186.467978 147.320471 
L 179.842375 167.198118 
L 173.216772 183.348706 
L 166.591169 164.713412 
L 159.965566 173.409882 
L 153.339963 178.379294 
L 146.71436 163.471059 
L 140.088757 156.016941 
L 133.463154 154.774588 
L 126.837551 137.381647 
L 120.211948 152.289882 
L 113.586345 154.774588 
L 106.960742 152.289882 
L 100.335139 168.440471 
L 93.709536 139.866353 
L 87.083933 139.866353 
L 80.45833 132.412235 
L 73.832727 86.445176 
z
" clip-path="url(#p54c9d5a8be)" style="fill: #8c564b"/>
   </g>
   <g id="PolyCollection_7">
    <path d="M 73.832727 80.233412 
L 73.832727 86.445176 
L 80.45833 132.412235 
L 87.083933 139.866353 
L 93.709536 139.866353 
L 100.335139 168.440471 
L 106.960742 152.289882 
L 113.586345 154.774588 
L 120.211948 152.289882 
L 126.837551 137.381647 
L 133.463154 154.774588 
L 140.088757 156.016941 
L 146.71436 163.471059 
L 153.339963 178.379294 
L 159.965566 173.409882 
L 166.591169 164.713412 
L 173.216772 183.348706 
L 179.842375 167.198118 
L 186.467978 147.320471 
L 193.093581 158.501647 
L 199.719184 208.195765 
L 206.344787 175.894588 
L 212.97039 154.774588 
L 219.595993 179.621647 
L 226.221596 141.108706 
L 232.847199 175.894588 
L 239.472801 188.318118 
L 246.098404 190.802824 
L 252.724007 163.471059 
L 259.34961 193.287529 
L 265.975213 211.922824 
L 272.600816 160.986353 
L 279.226419 213.165176 
L 285.852022 159.744 
L 292.477625 141.108706 
L 299.103228 184.591059 
L 305.728831 185.833412 
L 312.354434 167.198118 
L 318.980037 173.409882 
L 325.60564 146.078118 
L 332.231243 180.864 
L 338.856846 169.682824 
L 345.482449 185.833412 
L 352.108052 192.045176 
L 358.733655 144.835765 
L 365.359258 162.228706 
L 371.984861 173.409882 
L 378.610464 147.320471 
L 385.236067 175.894588 
L 391.86167 189.560471 
L 398.487273 211.922824 
L 398.487273 211.922824 
L 398.487273 211.922824 
L 391.86167 189.560471 
L 385.236067 175.894588 
L 378.610464 147.320471 
L 371.984861 173.409882 
L 365.359258 162.228706 
L 358.733655 144.835765 
L 352.108052 192.045176 
L 345.482449 185.833412 
L 338.856846 169.682824 
L 332.231243 180.864 
L 325.60564 146.078118 
L 318.980037 173.409882 
L 312.354434 167.198118 
L 305.728831 185.833412 
L 299.103228 184.591059 
L 292.477625 141.108706 
L 285.852022 159.744 
L 279.226419 213.165176 
L 272.600816 160.986353 
L 265.975213 201.984 
L 259.34961 182.106353 
L 252.724007 151.047529 
L 246.098404 165.955765 
L 239.472801 164.713412 
L 232.847199 149.805176 
L 226.221596 128.685176 
L 219.595993 158.501647 
L 212.97039 141.108706 
L 206.344787 152.289882 
L 199.719184 190.802824 
L 193.093581 141.108706 
L 186.467978 132.412235 
L 179.842375 142.351059 
L 173.216772 165.955765 
L 166.591169 149.805176 
L 159.965566 154.774588 
L 153.339963 159.744 
L 146.71436 142.351059 
L 140.088757 138.624 
L 133.463154 136.139294 
L 126.837551 115.019294 
L 120.211948 133.654588 
L 113.586345 139.866353 
L 106.960742 124.958118 
L 100.335139 142.351059 
L 93.709536 110.049882 
L 87.083933 119.988706 
L 80.45833 107.565176 
L 73.832727 80.233412 
z
" clip-path="url(#p54c9d5a8be)" style="fill: #e377c2"/>
   </g>
   <g id="PolyCollection_8">
    <path d="M 73.832727 65.325176 
L 73.832727 80.233412 
L 80.45833 107.565176 
L 87.083933 119.988706 
L 93.709536 110.049882 
L 100.335139 142.351059 
L 106.960742 124.958118 
L 113.586345 139.866353 
L 120.211948 133.654588 
L 126.837551 115.019294 
L 133.463154 136.139294 
L 140.088757 138.624 
L 146.71436 142.351059 
L 153.339963 159.744 
L 159.965566 154.774588 
L 166.591169 149.805176 
L 173.216772 165.955765 
L 179.842375 142.351059 
L 186.467978 132.412235 
L 193.093581 141.108706 
L 199.719184 190.802824 
L 206.344787 152.289882 
L 212.97039 141.108706 
L 219.595993 158.501647 
L 226.221596 128.685176 
L 232.847199 149.805176 
L 239.472801 164.713412 
L 246.098404 165.955765 
L 252.724007 151.047529 
L 259.34961 182.106353 
L 265.975213 201.984 
L 272.600816 160.986353 
L 279.226419 213.165176 
L 285.852022 159.744 
L 292.477625 141.108706 
L 299.103228 184.591059 
L 305.728831 185.833412 
L 312.354434 167.198118 
L 318.980037 173.409882 
L 325.60564 146.078118 
L 332.231243 180.864 
L 338.856846 169.682824 
L 345.482449 185.833412 
L 352.108052 192.045176 
L 358.733655 144.835765 
L 365.359258 162.228706 
L 371.984861 173.409882 
L 378.610464 147.320471 
L 385.236067 175.894588 
L 391.86167 189.560471 
L 398.487273 211.922824 
L 398.487273 211.922824 
L 398.487273 211.922824 
L 391.86167 189.560471 
L 385.236067 175.894588 
L 378.610464 147.320471 
L 371.984861 173.409882 
L 365.359258 162.228706 
L 358.733655 144.835765 
L 352.108052 192.045176 
L 345.482449 185.833412 
L 338.856846 169.682824 
L 332.231243 180.864 
L 325.60564 146.078118 
L 318.980037 173.409882 
L 312.354434 167.198118 
L 305.728831 185.833412 
L 299.103228 184.591059 
L 292.477625 141.108706 
L 285.852022 159.744 
L 279.226419 213.165176 
L 272.600816 160.986353 
L 265.975213 201.984 
L 259.34961 182.106353 
L 252.724007 151.047529 
L 246.098404 165.955765 
L 239.472801 164.713412 
L 232.847199 149.805176 
L 226.221596 128.685176 
L 219.595993 158.501647 
L 212.97039 136.139294 
L 206.344787 122.473412 
L 199.719184 172.167529 
L 193.093581 122.473412 
L 186.467978 122.473412 
L 179.842375 133.654588 
L 173.216772 147.320471 
L 166.591169 133.654588 
L 159.965566 143.593412 
L 153.339963 136.139294 
L 146.71436 121.231059 
L 140.088757 115.019294 
L 133.463154 116.261647 
L 126.837551 98.868706 
L 120.211948 118.746353 
L 113.586345 126.200471 
L 106.960742 107.565176 
L 100.335139 116.261647 
L 93.709536 96.384 
L 87.083933 107.565176 
L 80.45833 91.414588 
L 73.832727 65.325176 
z
" clip-path="url(#p54c9d5a8be)" style="fill: #7f7f7f"/>
   </g>
   <g id="PolyCollection_9">
    <path d="M 73.832727 60.355765 
L 73.832727 65.325176 
L 80.45833 91.414588 
L 87.083933 107.565176 
L 93.709536 96.384 
L 100.335139 116.261647 
L 106.960742 107.565176 
L 113.586345 126.200471 
L 120.211948 118.746353 
L 126.837551 98.868706 
L 133.463154 116.261647 
L 140.088757 115.019294 
L 146.71436 121.231059 
L 153.339963 136.139294 
L 159.965566 143.593412 
L 166.591169 133.654588 
L 173.216772 147.320471 
L 179.842375 133.654588 
L 186.467978 122.473412 
L 193.093581 122.473412 
L 199.719184 172.167529 
L 206.344787 122.473412 
L 212.97039 136.139294 
L 219.595993 158.501647 
L 226.221596 128.685176 
L 232.847199 149.805176 
L 239.472801 164.713412 
L 246.098404 165.955765 
L 252.724007 151.047529 
L 259.34961 182.106353 
L 265.975213 201.984 
L 272.600816 160.986353 
L 279.226419 213.165176 
L 285.852022 159.744 
L 292.477625 141.108706 
L 299.103228 184.591059 
L 305.728831 185.833412 
L 312.354434 167.198118 
L 318.980037 173.409882 
L 325.60564 146.078118 
L 332.231243 180.864 
L 338.856846 169.682824 
L 345.482449 185.833412 
L 352.108052 192.045176 
L 358.733655 144.835765 
L 365.359258 162.228706 
L 371.984861 173.409882 
L 378.610464 147.320471 
L 385.236067 175.894588 
L 391.86167 189.560471 
L 398.487273 211.922824 
L 398.487273 211.922824 
L 398.487273 211.922824 
L 391.86167 189.560471 
L 385.236067 175.894588 
L 378.610464 147.320471 
L 371.984861 173.409882 
L 365.359258 162.228706 
L 358.733655 144.835765 
L 352.108052 192.045176 
L 345.482449 185.833412 
L 338.856846 169.682824 
L 332.231243 180.864 
L 325.60564 146.078118 
L 318.980037 173.409882 
L 312.354434 167.198118 
L 305.728831 185.833412 
L 299.103228 184.591059 
L 292.477625 141.108706 
L 285.852022 159.744 
L 279.226419 213.165176 
L 272.600816 160.986353 
L 265.975213 201.984 
L 259.34961 182.106353 
L 252.724007 151.047529 
L 246.098404 165.955765 
L 239.472801 164.713412 
L 232.847199 149.805176 
L 226.221596 128.685176 
L 219.595993 134.896941 
L 212.97039 118.746353 
L 206.344787 107.565176 
L 199.719184 111.292235 
L 193.093581 107.565176 
L 186.467978 111.292235 
L 179.842375 119.988706 
L 173.216772 113.776941 
L 166.591169 118.746353 
L 159.965566 121.231059 
L 153.339963 117.504 
L 146.71436 102.595765 
L 140.088757 105.080471 
L 133.463154 106.322824 
L 126.837551 90.172235 
L 120.211948 100.111059 
L 113.586345 93.899294 
L 106.960742 83.960471 
L 100.335139 82.718118 
L 93.709536 78.991059 
L 87.083933 71.536941 
L 80.45833 71.536941 
L 73.832727 60.355765 
z
" clip-path="url(#p54c9d5a8be)" style="fill: #bcbd22"/>
   </g>
   <g id="PolyCollection_10">
    <path d="M 73.832727 59.113412 
L 73.832727 60.355765 
L 80.45833 71.536941 
L 87.083933 71.536941 
L 93.709536 78.991059 
L 100.335139 82.718118 
L 106.960742 83.960471 
L 113.586345 93.899294 
L 120.211948 100.111059 
L 126.837551 90.172235 
L 133.463154 106.322824 
L 140.088757 105.080471 
L 146.71436 102.595765 
L 153.339963 117.504 
L 159.965566 121.231059 
L 166.591169 118.746353 
L 173.216772 113.776941 
L 179.842375 119.988706 
L 186.467978 111.292235 
L 193.093581 107.565176 
L 199.719184 111.292235 
L 206.344787 107.565176 
L 212.97039 118.746353 
L 219.595993 134.896941 
L 226.221596 128.685176 
L 232.847199 149.805176 
L 239.472801 164.713412 
L 246.098404 165.955765 
L 252.724007 151.047529 
L 259.34961 182.106353 
L 265.975213 201.984 
L 272.600816 160.986353 
L 279.226419 213.165176 
L 285.852022 159.744 
L 292.477625 141.108706 
L 299.103228 184.591059 
L 305.728831 185.833412 
L 312.354434 167.198118 
L 318.980037 173.409882 
L 325.60564 146.078118 
L 332.231243 180.864 
L 338.856846 169.682824 
L 345.482449 185.833412 
L 352.108052 192.045176 
L 358.733655 144.835765 
L 365.359258 162.228706 
L 371.984861 173.409882 
L 378.610464 147.320471 
L 385.236067 175.894588 
L 391.86167 189.560471 
L 398.487273 211.922824 
L 398.487273 211.922824 
L 398.487273 211.922824 
L 391.86167 189.560471 
L 385.236067 175.894588 
L 378.610464 147.320471 
L 371.984861 173.409882 
L 365.359258 162.228706 
L 358.733655 144.835765 
L 352.108052 192.045176 
L 345.482449 185.833412 
L 338.856846 169.682824 
L 332.231243 180.864 
L 325.60564 146.078118 
L 318.980037 173.409882 
L 312.354434 167.198118 
L 305.728831 159.744 
L 299.103228 169.682824 
L 292.477625 129.927529 
L 285.852022 137.381647 
L 279.226419 185.833412 
L 272.600816 142.351059 
L 265.975213 184.591059 
L 259.34961 163.471059 
L 252.724007 131.169882 
L 246.098404 148.562824 
L 239.472801 159.744 
L 232.847199 129.927529 
L 226.221596 115.019294 
L 219.595993 113.776941 
L 212.97039 102.595765 
L 206.344787 97.626353 
L 199.719184 95.141647 
L 193.093581 92.656941 
L 186.467978 93.899294 
L 179.842375 101.353412 
L 173.216772 102.595765 
L 166.591169 102.595765 
L 159.965566 103.838118 
L 153.339963 98.868706 
L 146.71436 85.202824 
L 140.088757 88.929882 
L 133.463154 85.202824 
L 126.837551 78.991059 
L 120.211948 85.202824 
L 113.586345 77.748706 
L 106.960742 62.840471 
L 100.335139 62.840471 
L 93.709536 59.113412 
L 87.083933 56.628706 
L 80.45833 56.628706 
L 73.832727 59.113412 
z
" clip-path="url(#p54c9d5a8be)" style="fill: #17becf"/>
   </g>
   <g id="PolyCollection_11">
    <path d="M 73.832727 59.113412 
L 73.832727 59.113412 
L 80.45833 56.628706 
L 87.083933 56.628706 
L 93.709536 59.113412 
L 100.335139 62.840471 
L 106.960742 62.840471 
L 113.586345 77.748706 
L 120.211948 85.202824 
L 126.837551 78.991059 
L 133.463154 85.202824 
L 140.088757 88.929882 
L 146.71436 85.202824 
L 153.339963 98.868706 
L 159.965566 103.838118 
L 166.591169 102.595765 
L 173.216772 102.595765 
L 179.842375 101.353412 
L 186.467978 93.899294 
L 193.093581 92.656941 
L 199.719184 95.141647 
L 206.344787 97.626353 
L 212.97039 102.595765 
L 219.595993 113.776941 
L 226.221596 115.019294 
L 232.847199 129.927529 
L 239.472801 159.744 
L 246.098404 148.562824 
L 252.724007 131.169882 
L 259.34961 163.471059 
L 265.975213 184.591059 
L 272.600816 142.351059 
L 279.226419 185.833412 
L 285.852022 137.381647 
L 292.477625 129.927529 
L 299.103228 169.682824 
L 305.728831 159.744 
L 312.354434 167.198118 
L 318.980037 173.409882 
L 325.60564 146.078118 
L 332.231243 180.864 
L 338.856846 169.682824 
L 345.482449 185.833412 
L 352.108052 192.045176 
L 358.733655 144.835765 
L 365.359258 162.228706 
L 371.984861 173.409882 
L 378.610464 147.320471 
L 385.236067 175.894588 
L 391.86167 189.560471 
L 398.487273 211.922824 
L 398.487273 117.504 
L 398.487273 117.504 
L 391.86167 152.289882 
L 385.236067 126.200471 
L 378.610464 111.292235 
L 371.984861 133.654588 
L 365.359258 138.624 
L 358.733655 106.322824 
L 352.108052 127.442824 
L 345.482449 144.835765 
L 338.856846 133.654588 
L 332.231243 144.835765 
L 325.60564 122.473412 
L 318.980037 129.927529 
L 312.354434 112.534588 
L 305.728831 124.958118 
L 299.103228 144.835765 
L 292.477625 118.746353 
L 285.852022 115.019294 
L 279.226419 137.381647 
L 272.600816 119.988706 
L 265.975213 113.776941 
L 259.34961 139.866353 
L 252.724007 101.353412 
L 246.098404 118.746353 
L 239.472801 136.139294 
L 232.847199 113.776941 
L 226.221596 102.595765 
L 219.595993 97.626353 
L 212.97039 90.172235 
L 206.344787 82.718118 
L 199.719184 80.233412 
L 193.093581 74.021647 
L 186.467978 85.202824 
L 179.842375 86.445176 
L 173.216772 92.656941 
L 166.591169 85.202824 
L 159.965566 88.929882 
L 153.339963 86.445176 
L 146.71436 70.294588 
L 140.088757 75.264 
L 133.463154 74.021647 
L 126.837551 71.536941 
L 120.211948 72.779294 
L 113.586345 67.809882 
L 106.960742 56.628706 
L 100.335139 60.355765 
L 93.709536 59.113412 
L 87.083933 56.628706 
L 80.45833 56.628706 
L 73.832727 59.113412 
z
" clip-path="url(#p54c9d5a8be)" style="fill: #1f77b4"/>
   </g>
   <g id="PolyCollection_12">
    <path d="M 73.832727 59.113412 
L 73.832727 59.113412 
L 80.45833 56.628706 
L 87.083933 56.628706 
L 93.709536 59.113412 
L 100.335139 60.355765 
L 106.960742 56.628706 
L 113.586345 67.809882 
L 120.211948 72.779294 
L 126.837551 71.536941 
L 133.463154 74.021647 
L 140.088757 75.264 
L 146.71436 70.294588 
L 153.339963 86.445176 
L 159.965566 88.929882 
L 166.591169 85.202824 
L 173.216772 92.656941 
L 179.842375 86.445176 
L 186.467978 85.202824 
L 193.093581 74.021647 
L 199.719184 80.233412 
L 206.344787 82.718118 
L 212.97039 90.172235 
L 219.595993 97.626353 
L 226.221596 102.595765 
L 232.847199 113.776941 
L 239.472801 136.139294 
L 246.098404 118.746353 
L 252.724007 101.353412 
L 259.34961 139.866353 
L 265.975213 113.776941 
L 272.600816 119.988706 
L 279.226419 137.381647 
L 285.852022 115.019294 
L 292.477625 118.746353 
L 299.103228 144.835765 
L 305.728831 124.958118 
L 312.354434 112.534588 
L 318.980037 129.927529 
L 325.60564 122.473412 
L 332.231243 144.835765 
L 338.856846 133.654588 
L 345.482449 144.835765 
L 352.108052 127.442824 
L 358.733655 106.322824 
L 365.359258 138.624 
L 371.984861 133.654588 
L 378.610464 111.292235 
L 385.236067 126.200471 
L 391.86167 152.289882 
L 398.487273 117.504 
L 398.487273 117.504 
L 398.487273 117.504 
L 391.86167 152.289882 
L 385.236067 126.200471 
L 378.610464 111.292235 
L 371.984861 133.654588 
L 365.359258 138.624 
L 358.733655 106.322824 
L 352.108052 127.442824 
L 345.482449 144.835765 
L 338.856846 133.654588 
L 332.231243 144.835765 
L 325.60564 122.473412 
L 318.980037 129.927529 
L 312.354434 112.534588 
L 305.728831 124.958118 
L 299.103228 133.654588 
L 292.477625 103.838118 
L 285.852022 101.353412 
L 279.226419 105.080471 
L 272.600816 102.595765 
L 265.975213 91.414588 
L 259.34961 101.353412 
L 252.724007 81.475765 
L 246.098404 101.353412 
L 239.472801 117.504 
L 232.847199 95.141647 
L 226.221596 87.687529 
L 219.595993 81.475765 
L 212.97039 77.748706 
L 206.344787 72.779294 
L 199.719184 70.294588 
L 193.093581 62.840471 
L 186.467978 71.536941 
L 179.842375 72.779294 
L 173.216772 71.536941 
L 166.591169 75.264 
L 159.965566 72.779294 
L 153.339963 70.294588 
L 146.71436 59.113412 
L 140.088757 57.871059 
L 133.463154 56.628706 
L 126.837551 56.628706 
L 120.211948 57.871059 
L 113.586345 55.386353 
L 106.960742 55.386353 
L 100.335139 60.355765 
L 93.709536 59.113412 
L 87.083933 56.628706 
L 80.45833 56.628706 
L 73.832727 59.113412 
z
" clip-path="url(#p54c9d5a8be)" style="fill: #ff7f0e"/>
   </g>
   <g id="PolyCollection_13">
    <path d="M 73.832727 59.113412 
L 73.832727 59.113412 
L 80.45833 56.628706 
L 87.083933 56.628706 
L 93.709536 59.113412 
L 100.335139 60.355765 
L 106.960742 55.386353 
L 113.586345 55.386353 
L 120.211948 57.871059 
L 126.837551 56.628706 
L 133.463154 56.628706 
L 140.088757 57.871059 
L 146.71436 59.113412 
L 153.339963 70.294588 
L 159.965566 72.779294 
L 166.591169 75.264 
L 173.216772 71.536941 
L 179.842375 72.779294 
L 186.467978 71.536941 
L 193.093581 62.840471 
L 199.719184 70.294588 
L 206.344787 72.779294 
L 212.97039 77.748706 
L 219.595993 81.475765 
L 226.221596 87.687529 
L 232.847199 95.141647 
L 239.472801 117.504 
L 246.098404 101.353412 
L 252.724007 81.475765 
L 259.34961 101.353412 
L 265.975213 91.414588 
L 272.600816 102.595765 
L 279.226419 105.080471 
L 285.852022 101.353412 
L 292.477625 103.838118 
L 299.103228 133.654588 
L 305.728831 124.958118 
L 312.354434 112.534588 
L 318.980037 129.927529 
L 325.60564 122.473412 
L 332.231243 144.835765 
L 338.856846 133.654588 
L 345.482449 144.835765 
L 352.108052 127.442824 
L 358.733655 106.322824 
L 365.359258 138.624 
L 371.984861 133.654588 
L 378.610464 111.292235 
L 385.236067 126.200471 
L 391.86167 152.289882 
L 398.487273 117.504 
L 398.487273 97.626353 
L 398.487273 97.626353 
L 391.86167 96.384 
L 385.236067 87.687529 
L 378.610464 80.233412 
L 371.984861 82.718118 
L 365.359258 116.261647 
L 358.733655 85.202824 
L 352.108052 88.929882 
L 345.482449 91.414588 
L 338.856846 80.233412 
L 332.231243 97.626353 
L 325.60564 85.202824 
L 318.980037 91.414588 
L 312.354434 86.445176 
L 305.728831 78.991059 
L 299.103228 93.899294 
L 292.477625 78.991059 
L 285.852022 77.748706 
L 279.226419 80.233412 
L 272.600816 78.991059 
L 265.975213 70.294588 
L 259.34961 77.748706 
L 252.724007 70.294588 
L 246.098404 78.991059 
L 239.472801 100.111059 
L 232.847199 74.021647 
L 226.221596 75.264 
L 219.595993 67.809882 
L 212.97039 60.355765 
L 206.344787 59.113412 
L 199.719184 59.113412 
L 193.093581 56.628706 
L 186.467978 54.144 
L 179.842375 55.386353 
L 173.216772 57.871059 
L 166.591169 57.871059 
L 159.965566 60.355765 
L 153.339963 59.113412 
L 146.71436 57.871059 
L 140.088757 57.871059 
L 133.463154 56.628706 
L 126.837551 56.628706 
L 120.211948 57.871059 
L 113.586345 55.386353 
L 106.960742 55.386353 
L 100.335139 60.355765 
L 93.709536 59.113412 
L 87.083933 56.628706 
L 80.45833 56.628706 
L 73.832727 59.113412 
z
" clip-path="url(#p54c9d5a8be)" style="fill: #2ca02c"/>
   </g>
   <g id="PolyCollection_14">
    <path d="M 73.832727 59.113412 
L 73.832727 59.113412 
L 80.45833 56.628706 
L 87.083933 56.628706 
L 93.709536 59.113412 
L 100.335139 60.355765 
L 106.960742 55.386353 
L 113.586345 55.386353 
L 120.211948 57.871059 
L 126.837551 56.628706 
L 133.463154 56.628706 
L 140.088757 57.871059 
L 146.71436 57.871059 
L 153.339963 59.113412 
L 159.965566 60.355765 
L 166.591169 57.871059 
L 173.216772 57.871059 
L 179.842375 55.386353 
L 186.467978 54.144 
L 193.093581 56.628706 
L 199.719184 59.113412 
L 206.344787 59.113412 
L 212.97039 60.355765 
L 219.595993 67.809882 
L 226.221596 75.264 
L 232.847199 74.021647 
L 239.472801 100.111059 
L 246.098404 78.991059 
L 252.724007 70.294588 
L 259.34961 77.748706 
L 265.975213 70.294588 
L 272.600816 78.991059 
L 279.226419 80.233412 
L 285.852022 77.748706 
L 292.477625 78.991059 
L 299.103228 93.899294 
L 305.728831 78.991059 
L 312.354434 86.445176 
L 318.980037 91.414588 
L 325.60564 85.202824 
L 332.231243 97.626353 
L 338.856846 80.233412 
L 345.482449 91.414588 
L 352.108052 88.929882 
L 358.733655 85.202824 
L 365.359258 116.261647 
L 371.984861 82.718118 
L 378.610464 80.233412 
L 385.236067 87.687529 
L 391.86167 96.384 
L 398.487273 97.626353 
L 398.487273 57.871059 
L 398.487273 57.871059 
L 391.86167 59.113412 
L 385.236067 60.355765 
L 378.610464 59.113412 
L 371.984861 59.113412 
L 365.359258 57.871059 
L 358.733655 59.113412 
L 352.108052 59.113412 
L 345.482449 61.598118 
L 338.856846 61.598118 
L 332.231243 60.355765 
L 325.60564 59.113412 
L 318.980037 59.113412 
L 312.354434 57.871059 
L 305.728831 55.386353 
L 299.103228 59.113412 
L 292.477625 60.355765 
L 285.852022 59.113412 
L 279.226419 61.598118 
L 272.600816 62.840471 
L 265.975213 57.871059 
L 259.34961 60.355765 
L 252.724007 59.113412 
L 246.098404 59.113412 
L 239.472801 59.113412 
L 232.847199 55.386353 
L 226.221596 56.628706 
L 219.595993 56.628706 
L 212.97039 54.144 
L 206.344787 55.386353 
L 199.719184 59.113412 
L 193.093581 56.628706 
L 186.467978 54.144 
L 179.842375 55.386353 
L 173.216772 57.871059 
L 166.591169 57.871059 
L 159.965566 60.355765 
L 153.339963 59.113412 
L 146.71436 57.871059 
L 140.088757 57.871059 
L 133.463154 56.628706 
L 126.837551 56.628706 
L 120.211948 57.871059 
L 113.586345 55.386353 
L 106.960742 55.386353 
L 100.335139 60.355765 
L 93.709536 59.113412 
L 87.083933 56.628706 
L 80.45833 56.628706 
L 73.832727 59.113412 
z
" clip-path="url(#p54c9d5a8be)" style="fill: #d62728"/>
   </g>
   <g id="matplotlib.axis_1">
    <g id="xtick_1">
     <g id="line2d_1">
      <defs>
       <path id="m99dbba57e9" d="M 0 0 
L 0 3.5 
" style="stroke: #000000; stroke-width: 0.8"/>
      </defs>
      <g>
       <use xlink:href="#m99dbba57e9" x="73.832727" y="307.584" style="stroke: #000000; stroke-width: 0.8"/>
      </g>
     </g>
     <g id="text_1">
      <!-- 0 -->
      <g transform="translate(70.651477 322.182437) scale(0.1 -0.1)">
       <defs>
        <path id="DejaVuSans-30" d="M 2034 4250 
Q 1547 4250 1301 3770 
Q 1056 3291 1056 2328 
Q 1056 1369 1301 889 
Q 1547 409 2034 409 
Q 2525 409 2770 889 
Q 3016 1369 3016 2328 
Q 3016 3291 2770 3770 
Q 2525 4250 2034 4250 
z
M 2034 4750 
Q 2819 4750 3233 4129 
Q 3647 3509 3647 2328 
Q 3647 1150 3233 529 
Q 2819 -91 2034 -91 
Q 1250 -91 836 529 
Q 422 1150 422 2328 
Q 422 3509 836 4129 
Q 1250 4750 2034 4750 
z
" transform="scale(0.015625)"/>
       </defs>
       <use xlink:href="#DejaVuSans-30"/>
      </g>
     </g>
    </g>
    <g id="xtick_2">
     <g id="line2d_2">
      <g>
       <use xlink:href="#m99dbba57e9" x="140.088757" y="307.584" style="stroke: #000000; stroke-width: 0.8"/>
      </g>
     </g>
     <g id="text_2">
      <!-- 10 -->
      <g transform="translate(133.726257 322.182437) scale(0.1 -0.1)">
       <defs>
        <path id="DejaVuSans-31" d="M 794 531 
L 1825 531 
L 1825 4091 
L 703 3866 
L 703 4441 
L 1819 4666 
L 2450 4666 
L 2450 531 
L 3481 531 
L 3481 0 
L 794 0 
L 794 531 
z
" transform="scale(0.015625)"/>
       </defs>
       <use xlink:href="#DejaVuSans-31"/>
       <use xlink:href="#DejaVuSans-30" x="63.623047"/>
      </g>
     </g>
    </g>
    <g id="xtick_3">
     <g id="line2d_3">
      <g>
       <use xlink:href="#m99dbba57e9" x="206.344787" y="307.584" style="stroke: #000000; stroke-width: 0.8"/>
      </g>
     </g>
     <g id="text_3">
      <!-- 20 -->
      <g transform="translate(199.982287 322.182437) scale(0.1 -0.1)">
       <defs>
        <path id="DejaVuSans-32" d="M 1228 531 
L 3431 531 
L 3431 0 
L 469 0 
L 469 531 
Q 828 903 1448 1529 
Q 2069 2156 2228 2338 
Q 2531 2678 2651 2914 
Q 2772 3150 2772 3378 
Q 2772 3750 2511 3984 
Q 2250 4219 1831 4219 
Q 1534 4219 1204 4116 
Q 875 4013 500 3803 
L 500 4441 
Q 881 4594 1212 4672 
Q 1544 4750 1819 4750 
Q 2544 4750 2975 4387 
Q 3406 4025 3406 3419 
Q 3406 3131 3298 2873 
Q 3191 2616 2906 2266 
Q 2828 2175 2409 1742 
Q 1991 1309 1228 531 
z
" transform="scale(0.015625)"/>
       </defs>
       <use xlink:href="#DejaVuSans-32"/>
       <use xlink:href="#DejaVuSans-30" x="63.623047"/>
      </g>
     </g>
    </g>
    <g id="xtick_4">
     <g id="line2d_4">
      <g>
       <use xlink:href="#m99dbba57e9" x="272.600816" y="307.584" style="stroke: #000000; stroke-width: 0.8"/>
      </g>
     </g>
     <g id="text_4">
      <!-- 30 -->
      <g transform="translate(266.238316 322.182437) scale(0.1 -0.1)">
       <defs>
        <path id="DejaVuSans-33" d="M 2597 2516 
Q 3050 2419 3304 2112 
Q 3559 1806 3559 1356 
Q 3559 666 3084 287 
Q 2609 -91 1734 -91 
Q 1441 -91 1130 -33 
Q 819 25 488 141 
L 488 750 
Q 750 597 1062 519 
Q 1375 441 1716 441 
Q 2309 441 2620 675 
Q 2931 909 2931 1356 
Q 2931 1769 2642 2001 
Q 2353 2234 1838 2234 
L 1294 2234 
L 1294 2753 
L 1863 2753 
Q 2328 2753 2575 2939 
Q 2822 3125 2822 3475 
Q 2822 3834 2567 4026 
Q 2313 4219 1838 4219 
Q 1578 4219 1281 4162 
Q 984 4106 628 3988 
L 628 4550 
Q 988 4650 1302 4700 
Q 1616 4750 1894 4750 
Q 2613 4750 3031 4423 
Q 3450 4097 3450 3541 
Q 3450 3153 3228 2886 
Q 3006 2619 2597 2516 
z
" transform="scale(0.015625)"/>
       </defs>
       <use xlink:href="#DejaVuSans-33"/>
       <use xlink:href="#DejaVuSans-30" x="63.623047"/>
      </g>
     </g>
    </g>
    <g id="xtick_5">
     <g id="line2d_5">
      <g>
       <use xlink:href="#m99dbba57e9" x="338.856846" y="307.584" style="stroke: #000000; stroke-width: 0.8"/>
      </g>
     </g>
     <g id="text_5">
      <!-- 40 -->
      <g transform="translate(332.494346 322.182437) scale(0.1 -0.1)">
       <defs>
        <path id="DejaVuSans-34" d="M 2419 4116 
L 825 1625 
L 2419 1625 
L 2419 4116 
z
M 2253 4666 
L 3047 4666 
L 3047 1625 
L 3713 1625 
L 3713 1100 
L 3047 1100 
L 3047 0 
L 2419 0 
L 2419 1100 
L 313 1100 
L 313 1709 
L 2253 4666 
z
" transform="scale(0.015625)"/>
       </defs>
       <use xlink:href="#DejaVuSans-34"/>
       <use xlink:href="#DejaVuSans-30" x="63.623047"/>
      </g>
     </g>
    </g>
    <g id="xtick_6">
     <g id="line2d_6">
      <g>
       <use xlink:href="#m99dbba57e9" x="405.112876" y="307.584" style="stroke: #000000; stroke-width: 0.8"/>
      </g>
     </g>
     <g id="text_6">
      <!-- 50 -->
      <g transform="translate(398.750376 322.182437) scale(0.1 -0.1)">
       <defs>
        <path id="DejaVuSans-35" d="M 691 4666 
L 3169 4666 
L 3169 4134 
L 1269 4134 
L 1269 2991 
Q 1406 3038 1543 3061 
Q 1681 3084 1819 3084 
Q 2600 3084 3056 2656 
Q 3513 2228 3513 1497 
Q 3513 744 3044 326 
Q 2575 -91 1722 -91 
Q 1428 -91 1123 -41 
Q 819 9 494 109 
L 494 744 
Q 775 591 1075 516 
Q 1375 441 1709 441 
Q 2250 441 2565 725 
Q 2881 1009 2881 1497 
Q 2881 1984 2565 2268 
Q 2250 2553 1709 2553 
Q 1456 2553 1204 2497 
Q 953 2441 691 2322 
L 691 4666 
z
" transform="scale(0.015625)"/>
       </defs>
       <use xlink:href="#DejaVuSans-35"/>
       <use xlink:href="#DejaVuSans-30" x="63.623047"/>
      </g>
     </g>
    </g>
    <g id="text_7">
     <!-- Generations -->
     <g transform="translate(205.662344 335.860562) scale(0.1 -0.1)">
      <defs>
       <path id="DejaVuSans-47" d="M 3809 666 
L 3809 1919 
L 2778 1919 
L 2778 2438 
L 4434 2438 
L 4434 434 
Q 4069 175 3628 42 
Q 3188 -91 2688 -91 
Q 1594 -91 976 548 
Q 359 1188 359 2328 
Q 359 3472 976 4111 
Q 1594 4750 2688 4750 
Q 3144 4750 3555 4637 
Q 3966 4525 4313 4306 
L 4313 3634 
Q 3963 3931 3569 4081 
Q 3175 4231 2741 4231 
Q 1884 4231 1454 3753 
Q 1025 3275 1025 2328 
Q 1025 1384 1454 906 
Q 1884 428 2741 428 
Q 3075 428 3337 486 
Q 3600 544 3809 666 
z
" transform="scale(0.015625)"/>
       <path id="DejaVuSans-65" d="M 3597 1894 
L 3597 1613 
L 953 1613 
Q 991 1019 1311 708 
Q 1631 397 2203 397 
Q 2534 397 2845 478 
Q 3156 559 3463 722 
L 3463 178 
Q 3153 47 2828 -22 
Q 2503 -91 2169 -91 
Q 1331 -91 842 396 
Q 353 884 353 1716 
Q 353 2575 817 3079 
Q 1281 3584 2069 3584 
Q 2775 3584 3186 3129 
Q 3597 2675 3597 1894 
z
M 3022 2063 
Q 3016 2534 2758 2815 
Q 2500 3097 2075 3097 
Q 1594 3097 1305 2825 
Q 1016 2553 972 2059 
L 3022 2063 
z
" transform="scale(0.015625)"/>
       <path id="DejaVuSans-6e" d="M 3513 2113 
L 3513 0 
L 2938 0 
L 2938 2094 
Q 2938 2591 2744 2837 
Q 2550 3084 2163 3084 
Q 1697 3084 1428 2787 
Q 1159 2491 1159 1978 
L 1159 0 
L 581 0 
L 581 3500 
L 1159 3500 
L 1159 2956 
Q 1366 3272 1645 3428 
Q 1925 3584 2291 3584 
Q 2894 3584 3203 3211 
Q 3513 2838 3513 2113 
z
" transform="scale(0.015625)"/>
       <path id="DejaVuSans-72" d="M 2631 2963 
Q 2534 3019 2420 3045 
Q 2306 3072 2169 3072 
Q 1681 3072 1420 2755 
Q 1159 2438 1159 1844 
L 1159 0 
L 581 0 
L 581 3500 
L 1159 3500 
L 1159 2956 
Q 1341 3275 1631 3429 
Q 1922 3584 2338 3584 
Q 2397 3584 2469 3576 
Q 2541 3569 2628 3553 
L 2631 2963 
z
" transform="scale(0.015625)"/>
       <path id="DejaVuSans-61" d="M 2194 1759 
Q 1497 1759 1228 1600 
Q 959 1441 959 1056 
Q 959 750 1161 570 
Q 1363 391 1709 391 
Q 2188 391 2477 730 
Q 2766 1069 2766 1631 
L 2766 1759 
L 2194 1759 
z
M 3341 1997 
L 3341 0 
L 2766 0 
L 2766 531 
Q 2569 213 2275 61 
Q 1981 -91 1556 -91 
Q 1019 -91 701 211 
Q 384 513 384 1019 
Q 384 1609 779 1909 
Q 1175 2209 1959 2209 
L 2766 2209 
L 2766 2266 
Q 2766 2663 2505 2880 
Q 2244 3097 1772 3097 
Q 1472 3097 1187 3025 
Q 903 2953 641 2809 
L 641 3341 
Q 956 3463 1253 3523 
Q 1550 3584 1831 3584 
Q 2591 3584 2966 3190 
Q 3341 2797 3341 1997 
z
" transform="scale(0.015625)"/>
       <path id="DejaVuSans-74" d="M 1172 4494 
L 1172 3500 
L 2356 3500 
L 2356 3053 
L 1172 3053 
L 1172 1153 
Q 1172 725 1289 603 
Q 1406 481 1766 481 
L 2356 481 
L 2356 0 
L 1766 0 
Q 1100 0 847 248 
Q 594 497 594 1153 
L 594 3053 
L 172 3053 
L 172 3500 
L 594 3500 
L 594 4494 
L 1172 4494 
z
" transform="scale(0.015625)"/>
       <path id="DejaVuSans-69" d="M 603 3500 
L 1178 3500 
L 1178 0 
L 603 0 
L 603 3500 
z
M 603 4863 
L 1178 4863 
L 1178 4134 
L 603 4134 
L 603 4863 
z
" transform="scale(0.015625)"/>
       <path id="DejaVuSans-6f" d="M 1959 3097 
Q 1497 3097 1228 2736 
Q 959 2375 959 1747 
Q 959 1119 1226 758 
Q 1494 397 1959 397 
Q 2419 397 2687 759 
Q 2956 1122 2956 1747 
Q 2956 2369 2687 2733 
Q 2419 3097 1959 3097 
z
M 1959 3584 
Q 2709 3584 3137 3096 
Q 3566 2609 3566 1747 
Q 3566 888 3137 398 
Q 2709 -91 1959 -91 
Q 1206 -91 779 398 
Q 353 888 353 1747 
Q 353 2609 779 3096 
Q 1206 3584 1959 3584 
z
" transform="scale(0.015625)"/>
       <path id="DejaVuSans-73" d="M 2834 3397 
L 2834 2853 
Q 2591 2978 2328 3040 
Q 2066 3103 1784 3103 
Q 1356 3103 1142 2972 
Q 928 2841 928 2578 
Q 928 2378 1081 2264 
Q 1234 2150 1697 2047 
L 1894 2003 
Q 2506 1872 2764 1633 
Q 3022 1394 3022 966 
Q 3022 478 2636 193 
Q 2250 -91 1575 -91 
Q 1294 -91 989 -36 
Q 684 19 347 128 
L 347 722 
Q 666 556 975 473 
Q 1284 391 1588 391 
Q 1994 391 2212 530 
Q 2431 669 2431 922 
Q 2431 1156 2273 1281 
Q 2116 1406 1581 1522 
L 1381 1569 
Q 847 1681 609 1914 
Q 372 2147 372 2553 
Q 372 3047 722 3315 
Q 1072 3584 1716 3584 
Q 2034 3584 2315 3537 
Q 2597 3491 2834 3397 
z
" transform="scale(0.015625)"/>
      </defs>
      <use xlink:href="#DejaVuSans-47"/>
      <use xlink:href="#DejaVuSans-65" x="77.490234"/>
      <use xlink:href="#DejaVuSans-6e" x="139.013672"/>
      <use xlink:href="#DejaVuSans-65" x="202.392578"/>
      <use xlink:href="#DejaVuSans-72" x="263.916016"/>
      <use xlink:href="#DejaVuSans-61" x="305.029297"/>
      <use xlink:href="#DejaVuSans-74" x="366.308594"/>
      <use xlink:href="#DejaVuSans-69" x="405.517578"/>
      <use xlink:href="#DejaVuSans-6f" x="433.300781"/>
      <use xlink:href="#DejaVuSans-6e" x="494.482422"/>
      <use xlink:href="#DejaVuSans-73" x="557.861328"/>
     </g>
    </g>
   </g>
   <g id="matplotlib.axis_2">
    <g id="ytick_1">
     <g id="line2d_7">
      <defs>
       <path id="m04db1fb7f8" d="M 0 0 
L -3.5 0 
" style="stroke: #000000; stroke-width: 0.8"/>
      </defs>
      <g>
       <use xlink:href="#m04db1fb7f8" x="57.6" y="307.584" style="stroke: #000000; stroke-width: 0.8"/>
      </g>
     </g>
     <g id="text_8">
      <!-- 0 -->
      <g transform="translate(44.2375 311.383219) scale(0.1 -0.1)">
       <use xlink:href="#DejaVuSans-30"/>
      </g>
     </g>
    </g>
    <g id="ytick_2">
     <g id="line2d_8">
      <g>
       <use xlink:href="#m04db1fb7f8" x="57.6" y="276.525176" style="stroke: #000000; stroke-width: 0.8"/>
      </g>
     </g>
     <g id="text_9">
      <!-- 25 -->
      <g transform="translate(37.875 280.324395) scale(0.1 -0.1)">
       <use xlink:href="#DejaVuSans-32"/>
       <use xlink:href="#DejaVuSans-35" x="63.623047"/>
      </g>
     </g>
    </g>
    <g id="ytick_3">
     <g id="line2d_9">
      <g>
       <use xlink:href="#m04db1fb7f8" x="57.6" y="245.466353" style="stroke: #000000; stroke-width: 0.8"/>
      </g>
     </g>
     <g id="text_10">
      <!-- 50 -->
      <g transform="translate(37.875 249.265572) scale(0.1 -0.1)">
       <use xlink:href="#DejaVuSans-35"/>
       <use xlink:href="#DejaVuSans-30" x="63.623047"/>
      </g>
     </g>
    </g>
    <g id="ytick_4">
     <g id="line2d_10">
      <g>
       <use xlink:href="#m04db1fb7f8" x="57.6" y="214.407529" style="stroke: #000000; stroke-width: 0.8"/>
      </g>
     </g>
     <g id="text_11">
      <!-- 75 -->
      <g transform="translate(37.875 218.206748) scale(0.1 -0.1)">
       <defs>
        <path id="DejaVuSans-37" d="M 525 4666 
L 3525 4666 
L 3525 4397 
L 1831 0 
L 1172 0 
L 2766 4134 
L 525 4134 
L 525 4666 
z
" transform="scale(0.015625)"/>
       </defs>
       <use xlink:href="#DejaVuSans-37"/>
       <use xlink:href="#DejaVuSans-35" x="63.623047"/>
      </g>
     </g>
    </g>
    <g id="ytick_5">
     <g id="line2d_11">
      <g>
       <use xlink:href="#m04db1fb7f8" x="57.6" y="183.348706" style="stroke: #000000; stroke-width: 0.8"/>
      </g>
     </g>
     <g id="text_12">
      <!-- 100 -->
      <g transform="translate(31.5125 187.147925) scale(0.1 -0.1)">
       <use xlink:href="#DejaVuSans-31"/>
       <use xlink:href="#DejaVuSans-30" x="63.623047"/>
       <use xlink:href="#DejaVuSans-30" x="127.246094"/>
      </g>
     </g>
    </g>
    <g id="ytick_6">
     <g id="line2d_12">
      <g>
       <use xlink:href="#m04db1fb7f8" x="57.6" y="152.289882" style="stroke: #000000; stroke-width: 0.8"/>
      </g>
     </g>
     <g id="text_13">
      <!-- 125 -->
      <g transform="translate(31.5125 156.089101) scale(0.1 -0.1)">
       <use xlink:href="#DejaVuSans-31"/>
       <use xlink:href="#DejaVuSans-32" x="63.623047"/>
       <use xlink:href="#DejaVuSans-35" x="127.246094"/>
      </g>
     </g>
    </g>
    <g id="ytick_7">
     <g id="line2d_13">
      <g>
       <use xlink:href="#m04db1fb7f8" x="57.6" y="121.231059" style="stroke: #000000; stroke-width: 0.8"/>
      </g>
     </g>
     <g id="text_14">
      <!-- 150 -->
      <g transform="translate(31.5125 125.030278) scale(0.1 -0.1)">
       <use xlink:href="#DejaVuSans-31"/>
       <use xlink:href="#DejaVuSans-35" x="63.623047"/>
       <use xlink:href="#DejaVuSans-30" x="127.246094"/>
      </g>
     </g>
    </g>
    <g id="ytick_8">
     <g id="line2d_14">
      <g>
       <use xlink:href="#m04db1fb7f8" x="57.6" y="90.172235" style="stroke: #000000; stroke-width: 0.8"/>
      </g>
     </g>
     <g id="text_15">
      <!-- 175 -->
      <g transform="translate(31.5125 93.971454) scale(0.1 -0.1)">
       <use xlink:href="#DejaVuSans-31"/>
       <use xlink:href="#DejaVuSans-37" x="63.623047"/>
       <use xlink:href="#DejaVuSans-35" x="127.246094"/>
      </g>
     </g>
    </g>
    <g id="ytick_9">
     <g id="line2d_15">
      <g>
       <use xlink:href="#m04db1fb7f8" x="57.6" y="59.113412" style="stroke: #000000; stroke-width: 0.8"/>
      </g>
     </g>
     <g id="text_16">
      <!-- 200 -->
      <g transform="translate(31.5125 62.912631) scale(0.1 -0.1)">
       <use xlink:href="#DejaVuSans-32"/>
       <use xlink:href="#DejaVuSans-30" x="63.623047"/>
       <use xlink:href="#DejaVuSans-30" x="127.246094"/>
      </g>
     </g>
    </g>
    <g id="text_17">
     <!-- Size per Species -->
     <g transform="translate(25.432812 215.520969) rotate(-90) scale(0.1 -0.1)">
      <defs>
       <path id="DejaVuSans-53" d="M 3425 4513 
L 3425 3897 
Q 3066 4069 2747 4153 
Q 2428 4238 2131 4238 
Q 1616 4238 1336 4038 
Q 1056 3838 1056 3469 
Q 1056 3159 1242 3001 
Q 1428 2844 1947 2747 
L 2328 2669 
Q 3034 2534 3370 2195 
Q 3706 1856 3706 1288 
Q 3706 609 3251 259 
Q 2797 -91 1919 -91 
Q 1588 -91 1214 -16 
Q 841 59 441 206 
L 441 856 
Q 825 641 1194 531 
Q 1563 422 1919 422 
Q 2459 422 2753 634 
Q 3047 847 3047 1241 
Q 3047 1584 2836 1778 
Q 2625 1972 2144 2069 
L 1759 2144 
Q 1053 2284 737 2584 
Q 422 2884 422 3419 
Q 422 4038 858 4394 
Q 1294 4750 2059 4750 
Q 2388 4750 2728 4690 
Q 3069 4631 3425 4513 
z
" transform="scale(0.015625)"/>
       <path id="DejaVuSans-7a" d="M 353 3500 
L 3084 3500 
L 3084 2975 
L 922 459 
L 3084 459 
L 3084 0 
L 275 0 
L 275 525 
L 2438 3041 
L 353 3041 
L 353 3500 
z
" transform="scale(0.015625)"/>
       <path id="DejaVuSans-20" transform="scale(0.015625)"/>
       <path id="DejaVuSans-70" d="M 1159 525 
L 1159 -1331 
L 581 -1331 
L 581 3500 
L 1159 3500 
L 1159 2969 
Q 1341 3281 1617 3432 
Q 1894 3584 2278 3584 
Q 2916 3584 3314 3078 
Q 3713 2572 3713 1747 
Q 3713 922 3314 415 
Q 2916 -91 2278 -91 
Q 1894 -91 1617 61 
Q 1341 213 1159 525 
z
M 3116 1747 
Q 3116 2381 2855 2742 
Q 2594 3103 2138 3103 
Q 1681 3103 1420 2742 
Q 1159 2381 1159 1747 
Q 1159 1113 1420 752 
Q 1681 391 2138 391 
Q 2594 391 2855 752 
Q 3116 1113 3116 1747 
z
" transform="scale(0.015625)"/>
       <path id="DejaVuSans-63" d="M 3122 3366 
L 3122 2828 
Q 2878 2963 2633 3030 
Q 2388 3097 2138 3097 
Q 1578 3097 1268 2742 
Q 959 2388 959 1747 
Q 959 1106 1268 751 
Q 1578 397 2138 397 
Q 2388 397 2633 464 
Q 2878 531 3122 666 
L 3122 134 
Q 2881 22 2623 -34 
Q 2366 -91 2075 -91 
Q 1284 -91 818 406 
Q 353 903 353 1747 
Q 353 2603 823 3093 
Q 1294 3584 2113 3584 
Q 2378 3584 2631 3529 
Q 2884 3475 3122 3366 
z
" transform="scale(0.015625)"/>
      </defs>
      <use xlink:href="#DejaVuSans-53"/>
      <use xlink:href="#DejaVuSans-69" x="63.476562"/>
      <use xlink:href="#DejaVuSans-7a" x="91.259766"/>
      <use xlink:href="#DejaVuSans-65" x="143.75"/>
      <use xlink:href="#DejaVuSans-20" x="205.273438"/>
      <use xlink:href="#DejaVuSans-70" x="237.060547"/>
      <use xlink:href="#DejaVuSans-65" x="300.537109"/>
      <use xlink:href="#DejaVuSans-72" x="362.060547"/>
      <use xlink:href="#DejaVuSans-20" x="403.173828"/>
      <use xlink:href="#DejaVuSans-53" x="434.960938"/>
      <use xlink:href="#DejaVuSans-70" x="498.4375"/>
      <use xlink:href="#DejaVuSans-65" x="561.914062"/>
      <use xlink:href="#DejaVuSans-63" x="623.4375"/>
      <use xlink:href="#DejaVuSans-69" x="678.417969"/>
      <use xlink:href="#DejaVuSans-65" x="706.201172"/>
      <use xlink:href="#DejaVuSans-73" x="767.724609"/>
     </g>
    </g>
   </g>
   <g id="patch_3">
    <path d="M 57.6 307.584 
L 57.6 41.472 
" style="fill: none; stroke: #000000; stroke-width: 0.8; stroke-linejoin: miter; stroke-linecap: square"/>
   </g>
   <g id="patch_4">
    <path d="M 414.72 307.584 
L 414.72 41.472 
" style="fill: none; stroke: #000000; stroke-width: 0.8; stroke-linejoin: miter; stroke-linecap: square"/>
   </g>
   <g id="patch_5">
    <path d="M 57.6 307.584 
L 414.72 307.584 
" style="fill: none; stroke: #000000; stroke-width: 0.8; stroke-linejoin: miter; stroke-linecap: square"/>
   </g>
   <g id="patch_6">
    <path d="M 57.6 41.472 
L 414.72 41.472 
" style="fill: none; stroke: #000000; stroke-width: 0.8; stroke-linejoin: miter; stroke-linecap: square"/>
   </g>
   <g id="text_18">
    <!-- Speciation -->
    <g transform="translate(204.714375 35.472) scale(0.12 -0.12)">
     <use xlink:href="#DejaVuSans-53"/>
     <use xlink:href="#DejaVuSans-70" x="63.476562"/>
     <use xlink:href="#DejaVuSans-65" x="126.953125"/>
     <use xlink:href="#DejaVuSans-63" x="188.476562"/>
     <use xlink:href="#DejaVuSans-69" x="243.457031"/>
     <use xlink:href="#DejaVuSans-61" x="271.240234"/>
     <use xlink:href="#DejaVuSans-74" x="332.519531"/>
     <use xlink:href="#DejaVuSans-69" x="371.728516"/>
     <use xlink:href="#DejaVuSans-6f" x="399.511719"/>
     <use xlink:href="#DejaVuSans-6e" x="460.693359"/>
    </g>
   </g>
  </g>
 </g>
 <defs>
  <clipPath id="p54c9d5a8be">
   <rect x="57.6" y="41.472" width="357.12" height="266.112"/>
  </clipPath>
 </defs>
</svg>
