<?xml version="1.0" encoding="utf-8" standalone="no"?>
<!DOCTYPE svg PUBLIC "-//W3C//DTD SVG 1.1//EN"
  "http://www.w3.org/Graphics/SVG/1.1/DTD/svg11.dtd">
<svg xmlns:xlink="http://www.w3.org/1999/xlink" width="460.8pt" height="345.6pt" viewBox="0 0 460.8 345.6" xmlns="http://www.w3.org/2000/svg" version="1.1">
 <metadata>
  <rdf:RDF xmlns:dc="http://purl.org/dc/elements/1.1/" xmlns:cc="http://creativecommons.org/ns#" xmlns:rdf="http://www.w3.org/1999/02/22-rdf-syntax-ns#">
   <cc:Work>
    <dc:type rdf:resource="http://purl.org/dc/dcmitype/StillImage"/>
    <dc:date>2024-08-10T21:59:47.532429</dc:date>
    <dc:format>image/svg+xml</dc:format>
    <dc:creator>
     <cc:Agent>
      <dc:title>Matplotlib v3.8.4, https://matplotlib.org/</dc:title>
     </cc:Agent>
    </dc:creator>
   </cc:Work>
  </rdf:RDF>
 </metadata>
 <defs>
  <style type="text/css">*{stroke-linejoin: round; stroke-linecap: butt}</style>
 </defs>
 <g id="figure_1">
  <g id="patch_1">
   <path d="M 0 345.6 
L 460.8 345.6 
L 460.8 0 
L 0 0 
z
" style="fill: #ffffff"/>
  </g>
  <g id="axes_1">
   <g id="patch_2">
    <path d="M 57.6 307.584 
L 414.72 307.584 
L 414.72 41.472 
L 57.6 41.472 
z
" style="fill: #ffffff"/>
   </g>
   <g id="PolyCollection_1">
    <path d="M 73.832727 202.796308 
L 73.832727 307.584 
L 80.45833 307.584 
L 87.083933 307.584 
L 93.709536 307.584 
L 100.335139 307.584 
L 106.960742 307.584 
L 113.586345 307.584 
L 120.211948 307.584 
L 126.837551 307.584 
L 133.463154 307.584 
L 140.088757 307.584 
L 146.71436 307.584 
L 153.339963 307.584 
L 159.965566 307.584 
L 166.591169 307.584 
L 173.216772 307.584 
L 179.842375 307.584 
L 186.467978 307.584 
L 193.093581 307.584 
L 199.719184 307.584 
L 206.344787 307.584 
L 212.97039 307.584 
L 219.595993 307.584 
L 226.221596 307.584 
L 232.847199 307.584 
L 239.472801 307.584 
L 246.098404 307.584 
L 252.724007 307.584 
L 259.34961 307.584 
L 265.975213 307.584 
L 272.600816 307.584 
L 279.226419 307.584 
L 285.852022 307.584 
L 292.477625 307.584 
L 299.103228 307.584 
L 305.728831 307.584 
L 312.354434 307.584 
L 318.980037 307.584 
L 325.60564 307.584 
L 332.231243 307.584 
L 338.856846 307.584 
L 345.482449 307.584 
L 352.108052 307.584 
L 358.733655 307.584 
L 365.359258 307.584 
L 371.984861 307.584 
L 378.610464 307.584 
L 385.236067 307.584 
L 391.86167 307.584 
L 398.487273 307.584 
L 398.487273 272.248615 
L 398.487273 272.248615 
L 391.86167 262.500923 
L 385.236067 264.937846 
L 378.610464 277.122462 
L 371.984861 267.374769 
L 365.359258 280.777846 
L 358.733655 273.467077 
L 352.108052 277.122462 
L 345.482449 280.777846 
L 338.856846 286.870154 
L 332.231243 283.214769 
L 325.60564 216.199385 
L 318.980037 288.088615 
L 312.354434 280.777846 
L 305.728831 291.744 
L 299.103228 280.777846 
L 292.477625 278.340923 
L 285.852022 271.030154 
L 279.226419 283.214769 
L 272.600816 285.651692 
L 265.975213 292.962462 
L 259.34961 284.433231 
L 252.724007 289.307077 
L 246.098404 277.122462 
L 239.472801 281.996308 
L 232.847199 280.777846 
L 226.221596 289.307077 
L 219.595993 278.340923 
L 212.97039 288.088615 
L 206.344787 283.214769 
L 199.719184 275.904 
L 193.093581 290.525538 
L 186.467978 284.433231 
L 179.842375 262.500923 
L 173.216772 268.593231 
L 166.591169 288.088615 
L 159.965566 286.870154 
L 153.339963 266.156308 
L 146.71436 262.500923 
L 140.088757 290.525538 
L 133.463154 253.971692 
L 126.837551 278.340923 
L 120.211948 264.937846 
L 113.586345 301.491692 
L 106.960742 302.710154 
L 100.335139 272.248615 
L 93.709536 272.248615 
L 87.083933 274.685538 
L 80.45833 247.879385 
L 73.832727 202.796308 
z
" clip-path="url(#p428075320c)" style="fill: #1f77b4"/>
   </g>
   <g id="PolyCollection_2">
    <path d="M 73.832727 165.024 
L 73.832727 202.796308 
L 80.45833 247.879385 
L 87.083933 274.685538 
L 93.709536 272.248615 
L 100.335139 272.248615 
L 106.960742 302.710154 
L 113.586345 301.491692 
L 120.211948 264.937846 
L 126.837551 278.340923 
L 133.463154 253.971692 
L 140.088757 290.525538 
L 146.71436 262.500923 
L 153.339963 266.156308 
L 159.965566 286.870154 
L 166.591169 288.088615 
L 173.216772 268.593231 
L 179.842375 262.500923 
L 186.467978 284.433231 
L 193.093581 290.525538 
L 199.719184 275.904 
L 206.344787 283.214769 
L 212.97039 288.088615 
L 219.595993 278.340923 
L 226.221596 289.307077 
L 232.847199 280.777846 
L 239.472801 281.996308 
L 246.098404 277.122462 
L 252.724007 289.307077 
L 259.34961 284.433231 
L 265.975213 292.962462 
L 272.600816 285.651692 
L 279.226419 283.214769 
L 285.852022 271.030154 
L 292.477625 278.340923 
L 299.103228 280.777846 
L 305.728831 291.744 
L 312.354434 280.777846 
L 318.980037 288.088615 
L 325.60564 216.199385 
L 332.231243 283.214769 
L 338.856846 286.870154 
L 345.482449 280.777846 
L 352.108052 277.122462 
L 358.733655 273.467077 
L 365.359258 280.777846 
L 371.984861 267.374769 
L 378.610464 277.122462 
L 385.236067 264.937846 
L 391.86167 262.500923 
L 398.487273 272.248615 
L 398.487273 272.248615 
L 398.487273 272.248615 
L 391.86167 262.500923 
L 385.236067 264.937846 
L 378.610464 277.122462 
L 371.984861 267.374769 
L 365.359258 280.777846 
L 358.733655 273.467077 
L 352.108052 277.122462 
L 345.482449 280.777846 
L 338.856846 286.870154 
L 332.231243 283.214769 
L 325.60564 216.199385 
L 318.980037 288.088615 
L 312.354434 280.777846 
L 305.728831 291.744 
L 299.103228 280.777846 
L 292.477625 278.340923 
L 285.852022 271.030154 
L 279.226419 283.214769 
L 272.600816 285.651692 
L 265.975213 292.962462 
L 259.34961 284.433231 
L 252.724007 289.307077 
L 246.098404 277.122462 
L 239.472801 281.996308 
L 232.847199 280.777846 
L 226.221596 289.307077 
L 219.595993 278.340923 
L 212.97039 274.685538 
L 206.344787 268.593231 
L 199.719184 258.845538 
L 193.093581 275.904 
L 186.467978 273.467077 
L 179.842375 245.442462 
L 173.216772 251.534769 
L 166.591169 273.467077 
L 159.965566 272.248615 
L 153.339963 253.971692 
L 146.71436 244.224 
L 140.088757 267.374769 
L 133.463154 250.316308 
L 126.837551 256.408615 
L 120.211948 246.660923 
L 113.586345 269.811692 
L 106.960742 283.214769 
L 100.335139 251.534769 
L 93.709536 250.316308 
L 87.083933 267.374769 
L 80.45833 223.510154 
L 73.832727 165.024 
z
" clip-path="url(#p428075320c)" style="fill: #ff7f0e"/>
   </g>
   <g id="PolyCollection_3">
    <path d="M 73.832727 152.839385 
L 73.832727 165.024 
L 80.45833 223.510154 
L 87.083933 267.374769 
L 93.709536 250.316308 
L 100.335139 251.534769 
L 106.960742 283.214769 
L 113.586345 269.811692 
L 120.211948 246.660923 
L 126.837551 256.408615 
L 133.463154 250.316308 
L 140.088757 267.374769 
L 146.71436 244.224 
L 153.339963 253.971692 
L 159.965566 272.248615 
L 166.591169 273.467077 
L 173.216772 251.534769 
L 179.842375 245.442462 
L 186.467978 273.467077 
L 193.093581 275.904 
L 199.719184 258.845538 
L 206.344787 268.593231 
L 212.97039 274.685538 
L 219.595993 278.340923 
L 226.221596 289.307077 
L 232.847199 280.777846 
L 239.472801 281.996308 
L 246.098404 277.122462 
L 252.724007 289.307077 
L 259.34961 284.433231 
L 265.975213 292.962462 
L 272.600816 285.651692 
L 279.226419 283.214769 
L 285.852022 271.030154 
L 292.477625 278.340923 
L 299.103228 280.777846 
L 305.728831 291.744 
L 312.354434 280.777846 
L 318.980037 288.088615 
L 325.60564 216.199385 
L 332.231243 283.214769 
L 338.856846 286.870154 
L 345.482449 280.777846 
L 352.108052 277.122462 
L 358.733655 273.467077 
L 365.359258 280.777846 
L 371.984861 267.374769 
L 378.610464 277.122462 
L 385.236067 264.937846 
L 391.86167 262.500923 
L 398.487273 272.248615 
L 398.487273 260.064 
L 398.487273 260.064 
L 391.86167 222.291692 
L 385.236067 255.190154 
L 378.610464 266.156308 
L 371.984861 245.442462 
L 365.359258 260.064 
L 358.733655 243.005538 
L 352.108052 249.097846 
L 345.482449 273.467077 
L 338.856846 222.291692 
L 332.231243 263.719385 
L 325.60564 196.704 
L 318.980037 236.913231 
L 312.354434 256.408615 
L 305.728831 206.451692 
L 299.103228 260.064 
L 292.477625 219.854769 
L 285.852022 250.316308 
L 279.226419 264.937846 
L 272.600816 263.719385 
L 265.975213 263.719385 
L 259.34961 267.374769 
L 252.724007 278.340923 
L 246.098404 247.879385 
L 239.472801 251.534769 
L 232.847199 273.467077 
L 226.221596 273.467077 
L 219.595993 263.719385 
L 212.97039 264.937846 
L 206.344787 253.971692 
L 199.719184 247.879385 
L 193.093581 263.719385 
L 186.467978 263.719385 
L 179.842375 235.694769 
L 173.216772 240.568615 
L 166.591169 260.064 
L 159.965566 260.064 
L 153.339963 245.442462 
L 146.71436 234.476308 
L 140.088757 258.845538 
L 133.463154 241.787077 
L 126.837551 245.442462 
L 120.211948 228.384 
L 113.586345 236.913231 
L 106.960742 278.340923 
L 100.335139 233.257846 
L 93.709536 232.039385 
L 87.083933 251.534769 
L 80.45833 205.233231 
L 73.832727 152.839385 
z
" clip-path="url(#p428075320c)" style="fill: #2ca02c"/>
   </g>
   <g id="PolyCollection_4">
    <path d="M 73.832727 124.814769 
L 73.832727 152.839385 
L 80.45833 205.233231 
L 87.083933 251.534769 
L 93.709536 232.039385 
L 100.335139 233.257846 
L 106.960742 278.340923 
L 113.586345 236.913231 
L 120.211948 228.384 
L 126.837551 245.442462 
L 133.463154 241.787077 
L 140.088757 258.845538 
L 146.71436 234.476308 
L 153.339963 245.442462 
L 159.965566 260.064 
L 166.591169 260.064 
L 173.216772 240.568615 
L 179.842375 235.694769 
L 186.467978 263.719385 
L 193.093581 263.719385 
L 199.719184 247.879385 
L 206.344787 253.971692 
L 212.97039 264.937846 
L 219.595993 263.719385 
L 226.221596 273.467077 
L 232.847199 273.467077 
L 239.472801 251.534769 
L 246.098404 247.879385 
L 252.724007 278.340923 
L 259.34961 267.374769 
L 265.975213 263.719385 
L 272.600816 263.719385 
L 279.226419 264.937846 
L 285.852022 250.316308 
L 292.477625 219.854769 
L 299.103228 260.064 
L 305.728831 206.451692 
L 312.354434 256.408615 
L 318.980037 236.913231 
L 325.60564 196.704 
L 332.231243 263.719385 
L 338.856846 222.291692 
L 345.482449 273.467077 
L 352.108052 249.097846 
L 358.733655 243.005538 
L 365.359258 260.064 
L 371.984861 245.442462 
L 378.610464 266.156308 
L 385.236067 255.190154 
L 391.86167 222.291692 
L 398.487273 260.064 
L 398.487273 260.064 
L 398.487273 260.064 
L 391.86167 222.291692 
L 385.236067 255.190154 
L 378.610464 266.156308 
L 371.984861 245.442462 
L 365.359258 260.064 
L 358.733655 243.005538 
L 352.108052 249.097846 
L 345.482449 273.467077 
L 338.856846 222.291692 
L 332.231243 263.719385 
L 325.60564 196.704 
L 318.980037 236.913231 
L 312.354434 256.408615 
L 305.728831 206.451692 
L 299.103228 260.064 
L 292.477625 219.854769 
L 285.852022 250.316308 
L 279.226419 264.937846 
L 272.600816 263.719385 
L 265.975213 263.719385 
L 259.34961 267.374769 
L 252.724007 278.340923 
L 246.098404 247.879385 
L 239.472801 251.534769 
L 232.847199 273.467077 
L 226.221596 257.627077 
L 219.595993 246.660923 
L 212.97039 243.005538 
L 206.344787 239.350154 
L 199.719184 238.131692 
L 193.093581 251.534769 
L 186.467978 240.568615 
L 179.842375 214.980923 
L 173.216772 224.728615 
L 166.591169 235.694769 
L 159.965566 236.913231 
L 153.339963 234.476308 
L 146.71436 207.670154 
L 140.088757 236.913231 
L 133.463154 227.165538 
L 126.837551 232.039385 
L 120.211948 188.174769 
L 113.586345 191.830154 
L 106.960742 261.282462 
L 100.335139 196.704 
L 93.709536 207.670154 
L 87.083933 224.728615 
L 80.45833 177.208615 
L 73.832727 124.814769 
z
" clip-path="url(#p428075320c)" style="fill: #d62728"/>
   </g>
   <g id="PolyCollection_5">
    <path d="M 73.832727 94.353231 
L 73.832727 124.814769 
L 80.45833 177.208615 
L 87.083933 224.728615 
L 93.709536 207.670154 
L 100.335139 196.704 
L 106.960742 261.282462 
L 113.586345 191.830154 
L 120.211948 188.174769 
L 126.837551 232.039385 
L 133.463154 227.165538 
L 140.088757 236.913231 
L 146.71436 207.670154 
L 153.339963 234.476308 
L 159.965566 236.913231 
L 166.591169 235.694769 
L 173.216772 224.728615 
L 179.842375 214.980923 
L 186.467978 240.568615 
L 193.093581 251.534769 
L 199.719184 238.131692 
L 206.344787 239.350154 
L 212.97039 243.005538 
L 219.595993 246.660923 
L 226.221596 257.627077 
L 232.847199 273.467077 
L 239.472801 251.534769 
L 246.098404 247.879385 
L 252.724007 278.340923 
L 259.34961 267.374769 
L 265.975213 263.719385 
L 272.600816 263.719385 
L 279.226419 264.937846 
L 285.852022 250.316308 
L 292.477625 219.854769 
L 299.103228 260.064 
L 305.728831 206.451692 
L 312.354434 256.408615 
L 318.980037 236.913231 
L 325.60564 196.704 
L 332.231243 263.719385 
L 338.856846 222.291692 
L 345.482449 273.467077 
L 352.108052 249.097846 
L 358.733655 243.005538 
L 365.359258 260.064 
L 371.984861 245.442462 
L 378.610464 266.156308 
L 385.236067 255.190154 
L 391.86167 222.291692 
L 398.487273 260.064 
L 398.487273 260.064 
L 398.487273 260.064 
L 391.86167 222.291692 
L 385.236067 255.190154 
L 378.610464 266.156308 
L 371.984861 245.442462 
L 365.359258 260.064 
L 358.733655 243.005538 
L 352.108052 249.097846 
L 345.482449 273.467077 
L 338.856846 222.291692 
L 332.231243 263.719385 
L 325.60564 196.704 
L 318.980037 236.913231 
L 312.354434 256.408615 
L 305.728831 206.451692 
L 299.103228 260.064 
L 292.477625 219.854769 
L 285.852022 250.316308 
L 279.226419 264.937846 
L 272.600816 263.719385 
L 265.975213 263.719385 
L 259.34961 267.374769 
L 252.724007 278.340923 
L 246.098404 247.879385 
L 239.472801 251.534769 
L 232.847199 273.467077 
L 226.221596 257.627077 
L 219.595993 246.660923 
L 212.97039 223.510154 
L 206.344787 222.291692 
L 199.719184 218.636308 
L 193.093581 235.694769 
L 186.467978 223.510154 
L 179.842375 201.577846 
L 173.216772 212.544 
L 166.591169 219.854769 
L 159.965566 219.854769 
L 153.339963 218.636308 
L 146.71436 196.704 
L 140.088757 214.980923 
L 133.463154 210.107077 
L 126.837551 213.762462 
L 120.211948 178.427077 
L 113.586345 184.519385 
L 106.960742 221.073231 
L 100.335139 180.864 
L 93.709536 158.931692 
L 87.083933 191.830154 
L 80.45833 141.873231 
L 73.832727 94.353231 
z
" clip-path="url(#p428075320c)" style="fill: #9467bd"/>
   </g>
   <g id="PolyCollection_6">
    <path d="M 73.832727 90.697846 
L 73.832727 94.353231 
L 80.45833 141.873231 
L 87.083933 191.830154 
L 93.709536 158.931692 
L 100.335139 180.864 
L 106.960742 221.073231 
L 113.586345 184.519385 
L 120.211948 178.427077 
L 126.837551 213.762462 
L 133.463154 210.107077 
L 140.088757 214.980923 
L 146.71436 196.704 
L 153.339963 218.636308 
L 159.965566 219.854769 
L 166.591169 219.854769 
L 173.216772 212.544 
L 179.842375 201.577846 
L 186.467978 223.510154 
L 193.093581 235.694769 
L 199.719184 218.636308 
L 206.344787 222.291692 
L 212.97039 223.510154 
L 219.595993 246.660923 
L 226.221596 257.627077 
L 232.847199 273.467077 
L 239.472801 251.534769 
L 246.098404 247.879385 
L 252.724007 278.340923 
L 259.34961 267.374769 
L 265.975213 263.719385 
L 272.600816 263.719385 
L 279.226419 264.937846 
L 285.852022 250.316308 
L 292.477625 219.854769 
L 299.103228 260.064 
L 305.728831 206.451692 
L 312.354434 256.408615 
L 318.980037 236.913231 
L 325.60564 196.704 
L 332.231243 263.719385 
L 338.856846 222.291692 
L 345.482449 273.467077 
L 352.108052 249.097846 
L 358.733655 243.005538 
L 365.359258 260.064 
L 371.984861 245.442462 
L 378.610464 266.156308 
L 385.236067 255.190154 
L 391.86167 222.291692 
L 398.487273 260.064 
L 398.487273 260.064 
L 398.487273 260.064 
L 391.86167 222.291692 
L 385.236067 255.190154 
L 378.610464 266.156308 
L 371.984861 245.442462 
L 365.359258 260.064 
L 358.733655 243.005538 
L 352.108052 249.097846 
L 345.482449 273.467077 
L 338.856846 222.291692 
L 332.231243 263.719385 
L 325.60564 196.704 
L 318.980037 236.913231 
L 312.354434 256.408615 
L 305.728831 206.451692 
L 299.103228 260.064 
L 292.477625 219.854769 
L 285.852022 250.316308 
L 279.226419 264.937846 
L 272.600816 263.719385 
L 265.975213 263.719385 
L 259.34961 267.374769 
L 252.724007 278.340923 
L 246.098404 247.879385 
L 239.472801 251.534769 
L 232.847199 258.845538 
L 226.221596 247.879385 
L 219.595993 235.694769 
L 212.97039 211.325538 
L 206.344787 213.762462 
L 199.719184 207.670154 
L 193.093581 229.602462 
L 186.467978 214.980923 
L 179.842375 193.048615 
L 173.216772 204.014769 
L 166.591169 211.325538 
L 159.965566 208.888615 
L 153.339963 210.107077 
L 146.71436 186.956308 
L 140.088757 200.359385 
L 133.463154 200.359385 
L 126.837551 191.830154 
L 120.211948 165.024 
L 113.586345 171.116308 
L 106.960742 206.451692 
L 100.335139 166.242462 
L 93.709536 147.965538 
L 87.083933 189.393231 
L 80.45833 133.344 
L 73.832727 90.697846 
z
" clip-path="url(#p428075320c)" style="fill: #8c564b"/>
   </g>
   <g id="PolyCollection_7">
    <path d="M 73.832727 84.605538 
L 73.832727 90.697846 
L 80.45833 133.344 
L 87.083933 189.393231 
L 93.709536 147.965538 
L 100.335139 166.242462 
L 106.960742 206.451692 
L 113.586345 171.116308 
L 120.211948 165.024 
L 126.837551 191.830154 
L 133.463154 200.359385 
L 140.088757 200.359385 
L 146.71436 186.956308 
L 153.339963 210.107077 
L 159.965566 208.888615 
L 166.591169 211.325538 
L 173.216772 204.014769 
L 179.842375 193.048615 
L 186.467978 214.980923 
L 193.093581 229.602462 
L 199.719184 207.670154 
L 206.344787 213.762462 
L 212.97039 211.325538 
L 219.595993 235.694769 
L 226.221596 247.879385 
L 232.847199 258.845538 
L 239.472801 251.534769 
L 246.098404 247.879385 
L 252.724007 278.340923 
L 259.34961 267.374769 
L 265.975213 263.719385 
L 272.600816 263.719385 
L 279.226419 264.937846 
L 285.852022 250.316308 
L 292.477625 219.854769 
L 299.103228 260.064 
L 305.728831 206.451692 
L 312.354434 256.408615 
L 318.980037 236.913231 
L 325.60564 196.704 
L 332.231243 263.719385 
L 338.856846 222.291692 
L 345.482449 273.467077 
L 352.108052 249.097846 
L 358.733655 243.005538 
L 365.359258 260.064 
L 371.984861 245.442462 
L 378.610464 266.156308 
L 385.236067 255.190154 
L 391.86167 222.291692 
L 398.487273 260.064 
L 398.487273 260.064 
L 398.487273 260.064 
L 391.86167 222.291692 
L 385.236067 255.190154 
L 378.610464 266.156308 
L 371.984861 245.442462 
L 365.359258 260.064 
L 358.733655 243.005538 
L 352.108052 249.097846 
L 345.482449 273.467077 
L 338.856846 222.291692 
L 332.231243 263.719385 
L 325.60564 196.704 
L 318.980037 236.913231 
L 312.354434 256.408615 
L 305.728831 206.451692 
L 299.103228 260.064 
L 292.477625 219.854769 
L 285.852022 250.316308 
L 279.226419 264.937846 
L 272.600816 263.719385 
L 265.975213 263.719385 
L 259.34961 267.374769 
L 252.724007 278.340923 
L 246.098404 247.879385 
L 239.472801 251.534769 
L 232.847199 244.224 
L 226.221596 229.602462 
L 219.595993 218.636308 
L 212.97039 196.704 
L 206.344787 197.922462 
L 199.719184 195.485538 
L 193.093581 217.417846 
L 186.467978 204.014769 
L 179.842375 178.427077 
L 173.216772 193.048615 
L 166.591169 197.922462 
L 159.965566 196.704 
L 153.339963 196.704 
L 146.71436 172.334769 
L 140.088757 186.956308 
L 133.463154 190.611692 
L 126.837551 180.864 
L 120.211948 149.184 
L 113.586345 158.931692 
L 106.960742 196.704 
L 100.335139 152.839385 
L 93.709536 133.344 
L 87.083933 167.460923 
L 80.45833 117.504 
L 73.832727 84.605538 
z
" clip-path="url(#p428075320c)" style="fill: #e377c2"/>
   </g>
   <g id="PolyCollection_8">
    <path d="M 73.832727 69.984 
L 73.832727 84.605538 
L 80.45833 117.504 
L 87.083933 167.460923 
L 93.709536 133.344 
L 100.335139 152.839385 
L 106.960742 196.704 
L 113.586345 158.931692 
L 120.211948 149.184 
L 126.837551 180.864 
L 133.463154 190.611692 
L 140.088757 186.956308 
L 146.71436 172.334769 
L 153.339963 196.704 
L 159.965566 196.704 
L 166.591169 197.922462 
L 173.216772 193.048615 
L 179.842375 178.427077 
L 186.467978 204.014769 
L 193.093581 217.417846 
L 199.719184 195.485538 
L 206.344787 197.922462 
L 212.97039 196.704 
L 219.595993 218.636308 
L 226.221596 229.602462 
L 232.847199 244.224 
L 239.472801 251.534769 
L 246.098404 247.879385 
L 252.724007 278.340923 
L 259.34961 267.374769 
L 265.975213 263.719385 
L 272.600816 263.719385 
L 279.226419 264.937846 
L 285.852022 250.316308 
L 292.477625 219.854769 
L 299.103228 260.064 
L 305.728831 206.451692 
L 312.354434 256.408615 
L 318.980037 236.913231 
L 325.60564 196.704 
L 332.231243 263.719385 
L 338.856846 222.291692 
L 345.482449 273.467077 
L 352.108052 249.097846 
L 358.733655 243.005538 
L 365.359258 260.064 
L 371.984861 245.442462 
L 378.610464 266.156308 
L 385.236067 255.190154 
L 391.86167 222.291692 
L 398.487273 260.064 
L 398.487273 260.064 
L 398.487273 260.064 
L 391.86167 222.291692 
L 385.236067 255.190154 
L 378.610464 266.156308 
L 371.984861 245.442462 
L 365.359258 260.064 
L 358.733655 243.005538 
L 352.108052 249.097846 
L 345.482449 273.467077 
L 338.856846 222.291692 
L 332.231243 263.719385 
L 325.60564 196.704 
L 318.980037 236.913231 
L 312.354434 256.408615 
L 305.728831 206.451692 
L 299.103228 260.064 
L 292.477625 219.854769 
L 285.852022 250.316308 
L 279.226419 221.073231 
L 272.600816 224.728615 
L 265.975213 227.165538 
L 259.34961 223.510154 
L 252.724007 229.602462 
L 246.098404 219.854769 
L 239.472801 227.165538 
L 232.847199 212.544 
L 226.221596 216.199385 
L 219.595993 205.233231 
L 212.97039 177.208615 
L 206.344787 178.427077 
L 199.719184 183.300923 
L 193.093581 199.140923 
L 186.467978 189.393231 
L 179.842375 168.679385 
L 173.216772 184.519385 
L 166.591169 183.300923 
L 159.965566 185.737846 
L 153.339963 174.771692 
L 146.71436 163.805538 
L 140.088757 173.553231 
L 133.463154 185.737846 
L 126.837551 165.024 
L 120.211948 134.562462 
L 113.586345 144.310154 
L 106.960742 140.654769 
L 100.335139 136.999385 
L 93.709536 116.285538 
L 87.083933 136.999385 
L 80.45833 100.445538 
L 73.832727 69.984 
z
" clip-path="url(#p428075320c)" style="fill: #7f7f7f"/>
   </g>
   <g id="PolyCollection_9">
    <path d="M 73.832727 65.110154 
L 73.832727 69.984 
L 80.45833 100.445538 
L 87.083933 136.999385 
L 93.709536 116.285538 
L 100.335139 136.999385 
L 106.960742 140.654769 
L 113.586345 144.310154 
L 120.211948 134.562462 
L 126.837551 165.024 
L 133.463154 185.737846 
L 140.088757 173.553231 
L 146.71436 163.805538 
L 153.339963 174.771692 
L 159.965566 185.737846 
L 166.591169 183.300923 
L 173.216772 184.519385 
L 179.842375 168.679385 
L 186.467978 189.393231 
L 193.093581 199.140923 
L 199.719184 183.300923 
L 206.344787 178.427077 
L 212.97039 177.208615 
L 219.595993 205.233231 
L 226.221596 216.199385 
L 232.847199 212.544 
L 239.472801 227.165538 
L 246.098404 219.854769 
L 252.724007 229.602462 
L 259.34961 223.510154 
L 265.975213 227.165538 
L 272.600816 224.728615 
L 279.226419 221.073231 
L 285.852022 250.316308 
L 292.477625 219.854769 
L 299.103228 260.064 
L 305.728831 206.451692 
L 312.354434 256.408615 
L 318.980037 236.913231 
L 325.60564 196.704 
L 332.231243 263.719385 
L 338.856846 222.291692 
L 345.482449 273.467077 
L 352.108052 249.097846 
L 358.733655 243.005538 
L 365.359258 260.064 
L 371.984861 245.442462 
L 378.610464 266.156308 
L 385.236067 255.190154 
L 391.86167 222.291692 
L 398.487273 260.064 
L 398.487273 260.064 
L 398.487273 260.064 
L 391.86167 222.291692 
L 385.236067 255.190154 
L 378.610464 266.156308 
L 371.984861 245.442462 
L 365.359258 260.064 
L 358.733655 243.005538 
L 352.108052 249.097846 
L 345.482449 273.467077 
L 338.856846 222.291692 
L 332.231243 263.719385 
L 325.60564 196.704 
L 318.980037 236.913231 
L 312.354434 256.408615 
L 305.728831 206.451692 
L 299.103228 260.064 
L 292.477625 219.854769 
L 285.852022 250.316308 
L 279.226419 221.073231 
L 272.600816 224.728615 
L 265.975213 227.165538 
L 259.34961 223.510154 
L 252.724007 229.602462 
L 246.098404 219.854769 
L 239.472801 227.165538 
L 232.847199 212.544 
L 226.221596 201.577846 
L 219.595993 193.048615 
L 212.97039 168.679385 
L 206.344787 166.242462 
L 199.719184 171.116308 
L 193.093581 184.519385 
L 186.467978 177.208615 
L 179.842375 158.931692 
L 173.216772 172.334769 
L 166.591169 171.116308 
L 159.965566 174.771692 
L 153.339963 162.587077 
L 146.71436 151.620923 
L 140.088757 157.713231 
L 133.463154 175.990154 
L 126.837551 139.436308 
L 120.211948 123.596308 
L 113.586345 123.596308 
L 106.960742 127.251692 
L 100.335139 119.940923 
L 93.709536 105.319385 
L 87.083933 113.848615 
L 80.45833 84.605538 
L 73.832727 65.110154 
z
" clip-path="url(#p428075320c)" style="fill: #bcbd22"/>
   </g>
   <g id="PolyCollection_10">
    <path d="M 73.832727 63.891692 
L 73.832727 65.110154 
L 80.45833 84.605538 
L 87.083933 113.848615 
L 93.709536 105.319385 
L 100.335139 119.940923 
L 106.960742 127.251692 
L 113.586345 123.596308 
L 120.211948 123.596308 
L 126.837551 139.436308 
L 133.463154 175.990154 
L 140.088757 157.713231 
L 146.71436 151.620923 
L 153.339963 162.587077 
L 159.965566 174.771692 
L 166.591169 171.116308 
L 173.216772 172.334769 
L 179.842375 158.931692 
L 186.467978 177.208615 
L 193.093581 184.519385 
L 199.719184 171.116308 
L 206.344787 166.242462 
L 212.97039 168.679385 
L 219.595993 193.048615 
L 226.221596 201.577846 
L 232.847199 212.544 
L 239.472801 227.165538 
L 246.098404 219.854769 
L 252.724007 229.602462 
L 259.34961 223.510154 
L 265.975213 227.165538 
L 272.600816 224.728615 
L 279.226419 221.073231 
L 285.852022 250.316308 
L 292.477625 219.854769 
L 299.103228 260.064 
L 305.728831 206.451692 
L 312.354434 256.408615 
L 318.980037 236.913231 
L 325.60564 196.704 
L 332.231243 263.719385 
L 338.856846 222.291692 
L 345.482449 273.467077 
L 352.108052 249.097846 
L 358.733655 243.005538 
L 365.359258 260.064 
L 371.984861 245.442462 
L 378.610464 266.156308 
L 385.236067 255.190154 
L 391.86167 222.291692 
L 398.487273 260.064 
L 398.487273 260.064 
L 398.487273 260.064 
L 391.86167 222.291692 
L 385.236067 255.190154 
L 378.610464 266.156308 
L 371.984861 245.442462 
L 365.359258 260.064 
L 358.733655 243.005538 
L 352.108052 249.097846 
L 345.482449 273.467077 
L 338.856846 222.291692 
L 332.231243 263.719385 
L 325.60564 196.704 
L 318.980037 236.913231 
L 312.354434 233.257846 
L 305.728831 185.737846 
L 299.103228 236.913231 
L 292.477625 196.704 
L 285.852022 227.165538 
L 279.226419 204.014769 
L 272.600816 207.670154 
L 265.975213 211.325538 
L 259.34961 207.670154 
L 252.724007 214.980923 
L 246.098404 204.014769 
L 239.472801 211.325538 
L 232.847199 200.359385 
L 226.221596 189.393231 
L 219.595993 178.427077 
L 212.97039 156.494769 
L 206.344787 162.587077 
L 199.719184 163.805538 
L 193.093581 179.645538 
L 186.467978 155.276308 
L 179.842375 144.310154 
L 173.216772 160.150154 
L 166.591169 162.587077 
L 159.965566 165.024 
L 153.339963 149.184 
L 146.71436 136.999385 
L 140.088757 144.310154 
L 133.463154 158.931692 
L 126.837551 124.814769 
L 120.211948 105.319385 
L 113.586345 107.756308 
L 106.960742 111.411692 
L 100.335139 108.974769 
L 93.709536 93.134769 
L 87.083933 100.445538 
L 80.45833 71.202462 
L 73.832727 63.891692 
z
" clip-path="url(#p428075320c)" style="fill: #17becf"/>
   </g>
   <g id="PolyCollection_11">
    <path d="M 73.832727 63.891692 
L 73.832727 63.891692 
L 80.45833 71.202462 
L 87.083933 100.445538 
L 93.709536 93.134769 
L 100.335139 108.974769 
L 106.960742 111.411692 
L 113.586345 107.756308 
L 120.211948 105.319385 
L 126.837551 124.814769 
L 133.463154 158.931692 
L 140.088757 144.310154 
L 146.71436 136.999385 
L 153.339963 149.184 
L 159.965566 165.024 
L 166.591169 162.587077 
L 173.216772 160.150154 
L 179.842375 144.310154 
L 186.467978 155.276308 
L 193.093581 179.645538 
L 199.719184 163.805538 
L 206.344787 162.587077 
L 212.97039 156.494769 
L 219.595993 178.427077 
L 226.221596 189.393231 
L 232.847199 200.359385 
L 239.472801 211.325538 
L 246.098404 204.014769 
L 252.724007 214.980923 
L 259.34961 207.670154 
L 265.975213 211.325538 
L 272.600816 207.670154 
L 279.226419 204.014769 
L 285.852022 227.165538 
L 292.477625 196.704 
L 299.103228 236.913231 
L 305.728831 185.737846 
L 312.354434 233.257846 
L 318.980037 236.913231 
L 325.60564 196.704 
L 332.231243 263.719385 
L 338.856846 222.291692 
L 345.482449 273.467077 
L 352.108052 249.097846 
L 358.733655 243.005538 
L 365.359258 260.064 
L 371.984861 245.442462 
L 378.610464 266.156308 
L 385.236067 255.190154 
L 391.86167 222.291692 
L 398.487273 260.064 
L 398.487273 260.064 
L 398.487273 260.064 
L 391.86167 222.291692 
L 385.236067 255.190154 
L 378.610464 266.156308 
L 371.984861 245.442462 
L 365.359258 260.064 
L 358.733655 243.005538 
L 352.108052 249.097846 
L 345.482449 273.467077 
L 338.856846 222.291692 
L 332.231243 263.719385 
L 325.60564 196.704 
L 318.980037 236.913231 
L 312.354434 233.257846 
L 305.728831 185.737846 
L 299.103228 236.913231 
L 292.477625 196.704 
L 285.852022 227.165538 
L 279.226419 204.014769 
L 272.600816 207.670154 
L 265.975213 211.325538 
L 259.34961 207.670154 
L 252.724007 214.980923 
L 246.098404 204.014769 
L 239.472801 211.325538 
L 232.847199 188.174769 
L 226.221596 175.990154 
L 219.595993 167.460923 
L 212.97039 147.965538 
L 206.344787 156.494769 
L 199.719184 156.494769 
L 193.093581 166.242462 
L 186.467978 144.310154 
L 179.842375 132.125538 
L 173.216772 150.402462 
L 166.591169 154.057846 
L 159.965566 151.620923 
L 153.339963 138.217846 
L 146.71436 129.688615 
L 140.088757 136.999385 
L 133.463154 130.907077 
L 126.837551 101.664 
L 120.211948 80.950154 
L 113.586345 93.134769 
L 106.960742 99.227077 
L 100.335139 96.790154 
L 93.709536 83.387077 
L 87.083933 94.353231 
L 80.45833 68.765538 
L 73.832727 63.891692 
z
" clip-path="url(#p428075320c)" style="fill: #1f77b4"/>
   </g>
   <g id="PolyCollection_12">
    <path d="M 73.832727 63.891692 
L 73.832727 63.891692 
L 80.45833 68.765538 
L 87.083933 94.353231 
L 93.709536 83.387077 
L 100.335139 96.790154 
L 106.960742 99.227077 
L 113.586345 93.134769 
L 120.211948 80.950154 
L 126.837551 101.664 
L 133.463154 130.907077 
L 140.088757 136.999385 
L 146.71436 129.688615 
L 153.339963 138.217846 
L 159.965566 151.620923 
L 166.591169 154.057846 
L 173.216772 150.402462 
L 179.842375 132.125538 
L 186.467978 144.310154 
L 193.093581 166.242462 
L 199.719184 156.494769 
L 206.344787 156.494769 
L 212.97039 147.965538 
L 219.595993 167.460923 
L 226.221596 175.990154 
L 232.847199 188.174769 
L 239.472801 211.325538 
L 246.098404 204.014769 
L 252.724007 214.980923 
L 259.34961 207.670154 
L 265.975213 211.325538 
L 272.600816 207.670154 
L 279.226419 204.014769 
L 285.852022 227.165538 
L 292.477625 196.704 
L 299.103228 236.913231 
L 305.728831 185.737846 
L 312.354434 233.257846 
L 318.980037 236.913231 
L 325.60564 196.704 
L 332.231243 263.719385 
L 338.856846 222.291692 
L 345.482449 273.467077 
L 352.108052 249.097846 
L 358.733655 243.005538 
L 365.359258 260.064 
L 371.984861 245.442462 
L 378.610464 266.156308 
L 385.236067 255.190154 
L 391.86167 222.291692 
L 398.487273 260.064 
L 398.487273 230.820923 
L 398.487273 230.820923 
L 391.86167 197.922462 
L 385.236067 216.199385 
L 378.610464 238.131692 
L 371.984861 208.888615 
L 365.359258 230.820923 
L 358.733655 202.796308 
L 352.108052 216.199385 
L 345.482449 251.534769 
L 338.856846 202.796308 
L 332.231243 234.476308 
L 325.60564 179.645538 
L 318.980037 183.300923 
L 312.354434 190.611692 
L 305.728831 150.402462 
L 299.103228 184.519385 
L 292.477625 155.276308 
L 285.852022 186.956308 
L 279.226419 169.897846 
L 272.600816 169.897846 
L 265.975213 160.150154 
L 259.34961 183.300923 
L 252.724007 191.830154 
L 246.098404 185.737846 
L 239.472801 188.174769 
L 232.847199 171.116308 
L 226.221596 157.713231 
L 219.595993 151.620923 
L 212.97039 133.344 
L 206.344787 138.217846 
L 199.719184 139.436308 
L 193.093581 147.965538 
L 186.467978 124.814769 
L 179.842375 121.159385 
L 173.216772 138.217846 
L 166.591169 135.780923 
L 159.965566 136.999385 
L 153.339963 127.251692 
L 146.71436 119.940923 
L 140.088757 121.159385 
L 133.463154 122.377846 
L 126.837551 90.697846 
L 120.211948 74.857846 
L 113.586345 73.639385 
L 106.960742 79.731692 
L 100.335139 82.168615 
L 93.709536 65.110154 
L 87.083933 65.110154 
L 80.45833 62.673231 
L 73.832727 63.891692 
z
" clip-path="url(#p428075320c)" style="fill: #ff7f0e"/>
   </g>
   <g id="PolyCollection_13">
    <path d="M 73.832727 63.891692 
L 73.832727 63.891692 
L 80.45833 62.673231 
L 87.083933 65.110154 
L 93.709536 65.110154 
L 100.335139 82.168615 
L 106.960742 79.731692 
L 113.586345 73.639385 
L 120.211948 74.857846 
L 126.837551 90.697846 
L 133.463154 122.377846 
L 140.088757 121.159385 
L 146.71436 119.940923 
L 153.339963 127.251692 
L 159.965566 136.999385 
L 166.591169 135.780923 
L 173.216772 138.217846 
L 179.842375 121.159385 
L 186.467978 124.814769 
L 193.093581 147.965538 
L 199.719184 139.436308 
L 206.344787 138.217846 
L 212.97039 133.344 
L 219.595993 151.620923 
L 226.221596 157.713231 
L 232.847199 171.116308 
L 239.472801 188.174769 
L 246.098404 185.737846 
L 252.724007 191.830154 
L 259.34961 183.300923 
L 265.975213 160.150154 
L 272.600816 169.897846 
L 279.226419 169.897846 
L 285.852022 186.956308 
L 292.477625 155.276308 
L 299.103228 184.519385 
L 305.728831 150.402462 
L 312.354434 190.611692 
L 318.980037 183.300923 
L 325.60564 179.645538 
L 332.231243 234.476308 
L 338.856846 202.796308 
L 345.482449 251.534769 
L 352.108052 216.199385 
L 358.733655 202.796308 
L 365.359258 230.820923 
L 371.984861 208.888615 
L 378.610464 238.131692 
L 385.236067 216.199385 
L 391.86167 197.922462 
L 398.487273 230.820923 
L 398.487273 202.796308 
L 398.487273 202.796308 
L 391.86167 174.771692 
L 385.236067 189.393231 
L 378.610464 214.980923 
L 371.984861 186.956308 
L 365.359258 210.107077 
L 358.733655 175.990154 
L 352.108052 186.956308 
L 345.482449 238.131692 
L 338.856846 184.519385 
L 332.231243 211.325538 
L 325.60564 163.805538 
L 318.980037 156.494769 
L 312.354434 163.805538 
L 305.728831 119.940923 
L 299.103228 152.839385 
L 292.477625 130.907077 
L 285.852022 166.242462 
L 279.226419 146.747077 
L 272.600816 141.873231 
L 265.975213 139.436308 
L 259.34961 167.460923 
L 252.724007 172.334769 
L 246.098404 163.805538 
L 239.472801 165.024 
L 232.847199 149.184 
L 226.221596 141.873231 
L 219.595993 139.436308 
L 212.97039 117.504 
L 206.344787 121.159385 
L 199.719184 124.814769 
L 193.093581 126.033231 
L 186.467978 116.285538 
L 179.842375 105.319385 
L 173.216772 117.504 
L 166.591169 119.940923 
L 159.965566 122.377846 
L 153.339963 116.285538 
L 146.71436 107.756308 
L 140.088757 112.630154 
L 133.463154 110.193231 
L 126.837551 73.639385 
L 120.211948 61.454769 
L 113.586345 60.236308 
L 106.960742 65.110154 
L 100.335139 65.110154 
L 93.709536 63.891692 
L 87.083933 65.110154 
L 80.45833 62.673231 
L 73.832727 63.891692 
z
" clip-path="url(#p428075320c)" style="fill: #2ca02c"/>
   </g>
   <g id="PolyCollection_14">
    <path d="M 73.832727 63.891692 
L 73.832727 63.891692 
L 80.45833 62.673231 
L 87.083933 65.110154 
L 93.709536 63.891692 
L 100.335139 65.110154 
L 106.960742 65.110154 
L 113.586345 60.236308 
L 120.211948 61.454769 
L 126.837551 73.639385 
L 133.463154 110.193231 
L 140.088757 112.630154 
L 146.71436 107.756308 
L 153.339963 116.285538 
L 159.965566 122.377846 
L 166.591169 119.940923 
L 173.216772 117.504 
L 179.842375 105.319385 
L 186.467978 116.285538 
L 193.093581 126.033231 
L 199.719184 124.814769 
L 206.344787 121.159385 
L 212.97039 117.504 
L 219.595993 139.436308 
L 226.221596 141.873231 
L 232.847199 149.184 
L 239.472801 165.024 
L 246.098404 163.805538 
L 252.724007 172.334769 
L 259.34961 167.460923 
L 265.975213 139.436308 
L 272.600816 141.873231 
L 279.226419 146.747077 
L 285.852022 166.242462 
L 292.477625 130.907077 
L 299.103228 152.839385 
L 305.728831 119.940923 
L 312.354434 163.805538 
L 318.980037 156.494769 
L 325.60564 163.805538 
L 332.231243 211.325538 
L 338.856846 184.519385 
L 345.482449 238.131692 
L 352.108052 186.956308 
L 358.733655 175.990154 
L 365.359258 210.107077 
L 371.984861 186.956308 
L 378.610464 214.980923 
L 385.236067 189.393231 
L 391.86167 174.771692 
L 398.487273 202.796308 
L 398.487273 162.587077 
L 398.487273 162.587077 
L 391.86167 168.679385 
L 385.236067 154.057846 
L 378.610464 145.528615 
L 371.984861 146.747077 
L 365.359258 144.310154 
L 358.733655 145.528615 
L 352.108052 166.242462 
L 345.482449 219.854769 
L 338.856846 161.368615 
L 332.231243 163.805538 
L 325.60564 149.184 
L 318.980037 138.217846 
L 312.354434 139.436308 
L 305.728831 110.193231 
L 299.103228 108.974769 
L 292.477625 119.940923 
L 285.852022 145.528615 
L 279.226419 123.596308 
L 272.600816 116.285538 
L 265.975213 129.688615 
L 259.34961 158.931692 
L 252.724007 157.713231 
L 246.098404 149.184 
L 239.472801 152.839385 
L 232.847199 127.251692 
L 226.221596 123.596308 
L 219.595993 112.630154 
L 212.97039 101.664 
L 206.344787 107.756308 
L 199.719184 108.974769 
L 193.093581 111.411692 
L 186.467978 101.664 
L 179.842375 100.445538 
L 173.216772 106.537846 
L 166.591169 107.756308 
L 159.965566 110.193231 
L 153.339963 107.756308 
L 146.71436 96.790154 
L 140.088757 101.664 
L 133.463154 100.445538 
L 126.837551 68.765538 
L 120.211948 61.454769 
L 113.586345 60.236308 
L 106.960742 65.110154 
L 100.335139 65.110154 
L 93.709536 63.891692 
L 87.083933 65.110154 
L 80.45833 62.673231 
L 73.832727 63.891692 
z
" clip-path="url(#p428075320c)" style="fill: #d62728"/>
   </g>
   <g id="PolyCollection_15">
    <path d="M 73.832727 63.891692 
L 73.832727 63.891692 
L 80.45833 62.673231 
L 87.083933 65.110154 
L 93.709536 63.891692 
L 100.335139 65.110154 
L 106.960742 65.110154 
L 113.586345 60.236308 
L 120.211948 61.454769 
L 126.837551 68.765538 
L 133.463154 100.445538 
L 140.088757 101.664 
L 146.71436 96.790154 
L 153.339963 107.756308 
L 159.965566 110.193231 
L 166.591169 107.756308 
L 173.216772 106.537846 
L 179.842375 100.445538 
L 186.467978 101.664 
L 193.093581 111.411692 
L 199.719184 108.974769 
L 206.344787 107.756308 
L 212.97039 101.664 
L 219.595993 112.630154 
L 226.221596 123.596308 
L 232.847199 127.251692 
L 239.472801 152.839385 
L 246.098404 149.184 
L 252.724007 157.713231 
L 259.34961 158.931692 
L 265.975213 129.688615 
L 272.600816 116.285538 
L 279.226419 123.596308 
L 285.852022 145.528615 
L 292.477625 119.940923 
L 299.103228 108.974769 
L 305.728831 110.193231 
L 312.354434 139.436308 
L 318.980037 138.217846 
L 325.60564 149.184 
L 332.231243 163.805538 
L 338.856846 161.368615 
L 345.482449 219.854769 
L 352.108052 166.242462 
L 358.733655 145.528615 
L 365.359258 144.310154 
L 371.984861 146.747077 
L 378.610464 145.528615 
L 385.236067 154.057846 
L 391.86167 168.679385 
L 398.487273 162.587077 
L 398.487273 162.587077 
L 398.487273 162.587077 
L 391.86167 168.679385 
L 385.236067 154.057846 
L 378.610464 145.528615 
L 371.984861 146.747077 
L 365.359258 144.310154 
L 358.733655 145.528615 
L 352.108052 166.242462 
L 345.482449 219.854769 
L 338.856846 161.368615 
L 332.231243 163.805538 
L 325.60564 149.184 
L 318.980037 138.217846 
L 312.354434 139.436308 
L 305.728831 110.193231 
L 299.103228 108.974769 
L 292.477625 119.940923 
L 285.852022 145.528615 
L 279.226419 123.596308 
L 272.600816 116.285538 
L 265.975213 112.630154 
L 259.34961 135.780923 
L 252.724007 139.436308 
L 246.098404 130.907077 
L 239.472801 134.562462 
L 232.847199 115.067077 
L 226.221596 113.848615 
L 219.595993 100.445538 
L 212.97039 90.697846 
L 206.344787 93.134769 
L 199.719184 95.571692 
L 193.093581 99.227077 
L 186.467978 94.353231 
L 179.842375 88.260923 
L 173.216772 96.790154 
L 166.591169 98.008615 
L 159.965566 98.008615 
L 153.339963 96.790154 
L 146.71436 84.605538 
L 140.088757 91.916308 
L 133.463154 91.916308 
L 126.837551 67.547077 
L 120.211948 61.454769 
L 113.586345 60.236308 
L 106.960742 65.110154 
L 100.335139 65.110154 
L 93.709536 63.891692 
L 87.083933 65.110154 
L 80.45833 62.673231 
L 73.832727 63.891692 
z
" clip-path="url(#p428075320c)" style="fill: #9467bd"/>
   </g>
   <g id="PolyCollection_16">
    <path d="M 73.832727 63.891692 
L 73.832727 63.891692 
L 80.45833 62.673231 
L 87.083933 65.110154 
L 93.709536 63.891692 
L 100.335139 65.110154 
L 106.960742 65.110154 
L 113.586345 60.236308 
L 120.211948 61.454769 
L 126.837551 67.547077 
L 133.463154 91.916308 
L 140.088757 91.916308 
L 146.71436 84.605538 
L 153.339963 96.790154 
L 159.965566 98.008615 
L 166.591169 98.008615 
L 173.216772 96.790154 
L 179.842375 88.260923 
L 186.467978 94.353231 
L 193.093581 99.227077 
L 199.719184 95.571692 
L 206.344787 93.134769 
L 212.97039 90.697846 
L 219.595993 100.445538 
L 226.221596 113.848615 
L 232.847199 115.067077 
L 239.472801 134.562462 
L 246.098404 130.907077 
L 252.724007 139.436308 
L 259.34961 135.780923 
L 265.975213 112.630154 
L 272.600816 116.285538 
L 279.226419 123.596308 
L 285.852022 145.528615 
L 292.477625 119.940923 
L 299.103228 108.974769 
L 305.728831 110.193231 
L 312.354434 139.436308 
L 318.980037 138.217846 
L 325.60564 149.184 
L 332.231243 163.805538 
L 338.856846 161.368615 
L 345.482449 219.854769 
L 352.108052 166.242462 
L 358.733655 145.528615 
L 365.359258 144.310154 
L 371.984861 146.747077 
L 378.610464 145.528615 
L 385.236067 154.057846 
L 391.86167 168.679385 
L 398.487273 162.587077 
L 398.487273 130.907077 
L 398.487273 130.907077 
L 391.86167 130.907077 
L 385.236067 128.470154 
L 378.610464 112.630154 
L 371.984861 117.504 
L 365.359258 121.159385 
L 358.733655 122.377846 
L 352.108052 118.722462 
L 345.482449 191.830154 
L 338.856846 123.596308 
L 332.231243 140.654769 
L 325.60564 127.251692 
L 318.980037 115.067077 
L 312.354434 94.353231 
L 305.728831 79.731692 
L 299.103228 82.168615 
L 292.477625 79.731692 
L 285.852022 123.596308 
L 279.226419 90.697846 
L 272.600816 82.168615 
L 265.975213 89.479385 
L 259.34961 112.630154 
L 252.724007 111.411692 
L 246.098404 107.756308 
L 239.472801 106.537846 
L 232.847199 91.916308 
L 226.221596 93.134769 
L 219.595993 84.605538 
L 212.97039 78.513231 
L 206.344787 77.294769 
L 199.719184 82.168615 
L 193.093581 83.387077 
L 186.467978 85.824 
L 179.842375 83.387077 
L 173.216772 82.168615 
L 166.591169 87.042462 
L 159.965566 84.605538 
L 153.339963 83.387077 
L 146.71436 77.294769 
L 140.088757 76.076308 
L 133.463154 68.765538 
L 126.837551 63.891692 
L 120.211948 61.454769 
L 113.586345 60.236308 
L 106.960742 65.110154 
L 100.335139 65.110154 
L 93.709536 63.891692 
L 87.083933 65.110154 
L 80.45833 62.673231 
L 73.832727 63.891692 
z
" clip-path="url(#p428075320c)" style="fill: #8c564b"/>
   </g>
   <g id="PolyCollection_17">
    <path d="M 73.832727 63.891692 
L 73.832727 63.891692 
L 80.45833 62.673231 
L 87.083933 65.110154 
L 93.709536 63.891692 
L 100.335139 65.110154 
L 106.960742 65.110154 
L 113.586345 60.236308 
L 120.211948 61.454769 
L 126.837551 63.891692 
L 133.463154 68.765538 
L 140.088757 76.076308 
L 146.71436 77.294769 
L 153.339963 83.387077 
L 159.965566 84.605538 
L 166.591169 87.042462 
L 173.216772 82.168615 
L 179.842375 83.387077 
L 186.467978 85.824 
L 193.093581 83.387077 
L 199.719184 82.168615 
L 206.344787 77.294769 
L 212.97039 78.513231 
L 219.595993 84.605538 
L 226.221596 93.134769 
L 232.847199 91.916308 
L 239.472801 106.537846 
L 246.098404 107.756308 
L 252.724007 111.411692 
L 259.34961 112.630154 
L 265.975213 89.479385 
L 272.600816 82.168615 
L 279.226419 90.697846 
L 285.852022 123.596308 
L 292.477625 79.731692 
L 299.103228 82.168615 
L 305.728831 79.731692 
L 312.354434 94.353231 
L 318.980037 115.067077 
L 325.60564 127.251692 
L 332.231243 140.654769 
L 338.856846 123.596308 
L 345.482449 191.830154 
L 352.108052 118.722462 
L 358.733655 122.377846 
L 365.359258 121.159385 
L 371.984861 117.504 
L 378.610464 112.630154 
L 385.236067 128.470154 
L 391.86167 130.907077 
L 398.487273 130.907077 
L 398.487273 130.907077 
L 398.487273 130.907077 
L 391.86167 130.907077 
L 385.236067 128.470154 
L 378.610464 112.630154 
L 371.984861 117.504 
L 365.359258 121.159385 
L 358.733655 122.377846 
L 352.108052 118.722462 
L 345.482449 191.830154 
L 338.856846 123.596308 
L 332.231243 140.654769 
L 325.60564 127.251692 
L 318.980037 115.067077 
L 312.354434 94.353231 
L 305.728831 79.731692 
L 299.103228 82.168615 
L 292.477625 79.731692 
L 285.852022 123.596308 
L 279.226419 90.697846 
L 272.600816 82.168615 
L 265.975213 89.479385 
L 259.34961 83.387077 
L 252.724007 84.605538 
L 246.098404 79.731692 
L 239.472801 79.731692 
L 232.847199 72.420923 
L 226.221596 76.076308 
L 219.595993 68.765538 
L 212.97039 66.328615 
L 206.344787 66.328615 
L 199.719184 71.202462 
L 193.093581 74.857846 
L 186.467978 72.420923 
L 179.842375 69.984 
L 173.216772 69.984 
L 166.591169 72.420923 
L 159.965566 74.857846 
L 153.339963 72.420923 
L 146.71436 68.765538 
L 140.088757 60.236308 
L 133.463154 55.362462 
L 126.837551 61.454769 
L 120.211948 61.454769 
L 113.586345 60.236308 
L 106.960742 65.110154 
L 100.335139 65.110154 
L 93.709536 63.891692 
L 87.083933 65.110154 
L 80.45833 62.673231 
L 73.832727 63.891692 
z
" clip-path="url(#p428075320c)" style="fill: #e377c2"/>
   </g>
   <g id="PolyCollection_18">
    <path d="M 73.832727 63.891692 
L 73.832727 63.891692 
L 80.45833 62.673231 
L 87.083933 65.110154 
L 93.709536 63.891692 
L 100.335139 65.110154 
L 106.960742 65.110154 
L 113.586345 60.236308 
L 120.211948 61.454769 
L 126.837551 61.454769 
L 133.463154 55.362462 
L 140.088757 60.236308 
L 146.71436 68.765538 
L 153.339963 72.420923 
L 159.965566 74.857846 
L 166.591169 72.420923 
L 173.216772 69.984 
L 179.842375 69.984 
L 186.467978 72.420923 
L 193.093581 74.857846 
L 199.719184 71.202462 
L 206.344787 66.328615 
L 212.97039 66.328615 
L 219.595993 68.765538 
L 226.221596 76.076308 
L 232.847199 72.420923 
L 239.472801 79.731692 
L 246.098404 79.731692 
L 252.724007 84.605538 
L 259.34961 83.387077 
L 265.975213 89.479385 
L 272.600816 82.168615 
L 279.226419 90.697846 
L 285.852022 123.596308 
L 292.477625 79.731692 
L 299.103228 82.168615 
L 305.728831 79.731692 
L 312.354434 94.353231 
L 318.980037 115.067077 
L 325.60564 127.251692 
L 332.231243 140.654769 
L 338.856846 123.596308 
L 345.482449 191.830154 
L 352.108052 118.722462 
L 358.733655 122.377846 
L 365.359258 121.159385 
L 371.984861 117.504 
L 378.610464 112.630154 
L 385.236067 128.470154 
L 391.86167 130.907077 
L 398.487273 130.907077 
L 398.487273 94.353231 
L 398.487273 94.353231 
L 391.86167 101.664 
L 385.236067 89.479385 
L 378.610464 88.260923 
L 371.984861 93.134769 
L 365.359258 91.916308 
L 358.733655 91.916308 
L 352.108052 91.916308 
L 345.482449 90.697846 
L 338.856846 89.479385 
L 332.231243 94.353231 
L 325.60564 96.790154 
L 318.980037 89.479385 
L 312.354434 68.765538 
L 305.728831 63.891692 
L 299.103228 61.454769 
L 292.477625 61.454769 
L 285.852022 63.891692 
L 279.226419 63.891692 
L 272.600816 62.673231 
L 265.975213 63.891692 
L 259.34961 65.110154 
L 252.724007 66.328615 
L 246.098404 63.891692 
L 239.472801 63.891692 
L 232.847199 59.017846 
L 226.221596 61.454769 
L 219.595993 57.799385 
L 212.97039 54.144 
L 206.344787 56.580923 
L 199.719184 60.236308 
L 193.093581 65.110154 
L 186.467978 61.454769 
L 179.842375 63.891692 
L 173.216772 62.673231 
L 166.591169 59.017846 
L 159.965566 60.236308 
L 153.339963 62.673231 
L 146.71436 59.017846 
L 140.088757 59.017846 
L 133.463154 55.362462 
L 126.837551 61.454769 
L 120.211948 61.454769 
L 113.586345 60.236308 
L 106.960742 65.110154 
L 100.335139 65.110154 
L 93.709536 63.891692 
L 87.083933 65.110154 
L 80.45833 62.673231 
L 73.832727 63.891692 
z
" clip-path="url(#p428075320c)" style="fill: #7f7f7f"/>
   </g>
   <g id="PolyCollection_19">
    <path d="M 73.832727 63.891692 
L 73.832727 63.891692 
L 80.45833 62.673231 
L 87.083933 65.110154 
L 93.709536 63.891692 
L 100.335139 65.110154 
L 106.960742 65.110154 
L 113.586345 60.236308 
L 120.211948 61.454769 
L 126.837551 61.454769 
L 133.463154 55.362462 
L 140.088757 59.017846 
L 146.71436 59.017846 
L 153.339963 62.673231 
L 159.965566 60.236308 
L 166.591169 59.017846 
L 173.216772 62.673231 
L 179.842375 63.891692 
L 186.467978 61.454769 
L 193.093581 65.110154 
L 199.719184 60.236308 
L 206.344787 56.580923 
L 212.97039 54.144 
L 219.595993 57.799385 
L 226.221596 61.454769 
L 232.847199 59.017846 
L 239.472801 63.891692 
L 246.098404 63.891692 
L 252.724007 66.328615 
L 259.34961 65.110154 
L 265.975213 63.891692 
L 272.600816 62.673231 
L 279.226419 63.891692 
L 285.852022 63.891692 
L 292.477625 61.454769 
L 299.103228 61.454769 
L 305.728831 63.891692 
L 312.354434 68.765538 
L 318.980037 89.479385 
L 325.60564 96.790154 
L 332.231243 94.353231 
L 338.856846 89.479385 
L 345.482449 90.697846 
L 352.108052 91.916308 
L 358.733655 91.916308 
L 365.359258 91.916308 
L 371.984861 93.134769 
L 378.610464 88.260923 
L 385.236067 89.479385 
L 391.86167 101.664 
L 398.487273 94.353231 
L 398.487273 61.454769 
L 398.487273 61.454769 
L 391.86167 62.673231 
L 385.236067 63.891692 
L 378.610464 62.673231 
L 371.984861 62.673231 
L 365.359258 62.673231 
L 358.733655 63.891692 
L 352.108052 63.891692 
L 345.482449 65.110154 
L 338.856846 62.673231 
L 332.231243 65.110154 
L 325.60564 63.891692 
L 318.980037 63.891692 
L 312.354434 63.891692 
L 305.728831 63.891692 
L 299.103228 61.454769 
L 292.477625 61.454769 
L 285.852022 63.891692 
L 279.226419 63.891692 
L 272.600816 62.673231 
L 265.975213 63.891692 
L 259.34961 65.110154 
L 252.724007 66.328615 
L 246.098404 63.891692 
L 239.472801 63.891692 
L 232.847199 59.017846 
L 226.221596 61.454769 
L 219.595993 57.799385 
L 212.97039 54.144 
L 206.344787 56.580923 
L 199.719184 60.236308 
L 193.093581 65.110154 
L 186.467978 61.454769 
L 179.842375 63.891692 
L 173.216772 62.673231 
L 166.591169 59.017846 
L 159.965566 60.236308 
L 153.339963 62.673231 
L 146.71436 59.017846 
L 140.088757 59.017846 
L 133.463154 55.362462 
L 126.837551 61.454769 
L 120.211948 61.454769 
L 113.586345 60.236308 
L 106.960742 65.110154 
L 100.335139 65.110154 
L 93.709536 63.891692 
L 87.083933 65.110154 
L 80.45833 62.673231 
L 73.832727 63.891692 
z
" clip-path="url(#p428075320c)" style="fill: #bcbd22"/>
   </g>
   <g id="matplotlib.axis_1">
    <g id="xtick_1">
     <g id="line2d_1">
      <defs>
       <path id="mb5d8cb424b" d="M 0 0 
L 0 3.5 
" style="stroke: #000000; stroke-width: 0.8"/>
      </defs>
      <g>
       <use xlink:href="#mb5d8cb424b" x="73.832727" y="307.584" style="stroke: #000000; stroke-width: 0.8"/>
      </g>
     </g>
     <g id="text_1">
      <!-- 0 -->
      <g transform="translate(70.651477 322.182437) scale(0.1 -0.1)">
       <defs>
        <path id="DejaVuSans-30" d="M 2034 4250 
Q 1547 4250 1301 3770 
Q 1056 3291 1056 2328 
Q 1056 1369 1301 889 
Q 1547 409 2034 409 
Q 2525 409 2770 889 
Q 3016 1369 3016 2328 
Q 3016 3291 2770 3770 
Q 2525 4250 2034 4250 
z
M 2034 4750 
Q 2819 4750 3233 4129 
Q 3647 3509 3647 2328 
Q 3647 1150 3233 529 
Q 2819 -91 2034 -91 
Q 1250 -91 836 529 
Q 422 1150 422 2328 
Q 422 3509 836 4129 
Q 1250 4750 2034 4750 
z
" transform="scale(0.015625)"/>
       </defs>
       <use xlink:href="#DejaVuSans-30"/>
      </g>
     </g>
    </g>
    <g id="xtick_2">
     <g id="line2d_2">
      <g>
       <use xlink:href="#mb5d8cb424b" x="140.088757" y="307.584" style="stroke: #000000; stroke-width: 0.8"/>
      </g>
     </g>
     <g id="text_2">
      <!-- 10 -->
      <g transform="translate(133.726257 322.182437) scale(0.1 -0.1)">
       <defs>
        <path id="DejaVuSans-31" d="M 794 531 
L 1825 531 
L 1825 4091 
L 703 3866 
L 703 4441 
L 1819 4666 
L 2450 4666 
L 2450 531 
L 3481 531 
L 3481 0 
L 794 0 
L 794 531 
z
" transform="scale(0.015625)"/>
       </defs>
       <use xlink:href="#DejaVuSans-31"/>
       <use xlink:href="#DejaVuSans-30" x="63.623047"/>
      </g>
     </g>
    </g>
    <g id="xtick_3">
     <g id="line2d_3">
      <g>
       <use xlink:href="#mb5d8cb424b" x="206.344787" y="307.584" style="stroke: #000000; stroke-width: 0.8"/>
      </g>
     </g>
     <g id="text_3">
      <!-- 20 -->
      <g transform="translate(199.982287 322.182437) scale(0.1 -0.1)">
       <defs>
        <path id="DejaVuSans-32" d="M 1228 531 
L 3431 531 
L 3431 0 
L 469 0 
L 469 531 
Q 828 903 1448 1529 
Q 2069 2156 2228 2338 
Q 2531 2678 2651 2914 
Q 2772 3150 2772 3378 
Q 2772 3750 2511 3984 
Q 2250 4219 1831 4219 
Q 1534 4219 1204 4116 
Q 875 4013 500 3803 
L 500 4441 
Q 881 4594 1212 4672 
Q 1544 4750 1819 4750 
Q 2544 4750 2975 4387 
Q 3406 4025 3406 3419 
Q 3406 3131 3298 2873 
Q 3191 2616 2906 2266 
Q 2828 2175 2409 1742 
Q 1991 1309 1228 531 
z
" transform="scale(0.015625)"/>
       </defs>
       <use xlink:href="#DejaVuSans-32"/>
       <use xlink:href="#DejaVuSans-30" x="63.623047"/>
      </g>
     </g>
    </g>
    <g id="xtick_4">
     <g id="line2d_4">
      <g>
       <use xlink:href="#mb5d8cb424b" x="272.600816" y="307.584" style="stroke: #000000; stroke-width: 0.8"/>
      </g>
     </g>
     <g id="text_4">
      <!-- 30 -->
      <g transform="translate(266.238316 322.182437) scale(0.1 -0.1)">
       <defs>
        <path id="DejaVuSans-33" d="M 2597 2516 
Q 3050 2419 3304 2112 
Q 3559 1806 3559 1356 
Q 3559 666 3084 287 
Q 2609 -91 1734 -91 
Q 1441 -91 1130 -33 
Q 819 25 488 141 
L 488 750 
Q 750 597 1062 519 
Q 1375 441 1716 441 
Q 2309 441 2620 675 
Q 2931 909 2931 1356 
Q 2931 1769 2642 2001 
Q 2353 2234 1838 2234 
L 1294 2234 
L 1294 2753 
L 1863 2753 
Q 2328 2753 2575 2939 
Q 2822 3125 2822 3475 
Q 2822 3834 2567 4026 
Q 2313 4219 1838 4219 
Q 1578 4219 1281 4162 
Q 984 4106 628 3988 
L 628 4550 
Q 988 4650 1302 4700 
Q 1616 4750 1894 4750 
Q 2613 4750 3031 4423 
Q 3450 4097 3450 3541 
Q 3450 3153 3228 2886 
Q 3006 2619 2597 2516 
z
" transform="scale(0.015625)"/>
       </defs>
       <use xlink:href="#DejaVuSans-33"/>
       <use xlink:href="#DejaVuSans-30" x="63.623047"/>
      </g>
     </g>
    </g>
    <g id="xtick_5">
     <g id="line2d_5">
      <g>
       <use xlink:href="#mb5d8cb424b" x="338.856846" y="307.584" style="stroke: #000000; stroke-width: 0.8"/>
      </g>
     </g>
     <g id="text_5">
      <!-- 40 -->
      <g transform="translate(332.494346 322.182437) scale(0.1 -0.1)">
       <defs>
        <path id="DejaVuSans-34" d="M 2419 4116 
L 825 1625 
L 2419 1625 
L 2419 4116 
z
M 2253 4666 
L 3047 4666 
L 3047 1625 
L 3713 1625 
L 3713 1100 
L 3047 1100 
L 3047 0 
L 2419 0 
L 2419 1100 
L 313 1100 
L 313 1709 
L 2253 4666 
z
" transform="scale(0.015625)"/>
       </defs>
       <use xlink:href="#DejaVuSans-34"/>
       <use xlink:href="#DejaVuSans-30" x="63.623047"/>
      </g>
     </g>
    </g>
    <g id="xtick_6">
     <g id="line2d_6">
      <g>
       <use xlink:href="#mb5d8cb424b" x="405.112876" y="307.584" style="stroke: #000000; stroke-width: 0.8"/>
      </g>
     </g>
     <g id="text_6">
      <!-- 50 -->
      <g transform="translate(398.750376 322.182437) scale(0.1 -0.1)">
       <defs>
        <path id="DejaVuSans-35" d="M 691 4666 
L 3169 4666 
L 3169 4134 
L 1269 4134 
L 1269 2991 
Q 1406 3038 1543 3061 
Q 1681 3084 1819 3084 
Q 2600 3084 3056 2656 
Q 3513 2228 3513 1497 
Q 3513 744 3044 326 
Q 2575 -91 1722 -91 
Q 1428 -91 1123 -41 
Q 819 9 494 109 
L 494 744 
Q 775 591 1075 516 
Q 1375 441 1709 441 
Q 2250 441 2565 725 
Q 2881 1009 2881 1497 
Q 2881 1984 2565 2268 
Q 2250 2553 1709 2553 
Q 1456 2553 1204 2497 
Q 953 2441 691 2322 
L 691 4666 
z
" transform="scale(0.015625)"/>
       </defs>
       <use xlink:href="#DejaVuSans-35"/>
       <use xlink:href="#DejaVuSans-30" x="63.623047"/>
      </g>
     </g>
    </g>
    <g id="text_7">
     <!-- Generations -->
     <g transform="translate(205.662344 335.860562) scale(0.1 -0.1)">
      <defs>
       <path id="DejaVuSans-47" d="M 3809 666 
L 3809 1919 
L 2778 1919 
L 2778 2438 
L 4434 2438 
L 4434 434 
Q 4069 175 3628 42 
Q 3188 -91 2688 -91 
Q 1594 -91 976 548 
Q 359 1188 359 2328 
Q 359 3472 976 4111 
Q 1594 4750 2688 4750 
Q 3144 4750 3555 4637 
Q 3966 4525 4313 4306 
L 4313 3634 
Q 3963 3931 3569 4081 
Q 3175 4231 2741 4231 
Q 1884 4231 1454 3753 
Q 1025 3275 1025 2328 
Q 1025 1384 1454 906 
Q 1884 428 2741 428 
Q 3075 428 3337 486 
Q 3600 544 3809 666 
z
" transform="scale(0.015625)"/>
       <path id="DejaVuSans-65" d="M 3597 1894 
L 3597 1613 
L 953 1613 
Q 991 1019 1311 708 
Q 1631 397 2203 397 
Q 2534 397 2845 478 
Q 3156 559 3463 722 
L 3463 178 
Q 3153 47 2828 -22 
Q 2503 -91 2169 -91 
Q 1331 -91 842 396 
Q 353 884 353 1716 
Q 353 2575 817 3079 
Q 1281 3584 2069 3584 
Q 2775 3584 3186 3129 
Q 3597 2675 3597 1894 
z
M 3022 2063 
Q 3016 2534 2758 2815 
Q 2500 3097 2075 3097 
Q 1594 3097 1305 2825 
Q 1016 2553 972 2059 
L 3022 2063 
z
" transform="scale(0.015625)"/>
       <path id="DejaVuSans-6e" d="M 3513 2113 
L 3513 0 
L 2938 0 
L 2938 2094 
Q 2938 2591 2744 2837 
Q 2550 3084 2163 3084 
Q 1697 3084 1428 2787 
Q 1159 2491 1159 1978 
L 1159 0 
L 581 0 
L 581 3500 
L 1159 3500 
L 1159 2956 
Q 1366 3272 1645 3428 
Q 1925 3584 2291 3584 
Q 2894 3584 3203 3211 
Q 3513 2838 3513 2113 
z
" transform="scale(0.015625)"/>
       <path id="DejaVuSans-72" d="M 2631 2963 
Q 2534 3019 2420 3045 
Q 2306 3072 2169 3072 
Q 1681 3072 1420 2755 
Q 1159 2438 1159 1844 
L 1159 0 
L 581 0 
L 581 3500 
L 1159 3500 
L 1159 2956 
Q 1341 3275 1631 3429 
Q 1922 3584 2338 3584 
Q 2397 3584 2469 3576 
Q 2541 3569 2628 3553 
L 2631 2963 
z
" transform="scale(0.015625)"/>
       <path id="DejaVuSans-61" d="M 2194 1759 
Q 1497 1759 1228 1600 
Q 959 1441 959 1056 
Q 959 750 1161 570 
Q 1363 391 1709 391 
Q 2188 391 2477 730 
Q 2766 1069 2766 1631 
L 2766 1759 
L 2194 1759 
z
M 3341 1997 
L 3341 0 
L 2766 0 
L 2766 531 
Q 2569 213 2275 61 
Q 1981 -91 1556 -91 
Q 1019 -91 701 211 
Q 384 513 384 1019 
Q 384 1609 779 1909 
Q 1175 2209 1959 2209 
L 2766 2209 
L 2766 2266 
Q 2766 2663 2505 2880 
Q 2244 3097 1772 3097 
Q 1472 3097 1187 3025 
Q 903 2953 641 2809 
L 641 3341 
Q 956 3463 1253 3523 
Q 1550 3584 1831 3584 
Q 2591 3584 2966 3190 
Q 3341 2797 3341 1997 
z
" transform="scale(0.015625)"/>
       <path id="DejaVuSans-74" d="M 1172 4494 
L 1172 3500 
L 2356 3500 
L 2356 3053 
L 1172 3053 
L 1172 1153 
Q 1172 725 1289 603 
Q 1406 481 1766 481 
L 2356 481 
L 2356 0 
L 1766 0 
Q 1100 0 847 248 
Q 594 497 594 1153 
L 594 3053 
L 172 3053 
L 172 3500 
L 594 3500 
L 594 4494 
L 1172 4494 
z
" transform="scale(0.015625)"/>
       <path id="DejaVuSans-69" d="M 603 3500 
L 1178 3500 
L 1178 0 
L 603 0 
L 603 3500 
z
M 603 4863 
L 1178 4863 
L 1178 4134 
L 603 4134 
L 603 4863 
z
" transform="scale(0.015625)"/>
       <path id="DejaVuSans-6f" d="M 1959 3097 
Q 1497 3097 1228 2736 
Q 959 2375 959 1747 
Q 959 1119 1226 758 
Q 1494 397 1959 397 
Q 2419 397 2687 759 
Q 2956 1122 2956 1747 
Q 2956 2369 2687 2733 
Q 2419 3097 1959 3097 
z
M 1959 3584 
Q 2709 3584 3137 3096 
Q 3566 2609 3566 1747 
Q 3566 888 3137 398 
Q 2709 -91 1959 -91 
Q 1206 -91 779 398 
Q 353 888 353 1747 
Q 353 2609 779 3096 
Q 1206 3584 1959 3584 
z
" transform="scale(0.015625)"/>
       <path id="DejaVuSans-73" d="M 2834 3397 
L 2834 2853 
Q 2591 2978 2328 3040 
Q 2066 3103 1784 3103 
Q 1356 3103 1142 2972 
Q 928 2841 928 2578 
Q 928 2378 1081 2264 
Q 1234 2150 1697 2047 
L 1894 2003 
Q 2506 1872 2764 1633 
Q 3022 1394 3022 966 
Q 3022 478 2636 193 
Q 2250 -91 1575 -91 
Q 1294 -91 989 -36 
Q 684 19 347 128 
L 347 722 
Q 666 556 975 473 
Q 1284 391 1588 391 
Q 1994 391 2212 530 
Q 2431 669 2431 922 
Q 2431 1156 2273 1281 
Q 2116 1406 1581 1522 
L 1381 1569 
Q 847 1681 609 1914 
Q 372 2147 372 2553 
Q 372 3047 722 3315 
Q 1072 3584 1716 3584 
Q 2034 3584 2315 3537 
Q 2597 3491 2834 3397 
z
" transform="scale(0.015625)"/>
      </defs>
      <use xlink:href="#DejaVuSans-47"/>
      <use xlink:href="#DejaVuSans-65" x="77.490234"/>
      <use xlink:href="#DejaVuSans-6e" x="139.013672"/>
      <use xlink:href="#DejaVuSans-65" x="202.392578"/>
      <use xlink:href="#DejaVuSans-72" x="263.916016"/>
      <use xlink:href="#DejaVuSans-61" x="305.029297"/>
      <use xlink:href="#DejaVuSans-74" x="366.308594"/>
      <use xlink:href="#DejaVuSans-69" x="405.517578"/>
      <use xlink:href="#DejaVuSans-6f" x="433.300781"/>
      <use xlink:href="#DejaVuSans-6e" x="494.482422"/>
      <use xlink:href="#DejaVuSans-73" x="557.861328"/>
     </g>
    </g>
   </g>
   <g id="matplotlib.axis_2">
    <g id="ytick_1">
     <g id="line2d_7">
      <defs>
       <path id="m591f6407b9" d="M 0 0 
L -3.5 0 
" style="stroke: #000000; stroke-width: 0.8"/>
      </defs>
      <g>
       <use xlink:href="#m591f6407b9" x="57.6" y="307.584" style="stroke: #000000; stroke-width: 0.8"/>
      </g>
     </g>
     <g id="text_8">
      <!-- 0 -->
      <g transform="translate(44.2375 311.383219) scale(0.1 -0.1)">
       <use xlink:href="#DejaVuSans-30"/>
      </g>
     </g>
    </g>
    <g id="ytick_2">
     <g id="line2d_8">
      <g>
       <use xlink:href="#m591f6407b9" x="57.6" y="277.122462" style="stroke: #000000; stroke-width: 0.8"/>
      </g>
     </g>
     <g id="text_9">
      <!-- 25 -->
      <g transform="translate(37.875 280.92168) scale(0.1 -0.1)">
       <use xlink:href="#DejaVuSans-32"/>
       <use xlink:href="#DejaVuSans-35" x="63.623047"/>
      </g>
     </g>
    </g>
    <g id="ytick_3">
     <g id="line2d_9">
      <g>
       <use xlink:href="#m591f6407b9" x="57.6" y="246.660923" style="stroke: #000000; stroke-width: 0.8"/>
      </g>
     </g>
     <g id="text_10">
      <!-- 50 -->
      <g transform="translate(37.875 250.460142) scale(0.1 -0.1)">
       <use xlink:href="#DejaVuSans-35"/>
       <use xlink:href="#DejaVuSans-30" x="63.623047"/>
      </g>
     </g>
    </g>
    <g id="ytick_4">
     <g id="line2d_10">
      <g>
       <use xlink:href="#m591f6407b9" x="57.6" y="216.199385" style="stroke: #000000; stroke-width: 0.8"/>
      </g>
     </g>
     <g id="text_11">
      <!-- 75 -->
      <g transform="translate(37.875 219.998603) scale(0.1 -0.1)">
       <defs>
        <path id="DejaVuSans-37" d="M 525 4666 
L 3525 4666 
L 3525 4397 
L 1831 0 
L 1172 0 
L 2766 4134 
L 525 4134 
L 525 4666 
z
" transform="scale(0.015625)"/>
       </defs>
       <use xlink:href="#DejaVuSans-37"/>
       <use xlink:href="#DejaVuSans-35" x="63.623047"/>
      </g>
     </g>
    </g>
    <g id="ytick_5">
     <g id="line2d_11">
      <g>
       <use xlink:href="#m591f6407b9" x="57.6" y="185.737846" style="stroke: #000000; stroke-width: 0.8"/>
      </g>
     </g>
     <g id="text_12">
      <!-- 100 -->
      <g transform="translate(31.5125 189.537065) scale(0.1 -0.1)">
       <use xlink:href="#DejaVuSans-31"/>
       <use xlink:href="#DejaVuSans-30" x="63.623047"/>
       <use xlink:href="#DejaVuSans-30" x="127.246094"/>
      </g>
     </g>
    </g>
    <g id="ytick_6">
     <g id="line2d_12">
      <g>
       <use xlink:href="#m591f6407b9" x="57.6" y="155.276308" style="stroke: #000000; stroke-width: 0.8"/>
      </g>
     </g>
     <g id="text_13">
      <!-- 125 -->
      <g transform="translate(31.5125 159.075526) scale(0.1 -0.1)">
       <use xlink:href="#DejaVuSans-31"/>
       <use xlink:href="#DejaVuSans-32" x="63.623047"/>
       <use xlink:href="#DejaVuSans-35" x="127.246094"/>
      </g>
     </g>
    </g>
    <g id="ytick_7">
     <g id="line2d_13">
      <g>
       <use xlink:href="#m591f6407b9" x="57.6" y="124.814769" style="stroke: #000000; stroke-width: 0.8"/>
      </g>
     </g>
     <g id="text_14">
      <!-- 150 -->
      <g transform="translate(31.5125 128.613988) scale(0.1 -0.1)">
       <use xlink:href="#DejaVuSans-31"/>
       <use xlink:href="#DejaVuSans-35" x="63.623047"/>
       <use xlink:href="#DejaVuSans-30" x="127.246094"/>
      </g>
     </g>
    </g>
    <g id="ytick_8">
     <g id="line2d_14">
      <g>
       <use xlink:href="#m591f6407b9" x="57.6" y="94.353231" style="stroke: #000000; stroke-width: 0.8"/>
      </g>
     </g>
     <g id="text_15">
      <!-- 175 -->
      <g transform="translate(31.5125 98.15245) scale(0.1 -0.1)">
       <use xlink:href="#DejaVuSans-31"/>
       <use xlink:href="#DejaVuSans-37" x="63.623047"/>
       <use xlink:href="#DejaVuSans-35" x="127.246094"/>
      </g>
     </g>
    </g>
    <g id="ytick_9">
     <g id="line2d_15">
      <g>
       <use xlink:href="#m591f6407b9" x="57.6" y="63.891692" style="stroke: #000000; stroke-width: 0.8"/>
      </g>
     </g>
     <g id="text_16">
      <!-- 200 -->
      <g transform="translate(31.5125 67.690911) scale(0.1 -0.1)">
       <use xlink:href="#DejaVuSans-32"/>
       <use xlink:href="#DejaVuSans-30" x="63.623047"/>
       <use xlink:href="#DejaVuSans-30" x="127.246094"/>
      </g>
     </g>
    </g>
    <g id="text_17">
     <!-- Size per Species -->
     <g transform="translate(25.432812 215.520969) rotate(-90) scale(0.1 -0.1)">
      <defs>
       <path id="DejaVuSans-53" d="M 3425 4513 
L 3425 3897 
Q 3066 4069 2747 4153 
Q 2428 4238 2131 4238 
Q 1616 4238 1336 4038 
Q 1056 3838 1056 3469 
Q 1056 3159 1242 3001 
Q 1428 2844 1947 2747 
L 2328 2669 
Q 3034 2534 3370 2195 
Q 3706 1856 3706 1288 
Q 3706 609 3251 259 
Q 2797 -91 1919 -91 
Q 1588 -91 1214 -16 
Q 841 59 441 206 
L 441 856 
Q 825 641 1194 531 
Q 1563 422 1919 422 
Q 2459 422 2753 634 
Q 3047 847 3047 1241 
Q 3047 1584 2836 1778 
Q 2625 1972 2144 2069 
L 1759 2144 
Q 1053 2284 737 2584 
Q 422 2884 422 3419 
Q 422 4038 858 4394 
Q 1294 4750 2059 4750 
Q 2388 4750 2728 4690 
Q 3069 4631 3425 4513 
z
" transform="scale(0.015625)"/>
       <path id="DejaVuSans-7a" d="M 353 3500 
L 3084 3500 
L 3084 2975 
L 922 459 
L 3084 459 
L 3084 0 
L 275 0 
L 275 525 
L 2438 3041 
L 353 3041 
L 353 3500 
z
" transform="scale(0.015625)"/>
       <path id="DejaVuSans-20" transform="scale(0.015625)"/>
       <path id="DejaVuSans-70" d="M 1159 525 
L 1159 -1331 
L 581 -1331 
L 581 3500 
L 1159 3500 
L 1159 2969 
Q 1341 3281 1617 3432 
Q 1894 3584 2278 3584 
Q 2916 3584 3314 3078 
Q 3713 2572 3713 1747 
Q 3713 922 3314 415 
Q 2916 -91 2278 -91 
Q 1894 -91 1617 61 
Q 1341 213 1159 525 
z
M 3116 1747 
Q 3116 2381 2855 2742 
Q 2594 3103 2138 3103 
Q 1681 3103 1420 2742 
Q 1159 2381 1159 1747 
Q 1159 1113 1420 752 
Q 1681 391 2138 391 
Q 2594 391 2855 752 
Q 3116 1113 3116 1747 
z
" transform="scale(0.015625)"/>
       <path id="DejaVuSans-63" d="M 3122 3366 
L 3122 2828 
Q 2878 2963 2633 3030 
Q 2388 3097 2138 3097 
Q 1578 3097 1268 2742 
Q 959 2388 959 1747 
Q 959 1106 1268 751 
Q 1578 397 2138 397 
Q 2388 397 2633 464 
Q 2878 531 3122 666 
L 3122 134 
Q 2881 22 2623 -34 
Q 2366 -91 2075 -91 
Q 1284 -91 818 406 
Q 353 903 353 1747 
Q 353 2603 823 3093 
Q 1294 3584 2113 3584 
Q 2378 3584 2631 3529 
Q 2884 3475 3122 3366 
z
" transform="scale(0.015625)"/>
      </defs>
      <use xlink:href="#DejaVuSans-53"/>
      <use xlink:href="#DejaVuSans-69" x="63.476562"/>
      <use xlink:href="#DejaVuSans-7a" x="91.259766"/>
      <use xlink:href="#DejaVuSans-65" x="143.75"/>
      <use xlink:href="#DejaVuSans-20" x="205.273438"/>
      <use xlink:href="#DejaVuSans-70" x="237.060547"/>
      <use xlink:href="#DejaVuSans-65" x="300.537109"/>
      <use xlink:href="#DejaVuSans-72" x="362.060547"/>
      <use xlink:href="#DejaVuSans-20" x="403.173828"/>
      <use xlink:href="#DejaVuSans-53" x="434.960938"/>
      <use xlink:href="#DejaVuSans-70" x="498.4375"/>
      <use xlink:href="#DejaVuSans-65" x="561.914062"/>
      <use xlink:href="#DejaVuSans-63" x="623.4375"/>
      <use xlink:href="#DejaVuSans-69" x="678.417969"/>
      <use xlink:href="#DejaVuSans-65" x="706.201172"/>
      <use xlink:href="#DejaVuSans-73" x="767.724609"/>
     </g>
    </g>
   </g>
   <g id="patch_3">
    <path d="M 57.6 307.584 
L 57.6 41.472 
" style="fill: none; stroke: #000000; stroke-width: 0.8; stroke-linejoin: miter; stroke-linecap: square"/>
   </g>
   <g id="patch_4">
    <path d="M 414.72 307.584 
L 414.72 41.472 
" style="fill: none; stroke: #000000; stroke-width: 0.8; stroke-linejoin: miter; stroke-linecap: square"/>
   </g>
   <g id="patch_5">
    <path d="M 57.6 307.584 
L 414.72 307.584 
" style="fill: none; stroke: #000000; stroke-width: 0.8; stroke-linejoin: miter; stroke-linecap: square"/>
   </g>
   <g id="patch_6">
    <path d="M 57.6 41.472 
L 414.72 41.472 
" style="fill: none; stroke: #000000; stroke-width: 0.8; stroke-linejoin: miter; stroke-linecap: square"/>
   </g>
   <g id="text_18">
    <!-- Speciation -->
    <g transform="translate(204.714375 35.472) scale(0.12 -0.12)">
     <use xlink:href="#DejaVuSans-53"/>
     <use xlink:href="#DejaVuSans-70" x="63.476562"/>
     <use xlink:href="#DejaVuSans-65" x="126.953125"/>
     <use xlink:href="#DejaVuSans-63" x="188.476562"/>
     <use xlink:href="#DejaVuSans-69" x="243.457031"/>
     <use xlink:href="#DejaVuSans-61" x="271.240234"/>
     <use xlink:href="#DejaVuSans-74" x="332.519531"/>
     <use xlink:href="#DejaVuSans-69" x="371.728516"/>
     <use xlink:href="#DejaVuSans-6f" x="399.511719"/>
     <use xlink:href="#DejaVuSans-6e" x="460.693359"/>
    </g>
   </g>
  </g>
 </g>
 <defs>
  <clipPath id="p428075320c">
   <rect x="57.6" y="41.472" width="357.12" height="266.112"/>
  </clipPath>
 </defs>
</svg>
