<?xml version="1.0" encoding="utf-8" standalone="no"?>
<!DOCTYPE svg PUBLIC "-//W3C//DTD SVG 1.1//EN"
  "http://www.w3.org/Graphics/SVG/1.1/DTD/svg11.dtd">
<svg xmlns:xlink="http://www.w3.org/1999/xlink" width="460.8pt" height="345.6pt" viewBox="0 0 460.8 345.6" xmlns="http://www.w3.org/2000/svg" version="1.1">
 <metadata>
  <rdf:RDF xmlns:dc="http://purl.org/dc/elements/1.1/" xmlns:cc="http://creativecommons.org/ns#" xmlns:rdf="http://www.w3.org/1999/02/22-rdf-syntax-ns#">
   <cc:Work>
    <dc:type rdf:resource="http://purl.org/dc/dcmitype/StillImage"/>
    <dc:date>2024-08-10T04:41:13.609756</dc:date>
    <dc:format>image/svg+xml</dc:format>
    <dc:creator>
     <cc:Agent>
      <dc:title>Matplotlib v3.8.4, https://matplotlib.org/</dc:title>
     </cc:Agent>
    </dc:creator>
   </cc:Work>
  </rdf:RDF>
 </metadata>
 <defs>
  <style type="text/css">*{stroke-linejoin: round; stroke-linecap: butt}</style>
 </defs>
 <g id="figure_1">
  <g id="patch_1">
   <path d="M 0 345.6 
L 460.8 345.6 
L 460.8 0 
L 0 0 
z
" style="fill: #ffffff"/>
  </g>
  <g id="axes_1">
   <g id="patch_2">
    <path d="M 57.6 307.584 
L 414.72 307.584 
L 414.72 41.472 
L 57.6 41.472 
z
" style="fill: #ffffff"/>
   </g>
   <g id="PolyCollection_1">
    <path d="M 73.832727 272.626759 
L 73.832727 307.584 
L 80.45833 307.584 
L 87.083933 307.584 
L 93.709536 307.584 
L 100.335139 307.584 
L 106.960742 307.584 
L 113.586345 307.584 
L 120.211948 307.584 
L 126.837551 307.584 
L 133.463154 307.584 
L 140.088757 307.584 
L 146.71436 307.584 
L 153.339963 307.584 
L 159.965566 307.584 
L 166.591169 307.584 
L 173.216772 307.584 
L 179.842375 307.584 
L 186.467978 307.584 
L 193.093581 307.584 
L 199.719184 307.584 
L 206.344787 307.584 
L 212.97039 307.584 
L 219.595993 307.584 
L 226.221596 307.584 
L 232.847199 307.584 
L 239.472801 307.584 
L 246.098404 307.584 
L 252.724007 307.584 
L 259.34961 307.584 
L 265.975213 307.584 
L 272.600816 307.584 
L 279.226419 307.584 
L 285.852022 307.584 
L 292.477625 307.584 
L 299.103228 307.584 
L 305.728831 307.584 
L 312.354434 307.584 
L 318.980037 307.584 
L 325.60564 307.584 
L 332.231243 307.584 
L 338.856846 307.584 
L 345.482449 307.584 
L 352.108052 307.584 
L 358.733655 307.584 
L 365.359258 307.584 
L 371.984861 307.584 
L 378.610464 307.584 
L 385.236067 307.584 
L 391.86167 307.584 
L 398.487273 307.584 
L 398.487273 307.584 
L 398.487273 307.584 
L 391.86167 307.584 
L 385.236067 307.584 
L 378.610464 307.584 
L 371.984861 307.584 
L 365.359258 307.584 
L 358.733655 307.584 
L 352.108052 307.584 
L 345.482449 307.584 
L 338.856846 307.584 
L 332.231243 307.584 
L 325.60564 307.584 
L 318.980037 307.584 
L 312.354434 307.584 
L 305.728831 307.584 
L 299.103228 307.584 
L 292.477625 307.584 
L 285.852022 307.584 
L 279.226419 307.584 
L 272.600816 307.584 
L 265.975213 307.584 
L 259.34961 307.584 
L 252.724007 307.584 
L 246.098404 307.584 
L 239.472801 307.584 
L 232.847199 307.584 
L 226.221596 307.584 
L 219.595993 290.105379 
L 212.97039 285.111488 
L 206.344787 288.856906 
L 199.719184 287.608433 
L 193.093581 295.099271 
L 186.467978 295.099271 
L 179.842375 298.84469 
L 173.216772 295.099271 
L 166.591169 298.84469 
L 159.965566 297.596217 
L 153.339963 290.105379 
L 146.71436 296.347744 
L 140.088757 293.850798 
L 133.463154 288.856906 
L 126.837551 291.353852 
L 120.211948 285.111488 
L 113.586345 291.353852 
L 106.960742 301.341635 
L 100.335139 263.887448 
L 93.709536 271.378286 
L 87.083933 268.88134 
L 80.45833 286.359961 
L 73.832727 272.626759 
z
" clip-path="url(#p709ba513cc)" style="fill: #1f77b4"/>
   </g>
   <g id="PolyCollection_2">
    <path d="M 73.832727 217.693951 
L 73.832727 272.626759 
L 80.45833 286.359961 
L 87.083933 268.88134 
L 93.709536 271.378286 
L 100.335139 263.887448 
L 106.960742 301.341635 
L 113.586345 291.353852 
L 120.211948 285.111488 
L 126.837551 291.353852 
L 133.463154 288.856906 
L 140.088757 293.850798 
L 146.71436 296.347744 
L 153.339963 290.105379 
L 159.965566 297.596217 
L 166.591169 298.84469 
L 173.216772 295.099271 
L 179.842375 298.84469 
L 186.467978 295.099271 
L 193.093581 295.099271 
L 199.719184 287.608433 
L 206.344787 288.856906 
L 212.97039 285.111488 
L 219.595993 290.105379 
L 226.221596 307.584 
L 232.847199 307.584 
L 239.472801 307.584 
L 246.098404 307.584 
L 252.724007 307.584 
L 259.34961 307.584 
L 265.975213 307.584 
L 272.600816 307.584 
L 279.226419 307.584 
L 285.852022 307.584 
L 292.477625 307.584 
L 299.103228 307.584 
L 305.728831 307.584 
L 312.354434 307.584 
L 318.980037 307.584 
L 325.60564 307.584 
L 332.231243 307.584 
L 338.856846 307.584 
L 345.482449 307.584 
L 352.108052 307.584 
L 358.733655 307.584 
L 365.359258 307.584 
L 371.984861 307.584 
L 378.610464 307.584 
L 385.236067 307.584 
L 391.86167 307.584 
L 398.487273 307.584 
L 398.487273 307.584 
L 398.487273 307.584 
L 391.86167 307.584 
L 385.236067 307.584 
L 378.610464 307.584 
L 371.984861 307.584 
L 365.359258 307.584 
L 358.733655 307.584 
L 352.108052 307.584 
L 345.482449 307.584 
L 338.856846 307.584 
L 332.231243 307.584 
L 325.60564 307.584 
L 318.980037 307.584 
L 312.354434 307.584 
L 305.728831 307.584 
L 299.103228 307.584 
L 292.477625 307.584 
L 285.852022 307.584 
L 279.226419 307.584 
L 272.600816 307.584 
L 265.975213 307.584 
L 259.34961 307.584 
L 252.724007 290.105379 
L 246.098404 275.123704 
L 239.472801 281.366069 
L 232.847199 281.366069 
L 226.221596 287.608433 
L 219.595993 265.135921 
L 212.97039 272.626759 
L 206.344787 268.88134 
L 199.719184 262.638975 
L 193.093581 272.626759 
L 186.467978 273.875232 
L 179.842375 295.099271 
L 173.216772 278.869123 
L 166.591169 288.856906 
L 159.965566 263.887448 
L 153.339963 271.378286 
L 146.71436 280.117596 
L 140.088757 281.366069 
L 133.463154 276.372177 
L 126.837551 262.638975 
L 120.211948 262.638975 
L 113.586345 285.111488 
L 106.960742 276.372177 
L 100.335139 253.899665 
L 93.709536 235.172571 
L 87.083933 246.408828 
L 80.45833 256.396611 
L 73.832727 217.693951 
z
" clip-path="url(#p709ba513cc)" style="fill: #ff7f0e"/>
   </g>
   <g id="PolyCollection_3">
    <path d="M 73.832727 119.064591 
L 73.832727 217.693951 
L 80.45833 256.396611 
L 87.083933 246.408828 
L 93.709536 235.172571 
L 100.335139 253.899665 
L 106.960742 276.372177 
L 113.586345 285.111488 
L 120.211948 262.638975 
L 126.837551 262.638975 
L 133.463154 276.372177 
L 140.088757 281.366069 
L 146.71436 280.117596 
L 153.339963 271.378286 
L 159.965566 263.887448 
L 166.591169 288.856906 
L 173.216772 278.869123 
L 179.842375 295.099271 
L 186.467978 273.875232 
L 193.093581 272.626759 
L 199.719184 262.638975 
L 206.344787 268.88134 
L 212.97039 272.626759 
L 219.595993 265.135921 
L 226.221596 287.608433 
L 232.847199 281.366069 
L 239.472801 281.366069 
L 246.098404 275.123704 
L 252.724007 290.105379 
L 259.34961 307.584 
L 265.975213 307.584 
L 272.600816 307.584 
L 279.226419 307.584 
L 285.852022 307.584 
L 292.477625 307.584 
L 299.103228 307.584 
L 305.728831 307.584 
L 312.354434 307.584 
L 318.980037 307.584 
L 325.60564 307.584 
L 332.231243 307.584 
L 338.856846 307.584 
L 345.482449 307.584 
L 352.108052 307.584 
L 358.733655 307.584 
L 365.359258 307.584 
L 371.984861 307.584 
L 378.610464 307.584 
L 385.236067 307.584 
L 391.86167 307.584 
L 398.487273 307.584 
L 398.487273 307.584 
L 398.487273 307.584 
L 391.86167 307.584 
L 385.236067 307.584 
L 378.610464 307.584 
L 371.984861 307.584 
L 365.359258 307.584 
L 358.733655 307.584 
L 352.108052 307.584 
L 345.482449 307.584 
L 338.856846 307.584 
L 332.231243 307.584 
L 325.60564 307.584 
L 318.980037 307.584 
L 312.354434 307.584 
L 305.728831 307.584 
L 299.103228 307.584 
L 292.477625 307.584 
L 285.852022 307.584 
L 279.226419 307.584 
L 272.600816 307.584 
L 265.975213 307.584 
L 259.34961 291.353852 
L 252.724007 268.88134 
L 246.098404 263.887448 
L 239.472801 217.693951 
L 232.847199 260.14203 
L 226.221596 276.372177 
L 219.595993 251.402719 
L 212.97039 266.384394 
L 206.344787 250.154246 
L 199.719184 251.402719 
L 193.093581 260.14203 
L 186.467978 265.135921 
L 179.842375 213.948532 
L 173.216772 268.88134 
L 166.591169 256.396611 
L 159.965566 243.911882 
L 153.339963 260.14203 
L 146.71436 253.899665 
L 140.088757 271.378286 
L 133.463154 235.172571 
L 126.837551 201.463803 
L 120.211948 251.402719 
L 113.586345 230.17868 
L 106.960742 246.408828 
L 100.335139 228.930207 
L 93.709536 211.451586 
L 87.083933 195.221438 
L 80.45833 154.021833 
L 73.832727 119.064591 
z
" clip-path="url(#p709ba513cc)" style="fill: #2ca02c"/>
   </g>
   <g id="PolyCollection_4">
    <path d="M 73.832727 110.325281 
L 73.832727 119.064591 
L 80.45833 154.021833 
L 87.083933 195.221438 
L 93.709536 211.451586 
L 100.335139 228.930207 
L 106.960742 246.408828 
L 113.586345 230.17868 
L 120.211948 251.402719 
L 126.837551 201.463803 
L 133.463154 235.172571 
L 140.088757 271.378286 
L 146.71436 253.899665 
L 153.339963 260.14203 
L 159.965566 243.911882 
L 166.591169 256.396611 
L 173.216772 268.88134 
L 179.842375 213.948532 
L 186.467978 265.135921 
L 193.093581 260.14203 
L 199.719184 251.402719 
L 206.344787 250.154246 
L 212.97039 266.384394 
L 219.595993 251.402719 
L 226.221596 276.372177 
L 232.847199 260.14203 
L 239.472801 217.693951 
L 246.098404 263.887448 
L 252.724007 268.88134 
L 259.34961 291.353852 
L 265.975213 307.584 
L 272.600816 307.584 
L 279.226419 307.584 
L 285.852022 307.584 
L 292.477625 307.584 
L 299.103228 307.584 
L 305.728831 307.584 
L 312.354434 307.584 
L 318.980037 307.584 
L 325.60564 307.584 
L 332.231243 307.584 
L 338.856846 307.584 
L 345.482449 307.584 
L 352.108052 307.584 
L 358.733655 307.584 
L 365.359258 307.584 
L 371.984861 307.584 
L 378.610464 307.584 
L 385.236067 307.584 
L 391.86167 307.584 
L 398.487273 307.584 
L 398.487273 307.584 
L 398.487273 307.584 
L 391.86167 307.584 
L 385.236067 307.584 
L 378.610464 307.584 
L 371.984861 307.584 
L 365.359258 307.584 
L 358.733655 307.584 
L 352.108052 307.584 
L 345.482449 307.584 
L 338.856846 307.584 
L 332.231243 307.584 
L 325.60564 307.584 
L 318.980037 307.584 
L 312.354434 307.584 
L 305.728831 307.584 
L 299.103228 307.584 
L 292.477625 307.584 
L 285.852022 307.584 
L 279.226419 307.584 
L 272.600816 307.584 
L 265.975213 307.584 
L 259.34961 291.353852 
L 252.724007 268.88134 
L 246.098404 263.887448 
L 239.472801 217.693951 
L 232.847199 260.14203 
L 226.221596 276.372177 
L 219.595993 251.402719 
L 212.97039 266.384394 
L 206.344787 238.91799 
L 199.719184 236.421044 
L 193.093581 248.905773 
L 186.467978 257.645084 
L 179.842375 202.712276 
L 173.216772 251.402719 
L 166.591169 251.402719 
L 159.965566 225.184788 
L 153.339963 247.6573 
L 146.71436 245.160355 
L 140.088757 255.148138 
L 133.463154 208.95464 
L 126.837551 185.233655 
L 120.211948 238.91799 
L 113.586345 212.700059 
L 106.960742 235.172571 
L 100.335139 213.948532 
L 93.709536 197.718384 
L 87.083933 175.245872 
L 80.45833 144.034049 
L 73.832727 110.325281 
z
" clip-path="url(#p709ba513cc)" style="fill: #d62728"/>
   </g>
   <g id="PolyCollection_5">
    <path d="M 73.832727 85.355823 
L 73.832727 110.325281 
L 80.45833 144.034049 
L 87.083933 175.245872 
L 93.709536 197.718384 
L 100.335139 213.948532 
L 106.960742 235.172571 
L 113.586345 212.700059 
L 120.211948 238.91799 
L 126.837551 185.233655 
L 133.463154 208.95464 
L 140.088757 255.148138 
L 146.71436 245.160355 
L 153.339963 247.6573 
L 159.965566 225.184788 
L 166.591169 251.402719 
L 173.216772 251.402719 
L 179.842375 202.712276 
L 186.467978 257.645084 
L 193.093581 248.905773 
L 199.719184 236.421044 
L 206.344787 238.91799 
L 212.97039 266.384394 
L 219.595993 251.402719 
L 226.221596 276.372177 
L 232.847199 260.14203 
L 239.472801 217.693951 
L 246.098404 263.887448 
L 252.724007 268.88134 
L 259.34961 291.353852 
L 265.975213 307.584 
L 272.600816 307.584 
L 279.226419 307.584 
L 285.852022 307.584 
L 292.477625 307.584 
L 299.103228 307.584 
L 305.728831 307.584 
L 312.354434 307.584 
L 318.980037 307.584 
L 325.60564 307.584 
L 332.231243 307.584 
L 338.856846 307.584 
L 345.482449 307.584 
L 352.108052 307.584 
L 358.733655 307.584 
L 365.359258 307.584 
L 371.984861 307.584 
L 378.610464 307.584 
L 385.236067 307.584 
L 391.86167 307.584 
L 398.487273 307.584 
L 398.487273 295.099271 
L 398.487273 295.099271 
L 391.86167 293.850798 
L 385.236067 291.353852 
L 378.610464 288.856906 
L 371.984861 287.608433 
L 365.359258 282.614542 
L 358.733655 287.608433 
L 352.108052 288.856906 
L 345.482449 301.341635 
L 338.856846 291.353852 
L 332.231243 295.099271 
L 325.60564 295.099271 
L 318.980037 292.602325 
L 312.354434 293.850798 
L 305.728831 277.62065 
L 299.103228 275.123704 
L 292.477625 272.626759 
L 285.852022 272.626759 
L 279.226419 276.372177 
L 272.600816 230.17868 
L 265.975213 276.372177 
L 259.34961 260.14203 
L 252.724007 238.91799 
L 246.098404 236.421044 
L 239.472801 203.960749 
L 232.847199 247.6573 
L 226.221596 222.687842 
L 219.595993 228.930207 
L 212.97039 170.25198 
L 206.344787 222.687842 
L 199.719184 222.687842 
L 193.093581 201.463803 
L 186.467978 242.663409 
L 179.842375 196.469911 
L 173.216772 240.166463 
L 166.591169 245.160355 
L 159.965566 220.190897 
L 153.339963 207.706167 
L 146.71436 227.681734 
L 140.088757 230.17868 
L 133.463154 192.724493 
L 126.837551 180.239764 
L 120.211948 225.184788 
L 113.586345 202.712276 
L 106.960742 218.942424 
L 100.335139 191.47602 
L 93.709536 178.991291 
L 87.083933 162.761143 
L 80.45833 124.058483 
L 73.832727 85.355823 
z
" clip-path="url(#p709ba513cc)" style="fill: #9467bd"/>
   </g>
   <g id="PolyCollection_6">
    <path d="M 73.832727 81.610404 
L 73.832727 85.355823 
L 80.45833 124.058483 
L 87.083933 162.761143 
L 93.709536 178.991291 
L 100.335139 191.47602 
L 106.960742 218.942424 
L 113.586345 202.712276 
L 120.211948 225.184788 
L 126.837551 180.239764 
L 133.463154 192.724493 
L 140.088757 230.17868 
L 146.71436 227.681734 
L 153.339963 207.706167 
L 159.965566 220.190897 
L 166.591169 245.160355 
L 173.216772 240.166463 
L 179.842375 196.469911 
L 186.467978 242.663409 
L 193.093581 201.463803 
L 199.719184 222.687842 
L 206.344787 222.687842 
L 212.97039 170.25198 
L 219.595993 228.930207 
L 226.221596 222.687842 
L 232.847199 247.6573 
L 239.472801 203.960749 
L 246.098404 236.421044 
L 252.724007 238.91799 
L 259.34961 260.14203 
L 265.975213 276.372177 
L 272.600816 230.17868 
L 279.226419 276.372177 
L 285.852022 272.626759 
L 292.477625 272.626759 
L 299.103228 275.123704 
L 305.728831 277.62065 
L 312.354434 293.850798 
L 318.980037 292.602325 
L 325.60564 295.099271 
L 332.231243 295.099271 
L 338.856846 291.353852 
L 345.482449 301.341635 
L 352.108052 288.856906 
L 358.733655 287.608433 
L 365.359258 282.614542 
L 371.984861 287.608433 
L 378.610464 288.856906 
L 385.236067 291.353852 
L 391.86167 293.850798 
L 398.487273 295.099271 
L 398.487273 295.099271 
L 398.487273 295.099271 
L 391.86167 293.850798 
L 385.236067 291.353852 
L 378.610464 288.856906 
L 371.984861 287.608433 
L 365.359258 282.614542 
L 358.733655 287.608433 
L 352.108052 288.856906 
L 345.482449 301.341635 
L 338.856846 291.353852 
L 332.231243 295.099271 
L 325.60564 295.099271 
L 318.980037 292.602325 
L 312.354434 293.850798 
L 305.728831 277.62065 
L 299.103228 275.123704 
L 292.477625 272.626759 
L 285.852022 272.626759 
L 279.226419 276.372177 
L 272.600816 230.17868 
L 265.975213 276.372177 
L 259.34961 260.14203 
L 252.724007 238.91799 
L 246.098404 236.421044 
L 239.472801 203.960749 
L 232.847199 232.675626 
L 226.221596 206.457695 
L 219.595993 216.445478 
L 212.97039 162.761143 
L 206.344787 211.451586 
L 199.719184 210.203113 
L 193.093581 188.979074 
L 186.467978 230.17868 
L 179.842375 183.985182 
L 173.216772 230.17868 
L 166.591169 235.172571 
L 159.965566 207.706167 
L 153.339963 200.21533 
L 146.71436 216.445478 
L 140.088757 223.936315 
L 133.463154 177.742818 
L 126.837551 170.25198 
L 120.211948 201.463803 
L 113.586345 182.736709 
L 106.960742 190.227547 
L 100.335139 175.245872 
L 93.709536 166.506562 
L 87.083933 147.779468 
L 80.45833 115.319172 
L 73.832727 81.610404 
z
" clip-path="url(#p709ba513cc)" style="fill: #8c564b"/>
   </g>
   <g id="PolyCollection_7">
    <path d="M 73.832727 71.622621 
L 73.832727 81.610404 
L 80.45833 115.319172 
L 87.083933 147.779468 
L 93.709536 166.506562 
L 100.335139 175.245872 
L 106.960742 190.227547 
L 113.586345 182.736709 
L 120.211948 201.463803 
L 126.837551 170.25198 
L 133.463154 177.742818 
L 140.088757 223.936315 
L 146.71436 216.445478 
L 153.339963 200.21533 
L 159.965566 207.706167 
L 166.591169 235.172571 
L 173.216772 230.17868 
L 179.842375 183.985182 
L 186.467978 230.17868 
L 193.093581 188.979074 
L 199.719184 210.203113 
L 206.344787 211.451586 
L 212.97039 162.761143 
L 219.595993 216.445478 
L 226.221596 206.457695 
L 232.847199 232.675626 
L 239.472801 203.960749 
L 246.098404 236.421044 
L 252.724007 238.91799 
L 259.34961 260.14203 
L 265.975213 276.372177 
L 272.600816 230.17868 
L 279.226419 276.372177 
L 285.852022 272.626759 
L 292.477625 272.626759 
L 299.103228 275.123704 
L 305.728831 277.62065 
L 312.354434 293.850798 
L 318.980037 292.602325 
L 325.60564 295.099271 
L 332.231243 295.099271 
L 338.856846 291.353852 
L 345.482449 301.341635 
L 352.108052 288.856906 
L 358.733655 287.608433 
L 365.359258 282.614542 
L 371.984861 287.608433 
L 378.610464 288.856906 
L 385.236067 291.353852 
L 391.86167 293.850798 
L 398.487273 295.099271 
L 398.487273 295.099271 
L 398.487273 295.099271 
L 391.86167 293.850798 
L 385.236067 291.353852 
L 378.610464 288.856906 
L 371.984861 287.608433 
L 365.359258 282.614542 
L 358.733655 287.608433 
L 352.108052 288.856906 
L 345.482449 301.341635 
L 338.856846 291.353852 
L 332.231243 295.099271 
L 325.60564 295.099271 
L 318.980037 292.602325 
L 312.354434 293.850798 
L 305.728831 277.62065 
L 299.103228 275.123704 
L 292.477625 272.626759 
L 285.852022 272.626759 
L 279.226419 276.372177 
L 272.600816 230.17868 
L 265.975213 276.372177 
L 259.34961 241.414936 
L 252.724007 218.942424 
L 246.098404 198.966857 
L 239.472801 167.755034 
L 232.847199 196.469911 
L 226.221596 178.991291 
L 219.595993 188.979074 
L 212.97039 142.785576 
L 206.344787 173.997399 
L 199.719184 182.736709 
L 193.093581 171.500453 
L 186.467978 193.972966 
L 179.842375 171.500453 
L 173.216772 169.003507 
L 166.591169 195.221438 
L 159.965566 155.270305 
L 153.339963 156.518778 
L 146.71436 167.755034 
L 140.088757 162.761143 
L 133.463154 164.009616 
L 126.837551 132.797793 
L 120.211948 141.537103 
L 113.586345 146.530995 
L 106.960742 155.270305 
L 100.335139 157.767251 
L 93.709536 127.803901 
L 87.083933 132.797793 
L 80.45833 100.337498 
L 73.832727 71.622621 
z
" clip-path="url(#p709ba513cc)" style="fill: #e377c2"/>
   </g>
   <g id="PolyCollection_8">
    <path d="M 73.832727 66.628729 
L 73.832727 71.622621 
L 80.45833 100.337498 
L 87.083933 132.797793 
L 93.709536 127.803901 
L 100.335139 157.767251 
L 106.960742 155.270305 
L 113.586345 146.530995 
L 120.211948 141.537103 
L 126.837551 132.797793 
L 133.463154 164.009616 
L 140.088757 162.761143 
L 146.71436 167.755034 
L 153.339963 156.518778 
L 159.965566 155.270305 
L 166.591169 195.221438 
L 173.216772 169.003507 
L 179.842375 171.500453 
L 186.467978 193.972966 
L 193.093581 171.500453 
L 199.719184 182.736709 
L 206.344787 173.997399 
L 212.97039 142.785576 
L 219.595993 188.979074 
L 226.221596 178.991291 
L 232.847199 196.469911 
L 239.472801 167.755034 
L 246.098404 198.966857 
L 252.724007 218.942424 
L 259.34961 241.414936 
L 265.975213 276.372177 
L 272.600816 230.17868 
L 279.226419 276.372177 
L 285.852022 272.626759 
L 292.477625 272.626759 
L 299.103228 275.123704 
L 305.728831 277.62065 
L 312.354434 293.850798 
L 318.980037 292.602325 
L 325.60564 295.099271 
L 332.231243 295.099271 
L 338.856846 291.353852 
L 345.482449 301.341635 
L 352.108052 288.856906 
L 358.733655 287.608433 
L 365.359258 282.614542 
L 371.984861 287.608433 
L 378.610464 288.856906 
L 385.236067 291.353852 
L 391.86167 293.850798 
L 398.487273 295.099271 
L 398.487273 295.099271 
L 398.487273 295.099271 
L 391.86167 293.850798 
L 385.236067 291.353852 
L 378.610464 288.856906 
L 371.984861 287.608433 
L 365.359258 282.614542 
L 358.733655 287.608433 
L 352.108052 288.856906 
L 345.482449 301.341635 
L 338.856846 291.353852 
L 332.231243 295.099271 
L 325.60564 295.099271 
L 318.980037 292.602325 
L 312.354434 293.850798 
L 305.728831 277.62065 
L 299.103228 275.123704 
L 292.477625 272.626759 
L 285.852022 272.626759 
L 279.226419 276.372177 
L 272.600816 230.17868 
L 265.975213 276.372177 
L 259.34961 241.414936 
L 252.724007 218.942424 
L 246.098404 198.966857 
L 239.472801 167.755034 
L 232.847199 196.469911 
L 226.221596 178.991291 
L 219.595993 188.979074 
L 212.97039 132.797793 
L 206.344787 161.51267 
L 199.719184 170.25198 
L 193.093581 157.767251 
L 186.467978 177.742818 
L 179.842375 157.767251 
L 173.216772 154.021833 
L 166.591169 181.488236 
L 159.965566 145.282522 
L 153.339963 144.034049 
L 146.71436 150.276414 
L 140.088757 151.524887 
L 133.463154 145.282522 
L 126.837551 119.064591 
L 120.211948 125.306956 
L 113.586345 127.803901 
L 106.960742 136.543212 
L 100.335139 136.543212 
L 93.709536 107.828335 
L 87.083933 115.319172 
L 80.45833 85.355823 
L 73.832727 66.628729 
z
" clip-path="url(#p709ba513cc)" style="fill: #7f7f7f"/>
   </g>
   <g id="PolyCollection_9">
    <path d="M 73.832727 65.380256 
L 73.832727 66.628729 
L 80.45833 85.355823 
L 87.083933 115.319172 
L 93.709536 107.828335 
L 100.335139 136.543212 
L 106.960742 136.543212 
L 113.586345 127.803901 
L 120.211948 125.306956 
L 126.837551 119.064591 
L 133.463154 145.282522 
L 140.088757 151.524887 
L 146.71436 150.276414 
L 153.339963 144.034049 
L 159.965566 145.282522 
L 166.591169 181.488236 
L 173.216772 154.021833 
L 179.842375 157.767251 
L 186.467978 177.742818 
L 193.093581 157.767251 
L 199.719184 170.25198 
L 206.344787 161.51267 
L 212.97039 132.797793 
L 219.595993 188.979074 
L 226.221596 178.991291 
L 232.847199 196.469911 
L 239.472801 167.755034 
L 246.098404 198.966857 
L 252.724007 218.942424 
L 259.34961 241.414936 
L 265.975213 276.372177 
L 272.600816 230.17868 
L 279.226419 276.372177 
L 285.852022 272.626759 
L 292.477625 272.626759 
L 299.103228 275.123704 
L 305.728831 277.62065 
L 312.354434 293.850798 
L 318.980037 292.602325 
L 325.60564 295.099271 
L 332.231243 295.099271 
L 338.856846 291.353852 
L 345.482449 301.341635 
L 352.108052 288.856906 
L 358.733655 287.608433 
L 365.359258 282.614542 
L 371.984861 287.608433 
L 378.610464 288.856906 
L 385.236067 291.353852 
L 391.86167 293.850798 
L 398.487273 295.099271 
L 398.487273 295.099271 
L 398.487273 295.099271 
L 391.86167 286.359961 
L 385.236067 243.911882 
L 378.610464 275.123704 
L 371.984861 248.905773 
L 365.359258 270.129813 
L 358.733655 273.875232 
L 352.108052 275.123704 
L 345.482449 293.850798 
L 338.856846 280.117596 
L 332.231243 265.135921 
L 325.60564 285.111488 
L 318.980037 283.863015 
L 312.354434 286.359961 
L 305.728831 245.160355 
L 299.103228 257.645084 
L 292.477625 237.669517 
L 285.852022 256.396611 
L 279.226419 236.421044 
L 272.600816 202.712276 
L 265.975213 265.135921 
L 259.34961 161.51267 
L 252.724007 124.058483 
L 246.098404 169.003507 
L 239.472801 145.282522 
L 232.847199 176.494345 
L 226.221596 159.015724 
L 219.595993 172.748926 
L 212.97039 119.064591 
L 206.344787 151.524887 
L 199.719184 159.015724 
L 193.093581 145.282522 
L 186.467978 161.51267 
L 179.842375 142.785576 
L 173.216772 140.288631 
L 166.591169 167.755034 
L 159.965566 130.300847 
L 153.339963 132.797793 
L 146.71436 125.306956 
L 140.088757 142.785576 
L 133.463154 122.81001 
L 126.837551 106.579862 
L 120.211948 114.0707 
L 113.586345 112.822227 
L 106.960742 121.561537 
L 100.335139 121.561537 
L 93.709536 94.095133 
L 87.083933 97.840552 
L 80.45833 79.113458 
L 73.832727 65.380256 
z
" clip-path="url(#p709ba513cc)" style="fill: #bcbd22"/>
   </g>
   <g id="PolyCollection_10">
    <path d="M 73.832727 62.88331 
L 73.832727 65.380256 
L 80.45833 79.113458 
L 87.083933 97.840552 
L 93.709536 94.095133 
L 100.335139 121.561537 
L 106.960742 121.561537 
L 113.586345 112.822227 
L 120.211948 114.0707 
L 126.837551 106.579862 
L 133.463154 122.81001 
L 140.088757 142.785576 
L 146.71436 125.306956 
L 153.339963 132.797793 
L 159.965566 130.300847 
L 166.591169 167.755034 
L 173.216772 140.288631 
L 179.842375 142.785576 
L 186.467978 161.51267 
L 193.093581 145.282522 
L 199.719184 159.015724 
L 206.344787 151.524887 
L 212.97039 119.064591 
L 219.595993 172.748926 
L 226.221596 159.015724 
L 232.847199 176.494345 
L 239.472801 145.282522 
L 246.098404 169.003507 
L 252.724007 124.058483 
L 259.34961 161.51267 
L 265.975213 265.135921 
L 272.600816 202.712276 
L 279.226419 236.421044 
L 285.852022 256.396611 
L 292.477625 237.669517 
L 299.103228 257.645084 
L 305.728831 245.160355 
L 312.354434 286.359961 
L 318.980037 283.863015 
L 325.60564 285.111488 
L 332.231243 265.135921 
L 338.856846 280.117596 
L 345.482449 293.850798 
L 352.108052 275.123704 
L 358.733655 273.875232 
L 365.359258 270.129813 
L 371.984861 248.905773 
L 378.610464 275.123704 
L 385.236067 243.911882 
L 391.86167 286.359961 
L 398.487273 295.099271 
L 398.487273 295.099271 
L 398.487273 295.099271 
L 391.86167 286.359961 
L 385.236067 243.911882 
L 378.610464 275.123704 
L 371.984861 248.905773 
L 365.359258 270.129813 
L 358.733655 273.875232 
L 352.108052 275.123704 
L 345.482449 293.850798 
L 338.856846 280.117596 
L 332.231243 265.135921 
L 325.60564 285.111488 
L 318.980037 283.863015 
L 312.354434 286.359961 
L 305.728831 245.160355 
L 299.103228 257.645084 
L 292.477625 237.669517 
L 285.852022 256.396611 
L 279.226419 171.500453 
L 272.600816 150.276414 
L 265.975213 192.724493 
L 259.34961 141.537103 
L 252.724007 95.343606 
L 246.098404 124.058483 
L 239.472801 115.319172 
L 232.847199 135.294739 
L 226.221596 126.555429 
L 219.595993 131.54932 
L 212.97039 102.834443 
L 206.344787 115.319172 
L 199.719184 130.300847 
L 193.093581 119.064591 
L 186.467978 129.052374 
L 179.842375 120.313064 
L 173.216772 127.803901 
L 166.591169 144.034049 
L 159.965566 119.064591 
L 153.339963 100.337498 
L 146.71436 109.076808 
L 140.088757 125.306956 
L 133.463154 104.082916 
L 126.837551 91.598187 
L 120.211948 101.58597 
L 113.586345 99.089025 
L 106.960742 114.0707 
L 100.335139 110.325281 
L 93.709536 81.610404 
L 87.083933 81.610404 
L 80.45833 66.628729 
L 73.832727 62.88331 
z
" clip-path="url(#p709ba513cc)" style="fill: #17becf"/>
   </g>
   <g id="PolyCollection_11">
    <path d="M 73.832727 57.889419 
L 73.832727 62.88331 
L 80.45833 66.628729 
L 87.083933 81.610404 
L 93.709536 81.610404 
L 100.335139 110.325281 
L 106.960742 114.0707 
L 113.586345 99.089025 
L 120.211948 101.58597 
L 126.837551 91.598187 
L 133.463154 104.082916 
L 140.088757 125.306956 
L 146.71436 109.076808 
L 153.339963 100.337498 
L 159.965566 119.064591 
L 166.591169 144.034049 
L 173.216772 127.803901 
L 179.842375 120.313064 
L 186.467978 129.052374 
L 193.093581 119.064591 
L 199.719184 130.300847 
L 206.344787 115.319172 
L 212.97039 102.834443 
L 219.595993 131.54932 
L 226.221596 126.555429 
L 232.847199 135.294739 
L 239.472801 115.319172 
L 246.098404 124.058483 
L 252.724007 95.343606 
L 259.34961 141.537103 
L 265.975213 192.724493 
L 272.600816 150.276414 
L 279.226419 171.500453 
L 285.852022 256.396611 
L 292.477625 237.669517 
L 299.103228 257.645084 
L 305.728831 245.160355 
L 312.354434 286.359961 
L 318.980037 283.863015 
L 325.60564 285.111488 
L 332.231243 265.135921 
L 338.856846 280.117596 
L 345.482449 293.850798 
L 352.108052 275.123704 
L 358.733655 273.875232 
L 365.359258 270.129813 
L 371.984861 248.905773 
L 378.610464 275.123704 
L 385.236067 243.911882 
L 391.86167 286.359961 
L 398.487273 295.099271 
L 398.487273 295.099271 
L 398.487273 295.099271 
L 391.86167 286.359961 
L 385.236067 243.911882 
L 378.610464 275.123704 
L 371.984861 248.905773 
L 365.359258 270.129813 
L 358.733655 273.875232 
L 352.108052 275.123704 
L 345.482449 293.850798 
L 338.856846 280.117596 
L 332.231243 265.135921 
L 325.60564 285.111488 
L 318.980037 283.863015 
L 312.354434 286.359961 
L 305.728831 245.160355 
L 299.103228 257.645084 
L 292.477625 237.669517 
L 285.852022 256.396611 
L 279.226419 171.500453 
L 272.600816 150.276414 
L 265.975213 192.724493 
L 259.34961 141.537103 
L 252.724007 95.343606 
L 246.098404 124.058483 
L 239.472801 115.319172 
L 232.847199 135.294739 
L 226.221596 126.555429 
L 219.595993 131.54932 
L 212.97039 90.349714 
L 206.344787 102.834443 
L 199.719184 116.567645 
L 193.093581 107.828335 
L 186.467978 115.319172 
L 179.842375 99.089025 
L 173.216772 102.834443 
L 166.591169 126.555429 
L 159.965566 106.579862 
L 153.339963 87.852768 
L 146.71436 94.095133 
L 140.088757 111.573754 
L 133.463154 87.852768 
L 126.837551 81.610404 
L 120.211948 86.604296 
L 113.586345 82.858877 
L 106.960742 101.58597 
L 100.335139 85.355823 
L 93.709536 72.871094 
L 87.083933 62.88331 
L 80.45833 54.144 
L 73.832727 57.889419 
z
" clip-path="url(#p709ba513cc)" style="fill: #1f77b4"/>
   </g>
   <g id="PolyCollection_12">
    <path d="M 73.832727 57.889419 
L 73.832727 57.889419 
L 80.45833 54.144 
L 87.083933 62.88331 
L 93.709536 72.871094 
L 100.335139 85.355823 
L 106.960742 101.58597 
L 113.586345 82.858877 
L 120.211948 86.604296 
L 126.837551 81.610404 
L 133.463154 87.852768 
L 140.088757 111.573754 
L 146.71436 94.095133 
L 153.339963 87.852768 
L 159.965566 106.579862 
L 166.591169 126.555429 
L 173.216772 102.834443 
L 179.842375 99.089025 
L 186.467978 115.319172 
L 193.093581 107.828335 
L 199.719184 116.567645 
L 206.344787 102.834443 
L 212.97039 90.349714 
L 219.595993 131.54932 
L 226.221596 126.555429 
L 232.847199 135.294739 
L 239.472801 115.319172 
L 246.098404 124.058483 
L 252.724007 95.343606 
L 259.34961 141.537103 
L 265.975213 192.724493 
L 272.600816 150.276414 
L 279.226419 171.500453 
L 285.852022 256.396611 
L 292.477625 237.669517 
L 299.103228 257.645084 
L 305.728831 245.160355 
L 312.354434 286.359961 
L 318.980037 283.863015 
L 325.60564 285.111488 
L 332.231243 265.135921 
L 338.856846 280.117596 
L 345.482449 293.850798 
L 352.108052 275.123704 
L 358.733655 273.875232 
L 365.359258 270.129813 
L 371.984861 248.905773 
L 378.610464 275.123704 
L 385.236067 243.911882 
L 391.86167 286.359961 
L 398.487273 295.099271 
L 398.487273 281.366069 
L 398.487273 281.366069 
L 391.86167 271.378286 
L 385.236067 230.17868 
L 378.610464 261.390502 
L 371.984861 236.421044 
L 365.359258 257.645084 
L 358.733655 262.638975 
L 352.108052 263.887448 
L 345.482449 288.856906 
L 338.856846 258.893557 
L 332.231243 252.651192 
L 325.60564 276.372177 
L 318.980037 255.148138 
L 312.354434 265.135921 
L 305.728831 200.21533 
L 299.103228 218.942424 
L 292.477625 188.979074 
L 285.852022 231.427153 
L 279.226419 134.046266 
L 272.600816 130.300847 
L 265.975213 169.003507 
L 259.34961 131.54932 
L 252.724007 80.361931 
L 246.098404 97.840552 
L 239.472801 96.592079 
L 232.847199 106.579862 
L 226.221596 104.082916 
L 219.595993 104.082916 
L 212.97039 86.604296 
L 206.344787 82.858877 
L 199.719184 89.101241 
L 193.093581 91.598187 
L 186.467978 85.355823 
L 179.842375 85.355823 
L 173.216772 91.598187 
L 166.591169 115.319172 
L 159.965566 96.592079 
L 153.339963 82.858877 
L 146.71436 84.10735 
L 140.088757 102.834443 
L 133.463154 72.871094 
L 126.837551 65.380256 
L 120.211948 71.622621 
L 113.586345 64.131783 
L 106.960742 81.610404 
L 100.335139 61.634837 
L 93.709536 56.640946 
L 87.083933 56.640946 
L 80.45833 54.144 
L 73.832727 57.889419 
z
" clip-path="url(#p709ba513cc)" style="fill: #ff7f0e"/>
   </g>
   <g id="PolyCollection_13">
    <path d="M 73.832727 57.889419 
L 73.832727 57.889419 
L 80.45833 54.144 
L 87.083933 56.640946 
L 93.709536 56.640946 
L 100.335139 61.634837 
L 106.960742 81.610404 
L 113.586345 64.131783 
L 120.211948 71.622621 
L 126.837551 65.380256 
L 133.463154 72.871094 
L 140.088757 102.834443 
L 146.71436 84.10735 
L 153.339963 82.858877 
L 159.965566 96.592079 
L 166.591169 115.319172 
L 173.216772 91.598187 
L 179.842375 85.355823 
L 186.467978 85.355823 
L 193.093581 91.598187 
L 199.719184 89.101241 
L 206.344787 82.858877 
L 212.97039 86.604296 
L 219.595993 104.082916 
L 226.221596 104.082916 
L 232.847199 106.579862 
L 239.472801 96.592079 
L 246.098404 97.840552 
L 252.724007 80.361931 
L 259.34961 131.54932 
L 265.975213 169.003507 
L 272.600816 130.300847 
L 279.226419 134.046266 
L 285.852022 231.427153 
L 292.477625 188.979074 
L 299.103228 218.942424 
L 305.728831 200.21533 
L 312.354434 265.135921 
L 318.980037 255.148138 
L 325.60564 276.372177 
L 332.231243 252.651192 
L 338.856846 258.893557 
L 345.482449 288.856906 
L 352.108052 263.887448 
L 358.733655 262.638975 
L 365.359258 257.645084 
L 371.984861 236.421044 
L 378.610464 261.390502 
L 385.236067 230.17868 
L 391.86167 271.378286 
L 398.487273 281.366069 
L 398.487273 265.135921 
L 398.487273 265.135921 
L 391.86167 258.893557 
L 385.236067 215.197005 
L 378.610464 246.408828 
L 371.984861 220.190897 
L 365.359258 240.166463 
L 358.733655 248.905773 
L 352.108052 253.899665 
L 345.482449 278.869123 
L 338.856846 243.911882 
L 332.231243 235.172571 
L 325.60564 260.14203 
L 318.980037 237.669517 
L 312.354434 245.160355 
L 305.728831 160.264197 
L 299.103228 186.482128 
L 292.477625 141.537103 
L 285.852022 114.0707 
L 279.226419 104.082916 
L 272.600816 100.337498 
L 265.975213 140.288631 
L 259.34961 112.822227 
L 252.724007 59.137892 
L 246.098404 76.616512 
L 239.472801 75.368039 
L 232.847199 82.858877 
L 226.221596 79.113458 
L 219.595993 80.361931 
L 212.97039 74.119567 
L 206.344787 65.380256 
L 199.719184 75.368039 
L 193.093581 77.864985 
L 186.467978 71.622621 
L 179.842375 71.622621 
L 173.216772 76.616512 
L 166.591169 71.622621 
L 159.965566 72.871094 
L 153.339963 70.374148 
L 146.71436 72.871094 
L 140.088757 90.349714 
L 133.463154 56.640946 
L 126.837551 55.392473 
L 120.211948 55.392473 
L 113.586345 59.137892 
L 106.960742 56.640946 
L 100.335139 56.640946 
L 93.709536 56.640946 
L 87.083933 56.640946 
L 80.45833 54.144 
L 73.832727 57.889419 
z
" clip-path="url(#p709ba513cc)" style="fill: #2ca02c"/>
   </g>
   <g id="PolyCollection_14">
    <path d="M 73.832727 57.889419 
L 73.832727 57.889419 
L 80.45833 54.144 
L 87.083933 56.640946 
L 93.709536 56.640946 
L 100.335139 56.640946 
L 106.960742 56.640946 
L 113.586345 59.137892 
L 120.211948 55.392473 
L 126.837551 55.392473 
L 133.463154 56.640946 
L 140.088757 90.349714 
L 146.71436 72.871094 
L 153.339963 70.374148 
L 159.965566 72.871094 
L 166.591169 71.622621 
L 173.216772 76.616512 
L 179.842375 71.622621 
L 186.467978 71.622621 
L 193.093581 77.864985 
L 199.719184 75.368039 
L 206.344787 65.380256 
L 212.97039 74.119567 
L 219.595993 80.361931 
L 226.221596 79.113458 
L 232.847199 82.858877 
L 239.472801 75.368039 
L 246.098404 76.616512 
L 252.724007 59.137892 
L 259.34961 112.822227 
L 265.975213 140.288631 
L 272.600816 100.337498 
L 279.226419 104.082916 
L 285.852022 114.0707 
L 292.477625 141.537103 
L 299.103228 186.482128 
L 305.728831 160.264197 
L 312.354434 245.160355 
L 318.980037 237.669517 
L 325.60564 260.14203 
L 332.231243 235.172571 
L 338.856846 243.911882 
L 345.482449 278.869123 
L 352.108052 253.899665 
L 358.733655 248.905773 
L 365.359258 240.166463 
L 371.984861 220.190897 
L 378.610464 246.408828 
L 385.236067 215.197005 
L 391.86167 258.893557 
L 398.487273 265.135921 
L 398.487273 256.396611 
L 398.487273 256.396611 
L 391.86167 252.651192 
L 385.236067 208.95464 
L 378.610464 230.17868 
L 371.984861 205.209222 
L 365.359258 227.681734 
L 358.733655 236.421044 
L 352.108052 242.663409 
L 345.482449 273.875232 
L 338.856846 236.421044 
L 332.231243 221.439369 
L 325.60564 228.930207 
L 318.980037 212.700059 
L 312.354434 207.706167 
L 305.728831 134.046266 
L 299.103228 162.761143 
L 292.477625 100.337498 
L 285.852022 87.852768 
L 279.226419 86.604296 
L 272.600816 76.616512 
L 265.975213 70.374148 
L 259.34961 56.640946 
L 252.724007 57.889419 
L 246.098404 55.392473 
L 239.472801 54.144 
L 232.847199 57.889419 
L 226.221596 55.392473 
L 219.595993 56.640946 
L 212.97039 61.634837 
L 206.344787 55.392473 
L 199.719184 56.640946 
L 193.093581 55.392473 
L 186.467978 55.392473 
L 179.842375 55.392473 
L 173.216772 55.392473 
L 166.591169 56.640946 
L 159.965566 56.640946 
L 153.339963 57.889419 
L 146.71436 56.640946 
L 140.088757 57.889419 
L 133.463154 54.144 
L 126.837551 55.392473 
L 120.211948 55.392473 
L 113.586345 59.137892 
L 106.960742 56.640946 
L 100.335139 56.640946 
L 93.709536 56.640946 
L 87.083933 56.640946 
L 80.45833 54.144 
L 73.832727 57.889419 
z
" clip-path="url(#p709ba513cc)" style="fill: #d62728"/>
   </g>
   <g id="PolyCollection_15">
    <path d="M 73.832727 57.889419 
L 73.832727 57.889419 
L 80.45833 54.144 
L 87.083933 56.640946 
L 93.709536 56.640946 
L 100.335139 56.640946 
L 106.960742 56.640946 
L 113.586345 59.137892 
L 120.211948 55.392473 
L 126.837551 55.392473 
L 133.463154 54.144 
L 140.088757 57.889419 
L 146.71436 56.640946 
L 153.339963 57.889419 
L 159.965566 56.640946 
L 166.591169 56.640946 
L 173.216772 55.392473 
L 179.842375 55.392473 
L 186.467978 55.392473 
L 193.093581 55.392473 
L 199.719184 56.640946 
L 206.344787 55.392473 
L 212.97039 61.634837 
L 219.595993 56.640946 
L 226.221596 55.392473 
L 232.847199 57.889419 
L 239.472801 54.144 
L 246.098404 55.392473 
L 252.724007 57.889419 
L 259.34961 56.640946 
L 265.975213 70.374148 
L 272.600816 76.616512 
L 279.226419 86.604296 
L 285.852022 87.852768 
L 292.477625 100.337498 
L 299.103228 162.761143 
L 305.728831 134.046266 
L 312.354434 207.706167 
L 318.980037 212.700059 
L 325.60564 228.930207 
L 332.231243 221.439369 
L 338.856846 236.421044 
L 345.482449 273.875232 
L 352.108052 242.663409 
L 358.733655 236.421044 
L 365.359258 227.681734 
L 371.984861 205.209222 
L 378.610464 230.17868 
L 385.236067 208.95464 
L 391.86167 252.651192 
L 398.487273 256.396611 
L 398.487273 246.408828 
L 398.487273 246.408828 
L 391.86167 240.166463 
L 385.236067 201.463803 
L 378.610464 217.693951 
L 371.984861 193.972966 
L 365.359258 212.700059 
L 358.733655 226.433261 
L 352.108052 232.675626 
L 345.482449 261.390502 
L 338.856846 218.942424 
L 332.231243 207.706167 
L 325.60564 216.445478 
L 318.980037 202.712276 
L 312.354434 192.724493 
L 305.728831 102.834443 
L 299.103228 130.300847 
L 292.477625 60.386365 
L 285.852022 57.889419 
L 279.226419 56.640946 
L 272.600816 59.137892 
L 265.975213 59.137892 
L 259.34961 56.640946 
L 252.724007 57.889419 
L 246.098404 55.392473 
L 239.472801 54.144 
L 232.847199 57.889419 
L 226.221596 55.392473 
L 219.595993 56.640946 
L 212.97039 61.634837 
L 206.344787 55.392473 
L 199.719184 56.640946 
L 193.093581 55.392473 
L 186.467978 55.392473 
L 179.842375 55.392473 
L 173.216772 55.392473 
L 166.591169 56.640946 
L 159.965566 56.640946 
L 153.339963 57.889419 
L 146.71436 56.640946 
L 140.088757 57.889419 
L 133.463154 54.144 
L 126.837551 55.392473 
L 120.211948 55.392473 
L 113.586345 59.137892 
L 106.960742 56.640946 
L 100.335139 56.640946 
L 93.709536 56.640946 
L 87.083933 56.640946 
L 80.45833 54.144 
L 73.832727 57.889419 
z
" clip-path="url(#p709ba513cc)" style="fill: #9467bd"/>
   </g>
   <g id="PolyCollection_16">
    <path d="M 73.832727 57.889419 
L 73.832727 57.889419 
L 80.45833 54.144 
L 87.083933 56.640946 
L 93.709536 56.640946 
L 100.335139 56.640946 
L 106.960742 56.640946 
L 113.586345 59.137892 
L 120.211948 55.392473 
L 126.837551 55.392473 
L 133.463154 54.144 
L 140.088757 57.889419 
L 146.71436 56.640946 
L 153.339963 57.889419 
L 159.965566 56.640946 
L 166.591169 56.640946 
L 173.216772 55.392473 
L 179.842375 55.392473 
L 186.467978 55.392473 
L 193.093581 55.392473 
L 199.719184 56.640946 
L 206.344787 55.392473 
L 212.97039 61.634837 
L 219.595993 56.640946 
L 226.221596 55.392473 
L 232.847199 57.889419 
L 239.472801 54.144 
L 246.098404 55.392473 
L 252.724007 57.889419 
L 259.34961 56.640946 
L 265.975213 59.137892 
L 272.600816 59.137892 
L 279.226419 56.640946 
L 285.852022 57.889419 
L 292.477625 60.386365 
L 299.103228 130.300847 
L 305.728831 102.834443 
L 312.354434 192.724493 
L 318.980037 202.712276 
L 325.60564 216.445478 
L 332.231243 207.706167 
L 338.856846 218.942424 
L 345.482449 261.390502 
L 352.108052 232.675626 
L 358.733655 226.433261 
L 365.359258 212.700059 
L 371.984861 193.972966 
L 378.610464 217.693951 
L 385.236067 201.463803 
L 391.86167 240.166463 
L 398.487273 246.408828 
L 398.487273 231.427153 
L 398.487273 231.427153 
L 391.86167 226.433261 
L 385.236067 192.724493 
L 378.610464 203.960749 
L 371.984861 185.233655 
L 365.359258 197.718384 
L 358.733655 223.936315 
L 352.108052 175.245872 
L 345.482449 253.899665 
L 338.856846 171.500453 
L 332.231243 178.991291 
L 325.60564 206.457695 
L 318.980037 176.494345 
L 312.354434 170.25198 
L 305.728831 84.10735 
L 299.103228 59.137892 
L 292.477625 56.640946 
L 285.852022 57.889419 
L 279.226419 56.640946 
L 272.600816 59.137892 
L 265.975213 59.137892 
L 259.34961 56.640946 
L 252.724007 57.889419 
L 246.098404 55.392473 
L 239.472801 54.144 
L 232.847199 57.889419 
L 226.221596 55.392473 
L 219.595993 56.640946 
L 212.97039 61.634837 
L 206.344787 55.392473 
L 199.719184 56.640946 
L 193.093581 55.392473 
L 186.467978 55.392473 
L 179.842375 55.392473 
L 173.216772 55.392473 
L 166.591169 56.640946 
L 159.965566 56.640946 
L 153.339963 57.889419 
L 146.71436 56.640946 
L 140.088757 57.889419 
L 133.463154 54.144 
L 126.837551 55.392473 
L 120.211948 55.392473 
L 113.586345 59.137892 
L 106.960742 56.640946 
L 100.335139 56.640946 
L 93.709536 56.640946 
L 87.083933 56.640946 
L 80.45833 54.144 
L 73.832727 57.889419 
z
" clip-path="url(#p709ba513cc)" style="fill: #8c564b"/>
   </g>
   <g id="PolyCollection_17">
    <path d="M 73.832727 57.889419 
L 73.832727 57.889419 
L 80.45833 54.144 
L 87.083933 56.640946 
L 93.709536 56.640946 
L 100.335139 56.640946 
L 106.960742 56.640946 
L 113.586345 59.137892 
L 120.211948 55.392473 
L 126.837551 55.392473 
L 133.463154 54.144 
L 140.088757 57.889419 
L 146.71436 56.640946 
L 153.339963 57.889419 
L 159.965566 56.640946 
L 166.591169 56.640946 
L 173.216772 55.392473 
L 179.842375 55.392473 
L 186.467978 55.392473 
L 193.093581 55.392473 
L 199.719184 56.640946 
L 206.344787 55.392473 
L 212.97039 61.634837 
L 219.595993 56.640946 
L 226.221596 55.392473 
L 232.847199 57.889419 
L 239.472801 54.144 
L 246.098404 55.392473 
L 252.724007 57.889419 
L 259.34961 56.640946 
L 265.975213 59.137892 
L 272.600816 59.137892 
L 279.226419 56.640946 
L 285.852022 57.889419 
L 292.477625 56.640946 
L 299.103228 59.137892 
L 305.728831 84.10735 
L 312.354434 170.25198 
L 318.980037 176.494345 
L 325.60564 206.457695 
L 332.231243 178.991291 
L 338.856846 171.500453 
L 345.482449 253.899665 
L 352.108052 175.245872 
L 358.733655 223.936315 
L 365.359258 197.718384 
L 371.984861 185.233655 
L 378.610464 203.960749 
L 385.236067 192.724493 
L 391.86167 226.433261 
L 398.487273 231.427153 
L 398.487273 217.693951 
L 398.487273 217.693951 
L 391.86167 212.700059 
L 385.236067 182.736709 
L 378.610464 193.972966 
L 371.984861 177.742818 
L 365.359258 195.221438 
L 358.733655 145.282522 
L 352.108052 167.755034 
L 345.482449 129.052374 
L 338.856846 166.506562 
L 332.231243 164.009616 
L 325.60564 193.972966 
L 318.980037 161.51267 
L 312.354434 149.027941 
L 305.728831 79.113458 
L 299.103228 59.137892 
L 292.477625 56.640946 
L 285.852022 57.889419 
L 279.226419 56.640946 
L 272.600816 59.137892 
L 265.975213 59.137892 
L 259.34961 56.640946 
L 252.724007 57.889419 
L 246.098404 55.392473 
L 239.472801 54.144 
L 232.847199 57.889419 
L 226.221596 55.392473 
L 219.595993 56.640946 
L 212.97039 61.634837 
L 206.344787 55.392473 
L 199.719184 56.640946 
L 193.093581 55.392473 
L 186.467978 55.392473 
L 179.842375 55.392473 
L 173.216772 55.392473 
L 166.591169 56.640946 
L 159.965566 56.640946 
L 153.339963 57.889419 
L 146.71436 56.640946 
L 140.088757 57.889419 
L 133.463154 54.144 
L 126.837551 55.392473 
L 120.211948 55.392473 
L 113.586345 59.137892 
L 106.960742 56.640946 
L 100.335139 56.640946 
L 93.709536 56.640946 
L 87.083933 56.640946 
L 80.45833 54.144 
L 73.832727 57.889419 
z
" clip-path="url(#p709ba513cc)" style="fill: #e377c2"/>
   </g>
   <g id="PolyCollection_18">
    <path d="M 73.832727 57.889419 
L 73.832727 57.889419 
L 80.45833 54.144 
L 87.083933 56.640946 
L 93.709536 56.640946 
L 100.335139 56.640946 
L 106.960742 56.640946 
L 113.586345 59.137892 
L 120.211948 55.392473 
L 126.837551 55.392473 
L 133.463154 54.144 
L 140.088757 57.889419 
L 146.71436 56.640946 
L 153.339963 57.889419 
L 159.965566 56.640946 
L 166.591169 56.640946 
L 173.216772 55.392473 
L 179.842375 55.392473 
L 186.467978 55.392473 
L 193.093581 55.392473 
L 199.719184 56.640946 
L 206.344787 55.392473 
L 212.97039 61.634837 
L 219.595993 56.640946 
L 226.221596 55.392473 
L 232.847199 57.889419 
L 239.472801 54.144 
L 246.098404 55.392473 
L 252.724007 57.889419 
L 259.34961 56.640946 
L 265.975213 59.137892 
L 272.600816 59.137892 
L 279.226419 56.640946 
L 285.852022 57.889419 
L 292.477625 56.640946 
L 299.103228 59.137892 
L 305.728831 79.113458 
L 312.354434 149.027941 
L 318.980037 161.51267 
L 325.60564 193.972966 
L 332.231243 164.009616 
L 338.856846 166.506562 
L 345.482449 129.052374 
L 352.108052 167.755034 
L 358.733655 145.282522 
L 365.359258 195.221438 
L 371.984861 177.742818 
L 378.610464 193.972966 
L 385.236067 182.736709 
L 391.86167 212.700059 
L 398.487273 217.693951 
L 398.487273 208.95464 
L 398.487273 208.95464 
L 391.86167 198.966857 
L 385.236067 162.761143 
L 378.610464 173.997399 
L 371.984861 157.767251 
L 365.359258 173.997399 
L 358.733655 135.294739 
L 352.108052 150.276414 
L 345.482449 110.325281 
L 338.856846 146.530995 
L 332.231243 141.537103 
L 325.60564 126.555429 
L 318.980037 120.313064 
L 312.354434 107.828335 
L 305.728831 72.871094 
L 299.103228 59.137892 
L 292.477625 56.640946 
L 285.852022 57.889419 
L 279.226419 56.640946 
L 272.600816 59.137892 
L 265.975213 59.137892 
L 259.34961 56.640946 
L 252.724007 57.889419 
L 246.098404 55.392473 
L 239.472801 54.144 
L 232.847199 57.889419 
L 226.221596 55.392473 
L 219.595993 56.640946 
L 212.97039 61.634837 
L 206.344787 55.392473 
L 199.719184 56.640946 
L 193.093581 55.392473 
L 186.467978 55.392473 
L 179.842375 55.392473 
L 173.216772 55.392473 
L 166.591169 56.640946 
L 159.965566 56.640946 
L 153.339963 57.889419 
L 146.71436 56.640946 
L 140.088757 57.889419 
L 133.463154 54.144 
L 126.837551 55.392473 
L 120.211948 55.392473 
L 113.586345 59.137892 
L 106.960742 56.640946 
L 100.335139 56.640946 
L 93.709536 56.640946 
L 87.083933 56.640946 
L 80.45833 54.144 
L 73.832727 57.889419 
z
" clip-path="url(#p709ba513cc)" style="fill: #7f7f7f"/>
   </g>
   <g id="PolyCollection_19">
    <path d="M 73.832727 57.889419 
L 73.832727 57.889419 
L 80.45833 54.144 
L 87.083933 56.640946 
L 93.709536 56.640946 
L 100.335139 56.640946 
L 106.960742 56.640946 
L 113.586345 59.137892 
L 120.211948 55.392473 
L 126.837551 55.392473 
L 133.463154 54.144 
L 140.088757 57.889419 
L 146.71436 56.640946 
L 153.339963 57.889419 
L 159.965566 56.640946 
L 166.591169 56.640946 
L 173.216772 55.392473 
L 179.842375 55.392473 
L 186.467978 55.392473 
L 193.093581 55.392473 
L 199.719184 56.640946 
L 206.344787 55.392473 
L 212.97039 61.634837 
L 219.595993 56.640946 
L 226.221596 55.392473 
L 232.847199 57.889419 
L 239.472801 54.144 
L 246.098404 55.392473 
L 252.724007 57.889419 
L 259.34961 56.640946 
L 265.975213 59.137892 
L 272.600816 59.137892 
L 279.226419 56.640946 
L 285.852022 57.889419 
L 292.477625 56.640946 
L 299.103228 59.137892 
L 305.728831 72.871094 
L 312.354434 107.828335 
L 318.980037 120.313064 
L 325.60564 126.555429 
L 332.231243 141.537103 
L 338.856846 146.530995 
L 345.482449 110.325281 
L 352.108052 150.276414 
L 358.733655 135.294739 
L 365.359258 173.997399 
L 371.984861 157.767251 
L 378.610464 173.997399 
L 385.236067 162.761143 
L 391.86167 198.966857 
L 398.487273 208.95464 
L 398.487273 191.47602 
L 398.487273 191.47602 
L 391.86167 183.985182 
L 385.236067 147.779468 
L 378.610464 155.270305 
L 371.984861 145.282522 
L 365.359258 156.518778 
L 358.733655 122.81001 
L 352.108052 136.543212 
L 345.482449 99.089025 
L 338.856846 134.046266 
L 332.231243 122.81001 
L 325.60564 112.822227 
L 318.980037 111.573754 
L 312.354434 99.089025 
L 305.728831 67.877202 
L 299.103228 59.137892 
L 292.477625 56.640946 
L 285.852022 57.889419 
L 279.226419 56.640946 
L 272.600816 59.137892 
L 265.975213 59.137892 
L 259.34961 56.640946 
L 252.724007 57.889419 
L 246.098404 55.392473 
L 239.472801 54.144 
L 232.847199 57.889419 
L 226.221596 55.392473 
L 219.595993 56.640946 
L 212.97039 61.634837 
L 206.344787 55.392473 
L 199.719184 56.640946 
L 193.093581 55.392473 
L 186.467978 55.392473 
L 179.842375 55.392473 
L 173.216772 55.392473 
L 166.591169 56.640946 
L 159.965566 56.640946 
L 153.339963 57.889419 
L 146.71436 56.640946 
L 140.088757 57.889419 
L 133.463154 54.144 
L 126.837551 55.392473 
L 120.211948 55.392473 
L 113.586345 59.137892 
L 106.960742 56.640946 
L 100.335139 56.640946 
L 93.709536 56.640946 
L 87.083933 56.640946 
L 80.45833 54.144 
L 73.832727 57.889419 
z
" clip-path="url(#p709ba513cc)" style="fill: #bcbd22"/>
   </g>
   <g id="PolyCollection_20">
    <path d="M 73.832727 57.889419 
L 73.832727 57.889419 
L 80.45833 54.144 
L 87.083933 56.640946 
L 93.709536 56.640946 
L 100.335139 56.640946 
L 106.960742 56.640946 
L 113.586345 59.137892 
L 120.211948 55.392473 
L 126.837551 55.392473 
L 133.463154 54.144 
L 140.088757 57.889419 
L 146.71436 56.640946 
L 153.339963 57.889419 
L 159.965566 56.640946 
L 166.591169 56.640946 
L 173.216772 55.392473 
L 179.842375 55.392473 
L 186.467978 55.392473 
L 193.093581 55.392473 
L 199.719184 56.640946 
L 206.344787 55.392473 
L 212.97039 61.634837 
L 219.595993 56.640946 
L 226.221596 55.392473 
L 232.847199 57.889419 
L 239.472801 54.144 
L 246.098404 55.392473 
L 252.724007 57.889419 
L 259.34961 56.640946 
L 265.975213 59.137892 
L 272.600816 59.137892 
L 279.226419 56.640946 
L 285.852022 57.889419 
L 292.477625 56.640946 
L 299.103228 59.137892 
L 305.728831 67.877202 
L 312.354434 99.089025 
L 318.980037 111.573754 
L 325.60564 112.822227 
L 332.231243 122.81001 
L 338.856846 134.046266 
L 345.482449 99.089025 
L 352.108052 136.543212 
L 358.733655 122.81001 
L 365.359258 156.518778 
L 371.984861 145.282522 
L 378.610464 155.270305 
L 385.236067 147.779468 
L 391.86167 183.985182 
L 398.487273 191.47602 
L 398.487273 177.742818 
L 398.487273 177.742818 
L 391.86167 171.500453 
L 385.236067 132.797793 
L 378.610464 137.791685 
L 371.984861 130.300847 
L 365.359258 140.288631 
L 358.733655 112.822227 
L 352.108052 124.058483 
L 345.482449 89.101241 
L 338.856846 117.816118 
L 332.231243 111.573754 
L 325.60564 102.834443 
L 318.980037 99.089025 
L 312.354434 96.592079 
L 305.728831 65.380256 
L 299.103228 59.137892 
L 292.477625 56.640946 
L 285.852022 57.889419 
L 279.226419 56.640946 
L 272.600816 59.137892 
L 265.975213 59.137892 
L 259.34961 56.640946 
L 252.724007 57.889419 
L 246.098404 55.392473 
L 239.472801 54.144 
L 232.847199 57.889419 
L 226.221596 55.392473 
L 219.595993 56.640946 
L 212.97039 61.634837 
L 206.344787 55.392473 
L 199.719184 56.640946 
L 193.093581 55.392473 
L 186.467978 55.392473 
L 179.842375 55.392473 
L 173.216772 55.392473 
L 166.591169 56.640946 
L 159.965566 56.640946 
L 153.339963 57.889419 
L 146.71436 56.640946 
L 140.088757 57.889419 
L 133.463154 54.144 
L 126.837551 55.392473 
L 120.211948 55.392473 
L 113.586345 59.137892 
L 106.960742 56.640946 
L 100.335139 56.640946 
L 93.709536 56.640946 
L 87.083933 56.640946 
L 80.45833 54.144 
L 73.832727 57.889419 
z
" clip-path="url(#p709ba513cc)" style="fill: #17becf"/>
   </g>
   <g id="PolyCollection_21">
    <path d="M 73.832727 57.889419 
L 73.832727 57.889419 
L 80.45833 54.144 
L 87.083933 56.640946 
L 93.709536 56.640946 
L 100.335139 56.640946 
L 106.960742 56.640946 
L 113.586345 59.137892 
L 120.211948 55.392473 
L 126.837551 55.392473 
L 133.463154 54.144 
L 140.088757 57.889419 
L 146.71436 56.640946 
L 153.339963 57.889419 
L 159.965566 56.640946 
L 166.591169 56.640946 
L 173.216772 55.392473 
L 179.842375 55.392473 
L 186.467978 55.392473 
L 193.093581 55.392473 
L 199.719184 56.640946 
L 206.344787 55.392473 
L 212.97039 61.634837 
L 219.595993 56.640946 
L 226.221596 55.392473 
L 232.847199 57.889419 
L 239.472801 54.144 
L 246.098404 55.392473 
L 252.724007 57.889419 
L 259.34961 56.640946 
L 265.975213 59.137892 
L 272.600816 59.137892 
L 279.226419 56.640946 
L 285.852022 57.889419 
L 292.477625 56.640946 
L 299.103228 59.137892 
L 305.728831 65.380256 
L 312.354434 96.592079 
L 318.980037 99.089025 
L 325.60564 102.834443 
L 332.231243 111.573754 
L 338.856846 117.816118 
L 345.482449 89.101241 
L 352.108052 124.058483 
L 358.733655 112.822227 
L 365.359258 140.288631 
L 371.984861 130.300847 
L 378.610464 137.791685 
L 385.236067 132.797793 
L 391.86167 171.500453 
L 398.487273 177.742818 
L 398.487273 166.506562 
L 398.487273 166.506562 
L 391.86167 155.270305 
L 385.236067 116.567645 
L 378.610464 119.064591 
L 371.984861 112.822227 
L 365.359258 120.313064 
L 358.733655 97.840552 
L 352.108052 114.0707 
L 345.482449 84.10735 
L 338.856846 101.58597 
L 332.231243 97.840552 
L 325.60564 85.355823 
L 318.980037 81.610404 
L 312.354434 74.119567 
L 305.728831 64.131783 
L 299.103228 59.137892 
L 292.477625 56.640946 
L 285.852022 57.889419 
L 279.226419 56.640946 
L 272.600816 59.137892 
L 265.975213 59.137892 
L 259.34961 56.640946 
L 252.724007 57.889419 
L 246.098404 55.392473 
L 239.472801 54.144 
L 232.847199 57.889419 
L 226.221596 55.392473 
L 219.595993 56.640946 
L 212.97039 61.634837 
L 206.344787 55.392473 
L 199.719184 56.640946 
L 193.093581 55.392473 
L 186.467978 55.392473 
L 179.842375 55.392473 
L 173.216772 55.392473 
L 166.591169 56.640946 
L 159.965566 56.640946 
L 153.339963 57.889419 
L 146.71436 56.640946 
L 140.088757 57.889419 
L 133.463154 54.144 
L 126.837551 55.392473 
L 120.211948 55.392473 
L 113.586345 59.137892 
L 106.960742 56.640946 
L 100.335139 56.640946 
L 93.709536 56.640946 
L 87.083933 56.640946 
L 80.45833 54.144 
L 73.832727 57.889419 
z
" clip-path="url(#p709ba513cc)" style="fill: #1f77b4"/>
   </g>
   <g id="PolyCollection_22">
    <path d="M 73.832727 57.889419 
L 73.832727 57.889419 
L 80.45833 54.144 
L 87.083933 56.640946 
L 93.709536 56.640946 
L 100.335139 56.640946 
L 106.960742 56.640946 
L 113.586345 59.137892 
L 120.211948 55.392473 
L 126.837551 55.392473 
L 133.463154 54.144 
L 140.088757 57.889419 
L 146.71436 56.640946 
L 153.339963 57.889419 
L 159.965566 56.640946 
L 166.591169 56.640946 
L 173.216772 55.392473 
L 179.842375 55.392473 
L 186.467978 55.392473 
L 193.093581 55.392473 
L 199.719184 56.640946 
L 206.344787 55.392473 
L 212.97039 61.634837 
L 219.595993 56.640946 
L 226.221596 55.392473 
L 232.847199 57.889419 
L 239.472801 54.144 
L 246.098404 55.392473 
L 252.724007 57.889419 
L 259.34961 56.640946 
L 265.975213 59.137892 
L 272.600816 59.137892 
L 279.226419 56.640946 
L 285.852022 57.889419 
L 292.477625 56.640946 
L 299.103228 59.137892 
L 305.728831 64.131783 
L 312.354434 74.119567 
L 318.980037 81.610404 
L 325.60564 85.355823 
L 332.231243 97.840552 
L 338.856846 101.58597 
L 345.482449 84.10735 
L 352.108052 114.0707 
L 358.733655 97.840552 
L 365.359258 120.313064 
L 371.984861 112.822227 
L 378.610464 119.064591 
L 385.236067 116.567645 
L 391.86167 155.270305 
L 398.487273 166.506562 
L 398.487273 159.015724 
L 398.487273 159.015724 
L 391.86167 140.288631 
L 385.236067 101.58597 
L 378.610464 102.834443 
L 371.984861 95.343606 
L 365.359258 105.331389 
L 358.733655 84.10735 
L 352.108052 100.337498 
L 345.482449 74.119567 
L 338.856846 81.610404 
L 332.231243 81.610404 
L 325.60564 72.871094 
L 318.980037 69.125675 
L 312.354434 67.877202 
L 305.728831 60.386365 
L 299.103228 59.137892 
L 292.477625 56.640946 
L 285.852022 57.889419 
L 279.226419 56.640946 
L 272.600816 59.137892 
L 265.975213 59.137892 
L 259.34961 56.640946 
L 252.724007 57.889419 
L 246.098404 55.392473 
L 239.472801 54.144 
L 232.847199 57.889419 
L 226.221596 55.392473 
L 219.595993 56.640946 
L 212.97039 61.634837 
L 206.344787 55.392473 
L 199.719184 56.640946 
L 193.093581 55.392473 
L 186.467978 55.392473 
L 179.842375 55.392473 
L 173.216772 55.392473 
L 166.591169 56.640946 
L 159.965566 56.640946 
L 153.339963 57.889419 
L 146.71436 56.640946 
L 140.088757 57.889419 
L 133.463154 54.144 
L 126.837551 55.392473 
L 120.211948 55.392473 
L 113.586345 59.137892 
L 106.960742 56.640946 
L 100.335139 56.640946 
L 93.709536 56.640946 
L 87.083933 56.640946 
L 80.45833 54.144 
L 73.832727 57.889419 
z
" clip-path="url(#p709ba513cc)" style="fill: #ff7f0e"/>
   </g>
   <g id="PolyCollection_23">
    <path d="M 73.832727 57.889419 
L 73.832727 57.889419 
L 80.45833 54.144 
L 87.083933 56.640946 
L 93.709536 56.640946 
L 100.335139 56.640946 
L 106.960742 56.640946 
L 113.586345 59.137892 
L 120.211948 55.392473 
L 126.837551 55.392473 
L 133.463154 54.144 
L 140.088757 57.889419 
L 146.71436 56.640946 
L 153.339963 57.889419 
L 159.965566 56.640946 
L 166.591169 56.640946 
L 173.216772 55.392473 
L 179.842375 55.392473 
L 186.467978 55.392473 
L 193.093581 55.392473 
L 199.719184 56.640946 
L 206.344787 55.392473 
L 212.97039 61.634837 
L 219.595993 56.640946 
L 226.221596 55.392473 
L 232.847199 57.889419 
L 239.472801 54.144 
L 246.098404 55.392473 
L 252.724007 57.889419 
L 259.34961 56.640946 
L 265.975213 59.137892 
L 272.600816 59.137892 
L 279.226419 56.640946 
L 285.852022 57.889419 
L 292.477625 56.640946 
L 299.103228 59.137892 
L 305.728831 60.386365 
L 312.354434 67.877202 
L 318.980037 69.125675 
L 325.60564 72.871094 
L 332.231243 81.610404 
L 338.856846 81.610404 
L 345.482449 74.119567 
L 352.108052 100.337498 
L 358.733655 84.10735 
L 365.359258 105.331389 
L 371.984861 95.343606 
L 378.610464 102.834443 
L 385.236067 101.58597 
L 391.86167 140.288631 
L 398.487273 159.015724 
L 398.487273 149.027941 
L 398.487273 149.027941 
L 391.86167 127.803901 
L 385.236067 89.101241 
L 378.610464 91.598187 
L 371.984861 85.355823 
L 365.359258 92.84666 
L 358.733655 70.374148 
L 352.108052 87.852768 
L 345.482449 62.88331 
L 338.856846 64.131783 
L 332.231243 60.386365 
L 325.60564 61.634837 
L 318.980037 60.386365 
L 312.354434 57.889419 
L 305.728831 57.889419 
L 299.103228 59.137892 
L 292.477625 56.640946 
L 285.852022 57.889419 
L 279.226419 56.640946 
L 272.600816 59.137892 
L 265.975213 59.137892 
L 259.34961 56.640946 
L 252.724007 57.889419 
L 246.098404 55.392473 
L 239.472801 54.144 
L 232.847199 57.889419 
L 226.221596 55.392473 
L 219.595993 56.640946 
L 212.97039 61.634837 
L 206.344787 55.392473 
L 199.719184 56.640946 
L 193.093581 55.392473 
L 186.467978 55.392473 
L 179.842375 55.392473 
L 173.216772 55.392473 
L 166.591169 56.640946 
L 159.965566 56.640946 
L 153.339963 57.889419 
L 146.71436 56.640946 
L 140.088757 57.889419 
L 133.463154 54.144 
L 126.837551 55.392473 
L 120.211948 55.392473 
L 113.586345 59.137892 
L 106.960742 56.640946 
L 100.335139 56.640946 
L 93.709536 56.640946 
L 87.083933 56.640946 
L 80.45833 54.144 
L 73.832727 57.889419 
z
" clip-path="url(#p709ba513cc)" style="fill: #2ca02c"/>
   </g>
   <g id="PolyCollection_24">
    <path d="M 73.832727 57.889419 
L 73.832727 57.889419 
L 80.45833 54.144 
L 87.083933 56.640946 
L 93.709536 56.640946 
L 100.335139 56.640946 
L 106.960742 56.640946 
L 113.586345 59.137892 
L 120.211948 55.392473 
L 126.837551 55.392473 
L 133.463154 54.144 
L 140.088757 57.889419 
L 146.71436 56.640946 
L 153.339963 57.889419 
L 159.965566 56.640946 
L 166.591169 56.640946 
L 173.216772 55.392473 
L 179.842375 55.392473 
L 186.467978 55.392473 
L 193.093581 55.392473 
L 199.719184 56.640946 
L 206.344787 55.392473 
L 212.97039 61.634837 
L 219.595993 56.640946 
L 226.221596 55.392473 
L 232.847199 57.889419 
L 239.472801 54.144 
L 246.098404 55.392473 
L 252.724007 57.889419 
L 259.34961 56.640946 
L 265.975213 59.137892 
L 272.600816 59.137892 
L 279.226419 56.640946 
L 285.852022 57.889419 
L 292.477625 56.640946 
L 299.103228 59.137892 
L 305.728831 57.889419 
L 312.354434 57.889419 
L 318.980037 60.386365 
L 325.60564 61.634837 
L 332.231243 60.386365 
L 338.856846 64.131783 
L 345.482449 62.88331 
L 352.108052 87.852768 
L 358.733655 70.374148 
L 365.359258 92.84666 
L 371.984861 85.355823 
L 378.610464 91.598187 
L 385.236067 89.101241 
L 391.86167 127.803901 
L 398.487273 149.027941 
L 398.487273 125.306956 
L 398.487273 125.306956 
L 391.86167 102.834443 
L 385.236067 69.125675 
L 378.610464 69.125675 
L 371.984861 64.131783 
L 365.359258 60.386365 
L 358.733655 57.889419 
L 352.108052 59.137892 
L 345.482449 59.137892 
L 338.856846 59.137892 
L 332.231243 60.386365 
L 325.60564 61.634837 
L 318.980037 60.386365 
L 312.354434 57.889419 
L 305.728831 57.889419 
L 299.103228 59.137892 
L 292.477625 56.640946 
L 285.852022 57.889419 
L 279.226419 56.640946 
L 272.600816 59.137892 
L 265.975213 59.137892 
L 259.34961 56.640946 
L 252.724007 57.889419 
L 246.098404 55.392473 
L 239.472801 54.144 
L 232.847199 57.889419 
L 226.221596 55.392473 
L 219.595993 56.640946 
L 212.97039 61.634837 
L 206.344787 55.392473 
L 199.719184 56.640946 
L 193.093581 55.392473 
L 186.467978 55.392473 
L 179.842375 55.392473 
L 173.216772 55.392473 
L 166.591169 56.640946 
L 159.965566 56.640946 
L 153.339963 57.889419 
L 146.71436 56.640946 
L 140.088757 57.889419 
L 133.463154 54.144 
L 126.837551 55.392473 
L 120.211948 55.392473 
L 113.586345 59.137892 
L 106.960742 56.640946 
L 100.335139 56.640946 
L 93.709536 56.640946 
L 87.083933 56.640946 
L 80.45833 54.144 
L 73.832727 57.889419 
z
" clip-path="url(#p709ba513cc)" style="fill: #d62728"/>
   </g>
   <g id="PolyCollection_25">
    <path d="M 73.832727 57.889419 
L 73.832727 57.889419 
L 80.45833 54.144 
L 87.083933 56.640946 
L 93.709536 56.640946 
L 100.335139 56.640946 
L 106.960742 56.640946 
L 113.586345 59.137892 
L 120.211948 55.392473 
L 126.837551 55.392473 
L 133.463154 54.144 
L 140.088757 57.889419 
L 146.71436 56.640946 
L 153.339963 57.889419 
L 159.965566 56.640946 
L 166.591169 56.640946 
L 173.216772 55.392473 
L 179.842375 55.392473 
L 186.467978 55.392473 
L 193.093581 55.392473 
L 199.719184 56.640946 
L 206.344787 55.392473 
L 212.97039 61.634837 
L 219.595993 56.640946 
L 226.221596 55.392473 
L 232.847199 57.889419 
L 239.472801 54.144 
L 246.098404 55.392473 
L 252.724007 57.889419 
L 259.34961 56.640946 
L 265.975213 59.137892 
L 272.600816 59.137892 
L 279.226419 56.640946 
L 285.852022 57.889419 
L 292.477625 56.640946 
L 299.103228 59.137892 
L 305.728831 57.889419 
L 312.354434 57.889419 
L 318.980037 60.386365 
L 325.60564 61.634837 
L 332.231243 60.386365 
L 338.856846 59.137892 
L 345.482449 59.137892 
L 352.108052 59.137892 
L 358.733655 57.889419 
L 365.359258 60.386365 
L 371.984861 64.131783 
L 378.610464 69.125675 
L 385.236067 69.125675 
L 391.86167 102.834443 
L 398.487273 125.306956 
L 398.487273 119.064591 
L 398.487273 119.064591 
L 391.86167 94.095133 
L 385.236067 60.386365 
L 378.610464 59.137892 
L 371.984861 55.392473 
L 365.359258 59.137892 
L 358.733655 57.889419 
L 352.108052 59.137892 
L 345.482449 59.137892 
L 338.856846 59.137892 
L 332.231243 60.386365 
L 325.60564 61.634837 
L 318.980037 60.386365 
L 312.354434 57.889419 
L 305.728831 57.889419 
L 299.103228 59.137892 
L 292.477625 56.640946 
L 285.852022 57.889419 
L 279.226419 56.640946 
L 272.600816 59.137892 
L 265.975213 59.137892 
L 259.34961 56.640946 
L 252.724007 57.889419 
L 246.098404 55.392473 
L 239.472801 54.144 
L 232.847199 57.889419 
L 226.221596 55.392473 
L 219.595993 56.640946 
L 212.97039 61.634837 
L 206.344787 55.392473 
L 199.719184 56.640946 
L 193.093581 55.392473 
L 186.467978 55.392473 
L 179.842375 55.392473 
L 173.216772 55.392473 
L 166.591169 56.640946 
L 159.965566 56.640946 
L 153.339963 57.889419 
L 146.71436 56.640946 
L 140.088757 57.889419 
L 133.463154 54.144 
L 126.837551 55.392473 
L 120.211948 55.392473 
L 113.586345 59.137892 
L 106.960742 56.640946 
L 100.335139 56.640946 
L 93.709536 56.640946 
L 87.083933 56.640946 
L 80.45833 54.144 
L 73.832727 57.889419 
z
" clip-path="url(#p709ba513cc)" style="fill: #9467bd"/>
   </g>
   <g id="PolyCollection_26">
    <path d="M 73.832727 57.889419 
L 73.832727 57.889419 
L 80.45833 54.144 
L 87.083933 56.640946 
L 93.709536 56.640946 
L 100.335139 56.640946 
L 106.960742 56.640946 
L 113.586345 59.137892 
L 120.211948 55.392473 
L 126.837551 55.392473 
L 133.463154 54.144 
L 140.088757 57.889419 
L 146.71436 56.640946 
L 153.339963 57.889419 
L 159.965566 56.640946 
L 166.591169 56.640946 
L 173.216772 55.392473 
L 179.842375 55.392473 
L 186.467978 55.392473 
L 193.093581 55.392473 
L 199.719184 56.640946 
L 206.344787 55.392473 
L 212.97039 61.634837 
L 219.595993 56.640946 
L 226.221596 55.392473 
L 232.847199 57.889419 
L 239.472801 54.144 
L 246.098404 55.392473 
L 252.724007 57.889419 
L 259.34961 56.640946 
L 265.975213 59.137892 
L 272.600816 59.137892 
L 279.226419 56.640946 
L 285.852022 57.889419 
L 292.477625 56.640946 
L 299.103228 59.137892 
L 305.728831 57.889419 
L 312.354434 57.889419 
L 318.980037 60.386365 
L 325.60564 61.634837 
L 332.231243 60.386365 
L 338.856846 59.137892 
L 345.482449 59.137892 
L 352.108052 59.137892 
L 358.733655 57.889419 
L 365.359258 59.137892 
L 371.984861 55.392473 
L 378.610464 59.137892 
L 385.236067 60.386365 
L 391.86167 94.095133 
L 398.487273 119.064591 
L 398.487273 106.579862 
L 398.487273 106.579862 
L 391.86167 84.10735 
L 385.236067 55.392473 
L 378.610464 55.392473 
L 371.984861 55.392473 
L 365.359258 59.137892 
L 358.733655 57.889419 
L 352.108052 59.137892 
L 345.482449 59.137892 
L 338.856846 59.137892 
L 332.231243 60.386365 
L 325.60564 61.634837 
L 318.980037 60.386365 
L 312.354434 57.889419 
L 305.728831 57.889419 
L 299.103228 59.137892 
L 292.477625 56.640946 
L 285.852022 57.889419 
L 279.226419 56.640946 
L 272.600816 59.137892 
L 265.975213 59.137892 
L 259.34961 56.640946 
L 252.724007 57.889419 
L 246.098404 55.392473 
L 239.472801 54.144 
L 232.847199 57.889419 
L 226.221596 55.392473 
L 219.595993 56.640946 
L 212.97039 61.634837 
L 206.344787 55.392473 
L 199.719184 56.640946 
L 193.093581 55.392473 
L 186.467978 55.392473 
L 179.842375 55.392473 
L 173.216772 55.392473 
L 166.591169 56.640946 
L 159.965566 56.640946 
L 153.339963 57.889419 
L 146.71436 56.640946 
L 140.088757 57.889419 
L 133.463154 54.144 
L 126.837551 55.392473 
L 120.211948 55.392473 
L 113.586345 59.137892 
L 106.960742 56.640946 
L 100.335139 56.640946 
L 93.709536 56.640946 
L 87.083933 56.640946 
L 80.45833 54.144 
L 73.832727 57.889419 
z
" clip-path="url(#p709ba513cc)" style="fill: #8c564b"/>
   </g>
   <g id="PolyCollection_27">
    <path d="M 73.832727 57.889419 
L 73.832727 57.889419 
L 80.45833 54.144 
L 87.083933 56.640946 
L 93.709536 56.640946 
L 100.335139 56.640946 
L 106.960742 56.640946 
L 113.586345 59.137892 
L 120.211948 55.392473 
L 126.837551 55.392473 
L 133.463154 54.144 
L 140.088757 57.889419 
L 146.71436 56.640946 
L 153.339963 57.889419 
L 159.965566 56.640946 
L 166.591169 56.640946 
L 173.216772 55.392473 
L 179.842375 55.392473 
L 186.467978 55.392473 
L 193.093581 55.392473 
L 199.719184 56.640946 
L 206.344787 55.392473 
L 212.97039 61.634837 
L 219.595993 56.640946 
L 226.221596 55.392473 
L 232.847199 57.889419 
L 239.472801 54.144 
L 246.098404 55.392473 
L 252.724007 57.889419 
L 259.34961 56.640946 
L 265.975213 59.137892 
L 272.600816 59.137892 
L 279.226419 56.640946 
L 285.852022 57.889419 
L 292.477625 56.640946 
L 299.103228 59.137892 
L 305.728831 57.889419 
L 312.354434 57.889419 
L 318.980037 60.386365 
L 325.60564 61.634837 
L 332.231243 60.386365 
L 338.856846 59.137892 
L 345.482449 59.137892 
L 352.108052 59.137892 
L 358.733655 57.889419 
L 365.359258 59.137892 
L 371.984861 55.392473 
L 378.610464 55.392473 
L 385.236067 55.392473 
L 391.86167 84.10735 
L 398.487273 106.579862 
L 398.487273 97.840552 
L 398.487273 97.840552 
L 391.86167 71.622621 
L 385.236067 55.392473 
L 378.610464 55.392473 
L 371.984861 55.392473 
L 365.359258 59.137892 
L 358.733655 57.889419 
L 352.108052 59.137892 
L 345.482449 59.137892 
L 338.856846 59.137892 
L 332.231243 60.386365 
L 325.60564 61.634837 
L 318.980037 60.386365 
L 312.354434 57.889419 
L 305.728831 57.889419 
L 299.103228 59.137892 
L 292.477625 56.640946 
L 285.852022 57.889419 
L 279.226419 56.640946 
L 272.600816 59.137892 
L 265.975213 59.137892 
L 259.34961 56.640946 
L 252.724007 57.889419 
L 246.098404 55.392473 
L 239.472801 54.144 
L 232.847199 57.889419 
L 226.221596 55.392473 
L 219.595993 56.640946 
L 212.97039 61.634837 
L 206.344787 55.392473 
L 199.719184 56.640946 
L 193.093581 55.392473 
L 186.467978 55.392473 
L 179.842375 55.392473 
L 173.216772 55.392473 
L 166.591169 56.640946 
L 159.965566 56.640946 
L 153.339963 57.889419 
L 146.71436 56.640946 
L 140.088757 57.889419 
L 133.463154 54.144 
L 126.837551 55.392473 
L 120.211948 55.392473 
L 113.586345 59.137892 
L 106.960742 56.640946 
L 100.335139 56.640946 
L 93.709536 56.640946 
L 87.083933 56.640946 
L 80.45833 54.144 
L 73.832727 57.889419 
z
" clip-path="url(#p709ba513cc)" style="fill: #e377c2"/>
   </g>
   <g id="PolyCollection_28">
    <path d="M 73.832727 57.889419 
L 73.832727 57.889419 
L 80.45833 54.144 
L 87.083933 56.640946 
L 93.709536 56.640946 
L 100.335139 56.640946 
L 106.960742 56.640946 
L 113.586345 59.137892 
L 120.211948 55.392473 
L 126.837551 55.392473 
L 133.463154 54.144 
L 140.088757 57.889419 
L 146.71436 56.640946 
L 153.339963 57.889419 
L 159.965566 56.640946 
L 166.591169 56.640946 
L 173.216772 55.392473 
L 179.842375 55.392473 
L 186.467978 55.392473 
L 193.093581 55.392473 
L 199.719184 56.640946 
L 206.344787 55.392473 
L 212.97039 61.634837 
L 219.595993 56.640946 
L 226.221596 55.392473 
L 232.847199 57.889419 
L 239.472801 54.144 
L 246.098404 55.392473 
L 252.724007 57.889419 
L 259.34961 56.640946 
L 265.975213 59.137892 
L 272.600816 59.137892 
L 279.226419 56.640946 
L 285.852022 57.889419 
L 292.477625 56.640946 
L 299.103228 59.137892 
L 305.728831 57.889419 
L 312.354434 57.889419 
L 318.980037 60.386365 
L 325.60564 61.634837 
L 332.231243 60.386365 
L 338.856846 59.137892 
L 345.482449 59.137892 
L 352.108052 59.137892 
L 358.733655 57.889419 
L 365.359258 59.137892 
L 371.984861 55.392473 
L 378.610464 55.392473 
L 385.236067 55.392473 
L 391.86167 71.622621 
L 398.487273 97.840552 
L 398.487273 85.355823 
L 398.487273 85.355823 
L 391.86167 62.88331 
L 385.236067 55.392473 
L 378.610464 55.392473 
L 371.984861 55.392473 
L 365.359258 59.137892 
L 358.733655 57.889419 
L 352.108052 59.137892 
L 345.482449 59.137892 
L 338.856846 59.137892 
L 332.231243 60.386365 
L 325.60564 61.634837 
L 318.980037 60.386365 
L 312.354434 57.889419 
L 305.728831 57.889419 
L 299.103228 59.137892 
L 292.477625 56.640946 
L 285.852022 57.889419 
L 279.226419 56.640946 
L 272.600816 59.137892 
L 265.975213 59.137892 
L 259.34961 56.640946 
L 252.724007 57.889419 
L 246.098404 55.392473 
L 239.472801 54.144 
L 232.847199 57.889419 
L 226.221596 55.392473 
L 219.595993 56.640946 
L 212.97039 61.634837 
L 206.344787 55.392473 
L 199.719184 56.640946 
L 193.093581 55.392473 
L 186.467978 55.392473 
L 179.842375 55.392473 
L 173.216772 55.392473 
L 166.591169 56.640946 
L 159.965566 56.640946 
L 153.339963 57.889419 
L 146.71436 56.640946 
L 140.088757 57.889419 
L 133.463154 54.144 
L 126.837551 55.392473 
L 120.211948 55.392473 
L 113.586345 59.137892 
L 106.960742 56.640946 
L 100.335139 56.640946 
L 93.709536 56.640946 
L 87.083933 56.640946 
L 80.45833 54.144 
L 73.832727 57.889419 
z
" clip-path="url(#p709ba513cc)" style="fill: #7f7f7f"/>
   </g>
   <g id="PolyCollection_29">
    <path d="M 73.832727 57.889419 
L 73.832727 57.889419 
L 80.45833 54.144 
L 87.083933 56.640946 
L 93.709536 56.640946 
L 100.335139 56.640946 
L 106.960742 56.640946 
L 113.586345 59.137892 
L 120.211948 55.392473 
L 126.837551 55.392473 
L 133.463154 54.144 
L 140.088757 57.889419 
L 146.71436 56.640946 
L 153.339963 57.889419 
L 159.965566 56.640946 
L 166.591169 56.640946 
L 173.216772 55.392473 
L 179.842375 55.392473 
L 186.467978 55.392473 
L 193.093581 55.392473 
L 199.719184 56.640946 
L 206.344787 55.392473 
L 212.97039 61.634837 
L 219.595993 56.640946 
L 226.221596 55.392473 
L 232.847199 57.889419 
L 239.472801 54.144 
L 246.098404 55.392473 
L 252.724007 57.889419 
L 259.34961 56.640946 
L 265.975213 59.137892 
L 272.600816 59.137892 
L 279.226419 56.640946 
L 285.852022 57.889419 
L 292.477625 56.640946 
L 299.103228 59.137892 
L 305.728831 57.889419 
L 312.354434 57.889419 
L 318.980037 60.386365 
L 325.60564 61.634837 
L 332.231243 60.386365 
L 338.856846 59.137892 
L 345.482449 59.137892 
L 352.108052 59.137892 
L 358.733655 57.889419 
L 365.359258 59.137892 
L 371.984861 55.392473 
L 378.610464 55.392473 
L 385.236067 55.392473 
L 391.86167 62.88331 
L 398.487273 85.355823 
L 398.487273 61.634837 
L 398.487273 61.634837 
L 391.86167 60.386365 
L 385.236067 55.392473 
L 378.610464 55.392473 
L 371.984861 55.392473 
L 365.359258 59.137892 
L 358.733655 57.889419 
L 352.108052 59.137892 
L 345.482449 59.137892 
L 338.856846 59.137892 
L 332.231243 60.386365 
L 325.60564 61.634837 
L 318.980037 60.386365 
L 312.354434 57.889419 
L 305.728831 57.889419 
L 299.103228 59.137892 
L 292.477625 56.640946 
L 285.852022 57.889419 
L 279.226419 56.640946 
L 272.600816 59.137892 
L 265.975213 59.137892 
L 259.34961 56.640946 
L 252.724007 57.889419 
L 246.098404 55.392473 
L 239.472801 54.144 
L 232.847199 57.889419 
L 226.221596 55.392473 
L 219.595993 56.640946 
L 212.97039 61.634837 
L 206.344787 55.392473 
L 199.719184 56.640946 
L 193.093581 55.392473 
L 186.467978 55.392473 
L 179.842375 55.392473 
L 173.216772 55.392473 
L 166.591169 56.640946 
L 159.965566 56.640946 
L 153.339963 57.889419 
L 146.71436 56.640946 
L 140.088757 57.889419 
L 133.463154 54.144 
L 126.837551 55.392473 
L 120.211948 55.392473 
L 113.586345 59.137892 
L 106.960742 56.640946 
L 100.335139 56.640946 
L 93.709536 56.640946 
L 87.083933 56.640946 
L 80.45833 54.144 
L 73.832727 57.889419 
z
" clip-path="url(#p709ba513cc)" style="fill: #bcbd22"/>
   </g>
   <g id="matplotlib.axis_1">
    <g id="xtick_1">
     <g id="line2d_1">
      <defs>
       <path id="m151730c512" d="M 0 0 
L 0 3.5 
" style="stroke: #000000; stroke-width: 0.8"/>
      </defs>
      <g>
       <use xlink:href="#m151730c512" x="73.832727" y="307.584" style="stroke: #000000; stroke-width: 0.8"/>
      </g>
     </g>
     <g id="text_1">
      <!-- 0 -->
      <g transform="translate(70.651477 322.182437) scale(0.1 -0.1)">
       <defs>
        <path id="DejaVuSans-30" d="M 2034 4250 
Q 1547 4250 1301 3770 
Q 1056 3291 1056 2328 
Q 1056 1369 1301 889 
Q 1547 409 2034 409 
Q 2525 409 2770 889 
Q 3016 1369 3016 2328 
Q 3016 3291 2770 3770 
Q 2525 4250 2034 4250 
z
M 2034 4750 
Q 2819 4750 3233 4129 
Q 3647 3509 3647 2328 
Q 3647 1150 3233 529 
Q 2819 -91 2034 -91 
Q 1250 -91 836 529 
Q 422 1150 422 2328 
Q 422 3509 836 4129 
Q 1250 4750 2034 4750 
z
" transform="scale(0.015625)"/>
       </defs>
       <use xlink:href="#DejaVuSans-30"/>
      </g>
     </g>
    </g>
    <g id="xtick_2">
     <g id="line2d_2">
      <g>
       <use xlink:href="#m151730c512" x="140.088757" y="307.584" style="stroke: #000000; stroke-width: 0.8"/>
      </g>
     </g>
     <g id="text_2">
      <!-- 10 -->
      <g transform="translate(133.726257 322.182437) scale(0.1 -0.1)">
       <defs>
        <path id="DejaVuSans-31" d="M 794 531 
L 1825 531 
L 1825 4091 
L 703 3866 
L 703 4441 
L 1819 4666 
L 2450 4666 
L 2450 531 
L 3481 531 
L 3481 0 
L 794 0 
L 794 531 
z
" transform="scale(0.015625)"/>
       </defs>
       <use xlink:href="#DejaVuSans-31"/>
       <use xlink:href="#DejaVuSans-30" x="63.623047"/>
      </g>
     </g>
    </g>
    <g id="xtick_3">
     <g id="line2d_3">
      <g>
       <use xlink:href="#m151730c512" x="206.344787" y="307.584" style="stroke: #000000; stroke-width: 0.8"/>
      </g>
     </g>
     <g id="text_3">
      <!-- 20 -->
      <g transform="translate(199.982287 322.182437) scale(0.1 -0.1)">
       <defs>
        <path id="DejaVuSans-32" d="M 1228 531 
L 3431 531 
L 3431 0 
L 469 0 
L 469 531 
Q 828 903 1448 1529 
Q 2069 2156 2228 2338 
Q 2531 2678 2651 2914 
Q 2772 3150 2772 3378 
Q 2772 3750 2511 3984 
Q 2250 4219 1831 4219 
Q 1534 4219 1204 4116 
Q 875 4013 500 3803 
L 500 4441 
Q 881 4594 1212 4672 
Q 1544 4750 1819 4750 
Q 2544 4750 2975 4387 
Q 3406 4025 3406 3419 
Q 3406 3131 3298 2873 
Q 3191 2616 2906 2266 
Q 2828 2175 2409 1742 
Q 1991 1309 1228 531 
z
" transform="scale(0.015625)"/>
       </defs>
       <use xlink:href="#DejaVuSans-32"/>
       <use xlink:href="#DejaVuSans-30" x="63.623047"/>
      </g>
     </g>
    </g>
    <g id="xtick_4">
     <g id="line2d_4">
      <g>
       <use xlink:href="#m151730c512" x="272.600816" y="307.584" style="stroke: #000000; stroke-width: 0.8"/>
      </g>
     </g>
     <g id="text_4">
      <!-- 30 -->
      <g transform="translate(266.238316 322.182437) scale(0.1 -0.1)">
       <defs>
        <path id="DejaVuSans-33" d="M 2597 2516 
Q 3050 2419 3304 2112 
Q 3559 1806 3559 1356 
Q 3559 666 3084 287 
Q 2609 -91 1734 -91 
Q 1441 -91 1130 -33 
Q 819 25 488 141 
L 488 750 
Q 750 597 1062 519 
Q 1375 441 1716 441 
Q 2309 441 2620 675 
Q 2931 909 2931 1356 
Q 2931 1769 2642 2001 
Q 2353 2234 1838 2234 
L 1294 2234 
L 1294 2753 
L 1863 2753 
Q 2328 2753 2575 2939 
Q 2822 3125 2822 3475 
Q 2822 3834 2567 4026 
Q 2313 4219 1838 4219 
Q 1578 4219 1281 4162 
Q 984 4106 628 3988 
L 628 4550 
Q 988 4650 1302 4700 
Q 1616 4750 1894 4750 
Q 2613 4750 3031 4423 
Q 3450 4097 3450 3541 
Q 3450 3153 3228 2886 
Q 3006 2619 2597 2516 
z
" transform="scale(0.015625)"/>
       </defs>
       <use xlink:href="#DejaVuSans-33"/>
       <use xlink:href="#DejaVuSans-30" x="63.623047"/>
      </g>
     </g>
    </g>
    <g id="xtick_5">
     <g id="line2d_5">
      <g>
       <use xlink:href="#m151730c512" x="338.856846" y="307.584" style="stroke: #000000; stroke-width: 0.8"/>
      </g>
     </g>
     <g id="text_5">
      <!-- 40 -->
      <g transform="translate(332.494346 322.182437) scale(0.1 -0.1)">
       <defs>
        <path id="DejaVuSans-34" d="M 2419 4116 
L 825 1625 
L 2419 1625 
L 2419 4116 
z
M 2253 4666 
L 3047 4666 
L 3047 1625 
L 3713 1625 
L 3713 1100 
L 3047 1100 
L 3047 0 
L 2419 0 
L 2419 1100 
L 313 1100 
L 313 1709 
L 2253 4666 
z
" transform="scale(0.015625)"/>
       </defs>
       <use xlink:href="#DejaVuSans-34"/>
       <use xlink:href="#DejaVuSans-30" x="63.623047"/>
      </g>
     </g>
    </g>
    <g id="xtick_6">
     <g id="line2d_6">
      <g>
       <use xlink:href="#m151730c512" x="405.112876" y="307.584" style="stroke: #000000; stroke-width: 0.8"/>
      </g>
     </g>
     <g id="text_6">
      <!-- 50 -->
      <g transform="translate(398.750376 322.182437) scale(0.1 -0.1)">
       <defs>
        <path id="DejaVuSans-35" d="M 691 4666 
L 3169 4666 
L 3169 4134 
L 1269 4134 
L 1269 2991 
Q 1406 3038 1543 3061 
Q 1681 3084 1819 3084 
Q 2600 3084 3056 2656 
Q 3513 2228 3513 1497 
Q 3513 744 3044 326 
Q 2575 -91 1722 -91 
Q 1428 -91 1123 -41 
Q 819 9 494 109 
L 494 744 
Q 775 591 1075 516 
Q 1375 441 1709 441 
Q 2250 441 2565 725 
Q 2881 1009 2881 1497 
Q 2881 1984 2565 2268 
Q 2250 2553 1709 2553 
Q 1456 2553 1204 2497 
Q 953 2441 691 2322 
L 691 4666 
z
" transform="scale(0.015625)"/>
       </defs>
       <use xlink:href="#DejaVuSans-35"/>
       <use xlink:href="#DejaVuSans-30" x="63.623047"/>
      </g>
     </g>
    </g>
    <g id="text_7">
     <!-- Generations -->
     <g transform="translate(205.662344 335.860562) scale(0.1 -0.1)">
      <defs>
       <path id="DejaVuSans-47" d="M 3809 666 
L 3809 1919 
L 2778 1919 
L 2778 2438 
L 4434 2438 
L 4434 434 
Q 4069 175 3628 42 
Q 3188 -91 2688 -91 
Q 1594 -91 976 548 
Q 359 1188 359 2328 
Q 359 3472 976 4111 
Q 1594 4750 2688 4750 
Q 3144 4750 3555 4637 
Q 3966 4525 4313 4306 
L 4313 3634 
Q 3963 3931 3569 4081 
Q 3175 4231 2741 4231 
Q 1884 4231 1454 3753 
Q 1025 3275 1025 2328 
Q 1025 1384 1454 906 
Q 1884 428 2741 428 
Q 3075 428 3337 486 
Q 3600 544 3809 666 
z
" transform="scale(0.015625)"/>
       <path id="DejaVuSans-65" d="M 3597 1894 
L 3597 1613 
L 953 1613 
Q 991 1019 1311 708 
Q 1631 397 2203 397 
Q 2534 397 2845 478 
Q 3156 559 3463 722 
L 3463 178 
Q 3153 47 2828 -22 
Q 2503 -91 2169 -91 
Q 1331 -91 842 396 
Q 353 884 353 1716 
Q 353 2575 817 3079 
Q 1281 3584 2069 3584 
Q 2775 3584 3186 3129 
Q 3597 2675 3597 1894 
z
M 3022 2063 
Q 3016 2534 2758 2815 
Q 2500 3097 2075 3097 
Q 1594 3097 1305 2825 
Q 1016 2553 972 2059 
L 3022 2063 
z
" transform="scale(0.015625)"/>
       <path id="DejaVuSans-6e" d="M 3513 2113 
L 3513 0 
L 2938 0 
L 2938 2094 
Q 2938 2591 2744 2837 
Q 2550 3084 2163 3084 
Q 1697 3084 1428 2787 
Q 1159 2491 1159 1978 
L 1159 0 
L 581 0 
L 581 3500 
L 1159 3500 
L 1159 2956 
Q 1366 3272 1645 3428 
Q 1925 3584 2291 3584 
Q 2894 3584 3203 3211 
Q 3513 2838 3513 2113 
z
" transform="scale(0.015625)"/>
       <path id="DejaVuSans-72" d="M 2631 2963 
Q 2534 3019 2420 3045 
Q 2306 3072 2169 3072 
Q 1681 3072 1420 2755 
Q 1159 2438 1159 1844 
L 1159 0 
L 581 0 
L 581 3500 
L 1159 3500 
L 1159 2956 
Q 1341 3275 1631 3429 
Q 1922 3584 2338 3584 
Q 2397 3584 2469 3576 
Q 2541 3569 2628 3553 
L 2631 2963 
z
" transform="scale(0.015625)"/>
       <path id="DejaVuSans-61" d="M 2194 1759 
Q 1497 1759 1228 1600 
Q 959 1441 959 1056 
Q 959 750 1161 570 
Q 1363 391 1709 391 
Q 2188 391 2477 730 
Q 2766 1069 2766 1631 
L 2766 1759 
L 2194 1759 
z
M 3341 1997 
L 3341 0 
L 2766 0 
L 2766 531 
Q 2569 213 2275 61 
Q 1981 -91 1556 -91 
Q 1019 -91 701 211 
Q 384 513 384 1019 
Q 384 1609 779 1909 
Q 1175 2209 1959 2209 
L 2766 2209 
L 2766 2266 
Q 2766 2663 2505 2880 
Q 2244 3097 1772 3097 
Q 1472 3097 1187 3025 
Q 903 2953 641 2809 
L 641 3341 
Q 956 3463 1253 3523 
Q 1550 3584 1831 3584 
Q 2591 3584 2966 3190 
Q 3341 2797 3341 1997 
z
" transform="scale(0.015625)"/>
       <path id="DejaVuSans-74" d="M 1172 4494 
L 1172 3500 
L 2356 3500 
L 2356 3053 
L 1172 3053 
L 1172 1153 
Q 1172 725 1289 603 
Q 1406 481 1766 481 
L 2356 481 
L 2356 0 
L 1766 0 
Q 1100 0 847 248 
Q 594 497 594 1153 
L 594 3053 
L 172 3053 
L 172 3500 
L 594 3500 
L 594 4494 
L 1172 4494 
z
" transform="scale(0.015625)"/>
       <path id="DejaVuSans-69" d="M 603 3500 
L 1178 3500 
L 1178 0 
L 603 0 
L 603 3500 
z
M 603 4863 
L 1178 4863 
L 1178 4134 
L 603 4134 
L 603 4863 
z
" transform="scale(0.015625)"/>
       <path id="DejaVuSans-6f" d="M 1959 3097 
Q 1497 3097 1228 2736 
Q 959 2375 959 1747 
Q 959 1119 1226 758 
Q 1494 397 1959 397 
Q 2419 397 2687 759 
Q 2956 1122 2956 1747 
Q 2956 2369 2687 2733 
Q 2419 3097 1959 3097 
z
M 1959 3584 
Q 2709 3584 3137 3096 
Q 3566 2609 3566 1747 
Q 3566 888 3137 398 
Q 2709 -91 1959 -91 
Q 1206 -91 779 398 
Q 353 888 353 1747 
Q 353 2609 779 3096 
Q 1206 3584 1959 3584 
z
" transform="scale(0.015625)"/>
       <path id="DejaVuSans-73" d="M 2834 3397 
L 2834 2853 
Q 2591 2978 2328 3040 
Q 2066 3103 1784 3103 
Q 1356 3103 1142 2972 
Q 928 2841 928 2578 
Q 928 2378 1081 2264 
Q 1234 2150 1697 2047 
L 1894 2003 
Q 2506 1872 2764 1633 
Q 3022 1394 3022 966 
Q 3022 478 2636 193 
Q 2250 -91 1575 -91 
Q 1294 -91 989 -36 
Q 684 19 347 128 
L 347 722 
Q 666 556 975 473 
Q 1284 391 1588 391 
Q 1994 391 2212 530 
Q 2431 669 2431 922 
Q 2431 1156 2273 1281 
Q 2116 1406 1581 1522 
L 1381 1569 
Q 847 1681 609 1914 
Q 372 2147 372 2553 
Q 372 3047 722 3315 
Q 1072 3584 1716 3584 
Q 2034 3584 2315 3537 
Q 2597 3491 2834 3397 
z
" transform="scale(0.015625)"/>
      </defs>
      <use xlink:href="#DejaVuSans-47"/>
      <use xlink:href="#DejaVuSans-65" x="77.490234"/>
      <use xlink:href="#DejaVuSans-6e" x="139.013672"/>
      <use xlink:href="#DejaVuSans-65" x="202.392578"/>
      <use xlink:href="#DejaVuSans-72" x="263.916016"/>
      <use xlink:href="#DejaVuSans-61" x="305.029297"/>
      <use xlink:href="#DejaVuSans-74" x="366.308594"/>
      <use xlink:href="#DejaVuSans-69" x="405.517578"/>
      <use xlink:href="#DejaVuSans-6f" x="433.300781"/>
      <use xlink:href="#DejaVuSans-6e" x="494.482422"/>
      <use xlink:href="#DejaVuSans-73" x="557.861328"/>
     </g>
    </g>
   </g>
   <g id="matplotlib.axis_2">
    <g id="ytick_1">
     <g id="line2d_7">
      <defs>
       <path id="m37b3645dcf" d="M 0 0 
L -3.5 0 
" style="stroke: #000000; stroke-width: 0.8"/>
      </defs>
      <g>
       <use xlink:href="#m37b3645dcf" x="57.6" y="307.584" style="stroke: #000000; stroke-width: 0.8"/>
      </g>
     </g>
     <g id="text_8">
      <!-- 0 -->
      <g transform="translate(44.2375 311.383219) scale(0.1 -0.1)">
       <use xlink:href="#DejaVuSans-30"/>
      </g>
     </g>
    </g>
    <g id="ytick_2">
     <g id="line2d_8">
      <g>
       <use xlink:href="#m37b3645dcf" x="57.6" y="276.372177" style="stroke: #000000; stroke-width: 0.8"/>
      </g>
     </g>
     <g id="text_9">
      <!-- 25 -->
      <g transform="translate(37.875 280.171396) scale(0.1 -0.1)">
       <use xlink:href="#DejaVuSans-32"/>
       <use xlink:href="#DejaVuSans-35" x="63.623047"/>
      </g>
     </g>
    </g>
    <g id="ytick_3">
     <g id="line2d_9">
      <g>
       <use xlink:href="#m37b3645dcf" x="57.6" y="245.160355" style="stroke: #000000; stroke-width: 0.8"/>
      </g>
     </g>
     <g id="text_10">
      <!-- 50 -->
      <g transform="translate(37.875 248.959573) scale(0.1 -0.1)">
       <use xlink:href="#DejaVuSans-35"/>
       <use xlink:href="#DejaVuSans-30" x="63.623047"/>
      </g>
     </g>
    </g>
    <g id="ytick_4">
     <g id="line2d_10">
      <g>
       <use xlink:href="#m37b3645dcf" x="57.6" y="213.948532" style="stroke: #000000; stroke-width: 0.8"/>
      </g>
     </g>
     <g id="text_11">
      <!-- 75 -->
      <g transform="translate(37.875 217.747751) scale(0.1 -0.1)">
       <defs>
        <path id="DejaVuSans-37" d="M 525 4666 
L 3525 4666 
L 3525 4397 
L 1831 0 
L 1172 0 
L 2766 4134 
L 525 4134 
L 525 4666 
z
" transform="scale(0.015625)"/>
       </defs>
       <use xlink:href="#DejaVuSans-37"/>
       <use xlink:href="#DejaVuSans-35" x="63.623047"/>
      </g>
     </g>
    </g>
    <g id="ytick_5">
     <g id="line2d_11">
      <g>
       <use xlink:href="#m37b3645dcf" x="57.6" y="182.736709" style="stroke: #000000; stroke-width: 0.8"/>
      </g>
     </g>
     <g id="text_12">
      <!-- 100 -->
      <g transform="translate(31.5125 186.535928) scale(0.1 -0.1)">
       <use xlink:href="#DejaVuSans-31"/>
       <use xlink:href="#DejaVuSans-30" x="63.623047"/>
       <use xlink:href="#DejaVuSans-30" x="127.246094"/>
      </g>
     </g>
    </g>
    <g id="ytick_6">
     <g id="line2d_12">
      <g>
       <use xlink:href="#m37b3645dcf" x="57.6" y="151.524887" style="stroke: #000000; stroke-width: 0.8"/>
      </g>
     </g>
     <g id="text_13">
      <!-- 125 -->
      <g transform="translate(31.5125 155.324105) scale(0.1 -0.1)">
       <use xlink:href="#DejaVuSans-31"/>
       <use xlink:href="#DejaVuSans-32" x="63.623047"/>
       <use xlink:href="#DejaVuSans-35" x="127.246094"/>
      </g>
     </g>
    </g>
    <g id="ytick_7">
     <g id="line2d_13">
      <g>
       <use xlink:href="#m37b3645dcf" x="57.6" y="120.313064" style="stroke: #000000; stroke-width: 0.8"/>
      </g>
     </g>
     <g id="text_14">
      <!-- 150 -->
      <g transform="translate(31.5125 124.112283) scale(0.1 -0.1)">
       <use xlink:href="#DejaVuSans-31"/>
       <use xlink:href="#DejaVuSans-35" x="63.623047"/>
       <use xlink:href="#DejaVuSans-30" x="127.246094"/>
      </g>
     </g>
    </g>
    <g id="ytick_8">
     <g id="line2d_14">
      <g>
       <use xlink:href="#m37b3645dcf" x="57.6" y="89.101241" style="stroke: #000000; stroke-width: 0.8"/>
      </g>
     </g>
     <g id="text_15">
      <!-- 175 -->
      <g transform="translate(31.5125 92.90046) scale(0.1 -0.1)">
       <use xlink:href="#DejaVuSans-31"/>
       <use xlink:href="#DejaVuSans-37" x="63.623047"/>
       <use xlink:href="#DejaVuSans-35" x="127.246094"/>
      </g>
     </g>
    </g>
    <g id="ytick_9">
     <g id="line2d_15">
      <g>
       <use xlink:href="#m37b3645dcf" x="57.6" y="57.889419" style="stroke: #000000; stroke-width: 0.8"/>
      </g>
     </g>
     <g id="text_16">
      <!-- 200 -->
      <g transform="translate(31.5125 61.688637) scale(0.1 -0.1)">
       <use xlink:href="#DejaVuSans-32"/>
       <use xlink:href="#DejaVuSans-30" x="63.623047"/>
       <use xlink:href="#DejaVuSans-30" x="127.246094"/>
      </g>
     </g>
    </g>
    <g id="text_17">
     <!-- Size per Species -->
     <g transform="translate(25.432812 215.520969) rotate(-90) scale(0.1 -0.1)">
      <defs>
       <path id="DejaVuSans-53" d="M 3425 4513 
L 3425 3897 
Q 3066 4069 2747 4153 
Q 2428 4238 2131 4238 
Q 1616 4238 1336 4038 
Q 1056 3838 1056 3469 
Q 1056 3159 1242 3001 
Q 1428 2844 1947 2747 
L 2328 2669 
Q 3034 2534 3370 2195 
Q 3706 1856 3706 1288 
Q 3706 609 3251 259 
Q 2797 -91 1919 -91 
Q 1588 -91 1214 -16 
Q 841 59 441 206 
L 441 856 
Q 825 641 1194 531 
Q 1563 422 1919 422 
Q 2459 422 2753 634 
Q 3047 847 3047 1241 
Q 3047 1584 2836 1778 
Q 2625 1972 2144 2069 
L 1759 2144 
Q 1053 2284 737 2584 
Q 422 2884 422 3419 
Q 422 4038 858 4394 
Q 1294 4750 2059 4750 
Q 2388 4750 2728 4690 
Q 3069 4631 3425 4513 
z
" transform="scale(0.015625)"/>
       <path id="DejaVuSans-7a" d="M 353 3500 
L 3084 3500 
L 3084 2975 
L 922 459 
L 3084 459 
L 3084 0 
L 275 0 
L 275 525 
L 2438 3041 
L 353 3041 
L 353 3500 
z
" transform="scale(0.015625)"/>
       <path id="DejaVuSans-20" transform="scale(0.015625)"/>
       <path id="DejaVuSans-70" d="M 1159 525 
L 1159 -1331 
L 581 -1331 
L 581 3500 
L 1159 3500 
L 1159 2969 
Q 1341 3281 1617 3432 
Q 1894 3584 2278 3584 
Q 2916 3584 3314 3078 
Q 3713 2572 3713 1747 
Q 3713 922 3314 415 
Q 2916 -91 2278 -91 
Q 1894 -91 1617 61 
Q 1341 213 1159 525 
z
M 3116 1747 
Q 3116 2381 2855 2742 
Q 2594 3103 2138 3103 
Q 1681 3103 1420 2742 
Q 1159 2381 1159 1747 
Q 1159 1113 1420 752 
Q 1681 391 2138 391 
Q 2594 391 2855 752 
Q 3116 1113 3116 1747 
z
" transform="scale(0.015625)"/>
       <path id="DejaVuSans-63" d="M 3122 3366 
L 3122 2828 
Q 2878 2963 2633 3030 
Q 2388 3097 2138 3097 
Q 1578 3097 1268 2742 
Q 959 2388 959 1747 
Q 959 1106 1268 751 
Q 1578 397 2138 397 
Q 2388 397 2633 464 
Q 2878 531 3122 666 
L 3122 134 
Q 2881 22 2623 -34 
Q 2366 -91 2075 -91 
Q 1284 -91 818 406 
Q 353 903 353 1747 
Q 353 2603 823 3093 
Q 1294 3584 2113 3584 
Q 2378 3584 2631 3529 
Q 2884 3475 3122 3366 
z
" transform="scale(0.015625)"/>
      </defs>
      <use xlink:href="#DejaVuSans-53"/>
      <use xlink:href="#DejaVuSans-69" x="63.476562"/>
      <use xlink:href="#DejaVuSans-7a" x="91.259766"/>
      <use xlink:href="#DejaVuSans-65" x="143.75"/>
      <use xlink:href="#DejaVuSans-20" x="205.273438"/>
      <use xlink:href="#DejaVuSans-70" x="237.060547"/>
      <use xlink:href="#DejaVuSans-65" x="300.537109"/>
      <use xlink:href="#DejaVuSans-72" x="362.060547"/>
      <use xlink:href="#DejaVuSans-20" x="403.173828"/>
      <use xlink:href="#DejaVuSans-53" x="434.960938"/>
      <use xlink:href="#DejaVuSans-70" x="498.4375"/>
      <use xlink:href="#DejaVuSans-65" x="561.914062"/>
      <use xlink:href="#DejaVuSans-63" x="623.4375"/>
      <use xlink:href="#DejaVuSans-69" x="678.417969"/>
      <use xlink:href="#DejaVuSans-65" x="706.201172"/>
      <use xlink:href="#DejaVuSans-73" x="767.724609"/>
     </g>
    </g>
   </g>
   <g id="patch_3">
    <path d="M 57.6 307.584 
L 57.6 41.472 
" style="fill: none; stroke: #000000; stroke-width: 0.8; stroke-linejoin: miter; stroke-linecap: square"/>
   </g>
   <g id="patch_4">
    <path d="M 414.72 307.584 
L 414.72 41.472 
" style="fill: none; stroke: #000000; stroke-width: 0.8; stroke-linejoin: miter; stroke-linecap: square"/>
   </g>
   <g id="patch_5">
    <path d="M 57.6 307.584 
L 414.72 307.584 
" style="fill: none; stroke: #000000; stroke-width: 0.8; stroke-linejoin: miter; stroke-linecap: square"/>
   </g>
   <g id="patch_6">
    <path d="M 57.6 41.472 
L 414.72 41.472 
" style="fill: none; stroke: #000000; stroke-width: 0.8; stroke-linejoin: miter; stroke-linecap: square"/>
   </g>
   <g id="text_18">
    <!-- Speciation -->
    <g transform="translate(204.714375 35.472) scale(0.12 -0.12)">
     <use xlink:href="#DejaVuSans-53"/>
     <use xlink:href="#DejaVuSans-70" x="63.476562"/>
     <use xlink:href="#DejaVuSans-65" x="126.953125"/>
     <use xlink:href="#DejaVuSans-63" x="188.476562"/>
     <use xlink:href="#DejaVuSans-69" x="243.457031"/>
     <use xlink:href="#DejaVuSans-61" x="271.240234"/>
     <use xlink:href="#DejaVuSans-74" x="332.519531"/>
     <use xlink:href="#DejaVuSans-69" x="371.728516"/>
     <use xlink:href="#DejaVuSans-6f" x="399.511719"/>
     <use xlink:href="#DejaVuSans-6e" x="460.693359"/>
    </g>
   </g>
  </g>
 </g>
 <defs>
  <clipPath id="p709ba513cc">
   <rect x="57.6" y="41.472" width="357.12" height="266.112"/>
  </clipPath>
 </defs>
</svg>
