<?xml version="1.0" encoding="utf-8" standalone="no"?>
<!DOCTYPE svg PUBLIC "-//W3C//DTD SVG 1.1//EN"
  "http://www.w3.org/Graphics/SVG/1.1/DTD/svg11.dtd">
<svg xmlns:xlink="http://www.w3.org/1999/xlink" width="460.8pt" height="345.6pt" viewBox="0 0 460.8 345.6" xmlns="http://www.w3.org/2000/svg" version="1.1">
 <metadata>
  <rdf:RDF xmlns:dc="http://purl.org/dc/elements/1.1/" xmlns:cc="http://creativecommons.org/ns#" xmlns:rdf="http://www.w3.org/1999/02/22-rdf-syntax-ns#">
   <cc:Work>
    <dc:type rdf:resource="http://purl.org/dc/dcmitype/StillImage"/>
    <dc:date>2024-08-10T11:41:53.156570</dc:date>
    <dc:format>image/svg+xml</dc:format>
    <dc:creator>
     <cc:Agent>
      <dc:title>Matplotlib v3.8.4, https://matplotlib.org/</dc:title>
     </cc:Agent>
    </dc:creator>
   </cc:Work>
  </rdf:RDF>
 </metadata>
 <defs>
  <style type="text/css">*{stroke-linejoin: round; stroke-linecap: butt}</style>
 </defs>
 <g id="figure_1">
  <g id="patch_1">
   <path d="M 0 345.6 
L 460.8 345.6 
L 460.8 0 
L 0 0 
z
" style="fill: #ffffff"/>
  </g>
  <g id="axes_1">
   <g id="patch_2">
    <path d="M 57.6 307.584 
L 414.72 307.584 
L 414.72 41.472 
L 57.6 41.472 
z
" style="fill: #ffffff"/>
   </g>
   <g id="PolyCollection_1">
    <path d="M 73.832727 201.778951 
L 73.832727 307.584 
L 80.45833 307.584 
L 87.083933 307.584 
L 93.709536 307.584 
L 100.335139 307.584 
L 106.960742 307.584 
L 113.586345 307.584 
L 120.211948 307.584 
L 126.837551 307.584 
L 133.463154 307.584 
L 140.088757 307.584 
L 146.71436 307.584 
L 153.339963 307.584 
L 159.965566 307.584 
L 166.591169 307.584 
L 173.216772 307.584 
L 179.842375 307.584 
L 186.467978 307.584 
L 193.093581 307.584 
L 199.719184 307.584 
L 206.344787 307.584 
L 212.97039 307.584 
L 219.595993 307.584 
L 226.221596 307.584 
L 232.847199 307.584 
L 239.472801 307.584 
L 246.098404 307.584 
L 252.724007 307.584 
L 259.34961 307.584 
L 265.975213 307.584 
L 272.600816 307.584 
L 279.226419 307.584 
L 285.852022 307.584 
L 292.477625 307.584 
L 299.103228 307.584 
L 305.728831 307.584 
L 312.354434 307.584 
L 318.980037 307.584 
L 325.60564 307.584 
L 332.231243 307.584 
L 338.856846 307.584 
L 345.482449 307.584 
L 352.108052 307.584 
L 358.733655 307.584 
L 365.359258 307.584 
L 371.984861 307.584 
L 378.610464 307.584 
L 385.236067 307.584 
L 391.86167 307.584 
L 398.487273 307.584 
L 398.487273 307.584 
L 398.487273 307.584 
L 391.86167 307.584 
L 385.236067 307.584 
L 378.610464 307.584 
L 371.984861 307.584 
L 365.359258 307.584 
L 358.733655 307.584 
L 352.108052 307.584 
L 345.482449 307.584 
L 338.856846 307.584 
L 332.231243 307.584 
L 325.60564 307.584 
L 318.980037 307.584 
L 312.354434 307.584 
L 305.728831 307.584 
L 299.103228 307.584 
L 292.477625 307.584 
L 285.852022 291.590214 
L 279.226419 297.74167 
L 272.600816 295.281087 
L 265.975213 292.820505 
L 259.34961 294.050796 
L 252.724007 291.590214 
L 246.098404 284.208466 
L 239.472801 290.359922 
L 232.847199 289.129631 
L 226.221596 284.208466 
L 219.595993 286.669049 
L 212.97039 289.129631 
L 206.344787 306.353709 
L 199.719184 253.451184 
L 193.093581 300.202252 
L 186.467978 255.911767 
L 179.842375 289.129631 
L 173.216772 295.281087 
L 166.591169 201.778951 
L 159.965566 270.675262 
L 153.339963 282.978175 
L 146.71436 287.89934 
L 140.088757 290.359922 
L 133.463154 290.359922 
L 126.837551 295.281087 
L 120.211948 286.669049 
L 113.586345 280.517592 
L 106.960742 278.05701 
L 100.335139 260.832932 
L 93.709536 285.438757 
L 87.083933 275.596427 
L 80.45833 247.299728 
L 73.832727 201.778951 
z
" clip-path="url(#p5839fc8d50)" style="fill: #1f77b4"/>
   </g>
   <g id="PolyCollection_2">
    <path d="M 73.832727 163.639922 
L 73.832727 201.778951 
L 80.45833 247.299728 
L 87.083933 275.596427 
L 93.709536 285.438757 
L 100.335139 260.832932 
L 106.960742 278.05701 
L 113.586345 280.517592 
L 120.211948 286.669049 
L 126.837551 295.281087 
L 133.463154 290.359922 
L 140.088757 290.359922 
L 146.71436 287.89934 
L 153.339963 282.978175 
L 159.965566 270.675262 
L 166.591169 201.778951 
L 173.216772 295.281087 
L 179.842375 289.129631 
L 186.467978 255.911767 
L 193.093581 300.202252 
L 199.719184 253.451184 
L 206.344787 306.353709 
L 212.97039 289.129631 
L 219.595993 286.669049 
L 226.221596 284.208466 
L 232.847199 289.129631 
L 239.472801 290.359922 
L 246.098404 284.208466 
L 252.724007 291.590214 
L 259.34961 294.050796 
L 265.975213 292.820505 
L 272.600816 295.281087 
L 279.226419 297.74167 
L 285.852022 291.590214 
L 292.477625 307.584 
L 299.103228 307.584 
L 305.728831 307.584 
L 312.354434 307.584 
L 318.980037 307.584 
L 325.60564 307.584 
L 332.231243 307.584 
L 338.856846 307.584 
L 345.482449 307.584 
L 352.108052 307.584 
L 358.733655 307.584 
L 365.359258 307.584 
L 371.984861 307.584 
L 378.610464 307.584 
L 385.236067 307.584 
L 391.86167 307.584 
L 398.487273 307.584 
L 398.487273 307.584 
L 398.487273 307.584 
L 391.86167 307.584 
L 385.236067 307.584 
L 378.610464 307.584 
L 371.984861 307.584 
L 365.359258 307.584 
L 358.733655 307.584 
L 352.108052 307.584 
L 345.482449 307.584 
L 338.856846 307.584 
L 332.231243 307.584 
L 325.60564 307.584 
L 318.980037 307.584 
L 312.354434 307.584 
L 305.728831 307.584 
L 299.103228 307.584 
L 292.477625 307.584 
L 285.852022 274.366136 
L 279.226419 282.978175 
L 272.600816 281.747883 
L 265.975213 285.438757 
L 259.34961 284.208466 
L 252.724007 281.747883 
L 246.098404 265.754097 
L 239.472801 270.675262 
L 232.847199 271.905553 
L 226.221596 270.675262 
L 219.595993 270.675262 
L 212.97039 271.905553 
L 206.344787 300.202252 
L 199.719184 243.608854 
L 193.093581 295.281087 
L 186.467978 243.608854 
L 179.842375 269.444971 
L 173.216772 282.978175 
L 166.591169 196.857786 
L 159.965566 255.911767 
L 153.339963 246.069437 
L 146.71436 249.760311 
L 140.088757 249.760311 
L 133.463154 250.990602 
L 126.837551 253.451184 
L 120.211948 259.602641 
L 113.586345 233.766524 
L 106.960742 259.602641 
L 100.335139 248.530019 
L 93.709536 225.154485 
L 87.083933 250.990602 
L 80.45833 201.778951 
L 73.832727 163.639922 
z
" clip-path="url(#p5839fc8d50)" style="fill: #ff7f0e"/>
   </g>
   <g id="PolyCollection_3">
    <path d="M 73.832727 151.33701 
L 73.832727 163.639922 
L 80.45833 201.778951 
L 87.083933 250.990602 
L 93.709536 225.154485 
L 100.335139 248.530019 
L 106.960742 259.602641 
L 113.586345 233.766524 
L 120.211948 259.602641 
L 126.837551 253.451184 
L 133.463154 250.990602 
L 140.088757 249.760311 
L 146.71436 249.760311 
L 153.339963 246.069437 
L 159.965566 255.911767 
L 166.591169 196.857786 
L 173.216772 282.978175 
L 179.842375 269.444971 
L 186.467978 243.608854 
L 193.093581 295.281087 
L 199.719184 243.608854 
L 206.344787 300.202252 
L 212.97039 271.905553 
L 219.595993 270.675262 
L 226.221596 270.675262 
L 232.847199 271.905553 
L 239.472801 270.675262 
L 246.098404 265.754097 
L 252.724007 281.747883 
L 259.34961 284.208466 
L 265.975213 285.438757 
L 272.600816 281.747883 
L 279.226419 282.978175 
L 285.852022 274.366136 
L 292.477625 307.584 
L 299.103228 307.584 
L 305.728831 307.584 
L 312.354434 307.584 
L 318.980037 307.584 
L 325.60564 307.584 
L 332.231243 307.584 
L 338.856846 307.584 
L 345.482449 307.584 
L 352.108052 307.584 
L 358.733655 307.584 
L 365.359258 307.584 
L 371.984861 307.584 
L 378.610464 307.584 
L 385.236067 307.584 
L 391.86167 307.584 
L 398.487273 307.584 
L 398.487273 307.584 
L 398.487273 307.584 
L 391.86167 307.584 
L 385.236067 307.584 
L 378.610464 307.584 
L 371.984861 307.584 
L 365.359258 307.584 
L 358.733655 307.584 
L 352.108052 307.584 
L 345.482449 307.584 
L 338.856846 307.584 
L 332.231243 307.584 
L 325.60564 307.584 
L 318.980037 307.584 
L 312.354434 307.584 
L 305.728831 307.584 
L 299.103228 307.584 
L 292.477625 307.584 
L 285.852022 274.366136 
L 279.226419 282.978175 
L 272.600816 281.747883 
L 265.975213 285.438757 
L 259.34961 284.208466 
L 252.724007 281.747883 
L 246.098404 243.608854 
L 239.472801 237.457398 
L 232.847199 228.845359 
L 226.221596 242.378563 
L 219.595993 249.760311 
L 212.97039 258.37235 
L 206.344787 291.590214 
L 199.719184 233.766524 
L 193.093581 282.978175 
L 186.467978 221.463612 
L 179.842375 252.220893 
L 173.216772 250.990602 
L 166.591169 184.554874 
L 159.965566 242.378563 
L 153.339963 234.996816 
L 146.71436 226.384777 
L 140.088757 203.009243 
L 133.463154 231.305942 
L 126.837551 234.996816 
L 120.211948 219.003029 
L 113.586345 210.39099 
L 106.960742 232.536233 
L 100.335139 231.305942 
L 93.709536 205.469825 
L 87.083933 232.536233 
L 80.45833 184.554874 
L 73.832727 151.33701 
z
" clip-path="url(#p5839fc8d50)" style="fill: #2ca02c"/>
   </g>
   <g id="PolyCollection_4">
    <path d="M 73.832727 123.040311 
L 73.832727 151.33701 
L 80.45833 184.554874 
L 87.083933 232.536233 
L 93.709536 205.469825 
L 100.335139 231.305942 
L 106.960742 232.536233 
L 113.586345 210.39099 
L 120.211948 219.003029 
L 126.837551 234.996816 
L 133.463154 231.305942 
L 140.088757 203.009243 
L 146.71436 226.384777 
L 153.339963 234.996816 
L 159.965566 242.378563 
L 166.591169 184.554874 
L 173.216772 250.990602 
L 179.842375 252.220893 
L 186.467978 221.463612 
L 193.093581 282.978175 
L 199.719184 233.766524 
L 206.344787 291.590214 
L 212.97039 258.37235 
L 219.595993 249.760311 
L 226.221596 242.378563 
L 232.847199 228.845359 
L 239.472801 237.457398 
L 246.098404 243.608854 
L 252.724007 281.747883 
L 259.34961 284.208466 
L 265.975213 285.438757 
L 272.600816 281.747883 
L 279.226419 282.978175 
L 285.852022 274.366136 
L 292.477625 307.584 
L 299.103228 307.584 
L 305.728831 307.584 
L 312.354434 307.584 
L 318.980037 307.584 
L 325.60564 307.584 
L 332.231243 307.584 
L 338.856846 307.584 
L 345.482449 307.584 
L 352.108052 307.584 
L 358.733655 307.584 
L 365.359258 307.584 
L 371.984861 307.584 
L 378.610464 307.584 
L 385.236067 307.584 
L 391.86167 307.584 
L 398.487273 307.584 
L 398.487273 307.584 
L 398.487273 307.584 
L 391.86167 307.584 
L 385.236067 307.584 
L 378.610464 307.584 
L 371.984861 307.584 
L 365.359258 307.584 
L 358.733655 307.584 
L 352.108052 307.584 
L 345.482449 307.584 
L 338.856846 307.584 
L 332.231243 307.584 
L 325.60564 307.584 
L 318.980037 307.584 
L 312.354434 307.584 
L 305.728831 307.584 
L 299.103228 307.584 
L 292.477625 307.584 
L 285.852022 274.366136 
L 279.226419 282.978175 
L 272.600816 281.747883 
L 265.975213 285.438757 
L 259.34961 284.208466 
L 252.724007 281.747883 
L 246.098404 243.608854 
L 239.472801 237.457398 
L 232.847199 228.845359 
L 226.221596 242.378563 
L 219.595993 227.615068 
L 212.97039 242.378563 
L 206.344787 284.208466 
L 199.719184 219.003029 
L 193.093581 273.135845 
L 186.467978 207.930408 
L 179.842375 237.457398 
L 173.216772 227.615068 
L 166.591169 174.712544 
L 159.965566 216.542447 
L 153.339963 223.924194 
L 146.71436 211.621282 
L 140.088757 180.864 
L 133.463154 209.160699 
L 126.837551 220.23332 
L 120.211948 206.700117 
L 113.586345 196.857786 
L 106.960742 219.003029 
L 100.335139 225.154485 
L 93.709536 180.864 
L 87.083933 201.778951 
L 80.45833 157.488466 
L 73.832727 123.040311 
z
" clip-path="url(#p5839fc8d50)" style="fill: #d62728"/>
   </g>
   <g id="PolyCollection_5">
    <path d="M 73.832727 92.283029 
L 73.832727 123.040311 
L 80.45833 157.488466 
L 87.083933 201.778951 
L 93.709536 180.864 
L 100.335139 225.154485 
L 106.960742 219.003029 
L 113.586345 196.857786 
L 120.211948 206.700117 
L 126.837551 220.23332 
L 133.463154 209.160699 
L 140.088757 180.864 
L 146.71436 211.621282 
L 153.339963 223.924194 
L 159.965566 216.542447 
L 166.591169 174.712544 
L 173.216772 227.615068 
L 179.842375 237.457398 
L 186.467978 207.930408 
L 193.093581 273.135845 
L 199.719184 219.003029 
L 206.344787 284.208466 
L 212.97039 242.378563 
L 219.595993 227.615068 
L 226.221596 242.378563 
L 232.847199 228.845359 
L 239.472801 237.457398 
L 246.098404 243.608854 
L 252.724007 281.747883 
L 259.34961 284.208466 
L 265.975213 285.438757 
L 272.600816 281.747883 
L 279.226419 282.978175 
L 285.852022 274.366136 
L 292.477625 307.584 
L 299.103228 307.584 
L 305.728831 307.584 
L 312.354434 307.584 
L 318.980037 307.584 
L 325.60564 307.584 
L 332.231243 307.584 
L 338.856846 307.584 
L 345.482449 307.584 
L 352.108052 307.584 
L 358.733655 307.584 
L 365.359258 307.584 
L 371.984861 307.584 
L 378.610464 307.584 
L 385.236067 307.584 
L 391.86167 307.584 
L 398.487273 307.584 
L 398.487273 307.584 
L 398.487273 307.584 
L 391.86167 307.584 
L 385.236067 307.584 
L 378.610464 307.584 
L 371.984861 307.584 
L 365.359258 307.584 
L 358.733655 307.584 
L 352.108052 307.584 
L 345.482449 307.584 
L 338.856846 307.584 
L 332.231243 307.584 
L 325.60564 307.584 
L 318.980037 307.584 
L 312.354434 307.584 
L 305.728831 307.584 
L 299.103228 307.584 
L 292.477625 307.584 
L 285.852022 274.366136 
L 279.226419 282.978175 
L 272.600816 281.747883 
L 265.975213 285.438757 
L 259.34961 284.208466 
L 252.724007 281.747883 
L 246.098404 243.608854 
L 239.472801 237.457398 
L 232.847199 228.845359 
L 226.221596 242.378563 
L 219.595993 209.160699 
L 212.97039 215.312155 
L 206.344787 268.21468 
L 199.719184 196.857786 
L 193.093581 262.063223 
L 186.467978 185.785165 
L 179.842375 222.693903 
L 173.216772 211.621282 
L 166.591169 161.17934 
L 159.965566 196.857786 
L 153.339963 206.700117 
L 146.71436 196.857786 
L 140.088757 162.409631 
L 133.463154 189.476039 
L 126.837551 201.778951 
L 120.211948 188.245748 
L 113.586345 175.942835 
L 106.960742 205.469825 
L 100.335139 206.700117 
L 93.709536 162.409631 
L 87.083933 145.185553 
L 80.45833 130.422058 
L 73.832727 92.283029 
z
" clip-path="url(#p5839fc8d50)" style="fill: #9467bd"/>
   </g>
   <g id="PolyCollection_6">
    <path d="M 73.832727 88.592155 
L 73.832727 92.283029 
L 80.45833 130.422058 
L 87.083933 145.185553 
L 93.709536 162.409631 
L 100.335139 206.700117 
L 106.960742 205.469825 
L 113.586345 175.942835 
L 120.211948 188.245748 
L 126.837551 201.778951 
L 133.463154 189.476039 
L 140.088757 162.409631 
L 146.71436 196.857786 
L 153.339963 206.700117 
L 159.965566 196.857786 
L 166.591169 161.17934 
L 173.216772 211.621282 
L 179.842375 222.693903 
L 186.467978 185.785165 
L 193.093581 262.063223 
L 199.719184 196.857786 
L 206.344787 268.21468 
L 212.97039 215.312155 
L 219.595993 209.160699 
L 226.221596 242.378563 
L 232.847199 228.845359 
L 239.472801 237.457398 
L 246.098404 243.608854 
L 252.724007 281.747883 
L 259.34961 284.208466 
L 265.975213 285.438757 
L 272.600816 281.747883 
L 279.226419 282.978175 
L 285.852022 274.366136 
L 292.477625 307.584 
L 299.103228 307.584 
L 305.728831 307.584 
L 312.354434 307.584 
L 318.980037 307.584 
L 325.60564 307.584 
L 332.231243 307.584 
L 338.856846 307.584 
L 345.482449 307.584 
L 352.108052 307.584 
L 358.733655 307.584 
L 365.359258 307.584 
L 371.984861 307.584 
L 378.610464 307.584 
L 385.236067 307.584 
L 391.86167 307.584 
L 398.487273 307.584 
L 398.487273 276.826718 
L 398.487273 276.826718 
L 391.86167 294.050796 
L 385.236067 295.281087 
L 378.610464 291.590214 
L 371.984861 290.359922 
L 365.359258 286.669049 
L 358.733655 294.050796 
L 352.108052 263.293515 
L 345.482449 297.74167 
L 338.856846 275.596427 
L 332.231243 291.590214 
L 325.60564 290.359922 
L 318.980037 287.89934 
L 312.354434 275.596427 
L 305.728831 285.438757 
L 299.103228 290.359922 
L 292.477625 276.826718 
L 285.852022 264.523806 
L 279.226419 270.675262 
L 272.600816 270.675262 
L 265.975213 269.444971 
L 259.34961 268.21468 
L 252.724007 266.984388 
L 246.098404 227.615068 
L 239.472801 226.384777 
L 232.847199 219.003029 
L 226.221596 227.615068 
L 219.595993 189.476039 
L 212.97039 201.778951 
L 206.344787 259.602641 
L 199.719184 187.015456 
L 193.093581 253.451184 
L 186.467978 177.173126 
L 179.842375 210.39099 
L 173.216772 203.009243 
L 166.591169 153.797592 
L 159.965566 183.324583 
L 153.339963 191.936621 
L 146.71436 182.094291 
L 140.088757 151.33701 
L 133.463154 175.942835 
L 126.837551 185.785165 
L 120.211948 171.02167 
L 113.586345 167.330796 
L 106.960742 195.627495 
L 100.335139 194.397204 
L 93.709536 141.49468 
L 87.083933 132.882641 
L 80.45833 115.658563 
L 73.832727 88.592155 
z
" clip-path="url(#p5839fc8d50)" style="fill: #8c564b"/>
   </g>
   <g id="PolyCollection_7">
    <path d="M 73.832727 82.440699 
L 73.832727 88.592155 
L 80.45833 115.658563 
L 87.083933 132.882641 
L 93.709536 141.49468 
L 100.335139 194.397204 
L 106.960742 195.627495 
L 113.586345 167.330796 
L 120.211948 171.02167 
L 126.837551 185.785165 
L 133.463154 175.942835 
L 140.088757 151.33701 
L 146.71436 182.094291 
L 153.339963 191.936621 
L 159.965566 183.324583 
L 166.591169 153.797592 
L 173.216772 203.009243 
L 179.842375 210.39099 
L 186.467978 177.173126 
L 193.093581 253.451184 
L 199.719184 187.015456 
L 206.344787 259.602641 
L 212.97039 201.778951 
L 219.595993 189.476039 
L 226.221596 227.615068 
L 232.847199 219.003029 
L 239.472801 226.384777 
L 246.098404 227.615068 
L 252.724007 266.984388 
L 259.34961 268.21468 
L 265.975213 269.444971 
L 272.600816 270.675262 
L 279.226419 270.675262 
L 285.852022 264.523806 
L 292.477625 276.826718 
L 299.103228 290.359922 
L 305.728831 285.438757 
L 312.354434 275.596427 
L 318.980037 287.89934 
L 325.60564 290.359922 
L 332.231243 291.590214 
L 338.856846 275.596427 
L 345.482449 297.74167 
L 352.108052 263.293515 
L 358.733655 294.050796 
L 365.359258 286.669049 
L 371.984861 290.359922 
L 378.610464 291.590214 
L 385.236067 295.281087 
L 391.86167 294.050796 
L 398.487273 276.826718 
L 398.487273 266.984388 
L 398.487273 266.984388 
L 391.86167 281.747883 
L 385.236067 279.287301 
L 378.610464 270.675262 
L 371.984861 270.675262 
L 365.359258 265.754097 
L 358.733655 287.89934 
L 352.108052 246.069437 
L 345.482449 285.438757 
L 338.856846 266.984388 
L 332.231243 279.287301 
L 325.60564 203.009243 
L 318.980037 280.517592 
L 312.354434 266.984388 
L 305.728831 243.608854 
L 299.103228 271.905553 
L 292.477625 269.444971 
L 285.852022 190.70633 
L 279.226419 250.990602 
L 272.600816 260.832932 
L 265.975213 253.451184 
L 259.34961 259.602641 
L 252.724007 257.142058 
L 246.098404 209.160699 
L 239.472801 201.778951 
L 232.847199 196.857786 
L 226.221596 206.700117 
L 219.595993 173.482252 
L 212.97039 184.554874 
L 206.344787 252.220893 
L 199.719184 161.17934 
L 193.093581 250.990602 
L 186.467978 164.870214 
L 179.842375 195.627495 
L 173.216772 183.324583 
L 166.591169 143.955262 
L 159.965566 168.561087 
L 153.339963 172.251961 
L 146.71436 169.791379 
L 140.088757 140.264388 
L 133.463154 159.949049 
L 126.837551 169.791379 
L 120.211948 155.027883 
L 113.586345 151.33701 
L 106.960742 171.02167 
L 100.335139 164.870214 
L 93.709536 132.882641 
L 87.083933 114.428272 
L 80.45833 108.276816 
L 73.832727 82.440699 
z
" clip-path="url(#p5839fc8d50)" style="fill: #e377c2"/>
   </g>
   <g id="PolyCollection_8">
    <path d="M 73.832727 67.677204 
L 73.832727 82.440699 
L 80.45833 108.276816 
L 87.083933 114.428272 
L 93.709536 132.882641 
L 100.335139 164.870214 
L 106.960742 171.02167 
L 113.586345 151.33701 
L 120.211948 155.027883 
L 126.837551 169.791379 
L 133.463154 159.949049 
L 140.088757 140.264388 
L 146.71436 169.791379 
L 153.339963 172.251961 
L 159.965566 168.561087 
L 166.591169 143.955262 
L 173.216772 183.324583 
L 179.842375 195.627495 
L 186.467978 164.870214 
L 193.093581 250.990602 
L 199.719184 161.17934 
L 206.344787 252.220893 
L 212.97039 184.554874 
L 219.595993 173.482252 
L 226.221596 206.700117 
L 232.847199 196.857786 
L 239.472801 201.778951 
L 246.098404 209.160699 
L 252.724007 257.142058 
L 259.34961 259.602641 
L 265.975213 253.451184 
L 272.600816 260.832932 
L 279.226419 250.990602 
L 285.852022 190.70633 
L 292.477625 269.444971 
L 299.103228 271.905553 
L 305.728831 243.608854 
L 312.354434 266.984388 
L 318.980037 280.517592 
L 325.60564 203.009243 
L 332.231243 279.287301 
L 338.856846 266.984388 
L 345.482449 285.438757 
L 352.108052 246.069437 
L 358.733655 287.89934 
L 365.359258 265.754097 
L 371.984861 270.675262 
L 378.610464 270.675262 
L 385.236067 279.287301 
L 391.86167 281.747883 
L 398.487273 266.984388 
L 398.487273 266.984388 
L 398.487273 266.984388 
L 391.86167 281.747883 
L 385.236067 279.287301 
L 378.610464 270.675262 
L 371.984861 270.675262 
L 365.359258 265.754097 
L 358.733655 287.89934 
L 352.108052 246.069437 
L 345.482449 285.438757 
L 338.856846 266.984388 
L 332.231243 279.287301 
L 325.60564 203.009243 
L 318.980037 280.517592 
L 312.354434 266.984388 
L 305.728831 243.608854 
L 299.103228 271.905553 
L 292.477625 269.444971 
L 285.852022 190.70633 
L 279.226419 250.990602 
L 272.600816 260.832932 
L 265.975213 253.451184 
L 259.34961 259.602641 
L 252.724007 257.142058 
L 246.098404 209.160699 
L 239.472801 201.778951 
L 232.847199 196.857786 
L 226.221596 206.700117 
L 219.595993 173.482252 
L 212.97039 184.554874 
L 206.344787 238.687689 
L 199.719184 151.33701 
L 193.093581 238.687689 
L 186.467978 155.027883 
L 179.842375 178.403417 
L 173.216772 167.330796 
L 166.591169 134.112932 
L 159.965566 156.258175 
L 153.339963 162.409631 
L 146.71436 155.027883 
L 140.088757 135.343223 
L 133.463154 147.646136 
L 126.837551 148.876427 
L 120.211948 146.415845 
L 113.586345 130.422058 
L 106.960742 152.567301 
L 100.335139 139.034097 
L 93.709536 119.349437 
L 87.083933 98.434485 
L 80.45833 88.592155 
L 73.832727 67.677204 
z
" clip-path="url(#p5839fc8d50)" style="fill: #7f7f7f"/>
   </g>
   <g id="PolyCollection_9">
    <path d="M 73.832727 62.756039 
L 73.832727 67.677204 
L 80.45833 88.592155 
L 87.083933 98.434485 
L 93.709536 119.349437 
L 100.335139 139.034097 
L 106.960742 152.567301 
L 113.586345 130.422058 
L 120.211948 146.415845 
L 126.837551 148.876427 
L 133.463154 147.646136 
L 140.088757 135.343223 
L 146.71436 155.027883 
L 153.339963 162.409631 
L 159.965566 156.258175 
L 166.591169 134.112932 
L 173.216772 167.330796 
L 179.842375 178.403417 
L 186.467978 155.027883 
L 193.093581 238.687689 
L 199.719184 151.33701 
L 206.344787 238.687689 
L 212.97039 184.554874 
L 219.595993 173.482252 
L 226.221596 206.700117 
L 232.847199 196.857786 
L 239.472801 201.778951 
L 246.098404 209.160699 
L 252.724007 257.142058 
L 259.34961 259.602641 
L 265.975213 253.451184 
L 272.600816 260.832932 
L 279.226419 250.990602 
L 285.852022 190.70633 
L 292.477625 269.444971 
L 299.103228 271.905553 
L 305.728831 243.608854 
L 312.354434 266.984388 
L 318.980037 280.517592 
L 325.60564 203.009243 
L 332.231243 279.287301 
L 338.856846 266.984388 
L 345.482449 285.438757 
L 352.108052 246.069437 
L 358.733655 287.89934 
L 365.359258 265.754097 
L 371.984861 270.675262 
L 378.610464 270.675262 
L 385.236067 279.287301 
L 391.86167 281.747883 
L 398.487273 266.984388 
L 398.487273 266.984388 
L 398.487273 266.984388 
L 391.86167 281.747883 
L 385.236067 279.287301 
L 378.610464 270.675262 
L 371.984861 270.675262 
L 365.359258 246.069437 
L 358.733655 269.444971 
L 352.108052 228.845359 
L 345.482449 275.596427 
L 338.856846 247.299728 
L 332.231243 265.754097 
L 325.60564 190.70633 
L 318.980037 265.754097 
L 312.354434 253.451184 
L 305.728831 226.384777 
L 299.103228 253.451184 
L 292.477625 244.839146 
L 285.852022 178.403417 
L 279.226419 244.839146 
L 272.600816 246.069437 
L 265.975213 238.687689 
L 259.34961 241.148272 
L 252.724007 243.608854 
L 246.098404 199.318369 
L 239.472801 175.942835 
L 232.847199 183.324583 
L 226.221596 190.70633 
L 219.595993 163.639922 
L 212.97039 169.791379 
L 206.344787 223.924194 
L 199.719184 135.343223 
L 193.093581 231.305942 
L 186.467978 145.185553 
L 179.842375 157.488466 
L 173.216772 153.797592 
L 166.591169 124.270602 
L 159.965566 150.106718 
L 153.339963 151.33701 
L 146.71436 143.955262 
L 140.088757 125.500893 
L 133.463154 137.803806 
L 126.837551 135.343223 
L 120.211948 130.422058 
L 113.586345 116.888854 
L 106.960742 141.49468 
L 100.335139 123.040311 
L 93.709536 103.35565 
L 87.083933 89.822447 
L 80.45833 77.519534 
L 73.832727 62.756039 
z
" clip-path="url(#p5839fc8d50)" style="fill: #bcbd22"/>
   </g>
   <g id="PolyCollection_10">
    <path d="M 73.832727 61.525748 
L 73.832727 62.756039 
L 80.45833 77.519534 
L 87.083933 89.822447 
L 93.709536 103.35565 
L 100.335139 123.040311 
L 106.960742 141.49468 
L 113.586345 116.888854 
L 120.211948 130.422058 
L 126.837551 135.343223 
L 133.463154 137.803806 
L 140.088757 125.500893 
L 146.71436 143.955262 
L 153.339963 151.33701 
L 159.965566 150.106718 
L 166.591169 124.270602 
L 173.216772 153.797592 
L 179.842375 157.488466 
L 186.467978 145.185553 
L 193.093581 231.305942 
L 199.719184 135.343223 
L 206.344787 223.924194 
L 212.97039 169.791379 
L 219.595993 163.639922 
L 226.221596 190.70633 
L 232.847199 183.324583 
L 239.472801 175.942835 
L 246.098404 199.318369 
L 252.724007 243.608854 
L 259.34961 241.148272 
L 265.975213 238.687689 
L 272.600816 246.069437 
L 279.226419 244.839146 
L 285.852022 178.403417 
L 292.477625 244.839146 
L 299.103228 253.451184 
L 305.728831 226.384777 
L 312.354434 253.451184 
L 318.980037 265.754097 
L 325.60564 190.70633 
L 332.231243 265.754097 
L 338.856846 247.299728 
L 345.482449 275.596427 
L 352.108052 228.845359 
L 358.733655 269.444971 
L 365.359258 246.069437 
L 371.984861 270.675262 
L 378.610464 270.675262 
L 385.236067 279.287301 
L 391.86167 281.747883 
L 398.487273 266.984388 
L 398.487273 266.984388 
L 398.487273 266.984388 
L 391.86167 281.747883 
L 385.236067 279.287301 
L 378.610464 270.675262 
L 371.984861 270.675262 
L 365.359258 246.069437 
L 358.733655 269.444971 
L 352.108052 228.845359 
L 345.482449 275.596427 
L 338.856846 247.299728 
L 332.231243 265.754097 
L 325.60564 178.403417 
L 318.980037 255.911767 
L 312.354434 233.766524 
L 305.728831 205.469825 
L 299.103228 222.693903 
L 292.477625 222.693903 
L 285.852022 167.330796 
L 279.226419 230.07565 
L 272.600816 236.227107 
L 265.975213 228.845359 
L 259.34961 228.845359 
L 252.724007 234.996816 
L 246.098404 179.633709 
L 239.472801 158.718757 
L 232.847199 166.100505 
L 226.221596 177.173126 
L 219.595993 146.415845 
L 212.97039 152.567301 
L 206.344787 120.579728 
L 199.719184 127.961476 
L 193.093581 114.428272 
L 186.467978 130.422058 
L 179.842375 141.49468 
L 173.216772 140.264388 
L 166.591169 111.967689 
L 159.965566 135.343223 
L 153.339963 135.343223 
L 146.71436 131.65235 
L 140.088757 110.737398 
L 133.463154 125.500893 
L 126.837551 126.731184 
L 120.211948 118.119146 
L 113.586345 104.585942 
L 106.960742 130.422058 
L 100.335139 108.276816 
L 93.709536 91.052738 
L 87.083933 77.519534 
L 80.45833 65.216621 
L 73.832727 61.525748 
z
" clip-path="url(#p5839fc8d50)" style="fill: #17becf"/>
   </g>
   <g id="PolyCollection_11">
    <path d="M 73.832727 61.525748 
L 73.832727 61.525748 
L 80.45833 65.216621 
L 87.083933 77.519534 
L 93.709536 91.052738 
L 100.335139 108.276816 
L 106.960742 130.422058 
L 113.586345 104.585942 
L 120.211948 118.119146 
L 126.837551 126.731184 
L 133.463154 125.500893 
L 140.088757 110.737398 
L 146.71436 131.65235 
L 153.339963 135.343223 
L 159.965566 135.343223 
L 166.591169 111.967689 
L 173.216772 140.264388 
L 179.842375 141.49468 
L 186.467978 130.422058 
L 193.093581 114.428272 
L 199.719184 127.961476 
L 206.344787 120.579728 
L 212.97039 152.567301 
L 219.595993 146.415845 
L 226.221596 177.173126 
L 232.847199 166.100505 
L 239.472801 158.718757 
L 246.098404 179.633709 
L 252.724007 234.996816 
L 259.34961 228.845359 
L 265.975213 228.845359 
L 272.600816 236.227107 
L 279.226419 230.07565 
L 285.852022 167.330796 
L 292.477625 222.693903 
L 299.103228 222.693903 
L 305.728831 205.469825 
L 312.354434 233.766524 
L 318.980037 255.911767 
L 325.60564 178.403417 
L 332.231243 265.754097 
L 338.856846 247.299728 
L 345.482449 275.596427 
L 352.108052 228.845359 
L 358.733655 269.444971 
L 365.359258 246.069437 
L 371.984861 270.675262 
L 378.610464 270.675262 
L 385.236067 279.287301 
L 391.86167 281.747883 
L 398.487273 266.984388 
L 398.487273 266.984388 
L 398.487273 266.984388 
L 391.86167 281.747883 
L 385.236067 279.287301 
L 378.610464 270.675262 
L 371.984861 270.675262 
L 365.359258 246.069437 
L 358.733655 269.444971 
L 352.108052 228.845359 
L 345.482449 275.596427 
L 338.856846 247.299728 
L 332.231243 265.754097 
L 325.60564 178.403417 
L 318.980037 255.911767 
L 312.354434 233.766524 
L 305.728831 205.469825 
L 299.103228 222.693903 
L 292.477625 222.693903 
L 285.852022 167.330796 
L 279.226419 230.07565 
L 272.600816 236.227107 
L 265.975213 215.312155 
L 259.34961 215.312155 
L 252.724007 223.924194 
L 246.098404 168.561087 
L 239.472801 146.415845 
L 232.847199 156.258175 
L 226.221596 162.409631 
L 219.595993 135.343223 
L 212.97039 140.264388 
L 206.344787 107.046524 
L 199.719184 115.658563 
L 193.093581 104.585942 
L 186.467978 120.579728 
L 179.842375 129.191767 
L 173.216772 129.191767 
L 166.591169 107.046524 
L 159.965566 124.270602 
L 153.339963 123.040311 
L 146.71436 121.810019 
L 140.088757 105.816233 
L 133.463154 111.967689 
L 126.837551 116.888854 
L 120.211948 111.967689 
L 113.586345 97.204194 
L 106.960742 119.349437 
L 100.335139 91.052738 
L 93.709536 76.289243 
L 87.083933 63.98633 
L 80.45833 61.525748 
L 73.832727 61.525748 
z
" clip-path="url(#p5839fc8d50)" style="fill: #1f77b4"/>
   </g>
   <g id="PolyCollection_12">
    <path d="M 73.832727 61.525748 
L 73.832727 61.525748 
L 80.45833 61.525748 
L 87.083933 63.98633 
L 93.709536 76.289243 
L 100.335139 91.052738 
L 106.960742 119.349437 
L 113.586345 97.204194 
L 120.211948 111.967689 
L 126.837551 116.888854 
L 133.463154 111.967689 
L 140.088757 105.816233 
L 146.71436 121.810019 
L 153.339963 123.040311 
L 159.965566 124.270602 
L 166.591169 107.046524 
L 173.216772 129.191767 
L 179.842375 129.191767 
L 186.467978 120.579728 
L 193.093581 104.585942 
L 199.719184 115.658563 
L 206.344787 107.046524 
L 212.97039 140.264388 
L 219.595993 135.343223 
L 226.221596 162.409631 
L 232.847199 156.258175 
L 239.472801 146.415845 
L 246.098404 168.561087 
L 252.724007 223.924194 
L 259.34961 215.312155 
L 265.975213 215.312155 
L 272.600816 236.227107 
L 279.226419 230.07565 
L 285.852022 167.330796 
L 292.477625 222.693903 
L 299.103228 222.693903 
L 305.728831 205.469825 
L 312.354434 233.766524 
L 318.980037 255.911767 
L 325.60564 178.403417 
L 332.231243 265.754097 
L 338.856846 247.299728 
L 345.482449 275.596427 
L 352.108052 228.845359 
L 358.733655 269.444971 
L 365.359258 246.069437 
L 371.984861 270.675262 
L 378.610464 270.675262 
L 385.236067 279.287301 
L 391.86167 281.747883 
L 398.487273 266.984388 
L 398.487273 266.984388 
L 398.487273 266.984388 
L 391.86167 281.747883 
L 385.236067 279.287301 
L 378.610464 270.675262 
L 371.984861 270.675262 
L 365.359258 246.069437 
L 358.733655 269.444971 
L 352.108052 228.845359 
L 345.482449 275.596427 
L 338.856846 247.299728 
L 332.231243 265.754097 
L 325.60564 178.403417 
L 318.980037 255.911767 
L 312.354434 233.766524 
L 305.728831 205.469825 
L 299.103228 222.693903 
L 292.477625 222.693903 
L 285.852022 167.330796 
L 279.226419 230.07565 
L 272.600816 236.227107 
L 265.975213 215.312155 
L 259.34961 215.312155 
L 252.724007 223.924194 
L 246.098404 168.561087 
L 239.472801 146.415845 
L 232.847199 156.258175 
L 226.221596 150.106718 
L 219.595993 124.270602 
L 212.97039 127.961476 
L 206.344787 103.35565 
L 199.719184 105.816233 
L 193.093581 98.434485 
L 186.467978 109.507107 
L 179.842375 116.888854 
L 173.216772 114.428272 
L 166.591169 97.204194 
L 159.965566 111.967689 
L 153.339963 109.507107 
L 146.71436 105.816233 
L 140.088757 92.283029 
L 133.463154 100.895068 
L 126.837551 104.585942 
L 120.211948 98.434485 
L 113.586345 83.67099 
L 106.960742 104.585942 
L 100.335139 76.289243 
L 93.709536 65.216621 
L 87.083933 62.756039 
L 80.45833 61.525748 
L 73.832727 61.525748 
z
" clip-path="url(#p5839fc8d50)" style="fill: #ff7f0e"/>
   </g>
   <g id="PolyCollection_13">
    <path d="M 73.832727 61.525748 
L 73.832727 61.525748 
L 80.45833 61.525748 
L 87.083933 62.756039 
L 93.709536 65.216621 
L 100.335139 76.289243 
L 106.960742 104.585942 
L 113.586345 83.67099 
L 120.211948 98.434485 
L 126.837551 104.585942 
L 133.463154 100.895068 
L 140.088757 92.283029 
L 146.71436 105.816233 
L 153.339963 109.507107 
L 159.965566 111.967689 
L 166.591169 97.204194 
L 173.216772 114.428272 
L 179.842375 116.888854 
L 186.467978 109.507107 
L 193.093581 98.434485 
L 199.719184 105.816233 
L 206.344787 103.35565 
L 212.97039 127.961476 
L 219.595993 124.270602 
L 226.221596 150.106718 
L 232.847199 156.258175 
L 239.472801 146.415845 
L 246.098404 168.561087 
L 252.724007 223.924194 
L 259.34961 215.312155 
L 265.975213 215.312155 
L 272.600816 236.227107 
L 279.226419 230.07565 
L 285.852022 167.330796 
L 292.477625 222.693903 
L 299.103228 222.693903 
L 305.728831 205.469825 
L 312.354434 233.766524 
L 318.980037 255.911767 
L 325.60564 178.403417 
L 332.231243 265.754097 
L 338.856846 247.299728 
L 345.482449 275.596427 
L 352.108052 228.845359 
L 358.733655 269.444971 
L 365.359258 246.069437 
L 371.984861 270.675262 
L 378.610464 270.675262 
L 385.236067 279.287301 
L 391.86167 281.747883 
L 398.487273 266.984388 
L 398.487273 266.984388 
L 398.487273 266.984388 
L 391.86167 281.747883 
L 385.236067 279.287301 
L 378.610464 270.675262 
L 371.984861 270.675262 
L 365.359258 246.069437 
L 358.733655 269.444971 
L 352.108052 228.845359 
L 345.482449 275.596427 
L 338.856846 247.299728 
L 332.231243 265.754097 
L 325.60564 178.403417 
L 318.980037 255.911767 
L 312.354434 233.766524 
L 305.728831 205.469825 
L 299.103228 222.693903 
L 292.477625 222.693903 
L 285.852022 167.330796 
L 279.226419 230.07565 
L 272.600816 236.227107 
L 265.975213 215.312155 
L 259.34961 215.312155 
L 252.724007 223.924194 
L 246.098404 168.561087 
L 239.472801 146.415845 
L 232.847199 156.258175 
L 226.221596 135.343223 
L 219.595993 109.507107 
L 212.97039 116.888854 
L 206.344787 93.51332 
L 199.719184 93.51332 
L 193.093581 89.822447 
L 186.467978 103.35565 
L 179.842375 103.35565 
L 173.216772 100.895068 
L 166.591169 91.052738 
L 159.965566 99.664777 
L 153.339963 94.743612 
L 146.71436 93.51332 
L 140.088757 78.749825 
L 133.463154 84.901282 
L 126.837551 89.822447 
L 120.211948 81.210408 
L 113.586345 81.210408 
L 106.960742 83.67099 
L 100.335139 65.216621 
L 93.709536 61.525748 
L 87.083933 62.756039 
L 80.45833 61.525748 
L 73.832727 61.525748 
z
" clip-path="url(#p5839fc8d50)" style="fill: #2ca02c"/>
   </g>
   <g id="PolyCollection_14">
    <path d="M 73.832727 61.525748 
L 73.832727 61.525748 
L 80.45833 61.525748 
L 87.083933 62.756039 
L 93.709536 61.525748 
L 100.335139 65.216621 
L 106.960742 83.67099 
L 113.586345 81.210408 
L 120.211948 81.210408 
L 126.837551 89.822447 
L 133.463154 84.901282 
L 140.088757 78.749825 
L 146.71436 93.51332 
L 153.339963 94.743612 
L 159.965566 99.664777 
L 166.591169 91.052738 
L 173.216772 100.895068 
L 179.842375 103.35565 
L 186.467978 103.35565 
L 193.093581 89.822447 
L 199.719184 93.51332 
L 206.344787 93.51332 
L 212.97039 116.888854 
L 219.595993 109.507107 
L 226.221596 135.343223 
L 232.847199 156.258175 
L 239.472801 146.415845 
L 246.098404 168.561087 
L 252.724007 223.924194 
L 259.34961 215.312155 
L 265.975213 215.312155 
L 272.600816 236.227107 
L 279.226419 230.07565 
L 285.852022 167.330796 
L 292.477625 222.693903 
L 299.103228 222.693903 
L 305.728831 205.469825 
L 312.354434 233.766524 
L 318.980037 255.911767 
L 325.60564 178.403417 
L 332.231243 265.754097 
L 338.856846 247.299728 
L 345.482449 275.596427 
L 352.108052 228.845359 
L 358.733655 269.444971 
L 365.359258 246.069437 
L 371.984861 270.675262 
L 378.610464 270.675262 
L 385.236067 279.287301 
L 391.86167 281.747883 
L 398.487273 266.984388 
L 398.487273 266.984388 
L 398.487273 266.984388 
L 391.86167 281.747883 
L 385.236067 279.287301 
L 378.610464 270.675262 
L 371.984861 270.675262 
L 365.359258 246.069437 
L 358.733655 269.444971 
L 352.108052 228.845359 
L 345.482449 275.596427 
L 338.856846 247.299728 
L 332.231243 265.754097 
L 325.60564 178.403417 
L 318.980037 255.911767 
L 312.354434 233.766524 
L 305.728831 205.469825 
L 299.103228 222.693903 
L 292.477625 222.693903 
L 285.852022 167.330796 
L 279.226419 230.07565 
L 272.600816 236.227107 
L 265.975213 215.312155 
L 259.34961 215.312155 
L 252.724007 223.924194 
L 246.098404 168.561087 
L 239.472801 146.415845 
L 232.847199 137.803806 
L 226.221596 113.197981 
L 219.595993 88.592155 
L 212.97039 95.973903 
L 206.344787 78.749825 
L 199.719184 79.980117 
L 193.093581 79.980117 
L 186.467978 83.67099 
L 179.842375 82.440699 
L 173.216772 77.519534 
L 166.591169 73.82866 
L 159.965566 77.519534 
L 153.339963 76.289243 
L 146.71436 75.058951 
L 140.088757 66.446913 
L 133.463154 68.907495 
L 126.837551 67.677204 
L 120.211948 59.065165 
L 113.586345 60.295456 
L 106.960742 61.525748 
L 100.335139 61.525748 
L 93.709536 61.525748 
L 87.083933 62.756039 
L 80.45833 61.525748 
L 73.832727 61.525748 
z
" clip-path="url(#p5839fc8d50)" style="fill: #d62728"/>
   </g>
   <g id="PolyCollection_15">
    <path d="M 73.832727 61.525748 
L 73.832727 61.525748 
L 80.45833 61.525748 
L 87.083933 62.756039 
L 93.709536 61.525748 
L 100.335139 61.525748 
L 106.960742 61.525748 
L 113.586345 60.295456 
L 120.211948 59.065165 
L 126.837551 67.677204 
L 133.463154 68.907495 
L 140.088757 66.446913 
L 146.71436 75.058951 
L 153.339963 76.289243 
L 159.965566 77.519534 
L 166.591169 73.82866 
L 173.216772 77.519534 
L 179.842375 82.440699 
L 186.467978 83.67099 
L 193.093581 79.980117 
L 199.719184 79.980117 
L 206.344787 78.749825 
L 212.97039 95.973903 
L 219.595993 88.592155 
L 226.221596 113.197981 
L 232.847199 137.803806 
L 239.472801 146.415845 
L 246.098404 168.561087 
L 252.724007 223.924194 
L 259.34961 215.312155 
L 265.975213 215.312155 
L 272.600816 236.227107 
L 279.226419 230.07565 
L 285.852022 167.330796 
L 292.477625 222.693903 
L 299.103228 222.693903 
L 305.728831 205.469825 
L 312.354434 233.766524 
L 318.980037 255.911767 
L 325.60564 178.403417 
L 332.231243 265.754097 
L 338.856846 247.299728 
L 345.482449 275.596427 
L 352.108052 228.845359 
L 358.733655 269.444971 
L 365.359258 246.069437 
L 371.984861 270.675262 
L 378.610464 270.675262 
L 385.236067 279.287301 
L 391.86167 281.747883 
L 398.487273 266.984388 
L 398.487273 266.984388 
L 398.487273 266.984388 
L 391.86167 281.747883 
L 385.236067 279.287301 
L 378.610464 270.675262 
L 371.984861 270.675262 
L 365.359258 246.069437 
L 358.733655 269.444971 
L 352.108052 228.845359 
L 345.482449 275.596427 
L 338.856846 247.299728 
L 332.231243 265.754097 
L 325.60564 178.403417 
L 318.980037 255.911767 
L 312.354434 233.766524 
L 305.728831 205.469825 
L 299.103228 222.693903 
L 292.477625 222.693903 
L 285.852022 167.330796 
L 279.226419 230.07565 
L 272.600816 236.227107 
L 265.975213 215.312155 
L 259.34961 215.312155 
L 252.724007 210.39099 
L 246.098404 151.33701 
L 239.472801 135.343223 
L 232.847199 125.500893 
L 226.221596 98.434485 
L 219.595993 72.598369 
L 212.97039 81.210408 
L 206.344787 67.677204 
L 199.719184 68.907495 
L 193.093581 68.907495 
L 186.467978 71.368078 
L 179.842375 70.137786 
L 173.216772 68.907495 
L 166.591169 67.677204 
L 159.965566 66.446913 
L 153.339963 63.98633 
L 146.71436 60.295456 
L 140.088757 56.604583 
L 133.463154 57.834874 
L 126.837551 56.604583 
L 120.211948 57.834874 
L 113.586345 60.295456 
L 106.960742 61.525748 
L 100.335139 61.525748 
L 93.709536 61.525748 
L 87.083933 62.756039 
L 80.45833 61.525748 
L 73.832727 61.525748 
z
" clip-path="url(#p5839fc8d50)" style="fill: #9467bd"/>
   </g>
   <g id="PolyCollection_16">
    <path d="M 73.832727 61.525748 
L 73.832727 61.525748 
L 80.45833 61.525748 
L 87.083933 62.756039 
L 93.709536 61.525748 
L 100.335139 61.525748 
L 106.960742 61.525748 
L 113.586345 60.295456 
L 120.211948 57.834874 
L 126.837551 56.604583 
L 133.463154 57.834874 
L 140.088757 56.604583 
L 146.71436 60.295456 
L 153.339963 63.98633 
L 159.965566 66.446913 
L 166.591169 67.677204 
L 173.216772 68.907495 
L 179.842375 70.137786 
L 186.467978 71.368078 
L 193.093581 68.907495 
L 199.719184 68.907495 
L 206.344787 67.677204 
L 212.97039 81.210408 
L 219.595993 72.598369 
L 226.221596 98.434485 
L 232.847199 125.500893 
L 239.472801 135.343223 
L 246.098404 151.33701 
L 252.724007 210.39099 
L 259.34961 215.312155 
L 265.975213 215.312155 
L 272.600816 236.227107 
L 279.226419 230.07565 
L 285.852022 167.330796 
L 292.477625 222.693903 
L 299.103228 222.693903 
L 305.728831 205.469825 
L 312.354434 233.766524 
L 318.980037 255.911767 
L 325.60564 178.403417 
L 332.231243 265.754097 
L 338.856846 247.299728 
L 345.482449 275.596427 
L 352.108052 228.845359 
L 358.733655 269.444971 
L 365.359258 246.069437 
L 371.984861 270.675262 
L 378.610464 270.675262 
L 385.236067 279.287301 
L 391.86167 281.747883 
L 398.487273 266.984388 
L 398.487273 266.984388 
L 398.487273 266.984388 
L 391.86167 281.747883 
L 385.236067 279.287301 
L 378.610464 270.675262 
L 371.984861 270.675262 
L 365.359258 246.069437 
L 358.733655 269.444971 
L 352.108052 228.845359 
L 345.482449 275.596427 
L 338.856846 247.299728 
L 332.231243 265.754097 
L 325.60564 178.403417 
L 318.980037 255.911767 
L 312.354434 233.766524 
L 305.728831 205.469825 
L 299.103228 222.693903 
L 292.477625 210.39099 
L 285.852022 151.33701 
L 279.226419 212.851573 
L 272.600816 221.463612 
L 265.975213 205.469825 
L 259.34961 206.700117 
L 252.724007 198.088078 
L 246.098404 139.034097 
L 239.472801 121.810019 
L 232.847199 107.046524 
L 226.221596 84.901282 
L 219.595993 70.137786 
L 212.97039 71.368078 
L 206.344787 59.065165 
L 199.719184 57.834874 
L 193.093581 60.295456 
L 186.467978 61.525748 
L 179.842375 61.525748 
L 173.216772 57.834874 
L 166.591169 57.834874 
L 159.965566 63.98633 
L 153.339963 63.98633 
L 146.71436 60.295456 
L 140.088757 56.604583 
L 133.463154 57.834874 
L 126.837551 56.604583 
L 120.211948 57.834874 
L 113.586345 60.295456 
L 106.960742 61.525748 
L 100.335139 61.525748 
L 93.709536 61.525748 
L 87.083933 62.756039 
L 80.45833 61.525748 
L 73.832727 61.525748 
z
" clip-path="url(#p5839fc8d50)" style="fill: #8c564b"/>
   </g>
   <g id="PolyCollection_17">
    <path d="M 73.832727 61.525748 
L 73.832727 61.525748 
L 80.45833 61.525748 
L 87.083933 62.756039 
L 93.709536 61.525748 
L 100.335139 61.525748 
L 106.960742 61.525748 
L 113.586345 60.295456 
L 120.211948 57.834874 
L 126.837551 56.604583 
L 133.463154 57.834874 
L 140.088757 56.604583 
L 146.71436 60.295456 
L 153.339963 63.98633 
L 159.965566 63.98633 
L 166.591169 57.834874 
L 173.216772 57.834874 
L 179.842375 61.525748 
L 186.467978 61.525748 
L 193.093581 60.295456 
L 199.719184 57.834874 
L 206.344787 59.065165 
L 212.97039 71.368078 
L 219.595993 70.137786 
L 226.221596 84.901282 
L 232.847199 107.046524 
L 239.472801 121.810019 
L 246.098404 139.034097 
L 252.724007 198.088078 
L 259.34961 206.700117 
L 265.975213 205.469825 
L 272.600816 221.463612 
L 279.226419 212.851573 
L 285.852022 151.33701 
L 292.477625 210.39099 
L 299.103228 222.693903 
L 305.728831 205.469825 
L 312.354434 233.766524 
L 318.980037 255.911767 
L 325.60564 178.403417 
L 332.231243 265.754097 
L 338.856846 247.299728 
L 345.482449 275.596427 
L 352.108052 228.845359 
L 358.733655 269.444971 
L 365.359258 246.069437 
L 371.984861 270.675262 
L 378.610464 270.675262 
L 385.236067 279.287301 
L 391.86167 281.747883 
L 398.487273 266.984388 
L 398.487273 266.984388 
L 398.487273 266.984388 
L 391.86167 281.747883 
L 385.236067 279.287301 
L 378.610464 270.675262 
L 371.984861 270.675262 
L 365.359258 246.069437 
L 358.733655 269.444971 
L 352.108052 228.845359 
L 345.482449 275.596427 
L 338.856846 247.299728 
L 332.231243 253.451184 
L 325.60564 168.561087 
L 318.980037 250.990602 
L 312.354434 223.924194 
L 305.728831 195.627495 
L 299.103228 204.239534 
L 292.477625 193.166913 
L 285.852022 139.034097 
L 279.226419 200.54866 
L 272.600816 211.621282 
L 265.975213 193.166913 
L 259.34961 193.166913 
L 252.724007 188.245748 
L 246.098404 127.961476 
L 239.472801 109.507107 
L 232.847199 95.973903 
L 226.221596 75.058951 
L 219.595993 60.295456 
L 212.97039 56.604583 
L 206.344787 54.144 
L 199.719184 54.144 
L 193.093581 60.295456 
L 186.467978 61.525748 
L 179.842375 61.525748 
L 173.216772 57.834874 
L 166.591169 57.834874 
L 159.965566 63.98633 
L 153.339963 63.98633 
L 146.71436 60.295456 
L 140.088757 56.604583 
L 133.463154 57.834874 
L 126.837551 56.604583 
L 120.211948 57.834874 
L 113.586345 60.295456 
L 106.960742 61.525748 
L 100.335139 61.525748 
L 93.709536 61.525748 
L 87.083933 62.756039 
L 80.45833 61.525748 
L 73.832727 61.525748 
z
" clip-path="url(#p5839fc8d50)" style="fill: #e377c2"/>
   </g>
   <g id="PolyCollection_18">
    <path d="M 73.832727 61.525748 
L 73.832727 61.525748 
L 80.45833 61.525748 
L 87.083933 62.756039 
L 93.709536 61.525748 
L 100.335139 61.525748 
L 106.960742 61.525748 
L 113.586345 60.295456 
L 120.211948 57.834874 
L 126.837551 56.604583 
L 133.463154 57.834874 
L 140.088757 56.604583 
L 146.71436 60.295456 
L 153.339963 63.98633 
L 159.965566 63.98633 
L 166.591169 57.834874 
L 173.216772 57.834874 
L 179.842375 61.525748 
L 186.467978 61.525748 
L 193.093581 60.295456 
L 199.719184 54.144 
L 206.344787 54.144 
L 212.97039 56.604583 
L 219.595993 60.295456 
L 226.221596 75.058951 
L 232.847199 95.973903 
L 239.472801 109.507107 
L 246.098404 127.961476 
L 252.724007 188.245748 
L 259.34961 193.166913 
L 265.975213 193.166913 
L 272.600816 211.621282 
L 279.226419 200.54866 
L 285.852022 139.034097 
L 292.477625 193.166913 
L 299.103228 204.239534 
L 305.728831 195.627495 
L 312.354434 223.924194 
L 318.980037 250.990602 
L 325.60564 168.561087 
L 332.231243 253.451184 
L 338.856846 247.299728 
L 345.482449 275.596427 
L 352.108052 228.845359 
L 358.733655 269.444971 
L 365.359258 246.069437 
L 371.984861 270.675262 
L 378.610464 270.675262 
L 385.236067 279.287301 
L 391.86167 281.747883 
L 398.487273 266.984388 
L 398.487273 248.530019 
L 398.487273 248.530019 
L 391.86167 265.754097 
L 385.236067 253.451184 
L 378.610464 253.451184 
L 371.984861 248.530019 
L 365.359258 231.305942 
L 358.733655 258.37235 
L 352.108052 215.312155 
L 345.482449 265.754097 
L 338.856846 231.305942 
L 332.231243 239.917981 
L 325.60564 161.17934 
L 318.980037 238.687689 
L 312.354434 200.54866 
L 305.728831 173.482252 
L 299.103228 187.015456 
L 292.477625 166.100505 
L 285.852022 120.579728 
L 279.226419 182.094291 
L 272.600816 200.54866 
L 265.975213 179.633709 
L 259.34961 182.094291 
L 252.724007 177.173126 
L 246.098404 111.967689 
L 239.472801 91.052738 
L 232.847199 76.289243 
L 226.221596 61.525748 
L 219.595993 56.604583 
L 212.97039 56.604583 
L 206.344787 54.144 
L 199.719184 54.144 
L 193.093581 60.295456 
L 186.467978 61.525748 
L 179.842375 61.525748 
L 173.216772 57.834874 
L 166.591169 57.834874 
L 159.965566 63.98633 
L 153.339963 63.98633 
L 146.71436 60.295456 
L 140.088757 56.604583 
L 133.463154 57.834874 
L 126.837551 56.604583 
L 120.211948 57.834874 
L 113.586345 60.295456 
L 106.960742 61.525748 
L 100.335139 61.525748 
L 93.709536 61.525748 
L 87.083933 62.756039 
L 80.45833 61.525748 
L 73.832727 61.525748 
z
" clip-path="url(#p5839fc8d50)" style="fill: #7f7f7f"/>
   </g>
   <g id="PolyCollection_19">
    <path d="M 73.832727 61.525748 
L 73.832727 61.525748 
L 80.45833 61.525748 
L 87.083933 62.756039 
L 93.709536 61.525748 
L 100.335139 61.525748 
L 106.960742 61.525748 
L 113.586345 60.295456 
L 120.211948 57.834874 
L 126.837551 56.604583 
L 133.463154 57.834874 
L 140.088757 56.604583 
L 146.71436 60.295456 
L 153.339963 63.98633 
L 159.965566 63.98633 
L 166.591169 57.834874 
L 173.216772 57.834874 
L 179.842375 61.525748 
L 186.467978 61.525748 
L 193.093581 60.295456 
L 199.719184 54.144 
L 206.344787 54.144 
L 212.97039 56.604583 
L 219.595993 56.604583 
L 226.221596 61.525748 
L 232.847199 76.289243 
L 239.472801 91.052738 
L 246.098404 111.967689 
L 252.724007 177.173126 
L 259.34961 182.094291 
L 265.975213 179.633709 
L 272.600816 200.54866 
L 279.226419 182.094291 
L 285.852022 120.579728 
L 292.477625 166.100505 
L 299.103228 187.015456 
L 305.728831 173.482252 
L 312.354434 200.54866 
L 318.980037 238.687689 
L 325.60564 161.17934 
L 332.231243 239.917981 
L 338.856846 231.305942 
L 345.482449 265.754097 
L 352.108052 215.312155 
L 358.733655 258.37235 
L 365.359258 231.305942 
L 371.984861 248.530019 
L 378.610464 253.451184 
L 385.236067 253.451184 
L 391.86167 265.754097 
L 398.487273 248.530019 
L 398.487273 234.996816 
L 398.487273 234.996816 
L 391.86167 250.990602 
L 385.236067 230.07565 
L 378.610464 236.227107 
L 371.984861 228.845359 
L 365.359258 219.003029 
L 358.733655 248.530019 
L 352.108052 203.009243 
L 345.482449 252.220893 
L 338.856846 217.772738 
L 332.231243 230.07565 
L 325.60564 150.106718 
L 318.980037 226.384777 
L 312.354434 188.245748 
L 305.728831 157.488466 
L 299.103228 173.482252 
L 292.477625 151.33701 
L 285.852022 103.35565 
L 279.226419 167.330796 
L 272.600816 185.785165 
L 265.975213 163.639922 
L 259.34961 171.02167 
L 252.724007 166.100505 
L 246.098404 99.664777 
L 239.472801 77.519534 
L 232.847199 65.216621 
L 226.221596 60.295456 
L 219.595993 56.604583 
L 212.97039 56.604583 
L 206.344787 54.144 
L 199.719184 54.144 
L 193.093581 60.295456 
L 186.467978 61.525748 
L 179.842375 61.525748 
L 173.216772 57.834874 
L 166.591169 57.834874 
L 159.965566 63.98633 
L 153.339963 63.98633 
L 146.71436 60.295456 
L 140.088757 56.604583 
L 133.463154 57.834874 
L 126.837551 56.604583 
L 120.211948 57.834874 
L 113.586345 60.295456 
L 106.960742 61.525748 
L 100.335139 61.525748 
L 93.709536 61.525748 
L 87.083933 62.756039 
L 80.45833 61.525748 
L 73.832727 61.525748 
z
" clip-path="url(#p5839fc8d50)" style="fill: #bcbd22"/>
   </g>
   <g id="PolyCollection_20">
    <path d="M 73.832727 61.525748 
L 73.832727 61.525748 
L 80.45833 61.525748 
L 87.083933 62.756039 
L 93.709536 61.525748 
L 100.335139 61.525748 
L 106.960742 61.525748 
L 113.586345 60.295456 
L 120.211948 57.834874 
L 126.837551 56.604583 
L 133.463154 57.834874 
L 140.088757 56.604583 
L 146.71436 60.295456 
L 153.339963 63.98633 
L 159.965566 63.98633 
L 166.591169 57.834874 
L 173.216772 57.834874 
L 179.842375 61.525748 
L 186.467978 61.525748 
L 193.093581 60.295456 
L 199.719184 54.144 
L 206.344787 54.144 
L 212.97039 56.604583 
L 219.595993 56.604583 
L 226.221596 60.295456 
L 232.847199 65.216621 
L 239.472801 77.519534 
L 246.098404 99.664777 
L 252.724007 166.100505 
L 259.34961 171.02167 
L 265.975213 163.639922 
L 272.600816 185.785165 
L 279.226419 167.330796 
L 285.852022 103.35565 
L 292.477625 151.33701 
L 299.103228 173.482252 
L 305.728831 157.488466 
L 312.354434 188.245748 
L 318.980037 226.384777 
L 325.60564 150.106718 
L 332.231243 230.07565 
L 338.856846 217.772738 
L 345.482449 252.220893 
L 352.108052 203.009243 
L 358.733655 248.530019 
L 365.359258 219.003029 
L 371.984861 228.845359 
L 378.610464 236.227107 
L 385.236067 230.07565 
L 391.86167 250.990602 
L 398.487273 234.996816 
L 398.487273 234.996816 
L 398.487273 234.996816 
L 391.86167 250.990602 
L 385.236067 230.07565 
L 378.610464 236.227107 
L 371.984861 228.845359 
L 365.359258 201.778951 
L 358.733655 228.845359 
L 352.108052 184.554874 
L 345.482449 244.839146 
L 338.856846 206.700117 
L 332.231243 217.772738 
L 325.60564 137.803806 
L 318.980037 214.081864 
L 312.354434 172.251961 
L 305.728831 142.724971 
L 299.103228 159.949049 
L 292.477625 137.803806 
L 285.852022 87.361864 
L 279.226419 155.027883 
L 272.600816 171.02167 
L 265.975213 151.33701 
L 259.34961 159.949049 
L 252.724007 155.027883 
L 246.098404 82.440699 
L 239.472801 70.137786 
L 232.847199 61.525748 
L 226.221596 60.295456 
L 219.595993 56.604583 
L 212.97039 56.604583 
L 206.344787 54.144 
L 199.719184 54.144 
L 193.093581 60.295456 
L 186.467978 61.525748 
L 179.842375 61.525748 
L 173.216772 57.834874 
L 166.591169 57.834874 
L 159.965566 63.98633 
L 153.339963 63.98633 
L 146.71436 60.295456 
L 140.088757 56.604583 
L 133.463154 57.834874 
L 126.837551 56.604583 
L 120.211948 57.834874 
L 113.586345 60.295456 
L 106.960742 61.525748 
L 100.335139 61.525748 
L 93.709536 61.525748 
L 87.083933 62.756039 
L 80.45833 61.525748 
L 73.832727 61.525748 
z
" clip-path="url(#p5839fc8d50)" style="fill: #17becf"/>
   </g>
   <g id="PolyCollection_21">
    <path d="M 73.832727 61.525748 
L 73.832727 61.525748 
L 80.45833 61.525748 
L 87.083933 62.756039 
L 93.709536 61.525748 
L 100.335139 61.525748 
L 106.960742 61.525748 
L 113.586345 60.295456 
L 120.211948 57.834874 
L 126.837551 56.604583 
L 133.463154 57.834874 
L 140.088757 56.604583 
L 146.71436 60.295456 
L 153.339963 63.98633 
L 159.965566 63.98633 
L 166.591169 57.834874 
L 173.216772 57.834874 
L 179.842375 61.525748 
L 186.467978 61.525748 
L 193.093581 60.295456 
L 199.719184 54.144 
L 206.344787 54.144 
L 212.97039 56.604583 
L 219.595993 56.604583 
L 226.221596 60.295456 
L 232.847199 61.525748 
L 239.472801 70.137786 
L 246.098404 82.440699 
L 252.724007 155.027883 
L 259.34961 159.949049 
L 265.975213 151.33701 
L 272.600816 171.02167 
L 279.226419 155.027883 
L 285.852022 87.361864 
L 292.477625 137.803806 
L 299.103228 159.949049 
L 305.728831 142.724971 
L 312.354434 172.251961 
L 318.980037 214.081864 
L 325.60564 137.803806 
L 332.231243 217.772738 
L 338.856846 206.700117 
L 345.482449 244.839146 
L 352.108052 184.554874 
L 358.733655 228.845359 
L 365.359258 201.778951 
L 371.984861 228.845359 
L 378.610464 236.227107 
L 385.236067 230.07565 
L 391.86167 250.990602 
L 398.487273 234.996816 
L 398.487273 234.996816 
L 398.487273 234.996816 
L 391.86167 250.990602 
L 385.236067 230.07565 
L 378.610464 236.227107 
L 371.984861 228.845359 
L 365.359258 184.554874 
L 358.733655 216.542447 
L 352.108052 169.791379 
L 345.482449 230.07565 
L 338.856846 194.397204 
L 332.231243 209.160699 
L 325.60564 129.191767 
L 318.980037 206.700117 
L 312.354434 153.797592 
L 305.728831 124.270602 
L 299.103228 141.49468 
L 292.477625 121.810019 
L 285.852022 76.289243 
L 279.226419 139.034097 
L 272.600816 158.718757 
L 265.975213 137.803806 
L 259.34961 151.33701 
L 252.724007 145.185553 
L 246.098404 73.82866 
L 239.472801 60.295456 
L 232.847199 59.065165 
L 226.221596 60.295456 
L 219.595993 56.604583 
L 212.97039 56.604583 
L 206.344787 54.144 
L 199.719184 54.144 
L 193.093581 60.295456 
L 186.467978 61.525748 
L 179.842375 61.525748 
L 173.216772 57.834874 
L 166.591169 57.834874 
L 159.965566 63.98633 
L 153.339963 63.98633 
L 146.71436 60.295456 
L 140.088757 56.604583 
L 133.463154 57.834874 
L 126.837551 56.604583 
L 120.211948 57.834874 
L 113.586345 60.295456 
L 106.960742 61.525748 
L 100.335139 61.525748 
L 93.709536 61.525748 
L 87.083933 62.756039 
L 80.45833 61.525748 
L 73.832727 61.525748 
z
" clip-path="url(#p5839fc8d50)" style="fill: #1f77b4"/>
   </g>
   <g id="PolyCollection_22">
    <path d="M 73.832727 61.525748 
L 73.832727 61.525748 
L 80.45833 61.525748 
L 87.083933 62.756039 
L 93.709536 61.525748 
L 100.335139 61.525748 
L 106.960742 61.525748 
L 113.586345 60.295456 
L 120.211948 57.834874 
L 126.837551 56.604583 
L 133.463154 57.834874 
L 140.088757 56.604583 
L 146.71436 60.295456 
L 153.339963 63.98633 
L 159.965566 63.98633 
L 166.591169 57.834874 
L 173.216772 57.834874 
L 179.842375 61.525748 
L 186.467978 61.525748 
L 193.093581 60.295456 
L 199.719184 54.144 
L 206.344787 54.144 
L 212.97039 56.604583 
L 219.595993 56.604583 
L 226.221596 60.295456 
L 232.847199 59.065165 
L 239.472801 60.295456 
L 246.098404 73.82866 
L 252.724007 145.185553 
L 259.34961 151.33701 
L 265.975213 137.803806 
L 272.600816 158.718757 
L 279.226419 139.034097 
L 285.852022 76.289243 
L 292.477625 121.810019 
L 299.103228 141.49468 
L 305.728831 124.270602 
L 312.354434 153.797592 
L 318.980037 206.700117 
L 325.60564 129.191767 
L 332.231243 209.160699 
L 338.856846 194.397204 
L 345.482449 230.07565 
L 352.108052 169.791379 
L 358.733655 216.542447 
L 365.359258 184.554874 
L 371.984861 228.845359 
L 378.610464 236.227107 
L 385.236067 230.07565 
L 391.86167 250.990602 
L 398.487273 234.996816 
L 398.487273 148.876427 
L 398.487273 148.876427 
L 391.86167 219.003029 
L 385.236067 190.70633 
L 378.610464 193.166913 
L 371.984861 194.397204 
L 365.359258 123.040311 
L 358.733655 196.857786 
L 352.108052 134.112932 
L 345.482449 168.561087 
L 338.856846 151.33701 
L 332.231243 180.864 
L 325.60564 104.585942 
L 318.980037 177.173126 
L 312.354434 113.197981 
L 305.728831 109.507107 
L 299.103228 87.361864 
L 292.477625 76.289243 
L 285.852022 67.677204 
L 279.226419 65.216621 
L 272.600816 135.343223 
L 265.975213 118.119146 
L 259.34961 126.731184 
L 252.724007 100.895068 
L 246.098404 63.98633 
L 239.472801 60.295456 
L 232.847199 59.065165 
L 226.221596 60.295456 
L 219.595993 56.604583 
L 212.97039 56.604583 
L 206.344787 54.144 
L 199.719184 54.144 
L 193.093581 60.295456 
L 186.467978 61.525748 
L 179.842375 61.525748 
L 173.216772 57.834874 
L 166.591169 57.834874 
L 159.965566 63.98633 
L 153.339963 63.98633 
L 146.71436 60.295456 
L 140.088757 56.604583 
L 133.463154 57.834874 
L 126.837551 56.604583 
L 120.211948 57.834874 
L 113.586345 60.295456 
L 106.960742 61.525748 
L 100.335139 61.525748 
L 93.709536 61.525748 
L 87.083933 62.756039 
L 80.45833 61.525748 
L 73.832727 61.525748 
z
" clip-path="url(#p5839fc8d50)" style="fill: #ff7f0e"/>
   </g>
   <g id="PolyCollection_23">
    <path d="M 73.832727 61.525748 
L 73.832727 61.525748 
L 80.45833 61.525748 
L 87.083933 62.756039 
L 93.709536 61.525748 
L 100.335139 61.525748 
L 106.960742 61.525748 
L 113.586345 60.295456 
L 120.211948 57.834874 
L 126.837551 56.604583 
L 133.463154 57.834874 
L 140.088757 56.604583 
L 146.71436 60.295456 
L 153.339963 63.98633 
L 159.965566 63.98633 
L 166.591169 57.834874 
L 173.216772 57.834874 
L 179.842375 61.525748 
L 186.467978 61.525748 
L 193.093581 60.295456 
L 199.719184 54.144 
L 206.344787 54.144 
L 212.97039 56.604583 
L 219.595993 56.604583 
L 226.221596 60.295456 
L 232.847199 59.065165 
L 239.472801 60.295456 
L 246.098404 63.98633 
L 252.724007 100.895068 
L 259.34961 126.731184 
L 265.975213 118.119146 
L 272.600816 135.343223 
L 279.226419 65.216621 
L 285.852022 67.677204 
L 292.477625 76.289243 
L 299.103228 87.361864 
L 305.728831 109.507107 
L 312.354434 113.197981 
L 318.980037 177.173126 
L 325.60564 104.585942 
L 332.231243 180.864 
L 338.856846 151.33701 
L 345.482449 168.561087 
L 352.108052 134.112932 
L 358.733655 196.857786 
L 365.359258 123.040311 
L 371.984861 194.397204 
L 378.610464 193.166913 
L 385.236067 190.70633 
L 391.86167 219.003029 
L 398.487273 148.876427 
L 398.487273 136.573515 
L 398.487273 136.573515 
L 391.86167 139.034097 
L 385.236067 148.876427 
L 378.610464 151.33701 
L 371.984861 140.264388 
L 365.359258 109.507107 
L 358.733655 103.35565 
L 352.108052 124.270602 
L 345.482449 98.434485 
L 338.856846 121.810019 
L 332.231243 104.585942 
L 325.60564 100.895068 
L 318.980037 97.204194 
L 312.354434 82.440699 
L 305.728831 63.98633 
L 299.103228 65.216621 
L 292.477625 60.295456 
L 285.852022 60.295456 
L 279.226419 61.525748 
L 272.600816 65.216621 
L 265.975213 63.98633 
L 259.34961 65.216621 
L 252.724007 59.065165 
L 246.098404 59.065165 
L 239.472801 60.295456 
L 232.847199 59.065165 
L 226.221596 60.295456 
L 219.595993 56.604583 
L 212.97039 56.604583 
L 206.344787 54.144 
L 199.719184 54.144 
L 193.093581 60.295456 
L 186.467978 61.525748 
L 179.842375 61.525748 
L 173.216772 57.834874 
L 166.591169 57.834874 
L 159.965566 63.98633 
L 153.339963 63.98633 
L 146.71436 60.295456 
L 140.088757 56.604583 
L 133.463154 57.834874 
L 126.837551 56.604583 
L 120.211948 57.834874 
L 113.586345 60.295456 
L 106.960742 61.525748 
L 100.335139 61.525748 
L 93.709536 61.525748 
L 87.083933 62.756039 
L 80.45833 61.525748 
L 73.832727 61.525748 
z
" clip-path="url(#p5839fc8d50)" style="fill: #2ca02c"/>
   </g>
   <g id="PolyCollection_24">
    <path d="M 73.832727 61.525748 
L 73.832727 61.525748 
L 80.45833 61.525748 
L 87.083933 62.756039 
L 93.709536 61.525748 
L 100.335139 61.525748 
L 106.960742 61.525748 
L 113.586345 60.295456 
L 120.211948 57.834874 
L 126.837551 56.604583 
L 133.463154 57.834874 
L 140.088757 56.604583 
L 146.71436 60.295456 
L 153.339963 63.98633 
L 159.965566 63.98633 
L 166.591169 57.834874 
L 173.216772 57.834874 
L 179.842375 61.525748 
L 186.467978 61.525748 
L 193.093581 60.295456 
L 199.719184 54.144 
L 206.344787 54.144 
L 212.97039 56.604583 
L 219.595993 56.604583 
L 226.221596 60.295456 
L 232.847199 59.065165 
L 239.472801 60.295456 
L 246.098404 59.065165 
L 252.724007 59.065165 
L 259.34961 65.216621 
L 265.975213 63.98633 
L 272.600816 65.216621 
L 279.226419 61.525748 
L 285.852022 60.295456 
L 292.477625 60.295456 
L 299.103228 65.216621 
L 305.728831 63.98633 
L 312.354434 82.440699 
L 318.980037 97.204194 
L 325.60564 100.895068 
L 332.231243 104.585942 
L 338.856846 121.810019 
L 345.482449 98.434485 
L 352.108052 124.270602 
L 358.733655 103.35565 
L 365.359258 109.507107 
L 371.984861 140.264388 
L 378.610464 151.33701 
L 385.236067 148.876427 
L 391.86167 139.034097 
L 398.487273 136.573515 
L 398.487273 120.579728 
L 398.487273 120.579728 
L 391.86167 120.579728 
L 385.236067 131.65235 
L 378.610464 129.191767 
L 371.984861 113.197981 
L 365.359258 91.052738 
L 358.733655 81.210408 
L 352.108052 102.125359 
L 345.482449 87.361864 
L 338.856846 104.585942 
L 332.231243 83.67099 
L 325.60564 83.67099 
L 318.980037 79.980117 
L 312.354434 65.216621 
L 305.728831 62.756039 
L 299.103228 65.216621 
L 292.477625 60.295456 
L 285.852022 60.295456 
L 279.226419 61.525748 
L 272.600816 65.216621 
L 265.975213 63.98633 
L 259.34961 65.216621 
L 252.724007 59.065165 
L 246.098404 59.065165 
L 239.472801 60.295456 
L 232.847199 59.065165 
L 226.221596 60.295456 
L 219.595993 56.604583 
L 212.97039 56.604583 
L 206.344787 54.144 
L 199.719184 54.144 
L 193.093581 60.295456 
L 186.467978 61.525748 
L 179.842375 61.525748 
L 173.216772 57.834874 
L 166.591169 57.834874 
L 159.965566 63.98633 
L 153.339963 63.98633 
L 146.71436 60.295456 
L 140.088757 56.604583 
L 133.463154 57.834874 
L 126.837551 56.604583 
L 120.211948 57.834874 
L 113.586345 60.295456 
L 106.960742 61.525748 
L 100.335139 61.525748 
L 93.709536 61.525748 
L 87.083933 62.756039 
L 80.45833 61.525748 
L 73.832727 61.525748 
z
" clip-path="url(#p5839fc8d50)" style="fill: #d62728"/>
   </g>
   <g id="PolyCollection_25">
    <path d="M 73.832727 61.525748 
L 73.832727 61.525748 
L 80.45833 61.525748 
L 87.083933 62.756039 
L 93.709536 61.525748 
L 100.335139 61.525748 
L 106.960742 61.525748 
L 113.586345 60.295456 
L 120.211948 57.834874 
L 126.837551 56.604583 
L 133.463154 57.834874 
L 140.088757 56.604583 
L 146.71436 60.295456 
L 153.339963 63.98633 
L 159.965566 63.98633 
L 166.591169 57.834874 
L 173.216772 57.834874 
L 179.842375 61.525748 
L 186.467978 61.525748 
L 193.093581 60.295456 
L 199.719184 54.144 
L 206.344787 54.144 
L 212.97039 56.604583 
L 219.595993 56.604583 
L 226.221596 60.295456 
L 232.847199 59.065165 
L 239.472801 60.295456 
L 246.098404 59.065165 
L 252.724007 59.065165 
L 259.34961 65.216621 
L 265.975213 63.98633 
L 272.600816 65.216621 
L 279.226419 61.525748 
L 285.852022 60.295456 
L 292.477625 60.295456 
L 299.103228 65.216621 
L 305.728831 62.756039 
L 312.354434 65.216621 
L 318.980037 79.980117 
L 325.60564 83.67099 
L 332.231243 83.67099 
L 338.856846 104.585942 
L 345.482449 87.361864 
L 352.108052 102.125359 
L 358.733655 81.210408 
L 365.359258 91.052738 
L 371.984861 113.197981 
L 378.610464 129.191767 
L 385.236067 131.65235 
L 391.86167 120.579728 
L 398.487273 120.579728 
L 398.487273 105.816233 
L 398.487273 105.816233 
L 391.86167 107.046524 
L 385.236067 115.658563 
L 378.610464 113.197981 
L 371.984861 94.743612 
L 365.359258 82.440699 
L 358.733655 76.289243 
L 352.108052 84.901282 
L 345.482449 79.980117 
L 338.856846 88.592155 
L 332.231243 79.980117 
L 325.60564 77.519534 
L 318.980037 71.368078 
L 312.354434 62.756039 
L 305.728831 62.756039 
L 299.103228 65.216621 
L 292.477625 60.295456 
L 285.852022 60.295456 
L 279.226419 61.525748 
L 272.600816 65.216621 
L 265.975213 63.98633 
L 259.34961 65.216621 
L 252.724007 59.065165 
L 246.098404 59.065165 
L 239.472801 60.295456 
L 232.847199 59.065165 
L 226.221596 60.295456 
L 219.595993 56.604583 
L 212.97039 56.604583 
L 206.344787 54.144 
L 199.719184 54.144 
L 193.093581 60.295456 
L 186.467978 61.525748 
L 179.842375 61.525748 
L 173.216772 57.834874 
L 166.591169 57.834874 
L 159.965566 63.98633 
L 153.339963 63.98633 
L 146.71436 60.295456 
L 140.088757 56.604583 
L 133.463154 57.834874 
L 126.837551 56.604583 
L 120.211948 57.834874 
L 113.586345 60.295456 
L 106.960742 61.525748 
L 100.335139 61.525748 
L 93.709536 61.525748 
L 87.083933 62.756039 
L 80.45833 61.525748 
L 73.832727 61.525748 
z
" clip-path="url(#p5839fc8d50)" style="fill: #9467bd"/>
   </g>
   <g id="PolyCollection_26">
    <path d="M 73.832727 61.525748 
L 73.832727 61.525748 
L 80.45833 61.525748 
L 87.083933 62.756039 
L 93.709536 61.525748 
L 100.335139 61.525748 
L 106.960742 61.525748 
L 113.586345 60.295456 
L 120.211948 57.834874 
L 126.837551 56.604583 
L 133.463154 57.834874 
L 140.088757 56.604583 
L 146.71436 60.295456 
L 153.339963 63.98633 
L 159.965566 63.98633 
L 166.591169 57.834874 
L 173.216772 57.834874 
L 179.842375 61.525748 
L 186.467978 61.525748 
L 193.093581 60.295456 
L 199.719184 54.144 
L 206.344787 54.144 
L 212.97039 56.604583 
L 219.595993 56.604583 
L 226.221596 60.295456 
L 232.847199 59.065165 
L 239.472801 60.295456 
L 246.098404 59.065165 
L 252.724007 59.065165 
L 259.34961 65.216621 
L 265.975213 63.98633 
L 272.600816 65.216621 
L 279.226419 61.525748 
L 285.852022 60.295456 
L 292.477625 60.295456 
L 299.103228 65.216621 
L 305.728831 62.756039 
L 312.354434 62.756039 
L 318.980037 71.368078 
L 325.60564 77.519534 
L 332.231243 79.980117 
L 338.856846 88.592155 
L 345.482449 79.980117 
L 352.108052 84.901282 
L 358.733655 76.289243 
L 365.359258 82.440699 
L 371.984861 94.743612 
L 378.610464 113.197981 
L 385.236067 115.658563 
L 391.86167 107.046524 
L 398.487273 105.816233 
L 398.487273 88.592155 
L 398.487273 88.592155 
L 391.86167 91.052738 
L 385.236067 99.664777 
L 378.610464 95.973903 
L 371.984861 73.82866 
L 365.359258 59.065165 
L 358.733655 56.604583 
L 352.108052 60.295456 
L 345.482449 61.525748 
L 338.856846 66.446913 
L 332.231243 65.216621 
L 325.60564 62.756039 
L 318.980037 62.756039 
L 312.354434 60.295456 
L 305.728831 62.756039 
L 299.103228 65.216621 
L 292.477625 60.295456 
L 285.852022 60.295456 
L 279.226419 61.525748 
L 272.600816 65.216621 
L 265.975213 63.98633 
L 259.34961 65.216621 
L 252.724007 59.065165 
L 246.098404 59.065165 
L 239.472801 60.295456 
L 232.847199 59.065165 
L 226.221596 60.295456 
L 219.595993 56.604583 
L 212.97039 56.604583 
L 206.344787 54.144 
L 199.719184 54.144 
L 193.093581 60.295456 
L 186.467978 61.525748 
L 179.842375 61.525748 
L 173.216772 57.834874 
L 166.591169 57.834874 
L 159.965566 63.98633 
L 153.339963 63.98633 
L 146.71436 60.295456 
L 140.088757 56.604583 
L 133.463154 57.834874 
L 126.837551 56.604583 
L 120.211948 57.834874 
L 113.586345 60.295456 
L 106.960742 61.525748 
L 100.335139 61.525748 
L 93.709536 61.525748 
L 87.083933 62.756039 
L 80.45833 61.525748 
L 73.832727 61.525748 
z
" clip-path="url(#p5839fc8d50)" style="fill: #8c564b"/>
   </g>
   <g id="PolyCollection_27">
    <path d="M 73.832727 61.525748 
L 73.832727 61.525748 
L 80.45833 61.525748 
L 87.083933 62.756039 
L 93.709536 61.525748 
L 100.335139 61.525748 
L 106.960742 61.525748 
L 113.586345 60.295456 
L 120.211948 57.834874 
L 126.837551 56.604583 
L 133.463154 57.834874 
L 140.088757 56.604583 
L 146.71436 60.295456 
L 153.339963 63.98633 
L 159.965566 63.98633 
L 166.591169 57.834874 
L 173.216772 57.834874 
L 179.842375 61.525748 
L 186.467978 61.525748 
L 193.093581 60.295456 
L 199.719184 54.144 
L 206.344787 54.144 
L 212.97039 56.604583 
L 219.595993 56.604583 
L 226.221596 60.295456 
L 232.847199 59.065165 
L 239.472801 60.295456 
L 246.098404 59.065165 
L 252.724007 59.065165 
L 259.34961 65.216621 
L 265.975213 63.98633 
L 272.600816 65.216621 
L 279.226419 61.525748 
L 285.852022 60.295456 
L 292.477625 60.295456 
L 299.103228 65.216621 
L 305.728831 62.756039 
L 312.354434 60.295456 
L 318.980037 62.756039 
L 325.60564 62.756039 
L 332.231243 65.216621 
L 338.856846 66.446913 
L 345.482449 61.525748 
L 352.108052 60.295456 
L 358.733655 56.604583 
L 365.359258 59.065165 
L 371.984861 73.82866 
L 378.610464 95.973903 
L 385.236067 99.664777 
L 391.86167 91.052738 
L 398.487273 88.592155 
L 398.487273 76.289243 
L 398.487273 76.289243 
L 391.86167 73.82866 
L 385.236067 78.749825 
L 378.610464 77.519534 
L 371.984861 68.907495 
L 365.359258 59.065165 
L 358.733655 56.604583 
L 352.108052 60.295456 
L 345.482449 61.525748 
L 338.856846 66.446913 
L 332.231243 65.216621 
L 325.60564 62.756039 
L 318.980037 62.756039 
L 312.354434 60.295456 
L 305.728831 62.756039 
L 299.103228 65.216621 
L 292.477625 60.295456 
L 285.852022 60.295456 
L 279.226419 61.525748 
L 272.600816 65.216621 
L 265.975213 63.98633 
L 259.34961 65.216621 
L 252.724007 59.065165 
L 246.098404 59.065165 
L 239.472801 60.295456 
L 232.847199 59.065165 
L 226.221596 60.295456 
L 219.595993 56.604583 
L 212.97039 56.604583 
L 206.344787 54.144 
L 199.719184 54.144 
L 193.093581 60.295456 
L 186.467978 61.525748 
L 179.842375 61.525748 
L 173.216772 57.834874 
L 166.591169 57.834874 
L 159.965566 63.98633 
L 153.339963 63.98633 
L 146.71436 60.295456 
L 140.088757 56.604583 
L 133.463154 57.834874 
L 126.837551 56.604583 
L 120.211948 57.834874 
L 113.586345 60.295456 
L 106.960742 61.525748 
L 100.335139 61.525748 
L 93.709536 61.525748 
L 87.083933 62.756039 
L 80.45833 61.525748 
L 73.832727 61.525748 
z
" clip-path="url(#p5839fc8d50)" style="fill: #e377c2"/>
   </g>
   <g id="PolyCollection_28">
    <path d="M 73.832727 61.525748 
L 73.832727 61.525748 
L 80.45833 61.525748 
L 87.083933 62.756039 
L 93.709536 61.525748 
L 100.335139 61.525748 
L 106.960742 61.525748 
L 113.586345 60.295456 
L 120.211948 57.834874 
L 126.837551 56.604583 
L 133.463154 57.834874 
L 140.088757 56.604583 
L 146.71436 60.295456 
L 153.339963 63.98633 
L 159.965566 63.98633 
L 166.591169 57.834874 
L 173.216772 57.834874 
L 179.842375 61.525748 
L 186.467978 61.525748 
L 193.093581 60.295456 
L 199.719184 54.144 
L 206.344787 54.144 
L 212.97039 56.604583 
L 219.595993 56.604583 
L 226.221596 60.295456 
L 232.847199 59.065165 
L 239.472801 60.295456 
L 246.098404 59.065165 
L 252.724007 59.065165 
L 259.34961 65.216621 
L 265.975213 63.98633 
L 272.600816 65.216621 
L 279.226419 61.525748 
L 285.852022 60.295456 
L 292.477625 60.295456 
L 299.103228 65.216621 
L 305.728831 62.756039 
L 312.354434 60.295456 
L 318.980037 62.756039 
L 325.60564 62.756039 
L 332.231243 65.216621 
L 338.856846 66.446913 
L 345.482449 61.525748 
L 352.108052 60.295456 
L 358.733655 56.604583 
L 365.359258 59.065165 
L 371.984861 68.907495 
L 378.610464 77.519534 
L 385.236067 78.749825 
L 391.86167 73.82866 
L 398.487273 76.289243 
L 398.487273 60.295456 
L 398.487273 60.295456 
L 391.86167 59.065165 
L 385.236067 59.065165 
L 378.610464 60.295456 
L 371.984861 61.525748 
L 365.359258 59.065165 
L 358.733655 56.604583 
L 352.108052 60.295456 
L 345.482449 61.525748 
L 338.856846 66.446913 
L 332.231243 65.216621 
L 325.60564 62.756039 
L 318.980037 62.756039 
L 312.354434 60.295456 
L 305.728831 62.756039 
L 299.103228 65.216621 
L 292.477625 60.295456 
L 285.852022 60.295456 
L 279.226419 61.525748 
L 272.600816 65.216621 
L 265.975213 63.98633 
L 259.34961 65.216621 
L 252.724007 59.065165 
L 246.098404 59.065165 
L 239.472801 60.295456 
L 232.847199 59.065165 
L 226.221596 60.295456 
L 219.595993 56.604583 
L 212.97039 56.604583 
L 206.344787 54.144 
L 199.719184 54.144 
L 193.093581 60.295456 
L 186.467978 61.525748 
L 179.842375 61.525748 
L 173.216772 57.834874 
L 166.591169 57.834874 
L 159.965566 63.98633 
L 153.339963 63.98633 
L 146.71436 60.295456 
L 140.088757 56.604583 
L 133.463154 57.834874 
L 126.837551 56.604583 
L 120.211948 57.834874 
L 113.586345 60.295456 
L 106.960742 61.525748 
L 100.335139 61.525748 
L 93.709536 61.525748 
L 87.083933 62.756039 
L 80.45833 61.525748 
L 73.832727 61.525748 
z
" clip-path="url(#p5839fc8d50)" style="fill: #7f7f7f"/>
   </g>
   <g id="matplotlib.axis_1">
    <g id="xtick_1">
     <g id="line2d_1">
      <defs>
       <path id="m022ba59ac1" d="M 0 0 
L 0 3.5 
" style="stroke: #000000; stroke-width: 0.8"/>
      </defs>
      <g>
       <use xlink:href="#m022ba59ac1" x="73.832727" y="307.584" style="stroke: #000000; stroke-width: 0.8"/>
      </g>
     </g>
     <g id="text_1">
      <!-- 0 -->
      <g transform="translate(70.651477 322.182437) scale(0.1 -0.1)">
       <defs>
        <path id="DejaVuSans-30" d="M 2034 4250 
Q 1547 4250 1301 3770 
Q 1056 3291 1056 2328 
Q 1056 1369 1301 889 
Q 1547 409 2034 409 
Q 2525 409 2770 889 
Q 3016 1369 3016 2328 
Q 3016 3291 2770 3770 
Q 2525 4250 2034 4250 
z
M 2034 4750 
Q 2819 4750 3233 4129 
Q 3647 3509 3647 2328 
Q 3647 1150 3233 529 
Q 2819 -91 2034 -91 
Q 1250 -91 836 529 
Q 422 1150 422 2328 
Q 422 3509 836 4129 
Q 1250 4750 2034 4750 
z
" transform="scale(0.015625)"/>
       </defs>
       <use xlink:href="#DejaVuSans-30"/>
      </g>
     </g>
    </g>
    <g id="xtick_2">
     <g id="line2d_2">
      <g>
       <use xlink:href="#m022ba59ac1" x="140.088757" y="307.584" style="stroke: #000000; stroke-width: 0.8"/>
      </g>
     </g>
     <g id="text_2">
      <!-- 10 -->
      <g transform="translate(133.726257 322.182437) scale(0.1 -0.1)">
       <defs>
        <path id="DejaVuSans-31" d="M 794 531 
L 1825 531 
L 1825 4091 
L 703 3866 
L 703 4441 
L 1819 4666 
L 2450 4666 
L 2450 531 
L 3481 531 
L 3481 0 
L 794 0 
L 794 531 
z
" transform="scale(0.015625)"/>
       </defs>
       <use xlink:href="#DejaVuSans-31"/>
       <use xlink:href="#DejaVuSans-30" x="63.623047"/>
      </g>
     </g>
    </g>
    <g id="xtick_3">
     <g id="line2d_3">
      <g>
       <use xlink:href="#m022ba59ac1" x="206.344787" y="307.584" style="stroke: #000000; stroke-width: 0.8"/>
      </g>
     </g>
     <g id="text_3">
      <!-- 20 -->
      <g transform="translate(199.982287 322.182437) scale(0.1 -0.1)">
       <defs>
        <path id="DejaVuSans-32" d="M 1228 531 
L 3431 531 
L 3431 0 
L 469 0 
L 469 531 
Q 828 903 1448 1529 
Q 2069 2156 2228 2338 
Q 2531 2678 2651 2914 
Q 2772 3150 2772 3378 
Q 2772 3750 2511 3984 
Q 2250 4219 1831 4219 
Q 1534 4219 1204 4116 
Q 875 4013 500 3803 
L 500 4441 
Q 881 4594 1212 4672 
Q 1544 4750 1819 4750 
Q 2544 4750 2975 4387 
Q 3406 4025 3406 3419 
Q 3406 3131 3298 2873 
Q 3191 2616 2906 2266 
Q 2828 2175 2409 1742 
Q 1991 1309 1228 531 
z
" transform="scale(0.015625)"/>
       </defs>
       <use xlink:href="#DejaVuSans-32"/>
       <use xlink:href="#DejaVuSans-30" x="63.623047"/>
      </g>
     </g>
    </g>
    <g id="xtick_4">
     <g id="line2d_4">
      <g>
       <use xlink:href="#m022ba59ac1" x="272.600816" y="307.584" style="stroke: #000000; stroke-width: 0.8"/>
      </g>
     </g>
     <g id="text_4">
      <!-- 30 -->
      <g transform="translate(266.238316 322.182437) scale(0.1 -0.1)">
       <defs>
        <path id="DejaVuSans-33" d="M 2597 2516 
Q 3050 2419 3304 2112 
Q 3559 1806 3559 1356 
Q 3559 666 3084 287 
Q 2609 -91 1734 -91 
Q 1441 -91 1130 -33 
Q 819 25 488 141 
L 488 750 
Q 750 597 1062 519 
Q 1375 441 1716 441 
Q 2309 441 2620 675 
Q 2931 909 2931 1356 
Q 2931 1769 2642 2001 
Q 2353 2234 1838 2234 
L 1294 2234 
L 1294 2753 
L 1863 2753 
Q 2328 2753 2575 2939 
Q 2822 3125 2822 3475 
Q 2822 3834 2567 4026 
Q 2313 4219 1838 4219 
Q 1578 4219 1281 4162 
Q 984 4106 628 3988 
L 628 4550 
Q 988 4650 1302 4700 
Q 1616 4750 1894 4750 
Q 2613 4750 3031 4423 
Q 3450 4097 3450 3541 
Q 3450 3153 3228 2886 
Q 3006 2619 2597 2516 
z
" transform="scale(0.015625)"/>
       </defs>
       <use xlink:href="#DejaVuSans-33"/>
       <use xlink:href="#DejaVuSans-30" x="63.623047"/>
      </g>
     </g>
    </g>
    <g id="xtick_5">
     <g id="line2d_5">
      <g>
       <use xlink:href="#m022ba59ac1" x="338.856846" y="307.584" style="stroke: #000000; stroke-width: 0.8"/>
      </g>
     </g>
     <g id="text_5">
      <!-- 40 -->
      <g transform="translate(332.494346 322.182437) scale(0.1 -0.1)">
       <defs>
        <path id="DejaVuSans-34" d="M 2419 4116 
L 825 1625 
L 2419 1625 
L 2419 4116 
z
M 2253 4666 
L 3047 4666 
L 3047 1625 
L 3713 1625 
L 3713 1100 
L 3047 1100 
L 3047 0 
L 2419 0 
L 2419 1100 
L 313 1100 
L 313 1709 
L 2253 4666 
z
" transform="scale(0.015625)"/>
       </defs>
       <use xlink:href="#DejaVuSans-34"/>
       <use xlink:href="#DejaVuSans-30" x="63.623047"/>
      </g>
     </g>
    </g>
    <g id="xtick_6">
     <g id="line2d_6">
      <g>
       <use xlink:href="#m022ba59ac1" x="405.112876" y="307.584" style="stroke: #000000; stroke-width: 0.8"/>
      </g>
     </g>
     <g id="text_6">
      <!-- 50 -->
      <g transform="translate(398.750376 322.182437) scale(0.1 -0.1)">
       <defs>
        <path id="DejaVuSans-35" d="M 691 4666 
L 3169 4666 
L 3169 4134 
L 1269 4134 
L 1269 2991 
Q 1406 3038 1543 3061 
Q 1681 3084 1819 3084 
Q 2600 3084 3056 2656 
Q 3513 2228 3513 1497 
Q 3513 744 3044 326 
Q 2575 -91 1722 -91 
Q 1428 -91 1123 -41 
Q 819 9 494 109 
L 494 744 
Q 775 591 1075 516 
Q 1375 441 1709 441 
Q 2250 441 2565 725 
Q 2881 1009 2881 1497 
Q 2881 1984 2565 2268 
Q 2250 2553 1709 2553 
Q 1456 2553 1204 2497 
Q 953 2441 691 2322 
L 691 4666 
z
" transform="scale(0.015625)"/>
       </defs>
       <use xlink:href="#DejaVuSans-35"/>
       <use xlink:href="#DejaVuSans-30" x="63.623047"/>
      </g>
     </g>
    </g>
    <g id="text_7">
     <!-- Generations -->
     <g transform="translate(205.662344 335.860562) scale(0.1 -0.1)">
      <defs>
       <path id="DejaVuSans-47" d="M 3809 666 
L 3809 1919 
L 2778 1919 
L 2778 2438 
L 4434 2438 
L 4434 434 
Q 4069 175 3628 42 
Q 3188 -91 2688 -91 
Q 1594 -91 976 548 
Q 359 1188 359 2328 
Q 359 3472 976 4111 
Q 1594 4750 2688 4750 
Q 3144 4750 3555 4637 
Q 3966 4525 4313 4306 
L 4313 3634 
Q 3963 3931 3569 4081 
Q 3175 4231 2741 4231 
Q 1884 4231 1454 3753 
Q 1025 3275 1025 2328 
Q 1025 1384 1454 906 
Q 1884 428 2741 428 
Q 3075 428 3337 486 
Q 3600 544 3809 666 
z
" transform="scale(0.015625)"/>
       <path id="DejaVuSans-65" d="M 3597 1894 
L 3597 1613 
L 953 1613 
Q 991 1019 1311 708 
Q 1631 397 2203 397 
Q 2534 397 2845 478 
Q 3156 559 3463 722 
L 3463 178 
Q 3153 47 2828 -22 
Q 2503 -91 2169 -91 
Q 1331 -91 842 396 
Q 353 884 353 1716 
Q 353 2575 817 3079 
Q 1281 3584 2069 3584 
Q 2775 3584 3186 3129 
Q 3597 2675 3597 1894 
z
M 3022 2063 
Q 3016 2534 2758 2815 
Q 2500 3097 2075 3097 
Q 1594 3097 1305 2825 
Q 1016 2553 972 2059 
L 3022 2063 
z
" transform="scale(0.015625)"/>
       <path id="DejaVuSans-6e" d="M 3513 2113 
L 3513 0 
L 2938 0 
L 2938 2094 
Q 2938 2591 2744 2837 
Q 2550 3084 2163 3084 
Q 1697 3084 1428 2787 
Q 1159 2491 1159 1978 
L 1159 0 
L 581 0 
L 581 3500 
L 1159 3500 
L 1159 2956 
Q 1366 3272 1645 3428 
Q 1925 3584 2291 3584 
Q 2894 3584 3203 3211 
Q 3513 2838 3513 2113 
z
" transform="scale(0.015625)"/>
       <path id="DejaVuSans-72" d="M 2631 2963 
Q 2534 3019 2420 3045 
Q 2306 3072 2169 3072 
Q 1681 3072 1420 2755 
Q 1159 2438 1159 1844 
L 1159 0 
L 581 0 
L 581 3500 
L 1159 3500 
L 1159 2956 
Q 1341 3275 1631 3429 
Q 1922 3584 2338 3584 
Q 2397 3584 2469 3576 
Q 2541 3569 2628 3553 
L 2631 2963 
z
" transform="scale(0.015625)"/>
       <path id="DejaVuSans-61" d="M 2194 1759 
Q 1497 1759 1228 1600 
Q 959 1441 959 1056 
Q 959 750 1161 570 
Q 1363 391 1709 391 
Q 2188 391 2477 730 
Q 2766 1069 2766 1631 
L 2766 1759 
L 2194 1759 
z
M 3341 1997 
L 3341 0 
L 2766 0 
L 2766 531 
Q 2569 213 2275 61 
Q 1981 -91 1556 -91 
Q 1019 -91 701 211 
Q 384 513 384 1019 
Q 384 1609 779 1909 
Q 1175 2209 1959 2209 
L 2766 2209 
L 2766 2266 
Q 2766 2663 2505 2880 
Q 2244 3097 1772 3097 
Q 1472 3097 1187 3025 
Q 903 2953 641 2809 
L 641 3341 
Q 956 3463 1253 3523 
Q 1550 3584 1831 3584 
Q 2591 3584 2966 3190 
Q 3341 2797 3341 1997 
z
" transform="scale(0.015625)"/>
       <path id="DejaVuSans-74" d="M 1172 4494 
L 1172 3500 
L 2356 3500 
L 2356 3053 
L 1172 3053 
L 1172 1153 
Q 1172 725 1289 603 
Q 1406 481 1766 481 
L 2356 481 
L 2356 0 
L 1766 0 
Q 1100 0 847 248 
Q 594 497 594 1153 
L 594 3053 
L 172 3053 
L 172 3500 
L 594 3500 
L 594 4494 
L 1172 4494 
z
" transform="scale(0.015625)"/>
       <path id="DejaVuSans-69" d="M 603 3500 
L 1178 3500 
L 1178 0 
L 603 0 
L 603 3500 
z
M 603 4863 
L 1178 4863 
L 1178 4134 
L 603 4134 
L 603 4863 
z
" transform="scale(0.015625)"/>
       <path id="DejaVuSans-6f" d="M 1959 3097 
Q 1497 3097 1228 2736 
Q 959 2375 959 1747 
Q 959 1119 1226 758 
Q 1494 397 1959 397 
Q 2419 397 2687 759 
Q 2956 1122 2956 1747 
Q 2956 2369 2687 2733 
Q 2419 3097 1959 3097 
z
M 1959 3584 
Q 2709 3584 3137 3096 
Q 3566 2609 3566 1747 
Q 3566 888 3137 398 
Q 2709 -91 1959 -91 
Q 1206 -91 779 398 
Q 353 888 353 1747 
Q 353 2609 779 3096 
Q 1206 3584 1959 3584 
z
" transform="scale(0.015625)"/>
       <path id="DejaVuSans-73" d="M 2834 3397 
L 2834 2853 
Q 2591 2978 2328 3040 
Q 2066 3103 1784 3103 
Q 1356 3103 1142 2972 
Q 928 2841 928 2578 
Q 928 2378 1081 2264 
Q 1234 2150 1697 2047 
L 1894 2003 
Q 2506 1872 2764 1633 
Q 3022 1394 3022 966 
Q 3022 478 2636 193 
Q 2250 -91 1575 -91 
Q 1294 -91 989 -36 
Q 684 19 347 128 
L 347 722 
Q 666 556 975 473 
Q 1284 391 1588 391 
Q 1994 391 2212 530 
Q 2431 669 2431 922 
Q 2431 1156 2273 1281 
Q 2116 1406 1581 1522 
L 1381 1569 
Q 847 1681 609 1914 
Q 372 2147 372 2553 
Q 372 3047 722 3315 
Q 1072 3584 1716 3584 
Q 2034 3584 2315 3537 
Q 2597 3491 2834 3397 
z
" transform="scale(0.015625)"/>
      </defs>
      <use xlink:href="#DejaVuSans-47"/>
      <use xlink:href="#DejaVuSans-65" x="77.490234"/>
      <use xlink:href="#DejaVuSans-6e" x="139.013672"/>
      <use xlink:href="#DejaVuSans-65" x="202.392578"/>
      <use xlink:href="#DejaVuSans-72" x="263.916016"/>
      <use xlink:href="#DejaVuSans-61" x="305.029297"/>
      <use xlink:href="#DejaVuSans-74" x="366.308594"/>
      <use xlink:href="#DejaVuSans-69" x="405.517578"/>
      <use xlink:href="#DejaVuSans-6f" x="433.300781"/>
      <use xlink:href="#DejaVuSans-6e" x="494.482422"/>
      <use xlink:href="#DejaVuSans-73" x="557.861328"/>
     </g>
    </g>
   </g>
   <g id="matplotlib.axis_2">
    <g id="ytick_1">
     <g id="line2d_7">
      <defs>
       <path id="mdfcbaa765c" d="M 0 0 
L -3.5 0 
" style="stroke: #000000; stroke-width: 0.8"/>
      </defs>
      <g>
       <use xlink:href="#mdfcbaa765c" x="57.6" y="307.584" style="stroke: #000000; stroke-width: 0.8"/>
      </g>
     </g>
     <g id="text_8">
      <!-- 0 -->
      <g transform="translate(44.2375 311.383219) scale(0.1 -0.1)">
       <use xlink:href="#DejaVuSans-30"/>
      </g>
     </g>
    </g>
    <g id="ytick_2">
     <g id="line2d_8">
      <g>
       <use xlink:href="#mdfcbaa765c" x="57.6" y="276.826718" style="stroke: #000000; stroke-width: 0.8"/>
      </g>
     </g>
     <g id="text_9">
      <!-- 25 -->
      <g transform="translate(37.875 280.625937) scale(0.1 -0.1)">
       <use xlink:href="#DejaVuSans-32"/>
       <use xlink:href="#DejaVuSans-35" x="63.623047"/>
      </g>
     </g>
    </g>
    <g id="ytick_3">
     <g id="line2d_9">
      <g>
       <use xlink:href="#mdfcbaa765c" x="57.6" y="246.069437" style="stroke: #000000; stroke-width: 0.8"/>
      </g>
     </g>
     <g id="text_10">
      <!-- 50 -->
      <g transform="translate(37.875 249.868656) scale(0.1 -0.1)">
       <use xlink:href="#DejaVuSans-35"/>
       <use xlink:href="#DejaVuSans-30" x="63.623047"/>
      </g>
     </g>
    </g>
    <g id="ytick_4">
     <g id="line2d_10">
      <g>
       <use xlink:href="#mdfcbaa765c" x="57.6" y="215.312155" style="stroke: #000000; stroke-width: 0.8"/>
      </g>
     </g>
     <g id="text_11">
      <!-- 75 -->
      <g transform="translate(37.875 219.111374) scale(0.1 -0.1)">
       <defs>
        <path id="DejaVuSans-37" d="M 525 4666 
L 3525 4666 
L 3525 4397 
L 1831 0 
L 1172 0 
L 2766 4134 
L 525 4134 
L 525 4666 
z
" transform="scale(0.015625)"/>
       </defs>
       <use xlink:href="#DejaVuSans-37"/>
       <use xlink:href="#DejaVuSans-35" x="63.623047"/>
      </g>
     </g>
    </g>
    <g id="ytick_5">
     <g id="line2d_11">
      <g>
       <use xlink:href="#mdfcbaa765c" x="57.6" y="184.554874" style="stroke: #000000; stroke-width: 0.8"/>
      </g>
     </g>
     <g id="text_12">
      <!-- 100 -->
      <g transform="translate(31.5125 188.354093) scale(0.1 -0.1)">
       <use xlink:href="#DejaVuSans-31"/>
       <use xlink:href="#DejaVuSans-30" x="63.623047"/>
       <use xlink:href="#DejaVuSans-30" x="127.246094"/>
      </g>
     </g>
    </g>
    <g id="ytick_6">
     <g id="line2d_12">
      <g>
       <use xlink:href="#mdfcbaa765c" x="57.6" y="153.797592" style="stroke: #000000; stroke-width: 0.8"/>
      </g>
     </g>
     <g id="text_13">
      <!-- 125 -->
      <g transform="translate(31.5125 157.596811) scale(0.1 -0.1)">
       <use xlink:href="#DejaVuSans-31"/>
       <use xlink:href="#DejaVuSans-32" x="63.623047"/>
       <use xlink:href="#DejaVuSans-35" x="127.246094"/>
      </g>
     </g>
    </g>
    <g id="ytick_7">
     <g id="line2d_13">
      <g>
       <use xlink:href="#mdfcbaa765c" x="57.6" y="123.040311" style="stroke: #000000; stroke-width: 0.8"/>
      </g>
     </g>
     <g id="text_14">
      <!-- 150 -->
      <g transform="translate(31.5125 126.839529) scale(0.1 -0.1)">
       <use xlink:href="#DejaVuSans-31"/>
       <use xlink:href="#DejaVuSans-35" x="63.623047"/>
       <use xlink:href="#DejaVuSans-30" x="127.246094"/>
      </g>
     </g>
    </g>
    <g id="ytick_8">
     <g id="line2d_14">
      <g>
       <use xlink:href="#mdfcbaa765c" x="57.6" y="92.283029" style="stroke: #000000; stroke-width: 0.8"/>
      </g>
     </g>
     <g id="text_15">
      <!-- 175 -->
      <g transform="translate(31.5125 96.082248) scale(0.1 -0.1)">
       <use xlink:href="#DejaVuSans-31"/>
       <use xlink:href="#DejaVuSans-37" x="63.623047"/>
       <use xlink:href="#DejaVuSans-35" x="127.246094"/>
      </g>
     </g>
    </g>
    <g id="ytick_9">
     <g id="line2d_15">
      <g>
       <use xlink:href="#mdfcbaa765c" x="57.6" y="61.525748" style="stroke: #000000; stroke-width: 0.8"/>
      </g>
     </g>
     <g id="text_16">
      <!-- 200 -->
      <g transform="translate(31.5125 65.324966) scale(0.1 -0.1)">
       <use xlink:href="#DejaVuSans-32"/>
       <use xlink:href="#DejaVuSans-30" x="63.623047"/>
       <use xlink:href="#DejaVuSans-30" x="127.246094"/>
      </g>
     </g>
    </g>
    <g id="text_17">
     <!-- Size per Species -->
     <g transform="translate(25.432812 215.520969) rotate(-90) scale(0.1 -0.1)">
      <defs>
       <path id="DejaVuSans-53" d="M 3425 4513 
L 3425 3897 
Q 3066 4069 2747 4153 
Q 2428 4238 2131 4238 
Q 1616 4238 1336 4038 
Q 1056 3838 1056 3469 
Q 1056 3159 1242 3001 
Q 1428 2844 1947 2747 
L 2328 2669 
Q 3034 2534 3370 2195 
Q 3706 1856 3706 1288 
Q 3706 609 3251 259 
Q 2797 -91 1919 -91 
Q 1588 -91 1214 -16 
Q 841 59 441 206 
L 441 856 
Q 825 641 1194 531 
Q 1563 422 1919 422 
Q 2459 422 2753 634 
Q 3047 847 3047 1241 
Q 3047 1584 2836 1778 
Q 2625 1972 2144 2069 
L 1759 2144 
Q 1053 2284 737 2584 
Q 422 2884 422 3419 
Q 422 4038 858 4394 
Q 1294 4750 2059 4750 
Q 2388 4750 2728 4690 
Q 3069 4631 3425 4513 
z
" transform="scale(0.015625)"/>
       <path id="DejaVuSans-7a" d="M 353 3500 
L 3084 3500 
L 3084 2975 
L 922 459 
L 3084 459 
L 3084 0 
L 275 0 
L 275 525 
L 2438 3041 
L 353 3041 
L 353 3500 
z
" transform="scale(0.015625)"/>
       <path id="DejaVuSans-20" transform="scale(0.015625)"/>
       <path id="DejaVuSans-70" d="M 1159 525 
L 1159 -1331 
L 581 -1331 
L 581 3500 
L 1159 3500 
L 1159 2969 
Q 1341 3281 1617 3432 
Q 1894 3584 2278 3584 
Q 2916 3584 3314 3078 
Q 3713 2572 3713 1747 
Q 3713 922 3314 415 
Q 2916 -91 2278 -91 
Q 1894 -91 1617 61 
Q 1341 213 1159 525 
z
M 3116 1747 
Q 3116 2381 2855 2742 
Q 2594 3103 2138 3103 
Q 1681 3103 1420 2742 
Q 1159 2381 1159 1747 
Q 1159 1113 1420 752 
Q 1681 391 2138 391 
Q 2594 391 2855 752 
Q 3116 1113 3116 1747 
z
" transform="scale(0.015625)"/>
       <path id="DejaVuSans-63" d="M 3122 3366 
L 3122 2828 
Q 2878 2963 2633 3030 
Q 2388 3097 2138 3097 
Q 1578 3097 1268 2742 
Q 959 2388 959 1747 
Q 959 1106 1268 751 
Q 1578 397 2138 397 
Q 2388 397 2633 464 
Q 2878 531 3122 666 
L 3122 134 
Q 2881 22 2623 -34 
Q 2366 -91 2075 -91 
Q 1284 -91 818 406 
Q 353 903 353 1747 
Q 353 2603 823 3093 
Q 1294 3584 2113 3584 
Q 2378 3584 2631 3529 
Q 2884 3475 3122 3366 
z
" transform="scale(0.015625)"/>
      </defs>
      <use xlink:href="#DejaVuSans-53"/>
      <use xlink:href="#DejaVuSans-69" x="63.476562"/>
      <use xlink:href="#DejaVuSans-7a" x="91.259766"/>
      <use xlink:href="#DejaVuSans-65" x="143.75"/>
      <use xlink:href="#DejaVuSans-20" x="205.273438"/>
      <use xlink:href="#DejaVuSans-70" x="237.060547"/>
      <use xlink:href="#DejaVuSans-65" x="300.537109"/>
      <use xlink:href="#DejaVuSans-72" x="362.060547"/>
      <use xlink:href="#DejaVuSans-20" x="403.173828"/>
      <use xlink:href="#DejaVuSans-53" x="434.960938"/>
      <use xlink:href="#DejaVuSans-70" x="498.4375"/>
      <use xlink:href="#DejaVuSans-65" x="561.914062"/>
      <use xlink:href="#DejaVuSans-63" x="623.4375"/>
      <use xlink:href="#DejaVuSans-69" x="678.417969"/>
      <use xlink:href="#DejaVuSans-65" x="706.201172"/>
      <use xlink:href="#DejaVuSans-73" x="767.724609"/>
     </g>
    </g>
   </g>
   <g id="patch_3">
    <path d="M 57.6 307.584 
L 57.6 41.472 
" style="fill: none; stroke: #000000; stroke-width: 0.8; stroke-linejoin: miter; stroke-linecap: square"/>
   </g>
   <g id="patch_4">
    <path d="M 414.72 307.584 
L 414.72 41.472 
" style="fill: none; stroke: #000000; stroke-width: 0.8; stroke-linejoin: miter; stroke-linecap: square"/>
   </g>
   <g id="patch_5">
    <path d="M 57.6 307.584 
L 414.72 307.584 
" style="fill: none; stroke: #000000; stroke-width: 0.8; stroke-linejoin: miter; stroke-linecap: square"/>
   </g>
   <g id="patch_6">
    <path d="M 57.6 41.472 
L 414.72 41.472 
" style="fill: none; stroke: #000000; stroke-width: 0.8; stroke-linejoin: miter; stroke-linecap: square"/>
   </g>
   <g id="text_18">
    <!-- Speciation -->
    <g transform="translate(204.714375 35.472) scale(0.12 -0.12)">
     <use xlink:href="#DejaVuSans-53"/>
     <use xlink:href="#DejaVuSans-70" x="63.476562"/>
     <use xlink:href="#DejaVuSans-65" x="126.953125"/>
     <use xlink:href="#DejaVuSans-63" x="188.476562"/>
     <use xlink:href="#DejaVuSans-69" x="243.457031"/>
     <use xlink:href="#DejaVuSans-61" x="271.240234"/>
     <use xlink:href="#DejaVuSans-74" x="332.519531"/>
     <use xlink:href="#DejaVuSans-69" x="371.728516"/>
     <use xlink:href="#DejaVuSans-6f" x="399.511719"/>
     <use xlink:href="#DejaVuSans-6e" x="460.693359"/>
    </g>
   </g>
  </g>
 </g>
 <defs>
  <clipPath id="p5839fc8d50">
   <rect x="57.6" y="41.472" width="357.12" height="266.112"/>
  </clipPath>
 </defs>
</svg>
