<?xml version="1.0" encoding="utf-8" standalone="no"?>
<!DOCTYPE svg PUBLIC "-//W3C//DTD SVG 1.1//EN"
  "http://www.w3.org/Graphics/SVG/1.1/DTD/svg11.dtd">
<svg xmlns:xlink="http://www.w3.org/1999/xlink" width="460.8pt" height="345.6pt" viewBox="0 0 460.8 345.6" xmlns="http://www.w3.org/2000/svg" version="1.1">
 <metadata>
  <rdf:RDF xmlns:dc="http://purl.org/dc/elements/1.1/" xmlns:cc="http://creativecommons.org/ns#" xmlns:rdf="http://www.w3.org/1999/02/22-rdf-syntax-ns#">
   <cc:Work>
    <dc:type rdf:resource="http://purl.org/dc/dcmitype/StillImage"/>
    <dc:date>2024-07-21T20:00:44.792712</dc:date>
    <dc:format>image/svg+xml</dc:format>
    <dc:creator>
     <cc:Agent>
      <dc:title>Matplotlib v3.9.1, https://matplotlib.org/</dc:title>
     </cc:Agent>
    </dc:creator>
   </cc:Work>
  </rdf:RDF>
 </metadata>
 <defs>
  <style type="text/css">*{stroke-linejoin: round; stroke-linecap: butt}</style>
 </defs>
 <g id="figure_1">
  <g id="patch_1">
   <path d="M 0 345.6 
L 460.8 345.6 
L 460.8 0 
L 0 0 
z
" style="fill: #ffffff"/>
  </g>
  <g id="axes_1">
   <g id="patch_2">
    <path d="M 57.6 307.584 
L 414.72 307.584 
L 414.72 41.472 
L 57.6 41.472 
z
" style="fill: #ffffff"/>
   </g>
   <g id="matplotlib.axis_1">
    <g id="xtick_1">
     <g id="line2d_1">
      <path d="M 73.832727 307.584 
L 73.832727 41.472 
" clip-path="url(#p3828ba550c)" style="fill: none; stroke: #b0b0b0; stroke-width: 0.8; stroke-linecap: square"/>
     </g>
     <g id="line2d_2">
      <defs>
       <path id="mc91e6e28b5" d="M 0 0 
L 0 3.5 
" style="stroke: #000000; stroke-width: 0.8"/>
      </defs>
      <g>
       <use xlink:href="#mc91e6e28b5" x="73.832727" y="307.584" style="stroke: #000000; stroke-width: 0.8"/>
      </g>
     </g>
     <g id="text_1">
      <!-- 0 -->
      <g transform="translate(70.651477 322.182437) scale(0.1 -0.1)">
       <defs>
        <path id="DejaVuSans-30" d="M 2034 4250 
Q 1547 4250 1301 3770 
Q 1056 3291 1056 2328 
Q 1056 1369 1301 889 
Q 1547 409 2034 409 
Q 2525 409 2770 889 
Q 3016 1369 3016 2328 
Q 3016 3291 2770 3770 
Q 2525 4250 2034 4250 
z
M 2034 4750 
Q 2819 4750 3233 4129 
Q 3647 3509 3647 2328 
Q 3647 1150 3233 529 
Q 2819 -91 2034 -91 
Q 1250 -91 836 529 
Q 422 1150 422 2328 
Q 422 3509 836 4129 
Q 1250 4750 2034 4750 
z
" transform="scale(0.015625)"/>
       </defs>
       <use xlink:href="#DejaVuSans-30"/>
      </g>
     </g>
    </g>
    <g id="xtick_2">
     <g id="line2d_3">
      <path d="M 128.122785 307.584 
L 128.122785 41.472 
" clip-path="url(#p3828ba550c)" style="fill: none; stroke: #b0b0b0; stroke-width: 0.8; stroke-linecap: square"/>
     </g>
     <g id="line2d_4">
      <g>
       <use xlink:href="#mc91e6e28b5" x="128.122785" y="307.584" style="stroke: #000000; stroke-width: 0.8"/>
      </g>
     </g>
     <g id="text_2">
      <!-- 50 -->
      <g transform="translate(121.760285 322.182437) scale(0.1 -0.1)">
       <defs>
        <path id="DejaVuSans-35" d="M 691 4666 
L 3169 4666 
L 3169 4134 
L 1269 4134 
L 1269 2991 
Q 1406 3038 1543 3061 
Q 1681 3084 1819 3084 
Q 2600 3084 3056 2656 
Q 3513 2228 3513 1497 
Q 3513 744 3044 326 
Q 2575 -91 1722 -91 
Q 1428 -91 1123 -41 
Q 819 9 494 109 
L 494 744 
Q 775 591 1075 516 
Q 1375 441 1709 441 
Q 2250 441 2565 725 
Q 2881 1009 2881 1497 
Q 2881 1984 2565 2268 
Q 2250 2553 1709 2553 
Q 1456 2553 1204 2497 
Q 953 2441 691 2322 
L 691 4666 
z
" transform="scale(0.015625)"/>
       </defs>
       <use xlink:href="#DejaVuSans-35"/>
       <use xlink:href="#DejaVuSans-30" x="63.623047"/>
      </g>
     </g>
    </g>
    <g id="xtick_3">
     <g id="line2d_5">
      <path d="M 182.412843 307.584 
L 182.412843 41.472 
" clip-path="url(#p3828ba550c)" style="fill: none; stroke: #b0b0b0; stroke-width: 0.8; stroke-linecap: square"/>
     </g>
     <g id="line2d_6">
      <g>
       <use xlink:href="#mc91e6e28b5" x="182.412843" y="307.584" style="stroke: #000000; stroke-width: 0.8"/>
      </g>
     </g>
     <g id="text_3">
      <!-- 100 -->
      <g transform="translate(172.869093 322.182437) scale(0.1 -0.1)">
       <defs>
        <path id="DejaVuSans-31" d="M 794 531 
L 1825 531 
L 1825 4091 
L 703 3866 
L 703 4441 
L 1819 4666 
L 2450 4666 
L 2450 531 
L 3481 531 
L 3481 0 
L 794 0 
L 794 531 
z
" transform="scale(0.015625)"/>
       </defs>
       <use xlink:href="#DejaVuSans-31"/>
       <use xlink:href="#DejaVuSans-30" x="63.623047"/>
       <use xlink:href="#DejaVuSans-30" x="127.246094"/>
      </g>
     </g>
    </g>
    <g id="xtick_4">
     <g id="line2d_7">
      <path d="M 236.702901 307.584 
L 236.702901 41.472 
" clip-path="url(#p3828ba550c)" style="fill: none; stroke: #b0b0b0; stroke-width: 0.8; stroke-linecap: square"/>
     </g>
     <g id="line2d_8">
      <g>
       <use xlink:href="#mc91e6e28b5" x="236.702901" y="307.584" style="stroke: #000000; stroke-width: 0.8"/>
      </g>
     </g>
     <g id="text_4">
      <!-- 150 -->
      <g transform="translate(227.159151 322.182437) scale(0.1 -0.1)">
       <use xlink:href="#DejaVuSans-31"/>
       <use xlink:href="#DejaVuSans-35" x="63.623047"/>
       <use xlink:href="#DejaVuSans-30" x="127.246094"/>
      </g>
     </g>
    </g>
    <g id="xtick_5">
     <g id="line2d_9">
      <path d="M 290.992958 307.584 
L 290.992958 41.472 
" clip-path="url(#p3828ba550c)" style="fill: none; stroke: #b0b0b0; stroke-width: 0.8; stroke-linecap: square"/>
     </g>
     <g id="line2d_10">
      <g>
       <use xlink:href="#mc91e6e28b5" x="290.992958" y="307.584" style="stroke: #000000; stroke-width: 0.8"/>
      </g>
     </g>
     <g id="text_5">
      <!-- 200 -->
      <g transform="translate(281.449208 322.182437) scale(0.1 -0.1)">
       <defs>
        <path id="DejaVuSans-32" d="M 1228 531 
L 3431 531 
L 3431 0 
L 469 0 
L 469 531 
Q 828 903 1448 1529 
Q 2069 2156 2228 2338 
Q 2531 2678 2651 2914 
Q 2772 3150 2772 3378 
Q 2772 3750 2511 3984 
Q 2250 4219 1831 4219 
Q 1534 4219 1204 4116 
Q 875 4013 500 3803 
L 500 4441 
Q 881 4594 1212 4672 
Q 1544 4750 1819 4750 
Q 2544 4750 2975 4387 
Q 3406 4025 3406 3419 
Q 3406 3131 3298 2873 
Q 3191 2616 2906 2266 
Q 2828 2175 2409 1742 
Q 1991 1309 1228 531 
z
" transform="scale(0.015625)"/>
       </defs>
       <use xlink:href="#DejaVuSans-32"/>
       <use xlink:href="#DejaVuSans-30" x="63.623047"/>
       <use xlink:href="#DejaVuSans-30" x="127.246094"/>
      </g>
     </g>
    </g>
    <g id="xtick_6">
     <g id="line2d_11">
      <path d="M 345.283016 307.584 
L 345.283016 41.472 
" clip-path="url(#p3828ba550c)" style="fill: none; stroke: #b0b0b0; stroke-width: 0.8; stroke-linecap: square"/>
     </g>
     <g id="line2d_12">
      <g>
       <use xlink:href="#mc91e6e28b5" x="345.283016" y="307.584" style="stroke: #000000; stroke-width: 0.8"/>
      </g>
     </g>
     <g id="text_6">
      <!-- 250 -->
      <g transform="translate(335.739266 322.182437) scale(0.1 -0.1)">
       <use xlink:href="#DejaVuSans-32"/>
       <use xlink:href="#DejaVuSans-35" x="63.623047"/>
       <use xlink:href="#DejaVuSans-30" x="127.246094"/>
      </g>
     </g>
    </g>
    <g id="xtick_7">
     <g id="line2d_13">
      <path d="M 399.573074 307.584 
L 399.573074 41.472 
" clip-path="url(#p3828ba550c)" style="fill: none; stroke: #b0b0b0; stroke-width: 0.8; stroke-linecap: square"/>
     </g>
     <g id="line2d_14">
      <g>
       <use xlink:href="#mc91e6e28b5" x="399.573074" y="307.584" style="stroke: #000000; stroke-width: 0.8"/>
      </g>
     </g>
     <g id="text_7">
      <!-- 300 -->
      <g transform="translate(390.029324 322.182437) scale(0.1 -0.1)">
       <defs>
        <path id="DejaVuSans-33" d="M 2597 2516 
Q 3050 2419 3304 2112 
Q 3559 1806 3559 1356 
Q 3559 666 3084 287 
Q 2609 -91 1734 -91 
Q 1441 -91 1130 -33 
Q 819 25 488 141 
L 488 750 
Q 750 597 1062 519 
Q 1375 441 1716 441 
Q 2309 441 2620 675 
Q 2931 909 2931 1356 
Q 2931 1769 2642 2001 
Q 2353 2234 1838 2234 
L 1294 2234 
L 1294 2753 
L 1863 2753 
Q 2328 2753 2575 2939 
Q 2822 3125 2822 3475 
Q 2822 3834 2567 4026 
Q 2313 4219 1838 4219 
Q 1578 4219 1281 4162 
Q 984 4106 628 3988 
L 628 4550 
Q 988 4650 1302 4700 
Q 1616 4750 1894 4750 
Q 2613 4750 3031 4423 
Q 3450 4097 3450 3541 
Q 3450 3153 3228 2886 
Q 3006 2619 2597 2516 
z
" transform="scale(0.015625)"/>
       </defs>
       <use xlink:href="#DejaVuSans-33"/>
       <use xlink:href="#DejaVuSans-30" x="63.623047"/>
       <use xlink:href="#DejaVuSans-30" x="127.246094"/>
      </g>
     </g>
    </g>
    <g id="text_8">
     <!-- Generations -->
     <g transform="translate(205.662344 335.860562) scale(0.1 -0.1)">
      <defs>
       <path id="DejaVuSans-47" d="M 3809 666 
L 3809 1919 
L 2778 1919 
L 2778 2438 
L 4434 2438 
L 4434 434 
Q 4069 175 3628 42 
Q 3188 -91 2688 -91 
Q 1594 -91 976 548 
Q 359 1188 359 2328 
Q 359 3472 976 4111 
Q 1594 4750 2688 4750 
Q 3144 4750 3555 4637 
Q 3966 4525 4313 4306 
L 4313 3634 
Q 3963 3931 3569 4081 
Q 3175 4231 2741 4231 
Q 1884 4231 1454 3753 
Q 1025 3275 1025 2328 
Q 1025 1384 1454 906 
Q 1884 428 2741 428 
Q 3075 428 3337 486 
Q 3600 544 3809 666 
z
" transform="scale(0.015625)"/>
       <path id="DejaVuSans-65" d="M 3597 1894 
L 3597 1613 
L 953 1613 
Q 991 1019 1311 708 
Q 1631 397 2203 397 
Q 2534 397 2845 478 
Q 3156 559 3463 722 
L 3463 178 
Q 3153 47 2828 -22 
Q 2503 -91 2169 -91 
Q 1331 -91 842 396 
Q 353 884 353 1716 
Q 353 2575 817 3079 
Q 1281 3584 2069 3584 
Q 2775 3584 3186 3129 
Q 3597 2675 3597 1894 
z
M 3022 2063 
Q 3016 2534 2758 2815 
Q 2500 3097 2075 3097 
Q 1594 3097 1305 2825 
Q 1016 2553 972 2059 
L 3022 2063 
z
" transform="scale(0.015625)"/>
       <path id="DejaVuSans-6e" d="M 3513 2113 
L 3513 0 
L 2938 0 
L 2938 2094 
Q 2938 2591 2744 2837 
Q 2550 3084 2163 3084 
Q 1697 3084 1428 2787 
Q 1159 2491 1159 1978 
L 1159 0 
L 581 0 
L 581 3500 
L 1159 3500 
L 1159 2956 
Q 1366 3272 1645 3428 
Q 1925 3584 2291 3584 
Q 2894 3584 3203 3211 
Q 3513 2838 3513 2113 
z
" transform="scale(0.015625)"/>
       <path id="DejaVuSans-72" d="M 2631 2963 
Q 2534 3019 2420 3045 
Q 2306 3072 2169 3072 
Q 1681 3072 1420 2755 
Q 1159 2438 1159 1844 
L 1159 0 
L 581 0 
L 581 3500 
L 1159 3500 
L 1159 2956 
Q 1341 3275 1631 3429 
Q 1922 3584 2338 3584 
Q 2397 3584 2469 3576 
Q 2541 3569 2628 3553 
L 2631 2963 
z
" transform="scale(0.015625)"/>
       <path id="DejaVuSans-61" d="M 2194 1759 
Q 1497 1759 1228 1600 
Q 959 1441 959 1056 
Q 959 750 1161 570 
Q 1363 391 1709 391 
Q 2188 391 2477 730 
Q 2766 1069 2766 1631 
L 2766 1759 
L 2194 1759 
z
M 3341 1997 
L 3341 0 
L 2766 0 
L 2766 531 
Q 2569 213 2275 61 
Q 1981 -91 1556 -91 
Q 1019 -91 701 211 
Q 384 513 384 1019 
Q 384 1609 779 1909 
Q 1175 2209 1959 2209 
L 2766 2209 
L 2766 2266 
Q 2766 2663 2505 2880 
Q 2244 3097 1772 3097 
Q 1472 3097 1187 3025 
Q 903 2953 641 2809 
L 641 3341 
Q 956 3463 1253 3523 
Q 1550 3584 1831 3584 
Q 2591 3584 2966 3190 
Q 3341 2797 3341 1997 
z
" transform="scale(0.015625)"/>
       <path id="DejaVuSans-74" d="M 1172 4494 
L 1172 3500 
L 2356 3500 
L 2356 3053 
L 1172 3053 
L 1172 1153 
Q 1172 725 1289 603 
Q 1406 481 1766 481 
L 2356 481 
L 2356 0 
L 1766 0 
Q 1100 0 847 248 
Q 594 497 594 1153 
L 594 3053 
L 172 3053 
L 172 3500 
L 594 3500 
L 594 4494 
L 1172 4494 
z
" transform="scale(0.015625)"/>
       <path id="DejaVuSans-69" d="M 603 3500 
L 1178 3500 
L 1178 0 
L 603 0 
L 603 3500 
z
M 603 4863 
L 1178 4863 
L 1178 4134 
L 603 4134 
L 603 4863 
z
" transform="scale(0.015625)"/>
       <path id="DejaVuSans-6f" d="M 1959 3097 
Q 1497 3097 1228 2736 
Q 959 2375 959 1747 
Q 959 1119 1226 758 
Q 1494 397 1959 397 
Q 2419 397 2687 759 
Q 2956 1122 2956 1747 
Q 2956 2369 2687 2733 
Q 2419 3097 1959 3097 
z
M 1959 3584 
Q 2709 3584 3137 3096 
Q 3566 2609 3566 1747 
Q 3566 888 3137 398 
Q 2709 -91 1959 -91 
Q 1206 -91 779 398 
Q 353 888 353 1747 
Q 353 2609 779 3096 
Q 1206 3584 1959 3584 
z
" transform="scale(0.015625)"/>
       <path id="DejaVuSans-73" d="M 2834 3397 
L 2834 2853 
Q 2591 2978 2328 3040 
Q 2066 3103 1784 3103 
Q 1356 3103 1142 2972 
Q 928 2841 928 2578 
Q 928 2378 1081 2264 
Q 1234 2150 1697 2047 
L 1894 2003 
Q 2506 1872 2764 1633 
Q 3022 1394 3022 966 
Q 3022 478 2636 193 
Q 2250 -91 1575 -91 
Q 1294 -91 989 -36 
Q 684 19 347 128 
L 347 722 
Q 666 556 975 473 
Q 1284 391 1588 391 
Q 1994 391 2212 530 
Q 2431 669 2431 922 
Q 2431 1156 2273 1281 
Q 2116 1406 1581 1522 
L 1381 1569 
Q 847 1681 609 1914 
Q 372 2147 372 2553 
Q 372 3047 722 3315 
Q 1072 3584 1716 3584 
Q 2034 3584 2315 3537 
Q 2597 3491 2834 3397 
z
" transform="scale(0.015625)"/>
      </defs>
      <use xlink:href="#DejaVuSans-47"/>
      <use xlink:href="#DejaVuSans-65" x="77.490234"/>
      <use xlink:href="#DejaVuSans-6e" x="139.013672"/>
      <use xlink:href="#DejaVuSans-65" x="202.392578"/>
      <use xlink:href="#DejaVuSans-72" x="263.916016"/>
      <use xlink:href="#DejaVuSans-61" x="305.029297"/>
      <use xlink:href="#DejaVuSans-74" x="366.308594"/>
      <use xlink:href="#DejaVuSans-69" x="405.517578"/>
      <use xlink:href="#DejaVuSans-6f" x="433.300781"/>
      <use xlink:href="#DejaVuSans-6e" x="494.482422"/>
      <use xlink:href="#DejaVuSans-73" x="557.861328"/>
     </g>
    </g>
   </g>
   <g id="matplotlib.axis_2">
    <g id="ytick_1">
     <g id="line2d_15">
      <path d="M 57.6 275.447624 
L 414.72 275.447624 
" clip-path="url(#p3828ba550c)" style="fill: none; stroke: #b0b0b0; stroke-width: 0.8; stroke-linecap: square"/>
     </g>
     <g id="line2d_16">
      <defs>
       <path id="m018133dc9d" d="M 0 0 
L -3.5 0 
" style="stroke: #000000; stroke-width: 0.8"/>
      </defs>
      <g>
       <use xlink:href="#m018133dc9d" x="57.6" y="275.447624" style="stroke: #000000; stroke-width: 0.8"/>
      </g>
     </g>
     <g id="text_9">
      <!-- −1400 -->
      <g transform="translate(16.770313 279.246843) scale(0.1 -0.1)">
       <defs>
        <path id="DejaVuSans-2212" d="M 678 2272 
L 4684 2272 
L 4684 1741 
L 678 1741 
L 678 2272 
z
" transform="scale(0.015625)"/>
        <path id="DejaVuSans-34" d="M 2419 4116 
L 825 1625 
L 2419 1625 
L 2419 4116 
z
M 2253 4666 
L 3047 4666 
L 3047 1625 
L 3713 1625 
L 3713 1100 
L 3047 1100 
L 3047 0 
L 2419 0 
L 2419 1100 
L 313 1100 
L 313 1709 
L 2253 4666 
z
" transform="scale(0.015625)"/>
       </defs>
       <use xlink:href="#DejaVuSans-2212"/>
       <use xlink:href="#DejaVuSans-31" x="83.789062"/>
       <use xlink:href="#DejaVuSans-34" x="147.412109"/>
       <use xlink:href="#DejaVuSans-30" x="211.035156"/>
       <use xlink:href="#DejaVuSans-30" x="274.658203"/>
      </g>
     </g>
    </g>
    <g id="ytick_2">
     <g id="line2d_17">
      <path d="M 57.6 236.553721 
L 414.72 236.553721 
" clip-path="url(#p3828ba550c)" style="fill: none; stroke: #b0b0b0; stroke-width: 0.8; stroke-linecap: square"/>
     </g>
     <g id="line2d_18">
      <g>
       <use xlink:href="#m018133dc9d" x="57.6" y="236.553721" style="stroke: #000000; stroke-width: 0.8"/>
      </g>
     </g>
     <g id="text_10">
      <!-- −1200 -->
      <g transform="translate(16.770313 240.352939) scale(0.1 -0.1)">
       <use xlink:href="#DejaVuSans-2212"/>
       <use xlink:href="#DejaVuSans-31" x="83.789062"/>
       <use xlink:href="#DejaVuSans-32" x="147.412109"/>
       <use xlink:href="#DejaVuSans-30" x="211.035156"/>
       <use xlink:href="#DejaVuSans-30" x="274.658203"/>
      </g>
     </g>
    </g>
    <g id="ytick_3">
     <g id="line2d_19">
      <path d="M 57.6 197.659817 
L 414.72 197.659817 
" clip-path="url(#p3828ba550c)" style="fill: none; stroke: #b0b0b0; stroke-width: 0.8; stroke-linecap: square"/>
     </g>
     <g id="line2d_20">
      <g>
       <use xlink:href="#m018133dc9d" x="57.6" y="197.659817" style="stroke: #000000; stroke-width: 0.8"/>
      </g>
     </g>
     <g id="text_11">
      <!-- −1000 -->
      <g transform="translate(16.770313 201.459036) scale(0.1 -0.1)">
       <use xlink:href="#DejaVuSans-2212"/>
       <use xlink:href="#DejaVuSans-31" x="83.789062"/>
       <use xlink:href="#DejaVuSans-30" x="147.412109"/>
       <use xlink:href="#DejaVuSans-30" x="211.035156"/>
       <use xlink:href="#DejaVuSans-30" x="274.658203"/>
      </g>
     </g>
    </g>
    <g id="ytick_4">
     <g id="line2d_21">
      <path d="M 57.6 158.765913 
L 414.72 158.765913 
" clip-path="url(#p3828ba550c)" style="fill: none; stroke: #b0b0b0; stroke-width: 0.8; stroke-linecap: square"/>
     </g>
     <g id="line2d_22">
      <g>
       <use xlink:href="#m018133dc9d" x="57.6" y="158.765913" style="stroke: #000000; stroke-width: 0.8"/>
      </g>
     </g>
     <g id="text_12">
      <!-- −800 -->
      <g transform="translate(23.132812 162.565132) scale(0.1 -0.1)">
       <defs>
        <path id="DejaVuSans-38" d="M 2034 2216 
Q 1584 2216 1326 1975 
Q 1069 1734 1069 1313 
Q 1069 891 1326 650 
Q 1584 409 2034 409 
Q 2484 409 2743 651 
Q 3003 894 3003 1313 
Q 3003 1734 2745 1975 
Q 2488 2216 2034 2216 
z
M 1403 2484 
Q 997 2584 770 2862 
Q 544 3141 544 3541 
Q 544 4100 942 4425 
Q 1341 4750 2034 4750 
Q 2731 4750 3128 4425 
Q 3525 4100 3525 3541 
Q 3525 3141 3298 2862 
Q 3072 2584 2669 2484 
Q 3125 2378 3379 2068 
Q 3634 1759 3634 1313 
Q 3634 634 3220 271 
Q 2806 -91 2034 -91 
Q 1263 -91 848 271 
Q 434 634 434 1313 
Q 434 1759 690 2068 
Q 947 2378 1403 2484 
z
M 1172 3481 
Q 1172 3119 1398 2916 
Q 1625 2713 2034 2713 
Q 2441 2713 2670 2916 
Q 2900 3119 2900 3481 
Q 2900 3844 2670 4047 
Q 2441 4250 2034 4250 
Q 1625 4250 1398 4047 
Q 1172 3844 1172 3481 
z
" transform="scale(0.015625)"/>
       </defs>
       <use xlink:href="#DejaVuSans-2212"/>
       <use xlink:href="#DejaVuSans-38" x="83.789062"/>
       <use xlink:href="#DejaVuSans-30" x="147.412109"/>
       <use xlink:href="#DejaVuSans-30" x="211.035156"/>
      </g>
     </g>
    </g>
    <g id="ytick_5">
     <g id="line2d_23">
      <path d="M 57.6 119.872009 
L 414.72 119.872009 
" clip-path="url(#p3828ba550c)" style="fill: none; stroke: #b0b0b0; stroke-width: 0.8; stroke-linecap: square"/>
     </g>
     <g id="line2d_24">
      <g>
       <use xlink:href="#m018133dc9d" x="57.6" y="119.872009" style="stroke: #000000; stroke-width: 0.8"/>
      </g>
     </g>
     <g id="text_13">
      <!-- −600 -->
      <g transform="translate(23.132812 123.671228) scale(0.1 -0.1)">
       <defs>
        <path id="DejaVuSans-36" d="M 2113 2584 
Q 1688 2584 1439 2293 
Q 1191 2003 1191 1497 
Q 1191 994 1439 701 
Q 1688 409 2113 409 
Q 2538 409 2786 701 
Q 3034 994 3034 1497 
Q 3034 2003 2786 2293 
Q 2538 2584 2113 2584 
z
M 3366 4563 
L 3366 3988 
Q 3128 4100 2886 4159 
Q 2644 4219 2406 4219 
Q 1781 4219 1451 3797 
Q 1122 3375 1075 2522 
Q 1259 2794 1537 2939 
Q 1816 3084 2150 3084 
Q 2853 3084 3261 2657 
Q 3669 2231 3669 1497 
Q 3669 778 3244 343 
Q 2819 -91 2113 -91 
Q 1303 -91 875 529 
Q 447 1150 447 2328 
Q 447 3434 972 4092 
Q 1497 4750 2381 4750 
Q 2619 4750 2861 4703 
Q 3103 4656 3366 4563 
z
" transform="scale(0.015625)"/>
       </defs>
       <use xlink:href="#DejaVuSans-2212"/>
       <use xlink:href="#DejaVuSans-36" x="83.789062"/>
       <use xlink:href="#DejaVuSans-30" x="147.412109"/>
       <use xlink:href="#DejaVuSans-30" x="211.035156"/>
      </g>
     </g>
    </g>
    <g id="ytick_6">
     <g id="line2d_25">
      <path d="M 57.6 80.978105 
L 414.72 80.978105 
" clip-path="url(#p3828ba550c)" style="fill: none; stroke: #b0b0b0; stroke-width: 0.8; stroke-linecap: square"/>
     </g>
     <g id="line2d_26">
      <g>
       <use xlink:href="#m018133dc9d" x="57.6" y="80.978105" style="stroke: #000000; stroke-width: 0.8"/>
      </g>
     </g>
     <g id="text_14">
      <!-- −400 -->
      <g transform="translate(23.132812 84.777324) scale(0.1 -0.1)">
       <use xlink:href="#DejaVuSans-2212"/>
       <use xlink:href="#DejaVuSans-34" x="83.789062"/>
       <use xlink:href="#DejaVuSans-30" x="147.412109"/>
       <use xlink:href="#DejaVuSans-30" x="211.035156"/>
      </g>
     </g>
    </g>
    <g id="ytick_7">
     <g id="line2d_27">
      <path d="M 57.6 42.084202 
L 414.72 42.084202 
" clip-path="url(#p3828ba550c)" style="fill: none; stroke: #b0b0b0; stroke-width: 0.8; stroke-linecap: square"/>
     </g>
     <g id="line2d_28">
      <g>
       <use xlink:href="#m018133dc9d" x="57.6" y="42.084202" style="stroke: #000000; stroke-width: 0.8"/>
      </g>
     </g>
     <g id="text_15">
      <!-- −200 -->
      <g transform="translate(23.132812 45.88342) scale(0.1 -0.1)">
       <use xlink:href="#DejaVuSans-2212"/>
       <use xlink:href="#DejaVuSans-32" x="83.789062"/>
       <use xlink:href="#DejaVuSans-30" x="147.412109"/>
       <use xlink:href="#DejaVuSans-30" x="211.035156"/>
      </g>
     </g>
    </g>
    <g id="text_16">
     <!-- Fitness -->
     <g transform="translate(10.690625 191.845187) rotate(-90) scale(0.1 -0.1)">
      <defs>
       <path id="DejaVuSans-46" d="M 628 4666 
L 3309 4666 
L 3309 4134 
L 1259 4134 
L 1259 2759 
L 3109 2759 
L 3109 2228 
L 1259 2228 
L 1259 0 
L 628 0 
L 628 4666 
z
" transform="scale(0.015625)"/>
      </defs>
      <use xlink:href="#DejaVuSans-46"/>
      <use xlink:href="#DejaVuSans-69" x="50.269531"/>
      <use xlink:href="#DejaVuSans-74" x="78.052734"/>
      <use xlink:href="#DejaVuSans-6e" x="117.261719"/>
      <use xlink:href="#DejaVuSans-65" x="180.640625"/>
      <use xlink:href="#DejaVuSans-73" x="242.164062"/>
      <use xlink:href="#DejaVuSans-73" x="294.263672"/>
     </g>
    </g>
   </g>
   <g id="line2d_29">
    <path d="M 73.832727 276.502025 
L 74.918528 274.209724 
L 77.090131 274.008107 
L 79.261733 273.269276 
L 80.347534 272.182806 
L 81.433335 272.311886 
L 82.519137 271.24823 
L 83.604938 271.677903 
L 84.690739 271.719397 
L 85.77654 271.558639 
L 86.862341 271.605394 
L 87.948142 271.160602 
L 89.033943 270.352895 
L 90.119745 270.058357 
L 91.205546 270.684918 
L 92.291347 269.922868 
L 93.377148 270.590548 
L 94.462949 270.553375 
L 95.54875 269.831546 
L 96.634552 269.672462 
L 97.720353 269.207304 
L 98.806154 271.052627 
L 99.891955 269.713626 
L 100.977756 269.010281 
L 102.063557 270.182782 
L 103.149358 270.450453 
L 104.23516 268.156075 
L 105.320961 269.192617 
L 106.406762 270.011188 
L 107.492563 269.641493 
L 108.578364 269.909661 
L 109.664165 269.194995 
L 110.749967 269.522413 
L 111.835768 268.95588 
L 114.00737 269.595418 
L 115.093171 268.441867 
L 117.264773 269.60317 
L 118.350575 267.520166 
L 119.436376 268.784737 
L 121.607978 269.632299 
L 122.693779 268.69385 
L 123.77958 268.834506 
L 124.865382 270.171649 
L 125.951183 269.121151 
L 127.036984 270.31064 
L 128.122785 269.759926 
L 129.208586 270.720026 
L 130.294387 270.570434 
L 131.380189 269.491455 
L 132.46599 271.199468 
L 133.551791 270.244912 
L 134.637592 269.751475 
L 136.809194 270.44907 
L 137.894995 270.783983 
L 138.980797 271.975523 
L 140.066598 271.320553 
L 142.2382 271.703306 
L 143.324001 271.432307 
L 144.409802 270.170264 
L 145.495604 270.882595 
L 146.581405 271.02429 
L 147.667206 272.320948 
L 148.753007 270.534827 
L 149.838808 270.355722 
L 150.924609 270.532275 
L 152.01041 269.534092 
L 153.096212 270.864943 
L 154.182013 270.514554 
L 155.267814 270.323341 
L 156.353615 271.104351 
L 157.439416 270.417499 
L 158.525217 270.604582 
L 159.611019 269.907098 
L 160.69682 270.114228 
L 161.782621 270.978477 
L 162.868422 269.500634 
L 165.040024 271.123515 
L 166.125825 271.000989 
L 167.211627 270.455221 
L 168.297428 270.278039 
L 169.383229 270.723033 
L 170.46903 270.501502 
L 171.554831 271.207064 
L 172.640632 270.77216 
L 173.726434 270.556805 
L 174.812235 271.336215 
L 175.898036 270.928305 
L 176.983837 271.115836 
L 178.069638 270.739844 
L 179.155439 271.234749 
L 180.24124 271.417183 
L 181.327042 271.071982 
L 182.412843 270.252017 
L 183.498644 270.007118 
L 184.584445 270.284614 
L 185.670246 270.077235 
L 186.756047 271.212162 
L 187.841849 270.251154 
L 188.92765 270.976433 
L 190.013451 270.659018 
L 191.099252 271.326195 
L 192.185053 270.696721 
L 193.270854 270.45638 
L 194.356656 270.888262 
L 195.442457 269.944683 
L 196.528258 270.854074 
L 197.614059 271.253251 
L 198.69986 271.370978 
L 199.785661 271.132688 
L 200.871462 270.218528 
L 201.957264 270.571827 
L 203.043065 271.096793 
L 204.128866 271.042083 
L 205.214667 271.219333 
L 206.300468 269.828894 
L 207.386269 268.982811 
L 208.472071 269.564488 
L 209.557872 269.907021 
L 210.643673 269.705403 
L 211.729474 270.67878 
L 212.815275 269.765259 
L 213.901076 271.405243 
L 216.072679 270.992982 
L 217.15848 269.545556 
L 218.244281 270.692319 
L 219.330082 270.449357 
L 220.415883 269.724815 
L 221.501684 270.046748 
L 222.587486 270.666334 
L 223.673287 270.518898 
L 224.759088 269.606443 
L 225.844889 270.848761 
L 226.93069 269.965183 
L 228.016491 270.23342 
L 229.102292 269.455618 
L 230.188094 269.714604 
L 231.273895 270.429257 
L 232.359696 270.377764 
L 233.445497 271.006755 
L 234.531298 269.411767 
L 235.617099 271.069056 
L 236.702901 269.721877 
L 237.788702 269.436387 
L 238.874503 269.906514 
L 239.960304 269.257037 
L 241.046105 270.158198 
L 243.217708 271.0199 
L 244.303509 270.813151 
L 245.38931 270.404078 
L 246.475111 270.342838 
L 247.560912 270.149176 
L 248.646713 270.700429 
L 249.732514 270.067483 
L 250.818316 269.661272 
L 251.904117 270.142898 
L 252.989918 271.326794 
L 254.075719 270.724609 
L 255.16152 271.721678 
L 256.247321 271.252838 
L 257.333123 271.627049 
L 258.418924 270.754736 
L 259.504725 271.649411 
L 260.590526 271.802569 
L 261.676327 270.808345 
L 262.762128 270.49856 
L 263.847929 271.803974 
L 264.933731 272.304852 
L 266.019532 271.036407 
L 267.105333 271.209084 
L 268.191134 270.379515 
L 269.276935 270.128375 
L 270.362736 270.525014 
L 271.448538 270.476862 
L 272.534339 271.645913 
L 273.62014 270.80233 
L 274.705941 271.995141 
L 275.791742 271.062971 
L 276.877543 271.183671 
L 277.963344 271.617058 
L 279.049146 269.913603 
L 280.134947 271.287758 
L 282.306549 269.788445 
L 283.39235 271.686182 
L 284.478151 271.103816 
L 286.649754 270.79765 
L 287.735555 271.228922 
L 288.821356 270.709971 
L 289.907157 269.943631 
L 290.992958 269.817209 
L 292.07876 270.351632 
L 293.164561 269.968323 
L 294.250362 271.034574 
L 295.336163 270.073411 
L 296.421964 270.31118 
L 297.507765 271.185311 
L 298.593566 270.986682 
L 299.679368 271.660511 
L 300.765169 271.213049 
L 301.85097 272.211214 
L 302.936771 270.989527 
L 304.022572 270.746128 
L 305.108373 271.374592 
L 307.279976 271.826664 
L 309.451578 270.724267 
L 310.537379 272.036425 
L 311.62318 272.224577 
L 312.708981 270.57987 
L 313.794783 271.036781 
L 314.880584 270.462567 
L 315.966385 271.129842 
L 317.052186 271.548579 
L 318.137987 271.49712 
L 319.223788 272.307404 
L 320.30959 271.447128 
L 321.395391 270.235583 
L 322.481192 271.495615 
L 323.566993 271.077319 
L 324.652794 271.439198 
L 325.738595 271.190614 
L 327.910198 271.308863 
L 328.995999 270.99173 
L 330.0818 271.167997 
L 331.167601 270.586826 
L 332.253402 271.834912 
L 333.339203 270.684684 
L 334.425005 271.345782 
L 335.510806 271.248282 
L 336.596607 270.297695 
L 337.682408 271.019461 
L 338.768209 271.462051 
L 339.85401 270.646904 
L 340.939811 271.201261 
L 342.025613 270.758819 
L 343.111414 271.232788 
L 344.197215 272.353891 
L 345.283016 271.377825 
L 346.368817 271.893731 
L 347.454618 271.227079 
L 349.626221 270.983849 
L 350.712022 270.466505 
L 351.797823 270.710629 
L 352.883624 270.492713 
L 355.055227 271.778841 
L 356.141028 271.360067 
L 357.226829 271.519091 
L 358.31263 270.237375 
L 359.398431 270.854103 
L 360.484232 271.200674 
L 361.570033 270.897756 
L 362.655835 270.716587 
L 363.741636 270.704258 
L 365.913238 271.157208 
L 366.999039 271.004955 
L 368.08484 271.651903 
L 369.170642 270.563411 
L 370.256443 271.152711 
L 372.428045 270.090378 
L 373.513846 271.583292 
L 374.599647 271.246346 
L 376.77125 271.065383 
L 377.857051 270.596089 
L 378.942852 272.072708 
L 380.028653 270.67929 
L 381.114454 271.845695 
L 382.200255 271.687044 
L 383.286057 271.783232 
L 385.457659 271.012402 
L 386.54346 271.694516 
L 387.629261 272.200286 
L 388.715062 270.965159 
L 389.800863 271.678307 
L 390.886665 270.610647 
L 391.972466 270.441449 
L 393.058267 269.996691 
L 394.144068 271.211819 
L 395.229869 270.879489 
L 396.31567 270.952845 
L 397.401472 271.224877 
L 398.487273 271.031784 
L 398.487273 271.031784 
" clip-path="url(#p3828ba550c)" style="fill: none; stroke: #0000ff; stroke-width: 1.5; stroke-linecap: square"/>
   </g>
   <g id="line2d_30">
    <path d="M 73.832727 284.970693 
L 74.918528 285.801467 
L 76.00433 286.046609 
L 77.090131 285.921708 
L 78.175932 286.121223 
L 79.261733 285.46525 
L 80.347534 286.921847 
L 82.519137 286.206432 
L 83.604938 285.90523 
L 84.690739 286.266252 
L 85.77654 286.745845 
L 87.948142 286.903061 
L 89.033943 287.267146 
L 90.119745 286.546155 
L 91.205546 287.250594 
L 92.291347 286.425103 
L 93.377148 286.017343 
L 94.462949 286.461766 
L 95.54875 285.262539 
L 96.634552 285.473719 
L 97.720353 286.644695 
L 98.806154 287.582164 
L 99.891955 287.776647 
L 100.977756 286.412421 
L 102.063557 286.057082 
L 103.149358 286.574268 
L 104.23516 289.920619 
L 105.320961 290.050378 
L 106.406762 292.418409 
L 107.492563 291.22545 
L 108.578364 291.881782 
L 109.664165 291.012146 
L 110.749967 291.386917 
L 111.835768 290.805178 
L 112.921569 291.025981 
L 114.00737 291.712118 
L 115.093171 293.114168 
L 116.178972 292.283856 
L 117.264773 293.28361 
L 118.350575 292.124791 
L 120.522177 293.329059 
L 121.607978 293.375938 
L 122.693779 293.819804 
L 123.77958 292.589522 
L 124.865382 293.381602 
L 125.951183 292.939882 
L 127.036984 293.980534 
L 128.122785 294.108107 
L 129.208586 294.511002 
L 130.294387 294.76763 
L 131.380189 293.378569 
L 132.46599 294.890611 
L 133.551791 292.895914 
L 134.637592 292.485399 
L 135.723393 292.657321 
L 136.809194 293.067616 
L 137.894995 293.007597 
L 138.980797 293.834648 
L 140.066598 292.616084 
L 141.152399 294.760381 
L 142.2382 293.481831 
L 143.324001 293.343837 
L 144.409802 292.421607 
L 145.495604 293.636301 
L 146.581405 292.24053 
L 147.667206 293.403761 
L 148.753007 291.267244 
L 149.838808 290.895124 
L 150.924609 292.382334 
L 152.01041 291.969868 
L 153.096212 292.649403 
L 154.182013 293.64782 
L 155.267814 292.02913 
L 156.353615 293.172655 
L 157.439416 292.156385 
L 158.525217 293.037798 
L 159.611019 292.400109 
L 160.69682 292.619536 
L 162.868422 294.971925 
L 163.954223 294.845755 
L 165.040024 294.972772 
L 166.125825 294.431083 
L 167.211627 293.573718 
L 168.297428 294.45526 
L 170.46903 293.626612 
L 171.554831 294.389857 
L 172.640632 294.513224 
L 173.726434 294.272718 
L 174.812235 293.569341 
L 175.898036 293.33057 
L 176.983837 292.739452 
L 178.069638 293.41866 
L 179.155439 293.202958 
L 181.327042 292.379216 
L 182.412843 292.271653 
L 183.498644 291.406837 
L 184.584445 291.787979 
L 185.670246 293.015212 
L 186.756047 292.83658 
L 187.841849 292.282128 
L 188.92765 293.597469 
L 190.013451 292.57317 
L 191.099252 293.014837 
L 192.185053 292.255565 
L 193.270854 292.80238 
L 194.356656 292.060359 
L 195.442457 291.680206 
L 197.614059 292.546515 
L 198.69986 292.475935 
L 199.785661 292.121645 
L 200.871462 292.15331 
L 201.957264 292.54142 
L 203.043065 292.652744 
L 204.128866 292.978681 
L 205.214667 293.481615 
L 206.300468 292.906503 
L 207.386269 292.664286 
L 208.472071 292.877741 
L 209.557872 292.363267 
L 210.643673 292.457171 
L 211.729474 293.42653 
L 212.815275 291.976748 
L 213.901076 295.488 
L 214.986877 293.437701 
L 216.072679 292.765385 
L 217.15848 292.401566 
L 218.244281 293.098453 
L 219.330082 293.303136 
L 220.415883 292.901525 
L 221.501684 293.135235 
L 222.587486 293.025908 
L 223.673287 293.517783 
L 224.759088 293.37414 
L 225.844889 293.502258 
L 228.016491 292.770174 
L 229.102292 292.067565 
L 230.188094 292.46433 
L 231.273895 293.108653 
L 232.359696 292.065389 
L 233.445497 293.372734 
L 234.531298 292.169098 
L 235.617099 293.420415 
L 236.702901 292.650065 
L 237.788702 293.453726 
L 239.960304 294.537366 
L 241.046105 294.064593 
L 242.131906 294.970679 
L 243.217708 294.802358 
L 244.303509 293.96444 
L 247.560912 292.612813 
L 249.732514 293.88421 
L 250.818316 293.280133 
L 251.904117 292.912646 
L 254.075719 292.523981 
L 255.16152 293.730546 
L 256.247321 292.83318 
L 257.333123 293.520541 
L 258.418924 293.776098 
L 259.504725 291.788132 
L 260.590526 291.917988 
L 261.676327 291.699149 
L 262.762128 290.595159 
L 263.847929 292.31899 
L 264.933731 292.668551 
L 266.019532 291.589114 
L 267.105333 291.389777 
L 268.191134 291.376227 
L 269.276935 292.376002 
L 270.362736 292.791858 
L 271.448538 292.720289 
L 272.534339 293.302002 
L 273.62014 291.96973 
L 274.705941 292.591949 
L 275.791742 292.025481 
L 276.877543 292.919903 
L 277.963344 292.499265 
L 279.049146 291.01659 
L 280.134947 292.202291 
L 281.220748 290.943972 
L 282.306549 293.744211 
L 283.39235 292.445967 
L 284.478151 291.678676 
L 285.563953 291.77832 
L 286.649754 292.156683 
L 287.735555 291.704595 
L 289.907157 292.053599 
L 290.992958 292.835978 
L 292.07876 292.780956 
L 293.164561 292.519767 
L 294.250362 294.501216 
L 295.336163 293.11025 
L 296.421964 293.829708 
L 297.507765 292.78675 
L 298.593566 293.753265 
L 299.679368 292.459435 
L 300.765169 291.955138 
L 301.85097 293.336166 
L 302.936771 291.975147 
L 304.022572 291.892324 
L 305.108373 292.997325 
L 306.194175 291.867396 
L 307.279976 291.988047 
L 308.365777 291.463766 
L 309.451578 290.805626 
L 310.537379 292.71943 
L 311.62318 292.527889 
L 313.794783 291.782885 
L 314.880584 292.78877 
L 315.966385 292.662831 
L 317.052186 292.366352 
L 318.137987 293.237738 
L 319.223788 292.643883 
L 320.30959 293.575877 
L 321.395391 292.474444 
L 322.481192 293.785102 
L 323.566993 292.86176 
L 324.652794 292.338004 
L 325.738595 292.133201 
L 326.824396 292.684314 
L 327.910198 291.871842 
L 328.995999 292.109901 
L 330.0818 291.749542 
L 331.167601 291.98028 
L 332.253402 294.224578 
L 333.339203 292.151995 
L 334.425005 292.951876 
L 335.510806 292.62474 
L 336.596607 291.786974 
L 337.682408 292.288283 
L 338.768209 292.949423 
L 339.85401 292.709587 
L 340.939811 292.585931 
L 342.025613 290.760666 
L 343.111414 291.800983 
L 344.197215 291.895757 
L 345.283016 291.293861 
L 346.368817 292.322673 
L 347.454618 290.914763 
L 348.54042 291.248142 
L 349.626221 292.03563 
L 350.712022 289.554798 
L 351.797823 289.762182 
L 352.883624 289.723574 
L 353.969425 290.930886 
L 355.055227 291.478448 
L 356.141028 290.643057 
L 357.226829 291.130345 
L 358.31263 289.645788 
L 359.398431 290.695291 
L 360.484232 290.4803 
L 361.570033 290.636927 
L 362.655835 290.090995 
L 363.741636 290.303257 
L 364.827437 290.350308 
L 365.913238 290.725418 
L 366.999039 292.120353 
L 368.08484 291.639987 
L 369.170642 290.709546 
L 370.256443 291.146022 
L 371.342244 290.894812 
L 372.428045 289.611376 
L 373.513846 291.533752 
L 374.599647 291.031342 
L 375.685448 291.766382 
L 376.77125 291.604314 
L 377.857051 291.03915 
L 378.942852 292.281111 
L 380.028653 291.177326 
L 382.200255 291.746814 
L 383.286057 291.317786 
L 384.371858 291.206266 
L 385.457659 290.775089 
L 386.54346 290.980124 
L 387.629261 291.763761 
L 388.715062 291.213142 
L 389.800863 292.653432 
L 390.886665 290.875269 
L 391.972466 290.508605 
L 393.058267 291.229686 
L 394.144068 291.54171 
L 395.229869 290.644962 
L 396.31567 291.008692 
L 397.401472 291.137375 
L 398.487273 290.956166 
L 398.487273 290.956166 
" clip-path="url(#p3828ba550c)" style="fill: none; stroke-dasharray: 9.6,2.4,1.5,2.4; stroke-dashoffset: 0; stroke: #008000; stroke-width: 1.5"/>
   </g>
   <g id="line2d_31">
    <path d="M 73.832727 268.033357 
L 74.918528 262.617981 
L 76.00433 262.235052 
L 77.090131 262.094505 
L 78.175932 261.090473 
L 79.261733 261.073302 
L 80.347534 257.443765 
L 81.433335 258.086205 
L 82.519137 256.290027 
L 83.604938 257.450576 
L 84.690739 257.172543 
L 85.77654 256.371433 
L 86.862341 256.37892 
L 87.948142 255.418144 
L 89.033943 253.438643 
L 90.119745 253.57056 
L 91.205546 254.119243 
L 92.291347 253.420633 
L 93.377148 255.163754 
L 94.462949 254.644984 
L 95.54875 254.400553 
L 96.634552 253.871205 
L 97.720353 251.769913 
L 98.806154 254.52309 
L 99.891955 251.650604 
L 100.977756 251.60814 
L 102.063557 254.308483 
L 103.149358 254.326637 
L 104.23516 246.391531 
L 105.320961 248.334855 
L 106.406762 247.603967 
L 107.492563 248.057537 
L 108.578364 247.93754 
L 109.664165 247.377845 
L 110.749967 247.657909 
L 111.835768 247.106581 
L 112.921569 247.495574 
L 114.00737 247.478718 
L 115.093171 243.769565 
L 116.178972 245.703981 
L 117.264773 245.92273 
L 118.350575 242.915541 
L 119.436376 244.843386 
L 120.522177 245.143854 
L 121.607978 245.88866 
L 122.693779 243.567896 
L 123.77958 245.079491 
L 124.865382 246.961696 
L 125.951183 245.30242 
L 127.036984 246.640746 
L 128.122785 245.411745 
L 129.208586 246.929051 
L 130.294387 246.373238 
L 131.380189 245.604342 
L 132.46599 247.508325 
L 133.551791 247.59391 
L 134.637592 247.017552 
L 135.723393 247.646274 
L 136.809194 247.830525 
L 137.894995 248.56037 
L 138.980797 250.116397 
L 140.066598 250.025022 
L 141.152399 248.215887 
L 142.2382 249.92478 
L 143.324001 249.520777 
L 144.409802 247.918921 
L 145.495604 248.128888 
L 146.581405 249.808049 
L 147.667206 251.238136 
L 148.753007 249.80241 
L 149.838808 249.81632 
L 150.924609 248.682215 
L 152.01041 247.098315 
L 153.096212 249.080484 
L 154.182013 247.381288 
L 155.267814 248.617552 
L 156.353615 249.036047 
L 157.439416 248.678613 
L 158.525217 248.171367 
L 159.611019 247.414088 
L 160.69682 247.608919 
L 161.782621 248.167731 
L 162.868422 244.029344 
L 165.040024 247.274258 
L 166.125825 247.570894 
L 167.211627 247.336723 
L 168.297428 246.100817 
L 169.383229 247.442889 
L 170.46903 247.376392 
L 171.554831 248.024272 
L 172.640632 247.031097 
L 173.726434 246.840892 
L 174.812235 249.103088 
L 175.898036 248.526041 
L 176.983837 249.49222 
L 178.069638 248.061027 
L 179.155439 249.26654 
L 180.24124 250.002313 
L 181.327042 249.764747 
L 182.412843 248.232381 
L 183.498644 248.607398 
L 184.584445 248.781249 
L 185.670246 247.139258 
L 186.756047 249.587744 
L 187.841849 248.22018 
L 188.92765 248.355396 
L 190.013451 248.744867 
L 191.099252 249.637553 
L 192.185053 249.137877 
L 193.270854 248.110379 
L 194.356656 249.716165 
L 195.442457 248.20916 
L 196.528258 249.622004 
L 198.69986 250.266021 
L 199.785661 250.14373 
L 200.871462 248.283746 
L 201.957264 248.602234 
L 203.043065 249.540842 
L 204.128866 249.105485 
L 205.214667 248.957051 
L 206.300468 246.751285 
L 207.386269 245.301335 
L 208.472071 246.251235 
L 209.557872 247.450774 
L 210.643673 246.953635 
L 211.729474 247.93103 
L 212.815275 247.553771 
L 213.901076 247.322486 
L 214.986877 248.880562 
L 216.072679 249.220579 
L 217.15848 246.689545 
L 218.244281 248.286184 
L 219.330082 247.595577 
L 220.415883 246.548105 
L 221.501684 246.95826 
L 222.587486 248.30676 
L 223.673287 247.520013 
L 224.759088 245.838745 
L 225.844889 248.195265 
L 226.93069 246.826408 
L 228.016491 247.696666 
L 229.102292 246.84367 
L 230.188094 246.964878 
L 231.273895 247.749861 
L 232.359696 248.690138 
L 233.445497 248.640776 
L 234.531298 246.654435 
L 235.617099 248.717697 
L 236.702901 246.793688 
L 237.788702 245.419048 
L 238.874503 245.771745 
L 239.960304 243.976708 
L 241.046105 246.251803 
L 242.131906 246.309023 
L 243.217708 247.237443 
L 244.303509 247.661862 
L 245.38931 247.323398 
L 246.475111 247.784328 
L 247.560912 247.685539 
L 248.646713 248.124234 
L 249.732514 246.250757 
L 250.818316 246.042411 
L 251.904117 247.373149 
L 252.989918 249.886828 
L 254.075719 248.925236 
L 255.16152 249.712809 
L 257.333123 249.733556 
L 258.418924 247.733375 
L 259.504725 251.51069 
L 260.590526 251.68715 
L 261.676327 249.917541 
L 262.762128 250.401962 
L 263.847929 251.288957 
L 264.933731 251.941153 
L 266.019532 250.4837 
L 267.105333 251.028392 
L 269.276935 247.880748 
L 270.362736 248.25817 
L 271.448538 248.233434 
L 272.534339 249.989824 
L 273.62014 249.634929 
L 274.705941 251.398332 
L 275.791742 250.10046 
L 276.877543 249.447439 
L 277.963344 250.734851 
L 279.049146 248.810617 
L 280.134947 250.373224 
L 281.220748 250.003374 
L 282.306549 245.832679 
L 283.39235 250.926396 
L 285.563953 250.123852 
L 286.649754 249.438618 
L 287.735555 250.75325 
L 288.821356 249.513782 
L 289.907157 247.833664 
L 290.992958 246.79844 
L 292.07876 247.922308 
L 293.164561 247.41688 
L 294.250362 247.567932 
L 295.336163 247.036571 
L 296.421964 246.792652 
L 297.507765 249.583873 
L 298.593566 248.220099 
L 299.679368 250.861586 
L 300.765169 250.470961 
L 301.85097 251.086262 
L 302.936771 250.003906 
L 304.022572 249.599931 
L 305.108373 249.75186 
L 306.194175 251.335621 
L 307.279976 251.665281 
L 309.451578 250.642909 
L 310.537379 251.35342 
L 311.62318 251.921265 
L 312.708981 249.021731 
L 313.794783 250.290677 
L 314.880584 248.136363 
L 315.966385 249.596853 
L 317.052186 250.730806 
L 318.137987 249.756502 
L 319.223788 251.970926 
L 320.30959 249.318379 
L 321.395391 247.996721 
L 322.481192 249.206127 
L 323.566993 249.292878 
L 324.652794 250.540391 
L 326.824396 249.87575 
L 327.910198 250.745884 
L 328.995999 249.873558 
L 330.0818 250.586452 
L 331.167601 249.193372 
L 332.253402 249.445246 
L 333.339203 249.217374 
L 334.425005 249.739689 
L 335.510806 249.871824 
L 336.596607 248.808416 
L 337.682408 249.75064 
L 338.768209 249.97468 
L 339.85401 248.584221 
L 340.939811 249.81659 
L 342.025613 250.756972 
L 343.111414 250.664592 
L 344.197215 252.812025 
L 345.283016 251.461788 
L 347.454618 251.539394 
L 348.54042 250.891605 
L 349.626221 249.932067 
L 350.712022 251.378213 
L 351.797823 251.659077 
L 352.883624 251.261852 
L 353.969425 251.268471 
L 355.055227 252.079234 
L 356.141028 252.077077 
L 357.226829 251.907837 
L 358.31263 250.828962 
L 359.398431 251.012915 
L 360.484232 251.921048 
L 361.570033 251.158584 
L 362.655835 251.342179 
L 363.741636 251.10526 
L 364.827437 251.451463 
L 365.913238 251.588998 
L 366.999039 249.889557 
L 368.08484 251.663819 
L 369.170642 250.417276 
L 370.256443 251.1594 
L 371.342244 250.241656 
L 372.428045 250.56938 
L 373.513846 251.632832 
L 374.599647 251.461351 
L 375.685448 250.604152 
L 376.77125 250.526452 
L 377.857051 250.153028 
L 378.942852 251.864305 
L 380.028653 250.181253 
L 381.114454 252.259091 
L 382.200255 251.627275 
L 383.286057 252.248679 
L 384.371858 251.532228 
L 385.457659 251.249714 
L 386.54346 252.408908 
L 387.629261 252.636812 
L 388.715062 250.717175 
L 389.800863 250.703183 
L 390.886665 250.346025 
L 391.972466 250.374293 
L 393.058267 248.763696 
L 394.144068 250.881928 
L 395.229869 251.114015 
L 396.31567 250.896998 
L 397.401472 251.312378 
L 398.487273 251.107403 
L 398.487273 251.107403 
" clip-path="url(#p3828ba550c)" style="fill: none; stroke-dasharray: 9.6,2.4,1.5,2.4; stroke-dashoffset: 0; stroke: #008000; stroke-width: 1.5"/>
   </g>
   <g id="line2d_32">
    <path d="M 73.832727 235.966423 
L 74.918528 184.288464 
L 79.261733 184.288464 
L 80.347534 152.517977 
L 98.806154 152.517977 
L 99.891955 145.281758 
L 103.149358 145.281758 
L 104.23516 53.568 
L 398.487273 53.568 
L 398.487273 53.568 
" clip-path="url(#p3828ba550c)" style="fill: none; stroke: #ff0000; stroke-width: 1.5; stroke-linecap: square"/>
   </g>
   <g id="patch_3">
    <path d="M 57.6 307.584 
L 57.6 41.472 
" style="fill: none; stroke: #000000; stroke-width: 0.8; stroke-linejoin: miter; stroke-linecap: square"/>
   </g>
   <g id="patch_4">
    <path d="M 414.72 307.584 
L 414.72 41.472 
" style="fill: none; stroke: #000000; stroke-width: 0.8; stroke-linejoin: miter; stroke-linecap: square"/>
   </g>
   <g id="patch_5">
    <path d="M 57.6 307.584 
L 414.72 307.584 
" style="fill: none; stroke: #000000; stroke-width: 0.8; stroke-linejoin: miter; stroke-linecap: square"/>
   </g>
   <g id="patch_6">
    <path d="M 57.6 41.472 
L 414.72 41.472 
" style="fill: none; stroke: #000000; stroke-width: 0.8; stroke-linejoin: miter; stroke-linecap: square"/>
   </g>
   <g id="text_17">
    <!-- Population's average and best fitness -->
    <g transform="translate(123.529687 35.472) scale(0.12 -0.12)">
     <defs>
      <path id="DejaVuSans-50" d="M 1259 4147 
L 1259 2394 
L 2053 2394 
Q 2494 2394 2734 2622 
Q 2975 2850 2975 3272 
Q 2975 3691 2734 3919 
Q 2494 4147 2053 4147 
L 1259 4147 
z
M 628 4666 
L 2053 4666 
Q 2838 4666 3239 4311 
Q 3641 3956 3641 3272 
Q 3641 2581 3239 2228 
Q 2838 1875 2053 1875 
L 1259 1875 
L 1259 0 
L 628 0 
L 628 4666 
z
" transform="scale(0.015625)"/>
      <path id="DejaVuSans-70" d="M 1159 525 
L 1159 -1331 
L 581 -1331 
L 581 3500 
L 1159 3500 
L 1159 2969 
Q 1341 3281 1617 3432 
Q 1894 3584 2278 3584 
Q 2916 3584 3314 3078 
Q 3713 2572 3713 1747 
Q 3713 922 3314 415 
Q 2916 -91 2278 -91 
Q 1894 -91 1617 61 
Q 1341 213 1159 525 
z
M 3116 1747 
Q 3116 2381 2855 2742 
Q 2594 3103 2138 3103 
Q 1681 3103 1420 2742 
Q 1159 2381 1159 1747 
Q 1159 1113 1420 752 
Q 1681 391 2138 391 
Q 2594 391 2855 752 
Q 3116 1113 3116 1747 
z
" transform="scale(0.015625)"/>
      <path id="DejaVuSans-75" d="M 544 1381 
L 544 3500 
L 1119 3500 
L 1119 1403 
Q 1119 906 1312 657 
Q 1506 409 1894 409 
Q 2359 409 2629 706 
Q 2900 1003 2900 1516 
L 2900 3500 
L 3475 3500 
L 3475 0 
L 2900 0 
L 2900 538 
Q 2691 219 2414 64 
Q 2138 -91 1772 -91 
Q 1169 -91 856 284 
Q 544 659 544 1381 
z
M 1991 3584 
L 1991 3584 
z
" transform="scale(0.015625)"/>
      <path id="DejaVuSans-6c" d="M 603 4863 
L 1178 4863 
L 1178 0 
L 603 0 
L 603 4863 
z
" transform="scale(0.015625)"/>
      <path id="DejaVuSans-27" d="M 1147 4666 
L 1147 2931 
L 616 2931 
L 616 4666 
L 1147 4666 
z
" transform="scale(0.015625)"/>
      <path id="DejaVuSans-20" transform="scale(0.015625)"/>
      <path id="DejaVuSans-76" d="M 191 3500 
L 800 3500 
L 1894 563 
L 2988 3500 
L 3597 3500 
L 2284 0 
L 1503 0 
L 191 3500 
z
" transform="scale(0.015625)"/>
      <path id="DejaVuSans-67" d="M 2906 1791 
Q 2906 2416 2648 2759 
Q 2391 3103 1925 3103 
Q 1463 3103 1205 2759 
Q 947 2416 947 1791 
Q 947 1169 1205 825 
Q 1463 481 1925 481 
Q 2391 481 2648 825 
Q 2906 1169 2906 1791 
z
M 3481 434 
Q 3481 -459 3084 -895 
Q 2688 -1331 1869 -1331 
Q 1566 -1331 1297 -1286 
Q 1028 -1241 775 -1147 
L 775 -588 
Q 1028 -725 1275 -790 
Q 1522 -856 1778 -856 
Q 2344 -856 2625 -561 
Q 2906 -266 2906 331 
L 2906 616 
Q 2728 306 2450 153 
Q 2172 0 1784 0 
Q 1141 0 747 490 
Q 353 981 353 1791 
Q 353 2603 747 3093 
Q 1141 3584 1784 3584 
Q 2172 3584 2450 3431 
Q 2728 3278 2906 2969 
L 2906 3500 
L 3481 3500 
L 3481 434 
z
" transform="scale(0.015625)"/>
      <path id="DejaVuSans-64" d="M 2906 2969 
L 2906 4863 
L 3481 4863 
L 3481 0 
L 2906 0 
L 2906 525 
Q 2725 213 2448 61 
Q 2172 -91 1784 -91 
Q 1150 -91 751 415 
Q 353 922 353 1747 
Q 353 2572 751 3078 
Q 1150 3584 1784 3584 
Q 2172 3584 2448 3432 
Q 2725 3281 2906 2969 
z
M 947 1747 
Q 947 1113 1208 752 
Q 1469 391 1925 391 
Q 2381 391 2643 752 
Q 2906 1113 2906 1747 
Q 2906 2381 2643 2742 
Q 2381 3103 1925 3103 
Q 1469 3103 1208 2742 
Q 947 2381 947 1747 
z
" transform="scale(0.015625)"/>
      <path id="DejaVuSans-62" d="M 3116 1747 
Q 3116 2381 2855 2742 
Q 2594 3103 2138 3103 
Q 1681 3103 1420 2742 
Q 1159 2381 1159 1747 
Q 1159 1113 1420 752 
Q 1681 391 2138 391 
Q 2594 391 2855 752 
Q 3116 1113 3116 1747 
z
M 1159 2969 
Q 1341 3281 1617 3432 
Q 1894 3584 2278 3584 
Q 2916 3584 3314 3078 
Q 3713 2572 3713 1747 
Q 3713 922 3314 415 
Q 2916 -91 2278 -91 
Q 1894 -91 1617 61 
Q 1341 213 1159 525 
L 1159 0 
L 581 0 
L 581 4863 
L 1159 4863 
L 1159 2969 
z
" transform="scale(0.015625)"/>
      <path id="DejaVuSans-66" d="M 2375 4863 
L 2375 4384 
L 1825 4384 
Q 1516 4384 1395 4259 
Q 1275 4134 1275 3809 
L 1275 3500 
L 2222 3500 
L 2222 3053 
L 1275 3053 
L 1275 0 
L 697 0 
L 697 3053 
L 147 3053 
L 147 3500 
L 697 3500 
L 697 3744 
Q 697 4328 969 4595 
Q 1241 4863 1831 4863 
L 2375 4863 
z
" transform="scale(0.015625)"/>
     </defs>
     <use xlink:href="#DejaVuSans-50"/>
     <use xlink:href="#DejaVuSans-6f" x="56.677734"/>
     <use xlink:href="#DejaVuSans-70" x="117.859375"/>
     <use xlink:href="#DejaVuSans-75" x="181.335938"/>
     <use xlink:href="#DejaVuSans-6c" x="244.714844"/>
     <use xlink:href="#DejaVuSans-61" x="272.498047"/>
     <use xlink:href="#DejaVuSans-74" x="333.777344"/>
     <use xlink:href="#DejaVuSans-69" x="372.986328"/>
     <use xlink:href="#DejaVuSans-6f" x="400.769531"/>
     <use xlink:href="#DejaVuSans-6e" x="461.951172"/>
     <use xlink:href="#DejaVuSans-27" x="525.330078"/>
     <use xlink:href="#DejaVuSans-73" x="552.820312"/>
     <use xlink:href="#DejaVuSans-20" x="604.919922"/>
     <use xlink:href="#DejaVuSans-61" x="636.707031"/>
     <use xlink:href="#DejaVuSans-76" x="697.986328"/>
     <use xlink:href="#DejaVuSans-65" x="757.166016"/>
     <use xlink:href="#DejaVuSans-72" x="818.689453"/>
     <use xlink:href="#DejaVuSans-61" x="859.802734"/>
     <use xlink:href="#DejaVuSans-67" x="921.082031"/>
     <use xlink:href="#DejaVuSans-65" x="984.558594"/>
     <use xlink:href="#DejaVuSans-20" x="1046.082031"/>
     <use xlink:href="#DejaVuSans-61" x="1077.869141"/>
     <use xlink:href="#DejaVuSans-6e" x="1139.148438"/>
     <use xlink:href="#DejaVuSans-64" x="1202.527344"/>
     <use xlink:href="#DejaVuSans-20" x="1266.003906"/>
     <use xlink:href="#DejaVuSans-62" x="1297.791016"/>
     <use xlink:href="#DejaVuSans-65" x="1361.267578"/>
     <use xlink:href="#DejaVuSans-73" x="1422.791016"/>
     <use xlink:href="#DejaVuSans-74" x="1474.890625"/>
     <use xlink:href="#DejaVuSans-20" x="1514.099609"/>
     <use xlink:href="#DejaVuSans-66" x="1545.886719"/>
     <use xlink:href="#DejaVuSans-69" x="1581.091797"/>
     <use xlink:href="#DejaVuSans-74" x="1608.875"/>
     <use xlink:href="#DejaVuSans-6e" x="1648.083984"/>
     <use xlink:href="#DejaVuSans-65" x="1711.462891"/>
     <use xlink:href="#DejaVuSans-73" x="1772.986328"/>
     <use xlink:href="#DejaVuSans-73" x="1825.085938"/>
    </g>
   </g>
   <g id="legend_1">
    <g id="patch_7">
     <path d="M 334.779375 205.38425 
L 407.72 205.38425 
Q 409.72 205.38425 409.72 203.38425 
L 409.72 145.67175 
Q 409.72 143.67175 407.72 143.67175 
L 334.779375 143.67175 
Q 332.779375 143.67175 332.779375 145.67175 
L 332.779375 203.38425 
Q 332.779375 205.38425 334.779375 205.38425 
z
" style="fill: #ffffff; opacity: 0.8; stroke: #cccccc; stroke-linejoin: miter"/>
    </g>
    <g id="line2d_33">
     <path d="M 336.779375 151.770188 
L 346.779375 151.770188 
L 356.779375 151.770188 
" style="fill: none; stroke: #0000ff; stroke-width: 1.5; stroke-linecap: square"/>
    </g>
    <g id="text_18">
     <!-- average -->
     <g transform="translate(364.779375 155.270188) scale(0.1 -0.1)">
      <use xlink:href="#DejaVuSans-61"/>
      <use xlink:href="#DejaVuSans-76" x="61.279297"/>
      <use xlink:href="#DejaVuSans-65" x="120.458984"/>
      <use xlink:href="#DejaVuSans-72" x="181.982422"/>
      <use xlink:href="#DejaVuSans-61" x="223.095703"/>
      <use xlink:href="#DejaVuSans-67" x="284.375"/>
      <use xlink:href="#DejaVuSans-65" x="347.851562"/>
     </g>
    </g>
    <g id="line2d_34">
     <path d="M 336.779375 166.448313 
L 346.779375 166.448313 
L 356.779375 166.448313 
" style="fill: none; stroke-dasharray: 9.6,2.4,1.5,2.4; stroke-dashoffset: 0; stroke: #008000; stroke-width: 1.5"/>
    </g>
    <g id="text_19">
     <!-- -1 sd -->
     <g transform="translate(364.779375 169.948313) scale(0.1 -0.1)">
      <defs>
       <path id="DejaVuSans-2d" d="M 313 2009 
L 1997 2009 
L 1997 1497 
L 313 1497 
L 313 2009 
z
" transform="scale(0.015625)"/>
      </defs>
      <use xlink:href="#DejaVuSans-2d"/>
      <use xlink:href="#DejaVuSans-31" x="36.083984"/>
      <use xlink:href="#DejaVuSans-20" x="99.707031"/>
      <use xlink:href="#DejaVuSans-73" x="131.494141"/>
      <use xlink:href="#DejaVuSans-64" x="183.59375"/>
     </g>
    </g>
    <g id="line2d_35">
     <path d="M 336.779375 181.126438 
L 346.779375 181.126438 
L 356.779375 181.126438 
" style="fill: none; stroke-dasharray: 9.6,2.4,1.5,2.4; stroke-dashoffset: 0; stroke: #008000; stroke-width: 1.5"/>
    </g>
    <g id="text_20">
     <!-- +1 sd -->
     <g transform="translate(364.779375 184.626438) scale(0.1 -0.1)">
      <defs>
       <path id="DejaVuSans-2b" d="M 2944 4013 
L 2944 2272 
L 4684 2272 
L 4684 1741 
L 2944 1741 
L 2944 0 
L 2419 0 
L 2419 1741 
L 678 1741 
L 678 2272 
L 2419 2272 
L 2419 4013 
L 2944 4013 
z
" transform="scale(0.015625)"/>
      </defs>
      <use xlink:href="#DejaVuSans-2b"/>
      <use xlink:href="#DejaVuSans-31" x="83.789062"/>
      <use xlink:href="#DejaVuSans-20" x="147.412109"/>
      <use xlink:href="#DejaVuSans-73" x="179.199219"/>
      <use xlink:href="#DejaVuSans-64" x="231.298828"/>
     </g>
    </g>
    <g id="line2d_36">
     <path d="M 336.779375 195.804563 
L 346.779375 195.804563 
L 356.779375 195.804563 
" style="fill: none; stroke: #ff0000; stroke-width: 1.5; stroke-linecap: square"/>
    </g>
    <g id="text_21">
     <!-- best -->
     <g transform="translate(364.779375 199.304563) scale(0.1 -0.1)">
      <use xlink:href="#DejaVuSans-62"/>
      <use xlink:href="#DejaVuSans-65" x="63.476562"/>
      <use xlink:href="#DejaVuSans-73" x="125"/>
      <use xlink:href="#DejaVuSans-74" x="177.099609"/>
     </g>
    </g>
   </g>
  </g>
 </g>
 <defs>
  <clipPath id="p3828ba550c">
   <rect x="57.6" y="41.472" width="357.12" height="266.112"/>
  </clipPath>
 </defs>
</svg>
