<?xml version="1.0" encoding="utf-8" standalone="no"?>
<!DOCTYPE svg PUBLIC "-//W3C//DTD SVG 1.1//EN"
  "http://www.w3.org/Graphics/SVG/1.1/DTD/svg11.dtd">
<svg xmlns:xlink="http://www.w3.org/1999/xlink" width="460.8pt" height="345.6pt" viewBox="0 0 460.8 345.6" xmlns="http://www.w3.org/2000/svg" version="1.1">
 <metadata>
  <rdf:RDF xmlns:dc="http://purl.org/dc/elements/1.1/" xmlns:cc="http://creativecommons.org/ns#" xmlns:rdf="http://www.w3.org/1999/02/22-rdf-syntax-ns#">
   <cc:Work>
    <dc:type rdf:resource="http://purl.org/dc/dcmitype/StillImage"/>
    <dc:date>2024-07-22T13:40:10.595347</dc:date>
    <dc:format>image/svg+xml</dc:format>
    <dc:creator>
     <cc:Agent>
      <dc:title>Matplotlib v3.9.1, https://matplotlib.org/</dc:title>
     </cc:Agent>
    </dc:creator>
   </cc:Work>
  </rdf:RDF>
 </metadata>
 <defs>
  <style type="text/css">*{stroke-linejoin: round; stroke-linecap: butt}</style>
 </defs>
 <g id="figure_1">
  <g id="patch_1">
   <path d="M 0 345.6 
L 460.8 345.6 
L 460.8 0 
L 0 0 
z
" style="fill: #ffffff"/>
  </g>
  <g id="axes_1">
   <g id="patch_2">
    <path d="M 57.6 307.584 
L 414.72 307.584 
L 414.72 41.472 
L 57.6 41.472 
z
" style="fill: #ffffff"/>
   </g>
   <g id="matplotlib.axis_1">
    <g id="xtick_1">
     <g id="line2d_1">
      <path d="M 73.832727 307.584 
L 73.832727 41.472 
" clip-path="url(#p38584cc35d)" style="fill: none; stroke: #b0b0b0; stroke-width: 0.8; stroke-linecap: square"/>
     </g>
     <g id="line2d_2">
      <defs>
       <path id="ma5313fc8b6" d="M 0 0 
L 0 3.5 
" style="stroke: #000000; stroke-width: 0.8"/>
      </defs>
      <g>
       <use xlink:href="#ma5313fc8b6" x="73.832727" y="307.584" style="stroke: #000000; stroke-width: 0.8"/>
      </g>
     </g>
     <g id="text_1">
      <!-- 0 -->
      <g transform="translate(70.651477 322.182437) scale(0.1 -0.1)">
       <defs>
        <path id="DejaVuSans-30" d="M 2034 4250 
Q 1547 4250 1301 3770 
Q 1056 3291 1056 2328 
Q 1056 1369 1301 889 
Q 1547 409 2034 409 
Q 2525 409 2770 889 
Q 3016 1369 3016 2328 
Q 3016 3291 2770 3770 
Q 2525 4250 2034 4250 
z
M 2034 4750 
Q 2819 4750 3233 4129 
Q 3647 3509 3647 2328 
Q 3647 1150 3233 529 
Q 2819 -91 2034 -91 
Q 1250 -91 836 529 
Q 422 1150 422 2328 
Q 422 3509 836 4129 
Q 1250 4750 2034 4750 
z
" transform="scale(0.015625)"/>
       </defs>
       <use xlink:href="#DejaVuSans-30"/>
      </g>
     </g>
    </g>
    <g id="xtick_2">
     <g id="line2d_3">
      <path d="M 128.122785 307.584 
L 128.122785 41.472 
" clip-path="url(#p38584cc35d)" style="fill: none; stroke: #b0b0b0; stroke-width: 0.8; stroke-linecap: square"/>
     </g>
     <g id="line2d_4">
      <g>
       <use xlink:href="#ma5313fc8b6" x="128.122785" y="307.584" style="stroke: #000000; stroke-width: 0.8"/>
      </g>
     </g>
     <g id="text_2">
      <!-- 50 -->
      <g transform="translate(121.760285 322.182437) scale(0.1 -0.1)">
       <defs>
        <path id="DejaVuSans-35" d="M 691 4666 
L 3169 4666 
L 3169 4134 
L 1269 4134 
L 1269 2991 
Q 1406 3038 1543 3061 
Q 1681 3084 1819 3084 
Q 2600 3084 3056 2656 
Q 3513 2228 3513 1497 
Q 3513 744 3044 326 
Q 2575 -91 1722 -91 
Q 1428 -91 1123 -41 
Q 819 9 494 109 
L 494 744 
Q 775 591 1075 516 
Q 1375 441 1709 441 
Q 2250 441 2565 725 
Q 2881 1009 2881 1497 
Q 2881 1984 2565 2268 
Q 2250 2553 1709 2553 
Q 1456 2553 1204 2497 
Q 953 2441 691 2322 
L 691 4666 
z
" transform="scale(0.015625)"/>
       </defs>
       <use xlink:href="#DejaVuSans-35"/>
       <use xlink:href="#DejaVuSans-30" x="63.623047"/>
      </g>
     </g>
    </g>
    <g id="xtick_3">
     <g id="line2d_5">
      <path d="M 182.412843 307.584 
L 182.412843 41.472 
" clip-path="url(#p38584cc35d)" style="fill: none; stroke: #b0b0b0; stroke-width: 0.8; stroke-linecap: square"/>
     </g>
     <g id="line2d_6">
      <g>
       <use xlink:href="#ma5313fc8b6" x="182.412843" y="307.584" style="stroke: #000000; stroke-width: 0.8"/>
      </g>
     </g>
     <g id="text_3">
      <!-- 100 -->
      <g transform="translate(172.869093 322.182437) scale(0.1 -0.1)">
       <defs>
        <path id="DejaVuSans-31" d="M 794 531 
L 1825 531 
L 1825 4091 
L 703 3866 
L 703 4441 
L 1819 4666 
L 2450 4666 
L 2450 531 
L 3481 531 
L 3481 0 
L 794 0 
L 794 531 
z
" transform="scale(0.015625)"/>
       </defs>
       <use xlink:href="#DejaVuSans-31"/>
       <use xlink:href="#DejaVuSans-30" x="63.623047"/>
       <use xlink:href="#DejaVuSans-30" x="127.246094"/>
      </g>
     </g>
    </g>
    <g id="xtick_4">
     <g id="line2d_7">
      <path d="M 236.702901 307.584 
L 236.702901 41.472 
" clip-path="url(#p38584cc35d)" style="fill: none; stroke: #b0b0b0; stroke-width: 0.8; stroke-linecap: square"/>
     </g>
     <g id="line2d_8">
      <g>
       <use xlink:href="#ma5313fc8b6" x="236.702901" y="307.584" style="stroke: #000000; stroke-width: 0.8"/>
      </g>
     </g>
     <g id="text_4">
      <!-- 150 -->
      <g transform="translate(227.159151 322.182437) scale(0.1 -0.1)">
       <use xlink:href="#DejaVuSans-31"/>
       <use xlink:href="#DejaVuSans-35" x="63.623047"/>
       <use xlink:href="#DejaVuSans-30" x="127.246094"/>
      </g>
     </g>
    </g>
    <g id="xtick_5">
     <g id="line2d_9">
      <path d="M 290.992958 307.584 
L 290.992958 41.472 
" clip-path="url(#p38584cc35d)" style="fill: none; stroke: #b0b0b0; stroke-width: 0.8; stroke-linecap: square"/>
     </g>
     <g id="line2d_10">
      <g>
       <use xlink:href="#ma5313fc8b6" x="290.992958" y="307.584" style="stroke: #000000; stroke-width: 0.8"/>
      </g>
     </g>
     <g id="text_5">
      <!-- 200 -->
      <g transform="translate(281.449208 322.182437) scale(0.1 -0.1)">
       <defs>
        <path id="DejaVuSans-32" d="M 1228 531 
L 3431 531 
L 3431 0 
L 469 0 
L 469 531 
Q 828 903 1448 1529 
Q 2069 2156 2228 2338 
Q 2531 2678 2651 2914 
Q 2772 3150 2772 3378 
Q 2772 3750 2511 3984 
Q 2250 4219 1831 4219 
Q 1534 4219 1204 4116 
Q 875 4013 500 3803 
L 500 4441 
Q 881 4594 1212 4672 
Q 1544 4750 1819 4750 
Q 2544 4750 2975 4387 
Q 3406 4025 3406 3419 
Q 3406 3131 3298 2873 
Q 3191 2616 2906 2266 
Q 2828 2175 2409 1742 
Q 1991 1309 1228 531 
z
" transform="scale(0.015625)"/>
       </defs>
       <use xlink:href="#DejaVuSans-32"/>
       <use xlink:href="#DejaVuSans-30" x="63.623047"/>
       <use xlink:href="#DejaVuSans-30" x="127.246094"/>
      </g>
     </g>
    </g>
    <g id="xtick_6">
     <g id="line2d_11">
      <path d="M 345.283016 307.584 
L 345.283016 41.472 
" clip-path="url(#p38584cc35d)" style="fill: none; stroke: #b0b0b0; stroke-width: 0.8; stroke-linecap: square"/>
     </g>
     <g id="line2d_12">
      <g>
       <use xlink:href="#ma5313fc8b6" x="345.283016" y="307.584" style="stroke: #000000; stroke-width: 0.8"/>
      </g>
     </g>
     <g id="text_6">
      <!-- 250 -->
      <g transform="translate(335.739266 322.182437) scale(0.1 -0.1)">
       <use xlink:href="#DejaVuSans-32"/>
       <use xlink:href="#DejaVuSans-35" x="63.623047"/>
       <use xlink:href="#DejaVuSans-30" x="127.246094"/>
      </g>
     </g>
    </g>
    <g id="xtick_7">
     <g id="line2d_13">
      <path d="M 399.573074 307.584 
L 399.573074 41.472 
" clip-path="url(#p38584cc35d)" style="fill: none; stroke: #b0b0b0; stroke-width: 0.8; stroke-linecap: square"/>
     </g>
     <g id="line2d_14">
      <g>
       <use xlink:href="#ma5313fc8b6" x="399.573074" y="307.584" style="stroke: #000000; stroke-width: 0.8"/>
      </g>
     </g>
     <g id="text_7">
      <!-- 300 -->
      <g transform="translate(390.029324 322.182437) scale(0.1 -0.1)">
       <defs>
        <path id="DejaVuSans-33" d="M 2597 2516 
Q 3050 2419 3304 2112 
Q 3559 1806 3559 1356 
Q 3559 666 3084 287 
Q 2609 -91 1734 -91 
Q 1441 -91 1130 -33 
Q 819 25 488 141 
L 488 750 
Q 750 597 1062 519 
Q 1375 441 1716 441 
Q 2309 441 2620 675 
Q 2931 909 2931 1356 
Q 2931 1769 2642 2001 
Q 2353 2234 1838 2234 
L 1294 2234 
L 1294 2753 
L 1863 2753 
Q 2328 2753 2575 2939 
Q 2822 3125 2822 3475 
Q 2822 3834 2567 4026 
Q 2313 4219 1838 4219 
Q 1578 4219 1281 4162 
Q 984 4106 628 3988 
L 628 4550 
Q 988 4650 1302 4700 
Q 1616 4750 1894 4750 
Q 2613 4750 3031 4423 
Q 3450 4097 3450 3541 
Q 3450 3153 3228 2886 
Q 3006 2619 2597 2516 
z
" transform="scale(0.015625)"/>
       </defs>
       <use xlink:href="#DejaVuSans-33"/>
       <use xlink:href="#DejaVuSans-30" x="63.623047"/>
       <use xlink:href="#DejaVuSans-30" x="127.246094"/>
      </g>
     </g>
    </g>
    <g id="text_8">
     <!-- Generations -->
     <g transform="translate(205.662344 335.860562) scale(0.1 -0.1)">
      <defs>
       <path id="DejaVuSans-47" d="M 3809 666 
L 3809 1919 
L 2778 1919 
L 2778 2438 
L 4434 2438 
L 4434 434 
Q 4069 175 3628 42 
Q 3188 -91 2688 -91 
Q 1594 -91 976 548 
Q 359 1188 359 2328 
Q 359 3472 976 4111 
Q 1594 4750 2688 4750 
Q 3144 4750 3555 4637 
Q 3966 4525 4313 4306 
L 4313 3634 
Q 3963 3931 3569 4081 
Q 3175 4231 2741 4231 
Q 1884 4231 1454 3753 
Q 1025 3275 1025 2328 
Q 1025 1384 1454 906 
Q 1884 428 2741 428 
Q 3075 428 3337 486 
Q 3600 544 3809 666 
z
" transform="scale(0.015625)"/>
       <path id="DejaVuSans-65" d="M 3597 1894 
L 3597 1613 
L 953 1613 
Q 991 1019 1311 708 
Q 1631 397 2203 397 
Q 2534 397 2845 478 
Q 3156 559 3463 722 
L 3463 178 
Q 3153 47 2828 -22 
Q 2503 -91 2169 -91 
Q 1331 -91 842 396 
Q 353 884 353 1716 
Q 353 2575 817 3079 
Q 1281 3584 2069 3584 
Q 2775 3584 3186 3129 
Q 3597 2675 3597 1894 
z
M 3022 2063 
Q 3016 2534 2758 2815 
Q 2500 3097 2075 3097 
Q 1594 3097 1305 2825 
Q 1016 2553 972 2059 
L 3022 2063 
z
" transform="scale(0.015625)"/>
       <path id="DejaVuSans-6e" d="M 3513 2113 
L 3513 0 
L 2938 0 
L 2938 2094 
Q 2938 2591 2744 2837 
Q 2550 3084 2163 3084 
Q 1697 3084 1428 2787 
Q 1159 2491 1159 1978 
L 1159 0 
L 581 0 
L 581 3500 
L 1159 3500 
L 1159 2956 
Q 1366 3272 1645 3428 
Q 1925 3584 2291 3584 
Q 2894 3584 3203 3211 
Q 3513 2838 3513 2113 
z
" transform="scale(0.015625)"/>
       <path id="DejaVuSans-72" d="M 2631 2963 
Q 2534 3019 2420 3045 
Q 2306 3072 2169 3072 
Q 1681 3072 1420 2755 
Q 1159 2438 1159 1844 
L 1159 0 
L 581 0 
L 581 3500 
L 1159 3500 
L 1159 2956 
Q 1341 3275 1631 3429 
Q 1922 3584 2338 3584 
Q 2397 3584 2469 3576 
Q 2541 3569 2628 3553 
L 2631 2963 
z
" transform="scale(0.015625)"/>
       <path id="DejaVuSans-61" d="M 2194 1759 
Q 1497 1759 1228 1600 
Q 959 1441 959 1056 
Q 959 750 1161 570 
Q 1363 391 1709 391 
Q 2188 391 2477 730 
Q 2766 1069 2766 1631 
L 2766 1759 
L 2194 1759 
z
M 3341 1997 
L 3341 0 
L 2766 0 
L 2766 531 
Q 2569 213 2275 61 
Q 1981 -91 1556 -91 
Q 1019 -91 701 211 
Q 384 513 384 1019 
Q 384 1609 779 1909 
Q 1175 2209 1959 2209 
L 2766 2209 
L 2766 2266 
Q 2766 2663 2505 2880 
Q 2244 3097 1772 3097 
Q 1472 3097 1187 3025 
Q 903 2953 641 2809 
L 641 3341 
Q 956 3463 1253 3523 
Q 1550 3584 1831 3584 
Q 2591 3584 2966 3190 
Q 3341 2797 3341 1997 
z
" transform="scale(0.015625)"/>
       <path id="DejaVuSans-74" d="M 1172 4494 
L 1172 3500 
L 2356 3500 
L 2356 3053 
L 1172 3053 
L 1172 1153 
Q 1172 725 1289 603 
Q 1406 481 1766 481 
L 2356 481 
L 2356 0 
L 1766 0 
Q 1100 0 847 248 
Q 594 497 594 1153 
L 594 3053 
L 172 3053 
L 172 3500 
L 594 3500 
L 594 4494 
L 1172 4494 
z
" transform="scale(0.015625)"/>
       <path id="DejaVuSans-69" d="M 603 3500 
L 1178 3500 
L 1178 0 
L 603 0 
L 603 3500 
z
M 603 4863 
L 1178 4863 
L 1178 4134 
L 603 4134 
L 603 4863 
z
" transform="scale(0.015625)"/>
       <path id="DejaVuSans-6f" d="M 1959 3097 
Q 1497 3097 1228 2736 
Q 959 2375 959 1747 
Q 959 1119 1226 758 
Q 1494 397 1959 397 
Q 2419 397 2687 759 
Q 2956 1122 2956 1747 
Q 2956 2369 2687 2733 
Q 2419 3097 1959 3097 
z
M 1959 3584 
Q 2709 3584 3137 3096 
Q 3566 2609 3566 1747 
Q 3566 888 3137 398 
Q 2709 -91 1959 -91 
Q 1206 -91 779 398 
Q 353 888 353 1747 
Q 353 2609 779 3096 
Q 1206 3584 1959 3584 
z
" transform="scale(0.015625)"/>
       <path id="DejaVuSans-73" d="M 2834 3397 
L 2834 2853 
Q 2591 2978 2328 3040 
Q 2066 3103 1784 3103 
Q 1356 3103 1142 2972 
Q 928 2841 928 2578 
Q 928 2378 1081 2264 
Q 1234 2150 1697 2047 
L 1894 2003 
Q 2506 1872 2764 1633 
Q 3022 1394 3022 966 
Q 3022 478 2636 193 
Q 2250 -91 1575 -91 
Q 1294 -91 989 -36 
Q 684 19 347 128 
L 347 722 
Q 666 556 975 473 
Q 1284 391 1588 391 
Q 1994 391 2212 530 
Q 2431 669 2431 922 
Q 2431 1156 2273 1281 
Q 2116 1406 1581 1522 
L 1381 1569 
Q 847 1681 609 1914 
Q 372 2147 372 2553 
Q 372 3047 722 3315 
Q 1072 3584 1716 3584 
Q 2034 3584 2315 3537 
Q 2597 3491 2834 3397 
z
" transform="scale(0.015625)"/>
      </defs>
      <use xlink:href="#DejaVuSans-47"/>
      <use xlink:href="#DejaVuSans-65" x="77.490234"/>
      <use xlink:href="#DejaVuSans-6e" x="139.013672"/>
      <use xlink:href="#DejaVuSans-65" x="202.392578"/>
      <use xlink:href="#DejaVuSans-72" x="263.916016"/>
      <use xlink:href="#DejaVuSans-61" x="305.029297"/>
      <use xlink:href="#DejaVuSans-74" x="366.308594"/>
      <use xlink:href="#DejaVuSans-69" x="405.517578"/>
      <use xlink:href="#DejaVuSans-6f" x="433.300781"/>
      <use xlink:href="#DejaVuSans-6e" x="494.482422"/>
      <use xlink:href="#DejaVuSans-73" x="557.861328"/>
     </g>
    </g>
   </g>
   <g id="matplotlib.axis_2">
    <g id="ytick_1">
     <g id="line2d_15">
      <path d="M 57.6 298.353741 
L 414.72 298.353741 
" clip-path="url(#p38584cc35d)" style="fill: none; stroke: #b0b0b0; stroke-width: 0.8; stroke-linecap: square"/>
     </g>
     <g id="line2d_16">
      <defs>
       <path id="ma66cafe5fa" d="M 0 0 
L -3.5 0 
" style="stroke: #000000; stroke-width: 0.8"/>
      </defs>
      <g>
       <use xlink:href="#ma66cafe5fa" x="57.6" y="298.353741" style="stroke: #000000; stroke-width: 0.8"/>
      </g>
     </g>
     <g id="text_9">
      <!-- −1600 -->
      <g transform="translate(16.770313 302.15296) scale(0.1 -0.1)">
       <defs>
        <path id="DejaVuSans-2212" d="M 678 2272 
L 4684 2272 
L 4684 1741 
L 678 1741 
L 678 2272 
z
" transform="scale(0.015625)"/>
        <path id="DejaVuSans-36" d="M 2113 2584 
Q 1688 2584 1439 2293 
Q 1191 2003 1191 1497 
Q 1191 994 1439 701 
Q 1688 409 2113 409 
Q 2538 409 2786 701 
Q 3034 994 3034 1497 
Q 3034 2003 2786 2293 
Q 2538 2584 2113 2584 
z
M 3366 4563 
L 3366 3988 
Q 3128 4100 2886 4159 
Q 2644 4219 2406 4219 
Q 1781 4219 1451 3797 
Q 1122 3375 1075 2522 
Q 1259 2794 1537 2939 
Q 1816 3084 2150 3084 
Q 2853 3084 3261 2657 
Q 3669 2231 3669 1497 
Q 3669 778 3244 343 
Q 2819 -91 2113 -91 
Q 1303 -91 875 529 
Q 447 1150 447 2328 
Q 447 3434 972 4092 
Q 1497 4750 2381 4750 
Q 2619 4750 2861 4703 
Q 3103 4656 3366 4563 
z
" transform="scale(0.015625)"/>
       </defs>
       <use xlink:href="#DejaVuSans-2212"/>
       <use xlink:href="#DejaVuSans-31" x="83.789062"/>
       <use xlink:href="#DejaVuSans-36" x="147.412109"/>
       <use xlink:href="#DejaVuSans-30" x="211.035156"/>
       <use xlink:href="#DejaVuSans-30" x="274.658203"/>
      </g>
     </g>
    </g>
    <g id="ytick_2">
     <g id="line2d_17">
      <path d="M 57.6 262.019967 
L 414.72 262.019967 
" clip-path="url(#p38584cc35d)" style="fill: none; stroke: #b0b0b0; stroke-width: 0.8; stroke-linecap: square"/>
     </g>
     <g id="line2d_18">
      <g>
       <use xlink:href="#ma66cafe5fa" x="57.6" y="262.019967" style="stroke: #000000; stroke-width: 0.8"/>
      </g>
     </g>
     <g id="text_10">
      <!-- −1400 -->
      <g transform="translate(16.770313 265.819186) scale(0.1 -0.1)">
       <defs>
        <path id="DejaVuSans-34" d="M 2419 4116 
L 825 1625 
L 2419 1625 
L 2419 4116 
z
M 2253 4666 
L 3047 4666 
L 3047 1625 
L 3713 1625 
L 3713 1100 
L 3047 1100 
L 3047 0 
L 2419 0 
L 2419 1100 
L 313 1100 
L 313 1709 
L 2253 4666 
z
" transform="scale(0.015625)"/>
       </defs>
       <use xlink:href="#DejaVuSans-2212"/>
       <use xlink:href="#DejaVuSans-31" x="83.789062"/>
       <use xlink:href="#DejaVuSans-34" x="147.412109"/>
       <use xlink:href="#DejaVuSans-30" x="211.035156"/>
       <use xlink:href="#DejaVuSans-30" x="274.658203"/>
      </g>
     </g>
    </g>
    <g id="ytick_3">
     <g id="line2d_19">
      <path d="M 57.6 225.686194 
L 414.72 225.686194 
" clip-path="url(#p38584cc35d)" style="fill: none; stroke: #b0b0b0; stroke-width: 0.8; stroke-linecap: square"/>
     </g>
     <g id="line2d_20">
      <g>
       <use xlink:href="#ma66cafe5fa" x="57.6" y="225.686194" style="stroke: #000000; stroke-width: 0.8"/>
      </g>
     </g>
     <g id="text_11">
      <!-- −1200 -->
      <g transform="translate(16.770313 229.485412) scale(0.1 -0.1)">
       <use xlink:href="#DejaVuSans-2212"/>
       <use xlink:href="#DejaVuSans-31" x="83.789062"/>
       <use xlink:href="#DejaVuSans-32" x="147.412109"/>
       <use xlink:href="#DejaVuSans-30" x="211.035156"/>
       <use xlink:href="#DejaVuSans-30" x="274.658203"/>
      </g>
     </g>
    </g>
    <g id="ytick_4">
     <g id="line2d_21">
      <path d="M 57.6 189.35242 
L 414.72 189.35242 
" clip-path="url(#p38584cc35d)" style="fill: none; stroke: #b0b0b0; stroke-width: 0.8; stroke-linecap: square"/>
     </g>
     <g id="line2d_22">
      <g>
       <use xlink:href="#ma66cafe5fa" x="57.6" y="189.35242" style="stroke: #000000; stroke-width: 0.8"/>
      </g>
     </g>
     <g id="text_12">
      <!-- −1000 -->
      <g transform="translate(16.770313 193.151638) scale(0.1 -0.1)">
       <use xlink:href="#DejaVuSans-2212"/>
       <use xlink:href="#DejaVuSans-31" x="83.789062"/>
       <use xlink:href="#DejaVuSans-30" x="147.412109"/>
       <use xlink:href="#DejaVuSans-30" x="211.035156"/>
       <use xlink:href="#DejaVuSans-30" x="274.658203"/>
      </g>
     </g>
    </g>
    <g id="ytick_5">
     <g id="line2d_23">
      <path d="M 57.6 153.018646 
L 414.72 153.018646 
" clip-path="url(#p38584cc35d)" style="fill: none; stroke: #b0b0b0; stroke-width: 0.8; stroke-linecap: square"/>
     </g>
     <g id="line2d_24">
      <g>
       <use xlink:href="#ma66cafe5fa" x="57.6" y="153.018646" style="stroke: #000000; stroke-width: 0.8"/>
      </g>
     </g>
     <g id="text_13">
      <!-- −800 -->
      <g transform="translate(23.132812 156.817865) scale(0.1 -0.1)">
       <defs>
        <path id="DejaVuSans-38" d="M 2034 2216 
Q 1584 2216 1326 1975 
Q 1069 1734 1069 1313 
Q 1069 891 1326 650 
Q 1584 409 2034 409 
Q 2484 409 2743 651 
Q 3003 894 3003 1313 
Q 3003 1734 2745 1975 
Q 2488 2216 2034 2216 
z
M 1403 2484 
Q 997 2584 770 2862 
Q 544 3141 544 3541 
Q 544 4100 942 4425 
Q 1341 4750 2034 4750 
Q 2731 4750 3128 4425 
Q 3525 4100 3525 3541 
Q 3525 3141 3298 2862 
Q 3072 2584 2669 2484 
Q 3125 2378 3379 2068 
Q 3634 1759 3634 1313 
Q 3634 634 3220 271 
Q 2806 -91 2034 -91 
Q 1263 -91 848 271 
Q 434 634 434 1313 
Q 434 1759 690 2068 
Q 947 2378 1403 2484 
z
M 1172 3481 
Q 1172 3119 1398 2916 
Q 1625 2713 2034 2713 
Q 2441 2713 2670 2916 
Q 2900 3119 2900 3481 
Q 2900 3844 2670 4047 
Q 2441 4250 2034 4250 
Q 1625 4250 1398 4047 
Q 1172 3844 1172 3481 
z
" transform="scale(0.015625)"/>
       </defs>
       <use xlink:href="#DejaVuSans-2212"/>
       <use xlink:href="#DejaVuSans-38" x="83.789062"/>
       <use xlink:href="#DejaVuSans-30" x="147.412109"/>
       <use xlink:href="#DejaVuSans-30" x="211.035156"/>
      </g>
     </g>
    </g>
    <g id="ytick_6">
     <g id="line2d_25">
      <path d="M 57.6 116.684872 
L 414.72 116.684872 
" clip-path="url(#p38584cc35d)" style="fill: none; stroke: #b0b0b0; stroke-width: 0.8; stroke-linecap: square"/>
     </g>
     <g id="line2d_26">
      <g>
       <use xlink:href="#ma66cafe5fa" x="57.6" y="116.684872" style="stroke: #000000; stroke-width: 0.8"/>
      </g>
     </g>
     <g id="text_14">
      <!-- −600 -->
      <g transform="translate(23.132812 120.484091) scale(0.1 -0.1)">
       <use xlink:href="#DejaVuSans-2212"/>
       <use xlink:href="#DejaVuSans-36" x="83.789062"/>
       <use xlink:href="#DejaVuSans-30" x="147.412109"/>
       <use xlink:href="#DejaVuSans-30" x="211.035156"/>
      </g>
     </g>
    </g>
    <g id="ytick_7">
     <g id="line2d_27">
      <path d="M 57.6 80.351098 
L 414.72 80.351098 
" clip-path="url(#p38584cc35d)" style="fill: none; stroke: #b0b0b0; stroke-width: 0.8; stroke-linecap: square"/>
     </g>
     <g id="line2d_28">
      <g>
       <use xlink:href="#ma66cafe5fa" x="57.6" y="80.351098" style="stroke: #000000; stroke-width: 0.8"/>
      </g>
     </g>
     <g id="text_15">
      <!-- −400 -->
      <g transform="translate(23.132812 84.150317) scale(0.1 -0.1)">
       <use xlink:href="#DejaVuSans-2212"/>
       <use xlink:href="#DejaVuSans-34" x="83.789062"/>
       <use xlink:href="#DejaVuSans-30" x="147.412109"/>
       <use xlink:href="#DejaVuSans-30" x="211.035156"/>
      </g>
     </g>
    </g>
    <g id="ytick_8">
     <g id="line2d_29">
      <path d="M 57.6 44.017324 
L 414.72 44.017324 
" clip-path="url(#p38584cc35d)" style="fill: none; stroke: #b0b0b0; stroke-width: 0.8; stroke-linecap: square"/>
     </g>
     <g id="line2d_30">
      <g>
       <use xlink:href="#ma66cafe5fa" x="57.6" y="44.017324" style="stroke: #000000; stroke-width: 0.8"/>
      </g>
     </g>
     <g id="text_16">
      <!-- −200 -->
      <g transform="translate(23.132812 47.816543) scale(0.1 -0.1)">
       <use xlink:href="#DejaVuSans-2212"/>
       <use xlink:href="#DejaVuSans-32" x="83.789062"/>
       <use xlink:href="#DejaVuSans-30" x="147.412109"/>
       <use xlink:href="#DejaVuSans-30" x="211.035156"/>
      </g>
     </g>
    </g>
    <g id="text_17">
     <!-- Fitness -->
     <g transform="translate(10.690625 191.845187) rotate(-90) scale(0.1 -0.1)">
      <defs>
       <path id="DejaVuSans-46" d="M 628 4666 
L 3309 4666 
L 3309 4134 
L 1259 4134 
L 1259 2759 
L 3109 2759 
L 3109 2228 
L 1259 2228 
L 1259 0 
L 628 0 
L 628 4666 
z
" transform="scale(0.015625)"/>
      </defs>
      <use xlink:href="#DejaVuSans-46"/>
      <use xlink:href="#DejaVuSans-69" x="50.269531"/>
      <use xlink:href="#DejaVuSans-74" x="78.052734"/>
      <use xlink:href="#DejaVuSans-6e" x="117.261719"/>
      <use xlink:href="#DejaVuSans-65" x="180.640625"/>
      <use xlink:href="#DejaVuSans-73" x="242.164062"/>
      <use xlink:href="#DejaVuSans-73" x="294.263672"/>
     </g>
    </g>
   </g>
   <g id="line2d_31">
    <path d="M 73.832727 267.412687 
L 74.918528 263.180402 
L 76.00433 261.855718 
L 77.090131 263.967318 
L 78.175932 262.386749 
L 80.347534 262.4242 
L 81.433335 260.910348 
L 82.519137 261.297002 
L 83.604938 259.585305 
L 84.690739 259.245325 
L 85.77654 259.871603 
L 86.862341 259.566559 
L 87.948142 257.730059 
L 89.033943 258.195007 
L 90.119745 257.646286 
L 91.205546 257.246953 
L 92.291347 256.448885 
L 93.377148 256.526212 
L 94.462949 256.232262 
L 95.54875 258.652699 
L 96.634552 257.25206 
L 97.720353 257.210771 
L 98.806154 256.618965 
L 99.891955 258.036367 
L 100.977756 256.607199 
L 102.063557 255.381663 
L 103.149358 257.019396 
L 104.23516 257.003517 
L 105.320961 257.946963 
L 106.406762 258.31059 
L 107.492563 257.573836 
L 108.578364 256.235792 
L 109.664165 258.331857 
L 110.749967 257.477743 
L 111.835768 257.881989 
L 112.921569 258.564849 
L 114.00737 258.916388 
L 115.093171 258.321677 
L 116.178972 258.243662 
L 117.264773 255.661613 
L 118.350575 256.101909 
L 119.436376 255.831522 
L 120.522177 256.980498 
L 121.607978 255.746796 
L 122.693779 255.05333 
L 123.77958 255.651748 
L 124.865382 256.800322 
L 125.951183 254.166988 
L 127.036984 255.351201 
L 128.122785 255.622664 
L 130.294387 259.110949 
L 131.380189 258.974697 
L 132.46599 259.972844 
L 133.551791 259.531012 
L 134.637592 259.672515 
L 135.723393 259.163951 
L 136.809194 260.489018 
L 137.894995 259.615732 
L 138.980797 260.25279 
L 140.066598 259.865176 
L 141.152399 260.995272 
L 142.2382 260.259119 
L 143.324001 261.009119 
L 144.409802 259.094044 
L 145.495604 260.447203 
L 146.581405 259.951484 
L 147.667206 259.062371 
L 148.753007 260.074497 
L 149.838808 258.981716 
L 150.924609 260.579735 
L 152.01041 259.898358 
L 153.096212 259.421167 
L 154.182013 259.158303 
L 155.267814 259.297795 
L 156.353615 259.05224 
L 157.439416 258.206224 
L 158.525217 260.176771 
L 159.611019 256.906236 
L 160.69682 259.441243 
L 161.782621 259.255223 
L 162.868422 258.672827 
L 163.954223 257.353103 
L 165.040024 256.650987 
L 166.125825 258.927697 
L 167.211627 257.536265 
L 168.297428 257.082855 
L 169.383229 256.802175 
L 170.46903 255.121072 
L 171.554831 255.563945 
L 172.640632 256.521884 
L 173.726434 256.142138 
L 174.812235 254.771858 
L 175.898036 254.607998 
L 178.069638 252.389896 
L 179.155439 252.647332 
L 180.24124 254.40344 
L 181.327042 253.451738 
L 182.412843 255.538001 
L 183.498644 253.470745 
L 184.584445 254.01522 
L 185.670246 254.350953 
L 186.756047 253.105028 
L 187.841849 254.99123 
L 188.92765 253.148073 
L 190.013451 253.697349 
L 191.099252 253.270509 
L 192.185053 253.651144 
L 193.270854 253.078051 
L 194.356656 251.886081 
L 195.442457 251.175021 
L 196.528258 252.694788 
L 197.614059 252.261321 
L 198.69986 254.332538 
L 199.785661 252.061911 
L 200.871462 253.990397 
L 201.957264 252.526978 
L 203.043065 251.55741 
L 204.128866 254.295576 
L 205.214667 253.964949 
L 207.386269 253.571034 
L 208.472071 253.070431 
L 209.557872 253.612349 
L 210.643673 253.717586 
L 211.729474 253.101508 
L 212.815275 253.443533 
L 213.901076 254.402339 
L 214.986877 255.163209 
L 216.072679 253.627099 
L 217.15848 256.01014 
L 218.244281 254.673147 
L 219.330082 254.0371 
L 220.415883 254.385259 
L 221.501684 254.598588 
L 222.587486 254.692996 
L 223.673287 255.172805 
L 224.759088 254.198578 
L 225.844889 256.682099 
L 226.93069 254.412018 
L 228.016491 256.190451 
L 229.102292 258.833281 
L 230.188094 257.977264 
L 231.273895 258.853118 
L 232.359696 258.159398 
L 233.445497 258.385637 
L 235.617099 258.442042 
L 236.702901 257.354377 
L 237.788702 257.930156 
L 238.874503 259.208437 
L 239.960304 258.711369 
L 241.046105 258.698224 
L 242.131906 258.362634 
L 243.217708 259.319972 
L 244.303509 259.442309 
L 245.38931 257.371468 
L 246.475111 257.870968 
L 247.560912 257.529526 
L 248.646713 258.634598 
L 249.732514 257.977708 
L 250.818316 258.338376 
L 251.904117 257.899801 
L 252.989918 257.031507 
L 254.075719 257.44067 
L 255.16152 256.963065 
L 256.247321 257.826401 
L 257.333123 255.922554 
L 258.418924 256.594542 
L 259.504725 256.623707 
L 260.590526 255.657215 
L 261.676327 255.657544 
L 262.762128 256.35963 
L 263.847929 254.188553 
L 264.933731 252.698871 
L 267.105333 253.528817 
L 268.191134 253.432928 
L 269.276935 253.043015 
L 270.362736 254.883765 
L 271.448538 254.256677 
L 272.534339 254.621547 
L 273.62014 254.204126 
L 274.705941 255.50003 
L 275.791742 253.376997 
L 276.877543 253.795781 
L 277.963344 253.875001 
L 279.049146 254.145561 
L 280.134947 252.615939 
L 281.220748 252.796896 
L 282.306549 253.700434 
L 283.39235 255.928581 
L 284.478151 254.593429 
L 285.563953 254.494123 
L 286.649754 254.55386 
L 288.821356 255.806835 
L 289.907157 255.209023 
L 290.992958 256.976296 
L 292.07876 256.470482 
L 293.164561 255.139204 
L 294.250362 256.448873 
L 295.336163 255.800469 
L 296.421964 255.601206 
L 297.507765 253.16413 
L 298.593566 255.591595 
L 299.679368 255.943151 
L 300.765169 256.943209 
L 301.85097 256.927518 
L 302.936771 257.593598 
L 304.022572 255.927418 
L 305.108373 254.934436 
L 306.194175 254.108885 
L 307.279976 256.195145 
L 308.365777 254.488456 
L 309.451578 257.483907 
L 310.537379 253.836325 
L 311.62318 254.113488 
L 312.708981 255.338133 
L 313.794783 255.64865 
L 315.966385 256.776759 
L 317.052186 256.020073 
L 318.137987 256.11347 
L 319.223788 255.942136 
L 320.30959 256.621051 
L 321.395391 256.112945 
L 322.481192 254.09145 
L 323.566993 256.182599 
L 324.652794 255.020483 
L 325.738595 256.880344 
L 326.824396 259.656443 
L 327.910198 259.274988 
L 328.995999 255.556205 
L 330.0818 258.019103 
L 331.167601 257.651391 
L 332.253402 255.861578 
L 333.339203 257.544402 
L 334.425005 257.20146 
L 335.510806 257.144871 
L 336.596607 258.041503 
L 337.682408 255.060168 
L 338.768209 257.129824 
L 339.85401 257.145795 
L 340.939811 258.83375 
L 342.025613 258.93681 
L 343.111414 255.962735 
L 344.197215 254.826304 
L 345.283016 255.323155 
L 346.368817 256.402647 
L 348.54042 256.133508 
L 349.626221 257.052836 
L 350.712022 254.706382 
L 351.797823 253.823604 
L 352.883624 253.611241 
L 353.969425 256.12219 
L 355.055227 256.445088 
L 356.141028 258.891933 
L 358.31263 256.931218 
L 359.398431 257.562963 
L 360.484232 257.495539 
L 361.570033 258.10802 
L 362.655835 259.326544 
L 363.741636 259.013332 
L 364.827437 259.107062 
L 365.913238 259.72538 
L 366.999039 259.193722 
L 368.08484 259.799041 
L 369.170642 259.260375 
L 370.256443 259.350179 
L 371.342244 259.027499 
L 372.428045 259.339138 
L 373.513846 259.334853 
L 374.599647 259.786857 
L 375.685448 258.992161 
L 377.857051 258.791688 
L 378.942852 258.610979 
L 380.028653 258.784851 
L 381.114454 259.260095 
L 382.200255 258.54635 
L 383.286057 258.433808 
L 384.371858 257.70787 
L 385.457659 258.680265 
L 386.54346 257.719626 
L 387.629261 258.938605 
L 388.715062 256.409211 
L 389.800863 258.856703 
L 390.886665 258.205197 
L 391.972466 258.264464 
L 393.058267 257.305116 
L 394.144068 256.096761 
L 395.229869 255.656479 
L 396.31567 257.503822 
L 397.401472 256.091295 
L 398.487273 256.326494 
L 398.487273 256.326494 
" clip-path="url(#p38584cc35d)" style="fill: none; stroke: #0000ff; stroke-width: 1.5; stroke-linecap: square"/>
   </g>
   <g id="line2d_32">
    <path d="M 73.832727 281.304896 
L 74.918528 279.055092 
L 76.00433 281.385051 
L 77.090131 282.538597 
L 78.175932 282.273199 
L 81.433335 282.448491 
L 82.519137 284.737612 
L 83.604938 284.449022 
L 84.690739 283.663213 
L 85.77654 284.640856 
L 86.862341 286.137429 
L 87.948142 285.688695 
L 89.033943 285.050198 
L 90.119745 286.558483 
L 92.291347 285.41799 
L 93.377148 287.814729 
L 94.462949 287.414037 
L 95.54875 287.391002 
L 96.634552 286.70444 
L 97.720353 287.271501 
L 98.806154 286.780929 
L 99.891955 287.727476 
L 100.977756 287.131126 
L 102.063557 284.993768 
L 103.149358 286.709648 
L 104.23516 288.178271 
L 106.406762 286.735994 
L 107.492563 288.130357 
L 108.578364 285.852918 
L 109.664165 288.738332 
L 110.749967 287.482367 
L 111.835768 287.323559 
L 112.921569 286.356086 
L 114.00737 286.376283 
L 115.093171 285.538821 
L 116.178972 286.259306 
L 117.264773 288.599316 
L 118.350575 287.67666 
L 119.436376 287.04085 
L 120.522177 289.177111 
L 122.693779 288.664427 
L 125.951183 289.352515 
L 127.036984 290.912965 
L 128.122785 289.098441 
L 129.208586 288.463579 
L 130.294387 288.299903 
L 131.380189 288.452347 
L 132.46599 289.85053 
L 133.551791 288.265319 
L 134.637592 288.669614 
L 135.723393 288.533955 
L 136.809194 289.071829 
L 137.894995 287.197658 
L 138.980797 288.621548 
L 140.066598 288.586943 
L 141.152399 288.953459 
L 143.324001 288.757421 
L 144.409802 289.455233 
L 146.581405 286.713834 
L 147.667206 286.901551 
L 148.753007 288.229844 
L 149.838808 287.084129 
L 150.924609 289.116402 
L 152.01041 288.153802 
L 153.096212 289.247372 
L 154.182013 289.191541 
L 155.267814 288.518844 
L 156.353615 288.954006 
L 157.439416 288.366448 
L 158.525217 288.865566 
L 159.611019 287.496188 
L 160.69682 289.711642 
L 161.782621 289.259238 
L 162.868422 286.996505 
L 163.954223 287.22795 
L 165.040024 286.735241 
L 166.125825 288.67977 
L 167.211627 287.945192 
L 168.297428 288.468156 
L 169.383229 287.723438 
L 170.46903 288.292775 
L 171.554831 288.698707 
L 172.640632 288.938934 
L 173.726434 288.509925 
L 174.812235 288.412836 
L 175.898036 287.677348 
L 176.983837 286.665162 
L 178.069638 288.48139 
L 179.155439 289.898462 
L 180.24124 290.767696 
L 181.327042 288.59952 
L 182.412843 290.7101 
L 183.498644 290.777424 
L 184.584445 289.609353 
L 185.670246 290.718895 
L 186.756047 289.581055 
L 187.841849 291.292214 
L 188.92765 290.578311 
L 190.013451 290.739897 
L 192.185053 289.71837 
L 193.270854 290.273462 
L 194.356656 292.292917 
L 195.442457 289.619377 
L 196.528258 291.773782 
L 197.614059 291.014871 
L 198.69986 291.585646 
L 199.785661 291.079044 
L 200.871462 292.81889 
L 201.957264 293.013361 
L 203.043065 291.210562 
L 204.128866 292.432628 
L 205.214667 292.53496 
L 207.386269 289.465937 
L 208.472071 290.009346 
L 209.557872 291.574005 
L 210.643673 291.776264 
L 211.729474 291.535598 
L 212.815275 291.133601 
L 213.901076 291.087988 
L 214.986877 292.037268 
L 217.15848 291.422393 
L 218.244281 291.864893 
L 219.330082 291.989542 
L 220.415883 290.505743 
L 221.501684 291.201336 
L 222.587486 293.068468 
L 223.673287 290.737402 
L 224.759088 289.588274 
L 225.844889 292.15843 
L 226.93069 289.239485 
L 228.016491 291.12904 
L 229.102292 292.256584 
L 230.188094 290.523018 
L 231.273895 291.292628 
L 232.359696 292.210253 
L 233.445497 289.759485 
L 234.531298 290.275635 
L 236.702901 290.022462 
L 237.788702 290.158279 
L 238.874503 291.813386 
L 239.960304 291.126104 
L 241.046105 290.581463 
L 242.131906 290.188437 
L 243.217708 289.498745 
L 244.303509 289.185741 
L 245.38931 289.281109 
L 246.475111 288.715677 
L 247.560912 289.250336 
L 248.646713 289.164159 
L 249.732514 290.779554 
L 250.818316 287.804214 
L 251.904117 289.019932 
L 252.989918 287.385733 
L 254.075719 288.019012 
L 256.247321 288.929368 
L 257.333123 289.14249 
L 258.418924 289.755484 
L 259.504725 289.147146 
L 260.590526 288.990541 
L 261.676327 290.473343 
L 262.762128 290.468082 
L 263.847929 292.376294 
L 264.933731 290.309351 
L 266.019532 292.284619 
L 267.105333 291.612162 
L 268.191134 292.09314 
L 269.276935 293.306158 
L 270.362736 293.400502 
L 272.534339 294.60527 
L 273.62014 294.048913 
L 274.705941 295.488 
L 275.791742 292.772481 
L 276.877543 293.097328 
L 277.963344 294.08435 
L 279.049146 294.152745 
L 280.134947 292.854901 
L 281.220748 294.104604 
L 282.306549 292.450928 
L 283.39235 293.96625 
L 284.478151 292.828126 
L 285.563953 292.567249 
L 286.649754 294.327952 
L 287.735555 295.248676 
L 288.821356 295.400043 
L 289.907157 291.92555 
L 290.992958 293.400864 
L 292.07876 291.451842 
L 293.164561 291.773509 
L 294.250362 293.695451 
L 295.336163 291.431749 
L 296.421964 290.214563 
L 297.507765 289.562183 
L 298.593566 292.396285 
L 299.679368 293.294976 
L 300.765169 293.220123 
L 301.85097 293.972708 
L 302.936771 292.562777 
L 304.022572 290.237614 
L 305.108373 291.524189 
L 306.194175 293.206518 
L 307.279976 292.401654 
L 308.365777 291.27743 
L 309.451578 293.17598 
L 310.537379 291.30982 
L 311.62318 291.364191 
L 312.708981 291.696427 
L 313.794783 291.332916 
L 314.880584 292.032621 
L 315.966385 291.877618 
L 317.052186 293.457556 
L 318.137987 293.227047 
L 319.223788 291.560964 
L 320.30959 290.673035 
L 321.395391 289.419879 
L 323.566993 288.9063 
L 324.652794 289.503577 
L 325.738595 289.505525 
L 326.824396 290.714928 
L 327.910198 291.498827 
L 328.995999 289.297715 
L 330.0818 290.94337 
L 331.167601 292.055593 
L 332.253402 291.870444 
L 333.339203 292.926369 
L 334.425005 290.499924 
L 335.510806 290.663001 
L 336.596607 292.957328 
L 337.682408 290.92762 
L 338.768209 291.562458 
L 339.85401 291.326379 
L 342.025613 293.654734 
L 343.111414 292.764997 
L 344.197215 291.131185 
L 346.368817 293.474124 
L 347.454618 293.249649 
L 348.54042 291.978989 
L 349.626221 293.232984 
L 350.712022 291.98507 
L 351.797823 292.070248 
L 352.883624 293.814307 
L 353.969425 294.175855 
L 355.055227 293.562482 
L 356.141028 294.494129 
L 357.226829 294.395292 
L 358.31263 294.651871 
L 359.398431 293.34269 
L 360.484232 293.649253 
L 361.570033 292.216685 
L 362.655835 291.951857 
L 363.741636 293.012119 
L 364.827437 293.437416 
L 365.913238 290.686283 
L 368.08484 290.217425 
L 369.170642 290.452329 
L 370.256443 291.66059 
L 371.342244 291.145965 
L 372.428045 292.428776 
L 373.513846 291.229205 
L 374.599647 292.48583 
L 375.685448 293.275392 
L 376.77125 292.738901 
L 377.857051 291.249582 
L 378.942852 291.938276 
L 380.028653 291.665913 
L 381.114454 290.910859 
L 382.200255 292.027693 
L 384.371858 290.338918 
L 385.457659 291.177448 
L 386.54346 289.761485 
L 387.629261 291.199278 
L 388.715062 292.307512 
L 389.800863 293.019574 
L 390.886665 292.784934 
L 391.972466 292.787537 
L 393.058267 292.514023 
L 394.144068 292.101754 
L 395.229869 292.527512 
L 396.31567 293.160918 
L 397.401472 291.71447 
L 398.487273 292.28895 
L 398.487273 292.28895 
" clip-path="url(#p38584cc35d)" style="fill: none; stroke-dasharray: 9.6,2.4,1.5,2.4; stroke-dashoffset: 0; stroke: #008000; stroke-width: 1.5"/>
   </g>
   <g id="line2d_33">
    <path d="M 73.832727 253.520478 
L 74.918528 247.305711 
L 76.00433 242.326385 
L 77.090131 245.396038 
L 78.175932 242.500299 
L 80.347534 242.434315 
L 81.433335 239.372205 
L 82.519137 237.856392 
L 83.604938 234.721587 
L 84.690739 234.827437 
L 85.77654 235.102349 
L 86.862341 232.995689 
L 87.948142 229.771422 
L 89.033943 231.339817 
L 90.119745 228.734088 
L 91.205546 228.562852 
L 92.291347 227.47978 
L 93.377148 225.237694 
L 94.462949 225.050487 
L 95.54875 229.914396 
L 96.634552 227.79968 
L 98.806154 226.457 
L 99.891955 228.345259 
L 100.977756 226.083271 
L 102.063557 225.769559 
L 103.149358 227.329145 
L 104.23516 225.828762 
L 105.320961 228.382992 
L 106.406762 229.885186 
L 107.492563 227.017314 
L 108.578364 226.618666 
L 109.664165 227.925382 
L 110.749967 227.47312 
L 111.835768 228.440418 
L 112.921569 230.773613 
L 114.00737 231.456493 
L 115.093171 231.104533 
L 116.178972 230.228018 
L 117.264773 222.723911 
L 118.350575 224.527157 
L 120.522177 224.783885 
L 121.607978 222.527842 
L 122.693779 221.442232 
L 123.77958 222.382184 
L 124.865382 224.420597 
L 125.951183 218.981461 
L 127.036984 219.789436 
L 128.122785 222.146888 
L 130.294387 229.921994 
L 131.380189 229.497048 
L 133.551791 230.796705 
L 134.637592 230.675416 
L 135.723393 229.793946 
L 136.809194 231.906206 
L 137.894995 232.033806 
L 138.980797 231.884032 
L 140.066598 231.143409 
L 141.152399 233.037085 
L 142.2382 231.615541 
L 143.324001 233.260817 
L 144.409802 228.732854 
L 145.495604 232.812059 
L 146.581405 233.189134 
L 147.667206 231.223192 
L 148.753007 231.919151 
L 149.838808 230.879303 
L 150.924609 232.043068 
L 152.01041 231.642913 
L 153.096212 229.594963 
L 154.182013 229.125065 
L 155.267814 230.076747 
L 156.353615 229.150473 
L 157.439416 228.046 
L 158.525217 231.487977 
L 159.611019 226.316283 
L 160.69682 229.170845 
L 161.782621 229.251207 
L 162.868422 230.34915 
L 163.954223 227.478256 
L 165.040024 226.566732 
L 166.125825 229.175623 
L 167.211627 227.127338 
L 168.297428 225.697553 
L 169.383229 225.880913 
L 170.46903 221.949369 
L 171.554831 222.429183 
L 172.640632 224.104835 
L 173.726434 223.774352 
L 174.812235 221.130881 
L 175.898036 221.538648 
L 176.983837 220.348457 
L 178.069638 216.298403 
L 179.155439 215.396202 
L 180.24124 218.039184 
L 181.327042 218.303957 
L 182.412843 220.365901 
L 183.498644 216.164067 
L 184.584445 218.421087 
L 185.670246 217.983012 
L 186.756047 216.629001 
L 187.841849 218.690247 
L 188.92765 215.717835 
L 190.013451 216.654801 
L 191.099252 216.365251 
L 192.185053 217.583918 
L 193.270854 215.882639 
L 194.356656 211.479244 
L 195.442457 212.730665 
L 196.528258 213.615793 
L 197.614059 213.507771 
L 198.69986 217.07943 
L 199.785661 213.044778 
L 200.871462 215.161903 
L 201.957264 212.040595 
L 203.043065 211.904257 
L 204.128866 216.158524 
L 205.214667 215.394938 
L 207.386269 217.67613 
L 208.472071 216.131515 
L 209.557872 215.650693 
L 210.643673 215.658908 
L 211.729474 214.667417 
L 212.815275 215.753464 
L 213.901076 217.71669 
L 214.986877 218.289151 
L 216.072679 215.476873 
L 217.15848 220.597887 
L 218.244281 217.481402 
L 219.330082 216.084658 
L 220.415883 218.264776 
L 221.501684 217.99584 
L 222.587486 216.317523 
L 223.673287 219.608207 
L 224.759088 218.808883 
L 225.844889 221.205769 
L 226.93069 219.584551 
L 228.016491 221.251862 
L 229.102292 225.409978 
L 230.188094 225.43151 
L 231.273895 226.413607 
L 232.359696 224.108542 
L 233.445497 227.011789 
L 234.531298 226.448392 
L 235.617099 226.774396 
L 236.702901 224.686292 
L 238.874503 226.603489 
L 239.960304 226.296634 
L 241.046105 226.814986 
L 242.131906 226.536832 
L 243.217708 229.1412 
L 244.303509 229.698877 
L 245.38931 225.461827 
L 246.475111 227.026259 
L 247.560912 225.808716 
L 248.646713 228.105037 
L 249.732514 225.175863 
L 250.818316 228.872538 
L 251.904117 226.779669 
L 252.989918 226.677281 
L 254.075719 226.862328 
L 255.16152 225.409747 
L 256.247321 226.723435 
L 257.333123 222.702617 
L 259.504725 224.100268 
L 260.590526 222.323889 
L 261.676327 220.841745 
L 262.762128 222.251178 
L 263.847929 216.000812 
L 264.933731 215.088391 
L 266.019532 213.98661 
L 267.105333 215.445473 
L 268.191134 214.772716 
L 269.276935 212.779872 
L 270.362736 216.367028 
L 271.448538 214.508583 
L 272.534339 214.637824 
L 273.62014 214.359338 
L 274.705941 215.51206 
L 275.791742 213.981512 
L 276.877543 214.494234 
L 277.963344 213.665651 
L 279.049146 214.138377 
L 280.134947 212.376977 
L 281.220748 211.489188 
L 282.306549 214.949939 
L 283.39235 217.890913 
L 284.478151 216.358731 
L 285.563953 216.420996 
L 286.649754 214.779769 
L 287.735555 215.192071 
L 288.821356 216.213626 
L 290.992958 220.551728 
L 292.07876 221.489123 
L 293.164561 218.504899 
L 294.250362 219.202295 
L 296.421964 220.98785 
L 297.507765 216.766077 
L 298.593566 218.786904 
L 299.679368 218.591327 
L 300.765169 220.666295 
L 301.85097 219.882328 
L 302.936771 222.624418 
L 304.022572 221.617222 
L 306.194175 215.011252 
L 307.279976 219.988636 
L 308.365777 217.699482 
L 309.451578 221.791834 
L 310.537379 216.36283 
L 311.62318 216.862784 
L 312.708981 218.97984 
L 313.794783 219.964383 
L 314.880584 220.506663 
L 315.966385 221.6759 
L 317.052186 218.58259 
L 318.137987 218.999892 
L 319.223788 220.323308 
L 320.30959 222.569066 
L 321.395391 222.80601 
L 322.481192 219.064033 
L 323.566993 223.458899 
L 324.652794 220.53739 
L 325.738595 224.255164 
L 326.824396 228.597959 
L 327.910198 227.051148 
L 328.995999 221.814694 
L 330.0818 225.094835 
L 331.167601 223.247189 
L 332.253402 219.852712 
L 333.339203 222.162436 
L 334.425005 223.902997 
L 335.510806 223.626741 
L 336.596607 223.125678 
L 337.682408 219.192717 
L 338.768209 222.697189 
L 339.85401 222.96521 
L 340.939811 225.187838 
L 342.025613 224.218886 
L 343.111414 219.160473 
L 344.197215 218.521423 
L 345.283016 218.368537 
L 346.368817 219.33117 
L 347.454618 219.211885 
L 348.54042 220.288028 
L 349.626221 220.872688 
L 350.712022 217.427695 
L 351.797823 215.57696 
L 352.883624 213.408174 
L 353.969425 218.068524 
L 355.055227 219.327693 
L 356.141028 223.289738 
L 357.226829 221.395331 
L 358.31263 219.210565 
L 359.398431 221.783237 
L 360.484232 221.341825 
L 362.655835 226.701231 
L 363.741636 225.014546 
L 364.827437 224.776708 
L 365.913238 228.764477 
L 366.999039 227.901089 
L 368.08484 229.380658 
L 369.170642 228.068421 
L 370.256443 227.039768 
L 371.342244 226.909034 
L 372.428045 226.2495 
L 373.513846 227.440501 
L 374.599647 227.087883 
L 375.685448 224.70893 
L 376.77125 225.145587 
L 377.857051 226.333794 
L 378.942852 225.283683 
L 380.028653 225.903789 
L 381.114454 227.60933 
L 382.200255 225.065007 
L 383.286057 225.705607 
L 384.371858 225.076821 
L 385.457659 226.183082 
L 386.54346 225.677766 
L 387.629261 226.677932 
L 388.715062 220.51091 
L 389.800863 224.693832 
L 390.886665 223.625459 
L 391.972466 223.741391 
L 393.058267 222.09621 
L 394.144068 220.091768 
L 395.229869 218.785446 
L 396.31567 221.846726 
L 397.401472 220.468119 
L 398.487273 220.364038 
L 398.487273 220.364038 
" clip-path="url(#p38584cc35d)" style="fill: none; stroke-dasharray: 9.6,2.4,1.5,2.4; stroke-dashoffset: 0; stroke: #008000; stroke-width: 1.5"/>
   </g>
   <g id="line2d_34">
    <path d="M 73.832727 225.168437 
L 74.918528 225.168437 
L 76.00433 141.195963 
L 81.433335 141.195963 
L 82.519137 138.450939 
L 83.604938 138.450939 
L 84.690739 137.706127 
L 86.862341 137.706127 
L 87.948142 136.318168 
L 99.891955 136.318168 
L 100.977756 135.873076 
L 106.406762 135.873076 
L 107.492563 60.747552 
L 124.865382 60.747552 
L 125.951183 59.755645 
L 193.270854 59.755645 
L 194.356656 57.017905 
L 207.386269 57.017905 
L 208.472071 56.220384 
L 262.762128 56.220384 
L 263.847929 55.80071 
L 387.629261 55.80071 
L 388.715062 53.568 
L 398.487273 53.568 
L 398.487273 53.568 
" clip-path="url(#p38584cc35d)" style="fill: none; stroke: #ff0000; stroke-width: 1.5; stroke-linecap: square"/>
   </g>
   <g id="patch_3">
    <path d="M 57.6 307.584 
L 57.6 41.472 
" style="fill: none; stroke: #000000; stroke-width: 0.8; stroke-linejoin: miter; stroke-linecap: square"/>
   </g>
   <g id="patch_4">
    <path d="M 414.72 307.584 
L 414.72 41.472 
" style="fill: none; stroke: #000000; stroke-width: 0.8; stroke-linejoin: miter; stroke-linecap: square"/>
   </g>
   <g id="patch_5">
    <path d="M 57.6 307.584 
L 414.72 307.584 
" style="fill: none; stroke: #000000; stroke-width: 0.8; stroke-linejoin: miter; stroke-linecap: square"/>
   </g>
   <g id="patch_6">
    <path d="M 57.6 41.472 
L 414.72 41.472 
" style="fill: none; stroke: #000000; stroke-width: 0.8; stroke-linejoin: miter; stroke-linecap: square"/>
   </g>
   <g id="text_18">
    <!-- Population's average and best fitness -->
    <g transform="translate(123.529687 35.472) scale(0.12 -0.12)">
     <defs>
      <path id="DejaVuSans-50" d="M 1259 4147 
L 1259 2394 
L 2053 2394 
Q 2494 2394 2734 2622 
Q 2975 2850 2975 3272 
Q 2975 3691 2734 3919 
Q 2494 4147 2053 4147 
L 1259 4147 
z
M 628 4666 
L 2053 4666 
Q 2838 4666 3239 4311 
Q 3641 3956 3641 3272 
Q 3641 2581 3239 2228 
Q 2838 1875 2053 1875 
L 1259 1875 
L 1259 0 
L 628 0 
L 628 4666 
z
" transform="scale(0.015625)"/>
      <path id="DejaVuSans-70" d="M 1159 525 
L 1159 -1331 
L 581 -1331 
L 581 3500 
L 1159 3500 
L 1159 2969 
Q 1341 3281 1617 3432 
Q 1894 3584 2278 3584 
Q 2916 3584 3314 3078 
Q 3713 2572 3713 1747 
Q 3713 922 3314 415 
Q 2916 -91 2278 -91 
Q 1894 -91 1617 61 
Q 1341 213 1159 525 
z
M 3116 1747 
Q 3116 2381 2855 2742 
Q 2594 3103 2138 3103 
Q 1681 3103 1420 2742 
Q 1159 2381 1159 1747 
Q 1159 1113 1420 752 
Q 1681 391 2138 391 
Q 2594 391 2855 752 
Q 3116 1113 3116 1747 
z
" transform="scale(0.015625)"/>
      <path id="DejaVuSans-75" d="M 544 1381 
L 544 3500 
L 1119 3500 
L 1119 1403 
Q 1119 906 1312 657 
Q 1506 409 1894 409 
Q 2359 409 2629 706 
Q 2900 1003 2900 1516 
L 2900 3500 
L 3475 3500 
L 3475 0 
L 2900 0 
L 2900 538 
Q 2691 219 2414 64 
Q 2138 -91 1772 -91 
Q 1169 -91 856 284 
Q 544 659 544 1381 
z
M 1991 3584 
L 1991 3584 
z
" transform="scale(0.015625)"/>
      <path id="DejaVuSans-6c" d="M 603 4863 
L 1178 4863 
L 1178 0 
L 603 0 
L 603 4863 
z
" transform="scale(0.015625)"/>
      <path id="DejaVuSans-27" d="M 1147 4666 
L 1147 2931 
L 616 2931 
L 616 4666 
L 1147 4666 
z
" transform="scale(0.015625)"/>
      <path id="DejaVuSans-20" transform="scale(0.015625)"/>
      <path id="DejaVuSans-76" d="M 191 3500 
L 800 3500 
L 1894 563 
L 2988 3500 
L 3597 3500 
L 2284 0 
L 1503 0 
L 191 3500 
z
" transform="scale(0.015625)"/>
      <path id="DejaVuSans-67" d="M 2906 1791 
Q 2906 2416 2648 2759 
Q 2391 3103 1925 3103 
Q 1463 3103 1205 2759 
Q 947 2416 947 1791 
Q 947 1169 1205 825 
Q 1463 481 1925 481 
Q 2391 481 2648 825 
Q 2906 1169 2906 1791 
z
M 3481 434 
Q 3481 -459 3084 -895 
Q 2688 -1331 1869 -1331 
Q 1566 -1331 1297 -1286 
Q 1028 -1241 775 -1147 
L 775 -588 
Q 1028 -725 1275 -790 
Q 1522 -856 1778 -856 
Q 2344 -856 2625 -561 
Q 2906 -266 2906 331 
L 2906 616 
Q 2728 306 2450 153 
Q 2172 0 1784 0 
Q 1141 0 747 490 
Q 353 981 353 1791 
Q 353 2603 747 3093 
Q 1141 3584 1784 3584 
Q 2172 3584 2450 3431 
Q 2728 3278 2906 2969 
L 2906 3500 
L 3481 3500 
L 3481 434 
z
" transform="scale(0.015625)"/>
      <path id="DejaVuSans-64" d="M 2906 2969 
L 2906 4863 
L 3481 4863 
L 3481 0 
L 2906 0 
L 2906 525 
Q 2725 213 2448 61 
Q 2172 -91 1784 -91 
Q 1150 -91 751 415 
Q 353 922 353 1747 
Q 353 2572 751 3078 
Q 1150 3584 1784 3584 
Q 2172 3584 2448 3432 
Q 2725 3281 2906 2969 
z
M 947 1747 
Q 947 1113 1208 752 
Q 1469 391 1925 391 
Q 2381 391 2643 752 
Q 2906 1113 2906 1747 
Q 2906 2381 2643 2742 
Q 2381 3103 1925 3103 
Q 1469 3103 1208 2742 
Q 947 2381 947 1747 
z
" transform="scale(0.015625)"/>
      <path id="DejaVuSans-62" d="M 3116 1747 
Q 3116 2381 2855 2742 
Q 2594 3103 2138 3103 
Q 1681 3103 1420 2742 
Q 1159 2381 1159 1747 
Q 1159 1113 1420 752 
Q 1681 391 2138 391 
Q 2594 391 2855 752 
Q 3116 1113 3116 1747 
z
M 1159 2969 
Q 1341 3281 1617 3432 
Q 1894 3584 2278 3584 
Q 2916 3584 3314 3078 
Q 3713 2572 3713 1747 
Q 3713 922 3314 415 
Q 2916 -91 2278 -91 
Q 1894 -91 1617 61 
Q 1341 213 1159 525 
L 1159 0 
L 581 0 
L 581 4863 
L 1159 4863 
L 1159 2969 
z
" transform="scale(0.015625)"/>
      <path id="DejaVuSans-66" d="M 2375 4863 
L 2375 4384 
L 1825 4384 
Q 1516 4384 1395 4259 
Q 1275 4134 1275 3809 
L 1275 3500 
L 2222 3500 
L 2222 3053 
L 1275 3053 
L 1275 0 
L 697 0 
L 697 3053 
L 147 3053 
L 147 3500 
L 697 3500 
L 697 3744 
Q 697 4328 969 4595 
Q 1241 4863 1831 4863 
L 2375 4863 
z
" transform="scale(0.015625)"/>
     </defs>
     <use xlink:href="#DejaVuSans-50"/>
     <use xlink:href="#DejaVuSans-6f" x="56.677734"/>
     <use xlink:href="#DejaVuSans-70" x="117.859375"/>
     <use xlink:href="#DejaVuSans-75" x="181.335938"/>
     <use xlink:href="#DejaVuSans-6c" x="244.714844"/>
     <use xlink:href="#DejaVuSans-61" x="272.498047"/>
     <use xlink:href="#DejaVuSans-74" x="333.777344"/>
     <use xlink:href="#DejaVuSans-69" x="372.986328"/>
     <use xlink:href="#DejaVuSans-6f" x="400.769531"/>
     <use xlink:href="#DejaVuSans-6e" x="461.951172"/>
     <use xlink:href="#DejaVuSans-27" x="525.330078"/>
     <use xlink:href="#DejaVuSans-73" x="552.820312"/>
     <use xlink:href="#DejaVuSans-20" x="604.919922"/>
     <use xlink:href="#DejaVuSans-61" x="636.707031"/>
     <use xlink:href="#DejaVuSans-76" x="697.986328"/>
     <use xlink:href="#DejaVuSans-65" x="757.166016"/>
     <use xlink:href="#DejaVuSans-72" x="818.689453"/>
     <use xlink:href="#DejaVuSans-61" x="859.802734"/>
     <use xlink:href="#DejaVuSans-67" x="921.082031"/>
     <use xlink:href="#DejaVuSans-65" x="984.558594"/>
     <use xlink:href="#DejaVuSans-20" x="1046.082031"/>
     <use xlink:href="#DejaVuSans-61" x="1077.869141"/>
     <use xlink:href="#DejaVuSans-6e" x="1139.148438"/>
     <use xlink:href="#DejaVuSans-64" x="1202.527344"/>
     <use xlink:href="#DejaVuSans-20" x="1266.003906"/>
     <use xlink:href="#DejaVuSans-62" x="1297.791016"/>
     <use xlink:href="#DejaVuSans-65" x="1361.267578"/>
     <use xlink:href="#DejaVuSans-73" x="1422.791016"/>
     <use xlink:href="#DejaVuSans-74" x="1474.890625"/>
     <use xlink:href="#DejaVuSans-20" x="1514.099609"/>
     <use xlink:href="#DejaVuSans-66" x="1545.886719"/>
     <use xlink:href="#DejaVuSans-69" x="1581.091797"/>
     <use xlink:href="#DejaVuSans-74" x="1608.875"/>
     <use xlink:href="#DejaVuSans-6e" x="1648.083984"/>
     <use xlink:href="#DejaVuSans-65" x="1711.462891"/>
     <use xlink:href="#DejaVuSans-73" x="1772.986328"/>
     <use xlink:href="#DejaVuSans-73" x="1825.085938"/>
    </g>
   </g>
   <g id="legend_1">
    <g id="patch_7">
     <path d="M 334.779375 205.38425 
L 407.72 205.38425 
Q 409.72 205.38425 409.72 203.38425 
L 409.72 145.67175 
Q 409.72 143.67175 407.72 143.67175 
L 334.779375 143.67175 
Q 332.779375 143.67175 332.779375 145.67175 
L 332.779375 203.38425 
Q 332.779375 205.38425 334.779375 205.38425 
z
" style="fill: #ffffff; opacity: 0.8; stroke: #cccccc; stroke-linejoin: miter"/>
    </g>
    <g id="line2d_35">
     <path d="M 336.779375 151.770188 
L 346.779375 151.770188 
L 356.779375 151.770188 
" style="fill: none; stroke: #0000ff; stroke-width: 1.5; stroke-linecap: square"/>
    </g>
    <g id="text_19">
     <!-- average -->
     <g transform="translate(364.779375 155.270188) scale(0.1 -0.1)">
      <use xlink:href="#DejaVuSans-61"/>
      <use xlink:href="#DejaVuSans-76" x="61.279297"/>
      <use xlink:href="#DejaVuSans-65" x="120.458984"/>
      <use xlink:href="#DejaVuSans-72" x="181.982422"/>
      <use xlink:href="#DejaVuSans-61" x="223.095703"/>
      <use xlink:href="#DejaVuSans-67" x="284.375"/>
      <use xlink:href="#DejaVuSans-65" x="347.851562"/>
     </g>
    </g>
    <g id="line2d_36">
     <path d="M 336.779375 166.448313 
L 346.779375 166.448313 
L 356.779375 166.448313 
" style="fill: none; stroke-dasharray: 9.6,2.4,1.5,2.4; stroke-dashoffset: 0; stroke: #008000; stroke-width: 1.5"/>
    </g>
    <g id="text_20">
     <!-- -1 sd -->
     <g transform="translate(364.779375 169.948313) scale(0.1 -0.1)">
      <defs>
       <path id="DejaVuSans-2d" d="M 313 2009 
L 1997 2009 
L 1997 1497 
L 313 1497 
L 313 2009 
z
" transform="scale(0.015625)"/>
      </defs>
      <use xlink:href="#DejaVuSans-2d"/>
      <use xlink:href="#DejaVuSans-31" x="36.083984"/>
      <use xlink:href="#DejaVuSans-20" x="99.707031"/>
      <use xlink:href="#DejaVuSans-73" x="131.494141"/>
      <use xlink:href="#DejaVuSans-64" x="183.59375"/>
     </g>
    </g>
    <g id="line2d_37">
     <path d="M 336.779375 181.126438 
L 346.779375 181.126438 
L 356.779375 181.126438 
" style="fill: none; stroke-dasharray: 9.6,2.4,1.5,2.4; stroke-dashoffset: 0; stroke: #008000; stroke-width: 1.5"/>
    </g>
    <g id="text_21">
     <!-- +1 sd -->
     <g transform="translate(364.779375 184.626438) scale(0.1 -0.1)">
      <defs>
       <path id="DejaVuSans-2b" d="M 2944 4013 
L 2944 2272 
L 4684 2272 
L 4684 1741 
L 2944 1741 
L 2944 0 
L 2419 0 
L 2419 1741 
L 678 1741 
L 678 2272 
L 2419 2272 
L 2419 4013 
L 2944 4013 
z
" transform="scale(0.015625)"/>
      </defs>
      <use xlink:href="#DejaVuSans-2b"/>
      <use xlink:href="#DejaVuSans-31" x="83.789062"/>
      <use xlink:href="#DejaVuSans-20" x="147.412109"/>
      <use xlink:href="#DejaVuSans-73" x="179.199219"/>
      <use xlink:href="#DejaVuSans-64" x="231.298828"/>
     </g>
    </g>
    <g id="line2d_38">
     <path d="M 336.779375 195.804563 
L 346.779375 195.804563 
L 356.779375 195.804563 
" style="fill: none; stroke: #ff0000; stroke-width: 1.5; stroke-linecap: square"/>
    </g>
    <g id="text_22">
     <!-- best -->
     <g transform="translate(364.779375 199.304563) scale(0.1 -0.1)">
      <use xlink:href="#DejaVuSans-62"/>
      <use xlink:href="#DejaVuSans-65" x="63.476562"/>
      <use xlink:href="#DejaVuSans-73" x="125"/>
      <use xlink:href="#DejaVuSans-74" x="177.099609"/>
     </g>
    </g>
   </g>
  </g>
 </g>
 <defs>
  <clipPath id="p38584cc35d">
   <rect x="57.6" y="41.472" width="357.12" height="266.112"/>
  </clipPath>
 </defs>
</svg>
