<?xml version="1.0" encoding="utf-8" standalone="no"?>
<!DOCTYPE svg PUBLIC "-//W3C//DTD SVG 1.1//EN"
  "http://www.w3.org/Graphics/SVG/1.1/DTD/svg11.dtd">
<svg xmlns:xlink="http://www.w3.org/1999/xlink" width="460.8pt" height="345.6pt" viewBox="0 0 460.8 345.6" xmlns="http://www.w3.org/2000/svg" version="1.1">
 <metadata>
  <rdf:RDF xmlns:dc="http://purl.org/dc/elements/1.1/" xmlns:cc="http://creativecommons.org/ns#" xmlns:rdf="http://www.w3.org/1999/02/22-rdf-syntax-ns#">
   <cc:Work>
    <dc:type rdf:resource="http://purl.org/dc/dcmitype/StillImage"/>
    <dc:date>2024-07-20T06:32:55.239053</dc:date>
    <dc:format>image/svg+xml</dc:format>
    <dc:creator>
     <cc:Agent>
      <dc:title>Matplotlib v3.9.1, https://matplotlib.org/</dc:title>
     </cc:Agent>
    </dc:creator>
   </cc:Work>
  </rdf:RDF>
 </metadata>
 <defs>
  <style type="text/css">*{stroke-linejoin: round; stroke-linecap: butt}</style>
 </defs>
 <g id="figure_1">
  <g id="patch_1">
   <path d="M 0 345.6 
L 460.8 345.6 
L 460.8 0 
L 0 0 
z
" style="fill: #ffffff"/>
  </g>
  <g id="axes_1">
   <g id="patch_2">
    <path d="M 57.6 307.584 
L 414.72 307.584 
L 414.72 41.472 
L 57.6 41.472 
z
" style="fill: #ffffff"/>
   </g>
   <g id="matplotlib.axis_1">
    <g id="xtick_1">
     <g id="line2d_1">
      <path d="M 73.832727 307.584 
L 73.832727 41.472 
" clip-path="url(#pcd0a26820b)" style="fill: none; stroke: #b0b0b0; stroke-width: 0.8; stroke-linecap: square"/>
     </g>
     <g id="line2d_2">
      <defs>
       <path id="m3e93e568cb" d="M 0 0 
L 0 3.5 
" style="stroke: #000000; stroke-width: 0.8"/>
      </defs>
      <g>
       <use xlink:href="#m3e93e568cb" x="73.832727" y="307.584" style="stroke: #000000; stroke-width: 0.8"/>
      </g>
     </g>
     <g id="text_1">
      <!-- 0 -->
      <g transform="translate(70.651477 322.182437) scale(0.1 -0.1)">
       <defs>
        <path id="DejaVuSans-30" d="M 2034 4250 
Q 1547 4250 1301 3770 
Q 1056 3291 1056 2328 
Q 1056 1369 1301 889 
Q 1547 409 2034 409 
Q 2525 409 2770 889 
Q 3016 1369 3016 2328 
Q 3016 3291 2770 3770 
Q 2525 4250 2034 4250 
z
M 2034 4750 
Q 2819 4750 3233 4129 
Q 3647 3509 3647 2328 
Q 3647 1150 3233 529 
Q 2819 -91 2034 -91 
Q 1250 -91 836 529 
Q 422 1150 422 2328 
Q 422 3509 836 4129 
Q 1250 4750 2034 4750 
z
" transform="scale(0.015625)"/>
       </defs>
       <use xlink:href="#DejaVuSans-30"/>
      </g>
     </g>
    </g>
    <g id="xtick_2">
     <g id="line2d_3">
      <path d="M 128.122785 307.584 
L 128.122785 41.472 
" clip-path="url(#pcd0a26820b)" style="fill: none; stroke: #b0b0b0; stroke-width: 0.8; stroke-linecap: square"/>
     </g>
     <g id="line2d_4">
      <g>
       <use xlink:href="#m3e93e568cb" x="128.122785" y="307.584" style="stroke: #000000; stroke-width: 0.8"/>
      </g>
     </g>
     <g id="text_2">
      <!-- 50 -->
      <g transform="translate(121.760285 322.182437) scale(0.1 -0.1)">
       <defs>
        <path id="DejaVuSans-35" d="M 691 4666 
L 3169 4666 
L 3169 4134 
L 1269 4134 
L 1269 2991 
Q 1406 3038 1543 3061 
Q 1681 3084 1819 3084 
Q 2600 3084 3056 2656 
Q 3513 2228 3513 1497 
Q 3513 744 3044 326 
Q 2575 -91 1722 -91 
Q 1428 -91 1123 -41 
Q 819 9 494 109 
L 494 744 
Q 775 591 1075 516 
Q 1375 441 1709 441 
Q 2250 441 2565 725 
Q 2881 1009 2881 1497 
Q 2881 1984 2565 2268 
Q 2250 2553 1709 2553 
Q 1456 2553 1204 2497 
Q 953 2441 691 2322 
L 691 4666 
z
" transform="scale(0.015625)"/>
       </defs>
       <use xlink:href="#DejaVuSans-35"/>
       <use xlink:href="#DejaVuSans-30" x="63.623047"/>
      </g>
     </g>
    </g>
    <g id="xtick_3">
     <g id="line2d_5">
      <path d="M 182.412843 307.584 
L 182.412843 41.472 
" clip-path="url(#pcd0a26820b)" style="fill: none; stroke: #b0b0b0; stroke-width: 0.8; stroke-linecap: square"/>
     </g>
     <g id="line2d_6">
      <g>
       <use xlink:href="#m3e93e568cb" x="182.412843" y="307.584" style="stroke: #000000; stroke-width: 0.8"/>
      </g>
     </g>
     <g id="text_3">
      <!-- 100 -->
      <g transform="translate(172.869093 322.182437) scale(0.1 -0.1)">
       <defs>
        <path id="DejaVuSans-31" d="M 794 531 
L 1825 531 
L 1825 4091 
L 703 3866 
L 703 4441 
L 1819 4666 
L 2450 4666 
L 2450 531 
L 3481 531 
L 3481 0 
L 794 0 
L 794 531 
z
" transform="scale(0.015625)"/>
       </defs>
       <use xlink:href="#DejaVuSans-31"/>
       <use xlink:href="#DejaVuSans-30" x="63.623047"/>
       <use xlink:href="#DejaVuSans-30" x="127.246094"/>
      </g>
     </g>
    </g>
    <g id="xtick_4">
     <g id="line2d_7">
      <path d="M 236.702901 307.584 
L 236.702901 41.472 
" clip-path="url(#pcd0a26820b)" style="fill: none; stroke: #b0b0b0; stroke-width: 0.8; stroke-linecap: square"/>
     </g>
     <g id="line2d_8">
      <g>
       <use xlink:href="#m3e93e568cb" x="236.702901" y="307.584" style="stroke: #000000; stroke-width: 0.8"/>
      </g>
     </g>
     <g id="text_4">
      <!-- 150 -->
      <g transform="translate(227.159151 322.182437) scale(0.1 -0.1)">
       <use xlink:href="#DejaVuSans-31"/>
       <use xlink:href="#DejaVuSans-35" x="63.623047"/>
       <use xlink:href="#DejaVuSans-30" x="127.246094"/>
      </g>
     </g>
    </g>
    <g id="xtick_5">
     <g id="line2d_9">
      <path d="M 290.992958 307.584 
L 290.992958 41.472 
" clip-path="url(#pcd0a26820b)" style="fill: none; stroke: #b0b0b0; stroke-width: 0.8; stroke-linecap: square"/>
     </g>
     <g id="line2d_10">
      <g>
       <use xlink:href="#m3e93e568cb" x="290.992958" y="307.584" style="stroke: #000000; stroke-width: 0.8"/>
      </g>
     </g>
     <g id="text_5">
      <!-- 200 -->
      <g transform="translate(281.449208 322.182437) scale(0.1 -0.1)">
       <defs>
        <path id="DejaVuSans-32" d="M 1228 531 
L 3431 531 
L 3431 0 
L 469 0 
L 469 531 
Q 828 903 1448 1529 
Q 2069 2156 2228 2338 
Q 2531 2678 2651 2914 
Q 2772 3150 2772 3378 
Q 2772 3750 2511 3984 
Q 2250 4219 1831 4219 
Q 1534 4219 1204 4116 
Q 875 4013 500 3803 
L 500 4441 
Q 881 4594 1212 4672 
Q 1544 4750 1819 4750 
Q 2544 4750 2975 4387 
Q 3406 4025 3406 3419 
Q 3406 3131 3298 2873 
Q 3191 2616 2906 2266 
Q 2828 2175 2409 1742 
Q 1991 1309 1228 531 
z
" transform="scale(0.015625)"/>
       </defs>
       <use xlink:href="#DejaVuSans-32"/>
       <use xlink:href="#DejaVuSans-30" x="63.623047"/>
       <use xlink:href="#DejaVuSans-30" x="127.246094"/>
      </g>
     </g>
    </g>
    <g id="xtick_6">
     <g id="line2d_11">
      <path d="M 345.283016 307.584 
L 345.283016 41.472 
" clip-path="url(#pcd0a26820b)" style="fill: none; stroke: #b0b0b0; stroke-width: 0.8; stroke-linecap: square"/>
     </g>
     <g id="line2d_12">
      <g>
       <use xlink:href="#m3e93e568cb" x="345.283016" y="307.584" style="stroke: #000000; stroke-width: 0.8"/>
      </g>
     </g>
     <g id="text_6">
      <!-- 250 -->
      <g transform="translate(335.739266 322.182437) scale(0.1 -0.1)">
       <use xlink:href="#DejaVuSans-32"/>
       <use xlink:href="#DejaVuSans-35" x="63.623047"/>
       <use xlink:href="#DejaVuSans-30" x="127.246094"/>
      </g>
     </g>
    </g>
    <g id="xtick_7">
     <g id="line2d_13">
      <path d="M 399.573074 307.584 
L 399.573074 41.472 
" clip-path="url(#pcd0a26820b)" style="fill: none; stroke: #b0b0b0; stroke-width: 0.8; stroke-linecap: square"/>
     </g>
     <g id="line2d_14">
      <g>
       <use xlink:href="#m3e93e568cb" x="399.573074" y="307.584" style="stroke: #000000; stroke-width: 0.8"/>
      </g>
     </g>
     <g id="text_7">
      <!-- 300 -->
      <g transform="translate(390.029324 322.182437) scale(0.1 -0.1)">
       <defs>
        <path id="DejaVuSans-33" d="M 2597 2516 
Q 3050 2419 3304 2112 
Q 3559 1806 3559 1356 
Q 3559 666 3084 287 
Q 2609 -91 1734 -91 
Q 1441 -91 1130 -33 
Q 819 25 488 141 
L 488 750 
Q 750 597 1062 519 
Q 1375 441 1716 441 
Q 2309 441 2620 675 
Q 2931 909 2931 1356 
Q 2931 1769 2642 2001 
Q 2353 2234 1838 2234 
L 1294 2234 
L 1294 2753 
L 1863 2753 
Q 2328 2753 2575 2939 
Q 2822 3125 2822 3475 
Q 2822 3834 2567 4026 
Q 2313 4219 1838 4219 
Q 1578 4219 1281 4162 
Q 984 4106 628 3988 
L 628 4550 
Q 988 4650 1302 4700 
Q 1616 4750 1894 4750 
Q 2613 4750 3031 4423 
Q 3450 4097 3450 3541 
Q 3450 3153 3228 2886 
Q 3006 2619 2597 2516 
z
" transform="scale(0.015625)"/>
       </defs>
       <use xlink:href="#DejaVuSans-33"/>
       <use xlink:href="#DejaVuSans-30" x="63.623047"/>
       <use xlink:href="#DejaVuSans-30" x="127.246094"/>
      </g>
     </g>
    </g>
    <g id="text_8">
     <!-- Generations -->
     <g transform="translate(205.662344 335.860562) scale(0.1 -0.1)">
      <defs>
       <path id="DejaVuSans-47" d="M 3809 666 
L 3809 1919 
L 2778 1919 
L 2778 2438 
L 4434 2438 
L 4434 434 
Q 4069 175 3628 42 
Q 3188 -91 2688 -91 
Q 1594 -91 976 548 
Q 359 1188 359 2328 
Q 359 3472 976 4111 
Q 1594 4750 2688 4750 
Q 3144 4750 3555 4637 
Q 3966 4525 4313 4306 
L 4313 3634 
Q 3963 3931 3569 4081 
Q 3175 4231 2741 4231 
Q 1884 4231 1454 3753 
Q 1025 3275 1025 2328 
Q 1025 1384 1454 906 
Q 1884 428 2741 428 
Q 3075 428 3337 486 
Q 3600 544 3809 666 
z
" transform="scale(0.015625)"/>
       <path id="DejaVuSans-65" d="M 3597 1894 
L 3597 1613 
L 953 1613 
Q 991 1019 1311 708 
Q 1631 397 2203 397 
Q 2534 397 2845 478 
Q 3156 559 3463 722 
L 3463 178 
Q 3153 47 2828 -22 
Q 2503 -91 2169 -91 
Q 1331 -91 842 396 
Q 353 884 353 1716 
Q 353 2575 817 3079 
Q 1281 3584 2069 3584 
Q 2775 3584 3186 3129 
Q 3597 2675 3597 1894 
z
M 3022 2063 
Q 3016 2534 2758 2815 
Q 2500 3097 2075 3097 
Q 1594 3097 1305 2825 
Q 1016 2553 972 2059 
L 3022 2063 
z
" transform="scale(0.015625)"/>
       <path id="DejaVuSans-6e" d="M 3513 2113 
L 3513 0 
L 2938 0 
L 2938 2094 
Q 2938 2591 2744 2837 
Q 2550 3084 2163 3084 
Q 1697 3084 1428 2787 
Q 1159 2491 1159 1978 
L 1159 0 
L 581 0 
L 581 3500 
L 1159 3500 
L 1159 2956 
Q 1366 3272 1645 3428 
Q 1925 3584 2291 3584 
Q 2894 3584 3203 3211 
Q 3513 2838 3513 2113 
z
" transform="scale(0.015625)"/>
       <path id="DejaVuSans-72" d="M 2631 2963 
Q 2534 3019 2420 3045 
Q 2306 3072 2169 3072 
Q 1681 3072 1420 2755 
Q 1159 2438 1159 1844 
L 1159 0 
L 581 0 
L 581 3500 
L 1159 3500 
L 1159 2956 
Q 1341 3275 1631 3429 
Q 1922 3584 2338 3584 
Q 2397 3584 2469 3576 
Q 2541 3569 2628 3553 
L 2631 2963 
z
" transform="scale(0.015625)"/>
       <path id="DejaVuSans-61" d="M 2194 1759 
Q 1497 1759 1228 1600 
Q 959 1441 959 1056 
Q 959 750 1161 570 
Q 1363 391 1709 391 
Q 2188 391 2477 730 
Q 2766 1069 2766 1631 
L 2766 1759 
L 2194 1759 
z
M 3341 1997 
L 3341 0 
L 2766 0 
L 2766 531 
Q 2569 213 2275 61 
Q 1981 -91 1556 -91 
Q 1019 -91 701 211 
Q 384 513 384 1019 
Q 384 1609 779 1909 
Q 1175 2209 1959 2209 
L 2766 2209 
L 2766 2266 
Q 2766 2663 2505 2880 
Q 2244 3097 1772 3097 
Q 1472 3097 1187 3025 
Q 903 2953 641 2809 
L 641 3341 
Q 956 3463 1253 3523 
Q 1550 3584 1831 3584 
Q 2591 3584 2966 3190 
Q 3341 2797 3341 1997 
z
" transform="scale(0.015625)"/>
       <path id="DejaVuSans-74" d="M 1172 4494 
L 1172 3500 
L 2356 3500 
L 2356 3053 
L 1172 3053 
L 1172 1153 
Q 1172 725 1289 603 
Q 1406 481 1766 481 
L 2356 481 
L 2356 0 
L 1766 0 
Q 1100 0 847 248 
Q 594 497 594 1153 
L 594 3053 
L 172 3053 
L 172 3500 
L 594 3500 
L 594 4494 
L 1172 4494 
z
" transform="scale(0.015625)"/>
       <path id="DejaVuSans-69" d="M 603 3500 
L 1178 3500 
L 1178 0 
L 603 0 
L 603 3500 
z
M 603 4863 
L 1178 4863 
L 1178 4134 
L 603 4134 
L 603 4863 
z
" transform="scale(0.015625)"/>
       <path id="DejaVuSans-6f" d="M 1959 3097 
Q 1497 3097 1228 2736 
Q 959 2375 959 1747 
Q 959 1119 1226 758 
Q 1494 397 1959 397 
Q 2419 397 2687 759 
Q 2956 1122 2956 1747 
Q 2956 2369 2687 2733 
Q 2419 3097 1959 3097 
z
M 1959 3584 
Q 2709 3584 3137 3096 
Q 3566 2609 3566 1747 
Q 3566 888 3137 398 
Q 2709 -91 1959 -91 
Q 1206 -91 779 398 
Q 353 888 353 1747 
Q 353 2609 779 3096 
Q 1206 3584 1959 3584 
z
" transform="scale(0.015625)"/>
       <path id="DejaVuSans-73" d="M 2834 3397 
L 2834 2853 
Q 2591 2978 2328 3040 
Q 2066 3103 1784 3103 
Q 1356 3103 1142 2972 
Q 928 2841 928 2578 
Q 928 2378 1081 2264 
Q 1234 2150 1697 2047 
L 1894 2003 
Q 2506 1872 2764 1633 
Q 3022 1394 3022 966 
Q 3022 478 2636 193 
Q 2250 -91 1575 -91 
Q 1294 -91 989 -36 
Q 684 19 347 128 
L 347 722 
Q 666 556 975 473 
Q 1284 391 1588 391 
Q 1994 391 2212 530 
Q 2431 669 2431 922 
Q 2431 1156 2273 1281 
Q 2116 1406 1581 1522 
L 1381 1569 
Q 847 1681 609 1914 
Q 372 2147 372 2553 
Q 372 3047 722 3315 
Q 1072 3584 1716 3584 
Q 2034 3584 2315 3537 
Q 2597 3491 2834 3397 
z
" transform="scale(0.015625)"/>
      </defs>
      <use xlink:href="#DejaVuSans-47"/>
      <use xlink:href="#DejaVuSans-65" x="77.490234"/>
      <use xlink:href="#DejaVuSans-6e" x="139.013672"/>
      <use xlink:href="#DejaVuSans-65" x="202.392578"/>
      <use xlink:href="#DejaVuSans-72" x="263.916016"/>
      <use xlink:href="#DejaVuSans-61" x="305.029297"/>
      <use xlink:href="#DejaVuSans-74" x="366.308594"/>
      <use xlink:href="#DejaVuSans-69" x="405.517578"/>
      <use xlink:href="#DejaVuSans-6f" x="433.300781"/>
      <use xlink:href="#DejaVuSans-6e" x="494.482422"/>
      <use xlink:href="#DejaVuSans-73" x="557.861328"/>
     </g>
    </g>
   </g>
   <g id="matplotlib.axis_2">
    <g id="ytick_1">
     <g id="line2d_15">
      <path d="M 57.6 270.971131 
L 414.72 270.971131 
" clip-path="url(#pcd0a26820b)" style="fill: none; stroke: #b0b0b0; stroke-width: 0.8; stroke-linecap: square"/>
     </g>
     <g id="line2d_16">
      <defs>
       <path id="m86e7410f48" d="M 0 0 
L -3.5 0 
" style="stroke: #000000; stroke-width: 0.8"/>
      </defs>
      <g>
       <use xlink:href="#m86e7410f48" x="57.6" y="270.971131" style="stroke: #000000; stroke-width: 0.8"/>
      </g>
     </g>
     <g id="text_9">
      <!-- −1400 -->
      <g transform="translate(16.770313 274.77035) scale(0.1 -0.1)">
       <defs>
        <path id="DejaVuSans-2212" d="M 678 2272 
L 4684 2272 
L 4684 1741 
L 678 1741 
L 678 2272 
z
" transform="scale(0.015625)"/>
        <path id="DejaVuSans-34" d="M 2419 4116 
L 825 1625 
L 2419 1625 
L 2419 4116 
z
M 2253 4666 
L 3047 4666 
L 3047 1625 
L 3713 1625 
L 3713 1100 
L 3047 1100 
L 3047 0 
L 2419 0 
L 2419 1100 
L 313 1100 
L 313 1709 
L 2253 4666 
z
" transform="scale(0.015625)"/>
       </defs>
       <use xlink:href="#DejaVuSans-2212"/>
       <use xlink:href="#DejaVuSans-31" x="83.789062"/>
       <use xlink:href="#DejaVuSans-34" x="147.412109"/>
       <use xlink:href="#DejaVuSans-30" x="211.035156"/>
       <use xlink:href="#DejaVuSans-30" x="274.658203"/>
      </g>
     </g>
    </g>
    <g id="ytick_2">
     <g id="line2d_17">
      <path d="M 57.6 232.526657 
L 414.72 232.526657 
" clip-path="url(#pcd0a26820b)" style="fill: none; stroke: #b0b0b0; stroke-width: 0.8; stroke-linecap: square"/>
     </g>
     <g id="line2d_18">
      <g>
       <use xlink:href="#m86e7410f48" x="57.6" y="232.526657" style="stroke: #000000; stroke-width: 0.8"/>
      </g>
     </g>
     <g id="text_10">
      <!-- −1200 -->
      <g transform="translate(16.770313 236.325875) scale(0.1 -0.1)">
       <use xlink:href="#DejaVuSans-2212"/>
       <use xlink:href="#DejaVuSans-31" x="83.789062"/>
       <use xlink:href="#DejaVuSans-32" x="147.412109"/>
       <use xlink:href="#DejaVuSans-30" x="211.035156"/>
       <use xlink:href="#DejaVuSans-30" x="274.658203"/>
      </g>
     </g>
    </g>
    <g id="ytick_3">
     <g id="line2d_19">
      <path d="M 57.6 194.082182 
L 414.72 194.082182 
" clip-path="url(#pcd0a26820b)" style="fill: none; stroke: #b0b0b0; stroke-width: 0.8; stroke-linecap: square"/>
     </g>
     <g id="line2d_20">
      <g>
       <use xlink:href="#m86e7410f48" x="57.6" y="194.082182" style="stroke: #000000; stroke-width: 0.8"/>
      </g>
     </g>
     <g id="text_11">
      <!-- −1000 -->
      <g transform="translate(16.770313 197.881401) scale(0.1 -0.1)">
       <use xlink:href="#DejaVuSans-2212"/>
       <use xlink:href="#DejaVuSans-31" x="83.789062"/>
       <use xlink:href="#DejaVuSans-30" x="147.412109"/>
       <use xlink:href="#DejaVuSans-30" x="211.035156"/>
       <use xlink:href="#DejaVuSans-30" x="274.658203"/>
      </g>
     </g>
    </g>
    <g id="ytick_4">
     <g id="line2d_21">
      <path d="M 57.6 155.637707 
L 414.72 155.637707 
" clip-path="url(#pcd0a26820b)" style="fill: none; stroke: #b0b0b0; stroke-width: 0.8; stroke-linecap: square"/>
     </g>
     <g id="line2d_22">
      <g>
       <use xlink:href="#m86e7410f48" x="57.6" y="155.637707" style="stroke: #000000; stroke-width: 0.8"/>
      </g>
     </g>
     <g id="text_12">
      <!-- −800 -->
      <g transform="translate(23.132812 159.436926) scale(0.1 -0.1)">
       <defs>
        <path id="DejaVuSans-38" d="M 2034 2216 
Q 1584 2216 1326 1975 
Q 1069 1734 1069 1313 
Q 1069 891 1326 650 
Q 1584 409 2034 409 
Q 2484 409 2743 651 
Q 3003 894 3003 1313 
Q 3003 1734 2745 1975 
Q 2488 2216 2034 2216 
z
M 1403 2484 
Q 997 2584 770 2862 
Q 544 3141 544 3541 
Q 544 4100 942 4425 
Q 1341 4750 2034 4750 
Q 2731 4750 3128 4425 
Q 3525 4100 3525 3541 
Q 3525 3141 3298 2862 
Q 3072 2584 2669 2484 
Q 3125 2378 3379 2068 
Q 3634 1759 3634 1313 
Q 3634 634 3220 271 
Q 2806 -91 2034 -91 
Q 1263 -91 848 271 
Q 434 634 434 1313 
Q 434 1759 690 2068 
Q 947 2378 1403 2484 
z
M 1172 3481 
Q 1172 3119 1398 2916 
Q 1625 2713 2034 2713 
Q 2441 2713 2670 2916 
Q 2900 3119 2900 3481 
Q 2900 3844 2670 4047 
Q 2441 4250 2034 4250 
Q 1625 4250 1398 4047 
Q 1172 3844 1172 3481 
z
" transform="scale(0.015625)"/>
       </defs>
       <use xlink:href="#DejaVuSans-2212"/>
       <use xlink:href="#DejaVuSans-38" x="83.789062"/>
       <use xlink:href="#DejaVuSans-30" x="147.412109"/>
       <use xlink:href="#DejaVuSans-30" x="211.035156"/>
      </g>
     </g>
    </g>
    <g id="ytick_5">
     <g id="line2d_23">
      <path d="M 57.6 117.193233 
L 414.72 117.193233 
" clip-path="url(#pcd0a26820b)" style="fill: none; stroke: #b0b0b0; stroke-width: 0.8; stroke-linecap: square"/>
     </g>
     <g id="line2d_24">
      <g>
       <use xlink:href="#m86e7410f48" x="57.6" y="117.193233" style="stroke: #000000; stroke-width: 0.8"/>
      </g>
     </g>
     <g id="text_13">
      <!-- −600 -->
      <g transform="translate(23.132812 120.992451) scale(0.1 -0.1)">
       <defs>
        <path id="DejaVuSans-36" d="M 2113 2584 
Q 1688 2584 1439 2293 
Q 1191 2003 1191 1497 
Q 1191 994 1439 701 
Q 1688 409 2113 409 
Q 2538 409 2786 701 
Q 3034 994 3034 1497 
Q 3034 2003 2786 2293 
Q 2538 2584 2113 2584 
z
M 3366 4563 
L 3366 3988 
Q 3128 4100 2886 4159 
Q 2644 4219 2406 4219 
Q 1781 4219 1451 3797 
Q 1122 3375 1075 2522 
Q 1259 2794 1537 2939 
Q 1816 3084 2150 3084 
Q 2853 3084 3261 2657 
Q 3669 2231 3669 1497 
Q 3669 778 3244 343 
Q 2819 -91 2113 -91 
Q 1303 -91 875 529 
Q 447 1150 447 2328 
Q 447 3434 972 4092 
Q 1497 4750 2381 4750 
Q 2619 4750 2861 4703 
Q 3103 4656 3366 4563 
z
" transform="scale(0.015625)"/>
       </defs>
       <use xlink:href="#DejaVuSans-2212"/>
       <use xlink:href="#DejaVuSans-36" x="83.789062"/>
       <use xlink:href="#DejaVuSans-30" x="147.412109"/>
       <use xlink:href="#DejaVuSans-30" x="211.035156"/>
      </g>
     </g>
    </g>
    <g id="ytick_6">
     <g id="line2d_25">
      <path d="M 57.6 78.748758 
L 414.72 78.748758 
" clip-path="url(#pcd0a26820b)" style="fill: none; stroke: #b0b0b0; stroke-width: 0.8; stroke-linecap: square"/>
     </g>
     <g id="line2d_26">
      <g>
       <use xlink:href="#m86e7410f48" x="57.6" y="78.748758" style="stroke: #000000; stroke-width: 0.8"/>
      </g>
     </g>
     <g id="text_14">
      <!-- −400 -->
      <g transform="translate(23.132812 82.547977) scale(0.1 -0.1)">
       <use xlink:href="#DejaVuSans-2212"/>
       <use xlink:href="#DejaVuSans-34" x="83.789062"/>
       <use xlink:href="#DejaVuSans-30" x="147.412109"/>
       <use xlink:href="#DejaVuSans-30" x="211.035156"/>
      </g>
     </g>
    </g>
    <g id="text_15">
     <!-- Fitness -->
     <g transform="translate(10.690625 191.845187) rotate(-90) scale(0.1 -0.1)">
      <defs>
       <path id="DejaVuSans-46" d="M 628 4666 
L 3309 4666 
L 3309 4134 
L 1259 4134 
L 1259 2759 
L 3109 2759 
L 3109 2228 
L 1259 2228 
L 1259 0 
L 628 0 
L 628 4666 
z
" transform="scale(0.015625)"/>
      </defs>
      <use xlink:href="#DejaVuSans-46"/>
      <use xlink:href="#DejaVuSans-69" x="50.269531"/>
      <use xlink:href="#DejaVuSans-74" x="78.052734"/>
      <use xlink:href="#DejaVuSans-6e" x="117.261719"/>
      <use xlink:href="#DejaVuSans-65" x="180.640625"/>
      <use xlink:href="#DejaVuSans-73" x="242.164062"/>
      <use xlink:href="#DejaVuSans-73" x="294.263672"/>
     </g>
    </g>
   </g>
   <g id="line2d_27">
    <path d="M 73.832727 271.770273 
L 74.918528 270.417631 
L 76.00433 269.845299 
L 77.090131 268.881399 
L 78.175932 268.760883 
L 79.261733 268.475932 
L 80.347534 266.736558 
L 81.433335 267.142202 
L 82.519137 267.307398 
L 83.604938 267.203574 
L 84.690739 266.502551 
L 85.77654 265.971405 
L 86.862341 266.261475 
L 87.948142 265.614989 
L 89.033943 266.265884 
L 90.119745 266.689621 
L 91.205546 266.541211 
L 92.291347 265.962387 
L 93.377148 266.15756 
L 95.54875 265.773229 
L 96.634552 266.320733 
L 97.720353 265.066906 
L 100.977756 264.810618 
L 102.063557 264.528534 
L 103.149358 264.38012 
L 104.23516 263.358937 
L 105.320961 264.010957 
L 106.406762 264.892407 
L 107.492563 264.810746 
L 108.578364 264.459782 
L 109.664165 264.298528 
L 110.749967 263.305821 
L 111.835768 263.762627 
L 112.921569 264.372039 
L 114.00737 264.67238 
L 115.093171 265.987877 
L 116.178972 266.005503 
L 117.264773 262.966345 
L 118.350575 264.58539 
L 119.436376 264.583391 
L 120.522177 265.128542 
L 121.607978 264.630006 
L 122.693779 265.34985 
L 123.77958 265.38731 
L 124.865382 264.24847 
L 127.036984 265.852521 
L 128.122785 265.92907 
L 129.208586 267.402701 
L 130.294387 265.309083 
L 131.380189 266.281128 
L 133.551791 266.937565 
L 134.637592 265.689999 
L 135.723393 266.532763 
L 136.809194 266.318925 
L 137.894995 266.715973 
L 138.980797 266.25349 
L 140.066598 266.625359 
L 142.2382 264.721839 
L 143.324001 266.178092 
L 144.409802 266.820398 
L 145.495604 265.962011 
L 146.581405 267.158019 
L 147.667206 266.218218 
L 148.753007 267.131643 
L 149.838808 266.275615 
L 150.924609 267.821824 
L 154.182013 267.047419 
L 155.267814 266.187931 
L 156.353615 266.75841 
L 157.439416 266.854006 
L 158.525217 266.798209 
L 159.611019 266.604071 
L 160.69682 268.255154 
L 161.782621 267.856162 
L 162.868422 266.679479 
L 163.954223 267.130189 
L 165.040024 267.034971 
L 166.125825 266.185174 
L 167.211627 266.12904 
L 168.297428 266.899866 
L 169.383229 267.251959 
L 170.46903 266.664131 
L 171.554831 267.094076 
L 172.640632 266.445336 
L 173.726434 266.562073 
L 174.812235 267.357925 
L 176.983837 266.504922 
L 178.069638 267.560888 
L 179.155439 266.348741 
L 180.24124 266.564147 
L 181.327042 267.326907 
L 183.498644 266.765645 
L 184.584445 267.589176 
L 185.670246 266.690999 
L 186.756047 267.165692 
L 188.92765 267.467498 
L 190.013451 267.682956 
L 191.099252 267.411397 
L 192.185053 266.676594 
L 193.270854 267.0266 
L 194.356656 266.288729 
L 195.442457 266.307235 
L 197.614059 266.005443 
L 198.69986 265.411179 
L 199.785661 265.859268 
L 200.871462 264.77553 
L 201.957264 266.419518 
L 203.043065 265.019213 
L 204.128866 265.833566 
L 205.214667 266.051021 
L 206.300468 266.001287 
L 207.386269 266.564283 
L 208.472071 266.010567 
L 209.557872 265.753539 
L 210.643673 265.723905 
L 211.729474 265.065152 
L 212.815275 265.171744 
L 213.901076 267.02989 
L 214.986877 266.135903 
L 216.072679 265.80495 
L 217.15848 266.235603 
L 218.244281 265.853449 
L 219.330082 266.244099 
L 220.415883 264.773615 
L 221.501684 265.889685 
L 222.587486 264.872605 
L 223.673287 265.207038 
L 224.759088 265.326546 
L 225.844889 266.604235 
L 226.93069 266.362459 
L 228.016491 265.738606 
L 229.102292 266.956471 
L 230.188094 266.454845 
L 231.273895 265.045003 
L 233.445497 264.335008 
L 234.531298 264.839683 
L 235.617099 266.343832 
L 236.702901 264.395391 
L 237.788702 265.203742 
L 238.874503 264.391914 
L 239.960304 264.363731 
L 241.046105 264.570565 
L 242.131906 265.057653 
L 243.217708 265.989683 
L 244.303509 266.438586 
L 245.38931 266.577257 
L 246.475111 267.001115 
L 247.560912 265.947551 
L 248.646713 265.928374 
L 249.732514 265.441198 
L 250.818316 265.921946 
L 251.904117 266.263798 
L 252.989918 266.307741 
L 254.075719 265.60455 
L 255.16152 265.946851 
L 256.247321 265.309891 
L 257.333123 265.326869 
L 258.418924 267.124276 
L 259.504725 265.716614 
L 260.590526 266.722027 
L 261.676327 267.021905 
L 262.762128 266.338847 
L 263.847929 267.376027 
L 264.933731 266.225285 
L 266.019532 267.041334 
L 267.105333 267.047743 
L 268.191134 265.821046 
L 269.276935 266.698188 
L 271.448538 265.780801 
L 272.534339 265.513889 
L 274.705941 266.517958 
L 275.791742 266.027466 
L 277.963344 266.154581 
L 279.049146 267.105865 
L 280.134947 266.826887 
L 281.220748 266.901963 
L 282.306549 265.452327 
L 283.39235 265.260871 
L 284.478151 265.610892 
L 285.563953 265.549544 
L 286.649754 264.974361 
L 287.735555 265.298786 
L 288.821356 265.016283 
L 289.907157 265.013115 
L 290.992958 264.754787 
L 292.07876 265.566739 
L 293.164561 265.549823 
L 295.336163 264.682289 
L 296.421964 265.519521 
L 297.507765 265.297719 
L 298.593566 265.898504 
L 299.679368 265.447078 
L 300.765169 264.162211 
L 301.85097 265.888728 
L 302.936771 264.717357 
L 304.022572 265.542735 
L 305.108373 265.478408 
L 306.194175 266.332177 
L 307.279976 265.164224 
L 308.365777 264.883496 
L 309.451578 265.639715 
L 310.537379 264.232697 
L 311.62318 265.720398 
L 312.708981 266.526718 
L 313.794783 266.296917 
L 314.880584 265.557263 
L 315.966385 265.340534 
L 317.052186 266.124653 
L 318.137987 265.861642 
L 319.223788 264.705957 
L 320.30959 265.219299 
L 322.481192 264.842336 
L 323.566993 265.581421 
L 324.652794 265.479153 
L 325.738595 265.242386 
L 326.824396 265.20277 
L 327.910198 264.436828 
L 328.995999 264.51707 
L 330.0818 265.089277 
L 331.167601 264.660404 
L 332.253402 265.993892 
L 333.339203 266.111424 
L 334.425005 266.351416 
L 335.510806 265.466605 
L 337.682408 264.639904 
L 338.768209 264.606845 
L 339.85401 265.622901 
L 340.939811 264.084065 
L 342.025613 265.19005 
L 343.111414 263.621369 
L 344.197215 264.080424 
L 345.283016 263.950442 
L 346.368817 264.626283 
L 347.454618 263.81479 
L 348.54042 263.266904 
L 349.626221 263.244493 
L 350.712022 263.80909 
L 351.797823 262.661789 
L 352.883624 263.772481 
L 353.969425 263.767625 
L 355.055227 263.454158 
L 356.141028 262.607977 
L 357.226829 263.167347 
L 358.31263 262.542987 
L 359.398431 264.61877 
L 360.484232 264.867542 
L 361.570033 265.426196 
L 362.655835 264.784056 
L 364.827437 264.512819 
L 365.913238 265.945578 
L 366.999039 264.853301 
L 368.08484 264.451836 
L 369.170642 263.532594 
L 370.256443 264.596889 
L 371.342244 264.192377 
L 372.428045 264.990048 
L 373.513846 264.33692 
L 374.599647 264.870508 
L 375.685448 265.180351 
L 377.857051 264.738553 
L 378.942852 265.427426 
L 380.028653 265.32462 
L 381.114454 264.700942 
L 382.200255 265.306606 
L 383.286057 265.258295 
L 384.371858 265.348959 
L 385.457659 264.835997 
L 386.54346 265.771966 
L 387.629261 265.445907 
L 388.715062 264.807523 
L 389.800863 264.632373 
L 390.886665 264.894347 
L 391.972466 265.021929 
L 393.058267 264.730155 
L 394.144068 264.146001 
L 395.229869 264.135027 
L 396.31567 263.829266 
L 397.401472 263.859123 
L 398.487273 265.499929 
L 398.487273 265.499929 
" clip-path="url(#pcd0a26820b)" style="fill: none; stroke: #0000ff; stroke-width: 1.5; stroke-linecap: square"/>
   </g>
   <g id="line2d_28">
    <path d="M 73.832727 283.020208 
L 74.918528 283.077875 
L 76.00433 283.250394 
L 78.175932 284.285169 
L 79.261733 283.903736 
L 80.347534 284.881232 
L 81.433335 284.041603 
L 82.519137 283.574266 
L 83.604938 285.367827 
L 84.690739 285.590115 
L 85.77654 284.772867 
L 86.862341 285.275433 
L 87.948142 285.547747 
L 89.033943 285.448999 
L 90.119745 286.838265 
L 92.291347 286.130632 
L 93.377148 285.65148 
L 94.462949 286.366762 
L 95.54875 284.985071 
L 96.634552 285.071232 
L 97.720353 285.700238 
L 98.806154 285.209676 
L 99.891955 286.287659 
L 100.977756 287.093701 
L 102.063557 287.159931 
L 103.149358 286.211199 
L 104.23516 286.203952 
L 105.320961 287.661393 
L 106.406762 287.832695 
L 107.492563 287.62559 
L 108.578364 288.465558 
L 109.664165 287.216386 
L 110.749967 288.623782 
L 111.835768 287.471439 
L 112.921569 286.933467 
L 114.00737 287.182233 
L 115.093171 286.391361 
L 116.178972 286.351522 
L 117.264773 288.992868 
L 118.350575 290.724774 
L 119.436376 290.703589 
L 120.522177 290.130893 
L 121.607978 289.798569 
L 122.693779 289.901164 
L 123.77958 290.387681 
L 124.865382 289.602752 
L 125.951183 289.268162 
L 127.036984 291.264488 
L 128.122785 289.744582 
L 129.208586 290.99403 
L 130.294387 289.514965 
L 131.380189 290.954458 
L 132.46599 290.175285 
L 133.551791 290.934587 
L 134.637592 290.050683 
L 135.723393 290.282193 
L 136.809194 291.491893 
L 137.894995 291.042904 
L 138.980797 291.107732 
L 140.066598 291.545813 
L 142.2382 292.89785 
L 143.324001 290.969013 
L 145.495604 290.762141 
L 146.581405 290.90452 
L 147.667206 289.732114 
L 148.753007 289.996363 
L 149.838808 291.083192 
L 150.924609 291.080605 
L 152.01041 292.158833 
L 153.096212 290.353847 
L 154.182013 291.233088 
L 155.267814 290.751388 
L 156.353615 291.62329 
L 157.439416 290.947697 
L 158.525217 291.455702 
L 159.611019 290.539318 
L 161.782621 289.422841 
L 162.868422 288.968153 
L 163.954223 290.305691 
L 165.040024 289.914006 
L 166.125825 290.220076 
L 167.211627 291.753009 
L 168.297428 288.964655 
L 169.383229 289.616964 
L 170.46903 289.753342 
L 171.554831 289.518918 
L 172.640632 291.18256 
L 173.726434 292.390537 
L 174.812235 289.726693 
L 175.898036 289.30032 
L 176.983837 289.46102 
L 178.069638 290.268165 
L 179.155439 288.073058 
L 180.24124 289.961983 
L 181.327042 288.76974 
L 182.412843 289.359771 
L 183.498644 289.192489 
L 184.584445 289.743009 
L 185.670246 289.69092 
L 186.756047 290.588878 
L 187.841849 289.073479 
L 188.92765 288.722366 
L 191.099252 289.642535 
L 192.185053 288.937107 
L 193.270854 289.628061 
L 194.356656 289.330893 
L 195.442457 288.448243 
L 196.528258 288.205223 
L 197.614059 287.790627 
L 198.69986 288.117217 
L 199.785661 287.615201 
L 200.871462 289.352518 
L 201.957264 289.144434 
L 203.043065 290.419251 
L 204.128866 289.425219 
L 205.214667 289.218226 
L 206.300468 289.452407 
L 207.386269 289.210195 
L 208.472071 287.839688 
L 209.557872 287.83414 
L 210.643673 288.578181 
L 211.729474 290.206013 
L 212.815275 287.008186 
L 213.901076 288.701934 
L 216.072679 288.653344 
L 217.15848 289.405201 
L 218.244281 288.559449 
L 219.330082 287.279793 
L 220.415883 293.205965 
L 221.501684 291.889588 
L 222.587486 292.050846 
L 223.673287 290.379217 
L 224.759088 289.517858 
L 225.844889 290.295219 
L 226.93069 290.554419 
L 228.016491 288.823683 
L 229.102292 290.359054 
L 231.273895 290.539979 
L 232.359696 289.914886 
L 233.445497 290.484156 
L 234.531298 289.272986 
L 235.617099 290.221171 
L 236.702901 290.954856 
L 237.788702 290.687428 
L 238.874503 289.92975 
L 239.960304 289.403666 
L 241.046105 289.839515 
L 242.131906 291.790817 
L 243.217708 290.779148 
L 244.303509 291.263778 
L 245.38931 291.976268 
L 246.475111 291.372934 
L 247.560912 290.283099 
L 248.646713 290.576771 
L 249.732514 291.151134 
L 250.818316 289.968443 
L 251.904117 290.32414 
L 252.989918 291.269616 
L 254.075719 291.209645 
L 256.247321 290.646471 
L 257.333123 291.941905 
L 258.418924 291.288716 
L 259.504725 291.186167 
L 261.676327 290.659467 
L 262.762128 290.394942 
L 264.933731 291.564124 
L 266.019532 291.191415 
L 267.105333 290.544414 
L 268.191134 291.197706 
L 269.276935 290.700711 
L 270.362736 289.599977 
L 271.448538 289.597865 
L 272.534339 290.369023 
L 273.62014 292.124645 
L 274.705941 289.787424 
L 275.791742 289.252936 
L 276.877543 289.952636 
L 277.963344 289.481152 
L 279.049146 290.246369 
L 280.134947 290.264721 
L 281.220748 290.505131 
L 282.306549 290.171111 
L 283.39235 291.414659 
L 284.478151 290.31337 
L 285.563953 290.729945 
L 286.649754 290.623105 
L 287.735555 289.954803 
L 288.821356 290.086234 
L 289.907157 289.55792 
L 290.992958 291.300171 
L 292.07876 291.166963 
L 293.164561 290.346134 
L 294.250362 289.942038 
L 295.336163 291.430001 
L 296.421964 290.897567 
L 298.593566 290.56766 
L 299.679368 291.392175 
L 300.765169 290.552877 
L 301.85097 290.844668 
L 302.936771 290.969462 
L 304.022572 290.762708 
L 305.108373 290.776129 
L 306.194175 289.45917 
L 307.279976 289.853287 
L 309.451578 291.115157 
L 310.537379 290.540898 
L 311.62318 290.455537 
L 312.708981 290.255715 
L 313.794783 290.203634 
L 314.880584 290.683829 
L 315.966385 289.210057 
L 317.052186 289.636177 
L 318.137987 289.800799 
L 319.223788 290.56624 
L 320.30959 290.165274 
L 321.395391 290.164623 
L 322.481192 288.357995 
L 323.566993 289.374246 
L 324.652794 289.651578 
L 325.738595 289.791002 
L 326.824396 289.42854 
L 327.910198 289.612942 
L 328.995999 288.667859 
L 330.0818 289.763963 
L 331.167601 290.292443 
L 332.253402 289.932359 
L 333.339203 291.072559 
L 334.425005 292.468312 
L 335.510806 291.994485 
L 336.596607 291.11745 
L 338.768209 292.205015 
L 339.85401 291.902704 
L 340.939811 290.252264 
L 342.025613 290.343583 
L 343.111414 290.101058 
L 344.197215 291.585787 
L 345.283016 291.34474 
L 346.368817 291.625168 
L 348.54042 294.285263 
L 349.626221 293.768104 
L 350.712022 293.664599 
L 351.797823 292.700849 
L 352.883624 294.190453 
L 353.969425 294.329942 
L 355.055227 295.488 
L 356.141028 293.152612 
L 357.226829 294.314232 
L 358.31263 294.402218 
L 360.484232 292.700562 
L 361.570033 294.793466 
L 363.741636 292.626783 
L 365.913238 291.43953 
L 366.999039 290.11394 
L 368.08484 290.058925 
L 369.170642 290.973106 
L 370.256443 291.488009 
L 371.342244 291.512068 
L 372.428045 290.074602 
L 373.513846 290.208325 
L 374.599647 291.43247 
L 375.685448 293.324296 
L 376.77125 290.517789 
L 377.857051 290.707676 
L 378.942852 290.369683 
L 380.028653 291.76454 
L 381.114454 289.987054 
L 382.200255 288.649732 
L 383.286057 289.528004 
L 384.371858 288.97627 
L 385.457659 291.000625 
L 386.54346 290.026642 
L 387.629261 289.996972 
L 388.715062 289.345356 
L 389.800863 289.749618 
L 390.886665 289.516864 
L 391.972466 291.930927 
L 393.058267 289.364498 
L 394.144068 290.412302 
L 395.229869 292.028773 
L 396.31567 291.545108 
L 397.401472 293.7029 
L 398.487273 290.944231 
L 398.487273 290.944231 
" clip-path="url(#pcd0a26820b)" style="fill: none; stroke-dasharray: 9.6,2.4,1.5,2.4; stroke-dashoffset: 0; stroke: #008000; stroke-width: 1.5"/>
   </g>
   <g id="line2d_29">
    <path d="M 73.832727 260.520338 
L 74.918528 257.757387 
L 76.00433 256.440203 
L 77.090131 253.964477 
L 78.175932 253.236597 
L 79.261733 253.048129 
L 80.347534 248.591884 
L 81.433335 250.2428 
L 82.519137 251.040529 
L 83.604938 249.03932 
L 84.690739 247.414987 
L 85.77654 247.169944 
L 86.862341 247.247517 
L 87.948142 245.682232 
L 89.033943 247.082769 
L 90.119745 246.540977 
L 91.205546 246.576408 
L 92.291347 245.794143 
L 93.377148 246.663639 
L 94.462949 245.463515 
L 96.634552 247.570235 
L 97.720353 244.433574 
L 98.806154 244.798887 
L 99.891955 243.754105 
L 100.977756 242.527534 
L 102.063557 241.897136 
L 103.149358 242.54904 
L 104.23516 240.513922 
L 105.320961 240.360522 
L 106.406762 241.952119 
L 107.492563 241.995903 
L 108.578364 240.454007 
L 109.664165 241.38067 
L 110.749967 237.987861 
L 111.835768 240.053814 
L 112.921569 241.810611 
L 114.00737 242.162528 
L 115.093171 245.584393 
L 116.178972 245.659485 
L 117.264773 236.939822 
L 118.350575 238.446007 
L 119.436376 238.463192 
L 120.522177 240.126192 
L 121.607978 239.461443 
L 122.693779 240.798537 
L 123.77958 240.38694 
L 124.865382 238.894188 
L 125.951183 240.951746 
L 127.036984 240.440554 
L 129.208586 243.811372 
L 130.294387 241.103202 
L 131.380189 241.607798 
L 132.46599 243.080313 
L 133.551791 242.940544 
L 134.637592 241.329316 
L 135.723393 242.783332 
L 136.809194 241.145956 
L 137.894995 242.389042 
L 138.980797 241.399248 
L 140.066598 241.704904 
L 142.2382 236.545827 
L 143.324001 241.387171 
L 144.409802 242.736126 
L 145.495604 241.161881 
L 146.581405 243.411519 
L 147.667206 242.704322 
L 148.753007 244.266923 
L 149.838808 241.468038 
L 150.924609 244.563043 
L 152.01041 242.940775 
L 153.096212 244 
L 155.267814 241.624475 
L 156.353615 241.893529 
L 157.439416 242.760314 
L 158.525217 242.140717 
L 159.611019 242.668824 
L 160.69682 246.55802 
L 161.782621 246.289483 
L 162.868422 244.390806 
L 163.954223 243.954686 
L 165.040024 244.155936 
L 166.125825 242.150273 
L 167.211627 240.505072 
L 168.297428 244.835078 
L 169.383229 244.886954 
L 170.46903 243.574921 
L 171.554831 244.669235 
L 172.640632 241.708112 
L 173.726434 240.73361 
L 174.812235 244.989157 
L 175.898036 244.533616 
L 176.983837 243.548825 
L 178.069638 244.853611 
L 179.155439 244.624424 
L 180.24124 243.166312 
L 181.327042 245.884075 
L 182.412843 244.765762 
L 183.498644 244.338801 
L 184.584445 245.435342 
L 185.670246 243.691078 
L 186.756047 243.742506 
L 187.841849 245.502112 
L 188.92765 246.21263 
L 190.013451 246.195185 
L 191.099252 245.180258 
L 192.185053 244.416081 
L 193.270854 244.425139 
L 194.356656 243.246565 
L 195.442457 244.166227 
L 196.528258 244.080082 
L 197.614059 244.220259 
L 198.69986 242.705142 
L 199.785661 244.103336 
L 200.871462 240.198543 
L 201.957264 243.694602 
L 203.043065 239.619174 
L 204.128866 242.241914 
L 205.214667 242.883816 
L 206.300468 242.550167 
L 207.386269 243.918372 
L 208.472071 244.181445 
L 209.557872 243.672938 
L 210.643673 242.869629 
L 211.729474 239.924292 
L 212.815275 243.335302 
L 213.901076 245.357846 
L 214.986877 243.572885 
L 216.072679 242.956555 
L 218.244281 243.147448 
L 219.330082 245.208404 
L 220.415883 236.341265 
L 221.501684 239.889782 
L 222.587486 237.694364 
L 223.673287 240.034859 
L 224.759088 241.135234 
L 225.844889 242.913251 
L 226.93069 242.170498 
L 228.016491 242.653529 
L 229.102292 243.553887 
L 230.188094 242.454598 
L 231.273895 239.550028 
L 232.359696 239.423978 
L 233.445497 238.185861 
L 235.617099 242.466494 
L 236.702901 237.835925 
L 237.788702 239.720056 
L 238.874503 238.854079 
L 239.960304 239.323796 
L 241.046105 239.301616 
L 242.131906 238.324489 
L 243.217708 241.200218 
L 244.303509 241.613395 
L 245.38931 241.178246 
L 246.475111 242.629297 
L 247.560912 241.612002 
L 248.646713 241.279978 
L 249.732514 239.731262 
L 250.818316 241.875449 
L 251.904117 242.203456 
L 252.989918 241.345865 
L 254.075719 239.999454 
L 255.16152 241.010925 
L 256.247321 239.973311 
L 257.333123 238.711832 
L 258.418924 242.959836 
L 259.504725 240.247062 
L 260.590526 242.578304 
L 261.676327 243.384343 
L 262.762128 242.282753 
L 263.847929 243.78885 
L 264.933731 240.886445 
L 266.019532 242.891253 
L 267.105333 243.551071 
L 268.191134 240.444387 
L 269.276935 242.695664 
L 270.362736 242.91147 
L 271.448538 241.963738 
L 272.534339 240.658755 
L 273.62014 239.900744 
L 274.705941 243.248492 
L 275.791742 242.801996 
L 276.877543 242.17514 
L 277.963344 242.82801 
L 279.049146 243.96536 
L 280.134947 243.389054 
L 281.220748 243.298794 
L 282.306549 240.733543 
L 283.39235 239.107083 
L 284.478151 240.908413 
L 285.563953 240.369143 
L 286.649754 239.325617 
L 287.735555 240.642769 
L 288.821356 239.946332 
L 289.907157 240.468311 
L 290.992958 238.209404 
L 292.07876 239.966515 
L 293.164561 240.753512 
L 294.250362 240.331015 
L 295.336163 237.934576 
L 296.421964 240.141475 
L 297.507765 239.842806 
L 298.593566 241.229348 
L 300.765169 237.771545 
L 301.85097 240.932788 
L 302.936771 238.465251 
L 304.022572 240.322763 
L 305.108373 240.180687 
L 306.194175 243.205184 
L 307.279976 240.47516 
L 308.365777 239.329778 
L 309.451578 240.164274 
L 310.537379 237.924497 
L 311.62318 240.985258 
L 312.708981 242.797722 
L 313.794783 242.390201 
L 314.880584 240.430697 
L 317.052186 242.613128 
L 318.137987 241.922486 
L 319.223788 238.845674 
L 320.30959 240.273323 
L 321.395391 239.934691 
L 322.481192 241.326677 
L 323.566993 241.788597 
L 324.652794 241.306727 
L 325.738595 240.69377 
L 326.824396 240.977001 
L 327.910198 239.260713 
L 328.995999 240.366281 
L 330.0818 240.414591 
L 331.167601 239.028364 
L 332.253402 242.055424 
L 334.425005 240.23452 
L 335.510806 238.938725 
L 336.596607 239.007129 
L 337.682408 237.644925 
L 338.768209 237.008674 
L 339.85401 239.343098 
L 340.939811 237.915866 
L 342.025613 240.036517 
L 343.111414 237.141679 
L 344.197215 236.575061 
L 345.283016 236.556144 
L 346.368817 237.627398 
L 347.454618 234.722938 
L 348.54042 232.248544 
L 349.626221 232.720882 
L 350.712022 233.953581 
L 351.797823 232.62273 
L 352.883624 233.35451 
L 353.969425 233.205309 
L 355.055227 231.420317 
L 356.141028 232.063343 
L 357.226829 232.020463 
L 358.31263 230.683755 
L 359.398431 235.753049 
L 360.484232 237.034522 
L 361.570033 236.058927 
L 362.655835 235.89731 
L 363.741636 236.723665 
L 364.827437 236.983723 
L 365.913238 240.451626 
L 368.08484 238.844748 
L 369.170642 236.092082 
L 370.256443 237.70577 
L 371.342244 236.872686 
L 372.428045 239.905494 
L 373.513846 238.465516 
L 374.599647 238.308545 
L 375.685448 237.036406 
L 376.77125 239.405964 
L 377.857051 238.769429 
L 378.942852 240.485169 
L 380.028653 238.8847 
L 381.114454 239.414831 
L 382.200255 241.963479 
L 383.286057 240.988586 
L 384.371858 241.721648 
L 385.457659 238.67137 
L 386.54346 241.517289 
L 388.715062 240.269691 
L 389.800863 239.515127 
L 390.886665 240.27183 
L 391.972466 238.112931 
L 393.058267 240.095813 
L 394.144068 237.879701 
L 395.229869 236.24128 
L 396.31567 236.113425 
L 397.401472 234.015346 
L 398.487273 240.055627 
L 398.487273 240.055627 
" clip-path="url(#pcd0a26820b)" style="fill: none; stroke-dasharray: 9.6,2.4,1.5,2.4; stroke-dashoffset: 0; stroke: #008000; stroke-width: 1.5"/>
   </g>
   <g id="line2d_30">
    <path d="M 73.832727 179.281444 
L 74.918528 168.930252 
L 76.00433 168.930252 
L 77.090131 142.92639 
L 79.261733 142.92639 
L 80.347534 140.246823 
L 86.862341 140.246823 
L 87.948142 139.212657 
L 103.149358 139.212657 
L 104.23516 62.187267 
L 116.178972 62.187267 
L 117.264773 53.568 
L 398.487273 53.568 
L 398.487273 53.568 
" clip-path="url(#pcd0a26820b)" style="fill: none; stroke: #ff0000; stroke-width: 1.5; stroke-linecap: square"/>
   </g>
   <g id="patch_3">
    <path d="M 57.6 307.584 
L 57.6 41.472 
" style="fill: none; stroke: #000000; stroke-width: 0.8; stroke-linejoin: miter; stroke-linecap: square"/>
   </g>
   <g id="patch_4">
    <path d="M 414.72 307.584 
L 414.72 41.472 
" style="fill: none; stroke: #000000; stroke-width: 0.8; stroke-linejoin: miter; stroke-linecap: square"/>
   </g>
   <g id="patch_5">
    <path d="M 57.6 307.584 
L 414.72 307.584 
" style="fill: none; stroke: #000000; stroke-width: 0.8; stroke-linejoin: miter; stroke-linecap: square"/>
   </g>
   <g id="patch_6">
    <path d="M 57.6 41.472 
L 414.72 41.472 
" style="fill: none; stroke: #000000; stroke-width: 0.8; stroke-linejoin: miter; stroke-linecap: square"/>
   </g>
   <g id="text_16">
    <!-- Population's average and best fitness -->
    <g transform="translate(123.529687 35.472) scale(0.12 -0.12)">
     <defs>
      <path id="DejaVuSans-50" d="M 1259 4147 
L 1259 2394 
L 2053 2394 
Q 2494 2394 2734 2622 
Q 2975 2850 2975 3272 
Q 2975 3691 2734 3919 
Q 2494 4147 2053 4147 
L 1259 4147 
z
M 628 4666 
L 2053 4666 
Q 2838 4666 3239 4311 
Q 3641 3956 3641 3272 
Q 3641 2581 3239 2228 
Q 2838 1875 2053 1875 
L 1259 1875 
L 1259 0 
L 628 0 
L 628 4666 
z
" transform="scale(0.015625)"/>
      <path id="DejaVuSans-70" d="M 1159 525 
L 1159 -1331 
L 581 -1331 
L 581 3500 
L 1159 3500 
L 1159 2969 
Q 1341 3281 1617 3432 
Q 1894 3584 2278 3584 
Q 2916 3584 3314 3078 
Q 3713 2572 3713 1747 
Q 3713 922 3314 415 
Q 2916 -91 2278 -91 
Q 1894 -91 1617 61 
Q 1341 213 1159 525 
z
M 3116 1747 
Q 3116 2381 2855 2742 
Q 2594 3103 2138 3103 
Q 1681 3103 1420 2742 
Q 1159 2381 1159 1747 
Q 1159 1113 1420 752 
Q 1681 391 2138 391 
Q 2594 391 2855 752 
Q 3116 1113 3116 1747 
z
" transform="scale(0.015625)"/>
      <path id="DejaVuSans-75" d="M 544 1381 
L 544 3500 
L 1119 3500 
L 1119 1403 
Q 1119 906 1312 657 
Q 1506 409 1894 409 
Q 2359 409 2629 706 
Q 2900 1003 2900 1516 
L 2900 3500 
L 3475 3500 
L 3475 0 
L 2900 0 
L 2900 538 
Q 2691 219 2414 64 
Q 2138 -91 1772 -91 
Q 1169 -91 856 284 
Q 544 659 544 1381 
z
M 1991 3584 
L 1991 3584 
z
" transform="scale(0.015625)"/>
      <path id="DejaVuSans-6c" d="M 603 4863 
L 1178 4863 
L 1178 0 
L 603 0 
L 603 4863 
z
" transform="scale(0.015625)"/>
      <path id="DejaVuSans-27" d="M 1147 4666 
L 1147 2931 
L 616 2931 
L 616 4666 
L 1147 4666 
z
" transform="scale(0.015625)"/>
      <path id="DejaVuSans-20" transform="scale(0.015625)"/>
      <path id="DejaVuSans-76" d="M 191 3500 
L 800 3500 
L 1894 563 
L 2988 3500 
L 3597 3500 
L 2284 0 
L 1503 0 
L 191 3500 
z
" transform="scale(0.015625)"/>
      <path id="DejaVuSans-67" d="M 2906 1791 
Q 2906 2416 2648 2759 
Q 2391 3103 1925 3103 
Q 1463 3103 1205 2759 
Q 947 2416 947 1791 
Q 947 1169 1205 825 
Q 1463 481 1925 481 
Q 2391 481 2648 825 
Q 2906 1169 2906 1791 
z
M 3481 434 
Q 3481 -459 3084 -895 
Q 2688 -1331 1869 -1331 
Q 1566 -1331 1297 -1286 
Q 1028 -1241 775 -1147 
L 775 -588 
Q 1028 -725 1275 -790 
Q 1522 -856 1778 -856 
Q 2344 -856 2625 -561 
Q 2906 -266 2906 331 
L 2906 616 
Q 2728 306 2450 153 
Q 2172 0 1784 0 
Q 1141 0 747 490 
Q 353 981 353 1791 
Q 353 2603 747 3093 
Q 1141 3584 1784 3584 
Q 2172 3584 2450 3431 
Q 2728 3278 2906 2969 
L 2906 3500 
L 3481 3500 
L 3481 434 
z
" transform="scale(0.015625)"/>
      <path id="DejaVuSans-64" d="M 2906 2969 
L 2906 4863 
L 3481 4863 
L 3481 0 
L 2906 0 
L 2906 525 
Q 2725 213 2448 61 
Q 2172 -91 1784 -91 
Q 1150 -91 751 415 
Q 353 922 353 1747 
Q 353 2572 751 3078 
Q 1150 3584 1784 3584 
Q 2172 3584 2448 3432 
Q 2725 3281 2906 2969 
z
M 947 1747 
Q 947 1113 1208 752 
Q 1469 391 1925 391 
Q 2381 391 2643 752 
Q 2906 1113 2906 1747 
Q 2906 2381 2643 2742 
Q 2381 3103 1925 3103 
Q 1469 3103 1208 2742 
Q 947 2381 947 1747 
z
" transform="scale(0.015625)"/>
      <path id="DejaVuSans-62" d="M 3116 1747 
Q 3116 2381 2855 2742 
Q 2594 3103 2138 3103 
Q 1681 3103 1420 2742 
Q 1159 2381 1159 1747 
Q 1159 1113 1420 752 
Q 1681 391 2138 391 
Q 2594 391 2855 752 
Q 3116 1113 3116 1747 
z
M 1159 2969 
Q 1341 3281 1617 3432 
Q 1894 3584 2278 3584 
Q 2916 3584 3314 3078 
Q 3713 2572 3713 1747 
Q 3713 922 3314 415 
Q 2916 -91 2278 -91 
Q 1894 -91 1617 61 
Q 1341 213 1159 525 
L 1159 0 
L 581 0 
L 581 4863 
L 1159 4863 
L 1159 2969 
z
" transform="scale(0.015625)"/>
      <path id="DejaVuSans-66" d="M 2375 4863 
L 2375 4384 
L 1825 4384 
Q 1516 4384 1395 4259 
Q 1275 4134 1275 3809 
L 1275 3500 
L 2222 3500 
L 2222 3053 
L 1275 3053 
L 1275 0 
L 697 0 
L 697 3053 
L 147 3053 
L 147 3500 
L 697 3500 
L 697 3744 
Q 697 4328 969 4595 
Q 1241 4863 1831 4863 
L 2375 4863 
z
" transform="scale(0.015625)"/>
     </defs>
     <use xlink:href="#DejaVuSans-50"/>
     <use xlink:href="#DejaVuSans-6f" x="56.677734"/>
     <use xlink:href="#DejaVuSans-70" x="117.859375"/>
     <use xlink:href="#DejaVuSans-75" x="181.335938"/>
     <use xlink:href="#DejaVuSans-6c" x="244.714844"/>
     <use xlink:href="#DejaVuSans-61" x="272.498047"/>
     <use xlink:href="#DejaVuSans-74" x="333.777344"/>
     <use xlink:href="#DejaVuSans-69" x="372.986328"/>
     <use xlink:href="#DejaVuSans-6f" x="400.769531"/>
     <use xlink:href="#DejaVuSans-6e" x="461.951172"/>
     <use xlink:href="#DejaVuSans-27" x="525.330078"/>
     <use xlink:href="#DejaVuSans-73" x="552.820312"/>
     <use xlink:href="#DejaVuSans-20" x="604.919922"/>
     <use xlink:href="#DejaVuSans-61" x="636.707031"/>
     <use xlink:href="#DejaVuSans-76" x="697.986328"/>
     <use xlink:href="#DejaVuSans-65" x="757.166016"/>
     <use xlink:href="#DejaVuSans-72" x="818.689453"/>
     <use xlink:href="#DejaVuSans-61" x="859.802734"/>
     <use xlink:href="#DejaVuSans-67" x="921.082031"/>
     <use xlink:href="#DejaVuSans-65" x="984.558594"/>
     <use xlink:href="#DejaVuSans-20" x="1046.082031"/>
     <use xlink:href="#DejaVuSans-61" x="1077.869141"/>
     <use xlink:href="#DejaVuSans-6e" x="1139.148438"/>
     <use xlink:href="#DejaVuSans-64" x="1202.527344"/>
     <use xlink:href="#DejaVuSans-20" x="1266.003906"/>
     <use xlink:href="#DejaVuSans-62" x="1297.791016"/>
     <use xlink:href="#DejaVuSans-65" x="1361.267578"/>
     <use xlink:href="#DejaVuSans-73" x="1422.791016"/>
     <use xlink:href="#DejaVuSans-74" x="1474.890625"/>
     <use xlink:href="#DejaVuSans-20" x="1514.099609"/>
     <use xlink:href="#DejaVuSans-66" x="1545.886719"/>
     <use xlink:href="#DejaVuSans-69" x="1581.091797"/>
     <use xlink:href="#DejaVuSans-74" x="1608.875"/>
     <use xlink:href="#DejaVuSans-6e" x="1648.083984"/>
     <use xlink:href="#DejaVuSans-65" x="1711.462891"/>
     <use xlink:href="#DejaVuSans-73" x="1772.986328"/>
     <use xlink:href="#DejaVuSans-73" x="1825.085938"/>
    </g>
   </g>
   <g id="legend_1">
    <g id="patch_7">
     <path d="M 334.779375 205.38425 
L 407.72 205.38425 
Q 409.72 205.38425 409.72 203.38425 
L 409.72 145.67175 
Q 409.72 143.67175 407.72 143.67175 
L 334.779375 143.67175 
Q 332.779375 143.67175 332.779375 145.67175 
L 332.779375 203.38425 
Q 332.779375 205.38425 334.779375 205.38425 
z
" style="fill: #ffffff; opacity: 0.8; stroke: #cccccc; stroke-linejoin: miter"/>
    </g>
    <g id="line2d_31">
     <path d="M 336.779375 151.770188 
L 346.779375 151.770188 
L 356.779375 151.770188 
" style="fill: none; stroke: #0000ff; stroke-width: 1.5; stroke-linecap: square"/>
    </g>
    <g id="text_17">
     <!-- average -->
     <g transform="translate(364.779375 155.270188) scale(0.1 -0.1)">
      <use xlink:href="#DejaVuSans-61"/>
      <use xlink:href="#DejaVuSans-76" x="61.279297"/>
      <use xlink:href="#DejaVuSans-65" x="120.458984"/>
      <use xlink:href="#DejaVuSans-72" x="181.982422"/>
      <use xlink:href="#DejaVuSans-61" x="223.095703"/>
      <use xlink:href="#DejaVuSans-67" x="284.375"/>
      <use xlink:href="#DejaVuSans-65" x="347.851562"/>
     </g>
    </g>
    <g id="line2d_32">
     <path d="M 336.779375 166.448313 
L 346.779375 166.448313 
L 356.779375 166.448313 
" style="fill: none; stroke-dasharray: 9.6,2.4,1.5,2.4; stroke-dashoffset: 0; stroke: #008000; stroke-width: 1.5"/>
    </g>
    <g id="text_18">
     <!-- -1 sd -->
     <g transform="translate(364.779375 169.948313) scale(0.1 -0.1)">
      <defs>
       <path id="DejaVuSans-2d" d="M 313 2009 
L 1997 2009 
L 1997 1497 
L 313 1497 
L 313 2009 
z
" transform="scale(0.015625)"/>
      </defs>
      <use xlink:href="#DejaVuSans-2d"/>
      <use xlink:href="#DejaVuSans-31" x="36.083984"/>
      <use xlink:href="#DejaVuSans-20" x="99.707031"/>
      <use xlink:href="#DejaVuSans-73" x="131.494141"/>
      <use xlink:href="#DejaVuSans-64" x="183.59375"/>
     </g>
    </g>
    <g id="line2d_33">
     <path d="M 336.779375 181.126438 
L 346.779375 181.126438 
L 356.779375 181.126438 
" style="fill: none; stroke-dasharray: 9.6,2.4,1.5,2.4; stroke-dashoffset: 0; stroke: #008000; stroke-width: 1.5"/>
    </g>
    <g id="text_19">
     <!-- +1 sd -->
     <g transform="translate(364.779375 184.626438) scale(0.1 -0.1)">
      <defs>
       <path id="DejaVuSans-2b" d="M 2944 4013 
L 2944 2272 
L 4684 2272 
L 4684 1741 
L 2944 1741 
L 2944 0 
L 2419 0 
L 2419 1741 
L 678 1741 
L 678 2272 
L 2419 2272 
L 2419 4013 
L 2944 4013 
z
" transform="scale(0.015625)"/>
      </defs>
      <use xlink:href="#DejaVuSans-2b"/>
      <use xlink:href="#DejaVuSans-31" x="83.789062"/>
      <use xlink:href="#DejaVuSans-20" x="147.412109"/>
      <use xlink:href="#DejaVuSans-73" x="179.199219"/>
      <use xlink:href="#DejaVuSans-64" x="231.298828"/>
     </g>
    </g>
    <g id="line2d_34">
     <path d="M 336.779375 195.804563 
L 346.779375 195.804563 
L 356.779375 195.804563 
" style="fill: none; stroke: #ff0000; stroke-width: 1.5; stroke-linecap: square"/>
    </g>
    <g id="text_20">
     <!-- best -->
     <g transform="translate(364.779375 199.304563) scale(0.1 -0.1)">
      <use xlink:href="#DejaVuSans-62"/>
      <use xlink:href="#DejaVuSans-65" x="63.476562"/>
      <use xlink:href="#DejaVuSans-73" x="125"/>
      <use xlink:href="#DejaVuSans-74" x="177.099609"/>
     </g>
    </g>
   </g>
  </g>
 </g>
 <defs>
  <clipPath id="pcd0a26820b">
   <rect x="57.6" y="41.472" width="357.12" height="266.112"/>
  </clipPath>
 </defs>
</svg>
