<?xml version="1.0" encoding="utf-8" standalone="no"?>
<!DOCTYPE svg PUBLIC "-//W3C//DTD SVG 1.1//EN"
  "http://www.w3.org/Graphics/SVG/1.1/DTD/svg11.dtd">
<svg xmlns:xlink="http://www.w3.org/1999/xlink" width="460.8pt" height="345.6pt" viewBox="0 0 460.8 345.6" xmlns="http://www.w3.org/2000/svg" version="1.1">
 <metadata>
  <rdf:RDF xmlns:dc="http://purl.org/dc/elements/1.1/" xmlns:cc="http://creativecommons.org/ns#" xmlns:rdf="http://www.w3.org/1999/02/22-rdf-syntax-ns#">
   <cc:Work>
    <dc:type rdf:resource="http://purl.org/dc/dcmitype/StillImage"/>
    <dc:date>2024-07-22T10:59:39.271483</dc:date>
    <dc:format>image/svg+xml</dc:format>
    <dc:creator>
     <cc:Agent>
      <dc:title>Matplotlib v3.9.1, https://matplotlib.org/</dc:title>
     </cc:Agent>
    </dc:creator>
   </cc:Work>
  </rdf:RDF>
 </metadata>
 <defs>
  <style type="text/css">*{stroke-linejoin: round; stroke-linecap: butt}</style>
 </defs>
 <g id="figure_1">
  <g id="patch_1">
   <path d="M 0 345.6 
L 460.8 345.6 
L 460.8 0 
L 0 0 
z
" style="fill: #ffffff"/>
  </g>
  <g id="axes_1">
   <g id="patch_2">
    <path d="M 57.6 307.584 
L 414.72 307.584 
L 414.72 41.472 
L 57.6 41.472 
z
" style="fill: #ffffff"/>
   </g>
   <g id="matplotlib.axis_1">
    <g id="xtick_1">
     <g id="line2d_1">
      <path d="M 73.832727 307.584 
L 73.832727 41.472 
" clip-path="url(#p467b8692c3)" style="fill: none; stroke: #b0b0b0; stroke-width: 0.8; stroke-linecap: square"/>
     </g>
     <g id="line2d_2">
      <defs>
       <path id="mbfd0cc6dbe" d="M 0 0 
L 0 3.5 
" style="stroke: #000000; stroke-width: 0.8"/>
      </defs>
      <g>
       <use xlink:href="#mbfd0cc6dbe" x="73.832727" y="307.584" style="stroke: #000000; stroke-width: 0.8"/>
      </g>
     </g>
     <g id="text_1">
      <!-- 0 -->
      <g transform="translate(70.651477 322.182437) scale(0.1 -0.1)">
       <defs>
        <path id="DejaVuSans-30" d="M 2034 4250 
Q 1547 4250 1301 3770 
Q 1056 3291 1056 2328 
Q 1056 1369 1301 889 
Q 1547 409 2034 409 
Q 2525 409 2770 889 
Q 3016 1369 3016 2328 
Q 3016 3291 2770 3770 
Q 2525 4250 2034 4250 
z
M 2034 4750 
Q 2819 4750 3233 4129 
Q 3647 3509 3647 2328 
Q 3647 1150 3233 529 
Q 2819 -91 2034 -91 
Q 1250 -91 836 529 
Q 422 1150 422 2328 
Q 422 3509 836 4129 
Q 1250 4750 2034 4750 
z
" transform="scale(0.015625)"/>
       </defs>
       <use xlink:href="#DejaVuSans-30"/>
      </g>
     </g>
    </g>
    <g id="xtick_2">
     <g id="line2d_3">
      <path d="M 128.122785 307.584 
L 128.122785 41.472 
" clip-path="url(#p467b8692c3)" style="fill: none; stroke: #b0b0b0; stroke-width: 0.8; stroke-linecap: square"/>
     </g>
     <g id="line2d_4">
      <g>
       <use xlink:href="#mbfd0cc6dbe" x="128.122785" y="307.584" style="stroke: #000000; stroke-width: 0.8"/>
      </g>
     </g>
     <g id="text_2">
      <!-- 50 -->
      <g transform="translate(121.760285 322.182437) scale(0.1 -0.1)">
       <defs>
        <path id="DejaVuSans-35" d="M 691 4666 
L 3169 4666 
L 3169 4134 
L 1269 4134 
L 1269 2991 
Q 1406 3038 1543 3061 
Q 1681 3084 1819 3084 
Q 2600 3084 3056 2656 
Q 3513 2228 3513 1497 
Q 3513 744 3044 326 
Q 2575 -91 1722 -91 
Q 1428 -91 1123 -41 
Q 819 9 494 109 
L 494 744 
Q 775 591 1075 516 
Q 1375 441 1709 441 
Q 2250 441 2565 725 
Q 2881 1009 2881 1497 
Q 2881 1984 2565 2268 
Q 2250 2553 1709 2553 
Q 1456 2553 1204 2497 
Q 953 2441 691 2322 
L 691 4666 
z
" transform="scale(0.015625)"/>
       </defs>
       <use xlink:href="#DejaVuSans-35"/>
       <use xlink:href="#DejaVuSans-30" x="63.623047"/>
      </g>
     </g>
    </g>
    <g id="xtick_3">
     <g id="line2d_5">
      <path d="M 182.412843 307.584 
L 182.412843 41.472 
" clip-path="url(#p467b8692c3)" style="fill: none; stroke: #b0b0b0; stroke-width: 0.8; stroke-linecap: square"/>
     </g>
     <g id="line2d_6">
      <g>
       <use xlink:href="#mbfd0cc6dbe" x="182.412843" y="307.584" style="stroke: #000000; stroke-width: 0.8"/>
      </g>
     </g>
     <g id="text_3">
      <!-- 100 -->
      <g transform="translate(172.869093 322.182437) scale(0.1 -0.1)">
       <defs>
        <path id="DejaVuSans-31" d="M 794 531 
L 1825 531 
L 1825 4091 
L 703 3866 
L 703 4441 
L 1819 4666 
L 2450 4666 
L 2450 531 
L 3481 531 
L 3481 0 
L 794 0 
L 794 531 
z
" transform="scale(0.015625)"/>
       </defs>
       <use xlink:href="#DejaVuSans-31"/>
       <use xlink:href="#DejaVuSans-30" x="63.623047"/>
       <use xlink:href="#DejaVuSans-30" x="127.246094"/>
      </g>
     </g>
    </g>
    <g id="xtick_4">
     <g id="line2d_7">
      <path d="M 236.702901 307.584 
L 236.702901 41.472 
" clip-path="url(#p467b8692c3)" style="fill: none; stroke: #b0b0b0; stroke-width: 0.8; stroke-linecap: square"/>
     </g>
     <g id="line2d_8">
      <g>
       <use xlink:href="#mbfd0cc6dbe" x="236.702901" y="307.584" style="stroke: #000000; stroke-width: 0.8"/>
      </g>
     </g>
     <g id="text_4">
      <!-- 150 -->
      <g transform="translate(227.159151 322.182437) scale(0.1 -0.1)">
       <use xlink:href="#DejaVuSans-31"/>
       <use xlink:href="#DejaVuSans-35" x="63.623047"/>
       <use xlink:href="#DejaVuSans-30" x="127.246094"/>
      </g>
     </g>
    </g>
    <g id="xtick_5">
     <g id="line2d_9">
      <path d="M 290.992958 307.584 
L 290.992958 41.472 
" clip-path="url(#p467b8692c3)" style="fill: none; stroke: #b0b0b0; stroke-width: 0.8; stroke-linecap: square"/>
     </g>
     <g id="line2d_10">
      <g>
       <use xlink:href="#mbfd0cc6dbe" x="290.992958" y="307.584" style="stroke: #000000; stroke-width: 0.8"/>
      </g>
     </g>
     <g id="text_5">
      <!-- 200 -->
      <g transform="translate(281.449208 322.182437) scale(0.1 -0.1)">
       <defs>
        <path id="DejaVuSans-32" d="M 1228 531 
L 3431 531 
L 3431 0 
L 469 0 
L 469 531 
Q 828 903 1448 1529 
Q 2069 2156 2228 2338 
Q 2531 2678 2651 2914 
Q 2772 3150 2772 3378 
Q 2772 3750 2511 3984 
Q 2250 4219 1831 4219 
Q 1534 4219 1204 4116 
Q 875 4013 500 3803 
L 500 4441 
Q 881 4594 1212 4672 
Q 1544 4750 1819 4750 
Q 2544 4750 2975 4387 
Q 3406 4025 3406 3419 
Q 3406 3131 3298 2873 
Q 3191 2616 2906 2266 
Q 2828 2175 2409 1742 
Q 1991 1309 1228 531 
z
" transform="scale(0.015625)"/>
       </defs>
       <use xlink:href="#DejaVuSans-32"/>
       <use xlink:href="#DejaVuSans-30" x="63.623047"/>
       <use xlink:href="#DejaVuSans-30" x="127.246094"/>
      </g>
     </g>
    </g>
    <g id="xtick_6">
     <g id="line2d_11">
      <path d="M 345.283016 307.584 
L 345.283016 41.472 
" clip-path="url(#p467b8692c3)" style="fill: none; stroke: #b0b0b0; stroke-width: 0.8; stroke-linecap: square"/>
     </g>
     <g id="line2d_12">
      <g>
       <use xlink:href="#mbfd0cc6dbe" x="345.283016" y="307.584" style="stroke: #000000; stroke-width: 0.8"/>
      </g>
     </g>
     <g id="text_6">
      <!-- 250 -->
      <g transform="translate(335.739266 322.182437) scale(0.1 -0.1)">
       <use xlink:href="#DejaVuSans-32"/>
       <use xlink:href="#DejaVuSans-35" x="63.623047"/>
       <use xlink:href="#DejaVuSans-30" x="127.246094"/>
      </g>
     </g>
    </g>
    <g id="xtick_7">
     <g id="line2d_13">
      <path d="M 399.573074 307.584 
L 399.573074 41.472 
" clip-path="url(#p467b8692c3)" style="fill: none; stroke: #b0b0b0; stroke-width: 0.8; stroke-linecap: square"/>
     </g>
     <g id="line2d_14">
      <g>
       <use xlink:href="#mbfd0cc6dbe" x="399.573074" y="307.584" style="stroke: #000000; stroke-width: 0.8"/>
      </g>
     </g>
     <g id="text_7">
      <!-- 300 -->
      <g transform="translate(390.029324 322.182437) scale(0.1 -0.1)">
       <defs>
        <path id="DejaVuSans-33" d="M 2597 2516 
Q 3050 2419 3304 2112 
Q 3559 1806 3559 1356 
Q 3559 666 3084 287 
Q 2609 -91 1734 -91 
Q 1441 -91 1130 -33 
Q 819 25 488 141 
L 488 750 
Q 750 597 1062 519 
Q 1375 441 1716 441 
Q 2309 441 2620 675 
Q 2931 909 2931 1356 
Q 2931 1769 2642 2001 
Q 2353 2234 1838 2234 
L 1294 2234 
L 1294 2753 
L 1863 2753 
Q 2328 2753 2575 2939 
Q 2822 3125 2822 3475 
Q 2822 3834 2567 4026 
Q 2313 4219 1838 4219 
Q 1578 4219 1281 4162 
Q 984 4106 628 3988 
L 628 4550 
Q 988 4650 1302 4700 
Q 1616 4750 1894 4750 
Q 2613 4750 3031 4423 
Q 3450 4097 3450 3541 
Q 3450 3153 3228 2886 
Q 3006 2619 2597 2516 
z
" transform="scale(0.015625)"/>
       </defs>
       <use xlink:href="#DejaVuSans-33"/>
       <use xlink:href="#DejaVuSans-30" x="63.623047"/>
       <use xlink:href="#DejaVuSans-30" x="127.246094"/>
      </g>
     </g>
    </g>
    <g id="text_8">
     <!-- Generations -->
     <g transform="translate(205.662344 335.860562) scale(0.1 -0.1)">
      <defs>
       <path id="DejaVuSans-47" d="M 3809 666 
L 3809 1919 
L 2778 1919 
L 2778 2438 
L 4434 2438 
L 4434 434 
Q 4069 175 3628 42 
Q 3188 -91 2688 -91 
Q 1594 -91 976 548 
Q 359 1188 359 2328 
Q 359 3472 976 4111 
Q 1594 4750 2688 4750 
Q 3144 4750 3555 4637 
Q 3966 4525 4313 4306 
L 4313 3634 
Q 3963 3931 3569 4081 
Q 3175 4231 2741 4231 
Q 1884 4231 1454 3753 
Q 1025 3275 1025 2328 
Q 1025 1384 1454 906 
Q 1884 428 2741 428 
Q 3075 428 3337 486 
Q 3600 544 3809 666 
z
" transform="scale(0.015625)"/>
       <path id="DejaVuSans-65" d="M 3597 1894 
L 3597 1613 
L 953 1613 
Q 991 1019 1311 708 
Q 1631 397 2203 397 
Q 2534 397 2845 478 
Q 3156 559 3463 722 
L 3463 178 
Q 3153 47 2828 -22 
Q 2503 -91 2169 -91 
Q 1331 -91 842 396 
Q 353 884 353 1716 
Q 353 2575 817 3079 
Q 1281 3584 2069 3584 
Q 2775 3584 3186 3129 
Q 3597 2675 3597 1894 
z
M 3022 2063 
Q 3016 2534 2758 2815 
Q 2500 3097 2075 3097 
Q 1594 3097 1305 2825 
Q 1016 2553 972 2059 
L 3022 2063 
z
" transform="scale(0.015625)"/>
       <path id="DejaVuSans-6e" d="M 3513 2113 
L 3513 0 
L 2938 0 
L 2938 2094 
Q 2938 2591 2744 2837 
Q 2550 3084 2163 3084 
Q 1697 3084 1428 2787 
Q 1159 2491 1159 1978 
L 1159 0 
L 581 0 
L 581 3500 
L 1159 3500 
L 1159 2956 
Q 1366 3272 1645 3428 
Q 1925 3584 2291 3584 
Q 2894 3584 3203 3211 
Q 3513 2838 3513 2113 
z
" transform="scale(0.015625)"/>
       <path id="DejaVuSans-72" d="M 2631 2963 
Q 2534 3019 2420 3045 
Q 2306 3072 2169 3072 
Q 1681 3072 1420 2755 
Q 1159 2438 1159 1844 
L 1159 0 
L 581 0 
L 581 3500 
L 1159 3500 
L 1159 2956 
Q 1341 3275 1631 3429 
Q 1922 3584 2338 3584 
Q 2397 3584 2469 3576 
Q 2541 3569 2628 3553 
L 2631 2963 
z
" transform="scale(0.015625)"/>
       <path id="DejaVuSans-61" d="M 2194 1759 
Q 1497 1759 1228 1600 
Q 959 1441 959 1056 
Q 959 750 1161 570 
Q 1363 391 1709 391 
Q 2188 391 2477 730 
Q 2766 1069 2766 1631 
L 2766 1759 
L 2194 1759 
z
M 3341 1997 
L 3341 0 
L 2766 0 
L 2766 531 
Q 2569 213 2275 61 
Q 1981 -91 1556 -91 
Q 1019 -91 701 211 
Q 384 513 384 1019 
Q 384 1609 779 1909 
Q 1175 2209 1959 2209 
L 2766 2209 
L 2766 2266 
Q 2766 2663 2505 2880 
Q 2244 3097 1772 3097 
Q 1472 3097 1187 3025 
Q 903 2953 641 2809 
L 641 3341 
Q 956 3463 1253 3523 
Q 1550 3584 1831 3584 
Q 2591 3584 2966 3190 
Q 3341 2797 3341 1997 
z
" transform="scale(0.015625)"/>
       <path id="DejaVuSans-74" d="M 1172 4494 
L 1172 3500 
L 2356 3500 
L 2356 3053 
L 1172 3053 
L 1172 1153 
Q 1172 725 1289 603 
Q 1406 481 1766 481 
L 2356 481 
L 2356 0 
L 1766 0 
Q 1100 0 847 248 
Q 594 497 594 1153 
L 594 3053 
L 172 3053 
L 172 3500 
L 594 3500 
L 594 4494 
L 1172 4494 
z
" transform="scale(0.015625)"/>
       <path id="DejaVuSans-69" d="M 603 3500 
L 1178 3500 
L 1178 0 
L 603 0 
L 603 3500 
z
M 603 4863 
L 1178 4863 
L 1178 4134 
L 603 4134 
L 603 4863 
z
" transform="scale(0.015625)"/>
       <path id="DejaVuSans-6f" d="M 1959 3097 
Q 1497 3097 1228 2736 
Q 959 2375 959 1747 
Q 959 1119 1226 758 
Q 1494 397 1959 397 
Q 2419 397 2687 759 
Q 2956 1122 2956 1747 
Q 2956 2369 2687 2733 
Q 2419 3097 1959 3097 
z
M 1959 3584 
Q 2709 3584 3137 3096 
Q 3566 2609 3566 1747 
Q 3566 888 3137 398 
Q 2709 -91 1959 -91 
Q 1206 -91 779 398 
Q 353 888 353 1747 
Q 353 2609 779 3096 
Q 1206 3584 1959 3584 
z
" transform="scale(0.015625)"/>
       <path id="DejaVuSans-73" d="M 2834 3397 
L 2834 2853 
Q 2591 2978 2328 3040 
Q 2066 3103 1784 3103 
Q 1356 3103 1142 2972 
Q 928 2841 928 2578 
Q 928 2378 1081 2264 
Q 1234 2150 1697 2047 
L 1894 2003 
Q 2506 1872 2764 1633 
Q 3022 1394 3022 966 
Q 3022 478 2636 193 
Q 2250 -91 1575 -91 
Q 1294 -91 989 -36 
Q 684 19 347 128 
L 347 722 
Q 666 556 975 473 
Q 1284 391 1588 391 
Q 1994 391 2212 530 
Q 2431 669 2431 922 
Q 2431 1156 2273 1281 
Q 2116 1406 1581 1522 
L 1381 1569 
Q 847 1681 609 1914 
Q 372 2147 372 2553 
Q 372 3047 722 3315 
Q 1072 3584 1716 3584 
Q 2034 3584 2315 3537 
Q 2597 3491 2834 3397 
z
" transform="scale(0.015625)"/>
      </defs>
      <use xlink:href="#DejaVuSans-47"/>
      <use xlink:href="#DejaVuSans-65" x="77.490234"/>
      <use xlink:href="#DejaVuSans-6e" x="139.013672"/>
      <use xlink:href="#DejaVuSans-65" x="202.392578"/>
      <use xlink:href="#DejaVuSans-72" x="263.916016"/>
      <use xlink:href="#DejaVuSans-61" x="305.029297"/>
      <use xlink:href="#DejaVuSans-74" x="366.308594"/>
      <use xlink:href="#DejaVuSans-69" x="405.517578"/>
      <use xlink:href="#DejaVuSans-6f" x="433.300781"/>
      <use xlink:href="#DejaVuSans-6e" x="494.482422"/>
      <use xlink:href="#DejaVuSans-73" x="557.861328"/>
     </g>
    </g>
   </g>
   <g id="matplotlib.axis_2">
    <g id="ytick_1">
     <g id="line2d_15">
      <path d="M 57.6 303.505841 
L 414.72 303.505841 
" clip-path="url(#p467b8692c3)" style="fill: none; stroke: #b0b0b0; stroke-width: 0.8; stroke-linecap: square"/>
     </g>
     <g id="line2d_16">
      <defs>
       <path id="m23ff6baaa9" d="M 0 0 
L -3.5 0 
" style="stroke: #000000; stroke-width: 0.8"/>
      </defs>
      <g>
       <use xlink:href="#m23ff6baaa9" x="57.6" y="303.505841" style="stroke: #000000; stroke-width: 0.8"/>
      </g>
     </g>
     <g id="text_9">
      <!-- −1600 -->
      <g transform="translate(16.770313 307.30506) scale(0.1 -0.1)">
       <defs>
        <path id="DejaVuSans-2212" d="M 678 2272 
L 4684 2272 
L 4684 1741 
L 678 1741 
L 678 2272 
z
" transform="scale(0.015625)"/>
        <path id="DejaVuSans-36" d="M 2113 2584 
Q 1688 2584 1439 2293 
Q 1191 2003 1191 1497 
Q 1191 994 1439 701 
Q 1688 409 2113 409 
Q 2538 409 2786 701 
Q 3034 994 3034 1497 
Q 3034 2003 2786 2293 
Q 2538 2584 2113 2584 
z
M 3366 4563 
L 3366 3988 
Q 3128 4100 2886 4159 
Q 2644 4219 2406 4219 
Q 1781 4219 1451 3797 
Q 1122 3375 1075 2522 
Q 1259 2794 1537 2939 
Q 1816 3084 2150 3084 
Q 2853 3084 3261 2657 
Q 3669 2231 3669 1497 
Q 3669 778 3244 343 
Q 2819 -91 2113 -91 
Q 1303 -91 875 529 
Q 447 1150 447 2328 
Q 447 3434 972 4092 
Q 1497 4750 2381 4750 
Q 2619 4750 2861 4703 
Q 3103 4656 3366 4563 
z
" transform="scale(0.015625)"/>
       </defs>
       <use xlink:href="#DejaVuSans-2212"/>
       <use xlink:href="#DejaVuSans-31" x="83.789062"/>
       <use xlink:href="#DejaVuSans-36" x="147.412109"/>
       <use xlink:href="#DejaVuSans-30" x="211.035156"/>
       <use xlink:href="#DejaVuSans-30" x="274.658203"/>
      </g>
     </g>
    </g>
    <g id="ytick_2">
     <g id="line2d_17">
      <path d="M 57.6 265.907578 
L 414.72 265.907578 
" clip-path="url(#p467b8692c3)" style="fill: none; stroke: #b0b0b0; stroke-width: 0.8; stroke-linecap: square"/>
     </g>
     <g id="line2d_18">
      <g>
       <use xlink:href="#m23ff6baaa9" x="57.6" y="265.907578" style="stroke: #000000; stroke-width: 0.8"/>
      </g>
     </g>
     <g id="text_10">
      <!-- −1400 -->
      <g transform="translate(16.770313 269.706797) scale(0.1 -0.1)">
       <defs>
        <path id="DejaVuSans-34" d="M 2419 4116 
L 825 1625 
L 2419 1625 
L 2419 4116 
z
M 2253 4666 
L 3047 4666 
L 3047 1625 
L 3713 1625 
L 3713 1100 
L 3047 1100 
L 3047 0 
L 2419 0 
L 2419 1100 
L 313 1100 
L 313 1709 
L 2253 4666 
z
" transform="scale(0.015625)"/>
       </defs>
       <use xlink:href="#DejaVuSans-2212"/>
       <use xlink:href="#DejaVuSans-31" x="83.789062"/>
       <use xlink:href="#DejaVuSans-34" x="147.412109"/>
       <use xlink:href="#DejaVuSans-30" x="211.035156"/>
       <use xlink:href="#DejaVuSans-30" x="274.658203"/>
      </g>
     </g>
    </g>
    <g id="ytick_3">
     <g id="line2d_19">
      <path d="M 57.6 228.309315 
L 414.72 228.309315 
" clip-path="url(#p467b8692c3)" style="fill: none; stroke: #b0b0b0; stroke-width: 0.8; stroke-linecap: square"/>
     </g>
     <g id="line2d_20">
      <g>
       <use xlink:href="#m23ff6baaa9" x="57.6" y="228.309315" style="stroke: #000000; stroke-width: 0.8"/>
      </g>
     </g>
     <g id="text_11">
      <!-- −1200 -->
      <g transform="translate(16.770313 232.108534) scale(0.1 -0.1)">
       <use xlink:href="#DejaVuSans-2212"/>
       <use xlink:href="#DejaVuSans-31" x="83.789062"/>
       <use xlink:href="#DejaVuSans-32" x="147.412109"/>
       <use xlink:href="#DejaVuSans-30" x="211.035156"/>
       <use xlink:href="#DejaVuSans-30" x="274.658203"/>
      </g>
     </g>
    </g>
    <g id="ytick_4">
     <g id="line2d_21">
      <path d="M 57.6 190.711052 
L 414.72 190.711052 
" clip-path="url(#p467b8692c3)" style="fill: none; stroke: #b0b0b0; stroke-width: 0.8; stroke-linecap: square"/>
     </g>
     <g id="line2d_22">
      <g>
       <use xlink:href="#m23ff6baaa9" x="57.6" y="190.711052" style="stroke: #000000; stroke-width: 0.8"/>
      </g>
     </g>
     <g id="text_12">
      <!-- −1000 -->
      <g transform="translate(16.770313 194.510271) scale(0.1 -0.1)">
       <use xlink:href="#DejaVuSans-2212"/>
       <use xlink:href="#DejaVuSans-31" x="83.789062"/>
       <use xlink:href="#DejaVuSans-30" x="147.412109"/>
       <use xlink:href="#DejaVuSans-30" x="211.035156"/>
       <use xlink:href="#DejaVuSans-30" x="274.658203"/>
      </g>
     </g>
    </g>
    <g id="ytick_5">
     <g id="line2d_23">
      <path d="M 57.6 153.112789 
L 414.72 153.112789 
" clip-path="url(#p467b8692c3)" style="fill: none; stroke: #b0b0b0; stroke-width: 0.8; stroke-linecap: square"/>
     </g>
     <g id="line2d_24">
      <g>
       <use xlink:href="#m23ff6baaa9" x="57.6" y="153.112789" style="stroke: #000000; stroke-width: 0.8"/>
      </g>
     </g>
     <g id="text_13">
      <!-- −800 -->
      <g transform="translate(23.132812 156.912008) scale(0.1 -0.1)">
       <defs>
        <path id="DejaVuSans-38" d="M 2034 2216 
Q 1584 2216 1326 1975 
Q 1069 1734 1069 1313 
Q 1069 891 1326 650 
Q 1584 409 2034 409 
Q 2484 409 2743 651 
Q 3003 894 3003 1313 
Q 3003 1734 2745 1975 
Q 2488 2216 2034 2216 
z
M 1403 2484 
Q 997 2584 770 2862 
Q 544 3141 544 3541 
Q 544 4100 942 4425 
Q 1341 4750 2034 4750 
Q 2731 4750 3128 4425 
Q 3525 4100 3525 3541 
Q 3525 3141 3298 2862 
Q 3072 2584 2669 2484 
Q 3125 2378 3379 2068 
Q 3634 1759 3634 1313 
Q 3634 634 3220 271 
Q 2806 -91 2034 -91 
Q 1263 -91 848 271 
Q 434 634 434 1313 
Q 434 1759 690 2068 
Q 947 2378 1403 2484 
z
M 1172 3481 
Q 1172 3119 1398 2916 
Q 1625 2713 2034 2713 
Q 2441 2713 2670 2916 
Q 2900 3119 2900 3481 
Q 2900 3844 2670 4047 
Q 2441 4250 2034 4250 
Q 1625 4250 1398 4047 
Q 1172 3844 1172 3481 
z
" transform="scale(0.015625)"/>
       </defs>
       <use xlink:href="#DejaVuSans-2212"/>
       <use xlink:href="#DejaVuSans-38" x="83.789062"/>
       <use xlink:href="#DejaVuSans-30" x="147.412109"/>
       <use xlink:href="#DejaVuSans-30" x="211.035156"/>
      </g>
     </g>
    </g>
    <g id="ytick_6">
     <g id="line2d_25">
      <path d="M 57.6 115.514526 
L 414.72 115.514526 
" clip-path="url(#p467b8692c3)" style="fill: none; stroke: #b0b0b0; stroke-width: 0.8; stroke-linecap: square"/>
     </g>
     <g id="line2d_26">
      <g>
       <use xlink:href="#m23ff6baaa9" x="57.6" y="115.514526" style="stroke: #000000; stroke-width: 0.8"/>
      </g>
     </g>
     <g id="text_14">
      <!-- −600 -->
      <g transform="translate(23.132812 119.313745) scale(0.1 -0.1)">
       <use xlink:href="#DejaVuSans-2212"/>
       <use xlink:href="#DejaVuSans-36" x="83.789062"/>
       <use xlink:href="#DejaVuSans-30" x="147.412109"/>
       <use xlink:href="#DejaVuSans-30" x="211.035156"/>
      </g>
     </g>
    </g>
    <g id="ytick_7">
     <g id="line2d_27">
      <path d="M 57.6 77.916263 
L 414.72 77.916263 
" clip-path="url(#p467b8692c3)" style="fill: none; stroke: #b0b0b0; stroke-width: 0.8; stroke-linecap: square"/>
     </g>
     <g id="line2d_28">
      <g>
       <use xlink:href="#m23ff6baaa9" x="57.6" y="77.916263" style="stroke: #000000; stroke-width: 0.8"/>
      </g>
     </g>
     <g id="text_15">
      <!-- −400 -->
      <g transform="translate(23.132812 81.715482) scale(0.1 -0.1)">
       <use xlink:href="#DejaVuSans-2212"/>
       <use xlink:href="#DejaVuSans-34" x="83.789062"/>
       <use xlink:href="#DejaVuSans-30" x="147.412109"/>
       <use xlink:href="#DejaVuSans-30" x="211.035156"/>
      </g>
     </g>
    </g>
    <g id="text_16">
     <!-- Fitness -->
     <g transform="translate(10.690625 191.845187) rotate(-90) scale(0.1 -0.1)">
      <defs>
       <path id="DejaVuSans-46" d="M 628 4666 
L 3309 4666 
L 3309 4134 
L 1259 4134 
L 1259 2759 
L 3109 2759 
L 3109 2228 
L 1259 2228 
L 1259 0 
L 628 0 
L 628 4666 
z
" transform="scale(0.015625)"/>
      </defs>
      <use xlink:href="#DejaVuSans-46"/>
      <use xlink:href="#DejaVuSans-69" x="50.269531"/>
      <use xlink:href="#DejaVuSans-74" x="78.052734"/>
      <use xlink:href="#DejaVuSans-6e" x="117.261719"/>
      <use xlink:href="#DejaVuSans-65" x="180.640625"/>
      <use xlink:href="#DejaVuSans-73" x="242.164062"/>
      <use xlink:href="#DejaVuSans-73" x="294.263672"/>
     </g>
    </g>
   </g>
   <g id="line2d_29">
    <path d="M 73.832727 269.421984 
L 74.918528 267.037231 
L 76.00433 264.00895 
L 77.090131 264.944298 
L 78.175932 262.915879 
L 79.261733 264.66019 
L 80.347534 263.868864 
L 81.433335 262.640106 
L 82.519137 263.474623 
L 83.604938 264.029861 
L 84.690739 263.26541 
L 85.77654 264.921267 
L 87.948142 262.243696 
L 89.033943 262.555774 
L 91.205546 261.974275 
L 92.291347 261.330418 
L 93.377148 261.369684 
L 94.462949 261.739095 
L 95.54875 262.541837 
L 96.634552 261.414714 
L 97.720353 261.429769 
L 98.806154 262.126637 
L 100.977756 261.313093 
L 102.063557 260.938298 
L 103.149358 262.020024 
L 104.23516 260.322262 
L 105.320961 261.963911 
L 106.406762 262.228068 
L 107.492563 262.875318 
L 108.578364 260.384436 
L 109.664165 260.562969 
L 110.749967 260.955686 
L 111.835768 260.632427 
L 112.921569 262.546415 
L 114.00737 261.940593 
L 115.093171 262.01185 
L 116.178972 262.219398 
L 117.264773 264.741023 
L 118.350575 262.591196 
L 119.436376 261.197484 
L 120.522177 262.398607 
L 121.607978 264.032456 
L 122.693779 263.682444 
L 123.77958 261.874349 
L 124.865382 262.634152 
L 125.951183 262.555158 
L 127.036984 262.363771 
L 128.122785 264.84127 
L 129.208586 263.595477 
L 130.294387 265.299592 
L 131.380189 264.041721 
L 132.46599 264.817317 
L 133.551791 262.595479 
L 134.637592 265.020639 
L 135.723393 263.553571 
L 136.809194 264.335972 
L 137.894995 263.509515 
L 138.980797 264.408868 
L 140.066598 263.917481 
L 141.152399 262.844734 
L 142.2382 264.294096 
L 143.324001 265.299082 
L 144.409802 265.127065 
L 145.495604 265.738212 
L 146.581405 266.190825 
L 147.667206 265.564344 
L 148.753007 265.149949 
L 149.838808 265.152861 
L 150.924609 265.597567 
L 152.01041 263.444254 
L 155.267814 265.978744 
L 156.353615 266.349544 
L 157.439416 264.095175 
L 158.525217 264.002252 
L 159.611019 266.136902 
L 160.69682 265.710715 
L 161.782621 263.504715 
L 162.868422 264.78127 
L 163.954223 265.536596 
L 166.125825 264.630254 
L 167.211627 265.885813 
L 168.297428 264.642735 
L 169.383229 264.958217 
L 170.46903 263.827624 
L 171.554831 264.360467 
L 172.640632 264.32343 
L 173.726434 262.874844 
L 174.812235 264.838029 
L 175.898036 263.770509 
L 176.983837 264.779275 
L 179.155439 265.124628 
L 180.24124 263.85676 
L 181.327042 264.648311 
L 183.498644 264.334151 
L 184.584445 264.391671 
L 185.670246 265.357072 
L 186.756047 264.123559 
L 187.841849 263.242121 
L 188.92765 263.237375 
L 190.013451 263.619035 
L 191.099252 263.421889 
L 192.185053 262.911925 
L 193.270854 264.850434 
L 194.356656 264.269835 
L 195.442457 262.940572 
L 196.528258 264.144018 
L 197.614059 264.891634 
L 198.69986 264.398108 
L 199.785661 262.3453 
L 200.871462 263.414971 
L 201.957264 265.473204 
L 203.043065 263.939948 
L 204.128866 265.544997 
L 205.214667 264.946039 
L 206.300468 265.172427 
L 207.386269 264.028542 
L 208.472071 264.066976 
L 210.643673 264.996196 
L 211.729474 264.975558 
L 212.815275 265.953301 
L 213.901076 264.857675 
L 214.986877 265.352164 
L 217.15848 264.011672 
L 218.244281 263.785867 
L 219.330082 261.84113 
L 220.415883 262.454467 
L 221.501684 264.215467 
L 222.587486 263.626664 
L 223.673287 264.797003 
L 224.759088 265.218833 
L 225.844889 265.072959 
L 226.93069 263.992499 
L 228.016491 265.577769 
L 229.102292 264.284989 
L 230.188094 264.839101 
L 231.273895 264.695181 
L 232.359696 263.009129 
L 233.445497 265.044544 
L 234.531298 262.703446 
L 235.617099 264.345274 
L 236.702901 262.798309 
L 237.788702 264.519161 
L 238.874503 265.72072 
L 239.960304 264.171928 
L 241.046105 263.777422 
L 242.131906 265.281201 
L 243.217708 264.671805 
L 244.303509 265.645962 
L 245.38931 263.600808 
L 246.475111 263.065895 
L 247.560912 265.567709 
L 248.646713 264.363759 
L 249.732514 265.239903 
L 250.818316 265.052319 
L 251.904117 265.30502 
L 252.989918 264.250687 
L 254.075719 262.734567 
L 255.16152 264.898283 
L 256.247321 263.947019 
L 257.333123 265.1606 
L 258.418924 265.933869 
L 259.504725 264.530211 
L 260.590526 264.361897 
L 261.676327 265.259228 
L 262.762128 264.197706 
L 263.847929 264.70214 
L 264.933731 265.558822 
L 266.019532 265.176084 
L 268.191134 266.093004 
L 269.276935 265.049329 
L 270.362736 265.286339 
L 271.448538 266.204936 
L 272.534339 264.091266 
L 273.62014 264.99096 
L 274.705941 265.447225 
L 275.791742 264.967197 
L 276.877543 265.387805 
L 277.963344 264.396494 
L 279.049146 265.036636 
L 280.134947 264.622085 
L 281.220748 263.941851 
L 282.306549 263.48833 
L 284.478151 264.157996 
L 285.563953 265.593897 
L 286.649754 264.67325 
L 287.735555 263.903151 
L 288.821356 265.610665 
L 289.907157 264.246751 
L 290.992958 265.512884 
L 293.164561 264.64644 
L 294.250362 264.024869 
L 295.336163 264.738179 
L 296.421964 265.77418 
L 297.507765 264.528519 
L 298.593566 265.509597 
L 299.679368 265.332226 
L 300.765169 264.490293 
L 301.85097 264.870286 
L 302.936771 265.049177 
L 304.022572 263.625417 
L 305.108373 264.099737 
L 306.194175 263.190635 
L 307.279976 261.294914 
L 308.365777 264.333072 
L 309.451578 264.797632 
L 311.62318 263.207231 
L 312.708981 264.930568 
L 313.794783 264.504909 
L 315.966385 265.305744 
L 317.052186 265.107019 
L 318.137987 264.498135 
L 319.223788 266.531362 
L 320.30959 266.280641 
L 321.395391 264.287094 
L 322.481192 264.773282 
L 323.566993 263.704283 
L 324.652794 265.485872 
L 325.738595 264.93664 
L 326.824396 265.520175 
L 327.910198 266.488029 
L 328.995999 265.642955 
L 331.167601 265.106894 
L 332.253402 265.475199 
L 333.339203 265.607461 
L 334.425005 265.962307 
L 335.510806 266.906444 
L 337.682408 264.371936 
L 338.768209 265.587323 
L 339.85401 265.241505 
L 340.939811 266.842638 
L 342.025613 265.772431 
L 343.111414 265.697904 
L 344.197215 263.293234 
L 345.283016 263.397314 
L 346.368817 266.559481 
L 347.454618 265.718548 
L 348.54042 265.46639 
L 349.626221 265.031039 
L 350.712022 265.446612 
L 351.797823 263.494696 
L 352.883624 266.515803 
L 353.969425 265.561399 
L 355.055227 263.973688 
L 356.141028 265.973824 
L 357.226829 265.880205 
L 358.31263 265.112762 
L 359.398431 265.692998 
L 360.484232 265.676654 
L 361.570033 265.081645 
L 362.655835 266.552749 
L 363.741636 265.403492 
L 364.827437 265.296267 
L 365.913238 264.113328 
L 366.999039 264.015004 
L 368.08484 264.906557 
L 369.170642 266.251017 
L 370.256443 264.5927 
L 371.342244 265.147366 
L 372.428045 264.938348 
L 373.513846 265.078716 
L 374.599647 264.308676 
L 375.685448 265.283994 
L 376.77125 264.195267 
L 377.857051 265.779829 
L 378.942852 266.074032 
L 380.028653 264.865487 
L 381.114454 265.330444 
L 382.200255 264.040441 
L 383.286057 264.026348 
L 384.371858 264.692189 
L 385.457659 265.922184 
L 386.54346 265.179171 
L 387.629261 265.260592 
L 388.715062 265.979886 
L 389.800863 264.416317 
L 390.886665 265.909914 
L 391.972466 264.095178 
L 393.058267 265.023746 
L 394.144068 263.877688 
L 395.229869 264.788515 
L 396.31567 266.33689 
L 398.487273 263.414461 
L 398.487273 263.414461 
" clip-path="url(#p467b8692c3)" style="fill: none; stroke: #0000ff; stroke-width: 1.5; stroke-linecap: square"/>
   </g>
   <g id="line2d_30">
    <path d="M 73.832727 283.908186 
L 74.918528 285.428198 
L 76.00433 285.383645 
L 77.090131 286.7342 
L 78.175932 285.209602 
L 79.261733 285.822792 
L 80.347534 287.77332 
L 81.433335 287.139438 
L 82.519137 287.196385 
L 83.604938 286.95896 
L 84.690739 287.22136 
L 85.77654 285.855501 
L 86.862341 286.871913 
L 87.948142 286.80277 
L 89.033943 288.57591 
L 90.119745 287.778559 
L 91.205546 289.645055 
L 92.291347 288.391649 
L 93.377148 289.312923 
L 94.462949 288.604956 
L 95.54875 291.348841 
L 96.634552 289.928831 
L 97.720353 291.209074 
L 98.806154 293.649853 
L 99.891955 289.98284 
L 100.977756 290.644678 
L 102.063557 289.047488 
L 105.320961 292.161976 
L 106.406762 290.218972 
L 108.578364 291.797018 
L 109.664165 290.32924 
L 110.749967 292.641061 
L 111.835768 293.002171 
L 112.921569 291.385327 
L 115.093171 293.147201 
L 116.178972 291.445184 
L 117.264773 290.630679 
L 118.350575 290.635419 
L 119.436376 291.62789 
L 120.522177 293.97975 
L 121.607978 292.482547 
L 122.693779 292.237385 
L 123.77958 294.480018 
L 124.865382 294.723051 
L 127.036984 293.543347 
L 128.122785 293.825518 
L 129.208586 295.488 
L 130.294387 291.292694 
L 131.380189 290.944843 
L 132.46599 288.20547 
L 133.551791 290.135631 
L 134.637592 290.161972 
L 135.723393 291.799188 
L 136.809194 289.861471 
L 137.894995 294.475234 
L 138.980797 294.306008 
L 140.066598 290.996731 
L 141.152399 293.6348 
L 143.324001 291.558227 
L 144.409802 289.959126 
L 145.495604 291.500705 
L 146.581405 290.475276 
L 147.667206 287.366045 
L 148.753007 288.961685 
L 149.838808 290.975705 
L 150.924609 291.885583 
L 152.01041 293.623107 
L 153.096212 291.36319 
L 154.182013 288.7593 
L 155.267814 289.607711 
L 156.353615 287.361597 
L 158.525217 288.647321 
L 159.611019 287.795158 
L 160.69682 288.044408 
L 161.782621 287.924329 
L 162.868422 287.564123 
L 163.954223 286.75829 
L 165.040024 288.151151 
L 166.125825 286.639649 
L 167.211627 286.632707 
L 169.383229 286.982738 
L 170.46903 286.261729 
L 171.554831 286.611006 
L 172.640632 288.059437 
L 173.726434 288.386671 
L 174.812235 288.282614 
L 175.898036 287.246534 
L 176.983837 286.995603 
L 178.069638 287.591971 
L 179.155439 286.838028 
L 180.24124 287.257228 
L 181.327042 288.798618 
L 182.412843 287.044914 
L 183.498644 287.786927 
L 184.584445 286.417578 
L 185.670246 286.587432 
L 186.756047 285.206077 
L 187.841849 285.765666 
L 188.92765 286.527612 
L 190.013451 287.506882 
L 191.099252 286.448088 
L 192.185053 285.145582 
L 193.270854 286.227128 
L 194.356656 285.231092 
L 195.442457 287.703998 
L 196.528258 288.027449 
L 197.614059 286.540461 
L 198.69986 286.685944 
L 199.785661 284.653291 
L 200.871462 286.31989 
L 201.957264 286.715688 
L 203.043065 286.770598 
L 204.128866 285.541712 
L 205.214667 286.090493 
L 206.300468 287.959492 
L 207.386269 285.758503 
L 208.472071 286.888588 
L 209.557872 286.177441 
L 210.643673 287.347239 
L 211.729474 285.678867 
L 212.815275 286.029028 
L 213.901076 285.224164 
L 214.986877 287.579214 
L 216.072679 286.801741 
L 217.15848 288.436388 
L 218.244281 289.271402 
L 219.330082 288.670065 
L 220.415883 290.045878 
L 221.501684 291.071003 
L 222.587486 289.88365 
L 223.673287 290.465793 
L 224.759088 290.35012 
L 225.844889 289.089858 
L 226.93069 289.839868 
L 228.016491 289.279307 
L 229.102292 288.142262 
L 230.188094 289.377547 
L 231.273895 290.929036 
L 232.359696 288.053403 
L 233.445497 290.076689 
L 234.531298 288.974545 
L 235.617099 289.628529 
L 236.702901 289.812501 
L 237.788702 290.19642 
L 238.874503 291.335437 
L 239.960304 290.72303 
L 241.046105 292.874322 
L 242.131906 291.245454 
L 243.217708 289.95311 
L 244.303509 288.958742 
L 245.38931 288.726292 
L 246.475111 291.251375 
L 247.560912 289.765973 
L 248.646713 288.95398 
L 249.732514 289.818979 
L 250.818316 289.150655 
L 251.904117 291.368142 
L 252.989918 292.690711 
L 254.075719 289.228986 
L 255.16152 286.859138 
L 256.247321 288.418655 
L 257.333123 287.056057 
L 259.504725 288.843069 
L 260.590526 288.123217 
L 261.676327 287.914607 
L 262.762128 291.693148 
L 263.847929 289.538632 
L 264.933731 289.404194 
L 266.019532 287.727769 
L 267.105333 286.877584 
L 268.191134 286.78594 
L 269.276935 288.265835 
L 270.362736 287.41196 
L 271.448538 288.341459 
L 272.534339 288.145646 
L 273.62014 288.954026 
L 274.705941 287.924837 
L 276.877543 287.504195 
L 277.963344 288.123692 
L 280.134947 288.07215 
L 281.220748 288.2209 
L 282.306549 288.53711 
L 284.478151 287.724952 
L 285.563953 288.928487 
L 286.649754 288.060018 
L 287.735555 287.531219 
L 288.821356 287.511645 
L 289.907157 289.909901 
L 290.992958 287.607479 
L 292.07876 286.299626 
L 293.164561 288.389605 
L 294.250362 291.594107 
L 295.336163 289.687308 
L 296.421964 290.054622 
L 297.507765 289.822949 
L 298.593566 290.737802 
L 299.679368 291.257514 
L 300.765169 288.737221 
L 301.85097 286.616086 
L 302.936771 288.033396 
L 304.022572 288.426914 
L 305.108373 287.712075 
L 306.194175 288.269707 
L 307.279976 289.071235 
L 308.365777 288.273512 
L 309.451578 287.722984 
L 310.537379 288.20171 
L 311.62318 291.030309 
L 312.708981 288.044252 
L 313.794783 288.784807 
L 314.880584 286.826128 
L 315.966385 288.068051 
L 317.052186 288.11787 
L 318.137987 288.48533 
L 319.223788 287.912378 
L 320.30959 289.029625 
L 321.395391 290.586319 
L 322.481192 286.975655 
L 323.566993 289.748285 
L 324.652794 290.27847 
L 325.738595 288.509221 
L 326.824396 289.388837 
L 327.910198 289.166947 
L 330.0818 287.474436 
L 332.253402 290.029571 
L 333.339203 289.644941 
L 334.425005 287.908089 
L 335.510806 289.100412 
L 337.682408 287.734397 
L 338.768209 287.736162 
L 339.85401 289.620176 
L 340.939811 288.204225 
L 342.025613 288.337813 
L 343.111414 288.626682 
L 344.197215 290.970568 
L 345.283016 290.803844 
L 346.368817 288.333151 
L 347.454618 287.635768 
L 348.54042 287.929792 
L 349.626221 288.749557 
L 350.712022 288.343376 
L 351.797823 288.506818 
L 352.883624 287.651912 
L 355.055227 286.714443 
L 356.141028 286.048075 
L 357.226829 286.62815 
L 358.31263 286.079666 
L 359.398431 287.436328 
L 360.484232 286.36734 
L 361.570033 286.500766 
L 362.655835 287.2242 
L 363.741636 286.01611 
L 364.827437 286.774457 
L 365.913238 285.842096 
L 366.999039 284.344589 
L 368.08484 287.231903 
L 369.170642 286.535254 
L 370.256443 288.011449 
L 371.342244 287.443815 
L 372.428045 289.935138 
L 373.513846 285.62278 
L 374.599647 289.406318 
L 375.685448 289.774135 
L 376.77125 285.360836 
L 377.857051 286.25136 
L 378.942852 286.177057 
L 380.028653 287.614636 
L 381.114454 286.945601 
L 382.200255 284.941427 
L 383.286057 285.857932 
L 384.371858 287.154809 
L 385.457659 286.336828 
L 386.54346 287.185653 
L 387.629261 285.228831 
L 388.715062 286.823739 
L 389.800863 285.90498 
L 390.886665 286.824961 
L 391.972466 284.745614 
L 393.058267 284.408207 
L 394.144068 286.755951 
L 395.229869 287.536391 
L 396.31567 286.210548 
L 397.401472 284.700055 
L 398.487273 284.648131 
L 398.487273 284.648131 
" clip-path="url(#p467b8692c3)" style="fill: none; stroke-dasharray: 9.6,2.4,1.5,2.4; stroke-dashoffset: 0; stroke: #008000; stroke-width: 1.5"/>
   </g>
   <g id="line2d_31">
    <path d="M 73.832727 254.935783 
L 76.00433 242.634255 
L 77.090131 243.154396 
L 78.175932 240.622156 
L 79.261733 243.497587 
L 80.347534 239.964409 
L 81.433335 238.140775 
L 82.519137 239.752862 
L 83.604938 241.100762 
L 84.690739 239.309459 
L 85.77654 243.987033 
L 86.862341 240.38783 
L 87.948142 237.684621 
L 89.033943 236.535638 
L 90.119745 236.639448 
L 91.205546 234.303495 
L 92.291347 234.269187 
L 93.377148 233.426444 
L 94.462949 234.873234 
L 95.54875 233.734832 
L 96.634552 232.900597 
L 97.720353 231.650464 
L 98.806154 230.603421 
L 99.891955 233.388216 
L 100.977756 231.981508 
L 102.063557 232.829109 
L 103.149358 233.942004 
L 104.23516 229.454923 
L 106.406762 234.237164 
L 107.492563 234.734754 
L 108.578364 228.971853 
L 109.664165 230.796699 
L 110.749967 229.270311 
L 111.835768 228.262683 
L 112.921569 233.707503 
L 114.00737 231.557451 
L 115.093171 230.8765 
L 116.178972 232.993611 
L 117.264773 238.851366 
L 118.350575 234.546972 
L 119.436376 230.767077 
L 120.522177 230.817465 
L 121.607978 235.582366 
L 122.693779 235.127502 
L 123.77958 229.268679 
L 124.865382 230.545253 
L 125.951183 231.004014 
L 127.036984 231.184196 
L 128.122785 235.857023 
L 129.208586 231.702954 
L 130.294387 239.306489 
L 131.380189 237.138599 
L 132.46599 241.429163 
L 133.551791 235.055328 
L 134.637592 239.879306 
L 135.723393 235.307954 
L 136.809194 238.810473 
L 137.894995 232.543795 
L 138.980797 234.511728 
L 140.066598 236.83823 
L 141.152399 232.054668 
L 142.2382 235.986884 
L 143.324001 239.039938 
L 144.409802 240.295003 
L 145.495604 239.975719 
L 147.667206 243.762642 
L 148.753007 241.338213 
L 149.838808 239.330016 
L 150.924609 239.30955 
L 152.01041 233.265401 
L 154.182013 241.616685 
L 155.267814 242.349777 
L 156.353615 245.337492 
L 157.439416 240.17993 
L 158.525217 239.357182 
L 159.611019 244.478646 
L 160.69682 243.377023 
L 161.782621 239.085101 
L 162.868422 241.998416 
L 163.954223 244.314902 
L 165.040024 242.064817 
L 166.125825 242.620859 
L 167.211627 245.138918 
L 168.297428 242.439925 
L 169.383229 242.933696 
L 170.46903 241.39352 
L 171.554831 242.109928 
L 172.640632 240.587423 
L 173.726434 237.363018 
L 174.812235 241.393443 
L 175.898036 240.294485 
L 176.983837 242.562948 
L 178.069638 242.249182 
L 179.155439 243.411228 
L 180.24124 240.456292 
L 181.327042 240.498003 
L 182.412843 241.876229 
L 183.498644 240.881375 
L 184.584445 242.365765 
L 185.670246 244.126711 
L 186.756047 243.041041 
L 187.841849 240.718575 
L 188.92765 239.947137 
L 190.013451 239.731187 
L 191.099252 240.395691 
L 192.185053 240.678269 
L 193.270854 243.47374 
L 194.356656 243.308579 
L 195.442457 238.177146 
L 196.528258 240.260588 
L 197.614059 243.242808 
L 198.69986 242.110272 
L 199.785661 240.037309 
L 200.871462 240.510052 
L 201.957264 244.23072 
L 203.043065 241.109298 
L 204.128866 245.548282 
L 205.214667 243.801585 
L 206.300468 242.385361 
L 207.386269 242.298581 
L 208.472071 241.245365 
L 209.557872 242.986713 
L 210.643673 242.645153 
L 212.815275 245.877575 
L 214.986877 243.125113 
L 216.072679 242.468432 
L 217.15848 239.586955 
L 218.244281 238.300331 
L 219.330082 235.012196 
L 220.415883 234.863056 
L 221.501684 237.359931 
L 222.587486 237.369679 
L 223.673287 239.128213 
L 225.844889 241.05606 
L 226.93069 238.14513 
L 228.016491 241.876231 
L 229.102292 240.427716 
L 230.188094 240.300655 
L 231.273895 238.461326 
L 232.359696 237.964856 
L 233.445497 240.012399 
L 234.531298 236.432346 
L 235.617099 239.062019 
L 236.702901 235.784117 
L 237.788702 238.841902 
L 238.874503 240.106003 
L 239.960304 237.620826 
L 241.046105 234.680523 
L 242.131906 239.316948 
L 243.217708 239.3905 
L 244.303509 242.333182 
L 246.475111 234.880415 
L 247.560912 241.369444 
L 248.646713 239.773537 
L 249.732514 240.660827 
L 250.818316 240.953983 
L 251.904117 239.241897 
L 252.989918 235.810664 
L 254.075719 236.240147 
L 255.16152 242.937427 
L 256.247321 239.475384 
L 257.333123 243.265143 
L 258.418924 243.849602 
L 259.504725 240.217353 
L 260.590526 240.600578 
L 261.676327 242.603849 
L 262.762128 236.702263 
L 263.847929 239.865648 
L 264.933731 241.713449 
L 266.019532 242.6244 
L 267.105333 244.484393 
L 268.191134 245.400067 
L 269.276935 241.832823 
L 270.362736 243.160718 
L 271.448538 244.068413 
L 272.534339 240.036886 
L 273.62014 241.027894 
L 274.705941 242.969613 
L 275.791742 242.214379 
L 276.877543 243.271415 
L 277.963344 240.669296 
L 279.049146 241.999039 
L 280.134947 241.172019 
L 281.220748 239.662801 
L 282.306549 238.43955 
L 283.39235 239.638252 
L 284.478151 240.591041 
L 285.563953 242.259306 
L 287.735555 240.275083 
L 288.821356 243.709684 
L 289.907157 238.583601 
L 290.992958 243.418289 
L 292.07876 243.815122 
L 293.164561 240.903274 
L 294.250362 236.455631 
L 295.336163 239.789051 
L 296.421964 241.493739 
L 297.507765 239.234089 
L 298.593566 240.281393 
L 299.679368 239.406938 
L 300.765169 240.243364 
L 301.85097 243.124486 
L 302.936771 242.064959 
L 304.022572 238.823921 
L 305.108373 240.487399 
L 306.194175 238.111562 
L 307.279976 233.518593 
L 308.365777 240.392632 
L 309.451578 241.872281 
L 310.537379 239.739162 
L 311.62318 235.384152 
L 312.708981 241.816885 
L 313.794783 240.22501 
L 314.880584 242.939683 
L 317.052186 242.096169 
L 318.137987 240.510939 
L 319.223788 245.150346 
L 320.30959 243.531656 
L 321.395391 237.98787 
L 322.481192 242.57091 
L 323.566993 237.660281 
L 324.652794 240.693273 
L 325.738595 241.364059 
L 326.824396 241.651512 
L 327.910198 243.809111 
L 328.995999 242.919744 
L 330.0818 243.205901 
L 331.167601 241.463123 
L 332.253402 240.920828 
L 333.339203 241.569981 
L 334.425005 244.016526 
L 335.510806 244.712475 
L 337.682408 241.009475 
L 338.768209 243.438485 
L 339.85401 240.862835 
L 340.939811 245.481052 
L 342.025613 243.207049 
L 343.111414 242.769126 
L 344.197215 235.615901 
L 345.283016 235.990784 
L 346.368817 244.785811 
L 347.454618 243.801328 
L 348.54042 243.002988 
L 349.626221 241.312521 
L 350.712022 242.549848 
L 351.797823 238.482573 
L 352.883624 245.379693 
L 353.969425 243.959471 
L 355.055227 241.232933 
L 356.141028 245.899573 
L 357.226829 245.13226 
L 358.31263 244.145858 
L 359.398431 243.949669 
L 360.484232 244.985969 
L 361.570033 243.662525 
L 362.655835 245.881299 
L 364.827437 243.818077 
L 365.913238 242.38456 
L 366.999039 243.68542 
L 368.08484 242.581211 
L 369.170642 245.96678 
L 370.256443 241.173952 
L 371.342244 242.850918 
L 372.428045 239.941557 
L 373.513846 244.534651 
L 374.599647 239.211033 
L 375.685448 240.793853 
L 377.857051 245.308298 
L 378.942852 245.971007 
L 380.028653 242.116338 
L 381.114454 243.715286 
L 382.200255 243.139454 
L 383.286057 242.194765 
L 384.371858 242.229569 
L 385.457659 245.50754 
L 386.54346 243.172689 
L 387.629261 245.292353 
L 388.715062 245.136034 
L 389.800863 242.927653 
L 390.886665 244.994868 
L 391.972466 243.444742 
L 393.058267 245.639284 
L 394.144068 240.999425 
L 395.229869 242.040639 
L 396.31567 246.463232 
L 397.401472 244.917101 
L 398.487273 242.180792 
L 398.487273 242.180792 
" clip-path="url(#p467b8692c3)" style="fill: none; stroke-dasharray: 9.6,2.4,1.5,2.4; stroke-dashoffset: 0; stroke: #008000; stroke-width: 1.5"/>
   </g>
   <g id="line2d_32">
    <path d="M 73.832727 142.341264 
L 74.918528 141.478399 
L 76.00433 141.478399 
L 77.090131 138.963004 
L 85.77654 138.963004 
L 86.862341 62.110346 
L 110.749967 62.110346 
L 111.835768 55.729913 
L 119.436376 55.729913 
L 120.522177 54.553073 
L 150.924609 54.553073 
L 152.01041 53.568 
L 398.487273 53.568 
L 398.487273 53.568 
" clip-path="url(#p467b8692c3)" style="fill: none; stroke: #ff0000; stroke-width: 1.5; stroke-linecap: square"/>
   </g>
   <g id="patch_3">
    <path d="M 57.6 307.584 
L 57.6 41.472 
" style="fill: none; stroke: #000000; stroke-width: 0.8; stroke-linejoin: miter; stroke-linecap: square"/>
   </g>
   <g id="patch_4">
    <path d="M 414.72 307.584 
L 414.72 41.472 
" style="fill: none; stroke: #000000; stroke-width: 0.8; stroke-linejoin: miter; stroke-linecap: square"/>
   </g>
   <g id="patch_5">
    <path d="M 57.6 307.584 
L 414.72 307.584 
" style="fill: none; stroke: #000000; stroke-width: 0.8; stroke-linejoin: miter; stroke-linecap: square"/>
   </g>
   <g id="patch_6">
    <path d="M 57.6 41.472 
L 414.72 41.472 
" style="fill: none; stroke: #000000; stroke-width: 0.8; stroke-linejoin: miter; stroke-linecap: square"/>
   </g>
   <g id="text_17">
    <!-- Population's average and best fitness -->
    <g transform="translate(123.529687 35.472) scale(0.12 -0.12)">
     <defs>
      <path id="DejaVuSans-50" d="M 1259 4147 
L 1259 2394 
L 2053 2394 
Q 2494 2394 2734 2622 
Q 2975 2850 2975 3272 
Q 2975 3691 2734 3919 
Q 2494 4147 2053 4147 
L 1259 4147 
z
M 628 4666 
L 2053 4666 
Q 2838 4666 3239 4311 
Q 3641 3956 3641 3272 
Q 3641 2581 3239 2228 
Q 2838 1875 2053 1875 
L 1259 1875 
L 1259 0 
L 628 0 
L 628 4666 
z
" transform="scale(0.015625)"/>
      <path id="DejaVuSans-70" d="M 1159 525 
L 1159 -1331 
L 581 -1331 
L 581 3500 
L 1159 3500 
L 1159 2969 
Q 1341 3281 1617 3432 
Q 1894 3584 2278 3584 
Q 2916 3584 3314 3078 
Q 3713 2572 3713 1747 
Q 3713 922 3314 415 
Q 2916 -91 2278 -91 
Q 1894 -91 1617 61 
Q 1341 213 1159 525 
z
M 3116 1747 
Q 3116 2381 2855 2742 
Q 2594 3103 2138 3103 
Q 1681 3103 1420 2742 
Q 1159 2381 1159 1747 
Q 1159 1113 1420 752 
Q 1681 391 2138 391 
Q 2594 391 2855 752 
Q 3116 1113 3116 1747 
z
" transform="scale(0.015625)"/>
      <path id="DejaVuSans-75" d="M 544 1381 
L 544 3500 
L 1119 3500 
L 1119 1403 
Q 1119 906 1312 657 
Q 1506 409 1894 409 
Q 2359 409 2629 706 
Q 2900 1003 2900 1516 
L 2900 3500 
L 3475 3500 
L 3475 0 
L 2900 0 
L 2900 538 
Q 2691 219 2414 64 
Q 2138 -91 1772 -91 
Q 1169 -91 856 284 
Q 544 659 544 1381 
z
M 1991 3584 
L 1991 3584 
z
" transform="scale(0.015625)"/>
      <path id="DejaVuSans-6c" d="M 603 4863 
L 1178 4863 
L 1178 0 
L 603 0 
L 603 4863 
z
" transform="scale(0.015625)"/>
      <path id="DejaVuSans-27" d="M 1147 4666 
L 1147 2931 
L 616 2931 
L 616 4666 
L 1147 4666 
z
" transform="scale(0.015625)"/>
      <path id="DejaVuSans-20" transform="scale(0.015625)"/>
      <path id="DejaVuSans-76" d="M 191 3500 
L 800 3500 
L 1894 563 
L 2988 3500 
L 3597 3500 
L 2284 0 
L 1503 0 
L 191 3500 
z
" transform="scale(0.015625)"/>
      <path id="DejaVuSans-67" d="M 2906 1791 
Q 2906 2416 2648 2759 
Q 2391 3103 1925 3103 
Q 1463 3103 1205 2759 
Q 947 2416 947 1791 
Q 947 1169 1205 825 
Q 1463 481 1925 481 
Q 2391 481 2648 825 
Q 2906 1169 2906 1791 
z
M 3481 434 
Q 3481 -459 3084 -895 
Q 2688 -1331 1869 -1331 
Q 1566 -1331 1297 -1286 
Q 1028 -1241 775 -1147 
L 775 -588 
Q 1028 -725 1275 -790 
Q 1522 -856 1778 -856 
Q 2344 -856 2625 -561 
Q 2906 -266 2906 331 
L 2906 616 
Q 2728 306 2450 153 
Q 2172 0 1784 0 
Q 1141 0 747 490 
Q 353 981 353 1791 
Q 353 2603 747 3093 
Q 1141 3584 1784 3584 
Q 2172 3584 2450 3431 
Q 2728 3278 2906 2969 
L 2906 3500 
L 3481 3500 
L 3481 434 
z
" transform="scale(0.015625)"/>
      <path id="DejaVuSans-64" d="M 2906 2969 
L 2906 4863 
L 3481 4863 
L 3481 0 
L 2906 0 
L 2906 525 
Q 2725 213 2448 61 
Q 2172 -91 1784 -91 
Q 1150 -91 751 415 
Q 353 922 353 1747 
Q 353 2572 751 3078 
Q 1150 3584 1784 3584 
Q 2172 3584 2448 3432 
Q 2725 3281 2906 2969 
z
M 947 1747 
Q 947 1113 1208 752 
Q 1469 391 1925 391 
Q 2381 391 2643 752 
Q 2906 1113 2906 1747 
Q 2906 2381 2643 2742 
Q 2381 3103 1925 3103 
Q 1469 3103 1208 2742 
Q 947 2381 947 1747 
z
" transform="scale(0.015625)"/>
      <path id="DejaVuSans-62" d="M 3116 1747 
Q 3116 2381 2855 2742 
Q 2594 3103 2138 3103 
Q 1681 3103 1420 2742 
Q 1159 2381 1159 1747 
Q 1159 1113 1420 752 
Q 1681 391 2138 391 
Q 2594 391 2855 752 
Q 3116 1113 3116 1747 
z
M 1159 2969 
Q 1341 3281 1617 3432 
Q 1894 3584 2278 3584 
Q 2916 3584 3314 3078 
Q 3713 2572 3713 1747 
Q 3713 922 3314 415 
Q 2916 -91 2278 -91 
Q 1894 -91 1617 61 
Q 1341 213 1159 525 
L 1159 0 
L 581 0 
L 581 4863 
L 1159 4863 
L 1159 2969 
z
" transform="scale(0.015625)"/>
      <path id="DejaVuSans-66" d="M 2375 4863 
L 2375 4384 
L 1825 4384 
Q 1516 4384 1395 4259 
Q 1275 4134 1275 3809 
L 1275 3500 
L 2222 3500 
L 2222 3053 
L 1275 3053 
L 1275 0 
L 697 0 
L 697 3053 
L 147 3053 
L 147 3500 
L 697 3500 
L 697 3744 
Q 697 4328 969 4595 
Q 1241 4863 1831 4863 
L 2375 4863 
z
" transform="scale(0.015625)"/>
     </defs>
     <use xlink:href="#DejaVuSans-50"/>
     <use xlink:href="#DejaVuSans-6f" x="56.677734"/>
     <use xlink:href="#DejaVuSans-70" x="117.859375"/>
     <use xlink:href="#DejaVuSans-75" x="181.335938"/>
     <use xlink:href="#DejaVuSans-6c" x="244.714844"/>
     <use xlink:href="#DejaVuSans-61" x="272.498047"/>
     <use xlink:href="#DejaVuSans-74" x="333.777344"/>
     <use xlink:href="#DejaVuSans-69" x="372.986328"/>
     <use xlink:href="#DejaVuSans-6f" x="400.769531"/>
     <use xlink:href="#DejaVuSans-6e" x="461.951172"/>
     <use xlink:href="#DejaVuSans-27" x="525.330078"/>
     <use xlink:href="#DejaVuSans-73" x="552.820312"/>
     <use xlink:href="#DejaVuSans-20" x="604.919922"/>
     <use xlink:href="#DejaVuSans-61" x="636.707031"/>
     <use xlink:href="#DejaVuSans-76" x="697.986328"/>
     <use xlink:href="#DejaVuSans-65" x="757.166016"/>
     <use xlink:href="#DejaVuSans-72" x="818.689453"/>
     <use xlink:href="#DejaVuSans-61" x="859.802734"/>
     <use xlink:href="#DejaVuSans-67" x="921.082031"/>
     <use xlink:href="#DejaVuSans-65" x="984.558594"/>
     <use xlink:href="#DejaVuSans-20" x="1046.082031"/>
     <use xlink:href="#DejaVuSans-61" x="1077.869141"/>
     <use xlink:href="#DejaVuSans-6e" x="1139.148438"/>
     <use xlink:href="#DejaVuSans-64" x="1202.527344"/>
     <use xlink:href="#DejaVuSans-20" x="1266.003906"/>
     <use xlink:href="#DejaVuSans-62" x="1297.791016"/>
     <use xlink:href="#DejaVuSans-65" x="1361.267578"/>
     <use xlink:href="#DejaVuSans-73" x="1422.791016"/>
     <use xlink:href="#DejaVuSans-74" x="1474.890625"/>
     <use xlink:href="#DejaVuSans-20" x="1514.099609"/>
     <use xlink:href="#DejaVuSans-66" x="1545.886719"/>
     <use xlink:href="#DejaVuSans-69" x="1581.091797"/>
     <use xlink:href="#DejaVuSans-74" x="1608.875"/>
     <use xlink:href="#DejaVuSans-6e" x="1648.083984"/>
     <use xlink:href="#DejaVuSans-65" x="1711.462891"/>
     <use xlink:href="#DejaVuSans-73" x="1772.986328"/>
     <use xlink:href="#DejaVuSans-73" x="1825.085938"/>
    </g>
   </g>
   <g id="legend_1">
    <g id="patch_7">
     <path d="M 334.779375 205.38425 
L 407.72 205.38425 
Q 409.72 205.38425 409.72 203.38425 
L 409.72 145.67175 
Q 409.72 143.67175 407.72 143.67175 
L 334.779375 143.67175 
Q 332.779375 143.67175 332.779375 145.67175 
L 332.779375 203.38425 
Q 332.779375 205.38425 334.779375 205.38425 
z
" style="fill: #ffffff; opacity: 0.8; stroke: #cccccc; stroke-linejoin: miter"/>
    </g>
    <g id="line2d_33">
     <path d="M 336.779375 151.770188 
L 346.779375 151.770188 
L 356.779375 151.770188 
" style="fill: none; stroke: #0000ff; stroke-width: 1.5; stroke-linecap: square"/>
    </g>
    <g id="text_18">
     <!-- average -->
     <g transform="translate(364.779375 155.270188) scale(0.1 -0.1)">
      <use xlink:href="#DejaVuSans-61"/>
      <use xlink:href="#DejaVuSans-76" x="61.279297"/>
      <use xlink:href="#DejaVuSans-65" x="120.458984"/>
      <use xlink:href="#DejaVuSans-72" x="181.982422"/>
      <use xlink:href="#DejaVuSans-61" x="223.095703"/>
      <use xlink:href="#DejaVuSans-67" x="284.375"/>
      <use xlink:href="#DejaVuSans-65" x="347.851562"/>
     </g>
    </g>
    <g id="line2d_34">
     <path d="M 336.779375 166.448313 
L 346.779375 166.448313 
L 356.779375 166.448313 
" style="fill: none; stroke-dasharray: 9.6,2.4,1.5,2.4; stroke-dashoffset: 0; stroke: #008000; stroke-width: 1.5"/>
    </g>
    <g id="text_19">
     <!-- -1 sd -->
     <g transform="translate(364.779375 169.948313) scale(0.1 -0.1)">
      <defs>
       <path id="DejaVuSans-2d" d="M 313 2009 
L 1997 2009 
L 1997 1497 
L 313 1497 
L 313 2009 
z
" transform="scale(0.015625)"/>
      </defs>
      <use xlink:href="#DejaVuSans-2d"/>
      <use xlink:href="#DejaVuSans-31" x="36.083984"/>
      <use xlink:href="#DejaVuSans-20" x="99.707031"/>
      <use xlink:href="#DejaVuSans-73" x="131.494141"/>
      <use xlink:href="#DejaVuSans-64" x="183.59375"/>
     </g>
    </g>
    <g id="line2d_35">
     <path d="M 336.779375 181.126438 
L 346.779375 181.126438 
L 356.779375 181.126438 
" style="fill: none; stroke-dasharray: 9.6,2.4,1.5,2.4; stroke-dashoffset: 0; stroke: #008000; stroke-width: 1.5"/>
    </g>
    <g id="text_20">
     <!-- +1 sd -->
     <g transform="translate(364.779375 184.626438) scale(0.1 -0.1)">
      <defs>
       <path id="DejaVuSans-2b" d="M 2944 4013 
L 2944 2272 
L 4684 2272 
L 4684 1741 
L 2944 1741 
L 2944 0 
L 2419 0 
L 2419 1741 
L 678 1741 
L 678 2272 
L 2419 2272 
L 2419 4013 
L 2944 4013 
z
" transform="scale(0.015625)"/>
      </defs>
      <use xlink:href="#DejaVuSans-2b"/>
      <use xlink:href="#DejaVuSans-31" x="83.789062"/>
      <use xlink:href="#DejaVuSans-20" x="147.412109"/>
      <use xlink:href="#DejaVuSans-73" x="179.199219"/>
      <use xlink:href="#DejaVuSans-64" x="231.298828"/>
     </g>
    </g>
    <g id="line2d_36">
     <path d="M 336.779375 195.804563 
L 346.779375 195.804563 
L 356.779375 195.804563 
" style="fill: none; stroke: #ff0000; stroke-width: 1.5; stroke-linecap: square"/>
    </g>
    <g id="text_21">
     <!-- best -->
     <g transform="translate(364.779375 199.304563) scale(0.1 -0.1)">
      <use xlink:href="#DejaVuSans-62"/>
      <use xlink:href="#DejaVuSans-65" x="63.476562"/>
      <use xlink:href="#DejaVuSans-73" x="125"/>
      <use xlink:href="#DejaVuSans-74" x="177.099609"/>
     </g>
    </g>
   </g>
  </g>
 </g>
 <defs>
  <clipPath id="p467b8692c3">
   <rect x="57.6" y="41.472" width="357.12" height="266.112"/>
  </clipPath>
 </defs>
</svg>
