<?xml version="1.0" encoding="utf-8" standalone="no"?>
<!DOCTYPE svg PUBLIC "-//W3C//DTD SVG 1.1//EN"
  "http://www.w3.org/Graphics/SVG/1.1/DTD/svg11.dtd">
<svg xmlns:xlink="http://www.w3.org/1999/xlink" width="460.8pt" height="345.6pt" viewBox="0 0 460.8 345.6" xmlns="http://www.w3.org/2000/svg" version="1.1">
 <metadata>
  <rdf:RDF xmlns:dc="http://purl.org/dc/elements/1.1/" xmlns:cc="http://creativecommons.org/ns#" xmlns:rdf="http://www.w3.org/1999/02/22-rdf-syntax-ns#">
   <cc:Work>
    <dc:type rdf:resource="http://purl.org/dc/dcmitype/StillImage"/>
    <dc:date>2024-07-21T17:52:43.475544</dc:date>
    <dc:format>image/svg+xml</dc:format>
    <dc:creator>
     <cc:Agent>
      <dc:title>Matplotlib v3.9.1, https://matplotlib.org/</dc:title>
     </cc:Agent>
    </dc:creator>
   </cc:Work>
  </rdf:RDF>
 </metadata>
 <defs>
  <style type="text/css">*{stroke-linejoin: round; stroke-linecap: butt}</style>
 </defs>
 <g id="figure_1">
  <g id="patch_1">
   <path d="M 0 345.6 
L 460.8 345.6 
L 460.8 0 
L 0 0 
z
" style="fill: #ffffff"/>
  </g>
  <g id="axes_1">
   <g id="patch_2">
    <path d="M 57.6 307.584 
L 414.72 307.584 
L 414.72 41.472 
L 57.6 41.472 
z
" style="fill: #ffffff"/>
   </g>
   <g id="matplotlib.axis_1">
    <g id="xtick_1">
     <g id="line2d_1">
      <path d="M 73.832727 307.584 
L 73.832727 41.472 
" clip-path="url(#p692db081c1)" style="fill: none; stroke: #b0b0b0; stroke-width: 0.8; stroke-linecap: square"/>
     </g>
     <g id="line2d_2">
      <defs>
       <path id="m31a319a705" d="M 0 0 
L 0 3.5 
" style="stroke: #000000; stroke-width: 0.8"/>
      </defs>
      <g>
       <use xlink:href="#m31a319a705" x="73.832727" y="307.584" style="stroke: #000000; stroke-width: 0.8"/>
      </g>
     </g>
     <g id="text_1">
      <!-- 0 -->
      <g transform="translate(70.651477 322.182437) scale(0.1 -0.1)">
       <defs>
        <path id="DejaVuSans-30" d="M 2034 4250 
Q 1547 4250 1301 3770 
Q 1056 3291 1056 2328 
Q 1056 1369 1301 889 
Q 1547 409 2034 409 
Q 2525 409 2770 889 
Q 3016 1369 3016 2328 
Q 3016 3291 2770 3770 
Q 2525 4250 2034 4250 
z
M 2034 4750 
Q 2819 4750 3233 4129 
Q 3647 3509 3647 2328 
Q 3647 1150 3233 529 
Q 2819 -91 2034 -91 
Q 1250 -91 836 529 
Q 422 1150 422 2328 
Q 422 3509 836 4129 
Q 1250 4750 2034 4750 
z
" transform="scale(0.015625)"/>
       </defs>
       <use xlink:href="#DejaVuSans-30"/>
      </g>
     </g>
    </g>
    <g id="xtick_2">
     <g id="line2d_3">
      <path d="M 128.122785 307.584 
L 128.122785 41.472 
" clip-path="url(#p692db081c1)" style="fill: none; stroke: #b0b0b0; stroke-width: 0.8; stroke-linecap: square"/>
     </g>
     <g id="line2d_4">
      <g>
       <use xlink:href="#m31a319a705" x="128.122785" y="307.584" style="stroke: #000000; stroke-width: 0.8"/>
      </g>
     </g>
     <g id="text_2">
      <!-- 50 -->
      <g transform="translate(121.760285 322.182437) scale(0.1 -0.1)">
       <defs>
        <path id="DejaVuSans-35" d="M 691 4666 
L 3169 4666 
L 3169 4134 
L 1269 4134 
L 1269 2991 
Q 1406 3038 1543 3061 
Q 1681 3084 1819 3084 
Q 2600 3084 3056 2656 
Q 3513 2228 3513 1497 
Q 3513 744 3044 326 
Q 2575 -91 1722 -91 
Q 1428 -91 1123 -41 
Q 819 9 494 109 
L 494 744 
Q 775 591 1075 516 
Q 1375 441 1709 441 
Q 2250 441 2565 725 
Q 2881 1009 2881 1497 
Q 2881 1984 2565 2268 
Q 2250 2553 1709 2553 
Q 1456 2553 1204 2497 
Q 953 2441 691 2322 
L 691 4666 
z
" transform="scale(0.015625)"/>
       </defs>
       <use xlink:href="#DejaVuSans-35"/>
       <use xlink:href="#DejaVuSans-30" x="63.623047"/>
      </g>
     </g>
    </g>
    <g id="xtick_3">
     <g id="line2d_5">
      <path d="M 182.412843 307.584 
L 182.412843 41.472 
" clip-path="url(#p692db081c1)" style="fill: none; stroke: #b0b0b0; stroke-width: 0.8; stroke-linecap: square"/>
     </g>
     <g id="line2d_6">
      <g>
       <use xlink:href="#m31a319a705" x="182.412843" y="307.584" style="stroke: #000000; stroke-width: 0.8"/>
      </g>
     </g>
     <g id="text_3">
      <!-- 100 -->
      <g transform="translate(172.869093 322.182437) scale(0.1 -0.1)">
       <defs>
        <path id="DejaVuSans-31" d="M 794 531 
L 1825 531 
L 1825 4091 
L 703 3866 
L 703 4441 
L 1819 4666 
L 2450 4666 
L 2450 531 
L 3481 531 
L 3481 0 
L 794 0 
L 794 531 
z
" transform="scale(0.015625)"/>
       </defs>
       <use xlink:href="#DejaVuSans-31"/>
       <use xlink:href="#DejaVuSans-30" x="63.623047"/>
       <use xlink:href="#DejaVuSans-30" x="127.246094"/>
      </g>
     </g>
    </g>
    <g id="xtick_4">
     <g id="line2d_7">
      <path d="M 236.702901 307.584 
L 236.702901 41.472 
" clip-path="url(#p692db081c1)" style="fill: none; stroke: #b0b0b0; stroke-width: 0.8; stroke-linecap: square"/>
     </g>
     <g id="line2d_8">
      <g>
       <use xlink:href="#m31a319a705" x="236.702901" y="307.584" style="stroke: #000000; stroke-width: 0.8"/>
      </g>
     </g>
     <g id="text_4">
      <!-- 150 -->
      <g transform="translate(227.159151 322.182437) scale(0.1 -0.1)">
       <use xlink:href="#DejaVuSans-31"/>
       <use xlink:href="#DejaVuSans-35" x="63.623047"/>
       <use xlink:href="#DejaVuSans-30" x="127.246094"/>
      </g>
     </g>
    </g>
    <g id="xtick_5">
     <g id="line2d_9">
      <path d="M 290.992958 307.584 
L 290.992958 41.472 
" clip-path="url(#p692db081c1)" style="fill: none; stroke: #b0b0b0; stroke-width: 0.8; stroke-linecap: square"/>
     </g>
     <g id="line2d_10">
      <g>
       <use xlink:href="#m31a319a705" x="290.992958" y="307.584" style="stroke: #000000; stroke-width: 0.8"/>
      </g>
     </g>
     <g id="text_5">
      <!-- 200 -->
      <g transform="translate(281.449208 322.182437) scale(0.1 -0.1)">
       <defs>
        <path id="DejaVuSans-32" d="M 1228 531 
L 3431 531 
L 3431 0 
L 469 0 
L 469 531 
Q 828 903 1448 1529 
Q 2069 2156 2228 2338 
Q 2531 2678 2651 2914 
Q 2772 3150 2772 3378 
Q 2772 3750 2511 3984 
Q 2250 4219 1831 4219 
Q 1534 4219 1204 4116 
Q 875 4013 500 3803 
L 500 4441 
Q 881 4594 1212 4672 
Q 1544 4750 1819 4750 
Q 2544 4750 2975 4387 
Q 3406 4025 3406 3419 
Q 3406 3131 3298 2873 
Q 3191 2616 2906 2266 
Q 2828 2175 2409 1742 
Q 1991 1309 1228 531 
z
" transform="scale(0.015625)"/>
       </defs>
       <use xlink:href="#DejaVuSans-32"/>
       <use xlink:href="#DejaVuSans-30" x="63.623047"/>
       <use xlink:href="#DejaVuSans-30" x="127.246094"/>
      </g>
     </g>
    </g>
    <g id="xtick_6">
     <g id="line2d_11">
      <path d="M 345.283016 307.584 
L 345.283016 41.472 
" clip-path="url(#p692db081c1)" style="fill: none; stroke: #b0b0b0; stroke-width: 0.8; stroke-linecap: square"/>
     </g>
     <g id="line2d_12">
      <g>
       <use xlink:href="#m31a319a705" x="345.283016" y="307.584" style="stroke: #000000; stroke-width: 0.8"/>
      </g>
     </g>
     <g id="text_6">
      <!-- 250 -->
      <g transform="translate(335.739266 322.182437) scale(0.1 -0.1)">
       <use xlink:href="#DejaVuSans-32"/>
       <use xlink:href="#DejaVuSans-35" x="63.623047"/>
       <use xlink:href="#DejaVuSans-30" x="127.246094"/>
      </g>
     </g>
    </g>
    <g id="xtick_7">
     <g id="line2d_13">
      <path d="M 399.573074 307.584 
L 399.573074 41.472 
" clip-path="url(#p692db081c1)" style="fill: none; stroke: #b0b0b0; stroke-width: 0.8; stroke-linecap: square"/>
     </g>
     <g id="line2d_14">
      <g>
       <use xlink:href="#m31a319a705" x="399.573074" y="307.584" style="stroke: #000000; stroke-width: 0.8"/>
      </g>
     </g>
     <g id="text_7">
      <!-- 300 -->
      <g transform="translate(390.029324 322.182437) scale(0.1 -0.1)">
       <defs>
        <path id="DejaVuSans-33" d="M 2597 2516 
Q 3050 2419 3304 2112 
Q 3559 1806 3559 1356 
Q 3559 666 3084 287 
Q 2609 -91 1734 -91 
Q 1441 -91 1130 -33 
Q 819 25 488 141 
L 488 750 
Q 750 597 1062 519 
Q 1375 441 1716 441 
Q 2309 441 2620 675 
Q 2931 909 2931 1356 
Q 2931 1769 2642 2001 
Q 2353 2234 1838 2234 
L 1294 2234 
L 1294 2753 
L 1863 2753 
Q 2328 2753 2575 2939 
Q 2822 3125 2822 3475 
Q 2822 3834 2567 4026 
Q 2313 4219 1838 4219 
Q 1578 4219 1281 4162 
Q 984 4106 628 3988 
L 628 4550 
Q 988 4650 1302 4700 
Q 1616 4750 1894 4750 
Q 2613 4750 3031 4423 
Q 3450 4097 3450 3541 
Q 3450 3153 3228 2886 
Q 3006 2619 2597 2516 
z
" transform="scale(0.015625)"/>
       </defs>
       <use xlink:href="#DejaVuSans-33"/>
       <use xlink:href="#DejaVuSans-30" x="63.623047"/>
       <use xlink:href="#DejaVuSans-30" x="127.246094"/>
      </g>
     </g>
    </g>
    <g id="text_8">
     <!-- Generations -->
     <g transform="translate(205.662344 335.860562) scale(0.1 -0.1)">
      <defs>
       <path id="DejaVuSans-47" d="M 3809 666 
L 3809 1919 
L 2778 1919 
L 2778 2438 
L 4434 2438 
L 4434 434 
Q 4069 175 3628 42 
Q 3188 -91 2688 -91 
Q 1594 -91 976 548 
Q 359 1188 359 2328 
Q 359 3472 976 4111 
Q 1594 4750 2688 4750 
Q 3144 4750 3555 4637 
Q 3966 4525 4313 4306 
L 4313 3634 
Q 3963 3931 3569 4081 
Q 3175 4231 2741 4231 
Q 1884 4231 1454 3753 
Q 1025 3275 1025 2328 
Q 1025 1384 1454 906 
Q 1884 428 2741 428 
Q 3075 428 3337 486 
Q 3600 544 3809 666 
z
" transform="scale(0.015625)"/>
       <path id="DejaVuSans-65" d="M 3597 1894 
L 3597 1613 
L 953 1613 
Q 991 1019 1311 708 
Q 1631 397 2203 397 
Q 2534 397 2845 478 
Q 3156 559 3463 722 
L 3463 178 
Q 3153 47 2828 -22 
Q 2503 -91 2169 -91 
Q 1331 -91 842 396 
Q 353 884 353 1716 
Q 353 2575 817 3079 
Q 1281 3584 2069 3584 
Q 2775 3584 3186 3129 
Q 3597 2675 3597 1894 
z
M 3022 2063 
Q 3016 2534 2758 2815 
Q 2500 3097 2075 3097 
Q 1594 3097 1305 2825 
Q 1016 2553 972 2059 
L 3022 2063 
z
" transform="scale(0.015625)"/>
       <path id="DejaVuSans-6e" d="M 3513 2113 
L 3513 0 
L 2938 0 
L 2938 2094 
Q 2938 2591 2744 2837 
Q 2550 3084 2163 3084 
Q 1697 3084 1428 2787 
Q 1159 2491 1159 1978 
L 1159 0 
L 581 0 
L 581 3500 
L 1159 3500 
L 1159 2956 
Q 1366 3272 1645 3428 
Q 1925 3584 2291 3584 
Q 2894 3584 3203 3211 
Q 3513 2838 3513 2113 
z
" transform="scale(0.015625)"/>
       <path id="DejaVuSans-72" d="M 2631 2963 
Q 2534 3019 2420 3045 
Q 2306 3072 2169 3072 
Q 1681 3072 1420 2755 
Q 1159 2438 1159 1844 
L 1159 0 
L 581 0 
L 581 3500 
L 1159 3500 
L 1159 2956 
Q 1341 3275 1631 3429 
Q 1922 3584 2338 3584 
Q 2397 3584 2469 3576 
Q 2541 3569 2628 3553 
L 2631 2963 
z
" transform="scale(0.015625)"/>
       <path id="DejaVuSans-61" d="M 2194 1759 
Q 1497 1759 1228 1600 
Q 959 1441 959 1056 
Q 959 750 1161 570 
Q 1363 391 1709 391 
Q 2188 391 2477 730 
Q 2766 1069 2766 1631 
L 2766 1759 
L 2194 1759 
z
M 3341 1997 
L 3341 0 
L 2766 0 
L 2766 531 
Q 2569 213 2275 61 
Q 1981 -91 1556 -91 
Q 1019 -91 701 211 
Q 384 513 384 1019 
Q 384 1609 779 1909 
Q 1175 2209 1959 2209 
L 2766 2209 
L 2766 2266 
Q 2766 2663 2505 2880 
Q 2244 3097 1772 3097 
Q 1472 3097 1187 3025 
Q 903 2953 641 2809 
L 641 3341 
Q 956 3463 1253 3523 
Q 1550 3584 1831 3584 
Q 2591 3584 2966 3190 
Q 3341 2797 3341 1997 
z
" transform="scale(0.015625)"/>
       <path id="DejaVuSans-74" d="M 1172 4494 
L 1172 3500 
L 2356 3500 
L 2356 3053 
L 1172 3053 
L 1172 1153 
Q 1172 725 1289 603 
Q 1406 481 1766 481 
L 2356 481 
L 2356 0 
L 1766 0 
Q 1100 0 847 248 
Q 594 497 594 1153 
L 594 3053 
L 172 3053 
L 172 3500 
L 594 3500 
L 594 4494 
L 1172 4494 
z
" transform="scale(0.015625)"/>
       <path id="DejaVuSans-69" d="M 603 3500 
L 1178 3500 
L 1178 0 
L 603 0 
L 603 3500 
z
M 603 4863 
L 1178 4863 
L 1178 4134 
L 603 4134 
L 603 4863 
z
" transform="scale(0.015625)"/>
       <path id="DejaVuSans-6f" d="M 1959 3097 
Q 1497 3097 1228 2736 
Q 959 2375 959 1747 
Q 959 1119 1226 758 
Q 1494 397 1959 397 
Q 2419 397 2687 759 
Q 2956 1122 2956 1747 
Q 2956 2369 2687 2733 
Q 2419 3097 1959 3097 
z
M 1959 3584 
Q 2709 3584 3137 3096 
Q 3566 2609 3566 1747 
Q 3566 888 3137 398 
Q 2709 -91 1959 -91 
Q 1206 -91 779 398 
Q 353 888 353 1747 
Q 353 2609 779 3096 
Q 1206 3584 1959 3584 
z
" transform="scale(0.015625)"/>
       <path id="DejaVuSans-73" d="M 2834 3397 
L 2834 2853 
Q 2591 2978 2328 3040 
Q 2066 3103 1784 3103 
Q 1356 3103 1142 2972 
Q 928 2841 928 2578 
Q 928 2378 1081 2264 
Q 1234 2150 1697 2047 
L 1894 2003 
Q 2506 1872 2764 1633 
Q 3022 1394 3022 966 
Q 3022 478 2636 193 
Q 2250 -91 1575 -91 
Q 1294 -91 989 -36 
Q 684 19 347 128 
L 347 722 
Q 666 556 975 473 
Q 1284 391 1588 391 
Q 1994 391 2212 530 
Q 2431 669 2431 922 
Q 2431 1156 2273 1281 
Q 2116 1406 1581 1522 
L 1381 1569 
Q 847 1681 609 1914 
Q 372 2147 372 2553 
Q 372 3047 722 3315 
Q 1072 3584 1716 3584 
Q 2034 3584 2315 3537 
Q 2597 3491 2834 3397 
z
" transform="scale(0.015625)"/>
      </defs>
      <use xlink:href="#DejaVuSans-47"/>
      <use xlink:href="#DejaVuSans-65" x="77.490234"/>
      <use xlink:href="#DejaVuSans-6e" x="139.013672"/>
      <use xlink:href="#DejaVuSans-65" x="202.392578"/>
      <use xlink:href="#DejaVuSans-72" x="263.916016"/>
      <use xlink:href="#DejaVuSans-61" x="305.029297"/>
      <use xlink:href="#DejaVuSans-74" x="366.308594"/>
      <use xlink:href="#DejaVuSans-69" x="405.517578"/>
      <use xlink:href="#DejaVuSans-6f" x="433.300781"/>
      <use xlink:href="#DejaVuSans-6e" x="494.482422"/>
      <use xlink:href="#DejaVuSans-73" x="557.861328"/>
     </g>
    </g>
   </g>
   <g id="matplotlib.axis_2">
    <g id="ytick_1">
     <g id="line2d_15">
      <path d="M 57.6 300.973059 
L 414.72 300.973059 
" clip-path="url(#p692db081c1)" style="fill: none; stroke: #b0b0b0; stroke-width: 0.8; stroke-linecap: square"/>
     </g>
     <g id="line2d_16">
      <defs>
       <path id="m8130d3ad41" d="M 0 0 
L -3.5 0 
" style="stroke: #000000; stroke-width: 0.8"/>
      </defs>
      <g>
       <use xlink:href="#m8130d3ad41" x="57.6" y="300.973059" style="stroke: #000000; stroke-width: 0.8"/>
      </g>
     </g>
     <g id="text_9">
      <!-- −1600 -->
      <g transform="translate(16.770313 304.772278) scale(0.1 -0.1)">
       <defs>
        <path id="DejaVuSans-2212" d="M 678 2272 
L 4684 2272 
L 4684 1741 
L 678 1741 
L 678 2272 
z
" transform="scale(0.015625)"/>
        <path id="DejaVuSans-36" d="M 2113 2584 
Q 1688 2584 1439 2293 
Q 1191 2003 1191 1497 
Q 1191 994 1439 701 
Q 1688 409 2113 409 
Q 2538 409 2786 701 
Q 3034 994 3034 1497 
Q 3034 2003 2786 2293 
Q 2538 2584 2113 2584 
z
M 3366 4563 
L 3366 3988 
Q 3128 4100 2886 4159 
Q 2644 4219 2406 4219 
Q 1781 4219 1451 3797 
Q 1122 3375 1075 2522 
Q 1259 2794 1537 2939 
Q 1816 3084 2150 3084 
Q 2853 3084 3261 2657 
Q 3669 2231 3669 1497 
Q 3669 778 3244 343 
Q 2819 -91 2113 -91 
Q 1303 -91 875 529 
Q 447 1150 447 2328 
Q 447 3434 972 4092 
Q 1497 4750 2381 4750 
Q 2619 4750 2861 4703 
Q 3103 4656 3366 4563 
z
" transform="scale(0.015625)"/>
       </defs>
       <use xlink:href="#DejaVuSans-2212"/>
       <use xlink:href="#DejaVuSans-31" x="83.789062"/>
       <use xlink:href="#DejaVuSans-36" x="147.412109"/>
       <use xlink:href="#DejaVuSans-30" x="211.035156"/>
       <use xlink:href="#DejaVuSans-30" x="274.658203"/>
      </g>
     </g>
    </g>
    <g id="ytick_2">
     <g id="line2d_17">
      <path d="M 57.6 264.758735 
L 414.72 264.758735 
" clip-path="url(#p692db081c1)" style="fill: none; stroke: #b0b0b0; stroke-width: 0.8; stroke-linecap: square"/>
     </g>
     <g id="line2d_18">
      <g>
       <use xlink:href="#m8130d3ad41" x="57.6" y="264.758735" style="stroke: #000000; stroke-width: 0.8"/>
      </g>
     </g>
     <g id="text_10">
      <!-- −1400 -->
      <g transform="translate(16.770313 268.557954) scale(0.1 -0.1)">
       <defs>
        <path id="DejaVuSans-34" d="M 2419 4116 
L 825 1625 
L 2419 1625 
L 2419 4116 
z
M 2253 4666 
L 3047 4666 
L 3047 1625 
L 3713 1625 
L 3713 1100 
L 3047 1100 
L 3047 0 
L 2419 0 
L 2419 1100 
L 313 1100 
L 313 1709 
L 2253 4666 
z
" transform="scale(0.015625)"/>
       </defs>
       <use xlink:href="#DejaVuSans-2212"/>
       <use xlink:href="#DejaVuSans-31" x="83.789062"/>
       <use xlink:href="#DejaVuSans-34" x="147.412109"/>
       <use xlink:href="#DejaVuSans-30" x="211.035156"/>
       <use xlink:href="#DejaVuSans-30" x="274.658203"/>
      </g>
     </g>
    </g>
    <g id="ytick_3">
     <g id="line2d_19">
      <path d="M 57.6 228.544411 
L 414.72 228.544411 
" clip-path="url(#p692db081c1)" style="fill: none; stroke: #b0b0b0; stroke-width: 0.8; stroke-linecap: square"/>
     </g>
     <g id="line2d_20">
      <g>
       <use xlink:href="#m8130d3ad41" x="57.6" y="228.544411" style="stroke: #000000; stroke-width: 0.8"/>
      </g>
     </g>
     <g id="text_11">
      <!-- −1200 -->
      <g transform="translate(16.770313 232.34363) scale(0.1 -0.1)">
       <use xlink:href="#DejaVuSans-2212"/>
       <use xlink:href="#DejaVuSans-31" x="83.789062"/>
       <use xlink:href="#DejaVuSans-32" x="147.412109"/>
       <use xlink:href="#DejaVuSans-30" x="211.035156"/>
       <use xlink:href="#DejaVuSans-30" x="274.658203"/>
      </g>
     </g>
    </g>
    <g id="ytick_4">
     <g id="line2d_21">
      <path d="M 57.6 192.330088 
L 414.72 192.330088 
" clip-path="url(#p692db081c1)" style="fill: none; stroke: #b0b0b0; stroke-width: 0.8; stroke-linecap: square"/>
     </g>
     <g id="line2d_22">
      <g>
       <use xlink:href="#m8130d3ad41" x="57.6" y="192.330088" style="stroke: #000000; stroke-width: 0.8"/>
      </g>
     </g>
     <g id="text_12">
      <!-- −1000 -->
      <g transform="translate(16.770313 196.129306) scale(0.1 -0.1)">
       <use xlink:href="#DejaVuSans-2212"/>
       <use xlink:href="#DejaVuSans-31" x="83.789062"/>
       <use xlink:href="#DejaVuSans-30" x="147.412109"/>
       <use xlink:href="#DejaVuSans-30" x="211.035156"/>
       <use xlink:href="#DejaVuSans-30" x="274.658203"/>
      </g>
     </g>
    </g>
    <g id="ytick_5">
     <g id="line2d_23">
      <path d="M 57.6 156.115764 
L 414.72 156.115764 
" clip-path="url(#p692db081c1)" style="fill: none; stroke: #b0b0b0; stroke-width: 0.8; stroke-linecap: square"/>
     </g>
     <g id="line2d_24">
      <g>
       <use xlink:href="#m8130d3ad41" x="57.6" y="156.115764" style="stroke: #000000; stroke-width: 0.8"/>
      </g>
     </g>
     <g id="text_13">
      <!-- −800 -->
      <g transform="translate(23.132812 159.914983) scale(0.1 -0.1)">
       <defs>
        <path id="DejaVuSans-38" d="M 2034 2216 
Q 1584 2216 1326 1975 
Q 1069 1734 1069 1313 
Q 1069 891 1326 650 
Q 1584 409 2034 409 
Q 2484 409 2743 651 
Q 3003 894 3003 1313 
Q 3003 1734 2745 1975 
Q 2488 2216 2034 2216 
z
M 1403 2484 
Q 997 2584 770 2862 
Q 544 3141 544 3541 
Q 544 4100 942 4425 
Q 1341 4750 2034 4750 
Q 2731 4750 3128 4425 
Q 3525 4100 3525 3541 
Q 3525 3141 3298 2862 
Q 3072 2584 2669 2484 
Q 3125 2378 3379 2068 
Q 3634 1759 3634 1313 
Q 3634 634 3220 271 
Q 2806 -91 2034 -91 
Q 1263 -91 848 271 
Q 434 634 434 1313 
Q 434 1759 690 2068 
Q 947 2378 1403 2484 
z
M 1172 3481 
Q 1172 3119 1398 2916 
Q 1625 2713 2034 2713 
Q 2441 2713 2670 2916 
Q 2900 3119 2900 3481 
Q 2900 3844 2670 4047 
Q 2441 4250 2034 4250 
Q 1625 4250 1398 4047 
Q 1172 3844 1172 3481 
z
" transform="scale(0.015625)"/>
       </defs>
       <use xlink:href="#DejaVuSans-2212"/>
       <use xlink:href="#DejaVuSans-38" x="83.789062"/>
       <use xlink:href="#DejaVuSans-30" x="147.412109"/>
       <use xlink:href="#DejaVuSans-30" x="211.035156"/>
      </g>
     </g>
    </g>
    <g id="ytick_6">
     <g id="line2d_25">
      <path d="M 57.6 119.90144 
L 414.72 119.90144 
" clip-path="url(#p692db081c1)" style="fill: none; stroke: #b0b0b0; stroke-width: 0.8; stroke-linecap: square"/>
     </g>
     <g id="line2d_26">
      <g>
       <use xlink:href="#m8130d3ad41" x="57.6" y="119.90144" style="stroke: #000000; stroke-width: 0.8"/>
      </g>
     </g>
     <g id="text_14">
      <!-- −600 -->
      <g transform="translate(23.132812 123.700659) scale(0.1 -0.1)">
       <use xlink:href="#DejaVuSans-2212"/>
       <use xlink:href="#DejaVuSans-36" x="83.789062"/>
       <use xlink:href="#DejaVuSans-30" x="147.412109"/>
       <use xlink:href="#DejaVuSans-30" x="211.035156"/>
      </g>
     </g>
    </g>
    <g id="ytick_7">
     <g id="line2d_27">
      <path d="M 57.6 83.687116 
L 414.72 83.687116 
" clip-path="url(#p692db081c1)" style="fill: none; stroke: #b0b0b0; stroke-width: 0.8; stroke-linecap: square"/>
     </g>
     <g id="line2d_28">
      <g>
       <use xlink:href="#m8130d3ad41" x="57.6" y="83.687116" style="stroke: #000000; stroke-width: 0.8"/>
      </g>
     </g>
     <g id="text_15">
      <!-- −400 -->
      <g transform="translate(23.132812 87.486335) scale(0.1 -0.1)">
       <use xlink:href="#DejaVuSans-2212"/>
       <use xlink:href="#DejaVuSans-34" x="83.789062"/>
       <use xlink:href="#DejaVuSans-30" x="147.412109"/>
       <use xlink:href="#DejaVuSans-30" x="211.035156"/>
      </g>
     </g>
    </g>
    <g id="ytick_8">
     <g id="line2d_29">
      <path d="M 57.6 47.472793 
L 414.72 47.472793 
" clip-path="url(#p692db081c1)" style="fill: none; stroke: #b0b0b0; stroke-width: 0.8; stroke-linecap: square"/>
     </g>
     <g id="line2d_30">
      <g>
       <use xlink:href="#m8130d3ad41" x="57.6" y="47.472793" style="stroke: #000000; stroke-width: 0.8"/>
      </g>
     </g>
     <g id="text_16">
      <!-- −200 -->
      <g transform="translate(23.132812 51.272011) scale(0.1 -0.1)">
       <use xlink:href="#DejaVuSans-2212"/>
       <use xlink:href="#DejaVuSans-32" x="83.789062"/>
       <use xlink:href="#DejaVuSans-30" x="147.412109"/>
       <use xlink:href="#DejaVuSans-30" x="211.035156"/>
      </g>
     </g>
    </g>
    <g id="text_17">
     <!-- Fitness -->
     <g transform="translate(10.690625 191.845187) rotate(-90) scale(0.1 -0.1)">
      <defs>
       <path id="DejaVuSans-46" d="M 628 4666 
L 3309 4666 
L 3309 4134 
L 1259 4134 
L 1259 2759 
L 3109 2759 
L 3109 2228 
L 1259 2228 
L 1259 0 
L 628 0 
L 628 4666 
z
" transform="scale(0.015625)"/>
      </defs>
      <use xlink:href="#DejaVuSans-46"/>
      <use xlink:href="#DejaVuSans-69" x="50.269531"/>
      <use xlink:href="#DejaVuSans-74" x="78.052734"/>
      <use xlink:href="#DejaVuSans-6e" x="117.261719"/>
      <use xlink:href="#DejaVuSans-65" x="180.640625"/>
      <use xlink:href="#DejaVuSans-73" x="242.164062"/>
      <use xlink:href="#DejaVuSans-73" x="294.263672"/>
     </g>
    </g>
   </g>
   <g id="line2d_31">
    <path d="M 73.832727 267.203382 
L 74.918528 265.844835 
L 76.00433 264.834082 
L 77.090131 264.361482 
L 78.175932 262.58435 
L 79.261733 261.261402 
L 80.347534 262.062598 
L 81.433335 260.389771 
L 82.519137 261.618831 
L 83.604938 260.73036 
L 84.690739 261.007709 
L 85.77654 260.784424 
L 86.862341 259.626984 
L 87.948142 260.915879 
L 89.033943 260.965383 
L 90.119745 259.698687 
L 91.205546 259.143476 
L 92.291347 258.770281 
L 93.377148 261.056913 
L 94.462949 260.241096 
L 95.54875 259.937736 
L 96.634552 260.750337 
L 97.720353 260.857537 
L 98.806154 259.950667 
L 99.891955 260.43788 
L 100.977756 260.01587 
L 102.063557 260.163718 
L 103.149358 259.325771 
L 104.23516 259.628441 
L 105.320961 259.594272 
L 106.406762 260.29714 
L 107.492563 260.14378 
L 108.578364 258.825796 
L 110.749967 260.257563 
L 111.835768 260.745799 
L 112.921569 261.577668 
L 114.00737 260.705864 
L 115.093171 257.693134 
L 116.178972 259.982902 
L 117.264773 258.802888 
L 118.350575 258.718039 
L 119.436376 259.019946 
L 120.522177 259.600785 
L 121.607978 259.643242 
L 122.693779 260.145565 
L 123.77958 258.937037 
L 124.865382 260.328276 
L 125.951183 260.232766 
L 127.036984 258.697095 
L 128.122785 256.705951 
L 129.208586 260.474799 
L 130.294387 259.777279 
L 131.380189 260.529167 
L 132.46599 259.181438 
L 133.551791 258.770733 
L 134.637592 258.510847 
L 135.723393 260.512251 
L 136.809194 260.77645 
L 138.980797 262.241708 
L 140.066598 261.401839 
L 141.152399 260.324469 
L 142.2382 261.542819 
L 143.324001 261.534558 
L 144.409802 260.902935 
L 145.495604 261.292668 
L 146.581405 260.100812 
L 147.667206 260.34996 
L 148.753007 259.823682 
L 149.838808 261.228567 
L 150.924609 260.113111 
L 152.01041 262.234976 
L 153.096212 259.83885 
L 154.182013 260.844901 
L 155.267814 257.78051 
L 156.353615 260.117618 
L 157.439416 258.636354 
L 158.525217 259.750691 
L 159.611019 257.889317 
L 160.69682 255.667556 
L 161.782621 257.721993 
L 162.868422 258.479119 
L 163.954223 258.838262 
L 166.125825 257.978256 
L 169.383229 259.052819 
L 170.46903 257.720918 
L 171.554831 257.482118 
L 172.640632 259.441513 
L 173.726434 260.514227 
L 174.812235 261.03155 
L 175.898036 259.849888 
L 176.983837 259.008704 
L 178.069638 260.248951 
L 179.155439 261.284513 
L 180.24124 258.69638 
L 181.327042 258.25424 
L 182.412843 260.631786 
L 183.498644 260.335223 
L 184.584445 262.156969 
L 185.670246 260.428608 
L 186.756047 258.367984 
L 187.841849 260.119911 
L 188.92765 257.967587 
L 190.013451 259.622526 
L 191.099252 259.622668 
L 192.185053 260.607613 
L 195.442457 260.439242 
L 196.528258 261.208047 
L 197.614059 261.494932 
L 198.69986 260.758819 
L 199.785661 261.436157 
L 200.871462 260.517631 
L 201.957264 261.565487 
L 203.043065 261.866857 
L 204.128866 262.56678 
L 206.300468 261.887669 
L 208.472071 262.888411 
L 209.557872 262.053618 
L 210.643673 260.801908 
L 211.729474 262.448326 
L 212.815275 259.633753 
L 213.901076 262.609251 
L 216.072679 262.905392 
L 217.15848 264.049782 
L 218.244281 262.332268 
L 219.330082 261.86902 
L 220.415883 262.175767 
L 221.501684 261.267397 
L 222.587486 263.187441 
L 223.673287 262.249773 
L 224.759088 261.580827 
L 225.844889 262.444556 
L 226.93069 263.012325 
L 228.016491 264.013026 
L 229.102292 263.584791 
L 230.188094 263.923342 
L 231.273895 263.594558 
L 232.359696 264.491162 
L 233.445497 263.969029 
L 234.531298 265.48874 
L 235.617099 265.946728 
L 236.702901 265.920384 
L 238.874503 263.772938 
L 239.960304 263.051738 
L 241.046105 264.083917 
L 242.131906 263.220283 
L 244.303509 264.570489 
L 245.38931 264.320212 
L 246.475111 263.530077 
L 247.560912 265.581987 
L 248.646713 263.831044 
L 249.732514 265.099 
L 250.818316 264.593165 
L 251.904117 264.711677 
L 252.989918 263.955701 
L 254.075719 263.565782 
L 255.16152 263.549916 
L 256.247321 264.207804 
L 257.333123 264.485863 
L 258.418924 264.639006 
L 259.504725 262.659444 
L 260.590526 261.778929 
L 261.676327 265.502899 
L 262.762128 264.361889 
L 263.847929 264.918973 
L 264.933731 265.240414 
L 266.019532 264.433935 
L 267.105333 263.324405 
L 268.191134 262.943339 
L 269.276935 261.382385 
L 270.362736 262.987028 
L 271.448538 263.990634 
L 272.534339 263.323933 
L 273.62014 263.878743 
L 274.705941 263.986317 
L 275.791742 263.699733 
L 276.877543 264.689135 
L 279.049146 262.892913 
L 280.134947 262.608985 
L 281.220748 263.123224 
L 282.306549 263.413053 
L 283.39235 263.458304 
L 284.478151 263.99211 
L 285.563953 262.9685 
L 286.649754 262.222053 
L 287.735555 262.988069 
L 288.821356 263.038099 
L 289.907157 262.51626 
L 290.992958 263.298683 
L 293.164561 263.404787 
L 294.250362 263.253965 
L 295.336163 264.578213 
L 296.421964 263.494365 
L 297.507765 262.715646 
L 298.593566 263.559872 
L 299.679368 263.506537 
L 300.765169 263.760616 
L 301.85097 264.626341 
L 302.936771 265.079745 
L 304.022572 264.225636 
L 305.108373 265.073431 
L 306.194175 265.102007 
L 307.279976 264.346997 
L 308.365777 264.303861 
L 309.451578 264.05607 
L 310.537379 263.235469 
L 311.62318 264.680778 
L 312.708981 263.330399 
L 314.880584 263.257753 
L 315.966385 264.272513 
L 317.052186 264.040362 
L 318.137987 264.293941 
L 319.223788 263.408232 
L 320.30959 261.781028 
L 321.395391 263.897507 
L 322.481192 262.990164 
L 323.566993 263.773225 
L 324.652794 263.49445 
L 325.738595 264.117915 
L 326.824396 263.068912 
L 327.910198 264.123655 
L 328.995999 262.872993 
L 330.0818 261.227606 
L 331.167601 260.819519 
L 332.253402 262.235784 
L 333.339203 261.51062 
L 334.425005 259.653714 
L 336.596607 261.312276 
L 337.682408 263.009418 
L 338.768209 262.30558 
L 339.85401 260.801771 
L 340.939811 262.359566 
L 342.025613 263.295779 
L 343.111414 261.513827 
L 344.197215 261.708308 
L 345.283016 262.536227 
L 346.368817 261.838544 
L 347.454618 261.878015 
L 348.54042 261.627207 
L 349.626221 262.379012 
L 350.712022 261.160896 
L 351.797823 259.632333 
L 352.883624 259.729601 
L 353.969425 262.150482 
L 355.055227 263.07587 
L 356.141028 260.908683 
L 357.226829 263.705636 
L 358.31263 263.07789 
L 359.398431 260.793273 
L 360.484232 261.126349 
L 361.570033 261.708034 
L 362.655835 262.784107 
L 363.741636 262.062456 
L 364.827437 263.350415 
L 365.913238 264.336158 
L 366.999039 263.800993 
L 370.256443 263.810642 
L 371.342244 263.060946 
L 372.428045 263.793204 
L 373.513846 261.69619 
L 375.685448 262.933226 
L 376.77125 262.908284 
L 377.857051 262.541006 
L 378.942852 261.331709 
L 380.028653 263.480905 
L 381.114454 262.884633 
L 383.286057 262.860563 
L 384.371858 262.099137 
L 387.629261 264.71288 
L 388.715062 262.813787 
L 389.800863 264.268494 
L 390.886665 262.692312 
L 391.972466 263.630834 
L 393.058267 263.076827 
L 394.144068 263.950672 
L 395.229869 264.229527 
L 396.31567 262.132291 
L 397.401472 262.975432 
L 398.487273 262.889722 
L 398.487273 262.889722 
" clip-path="url(#p692db081c1)" style="fill: none; stroke: #0000ff; stroke-width: 1.5; stroke-linecap: square"/>
   </g>
   <g id="line2d_32">
    <path d="M 73.832727 281.941401 
L 74.918528 282.310168 
L 76.00433 281.51048 
L 77.090131 285.773531 
L 78.175932 285.944924 
L 79.261733 287.603382 
L 80.347534 287.883337 
L 81.433335 289.771368 
L 82.519137 288.150454 
L 83.604938 287.625862 
L 84.690739 287.955633 
L 85.77654 289.789707 
L 86.862341 288.755445 
L 87.948142 290.449639 
L 89.033943 289.031992 
L 90.119745 288.145929 
L 91.205546 289.979844 
L 92.291347 288.27664 
L 93.377148 290.49386 
L 94.462949 289.591705 
L 95.54875 288.841677 
L 96.634552 289.442839 
L 99.891955 287.69884 
L 100.977756 288.357867 
L 102.063557 290.646574 
L 103.149358 290.247875 
L 104.23516 289.125875 
L 105.320961 288.708216 
L 106.406762 289.763601 
L 107.492563 287.239004 
L 108.578364 287.850299 
L 109.664165 289.08137 
L 110.749967 287.858032 
L 112.921569 287.792204 
L 114.00737 289.031836 
L 115.093171 289.197178 
L 116.178972 290.317637 
L 117.264773 290.19036 
L 118.350575 289.441992 
L 119.436376 290.823034 
L 120.522177 287.771372 
L 121.607978 288.68072 
L 122.693779 289.272776 
L 123.77958 289.60377 
L 124.865382 289.449063 
L 125.951183 290.10877 
L 127.036984 289.60097 
L 128.122785 291.840244 
L 129.208586 292.275898 
L 130.294387 290.883949 
L 131.380189 288.958108 
L 132.46599 290.193383 
L 133.551791 289.761013 
L 134.637592 289.959629 
L 135.723393 291.52577 
L 136.809194 294.323901 
L 137.894995 289.617482 
L 138.980797 287.566904 
L 140.066598 289.115207 
L 141.152399 289.762987 
L 142.2382 289.479501 
L 143.324001 289.327764 
L 144.409802 288.692191 
L 145.495604 291.424584 
L 146.581405 292.505504 
L 147.667206 291.688069 
L 148.753007 291.011091 
L 149.838808 289.530329 
L 150.924609 289.596027 
L 152.01041 291.038932 
L 153.096212 291.916247 
L 155.267814 288.821112 
L 156.353615 290.777078 
L 157.439416 291.134463 
L 158.525217 290.090828 
L 159.611019 290.36409 
L 160.69682 291.477694 
L 161.782621 291.766011 
L 162.868422 292.739855 
L 163.954223 294.361044 
L 165.040024 295.488 
L 166.125825 293.621711 
L 167.211627 292.428087 
L 168.297428 291.996722 
L 169.383229 292.609524 
L 170.46903 293.511406 
L 171.554831 292.71059 
L 172.640632 293.541041 
L 173.726434 292.468578 
L 174.812235 292.053297 
L 175.898036 293.352571 
L 176.983837 290.553225 
L 178.069638 292.944087 
L 179.155439 291.456965 
L 180.24124 292.321208 
L 181.327042 291.160028 
L 182.412843 291.630058 
L 183.498644 290.628299 
L 184.584445 290.603067 
L 185.670246 291.261787 
L 186.756047 292.92274 
L 187.841849 293.276784 
L 188.92765 290.934184 
L 191.099252 291.700815 
L 192.185053 290.845384 
L 193.270854 291.842992 
L 194.356656 291.980205 
L 196.528258 290.252676 
L 197.614059 291.253004 
L 198.69986 290.642519 
L 199.785661 290.965643 
L 200.871462 291.721632 
L 201.957264 290.903485 
L 203.043065 289.214433 
L 204.128866 290.300134 
L 205.214667 289.924731 
L 206.300468 291.517206 
L 207.386269 290.509956 
L 208.472071 291.198042 
L 210.643673 291.979931 
L 211.729474 289.4372 
L 212.815275 289.991802 
L 213.901076 290.697017 
L 214.986877 290.357154 
L 216.072679 289.88246 
L 217.15848 290.077692 
L 218.244281 290.874598 
L 219.330082 292.226729 
L 220.415883 291.656648 
L 221.501684 292.469811 
L 222.587486 289.644383 
L 223.673287 292.26306 
L 225.844889 290.840029 
L 226.93069 288.303755 
L 228.016491 289.457158 
L 229.102292 289.807931 
L 230.188094 289.063865 
L 231.273895 290.023947 
L 232.359696 289.04343 
L 233.445497 287.342789 
L 234.531298 287.469119 
L 236.702901 287.09332 
L 237.788702 285.734394 
L 238.874503 287.442608 
L 239.960304 288.215572 
L 241.046105 287.431688 
L 242.131906 288.180941 
L 243.217708 287.460276 
L 246.475111 286.827627 
L 247.560912 287.082726 
L 248.646713 287.173499 
L 249.732514 287.460968 
L 250.818316 287.043547 
L 251.904117 289.830354 
L 252.989918 289.517258 
L 254.075719 285.811376 
L 255.16152 285.164944 
L 256.247321 287.279372 
L 257.333123 286.449356 
L 258.418924 287.20676 
L 259.504725 289.806229 
L 260.590526 288.676201 
L 261.676327 287.934611 
L 263.847929 287.726414 
L 264.933731 287.21723 
L 266.019532 286.879841 
L 267.105333 291.535153 
L 268.191134 288.941549 
L 269.276935 291.047774 
L 271.448538 286.992884 
L 272.534339 287.105632 
L 273.62014 287.870672 
L 274.705941 286.965974 
L 275.791742 286.515669 
L 276.877543 287.395602 
L 277.963344 288.637866 
L 279.049146 287.141083 
L 280.134947 289.540849 
L 281.220748 289.004051 
L 283.39235 287.632786 
L 284.478151 285.308112 
L 285.563953 285.943806 
L 286.649754 288.114496 
L 287.735555 289.172284 
L 288.821356 287.409722 
L 289.907157 290.180037 
L 290.992958 288.479265 
L 292.07876 287.351088 
L 293.164561 290.309803 
L 294.250362 289.528722 
L 295.336163 288.145712 
L 296.421964 287.808711 
L 297.507765 286.586833 
L 298.593566 287.678761 
L 299.679368 289.245856 
L 300.765169 289.087958 
L 301.85097 285.680333 
L 302.936771 286.525563 
L 304.022572 286.373054 
L 305.108373 285.685263 
L 307.279976 287.00631 
L 308.365777 284.825871 
L 309.451578 288.500193 
L 310.537379 289.027839 
L 311.62318 288.606018 
L 312.708981 289.366643 
L 313.794783 289.707789 
L 314.880584 287.74505 
L 315.966385 288.051035 
L 317.052186 289.492332 
L 318.137987 288.65167 
L 319.223788 289.516234 
L 320.30959 291.118374 
L 321.395391 287.907476 
L 322.481192 286.656144 
L 323.566993 287.512135 
L 324.652794 284.819514 
L 325.738595 285.996023 
L 326.824396 286.047705 
L 327.910198 285.145559 
L 328.995999 287.598071 
L 330.0818 286.701786 
L 331.167601 288.86314 
L 332.253402 289.523005 
L 333.339203 291.384261 
L 334.425005 294.243069 
L 335.510806 292.83215 
L 336.596607 290.216993 
L 337.682408 291.456534 
L 338.768209 289.513082 
L 339.85401 288.498706 
L 340.939811 291.266385 
L 342.025613 289.205381 
L 343.111414 290.049385 
L 344.197215 289.501351 
L 345.283016 289.123948 
L 346.368817 290.974651 
L 347.454618 288.697678 
L 348.54042 288.353278 
L 349.626221 289.242722 
L 350.712022 289.710391 
L 351.797823 288.498435 
L 352.883624 290.035573 
L 353.969425 288.363438 
L 355.055227 288.949762 
L 356.141028 289.896813 
L 357.226829 288.407083 
L 358.31263 288.940026 
L 359.398431 288.472251 
L 360.484232 291.74623 
L 361.570033 290.192055 
L 362.655835 288.93716 
L 363.741636 289.083212 
L 364.827437 286.69364 
L 366.999039 284.77506 
L 368.08484 286.886059 
L 369.170642 287.00423 
L 370.256443 286.060283 
L 371.342244 286.625154 
L 372.428045 287.577974 
L 373.513846 287.31269 
L 375.685448 287.530179 
L 376.77125 288.656803 
L 377.857051 288.324537 
L 378.942852 291.176588 
L 380.028653 287.751912 
L 381.114454 286.960518 
L 382.200255 287.689677 
L 384.371858 287.576446 
L 385.457659 287.187735 
L 386.54346 287.683325 
L 387.629261 285.114805 
L 388.715062 284.974119 
L 389.800863 285.612773 
L 390.886665 285.224346 
L 391.972466 284.513045 
L 393.058267 284.293967 
L 394.144068 286.018425 
L 395.229869 283.794851 
L 396.31567 283.202135 
L 397.401472 284.551871 
L 398.487273 287.546825 
L 398.487273 287.546825 
" clip-path="url(#p692db081c1)" style="fill: none; stroke-dasharray: 9.6,2.4,1.5,2.4; stroke-dashoffset: 0; stroke: #008000; stroke-width: 1.5"/>
   </g>
   <g id="line2d_33">
    <path d="M 73.832727 252.465362 
L 74.918528 249.379502 
L 76.00433 248.157685 
L 77.090131 242.949433 
L 78.175932 239.223776 
L 79.261733 234.919421 
L 80.347534 236.241859 
L 81.433335 231.008175 
L 82.519137 235.087208 
L 83.604938 233.834859 
L 84.690739 234.059785 
L 85.77654 231.779141 
L 86.862341 230.498523 
L 87.948142 231.38212 
L 89.033943 232.898774 
L 90.119745 231.251444 
L 91.205546 228.307108 
L 92.291347 229.263922 
L 93.377148 231.619966 
L 94.462949 230.890488 
L 95.54875 231.033796 
L 96.634552 232.057836 
L 97.720353 232.847047 
L 98.806154 231.61526 
L 99.891955 233.17692 
L 100.977756 231.673873 
L 102.063557 229.680861 
L 103.149358 228.403667 
L 104.23516 230.131008 
L 106.406762 230.830679 
L 107.492563 233.048556 
L 108.578364 229.801294 
L 109.664165 230.077266 
L 110.749967 232.657095 
L 111.835768 233.67635 
L 112.921569 235.363131 
L 114.00737 232.379891 
L 115.093171 226.18909 
L 116.178972 229.648166 
L 117.264773 227.415415 
L 118.350575 227.994086 
L 119.436376 227.216858 
L 120.522177 231.430198 
L 121.607978 230.605764 
L 122.693779 231.018354 
L 123.77958 228.270304 
L 124.865382 231.207489 
L 125.951183 230.356761 
L 127.036984 227.79322 
L 128.122785 221.571659 
L 129.208586 228.673699 
L 130.294387 228.67061 
L 131.380189 232.100227 
L 132.46599 228.169493 
L 133.551791 227.780453 
L 134.637592 227.062064 
L 135.723393 229.498732 
L 136.809194 227.228999 
L 137.894995 233.291532 
L 138.980797 236.916511 
L 140.066598 233.68847 
L 141.152399 230.885952 
L 142.2382 233.606138 
L 143.324001 233.741353 
L 144.409802 233.113679 
L 145.495604 231.160752 
L 146.581405 227.696119 
L 147.667206 229.011851 
L 148.753007 228.636274 
L 149.838808 232.926806 
L 150.924609 230.630194 
L 152.01041 233.431021 
L 153.096212 227.761453 
L 154.182013 231.355965 
L 155.267814 226.739908 
L 156.353615 229.458157 
L 157.439416 226.138244 
L 158.525217 229.410555 
L 159.611019 225.414544 
L 160.69682 219.857418 
L 161.782621 223.677975 
L 162.868422 224.218384 
L 163.954223 223.315479 
L 165.040024 221.408176 
L 166.125825 222.334801 
L 167.211627 224.309865 
L 168.297428 225.45204 
L 169.383229 225.496115 
L 170.46903 221.930429 
L 171.554831 222.253645 
L 173.726434 228.559877 
L 174.812235 230.009802 
L 175.898036 226.347206 
L 176.983837 227.464182 
L 178.069638 227.553814 
L 179.155439 231.112061 
L 180.24124 225.071553 
L 181.327042 225.348452 
L 182.412843 229.633513 
L 183.498644 230.042148 
L 184.584445 233.71087 
L 185.670246 229.595428 
L 186.756047 223.813227 
L 187.841849 226.963037 
L 188.92765 225.00099 
L 190.013451 227.900316 
L 191.099252 227.54452 
L 192.185053 230.369842 
L 193.270854 229.330415 
L 194.356656 229.255144 
L 195.442457 229.742788 
L 196.528258 232.163419 
L 197.614059 231.736859 
L 198.69986 230.875118 
L 199.785661 231.906672 
L 200.871462 229.313629 
L 201.957264 232.227489 
L 203.043065 234.51928 
L 204.128866 234.833426 
L 205.214667 234.584553 
L 206.300468 232.258133 
L 207.386269 234.324063 
L 208.472071 234.57878 
L 209.557872 232.565649 
L 210.643673 229.623885 
L 211.729474 235.459453 
L 212.815275 229.275704 
L 213.901076 234.521486 
L 214.986877 235.067588 
L 216.072679 235.928324 
L 217.15848 238.021871 
L 218.244281 233.789938 
L 219.330082 231.511312 
L 220.415883 232.694886 
L 221.501684 230.064983 
L 222.587486 236.7305 
L 223.673287 232.236485 
L 224.759088 231.570621 
L 225.844889 234.049083 
L 226.93069 237.720895 
L 228.016491 238.568895 
L 229.102292 237.361651 
L 230.188094 238.782819 
L 231.273895 237.165169 
L 232.359696 239.938893 
L 233.445497 240.595269 
L 234.531298 243.508361 
L 235.617099 244.570923 
L 236.702901 244.747448 
L 237.788702 244.082295 
L 238.874503 240.103269 
L 239.960304 237.887903 
L 241.046105 240.736146 
L 242.131906 238.259625 
L 243.217708 240.383735 
L 244.303509 241.910927 
L 245.38931 241.527669 
L 246.475111 240.232527 
L 247.560912 244.081247 
L 248.646713 240.488588 
L 249.732514 242.737031 
L 250.818316 242.142782 
L 251.904117 239.593 
L 252.989918 238.394144 
L 254.075719 241.320188 
L 255.16152 241.934889 
L 256.247321 241.136236 
L 257.333123 242.52237 
L 258.418924 242.071251 
L 259.504725 235.512658 
L 260.590526 234.881657 
L 261.676327 243.071186 
L 262.762128 240.850245 
L 264.933731 243.263598 
L 266.019532 241.988028 
L 267.105333 235.113658 
L 268.191134 236.945128 
L 269.276935 231.716996 
L 270.362736 236.986252 
L 271.448538 240.988383 
L 272.534339 239.542234 
L 273.62014 239.886815 
L 274.705941 241.00666 
L 275.791742 240.883796 
L 276.877543 241.982668 
L 277.963344 238.961987 
L 279.049146 238.644744 
L 280.134947 235.677121 
L 281.220748 237.242397 
L 282.306549 238.563169 
L 283.39235 239.283822 
L 284.478151 242.676107 
L 285.563953 239.993195 
L 286.649754 236.32961 
L 287.735555 236.803855 
L 288.821356 238.666476 
L 289.907157 234.852482 
L 290.992958 238.1181 
L 292.07876 239.353825 
L 293.164561 236.49977 
L 294.250362 236.979207 
L 295.336163 241.010714 
L 296.421964 239.180019 
L 297.507765 238.844458 
L 298.593566 239.440984 
L 299.679368 237.767217 
L 300.765169 238.433274 
L 301.85097 243.57235 
L 302.936771 243.633926 
L 304.022572 242.078217 
L 305.108373 244.4616 
L 306.194175 243.885218 
L 307.279976 241.687685 
L 308.365777 243.781851 
L 309.451578 239.611947 
L 310.537379 237.443099 
L 311.62318 240.755538 
L 312.708981 237.294154 
L 313.794783 236.888472 
L 315.966385 240.493991 
L 317.052186 238.588393 
L 318.137987 239.936212 
L 319.223788 237.30023 
L 320.30959 232.443682 
L 321.395391 239.887537 
L 322.481192 239.324184 
L 323.566993 240.034315 
L 324.652794 242.169385 
L 325.738595 242.239808 
L 326.824396 240.090119 
L 327.910198 243.101752 
L 328.995999 238.147916 
L 330.0818 235.753426 
L 331.167601 232.775899 
L 332.253402 234.948564 
L 333.339203 231.63698 
L 334.425005 225.064359 
L 335.510806 228.207165 
L 336.596607 232.407559 
L 337.682408 234.562301 
L 338.768209 235.098078 
L 339.85401 233.104837 
L 340.939811 233.452747 
L 342.025613 237.386178 
L 343.111414 232.97827 
L 344.197215 233.915265 
L 345.283016 235.948506 
L 346.368817 232.702436 
L 347.454618 235.058352 
L 348.54042 234.901136 
L 349.626221 235.515302 
L 350.712022 232.611401 
L 351.797823 230.766231 
L 352.883624 229.423629 
L 353.969425 235.937525 
L 355.055227 237.201978 
L 356.141028 231.920553 
L 357.226829 239.004189 
L 358.31263 237.215754 
L 359.398431 233.114294 
L 360.484232 230.506468 
L 361.570033 233.224013 
L 362.655835 236.631055 
L 363.741636 235.0417 
L 364.827437 240.007191 
L 365.913238 242.870196 
L 366.999039 242.826926 
L 368.08484 240.745023 
L 369.170642 240.527961 
L 370.256443 241.561 
L 371.342244 239.496738 
L 372.428045 240.008434 
L 373.513846 236.07969 
L 374.599647 237.111568 
L 375.685448 238.336274 
L 376.77125 237.159766 
L 377.857051 236.757475 
L 378.942852 231.486829 
L 380.028653 239.209898 
L 381.114454 238.808748 
L 382.200255 238.135612 
L 383.286057 238.046355 
L 384.371858 236.621827 
L 385.457659 238.835391 
L 386.54346 239.994891 
L 387.629261 244.310956 
L 388.715062 240.653454 
L 389.800863 242.924216 
L 390.886665 240.160278 
L 391.972466 242.748622 
L 393.058267 241.859687 
L 394.144068 241.882919 
L 395.229869 244.664202 
L 396.31567 241.062447 
L 397.401472 241.398994 
L 398.487273 238.23262 
L 398.487273 238.23262 
" clip-path="url(#p692db081c1)" style="fill: none; stroke-dasharray: 9.6,2.4,1.5,2.4; stroke-dashoffset: 0; stroke: #008000; stroke-width: 1.5"/>
   </g>
   <g id="line2d_34">
    <path d="M 73.832727 147.171157 
L 76.00433 147.171157 
L 77.090131 70.208536 
L 78.175932 70.208536 
L 79.261733 66.929327 
L 100.977756 66.929327 
L 102.063557 63.112296 
L 114.00737 63.112296 
L 115.093171 57.892025 
L 159.611019 57.892025 
L 160.69682 53.568 
L 398.487273 53.568 
L 398.487273 53.568 
" clip-path="url(#p692db081c1)" style="fill: none; stroke: #ff0000; stroke-width: 1.5; stroke-linecap: square"/>
   </g>
   <g id="patch_3">
    <path d="M 57.6 307.584 
L 57.6 41.472 
" style="fill: none; stroke: #000000; stroke-width: 0.8; stroke-linejoin: miter; stroke-linecap: square"/>
   </g>
   <g id="patch_4">
    <path d="M 414.72 307.584 
L 414.72 41.472 
" style="fill: none; stroke: #000000; stroke-width: 0.8; stroke-linejoin: miter; stroke-linecap: square"/>
   </g>
   <g id="patch_5">
    <path d="M 57.6 307.584 
L 414.72 307.584 
" style="fill: none; stroke: #000000; stroke-width: 0.8; stroke-linejoin: miter; stroke-linecap: square"/>
   </g>
   <g id="patch_6">
    <path d="M 57.6 41.472 
L 414.72 41.472 
" style="fill: none; stroke: #000000; stroke-width: 0.8; stroke-linejoin: miter; stroke-linecap: square"/>
   </g>
   <g id="text_18">
    <!-- Population's average and best fitness -->
    <g transform="translate(123.529687 35.472) scale(0.12 -0.12)">
     <defs>
      <path id="DejaVuSans-50" d="M 1259 4147 
L 1259 2394 
L 2053 2394 
Q 2494 2394 2734 2622 
Q 2975 2850 2975 3272 
Q 2975 3691 2734 3919 
Q 2494 4147 2053 4147 
L 1259 4147 
z
M 628 4666 
L 2053 4666 
Q 2838 4666 3239 4311 
Q 3641 3956 3641 3272 
Q 3641 2581 3239 2228 
Q 2838 1875 2053 1875 
L 1259 1875 
L 1259 0 
L 628 0 
L 628 4666 
z
" transform="scale(0.015625)"/>
      <path id="DejaVuSans-70" d="M 1159 525 
L 1159 -1331 
L 581 -1331 
L 581 3500 
L 1159 3500 
L 1159 2969 
Q 1341 3281 1617 3432 
Q 1894 3584 2278 3584 
Q 2916 3584 3314 3078 
Q 3713 2572 3713 1747 
Q 3713 922 3314 415 
Q 2916 -91 2278 -91 
Q 1894 -91 1617 61 
Q 1341 213 1159 525 
z
M 3116 1747 
Q 3116 2381 2855 2742 
Q 2594 3103 2138 3103 
Q 1681 3103 1420 2742 
Q 1159 2381 1159 1747 
Q 1159 1113 1420 752 
Q 1681 391 2138 391 
Q 2594 391 2855 752 
Q 3116 1113 3116 1747 
z
" transform="scale(0.015625)"/>
      <path id="DejaVuSans-75" d="M 544 1381 
L 544 3500 
L 1119 3500 
L 1119 1403 
Q 1119 906 1312 657 
Q 1506 409 1894 409 
Q 2359 409 2629 706 
Q 2900 1003 2900 1516 
L 2900 3500 
L 3475 3500 
L 3475 0 
L 2900 0 
L 2900 538 
Q 2691 219 2414 64 
Q 2138 -91 1772 -91 
Q 1169 -91 856 284 
Q 544 659 544 1381 
z
M 1991 3584 
L 1991 3584 
z
" transform="scale(0.015625)"/>
      <path id="DejaVuSans-6c" d="M 603 4863 
L 1178 4863 
L 1178 0 
L 603 0 
L 603 4863 
z
" transform="scale(0.015625)"/>
      <path id="DejaVuSans-27" d="M 1147 4666 
L 1147 2931 
L 616 2931 
L 616 4666 
L 1147 4666 
z
" transform="scale(0.015625)"/>
      <path id="DejaVuSans-20" transform="scale(0.015625)"/>
      <path id="DejaVuSans-76" d="M 191 3500 
L 800 3500 
L 1894 563 
L 2988 3500 
L 3597 3500 
L 2284 0 
L 1503 0 
L 191 3500 
z
" transform="scale(0.015625)"/>
      <path id="DejaVuSans-67" d="M 2906 1791 
Q 2906 2416 2648 2759 
Q 2391 3103 1925 3103 
Q 1463 3103 1205 2759 
Q 947 2416 947 1791 
Q 947 1169 1205 825 
Q 1463 481 1925 481 
Q 2391 481 2648 825 
Q 2906 1169 2906 1791 
z
M 3481 434 
Q 3481 -459 3084 -895 
Q 2688 -1331 1869 -1331 
Q 1566 -1331 1297 -1286 
Q 1028 -1241 775 -1147 
L 775 -588 
Q 1028 -725 1275 -790 
Q 1522 -856 1778 -856 
Q 2344 -856 2625 -561 
Q 2906 -266 2906 331 
L 2906 616 
Q 2728 306 2450 153 
Q 2172 0 1784 0 
Q 1141 0 747 490 
Q 353 981 353 1791 
Q 353 2603 747 3093 
Q 1141 3584 1784 3584 
Q 2172 3584 2450 3431 
Q 2728 3278 2906 2969 
L 2906 3500 
L 3481 3500 
L 3481 434 
z
" transform="scale(0.015625)"/>
      <path id="DejaVuSans-64" d="M 2906 2969 
L 2906 4863 
L 3481 4863 
L 3481 0 
L 2906 0 
L 2906 525 
Q 2725 213 2448 61 
Q 2172 -91 1784 -91 
Q 1150 -91 751 415 
Q 353 922 353 1747 
Q 353 2572 751 3078 
Q 1150 3584 1784 3584 
Q 2172 3584 2448 3432 
Q 2725 3281 2906 2969 
z
M 947 1747 
Q 947 1113 1208 752 
Q 1469 391 1925 391 
Q 2381 391 2643 752 
Q 2906 1113 2906 1747 
Q 2906 2381 2643 2742 
Q 2381 3103 1925 3103 
Q 1469 3103 1208 2742 
Q 947 2381 947 1747 
z
" transform="scale(0.015625)"/>
      <path id="DejaVuSans-62" d="M 3116 1747 
Q 3116 2381 2855 2742 
Q 2594 3103 2138 3103 
Q 1681 3103 1420 2742 
Q 1159 2381 1159 1747 
Q 1159 1113 1420 752 
Q 1681 391 2138 391 
Q 2594 391 2855 752 
Q 3116 1113 3116 1747 
z
M 1159 2969 
Q 1341 3281 1617 3432 
Q 1894 3584 2278 3584 
Q 2916 3584 3314 3078 
Q 3713 2572 3713 1747 
Q 3713 922 3314 415 
Q 2916 -91 2278 -91 
Q 1894 -91 1617 61 
Q 1341 213 1159 525 
L 1159 0 
L 581 0 
L 581 4863 
L 1159 4863 
L 1159 2969 
z
" transform="scale(0.015625)"/>
      <path id="DejaVuSans-66" d="M 2375 4863 
L 2375 4384 
L 1825 4384 
Q 1516 4384 1395 4259 
Q 1275 4134 1275 3809 
L 1275 3500 
L 2222 3500 
L 2222 3053 
L 1275 3053 
L 1275 0 
L 697 0 
L 697 3053 
L 147 3053 
L 147 3500 
L 697 3500 
L 697 3744 
Q 697 4328 969 4595 
Q 1241 4863 1831 4863 
L 2375 4863 
z
" transform="scale(0.015625)"/>
     </defs>
     <use xlink:href="#DejaVuSans-50"/>
     <use xlink:href="#DejaVuSans-6f" x="56.677734"/>
     <use xlink:href="#DejaVuSans-70" x="117.859375"/>
     <use xlink:href="#DejaVuSans-75" x="181.335938"/>
     <use xlink:href="#DejaVuSans-6c" x="244.714844"/>
     <use xlink:href="#DejaVuSans-61" x="272.498047"/>
     <use xlink:href="#DejaVuSans-74" x="333.777344"/>
     <use xlink:href="#DejaVuSans-69" x="372.986328"/>
     <use xlink:href="#DejaVuSans-6f" x="400.769531"/>
     <use xlink:href="#DejaVuSans-6e" x="461.951172"/>
     <use xlink:href="#DejaVuSans-27" x="525.330078"/>
     <use xlink:href="#DejaVuSans-73" x="552.820312"/>
     <use xlink:href="#DejaVuSans-20" x="604.919922"/>
     <use xlink:href="#DejaVuSans-61" x="636.707031"/>
     <use xlink:href="#DejaVuSans-76" x="697.986328"/>
     <use xlink:href="#DejaVuSans-65" x="757.166016"/>
     <use xlink:href="#DejaVuSans-72" x="818.689453"/>
     <use xlink:href="#DejaVuSans-61" x="859.802734"/>
     <use xlink:href="#DejaVuSans-67" x="921.082031"/>
     <use xlink:href="#DejaVuSans-65" x="984.558594"/>
     <use xlink:href="#DejaVuSans-20" x="1046.082031"/>
     <use xlink:href="#DejaVuSans-61" x="1077.869141"/>
     <use xlink:href="#DejaVuSans-6e" x="1139.148438"/>
     <use xlink:href="#DejaVuSans-64" x="1202.527344"/>
     <use xlink:href="#DejaVuSans-20" x="1266.003906"/>
     <use xlink:href="#DejaVuSans-62" x="1297.791016"/>
     <use xlink:href="#DejaVuSans-65" x="1361.267578"/>
     <use xlink:href="#DejaVuSans-73" x="1422.791016"/>
     <use xlink:href="#DejaVuSans-74" x="1474.890625"/>
     <use xlink:href="#DejaVuSans-20" x="1514.099609"/>
     <use xlink:href="#DejaVuSans-66" x="1545.886719"/>
     <use xlink:href="#DejaVuSans-69" x="1581.091797"/>
     <use xlink:href="#DejaVuSans-74" x="1608.875"/>
     <use xlink:href="#DejaVuSans-6e" x="1648.083984"/>
     <use xlink:href="#DejaVuSans-65" x="1711.462891"/>
     <use xlink:href="#DejaVuSans-73" x="1772.986328"/>
     <use xlink:href="#DejaVuSans-73" x="1825.085938"/>
    </g>
   </g>
   <g id="legend_1">
    <g id="patch_7">
     <path d="M 334.779375 205.38425 
L 407.72 205.38425 
Q 409.72 205.38425 409.72 203.38425 
L 409.72 145.67175 
Q 409.72 143.67175 407.72 143.67175 
L 334.779375 143.67175 
Q 332.779375 143.67175 332.779375 145.67175 
L 332.779375 203.38425 
Q 332.779375 205.38425 334.779375 205.38425 
z
" style="fill: #ffffff; opacity: 0.8; stroke: #cccccc; stroke-linejoin: miter"/>
    </g>
    <g id="line2d_35">
     <path d="M 336.779375 151.770188 
L 346.779375 151.770188 
L 356.779375 151.770188 
" style="fill: none; stroke: #0000ff; stroke-width: 1.5; stroke-linecap: square"/>
    </g>
    <g id="text_19">
     <!-- average -->
     <g transform="translate(364.779375 155.270188) scale(0.1 -0.1)">
      <use xlink:href="#DejaVuSans-61"/>
      <use xlink:href="#DejaVuSans-76" x="61.279297"/>
      <use xlink:href="#DejaVuSans-65" x="120.458984"/>
      <use xlink:href="#DejaVuSans-72" x="181.982422"/>
      <use xlink:href="#DejaVuSans-61" x="223.095703"/>
      <use xlink:href="#DejaVuSans-67" x="284.375"/>
      <use xlink:href="#DejaVuSans-65" x="347.851562"/>
     </g>
    </g>
    <g id="line2d_36">
     <path d="M 336.779375 166.448313 
L 346.779375 166.448313 
L 356.779375 166.448313 
" style="fill: none; stroke-dasharray: 9.6,2.4,1.5,2.4; stroke-dashoffset: 0; stroke: #008000; stroke-width: 1.5"/>
    </g>
    <g id="text_20">
     <!-- -1 sd -->
     <g transform="translate(364.779375 169.948313) scale(0.1 -0.1)">
      <defs>
       <path id="DejaVuSans-2d" d="M 313 2009 
L 1997 2009 
L 1997 1497 
L 313 1497 
L 313 2009 
z
" transform="scale(0.015625)"/>
      </defs>
      <use xlink:href="#DejaVuSans-2d"/>
      <use xlink:href="#DejaVuSans-31" x="36.083984"/>
      <use xlink:href="#DejaVuSans-20" x="99.707031"/>
      <use xlink:href="#DejaVuSans-73" x="131.494141"/>
      <use xlink:href="#DejaVuSans-64" x="183.59375"/>
     </g>
    </g>
    <g id="line2d_37">
     <path d="M 336.779375 181.126438 
L 346.779375 181.126438 
L 356.779375 181.126438 
" style="fill: none; stroke-dasharray: 9.6,2.4,1.5,2.4; stroke-dashoffset: 0; stroke: #008000; stroke-width: 1.5"/>
    </g>
    <g id="text_21">
     <!-- +1 sd -->
     <g transform="translate(364.779375 184.626438) scale(0.1 -0.1)">
      <defs>
       <path id="DejaVuSans-2b" d="M 2944 4013 
L 2944 2272 
L 4684 2272 
L 4684 1741 
L 2944 1741 
L 2944 0 
L 2419 0 
L 2419 1741 
L 678 1741 
L 678 2272 
L 2419 2272 
L 2419 4013 
L 2944 4013 
z
" transform="scale(0.015625)"/>
      </defs>
      <use xlink:href="#DejaVuSans-2b"/>
      <use xlink:href="#DejaVuSans-31" x="83.789062"/>
      <use xlink:href="#DejaVuSans-20" x="147.412109"/>
      <use xlink:href="#DejaVuSans-73" x="179.199219"/>
      <use xlink:href="#DejaVuSans-64" x="231.298828"/>
     </g>
    </g>
    <g id="line2d_38">
     <path d="M 336.779375 195.804563 
L 346.779375 195.804563 
L 356.779375 195.804563 
" style="fill: none; stroke: #ff0000; stroke-width: 1.5; stroke-linecap: square"/>
    </g>
    <g id="text_22">
     <!-- best -->
     <g transform="translate(364.779375 199.304563) scale(0.1 -0.1)">
      <use xlink:href="#DejaVuSans-62"/>
      <use xlink:href="#DejaVuSans-65" x="63.476562"/>
      <use xlink:href="#DejaVuSans-73" x="125"/>
      <use xlink:href="#DejaVuSans-74" x="177.099609"/>
     </g>
    </g>
   </g>
  </g>
 </g>
 <defs>
  <clipPath id="p692db081c1">
   <rect x="57.6" y="41.472" width="357.12" height="266.112"/>
  </clipPath>
 </defs>
</svg>
