<?xml version="1.0" encoding="utf-8" standalone="no"?>
<!DOCTYPE svg PUBLIC "-//W3C//DTD SVG 1.1//EN"
  "http://www.w3.org/Graphics/SVG/1.1/DTD/svg11.dtd">
<svg xmlns:xlink="http://www.w3.org/1999/xlink" width="460.8pt" height="345.6pt" viewBox="0 0 460.8 345.6" xmlns="http://www.w3.org/2000/svg" version="1.1">
 <metadata>
  <rdf:RDF xmlns:dc="http://purl.org/dc/elements/1.1/" xmlns:cc="http://creativecommons.org/ns#" xmlns:rdf="http://www.w3.org/1999/02/22-rdf-syntax-ns#">
   <cc:Work>
    <dc:type rdf:resource="http://purl.org/dc/dcmitype/StillImage"/>
    <dc:date>2024-07-20T04:27:56.760317</dc:date>
    <dc:format>image/svg+xml</dc:format>
    <dc:creator>
     <cc:Agent>
      <dc:title>Matplotlib v3.9.1, https://matplotlib.org/</dc:title>
     </cc:Agent>
    </dc:creator>
   </cc:Work>
  </rdf:RDF>
 </metadata>
 <defs>
  <style type="text/css">*{stroke-linejoin: round; stroke-linecap: butt}</style>
 </defs>
 <g id="figure_1">
  <g id="patch_1">
   <path d="M 0 345.6 
L 460.8 345.6 
L 460.8 0 
L 0 0 
z
" style="fill: #ffffff"/>
  </g>
  <g id="axes_1">
   <g id="patch_2">
    <path d="M 57.6 307.584 
L 414.72 307.584 
L 414.72 41.472 
L 57.6 41.472 
z
" style="fill: #ffffff"/>
   </g>
   <g id="matplotlib.axis_1">
    <g id="xtick_1">
     <g id="line2d_1">
      <path d="M 73.832727 307.584 
L 73.832727 41.472 
" clip-path="url(#p356a62698d)" style="fill: none; stroke: #b0b0b0; stroke-width: 0.8; stroke-linecap: square"/>
     </g>
     <g id="line2d_2">
      <defs>
       <path id="m896bb106d5" d="M 0 0 
L 0 3.5 
" style="stroke: #000000; stroke-width: 0.8"/>
      </defs>
      <g>
       <use xlink:href="#m896bb106d5" x="73.832727" y="307.584" style="stroke: #000000; stroke-width: 0.8"/>
      </g>
     </g>
     <g id="text_1">
      <!-- 0 -->
      <g transform="translate(70.651477 322.182437) scale(0.1 -0.1)">
       <defs>
        <path id="DejaVuSans-30" d="M 2034 4250 
Q 1547 4250 1301 3770 
Q 1056 3291 1056 2328 
Q 1056 1369 1301 889 
Q 1547 409 2034 409 
Q 2525 409 2770 889 
Q 3016 1369 3016 2328 
Q 3016 3291 2770 3770 
Q 2525 4250 2034 4250 
z
M 2034 4750 
Q 2819 4750 3233 4129 
Q 3647 3509 3647 2328 
Q 3647 1150 3233 529 
Q 2819 -91 2034 -91 
Q 1250 -91 836 529 
Q 422 1150 422 2328 
Q 422 3509 836 4129 
Q 1250 4750 2034 4750 
z
" transform="scale(0.015625)"/>
       </defs>
       <use xlink:href="#DejaVuSans-30"/>
      </g>
     </g>
    </g>
    <g id="xtick_2">
     <g id="line2d_3">
      <path d="M 128.122785 307.584 
L 128.122785 41.472 
" clip-path="url(#p356a62698d)" style="fill: none; stroke: #b0b0b0; stroke-width: 0.8; stroke-linecap: square"/>
     </g>
     <g id="line2d_4">
      <g>
       <use xlink:href="#m896bb106d5" x="128.122785" y="307.584" style="stroke: #000000; stroke-width: 0.8"/>
      </g>
     </g>
     <g id="text_2">
      <!-- 50 -->
      <g transform="translate(121.760285 322.182437) scale(0.1 -0.1)">
       <defs>
        <path id="DejaVuSans-35" d="M 691 4666 
L 3169 4666 
L 3169 4134 
L 1269 4134 
L 1269 2991 
Q 1406 3038 1543 3061 
Q 1681 3084 1819 3084 
Q 2600 3084 3056 2656 
Q 3513 2228 3513 1497 
Q 3513 744 3044 326 
Q 2575 -91 1722 -91 
Q 1428 -91 1123 -41 
Q 819 9 494 109 
L 494 744 
Q 775 591 1075 516 
Q 1375 441 1709 441 
Q 2250 441 2565 725 
Q 2881 1009 2881 1497 
Q 2881 1984 2565 2268 
Q 2250 2553 1709 2553 
Q 1456 2553 1204 2497 
Q 953 2441 691 2322 
L 691 4666 
z
" transform="scale(0.015625)"/>
       </defs>
       <use xlink:href="#DejaVuSans-35"/>
       <use xlink:href="#DejaVuSans-30" x="63.623047"/>
      </g>
     </g>
    </g>
    <g id="xtick_3">
     <g id="line2d_5">
      <path d="M 182.412843 307.584 
L 182.412843 41.472 
" clip-path="url(#p356a62698d)" style="fill: none; stroke: #b0b0b0; stroke-width: 0.8; stroke-linecap: square"/>
     </g>
     <g id="line2d_6">
      <g>
       <use xlink:href="#m896bb106d5" x="182.412843" y="307.584" style="stroke: #000000; stroke-width: 0.8"/>
      </g>
     </g>
     <g id="text_3">
      <!-- 100 -->
      <g transform="translate(172.869093 322.182437) scale(0.1 -0.1)">
       <defs>
        <path id="DejaVuSans-31" d="M 794 531 
L 1825 531 
L 1825 4091 
L 703 3866 
L 703 4441 
L 1819 4666 
L 2450 4666 
L 2450 531 
L 3481 531 
L 3481 0 
L 794 0 
L 794 531 
z
" transform="scale(0.015625)"/>
       </defs>
       <use xlink:href="#DejaVuSans-31"/>
       <use xlink:href="#DejaVuSans-30" x="63.623047"/>
       <use xlink:href="#DejaVuSans-30" x="127.246094"/>
      </g>
     </g>
    </g>
    <g id="xtick_4">
     <g id="line2d_7">
      <path d="M 236.702901 307.584 
L 236.702901 41.472 
" clip-path="url(#p356a62698d)" style="fill: none; stroke: #b0b0b0; stroke-width: 0.8; stroke-linecap: square"/>
     </g>
     <g id="line2d_8">
      <g>
       <use xlink:href="#m896bb106d5" x="236.702901" y="307.584" style="stroke: #000000; stroke-width: 0.8"/>
      </g>
     </g>
     <g id="text_4">
      <!-- 150 -->
      <g transform="translate(227.159151 322.182437) scale(0.1 -0.1)">
       <use xlink:href="#DejaVuSans-31"/>
       <use xlink:href="#DejaVuSans-35" x="63.623047"/>
       <use xlink:href="#DejaVuSans-30" x="127.246094"/>
      </g>
     </g>
    </g>
    <g id="xtick_5">
     <g id="line2d_9">
      <path d="M 290.992958 307.584 
L 290.992958 41.472 
" clip-path="url(#p356a62698d)" style="fill: none; stroke: #b0b0b0; stroke-width: 0.8; stroke-linecap: square"/>
     </g>
     <g id="line2d_10">
      <g>
       <use xlink:href="#m896bb106d5" x="290.992958" y="307.584" style="stroke: #000000; stroke-width: 0.8"/>
      </g>
     </g>
     <g id="text_5">
      <!-- 200 -->
      <g transform="translate(281.449208 322.182437) scale(0.1 -0.1)">
       <defs>
        <path id="DejaVuSans-32" d="M 1228 531 
L 3431 531 
L 3431 0 
L 469 0 
L 469 531 
Q 828 903 1448 1529 
Q 2069 2156 2228 2338 
Q 2531 2678 2651 2914 
Q 2772 3150 2772 3378 
Q 2772 3750 2511 3984 
Q 2250 4219 1831 4219 
Q 1534 4219 1204 4116 
Q 875 4013 500 3803 
L 500 4441 
Q 881 4594 1212 4672 
Q 1544 4750 1819 4750 
Q 2544 4750 2975 4387 
Q 3406 4025 3406 3419 
Q 3406 3131 3298 2873 
Q 3191 2616 2906 2266 
Q 2828 2175 2409 1742 
Q 1991 1309 1228 531 
z
" transform="scale(0.015625)"/>
       </defs>
       <use xlink:href="#DejaVuSans-32"/>
       <use xlink:href="#DejaVuSans-30" x="63.623047"/>
       <use xlink:href="#DejaVuSans-30" x="127.246094"/>
      </g>
     </g>
    </g>
    <g id="xtick_6">
     <g id="line2d_11">
      <path d="M 345.283016 307.584 
L 345.283016 41.472 
" clip-path="url(#p356a62698d)" style="fill: none; stroke: #b0b0b0; stroke-width: 0.8; stroke-linecap: square"/>
     </g>
     <g id="line2d_12">
      <g>
       <use xlink:href="#m896bb106d5" x="345.283016" y="307.584" style="stroke: #000000; stroke-width: 0.8"/>
      </g>
     </g>
     <g id="text_6">
      <!-- 250 -->
      <g transform="translate(335.739266 322.182437) scale(0.1 -0.1)">
       <use xlink:href="#DejaVuSans-32"/>
       <use xlink:href="#DejaVuSans-35" x="63.623047"/>
       <use xlink:href="#DejaVuSans-30" x="127.246094"/>
      </g>
     </g>
    </g>
    <g id="xtick_7">
     <g id="line2d_13">
      <path d="M 399.573074 307.584 
L 399.573074 41.472 
" clip-path="url(#p356a62698d)" style="fill: none; stroke: #b0b0b0; stroke-width: 0.8; stroke-linecap: square"/>
     </g>
     <g id="line2d_14">
      <g>
       <use xlink:href="#m896bb106d5" x="399.573074" y="307.584" style="stroke: #000000; stroke-width: 0.8"/>
      </g>
     </g>
     <g id="text_7">
      <!-- 300 -->
      <g transform="translate(390.029324 322.182437) scale(0.1 -0.1)">
       <defs>
        <path id="DejaVuSans-33" d="M 2597 2516 
Q 3050 2419 3304 2112 
Q 3559 1806 3559 1356 
Q 3559 666 3084 287 
Q 2609 -91 1734 -91 
Q 1441 -91 1130 -33 
Q 819 25 488 141 
L 488 750 
Q 750 597 1062 519 
Q 1375 441 1716 441 
Q 2309 441 2620 675 
Q 2931 909 2931 1356 
Q 2931 1769 2642 2001 
Q 2353 2234 1838 2234 
L 1294 2234 
L 1294 2753 
L 1863 2753 
Q 2328 2753 2575 2939 
Q 2822 3125 2822 3475 
Q 2822 3834 2567 4026 
Q 2313 4219 1838 4219 
Q 1578 4219 1281 4162 
Q 984 4106 628 3988 
L 628 4550 
Q 988 4650 1302 4700 
Q 1616 4750 1894 4750 
Q 2613 4750 3031 4423 
Q 3450 4097 3450 3541 
Q 3450 3153 3228 2886 
Q 3006 2619 2597 2516 
z
" transform="scale(0.015625)"/>
       </defs>
       <use xlink:href="#DejaVuSans-33"/>
       <use xlink:href="#DejaVuSans-30" x="63.623047"/>
       <use xlink:href="#DejaVuSans-30" x="127.246094"/>
      </g>
     </g>
    </g>
    <g id="text_8">
     <!-- Generations -->
     <g transform="translate(205.662344 335.860562) scale(0.1 -0.1)">
      <defs>
       <path id="DejaVuSans-47" d="M 3809 666 
L 3809 1919 
L 2778 1919 
L 2778 2438 
L 4434 2438 
L 4434 434 
Q 4069 175 3628 42 
Q 3188 -91 2688 -91 
Q 1594 -91 976 548 
Q 359 1188 359 2328 
Q 359 3472 976 4111 
Q 1594 4750 2688 4750 
Q 3144 4750 3555 4637 
Q 3966 4525 4313 4306 
L 4313 3634 
Q 3963 3931 3569 4081 
Q 3175 4231 2741 4231 
Q 1884 4231 1454 3753 
Q 1025 3275 1025 2328 
Q 1025 1384 1454 906 
Q 1884 428 2741 428 
Q 3075 428 3337 486 
Q 3600 544 3809 666 
z
" transform="scale(0.015625)"/>
       <path id="DejaVuSans-65" d="M 3597 1894 
L 3597 1613 
L 953 1613 
Q 991 1019 1311 708 
Q 1631 397 2203 397 
Q 2534 397 2845 478 
Q 3156 559 3463 722 
L 3463 178 
Q 3153 47 2828 -22 
Q 2503 -91 2169 -91 
Q 1331 -91 842 396 
Q 353 884 353 1716 
Q 353 2575 817 3079 
Q 1281 3584 2069 3584 
Q 2775 3584 3186 3129 
Q 3597 2675 3597 1894 
z
M 3022 2063 
Q 3016 2534 2758 2815 
Q 2500 3097 2075 3097 
Q 1594 3097 1305 2825 
Q 1016 2553 972 2059 
L 3022 2063 
z
" transform="scale(0.015625)"/>
       <path id="DejaVuSans-6e" d="M 3513 2113 
L 3513 0 
L 2938 0 
L 2938 2094 
Q 2938 2591 2744 2837 
Q 2550 3084 2163 3084 
Q 1697 3084 1428 2787 
Q 1159 2491 1159 1978 
L 1159 0 
L 581 0 
L 581 3500 
L 1159 3500 
L 1159 2956 
Q 1366 3272 1645 3428 
Q 1925 3584 2291 3584 
Q 2894 3584 3203 3211 
Q 3513 2838 3513 2113 
z
" transform="scale(0.015625)"/>
       <path id="DejaVuSans-72" d="M 2631 2963 
Q 2534 3019 2420 3045 
Q 2306 3072 2169 3072 
Q 1681 3072 1420 2755 
Q 1159 2438 1159 1844 
L 1159 0 
L 581 0 
L 581 3500 
L 1159 3500 
L 1159 2956 
Q 1341 3275 1631 3429 
Q 1922 3584 2338 3584 
Q 2397 3584 2469 3576 
Q 2541 3569 2628 3553 
L 2631 2963 
z
" transform="scale(0.015625)"/>
       <path id="DejaVuSans-61" d="M 2194 1759 
Q 1497 1759 1228 1600 
Q 959 1441 959 1056 
Q 959 750 1161 570 
Q 1363 391 1709 391 
Q 2188 391 2477 730 
Q 2766 1069 2766 1631 
L 2766 1759 
L 2194 1759 
z
M 3341 1997 
L 3341 0 
L 2766 0 
L 2766 531 
Q 2569 213 2275 61 
Q 1981 -91 1556 -91 
Q 1019 -91 701 211 
Q 384 513 384 1019 
Q 384 1609 779 1909 
Q 1175 2209 1959 2209 
L 2766 2209 
L 2766 2266 
Q 2766 2663 2505 2880 
Q 2244 3097 1772 3097 
Q 1472 3097 1187 3025 
Q 903 2953 641 2809 
L 641 3341 
Q 956 3463 1253 3523 
Q 1550 3584 1831 3584 
Q 2591 3584 2966 3190 
Q 3341 2797 3341 1997 
z
" transform="scale(0.015625)"/>
       <path id="DejaVuSans-74" d="M 1172 4494 
L 1172 3500 
L 2356 3500 
L 2356 3053 
L 1172 3053 
L 1172 1153 
Q 1172 725 1289 603 
Q 1406 481 1766 481 
L 2356 481 
L 2356 0 
L 1766 0 
Q 1100 0 847 248 
Q 594 497 594 1153 
L 594 3053 
L 172 3053 
L 172 3500 
L 594 3500 
L 594 4494 
L 1172 4494 
z
" transform="scale(0.015625)"/>
       <path id="DejaVuSans-69" d="M 603 3500 
L 1178 3500 
L 1178 0 
L 603 0 
L 603 3500 
z
M 603 4863 
L 1178 4863 
L 1178 4134 
L 603 4134 
L 603 4863 
z
" transform="scale(0.015625)"/>
       <path id="DejaVuSans-6f" d="M 1959 3097 
Q 1497 3097 1228 2736 
Q 959 2375 959 1747 
Q 959 1119 1226 758 
Q 1494 397 1959 397 
Q 2419 397 2687 759 
Q 2956 1122 2956 1747 
Q 2956 2369 2687 2733 
Q 2419 3097 1959 3097 
z
M 1959 3584 
Q 2709 3584 3137 3096 
Q 3566 2609 3566 1747 
Q 3566 888 3137 398 
Q 2709 -91 1959 -91 
Q 1206 -91 779 398 
Q 353 888 353 1747 
Q 353 2609 779 3096 
Q 1206 3584 1959 3584 
z
" transform="scale(0.015625)"/>
       <path id="DejaVuSans-73" d="M 2834 3397 
L 2834 2853 
Q 2591 2978 2328 3040 
Q 2066 3103 1784 3103 
Q 1356 3103 1142 2972 
Q 928 2841 928 2578 
Q 928 2378 1081 2264 
Q 1234 2150 1697 2047 
L 1894 2003 
Q 2506 1872 2764 1633 
Q 3022 1394 3022 966 
Q 3022 478 2636 193 
Q 2250 -91 1575 -91 
Q 1294 -91 989 -36 
Q 684 19 347 128 
L 347 722 
Q 666 556 975 473 
Q 1284 391 1588 391 
Q 1994 391 2212 530 
Q 2431 669 2431 922 
Q 2431 1156 2273 1281 
Q 2116 1406 1581 1522 
L 1381 1569 
Q 847 1681 609 1914 
Q 372 2147 372 2553 
Q 372 3047 722 3315 
Q 1072 3584 1716 3584 
Q 2034 3584 2315 3537 
Q 2597 3491 2834 3397 
z
" transform="scale(0.015625)"/>
      </defs>
      <use xlink:href="#DejaVuSans-47"/>
      <use xlink:href="#DejaVuSans-65" x="77.490234"/>
      <use xlink:href="#DejaVuSans-6e" x="139.013672"/>
      <use xlink:href="#DejaVuSans-65" x="202.392578"/>
      <use xlink:href="#DejaVuSans-72" x="263.916016"/>
      <use xlink:href="#DejaVuSans-61" x="305.029297"/>
      <use xlink:href="#DejaVuSans-74" x="366.308594"/>
      <use xlink:href="#DejaVuSans-69" x="405.517578"/>
      <use xlink:href="#DejaVuSans-6f" x="433.300781"/>
      <use xlink:href="#DejaVuSans-6e" x="494.482422"/>
      <use xlink:href="#DejaVuSans-73" x="557.861328"/>
     </g>
    </g>
   </g>
   <g id="matplotlib.axis_2">
    <g id="ytick_1">
     <g id="line2d_15">
      <path d="M 57.6 306.924708 
L 414.72 306.924708 
" clip-path="url(#p356a62698d)" style="fill: none; stroke: #b0b0b0; stroke-width: 0.8; stroke-linecap: square"/>
     </g>
     <g id="line2d_16">
      <defs>
       <path id="me838b7b427" d="M 0 0 
L -3.5 0 
" style="stroke: #000000; stroke-width: 0.8"/>
      </defs>
      <g>
       <use xlink:href="#me838b7b427" x="57.6" y="306.924708" style="stroke: #000000; stroke-width: 0.8"/>
      </g>
     </g>
     <g id="text_9">
      <!-- −1600 -->
      <g transform="translate(16.770313 310.723926) scale(0.1 -0.1)">
       <defs>
        <path id="DejaVuSans-2212" d="M 678 2272 
L 4684 2272 
L 4684 1741 
L 678 1741 
L 678 2272 
z
" transform="scale(0.015625)"/>
        <path id="DejaVuSans-36" d="M 2113 2584 
Q 1688 2584 1439 2293 
Q 1191 2003 1191 1497 
Q 1191 994 1439 701 
Q 1688 409 2113 409 
Q 2538 409 2786 701 
Q 3034 994 3034 1497 
Q 3034 2003 2786 2293 
Q 2538 2584 2113 2584 
z
M 3366 4563 
L 3366 3988 
Q 3128 4100 2886 4159 
Q 2644 4219 2406 4219 
Q 1781 4219 1451 3797 
Q 1122 3375 1075 2522 
Q 1259 2794 1537 2939 
Q 1816 3084 2150 3084 
Q 2853 3084 3261 2657 
Q 3669 2231 3669 1497 
Q 3669 778 3244 343 
Q 2819 -91 2113 -91 
Q 1303 -91 875 529 
Q 447 1150 447 2328 
Q 447 3434 972 4092 
Q 1497 4750 2381 4750 
Q 2619 4750 2861 4703 
Q 3103 4656 3366 4563 
z
" transform="scale(0.015625)"/>
       </defs>
       <use xlink:href="#DejaVuSans-2212"/>
       <use xlink:href="#DejaVuSans-31" x="83.789062"/>
       <use xlink:href="#DejaVuSans-36" x="147.412109"/>
       <use xlink:href="#DejaVuSans-30" x="211.035156"/>
       <use xlink:href="#DejaVuSans-30" x="274.658203"/>
      </g>
     </g>
    </g>
    <g id="ytick_2">
     <g id="line2d_17">
      <path d="M 57.6 269.085936 
L 414.72 269.085936 
" clip-path="url(#p356a62698d)" style="fill: none; stroke: #b0b0b0; stroke-width: 0.8; stroke-linecap: square"/>
     </g>
     <g id="line2d_18">
      <g>
       <use xlink:href="#me838b7b427" x="57.6" y="269.085936" style="stroke: #000000; stroke-width: 0.8"/>
      </g>
     </g>
     <g id="text_10">
      <!-- −1400 -->
      <g transform="translate(16.770313 272.885155) scale(0.1 -0.1)">
       <defs>
        <path id="DejaVuSans-34" d="M 2419 4116 
L 825 1625 
L 2419 1625 
L 2419 4116 
z
M 2253 4666 
L 3047 4666 
L 3047 1625 
L 3713 1625 
L 3713 1100 
L 3047 1100 
L 3047 0 
L 2419 0 
L 2419 1100 
L 313 1100 
L 313 1709 
L 2253 4666 
z
" transform="scale(0.015625)"/>
       </defs>
       <use xlink:href="#DejaVuSans-2212"/>
       <use xlink:href="#DejaVuSans-31" x="83.789062"/>
       <use xlink:href="#DejaVuSans-34" x="147.412109"/>
       <use xlink:href="#DejaVuSans-30" x="211.035156"/>
       <use xlink:href="#DejaVuSans-30" x="274.658203"/>
      </g>
     </g>
    </g>
    <g id="ytick_3">
     <g id="line2d_19">
      <path d="M 57.6 231.247165 
L 414.72 231.247165 
" clip-path="url(#p356a62698d)" style="fill: none; stroke: #b0b0b0; stroke-width: 0.8; stroke-linecap: square"/>
     </g>
     <g id="line2d_20">
      <g>
       <use xlink:href="#me838b7b427" x="57.6" y="231.247165" style="stroke: #000000; stroke-width: 0.8"/>
      </g>
     </g>
     <g id="text_11">
      <!-- −1200 -->
      <g transform="translate(16.770313 235.046384) scale(0.1 -0.1)">
       <use xlink:href="#DejaVuSans-2212"/>
       <use xlink:href="#DejaVuSans-31" x="83.789062"/>
       <use xlink:href="#DejaVuSans-32" x="147.412109"/>
       <use xlink:href="#DejaVuSans-30" x="211.035156"/>
       <use xlink:href="#DejaVuSans-30" x="274.658203"/>
      </g>
     </g>
    </g>
    <g id="ytick_4">
     <g id="line2d_21">
      <path d="M 57.6 193.408394 
L 414.72 193.408394 
" clip-path="url(#p356a62698d)" style="fill: none; stroke: #b0b0b0; stroke-width: 0.8; stroke-linecap: square"/>
     </g>
     <g id="line2d_22">
      <g>
       <use xlink:href="#me838b7b427" x="57.6" y="193.408394" style="stroke: #000000; stroke-width: 0.8"/>
      </g>
     </g>
     <g id="text_12">
      <!-- −1000 -->
      <g transform="translate(16.770313 197.207612) scale(0.1 -0.1)">
       <use xlink:href="#DejaVuSans-2212"/>
       <use xlink:href="#DejaVuSans-31" x="83.789062"/>
       <use xlink:href="#DejaVuSans-30" x="147.412109"/>
       <use xlink:href="#DejaVuSans-30" x="211.035156"/>
       <use xlink:href="#DejaVuSans-30" x="274.658203"/>
      </g>
     </g>
    </g>
    <g id="ytick_5">
     <g id="line2d_23">
      <path d="M 57.6 155.569622 
L 414.72 155.569622 
" clip-path="url(#p356a62698d)" style="fill: none; stroke: #b0b0b0; stroke-width: 0.8; stroke-linecap: square"/>
     </g>
     <g id="line2d_24">
      <g>
       <use xlink:href="#me838b7b427" x="57.6" y="155.569622" style="stroke: #000000; stroke-width: 0.8"/>
      </g>
     </g>
     <g id="text_13">
      <!-- −800 -->
      <g transform="translate(23.132812 159.368841) scale(0.1 -0.1)">
       <defs>
        <path id="DejaVuSans-38" d="M 2034 2216 
Q 1584 2216 1326 1975 
Q 1069 1734 1069 1313 
Q 1069 891 1326 650 
Q 1584 409 2034 409 
Q 2484 409 2743 651 
Q 3003 894 3003 1313 
Q 3003 1734 2745 1975 
Q 2488 2216 2034 2216 
z
M 1403 2484 
Q 997 2584 770 2862 
Q 544 3141 544 3541 
Q 544 4100 942 4425 
Q 1341 4750 2034 4750 
Q 2731 4750 3128 4425 
Q 3525 4100 3525 3541 
Q 3525 3141 3298 2862 
Q 3072 2584 2669 2484 
Q 3125 2378 3379 2068 
Q 3634 1759 3634 1313 
Q 3634 634 3220 271 
Q 2806 -91 2034 -91 
Q 1263 -91 848 271 
Q 434 634 434 1313 
Q 434 1759 690 2068 
Q 947 2378 1403 2484 
z
M 1172 3481 
Q 1172 3119 1398 2916 
Q 1625 2713 2034 2713 
Q 2441 2713 2670 2916 
Q 2900 3119 2900 3481 
Q 2900 3844 2670 4047 
Q 2441 4250 2034 4250 
Q 1625 4250 1398 4047 
Q 1172 3844 1172 3481 
z
" transform="scale(0.015625)"/>
       </defs>
       <use xlink:href="#DejaVuSans-2212"/>
       <use xlink:href="#DejaVuSans-38" x="83.789062"/>
       <use xlink:href="#DejaVuSans-30" x="147.412109"/>
       <use xlink:href="#DejaVuSans-30" x="211.035156"/>
      </g>
     </g>
    </g>
    <g id="ytick_6">
     <g id="line2d_25">
      <path d="M 57.6 117.730851 
L 414.72 117.730851 
" clip-path="url(#p356a62698d)" style="fill: none; stroke: #b0b0b0; stroke-width: 0.8; stroke-linecap: square"/>
     </g>
     <g id="line2d_26">
      <g>
       <use xlink:href="#me838b7b427" x="57.6" y="117.730851" style="stroke: #000000; stroke-width: 0.8"/>
      </g>
     </g>
     <g id="text_14">
      <!-- −600 -->
      <g transform="translate(23.132812 121.53007) scale(0.1 -0.1)">
       <use xlink:href="#DejaVuSans-2212"/>
       <use xlink:href="#DejaVuSans-36" x="83.789062"/>
       <use xlink:href="#DejaVuSans-30" x="147.412109"/>
       <use xlink:href="#DejaVuSans-30" x="211.035156"/>
      </g>
     </g>
    </g>
    <g id="ytick_7">
     <g id="line2d_27">
      <path d="M 57.6 79.892079 
L 414.72 79.892079 
" clip-path="url(#p356a62698d)" style="fill: none; stroke: #b0b0b0; stroke-width: 0.8; stroke-linecap: square"/>
     </g>
     <g id="line2d_28">
      <g>
       <use xlink:href="#me838b7b427" x="57.6" y="79.892079" style="stroke: #000000; stroke-width: 0.8"/>
      </g>
     </g>
     <g id="text_15">
      <!-- −400 -->
      <g transform="translate(23.132812 83.691298) scale(0.1 -0.1)">
       <use xlink:href="#DejaVuSans-2212"/>
       <use xlink:href="#DejaVuSans-34" x="83.789062"/>
       <use xlink:href="#DejaVuSans-30" x="147.412109"/>
       <use xlink:href="#DejaVuSans-30" x="211.035156"/>
      </g>
     </g>
    </g>
    <g id="ytick_8">
     <g id="line2d_29">
      <path d="M 57.6 42.053308 
L 414.72 42.053308 
" clip-path="url(#p356a62698d)" style="fill: none; stroke: #b0b0b0; stroke-width: 0.8; stroke-linecap: square"/>
     </g>
     <g id="line2d_30">
      <g>
       <use xlink:href="#me838b7b427" x="57.6" y="42.053308" style="stroke: #000000; stroke-width: 0.8"/>
      </g>
     </g>
     <g id="text_16">
      <!-- −200 -->
      <g transform="translate(23.132812 45.852527) scale(0.1 -0.1)">
       <use xlink:href="#DejaVuSans-2212"/>
       <use xlink:href="#DejaVuSans-32" x="83.789062"/>
       <use xlink:href="#DejaVuSans-30" x="147.412109"/>
       <use xlink:href="#DejaVuSans-30" x="211.035156"/>
      </g>
     </g>
    </g>
    <g id="text_17">
     <!-- Fitness -->
     <g transform="translate(10.690625 191.845187) rotate(-90) scale(0.1 -0.1)">
      <defs>
       <path id="DejaVuSans-46" d="M 628 4666 
L 3309 4666 
L 3309 4134 
L 1259 4134 
L 1259 2759 
L 3109 2759 
L 3109 2228 
L 1259 2228 
L 1259 0 
L 628 0 
L 628 4666 
z
" transform="scale(0.015625)"/>
      </defs>
      <use xlink:href="#DejaVuSans-46"/>
      <use xlink:href="#DejaVuSans-69" x="50.269531"/>
      <use xlink:href="#DejaVuSans-74" x="78.052734"/>
      <use xlink:href="#DejaVuSans-6e" x="117.261719"/>
      <use xlink:href="#DejaVuSans-65" x="180.640625"/>
      <use xlink:href="#DejaVuSans-73" x="242.164062"/>
      <use xlink:href="#DejaVuSans-73" x="294.263672"/>
     </g>
    </g>
   </g>
   <g id="line2d_31">
    <path d="M 73.832727 271.752403 
L 74.918528 270.905051 
L 76.00433 269.24432 
L 77.090131 268.553501 
L 78.175932 269.217365 
L 79.261733 267.758833 
L 81.433335 267.921463 
L 82.519137 266.488136 
L 83.604938 264.481685 
L 84.690739 264.763048 
L 85.77654 264.621161 
L 87.948142 266.039518 
L 89.033943 265.156728 
L 90.119745 266.167727 
L 91.205546 265.785111 
L 92.291347 264.609324 
L 94.462949 264.339362 
L 95.54875 263.044245 
L 96.634552 263.733958 
L 97.720353 264.003885 
L 98.806154 263.814086 
L 99.891955 263.438166 
L 100.977756 263.657246 
L 102.063557 263.384784 
L 103.149358 264.216507 
L 104.23516 264.001464 
L 105.320961 263.25429 
L 106.406762 265.082672 
L 107.492563 265.184566 
L 108.578364 263.425613 
L 109.664165 264.287703 
L 110.749967 263.266347 
L 111.835768 263.543465 
L 112.921569 263.523742 
L 114.00737 263.162542 
L 115.093171 263.312755 
L 116.178972 263.741352 
L 117.264773 265.056711 
L 118.350575 263.993065 
L 119.436376 264.248303 
L 120.522177 264.784069 
L 121.607978 264.01832 
L 122.693779 264.021161 
L 123.77958 262.592752 
L 124.865382 263.400369 
L 125.951183 262.992339 
L 127.036984 263.210703 
L 128.122785 262.994228 
L 129.208586 263.844107 
L 130.294387 263.387583 
L 131.380189 263.921304 
L 132.46599 263.024247 
L 133.551791 262.295162 
L 134.637592 262.496072 
L 135.723393 264.175935 
L 136.809194 263.004554 
L 138.980797 263.576666 
L 140.066598 265.030259 
L 141.152399 264.560663 
L 142.2382 265.387652 
L 143.324001 263.698693 
L 144.409802 264.632174 
L 145.495604 264.206655 
L 147.667206 264.925522 
L 148.753007 266.131473 
L 149.838808 265.522867 
L 150.924609 265.315397 
L 152.01041 265.707439 
L 153.096212 267.333867 
L 154.182013 265.230354 
L 155.267814 266.064832 
L 156.353615 265.93987 
L 157.439416 265.356569 
L 158.525217 265.238249 
L 159.611019 266.045392 
L 160.69682 266.345599 
L 161.782621 266.013277 
L 162.868422 264.989122 
L 163.954223 266.160851 
L 165.040024 266.053709 
L 166.125825 265.827151 
L 167.211627 267.735678 
L 168.297428 266.603774 
L 169.383229 266.968578 
L 170.46903 267.635945 
L 171.554831 265.877865 
L 172.640632 265.565904 
L 173.726434 265.90915 
L 174.812235 265.393873 
L 175.898036 265.530556 
L 176.983837 266.282422 
L 178.069638 267.400977 
L 179.155439 266.531262 
L 180.24124 266.935375 
L 181.327042 265.169124 
L 182.412843 265.385088 
L 183.498644 265.20212 
L 184.584445 266.697811 
L 185.670246 267.021397 
L 186.756047 266.68785 
L 187.841849 267.37305 
L 188.92765 267.608798 
L 190.013451 265.075075 
L 191.099252 265.383734 
L 192.185053 266.502985 
L 193.270854 266.91388 
L 194.356656 268.817363 
L 195.442457 267.764744 
L 196.528258 267.334225 
L 197.614059 267.77233 
L 198.69986 268.391085 
L 200.871462 264.879941 
L 201.957264 266.078307 
L 203.043065 266.352223 
L 204.128866 266.121279 
L 205.214667 266.97361 
L 206.300468 266.793004 
L 207.386269 266.764957 
L 208.472071 266.349987 
L 209.557872 265.489232 
L 210.643673 266.195309 
L 211.729474 267.367406 
L 212.815275 266.224137 
L 213.901076 267.245251 
L 214.986877 267.41399 
L 216.072679 267.864412 
L 217.15848 266.18817 
L 219.330082 267.617344 
L 220.415883 265.397753 
L 221.501684 267.65763 
L 222.587486 267.590498 
L 223.673287 268.114192 
L 224.759088 267.698716 
L 225.844889 267.857981 
L 226.93069 268.34627 
L 228.016491 267.812 
L 229.102292 268.752097 
L 231.273895 267.750208 
L 232.359696 266.847445 
L 233.445497 268.698953 
L 234.531298 266.780854 
L 235.617099 268.775431 
L 236.702901 266.092186 
L 237.788702 267.683279 
L 238.874503 268.698524 
L 239.960304 266.627737 
L 241.046105 268.432088 
L 242.131906 268.840178 
L 243.217708 268.139235 
L 244.303509 266.720049 
L 245.38931 266.82517 
L 246.475111 267.078389 
L 247.560912 266.360666 
L 248.646713 266.462411 
L 249.732514 265.845853 
L 250.818316 266.768603 
L 251.904117 265.731873 
L 252.989918 266.225862 
L 254.075719 265.272259 
L 255.16152 266.902268 
L 256.247321 267.475945 
L 257.333123 265.658119 
L 258.418924 266.459377 
L 259.504725 266.436783 
L 260.590526 266.843922 
L 261.676327 267.73205 
L 262.762128 268.857679 
L 264.933731 265.695617 
L 266.019532 266.353904 
L 267.105333 267.306712 
L 268.191134 267.546085 
L 269.276935 267.084694 
L 271.448538 266.878026 
L 272.534339 268.35962 
L 273.62014 265.698526 
L 275.791742 269.49745 
L 276.877543 267.915837 
L 277.963344 268.248001 
L 279.049146 267.972512 
L 280.134947 267.947712 
L 281.220748 268.404819 
L 282.306549 266.309481 
L 283.39235 268.32577 
L 284.478151 266.839657 
L 285.563953 268.747535 
L 286.649754 268.064633 
L 287.735555 268.679605 
L 288.821356 266.939059 
L 289.907157 268.336235 
L 290.992958 268.479234 
L 292.07876 268.434102 
L 293.164561 267.005524 
L 294.250362 267.705915 
L 295.336163 266.720357 
L 296.421964 267.457153 
L 297.507765 267.453385 
L 298.593566 266.877635 
L 299.679368 267.750089 
L 300.765169 267.583534 
L 302.936771 267.958401 
L 304.022572 267.835037 
L 305.108373 268.399614 
L 306.194175 268.058233 
L 307.279976 267.924711 
L 308.365777 266.690797 
L 310.537379 267.563937 
L 311.62318 265.301381 
L 312.708981 264.850762 
L 313.794783 265.504056 
L 314.880584 265.393396 
L 315.966385 264.899943 
L 317.052186 264.68064 
L 318.137987 264.915311 
L 319.223788 263.573431 
L 320.30959 264.398428 
L 321.395391 264.526315 
L 322.481192 265.198904 
L 323.566993 264.584824 
L 324.652794 264.775053 
L 325.738595 264.499603 
L 326.824396 265.217108 
L 327.910198 265.431227 
L 328.995999 264.250885 
L 330.0818 263.8074 
L 331.167601 264.190476 
L 332.253402 263.522279 
L 333.339203 265.105835 
L 334.425005 265.038521 
L 335.510806 265.28487 
L 336.596607 265.262927 
L 337.682408 265.897059 
L 338.768209 265.091292 
L 339.85401 264.945588 
L 340.939811 265.125671 
L 342.025613 264.89381 
L 343.111414 266.091837 
L 344.197215 265.700222 
L 345.283016 264.81707 
L 346.368817 265.780678 
L 347.454618 266.108325 
L 348.54042 265.716977 
L 349.626221 265.024517 
L 350.712022 265.519302 
L 352.883624 265.977765 
L 353.969425 267.84297 
L 355.055227 265.649478 
L 356.141028 264.892487 
L 357.226829 266.28613 
L 358.31263 265.21907 
L 359.398431 266.966575 
L 360.484232 266.229386 
L 361.570033 266.177852 
L 362.655835 267.122819 
L 363.741636 266.824225 
L 364.827437 265.999296 
L 366.999039 267.311083 
L 369.170642 266.809813 
L 370.256443 269.13927 
L 371.342244 267.411551 
L 372.428045 267.660851 
L 373.513846 266.364604 
L 374.599647 266.331966 
L 375.685448 265.768324 
L 376.77125 266.829569 
L 377.857051 268.39092 
L 378.942852 267.19442 
L 380.028653 267.172489 
L 381.114454 265.219114 
L 382.200255 266.556598 
L 383.286057 265.349083 
L 384.371858 265.225551 
L 385.457659 265.586845 
L 387.629261 266.81811 
L 388.715062 264.590532 
L 389.800863 265.96001 
L 390.886665 265.445864 
L 391.972466 264.459712 
L 393.058267 262.862464 
L 394.144068 264.650686 
L 395.229869 264.387972 
L 396.31567 263.762582 
L 397.401472 263.685956 
L 398.487273 263.164562 
L 398.487273 263.164562 
" clip-path="url(#p356a62698d)" style="fill: none; stroke: #0000ff; stroke-width: 1.5; stroke-linecap: square"/>
   </g>
   <g id="line2d_32">
    <path d="M 73.832727 284.211831 
L 74.918528 283.134348 
L 76.00433 283.01968 
L 77.090131 282.301108 
L 78.175932 283.337948 
L 79.261733 281.775208 
L 80.347534 284.028098 
L 81.433335 286.653241 
L 82.519137 284.530394 
L 83.604938 287.350904 
L 84.690739 287.556193 
L 85.77654 286.897583 
L 86.862341 289.606319 
L 87.948142 289.98465 
L 89.033943 289.379881 
L 90.119745 290.246808 
L 91.205546 289.796866 
L 92.291347 289.564293 
L 93.377148 289.794046 
L 94.462949 290.943823 
L 95.54875 290.032248 
L 96.634552 290.909913 
L 97.720353 291.100848 
L 98.806154 290.61182 
L 100.977756 290.607917 
L 102.063557 290.046922 
L 103.149358 290.325246 
L 104.23516 290.45904 
L 105.320961 289.88695 
L 106.406762 290.958677 
L 108.578364 290.586486 
L 109.664165 290.099228 
L 111.835768 291.035609 
L 112.921569 291.102194 
L 114.00737 290.296264 
L 115.093171 291.381308 
L 116.178972 291.854145 
L 117.264773 291.86829 
L 118.350575 292.020838 
L 119.436376 291.233806 
L 120.522177 292.149339 
L 121.607978 290.479999 
L 122.693779 291.615978 
L 123.77958 289.450633 
L 124.865382 291.99809 
L 125.951183 290.993542 
L 127.036984 291.68567 
L 128.122785 291.5065 
L 129.208586 290.953915 
L 130.294387 292.003938 
L 131.380189 292.016416 
L 132.46599 290.557876 
L 133.551791 290.9711 
L 134.637592 290.774203 
L 135.723393 292.876097 
L 136.809194 293.3716 
L 137.894995 293.302352 
L 138.980797 293.071282 
L 140.066598 293.314088 
L 141.152399 291.817461 
L 142.2382 293.278337 
L 143.324001 290.476399 
L 144.409802 292.87723 
L 145.495604 292.739484 
L 146.581405 293.863481 
L 147.667206 291.877618 
L 148.753007 292.655012 
L 149.838808 292.940133 
L 150.924609 292.19512 
L 152.01041 293.649852 
L 153.096212 294.491582 
L 154.182013 293.217906 
L 156.353615 292.771643 
L 157.439416 292.244589 
L 158.525217 292.794222 
L 159.611019 291.946969 
L 160.69682 291.999666 
L 161.782621 291.343849 
L 162.868422 291.670551 
L 163.954223 291.205196 
L 165.040024 291.755096 
L 166.125825 291.589568 
L 167.211627 292.649501 
L 168.297428 293.935249 
L 169.383229 292.201754 
L 170.46903 292.775968 
L 171.554831 291.913518 
L 172.640632 291.832896 
L 174.812235 292.808013 
L 175.898036 292.037089 
L 176.983837 293.183278 
L 178.069638 292.958603 
L 179.155439 292.916282 
L 180.24124 292.312625 
L 181.327042 290.70262 
L 182.412843 291.588758 
L 183.498644 291.442705 
L 184.584445 292.929124 
L 185.670246 290.76745 
L 186.756047 291.415535 
L 187.841849 292.294388 
L 188.92765 291.32022 
L 190.013451 290.754624 
L 191.099252 291.41824 
L 192.185053 291.330728 
L 193.270854 291.117363 
L 194.356656 291.776247 
L 195.442457 289.411091 
L 196.528258 289.757946 
L 197.614059 291.326224 
L 198.69986 291.626521 
L 199.785661 291.677439 
L 200.871462 290.702887 
L 201.957264 291.039793 
L 203.043065 292.42201 
L 204.128866 292.215612 
L 205.214667 291.520596 
L 206.300468 291.432385 
L 208.472071 290.232714 
L 209.557872 289.862968 
L 210.643673 290.345167 
L 211.729474 292.360087 
L 212.815275 290.624904 
L 213.901076 290.801441 
L 214.986877 292.980287 
L 217.15848 290.465462 
L 218.244281 291.428783 
L 219.330082 290.831073 
L 220.415883 291.2227 
L 221.501684 290.336592 
L 222.587486 291.344774 
L 223.673287 290.715988 
L 224.759088 289.943591 
L 225.844889 291.609097 
L 226.93069 291.802568 
L 228.016491 291.333835 
L 229.102292 292.195789 
L 230.188094 290.65364 
L 231.273895 290.586359 
L 232.359696 291.085876 
L 233.445497 291.239136 
L 234.531298 288.506717 
L 235.617099 290.306137 
L 236.702901 289.95479 
L 237.788702 289.929853 
L 238.874503 291.095875 
L 239.960304 289.874914 
L 241.046105 290.737817 
L 242.131906 289.716913 
L 243.217708 290.31719 
L 244.303509 292.323385 
L 245.38931 291.646852 
L 246.475111 291.6083 
L 248.646713 292.484205 
L 249.732514 293.620067 
L 250.818316 293.465346 
L 251.904117 293.914513 
L 252.989918 293.042825 
L 254.075719 293.113703 
L 255.16152 293.567718 
L 256.247321 294.636224 
L 257.333123 292.600536 
L 258.418924 293.444418 
L 259.504725 291.278029 
L 260.590526 293.792937 
L 261.676327 294.185821 
L 262.762128 293.724563 
L 263.847929 293.634611 
L 264.933731 291.923696 
L 266.019532 292.317145 
L 267.105333 291.719289 
L 268.191134 288.719036 
L 269.276935 289.263862 
L 270.362736 289.267599 
L 271.448538 290.225412 
L 272.534339 290.984647 
L 273.62014 290.449321 
L 274.705941 291.00386 
L 275.791742 292.737897 
L 276.877543 291.146979 
L 277.963344 291.380186 
L 279.049146 292.581426 
L 280.134947 291.505645 
L 281.220748 292.351123 
L 282.306549 291.715413 
L 283.39235 291.622189 
L 284.478151 290.869706 
L 285.563953 290.411818 
L 286.649754 290.141309 
L 287.735555 291.327762 
L 288.821356 290.469416 
L 289.907157 292.194527 
L 293.164561 290.259396 
L 294.250362 290.418313 
L 295.336163 291.145982 
L 296.421964 290.744406 
L 297.507765 291.783115 
L 298.593566 290.708405 
L 299.679368 290.486828 
L 300.765169 289.333891 
L 301.85097 290.119047 
L 302.936771 289.061903 
L 304.022572 290.524297 
L 306.194175 289.422758 
L 307.279976 289.613633 
L 308.365777 288.998492 
L 309.451578 290.118982 
L 310.537379 289.185658 
L 311.62318 289.280833 
L 312.708981 289.239757 
L 313.794783 289.952166 
L 314.880584 290.268114 
L 315.966385 291.482133 
L 317.052186 291.282558 
L 318.137987 293.036974 
L 319.223788 292.72176 
L 320.30959 291.379458 
L 322.481192 290.724385 
L 323.566993 292.183771 
L 324.652794 291.136316 
L 325.738595 292.559074 
L 326.824396 291.184712 
L 327.910198 290.919748 
L 328.995999 290.91971 
L 330.0818 291.944736 
L 331.167601 293.774854 
L 332.253402 293.667108 
L 333.339203 294.440491 
L 335.510806 291.829976 
L 336.596607 291.005359 
L 337.682408 292.300704 
L 338.768209 291.233739 
L 339.85401 291.033731 
L 340.939811 291.283327 
L 342.025613 290.87458 
L 343.111414 292.373329 
L 344.197215 292.920023 
L 345.283016 292.090923 
L 346.368817 291.489793 
L 347.454618 291.453704 
L 348.54042 291.827333 
L 349.626221 291.799696 
L 350.712022 292.030908 
L 351.797823 291.713615 
L 353.969425 292.011181 
L 355.055227 291.615482 
L 356.141028 293.759658 
L 357.226829 293.794207 
L 358.31263 291.963444 
L 359.398431 292.191244 
L 360.484232 289.914644 
L 361.570033 290.791868 
L 362.655835 292.102428 
L 363.741636 290.76334 
L 364.827437 289.653442 
L 365.913238 290.431339 
L 366.999039 290.183641 
L 368.08484 289.183003 
L 369.170642 289.436036 
L 370.256443 291.15672 
L 372.428045 290.806726 
L 373.513846 288.984311 
L 374.599647 291.417662 
L 375.685448 289.440398 
L 376.77125 291.760794 
L 377.857051 291.083179 
L 378.942852 293.142585 
L 380.028653 291.883228 
L 381.114454 290.434741 
L 382.200255 292.13053 
L 383.286057 292.096047 
L 384.371858 291.123853 
L 386.54346 291.227424 
L 387.629261 289.257581 
L 388.715062 287.782154 
L 389.800863 289.625296 
L 390.886665 290.083093 
L 391.972466 291.934677 
L 393.058267 292.476129 
L 394.144068 293.534089 
L 395.229869 293.878078 
L 396.31567 295.429492 
L 397.401472 295.488 
L 398.487273 294.027903 
L 398.487273 294.027903 
" clip-path="url(#p356a62698d)" style="fill: none; stroke-dasharray: 9.6,2.4,1.5,2.4; stroke-dashoffset: 0; stroke: #008000; stroke-width: 1.5"/>
   </g>
   <g id="line2d_33">
    <path d="M 73.832727 259.292975 
L 74.918528 258.675754 
L 76.00433 255.468961 
L 77.090131 254.805895 
L 78.175932 255.096781 
L 79.261733 253.742457 
L 80.347534 251.635541 
L 81.433335 249.189685 
L 82.519137 248.445877 
L 83.604938 241.612465 
L 85.77654 242.344739 
L 86.862341 241.058529 
L 87.948142 242.094386 
L 89.033943 240.933575 
L 90.119745 242.088645 
L 91.205546 241.773355 
L 92.291347 239.654355 
L 93.377148 239.146693 
L 94.462949 237.734901 
L 95.54875 236.056243 
L 96.634552 236.558003 
L 97.720353 236.906921 
L 98.806154 237.016351 
L 99.891955 236.241121 
L 100.977756 236.706575 
L 102.063557 236.722645 
L 103.149358 238.107769 
L 104.23516 237.543888 
L 105.320961 236.62163 
L 106.406762 239.206666 
L 107.492563 239.552266 
L 108.578364 236.264739 
L 109.664165 238.476178 
L 110.749967 235.920053 
L 111.835768 236.051321 
L 112.921569 235.945291 
L 114.00737 236.02882 
L 115.093171 235.244202 
L 116.178972 235.62856 
L 117.264773 238.245132 
L 118.350575 235.965293 
L 119.436376 237.262801 
L 121.607978 237.556641 
L 122.693779 236.426345 
L 123.77958 235.734871 
L 124.865382 234.802649 
L 125.951183 234.991136 
L 128.122785 234.481957 
L 129.208586 236.734299 
L 130.294387 234.771229 
L 131.380189 235.826192 
L 132.46599 235.490619 
L 133.551791 233.619224 
L 134.637592 234.21794 
L 135.723393 235.475774 
L 136.809194 232.637507 
L 138.980797 234.08205 
L 140.066598 236.746429 
L 141.152399 237.303864 
L 142.2382 237.496967 
L 146.581405 235.258512 
L 147.667206 237.973425 
L 148.753007 239.607934 
L 149.838808 238.1056 
L 150.924609 238.435674 
L 152.01041 237.765026 
L 153.096212 240.176151 
L 154.182013 237.242801 
L 155.267814 239.130291 
L 156.353615 239.108096 
L 157.439416 238.468548 
L 158.525217 237.682276 
L 159.611019 240.143816 
L 160.69682 240.691533 
L 161.782621 240.682706 
L 162.868422 238.307692 
L 163.954223 241.116506 
L 165.040024 240.352322 
L 166.125825 240.064734 
L 167.211627 242.821856 
L 168.297428 239.272299 
L 169.383229 241.735402 
L 170.46903 242.495923 
L 171.554831 239.842211 
L 172.640632 239.298912 
L 173.726434 239.548238 
L 174.812235 237.979733 
L 175.898036 239.024023 
L 176.983837 239.381567 
L 178.069638 241.843351 
L 179.155439 240.146242 
L 180.24124 241.558125 
L 181.327042 239.635627 
L 182.412843 239.181418 
L 183.498644 238.961535 
L 184.584445 240.466498 
L 185.670246 243.275344 
L 186.756047 241.960165 
L 187.841849 242.451712 
L 188.92765 243.897376 
L 190.013451 239.395526 
L 191.099252 239.349227 
L 192.185053 241.675242 
L 193.270854 242.710397 
L 194.356656 245.858479 
L 195.442457 246.118396 
L 196.528258 244.910504 
L 197.614059 244.218437 
L 198.69986 245.155649 
L 199.785661 241.702656 
L 200.871462 239.056994 
L 201.957264 241.116821 
L 203.043065 240.282435 
L 204.128866 240.026946 
L 205.214667 242.426624 
L 206.300468 242.153623 
L 207.386269 242.716802 
L 208.472071 242.46726 
L 209.557872 241.115496 
L 210.643673 242.04545 
L 211.729474 242.374725 
L 212.815275 241.82337 
L 213.901076 243.689061 
L 214.986877 241.847694 
L 216.072679 244.052631 
L 217.15848 241.910877 
L 218.244281 242.274387 
L 219.330082 244.403614 
L 220.415883 239.572806 
L 221.501684 244.978667 
L 222.587486 243.836223 
L 223.673287 245.512397 
L 224.759088 245.453842 
L 225.844889 244.106864 
L 226.93069 244.889972 
L 228.016491 244.290166 
L 229.102292 245.308405 
L 230.188094 245.742154 
L 231.273895 244.914058 
L 232.359696 242.609014 
L 233.445497 246.158769 
L 234.531298 245.05499 
L 235.617099 247.244724 
L 236.702901 242.229582 
L 237.788702 245.436705 
L 238.874503 246.301173 
L 239.960304 243.38056 
L 241.046105 246.12636 
L 242.131906 247.963444 
L 243.217708 245.961281 
L 244.303509 241.116713 
L 245.38931 242.003488 
L 246.475111 242.548477 
L 247.560912 240.664358 
L 248.646713 240.440618 
L 249.732514 238.07164 
L 250.818316 240.071859 
L 251.904117 237.549233 
L 252.989918 239.408899 
L 254.075719 237.430815 
L 255.16152 240.236817 
L 256.247321 240.315666 
L 257.333123 238.715702 
L 258.418924 239.474336 
L 259.504725 241.595537 
L 260.590526 239.894908 
L 261.676327 241.278278 
L 262.762128 243.990795 
L 263.847929 241.029715 
L 264.933731 239.467538 
L 266.019532 240.390662 
L 267.105333 242.894134 
L 268.191134 246.373135 
L 269.276935 244.905526 
L 270.362736 244.728329 
L 271.448538 243.530639 
L 272.534339 245.734594 
L 273.62014 240.947731 
L 274.705941 244.005257 
L 275.791742 246.257004 
L 276.877543 244.684694 
L 277.963344 245.115816 
L 279.049146 243.363599 
L 280.134947 244.389778 
L 281.220748 244.458515 
L 282.306549 240.903549 
L 283.39235 245.029351 
L 284.478151 242.809609 
L 285.563953 247.083252 
L 286.649754 245.987956 
L 287.735555 246.031448 
L 288.821356 243.408702 
L 290.992958 245.420234 
L 292.07876 246.108371 
L 293.164561 243.751652 
L 294.250362 244.993516 
L 295.336163 242.294733 
L 296.421964 244.1699 
L 297.507765 243.123654 
L 298.593566 243.046865 
L 299.679368 245.013349 
L 300.765169 245.833178 
L 301.85097 245.460592 
L 302.936771 246.854899 
L 304.022572 245.145777 
L 305.108373 246.870784 
L 306.194175 246.693707 
L 307.279976 246.235789 
L 308.365777 244.383103 
L 309.451578 244.233759 
L 310.537379 245.942215 
L 311.62318 241.321929 
L 312.708981 240.461768 
L 313.794783 241.055945 
L 314.880584 240.518678 
L 315.966385 238.317753 
L 317.052186 238.078721 
L 318.137987 236.793648 
L 319.223788 234.425102 
L 320.30959 237.417399 
L 321.395391 237.947816 
L 322.481192 239.673423 
L 323.566993 236.985876 
L 324.652794 238.41379 
L 325.738595 236.440131 
L 326.824396 239.249504 
L 327.910198 239.942706 
L 328.995999 237.582061 
L 330.0818 235.670064 
L 331.167601 234.606097 
L 332.253402 233.377449 
L 333.339203 235.77118 
L 334.425005 236.947711 
L 335.510806 238.739764 
L 336.596607 239.520494 
L 337.682408 239.493415 
L 338.768209 238.948844 
L 339.85401 238.857446 
L 340.939811 238.968014 
L 342.025613 238.91304 
L 343.111414 239.810346 
L 344.197215 238.480421 
L 345.283016 237.543216 
L 346.368817 240.071564 
L 347.454618 240.762945 
L 348.54042 239.606622 
L 349.626221 238.249338 
L 351.797823 239.728124 
L 352.883624 240.133359 
L 353.969425 243.674759 
L 356.141028 236.025317 
L 357.226829 238.778054 
L 358.31263 238.474697 
L 359.398431 241.741905 
L 360.484232 242.544128 
L 361.570033 241.563835 
L 362.655835 242.143209 
L 363.741636 242.885111 
L 364.827437 242.34515 
L 365.913238 242.824812 
L 366.999039 244.438524 
L 368.08484 244.826475 
L 369.170642 244.183589 
L 370.256443 247.121819 
L 371.342244 243.878678 
L 372.428045 244.514975 
L 373.513846 243.744898 
L 374.599647 241.246269 
L 375.685448 242.096249 
L 376.77125 241.898345 
L 377.857051 245.69866 
L 378.942852 241.246255 
L 380.028653 242.46175 
L 381.114454 240.003488 
L 382.200255 240.982665 
L 383.286057 238.60212 
L 385.457659 239.996987 
L 386.54346 241.240348 
L 387.629261 244.37864 
L 388.715062 241.398911 
L 389.800863 242.294723 
L 390.886665 240.808634 
L 393.058267 233.2488 
L 394.144068 235.767283 
L 395.229869 234.897866 
L 396.31567 232.095672 
L 397.401472 231.883912 
L 398.487273 232.30122 
L 398.487273 232.30122 
" clip-path="url(#p356a62698d)" style="fill: none; stroke-dasharray: 9.6,2.4,1.5,2.4; stroke-dashoffset: 0; stroke: #008000; stroke-width: 1.5"/>
   </g>
   <g id="line2d_34">
    <path d="M 73.832727 231.256625 
L 76.00433 231.256625 
L 77.090131 230.798775 
L 78.175932 187.27131 
L 79.261733 187.27131 
L 80.347534 145.190809 
L 81.433335 138.769565 
L 82.519137 138.769565 
L 83.604938 61.298472 
L 243.217708 61.298472 
L 244.303509 58.95247 
L 355.055227 58.95247 
L 356.141028 53.568 
L 398.487273 53.568 
L 398.487273 53.568 
" clip-path="url(#p356a62698d)" style="fill: none; stroke: #ff0000; stroke-width: 1.5; stroke-linecap: square"/>
   </g>
   <g id="patch_3">
    <path d="M 57.6 307.584 
L 57.6 41.472 
" style="fill: none; stroke: #000000; stroke-width: 0.8; stroke-linejoin: miter; stroke-linecap: square"/>
   </g>
   <g id="patch_4">
    <path d="M 414.72 307.584 
L 414.72 41.472 
" style="fill: none; stroke: #000000; stroke-width: 0.8; stroke-linejoin: miter; stroke-linecap: square"/>
   </g>
   <g id="patch_5">
    <path d="M 57.6 307.584 
L 414.72 307.584 
" style="fill: none; stroke: #000000; stroke-width: 0.8; stroke-linejoin: miter; stroke-linecap: square"/>
   </g>
   <g id="patch_6">
    <path d="M 57.6 41.472 
L 414.72 41.472 
" style="fill: none; stroke: #000000; stroke-width: 0.8; stroke-linejoin: miter; stroke-linecap: square"/>
   </g>
   <g id="text_18">
    <!-- Population's average and best fitness -->
    <g transform="translate(123.529687 35.472) scale(0.12 -0.12)">
     <defs>
      <path id="DejaVuSans-50" d="M 1259 4147 
L 1259 2394 
L 2053 2394 
Q 2494 2394 2734 2622 
Q 2975 2850 2975 3272 
Q 2975 3691 2734 3919 
Q 2494 4147 2053 4147 
L 1259 4147 
z
M 628 4666 
L 2053 4666 
Q 2838 4666 3239 4311 
Q 3641 3956 3641 3272 
Q 3641 2581 3239 2228 
Q 2838 1875 2053 1875 
L 1259 1875 
L 1259 0 
L 628 0 
L 628 4666 
z
" transform="scale(0.015625)"/>
      <path id="DejaVuSans-70" d="M 1159 525 
L 1159 -1331 
L 581 -1331 
L 581 3500 
L 1159 3500 
L 1159 2969 
Q 1341 3281 1617 3432 
Q 1894 3584 2278 3584 
Q 2916 3584 3314 3078 
Q 3713 2572 3713 1747 
Q 3713 922 3314 415 
Q 2916 -91 2278 -91 
Q 1894 -91 1617 61 
Q 1341 213 1159 525 
z
M 3116 1747 
Q 3116 2381 2855 2742 
Q 2594 3103 2138 3103 
Q 1681 3103 1420 2742 
Q 1159 2381 1159 1747 
Q 1159 1113 1420 752 
Q 1681 391 2138 391 
Q 2594 391 2855 752 
Q 3116 1113 3116 1747 
z
" transform="scale(0.015625)"/>
      <path id="DejaVuSans-75" d="M 544 1381 
L 544 3500 
L 1119 3500 
L 1119 1403 
Q 1119 906 1312 657 
Q 1506 409 1894 409 
Q 2359 409 2629 706 
Q 2900 1003 2900 1516 
L 2900 3500 
L 3475 3500 
L 3475 0 
L 2900 0 
L 2900 538 
Q 2691 219 2414 64 
Q 2138 -91 1772 -91 
Q 1169 -91 856 284 
Q 544 659 544 1381 
z
M 1991 3584 
L 1991 3584 
z
" transform="scale(0.015625)"/>
      <path id="DejaVuSans-6c" d="M 603 4863 
L 1178 4863 
L 1178 0 
L 603 0 
L 603 4863 
z
" transform="scale(0.015625)"/>
      <path id="DejaVuSans-27" d="M 1147 4666 
L 1147 2931 
L 616 2931 
L 616 4666 
L 1147 4666 
z
" transform="scale(0.015625)"/>
      <path id="DejaVuSans-20" transform="scale(0.015625)"/>
      <path id="DejaVuSans-76" d="M 191 3500 
L 800 3500 
L 1894 563 
L 2988 3500 
L 3597 3500 
L 2284 0 
L 1503 0 
L 191 3500 
z
" transform="scale(0.015625)"/>
      <path id="DejaVuSans-67" d="M 2906 1791 
Q 2906 2416 2648 2759 
Q 2391 3103 1925 3103 
Q 1463 3103 1205 2759 
Q 947 2416 947 1791 
Q 947 1169 1205 825 
Q 1463 481 1925 481 
Q 2391 481 2648 825 
Q 2906 1169 2906 1791 
z
M 3481 434 
Q 3481 -459 3084 -895 
Q 2688 -1331 1869 -1331 
Q 1566 -1331 1297 -1286 
Q 1028 -1241 775 -1147 
L 775 -588 
Q 1028 -725 1275 -790 
Q 1522 -856 1778 -856 
Q 2344 -856 2625 -561 
Q 2906 -266 2906 331 
L 2906 616 
Q 2728 306 2450 153 
Q 2172 0 1784 0 
Q 1141 0 747 490 
Q 353 981 353 1791 
Q 353 2603 747 3093 
Q 1141 3584 1784 3584 
Q 2172 3584 2450 3431 
Q 2728 3278 2906 2969 
L 2906 3500 
L 3481 3500 
L 3481 434 
z
" transform="scale(0.015625)"/>
      <path id="DejaVuSans-64" d="M 2906 2969 
L 2906 4863 
L 3481 4863 
L 3481 0 
L 2906 0 
L 2906 525 
Q 2725 213 2448 61 
Q 2172 -91 1784 -91 
Q 1150 -91 751 415 
Q 353 922 353 1747 
Q 353 2572 751 3078 
Q 1150 3584 1784 3584 
Q 2172 3584 2448 3432 
Q 2725 3281 2906 2969 
z
M 947 1747 
Q 947 1113 1208 752 
Q 1469 391 1925 391 
Q 2381 391 2643 752 
Q 2906 1113 2906 1747 
Q 2906 2381 2643 2742 
Q 2381 3103 1925 3103 
Q 1469 3103 1208 2742 
Q 947 2381 947 1747 
z
" transform="scale(0.015625)"/>
      <path id="DejaVuSans-62" d="M 3116 1747 
Q 3116 2381 2855 2742 
Q 2594 3103 2138 3103 
Q 1681 3103 1420 2742 
Q 1159 2381 1159 1747 
Q 1159 1113 1420 752 
Q 1681 391 2138 391 
Q 2594 391 2855 752 
Q 3116 1113 3116 1747 
z
M 1159 2969 
Q 1341 3281 1617 3432 
Q 1894 3584 2278 3584 
Q 2916 3584 3314 3078 
Q 3713 2572 3713 1747 
Q 3713 922 3314 415 
Q 2916 -91 2278 -91 
Q 1894 -91 1617 61 
Q 1341 213 1159 525 
L 1159 0 
L 581 0 
L 581 4863 
L 1159 4863 
L 1159 2969 
z
" transform="scale(0.015625)"/>
      <path id="DejaVuSans-66" d="M 2375 4863 
L 2375 4384 
L 1825 4384 
Q 1516 4384 1395 4259 
Q 1275 4134 1275 3809 
L 1275 3500 
L 2222 3500 
L 2222 3053 
L 1275 3053 
L 1275 0 
L 697 0 
L 697 3053 
L 147 3053 
L 147 3500 
L 697 3500 
L 697 3744 
Q 697 4328 969 4595 
Q 1241 4863 1831 4863 
L 2375 4863 
z
" transform="scale(0.015625)"/>
     </defs>
     <use xlink:href="#DejaVuSans-50"/>
     <use xlink:href="#DejaVuSans-6f" x="56.677734"/>
     <use xlink:href="#DejaVuSans-70" x="117.859375"/>
     <use xlink:href="#DejaVuSans-75" x="181.335938"/>
     <use xlink:href="#DejaVuSans-6c" x="244.714844"/>
     <use xlink:href="#DejaVuSans-61" x="272.498047"/>
     <use xlink:href="#DejaVuSans-74" x="333.777344"/>
     <use xlink:href="#DejaVuSans-69" x="372.986328"/>
     <use xlink:href="#DejaVuSans-6f" x="400.769531"/>
     <use xlink:href="#DejaVuSans-6e" x="461.951172"/>
     <use xlink:href="#DejaVuSans-27" x="525.330078"/>
     <use xlink:href="#DejaVuSans-73" x="552.820312"/>
     <use xlink:href="#DejaVuSans-20" x="604.919922"/>
     <use xlink:href="#DejaVuSans-61" x="636.707031"/>
     <use xlink:href="#DejaVuSans-76" x="697.986328"/>
     <use xlink:href="#DejaVuSans-65" x="757.166016"/>
     <use xlink:href="#DejaVuSans-72" x="818.689453"/>
     <use xlink:href="#DejaVuSans-61" x="859.802734"/>
     <use xlink:href="#DejaVuSans-67" x="921.082031"/>
     <use xlink:href="#DejaVuSans-65" x="984.558594"/>
     <use xlink:href="#DejaVuSans-20" x="1046.082031"/>
     <use xlink:href="#DejaVuSans-61" x="1077.869141"/>
     <use xlink:href="#DejaVuSans-6e" x="1139.148438"/>
     <use xlink:href="#DejaVuSans-64" x="1202.527344"/>
     <use xlink:href="#DejaVuSans-20" x="1266.003906"/>
     <use xlink:href="#DejaVuSans-62" x="1297.791016"/>
     <use xlink:href="#DejaVuSans-65" x="1361.267578"/>
     <use xlink:href="#DejaVuSans-73" x="1422.791016"/>
     <use xlink:href="#DejaVuSans-74" x="1474.890625"/>
     <use xlink:href="#DejaVuSans-20" x="1514.099609"/>
     <use xlink:href="#DejaVuSans-66" x="1545.886719"/>
     <use xlink:href="#DejaVuSans-69" x="1581.091797"/>
     <use xlink:href="#DejaVuSans-74" x="1608.875"/>
     <use xlink:href="#DejaVuSans-6e" x="1648.083984"/>
     <use xlink:href="#DejaVuSans-65" x="1711.462891"/>
     <use xlink:href="#DejaVuSans-73" x="1772.986328"/>
     <use xlink:href="#DejaVuSans-73" x="1825.085938"/>
    </g>
   </g>
   <g id="legend_1">
    <g id="patch_7">
     <path d="M 334.779375 205.38425 
L 407.72 205.38425 
Q 409.72 205.38425 409.72 203.38425 
L 409.72 145.67175 
Q 409.72 143.67175 407.72 143.67175 
L 334.779375 143.67175 
Q 332.779375 143.67175 332.779375 145.67175 
L 332.779375 203.38425 
Q 332.779375 205.38425 334.779375 205.38425 
z
" style="fill: #ffffff; opacity: 0.8; stroke: #cccccc; stroke-linejoin: miter"/>
    </g>
    <g id="line2d_35">
     <path d="M 336.779375 151.770188 
L 346.779375 151.770188 
L 356.779375 151.770188 
" style="fill: none; stroke: #0000ff; stroke-width: 1.5; stroke-linecap: square"/>
    </g>
    <g id="text_19">
     <!-- average -->
     <g transform="translate(364.779375 155.270188) scale(0.1 -0.1)">
      <use xlink:href="#DejaVuSans-61"/>
      <use xlink:href="#DejaVuSans-76" x="61.279297"/>
      <use xlink:href="#DejaVuSans-65" x="120.458984"/>
      <use xlink:href="#DejaVuSans-72" x="181.982422"/>
      <use xlink:href="#DejaVuSans-61" x="223.095703"/>
      <use xlink:href="#DejaVuSans-67" x="284.375"/>
      <use xlink:href="#DejaVuSans-65" x="347.851562"/>
     </g>
    </g>
    <g id="line2d_36">
     <path d="M 336.779375 166.448313 
L 346.779375 166.448313 
L 356.779375 166.448313 
" style="fill: none; stroke-dasharray: 9.6,2.4,1.5,2.4; stroke-dashoffset: 0; stroke: #008000; stroke-width: 1.5"/>
    </g>
    <g id="text_20">
     <!-- -1 sd -->
     <g transform="translate(364.779375 169.948313) scale(0.1 -0.1)">
      <defs>
       <path id="DejaVuSans-2d" d="M 313 2009 
L 1997 2009 
L 1997 1497 
L 313 1497 
L 313 2009 
z
" transform="scale(0.015625)"/>
      </defs>
      <use xlink:href="#DejaVuSans-2d"/>
      <use xlink:href="#DejaVuSans-31" x="36.083984"/>
      <use xlink:href="#DejaVuSans-20" x="99.707031"/>
      <use xlink:href="#DejaVuSans-73" x="131.494141"/>
      <use xlink:href="#DejaVuSans-64" x="183.59375"/>
     </g>
    </g>
    <g id="line2d_37">
     <path d="M 336.779375 181.126438 
L 346.779375 181.126438 
L 356.779375 181.126438 
" style="fill: none; stroke-dasharray: 9.6,2.4,1.5,2.4; stroke-dashoffset: 0; stroke: #008000; stroke-width: 1.5"/>
    </g>
    <g id="text_21">
     <!-- +1 sd -->
     <g transform="translate(364.779375 184.626438) scale(0.1 -0.1)">
      <defs>
       <path id="DejaVuSans-2b" d="M 2944 4013 
L 2944 2272 
L 4684 2272 
L 4684 1741 
L 2944 1741 
L 2944 0 
L 2419 0 
L 2419 1741 
L 678 1741 
L 678 2272 
L 2419 2272 
L 2419 4013 
L 2944 4013 
z
" transform="scale(0.015625)"/>
      </defs>
      <use xlink:href="#DejaVuSans-2b"/>
      <use xlink:href="#DejaVuSans-31" x="83.789062"/>
      <use xlink:href="#DejaVuSans-20" x="147.412109"/>
      <use xlink:href="#DejaVuSans-73" x="179.199219"/>
      <use xlink:href="#DejaVuSans-64" x="231.298828"/>
     </g>
    </g>
    <g id="line2d_38">
     <path d="M 336.779375 195.804563 
L 346.779375 195.804563 
L 356.779375 195.804563 
" style="fill: none; stroke: #ff0000; stroke-width: 1.5; stroke-linecap: square"/>
    </g>
    <g id="text_22">
     <!-- best -->
     <g transform="translate(364.779375 199.304563) scale(0.1 -0.1)">
      <use xlink:href="#DejaVuSans-62"/>
      <use xlink:href="#DejaVuSans-65" x="63.476562"/>
      <use xlink:href="#DejaVuSans-73" x="125"/>
      <use xlink:href="#DejaVuSans-74" x="177.099609"/>
     </g>
    </g>
   </g>
  </g>
 </g>
 <defs>
  <clipPath id="p356a62698d">
   <rect x="57.6" y="41.472" width="357.12" height="266.112"/>
  </clipPath>
 </defs>
</svg>
