<?xml version="1.0" encoding="utf-8" standalone="no"?>
<!DOCTYPE svg PUBLIC "-//W3C//DTD SVG 1.1//EN"
  "http://www.w3.org/Graphics/SVG/1.1/DTD/svg11.dtd">
<svg xmlns:xlink="http://www.w3.org/1999/xlink" width="460.8pt" height="345.6pt" viewBox="0 0 460.8 345.6" xmlns="http://www.w3.org/2000/svg" version="1.1">
 <metadata>
  <rdf:RDF xmlns:dc="http://purl.org/dc/elements/1.1/" xmlns:cc="http://creativecommons.org/ns#" xmlns:rdf="http://www.w3.org/1999/02/22-rdf-syntax-ns#">
   <cc:Work>
    <dc:type rdf:resource="http://purl.org/dc/dcmitype/StillImage"/>
    <dc:date>2024-07-20T01:57:54.556063</dc:date>
    <dc:format>image/svg+xml</dc:format>
    <dc:creator>
     <cc:Agent>
      <dc:title>Matplotlib v3.9.1, https://matplotlib.org/</dc:title>
     </cc:Agent>
    </dc:creator>
   </cc:Work>
  </rdf:RDF>
 </metadata>
 <defs>
  <style type="text/css">*{stroke-linejoin: round; stroke-linecap: butt}</style>
 </defs>
 <g id="figure_1">
  <g id="patch_1">
   <path d="M 0 345.6 
L 460.8 345.6 
L 460.8 0 
L 0 0 
z
" style="fill: #ffffff"/>
  </g>
  <g id="axes_1">
   <g id="patch_2">
    <path d="M 57.6 307.584 
L 414.72 307.584 
L 414.72 41.472 
L 57.6 41.472 
z
" style="fill: #ffffff"/>
   </g>
   <g id="matplotlib.axis_1">
    <g id="xtick_1">
     <g id="line2d_1">
      <path d="M 73.832727 307.584 
L 73.832727 41.472 
" clip-path="url(#pdeaf2841a8)" style="fill: none; stroke: #b0b0b0; stroke-width: 0.8; stroke-linecap: square"/>
     </g>
     <g id="line2d_2">
      <defs>
       <path id="m6d59d095c5" d="M 0 0 
L 0 3.5 
" style="stroke: #000000; stroke-width: 0.8"/>
      </defs>
      <g>
       <use xlink:href="#m6d59d095c5" x="73.832727" y="307.584" style="stroke: #000000; stroke-width: 0.8"/>
      </g>
     </g>
     <g id="text_1">
      <!-- 0 -->
      <g transform="translate(70.651477 322.182437) scale(0.1 -0.1)">
       <defs>
        <path id="DejaVuSans-30" d="M 2034 4250 
Q 1547 4250 1301 3770 
Q 1056 3291 1056 2328 
Q 1056 1369 1301 889 
Q 1547 409 2034 409 
Q 2525 409 2770 889 
Q 3016 1369 3016 2328 
Q 3016 3291 2770 3770 
Q 2525 4250 2034 4250 
z
M 2034 4750 
Q 2819 4750 3233 4129 
Q 3647 3509 3647 2328 
Q 3647 1150 3233 529 
Q 2819 -91 2034 -91 
Q 1250 -91 836 529 
Q 422 1150 422 2328 
Q 422 3509 836 4129 
Q 1250 4750 2034 4750 
z
" transform="scale(0.015625)"/>
       </defs>
       <use xlink:href="#DejaVuSans-30"/>
      </g>
     </g>
    </g>
    <g id="xtick_2">
     <g id="line2d_3">
      <path d="M 128.122785 307.584 
L 128.122785 41.472 
" clip-path="url(#pdeaf2841a8)" style="fill: none; stroke: #b0b0b0; stroke-width: 0.8; stroke-linecap: square"/>
     </g>
     <g id="line2d_4">
      <g>
       <use xlink:href="#m6d59d095c5" x="128.122785" y="307.584" style="stroke: #000000; stroke-width: 0.8"/>
      </g>
     </g>
     <g id="text_2">
      <!-- 50 -->
      <g transform="translate(121.760285 322.182437) scale(0.1 -0.1)">
       <defs>
        <path id="DejaVuSans-35" d="M 691 4666 
L 3169 4666 
L 3169 4134 
L 1269 4134 
L 1269 2991 
Q 1406 3038 1543 3061 
Q 1681 3084 1819 3084 
Q 2600 3084 3056 2656 
Q 3513 2228 3513 1497 
Q 3513 744 3044 326 
Q 2575 -91 1722 -91 
Q 1428 -91 1123 -41 
Q 819 9 494 109 
L 494 744 
Q 775 591 1075 516 
Q 1375 441 1709 441 
Q 2250 441 2565 725 
Q 2881 1009 2881 1497 
Q 2881 1984 2565 2268 
Q 2250 2553 1709 2553 
Q 1456 2553 1204 2497 
Q 953 2441 691 2322 
L 691 4666 
z
" transform="scale(0.015625)"/>
       </defs>
       <use xlink:href="#DejaVuSans-35"/>
       <use xlink:href="#DejaVuSans-30" x="63.623047"/>
      </g>
     </g>
    </g>
    <g id="xtick_3">
     <g id="line2d_5">
      <path d="M 182.412843 307.584 
L 182.412843 41.472 
" clip-path="url(#pdeaf2841a8)" style="fill: none; stroke: #b0b0b0; stroke-width: 0.8; stroke-linecap: square"/>
     </g>
     <g id="line2d_6">
      <g>
       <use xlink:href="#m6d59d095c5" x="182.412843" y="307.584" style="stroke: #000000; stroke-width: 0.8"/>
      </g>
     </g>
     <g id="text_3">
      <!-- 100 -->
      <g transform="translate(172.869093 322.182437) scale(0.1 -0.1)">
       <defs>
        <path id="DejaVuSans-31" d="M 794 531 
L 1825 531 
L 1825 4091 
L 703 3866 
L 703 4441 
L 1819 4666 
L 2450 4666 
L 2450 531 
L 3481 531 
L 3481 0 
L 794 0 
L 794 531 
z
" transform="scale(0.015625)"/>
       </defs>
       <use xlink:href="#DejaVuSans-31"/>
       <use xlink:href="#DejaVuSans-30" x="63.623047"/>
       <use xlink:href="#DejaVuSans-30" x="127.246094"/>
      </g>
     </g>
    </g>
    <g id="xtick_4">
     <g id="line2d_7">
      <path d="M 236.702901 307.584 
L 236.702901 41.472 
" clip-path="url(#pdeaf2841a8)" style="fill: none; stroke: #b0b0b0; stroke-width: 0.8; stroke-linecap: square"/>
     </g>
     <g id="line2d_8">
      <g>
       <use xlink:href="#m6d59d095c5" x="236.702901" y="307.584" style="stroke: #000000; stroke-width: 0.8"/>
      </g>
     </g>
     <g id="text_4">
      <!-- 150 -->
      <g transform="translate(227.159151 322.182437) scale(0.1 -0.1)">
       <use xlink:href="#DejaVuSans-31"/>
       <use xlink:href="#DejaVuSans-35" x="63.623047"/>
       <use xlink:href="#DejaVuSans-30" x="127.246094"/>
      </g>
     </g>
    </g>
    <g id="xtick_5">
     <g id="line2d_9">
      <path d="M 290.992958 307.584 
L 290.992958 41.472 
" clip-path="url(#pdeaf2841a8)" style="fill: none; stroke: #b0b0b0; stroke-width: 0.8; stroke-linecap: square"/>
     </g>
     <g id="line2d_10">
      <g>
       <use xlink:href="#m6d59d095c5" x="290.992958" y="307.584" style="stroke: #000000; stroke-width: 0.8"/>
      </g>
     </g>
     <g id="text_5">
      <!-- 200 -->
      <g transform="translate(281.449208 322.182437) scale(0.1 -0.1)">
       <defs>
        <path id="DejaVuSans-32" d="M 1228 531 
L 3431 531 
L 3431 0 
L 469 0 
L 469 531 
Q 828 903 1448 1529 
Q 2069 2156 2228 2338 
Q 2531 2678 2651 2914 
Q 2772 3150 2772 3378 
Q 2772 3750 2511 3984 
Q 2250 4219 1831 4219 
Q 1534 4219 1204 4116 
Q 875 4013 500 3803 
L 500 4441 
Q 881 4594 1212 4672 
Q 1544 4750 1819 4750 
Q 2544 4750 2975 4387 
Q 3406 4025 3406 3419 
Q 3406 3131 3298 2873 
Q 3191 2616 2906 2266 
Q 2828 2175 2409 1742 
Q 1991 1309 1228 531 
z
" transform="scale(0.015625)"/>
       </defs>
       <use xlink:href="#DejaVuSans-32"/>
       <use xlink:href="#DejaVuSans-30" x="63.623047"/>
       <use xlink:href="#DejaVuSans-30" x="127.246094"/>
      </g>
     </g>
    </g>
    <g id="xtick_6">
     <g id="line2d_11">
      <path d="M 345.283016 307.584 
L 345.283016 41.472 
" clip-path="url(#pdeaf2841a8)" style="fill: none; stroke: #b0b0b0; stroke-width: 0.8; stroke-linecap: square"/>
     </g>
     <g id="line2d_12">
      <g>
       <use xlink:href="#m6d59d095c5" x="345.283016" y="307.584" style="stroke: #000000; stroke-width: 0.8"/>
      </g>
     </g>
     <g id="text_6">
      <!-- 250 -->
      <g transform="translate(335.739266 322.182437) scale(0.1 -0.1)">
       <use xlink:href="#DejaVuSans-32"/>
       <use xlink:href="#DejaVuSans-35" x="63.623047"/>
       <use xlink:href="#DejaVuSans-30" x="127.246094"/>
      </g>
     </g>
    </g>
    <g id="xtick_7">
     <g id="line2d_13">
      <path d="M 399.573074 307.584 
L 399.573074 41.472 
" clip-path="url(#pdeaf2841a8)" style="fill: none; stroke: #b0b0b0; stroke-width: 0.8; stroke-linecap: square"/>
     </g>
     <g id="line2d_14">
      <g>
       <use xlink:href="#m6d59d095c5" x="399.573074" y="307.584" style="stroke: #000000; stroke-width: 0.8"/>
      </g>
     </g>
     <g id="text_7">
      <!-- 300 -->
      <g transform="translate(390.029324 322.182437) scale(0.1 -0.1)">
       <defs>
        <path id="DejaVuSans-33" d="M 2597 2516 
Q 3050 2419 3304 2112 
Q 3559 1806 3559 1356 
Q 3559 666 3084 287 
Q 2609 -91 1734 -91 
Q 1441 -91 1130 -33 
Q 819 25 488 141 
L 488 750 
Q 750 597 1062 519 
Q 1375 441 1716 441 
Q 2309 441 2620 675 
Q 2931 909 2931 1356 
Q 2931 1769 2642 2001 
Q 2353 2234 1838 2234 
L 1294 2234 
L 1294 2753 
L 1863 2753 
Q 2328 2753 2575 2939 
Q 2822 3125 2822 3475 
Q 2822 3834 2567 4026 
Q 2313 4219 1838 4219 
Q 1578 4219 1281 4162 
Q 984 4106 628 3988 
L 628 4550 
Q 988 4650 1302 4700 
Q 1616 4750 1894 4750 
Q 2613 4750 3031 4423 
Q 3450 4097 3450 3541 
Q 3450 3153 3228 2886 
Q 3006 2619 2597 2516 
z
" transform="scale(0.015625)"/>
       </defs>
       <use xlink:href="#DejaVuSans-33"/>
       <use xlink:href="#DejaVuSans-30" x="63.623047"/>
       <use xlink:href="#DejaVuSans-30" x="127.246094"/>
      </g>
     </g>
    </g>
    <g id="text_8">
     <!-- Generations -->
     <g transform="translate(205.662344 335.860562) scale(0.1 -0.1)">
      <defs>
       <path id="DejaVuSans-47" d="M 3809 666 
L 3809 1919 
L 2778 1919 
L 2778 2438 
L 4434 2438 
L 4434 434 
Q 4069 175 3628 42 
Q 3188 -91 2688 -91 
Q 1594 -91 976 548 
Q 359 1188 359 2328 
Q 359 3472 976 4111 
Q 1594 4750 2688 4750 
Q 3144 4750 3555 4637 
Q 3966 4525 4313 4306 
L 4313 3634 
Q 3963 3931 3569 4081 
Q 3175 4231 2741 4231 
Q 1884 4231 1454 3753 
Q 1025 3275 1025 2328 
Q 1025 1384 1454 906 
Q 1884 428 2741 428 
Q 3075 428 3337 486 
Q 3600 544 3809 666 
z
" transform="scale(0.015625)"/>
       <path id="DejaVuSans-65" d="M 3597 1894 
L 3597 1613 
L 953 1613 
Q 991 1019 1311 708 
Q 1631 397 2203 397 
Q 2534 397 2845 478 
Q 3156 559 3463 722 
L 3463 178 
Q 3153 47 2828 -22 
Q 2503 -91 2169 -91 
Q 1331 -91 842 396 
Q 353 884 353 1716 
Q 353 2575 817 3079 
Q 1281 3584 2069 3584 
Q 2775 3584 3186 3129 
Q 3597 2675 3597 1894 
z
M 3022 2063 
Q 3016 2534 2758 2815 
Q 2500 3097 2075 3097 
Q 1594 3097 1305 2825 
Q 1016 2553 972 2059 
L 3022 2063 
z
" transform="scale(0.015625)"/>
       <path id="DejaVuSans-6e" d="M 3513 2113 
L 3513 0 
L 2938 0 
L 2938 2094 
Q 2938 2591 2744 2837 
Q 2550 3084 2163 3084 
Q 1697 3084 1428 2787 
Q 1159 2491 1159 1978 
L 1159 0 
L 581 0 
L 581 3500 
L 1159 3500 
L 1159 2956 
Q 1366 3272 1645 3428 
Q 1925 3584 2291 3584 
Q 2894 3584 3203 3211 
Q 3513 2838 3513 2113 
z
" transform="scale(0.015625)"/>
       <path id="DejaVuSans-72" d="M 2631 2963 
Q 2534 3019 2420 3045 
Q 2306 3072 2169 3072 
Q 1681 3072 1420 2755 
Q 1159 2438 1159 1844 
L 1159 0 
L 581 0 
L 581 3500 
L 1159 3500 
L 1159 2956 
Q 1341 3275 1631 3429 
Q 1922 3584 2338 3584 
Q 2397 3584 2469 3576 
Q 2541 3569 2628 3553 
L 2631 2963 
z
" transform="scale(0.015625)"/>
       <path id="DejaVuSans-61" d="M 2194 1759 
Q 1497 1759 1228 1600 
Q 959 1441 959 1056 
Q 959 750 1161 570 
Q 1363 391 1709 391 
Q 2188 391 2477 730 
Q 2766 1069 2766 1631 
L 2766 1759 
L 2194 1759 
z
M 3341 1997 
L 3341 0 
L 2766 0 
L 2766 531 
Q 2569 213 2275 61 
Q 1981 -91 1556 -91 
Q 1019 -91 701 211 
Q 384 513 384 1019 
Q 384 1609 779 1909 
Q 1175 2209 1959 2209 
L 2766 2209 
L 2766 2266 
Q 2766 2663 2505 2880 
Q 2244 3097 1772 3097 
Q 1472 3097 1187 3025 
Q 903 2953 641 2809 
L 641 3341 
Q 956 3463 1253 3523 
Q 1550 3584 1831 3584 
Q 2591 3584 2966 3190 
Q 3341 2797 3341 1997 
z
" transform="scale(0.015625)"/>
       <path id="DejaVuSans-74" d="M 1172 4494 
L 1172 3500 
L 2356 3500 
L 2356 3053 
L 1172 3053 
L 1172 1153 
Q 1172 725 1289 603 
Q 1406 481 1766 481 
L 2356 481 
L 2356 0 
L 1766 0 
Q 1100 0 847 248 
Q 594 497 594 1153 
L 594 3053 
L 172 3053 
L 172 3500 
L 594 3500 
L 594 4494 
L 1172 4494 
z
" transform="scale(0.015625)"/>
       <path id="DejaVuSans-69" d="M 603 3500 
L 1178 3500 
L 1178 0 
L 603 0 
L 603 3500 
z
M 603 4863 
L 1178 4863 
L 1178 4134 
L 603 4134 
L 603 4863 
z
" transform="scale(0.015625)"/>
       <path id="DejaVuSans-6f" d="M 1959 3097 
Q 1497 3097 1228 2736 
Q 959 2375 959 1747 
Q 959 1119 1226 758 
Q 1494 397 1959 397 
Q 2419 397 2687 759 
Q 2956 1122 2956 1747 
Q 2956 2369 2687 2733 
Q 2419 3097 1959 3097 
z
M 1959 3584 
Q 2709 3584 3137 3096 
Q 3566 2609 3566 1747 
Q 3566 888 3137 398 
Q 2709 -91 1959 -91 
Q 1206 -91 779 398 
Q 353 888 353 1747 
Q 353 2609 779 3096 
Q 1206 3584 1959 3584 
z
" transform="scale(0.015625)"/>
       <path id="DejaVuSans-73" d="M 2834 3397 
L 2834 2853 
Q 2591 2978 2328 3040 
Q 2066 3103 1784 3103 
Q 1356 3103 1142 2972 
Q 928 2841 928 2578 
Q 928 2378 1081 2264 
Q 1234 2150 1697 2047 
L 1894 2003 
Q 2506 1872 2764 1633 
Q 3022 1394 3022 966 
Q 3022 478 2636 193 
Q 2250 -91 1575 -91 
Q 1294 -91 989 -36 
Q 684 19 347 128 
L 347 722 
Q 666 556 975 473 
Q 1284 391 1588 391 
Q 1994 391 2212 530 
Q 2431 669 2431 922 
Q 2431 1156 2273 1281 
Q 2116 1406 1581 1522 
L 1381 1569 
Q 847 1681 609 1914 
Q 372 2147 372 2553 
Q 372 3047 722 3315 
Q 1072 3584 1716 3584 
Q 2034 3584 2315 3537 
Q 2597 3491 2834 3397 
z
" transform="scale(0.015625)"/>
      </defs>
      <use xlink:href="#DejaVuSans-47"/>
      <use xlink:href="#DejaVuSans-65" x="77.490234"/>
      <use xlink:href="#DejaVuSans-6e" x="139.013672"/>
      <use xlink:href="#DejaVuSans-65" x="202.392578"/>
      <use xlink:href="#DejaVuSans-72" x="263.916016"/>
      <use xlink:href="#DejaVuSans-61" x="305.029297"/>
      <use xlink:href="#DejaVuSans-74" x="366.308594"/>
      <use xlink:href="#DejaVuSans-69" x="405.517578"/>
      <use xlink:href="#DejaVuSans-6f" x="433.300781"/>
      <use xlink:href="#DejaVuSans-6e" x="494.482422"/>
      <use xlink:href="#DejaVuSans-73" x="557.861328"/>
     </g>
    </g>
   </g>
   <g id="matplotlib.axis_2">
    <g id="ytick_1">
     <g id="line2d_15">
      <path d="M 57.6 304.583949 
L 414.72 304.583949 
" clip-path="url(#pdeaf2841a8)" style="fill: none; stroke: #b0b0b0; stroke-width: 0.8; stroke-linecap: square"/>
     </g>
     <g id="line2d_16">
      <defs>
       <path id="m4319296ceb" d="M 0 0 
L -3.5 0 
" style="stroke: #000000; stroke-width: 0.8"/>
      </defs>
      <g>
       <use xlink:href="#m4319296ceb" x="57.6" y="304.583949" style="stroke: #000000; stroke-width: 0.8"/>
      </g>
     </g>
     <g id="text_9">
      <!-- −1600 -->
      <g transform="translate(16.770313 308.383168) scale(0.1 -0.1)">
       <defs>
        <path id="DejaVuSans-2212" d="M 678 2272 
L 4684 2272 
L 4684 1741 
L 678 1741 
L 678 2272 
z
" transform="scale(0.015625)"/>
        <path id="DejaVuSans-36" d="M 2113 2584 
Q 1688 2584 1439 2293 
Q 1191 2003 1191 1497 
Q 1191 994 1439 701 
Q 1688 409 2113 409 
Q 2538 409 2786 701 
Q 3034 994 3034 1497 
Q 3034 2003 2786 2293 
Q 2538 2584 2113 2584 
z
M 3366 4563 
L 3366 3988 
Q 3128 4100 2886 4159 
Q 2644 4219 2406 4219 
Q 1781 4219 1451 3797 
Q 1122 3375 1075 2522 
Q 1259 2794 1537 2939 
Q 1816 3084 2150 3084 
Q 2853 3084 3261 2657 
Q 3669 2231 3669 1497 
Q 3669 778 3244 343 
Q 2819 -91 2113 -91 
Q 1303 -91 875 529 
Q 447 1150 447 2328 
Q 447 3434 972 4092 
Q 1497 4750 2381 4750 
Q 2619 4750 2861 4703 
Q 3103 4656 3366 4563 
z
" transform="scale(0.015625)"/>
       </defs>
       <use xlink:href="#DejaVuSans-2212"/>
       <use xlink:href="#DejaVuSans-31" x="83.789062"/>
       <use xlink:href="#DejaVuSans-36" x="147.412109"/>
       <use xlink:href="#DejaVuSans-30" x="211.035156"/>
       <use xlink:href="#DejaVuSans-30" x="274.658203"/>
      </g>
     </g>
    </g>
    <g id="ytick_2">
     <g id="line2d_17">
      <path d="M 57.6 267.196673 
L 414.72 267.196673 
" clip-path="url(#pdeaf2841a8)" style="fill: none; stroke: #b0b0b0; stroke-width: 0.8; stroke-linecap: square"/>
     </g>
     <g id="line2d_18">
      <g>
       <use xlink:href="#m4319296ceb" x="57.6" y="267.196673" style="stroke: #000000; stroke-width: 0.8"/>
      </g>
     </g>
     <g id="text_10">
      <!-- −1400 -->
      <g transform="translate(16.770313 270.995892) scale(0.1 -0.1)">
       <defs>
        <path id="DejaVuSans-34" d="M 2419 4116 
L 825 1625 
L 2419 1625 
L 2419 4116 
z
M 2253 4666 
L 3047 4666 
L 3047 1625 
L 3713 1625 
L 3713 1100 
L 3047 1100 
L 3047 0 
L 2419 0 
L 2419 1100 
L 313 1100 
L 313 1709 
L 2253 4666 
z
" transform="scale(0.015625)"/>
       </defs>
       <use xlink:href="#DejaVuSans-2212"/>
       <use xlink:href="#DejaVuSans-31" x="83.789062"/>
       <use xlink:href="#DejaVuSans-34" x="147.412109"/>
       <use xlink:href="#DejaVuSans-30" x="211.035156"/>
       <use xlink:href="#DejaVuSans-30" x="274.658203"/>
      </g>
     </g>
    </g>
    <g id="ytick_3">
     <g id="line2d_19">
      <path d="M 57.6 229.809397 
L 414.72 229.809397 
" clip-path="url(#pdeaf2841a8)" style="fill: none; stroke: #b0b0b0; stroke-width: 0.8; stroke-linecap: square"/>
     </g>
     <g id="line2d_20">
      <g>
       <use xlink:href="#m4319296ceb" x="57.6" y="229.809397" style="stroke: #000000; stroke-width: 0.8"/>
      </g>
     </g>
     <g id="text_11">
      <!-- −1200 -->
      <g transform="translate(16.770313 233.608616) scale(0.1 -0.1)">
       <use xlink:href="#DejaVuSans-2212"/>
       <use xlink:href="#DejaVuSans-31" x="83.789062"/>
       <use xlink:href="#DejaVuSans-32" x="147.412109"/>
       <use xlink:href="#DejaVuSans-30" x="211.035156"/>
       <use xlink:href="#DejaVuSans-30" x="274.658203"/>
      </g>
     </g>
    </g>
    <g id="ytick_4">
     <g id="line2d_21">
      <path d="M 57.6 192.422121 
L 414.72 192.422121 
" clip-path="url(#pdeaf2841a8)" style="fill: none; stroke: #b0b0b0; stroke-width: 0.8; stroke-linecap: square"/>
     </g>
     <g id="line2d_22">
      <g>
       <use xlink:href="#m4319296ceb" x="57.6" y="192.422121" style="stroke: #000000; stroke-width: 0.8"/>
      </g>
     </g>
     <g id="text_12">
      <!-- −1000 -->
      <g transform="translate(16.770313 196.22134) scale(0.1 -0.1)">
       <use xlink:href="#DejaVuSans-2212"/>
       <use xlink:href="#DejaVuSans-31" x="83.789062"/>
       <use xlink:href="#DejaVuSans-30" x="147.412109"/>
       <use xlink:href="#DejaVuSans-30" x="211.035156"/>
       <use xlink:href="#DejaVuSans-30" x="274.658203"/>
      </g>
     </g>
    </g>
    <g id="ytick_5">
     <g id="line2d_23">
      <path d="M 57.6 155.034846 
L 414.72 155.034846 
" clip-path="url(#pdeaf2841a8)" style="fill: none; stroke: #b0b0b0; stroke-width: 0.8; stroke-linecap: square"/>
     </g>
     <g id="line2d_24">
      <g>
       <use xlink:href="#m4319296ceb" x="57.6" y="155.034846" style="stroke: #000000; stroke-width: 0.8"/>
      </g>
     </g>
     <g id="text_13">
      <!-- −800 -->
      <g transform="translate(23.132812 158.834064) scale(0.1 -0.1)">
       <defs>
        <path id="DejaVuSans-38" d="M 2034 2216 
Q 1584 2216 1326 1975 
Q 1069 1734 1069 1313 
Q 1069 891 1326 650 
Q 1584 409 2034 409 
Q 2484 409 2743 651 
Q 3003 894 3003 1313 
Q 3003 1734 2745 1975 
Q 2488 2216 2034 2216 
z
M 1403 2484 
Q 997 2584 770 2862 
Q 544 3141 544 3541 
Q 544 4100 942 4425 
Q 1341 4750 2034 4750 
Q 2731 4750 3128 4425 
Q 3525 4100 3525 3541 
Q 3525 3141 3298 2862 
Q 3072 2584 2669 2484 
Q 3125 2378 3379 2068 
Q 3634 1759 3634 1313 
Q 3634 634 3220 271 
Q 2806 -91 2034 -91 
Q 1263 -91 848 271 
Q 434 634 434 1313 
Q 434 1759 690 2068 
Q 947 2378 1403 2484 
z
M 1172 3481 
Q 1172 3119 1398 2916 
Q 1625 2713 2034 2713 
Q 2441 2713 2670 2916 
Q 2900 3119 2900 3481 
Q 2900 3844 2670 4047 
Q 2441 4250 2034 4250 
Q 1625 4250 1398 4047 
Q 1172 3844 1172 3481 
z
" transform="scale(0.015625)"/>
       </defs>
       <use xlink:href="#DejaVuSans-2212"/>
       <use xlink:href="#DejaVuSans-38" x="83.789062"/>
       <use xlink:href="#DejaVuSans-30" x="147.412109"/>
       <use xlink:href="#DejaVuSans-30" x="211.035156"/>
      </g>
     </g>
    </g>
    <g id="ytick_6">
     <g id="line2d_25">
      <path d="M 57.6 117.64757 
L 414.72 117.64757 
" clip-path="url(#pdeaf2841a8)" style="fill: none; stroke: #b0b0b0; stroke-width: 0.8; stroke-linecap: square"/>
     </g>
     <g id="line2d_26">
      <g>
       <use xlink:href="#m4319296ceb" x="57.6" y="117.64757" style="stroke: #000000; stroke-width: 0.8"/>
      </g>
     </g>
     <g id="text_14">
      <!-- −600 -->
      <g transform="translate(23.132812 121.446789) scale(0.1 -0.1)">
       <use xlink:href="#DejaVuSans-2212"/>
       <use xlink:href="#DejaVuSans-36" x="83.789062"/>
       <use xlink:href="#DejaVuSans-30" x="147.412109"/>
       <use xlink:href="#DejaVuSans-30" x="211.035156"/>
      </g>
     </g>
    </g>
    <g id="ytick_7">
     <g id="line2d_27">
      <path d="M 57.6 80.260294 
L 414.72 80.260294 
" clip-path="url(#pdeaf2841a8)" style="fill: none; stroke: #b0b0b0; stroke-width: 0.8; stroke-linecap: square"/>
     </g>
     <g id="line2d_28">
      <g>
       <use xlink:href="#m4319296ceb" x="57.6" y="80.260294" style="stroke: #000000; stroke-width: 0.8"/>
      </g>
     </g>
     <g id="text_15">
      <!-- −400 -->
      <g transform="translate(23.132812 84.059513) scale(0.1 -0.1)">
       <use xlink:href="#DejaVuSans-2212"/>
       <use xlink:href="#DejaVuSans-34" x="83.789062"/>
       <use xlink:href="#DejaVuSans-30" x="147.412109"/>
       <use xlink:href="#DejaVuSans-30" x="211.035156"/>
      </g>
     </g>
    </g>
    <g id="ytick_8">
     <g id="line2d_29">
      <path d="M 57.6 42.873018 
L 414.72 42.873018 
" clip-path="url(#pdeaf2841a8)" style="fill: none; stroke: #b0b0b0; stroke-width: 0.8; stroke-linecap: square"/>
     </g>
     <g id="line2d_30">
      <g>
       <use xlink:href="#m4319296ceb" x="57.6" y="42.873018" style="stroke: #000000; stroke-width: 0.8"/>
      </g>
     </g>
     <g id="text_16">
      <!-- −200 -->
      <g transform="translate(23.132812 46.672237) scale(0.1 -0.1)">
       <use xlink:href="#DejaVuSans-2212"/>
       <use xlink:href="#DejaVuSans-32" x="83.789062"/>
       <use xlink:href="#DejaVuSans-30" x="147.412109"/>
       <use xlink:href="#DejaVuSans-30" x="211.035156"/>
      </g>
     </g>
    </g>
    <g id="text_17">
     <!-- Fitness -->
     <g transform="translate(10.690625 191.845187) rotate(-90) scale(0.1 -0.1)">
      <defs>
       <path id="DejaVuSans-46" d="M 628 4666 
L 3309 4666 
L 3309 4134 
L 1259 4134 
L 1259 2759 
L 3109 2759 
L 3109 2228 
L 1259 2228 
L 1259 0 
L 628 0 
L 628 4666 
z
" transform="scale(0.015625)"/>
      </defs>
      <use xlink:href="#DejaVuSans-46"/>
      <use xlink:href="#DejaVuSans-69" x="50.269531"/>
      <use xlink:href="#DejaVuSans-74" x="78.052734"/>
      <use xlink:href="#DejaVuSans-6e" x="117.261719"/>
      <use xlink:href="#DejaVuSans-65" x="180.640625"/>
      <use xlink:href="#DejaVuSans-73" x="242.164062"/>
      <use xlink:href="#DejaVuSans-73" x="294.263672"/>
     </g>
    </g>
   </g>
   <g id="line2d_31">
    <path d="M 73.832727 270.558369 
L 74.918528 268.043687 
L 76.00433 267.520187 
L 77.090131 268.752797 
L 78.175932 267.702267 
L 79.261733 267.912603 
L 80.347534 267.577498 
L 81.433335 266.401178 
L 82.519137 266.267909 
L 84.690739 266.248921 
L 85.77654 265.898555 
L 86.862341 264.557665 
L 87.948142 266.124308 
L 89.033943 265.780895 
L 90.119745 264.920606 
L 91.205546 263.918311 
L 92.291347 264.527355 
L 93.377148 263.967892 
L 94.462949 264.34313 
L 95.54875 265.037486 
L 96.634552 262.99303 
L 97.720353 262.889973 
L 98.806154 262.581151 
L 99.891955 261.837982 
L 100.977756 262.222532 
L 102.063557 264.756673 
L 103.149358 263.653925 
L 104.23516 263.991624 
L 105.320961 264.133285 
L 106.406762 262.189239 
L 107.492563 260.964649 
L 108.578364 260.561319 
L 109.664165 262.531798 
L 110.749967 261.486599 
L 111.835768 261.04954 
L 112.921569 261.136557 
L 114.00737 262.184087 
L 115.093171 262.956453 
L 116.178972 261.30526 
L 117.264773 261.527509 
L 118.350575 262.026677 
L 119.436376 263.252631 
L 120.522177 260.748631 
L 121.607978 260.994572 
L 122.693779 261.735532 
L 123.77958 259.498182 
L 124.865382 261.291915 
L 125.951183 262.072473 
L 127.036984 263.427559 
L 128.122785 261.935089 
L 129.208586 260.220626 
L 130.294387 260.748272 
L 131.380189 262.442111 
L 133.551791 260.979368 
L 134.637592 260.918286 
L 135.723393 262.43515 
L 136.809194 262.366243 
L 137.894995 260.808377 
L 138.980797 259.465592 
L 140.066598 261.121847 
L 141.152399 262.215346 
L 142.2382 259.444143 
L 143.324001 261.281618 
L 144.409802 262.313018 
L 145.495604 262.531621 
L 146.581405 262.021558 
L 147.667206 262.80687 
L 148.753007 261.624208 
L 149.838808 261.886636 
L 152.01041 261.715222 
L 153.096212 262.368366 
L 154.182013 261.973942 
L 156.353615 264.290209 
L 157.439416 262.271362 
L 158.525217 261.570732 
L 159.611019 262.559138 
L 160.69682 262.488151 
L 161.782621 263.907072 
L 162.868422 263.101559 
L 163.954223 263.711347 
L 165.040024 264.705265 
L 166.125825 264.998387 
L 167.211627 264.431268 
L 168.297428 264.537302 
L 169.383229 265.001098 
L 170.46903 263.975211 
L 171.554831 262.491295 
L 172.640632 264.526891 
L 173.726434 264.277278 
L 174.812235 264.148075 
L 176.983837 262.906195 
L 178.069638 263.763181 
L 179.155439 263.070826 
L 180.24124 262.027712 
L 181.327042 262.88627 
L 182.412843 264.290864 
L 183.498644 262.864111 
L 184.584445 261.796982 
L 185.670246 263.535624 
L 186.756047 263.751518 
L 187.841849 262.713706 
L 188.92765 263.044138 
L 190.013451 261.966858 
L 192.185053 261.168291 
L 193.270854 261.731906 
L 194.356656 261.724587 
L 195.442457 261.243177 
L 196.528258 261.531045 
L 197.614059 261.460676 
L 198.69986 263.385881 
L 199.785661 263.594142 
L 200.871462 263.369341 
L 203.043065 263.723655 
L 204.128866 262.223687 
L 205.214667 262.547826 
L 207.386269 262.717054 
L 208.472071 262.494239 
L 209.557872 263.181166 
L 210.643673 262.995562 
L 211.729474 263.291025 
L 212.815275 261.932755 
L 213.901076 262.792217 
L 214.986877 262.053948 
L 216.072679 260.374874 
L 217.15848 261.510925 
L 218.244281 262.093297 
L 219.330082 260.113154 
L 220.415883 259.705757 
L 221.501684 260.519485 
L 222.587486 259.810757 
L 223.673287 261.674664 
L 224.759088 262.214531 
L 225.844889 261.532817 
L 226.93069 263.424823 
L 228.016491 262.817672 
L 229.102292 262.363811 
L 230.188094 262.648669 
L 231.273895 263.26974 
L 232.359696 264.260834 
L 233.445497 262.127873 
L 234.531298 262.810288 
L 235.617099 262.389133 
L 238.874503 262.584868 
L 242.131906 265.14219 
L 244.303509 262.79439 
L 245.38931 262.768623 
L 246.475111 264.176373 
L 247.560912 263.860294 
L 248.646713 264.959746 
L 249.732514 264.195371 
L 250.818316 265.828806 
L 251.904117 265.591188 
L 252.989918 264.25406 
L 254.075719 263.89112 
L 255.16152 265.083499 
L 256.247321 265.328616 
L 258.418924 263.951696 
L 259.504725 264.748419 
L 261.676327 263.699836 
L 262.762128 264.544569 
L 263.847929 262.926634 
L 264.933731 264.422438 
L 266.019532 264.251329 
L 267.105333 263.660588 
L 269.276935 263.20092 
L 270.362736 263.730343 
L 271.448538 263.877699 
L 272.534339 263.753301 
L 273.62014 263.267503 
L 275.791742 263.086374 
L 276.877543 262.576839 
L 277.963344 263.461482 
L 279.049146 262.828836 
L 280.134947 262.95235 
L 283.39235 264.717572 
L 284.478151 264.990542 
L 285.563953 263.757099 
L 286.649754 265.16566 
L 287.735555 264.009908 
L 288.821356 265.071411 
L 289.907157 263.986715 
L 290.992958 263.772853 
L 292.07876 264.455119 
L 293.164561 265.506227 
L 294.250362 265.76605 
L 295.336163 264.615219 
L 296.421964 264.305 
L 297.507765 263.871977 
L 298.593566 263.125641 
L 299.679368 263.556951 
L 300.765169 263.117207 
L 301.85097 262.832848 
L 302.936771 262.862809 
L 304.022572 263.386482 
L 305.108373 264.578928 
L 306.194175 263.371504 
L 307.279976 264.553443 
L 309.451578 264.854437 
L 310.537379 266.023173 
L 311.62318 265.064047 
L 312.708981 266.0954 
L 313.794783 264.493807 
L 314.880584 265.666249 
L 315.966385 265.114834 
L 317.052186 266.169129 
L 318.137987 265.621572 
L 319.223788 264.151216 
L 320.30959 264.392439 
L 321.395391 265.268575 
L 322.481192 263.99477 
L 323.566993 265.052752 
L 324.652794 264.768432 
L 325.738595 266.432769 
L 326.824396 265.3194 
L 327.910198 264.847529 
L 328.995999 264.658086 
L 330.0818 264.792362 
L 331.167601 264.139061 
L 332.253402 264.406587 
L 333.339203 264.436873 
L 334.425005 263.998845 
L 335.510806 264.892182 
L 336.596607 263.824504 
L 337.682408 265.008622 
L 338.768209 264.703567 
L 339.85401 264.691572 
L 340.939811 264.46875 
L 342.025613 265.10917 
L 343.111414 266.135232 
L 344.197215 264.618172 
L 345.283016 265.361876 
L 346.368817 264.165772 
L 347.454618 264.505426 
L 349.626221 264.978788 
L 350.712022 264.267099 
L 351.797823 264.44514 
L 352.883624 262.76822 
L 353.969425 263.078306 
L 356.141028 264.260368 
L 357.226829 264.158467 
L 358.31263 263.191775 
L 359.398431 264.22331 
L 360.484232 264.844238 
L 361.570033 264.422327 
L 362.655835 265.371796 
L 363.741636 265.368647 
L 364.827437 264.79016 
L 365.913238 264.914118 
L 366.999039 265.558942 
L 368.08484 265.902825 
L 369.170642 265.610601 
L 370.256443 265.929006 
L 371.342244 265.626028 
L 372.428045 265.921755 
L 373.513846 265.739169 
L 374.599647 265.890382 
L 375.685448 264.643404 
L 376.77125 266.161145 
L 378.942852 267.019697 
L 380.028653 267.533567 
L 381.114454 265.744051 
L 382.200255 265.94721 
L 383.286057 265.936422 
L 384.371858 266.555183 
L 385.457659 265.465611 
L 386.54346 265.327594 
L 387.629261 263.298519 
L 388.715062 264.378468 
L 389.800863 264.830482 
L 390.886665 266.382977 
L 394.144068 264.520346 
L 395.229869 263.681125 
L 396.31567 263.986716 
L 397.401472 265.125218 
L 398.487273 264.745651 
L 398.487273 264.745651 
" clip-path="url(#pdeaf2841a8)" style="fill: none; stroke: #0000ff; stroke-width: 1.5; stroke-linecap: square"/>
   </g>
   <g id="line2d_32">
    <path d="M 73.832727 283.56293 
L 74.918528 281.50476 
L 76.00433 283.402151 
L 77.090131 284.194568 
L 78.175932 282.857307 
L 79.261733 282.881513 
L 80.347534 281.970384 
L 81.433335 284.22752 
L 82.519137 282.813697 
L 83.604938 282.972266 
L 84.690739 283.513568 
L 85.77654 284.245185 
L 86.862341 284.47048 
L 87.948142 285.393342 
L 89.033943 283.986543 
L 90.119745 284.68634 
L 91.205546 283.711079 
L 92.291347 284.814927 
L 93.377148 284.195109 
L 95.54875 285.477929 
L 96.634552 284.793679 
L 97.720353 286.287478 
L 98.806154 287.531213 
L 99.891955 287.256754 
L 100.977756 288.035376 
L 102.063557 289.999751 
L 103.149358 287.2666 
L 104.23516 290.863112 
L 105.320961 291.617558 
L 106.406762 289.22291 
L 107.492563 290.507225 
L 108.578364 292.678086 
L 109.664165 292.954309 
L 111.835768 290.29892 
L 112.921569 291.6865 
L 114.00737 292.510947 
L 115.093171 292.97881 
L 116.178972 292.348307 
L 118.350575 292.397571 
L 119.436376 293.27557 
L 120.522177 291.04983 
L 121.607978 293.302456 
L 122.693779 292.77518 
L 123.77958 291.66648 
L 124.865382 292.84733 
L 125.951183 291.899656 
L 127.036984 293.97326 
L 128.122785 294.177607 
L 129.208586 293.320478 
L 130.294387 294.311216 
L 131.380189 293.844792 
L 132.46599 292.365151 
L 133.551791 294.273226 
L 134.637592 295.372955 
L 135.723393 295.155855 
L 136.809194 294.629755 
L 137.894995 293.819825 
L 138.980797 293.465274 
L 140.066598 293.419551 
L 141.152399 294.351094 
L 142.2382 292.845347 
L 144.409802 292.605704 
L 145.495604 290.346375 
L 146.581405 289.635548 
L 147.667206 291.313032 
L 148.753007 291.268776 
L 149.838808 291.101189 
L 152.01041 292.314877 
L 153.096212 292.47191 
L 154.182013 290.498286 
L 155.267814 292.593632 
L 156.353615 291.557349 
L 158.525217 289.966177 
L 159.611019 290.717946 
L 161.782621 290.031546 
L 162.868422 290.356016 
L 163.954223 289.808239 
L 165.040024 290.518871 
L 166.125825 289.484479 
L 167.211627 289.778961 
L 168.297428 289.205791 
L 169.383229 289.006245 
L 170.46903 288.264809 
L 171.554831 289.094092 
L 172.640632 289.577158 
L 173.726434 289.606522 
L 174.812235 288.681542 
L 175.898036 289.569649 
L 178.069638 289.059495 
L 179.155439 289.075161 
L 180.24124 289.993495 
L 181.327042 291.740426 
L 182.412843 291.47042 
L 183.498644 290.487525 
L 184.584445 289.656032 
L 185.670246 290.739972 
L 186.756047 291.071116 
L 187.841849 290.926168 
L 188.92765 291.923335 
L 190.013451 291.014395 
L 191.099252 291.269378 
L 192.185053 293.335346 
L 193.270854 291.549103 
L 194.356656 292.270458 
L 195.442457 292.749424 
L 196.528258 292.104921 
L 197.614059 291.677353 
L 198.69986 291.809204 
L 199.785661 292.224882 
L 200.871462 292.42409 
L 201.957264 292.754469 
L 203.043065 292.520887 
L 204.128866 292.636439 
L 205.214667 292.103498 
L 206.300468 291.860574 
L 207.386269 292.104559 
L 208.472071 291.242321 
L 209.557872 292.139669 
L 210.643673 292.557202 
L 211.729474 293.618395 
L 212.815275 291.930934 
L 213.901076 292.858464 
L 214.986877 292.363798 
L 216.072679 291.094166 
L 217.15848 291.819363 
L 218.244281 293.34998 
L 219.330082 291.432942 
L 220.415883 293.208575 
L 221.501684 294.606652 
L 222.587486 293.049747 
L 223.673287 294.461452 
L 224.759088 295.165889 
L 225.844889 294.378003 
L 226.93069 295.488 
L 228.016491 293.831681 
L 229.102292 293.663346 
L 230.188094 293.698962 
L 232.359696 293.402375 
L 233.445497 291.57933 
L 234.531298 292.604978 
L 235.617099 292.030005 
L 237.788702 293.184569 
L 238.874503 294.965042 
L 239.960304 292.698404 
L 241.046105 293.648157 
L 242.131906 294.856107 
L 243.217708 294.398839 
L 245.38931 291.803233 
L 246.475111 291.150574 
L 247.560912 290.285296 
L 248.646713 291.764626 
L 249.732514 292.109421 
L 250.818316 291.626539 
L 251.904117 290.215985 
L 252.989918 290.499792 
L 254.075719 289.419198 
L 255.16152 289.783924 
L 256.247321 289.863274 
L 257.333123 290.927878 
L 258.418924 290.420316 
L 259.504725 289.619656 
L 260.590526 289.235411 
L 261.676327 290.43575 
L 262.762128 290.841276 
L 263.847929 289.647592 
L 264.933731 290.635777 
L 266.019532 290.494592 
L 267.105333 291.035386 
L 268.191134 291.397757 
L 269.276935 291.27792 
L 270.362736 290.570766 
L 271.448538 289.406683 
L 272.534339 290.106314 
L 273.62014 290.166417 
L 274.705941 290.846973 
L 275.791742 291.116297 
L 276.877543 289.997611 
L 277.963344 290.678624 
L 279.049146 292.286282 
L 280.134947 290.749405 
L 281.220748 290.789191 
L 282.306549 291.078872 
L 283.39235 292.46075 
L 284.478151 292.736237 
L 285.563953 291.256525 
L 286.649754 291.520058 
L 287.735555 292.415038 
L 288.821356 291.289028 
L 289.907157 290.468967 
L 290.992958 290.715838 
L 292.07876 291.615079 
L 293.164561 291.49004 
L 294.250362 292.738901 
L 295.336163 292.450034 
L 296.421964 292.895943 
L 297.507765 292.795592 
L 298.593566 291.731574 
L 299.679368 292.634062 
L 300.765169 291.521618 
L 301.85097 292.409954 
L 302.936771 291.178171 
L 304.022572 292.207546 
L 305.108373 291.04489 
L 306.194175 290.078142 
L 307.279976 290.146429 
L 308.365777 290.889049 
L 309.451578 291.411491 
L 310.537379 291.339503 
L 311.62318 290.811029 
L 312.708981 291.231096 
L 313.794783 291.944489 
L 314.880584 291.23841 
L 315.966385 291.382624 
L 317.052186 291.682957 
L 318.137987 290.83298 
L 319.223788 291.669187 
L 320.30959 291.376529 
L 321.395391 290.133242 
L 322.481192 290.664747 
L 323.566993 291.846605 
L 324.652794 290.664631 
L 325.738595 292.119339 
L 326.824396 292.396277 
L 327.910198 291.644517 
L 328.995999 292.03063 
L 330.0818 292.083765 
L 331.167601 291.212074 
L 332.253402 290.93022 
L 333.339203 290.955039 
L 334.425005 291.953042 
L 335.510806 292.037413 
L 336.596607 290.674429 
L 337.682408 292.153694 
L 338.768209 292.277772 
L 342.025613 290.943894 
L 343.111414 291.987499 
L 344.197215 291.564197 
L 345.283016 292.124447 
L 346.368817 290.687163 
L 347.454618 289.930989 
L 348.54042 290.147156 
L 349.626221 290.978661 
L 350.712022 290.94891 
L 351.797823 291.280528 
L 352.883624 289.540643 
L 353.969425 292.137165 
L 355.055227 292.484046 
L 356.141028 292.05309 
L 357.226829 291.337328 
L 358.31263 291.779845 
L 359.398431 291.078014 
L 361.570033 291.830498 
L 362.655835 291.101029 
L 363.741636 290.576395 
L 364.827437 290.311242 
L 365.913238 291.488475 
L 366.999039 291.549498 
L 368.08484 292.529509 
L 369.170642 291.398561 
L 370.256443 290.722537 
L 371.342244 291.782377 
L 372.428045 291.289234 
L 373.513846 290.625785 
L 374.599647 291.26156 
L 375.685448 291.048875 
L 376.77125 291.945392 
L 377.857051 291.23799 
L 378.942852 291.623238 
L 380.028653 291.789024 
L 381.114454 290.224783 
L 382.200255 290.385521 
L 383.286057 289.462567 
L 384.371858 290.314381 
L 385.457659 290.348933 
L 387.629261 288.6167 
L 388.715062 289.812607 
L 389.800863 289.114409 
L 390.886665 290.384735 
L 391.972466 289.890333 
L 393.058267 289.131534 
L 394.144068 288.974413 
L 395.229869 289.160545 
L 396.31567 290.288828 
L 397.401472 290.369219 
L 398.487273 292.34046 
L 398.487273 292.34046 
" clip-path="url(#pdeaf2841a8)" style="fill: none; stroke-dasharray: 9.6,2.4,1.5,2.4; stroke-dashoffset: 0; stroke: #008000; stroke-width: 1.5"/>
   </g>
   <g id="line2d_33">
    <path d="M 73.832727 257.553808 
L 76.00433 251.638223 
L 77.090131 253.311026 
L 78.175932 252.547227 
L 79.261733 252.943694 
L 80.347534 253.184613 
L 81.433335 248.574835 
L 82.519137 249.722121 
L 83.604938 249.538149 
L 84.690739 248.984274 
L 85.77654 247.551924 
L 86.862341 244.64485 
L 87.948142 246.855274 
L 89.033943 247.575246 
L 90.119745 245.154873 
L 91.205546 244.125544 
L 92.291347 244.239782 
L 93.377148 243.740676 
L 94.462949 243.821585 
L 95.54875 244.597042 
L 96.634552 241.19238 
L 98.806154 237.631089 
L 99.891955 236.419211 
L 100.977756 236.409688 
L 102.063557 239.513594 
L 103.149358 240.04125 
L 104.23516 237.120136 
L 105.320961 236.649012 
L 106.406762 235.155569 
L 107.492563 231.422074 
L 108.578364 228.444552 
L 109.664165 232.109286 
L 110.749967 231.349613 
L 111.835768 231.80016 
L 112.921569 230.586613 
L 114.00737 231.857226 
L 115.093171 232.934096 
L 116.178972 230.262213 
L 117.264773 230.673105 
L 118.350575 231.655782 
L 119.436376 233.229693 
L 120.522177 230.447432 
L 121.607978 228.686688 
L 122.693779 230.695884 
L 123.77958 227.329884 
L 125.951183 232.245289 
L 127.036984 232.881859 
L 128.122785 229.692571 
L 129.208586 227.120774 
L 130.294387 227.185328 
L 131.380189 231.039431 
L 132.46599 230.996735 
L 133.551791 227.68551 
L 134.637592 226.463617 
L 135.723393 229.714446 
L 136.809194 230.10273 
L 138.980797 225.46591 
L 140.066598 228.824143 
L 141.152399 230.079598 
L 142.2382 226.042938 
L 143.324001 229.816549 
L 144.409802 232.020332 
L 145.495604 234.716866 
L 146.581405 234.407568 
L 147.667206 234.300709 
L 148.753007 231.979641 
L 149.838808 232.672083 
L 152.01041 231.115568 
L 154.182013 233.449599 
L 155.267814 233.568399 
L 156.353615 237.023068 
L 157.439416 233.722747 
L 158.525217 233.175287 
L 159.611019 234.400331 
L 160.69682 234.603363 
L 161.782621 237.782598 
L 162.868422 235.847102 
L 163.954223 237.614454 
L 165.040024 238.89166 
L 166.125825 240.512295 
L 167.211627 239.083575 
L 168.297428 239.868813 
L 169.383229 240.995951 
L 170.46903 239.685613 
L 171.554831 235.888498 
L 172.640632 239.476624 
L 173.726434 238.948034 
L 174.812235 239.614607 
L 175.898036 237.591991 
L 176.983837 236.458914 
L 178.069638 238.466867 
L 179.155439 237.06649 
L 180.24124 234.06193 
L 181.327042 234.032113 
L 182.412843 237.111308 
L 183.498644 235.240697 
L 184.584445 233.937932 
L 185.670246 236.331277 
L 186.756047 236.43192 
L 187.841849 234.501244 
L 188.92765 234.16494 
L 191.099252 231.75868 
L 192.185053 229.001236 
L 193.270854 231.914709 
L 194.356656 231.178716 
L 195.442457 229.736929 
L 196.528258 230.957169 
L 197.614059 231.243999 
L 198.69986 234.962558 
L 199.785661 234.963402 
L 200.871462 234.314591 
L 201.957264 234.402548 
L 203.043065 234.926422 
L 204.128866 231.810934 
L 205.214667 232.992155 
L 206.300468 233.458917 
L 207.386269 233.329549 
L 209.557872 234.222663 
L 210.643673 233.433923 
L 211.729474 232.963655 
L 212.815275 231.934575 
L 213.901076 232.725969 
L 214.986877 231.744098 
L 216.072679 229.655582 
L 217.15848 231.202487 
L 218.244281 230.836613 
L 219.330082 228.793366 
L 220.415883 226.20294 
L 222.587486 226.571767 
L 223.673287 228.887876 
L 224.759088 229.263173 
L 225.844889 228.687632 
L 226.93069 231.361645 
L 228.016491 231.803662 
L 229.102292 231.064276 
L 230.188094 231.598377 
L 231.273895 233.02223 
L 232.359696 235.119294 
L 233.445497 232.676416 
L 234.531298 233.015599 
L 235.617099 232.748262 
L 237.788702 231.672136 
L 238.874503 230.204695 
L 239.960304 234.258229 
L 241.046105 235.373459 
L 242.131906 235.428272 
L 243.217708 233.581507 
L 244.303509 232.552384 
L 245.38931 233.734012 
L 246.475111 237.202172 
L 247.560912 237.435291 
L 248.646713 238.154865 
L 249.732514 236.28132 
L 250.818316 240.031073 
L 251.904117 240.966391 
L 252.989918 238.008327 
L 254.075719 238.363043 
L 255.16152 240.383075 
L 256.247321 240.793959 
L 257.333123 238.369419 
L 258.418924 237.483076 
L 259.504725 239.877182 
L 260.590526 239.266747 
L 261.676327 236.963922 
L 262.762128 238.247862 
L 263.847929 236.205677 
L 264.933731 238.209099 
L 266.019532 238.008066 
L 267.105333 236.28579 
L 268.191134 235.387973 
L 269.276935 235.12392 
L 270.362736 236.88992 
L 271.448538 238.348716 
L 274.705941 235.57641 
L 275.791742 235.056451 
L 276.877543 235.156066 
L 277.963344 236.244341 
L 279.049146 233.37139 
L 280.134947 235.155296 
L 281.220748 236.243492 
L 282.306549 237.144868 
L 283.39235 236.974393 
L 284.478151 237.244848 
L 285.563953 236.257673 
L 286.649754 238.811261 
L 287.735555 235.604777 
L 288.821356 238.853794 
L 289.907157 237.504464 
L 290.992958 236.829868 
L 292.07876 237.295158 
L 293.164561 239.522414 
L 294.250362 238.793198 
L 295.336163 236.780404 
L 296.421964 235.714057 
L 297.507765 234.948363 
L 298.593566 234.519708 
L 299.679368 234.479841 
L 300.765169 234.712796 
L 301.85097 233.255742 
L 302.936771 234.547448 
L 304.022572 234.565417 
L 305.108373 238.112965 
L 306.194175 236.664866 
L 307.279976 238.960458 
L 308.365777 238.413041 
L 309.451578 238.297383 
L 310.537379 240.706843 
L 311.62318 239.317066 
L 312.708981 240.959704 
L 313.794783 237.043124 
L 314.880584 240.094089 
L 315.966385 238.847044 
L 317.052186 240.655301 
L 318.137987 240.410163 
L 319.223788 236.633246 
L 320.30959 237.40835 
L 321.395391 240.403907 
L 322.481192 237.324793 
L 323.566993 238.258899 
L 324.652794 238.872233 
L 325.738595 240.746198 
L 326.824396 238.242523 
L 327.910198 238.05054 
L 328.995999 237.285543 
L 330.0818 237.500958 
L 331.167601 237.066048 
L 332.253402 237.882953 
L 333.339203 237.918707 
L 334.425005 236.044648 
L 335.510806 237.746951 
L 336.596607 236.974579 
L 337.682408 237.863549 
L 338.768209 237.129362 
L 339.85401 237.545301 
L 340.939811 237.589705 
L 342.025613 239.274447 
L 343.111414 240.282964 
L 344.197215 237.672147 
L 345.283016 238.599304 
L 346.368817 237.644381 
L 347.454618 239.079864 
L 348.54042 239.241021 
L 349.626221 238.978916 
L 350.712022 237.585289 
L 351.797823 237.609751 
L 352.883624 235.995797 
L 353.969425 234.019447 
L 355.055227 234.830253 
L 356.141028 236.467645 
L 357.226829 236.979605 
L 358.31263 234.603705 
L 359.398431 237.368606 
L 360.484232 238.221677 
L 361.570033 237.014157 
L 362.655835 239.642563 
L 363.741636 240.160898 
L 365.913238 238.339762 
L 366.999039 239.568387 
L 368.08484 239.276141 
L 369.170642 239.822642 
L 370.256443 241.135475 
L 371.342244 239.46968 
L 372.428045 240.554277 
L 373.513846 240.852554 
L 374.599647 240.519205 
L 375.685448 238.237934 
L 376.77125 240.376898 
L 377.857051 241.852077 
L 378.942852 242.416156 
L 380.028653 243.27811 
L 381.114454 241.26332 
L 382.200255 241.508899 
L 383.286057 242.410277 
L 384.371858 242.795984 
L 385.457659 240.582289 
L 386.54346 241.171858 
L 387.629261 237.980338 
L 388.715062 238.94433 
L 389.800863 240.546555 
L 390.886665 242.381218 
L 393.058267 241.050834 
L 394.144068 240.06628 
L 395.229869 238.201705 
L 396.31567 237.684604 
L 397.401472 239.881216 
L 398.487273 237.150842 
L 398.487273 237.150842 
" clip-path="url(#pdeaf2841a8)" style="fill: none; stroke-dasharray: 9.6,2.4,1.5,2.4; stroke-dashoffset: 0; stroke: #008000; stroke-width: 1.5"/>
   </g>
   <g id="line2d_34">
    <path d="M 73.832727 229.818744 
L 74.918528 229.112125 
L 76.00433 147.974612 
L 80.347534 147.974612 
L 81.433335 142.630093 
L 86.862341 142.630093 
L 87.948142 136.861252 
L 99.891955 136.861252 
L 100.977756 59.237805 
L 127.036984 59.237805 
L 128.122785 54.736373 
L 237.788702 54.736373 
L 238.874503 53.568 
L 398.487273 53.568 
L 398.487273 53.568 
" clip-path="url(#pdeaf2841a8)" style="fill: none; stroke: #ff0000; stroke-width: 1.5; stroke-linecap: square"/>
   </g>
   <g id="patch_3">
    <path d="M 57.6 307.584 
L 57.6 41.472 
" style="fill: none; stroke: #000000; stroke-width: 0.8; stroke-linejoin: miter; stroke-linecap: square"/>
   </g>
   <g id="patch_4">
    <path d="M 414.72 307.584 
L 414.72 41.472 
" style="fill: none; stroke: #000000; stroke-width: 0.8; stroke-linejoin: miter; stroke-linecap: square"/>
   </g>
   <g id="patch_5">
    <path d="M 57.6 307.584 
L 414.72 307.584 
" style="fill: none; stroke: #000000; stroke-width: 0.8; stroke-linejoin: miter; stroke-linecap: square"/>
   </g>
   <g id="patch_6">
    <path d="M 57.6 41.472 
L 414.72 41.472 
" style="fill: none; stroke: #000000; stroke-width: 0.8; stroke-linejoin: miter; stroke-linecap: square"/>
   </g>
   <g id="text_18">
    <!-- Population's average and best fitness -->
    <g transform="translate(123.529687 35.472) scale(0.12 -0.12)">
     <defs>
      <path id="DejaVuSans-50" d="M 1259 4147 
L 1259 2394 
L 2053 2394 
Q 2494 2394 2734 2622 
Q 2975 2850 2975 3272 
Q 2975 3691 2734 3919 
Q 2494 4147 2053 4147 
L 1259 4147 
z
M 628 4666 
L 2053 4666 
Q 2838 4666 3239 4311 
Q 3641 3956 3641 3272 
Q 3641 2581 3239 2228 
Q 2838 1875 2053 1875 
L 1259 1875 
L 1259 0 
L 628 0 
L 628 4666 
z
" transform="scale(0.015625)"/>
      <path id="DejaVuSans-70" d="M 1159 525 
L 1159 -1331 
L 581 -1331 
L 581 3500 
L 1159 3500 
L 1159 2969 
Q 1341 3281 1617 3432 
Q 1894 3584 2278 3584 
Q 2916 3584 3314 3078 
Q 3713 2572 3713 1747 
Q 3713 922 3314 415 
Q 2916 -91 2278 -91 
Q 1894 -91 1617 61 
Q 1341 213 1159 525 
z
M 3116 1747 
Q 3116 2381 2855 2742 
Q 2594 3103 2138 3103 
Q 1681 3103 1420 2742 
Q 1159 2381 1159 1747 
Q 1159 1113 1420 752 
Q 1681 391 2138 391 
Q 2594 391 2855 752 
Q 3116 1113 3116 1747 
z
" transform="scale(0.015625)"/>
      <path id="DejaVuSans-75" d="M 544 1381 
L 544 3500 
L 1119 3500 
L 1119 1403 
Q 1119 906 1312 657 
Q 1506 409 1894 409 
Q 2359 409 2629 706 
Q 2900 1003 2900 1516 
L 2900 3500 
L 3475 3500 
L 3475 0 
L 2900 0 
L 2900 538 
Q 2691 219 2414 64 
Q 2138 -91 1772 -91 
Q 1169 -91 856 284 
Q 544 659 544 1381 
z
M 1991 3584 
L 1991 3584 
z
" transform="scale(0.015625)"/>
      <path id="DejaVuSans-6c" d="M 603 4863 
L 1178 4863 
L 1178 0 
L 603 0 
L 603 4863 
z
" transform="scale(0.015625)"/>
      <path id="DejaVuSans-27" d="M 1147 4666 
L 1147 2931 
L 616 2931 
L 616 4666 
L 1147 4666 
z
" transform="scale(0.015625)"/>
      <path id="DejaVuSans-20" transform="scale(0.015625)"/>
      <path id="DejaVuSans-76" d="M 191 3500 
L 800 3500 
L 1894 563 
L 2988 3500 
L 3597 3500 
L 2284 0 
L 1503 0 
L 191 3500 
z
" transform="scale(0.015625)"/>
      <path id="DejaVuSans-67" d="M 2906 1791 
Q 2906 2416 2648 2759 
Q 2391 3103 1925 3103 
Q 1463 3103 1205 2759 
Q 947 2416 947 1791 
Q 947 1169 1205 825 
Q 1463 481 1925 481 
Q 2391 481 2648 825 
Q 2906 1169 2906 1791 
z
M 3481 434 
Q 3481 -459 3084 -895 
Q 2688 -1331 1869 -1331 
Q 1566 -1331 1297 -1286 
Q 1028 -1241 775 -1147 
L 775 -588 
Q 1028 -725 1275 -790 
Q 1522 -856 1778 -856 
Q 2344 -856 2625 -561 
Q 2906 -266 2906 331 
L 2906 616 
Q 2728 306 2450 153 
Q 2172 0 1784 0 
Q 1141 0 747 490 
Q 353 981 353 1791 
Q 353 2603 747 3093 
Q 1141 3584 1784 3584 
Q 2172 3584 2450 3431 
Q 2728 3278 2906 2969 
L 2906 3500 
L 3481 3500 
L 3481 434 
z
" transform="scale(0.015625)"/>
      <path id="DejaVuSans-64" d="M 2906 2969 
L 2906 4863 
L 3481 4863 
L 3481 0 
L 2906 0 
L 2906 525 
Q 2725 213 2448 61 
Q 2172 -91 1784 -91 
Q 1150 -91 751 415 
Q 353 922 353 1747 
Q 353 2572 751 3078 
Q 1150 3584 1784 3584 
Q 2172 3584 2448 3432 
Q 2725 3281 2906 2969 
z
M 947 1747 
Q 947 1113 1208 752 
Q 1469 391 1925 391 
Q 2381 391 2643 752 
Q 2906 1113 2906 1747 
Q 2906 2381 2643 2742 
Q 2381 3103 1925 3103 
Q 1469 3103 1208 2742 
Q 947 2381 947 1747 
z
" transform="scale(0.015625)"/>
      <path id="DejaVuSans-62" d="M 3116 1747 
Q 3116 2381 2855 2742 
Q 2594 3103 2138 3103 
Q 1681 3103 1420 2742 
Q 1159 2381 1159 1747 
Q 1159 1113 1420 752 
Q 1681 391 2138 391 
Q 2594 391 2855 752 
Q 3116 1113 3116 1747 
z
M 1159 2969 
Q 1341 3281 1617 3432 
Q 1894 3584 2278 3584 
Q 2916 3584 3314 3078 
Q 3713 2572 3713 1747 
Q 3713 922 3314 415 
Q 2916 -91 2278 -91 
Q 1894 -91 1617 61 
Q 1341 213 1159 525 
L 1159 0 
L 581 0 
L 581 4863 
L 1159 4863 
L 1159 2969 
z
" transform="scale(0.015625)"/>
      <path id="DejaVuSans-66" d="M 2375 4863 
L 2375 4384 
L 1825 4384 
Q 1516 4384 1395 4259 
Q 1275 4134 1275 3809 
L 1275 3500 
L 2222 3500 
L 2222 3053 
L 1275 3053 
L 1275 0 
L 697 0 
L 697 3053 
L 147 3053 
L 147 3500 
L 697 3500 
L 697 3744 
Q 697 4328 969 4595 
Q 1241 4863 1831 4863 
L 2375 4863 
z
" transform="scale(0.015625)"/>
     </defs>
     <use xlink:href="#DejaVuSans-50"/>
     <use xlink:href="#DejaVuSans-6f" x="56.677734"/>
     <use xlink:href="#DejaVuSans-70" x="117.859375"/>
     <use xlink:href="#DejaVuSans-75" x="181.335938"/>
     <use xlink:href="#DejaVuSans-6c" x="244.714844"/>
     <use xlink:href="#DejaVuSans-61" x="272.498047"/>
     <use xlink:href="#DejaVuSans-74" x="333.777344"/>
     <use xlink:href="#DejaVuSans-69" x="372.986328"/>
     <use xlink:href="#DejaVuSans-6f" x="400.769531"/>
     <use xlink:href="#DejaVuSans-6e" x="461.951172"/>
     <use xlink:href="#DejaVuSans-27" x="525.330078"/>
     <use xlink:href="#DejaVuSans-73" x="552.820312"/>
     <use xlink:href="#DejaVuSans-20" x="604.919922"/>
     <use xlink:href="#DejaVuSans-61" x="636.707031"/>
     <use xlink:href="#DejaVuSans-76" x="697.986328"/>
     <use xlink:href="#DejaVuSans-65" x="757.166016"/>
     <use xlink:href="#DejaVuSans-72" x="818.689453"/>
     <use xlink:href="#DejaVuSans-61" x="859.802734"/>
     <use xlink:href="#DejaVuSans-67" x="921.082031"/>
     <use xlink:href="#DejaVuSans-65" x="984.558594"/>
     <use xlink:href="#DejaVuSans-20" x="1046.082031"/>
     <use xlink:href="#DejaVuSans-61" x="1077.869141"/>
     <use xlink:href="#DejaVuSans-6e" x="1139.148438"/>
     <use xlink:href="#DejaVuSans-64" x="1202.527344"/>
     <use xlink:href="#DejaVuSans-20" x="1266.003906"/>
     <use xlink:href="#DejaVuSans-62" x="1297.791016"/>
     <use xlink:href="#DejaVuSans-65" x="1361.267578"/>
     <use xlink:href="#DejaVuSans-73" x="1422.791016"/>
     <use xlink:href="#DejaVuSans-74" x="1474.890625"/>
     <use xlink:href="#DejaVuSans-20" x="1514.099609"/>
     <use xlink:href="#DejaVuSans-66" x="1545.886719"/>
     <use xlink:href="#DejaVuSans-69" x="1581.091797"/>
     <use xlink:href="#DejaVuSans-74" x="1608.875"/>
     <use xlink:href="#DejaVuSans-6e" x="1648.083984"/>
     <use xlink:href="#DejaVuSans-65" x="1711.462891"/>
     <use xlink:href="#DejaVuSans-73" x="1772.986328"/>
     <use xlink:href="#DejaVuSans-73" x="1825.085938"/>
    </g>
   </g>
   <g id="legend_1">
    <g id="patch_7">
     <path d="M 334.779375 205.38425 
L 407.72 205.38425 
Q 409.72 205.38425 409.72 203.38425 
L 409.72 145.67175 
Q 409.72 143.67175 407.72 143.67175 
L 334.779375 143.67175 
Q 332.779375 143.67175 332.779375 145.67175 
L 332.779375 203.38425 
Q 332.779375 205.38425 334.779375 205.38425 
z
" style="fill: #ffffff; opacity: 0.8; stroke: #cccccc; stroke-linejoin: miter"/>
    </g>
    <g id="line2d_35">
     <path d="M 336.779375 151.770188 
L 346.779375 151.770188 
L 356.779375 151.770188 
" style="fill: none; stroke: #0000ff; stroke-width: 1.5; stroke-linecap: square"/>
    </g>
    <g id="text_19">
     <!-- average -->
     <g transform="translate(364.779375 155.270188) scale(0.1 -0.1)">
      <use xlink:href="#DejaVuSans-61"/>
      <use xlink:href="#DejaVuSans-76" x="61.279297"/>
      <use xlink:href="#DejaVuSans-65" x="120.458984"/>
      <use xlink:href="#DejaVuSans-72" x="181.982422"/>
      <use xlink:href="#DejaVuSans-61" x="223.095703"/>
      <use xlink:href="#DejaVuSans-67" x="284.375"/>
      <use xlink:href="#DejaVuSans-65" x="347.851562"/>
     </g>
    </g>
    <g id="line2d_36">
     <path d="M 336.779375 166.448313 
L 346.779375 166.448313 
L 356.779375 166.448313 
" style="fill: none; stroke-dasharray: 9.6,2.4,1.5,2.4; stroke-dashoffset: 0; stroke: #008000; stroke-width: 1.5"/>
    </g>
    <g id="text_20">
     <!-- -1 sd -->
     <g transform="translate(364.779375 169.948313) scale(0.1 -0.1)">
      <defs>
       <path id="DejaVuSans-2d" d="M 313 2009 
L 1997 2009 
L 1997 1497 
L 313 1497 
L 313 2009 
z
" transform="scale(0.015625)"/>
      </defs>
      <use xlink:href="#DejaVuSans-2d"/>
      <use xlink:href="#DejaVuSans-31" x="36.083984"/>
      <use xlink:href="#DejaVuSans-20" x="99.707031"/>
      <use xlink:href="#DejaVuSans-73" x="131.494141"/>
      <use xlink:href="#DejaVuSans-64" x="183.59375"/>
     </g>
    </g>
    <g id="line2d_37">
     <path d="M 336.779375 181.126438 
L 346.779375 181.126438 
L 356.779375 181.126438 
" style="fill: none; stroke-dasharray: 9.6,2.4,1.5,2.4; stroke-dashoffset: 0; stroke: #008000; stroke-width: 1.5"/>
    </g>
    <g id="text_21">
     <!-- +1 sd -->
     <g transform="translate(364.779375 184.626438) scale(0.1 -0.1)">
      <defs>
       <path id="DejaVuSans-2b" d="M 2944 4013 
L 2944 2272 
L 4684 2272 
L 4684 1741 
L 2944 1741 
L 2944 0 
L 2419 0 
L 2419 1741 
L 678 1741 
L 678 2272 
L 2419 2272 
L 2419 4013 
L 2944 4013 
z
" transform="scale(0.015625)"/>
      </defs>
      <use xlink:href="#DejaVuSans-2b"/>
      <use xlink:href="#DejaVuSans-31" x="83.789062"/>
      <use xlink:href="#DejaVuSans-20" x="147.412109"/>
      <use xlink:href="#DejaVuSans-73" x="179.199219"/>
      <use xlink:href="#DejaVuSans-64" x="231.298828"/>
     </g>
    </g>
    <g id="line2d_38">
     <path d="M 336.779375 195.804563 
L 346.779375 195.804563 
L 356.779375 195.804563 
" style="fill: none; stroke: #ff0000; stroke-width: 1.5; stroke-linecap: square"/>
    </g>
    <g id="text_22">
     <!-- best -->
     <g transform="translate(364.779375 199.304563) scale(0.1 -0.1)">
      <use xlink:href="#DejaVuSans-62"/>
      <use xlink:href="#DejaVuSans-65" x="63.476562"/>
      <use xlink:href="#DejaVuSans-73" x="125"/>
      <use xlink:href="#DejaVuSans-74" x="177.099609"/>
     </g>
    </g>
   </g>
  </g>
 </g>
 <defs>
  <clipPath id="pdeaf2841a8">
   <rect x="57.6" y="41.472" width="357.12" height="266.112"/>
  </clipPath>
 </defs>
</svg>
