<?xml version="1.0" encoding="UTF-8" standalone="no"?>
<!DOCTYPE svg PUBLIC "-//W3C//DTD SVG 1.1//EN"
 "http://www.w3.org/Graphics/SVG/1.1/DTD/svg11.dtd">
<!-- Generated by graphviz version 2.43.0 (0)
 -->
<!-- Title: %3 Pages: 1 -->
<svg width="1936pt" height="95pt"
 viewBox="0.00 0.00 1936.00 94.53" xmlns="http://www.w3.org/2000/svg" xmlns:xlink="http://www.w3.org/1999/xlink">
<g id="graph0" class="graph" transform="scale(1 1) rotate(0) translate(4 90.53)">
<title>%3</title>
<polygon fill="white" stroke="transparent" points="-4,4 -4,-90.53 1932,-90.53 1932,4 -4,4"/>
<!-- &#45;1 -->
<g id="node1" class="node">
<title>&#45;1</title>
<polygon fill="lightgray" stroke="black" points="1090,-86.53 1064,-86.53 1064,-68.53 1090,-68.53 1090,-86.53"/>
<text text-anchor="middle" x="1077" y="-75.33" font-family="Times,serif" font-size="9.00">&#45;1</text>
</g>
<!-- 1 -->
<g id="node42" class="node">
<title>1</title>
<ellipse fill="lightblue" stroke="black" cx="698" cy="-16.26" rx="16.03" ry="16.03"/>
<text text-anchor="middle" x="698" y="-14.06" font-family="Times,serif" font-size="9.00">1</text>
</g>
<!-- &#45;1&#45;&gt;1 -->
<g id="edge55" class="edge">
<title>&#45;1&#45;&gt;1</title>
<path fill="none" stroke="red" stroke-width="1.11" d="M1063.64,-71.17C1060.82,-70.18 1057.84,-69.24 1055,-68.53 933.5,-38.06 783.89,-23.91 724.29,-19.17"/>
<polygon fill="red" stroke="red" stroke-width="1.11" points="724.48,-15.68 714.24,-18.4 723.94,-22.66 724.48,-15.68"/>
</g>
<!-- 3 -->
<g id="node44" class="node">
<title>3</title>
<ellipse fill="lightblue" stroke="black" cx="1124" cy="-16.26" rx="16.03" ry="16.03"/>
<text text-anchor="middle" x="1124" y="-14.06" font-family="Times,serif" font-size="9.00">3</text>
</g>
<!-- &#45;1&#45;&gt;3 -->
<g id="edge24" class="edge">
<title>&#45;1&#45;&gt;3</title>
<path fill="none" stroke="green" stroke-width="1.75" d="M1083.54,-68.29C1089.82,-60.36 1099.58,-48.05 1107.94,-37.51"/>
<polygon fill="green" stroke="green" stroke-width="1.75" points="1110.78,-39.56 1114.25,-29.55 1105.3,-35.21 1110.78,-39.56"/>
</g>
<!-- &#45;2 -->
<g id="node2" class="node">
<title>&#45;2</title>
<polygon fill="lightgray" stroke="black" points="320,-86.53 294,-86.53 294,-68.53 320,-68.53 320,-86.53"/>
<text text-anchor="middle" x="307" y="-75.33" font-family="Times,serif" font-size="9.00">&#45;2</text>
</g>
<!-- 0 -->
<g id="node41" class="node">
<title>0</title>
<ellipse fill="lightblue" stroke="black" cx="425" cy="-16.26" rx="16.03" ry="16.03"/>
<text text-anchor="middle" x="425" y="-14.06" font-family="Times,serif" font-size="9.00">0</text>
</g>
<!-- &#45;2&#45;&gt;0 -->
<g id="edge54" class="edge">
<title>&#45;2&#45;&gt;0</title>
<path fill="none" stroke="green" stroke-width="0.99" stroke-dasharray="1,5" d="M320.08,-69.96C339.79,-60.06 377.38,-41.18 401.8,-28.91"/>
<polygon fill="green" stroke="green" stroke-width="0.99" points="403.4,-32.03 410.76,-24.41 400.26,-25.77 403.4,-32.03"/>
</g>
<!-- 2 -->
<g id="node43" class="node">
<title>2</title>
<ellipse fill="lightblue" stroke="black" cx="909" cy="-16.26" rx="16.03" ry="16.03"/>
<text text-anchor="middle" x="909" y="-14.06" font-family="Times,serif" font-size="9.00">2</text>
</g>
<!-- &#45;2&#45;&gt;2 -->
<g id="edge10" class="edge">
<title>&#45;2&#45;&gt;2</title>
<path fill="none" stroke="green" stroke-width="0.31" d="M320.33,-71.05C323.15,-70.07 326.14,-69.16 329,-68.53 508.46,-28.78 557.92,-48.84 741,-32.53 791.06,-28.07 849.49,-22.73 882.58,-19.69"/>
<polygon fill="green" stroke="green" stroke-width="0.31" points="883.15,-23.16 892.78,-18.76 882.51,-16.18 883.15,-23.16"/>
</g>
<!-- &#45;3 -->
<g id="node3" class="node">
<title>&#45;3</title>
<polygon fill="lightgray" stroke="black" points="414,-86.53 388,-86.53 388,-68.53 414,-68.53 414,-86.53"/>
<text text-anchor="middle" x="401" y="-75.33" font-family="Times,serif" font-size="9.00">&#45;3</text>
</g>
<!-- &#45;3&#45;&gt;0 -->
<g id="edge45" class="edge">
<title>&#45;3&#45;&gt;0</title>
<path fill="none" stroke="green" stroke-width="0.17" stroke-dasharray="1,5" d="M404.34,-68.29C407.17,-61.3 411.37,-50.91 415.25,-41.33"/>
<polygon fill="green" stroke="green" stroke-width="0.17" points="418.6,-42.4 419.11,-31.82 412.11,-39.77 418.6,-42.4"/>
</g>
<!-- &#45;3&#45;&gt;2 -->
<g id="edge27" class="edge">
<title>&#45;3&#45;&gt;2</title>
<path fill="none" stroke="red" stroke-width="1.52" d="M414.34,-71.09C417.16,-70.11 420.15,-69.19 423,-68.53 467.98,-58.14 787.72,-28.36 882.55,-19.67"/>
<polygon fill="red" stroke="red" stroke-width="1.52" points="883.09,-23.14 892.73,-18.74 882.45,-16.17 883.09,-23.14"/>
</g>
<!-- &#45;4 -->
<g id="node4" class="node">
<title>&#45;4</title>
<polygon fill="lightgray" stroke="black" points="808,-86.53 782,-86.53 782,-68.53 808,-68.53 808,-86.53"/>
<text text-anchor="middle" x="795" y="-75.33" font-family="Times,serif" font-size="9.00">&#45;4</text>
</g>
<!-- &#45;4&#45;&gt;0 -->
<g id="edge31" class="edge">
<title>&#45;4&#45;&gt;0</title>
<path fill="none" stroke="red" stroke-width="0.58" d="M781.64,-71.18C778.82,-70.19 775.84,-69.24 773,-68.53 655.08,-38.73 510.01,-24.27 451.41,-19.32"/>
<polygon fill="red" stroke="red" stroke-width="0.58" points="451.44,-15.81 441.18,-18.48 450.86,-22.78 451.44,-15.81"/>
</g>
<!-- &#45;4&#45;&gt;3 -->
<g id="edge5" class="edge">
<title>&#45;4&#45;&gt;3</title>
<path fill="none" stroke="green" stroke-width="0.2" d="M808.37,-71.22C811.19,-70.23 814.17,-69.27 817,-68.53 919.18,-41.66 1044.37,-25.93 1097.81,-20"/>
<polygon fill="green" stroke="green" stroke-width="0.2" points="1098.24,-23.47 1107.8,-18.91 1097.48,-16.51 1098.24,-23.47"/>
</g>
<!-- &#45;5 -->
<g id="node5" class="node">
<title>&#45;5</title>
<polygon fill="lightgray" stroke="black" points="1534,-86.53 1508,-86.53 1508,-68.53 1534,-68.53 1534,-86.53"/>
<text text-anchor="middle" x="1521" y="-75.33" font-family="Times,serif" font-size="9.00">&#45;5</text>
</g>
<!-- &#45;5&#45;&gt;2 -->
<g id="edge38" class="edge">
<title>&#45;5&#45;&gt;2</title>
<path fill="none" stroke="red" stroke-width="2.1" d="M1507.67,-71.05C1504.85,-70.07 1501.86,-69.16 1499,-68.53 1471.07,-62.35 1045.67,-28.16 935.1,-19.34"/>
<polygon fill="red" stroke="red" stroke-width="2.1" points="935.37,-15.85 925.13,-18.54 934.82,-22.83 935.37,-15.85"/>
</g>
<!-- &#45;5&#45;&gt;3 -->
<g id="edge67" class="edge">
<title>&#45;5&#45;&gt;3</title>
<path fill="none" stroke="red" stroke-width="0.3" d="M1507.64,-71.16C1504.82,-70.17 1501.84,-69.23 1499,-68.53 1370.52,-36.77 1212.09,-23.25 1150.36,-18.93"/>
<polygon fill="red" stroke="red" stroke-width="0.3" points="1150.53,-15.43 1140.31,-18.25 1150.05,-22.42 1150.53,-15.43"/>
</g>
<!-- &#45;6 -->
<g id="node6" class="node">
<title>&#45;6</title>
<polygon fill="lightgray" stroke="black" points="76,-86.53 50,-86.53 50,-68.53 76,-68.53 76,-86.53"/>
<text text-anchor="middle" x="63" y="-75.33" font-family="Times,serif" font-size="9.00">&#45;6</text>
</g>
<!-- &#45;6&#45;&gt;0 -->
<g id="edge69" class="edge">
<title>&#45;6&#45;&gt;0</title>
<path fill="none" stroke="green" stroke-width="2.1" d="M76.36,-71.19C79.18,-70.2 82.16,-69.25 85,-68.53 199.95,-39.27 341.28,-24.55 398.8,-19.42"/>
<polygon fill="green" stroke="green" stroke-width="2.1" points="399.18,-22.9 408.84,-18.55 398.58,-15.93 399.18,-22.9"/>
</g>
<!-- &#45;6&#45;&gt;1 -->
<g id="edge15" class="edge">
<title>&#45;6&#45;&gt;1</title>
<path fill="none" stroke="red" stroke-width="1.85" stroke-dasharray="1,5" d="M76.33,-71.04C79.15,-70.06 82.14,-69.15 85,-68.53 142.86,-55.82 560.91,-26.63 671.32,-19.08"/>
<polygon fill="red" stroke="red" stroke-width="1.85" points="671.84,-22.55 681.58,-18.38 671.36,-15.56 671.84,-22.55"/>
</g>
<!-- &#45;7 -->
<g id="node7" class="node">
<title>&#45;7</title>
<polygon fill="lightgray" stroke="black" points="852,-86.53 826,-86.53 826,-68.53 852,-68.53 852,-86.53"/>
<text text-anchor="middle" x="839" y="-75.33" font-family="Times,serif" font-size="9.00">&#45;7</text>
</g>
<!-- &#45;7&#45;&gt;0 -->
<g id="edge60" class="edge">
<title>&#45;7&#45;&gt;0</title>
<path fill="none" stroke="green" stroke-width="1.03" stroke-dasharray="1,5" d="M825.65,-71.14C822.83,-70.16 819.84,-69.22 817,-68.53 682.08,-35.59 515.53,-22.7 451.66,-18.74"/>
<polygon fill="green" stroke="green" stroke-width="1.03" points="451.48,-15.22 441.29,-18.12 451.06,-22.21 451.48,-15.22"/>
</g>
<!-- &#45;7&#45;&gt;1 -->
<g id="edge22" class="edge">
<title>&#45;7&#45;&gt;1</title>
<path fill="none" stroke="red" stroke-width="0.94" stroke-dasharray="1,5" d="M825.99,-71.06C802.34,-61.12 752.01,-39.96 721.99,-27.35"/>
<polygon fill="red" stroke="red" stroke-width="0.94" points="723.23,-24.07 712.66,-23.42 720.52,-30.53 723.23,-24.07"/>
</g>
<!-- &#45;7&#45;&gt;2 -->
<g id="edge33" class="edge">
<title>&#45;7&#45;&gt;2</title>
<path fill="none" stroke="red" stroke-width="0.9" stroke-dasharray="1,5" d="M848.73,-68.29C859.19,-59.44 876.08,-45.14 889.32,-33.92"/>
<polygon fill="red" stroke="red" stroke-width="0.9" points="891.64,-36.55 897.01,-27.42 887.11,-31.21 891.64,-36.55"/>
</g>
<!-- &#45;7&#45;&gt;3 -->
<g id="edge62" class="edge">
<title>&#45;7&#45;&gt;3</title>
<path fill="none" stroke="red" stroke-width="1.28" d="M852.39,-71.28C855.21,-70.28 858.18,-69.31 861,-68.53 946.25,-44.87 1049.99,-28.07 1097.69,-21"/>
<polygon fill="red" stroke="red" stroke-width="1.28" points="1098.4,-24.43 1107.79,-19.52 1097.39,-17.5 1098.4,-24.43"/>
</g>
<!-- &#45;8 -->
<g id="node8" class="node">
<title>&#45;8</title>
<polygon fill="lightgray" stroke="black" points="1828,-86.53 1802,-86.53 1802,-68.53 1828,-68.53 1828,-86.53"/>
<text text-anchor="middle" x="1815" y="-75.33" font-family="Times,serif" font-size="9.00">&#45;8</text>
</g>
<!-- &#45;9 -->
<g id="node9" class="node">
<title>&#45;9</title>
<polygon fill="lightgray" stroke="black" points="946,-86.53 920,-86.53 920,-68.53 946,-68.53 946,-86.53"/>
<text text-anchor="middle" x="933" y="-75.33" font-family="Times,serif" font-size="9.00">&#45;9</text>
</g>
<!-- &#45;9&#45;&gt;0 -->
<g id="edge63" class="edge">
<title>&#45;9&#45;&gt;0</title>
<path fill="none" stroke="green" stroke-width="0.37" d="M919.66,-71.09C916.84,-70.11 913.85,-69.19 911,-68.53 822.12,-48 539.66,-25.79 451.53,-19.21"/>
<polygon fill="green" stroke="green" stroke-width="0.37" points="451.77,-15.71 441.54,-18.46 451.26,-22.69 451.77,-15.71"/>
</g>
<!-- &#45;9&#45;&gt;2 -->
<g id="edge51" class="edge">
<title>&#45;9&#45;&gt;2</title>
<path fill="none" stroke="green" stroke-width="0.47" d="M929.66,-68.29C926.83,-61.3 922.63,-50.91 918.75,-41.33"/>
<polygon fill="green" stroke="green" stroke-width="0.47" points="921.89,-39.77 914.89,-31.82 915.4,-42.4 921.89,-39.77"/>
</g>
<!-- &#45;9&#45;&gt;3 -->
<g id="edge73" class="edge">
<title>&#45;9&#45;&gt;3</title>
<path fill="none" stroke="green" stroke-width="1.03" d="M946.46,-71.5C949.27,-70.49 952.22,-69.45 955,-68.53 1005.66,-51.65 1065.6,-34.01 1098.76,-24.46"/>
<polygon fill="green" stroke="green" stroke-width="1.03" points="1099.89,-27.77 1108.53,-21.65 1097.95,-21.05 1099.89,-27.77"/>
</g>
<!-- &#45;10 -->
<g id="node10" class="node">
<title>&#45;10</title>
<polygon fill="lightgray" stroke="black" points="714,-86.53 682,-86.53 682,-68.53 714,-68.53 714,-86.53"/>
<text text-anchor="middle" x="698" y="-75.33" font-family="Times,serif" font-size="9.00">&#45;10</text>
</g>
<!-- &#45;10&#45;&gt;1 -->
<g id="edge50" class="edge">
<title>&#45;10&#45;&gt;1</title>
<path fill="none" stroke="green" stroke-width="1.8" d="M698,-68.29C698,-61.7 698,-52.1 698,-43"/>
<polygon fill="green" stroke="green" stroke-width="1.8" points="701.5,-42.76 698,-32.76 694.5,-42.76 701.5,-42.76"/>
</g>
<!-- &#45;10&#45;&gt;2 -->
<g id="edge59" class="edge">
<title>&#45;10&#45;&gt;2</title>
<path fill="none" stroke="red" stroke-width="1.62" stroke-dasharray="1,5" d="M714.11,-71.27C717.06,-70.33 720.12,-69.38 723,-68.53 780.02,-51.55 847.46,-33.45 883.41,-23.96"/>
<polygon fill="red" stroke="red" stroke-width="1.62" points="884.73,-27.24 893.51,-21.3 882.95,-20.47 884.73,-27.24"/>
</g>
<!-- &#45;11 -->
<g id="node11" class="node">
<title>&#45;11</title>
<polygon fill="lightgray" stroke="black" points="126,-86.53 94,-86.53 94,-68.53 126,-68.53 126,-86.53"/>
<text text-anchor="middle" x="110" y="-75.33" font-family="Times,serif" font-size="9.00">&#45;11</text>
</g>
<!-- &#45;11&#45;&gt;0 -->
<g id="edge58" class="edge">
<title>&#45;11&#45;&gt;0</title>
<path fill="none" stroke="red" stroke-width="1.76" stroke-dasharray="1,5" d="M126.05,-71.04C129,-70.13 132.08,-69.25 135,-68.53 230.95,-44.81 347.36,-27.68 398.61,-20.71"/>
<polygon fill="red" stroke="red" stroke-width="1.76" points="399.36,-24.14 408.81,-19.34 398.43,-17.21 399.36,-24.14"/>
</g>
<!-- &#45;11&#45;&gt;1 -->
<g id="edge30" class="edge">
<title>&#45;11&#45;&gt;1</title>
<path fill="none" stroke="green" stroke-width="1.84" d="M126,-70.84C128.96,-69.95 132.05,-69.13 135,-68.53 239.89,-47.24 574.68,-25.02 671.52,-18.9"/>
<polygon fill="green" stroke="green" stroke-width="1.84" points="671.87,-22.39 681.63,-18.27 671.43,-15.4 671.87,-22.39"/>
</g>
<!-- &#45;12 -->
<g id="node12" class="node">
<title>&#45;12</title>
<polygon fill="lightgray" stroke="black" points="464,-86.53 432,-86.53 432,-68.53 464,-68.53 464,-86.53"/>
<text text-anchor="middle" x="448" y="-75.33" font-family="Times,serif" font-size="9.00">&#45;12</text>
</g>
<!-- &#45;12&#45;&gt;0 -->
<g id="edge16" class="edge">
<title>&#45;12&#45;&gt;0</title>
<path fill="none" stroke="red" stroke-width="2.1" d="M444.8,-68.29C442.09,-61.3 438.06,-50.91 434.34,-41.33"/>
<polygon fill="red" stroke="red" stroke-width="2.1" points="437.53,-39.87 430.65,-31.82 431,-42.41 437.53,-39.87"/>
</g>
<!-- &#45;12&#45;&gt;2 -->
<g id="edge39" class="edge">
<title>&#45;12&#45;&gt;2</title>
<path fill="none" stroke="red" stroke-width="0.38" d="M464.01,-70.9C466.98,-70 470.06,-69.16 473,-68.53 552.23,-51.36 800.83,-27.33 882.62,-19.69"/>
<polygon fill="red" stroke="red" stroke-width="0.38" points="883.18,-23.16 892.81,-18.74 882.53,-16.19 883.18,-23.16"/>
</g>
<!-- &#45;13 -->
<g id="node13" class="node">
<title>&#45;13</title>
<polygon fill="lightgray" stroke="black" points="1584,-86.53 1552,-86.53 1552,-68.53 1584,-68.53 1584,-86.53"/>
<text text-anchor="middle" x="1568" y="-75.33" font-family="Times,serif" font-size="9.00">&#45;13</text>
</g>
<!-- &#45;13&#45;&gt;2 -->
<g id="edge49" class="edge">
<title>&#45;13&#45;&gt;2</title>
<path fill="none" stroke="green" stroke-width="0.49" d="M1551.73,-70.73C1548.85,-69.88 1545.86,-69.09 1543,-68.53 1541.1,-68.15 1054.99,-29.01 935.36,-19.38"/>
<polygon fill="green" stroke="green" stroke-width="0.49" points="935.5,-15.89 925.26,-18.57 934.94,-22.86 935.5,-15.89"/>
</g>
<!-- &#45;13&#45;&gt;3 -->
<g id="edge35" class="edge">
<title>&#45;13&#45;&gt;3</title>
<path fill="none" stroke="green" stroke-width="0.61" d="M1551.98,-70.91C1549.02,-70.01 1545.94,-69.17 1543,-68.53 1396.53,-36.43 1216.53,-22.89 1150.17,-18.75"/>
<polygon fill="green" stroke="green" stroke-width="0.61" points="1150.36,-15.26 1140.17,-18.15 1149.94,-22.24 1150.36,-15.26"/>
</g>
<!-- &#45;14 -->
<g id="node14" class="node">
<title>&#45;14</title>
<polygon fill="lightgray" stroke="black" points="1684,-86.53 1652,-86.53 1652,-68.53 1684,-68.53 1684,-86.53"/>
<text text-anchor="middle" x="1668" y="-75.33" font-family="Times,serif" font-size="9.00">&#45;14</text>
</g>
<!-- &#45;14&#45;&gt;3 -->
<g id="edge36" class="edge">
<title>&#45;14&#45;&gt;3</title>
<path fill="none" stroke="red" stroke-width="0.11" stroke-dasharray="1,5" d="M1652,-70.86C1649.03,-69.96 1645.95,-69.14 1643,-68.53 1457.08,-30.05 1227.53,-20.21 1150.56,-17.91"/>
<polygon fill="red" stroke="red" stroke-width="0.11" points="1150.43,-14.41 1140.33,-17.62 1150.23,-21.4 1150.43,-14.41"/>
</g>
<!-- &#45;15 -->
<g id="node15" class="node">
<title>&#45;15</title>
<polygon fill="lightgray" stroke="black" points="614,-86.53 582,-86.53 582,-68.53 614,-68.53 614,-86.53"/>
<text text-anchor="middle" x="598" y="-75.33" font-family="Times,serif" font-size="9.00">&#45;15</text>
</g>
<!-- &#45;15&#45;&gt;0 -->
<g id="edge40" class="edge">
<title>&#45;15&#45;&gt;0</title>
<path fill="none" stroke="red" stroke-width="0.37" stroke-dasharray="1,5" d="M581.72,-70.95C551.41,-60.57 486.11,-38.2 450.1,-25.86"/>
<polygon fill="red" stroke="red" stroke-width="0.37" points="450.95,-22.45 440.36,-22.53 448.69,-29.08 450.95,-22.45"/>
</g>
<!-- &#45;15&#45;&gt;1 -->
<g id="edge47" class="edge">
<title>&#45;15&#45;&gt;1</title>
<path fill="none" stroke="red" stroke-width="0.31" d="M611.9,-68.29C628.32,-58.56 655.86,-42.24 675.37,-30.68"/>
<polygon fill="red" stroke="red" stroke-width="0.31" points="677.4,-33.54 684.21,-25.43 673.83,-27.52 677.4,-33.54"/>
</g>
<!-- &#45;15&#45;&gt;3 -->
<g id="edge43" class="edge">
<title>&#45;15&#45;&gt;3</title>
<path fill="none" stroke="red" stroke-width="1.29" stroke-dasharray="1,5" d="M614.01,-70.86C616.97,-69.97 620.06,-69.14 623,-68.53 715.33,-49.25 1007.88,-26.05 1097.59,-19.24"/>
<polygon fill="red" stroke="red" stroke-width="1.29" points="1098.02,-22.71 1107.73,-18.47 1097.49,-15.73 1098.02,-22.71"/>
</g>
<!-- &#45;16 -->
<g id="node16" class="node">
<title>&#45;16</title>
<polygon fill="lightgray" stroke="black" points="176,-86.53 144,-86.53 144,-68.53 176,-68.53 176,-86.53"/>
<text text-anchor="middle" x="160" y="-75.33" font-family="Times,serif" font-size="9.00">&#45;16</text>
</g>
<!-- &#45;16&#45;&gt;0 -->
<g id="edge75" class="edge">
<title>&#45;16&#45;&gt;0</title>
<path fill="none" stroke="red" stroke-width="0.81" stroke-dasharray="1,5" d="M176.07,-71.13C179.02,-70.21 182.09,-69.3 185,-68.53 262.22,-47.98 355.1,-30.03 399.25,-21.89"/>
<polygon fill="red" stroke="red" stroke-width="0.81" points="399.94,-25.33 409.15,-20.09 398.68,-18.44 399.94,-25.33"/>
</g>
<!-- &#45;16&#45;&gt;1 -->
<g id="edge7" class="edge">
<title>&#45;16&#45;&gt;1</title>
<path fill="none" stroke="green" stroke-width="0.41" d="M176.01,-70.86C178.97,-69.97 182.06,-69.14 185,-68.53 279.85,-48.84 581.04,-25.8 671.84,-19.15"/>
<polygon fill="green" stroke="green" stroke-width="0.41" points="672.13,-22.64 681.85,-18.42 671.62,-15.65 672.13,-22.64"/>
</g>
<!-- &#45;17 -->
<g id="node17" class="node">
<title>&#45;17</title>
<polygon fill="lightgray" stroke="black" points="514,-86.53 482,-86.53 482,-68.53 514,-68.53 514,-86.53"/>
<text text-anchor="middle" x="498" y="-75.33" font-family="Times,serif" font-size="9.00">&#45;17</text>
</g>
<!-- &#45;17&#45;&gt;0 -->
<g id="edge68" class="edge">
<title>&#45;17&#45;&gt;0</title>
<path fill="none" stroke="green" stroke-width="1" d="M487.85,-68.29C476.95,-59.44 459.33,-45.14 445.52,-33.92"/>
<polygon fill="green" stroke="green" stroke-width="1" points="447.48,-31 437.51,-27.42 443.07,-36.44 447.48,-31"/>
</g>
<!-- &#45;17&#45;&gt;2 -->
<g id="edge26" class="edge">
<title>&#45;17&#45;&gt;2</title>
<path fill="none" stroke="green" stroke-width="0.57" stroke-dasharray="1,5" d="M514.02,-70.94C516.98,-70.04 520.07,-69.19 523,-68.53 656.16,-38.63 819.35,-24.01 882.39,-19.16"/>
<polygon fill="green" stroke="green" stroke-width="0.57" points="882.93,-22.63 892.64,-18.39 882.4,-15.65 882.93,-22.63"/>
</g>
<!-- &#45;18 -->
<g id="node18" class="node">
<title>&#45;18</title>
<polygon fill="lightgray" stroke="black" points="1878,-86.53 1846,-86.53 1846,-68.53 1878,-68.53 1878,-86.53"/>
<text text-anchor="middle" x="1862" y="-75.33" font-family="Times,serif" font-size="9.00">&#45;18</text>
</g>
<!-- &#45;19 -->
<g id="node19" class="node">
<title>&#45;19</title>
<polygon fill="lightgray" stroke="black" points="1734,-86.53 1702,-86.53 1702,-68.53 1734,-68.53 1734,-86.53"/>
<text text-anchor="middle" x="1718" y="-75.33" font-family="Times,serif" font-size="9.00">&#45;19</text>
</g>
<!-- &#45;19&#45;&gt;3 -->
<g id="edge13" class="edge">
<title>&#45;19&#45;&gt;3</title>
<path fill="none" stroke="green" stroke-width="0.86" d="M1702,-70.83C1699.04,-69.94 1695.95,-69.12 1693,-68.53 1487.14,-26.84 1232.5,-19.04 1150.65,-17.59"/>
<polygon fill="green" stroke="green" stroke-width="0.86" points="1150.54,-14.09 1140.48,-17.43 1150.43,-21.09 1150.54,-14.09"/>
</g>
<!-- &#45;20 -->
<g id="node20" class="node">
<title>&#45;20</title>
<polygon fill="lightgray" stroke="black" points="1490,-86.53 1458,-86.53 1458,-68.53 1490,-68.53 1490,-86.53"/>
<text text-anchor="middle" x="1474" y="-75.33" font-family="Times,serif" font-size="9.00">&#45;20</text>
</g>
<!-- &#45;20&#45;&gt;2 -->
<g id="edge25" class="edge">
<title>&#45;20&#45;&gt;2</title>
<path fill="none" stroke="green" stroke-width="2.1" d="M1458,-70.85C1455.04,-69.96 1451.95,-69.13 1449,-68.53 1398.32,-58.14 1036.77,-27.81 935.38,-19.43"/>
<polygon fill="green" stroke="green" stroke-width="2.1" points="935.61,-15.94 925.36,-18.61 935.04,-22.92 935.61,-15.94"/>
</g>
<!-- &#45;21 -->
<g id="node21" class="node">
<title>&#45;21</title>
<polygon fill="lightgray" stroke="black" points="1046,-86.53 1014,-86.53 1014,-68.53 1046,-68.53 1046,-86.53"/>
<text text-anchor="middle" x="1030" y="-75.33" font-family="Times,serif" font-size="9.00">&#45;21</text>
</g>
<!-- &#45;21&#45;&gt;1 -->
<g id="edge57" class="edge">
<title>&#45;21&#45;&gt;1</title>
<path fill="none" stroke="green" stroke-width="1.92" stroke-dasharray="1,5" d="M1013.96,-71.02C1011,-70.11 1007.92,-69.23 1005,-68.53 902.31,-43.66 777.39,-26.87 724.11,-20.33"/>
<polygon fill="green" stroke="green" stroke-width="1.92" points="724.49,-16.85 714.14,-19.13 723.65,-23.8 724.49,-16.85"/>
</g>
<!-- &#45;21&#45;&gt;3 -->
<g id="edge20" class="edge">
<title>&#45;21&#45;&gt;3</title>
<path fill="none" stroke="red" stroke-width="0.88" d="M1043.07,-68.29C1058.26,-58.71 1083.58,-42.75 1101.85,-31.23"/>
<polygon fill="red" stroke="red" stroke-width="0.88" points="1103.84,-34.11 1110.43,-25.82 1100.11,-28.19 1103.84,-34.11"/>
</g>
<!-- &#45;22 -->
<g id="node22" class="node">
<title>&#45;22</title>
<polygon fill="lightgray" stroke="black" points="1928,-86.53 1896,-86.53 1896,-68.53 1928,-68.53 1928,-86.53"/>
<text text-anchor="middle" x="1912" y="-75.33" font-family="Times,serif" font-size="9.00">&#45;22</text>
</g>
<!-- &#45;23 -->
<g id="node23" class="node">
<title>&#45;23</title>
<polygon fill="lightgray" stroke="black" points="996,-86.53 964,-86.53 964,-68.53 996,-68.53 996,-86.53"/>
<text text-anchor="middle" x="980" y="-75.33" font-family="Times,serif" font-size="9.00">&#45;23</text>
</g>
<!-- &#45;23&#45;&gt;1 -->
<g id="edge64" class="edge">
<title>&#45;23&#45;&gt;1</title>
<path fill="none" stroke="red" stroke-width="1.55" stroke-dasharray="1,5" d="M963.94,-71.09C960.98,-70.18 957.91,-69.28 955,-68.53 871.44,-46.9 770.58,-29.17 723.96,-21.44"/>
<polygon fill="red" stroke="red" stroke-width="1.55" points="724.52,-17.99 714.08,-19.82 723.38,-24.9 724.52,-17.99"/>
</g>
<!-- &#45;23&#45;&gt;2 -->
<g id="edge34" class="edge">
<title>&#45;23&#45;&gt;2</title>
<path fill="none" stroke="green" stroke-width="0.11" d="M970.13,-68.29C959.53,-59.44 942.39,-45.14 928.96,-33.92"/>
<polygon fill="green" stroke="green" stroke-width="0.11" points="931.08,-31.14 921.16,-27.42 926.6,-36.51 931.08,-31.14"/>
</g>
<!-- &#45;23&#45;&gt;3 -->
<g id="edge18" class="edge">
<title>&#45;23&#45;&gt;3</title>
<path fill="none" stroke="green" stroke-width="1.06" stroke-dasharray="1,5" d="M996.24,-69.84C1021.5,-59.45 1070.37,-39.33 1099.8,-27.22"/>
<polygon fill="green" stroke="green" stroke-width="1.06" points="1101.42,-30.34 1109.33,-23.3 1098.75,-23.87 1101.42,-30.34"/>
</g>
<!-- &#45;24 -->
<g id="node24" class="node">
<title>&#45;24</title>
<polygon fill="lightgray" stroke="black" points="32,-86.53 0,-86.53 0,-68.53 32,-68.53 32,-86.53"/>
<text text-anchor="middle" x="16" y="-75.33" font-family="Times,serif" font-size="9.00">&#45;24</text>
</g>
<!-- &#45;24&#45;&gt;0 -->
<g id="edge46" class="edge">
<title>&#45;24&#45;&gt;0</title>
<path fill="none" stroke="red" stroke-width="0.91" d="M32.02,-70.94C34.98,-70.04 38.07,-69.19 41,-68.53 173.47,-38.74 335.81,-24.05 398.53,-19.17"/>
<polygon fill="red" stroke="red" stroke-width="0.91" points="399.02,-22.65 408.72,-18.4 398.49,-15.67 399.02,-22.65"/>
</g>
<!-- &#45;25 -->
<g id="node25" class="node">
<title>&#45;25</title>
<polygon fill="lightgray" stroke="black" points="1240,-86.53 1208,-86.53 1208,-68.53 1240,-68.53 1240,-86.53"/>
<text text-anchor="middle" x="1224" y="-75.33" font-family="Times,serif" font-size="9.00">&#45;25</text>
</g>
<!-- &#45;25&#45;&gt;1 -->
<g id="edge56" class="edge">
<title>&#45;25&#45;&gt;1</title>
<path fill="none" stroke="green" stroke-width="0.86" d="M1207.99,-70.86C1205.03,-69.97 1201.94,-69.14 1199,-68.53 1152.28,-58.77 820.83,-28.37 724.31,-19.63"/>
<polygon fill="green" stroke="green" stroke-width="0.86" points="724.5,-16.14 714.23,-18.72 723.87,-23.11 724.5,-16.14"/>
</g>
<!-- &#45;25&#45;&gt;2 -->
<g id="edge4" class="edge">
<title>&#45;25&#45;&gt;2</title>
<path fill="none" stroke="red" stroke-width="1.26" stroke-dasharray="1,5" d="M1207.95,-71.04C1205,-70.13 1201.92,-69.25 1199,-68.53 1103.05,-44.81 986.64,-27.68 935.39,-20.71"/>
<polygon fill="red" stroke="red" stroke-width="1.26" points="935.57,-17.21 925.19,-19.34 934.64,-24.14 935.57,-17.21"/>
</g>
<!-- &#45;25&#45;&gt;3 -->
<g id="edge1" class="edge">
<title>&#45;25&#45;&gt;3</title>
<path fill="none" stroke="red" stroke-width="0.15" d="M1210.1,-68.29C1193.68,-58.56 1166.14,-42.24 1146.63,-30.68"/>
<polygon fill="red" stroke="red" stroke-width="0.15" points="1148.17,-27.52 1137.79,-25.43 1144.6,-33.54 1148.17,-27.52"/>
</g>
<!-- &#45;26 -->
<g id="node26" class="node">
<title>&#45;26</title>
<polygon fill="lightgray" stroke="black" points="370,-86.53 338,-86.53 338,-68.53 370,-68.53 370,-86.53"/>
<text text-anchor="middle" x="354" y="-75.33" font-family="Times,serif" font-size="9.00">&#45;26</text>
</g>
<!-- &#45;26&#45;&gt;1 -->
<g id="edge53" class="edge">
<title>&#45;26&#45;&gt;1</title>
<path fill="none" stroke="green" stroke-width="0.57" stroke-dasharray="1,5" d="M370.04,-71C373,-70.1 376.07,-69.23 379,-68.53 486.19,-42.92 616.73,-26.42 671.66,-20.14"/>
<polygon fill="green" stroke="green" stroke-width="0.57" points="672.35,-23.58 681.9,-18.98 671.57,-16.62 672.35,-23.58"/>
</g>
<!-- &#45;27 -->
<g id="node27" class="node">
<title>&#45;27</title>
<polygon fill="lightgray" stroke="black" points="1290,-86.53 1258,-86.53 1258,-68.53 1290,-68.53 1290,-86.53"/>
<text text-anchor="middle" x="1274" y="-75.33" font-family="Times,serif" font-size="9.00">&#45;27</text>
</g>
<!-- &#45;27&#45;&gt;2 -->
<g id="edge61" class="edge">
<title>&#45;27&#45;&gt;2</title>
<path fill="none" stroke="green" stroke-width="2.02" d="M1257.97,-70.98C1255.01,-70.08 1251.93,-69.21 1249,-68.53 1133.5,-41.52 992.47,-25.56 935.12,-19.76"/>
<polygon fill="green" stroke="green" stroke-width="2.02" points="935.4,-16.27 925.1,-18.77 934.71,-23.24 935.4,-16.27"/>
</g>
<!-- &#45;28 -->
<g id="node28" class="node">
<title>&#45;28</title>
<polygon fill="lightgray" stroke="black" points="1340,-86.53 1308,-86.53 1308,-68.53 1340,-68.53 1340,-86.53"/>
<text text-anchor="middle" x="1324" y="-75.33" font-family="Times,serif" font-size="9.00">&#45;28</text>
</g>
<!-- &#45;28&#45;&gt;2 -->
<g id="edge12" class="edge">
<title>&#45;28&#45;&gt;2</title>
<path fill="none" stroke="red" stroke-width="0.17" stroke-dasharray="1,5" d="M1307.98,-70.93C1305.02,-70.03 1301.94,-69.18 1299,-68.53 1164.15,-38.34 998.81,-23.85 935.44,-19.1"/>
<polygon fill="red" stroke="red" stroke-width="0.17" points="935.38,-15.58 925.15,-18.35 934.87,-22.57 935.38,-15.58"/>
</g>
<!-- &#45;29 -->
<g id="node29" class="node">
<title>&#45;29</title>
<polygon fill="lightgray" stroke="black" points="1784,-86.53 1752,-86.53 1752,-68.53 1784,-68.53 1784,-86.53"/>
<text text-anchor="middle" x="1768" y="-75.33" font-family="Times,serif" font-size="9.00">&#45;29</text>
</g>
<!-- &#45;29&#45;&gt;3 -->
<g id="edge28" class="edge">
<title>&#45;29&#45;&gt;3</title>
<path fill="none" stroke="red" stroke-width="0.15" d="M1751.73,-70.74C1748.85,-69.88 1745.86,-69.1 1743,-68.53 1517.05,-23.63 1237.14,-17.97 1150.68,-17.32"/>
<polygon fill="red" stroke="red" stroke-width="0.15" points="1150.47,-13.82 1140.45,-17.26 1150.43,-20.82 1150.47,-13.82"/>
</g>
<!-- &#45;30 -->
<g id="node30" class="node">
<title>&#45;30</title>
<polygon fill="lightgray" stroke="black" points="764,-86.53 732,-86.53 732,-68.53 764,-68.53 764,-86.53"/>
<text text-anchor="middle" x="748" y="-75.33" font-family="Times,serif" font-size="9.00">&#45;30</text>
</g>
<!-- &#45;30&#45;&gt;1 -->
<g id="edge3" class="edge">
<title>&#45;30&#45;&gt;1</title>
<path fill="none" stroke="red" stroke-width="1.05" d="M741.05,-68.29C734.21,-60.18 723.5,-47.49 714.48,-36.79"/>
<polygon fill="red" stroke="red" stroke-width="1.05" points="717.12,-34.5 708,-29.11 711.77,-39.01 717.12,-34.5"/>
</g>
<!-- &#45;30&#45;&gt;2 -->
<g id="edge17" class="edge">
<title>&#45;30&#45;&gt;2</title>
<path fill="none" stroke="red" stroke-width="0.19" stroke-dasharray="1,5" d="M764.03,-70.63C792.28,-60.23 851.12,-38.57 884.5,-26.28"/>
<polygon fill="red" stroke="red" stroke-width="0.19" points="885.8,-29.53 893.98,-22.79 883.39,-22.96 885.8,-29.53"/>
</g>
<!-- &#45;31 -->
<g id="node31" class="node">
<title>&#45;31</title>
<polygon fill="lightgray" stroke="black" points="564,-86.53 532,-86.53 532,-68.53 564,-68.53 564,-86.53"/>
<text text-anchor="middle" x="548" y="-75.33" font-family="Times,serif" font-size="9.00">&#45;31</text>
</g>
<!-- &#45;31&#45;&gt;0 -->
<g id="edge11" class="edge">
<title>&#45;31&#45;&gt;0</title>
<path fill="none" stroke="green" stroke-width="0.55" stroke-dasharray="1,5" d="M531.92,-68.78C510.74,-58.58 473.33,-40.55 448.86,-28.76"/>
<polygon fill="green" stroke="green" stroke-width="0.55" points="450.08,-25.46 439.55,-24.27 447.04,-31.77 450.08,-25.46"/>
</g>
<!-- &#45;31&#45;&gt;1 -->
<g id="edge72" class="edge">
<title>&#45;31&#45;&gt;1</title>
<path fill="none" stroke="red" stroke-width="1.69" stroke-dasharray="1,5" d="M564.05,-70.18C590.26,-59.83 642.42,-39.22 673.35,-27"/>
<polygon fill="red" stroke="red" stroke-width="1.69" points="674.94,-30.14 682.96,-23.21 672.37,-23.63 674.94,-30.14"/>
</g>
<!-- &#45;31&#45;&gt;2 -->
<g id="edge37" class="edge">
<title>&#45;31&#45;&gt;2</title>
<path fill="none" stroke="red" stroke-width="0.38" stroke-dasharray="1,5" d="M564.03,-70.98C566.99,-70.08 570.07,-69.21 573,-68.53 686.87,-41.8 825.85,-25.73 882.78,-19.83"/>
<polygon fill="red" stroke="red" stroke-width="0.38" points="883.15,-23.32 892.74,-18.82 882.44,-16.35 883.15,-23.32"/>
</g>
<!-- &#45;32 -->
<g id="node32" class="node">
<title>&#45;32</title>
<polygon fill="lightgray" stroke="black" points="1390,-86.53 1358,-86.53 1358,-68.53 1390,-68.53 1390,-86.53"/>
<text text-anchor="middle" x="1374" y="-75.33" font-family="Times,serif" font-size="9.00">&#45;32</text>
</g>
<!-- &#45;32&#45;&gt;2 -->
<g id="edge52" class="edge">
<title>&#45;32&#45;&gt;2</title>
<path fill="none" stroke="red" stroke-width="1.66" stroke-dasharray="1,5" d="M1357.99,-70.9C1355.03,-70 1351.94,-69.16 1349,-68.53 1268.97,-51.23 1017.65,-27.24 935.37,-19.66"/>
<polygon fill="red" stroke="red" stroke-width="1.66" points="935.61,-16.17 925.34,-18.74 934.97,-23.14 935.61,-16.17"/>
</g>
<!-- &#45;33 -->
<g id="node33" class="node">
<title>&#45;33</title>
<polygon fill="lightgray" stroke="black" points="1634,-86.53 1602,-86.53 1602,-68.53 1634,-68.53 1634,-86.53"/>
<text text-anchor="middle" x="1618" y="-75.33" font-family="Times,serif" font-size="9.00">&#45;33</text>
</g>
<!-- &#45;33&#45;&gt;3 -->
<g id="edge8" class="edge">
<title>&#45;33&#45;&gt;3</title>
<path fill="none" stroke="red" stroke-width="1.25" d="M1601.99,-70.88C1599.03,-69.99 1595.94,-69.15 1593,-68.53 1427.21,-33.31 1223.01,-21.53 1150.81,-18.31"/>
<polygon fill="red" stroke="red" stroke-width="1.25" points="1150.53,-14.8 1140.39,-17.86 1150.23,-21.79 1150.53,-14.8"/>
</g>
<!-- &#45;34 -->
<g id="node34" class="node">
<title>&#45;34</title>
<polygon fill="lightgray" stroke="black" points="902,-86.53 870,-86.53 870,-68.53 902,-68.53 902,-86.53"/>
<text text-anchor="middle" x="886" y="-75.33" font-family="Times,serif" font-size="9.00">&#45;34</text>
</g>
<!-- &#45;34&#45;&gt;0 -->
<g id="edge74" class="edge">
<title>&#45;34&#45;&gt;0</title>
<path fill="none" stroke="red" stroke-width="0.56" stroke-dasharray="1,5" d="M869.99,-70.9C867.02,-70 863.94,-69.16 861,-68.53 708.24,-35.43 520.42,-22.46 451.75,-18.61"/>
<polygon fill="red" stroke="red" stroke-width="0.56" points="451.59,-15.1 441.42,-18.05 451.21,-22.09 451.59,-15.1"/>
</g>
<!-- &#45;34&#45;&gt;1 -->
<g id="edge70" class="edge">
<title>&#45;34&#45;&gt;1</title>
<path fill="none" stroke="red" stroke-width="1.26" d="M869.87,-71.35C866.92,-70.41 863.87,-69.44 861,-68.53 812.22,-53.05 755.17,-35.16 723.14,-25.13"/>
<polygon fill="red" stroke="red" stroke-width="1.26" points="723.88,-21.69 713.29,-22.04 721.79,-28.37 723.88,-21.69"/>
</g>
<!-- &#45;34&#45;&gt;2 -->
<g id="edge42" class="edge">
<title>&#45;34&#45;&gt;2</title>
<path fill="none" stroke="green" stroke-width="0.2" d="M889.2,-68.29C891.91,-61.3 895.94,-50.91 899.66,-41.33"/>
<polygon fill="green" stroke="green" stroke-width="0.2" points="903,-42.41 903.35,-31.82 896.47,-39.87 903,-42.41"/>
</g>
<!-- &#45;34&#45;&gt;3 -->
<g id="edge44" class="edge">
<title>&#45;34&#45;&gt;3</title>
<path fill="none" stroke="red" stroke-width="0.41" d="M902.09,-71.19C905.04,-70.26 908.1,-69.34 911,-68.53 978.08,-49.75 1058.19,-31.6 1098.36,-22.79"/>
<polygon fill="red" stroke="red" stroke-width="0.41" points="1099.11,-26.21 1108.13,-20.66 1097.62,-19.37 1099.11,-26.21"/>
</g>
<!-- &#45;35 -->
<g id="node35" class="node">
<title>&#45;35</title>
<polygon fill="lightgray" stroke="black" points="226,-86.53 194,-86.53 194,-68.53 226,-68.53 226,-86.53"/>
<text text-anchor="middle" x="210" y="-75.33" font-family="Times,serif" font-size="9.00">&#45;35</text>
</g>
<!-- &#45;35&#45;&gt;0 -->
<g id="edge71" class="edge">
<title>&#45;35&#45;&gt;0</title>
<path fill="none" stroke="green" stroke-width="1.98" d="M226.1,-71.25C229.06,-70.32 232.12,-69.38 235,-68.53 293.46,-51.3 362.71,-33.19 399.32,-23.79"/>
<polygon fill="green" stroke="green" stroke-width="1.98" points="400.35,-27.14 409.17,-21.27 398.61,-20.36 400.35,-27.14"/>
</g>
<!-- &#45;35&#45;&gt;1 -->
<g id="edge14" class="edge">
<title>&#45;35&#45;&gt;1</title>
<path fill="none" stroke="green" stroke-width="1.81" stroke-dasharray="1,5" d="M226.01,-70.88C228.97,-69.99 232.06,-69.15 235,-68.53 398.3,-33.72 599.34,-21.71 671.04,-18.37"/>
<polygon fill="green" stroke="green" stroke-width="1.81" points="671.57,-21.85 681.41,-17.91 671.26,-14.86 671.57,-21.85"/>
</g>
<!-- &#45;36 -->
<g id="node36" class="node">
<title>&#45;36</title>
<polygon fill="lightgray" stroke="black" points="1140,-86.53 1108,-86.53 1108,-68.53 1140,-68.53 1140,-86.53"/>
<text text-anchor="middle" x="1124" y="-75.33" font-family="Times,serif" font-size="9.00">&#45;36</text>
</g>
<!-- &#45;36&#45;&gt;1 -->
<g id="edge65" class="edge">
<title>&#45;36&#45;&gt;1</title>
<path fill="none" stroke="red" stroke-width="0.24" d="M1107.98,-70.92C1105.02,-70.03 1101.94,-69.18 1099,-68.53 959.74,-37.62 788.85,-23.48 724.33,-18.96"/>
<polygon fill="red" stroke="red" stroke-width="0.24" points="724.44,-15.46 714.23,-18.27 723.97,-22.44 724.44,-15.46"/>
</g>
<!-- &#45;36&#45;&gt;3 -->
<g id="edge66" class="edge">
<title>&#45;36&#45;&gt;3</title>
<path fill="none" stroke="red" stroke-width="0.51" d="M1124,-68.29C1124,-61.7 1124,-52.1 1124,-43"/>
<polygon fill="red" stroke="red" stroke-width="0.51" points="1127.5,-42.76 1124,-32.76 1120.5,-42.76 1127.5,-42.76"/>
</g>
<!-- &#45;37 -->
<g id="node37" class="node">
<title>&#45;37</title>
<polygon fill="lightgray" stroke="black" points="664,-86.53 632,-86.53 632,-68.53 664,-68.53 664,-86.53"/>
<text text-anchor="middle" x="648" y="-75.33" font-family="Times,serif" font-size="9.00">&#45;37</text>
</g>
<!-- &#45;37&#45;&gt;1 -->
<g id="edge6" class="edge">
<title>&#45;37&#45;&gt;1</title>
<path fill="none" stroke="red" stroke-width="0.3" d="M654.95,-68.29C661.79,-60.18 672.5,-47.49 681.52,-36.79"/>
<polygon fill="red" stroke="red" stroke-width="0.3" points="684.23,-39.01 688,-29.11 678.88,-34.5 684.23,-39.01"/>
</g>
<!-- &#45;37&#45;&gt;2 -->
<g id="edge2" class="edge">
<title>&#45;37&#45;&gt;2</title>
<path fill="none" stroke="green" stroke-width="0.98" d="M664.07,-71.13C667.03,-70.21 670.09,-69.31 673,-68.53 748.6,-48.27 839.44,-30.3 883.09,-22.05"/>
<polygon fill="green" stroke="green" stroke-width="0.98" points="883.95,-25.45 893.13,-20.17 882.66,-18.57 883.95,-25.45"/>
</g>
<!-- &#45;38 -->
<g id="node38" class="node">
<title>&#45;38</title>
<polygon fill="lightgray" stroke="black" points="1440,-86.53 1408,-86.53 1408,-68.53 1440,-68.53 1440,-86.53"/>
<text text-anchor="middle" x="1424" y="-75.33" font-family="Times,serif" font-size="9.00">&#45;38</text>
</g>
<!-- &#45;38&#45;&gt;2 -->
<g id="edge21" class="edge">
<title>&#45;38&#45;&gt;2</title>
<path fill="none" stroke="green" stroke-width="1.18" stroke-dasharray="1,5" d="M1407.99,-70.87C1405.03,-69.98 1401.94,-69.14 1399,-68.53 1308.89,-49.61 1023.79,-26.25 935.39,-19.3"/>
<polygon fill="green" stroke="green" stroke-width="1.18" points="935.41,-15.79 925.16,-18.5 934.86,-22.77 935.41,-15.79"/>
</g>
<!-- &#45;39 -->
<g id="node39" class="node">
<title>&#45;39</title>
<polygon fill="lightgray" stroke="black" points="276,-86.53 244,-86.53 244,-68.53 276,-68.53 276,-86.53"/>
<text text-anchor="middle" x="260" y="-75.33" font-family="Times,serif" font-size="9.00">&#45;39</text>
</g>
<!-- &#45;39&#45;&gt;0 -->
<g id="edge19" class="edge">
<title>&#45;39&#45;&gt;0</title>
<path fill="none" stroke="green" stroke-width="0.54" stroke-dasharray="1,5" d="M276.12,-70.74C305.08,-60.34 366.05,-38.44 400.31,-26.13"/>
<polygon fill="green" stroke="green" stroke-width="0.54" points="401.78,-29.32 410.01,-22.65 399.42,-22.73 401.78,-29.32"/>
</g>
<!-- &#45;39&#45;&gt;1 -->
<g id="edge29" class="edge">
<title>&#45;39&#45;&gt;1</title>
<path fill="none" stroke="red" stroke-width="1.07" d="M276.02,-70.92C278.98,-70.02 282.06,-69.17 285,-68.53 428.75,-36.9 605.24,-23.14 671.34,-18.85"/>
<polygon fill="red" stroke="red" stroke-width="1.07" points="671.92,-22.32 681.68,-18.19 671.48,-15.33 671.92,-22.32"/>
</g>
<!-- &#45;40 -->
<g id="node40" class="node">
<title>&#45;40</title>
<polygon fill="lightgray" stroke="black" points="1190,-86.53 1158,-86.53 1158,-68.53 1190,-68.53 1190,-86.53"/>
<text text-anchor="middle" x="1174" y="-75.33" font-family="Times,serif" font-size="9.00">&#45;40</text>
</g>
<!-- &#45;40&#45;&gt;1 -->
<g id="edge32" class="edge">
<title>&#45;40&#45;&gt;1</title>
<path fill="none" stroke="red" stroke-width="0.77" stroke-dasharray="1,5" d="M1157.99,-70.89C1155.03,-70 1151.94,-69.16 1149,-68.53 1066.78,-50.88 808.21,-27.03 724.46,-19.58"/>
<polygon fill="red" stroke="red" stroke-width="0.77" points="724.54,-16.08 714.27,-18.68 723.92,-23.05 724.54,-16.08"/>
</g>
<!-- &#45;40&#45;&gt;3 -->
<g id="edge9" class="edge">
<title>&#45;40&#45;&gt;3</title>
<path fill="none" stroke="red" stroke-width="0.34" d="M1167.05,-68.29C1160.21,-60.18 1149.5,-47.49 1140.48,-36.79"/>
<polygon fill="red" stroke="red" stroke-width="0.34" points="1143.12,-34.5 1134,-29.11 1137.77,-39.01 1143.12,-34.5"/>
</g>
<!-- 0&#45;&gt;0 -->
<g id="edge48" class="edge">
<title>0&#45;&gt;0</title>
<path fill="none" stroke="green" stroke-width="0.42" stroke-dasharray="1,5" d="M438.36,-26.06C448.71,-29.72 459.26,-26.46 459.26,-16.26 459.26,-9.57 454.72,-5.87 448.67,-5.14"/>
<polygon fill="green" stroke="green" stroke-width="0.42" points="447.84,-1.72 438.36,-6.47 448.73,-8.67 447.84,-1.72"/>
</g>
<!-- 1&#45;&gt;1 -->
<g id="edge41" class="edge">
<title>1&#45;&gt;1</title>
<path fill="none" stroke="red" stroke-width="0.82" d="M711.36,-26.06C721.71,-29.72 732.26,-26.46 732.26,-16.26 732.26,-9.57 727.72,-5.87 721.67,-5.14"/>
<polygon fill="red" stroke="red" stroke-width="0.82" points="720.84,-1.72 711.36,-6.47 721.73,-8.67 720.84,-1.72"/>
</g>
<!-- 3&#45;&gt;3 -->
<g id="edge23" class="edge">
<title>3&#45;&gt;3</title>
<path fill="none" stroke="green" stroke-width="0.34" d="M1137.36,-26.06C1147.71,-29.72 1158.26,-26.46 1158.26,-16.26 1158.26,-9.57 1153.72,-5.87 1147.67,-5.14"/>
<polygon fill="green" stroke="green" stroke-width="0.34" points="1146.84,-1.72 1137.36,-6.47 1147.73,-8.67 1146.84,-1.72"/>
</g>
</g>
</svg>
