<?xml version="1.0" encoding="utf-8" standalone="no"?>
<!DOCTYPE svg PUBLIC "-//W3C//DTD SVG 1.1//EN"
  "http://www.w3.org/Graphics/SVG/1.1/DTD/svg11.dtd">
<svg xmlns:xlink="http://www.w3.org/1999/xlink" width="460.8pt" height="345.6pt" viewBox="0 0 460.8 345.6" xmlns="http://www.w3.org/2000/svg" version="1.1">
 <metadata>
  <rdf:RDF xmlns:dc="http://purl.org/dc/elements/1.1/" xmlns:cc="http://creativecommons.org/ns#" xmlns:rdf="http://www.w3.org/1999/02/22-rdf-syntax-ns#">
   <cc:Work>
    <dc:type rdf:resource="http://purl.org/dc/dcmitype/StillImage"/>
    <dc:date>2024-08-20T02:34:26.448120</dc:date>
    <dc:format>image/svg+xml</dc:format>
    <dc:creator>
     <cc:Agent>
      <dc:title>Matplotlib v3.8.4, https://matplotlib.org/</dc:title>
     </cc:Agent>
    </dc:creator>
   </cc:Work>
  </rdf:RDF>
 </metadata>
 <defs>
  <style type="text/css">*{stroke-linejoin: round; stroke-linecap: butt}</style>
 </defs>
 <g id="figure_1">
  <g id="patch_1">
   <path d="M 0 345.6 
L 460.8 345.6 
L 460.8 0 
L 0 0 
z
" style="fill: #ffffff"/>
  </g>
  <g id="axes_1">
   <g id="patch_2">
    <path d="M 57.6 307.584 
L 414.72 307.584 
L 414.72 41.472 
L 57.6 41.472 
z
" style="fill: #ffffff"/>
   </g>
   <g id="matplotlib.axis_1">
    <g id="xtick_1">
     <g id="line2d_1">
      <path d="M 73.832727 307.584 
L 73.832727 41.472 
" clip-path="url(#p34e5373548)" style="fill: none; stroke: #b0b0b0; stroke-width: 0.8; stroke-linecap: square"/>
     </g>
     <g id="line2d_2">
      <defs>
       <path id="md2be8b6497" d="M 0 0 
L 0 3.5 
" style="stroke: #000000; stroke-width: 0.8"/>
      </defs>
      <g>
       <use xlink:href="#md2be8b6497" x="73.832727" y="307.584" style="stroke: #000000; stroke-width: 0.8"/>
      </g>
     </g>
     <g id="text_1">
      <!-- 0 -->
      <g transform="translate(70.651477 322.182437) scale(0.1 -0.1)">
       <defs>
        <path id="DejaVuSans-30" d="M 2034 4250 
Q 1547 4250 1301 3770 
Q 1056 3291 1056 2328 
Q 1056 1369 1301 889 
Q 1547 409 2034 409 
Q 2525 409 2770 889 
Q 3016 1369 3016 2328 
Q 3016 3291 2770 3770 
Q 2525 4250 2034 4250 
z
M 2034 4750 
Q 2819 4750 3233 4129 
Q 3647 3509 3647 2328 
Q 3647 1150 3233 529 
Q 2819 -91 2034 -91 
Q 1250 -91 836 529 
Q 422 1150 422 2328 
Q 422 3509 836 4129 
Q 1250 4750 2034 4750 
z
" transform="scale(0.015625)"/>
       </defs>
       <use xlink:href="#DejaVuSans-30"/>
      </g>
     </g>
    </g>
    <g id="xtick_2">
     <g id="line2d_3">
      <path d="M 114.618474 307.584 
L 114.618474 41.472 
" clip-path="url(#p34e5373548)" style="fill: none; stroke: #b0b0b0; stroke-width: 0.8; stroke-linecap: square"/>
     </g>
     <g id="line2d_4">
      <g>
       <use xlink:href="#md2be8b6497" x="114.618474" y="307.584" style="stroke: #000000; stroke-width: 0.8"/>
      </g>
     </g>
     <g id="text_2">
      <!-- 25 -->
      <g transform="translate(108.255974 322.182437) scale(0.1 -0.1)">
       <defs>
        <path id="DejaVuSans-32" d="M 1228 531 
L 3431 531 
L 3431 0 
L 469 0 
L 469 531 
Q 828 903 1448 1529 
Q 2069 2156 2228 2338 
Q 2531 2678 2651 2914 
Q 2772 3150 2772 3378 
Q 2772 3750 2511 3984 
Q 2250 4219 1831 4219 
Q 1534 4219 1204 4116 
Q 875 4013 500 3803 
L 500 4441 
Q 881 4594 1212 4672 
Q 1544 4750 1819 4750 
Q 2544 4750 2975 4387 
Q 3406 4025 3406 3419 
Q 3406 3131 3298 2873 
Q 3191 2616 2906 2266 
Q 2828 2175 2409 1742 
Q 1991 1309 1228 531 
z
" transform="scale(0.015625)"/>
        <path id="DejaVuSans-35" d="M 691 4666 
L 3169 4666 
L 3169 4134 
L 1269 4134 
L 1269 2991 
Q 1406 3038 1543 3061 
Q 1681 3084 1819 3084 
Q 2600 3084 3056 2656 
Q 3513 2228 3513 1497 
Q 3513 744 3044 326 
Q 2575 -91 1722 -91 
Q 1428 -91 1123 -41 
Q 819 9 494 109 
L 494 744 
Q 775 591 1075 516 
Q 1375 441 1709 441 
Q 2250 441 2565 725 
Q 2881 1009 2881 1497 
Q 2881 1984 2565 2268 
Q 2250 2553 1709 2553 
Q 1456 2553 1204 2497 
Q 953 2441 691 2322 
L 691 4666 
z
" transform="scale(0.015625)"/>
       </defs>
       <use xlink:href="#DejaVuSans-32"/>
       <use xlink:href="#DejaVuSans-35" x="63.623047"/>
      </g>
     </g>
    </g>
    <g id="xtick_3">
     <g id="line2d_5">
      <path d="M 155.404221 307.584 
L 155.404221 41.472 
" clip-path="url(#p34e5373548)" style="fill: none; stroke: #b0b0b0; stroke-width: 0.8; stroke-linecap: square"/>
     </g>
     <g id="line2d_6">
      <g>
       <use xlink:href="#md2be8b6497" x="155.404221" y="307.584" style="stroke: #000000; stroke-width: 0.8"/>
      </g>
     </g>
     <g id="text_3">
      <!-- 50 -->
      <g transform="translate(149.041721 322.182437) scale(0.1 -0.1)">
       <use xlink:href="#DejaVuSans-35"/>
       <use xlink:href="#DejaVuSans-30" x="63.623047"/>
      </g>
     </g>
    </g>
    <g id="xtick_4">
     <g id="line2d_7">
      <path d="M 196.189968 307.584 
L 196.189968 41.472 
" clip-path="url(#p34e5373548)" style="fill: none; stroke: #b0b0b0; stroke-width: 0.8; stroke-linecap: square"/>
     </g>
     <g id="line2d_8">
      <g>
       <use xlink:href="#md2be8b6497" x="196.189968" y="307.584" style="stroke: #000000; stroke-width: 0.8"/>
      </g>
     </g>
     <g id="text_4">
      <!-- 75 -->
      <g transform="translate(189.827468 322.182437) scale(0.1 -0.1)">
       <defs>
        <path id="DejaVuSans-37" d="M 525 4666 
L 3525 4666 
L 3525 4397 
L 1831 0 
L 1172 0 
L 2766 4134 
L 525 4134 
L 525 4666 
z
" transform="scale(0.015625)"/>
       </defs>
       <use xlink:href="#DejaVuSans-37"/>
       <use xlink:href="#DejaVuSans-35" x="63.623047"/>
      </g>
     </g>
    </g>
    <g id="xtick_5">
     <g id="line2d_9">
      <path d="M 236.975715 307.584 
L 236.975715 41.472 
" clip-path="url(#p34e5373548)" style="fill: none; stroke: #b0b0b0; stroke-width: 0.8; stroke-linecap: square"/>
     </g>
     <g id="line2d_10">
      <g>
       <use xlink:href="#md2be8b6497" x="236.975715" y="307.584" style="stroke: #000000; stroke-width: 0.8"/>
      </g>
     </g>
     <g id="text_5">
      <!-- 100 -->
      <g transform="translate(227.431965 322.182437) scale(0.1 -0.1)">
       <defs>
        <path id="DejaVuSans-31" d="M 794 531 
L 1825 531 
L 1825 4091 
L 703 3866 
L 703 4441 
L 1819 4666 
L 2450 4666 
L 2450 531 
L 3481 531 
L 3481 0 
L 794 0 
L 794 531 
z
" transform="scale(0.015625)"/>
       </defs>
       <use xlink:href="#DejaVuSans-31"/>
       <use xlink:href="#DejaVuSans-30" x="63.623047"/>
       <use xlink:href="#DejaVuSans-30" x="127.246094"/>
      </g>
     </g>
    </g>
    <g id="xtick_6">
     <g id="line2d_11">
      <path d="M 277.761462 307.584 
L 277.761462 41.472 
" clip-path="url(#p34e5373548)" style="fill: none; stroke: #b0b0b0; stroke-width: 0.8; stroke-linecap: square"/>
     </g>
     <g id="line2d_12">
      <g>
       <use xlink:href="#md2be8b6497" x="277.761462" y="307.584" style="stroke: #000000; stroke-width: 0.8"/>
      </g>
     </g>
     <g id="text_6">
      <!-- 125 -->
      <g transform="translate(268.217712 322.182437) scale(0.1 -0.1)">
       <use xlink:href="#DejaVuSans-31"/>
       <use xlink:href="#DejaVuSans-32" x="63.623047"/>
       <use xlink:href="#DejaVuSans-35" x="127.246094"/>
      </g>
     </g>
    </g>
    <g id="xtick_7">
     <g id="line2d_13">
      <path d="M 318.547209 307.584 
L 318.547209 41.472 
" clip-path="url(#p34e5373548)" style="fill: none; stroke: #b0b0b0; stroke-width: 0.8; stroke-linecap: square"/>
     </g>
     <g id="line2d_14">
      <g>
       <use xlink:href="#md2be8b6497" x="318.547209" y="307.584" style="stroke: #000000; stroke-width: 0.8"/>
      </g>
     </g>
     <g id="text_7">
      <!-- 150 -->
      <g transform="translate(309.003459 322.182437) scale(0.1 -0.1)">
       <use xlink:href="#DejaVuSans-31"/>
       <use xlink:href="#DejaVuSans-35" x="63.623047"/>
       <use xlink:href="#DejaVuSans-30" x="127.246094"/>
      </g>
     </g>
    </g>
    <g id="xtick_8">
     <g id="line2d_15">
      <path d="M 359.332956 307.584 
L 359.332956 41.472 
" clip-path="url(#p34e5373548)" style="fill: none; stroke: #b0b0b0; stroke-width: 0.8; stroke-linecap: square"/>
     </g>
     <g id="line2d_16">
      <g>
       <use xlink:href="#md2be8b6497" x="359.332956" y="307.584" style="stroke: #000000; stroke-width: 0.8"/>
      </g>
     </g>
     <g id="text_8">
      <!-- 175 -->
      <g transform="translate(349.789206 322.182437) scale(0.1 -0.1)">
       <use xlink:href="#DejaVuSans-31"/>
       <use xlink:href="#DejaVuSans-37" x="63.623047"/>
       <use xlink:href="#DejaVuSans-35" x="127.246094"/>
      </g>
     </g>
    </g>
    <g id="xtick_9">
     <g id="line2d_17">
      <path d="M 400.118703 307.584 
L 400.118703 41.472 
" clip-path="url(#p34e5373548)" style="fill: none; stroke: #b0b0b0; stroke-width: 0.8; stroke-linecap: square"/>
     </g>
     <g id="line2d_18">
      <g>
       <use xlink:href="#md2be8b6497" x="400.118703" y="307.584" style="stroke: #000000; stroke-width: 0.8"/>
      </g>
     </g>
     <g id="text_9">
      <!-- 200 -->
      <g transform="translate(390.574953 322.182437) scale(0.1 -0.1)">
       <use xlink:href="#DejaVuSans-32"/>
       <use xlink:href="#DejaVuSans-30" x="63.623047"/>
       <use xlink:href="#DejaVuSans-30" x="127.246094"/>
      </g>
     </g>
    </g>
    <g id="text_10">
     <!-- Generations -->
     <g transform="translate(205.662344 335.860562) scale(0.1 -0.1)">
      <defs>
       <path id="DejaVuSans-47" d="M 3809 666 
L 3809 1919 
L 2778 1919 
L 2778 2438 
L 4434 2438 
L 4434 434 
Q 4069 175 3628 42 
Q 3188 -91 2688 -91 
Q 1594 -91 976 548 
Q 359 1188 359 2328 
Q 359 3472 976 4111 
Q 1594 4750 2688 4750 
Q 3144 4750 3555 4637 
Q 3966 4525 4313 4306 
L 4313 3634 
Q 3963 3931 3569 4081 
Q 3175 4231 2741 4231 
Q 1884 4231 1454 3753 
Q 1025 3275 1025 2328 
Q 1025 1384 1454 906 
Q 1884 428 2741 428 
Q 3075 428 3337 486 
Q 3600 544 3809 666 
z
" transform="scale(0.015625)"/>
       <path id="DejaVuSans-65" d="M 3597 1894 
L 3597 1613 
L 953 1613 
Q 991 1019 1311 708 
Q 1631 397 2203 397 
Q 2534 397 2845 478 
Q 3156 559 3463 722 
L 3463 178 
Q 3153 47 2828 -22 
Q 2503 -91 2169 -91 
Q 1331 -91 842 396 
Q 353 884 353 1716 
Q 353 2575 817 3079 
Q 1281 3584 2069 3584 
Q 2775 3584 3186 3129 
Q 3597 2675 3597 1894 
z
M 3022 2063 
Q 3016 2534 2758 2815 
Q 2500 3097 2075 3097 
Q 1594 3097 1305 2825 
Q 1016 2553 972 2059 
L 3022 2063 
z
" transform="scale(0.015625)"/>
       <path id="DejaVuSans-6e" d="M 3513 2113 
L 3513 0 
L 2938 0 
L 2938 2094 
Q 2938 2591 2744 2837 
Q 2550 3084 2163 3084 
Q 1697 3084 1428 2787 
Q 1159 2491 1159 1978 
L 1159 0 
L 581 0 
L 581 3500 
L 1159 3500 
L 1159 2956 
Q 1366 3272 1645 3428 
Q 1925 3584 2291 3584 
Q 2894 3584 3203 3211 
Q 3513 2838 3513 2113 
z
" transform="scale(0.015625)"/>
       <path id="DejaVuSans-72" d="M 2631 2963 
Q 2534 3019 2420 3045 
Q 2306 3072 2169 3072 
Q 1681 3072 1420 2755 
Q 1159 2438 1159 1844 
L 1159 0 
L 581 0 
L 581 3500 
L 1159 3500 
L 1159 2956 
Q 1341 3275 1631 3429 
Q 1922 3584 2338 3584 
Q 2397 3584 2469 3576 
Q 2541 3569 2628 3553 
L 2631 2963 
z
" transform="scale(0.015625)"/>
       <path id="DejaVuSans-61" d="M 2194 1759 
Q 1497 1759 1228 1600 
Q 959 1441 959 1056 
Q 959 750 1161 570 
Q 1363 391 1709 391 
Q 2188 391 2477 730 
Q 2766 1069 2766 1631 
L 2766 1759 
L 2194 1759 
z
M 3341 1997 
L 3341 0 
L 2766 0 
L 2766 531 
Q 2569 213 2275 61 
Q 1981 -91 1556 -91 
Q 1019 -91 701 211 
Q 384 513 384 1019 
Q 384 1609 779 1909 
Q 1175 2209 1959 2209 
L 2766 2209 
L 2766 2266 
Q 2766 2663 2505 2880 
Q 2244 3097 1772 3097 
Q 1472 3097 1187 3025 
Q 903 2953 641 2809 
L 641 3341 
Q 956 3463 1253 3523 
Q 1550 3584 1831 3584 
Q 2591 3584 2966 3190 
Q 3341 2797 3341 1997 
z
" transform="scale(0.015625)"/>
       <path id="DejaVuSans-74" d="M 1172 4494 
L 1172 3500 
L 2356 3500 
L 2356 3053 
L 1172 3053 
L 1172 1153 
Q 1172 725 1289 603 
Q 1406 481 1766 481 
L 2356 481 
L 2356 0 
L 1766 0 
Q 1100 0 847 248 
Q 594 497 594 1153 
L 594 3053 
L 172 3053 
L 172 3500 
L 594 3500 
L 594 4494 
L 1172 4494 
z
" transform="scale(0.015625)"/>
       <path id="DejaVuSans-69" d="M 603 3500 
L 1178 3500 
L 1178 0 
L 603 0 
L 603 3500 
z
M 603 4863 
L 1178 4863 
L 1178 4134 
L 603 4134 
L 603 4863 
z
" transform="scale(0.015625)"/>
       <path id="DejaVuSans-6f" d="M 1959 3097 
Q 1497 3097 1228 2736 
Q 959 2375 959 1747 
Q 959 1119 1226 758 
Q 1494 397 1959 397 
Q 2419 397 2687 759 
Q 2956 1122 2956 1747 
Q 2956 2369 2687 2733 
Q 2419 3097 1959 3097 
z
M 1959 3584 
Q 2709 3584 3137 3096 
Q 3566 2609 3566 1747 
Q 3566 888 3137 398 
Q 2709 -91 1959 -91 
Q 1206 -91 779 398 
Q 353 888 353 1747 
Q 353 2609 779 3096 
Q 1206 3584 1959 3584 
z
" transform="scale(0.015625)"/>
       <path id="DejaVuSans-73" d="M 2834 3397 
L 2834 2853 
Q 2591 2978 2328 3040 
Q 2066 3103 1784 3103 
Q 1356 3103 1142 2972 
Q 928 2841 928 2578 
Q 928 2378 1081 2264 
Q 1234 2150 1697 2047 
L 1894 2003 
Q 2506 1872 2764 1633 
Q 3022 1394 3022 966 
Q 3022 478 2636 193 
Q 2250 -91 1575 -91 
Q 1294 -91 989 -36 
Q 684 19 347 128 
L 347 722 
Q 666 556 975 473 
Q 1284 391 1588 391 
Q 1994 391 2212 530 
Q 2431 669 2431 922 
Q 2431 1156 2273 1281 
Q 2116 1406 1581 1522 
L 1381 1569 
Q 847 1681 609 1914 
Q 372 2147 372 2553 
Q 372 3047 722 3315 
Q 1072 3584 1716 3584 
Q 2034 3584 2315 3537 
Q 2597 3491 2834 3397 
z
" transform="scale(0.015625)"/>
      </defs>
      <use xlink:href="#DejaVuSans-47"/>
      <use xlink:href="#DejaVuSans-65" x="77.490234"/>
      <use xlink:href="#DejaVuSans-6e" x="139.013672"/>
      <use xlink:href="#DejaVuSans-65" x="202.392578"/>
      <use xlink:href="#DejaVuSans-72" x="263.916016"/>
      <use xlink:href="#DejaVuSans-61" x="305.029297"/>
      <use xlink:href="#DejaVuSans-74" x="366.308594"/>
      <use xlink:href="#DejaVuSans-69" x="405.517578"/>
      <use xlink:href="#DejaVuSans-6f" x="433.300781"/>
      <use xlink:href="#DejaVuSans-6e" x="494.482422"/>
      <use xlink:href="#DejaVuSans-73" x="557.861328"/>
     </g>
    </g>
   </g>
   <g id="matplotlib.axis_2">
    <g id="ytick_1">
     <g id="line2d_19">
      <path d="M 57.6 271.817082 
L 414.72 271.817082 
" clip-path="url(#p34e5373548)" style="fill: none; stroke: #b0b0b0; stroke-width: 0.8; stroke-linecap: square"/>
     </g>
     <g id="line2d_20">
      <defs>
       <path id="m20015c4962" d="M 0 0 
L -3.5 0 
" style="stroke: #000000; stroke-width: 0.8"/>
      </defs>
      <g>
       <use xlink:href="#m20015c4962" x="57.6" y="271.817082" style="stroke: #000000; stroke-width: 0.8"/>
      </g>
     </g>
     <g id="text_11">
      <!-- −1500 -->
      <g transform="translate(16.770313 275.616301) scale(0.1 -0.1)">
       <defs>
        <path id="DejaVuSans-2212" d="M 678 2272 
L 4684 2272 
L 4684 1741 
L 678 1741 
L 678 2272 
z
" transform="scale(0.015625)"/>
       </defs>
       <use xlink:href="#DejaVuSans-2212"/>
       <use xlink:href="#DejaVuSans-31" x="83.789062"/>
       <use xlink:href="#DejaVuSans-35" x="147.412109"/>
       <use xlink:href="#DejaVuSans-30" x="211.035156"/>
       <use xlink:href="#DejaVuSans-30" x="274.658203"/>
      </g>
     </g>
    </g>
    <g id="ytick_2">
     <g id="line2d_21">
      <path d="M 57.6 235.018552 
L 414.72 235.018552 
" clip-path="url(#p34e5373548)" style="fill: none; stroke: #b0b0b0; stroke-width: 0.8; stroke-linecap: square"/>
     </g>
     <g id="line2d_22">
      <g>
       <use xlink:href="#m20015c4962" x="57.6" y="235.018552" style="stroke: #000000; stroke-width: 0.8"/>
      </g>
     </g>
     <g id="text_12">
      <!-- −1475 -->
      <g transform="translate(16.770313 238.817771) scale(0.1 -0.1)">
       <defs>
        <path id="DejaVuSans-34" d="M 2419 4116 
L 825 1625 
L 2419 1625 
L 2419 4116 
z
M 2253 4666 
L 3047 4666 
L 3047 1625 
L 3713 1625 
L 3713 1100 
L 3047 1100 
L 3047 0 
L 2419 0 
L 2419 1100 
L 313 1100 
L 313 1709 
L 2253 4666 
z
" transform="scale(0.015625)"/>
       </defs>
       <use xlink:href="#DejaVuSans-2212"/>
       <use xlink:href="#DejaVuSans-31" x="83.789062"/>
       <use xlink:href="#DejaVuSans-34" x="147.412109"/>
       <use xlink:href="#DejaVuSans-37" x="211.035156"/>
       <use xlink:href="#DejaVuSans-35" x="274.658203"/>
      </g>
     </g>
    </g>
    <g id="ytick_3">
     <g id="line2d_23">
      <path d="M 57.6 198.220022 
L 414.72 198.220022 
" clip-path="url(#p34e5373548)" style="fill: none; stroke: #b0b0b0; stroke-width: 0.8; stroke-linecap: square"/>
     </g>
     <g id="line2d_24">
      <g>
       <use xlink:href="#m20015c4962" x="57.6" y="198.220022" style="stroke: #000000; stroke-width: 0.8"/>
      </g>
     </g>
     <g id="text_13">
      <!-- −1450 -->
      <g transform="translate(16.770313 202.019241) scale(0.1 -0.1)">
       <use xlink:href="#DejaVuSans-2212"/>
       <use xlink:href="#DejaVuSans-31" x="83.789062"/>
       <use xlink:href="#DejaVuSans-34" x="147.412109"/>
       <use xlink:href="#DejaVuSans-35" x="211.035156"/>
       <use xlink:href="#DejaVuSans-30" x="274.658203"/>
      </g>
     </g>
    </g>
    <g id="ytick_4">
     <g id="line2d_25">
      <path d="M 57.6 161.421493 
L 414.72 161.421493 
" clip-path="url(#p34e5373548)" style="fill: none; stroke: #b0b0b0; stroke-width: 0.8; stroke-linecap: square"/>
     </g>
     <g id="line2d_26">
      <g>
       <use xlink:href="#m20015c4962" x="57.6" y="161.421493" style="stroke: #000000; stroke-width: 0.8"/>
      </g>
     </g>
     <g id="text_14">
      <!-- −1425 -->
      <g transform="translate(16.770313 165.220711) scale(0.1 -0.1)">
       <use xlink:href="#DejaVuSans-2212"/>
       <use xlink:href="#DejaVuSans-31" x="83.789062"/>
       <use xlink:href="#DejaVuSans-34" x="147.412109"/>
       <use xlink:href="#DejaVuSans-32" x="211.035156"/>
       <use xlink:href="#DejaVuSans-35" x="274.658203"/>
      </g>
     </g>
    </g>
    <g id="ytick_5">
     <g id="line2d_27">
      <path d="M 57.6 124.622963 
L 414.72 124.622963 
" clip-path="url(#p34e5373548)" style="fill: none; stroke: #b0b0b0; stroke-width: 0.8; stroke-linecap: square"/>
     </g>
     <g id="line2d_28">
      <g>
       <use xlink:href="#m20015c4962" x="57.6" y="124.622963" style="stroke: #000000; stroke-width: 0.8"/>
      </g>
     </g>
     <g id="text_15">
      <!-- −1400 -->
      <g transform="translate(16.770313 128.422182) scale(0.1 -0.1)">
       <use xlink:href="#DejaVuSans-2212"/>
       <use xlink:href="#DejaVuSans-31" x="83.789062"/>
       <use xlink:href="#DejaVuSans-34" x="147.412109"/>
       <use xlink:href="#DejaVuSans-30" x="211.035156"/>
       <use xlink:href="#DejaVuSans-30" x="274.658203"/>
      </g>
     </g>
    </g>
    <g id="ytick_6">
     <g id="line2d_29">
      <path d="M 57.6 87.824433 
L 414.72 87.824433 
" clip-path="url(#p34e5373548)" style="fill: none; stroke: #b0b0b0; stroke-width: 0.8; stroke-linecap: square"/>
     </g>
     <g id="line2d_30">
      <g>
       <use xlink:href="#m20015c4962" x="57.6" y="87.824433" style="stroke: #000000; stroke-width: 0.8"/>
      </g>
     </g>
     <g id="text_16">
      <!-- −1375 -->
      <g transform="translate(16.770313 91.623652) scale(0.1 -0.1)">
       <defs>
        <path id="DejaVuSans-33" d="M 2597 2516 
Q 3050 2419 3304 2112 
Q 3559 1806 3559 1356 
Q 3559 666 3084 287 
Q 2609 -91 1734 -91 
Q 1441 -91 1130 -33 
Q 819 25 488 141 
L 488 750 
Q 750 597 1062 519 
Q 1375 441 1716 441 
Q 2309 441 2620 675 
Q 2931 909 2931 1356 
Q 2931 1769 2642 2001 
Q 2353 2234 1838 2234 
L 1294 2234 
L 1294 2753 
L 1863 2753 
Q 2328 2753 2575 2939 
Q 2822 3125 2822 3475 
Q 2822 3834 2567 4026 
Q 2313 4219 1838 4219 
Q 1578 4219 1281 4162 
Q 984 4106 628 3988 
L 628 4550 
Q 988 4650 1302 4700 
Q 1616 4750 1894 4750 
Q 2613 4750 3031 4423 
Q 3450 4097 3450 3541 
Q 3450 3153 3228 2886 
Q 3006 2619 2597 2516 
z
" transform="scale(0.015625)"/>
       </defs>
       <use xlink:href="#DejaVuSans-2212"/>
       <use xlink:href="#DejaVuSans-31" x="83.789062"/>
       <use xlink:href="#DejaVuSans-33" x="147.412109"/>
       <use xlink:href="#DejaVuSans-37" x="211.035156"/>
       <use xlink:href="#DejaVuSans-35" x="274.658203"/>
      </g>
     </g>
    </g>
    <g id="ytick_7">
     <g id="line2d_31">
      <path d="M 57.6 51.025903 
L 414.72 51.025903 
" clip-path="url(#p34e5373548)" style="fill: none; stroke: #b0b0b0; stroke-width: 0.8; stroke-linecap: square"/>
     </g>
     <g id="line2d_32">
      <g>
       <use xlink:href="#m20015c4962" x="57.6" y="51.025903" style="stroke: #000000; stroke-width: 0.8"/>
      </g>
     </g>
     <g id="text_17">
      <!-- −1350 -->
      <g transform="translate(16.770313 54.825122) scale(0.1 -0.1)">
       <use xlink:href="#DejaVuSans-2212"/>
       <use xlink:href="#DejaVuSans-31" x="83.789062"/>
       <use xlink:href="#DejaVuSans-33" x="147.412109"/>
       <use xlink:href="#DejaVuSans-35" x="211.035156"/>
       <use xlink:href="#DejaVuSans-30" x="274.658203"/>
      </g>
     </g>
    </g>
    <g id="text_18">
     <!-- Fitness -->
     <g transform="translate(10.690625 191.845187) rotate(-90) scale(0.1 -0.1)">
      <defs>
       <path id="DejaVuSans-46" d="M 628 4666 
L 3309 4666 
L 3309 4134 
L 1259 4134 
L 1259 2759 
L 3109 2759 
L 3109 2228 
L 1259 2228 
L 1259 0 
L 628 0 
L 628 4666 
z
" transform="scale(0.015625)"/>
      </defs>
      <use xlink:href="#DejaVuSans-46"/>
      <use xlink:href="#DejaVuSans-69" x="50.269531"/>
      <use xlink:href="#DejaVuSans-74" x="78.052734"/>
      <use xlink:href="#DejaVuSans-6e" x="117.261719"/>
      <use xlink:href="#DejaVuSans-65" x="180.640625"/>
      <use xlink:href="#DejaVuSans-73" x="242.164062"/>
      <use xlink:href="#DejaVuSans-73" x="294.263672"/>
     </g>
    </g>
   </g>
   <g id="line2d_33">
    <path d="M 73.832727 224.193308 
L 75.464157 204.706882 
L 77.095587 194.224531 
L 78.727017 186.801733 
L 80.358447 186.191524 
L 81.989877 176.882867 
L 83.621307 168.992606 
L 85.252736 167.083169 
L 86.884166 162.360704 
L 88.515596 159.008398 
L 90.147026 139.390699 
L 91.778456 136.617291 
L 93.409886 139.290312 
L 95.041316 133.262635 
L 96.672746 125.33307 
L 98.304175 139.597689 
L 99.935605 140.332944 
L 101.567035 136.941803 
L 103.198465 135.171044 
L 104.829895 125.463845 
L 106.461325 125.09076 
L 108.092755 123.063294 
L 109.724185 124.919901 
L 111.355614 131.201578 
L 112.987044 115.834778 
L 114.618474 112.503832 
L 116.249904 111.267517 
L 117.881334 110.689568 
L 119.512764 109.154524 
L 121.144194 104.054306 
L 122.775624 101.731155 
L 124.407053 107.47969 
L 126.038483 105.828398 
L 127.669913 99.079698 
L 129.301343 100.159938 
L 132.564203 104.547397 
L 134.195633 97.612891 
L 135.827063 104.034247 
L 137.458492 101.740973 
L 139.089922 103.78077 
L 140.721352 103.124677 
L 142.352782 109.704421 
L 143.984212 102.267278 
L 145.615642 102.218098 
L 147.247072 105.049247 
L 148.878502 98.636632 
L 150.509931 105.436651 
L 152.141361 103.983689 
L 153.772791 106.275191 
L 155.404221 105.721806 
L 157.035651 108.571075 
L 158.667081 108.672238 
L 160.298511 110.270656 
L 161.929941 109.923243 
L 163.56137 108.642157 
L 165.1928 116.011564 
L 166.82423 114.794658 
L 168.45566 110.146912 
L 170.08709 110.123397 
L 171.71852 110.388216 
L 173.34995 110.406219 
L 174.98138 104.35345 
L 176.61281 105.138426 
L 178.244239 107.734059 
L 179.875669 103.333738 
L 181.507099 105.957658 
L 183.138529 100.570274 
L 184.769959 104.821285 
L 186.401389 108.108934 
L 188.032819 103.116484 
L 189.664249 109.818265 
L 191.295678 104.661738 
L 192.927108 103.1959 
L 194.558538 96.941686 
L 196.189968 103.901164 
L 197.821398 101.613747 
L 199.452828 102.504839 
L 201.084258 104.491601 
L 202.715688 98.122213 
L 204.347117 101.210158 
L 205.978547 101.488607 
L 207.609977 104.062643 
L 209.241407 102.194504 
L 210.872837 104.157614 
L 212.504267 104.831487 
L 214.135697 107.688378 
L 215.767127 99.684513 
L 217.398556 97.645949 
L 219.029986 106.372279 
L 220.661416 103.758339 
L 222.292846 101.658195 
L 223.924276 101.554643 
L 225.555706 102.793591 
L 227.187136 98.948908 
L 228.818566 102.866653 
L 230.449995 102.533222 
L 232.081425 103.271023 
L 233.712855 102.148465 
L 235.344285 100.288774 
L 236.975715 102.533873 
L 238.607145 100.932254 
L 240.238575 98.573102 
L 241.870005 97.823599 
L 243.501434 101.470699 
L 245.132864 106.595517 
L 246.764294 102.597262 
L 248.395724 102.495057 
L 250.027154 105.475805 
L 251.658584 101.847701 
L 254.921444 102.705563 
L 256.552873 104.471548 
L 258.184303 96.849003 
L 259.815733 103.940429 
L 261.447163 104.12363 
L 263.078593 107.255671 
L 264.710023 101.155559 
L 266.341453 100.448439 
L 267.972883 106.703033 
L 269.604312 99.257982 
L 271.235742 103.93478 
L 272.867172 104.724722 
L 274.498602 105.254081 
L 276.130032 100.76942 
L 277.761462 104.743218 
L 279.392892 100.91887 
L 281.024322 98.14414 
L 282.655751 96.780227 
L 284.287181 103.245822 
L 285.918611 99.013955 
L 287.550041 100.769474 
L 289.181471 94.589103 
L 290.812901 94.865284 
L 292.444331 95.518089 
L 294.075761 99.694664 
L 295.70719 94.77671 
L 297.33862 95.947553 
L 298.97005 105.176743 
L 300.60148 105.362246 
L 302.23291 96.463992 
L 303.86434 100.471205 
L 307.1272 103.877816 
L 308.75863 100.042617 
L 310.390059 94.169793 
L 312.021489 98.233125 
L 313.652919 96.84195 
L 315.284349 99.203474 
L 316.915779 104.505182 
L 318.547209 99.928171 
L 320.178639 97.463833 
L 321.810069 96.712053 
L 323.441498 100.513657 
L 325.072928 98.775282 
L 326.704358 99.795507 
L 328.335788 97.277817 
L 329.967218 100.058718 
L 331.598648 101.789622 
L 333.230078 102.088721 
L 334.861508 99.872898 
L 336.492937 102.048541 
L 338.124367 97.540797 
L 339.755797 97.15035 
L 341.387227 102.316008 
L 343.018657 96.335483 
L 344.650087 95.196398 
L 346.281517 97.080271 
L 347.912947 100.222196 
L 349.544376 100.743739 
L 351.175806 96.407542 
L 352.807236 92.912136 
L 354.438666 99.062497 
L 356.070096 101.379085 
L 357.701526 101.032029 
L 359.332956 101.124158 
L 360.964386 99.93272 
L 362.595815 107.186348 
L 364.227245 100.560306 
L 365.858675 95.883802 
L 367.490105 109.060963 
L 369.121535 101.154676 
L 370.752965 105.165426 
L 372.384395 101.715289 
L 374.015825 102.902231 
L 377.278684 100.046795 
L 378.910114 104.678357 
L 380.541544 104.51183 
L 383.804404 101.297013 
L 385.435834 103.919914 
L 387.067264 101.099625 
L 388.698693 100.309831 
L 390.330123 99.939838 
L 391.961553 98.880085 
L 393.592983 104.387928 
L 395.224413 101.2452 
L 396.855843 102.633437 
L 398.487273 103.702473 
L 398.487273 103.702473 
" clip-path="url(#p34e5373548)" style="fill: none; stroke: #0000ff; stroke-width: 1.5; stroke-linecap: square"/>
   </g>
   <g id="line2d_34">
    <path d="M 73.832727 295.488 
L 75.464157 276.805228 
L 77.095587 270.952829 
L 78.727017 259.394979 
L 80.358447 261.619253 
L 83.621307 240.432769 
L 85.252736 241.02597 
L 86.884166 233.71839 
L 88.515596 238.528214 
L 90.147026 203.966557 
L 91.778456 202.533215 
L 93.409886 202.741028 
L 95.041316 201.011688 
L 96.672746 184.141053 
L 98.304175 205.479195 
L 99.935605 208.952831 
L 101.567035 204.083932 
L 103.198465 209.555922 
L 104.829895 188.268532 
L 106.461325 188.530938 
L 108.092755 180.27396 
L 109.724185 183.243538 
L 111.355614 198.567967 
L 112.987044 166.274591 
L 114.618474 165.912444 
L 116.249904 163.328829 
L 117.881334 161.856147 
L 119.512764 158.183971 
L 121.144194 152.3412 
L 122.775624 140.583775 
L 124.407053 153.814568 
L 126.038483 153.1907 
L 127.669913 137.676282 
L 129.301343 141.174692 
L 130.932773 150.1805 
L 132.564203 145.507434 
L 134.195633 134.32713 
L 135.827063 144.772325 
L 137.458492 138.327706 
L 139.089922 145.386267 
L 140.721352 144.775701 
L 142.352782 160.558856 
L 143.984212 143.638509 
L 145.615642 141.163407 
L 147.247072 148.703742 
L 148.878502 137.397785 
L 150.509931 150.301251 
L 152.141361 145.764574 
L 153.772791 151.742199 
L 155.404221 151.768714 
L 157.035651 157.728258 
L 158.667081 149.385667 
L 160.298511 154.612553 
L 161.929941 161.845047 
L 163.56137 154.261934 
L 165.1928 166.352642 
L 166.82423 164.092928 
L 168.45566 157.80081 
L 170.08709 158.139102 
L 171.71852 159.445947 
L 173.34995 158.965468 
L 174.98138 148.551716 
L 176.61281 145.168609 
L 178.244239 158.991539 
L 179.875669 146.128011 
L 181.507099 152.140569 
L 183.138529 135.598767 
L 184.769959 149.792286 
L 186.401389 151.457591 
L 188.032819 147.333834 
L 189.664249 161.437905 
L 191.295678 147.393912 
L 192.927108 143.641496 
L 194.558538 129.758881 
L 196.189968 146.284867 
L 197.821398 141.150416 
L 199.452828 144.541013 
L 201.084258 145.58377 
L 202.715688 133.618736 
L 204.347117 141.455733 
L 205.978547 139.90054 
L 207.609977 149.687624 
L 209.241407 143.99719 
L 210.872837 145.104956 
L 212.504267 145.300539 
L 214.135697 152.714268 
L 215.767127 134.32378 
L 217.398556 132.220874 
L 219.029986 148.862294 
L 220.661416 147.692563 
L 222.292846 141.466258 
L 225.555706 142.762225 
L 227.187136 135.824635 
L 228.818566 145.184124 
L 230.449995 144.294184 
L 232.081425 147.481539 
L 233.712855 146.193888 
L 235.344285 141.288588 
L 236.975715 147.556525 
L 238.607145 140.142998 
L 241.870005 134.172691 
L 243.501434 143.184786 
L 245.132864 153.196247 
L 246.764294 146.792697 
L 248.395724 146.383496 
L 250.027154 150.381538 
L 251.658584 140.390495 
L 253.290014 141.784116 
L 254.921444 141.772708 
L 256.552873 148.442964 
L 258.184303 134.799226 
L 259.815733 149.799387 
L 261.447163 147.944589 
L 263.078593 155.098821 
L 264.710023 144.460081 
L 266.341453 140.873788 
L 267.972883 153.471751 
L 269.604312 137.140916 
L 271.235742 146.180574 
L 272.867172 149.279898 
L 274.498602 149.327062 
L 276.130032 138.8852 
L 277.761462 145.989341 
L 279.392892 141.742114 
L 281.024322 133.63317 
L 282.655751 131.699578 
L 284.287181 147.773933 
L 285.918611 136.267599 
L 287.550041 138.774817 
L 289.181471 127.061133 
L 290.812901 127.05337 
L 292.444331 129.594263 
L 294.075761 138.809975 
L 295.70719 125.998963 
L 297.33862 133.911567 
L 298.97005 147.265409 
L 300.60148 149.225064 
L 302.23291 130.232822 
L 303.86434 136.588153 
L 305.49577 139.484238 
L 307.1272 143.83316 
L 308.75863 140.103679 
L 310.390059 124.258399 
L 312.021489 133.345289 
L 313.652919 132.757856 
L 315.284349 136.410055 
L 316.915779 155.442364 
L 318.547209 145.561912 
L 320.178639 134.522599 
L 321.810069 132.018885 
L 323.441498 138.796777 
L 325.072928 137.53829 
L 326.704358 140.194847 
L 328.335788 130.68702 
L 329.967218 141.738899 
L 331.598648 138.540858 
L 333.230078 143.117879 
L 334.861508 138.033776 
L 336.492937 142.838099 
L 338.124367 133.874851 
L 339.755797 129.06417 
L 341.387227 146.572478 
L 343.018657 129.941308 
L 344.650087 126.234995 
L 346.281517 132.238984 
L 347.912947 145.025329 
L 349.544376 141.143326 
L 351.175806 135.299885 
L 352.807236 123.06056 
L 354.438666 136.833089 
L 356.070096 142.912304 
L 357.701526 138.629241 
L 359.332956 141.450194 
L 360.964386 138.05513 
L 362.595815 156.551156 
L 364.227245 144.552218 
L 365.858675 127.41145 
L 367.490105 155.012007 
L 369.121535 137.661049 
L 370.752965 148.525364 
L 372.384395 141.765359 
L 374.015825 143.917354 
L 375.647254 143.057064 
L 377.278684 138.408052 
L 378.910114 145.810563 
L 380.541544 145.521338 
L 382.172974 140.82994 
L 383.804404 138.770924 
L 385.435834 143.431425 
L 387.067264 140.286448 
L 388.698693 142.175223 
L 390.330123 138.458607 
L 391.961553 134.174694 
L 393.592983 144.639301 
L 395.224413 139.284988 
L 396.855843 140.898432 
L 398.487273 147.81082 
L 398.487273 147.81082 
" clip-path="url(#p34e5373548)" style="fill: none; stroke-dasharray: 9.6,2.4,1.5,2.4; stroke-dashoffset: 0; stroke: #008000; stroke-width: 1.5"/>
   </g>
   <g id="line2d_35">
    <path d="M 73.832727 152.898616 
L 75.464157 132.608536 
L 77.095587 117.496233 
L 80.358447 110.763796 
L 81.989877 102.40965 
L 83.621307 97.552442 
L 85.252736 93.140368 
L 86.884166 91.003019 
L 88.515596 79.488583 
L 90.147026 74.814841 
L 91.778456 70.701366 
L 93.409886 75.839595 
L 95.041316 65.513583 
L 96.672746 66.525087 
L 98.304175 73.716183 
L 101.567035 69.799675 
L 103.198465 60.786166 
L 104.829895 62.659158 
L 106.461325 61.650582 
L 108.092755 65.852629 
L 109.724185 66.596263 
L 111.355614 63.835189 
L 112.987044 65.394965 
L 114.618474 59.09522 
L 116.249904 59.206205 
L 117.881334 59.522988 
L 119.512764 60.125077 
L 121.144194 55.767413 
L 122.775624 62.878536 
L 124.407053 61.144812 
L 126.038483 58.466096 
L 127.669913 60.483113 
L 129.301343 59.145185 
L 130.932773 54.37201 
L 132.564203 63.587359 
L 134.195633 60.898652 
L 135.827063 63.296169 
L 137.458492 65.154239 
L 139.089922 62.175272 
L 140.721352 61.473653 
L 142.352782 58.849985 
L 143.984212 60.896046 
L 145.615642 63.27279 
L 147.247072 61.394751 
L 148.878502 59.875478 
L 150.509931 60.572052 
L 152.141361 62.202804 
L 153.772791 60.808183 
L 155.404221 59.674897 
L 157.035651 59.413892 
L 158.667081 67.958809 
L 160.298511 65.92876 
L 161.929941 58.001439 
L 163.56137 63.02238 
L 165.1928 65.670485 
L 166.82423 65.496388 
L 168.45566 62.493013 
L 170.08709 62.107692 
L 171.71852 61.330484 
L 173.34995 61.84697 
L 174.98138 60.155183 
L 176.61281 65.108244 
L 178.244239 56.476579 
L 179.875669 60.539465 
L 181.507099 59.774748 
L 183.138529 65.541782 
L 184.769959 59.850284 
L 186.401389 64.760277 
L 188.032819 58.899134 
L 189.664249 58.198626 
L 191.295678 61.929565 
L 192.927108 62.750305 
L 194.558538 64.124491 
L 196.189968 61.517461 
L 197.821398 62.077077 
L 199.452828 60.468664 
L 201.084258 63.399432 
L 202.715688 62.625689 
L 204.347117 60.964582 
L 205.978547 63.076673 
L 207.609977 58.437662 
L 209.241407 60.391819 
L 210.872837 63.210272 
L 212.504267 64.362435 
L 214.135697 62.662489 
L 215.767127 65.045245 
L 217.398556 63.071024 
L 219.029986 63.882264 
L 220.661416 59.824115 
L 222.292846 61.850133 
L 223.924276 60.993228 
L 225.555706 62.824957 
L 227.187136 62.073181 
L 228.818566 60.549182 
L 230.449995 60.772259 
L 232.081425 59.060507 
L 233.712855 58.103043 
L 235.344285 59.28896 
L 236.975715 57.511221 
L 238.607145 61.72151 
L 240.238575 60.05475 
L 241.870005 61.474508 
L 243.501434 59.756612 
L 245.132864 59.994787 
L 246.764294 58.401827 
L 248.395724 58.606617 
L 250.027154 60.570072 
L 251.658584 63.304906 
L 253.290014 62.666455 
L 254.921444 63.638418 
L 256.552873 60.500132 
L 258.184303 58.89878 
L 259.815733 58.081471 
L 261.447163 60.302672 
L 263.078593 59.41252 
L 264.710023 57.851037 
L 266.341453 60.023089 
L 267.972883 59.934314 
L 269.604312 61.375048 
L 271.235742 61.688986 
L 272.867172 60.169547 
L 274.498602 61.181101 
L 276.130032 62.65364 
L 277.761462 63.497094 
L 279.392892 60.095626 
L 281.024322 62.655111 
L 282.655751 61.860876 
L 284.287181 58.717711 
L 285.918611 61.760311 
L 287.550041 62.76413 
L 289.181471 62.117073 
L 290.812901 62.677197 
L 292.444331 61.441915 
L 294.075761 60.579353 
L 295.70719 63.554456 
L 297.33862 57.983538 
L 298.97005 63.088076 
L 300.60148 61.499428 
L 302.23291 62.695162 
L 303.86434 64.354257 
L 305.49577 64.916316 
L 307.1272 63.922473 
L 308.75863 59.981556 
L 310.390059 64.081187 
L 312.021489 63.120961 
L 313.652919 60.926044 
L 315.284349 61.996893 
L 316.915779 53.568 
L 318.547209 54.29443 
L 320.178639 60.405066 
L 321.810069 61.405222 
L 323.441498 62.230537 
L 325.072928 60.012274 
L 326.704358 59.396166 
L 328.335788 63.868613 
L 329.967218 58.378537 
L 331.598648 65.038386 
L 333.230078 61.059562 
L 334.861508 61.71202 
L 336.492937 61.258983 
L 338.124367 61.206743 
L 339.755797 65.23653 
L 341.387227 58.059539 
L 343.018657 62.729658 
L 344.650087 64.157801 
L 346.281517 61.921558 
L 347.912947 55.419064 
L 349.544376 60.344152 
L 351.175806 57.515198 
L 352.807236 62.763711 
L 356.070096 59.845866 
L 357.701526 63.434816 
L 359.332956 60.798122 
L 360.964386 61.810309 
L 362.595815 57.821539 
L 364.227245 56.568395 
L 365.858675 64.356154 
L 367.490105 63.109919 
L 369.121535 64.648303 
L 370.752965 61.805489 
L 372.384395 61.665219 
L 374.015825 61.887108 
L 375.647254 59.851759 
L 378.910114 63.54615 
L 380.541544 63.502323 
L 382.172974 64.878329 
L 383.804404 63.823102 
L 385.435834 64.408403 
L 387.067264 61.912803 
L 388.698693 58.444439 
L 390.330123 61.42107 
L 391.961553 63.585477 
L 393.592983 64.136555 
L 395.224413 63.205413 
L 396.855843 64.368443 
L 398.487273 59.594127 
L 398.487273 59.594127 
" clip-path="url(#p34e5373548)" style="fill: none; stroke-dasharray: 9.6,2.4,1.5,2.4; stroke-dashoffset: 0; stroke: #008000; stroke-width: 1.5"/>
   </g>
   <g id="line2d_36">
    <path d="M 73.832727 80.15562 
L 398.487273 80.082023 
L 398.487273 80.082023 
" clip-path="url(#p34e5373548)" style="fill: none; stroke: #ff0000; stroke-width: 1.5; stroke-linecap: square"/>
   </g>
   <g id="patch_3">
    <path d="M 57.6 307.584 
L 57.6 41.472 
" style="fill: none; stroke: #000000; stroke-width: 0.8; stroke-linejoin: miter; stroke-linecap: square"/>
   </g>
   <g id="patch_4">
    <path d="M 414.72 307.584 
L 414.72 41.472 
" style="fill: none; stroke: #000000; stroke-width: 0.8; stroke-linejoin: miter; stroke-linecap: square"/>
   </g>
   <g id="patch_5">
    <path d="M 57.6 307.584 
L 414.72 307.584 
" style="fill: none; stroke: #000000; stroke-width: 0.8; stroke-linejoin: miter; stroke-linecap: square"/>
   </g>
   <g id="patch_6">
    <path d="M 57.6 41.472 
L 414.72 41.472 
" style="fill: none; stroke: #000000; stroke-width: 0.8; stroke-linejoin: miter; stroke-linecap: square"/>
   </g>
   <g id="text_19">
    <!-- Population's average and best fitness -->
    <g transform="translate(123.529687 35.472) scale(0.12 -0.12)">
     <defs>
      <path id="DejaVuSans-50" d="M 1259 4147 
L 1259 2394 
L 2053 2394 
Q 2494 2394 2734 2622 
Q 2975 2850 2975 3272 
Q 2975 3691 2734 3919 
Q 2494 4147 2053 4147 
L 1259 4147 
z
M 628 4666 
L 2053 4666 
Q 2838 4666 3239 4311 
Q 3641 3956 3641 3272 
Q 3641 2581 3239 2228 
Q 2838 1875 2053 1875 
L 1259 1875 
L 1259 0 
L 628 0 
L 628 4666 
z
" transform="scale(0.015625)"/>
      <path id="DejaVuSans-70" d="M 1159 525 
L 1159 -1331 
L 581 -1331 
L 581 3500 
L 1159 3500 
L 1159 2969 
Q 1341 3281 1617 3432 
Q 1894 3584 2278 3584 
Q 2916 3584 3314 3078 
Q 3713 2572 3713 1747 
Q 3713 922 3314 415 
Q 2916 -91 2278 -91 
Q 1894 -91 1617 61 
Q 1341 213 1159 525 
z
M 3116 1747 
Q 3116 2381 2855 2742 
Q 2594 3103 2138 3103 
Q 1681 3103 1420 2742 
Q 1159 2381 1159 1747 
Q 1159 1113 1420 752 
Q 1681 391 2138 391 
Q 2594 391 2855 752 
Q 3116 1113 3116 1747 
z
" transform="scale(0.015625)"/>
      <path id="DejaVuSans-75" d="M 544 1381 
L 544 3500 
L 1119 3500 
L 1119 1403 
Q 1119 906 1312 657 
Q 1506 409 1894 409 
Q 2359 409 2629 706 
Q 2900 1003 2900 1516 
L 2900 3500 
L 3475 3500 
L 3475 0 
L 2900 0 
L 2900 538 
Q 2691 219 2414 64 
Q 2138 -91 1772 -91 
Q 1169 -91 856 284 
Q 544 659 544 1381 
z
M 1991 3584 
L 1991 3584 
z
" transform="scale(0.015625)"/>
      <path id="DejaVuSans-6c" d="M 603 4863 
L 1178 4863 
L 1178 0 
L 603 0 
L 603 4863 
z
" transform="scale(0.015625)"/>
      <path id="DejaVuSans-27" d="M 1147 4666 
L 1147 2931 
L 616 2931 
L 616 4666 
L 1147 4666 
z
" transform="scale(0.015625)"/>
      <path id="DejaVuSans-20" transform="scale(0.015625)"/>
      <path id="DejaVuSans-76" d="M 191 3500 
L 800 3500 
L 1894 563 
L 2988 3500 
L 3597 3500 
L 2284 0 
L 1503 0 
L 191 3500 
z
" transform="scale(0.015625)"/>
      <path id="DejaVuSans-67" d="M 2906 1791 
Q 2906 2416 2648 2759 
Q 2391 3103 1925 3103 
Q 1463 3103 1205 2759 
Q 947 2416 947 1791 
Q 947 1169 1205 825 
Q 1463 481 1925 481 
Q 2391 481 2648 825 
Q 2906 1169 2906 1791 
z
M 3481 434 
Q 3481 -459 3084 -895 
Q 2688 -1331 1869 -1331 
Q 1566 -1331 1297 -1286 
Q 1028 -1241 775 -1147 
L 775 -588 
Q 1028 -725 1275 -790 
Q 1522 -856 1778 -856 
Q 2344 -856 2625 -561 
Q 2906 -266 2906 331 
L 2906 616 
Q 2728 306 2450 153 
Q 2172 0 1784 0 
Q 1141 0 747 490 
Q 353 981 353 1791 
Q 353 2603 747 3093 
Q 1141 3584 1784 3584 
Q 2172 3584 2450 3431 
Q 2728 3278 2906 2969 
L 2906 3500 
L 3481 3500 
L 3481 434 
z
" transform="scale(0.015625)"/>
      <path id="DejaVuSans-64" d="M 2906 2969 
L 2906 4863 
L 3481 4863 
L 3481 0 
L 2906 0 
L 2906 525 
Q 2725 213 2448 61 
Q 2172 -91 1784 -91 
Q 1150 -91 751 415 
Q 353 922 353 1747 
Q 353 2572 751 3078 
Q 1150 3584 1784 3584 
Q 2172 3584 2448 3432 
Q 2725 3281 2906 2969 
z
M 947 1747 
Q 947 1113 1208 752 
Q 1469 391 1925 391 
Q 2381 391 2643 752 
Q 2906 1113 2906 1747 
Q 2906 2381 2643 2742 
Q 2381 3103 1925 3103 
Q 1469 3103 1208 2742 
Q 947 2381 947 1747 
z
" transform="scale(0.015625)"/>
      <path id="DejaVuSans-62" d="M 3116 1747 
Q 3116 2381 2855 2742 
Q 2594 3103 2138 3103 
Q 1681 3103 1420 2742 
Q 1159 2381 1159 1747 
Q 1159 1113 1420 752 
Q 1681 391 2138 391 
Q 2594 391 2855 752 
Q 3116 1113 3116 1747 
z
M 1159 2969 
Q 1341 3281 1617 3432 
Q 1894 3584 2278 3584 
Q 2916 3584 3314 3078 
Q 3713 2572 3713 1747 
Q 3713 922 3314 415 
Q 2916 -91 2278 -91 
Q 1894 -91 1617 61 
Q 1341 213 1159 525 
L 1159 0 
L 581 0 
L 581 4863 
L 1159 4863 
L 1159 2969 
z
" transform="scale(0.015625)"/>
      <path id="DejaVuSans-66" d="M 2375 4863 
L 2375 4384 
L 1825 4384 
Q 1516 4384 1395 4259 
Q 1275 4134 1275 3809 
L 1275 3500 
L 2222 3500 
L 2222 3053 
L 1275 3053 
L 1275 0 
L 697 0 
L 697 3053 
L 147 3053 
L 147 3500 
L 697 3500 
L 697 3744 
Q 697 4328 969 4595 
Q 1241 4863 1831 4863 
L 2375 4863 
z
" transform="scale(0.015625)"/>
     </defs>
     <use xlink:href="#DejaVuSans-50"/>
     <use xlink:href="#DejaVuSans-6f" x="56.677734"/>
     <use xlink:href="#DejaVuSans-70" x="117.859375"/>
     <use xlink:href="#DejaVuSans-75" x="181.335938"/>
     <use xlink:href="#DejaVuSans-6c" x="244.714844"/>
     <use xlink:href="#DejaVuSans-61" x="272.498047"/>
     <use xlink:href="#DejaVuSans-74" x="333.777344"/>
     <use xlink:href="#DejaVuSans-69" x="372.986328"/>
     <use xlink:href="#DejaVuSans-6f" x="400.769531"/>
     <use xlink:href="#DejaVuSans-6e" x="461.951172"/>
     <use xlink:href="#DejaVuSans-27" x="525.330078"/>
     <use xlink:href="#DejaVuSans-73" x="552.820312"/>
     <use xlink:href="#DejaVuSans-20" x="604.919922"/>
     <use xlink:href="#DejaVuSans-61" x="636.707031"/>
     <use xlink:href="#DejaVuSans-76" x="697.986328"/>
     <use xlink:href="#DejaVuSans-65" x="757.166016"/>
     <use xlink:href="#DejaVuSans-72" x="818.689453"/>
     <use xlink:href="#DejaVuSans-61" x="859.802734"/>
     <use xlink:href="#DejaVuSans-67" x="921.082031"/>
     <use xlink:href="#DejaVuSans-65" x="984.558594"/>
     <use xlink:href="#DejaVuSans-20" x="1046.082031"/>
     <use xlink:href="#DejaVuSans-61" x="1077.869141"/>
     <use xlink:href="#DejaVuSans-6e" x="1139.148438"/>
     <use xlink:href="#DejaVuSans-64" x="1202.527344"/>
     <use xlink:href="#DejaVuSans-20" x="1266.003906"/>
     <use xlink:href="#DejaVuSans-62" x="1297.791016"/>
     <use xlink:href="#DejaVuSans-65" x="1361.267578"/>
     <use xlink:href="#DejaVuSans-73" x="1422.791016"/>
     <use xlink:href="#DejaVuSans-74" x="1474.890625"/>
     <use xlink:href="#DejaVuSans-20" x="1514.099609"/>
     <use xlink:href="#DejaVuSans-66" x="1545.886719"/>
     <use xlink:href="#DejaVuSans-69" x="1581.091797"/>
     <use xlink:href="#DejaVuSans-74" x="1608.875"/>
     <use xlink:href="#DejaVuSans-6e" x="1648.083984"/>
     <use xlink:href="#DejaVuSans-65" x="1711.462891"/>
     <use xlink:href="#DejaVuSans-73" x="1772.986328"/>
     <use xlink:href="#DejaVuSans-73" x="1825.085938"/>
    </g>
   </g>
   <g id="legend_1">
    <g id="patch_7">
     <path d="M 334.779375 302.584 
L 407.72 302.584 
Q 409.72 302.584 409.72 300.584 
L 409.72 242.8715 
Q 409.72 240.8715 407.72 240.8715 
L 334.779375 240.8715 
Q 332.779375 240.8715 332.779375 242.8715 
L 332.779375 300.584 
Q 332.779375 302.584 334.779375 302.584 
z
" style="fill: #ffffff; opacity: 0.8; stroke: #cccccc; stroke-linejoin: miter"/>
    </g>
    <g id="line2d_37">
     <path d="M 336.779375 248.969937 
L 346.779375 248.969937 
L 356.779375 248.969937 
" style="fill: none; stroke: #0000ff; stroke-width: 1.5; stroke-linecap: square"/>
    </g>
    <g id="text_20">
     <!-- average -->
     <g transform="translate(364.779375 252.469937) scale(0.1 -0.1)">
      <use xlink:href="#DejaVuSans-61"/>
      <use xlink:href="#DejaVuSans-76" x="61.279297"/>
      <use xlink:href="#DejaVuSans-65" x="120.458984"/>
      <use xlink:href="#DejaVuSans-72" x="181.982422"/>
      <use xlink:href="#DejaVuSans-61" x="223.095703"/>
      <use xlink:href="#DejaVuSans-67" x="284.375"/>
      <use xlink:href="#DejaVuSans-65" x="347.851562"/>
     </g>
    </g>
    <g id="line2d_38">
     <path d="M 336.779375 263.648062 
L 346.779375 263.648062 
L 356.779375 263.648062 
" style="fill: none; stroke-dasharray: 9.6,2.4,1.5,2.4; stroke-dashoffset: 0; stroke: #008000; stroke-width: 1.5"/>
    </g>
    <g id="text_21">
     <!-- -1 sd -->
     <g transform="translate(364.779375 267.148062) scale(0.1 -0.1)">
      <defs>
       <path id="DejaVuSans-2d" d="M 313 2009 
L 1997 2009 
L 1997 1497 
L 313 1497 
L 313 2009 
z
" transform="scale(0.015625)"/>
      </defs>
      <use xlink:href="#DejaVuSans-2d"/>
      <use xlink:href="#DejaVuSans-31" x="36.083984"/>
      <use xlink:href="#DejaVuSans-20" x="99.707031"/>
      <use xlink:href="#DejaVuSans-73" x="131.494141"/>
      <use xlink:href="#DejaVuSans-64" x="183.59375"/>
     </g>
    </g>
    <g id="line2d_39">
     <path d="M 336.779375 278.326187 
L 346.779375 278.326187 
L 356.779375 278.326187 
" style="fill: none; stroke-dasharray: 9.6,2.4,1.5,2.4; stroke-dashoffset: 0; stroke: #008000; stroke-width: 1.5"/>
    </g>
    <g id="text_22">
     <!-- +1 sd -->
     <g transform="translate(364.779375 281.826187) scale(0.1 -0.1)">
      <defs>
       <path id="DejaVuSans-2b" d="M 2944 4013 
L 2944 2272 
L 4684 2272 
L 4684 1741 
L 2944 1741 
L 2944 0 
L 2419 0 
L 2419 1741 
L 678 1741 
L 678 2272 
L 2419 2272 
L 2419 4013 
L 2944 4013 
z
" transform="scale(0.015625)"/>
      </defs>
      <use xlink:href="#DejaVuSans-2b"/>
      <use xlink:href="#DejaVuSans-31" x="83.789062"/>
      <use xlink:href="#DejaVuSans-20" x="147.412109"/>
      <use xlink:href="#DejaVuSans-73" x="179.199219"/>
      <use xlink:href="#DejaVuSans-64" x="231.298828"/>
     </g>
    </g>
    <g id="line2d_40">
     <path d="M 336.779375 293.004312 
L 346.779375 293.004312 
L 356.779375 293.004312 
" style="fill: none; stroke: #ff0000; stroke-width: 1.5; stroke-linecap: square"/>
    </g>
    <g id="text_23">
     <!-- best -->
     <g transform="translate(364.779375 296.504312) scale(0.1 -0.1)">
      <use xlink:href="#DejaVuSans-62"/>
      <use xlink:href="#DejaVuSans-65" x="63.476562"/>
      <use xlink:href="#DejaVuSans-73" x="125"/>
      <use xlink:href="#DejaVuSans-74" x="177.099609"/>
     </g>
    </g>
   </g>
  </g>
 </g>
 <defs>
  <clipPath id="p34e5373548">
   <rect x="57.6" y="41.472" width="357.12" height="266.112"/>
  </clipPath>
 </defs>
</svg>
