<?xml version="1.0" encoding="UTF-8" standalone="no"?>
<!DOCTYPE svg PUBLIC "-//W3C//DTD SVG 1.1//EN"
 "http://www.w3.org/Graphics/SVG/1.1/DTD/svg11.dtd">
<!-- Generated by graphviz version 2.43.0 (0)
 -->
<!-- Title: %3 Pages: 1 -->
<svg width="359pt" height="197pt"
 viewBox="0.00 0.00 358.83 196.99" xmlns="http://www.w3.org/2000/svg" xmlns:xlink="http://www.w3.org/1999/xlink">
<g id="graph0" class="graph" transform="scale(1 1) rotate(0) translate(4 192.99)">
<title>%3</title>
<polygon fill="white" stroke="transparent" points="-4,4 -4,-192.99 354.83,-192.99 354.83,4 -4,4"/>
<!-- &#45;1 -->
<g id="node1" class="node">
<title>&#45;1</title>
<polygon fill="lightgray" stroke="black" points="136.83,-119.25 110.83,-119.25 110.83,-101.25 136.83,-101.25 136.83,-119.25"/>
<text text-anchor="middle" x="123.83" y="-108.05" font-family="Times,serif" font-size="9.00">&#45;1</text>
</g>
<!-- 0 -->
<g id="node11" class="node">
<title>0</title>
<ellipse fill="lightblue" stroke="black" cx="179.83" cy="-24.75" rx="16.03" ry="16.03"/>
<text text-anchor="middle" x="179.83" y="-22.55" font-family="Times,serif" font-size="9.00">0</text>
</g>
<!-- &#45;1&#45;&gt;0 -->
<g id="edge1" class="edge">
<title>&#45;1&#45;&gt;0</title>
<path fill="none" stroke="red" stroke-width="1.69" d="M129.2,-101.24C137.45,-88.94 153.54,-64.95 165.37,-47.31"/>
<polygon fill="red" stroke="red" stroke-width="1.69" points="168.45,-49.01 171.11,-38.75 162.63,-45.11 168.45,-49.01"/>
</g>
<!-- &#45;2 -->
<g id="node2" class="node">
<title>&#45;2</title>
<polygon fill="lightgray" stroke="black" points="42.83,-119.25 16.83,-119.25 16.83,-101.25 42.83,-101.25 42.83,-119.25"/>
<text text-anchor="middle" x="29.83" y="-108.05" font-family="Times,serif" font-size="9.00">&#45;2</text>
</g>
<!-- &#45;2&#45;&gt;0 -->
<g id="edge2" class="edge">
<title>&#45;2&#45;&gt;0</title>
<path fill="none" stroke="red" stroke-width="0.16" d="M36.1,-101.01C40.18,-96.05 45.84,-89.87 51.83,-85.5 84.51,-61.66 128.21,-43.74 155.17,-34"/>
<polygon fill="red" stroke="red" stroke-width="0.16" points="156.35,-37.3 164.62,-30.68 154.03,-30.7 156.35,-37.3"/>
</g>
<!-- 22 -->
<g id="node14" class="node">
<title>22</title>
<ellipse fill="white" stroke="black" cx="29.83" cy="-24.75" rx="20.51" ry="20.51"/>
<text text-anchor="middle" x="29.83" y="-22.55" font-family="Times,serif" font-size="9.00">22</text>
</g>
<!-- &#45;2&#45;&gt;22 -->
<g id="edge7" class="edge">
<title>&#45;2&#45;&gt;22</title>
<path fill="none" stroke="red" stroke-width="0.53" d="M29.83,-101.24C29.83,-90.79 29.83,-71.93 29.83,-55.67"/>
<polygon fill="red" stroke="red" stroke-width="0.53" points="33.33,-55.48 29.83,-45.48 26.33,-55.48 33.33,-55.48"/>
</g>
<!-- &#45;3 -->
<g id="node3" class="node">
<title>&#45;3</title>
<polygon fill="lightgray" stroke="black" points="262.83,-188.99 236.83,-188.99 236.83,-170.99 262.83,-170.99 262.83,-188.99"/>
<text text-anchor="middle" x="249.83" y="-177.79" font-family="Times,serif" font-size="9.00">&#45;3</text>
</g>
<!-- &#45;4 -->
<g id="node4" class="node">
<title>&#45;4</title>
<polygon fill="lightgray" stroke="black" points="218.83,-188.99 192.83,-188.99 192.83,-170.99 218.83,-170.99 218.83,-188.99"/>
<text text-anchor="middle" x="205.83" y="-177.79" font-family="Times,serif" font-size="9.00">&#45;4</text>
</g>
<!-- &#45;4&#45;&gt;0 -->
<g id="edge3" class="edge">
<title>&#45;4&#45;&gt;0</title>
<path fill="none" stroke="green" stroke-width="0.57" stroke-dasharray="1,5" d="M208.36,-170.83C213.06,-154.38 221.96,-116.21 213.83,-85.5 210.16,-71.62 202.43,-57.59 195.27,-46.61"/>
<polygon fill="green" stroke="green" stroke-width="0.57" points="198.03,-44.45 189.48,-38.18 192.25,-48.41 198.03,-44.45"/>
</g>
<!-- 226 -->
<g id="node12" class="node">
<title>226</title>
<ellipse fill="white" stroke="black" cx="179.83" cy="-110.25" rx="25" ry="25"/>
<text text-anchor="middle" x="179.83" y="-108.05" font-family="Times,serif" font-size="9.00">226</text>
</g>
<!-- &#45;4&#45;&gt;226 -->
<g id="edge8" class="edge">
<title>&#45;4&#45;&gt;226</title>
<path fill="none" stroke="red" stroke-width="0.29" d="M202.75,-170.96C200.05,-163.93 195.95,-153.24 191.96,-142.84"/>
<polygon fill="red" stroke="red" stroke-width="0.29" points="195.22,-141.57 188.37,-133.48 188.68,-144.07 195.22,-141.57"/>
</g>
<!-- &#45;5 -->
<g id="node5" class="node">
<title>&#45;5</title>
<polygon fill="lightgray" stroke="black" points="306.83,-188.99 280.83,-188.99 280.83,-170.99 306.83,-170.99 306.83,-188.99"/>
<text text-anchor="middle" x="293.83" y="-177.79" font-family="Times,serif" font-size="9.00">&#45;5</text>
</g>
<!-- &#45;6 -->
<g id="node6" class="node">
<title>&#45;6</title>
<polygon fill="lightgray" stroke="black" points="101.83,-188.99 75.83,-188.99 75.83,-170.99 101.83,-170.99 101.83,-188.99"/>
<text text-anchor="middle" x="88.83" y="-177.79" font-family="Times,serif" font-size="9.00">&#45;6</text>
</g>
<!-- &#45;6&#45;&gt;226 -->
<g id="edge12" class="edge">
<title>&#45;6&#45;&gt;226</title>
<path fill="none" stroke="red" stroke-width="0.39" d="M99.63,-170.96C112.49,-161.38 134.47,-145.01 152.17,-131.84"/>
<polygon fill="red" stroke="red" stroke-width="0.39" points="154.53,-134.45 160.46,-125.67 150.35,-128.83 154.53,-134.45"/>
</g>
<!-- &#45;6&#45;&gt;22 -->
<g id="edge13" class="edge">
<title>&#45;6&#45;&gt;22</title>
<path fill="none" stroke="green" stroke-width="0.41" d="M75.55,-176.21C56.62,-171.45 22.56,-159.75 7.83,-134.99 -7.38,-109.42 3.63,-75.14 14.84,-51.85"/>
<polygon fill="green" stroke="green" stroke-width="0.41" points="17.98,-53.4 19.42,-42.9 11.75,-50.21 17.98,-53.4"/>
</g>
<!-- &#45;7 -->
<g id="node7" class="node">
<title>&#45;7</title>
<polygon fill="lightgray" stroke="black" points="286.83,-119.25 260.83,-119.25 260.83,-101.25 286.83,-101.25 286.83,-119.25"/>
<text text-anchor="middle" x="273.83" y="-108.05" font-family="Times,serif" font-size="9.00">&#45;7</text>
</g>
<!-- &#45;7&#45;&gt;0 -->
<g id="edge4" class="edge">
<title>&#45;7&#45;&gt;0</title>
<path fill="none" stroke="red" stroke-width="0.13" stroke-dasharray="1,5" d="M264.82,-101.24C249.79,-87.89 219.3,-60.81 199.22,-42.97"/>
<polygon fill="red" stroke="red" stroke-width="0.13" points="201.39,-40.21 191.58,-36.19 196.74,-45.45 201.39,-40.21"/>
</g>
<!-- &#45;8 -->
<g id="node8" class="node">
<title>&#45;8</title>
<polygon fill="lightgray" stroke="black" points="330.83,-119.25 304.83,-119.25 304.83,-101.25 330.83,-101.25 330.83,-119.25"/>
<text text-anchor="middle" x="317.83" y="-108.05" font-family="Times,serif" font-size="9.00">&#45;8</text>
</g>
<!-- &#45;8&#45;&gt;0 -->
<g id="edge5" class="edge">
<title>&#45;8&#45;&gt;0</title>
<path fill="none" stroke="red" stroke-width="0.17" stroke-dasharray="1,5" d="M311.5,-101.09C307.4,-96.16 301.74,-89.98 295.83,-85.5 266.82,-63.46 228.47,-45.53 203.97,-35.24"/>
<polygon fill="red" stroke="red" stroke-width="0.17" points="205.28,-31.99 194.7,-31.44 202.62,-38.47 205.28,-31.99"/>
</g>
<!-- 506 -->
<g id="node13" class="node">
<title>506</title>
<ellipse fill="white" stroke="black" cx="317.83" cy="-24.75" rx="25" ry="25"/>
<text text-anchor="middle" x="317.83" y="-22.55" font-family="Times,serif" font-size="9.00">506</text>
</g>
<!-- &#45;8&#45;&gt;506 -->
<g id="edge11" class="edge">
<title>&#45;8&#45;&gt;506</title>
<path fill="none" stroke="green" stroke-width="1.02" d="M317.83,-101.24C317.83,-91.69 317.83,-75.1 317.83,-59.9"/>
<polygon fill="green" stroke="green" stroke-width="1.02" points="321.33,-59.7 317.83,-49.7 314.33,-59.7 321.33,-59.7"/>
</g>
<!-- &#45;9 -->
<g id="node9" class="node">
<title>&#45;9</title>
<polygon fill="lightgray" stroke="black" points="350.83,-188.99 324.83,-188.99 324.83,-170.99 350.83,-170.99 350.83,-188.99"/>
<text text-anchor="middle" x="337.83" y="-177.79" font-family="Times,serif" font-size="9.00">&#45;9</text>
</g>
<!-- &#45;10 -->
<g id="node10" class="node">
<title>&#45;10</title>
<polygon fill="lightgray" stroke="black" points="92.83,-119.25 60.83,-119.25 60.83,-101.25 92.83,-101.25 92.83,-119.25"/>
<text text-anchor="middle" x="76.83" y="-108.05" font-family="Times,serif" font-size="9.00">&#45;10</text>
</g>
<!-- &#45;10&#45;&gt;0 -->
<g id="edge6" class="edge">
<title>&#45;10&#45;&gt;0</title>
<path fill="none" stroke="green" stroke-width="2.38" d="M84.96,-101.1C89.75,-96.41 96,-90.47 101.83,-85.5 120.55,-69.52 142.94,-52.57 158.93,-40.82"/>
<polygon fill="green" stroke="green" stroke-width="2.38" points="161.07,-43.59 167.08,-34.87 156.94,-37.94 161.07,-43.59"/>
</g>
<!-- &#45;10&#45;&gt;22 -->
<g id="edge10" class="edge">
<title>&#45;10&#45;&gt;22</title>
<path fill="none" stroke="red" stroke-width="1" stroke-dasharray="1,5" d="M72.32,-101.24C66,-90.01 54.21,-69.06 44.65,-52.07"/>
<polygon fill="red" stroke="red" stroke-width="1" points="47.57,-50.13 39.62,-43.13 41.47,-53.56 47.57,-50.13"/>
</g>
<!-- 226&#45;&gt;0 -->
<g id="edge9" class="edge">
<title>226&#45;&gt;0</title>
<path fill="none" stroke="green" stroke-width="0.44" d="M179.83,-85.1C179.83,-74.48 179.83,-62 179.83,-51.23"/>
<polygon fill="green" stroke="green" stroke-width="0.44" points="183.33,-51.16 179.83,-41.16 176.33,-51.16 183.33,-51.16"/>
</g>
</g>
</svg>
