<?xml version="1.0" encoding="UTF-8" standalone="no"?>
<!DOCTYPE svg PUBLIC "-//W3C//DTD SVG 1.1//EN"
 "http://www.w3.org/Graphics/SVG/1.1/DTD/svg11.dtd">
<!-- Generated by graphviz version 2.43.0 (0)
 -->
<!-- Title: %3 Pages: 1 -->
<svg width="448pt" height="180pt"
 viewBox="0.00 0.00 448.00 180.02" xmlns="http://www.w3.org/2000/svg" xmlns:xlink="http://www.w3.org/1999/xlink">
<g id="graph0" class="graph" transform="scale(1 1) rotate(0) translate(4 176.02)">
<title>%3</title>
<polygon fill="white" stroke="transparent" points="-4,4 -4,-176.02 444,-176.02 444,4 -4,4"/>
<!-- &#45;1 -->
<g id="node1" class="node">
<title>&#45;1</title>
<polygon fill="lightgray" stroke="black" points="26,-102.28 0,-102.28 0,-84.28 26,-84.28 26,-102.28"/>
<text text-anchor="middle" x="13" y="-91.08" font-family="Times,serif" font-size="9.00">&#45;1</text>
</g>
<!-- 0 -->
<g id="node11" class="node">
<title>0</title>
<ellipse fill="lightblue" stroke="black" cx="145" cy="-16.26" rx="16.03" ry="16.03"/>
<text text-anchor="middle" x="145" y="-14.06" font-family="Times,serif" font-size="9.00">0</text>
</g>
<!-- &#45;1&#45;&gt;0 -->
<g id="edge1" class="edge">
<title>&#45;1&#45;&gt;0</title>
<path fill="none" stroke="red" stroke-width="0.94" stroke-dasharray="1,5" d="M19.26,-84.03C23.34,-79.07 29,-72.9 35,-68.53 61.7,-49.07 96.96,-34.21 120.27,-25.63"/>
<polygon fill="red" stroke="red" stroke-width="0.94" points="121.54,-28.89 129.78,-22.23 119.18,-22.3 121.54,-28.89"/>
</g>
<!-- &#45;2 -->
<g id="node2" class="node">
<title>&#45;2</title>
<polygon fill="lightgray" stroke="black" points="70,-102.28 44,-102.28 44,-84.28 70,-84.28 70,-102.28"/>
<text text-anchor="middle" x="57" y="-91.08" font-family="Times,serif" font-size="9.00">&#45;2</text>
</g>
<!-- &#45;2&#45;&gt;0 -->
<g id="edge2" class="edge">
<title>&#45;2&#45;&gt;0</title>
<path fill="none" stroke="green" stroke-width="0.13" d="M64.02,-84.05C68.2,-79.33 73.7,-73.39 79,-68.53 93.3,-55.42 110.67,-42.02 124,-32.21"/>
<polygon fill="green" stroke="green" stroke-width="0.13" points="126.07,-35.03 132.1,-26.32 121.95,-29.37 126.07,-35.03"/>
</g>
<!-- &#45;3 -->
<g id="node3" class="node">
<title>&#45;3</title>
<polygon fill="lightgray" stroke="black" points="346,-172.02 320,-172.02 320,-154.02 346,-154.02 346,-172.02"/>
<text text-anchor="middle" x="333" y="-160.82" font-family="Times,serif" font-size="9.00">&#45;3</text>
</g>
<!-- &#45;4 -->
<g id="node4" class="node">
<title>&#45;4</title>
<polygon fill="lightgray" stroke="black" points="114,-102.28 88,-102.28 88,-84.28 114,-84.28 114,-102.28"/>
<text text-anchor="middle" x="101" y="-91.08" font-family="Times,serif" font-size="9.00">&#45;4</text>
</g>
<!-- &#45;4&#45;&gt;0 -->
<g id="edge3" class="edge">
<title>&#45;4&#45;&gt;0</title>
<path fill="none" stroke="red" stroke-width="0.17" d="M105.71,-84.25C111.91,-73.67 123.08,-54.64 131.92,-39.56"/>
<polygon fill="red" stroke="red" stroke-width="0.17" points="135.03,-41.18 137.07,-30.79 128.99,-37.64 135.03,-41.18"/>
</g>
<!-- &#45;5 -->
<g id="node5" class="node">
<title>&#45;5</title>
<polygon fill="lightgray" stroke="black" points="158,-102.28 132,-102.28 132,-84.28 158,-84.28 158,-102.28"/>
<text text-anchor="middle" x="145" y="-91.08" font-family="Times,serif" font-size="9.00">&#45;5</text>
</g>
<!-- &#45;5&#45;&gt;0 -->
<g id="edge4" class="edge">
<title>&#45;5&#45;&gt;0</title>
<path fill="none" stroke="green" stroke-width="0.68" d="M145,-84.25C145,-74.49 145,-57.54 145,-43.13"/>
<polygon fill="green" stroke="green" stroke-width="0.68" points="148.5,-42.77 145,-32.77 141.5,-42.77 148.5,-42.77"/>
</g>
<!-- &#45;6 -->
<g id="node6" class="node">
<title>&#45;6</title>
<polygon fill="lightgray" stroke="black" points="390,-172.02 364,-172.02 364,-154.02 390,-154.02 390,-172.02"/>
<text text-anchor="middle" x="377" y="-160.82" font-family="Times,serif" font-size="9.00">&#45;6</text>
</g>
<!-- &#45;7 -->
<g id="node7" class="node">
<title>&#45;7</title>
<polygon fill="lightgray" stroke="black" points="302,-172.02 276,-172.02 276,-154.02 302,-154.02 302,-172.02"/>
<text text-anchor="middle" x="289" y="-160.82" font-family="Times,serif" font-size="9.00">&#45;7</text>
</g>
<!-- 425 -->
<g id="node12" class="node">
<title>425</title>
<ellipse fill="white" stroke="black" cx="289" cy="-93.28" rx="25" ry="25"/>
<text text-anchor="middle" x="289" y="-91.08" font-family="Times,serif" font-size="9.00">425</text>
</g>
<!-- &#45;7&#45;&gt;425 -->
<g id="edge7" class="edge">
<title>&#45;7&#45;&gt;425</title>
<path fill="none" stroke="green" stroke-width="0.23" d="M289,-153.99C289,-147.55 289,-138.05 289,-128.52"/>
<polygon fill="green" stroke="green" stroke-width="0.23" points="292.5,-128.3 289,-118.3 285.5,-128.3 292.5,-128.3"/>
</g>
<!-- &#45;8 -->
<g id="node8" class="node">
<title>&#45;8</title>
<polygon fill="lightgray" stroke="black" points="202,-102.28 176,-102.28 176,-84.28 202,-84.28 202,-102.28"/>
<text text-anchor="middle" x="189" y="-91.08" font-family="Times,serif" font-size="9.00">&#45;8</text>
</g>
<!-- &#45;8&#45;&gt;0 -->
<g id="edge5" class="edge">
<title>&#45;8&#45;&gt;0</title>
<path fill="none" stroke="red" stroke-width="0.22" d="M184.29,-84.25C178.09,-73.67 166.92,-54.64 158.08,-39.56"/>
<polygon fill="red" stroke="red" stroke-width="0.22" points="161.01,-37.64 152.93,-30.79 154.97,-41.18 161.01,-37.64"/>
</g>
<!-- &#45;9 -->
<g id="node9" class="node">
<title>&#45;9</title>
<polygon fill="lightgray" stroke="black" points="246,-102.28 220,-102.28 220,-84.28 246,-84.28 246,-102.28"/>
<text text-anchor="middle" x="233" y="-91.08" font-family="Times,serif" font-size="9.00">&#45;9</text>
</g>
<!-- &#45;9&#45;&gt;0 -->
<g id="edge6" class="edge">
<title>&#45;9&#45;&gt;0</title>
<path fill="none" stroke="green" stroke-width="1.09" d="M225.98,-84.05C221.8,-79.33 216.3,-73.39 211,-68.53 196.7,-55.42 179.33,-42.02 166,-32.21"/>
<polygon fill="green" stroke="green" stroke-width="1.09" points="168.05,-29.37 157.9,-26.32 163.93,-35.03 168.05,-29.37"/>
</g>
<!-- &#45;10 -->
<g id="node10" class="node">
<title>&#45;10</title>
<polygon fill="lightgray" stroke="black" points="440,-172.02 408,-172.02 408,-154.02 440,-154.02 440,-172.02"/>
<text text-anchor="middle" x="424" y="-160.82" font-family="Times,serif" font-size="9.00">&#45;10</text>
</g>
<!-- 425&#45;&gt;0 -->
<g id="edge8" class="edge">
<title>425&#45;&gt;0</title>
<path fill="none" stroke="green" stroke-width="0.32" d="M269.6,-77.87C264.92,-74.63 259.87,-71.33 255,-68.53 226.54,-52.12 191.94,-36.68 169.24,-27.12"/>
<polygon fill="green" stroke="green" stroke-width="0.32" points="170.58,-23.89 160,-23.28 167.89,-30.35 170.58,-23.89"/>
</g>
</g>
</svg>
