<?xml version="1.0" encoding="UTF-8" standalone="no"?>
<!DOCTYPE svg PUBLIC "-//W3C//DTD SVG 1.1//EN"
 "http://www.w3.org/Graphics/SVG/1.1/DTD/svg11.dtd">
<!-- Generated by graphviz version 2.43.0 (0)
 -->
<!-- Title: %3 Pages: 1 -->
<svg width="272pt" height="180pt"
 viewBox="0.00 0.00 272.00 180.02" xmlns="http://www.w3.org/2000/svg" xmlns:xlink="http://www.w3.org/1999/xlink">
<g id="graph0" class="graph" transform="scale(1 1) rotate(0) translate(4 176.02)">
<title>%3</title>
<polygon fill="white" stroke="transparent" points="-4,4 -4,-176.02 268,-176.02 268,4 -4,4"/>
<!-- &#45;1 -->
<g id="node1" class="node">
<title>&#45;1</title>
<polygon fill="lightgray" stroke="black" points="26,-102.28 0,-102.28 0,-84.28 26,-84.28 26,-102.28"/>
<text text-anchor="middle" x="13" y="-91.08" font-family="Times,serif" font-size="9.00">&#45;1</text>
</g>
<!-- 0 -->
<g id="node7" class="node">
<title>0</title>
<ellipse fill="lightblue" stroke="black" cx="121" cy="-16.26" rx="16.03" ry="16.03"/>
<text text-anchor="middle" x="121" y="-14.06" font-family="Times,serif" font-size="9.00">0</text>
</g>
<!-- &#45;1&#45;&gt;0 -->
<g id="edge1" class="edge">
<title>&#45;1&#45;&gt;0</title>
<path fill="none" stroke="green" stroke-width="1.42" d="M19.43,-84.24C23.57,-79.36 29.23,-73.2 35,-68.53 54.49,-52.75 79.33,-38.47 97.3,-29.02"/>
<polygon fill="green" stroke="green" stroke-width="1.42" points="99.2,-31.97 106.49,-24.28 96,-25.75 99.2,-31.97"/>
</g>
<!-- &#45;2 -->
<g id="node2" class="node">
<title>&#45;2</title>
<polygon fill="lightgray" stroke="black" points="225,-172.02 199,-172.02 199,-154.02 225,-154.02 225,-172.02"/>
<text text-anchor="middle" x="212" y="-160.82" font-family="Times,serif" font-size="9.00">&#45;2</text>
</g>
<!-- &#45;3 -->
<g id="node3" class="node">
<title>&#45;3</title>
<polygon fill="lightgray" stroke="black" points="70,-102.28 44,-102.28 44,-84.28 70,-84.28 70,-102.28"/>
<text text-anchor="middle" x="57" y="-91.08" font-family="Times,serif" font-size="9.00">&#45;3</text>
</g>
<!-- &#45;3&#45;&gt;0 -->
<g id="edge2" class="edge">
<title>&#45;3&#45;&gt;0</title>
<path fill="none" stroke="green" stroke-width="0.46" d="M63.85,-84.25C73.37,-73.09 90.92,-52.52 104.07,-37.1"/>
<polygon fill="green" stroke="green" stroke-width="0.46" points="107.02,-39.04 110.85,-29.16 101.69,-34.5 107.02,-39.04"/>
</g>
<!-- &#45;4 -->
<g id="node4" class="node">
<title>&#45;4</title>
<polygon fill="lightgray" stroke="black" points="114,-102.28 88,-102.28 88,-84.28 114,-84.28 114,-102.28"/>
<text text-anchor="middle" x="101" y="-91.08" font-family="Times,serif" font-size="9.00">&#45;4</text>
</g>
<!-- &#45;4&#45;&gt;0 -->
<g id="edge3" class="edge">
<title>&#45;4&#45;&gt;0</title>
<path fill="none" stroke="red" stroke-width="1.16" stroke-dasharray="1,5" d="M103.14,-84.25C105.8,-74.27 110.46,-56.78 114.36,-42.17"/>
<polygon fill="red" stroke="red" stroke-width="1.16" points="117.82,-42.76 117.02,-32.2 111.06,-40.96 117.82,-42.76"/>
</g>
<!-- &#45;5 -->
<g id="node5" class="node">
<title>&#45;5</title>
<polygon fill="lightgray" stroke="black" points="181,-172.02 155,-172.02 155,-154.02 181,-154.02 181,-172.02"/>
<text text-anchor="middle" x="168" y="-160.82" font-family="Times,serif" font-size="9.00">&#45;5</text>
</g>
<!-- &#45;5&#45;&gt;0 -->
<g id="edge4" class="edge">
<title>&#45;5&#45;&gt;0</title>
<path fill="none" stroke="green" stroke-width="0.3" stroke-dasharray="1,5" d="M165.34,-153.83C158.43,-132.56 139.74,-74.98 128.96,-41.77"/>
<polygon fill="green" stroke="green" stroke-width="0.3" points="132.18,-40.36 125.76,-31.93 125.52,-42.52 132.18,-40.36"/>
</g>
<!-- 164 -->
<g id="node8" class="node">
<title>164</title>
<ellipse fill="white" stroke="black" cx="195" cy="-93.28" rx="25" ry="25"/>
<text text-anchor="middle" x="195" y="-91.08" font-family="Times,serif" font-size="9.00">164</text>
</g>
<!-- &#45;5&#45;&gt;164 -->
<g id="edge6" class="edge">
<title>&#45;5&#45;&gt;164</title>
<path fill="none" stroke="green" stroke-width="0.15" d="M171.2,-153.99C174.01,-146.96 178.26,-136.27 182.41,-125.87"/>
<polygon fill="green" stroke="green" stroke-width="0.15" points="185.69,-127.1 186.14,-116.51 179.18,-124.51 185.69,-127.1"/>
</g>
<!-- &#45;6 -->
<g id="node6" class="node">
<title>&#45;6</title>
<polygon fill="lightgray" stroke="black" points="264,-102.28 238,-102.28 238,-84.28 264,-84.28 264,-102.28"/>
<text text-anchor="middle" x="251" y="-91.08" font-family="Times,serif" font-size="9.00">&#45;6</text>
</g>
<!-- &#45;6&#45;&gt;0 -->
<g id="edge5" class="edge">
<title>&#45;6&#45;&gt;0</title>
<path fill="none" stroke="red" stroke-width="1.68" d="M244.72,-84.05C240.64,-79.09 234.98,-72.92 229,-68.53 203.03,-49.46 168.85,-34.67 145.96,-25.98"/>
<polygon fill="red" stroke="red" stroke-width="1.68" points="146.9,-22.59 136.31,-22.42 144.48,-29.16 146.9,-22.59"/>
</g>
<!-- 164&#45;&gt;0 -->
<g id="edge7" class="edge">
<title>164&#45;&gt;0</title>
<path fill="none" stroke="red" stroke-width="0.83" d="M177.84,-74.88C166.35,-63.23 151.24,-47.92 139.49,-36"/>
<polygon fill="red" stroke="red" stroke-width="0.83" points="141.83,-33.4 132.32,-28.74 136.85,-38.31 141.83,-33.4"/>
</g>
</g>
</svg>
