<?xml version="1.0" encoding="UTF-8" standalone="no"?>
<!DOCTYPE svg PUBLIC "-//W3C//DTD SVG 1.1//EN"
 "http://www.w3.org/Graphics/SVG/1.1/DTD/svg11.dtd">
<!-- Generated by graphviz version 2.43.0 (0)
 -->
<!-- Title: %3 Pages: 1 -->
<svg width="365pt" height="180pt"
 viewBox="0.00 0.00 365.00 180.02" xmlns="http://www.w3.org/2000/svg" xmlns:xlink="http://www.w3.org/1999/xlink">
<g id="graph0" class="graph" transform="scale(1 1) rotate(0) translate(4 176.02)">
<title>%3</title>
<polygon fill="white" stroke="transparent" points="-4,4 -4,-176.02 361,-176.02 361,4 -4,4"/>
<!-- &#45;1 -->
<g id="node1" class="node">
<title>&#45;1</title>
<polygon fill="lightgray" stroke="black" points="181,-172.02 155,-172.02 155,-154.02 181,-154.02 181,-172.02"/>
<text text-anchor="middle" x="168" y="-160.82" font-family="Times,serif" font-size="9.00">&#45;1</text>
</g>
<!-- &#45;2 -->
<g id="node2" class="node">
<title>&#45;2</title>
<polygon fill="lightgray" stroke="black" points="26,-102.28 0,-102.28 0,-84.28 26,-84.28 26,-102.28"/>
<text text-anchor="middle" x="13" y="-91.08" font-family="Times,serif" font-size="9.00">&#45;2</text>
</g>
<!-- 0 -->
<g id="node11" class="node">
<title>0</title>
<ellipse fill="lightblue" stroke="black" cx="145" cy="-16.26" rx="16.03" ry="16.03"/>
<text text-anchor="middle" x="145" y="-14.06" font-family="Times,serif" font-size="9.00">0</text>
</g>
<!-- &#45;2&#45;&gt;0 -->
<g id="edge1" class="edge">
<title>&#45;2&#45;&gt;0</title>
<path fill="none" stroke="green" stroke-width="0.52" d="M19.26,-84.03C23.34,-79.07 29,-72.9 35,-68.53 61.7,-49.07 96.96,-34.21 120.27,-25.63"/>
<polygon fill="green" stroke="green" stroke-width="0.52" points="121.54,-28.89 129.78,-22.23 119.18,-22.3 121.54,-28.89"/>
</g>
<!-- &#45;3 -->
<g id="node3" class="node">
<title>&#45;3</title>
<polygon fill="lightgray" stroke="black" points="70,-102.28 44,-102.28 44,-84.28 70,-84.28 70,-102.28"/>
<text text-anchor="middle" x="57" y="-91.08" font-family="Times,serif" font-size="9.00">&#45;3</text>
</g>
<!-- &#45;3&#45;&gt;0 -->
<g id="edge2" class="edge">
<title>&#45;3&#45;&gt;0</title>
<path fill="none" stroke="red" stroke-width="0.59" d="M64.02,-84.05C68.2,-79.33 73.7,-73.39 79,-68.53 93.3,-55.42 110.67,-42.02 124,-32.21"/>
<polygon fill="red" stroke="red" stroke-width="0.59" points="126.07,-35.03 132.1,-26.32 121.95,-29.37 126.07,-35.03"/>
</g>
<!-- &#45;4 -->
<g id="node4" class="node">
<title>&#45;4</title>
<polygon fill="lightgray" stroke="black" points="114,-102.28 88,-102.28 88,-84.28 114,-84.28 114,-102.28"/>
<text text-anchor="middle" x="101" y="-91.08" font-family="Times,serif" font-size="9.00">&#45;4</text>
</g>
<!-- &#45;4&#45;&gt;0 -->
<g id="edge3" class="edge">
<title>&#45;4&#45;&gt;0</title>
<path fill="none" stroke="green" stroke-width="0.35" d="M105.71,-84.25C111.91,-73.67 123.08,-54.64 131.92,-39.56"/>
<polygon fill="green" stroke="green" stroke-width="0.35" points="135.03,-41.18 137.07,-30.79 128.99,-37.64 135.03,-41.18"/>
</g>
<!-- &#45;5 -->
<g id="node5" class="node">
<title>&#45;5</title>
<polygon fill="lightgray" stroke="black" points="158,-102.28 132,-102.28 132,-84.28 158,-84.28 158,-102.28"/>
<text text-anchor="middle" x="145" y="-91.08" font-family="Times,serif" font-size="9.00">&#45;5</text>
</g>
<!-- &#45;5&#45;&gt;0 -->
<g id="edge4" class="edge">
<title>&#45;5&#45;&gt;0</title>
<path fill="none" stroke="green" stroke-width="1.22" stroke-dasharray="1,5" d="M145,-84.25C145,-74.49 145,-57.54 145,-43.13"/>
<polygon fill="green" stroke="green" stroke-width="1.22" points="148.5,-42.77 145,-32.77 141.5,-42.77 148.5,-42.77"/>
</g>
<!-- &#45;6 -->
<g id="node6" class="node">
<title>&#45;6</title>
<polygon fill="lightgray" stroke="black" points="269,-172.02 243,-172.02 243,-154.02 269,-154.02 269,-172.02"/>
<text text-anchor="middle" x="256" y="-160.82" font-family="Times,serif" font-size="9.00">&#45;6</text>
</g>
<!-- &#45;7 -->
<g id="node7" class="node">
<title>&#45;7</title>
<polygon fill="lightgray" stroke="black" points="313,-172.02 287,-172.02 287,-154.02 313,-154.02 313,-172.02"/>
<text text-anchor="middle" x="300" y="-160.82" font-family="Times,serif" font-size="9.00">&#45;7</text>
</g>
<!-- &#45;8 -->
<g id="node8" class="node">
<title>&#45;8</title>
<polygon fill="lightgray" stroke="black" points="225,-172.02 199,-172.02 199,-154.02 225,-154.02 225,-172.02"/>
<text text-anchor="middle" x="212" y="-160.82" font-family="Times,serif" font-size="9.00">&#45;8</text>
</g>
<!-- &#45;8&#45;&gt;0 -->
<g id="edge5" class="edge">
<title>&#45;8&#45;&gt;0</title>
<path fill="none" stroke="red" stroke-width="0.59" stroke-dasharray="1,5" d="M208.21,-153.83C198.27,-132.36 171.21,-73.89 155.91,-40.84"/>
<polygon fill="red" stroke="red" stroke-width="0.59" points="158.95,-39.07 151.57,-31.47 152.6,-42.01 158.95,-39.07"/>
</g>
<!-- 234 -->
<g id="node12" class="node">
<title>234</title>
<ellipse fill="white" stroke="black" cx="239" cy="-93.28" rx="25" ry="25"/>
<text text-anchor="middle" x="239" y="-91.08" font-family="Times,serif" font-size="9.00">234</text>
</g>
<!-- &#45;8&#45;&gt;234 -->
<g id="edge7" class="edge">
<title>&#45;8&#45;&gt;234</title>
<path fill="none" stroke="red" stroke-width="0.54" d="M215.2,-153.99C218.01,-146.96 222.26,-136.27 226.41,-125.87"/>
<polygon fill="red" stroke="red" stroke-width="0.54" points="229.69,-127.1 230.14,-116.51 223.18,-124.51 229.69,-127.1"/>
</g>
<!-- &#45;9 -->
<g id="node9" class="node">
<title>&#45;9</title>
<polygon fill="lightgray" stroke="black" points="357,-172.02 331,-172.02 331,-154.02 357,-154.02 357,-172.02"/>
<text text-anchor="middle" x="344" y="-160.82" font-family="Times,serif" font-size="9.00">&#45;9</text>
</g>
<!-- &#45;10 -->
<g id="node10" class="node">
<title>&#45;10</title>
<polygon fill="lightgray" stroke="black" points="314,-102.28 282,-102.28 282,-84.28 314,-84.28 314,-102.28"/>
<text text-anchor="middle" x="298" y="-91.08" font-family="Times,serif" font-size="9.00">&#45;10</text>
</g>
<!-- &#45;10&#45;&gt;0 -->
<g id="edge6" class="edge">
<title>&#45;10&#45;&gt;0</title>
<path fill="none" stroke="red" stroke-width="1.2" d="M290.77,-83.96C286.09,-78.97 279.65,-72.79 273,-68.53 240.09,-47.42 197.08,-32.38 170.24,-24.26"/>
<polygon fill="red" stroke="red" stroke-width="1.2" points="171.06,-20.85 160.47,-21.39 169.08,-27.56 171.06,-20.85"/>
</g>
<!-- 234&#45;&gt;0 -->
<g id="edge8" class="edge">
<title>234&#45;&gt;0</title>
<path fill="none" stroke="green" stroke-width="0.85" d="M219.98,-77.1C204.08,-64.41 181.47,-46.36 165.24,-33.41"/>
<polygon fill="green" stroke="green" stroke-width="0.85" points="167.4,-30.66 157.4,-27.16 163.04,-36.13 167.4,-30.66"/>
</g>
</g>
</svg>
