<?xml version="1.0" encoding="UTF-8" standalone="no"?>
<!DOCTYPE svg PUBLIC "-//W3C//DTD SVG 1.1//EN"
 "http://www.w3.org/Graphics/SVG/1.1/DTD/svg11.dtd">
<!-- Generated by graphviz version 2.43.0 (0)
 -->
<!-- Title: %3 Pages: 1 -->
<svg width="340pt" height="180pt"
 viewBox="0.00 0.00 339.75 180.02" xmlns="http://www.w3.org/2000/svg" xmlns:xlink="http://www.w3.org/1999/xlink">
<g id="graph0" class="graph" transform="scale(1 1) rotate(0) translate(4 176.02)">
<title>%3</title>
<polygon fill="white" stroke="transparent" points="-4,4 -4,-176.02 335.75,-176.02 335.75,4 -4,4"/>
<!-- &#45;1 -->
<g id="node1" class="node">
<title>&#45;1</title>
<polygon fill="lightgray" stroke="black" points="26,-102.28 0,-102.28 0,-84.28 26,-84.28 26,-102.28"/>
<text text-anchor="middle" x="13" y="-91.08" font-family="Times,serif" font-size="9.00">&#45;1</text>
</g>
<!-- 0 -->
<g id="node7" class="node">
<title>0</title>
<ellipse fill="lightblue" stroke="black" cx="142" cy="-16.26" rx="16.03" ry="16.03"/>
<text text-anchor="middle" x="142" y="-14.06" font-family="Times,serif" font-size="9.00">0</text>
</g>
<!-- &#45;1&#45;&gt;0 -->
<g id="edge1" class="edge">
<title>&#45;1&#45;&gt;0</title>
<path fill="none" stroke="red" stroke-width="0.52" stroke-dasharray="1,5" d="M19.28,-84.06C23.37,-79.11 29.03,-72.93 35,-68.53 60.74,-49.56 94.6,-34.74 117.28,-26.02"/>
<polygon fill="red" stroke="red" stroke-width="0.52" points="118.7,-29.23 126.84,-22.45 116.25,-22.67 118.7,-29.23"/>
</g>
<!-- &#45;2 -->
<g id="node2" class="node">
<title>&#45;2</title>
<polygon fill="lightgray" stroke="black" points="320,-172.02 294,-172.02 294,-154.02 320,-154.02 320,-172.02"/>
<text text-anchor="middle" x="307" y="-160.82" font-family="Times,serif" font-size="9.00">&#45;2</text>
</g>
<!-- 100 -->
<g id="node8" class="node">
<title>100</title>
<ellipse fill="white" stroke="black" cx="307" cy="-93.28" rx="25" ry="25"/>
<text text-anchor="middle" x="307" y="-91.08" font-family="Times,serif" font-size="9.00">100</text>
</g>
<!-- &#45;2&#45;&gt;100 -->
<g id="edge7" class="edge">
<title>&#45;2&#45;&gt;100</title>
<path fill="none" stroke="green" stroke-width="0.46" d="M307,-153.99C307,-147.55 307,-138.05 307,-128.52"/>
<polygon fill="green" stroke="green" stroke-width="0.46" points="310.5,-128.3 307,-118.3 303.5,-128.3 310.5,-128.3"/>
</g>
<!-- &#45;3 -->
<g id="node3" class="node">
<title>&#45;3</title>
<polygon fill="lightgray" stroke="black" points="70,-102.28 44,-102.28 44,-84.28 70,-84.28 70,-102.28"/>
<text text-anchor="middle" x="57" y="-91.08" font-family="Times,serif" font-size="9.00">&#45;3</text>
</g>
<!-- &#45;3&#45;&gt;0 -->
<g id="edge2" class="edge">
<title>&#45;3&#45;&gt;0</title>
<path fill="none" stroke="green" stroke-width="0.41" d="M64.06,-84.09C68.25,-79.39 73.75,-73.45 79,-68.53 92.37,-55.99 108.41,-42.96 120.96,-33.18"/>
<polygon fill="green" stroke="green" stroke-width="0.41" points="123.23,-35.85 129.01,-26.97 118.95,-30.31 123.23,-35.85"/>
</g>
<!-- &#45;4 -->
<g id="node4" class="node">
<title>&#45;4</title>
<polygon fill="lightgray" stroke="black" points="114,-102.28 88,-102.28 88,-84.28 114,-84.28 114,-102.28"/>
<text text-anchor="middle" x="101" y="-91.08" font-family="Times,serif" font-size="9.00">&#45;4</text>
</g>
<!-- &#45;4&#45;&gt;0 -->
<g id="edge3" class="edge">
<title>&#45;4&#45;&gt;0</title>
<path fill="none" stroke="red" stroke-width="0.96" d="M105.39,-84.25C111.12,-73.77 121.38,-55 129.58,-39.98"/>
<polygon fill="red" stroke="red" stroke-width="0.96" points="132.88,-41.24 134.61,-30.79 126.74,-37.88 132.88,-41.24"/>
</g>
<!-- &#45;5 -->
<g id="node5" class="node">
<title>&#45;5</title>
<polygon fill="lightgray" stroke="black" points="182,-172.02 156,-172.02 156,-154.02 182,-154.02 182,-172.02"/>
<text text-anchor="middle" x="169" y="-160.82" font-family="Times,serif" font-size="9.00">&#45;5</text>
</g>
<!-- &#45;5&#45;&gt;0 -->
<g id="edge4" class="edge">
<title>&#45;5&#45;&gt;0</title>
<path fill="none" stroke="green" stroke-width="1.11" stroke-dasharray="1,5" d="M167.47,-153.83C163.53,-132.67 152.87,-75.57 146.67,-42.28"/>
<polygon fill="green" stroke="green" stroke-width="1.11" points="150.1,-41.58 144.82,-32.39 143.21,-42.86 150.1,-41.58"/>
</g>
<!-- 294 -->
<g id="node9" class="node">
<title>294</title>
<ellipse fill="white" stroke="black" cx="195" cy="-93.28" rx="25" ry="25"/>
<text text-anchor="middle" x="195" y="-91.08" font-family="Times,serif" font-size="9.00">294</text>
</g>
<!-- &#45;5&#45;&gt;294 -->
<g id="edge8" class="edge">
<title>&#45;5&#45;&gt;294</title>
<path fill="none" stroke="red" stroke-width="0.62" d="M172.08,-153.99C174.78,-146.96 178.88,-136.27 182.88,-125.87"/>
<polygon fill="red" stroke="red" stroke-width="0.62" points="186.15,-127.1 186.47,-116.51 179.62,-124.6 186.15,-127.1"/>
</g>
<!-- &#45;6 -->
<g id="node6" class="node">
<title>&#45;6</title>
<polygon fill="lightgray" stroke="black" points="264,-102.28 238,-102.28 238,-84.28 264,-84.28 264,-102.28"/>
<text text-anchor="middle" x="251" y="-91.08" font-family="Times,serif" font-size="9.00">&#45;6</text>
</g>
<!-- &#45;6&#45;&gt;0 -->
<g id="edge5" class="edge">
<title>&#45;6&#45;&gt;0</title>
<path fill="none" stroke="red" stroke-width="0.16" d="M244.58,-84.23C240.45,-79.35 234.78,-73.18 229,-68.53 209.09,-52.49 183.64,-38.1 165.42,-28.67"/>
<polygon fill="red" stroke="red" stroke-width="0.16" points="166.87,-25.48 156.37,-24.09 163.71,-31.73 166.87,-25.48"/>
</g>
<!-- 100&#45;&gt;0 -->
<g id="edge6" class="edge">
<title>100&#45;&gt;0</title>
<path fill="none" stroke="red" stroke-width="0.45" d="M287.73,-77.64C283.04,-74.42 277.95,-71.18 273,-68.53 237.83,-49.71 194.22,-34.04 167.25,-25.16"/>
<polygon fill="red" stroke="red" stroke-width="0.45" points="168.04,-21.73 157.45,-21.99 165.89,-28.39 168.04,-21.73"/>
</g>
<!-- 294&#45;&gt;0 -->
<g id="edge9" class="edge">
<title>294&#45;&gt;0</title>
<path fill="none" stroke="green" stroke-width="0.36" d="M181.07,-72.57C173.69,-62.12 164.62,-49.28 157.08,-38.6"/>
<polygon fill="green" stroke="green" stroke-width="0.36" points="159.8,-36.39 151.17,-30.24 154.08,-40.43 159.8,-36.39"/>
</g>
</g>
</svg>
