<?xml version="1.0" encoding="UTF-8" standalone="no"?>
<!DOCTYPE svg PUBLIC "-//W3C//DTD SVG 1.1//EN"
 "http://www.w3.org/Graphics/SVG/1.1/DTD/svg11.dtd">
<!-- Generated by graphviz version 2.43.0 (0)
 -->
<!-- Title: %3 Pages: 1 -->
<svg width="454pt" height="245pt"
 viewBox="0.00 0.00 453.89 245.46" xmlns="http://www.w3.org/2000/svg" xmlns:xlink="http://www.w3.org/1999/xlink">
<g id="graph0" class="graph" transform="scale(1 1) rotate(0) translate(4 241.46)">
<title>%3</title>
<polygon fill="white" stroke="transparent" points="-4,4 -4,-241.46 449.89,-241.46 449.89,4 -4,4"/>
<!-- &#45;1 -->
<g id="node1" class="node">
<title>&#45;1</title>
<polygon fill="lightgray" stroke="black" points="32.14,-217.47 6.14,-217.47 6.14,-199.47 32.14,-199.47 32.14,-217.47"/>
<text text-anchor="middle" x="19.14" y="-206.27" font-family="Times,serif" font-size="9.00">&#45;1</text>
</g>
<!-- 0 -->
<g id="node7" class="node">
<title>0</title>
<ellipse fill="lightblue" stroke="black" cx="122.14" cy="-24.75" rx="16.03" ry="16.03"/>
<text text-anchor="middle" x="122.14" y="-22.55" font-family="Times,serif" font-size="9.00">0</text>
</g>
<!-- &#45;1&#45;&gt;0 -->
<g id="edge1" class="edge">
<title>&#45;1&#45;&gt;0</title>
<path fill="none" stroke="green" stroke-width="0.13" stroke-dasharray="1,5" d="M15.66,-199.32C7.38,-178.59 -11.17,-122.84 11.14,-85.5 29.47,-54.81 69.59,-38.96 96.24,-31.51"/>
<polygon fill="green" stroke="green" stroke-width="0.13" points="97.25,-34.86 106.05,-28.97 95.49,-28.08 97.25,-34.86"/>
</g>
<!-- 720 -->
<g id="node11" class="node">
<title>720</title>
<ellipse fill="white" stroke="black" cx="45.14" cy="-114.49" rx="25" ry="25"/>
<text text-anchor="middle" x="45.14" y="-112.29" font-family="Times,serif" font-size="9.00">720</text>
</g>
<!-- &#45;1&#45;&gt;720 -->
<g id="edge7" class="edge">
<title>&#45;1&#45;&gt;720</title>
<path fill="none" stroke="red" stroke-width="0.8" d="M21.45,-199.31C24.66,-187.96 30.65,-166.74 35.81,-148.49"/>
<polygon fill="red" stroke="red" stroke-width="0.8" points="39.21,-149.32 38.57,-138.74 32.48,-147.41 39.21,-149.32"/>
</g>
<!-- &#45;2 -->
<g id="node2" class="node">
<title>&#45;2</title>
<polygon fill="lightgray" stroke="black" points="114.14,-123.49 88.14,-123.49 88.14,-105.49 114.14,-105.49 114.14,-123.49"/>
<text text-anchor="middle" x="101.14" y="-112.29" font-family="Times,serif" font-size="9.00">&#45;2</text>
</g>
<!-- &#45;2&#45;&gt;0 -->
<g id="edge2" class="edge">
<title>&#45;2&#45;&gt;0</title>
<path fill="none" stroke="green" stroke-width="0.46" stroke-dasharray="1,5" d="M103.08,-105.39C106.03,-93.06 111.77,-69.08 116.18,-50.63"/>
<polygon fill="green" stroke="green" stroke-width="0.46" points="119.61,-51.35 118.54,-40.81 112.8,-49.72 119.61,-51.35"/>
</g>
<!-- &#45;3 -->
<g id="node3" class="node">
<title>&#45;3</title>
<polygon fill="lightgray" stroke="black" points="384.14,-217.47 358.14,-217.47 358.14,-199.47 384.14,-199.47 384.14,-217.47"/>
<text text-anchor="middle" x="371.14" y="-206.27" font-family="Times,serif" font-size="9.00">&#45;3</text>
</g>
<!-- 961 -->
<g id="node8" class="node">
<title>961</title>
<ellipse fill="white" stroke="black" cx="315.14" cy="-114.49" rx="25" ry="25"/>
<text text-anchor="middle" x="315.14" y="-112.29" font-family="Times,serif" font-size="9.00">961</text>
</g>
<!-- &#45;3&#45;&gt;961 -->
<g id="edge9" class="edge">
<title>&#45;3&#45;&gt;961</title>
<path fill="none" stroke="green" stroke-width="0.31" stroke-dasharray="1,5" d="M366.17,-199.31C358.78,-187.16 344.5,-163.72 332.93,-144.71"/>
<polygon fill="green" stroke="green" stroke-width="0.31" points="335.86,-142.8 327.67,-136.07 329.88,-146.44 335.86,-142.8"/>
</g>
<!-- 706 -->
<g id="node9" class="node">
<title>706</title>
<ellipse fill="white" stroke="black" cx="341.14" cy="-24.75" rx="25" ry="25"/>
<text text-anchor="middle" x="341.14" y="-22.55" font-family="Times,serif" font-size="9.00">706</text>
</g>
<!-- &#45;3&#45;&gt;706 -->
<g id="edge6" class="edge">
<title>&#45;3&#45;&gt;706</title>
<path fill="none" stroke="red" stroke-width="0.76" stroke-dasharray="1,5" d="M369.77,-199.19C365.76,-174.88 353.84,-102.71 346.71,-59.5"/>
<polygon fill="red" stroke="red" stroke-width="0.76" points="350.13,-58.75 345.05,-49.45 343.23,-59.89 350.13,-58.75"/>
</g>
<!-- 529 -->
<g id="node12" class="node">
<title>529</title>
<ellipse fill="white" stroke="black" cx="421.14" cy="-114.49" rx="25" ry="25"/>
<text text-anchor="middle" x="421.14" y="-112.29" font-family="Times,serif" font-size="9.00">529</text>
</g>
<!-- &#45;3&#45;&gt;529 -->
<g id="edge3" class="edge">
<title>&#45;3&#45;&gt;529</title>
<path fill="none" stroke="green" stroke-width="0.52" stroke-dasharray="1,5" d="M375.58,-199.31C382.07,-187.37 394.49,-164.51 404.73,-145.68"/>
<polygon fill="green" stroke="green" stroke-width="0.52" points="407.84,-147.28 409.54,-136.83 401.69,-143.94 407.84,-147.28"/>
</g>
<!-- &#45;4 -->
<g id="node4" class="node">
<title>&#45;4</title>
<polygon fill="lightgray" stroke="black" points="183.14,-217.47 157.14,-217.47 157.14,-199.47 183.14,-199.47 183.14,-217.47"/>
<text text-anchor="middle" x="170.14" y="-206.27" font-family="Times,serif" font-size="9.00">&#45;4</text>
</g>
<!-- &#45;4&#45;&gt;0 -->
<g id="edge5" class="edge">
<title>&#45;4&#45;&gt;0</title>
<path fill="none" stroke="green" stroke-width="0.25" d="M167.95,-199.19C161.07,-173.13 139.66,-92.07 128.72,-50.66"/>
<polygon fill="green" stroke="green" stroke-width="0.25" points="132.05,-49.58 126.12,-40.8 125.29,-51.37 132.05,-49.58"/>
</g>
<!-- 1236 -->
<g id="node13" class="node">
<title>1236</title>
<ellipse fill="white" stroke="black" cx="199.14" cy="-114.49" rx="28.98" ry="28.98"/>
<text text-anchor="middle" x="199.14" y="-112.29" font-family="Times,serif" font-size="9.00">1236</text>
</g>
<!-- &#45;4&#45;&gt;1236 -->
<g id="edge12" class="edge">
<title>&#45;4&#45;&gt;1236</title>
<path fill="none" stroke="green" stroke-width="0.52" d="M172.71,-199.31C176.05,-188.72 182.09,-169.56 187.56,-152.23"/>
<polygon fill="green" stroke="green" stroke-width="0.52" points="191.01,-152.9 190.68,-142.31 184.34,-150.8 191.01,-152.9"/>
</g>
<!-- &#45;5 -->
<g id="node5" class="node">
<title>&#45;5</title>
<polygon fill="lightgray" stroke="black" points="428.14,-217.47 402.14,-217.47 402.14,-199.47 428.14,-199.47 428.14,-217.47"/>
<text text-anchor="middle" x="415.14" y="-206.27" font-family="Times,serif" font-size="9.00">&#45;5</text>
</g>
<!-- &#45;6 -->
<g id="node6" class="node">
<title>&#45;6</title>
<polygon fill="lightgray" stroke="black" points="272.14,-123.49 246.14,-123.49 246.14,-105.49 272.14,-105.49 272.14,-123.49"/>
<text text-anchor="middle" x="259.14" y="-112.29" font-family="Times,serif" font-size="9.00">&#45;6</text>
</g>
<!-- &#45;6&#45;&gt;0 -->
<g id="edge4" class="edge">
<title>&#45;6&#45;&gt;0</title>
<path fill="none" stroke="green" stroke-width="1.84" d="M254.13,-105.36C250.1,-99.32 243.99,-91.18 237.14,-85.5 209.27,-62.41 171.03,-44.75 146.45,-34.81"/>
<polygon fill="green" stroke="green" stroke-width="1.84" points="147.71,-31.55 137.13,-31.14 145.15,-38.06 147.71,-31.55"/>
</g>
<!-- 961&#45;&gt;706 -->
<g id="edge10" class="edge">
<title>961&#45;&gt;706</title>
<path fill="none" stroke="green" stroke-width="0.4" stroke-dasharray="1,5" d="M321.97,-90.44C324.87,-80.66 328.29,-69.1 331.44,-58.46"/>
<polygon fill="green" stroke="green" stroke-width="0.4" points="334.87,-59.23 334.35,-48.65 328.16,-57.24 334.87,-59.23"/>
</g>
<!-- 1037 -->
<g id="node10" class="node">
<title>1037</title>
<ellipse fill="white" stroke="black" cx="311.14" cy="-208.47" rx="28.98" ry="28.98"/>
<text text-anchor="middle" x="311.14" y="-206.27" font-family="Times,serif" font-size="9.00">1037</text>
</g>
<!-- 1037&#45;&gt;961 -->
<g id="edge11" class="edge">
<title>1037&#45;&gt;961</title>
<path fill="none" stroke="red" stroke-width="1.21" d="M312.36,-179.37C312.77,-169.98 313.23,-159.42 313.66,-149.62"/>
<polygon fill="red" stroke="red" stroke-width="1.21" points="317.16,-149.53 314.1,-139.38 310.17,-149.22 317.16,-149.53"/>
</g>
<!-- 720&#45;&gt;0 -->
<g id="edge8" class="edge">
<title>720&#45;&gt;0</title>
<path fill="none" stroke="red" stroke-width="0.69" d="M61.09,-95.31C73.95,-80.66 92,-60.1 105.13,-45.13"/>
<polygon fill="red" stroke="red" stroke-width="0.69" points="107.89,-47.29 111.86,-37.47 102.63,-42.67 107.89,-47.29"/>
</g>
<!-- 1236&#45;&gt;0 -->
<g id="edge13" class="edge">
<title>1236&#45;&gt;0</title>
<path fill="none" stroke="green" stroke-width="1.99" d="M180.5,-92.25C168,-78 151.65,-59.38 139.44,-45.46"/>
<polygon fill="green" stroke="green" stroke-width="1.99" points="142.01,-43.09 132.79,-37.88 136.75,-47.7 142.01,-43.09"/>
</g>
</g>
</svg>
