<?xml version="1.0" encoding="UTF-8" standalone="no"?>
<!DOCTYPE svg PUBLIC "-//W3C//DTD SVG 1.1//EN"
 "http://www.w3.org/Graphics/SVG/1.1/DTD/svg11.dtd">
<!-- Generated by graphviz version 2.43.0 (0)
 -->
<!-- Title: %3 Pages: 1 -->
<svg width="231pt" height="172pt"
 viewBox="0.00 0.00 231.00 171.54" xmlns="http://www.w3.org/2000/svg" xmlns:xlink="http://www.w3.org/1999/xlink">
<g id="graph0" class="graph" transform="scale(1 1) rotate(0) translate(4 167.54)">
<title>%3</title>
<polygon fill="white" stroke="transparent" points="-4,4 -4,-167.54 227,-167.54 227,4 -4,4"/>
<!-- &#45;1 -->
<g id="node1" class="node">
<title>&#45;1</title>
<polygon fill="lightgray" stroke="black" points="26,-98.03 0,-98.03 0,-80.03 26,-80.03 26,-98.03"/>
<text text-anchor="middle" x="13" y="-86.83" font-family="Times,serif" font-size="9.00">&#45;1</text>
</g>
<!-- 0 -->
<g id="node7" class="node">
<title>0</title>
<ellipse fill="lightblue" stroke="black" cx="98" cy="-16.26" rx="16.03" ry="16.03"/>
<text text-anchor="middle" x="98" y="-14.06" font-family="Times,serif" font-size="9.00">0</text>
</g>
<!-- &#45;1&#45;&gt;0 -->
<g id="edge1" class="edge">
<title>&#45;1&#45;&gt;0</title>
<path fill="none" stroke="red" stroke-width="0.58" d="M21.92,-79.97C25.89,-76.42 30.64,-72.23 35,-68.53 48.97,-56.66 65,-43.62 77.39,-33.67"/>
<polygon fill="red" stroke="red" stroke-width="0.58" points="79.7,-36.3 85.32,-27.32 75.33,-30.84 79.7,-36.3"/>
</g>
<!-- &#45;2 -->
<g id="node2" class="node">
<title>&#45;2</title>
<polygon fill="lightgray" stroke="black" points="179,-163.54 153,-163.54 153,-145.54 179,-145.54 179,-163.54"/>
<text text-anchor="middle" x="166" y="-152.34" font-family="Times,serif" font-size="9.00">&#45;2</text>
</g>
<!-- &#45;3 -->
<g id="node3" class="node">
<title>&#45;3</title>
<polygon fill="lightgray" stroke="black" points="70,-98.03 44,-98.03 44,-80.03 70,-80.03 70,-98.03"/>
<text text-anchor="middle" x="57" y="-86.83" font-family="Times,serif" font-size="9.00">&#45;3</text>
</g>
<!-- &#45;3&#45;&gt;0 -->
<g id="edge2" class="edge">
<title>&#45;3&#45;&gt;0</title>
<path fill="none" stroke="red" stroke-width="0.37" d="M61.7,-79.91C67.34,-70.18 77.03,-53.46 84.98,-39.74"/>
<polygon fill="red" stroke="red" stroke-width="0.37" points="88.15,-41.25 90.13,-30.84 82.09,-37.74 88.15,-41.25"/>
</g>
<!-- &#45;4 -->
<g id="node4" class="node">
<title>&#45;4</title>
<polygon fill="lightgray" stroke="black" points="223,-163.54 197,-163.54 197,-145.54 223,-145.54 223,-163.54"/>
<text text-anchor="middle" x="210" y="-152.34" font-family="Times,serif" font-size="9.00">&#45;4</text>
</g>
<!-- &#45;5 -->
<g id="node5" class="node">
<title>&#45;5</title>
<polygon fill="lightgray" stroke="black" points="135,-163.54 109,-163.54 109,-145.54 135,-145.54 135,-163.54"/>
<text text-anchor="middle" x="122" y="-152.34" font-family="Times,serif" font-size="9.00">&#45;5</text>
</g>
<!-- &#45;5&#45;&gt;0 -->
<g id="edge3" class="edge">
<title>&#45;5&#45;&gt;0</title>
<path fill="none" stroke="red" stroke-width="0.45" stroke-dasharray="1,5" d="M120.57,-145.42C117.09,-125.64 108.04,-74.25 102.51,-42.88"/>
<polygon fill="red" stroke="red" stroke-width="0.45" points="105.9,-41.95 100.72,-32.71 99.01,-43.17 105.9,-41.95"/>
</g>
<!-- 25 -->
<g id="node8" class="node">
<title>25</title>
<ellipse fill="white" stroke="black" cx="147" cy="-89.03" rx="20.51" ry="20.51"/>
<text text-anchor="middle" x="147" y="-86.83" font-family="Times,serif" font-size="9.00">25</text>
</g>
<!-- &#45;5&#45;&gt;25 -->
<g id="edge5" class="edge">
<title>&#45;5&#45;&gt;25</title>
<path fill="none" stroke="red" stroke-width="0.17" d="M125.17,-145.5C127.93,-138.46 132.12,-127.83 136.09,-117.75"/>
<polygon fill="red" stroke="red" stroke-width="0.17" points="139.37,-118.97 139.78,-108.38 132.86,-116.41 139.37,-118.97"/>
</g>
<!-- &#45;6 -->
<g id="node6" class="node">
<title>&#45;6</title>
<polygon fill="lightgray" stroke="black" points="212,-98.03 186,-98.03 186,-80.03 212,-80.03 212,-98.03"/>
<text text-anchor="middle" x="199" y="-86.83" font-family="Times,serif" font-size="9.00">&#45;6</text>
</g>
<!-- &#45;6&#45;&gt;0 -->
<g id="edge4" class="edge">
<title>&#45;6&#45;&gt;0</title>
<path fill="none" stroke="green" stroke-width="0.38" d="M190.27,-79.75C186.33,-76.16 181.55,-71.99 177,-68.53 158.73,-54.62 136.73,-40.55 120.59,-30.67"/>
<polygon fill="green" stroke="green" stroke-width="0.38" points="122.21,-27.56 111.84,-25.37 118.58,-33.55 122.21,-27.56"/>
</g>
<!-- 25&#45;&gt;0 -->
<g id="edge6" class="edge">
<title>25&#45;&gt;0</title>
<path fill="none" stroke="red" stroke-width="0.12" d="M135.64,-71.62C128.83,-61.79 120.11,-49.2 112.78,-38.61"/>
<polygon fill="red" stroke="red" stroke-width="0.12" points="115.59,-36.51 107.02,-30.28 109.83,-40.5 115.59,-36.51"/>
</g>
</g>
</svg>
