<?xml version="1.0" encoding="UTF-8" standalone="no"?>
<!DOCTYPE svg PUBLIC "-//W3C//DTD SVG 1.1//EN"
 "http://www.w3.org/Graphics/SVG/1.1/DTD/svg11.dtd">
<!-- Generated by graphviz version 2.43.0 (0)
 -->
<!-- Title: %3 Pages: 1 -->
<svg width="579pt" height="180pt"
 viewBox="0.00 0.00 579.36 180.02" xmlns="http://www.w3.org/2000/svg" xmlns:xlink="http://www.w3.org/1999/xlink">
<g id="graph0" class="graph" transform="scale(1 1) rotate(0) translate(4 176.02)">
<title>%3</title>
<polygon fill="white" stroke="transparent" points="-4,4 -4,-176.02 575.36,-176.02 575.36,4 -4,4"/>
<!-- &#45;1 -->
<g id="node1" class="node">
<title>&#45;1</title>
<polygon fill="lightgray" stroke="black" points="32.36,-172.02 6.36,-172.02 6.36,-154.02 32.36,-154.02 32.36,-172.02"/>
<text text-anchor="middle" x="19.36" y="-160.82" font-family="Times,serif" font-size="9.00">&#45;1</text>
</g>
<!-- 0 -->
<g id="node15" class="node">
<title>0</title>
<ellipse fill="lightblue" stroke="black" cx="276.36" cy="-16.26" rx="16.03" ry="16.03"/>
<text text-anchor="middle" x="276.36" y="-14.06" font-family="Times,serif" font-size="9.00">0</text>
</g>
<!-- &#45;1&#45;&gt;0 -->
<g id="edge1" class="edge">
<title>&#45;1&#45;&gt;0</title>
<path fill="none" stroke="green" stroke-width="0.54" d="M15.15,-153.9C6.6,-136.17 -10.3,-93.55 10.36,-68.53 40.58,-31.92 188.56,-21.17 249.77,-18.26"/>
<polygon fill="green" stroke="green" stroke-width="0.54" points="249.98,-21.75 259.82,-17.82 249.67,-14.76 249.98,-21.75"/>
</g>
<!-- 406 -->
<g id="node16" class="node">
<title>406</title>
<ellipse fill="white" stroke="black" cx="44.36" cy="-93.28" rx="25" ry="25"/>
<text text-anchor="middle" x="44.36" y="-91.08" font-family="Times,serif" font-size="9.00">406</text>
</g>
<!-- &#45;1&#45;&gt;406 -->
<g id="edge15" class="edge">
<title>&#45;1&#45;&gt;406</title>
<path fill="none" stroke="green" stroke-width="0.27" d="M22.32,-153.99C24.87,-147.08 28.72,-136.65 32.5,-126.42"/>
<polygon fill="green" stroke="green" stroke-width="0.27" points="35.87,-127.4 36.04,-116.81 29.3,-124.98 35.87,-127.4"/>
</g>
<!-- &#45;2 -->
<g id="node2" class="node">
<title>&#45;2</title>
<polygon fill="lightgray" stroke="black" points="113.36,-102.28 87.36,-102.28 87.36,-84.28 113.36,-84.28 113.36,-102.28"/>
<text text-anchor="middle" x="100.36" y="-91.08" font-family="Times,serif" font-size="9.00">&#45;2</text>
</g>
<!-- &#45;2&#45;&gt;0 -->
<g id="edge2" class="edge">
<title>&#45;2&#45;&gt;0</title>
<path fill="none" stroke="red" stroke-width="0.51" stroke-dasharray="1,5" d="M106.09,-84.24C110.13,-79.11 115.93,-72.67 122.36,-68.53 163,-42.33 218.35,-28.22 250.43,-21.76"/>
<polygon fill="red" stroke="red" stroke-width="0.51" points="251.2,-25.18 260.37,-19.86 249.89,-18.31 251.2,-25.18"/>
</g>
<!-- &#45;3 -->
<g id="node3" class="node">
<title>&#45;3</title>
<polygon fill="lightgray" stroke="black" points="157.36,-102.28 131.36,-102.28 131.36,-84.28 157.36,-84.28 157.36,-102.28"/>
<text text-anchor="middle" x="144.36" y="-91.08" font-family="Times,serif" font-size="9.00">&#45;3</text>
</g>
<!-- &#45;3&#45;&gt;0 -->
<g id="edge3" class="edge">
<title>&#45;3&#45;&gt;0</title>
<path fill="none" stroke="green" stroke-width="0.87" d="M150.62,-84.03C154.7,-79.07 160.36,-72.9 166.36,-68.53 193.06,-49.07 228.31,-34.21 251.63,-25.63"/>
<polygon fill="green" stroke="green" stroke-width="0.87" points="252.9,-28.89 261.13,-22.23 250.54,-22.3 252.9,-28.89"/>
</g>
<!-- &#45;4 -->
<g id="node4" class="node">
<title>&#45;4</title>
<polygon fill="lightgray" stroke="black" points="129.36,-172.02 103.36,-172.02 103.36,-154.02 129.36,-154.02 129.36,-172.02"/>
<text text-anchor="middle" x="116.36" y="-160.82" font-family="Times,serif" font-size="9.00">&#45;4</text>
</g>
<!-- &#45;5 -->
<g id="node5" class="node">
<title>&#45;5</title>
<polygon fill="lightgray" stroke="black" points="201.36,-102.28 175.36,-102.28 175.36,-84.28 201.36,-84.28 201.36,-102.28"/>
<text text-anchor="middle" x="188.36" y="-91.08" font-family="Times,serif" font-size="9.00">&#45;5</text>
</g>
<!-- &#45;5&#45;&gt;0 -->
<g id="edge4" class="edge">
<title>&#45;5&#45;&gt;0</title>
<path fill="none" stroke="red" stroke-width="0.17" d="M195.38,-84.05C199.56,-79.33 205.06,-73.39 210.36,-68.53 224.66,-55.42 242.03,-42.02 255.35,-32.21"/>
<polygon fill="red" stroke="red" stroke-width="0.17" points="257.43,-35.03 263.46,-26.32 253.31,-29.37 257.43,-35.03"/>
</g>
<!-- &#45;6 -->
<g id="node6" class="node">
<title>&#45;6</title>
<polygon fill="lightgray" stroke="black" points="245.36,-102.28 219.36,-102.28 219.36,-84.28 245.36,-84.28 245.36,-102.28"/>
<text text-anchor="middle" x="232.36" y="-91.08" font-family="Times,serif" font-size="9.00">&#45;6</text>
</g>
<!-- &#45;6&#45;&gt;0 -->
<g id="edge5" class="edge">
<title>&#45;6&#45;&gt;0</title>
<path fill="none" stroke="red" stroke-width="0.47" stroke-dasharray="1,5" d="M237.07,-84.25C243.27,-73.67 254.44,-54.64 263.28,-39.56"/>
<polygon fill="red" stroke="red" stroke-width="0.47" points="266.38,-41.18 268.43,-30.79 260.35,-37.64 266.38,-41.18"/>
</g>
<!-- &#45;7 -->
<g id="node7" class="node">
<title>&#45;7</title>
<polygon fill="lightgray" stroke="black" points="289.36,-102.28 263.36,-102.28 263.36,-84.28 289.36,-84.28 289.36,-102.28"/>
<text text-anchor="middle" x="276.36" y="-91.08" font-family="Times,serif" font-size="9.00">&#45;7</text>
</g>
<!-- &#45;7&#45;&gt;0 -->
<g id="edge6" class="edge">
<title>&#45;7&#45;&gt;0</title>
<path fill="none" stroke="green" stroke-width="0.21" stroke-dasharray="1,5" d="M276.36,-84.25C276.36,-74.49 276.36,-57.54 276.36,-43.13"/>
<polygon fill="green" stroke="green" stroke-width="0.21" points="279.86,-42.77 276.36,-32.77 272.86,-42.77 279.86,-42.77"/>
</g>
<!-- &#45;8 -->
<g id="node8" class="node">
<title>&#45;8</title>
<polygon fill="lightgray" stroke="black" points="333.36,-102.28 307.36,-102.28 307.36,-84.28 333.36,-84.28 333.36,-102.28"/>
<text text-anchor="middle" x="320.36" y="-91.08" font-family="Times,serif" font-size="9.00">&#45;8</text>
</g>
<!-- &#45;8&#45;&gt;0 -->
<g id="edge7" class="edge">
<title>&#45;8&#45;&gt;0</title>
<path fill="none" stroke="green" stroke-width="0.22" d="M315.65,-84.25C309.44,-73.67 298.28,-54.64 289.43,-39.56"/>
<polygon fill="green" stroke="green" stroke-width="0.22" points="292.37,-37.64 284.29,-30.79 286.33,-41.18 292.37,-37.64"/>
</g>
<!-- &#45;9 -->
<g id="node9" class="node">
<title>&#45;9</title>
<polygon fill="lightgray" stroke="black" points="173.36,-172.02 147.36,-172.02 147.36,-154.02 173.36,-154.02 173.36,-172.02"/>
<text text-anchor="middle" x="160.36" y="-160.82" font-family="Times,serif" font-size="9.00">&#45;9</text>
</g>
<!-- &#45;10 -->
<g id="node10" class="node">
<title>&#45;10</title>
<polygon fill="lightgray" stroke="black" points="383.36,-102.28 351.36,-102.28 351.36,-84.28 383.36,-84.28 383.36,-102.28"/>
<text text-anchor="middle" x="367.36" y="-91.08" font-family="Times,serif" font-size="9.00">&#45;10</text>
</g>
<!-- &#45;10&#45;&gt;0 -->
<g id="edge8" class="edge">
<title>&#45;10&#45;&gt;0</title>
<path fill="none" stroke="red" stroke-width="0.57" stroke-dasharray="1,5" d="M359.22,-84.15C354.42,-79.46 348.17,-73.52 342.36,-68.53 327.74,-55.96 310.51,-42.62 297.32,-32.71"/>
<polygon fill="red" stroke="red" stroke-width="0.57" points="299.42,-29.9 289.31,-26.73 295.23,-35.51 299.42,-29.9"/>
</g>
<!-- &#45;11 -->
<g id="node11" class="node">
<title>&#45;11</title>
<polygon fill="lightgray" stroke="black" points="85.36,-172.02 53.36,-172.02 53.36,-154.02 85.36,-154.02 85.36,-172.02"/>
<text text-anchor="middle" x="69.36" y="-160.82" font-family="Times,serif" font-size="9.00">&#45;11</text>
</g>
<!-- &#45;11&#45;&gt;0 -->
<g id="edge9" class="edge">
<title>&#45;11&#45;&gt;0</title>
<path fill="none" stroke="red" stroke-width="1.33" d="M85.37,-156.41C88.34,-155.51 91.42,-154.67 94.36,-154.02 159.53,-139.8 348.11,-167.94 392.36,-118.02 406.95,-101.56 404.37,-86.96 392.36,-68.53 372.63,-38.23 330.48,-25.71 302.8,-20.63"/>
<polygon fill="red" stroke="red" stroke-width="1.33" points="303.05,-17.12 292.62,-18.97 301.93,-24.03 303.05,-17.12"/>
</g>
<!-- &#45;11&#45;&gt;406 -->
<g id="edge13" class="edge">
<title>&#45;11&#45;&gt;406</title>
<path fill="none" stroke="red" stroke-width="0.49" d="M66.39,-153.99C63.84,-147.08 59.99,-136.65 56.22,-126.42"/>
<polygon fill="red" stroke="red" stroke-width="0.49" points="59.42,-124.98 52.67,-116.81 52.85,-127.4 59.42,-124.98"/>
</g>
<!-- &#45;12 -->
<g id="node12" class="node">
<title>&#45;12</title>
<polygon fill="lightgray" stroke="black" points="471.36,-102.28 439.36,-102.28 439.36,-84.28 471.36,-84.28 471.36,-102.28"/>
<text text-anchor="middle" x="455.36" y="-91.08" font-family="Times,serif" font-size="9.00">&#45;12</text>
</g>
<!-- &#45;12&#45;&gt;0 -->
<g id="edge10" class="edge">
<title>&#45;12&#45;&gt;0</title>
<path fill="none" stroke="red" stroke-width="0.99" stroke-dasharray="1,5" d="M446.73,-84.15C441.02,-79.1 433.17,-72.8 425.36,-68.53 384.78,-46.33 332.81,-31.1 302.2,-23.31"/>
<polygon fill="red" stroke="red" stroke-width="0.99" points="302.86,-19.86 292.31,-20.86 301.18,-26.66 302.86,-19.86"/>
</g>
<!-- &#45;13 -->
<g id="node13" class="node">
<title>&#45;13</title>
<polygon fill="lightgray" stroke="black" points="521.36,-102.28 489.36,-102.28 489.36,-84.28 521.36,-84.28 521.36,-102.28"/>
<text text-anchor="middle" x="505.36" y="-91.08" font-family="Times,serif" font-size="9.00">&#45;13</text>
</g>
<!-- &#45;13&#45;&gt;0 -->
<g id="edge11" class="edge">
<title>&#45;13&#45;&gt;0</title>
<path fill="none" stroke="red" stroke-width="0.57" stroke-dasharray="1,5" d="M498.73,-84.1C494.1,-78.91 487.49,-72.45 480.36,-68.53 422.04,-36.44 343.34,-24.06 302.85,-19.59"/>
<polygon fill="red" stroke="red" stroke-width="0.57" points="303.03,-16.09 292.73,-18.55 302.32,-23.05 303.03,-16.09"/>
</g>
<!-- &#45;14 -->
<g id="node14" class="node">
<title>&#45;14</title>
<polygon fill="lightgray" stroke="black" points="571.36,-102.28 539.36,-102.28 539.36,-84.28 571.36,-84.28 571.36,-102.28"/>
<text text-anchor="middle" x="555.36" y="-91.08" font-family="Times,serif" font-size="9.00">&#45;14</text>
</g>
<!-- &#45;14&#45;&gt;0 -->
<g id="edge12" class="edge">
<title>&#45;14&#45;&gt;0</title>
<path fill="none" stroke="green" stroke-width="0.82" d="M548.79,-83.99C544.19,-78.75 537.58,-72.28 530.36,-68.53 454.45,-29.06 351.14,-19.94 303.04,-17.86"/>
<polygon fill="green" stroke="green" stroke-width="0.82" points="302.96,-14.36 292.84,-17.49 302.71,-21.35 302.96,-14.36"/>
</g>
<!-- 406&#45;&gt;0 -->
<g id="edge14" class="edge">
<title>406&#45;&gt;0</title>
<path fill="none" stroke="red" stroke-width="0.12" d="M63.41,-77.2C68.11,-74 73.26,-70.88 78.36,-68.53 136.73,-41.65 211.53,-27.15 250.35,-20.97"/>
<polygon fill="red" stroke="red" stroke-width="0.12" points="250.95,-24.41 260.31,-19.44 249.89,-17.5 250.95,-24.41"/>
</g>
</g>
</svg>
