<?xml version="1.0" encoding="UTF-8" standalone="no"?>
<!DOCTYPE svg PUBLIC "-//W3C//DTD SVG 1.1//EN"
 "http://www.w3.org/Graphics/SVG/1.1/DTD/svg11.dtd">
<!-- Generated by graphviz version 2.43.0 (0)
 -->
<!-- Title: %3 Pages: 1 -->
<svg width="298pt" height="180pt"
 viewBox="0.00 0.00 298.00 180.02" xmlns="http://www.w3.org/2000/svg" xmlns:xlink="http://www.w3.org/1999/xlink">
<g id="graph0" class="graph" transform="scale(1 1) rotate(0) translate(4 176.02)">
<title>%3</title>
<polygon fill="white" stroke="transparent" points="-4,4 -4,-176.02 294,-176.02 294,4 -4,4"/>
<!-- &#45;1 -->
<g id="node1" class="node">
<title>&#45;1</title>
<polygon fill="lightgray" stroke="black" points="26,-172.02 0,-172.02 0,-154.02 26,-154.02 26,-172.02"/>
<text text-anchor="middle" x="13" y="-160.82" font-family="Times,serif" font-size="9.00">&#45;1</text>
</g>
<!-- &#45;2 -->
<g id="node2" class="node">
<title>&#45;2</title>
<polygon fill="lightgray" stroke="black" points="70,-172.02 44,-172.02 44,-154.02 70,-154.02 70,-172.02"/>
<text text-anchor="middle" x="57" y="-160.82" font-family="Times,serif" font-size="9.00">&#45;2</text>
</g>
<!-- &#45;3 -->
<g id="node3" class="node">
<title>&#45;3</title>
<polygon fill="lightgray" stroke="black" points="114,-172.02 88,-172.02 88,-154.02 114,-154.02 114,-172.02"/>
<text text-anchor="middle" x="101" y="-160.82" font-family="Times,serif" font-size="9.00">&#45;3</text>
</g>
<!-- 0 -->
<g id="node11" class="node">
<title>0</title>
<ellipse fill="lightblue" stroke="black" cx="183" cy="-16.26" rx="16.03" ry="16.03"/>
<text text-anchor="middle" x="183" y="-14.06" font-family="Times,serif" font-size="9.00">0</text>
</g>
<!-- &#45;3&#45;&gt;0 -->
<g id="edge1" class="edge">
<title>&#45;3&#45;&gt;0</title>
<path fill="none" stroke="green" stroke-width="1.51" stroke-dasharray="1,5" d="M97.35,-153.84C90.3,-136.68 76.87,-96.27 93,-68.53 106.75,-44.88 135.93,-31.24 157.35,-24.06"/>
<polygon fill="green" stroke="green" stroke-width="1.51" points="158.62,-27.33 167.15,-21.03 156.56,-20.64 158.62,-27.33"/>
</g>
<!-- 908 -->
<g id="node12" class="node">
<title>908</title>
<ellipse fill="white" stroke="black" cx="127" cy="-93.28" rx="25" ry="25"/>
<text text-anchor="middle" x="127" y="-91.08" font-family="Times,serif" font-size="9.00">908</text>
</g>
<!-- &#45;3&#45;&gt;908 -->
<g id="edge5" class="edge">
<title>&#45;3&#45;&gt;908</title>
<path fill="none" stroke="green" stroke-width="0.37" d="M104.08,-153.99C106.78,-146.96 110.88,-136.27 114.88,-125.87"/>
<polygon fill="green" stroke="green" stroke-width="0.37" points="118.15,-127.1 118.47,-116.51 111.62,-124.6 118.15,-127.1"/>
</g>
<!-- &#45;4 -->
<g id="node4" class="node">
<title>&#45;4</title>
<polygon fill="lightgray" stroke="black" points="196,-102.28 170,-102.28 170,-84.28 196,-84.28 196,-102.28"/>
<text text-anchor="middle" x="183" y="-91.08" font-family="Times,serif" font-size="9.00">&#45;4</text>
</g>
<!-- &#45;4&#45;&gt;0 -->
<g id="edge2" class="edge">
<title>&#45;4&#45;&gt;0</title>
<path fill="none" stroke="red" stroke-width="0.49" stroke-dasharray="1,5" d="M183,-84.25C183,-74.49 183,-57.54 183,-43.13"/>
<polygon fill="red" stroke="red" stroke-width="0.49" points="186.5,-42.77 183,-32.77 179.5,-42.77 186.5,-42.77"/>
</g>
<!-- &#45;5 -->
<g id="node5" class="node">
<title>&#45;5</title>
<polygon fill="lightgray" stroke="black" points="158,-172.02 132,-172.02 132,-154.02 158,-154.02 158,-172.02"/>
<text text-anchor="middle" x="145" y="-160.82" font-family="Times,serif" font-size="9.00">&#45;5</text>
</g>
<!-- &#45;6 -->
<g id="node6" class="node">
<title>&#45;6</title>
<polygon fill="lightgray" stroke="black" points="240,-102.28 214,-102.28 214,-84.28 240,-84.28 240,-102.28"/>
<text text-anchor="middle" x="227" y="-91.08" font-family="Times,serif" font-size="9.00">&#45;6</text>
</g>
<!-- &#45;6&#45;&gt;0 -->
<g id="edge3" class="edge">
<title>&#45;6&#45;&gt;0</title>
<path fill="none" stroke="green" stroke-width="0.37" d="M222.29,-84.25C216.09,-73.67 204.92,-54.64 196.08,-39.56"/>
<polygon fill="green" stroke="green" stroke-width="0.37" points="199.01,-37.64 190.93,-30.79 192.97,-41.18 199.01,-37.64"/>
</g>
<!-- &#45;7 -->
<g id="node7" class="node">
<title>&#45;7</title>
<polygon fill="lightgray" stroke="black" points="202,-172.02 176,-172.02 176,-154.02 202,-154.02 202,-172.02"/>
<text text-anchor="middle" x="189" y="-160.82" font-family="Times,serif" font-size="9.00">&#45;7</text>
</g>
<!-- &#45;8 -->
<g id="node8" class="node">
<title>&#45;8</title>
<polygon fill="lightgray" stroke="black" points="246,-172.02 220,-172.02 220,-154.02 246,-154.02 246,-172.02"/>
<text text-anchor="middle" x="233" y="-160.82" font-family="Times,serif" font-size="9.00">&#45;8</text>
</g>
<!-- &#45;9 -->
<g id="node9" class="node">
<title>&#45;9</title>
<polygon fill="lightgray" stroke="black" points="290,-172.02 264,-172.02 264,-154.02 290,-154.02 290,-172.02"/>
<text text-anchor="middle" x="277" y="-160.82" font-family="Times,serif" font-size="9.00">&#45;9</text>
</g>
<!-- &#45;10 -->
<g id="node10" class="node">
<title>&#45;10</title>
<polygon fill="lightgray" stroke="black" points="290,-102.28 258,-102.28 258,-84.28 290,-84.28 290,-102.28"/>
<text text-anchor="middle" x="274" y="-91.08" font-family="Times,serif" font-size="9.00">&#45;10</text>
</g>
<!-- &#45;10&#45;&gt;0 -->
<g id="edge4" class="edge">
<title>&#45;10&#45;&gt;0</title>
<path fill="none" stroke="green" stroke-width="0.64" d="M265.86,-84.15C261.06,-79.46 254.81,-73.52 249,-68.53 234.38,-55.96 217.15,-42.62 203.97,-32.71"/>
<polygon fill="green" stroke="green" stroke-width="0.64" points="206.06,-29.9 195.95,-26.73 201.87,-35.51 206.06,-29.9"/>
</g>
<!-- 908&#45;&gt;0 -->
<g id="edge6" class="edge">
<title>908&#45;&gt;0</title>
<path fill="none" stroke="red" stroke-width="0.95" d="M141.42,-72.96C149.4,-62.27 159.32,-48.98 167.47,-38.07"/>
<polygon fill="red" stroke="red" stroke-width="0.95" points="170.37,-40.03 173.55,-29.92 164.76,-35.84 170.37,-40.03"/>
</g>
</g>
</svg>
