<?xml version="1.0" encoding="UTF-8" standalone="no"?>
<!DOCTYPE svg PUBLIC "-//W3C//DTD SVG 1.1//EN"
 "http://www.w3.org/Graphics/SVG/1.1/DTD/svg11.dtd">
<!-- Generated by graphviz version 2.43.0 (0)
 -->
<!-- Title: %3 Pages: 1 -->
<svg width="344pt" height="266pt"
 viewBox="0.00 0.00 344.00 265.52" xmlns="http://www.w3.org/2000/svg" xmlns:xlink="http://www.w3.org/1999/xlink">
<g id="graph0" class="graph" transform="scale(1 1) rotate(0) translate(4 261.52)">
<title>%3</title>
<polygon fill="white" stroke="transparent" points="-4,4 -4,-261.52 340,-261.52 340,4 -4,4"/>
<!-- &#45;1 -->
<g id="node1" class="node">
<title>&#45;1</title>
<polygon fill="lightgray" stroke="black" points="26,-102.28 0,-102.28 0,-84.28 26,-84.28 26,-102.28"/>
<text text-anchor="middle" x="13" y="-91.08" font-family="Times,serif" font-size="9.00">&#45;1</text>
</g>
<!-- 0 -->
<g id="node11" class="node">
<title>0</title>
<ellipse fill="lightblue" stroke="black" cx="171" cy="-16.26" rx="16.03" ry="16.03"/>
<text text-anchor="middle" x="171" y="-14.06" font-family="Times,serif" font-size="9.00">0</text>
</g>
<!-- &#45;1&#45;&gt;0 -->
<g id="edge1" class="edge">
<title>&#45;1&#45;&gt;0</title>
<path fill="none" stroke="green" stroke-width="1.14" d="M20.91,-83.98C26,-78.99 32.96,-72.81 40,-68.53 74.06,-47.77 117.98,-32.64 145.32,-24.4"/>
<polygon fill="green" stroke="green" stroke-width="1.14" points="146.65,-27.65 155.26,-21.48 144.68,-20.93 146.65,-27.65"/>
</g>
<!-- &#45;2 -->
<g id="node2" class="node">
<title>&#45;2</title>
<polygon fill="lightgray" stroke="black" points="204,-257.52 178,-257.52 178,-239.52 204,-239.52 204,-257.52"/>
<text text-anchor="middle" x="191" y="-246.32" font-family="Times,serif" font-size="9.00">&#45;2</text>
</g>
<!-- &#45;3 -->
<g id="node3" class="node">
<title>&#45;3</title>
<polygon fill="lightgray" stroke="black" points="248,-257.52 222,-257.52 222,-239.52 248,-239.52 248,-257.52"/>
<text text-anchor="middle" x="235" y="-246.32" font-family="Times,serif" font-size="9.00">&#45;3</text>
</g>
<!-- &#45;4 -->
<g id="node4" class="node">
<title>&#45;4</title>
<polygon fill="lightgray" stroke="black" points="292,-257.52 266,-257.52 266,-239.52 292,-239.52 292,-257.52"/>
<text text-anchor="middle" x="279" y="-246.32" font-family="Times,serif" font-size="9.00">&#45;4</text>
</g>
<!-- &#45;5 -->
<g id="node5" class="node">
<title>&#45;5</title>
<polygon fill="lightgray" stroke="black" points="105,-257.52 79,-257.52 79,-239.52 105,-239.52 105,-257.52"/>
<text text-anchor="middle" x="92" y="-246.32" font-family="Times,serif" font-size="9.00">&#45;5</text>
</g>
<!-- &#45;5&#45;&gt;0 -->
<g id="edge2" class="edge">
<title>&#45;5&#45;&gt;0</title>
<path fill="none" stroke="red" stroke-width="0.62" stroke-dasharray="1,5" d="M89.75,-239.22C82.92,-212.18 64.99,-125.14 100,-68.53 111.13,-50.54 131.13,-36.96 147.07,-28.31"/>
<polygon fill="red" stroke="red" stroke-width="0.62" points="149.05,-31.24 156.36,-23.57 145.86,-25 149.05,-31.24"/>
</g>
<!-- 472 -->
<g id="node13" class="node">
<title>472</title>
<ellipse fill="white" stroke="black" cx="120" cy="-178.77" rx="25" ry="25"/>
<text text-anchor="middle" x="120" y="-176.57" font-family="Times,serif" font-size="9.00">472</text>
</g>
<!-- &#45;5&#45;&gt;472 -->
<g id="edge12" class="edge">
<title>&#45;5&#45;&gt;472</title>
<path fill="none" stroke="red" stroke-width="0.16" d="M95.32,-239.48C98.23,-232.45 102.64,-221.77 106.94,-211.37"/>
<polygon fill="red" stroke="red" stroke-width="0.16" points="110.22,-212.59 110.81,-202.01 103.76,-209.92 110.22,-212.59"/>
</g>
<!-- &#45;6 -->
<g id="node6" class="node">
<title>&#45;6</title>
<polygon fill="lightgray" stroke="black" points="336,-257.52 310,-257.52 310,-239.52 336,-239.52 336,-257.52"/>
<text text-anchor="middle" x="323" y="-246.32" font-family="Times,serif" font-size="9.00">&#45;6</text>
</g>
<!-- &#45;7 -->
<g id="node7" class="node">
<title>&#45;7</title>
<polygon fill="lightgray" stroke="black" points="290,-102.28 264,-102.28 264,-84.28 290,-84.28 290,-102.28"/>
<text text-anchor="middle" x="277" y="-91.08" font-family="Times,serif" font-size="9.00">&#45;7</text>
</g>
<!-- &#45;7&#45;&gt;0 -->
<g id="edge3" class="edge">
<title>&#45;7&#45;&gt;0</title>
<path fill="none" stroke="red" stroke-width="0.92" stroke-dasharray="1,5" d="M268.28,-84.02C263.12,-79.29 256.37,-73.35 250,-68.53 231.7,-54.66 209.7,-40.58 193.57,-30.69"/>
<polygon fill="red" stroke="red" stroke-width="0.92" points="195.19,-27.58 184.83,-25.39 191.56,-33.57 195.19,-27.58"/>
</g>
<!-- &#45;8 -->
<g id="node8" class="node">
<title>&#45;8</title>
<polygon fill="lightgray" stroke="black" points="160,-257.52 134,-257.52 134,-239.52 160,-239.52 160,-257.52"/>
<text text-anchor="middle" x="147" y="-246.32" font-family="Times,serif" font-size="9.00">&#45;8</text>
</g>
<!-- &#45;8&#45;&gt;0 -->
<g id="edge11" class="edge">
<title>&#45;8&#45;&gt;0</title>
<path fill="none" stroke="green" stroke-width="0.37" d="M160.2,-242.83C175.61,-236.56 200.33,-223.81 211,-203.52 239.69,-148.98 205.42,-75.15 184.64,-39.01"/>
<polygon fill="green" stroke="green" stroke-width="0.37" points="187.57,-37.08 179.45,-30.27 181.55,-40.65 187.57,-37.08"/>
</g>
<!-- &#45;8&#45;&gt;472 -->
<g id="edge8" class="edge">
<title>&#45;8&#45;&gt;472</title>
<path fill="none" stroke="green" stroke-width="0.93" d="M143.8,-239.48C140.99,-232.45 136.74,-221.77 132.59,-211.37"/>
<polygon fill="green" stroke="green" stroke-width="0.93" points="135.82,-210 128.86,-202.01 129.31,-212.6 135.82,-210"/>
</g>
<!-- &#45;9 -->
<g id="node9" class="node">
<title>&#45;9</title>
<polygon fill="lightgray" stroke="black" points="334,-102.28 308,-102.28 308,-84.28 334,-84.28 334,-102.28"/>
<text text-anchor="middle" x="321" y="-91.08" font-family="Times,serif" font-size="9.00">&#45;9</text>
</g>
<!-- &#45;9&#45;&gt;0 -->
<g id="edge4" class="edge">
<title>&#45;9&#45;&gt;0</title>
<path fill="none" stroke="green" stroke-width="0.44" stroke-dasharray="1,5" d="M314.82,-83.92C310.77,-78.91 305.11,-72.73 299,-68.53 266.78,-46.38 223.58,-31.63 196.51,-23.85"/>
<polygon fill="green" stroke="green" stroke-width="0.44" points="197.23,-20.41 186.65,-21.12 195.36,-27.16 197.23,-20.41"/>
</g>
<!-- &#45;10 -->
<g id="node10" class="node">
<title>&#45;10</title>
<polygon fill="lightgray" stroke="black" points="202,-187.77 170,-187.77 170,-169.77 202,-169.77 202,-187.77"/>
<text text-anchor="middle" x="186" y="-176.57" font-family="Times,serif" font-size="9.00">&#45;10</text>
</g>
<!-- &#45;10&#45;&gt;0 -->
<g id="edge5" class="edge">
<title>&#45;10&#45;&gt;0</title>
<path fill="none" stroke="red" stroke-width="1.53" d="M185.73,-169.53C185.07,-151.28 183.13,-106.12 179,-68.53 178.07,-60.06 176.74,-50.85 175.42,-42.61"/>
<polygon fill="red" stroke="red" stroke-width="1.53" points="178.83,-41.76 173.74,-32.47 171.92,-42.91 178.83,-41.76"/>
</g>
<!-- 126 -->
<g id="node12" class="node">
<title>126</title>
<ellipse fill="white" stroke="black" cx="145" cy="-93.28" rx="25" ry="25"/>
<text text-anchor="middle" x="145" y="-91.08" font-family="Times,serif" font-size="9.00">126</text>
</g>
<!-- &#45;10&#45;&gt;126 -->
<g id="edge7" class="edge">
<title>&#45;10&#45;&gt;126</title>
<path fill="none" stroke="red" stroke-width="0.59" stroke-dasharray="1,5" d="M182.07,-169.77C177.01,-159.46 167.93,-140.97 160.02,-124.86"/>
<polygon fill="red" stroke="red" stroke-width="0.59" points="163.09,-123.17 155.54,-115.74 156.8,-126.25 163.09,-123.17"/>
</g>
<!-- 126&#45;&gt;0 -->
<g id="edge6" class="edge">
<title>126&#45;&gt;0</title>
<path fill="none" stroke="green" stroke-width="1.32" d="M152.8,-69.77C155.89,-60.86 159.44,-50.61 162.59,-41.54"/>
<polygon fill="green" stroke="green" stroke-width="1.32" points="165.95,-42.53 165.91,-31.94 159.33,-40.24 165.95,-42.53"/>
</g>
<!-- 472&#45;&gt;0 -->
<g id="edge9" class="edge">
<title>472&#45;&gt;0</title>
<path fill="none" stroke="red" stroke-width="0.53" d="M111.9,-155.3C105.04,-132.39 98.18,-96.35 111,-68.53 118.6,-52.05 134.39,-38.9 147.87,-30.05"/>
<polygon fill="red" stroke="red" stroke-width="0.53" points="150.01,-32.83 156.7,-24.61 146.35,-26.87 150.01,-32.83"/>
</g>
<!-- 472&#45;&gt;126 -->
<g id="edge10" class="edge">
<title>472&#45;&gt;126</title>
<path fill="none" stroke="green" stroke-width="0.23" d="M126.83,-154.96C129.4,-146.38 132.38,-136.44 135.16,-127.13"/>
<polygon fill="green" stroke="green" stroke-width="0.23" points="138.57,-127.94 138.09,-117.35 131.87,-125.93 138.57,-127.94"/>
</g>
</g>
</svg>
