<?xml version="1.0" encoding="UTF-8" standalone="no"?>
<!DOCTYPE svg PUBLIC "-//W3C//DTD SVG 1.1//EN"
 "http://www.w3.org/Graphics/SVG/1.1/DTD/svg11.dtd">
<!-- Generated by graphviz version 2.43.0 (0)
 -->
<!-- Title: %3 Pages: 1 -->
<svg width="287pt" height="172pt"
 viewBox="0.00 0.00 287.12 171.54" xmlns="http://www.w3.org/2000/svg" xmlns:xlink="http://www.w3.org/1999/xlink">
<g id="graph0" class="graph" transform="scale(1 1) rotate(0) translate(4 167.54)">
<title>%3</title>
<polygon fill="white" stroke="transparent" points="-4,4 -4,-167.54 283.12,-167.54 283.12,4 -4,4"/>
<!-- &#45;1 -->
<g id="node1" class="node">
<title>&#45;1</title>
<polygon fill="lightgray" stroke="black" points="28.12,-163.54 2.12,-163.54 2.12,-145.54 28.12,-145.54 28.12,-163.54"/>
<text text-anchor="middle" x="15.12" y="-152.34" font-family="Times,serif" font-size="9.00">&#45;1</text>
</g>
<!-- 0 -->
<g id="node11" class="node">
<title>0</title>
<ellipse fill="lightblue" stroke="black" cx="128.12" cy="-16.26" rx="16.03" ry="16.03"/>
<text text-anchor="middle" x="128.12" y="-14.06" font-family="Times,serif" font-size="9.00">0</text>
</g>
<!-- &#45;1&#45;&gt;0 -->
<g id="edge1" class="edge">
<title>&#45;1&#45;&gt;0</title>
<path fill="none" stroke="red" stroke-width="2.38" d="M11.3,-145.21C4.47,-128.96 -7.71,-92.5 8.12,-68.53 28.82,-37.18 73.05,-24.93 101.64,-20.2"/>
<polygon fill="red" stroke="red" stroke-width="2.38" points="102.36,-23.63 111.75,-18.72 101.35,-16.7 102.36,-23.63"/>
</g>
<!-- 49 -->
<g id="node12" class="node">
<title>49</title>
<ellipse fill="white" stroke="black" cx="38.12" cy="-89.03" rx="20.51" ry="20.51"/>
<text text-anchor="middle" x="38.12" y="-86.83" font-family="Times,serif" font-size="9.00">49</text>
</g>
<!-- &#45;1&#45;&gt;49 -->
<g id="edge9" class="edge">
<title>&#45;1&#45;&gt;49</title>
<path fill="none" stroke="green" stroke-width="0.55" d="M18.03,-145.5C20.53,-138.59 24.3,-128.2 27.89,-118.27"/>
<polygon fill="green" stroke="green" stroke-width="0.55" points="31.26,-119.24 31.38,-108.65 24.68,-116.86 31.26,-119.24"/>
</g>
<!-- &#45;2 -->
<g id="node2" class="node">
<title>&#45;2</title>
<polygon fill="lightgray" stroke="black" points="74.12,-163.54 48.12,-163.54 48.12,-145.54 74.12,-145.54 74.12,-163.54"/>
<text text-anchor="middle" x="61.12" y="-152.34" font-family="Times,serif" font-size="9.00">&#45;2</text>
</g>
<!-- &#45;2&#45;&gt;0 -->
<g id="edge2" class="edge">
<title>&#45;2&#45;&gt;0</title>
<path fill="none" stroke="red" stroke-width="0.43" stroke-dasharray="1,5" d="M65.11,-145.42C75.07,-125.15 101.34,-71.72 116.63,-40.62"/>
<polygon fill="red" stroke="red" stroke-width="0.43" points="119.91,-41.9 121.18,-31.38 113.62,-38.81 119.91,-41.9"/>
</g>
<!-- &#45;2&#45;&gt;49 -->
<g id="edge7" class="edge">
<title>&#45;2&#45;&gt;49</title>
<path fill="none" stroke="red" stroke-width="0.45" d="M58.21,-145.5C55.7,-138.59 51.94,-128.2 48.35,-118.27"/>
<polygon fill="red" stroke="red" stroke-width="0.45" points="51.56,-116.86 44.86,-108.65 44.98,-119.24 51.56,-116.86"/>
</g>
<!-- &#45;3 -->
<g id="node3" class="node">
<title>&#45;3</title>
<polygon fill="lightgray" stroke="black" points="118.12,-163.54 92.12,-163.54 92.12,-145.54 118.12,-145.54 118.12,-163.54"/>
<text text-anchor="middle" x="105.12" y="-152.34" font-family="Times,serif" font-size="9.00">&#45;3</text>
</g>
<!-- &#45;4 -->
<g id="node4" class="node">
<title>&#45;4</title>
<polygon fill="lightgray" stroke="black" points="141.12,-98.03 115.12,-98.03 115.12,-80.03 141.12,-80.03 141.12,-98.03"/>
<text text-anchor="middle" x="128.12" y="-86.83" font-family="Times,serif" font-size="9.00">&#45;4</text>
</g>
<!-- &#45;4&#45;&gt;0 -->
<g id="edge3" class="edge">
<title>&#45;4&#45;&gt;0</title>
<path fill="none" stroke="red" stroke-width="0.4" d="M128.12,-79.91C128.12,-70.95 128.12,-56.07 128.12,-43.05"/>
<polygon fill="red" stroke="red" stroke-width="0.4" points="131.62,-42.73 128.12,-32.73 124.62,-42.73 131.62,-42.73"/>
</g>
<!-- &#45;5 -->
<g id="node5" class="node">
<title>&#45;5</title>
<polygon fill="lightgray" stroke="black" points="162.12,-163.54 136.12,-163.54 136.12,-145.54 162.12,-145.54 162.12,-163.54"/>
<text text-anchor="middle" x="149.12" y="-152.34" font-family="Times,serif" font-size="9.00">&#45;5</text>
</g>
<!-- &#45;6 -->
<g id="node6" class="node">
<title>&#45;6</title>
<polygon fill="lightgray" stroke="black" points="206.12,-163.54 180.12,-163.54 180.12,-145.54 206.12,-145.54 206.12,-163.54"/>
<text text-anchor="middle" x="193.12" y="-152.34" font-family="Times,serif" font-size="9.00">&#45;6</text>
</g>
<!-- &#45;7 -->
<g id="node7" class="node">
<title>&#45;7</title>
<polygon fill="lightgray" stroke="black" points="185.12,-98.03 159.12,-98.03 159.12,-80.03 185.12,-80.03 185.12,-98.03"/>
<text text-anchor="middle" x="172.12" y="-86.83" font-family="Times,serif" font-size="9.00">&#45;7</text>
</g>
<!-- &#45;7&#45;&gt;0 -->
<g id="edge4" class="edge">
<title>&#45;7&#45;&gt;0</title>
<path fill="none" stroke="green" stroke-width="0.28" d="M167.07,-79.91C160.92,-70.03 150.29,-52.93 141.69,-39.09"/>
<polygon fill="green" stroke="green" stroke-width="0.28" points="144.65,-37.22 136.4,-30.58 138.71,-40.92 144.65,-37.22"/>
</g>
<!-- &#45;8 -->
<g id="node8" class="node">
<title>&#45;8</title>
<polygon fill="lightgray" stroke="black" points="229.12,-98.03 203.12,-98.03 203.12,-80.03 229.12,-80.03 229.12,-98.03"/>
<text text-anchor="middle" x="216.12" y="-86.83" font-family="Times,serif" font-size="9.00">&#45;8</text>
</g>
<!-- &#45;8&#45;&gt;0 -->
<g id="edge5" class="edge">
<title>&#45;8&#45;&gt;0</title>
<path fill="none" stroke="red" stroke-width="0.18" stroke-dasharray="1,5" d="M207.24,-79.93C203.28,-76.37 198.52,-72.18 194.12,-68.53 179.42,-56.33 162.39,-43.12 149.31,-33.17"/>
<polygon fill="red" stroke="red" stroke-width="0.18" points="151.05,-30.09 140.96,-26.85 146.83,-35.68 151.05,-30.09"/>
</g>
<!-- &#45;9 -->
<g id="node9" class="node">
<title>&#45;9</title>
<polygon fill="lightgray" stroke="black" points="250.12,-163.54 224.12,-163.54 224.12,-145.54 250.12,-145.54 250.12,-163.54"/>
<text text-anchor="middle" x="237.12" y="-152.34" font-family="Times,serif" font-size="9.00">&#45;9</text>
</g>
<!-- &#45;10 -->
<g id="node10" class="node">
<title>&#45;10</title>
<polygon fill="lightgray" stroke="black" points="279.12,-98.03 247.12,-98.03 247.12,-80.03 279.12,-80.03 279.12,-98.03"/>
<text text-anchor="middle" x="263.12" y="-86.83" font-family="Times,serif" font-size="9.00">&#45;10</text>
</g>
<!-- &#45;10&#45;&gt;0 -->
<g id="edge6" class="edge">
<title>&#45;10&#45;&gt;0</title>
<path fill="none" stroke="green" stroke-width="0.94" stroke-dasharray="1,5" d="M253.75,-79.9C249.21,-76.18 243.56,-71.86 238.12,-68.53 210.1,-51.37 175.4,-36.1 152.56,-26.78"/>
<polygon fill="green" stroke="green" stroke-width="0.94" points="153.84,-23.52 143.26,-23.04 151.23,-30.02 153.84,-23.52"/>
</g>
<!-- 49&#45;&gt;0 -->
<g id="edge8" class="edge">
<title>49&#45;&gt;0</title>
<path fill="none" stroke="red" stroke-width="0.51" d="M53.8,-75.71C68.81,-63.9 91.53,-46.04 107.89,-33.17"/>
<polygon fill="red" stroke="red" stroke-width="0.51" points="110.1,-35.88 115.8,-26.95 105.77,-30.38 110.1,-35.88"/>
</g>
</g>
</svg>
