<?xml version="1.0" encoding="UTF-8" standalone="no"?>
<!DOCTYPE svg PUBLIC "-//W3C//DTD SVG 1.1//EN"
 "http://www.w3.org/Graphics/SVG/1.1/DTD/svg11.dtd">
<!-- Generated by graphviz version 2.43.0 (0)
 -->
<!-- Title: %3 Pages: 1 -->
<svg width="436pt" height="111pt"
 viewBox="0.00 0.00 436.00 111.50" xmlns="http://www.w3.org/2000/svg" xmlns:xlink="http://www.w3.org/1999/xlink">
<g id="graph0" class="graph" transform="scale(1 1) rotate(0) translate(4 107.5)">
<title>%3</title>
<polygon fill="white" stroke="transparent" points="-4,4 -4,-107.5 432,-107.5 432,4 -4,4"/>
<!-- &#45;1 -->
<g id="node1" class="node">
<title>&#45;1</title>
<polygon fill="lightgray" stroke="black" points="26,-103.5 0,-103.5 0,-85.5 26,-85.5 26,-103.5"/>
<text text-anchor="middle" x="13" y="-92.3" font-family="Times,serif" font-size="9.00">&#45;1</text>
</g>
<!-- &#45;2 -->
<g id="node2" class="node">
<title>&#45;2</title>
<polygon fill="lightgray" stroke="black" points="70,-103.5 44,-103.5 44,-85.5 70,-85.5 70,-103.5"/>
<text text-anchor="middle" x="57" y="-92.3" font-family="Times,serif" font-size="9.00">&#45;2</text>
</g>
<!-- 364 -->
<g id="node12" class="node">
<title>364</title>
<ellipse fill="white" stroke="black" cx="79" cy="-24.75" rx="25" ry="25"/>
<text text-anchor="middle" x="79" y="-22.55" font-family="Times,serif" font-size="9.00">364</text>
</g>
<!-- &#45;2&#45;&gt;364 -->
<g id="edge7" class="edge">
<title>&#45;2&#45;&gt;364</title>
<path fill="none" stroke="green" stroke-width="0.26" d="M59.61,-85.46C61.84,-78.61 65.19,-68.28 68.48,-58.13"/>
<polygon fill="green" stroke="green" stroke-width="0.26" points="71.83,-59.17 71.59,-48.58 65.17,-57.01 71.83,-59.17"/>
</g>
<!-- &#45;3 -->
<g id="node3" class="node">
<title>&#45;3</title>
<polygon fill="lightgray" stroke="black" points="158,-103.5 132,-103.5 132,-85.5 158,-85.5 158,-103.5"/>
<text text-anchor="middle" x="145" y="-92.3" font-family="Times,serif" font-size="9.00">&#45;3</text>
</g>
<!-- 0 -->
<g id="node11" class="node">
<title>0</title>
<ellipse fill="lightblue" stroke="black" cx="189" cy="-24.75" rx="16.03" ry="16.03"/>
<text text-anchor="middle" x="189" y="-22.55" font-family="Times,serif" font-size="9.00">0</text>
</g>
<!-- &#45;3&#45;&gt;0 -->
<g id="edge1" class="edge">
<title>&#45;3&#45;&gt;0</title>
<path fill="none" stroke="green" stroke-width="0.17" d="M150.22,-85.46C156.29,-76.12 166.54,-60.32 174.99,-47.33"/>
<polygon fill="green" stroke="green" stroke-width="0.17" points="177.96,-49.18 180.47,-38.89 172.09,-45.37 177.96,-49.18"/>
</g>
<!-- &#45;4 -->
<g id="node4" class="node">
<title>&#45;4</title>
<polygon fill="lightgray" stroke="black" points="114,-103.5 88,-103.5 88,-85.5 114,-85.5 114,-103.5"/>
<text text-anchor="middle" x="101" y="-92.3" font-family="Times,serif" font-size="9.00">&#45;4</text>
</g>
<!-- &#45;4&#45;&gt;0 -->
<g id="edge2" class="edge">
<title>&#45;4&#45;&gt;0</title>
<path fill="none" stroke="red" stroke-width="1.12" stroke-dasharray="1,5" d="M111.44,-85.46C125.45,-74.68 150.63,-55.29 168.49,-41.54"/>
<polygon fill="red" stroke="red" stroke-width="1.12" points="170.81,-44.17 176.59,-35.3 166.54,-38.63 170.81,-44.17"/>
</g>
<!-- &#45;4&#45;&gt;364 -->
<g id="edge6" class="edge">
<title>&#45;4&#45;&gt;364</title>
<path fill="none" stroke="green" stroke-width="0.39" d="M98.39,-85.46C96.16,-78.61 92.81,-68.28 89.52,-58.13"/>
<polygon fill="green" stroke="green" stroke-width="0.39" points="92.83,-57.01 86.41,-48.58 86.17,-59.17 92.83,-57.01"/>
</g>
<!-- &#45;5 -->
<g id="node5" class="node">
<title>&#45;5</title>
<polygon fill="lightgray" stroke="black" points="340,-103.5 314,-103.5 314,-85.5 340,-85.5 340,-103.5"/>
<text text-anchor="middle" x="327" y="-92.3" font-family="Times,serif" font-size="9.00">&#45;5</text>
</g>
<!-- &#45;6 -->
<g id="node6" class="node">
<title>&#45;6</title>
<polygon fill="lightgray" stroke="black" points="202,-103.5 176,-103.5 176,-85.5 202,-85.5 202,-103.5"/>
<text text-anchor="middle" x="189" y="-92.3" font-family="Times,serif" font-size="9.00">&#45;6</text>
</g>
<!-- &#45;6&#45;&gt;0 -->
<g id="edge3" class="edge">
<title>&#45;6&#45;&gt;0</title>
<path fill="none" stroke="red" stroke-width="0.26" d="M189,-85.46C189,-77.06 189,-63.43 189,-51.31"/>
<polygon fill="red" stroke="red" stroke-width="0.26" points="192.5,-51.22 189,-41.22 185.5,-51.22 192.5,-51.22"/>
</g>
<!-- &#45;7 -->
<g id="node7" class="node">
<title>&#45;7</title>
<polygon fill="lightgray" stroke="black" points="384,-103.5 358,-103.5 358,-85.5 384,-85.5 384,-103.5"/>
<text text-anchor="middle" x="371" y="-92.3" font-family="Times,serif" font-size="9.00">&#45;7</text>
</g>
<!-- &#45;8 -->
<g id="node8" class="node">
<title>&#45;8</title>
<polygon fill="lightgray" stroke="black" points="246,-103.5 220,-103.5 220,-85.5 246,-85.5 246,-103.5"/>
<text text-anchor="middle" x="233" y="-92.3" font-family="Times,serif" font-size="9.00">&#45;8</text>
</g>
<!-- &#45;8&#45;&gt;0 -->
<g id="edge4" class="edge">
<title>&#45;8&#45;&gt;0</title>
<path fill="none" stroke="red" stroke-width="0.72" stroke-dasharray="1,5" d="M227.78,-85.46C221.71,-76.12 211.46,-60.32 203.01,-47.33"/>
<polygon fill="red" stroke="red" stroke-width="0.72" points="205.91,-45.37 197.53,-38.89 200.04,-49.18 205.91,-45.37"/>
</g>
<!-- &#45;9 -->
<g id="node9" class="node">
<title>&#45;9</title>
<polygon fill="lightgray" stroke="black" points="428,-103.5 402,-103.5 402,-85.5 428,-85.5 428,-103.5"/>
<text text-anchor="middle" x="415" y="-92.3" font-family="Times,serif" font-size="9.00">&#45;9</text>
</g>
<!-- &#45;10 -->
<g id="node10" class="node">
<title>&#45;10</title>
<polygon fill="lightgray" stroke="black" points="296,-103.5 264,-103.5 264,-85.5 296,-85.5 296,-103.5"/>
<text text-anchor="middle" x="280" y="-92.3" font-family="Times,serif" font-size="9.00">&#45;10</text>
</g>
<!-- &#45;10&#45;&gt;0 -->
<g id="edge5" class="edge">
<title>&#45;10&#45;&gt;0</title>
<path fill="none" stroke="red" stroke-width="1.44" d="M269.2,-85.46C254.65,-74.63 228.45,-55.12 209.96,-41.35"/>
<polygon fill="red" stroke="red" stroke-width="1.44" points="211.94,-38.46 201.83,-35.3 207.76,-44.08 211.94,-38.46"/>
</g>
</g>
</svg>
