<?xml version="1.0" encoding="UTF-8" standalone="no"?>
<!DOCTYPE svg PUBLIC "-//W3C//DTD SVG 1.1//EN"
 "http://www.w3.org/Graphics/SVG/1.1/DTD/svg11.dtd">
<!-- Generated by graphviz version 2.43.0 (0)
 -->
<!-- Title: %3 Pages: 1 -->
<svg width="404pt" height="180pt"
 viewBox="0.00 0.00 404.00 180.02" xmlns="http://www.w3.org/2000/svg" xmlns:xlink="http://www.w3.org/1999/xlink">
<g id="graph0" class="graph" transform="scale(1 1) rotate(0) translate(4 176.02)">
<title>%3</title>
<polygon fill="white" stroke="transparent" points="-4,4 -4,-176.02 400,-176.02 400,4 -4,4"/>
<!-- &#45;1 -->
<g id="node1" class="node">
<title>&#45;1</title>
<polygon fill="lightgray" stroke="black" points="71,-172.02 45,-172.02 45,-154.02 71,-154.02 71,-172.02"/>
<text text-anchor="middle" x="58" y="-160.82" font-family="Times,serif" font-size="9.00">&#45;1</text>
</g>
<!-- &#45;2 -->
<g id="node2" class="node">
<title>&#45;2</title>
<polygon fill="lightgray" stroke="black" points="26,-102.28 0,-102.28 0,-84.28 26,-84.28 26,-102.28"/>
<text text-anchor="middle" x="13" y="-91.08" font-family="Times,serif" font-size="9.00">&#45;2</text>
</g>
<!-- 0 -->
<g id="node11" class="node">
<title>0</title>
<ellipse fill="lightblue" stroke="black" cx="204" cy="-16.26" rx="16.03" ry="16.03"/>
<text text-anchor="middle" x="204" y="-14.06" font-family="Times,serif" font-size="9.00">0</text>
</g>
<!-- &#45;2&#45;&gt;0 -->
<g id="edge1" class="edge">
<title>&#45;2&#45;&gt;0</title>
<path fill="none" stroke="red" stroke-width="0.26" stroke-dasharray="1,5" d="M18.7,-84.19C22.72,-79.03 28.52,-72.58 35,-68.53 80.5,-40.06 142.8,-26.55 177.64,-20.86"/>
<polygon fill="red" stroke="red" stroke-width="0.26" points="178.59,-24.26 187.94,-19.28 177.52,-17.34 178.59,-24.26"/>
</g>
<!-- &#45;3 -->
<g id="node3" class="node">
<title>&#45;3</title>
<polygon fill="lightgray" stroke="black" points="70,-102.28 44,-102.28 44,-84.28 70,-84.28 70,-102.28"/>
<text text-anchor="middle" x="57" y="-91.08" font-family="Times,serif" font-size="9.00">&#45;3</text>
</g>
<!-- &#45;3&#45;&gt;0 -->
<g id="edge2" class="edge">
<title>&#45;3&#45;&gt;0</title>
<path fill="none" stroke="red" stroke-width="0.48" d="M64.96,-84.05C70.07,-79.1 77.03,-72.92 84,-68.53 114.65,-49.2 153.85,-34.01 178.95,-25.33"/>
<polygon fill="red" stroke="red" stroke-width="0.48" points="180.1,-28.64 188.46,-22.12 177.86,-22.01 180.1,-28.64"/>
</g>
<!-- &#45;4 -->
<g id="node4" class="node">
<title>&#45;4</title>
<polygon fill="lightgray" stroke="black" points="115,-172.02 89,-172.02 89,-154.02 115,-154.02 115,-172.02"/>
<text text-anchor="middle" x="102" y="-160.82" font-family="Times,serif" font-size="9.00">&#45;4</text>
</g>
<!-- &#45;4&#45;&gt;0 -->
<g id="edge3" class="edge">
<title>&#45;4&#45;&gt;0</title>
<path fill="none" stroke="green" stroke-width="0.7" d="M101.14,-153.94C99.71,-136.64 98.66,-95.42 117,-68.53 131.79,-46.85 159.04,-32.99 179.11,-25.22"/>
<polygon fill="green" stroke="green" stroke-width="0.7" points="180.36,-28.49 188.58,-21.8 177.98,-21.91 180.36,-28.49"/>
</g>
<!-- 243 -->
<g id="node12" class="node">
<title>243</title>
<ellipse fill="white" stroke="black" cx="151" cy="-93.28" rx="25" ry="25"/>
<text text-anchor="middle" x="151" y="-91.08" font-family="Times,serif" font-size="9.00">243</text>
</g>
<!-- &#45;4&#45;&gt;243 -->
<g id="edge11" class="edge">
<title>&#45;4&#45;&gt;243</title>
<path fill="none" stroke="red" stroke-width="0.37" d="M107.81,-153.99C113.53,-146.09 122.57,-133.58 130.92,-122.05"/>
<polygon fill="red" stroke="red" stroke-width="0.37" points="133.78,-124.05 136.81,-113.9 128.11,-119.95 133.78,-124.05"/>
</g>
<!-- &#45;5 -->
<g id="node5" class="node">
<title>&#45;5</title>
<polygon fill="lightgray" stroke="black" points="190,-172.02 164,-172.02 164,-154.02 190,-154.02 190,-172.02"/>
<text text-anchor="middle" x="177" y="-160.82" font-family="Times,serif" font-size="9.00">&#45;5</text>
</g>
<!-- &#45;5&#45;&gt;0 -->
<g id="edge4" class="edge">
<title>&#45;5&#45;&gt;0</title>
<path fill="none" stroke="green" stroke-width="0.13" d="M178.53,-153.83C182.47,-132.67 193.13,-75.57 199.33,-42.28"/>
<polygon fill="green" stroke="green" stroke-width="0.13" points="202.79,-42.86 201.18,-32.39 195.9,-41.58 202.79,-42.86"/>
</g>
<!-- &#45;5&#45;&gt;243 -->
<g id="edge9" class="edge">
<title>&#45;5&#45;&gt;243</title>
<path fill="none" stroke="green" stroke-width="0.11" stroke-dasharray="1,5" d="M173.92,-153.99C171.22,-146.96 167.12,-136.27 163.12,-125.87"/>
<polygon fill="green" stroke="green" stroke-width="0.11" points="166.38,-124.6 159.53,-116.51 159.85,-127.1 166.38,-124.6"/>
</g>
<!-- &#45;6 -->
<g id="node6" class="node">
<title>&#45;6</title>
<polygon fill="lightgray" stroke="black" points="258,-102.28 232,-102.28 232,-84.28 258,-84.28 258,-102.28"/>
<text text-anchor="middle" x="245" y="-91.08" font-family="Times,serif" font-size="9.00">&#45;6</text>
</g>
<!-- &#45;6&#45;&gt;0 -->
<g id="edge5" class="edge">
<title>&#45;6&#45;&gt;0</title>
<path fill="none" stroke="red" stroke-width="0.33" stroke-dasharray="1,5" d="M240.61,-84.25C234.88,-73.77 224.62,-55 216.42,-39.98"/>
<polygon fill="red" stroke="red" stroke-width="0.33" points="219.26,-37.88 211.39,-30.79 213.12,-41.24 219.26,-37.88"/>
</g>
<!-- &#45;7 -->
<g id="node7" class="node">
<title>&#45;7</title>
<polygon fill="lightgray" stroke="black" points="302,-102.28 276,-102.28 276,-84.28 302,-84.28 302,-102.28"/>
<text text-anchor="middle" x="289" y="-91.08" font-family="Times,serif" font-size="9.00">&#45;7</text>
</g>
<!-- &#45;7&#45;&gt;0 -->
<g id="edge6" class="edge">
<title>&#45;7&#45;&gt;0</title>
<path fill="none" stroke="red" stroke-width="0.25" d="M281.94,-84.09C277.75,-79.39 272.25,-73.45 267,-68.53 253.63,-55.99 237.59,-42.96 225.04,-33.18"/>
<polygon fill="red" stroke="red" stroke-width="0.25" points="227.05,-30.31 216.99,-26.97 222.77,-35.85 227.05,-30.31"/>
</g>
<!-- &#45;8 -->
<g id="node8" class="node">
<title>&#45;8</title>
<polygon fill="lightgray" stroke="black" points="234,-172.02 208,-172.02 208,-154.02 234,-154.02 234,-172.02"/>
<text text-anchor="middle" x="221" y="-160.82" font-family="Times,serif" font-size="9.00">&#45;8</text>
</g>
<!-- &#45;9 -->
<g id="node9" class="node">
<title>&#45;9</title>
<polygon fill="lightgray" stroke="black" points="346,-102.28 320,-102.28 320,-84.28 346,-84.28 346,-102.28"/>
<text text-anchor="middle" x="333" y="-91.08" font-family="Times,serif" font-size="9.00">&#45;9</text>
</g>
<!-- &#45;9&#45;&gt;0 -->
<g id="edge7" class="edge">
<title>&#45;9&#45;&gt;0</title>
<path fill="none" stroke="green" stroke-width="0.75" d="M326.72,-84.06C322.63,-79.11 316.97,-72.93 311,-68.53 285.26,-49.56 251.4,-34.74 228.72,-26.02"/>
<polygon fill="green" stroke="green" stroke-width="0.75" points="229.75,-22.67 219.16,-22.45 227.3,-29.23 229.75,-22.67"/>
</g>
<!-- &#45;10 -->
<g id="node10" class="node">
<title>&#45;10</title>
<polygon fill="lightgray" stroke="black" points="396,-102.28 364,-102.28 364,-84.28 396,-84.28 396,-102.28"/>
<text text-anchor="middle" x="380" y="-91.08" font-family="Times,serif" font-size="9.00">&#45;10</text>
</g>
<!-- &#45;10&#45;&gt;0 -->
<g id="edge8" class="edge">
<title>&#45;10&#45;&gt;0</title>
<path fill="none" stroke="red" stroke-width="0.65" d="M372.85,-83.83C368.2,-78.8 361.76,-72.61 355,-68.53 314.73,-44.19 261.37,-29.57 230.06,-22.5"/>
<polygon fill="red" stroke="red" stroke-width="0.65" points="230.47,-19.01 219.96,-20.3 228.99,-25.85 230.47,-19.01"/>
</g>
<!-- 243&#45;&gt;0 -->
<g id="edge10" class="edge">
<title>243&#45;&gt;0</title>
<path fill="none" stroke="red" stroke-width="0.84" d="M164.93,-72.57C172.31,-62.12 181.38,-49.28 188.92,-38.6"/>
<polygon fill="red" stroke="red" stroke-width="0.84" points="191.92,-40.43 194.83,-30.24 186.2,-36.39 191.92,-40.43"/>
</g>
</g>
</svg>
