<?xml version="1.0" encoding="UTF-8" standalone="no"?>
<!DOCTYPE svg PUBLIC "-//W3C//DTD SVG 1.1//EN"
 "http://www.w3.org/Graphics/SVG/1.1/DTD/svg11.dtd">
<!-- Generated by graphviz version 2.43.0 (0)
 -->
<!-- Title: %3 Pages: 1 -->
<svg width="254pt" height="163pt"
 viewBox="0.00 0.00 254.00 163.05" xmlns="http://www.w3.org/2000/svg" xmlns:xlink="http://www.w3.org/1999/xlink">
<g id="graph0" class="graph" transform="scale(1 1) rotate(0) translate(4 159.05)">
<title>%3</title>
<polygon fill="white" stroke="transparent" points="-4,4 -4,-159.05 250,-159.05 250,4 -4,4"/>
<!-- &#45;1 -->
<g id="node1" class="node">
<title>&#45;1</title>
<polygon fill="lightgray" stroke="black" points="26,-93.79 0,-93.79 0,-75.79 26,-75.79 26,-93.79"/>
<text text-anchor="middle" x="13" y="-82.59" font-family="Times,serif" font-size="9.00">&#45;1</text>
</g>
<!-- 0 -->
<g id="node7" class="node">
<title>0</title>
<ellipse fill="lightblue" stroke="black" cx="121" cy="-16.26" rx="16.03" ry="16.03"/>
<text text-anchor="middle" x="121" y="-14.06" font-family="Times,serif" font-size="9.00">0</text>
</g>
<!-- &#45;1&#45;&gt;0 -->
<g id="edge1" class="edge">
<title>&#45;1&#45;&gt;0</title>
<path fill="none" stroke="red" stroke-width="0.33" d="M24.54,-75.56C27.89,-73.24 31.56,-70.74 35,-68.53 56.09,-54.95 80.72,-40.39 98.21,-30.27"/>
<polygon fill="red" stroke="red" stroke-width="0.33" points="100.2,-33.17 107.12,-25.14 96.71,-27.1 100.2,-33.17"/>
</g>
<!-- &#45;2 -->
<g id="node2" class="node">
<title>&#45;2</title>
<polygon fill="lightgray" stroke="black" points="70,-93.79 44,-93.79 44,-75.79 70,-75.79 70,-93.79"/>
<text text-anchor="middle" x="57" y="-82.59" font-family="Times,serif" font-size="9.00">&#45;2</text>
</g>
<!-- &#45;2&#45;&gt;0 -->
<g id="edge2" class="edge">
<title>&#45;2&#45;&gt;0</title>
<path fill="none" stroke="green" stroke-width="1.11" d="M64.85,-75.63C74.25,-65.86 90.29,-49.19 102.83,-36.15"/>
<polygon fill="green" stroke="green" stroke-width="1.11" points="105.68,-38.24 110.09,-28.61 100.63,-33.39 105.68,-38.24"/>
</g>
<!-- &#45;3 -->
<g id="node3" class="node">
<title>&#45;3</title>
<polygon fill="lightgray" stroke="black" points="114,-93.79 88,-93.79 88,-75.79 114,-75.79 114,-93.79"/>
<text text-anchor="middle" x="101" y="-82.59" font-family="Times,serif" font-size="9.00">&#45;3</text>
</g>
<!-- &#45;3&#45;&gt;0 -->
<g id="edge3" class="edge">
<title>&#45;3&#45;&gt;0</title>
<path fill="none" stroke="green" stroke-width="0.13" d="M103.45,-75.63C105.97,-67.26 110.01,-53.81 113.58,-41.94"/>
<polygon fill="green" stroke="green" stroke-width="0.13" points="117.02,-42.65 116.55,-32.07 110.32,-40.64 117.02,-42.65"/>
</g>
<!-- &#45;4 -->
<g id="node4" class="node">
<title>&#45;4</title>
<polygon fill="lightgray" stroke="black" points="177,-155.05 151,-155.05 151,-137.05 177,-137.05 177,-155.05"/>
<text text-anchor="middle" x="164" y="-143.85" font-family="Times,serif" font-size="9.00">&#45;4</text>
</g>
<!-- &#45;4&#45;&gt;0 -->
<g id="edge4" class="edge">
<title>&#45;4&#45;&gt;0</title>
<path fill="none" stroke="green" stroke-width="0.28" stroke-dasharray="1,5" d="M161.18,-136.67C154.79,-117.68 139.01,-70.78 129.23,-41.73"/>
<polygon fill="green" stroke="green" stroke-width="0.28" points="132.44,-40.28 125.93,-31.92 125.8,-42.52 132.44,-40.28"/>
</g>
<!-- 4 -->
<g id="node8" class="node">
<title>4</title>
<ellipse fill="white" stroke="black" cx="186" cy="-84.79" rx="16.03" ry="16.03"/>
<text text-anchor="middle" x="186" y="-82.59" font-family="Times,serif" font-size="9.00">4</text>
</g>
<!-- &#45;4&#45;&gt;4 -->
<g id="edge6" class="edge">
<title>&#45;4&#45;&gt;4</title>
<path fill="none" stroke="red" stroke-width="0.62" d="M167.06,-136.81C169.65,-129.83 173.51,-119.44 177.06,-109.86"/>
<polygon fill="red" stroke="red" stroke-width="0.62" points="180.4,-110.94 180.6,-100.34 173.84,-108.5 180.4,-110.94"/>
</g>
<!-- &#45;5 -->
<g id="node5" class="node">
<title>&#45;5</title>
<polygon fill="lightgray" stroke="black" points="221,-155.05 195,-155.05 195,-137.05 221,-137.05 221,-155.05"/>
<text text-anchor="middle" x="208" y="-143.85" font-family="Times,serif" font-size="9.00">&#45;5</text>
</g>
<!-- &#45;6 -->
<g id="node6" class="node">
<title>&#45;6</title>
<polygon fill="lightgray" stroke="black" points="246,-93.79 220,-93.79 220,-75.79 246,-75.79 246,-93.79"/>
<text text-anchor="middle" x="233" y="-82.59" font-family="Times,serif" font-size="9.00">&#45;6</text>
</g>
<!-- &#45;6&#45;&gt;0 -->
<g id="edge5" class="edge">
<title>&#45;6&#45;&gt;0</title>
<path fill="none" stroke="red" stroke-width="0.42" stroke-dasharray="1,5" d="M221.48,-75.51C218.14,-73.19 214.46,-70.71 211,-68.53 188.59,-54.41 162.16,-39.56 143.77,-29.5"/>
<polygon fill="red" stroke="red" stroke-width="0.42" points="145.4,-26.41 134.95,-24.71 142.06,-32.56 145.4,-26.41"/>
</g>
<!-- 4&#45;&gt;0 -->
<g id="edge7" class="edge">
<title>4&#45;&gt;0</title>
<path fill="none" stroke="red" stroke-width="0.22" d="M174.97,-72.5C165.11,-62.41 150.47,-47.42 138.92,-35.61"/>
<polygon fill="red" stroke="red" stroke-width="0.22" points="141.36,-33.09 131.86,-28.38 136.35,-37.98 141.36,-33.09"/>
</g>
</g>
</svg>
