<?xml version="1.0" encoding="UTF-8" standalone="no"?>
<!DOCTYPE svg PUBLIC "-//W3C//DTD SVG 1.1//EN"
 "http://www.w3.org/Graphics/SVG/1.1/DTD/svg11.dtd">
<!-- Generated by graphviz version 2.43.0 (0)
 -->
<!-- Title: %3 Pages: 1 -->
<svg width="636pt" height="95pt"
 viewBox="0.00 0.00 636.00 94.53" xmlns="http://www.w3.org/2000/svg" xmlns:xlink="http://www.w3.org/1999/xlink">
<g id="graph0" class="graph" transform="scale(1 1) rotate(0) translate(4 90.53)">
<title>%3</title>
<polygon fill="white" stroke="transparent" points="-4,4 -4,-90.53 632,-90.53 632,4 -4,4"/>
<!-- &#45;1 -->
<g id="node1" class="node">
<title>&#45;1</title>
<polygon fill="lightgray" stroke="black" points="26,-86.53 0,-86.53 0,-68.53 26,-68.53 26,-86.53"/>
<text text-anchor="middle" x="13" y="-75.33" font-family="Times,serif" font-size="9.00">&#45;1</text>
</g>
<!-- &#45;2 -->
<g id="node2" class="node">
<title>&#45;2</title>
<polygon fill="lightgray" stroke="black" points="70,-86.53 44,-86.53 44,-68.53 70,-68.53 70,-86.53"/>
<text text-anchor="middle" x="57" y="-75.33" font-family="Times,serif" font-size="9.00">&#45;2</text>
</g>
<!-- 0 -->
<g id="node15" class="node">
<title>0</title>
<ellipse fill="lightblue" stroke="black" cx="299" cy="-16.26" rx="16.03" ry="16.03"/>
<text text-anchor="middle" x="299" y="-14.06" font-family="Times,serif" font-size="9.00">0</text>
</g>
<!-- &#45;2&#45;&gt;0 -->
<g id="edge1" class="edge">
<title>&#45;2&#45;&gt;0</title>
<path fill="none" stroke="green" stroke-width="0.16" stroke-dasharray="1,5" d="M70.41,-71.36C73.23,-70.36 76.2,-69.36 79,-68.53 148.19,-47.97 231.61,-30.47 273.03,-22.26"/>
<polygon fill="green" stroke="green" stroke-width="0.16" points="273.95,-25.65 283.09,-20.29 272.6,-18.78 273.95,-25.65"/>
</g>
<!-- &#45;3 -->
<g id="node3" class="node">
<title>&#45;3</title>
<polygon fill="lightgray" stroke="black" points="114,-86.53 88,-86.53 88,-68.53 114,-68.53 114,-86.53"/>
<text text-anchor="middle" x="101" y="-75.33" font-family="Times,serif" font-size="9.00">&#45;3</text>
</g>
<!-- &#45;3&#45;&gt;0 -->
<g id="edge2" class="edge">
<title>&#45;3&#45;&gt;0</title>
<path fill="none" stroke="green" stroke-width="0.32" d="M114.45,-71.48C117.26,-70.47 120.22,-69.44 123,-68.53 176.18,-51.13 239.33,-33.45 273.67,-24.08"/>
<polygon fill="green" stroke="green" stroke-width="0.32" points="274.62,-27.45 283.36,-21.45 272.79,-20.69 274.62,-27.45"/>
</g>
<!-- &#45;4 -->
<g id="node4" class="node">
<title>&#45;4</title>
<polygon fill="lightgray" stroke="black" points="158,-86.53 132,-86.53 132,-68.53 158,-68.53 158,-86.53"/>
<text text-anchor="middle" x="145" y="-75.33" font-family="Times,serif" font-size="9.00">&#45;4</text>
</g>
<!-- &#45;4&#45;&gt;0 -->
<g id="edge3" class="edge">
<title>&#45;4&#45;&gt;0</title>
<path fill="none" stroke="green" stroke-width="1.33" d="M158.13,-71.47C183.97,-61.53 241.77,-39.29 274.74,-26.6"/>
<polygon fill="green" stroke="green" stroke-width="1.33" points="276.04,-29.85 284.11,-22.99 273.52,-23.32 276.04,-29.85"/>
</g>
<!-- &#45;5 -->
<g id="node5" class="node">
<title>&#45;5</title>
<polygon fill="lightgray" stroke="black" points="202,-86.53 176,-86.53 176,-68.53 202,-68.53 202,-86.53"/>
<text text-anchor="middle" x="189" y="-75.33" font-family="Times,serif" font-size="9.00">&#45;5</text>
</g>
<!-- &#45;5&#45;&gt;0 -->
<g id="edge4" class="edge">
<title>&#45;5&#45;&gt;0</title>
<path fill="none" stroke="red" stroke-width="0.27" d="M202.05,-69.5C220.28,-59.68 253.63,-41.71 276.06,-29.62"/>
<polygon fill="red" stroke="red" stroke-width="0.27" points="277.78,-32.67 284.93,-24.85 274.46,-26.51 277.78,-32.67"/>
</g>
<!-- &#45;6 -->
<g id="node6" class="node">
<title>&#45;6</title>
<polygon fill="lightgray" stroke="black" points="246,-86.53 220,-86.53 220,-68.53 246,-68.53 246,-86.53"/>
<text text-anchor="middle" x="233" y="-75.33" font-family="Times,serif" font-size="9.00">&#45;6</text>
</g>
<!-- &#45;6&#45;&gt;0 -->
<g id="edge5" class="edge">
<title>&#45;6&#45;&gt;0</title>
<path fill="none" stroke="green" stroke-width="0.12" d="M242.18,-68.29C251.82,-59.62 267.29,-45.74 279.65,-34.64"/>
<polygon fill="green" stroke="green" stroke-width="0.12" points="282.13,-37.12 287.23,-27.83 277.45,-31.91 282.13,-37.12"/>
</g>
<!-- &#45;7 -->
<g id="node7" class="node">
<title>&#45;7</title>
<polygon fill="lightgray" stroke="black" points="628,-86.53 602,-86.53 602,-68.53 628,-68.53 628,-86.53"/>
<text text-anchor="middle" x="615" y="-75.33" font-family="Times,serif" font-size="9.00">&#45;7</text>
</g>
<!-- &#45;8 -->
<g id="node8" class="node">
<title>&#45;8</title>
<polygon fill="lightgray" stroke="black" points="290,-86.53 264,-86.53 264,-68.53 290,-68.53 290,-86.53"/>
<text text-anchor="middle" x="277" y="-75.33" font-family="Times,serif" font-size="9.00">&#45;8</text>
</g>
<!-- &#45;8&#45;&gt;0 -->
<g id="edge6" class="edge">
<title>&#45;8&#45;&gt;0</title>
<path fill="none" stroke="red" stroke-width="0.33" d="M280.06,-68.29C282.65,-61.3 286.51,-50.91 290.06,-41.33"/>
<polygon fill="red" stroke="red" stroke-width="0.33" points="293.4,-42.41 293.6,-31.82 286.84,-39.97 293.4,-42.41"/>
</g>
<!-- &#45;9 -->
<g id="node9" class="node">
<title>&#45;9</title>
<polygon fill="lightgray" stroke="black" points="334,-86.53 308,-86.53 308,-68.53 334,-68.53 334,-86.53"/>
<text text-anchor="middle" x="321" y="-75.33" font-family="Times,serif" font-size="9.00">&#45;9</text>
</g>
<!-- &#45;9&#45;&gt;0 -->
<g id="edge7" class="edge">
<title>&#45;9&#45;&gt;0</title>
<path fill="none" stroke="red" stroke-width="0.16" stroke-dasharray="1,5" d="M317.94,-68.29C315.35,-61.3 311.49,-50.91 307.94,-41.33"/>
<polygon fill="red" stroke="red" stroke-width="0.16" points="311.16,-39.97 304.4,-31.82 304.6,-42.41 311.16,-39.97"/>
</g>
<!-- &#45;10 -->
<g id="node10" class="node">
<title>&#45;10</title>
<polygon fill="lightgray" stroke="black" points="384,-86.53 352,-86.53 352,-68.53 384,-68.53 384,-86.53"/>
<text text-anchor="middle" x="368" y="-75.33" font-family="Times,serif" font-size="9.00">&#45;10</text>
</g>
<!-- &#45;10&#45;&gt;0 -->
<g id="edge8" class="edge">
<title>&#45;10&#45;&gt;0</title>
<path fill="none" stroke="green" stroke-width="0.16" d="M358.41,-68.29C348.32,-59.62 332.16,-45.74 319.23,-34.64"/>
<polygon fill="green" stroke="green" stroke-width="0.16" points="321.17,-31.69 311.31,-27.83 316.61,-37 321.17,-31.69"/>
</g>
<!-- &#45;11 -->
<g id="node11" class="node">
<title>&#45;11</title>
<polygon fill="lightgray" stroke="black" points="434,-86.53 402,-86.53 402,-68.53 434,-68.53 434,-86.53"/>
<text text-anchor="middle" x="418" y="-75.33" font-family="Times,serif" font-size="9.00">&#45;11</text>
</g>
<!-- &#45;11&#45;&gt;0 -->
<g id="edge9" class="edge">
<title>&#45;11&#45;&gt;0</title>
<path fill="none" stroke="red" stroke-width="0.67" d="M401.95,-68.53C381.52,-58.36 346.07,-40.7 322.57,-29"/>
<polygon fill="red" stroke="red" stroke-width="0.67" points="323.82,-25.71 313.31,-24.39 320.7,-31.98 323.82,-25.71"/>
</g>
<!-- &#45;12 -->
<g id="node12" class="node">
<title>&#45;12</title>
<polygon fill="lightgray" stroke="black" points="484,-86.53 452,-86.53 452,-68.53 484,-68.53 484,-86.53"/>
<text text-anchor="middle" x="468" y="-75.33" font-family="Times,serif" font-size="9.00">&#45;12</text>
</g>
<!-- &#45;12&#45;&gt;0 -->
<g id="edge10" class="edge">
<title>&#45;12&#45;&gt;0</title>
<path fill="none" stroke="red" stroke-width="0.89" d="M451.8,-70.84C422.17,-60.46 359.09,-38.33 323.95,-26.01"/>
<polygon fill="red" stroke="red" stroke-width="0.89" points="325.01,-22.68 314.42,-22.67 322.7,-29.28 325.01,-22.68"/>
</g>
<!-- &#45;13 -->
<g id="node13" class="node">
<title>&#45;13</title>
<polygon fill="lightgray" stroke="black" points="534,-86.53 502,-86.53 502,-68.53 534,-68.53 534,-86.53"/>
<text text-anchor="middle" x="518" y="-75.33" font-family="Times,serif" font-size="9.00">&#45;13</text>
</g>
<!-- &#45;13&#45;&gt;0 -->
<g id="edge11" class="edge">
<title>&#45;13&#45;&gt;0</title>
<path fill="none" stroke="red" stroke-width="0.25" d="M501.9,-71.24C498.95,-70.31 495.89,-69.37 493,-68.53 433.04,-51.02 361.9,-32.89 324.66,-23.6"/>
<polygon fill="red" stroke="red" stroke-width="0.25" points="325.22,-20.13 314.67,-21.11 323.53,-26.92 325.22,-20.13"/>
</g>
<!-- &#45;14 -->
<g id="node14" class="node">
<title>&#45;14</title>
<polygon fill="lightgray" stroke="black" points="584,-86.53 552,-86.53 552,-68.53 584,-68.53 584,-86.53"/>
<text text-anchor="middle" x="568" y="-75.33" font-family="Times,serif" font-size="9.00">&#45;14</text>
</g>
<!-- &#45;14&#45;&gt;0 -->
<g id="edge12" class="edge">
<title>&#45;14&#45;&gt;0</title>
<path fill="none" stroke="green" stroke-width="0.87" d="M551.93,-71.12C548.98,-70.2 545.91,-69.3 543,-68.53 464.32,-47.73 369.61,-29.83 324.85,-21.79"/>
<polygon fill="green" stroke="green" stroke-width="0.87" points="325.29,-18.32 314.83,-20.01 324.06,-25.21 325.29,-18.32"/>
</g>
</g>
</svg>
