<?xml version="1.0" encoding="UTF-8" standalone="no"?>
<!DOCTYPE svg PUBLIC "-//W3C//DTD SVG 1.1//EN"
 "http://www.w3.org/Graphics/SVG/1.1/DTD/svg11.dtd">
<!-- Generated by graphviz version 2.43.0 (0)
 -->
<!-- Title: %3 Pages: 1 -->
<svg width="410pt" height="180pt"
 viewBox="0.00 0.00 410.00 180.02" xmlns="http://www.w3.org/2000/svg" xmlns:xlink="http://www.w3.org/1999/xlink">
<g id="graph0" class="graph" transform="scale(1 1) rotate(0) translate(4 176.02)">
<title>%3</title>
<polygon fill="white" stroke="transparent" points="-4,4 -4,-176.02 406,-176.02 406,4 -4,4"/>
<!-- &#45;1 -->
<g id="node1" class="node">
<title>&#45;1</title>
<polygon fill="lightgray" stroke="black" points="71,-172.02 45,-172.02 45,-154.02 71,-154.02 71,-172.02"/>
<text text-anchor="middle" x="58" y="-160.82" font-family="Times,serif" font-size="9.00">&#45;1</text>
</g>
<!-- &#45;2 -->
<g id="node2" class="node">
<title>&#45;2</title>
<polygon fill="lightgray" stroke="black" points="26,-102.28 0,-102.28 0,-84.28 26,-84.28 26,-102.28"/>
<text text-anchor="middle" x="13" y="-91.08" font-family="Times,serif" font-size="9.00">&#45;2</text>
</g>
<!-- 0 -->
<g id="node11" class="node">
<title>0</title>
<ellipse fill="lightblue" stroke="black" cx="151" cy="-16.26" rx="16.03" ry="16.03"/>
<text text-anchor="middle" x="151" y="-14.06" font-family="Times,serif" font-size="9.00">0</text>
</g>
<!-- &#45;2&#45;&gt;0 -->
<g id="edge1" class="edge">
<title>&#45;2&#45;&gt;0</title>
<path fill="none" stroke="red" stroke-width="0.2" d="M19.23,-83.99C23.3,-79.02 28.96,-72.84 35,-68.53 63.54,-48.16 101.46,-33.29 126.05,-24.97"/>
<polygon fill="red" stroke="red" stroke-width="0.2" points="127.29,-28.24 135.7,-21.8 125.11,-21.59 127.29,-28.24"/>
</g>
<!-- &#45;3 -->
<g id="node3" class="node">
<title>&#45;3</title>
<polygon fill="lightgray" stroke="black" points="70,-102.28 44,-102.28 44,-84.28 70,-84.28 70,-102.28"/>
<text text-anchor="middle" x="57" y="-91.08" font-family="Times,serif" font-size="9.00">&#45;3</text>
</g>
<!-- &#45;3&#45;&gt;0 -->
<g id="edge2" class="edge">
<title>&#45;3&#45;&gt;0</title>
<path fill="none" stroke="red" stroke-width="0.16" stroke-dasharray="1,5" d="M65.87,-84.2C71.07,-79.53 77.82,-73.6 84,-68.53 99.14,-56.1 116.74,-42.67 130.1,-32.68"/>
<polygon fill="red" stroke="red" stroke-width="0.16" points="132.27,-35.43 138.2,-26.65 128.09,-29.81 132.27,-35.43"/>
</g>
<!-- &#45;4 -->
<g id="node4" class="node">
<title>&#45;4</title>
<polygon fill="lightgray" stroke="black" points="314,-172.02 288,-172.02 288,-154.02 314,-154.02 314,-172.02"/>
<text text-anchor="middle" x="301" y="-160.82" font-family="Times,serif" font-size="9.00">&#45;4</text>
</g>
<!-- 337 -->
<g id="node12" class="node">
<title>337</title>
<ellipse fill="white" stroke="black" cx="301" cy="-93.28" rx="25" ry="25"/>
<text text-anchor="middle" x="301" y="-91.08" font-family="Times,serif" font-size="9.00">337</text>
</g>
<!-- &#45;4&#45;&gt;337 -->
<g id="edge8" class="edge">
<title>&#45;4&#45;&gt;337</title>
<path fill="none" stroke="green" stroke-width="0.16" d="M301,-153.99C301,-147.55 301,-138.05 301,-128.52"/>
<polygon fill="green" stroke="green" stroke-width="0.16" points="304.5,-128.3 301,-118.3 297.5,-128.3 304.5,-128.3"/>
</g>
<!-- &#45;5 -->
<g id="node5" class="node">
<title>&#45;5</title>
<polygon fill="lightgray" stroke="black" points="164,-172.02 138,-172.02 138,-154.02 164,-154.02 164,-172.02"/>
<text text-anchor="middle" x="151" y="-160.82" font-family="Times,serif" font-size="9.00">&#45;5</text>
</g>
<!-- 361 -->
<g id="node13" class="node">
<title>361</title>
<ellipse fill="white" stroke="black" cx="151" cy="-93.28" rx="25" ry="25"/>
<text text-anchor="middle" x="151" y="-91.08" font-family="Times,serif" font-size="9.00">361</text>
</g>
<!-- &#45;5&#45;&gt;361 -->
<g id="edge9" class="edge">
<title>&#45;5&#45;&gt;361</title>
<path fill="none" stroke="red" stroke-width="0.49" d="M151,-153.99C151,-147.55 151,-138.05 151,-128.52"/>
<polygon fill="red" stroke="red" stroke-width="0.49" points="154.5,-128.3 151,-118.3 147.5,-128.3 154.5,-128.3"/>
</g>
<!-- &#45;6 -->
<g id="node6" class="node">
<title>&#45;6</title>
<polygon fill="lightgray" stroke="black" points="115,-172.02 89,-172.02 89,-154.02 115,-154.02 115,-172.02"/>
<text text-anchor="middle" x="102" y="-160.82" font-family="Times,serif" font-size="9.00">&#45;6</text>
</g>
<!-- &#45;6&#45;&gt;0 -->
<g id="edge3" class="edge">
<title>&#45;6&#45;&gt;0</title>
<path fill="none" stroke="red" stroke-width="1.11" stroke-dasharray="1,5" d="M102.15,-153.97C102.71,-137.4 105.28,-98.54 117,-68.53 121.25,-57.63 128.09,-46.68 134.52,-37.71"/>
<polygon fill="red" stroke="red" stroke-width="1.11" points="137.5,-39.58 140.7,-29.48 131.9,-35.37 137.5,-39.58"/>
</g>
<!-- &#45;6&#45;&gt;361 -->
<g id="edge11" class="edge">
<title>&#45;6&#45;&gt;361</title>
<path fill="none" stroke="green" stroke-width="1.13" d="M107.81,-153.99C113.53,-146.09 122.57,-133.58 130.92,-122.05"/>
<polygon fill="green" stroke="green" stroke-width="1.13" points="133.78,-124.05 136.81,-113.9 128.11,-119.95 133.78,-124.05"/>
</g>
<!-- &#45;7 -->
<g id="node7" class="node">
<title>&#45;7</title>
<polygon fill="lightgray" stroke="black" points="358,-172.02 332,-172.02 332,-154.02 358,-154.02 358,-172.02"/>
<text text-anchor="middle" x="345" y="-160.82" font-family="Times,serif" font-size="9.00">&#45;7</text>
</g>
<!-- &#45;8 -->
<g id="node8" class="node">
<title>&#45;8</title>
<polygon fill="lightgray" stroke="black" points="402,-172.02 376,-172.02 376,-154.02 402,-154.02 402,-172.02"/>
<text text-anchor="middle" x="389" y="-160.82" font-family="Times,serif" font-size="9.00">&#45;8</text>
</g>
<!-- &#45;9 -->
<g id="node9" class="node">
<title>&#45;9</title>
<polygon fill="lightgray" stroke="black" points="220,-102.28 194,-102.28 194,-84.28 220,-84.28 220,-102.28"/>
<text text-anchor="middle" x="207" y="-91.08" font-family="Times,serif" font-size="9.00">&#45;9</text>
</g>
<!-- &#45;9&#45;&gt;0 -->
<g id="edge4" class="edge">
<title>&#45;9&#45;&gt;0</title>
<path fill="none" stroke="red" stroke-width="0.8" d="M201.01,-84.25C192.85,-73.32 177.95,-53.36 166.53,-38.06"/>
<polygon fill="red" stroke="red" stroke-width="0.8" points="169.07,-35.62 160.28,-29.7 163.46,-39.8 169.07,-35.62"/>
</g>
<!-- &#45;10 -->
<g id="node10" class="node">
<title>&#45;10</title>
<polygon fill="lightgray" stroke="black" points="267,-172.02 235,-172.02 235,-154.02 267,-154.02 267,-172.02"/>
<text text-anchor="middle" x="251" y="-160.82" font-family="Times,serif" font-size="9.00">&#45;10</text>
</g>
<!-- &#45;10&#45;&gt;0 -->
<g id="edge5" class="edge">
<title>&#45;10&#45;&gt;0</title>
<path fill="none" stroke="red" stroke-width="0.67" stroke-dasharray="1,5" d="M251.04,-153.97C250.73,-136.72 247.92,-95.59 229,-68.53 215.6,-49.37 192.53,-35.52 174.94,-27.08"/>
<polygon fill="red" stroke="red" stroke-width="0.67" points="176.39,-23.9 165.84,-22.95 173.5,-30.27 176.39,-23.9"/>
</g>
<!-- &#45;10&#45;&gt;337 -->
<g id="edge6" class="edge">
<title>&#45;10&#45;&gt;337</title>
<path fill="none" stroke="green" stroke-width="0.61" d="M256.93,-153.99C262.8,-146.03 272.13,-133.4 280.69,-121.8"/>
<polygon fill="green" stroke="green" stroke-width="0.61" points="283.61,-123.74 286.73,-113.61 277.97,-119.58 283.61,-123.74"/>
</g>
<!-- 337&#45;&gt;0 -->
<g id="edge7" class="edge">
<title>337&#45;&gt;0</title>
<path fill="none" stroke="green" stroke-width="0.55" stroke-dasharray="1,5" d="M280.21,-79.01C274.39,-75.47 268.02,-71.73 262,-68.53 232.63,-52.87 197.6,-37.16 174.86,-27.34"/>
<polygon fill="green" stroke="green" stroke-width="0.55" points="176.2,-24.1 165.63,-23.38 173.44,-30.54 176.2,-24.1"/>
</g>
<!-- 361&#45;&gt;0 -->
<g id="edge10" class="edge">
<title>361&#45;&gt;0</title>
<path fill="none" stroke="green" stroke-width="0.85" d="M151,-68.13C151,-60.03 151,-50.97 151,-42.77"/>
<polygon fill="green" stroke="green" stroke-width="0.85" points="154.5,-42.64 151,-32.64 147.5,-42.64 154.5,-42.64"/>
</g>
</g>
</svg>
