<?xml version="1.0" encoding="UTF-8" standalone="no"?>
<!DOCTYPE svg PUBLIC "-//W3C//DTD SVG 1.1//EN"
 "http://www.w3.org/Graphics/SVG/1.1/DTD/svg11.dtd">
<!-- Generated by graphviz version 2.43.0 (0)
 -->
<!-- Title: %3 Pages: 1 -->
<svg width="277pt" height="180pt"
 viewBox="0.00 0.00 277.00 180.02" xmlns="http://www.w3.org/2000/svg" xmlns:xlink="http://www.w3.org/1999/xlink">
<g id="graph0" class="graph" transform="scale(1 1) rotate(0) translate(4 176.02)">
<title>%3</title>
<polygon fill="white" stroke="transparent" points="-4,4 -4,-176.02 273,-176.02 273,4 -4,4"/>
<!-- &#45;1 -->
<g id="node1" class="node">
<title>&#45;1</title>
<polygon fill="lightgray" stroke="black" points="26,-102.28 0,-102.28 0,-84.28 26,-84.28 26,-102.28"/>
<text text-anchor="middle" x="13" y="-91.08" font-family="Times,serif" font-size="9.00">&#45;1</text>
</g>
<!-- 0 -->
<g id="node7" class="node">
<title>0</title>
<ellipse fill="lightblue" stroke="black" cx="123" cy="-16.26" rx="16.03" ry="16.03"/>
<text text-anchor="middle" x="123" y="-14.06" font-family="Times,serif" font-size="9.00">0</text>
</g>
<!-- &#45;1&#45;&gt;0 -->
<g id="edge1" class="edge">
<title>&#45;1&#45;&gt;0</title>
<path fill="none" stroke="green" stroke-width="0.24" d="M19.41,-84.22C23.54,-79.34 29.21,-73.17 35,-68.53 55.12,-52.41 80.86,-38.02 99.3,-28.62"/>
<polygon fill="green" stroke="green" stroke-width="0.24" points="101.07,-31.65 108.46,-24.06 97.95,-25.39 101.07,-31.65"/>
</g>
<!-- &#45;2 -->
<g id="node2" class="node">
<title>&#45;2</title>
<polygon fill="lightgray" stroke="black" points="269,-172.02 243,-172.02 243,-154.02 269,-154.02 269,-172.02"/>
<text text-anchor="middle" x="256" y="-160.82" font-family="Times,serif" font-size="9.00">&#45;2</text>
</g>
<!-- &#45;3 -->
<g id="node3" class="node">
<title>&#45;3</title>
<polygon fill="lightgray" stroke="black" points="70,-102.28 44,-102.28 44,-84.28 70,-84.28 70,-102.28"/>
<text text-anchor="middle" x="57" y="-91.08" font-family="Times,serif" font-size="9.00">&#45;3</text>
</g>
<!-- &#45;3&#45;&gt;0 -->
<g id="edge2" class="edge">
<title>&#45;3&#45;&gt;0</title>
<path fill="none" stroke="red" stroke-width="1.17" d="M64.06,-84.25C74.03,-72.92 92.53,-51.9 106.15,-36.41"/>
<polygon fill="red" stroke="red" stroke-width="1.17" points="108.78,-38.72 112.76,-28.9 103.53,-34.1 108.78,-38.72"/>
</g>
<!-- &#45;4 -->
<g id="node4" class="node">
<title>&#45;4</title>
<polygon fill="lightgray" stroke="black" points="114,-102.28 88,-102.28 88,-84.28 114,-84.28 114,-102.28"/>
<text text-anchor="middle" x="101" y="-91.08" font-family="Times,serif" font-size="9.00">&#45;4</text>
</g>
<!-- &#45;4&#45;&gt;0 -->
<g id="edge3" class="edge">
<title>&#45;4&#45;&gt;0</title>
<path fill="none" stroke="green" stroke-width="0.96" d="M103.35,-84.25C106.28,-74.27 111.41,-56.78 115.69,-42.17"/>
<polygon fill="green" stroke="green" stroke-width="0.96" points="119.16,-42.78 118.62,-32.2 112.45,-40.81 119.16,-42.78"/>
</g>
<!-- &#45;5 -->
<g id="node5" class="node">
<title>&#45;5</title>
<polygon fill="lightgray" stroke="black" points="158,-102.28 132,-102.28 132,-84.28 158,-84.28 158,-102.28"/>
<text text-anchor="middle" x="145" y="-91.08" font-family="Times,serif" font-size="9.00">&#45;5</text>
</g>
<!-- &#45;5&#45;&gt;0 -->
<g id="edge4" class="edge">
<title>&#45;5&#45;&gt;0</title>
<path fill="none" stroke="red" stroke-width="0.62" stroke-dasharray="1,5" d="M142.65,-84.25C139.72,-74.27 134.59,-56.78 130.31,-42.17"/>
<polygon fill="red" stroke="red" stroke-width="0.62" points="133.55,-40.81 127.38,-32.2 126.84,-42.78 133.55,-40.81"/>
</g>
<!-- &#45;6 -->
<g id="node6" class="node">
<title>&#45;6</title>
<polygon fill="lightgray" stroke="black" points="225,-172.02 199,-172.02 199,-154.02 225,-154.02 225,-172.02"/>
<text text-anchor="middle" x="212" y="-160.82" font-family="Times,serif" font-size="9.00">&#45;6</text>
</g>
<!-- &#45;6&#45;&gt;0 -->
<g id="edge5" class="edge">
<title>&#45;6&#45;&gt;0</title>
<path fill="none" stroke="green" stroke-width="0.54" stroke-dasharray="1,5" d="M208.93,-153.89C202.43,-137.19 186.32,-98.08 167,-68.53 159.46,-56.99 149.56,-45.23 141.07,-35.9"/>
<polygon fill="green" stroke="green" stroke-width="0.54" points="143.44,-33.31 134.06,-28.38 138.32,-38.08 143.44,-33.31"/>
</g>
<!-- 188 -->
<g id="node8" class="node">
<title>188</title>
<ellipse fill="white" stroke="black" cx="239" cy="-93.28" rx="25" ry="25"/>
<text text-anchor="middle" x="239" y="-91.08" font-family="Times,serif" font-size="9.00">188</text>
</g>
<!-- &#45;6&#45;&gt;188 -->
<g id="edge6" class="edge">
<title>&#45;6&#45;&gt;188</title>
<path fill="none" stroke="red" stroke-width="0.59" d="M215.2,-153.99C218.01,-146.96 222.26,-136.27 226.41,-125.87"/>
<polygon fill="red" stroke="red" stroke-width="0.59" points="229.69,-127.1 230.14,-116.51 223.18,-124.51 229.69,-127.1"/>
</g>
<!-- 188&#45;&gt;0 -->
<g id="edge7" class="edge">
<title>188&#45;&gt;0</title>
<path fill="none" stroke="red" stroke-width="0.2" stroke-dasharray="1,5" d="M218.53,-79.04C197.91,-65.7 166.19,-45.19 145.03,-31.51"/>
<polygon fill="red" stroke="red" stroke-width="0.2" points="146.69,-28.42 136.4,-25.93 142.89,-34.3 146.69,-28.42"/>
</g>
</g>
</svg>
