<?xml version="1.0" encoding="UTF-8" standalone="no"?>
<!DOCTYPE svg PUBLIC "-//W3C//DTD SVG 1.1//EN"
 "http://www.w3.org/Graphics/SVG/1.1/DTD/svg11.dtd">
<!-- Generated by graphviz version 2.43.0 (0)
 -->
<!-- Title: %3 Pages: 1 -->
<svg width="436pt" height="95pt"
 viewBox="0.00 0.00 436.00 94.53" xmlns="http://www.w3.org/2000/svg" xmlns:xlink="http://www.w3.org/1999/xlink">
<g id="graph0" class="graph" transform="scale(1 1) rotate(0) translate(4 90.53)">
<title>%3</title>
<polygon fill="white" stroke="transparent" points="-4,4 -4,-90.53 432,-90.53 432,4 -4,4"/>
<!-- &#45;1 -->
<g id="node1" class="node">
<title>&#45;1</title>
<polygon fill="lightgray" stroke="black" points="26,-86.53 0,-86.53 0,-68.53 26,-68.53 26,-86.53"/>
<text text-anchor="middle" x="13" y="-75.33" font-family="Times,serif" font-size="9.00">&#45;1</text>
</g>
<!-- 0 -->
<g id="node11" class="node">
<title>0</title>
<ellipse fill="lightblue" stroke="black" cx="101" cy="-16.26" rx="16.03" ry="16.03"/>
<text text-anchor="middle" x="101" y="-14.06" font-family="Times,serif" font-size="9.00">0</text>
</g>
<!-- &#45;1&#45;&gt;0 -->
<g id="edge5" class="edge">
<title>&#45;1&#45;&gt;0</title>
<path fill="none" stroke="green" stroke-width="0.59" stroke-dasharray="1,5" d="M25.24,-68.29C39.1,-58.95 61.98,-43.54 78.98,-32.09"/>
<polygon fill="green" stroke="green" stroke-width="0.59" points="81.38,-34.7 87.72,-26.21 77.47,-28.89 81.38,-34.7"/>
</g>
<!-- &#45;2 -->
<g id="node2" class="node">
<title>&#45;2</title>
<polygon fill="lightgray" stroke="black" points="252,-86.53 226,-86.53 226,-68.53 252,-68.53 252,-86.53"/>
<text text-anchor="middle" x="239" y="-75.33" font-family="Times,serif" font-size="9.00">&#45;2</text>
</g>
<!-- &#45;3 -->
<g id="node3" class="node">
<title>&#45;3</title>
<polygon fill="lightgray" stroke="black" points="296,-86.53 270,-86.53 270,-68.53 296,-68.53 296,-86.53"/>
<text text-anchor="middle" x="283" y="-75.33" font-family="Times,serif" font-size="9.00">&#45;3</text>
</g>
<!-- &#45;4 -->
<g id="node4" class="node">
<title>&#45;4</title>
<polygon fill="lightgray" stroke="black" points="340,-86.53 314,-86.53 314,-68.53 340,-68.53 340,-86.53"/>
<text text-anchor="middle" x="327" y="-75.33" font-family="Times,serif" font-size="9.00">&#45;4</text>
</g>
<!-- &#45;5 -->
<g id="node5" class="node">
<title>&#45;5</title>
<polygon fill="lightgray" stroke="black" points="70,-86.53 44,-86.53 44,-68.53 70,-68.53 70,-86.53"/>
<text text-anchor="middle" x="57" y="-75.33" font-family="Times,serif" font-size="9.00">&#45;5</text>
</g>
<!-- &#45;5&#45;&gt;0 -->
<g id="edge4" class="edge">
<title>&#45;5&#45;&gt;0</title>
<path fill="none" stroke="green" stroke-width="0.18" stroke-dasharray="1,5" d="M63.12,-68.29C68.87,-60.53 77.73,-48.6 85.44,-38.22"/>
<polygon fill="green" stroke="green" stroke-width="0.18" points="88.4,-40.11 91.55,-30 82.78,-35.94 88.4,-40.11"/>
</g>
<!-- &#45;6 -->
<g id="node6" class="node">
<title>&#45;6</title>
<polygon fill="lightgray" stroke="black" points="114,-86.53 88,-86.53 88,-68.53 114,-68.53 114,-86.53"/>
<text text-anchor="middle" x="101" y="-75.33" font-family="Times,serif" font-size="9.00">&#45;6</text>
</g>
<!-- &#45;6&#45;&gt;0 -->
<g id="edge1" class="edge">
<title>&#45;6&#45;&gt;0</title>
<path fill="none" stroke="red" stroke-width="0.36" d="M101,-68.29C101,-61.7 101,-52.1 101,-43"/>
<polygon fill="red" stroke="red" stroke-width="0.36" points="104.5,-42.76 101,-32.76 97.5,-42.76 104.5,-42.76"/>
</g>
<!-- &#45;7 -->
<g id="node7" class="node">
<title>&#45;7</title>
<polygon fill="lightgray" stroke="black" points="158,-86.53 132,-86.53 132,-68.53 158,-68.53 158,-86.53"/>
<text text-anchor="middle" x="145" y="-75.33" font-family="Times,serif" font-size="9.00">&#45;7</text>
</g>
<!-- &#45;7&#45;&gt;0 -->
<g id="edge2" class="edge">
<title>&#45;7&#45;&gt;0</title>
<path fill="none" stroke="green" stroke-width="0.15" stroke-dasharray="1,5" d="M138.88,-68.29C133.13,-60.53 124.27,-48.6 116.56,-38.22"/>
<polygon fill="green" stroke="green" stroke-width="0.15" points="119.22,-35.94 110.45,-30 113.6,-40.11 119.22,-35.94"/>
</g>
<!-- &#45;8 -->
<g id="node8" class="node">
<title>&#45;8</title>
<polygon fill="lightgray" stroke="black" points="384,-86.53 358,-86.53 358,-68.53 384,-68.53 384,-86.53"/>
<text text-anchor="middle" x="371" y="-75.33" font-family="Times,serif" font-size="9.00">&#45;8</text>
</g>
<!-- &#45;9 -->
<g id="node9" class="node">
<title>&#45;9</title>
<polygon fill="lightgray" stroke="black" points="428,-86.53 402,-86.53 402,-68.53 428,-68.53 428,-86.53"/>
<text text-anchor="middle" x="415" y="-75.33" font-family="Times,serif" font-size="9.00">&#45;9</text>
</g>
<!-- &#45;10 -->
<g id="node10" class="node">
<title>&#45;10</title>
<polygon fill="lightgray" stroke="black" points="208,-86.53 176,-86.53 176,-68.53 208,-68.53 208,-86.53"/>
<text text-anchor="middle" x="192" y="-75.33" font-family="Times,serif" font-size="9.00">&#45;10</text>
</g>
<!-- &#45;10&#45;&gt;0 -->
<g id="edge3" class="edge">
<title>&#45;10&#45;&gt;0</title>
<path fill="none" stroke="red" stroke-width="0.71" d="M179.35,-68.29C164.79,-58.81 140.63,-43.07 122.98,-31.58"/>
<polygon fill="red" stroke="red" stroke-width="0.71" points="124.72,-28.54 114.43,-26.01 120.9,-34.4 124.72,-28.54"/>
</g>
</g>
</svg>
