<?xml version="1.0" encoding="UTF-8" standalone="no"?>
<!DOCTYPE svg PUBLIC "-//W3C//DTD SVG 1.1//EN"
 "http://www.w3.org/Graphics/SVG/1.1/DTD/svg11.dtd">
<!-- Generated by graphviz version 2.43.0 (0)
 -->
<!-- Title: %3 Pages: 1 -->
<svg width="416pt" height="274pt"
 viewBox="0.00 0.00 415.75 274.01" xmlns="http://www.w3.org/2000/svg" xmlns:xlink="http://www.w3.org/1999/xlink">
<g id="graph0" class="graph" transform="scale(1 1) rotate(0) translate(4 270.01)">
<title>%3</title>
<polygon fill="white" stroke="transparent" points="-4,4 -4,-270.01 411.75,-270.01 411.75,4 -4,4"/>
<!-- &#45;1 -->
<g id="node1" class="node">
<title>&#45;1</title>
<polygon fill="lightgray" stroke="black" points="90.75,-196.26 64.75,-196.26 64.75,-178.26 90.75,-178.26 90.75,-196.26"/>
<text text-anchor="middle" x="77.75" y="-185.06" font-family="Times,serif" font-size="9.00">&#45;1</text>
</g>
<!-- 0 -->
<g id="node7" class="node">
<title>0</title>
<ellipse fill="lightblue" stroke="black" cx="208.75" cy="-20.51" rx="16.03" ry="16.03"/>
<text text-anchor="middle" x="208.75" y="-18.31" font-family="Times,serif" font-size="9.00">0</text>
</g>
<!-- &#45;1&#45;&gt;0 -->
<g id="edge1" class="edge">
<title>&#45;1&#45;&gt;0</title>
<path fill="none" stroke="green" stroke-width="1.07" stroke-dasharray="1,5" d="M76.85,-178.18C75.12,-158.67 73.37,-108.32 96.75,-77.01 117.75,-48.89 156.91,-34.15 182.91,-27.1"/>
<polygon fill="green" stroke="green" stroke-width="1.07" points="183.98,-30.45 192.82,-24.62 182.27,-23.66 183.98,-30.45"/>
</g>
<!-- 107 -->
<g id="node10" class="node">
<title>107</title>
<ellipse fill="white" stroke="black" cx="130.75" cy="-101.76" rx="25" ry="25"/>
<text text-anchor="middle" x="130.75" y="-99.56" font-family="Times,serif" font-size="9.00">107</text>
</g>
<!-- &#45;1&#45;&gt;107 -->
<g id="edge9" class="edge">
<title>&#45;1&#45;&gt;107</title>
<path fill="none" stroke="green" stroke-width="0.41" d="M82.83,-178.25C89.56,-167.64 101.81,-148.36 112.23,-131.93"/>
<polygon fill="green" stroke="green" stroke-width="0.41" points="115.39,-133.5 117.79,-123.18 109.48,-129.74 115.39,-133.5"/>
</g>
<!-- 283 -->
<g id="node11" class="node">
<title>283</title>
<ellipse fill="white" stroke="black" cx="24.75" cy="-101.76" rx="25" ry="25"/>
<text text-anchor="middle" x="24.75" y="-99.56" font-family="Times,serif" font-size="9.00">283</text>
</g>
<!-- &#45;1&#45;&gt;283 -->
<g id="edge13" class="edge">
<title>&#45;1&#45;&gt;283</title>
<path fill="none" stroke="green" stroke-width="0.3" d="M72.67,-178.25C65.93,-167.64 53.69,-148.36 43.27,-131.93"/>
<polygon fill="green" stroke="green" stroke-width="0.3" points="46.02,-129.74 37.71,-123.18 40.11,-133.5 46.02,-129.74"/>
</g>
<!-- &#45;2 -->
<g id="node2" class="node">
<title>&#45;2</title>
<polygon fill="lightgray" stroke="black" points="199.75,-110.76 173.75,-110.76 173.75,-92.76 199.75,-92.76 199.75,-110.76"/>
<text text-anchor="middle" x="186.75" y="-99.56" font-family="Times,serif" font-size="9.00">&#45;2</text>
</g>
<!-- &#45;2&#45;&gt;0 -->
<g id="edge2" class="edge">
<title>&#45;2&#45;&gt;0</title>
<path fill="none" stroke="red" stroke-width="0.21" stroke-dasharray="1,5" d="M189.02,-92.58C192.03,-81.74 197.47,-62.15 201.87,-46.28"/>
<polygon fill="red" stroke="red" stroke-width="0.21" points="205.28,-47.09 204.58,-36.51 198.54,-45.21 205.28,-47.09"/>
</g>
<!-- &#45;3 -->
<g id="node3" class="node">
<title>&#45;3</title>
<polygon fill="lightgray" stroke="black" points="243.75,-110.76 217.75,-110.76 217.75,-92.76 243.75,-92.76 243.75,-110.76"/>
<text text-anchor="middle" x="230.75" y="-99.56" font-family="Times,serif" font-size="9.00">&#45;3</text>
</g>
<!-- &#45;3&#45;&gt;0 -->
<g id="edge3" class="edge">
<title>&#45;3&#45;&gt;0</title>
<path fill="none" stroke="green" stroke-width="0.26" d="M228.48,-92.58C225.47,-81.74 220.03,-62.15 215.63,-46.28"/>
<polygon fill="green" stroke="green" stroke-width="0.26" points="218.96,-45.21 212.91,-36.51 212.22,-47.09 218.96,-45.21"/>
</g>
<!-- &#45;4 -->
<g id="node4" class="node">
<title>&#45;4</title>
<polygon fill="lightgray" stroke="black" points="407.75,-110.76 381.75,-110.76 381.75,-92.76 407.75,-92.76 407.75,-110.76"/>
<text text-anchor="middle" x="394.75" y="-99.56" font-family="Times,serif" font-size="9.00">&#45;4</text>
</g>
<!-- 71 -->
<g id="node9" class="node">
<title>71</title>
<ellipse fill="white" stroke="black" cx="372.75" cy="-20.51" rx="20.51" ry="20.51"/>
<text text-anchor="middle" x="372.75" y="-18.31" font-family="Times,serif" font-size="9.00">71</text>
</g>
<!-- &#45;4&#45;&gt;71 -->
<g id="edge6" class="edge">
<title>&#45;4&#45;&gt;71</title>
<path fill="none" stroke="green" stroke-width="0.43" stroke-dasharray="1,5" d="M392.48,-92.58C389.73,-82.68 384.96,-65.48 380.79,-50.48"/>
<polygon fill="green" stroke="green" stroke-width="0.43" points="384.09,-49.26 378.04,-40.56 377.34,-51.13 384.09,-49.26"/>
</g>
<!-- &#45;5 -->
<g id="node5" class="node">
<title>&#45;5</title>
<polygon fill="lightgray" stroke="black" points="363.75,-110.76 337.75,-110.76 337.75,-92.76 363.75,-92.76 363.75,-110.76"/>
<text text-anchor="middle" x="350.75" y="-99.56" font-family="Times,serif" font-size="9.00">&#45;5</text>
</g>
<!-- &#45;5&#45;&gt;0 -->
<g id="edge4" class="edge">
<title>&#45;5&#45;&gt;0</title>
<path fill="none" stroke="green" stroke-width="0.3" d="M342.72,-92.65C337.58,-87.74 330.62,-81.57 323.75,-77.01 294.49,-57.61 257.42,-40.97 233.4,-31.1"/>
<polygon fill="green" stroke="green" stroke-width="0.3" points="234.55,-27.79 223.97,-27.3 231.93,-34.28 234.55,-27.79"/>
</g>
<!-- &#45;5&#45;&gt;71 -->
<g id="edge7" class="edge">
<title>&#45;5&#45;&gt;71</title>
<path fill="none" stroke="red" stroke-width="0.36" d="M353.02,-92.58C355.77,-82.68 360.54,-65.48 364.71,-50.48"/>
<polygon fill="red" stroke="red" stroke-width="0.36" points="368.16,-51.13 367.46,-40.56 361.41,-49.26 368.16,-51.13"/>
</g>
<!-- &#45;6 -->
<g id="node6" class="node">
<title>&#45;6</title>
<polygon fill="lightgray" stroke="black" points="295.75,-266.01 269.75,-266.01 269.75,-248.01 295.75,-248.01 295.75,-266.01"/>
<text text-anchor="middle" x="282.75" y="-254.81" font-family="Times,serif" font-size="9.00">&#45;6</text>
</g>
<!-- &#45;6&#45;&gt;0 -->
<g id="edge5" class="edge">
<title>&#45;6&#45;&gt;0</title>
<path fill="none" stroke="green" stroke-width="1.01" stroke-dasharray="1,5" d="M284.66,-247.96C286.64,-239.18 289.61,-224.69 290.75,-212.01 296.2,-151.6 301.68,-129.18 270.75,-77.01 260.84,-60.29 244.22,-45.82 230.68,-35.85"/>
<polygon fill="green" stroke="green" stroke-width="1.01" points="232.52,-32.86 222.33,-29.96 228.49,-38.58 232.52,-32.86"/>
</g>
<!-- 227 -->
<g id="node8" class="node">
<title>227</title>
<ellipse fill="white" stroke="black" cx="256.75" cy="-187.26" rx="25" ry="25"/>
<text text-anchor="middle" x="256.75" y="-185.06" font-family="Times,serif" font-size="9.00">227</text>
</g>
<!-- &#45;6&#45;&gt;227 -->
<g id="edge10" class="edge">
<title>&#45;6&#45;&gt;227</title>
<path fill="none" stroke="green" stroke-width="0.25" d="M279.66,-247.97C276.97,-240.94 272.86,-230.25 268.87,-219.85"/>
<polygon fill="green" stroke="green" stroke-width="0.25" points="272.13,-218.58 265.28,-210.5 265.6,-221.09 272.13,-218.58"/>
</g>
<!-- 227&#45;&gt;0 -->
<g id="edge11" class="edge">
<title>227&#45;&gt;0</title>
<path fill="none" stroke="red" stroke-width="0.75" d="M260.04,-162.42C262.23,-139.72 263.06,-104.97 252.75,-77.01 247.51,-62.81 237.14,-49.43 227.78,-39.37"/>
<polygon fill="red" stroke="red" stroke-width="0.75" points="230.11,-36.75 220.61,-32.06 225.11,-41.65 230.11,-36.75"/>
</g>
<!-- 227&#45;&gt;107 -->
<g id="edge12" class="edge">
<title>227&#45;&gt;107</title>
<path fill="none" stroke="green" stroke-width="0.36" d="M236.16,-173.17C217.42,-161.19 189.07,-142.9 164.75,-126.51 162.91,-125.27 161.01,-123.98 159.11,-122.68"/>
<polygon fill="green" stroke="green" stroke-width="0.36" points="161.02,-119.75 150.81,-116.94 157.04,-125.5 161.02,-119.75"/>
</g>
<!-- 107&#45;&gt;0 -->
<g id="edge8" class="edge">
<title>107&#45;&gt;0</title>
<path fill="none" stroke="red" stroke-width="0.17" d="M147.67,-83.56C160.26,-70.78 177.42,-53.34 190.34,-40.21"/>
<polygon fill="red" stroke="red" stroke-width="0.17" points="192.88,-42.62 197.4,-33.04 187.89,-37.71 192.88,-42.62"/>
</g>
<!-- 283&#45;&gt;0 -->
<g id="edge14" class="edge">
<title>283&#45;&gt;0</title>
<path fill="none" stroke="green" stroke-width="0.75" d="M45,-87.47C50.92,-83.85 57.49,-80.09 63.75,-77.01 104.48,-57.02 154.34,-39.32 183.71,-29.54"/>
<polygon fill="green" stroke="green" stroke-width="0.75" points="185.14,-32.76 193.55,-26.31 182.96,-26.11 185.14,-32.76"/>
</g>
</g>
</svg>
