<?xml version="1.0" encoding="UTF-8" standalone="no"?>
<!DOCTYPE svg PUBLIC "-//W3C//DTD SVG 1.1//EN"
 "http://www.w3.org/Graphics/SVG/1.1/DTD/svg11.dtd">
<!-- Generated by graphviz version 2.43.0 (0)
 -->
<!-- Title: %3 Pages: 1 -->
<svg width="467pt" height="172pt"
 viewBox="0.00 0.00 467.00 171.54" xmlns="http://www.w3.org/2000/svg" xmlns:xlink="http://www.w3.org/1999/xlink">
<g id="graph0" class="graph" transform="scale(1 1) rotate(0) translate(4 167.54)">
<title>%3</title>
<polygon fill="white" stroke="transparent" points="-4,4 -4,-167.54 463,-167.54 463,4 -4,4"/>
<!-- &#45;1 -->
<g id="node1" class="node">
<title>&#45;1</title>
<polygon fill="lightgray" stroke="black" points="26,-163.54 0,-163.54 0,-145.54 26,-145.54 26,-163.54"/>
<text text-anchor="middle" x="13" y="-152.34" font-family="Times,serif" font-size="9.00">&#45;1</text>
</g>
<!-- &#45;2 -->
<g id="node2" class="node">
<title>&#45;2</title>
<polygon fill="lightgray" stroke="black" points="70,-163.54 44,-163.54 44,-145.54 70,-145.54 70,-163.54"/>
<text text-anchor="middle" x="57" y="-152.34" font-family="Times,serif" font-size="9.00">&#45;2</text>
</g>
<!-- 0 -->
<g id="node11" class="node">
<title>0</title>
<ellipse fill="lightblue" stroke="black" cx="268" cy="-16.26" rx="16.03" ry="16.03"/>
<text text-anchor="middle" x="268" y="-14.06" font-family="Times,serif" font-size="9.00">0</text>
</g>
<!-- &#45;2&#45;&gt;0 -->
<g id="edge1" class="edge">
<title>&#45;2&#45;&gt;0</title>
<path fill="none" stroke="red" stroke-width="0.62" stroke-dasharray="1,5" d="M53.34,-145.46C46.51,-129.02 34.03,-91.26 52,-68.53 75.37,-38.96 189.11,-24.65 241.5,-19.54"/>
<polygon fill="red" stroke="red" stroke-width="0.62" points="242.06,-23 251.69,-18.59 241.41,-16.03 242.06,-23"/>
</g>
<!-- 85 -->
<g id="node12" class="node">
<title>85</title>
<ellipse fill="white" stroke="black" cx="82" cy="-89.03" rx="20.51" ry="20.51"/>
<text text-anchor="middle" x="82" y="-86.83" font-family="Times,serif" font-size="9.00">85</text>
</g>
<!-- &#45;2&#45;&gt;85 -->
<g id="edge13" class="edge">
<title>&#45;2&#45;&gt;85</title>
<path fill="none" stroke="red" stroke-width="0.26" d="M60.17,-145.5C62.93,-138.46 67.12,-127.83 71.09,-117.75"/>
<polygon fill="red" stroke="red" stroke-width="0.26" points="74.37,-118.97 74.78,-108.38 67.86,-116.41 74.37,-118.97"/>
</g>
<!-- &#45;3 -->
<g id="node3" class="node">
<title>&#45;3</title>
<polygon fill="lightgray" stroke="black" points="147,-98.03 121,-98.03 121,-80.03 147,-80.03 147,-98.03"/>
<text text-anchor="middle" x="134" y="-86.83" font-family="Times,serif" font-size="9.00">&#45;3</text>
</g>
<!-- &#45;3&#45;&gt;0 -->
<g id="edge2" class="edge">
<title>&#45;3&#45;&gt;0</title>
<path fill="none" stroke="red" stroke-width="0.67" d="M142.09,-79.81C146.06,-76.07 151.04,-71.76 156,-68.53 184.1,-50.23 219.79,-35.11 243.24,-26.15"/>
<polygon fill="red" stroke="red" stroke-width="0.67" points="244.63,-29.36 252.78,-22.58 242.18,-22.8 244.63,-29.36"/>
</g>
<!-- &#45;4 -->
<g id="node4" class="node">
<title>&#45;4</title>
<polygon fill="lightgray" stroke="black" points="191,-98.03 165,-98.03 165,-80.03 191,-80.03 191,-98.03"/>
<text text-anchor="middle" x="178" y="-86.83" font-family="Times,serif" font-size="9.00">&#45;4</text>
</g>
<!-- &#45;4&#45;&gt;0 -->
<g id="edge3" class="edge">
<title>&#45;4&#45;&gt;0</title>
<path fill="none" stroke="green" stroke-width="0.5" d="M188.32,-79.91C202.67,-68.63 228.96,-47.96 247.4,-33.46"/>
<polygon fill="green" stroke="green" stroke-width="0.5" points="249.8,-36.03 255.5,-27.09 245.47,-30.52 249.8,-36.03"/>
</g>
<!-- &#45;5 -->
<g id="node5" class="node">
<title>&#45;5</title>
<polygon fill="lightgray" stroke="black" points="232,-163.54 206,-163.54 206,-145.54 232,-145.54 232,-163.54"/>
<text text-anchor="middle" x="219" y="-152.34" font-family="Times,serif" font-size="9.00">&#45;5</text>
</g>
<!-- &#45;5&#45;&gt;0 -->
<g id="edge4" class="edge">
<title>&#45;5&#45;&gt;0</title>
<path fill="none" stroke="green" stroke-width="0.14" stroke-dasharray="1,5" d="M219.98,-145.32C222,-129.86 227.37,-95.55 238,-68.53 242.03,-58.27 247.93,-47.64 253.43,-38.74"/>
<polygon fill="green" stroke="green" stroke-width="0.14" points="256.47,-40.49 258.92,-30.18 250.57,-36.71 256.47,-40.49"/>
</g>
<!-- &#45;5&#45;&gt;85 -->
<g id="edge12" class="edge">
<title>&#45;5&#45;&gt;85</title>
<path fill="none" stroke="green" stroke-width="0.25" d="M205.8,-149.01C185.24,-141.77 144.55,-126.62 112,-109.54 110.45,-108.73 108.88,-107.85 107.31,-106.95"/>
<polygon fill="green" stroke="green" stroke-width="0.25" points="108.84,-103.78 98.49,-101.54 105.18,-109.75 108.84,-103.78"/>
</g>
<!-- 23 -->
<g id="node13" class="node">
<title>23</title>
<ellipse fill="white" stroke="black" cx="268" cy="-89.03" rx="20.51" ry="20.51"/>
<text text-anchor="middle" x="268" y="-86.83" font-family="Times,serif" font-size="9.00">23</text>
</g>
<!-- &#45;5&#45;&gt;23 -->
<g id="edge9" class="edge">
<title>&#45;5&#45;&gt;23</title>
<path fill="none" stroke="green" stroke-width="0.35" d="M225.21,-145.5C231.32,-137.57 240.97,-125.07 249.56,-113.93"/>
<polygon fill="green" stroke="green" stroke-width="0.35" points="252.51,-115.84 255.84,-105.79 246.96,-111.57 252.51,-115.84"/>
</g>
<!-- &#45;6 -->
<g id="node6" class="node">
<title>&#45;6</title>
<polygon fill="lightgray" stroke="black" points="371,-98.03 345,-98.03 345,-80.03 371,-80.03 371,-98.03"/>
<text text-anchor="middle" x="358" y="-86.83" font-family="Times,serif" font-size="9.00">&#45;6</text>
</g>
<!-- &#45;6&#45;&gt;0 -->
<g id="edge5" class="edge">
<title>&#45;6&#45;&gt;0</title>
<path fill="none" stroke="red" stroke-width="0.36" d="M347.68,-79.91C333.33,-68.63 307.04,-47.96 288.6,-33.46"/>
<polygon fill="red" stroke="red" stroke-width="0.36" points="290.53,-30.52 280.5,-27.09 286.2,-36.03 290.53,-30.52"/>
</g>
<!-- &#45;7 -->
<g id="node7" class="node">
<title>&#45;7</title>
<polygon fill="lightgray" stroke="black" points="415,-98.03 389,-98.03 389,-80.03 415,-80.03 415,-98.03"/>
<text text-anchor="middle" x="402" y="-86.83" font-family="Times,serif" font-size="9.00">&#45;7</text>
</g>
<!-- &#45;7&#45;&gt;0 -->
<g id="edge6" class="edge">
<title>&#45;7&#45;&gt;0</title>
<path fill="none" stroke="green" stroke-width="1.23" d="M393.91,-79.81C389.94,-76.07 384.96,-71.76 380,-68.53 351.9,-50.23 316.21,-35.11 292.76,-26.15"/>
<polygon fill="green" stroke="green" stroke-width="1.23" points="293.82,-22.8 283.22,-22.58 291.37,-29.36 293.82,-22.8"/>
</g>
<!-- &#45;8 -->
<g id="node8" class="node">
<title>&#45;8</title>
<polygon fill="lightgray" stroke="black" points="459,-98.03 433,-98.03 433,-80.03 459,-80.03 459,-98.03"/>
<text text-anchor="middle" x="446" y="-86.83" font-family="Times,serif" font-size="9.00">&#45;8</text>
</g>
<!-- &#45;8&#45;&gt;0 -->
<g id="edge7" class="edge">
<title>&#45;8&#45;&gt;0</title>
<path fill="none" stroke="green" stroke-width="0.99" d="M438.47,-79.95C434.48,-76.05 429.31,-71.58 424,-68.53 381.58,-44.16 325.94,-29.43 293.86,-22.36"/>
<polygon fill="green" stroke="green" stroke-width="0.99" points="294.44,-18.91 283.93,-20.25 292.99,-25.75 294.44,-18.91"/>
</g>
<!-- &#45;9 -->
<g id="node9" class="node">
<title>&#45;9</title>
<polygon fill="lightgray" stroke="black" points="352,-163.54 326,-163.54 326,-145.54 352,-145.54 352,-163.54"/>
<text text-anchor="middle" x="339" y="-152.34" font-family="Times,serif" font-size="9.00">&#45;9</text>
</g>
<!-- &#45;10 -->
<g id="node10" class="node">
<title>&#45;10</title>
<polygon fill="lightgray" stroke="black" points="308,-163.54 276,-163.54 276,-145.54 308,-145.54 308,-163.54"/>
<text text-anchor="middle" x="292" y="-152.34" font-family="Times,serif" font-size="9.00">&#45;10</text>
</g>
<!-- &#45;10&#45;&gt;0 -->
<g id="edge8" class="edge">
<title>&#45;10&#45;&gt;0</title>
<path fill="none" stroke="red" stroke-width="1.03" d="M294.33,-145.4C298.34,-130.06 305.43,-95.95 298,-68.53 295.08,-57.74 289.25,-46.9 283.51,-37.99"/>
<polygon fill="red" stroke="red" stroke-width="1.03" points="286.22,-35.75 277.67,-29.48 280.44,-39.7 286.22,-35.75"/>
</g>
<!-- &#45;10&#45;&gt;23 -->
<g id="edge11" class="edge">
<title>&#45;10&#45;&gt;23</title>
<path fill="none" stroke="red" stroke-width="0.31" d="M288.96,-145.5C286.3,-138.46 282.28,-127.83 278.47,-117.75"/>
<polygon fill="red" stroke="red" stroke-width="0.31" points="281.74,-116.5 274.94,-108.38 275.2,-118.98 281.74,-116.5"/>
</g>
<!-- 23&#45;&gt;0 -->
<g id="edge10" class="edge">
<title>23&#45;&gt;0</title>
<path fill="none" stroke="green" stroke-width="0.32" d="M268,-68.32C268,-60.38 268,-51.13 268,-42.69"/>
<polygon fill="green" stroke="green" stroke-width="0.32" points="271.5,-42.61 268,-32.61 264.5,-42.61 271.5,-42.61"/>
</g>
</g>
</svg>
