<?xml version="1.0" encoding="UTF-8" standalone="no"?>
<!DOCTYPE svg PUBLIC "-//W3C//DTD SVG 1.1//EN"
 "http://www.w3.org/Graphics/SVG/1.1/DTD/svg11.dtd">
<!-- Generated by graphviz version 2.43.0 (0)
 -->
<!-- Title: %3 Pages: 1 -->
<svg width="598pt" height="266pt"
 viewBox="0.00 0.00 598.00 265.52" xmlns="http://www.w3.org/2000/svg" xmlns:xlink="http://www.w3.org/1999/xlink">
<g id="graph0" class="graph" transform="scale(1 1) rotate(0) translate(4 261.52)">
<title>%3</title>
<polygon fill="white" stroke="transparent" points="-4,4 -4,-261.52 594,-261.52 594,4 -4,4"/>
<!-- &#45;1 -->
<g id="node1" class="node">
<title>&#45;1</title>
<polygon fill="lightgray" stroke="black" points="26,-102.28 0,-102.28 0,-84.28 26,-84.28 26,-102.28"/>
<text text-anchor="middle" x="13" y="-91.08" font-family="Times,serif" font-size="9.00">&#45;1</text>
</g>
<!-- 0 -->
<g id="node15" class="node">
<title>0</title>
<ellipse fill="lightblue" stroke="black" cx="289" cy="-16.26" rx="16.03" ry="16.03"/>
<text text-anchor="middle" x="289" y="-14.06" font-family="Times,serif" font-size="9.00">0</text>
</g>
<!-- &#45;1&#45;&gt;0 -->
<g id="edge1" class="edge">
<title>&#45;1&#45;&gt;0</title>
<path fill="none" stroke="red" stroke-width="1.09" d="M18.58,-83.98C22.54,-78.74 28.33,-72.27 35,-68.53 109.79,-26.55 214.06,-18.67 262.42,-17.37"/>
<polygon fill="red" stroke="red" stroke-width="1.09" points="262.73,-20.87 272.66,-17.18 262.59,-13.87 262.73,-20.87"/>
</g>
<!-- &#45;2 -->
<g id="node2" class="node">
<title>&#45;2</title>
<polygon fill="lightgray" stroke="black" points="225,-257.52 199,-257.52 199,-239.52 225,-239.52 225,-257.52"/>
<text text-anchor="middle" x="212" y="-246.32" font-family="Times,serif" font-size="9.00">&#45;2</text>
</g>
<!-- &#45;3 -->
<g id="node3" class="node">
<title>&#45;3</title>
<polygon fill="lightgray" stroke="black" points="70,-102.28 44,-102.28 44,-84.28 70,-84.28 70,-102.28"/>
<text text-anchor="middle" x="57" y="-91.08" font-family="Times,serif" font-size="9.00">&#45;3</text>
</g>
<!-- &#45;3&#45;&gt;0 -->
<g id="edge2" class="edge">
<title>&#45;3&#45;&gt;0</title>
<path fill="none" stroke="red" stroke-width="1.52" d="M62.63,-84.07C66.61,-78.86 72.41,-72.4 79,-68.53 138.54,-33.52 221.02,-22.35 262.67,-18.84"/>
<polygon fill="red" stroke="red" stroke-width="1.52" points="263.11,-22.32 272.82,-18.07 262.58,-15.34 263.11,-22.32"/>
</g>
<!-- &#45;4 -->
<g id="node4" class="node">
<title>&#45;4</title>
<polygon fill="lightgray" stroke="black" points="114,-102.28 88,-102.28 88,-84.28 114,-84.28 114,-102.28"/>
<text text-anchor="middle" x="101" y="-91.08" font-family="Times,serif" font-size="9.00">&#45;4</text>
</g>
<!-- &#45;4&#45;&gt;0 -->
<g id="edge3" class="edge">
<title>&#45;4&#45;&gt;0</title>
<path fill="none" stroke="red" stroke-width="0.44" d="M108.36,-84.27C113.45,-79.15 120.61,-72.71 128,-68.53 172.04,-43.61 229.83,-29 262.84,-22.11"/>
<polygon fill="red" stroke="red" stroke-width="0.44" points="263.92,-25.47 273.04,-20.07 262.54,-18.61 263.92,-25.47"/>
</g>
<!-- &#45;5 -->
<g id="node5" class="node">
<title>&#45;5</title>
<polygon fill="lightgray" stroke="black" points="181,-257.52 155,-257.52 155,-239.52 181,-239.52 181,-257.52"/>
<text text-anchor="middle" x="168" y="-246.32" font-family="Times,serif" font-size="9.00">&#45;5</text>
</g>
<!-- &#45;5&#45;&gt;0 -->
<g id="edge4" class="edge">
<title>&#45;5&#45;&gt;0</title>
<path fill="none" stroke="red" stroke-width="0.49" stroke-dasharray="1,5" d="M165.76,-239.21C158.81,-211.4 140.52,-120.4 183,-68.53 203.42,-43.59 238.89,-29.92 263.13,-23.11"/>
<polygon fill="red" stroke="red" stroke-width="0.49" points="264.28,-26.42 273.07,-20.51 262.51,-19.65 264.28,-26.42"/>
</g>
<!-- 241 -->
<g id="node16" class="node">
<title>241</title>
<ellipse fill="white" stroke="black" cx="195" cy="-178.77" rx="25" ry="25"/>
<text text-anchor="middle" x="195" y="-176.57" font-family="Times,serif" font-size="9.00">241</text>
</g>
<!-- &#45;5&#45;&gt;241 -->
<g id="edge12" class="edge">
<title>&#45;5&#45;&gt;241</title>
<path fill="none" stroke="green" stroke-width="0.56" d="M171.2,-239.48C174.01,-232.45 178.26,-221.77 182.41,-211.37"/>
<polygon fill="green" stroke="green" stroke-width="0.56" points="185.69,-212.6 186.14,-202.01 179.18,-210 185.69,-212.6"/>
</g>
<!-- &#45;6 -->
<g id="node6" class="node">
<title>&#45;6</title>
<polygon fill="lightgray" stroke="black" points="302,-102.28 276,-102.28 276,-84.28 302,-84.28 302,-102.28"/>
<text text-anchor="middle" x="289" y="-91.08" font-family="Times,serif" font-size="9.00">&#45;6</text>
</g>
<!-- &#45;6&#45;&gt;0 -->
<g id="edge5" class="edge">
<title>&#45;6&#45;&gt;0</title>
<path fill="none" stroke="green" stroke-width="1.4" d="M289,-84.25C289,-74.49 289,-57.54 289,-43.13"/>
<polygon fill="green" stroke="green" stroke-width="1.4" points="292.5,-42.77 289,-32.77 285.5,-42.77 292.5,-42.77"/>
</g>
<!-- &#45;7 -->
<g id="node7" class="node">
<title>&#45;7</title>
<polygon fill="lightgray" stroke="black" points="346,-102.28 320,-102.28 320,-84.28 346,-84.28 346,-102.28"/>
<text text-anchor="middle" x="333" y="-91.08" font-family="Times,serif" font-size="9.00">&#45;7</text>
</g>
<!-- &#45;7&#45;&gt;0 -->
<g id="edge6" class="edge">
<title>&#45;7&#45;&gt;0</title>
<path fill="none" stroke="green" stroke-width="1.05" stroke-dasharray="1,5" d="M328.29,-84.25C322.09,-73.67 310.92,-54.64 302.08,-39.56"/>
<polygon fill="green" stroke="green" stroke-width="1.05" points="305.01,-37.64 296.93,-30.79 298.97,-41.18 305.01,-37.64"/>
</g>
<!-- &#45;8 -->
<g id="node8" class="node">
<title>&#45;8</title>
<polygon fill="lightgray" stroke="black" points="269,-257.52 243,-257.52 243,-239.52 269,-239.52 269,-257.52"/>
<text text-anchor="middle" x="256" y="-246.32" font-family="Times,serif" font-size="9.00">&#45;8</text>
</g>
<!-- &#45;9 -->
<g id="node9" class="node">
<title>&#45;9</title>
<polygon fill="lightgray" stroke="black" points="390,-102.28 364,-102.28 364,-84.28 390,-84.28 390,-102.28"/>
<text text-anchor="middle" x="377" y="-91.08" font-family="Times,serif" font-size="9.00">&#45;9</text>
</g>
<!-- &#45;9&#45;&gt;0 -->
<g id="edge7" class="edge">
<title>&#45;9&#45;&gt;0</title>
<path fill="none" stroke="red" stroke-width="0.53" d="M369.98,-84.05C365.8,-79.33 360.3,-73.39 355,-68.53 340.7,-55.42 323.33,-42.02 310,-32.21"/>
<polygon fill="red" stroke="red" stroke-width="0.53" points="312.05,-29.37 301.9,-26.32 307.93,-35.03 312.05,-29.37"/>
</g>
<!-- &#45;10 -->
<g id="node10" class="node">
<title>&#45;10</title>
<polygon fill="lightgray" stroke="black" points="440,-102.28 408,-102.28 408,-84.28 440,-84.28 440,-102.28"/>
<text text-anchor="middle" x="424" y="-91.08" font-family="Times,serif" font-size="9.00">&#45;10</text>
</g>
<!-- &#45;10&#45;&gt;0 -->
<g id="edge8" class="edge">
<title>&#45;10&#45;&gt;0</title>
<path fill="none" stroke="red" stroke-width="0.1" d="M416.68,-84.09C411.97,-79.15 405.53,-72.98 399,-68.53 371.7,-49.93 336.57,-34.88 313.45,-26.01"/>
<polygon fill="red" stroke="red" stroke-width="0.1" points="314.63,-22.72 304.04,-22.49 312.18,-29.27 314.63,-22.72"/>
</g>
<!-- &#45;11 -->
<g id="node11" class="node">
<title>&#45;11</title>
<polygon fill="lightgray" stroke="black" points="490,-102.28 458,-102.28 458,-84.28 490,-84.28 490,-102.28"/>
<text text-anchor="middle" x="474" y="-91.08" font-family="Times,serif" font-size="9.00">&#45;11</text>
</g>
<!-- &#45;11&#45;&gt;0 -->
<g id="edge9" class="edge">
<title>&#45;11&#45;&gt;0</title>
<path fill="none" stroke="red" stroke-width="0.8" stroke-dasharray="1,5" d="M467.29,-84.25C462.62,-79.12 456,-72.68 449,-68.53 405.71,-42.88 348.11,-28.52 315.15,-21.88"/>
<polygon fill="red" stroke="red" stroke-width="0.8" points="315.45,-18.37 304.97,-19.92 314.12,-25.25 315.45,-18.37"/>
</g>
<!-- &#45;12 -->
<g id="node12" class="node">
<title>&#45;12</title>
<polygon fill="lightgray" stroke="black" points="540,-102.28 508,-102.28 508,-84.28 540,-84.28 540,-102.28"/>
<text text-anchor="middle" x="524" y="-91.08" font-family="Times,serif" font-size="9.00">&#45;12</text>
</g>
<!-- &#45;12&#45;&gt;0 -->
<g id="edge10" class="edge">
<title>&#45;12&#45;&gt;0</title>
<path fill="none" stroke="green" stroke-width="0.64" stroke-dasharray="1,5" d="M517.38,-84.08C512.76,-78.89 506.15,-72.43 499,-68.53 438.52,-35.52 356.78,-23.49 315.38,-19.32"/>
<polygon fill="green" stroke="green" stroke-width="0.64" points="315.57,-15.83 305.29,-18.39 314.93,-22.8 315.57,-15.83"/>
</g>
<!-- &#45;13 -->
<g id="node13" class="node">
<title>&#45;13</title>
<polygon fill="lightgray" stroke="black" points="590,-102.28 558,-102.28 558,-84.28 590,-84.28 590,-102.28"/>
<text text-anchor="middle" x="574" y="-91.08" font-family="Times,serif" font-size="9.00">&#45;13</text>
</g>
<!-- &#45;13&#45;&gt;0 -->
<g id="edge11" class="edge">
<title>&#45;13&#45;&gt;0</title>
<path fill="none" stroke="green" stroke-width="2.34" d="M567.44,-83.98C562.84,-78.74 556.23,-72.27 549,-68.53 470.73,-28.06 364.06,-19.45 315.28,-17.68"/>
<polygon fill="green" stroke="green" stroke-width="2.34" points="315.34,-14.18 305.25,-17.38 315.14,-21.18 315.34,-14.18"/>
</g>
<!-- &#45;14 -->
<g id="node14" class="node">
<title>&#45;14</title>
<polygon fill="lightgray" stroke="black" points="319,-257.52 287,-257.52 287,-239.52 319,-239.52 319,-257.52"/>
<text text-anchor="middle" x="303" y="-246.32" font-family="Times,serif" font-size="9.00">&#45;14</text>
</g>
<!-- 241&#45;&gt;0 -->
<g id="edge13" class="edge">
<title>241&#45;&gt;0</title>
<path fill="none" stroke="red" stroke-width="0.76" stroke-dasharray="1,5" d="M189.63,-154.16C185.63,-130.68 183.26,-94.5 199,-68.53 213.18,-45.13 242.28,-31.44 263.57,-24.18"/>
<polygon fill="red" stroke="red" stroke-width="0.76" points="264.8,-27.46 273.29,-21.12 262.7,-20.79 264.8,-27.46"/>
</g>
<!-- 402 -->
<g id="node17" class="node">
<title>402</title>
<ellipse fill="white" stroke="black" cx="233" cy="-93.28" rx="25" ry="25"/>
<text text-anchor="middle" x="233" y="-91.08" font-family="Times,serif" font-size="9.00">402</text>
</g>
<!-- 241&#45;&gt;402 -->
<g id="edge14" class="edge">
<title>241&#45;&gt;402</title>
<path fill="none" stroke="green" stroke-width="0.19" d="M204.98,-155.84C209.22,-146.53 214.23,-135.53 218.83,-125.41"/>
<polygon fill="green" stroke="green" stroke-width="0.19" points="222.13,-126.62 223.08,-116.07 215.75,-123.72 222.13,-126.62"/>
</g>
<!-- 402&#45;&gt;0 -->
<g id="edge15" class="edge">
<title>402&#45;&gt;0</title>
<path fill="none" stroke="red" stroke-width="0.35" d="M247.42,-72.96C255.4,-62.27 265.32,-48.98 273.47,-38.07"/>
<polygon fill="red" stroke="red" stroke-width="0.35" points="276.37,-40.03 279.55,-29.92 270.76,-35.84 276.37,-40.03"/>
</g>
</g>
</svg>
