<?xml version="1.0" encoding="UTF-8" standalone="no"?>
<!DOCTYPE svg PUBLIC "-//W3C//DTD SVG 1.1//EN"
 "http://www.w3.org/Graphics/SVG/1.1/DTD/svg11.dtd">
<!-- Generated by graphviz version 2.43.0 (0)
 -->
<!-- Title: %3 Pages: 1 -->
<svg width="456pt" height="180pt"
 viewBox="0.00 0.00 456.00 180.02" xmlns="http://www.w3.org/2000/svg" xmlns:xlink="http://www.w3.org/1999/xlink">
<g id="graph0" class="graph" transform="scale(1 1) rotate(0) translate(4 176.02)">
<title>%3</title>
<polygon fill="white" stroke="transparent" points="-4,4 -4,-176.02 452,-176.02 452,4 -4,4"/>
<!-- &#45;1 -->
<g id="node1" class="node">
<title>&#45;1</title>
<polygon fill="lightgray" stroke="black" points="26,-102.28 0,-102.28 0,-84.28 26,-84.28 26,-102.28"/>
<text text-anchor="middle" x="13" y="-91.08" font-family="Times,serif" font-size="9.00">&#45;1</text>
</g>
<!-- 0 -->
<g id="node11" class="node">
<title>0</title>
<ellipse fill="lightblue" stroke="black" cx="211" cy="-16.26" rx="16.03" ry="16.03"/>
<text text-anchor="middle" x="211" y="-14.06" font-family="Times,serif" font-size="9.00">0</text>
</g>
<!-- &#45;1&#45;&gt;0 -->
<g id="edge1" class="edge">
<title>&#45;1&#45;&gt;0</title>
<path fill="none" stroke="red" stroke-width="0.12" d="M18.68,-84.16C22.7,-79 28.5,-72.55 35,-68.53 82.84,-38.96 148.5,-25.79 184.58,-20.46"/>
<polygon fill="red" stroke="red" stroke-width="0.12" points="185.35,-23.89 194.78,-19.05 184.39,-16.95 185.35,-23.89"/>
</g>
<!-- &#45;2 -->
<g id="node2" class="node">
<title>&#45;2</title>
<polygon fill="lightgray" stroke="black" points="70,-102.28 44,-102.28 44,-84.28 70,-84.28 70,-102.28"/>
<text text-anchor="middle" x="57" y="-91.08" font-family="Times,serif" font-size="9.00">&#45;2</text>
</g>
<!-- &#45;2&#45;&gt;0 -->
<g id="edge2" class="edge">
<title>&#45;2&#45;&gt;0</title>
<path fill="none" stroke="red" stroke-width="0.59" d="M63.17,-83.89C67.21,-78.88 72.86,-72.7 79,-68.53 112.53,-45.73 157.65,-31.03 185.5,-23.46"/>
<polygon fill="red" stroke="red" stroke-width="0.59" points="186.48,-26.82 195.27,-20.9 184.71,-20.05 186.48,-26.82"/>
</g>
<!-- &#45;3 -->
<g id="node3" class="node">
<title>&#45;3</title>
<polygon fill="lightgray" stroke="black" points="114,-102.28 88,-102.28 88,-84.28 114,-84.28 114,-102.28"/>
<text text-anchor="middle" x="101" y="-91.08" font-family="Times,serif" font-size="9.00">&#45;3</text>
</g>
<!-- &#45;3&#45;&gt;0 -->
<g id="edge3" class="edge">
<title>&#45;3&#45;&gt;0</title>
<path fill="none" stroke="red" stroke-width="0.72" d="M107.41,-84.22C111.54,-79.34 117.21,-73.17 123,-68.53 143.12,-52.41 168.86,-38.02 187.3,-28.62"/>
<polygon fill="red" stroke="red" stroke-width="0.72" points="189.07,-31.65 196.46,-24.06 185.95,-25.39 189.07,-31.65"/>
</g>
<!-- &#45;4 -->
<g id="node4" class="node">
<title>&#45;4</title>
<polygon fill="lightgray" stroke="black" points="448,-172.02 422,-172.02 422,-154.02 448,-154.02 448,-172.02"/>
<text text-anchor="middle" x="435" y="-160.82" font-family="Times,serif" font-size="9.00">&#45;4</text>
</g>
<!-- &#45;5 -->
<g id="node5" class="node">
<title>&#45;5</title>
<polygon fill="lightgray" stroke="black" points="158,-102.28 132,-102.28 132,-84.28 158,-84.28 158,-102.28"/>
<text text-anchor="middle" x="145" y="-91.08" font-family="Times,serif" font-size="9.00">&#45;5</text>
</g>
<!-- &#45;5&#45;&gt;0 -->
<g id="edge4" class="edge">
<title>&#45;5&#45;&gt;0</title>
<path fill="none" stroke="green" stroke-width="1.82" d="M152.06,-84.25C162.03,-72.92 180.53,-51.9 194.15,-36.41"/>
<polygon fill="green" stroke="green" stroke-width="1.82" points="196.78,-38.72 200.76,-28.9 191.53,-34.1 196.78,-38.72"/>
</g>
<!-- &#45;6 -->
<g id="node6" class="node">
<title>&#45;6</title>
<polygon fill="lightgray" stroke="black" points="202,-102.28 176,-102.28 176,-84.28 202,-84.28 202,-102.28"/>
<text text-anchor="middle" x="189" y="-91.08" font-family="Times,serif" font-size="9.00">&#45;6</text>
</g>
<!-- &#45;6&#45;&gt;0 -->
<g id="edge5" class="edge">
<title>&#45;6&#45;&gt;0</title>
<path fill="none" stroke="red" stroke-width="1.02" d="M191.35,-84.25C194.28,-74.27 199.41,-56.78 203.69,-42.17"/>
<polygon fill="red" stroke="red" stroke-width="1.02" points="207.16,-42.78 206.62,-32.2 200.45,-40.81 207.16,-42.78"/>
</g>
<!-- &#45;7 -->
<g id="node7" class="node">
<title>&#45;7</title>
<polygon fill="lightgray" stroke="black" points="246,-102.28 220,-102.28 220,-84.28 246,-84.28 246,-102.28"/>
<text text-anchor="middle" x="233" y="-91.08" font-family="Times,serif" font-size="9.00">&#45;7</text>
</g>
<!-- &#45;7&#45;&gt;0 -->
<g id="edge6" class="edge">
<title>&#45;7&#45;&gt;0</title>
<path fill="none" stroke="red" stroke-width="0.51" d="M230.65,-84.25C227.72,-74.27 222.59,-56.78 218.31,-42.17"/>
<polygon fill="red" stroke="red" stroke-width="0.51" points="221.55,-40.81 215.38,-32.2 214.84,-42.78 221.55,-40.81"/>
</g>
<!-- &#45;8 -->
<g id="node8" class="node">
<title>&#45;8</title>
<polygon fill="lightgray" stroke="black" points="290,-102.28 264,-102.28 264,-84.28 290,-84.28 290,-102.28"/>
<text text-anchor="middle" x="277" y="-91.08" font-family="Times,serif" font-size="9.00">&#45;8</text>
</g>
<!-- &#45;8&#45;&gt;0 -->
<g id="edge7" class="edge">
<title>&#45;8&#45;&gt;0</title>
<path fill="none" stroke="green" stroke-width="1.88" stroke-dasharray="1,5" d="M269.94,-84.25C259.97,-72.92 241.47,-51.9 227.85,-36.41"/>
<polygon fill="green" stroke="green" stroke-width="1.88" points="230.47,-34.1 221.24,-28.9 225.22,-38.72 230.47,-34.1"/>
</g>
<!-- &#45;9 -->
<g id="node9" class="node">
<title>&#45;9</title>
<polygon fill="lightgray" stroke="black" points="334,-102.28 308,-102.28 308,-84.28 334,-84.28 334,-102.28"/>
<text text-anchor="middle" x="321" y="-91.08" font-family="Times,serif" font-size="9.00">&#45;9</text>
</g>
<!-- &#45;9&#45;&gt;0 -->
<g id="edge8" class="edge">
<title>&#45;9&#45;&gt;0</title>
<path fill="none" stroke="green" stroke-width="1.22" d="M314.59,-84.22C310.46,-79.34 304.79,-73.17 299,-68.53 278.88,-52.41 253.14,-38.02 234.7,-28.62"/>
<polygon fill="green" stroke="green" stroke-width="1.22" points="236.05,-25.39 225.54,-24.06 232.93,-31.65 236.05,-25.39"/>
</g>
<!-- &#45;10 -->
<g id="node10" class="node">
<title>&#45;10</title>
<polygon fill="lightgray" stroke="black" points="404,-172.02 372,-172.02 372,-154.02 404,-154.02 404,-172.02"/>
<text text-anchor="middle" x="388" y="-160.82" font-family="Times,serif" font-size="9.00">&#45;10</text>
</g>
<!-- &#45;10&#45;&gt;0 -->
<g id="edge9" class="edge">
<title>&#45;10&#45;&gt;0</title>
<path fill="none" stroke="green" stroke-width="0.49" stroke-dasharray="1,5" d="M386.22,-153.8C381.91,-135.86 369.32,-92.87 343,-68.53 312.94,-40.73 266.12,-27.4 237.08,-21.48"/>
<polygon fill="green" stroke="green" stroke-width="0.49" points="237.72,-18.04 227.24,-19.63 236.42,-24.92 237.72,-18.04"/>
</g>
<!-- 353 -->
<g id="node12" class="node">
<title>353</title>
<ellipse fill="white" stroke="black" cx="415" cy="-93.28" rx="25" ry="25"/>
<text text-anchor="middle" x="415" y="-91.08" font-family="Times,serif" font-size="9.00">353</text>
</g>
<!-- &#45;10&#45;&gt;353 -->
<g id="edge10" class="edge">
<title>&#45;10&#45;&gt;353</title>
<path fill="none" stroke="red" stroke-width="0.31" d="M391.2,-153.99C394.01,-146.96 398.26,-136.27 402.41,-125.87"/>
<polygon fill="red" stroke="red" stroke-width="0.31" points="405.69,-127.1 406.14,-116.51 399.18,-124.51 405.69,-127.1"/>
</g>
<!-- 353&#45;&gt;0 -->
<g id="edge11" class="edge">
<title>353&#45;&gt;0</title>
<path fill="none" stroke="red" stroke-width="0.12" d="M394.87,-78.73C388.95,-75.1 382.36,-71.4 376,-68.53 328.63,-47.14 269.81,-31.22 236.73,-23.17"/>
<polygon fill="red" stroke="red" stroke-width="0.12" points="237.48,-19.75 226.94,-20.83 235.85,-26.56 237.48,-19.75"/>
</g>
</g>
</svg>
