<?xml version="1.0" encoding="UTF-8" standalone="no"?>
<!DOCTYPE svg PUBLIC "-//W3C//DTD SVG 1.1//EN"
 "http://www.w3.org/Graphics/SVG/1.1/DTD/svg11.dtd">
<!-- Generated by graphviz version 2.43.0 (0)
 -->
<!-- Title: %3 Pages: 1 -->
<svg width="445pt" height="180pt"
 viewBox="0.00 0.00 445.00 180.02" xmlns="http://www.w3.org/2000/svg" xmlns:xlink="http://www.w3.org/1999/xlink">
<g id="graph0" class="graph" transform="scale(1 1) rotate(0) translate(4 176.02)">
<title>%3</title>
<polygon fill="white" stroke="transparent" points="-4,4 -4,-176.02 441,-176.02 441,4 -4,4"/>
<!-- &#45;1 -->
<g id="node1" class="node">
<title>&#45;1</title>
<polygon fill="lightgray" stroke="black" points="26,-102.28 0,-102.28 0,-84.28 26,-84.28 26,-102.28"/>
<text text-anchor="middle" x="13" y="-91.08" font-family="Times,serif" font-size="9.00">&#45;1</text>
</g>
<!-- 0 -->
<g id="node11" class="node">
<title>0</title>
<ellipse fill="lightblue" stroke="black" cx="101" cy="-16.26" rx="16.03" ry="16.03"/>
<text text-anchor="middle" x="101" y="-14.06" font-family="Times,serif" font-size="9.00">0</text>
</g>
<!-- &#45;1&#45;&gt;0 -->
<g id="edge1" class="edge">
<title>&#45;1&#45;&gt;0</title>
<path fill="none" stroke="red" stroke-width="0.56" d="M20.02,-84.05C24.2,-79.33 29.7,-73.39 35,-68.53 49.3,-55.42 66.67,-42.02 80,-32.21"/>
<polygon fill="red" stroke="red" stroke-width="0.56" points="82.07,-35.03 88.1,-26.32 77.95,-29.37 82.07,-35.03"/>
</g>
<!-- &#45;2 -->
<g id="node2" class="node">
<title>&#45;2</title>
<polygon fill="lightgray" stroke="black" points="70,-102.28 44,-102.28 44,-84.28 70,-84.28 70,-102.28"/>
<text text-anchor="middle" x="57" y="-91.08" font-family="Times,serif" font-size="9.00">&#45;2</text>
</g>
<!-- &#45;2&#45;&gt;0 -->
<g id="edge4" class="edge">
<title>&#45;2&#45;&gt;0</title>
<path fill="none" stroke="green" stroke-width="1.11" stroke-dasharray="1,5" d="M61.71,-84.25C67.91,-73.67 79.08,-54.64 87.92,-39.56"/>
<polygon fill="green" stroke="green" stroke-width="1.11" points="91.03,-41.18 93.07,-30.79 84.99,-37.64 91.03,-41.18"/>
</g>
<!-- &#45;3 -->
<g id="node3" class="node">
<title>&#45;3</title>
<polygon fill="lightgray" stroke="black" points="261,-172.02 235,-172.02 235,-154.02 261,-154.02 261,-172.02"/>
<text text-anchor="middle" x="248" y="-160.82" font-family="Times,serif" font-size="9.00">&#45;3</text>
</g>
<!-- &#45;4 -->
<g id="node4" class="node">
<title>&#45;4</title>
<polygon fill="lightgray" stroke="black" points="305,-172.02 279,-172.02 279,-154.02 305,-154.02 305,-172.02"/>
<text text-anchor="middle" x="292" y="-160.82" font-family="Times,serif" font-size="9.00">&#45;4</text>
</g>
<!-- &#45;5 -->
<g id="node5" class="node">
<title>&#45;5</title>
<polygon fill="lightgray" stroke="black" points="114,-102.28 88,-102.28 88,-84.28 114,-84.28 114,-102.28"/>
<text text-anchor="middle" x="101" y="-91.08" font-family="Times,serif" font-size="9.00">&#45;5</text>
</g>
<!-- &#45;5&#45;&gt;0 -->
<g id="edge2" class="edge">
<title>&#45;5&#45;&gt;0</title>
<path fill="none" stroke="green" stroke-width="2.6" d="M101,-84.25C101,-74.49 101,-57.54 101,-43.13"/>
<polygon fill="green" stroke="green" stroke-width="2.6" points="104.5,-42.77 101,-32.77 97.5,-42.77 104.5,-42.77"/>
</g>
<!-- &#45;6 -->
<g id="node6" class="node">
<title>&#45;6</title>
<polygon fill="lightgray" stroke="black" points="349,-172.02 323,-172.02 323,-154.02 349,-154.02 349,-172.02"/>
<text text-anchor="middle" x="336" y="-160.82" font-family="Times,serif" font-size="9.00">&#45;6</text>
</g>
<!-- &#45;7 -->
<g id="node7" class="node">
<title>&#45;7</title>
<polygon fill="lightgray" stroke="black" points="393,-172.02 367,-172.02 367,-154.02 393,-154.02 393,-172.02"/>
<text text-anchor="middle" x="380" y="-160.82" font-family="Times,serif" font-size="9.00">&#45;7</text>
</g>
<!-- &#45;8 -->
<g id="node8" class="node">
<title>&#45;8</title>
<polygon fill="lightgray" stroke="black" points="158,-102.28 132,-102.28 132,-84.28 158,-84.28 158,-102.28"/>
<text text-anchor="middle" x="145" y="-91.08" font-family="Times,serif" font-size="9.00">&#45;8</text>
</g>
<!-- &#45;8&#45;&gt;0 -->
<g id="edge3" class="edge">
<title>&#45;8&#45;&gt;0</title>
<path fill="none" stroke="green" stroke-width="0.64" stroke-dasharray="1,5" d="M140.29,-84.25C134.09,-73.67 122.92,-54.64 114.08,-39.56"/>
<polygon fill="green" stroke="green" stroke-width="0.64" points="117.01,-37.64 108.93,-30.79 110.97,-41.18 117.01,-37.64"/>
</g>
<!-- &#45;9 -->
<g id="node9" class="node">
<title>&#45;9</title>
<polygon fill="lightgray" stroke="black" points="437,-172.02 411,-172.02 411,-154.02 437,-154.02 437,-172.02"/>
<text text-anchor="middle" x="424" y="-160.82" font-family="Times,serif" font-size="9.00">&#45;9</text>
</g>
<!-- &#45;10 -->
<g id="node10" class="node">
<title>&#45;10</title>
<polygon fill="lightgray" stroke="black" points="217,-172.02 185,-172.02 185,-154.02 217,-154.02 217,-172.02"/>
<text text-anchor="middle" x="201" y="-160.82" font-family="Times,serif" font-size="9.00">&#45;10</text>
</g>
<!-- 225 -->
<g id="node12" class="node">
<title>225</title>
<ellipse fill="white" stroke="black" cx="201" cy="-93.28" rx="25" ry="25"/>
<text text-anchor="middle" x="201" y="-91.08" font-family="Times,serif" font-size="9.00">225</text>
</g>
<!-- &#45;10&#45;&gt;225 -->
<g id="edge5" class="edge">
<title>&#45;10&#45;&gt;225</title>
<path fill="none" stroke="green" stroke-width="0.67" d="M201,-153.99C201,-147.55 201,-138.05 201,-128.52"/>
<polygon fill="green" stroke="green" stroke-width="0.67" points="204.5,-128.3 201,-118.3 197.5,-128.3 204.5,-128.3"/>
</g>
<!-- 225&#45;&gt;0 -->
<g id="edge6" class="edge">
<title>225&#45;&gt;0</title>
<path fill="none" stroke="green" stroke-width="0.62" d="M181.24,-77.46C164.18,-64.66 139.59,-46.21 122.14,-33.12"/>
<polygon fill="green" stroke="green" stroke-width="0.62" points="123.84,-30.02 113.74,-26.82 119.64,-35.62 123.84,-30.02"/>
</g>
</g>
</svg>
