<?xml version="1.0" encoding="UTF-8" standalone="no"?>
<!DOCTYPE svg PUBLIC "-//W3C//DTD SVG 1.1//EN"
 "http://www.w3.org/Graphics/SVG/1.1/DTD/svg11.dtd">
<!-- Generated by graphviz version 2.43.0 (0)
 -->
<!-- Title: %3 Pages: 1 -->
<svg width="220pt" height="172pt"
 viewBox="0.00 0.00 220.00 171.54" xmlns="http://www.w3.org/2000/svg" xmlns:xlink="http://www.w3.org/1999/xlink">
<g id="graph0" class="graph" transform="scale(1 1) rotate(0) translate(4 167.54)">
<title>%3</title>
<polygon fill="white" stroke="transparent" points="-4,4 -4,-167.54 216,-167.54 216,4 -4,4"/>
<!-- &#45;1 -->
<g id="node1" class="node">
<title>&#45;1</title>
<polygon fill="lightgray" stroke="black" points="26,-98.03 0,-98.03 0,-80.03 26,-80.03 26,-98.03"/>
<text text-anchor="middle" x="13" y="-86.83" font-family="Times,serif" font-size="9.00">&#45;1</text>
</g>
<!-- 0 -->
<g id="node7" class="node">
<title>0</title>
<ellipse fill="lightblue" stroke="black" cx="103" cy="-16.26" rx="16.03" ry="16.03"/>
<text text-anchor="middle" x="103" y="-14.06" font-family="Times,serif" font-size="9.00">0</text>
</g>
<!-- &#45;1&#45;&gt;0 -->
<g id="edge1" class="edge">
<title>&#45;1&#45;&gt;0</title>
<path fill="none" stroke="green" stroke-width="1.01" d="M23.32,-79.91C37.67,-68.63 63.96,-47.96 82.4,-33.46"/>
<polygon fill="green" stroke="green" stroke-width="1.01" points="84.8,-36.03 90.5,-27.09 80.47,-30.52 84.8,-36.03"/>
</g>
<!-- &#45;2 -->
<g id="node2" class="node">
<title>&#45;2</title>
<polygon fill="lightgray" stroke="black" points="116,-163.54 90,-163.54 90,-145.54 116,-145.54 116,-163.54"/>
<text text-anchor="middle" x="103" y="-152.34" font-family="Times,serif" font-size="9.00">&#45;2</text>
</g>
<!-- 92 -->
<g id="node8" class="node">
<title>92</title>
<ellipse fill="white" stroke="black" cx="103" cy="-89.03" rx="20.51" ry="20.51"/>
<text text-anchor="middle" x="103" y="-86.83" font-family="Times,serif" font-size="9.00">92</text>
</g>
<!-- &#45;2&#45;&gt;92 -->
<g id="edge7" class="edge">
<title>&#45;2&#45;&gt;92</title>
<path fill="none" stroke="green" stroke-width="0.45" d="M103,-145.5C103,-138.93 103,-129.21 103,-119.74"/>
<polygon fill="green" stroke="green" stroke-width="0.45" points="106.5,-119.72 103,-109.72 99.5,-119.72 106.5,-119.72"/>
</g>
<!-- &#45;3 -->
<g id="node3" class="node">
<title>&#45;3</title>
<polygon fill="lightgray" stroke="black" points="70,-163.54 44,-163.54 44,-145.54 70,-145.54 70,-163.54"/>
<text text-anchor="middle" x="57" y="-152.34" font-family="Times,serif" font-size="9.00">&#45;3</text>
</g>
<!-- &#45;3&#45;&gt;0 -->
<g id="edge2" class="edge">
<title>&#45;3&#45;&gt;0</title>
<path fill="none" stroke="green" stroke-width="0.54" stroke-dasharray="1,5" d="M57.61,-145.32C58.95,-129.85 62.9,-95.54 73,-68.53 76.86,-58.2 82.72,-47.57 88.25,-38.67"/>
<polygon fill="green" stroke="green" stroke-width="0.54" points="91.29,-40.42 93.78,-30.13 85.41,-36.62 91.29,-40.42"/>
</g>
<!-- &#45;3&#45;&gt;92 -->
<g id="edge5" class="edge">
<title>&#45;3&#45;&gt;92</title>
<path fill="none" stroke="green" stroke-width="0.43" d="M62.83,-145.5C68.53,-137.62 77.5,-125.23 85.52,-114.16"/>
<polygon fill="green" stroke="green" stroke-width="0.43" points="88.37,-116.19 91.4,-106.04 82.7,-112.09 88.37,-116.19"/>
</g>
<!-- &#45;4 -->
<g id="node4" class="node">
<title>&#45;4</title>
<polygon fill="lightgray" stroke="black" points="168,-98.03 142,-98.03 142,-80.03 168,-80.03 168,-98.03"/>
<text text-anchor="middle" x="155" y="-86.83" font-family="Times,serif" font-size="9.00">&#45;4</text>
</g>
<!-- &#45;4&#45;&gt;0 -->
<g id="edge3" class="edge">
<title>&#45;4&#45;&gt;0</title>
<path fill="none" stroke="red" stroke-width="0.78" d="M149.03,-79.91C141.57,-69.75 128.51,-51.98 118.2,-37.95"/>
<polygon fill="red" stroke="red" stroke-width="0.78" points="120.95,-35.79 112.21,-29.8 115.31,-39.93 120.95,-35.79"/>
</g>
<!-- &#45;5 -->
<g id="node5" class="node">
<title>&#45;5</title>
<polygon fill="lightgray" stroke="black" points="160,-163.54 134,-163.54 134,-145.54 160,-145.54 160,-163.54"/>
<text text-anchor="middle" x="147" y="-152.34" font-family="Times,serif" font-size="9.00">&#45;5</text>
</g>
<!-- &#45;6 -->
<g id="node6" class="node">
<title>&#45;6</title>
<polygon fill="lightgray" stroke="black" points="212,-98.03 186,-98.03 186,-80.03 212,-80.03 212,-98.03"/>
<text text-anchor="middle" x="199" y="-86.83" font-family="Times,serif" font-size="9.00">&#45;6</text>
</g>
<!-- &#45;6&#45;&gt;0 -->
<g id="edge4" class="edge">
<title>&#45;6&#45;&gt;0</title>
<path fill="none" stroke="red" stroke-width="1" d="M190.22,-79.81C186.27,-76.23 181.5,-72.06 177,-68.53 160.1,-55.26 140.01,-41.46 125.03,-31.52"/>
<polygon fill="red" stroke="red" stroke-width="1" points="126.72,-28.44 116.44,-25.88 122.88,-34.29 126.72,-28.44"/>
</g>
<!-- 92&#45;&gt;0 -->
<g id="edge6" class="edge">
<title>92&#45;&gt;0</title>
<path fill="none" stroke="green" stroke-width="0.52" d="M103,-68.32C103,-60.38 103,-51.13 103,-42.69"/>
<polygon fill="green" stroke="green" stroke-width="0.52" points="106.5,-42.61 103,-32.61 99.5,-42.61 106.5,-42.61"/>
</g>
</g>
</svg>
