<?xml version="1.0" encoding="UTF-8" standalone="no"?>
<!DOCTYPE svg PUBLIC "-//W3C//DTD SVG 1.1//EN"
 "http://www.w3.org/Graphics/SVG/1.1/DTD/svg11.dtd">
<!-- Generated by graphviz version 2.43.0 (0)
 -->
<!-- Title: %3 Pages: 1 -->
<svg width="436pt" height="95pt"
 viewBox="0.00 0.00 436.00 94.53" xmlns="http://www.w3.org/2000/svg" xmlns:xlink="http://www.w3.org/1999/xlink">
<g id="graph0" class="graph" transform="scale(1 1) rotate(0) translate(4 90.53)">
<title>%3</title>
<polygon fill="white" stroke="transparent" points="-4,4 -4,-90.53 432,-90.53 432,4 -4,4"/>
<!-- &#45;1 -->
<g id="node1" class="node">
<title>&#45;1</title>
<polygon fill="lightgray" stroke="black" points="26,-86.53 0,-86.53 0,-68.53 26,-68.53 26,-86.53"/>
<text text-anchor="middle" x="13" y="-75.33" font-family="Times,serif" font-size="9.00">&#45;1</text>
</g>
<!-- 0 -->
<g id="node11" class="node">
<title>0</title>
<ellipse fill="lightblue" stroke="black" cx="189" cy="-16.26" rx="16.03" ry="16.03"/>
<text text-anchor="middle" x="189" y="-14.06" font-family="Times,serif" font-size="9.00">0</text>
</g>
<!-- &#45;1&#45;&gt;0 -->
<g id="edge1" class="edge">
<title>&#45;1&#45;&gt;0</title>
<path fill="none" stroke="red" stroke-width="0.74" d="M26.01,-71.73C28.96,-70.66 32.08,-69.54 35,-68.53 80.23,-52.78 133.28,-35.35 163.83,-25.41"/>
<polygon fill="red" stroke="red" stroke-width="0.74" points="165.22,-28.64 173.65,-22.22 163.06,-21.98 165.22,-28.64"/>
</g>
<!-- &#45;2 -->
<g id="node2" class="node">
<title>&#45;2</title>
<polygon fill="lightgray" stroke="black" points="70,-86.53 44,-86.53 44,-68.53 70,-68.53 70,-86.53"/>
<text text-anchor="middle" x="57" y="-75.33" font-family="Times,serif" font-size="9.00">&#45;2</text>
</g>
<!-- &#45;2&#45;&gt;0 -->
<g id="edge2" class="edge">
<title>&#45;2&#45;&gt;0</title>
<path fill="none" stroke="red" stroke-width="0.14" d="M70.14,-70.63C92.21,-60.72 137.04,-40.59 164.89,-28.09"/>
<polygon fill="red" stroke="red" stroke-width="0.14" points="166.62,-31.15 174.31,-23.86 163.76,-24.76 166.62,-31.15"/>
</g>
<!-- &#45;3 -->
<g id="node3" class="node">
<title>&#45;3</title>
<polygon fill="lightgray" stroke="black" points="114,-86.53 88,-86.53 88,-68.53 114,-68.53 114,-86.53"/>
<text text-anchor="middle" x="101" y="-75.33" font-family="Times,serif" font-size="9.00">&#45;3</text>
</g>
<!-- &#45;3&#45;&gt;0 -->
<g id="edge3" class="edge">
<title>&#45;3&#45;&gt;0</title>
<path fill="none" stroke="red" stroke-width="0.25" d="M113.24,-68.29C127.1,-58.95 149.98,-43.54 166.98,-32.09"/>
<polygon fill="red" stroke="red" stroke-width="0.25" points="169.38,-34.7 175.72,-26.21 165.47,-28.89 169.38,-34.7"/>
</g>
<!-- &#45;4 -->
<g id="node4" class="node">
<title>&#45;4</title>
<polygon fill="lightgray" stroke="black" points="158,-86.53 132,-86.53 132,-68.53 158,-68.53 158,-86.53"/>
<text text-anchor="middle" x="145" y="-75.33" font-family="Times,serif" font-size="9.00">&#45;4</text>
</g>
<!-- &#45;4&#45;&gt;0 -->
<g id="edge4" class="edge">
<title>&#45;4&#45;&gt;0</title>
<path fill="none" stroke="green" stroke-width="0.42" d="M151.12,-68.29C156.87,-60.53 165.73,-48.6 173.44,-38.22"/>
<polygon fill="green" stroke="green" stroke-width="0.42" points="176.4,-40.11 179.55,-30 170.78,-35.94 176.4,-40.11"/>
</g>
<!-- &#45;5 -->
<g id="node5" class="node">
<title>&#45;5</title>
<polygon fill="lightgray" stroke="black" points="202,-86.53 176,-86.53 176,-68.53 202,-68.53 202,-86.53"/>
<text text-anchor="middle" x="189" y="-75.33" font-family="Times,serif" font-size="9.00">&#45;5</text>
</g>
<!-- &#45;5&#45;&gt;0 -->
<g id="edge5" class="edge">
<title>&#45;5&#45;&gt;0</title>
<path fill="none" stroke="green" stroke-width="0.11" d="M189,-68.29C189,-61.7 189,-52.1 189,-43"/>
<polygon fill="green" stroke="green" stroke-width="0.11" points="192.5,-42.76 189,-32.76 185.5,-42.76 192.5,-42.76"/>
</g>
<!-- &#45;6 -->
<g id="node6" class="node">
<title>&#45;6</title>
<polygon fill="lightgray" stroke="black" points="246,-86.53 220,-86.53 220,-68.53 246,-68.53 246,-86.53"/>
<text text-anchor="middle" x="233" y="-75.33" font-family="Times,serif" font-size="9.00">&#45;6</text>
</g>
<!-- &#45;6&#45;&gt;0 -->
<g id="edge6" class="edge">
<title>&#45;6&#45;&gt;0</title>
<path fill="none" stroke="green" stroke-width="0.69" d="M226.88,-68.29C221.13,-60.53 212.27,-48.6 204.56,-38.22"/>
<polygon fill="green" stroke="green" stroke-width="0.69" points="207.22,-35.94 198.45,-30 201.6,-40.11 207.22,-35.94"/>
</g>
<!-- &#45;7 -->
<g id="node7" class="node">
<title>&#45;7</title>
<polygon fill="lightgray" stroke="black" points="428,-86.53 402,-86.53 402,-68.53 428,-68.53 428,-86.53"/>
<text text-anchor="middle" x="415" y="-75.33" font-family="Times,serif" font-size="9.00">&#45;7</text>
</g>
<!-- &#45;8 -->
<g id="node8" class="node">
<title>&#45;8</title>
<polygon fill="lightgray" stroke="black" points="290,-86.53 264,-86.53 264,-68.53 290,-68.53 290,-86.53"/>
<text text-anchor="middle" x="277" y="-75.33" font-family="Times,serif" font-size="9.00">&#45;8</text>
</g>
<!-- &#45;8&#45;&gt;0 -->
<g id="edge7" class="edge">
<title>&#45;8&#45;&gt;0</title>
<path fill="none" stroke="red" stroke-width="0.52" d="M264.76,-68.29C250.9,-58.95 228.02,-43.54 211.02,-32.09"/>
<polygon fill="red" stroke="red" stroke-width="0.52" points="212.53,-28.89 202.28,-26.21 208.62,-34.7 212.53,-28.89"/>
</g>
<!-- &#45;9 -->
<g id="node9" class="node">
<title>&#45;9</title>
<polygon fill="lightgray" stroke="black" points="334,-86.53 308,-86.53 308,-68.53 334,-68.53 334,-86.53"/>
<text text-anchor="middle" x="321" y="-75.33" font-family="Times,serif" font-size="9.00">&#45;9</text>
</g>
<!-- &#45;9&#45;&gt;0 -->
<g id="edge8" class="edge">
<title>&#45;9&#45;&gt;0</title>
<path fill="none" stroke="green" stroke-width="0.19" stroke-dasharray="1,5" d="M307.86,-70.63C285.79,-60.72 240.96,-40.59 213.11,-28.09"/>
<polygon fill="green" stroke="green" stroke-width="0.19" points="214.24,-24.76 203.69,-23.86 211.38,-31.15 214.24,-24.76"/>
</g>
<!-- &#45;10 -->
<g id="node10" class="node">
<title>&#45;10</title>
<polygon fill="lightgray" stroke="black" points="384,-86.53 352,-86.53 352,-68.53 384,-68.53 384,-86.53"/>
<text text-anchor="middle" x="368" y="-75.33" font-family="Times,serif" font-size="9.00">&#45;10</text>
</g>
<!-- &#45;10&#45;&gt;0 -->
<g id="edge9" class="edge">
<title>&#45;10&#45;&gt;0</title>
<path fill="none" stroke="green" stroke-width="1.06" d="M351.8,-71.16C320.41,-60.77 251.14,-37.84 213.87,-25.5"/>
<polygon fill="green" stroke="green" stroke-width="1.06" points="214.87,-22.14 204.27,-22.32 212.66,-28.79 214.87,-22.14"/>
</g>
</g>
</svg>
