<?xml version="1.0" encoding="utf-8" standalone="no"?>
<!DOCTYPE svg PUBLIC "-//W3C//DTD SVG 1.1//EN"
  "http://www.w3.org/Graphics/SVG/1.1/DTD/svg11.dtd">
<svg xmlns:xlink="http://www.w3.org/1999/xlink" width="460.8pt" height="345.6pt" viewBox="0 0 460.8 345.6" xmlns="http://www.w3.org/2000/svg" version="1.1">
 <metadata>
  <rdf:RDF xmlns:dc="http://purl.org/dc/elements/1.1/" xmlns:cc="http://creativecommons.org/ns#" xmlns:rdf="http://www.w3.org/1999/02/22-rdf-syntax-ns#">
   <cc:Work>
    <dc:type rdf:resource="http://purl.org/dc/dcmitype/StillImage"/>
    <dc:date>2024-07-31T15:26:24.360765</dc:date>
    <dc:format>image/svg+xml</dc:format>
    <dc:creator>
     <cc:Agent>
      <dc:title>Matplotlib v3.8.4, https://matplotlib.org/</dc:title>
     </cc:Agent>
    </dc:creator>
   </cc:Work>
  </rdf:RDF>
 </metadata>
 <defs>
  <style type="text/css">*{stroke-linejoin: round; stroke-linecap: butt}</style>
 </defs>
 <g id="figure_1">
  <g id="patch_1">
   <path d="M 0 345.6 
L 460.8 345.6 
L 460.8 0 
L 0 0 
z
" style="fill: #ffffff"/>
  </g>
  <g id="axes_1">
   <g id="patch_2">
    <path d="M 57.6 307.584 
L 414.72 307.584 
L 414.72 41.472 
L 57.6 41.472 
z
" style="fill: #ffffff"/>
   </g>
   <g id="PolyCollection_1">
    <path d="M 73.832727 144.256 
L 73.832727 307.584 
L 82.157203 307.584 
L 90.481678 307.584 
L 98.806154 307.584 
L 107.130629 307.584 
L 115.455105 307.584 
L 123.77958 307.584 
L 132.104056 307.584 
L 140.428531 307.584 
L 148.753007 307.584 
L 157.077483 307.584 
L 165.401958 307.584 
L 173.726434 307.584 
L 182.050909 307.584 
L 190.375385 307.584 
L 198.69986 307.584 
L 207.024336 307.584 
L 215.348811 307.584 
L 223.673287 307.584 
L 231.997762 307.584 
L 240.322238 307.584 
L 248.646713 307.584 
L 256.971189 307.584 
L 265.295664 307.584 
L 273.62014 307.584 
L 281.944615 307.584 
L 290.269091 307.584 
L 298.593566 307.584 
L 306.918042 307.584 
L 315.242517 307.584 
L 323.566993 307.584 
L 331.891469 307.584 
L 340.215944 307.584 
L 348.54042 307.584 
L 356.864895 307.584 
L 365.189371 307.584 
L 373.513846 307.584 
L 381.838322 307.584 
L 390.162797 307.584 
L 398.487273 307.584 
L 398.487273 307.584 
L 398.487273 307.584 
L 390.162797 307.584 
L 381.838322 307.584 
L 373.513846 307.584 
L 365.189371 307.584 
L 356.864895 307.584 
L 348.54042 307.584 
L 340.215944 307.584 
L 331.891469 307.584 
L 323.566993 307.584 
L 315.242517 307.584 
L 306.918042 307.584 
L 298.593566 307.584 
L 290.269091 307.584 
L 281.944615 307.584 
L 273.62014 307.584 
L 265.295664 307.584 
L 256.971189 307.584 
L 248.646713 307.584 
L 240.322238 307.584 
L 231.997762 307.584 
L 223.673287 307.584 
L 215.348811 307.584 
L 207.024336 307.584 
L 198.69986 307.584 
L 190.375385 307.584 
L 182.050909 290.688 
L 173.726434 285.056 
L 165.401958 268.16 
L 157.077483 285.056 
L 148.753007 285.056 
L 140.428531 285.056 
L 132.104056 301.952 
L 123.77958 296.32 
L 115.455105 262.528 
L 107.130629 251.264 
L 98.806154 217.472 
L 90.481678 240 
L 82.157203 217.472 
L 73.832727 144.256 
z
" clip-path="url(#p8a93d8b7bc)" style="fill: #1f77b4"/>
   </g>
   <g id="PolyCollection_2">
    <path d="M 73.832727 121.728 
L 73.832727 144.256 
L 82.157203 217.472 
L 90.481678 240 
L 98.806154 217.472 
L 107.130629 251.264 
L 115.455105 262.528 
L 123.77958 296.32 
L 132.104056 301.952 
L 140.428531 285.056 
L 148.753007 285.056 
L 157.077483 285.056 
L 165.401958 268.16 
L 173.726434 285.056 
L 182.050909 290.688 
L 190.375385 307.584 
L 198.69986 307.584 
L 207.024336 307.584 
L 215.348811 307.584 
L 223.673287 307.584 
L 231.997762 307.584 
L 240.322238 307.584 
L 248.646713 307.584 
L 256.971189 307.584 
L 265.295664 307.584 
L 273.62014 307.584 
L 281.944615 307.584 
L 290.269091 307.584 
L 298.593566 307.584 
L 306.918042 307.584 
L 315.242517 307.584 
L 323.566993 307.584 
L 331.891469 307.584 
L 340.215944 307.584 
L 348.54042 307.584 
L 356.864895 307.584 
L 365.189371 307.584 
L 373.513846 307.584 
L 381.838322 307.584 
L 390.162797 307.584 
L 398.487273 307.584 
L 398.487273 307.584 
L 398.487273 307.584 
L 390.162797 307.584 
L 381.838322 307.584 
L 373.513846 307.584 
L 365.189371 307.584 
L 356.864895 307.584 
L 348.54042 307.584 
L 340.215944 307.584 
L 331.891469 307.584 
L 323.566993 307.584 
L 315.242517 307.584 
L 306.918042 307.584 
L 298.593566 307.584 
L 290.269091 307.584 
L 281.944615 307.584 
L 273.62014 307.584 
L 265.295664 307.584 
L 256.971189 307.584 
L 248.646713 307.584 
L 240.322238 307.584 
L 231.997762 301.952 
L 223.673287 290.688 
L 215.348811 279.424 
L 207.024336 279.424 
L 198.69986 273.792 
L 190.375385 290.688 
L 182.050909 285.056 
L 173.726434 268.16 
L 165.401958 245.632 
L 157.077483 256.896 
L 148.753007 256.896 
L 140.428531 256.896 
L 132.104056 285.056 
L 123.77958 279.424 
L 115.455105 245.632 
L 107.130629 234.368 
L 98.806154 194.944 
L 90.481678 211.84 
L 82.157203 206.208 
L 73.832727 121.728 
z
" clip-path="url(#p8a93d8b7bc)" style="fill: #ff7f0e"/>
   </g>
   <g id="PolyCollection_3">
    <path d="M 73.832727 104.832 
L 73.832727 121.728 
L 82.157203 206.208 
L 90.481678 211.84 
L 98.806154 194.944 
L 107.130629 234.368 
L 115.455105 245.632 
L 123.77958 279.424 
L 132.104056 285.056 
L 140.428531 256.896 
L 148.753007 256.896 
L 157.077483 256.896 
L 165.401958 245.632 
L 173.726434 268.16 
L 182.050909 285.056 
L 190.375385 290.688 
L 198.69986 273.792 
L 207.024336 279.424 
L 215.348811 279.424 
L 223.673287 290.688 
L 231.997762 301.952 
L 240.322238 307.584 
L 248.646713 307.584 
L 256.971189 307.584 
L 265.295664 307.584 
L 273.62014 307.584 
L 281.944615 307.584 
L 290.269091 307.584 
L 298.593566 307.584 
L 306.918042 307.584 
L 315.242517 307.584 
L 323.566993 307.584 
L 331.891469 307.584 
L 340.215944 307.584 
L 348.54042 307.584 
L 356.864895 307.584 
L 365.189371 307.584 
L 373.513846 307.584 
L 381.838322 307.584 
L 390.162797 307.584 
L 398.487273 307.584 
L 398.487273 307.584 
L 398.487273 307.584 
L 390.162797 307.584 
L 381.838322 307.584 
L 373.513846 307.584 
L 365.189371 307.584 
L 356.864895 307.584 
L 348.54042 307.584 
L 340.215944 307.584 
L 331.891469 307.584 
L 323.566993 307.584 
L 315.242517 307.584 
L 306.918042 307.584 
L 298.593566 307.584 
L 290.269091 307.584 
L 281.944615 307.584 
L 273.62014 307.584 
L 265.295664 307.584 
L 256.971189 307.584 
L 248.646713 307.584 
L 240.322238 307.584 
L 231.997762 290.688 
L 223.673287 285.056 
L 215.348811 273.792 
L 207.024336 262.528 
L 198.69986 262.528 
L 190.375385 273.792 
L 182.050909 256.896 
L 173.726434 234.368 
L 165.401958 223.104 
L 157.077483 223.104 
L 148.753007 228.736 
L 140.428531 228.736 
L 132.104056 223.104 
L 123.77958 228.736 
L 115.455105 217.472 
L 107.130629 183.68 
L 98.806154 172.416 
L 90.481678 161.152 
L 82.157203 149.888 
L 73.832727 104.832 
z
" clip-path="url(#p8a93d8b7bc)" style="fill: #2ca02c"/>
   </g>
   <g id="PolyCollection_4">
    <path d="M 73.832727 82.304 
L 73.832727 104.832 
L 82.157203 149.888 
L 90.481678 161.152 
L 98.806154 172.416 
L 107.130629 183.68 
L 115.455105 217.472 
L 123.77958 228.736 
L 132.104056 223.104 
L 140.428531 228.736 
L 148.753007 228.736 
L 157.077483 223.104 
L 165.401958 223.104 
L 173.726434 234.368 
L 182.050909 256.896 
L 190.375385 273.792 
L 198.69986 262.528 
L 207.024336 262.528 
L 215.348811 273.792 
L 223.673287 285.056 
L 231.997762 290.688 
L 240.322238 307.584 
L 248.646713 307.584 
L 256.971189 307.584 
L 265.295664 307.584 
L 273.62014 307.584 
L 281.944615 307.584 
L 290.269091 307.584 
L 298.593566 307.584 
L 306.918042 307.584 
L 315.242517 307.584 
L 323.566993 307.584 
L 331.891469 307.584 
L 340.215944 307.584 
L 348.54042 307.584 
L 356.864895 307.584 
L 365.189371 307.584 
L 373.513846 307.584 
L 381.838322 307.584 
L 390.162797 307.584 
L 398.487273 307.584 
L 398.487273 307.584 
L 398.487273 307.584 
L 390.162797 307.584 
L 381.838322 307.584 
L 373.513846 307.584 
L 365.189371 307.584 
L 356.864895 307.584 
L 348.54042 307.584 
L 340.215944 307.584 
L 331.891469 307.584 
L 323.566993 307.584 
L 315.242517 307.584 
L 306.918042 307.584 
L 298.593566 307.584 
L 290.269091 307.584 
L 281.944615 307.584 
L 273.62014 307.584 
L 265.295664 307.584 
L 256.971189 307.584 
L 248.646713 307.584 
L 240.322238 279.424 
L 231.997762 279.424 
L 223.673287 279.424 
L 215.348811 256.896 
L 207.024336 223.104 
L 198.69986 245.632 
L 190.375385 262.528 
L 182.050909 245.632 
L 173.726434 217.472 
L 165.401958 211.84 
L 157.077483 206.208 
L 148.753007 194.944 
L 140.428531 206.208 
L 132.104056 172.416 
L 123.77958 200.576 
L 115.455105 183.68 
L 107.130629 149.888 
L 98.806154 127.36 
L 90.481678 132.992 
L 82.157203 132.992 
L 73.832727 82.304 
z
" clip-path="url(#p8a93d8b7bc)" style="fill: #d62728"/>
   </g>
   <g id="PolyCollection_5">
    <path d="M 73.832727 82.304 
L 73.832727 82.304 
L 82.157203 132.992 
L 90.481678 132.992 
L 98.806154 127.36 
L 107.130629 149.888 
L 115.455105 183.68 
L 123.77958 200.576 
L 132.104056 172.416 
L 140.428531 206.208 
L 148.753007 194.944 
L 157.077483 206.208 
L 165.401958 211.84 
L 173.726434 217.472 
L 182.050909 245.632 
L 190.375385 262.528 
L 198.69986 245.632 
L 207.024336 223.104 
L 215.348811 256.896 
L 223.673287 279.424 
L 231.997762 279.424 
L 240.322238 279.424 
L 248.646713 307.584 
L 256.971189 307.584 
L 265.295664 307.584 
L 273.62014 307.584 
L 281.944615 307.584 
L 290.269091 307.584 
L 298.593566 307.584 
L 306.918042 307.584 
L 315.242517 307.584 
L 323.566993 307.584 
L 331.891469 307.584 
L 340.215944 307.584 
L 348.54042 307.584 
L 356.864895 307.584 
L 365.189371 307.584 
L 373.513846 307.584 
L 381.838322 307.584 
L 390.162797 307.584 
L 398.487273 307.584 
L 398.487273 307.584 
L 398.487273 307.584 
L 390.162797 307.584 
L 381.838322 307.584 
L 373.513846 307.584 
L 365.189371 307.584 
L 356.864895 307.584 
L 348.54042 307.584 
L 340.215944 307.584 
L 331.891469 307.584 
L 323.566993 307.584 
L 315.242517 307.584 
L 306.918042 307.584 
L 298.593566 307.584 
L 290.269091 307.584 
L 281.944615 307.584 
L 273.62014 307.584 
L 265.295664 307.584 
L 256.971189 307.584 
L 248.646713 307.584 
L 240.322238 279.424 
L 231.997762 279.424 
L 223.673287 256.896 
L 215.348811 245.632 
L 207.024336 217.472 
L 198.69986 223.104 
L 190.375385 251.264 
L 182.050909 228.736 
L 173.726434 194.944 
L 165.401958 189.312 
L 157.077483 183.68 
L 148.753007 172.416 
L 140.428531 178.048 
L 132.104056 149.888 
L 123.77958 127.36 
L 115.455105 149.888 
L 107.130629 127.36 
L 98.806154 82.304 
L 90.481678 76.672 
L 82.157203 82.304 
L 73.832727 82.304 
z
" clip-path="url(#p8a93d8b7bc)" style="fill: #9467bd"/>
   </g>
   <g id="PolyCollection_6">
    <path d="M 73.832727 82.304 
L 73.832727 82.304 
L 82.157203 82.304 
L 90.481678 76.672 
L 98.806154 82.304 
L 107.130629 127.36 
L 115.455105 149.888 
L 123.77958 127.36 
L 132.104056 149.888 
L 140.428531 178.048 
L 148.753007 172.416 
L 157.077483 183.68 
L 165.401958 189.312 
L 173.726434 194.944 
L 182.050909 228.736 
L 190.375385 251.264 
L 198.69986 223.104 
L 207.024336 217.472 
L 215.348811 245.632 
L 223.673287 256.896 
L 231.997762 279.424 
L 240.322238 279.424 
L 248.646713 307.584 
L 256.971189 307.584 
L 265.295664 307.584 
L 273.62014 307.584 
L 281.944615 307.584 
L 290.269091 307.584 
L 298.593566 307.584 
L 306.918042 307.584 
L 315.242517 307.584 
L 323.566993 307.584 
L 331.891469 307.584 
L 340.215944 307.584 
L 348.54042 307.584 
L 356.864895 307.584 
L 365.189371 307.584 
L 373.513846 307.584 
L 381.838322 307.584 
L 390.162797 307.584 
L 398.487273 307.584 
L 398.487273 290.688 
L 398.487273 290.688 
L 390.162797 290.688 
L 381.838322 279.424 
L 373.513846 268.16 
L 365.189371 285.056 
L 356.864895 285.056 
L 348.54042 285.056 
L 340.215944 279.424 
L 331.891469 290.688 
L 323.566993 290.688 
L 315.242517 285.056 
L 306.918042 285.056 
L 298.593566 301.952 
L 290.269091 290.688 
L 281.944615 285.056 
L 273.62014 301.952 
L 265.295664 285.056 
L 256.971189 296.32 
L 248.646713 290.688 
L 240.322238 256.896 
L 231.997762 268.16 
L 223.673287 245.632 
L 215.348811 206.208 
L 207.024336 194.944 
L 198.69986 217.472 
L 190.375385 240 
L 182.050909 206.208 
L 173.726434 183.68 
L 165.401958 183.68 
L 157.077483 172.416 
L 148.753007 149.888 
L 140.428531 161.152 
L 132.104056 121.728 
L 123.77958 104.832 
L 115.455105 127.36 
L 107.130629 99.2 
L 98.806154 76.672 
L 90.481678 76.672 
L 82.157203 82.304 
L 73.832727 82.304 
z
" clip-path="url(#p8a93d8b7bc)" style="fill: #8c564b"/>
   </g>
   <g id="PolyCollection_7">
    <path d="M 73.832727 82.304 
L 73.832727 82.304 
L 82.157203 82.304 
L 90.481678 76.672 
L 98.806154 76.672 
L 107.130629 99.2 
L 115.455105 127.36 
L 123.77958 104.832 
L 132.104056 121.728 
L 140.428531 161.152 
L 148.753007 149.888 
L 157.077483 172.416 
L 165.401958 183.68 
L 173.726434 183.68 
L 182.050909 206.208 
L 190.375385 240 
L 198.69986 217.472 
L 207.024336 194.944 
L 215.348811 206.208 
L 223.673287 245.632 
L 231.997762 268.16 
L 240.322238 256.896 
L 248.646713 290.688 
L 256.971189 296.32 
L 265.295664 285.056 
L 273.62014 301.952 
L 281.944615 285.056 
L 290.269091 290.688 
L 298.593566 301.952 
L 306.918042 285.056 
L 315.242517 285.056 
L 323.566993 290.688 
L 331.891469 290.688 
L 340.215944 279.424 
L 348.54042 285.056 
L 356.864895 285.056 
L 365.189371 285.056 
L 373.513846 268.16 
L 381.838322 279.424 
L 390.162797 290.688 
L 398.487273 290.688 
L 398.487273 290.688 
L 398.487273 290.688 
L 390.162797 290.688 
L 381.838322 279.424 
L 373.513846 268.16 
L 365.189371 285.056 
L 356.864895 285.056 
L 348.54042 285.056 
L 340.215944 279.424 
L 331.891469 290.688 
L 323.566993 290.688 
L 315.242517 285.056 
L 306.918042 285.056 
L 298.593566 301.952 
L 290.269091 290.688 
L 281.944615 285.056 
L 273.62014 268.16 
L 265.295664 268.16 
L 256.971189 273.792 
L 248.646713 273.792 
L 240.322238 240 
L 231.997762 251.264 
L 223.673287 234.368 
L 215.348811 189.312 
L 207.024336 183.68 
L 198.69986 206.208 
L 190.375385 223.104 
L 182.050909 166.784 
L 173.726434 172.416 
L 165.401958 172.416 
L 157.077483 155.52 
L 148.753007 144.256 
L 140.428531 138.624 
L 132.104056 99.2 
L 123.77958 87.936 
L 115.455105 116.096 
L 107.130629 87.936 
L 98.806154 76.672 
L 90.481678 76.672 
L 82.157203 82.304 
L 73.832727 82.304 
z
" clip-path="url(#p8a93d8b7bc)" style="fill: #e377c2"/>
   </g>
   <g id="PolyCollection_8">
    <path d="M 73.832727 82.304 
L 73.832727 82.304 
L 82.157203 82.304 
L 90.481678 76.672 
L 98.806154 76.672 
L 107.130629 87.936 
L 115.455105 116.096 
L 123.77958 87.936 
L 132.104056 99.2 
L 140.428531 138.624 
L 148.753007 144.256 
L 157.077483 155.52 
L 165.401958 172.416 
L 173.726434 172.416 
L 182.050909 166.784 
L 190.375385 223.104 
L 198.69986 206.208 
L 207.024336 183.68 
L 215.348811 189.312 
L 223.673287 234.368 
L 231.997762 251.264 
L 240.322238 240 
L 248.646713 273.792 
L 256.971189 273.792 
L 265.295664 268.16 
L 273.62014 268.16 
L 281.944615 285.056 
L 290.269091 290.688 
L 298.593566 301.952 
L 306.918042 285.056 
L 315.242517 285.056 
L 323.566993 290.688 
L 331.891469 290.688 
L 340.215944 279.424 
L 348.54042 285.056 
L 356.864895 285.056 
L 365.189371 285.056 
L 373.513846 268.16 
L 381.838322 279.424 
L 390.162797 290.688 
L 398.487273 290.688 
L 398.487273 290.688 
L 398.487273 290.688 
L 390.162797 290.688 
L 381.838322 279.424 
L 373.513846 268.16 
L 365.189371 285.056 
L 356.864895 285.056 
L 348.54042 285.056 
L 340.215944 279.424 
L 331.891469 290.688 
L 323.566993 290.688 
L 315.242517 285.056 
L 306.918042 285.056 
L 298.593566 301.952 
L 290.269091 290.688 
L 281.944615 285.056 
L 273.62014 268.16 
L 265.295664 268.16 
L 256.971189 273.792 
L 248.646713 273.792 
L 240.322238 240 
L 231.997762 251.264 
L 223.673287 234.368 
L 215.348811 189.312 
L 207.024336 183.68 
L 198.69986 206.208 
L 190.375385 194.944 
L 182.050909 155.52 
L 173.726434 155.52 
L 165.401958 144.256 
L 157.077483 132.992 
L 148.753007 110.464 
L 140.428531 116.096 
L 132.104056 71.04 
L 123.77958 71.04 
L 115.455105 76.672 
L 107.130629 76.672 
L 98.806154 76.672 
L 90.481678 76.672 
L 82.157203 82.304 
L 73.832727 82.304 
z
" clip-path="url(#p8a93d8b7bc)" style="fill: #7f7f7f"/>
   </g>
   <g id="PolyCollection_9">
    <path d="M 73.832727 82.304 
L 73.832727 82.304 
L 82.157203 82.304 
L 90.481678 76.672 
L 98.806154 76.672 
L 107.130629 76.672 
L 115.455105 76.672 
L 123.77958 71.04 
L 132.104056 71.04 
L 140.428531 116.096 
L 148.753007 110.464 
L 157.077483 132.992 
L 165.401958 144.256 
L 173.726434 155.52 
L 182.050909 155.52 
L 190.375385 194.944 
L 198.69986 206.208 
L 207.024336 183.68 
L 215.348811 189.312 
L 223.673287 234.368 
L 231.997762 251.264 
L 240.322238 240 
L 248.646713 273.792 
L 256.971189 273.792 
L 265.295664 268.16 
L 273.62014 268.16 
L 281.944615 285.056 
L 290.269091 290.688 
L 298.593566 301.952 
L 306.918042 285.056 
L 315.242517 285.056 
L 323.566993 290.688 
L 331.891469 290.688 
L 340.215944 279.424 
L 348.54042 285.056 
L 356.864895 285.056 
L 365.189371 285.056 
L 373.513846 268.16 
L 381.838322 279.424 
L 390.162797 290.688 
L 398.487273 290.688 
L 398.487273 290.688 
L 398.487273 290.688 
L 390.162797 290.688 
L 381.838322 279.424 
L 373.513846 268.16 
L 365.189371 285.056 
L 356.864895 285.056 
L 348.54042 285.056 
L 340.215944 279.424 
L 331.891469 290.688 
L 323.566993 290.688 
L 315.242517 285.056 
L 306.918042 285.056 
L 298.593566 301.952 
L 290.269091 290.688 
L 281.944615 268.16 
L 273.62014 251.264 
L 265.295664 234.368 
L 256.971189 245.632 
L 248.646713 251.264 
L 240.322238 217.472 
L 231.997762 234.368 
L 223.673287 217.472 
L 215.348811 183.68 
L 207.024336 161.152 
L 198.69986 194.944 
L 190.375385 178.048 
L 182.050909 149.888 
L 173.726434 149.888 
L 165.401958 110.464 
L 157.077483 110.464 
L 148.753007 104.832 
L 140.428531 99.2 
L 132.104056 71.04 
L 123.77958 71.04 
L 115.455105 76.672 
L 107.130629 76.672 
L 98.806154 76.672 
L 90.481678 76.672 
L 82.157203 82.304 
L 73.832727 82.304 
z
" clip-path="url(#p8a93d8b7bc)" style="fill: #bcbd22"/>
   </g>
   <g id="PolyCollection_10">
    <path d="M 73.832727 82.304 
L 73.832727 82.304 
L 82.157203 82.304 
L 90.481678 76.672 
L 98.806154 76.672 
L 107.130629 76.672 
L 115.455105 76.672 
L 123.77958 71.04 
L 132.104056 71.04 
L 140.428531 99.2 
L 148.753007 104.832 
L 157.077483 110.464 
L 165.401958 110.464 
L 173.726434 149.888 
L 182.050909 149.888 
L 190.375385 178.048 
L 198.69986 194.944 
L 207.024336 161.152 
L 215.348811 183.68 
L 223.673287 217.472 
L 231.997762 234.368 
L 240.322238 217.472 
L 248.646713 251.264 
L 256.971189 245.632 
L 265.295664 234.368 
L 273.62014 251.264 
L 281.944615 268.16 
L 290.269091 290.688 
L 298.593566 301.952 
L 306.918042 285.056 
L 315.242517 285.056 
L 323.566993 290.688 
L 331.891469 290.688 
L 340.215944 279.424 
L 348.54042 285.056 
L 356.864895 285.056 
L 365.189371 285.056 
L 373.513846 268.16 
L 381.838322 279.424 
L 390.162797 290.688 
L 398.487273 290.688 
L 398.487273 290.688 
L 398.487273 290.688 
L 390.162797 290.688 
L 381.838322 279.424 
L 373.513846 268.16 
L 365.189371 285.056 
L 356.864895 285.056 
L 348.54042 285.056 
L 340.215944 279.424 
L 331.891469 290.688 
L 323.566993 290.688 
L 315.242517 285.056 
L 306.918042 285.056 
L 298.593566 301.952 
L 290.269091 262.528 
L 281.944615 251.264 
L 273.62014 240 
L 265.295664 217.472 
L 256.971189 223.104 
L 248.646713 234.368 
L 240.322238 200.576 
L 231.997762 228.736 
L 223.673287 194.944 
L 215.348811 166.784 
L 207.024336 144.256 
L 198.69986 166.784 
L 190.375385 155.52 
L 182.050909 138.624 
L 173.726434 121.728 
L 165.401958 71.04 
L 157.077483 71.04 
L 148.753007 71.04 
L 140.428531 76.672 
L 132.104056 71.04 
L 123.77958 71.04 
L 115.455105 76.672 
L 107.130629 76.672 
L 98.806154 76.672 
L 90.481678 76.672 
L 82.157203 82.304 
L 73.832727 82.304 
z
" clip-path="url(#p8a93d8b7bc)" style="fill: #17becf"/>
   </g>
   <g id="PolyCollection_11">
    <path d="M 73.832727 82.304 
L 73.832727 82.304 
L 82.157203 82.304 
L 90.481678 76.672 
L 98.806154 76.672 
L 107.130629 76.672 
L 115.455105 76.672 
L 123.77958 71.04 
L 132.104056 71.04 
L 140.428531 76.672 
L 148.753007 71.04 
L 157.077483 71.04 
L 165.401958 71.04 
L 173.726434 121.728 
L 182.050909 138.624 
L 190.375385 155.52 
L 198.69986 166.784 
L 207.024336 144.256 
L 215.348811 166.784 
L 223.673287 194.944 
L 231.997762 228.736 
L 240.322238 200.576 
L 248.646713 234.368 
L 256.971189 223.104 
L 265.295664 217.472 
L 273.62014 240 
L 281.944615 251.264 
L 290.269091 262.528 
L 298.593566 301.952 
L 306.918042 285.056 
L 315.242517 285.056 
L 323.566993 290.688 
L 331.891469 290.688 
L 340.215944 279.424 
L 348.54042 285.056 
L 356.864895 285.056 
L 365.189371 285.056 
L 373.513846 268.16 
L 381.838322 279.424 
L 390.162797 290.688 
L 398.487273 290.688 
L 398.487273 290.688 
L 398.487273 290.688 
L 390.162797 290.688 
L 381.838322 279.424 
L 373.513846 268.16 
L 365.189371 285.056 
L 356.864895 285.056 
L 348.54042 285.056 
L 340.215944 279.424 
L 331.891469 285.056 
L 323.566993 279.424 
L 315.242517 273.792 
L 306.918042 262.528 
L 298.593566 290.688 
L 290.269091 251.264 
L 281.944615 234.368 
L 273.62014 228.736 
L 265.295664 200.576 
L 256.971189 217.472 
L 248.646713 217.472 
L 240.322238 189.312 
L 231.997762 211.84 
L 223.673287 183.68 
L 215.348811 155.52 
L 207.024336 121.728 
L 198.69986 149.888 
L 190.375385 144.256 
L 182.050909 132.992 
L 173.726434 110.464 
L 165.401958 65.408 
L 157.077483 71.04 
L 148.753007 71.04 
L 140.428531 76.672 
L 132.104056 71.04 
L 123.77958 71.04 
L 115.455105 76.672 
L 107.130629 76.672 
L 98.806154 76.672 
L 90.481678 76.672 
L 82.157203 82.304 
L 73.832727 82.304 
z
" clip-path="url(#p8a93d8b7bc)" style="fill: #1f77b4"/>
   </g>
   <g id="PolyCollection_12">
    <path d="M 73.832727 82.304 
L 73.832727 82.304 
L 82.157203 82.304 
L 90.481678 76.672 
L 98.806154 76.672 
L 107.130629 76.672 
L 115.455105 76.672 
L 123.77958 71.04 
L 132.104056 71.04 
L 140.428531 76.672 
L 148.753007 71.04 
L 157.077483 71.04 
L 165.401958 65.408 
L 173.726434 110.464 
L 182.050909 132.992 
L 190.375385 144.256 
L 198.69986 149.888 
L 207.024336 121.728 
L 215.348811 155.52 
L 223.673287 183.68 
L 231.997762 211.84 
L 240.322238 189.312 
L 248.646713 217.472 
L 256.971189 217.472 
L 265.295664 200.576 
L 273.62014 228.736 
L 281.944615 234.368 
L 290.269091 251.264 
L 298.593566 290.688 
L 306.918042 262.528 
L 315.242517 273.792 
L 323.566993 279.424 
L 331.891469 285.056 
L 340.215944 279.424 
L 348.54042 285.056 
L 356.864895 285.056 
L 365.189371 285.056 
L 373.513846 268.16 
L 381.838322 279.424 
L 390.162797 290.688 
L 398.487273 290.688 
L 398.487273 273.792 
L 398.487273 273.792 
L 390.162797 279.424 
L 381.838322 262.528 
L 373.513846 251.264 
L 365.189371 268.16 
L 356.864895 256.896 
L 348.54042 251.264 
L 340.215944 262.528 
L 331.891469 262.528 
L 323.566993 234.368 
L 315.242517 240 
L 306.918042 234.368 
L 298.593566 268.16 
L 290.269091 234.368 
L 281.944615 223.104 
L 273.62014 206.208 
L 265.295664 172.416 
L 256.971189 183.68 
L 248.646713 172.416 
L 240.322238 155.52 
L 231.997762 155.52 
L 223.673287 144.256 
L 215.348811 127.36 
L 207.024336 110.464 
L 198.69986 144.256 
L 190.375385 93.568 
L 182.050909 87.936 
L 173.726434 87.936 
L 165.401958 65.408 
L 157.077483 71.04 
L 148.753007 71.04 
L 140.428531 76.672 
L 132.104056 71.04 
L 123.77958 71.04 
L 115.455105 76.672 
L 107.130629 76.672 
L 98.806154 76.672 
L 90.481678 76.672 
L 82.157203 82.304 
L 73.832727 82.304 
z
" clip-path="url(#p8a93d8b7bc)" style="fill: #ff7f0e"/>
   </g>
   <g id="PolyCollection_13">
    <path d="M 73.832727 82.304 
L 73.832727 82.304 
L 82.157203 82.304 
L 90.481678 76.672 
L 98.806154 76.672 
L 107.130629 76.672 
L 115.455105 76.672 
L 123.77958 71.04 
L 132.104056 71.04 
L 140.428531 76.672 
L 148.753007 71.04 
L 157.077483 71.04 
L 165.401958 65.408 
L 173.726434 87.936 
L 182.050909 87.936 
L 190.375385 93.568 
L 198.69986 144.256 
L 207.024336 110.464 
L 215.348811 127.36 
L 223.673287 144.256 
L 231.997762 155.52 
L 240.322238 155.52 
L 248.646713 172.416 
L 256.971189 183.68 
L 265.295664 172.416 
L 273.62014 206.208 
L 281.944615 223.104 
L 290.269091 234.368 
L 298.593566 268.16 
L 306.918042 234.368 
L 315.242517 240 
L 323.566993 234.368 
L 331.891469 262.528 
L 340.215944 262.528 
L 348.54042 251.264 
L 356.864895 256.896 
L 365.189371 268.16 
L 373.513846 251.264 
L 381.838322 262.528 
L 390.162797 279.424 
L 398.487273 273.792 
L 398.487273 256.896 
L 398.487273 256.896 
L 390.162797 268.16 
L 381.838322 240 
L 373.513846 234.368 
L 365.189371 245.632 
L 356.864895 240 
L 348.54042 228.736 
L 340.215944 240 
L 331.891469 251.264 
L 323.566993 211.84 
L 315.242517 223.104 
L 306.918042 217.472 
L 298.593566 234.368 
L 290.269091 211.84 
L 281.944615 172.416 
L 273.62014 166.784 
L 265.295664 149.888 
L 256.971189 155.52 
L 248.646713 161.152 
L 240.322238 138.624 
L 231.997762 132.992 
L 223.673287 132.992 
L 215.348811 116.096 
L 207.024336 93.568 
L 198.69986 121.728 
L 190.375385 87.936 
L 182.050909 71.04 
L 173.726434 76.672 
L 165.401958 65.408 
L 157.077483 71.04 
L 148.753007 71.04 
L 140.428531 76.672 
L 132.104056 71.04 
L 123.77958 71.04 
L 115.455105 76.672 
L 107.130629 76.672 
L 98.806154 76.672 
L 90.481678 76.672 
L 82.157203 82.304 
L 73.832727 82.304 
z
" clip-path="url(#p8a93d8b7bc)" style="fill: #2ca02c"/>
   </g>
   <g id="PolyCollection_14">
    <path d="M 73.832727 82.304 
L 73.832727 82.304 
L 82.157203 82.304 
L 90.481678 76.672 
L 98.806154 76.672 
L 107.130629 76.672 
L 115.455105 76.672 
L 123.77958 71.04 
L 132.104056 71.04 
L 140.428531 76.672 
L 148.753007 71.04 
L 157.077483 71.04 
L 165.401958 65.408 
L 173.726434 76.672 
L 182.050909 71.04 
L 190.375385 87.936 
L 198.69986 121.728 
L 207.024336 93.568 
L 215.348811 116.096 
L 223.673287 132.992 
L 231.997762 132.992 
L 240.322238 138.624 
L 248.646713 161.152 
L 256.971189 155.52 
L 265.295664 149.888 
L 273.62014 166.784 
L 281.944615 172.416 
L 290.269091 211.84 
L 298.593566 234.368 
L 306.918042 217.472 
L 315.242517 223.104 
L 323.566993 211.84 
L 331.891469 251.264 
L 340.215944 240 
L 348.54042 228.736 
L 356.864895 240 
L 365.189371 245.632 
L 373.513846 234.368 
L 381.838322 240 
L 390.162797 268.16 
L 398.487273 256.896 
L 398.487273 256.896 
L 398.487273 256.896 
L 390.162797 268.16 
L 381.838322 240 
L 373.513846 234.368 
L 365.189371 245.632 
L 356.864895 240 
L 348.54042 228.736 
L 340.215944 240 
L 331.891469 234.368 
L 323.566993 200.576 
L 315.242517 217.472 
L 306.918042 194.944 
L 298.593566 206.208 
L 290.269091 194.944 
L 281.944615 161.152 
L 273.62014 149.888 
L 265.295664 132.992 
L 256.971189 149.888 
L 248.646713 144.256 
L 240.322238 116.096 
L 231.997762 116.096 
L 223.673287 104.832 
L 215.348811 104.832 
L 207.024336 76.672 
L 198.69986 99.2 
L 190.375385 82.304 
L 182.050909 71.04 
L 173.726434 76.672 
L 165.401958 65.408 
L 157.077483 71.04 
L 148.753007 71.04 
L 140.428531 76.672 
L 132.104056 71.04 
L 123.77958 71.04 
L 115.455105 76.672 
L 107.130629 76.672 
L 98.806154 76.672 
L 90.481678 76.672 
L 82.157203 82.304 
L 73.832727 82.304 
z
" clip-path="url(#p8a93d8b7bc)" style="fill: #d62728"/>
   </g>
   <g id="PolyCollection_15">
    <path d="M 73.832727 82.304 
L 73.832727 82.304 
L 82.157203 82.304 
L 90.481678 76.672 
L 98.806154 76.672 
L 107.130629 76.672 
L 115.455105 76.672 
L 123.77958 71.04 
L 132.104056 71.04 
L 140.428531 76.672 
L 148.753007 71.04 
L 157.077483 71.04 
L 165.401958 65.408 
L 173.726434 76.672 
L 182.050909 71.04 
L 190.375385 82.304 
L 198.69986 99.2 
L 207.024336 76.672 
L 215.348811 104.832 
L 223.673287 104.832 
L 231.997762 116.096 
L 240.322238 116.096 
L 248.646713 144.256 
L 256.971189 149.888 
L 265.295664 132.992 
L 273.62014 149.888 
L 281.944615 161.152 
L 290.269091 194.944 
L 298.593566 206.208 
L 306.918042 194.944 
L 315.242517 217.472 
L 323.566993 200.576 
L 331.891469 234.368 
L 340.215944 240 
L 348.54042 228.736 
L 356.864895 240 
L 365.189371 245.632 
L 373.513846 234.368 
L 381.838322 240 
L 390.162797 268.16 
L 398.487273 256.896 
L 398.487273 256.896 
L 398.487273 256.896 
L 390.162797 268.16 
L 381.838322 240 
L 373.513846 234.368 
L 365.189371 245.632 
L 356.864895 240 
L 348.54042 228.736 
L 340.215944 240 
L 331.891469 234.368 
L 323.566993 200.576 
L 315.242517 217.472 
L 306.918042 189.312 
L 298.593566 178.048 
L 290.269091 172.416 
L 281.944615 144.256 
L 273.62014 138.624 
L 265.295664 127.36 
L 256.971189 138.624 
L 248.646713 127.36 
L 240.322238 104.832 
L 231.997762 104.832 
L 223.673287 93.568 
L 215.348811 87.936 
L 207.024336 65.408 
L 198.69986 82.304 
L 190.375385 76.672 
L 182.050909 71.04 
L 173.726434 76.672 
L 165.401958 65.408 
L 157.077483 71.04 
L 148.753007 71.04 
L 140.428531 76.672 
L 132.104056 71.04 
L 123.77958 71.04 
L 115.455105 76.672 
L 107.130629 76.672 
L 98.806154 76.672 
L 90.481678 76.672 
L 82.157203 82.304 
L 73.832727 82.304 
z
" clip-path="url(#p8a93d8b7bc)" style="fill: #9467bd"/>
   </g>
   <g id="PolyCollection_16">
    <path d="M 73.832727 82.304 
L 73.832727 82.304 
L 82.157203 82.304 
L 90.481678 76.672 
L 98.806154 76.672 
L 107.130629 76.672 
L 115.455105 76.672 
L 123.77958 71.04 
L 132.104056 71.04 
L 140.428531 76.672 
L 148.753007 71.04 
L 157.077483 71.04 
L 165.401958 65.408 
L 173.726434 76.672 
L 182.050909 71.04 
L 190.375385 76.672 
L 198.69986 82.304 
L 207.024336 65.408 
L 215.348811 87.936 
L 223.673287 93.568 
L 231.997762 104.832 
L 240.322238 104.832 
L 248.646713 127.36 
L 256.971189 138.624 
L 265.295664 127.36 
L 273.62014 138.624 
L 281.944615 144.256 
L 290.269091 172.416 
L 298.593566 178.048 
L 306.918042 189.312 
L 315.242517 217.472 
L 323.566993 200.576 
L 331.891469 234.368 
L 340.215944 240 
L 348.54042 228.736 
L 356.864895 240 
L 365.189371 245.632 
L 373.513846 234.368 
L 381.838322 240 
L 390.162797 268.16 
L 398.487273 256.896 
L 398.487273 256.896 
L 398.487273 256.896 
L 390.162797 268.16 
L 381.838322 240 
L 373.513846 234.368 
L 365.189371 228.736 
L 356.864895 211.84 
L 348.54042 189.312 
L 340.215944 228.736 
L 331.891469 217.472 
L 323.566993 183.68 
L 315.242517 200.576 
L 306.918042 161.152 
L 298.593566 149.888 
L 290.269091 144.256 
L 281.944615 127.36 
L 273.62014 121.728 
L 265.295664 110.464 
L 256.971189 127.36 
L 248.646713 110.464 
L 240.322238 93.568 
L 231.997762 93.568 
L 223.673287 82.304 
L 215.348811 82.304 
L 207.024336 54.144 
L 198.69986 65.408 
L 190.375385 76.672 
L 182.050909 71.04 
L 173.726434 76.672 
L 165.401958 65.408 
L 157.077483 71.04 
L 148.753007 71.04 
L 140.428531 76.672 
L 132.104056 71.04 
L 123.77958 71.04 
L 115.455105 76.672 
L 107.130629 76.672 
L 98.806154 76.672 
L 90.481678 76.672 
L 82.157203 82.304 
L 73.832727 82.304 
z
" clip-path="url(#p8a93d8b7bc)" style="fill: #8c564b"/>
   </g>
   <g id="PolyCollection_17">
    <path d="M 73.832727 82.304 
L 73.832727 82.304 
L 82.157203 82.304 
L 90.481678 76.672 
L 98.806154 76.672 
L 107.130629 76.672 
L 115.455105 76.672 
L 123.77958 71.04 
L 132.104056 71.04 
L 140.428531 76.672 
L 148.753007 71.04 
L 157.077483 71.04 
L 165.401958 65.408 
L 173.726434 76.672 
L 182.050909 71.04 
L 190.375385 76.672 
L 198.69986 65.408 
L 207.024336 54.144 
L 215.348811 82.304 
L 223.673287 82.304 
L 231.997762 93.568 
L 240.322238 93.568 
L 248.646713 110.464 
L 256.971189 127.36 
L 265.295664 110.464 
L 273.62014 121.728 
L 281.944615 127.36 
L 290.269091 144.256 
L 298.593566 149.888 
L 306.918042 161.152 
L 315.242517 200.576 
L 323.566993 183.68 
L 331.891469 217.472 
L 340.215944 228.736 
L 348.54042 189.312 
L 356.864895 211.84 
L 365.189371 228.736 
L 373.513846 234.368 
L 381.838322 240 
L 390.162797 268.16 
L 398.487273 256.896 
L 398.487273 256.896 
L 398.487273 256.896 
L 390.162797 268.16 
L 381.838322 240 
L 373.513846 234.368 
L 365.189371 228.736 
L 356.864895 211.84 
L 348.54042 189.312 
L 340.215944 228.736 
L 331.891469 217.472 
L 323.566993 183.68 
L 315.242517 200.576 
L 306.918042 144.256 
L 298.593566 132.992 
L 290.269091 110.464 
L 281.944615 99.2 
L 273.62014 104.832 
L 265.295664 99.2 
L 256.971189 110.464 
L 248.646713 87.936 
L 240.322238 76.672 
L 231.997762 82.304 
L 223.673287 71.04 
L 215.348811 76.672 
L 207.024336 54.144 
L 198.69986 65.408 
L 190.375385 76.672 
L 182.050909 71.04 
L 173.726434 76.672 
L 165.401958 65.408 
L 157.077483 71.04 
L 148.753007 71.04 
L 140.428531 76.672 
L 132.104056 71.04 
L 123.77958 71.04 
L 115.455105 76.672 
L 107.130629 76.672 
L 98.806154 76.672 
L 90.481678 76.672 
L 82.157203 82.304 
L 73.832727 82.304 
z
" clip-path="url(#p8a93d8b7bc)" style="fill: #e377c2"/>
   </g>
   <g id="PolyCollection_18">
    <path d="M 73.832727 82.304 
L 73.832727 82.304 
L 82.157203 82.304 
L 90.481678 76.672 
L 98.806154 76.672 
L 107.130629 76.672 
L 115.455105 76.672 
L 123.77958 71.04 
L 132.104056 71.04 
L 140.428531 76.672 
L 148.753007 71.04 
L 157.077483 71.04 
L 165.401958 65.408 
L 173.726434 76.672 
L 182.050909 71.04 
L 190.375385 76.672 
L 198.69986 65.408 
L 207.024336 54.144 
L 215.348811 76.672 
L 223.673287 71.04 
L 231.997762 82.304 
L 240.322238 76.672 
L 248.646713 87.936 
L 256.971189 110.464 
L 265.295664 99.2 
L 273.62014 104.832 
L 281.944615 99.2 
L 290.269091 110.464 
L 298.593566 132.992 
L 306.918042 144.256 
L 315.242517 200.576 
L 323.566993 183.68 
L 331.891469 217.472 
L 340.215944 228.736 
L 348.54042 189.312 
L 356.864895 211.84 
L 365.189371 228.736 
L 373.513846 234.368 
L 381.838322 240 
L 390.162797 268.16 
L 398.487273 256.896 
L 398.487273 256.896 
L 398.487273 256.896 
L 390.162797 268.16 
L 381.838322 240 
L 373.513846 234.368 
L 365.189371 228.736 
L 356.864895 211.84 
L 348.54042 189.312 
L 340.215944 211.84 
L 331.891469 189.312 
L 323.566993 172.416 
L 315.242517 189.312 
L 306.918042 127.36 
L 298.593566 121.728 
L 290.269091 93.568 
L 281.944615 93.568 
L 273.62014 87.936 
L 265.295664 76.672 
L 256.971189 99.2 
L 248.646713 76.672 
L 240.322238 65.408 
L 231.997762 71.04 
L 223.673287 65.408 
L 215.348811 76.672 
L 207.024336 54.144 
L 198.69986 65.408 
L 190.375385 76.672 
L 182.050909 71.04 
L 173.726434 76.672 
L 165.401958 65.408 
L 157.077483 71.04 
L 148.753007 71.04 
L 140.428531 76.672 
L 132.104056 71.04 
L 123.77958 71.04 
L 115.455105 76.672 
L 107.130629 76.672 
L 98.806154 76.672 
L 90.481678 76.672 
L 82.157203 82.304 
L 73.832727 82.304 
z
" clip-path="url(#p8a93d8b7bc)" style="fill: #7f7f7f"/>
   </g>
   <g id="PolyCollection_19">
    <path d="M 73.832727 82.304 
L 73.832727 82.304 
L 82.157203 82.304 
L 90.481678 76.672 
L 98.806154 76.672 
L 107.130629 76.672 
L 115.455105 76.672 
L 123.77958 71.04 
L 132.104056 71.04 
L 140.428531 76.672 
L 148.753007 71.04 
L 157.077483 71.04 
L 165.401958 65.408 
L 173.726434 76.672 
L 182.050909 71.04 
L 190.375385 76.672 
L 198.69986 65.408 
L 207.024336 54.144 
L 215.348811 76.672 
L 223.673287 65.408 
L 231.997762 71.04 
L 240.322238 65.408 
L 248.646713 76.672 
L 256.971189 99.2 
L 265.295664 76.672 
L 273.62014 87.936 
L 281.944615 93.568 
L 290.269091 93.568 
L 298.593566 121.728 
L 306.918042 127.36 
L 315.242517 189.312 
L 323.566993 172.416 
L 331.891469 189.312 
L 340.215944 211.84 
L 348.54042 189.312 
L 356.864895 211.84 
L 365.189371 228.736 
L 373.513846 234.368 
L 381.838322 240 
L 390.162797 268.16 
L 398.487273 256.896 
L 398.487273 228.736 
L 398.487273 228.736 
L 390.162797 256.896 
L 381.838322 234.368 
L 373.513846 217.472 
L 365.189371 217.472 
L 356.864895 200.576 
L 348.54042 183.68 
L 340.215944 200.576 
L 331.891469 178.048 
L 323.566993 166.784 
L 315.242517 166.784 
L 306.918042 116.096 
L 298.593566 104.832 
L 290.269091 87.936 
L 281.944615 82.304 
L 273.62014 76.672 
L 265.295664 71.04 
L 256.971189 82.304 
L 248.646713 71.04 
L 240.322238 65.408 
L 231.997762 71.04 
L 223.673287 65.408 
L 215.348811 76.672 
L 207.024336 54.144 
L 198.69986 65.408 
L 190.375385 76.672 
L 182.050909 71.04 
L 173.726434 76.672 
L 165.401958 65.408 
L 157.077483 71.04 
L 148.753007 71.04 
L 140.428531 76.672 
L 132.104056 71.04 
L 123.77958 71.04 
L 115.455105 76.672 
L 107.130629 76.672 
L 98.806154 76.672 
L 90.481678 76.672 
L 82.157203 82.304 
L 73.832727 82.304 
z
" clip-path="url(#p8a93d8b7bc)" style="fill: #bcbd22"/>
   </g>
   <g id="PolyCollection_20">
    <path d="M 73.832727 82.304 
L 73.832727 82.304 
L 82.157203 82.304 
L 90.481678 76.672 
L 98.806154 76.672 
L 107.130629 76.672 
L 115.455105 76.672 
L 123.77958 71.04 
L 132.104056 71.04 
L 140.428531 76.672 
L 148.753007 71.04 
L 157.077483 71.04 
L 165.401958 65.408 
L 173.726434 76.672 
L 182.050909 71.04 
L 190.375385 76.672 
L 198.69986 65.408 
L 207.024336 54.144 
L 215.348811 76.672 
L 223.673287 65.408 
L 231.997762 71.04 
L 240.322238 65.408 
L 248.646713 71.04 
L 256.971189 82.304 
L 265.295664 71.04 
L 273.62014 76.672 
L 281.944615 82.304 
L 290.269091 87.936 
L 298.593566 104.832 
L 306.918042 116.096 
L 315.242517 166.784 
L 323.566993 166.784 
L 331.891469 178.048 
L 340.215944 200.576 
L 348.54042 183.68 
L 356.864895 200.576 
L 365.189371 217.472 
L 373.513846 217.472 
L 381.838322 234.368 
L 390.162797 256.896 
L 398.487273 228.736 
L 398.487273 223.104 
L 398.487273 223.104 
L 390.162797 240 
L 381.838322 223.104 
L 373.513846 206.208 
L 365.189371 194.944 
L 356.864895 178.048 
L 348.54042 166.784 
L 340.215944 183.68 
L 331.891469 166.784 
L 323.566993 155.52 
L 315.242517 149.888 
L 306.918042 110.464 
L 298.593566 82.304 
L 290.269091 76.672 
L 281.944615 65.408 
L 273.62014 71.04 
L 265.295664 71.04 
L 256.971189 82.304 
L 248.646713 71.04 
L 240.322238 65.408 
L 231.997762 71.04 
L 223.673287 65.408 
L 215.348811 76.672 
L 207.024336 54.144 
L 198.69986 65.408 
L 190.375385 76.672 
L 182.050909 71.04 
L 173.726434 76.672 
L 165.401958 65.408 
L 157.077483 71.04 
L 148.753007 71.04 
L 140.428531 76.672 
L 132.104056 71.04 
L 123.77958 71.04 
L 115.455105 76.672 
L 107.130629 76.672 
L 98.806154 76.672 
L 90.481678 76.672 
L 82.157203 82.304 
L 73.832727 82.304 
z
" clip-path="url(#p8a93d8b7bc)" style="fill: #17becf"/>
   </g>
   <g id="PolyCollection_21">
    <path d="M 73.832727 82.304 
L 73.832727 82.304 
L 82.157203 82.304 
L 90.481678 76.672 
L 98.806154 76.672 
L 107.130629 76.672 
L 115.455105 76.672 
L 123.77958 71.04 
L 132.104056 71.04 
L 140.428531 76.672 
L 148.753007 71.04 
L 157.077483 71.04 
L 165.401958 65.408 
L 173.726434 76.672 
L 182.050909 71.04 
L 190.375385 76.672 
L 198.69986 65.408 
L 207.024336 54.144 
L 215.348811 76.672 
L 223.673287 65.408 
L 231.997762 71.04 
L 240.322238 65.408 
L 248.646713 71.04 
L 256.971189 82.304 
L 265.295664 71.04 
L 273.62014 71.04 
L 281.944615 65.408 
L 290.269091 76.672 
L 298.593566 82.304 
L 306.918042 110.464 
L 315.242517 149.888 
L 323.566993 155.52 
L 331.891469 166.784 
L 340.215944 183.68 
L 348.54042 166.784 
L 356.864895 178.048 
L 365.189371 194.944 
L 373.513846 206.208 
L 381.838322 223.104 
L 390.162797 240 
L 398.487273 223.104 
L 398.487273 217.472 
L 398.487273 217.472 
L 390.162797 228.736 
L 381.838322 211.84 
L 373.513846 189.312 
L 365.189371 178.048 
L 356.864895 161.152 
L 348.54042 132.992 
L 340.215944 166.784 
L 331.891469 155.52 
L 323.566993 138.624 
L 315.242517 121.728 
L 306.918042 87.936 
L 298.593566 76.672 
L 290.269091 65.408 
L 281.944615 65.408 
L 273.62014 71.04 
L 265.295664 71.04 
L 256.971189 82.304 
L 248.646713 71.04 
L 240.322238 65.408 
L 231.997762 71.04 
L 223.673287 65.408 
L 215.348811 76.672 
L 207.024336 54.144 
L 198.69986 65.408 
L 190.375385 76.672 
L 182.050909 71.04 
L 173.726434 76.672 
L 165.401958 65.408 
L 157.077483 71.04 
L 148.753007 71.04 
L 140.428531 76.672 
L 132.104056 71.04 
L 123.77958 71.04 
L 115.455105 76.672 
L 107.130629 76.672 
L 98.806154 76.672 
L 90.481678 76.672 
L 82.157203 82.304 
L 73.832727 82.304 
z
" clip-path="url(#p8a93d8b7bc)" style="fill: #1f77b4"/>
   </g>
   <g id="PolyCollection_22">
    <path d="M 73.832727 82.304 
L 73.832727 82.304 
L 82.157203 82.304 
L 90.481678 76.672 
L 98.806154 76.672 
L 107.130629 76.672 
L 115.455105 76.672 
L 123.77958 71.04 
L 132.104056 71.04 
L 140.428531 76.672 
L 148.753007 71.04 
L 157.077483 71.04 
L 165.401958 65.408 
L 173.726434 76.672 
L 182.050909 71.04 
L 190.375385 76.672 
L 198.69986 65.408 
L 207.024336 54.144 
L 215.348811 76.672 
L 223.673287 65.408 
L 231.997762 71.04 
L 240.322238 65.408 
L 248.646713 71.04 
L 256.971189 82.304 
L 265.295664 71.04 
L 273.62014 71.04 
L 281.944615 65.408 
L 290.269091 65.408 
L 298.593566 76.672 
L 306.918042 87.936 
L 315.242517 121.728 
L 323.566993 138.624 
L 331.891469 155.52 
L 340.215944 166.784 
L 348.54042 132.992 
L 356.864895 161.152 
L 365.189371 178.048 
L 373.513846 189.312 
L 381.838322 211.84 
L 390.162797 228.736 
L 398.487273 217.472 
L 398.487273 206.208 
L 398.487273 206.208 
L 390.162797 206.208 
L 381.838322 194.944 
L 373.513846 183.68 
L 365.189371 161.152 
L 356.864895 144.256 
L 348.54042 127.36 
L 340.215944 149.888 
L 331.891469 138.624 
L 323.566993 132.992 
L 315.242517 104.832 
L 306.918042 82.304 
L 298.593566 76.672 
L 290.269091 65.408 
L 281.944615 65.408 
L 273.62014 71.04 
L 265.295664 71.04 
L 256.971189 82.304 
L 248.646713 71.04 
L 240.322238 65.408 
L 231.997762 71.04 
L 223.673287 65.408 
L 215.348811 76.672 
L 207.024336 54.144 
L 198.69986 65.408 
L 190.375385 76.672 
L 182.050909 71.04 
L 173.726434 76.672 
L 165.401958 65.408 
L 157.077483 71.04 
L 148.753007 71.04 
L 140.428531 76.672 
L 132.104056 71.04 
L 123.77958 71.04 
L 115.455105 76.672 
L 107.130629 76.672 
L 98.806154 76.672 
L 90.481678 76.672 
L 82.157203 82.304 
L 73.832727 82.304 
z
" clip-path="url(#p8a93d8b7bc)" style="fill: #ff7f0e"/>
   </g>
   <g id="PolyCollection_23">
    <path d="M 73.832727 82.304 
L 73.832727 82.304 
L 82.157203 82.304 
L 90.481678 76.672 
L 98.806154 76.672 
L 107.130629 76.672 
L 115.455105 76.672 
L 123.77958 71.04 
L 132.104056 71.04 
L 140.428531 76.672 
L 148.753007 71.04 
L 157.077483 71.04 
L 165.401958 65.408 
L 173.726434 76.672 
L 182.050909 71.04 
L 190.375385 76.672 
L 198.69986 65.408 
L 207.024336 54.144 
L 215.348811 76.672 
L 223.673287 65.408 
L 231.997762 71.04 
L 240.322238 65.408 
L 248.646713 71.04 
L 256.971189 82.304 
L 265.295664 71.04 
L 273.62014 71.04 
L 281.944615 65.408 
L 290.269091 65.408 
L 298.593566 76.672 
L 306.918042 82.304 
L 315.242517 104.832 
L 323.566993 132.992 
L 331.891469 138.624 
L 340.215944 149.888 
L 348.54042 127.36 
L 356.864895 144.256 
L 365.189371 161.152 
L 373.513846 183.68 
L 381.838322 194.944 
L 390.162797 206.208 
L 398.487273 206.208 
L 398.487273 194.944 
L 398.487273 194.944 
L 390.162797 200.576 
L 381.838322 178.048 
L 373.513846 172.416 
L 365.189371 149.888 
L 356.864895 138.624 
L 348.54042 116.096 
L 340.215944 132.992 
L 331.891469 132.992 
L 323.566993 121.728 
L 315.242517 99.2 
L 306.918042 71.04 
L 298.593566 76.672 
L 290.269091 65.408 
L 281.944615 65.408 
L 273.62014 71.04 
L 265.295664 71.04 
L 256.971189 82.304 
L 248.646713 71.04 
L 240.322238 65.408 
L 231.997762 71.04 
L 223.673287 65.408 
L 215.348811 76.672 
L 207.024336 54.144 
L 198.69986 65.408 
L 190.375385 76.672 
L 182.050909 71.04 
L 173.726434 76.672 
L 165.401958 65.408 
L 157.077483 71.04 
L 148.753007 71.04 
L 140.428531 76.672 
L 132.104056 71.04 
L 123.77958 71.04 
L 115.455105 76.672 
L 107.130629 76.672 
L 98.806154 76.672 
L 90.481678 76.672 
L 82.157203 82.304 
L 73.832727 82.304 
z
" clip-path="url(#p8a93d8b7bc)" style="fill: #2ca02c"/>
   </g>
   <g id="PolyCollection_24">
    <path d="M 73.832727 82.304 
L 73.832727 82.304 
L 82.157203 82.304 
L 90.481678 76.672 
L 98.806154 76.672 
L 107.130629 76.672 
L 115.455105 76.672 
L 123.77958 71.04 
L 132.104056 71.04 
L 140.428531 76.672 
L 148.753007 71.04 
L 157.077483 71.04 
L 165.401958 65.408 
L 173.726434 76.672 
L 182.050909 71.04 
L 190.375385 76.672 
L 198.69986 65.408 
L 207.024336 54.144 
L 215.348811 76.672 
L 223.673287 65.408 
L 231.997762 71.04 
L 240.322238 65.408 
L 248.646713 71.04 
L 256.971189 82.304 
L 265.295664 71.04 
L 273.62014 71.04 
L 281.944615 65.408 
L 290.269091 65.408 
L 298.593566 76.672 
L 306.918042 71.04 
L 315.242517 99.2 
L 323.566993 121.728 
L 331.891469 132.992 
L 340.215944 132.992 
L 348.54042 116.096 
L 356.864895 138.624 
L 365.189371 149.888 
L 373.513846 172.416 
L 381.838322 178.048 
L 390.162797 200.576 
L 398.487273 194.944 
L 398.487273 183.68 
L 398.487273 183.68 
L 390.162797 178.048 
L 381.838322 155.52 
L 373.513846 161.152 
L 365.189371 144.256 
L 356.864895 116.096 
L 348.54042 110.464 
L 340.215944 116.096 
L 331.891469 121.728 
L 323.566993 116.096 
L 315.242517 82.304 
L 306.918042 65.408 
L 298.593566 76.672 
L 290.269091 65.408 
L 281.944615 65.408 
L 273.62014 71.04 
L 265.295664 71.04 
L 256.971189 82.304 
L 248.646713 71.04 
L 240.322238 65.408 
L 231.997762 71.04 
L 223.673287 65.408 
L 215.348811 76.672 
L 207.024336 54.144 
L 198.69986 65.408 
L 190.375385 76.672 
L 182.050909 71.04 
L 173.726434 76.672 
L 165.401958 65.408 
L 157.077483 71.04 
L 148.753007 71.04 
L 140.428531 76.672 
L 132.104056 71.04 
L 123.77958 71.04 
L 115.455105 76.672 
L 107.130629 76.672 
L 98.806154 76.672 
L 90.481678 76.672 
L 82.157203 82.304 
L 73.832727 82.304 
z
" clip-path="url(#p8a93d8b7bc)" style="fill: #d62728"/>
   </g>
   <g id="PolyCollection_25">
    <path d="M 73.832727 82.304 
L 73.832727 82.304 
L 82.157203 82.304 
L 90.481678 76.672 
L 98.806154 76.672 
L 107.130629 76.672 
L 115.455105 76.672 
L 123.77958 71.04 
L 132.104056 71.04 
L 140.428531 76.672 
L 148.753007 71.04 
L 157.077483 71.04 
L 165.401958 65.408 
L 173.726434 76.672 
L 182.050909 71.04 
L 190.375385 76.672 
L 198.69986 65.408 
L 207.024336 54.144 
L 215.348811 76.672 
L 223.673287 65.408 
L 231.997762 71.04 
L 240.322238 65.408 
L 248.646713 71.04 
L 256.971189 82.304 
L 265.295664 71.04 
L 273.62014 71.04 
L 281.944615 65.408 
L 290.269091 65.408 
L 298.593566 76.672 
L 306.918042 65.408 
L 315.242517 82.304 
L 323.566993 116.096 
L 331.891469 121.728 
L 340.215944 116.096 
L 348.54042 110.464 
L 356.864895 116.096 
L 365.189371 144.256 
L 373.513846 161.152 
L 381.838322 155.52 
L 390.162797 178.048 
L 398.487273 183.68 
L 398.487273 172.416 
L 398.487273 172.416 
L 390.162797 166.784 
L 381.838322 149.888 
L 373.513846 149.888 
L 365.189371 127.36 
L 356.864895 104.832 
L 348.54042 99.2 
L 340.215944 99.2 
L 331.891469 116.096 
L 323.566993 104.832 
L 315.242517 76.672 
L 306.918042 65.408 
L 298.593566 76.672 
L 290.269091 65.408 
L 281.944615 65.408 
L 273.62014 71.04 
L 265.295664 71.04 
L 256.971189 82.304 
L 248.646713 71.04 
L 240.322238 65.408 
L 231.997762 71.04 
L 223.673287 65.408 
L 215.348811 76.672 
L 207.024336 54.144 
L 198.69986 65.408 
L 190.375385 76.672 
L 182.050909 71.04 
L 173.726434 76.672 
L 165.401958 65.408 
L 157.077483 71.04 
L 148.753007 71.04 
L 140.428531 76.672 
L 132.104056 71.04 
L 123.77958 71.04 
L 115.455105 76.672 
L 107.130629 76.672 
L 98.806154 76.672 
L 90.481678 76.672 
L 82.157203 82.304 
L 73.832727 82.304 
z
" clip-path="url(#p8a93d8b7bc)" style="fill: #9467bd"/>
   </g>
   <g id="PolyCollection_26">
    <path d="M 73.832727 82.304 
L 73.832727 82.304 
L 82.157203 82.304 
L 90.481678 76.672 
L 98.806154 76.672 
L 107.130629 76.672 
L 115.455105 76.672 
L 123.77958 71.04 
L 132.104056 71.04 
L 140.428531 76.672 
L 148.753007 71.04 
L 157.077483 71.04 
L 165.401958 65.408 
L 173.726434 76.672 
L 182.050909 71.04 
L 190.375385 76.672 
L 198.69986 65.408 
L 207.024336 54.144 
L 215.348811 76.672 
L 223.673287 65.408 
L 231.997762 71.04 
L 240.322238 65.408 
L 248.646713 71.04 
L 256.971189 82.304 
L 265.295664 71.04 
L 273.62014 71.04 
L 281.944615 65.408 
L 290.269091 65.408 
L 298.593566 76.672 
L 306.918042 65.408 
L 315.242517 76.672 
L 323.566993 104.832 
L 331.891469 116.096 
L 340.215944 99.2 
L 348.54042 99.2 
L 356.864895 104.832 
L 365.189371 127.36 
L 373.513846 149.888 
L 381.838322 149.888 
L 390.162797 166.784 
L 398.487273 172.416 
L 398.487273 116.096 
L 398.487273 116.096 
L 390.162797 121.728 
L 381.838322 138.624 
L 373.513846 127.36 
L 365.189371 116.096 
L 356.864895 71.04 
L 348.54042 82.304 
L 340.215944 65.408 
L 331.891469 76.672 
L 323.566993 93.568 
L 315.242517 76.672 
L 306.918042 65.408 
L 298.593566 76.672 
L 290.269091 65.408 
L 281.944615 65.408 
L 273.62014 71.04 
L 265.295664 71.04 
L 256.971189 82.304 
L 248.646713 71.04 
L 240.322238 65.408 
L 231.997762 71.04 
L 223.673287 65.408 
L 215.348811 76.672 
L 207.024336 54.144 
L 198.69986 65.408 
L 190.375385 76.672 
L 182.050909 71.04 
L 173.726434 76.672 
L 165.401958 65.408 
L 157.077483 71.04 
L 148.753007 71.04 
L 140.428531 76.672 
L 132.104056 71.04 
L 123.77958 71.04 
L 115.455105 76.672 
L 107.130629 76.672 
L 98.806154 76.672 
L 90.481678 76.672 
L 82.157203 82.304 
L 73.832727 82.304 
z
" clip-path="url(#p8a93d8b7bc)" style="fill: #8c564b"/>
   </g>
   <g id="PolyCollection_27">
    <path d="M 73.832727 82.304 
L 73.832727 82.304 
L 82.157203 82.304 
L 90.481678 76.672 
L 98.806154 76.672 
L 107.130629 76.672 
L 115.455105 76.672 
L 123.77958 71.04 
L 132.104056 71.04 
L 140.428531 76.672 
L 148.753007 71.04 
L 157.077483 71.04 
L 165.401958 65.408 
L 173.726434 76.672 
L 182.050909 71.04 
L 190.375385 76.672 
L 198.69986 65.408 
L 207.024336 54.144 
L 215.348811 76.672 
L 223.673287 65.408 
L 231.997762 71.04 
L 240.322238 65.408 
L 248.646713 71.04 
L 256.971189 82.304 
L 265.295664 71.04 
L 273.62014 71.04 
L 281.944615 65.408 
L 290.269091 65.408 
L 298.593566 76.672 
L 306.918042 65.408 
L 315.242517 76.672 
L 323.566993 93.568 
L 331.891469 76.672 
L 340.215944 65.408 
L 348.54042 82.304 
L 356.864895 71.04 
L 365.189371 116.096 
L 373.513846 127.36 
L 381.838322 138.624 
L 390.162797 121.728 
L 398.487273 116.096 
L 398.487273 99.2 
L 398.487273 99.2 
L 390.162797 110.464 
L 381.838322 127.36 
L 373.513846 110.464 
L 365.189371 104.832 
L 356.864895 65.408 
L 348.54042 65.408 
L 340.215944 59.776 
L 331.891469 71.04 
L 323.566993 93.568 
L 315.242517 76.672 
L 306.918042 65.408 
L 298.593566 76.672 
L 290.269091 65.408 
L 281.944615 65.408 
L 273.62014 71.04 
L 265.295664 71.04 
L 256.971189 82.304 
L 248.646713 71.04 
L 240.322238 65.408 
L 231.997762 71.04 
L 223.673287 65.408 
L 215.348811 76.672 
L 207.024336 54.144 
L 198.69986 65.408 
L 190.375385 76.672 
L 182.050909 71.04 
L 173.726434 76.672 
L 165.401958 65.408 
L 157.077483 71.04 
L 148.753007 71.04 
L 140.428531 76.672 
L 132.104056 71.04 
L 123.77958 71.04 
L 115.455105 76.672 
L 107.130629 76.672 
L 98.806154 76.672 
L 90.481678 76.672 
L 82.157203 82.304 
L 73.832727 82.304 
z
" clip-path="url(#p8a93d8b7bc)" style="fill: #e377c2"/>
   </g>
   <g id="PolyCollection_28">
    <path d="M 73.832727 82.304 
L 73.832727 82.304 
L 82.157203 82.304 
L 90.481678 76.672 
L 98.806154 76.672 
L 107.130629 76.672 
L 115.455105 76.672 
L 123.77958 71.04 
L 132.104056 71.04 
L 140.428531 76.672 
L 148.753007 71.04 
L 157.077483 71.04 
L 165.401958 65.408 
L 173.726434 76.672 
L 182.050909 71.04 
L 190.375385 76.672 
L 198.69986 65.408 
L 207.024336 54.144 
L 215.348811 76.672 
L 223.673287 65.408 
L 231.997762 71.04 
L 240.322238 65.408 
L 248.646713 71.04 
L 256.971189 82.304 
L 265.295664 71.04 
L 273.62014 71.04 
L 281.944615 65.408 
L 290.269091 65.408 
L 298.593566 76.672 
L 306.918042 65.408 
L 315.242517 76.672 
L 323.566993 93.568 
L 331.891469 71.04 
L 340.215944 59.776 
L 348.54042 65.408 
L 356.864895 65.408 
L 365.189371 104.832 
L 373.513846 110.464 
L 381.838322 127.36 
L 390.162797 110.464 
L 398.487273 99.2 
L 398.487273 87.936 
L 398.487273 87.936 
L 390.162797 93.568 
L 381.838322 104.832 
L 373.513846 93.568 
L 365.189371 87.936 
L 356.864895 59.776 
L 348.54042 65.408 
L 340.215944 59.776 
L 331.891469 71.04 
L 323.566993 93.568 
L 315.242517 76.672 
L 306.918042 65.408 
L 298.593566 76.672 
L 290.269091 65.408 
L 281.944615 65.408 
L 273.62014 71.04 
L 265.295664 71.04 
L 256.971189 82.304 
L 248.646713 71.04 
L 240.322238 65.408 
L 231.997762 71.04 
L 223.673287 65.408 
L 215.348811 76.672 
L 207.024336 54.144 
L 198.69986 65.408 
L 190.375385 76.672 
L 182.050909 71.04 
L 173.726434 76.672 
L 165.401958 65.408 
L 157.077483 71.04 
L 148.753007 71.04 
L 140.428531 76.672 
L 132.104056 71.04 
L 123.77958 71.04 
L 115.455105 76.672 
L 107.130629 76.672 
L 98.806154 76.672 
L 90.481678 76.672 
L 82.157203 82.304 
L 73.832727 82.304 
z
" clip-path="url(#p8a93d8b7bc)" style="fill: #7f7f7f"/>
   </g>
   <g id="PolyCollection_29">
    <path d="M 73.832727 82.304 
L 73.832727 82.304 
L 82.157203 82.304 
L 90.481678 76.672 
L 98.806154 76.672 
L 107.130629 76.672 
L 115.455105 76.672 
L 123.77958 71.04 
L 132.104056 71.04 
L 140.428531 76.672 
L 148.753007 71.04 
L 157.077483 71.04 
L 165.401958 65.408 
L 173.726434 76.672 
L 182.050909 71.04 
L 190.375385 76.672 
L 198.69986 65.408 
L 207.024336 54.144 
L 215.348811 76.672 
L 223.673287 65.408 
L 231.997762 71.04 
L 240.322238 65.408 
L 248.646713 71.04 
L 256.971189 82.304 
L 265.295664 71.04 
L 273.62014 71.04 
L 281.944615 65.408 
L 290.269091 65.408 
L 298.593566 76.672 
L 306.918042 65.408 
L 315.242517 76.672 
L 323.566993 93.568 
L 331.891469 71.04 
L 340.215944 59.776 
L 348.54042 65.408 
L 356.864895 59.776 
L 365.189371 87.936 
L 373.513846 93.568 
L 381.838322 104.832 
L 390.162797 93.568 
L 398.487273 87.936 
L 398.487273 76.672 
L 398.487273 76.672 
L 390.162797 82.304 
L 381.838322 93.568 
L 373.513846 82.304 
L 365.189371 82.304 
L 356.864895 59.776 
L 348.54042 65.408 
L 340.215944 59.776 
L 331.891469 71.04 
L 323.566993 93.568 
L 315.242517 76.672 
L 306.918042 65.408 
L 298.593566 76.672 
L 290.269091 65.408 
L 281.944615 65.408 
L 273.62014 71.04 
L 265.295664 71.04 
L 256.971189 82.304 
L 248.646713 71.04 
L 240.322238 65.408 
L 231.997762 71.04 
L 223.673287 65.408 
L 215.348811 76.672 
L 207.024336 54.144 
L 198.69986 65.408 
L 190.375385 76.672 
L 182.050909 71.04 
L 173.726434 76.672 
L 165.401958 65.408 
L 157.077483 71.04 
L 148.753007 71.04 
L 140.428531 76.672 
L 132.104056 71.04 
L 123.77958 71.04 
L 115.455105 76.672 
L 107.130629 76.672 
L 98.806154 76.672 
L 90.481678 76.672 
L 82.157203 82.304 
L 73.832727 82.304 
z
" clip-path="url(#p8a93d8b7bc)" style="fill: #bcbd22"/>
   </g>
   <g id="PolyCollection_30">
    <path d="M 73.832727 82.304 
L 73.832727 82.304 
L 82.157203 82.304 
L 90.481678 76.672 
L 98.806154 76.672 
L 107.130629 76.672 
L 115.455105 76.672 
L 123.77958 71.04 
L 132.104056 71.04 
L 140.428531 76.672 
L 148.753007 71.04 
L 157.077483 71.04 
L 165.401958 65.408 
L 173.726434 76.672 
L 182.050909 71.04 
L 190.375385 76.672 
L 198.69986 65.408 
L 207.024336 54.144 
L 215.348811 76.672 
L 223.673287 65.408 
L 231.997762 71.04 
L 240.322238 65.408 
L 248.646713 71.04 
L 256.971189 82.304 
L 265.295664 71.04 
L 273.62014 71.04 
L 281.944615 65.408 
L 290.269091 65.408 
L 298.593566 76.672 
L 306.918042 65.408 
L 315.242517 76.672 
L 323.566993 93.568 
L 331.891469 71.04 
L 340.215944 59.776 
L 348.54042 65.408 
L 356.864895 59.776 
L 365.189371 82.304 
L 373.513846 82.304 
L 381.838322 93.568 
L 390.162797 82.304 
L 398.487273 76.672 
L 398.487273 65.408 
L 398.487273 65.408 
L 390.162797 65.408 
L 381.838322 65.408 
L 373.513846 76.672 
L 365.189371 76.672 
L 356.864895 59.776 
L 348.54042 65.408 
L 340.215944 59.776 
L 331.891469 71.04 
L 323.566993 93.568 
L 315.242517 76.672 
L 306.918042 65.408 
L 298.593566 76.672 
L 290.269091 65.408 
L 281.944615 65.408 
L 273.62014 71.04 
L 265.295664 71.04 
L 256.971189 82.304 
L 248.646713 71.04 
L 240.322238 65.408 
L 231.997762 71.04 
L 223.673287 65.408 
L 215.348811 76.672 
L 207.024336 54.144 
L 198.69986 65.408 
L 190.375385 76.672 
L 182.050909 71.04 
L 173.726434 76.672 
L 165.401958 65.408 
L 157.077483 71.04 
L 148.753007 71.04 
L 140.428531 76.672 
L 132.104056 71.04 
L 123.77958 71.04 
L 115.455105 76.672 
L 107.130629 76.672 
L 98.806154 76.672 
L 90.481678 76.672 
L 82.157203 82.304 
L 73.832727 82.304 
z
" clip-path="url(#p8a93d8b7bc)" style="fill: #17becf"/>
   </g>
   <g id="matplotlib.axis_1">
    <g id="xtick_1">
     <g id="line2d_1">
      <defs>
       <path id="mfbb5189659" d="M 0 0 
L 0 3.5 
" style="stroke: #000000; stroke-width: 0.8"/>
      </defs>
      <g>
       <use xlink:href="#mfbb5189659" x="73.832727" y="307.584" style="stroke: #000000; stroke-width: 0.8"/>
      </g>
     </g>
     <g id="text_1">
      <!-- 0 -->
      <g transform="translate(70.651477 322.182437) scale(0.1 -0.1)">
       <defs>
        <path id="DejaVuSans-30" d="M 2034 4250 
Q 1547 4250 1301 3770 
Q 1056 3291 1056 2328 
Q 1056 1369 1301 889 
Q 1547 409 2034 409 
Q 2525 409 2770 889 
Q 3016 1369 3016 2328 
Q 3016 3291 2770 3770 
Q 2525 4250 2034 4250 
z
M 2034 4750 
Q 2819 4750 3233 4129 
Q 3647 3509 3647 2328 
Q 3647 1150 3233 529 
Q 2819 -91 2034 -91 
Q 1250 -91 836 529 
Q 422 1150 422 2328 
Q 422 3509 836 4129 
Q 1250 4750 2034 4750 
z
" transform="scale(0.015625)"/>
       </defs>
       <use xlink:href="#DejaVuSans-30"/>
      </g>
     </g>
    </g>
    <g id="xtick_2">
     <g id="line2d_2">
      <g>
       <use xlink:href="#mfbb5189659" x="115.455105" y="307.584" style="stroke: #000000; stroke-width: 0.8"/>
      </g>
     </g>
     <g id="text_2">
      <!-- 5 -->
      <g transform="translate(112.273855 322.182437) scale(0.1 -0.1)">
       <defs>
        <path id="DejaVuSans-35" d="M 691 4666 
L 3169 4666 
L 3169 4134 
L 1269 4134 
L 1269 2991 
Q 1406 3038 1543 3061 
Q 1681 3084 1819 3084 
Q 2600 3084 3056 2656 
Q 3513 2228 3513 1497 
Q 3513 744 3044 326 
Q 2575 -91 1722 -91 
Q 1428 -91 1123 -41 
Q 819 9 494 109 
L 494 744 
Q 775 591 1075 516 
Q 1375 441 1709 441 
Q 2250 441 2565 725 
Q 2881 1009 2881 1497 
Q 2881 1984 2565 2268 
Q 2250 2553 1709 2553 
Q 1456 2553 1204 2497 
Q 953 2441 691 2322 
L 691 4666 
z
" transform="scale(0.015625)"/>
       </defs>
       <use xlink:href="#DejaVuSans-35"/>
      </g>
     </g>
    </g>
    <g id="xtick_3">
     <g id="line2d_3">
      <g>
       <use xlink:href="#mfbb5189659" x="157.077483" y="307.584" style="stroke: #000000; stroke-width: 0.8"/>
      </g>
     </g>
     <g id="text_3">
      <!-- 10 -->
      <g transform="translate(150.714983 322.182437) scale(0.1 -0.1)">
       <defs>
        <path id="DejaVuSans-31" d="M 794 531 
L 1825 531 
L 1825 4091 
L 703 3866 
L 703 4441 
L 1819 4666 
L 2450 4666 
L 2450 531 
L 3481 531 
L 3481 0 
L 794 0 
L 794 531 
z
" transform="scale(0.015625)"/>
       </defs>
       <use xlink:href="#DejaVuSans-31"/>
       <use xlink:href="#DejaVuSans-30" x="63.623047"/>
      </g>
     </g>
    </g>
    <g id="xtick_4">
     <g id="line2d_4">
      <g>
       <use xlink:href="#mfbb5189659" x="198.69986" y="307.584" style="stroke: #000000; stroke-width: 0.8"/>
      </g>
     </g>
     <g id="text_4">
      <!-- 15 -->
      <g transform="translate(192.33736 322.182437) scale(0.1 -0.1)">
       <use xlink:href="#DejaVuSans-31"/>
       <use xlink:href="#DejaVuSans-35" x="63.623047"/>
      </g>
     </g>
    </g>
    <g id="xtick_5">
     <g id="line2d_5">
      <g>
       <use xlink:href="#mfbb5189659" x="240.322238" y="307.584" style="stroke: #000000; stroke-width: 0.8"/>
      </g>
     </g>
     <g id="text_5">
      <!-- 20 -->
      <g transform="translate(233.959738 322.182437) scale(0.1 -0.1)">
       <defs>
        <path id="DejaVuSans-32" d="M 1228 531 
L 3431 531 
L 3431 0 
L 469 0 
L 469 531 
Q 828 903 1448 1529 
Q 2069 2156 2228 2338 
Q 2531 2678 2651 2914 
Q 2772 3150 2772 3378 
Q 2772 3750 2511 3984 
Q 2250 4219 1831 4219 
Q 1534 4219 1204 4116 
Q 875 4013 500 3803 
L 500 4441 
Q 881 4594 1212 4672 
Q 1544 4750 1819 4750 
Q 2544 4750 2975 4387 
Q 3406 4025 3406 3419 
Q 3406 3131 3298 2873 
Q 3191 2616 2906 2266 
Q 2828 2175 2409 1742 
Q 1991 1309 1228 531 
z
" transform="scale(0.015625)"/>
       </defs>
       <use xlink:href="#DejaVuSans-32"/>
       <use xlink:href="#DejaVuSans-30" x="63.623047"/>
      </g>
     </g>
    </g>
    <g id="xtick_6">
     <g id="line2d_6">
      <g>
       <use xlink:href="#mfbb5189659" x="281.944615" y="307.584" style="stroke: #000000; stroke-width: 0.8"/>
      </g>
     </g>
     <g id="text_6">
      <!-- 25 -->
      <g transform="translate(275.582115 322.182437) scale(0.1 -0.1)">
       <use xlink:href="#DejaVuSans-32"/>
       <use xlink:href="#DejaVuSans-35" x="63.623047"/>
      </g>
     </g>
    </g>
    <g id="xtick_7">
     <g id="line2d_7">
      <g>
       <use xlink:href="#mfbb5189659" x="323.566993" y="307.584" style="stroke: #000000; stroke-width: 0.8"/>
      </g>
     </g>
     <g id="text_7">
      <!-- 30 -->
      <g transform="translate(317.204493 322.182437) scale(0.1 -0.1)">
       <defs>
        <path id="DejaVuSans-33" d="M 2597 2516 
Q 3050 2419 3304 2112 
Q 3559 1806 3559 1356 
Q 3559 666 3084 287 
Q 2609 -91 1734 -91 
Q 1441 -91 1130 -33 
Q 819 25 488 141 
L 488 750 
Q 750 597 1062 519 
Q 1375 441 1716 441 
Q 2309 441 2620 675 
Q 2931 909 2931 1356 
Q 2931 1769 2642 2001 
Q 2353 2234 1838 2234 
L 1294 2234 
L 1294 2753 
L 1863 2753 
Q 2328 2753 2575 2939 
Q 2822 3125 2822 3475 
Q 2822 3834 2567 4026 
Q 2313 4219 1838 4219 
Q 1578 4219 1281 4162 
Q 984 4106 628 3988 
L 628 4550 
Q 988 4650 1302 4700 
Q 1616 4750 1894 4750 
Q 2613 4750 3031 4423 
Q 3450 4097 3450 3541 
Q 3450 3153 3228 2886 
Q 3006 2619 2597 2516 
z
" transform="scale(0.015625)"/>
       </defs>
       <use xlink:href="#DejaVuSans-33"/>
       <use xlink:href="#DejaVuSans-30" x="63.623047"/>
      </g>
     </g>
    </g>
    <g id="xtick_8">
     <g id="line2d_8">
      <g>
       <use xlink:href="#mfbb5189659" x="365.189371" y="307.584" style="stroke: #000000; stroke-width: 0.8"/>
      </g>
     </g>
     <g id="text_8">
      <!-- 35 -->
      <g transform="translate(358.826871 322.182437) scale(0.1 -0.1)">
       <use xlink:href="#DejaVuSans-33"/>
       <use xlink:href="#DejaVuSans-35" x="63.623047"/>
      </g>
     </g>
    </g>
    <g id="xtick_9">
     <g id="line2d_9">
      <g>
       <use xlink:href="#mfbb5189659" x="406.811748" y="307.584" style="stroke: #000000; stroke-width: 0.8"/>
      </g>
     </g>
     <g id="text_9">
      <!-- 40 -->
      <g transform="translate(400.449248 322.182437) scale(0.1 -0.1)">
       <defs>
        <path id="DejaVuSans-34" d="M 2419 4116 
L 825 1625 
L 2419 1625 
L 2419 4116 
z
M 2253 4666 
L 3047 4666 
L 3047 1625 
L 3713 1625 
L 3713 1100 
L 3047 1100 
L 3047 0 
L 2419 0 
L 2419 1100 
L 313 1100 
L 313 1709 
L 2253 4666 
z
" transform="scale(0.015625)"/>
       </defs>
       <use xlink:href="#DejaVuSans-34"/>
       <use xlink:href="#DejaVuSans-30" x="63.623047"/>
      </g>
     </g>
    </g>
    <g id="text_10">
     <!-- Generations -->
     <g transform="translate(205.662344 335.860562) scale(0.1 -0.1)">
      <defs>
       <path id="DejaVuSans-47" d="M 3809 666 
L 3809 1919 
L 2778 1919 
L 2778 2438 
L 4434 2438 
L 4434 434 
Q 4069 175 3628 42 
Q 3188 -91 2688 -91 
Q 1594 -91 976 548 
Q 359 1188 359 2328 
Q 359 3472 976 4111 
Q 1594 4750 2688 4750 
Q 3144 4750 3555 4637 
Q 3966 4525 4313 4306 
L 4313 3634 
Q 3963 3931 3569 4081 
Q 3175 4231 2741 4231 
Q 1884 4231 1454 3753 
Q 1025 3275 1025 2328 
Q 1025 1384 1454 906 
Q 1884 428 2741 428 
Q 3075 428 3337 486 
Q 3600 544 3809 666 
z
" transform="scale(0.015625)"/>
       <path id="DejaVuSans-65" d="M 3597 1894 
L 3597 1613 
L 953 1613 
Q 991 1019 1311 708 
Q 1631 397 2203 397 
Q 2534 397 2845 478 
Q 3156 559 3463 722 
L 3463 178 
Q 3153 47 2828 -22 
Q 2503 -91 2169 -91 
Q 1331 -91 842 396 
Q 353 884 353 1716 
Q 353 2575 817 3079 
Q 1281 3584 2069 3584 
Q 2775 3584 3186 3129 
Q 3597 2675 3597 1894 
z
M 3022 2063 
Q 3016 2534 2758 2815 
Q 2500 3097 2075 3097 
Q 1594 3097 1305 2825 
Q 1016 2553 972 2059 
L 3022 2063 
z
" transform="scale(0.015625)"/>
       <path id="DejaVuSans-6e" d="M 3513 2113 
L 3513 0 
L 2938 0 
L 2938 2094 
Q 2938 2591 2744 2837 
Q 2550 3084 2163 3084 
Q 1697 3084 1428 2787 
Q 1159 2491 1159 1978 
L 1159 0 
L 581 0 
L 581 3500 
L 1159 3500 
L 1159 2956 
Q 1366 3272 1645 3428 
Q 1925 3584 2291 3584 
Q 2894 3584 3203 3211 
Q 3513 2838 3513 2113 
z
" transform="scale(0.015625)"/>
       <path id="DejaVuSans-72" d="M 2631 2963 
Q 2534 3019 2420 3045 
Q 2306 3072 2169 3072 
Q 1681 3072 1420 2755 
Q 1159 2438 1159 1844 
L 1159 0 
L 581 0 
L 581 3500 
L 1159 3500 
L 1159 2956 
Q 1341 3275 1631 3429 
Q 1922 3584 2338 3584 
Q 2397 3584 2469 3576 
Q 2541 3569 2628 3553 
L 2631 2963 
z
" transform="scale(0.015625)"/>
       <path id="DejaVuSans-61" d="M 2194 1759 
Q 1497 1759 1228 1600 
Q 959 1441 959 1056 
Q 959 750 1161 570 
Q 1363 391 1709 391 
Q 2188 391 2477 730 
Q 2766 1069 2766 1631 
L 2766 1759 
L 2194 1759 
z
M 3341 1997 
L 3341 0 
L 2766 0 
L 2766 531 
Q 2569 213 2275 61 
Q 1981 -91 1556 -91 
Q 1019 -91 701 211 
Q 384 513 384 1019 
Q 384 1609 779 1909 
Q 1175 2209 1959 2209 
L 2766 2209 
L 2766 2266 
Q 2766 2663 2505 2880 
Q 2244 3097 1772 3097 
Q 1472 3097 1187 3025 
Q 903 2953 641 2809 
L 641 3341 
Q 956 3463 1253 3523 
Q 1550 3584 1831 3584 
Q 2591 3584 2966 3190 
Q 3341 2797 3341 1997 
z
" transform="scale(0.015625)"/>
       <path id="DejaVuSans-74" d="M 1172 4494 
L 1172 3500 
L 2356 3500 
L 2356 3053 
L 1172 3053 
L 1172 1153 
Q 1172 725 1289 603 
Q 1406 481 1766 481 
L 2356 481 
L 2356 0 
L 1766 0 
Q 1100 0 847 248 
Q 594 497 594 1153 
L 594 3053 
L 172 3053 
L 172 3500 
L 594 3500 
L 594 4494 
L 1172 4494 
z
" transform="scale(0.015625)"/>
       <path id="DejaVuSans-69" d="M 603 3500 
L 1178 3500 
L 1178 0 
L 603 0 
L 603 3500 
z
M 603 4863 
L 1178 4863 
L 1178 4134 
L 603 4134 
L 603 4863 
z
" transform="scale(0.015625)"/>
       <path id="DejaVuSans-6f" d="M 1959 3097 
Q 1497 3097 1228 2736 
Q 959 2375 959 1747 
Q 959 1119 1226 758 
Q 1494 397 1959 397 
Q 2419 397 2687 759 
Q 2956 1122 2956 1747 
Q 2956 2369 2687 2733 
Q 2419 3097 1959 3097 
z
M 1959 3584 
Q 2709 3584 3137 3096 
Q 3566 2609 3566 1747 
Q 3566 888 3137 398 
Q 2709 -91 1959 -91 
Q 1206 -91 779 398 
Q 353 888 353 1747 
Q 353 2609 779 3096 
Q 1206 3584 1959 3584 
z
" transform="scale(0.015625)"/>
       <path id="DejaVuSans-73" d="M 2834 3397 
L 2834 2853 
Q 2591 2978 2328 3040 
Q 2066 3103 1784 3103 
Q 1356 3103 1142 2972 
Q 928 2841 928 2578 
Q 928 2378 1081 2264 
Q 1234 2150 1697 2047 
L 1894 2003 
Q 2506 1872 2764 1633 
Q 3022 1394 3022 966 
Q 3022 478 2636 193 
Q 2250 -91 1575 -91 
Q 1294 -91 989 -36 
Q 684 19 347 128 
L 347 722 
Q 666 556 975 473 
Q 1284 391 1588 391 
Q 1994 391 2212 530 
Q 2431 669 2431 922 
Q 2431 1156 2273 1281 
Q 2116 1406 1581 1522 
L 1381 1569 
Q 847 1681 609 1914 
Q 372 2147 372 2553 
Q 372 3047 722 3315 
Q 1072 3584 1716 3584 
Q 2034 3584 2315 3537 
Q 2597 3491 2834 3397 
z
" transform="scale(0.015625)"/>
      </defs>
      <use xlink:href="#DejaVuSans-47"/>
      <use xlink:href="#DejaVuSans-65" x="77.490234"/>
      <use xlink:href="#DejaVuSans-6e" x="139.013672"/>
      <use xlink:href="#DejaVuSans-65" x="202.392578"/>
      <use xlink:href="#DejaVuSans-72" x="263.916016"/>
      <use xlink:href="#DejaVuSans-61" x="305.029297"/>
      <use xlink:href="#DejaVuSans-74" x="366.308594"/>
      <use xlink:href="#DejaVuSans-69" x="405.517578"/>
      <use xlink:href="#DejaVuSans-6f" x="433.300781"/>
      <use xlink:href="#DejaVuSans-6e" x="494.482422"/>
      <use xlink:href="#DejaVuSans-73" x="557.861328"/>
     </g>
    </g>
   </g>
   <g id="matplotlib.axis_2">
    <g id="ytick_1">
     <g id="line2d_10">
      <defs>
       <path id="md8deab0c21" d="M 0 0 
L -3.5 0 
" style="stroke: #000000; stroke-width: 0.8"/>
      </defs>
      <g>
       <use xlink:href="#md8deab0c21" x="57.6" y="307.584" style="stroke: #000000; stroke-width: 0.8"/>
      </g>
     </g>
     <g id="text_11">
      <!-- 0 -->
      <g transform="translate(44.2375 311.383219) scale(0.1 -0.1)">
       <use xlink:href="#DejaVuSans-30"/>
      </g>
     </g>
    </g>
    <g id="ytick_2">
     <g id="line2d_11">
      <g>
       <use xlink:href="#md8deab0c21" x="57.6" y="251.264" style="stroke: #000000; stroke-width: 0.8"/>
      </g>
     </g>
     <g id="text_12">
      <!-- 10 -->
      <g transform="translate(37.875 255.063219) scale(0.1 -0.1)">
       <use xlink:href="#DejaVuSans-31"/>
       <use xlink:href="#DejaVuSans-30" x="63.623047"/>
      </g>
     </g>
    </g>
    <g id="ytick_3">
     <g id="line2d_12">
      <g>
       <use xlink:href="#md8deab0c21" x="57.6" y="194.944" style="stroke: #000000; stroke-width: 0.8"/>
      </g>
     </g>
     <g id="text_13">
      <!-- 20 -->
      <g transform="translate(37.875 198.743219) scale(0.1 -0.1)">
       <use xlink:href="#DejaVuSans-32"/>
       <use xlink:href="#DejaVuSans-30" x="63.623047"/>
      </g>
     </g>
    </g>
    <g id="ytick_4">
     <g id="line2d_13">
      <g>
       <use xlink:href="#md8deab0c21" x="57.6" y="138.624" style="stroke: #000000; stroke-width: 0.8"/>
      </g>
     </g>
     <g id="text_14">
      <!-- 30 -->
      <g transform="translate(37.875 142.423219) scale(0.1 -0.1)">
       <use xlink:href="#DejaVuSans-33"/>
       <use xlink:href="#DejaVuSans-30" x="63.623047"/>
      </g>
     </g>
    </g>
    <g id="ytick_5">
     <g id="line2d_14">
      <g>
       <use xlink:href="#md8deab0c21" x="57.6" y="82.304" style="stroke: #000000; stroke-width: 0.8"/>
      </g>
     </g>
     <g id="text_15">
      <!-- 40 -->
      <g transform="translate(37.875 86.103219) scale(0.1 -0.1)">
       <use xlink:href="#DejaVuSans-34"/>
       <use xlink:href="#DejaVuSans-30" x="63.623047"/>
      </g>
     </g>
    </g>
    <g id="text_16">
     <!-- Size per Species -->
     <g transform="translate(31.795312 215.520969) rotate(-90) scale(0.1 -0.1)">
      <defs>
       <path id="DejaVuSans-53" d="M 3425 4513 
L 3425 3897 
Q 3066 4069 2747 4153 
Q 2428 4238 2131 4238 
Q 1616 4238 1336 4038 
Q 1056 3838 1056 3469 
Q 1056 3159 1242 3001 
Q 1428 2844 1947 2747 
L 2328 2669 
Q 3034 2534 3370 2195 
Q 3706 1856 3706 1288 
Q 3706 609 3251 259 
Q 2797 -91 1919 -91 
Q 1588 -91 1214 -16 
Q 841 59 441 206 
L 441 856 
Q 825 641 1194 531 
Q 1563 422 1919 422 
Q 2459 422 2753 634 
Q 3047 847 3047 1241 
Q 3047 1584 2836 1778 
Q 2625 1972 2144 2069 
L 1759 2144 
Q 1053 2284 737 2584 
Q 422 2884 422 3419 
Q 422 4038 858 4394 
Q 1294 4750 2059 4750 
Q 2388 4750 2728 4690 
Q 3069 4631 3425 4513 
z
" transform="scale(0.015625)"/>
       <path id="DejaVuSans-7a" d="M 353 3500 
L 3084 3500 
L 3084 2975 
L 922 459 
L 3084 459 
L 3084 0 
L 275 0 
L 275 525 
L 2438 3041 
L 353 3041 
L 353 3500 
z
" transform="scale(0.015625)"/>
       <path id="DejaVuSans-20" transform="scale(0.015625)"/>
       <path id="DejaVuSans-70" d="M 1159 525 
L 1159 -1331 
L 581 -1331 
L 581 3500 
L 1159 3500 
L 1159 2969 
Q 1341 3281 1617 3432 
Q 1894 3584 2278 3584 
Q 2916 3584 3314 3078 
Q 3713 2572 3713 1747 
Q 3713 922 3314 415 
Q 2916 -91 2278 -91 
Q 1894 -91 1617 61 
Q 1341 213 1159 525 
z
M 3116 1747 
Q 3116 2381 2855 2742 
Q 2594 3103 2138 3103 
Q 1681 3103 1420 2742 
Q 1159 2381 1159 1747 
Q 1159 1113 1420 752 
Q 1681 391 2138 391 
Q 2594 391 2855 752 
Q 3116 1113 3116 1747 
z
" transform="scale(0.015625)"/>
       <path id="DejaVuSans-63" d="M 3122 3366 
L 3122 2828 
Q 2878 2963 2633 3030 
Q 2388 3097 2138 3097 
Q 1578 3097 1268 2742 
Q 959 2388 959 1747 
Q 959 1106 1268 751 
Q 1578 397 2138 397 
Q 2388 397 2633 464 
Q 2878 531 3122 666 
L 3122 134 
Q 2881 22 2623 -34 
Q 2366 -91 2075 -91 
Q 1284 -91 818 406 
Q 353 903 353 1747 
Q 353 2603 823 3093 
Q 1294 3584 2113 3584 
Q 2378 3584 2631 3529 
Q 2884 3475 3122 3366 
z
" transform="scale(0.015625)"/>
      </defs>
      <use xlink:href="#DejaVuSans-53"/>
      <use xlink:href="#DejaVuSans-69" x="63.476562"/>
      <use xlink:href="#DejaVuSans-7a" x="91.259766"/>
      <use xlink:href="#DejaVuSans-65" x="143.75"/>
      <use xlink:href="#DejaVuSans-20" x="205.273438"/>
      <use xlink:href="#DejaVuSans-70" x="237.060547"/>
      <use xlink:href="#DejaVuSans-65" x="300.537109"/>
      <use xlink:href="#DejaVuSans-72" x="362.060547"/>
      <use xlink:href="#DejaVuSans-20" x="403.173828"/>
      <use xlink:href="#DejaVuSans-53" x="434.960938"/>
      <use xlink:href="#DejaVuSans-70" x="498.4375"/>
      <use xlink:href="#DejaVuSans-65" x="561.914062"/>
      <use xlink:href="#DejaVuSans-63" x="623.4375"/>
      <use xlink:href="#DejaVuSans-69" x="678.417969"/>
      <use xlink:href="#DejaVuSans-65" x="706.201172"/>
      <use xlink:href="#DejaVuSans-73" x="767.724609"/>
     </g>
    </g>
   </g>
   <g id="patch_3">
    <path d="M 57.6 307.584 
L 57.6 41.472 
" style="fill: none; stroke: #000000; stroke-width: 0.8; stroke-linejoin: miter; stroke-linecap: square"/>
   </g>
   <g id="patch_4">
    <path d="M 414.72 307.584 
L 414.72 41.472 
" style="fill: none; stroke: #000000; stroke-width: 0.8; stroke-linejoin: miter; stroke-linecap: square"/>
   </g>
   <g id="patch_5">
    <path d="M 57.6 307.584 
L 414.72 307.584 
" style="fill: none; stroke: #000000; stroke-width: 0.8; stroke-linejoin: miter; stroke-linecap: square"/>
   </g>
   <g id="patch_6">
    <path d="M 57.6 41.472 
L 414.72 41.472 
" style="fill: none; stroke: #000000; stroke-width: 0.8; stroke-linejoin: miter; stroke-linecap: square"/>
   </g>
   <g id="text_17">
    <!-- Speciation -->
    <g transform="translate(204.714375 35.472) scale(0.12 -0.12)">
     <use xlink:href="#DejaVuSans-53"/>
     <use xlink:href="#DejaVuSans-70" x="63.476562"/>
     <use xlink:href="#DejaVuSans-65" x="126.953125"/>
     <use xlink:href="#DejaVuSans-63" x="188.476562"/>
     <use xlink:href="#DejaVuSans-69" x="243.457031"/>
     <use xlink:href="#DejaVuSans-61" x="271.240234"/>
     <use xlink:href="#DejaVuSans-74" x="332.519531"/>
     <use xlink:href="#DejaVuSans-69" x="371.728516"/>
     <use xlink:href="#DejaVuSans-6f" x="399.511719"/>
     <use xlink:href="#DejaVuSans-6e" x="460.693359"/>
    </g>
   </g>
  </g>
 </g>
 <defs>
  <clipPath id="p8a93d8b7bc">
   <rect x="57.6" y="41.472" width="357.12" height="266.112"/>
  </clipPath>
 </defs>
</svg>
