<?xml version="1.0" encoding="utf-8" standalone="no"?>
<!DOCTYPE svg PUBLIC "-//W3C//DTD SVG 1.1//EN"
  "http://www.w3.org/Graphics/SVG/1.1/DTD/svg11.dtd">
<svg xmlns:xlink="http://www.w3.org/1999/xlink" width="460.8pt" height="345.6pt" viewBox="0 0 460.8 345.6" xmlns="http://www.w3.org/2000/svg" version="1.1">
 <metadata>
  <rdf:RDF xmlns:dc="http://purl.org/dc/elements/1.1/" xmlns:cc="http://creativecommons.org/ns#" xmlns:rdf="http://www.w3.org/1999/02/22-rdf-syntax-ns#">
   <cc:Work>
    <dc:type rdf:resource="http://purl.org/dc/dcmitype/StillImage"/>
    <dc:date>2024-07-30T18:11:00.018859</dc:date>
    <dc:format>image/svg+xml</dc:format>
    <dc:creator>
     <cc:Agent>
      <dc:title>Matplotlib v3.8.4, https://matplotlib.org/</dc:title>
     </cc:Agent>
    </dc:creator>
   </cc:Work>
  </rdf:RDF>
 </metadata>
 <defs>
  <style type="text/css">*{stroke-linejoin: round; stroke-linecap: butt}</style>
 </defs>
 <g id="figure_1">
  <g id="patch_1">
   <path d="M 0 345.6 
L 460.8 345.6 
L 460.8 0 
L 0 0 
z
" style="fill: #ffffff"/>
  </g>
  <g id="axes_1">
   <g id="patch_2">
    <path d="M 57.6 307.584 
L 414.72 307.584 
L 414.72 41.472 
L 57.6 41.472 
z
" style="fill: #ffffff"/>
   </g>
   <g id="PolyCollection_1">
    <path d="M 73.832727 175.354435 
L 73.832727 307.584 
L 82.157203 307.584 
L 90.481678 307.584 
L 98.806154 307.584 
L 107.130629 307.584 
L 115.455105 307.584 
L 123.77958 307.584 
L 132.104056 307.584 
L 140.428531 307.584 
L 148.753007 307.584 
L 157.077483 307.584 
L 165.401958 307.584 
L 173.726434 307.584 
L 182.050909 307.584 
L 190.375385 307.584 
L 198.69986 307.584 
L 207.024336 307.584 
L 215.348811 307.584 
L 223.673287 307.584 
L 231.997762 307.584 
L 240.322238 307.584 
L 248.646713 307.584 
L 256.971189 307.584 
L 265.295664 307.584 
L 273.62014 307.584 
L 281.944615 307.584 
L 290.269091 307.584 
L 298.593566 307.584 
L 306.918042 307.584 
L 315.242517 307.584 
L 323.566993 307.584 
L 331.891469 307.584 
L 340.215944 307.584 
L 348.54042 307.584 
L 356.864895 307.584 
L 365.189371 307.584 
L 373.513846 307.584 
L 381.838322 307.584 
L 390.162797 307.584 
L 398.487273 307.584 
L 398.487273 307.584 
L 398.487273 307.584 
L 390.162797 307.584 
L 381.838322 307.584 
L 373.513846 307.584 
L 365.189371 307.584 
L 356.864895 307.584 
L 348.54042 307.584 
L 340.215944 307.584 
L 331.891469 307.584 
L 323.566993 307.584 
L 315.242517 307.584 
L 306.918042 307.584 
L 298.593566 307.584 
L 290.269091 307.584 
L 281.944615 307.584 
L 273.62014 307.584 
L 265.295664 296.56487 
L 256.971189 296.56487 
L 248.646713 285.545739 
L 240.322238 296.56487 
L 231.997762 285.545739 
L 223.673287 296.56487 
L 215.348811 285.545739 
L 207.024336 285.545739 
L 198.69986 296.56487 
L 190.375385 296.56487 
L 182.050909 274.526609 
L 173.726434 285.545739 
L 165.401958 296.56487 
L 157.077483 285.545739 
L 148.753007 274.526609 
L 140.428531 285.545739 
L 132.104056 285.545739 
L 123.77958 274.526609 
L 115.455105 296.56487 
L 107.130629 274.526609 
L 98.806154 263.507478 
L 90.481678 263.507478 
L 82.157203 263.507478 
L 73.832727 175.354435 
z
" clip-path="url(#pffb3b89b4b)" style="fill: #1f77b4"/>
   </g>
   <g id="PolyCollection_2">
    <path d="M 73.832727 164.335304 
L 73.832727 175.354435 
L 82.157203 263.507478 
L 90.481678 263.507478 
L 98.806154 263.507478 
L 107.130629 274.526609 
L 115.455105 296.56487 
L 123.77958 274.526609 
L 132.104056 285.545739 
L 140.428531 285.545739 
L 148.753007 274.526609 
L 157.077483 285.545739 
L 165.401958 296.56487 
L 173.726434 285.545739 
L 182.050909 274.526609 
L 190.375385 296.56487 
L 198.69986 296.56487 
L 207.024336 285.545739 
L 215.348811 285.545739 
L 223.673287 296.56487 
L 231.997762 285.545739 
L 240.322238 296.56487 
L 248.646713 285.545739 
L 256.971189 296.56487 
L 265.295664 296.56487 
L 273.62014 307.584 
L 281.944615 307.584 
L 290.269091 307.584 
L 298.593566 307.584 
L 306.918042 307.584 
L 315.242517 307.584 
L 323.566993 307.584 
L 331.891469 307.584 
L 340.215944 307.584 
L 348.54042 307.584 
L 356.864895 307.584 
L 365.189371 307.584 
L 373.513846 307.584 
L 381.838322 307.584 
L 390.162797 307.584 
L 398.487273 307.584 
L 398.487273 307.584 
L 398.487273 307.584 
L 390.162797 307.584 
L 381.838322 307.584 
L 373.513846 307.584 
L 365.189371 307.584 
L 356.864895 307.584 
L 348.54042 307.584 
L 340.215944 307.584 
L 331.891469 307.584 
L 323.566993 307.584 
L 315.242517 307.584 
L 306.918042 307.584 
L 298.593566 307.584 
L 290.269091 307.584 
L 281.944615 307.584 
L 273.62014 307.584 
L 265.295664 296.56487 
L 256.971189 296.56487 
L 248.646713 285.545739 
L 240.322238 252.488348 
L 231.997762 263.507478 
L 223.673287 241.469217 
L 215.348811 263.507478 
L 207.024336 252.488348 
L 198.69986 274.526609 
L 190.375385 263.507478 
L 182.050909 241.469217 
L 173.726434 263.507478 
L 165.401958 263.507478 
L 157.077483 274.526609 
L 148.753007 252.488348 
L 140.428531 263.507478 
L 132.104056 274.526609 
L 123.77958 263.507478 
L 115.455105 263.507478 
L 107.130629 252.488348 
L 98.806154 241.469217 
L 90.481678 241.469217 
L 82.157203 241.469217 
L 73.832727 164.335304 
z
" clip-path="url(#pffb3b89b4b)" style="fill: #ff7f0e"/>
   </g>
   <g id="PolyCollection_3">
    <path d="M 73.832727 120.258783 
L 73.832727 164.335304 
L 82.157203 241.469217 
L 90.481678 241.469217 
L 98.806154 241.469217 
L 107.130629 252.488348 
L 115.455105 263.507478 
L 123.77958 263.507478 
L 132.104056 274.526609 
L 140.428531 263.507478 
L 148.753007 252.488348 
L 157.077483 274.526609 
L 165.401958 263.507478 
L 173.726434 263.507478 
L 182.050909 241.469217 
L 190.375385 263.507478 
L 198.69986 274.526609 
L 207.024336 252.488348 
L 215.348811 263.507478 
L 223.673287 241.469217 
L 231.997762 263.507478 
L 240.322238 252.488348 
L 248.646713 285.545739 
L 256.971189 296.56487 
L 265.295664 296.56487 
L 273.62014 307.584 
L 281.944615 307.584 
L 290.269091 307.584 
L 298.593566 307.584 
L 306.918042 307.584 
L 315.242517 307.584 
L 323.566993 307.584 
L 331.891469 307.584 
L 340.215944 307.584 
L 348.54042 307.584 
L 356.864895 307.584 
L 365.189371 307.584 
L 373.513846 307.584 
L 381.838322 307.584 
L 390.162797 307.584 
L 398.487273 307.584 
L 398.487273 307.584 
L 398.487273 307.584 
L 390.162797 307.584 
L 381.838322 307.584 
L 373.513846 307.584 
L 365.189371 307.584 
L 356.864895 307.584 
L 348.54042 307.584 
L 340.215944 307.584 
L 331.891469 307.584 
L 323.566993 274.526609 
L 315.242517 274.526609 
L 306.918042 285.545739 
L 298.593566 274.526609 
L 290.269091 285.545739 
L 281.944615 285.545739 
L 273.62014 296.56487 
L 265.295664 274.526609 
L 256.971189 263.507478 
L 248.646713 263.507478 
L 240.322238 241.469217 
L 231.997762 219.430957 
L 223.673287 208.411826 
L 215.348811 197.392696 
L 207.024336 230.450087 
L 198.69986 241.469217 
L 190.375385 241.469217 
L 182.050909 219.430957 
L 173.726434 241.469217 
L 165.401958 230.450087 
L 157.077483 252.488348 
L 148.753007 219.430957 
L 140.428531 241.469217 
L 132.104056 241.469217 
L 123.77958 241.469217 
L 115.455105 230.450087 
L 107.130629 197.392696 
L 98.806154 219.430957 
L 90.481678 197.392696 
L 82.157203 153.316174 
L 73.832727 120.258783 
z
" clip-path="url(#pffb3b89b4b)" style="fill: #2ca02c"/>
   </g>
   <g id="PolyCollection_4">
    <path d="M 73.832727 87.201391 
L 73.832727 120.258783 
L 82.157203 153.316174 
L 90.481678 197.392696 
L 98.806154 219.430957 
L 107.130629 197.392696 
L 115.455105 230.450087 
L 123.77958 241.469217 
L 132.104056 241.469217 
L 140.428531 241.469217 
L 148.753007 219.430957 
L 157.077483 252.488348 
L 165.401958 230.450087 
L 173.726434 241.469217 
L 182.050909 219.430957 
L 190.375385 241.469217 
L 198.69986 241.469217 
L 207.024336 230.450087 
L 215.348811 197.392696 
L 223.673287 208.411826 
L 231.997762 219.430957 
L 240.322238 241.469217 
L 248.646713 263.507478 
L 256.971189 263.507478 
L 265.295664 274.526609 
L 273.62014 296.56487 
L 281.944615 285.545739 
L 290.269091 285.545739 
L 298.593566 274.526609 
L 306.918042 285.545739 
L 315.242517 274.526609 
L 323.566993 274.526609 
L 331.891469 307.584 
L 340.215944 307.584 
L 348.54042 307.584 
L 356.864895 307.584 
L 365.189371 307.584 
L 373.513846 307.584 
L 381.838322 307.584 
L 390.162797 307.584 
L 398.487273 307.584 
L 398.487273 285.545739 
L 398.487273 285.545739 
L 390.162797 285.545739 
L 381.838322 285.545739 
L 373.513846 263.507478 
L 365.189371 285.545739 
L 356.864895 285.545739 
L 348.54042 285.545739 
L 340.215944 296.56487 
L 331.891469 296.56487 
L 323.566993 263.507478 
L 315.242517 252.488348 
L 306.918042 252.488348 
L 298.593566 252.488348 
L 290.269091 252.488348 
L 281.944615 274.526609 
L 273.62014 274.526609 
L 265.295664 230.450087 
L 256.971189 208.411826 
L 248.646713 208.411826 
L 240.322238 208.411826 
L 231.997762 208.411826 
L 223.673287 186.373565 
L 215.348811 175.354435 
L 207.024336 208.411826 
L 198.69986 208.411826 
L 190.375385 219.430957 
L 182.050909 153.316174 
L 173.726434 219.430957 
L 165.401958 208.411826 
L 157.077483 219.430957 
L 148.753007 197.392696 
L 140.428531 219.430957 
L 132.104056 219.430957 
L 123.77958 208.411826 
L 115.455105 197.392696 
L 107.130629 164.335304 
L 98.806154 153.316174 
L 90.481678 175.354435 
L 82.157203 98.220522 
L 73.832727 87.201391 
z
" clip-path="url(#pffb3b89b4b)" style="fill: #d62728"/>
   </g>
   <g id="PolyCollection_5">
    <path d="M 73.832727 87.201391 
L 73.832727 87.201391 
L 82.157203 98.220522 
L 90.481678 175.354435 
L 98.806154 153.316174 
L 107.130629 164.335304 
L 115.455105 197.392696 
L 123.77958 208.411826 
L 132.104056 219.430957 
L 140.428531 219.430957 
L 148.753007 197.392696 
L 157.077483 219.430957 
L 165.401958 208.411826 
L 173.726434 219.430957 
L 182.050909 153.316174 
L 190.375385 219.430957 
L 198.69986 208.411826 
L 207.024336 208.411826 
L 215.348811 175.354435 
L 223.673287 186.373565 
L 231.997762 208.411826 
L 240.322238 208.411826 
L 248.646713 208.411826 
L 256.971189 208.411826 
L 265.295664 230.450087 
L 273.62014 274.526609 
L 281.944615 274.526609 
L 290.269091 252.488348 
L 298.593566 252.488348 
L 306.918042 252.488348 
L 315.242517 252.488348 
L 323.566993 263.507478 
L 331.891469 296.56487 
L 340.215944 296.56487 
L 348.54042 285.545739 
L 356.864895 285.545739 
L 365.189371 285.545739 
L 373.513846 263.507478 
L 381.838322 285.545739 
L 390.162797 285.545739 
L 398.487273 285.545739 
L 398.487273 285.545739 
L 398.487273 285.545739 
L 390.162797 285.545739 
L 381.838322 285.545739 
L 373.513846 263.507478 
L 365.189371 285.545739 
L 356.864895 285.545739 
L 348.54042 285.545739 
L 340.215944 296.56487 
L 331.891469 296.56487 
L 323.566993 263.507478 
L 315.242517 252.488348 
L 306.918042 252.488348 
L 298.593566 252.488348 
L 290.269091 252.488348 
L 281.944615 274.526609 
L 273.62014 274.526609 
L 265.295664 230.450087 
L 256.971189 208.411826 
L 248.646713 208.411826 
L 240.322238 208.411826 
L 231.997762 208.411826 
L 223.673287 186.373565 
L 215.348811 153.316174 
L 207.024336 186.373565 
L 198.69986 175.354435 
L 190.375385 186.373565 
L 182.050909 142.297043 
L 173.726434 208.411826 
L 165.401958 186.373565 
L 157.077483 208.411826 
L 148.753007 186.373565 
L 140.428531 175.354435 
L 132.104056 186.373565 
L 123.77958 186.373565 
L 115.455105 186.373565 
L 107.130629 131.277913 
L 98.806154 131.277913 
L 90.481678 120.258783 
L 82.157203 87.201391 
L 73.832727 87.201391 
z
" clip-path="url(#pffb3b89b4b)" style="fill: #9467bd"/>
   </g>
   <g id="PolyCollection_6">
    <path d="M 73.832727 87.201391 
L 73.832727 87.201391 
L 82.157203 87.201391 
L 90.481678 120.258783 
L 98.806154 131.277913 
L 107.130629 131.277913 
L 115.455105 186.373565 
L 123.77958 186.373565 
L 132.104056 186.373565 
L 140.428531 175.354435 
L 148.753007 186.373565 
L 157.077483 208.411826 
L 165.401958 186.373565 
L 173.726434 208.411826 
L 182.050909 142.297043 
L 190.375385 186.373565 
L 198.69986 175.354435 
L 207.024336 186.373565 
L 215.348811 153.316174 
L 223.673287 186.373565 
L 231.997762 208.411826 
L 240.322238 208.411826 
L 248.646713 208.411826 
L 256.971189 208.411826 
L 265.295664 230.450087 
L 273.62014 274.526609 
L 281.944615 274.526609 
L 290.269091 252.488348 
L 298.593566 252.488348 
L 306.918042 252.488348 
L 315.242517 252.488348 
L 323.566993 263.507478 
L 331.891469 296.56487 
L 340.215944 296.56487 
L 348.54042 285.545739 
L 356.864895 285.545739 
L 365.189371 285.545739 
L 373.513846 263.507478 
L 381.838322 285.545739 
L 390.162797 285.545739 
L 398.487273 285.545739 
L 398.487273 285.545739 
L 398.487273 285.545739 
L 390.162797 285.545739 
L 381.838322 285.545739 
L 373.513846 263.507478 
L 365.189371 285.545739 
L 356.864895 285.545739 
L 348.54042 285.545739 
L 340.215944 296.56487 
L 331.891469 296.56487 
L 323.566993 263.507478 
L 315.242517 252.488348 
L 306.918042 252.488348 
L 298.593566 252.488348 
L 290.269091 252.488348 
L 281.944615 274.526609 
L 273.62014 274.526609 
L 265.295664 230.450087 
L 256.971189 208.411826 
L 248.646713 208.411826 
L 240.322238 208.411826 
L 231.997762 208.411826 
L 223.673287 186.373565 
L 215.348811 153.316174 
L 207.024336 186.373565 
L 198.69986 175.354435 
L 190.375385 175.354435 
L 182.050909 120.258783 
L 173.726434 186.373565 
L 165.401958 175.354435 
L 157.077483 175.354435 
L 148.753007 131.277913 
L 140.428531 164.335304 
L 132.104056 164.335304 
L 123.77958 175.354435 
L 115.455105 164.335304 
L 107.130629 109.239652 
L 98.806154 87.201391 
L 90.481678 87.201391 
L 82.157203 76.182261 
L 73.832727 87.201391 
z
" clip-path="url(#pffb3b89b4b)" style="fill: #8c564b"/>
   </g>
   <g id="PolyCollection_7">
    <path d="M 73.832727 87.201391 
L 73.832727 87.201391 
L 82.157203 76.182261 
L 90.481678 87.201391 
L 98.806154 87.201391 
L 107.130629 109.239652 
L 115.455105 164.335304 
L 123.77958 175.354435 
L 132.104056 164.335304 
L 140.428531 164.335304 
L 148.753007 131.277913 
L 157.077483 175.354435 
L 165.401958 175.354435 
L 173.726434 186.373565 
L 182.050909 120.258783 
L 190.375385 175.354435 
L 198.69986 175.354435 
L 207.024336 186.373565 
L 215.348811 153.316174 
L 223.673287 186.373565 
L 231.997762 208.411826 
L 240.322238 208.411826 
L 248.646713 208.411826 
L 256.971189 208.411826 
L 265.295664 230.450087 
L 273.62014 274.526609 
L 281.944615 274.526609 
L 290.269091 252.488348 
L 298.593566 252.488348 
L 306.918042 252.488348 
L 315.242517 252.488348 
L 323.566993 263.507478 
L 331.891469 296.56487 
L 340.215944 296.56487 
L 348.54042 285.545739 
L 356.864895 285.545739 
L 365.189371 285.545739 
L 373.513846 263.507478 
L 381.838322 285.545739 
L 390.162797 285.545739 
L 398.487273 285.545739 
L 398.487273 285.545739 
L 398.487273 285.545739 
L 390.162797 285.545739 
L 381.838322 285.545739 
L 373.513846 263.507478 
L 365.189371 285.545739 
L 356.864895 285.545739 
L 348.54042 285.545739 
L 340.215944 296.56487 
L 331.891469 296.56487 
L 323.566993 263.507478 
L 315.242517 252.488348 
L 306.918042 252.488348 
L 298.593566 252.488348 
L 290.269091 252.488348 
L 281.944615 252.488348 
L 273.62014 241.469217 
L 265.295664 208.411826 
L 256.971189 186.373565 
L 248.646713 197.392696 
L 240.322238 186.373565 
L 231.997762 197.392696 
L 223.673287 153.316174 
L 215.348811 131.277913 
L 207.024336 164.335304 
L 198.69986 153.316174 
L 190.375385 153.316174 
L 182.050909 109.239652 
L 173.726434 164.335304 
L 165.401958 153.316174 
L 157.077483 153.316174 
L 148.753007 109.239652 
L 140.428531 142.297043 
L 132.104056 142.297043 
L 123.77958 153.316174 
L 115.455105 131.277913 
L 107.130629 98.220522 
L 98.806154 76.182261 
L 90.481678 87.201391 
L 82.157203 76.182261 
L 73.832727 87.201391 
z
" clip-path="url(#pffb3b89b4b)" style="fill: #e377c2"/>
   </g>
   <g id="PolyCollection_8">
    <path d="M 73.832727 87.201391 
L 73.832727 87.201391 
L 82.157203 76.182261 
L 90.481678 87.201391 
L 98.806154 76.182261 
L 107.130629 98.220522 
L 115.455105 131.277913 
L 123.77958 153.316174 
L 132.104056 142.297043 
L 140.428531 142.297043 
L 148.753007 109.239652 
L 157.077483 153.316174 
L 165.401958 153.316174 
L 173.726434 164.335304 
L 182.050909 109.239652 
L 190.375385 153.316174 
L 198.69986 153.316174 
L 207.024336 164.335304 
L 215.348811 131.277913 
L 223.673287 153.316174 
L 231.997762 197.392696 
L 240.322238 186.373565 
L 248.646713 197.392696 
L 256.971189 186.373565 
L 265.295664 208.411826 
L 273.62014 241.469217 
L 281.944615 252.488348 
L 290.269091 252.488348 
L 298.593566 252.488348 
L 306.918042 252.488348 
L 315.242517 252.488348 
L 323.566993 263.507478 
L 331.891469 296.56487 
L 340.215944 296.56487 
L 348.54042 285.545739 
L 356.864895 285.545739 
L 365.189371 285.545739 
L 373.513846 263.507478 
L 381.838322 285.545739 
L 390.162797 285.545739 
L 398.487273 285.545739 
L 398.487273 285.545739 
L 398.487273 285.545739 
L 390.162797 285.545739 
L 381.838322 285.545739 
L 373.513846 263.507478 
L 365.189371 285.545739 
L 356.864895 241.469217 
L 348.54042 263.507478 
L 340.215944 263.507478 
L 331.891469 274.526609 
L 323.566993 230.450087 
L 315.242517 230.450087 
L 306.918042 230.450087 
L 298.593566 219.430957 
L 290.269091 241.469217 
L 281.944615 208.411826 
L 273.62014 153.316174 
L 265.295664 175.354435 
L 256.971189 153.316174 
L 248.646713 175.354435 
L 240.322238 153.316174 
L 231.997762 186.373565 
L 223.673287 142.297043 
L 215.348811 120.258783 
L 207.024336 153.316174 
L 198.69986 131.277913 
L 190.375385 120.258783 
L 182.050909 98.220522 
L 173.726434 131.277913 
L 165.401958 131.277913 
L 157.077483 131.277913 
L 148.753007 98.220522 
L 140.428531 109.239652 
L 132.104056 120.258783 
L 123.77958 120.258783 
L 115.455105 98.220522 
L 107.130629 87.201391 
L 98.806154 76.182261 
L 90.481678 87.201391 
L 82.157203 76.182261 
L 73.832727 87.201391 
z
" clip-path="url(#pffb3b89b4b)" style="fill: #7f7f7f"/>
   </g>
   <g id="PolyCollection_9">
    <path d="M 73.832727 87.201391 
L 73.832727 87.201391 
L 82.157203 76.182261 
L 90.481678 87.201391 
L 98.806154 76.182261 
L 107.130629 87.201391 
L 115.455105 98.220522 
L 123.77958 120.258783 
L 132.104056 120.258783 
L 140.428531 109.239652 
L 148.753007 98.220522 
L 157.077483 131.277913 
L 165.401958 131.277913 
L 173.726434 131.277913 
L 182.050909 98.220522 
L 190.375385 120.258783 
L 198.69986 131.277913 
L 207.024336 153.316174 
L 215.348811 120.258783 
L 223.673287 142.297043 
L 231.997762 186.373565 
L 240.322238 153.316174 
L 248.646713 175.354435 
L 256.971189 153.316174 
L 265.295664 175.354435 
L 273.62014 153.316174 
L 281.944615 208.411826 
L 290.269091 241.469217 
L 298.593566 219.430957 
L 306.918042 230.450087 
L 315.242517 230.450087 
L 323.566993 230.450087 
L 331.891469 274.526609 
L 340.215944 263.507478 
L 348.54042 263.507478 
L 356.864895 241.469217 
L 365.189371 285.545739 
L 373.513846 263.507478 
L 381.838322 285.545739 
L 390.162797 285.545739 
L 398.487273 285.545739 
L 398.487273 285.545739 
L 398.487273 285.545739 
L 390.162797 285.545739 
L 381.838322 285.545739 
L 373.513846 263.507478 
L 365.189371 285.545739 
L 356.864895 241.469217 
L 348.54042 263.507478 
L 340.215944 263.507478 
L 331.891469 274.526609 
L 323.566993 230.450087 
L 315.242517 230.450087 
L 306.918042 230.450087 
L 298.593566 219.430957 
L 290.269091 241.469217 
L 281.944615 208.411826 
L 273.62014 153.316174 
L 265.295664 175.354435 
L 256.971189 153.316174 
L 248.646713 175.354435 
L 240.322238 120.258783 
L 231.997762 164.335304 
L 223.673287 131.277913 
L 215.348811 98.220522 
L 207.024336 131.277913 
L 198.69986 98.220522 
L 190.375385 98.220522 
L 182.050909 87.201391 
L 173.726434 109.239652 
L 165.401958 98.220522 
L 157.077483 109.239652 
L 148.753007 87.201391 
L 140.428531 87.201391 
L 132.104056 98.220522 
L 123.77958 109.239652 
L 115.455105 87.201391 
L 107.130629 87.201391 
L 98.806154 76.182261 
L 90.481678 87.201391 
L 82.157203 76.182261 
L 73.832727 87.201391 
z
" clip-path="url(#pffb3b89b4b)" style="fill: #bcbd22"/>
   </g>
   <g id="PolyCollection_10">
    <path d="M 73.832727 87.201391 
L 73.832727 87.201391 
L 82.157203 76.182261 
L 90.481678 87.201391 
L 98.806154 76.182261 
L 107.130629 87.201391 
L 115.455105 87.201391 
L 123.77958 109.239652 
L 132.104056 98.220522 
L 140.428531 87.201391 
L 148.753007 87.201391 
L 157.077483 109.239652 
L 165.401958 98.220522 
L 173.726434 109.239652 
L 182.050909 87.201391 
L 190.375385 98.220522 
L 198.69986 98.220522 
L 207.024336 131.277913 
L 215.348811 98.220522 
L 223.673287 131.277913 
L 231.997762 164.335304 
L 240.322238 120.258783 
L 248.646713 175.354435 
L 256.971189 153.316174 
L 265.295664 175.354435 
L 273.62014 153.316174 
L 281.944615 208.411826 
L 290.269091 241.469217 
L 298.593566 219.430957 
L 306.918042 230.450087 
L 315.242517 230.450087 
L 323.566993 230.450087 
L 331.891469 274.526609 
L 340.215944 263.507478 
L 348.54042 263.507478 
L 356.864895 241.469217 
L 365.189371 285.545739 
L 373.513846 263.507478 
L 381.838322 285.545739 
L 390.162797 285.545739 
L 398.487273 285.545739 
L 398.487273 285.545739 
L 398.487273 285.545739 
L 390.162797 285.545739 
L 381.838322 285.545739 
L 373.513846 263.507478 
L 365.189371 285.545739 
L 356.864895 241.469217 
L 348.54042 263.507478 
L 340.215944 263.507478 
L 331.891469 274.526609 
L 323.566993 230.450087 
L 315.242517 230.450087 
L 306.918042 230.450087 
L 298.593566 219.430957 
L 290.269091 241.469217 
L 281.944615 208.411826 
L 273.62014 153.316174 
L 265.295664 175.354435 
L 256.971189 153.316174 
L 248.646713 175.354435 
L 240.322238 120.258783 
L 231.997762 164.335304 
L 223.673287 131.277913 
L 215.348811 98.220522 
L 207.024336 109.239652 
L 198.69986 65.16313 
L 190.375385 76.182261 
L 182.050909 54.144 
L 173.726434 76.182261 
L 165.401958 87.201391 
L 157.077483 87.201391 
L 148.753007 65.16313 
L 140.428531 65.16313 
L 132.104056 76.182261 
L 123.77958 65.16313 
L 115.455105 87.201391 
L 107.130629 87.201391 
L 98.806154 76.182261 
L 90.481678 87.201391 
L 82.157203 76.182261 
L 73.832727 87.201391 
z
" clip-path="url(#pffb3b89b4b)" style="fill: #17becf"/>
   </g>
   <g id="PolyCollection_11">
    <path d="M 73.832727 87.201391 
L 73.832727 87.201391 
L 82.157203 76.182261 
L 90.481678 87.201391 
L 98.806154 76.182261 
L 107.130629 87.201391 
L 115.455105 87.201391 
L 123.77958 65.16313 
L 132.104056 76.182261 
L 140.428531 65.16313 
L 148.753007 65.16313 
L 157.077483 87.201391 
L 165.401958 87.201391 
L 173.726434 76.182261 
L 182.050909 54.144 
L 190.375385 76.182261 
L 198.69986 65.16313 
L 207.024336 109.239652 
L 215.348811 98.220522 
L 223.673287 131.277913 
L 231.997762 164.335304 
L 240.322238 120.258783 
L 248.646713 175.354435 
L 256.971189 153.316174 
L 265.295664 175.354435 
L 273.62014 153.316174 
L 281.944615 208.411826 
L 290.269091 241.469217 
L 298.593566 219.430957 
L 306.918042 230.450087 
L 315.242517 230.450087 
L 323.566993 230.450087 
L 331.891469 274.526609 
L 340.215944 263.507478 
L 348.54042 263.507478 
L 356.864895 241.469217 
L 365.189371 285.545739 
L 373.513846 263.507478 
L 381.838322 285.545739 
L 390.162797 285.545739 
L 398.487273 285.545739 
L 398.487273 252.488348 
L 398.487273 252.488348 
L 390.162797 263.507478 
L 381.838322 263.507478 
L 373.513846 241.469217 
L 365.189371 263.507478 
L 356.864895 219.430957 
L 348.54042 230.450087 
L 340.215944 219.430957 
L 331.891469 241.469217 
L 323.566993 219.430957 
L 315.242517 208.411826 
L 306.918042 219.430957 
L 298.593566 197.392696 
L 290.269091 219.430957 
L 281.944615 175.354435 
L 273.62014 142.297043 
L 265.295664 142.297043 
L 256.971189 131.277913 
L 248.646713 142.297043 
L 240.322238 98.220522 
L 231.997762 131.277913 
L 223.673287 98.220522 
L 215.348811 65.16313 
L 207.024336 98.220522 
L 198.69986 65.16313 
L 190.375385 76.182261 
L 182.050909 54.144 
L 173.726434 76.182261 
L 165.401958 87.201391 
L 157.077483 87.201391 
L 148.753007 65.16313 
L 140.428531 65.16313 
L 132.104056 76.182261 
L 123.77958 65.16313 
L 115.455105 87.201391 
L 107.130629 87.201391 
L 98.806154 76.182261 
L 90.481678 87.201391 
L 82.157203 76.182261 
L 73.832727 87.201391 
z
" clip-path="url(#pffb3b89b4b)" style="fill: #1f77b4"/>
   </g>
   <g id="PolyCollection_12">
    <path d="M 73.832727 87.201391 
L 73.832727 87.201391 
L 82.157203 76.182261 
L 90.481678 87.201391 
L 98.806154 76.182261 
L 107.130629 87.201391 
L 115.455105 87.201391 
L 123.77958 65.16313 
L 132.104056 76.182261 
L 140.428531 65.16313 
L 148.753007 65.16313 
L 157.077483 87.201391 
L 165.401958 87.201391 
L 173.726434 76.182261 
L 182.050909 54.144 
L 190.375385 76.182261 
L 198.69986 65.16313 
L 207.024336 98.220522 
L 215.348811 65.16313 
L 223.673287 98.220522 
L 231.997762 131.277913 
L 240.322238 98.220522 
L 248.646713 142.297043 
L 256.971189 131.277913 
L 265.295664 142.297043 
L 273.62014 142.297043 
L 281.944615 175.354435 
L 290.269091 219.430957 
L 298.593566 197.392696 
L 306.918042 219.430957 
L 315.242517 208.411826 
L 323.566993 219.430957 
L 331.891469 241.469217 
L 340.215944 219.430957 
L 348.54042 230.450087 
L 356.864895 219.430957 
L 365.189371 263.507478 
L 373.513846 241.469217 
L 381.838322 263.507478 
L 390.162797 263.507478 
L 398.487273 252.488348 
L 398.487273 230.450087 
L 398.487273 230.450087 
L 390.162797 230.450087 
L 381.838322 230.450087 
L 373.513846 219.430957 
L 365.189371 197.392696 
L 356.864895 164.335304 
L 348.54042 197.392696 
L 340.215944 186.373565 
L 331.891469 230.450087 
L 323.566993 197.392696 
L 315.242517 186.373565 
L 306.918042 175.354435 
L 298.593566 186.373565 
L 290.269091 175.354435 
L 281.944615 142.297043 
L 273.62014 120.258783 
L 265.295664 120.258783 
L 256.971189 109.239652 
L 248.646713 120.258783 
L 240.322238 76.182261 
L 231.997762 109.239652 
L 223.673287 87.201391 
L 215.348811 65.16313 
L 207.024336 98.220522 
L 198.69986 65.16313 
L 190.375385 76.182261 
L 182.050909 54.144 
L 173.726434 76.182261 
L 165.401958 87.201391 
L 157.077483 87.201391 
L 148.753007 65.16313 
L 140.428531 65.16313 
L 132.104056 76.182261 
L 123.77958 65.16313 
L 115.455105 87.201391 
L 107.130629 87.201391 
L 98.806154 76.182261 
L 90.481678 87.201391 
L 82.157203 76.182261 
L 73.832727 87.201391 
z
" clip-path="url(#pffb3b89b4b)" style="fill: #ff7f0e"/>
   </g>
   <g id="PolyCollection_13">
    <path d="M 73.832727 87.201391 
L 73.832727 87.201391 
L 82.157203 76.182261 
L 90.481678 87.201391 
L 98.806154 76.182261 
L 107.130629 87.201391 
L 115.455105 87.201391 
L 123.77958 65.16313 
L 132.104056 76.182261 
L 140.428531 65.16313 
L 148.753007 65.16313 
L 157.077483 87.201391 
L 165.401958 87.201391 
L 173.726434 76.182261 
L 182.050909 54.144 
L 190.375385 76.182261 
L 198.69986 65.16313 
L 207.024336 98.220522 
L 215.348811 65.16313 
L 223.673287 87.201391 
L 231.997762 109.239652 
L 240.322238 76.182261 
L 248.646713 120.258783 
L 256.971189 109.239652 
L 265.295664 120.258783 
L 273.62014 120.258783 
L 281.944615 142.297043 
L 290.269091 175.354435 
L 298.593566 186.373565 
L 306.918042 175.354435 
L 315.242517 186.373565 
L 323.566993 197.392696 
L 331.891469 230.450087 
L 340.215944 186.373565 
L 348.54042 197.392696 
L 356.864895 164.335304 
L 365.189371 197.392696 
L 373.513846 219.430957 
L 381.838322 230.450087 
L 390.162797 230.450087 
L 398.487273 230.450087 
L 398.487273 208.411826 
L 398.487273 208.411826 
L 390.162797 219.430957 
L 381.838322 208.411826 
L 373.513846 197.392696 
L 365.189371 175.354435 
L 356.864895 153.316174 
L 348.54042 175.354435 
L 340.215944 175.354435 
L 331.891469 197.392696 
L 323.566993 175.354435 
L 315.242517 164.335304 
L 306.918042 131.277913 
L 298.593566 142.297043 
L 290.269091 153.316174 
L 281.944615 131.277913 
L 273.62014 98.220522 
L 265.295664 109.239652 
L 256.971189 87.201391 
L 248.646713 98.220522 
L 240.322238 65.16313 
L 231.997762 76.182261 
L 223.673287 76.182261 
L 215.348811 65.16313 
L 207.024336 98.220522 
L 198.69986 65.16313 
L 190.375385 76.182261 
L 182.050909 54.144 
L 173.726434 76.182261 
L 165.401958 87.201391 
L 157.077483 87.201391 
L 148.753007 65.16313 
L 140.428531 65.16313 
L 132.104056 76.182261 
L 123.77958 65.16313 
L 115.455105 87.201391 
L 107.130629 87.201391 
L 98.806154 76.182261 
L 90.481678 87.201391 
L 82.157203 76.182261 
L 73.832727 87.201391 
z
" clip-path="url(#pffb3b89b4b)" style="fill: #2ca02c"/>
   </g>
   <g id="PolyCollection_14">
    <path d="M 73.832727 87.201391 
L 73.832727 87.201391 
L 82.157203 76.182261 
L 90.481678 87.201391 
L 98.806154 76.182261 
L 107.130629 87.201391 
L 115.455105 87.201391 
L 123.77958 65.16313 
L 132.104056 76.182261 
L 140.428531 65.16313 
L 148.753007 65.16313 
L 157.077483 87.201391 
L 165.401958 87.201391 
L 173.726434 76.182261 
L 182.050909 54.144 
L 190.375385 76.182261 
L 198.69986 65.16313 
L 207.024336 98.220522 
L 215.348811 65.16313 
L 223.673287 76.182261 
L 231.997762 76.182261 
L 240.322238 65.16313 
L 248.646713 98.220522 
L 256.971189 87.201391 
L 265.295664 109.239652 
L 273.62014 98.220522 
L 281.944615 131.277913 
L 290.269091 153.316174 
L 298.593566 142.297043 
L 306.918042 131.277913 
L 315.242517 164.335304 
L 323.566993 175.354435 
L 331.891469 197.392696 
L 340.215944 175.354435 
L 348.54042 175.354435 
L 356.864895 153.316174 
L 365.189371 175.354435 
L 373.513846 197.392696 
L 381.838322 208.411826 
L 390.162797 219.430957 
L 398.487273 208.411826 
L 398.487273 208.411826 
L 398.487273 208.411826 
L 390.162797 219.430957 
L 381.838322 208.411826 
L 373.513846 197.392696 
L 365.189371 175.354435 
L 356.864895 131.277913 
L 348.54042 153.316174 
L 340.215944 153.316174 
L 331.891469 186.373565 
L 323.566993 153.316174 
L 315.242517 131.277913 
L 306.918042 120.258783 
L 298.593566 131.277913 
L 290.269091 142.297043 
L 281.944615 98.220522 
L 273.62014 65.16313 
L 265.295664 87.201391 
L 256.971189 65.16313 
L 248.646713 87.201391 
L 240.322238 65.16313 
L 231.997762 76.182261 
L 223.673287 76.182261 
L 215.348811 65.16313 
L 207.024336 98.220522 
L 198.69986 65.16313 
L 190.375385 76.182261 
L 182.050909 54.144 
L 173.726434 76.182261 
L 165.401958 87.201391 
L 157.077483 87.201391 
L 148.753007 65.16313 
L 140.428531 65.16313 
L 132.104056 76.182261 
L 123.77958 65.16313 
L 115.455105 87.201391 
L 107.130629 87.201391 
L 98.806154 76.182261 
L 90.481678 87.201391 
L 82.157203 76.182261 
L 73.832727 87.201391 
z
" clip-path="url(#pffb3b89b4b)" style="fill: #d62728"/>
   </g>
   <g id="PolyCollection_15">
    <path d="M 73.832727 87.201391 
L 73.832727 87.201391 
L 82.157203 76.182261 
L 90.481678 87.201391 
L 98.806154 76.182261 
L 107.130629 87.201391 
L 115.455105 87.201391 
L 123.77958 65.16313 
L 132.104056 76.182261 
L 140.428531 65.16313 
L 148.753007 65.16313 
L 157.077483 87.201391 
L 165.401958 87.201391 
L 173.726434 76.182261 
L 182.050909 54.144 
L 190.375385 76.182261 
L 198.69986 65.16313 
L 207.024336 98.220522 
L 215.348811 65.16313 
L 223.673287 76.182261 
L 231.997762 76.182261 
L 240.322238 65.16313 
L 248.646713 87.201391 
L 256.971189 65.16313 
L 265.295664 87.201391 
L 273.62014 65.16313 
L 281.944615 98.220522 
L 290.269091 142.297043 
L 298.593566 131.277913 
L 306.918042 120.258783 
L 315.242517 131.277913 
L 323.566993 153.316174 
L 331.891469 186.373565 
L 340.215944 153.316174 
L 348.54042 153.316174 
L 356.864895 131.277913 
L 365.189371 175.354435 
L 373.513846 197.392696 
L 381.838322 208.411826 
L 390.162797 219.430957 
L 398.487273 208.411826 
L 398.487273 186.373565 
L 398.487273 186.373565 
L 390.162797 197.392696 
L 381.838322 186.373565 
L 373.513846 175.354435 
L 365.189371 164.335304 
L 356.864895 109.239652 
L 348.54042 131.277913 
L 340.215944 142.297043 
L 331.891469 164.335304 
L 323.566993 131.277913 
L 315.242517 120.258783 
L 306.918042 87.201391 
L 298.593566 109.239652 
L 290.269091 131.277913 
L 281.944615 98.220522 
L 273.62014 65.16313 
L 265.295664 87.201391 
L 256.971189 65.16313 
L 248.646713 87.201391 
L 240.322238 65.16313 
L 231.997762 76.182261 
L 223.673287 76.182261 
L 215.348811 65.16313 
L 207.024336 98.220522 
L 198.69986 65.16313 
L 190.375385 76.182261 
L 182.050909 54.144 
L 173.726434 76.182261 
L 165.401958 87.201391 
L 157.077483 87.201391 
L 148.753007 65.16313 
L 140.428531 65.16313 
L 132.104056 76.182261 
L 123.77958 65.16313 
L 115.455105 87.201391 
L 107.130629 87.201391 
L 98.806154 76.182261 
L 90.481678 87.201391 
L 82.157203 76.182261 
L 73.832727 87.201391 
z
" clip-path="url(#pffb3b89b4b)" style="fill: #9467bd"/>
   </g>
   <g id="PolyCollection_16">
    <path d="M 73.832727 87.201391 
L 73.832727 87.201391 
L 82.157203 76.182261 
L 90.481678 87.201391 
L 98.806154 76.182261 
L 107.130629 87.201391 
L 115.455105 87.201391 
L 123.77958 65.16313 
L 132.104056 76.182261 
L 140.428531 65.16313 
L 148.753007 65.16313 
L 157.077483 87.201391 
L 165.401958 87.201391 
L 173.726434 76.182261 
L 182.050909 54.144 
L 190.375385 76.182261 
L 198.69986 65.16313 
L 207.024336 98.220522 
L 215.348811 65.16313 
L 223.673287 76.182261 
L 231.997762 76.182261 
L 240.322238 65.16313 
L 248.646713 87.201391 
L 256.971189 65.16313 
L 265.295664 87.201391 
L 273.62014 65.16313 
L 281.944615 98.220522 
L 290.269091 131.277913 
L 298.593566 109.239652 
L 306.918042 87.201391 
L 315.242517 120.258783 
L 323.566993 131.277913 
L 331.891469 164.335304 
L 340.215944 142.297043 
L 348.54042 131.277913 
L 356.864895 109.239652 
L 365.189371 164.335304 
L 373.513846 175.354435 
L 381.838322 186.373565 
L 390.162797 197.392696 
L 398.487273 186.373565 
L 398.487273 164.335304 
L 398.487273 164.335304 
L 390.162797 175.354435 
L 381.838322 164.335304 
L 373.513846 164.335304 
L 365.189371 131.277913 
L 356.864895 87.201391 
L 348.54042 120.258783 
L 340.215944 120.258783 
L 331.891469 153.316174 
L 323.566993 109.239652 
L 315.242517 98.220522 
L 306.918042 76.182261 
L 298.593566 87.201391 
L 290.269091 120.258783 
L 281.944615 98.220522 
L 273.62014 65.16313 
L 265.295664 87.201391 
L 256.971189 65.16313 
L 248.646713 87.201391 
L 240.322238 65.16313 
L 231.997762 76.182261 
L 223.673287 76.182261 
L 215.348811 65.16313 
L 207.024336 98.220522 
L 198.69986 65.16313 
L 190.375385 76.182261 
L 182.050909 54.144 
L 173.726434 76.182261 
L 165.401958 87.201391 
L 157.077483 87.201391 
L 148.753007 65.16313 
L 140.428531 65.16313 
L 132.104056 76.182261 
L 123.77958 65.16313 
L 115.455105 87.201391 
L 107.130629 87.201391 
L 98.806154 76.182261 
L 90.481678 87.201391 
L 82.157203 76.182261 
L 73.832727 87.201391 
z
" clip-path="url(#pffb3b89b4b)" style="fill: #8c564b"/>
   </g>
   <g id="PolyCollection_17">
    <path d="M 73.832727 87.201391 
L 73.832727 87.201391 
L 82.157203 76.182261 
L 90.481678 87.201391 
L 98.806154 76.182261 
L 107.130629 87.201391 
L 115.455105 87.201391 
L 123.77958 65.16313 
L 132.104056 76.182261 
L 140.428531 65.16313 
L 148.753007 65.16313 
L 157.077483 87.201391 
L 165.401958 87.201391 
L 173.726434 76.182261 
L 182.050909 54.144 
L 190.375385 76.182261 
L 198.69986 65.16313 
L 207.024336 98.220522 
L 215.348811 65.16313 
L 223.673287 76.182261 
L 231.997762 76.182261 
L 240.322238 65.16313 
L 248.646713 87.201391 
L 256.971189 65.16313 
L 265.295664 87.201391 
L 273.62014 65.16313 
L 281.944615 98.220522 
L 290.269091 120.258783 
L 298.593566 87.201391 
L 306.918042 76.182261 
L 315.242517 98.220522 
L 323.566993 109.239652 
L 331.891469 153.316174 
L 340.215944 120.258783 
L 348.54042 120.258783 
L 356.864895 87.201391 
L 365.189371 131.277913 
L 373.513846 164.335304 
L 381.838322 164.335304 
L 390.162797 175.354435 
L 398.487273 164.335304 
L 398.487273 153.316174 
L 398.487273 153.316174 
L 390.162797 153.316174 
L 381.838322 131.277913 
L 373.513846 131.277913 
L 365.189371 109.239652 
L 356.864895 65.16313 
L 348.54042 98.220522 
L 340.215944 98.220522 
L 331.891469 131.277913 
L 323.566993 98.220522 
L 315.242517 76.182261 
L 306.918042 54.144 
L 298.593566 65.16313 
L 290.269091 109.239652 
L 281.944615 98.220522 
L 273.62014 65.16313 
L 265.295664 87.201391 
L 256.971189 65.16313 
L 248.646713 87.201391 
L 240.322238 65.16313 
L 231.997762 76.182261 
L 223.673287 76.182261 
L 215.348811 65.16313 
L 207.024336 98.220522 
L 198.69986 65.16313 
L 190.375385 76.182261 
L 182.050909 54.144 
L 173.726434 76.182261 
L 165.401958 87.201391 
L 157.077483 87.201391 
L 148.753007 65.16313 
L 140.428531 65.16313 
L 132.104056 76.182261 
L 123.77958 65.16313 
L 115.455105 87.201391 
L 107.130629 87.201391 
L 98.806154 76.182261 
L 90.481678 87.201391 
L 82.157203 76.182261 
L 73.832727 87.201391 
z
" clip-path="url(#pffb3b89b4b)" style="fill: #e377c2"/>
   </g>
   <g id="PolyCollection_18">
    <path d="M 73.832727 87.201391 
L 73.832727 87.201391 
L 82.157203 76.182261 
L 90.481678 87.201391 
L 98.806154 76.182261 
L 107.130629 87.201391 
L 115.455105 87.201391 
L 123.77958 65.16313 
L 132.104056 76.182261 
L 140.428531 65.16313 
L 148.753007 65.16313 
L 157.077483 87.201391 
L 165.401958 87.201391 
L 173.726434 76.182261 
L 182.050909 54.144 
L 190.375385 76.182261 
L 198.69986 65.16313 
L 207.024336 98.220522 
L 215.348811 65.16313 
L 223.673287 76.182261 
L 231.997762 76.182261 
L 240.322238 65.16313 
L 248.646713 87.201391 
L 256.971189 65.16313 
L 265.295664 87.201391 
L 273.62014 65.16313 
L 281.944615 98.220522 
L 290.269091 109.239652 
L 298.593566 65.16313 
L 306.918042 54.144 
L 315.242517 76.182261 
L 323.566993 98.220522 
L 331.891469 131.277913 
L 340.215944 98.220522 
L 348.54042 98.220522 
L 356.864895 65.16313 
L 365.189371 109.239652 
L 373.513846 131.277913 
L 381.838322 131.277913 
L 390.162797 153.316174 
L 398.487273 153.316174 
L 398.487273 142.297043 
L 398.487273 142.297043 
L 390.162797 109.239652 
L 381.838322 120.258783 
L 373.513846 120.258783 
L 365.189371 87.201391 
L 356.864895 54.144 
L 348.54042 65.16313 
L 340.215944 65.16313 
L 331.891469 87.201391 
L 323.566993 65.16313 
L 315.242517 76.182261 
L 306.918042 54.144 
L 298.593566 65.16313 
L 290.269091 109.239652 
L 281.944615 98.220522 
L 273.62014 65.16313 
L 265.295664 87.201391 
L 256.971189 65.16313 
L 248.646713 87.201391 
L 240.322238 65.16313 
L 231.997762 76.182261 
L 223.673287 76.182261 
L 215.348811 65.16313 
L 207.024336 98.220522 
L 198.69986 65.16313 
L 190.375385 76.182261 
L 182.050909 54.144 
L 173.726434 76.182261 
L 165.401958 87.201391 
L 157.077483 87.201391 
L 148.753007 65.16313 
L 140.428531 65.16313 
L 132.104056 76.182261 
L 123.77958 65.16313 
L 115.455105 87.201391 
L 107.130629 87.201391 
L 98.806154 76.182261 
L 90.481678 87.201391 
L 82.157203 76.182261 
L 73.832727 87.201391 
z
" clip-path="url(#pffb3b89b4b)" style="fill: #7f7f7f"/>
   </g>
   <g id="PolyCollection_19">
    <path d="M 73.832727 87.201391 
L 73.832727 87.201391 
L 82.157203 76.182261 
L 90.481678 87.201391 
L 98.806154 76.182261 
L 107.130629 87.201391 
L 115.455105 87.201391 
L 123.77958 65.16313 
L 132.104056 76.182261 
L 140.428531 65.16313 
L 148.753007 65.16313 
L 157.077483 87.201391 
L 165.401958 87.201391 
L 173.726434 76.182261 
L 182.050909 54.144 
L 190.375385 76.182261 
L 198.69986 65.16313 
L 207.024336 98.220522 
L 215.348811 65.16313 
L 223.673287 76.182261 
L 231.997762 76.182261 
L 240.322238 65.16313 
L 248.646713 87.201391 
L 256.971189 65.16313 
L 265.295664 87.201391 
L 273.62014 65.16313 
L 281.944615 98.220522 
L 290.269091 109.239652 
L 298.593566 65.16313 
L 306.918042 54.144 
L 315.242517 76.182261 
L 323.566993 65.16313 
L 331.891469 87.201391 
L 340.215944 65.16313 
L 348.54042 65.16313 
L 356.864895 54.144 
L 365.189371 87.201391 
L 373.513846 120.258783 
L 381.838322 120.258783 
L 390.162797 109.239652 
L 398.487273 142.297043 
L 398.487273 120.258783 
L 398.487273 120.258783 
L 390.162797 87.201391 
L 381.838322 87.201391 
L 373.513846 98.220522 
L 365.189371 76.182261 
L 356.864895 54.144 
L 348.54042 65.16313 
L 340.215944 65.16313 
L 331.891469 87.201391 
L 323.566993 65.16313 
L 315.242517 76.182261 
L 306.918042 54.144 
L 298.593566 65.16313 
L 290.269091 109.239652 
L 281.944615 98.220522 
L 273.62014 65.16313 
L 265.295664 87.201391 
L 256.971189 65.16313 
L 248.646713 87.201391 
L 240.322238 65.16313 
L 231.997762 76.182261 
L 223.673287 76.182261 
L 215.348811 65.16313 
L 207.024336 98.220522 
L 198.69986 65.16313 
L 190.375385 76.182261 
L 182.050909 54.144 
L 173.726434 76.182261 
L 165.401958 87.201391 
L 157.077483 87.201391 
L 148.753007 65.16313 
L 140.428531 65.16313 
L 132.104056 76.182261 
L 123.77958 65.16313 
L 115.455105 87.201391 
L 107.130629 87.201391 
L 98.806154 76.182261 
L 90.481678 87.201391 
L 82.157203 76.182261 
L 73.832727 87.201391 
z
" clip-path="url(#pffb3b89b4b)" style="fill: #bcbd22"/>
   </g>
   <g id="PolyCollection_20">
    <path d="M 73.832727 87.201391 
L 73.832727 87.201391 
L 82.157203 76.182261 
L 90.481678 87.201391 
L 98.806154 76.182261 
L 107.130629 87.201391 
L 115.455105 87.201391 
L 123.77958 65.16313 
L 132.104056 76.182261 
L 140.428531 65.16313 
L 148.753007 65.16313 
L 157.077483 87.201391 
L 165.401958 87.201391 
L 173.726434 76.182261 
L 182.050909 54.144 
L 190.375385 76.182261 
L 198.69986 65.16313 
L 207.024336 98.220522 
L 215.348811 65.16313 
L 223.673287 76.182261 
L 231.997762 76.182261 
L 240.322238 65.16313 
L 248.646713 87.201391 
L 256.971189 65.16313 
L 265.295664 87.201391 
L 273.62014 65.16313 
L 281.944615 98.220522 
L 290.269091 109.239652 
L 298.593566 65.16313 
L 306.918042 54.144 
L 315.242517 76.182261 
L 323.566993 65.16313 
L 331.891469 87.201391 
L 340.215944 65.16313 
L 348.54042 65.16313 
L 356.864895 54.144 
L 365.189371 76.182261 
L 373.513846 98.220522 
L 381.838322 87.201391 
L 390.162797 87.201391 
L 398.487273 120.258783 
L 398.487273 98.220522 
L 398.487273 98.220522 
L 390.162797 65.16313 
L 381.838322 76.182261 
L 373.513846 76.182261 
L 365.189371 65.16313 
L 356.864895 54.144 
L 348.54042 65.16313 
L 340.215944 65.16313 
L 331.891469 87.201391 
L 323.566993 65.16313 
L 315.242517 76.182261 
L 306.918042 54.144 
L 298.593566 65.16313 
L 290.269091 109.239652 
L 281.944615 98.220522 
L 273.62014 65.16313 
L 265.295664 87.201391 
L 256.971189 65.16313 
L 248.646713 87.201391 
L 240.322238 65.16313 
L 231.997762 76.182261 
L 223.673287 76.182261 
L 215.348811 65.16313 
L 207.024336 98.220522 
L 198.69986 65.16313 
L 190.375385 76.182261 
L 182.050909 54.144 
L 173.726434 76.182261 
L 165.401958 87.201391 
L 157.077483 87.201391 
L 148.753007 65.16313 
L 140.428531 65.16313 
L 132.104056 76.182261 
L 123.77958 65.16313 
L 115.455105 87.201391 
L 107.130629 87.201391 
L 98.806154 76.182261 
L 90.481678 87.201391 
L 82.157203 76.182261 
L 73.832727 87.201391 
z
" clip-path="url(#pffb3b89b4b)" style="fill: #17becf"/>
   </g>
   <g id="PolyCollection_21">
    <path d="M 73.832727 87.201391 
L 73.832727 87.201391 
L 82.157203 76.182261 
L 90.481678 87.201391 
L 98.806154 76.182261 
L 107.130629 87.201391 
L 115.455105 87.201391 
L 123.77958 65.16313 
L 132.104056 76.182261 
L 140.428531 65.16313 
L 148.753007 65.16313 
L 157.077483 87.201391 
L 165.401958 87.201391 
L 173.726434 76.182261 
L 182.050909 54.144 
L 190.375385 76.182261 
L 198.69986 65.16313 
L 207.024336 98.220522 
L 215.348811 65.16313 
L 223.673287 76.182261 
L 231.997762 76.182261 
L 240.322238 65.16313 
L 248.646713 87.201391 
L 256.971189 65.16313 
L 265.295664 87.201391 
L 273.62014 65.16313 
L 281.944615 98.220522 
L 290.269091 109.239652 
L 298.593566 65.16313 
L 306.918042 54.144 
L 315.242517 76.182261 
L 323.566993 65.16313 
L 331.891469 87.201391 
L 340.215944 65.16313 
L 348.54042 65.16313 
L 356.864895 54.144 
L 365.189371 65.16313 
L 373.513846 76.182261 
L 381.838322 76.182261 
L 390.162797 65.16313 
L 398.487273 98.220522 
L 398.487273 87.201391 
L 398.487273 87.201391 
L 390.162797 65.16313 
L 381.838322 76.182261 
L 373.513846 76.182261 
L 365.189371 65.16313 
L 356.864895 54.144 
L 348.54042 65.16313 
L 340.215944 65.16313 
L 331.891469 87.201391 
L 323.566993 65.16313 
L 315.242517 76.182261 
L 306.918042 54.144 
L 298.593566 65.16313 
L 290.269091 109.239652 
L 281.944615 98.220522 
L 273.62014 65.16313 
L 265.295664 87.201391 
L 256.971189 65.16313 
L 248.646713 87.201391 
L 240.322238 65.16313 
L 231.997762 76.182261 
L 223.673287 76.182261 
L 215.348811 65.16313 
L 207.024336 98.220522 
L 198.69986 65.16313 
L 190.375385 76.182261 
L 182.050909 54.144 
L 173.726434 76.182261 
L 165.401958 87.201391 
L 157.077483 87.201391 
L 148.753007 65.16313 
L 140.428531 65.16313 
L 132.104056 76.182261 
L 123.77958 65.16313 
L 115.455105 87.201391 
L 107.130629 87.201391 
L 98.806154 76.182261 
L 90.481678 87.201391 
L 82.157203 76.182261 
L 73.832727 87.201391 
z
" clip-path="url(#pffb3b89b4b)" style="fill: #1f77b4"/>
   </g>
   <g id="matplotlib.axis_1">
    <g id="xtick_1">
     <g id="line2d_1">
      <defs>
       <path id="m97a534d66e" d="M 0 0 
L 0 3.5 
" style="stroke: #000000; stroke-width: 0.8"/>
      </defs>
      <g>
       <use xlink:href="#m97a534d66e" x="73.832727" y="307.584" style="stroke: #000000; stroke-width: 0.8"/>
      </g>
     </g>
     <g id="text_1">
      <!-- 0 -->
      <g transform="translate(70.651477 322.182437) scale(0.1 -0.1)">
       <defs>
        <path id="DejaVuSans-30" d="M 2034 4250 
Q 1547 4250 1301 3770 
Q 1056 3291 1056 2328 
Q 1056 1369 1301 889 
Q 1547 409 2034 409 
Q 2525 409 2770 889 
Q 3016 1369 3016 2328 
Q 3016 3291 2770 3770 
Q 2525 4250 2034 4250 
z
M 2034 4750 
Q 2819 4750 3233 4129 
Q 3647 3509 3647 2328 
Q 3647 1150 3233 529 
Q 2819 -91 2034 -91 
Q 1250 -91 836 529 
Q 422 1150 422 2328 
Q 422 3509 836 4129 
Q 1250 4750 2034 4750 
z
" transform="scale(0.015625)"/>
       </defs>
       <use xlink:href="#DejaVuSans-30"/>
      </g>
     </g>
    </g>
    <g id="xtick_2">
     <g id="line2d_2">
      <g>
       <use xlink:href="#m97a534d66e" x="115.455105" y="307.584" style="stroke: #000000; stroke-width: 0.8"/>
      </g>
     </g>
     <g id="text_2">
      <!-- 5 -->
      <g transform="translate(112.273855 322.182437) scale(0.1 -0.1)">
       <defs>
        <path id="DejaVuSans-35" d="M 691 4666 
L 3169 4666 
L 3169 4134 
L 1269 4134 
L 1269 2991 
Q 1406 3038 1543 3061 
Q 1681 3084 1819 3084 
Q 2600 3084 3056 2656 
Q 3513 2228 3513 1497 
Q 3513 744 3044 326 
Q 2575 -91 1722 -91 
Q 1428 -91 1123 -41 
Q 819 9 494 109 
L 494 744 
Q 775 591 1075 516 
Q 1375 441 1709 441 
Q 2250 441 2565 725 
Q 2881 1009 2881 1497 
Q 2881 1984 2565 2268 
Q 2250 2553 1709 2553 
Q 1456 2553 1204 2497 
Q 953 2441 691 2322 
L 691 4666 
z
" transform="scale(0.015625)"/>
       </defs>
       <use xlink:href="#DejaVuSans-35"/>
      </g>
     </g>
    </g>
    <g id="xtick_3">
     <g id="line2d_3">
      <g>
       <use xlink:href="#m97a534d66e" x="157.077483" y="307.584" style="stroke: #000000; stroke-width: 0.8"/>
      </g>
     </g>
     <g id="text_3">
      <!-- 10 -->
      <g transform="translate(150.714983 322.182437) scale(0.1 -0.1)">
       <defs>
        <path id="DejaVuSans-31" d="M 794 531 
L 1825 531 
L 1825 4091 
L 703 3866 
L 703 4441 
L 1819 4666 
L 2450 4666 
L 2450 531 
L 3481 531 
L 3481 0 
L 794 0 
L 794 531 
z
" transform="scale(0.015625)"/>
       </defs>
       <use xlink:href="#DejaVuSans-31"/>
       <use xlink:href="#DejaVuSans-30" x="63.623047"/>
      </g>
     </g>
    </g>
    <g id="xtick_4">
     <g id="line2d_4">
      <g>
       <use xlink:href="#m97a534d66e" x="198.69986" y="307.584" style="stroke: #000000; stroke-width: 0.8"/>
      </g>
     </g>
     <g id="text_4">
      <!-- 15 -->
      <g transform="translate(192.33736 322.182437) scale(0.1 -0.1)">
       <use xlink:href="#DejaVuSans-31"/>
       <use xlink:href="#DejaVuSans-35" x="63.623047"/>
      </g>
     </g>
    </g>
    <g id="xtick_5">
     <g id="line2d_5">
      <g>
       <use xlink:href="#m97a534d66e" x="240.322238" y="307.584" style="stroke: #000000; stroke-width: 0.8"/>
      </g>
     </g>
     <g id="text_5">
      <!-- 20 -->
      <g transform="translate(233.959738 322.182437) scale(0.1 -0.1)">
       <defs>
        <path id="DejaVuSans-32" d="M 1228 531 
L 3431 531 
L 3431 0 
L 469 0 
L 469 531 
Q 828 903 1448 1529 
Q 2069 2156 2228 2338 
Q 2531 2678 2651 2914 
Q 2772 3150 2772 3378 
Q 2772 3750 2511 3984 
Q 2250 4219 1831 4219 
Q 1534 4219 1204 4116 
Q 875 4013 500 3803 
L 500 4441 
Q 881 4594 1212 4672 
Q 1544 4750 1819 4750 
Q 2544 4750 2975 4387 
Q 3406 4025 3406 3419 
Q 3406 3131 3298 2873 
Q 3191 2616 2906 2266 
Q 2828 2175 2409 1742 
Q 1991 1309 1228 531 
z
" transform="scale(0.015625)"/>
       </defs>
       <use xlink:href="#DejaVuSans-32"/>
       <use xlink:href="#DejaVuSans-30" x="63.623047"/>
      </g>
     </g>
    </g>
    <g id="xtick_6">
     <g id="line2d_6">
      <g>
       <use xlink:href="#m97a534d66e" x="281.944615" y="307.584" style="stroke: #000000; stroke-width: 0.8"/>
      </g>
     </g>
     <g id="text_6">
      <!-- 25 -->
      <g transform="translate(275.582115 322.182437) scale(0.1 -0.1)">
       <use xlink:href="#DejaVuSans-32"/>
       <use xlink:href="#DejaVuSans-35" x="63.623047"/>
      </g>
     </g>
    </g>
    <g id="xtick_7">
     <g id="line2d_7">
      <g>
       <use xlink:href="#m97a534d66e" x="323.566993" y="307.584" style="stroke: #000000; stroke-width: 0.8"/>
      </g>
     </g>
     <g id="text_7">
      <!-- 30 -->
      <g transform="translate(317.204493 322.182437) scale(0.1 -0.1)">
       <defs>
        <path id="DejaVuSans-33" d="M 2597 2516 
Q 3050 2419 3304 2112 
Q 3559 1806 3559 1356 
Q 3559 666 3084 287 
Q 2609 -91 1734 -91 
Q 1441 -91 1130 -33 
Q 819 25 488 141 
L 488 750 
Q 750 597 1062 519 
Q 1375 441 1716 441 
Q 2309 441 2620 675 
Q 2931 909 2931 1356 
Q 2931 1769 2642 2001 
Q 2353 2234 1838 2234 
L 1294 2234 
L 1294 2753 
L 1863 2753 
Q 2328 2753 2575 2939 
Q 2822 3125 2822 3475 
Q 2822 3834 2567 4026 
Q 2313 4219 1838 4219 
Q 1578 4219 1281 4162 
Q 984 4106 628 3988 
L 628 4550 
Q 988 4650 1302 4700 
Q 1616 4750 1894 4750 
Q 2613 4750 3031 4423 
Q 3450 4097 3450 3541 
Q 3450 3153 3228 2886 
Q 3006 2619 2597 2516 
z
" transform="scale(0.015625)"/>
       </defs>
       <use xlink:href="#DejaVuSans-33"/>
       <use xlink:href="#DejaVuSans-30" x="63.623047"/>
      </g>
     </g>
    </g>
    <g id="xtick_8">
     <g id="line2d_8">
      <g>
       <use xlink:href="#m97a534d66e" x="365.189371" y="307.584" style="stroke: #000000; stroke-width: 0.8"/>
      </g>
     </g>
     <g id="text_8">
      <!-- 35 -->
      <g transform="translate(358.826871 322.182437) scale(0.1 -0.1)">
       <use xlink:href="#DejaVuSans-33"/>
       <use xlink:href="#DejaVuSans-35" x="63.623047"/>
      </g>
     </g>
    </g>
    <g id="xtick_9">
     <g id="line2d_9">
      <g>
       <use xlink:href="#m97a534d66e" x="406.811748" y="307.584" style="stroke: #000000; stroke-width: 0.8"/>
      </g>
     </g>
     <g id="text_9">
      <!-- 40 -->
      <g transform="translate(400.449248 322.182437) scale(0.1 -0.1)">
       <defs>
        <path id="DejaVuSans-34" d="M 2419 4116 
L 825 1625 
L 2419 1625 
L 2419 4116 
z
M 2253 4666 
L 3047 4666 
L 3047 1625 
L 3713 1625 
L 3713 1100 
L 3047 1100 
L 3047 0 
L 2419 0 
L 2419 1100 
L 313 1100 
L 313 1709 
L 2253 4666 
z
" transform="scale(0.015625)"/>
       </defs>
       <use xlink:href="#DejaVuSans-34"/>
       <use xlink:href="#DejaVuSans-30" x="63.623047"/>
      </g>
     </g>
    </g>
    <g id="text_10">
     <!-- Generations -->
     <g transform="translate(205.662344 335.860562) scale(0.1 -0.1)">
      <defs>
       <path id="DejaVuSans-47" d="M 3809 666 
L 3809 1919 
L 2778 1919 
L 2778 2438 
L 4434 2438 
L 4434 434 
Q 4069 175 3628 42 
Q 3188 -91 2688 -91 
Q 1594 -91 976 548 
Q 359 1188 359 2328 
Q 359 3472 976 4111 
Q 1594 4750 2688 4750 
Q 3144 4750 3555 4637 
Q 3966 4525 4313 4306 
L 4313 3634 
Q 3963 3931 3569 4081 
Q 3175 4231 2741 4231 
Q 1884 4231 1454 3753 
Q 1025 3275 1025 2328 
Q 1025 1384 1454 906 
Q 1884 428 2741 428 
Q 3075 428 3337 486 
Q 3600 544 3809 666 
z
" transform="scale(0.015625)"/>
       <path id="DejaVuSans-65" d="M 3597 1894 
L 3597 1613 
L 953 1613 
Q 991 1019 1311 708 
Q 1631 397 2203 397 
Q 2534 397 2845 478 
Q 3156 559 3463 722 
L 3463 178 
Q 3153 47 2828 -22 
Q 2503 -91 2169 -91 
Q 1331 -91 842 396 
Q 353 884 353 1716 
Q 353 2575 817 3079 
Q 1281 3584 2069 3584 
Q 2775 3584 3186 3129 
Q 3597 2675 3597 1894 
z
M 3022 2063 
Q 3016 2534 2758 2815 
Q 2500 3097 2075 3097 
Q 1594 3097 1305 2825 
Q 1016 2553 972 2059 
L 3022 2063 
z
" transform="scale(0.015625)"/>
       <path id="DejaVuSans-6e" d="M 3513 2113 
L 3513 0 
L 2938 0 
L 2938 2094 
Q 2938 2591 2744 2837 
Q 2550 3084 2163 3084 
Q 1697 3084 1428 2787 
Q 1159 2491 1159 1978 
L 1159 0 
L 581 0 
L 581 3500 
L 1159 3500 
L 1159 2956 
Q 1366 3272 1645 3428 
Q 1925 3584 2291 3584 
Q 2894 3584 3203 3211 
Q 3513 2838 3513 2113 
z
" transform="scale(0.015625)"/>
       <path id="DejaVuSans-72" d="M 2631 2963 
Q 2534 3019 2420 3045 
Q 2306 3072 2169 3072 
Q 1681 3072 1420 2755 
Q 1159 2438 1159 1844 
L 1159 0 
L 581 0 
L 581 3500 
L 1159 3500 
L 1159 2956 
Q 1341 3275 1631 3429 
Q 1922 3584 2338 3584 
Q 2397 3584 2469 3576 
Q 2541 3569 2628 3553 
L 2631 2963 
z
" transform="scale(0.015625)"/>
       <path id="DejaVuSans-61" d="M 2194 1759 
Q 1497 1759 1228 1600 
Q 959 1441 959 1056 
Q 959 750 1161 570 
Q 1363 391 1709 391 
Q 2188 391 2477 730 
Q 2766 1069 2766 1631 
L 2766 1759 
L 2194 1759 
z
M 3341 1997 
L 3341 0 
L 2766 0 
L 2766 531 
Q 2569 213 2275 61 
Q 1981 -91 1556 -91 
Q 1019 -91 701 211 
Q 384 513 384 1019 
Q 384 1609 779 1909 
Q 1175 2209 1959 2209 
L 2766 2209 
L 2766 2266 
Q 2766 2663 2505 2880 
Q 2244 3097 1772 3097 
Q 1472 3097 1187 3025 
Q 903 2953 641 2809 
L 641 3341 
Q 956 3463 1253 3523 
Q 1550 3584 1831 3584 
Q 2591 3584 2966 3190 
Q 3341 2797 3341 1997 
z
" transform="scale(0.015625)"/>
       <path id="DejaVuSans-74" d="M 1172 4494 
L 1172 3500 
L 2356 3500 
L 2356 3053 
L 1172 3053 
L 1172 1153 
Q 1172 725 1289 603 
Q 1406 481 1766 481 
L 2356 481 
L 2356 0 
L 1766 0 
Q 1100 0 847 248 
Q 594 497 594 1153 
L 594 3053 
L 172 3053 
L 172 3500 
L 594 3500 
L 594 4494 
L 1172 4494 
z
" transform="scale(0.015625)"/>
       <path id="DejaVuSans-69" d="M 603 3500 
L 1178 3500 
L 1178 0 
L 603 0 
L 603 3500 
z
M 603 4863 
L 1178 4863 
L 1178 4134 
L 603 4134 
L 603 4863 
z
" transform="scale(0.015625)"/>
       <path id="DejaVuSans-6f" d="M 1959 3097 
Q 1497 3097 1228 2736 
Q 959 2375 959 1747 
Q 959 1119 1226 758 
Q 1494 397 1959 397 
Q 2419 397 2687 759 
Q 2956 1122 2956 1747 
Q 2956 2369 2687 2733 
Q 2419 3097 1959 3097 
z
M 1959 3584 
Q 2709 3584 3137 3096 
Q 3566 2609 3566 1747 
Q 3566 888 3137 398 
Q 2709 -91 1959 -91 
Q 1206 -91 779 398 
Q 353 888 353 1747 
Q 353 2609 779 3096 
Q 1206 3584 1959 3584 
z
" transform="scale(0.015625)"/>
       <path id="DejaVuSans-73" d="M 2834 3397 
L 2834 2853 
Q 2591 2978 2328 3040 
Q 2066 3103 1784 3103 
Q 1356 3103 1142 2972 
Q 928 2841 928 2578 
Q 928 2378 1081 2264 
Q 1234 2150 1697 2047 
L 1894 2003 
Q 2506 1872 2764 1633 
Q 3022 1394 3022 966 
Q 3022 478 2636 193 
Q 2250 -91 1575 -91 
Q 1294 -91 989 -36 
Q 684 19 347 128 
L 347 722 
Q 666 556 975 473 
Q 1284 391 1588 391 
Q 1994 391 2212 530 
Q 2431 669 2431 922 
Q 2431 1156 2273 1281 
Q 2116 1406 1581 1522 
L 1381 1569 
Q 847 1681 609 1914 
Q 372 2147 372 2553 
Q 372 3047 722 3315 
Q 1072 3584 1716 3584 
Q 2034 3584 2315 3537 
Q 2597 3491 2834 3397 
z
" transform="scale(0.015625)"/>
      </defs>
      <use xlink:href="#DejaVuSans-47"/>
      <use xlink:href="#DejaVuSans-65" x="77.490234"/>
      <use xlink:href="#DejaVuSans-6e" x="139.013672"/>
      <use xlink:href="#DejaVuSans-65" x="202.392578"/>
      <use xlink:href="#DejaVuSans-72" x="263.916016"/>
      <use xlink:href="#DejaVuSans-61" x="305.029297"/>
      <use xlink:href="#DejaVuSans-74" x="366.308594"/>
      <use xlink:href="#DejaVuSans-69" x="405.517578"/>
      <use xlink:href="#DejaVuSans-6f" x="433.300781"/>
      <use xlink:href="#DejaVuSans-6e" x="494.482422"/>
      <use xlink:href="#DejaVuSans-73" x="557.861328"/>
     </g>
    </g>
   </g>
   <g id="matplotlib.axis_2">
    <g id="ytick_1">
     <g id="line2d_10">
      <defs>
       <path id="m3e3cb779ab" d="M 0 0 
L -3.5 0 
" style="stroke: #000000; stroke-width: 0.8"/>
      </defs>
      <g>
       <use xlink:href="#m3e3cb779ab" x="57.6" y="307.584" style="stroke: #000000; stroke-width: 0.8"/>
      </g>
     </g>
     <g id="text_11">
      <!-- 0 -->
      <g transform="translate(44.2375 311.383219) scale(0.1 -0.1)">
       <use xlink:href="#DejaVuSans-30"/>
      </g>
     </g>
    </g>
    <g id="ytick_2">
     <g id="line2d_11">
      <g>
       <use xlink:href="#m3e3cb779ab" x="57.6" y="252.488348" style="stroke: #000000; stroke-width: 0.8"/>
      </g>
     </g>
     <g id="text_12">
      <!-- 5 -->
      <g transform="translate(44.2375 256.287567) scale(0.1 -0.1)">
       <use xlink:href="#DejaVuSans-35"/>
      </g>
     </g>
    </g>
    <g id="ytick_3">
     <g id="line2d_12">
      <g>
       <use xlink:href="#m3e3cb779ab" x="57.6" y="197.392696" style="stroke: #000000; stroke-width: 0.8"/>
      </g>
     </g>
     <g id="text_13">
      <!-- 10 -->
      <g transform="translate(37.875 201.191914) scale(0.1 -0.1)">
       <use xlink:href="#DejaVuSans-31"/>
       <use xlink:href="#DejaVuSans-30" x="63.623047"/>
      </g>
     </g>
    </g>
    <g id="ytick_4">
     <g id="line2d_13">
      <g>
       <use xlink:href="#m3e3cb779ab" x="57.6" y="142.297043" style="stroke: #000000; stroke-width: 0.8"/>
      </g>
     </g>
     <g id="text_14">
      <!-- 15 -->
      <g transform="translate(37.875 146.096262) scale(0.1 -0.1)">
       <use xlink:href="#DejaVuSans-31"/>
       <use xlink:href="#DejaVuSans-35" x="63.623047"/>
      </g>
     </g>
    </g>
    <g id="ytick_5">
     <g id="line2d_14">
      <g>
       <use xlink:href="#m3e3cb779ab" x="57.6" y="87.201391" style="stroke: #000000; stroke-width: 0.8"/>
      </g>
     </g>
     <g id="text_15">
      <!-- 20 -->
      <g transform="translate(37.875 91.00061) scale(0.1 -0.1)">
       <use xlink:href="#DejaVuSans-32"/>
       <use xlink:href="#DejaVuSans-30" x="63.623047"/>
      </g>
     </g>
    </g>
    <g id="text_16">
     <!-- Size per Species -->
     <g transform="translate(31.795312 215.520969) rotate(-90) scale(0.1 -0.1)">
      <defs>
       <path id="DejaVuSans-53" d="M 3425 4513 
L 3425 3897 
Q 3066 4069 2747 4153 
Q 2428 4238 2131 4238 
Q 1616 4238 1336 4038 
Q 1056 3838 1056 3469 
Q 1056 3159 1242 3001 
Q 1428 2844 1947 2747 
L 2328 2669 
Q 3034 2534 3370 2195 
Q 3706 1856 3706 1288 
Q 3706 609 3251 259 
Q 2797 -91 1919 -91 
Q 1588 -91 1214 -16 
Q 841 59 441 206 
L 441 856 
Q 825 641 1194 531 
Q 1563 422 1919 422 
Q 2459 422 2753 634 
Q 3047 847 3047 1241 
Q 3047 1584 2836 1778 
Q 2625 1972 2144 2069 
L 1759 2144 
Q 1053 2284 737 2584 
Q 422 2884 422 3419 
Q 422 4038 858 4394 
Q 1294 4750 2059 4750 
Q 2388 4750 2728 4690 
Q 3069 4631 3425 4513 
z
" transform="scale(0.015625)"/>
       <path id="DejaVuSans-7a" d="M 353 3500 
L 3084 3500 
L 3084 2975 
L 922 459 
L 3084 459 
L 3084 0 
L 275 0 
L 275 525 
L 2438 3041 
L 353 3041 
L 353 3500 
z
" transform="scale(0.015625)"/>
       <path id="DejaVuSans-20" transform="scale(0.015625)"/>
       <path id="DejaVuSans-70" d="M 1159 525 
L 1159 -1331 
L 581 -1331 
L 581 3500 
L 1159 3500 
L 1159 2969 
Q 1341 3281 1617 3432 
Q 1894 3584 2278 3584 
Q 2916 3584 3314 3078 
Q 3713 2572 3713 1747 
Q 3713 922 3314 415 
Q 2916 -91 2278 -91 
Q 1894 -91 1617 61 
Q 1341 213 1159 525 
z
M 3116 1747 
Q 3116 2381 2855 2742 
Q 2594 3103 2138 3103 
Q 1681 3103 1420 2742 
Q 1159 2381 1159 1747 
Q 1159 1113 1420 752 
Q 1681 391 2138 391 
Q 2594 391 2855 752 
Q 3116 1113 3116 1747 
z
" transform="scale(0.015625)"/>
       <path id="DejaVuSans-63" d="M 3122 3366 
L 3122 2828 
Q 2878 2963 2633 3030 
Q 2388 3097 2138 3097 
Q 1578 3097 1268 2742 
Q 959 2388 959 1747 
Q 959 1106 1268 751 
Q 1578 397 2138 397 
Q 2388 397 2633 464 
Q 2878 531 3122 666 
L 3122 134 
Q 2881 22 2623 -34 
Q 2366 -91 2075 -91 
Q 1284 -91 818 406 
Q 353 903 353 1747 
Q 353 2603 823 3093 
Q 1294 3584 2113 3584 
Q 2378 3584 2631 3529 
Q 2884 3475 3122 3366 
z
" transform="scale(0.015625)"/>
      </defs>
      <use xlink:href="#DejaVuSans-53"/>
      <use xlink:href="#DejaVuSans-69" x="63.476562"/>
      <use xlink:href="#DejaVuSans-7a" x="91.259766"/>
      <use xlink:href="#DejaVuSans-65" x="143.75"/>
      <use xlink:href="#DejaVuSans-20" x="205.273438"/>
      <use xlink:href="#DejaVuSans-70" x="237.060547"/>
      <use xlink:href="#DejaVuSans-65" x="300.537109"/>
      <use xlink:href="#DejaVuSans-72" x="362.060547"/>
      <use xlink:href="#DejaVuSans-20" x="403.173828"/>
      <use xlink:href="#DejaVuSans-53" x="434.960938"/>
      <use xlink:href="#DejaVuSans-70" x="498.4375"/>
      <use xlink:href="#DejaVuSans-65" x="561.914062"/>
      <use xlink:href="#DejaVuSans-63" x="623.4375"/>
      <use xlink:href="#DejaVuSans-69" x="678.417969"/>
      <use xlink:href="#DejaVuSans-65" x="706.201172"/>
      <use xlink:href="#DejaVuSans-73" x="767.724609"/>
     </g>
    </g>
   </g>
   <g id="patch_3">
    <path d="M 57.6 307.584 
L 57.6 41.472 
" style="fill: none; stroke: #000000; stroke-width: 0.8; stroke-linejoin: miter; stroke-linecap: square"/>
   </g>
   <g id="patch_4">
    <path d="M 414.72 307.584 
L 414.72 41.472 
" style="fill: none; stroke: #000000; stroke-width: 0.8; stroke-linejoin: miter; stroke-linecap: square"/>
   </g>
   <g id="patch_5">
    <path d="M 57.6 307.584 
L 414.72 307.584 
" style="fill: none; stroke: #000000; stroke-width: 0.8; stroke-linejoin: miter; stroke-linecap: square"/>
   </g>
   <g id="patch_6">
    <path d="M 57.6 41.472 
L 414.72 41.472 
" style="fill: none; stroke: #000000; stroke-width: 0.8; stroke-linejoin: miter; stroke-linecap: square"/>
   </g>
   <g id="text_17">
    <!-- Speciation -->
    <g transform="translate(204.714375 35.472) scale(0.12 -0.12)">
     <use xlink:href="#DejaVuSans-53"/>
     <use xlink:href="#DejaVuSans-70" x="63.476562"/>
     <use xlink:href="#DejaVuSans-65" x="126.953125"/>
     <use xlink:href="#DejaVuSans-63" x="188.476562"/>
     <use xlink:href="#DejaVuSans-69" x="243.457031"/>
     <use xlink:href="#DejaVuSans-61" x="271.240234"/>
     <use xlink:href="#DejaVuSans-74" x="332.519531"/>
     <use xlink:href="#DejaVuSans-69" x="371.728516"/>
     <use xlink:href="#DejaVuSans-6f" x="399.511719"/>
     <use xlink:href="#DejaVuSans-6e" x="460.693359"/>
    </g>
   </g>
  </g>
 </g>
 <defs>
  <clipPath id="pffb3b89b4b">
   <rect x="57.6" y="41.472" width="357.12" height="266.112"/>
  </clipPath>
 </defs>
</svg>
