<?xml version="1.0" encoding="utf-8" standalone="no"?>
<!DOCTYPE svg PUBLIC "-//W3C//DTD SVG 1.1//EN"
  "http://www.w3.org/Graphics/SVG/1.1/DTD/svg11.dtd">
<svg xmlns:xlink="http://www.w3.org/1999/xlink" width="460.8pt" height="345.6pt" viewBox="0 0 460.8 345.6" xmlns="http://www.w3.org/2000/svg" version="1.1">
 <metadata>
  <rdf:RDF xmlns:dc="http://purl.org/dc/elements/1.1/" xmlns:cc="http://creativecommons.org/ns#" xmlns:rdf="http://www.w3.org/1999/02/22-rdf-syntax-ns#">
   <cc:Work>
    <dc:type rdf:resource="http://purl.org/dc/dcmitype/StillImage"/>
    <dc:date>2024-07-30T17:30:26.024288</dc:date>
    <dc:format>image/svg+xml</dc:format>
    <dc:creator>
     <cc:Agent>
      <dc:title>Matplotlib v3.8.4, https://matplotlib.org/</dc:title>
     </cc:Agent>
    </dc:creator>
   </cc:Work>
  </rdf:RDF>
 </metadata>
 <defs>
  <style type="text/css">*{stroke-linejoin: round; stroke-linecap: butt}</style>
 </defs>
 <g id="figure_1">
  <g id="patch_1">
   <path d="M 0 345.6 
L 460.8 345.6 
L 460.8 0 
L 0 0 
z
" style="fill: #ffffff"/>
  </g>
  <g id="axes_1">
   <g id="patch_2">
    <path d="M 57.6 307.584 
L 414.72 307.584 
L 414.72 41.472 
L 57.6 41.472 
z
" style="fill: #ffffff"/>
   </g>
   <g id="PolyCollection_1">
    <path d="M 73.832727 212.544 
L 73.832727 307.584 
L 82.157203 307.584 
L 90.481678 307.584 
L 98.806154 307.584 
L 107.130629 307.584 
L 115.455105 307.584 
L 123.77958 307.584 
L 132.104056 307.584 
L 140.428531 307.584 
L 148.753007 307.584 
L 157.077483 307.584 
L 165.401958 307.584 
L 173.726434 307.584 
L 182.050909 307.584 
L 190.375385 307.584 
L 198.69986 307.584 
L 207.024336 307.584 
L 215.348811 307.584 
L 223.673287 307.584 
L 231.997762 307.584 
L 240.322238 307.584 
L 248.646713 307.584 
L 256.971189 307.584 
L 265.295664 307.584 
L 273.62014 307.584 
L 281.944615 307.584 
L 290.269091 307.584 
L 298.593566 307.584 
L 306.918042 307.584 
L 315.242517 307.584 
L 323.566993 307.584 
L 331.891469 307.584 
L 340.215944 307.584 
L 348.54042 307.584 
L 356.864895 307.584 
L 365.189371 307.584 
L 373.513846 307.584 
L 381.838322 307.584 
L 390.162797 307.584 
L 398.487273 307.584 
L 398.487273 307.584 
L 398.487273 307.584 
L 390.162797 307.584 
L 381.838322 307.584 
L 373.513846 307.584 
L 365.189371 307.584 
L 356.864895 307.584 
L 348.54042 307.584 
L 340.215944 307.584 
L 331.891469 307.584 
L 323.566993 307.584 
L 315.242517 307.584 
L 306.918042 307.584 
L 298.593566 307.584 
L 290.269091 307.584 
L 281.944615 307.584 
L 273.62014 307.584 
L 265.295664 307.584 
L 256.971189 307.584 
L 248.646713 307.584 
L 240.322238 307.584 
L 231.997762 307.584 
L 223.673287 307.584 
L 215.348811 307.584 
L 207.024336 307.584 
L 198.69986 307.584 
L 190.375385 307.584 
L 182.050909 307.584 
L 173.726434 299.664 
L 165.401958 291.744 
L 157.077483 283.824 
L 148.753007 291.744 
L 140.428531 291.744 
L 132.104056 283.824 
L 123.77958 283.824 
L 115.455105 299.664 
L 107.130629 275.904 
L 98.806154 299.664 
L 90.481678 275.904 
L 82.157203 260.064 
L 73.832727 212.544 
z
" clip-path="url(#p4da5f923e3)" style="fill: #1f77b4"/>
   </g>
   <g id="PolyCollection_2">
    <path d="M 73.832727 204.624 
L 73.832727 212.544 
L 82.157203 260.064 
L 90.481678 275.904 
L 98.806154 299.664 
L 107.130629 275.904 
L 115.455105 299.664 
L 123.77958 283.824 
L 132.104056 283.824 
L 140.428531 291.744 
L 148.753007 291.744 
L 157.077483 283.824 
L 165.401958 291.744 
L 173.726434 299.664 
L 182.050909 307.584 
L 190.375385 307.584 
L 198.69986 307.584 
L 207.024336 307.584 
L 215.348811 307.584 
L 223.673287 307.584 
L 231.997762 307.584 
L 240.322238 307.584 
L 248.646713 307.584 
L 256.971189 307.584 
L 265.295664 307.584 
L 273.62014 307.584 
L 281.944615 307.584 
L 290.269091 307.584 
L 298.593566 307.584 
L 306.918042 307.584 
L 315.242517 307.584 
L 323.566993 307.584 
L 331.891469 307.584 
L 340.215944 307.584 
L 348.54042 307.584 
L 356.864895 307.584 
L 365.189371 307.584 
L 373.513846 307.584 
L 381.838322 307.584 
L 390.162797 307.584 
L 398.487273 307.584 
L 398.487273 299.664 
L 398.487273 299.664 
L 390.162797 291.744 
L 381.838322 291.744 
L 373.513846 291.744 
L 365.189371 291.744 
L 356.864895 291.744 
L 348.54042 283.824 
L 340.215944 283.824 
L 331.891469 275.904 
L 323.566993 291.744 
L 315.242517 291.744 
L 306.918042 283.824 
L 298.593566 291.744 
L 290.269091 275.904 
L 281.944615 283.824 
L 273.62014 299.664 
L 265.295664 275.904 
L 256.971189 291.744 
L 248.646713 299.664 
L 240.322238 291.744 
L 231.997762 291.744 
L 223.673287 291.744 
L 215.348811 291.744 
L 207.024336 283.824 
L 198.69986 291.744 
L 190.375385 275.904 
L 182.050909 283.824 
L 173.726434 283.824 
L 165.401958 275.904 
L 157.077483 260.064 
L 148.753007 260.064 
L 140.428531 267.984 
L 132.104056 275.904 
L 123.77958 275.904 
L 115.455105 291.744 
L 107.130629 252.144 
L 98.806154 275.904 
L 90.481678 260.064 
L 82.157203 244.224 
L 73.832727 204.624 
z
" clip-path="url(#p4da5f923e3)" style="fill: #ff7f0e"/>
   </g>
   <g id="PolyCollection_3">
    <path d="M 73.832727 172.944 
L 73.832727 204.624 
L 82.157203 244.224 
L 90.481678 260.064 
L 98.806154 275.904 
L 107.130629 252.144 
L 115.455105 291.744 
L 123.77958 275.904 
L 132.104056 275.904 
L 140.428531 267.984 
L 148.753007 260.064 
L 157.077483 260.064 
L 165.401958 275.904 
L 173.726434 283.824 
L 182.050909 283.824 
L 190.375385 275.904 
L 198.69986 291.744 
L 207.024336 283.824 
L 215.348811 291.744 
L 223.673287 291.744 
L 231.997762 291.744 
L 240.322238 291.744 
L 248.646713 299.664 
L 256.971189 291.744 
L 265.295664 275.904 
L 273.62014 299.664 
L 281.944615 283.824 
L 290.269091 275.904 
L 298.593566 291.744 
L 306.918042 283.824 
L 315.242517 291.744 
L 323.566993 291.744 
L 331.891469 275.904 
L 340.215944 283.824 
L 348.54042 283.824 
L 356.864895 291.744 
L 365.189371 291.744 
L 373.513846 291.744 
L 381.838322 291.744 
L 390.162797 291.744 
L 398.487273 299.664 
L 398.487273 299.664 
L 398.487273 299.664 
L 390.162797 291.744 
L 381.838322 291.744 
L 373.513846 291.744 
L 365.189371 291.744 
L 356.864895 291.744 
L 348.54042 283.824 
L 340.215944 283.824 
L 331.891469 275.904 
L 323.566993 291.744 
L 315.242517 291.744 
L 306.918042 283.824 
L 298.593566 291.744 
L 290.269091 275.904 
L 281.944615 283.824 
L 273.62014 299.664 
L 265.295664 275.904 
L 256.971189 291.744 
L 248.646713 299.664 
L 240.322238 291.744 
L 231.997762 291.744 
L 223.673287 291.744 
L 215.348811 291.744 
L 207.024336 283.824 
L 198.69986 291.744 
L 190.375385 252.144 
L 182.050909 260.064 
L 173.726434 267.984 
L 165.401958 267.984 
L 157.077483 252.144 
L 148.753007 244.224 
L 140.428531 252.144 
L 132.104056 267.984 
L 123.77958 260.064 
L 115.455105 275.904 
L 107.130629 228.384 
L 98.806154 228.384 
L 90.481678 204.624 
L 82.157203 204.624 
L 73.832727 172.944 
z
" clip-path="url(#p4da5f923e3)" style="fill: #2ca02c"/>
   </g>
   <g id="PolyCollection_4">
    <path d="M 73.832727 149.184 
L 73.832727 172.944 
L 82.157203 204.624 
L 90.481678 204.624 
L 98.806154 228.384 
L 107.130629 228.384 
L 115.455105 275.904 
L 123.77958 260.064 
L 132.104056 267.984 
L 140.428531 252.144 
L 148.753007 244.224 
L 157.077483 252.144 
L 165.401958 267.984 
L 173.726434 267.984 
L 182.050909 260.064 
L 190.375385 252.144 
L 198.69986 291.744 
L 207.024336 283.824 
L 215.348811 291.744 
L 223.673287 291.744 
L 231.997762 291.744 
L 240.322238 291.744 
L 248.646713 299.664 
L 256.971189 291.744 
L 265.295664 275.904 
L 273.62014 299.664 
L 281.944615 283.824 
L 290.269091 275.904 
L 298.593566 291.744 
L 306.918042 283.824 
L 315.242517 291.744 
L 323.566993 291.744 
L 331.891469 275.904 
L 340.215944 283.824 
L 348.54042 283.824 
L 356.864895 291.744 
L 365.189371 291.744 
L 373.513846 291.744 
L 381.838322 291.744 
L 390.162797 291.744 
L 398.487273 299.664 
L 398.487273 299.664 
L 398.487273 299.664 
L 390.162797 291.744 
L 381.838322 291.744 
L 373.513846 291.744 
L 365.189371 291.744 
L 356.864895 291.744 
L 348.54042 283.824 
L 340.215944 283.824 
L 331.891469 275.904 
L 323.566993 291.744 
L 315.242517 291.744 
L 306.918042 283.824 
L 298.593566 291.744 
L 290.269091 275.904 
L 281.944615 283.824 
L 273.62014 299.664 
L 265.295664 275.904 
L 256.971189 291.744 
L 248.646713 299.664 
L 240.322238 291.744 
L 231.997762 291.744 
L 223.673287 291.744 
L 215.348811 291.744 
L 207.024336 283.824 
L 198.69986 291.744 
L 190.375385 252.144 
L 182.050909 252.144 
L 173.726434 244.224 
L 165.401958 236.304 
L 157.077483 236.304 
L 148.753007 220.464 
L 140.428531 236.304 
L 132.104056 260.064 
L 123.77958 236.304 
L 115.455105 260.064 
L 107.130629 212.544 
L 98.806154 196.704 
L 90.481678 180.864 
L 82.157203 172.944 
L 73.832727 149.184 
z
" clip-path="url(#p4da5f923e3)" style="fill: #d62728"/>
   </g>
   <g id="PolyCollection_5">
    <path d="M 73.832727 149.184 
L 73.832727 149.184 
L 82.157203 172.944 
L 90.481678 180.864 
L 98.806154 196.704 
L 107.130629 212.544 
L 115.455105 260.064 
L 123.77958 236.304 
L 132.104056 260.064 
L 140.428531 236.304 
L 148.753007 220.464 
L 157.077483 236.304 
L 165.401958 236.304 
L 173.726434 244.224 
L 182.050909 252.144 
L 190.375385 252.144 
L 198.69986 291.744 
L 207.024336 283.824 
L 215.348811 291.744 
L 223.673287 291.744 
L 231.997762 291.744 
L 240.322238 291.744 
L 248.646713 299.664 
L 256.971189 291.744 
L 265.295664 275.904 
L 273.62014 299.664 
L 281.944615 283.824 
L 290.269091 275.904 
L 298.593566 291.744 
L 306.918042 283.824 
L 315.242517 291.744 
L 323.566993 291.744 
L 331.891469 275.904 
L 340.215944 283.824 
L 348.54042 283.824 
L 356.864895 291.744 
L 365.189371 291.744 
L 373.513846 291.744 
L 381.838322 291.744 
L 390.162797 291.744 
L 398.487273 299.664 
L 398.487273 299.664 
L 398.487273 299.664 
L 390.162797 291.744 
L 381.838322 291.744 
L 373.513846 291.744 
L 365.189371 291.744 
L 356.864895 291.744 
L 348.54042 283.824 
L 340.215944 283.824 
L 331.891469 275.904 
L 323.566993 291.744 
L 315.242517 291.744 
L 306.918042 283.824 
L 298.593566 291.744 
L 290.269091 275.904 
L 281.944615 283.824 
L 273.62014 299.664 
L 265.295664 275.904 
L 256.971189 291.744 
L 248.646713 299.664 
L 240.322238 291.744 
L 231.997762 291.744 
L 223.673287 291.744 
L 215.348811 291.744 
L 207.024336 275.904 
L 198.69986 275.904 
L 190.375385 244.224 
L 182.050909 236.304 
L 173.726434 228.384 
L 165.401958 220.464 
L 157.077483 228.384 
L 148.753007 204.624 
L 140.428531 228.384 
L 132.104056 236.304 
L 123.77958 220.464 
L 115.455105 252.144 
L 107.130629 196.704 
L 98.806154 180.864 
L 90.481678 165.024 
L 82.157203 157.104 
L 73.832727 149.184 
z
" clip-path="url(#p4da5f923e3)" style="fill: #9467bd"/>
   </g>
   <g id="PolyCollection_6">
    <path d="M 73.832727 149.184 
L 73.832727 149.184 
L 82.157203 157.104 
L 90.481678 165.024 
L 98.806154 180.864 
L 107.130629 196.704 
L 115.455105 252.144 
L 123.77958 220.464 
L 132.104056 236.304 
L 140.428531 228.384 
L 148.753007 204.624 
L 157.077483 228.384 
L 165.401958 220.464 
L 173.726434 228.384 
L 182.050909 236.304 
L 190.375385 244.224 
L 198.69986 275.904 
L 207.024336 275.904 
L 215.348811 291.744 
L 223.673287 291.744 
L 231.997762 291.744 
L 240.322238 291.744 
L 248.646713 299.664 
L 256.971189 291.744 
L 265.295664 275.904 
L 273.62014 299.664 
L 281.944615 283.824 
L 290.269091 275.904 
L 298.593566 291.744 
L 306.918042 283.824 
L 315.242517 291.744 
L 323.566993 291.744 
L 331.891469 275.904 
L 340.215944 283.824 
L 348.54042 283.824 
L 356.864895 291.744 
L 365.189371 291.744 
L 373.513846 291.744 
L 381.838322 291.744 
L 390.162797 291.744 
L 398.487273 299.664 
L 398.487273 299.664 
L 398.487273 299.664 
L 390.162797 291.744 
L 381.838322 291.744 
L 373.513846 291.744 
L 365.189371 291.744 
L 356.864895 291.744 
L 348.54042 283.824 
L 340.215944 283.824 
L 331.891469 275.904 
L 323.566993 291.744 
L 315.242517 291.744 
L 306.918042 283.824 
L 298.593566 291.744 
L 290.269091 275.904 
L 281.944615 283.824 
L 273.62014 283.824 
L 265.295664 260.064 
L 256.971189 275.904 
L 248.646713 283.824 
L 240.322238 267.984 
L 231.997762 275.904 
L 223.673287 275.904 
L 215.348811 275.904 
L 207.024336 267.984 
L 198.69986 260.064 
L 190.375385 228.384 
L 182.050909 212.544 
L 173.726434 220.464 
L 165.401958 204.624 
L 157.077483 204.624 
L 148.753007 188.784 
L 140.428531 204.624 
L 132.104056 204.624 
L 123.77958 196.704 
L 115.455105 236.304 
L 107.130629 180.864 
L 98.806154 165.024 
L 90.481678 149.184 
L 82.157203 149.184 
L 73.832727 149.184 
z
" clip-path="url(#p4da5f923e3)" style="fill: #8c564b"/>
   </g>
   <g id="PolyCollection_7">
    <path d="M 73.832727 149.184 
L 73.832727 149.184 
L 82.157203 149.184 
L 90.481678 149.184 
L 98.806154 165.024 
L 107.130629 180.864 
L 115.455105 236.304 
L 123.77958 196.704 
L 132.104056 204.624 
L 140.428531 204.624 
L 148.753007 188.784 
L 157.077483 204.624 
L 165.401958 204.624 
L 173.726434 220.464 
L 182.050909 212.544 
L 190.375385 228.384 
L 198.69986 260.064 
L 207.024336 267.984 
L 215.348811 275.904 
L 223.673287 275.904 
L 231.997762 275.904 
L 240.322238 267.984 
L 248.646713 283.824 
L 256.971189 275.904 
L 265.295664 260.064 
L 273.62014 283.824 
L 281.944615 283.824 
L 290.269091 275.904 
L 298.593566 291.744 
L 306.918042 283.824 
L 315.242517 291.744 
L 323.566993 291.744 
L 331.891469 275.904 
L 340.215944 283.824 
L 348.54042 283.824 
L 356.864895 291.744 
L 365.189371 291.744 
L 373.513846 291.744 
L 381.838322 291.744 
L 390.162797 291.744 
L 398.487273 299.664 
L 398.487273 299.664 
L 398.487273 299.664 
L 390.162797 291.744 
L 381.838322 291.744 
L 373.513846 291.744 
L 365.189371 291.744 
L 356.864895 291.744 
L 348.54042 283.824 
L 340.215944 283.824 
L 331.891469 275.904 
L 323.566993 291.744 
L 315.242517 291.744 
L 306.918042 283.824 
L 298.593566 291.744 
L 290.269091 275.904 
L 281.944615 283.824 
L 273.62014 283.824 
L 265.295664 260.064 
L 256.971189 275.904 
L 248.646713 283.824 
L 240.322238 267.984 
L 231.997762 267.984 
L 223.673287 267.984 
L 215.348811 260.064 
L 207.024336 260.064 
L 198.69986 252.144 
L 190.375385 220.464 
L 182.050909 204.624 
L 173.726434 204.624 
L 165.401958 188.784 
L 157.077483 196.704 
L 148.753007 172.944 
L 140.428531 180.864 
L 132.104056 188.784 
L 123.77958 180.864 
L 115.455105 220.464 
L 107.130629 165.024 
L 98.806154 157.104 
L 90.481678 141.264 
L 82.157203 149.184 
L 73.832727 149.184 
z
" clip-path="url(#p4da5f923e3)" style="fill: #e377c2"/>
   </g>
   <g id="PolyCollection_8">
    <path d="M 73.832727 149.184 
L 73.832727 149.184 
L 82.157203 149.184 
L 90.481678 141.264 
L 98.806154 157.104 
L 107.130629 165.024 
L 115.455105 220.464 
L 123.77958 180.864 
L 132.104056 188.784 
L 140.428531 180.864 
L 148.753007 172.944 
L 157.077483 196.704 
L 165.401958 188.784 
L 173.726434 204.624 
L 182.050909 204.624 
L 190.375385 220.464 
L 198.69986 252.144 
L 207.024336 260.064 
L 215.348811 260.064 
L 223.673287 267.984 
L 231.997762 267.984 
L 240.322238 267.984 
L 248.646713 283.824 
L 256.971189 275.904 
L 265.295664 260.064 
L 273.62014 283.824 
L 281.944615 283.824 
L 290.269091 275.904 
L 298.593566 291.744 
L 306.918042 283.824 
L 315.242517 291.744 
L 323.566993 291.744 
L 331.891469 275.904 
L 340.215944 283.824 
L 348.54042 283.824 
L 356.864895 291.744 
L 365.189371 291.744 
L 373.513846 291.744 
L 381.838322 291.744 
L 390.162797 291.744 
L 398.487273 299.664 
L 398.487273 299.664 
L 398.487273 299.664 
L 390.162797 291.744 
L 381.838322 291.744 
L 373.513846 291.744 
L 365.189371 291.744 
L 356.864895 291.744 
L 348.54042 283.824 
L 340.215944 283.824 
L 331.891469 275.904 
L 323.566993 291.744 
L 315.242517 291.744 
L 306.918042 283.824 
L 298.593566 291.744 
L 290.269091 275.904 
L 281.944615 283.824 
L 273.62014 283.824 
L 265.295664 236.304 
L 256.971189 267.984 
L 248.646713 267.984 
L 240.322238 252.144 
L 231.997762 260.064 
L 223.673287 252.144 
L 215.348811 252.144 
L 207.024336 244.224 
L 198.69986 244.224 
L 190.375385 196.704 
L 182.050909 188.784 
L 173.726434 188.784 
L 165.401958 180.864 
L 157.077483 188.784 
L 148.753007 157.104 
L 140.428531 165.024 
L 132.104056 172.944 
L 123.77958 172.944 
L 115.455105 188.784 
L 107.130629 149.184 
L 98.806154 157.104 
L 90.481678 141.264 
L 82.157203 149.184 
L 73.832727 149.184 
z
" clip-path="url(#p4da5f923e3)" style="fill: #7f7f7f"/>
   </g>
   <g id="PolyCollection_9">
    <path d="M 73.832727 149.184 
L 73.832727 149.184 
L 82.157203 149.184 
L 90.481678 141.264 
L 98.806154 157.104 
L 107.130629 149.184 
L 115.455105 188.784 
L 123.77958 172.944 
L 132.104056 172.944 
L 140.428531 165.024 
L 148.753007 157.104 
L 157.077483 188.784 
L 165.401958 180.864 
L 173.726434 188.784 
L 182.050909 188.784 
L 190.375385 196.704 
L 198.69986 244.224 
L 207.024336 244.224 
L 215.348811 252.144 
L 223.673287 252.144 
L 231.997762 260.064 
L 240.322238 252.144 
L 248.646713 267.984 
L 256.971189 267.984 
L 265.295664 236.304 
L 273.62014 283.824 
L 281.944615 283.824 
L 290.269091 275.904 
L 298.593566 291.744 
L 306.918042 283.824 
L 315.242517 291.744 
L 323.566993 291.744 
L 331.891469 275.904 
L 340.215944 283.824 
L 348.54042 283.824 
L 356.864895 291.744 
L 365.189371 291.744 
L 373.513846 291.744 
L 381.838322 291.744 
L 390.162797 291.744 
L 398.487273 299.664 
L 398.487273 299.664 
L 398.487273 299.664 
L 390.162797 291.744 
L 381.838322 291.744 
L 373.513846 291.744 
L 365.189371 291.744 
L 356.864895 291.744 
L 348.54042 283.824 
L 340.215944 283.824 
L 331.891469 260.064 
L 323.566993 267.984 
L 315.242517 275.904 
L 306.918042 267.984 
L 298.593566 267.984 
L 290.269091 260.064 
L 281.944615 267.984 
L 273.62014 275.904 
L 265.295664 220.464 
L 256.971189 260.064 
L 248.646713 244.224 
L 240.322238 236.304 
L 231.997762 244.224 
L 223.673287 244.224 
L 215.348811 236.304 
L 207.024336 212.544 
L 198.69986 228.384 
L 190.375385 188.784 
L 182.050909 180.864 
L 173.726434 165.024 
L 165.401958 165.024 
L 157.077483 172.944 
L 148.753007 141.264 
L 140.428531 141.264 
L 132.104056 157.104 
L 123.77958 165.024 
L 115.455105 172.944 
L 107.130629 141.264 
L 98.806154 157.104 
L 90.481678 141.264 
L 82.157203 149.184 
L 73.832727 149.184 
z
" clip-path="url(#p4da5f923e3)" style="fill: #bcbd22"/>
   </g>
   <g id="PolyCollection_10">
    <path d="M 73.832727 149.184 
L 73.832727 149.184 
L 82.157203 149.184 
L 90.481678 141.264 
L 98.806154 157.104 
L 107.130629 141.264 
L 115.455105 172.944 
L 123.77958 165.024 
L 132.104056 157.104 
L 140.428531 141.264 
L 148.753007 141.264 
L 157.077483 172.944 
L 165.401958 165.024 
L 173.726434 165.024 
L 182.050909 180.864 
L 190.375385 188.784 
L 198.69986 228.384 
L 207.024336 212.544 
L 215.348811 236.304 
L 223.673287 244.224 
L 231.997762 244.224 
L 240.322238 236.304 
L 248.646713 244.224 
L 256.971189 260.064 
L 265.295664 220.464 
L 273.62014 275.904 
L 281.944615 267.984 
L 290.269091 260.064 
L 298.593566 267.984 
L 306.918042 267.984 
L 315.242517 275.904 
L 323.566993 267.984 
L 331.891469 260.064 
L 340.215944 283.824 
L 348.54042 283.824 
L 356.864895 291.744 
L 365.189371 291.744 
L 373.513846 291.744 
L 381.838322 291.744 
L 390.162797 291.744 
L 398.487273 299.664 
L 398.487273 291.744 
L 398.487273 291.744 
L 390.162797 275.904 
L 381.838322 275.904 
L 373.513846 283.824 
L 365.189371 267.984 
L 356.864895 275.904 
L 348.54042 260.064 
L 340.215944 267.984 
L 331.891469 252.144 
L 323.566993 252.144 
L 315.242517 260.064 
L 306.918042 244.224 
L 298.593566 252.144 
L 290.269091 236.304 
L 281.944615 252.144 
L 273.62014 267.984 
L 265.295664 204.624 
L 256.971189 244.224 
L 248.646713 228.384 
L 240.322238 228.384 
L 231.997762 228.384 
L 223.673287 220.464 
L 215.348811 220.464 
L 207.024336 196.704 
L 198.69986 220.464 
L 190.375385 172.944 
L 182.050909 172.944 
L 173.726434 141.264 
L 165.401958 157.104 
L 157.077483 157.104 
L 148.753007 125.424 
L 140.428531 133.344 
L 132.104056 149.184 
L 123.77958 149.184 
L 115.455105 157.104 
L 107.130629 141.264 
L 98.806154 157.104 
L 90.481678 141.264 
L 82.157203 149.184 
L 73.832727 149.184 
z
" clip-path="url(#p4da5f923e3)" style="fill: #17becf"/>
   </g>
   <g id="PolyCollection_11">
    <path d="M 73.832727 149.184 
L 73.832727 149.184 
L 82.157203 149.184 
L 90.481678 141.264 
L 98.806154 157.104 
L 107.130629 141.264 
L 115.455105 157.104 
L 123.77958 149.184 
L 132.104056 149.184 
L 140.428531 133.344 
L 148.753007 125.424 
L 157.077483 157.104 
L 165.401958 157.104 
L 173.726434 141.264 
L 182.050909 172.944 
L 190.375385 172.944 
L 198.69986 220.464 
L 207.024336 196.704 
L 215.348811 220.464 
L 223.673287 220.464 
L 231.997762 228.384 
L 240.322238 228.384 
L 248.646713 228.384 
L 256.971189 244.224 
L 265.295664 204.624 
L 273.62014 267.984 
L 281.944615 252.144 
L 290.269091 236.304 
L 298.593566 252.144 
L 306.918042 244.224 
L 315.242517 260.064 
L 323.566993 252.144 
L 331.891469 252.144 
L 340.215944 267.984 
L 348.54042 260.064 
L 356.864895 275.904 
L 365.189371 267.984 
L 373.513846 283.824 
L 381.838322 275.904 
L 390.162797 275.904 
L 398.487273 291.744 
L 398.487273 291.744 
L 398.487273 291.744 
L 390.162797 275.904 
L 381.838322 275.904 
L 373.513846 283.824 
L 365.189371 267.984 
L 356.864895 275.904 
L 348.54042 260.064 
L 340.215944 267.984 
L 331.891469 252.144 
L 323.566993 252.144 
L 315.242517 260.064 
L 306.918042 244.224 
L 298.593566 252.144 
L 290.269091 236.304 
L 281.944615 252.144 
L 273.62014 267.984 
L 265.295664 204.624 
L 256.971189 244.224 
L 248.646713 228.384 
L 240.322238 220.464 
L 231.997762 220.464 
L 223.673287 204.624 
L 215.348811 204.624 
L 207.024336 180.864 
L 198.69986 204.624 
L 190.375385 157.104 
L 182.050909 157.104 
L 173.726434 133.344 
L 165.401958 141.264 
L 157.077483 149.184 
L 148.753007 125.424 
L 140.428531 133.344 
L 132.104056 149.184 
L 123.77958 149.184 
L 115.455105 157.104 
L 107.130629 141.264 
L 98.806154 157.104 
L 90.481678 141.264 
L 82.157203 149.184 
L 73.832727 149.184 
z
" clip-path="url(#p4da5f923e3)" style="fill: #1f77b4"/>
   </g>
   <g id="PolyCollection_12">
    <path d="M 73.832727 149.184 
L 73.832727 149.184 
L 82.157203 149.184 
L 90.481678 141.264 
L 98.806154 157.104 
L 107.130629 141.264 
L 115.455105 157.104 
L 123.77958 149.184 
L 132.104056 149.184 
L 140.428531 133.344 
L 148.753007 125.424 
L 157.077483 149.184 
L 165.401958 141.264 
L 173.726434 133.344 
L 182.050909 157.104 
L 190.375385 157.104 
L 198.69986 204.624 
L 207.024336 180.864 
L 215.348811 204.624 
L 223.673287 204.624 
L 231.997762 220.464 
L 240.322238 220.464 
L 248.646713 228.384 
L 256.971189 244.224 
L 265.295664 204.624 
L 273.62014 267.984 
L 281.944615 252.144 
L 290.269091 236.304 
L 298.593566 252.144 
L 306.918042 244.224 
L 315.242517 260.064 
L 323.566993 252.144 
L 331.891469 252.144 
L 340.215944 267.984 
L 348.54042 260.064 
L 356.864895 275.904 
L 365.189371 267.984 
L 373.513846 283.824 
L 381.838322 275.904 
L 390.162797 275.904 
L 398.487273 291.744 
L 398.487273 291.744 
L 398.487273 291.744 
L 390.162797 275.904 
L 381.838322 275.904 
L 373.513846 283.824 
L 365.189371 267.984 
L 356.864895 260.064 
L 348.54042 244.224 
L 340.215944 252.144 
L 331.891469 236.304 
L 323.566993 236.304 
L 315.242517 252.144 
L 306.918042 236.304 
L 298.593566 228.384 
L 290.269091 220.464 
L 281.944615 236.304 
L 273.62014 236.304 
L 265.295664 188.784 
L 256.971189 236.304 
L 248.646713 220.464 
L 240.322238 212.544 
L 231.997762 204.624 
L 223.673287 180.864 
L 215.348811 196.704 
L 207.024336 165.024 
L 198.69986 188.784 
L 190.375385 149.184 
L 182.050909 141.264 
L 173.726434 125.424 
L 165.401958 133.344 
L 157.077483 149.184 
L 148.753007 125.424 
L 140.428531 133.344 
L 132.104056 149.184 
L 123.77958 149.184 
L 115.455105 157.104 
L 107.130629 141.264 
L 98.806154 157.104 
L 90.481678 141.264 
L 82.157203 149.184 
L 73.832727 149.184 
z
" clip-path="url(#p4da5f923e3)" style="fill: #ff7f0e"/>
   </g>
   <g id="PolyCollection_13">
    <path d="M 73.832727 149.184 
L 73.832727 149.184 
L 82.157203 149.184 
L 90.481678 141.264 
L 98.806154 157.104 
L 107.130629 141.264 
L 115.455105 157.104 
L 123.77958 149.184 
L 132.104056 149.184 
L 140.428531 133.344 
L 148.753007 125.424 
L 157.077483 149.184 
L 165.401958 133.344 
L 173.726434 125.424 
L 182.050909 141.264 
L 190.375385 149.184 
L 198.69986 188.784 
L 207.024336 165.024 
L 215.348811 196.704 
L 223.673287 180.864 
L 231.997762 204.624 
L 240.322238 212.544 
L 248.646713 220.464 
L 256.971189 236.304 
L 265.295664 188.784 
L 273.62014 236.304 
L 281.944615 236.304 
L 290.269091 220.464 
L 298.593566 228.384 
L 306.918042 236.304 
L 315.242517 252.144 
L 323.566993 236.304 
L 331.891469 236.304 
L 340.215944 252.144 
L 348.54042 244.224 
L 356.864895 260.064 
L 365.189371 267.984 
L 373.513846 283.824 
L 381.838322 275.904 
L 390.162797 275.904 
L 398.487273 291.744 
L 398.487273 291.744 
L 398.487273 291.744 
L 390.162797 275.904 
L 381.838322 275.904 
L 373.513846 283.824 
L 365.189371 267.984 
L 356.864895 260.064 
L 348.54042 244.224 
L 340.215944 252.144 
L 331.891469 236.304 
L 323.566993 228.384 
L 315.242517 244.224 
L 306.918042 228.384 
L 298.593566 220.464 
L 290.269091 212.544 
L 281.944615 220.464 
L 273.62014 220.464 
L 265.295664 172.944 
L 256.971189 220.464 
L 248.646713 204.624 
L 240.322238 196.704 
L 231.997762 196.704 
L 223.673287 172.944 
L 215.348811 180.864 
L 207.024336 157.104 
L 198.69986 172.944 
L 190.375385 133.344 
L 182.050909 133.344 
L 173.726434 117.504 
L 165.401958 133.344 
L 157.077483 149.184 
L 148.753007 125.424 
L 140.428531 133.344 
L 132.104056 149.184 
L 123.77958 149.184 
L 115.455105 157.104 
L 107.130629 141.264 
L 98.806154 157.104 
L 90.481678 141.264 
L 82.157203 149.184 
L 73.832727 149.184 
z
" clip-path="url(#p4da5f923e3)" style="fill: #2ca02c"/>
   </g>
   <g id="PolyCollection_14">
    <path d="M 73.832727 149.184 
L 73.832727 149.184 
L 82.157203 149.184 
L 90.481678 141.264 
L 98.806154 157.104 
L 107.130629 141.264 
L 115.455105 157.104 
L 123.77958 149.184 
L 132.104056 149.184 
L 140.428531 133.344 
L 148.753007 125.424 
L 157.077483 149.184 
L 165.401958 133.344 
L 173.726434 117.504 
L 182.050909 133.344 
L 190.375385 133.344 
L 198.69986 172.944 
L 207.024336 157.104 
L 215.348811 180.864 
L 223.673287 172.944 
L 231.997762 196.704 
L 240.322238 196.704 
L 248.646713 204.624 
L 256.971189 220.464 
L 265.295664 172.944 
L 273.62014 220.464 
L 281.944615 220.464 
L 290.269091 212.544 
L 298.593566 220.464 
L 306.918042 228.384 
L 315.242517 244.224 
L 323.566993 228.384 
L 331.891469 236.304 
L 340.215944 252.144 
L 348.54042 244.224 
L 356.864895 260.064 
L 365.189371 267.984 
L 373.513846 283.824 
L 381.838322 275.904 
L 390.162797 275.904 
L 398.487273 291.744 
L 398.487273 291.744 
L 398.487273 291.744 
L 390.162797 275.904 
L 381.838322 275.904 
L 373.513846 283.824 
L 365.189371 267.984 
L 356.864895 260.064 
L 348.54042 244.224 
L 340.215944 252.144 
L 331.891469 236.304 
L 323.566993 228.384 
L 315.242517 244.224 
L 306.918042 228.384 
L 298.593566 220.464 
L 290.269091 212.544 
L 281.944615 212.544 
L 273.62014 204.624 
L 265.295664 157.104 
L 256.971189 204.624 
L 248.646713 188.784 
L 240.322238 180.864 
L 231.997762 180.864 
L 223.673287 157.104 
L 215.348811 165.024 
L 207.024336 149.184 
L 198.69986 149.184 
L 190.375385 117.504 
L 182.050909 125.424 
L 173.726434 117.504 
L 165.401958 133.344 
L 157.077483 149.184 
L 148.753007 125.424 
L 140.428531 133.344 
L 132.104056 149.184 
L 123.77958 149.184 
L 115.455105 157.104 
L 107.130629 141.264 
L 98.806154 157.104 
L 90.481678 141.264 
L 82.157203 149.184 
L 73.832727 149.184 
z
" clip-path="url(#p4da5f923e3)" style="fill: #d62728"/>
   </g>
   <g id="PolyCollection_15">
    <path d="M 73.832727 149.184 
L 73.832727 149.184 
L 82.157203 149.184 
L 90.481678 141.264 
L 98.806154 157.104 
L 107.130629 141.264 
L 115.455105 157.104 
L 123.77958 149.184 
L 132.104056 149.184 
L 140.428531 133.344 
L 148.753007 125.424 
L 157.077483 149.184 
L 165.401958 133.344 
L 173.726434 117.504 
L 182.050909 125.424 
L 190.375385 117.504 
L 198.69986 149.184 
L 207.024336 149.184 
L 215.348811 165.024 
L 223.673287 157.104 
L 231.997762 180.864 
L 240.322238 180.864 
L 248.646713 188.784 
L 256.971189 204.624 
L 265.295664 157.104 
L 273.62014 204.624 
L 281.944615 212.544 
L 290.269091 212.544 
L 298.593566 220.464 
L 306.918042 228.384 
L 315.242517 244.224 
L 323.566993 228.384 
L 331.891469 236.304 
L 340.215944 252.144 
L 348.54042 244.224 
L 356.864895 260.064 
L 365.189371 267.984 
L 373.513846 283.824 
L 381.838322 275.904 
L 390.162797 275.904 
L 398.487273 291.744 
L 398.487273 291.744 
L 398.487273 291.744 
L 390.162797 275.904 
L 381.838322 275.904 
L 373.513846 283.824 
L 365.189371 267.984 
L 356.864895 260.064 
L 348.54042 244.224 
L 340.215944 244.224 
L 331.891469 228.384 
L 323.566993 220.464 
L 315.242517 228.384 
L 306.918042 212.544 
L 298.593566 204.624 
L 290.269091 196.704 
L 281.944615 204.624 
L 273.62014 188.784 
L 265.295664 141.264 
L 256.971189 180.864 
L 248.646713 180.864 
L 240.322238 157.104 
L 231.997762 165.024 
L 223.673287 141.264 
L 215.348811 149.184 
L 207.024336 133.344 
L 198.69986 141.264 
L 190.375385 101.664 
L 182.050909 117.504 
L 173.726434 117.504 
L 165.401958 133.344 
L 157.077483 149.184 
L 148.753007 125.424 
L 140.428531 133.344 
L 132.104056 149.184 
L 123.77958 149.184 
L 115.455105 157.104 
L 107.130629 141.264 
L 98.806154 157.104 
L 90.481678 141.264 
L 82.157203 149.184 
L 73.832727 149.184 
z
" clip-path="url(#p4da5f923e3)" style="fill: #9467bd"/>
   </g>
   <g id="PolyCollection_16">
    <path d="M 73.832727 149.184 
L 73.832727 149.184 
L 82.157203 149.184 
L 90.481678 141.264 
L 98.806154 157.104 
L 107.130629 141.264 
L 115.455105 157.104 
L 123.77958 149.184 
L 132.104056 149.184 
L 140.428531 133.344 
L 148.753007 125.424 
L 157.077483 149.184 
L 165.401958 133.344 
L 173.726434 117.504 
L 182.050909 117.504 
L 190.375385 101.664 
L 198.69986 141.264 
L 207.024336 133.344 
L 215.348811 149.184 
L 223.673287 141.264 
L 231.997762 165.024 
L 240.322238 157.104 
L 248.646713 180.864 
L 256.971189 180.864 
L 265.295664 141.264 
L 273.62014 188.784 
L 281.944615 204.624 
L 290.269091 196.704 
L 298.593566 204.624 
L 306.918042 212.544 
L 315.242517 228.384 
L 323.566993 220.464 
L 331.891469 228.384 
L 340.215944 244.224 
L 348.54042 244.224 
L 356.864895 260.064 
L 365.189371 267.984 
L 373.513846 283.824 
L 381.838322 275.904 
L 390.162797 275.904 
L 398.487273 291.744 
L 398.487273 291.744 
L 398.487273 291.744 
L 390.162797 267.984 
L 381.838322 267.984 
L 373.513846 252.144 
L 365.189371 252.144 
L 356.864895 252.144 
L 348.54042 228.384 
L 340.215944 236.304 
L 331.891469 220.464 
L 323.566993 196.704 
L 315.242517 212.544 
L 306.918042 196.704 
L 298.593566 196.704 
L 290.269091 188.784 
L 281.944615 196.704 
L 273.62014 172.944 
L 265.295664 133.344 
L 256.971189 165.024 
L 248.646713 165.024 
L 240.322238 149.184 
L 231.997762 149.184 
L 223.673287 125.424 
L 215.348811 133.344 
L 207.024336 117.504 
L 198.69986 133.344 
L 190.375385 101.664 
L 182.050909 117.504 
L 173.726434 117.504 
L 165.401958 133.344 
L 157.077483 149.184 
L 148.753007 125.424 
L 140.428531 133.344 
L 132.104056 149.184 
L 123.77958 149.184 
L 115.455105 157.104 
L 107.130629 141.264 
L 98.806154 157.104 
L 90.481678 141.264 
L 82.157203 149.184 
L 73.832727 149.184 
z
" clip-path="url(#p4da5f923e3)" style="fill: #8c564b"/>
   </g>
   <g id="PolyCollection_17">
    <path d="M 73.832727 149.184 
L 73.832727 149.184 
L 82.157203 149.184 
L 90.481678 141.264 
L 98.806154 157.104 
L 107.130629 141.264 
L 115.455105 157.104 
L 123.77958 149.184 
L 132.104056 149.184 
L 140.428531 133.344 
L 148.753007 125.424 
L 157.077483 149.184 
L 165.401958 133.344 
L 173.726434 117.504 
L 182.050909 117.504 
L 190.375385 101.664 
L 198.69986 133.344 
L 207.024336 117.504 
L 215.348811 133.344 
L 223.673287 125.424 
L 231.997762 149.184 
L 240.322238 149.184 
L 248.646713 165.024 
L 256.971189 165.024 
L 265.295664 133.344 
L 273.62014 172.944 
L 281.944615 196.704 
L 290.269091 188.784 
L 298.593566 196.704 
L 306.918042 196.704 
L 315.242517 212.544 
L 323.566993 196.704 
L 331.891469 220.464 
L 340.215944 236.304 
L 348.54042 228.384 
L 356.864895 252.144 
L 365.189371 252.144 
L 373.513846 252.144 
L 381.838322 267.984 
L 390.162797 267.984 
L 398.487273 291.744 
L 398.487273 291.744 
L 398.487273 291.744 
L 390.162797 267.984 
L 381.838322 267.984 
L 373.513846 252.144 
L 365.189371 252.144 
L 356.864895 252.144 
L 348.54042 228.384 
L 340.215944 236.304 
L 331.891469 220.464 
L 323.566993 196.704 
L 315.242517 212.544 
L 306.918042 196.704 
L 298.593566 180.864 
L 290.269091 180.864 
L 281.944615 180.864 
L 273.62014 157.104 
L 265.295664 125.424 
L 256.971189 133.344 
L 248.646713 149.184 
L 240.322238 133.344 
L 231.997762 133.344 
L 223.673287 101.664 
L 215.348811 117.504 
L 207.024336 109.584 
L 198.69986 125.424 
L 190.375385 101.664 
L 182.050909 117.504 
L 173.726434 117.504 
L 165.401958 133.344 
L 157.077483 149.184 
L 148.753007 125.424 
L 140.428531 133.344 
L 132.104056 149.184 
L 123.77958 149.184 
L 115.455105 157.104 
L 107.130629 141.264 
L 98.806154 157.104 
L 90.481678 141.264 
L 82.157203 149.184 
L 73.832727 149.184 
z
" clip-path="url(#p4da5f923e3)" style="fill: #e377c2"/>
   </g>
   <g id="PolyCollection_18">
    <path d="M 73.832727 149.184 
L 73.832727 149.184 
L 82.157203 149.184 
L 90.481678 141.264 
L 98.806154 157.104 
L 107.130629 141.264 
L 115.455105 157.104 
L 123.77958 149.184 
L 132.104056 149.184 
L 140.428531 133.344 
L 148.753007 125.424 
L 157.077483 149.184 
L 165.401958 133.344 
L 173.726434 117.504 
L 182.050909 117.504 
L 190.375385 101.664 
L 198.69986 125.424 
L 207.024336 109.584 
L 215.348811 117.504 
L 223.673287 101.664 
L 231.997762 133.344 
L 240.322238 133.344 
L 248.646713 149.184 
L 256.971189 133.344 
L 265.295664 125.424 
L 273.62014 157.104 
L 281.944615 180.864 
L 290.269091 180.864 
L 298.593566 180.864 
L 306.918042 196.704 
L 315.242517 212.544 
L 323.566993 196.704 
L 331.891469 220.464 
L 340.215944 236.304 
L 348.54042 228.384 
L 356.864895 252.144 
L 365.189371 252.144 
L 373.513846 252.144 
L 381.838322 267.984 
L 390.162797 267.984 
L 398.487273 291.744 
L 398.487273 260.064 
L 398.487273 260.064 
L 390.162797 244.224 
L 381.838322 244.224 
L 373.513846 228.384 
L 365.189371 220.464 
L 356.864895 236.304 
L 348.54042 204.624 
L 340.215944 204.624 
L 331.891469 204.624 
L 323.566993 180.864 
L 315.242517 188.784 
L 306.918042 172.944 
L 298.593566 157.104 
L 290.269091 165.024 
L 281.944615 172.944 
L 273.62014 141.264 
L 265.295664 109.584 
L 256.971189 117.504 
L 248.646713 125.424 
L 240.322238 109.584 
L 231.997762 109.584 
L 223.673287 85.824 
L 215.348811 101.664 
L 207.024336 93.744 
L 198.69986 117.504 
L 190.375385 101.664 
L 182.050909 117.504 
L 173.726434 117.504 
L 165.401958 133.344 
L 157.077483 149.184 
L 148.753007 125.424 
L 140.428531 133.344 
L 132.104056 149.184 
L 123.77958 149.184 
L 115.455105 157.104 
L 107.130629 141.264 
L 98.806154 157.104 
L 90.481678 141.264 
L 82.157203 149.184 
L 73.832727 149.184 
z
" clip-path="url(#p4da5f923e3)" style="fill: #7f7f7f"/>
   </g>
   <g id="PolyCollection_19">
    <path d="M 73.832727 149.184 
L 73.832727 149.184 
L 82.157203 149.184 
L 90.481678 141.264 
L 98.806154 157.104 
L 107.130629 141.264 
L 115.455105 157.104 
L 123.77958 149.184 
L 132.104056 149.184 
L 140.428531 133.344 
L 148.753007 125.424 
L 157.077483 149.184 
L 165.401958 133.344 
L 173.726434 117.504 
L 182.050909 117.504 
L 190.375385 101.664 
L 198.69986 117.504 
L 207.024336 93.744 
L 215.348811 101.664 
L 223.673287 85.824 
L 231.997762 109.584 
L 240.322238 109.584 
L 248.646713 125.424 
L 256.971189 117.504 
L 265.295664 109.584 
L 273.62014 141.264 
L 281.944615 172.944 
L 290.269091 165.024 
L 298.593566 157.104 
L 306.918042 172.944 
L 315.242517 188.784 
L 323.566993 180.864 
L 331.891469 204.624 
L 340.215944 204.624 
L 348.54042 204.624 
L 356.864895 236.304 
L 365.189371 220.464 
L 373.513846 228.384 
L 381.838322 244.224 
L 390.162797 244.224 
L 398.487273 260.064 
L 398.487273 260.064 
L 398.487273 260.064 
L 390.162797 244.224 
L 381.838322 244.224 
L 373.513846 228.384 
L 365.189371 220.464 
L 356.864895 236.304 
L 348.54042 204.624 
L 340.215944 204.624 
L 331.891469 204.624 
L 323.566993 180.864 
L 315.242517 172.944 
L 306.918042 165.024 
L 298.593566 141.264 
L 290.269091 141.264 
L 281.944615 157.104 
L 273.62014 125.424 
L 265.295664 101.664 
L 256.971189 101.664 
L 248.646713 109.584 
L 240.322238 93.744 
L 231.997762 85.824 
L 223.673287 69.984 
L 215.348811 85.824 
L 207.024336 85.824 
L 198.69986 117.504 
L 190.375385 101.664 
L 182.050909 117.504 
L 173.726434 117.504 
L 165.401958 133.344 
L 157.077483 149.184 
L 148.753007 125.424 
L 140.428531 133.344 
L 132.104056 149.184 
L 123.77958 149.184 
L 115.455105 157.104 
L 107.130629 141.264 
L 98.806154 157.104 
L 90.481678 141.264 
L 82.157203 149.184 
L 73.832727 149.184 
z
" clip-path="url(#p4da5f923e3)" style="fill: #bcbd22"/>
   </g>
   <g id="PolyCollection_20">
    <path d="M 73.832727 149.184 
L 73.832727 149.184 
L 82.157203 149.184 
L 90.481678 141.264 
L 98.806154 157.104 
L 107.130629 141.264 
L 115.455105 157.104 
L 123.77958 149.184 
L 132.104056 149.184 
L 140.428531 133.344 
L 148.753007 125.424 
L 157.077483 149.184 
L 165.401958 133.344 
L 173.726434 117.504 
L 182.050909 117.504 
L 190.375385 101.664 
L 198.69986 117.504 
L 207.024336 85.824 
L 215.348811 85.824 
L 223.673287 69.984 
L 231.997762 85.824 
L 240.322238 93.744 
L 248.646713 109.584 
L 256.971189 101.664 
L 265.295664 101.664 
L 273.62014 125.424 
L 281.944615 157.104 
L 290.269091 141.264 
L 298.593566 141.264 
L 306.918042 165.024 
L 315.242517 172.944 
L 323.566993 180.864 
L 331.891469 204.624 
L 340.215944 204.624 
L 348.54042 204.624 
L 356.864895 236.304 
L 365.189371 220.464 
L 373.513846 228.384 
L 381.838322 244.224 
L 390.162797 244.224 
L 398.487273 260.064 
L 398.487273 260.064 
L 398.487273 260.064 
L 390.162797 244.224 
L 381.838322 244.224 
L 373.513846 228.384 
L 365.189371 220.464 
L 356.864895 236.304 
L 348.54042 204.624 
L 340.215944 204.624 
L 331.891469 204.624 
L 323.566993 180.864 
L 315.242517 172.944 
L 306.918042 165.024 
L 298.593566 117.504 
L 290.269091 133.344 
L 281.944615 141.264 
L 273.62014 93.744 
L 265.295664 85.824 
L 256.971189 85.824 
L 248.646713 93.744 
L 240.322238 69.984 
L 231.997762 54.144 
L 223.673287 54.144 
L 215.348811 54.144 
L 207.024336 69.984 
L 198.69986 117.504 
L 190.375385 101.664 
L 182.050909 117.504 
L 173.726434 117.504 
L 165.401958 133.344 
L 157.077483 149.184 
L 148.753007 125.424 
L 140.428531 133.344 
L 132.104056 149.184 
L 123.77958 149.184 
L 115.455105 157.104 
L 107.130629 141.264 
L 98.806154 157.104 
L 90.481678 141.264 
L 82.157203 149.184 
L 73.832727 149.184 
z
" clip-path="url(#p4da5f923e3)" style="fill: #17becf"/>
   </g>
   <g id="PolyCollection_21">
    <path d="M 73.832727 149.184 
L 73.832727 149.184 
L 82.157203 149.184 
L 90.481678 141.264 
L 98.806154 157.104 
L 107.130629 141.264 
L 115.455105 157.104 
L 123.77958 149.184 
L 132.104056 149.184 
L 140.428531 133.344 
L 148.753007 125.424 
L 157.077483 149.184 
L 165.401958 133.344 
L 173.726434 117.504 
L 182.050909 117.504 
L 190.375385 101.664 
L 198.69986 117.504 
L 207.024336 69.984 
L 215.348811 54.144 
L 223.673287 54.144 
L 231.997762 54.144 
L 240.322238 69.984 
L 248.646713 93.744 
L 256.971189 85.824 
L 265.295664 85.824 
L 273.62014 93.744 
L 281.944615 141.264 
L 290.269091 133.344 
L 298.593566 117.504 
L 306.918042 165.024 
L 315.242517 172.944 
L 323.566993 180.864 
L 331.891469 204.624 
L 340.215944 204.624 
L 348.54042 204.624 
L 356.864895 236.304 
L 365.189371 220.464 
L 373.513846 228.384 
L 381.838322 244.224 
L 390.162797 244.224 
L 398.487273 260.064 
L 398.487273 252.144 
L 398.487273 252.144 
L 390.162797 236.304 
L 381.838322 228.384 
L 373.513846 204.624 
L 365.189371 212.544 
L 356.864895 228.384 
L 348.54042 188.784 
L 340.215944 196.704 
L 331.891469 172.944 
L 323.566993 157.104 
L 315.242517 157.104 
L 306.918042 141.264 
L 298.593566 101.664 
L 290.269091 117.504 
L 281.944615 125.424 
L 273.62014 77.904 
L 265.295664 77.904 
L 256.971189 69.984 
L 248.646713 85.824 
L 240.322238 69.984 
L 231.997762 54.144 
L 223.673287 54.144 
L 215.348811 54.144 
L 207.024336 69.984 
L 198.69986 117.504 
L 190.375385 101.664 
L 182.050909 117.504 
L 173.726434 117.504 
L 165.401958 133.344 
L 157.077483 149.184 
L 148.753007 125.424 
L 140.428531 133.344 
L 132.104056 149.184 
L 123.77958 149.184 
L 115.455105 157.104 
L 107.130629 141.264 
L 98.806154 157.104 
L 90.481678 141.264 
L 82.157203 149.184 
L 73.832727 149.184 
z
" clip-path="url(#p4da5f923e3)" style="fill: #1f77b4"/>
   </g>
   <g id="PolyCollection_22">
    <path d="M 73.832727 149.184 
L 73.832727 149.184 
L 82.157203 149.184 
L 90.481678 141.264 
L 98.806154 157.104 
L 107.130629 141.264 
L 115.455105 157.104 
L 123.77958 149.184 
L 132.104056 149.184 
L 140.428531 133.344 
L 148.753007 125.424 
L 157.077483 149.184 
L 165.401958 133.344 
L 173.726434 117.504 
L 182.050909 117.504 
L 190.375385 101.664 
L 198.69986 117.504 
L 207.024336 69.984 
L 215.348811 54.144 
L 223.673287 54.144 
L 231.997762 54.144 
L 240.322238 69.984 
L 248.646713 85.824 
L 256.971189 69.984 
L 265.295664 77.904 
L 273.62014 77.904 
L 281.944615 125.424 
L 290.269091 117.504 
L 298.593566 101.664 
L 306.918042 141.264 
L 315.242517 157.104 
L 323.566993 157.104 
L 331.891469 172.944 
L 340.215944 196.704 
L 348.54042 188.784 
L 356.864895 228.384 
L 365.189371 212.544 
L 373.513846 204.624 
L 381.838322 228.384 
L 390.162797 236.304 
L 398.487273 252.144 
L 398.487273 228.384 
L 398.487273 228.384 
L 390.162797 220.464 
L 381.838322 212.544 
L 373.513846 196.704 
L 365.189371 188.784 
L 356.864895 196.704 
L 348.54042 180.864 
L 340.215944 172.944 
L 331.891469 165.024 
L 323.566993 149.184 
L 315.242517 133.344 
L 306.918042 133.344 
L 298.593566 93.744 
L 290.269091 101.664 
L 281.944615 101.664 
L 273.62014 69.984 
L 265.295664 69.984 
L 256.971189 69.984 
L 248.646713 85.824 
L 240.322238 69.984 
L 231.997762 54.144 
L 223.673287 54.144 
L 215.348811 54.144 
L 207.024336 69.984 
L 198.69986 117.504 
L 190.375385 101.664 
L 182.050909 117.504 
L 173.726434 117.504 
L 165.401958 133.344 
L 157.077483 149.184 
L 148.753007 125.424 
L 140.428531 133.344 
L 132.104056 149.184 
L 123.77958 149.184 
L 115.455105 157.104 
L 107.130629 141.264 
L 98.806154 157.104 
L 90.481678 141.264 
L 82.157203 149.184 
L 73.832727 149.184 
z
" clip-path="url(#p4da5f923e3)" style="fill: #ff7f0e"/>
   </g>
   <g id="PolyCollection_23">
    <path d="M 73.832727 149.184 
L 73.832727 149.184 
L 82.157203 149.184 
L 90.481678 141.264 
L 98.806154 157.104 
L 107.130629 141.264 
L 115.455105 157.104 
L 123.77958 149.184 
L 132.104056 149.184 
L 140.428531 133.344 
L 148.753007 125.424 
L 157.077483 149.184 
L 165.401958 133.344 
L 173.726434 117.504 
L 182.050909 117.504 
L 190.375385 101.664 
L 198.69986 117.504 
L 207.024336 69.984 
L 215.348811 54.144 
L 223.673287 54.144 
L 231.997762 54.144 
L 240.322238 69.984 
L 248.646713 85.824 
L 256.971189 69.984 
L 265.295664 69.984 
L 273.62014 69.984 
L 281.944615 101.664 
L 290.269091 101.664 
L 298.593566 93.744 
L 306.918042 133.344 
L 315.242517 133.344 
L 323.566993 149.184 
L 331.891469 165.024 
L 340.215944 172.944 
L 348.54042 180.864 
L 356.864895 196.704 
L 365.189371 188.784 
L 373.513846 196.704 
L 381.838322 212.544 
L 390.162797 220.464 
L 398.487273 228.384 
L 398.487273 220.464 
L 398.487273 220.464 
L 390.162797 204.624 
L 381.838322 188.784 
L 373.513846 188.784 
L 365.189371 180.864 
L 356.864895 180.864 
L 348.54042 165.024 
L 340.215944 141.264 
L 331.891469 149.184 
L 323.566993 133.344 
L 315.242517 117.504 
L 306.918042 117.504 
L 298.593566 85.824 
L 290.269091 85.824 
L 281.944615 85.824 
L 273.62014 69.984 
L 265.295664 69.984 
L 256.971189 69.984 
L 248.646713 85.824 
L 240.322238 69.984 
L 231.997762 54.144 
L 223.673287 54.144 
L 215.348811 54.144 
L 207.024336 69.984 
L 198.69986 117.504 
L 190.375385 101.664 
L 182.050909 117.504 
L 173.726434 117.504 
L 165.401958 133.344 
L 157.077483 149.184 
L 148.753007 125.424 
L 140.428531 133.344 
L 132.104056 149.184 
L 123.77958 149.184 
L 115.455105 157.104 
L 107.130629 141.264 
L 98.806154 157.104 
L 90.481678 141.264 
L 82.157203 149.184 
L 73.832727 149.184 
z
" clip-path="url(#p4da5f923e3)" style="fill: #2ca02c"/>
   </g>
   <g id="PolyCollection_24">
    <path d="M 73.832727 149.184 
L 73.832727 149.184 
L 82.157203 149.184 
L 90.481678 141.264 
L 98.806154 157.104 
L 107.130629 141.264 
L 115.455105 157.104 
L 123.77958 149.184 
L 132.104056 149.184 
L 140.428531 133.344 
L 148.753007 125.424 
L 157.077483 149.184 
L 165.401958 133.344 
L 173.726434 117.504 
L 182.050909 117.504 
L 190.375385 101.664 
L 198.69986 117.504 
L 207.024336 69.984 
L 215.348811 54.144 
L 223.673287 54.144 
L 231.997762 54.144 
L 240.322238 69.984 
L 248.646713 85.824 
L 256.971189 69.984 
L 265.295664 69.984 
L 273.62014 69.984 
L 281.944615 85.824 
L 290.269091 85.824 
L 298.593566 85.824 
L 306.918042 117.504 
L 315.242517 117.504 
L 323.566993 133.344 
L 331.891469 149.184 
L 340.215944 141.264 
L 348.54042 165.024 
L 356.864895 180.864 
L 365.189371 180.864 
L 373.513846 188.784 
L 381.838322 188.784 
L 390.162797 204.624 
L 398.487273 220.464 
L 398.487273 212.544 
L 398.487273 212.544 
L 390.162797 188.784 
L 381.838322 172.944 
L 373.513846 172.944 
L 365.189371 172.944 
L 356.864895 165.024 
L 348.54042 149.184 
L 340.215944 125.424 
L 331.891469 133.344 
L 323.566993 125.424 
L 315.242517 117.504 
L 306.918042 117.504 
L 298.593566 85.824 
L 290.269091 85.824 
L 281.944615 85.824 
L 273.62014 69.984 
L 265.295664 69.984 
L 256.971189 69.984 
L 248.646713 85.824 
L 240.322238 69.984 
L 231.997762 54.144 
L 223.673287 54.144 
L 215.348811 54.144 
L 207.024336 69.984 
L 198.69986 117.504 
L 190.375385 101.664 
L 182.050909 117.504 
L 173.726434 117.504 
L 165.401958 133.344 
L 157.077483 149.184 
L 148.753007 125.424 
L 140.428531 133.344 
L 132.104056 149.184 
L 123.77958 149.184 
L 115.455105 157.104 
L 107.130629 141.264 
L 98.806154 157.104 
L 90.481678 141.264 
L 82.157203 149.184 
L 73.832727 149.184 
z
" clip-path="url(#p4da5f923e3)" style="fill: #d62728"/>
   </g>
   <g id="PolyCollection_25">
    <path d="M 73.832727 149.184 
L 73.832727 149.184 
L 82.157203 149.184 
L 90.481678 141.264 
L 98.806154 157.104 
L 107.130629 141.264 
L 115.455105 157.104 
L 123.77958 149.184 
L 132.104056 149.184 
L 140.428531 133.344 
L 148.753007 125.424 
L 157.077483 149.184 
L 165.401958 133.344 
L 173.726434 117.504 
L 182.050909 117.504 
L 190.375385 101.664 
L 198.69986 117.504 
L 207.024336 69.984 
L 215.348811 54.144 
L 223.673287 54.144 
L 231.997762 54.144 
L 240.322238 69.984 
L 248.646713 85.824 
L 256.971189 69.984 
L 265.295664 69.984 
L 273.62014 69.984 
L 281.944615 85.824 
L 290.269091 85.824 
L 298.593566 85.824 
L 306.918042 117.504 
L 315.242517 117.504 
L 323.566993 125.424 
L 331.891469 133.344 
L 340.215944 125.424 
L 348.54042 149.184 
L 356.864895 165.024 
L 365.189371 172.944 
L 373.513846 172.944 
L 381.838322 172.944 
L 390.162797 188.784 
L 398.487273 212.544 
L 398.487273 204.624 
L 398.487273 204.624 
L 390.162797 172.944 
L 381.838322 157.104 
L 373.513846 165.024 
L 365.189371 141.264 
L 356.864895 149.184 
L 348.54042 141.264 
L 340.215944 125.424 
L 331.891469 133.344 
L 323.566993 125.424 
L 315.242517 117.504 
L 306.918042 117.504 
L 298.593566 85.824 
L 290.269091 85.824 
L 281.944615 85.824 
L 273.62014 69.984 
L 265.295664 69.984 
L 256.971189 69.984 
L 248.646713 85.824 
L 240.322238 69.984 
L 231.997762 54.144 
L 223.673287 54.144 
L 215.348811 54.144 
L 207.024336 69.984 
L 198.69986 117.504 
L 190.375385 101.664 
L 182.050909 117.504 
L 173.726434 117.504 
L 165.401958 133.344 
L 157.077483 149.184 
L 148.753007 125.424 
L 140.428531 133.344 
L 132.104056 149.184 
L 123.77958 149.184 
L 115.455105 157.104 
L 107.130629 141.264 
L 98.806154 157.104 
L 90.481678 141.264 
L 82.157203 149.184 
L 73.832727 149.184 
z
" clip-path="url(#p4da5f923e3)" style="fill: #9467bd"/>
   </g>
   <g id="PolyCollection_26">
    <path d="M 73.832727 149.184 
L 73.832727 149.184 
L 82.157203 149.184 
L 90.481678 141.264 
L 98.806154 157.104 
L 107.130629 141.264 
L 115.455105 157.104 
L 123.77958 149.184 
L 132.104056 149.184 
L 140.428531 133.344 
L 148.753007 125.424 
L 157.077483 149.184 
L 165.401958 133.344 
L 173.726434 117.504 
L 182.050909 117.504 
L 190.375385 101.664 
L 198.69986 117.504 
L 207.024336 69.984 
L 215.348811 54.144 
L 223.673287 54.144 
L 231.997762 54.144 
L 240.322238 69.984 
L 248.646713 85.824 
L 256.971189 69.984 
L 265.295664 69.984 
L 273.62014 69.984 
L 281.944615 85.824 
L 290.269091 85.824 
L 298.593566 85.824 
L 306.918042 117.504 
L 315.242517 117.504 
L 323.566993 125.424 
L 331.891469 133.344 
L 340.215944 125.424 
L 348.54042 141.264 
L 356.864895 149.184 
L 365.189371 141.264 
L 373.513846 165.024 
L 381.838322 157.104 
L 390.162797 172.944 
L 398.487273 204.624 
L 398.487273 172.944 
L 398.487273 172.944 
L 390.162797 165.024 
L 381.838322 141.264 
L 373.513846 157.104 
L 365.189371 125.424 
L 356.864895 141.264 
L 348.54042 141.264 
L 340.215944 125.424 
L 331.891469 133.344 
L 323.566993 125.424 
L 315.242517 117.504 
L 306.918042 117.504 
L 298.593566 85.824 
L 290.269091 85.824 
L 281.944615 85.824 
L 273.62014 69.984 
L 265.295664 69.984 
L 256.971189 69.984 
L 248.646713 85.824 
L 240.322238 69.984 
L 231.997762 54.144 
L 223.673287 54.144 
L 215.348811 54.144 
L 207.024336 69.984 
L 198.69986 117.504 
L 190.375385 101.664 
L 182.050909 117.504 
L 173.726434 117.504 
L 165.401958 133.344 
L 157.077483 149.184 
L 148.753007 125.424 
L 140.428531 133.344 
L 132.104056 149.184 
L 123.77958 149.184 
L 115.455105 157.104 
L 107.130629 141.264 
L 98.806154 157.104 
L 90.481678 141.264 
L 82.157203 149.184 
L 73.832727 149.184 
z
" clip-path="url(#p4da5f923e3)" style="fill: #8c564b"/>
   </g>
   <g id="PolyCollection_27">
    <path d="M 73.832727 149.184 
L 73.832727 149.184 
L 82.157203 149.184 
L 90.481678 141.264 
L 98.806154 157.104 
L 107.130629 141.264 
L 115.455105 157.104 
L 123.77958 149.184 
L 132.104056 149.184 
L 140.428531 133.344 
L 148.753007 125.424 
L 157.077483 149.184 
L 165.401958 133.344 
L 173.726434 117.504 
L 182.050909 117.504 
L 190.375385 101.664 
L 198.69986 117.504 
L 207.024336 69.984 
L 215.348811 54.144 
L 223.673287 54.144 
L 231.997762 54.144 
L 240.322238 69.984 
L 248.646713 85.824 
L 256.971189 69.984 
L 265.295664 69.984 
L 273.62014 69.984 
L 281.944615 85.824 
L 290.269091 85.824 
L 298.593566 85.824 
L 306.918042 117.504 
L 315.242517 117.504 
L 323.566993 125.424 
L 331.891469 133.344 
L 340.215944 125.424 
L 348.54042 141.264 
L 356.864895 141.264 
L 365.189371 125.424 
L 373.513846 157.104 
L 381.838322 141.264 
L 390.162797 165.024 
L 398.487273 172.944 
L 398.487273 157.104 
L 398.487273 157.104 
L 390.162797 149.184 
L 381.838322 125.424 
L 373.513846 149.184 
L 365.189371 125.424 
L 356.864895 141.264 
L 348.54042 141.264 
L 340.215944 125.424 
L 331.891469 133.344 
L 323.566993 125.424 
L 315.242517 117.504 
L 306.918042 117.504 
L 298.593566 85.824 
L 290.269091 85.824 
L 281.944615 85.824 
L 273.62014 69.984 
L 265.295664 69.984 
L 256.971189 69.984 
L 248.646713 85.824 
L 240.322238 69.984 
L 231.997762 54.144 
L 223.673287 54.144 
L 215.348811 54.144 
L 207.024336 69.984 
L 198.69986 117.504 
L 190.375385 101.664 
L 182.050909 117.504 
L 173.726434 117.504 
L 165.401958 133.344 
L 157.077483 149.184 
L 148.753007 125.424 
L 140.428531 133.344 
L 132.104056 149.184 
L 123.77958 149.184 
L 115.455105 157.104 
L 107.130629 141.264 
L 98.806154 157.104 
L 90.481678 141.264 
L 82.157203 149.184 
L 73.832727 149.184 
z
" clip-path="url(#p4da5f923e3)" style="fill: #e377c2"/>
   </g>
   <g id="PolyCollection_28">
    <path d="M 73.832727 149.184 
L 73.832727 149.184 
L 82.157203 149.184 
L 90.481678 141.264 
L 98.806154 157.104 
L 107.130629 141.264 
L 115.455105 157.104 
L 123.77958 149.184 
L 132.104056 149.184 
L 140.428531 133.344 
L 148.753007 125.424 
L 157.077483 149.184 
L 165.401958 133.344 
L 173.726434 117.504 
L 182.050909 117.504 
L 190.375385 101.664 
L 198.69986 117.504 
L 207.024336 69.984 
L 215.348811 54.144 
L 223.673287 54.144 
L 231.997762 54.144 
L 240.322238 69.984 
L 248.646713 85.824 
L 256.971189 69.984 
L 265.295664 69.984 
L 273.62014 69.984 
L 281.944615 85.824 
L 290.269091 85.824 
L 298.593566 85.824 
L 306.918042 117.504 
L 315.242517 117.504 
L 323.566993 125.424 
L 331.891469 133.344 
L 340.215944 125.424 
L 348.54042 141.264 
L 356.864895 141.264 
L 365.189371 125.424 
L 373.513846 149.184 
L 381.838322 125.424 
L 390.162797 149.184 
L 398.487273 157.104 
L 398.487273 141.264 
L 398.487273 141.264 
L 390.162797 133.344 
L 381.838322 109.584 
L 373.513846 141.264 
L 365.189371 125.424 
L 356.864895 141.264 
L 348.54042 141.264 
L 340.215944 125.424 
L 331.891469 133.344 
L 323.566993 125.424 
L 315.242517 117.504 
L 306.918042 117.504 
L 298.593566 85.824 
L 290.269091 85.824 
L 281.944615 85.824 
L 273.62014 69.984 
L 265.295664 69.984 
L 256.971189 69.984 
L 248.646713 85.824 
L 240.322238 69.984 
L 231.997762 54.144 
L 223.673287 54.144 
L 215.348811 54.144 
L 207.024336 69.984 
L 198.69986 117.504 
L 190.375385 101.664 
L 182.050909 117.504 
L 173.726434 117.504 
L 165.401958 133.344 
L 157.077483 149.184 
L 148.753007 125.424 
L 140.428531 133.344 
L 132.104056 149.184 
L 123.77958 149.184 
L 115.455105 157.104 
L 107.130629 141.264 
L 98.806154 157.104 
L 90.481678 141.264 
L 82.157203 149.184 
L 73.832727 149.184 
z
" clip-path="url(#p4da5f923e3)" style="fill: #7f7f7f"/>
   </g>
   <g id="PolyCollection_29">
    <path d="M 73.832727 149.184 
L 73.832727 149.184 
L 82.157203 149.184 
L 90.481678 141.264 
L 98.806154 157.104 
L 107.130629 141.264 
L 115.455105 157.104 
L 123.77958 149.184 
L 132.104056 149.184 
L 140.428531 133.344 
L 148.753007 125.424 
L 157.077483 149.184 
L 165.401958 133.344 
L 173.726434 117.504 
L 182.050909 117.504 
L 190.375385 101.664 
L 198.69986 117.504 
L 207.024336 69.984 
L 215.348811 54.144 
L 223.673287 54.144 
L 231.997762 54.144 
L 240.322238 69.984 
L 248.646713 85.824 
L 256.971189 69.984 
L 265.295664 69.984 
L 273.62014 69.984 
L 281.944615 85.824 
L 290.269091 85.824 
L 298.593566 85.824 
L 306.918042 117.504 
L 315.242517 117.504 
L 323.566993 125.424 
L 331.891469 133.344 
L 340.215944 125.424 
L 348.54042 141.264 
L 356.864895 141.264 
L 365.189371 125.424 
L 373.513846 141.264 
L 381.838322 109.584 
L 390.162797 133.344 
L 398.487273 141.264 
L 398.487273 109.584 
L 398.487273 109.584 
L 390.162797 117.504 
L 381.838322 101.664 
L 373.513846 133.344 
L 365.189371 125.424 
L 356.864895 141.264 
L 348.54042 141.264 
L 340.215944 125.424 
L 331.891469 133.344 
L 323.566993 125.424 
L 315.242517 117.504 
L 306.918042 117.504 
L 298.593566 85.824 
L 290.269091 85.824 
L 281.944615 85.824 
L 273.62014 69.984 
L 265.295664 69.984 
L 256.971189 69.984 
L 248.646713 85.824 
L 240.322238 69.984 
L 231.997762 54.144 
L 223.673287 54.144 
L 215.348811 54.144 
L 207.024336 69.984 
L 198.69986 117.504 
L 190.375385 101.664 
L 182.050909 117.504 
L 173.726434 117.504 
L 165.401958 133.344 
L 157.077483 149.184 
L 148.753007 125.424 
L 140.428531 133.344 
L 132.104056 149.184 
L 123.77958 149.184 
L 115.455105 157.104 
L 107.130629 141.264 
L 98.806154 157.104 
L 90.481678 141.264 
L 82.157203 149.184 
L 73.832727 149.184 
z
" clip-path="url(#p4da5f923e3)" style="fill: #bcbd22"/>
   </g>
   <g id="PolyCollection_30">
    <path d="M 73.832727 149.184 
L 73.832727 149.184 
L 82.157203 149.184 
L 90.481678 141.264 
L 98.806154 157.104 
L 107.130629 141.264 
L 115.455105 157.104 
L 123.77958 149.184 
L 132.104056 149.184 
L 140.428531 133.344 
L 148.753007 125.424 
L 157.077483 149.184 
L 165.401958 133.344 
L 173.726434 117.504 
L 182.050909 117.504 
L 190.375385 101.664 
L 198.69986 117.504 
L 207.024336 69.984 
L 215.348811 54.144 
L 223.673287 54.144 
L 231.997762 54.144 
L 240.322238 69.984 
L 248.646713 85.824 
L 256.971189 69.984 
L 265.295664 69.984 
L 273.62014 69.984 
L 281.944615 85.824 
L 290.269091 85.824 
L 298.593566 85.824 
L 306.918042 117.504 
L 315.242517 117.504 
L 323.566993 125.424 
L 331.891469 133.344 
L 340.215944 125.424 
L 348.54042 141.264 
L 356.864895 141.264 
L 365.189371 125.424 
L 373.513846 133.344 
L 381.838322 101.664 
L 390.162797 117.504 
L 398.487273 109.584 
L 398.487273 101.664 
L 398.487273 101.664 
L 390.162797 101.664 
L 381.838322 101.664 
L 373.513846 133.344 
L 365.189371 125.424 
L 356.864895 141.264 
L 348.54042 141.264 
L 340.215944 125.424 
L 331.891469 133.344 
L 323.566993 125.424 
L 315.242517 117.504 
L 306.918042 117.504 
L 298.593566 85.824 
L 290.269091 85.824 
L 281.944615 85.824 
L 273.62014 69.984 
L 265.295664 69.984 
L 256.971189 69.984 
L 248.646713 85.824 
L 240.322238 69.984 
L 231.997762 54.144 
L 223.673287 54.144 
L 215.348811 54.144 
L 207.024336 69.984 
L 198.69986 117.504 
L 190.375385 101.664 
L 182.050909 117.504 
L 173.726434 117.504 
L 165.401958 133.344 
L 157.077483 149.184 
L 148.753007 125.424 
L 140.428531 133.344 
L 132.104056 149.184 
L 123.77958 149.184 
L 115.455105 157.104 
L 107.130629 141.264 
L 98.806154 157.104 
L 90.481678 141.264 
L 82.157203 149.184 
L 73.832727 149.184 
z
" clip-path="url(#p4da5f923e3)" style="fill: #17becf"/>
   </g>
   <g id="matplotlib.axis_1">
    <g id="xtick_1">
     <g id="line2d_1">
      <defs>
       <path id="md0759ef3d7" d="M 0 0 
L 0 3.5 
" style="stroke: #000000; stroke-width: 0.8"/>
      </defs>
      <g>
       <use xlink:href="#md0759ef3d7" x="73.832727" y="307.584" style="stroke: #000000; stroke-width: 0.8"/>
      </g>
     </g>
     <g id="text_1">
      <!-- 0 -->
      <g transform="translate(70.651477 322.182437) scale(0.1 -0.1)">
       <defs>
        <path id="DejaVuSans-30" d="M 2034 4250 
Q 1547 4250 1301 3770 
Q 1056 3291 1056 2328 
Q 1056 1369 1301 889 
Q 1547 409 2034 409 
Q 2525 409 2770 889 
Q 3016 1369 3016 2328 
Q 3016 3291 2770 3770 
Q 2525 4250 2034 4250 
z
M 2034 4750 
Q 2819 4750 3233 4129 
Q 3647 3509 3647 2328 
Q 3647 1150 3233 529 
Q 2819 -91 2034 -91 
Q 1250 -91 836 529 
Q 422 1150 422 2328 
Q 422 3509 836 4129 
Q 1250 4750 2034 4750 
z
" transform="scale(0.015625)"/>
       </defs>
       <use xlink:href="#DejaVuSans-30"/>
      </g>
     </g>
    </g>
    <g id="xtick_2">
     <g id="line2d_2">
      <g>
       <use xlink:href="#md0759ef3d7" x="115.455105" y="307.584" style="stroke: #000000; stroke-width: 0.8"/>
      </g>
     </g>
     <g id="text_2">
      <!-- 5 -->
      <g transform="translate(112.273855 322.182437) scale(0.1 -0.1)">
       <defs>
        <path id="DejaVuSans-35" d="M 691 4666 
L 3169 4666 
L 3169 4134 
L 1269 4134 
L 1269 2991 
Q 1406 3038 1543 3061 
Q 1681 3084 1819 3084 
Q 2600 3084 3056 2656 
Q 3513 2228 3513 1497 
Q 3513 744 3044 326 
Q 2575 -91 1722 -91 
Q 1428 -91 1123 -41 
Q 819 9 494 109 
L 494 744 
Q 775 591 1075 516 
Q 1375 441 1709 441 
Q 2250 441 2565 725 
Q 2881 1009 2881 1497 
Q 2881 1984 2565 2268 
Q 2250 2553 1709 2553 
Q 1456 2553 1204 2497 
Q 953 2441 691 2322 
L 691 4666 
z
" transform="scale(0.015625)"/>
       </defs>
       <use xlink:href="#DejaVuSans-35"/>
      </g>
     </g>
    </g>
    <g id="xtick_3">
     <g id="line2d_3">
      <g>
       <use xlink:href="#md0759ef3d7" x="157.077483" y="307.584" style="stroke: #000000; stroke-width: 0.8"/>
      </g>
     </g>
     <g id="text_3">
      <!-- 10 -->
      <g transform="translate(150.714983 322.182437) scale(0.1 -0.1)">
       <defs>
        <path id="DejaVuSans-31" d="M 794 531 
L 1825 531 
L 1825 4091 
L 703 3866 
L 703 4441 
L 1819 4666 
L 2450 4666 
L 2450 531 
L 3481 531 
L 3481 0 
L 794 0 
L 794 531 
z
" transform="scale(0.015625)"/>
       </defs>
       <use xlink:href="#DejaVuSans-31"/>
       <use xlink:href="#DejaVuSans-30" x="63.623047"/>
      </g>
     </g>
    </g>
    <g id="xtick_4">
     <g id="line2d_4">
      <g>
       <use xlink:href="#md0759ef3d7" x="198.69986" y="307.584" style="stroke: #000000; stroke-width: 0.8"/>
      </g>
     </g>
     <g id="text_4">
      <!-- 15 -->
      <g transform="translate(192.33736 322.182437) scale(0.1 -0.1)">
       <use xlink:href="#DejaVuSans-31"/>
       <use xlink:href="#DejaVuSans-35" x="63.623047"/>
      </g>
     </g>
    </g>
    <g id="xtick_5">
     <g id="line2d_5">
      <g>
       <use xlink:href="#md0759ef3d7" x="240.322238" y="307.584" style="stroke: #000000; stroke-width: 0.8"/>
      </g>
     </g>
     <g id="text_5">
      <!-- 20 -->
      <g transform="translate(233.959738 322.182437) scale(0.1 -0.1)">
       <defs>
        <path id="DejaVuSans-32" d="M 1228 531 
L 3431 531 
L 3431 0 
L 469 0 
L 469 531 
Q 828 903 1448 1529 
Q 2069 2156 2228 2338 
Q 2531 2678 2651 2914 
Q 2772 3150 2772 3378 
Q 2772 3750 2511 3984 
Q 2250 4219 1831 4219 
Q 1534 4219 1204 4116 
Q 875 4013 500 3803 
L 500 4441 
Q 881 4594 1212 4672 
Q 1544 4750 1819 4750 
Q 2544 4750 2975 4387 
Q 3406 4025 3406 3419 
Q 3406 3131 3298 2873 
Q 3191 2616 2906 2266 
Q 2828 2175 2409 1742 
Q 1991 1309 1228 531 
z
" transform="scale(0.015625)"/>
       </defs>
       <use xlink:href="#DejaVuSans-32"/>
       <use xlink:href="#DejaVuSans-30" x="63.623047"/>
      </g>
     </g>
    </g>
    <g id="xtick_6">
     <g id="line2d_6">
      <g>
       <use xlink:href="#md0759ef3d7" x="281.944615" y="307.584" style="stroke: #000000; stroke-width: 0.8"/>
      </g>
     </g>
     <g id="text_6">
      <!-- 25 -->
      <g transform="translate(275.582115 322.182437) scale(0.1 -0.1)">
       <use xlink:href="#DejaVuSans-32"/>
       <use xlink:href="#DejaVuSans-35" x="63.623047"/>
      </g>
     </g>
    </g>
    <g id="xtick_7">
     <g id="line2d_7">
      <g>
       <use xlink:href="#md0759ef3d7" x="323.566993" y="307.584" style="stroke: #000000; stroke-width: 0.8"/>
      </g>
     </g>
     <g id="text_7">
      <!-- 30 -->
      <g transform="translate(317.204493 322.182437) scale(0.1 -0.1)">
       <defs>
        <path id="DejaVuSans-33" d="M 2597 2516 
Q 3050 2419 3304 2112 
Q 3559 1806 3559 1356 
Q 3559 666 3084 287 
Q 2609 -91 1734 -91 
Q 1441 -91 1130 -33 
Q 819 25 488 141 
L 488 750 
Q 750 597 1062 519 
Q 1375 441 1716 441 
Q 2309 441 2620 675 
Q 2931 909 2931 1356 
Q 2931 1769 2642 2001 
Q 2353 2234 1838 2234 
L 1294 2234 
L 1294 2753 
L 1863 2753 
Q 2328 2753 2575 2939 
Q 2822 3125 2822 3475 
Q 2822 3834 2567 4026 
Q 2313 4219 1838 4219 
Q 1578 4219 1281 4162 
Q 984 4106 628 3988 
L 628 4550 
Q 988 4650 1302 4700 
Q 1616 4750 1894 4750 
Q 2613 4750 3031 4423 
Q 3450 4097 3450 3541 
Q 3450 3153 3228 2886 
Q 3006 2619 2597 2516 
z
" transform="scale(0.015625)"/>
       </defs>
       <use xlink:href="#DejaVuSans-33"/>
       <use xlink:href="#DejaVuSans-30" x="63.623047"/>
      </g>
     </g>
    </g>
    <g id="xtick_8">
     <g id="line2d_8">
      <g>
       <use xlink:href="#md0759ef3d7" x="365.189371" y="307.584" style="stroke: #000000; stroke-width: 0.8"/>
      </g>
     </g>
     <g id="text_8">
      <!-- 35 -->
      <g transform="translate(358.826871 322.182437) scale(0.1 -0.1)">
       <use xlink:href="#DejaVuSans-33"/>
       <use xlink:href="#DejaVuSans-35" x="63.623047"/>
      </g>
     </g>
    </g>
    <g id="xtick_9">
     <g id="line2d_9">
      <g>
       <use xlink:href="#md0759ef3d7" x="406.811748" y="307.584" style="stroke: #000000; stroke-width: 0.8"/>
      </g>
     </g>
     <g id="text_9">
      <!-- 40 -->
      <g transform="translate(400.449248 322.182437) scale(0.1 -0.1)">
       <defs>
        <path id="DejaVuSans-34" d="M 2419 4116 
L 825 1625 
L 2419 1625 
L 2419 4116 
z
M 2253 4666 
L 3047 4666 
L 3047 1625 
L 3713 1625 
L 3713 1100 
L 3047 1100 
L 3047 0 
L 2419 0 
L 2419 1100 
L 313 1100 
L 313 1709 
L 2253 4666 
z
" transform="scale(0.015625)"/>
       </defs>
       <use xlink:href="#DejaVuSans-34"/>
       <use xlink:href="#DejaVuSans-30" x="63.623047"/>
      </g>
     </g>
    </g>
    <g id="text_10">
     <!-- Generations -->
     <g transform="translate(205.662344 335.860562) scale(0.1 -0.1)">
      <defs>
       <path id="DejaVuSans-47" d="M 3809 666 
L 3809 1919 
L 2778 1919 
L 2778 2438 
L 4434 2438 
L 4434 434 
Q 4069 175 3628 42 
Q 3188 -91 2688 -91 
Q 1594 -91 976 548 
Q 359 1188 359 2328 
Q 359 3472 976 4111 
Q 1594 4750 2688 4750 
Q 3144 4750 3555 4637 
Q 3966 4525 4313 4306 
L 4313 3634 
Q 3963 3931 3569 4081 
Q 3175 4231 2741 4231 
Q 1884 4231 1454 3753 
Q 1025 3275 1025 2328 
Q 1025 1384 1454 906 
Q 1884 428 2741 428 
Q 3075 428 3337 486 
Q 3600 544 3809 666 
z
" transform="scale(0.015625)"/>
       <path id="DejaVuSans-65" d="M 3597 1894 
L 3597 1613 
L 953 1613 
Q 991 1019 1311 708 
Q 1631 397 2203 397 
Q 2534 397 2845 478 
Q 3156 559 3463 722 
L 3463 178 
Q 3153 47 2828 -22 
Q 2503 -91 2169 -91 
Q 1331 -91 842 396 
Q 353 884 353 1716 
Q 353 2575 817 3079 
Q 1281 3584 2069 3584 
Q 2775 3584 3186 3129 
Q 3597 2675 3597 1894 
z
M 3022 2063 
Q 3016 2534 2758 2815 
Q 2500 3097 2075 3097 
Q 1594 3097 1305 2825 
Q 1016 2553 972 2059 
L 3022 2063 
z
" transform="scale(0.015625)"/>
       <path id="DejaVuSans-6e" d="M 3513 2113 
L 3513 0 
L 2938 0 
L 2938 2094 
Q 2938 2591 2744 2837 
Q 2550 3084 2163 3084 
Q 1697 3084 1428 2787 
Q 1159 2491 1159 1978 
L 1159 0 
L 581 0 
L 581 3500 
L 1159 3500 
L 1159 2956 
Q 1366 3272 1645 3428 
Q 1925 3584 2291 3584 
Q 2894 3584 3203 3211 
Q 3513 2838 3513 2113 
z
" transform="scale(0.015625)"/>
       <path id="DejaVuSans-72" d="M 2631 2963 
Q 2534 3019 2420 3045 
Q 2306 3072 2169 3072 
Q 1681 3072 1420 2755 
Q 1159 2438 1159 1844 
L 1159 0 
L 581 0 
L 581 3500 
L 1159 3500 
L 1159 2956 
Q 1341 3275 1631 3429 
Q 1922 3584 2338 3584 
Q 2397 3584 2469 3576 
Q 2541 3569 2628 3553 
L 2631 2963 
z
" transform="scale(0.015625)"/>
       <path id="DejaVuSans-61" d="M 2194 1759 
Q 1497 1759 1228 1600 
Q 959 1441 959 1056 
Q 959 750 1161 570 
Q 1363 391 1709 391 
Q 2188 391 2477 730 
Q 2766 1069 2766 1631 
L 2766 1759 
L 2194 1759 
z
M 3341 1997 
L 3341 0 
L 2766 0 
L 2766 531 
Q 2569 213 2275 61 
Q 1981 -91 1556 -91 
Q 1019 -91 701 211 
Q 384 513 384 1019 
Q 384 1609 779 1909 
Q 1175 2209 1959 2209 
L 2766 2209 
L 2766 2266 
Q 2766 2663 2505 2880 
Q 2244 3097 1772 3097 
Q 1472 3097 1187 3025 
Q 903 2953 641 2809 
L 641 3341 
Q 956 3463 1253 3523 
Q 1550 3584 1831 3584 
Q 2591 3584 2966 3190 
Q 3341 2797 3341 1997 
z
" transform="scale(0.015625)"/>
       <path id="DejaVuSans-74" d="M 1172 4494 
L 1172 3500 
L 2356 3500 
L 2356 3053 
L 1172 3053 
L 1172 1153 
Q 1172 725 1289 603 
Q 1406 481 1766 481 
L 2356 481 
L 2356 0 
L 1766 0 
Q 1100 0 847 248 
Q 594 497 594 1153 
L 594 3053 
L 172 3053 
L 172 3500 
L 594 3500 
L 594 4494 
L 1172 4494 
z
" transform="scale(0.015625)"/>
       <path id="DejaVuSans-69" d="M 603 3500 
L 1178 3500 
L 1178 0 
L 603 0 
L 603 3500 
z
M 603 4863 
L 1178 4863 
L 1178 4134 
L 603 4134 
L 603 4863 
z
" transform="scale(0.015625)"/>
       <path id="DejaVuSans-6f" d="M 1959 3097 
Q 1497 3097 1228 2736 
Q 959 2375 959 1747 
Q 959 1119 1226 758 
Q 1494 397 1959 397 
Q 2419 397 2687 759 
Q 2956 1122 2956 1747 
Q 2956 2369 2687 2733 
Q 2419 3097 1959 3097 
z
M 1959 3584 
Q 2709 3584 3137 3096 
Q 3566 2609 3566 1747 
Q 3566 888 3137 398 
Q 2709 -91 1959 -91 
Q 1206 -91 779 398 
Q 353 888 353 1747 
Q 353 2609 779 3096 
Q 1206 3584 1959 3584 
z
" transform="scale(0.015625)"/>
       <path id="DejaVuSans-73" d="M 2834 3397 
L 2834 2853 
Q 2591 2978 2328 3040 
Q 2066 3103 1784 3103 
Q 1356 3103 1142 2972 
Q 928 2841 928 2578 
Q 928 2378 1081 2264 
Q 1234 2150 1697 2047 
L 1894 2003 
Q 2506 1872 2764 1633 
Q 3022 1394 3022 966 
Q 3022 478 2636 193 
Q 2250 -91 1575 -91 
Q 1294 -91 989 -36 
Q 684 19 347 128 
L 347 722 
Q 666 556 975 473 
Q 1284 391 1588 391 
Q 1994 391 2212 530 
Q 2431 669 2431 922 
Q 2431 1156 2273 1281 
Q 2116 1406 1581 1522 
L 1381 1569 
Q 847 1681 609 1914 
Q 372 2147 372 2553 
Q 372 3047 722 3315 
Q 1072 3584 1716 3584 
Q 2034 3584 2315 3537 
Q 2597 3491 2834 3397 
z
" transform="scale(0.015625)"/>
      </defs>
      <use xlink:href="#DejaVuSans-47"/>
      <use xlink:href="#DejaVuSans-65" x="77.490234"/>
      <use xlink:href="#DejaVuSans-6e" x="139.013672"/>
      <use xlink:href="#DejaVuSans-65" x="202.392578"/>
      <use xlink:href="#DejaVuSans-72" x="263.916016"/>
      <use xlink:href="#DejaVuSans-61" x="305.029297"/>
      <use xlink:href="#DejaVuSans-74" x="366.308594"/>
      <use xlink:href="#DejaVuSans-69" x="405.517578"/>
      <use xlink:href="#DejaVuSans-6f" x="433.300781"/>
      <use xlink:href="#DejaVuSans-6e" x="494.482422"/>
      <use xlink:href="#DejaVuSans-73" x="557.861328"/>
     </g>
    </g>
   </g>
   <g id="matplotlib.axis_2">
    <g id="ytick_1">
     <g id="line2d_10">
      <defs>
       <path id="mc2cbb7ff12" d="M 0 0 
L -3.5 0 
" style="stroke: #000000; stroke-width: 0.8"/>
      </defs>
      <g>
       <use xlink:href="#mc2cbb7ff12" x="57.6" y="307.584" style="stroke: #000000; stroke-width: 0.8"/>
      </g>
     </g>
     <g id="text_11">
      <!-- 0 -->
      <g transform="translate(44.2375 311.383219) scale(0.1 -0.1)">
       <use xlink:href="#DejaVuSans-30"/>
      </g>
     </g>
    </g>
    <g id="ytick_2">
     <g id="line2d_11">
      <g>
       <use xlink:href="#mc2cbb7ff12" x="57.6" y="267.984" style="stroke: #000000; stroke-width: 0.8"/>
      </g>
     </g>
     <g id="text_12">
      <!-- 5 -->
      <g transform="translate(44.2375 271.783219) scale(0.1 -0.1)">
       <use xlink:href="#DejaVuSans-35"/>
      </g>
     </g>
    </g>
    <g id="ytick_3">
     <g id="line2d_12">
      <g>
       <use xlink:href="#mc2cbb7ff12" x="57.6" y="228.384" style="stroke: #000000; stroke-width: 0.8"/>
      </g>
     </g>
     <g id="text_13">
      <!-- 10 -->
      <g transform="translate(37.875 232.183219) scale(0.1 -0.1)">
       <use xlink:href="#DejaVuSans-31"/>
       <use xlink:href="#DejaVuSans-30" x="63.623047"/>
      </g>
     </g>
    </g>
    <g id="ytick_4">
     <g id="line2d_13">
      <g>
       <use xlink:href="#mc2cbb7ff12" x="57.6" y="188.784" style="stroke: #000000; stroke-width: 0.8"/>
      </g>
     </g>
     <g id="text_14">
      <!-- 15 -->
      <g transform="translate(37.875 192.583219) scale(0.1 -0.1)">
       <use xlink:href="#DejaVuSans-31"/>
       <use xlink:href="#DejaVuSans-35" x="63.623047"/>
      </g>
     </g>
    </g>
    <g id="ytick_5">
     <g id="line2d_14">
      <g>
       <use xlink:href="#mc2cbb7ff12" x="57.6" y="149.184" style="stroke: #000000; stroke-width: 0.8"/>
      </g>
     </g>
     <g id="text_15">
      <!-- 20 -->
      <g transform="translate(37.875 152.983219) scale(0.1 -0.1)">
       <use xlink:href="#DejaVuSans-32"/>
       <use xlink:href="#DejaVuSans-30" x="63.623047"/>
      </g>
     </g>
    </g>
    <g id="ytick_6">
     <g id="line2d_15">
      <g>
       <use xlink:href="#mc2cbb7ff12" x="57.6" y="109.584" style="stroke: #000000; stroke-width: 0.8"/>
      </g>
     </g>
     <g id="text_16">
      <!-- 25 -->
      <g transform="translate(37.875 113.383219) scale(0.1 -0.1)">
       <use xlink:href="#DejaVuSans-32"/>
       <use xlink:href="#DejaVuSans-35" x="63.623047"/>
      </g>
     </g>
    </g>
    <g id="ytick_7">
     <g id="line2d_16">
      <g>
       <use xlink:href="#mc2cbb7ff12" x="57.6" y="69.984" style="stroke: #000000; stroke-width: 0.8"/>
      </g>
     </g>
     <g id="text_17">
      <!-- 30 -->
      <g transform="translate(37.875 73.783219) scale(0.1 -0.1)">
       <use xlink:href="#DejaVuSans-33"/>
       <use xlink:href="#DejaVuSans-30" x="63.623047"/>
      </g>
     </g>
    </g>
    <g id="text_18">
     <!-- Size per Species -->
     <g transform="translate(31.795312 215.520969) rotate(-90) scale(0.1 -0.1)">
      <defs>
       <path id="DejaVuSans-53" d="M 3425 4513 
L 3425 3897 
Q 3066 4069 2747 4153 
Q 2428 4238 2131 4238 
Q 1616 4238 1336 4038 
Q 1056 3838 1056 3469 
Q 1056 3159 1242 3001 
Q 1428 2844 1947 2747 
L 2328 2669 
Q 3034 2534 3370 2195 
Q 3706 1856 3706 1288 
Q 3706 609 3251 259 
Q 2797 -91 1919 -91 
Q 1588 -91 1214 -16 
Q 841 59 441 206 
L 441 856 
Q 825 641 1194 531 
Q 1563 422 1919 422 
Q 2459 422 2753 634 
Q 3047 847 3047 1241 
Q 3047 1584 2836 1778 
Q 2625 1972 2144 2069 
L 1759 2144 
Q 1053 2284 737 2584 
Q 422 2884 422 3419 
Q 422 4038 858 4394 
Q 1294 4750 2059 4750 
Q 2388 4750 2728 4690 
Q 3069 4631 3425 4513 
z
" transform="scale(0.015625)"/>
       <path id="DejaVuSans-7a" d="M 353 3500 
L 3084 3500 
L 3084 2975 
L 922 459 
L 3084 459 
L 3084 0 
L 275 0 
L 275 525 
L 2438 3041 
L 353 3041 
L 353 3500 
z
" transform="scale(0.015625)"/>
       <path id="DejaVuSans-20" transform="scale(0.015625)"/>
       <path id="DejaVuSans-70" d="M 1159 525 
L 1159 -1331 
L 581 -1331 
L 581 3500 
L 1159 3500 
L 1159 2969 
Q 1341 3281 1617 3432 
Q 1894 3584 2278 3584 
Q 2916 3584 3314 3078 
Q 3713 2572 3713 1747 
Q 3713 922 3314 415 
Q 2916 -91 2278 -91 
Q 1894 -91 1617 61 
Q 1341 213 1159 525 
z
M 3116 1747 
Q 3116 2381 2855 2742 
Q 2594 3103 2138 3103 
Q 1681 3103 1420 2742 
Q 1159 2381 1159 1747 
Q 1159 1113 1420 752 
Q 1681 391 2138 391 
Q 2594 391 2855 752 
Q 3116 1113 3116 1747 
z
" transform="scale(0.015625)"/>
       <path id="DejaVuSans-63" d="M 3122 3366 
L 3122 2828 
Q 2878 2963 2633 3030 
Q 2388 3097 2138 3097 
Q 1578 3097 1268 2742 
Q 959 2388 959 1747 
Q 959 1106 1268 751 
Q 1578 397 2138 397 
Q 2388 397 2633 464 
Q 2878 531 3122 666 
L 3122 134 
Q 2881 22 2623 -34 
Q 2366 -91 2075 -91 
Q 1284 -91 818 406 
Q 353 903 353 1747 
Q 353 2603 823 3093 
Q 1294 3584 2113 3584 
Q 2378 3584 2631 3529 
Q 2884 3475 3122 3366 
z
" transform="scale(0.015625)"/>
      </defs>
      <use xlink:href="#DejaVuSans-53"/>
      <use xlink:href="#DejaVuSans-69" x="63.476562"/>
      <use xlink:href="#DejaVuSans-7a" x="91.259766"/>
      <use xlink:href="#DejaVuSans-65" x="143.75"/>
      <use xlink:href="#DejaVuSans-20" x="205.273438"/>
      <use xlink:href="#DejaVuSans-70" x="237.060547"/>
      <use xlink:href="#DejaVuSans-65" x="300.537109"/>
      <use xlink:href="#DejaVuSans-72" x="362.060547"/>
      <use xlink:href="#DejaVuSans-20" x="403.173828"/>
      <use xlink:href="#DejaVuSans-53" x="434.960938"/>
      <use xlink:href="#DejaVuSans-70" x="498.4375"/>
      <use xlink:href="#DejaVuSans-65" x="561.914062"/>
      <use xlink:href="#DejaVuSans-63" x="623.4375"/>
      <use xlink:href="#DejaVuSans-69" x="678.417969"/>
      <use xlink:href="#DejaVuSans-65" x="706.201172"/>
      <use xlink:href="#DejaVuSans-73" x="767.724609"/>
     </g>
    </g>
   </g>
   <g id="patch_3">
    <path d="M 57.6 307.584 
L 57.6 41.472 
" style="fill: none; stroke: #000000; stroke-width: 0.8; stroke-linejoin: miter; stroke-linecap: square"/>
   </g>
   <g id="patch_4">
    <path d="M 414.72 307.584 
L 414.72 41.472 
" style="fill: none; stroke: #000000; stroke-width: 0.8; stroke-linejoin: miter; stroke-linecap: square"/>
   </g>
   <g id="patch_5">
    <path d="M 57.6 307.584 
L 414.72 307.584 
" style="fill: none; stroke: #000000; stroke-width: 0.8; stroke-linejoin: miter; stroke-linecap: square"/>
   </g>
   <g id="patch_6">
    <path d="M 57.6 41.472 
L 414.72 41.472 
" style="fill: none; stroke: #000000; stroke-width: 0.8; stroke-linejoin: miter; stroke-linecap: square"/>
   </g>
   <g id="text_19">
    <!-- Speciation -->
    <g transform="translate(204.714375 35.472) scale(0.12 -0.12)">
     <use xlink:href="#DejaVuSans-53"/>
     <use xlink:href="#DejaVuSans-70" x="63.476562"/>
     <use xlink:href="#DejaVuSans-65" x="126.953125"/>
     <use xlink:href="#DejaVuSans-63" x="188.476562"/>
     <use xlink:href="#DejaVuSans-69" x="243.457031"/>
     <use xlink:href="#DejaVuSans-61" x="271.240234"/>
     <use xlink:href="#DejaVuSans-74" x="332.519531"/>
     <use xlink:href="#DejaVuSans-69" x="371.728516"/>
     <use xlink:href="#DejaVuSans-6f" x="399.511719"/>
     <use xlink:href="#DejaVuSans-6e" x="460.693359"/>
    </g>
   </g>
  </g>
 </g>
 <defs>
  <clipPath id="p4da5f923e3">
   <rect x="57.6" y="41.472" width="357.12" height="266.112"/>
  </clipPath>
 </defs>
</svg>
