<?xml version="1.0" encoding="utf-8" standalone="no"?>
<!DOCTYPE svg PUBLIC "-//W3C//DTD SVG 1.1//EN"
  "http://www.w3.org/Graphics/SVG/1.1/DTD/svg11.dtd">
<svg xmlns:xlink="http://www.w3.org/1999/xlink" width="460.8pt" height="345.6pt" viewBox="0 0 460.8 345.6" xmlns="http://www.w3.org/2000/svg" version="1.1">
 <metadata>
  <rdf:RDF xmlns:dc="http://purl.org/dc/elements/1.1/" xmlns:cc="http://creativecommons.org/ns#" xmlns:rdf="http://www.w3.org/1999/02/22-rdf-syntax-ns#">
   <cc:Work>
    <dc:type rdf:resource="http://purl.org/dc/dcmitype/StillImage"/>
    <dc:date>2024-07-30T16:01:32.120213</dc:date>
    <dc:format>image/svg+xml</dc:format>
    <dc:creator>
     <cc:Agent>
      <dc:title>Matplotlib v3.8.4, https://matplotlib.org/</dc:title>
     </cc:Agent>
    </dc:creator>
   </cc:Work>
  </rdf:RDF>
 </metadata>
 <defs>
  <style type="text/css">*{stroke-linejoin: round; stroke-linecap: butt}</style>
 </defs>
 <g id="figure_1">
  <g id="patch_1">
   <path d="M 0 345.6 
L 460.8 345.6 
L 460.8 0 
L 0 0 
z
" style="fill: #ffffff"/>
  </g>
  <g id="axes_1">
   <g id="patch_2">
    <path d="M 57.6 307.584 
L 414.72 307.584 
L 414.72 41.472 
L 57.6 41.472 
z
" style="fill: #ffffff"/>
   </g>
   <g id="PolyCollection_1">
    <path d="M 73.832727 169.344 
L 73.832727 307.584 
L 82.157203 307.584 
L 90.481678 307.584 
L 98.806154 307.584 
L 107.130629 307.584 
L 115.455105 307.584 
L 123.77958 307.584 
L 132.104056 307.584 
L 140.428531 307.584 
L 148.753007 307.584 
L 157.077483 307.584 
L 165.401958 307.584 
L 173.726434 307.584 
L 182.050909 307.584 
L 190.375385 307.584 
L 198.69986 307.584 
L 207.024336 307.584 
L 215.348811 307.584 
L 223.673287 307.584 
L 231.997762 307.584 
L 240.322238 307.584 
L 248.646713 307.584 
L 256.971189 307.584 
L 265.295664 307.584 
L 273.62014 307.584 
L 281.944615 307.584 
L 290.269091 307.584 
L 298.593566 307.584 
L 306.918042 307.584 
L 315.242517 307.584 
L 323.566993 307.584 
L 331.891469 307.584 
L 340.215944 307.584 
L 348.54042 307.584 
L 356.864895 307.584 
L 365.189371 307.584 
L 373.513846 307.584 
L 381.838322 307.584 
L 390.162797 307.584 
L 398.487273 307.584 
L 398.487273 307.584 
L 398.487273 307.584 
L 390.162797 307.584 
L 381.838322 307.584 
L 373.513846 307.584 
L 365.189371 307.584 
L 356.864895 307.584 
L 348.54042 307.584 
L 340.215944 307.584 
L 331.891469 307.584 
L 323.566993 307.584 
L 315.242517 307.584 
L 306.918042 307.584 
L 298.593566 307.584 
L 290.269091 307.584 
L 281.944615 307.584 
L 273.62014 307.584 
L 265.295664 307.584 
L 256.971189 307.584 
L 248.646713 307.584 
L 240.322238 307.584 
L 231.997762 307.584 
L 223.673287 307.584 
L 215.348811 307.584 
L 207.024336 307.584 
L 198.69986 307.584 
L 190.375385 307.584 
L 182.050909 307.584 
L 173.726434 307.584 
L 165.401958 307.584 
L 157.077483 273.024 
L 148.753007 284.544 
L 140.428531 284.544 
L 132.104056 273.024 
L 123.77958 284.544 
L 115.455105 284.544 
L 107.130629 273.024 
L 98.806154 284.544 
L 90.481678 249.984 
L 82.157203 261.504 
L 73.832727 169.344 
z
" clip-path="url(#p1e73092bb3)" style="fill: #1f77b4"/>
   </g>
   <g id="PolyCollection_2">
    <path d="M 73.832727 157.824 
L 73.832727 169.344 
L 82.157203 261.504 
L 90.481678 249.984 
L 98.806154 284.544 
L 107.130629 273.024 
L 115.455105 284.544 
L 123.77958 284.544 
L 132.104056 273.024 
L 140.428531 284.544 
L 148.753007 284.544 
L 157.077483 273.024 
L 165.401958 307.584 
L 173.726434 307.584 
L 182.050909 307.584 
L 190.375385 307.584 
L 198.69986 307.584 
L 207.024336 307.584 
L 215.348811 307.584 
L 223.673287 307.584 
L 231.997762 307.584 
L 240.322238 307.584 
L 248.646713 307.584 
L 256.971189 307.584 
L 265.295664 307.584 
L 273.62014 307.584 
L 281.944615 307.584 
L 290.269091 307.584 
L 298.593566 307.584 
L 306.918042 307.584 
L 315.242517 307.584 
L 323.566993 307.584 
L 331.891469 307.584 
L 340.215944 307.584 
L 348.54042 307.584 
L 356.864895 307.584 
L 365.189371 307.584 
L 373.513846 307.584 
L 381.838322 307.584 
L 390.162797 307.584 
L 398.487273 307.584 
L 398.487273 307.584 
L 398.487273 307.584 
L 390.162797 307.584 
L 381.838322 307.584 
L 373.513846 307.584 
L 365.189371 307.584 
L 356.864895 307.584 
L 348.54042 307.584 
L 340.215944 307.584 
L 331.891469 307.584 
L 323.566993 307.584 
L 315.242517 307.584 
L 306.918042 307.584 
L 298.593566 307.584 
L 290.269091 307.584 
L 281.944615 307.584 
L 273.62014 307.584 
L 265.295664 307.584 
L 256.971189 307.584 
L 248.646713 307.584 
L 240.322238 307.584 
L 231.997762 307.584 
L 223.673287 307.584 
L 215.348811 307.584 
L 207.024336 307.584 
L 198.69986 307.584 
L 190.375385 307.584 
L 182.050909 307.584 
L 173.726434 284.544 
L 165.401958 273.024 
L 157.077483 249.984 
L 148.753007 273.024 
L 140.428531 261.504 
L 132.104056 249.984 
L 123.77958 261.504 
L 115.455105 273.024 
L 107.130629 238.464 
L 98.806154 249.984 
L 90.481678 226.944 
L 82.157203 238.464 
L 73.832727 157.824 
z
" clip-path="url(#p1e73092bb3)" style="fill: #ff7f0e"/>
   </g>
   <g id="PolyCollection_3">
    <path d="M 73.832727 111.744 
L 73.832727 157.824 
L 82.157203 238.464 
L 90.481678 226.944 
L 98.806154 249.984 
L 107.130629 238.464 
L 115.455105 273.024 
L 123.77958 261.504 
L 132.104056 249.984 
L 140.428531 261.504 
L 148.753007 273.024 
L 157.077483 249.984 
L 165.401958 273.024 
L 173.726434 284.544 
L 182.050909 307.584 
L 190.375385 307.584 
L 198.69986 307.584 
L 207.024336 307.584 
L 215.348811 307.584 
L 223.673287 307.584 
L 231.997762 307.584 
L 240.322238 307.584 
L 248.646713 307.584 
L 256.971189 307.584 
L 265.295664 307.584 
L 273.62014 307.584 
L 281.944615 307.584 
L 290.269091 307.584 
L 298.593566 307.584 
L 306.918042 307.584 
L 315.242517 307.584 
L 323.566993 307.584 
L 331.891469 307.584 
L 340.215944 307.584 
L 348.54042 307.584 
L 356.864895 307.584 
L 365.189371 307.584 
L 373.513846 307.584 
L 381.838322 307.584 
L 390.162797 307.584 
L 398.487273 307.584 
L 398.487273 307.584 
L 398.487273 307.584 
L 390.162797 307.584 
L 381.838322 307.584 
L 373.513846 307.584 
L 365.189371 307.584 
L 356.864895 307.584 
L 348.54042 307.584 
L 340.215944 307.584 
L 331.891469 307.584 
L 323.566993 307.584 
L 315.242517 307.584 
L 306.918042 307.584 
L 298.593566 307.584 
L 290.269091 307.584 
L 281.944615 296.064 
L 273.62014 284.544 
L 265.295664 284.544 
L 256.971189 273.024 
L 248.646713 296.064 
L 240.322238 296.064 
L 231.997762 273.024 
L 223.673287 284.544 
L 215.348811 284.544 
L 207.024336 273.024 
L 198.69986 261.504 
L 190.375385 296.064 
L 182.050909 273.024 
L 173.726434 238.464 
L 165.401958 249.984 
L 157.077483 226.944 
L 148.753007 226.944 
L 140.428531 238.464 
L 132.104056 215.424 
L 123.77958 249.984 
L 115.455105 226.944 
L 107.130629 226.944 
L 98.806154 226.944 
L 90.481678 180.864 
L 82.157203 157.824 
L 73.832727 111.744 
z
" clip-path="url(#p1e73092bb3)" style="fill: #2ca02c"/>
   </g>
   <g id="PolyCollection_4">
    <path d="M 73.832727 77.184 
L 73.832727 111.744 
L 82.157203 157.824 
L 90.481678 180.864 
L 98.806154 226.944 
L 107.130629 226.944 
L 115.455105 226.944 
L 123.77958 249.984 
L 132.104056 215.424 
L 140.428531 238.464 
L 148.753007 226.944 
L 157.077483 226.944 
L 165.401958 249.984 
L 173.726434 238.464 
L 182.050909 273.024 
L 190.375385 296.064 
L 198.69986 261.504 
L 207.024336 273.024 
L 215.348811 284.544 
L 223.673287 284.544 
L 231.997762 273.024 
L 240.322238 296.064 
L 248.646713 296.064 
L 256.971189 273.024 
L 265.295664 284.544 
L 273.62014 284.544 
L 281.944615 296.064 
L 290.269091 307.584 
L 298.593566 307.584 
L 306.918042 307.584 
L 315.242517 307.584 
L 323.566993 307.584 
L 331.891469 307.584 
L 340.215944 307.584 
L 348.54042 307.584 
L 356.864895 307.584 
L 365.189371 307.584 
L 373.513846 307.584 
L 381.838322 307.584 
L 390.162797 307.584 
L 398.487273 307.584 
L 398.487273 307.584 
L 398.487273 307.584 
L 390.162797 307.584 
L 381.838322 307.584 
L 373.513846 307.584 
L 365.189371 307.584 
L 356.864895 307.584 
L 348.54042 307.584 
L 340.215944 307.584 
L 331.891469 307.584 
L 323.566993 307.584 
L 315.242517 307.584 
L 306.918042 307.584 
L 298.593566 307.584 
L 290.269091 296.064 
L 281.944615 273.024 
L 273.62014 261.504 
L 265.295664 249.984 
L 256.971189 238.464 
L 248.646713 284.544 
L 240.322238 261.504 
L 231.997762 249.984 
L 223.673287 249.984 
L 215.348811 261.504 
L 207.024336 238.464 
L 198.69986 226.944 
L 190.375385 226.944 
L 182.050909 226.944 
L 173.726434 215.424 
L 165.401958 215.424 
L 157.077483 169.344 
L 148.753007 215.424 
L 140.428531 226.944 
L 132.104056 192.384 
L 123.77958 215.424 
L 115.455105 203.904 
L 107.130629 180.864 
L 98.806154 157.824 
L 90.481678 146.304 
L 82.157203 123.264 
L 73.832727 77.184 
z
" clip-path="url(#p1e73092bb3)" style="fill: #d62728"/>
   </g>
   <g id="PolyCollection_5">
    <path d="M 73.832727 77.184 
L 73.832727 77.184 
L 82.157203 123.264 
L 90.481678 146.304 
L 98.806154 157.824 
L 107.130629 180.864 
L 115.455105 203.904 
L 123.77958 215.424 
L 132.104056 192.384 
L 140.428531 226.944 
L 148.753007 215.424 
L 157.077483 169.344 
L 165.401958 215.424 
L 173.726434 215.424 
L 182.050909 226.944 
L 190.375385 226.944 
L 198.69986 226.944 
L 207.024336 238.464 
L 215.348811 261.504 
L 223.673287 249.984 
L 231.997762 249.984 
L 240.322238 261.504 
L 248.646713 284.544 
L 256.971189 238.464 
L 265.295664 249.984 
L 273.62014 261.504 
L 281.944615 273.024 
L 290.269091 296.064 
L 298.593566 307.584 
L 306.918042 307.584 
L 315.242517 307.584 
L 323.566993 307.584 
L 331.891469 307.584 
L 340.215944 307.584 
L 348.54042 307.584 
L 356.864895 307.584 
L 365.189371 307.584 
L 373.513846 307.584 
L 381.838322 307.584 
L 390.162797 307.584 
L 398.487273 307.584 
L 398.487273 307.584 
L 398.487273 307.584 
L 390.162797 307.584 
L 381.838322 307.584 
L 373.513846 307.584 
L 365.189371 307.584 
L 356.864895 307.584 
L 348.54042 307.584 
L 340.215944 307.584 
L 331.891469 307.584 
L 323.566993 307.584 
L 315.242517 307.584 
L 306.918042 307.584 
L 298.593566 307.584 
L 290.269091 296.064 
L 281.944615 273.024 
L 273.62014 238.464 
L 265.295664 226.944 
L 256.971189 226.944 
L 248.646713 249.984 
L 240.322238 238.464 
L 231.997762 238.464 
L 223.673287 226.944 
L 215.348811 226.944 
L 207.024336 157.824 
L 198.69986 180.864 
L 190.375385 192.384 
L 182.050909 203.904 
L 173.726434 192.384 
L 165.401958 192.384 
L 157.077483 146.304 
L 148.753007 157.824 
L 140.428531 192.384 
L 132.104056 180.864 
L 123.77958 192.384 
L 115.455105 180.864 
L 107.130629 146.304 
L 98.806154 134.784 
L 90.481678 123.264 
L 82.157203 100.224 
L 73.832727 77.184 
z
" clip-path="url(#p1e73092bb3)" style="fill: #9467bd"/>
   </g>
   <g id="PolyCollection_6">
    <path d="M 73.832727 77.184 
L 73.832727 77.184 
L 82.157203 100.224 
L 90.481678 123.264 
L 98.806154 134.784 
L 107.130629 146.304 
L 115.455105 180.864 
L 123.77958 192.384 
L 132.104056 180.864 
L 140.428531 192.384 
L 148.753007 157.824 
L 157.077483 146.304 
L 165.401958 192.384 
L 173.726434 192.384 
L 182.050909 203.904 
L 190.375385 192.384 
L 198.69986 180.864 
L 207.024336 157.824 
L 215.348811 226.944 
L 223.673287 226.944 
L 231.997762 238.464 
L 240.322238 238.464 
L 248.646713 249.984 
L 256.971189 226.944 
L 265.295664 226.944 
L 273.62014 238.464 
L 281.944615 273.024 
L 290.269091 296.064 
L 298.593566 307.584 
L 306.918042 307.584 
L 315.242517 307.584 
L 323.566993 307.584 
L 331.891469 307.584 
L 340.215944 307.584 
L 348.54042 307.584 
L 356.864895 307.584 
L 365.189371 307.584 
L 373.513846 307.584 
L 381.838322 307.584 
L 390.162797 307.584 
L 398.487273 307.584 
L 398.487273 307.584 
L 398.487273 307.584 
L 390.162797 307.584 
L 381.838322 261.504 
L 373.513846 238.464 
L 365.189371 273.024 
L 356.864895 273.024 
L 348.54042 249.984 
L 340.215944 261.504 
L 331.891469 249.984 
L 323.566993 273.024 
L 315.242517 261.504 
L 306.918042 273.024 
L 298.593566 261.504 
L 290.269091 273.024 
L 281.944615 238.464 
L 273.62014 203.904 
L 265.295664 203.904 
L 256.971189 215.424 
L 248.646713 226.944 
L 240.322238 215.424 
L 231.997762 203.904 
L 223.673287 192.384 
L 215.348811 157.824 
L 207.024336 146.304 
L 198.69986 111.744 
L 190.375385 134.784 
L 182.050909 157.824 
L 173.726434 157.824 
L 165.401958 180.864 
L 157.077483 123.264 
L 148.753007 146.304 
L 140.428531 134.784 
L 132.104056 146.304 
L 123.77958 157.824 
L 115.455105 123.264 
L 107.130629 100.224 
L 98.806154 88.704 
L 90.481678 88.704 
L 82.157203 65.664 
L 73.832727 77.184 
z
" clip-path="url(#p1e73092bb3)" style="fill: #8c564b"/>
   </g>
   <g id="PolyCollection_7">
    <path d="M 73.832727 77.184 
L 73.832727 77.184 
L 82.157203 65.664 
L 90.481678 88.704 
L 98.806154 88.704 
L 107.130629 100.224 
L 115.455105 123.264 
L 123.77958 157.824 
L 132.104056 146.304 
L 140.428531 134.784 
L 148.753007 146.304 
L 157.077483 123.264 
L 165.401958 180.864 
L 173.726434 157.824 
L 182.050909 157.824 
L 190.375385 134.784 
L 198.69986 111.744 
L 207.024336 146.304 
L 215.348811 157.824 
L 223.673287 192.384 
L 231.997762 203.904 
L 240.322238 215.424 
L 248.646713 226.944 
L 256.971189 215.424 
L 265.295664 203.904 
L 273.62014 203.904 
L 281.944615 238.464 
L 290.269091 273.024 
L 298.593566 261.504 
L 306.918042 273.024 
L 315.242517 261.504 
L 323.566993 273.024 
L 331.891469 249.984 
L 340.215944 261.504 
L 348.54042 249.984 
L 356.864895 273.024 
L 365.189371 273.024 
L 373.513846 238.464 
L 381.838322 261.504 
L 390.162797 307.584 
L 398.487273 307.584 
L 398.487273 307.584 
L 398.487273 307.584 
L 390.162797 307.584 
L 381.838322 261.504 
L 373.513846 238.464 
L 365.189371 273.024 
L 356.864895 273.024 
L 348.54042 249.984 
L 340.215944 261.504 
L 331.891469 249.984 
L 323.566993 273.024 
L 315.242517 261.504 
L 306.918042 273.024 
L 298.593566 261.504 
L 290.269091 273.024 
L 281.944615 238.464 
L 273.62014 203.904 
L 265.295664 203.904 
L 256.971189 215.424 
L 248.646713 226.944 
L 240.322238 215.424 
L 231.997762 203.904 
L 223.673287 192.384 
L 215.348811 157.824 
L 207.024336 146.304 
L 198.69986 111.744 
L 190.375385 123.264 
L 182.050909 146.304 
L 173.726434 134.784 
L 165.401958 157.824 
L 157.077483 111.744 
L 148.753007 111.744 
L 140.428531 100.224 
L 132.104056 111.744 
L 123.77958 134.784 
L 115.455105 111.744 
L 107.130629 77.184 
L 98.806154 88.704 
L 90.481678 88.704 
L 82.157203 65.664 
L 73.832727 77.184 
z
" clip-path="url(#p1e73092bb3)" style="fill: #e377c2"/>
   </g>
   <g id="PolyCollection_8">
    <path d="M 73.832727 77.184 
L 73.832727 77.184 
L 82.157203 65.664 
L 90.481678 88.704 
L 98.806154 88.704 
L 107.130629 77.184 
L 115.455105 111.744 
L 123.77958 134.784 
L 132.104056 111.744 
L 140.428531 100.224 
L 148.753007 111.744 
L 157.077483 111.744 
L 165.401958 157.824 
L 173.726434 134.784 
L 182.050909 146.304 
L 190.375385 123.264 
L 198.69986 111.744 
L 207.024336 146.304 
L 215.348811 157.824 
L 223.673287 192.384 
L 231.997762 203.904 
L 240.322238 215.424 
L 248.646713 226.944 
L 256.971189 215.424 
L 265.295664 203.904 
L 273.62014 203.904 
L 281.944615 238.464 
L 290.269091 273.024 
L 298.593566 261.504 
L 306.918042 273.024 
L 315.242517 261.504 
L 323.566993 273.024 
L 331.891469 249.984 
L 340.215944 261.504 
L 348.54042 249.984 
L 356.864895 273.024 
L 365.189371 273.024 
L 373.513846 238.464 
L 381.838322 261.504 
L 390.162797 307.584 
L 398.487273 307.584 
L 398.487273 307.584 
L 398.487273 307.584 
L 390.162797 307.584 
L 381.838322 261.504 
L 373.513846 238.464 
L 365.189371 273.024 
L 356.864895 273.024 
L 348.54042 249.984 
L 340.215944 261.504 
L 331.891469 249.984 
L 323.566993 273.024 
L 315.242517 261.504 
L 306.918042 273.024 
L 298.593566 261.504 
L 290.269091 226.944 
L 281.944615 192.384 
L 273.62014 169.344 
L 265.295664 169.344 
L 256.971189 169.344 
L 248.646713 215.424 
L 240.322238 180.864 
L 231.997762 169.344 
L 223.673287 157.824 
L 215.348811 134.784 
L 207.024336 111.744 
L 198.69986 88.704 
L 190.375385 88.704 
L 182.050909 134.784 
L 173.726434 111.744 
L 165.401958 123.264 
L 157.077483 88.704 
L 148.753007 88.704 
L 140.428531 88.704 
L 132.104056 77.184 
L 123.77958 111.744 
L 115.455105 88.704 
L 107.130629 65.664 
L 98.806154 88.704 
L 90.481678 88.704 
L 82.157203 65.664 
L 73.832727 77.184 
z
" clip-path="url(#p1e73092bb3)" style="fill: #7f7f7f"/>
   </g>
   <g id="PolyCollection_9">
    <path d="M 73.832727 77.184 
L 73.832727 77.184 
L 82.157203 65.664 
L 90.481678 88.704 
L 98.806154 88.704 
L 107.130629 65.664 
L 115.455105 88.704 
L 123.77958 111.744 
L 132.104056 77.184 
L 140.428531 88.704 
L 148.753007 88.704 
L 157.077483 88.704 
L 165.401958 123.264 
L 173.726434 111.744 
L 182.050909 134.784 
L 190.375385 88.704 
L 198.69986 88.704 
L 207.024336 111.744 
L 215.348811 134.784 
L 223.673287 157.824 
L 231.997762 169.344 
L 240.322238 180.864 
L 248.646713 215.424 
L 256.971189 169.344 
L 265.295664 169.344 
L 273.62014 169.344 
L 281.944615 192.384 
L 290.269091 226.944 
L 298.593566 261.504 
L 306.918042 273.024 
L 315.242517 261.504 
L 323.566993 273.024 
L 331.891469 249.984 
L 340.215944 261.504 
L 348.54042 249.984 
L 356.864895 273.024 
L 365.189371 273.024 
L 373.513846 238.464 
L 381.838322 261.504 
L 390.162797 307.584 
L 398.487273 307.584 
L 398.487273 307.584 
L 398.487273 307.584 
L 390.162797 307.584 
L 381.838322 261.504 
L 373.513846 238.464 
L 365.189371 273.024 
L 356.864895 273.024 
L 348.54042 249.984 
L 340.215944 261.504 
L 331.891469 226.944 
L 323.566993 238.464 
L 315.242517 226.944 
L 306.918042 226.944 
L 298.593566 203.904 
L 290.269091 192.384 
L 281.944615 157.824 
L 273.62014 134.784 
L 265.295664 134.784 
L 256.971189 134.784 
L 248.646713 169.344 
L 240.322238 157.824 
L 231.997762 123.264 
L 223.673287 134.784 
L 215.348811 100.224 
L 207.024336 77.184 
L 198.69986 77.184 
L 190.375385 65.664 
L 182.050909 77.184 
L 173.726434 77.184 
L 165.401958 111.744 
L 157.077483 77.184 
L 148.753007 65.664 
L 140.428531 65.664 
L 132.104056 77.184 
L 123.77958 111.744 
L 115.455105 88.704 
L 107.130629 65.664 
L 98.806154 88.704 
L 90.481678 88.704 
L 82.157203 65.664 
L 73.832727 77.184 
z
" clip-path="url(#p1e73092bb3)" style="fill: #bcbd22"/>
   </g>
   <g id="PolyCollection_10">
    <path d="M 73.832727 77.184 
L 73.832727 77.184 
L 82.157203 65.664 
L 90.481678 88.704 
L 98.806154 88.704 
L 107.130629 65.664 
L 115.455105 88.704 
L 123.77958 111.744 
L 132.104056 77.184 
L 140.428531 65.664 
L 148.753007 65.664 
L 157.077483 77.184 
L 165.401958 111.744 
L 173.726434 77.184 
L 182.050909 77.184 
L 190.375385 65.664 
L 198.69986 77.184 
L 207.024336 77.184 
L 215.348811 100.224 
L 223.673287 134.784 
L 231.997762 123.264 
L 240.322238 157.824 
L 248.646713 169.344 
L 256.971189 134.784 
L 265.295664 134.784 
L 273.62014 134.784 
L 281.944615 157.824 
L 290.269091 192.384 
L 298.593566 203.904 
L 306.918042 226.944 
L 315.242517 226.944 
L 323.566993 238.464 
L 331.891469 226.944 
L 340.215944 261.504 
L 348.54042 249.984 
L 356.864895 273.024 
L 365.189371 273.024 
L 373.513846 238.464 
L 381.838322 261.504 
L 390.162797 307.584 
L 398.487273 307.584 
L 398.487273 284.544 
L 398.487273 284.544 
L 390.162797 296.064 
L 381.838322 238.464 
L 373.513846 203.904 
L 365.189371 249.984 
L 356.864895 261.504 
L 348.54042 238.464 
L 340.215944 226.944 
L 331.891469 215.424 
L 323.566993 215.424 
L 315.242517 215.424 
L 306.918042 192.384 
L 298.593566 169.344 
L 290.269091 169.344 
L 281.944615 134.784 
L 273.62014 111.744 
L 265.295664 111.744 
L 256.971189 100.224 
L 248.646713 111.744 
L 240.322238 111.744 
L 231.997762 100.224 
L 223.673287 100.224 
L 215.348811 65.664 
L 207.024336 54.144 
L 198.69986 77.184 
L 190.375385 65.664 
L 182.050909 77.184 
L 173.726434 77.184 
L 165.401958 111.744 
L 157.077483 77.184 
L 148.753007 65.664 
L 140.428531 65.664 
L 132.104056 77.184 
L 123.77958 111.744 
L 115.455105 88.704 
L 107.130629 65.664 
L 98.806154 88.704 
L 90.481678 88.704 
L 82.157203 65.664 
L 73.832727 77.184 
z
" clip-path="url(#p1e73092bb3)" style="fill: #17becf"/>
   </g>
   <g id="PolyCollection_11">
    <path d="M 73.832727 77.184 
L 73.832727 77.184 
L 82.157203 65.664 
L 90.481678 88.704 
L 98.806154 88.704 
L 107.130629 65.664 
L 115.455105 88.704 
L 123.77958 111.744 
L 132.104056 77.184 
L 140.428531 65.664 
L 148.753007 65.664 
L 157.077483 77.184 
L 165.401958 111.744 
L 173.726434 77.184 
L 182.050909 77.184 
L 190.375385 65.664 
L 198.69986 77.184 
L 207.024336 54.144 
L 215.348811 65.664 
L 223.673287 100.224 
L 231.997762 100.224 
L 240.322238 111.744 
L 248.646713 111.744 
L 256.971189 100.224 
L 265.295664 111.744 
L 273.62014 111.744 
L 281.944615 134.784 
L 290.269091 169.344 
L 298.593566 169.344 
L 306.918042 192.384 
L 315.242517 215.424 
L 323.566993 215.424 
L 331.891469 215.424 
L 340.215944 226.944 
L 348.54042 238.464 
L 356.864895 261.504 
L 365.189371 249.984 
L 373.513846 203.904 
L 381.838322 238.464 
L 390.162797 296.064 
L 398.487273 284.544 
L 398.487273 284.544 
L 398.487273 284.544 
L 390.162797 296.064 
L 381.838322 238.464 
L 373.513846 203.904 
L 365.189371 249.984 
L 356.864895 261.504 
L 348.54042 238.464 
L 340.215944 226.944 
L 331.891469 215.424 
L 323.566993 215.424 
L 315.242517 203.904 
L 306.918042 169.344 
L 298.593566 146.304 
L 290.269091 157.824 
L 281.944615 111.744 
L 273.62014 88.704 
L 265.295664 100.224 
L 256.971189 77.184 
L 248.646713 65.664 
L 240.322238 65.664 
L 231.997762 65.664 
L 223.673287 77.184 
L 215.348811 65.664 
L 207.024336 54.144 
L 198.69986 77.184 
L 190.375385 65.664 
L 182.050909 77.184 
L 173.726434 77.184 
L 165.401958 111.744 
L 157.077483 77.184 
L 148.753007 65.664 
L 140.428531 65.664 
L 132.104056 77.184 
L 123.77958 111.744 
L 115.455105 88.704 
L 107.130629 65.664 
L 98.806154 88.704 
L 90.481678 88.704 
L 82.157203 65.664 
L 73.832727 77.184 
z
" clip-path="url(#p1e73092bb3)" style="fill: #1f77b4"/>
   </g>
   <g id="PolyCollection_12">
    <path d="M 73.832727 77.184 
L 73.832727 77.184 
L 82.157203 65.664 
L 90.481678 88.704 
L 98.806154 88.704 
L 107.130629 65.664 
L 115.455105 88.704 
L 123.77958 111.744 
L 132.104056 77.184 
L 140.428531 65.664 
L 148.753007 65.664 
L 157.077483 77.184 
L 165.401958 111.744 
L 173.726434 77.184 
L 182.050909 77.184 
L 190.375385 65.664 
L 198.69986 77.184 
L 207.024336 54.144 
L 215.348811 65.664 
L 223.673287 77.184 
L 231.997762 65.664 
L 240.322238 65.664 
L 248.646713 65.664 
L 256.971189 77.184 
L 265.295664 100.224 
L 273.62014 88.704 
L 281.944615 111.744 
L 290.269091 157.824 
L 298.593566 146.304 
L 306.918042 169.344 
L 315.242517 203.904 
L 323.566993 215.424 
L 331.891469 215.424 
L 340.215944 226.944 
L 348.54042 238.464 
L 356.864895 261.504 
L 365.189371 249.984 
L 373.513846 203.904 
L 381.838322 238.464 
L 390.162797 296.064 
L 398.487273 284.544 
L 398.487273 284.544 
L 398.487273 284.544 
L 390.162797 296.064 
L 381.838322 238.464 
L 373.513846 203.904 
L 365.189371 226.944 
L 356.864895 238.464 
L 348.54042 215.424 
L 340.215944 192.384 
L 331.891469 203.904 
L 323.566993 180.864 
L 315.242517 180.864 
L 306.918042 134.784 
L 298.593566 134.784 
L 290.269091 123.264 
L 281.944615 88.704 
L 273.62014 77.184 
L 265.295664 65.664 
L 256.971189 65.664 
L 248.646713 65.664 
L 240.322238 65.664 
L 231.997762 65.664 
L 223.673287 77.184 
L 215.348811 65.664 
L 207.024336 54.144 
L 198.69986 77.184 
L 190.375385 65.664 
L 182.050909 77.184 
L 173.726434 77.184 
L 165.401958 111.744 
L 157.077483 77.184 
L 148.753007 65.664 
L 140.428531 65.664 
L 132.104056 77.184 
L 123.77958 111.744 
L 115.455105 88.704 
L 107.130629 65.664 
L 98.806154 88.704 
L 90.481678 88.704 
L 82.157203 65.664 
L 73.832727 77.184 
z
" clip-path="url(#p1e73092bb3)" style="fill: #ff7f0e"/>
   </g>
   <g id="PolyCollection_13">
    <path d="M 73.832727 77.184 
L 73.832727 77.184 
L 82.157203 65.664 
L 90.481678 88.704 
L 98.806154 88.704 
L 107.130629 65.664 
L 115.455105 88.704 
L 123.77958 111.744 
L 132.104056 77.184 
L 140.428531 65.664 
L 148.753007 65.664 
L 157.077483 77.184 
L 165.401958 111.744 
L 173.726434 77.184 
L 182.050909 77.184 
L 190.375385 65.664 
L 198.69986 77.184 
L 207.024336 54.144 
L 215.348811 65.664 
L 223.673287 77.184 
L 231.997762 65.664 
L 240.322238 65.664 
L 248.646713 65.664 
L 256.971189 65.664 
L 265.295664 65.664 
L 273.62014 77.184 
L 281.944615 88.704 
L 290.269091 123.264 
L 298.593566 134.784 
L 306.918042 134.784 
L 315.242517 180.864 
L 323.566993 180.864 
L 331.891469 203.904 
L 340.215944 192.384 
L 348.54042 215.424 
L 356.864895 238.464 
L 365.189371 226.944 
L 373.513846 203.904 
L 381.838322 238.464 
L 390.162797 296.064 
L 398.487273 284.544 
L 398.487273 261.504 
L 398.487273 261.504 
L 390.162797 261.504 
L 381.838322 203.904 
L 373.513846 180.864 
L 365.189371 215.424 
L 356.864895 192.384 
L 348.54042 192.384 
L 340.215944 157.824 
L 331.891469 180.864 
L 323.566993 157.824 
L 315.242517 146.304 
L 306.918042 111.744 
L 298.593566 111.744 
L 290.269091 100.224 
L 281.944615 77.184 
L 273.62014 65.664 
L 265.295664 65.664 
L 256.971189 65.664 
L 248.646713 65.664 
L 240.322238 65.664 
L 231.997762 65.664 
L 223.673287 77.184 
L 215.348811 65.664 
L 207.024336 54.144 
L 198.69986 77.184 
L 190.375385 65.664 
L 182.050909 77.184 
L 173.726434 77.184 
L 165.401958 111.744 
L 157.077483 77.184 
L 148.753007 65.664 
L 140.428531 65.664 
L 132.104056 77.184 
L 123.77958 111.744 
L 115.455105 88.704 
L 107.130629 65.664 
L 98.806154 88.704 
L 90.481678 88.704 
L 82.157203 65.664 
L 73.832727 77.184 
z
" clip-path="url(#p1e73092bb3)" style="fill: #2ca02c"/>
   </g>
   <g id="PolyCollection_14">
    <path d="M 73.832727 77.184 
L 73.832727 77.184 
L 82.157203 65.664 
L 90.481678 88.704 
L 98.806154 88.704 
L 107.130629 65.664 
L 115.455105 88.704 
L 123.77958 111.744 
L 132.104056 77.184 
L 140.428531 65.664 
L 148.753007 65.664 
L 157.077483 77.184 
L 165.401958 111.744 
L 173.726434 77.184 
L 182.050909 77.184 
L 190.375385 65.664 
L 198.69986 77.184 
L 207.024336 54.144 
L 215.348811 65.664 
L 223.673287 77.184 
L 231.997762 65.664 
L 240.322238 65.664 
L 248.646713 65.664 
L 256.971189 65.664 
L 265.295664 65.664 
L 273.62014 65.664 
L 281.944615 77.184 
L 290.269091 100.224 
L 298.593566 111.744 
L 306.918042 111.744 
L 315.242517 146.304 
L 323.566993 157.824 
L 331.891469 180.864 
L 340.215944 157.824 
L 348.54042 192.384 
L 356.864895 192.384 
L 365.189371 215.424 
L 373.513846 180.864 
L 381.838322 203.904 
L 390.162797 261.504 
L 398.487273 261.504 
L 398.487273 238.464 
L 398.487273 238.464 
L 390.162797 226.944 
L 381.838322 180.864 
L 373.513846 146.304 
L 365.189371 192.384 
L 356.864895 157.824 
L 348.54042 169.344 
L 340.215944 134.784 
L 331.891469 146.304 
L 323.566993 134.784 
L 315.242517 134.784 
L 306.918042 100.224 
L 298.593566 88.704 
L 290.269091 77.184 
L 281.944615 65.664 
L 273.62014 65.664 
L 265.295664 65.664 
L 256.971189 65.664 
L 248.646713 65.664 
L 240.322238 65.664 
L 231.997762 65.664 
L 223.673287 77.184 
L 215.348811 65.664 
L 207.024336 54.144 
L 198.69986 77.184 
L 190.375385 65.664 
L 182.050909 77.184 
L 173.726434 77.184 
L 165.401958 111.744 
L 157.077483 77.184 
L 148.753007 65.664 
L 140.428531 65.664 
L 132.104056 77.184 
L 123.77958 111.744 
L 115.455105 88.704 
L 107.130629 65.664 
L 98.806154 88.704 
L 90.481678 88.704 
L 82.157203 65.664 
L 73.832727 77.184 
z
" clip-path="url(#p1e73092bb3)" style="fill: #d62728"/>
   </g>
   <g id="PolyCollection_15">
    <path d="M 73.832727 77.184 
L 73.832727 77.184 
L 82.157203 65.664 
L 90.481678 88.704 
L 98.806154 88.704 
L 107.130629 65.664 
L 115.455105 88.704 
L 123.77958 111.744 
L 132.104056 77.184 
L 140.428531 65.664 
L 148.753007 65.664 
L 157.077483 77.184 
L 165.401958 111.744 
L 173.726434 77.184 
L 182.050909 77.184 
L 190.375385 65.664 
L 198.69986 77.184 
L 207.024336 54.144 
L 215.348811 65.664 
L 223.673287 77.184 
L 231.997762 65.664 
L 240.322238 65.664 
L 248.646713 65.664 
L 256.971189 65.664 
L 265.295664 65.664 
L 273.62014 65.664 
L 281.944615 65.664 
L 290.269091 77.184 
L 298.593566 88.704 
L 306.918042 100.224 
L 315.242517 134.784 
L 323.566993 134.784 
L 331.891469 146.304 
L 340.215944 134.784 
L 348.54042 169.344 
L 356.864895 157.824 
L 365.189371 192.384 
L 373.513846 146.304 
L 381.838322 180.864 
L 390.162797 226.944 
L 398.487273 238.464 
L 398.487273 215.424 
L 398.487273 215.424 
L 390.162797 192.384 
L 381.838322 169.344 
L 373.513846 123.264 
L 365.189371 157.824 
L 356.864895 123.264 
L 348.54042 134.784 
L 340.215944 111.744 
L 331.891469 111.744 
L 323.566993 100.224 
L 315.242517 77.184 
L 306.918042 54.144 
L 298.593566 77.184 
L 290.269091 77.184 
L 281.944615 65.664 
L 273.62014 65.664 
L 265.295664 65.664 
L 256.971189 65.664 
L 248.646713 65.664 
L 240.322238 65.664 
L 231.997762 65.664 
L 223.673287 77.184 
L 215.348811 65.664 
L 207.024336 54.144 
L 198.69986 77.184 
L 190.375385 65.664 
L 182.050909 77.184 
L 173.726434 77.184 
L 165.401958 111.744 
L 157.077483 77.184 
L 148.753007 65.664 
L 140.428531 65.664 
L 132.104056 77.184 
L 123.77958 111.744 
L 115.455105 88.704 
L 107.130629 65.664 
L 98.806154 88.704 
L 90.481678 88.704 
L 82.157203 65.664 
L 73.832727 77.184 
z
" clip-path="url(#p1e73092bb3)" style="fill: #9467bd"/>
   </g>
   <g id="PolyCollection_16">
    <path d="M 73.832727 77.184 
L 73.832727 77.184 
L 82.157203 65.664 
L 90.481678 88.704 
L 98.806154 88.704 
L 107.130629 65.664 
L 115.455105 88.704 
L 123.77958 111.744 
L 132.104056 77.184 
L 140.428531 65.664 
L 148.753007 65.664 
L 157.077483 77.184 
L 165.401958 111.744 
L 173.726434 77.184 
L 182.050909 77.184 
L 190.375385 65.664 
L 198.69986 77.184 
L 207.024336 54.144 
L 215.348811 65.664 
L 223.673287 77.184 
L 231.997762 65.664 
L 240.322238 65.664 
L 248.646713 65.664 
L 256.971189 65.664 
L 265.295664 65.664 
L 273.62014 65.664 
L 281.944615 65.664 
L 290.269091 77.184 
L 298.593566 77.184 
L 306.918042 54.144 
L 315.242517 77.184 
L 323.566993 100.224 
L 331.891469 111.744 
L 340.215944 111.744 
L 348.54042 134.784 
L 356.864895 123.264 
L 365.189371 157.824 
L 373.513846 123.264 
L 381.838322 169.344 
L 390.162797 192.384 
L 398.487273 215.424 
L 398.487273 203.904 
L 398.487273 203.904 
L 390.162797 180.864 
L 381.838322 146.304 
L 373.513846 111.744 
L 365.189371 134.784 
L 356.864895 100.224 
L 348.54042 123.264 
L 340.215944 77.184 
L 331.891469 88.704 
L 323.566993 88.704 
L 315.242517 77.184 
L 306.918042 54.144 
L 298.593566 77.184 
L 290.269091 77.184 
L 281.944615 65.664 
L 273.62014 65.664 
L 265.295664 65.664 
L 256.971189 65.664 
L 248.646713 65.664 
L 240.322238 65.664 
L 231.997762 65.664 
L 223.673287 77.184 
L 215.348811 65.664 
L 207.024336 54.144 
L 198.69986 77.184 
L 190.375385 65.664 
L 182.050909 77.184 
L 173.726434 77.184 
L 165.401958 111.744 
L 157.077483 77.184 
L 148.753007 65.664 
L 140.428531 65.664 
L 132.104056 77.184 
L 123.77958 111.744 
L 115.455105 88.704 
L 107.130629 65.664 
L 98.806154 88.704 
L 90.481678 88.704 
L 82.157203 65.664 
L 73.832727 77.184 
z
" clip-path="url(#p1e73092bb3)" style="fill: #8c564b"/>
   </g>
   <g id="PolyCollection_17">
    <path d="M 73.832727 77.184 
L 73.832727 77.184 
L 82.157203 65.664 
L 90.481678 88.704 
L 98.806154 88.704 
L 107.130629 65.664 
L 115.455105 88.704 
L 123.77958 111.744 
L 132.104056 77.184 
L 140.428531 65.664 
L 148.753007 65.664 
L 157.077483 77.184 
L 165.401958 111.744 
L 173.726434 77.184 
L 182.050909 77.184 
L 190.375385 65.664 
L 198.69986 77.184 
L 207.024336 54.144 
L 215.348811 65.664 
L 223.673287 77.184 
L 231.997762 65.664 
L 240.322238 65.664 
L 248.646713 65.664 
L 256.971189 65.664 
L 265.295664 65.664 
L 273.62014 65.664 
L 281.944615 65.664 
L 290.269091 77.184 
L 298.593566 77.184 
L 306.918042 54.144 
L 315.242517 77.184 
L 323.566993 88.704 
L 331.891469 88.704 
L 340.215944 77.184 
L 348.54042 123.264 
L 356.864895 100.224 
L 365.189371 134.784 
L 373.513846 111.744 
L 381.838322 146.304 
L 390.162797 180.864 
L 398.487273 203.904 
L 398.487273 169.344 
L 398.487273 169.344 
L 390.162797 157.824 
L 381.838322 111.744 
L 373.513846 100.224 
L 365.189371 88.704 
L 356.864895 77.184 
L 348.54042 100.224 
L 340.215944 54.144 
L 331.891469 77.184 
L 323.566993 88.704 
L 315.242517 77.184 
L 306.918042 54.144 
L 298.593566 77.184 
L 290.269091 77.184 
L 281.944615 65.664 
L 273.62014 65.664 
L 265.295664 65.664 
L 256.971189 65.664 
L 248.646713 65.664 
L 240.322238 65.664 
L 231.997762 65.664 
L 223.673287 77.184 
L 215.348811 65.664 
L 207.024336 54.144 
L 198.69986 77.184 
L 190.375385 65.664 
L 182.050909 77.184 
L 173.726434 77.184 
L 165.401958 111.744 
L 157.077483 77.184 
L 148.753007 65.664 
L 140.428531 65.664 
L 132.104056 77.184 
L 123.77958 111.744 
L 115.455105 88.704 
L 107.130629 65.664 
L 98.806154 88.704 
L 90.481678 88.704 
L 82.157203 65.664 
L 73.832727 77.184 
z
" clip-path="url(#p1e73092bb3)" style="fill: #e377c2"/>
   </g>
   <g id="PolyCollection_18">
    <path d="M 73.832727 77.184 
L 73.832727 77.184 
L 82.157203 65.664 
L 90.481678 88.704 
L 98.806154 88.704 
L 107.130629 65.664 
L 115.455105 88.704 
L 123.77958 111.744 
L 132.104056 77.184 
L 140.428531 65.664 
L 148.753007 65.664 
L 157.077483 77.184 
L 165.401958 111.744 
L 173.726434 77.184 
L 182.050909 77.184 
L 190.375385 65.664 
L 198.69986 77.184 
L 207.024336 54.144 
L 215.348811 65.664 
L 223.673287 77.184 
L 231.997762 65.664 
L 240.322238 65.664 
L 248.646713 65.664 
L 256.971189 65.664 
L 265.295664 65.664 
L 273.62014 65.664 
L 281.944615 65.664 
L 290.269091 77.184 
L 298.593566 77.184 
L 306.918042 54.144 
L 315.242517 77.184 
L 323.566993 88.704 
L 331.891469 77.184 
L 340.215944 54.144 
L 348.54042 100.224 
L 356.864895 77.184 
L 365.189371 88.704 
L 373.513846 100.224 
L 381.838322 111.744 
L 390.162797 157.824 
L 398.487273 169.344 
L 398.487273 146.304 
L 398.487273 146.304 
L 390.162797 123.264 
L 381.838322 88.704 
L 373.513846 77.184 
L 365.189371 88.704 
L 356.864895 77.184 
L 348.54042 100.224 
L 340.215944 54.144 
L 331.891469 77.184 
L 323.566993 88.704 
L 315.242517 77.184 
L 306.918042 54.144 
L 298.593566 77.184 
L 290.269091 77.184 
L 281.944615 65.664 
L 273.62014 65.664 
L 265.295664 65.664 
L 256.971189 65.664 
L 248.646713 65.664 
L 240.322238 65.664 
L 231.997762 65.664 
L 223.673287 77.184 
L 215.348811 65.664 
L 207.024336 54.144 
L 198.69986 77.184 
L 190.375385 65.664 
L 182.050909 77.184 
L 173.726434 77.184 
L 165.401958 111.744 
L 157.077483 77.184 
L 148.753007 65.664 
L 140.428531 65.664 
L 132.104056 77.184 
L 123.77958 111.744 
L 115.455105 88.704 
L 107.130629 65.664 
L 98.806154 88.704 
L 90.481678 88.704 
L 82.157203 65.664 
L 73.832727 77.184 
z
" clip-path="url(#p1e73092bb3)" style="fill: #7f7f7f"/>
   </g>
   <g id="PolyCollection_19">
    <path d="M 73.832727 77.184 
L 73.832727 77.184 
L 82.157203 65.664 
L 90.481678 88.704 
L 98.806154 88.704 
L 107.130629 65.664 
L 115.455105 88.704 
L 123.77958 111.744 
L 132.104056 77.184 
L 140.428531 65.664 
L 148.753007 65.664 
L 157.077483 77.184 
L 165.401958 111.744 
L 173.726434 77.184 
L 182.050909 77.184 
L 190.375385 65.664 
L 198.69986 77.184 
L 207.024336 54.144 
L 215.348811 65.664 
L 223.673287 77.184 
L 231.997762 65.664 
L 240.322238 65.664 
L 248.646713 65.664 
L 256.971189 65.664 
L 265.295664 65.664 
L 273.62014 65.664 
L 281.944615 65.664 
L 290.269091 77.184 
L 298.593566 77.184 
L 306.918042 54.144 
L 315.242517 77.184 
L 323.566993 88.704 
L 331.891469 77.184 
L 340.215944 54.144 
L 348.54042 100.224 
L 356.864895 77.184 
L 365.189371 88.704 
L 373.513846 77.184 
L 381.838322 88.704 
L 390.162797 123.264 
L 398.487273 146.304 
L 398.487273 123.264 
L 398.487273 123.264 
L 390.162797 111.744 
L 381.838322 65.664 
L 373.513846 77.184 
L 365.189371 88.704 
L 356.864895 77.184 
L 348.54042 100.224 
L 340.215944 54.144 
L 331.891469 77.184 
L 323.566993 88.704 
L 315.242517 77.184 
L 306.918042 54.144 
L 298.593566 77.184 
L 290.269091 77.184 
L 281.944615 65.664 
L 273.62014 65.664 
L 265.295664 65.664 
L 256.971189 65.664 
L 248.646713 65.664 
L 240.322238 65.664 
L 231.997762 65.664 
L 223.673287 77.184 
L 215.348811 65.664 
L 207.024336 54.144 
L 198.69986 77.184 
L 190.375385 65.664 
L 182.050909 77.184 
L 173.726434 77.184 
L 165.401958 111.744 
L 157.077483 77.184 
L 148.753007 65.664 
L 140.428531 65.664 
L 132.104056 77.184 
L 123.77958 111.744 
L 115.455105 88.704 
L 107.130629 65.664 
L 98.806154 88.704 
L 90.481678 88.704 
L 82.157203 65.664 
L 73.832727 77.184 
z
" clip-path="url(#p1e73092bb3)" style="fill: #bcbd22"/>
   </g>
   <g id="PolyCollection_20">
    <path d="M 73.832727 77.184 
L 73.832727 77.184 
L 82.157203 65.664 
L 90.481678 88.704 
L 98.806154 88.704 
L 107.130629 65.664 
L 115.455105 88.704 
L 123.77958 111.744 
L 132.104056 77.184 
L 140.428531 65.664 
L 148.753007 65.664 
L 157.077483 77.184 
L 165.401958 111.744 
L 173.726434 77.184 
L 182.050909 77.184 
L 190.375385 65.664 
L 198.69986 77.184 
L 207.024336 54.144 
L 215.348811 65.664 
L 223.673287 77.184 
L 231.997762 65.664 
L 240.322238 65.664 
L 248.646713 65.664 
L 256.971189 65.664 
L 265.295664 65.664 
L 273.62014 65.664 
L 281.944615 65.664 
L 290.269091 77.184 
L 298.593566 77.184 
L 306.918042 54.144 
L 315.242517 77.184 
L 323.566993 88.704 
L 331.891469 77.184 
L 340.215944 54.144 
L 348.54042 100.224 
L 356.864895 77.184 
L 365.189371 88.704 
L 373.513846 77.184 
L 381.838322 65.664 
L 390.162797 111.744 
L 398.487273 123.264 
L 398.487273 88.704 
L 398.487273 88.704 
L 390.162797 88.704 
L 381.838322 65.664 
L 373.513846 77.184 
L 365.189371 88.704 
L 356.864895 77.184 
L 348.54042 100.224 
L 340.215944 54.144 
L 331.891469 77.184 
L 323.566993 88.704 
L 315.242517 77.184 
L 306.918042 54.144 
L 298.593566 77.184 
L 290.269091 77.184 
L 281.944615 65.664 
L 273.62014 65.664 
L 265.295664 65.664 
L 256.971189 65.664 
L 248.646713 65.664 
L 240.322238 65.664 
L 231.997762 65.664 
L 223.673287 77.184 
L 215.348811 65.664 
L 207.024336 54.144 
L 198.69986 77.184 
L 190.375385 65.664 
L 182.050909 77.184 
L 173.726434 77.184 
L 165.401958 111.744 
L 157.077483 77.184 
L 148.753007 65.664 
L 140.428531 65.664 
L 132.104056 77.184 
L 123.77958 111.744 
L 115.455105 88.704 
L 107.130629 65.664 
L 98.806154 88.704 
L 90.481678 88.704 
L 82.157203 65.664 
L 73.832727 77.184 
z
" clip-path="url(#p1e73092bb3)" style="fill: #17becf"/>
   </g>
   <g id="PolyCollection_21">
    <path d="M 73.832727 77.184 
L 73.832727 77.184 
L 82.157203 65.664 
L 90.481678 88.704 
L 98.806154 88.704 
L 107.130629 65.664 
L 115.455105 88.704 
L 123.77958 111.744 
L 132.104056 77.184 
L 140.428531 65.664 
L 148.753007 65.664 
L 157.077483 77.184 
L 165.401958 111.744 
L 173.726434 77.184 
L 182.050909 77.184 
L 190.375385 65.664 
L 198.69986 77.184 
L 207.024336 54.144 
L 215.348811 65.664 
L 223.673287 77.184 
L 231.997762 65.664 
L 240.322238 65.664 
L 248.646713 65.664 
L 256.971189 65.664 
L 265.295664 65.664 
L 273.62014 65.664 
L 281.944615 65.664 
L 290.269091 77.184 
L 298.593566 77.184 
L 306.918042 54.144 
L 315.242517 77.184 
L 323.566993 88.704 
L 331.891469 77.184 
L 340.215944 54.144 
L 348.54042 100.224 
L 356.864895 77.184 
L 365.189371 88.704 
L 373.513846 77.184 
L 381.838322 65.664 
L 390.162797 88.704 
L 398.487273 88.704 
L 398.487273 65.664 
L 398.487273 65.664 
L 390.162797 77.184 
L 381.838322 65.664 
L 373.513846 77.184 
L 365.189371 88.704 
L 356.864895 77.184 
L 348.54042 100.224 
L 340.215944 54.144 
L 331.891469 77.184 
L 323.566993 88.704 
L 315.242517 77.184 
L 306.918042 54.144 
L 298.593566 77.184 
L 290.269091 77.184 
L 281.944615 65.664 
L 273.62014 65.664 
L 265.295664 65.664 
L 256.971189 65.664 
L 248.646713 65.664 
L 240.322238 65.664 
L 231.997762 65.664 
L 223.673287 77.184 
L 215.348811 65.664 
L 207.024336 54.144 
L 198.69986 77.184 
L 190.375385 65.664 
L 182.050909 77.184 
L 173.726434 77.184 
L 165.401958 111.744 
L 157.077483 77.184 
L 148.753007 65.664 
L 140.428531 65.664 
L 132.104056 77.184 
L 123.77958 111.744 
L 115.455105 88.704 
L 107.130629 65.664 
L 98.806154 88.704 
L 90.481678 88.704 
L 82.157203 65.664 
L 73.832727 77.184 
z
" clip-path="url(#p1e73092bb3)" style="fill: #1f77b4"/>
   </g>
   <g id="matplotlib.axis_1">
    <g id="xtick_1">
     <g id="line2d_1">
      <defs>
       <path id="ma9905dd349" d="M 0 0 
L 0 3.5 
" style="stroke: #000000; stroke-width: 0.8"/>
      </defs>
      <g>
       <use xlink:href="#ma9905dd349" x="73.832727" y="307.584" style="stroke: #000000; stroke-width: 0.8"/>
      </g>
     </g>
     <g id="text_1">
      <!-- 0 -->
      <g transform="translate(70.651477 322.182437) scale(0.1 -0.1)">
       <defs>
        <path id="DejaVuSans-30" d="M 2034 4250 
Q 1547 4250 1301 3770 
Q 1056 3291 1056 2328 
Q 1056 1369 1301 889 
Q 1547 409 2034 409 
Q 2525 409 2770 889 
Q 3016 1369 3016 2328 
Q 3016 3291 2770 3770 
Q 2525 4250 2034 4250 
z
M 2034 4750 
Q 2819 4750 3233 4129 
Q 3647 3509 3647 2328 
Q 3647 1150 3233 529 
Q 2819 -91 2034 -91 
Q 1250 -91 836 529 
Q 422 1150 422 2328 
Q 422 3509 836 4129 
Q 1250 4750 2034 4750 
z
" transform="scale(0.015625)"/>
       </defs>
       <use xlink:href="#DejaVuSans-30"/>
      </g>
     </g>
    </g>
    <g id="xtick_2">
     <g id="line2d_2">
      <g>
       <use xlink:href="#ma9905dd349" x="115.455105" y="307.584" style="stroke: #000000; stroke-width: 0.8"/>
      </g>
     </g>
     <g id="text_2">
      <!-- 5 -->
      <g transform="translate(112.273855 322.182437) scale(0.1 -0.1)">
       <defs>
        <path id="DejaVuSans-35" d="M 691 4666 
L 3169 4666 
L 3169 4134 
L 1269 4134 
L 1269 2991 
Q 1406 3038 1543 3061 
Q 1681 3084 1819 3084 
Q 2600 3084 3056 2656 
Q 3513 2228 3513 1497 
Q 3513 744 3044 326 
Q 2575 -91 1722 -91 
Q 1428 -91 1123 -41 
Q 819 9 494 109 
L 494 744 
Q 775 591 1075 516 
Q 1375 441 1709 441 
Q 2250 441 2565 725 
Q 2881 1009 2881 1497 
Q 2881 1984 2565 2268 
Q 2250 2553 1709 2553 
Q 1456 2553 1204 2497 
Q 953 2441 691 2322 
L 691 4666 
z
" transform="scale(0.015625)"/>
       </defs>
       <use xlink:href="#DejaVuSans-35"/>
      </g>
     </g>
    </g>
    <g id="xtick_3">
     <g id="line2d_3">
      <g>
       <use xlink:href="#ma9905dd349" x="157.077483" y="307.584" style="stroke: #000000; stroke-width: 0.8"/>
      </g>
     </g>
     <g id="text_3">
      <!-- 10 -->
      <g transform="translate(150.714983 322.182437) scale(0.1 -0.1)">
       <defs>
        <path id="DejaVuSans-31" d="M 794 531 
L 1825 531 
L 1825 4091 
L 703 3866 
L 703 4441 
L 1819 4666 
L 2450 4666 
L 2450 531 
L 3481 531 
L 3481 0 
L 794 0 
L 794 531 
z
" transform="scale(0.015625)"/>
       </defs>
       <use xlink:href="#DejaVuSans-31"/>
       <use xlink:href="#DejaVuSans-30" x="63.623047"/>
      </g>
     </g>
    </g>
    <g id="xtick_4">
     <g id="line2d_4">
      <g>
       <use xlink:href="#ma9905dd349" x="198.69986" y="307.584" style="stroke: #000000; stroke-width: 0.8"/>
      </g>
     </g>
     <g id="text_4">
      <!-- 15 -->
      <g transform="translate(192.33736 322.182437) scale(0.1 -0.1)">
       <use xlink:href="#DejaVuSans-31"/>
       <use xlink:href="#DejaVuSans-35" x="63.623047"/>
      </g>
     </g>
    </g>
    <g id="xtick_5">
     <g id="line2d_5">
      <g>
       <use xlink:href="#ma9905dd349" x="240.322238" y="307.584" style="stroke: #000000; stroke-width: 0.8"/>
      </g>
     </g>
     <g id="text_5">
      <!-- 20 -->
      <g transform="translate(233.959738 322.182437) scale(0.1 -0.1)">
       <defs>
        <path id="DejaVuSans-32" d="M 1228 531 
L 3431 531 
L 3431 0 
L 469 0 
L 469 531 
Q 828 903 1448 1529 
Q 2069 2156 2228 2338 
Q 2531 2678 2651 2914 
Q 2772 3150 2772 3378 
Q 2772 3750 2511 3984 
Q 2250 4219 1831 4219 
Q 1534 4219 1204 4116 
Q 875 4013 500 3803 
L 500 4441 
Q 881 4594 1212 4672 
Q 1544 4750 1819 4750 
Q 2544 4750 2975 4387 
Q 3406 4025 3406 3419 
Q 3406 3131 3298 2873 
Q 3191 2616 2906 2266 
Q 2828 2175 2409 1742 
Q 1991 1309 1228 531 
z
" transform="scale(0.015625)"/>
       </defs>
       <use xlink:href="#DejaVuSans-32"/>
       <use xlink:href="#DejaVuSans-30" x="63.623047"/>
      </g>
     </g>
    </g>
    <g id="xtick_6">
     <g id="line2d_6">
      <g>
       <use xlink:href="#ma9905dd349" x="281.944615" y="307.584" style="stroke: #000000; stroke-width: 0.8"/>
      </g>
     </g>
     <g id="text_6">
      <!-- 25 -->
      <g transform="translate(275.582115 322.182437) scale(0.1 -0.1)">
       <use xlink:href="#DejaVuSans-32"/>
       <use xlink:href="#DejaVuSans-35" x="63.623047"/>
      </g>
     </g>
    </g>
    <g id="xtick_7">
     <g id="line2d_7">
      <g>
       <use xlink:href="#ma9905dd349" x="323.566993" y="307.584" style="stroke: #000000; stroke-width: 0.8"/>
      </g>
     </g>
     <g id="text_7">
      <!-- 30 -->
      <g transform="translate(317.204493 322.182437) scale(0.1 -0.1)">
       <defs>
        <path id="DejaVuSans-33" d="M 2597 2516 
Q 3050 2419 3304 2112 
Q 3559 1806 3559 1356 
Q 3559 666 3084 287 
Q 2609 -91 1734 -91 
Q 1441 -91 1130 -33 
Q 819 25 488 141 
L 488 750 
Q 750 597 1062 519 
Q 1375 441 1716 441 
Q 2309 441 2620 675 
Q 2931 909 2931 1356 
Q 2931 1769 2642 2001 
Q 2353 2234 1838 2234 
L 1294 2234 
L 1294 2753 
L 1863 2753 
Q 2328 2753 2575 2939 
Q 2822 3125 2822 3475 
Q 2822 3834 2567 4026 
Q 2313 4219 1838 4219 
Q 1578 4219 1281 4162 
Q 984 4106 628 3988 
L 628 4550 
Q 988 4650 1302 4700 
Q 1616 4750 1894 4750 
Q 2613 4750 3031 4423 
Q 3450 4097 3450 3541 
Q 3450 3153 3228 2886 
Q 3006 2619 2597 2516 
z
" transform="scale(0.015625)"/>
       </defs>
       <use xlink:href="#DejaVuSans-33"/>
       <use xlink:href="#DejaVuSans-30" x="63.623047"/>
      </g>
     </g>
    </g>
    <g id="xtick_8">
     <g id="line2d_8">
      <g>
       <use xlink:href="#ma9905dd349" x="365.189371" y="307.584" style="stroke: #000000; stroke-width: 0.8"/>
      </g>
     </g>
     <g id="text_8">
      <!-- 35 -->
      <g transform="translate(358.826871 322.182437) scale(0.1 -0.1)">
       <use xlink:href="#DejaVuSans-33"/>
       <use xlink:href="#DejaVuSans-35" x="63.623047"/>
      </g>
     </g>
    </g>
    <g id="xtick_9">
     <g id="line2d_9">
      <g>
       <use xlink:href="#ma9905dd349" x="406.811748" y="307.584" style="stroke: #000000; stroke-width: 0.8"/>
      </g>
     </g>
     <g id="text_9">
      <!-- 40 -->
      <g transform="translate(400.449248 322.182437) scale(0.1 -0.1)">
       <defs>
        <path id="DejaVuSans-34" d="M 2419 4116 
L 825 1625 
L 2419 1625 
L 2419 4116 
z
M 2253 4666 
L 3047 4666 
L 3047 1625 
L 3713 1625 
L 3713 1100 
L 3047 1100 
L 3047 0 
L 2419 0 
L 2419 1100 
L 313 1100 
L 313 1709 
L 2253 4666 
z
" transform="scale(0.015625)"/>
       </defs>
       <use xlink:href="#DejaVuSans-34"/>
       <use xlink:href="#DejaVuSans-30" x="63.623047"/>
      </g>
     </g>
    </g>
    <g id="text_10">
     <!-- Generations -->
     <g transform="translate(205.662344 335.860562) scale(0.1 -0.1)">
      <defs>
       <path id="DejaVuSans-47" d="M 3809 666 
L 3809 1919 
L 2778 1919 
L 2778 2438 
L 4434 2438 
L 4434 434 
Q 4069 175 3628 42 
Q 3188 -91 2688 -91 
Q 1594 -91 976 548 
Q 359 1188 359 2328 
Q 359 3472 976 4111 
Q 1594 4750 2688 4750 
Q 3144 4750 3555 4637 
Q 3966 4525 4313 4306 
L 4313 3634 
Q 3963 3931 3569 4081 
Q 3175 4231 2741 4231 
Q 1884 4231 1454 3753 
Q 1025 3275 1025 2328 
Q 1025 1384 1454 906 
Q 1884 428 2741 428 
Q 3075 428 3337 486 
Q 3600 544 3809 666 
z
" transform="scale(0.015625)"/>
       <path id="DejaVuSans-65" d="M 3597 1894 
L 3597 1613 
L 953 1613 
Q 991 1019 1311 708 
Q 1631 397 2203 397 
Q 2534 397 2845 478 
Q 3156 559 3463 722 
L 3463 178 
Q 3153 47 2828 -22 
Q 2503 -91 2169 -91 
Q 1331 -91 842 396 
Q 353 884 353 1716 
Q 353 2575 817 3079 
Q 1281 3584 2069 3584 
Q 2775 3584 3186 3129 
Q 3597 2675 3597 1894 
z
M 3022 2063 
Q 3016 2534 2758 2815 
Q 2500 3097 2075 3097 
Q 1594 3097 1305 2825 
Q 1016 2553 972 2059 
L 3022 2063 
z
" transform="scale(0.015625)"/>
       <path id="DejaVuSans-6e" d="M 3513 2113 
L 3513 0 
L 2938 0 
L 2938 2094 
Q 2938 2591 2744 2837 
Q 2550 3084 2163 3084 
Q 1697 3084 1428 2787 
Q 1159 2491 1159 1978 
L 1159 0 
L 581 0 
L 581 3500 
L 1159 3500 
L 1159 2956 
Q 1366 3272 1645 3428 
Q 1925 3584 2291 3584 
Q 2894 3584 3203 3211 
Q 3513 2838 3513 2113 
z
" transform="scale(0.015625)"/>
       <path id="DejaVuSans-72" d="M 2631 2963 
Q 2534 3019 2420 3045 
Q 2306 3072 2169 3072 
Q 1681 3072 1420 2755 
Q 1159 2438 1159 1844 
L 1159 0 
L 581 0 
L 581 3500 
L 1159 3500 
L 1159 2956 
Q 1341 3275 1631 3429 
Q 1922 3584 2338 3584 
Q 2397 3584 2469 3576 
Q 2541 3569 2628 3553 
L 2631 2963 
z
" transform="scale(0.015625)"/>
       <path id="DejaVuSans-61" d="M 2194 1759 
Q 1497 1759 1228 1600 
Q 959 1441 959 1056 
Q 959 750 1161 570 
Q 1363 391 1709 391 
Q 2188 391 2477 730 
Q 2766 1069 2766 1631 
L 2766 1759 
L 2194 1759 
z
M 3341 1997 
L 3341 0 
L 2766 0 
L 2766 531 
Q 2569 213 2275 61 
Q 1981 -91 1556 -91 
Q 1019 -91 701 211 
Q 384 513 384 1019 
Q 384 1609 779 1909 
Q 1175 2209 1959 2209 
L 2766 2209 
L 2766 2266 
Q 2766 2663 2505 2880 
Q 2244 3097 1772 3097 
Q 1472 3097 1187 3025 
Q 903 2953 641 2809 
L 641 3341 
Q 956 3463 1253 3523 
Q 1550 3584 1831 3584 
Q 2591 3584 2966 3190 
Q 3341 2797 3341 1997 
z
" transform="scale(0.015625)"/>
       <path id="DejaVuSans-74" d="M 1172 4494 
L 1172 3500 
L 2356 3500 
L 2356 3053 
L 1172 3053 
L 1172 1153 
Q 1172 725 1289 603 
Q 1406 481 1766 481 
L 2356 481 
L 2356 0 
L 1766 0 
Q 1100 0 847 248 
Q 594 497 594 1153 
L 594 3053 
L 172 3053 
L 172 3500 
L 594 3500 
L 594 4494 
L 1172 4494 
z
" transform="scale(0.015625)"/>
       <path id="DejaVuSans-69" d="M 603 3500 
L 1178 3500 
L 1178 0 
L 603 0 
L 603 3500 
z
M 603 4863 
L 1178 4863 
L 1178 4134 
L 603 4134 
L 603 4863 
z
" transform="scale(0.015625)"/>
       <path id="DejaVuSans-6f" d="M 1959 3097 
Q 1497 3097 1228 2736 
Q 959 2375 959 1747 
Q 959 1119 1226 758 
Q 1494 397 1959 397 
Q 2419 397 2687 759 
Q 2956 1122 2956 1747 
Q 2956 2369 2687 2733 
Q 2419 3097 1959 3097 
z
M 1959 3584 
Q 2709 3584 3137 3096 
Q 3566 2609 3566 1747 
Q 3566 888 3137 398 
Q 2709 -91 1959 -91 
Q 1206 -91 779 398 
Q 353 888 353 1747 
Q 353 2609 779 3096 
Q 1206 3584 1959 3584 
z
" transform="scale(0.015625)"/>
       <path id="DejaVuSans-73" d="M 2834 3397 
L 2834 2853 
Q 2591 2978 2328 3040 
Q 2066 3103 1784 3103 
Q 1356 3103 1142 2972 
Q 928 2841 928 2578 
Q 928 2378 1081 2264 
Q 1234 2150 1697 2047 
L 1894 2003 
Q 2506 1872 2764 1633 
Q 3022 1394 3022 966 
Q 3022 478 2636 193 
Q 2250 -91 1575 -91 
Q 1294 -91 989 -36 
Q 684 19 347 128 
L 347 722 
Q 666 556 975 473 
Q 1284 391 1588 391 
Q 1994 391 2212 530 
Q 2431 669 2431 922 
Q 2431 1156 2273 1281 
Q 2116 1406 1581 1522 
L 1381 1569 
Q 847 1681 609 1914 
Q 372 2147 372 2553 
Q 372 3047 722 3315 
Q 1072 3584 1716 3584 
Q 2034 3584 2315 3537 
Q 2597 3491 2834 3397 
z
" transform="scale(0.015625)"/>
      </defs>
      <use xlink:href="#DejaVuSans-47"/>
      <use xlink:href="#DejaVuSans-65" x="77.490234"/>
      <use xlink:href="#DejaVuSans-6e" x="139.013672"/>
      <use xlink:href="#DejaVuSans-65" x="202.392578"/>
      <use xlink:href="#DejaVuSans-72" x="263.916016"/>
      <use xlink:href="#DejaVuSans-61" x="305.029297"/>
      <use xlink:href="#DejaVuSans-74" x="366.308594"/>
      <use xlink:href="#DejaVuSans-69" x="405.517578"/>
      <use xlink:href="#DejaVuSans-6f" x="433.300781"/>
      <use xlink:href="#DejaVuSans-6e" x="494.482422"/>
      <use xlink:href="#DejaVuSans-73" x="557.861328"/>
     </g>
    </g>
   </g>
   <g id="matplotlib.axis_2">
    <g id="ytick_1">
     <g id="line2d_10">
      <defs>
       <path id="mb82d8a1296" d="M 0 0 
L -3.5 0 
" style="stroke: #000000; stroke-width: 0.8"/>
      </defs>
      <g>
       <use xlink:href="#mb82d8a1296" x="57.6" y="307.584" style="stroke: #000000; stroke-width: 0.8"/>
      </g>
     </g>
     <g id="text_11">
      <!-- 0 -->
      <g transform="translate(44.2375 311.383219) scale(0.1 -0.1)">
       <use xlink:href="#DejaVuSans-30"/>
      </g>
     </g>
    </g>
    <g id="ytick_2">
     <g id="line2d_11">
      <g>
       <use xlink:href="#mb82d8a1296" x="57.6" y="249.984" style="stroke: #000000; stroke-width: 0.8"/>
      </g>
     </g>
     <g id="text_12">
      <!-- 5 -->
      <g transform="translate(44.2375 253.783219) scale(0.1 -0.1)">
       <use xlink:href="#DejaVuSans-35"/>
      </g>
     </g>
    </g>
    <g id="ytick_3">
     <g id="line2d_12">
      <g>
       <use xlink:href="#mb82d8a1296" x="57.6" y="192.384" style="stroke: #000000; stroke-width: 0.8"/>
      </g>
     </g>
     <g id="text_13">
      <!-- 10 -->
      <g transform="translate(37.875 196.183219) scale(0.1 -0.1)">
       <use xlink:href="#DejaVuSans-31"/>
       <use xlink:href="#DejaVuSans-30" x="63.623047"/>
      </g>
     </g>
    </g>
    <g id="ytick_4">
     <g id="line2d_13">
      <g>
       <use xlink:href="#mb82d8a1296" x="57.6" y="134.784" style="stroke: #000000; stroke-width: 0.8"/>
      </g>
     </g>
     <g id="text_14">
      <!-- 15 -->
      <g transform="translate(37.875 138.583219) scale(0.1 -0.1)">
       <use xlink:href="#DejaVuSans-31"/>
       <use xlink:href="#DejaVuSans-35" x="63.623047"/>
      </g>
     </g>
    </g>
    <g id="ytick_5">
     <g id="line2d_14">
      <g>
       <use xlink:href="#mb82d8a1296" x="57.6" y="77.184" style="stroke: #000000; stroke-width: 0.8"/>
      </g>
     </g>
     <g id="text_15">
      <!-- 20 -->
      <g transform="translate(37.875 80.983219) scale(0.1 -0.1)">
       <use xlink:href="#DejaVuSans-32"/>
       <use xlink:href="#DejaVuSans-30" x="63.623047"/>
      </g>
     </g>
    </g>
    <g id="text_16">
     <!-- Size per Species -->
     <g transform="translate(31.795312 215.520969) rotate(-90) scale(0.1 -0.1)">
      <defs>
       <path id="DejaVuSans-53" d="M 3425 4513 
L 3425 3897 
Q 3066 4069 2747 4153 
Q 2428 4238 2131 4238 
Q 1616 4238 1336 4038 
Q 1056 3838 1056 3469 
Q 1056 3159 1242 3001 
Q 1428 2844 1947 2747 
L 2328 2669 
Q 3034 2534 3370 2195 
Q 3706 1856 3706 1288 
Q 3706 609 3251 259 
Q 2797 -91 1919 -91 
Q 1588 -91 1214 -16 
Q 841 59 441 206 
L 441 856 
Q 825 641 1194 531 
Q 1563 422 1919 422 
Q 2459 422 2753 634 
Q 3047 847 3047 1241 
Q 3047 1584 2836 1778 
Q 2625 1972 2144 2069 
L 1759 2144 
Q 1053 2284 737 2584 
Q 422 2884 422 3419 
Q 422 4038 858 4394 
Q 1294 4750 2059 4750 
Q 2388 4750 2728 4690 
Q 3069 4631 3425 4513 
z
" transform="scale(0.015625)"/>
       <path id="DejaVuSans-7a" d="M 353 3500 
L 3084 3500 
L 3084 2975 
L 922 459 
L 3084 459 
L 3084 0 
L 275 0 
L 275 525 
L 2438 3041 
L 353 3041 
L 353 3500 
z
" transform="scale(0.015625)"/>
       <path id="DejaVuSans-20" transform="scale(0.015625)"/>
       <path id="DejaVuSans-70" d="M 1159 525 
L 1159 -1331 
L 581 -1331 
L 581 3500 
L 1159 3500 
L 1159 2969 
Q 1341 3281 1617 3432 
Q 1894 3584 2278 3584 
Q 2916 3584 3314 3078 
Q 3713 2572 3713 1747 
Q 3713 922 3314 415 
Q 2916 -91 2278 -91 
Q 1894 -91 1617 61 
Q 1341 213 1159 525 
z
M 3116 1747 
Q 3116 2381 2855 2742 
Q 2594 3103 2138 3103 
Q 1681 3103 1420 2742 
Q 1159 2381 1159 1747 
Q 1159 1113 1420 752 
Q 1681 391 2138 391 
Q 2594 391 2855 752 
Q 3116 1113 3116 1747 
z
" transform="scale(0.015625)"/>
       <path id="DejaVuSans-63" d="M 3122 3366 
L 3122 2828 
Q 2878 2963 2633 3030 
Q 2388 3097 2138 3097 
Q 1578 3097 1268 2742 
Q 959 2388 959 1747 
Q 959 1106 1268 751 
Q 1578 397 2138 397 
Q 2388 397 2633 464 
Q 2878 531 3122 666 
L 3122 134 
Q 2881 22 2623 -34 
Q 2366 -91 2075 -91 
Q 1284 -91 818 406 
Q 353 903 353 1747 
Q 353 2603 823 3093 
Q 1294 3584 2113 3584 
Q 2378 3584 2631 3529 
Q 2884 3475 3122 3366 
z
" transform="scale(0.015625)"/>
      </defs>
      <use xlink:href="#DejaVuSans-53"/>
      <use xlink:href="#DejaVuSans-69" x="63.476562"/>
      <use xlink:href="#DejaVuSans-7a" x="91.259766"/>
      <use xlink:href="#DejaVuSans-65" x="143.75"/>
      <use xlink:href="#DejaVuSans-20" x="205.273438"/>
      <use xlink:href="#DejaVuSans-70" x="237.060547"/>
      <use xlink:href="#DejaVuSans-65" x="300.537109"/>
      <use xlink:href="#DejaVuSans-72" x="362.060547"/>
      <use xlink:href="#DejaVuSans-20" x="403.173828"/>
      <use xlink:href="#DejaVuSans-53" x="434.960938"/>
      <use xlink:href="#DejaVuSans-70" x="498.4375"/>
      <use xlink:href="#DejaVuSans-65" x="561.914062"/>
      <use xlink:href="#DejaVuSans-63" x="623.4375"/>
      <use xlink:href="#DejaVuSans-69" x="678.417969"/>
      <use xlink:href="#DejaVuSans-65" x="706.201172"/>
      <use xlink:href="#DejaVuSans-73" x="767.724609"/>
     </g>
    </g>
   </g>
   <g id="patch_3">
    <path d="M 57.6 307.584 
L 57.6 41.472 
" style="fill: none; stroke: #000000; stroke-width: 0.8; stroke-linejoin: miter; stroke-linecap: square"/>
   </g>
   <g id="patch_4">
    <path d="M 414.72 307.584 
L 414.72 41.472 
" style="fill: none; stroke: #000000; stroke-width: 0.8; stroke-linejoin: miter; stroke-linecap: square"/>
   </g>
   <g id="patch_5">
    <path d="M 57.6 307.584 
L 414.72 307.584 
" style="fill: none; stroke: #000000; stroke-width: 0.8; stroke-linejoin: miter; stroke-linecap: square"/>
   </g>
   <g id="patch_6">
    <path d="M 57.6 41.472 
L 414.72 41.472 
" style="fill: none; stroke: #000000; stroke-width: 0.8; stroke-linejoin: miter; stroke-linecap: square"/>
   </g>
   <g id="text_17">
    <!-- Speciation -->
    <g transform="translate(204.714375 35.472) scale(0.12 -0.12)">
     <use xlink:href="#DejaVuSans-53"/>
     <use xlink:href="#DejaVuSans-70" x="63.476562"/>
     <use xlink:href="#DejaVuSans-65" x="126.953125"/>
     <use xlink:href="#DejaVuSans-63" x="188.476562"/>
     <use xlink:href="#DejaVuSans-69" x="243.457031"/>
     <use xlink:href="#DejaVuSans-61" x="271.240234"/>
     <use xlink:href="#DejaVuSans-74" x="332.519531"/>
     <use xlink:href="#DejaVuSans-69" x="371.728516"/>
     <use xlink:href="#DejaVuSans-6f" x="399.511719"/>
     <use xlink:href="#DejaVuSans-6e" x="460.693359"/>
    </g>
   </g>
  </g>
 </g>
 <defs>
  <clipPath id="p1e73092bb3">
   <rect x="57.6" y="41.472" width="357.12" height="266.112"/>
  </clipPath>
 </defs>
</svg>
