<?xml version="1.0" encoding="UTF-8" standalone="no"?>
<!DOCTYPE svg PUBLIC "-//W3C//DTD SVG 1.1//EN"
 "http://www.w3.org/Graphics/SVG/1.1/DTD/svg11.dtd">
<!-- Generated by graphviz version 2.43.0 (0)
 -->
<!-- Title: %3 Pages: 1 -->
<svg width="1936pt" height="95pt"
 viewBox="0.00 0.00 1936.00 94.53" xmlns="http://www.w3.org/2000/svg" xmlns:xlink="http://www.w3.org/1999/xlink">
<g id="graph0" class="graph" transform="scale(1 1) rotate(0) translate(4 90.53)">
<title>%3</title>
<polygon fill="white" stroke="transparent" points="-4,4 -4,-90.53 1932,-90.53 1932,4 -4,4"/>
<!-- &#45;1 -->
<g id="node1" class="node">
<title>&#45;1</title>
<polygon fill="lightgray" stroke="black" points="26,-86.53 0,-86.53 0,-68.53 26,-68.53 26,-86.53"/>
<text text-anchor="middle" x="13" y="-75.33" font-family="Times,serif" font-size="9.00">&#45;1</text>
</g>
<!-- &#45;2 -->
<g id="node2" class="node">
<title>&#45;2</title>
<polygon fill="lightgray" stroke="black" points="70,-86.53 44,-86.53 44,-68.53 70,-68.53 70,-86.53"/>
<text text-anchor="middle" x="57" y="-75.33" font-family="Times,serif" font-size="9.00">&#45;2</text>
</g>
<!-- &#45;3 -->
<g id="node3" class="node">
<title>&#45;3</title>
<polygon fill="lightgray" stroke="black" points="114,-86.53 88,-86.53 88,-68.53 114,-68.53 114,-86.53"/>
<text text-anchor="middle" x="101" y="-75.33" font-family="Times,serif" font-size="9.00">&#45;3</text>
</g>
<!-- &#45;4 -->
<g id="node4" class="node">
<title>&#45;4</title>
<polygon fill="lightgray" stroke="black" points="158,-86.53 132,-86.53 132,-68.53 158,-68.53 158,-86.53"/>
<text text-anchor="middle" x="145" y="-75.33" font-family="Times,serif" font-size="9.00">&#45;4</text>
</g>
<!-- &#45;5 -->
<g id="node5" class="node">
<title>&#45;5</title>
<polygon fill="lightgray" stroke="black" points="202,-86.53 176,-86.53 176,-68.53 202,-68.53 202,-86.53"/>
<text text-anchor="middle" x="189" y="-75.33" font-family="Times,serif" font-size="9.00">&#45;5</text>
</g>
<!-- &#45;6 -->
<g id="node6" class="node">
<title>&#45;6</title>
<polygon fill="lightgray" stroke="black" points="246,-86.53 220,-86.53 220,-68.53 246,-68.53 246,-86.53"/>
<text text-anchor="middle" x="233" y="-75.33" font-family="Times,serif" font-size="9.00">&#45;6</text>
</g>
<!-- &#45;7 -->
<g id="node7" class="node">
<title>&#45;7</title>
<polygon fill="lightgray" stroke="black" points="290,-86.53 264,-86.53 264,-68.53 290,-68.53 290,-86.53"/>
<text text-anchor="middle" x="277" y="-75.33" font-family="Times,serif" font-size="9.00">&#45;7</text>
</g>
<!-- &#45;8 -->
<g id="node8" class="node">
<title>&#45;8</title>
<polygon fill="lightgray" stroke="black" points="334,-86.53 308,-86.53 308,-68.53 334,-68.53 334,-86.53"/>
<text text-anchor="middle" x="321" y="-75.33" font-family="Times,serif" font-size="9.00">&#45;8</text>
</g>
<!-- &#45;9 -->
<g id="node9" class="node">
<title>&#45;9</title>
<polygon fill="lightgray" stroke="black" points="378,-86.53 352,-86.53 352,-68.53 378,-68.53 378,-86.53"/>
<text text-anchor="middle" x="365" y="-75.33" font-family="Times,serif" font-size="9.00">&#45;9</text>
</g>
<!-- 0 -->
<g id="node41" class="node">
<title>0</title>
<ellipse fill="lightblue" stroke="black" cx="389" cy="-16.26" rx="16.03" ry="16.03"/>
<text text-anchor="middle" x="389" y="-14.06" font-family="Times,serif" font-size="9.00">0</text>
</g>
<!-- &#45;9&#45;&gt;0 -->
<g id="edge11" class="edge">
<title>&#45;9&#45;&gt;0</title>
<path fill="none" stroke="red" stroke-width="0.33" d="M368.34,-68.29C371.17,-61.3 375.37,-50.91 379.25,-41.33"/>
<polygon fill="red" stroke="red" stroke-width="0.33" points="382.6,-42.4 383.11,-31.82 376.11,-39.77 382.6,-42.4"/>
</g>
<!-- &#45;10 -->
<g id="node10" class="node">
<title>&#45;10</title>
<polygon fill="lightgray" stroke="black" points="478,-86.53 446,-86.53 446,-68.53 478,-68.53 478,-86.53"/>
<text text-anchor="middle" x="462" y="-75.33" font-family="Times,serif" font-size="9.00">&#45;10</text>
</g>
<!-- &#45;11 -->
<g id="node11" class="node">
<title>&#45;11</title>
<polygon fill="lightgray" stroke="black" points="578,-86.53 546,-86.53 546,-68.53 578,-68.53 578,-86.53"/>
<text text-anchor="middle" x="562" y="-75.33" font-family="Times,serif" font-size="9.00">&#45;11</text>
</g>
<!-- 3 -->
<g id="node44" class="node">
<title>3</title>
<ellipse fill="lightblue" stroke="black" cx="577" cy="-16.26" rx="16.03" ry="16.03"/>
<text text-anchor="middle" x="577" y="-14.06" font-family="Times,serif" font-size="9.00">3</text>
</g>
<!-- &#45;11&#45;&gt;3 -->
<g id="edge8" class="edge">
<title>&#45;11&#45;&gt;3</title>
<path fill="none" stroke="red" stroke-width="1.97" d="M564.09,-68.29C565.81,-61.47 568.36,-51.41 570.73,-42.02"/>
<polygon fill="red" stroke="red" stroke-width="1.97" points="574.14,-42.84 573.2,-32.29 567.35,-41.12 574.14,-42.84"/>
</g>
<!-- &#45;12 -->
<g id="node12" class="node">
<title>&#45;12</title>
<polygon fill="lightgray" stroke="black" points="878,-86.53 846,-86.53 846,-68.53 878,-68.53 878,-86.53"/>
<text text-anchor="middle" x="862" y="-75.33" font-family="Times,serif" font-size="9.00">&#45;12</text>
</g>
<!-- &#45;13 -->
<g id="node13" class="node">
<title>&#45;13</title>
<polygon fill="lightgray" stroke="black" points="928,-86.53 896,-86.53 896,-68.53 928,-68.53 928,-86.53"/>
<text text-anchor="middle" x="912" y="-75.33" font-family="Times,serif" font-size="9.00">&#45;13</text>
</g>
<!-- &#45;14 -->
<g id="node14" class="node">
<title>&#45;14</title>
<polygon fill="lightgray" stroke="black" points="978,-86.53 946,-86.53 946,-68.53 978,-68.53 978,-86.53"/>
<text text-anchor="middle" x="962" y="-75.33" font-family="Times,serif" font-size="9.00">&#45;14</text>
</g>
<!-- &#45;15 -->
<g id="node15" class="node">
<title>&#45;15</title>
<polygon fill="lightgray" stroke="black" points="1028,-86.53 996,-86.53 996,-68.53 1028,-68.53 1028,-86.53"/>
<text text-anchor="middle" x="1012" y="-75.33" font-family="Times,serif" font-size="9.00">&#45;15</text>
</g>
<!-- &#45;16 -->
<g id="node16" class="node">
<title>&#45;16</title>
<polygon fill="lightgray" stroke="black" points="1078,-86.53 1046,-86.53 1046,-68.53 1078,-68.53 1078,-86.53"/>
<text text-anchor="middle" x="1062" y="-75.33" font-family="Times,serif" font-size="9.00">&#45;16</text>
</g>
<!-- &#45;17 -->
<g id="node17" class="node">
<title>&#45;17</title>
<polygon fill="lightgray" stroke="black" points="1128,-86.53 1096,-86.53 1096,-68.53 1128,-68.53 1128,-86.53"/>
<text text-anchor="middle" x="1112" y="-75.33" font-family="Times,serif" font-size="9.00">&#45;17</text>
</g>
<!-- &#45;18 -->
<g id="node18" class="node">
<title>&#45;18</title>
<polygon fill="lightgray" stroke="black" points="1178,-86.53 1146,-86.53 1146,-68.53 1178,-68.53 1178,-86.53"/>
<text text-anchor="middle" x="1162" y="-75.33" font-family="Times,serif" font-size="9.00">&#45;18</text>
</g>
<!-- &#45;19 -->
<g id="node19" class="node">
<title>&#45;19</title>
<polygon fill="lightgray" stroke="black" points="678,-86.53 646,-86.53 646,-68.53 678,-68.53 678,-86.53"/>
<text text-anchor="middle" x="662" y="-75.33" font-family="Times,serif" font-size="9.00">&#45;19</text>
</g>
<!-- 2 -->
<g id="node43" class="node">
<title>2</title>
<ellipse fill="lightblue" stroke="black" cx="686" cy="-16.26" rx="16.03" ry="16.03"/>
<text text-anchor="middle" x="686" y="-14.06" font-family="Times,serif" font-size="9.00">2</text>
</g>
<!-- &#45;19&#45;&gt;2 -->
<g id="edge13" class="edge">
<title>&#45;19&#45;&gt;2</title>
<path fill="none" stroke="red" stroke-width="0.56" d="M665.34,-68.29C668.17,-61.3 672.37,-50.91 676.25,-41.33"/>
<polygon fill="red" stroke="red" stroke-width="0.56" points="679.6,-42.4 680.11,-31.82 673.11,-39.77 679.6,-42.4"/>
</g>
<!-- &#45;19&#45;&gt;3 -->
<g id="edge6" class="edge">
<title>&#45;19&#45;&gt;3</title>
<path fill="none" stroke="red" stroke-width="0.76" d="M650.18,-68.29C636.86,-59 614.94,-43.72 598.56,-32.29"/>
<polygon fill="red" stroke="red" stroke-width="0.76" points="600.32,-29.25 590.11,-26.41 596.31,-35 600.32,-29.25"/>
</g>
<!-- &#45;20 -->
<g id="node20" class="node">
<title>&#45;20</title>
<polygon fill="lightgray" stroke="black" points="428,-86.53 396,-86.53 396,-68.53 428,-68.53 428,-86.53"/>
<text text-anchor="middle" x="412" y="-75.33" font-family="Times,serif" font-size="9.00">&#45;20</text>
</g>
<!-- &#45;20&#45;&gt;0 -->
<g id="edge10" class="edge">
<title>&#45;20&#45;&gt;0</title>
<path fill="none" stroke="red" stroke-width="0.34" stroke-dasharray="1,5" d="M408.8,-68.29C406.09,-61.3 402.06,-50.91 398.34,-41.33"/>
<polygon fill="red" stroke="red" stroke-width="0.34" points="401.53,-39.87 394.65,-31.82 395,-42.41 401.53,-39.87"/>
</g>
<!-- &#45;21 -->
<g id="node21" class="node">
<title>&#45;21</title>
<polygon fill="lightgray" stroke="black" points="728,-86.53 696,-86.53 696,-68.53 728,-68.53 728,-86.53"/>
<text text-anchor="middle" x="712" y="-75.33" font-family="Times,serif" font-size="9.00">&#45;21</text>
</g>
<!-- &#45;21&#45;&gt;2 -->
<g id="edge12" class="edge">
<title>&#45;21&#45;&gt;2</title>
<path fill="none" stroke="green" stroke-width="0.48" d="M708.38,-68.29C705.25,-61.13 700.54,-50.41 696.26,-40.64"/>
<polygon fill="green" stroke="green" stroke-width="0.48" points="699.4,-39.11 692.18,-31.36 692.99,-41.92 699.4,-39.11"/>
</g>
<!-- &#45;22 -->
<g id="node22" class="node">
<title>&#45;22</title>
<polygon fill="lightgray" stroke="black" points="1228,-86.53 1196,-86.53 1196,-68.53 1228,-68.53 1228,-86.53"/>
<text text-anchor="middle" x="1212" y="-75.33" font-family="Times,serif" font-size="9.00">&#45;22</text>
</g>
<!-- &#45;23 -->
<g id="node23" class="node">
<title>&#45;23</title>
<polygon fill="lightgray" stroke="black" points="778,-86.53 746,-86.53 746,-68.53 778,-68.53 778,-86.53"/>
<text text-anchor="middle" x="762" y="-75.33" font-family="Times,serif" font-size="9.00">&#45;23</text>
</g>
<!-- 1 -->
<g id="node42" class="node">
<title>1</title>
<ellipse fill="lightblue" stroke="black" cx="787" cy="-16.26" rx="16.03" ry="16.03"/>
<text text-anchor="middle" x="787" y="-14.06" font-family="Times,serif" font-size="9.00">1</text>
</g>
<!-- &#45;23&#45;&gt;1 -->
<g id="edge5" class="edge">
<title>&#45;23&#45;&gt;1</title>
<path fill="none" stroke="red" stroke-width="0.19" stroke-dasharray="1,5" d="M765.48,-68.29C768.45,-61.23 772.9,-50.7 776.97,-41.03"/>
<polygon fill="red" stroke="red" stroke-width="0.19" points="780.2,-42.39 780.86,-31.82 773.75,-39.67 780.2,-42.39"/>
</g>
<!-- &#45;23&#45;&gt;2 -->
<g id="edge1" class="edge">
<title>&#45;23&#45;&gt;2</title>
<path fill="none" stroke="red" stroke-width="0.42" stroke-dasharray="1,5" d="M751.43,-68.29C739.84,-59.25 720.95,-44.52 706.45,-33.21"/>
<polygon fill="red" stroke="red" stroke-width="0.42" points="708.53,-30.4 698.5,-27.01 704.23,-35.92 708.53,-30.4"/>
</g>
<!-- &#45;24 -->
<g id="node24" class="node">
<title>&#45;24</title>
<polygon fill="lightgray" stroke="black" points="1278,-86.53 1246,-86.53 1246,-68.53 1278,-68.53 1278,-86.53"/>
<text text-anchor="middle" x="1262" y="-75.33" font-family="Times,serif" font-size="9.00">&#45;24</text>
</g>
<!-- &#45;25 -->
<g id="node25" class="node">
<title>&#45;25</title>
<polygon fill="lightgray" stroke="black" points="828,-86.53 796,-86.53 796,-68.53 828,-68.53 828,-86.53"/>
<text text-anchor="middle" x="812" y="-75.33" font-family="Times,serif" font-size="9.00">&#45;25</text>
</g>
<!-- &#45;25&#45;&gt;1 -->
<g id="edge9" class="edge">
<title>&#45;25&#45;&gt;1</title>
<path fill="none" stroke="red" stroke-width="0.67" stroke-dasharray="1,5" d="M808.52,-68.29C805.55,-61.23 801.1,-50.7 797.03,-41.03"/>
<polygon fill="red" stroke="red" stroke-width="0.67" points="800.25,-39.67 793.14,-31.82 793.8,-42.39 800.25,-39.67"/>
</g>
<!-- &#45;26 -->
<g id="node26" class="node">
<title>&#45;26</title>
<polygon fill="lightgray" stroke="black" points="528,-86.53 496,-86.53 496,-68.53 528,-68.53 528,-86.53"/>
<text text-anchor="middle" x="512" y="-75.33" font-family="Times,serif" font-size="9.00">&#45;26</text>
</g>
<!-- &#45;26&#45;&gt;3 -->
<g id="edge7" class="edge">
<title>&#45;26&#45;&gt;3</title>
<path fill="none" stroke="red" stroke-width="0.74" d="M521.04,-68.29C530.54,-59.62 545.77,-45.74 557.94,-34.64"/>
<polygon fill="red" stroke="red" stroke-width="0.74" points="560.38,-37.16 565.41,-27.83 555.66,-31.98 560.38,-37.16"/>
</g>
<!-- &#45;27 -->
<g id="node27" class="node">
<title>&#45;27</title>
<polygon fill="lightgray" stroke="black" points="1328,-86.53 1296,-86.53 1296,-68.53 1328,-68.53 1328,-86.53"/>
<text text-anchor="middle" x="1312" y="-75.33" font-family="Times,serif" font-size="9.00">&#45;27</text>
</g>
<!-- &#45;28 -->
<g id="node28" class="node">
<title>&#45;28</title>
<polygon fill="lightgray" stroke="black" points="1378,-86.53 1346,-86.53 1346,-68.53 1378,-68.53 1378,-86.53"/>
<text text-anchor="middle" x="1362" y="-75.33" font-family="Times,serif" font-size="9.00">&#45;28</text>
</g>
<!-- &#45;29 -->
<g id="node29" class="node">
<title>&#45;29</title>
<polygon fill="lightgray" stroke="black" points="1428,-86.53 1396,-86.53 1396,-68.53 1428,-68.53 1428,-86.53"/>
<text text-anchor="middle" x="1412" y="-75.33" font-family="Times,serif" font-size="9.00">&#45;29</text>
</g>
<!-- &#45;30 -->
<g id="node30" class="node">
<title>&#45;30</title>
<polygon fill="lightgray" stroke="black" points="1478,-86.53 1446,-86.53 1446,-68.53 1478,-68.53 1478,-86.53"/>
<text text-anchor="middle" x="1462" y="-75.33" font-family="Times,serif" font-size="9.00">&#45;30</text>
</g>
<!-- &#45;31 -->
<g id="node31" class="node">
<title>&#45;31</title>
<polygon fill="lightgray" stroke="black" points="1528,-86.53 1496,-86.53 1496,-68.53 1528,-68.53 1528,-86.53"/>
<text text-anchor="middle" x="1512" y="-75.33" font-family="Times,serif" font-size="9.00">&#45;31</text>
</g>
<!-- &#45;32 -->
<g id="node32" class="node">
<title>&#45;32</title>
<polygon fill="lightgray" stroke="black" points="1578,-86.53 1546,-86.53 1546,-68.53 1578,-68.53 1578,-86.53"/>
<text text-anchor="middle" x="1562" y="-75.33" font-family="Times,serif" font-size="9.00">&#45;32</text>
</g>
<!-- &#45;33 -->
<g id="node33" class="node">
<title>&#45;33</title>
<polygon fill="lightgray" stroke="black" points="1628,-86.53 1596,-86.53 1596,-68.53 1628,-68.53 1628,-86.53"/>
<text text-anchor="middle" x="1612" y="-75.33" font-family="Times,serif" font-size="9.00">&#45;33</text>
</g>
<!-- &#45;34 -->
<g id="node34" class="node">
<title>&#45;34</title>
<polygon fill="lightgray" stroke="black" points="1678,-86.53 1646,-86.53 1646,-68.53 1678,-68.53 1678,-86.53"/>
<text text-anchor="middle" x="1662" y="-75.33" font-family="Times,serif" font-size="9.00">&#45;34</text>
</g>
<!-- &#45;35 -->
<g id="node35" class="node">
<title>&#45;35</title>
<polygon fill="lightgray" stroke="black" points="1728,-86.53 1696,-86.53 1696,-68.53 1728,-68.53 1728,-86.53"/>
<text text-anchor="middle" x="1712" y="-75.33" font-family="Times,serif" font-size="9.00">&#45;35</text>
</g>
<!-- &#45;36 -->
<g id="node36" class="node">
<title>&#45;36</title>
<polygon fill="lightgray" stroke="black" points="1778,-86.53 1746,-86.53 1746,-68.53 1778,-68.53 1778,-86.53"/>
<text text-anchor="middle" x="1762" y="-75.33" font-family="Times,serif" font-size="9.00">&#45;36</text>
</g>
<!-- &#45;37 -->
<g id="node37" class="node">
<title>&#45;37</title>
<polygon fill="lightgray" stroke="black" points="628,-86.53 596,-86.53 596,-68.53 628,-68.53 628,-86.53"/>
<text text-anchor="middle" x="612" y="-75.33" font-family="Times,serif" font-size="9.00">&#45;37</text>
</g>
<!-- &#45;37&#45;&gt;2 -->
<g id="edge3" class="edge">
<title>&#45;37&#45;&gt;2</title>
<path fill="none" stroke="green" stroke-width="1.21" stroke-dasharray="1,5" d="M622.29,-68.29C633.41,-59.38 651.41,-44.97 665.45,-33.72"/>
<polygon fill="green" stroke="green" stroke-width="1.21" points="667.96,-36.2 673.58,-27.21 663.58,-30.73 667.96,-36.2"/>
</g>
<!-- &#45;37&#45;&gt;3 -->
<g id="edge4" class="edge">
<title>&#45;37&#45;&gt;3</title>
<path fill="none" stroke="green" stroke-width="0.35" d="M607.13,-68.29C602.76,-60.88 596.14,-49.67 590.21,-39.63"/>
<polygon fill="green" stroke="green" stroke-width="0.35" points="593.15,-37.73 585.05,-30.9 587.12,-41.29 593.15,-37.73"/>
</g>
<!-- &#45;38 -->
<g id="node38" class="node">
<title>&#45;38</title>
<polygon fill="lightgray" stroke="black" points="1828,-86.53 1796,-86.53 1796,-68.53 1828,-68.53 1828,-86.53"/>
<text text-anchor="middle" x="1812" y="-75.33" font-family="Times,serif" font-size="9.00">&#45;38</text>
</g>
<!-- &#45;39 -->
<g id="node39" class="node">
<title>&#45;39</title>
<polygon fill="lightgray" stroke="black" points="1878,-86.53 1846,-86.53 1846,-68.53 1878,-68.53 1878,-86.53"/>
<text text-anchor="middle" x="1862" y="-75.33" font-family="Times,serif" font-size="9.00">&#45;39</text>
</g>
<!-- &#45;40 -->
<g id="node40" class="node">
<title>&#45;40</title>
<polygon fill="lightgray" stroke="black" points="1928,-86.53 1896,-86.53 1896,-68.53 1928,-68.53 1928,-86.53"/>
<text text-anchor="middle" x="1912" y="-75.33" font-family="Times,serif" font-size="9.00">&#45;40</text>
</g>
<!-- 3&#45;&gt;3 -->
<g id="edge2" class="edge">
<title>3&#45;&gt;3</title>
<path fill="none" stroke="green" stroke-width="0.14" d="M590.36,-26.06C600.71,-29.72 611.26,-26.46 611.26,-16.26 611.26,-9.57 606.72,-5.87 600.67,-5.14"/>
<polygon fill="green" stroke="green" stroke-width="0.14" points="599.84,-1.72 590.36,-6.47 600.73,-8.67 599.84,-1.72"/>
</g>
</g>
</svg>
