<?xml version="1.0" encoding="UTF-8" standalone="no"?>
<!DOCTYPE svg PUBLIC "-//W3C//DTD SVG 1.1//EN"
 "http://www.w3.org/Graphics/SVG/1.1/DTD/svg11.dtd">
<!-- Generated by graphviz version 2.43.0 (0)
 -->
<!-- Title: %3 Pages: 1 -->
<svg width="1936pt" height="95pt"
 viewBox="0.00 0.00 1936.00 94.53" xmlns="http://www.w3.org/2000/svg" xmlns:xlink="http://www.w3.org/1999/xlink">
<g id="graph0" class="graph" transform="scale(1 1) rotate(0) translate(4 90.53)">
<title>%3</title>
<polygon fill="white" stroke="transparent" points="-4,4 -4,-90.53 1932,-90.53 1932,4 -4,4"/>
<!-- &#45;1 -->
<g id="node1" class="node">
<title>&#45;1</title>
<polygon fill="lightgray" stroke="black" points="26,-86.53 0,-86.53 0,-68.53 26,-68.53 26,-86.53"/>
<text text-anchor="middle" x="13" y="-75.33" font-family="Times,serif" font-size="9.00">&#45;1</text>
</g>
<!-- 1 -->
<g id="node42" class="node">
<title>1</title>
<ellipse fill="lightblue" stroke="black" cx="60" cy="-16.26" rx="16.03" ry="16.03"/>
<text text-anchor="middle" x="60" y="-14.06" font-family="Times,serif" font-size="9.00">1</text>
</g>
<!-- &#45;1&#45;&gt;1 -->
<g id="edge13" class="edge">
<title>&#45;1&#45;&gt;1</title>
<path fill="none" stroke="green" stroke-width="0.34" d="M19.54,-68.29C25.82,-60.36 35.58,-48.05 43.94,-37.51"/>
<polygon fill="green" stroke="green" stroke-width="0.34" points="46.78,-39.56 50.25,-29.55 41.3,-35.21 46.78,-39.56"/>
</g>
<!-- &#45;2 -->
<g id="node2" class="node">
<title>&#45;2</title>
<polygon fill="lightgray" stroke="black" points="652,-86.53 626,-86.53 626,-68.53 652,-68.53 652,-86.53"/>
<text text-anchor="middle" x="639" y="-75.33" font-family="Times,serif" font-size="9.00">&#45;2</text>
</g>
<!-- &#45;3 -->
<g id="node3" class="node">
<title>&#45;3</title>
<polygon fill="lightgray" stroke="black" points="170,-86.53 144,-86.53 144,-68.53 170,-68.53 170,-86.53"/>
<text text-anchor="middle" x="157" y="-75.33" font-family="Times,serif" font-size="9.00">&#45;3</text>
</g>
<!-- 3 -->
<g id="node44" class="node">
<title>3</title>
<ellipse fill="lightblue" stroke="black" cx="180" cy="-16.26" rx="16.03" ry="16.03"/>
<text text-anchor="middle" x="180" y="-14.06" font-family="Times,serif" font-size="9.00">3</text>
</g>
<!-- &#45;3&#45;&gt;3 -->
<g id="edge9" class="edge">
<title>&#45;3&#45;&gt;3</title>
<path fill="none" stroke="green" stroke-width="0.26" d="M160.2,-68.29C162.91,-61.3 166.94,-50.91 170.66,-41.33"/>
<polygon fill="green" stroke="green" stroke-width="0.26" points="174,-42.41 174.35,-31.82 167.47,-39.87 174,-42.41"/>
</g>
<!-- &#45;4 -->
<g id="node4" class="node">
<title>&#45;4</title>
<polygon fill="lightgray" stroke="black" points="314,-86.53 288,-86.53 288,-68.53 314,-68.53 314,-86.53"/>
<text text-anchor="middle" x="301" y="-75.33" font-family="Times,serif" font-size="9.00">&#45;4</text>
</g>
<!-- 0 -->
<g id="node41" class="node">
<title>0</title>
<ellipse fill="lightblue" stroke="black" cx="392" cy="-16.26" rx="16.03" ry="16.03"/>
<text text-anchor="middle" x="392" y="-14.06" font-family="Times,serif" font-size="9.00">0</text>
</g>
<!-- &#45;4&#45;&gt;0 -->
<g id="edge6" class="edge">
<title>&#45;4&#45;&gt;0</title>
<path fill="none" stroke="green" stroke-width="0.12" d="M313.65,-68.29C328.21,-58.81 352.37,-43.07 370.02,-31.58"/>
<polygon fill="green" stroke="green" stroke-width="0.12" points="372.1,-34.4 378.57,-26.01 368.28,-28.54 372.1,-34.4"/>
</g>
<!-- &#45;5 -->
<g id="node5" class="node">
<title>&#45;5</title>
<polygon fill="lightgray" stroke="black" points="696,-86.53 670,-86.53 670,-68.53 696,-68.53 696,-86.53"/>
<text text-anchor="middle" x="683" y="-75.33" font-family="Times,serif" font-size="9.00">&#45;5</text>
</g>
<!-- &#45;6 -->
<g id="node6" class="node">
<title>&#45;6</title>
<polygon fill="lightgray" stroke="black" points="740,-86.53 714,-86.53 714,-68.53 740,-68.53 740,-86.53"/>
<text text-anchor="middle" x="727" y="-75.33" font-family="Times,serif" font-size="9.00">&#45;6</text>
</g>
<!-- &#45;7 -->
<g id="node7" class="node">
<title>&#45;7</title>
<polygon fill="lightgray" stroke="black" points="784,-86.53 758,-86.53 758,-68.53 784,-68.53 784,-86.53"/>
<text text-anchor="middle" x="771" y="-75.33" font-family="Times,serif" font-size="9.00">&#45;7</text>
</g>
<!-- &#45;8 -->
<g id="node8" class="node">
<title>&#45;8</title>
<polygon fill="lightgray" stroke="black" points="828,-86.53 802,-86.53 802,-68.53 828,-68.53 828,-86.53"/>
<text text-anchor="middle" x="815" y="-75.33" font-family="Times,serif" font-size="9.00">&#45;8</text>
</g>
<!-- &#45;9 -->
<g id="node9" class="node">
<title>&#45;9</title>
<polygon fill="lightgray" stroke="black" points="358,-86.53 332,-86.53 332,-68.53 358,-68.53 358,-86.53"/>
<text text-anchor="middle" x="345" y="-75.33" font-family="Times,serif" font-size="9.00">&#45;9</text>
</g>
<!-- &#45;9&#45;&gt;0 -->
<g id="edge2" class="edge">
<title>&#45;9&#45;&gt;0</title>
<path fill="none" stroke="red" stroke-width="0.23" d="M351.54,-68.29C357.82,-60.36 367.58,-48.05 375.94,-37.51"/>
<polygon fill="red" stroke="red" stroke-width="0.23" points="378.78,-39.56 382.25,-29.55 373.3,-35.21 378.78,-39.56"/>
</g>
<!-- &#45;10 -->
<g id="node10" class="node">
<title>&#45;10</title>
<polygon fill="lightgray" stroke="black" points="878,-86.53 846,-86.53 846,-68.53 878,-68.53 878,-86.53"/>
<text text-anchor="middle" x="862" y="-75.33" font-family="Times,serif" font-size="9.00">&#45;10</text>
</g>
<!-- &#45;11 -->
<g id="node11" class="node">
<title>&#45;11</title>
<polygon fill="lightgray" stroke="black" points="928,-86.53 896,-86.53 896,-68.53 928,-68.53 928,-86.53"/>
<text text-anchor="middle" x="912" y="-75.33" font-family="Times,serif" font-size="9.00">&#45;11</text>
</g>
<!-- &#45;12 -->
<g id="node12" class="node">
<title>&#45;12</title>
<polygon fill="lightgray" stroke="black" points="978,-86.53 946,-86.53 946,-68.53 978,-68.53 978,-86.53"/>
<text text-anchor="middle" x="962" y="-75.33" font-family="Times,serif" font-size="9.00">&#45;12</text>
</g>
<!-- &#45;13 -->
<g id="node13" class="node">
<title>&#45;13</title>
<polygon fill="lightgray" stroke="black" points="1028,-86.53 996,-86.53 996,-68.53 1028,-68.53 1028,-86.53"/>
<text text-anchor="middle" x="1012" y="-75.33" font-family="Times,serif" font-size="9.00">&#45;13</text>
</g>
<!-- &#45;14 -->
<g id="node14" class="node">
<title>&#45;14</title>
<polygon fill="lightgray" stroke="black" points="1078,-86.53 1046,-86.53 1046,-68.53 1078,-68.53 1078,-86.53"/>
<text text-anchor="middle" x="1062" y="-75.33" font-family="Times,serif" font-size="9.00">&#45;14</text>
</g>
<!-- &#45;15 -->
<g id="node15" class="node">
<title>&#45;15</title>
<polygon fill="lightgray" stroke="black" points="408,-86.53 376,-86.53 376,-68.53 408,-68.53 408,-86.53"/>
<text text-anchor="middle" x="392" y="-75.33" font-family="Times,serif" font-size="9.00">&#45;15</text>
</g>
<!-- &#45;15&#45;&gt;0 -->
<g id="edge11" class="edge">
<title>&#45;15&#45;&gt;0</title>
<path fill="none" stroke="red" stroke-width="0.1" d="M392,-68.29C392,-61.7 392,-52.1 392,-43"/>
<polygon fill="red" stroke="red" stroke-width="0.1" points="395.5,-42.76 392,-32.76 388.5,-42.76 395.5,-42.76"/>
</g>
<!-- &#45;16 -->
<g id="node16" class="node">
<title>&#45;16</title>
<polygon fill="lightgray" stroke="black" points="1128,-86.53 1096,-86.53 1096,-68.53 1128,-68.53 1128,-86.53"/>
<text text-anchor="middle" x="1112" y="-75.33" font-family="Times,serif" font-size="9.00">&#45;16</text>
</g>
<!-- &#45;17 -->
<g id="node17" class="node">
<title>&#45;17</title>
<polygon fill="lightgray" stroke="black" points="1178,-86.53 1146,-86.53 1146,-68.53 1178,-68.53 1178,-86.53"/>
<text text-anchor="middle" x="1162" y="-75.33" font-family="Times,serif" font-size="9.00">&#45;17</text>
</g>
<!-- &#45;18 -->
<g id="node18" class="node">
<title>&#45;18</title>
<polygon fill="lightgray" stroke="black" points="1228,-86.53 1196,-86.53 1196,-68.53 1228,-68.53 1228,-86.53"/>
<text text-anchor="middle" x="1212" y="-75.33" font-family="Times,serif" font-size="9.00">&#45;18</text>
</g>
<!-- &#45;19 -->
<g id="node19" class="node">
<title>&#45;19</title>
<polygon fill="lightgray" stroke="black" points="1278,-86.53 1246,-86.53 1246,-68.53 1278,-68.53 1278,-86.53"/>
<text text-anchor="middle" x="1262" y="-75.33" font-family="Times,serif" font-size="9.00">&#45;19</text>
</g>
<!-- &#45;20 -->
<g id="node20" class="node">
<title>&#45;20</title>
<polygon fill="lightgray" stroke="black" points="1328,-86.53 1296,-86.53 1296,-68.53 1328,-68.53 1328,-86.53"/>
<text text-anchor="middle" x="1312" y="-75.33" font-family="Times,serif" font-size="9.00">&#45;20</text>
</g>
<!-- &#45;21 -->
<g id="node21" class="node">
<title>&#45;21</title>
<polygon fill="lightgray" stroke="black" points="1378,-86.53 1346,-86.53 1346,-68.53 1378,-68.53 1378,-86.53"/>
<text text-anchor="middle" x="1362" y="-75.33" font-family="Times,serif" font-size="9.00">&#45;21</text>
</g>
<!-- &#45;22 -->
<g id="node22" class="node">
<title>&#45;22</title>
<polygon fill="lightgray" stroke="black" points="1428,-86.53 1396,-86.53 1396,-68.53 1428,-68.53 1428,-86.53"/>
<text text-anchor="middle" x="1412" y="-75.33" font-family="Times,serif" font-size="9.00">&#45;22</text>
</g>
<!-- &#45;23 -->
<g id="node23" class="node">
<title>&#45;23</title>
<polygon fill="lightgray" stroke="black" points="1478,-86.53 1446,-86.53 1446,-68.53 1478,-68.53 1478,-86.53"/>
<text text-anchor="middle" x="1462" y="-75.33" font-family="Times,serif" font-size="9.00">&#45;23</text>
</g>
<!-- &#45;24 -->
<g id="node24" class="node">
<title>&#45;24</title>
<polygon fill="lightgray" stroke="black" points="1528,-86.53 1496,-86.53 1496,-68.53 1528,-68.53 1528,-86.53"/>
<text text-anchor="middle" x="1512" y="-75.33" font-family="Times,serif" font-size="9.00">&#45;24</text>
</g>
<!-- &#45;25 -->
<g id="node25" class="node">
<title>&#45;25</title>
<polygon fill="lightgray" stroke="black" points="558,-86.53 526,-86.53 526,-68.53 558,-68.53 558,-86.53"/>
<text text-anchor="middle" x="542" y="-75.33" font-family="Times,serif" font-size="9.00">&#45;25</text>
</g>
<!-- &#45;25&#45;&gt;0 -->
<g id="edge10" class="edge">
<title>&#45;25&#45;&gt;0</title>
<path fill="none" stroke="red" stroke-width="0.38" d="M525.95,-70.18C499.74,-59.83 447.58,-39.22 416.65,-27"/>
<polygon fill="red" stroke="red" stroke-width="0.38" points="417.63,-23.63 407.04,-23.21 415.06,-30.14 417.63,-23.63"/>
</g>
<!-- 2 -->
<g id="node43" class="node">
<title>2</title>
<ellipse fill="lightblue" stroke="black" cx="567" cy="-16.26" rx="16.03" ry="16.03"/>
<text text-anchor="middle" x="567" y="-14.06" font-family="Times,serif" font-size="9.00">2</text>
</g>
<!-- &#45;25&#45;&gt;2 -->
<g id="edge8" class="edge">
<title>&#45;25&#45;&gt;2</title>
<path fill="none" stroke="green" stroke-width="0.25" d="M545.48,-68.29C548.45,-61.23 552.9,-50.7 556.97,-41.03"/>
<polygon fill="green" stroke="green" stroke-width="0.25" points="560.2,-42.39 560.86,-31.82 553.75,-39.67 560.2,-42.39"/>
</g>
<!-- &#45;26 -->
<g id="node26" class="node">
<title>&#45;26</title>
<polygon fill="lightgray" stroke="black" points="458,-86.53 426,-86.53 426,-68.53 458,-68.53 458,-86.53"/>
<text text-anchor="middle" x="442" y="-75.33" font-family="Times,serif" font-size="9.00">&#45;26</text>
</g>
<!-- &#45;26&#45;&gt;0 -->
<g id="edge5" class="edge">
<title>&#45;26&#45;&gt;0</title>
<path fill="none" stroke="green" stroke-width="0.22" d="M435.05,-68.29C428.21,-60.18 417.5,-47.49 408.48,-36.79"/>
<polygon fill="green" stroke="green" stroke-width="0.22" points="411.12,-34.5 402,-29.11 405.77,-39.01 411.12,-34.5"/>
</g>
<!-- &#45;27 -->
<g id="node27" class="node">
<title>&#45;27</title>
<polygon fill="lightgray" stroke="black" points="1578,-86.53 1546,-86.53 1546,-68.53 1578,-68.53 1578,-86.53"/>
<text text-anchor="middle" x="1562" y="-75.33" font-family="Times,serif" font-size="9.00">&#45;27</text>
</g>
<!-- &#45;28 -->
<g id="node28" class="node">
<title>&#45;28</title>
<polygon fill="lightgray" stroke="black" points="1628,-86.53 1596,-86.53 1596,-68.53 1628,-68.53 1628,-86.53"/>
<text text-anchor="middle" x="1612" y="-75.33" font-family="Times,serif" font-size="9.00">&#45;28</text>
</g>
<!-- &#45;29 -->
<g id="node29" class="node">
<title>&#45;29</title>
<polygon fill="lightgray" stroke="black" points="270,-86.53 238,-86.53 238,-68.53 270,-68.53 270,-86.53"/>
<text text-anchor="middle" x="254" y="-75.33" font-family="Times,serif" font-size="9.00">&#45;29</text>
</g>
<!-- &#45;29&#45;&gt;0 -->
<g id="edge7" class="edge">
<title>&#45;29&#45;&gt;0</title>
<path fill="none" stroke="red" stroke-width="0.12" d="M270.1,-69.61C294.16,-59.28 339.68,-39.73 367.77,-27.67"/>
<polygon fill="red" stroke="red" stroke-width="0.12" points="369.45,-30.76 377.26,-23.59 366.69,-24.32 369.45,-30.76"/>
</g>
<!-- &#45;29&#45;&gt;3 -->
<g id="edge12" class="edge">
<title>&#45;29&#45;&gt;3</title>
<path fill="none" stroke="green" stroke-width="0.69" d="M243.71,-68.29C232.59,-59.38 214.59,-44.97 200.55,-33.72"/>
<polygon fill="green" stroke="green" stroke-width="0.69" points="202.42,-30.73 192.42,-27.21 198.04,-36.2 202.42,-30.73"/>
</g>
<!-- &#45;30 -->
<g id="node30" class="node">
<title>&#45;30</title>
<polygon fill="lightgray" stroke="black" points="1678,-86.53 1646,-86.53 1646,-68.53 1678,-68.53 1678,-86.53"/>
<text text-anchor="middle" x="1662" y="-75.33" font-family="Times,serif" font-size="9.00">&#45;30</text>
</g>
<!-- &#45;31 -->
<g id="node31" class="node">
<title>&#45;31</title>
<polygon fill="lightgray" stroke="black" points="126,-86.53 94,-86.53 94,-68.53 126,-68.53 126,-86.53"/>
<text text-anchor="middle" x="110" y="-75.33" font-family="Times,serif" font-size="9.00">&#45;31</text>
</g>
<!-- &#45;31&#45;&gt;1 -->
<g id="edge4" class="edge">
<title>&#45;31&#45;&gt;1</title>
<path fill="none" stroke="red" stroke-width="0.13" d="M103.05,-68.29C96.21,-60.18 85.5,-47.49 76.48,-36.79"/>
<polygon fill="red" stroke="red" stroke-width="0.13" points="79.12,-34.5 70,-29.11 73.77,-39.01 79.12,-34.5"/>
</g>
<!-- &#45;31&#45;&gt;3 -->
<g id="edge16" class="edge">
<title>&#45;31&#45;&gt;3</title>
<path fill="none" stroke="green" stroke-width="0.15" d="M119.73,-68.29C130.19,-59.44 147.08,-45.14 160.32,-33.92"/>
<polygon fill="green" stroke="green" stroke-width="0.15" points="162.64,-36.55 168.01,-27.42 158.11,-31.21 162.64,-36.55"/>
</g>
<!-- &#45;32 -->
<g id="node32" class="node">
<title>&#45;32</title>
<polygon fill="lightgray" stroke="black" points="1728,-86.53 1696,-86.53 1696,-68.53 1728,-68.53 1728,-86.53"/>
<text text-anchor="middle" x="1712" y="-75.33" font-family="Times,serif" font-size="9.00">&#45;32</text>
</g>
<!-- &#45;33 -->
<g id="node33" class="node">
<title>&#45;33</title>
<polygon fill="lightgray" stroke="black" points="608,-86.53 576,-86.53 576,-68.53 608,-68.53 608,-86.53"/>
<text text-anchor="middle" x="592" y="-75.33" font-family="Times,serif" font-size="9.00">&#45;33</text>
</g>
<!-- &#45;33&#45;&gt;2 -->
<g id="edge15" class="edge">
<title>&#45;33&#45;&gt;2</title>
<path fill="none" stroke="red" stroke-width="0.31" d="M588.52,-68.29C585.55,-61.23 581.1,-50.7 577.03,-41.03"/>
<polygon fill="red" stroke="red" stroke-width="0.31" points="580.25,-39.67 573.14,-31.82 573.8,-42.39 580.25,-39.67"/>
</g>
<!-- &#45;34 -->
<g id="node34" class="node">
<title>&#45;34</title>
<polygon fill="lightgray" stroke="black" points="1778,-86.53 1746,-86.53 1746,-68.53 1778,-68.53 1778,-86.53"/>
<text text-anchor="middle" x="1762" y="-75.33" font-family="Times,serif" font-size="9.00">&#45;34</text>
</g>
<!-- &#45;35 -->
<g id="node35" class="node">
<title>&#45;35</title>
<polygon fill="lightgray" stroke="black" points="1828,-86.53 1796,-86.53 1796,-68.53 1828,-68.53 1828,-86.53"/>
<text text-anchor="middle" x="1812" y="-75.33" font-family="Times,serif" font-size="9.00">&#45;35</text>
</g>
<!-- &#45;36 -->
<g id="node36" class="node">
<title>&#45;36</title>
<polygon fill="lightgray" stroke="black" points="76,-86.53 44,-86.53 44,-68.53 76,-68.53 76,-86.53"/>
<text text-anchor="middle" x="60" y="-75.33" font-family="Times,serif" font-size="9.00">&#45;36</text>
</g>
<!-- &#45;36&#45;&gt;1 -->
<g id="edge14" class="edge">
<title>&#45;36&#45;&gt;1</title>
<path fill="none" stroke="red" stroke-width="0.16" d="M60,-68.29C60,-61.7 60,-52.1 60,-43"/>
<polygon fill="red" stroke="red" stroke-width="0.16" points="63.5,-42.76 60,-32.76 56.5,-42.76 63.5,-42.76"/>
</g>
<!-- &#45;37 -->
<g id="node37" class="node">
<title>&#45;37</title>
<polygon fill="lightgray" stroke="black" points="508,-86.53 476,-86.53 476,-68.53 508,-68.53 508,-86.53"/>
<text text-anchor="middle" x="492" y="-75.33" font-family="Times,serif" font-size="9.00">&#45;37</text>
</g>
<!-- &#45;37&#45;&gt;0 -->
<g id="edge1" class="edge">
<title>&#45;37&#45;&gt;0</title>
<path fill="none" stroke="red" stroke-width="0.25" d="M478.1,-68.29C461.68,-58.56 434.14,-42.24 414.63,-30.68"/>
<polygon fill="red" stroke="red" stroke-width="0.25" points="416.17,-27.52 405.79,-25.43 412.6,-33.54 416.17,-27.52"/>
</g>
<!-- &#45;38 -->
<g id="node38" class="node">
<title>&#45;38</title>
<polygon fill="lightgray" stroke="black" points="1878,-86.53 1846,-86.53 1846,-68.53 1878,-68.53 1878,-86.53"/>
<text text-anchor="middle" x="1862" y="-75.33" font-family="Times,serif" font-size="9.00">&#45;38</text>
</g>
<!-- &#45;39 -->
<g id="node39" class="node">
<title>&#45;39</title>
<polygon fill="lightgray" stroke="black" points="1928,-86.53 1896,-86.53 1896,-68.53 1928,-68.53 1928,-86.53"/>
<text text-anchor="middle" x="1912" y="-75.33" font-family="Times,serif" font-size="9.00">&#45;39</text>
</g>
<!-- &#45;40 -->
<g id="node40" class="node">
<title>&#45;40</title>
<polygon fill="lightgray" stroke="black" points="220,-86.53 188,-86.53 188,-68.53 220,-68.53 220,-86.53"/>
<text text-anchor="middle" x="204" y="-75.33" font-family="Times,serif" font-size="9.00">&#45;40</text>
</g>
<!-- &#45;40&#45;&gt;3 -->
<g id="edge3" class="edge">
<title>&#45;40&#45;&gt;3</title>
<path fill="none" stroke="red" stroke-width="0.45" d="M200.66,-68.29C197.83,-61.3 193.63,-50.91 189.75,-41.33"/>
<polygon fill="red" stroke="red" stroke-width="0.45" points="192.89,-39.77 185.89,-31.82 186.4,-42.4 192.89,-39.77"/>
</g>
</g>
</svg>
