<?xml version="1.0" encoding="UTF-8" standalone="no"?>
<!DOCTYPE svg PUBLIC "-//W3C//DTD SVG 1.1//EN"
 "http://www.w3.org/Graphics/SVG/1.1/DTD/svg11.dtd">
<!-- Generated by graphviz version 2.43.0 (0)
 -->
<!-- Title: %3 Pages: 1 -->
<svg width="1936pt" height="95pt"
 viewBox="0.00 0.00 1936.00 94.53" xmlns="http://www.w3.org/2000/svg" xmlns:xlink="http://www.w3.org/1999/xlink">
<g id="graph0" class="graph" transform="scale(1 1) rotate(0) translate(4 90.53)">
<title>%3</title>
<polygon fill="white" stroke="transparent" points="-4,4 -4,-90.53 1932,-90.53 1932,4 -4,4"/>
<!-- &#45;1 -->
<g id="node1" class="node">
<title>&#45;1</title>
<polygon fill="lightgray" stroke="black" points="26,-86.53 0,-86.53 0,-68.53 26,-68.53 26,-86.53"/>
<text text-anchor="middle" x="13" y="-75.33" font-family="Times,serif" font-size="9.00">&#45;1</text>
</g>
<!-- &#45;2 -->
<g id="node2" class="node">
<title>&#45;2</title>
<polygon fill="lightgray" stroke="black" points="1102,-86.53 1076,-86.53 1076,-68.53 1102,-68.53 1102,-86.53"/>
<text text-anchor="middle" x="1089" y="-75.33" font-family="Times,serif" font-size="9.00">&#45;2</text>
</g>
<!-- 2 -->
<g id="node43" class="node">
<title>2</title>
<ellipse fill="lightblue" stroke="black" cx="604" cy="-16.26" rx="16.03" ry="16.03"/>
<text text-anchor="middle" x="604" y="-14.06" font-family="Times,serif" font-size="9.00">2</text>
</g>
<!-- &#45;2&#45;&gt;2 -->
<g id="edge1" class="edge">
<title>&#45;2&#45;&gt;2</title>
<path fill="none" stroke="green" stroke-width="0.12" d="M1075.66,-71.1C1072.84,-70.12 1069.85,-69.19 1067,-68.53 1024.34,-58.56 722.17,-28.74 630.38,-19.81"/>
<polygon fill="green" stroke="green" stroke-width="0.12" points="630.55,-16.31 620.26,-18.83 629.87,-23.28 630.55,-16.31"/>
</g>
<!-- 3 -->
<g id="node44" class="node">
<title>3</title>
<ellipse fill="lightblue" stroke="black" cx="1424" cy="-16.26" rx="16.03" ry="16.03"/>
<text text-anchor="middle" x="1424" y="-14.06" font-family="Times,serif" font-size="9.00">3</text>
</g>
<!-- &#45;2&#45;&gt;3 -->
<g id="edge3" class="edge">
<title>&#45;2&#45;&gt;3</title>
<path fill="none" stroke="green" stroke-width="0.2" d="M1102.37,-71.22C1105.19,-70.22 1108.17,-69.27 1111,-68.53 1215.42,-41.25 1343.42,-25.69 1397.68,-19.9"/>
<polygon fill="green" stroke="green" stroke-width="0.2" points="1398.24,-23.36 1407.82,-18.84 1397.51,-16.4 1398.24,-23.36"/>
</g>
<!-- &#45;3 -->
<g id="node3" class="node">
<title>&#45;3</title>
<polygon fill="lightgray" stroke="black" points="664,-86.53 638,-86.53 638,-68.53 664,-68.53 664,-86.53"/>
<text text-anchor="middle" x="651" y="-75.33" font-family="Times,serif" font-size="9.00">&#45;3</text>
</g>
<!-- 0 -->
<g id="node41" class="node">
<title>0</title>
<ellipse fill="lightblue" stroke="black" cx="792" cy="-16.26" rx="16.03" ry="16.03"/>
<text text-anchor="middle" x="792" y="-14.06" font-family="Times,serif" font-size="9.00">0</text>
</g>
<!-- &#45;3&#45;&gt;0 -->
<g id="edge17" class="edge">
<title>&#45;3&#45;&gt;0</title>
<path fill="none" stroke="green" stroke-width="0.33" d="M664.01,-71.06C687.66,-61.12 737.99,-39.96 768.01,-27.35"/>
<polygon fill="green" stroke="green" stroke-width="0.33" points="769.48,-30.53 777.34,-23.42 766.77,-24.07 769.48,-30.53"/>
</g>
<!-- 1 -->
<g id="node42" class="node">
<title>1</title>
<ellipse fill="lightblue" stroke="black" cx="1161" cy="-16.26" rx="16.03" ry="16.03"/>
<text text-anchor="middle" x="1161" y="-14.06" font-family="Times,serif" font-size="9.00">1</text>
</g>
<!-- &#45;3&#45;&gt;1 -->
<g id="edge59" class="edge">
<title>&#45;3&#45;&gt;1</title>
<path fill="none" stroke="red" stroke-width="0.28" d="M664.34,-71.09C667.16,-70.11 670.15,-69.18 673,-68.53 845.91,-28.64 1060.53,-19.72 1134.5,-17.78"/>
<polygon fill="red" stroke="red" stroke-width="0.28" points="1134.84,-21.28 1144.76,-17.54 1134.68,-14.28 1134.84,-21.28"/>
</g>
<!-- &#45;3&#45;&gt;2 -->
<g id="edge12" class="edge">
<title>&#45;3&#45;&gt;2</title>
<path fill="none" stroke="red" stroke-width="0.24" d="M644.46,-68.29C638.18,-60.36 628.42,-48.05 620.06,-37.51"/>
<polygon fill="red" stroke="red" stroke-width="0.24" points="622.7,-35.21 613.75,-29.55 617.22,-39.56 622.7,-35.21"/>
</g>
<!-- &#45;4 -->
<g id="node4" class="node">
<title>&#45;4</title>
<polygon fill="lightgray" stroke="black" points="1390,-86.53 1364,-86.53 1364,-68.53 1390,-68.53 1390,-86.53"/>
<text text-anchor="middle" x="1377" y="-75.33" font-family="Times,serif" font-size="9.00">&#45;4</text>
</g>
<!-- &#45;4&#45;&gt;0 -->
<g id="edge50" class="edge">
<title>&#45;4&#45;&gt;0</title>
<path fill="none" stroke="green" stroke-width="0.26" d="M1363.67,-71.06C1360.85,-70.08 1357.86,-69.16 1355,-68.53 1152.36,-23.26 900.17,-17.8 818.7,-17.27"/>
<polygon fill="green" stroke="green" stroke-width="0.26" points="818.37,-13.77 808.36,-17.22 818.34,-20.77 818.37,-13.77"/>
</g>
<!-- &#45;4&#45;&gt;1 -->
<g id="edge16" class="edge">
<title>&#45;4&#45;&gt;1</title>
<path fill="none" stroke="red" stroke-width="0.29" d="M1363.57,-71.42C1360.75,-70.42 1357.79,-69.4 1355,-68.53 1295.39,-49.86 1224.12,-32.19 1186.76,-23.28"/>
<polygon fill="red" stroke="red" stroke-width="0.29" points="1187.27,-19.81 1176.73,-20.91 1185.65,-26.62 1187.27,-19.81"/>
</g>
<!-- &#45;4&#45;&gt;3 -->
<g id="edge76" class="edge">
<title>&#45;4&#45;&gt;3</title>
<path fill="none" stroke="green" stroke-width="0.37" d="M1383.54,-68.29C1389.82,-60.36 1399.58,-48.05 1407.94,-37.51"/>
<polygon fill="green" stroke="green" stroke-width="0.37" points="1410.78,-39.56 1414.25,-29.55 1405.3,-35.21 1410.78,-39.56"/>
</g>
<!-- &#45;5 -->
<g id="node5" class="node">
<title>&#45;5</title>
<polygon fill="lightgray" stroke="black" points="1628,-86.53 1602,-86.53 1602,-68.53 1628,-68.53 1628,-86.53"/>
<text text-anchor="middle" x="1615" y="-75.33" font-family="Times,serif" font-size="9.00">&#45;5</text>
</g>
<!-- &#45;5&#45;&gt;1 -->
<g id="edge27" class="edge">
<title>&#45;5&#45;&gt;1</title>
<path fill="none" stroke="green" stroke-width="0.19" d="M1601.65,-71.12C1598.83,-70.13 1595.85,-69.2 1593,-68.53 1442.31,-32.7 1255.81,-21.37 1187.59,-18.29"/>
<polygon fill="green" stroke="green" stroke-width="0.19" points="1187.46,-14.78 1177.32,-17.85 1187.16,-21.77 1187.46,-14.78"/>
</g>
<!-- &#45;5&#45;&gt;3 -->
<g id="edge47" class="edge">
<title>&#45;5&#45;&gt;3</title>
<path fill="none" stroke="red" stroke-width="0.38" d="M1601.54,-71.5C1598.73,-70.49 1595.78,-69.45 1593,-68.53 1542.34,-51.65 1482.4,-34.01 1449.24,-24.46"/>
<polygon fill="red" stroke="red" stroke-width="0.38" points="1450.05,-21.05 1439.47,-21.65 1448.11,-27.77 1450.05,-21.05"/>
</g>
<!-- &#45;6 -->
<g id="node6" class="node">
<title>&#45;6</title>
<polygon fill="lightgray" stroke="black" points="708,-86.53 682,-86.53 682,-68.53 708,-68.53 708,-86.53"/>
<text text-anchor="middle" x="695" y="-75.33" font-family="Times,serif" font-size="9.00">&#45;6</text>
</g>
<!-- &#45;6&#45;&gt;0 -->
<g id="edge81" class="edge">
<title>&#45;6&#45;&gt;0</title>
<path fill="none" stroke="green" stroke-width="0.21" d="M708.08,-68.53C723.9,-58.87 750.78,-42.45 769.85,-30.8"/>
<polygon fill="green" stroke="green" stroke-width="0.21" points="771.79,-33.71 778.5,-25.51 768.14,-27.74 771.79,-33.71"/>
</g>
<!-- &#45;6&#45;&gt;1 -->
<g id="edge18" class="edge">
<title>&#45;6&#45;&gt;1</title>
<path fill="none" stroke="green" stroke-width="0.25" d="M708.34,-71.11C711.17,-70.13 714.15,-69.2 717,-68.53 872.55,-31.8 1065.23,-20.99 1134.59,-18.16"/>
<polygon fill="green" stroke="green" stroke-width="0.25" points="1134.78,-21.66 1144.64,-17.78 1134.51,-14.66 1134.78,-21.66"/>
</g>
<!-- &#45;6&#45;&gt;2 -->
<g id="edge24" class="edge">
<title>&#45;6&#45;&gt;2</title>
<path fill="none" stroke="green" stroke-width="0.17" d="M682.35,-68.29C667.79,-58.81 643.63,-43.07 625.98,-31.58"/>
<polygon fill="green" stroke="green" stroke-width="0.17" points="627.72,-28.54 617.43,-26.01 623.9,-34.4 627.72,-28.54"/>
</g>
<!-- &#45;7 -->
<g id="node7" class="node">
<title>&#45;7</title>
<polygon fill="lightgray" stroke="black" points="1296,-86.53 1270,-86.53 1270,-68.53 1296,-68.53 1296,-86.53"/>
<text text-anchor="middle" x="1283" y="-75.33" font-family="Times,serif" font-size="9.00">&#45;7</text>
</g>
<!-- &#45;7&#45;&gt;1 -->
<g id="edge14" class="edge">
<title>&#45;7&#45;&gt;1</title>
<path fill="none" stroke="red" stroke-width="0.14" d="M1269.94,-70.18C1249.65,-60.33 1210.22,-41.17 1184.78,-28.82"/>
<polygon fill="red" stroke="red" stroke-width="0.14" points="1185.99,-25.51 1175.47,-24.29 1182.93,-31.81 1185.99,-25.51"/>
</g>
<!-- &#45;7&#45;&gt;2 -->
<g id="edge70" class="edge">
<title>&#45;7&#45;&gt;2</title>
<path fill="none" stroke="red" stroke-width="0.58" d="M1269.68,-71.02C1266.85,-70.04 1263.86,-69.14 1261,-68.53 1045.73,-22.47 986.38,-50.79 767,-32.53 718.86,-28.52 662.79,-23.11 630.55,-19.92"/>
<polygon fill="red" stroke="red" stroke-width="0.58" points="630.48,-16.4 620.19,-18.89 629.79,-23.36 630.48,-16.4"/>
</g>
<!-- &#45;7&#45;&gt;3 -->
<g id="edge13" class="edge">
<title>&#45;7&#45;&gt;3</title>
<path fill="none" stroke="red" stroke-width="0.13" d="M1296.01,-71.06C1319.66,-61.12 1369.99,-39.96 1400.01,-27.35"/>
<polygon fill="red" stroke="red" stroke-width="0.13" points="1401.48,-30.53 1409.34,-23.42 1398.77,-24.07 1401.48,-30.53"/>
</g>
<!-- &#45;8 -->
<g id="node8" class="node">
<title>&#45;8</title>
<polygon fill="lightgray" stroke="black" points="120,-86.53 94,-86.53 94,-68.53 120,-68.53 120,-86.53"/>
<text text-anchor="middle" x="107" y="-75.33" font-family="Times,serif" font-size="9.00">&#45;8</text>
</g>
<!-- &#45;8&#45;&gt;2 -->
<g id="edge61" class="edge">
<title>&#45;8&#45;&gt;2</title>
<path fill="none" stroke="red" stroke-width="0.36" d="M120.34,-71.1C123.16,-70.11 126.15,-69.19 129,-68.53 296.92,-29.54 505.26,-20.07 577.71,-17.88"/>
<polygon fill="red" stroke="red" stroke-width="0.36" points="577.88,-21.38 587.77,-17.6 577.68,-14.38 577.88,-21.38"/>
</g>
<!-- &#45;9 -->
<g id="node9" class="node">
<title>&#45;9</title>
<polygon fill="lightgray" stroke="black" points="1484,-86.53 1458,-86.53 1458,-68.53 1484,-68.53 1484,-86.53"/>
<text text-anchor="middle" x="1471" y="-75.33" font-family="Times,serif" font-size="9.00">&#45;9</text>
</g>
<!-- &#45;9&#45;&gt;0 -->
<g id="edge55" class="edge">
<title>&#45;9&#45;&gt;0</title>
<path fill="none" stroke="green" stroke-width="0.56" d="M1457.67,-71.03C1454.85,-70.05 1451.86,-69.15 1449,-68.53 1325.48,-41.77 925.83,-23.02 818.66,-18.38"/>
<polygon fill="green" stroke="green" stroke-width="0.56" points="818.54,-14.87 808.4,-17.94 818.24,-21.87 818.54,-14.87"/>
</g>
<!-- &#45;9&#45;&gt;1 -->
<g id="edge32" class="edge">
<title>&#45;9&#45;&gt;1</title>
<path fill="none" stroke="red" stroke-width="0.37" d="M1457.62,-71.25C1454.8,-70.25 1451.83,-69.29 1449,-68.53 1354.19,-43.05 1238.34,-26.82 1187.29,-20.4"/>
<polygon fill="red" stroke="red" stroke-width="0.37" points="1187.49,-16.9 1177.14,-19.14 1186.63,-23.84 1187.49,-16.9"/>
</g>
<!-- &#45;9&#45;&gt;3 -->
<g id="edge8" class="edge">
<title>&#45;9&#45;&gt;3</title>
<path fill="none" stroke="red" stroke-width="0.38" d="M1464.46,-68.29C1458.18,-60.36 1448.42,-48.05 1440.06,-37.51"/>
<polygon fill="red" stroke="red" stroke-width="0.38" points="1442.7,-35.21 1433.75,-29.55 1437.22,-39.56 1442.7,-35.21"/>
</g>
<!-- &#45;10 -->
<g id="node10" class="node">
<title>&#45;10</title>
<polygon fill="lightgray" stroke="black" points="958,-86.53 926,-86.53 926,-68.53 958,-68.53 958,-86.53"/>
<text text-anchor="middle" x="942" y="-75.33" font-family="Times,serif" font-size="9.00">&#45;10</text>
</g>
<!-- &#45;10&#45;&gt;2 -->
<g id="edge60" class="edge">
<title>&#45;10&#45;&gt;2</title>
<path fill="none" stroke="red" stroke-width="0.1" d="M925.96,-71.01C923,-70.1 919.92,-69.23 917,-68.53 812.07,-43.29 684.34,-26.65 630.23,-20.23"/>
<polygon fill="red" stroke="red" stroke-width="0.1" points="630.47,-16.74 620.13,-19.05 629.65,-23.69 630.47,-16.74"/>
</g>
<!-- &#45;10&#45;&gt;3 -->
<g id="edge34" class="edge">
<title>&#45;10&#45;&gt;3</title>
<path fill="none" stroke="green" stroke-width="0.12" d="M958.01,-70.89C960.97,-69.99 964.06,-69.16 967,-68.53 1128.18,-34.05 1326.62,-21.84 1397.39,-18.41"/>
<polygon fill="green" stroke="green" stroke-width="0.12" points="1397.8,-21.89 1407.62,-17.93 1397.47,-14.9 1397.8,-21.89"/>
</g>
<!-- &#45;11 -->
<g id="node11" class="node">
<title>&#45;11</title>
<polygon fill="lightgray" stroke="black" points="1252,-86.53 1220,-86.53 1220,-68.53 1252,-68.53 1252,-86.53"/>
<text text-anchor="middle" x="1236" y="-75.33" font-family="Times,serif" font-size="9.00">&#45;11</text>
</g>
<!-- &#45;11&#45;&gt;0 -->
<g id="edge40" class="edge">
<title>&#45;11&#45;&gt;0</title>
<path fill="none" stroke="red" stroke-width="0.43" d="M1219.98,-70.91C1217.02,-70.01 1213.94,-69.17 1211,-68.53 1064.53,-36.43 884.53,-22.89 818.17,-18.75"/>
<polygon fill="red" stroke="red" stroke-width="0.43" points="818.36,-15.26 808.17,-18.15 817.94,-22.24 818.36,-15.26"/>
</g>
<!-- &#45;11&#45;&gt;1 -->
<g id="edge82" class="edge">
<title>&#45;11&#45;&gt;1</title>
<path fill="none" stroke="red" stroke-width="0.34" d="M1225.57,-68.29C1214.24,-59.33 1195.84,-44.8 1181.58,-33.52"/>
<polygon fill="red" stroke="red" stroke-width="0.34" points="1183.35,-30.46 1173.33,-27.01 1179.01,-35.95 1183.35,-30.46"/>
</g>
<!-- &#45;12 -->
<g id="node12" class="node">
<title>&#45;12</title>
<polygon fill="lightgray" stroke="black" points="370,-86.53 338,-86.53 338,-68.53 370,-68.53 370,-86.53"/>
<text text-anchor="middle" x="354" y="-75.33" font-family="Times,serif" font-size="9.00">&#45;12</text>
</g>
<!-- &#45;12&#45;&gt;0 -->
<g id="edge30" class="edge">
<title>&#45;12&#45;&gt;0</title>
<path fill="none" stroke="green" stroke-width="0.14" d="M370.02,-70.92C372.98,-70.02 376.06,-69.17 379,-68.53 453.64,-52.1 686.95,-27.82 765.72,-19.88"/>
<polygon fill="green" stroke="green" stroke-width="0.14" points="766.18,-23.35 775.78,-18.87 765.48,-16.38 766.18,-23.35"/>
</g>
<!-- &#45;12&#45;&gt;2 -->
<g id="edge9" class="edge">
<title>&#45;12&#45;&gt;2</title>
<path fill="none" stroke="red" stroke-width="0.48" d="M370.08,-71.16C373.03,-70.24 376.1,-69.32 379,-68.53 450.46,-48.99 536.07,-30.93 578.11,-22.41"/>
<polygon fill="red" stroke="red" stroke-width="0.48" points="578.95,-25.81 588.06,-20.4 577.57,-18.95 578.95,-25.81"/>
</g>
<!-- &#45;13 -->
<g id="node13" class="node">
<title>&#45;13</title>
<polygon fill="lightgray" stroke="black" points="420,-86.53 388,-86.53 388,-68.53 420,-68.53 420,-86.53"/>
<text text-anchor="middle" x="404" y="-75.33" font-family="Times,serif" font-size="9.00">&#45;13</text>
</g>
<!-- &#45;13&#45;&gt;0 -->
<g id="edge74" class="edge">
<title>&#45;13&#45;&gt;0</title>
<path fill="none" stroke="green" stroke-width="0.24" d="M420.03,-70.96C422.99,-70.05 426.07,-69.2 429,-68.53 553.11,-40.12 704.92,-24.81 765.35,-19.47"/>
<polygon fill="green" stroke="green" stroke-width="0.24" points="765.88,-22.94 775.54,-18.59 765.27,-15.96 765.88,-22.94"/>
</g>
<!-- &#45;13&#45;&gt;2 -->
<g id="edge48" class="edge">
<title>&#45;13&#45;&gt;2</title>
<path fill="none" stroke="green" stroke-width="0.23" d="M420.12,-71.3C423.07,-70.37 426.12,-69.41 429,-68.53 481.99,-52.29 544.34,-34.29 578.47,-24.53"/>
<polygon fill="green" stroke="green" stroke-width="0.23" points="579.86,-27.77 588.51,-21.66 577.93,-21.04 579.86,-27.77"/>
</g>
<!-- &#45;14 -->
<g id="node14" class="node">
<title>&#45;14</title>
<polygon fill="lightgray" stroke="black" points="1728,-86.53 1696,-86.53 1696,-68.53 1728,-68.53 1728,-86.53"/>
<text text-anchor="middle" x="1712" y="-75.33" font-family="Times,serif" font-size="9.00">&#45;14</text>
</g>
<!-- &#45;14&#45;&gt;3 -->
<g id="edge22" class="edge">
<title>&#45;14&#45;&gt;3</title>
<path fill="none" stroke="red" stroke-width="0.21" d="M1695.94,-71.08C1692.99,-70.17 1689.91,-69.27 1687,-68.53 1601.3,-46.54 1497.78,-28.93 1450.22,-21.33"/>
<polygon fill="red" stroke="red" stroke-width="0.21" points="1450.58,-17.84 1440.16,-19.74 1449.49,-24.76 1450.58,-17.84"/>
</g>
<!-- &#45;15 -->
<g id="node15" class="node">
<title>&#45;15</title>
<polygon fill="lightgray" stroke="black" points="758,-86.53 726,-86.53 726,-68.53 758,-68.53 758,-86.53"/>
<text text-anchor="middle" x="742" y="-75.33" font-family="Times,serif" font-size="9.00">&#45;15</text>
</g>
<!-- &#45;15&#45;&gt;1 -->
<g id="edge43" class="edge">
<title>&#45;15&#45;&gt;1</title>
<path fill="none" stroke="green" stroke-width="0.37" d="M758.02,-70.93C760.98,-70.03 764.06,-69.18 767,-68.53 903.51,-38.07 1070.95,-23.7 1134.69,-19.04"/>
<polygon fill="green" stroke="green" stroke-width="0.37" points="1134.95,-22.53 1144.68,-18.33 1134.46,-15.55 1134.95,-22.53"/>
</g>
<!-- &#45;15&#45;&gt;2 -->
<g id="edge66" class="edge">
<title>&#45;15&#45;&gt;2</title>
<path fill="none" stroke="green" stroke-width="0.21" d="M725.9,-69.61C701.84,-59.28 656.32,-39.73 628.23,-27.67"/>
<polygon fill="green" stroke="green" stroke-width="0.21" points="629.31,-24.32 618.74,-23.59 626.55,-30.76 629.31,-24.32"/>
</g>
<!-- &#45;16 -->
<g id="node16" class="node">
<title>&#45;16</title>
<polygon fill="lightgray" stroke="black" points="808,-86.53 776,-86.53 776,-68.53 808,-68.53 808,-86.53"/>
<text text-anchor="middle" x="792" y="-75.33" font-family="Times,serif" font-size="9.00">&#45;16</text>
</g>
<!-- &#45;16&#45;&gt;0 -->
<g id="edge52" class="edge">
<title>&#45;16&#45;&gt;0</title>
<path fill="none" stroke="green" stroke-width="0.18" d="M792,-68.29C792,-61.7 792,-52.1 792,-43"/>
<polygon fill="green" stroke="green" stroke-width="0.18" points="795.5,-42.76 792,-32.76 788.5,-42.76 795.5,-42.76"/>
</g>
<!-- &#45;16&#45;&gt;1 -->
<g id="edge80" class="edge">
<title>&#45;16&#45;&gt;1</title>
<path fill="none" stroke="red" stroke-width="0.22" d="M808.03,-70.98C810.99,-70.07 814.07,-69.21 817,-68.53 933.85,-41.31 1076.54,-25.46 1134.57,-19.73"/>
<polygon fill="red" stroke="red" stroke-width="0.22" points="1135.09,-23.19 1144.71,-18.75 1134.41,-16.23 1135.09,-23.19"/>
</g>
<!-- &#45;16&#45;&gt;2 -->
<g id="edge51" class="edge">
<title>&#45;16&#45;&gt;2</title>
<path fill="none" stroke="red" stroke-width="0.22" d="M775.87,-71.35C772.92,-70.41 769.87,-69.44 767,-68.53 718.22,-53.05 661.17,-35.16 629.14,-25.13"/>
<polygon fill="red" stroke="red" stroke-width="0.22" points="629.88,-21.69 619.29,-22.04 627.79,-28.37 629.88,-21.69"/>
</g>
<!-- &#45;17 -->
<g id="node17" class="node">
<title>&#45;17</title>
<polygon fill="lightgray" stroke="black" points="1678,-86.53 1646,-86.53 1646,-68.53 1678,-68.53 1678,-86.53"/>
<text text-anchor="middle" x="1662" y="-75.33" font-family="Times,serif" font-size="9.00">&#45;17</text>
</g>
<!-- &#45;17&#45;&gt;1 -->
<g id="edge36" class="edge">
<title>&#45;17&#45;&gt;1</title>
<path fill="none" stroke="green" stroke-width="0.21" d="M1645.99,-70.88C1643.03,-69.98 1639.94,-69.15 1637,-68.53 1468,-32.77 1259.68,-21.28 1187.27,-18.23"/>
<polygon fill="green" stroke="green" stroke-width="0.21" points="1187.34,-14.73 1177.21,-17.82 1187.06,-21.72 1187.34,-14.73"/>
</g>
<!-- &#45;17&#45;&gt;3 -->
<g id="edge42" class="edge">
<title>&#45;17&#45;&gt;3</title>
<path fill="none" stroke="red" stroke-width="0.29" d="M1645.91,-71.19C1642.96,-70.26 1639.9,-69.34 1637,-68.53 1569.92,-49.75 1489.81,-31.6 1449.64,-22.79"/>
<polygon fill="red" stroke="red" stroke-width="0.29" points="1450.38,-19.37 1439.87,-20.66 1448.89,-26.21 1450.38,-19.37"/>
</g>
<!-- &#45;18 -->
<g id="node18" class="node">
<title>&#45;18</title>
<polygon fill="lightgray" stroke="black" points="170,-86.53 138,-86.53 138,-68.53 170,-68.53 170,-86.53"/>
<text text-anchor="middle" x="154" y="-75.33" font-family="Times,serif" font-size="9.00">&#45;18</text>
</g>
<!-- &#45;18&#45;&gt;2 -->
<g id="edge67" class="edge">
<title>&#45;18&#45;&gt;2</title>
<path fill="none" stroke="red" stroke-width="0.15" d="M170.02,-70.91C172.98,-70.01 176.06,-69.17 179,-68.53 327.57,-36.1 510.14,-22.76 577.46,-18.71"/>
<polygon fill="red" stroke="red" stroke-width="0.15" points="577.82,-22.2 587.6,-18.12 577.41,-15.21 577.82,-22.2"/>
</g>
<!-- &#45;19 -->
<g id="node19" class="node">
<title>&#45;19</title>
<polygon fill="lightgray" stroke="black" points="1878,-86.53 1846,-86.53 1846,-68.53 1878,-68.53 1878,-86.53"/>
<text text-anchor="middle" x="1862" y="-75.33" font-family="Times,serif" font-size="9.00">&#45;19</text>
</g>
<!-- &#45;20 -->
<g id="node20" class="node">
<title>&#45;20</title>
<polygon fill="lightgray" stroke="black" points="270,-86.53 238,-86.53 238,-68.53 270,-68.53 270,-86.53"/>
<text text-anchor="middle" x="254" y="-75.33" font-family="Times,serif" font-size="9.00">&#45;20</text>
</g>
<!-- &#45;20&#45;&gt;0 -->
<g id="edge73" class="edge">
<title>&#45;20&#45;&gt;0</title>
<path fill="none" stroke="green" stroke-width="0.2" d="M270.01,-70.86C272.97,-69.97 276.06,-69.14 279,-68.53 303.1,-63.53 664.59,-29.27 765.83,-19.72"/>
<polygon fill="green" stroke="green" stroke-width="0.2" points="766.2,-23.21 775.83,-18.78 765.54,-16.24 766.2,-23.21"/>
</g>
<!-- &#45;20&#45;&gt;2 -->
<g id="edge2" class="edge">
<title>&#45;20&#45;&gt;2</title>
<path fill="none" stroke="red" stroke-width="0.43" d="M270.04,-71C272.99,-70.09 276.07,-69.22 279,-68.53 388.68,-42.49 522.39,-26.13 577.91,-20"/>
<polygon fill="red" stroke="red" stroke-width="0.43" points="578.37,-23.47 587.94,-18.91 577.62,-16.51 578.37,-23.47"/>
</g>
<!-- &#45;21 -->
<g id="node21" class="node">
<title>&#45;21</title>
<polygon fill="lightgray" stroke="black" points="1202,-86.53 1170,-86.53 1170,-68.53 1202,-68.53 1202,-86.53"/>
<text text-anchor="middle" x="1186" y="-75.33" font-family="Times,serif" font-size="9.00">&#45;21</text>
</g>
<!-- &#45;21&#45;&gt;0 -->
<g id="edge72" class="edge">
<title>&#45;21&#45;&gt;0</title>
<path fill="none" stroke="green" stroke-width="0.21" d="M1169.97,-70.95C1167.01,-70.05 1163.93,-69.19 1161,-68.53 1034.54,-39.73 879.8,-24.6 818.66,-19.39"/>
<polygon fill="green" stroke="green" stroke-width="0.21" points="818.62,-15.87 808.37,-18.53 818.04,-22.85 818.62,-15.87"/>
</g>
<!-- &#45;21&#45;&gt;1 -->
<g id="edge41" class="edge">
<title>&#45;21&#45;&gt;1</title>
<path fill="none" stroke="green" stroke-width="0.27" d="M1182.52,-68.29C1179.55,-61.23 1175.1,-50.7 1171.03,-41.03"/>
<polygon fill="green" stroke="green" stroke-width="0.27" points="1174.25,-39.67 1167.14,-31.82 1167.8,-42.39 1174.25,-39.67"/>
</g>
<!-- &#45;21&#45;&gt;2 -->
<g id="edge69" class="edge">
<title>&#45;21&#45;&gt;2</title>
<path fill="none" stroke="red" stroke-width="0.45" d="M1170,-70.84C1167.04,-69.95 1163.95,-69.13 1161,-68.53 988.68,-33.52 942.09,-48.72 767,-32.53 718.9,-28.08 662.82,-22.81 630.56,-19.77"/>
<polygon fill="red" stroke="red" stroke-width="0.45" points="630.48,-16.25 620.19,-18.79 629.82,-23.22 630.48,-16.25"/>
</g>
<!-- &#45;21&#45;&gt;3 -->
<g id="edge15" class="edge">
<title>&#45;21&#45;&gt;3</title>
<path fill="none" stroke="red" stroke-width="0.2" d="M1202.09,-71.19C1205.04,-70.26 1208.1,-69.34 1211,-68.53 1278.08,-49.75 1358.19,-31.6 1398.36,-22.79"/>
<polygon fill="red" stroke="red" stroke-width="0.2" points="1399.11,-26.21 1408.13,-20.66 1397.62,-19.37 1399.11,-26.21"/>
</g>
<!-- &#45;22 -->
<g id="node22" class="node">
<title>&#45;22</title>
<polygon fill="lightgray" stroke="black" points="908,-86.53 876,-86.53 876,-68.53 908,-68.53 908,-86.53"/>
<text text-anchor="middle" x="892" y="-75.33" font-family="Times,serif" font-size="9.00">&#45;22</text>
</g>
<!-- &#45;22&#45;&gt;0 -->
<g id="edge64" class="edge">
<title>&#45;22&#45;&gt;0</title>
<path fill="none" stroke="red" stroke-width="0.11" d="M878.1,-68.29C861.68,-58.56 834.14,-42.24 814.63,-30.68"/>
<polygon fill="red" stroke="red" stroke-width="0.11" points="816.17,-27.52 805.79,-25.43 812.6,-33.54 816.17,-27.52"/>
</g>
<!-- &#45;22&#45;&gt;2 -->
<g id="edge11" class="edge">
<title>&#45;22&#45;&gt;2</title>
<path fill="none" stroke="green" stroke-width="0.11" d="M875.94,-71.08C872.99,-70.17 869.91,-69.27 867,-68.53 781.3,-46.54 677.78,-28.93 630.22,-21.33"/>
<polygon fill="green" stroke="green" stroke-width="0.11" points="630.58,-17.84 620.16,-19.74 629.49,-24.76 630.58,-17.84"/>
</g>
<!-- &#45;22&#45;&gt;3 -->
<g id="edge58" class="edge">
<title>&#45;22&#45;&gt;3</title>
<path fill="none" stroke="red" stroke-width="0.28" d="M908.01,-70.86C910.97,-69.97 914.06,-69.14 917,-68.53 1010.54,-49.06 1307.15,-25.95 1397.57,-19.2"/>
<polygon fill="red" stroke="red" stroke-width="0.28" points="1398.07,-22.67 1407.78,-18.44 1397.55,-15.69 1398.07,-22.67"/>
</g>
<!-- &#45;23 -->
<g id="node23" class="node">
<title>&#45;23</title>
<polygon fill="lightgray" stroke="black" points="1058,-86.53 1026,-86.53 1026,-68.53 1058,-68.53 1058,-86.53"/>
<text text-anchor="middle" x="1042" y="-75.33" font-family="Times,serif" font-size="9.00">&#45;23</text>
</g>
<!-- &#45;23&#45;&gt;0 -->
<g id="edge38" class="edge">
<title>&#45;23&#45;&gt;0</title>
<path fill="none" stroke="red" stroke-width="0.19" d="M1025.92,-71.16C1022.97,-70.24 1019.9,-69.32 1017,-68.53 945.54,-48.99 859.93,-30.93 817.89,-22.41"/>
<polygon fill="red" stroke="red" stroke-width="0.19" points="818.43,-18.95 807.94,-20.4 817.05,-25.81 818.43,-18.95"/>
</g>
<!-- &#45;23&#45;&gt;1 -->
<g id="edge28" class="edge">
<title>&#45;23&#45;&gt;1</title>
<path fill="none" stroke="green" stroke-width="0.44" d="M1058.05,-68.53C1078.48,-58.36 1113.93,-40.7 1137.43,-29"/>
<polygon fill="green" stroke="green" stroke-width="0.44" points="1139.3,-31.98 1146.69,-24.39 1136.18,-25.71 1139.3,-31.98"/>
</g>
<!-- &#45;24 -->
<g id="node24" class="node">
<title>&#45;24</title>
<polygon fill="lightgray" stroke="black" points="858,-86.53 826,-86.53 826,-68.53 858,-68.53 858,-86.53"/>
<text text-anchor="middle" x="842" y="-75.33" font-family="Times,serif" font-size="9.00">&#45;24</text>
</g>
<!-- &#45;24&#45;&gt;1 -->
<g id="edge25" class="edge">
<title>&#45;24&#45;&gt;1</title>
<path fill="none" stroke="green" stroke-width="0.41" d="M858.05,-71.04C861,-70.12 864.08,-69.25 867,-68.53 964.7,-44.5 1083.35,-27.43 1134.94,-20.58"/>
<polygon fill="green" stroke="green" stroke-width="0.41" points="1135.44,-24.05 1144.91,-19.28 1134.54,-17.11 1135.44,-24.05"/>
</g>
<!-- &#45;24&#45;&gt;2 -->
<g id="edge20" class="edge">
<title>&#45;24&#45;&gt;2</title>
<path fill="none" stroke="green" stroke-width="0.31" d="M825.91,-71.19C822.96,-70.26 819.9,-69.34 817,-68.53 749.92,-49.75 669.81,-31.6 629.64,-22.79"/>
<polygon fill="green" stroke="green" stroke-width="0.31" points="630.38,-19.37 619.87,-20.66 628.89,-26.21 630.38,-19.37"/>
</g>
<!-- &#45;25 -->
<g id="node25" class="node">
<title>&#45;25</title>
<polygon fill="lightgray" stroke="black" points="220,-86.53 188,-86.53 188,-68.53 220,-68.53 220,-86.53"/>
<text text-anchor="middle" x="204" y="-75.33" font-family="Times,serif" font-size="9.00">&#45;25</text>
</g>
<!-- &#45;25&#45;&gt;2 -->
<g id="edge45" class="edge">
<title>&#45;25&#45;&gt;2</title>
<path fill="none" stroke="green" stroke-width="0.16" d="M220.02,-70.95C222.98,-70.05 226.07,-69.19 229,-68.53 358.07,-39.29 516.16,-24.33 577.72,-19.27"/>
<polygon fill="green" stroke="green" stroke-width="0.16" points="578.05,-22.76 587.74,-18.47 577.49,-15.78 578.05,-22.76"/>
</g>
<!-- &#45;26 -->
<g id="node26" class="node">
<title>&#45;26</title>
<polygon fill="lightgray" stroke="black" points="470,-86.53 438,-86.53 438,-68.53 470,-68.53 470,-86.53"/>
<text text-anchor="middle" x="454" y="-75.33" font-family="Times,serif" font-size="9.00">&#45;26</text>
</g>
<!-- &#45;26&#45;&gt;0 -->
<g id="edge62" class="edge">
<title>&#45;26&#45;&gt;0</title>
<path fill="none" stroke="green" stroke-width="0.33" d="M470.04,-71.01C473,-70.1 476.08,-69.23 479,-68.53 583.93,-43.29 711.66,-26.65 765.77,-20.23"/>
<polygon fill="green" stroke="green" stroke-width="0.33" points="766.35,-23.69 775.87,-19.05 765.53,-16.74 766.35,-23.69"/>
</g>
<!-- &#45;26&#45;&gt;1 -->
<g id="edge29" class="edge">
<title>&#45;26&#45;&gt;1</title>
<path fill="none" stroke="green" stroke-width="0.45" d="M470.26,-70.72C473.14,-69.86 476.14,-69.08 479,-68.53 608.16,-43.37 1024.88,-23.35 1134.42,-18.43"/>
<polygon fill="green" stroke="green" stroke-width="0.45" points="1134.76,-21.91 1144.59,-17.97 1134.45,-14.92 1134.76,-21.91"/>
</g>
<!-- &#45;26&#45;&gt;2 -->
<g id="edge46" class="edge">
<title>&#45;26&#45;&gt;2</title>
<path fill="none" stroke="green" stroke-width="0.33" d="M470.05,-70.18C496.26,-59.83 548.42,-39.22 579.35,-27"/>
<polygon fill="green" stroke="green" stroke-width="0.33" points="580.94,-30.14 588.96,-23.21 578.37,-23.63 580.94,-30.14"/>
</g>
<!-- &#45;27 -->
<g id="node27" class="node">
<title>&#45;27</title>
<polygon fill="lightgray" stroke="black" points="520,-86.53 488,-86.53 488,-68.53 520,-68.53 520,-86.53"/>
<text text-anchor="middle" x="504" y="-75.33" font-family="Times,serif" font-size="9.00">&#45;27</text>
</g>
<!-- &#45;27&#45;&gt;1 -->
<g id="edge19" class="edge">
<title>&#45;27&#45;&gt;1</title>
<path fill="none" stroke="red" stroke-width="0.31" d="M520.27,-70.73C523.15,-69.88 526.14,-69.09 529,-68.53 647.91,-45 1029.94,-24.01 1134.39,-18.61"/>
<polygon fill="red" stroke="red" stroke-width="0.31" points="1134.87,-22.09 1144.68,-18.08 1134.51,-15.1 1134.87,-22.09"/>
</g>
<!-- &#45;27&#45;&gt;2 -->
<g id="edge35" class="edge">
<title>&#45;27&#45;&gt;2</title>
<path fill="none" stroke="red" stroke-width="0.18" d="M517.9,-68.29C534.32,-58.56 561.86,-42.24 581.37,-30.68"/>
<polygon fill="red" stroke="red" stroke-width="0.18" points="583.4,-33.54 590.21,-25.43 579.83,-27.52 583.4,-33.54"/>
</g>
<!-- &#45;28 -->
<g id="node28" class="node">
<title>&#45;28</title>
<polygon fill="lightgray" stroke="black" points="1778,-86.53 1746,-86.53 1746,-68.53 1778,-68.53 1778,-86.53"/>
<text text-anchor="middle" x="1762" y="-75.33" font-family="Times,serif" font-size="9.00">&#45;28</text>
</g>
<!-- &#45;28&#45;&gt;3 -->
<g id="edge39" class="edge">
<title>&#45;28&#45;&gt;3</title>
<path fill="none" stroke="red" stroke-width="0.2" d="M1745.96,-71.01C1743,-70.1 1739.92,-69.23 1737,-68.53 1632.07,-43.29 1504.34,-26.65 1450.23,-20.23"/>
<polygon fill="red" stroke="red" stroke-width="0.2" points="1450.47,-16.74 1440.13,-19.05 1449.65,-23.69 1450.47,-16.74"/>
</g>
<!-- &#45;29 -->
<g id="node29" class="node">
<title>&#45;29</title>
<polygon fill="lightgray" stroke="black" points="1534,-86.53 1502,-86.53 1502,-68.53 1534,-68.53 1534,-86.53"/>
<text text-anchor="middle" x="1518" y="-75.33" font-family="Times,serif" font-size="9.00">&#45;29</text>
</g>
<!-- &#45;29&#45;&gt;1 -->
<g id="edge5" class="edge">
<title>&#45;29&#45;&gt;1</title>
<path fill="none" stroke="green" stroke-width="0.25" d="M1501.97,-70.99C1499.01,-70.08 1495.93,-69.22 1493,-68.53 1380.71,-42.06 1243.73,-25.89 1187.26,-19.9"/>
<polygon fill="green" stroke="green" stroke-width="0.25" points="1187.37,-16.4 1177.07,-18.84 1186.65,-23.36 1187.37,-16.4"/>
</g>
<!-- &#45;29&#45;&gt;3 -->
<g id="edge6" class="edge">
<title>&#45;29&#45;&gt;3</title>
<path fill="none" stroke="green" stroke-width="0.12" d="M1504.93,-68.29C1489.74,-58.71 1464.42,-42.75 1446.15,-31.23"/>
<polygon fill="green" stroke="green" stroke-width="0.12" points="1447.89,-28.19 1437.57,-25.82 1444.16,-34.11 1447.89,-28.19"/>
</g>
<!-- &#45;30 -->
<g id="node30" class="node">
<title>&#45;30</title>
<polygon fill="lightgray" stroke="black" points="570,-86.53 538,-86.53 538,-68.53 570,-68.53 570,-86.53"/>
<text text-anchor="middle" x="554" y="-75.33" font-family="Times,serif" font-size="9.00">&#45;30</text>
</g>
<!-- &#45;30&#45;&gt;0 -->
<g id="edge65" class="edge">
<title>&#45;30&#45;&gt;0</title>
<path fill="none" stroke="green" stroke-width="0.23" d="M570.09,-71.19C573.04,-70.26 576.1,-69.34 579,-68.53 646.08,-49.75 726.19,-31.6 766.36,-22.79"/>
<polygon fill="green" stroke="green" stroke-width="0.23" points="767.11,-26.21 776.13,-20.66 765.62,-19.37 767.11,-26.21"/>
</g>
<!-- &#45;30&#45;&gt;1 -->
<g id="edge49" class="edge">
<title>&#45;30&#45;&gt;1</title>
<path fill="none" stroke="green" stroke-width="0.22" d="M570.27,-70.75C573.15,-69.89 576.14,-69.1 579,-68.53 790.26,-25.97 1051.73,-18.74 1134.56,-17.51"/>
<polygon fill="green" stroke="green" stroke-width="0.22" points="1134.66,-21.01 1144.61,-17.38 1134.57,-14.01 1134.66,-21.01"/>
</g>
<!-- &#45;30&#45;&gt;2 -->
<g id="edge63" class="edge">
<title>&#45;30&#45;&gt;2</title>
<path fill="none" stroke="green" stroke-width="0.26" d="M560.95,-68.29C567.79,-60.18 578.5,-47.49 587.52,-36.79"/>
<polygon fill="green" stroke="green" stroke-width="0.26" points="590.23,-39.01 594,-29.11 584.88,-34.5 590.23,-39.01"/>
</g>
<!-- &#45;31 -->
<g id="node31" class="node">
<title>&#45;31</title>
<polygon fill="lightgray" stroke="black" points="620,-86.53 588,-86.53 588,-68.53 620,-68.53 620,-86.53"/>
<text text-anchor="middle" x="604" y="-75.33" font-family="Times,serif" font-size="9.00">&#45;31</text>
</g>
<!-- &#45;31&#45;&gt;0 -->
<g id="edge68" class="edge">
<title>&#45;31&#45;&gt;0</title>
<path fill="none" stroke="red" stroke-width="0.2" d="M620.13,-71.35C623.08,-70.41 626.13,-69.44 629,-68.53 677.78,-53.05 734.83,-35.16 766.86,-25.13"/>
<polygon fill="red" stroke="red" stroke-width="0.2" points="768.21,-28.37 776.71,-22.04 766.12,-21.69 768.21,-28.37"/>
</g>
<!-- &#45;31&#45;&gt;1 -->
<g id="edge71" class="edge">
<title>&#45;31&#45;&gt;1</title>
<path fill="none" stroke="red" stroke-width="0.19" d="M620,-70.85C622.97,-69.96 626.05,-69.13 629,-68.53 820.01,-29.23 1055.95,-19.91 1134.31,-17.83"/>
<polygon fill="red" stroke="red" stroke-width="0.19" points="1134.8,-21.32 1144.71,-17.57 1134.62,-14.32 1134.8,-21.32"/>
</g>
<!-- &#45;31&#45;&gt;2 -->
<g id="edge31" class="edge">
<title>&#45;31&#45;&gt;2</title>
<path fill="none" stroke="red" stroke-width="0.16" d="M604,-68.29C604,-61.7 604,-52.1 604,-43"/>
<polygon fill="red" stroke="red" stroke-width="0.16" points="607.5,-42.76 604,-32.76 600.5,-42.76 607.5,-42.76"/>
</g>
<!-- &#45;32 -->
<g id="node32" class="node">
<title>&#45;32</title>
<polygon fill="lightgray" stroke="black" points="1828,-86.53 1796,-86.53 1796,-68.53 1828,-68.53 1828,-86.53"/>
<text text-anchor="middle" x="1812" y="-75.33" font-family="Times,serif" font-size="9.00">&#45;32</text>
</g>
<!-- &#45;32&#45;&gt;3 -->
<g id="edge75" class="edge">
<title>&#45;32&#45;&gt;3</title>
<path fill="none" stroke="red" stroke-width="0.12" d="M1795.97,-70.96C1793.01,-70.05 1789.93,-69.2 1787,-68.53 1662.89,-40.12 1511.08,-24.81 1450.65,-19.47"/>
<polygon fill="red" stroke="red" stroke-width="0.12" points="1450.73,-15.96 1440.46,-18.59 1450.12,-22.94 1450.73,-15.96"/>
</g>
<!-- &#45;33 -->
<g id="node33" class="node">
<title>&#45;33</title>
<polygon fill="lightgray" stroke="black" points="1928,-86.53 1896,-86.53 1896,-68.53 1928,-68.53 1928,-86.53"/>
<text text-anchor="middle" x="1912" y="-75.33" font-family="Times,serif" font-size="9.00">&#45;33</text>
</g>
<!-- &#45;34 -->
<g id="node34" class="node">
<title>&#45;34</title>
<polygon fill="lightgray" stroke="black" points="320,-86.53 288,-86.53 288,-68.53 320,-68.53 320,-86.53"/>
<text text-anchor="middle" x="304" y="-75.33" font-family="Times,serif" font-size="9.00">&#45;34</text>
</g>
<!-- &#45;34&#45;&gt;0 -->
<g id="edge4" class="edge">
<title>&#45;34&#45;&gt;0</title>
<path fill="none" stroke="green" stroke-width="0.12" d="M320.01,-70.88C322.97,-69.99 326.06,-69.15 329,-68.53 371.85,-59.39 673.89,-28.99 765.63,-19.87"/>
<polygon fill="green" stroke="green" stroke-width="0.12" points="766.14,-23.34 775.75,-18.87 765.45,-16.37 766.14,-23.34"/>
</g>
<!-- &#45;34&#45;&gt;2 -->
<g id="edge7" class="edge">
<title>&#45;34&#45;&gt;2</title>
<path fill="none" stroke="green" stroke-width="0.39" d="M320.05,-71.06C323.01,-70.15 326.08,-69.26 329,-68.53 419.41,-45.73 528.87,-28.3 577.97,-21"/>
<polygon fill="green" stroke="green" stroke-width="0.39" points="578.65,-24.44 588.04,-19.52 577.64,-17.51 578.65,-24.44"/>
</g>
<!-- &#45;35 -->
<g id="node35" class="node">
<title>&#45;35</title>
<polygon fill="lightgray" stroke="black" points="1584,-86.53 1552,-86.53 1552,-68.53 1584,-68.53 1584,-86.53"/>
<text text-anchor="middle" x="1568" y="-75.33" font-family="Times,serif" font-size="9.00">&#45;35</text>
</g>
<!-- &#45;35&#45;&gt;1 -->
<g id="edge57" class="edge">
<title>&#45;35&#45;&gt;1</title>
<path fill="none" stroke="red" stroke-width="0.47" d="M1551.98,-70.94C1549.02,-70.04 1545.93,-69.19 1543,-68.53 1411.22,-38.84 1249.72,-24.1 1187.33,-19.19"/>
<polygon fill="red" stroke="red" stroke-width="0.47" points="1187.43,-15.69 1177.19,-18.41 1186.89,-22.67 1187.43,-15.69"/>
</g>
<!-- &#45;35&#45;&gt;3 -->
<g id="edge37" class="edge">
<title>&#45;35&#45;&gt;3</title>
<path fill="none" stroke="red" stroke-width="0.38" d="M1551.76,-69.84C1526.5,-59.45 1477.63,-39.33 1448.2,-27.22"/>
<polygon fill="red" stroke="red" stroke-width="0.38" points="1449.25,-23.87 1438.67,-23.3 1446.58,-30.34 1449.25,-23.87"/>
</g>
<!-- &#45;36 -->
<g id="node36" class="node">
<title>&#45;36</title>
<polygon fill="lightgray" stroke="black" points="1152,-86.53 1120,-86.53 1120,-68.53 1152,-68.53 1152,-86.53"/>
<text text-anchor="middle" x="1136" y="-75.33" font-family="Times,serif" font-size="9.00">&#45;36</text>
</g>
<!-- &#45;36&#45;&gt;0 -->
<g id="edge44" class="edge">
<title>&#45;36&#45;&gt;0</title>
<path fill="none" stroke="green" stroke-width="0.3" d="M1119.96,-71C1117,-70.1 1113.93,-69.23 1111,-68.53 1003.81,-42.92 873.27,-26.42 818.34,-20.14"/>
<polygon fill="green" stroke="green" stroke-width="0.3" points="818.43,-16.62 808.1,-18.98 817.65,-23.58 818.43,-16.62"/>
</g>
<!-- &#45;36&#45;&gt;1 -->
<g id="edge56" class="edge">
<title>&#45;36&#45;&gt;1</title>
<path fill="none" stroke="green" stroke-width="0.11" d="M1139.48,-68.29C1142.45,-61.23 1146.9,-50.7 1150.97,-41.03"/>
<polygon fill="green" stroke="green" stroke-width="0.11" points="1154.2,-42.39 1154.86,-31.82 1147.75,-39.67 1154.2,-42.39"/>
</g>
<!-- &#45;37 -->
<g id="node37" class="node">
<title>&#45;37</title>
<polygon fill="lightgray" stroke="black" points="1440,-86.53 1408,-86.53 1408,-68.53 1440,-68.53 1440,-86.53"/>
<text text-anchor="middle" x="1424" y="-75.33" font-family="Times,serif" font-size="9.00">&#45;37</text>
</g>
<!-- &#45;37&#45;&gt;1 -->
<g id="edge21" class="edge">
<title>&#45;37&#45;&gt;1</title>
<path fill="none" stroke="green" stroke-width="0.43" d="M1407.93,-71.13C1404.98,-70.21 1401.91,-69.3 1399,-68.53 1322.61,-48.13 1230.77,-30.17 1186.85,-21.97"/>
<polygon fill="green" stroke="green" stroke-width="0.43" points="1187.47,-18.53 1177,-20.15 1186.2,-25.41 1187.47,-18.53"/>
</g>
<!-- &#45;38 -->
<g id="node38" class="node">
<title>&#45;38</title>
<polygon fill="lightgray" stroke="black" points="1008,-86.53 976,-86.53 976,-68.53 1008,-68.53 1008,-86.53"/>
<text text-anchor="middle" x="992" y="-75.33" font-family="Times,serif" font-size="9.00">&#45;38</text>
</g>
<!-- &#45;38&#45;&gt;0 -->
<g id="edge26" class="edge">
<title>&#45;38&#45;&gt;0</title>
<path fill="none" stroke="red" stroke-width="0.13" d="M975.88,-71.3C972.93,-70.37 969.88,-69.41 967,-68.53 914.01,-52.29 851.66,-34.29 817.53,-24.53"/>
<polygon fill="red" stroke="red" stroke-width="0.13" points="818.07,-21.04 807.49,-21.66 816.14,-27.77 818.07,-21.04"/>
</g>
<!-- &#45;38&#45;&gt;2 -->
<g id="edge77" class="edge">
<title>&#45;38&#45;&gt;2</title>
<path fill="none" stroke="green" stroke-width="0.13" d="M975.97,-70.96C973.01,-70.05 969.93,-69.2 967,-68.53 842.89,-40.12 691.08,-24.81 630.65,-19.47"/>
<polygon fill="green" stroke="green" stroke-width="0.13" points="630.73,-15.96 620.46,-18.59 630.12,-22.94 630.73,-15.96"/>
</g>
<!-- &#45;38&#45;&gt;3 -->
<g id="edge54" class="edge">
<title>&#45;38&#45;&gt;3</title>
<path fill="none" stroke="red" stroke-width="0.19" d="M1008.02,-70.92C1010.98,-70.02 1014.06,-69.18 1017,-68.53 1158.33,-37.29 1331.79,-23.34 1397.28,-18.92"/>
<polygon fill="red" stroke="red" stroke-width="0.19" points="1397.78,-22.39 1407.53,-18.24 1397.32,-15.41 1397.78,-22.39"/>
</g>
<!-- &#45;39 -->
<g id="node39" class="node">
<title>&#45;39</title>
<polygon fill="lightgray" stroke="black" points="1346,-86.53 1314,-86.53 1314,-68.53 1346,-68.53 1346,-86.53"/>
<text text-anchor="middle" x="1330" y="-75.33" font-family="Times,serif" font-size="9.00">&#45;39</text>
</g>
<!-- &#45;39&#45;&gt;0 -->
<g id="edge33" class="edge">
<title>&#45;39&#45;&gt;0</title>
<path fill="none" stroke="green" stroke-width="0.22" d="M1313.99,-70.86C1311.03,-69.97 1307.94,-69.14 1305,-68.53 1121.65,-30.47 895.36,-20.38 818.77,-17.96"/>
<polygon fill="green" stroke="green" stroke-width="0.22" points="818.68,-14.46 808.58,-17.66 818.47,-21.45 818.68,-14.46"/>
</g>
<!-- &#45;39&#45;&gt;1 -->
<g id="edge78" class="edge">
<title>&#45;39&#45;&gt;1</title>
<path fill="none" stroke="red" stroke-width="0.22" d="M1313.8,-70.84C1284.17,-60.46 1221.09,-38.33 1185.95,-26.01"/>
<polygon fill="red" stroke="red" stroke-width="0.22" points="1187.01,-22.68 1176.42,-22.67 1184.7,-29.28 1187.01,-22.68"/>
</g>
<!-- &#45;39&#45;&gt;3 -->
<g id="edge79" class="edge">
<title>&#45;39&#45;&gt;3</title>
<path fill="none" stroke="red" stroke-width="0.12" d="M1343.07,-68.29C1358.26,-58.71 1383.58,-42.75 1401.85,-31.23"/>
<polygon fill="red" stroke="red" stroke-width="0.12" points="1403.84,-34.11 1410.43,-25.82 1400.11,-28.19 1403.84,-34.11"/>
</g>
<!-- &#45;40 -->
<g id="node40" class="node">
<title>&#45;40</title>
<polygon fill="lightgray" stroke="black" points="76,-86.53 44,-86.53 44,-68.53 76,-68.53 76,-86.53"/>
<text text-anchor="middle" x="60" y="-75.33" font-family="Times,serif" font-size="9.00">&#45;40</text>
</g>
<!-- &#45;40&#45;&gt;2 -->
<g id="edge10" class="edge">
<title>&#45;40&#45;&gt;2</title>
<path fill="none" stroke="green" stroke-width="0.46" d="M76,-70.86C78.97,-69.96 82.05,-69.14 85,-68.53 270.92,-30.05 500.47,-20.21 577.44,-17.91"/>
<polygon fill="green" stroke="green" stroke-width="0.46" points="577.77,-21.4 587.67,-17.62 577.57,-14.41 577.77,-21.4"/>
</g>
<!-- 0&#45;&gt;0 -->
<g id="edge23" class="edge">
<title>0&#45;&gt;0</title>
<path fill="none" stroke="green" stroke-width="0.28" d="M805.36,-26.06C815.71,-29.72 826.26,-26.46 826.26,-16.26 826.26,-9.57 821.72,-5.87 815.67,-5.14"/>
<polygon fill="green" stroke="green" stroke-width="0.28" points="814.84,-1.72 805.36,-6.47 815.73,-8.67 814.84,-1.72"/>
</g>
<!-- 3&#45;&gt;3 -->
<g id="edge53" class="edge">
<title>3&#45;&gt;3</title>
<path fill="none" stroke="red" stroke-width="0.3" d="M1437.36,-26.06C1447.71,-29.72 1458.26,-26.46 1458.26,-16.26 1458.26,-9.57 1453.72,-5.87 1447.67,-5.14"/>
<polygon fill="red" stroke="red" stroke-width="0.3" points="1446.84,-1.72 1437.36,-6.47 1447.73,-8.67 1446.84,-1.72"/>
</g>
</g>
</svg>
