<?xml version="1.0" encoding="UTF-8" standalone="no"?>
<!DOCTYPE svg PUBLIC "-//W3C//DTD SVG 1.1//EN"
 "http://www.w3.org/Graphics/SVG/1.1/DTD/svg11.dtd">
<!-- Generated by graphviz version 2.43.0 (0)
 -->
<!-- Title: %3 Pages: 1 -->
<svg width="1136pt" height="172pt"
 viewBox="0.00 0.00 1136.00 171.54" xmlns="http://www.w3.org/2000/svg" xmlns:xlink="http://www.w3.org/1999/xlink">
<g id="graph0" class="graph" transform="scale(1 1) rotate(0) translate(4 167.54)">
<title>%3</title>
<polygon fill="white" stroke="transparent" points="-4,4 -4,-167.54 1132,-167.54 1132,4 -4,4"/>
<!-- &#45;1 -->
<g id="node1" class="node">
<title>&#45;1</title>
<polygon fill="lightgray" stroke="black" points="126,-163.54 100,-163.54 100,-145.54 126,-145.54 126,-163.54"/>
<text text-anchor="middle" x="113" y="-152.34" font-family="Times,serif" font-size="9.00">&#45;1</text>
</g>
<!-- 0 -->
<g id="node25" class="node">
<title>0</title>
<ellipse fill="lightblue" stroke="black" cx="507" cy="-93.28" rx="16.03" ry="16.03"/>
<text text-anchor="middle" x="507" y="-91.08" font-family="Times,serif" font-size="9.00">0</text>
</g>
<!-- &#45;1&#45;&gt;0 -->
<g id="edge43" class="edge">
<title>&#45;1&#45;&gt;0</title>
<path fill="none" stroke="green" stroke-width="0.29" d="M126.36,-148.17C129.18,-147.18 132.16,-146.24 135,-145.54 143.46,-143.44 397.48,-109.06 480.81,-97.81"/>
<polygon fill="green" stroke="green" stroke-width="0.29" points="481.52,-101.25 490.96,-96.44 480.58,-94.31 481.52,-101.25"/>
</g>
<!-- 3 -->
<g id="node28" class="node">
<title>3</title>
<ellipse fill="lightblue" stroke="black" cx="367" cy="-93.28" rx="16.03" ry="16.03"/>
<text text-anchor="middle" x="367" y="-91.08" font-family="Times,serif" font-size="9.00">3</text>
</g>
<!-- &#45;1&#45;&gt;3 -->
<g id="edge24" class="edge">
<title>&#45;1&#45;&gt;3</title>
<path fill="none" stroke="red" stroke-width="0.12" d="M126.4,-148.35C129.22,-147.35 132.19,-146.36 135,-145.54 208.76,-124.08 297.97,-106.72 341.12,-98.84"/>
<polygon fill="red" stroke="red" stroke-width="0.12" points="341.85,-102.27 351.07,-97.05 340.6,-95.38 341.85,-102.27"/>
</g>
<!-- &#45;2 -->
<g id="node2" class="node">
<title>&#45;2</title>
<polygon fill="lightgray" stroke="black" points="784,-163.54 758,-163.54 758,-145.54 784,-145.54 784,-163.54"/>
<text text-anchor="middle" x="771" y="-152.34" font-family="Times,serif" font-size="9.00">&#45;2</text>
</g>
<!-- &#45;2&#45;&gt;0 -->
<g id="edge17" class="edge">
<title>&#45;2&#45;&gt;0</title>
<path fill="none" stroke="green" stroke-width="0.25" d="M757.6,-148.33C754.78,-147.33 751.81,-146.34 749,-145.54 708.25,-133.88 586.45,-109.72 532.83,-99.27"/>
<polygon fill="green" stroke="green" stroke-width="0.25" points="533.25,-95.79 522.77,-97.32 531.91,-102.66 533.25,-95.79"/>
</g>
<!-- 1 -->
<g id="node26" class="node">
<title>1</title>
<ellipse fill="lightblue" stroke="black" cx="705" cy="-93.28" rx="16.03" ry="16.03"/>
<text text-anchor="middle" x="705" y="-91.08" font-family="Times,serif" font-size="9.00">1</text>
</g>
<!-- &#45;2&#45;&gt;1 -->
<g id="edge16" class="edge">
<title>&#45;2&#45;&gt;1</title>
<path fill="none" stroke="red" stroke-width="0.43" d="M761.82,-145.3C752.18,-136.64 736.71,-122.75 724.35,-111.65"/>
<polygon fill="red" stroke="red" stroke-width="0.43" points="726.55,-108.92 716.77,-104.85 721.87,-114.13 726.55,-108.92"/>
</g>
<!-- &#45;3 -->
<g id="node3" class="node">
<title>&#45;3</title>
<polygon fill="lightgray" stroke="black" points="740,-163.54 714,-163.54 714,-145.54 740,-145.54 740,-163.54"/>
<text text-anchor="middle" x="727" y="-152.34" font-family="Times,serif" font-size="9.00">&#45;3</text>
</g>
<!-- &#45;3&#45;&gt;1 -->
<g id="edge41" class="edge">
<title>&#45;3&#45;&gt;1</title>
<path fill="none" stroke="red" stroke-width="0.36" d="M723.94,-145.3C721.35,-138.31 717.49,-127.93 713.94,-118.35"/>
<polygon fill="red" stroke="red" stroke-width="0.36" points="717.16,-116.99 710.4,-108.83 710.6,-119.42 717.16,-116.99"/>
</g>
<!-- 2 -->
<g id="node27" class="node">
<title>2</title>
<ellipse fill="lightblue" stroke="black" cx="615" cy="-93.28" rx="16.03" ry="16.03"/>
<text text-anchor="middle" x="615" y="-91.08" font-family="Times,serif" font-size="9.00">2</text>
</g>
<!-- &#45;3&#45;&gt;2 -->
<g id="edge20" class="edge">
<title>&#45;3&#45;&gt;2</title>
<path fill="none" stroke="green" stroke-width="0.16" d="M713.71,-146.51C695.05,-136.64 660.82,-118.52 637.98,-106.44"/>
<polygon fill="green" stroke="green" stroke-width="0.16" points="639.45,-103.25 628.97,-101.67 636.17,-109.44 639.45,-103.25"/>
</g>
<!-- &#45;3&#45;&gt;3 -->
<g id="edge13" class="edge">
<title>&#45;3&#45;&gt;3</title>
<path fill="none" stroke="red" stroke-width="0.13" d="M713.64,-148.2C710.82,-147.21 707.84,-146.26 705,-145.54 674.85,-137.85 467.32,-108.36 393.22,-97.95"/>
<polygon fill="red" stroke="red" stroke-width="0.13" points="393.69,-94.48 383.3,-96.55 392.71,-101.41 393.69,-94.48"/>
</g>
<!-- &#45;4 -->
<g id="node4" class="node">
<title>&#45;4</title>
<polygon fill="lightgray" stroke="black" points="220,-163.54 194,-163.54 194,-145.54 220,-145.54 220,-163.54"/>
<text text-anchor="middle" x="207" y="-152.34" font-family="Times,serif" font-size="9.00">&#45;4</text>
</g>
<!-- &#45;4&#45;&gt;0 -->
<g id="edge47" class="edge">
<title>&#45;4&#45;&gt;0</title>
<path fill="none" stroke="green" stroke-width="0.18" d="M220.38,-148.27C223.2,-147.28 226.18,-146.31 229,-145.54 319.92,-120.81 430.82,-104.34 480.6,-97.65"/>
<polygon fill="green" stroke="green" stroke-width="0.18" points="481.35,-101.08 490.81,-96.3 480.43,-94.14 481.35,-101.08"/>
</g>
<!-- &#45;4&#45;&gt;2 -->
<g id="edge26" class="edge">
<title>&#45;4&#45;&gt;2</title>
<path fill="none" stroke="green" stroke-width="0.11" d="M220.34,-148.12C223.16,-147.13 226.15,-146.21 229,-145.54 368.77,-112.78 408.54,-133.99 550,-109.54 563.16,-107.26 577.65,-103.94 589.6,-100.98"/>
<polygon fill="green" stroke="green" stroke-width="0.11" points="590.52,-104.36 599.35,-98.5 588.79,-97.57 590.52,-104.36"/>
</g>
<!-- &#45;4&#45;&gt;3 -->
<g id="edge23" class="edge">
<title>&#45;4&#45;&gt;3</title>
<path fill="none" stroke="green" stroke-width="0.11" d="M220.09,-148.69C246.74,-138.82 307.67,-116.25 342.1,-103.5"/>
<polygon fill="green" stroke="green" stroke-width="0.11" points="343.71,-106.63 351.87,-99.88 341.28,-100.07 343.71,-106.63"/>
</g>
<!-- &#45;5 -->
<g id="node5" class="node">
<title>&#45;5</title>
<polygon fill="lightgray" stroke="black" points="696,-163.54 670,-163.54 670,-145.54 696,-145.54 696,-163.54"/>
<text text-anchor="middle" x="683" y="-152.34" font-family="Times,serif" font-size="9.00">&#45;5</text>
</g>
<!-- &#45;5&#45;&gt;1 -->
<g id="edge21" class="edge">
<title>&#45;5&#45;&gt;1</title>
<path fill="none" stroke="green" stroke-width="0.26" d="M686.06,-145.3C688.65,-138.31 692.51,-127.93 696.06,-118.35"/>
<polygon fill="green" stroke="green" stroke-width="0.26" points="699.4,-119.42 699.6,-108.83 692.84,-116.99 699.4,-119.42"/>
</g>
<!-- &#45;5&#45;&gt;2 -->
<g id="edge46" class="edge">
<title>&#45;5&#45;&gt;2</title>
<path fill="none" stroke="red" stroke-width="0.29" d="M673.54,-145.3C663.61,-136.64 647.68,-122.75 634.94,-111.65"/>
<polygon fill="red" stroke="red" stroke-width="0.29" points="636.97,-108.78 627.13,-104.85 632.37,-114.05 636.97,-108.78"/>
</g>
<!-- &#45;5&#45;&gt;3 -->
<g id="edge9" class="edge">
<title>&#45;5&#45;&gt;3</title>
<path fill="none" stroke="red" stroke-width="0.36" d="M669.62,-148.25C666.8,-147.26 663.83,-146.29 661,-145.54 610.23,-132 455.37,-107.73 393.22,-98.24"/>
<polygon fill="red" stroke="red" stroke-width="0.36" points="393.48,-94.74 383.07,-96.69 392.43,-101.66 393.48,-94.74"/>
</g>
<!-- &#45;6 -->
<g id="node6" class="node">
<title>&#45;6</title>
<polygon fill="lightgray" stroke="black" points="264,-163.54 238,-163.54 238,-145.54 264,-145.54 264,-163.54"/>
<text text-anchor="middle" x="251" y="-152.34" font-family="Times,serif" font-size="9.00">&#45;6</text>
</g>
<!-- &#45;6&#45;&gt;2 -->
<g id="edge6" class="edge">
<title>&#45;6&#45;&gt;2</title>
<path fill="none" stroke="red" stroke-width="0.19" d="M264.35,-148.16C267.17,-147.17 270.16,-146.23 273,-145.54 393.62,-116.15 427.86,-131.76 550,-109.54 563.14,-107.15 577.62,-103.82 589.58,-100.88"/>
<polygon fill="red" stroke="red" stroke-width="0.19" points="590.49,-104.26 599.33,-98.43 588.78,-97.47 590.49,-104.26"/>
</g>
<!-- &#45;6&#45;&gt;3 -->
<g id="edge30" class="edge">
<title>&#45;6&#45;&gt;3</title>
<path fill="none" stroke="red" stroke-width="0.18" d="M264.31,-146.74C283.66,-136.85 319.86,-118.36 343.69,-106.18"/>
<polygon fill="red" stroke="red" stroke-width="0.18" points="345.45,-109.21 352.77,-101.55 342.27,-102.98 345.45,-109.21"/>
</g>
<!-- &#45;7 -->
<g id="node7" class="node">
<title>&#45;7</title>
<polygon fill="lightgray" stroke="black" points="878,-163.54 852,-163.54 852,-145.54 878,-145.54 878,-163.54"/>
<text text-anchor="middle" x="865" y="-152.34" font-family="Times,serif" font-size="9.00">&#45;7</text>
</g>
<!-- &#45;7&#45;&gt;2 -->
<g id="edge42" class="edge">
<title>&#45;7&#45;&gt;2</title>
<path fill="none" stroke="green" stroke-width="0.14" d="M851.6,-148.35C848.78,-147.35 845.81,-146.36 843,-145.54 771.76,-124.82 752.34,-126.02 680,-109.54 666.98,-106.57 652.5,-103.18 640.53,-100.35"/>
<polygon fill="green" stroke="green" stroke-width="0.14" points="641.29,-96.94 630.75,-98.04 639.67,-103.75 641.29,-96.94"/>
</g>
<!-- &#45;8 -->
<g id="node8" class="node">
<title>&#45;8</title>
<polygon fill="lightgray" stroke="black" points="652,-163.54 626,-163.54 626,-145.54 652,-145.54 652,-163.54"/>
<text text-anchor="middle" x="639" y="-152.34" font-family="Times,serif" font-size="9.00">&#45;8</text>
</g>
<!-- &#45;8&#45;&gt;0 -->
<g id="edge22" class="edge">
<title>&#45;8&#45;&gt;0</title>
<path fill="none" stroke="red" stroke-width="0.41" d="M625.86,-147.64C603.79,-137.73 558.96,-117.61 531.11,-105.1"/>
<polygon fill="red" stroke="red" stroke-width="0.41" points="532.24,-101.77 521.69,-100.87 529.38,-108.16 532.24,-101.77"/>
</g>
<!-- &#45;8&#45;&gt;2 -->
<g id="edge32" class="edge">
<title>&#45;8&#45;&gt;2</title>
<path fill="none" stroke="green" stroke-width="0.28" d="M635.66,-145.3C632.83,-138.31 628.63,-127.93 624.75,-118.35"/>
<polygon fill="green" stroke="green" stroke-width="0.28" points="627.89,-116.79 620.89,-108.83 621.4,-119.41 627.89,-116.79"/>
</g>
<!-- &#45;9 -->
<g id="node9" class="node">
<title>&#45;9</title>
<polygon fill="lightgray" stroke="black" points="308,-163.54 282,-163.54 282,-145.54 308,-145.54 308,-163.54"/>
<text text-anchor="middle" x="295" y="-152.34" font-family="Times,serif" font-size="9.00">&#45;9</text>
</g>
<!-- &#45;9&#45;&gt;2 -->
<g id="edge31" class="edge">
<title>&#45;9&#45;&gt;2</title>
<path fill="none" stroke="green" stroke-width="0.11" d="M308.37,-148.21C311.19,-147.22 314.17,-146.27 317,-145.54 418.5,-119.51 447.14,-129.53 550,-109.54 563.11,-106.99 577.59,-103.64 589.55,-100.73"/>
<polygon fill="green" stroke="green" stroke-width="0.11" points="590.44,-104.12 599.31,-98.32 588.76,-97.32 590.44,-104.12"/>
</g>
<!-- &#45;9&#45;&gt;3 -->
<g id="edge44" class="edge">
<title>&#45;9&#45;&gt;3</title>
<path fill="none" stroke="red" stroke-width="0.39" d="M305.01,-145.3C315.76,-136.45 333.14,-122.15 346.76,-110.94"/>
<polygon fill="red" stroke="red" stroke-width="0.39" points="349.17,-113.49 354.66,-104.43 344.72,-108.08 349.17,-113.49"/>
</g>
<!-- &#45;10 -->
<g id="node10" class="node">
<title>&#45;10</title>
<polygon fill="lightgray" stroke="black" points="1028,-163.54 996,-163.54 996,-145.54 1028,-145.54 1028,-163.54"/>
<text text-anchor="middle" x="1012" y="-152.34" font-family="Times,serif" font-size="9.00">&#45;10</text>
</g>
<!-- &#45;10&#45;&gt;1 -->
<g id="edge36" class="edge">
<title>&#45;10&#45;&gt;1</title>
<path fill="none" stroke="green" stroke-width="0.39" d="M995.95,-148.06C992.99,-147.15 989.92,-146.27 987,-145.54 893.9,-122.28 781.03,-104.97 731.02,-97.85"/>
<polygon fill="green" stroke="green" stroke-width="0.39" points="731.45,-94.38 721.06,-96.45 730.47,-101.31 731.45,-94.38"/>
</g>
<!-- &#45;11 -->
<g id="node11" class="node">
<title>&#45;11</title>
<polygon fill="lightgray" stroke="black" points="408,-163.54 376,-163.54 376,-145.54 408,-145.54 408,-163.54"/>
<text text-anchor="middle" x="392" y="-152.34" font-family="Times,serif" font-size="9.00">&#45;11</text>
</g>
<!-- &#45;11&#45;&gt;1 -->
<g id="edge12" class="edge">
<title>&#45;11&#45;&gt;1</title>
<path fill="none" stroke="green" stroke-width="0.2" d="M408.04,-148.02C411,-147.11 414.07,-146.24 417,-145.54 514.64,-122.17 541.52,-129.03 640,-109.54 653.1,-106.95 667.58,-103.59 679.54,-100.69"/>
<polygon fill="green" stroke="green" stroke-width="0.2" points="680.43,-104.08 689.31,-98.29 678.76,-97.28 680.43,-104.08"/>
</g>
<!-- &#45;11&#45;&gt;3 -->
<g id="edge8" class="edge">
<title>&#45;11&#45;&gt;3</title>
<path fill="none" stroke="red" stroke-width="0.22" d="M388.52,-145.3C385.55,-138.24 381.1,-127.71 377.03,-118.04"/>
<polygon fill="red" stroke="red" stroke-width="0.22" points="380.25,-116.68 373.14,-108.83 373.8,-119.4 380.25,-116.68"/>
</g>
<!-- &#45;12 -->
<g id="node12" class="node">
<title>&#45;12</title>
<polygon fill="lightgray" stroke="black" points="558,-163.54 526,-163.54 526,-145.54 558,-145.54 558,-163.54"/>
<text text-anchor="middle" x="542" y="-152.34" font-family="Times,serif" font-size="9.00">&#45;12</text>
</g>
<!-- &#45;12&#45;&gt;0 -->
<g id="edge7" class="edge">
<title>&#45;12&#45;&gt;0</title>
<path fill="none" stroke="green" stroke-width="0.52" d="M537.13,-145.3C532.76,-137.9 526.14,-126.68 520.21,-116.65"/>
<polygon fill="green" stroke="green" stroke-width="0.52" points="523.15,-114.74 515.05,-107.91 517.12,-118.3 523.15,-114.74"/>
</g>
<!-- &#45;12&#45;&gt;1 -->
<g id="edge50" class="edge">
<title>&#45;12&#45;&gt;1</title>
<path fill="none" stroke="green" stroke-width="0.43" d="M558.22,-147.64C586.83,-137.24 646.4,-115.58 680.2,-103.29"/>
<polygon fill="green" stroke="green" stroke-width="0.43" points="681.59,-106.51 689.79,-99.8 679.2,-99.93 681.59,-106.51"/>
</g>
<!-- &#45;12&#45;&gt;2 -->
<g id="edge1" class="edge">
<title>&#45;12&#45;&gt;2</title>
<path fill="none" stroke="red" stroke-width="0.14" d="M552.15,-145.3C563.05,-136.45 580.67,-122.15 594.48,-110.94"/>
<polygon fill="red" stroke="red" stroke-width="0.14" points="596.93,-113.45 602.49,-104.43 592.52,-108.02 596.93,-113.45"/>
</g>
<!-- &#45;12&#45;&gt;3 -->
<g id="edge48" class="edge">
<title>&#45;12&#45;&gt;3</title>
<path fill="none" stroke="red" stroke-width="0.61" d="M525.85,-148.07C495.2,-137.69 428.41,-115.07 391.95,-102.73"/>
<polygon fill="red" stroke="red" stroke-width="0.61" points="392.7,-99.29 382.11,-99.39 390.46,-105.92 392.7,-99.29"/>
</g>
<!-- &#45;13 -->
<g id="node13" class="node">
<title>&#45;13</title>
<polygon fill="lightgray" stroke="black" points="82,-163.54 50,-163.54 50,-145.54 82,-145.54 82,-163.54"/>
<text text-anchor="middle" x="66" y="-152.34" font-family="Times,serif" font-size="9.00">&#45;13</text>
</g>
<!-- &#45;13&#45;&gt;3 -->
<g id="edge39" class="edge">
<title>&#45;13&#45;&gt;3</title>
<path fill="none" stroke="green" stroke-width="0.17" d="M82.05,-148.07C85.01,-147.16 88.08,-146.27 91,-145.54 181.73,-122.69 291.6,-105.28 340.87,-98"/>
<polygon fill="green" stroke="green" stroke-width="0.17" points="341.59,-101.44 350.98,-96.53 340.58,-94.51 341.59,-101.44"/>
</g>
<!-- &#45;14 -->
<g id="node14" class="node">
<title>&#45;14</title>
<polygon fill="lightgray" stroke="black" points="358,-163.54 326,-163.54 326,-145.54 358,-145.54 358,-163.54"/>
<text text-anchor="middle" x="342" y="-152.34" font-family="Times,serif" font-size="9.00">&#45;14</text>
</g>
<!-- &#45;14&#45;&gt;0 -->
<g id="edge33" class="edge">
<title>&#45;14&#45;&gt;0</title>
<path fill="none" stroke="green" stroke-width="0.15" d="M358.12,-147.75C387.08,-137.35 448.05,-115.45 482.31,-103.15"/>
<polygon fill="green" stroke="green" stroke-width="0.15" points="483.78,-106.33 492.01,-99.66 481.42,-99.75 483.78,-106.33"/>
</g>
<!-- &#45;14&#45;&gt;2 -->
<g id="edge5" class="edge">
<title>&#45;14&#45;&gt;2</title>
<path fill="none" stroke="red" stroke-width="0.25" d="M358.06,-148.1C361.01,-147.18 364.09,-146.29 367,-145.54 447.27,-124.87 468.97,-127.02 550,-109.54 563.06,-106.72 577.53,-103.35 589.5,-100.49"/>
<polygon fill="red" stroke="red" stroke-width="0.25" points="590.37,-103.88 599.27,-98.14 588.73,-97.07 590.37,-103.88"/>
</g>
<!-- &#45;14&#45;&gt;3 -->
<g id="edge35" class="edge">
<title>&#45;14&#45;&gt;3</title>
<path fill="none" stroke="green" stroke-width="0.17" d="M345.48,-145.3C348.45,-138.24 352.9,-127.71 356.97,-118.04"/>
<polygon fill="green" stroke="green" stroke-width="0.17" points="360.2,-119.4 360.86,-108.83 353.75,-116.68 360.2,-119.4"/>
</g>
<!-- &#45;15 -->
<g id="node15" class="node">
<title>&#45;15</title>
<polygon fill="lightgray" stroke="black" points="978,-163.54 946,-163.54 946,-145.54 978,-145.54 978,-163.54"/>
<text text-anchor="middle" x="962" y="-152.34" font-family="Times,serif" font-size="9.00">&#45;15</text>
</g>
<!-- &#45;15&#45;&gt;1 -->
<g id="edge49" class="edge">
<title>&#45;15&#45;&gt;1</title>
<path fill="none" stroke="red" stroke-width="0.15" d="M945.93,-148.16C942.97,-147.23 939.9,-146.32 937,-145.54 862.84,-125.53 773.81,-107.5 730.79,-99.16"/>
<polygon fill="red" stroke="red" stroke-width="0.15" points="731.36,-95.71 720.88,-97.26 730.03,-102.58 731.36,-95.71"/>
</g>
<!-- &#45;16 -->
<g id="node16" class="node">
<title>&#45;16</title>
<polygon fill="lightgray" stroke="black" points="458,-163.54 426,-163.54 426,-145.54 458,-145.54 458,-163.54"/>
<text text-anchor="middle" x="442" y="-152.34" font-family="Times,serif" font-size="9.00">&#45;16</text>
</g>
<!-- &#45;16&#45;&gt;1 -->
<g id="edge37" class="edge">
<title>&#45;16&#45;&gt;1</title>
<path fill="none" stroke="green" stroke-width="0.32" d="M458.07,-148.13C461.02,-147.21 464.09,-146.3 467,-145.54 542.95,-125.54 563.32,-126.52 640,-109.54 653.04,-106.65 667.51,-103.27 679.49,-100.43"/>
<polygon fill="green" stroke="green" stroke-width="0.32" points="680.35,-103.82 689.26,-98.09 678.72,-97.01 680.35,-103.82"/>
</g>
<!-- &#45;16&#45;&gt;3 -->
<g id="edge11" class="edge">
<title>&#45;16&#45;&gt;3</title>
<path fill="none" stroke="green" stroke-width="0.19" d="M431.57,-145.3C420.24,-136.34 401.84,-121.81 387.58,-110.54"/>
<polygon fill="green" stroke="green" stroke-width="0.19" points="389.35,-107.47 379.33,-104.02 385.01,-112.97 389.35,-107.47"/>
</g>
<!-- &#45;17 -->
<g id="node17" class="node">
<title>&#45;17</title>
<polygon fill="lightgray" stroke="black" points="176,-163.54 144,-163.54 144,-145.54 176,-145.54 176,-163.54"/>
<text text-anchor="middle" x="160" y="-152.34" font-family="Times,serif" font-size="9.00">&#45;17</text>
</g>
<!-- &#45;17&#45;&gt;0 -->
<g id="edge2" class="edge">
<title>&#45;17&#45;&gt;0</title>
<path fill="none" stroke="red" stroke-width="0.43" d="M176.04,-148.01C179,-147.11 182.07,-146.24 185,-145.54 241.6,-132.06 414.91,-107.18 481.01,-97.89"/>
<polygon fill="red" stroke="red" stroke-width="0.43" points="481.6,-101.34 491.02,-96.49 480.63,-94.41 481.6,-101.34"/>
</g>
<!-- &#45;17&#45;&gt;3 -->
<g id="edge10" class="edge">
<title>&#45;17&#45;&gt;3</title>
<path fill="none" stroke="green" stroke-width="0.28" d="M176.11,-148.29C179.06,-147.36 182.12,-146.41 185,-145.54 240.55,-128.83 306.14,-110.76 341.43,-101.17"/>
<polygon fill="green" stroke="green" stroke-width="0.28" points="342.63,-104.47 351.37,-98.48 340.8,-97.72 342.63,-104.47"/>
</g>
<!-- &#45;18 -->
<g id="node18" class="node">
<title>&#45;18</title>
<polygon fill="lightgray" stroke="black" points="32,-163.54 0,-163.54 0,-145.54 32,-145.54 32,-163.54"/>
<text text-anchor="middle" x="16" y="-152.34" font-family="Times,serif" font-size="9.00">&#45;18</text>
</g>
<!-- &#45;18&#45;&gt;3 -->
<g id="edge34" class="edge">
<title>&#45;18&#45;&gt;3</title>
<path fill="none" stroke="green" stroke-width="0.32" d="M32.04,-148.01C34.99,-147.1 38.07,-146.23 41,-145.54 151.01,-119.45 285.14,-103.12 340.83,-97.01"/>
<polygon fill="green" stroke="green" stroke-width="0.32" points="341.32,-100.47 350.89,-95.92 340.57,-93.51 341.32,-100.47"/>
</g>
<!-- &#45;19 -->
<g id="node19" class="node">
<title>&#45;19</title>
<polygon fill="lightgray" stroke="black" points="1128,-163.54 1096,-163.54 1096,-145.54 1128,-145.54 1128,-163.54"/>
<text text-anchor="middle" x="1112" y="-152.34" font-family="Times,serif" font-size="9.00">&#45;19</text>
</g>
<!-- &#45;20 -->
<g id="node20" class="node">
<title>&#45;20</title>
<polygon fill="lightgray" stroke="black" points="834,-163.54 802,-163.54 802,-145.54 834,-145.54 834,-163.54"/>
<text text-anchor="middle" x="818" y="-152.34" font-family="Times,serif" font-size="9.00">&#45;20</text>
</g>
<!-- &#45;20&#45;&gt;2 -->
<g id="edge4" class="edge">
<title>&#45;20&#45;&gt;2</title>
<path fill="none" stroke="red" stroke-width="0.58" d="M801.88,-148.31C798.93,-147.37 795.88,-146.41 793,-145.54 738.9,-129.1 675.16,-111.06 640.53,-101.37"/>
<polygon fill="red" stroke="red" stroke-width="0.58" points="641.33,-97.97 630.76,-98.65 639.45,-104.71 641.33,-97.97"/>
</g>
<!-- &#45;21 -->
<g id="node21" class="node">
<title>&#45;21</title>
<polygon fill="lightgray" stroke="black" points="508,-163.54 476,-163.54 476,-145.54 508,-145.54 508,-163.54"/>
<text text-anchor="middle" x="492" y="-152.34" font-family="Times,serif" font-size="9.00">&#45;21</text>
</g>
<!-- &#45;21&#45;&gt;0 -->
<g id="edge25" class="edge">
<title>&#45;21&#45;&gt;0</title>
<path fill="none" stroke="red" stroke-width="0.16" d="M494.09,-145.3C495.81,-138.48 498.36,-128.42 500.73,-119.03"/>
<polygon fill="red" stroke="red" stroke-width="0.16" points="504.14,-119.85 503.2,-109.3 497.35,-118.13 504.14,-119.85"/>
</g>
<!-- &#45;21&#45;&gt;1 -->
<g id="edge28" class="edge">
<title>&#45;21&#45;&gt;1</title>
<path fill="none" stroke="red" stroke-width="0.21" d="M508.11,-148.27C511.06,-147.34 514.12,-146.39 517,-145.54 574.87,-128.4 643.38,-110.25 679.6,-100.83"/>
<polygon fill="red" stroke="red" stroke-width="0.21" points="680.54,-104.2 689.34,-98.3 678.78,-97.42 680.54,-104.2"/>
</g>
<!-- &#45;21&#45;&gt;3 -->
<g id="edge15" class="edge">
<title>&#45;21&#45;&gt;3</title>
<path fill="none" stroke="red" stroke-width="0.16" d="M475.91,-145.91C454.26,-135.65 415.58,-117.31 390.62,-105.47"/>
<polygon fill="red" stroke="red" stroke-width="0.16" points="392.01,-102.26 381.47,-101.14 389.01,-108.58 392.01,-102.26"/>
</g>
<!-- &#45;22 -->
<g id="node22" class="node">
<title>&#45;22</title>
<polygon fill="lightgray" stroke="black" points="608,-163.54 576,-163.54 576,-145.54 608,-145.54 608,-163.54"/>
<text text-anchor="middle" x="592" y="-152.34" font-family="Times,serif" font-size="9.00">&#45;22</text>
</g>
<!-- &#45;22&#45;&gt;0 -->
<g id="edge45" class="edge">
<title>&#45;22&#45;&gt;0</title>
<path fill="none" stroke="green" stroke-width="0.83" d="M580.18,-145.3C566.86,-136.01 544.94,-120.73 528.56,-109.3"/>
<polygon fill="green" stroke="green" stroke-width="0.83" points="530.32,-106.27 520.11,-103.42 526.31,-112.01 530.32,-106.27"/>
</g>
<!-- &#45;22&#45;&gt;1 -->
<g id="edge14" class="edge">
<title>&#45;22&#45;&gt;1</title>
<path fill="none" stroke="green" stroke-width="0.24" d="M607.71,-145.3C626.94,-135.21 659.67,-118.05 681.8,-106.45"/>
<polygon fill="green" stroke="green" stroke-width="0.24" points="683.62,-109.44 690.85,-101.7 680.36,-103.24 683.62,-109.44"/>
</g>
<!-- &#45;22&#45;&gt;2 -->
<g id="edge29" class="edge">
<title>&#45;22&#45;&gt;2</title>
<path fill="none" stroke="red" stroke-width="0.21" d="M595.2,-145.3C597.91,-138.31 601.94,-127.93 605.66,-118.35"/>
<polygon fill="red" stroke="red" stroke-width="0.21" points="609,-119.42 609.35,-108.83 602.47,-116.89 609,-119.42"/>
</g>
<!-- &#45;22&#45;&gt;3 -->
<g id="edge40" class="edge">
<title>&#45;22&#45;&gt;3</title>
<path fill="none" stroke="green" stroke-width="0.28" d="M575.9,-148.24C572.95,-147.31 569.89,-146.37 567,-145.54 504.66,-127.59 430.5,-109.4 392.4,-100.28"/>
<polygon fill="green" stroke="green" stroke-width="0.28" points="393.18,-96.87 382.64,-97.95 391.56,-103.68 393.18,-96.87"/>
</g>
<!-- &#45;23 -->
<g id="node23" class="node">
<title>&#45;23</title>
<polygon fill="lightgray" stroke="black" points="1078,-163.54 1046,-163.54 1046,-145.54 1078,-145.54 1078,-163.54"/>
<text text-anchor="middle" x="1062" y="-152.34" font-family="Times,serif" font-size="9.00">&#45;23</text>
</g>
<!-- &#45;23&#45;&gt;0 -->
<g id="edge18" class="edge">
<title>&#45;23&#45;&gt;0</title>
<path fill="none" stroke="red" stroke-width="0.13" stroke-dasharray="1,5" d="M1045.73,-147.74C1042.85,-146.89 1039.86,-146.1 1037,-145.54 841.47,-106.91 787.6,-135.6 590,-109.54 570.7,-106.99 549.07,-102.98 532.73,-99.7"/>
<polygon fill="red" stroke="red" stroke-width="0.13" points="533.33,-96.26 522.84,-97.68 531.93,-103.11 533.33,-96.26"/>
</g>
<!-- &#45;23&#45;&gt;1 -->
<g id="edge27" class="edge">
<title>&#45;23&#45;&gt;1</title>
<path fill="none" stroke="green" stroke-width="0.28" d="M1045.97,-148C1043.01,-147.09 1039.93,-146.23 1037,-145.54 924.71,-119.07 787.73,-102.9 731.26,-96.92"/>
<polygon fill="green" stroke="green" stroke-width="0.28" points="731.37,-93.41 721.07,-95.85 730.65,-100.37 731.37,-93.41"/>
</g>
<!-- 20 -->
<g id="node29" class="node">
<title>20</title>
<ellipse fill="white" stroke="black" cx="534" cy="-20.51" rx="20.51" ry="20.51"/>
<text text-anchor="middle" x="534" y="-18.31" font-family="Times,serif" font-size="9.00">20</text>
</g>
<!-- &#45;23&#45;&gt;20 -->
<g id="edge51" class="edge">
<title>&#45;23&#45;&gt;20</title>
<path fill="none" stroke="red" stroke-width="0.42" d="M1045.91,-148.21C1042.96,-147.29 1039.89,-146.36 1037,-145.54 859.29,-95.26 643.04,-45.84 564.42,-28.25"/>
<polygon fill="red" stroke="red" stroke-width="0.42" points="564.78,-24.74 554.26,-25.98 563.25,-31.57 564.78,-24.74"/>
</g>
<!-- &#45;24 -->
<g id="node24" class="node">
<title>&#45;24</title>
<polygon fill="lightgray" stroke="black" points="928,-163.54 896,-163.54 896,-145.54 928,-145.54 928,-163.54"/>
<text text-anchor="middle" x="912" y="-152.34" font-family="Times,serif" font-size="9.00">&#45;24</text>
</g>
<!-- &#45;24&#45;&gt;1 -->
<g id="edge38" class="edge">
<title>&#45;24&#45;&gt;1</title>
<path fill="none" stroke="green" stroke-width="0.52" d="M895.89,-148.29C892.94,-147.36 889.88,-146.41 887,-145.54 831.45,-128.83 765.86,-110.76 730.57,-101.17"/>
<polygon fill="green" stroke="green" stroke-width="0.52" points="731.2,-97.72 720.63,-98.48 729.37,-104.47 731.2,-97.72"/>
</g>
<!-- &#45;24&#45;&gt;2 -->
<g id="edge19" class="edge">
<title>&#45;24&#45;&gt;2</title>
<path fill="none" stroke="green" stroke-width="0.23" d="M895.95,-148.05C893,-147.14 889.92,-146.26 887,-145.54 796.32,-123.26 771.49,-128.22 680,-109.54 666.91,-106.87 652.43,-103.51 640.47,-100.62"/>
<polygon fill="green" stroke="green" stroke-width="0.23" points="641.25,-97.21 630.7,-98.24 639.59,-104.01 641.25,-97.21"/>
</g>
<!-- 0&#45;&gt;0 -->
<g id="edge3" class="edge">
<title>0&#45;&gt;0</title>
<path fill="none" stroke="red" stroke-width="0.19" d="M520.36,-103.07C530.71,-106.74 541.26,-103.47 541.26,-93.28 541.26,-86.58 536.72,-82.88 530.67,-82.16"/>
<polygon fill="red" stroke="red" stroke-width="0.19" points="529.84,-78.73 520.36,-83.48 530.73,-85.68 529.84,-78.73"/>
</g>
<!-- 3&#45;&gt;20 -->
<g id="edge52" class="edge">
<title>3&#45;&gt;20</title>
<path fill="none" stroke="red" stroke-width="0.6" stroke-dasharray="1,5" d="M381.82,-86C409.69,-74.18 470.33,-48.49 506.07,-33.34"/>
<polygon fill="red" stroke="red" stroke-width="0.6" points="507.61,-36.49 515.45,-29.37 504.87,-30.05 507.61,-36.49"/>
</g>
</g>
</svg>
