<?xml version="1.0" encoding="UTF-8" standalone="no"?>
<!DOCTYPE svg PUBLIC "-//W3C//DTD SVG 1.1//EN"
 "http://www.w3.org/Graphics/SVG/1.1/DTD/svg11.dtd">
<!-- Generated by graphviz version 2.43.0 (0)
 -->
<!-- Title: %3 Pages: 1 -->
<svg width="1212pt" height="135pt"
 viewBox="0.00 0.00 1211.99 134.51" xmlns="http://www.w3.org/2000/svg" xmlns:xlink="http://www.w3.org/1999/xlink">
<g id="graph0" class="graph" transform="scale(1 1) rotate(0) translate(4 130.51)">
<title>%3</title>
<polygon fill="white" stroke="transparent" points="-4,4 -4,-130.51 1207.99,-130.51 1207.99,4 -4,4"/>
<!-- &#45;1 -->
<g id="node1" class="node">
<title>&#45;1</title>
<polygon fill="lightgray" stroke="black" points="101.99,-106.52 75.99,-106.52 75.99,-88.52 101.99,-88.52 101.99,-106.52"/>
<text text-anchor="middle" x="88.99" y="-95.32" font-family="Times,serif" font-size="9.00">&#45;1</text>
</g>
<!-- 2 -->
<g id="node27" class="node">
<title>2</title>
<ellipse fill="lightblue" stroke="black" cx="335.99" cy="-16.26" rx="16.03" ry="16.03"/>
<text text-anchor="middle" x="335.99" y="-14.06" font-family="Times,serif" font-size="9.00">2</text>
</g>
<!-- &#45;1&#45;&gt;2 -->
<g id="edge33" class="edge">
<title>&#45;1&#45;&gt;2</title>
<path fill="none" stroke="red" stroke-width="0.21" d="M93.31,-88.39C97.12,-82.01 103.26,-73.42 110.99,-68.53 174.18,-28.52 264.86,-19.6 309.33,-17.7"/>
<polygon fill="red" stroke="red" stroke-width="0.21" points="309.72,-21.19 319.6,-17.36 309.49,-14.2 309.72,-21.19"/>
</g>
<!-- &#45;2 -->
<g id="node2" class="node">
<title>&#45;2</title>
<polygon fill="lightgray" stroke="black" points="721.99,-106.52 695.99,-106.52 695.99,-88.52 721.99,-88.52 721.99,-106.52"/>
<text text-anchor="middle" x="708.99" y="-95.32" font-family="Times,serif" font-size="9.00">&#45;2</text>
</g>
<!-- 0 -->
<g id="node25" class="node">
<title>0</title>
<ellipse fill="lightblue" stroke="black" cx="849.99" cy="-16.26" rx="16.03" ry="16.03"/>
<text text-anchor="middle" x="849.99" y="-14.06" font-family="Times,serif" font-size="9.00">0</text>
</g>
<!-- &#45;2&#45;&gt;0 -->
<g id="edge39" class="edge">
<title>&#45;2&#45;&gt;0</title>
<path fill="none" stroke="red" stroke-width="0.37" stroke-dasharray="1,5" d="M713.89,-88.25C717.86,-82.13 723.94,-73.95 730.99,-68.53 759.67,-46.47 799.29,-31.89 824.77,-24.1"/>
<polygon fill="red" stroke="red" stroke-width="0.37" points="825.83,-27.44 834.44,-21.27 823.86,-20.72 825.83,-27.44"/>
</g>
<!-- 3 -->
<g id="node28" class="node">
<title>3</title>
<ellipse fill="lightblue" stroke="black" cx="521.99" cy="-16.26" rx="16.03" ry="16.03"/>
<text text-anchor="middle" x="521.99" y="-14.06" font-family="Times,serif" font-size="9.00">3</text>
</g>
<!-- &#45;2&#45;&gt;3 -->
<g id="edge2" class="edge">
<title>&#45;2&#45;&gt;3</title>
<path fill="none" stroke="red" stroke-width="0.34" d="M704.41,-88.29C700.53,-82.03 694.42,-73.64 686.99,-68.53 643.96,-38.9 583.12,-25.86 548.61,-20.55"/>
<polygon fill="red" stroke="red" stroke-width="0.34" points="548.78,-17.04 538.39,-19.08 547.79,-23.97 548.78,-17.04"/>
</g>
<!-- &#45;3 -->
<g id="node3" class="node">
<title>&#45;3</title>
<polygon fill="lightgray" stroke="black" points="445.99,-106.52 419.99,-106.52 419.99,-88.52 445.99,-88.52 445.99,-106.52"/>
<text text-anchor="middle" x="432.99" y="-95.32" font-family="Times,serif" font-size="9.00">&#45;3</text>
</g>
<!-- 1 -->
<g id="node26" class="node">
<title>1</title>
<ellipse fill="lightblue" stroke="black" cx="722.99" cy="-16.26" rx="16.03" ry="16.03"/>
<text text-anchor="middle" x="722.99" y="-14.06" font-family="Times,serif" font-size="9.00">1</text>
</g>
<!-- &#45;3&#45;&gt;1 -->
<g id="edge38" class="edge">
<title>&#45;3&#45;&gt;1</title>
<path fill="none" stroke="red" stroke-width="0.21" stroke-dasharray="1,5" d="M437.26,-88.32C441.05,-81.9 447.18,-73.28 454.99,-68.53 495.66,-43.77 637.67,-26.29 696.82,-19.92"/>
<polygon fill="red" stroke="red" stroke-width="0.21" points="697.28,-23.39 706.86,-18.86 696.54,-16.43 697.28,-23.39"/>
</g>
<!-- &#45;3&#45;&gt;2 -->
<g id="edge19" class="edge">
<title>&#45;3&#45;&gt;2</title>
<path fill="none" stroke="red" stroke-width="0.34" stroke-dasharray="1,5" d="M427.6,-88.38C423.47,-82.48 417.4,-74.52 410.99,-68.53 395.06,-53.63 374.46,-39.86 358.87,-30.36"/>
<polygon fill="red" stroke="red" stroke-width="0.34" points="360.29,-27.13 349.91,-25.02 356.71,-33.14 360.29,-27.13"/>
</g>
<!-- &#45;3&#45;&gt;3 -->
<g id="edge45" class="edge">
<title>&#45;3&#45;&gt;3</title>
<path fill="none" stroke="green" stroke-width="0.63" stroke-dasharray="1,5" d="M438.48,-88.48C442.66,-82.63 448.74,-74.69 454.99,-68.53 468.93,-54.77 486.58,-41.4 500.27,-31.76"/>
<polygon fill="green" stroke="green" stroke-width="0.63" points="502.37,-34.57 508.62,-26 498.4,-28.8 502.37,-34.57"/>
</g>
<!-- &#45;4 -->
<g id="node4" class="node">
<title>&#45;4</title>
<polygon fill="lightgray" stroke="black" points="1103.99,-106.52 1077.99,-106.52 1077.99,-88.52 1103.99,-88.52 1103.99,-106.52"/>
<text text-anchor="middle" x="1090.99" y="-95.32" font-family="Times,serif" font-size="9.00">&#45;4</text>
</g>
<!-- &#45;4&#45;&gt;0 -->
<g id="edge29" class="edge">
<title>&#45;4&#45;&gt;0</title>
<path fill="none" stroke="green" stroke-width="0.59" d="M1086.67,-88.4C1082.85,-82.03 1076.71,-73.44 1068.99,-68.53 1007.67,-29.45 919.68,-20.1 876.27,-17.9"/>
<polygon fill="green" stroke="green" stroke-width="0.59" points="876.37,-14.41 866.23,-17.49 876.08,-21.4 876.37,-14.41"/>
</g>
<!-- &#45;5 -->
<g id="node5" class="node">
<title>&#45;5</title>
<polygon fill="lightgray" stroke="black" points="489.99,-106.52 463.99,-106.52 463.99,-88.52 489.99,-88.52 489.99,-106.52"/>
<text text-anchor="middle" x="476.99" y="-95.32" font-family="Times,serif" font-size="9.00">&#45;5</text>
</g>
<!-- &#45;5&#45;&gt;0 -->
<g id="edge1" class="edge">
<title>&#45;5&#45;&gt;0</title>
<path fill="none" stroke="red" stroke-width="0.86" stroke-dasharray="1,5" d="M481.04,-88.46C484.77,-81.95 490.94,-73.13 498.99,-68.53 602.94,-9.1 647.72,-51.24 765.99,-32.53 785.57,-29.43 807.61,-25.4 824.2,-22.26"/>
<polygon fill="red" stroke="red" stroke-width="0.86" points="825.07,-25.66 834.24,-20.35 823.76,-18.79 825.07,-25.66"/>
</g>
<!-- &#45;5&#45;&gt;2 -->
<g id="edge43" class="edge">
<title>&#45;5&#45;&gt;2</title>
<path fill="none" stroke="green" stroke-width="0.54" d="M472.09,-88.25C468.13,-82.13 462.05,-73.95 454.99,-68.53 426.31,-46.47 386.7,-31.89 361.21,-24.1"/>
<polygon fill="green" stroke="green" stroke-width="0.54" points="362.12,-20.72 351.54,-21.27 360.15,-27.44 362.12,-20.72"/>
</g>
<!-- &#45;5&#45;&gt;3 -->
<g id="edge15" class="edge">
<title>&#45;5&#45;&gt;3</title>
<path fill="none" stroke="green" stroke-width="0.15" d="M481.64,-88.34C488.1,-76.96 500.03,-55.95 509.25,-39.7"/>
<polygon fill="green" stroke="green" stroke-width="0.15" points="512.41,-41.23 514.3,-30.8 506.32,-37.77 512.41,-41.23"/>
</g>
<!-- &#45;6 -->
<g id="node6" class="node">
<title>&#45;6</title>
<polygon fill="lightgray" stroke="black" points="765.99,-106.52 739.99,-106.52 739.99,-88.52 765.99,-88.52 765.99,-106.52"/>
<text text-anchor="middle" x="752.99" y="-95.32" font-family="Times,serif" font-size="9.00">&#45;6</text>
</g>
<!-- &#45;6&#45;&gt;0 -->
<g id="edge17" class="edge">
<title>&#45;6&#45;&gt;0</title>
<path fill="none" stroke="green" stroke-width="0.36" d="M758.38,-88.38C762.51,-82.48 768.58,-74.52 774.99,-68.53 790.92,-53.63 811.53,-39.86 827.11,-30.36"/>
<polygon fill="green" stroke="green" stroke-width="0.36" points="829.27,-33.14 836.07,-25.02 825.69,-27.13 829.27,-33.14"/>
</g>
<!-- &#45;6&#45;&gt;3 -->
<g id="edge8" class="edge">
<title>&#45;6&#45;&gt;3</title>
<path fill="none" stroke="red" stroke-width="0.26" stroke-dasharray="1,5" d="M748.65,-88.42C744.83,-82.06 738.68,-73.48 730.99,-68.53 673.2,-31.27 590.47,-21.09 548.54,-18.31"/>
<polygon fill="red" stroke="red" stroke-width="0.26" points="548.51,-14.8 538.32,-17.72 548.11,-21.79 548.51,-14.8"/>
</g>
<!-- &#45;7 -->
<g id="node7" class="node">
<title>&#45;7</title>
<polygon fill="lightgray" stroke="black" points="677.99,-106.52 651.99,-106.52 651.99,-88.52 677.99,-88.52 677.99,-106.52"/>
<text text-anchor="middle" x="664.99" y="-95.32" font-family="Times,serif" font-size="9.00">&#45;7</text>
</g>
<!-- &#45;7&#45;&gt;0 -->
<g id="edge7" class="edge">
<title>&#45;7&#45;&gt;0</title>
<path fill="none" stroke="red" stroke-width="0.68" d="M669.57,-88.3C673.46,-82.04 679.57,-73.66 686.99,-68.53 729.49,-39.16 789.6,-26.02 823.69,-20.63"/>
<polygon fill="red" stroke="red" stroke-width="0.68" points="824.41,-24.06 833.79,-19.14 823.39,-17.13 824.41,-24.06"/>
</g>
<!-- &#45;7&#45;&gt;1 -->
<g id="edge26" class="edge">
<title>&#45;7&#45;&gt;1</title>
<path fill="none" stroke="red" stroke-width="0.26" stroke-dasharray="1,5" d="M670.98,-88.34C679.53,-76.66 695.52,-54.81 707.52,-38.4"/>
<polygon fill="red" stroke="red" stroke-width="0.26" points="710.63,-40.09 713.71,-29.95 704.98,-35.95 710.63,-40.09"/>
</g>
<!-- &#45;7&#45;&gt;2 -->
<g id="edge27" class="edge">
<title>&#45;7&#45;&gt;2</title>
<path fill="none" stroke="red" stroke-width="0.71" stroke-dasharray="1,5" d="M660.75,-88.27C656.98,-81.82 650.86,-73.19 642.99,-68.53 595.53,-40.4 428.47,-24.53 362.8,-19.26"/>
<polygon fill="red" stroke="red" stroke-width="0.71" points="362.7,-15.74 352.46,-18.45 362.15,-22.72 362.7,-15.74"/>
</g>
<!-- &#45;8 -->
<g id="node8" class="node">
<title>&#45;8</title>
<polygon fill="lightgray" stroke="black" points="533.99,-106.52 507.99,-106.52 507.99,-88.52 533.99,-88.52 533.99,-106.52"/>
<text text-anchor="middle" x="520.99" y="-95.32" font-family="Times,serif" font-size="9.00">&#45;8</text>
</g>
<!-- &#45;8&#45;&gt;0 -->
<g id="edge12" class="edge">
<title>&#45;8&#45;&gt;0</title>
<path fill="none" stroke="red" stroke-width="0.94" d="M525.07,-88.52C528.82,-82.03 535,-73.23 542.99,-68.53 629.49,-17.57 667.04,-49.5 765.99,-32.53 785.52,-29.18 807.57,-25.16 824.17,-22.09"/>
<polygon fill="red" stroke="red" stroke-width="0.94" points="825.02,-25.49 834.22,-20.23 823.75,-18.61 825.02,-25.49"/>
</g>
<!-- &#45;8&#45;&gt;2 -->
<g id="edge48" class="edge">
<title>&#45;8&#45;&gt;2</title>
<path fill="none" stroke="green" stroke-width="0.41" stroke-dasharray="1,5" d="M516.41,-88.3C512.53,-82.04 506.42,-73.66 498.99,-68.53 456.49,-39.16 396.38,-26.02 362.29,-20.63"/>
<polygon fill="green" stroke="green" stroke-width="0.41" points="362.59,-17.13 352.19,-19.14 361.57,-24.06 362.59,-17.13"/>
</g>
<!-- &#45;9 -->
<g id="node9" class="node">
<title>&#45;9</title>
<polygon fill="lightgray" stroke="black" points="959.99,-106.52 933.99,-106.52 933.99,-88.52 959.99,-88.52 959.99,-106.52"/>
<text text-anchor="middle" x="946.99" y="-95.32" font-family="Times,serif" font-size="9.00">&#45;9</text>
</g>
<!-- &#45;9&#45;&gt;0 -->
<g id="edge24" class="edge">
<title>&#45;9&#45;&gt;0</title>
<path fill="none" stroke="green" stroke-width="0.7" stroke-dasharray="1,5" d="M941.6,-88.38C937.47,-82.48 931.4,-74.52 924.99,-68.53 909.06,-53.63 888.46,-39.86 872.87,-30.36"/>
<polygon fill="green" stroke="green" stroke-width="0.7" points="874.29,-27.13 863.91,-25.02 870.71,-33.14 874.29,-27.13"/>
</g>
<!-- &#45;9&#45;&gt;1 -->
<g id="edge35" class="edge">
<title>&#45;9&#45;&gt;1</title>
<path fill="none" stroke="red" stroke-width="0.55" d="M942.64,-88.44C938.81,-82.09 932.66,-73.51 924.99,-68.53 895.81,-49.55 796.35,-30.13 748.76,-21.66"/>
<polygon fill="red" stroke="red" stroke-width="0.55" points="749.36,-18.22 738.91,-19.93 748.15,-25.11 749.36,-18.22"/>
</g>
<!-- &#45;10 -->
<g id="node10" class="node">
<title>&#45;10</title>
<polygon fill="lightgray" stroke="black" points="1153.99,-106.52 1121.99,-106.52 1121.99,-88.52 1153.99,-88.52 1153.99,-106.52"/>
<text text-anchor="middle" x="1137.99" y="-95.32" font-family="Times,serif" font-size="9.00">&#45;10</text>
</g>
<!-- &#45;10&#45;&gt;0 -->
<g id="edge44" class="edge">
<title>&#45;10&#45;&gt;0</title>
<path fill="none" stroke="green" stroke-width="0.46" stroke-dasharray="1,5" d="M1132.87,-88.32C1128.42,-81.91 1121.37,-73.29 1112.99,-68.53 1035.36,-24.37 926.26,-17.61 876.54,-16.99"/>
<polygon fill="green" stroke="green" stroke-width="0.46" points="876.34,-13.49 866.32,-16.95 876.31,-20.49 876.34,-13.49"/>
</g>
<!-- &#45;11 -->
<g id="node11" class="node">
<title>&#45;11</title>
<polygon fill="lightgray" stroke="black" points="151.99,-106.52 119.99,-106.52 119.99,-88.52 151.99,-88.52 151.99,-106.52"/>
<text text-anchor="middle" x="135.99" y="-95.32" font-family="Times,serif" font-size="9.00">&#45;11</text>
</g>
<!-- &#45;11&#45;&gt;2 -->
<g id="edge10" class="edge">
<title>&#45;11&#45;&gt;2</title>
<path fill="none" stroke="red" stroke-width="0.76" stroke-dasharray="1,5" d="M141.42,-88.27C145.95,-82 152.95,-73.61 160.99,-68.53 208.29,-38.65 273.68,-25.59 309.64,-20.37"/>
<polygon fill="red" stroke="red" stroke-width="0.76" points="310.37,-23.81 319.81,-18.99 309.43,-16.87 310.37,-23.81"/>
</g>
<!-- &#45;12 -->
<g id="node12" class="node">
<title>&#45;12</title>
<polygon fill="lightgray" stroke="black" points="301.99,-106.52 269.99,-106.52 269.99,-88.52 301.99,-88.52 301.99,-106.52"/>
<text text-anchor="middle" x="285.99" y="-95.32" font-family="Times,serif" font-size="9.00">&#45;12</text>
</g>
<!-- &#45;12&#45;&gt;2 -->
<g id="edge9" class="edge">
<title>&#45;12&#45;&gt;2</title>
<path fill="none" stroke="red" stroke-width="0.51" d="M291.15,-88.34C298.37,-76.9 311.74,-55.7 322.01,-39.42"/>
<polygon fill="red" stroke="red" stroke-width="0.51" points="325.25,-40.84 327.63,-30.52 319.33,-37.11 325.25,-40.84"/>
</g>
<!-- &#45;12&#45;&gt;3 -->
<g id="edge16" class="edge">
<title>&#45;12&#45;&gt;3</title>
<path fill="none" stroke="red" stroke-width="0.26" stroke-dasharray="1,5" d="M291.17,-88.42C295.66,-82.07 302.72,-73.49 310.99,-68.53 370.5,-32.85 453.51,-21.98 495.46,-18.68"/>
<polygon fill="red" stroke="red" stroke-width="0.26" points="495.95,-22.16 505.68,-17.97 495.46,-15.17 495.95,-22.16"/>
</g>
<!-- &#45;13 -->
<g id="node13" class="node">
<title>&#45;13</title>
<polygon fill="lightgray" stroke="black" points="201.99,-106.52 169.99,-106.52 169.99,-88.52 201.99,-88.52 201.99,-106.52"/>
<text text-anchor="middle" x="185.99" y="-95.32" font-family="Times,serif" font-size="9.00">&#45;13</text>
</g>
<!-- &#45;13&#45;&gt;2 -->
<g id="edge25" class="edge">
<title>&#45;13&#45;&gt;2</title>
<path fill="none" stroke="red" stroke-width="0.35" d="M191.76,-88.24C196.38,-82.12 203.33,-73.94 210.99,-68.53 242.1,-46.53 284.06,-31.81 310.57,-23.99"/>
<polygon fill="red" stroke="red" stroke-width="0.35" points="311.59,-27.33 320.25,-21.23 309.68,-20.6 311.59,-27.33"/>
</g>
<!-- &#45;14 -->
<g id="node14" class="node">
<title>&#45;14</title>
<polygon fill="lightgray" stroke="black" points="1009.99,-106.52 977.99,-106.52 977.99,-88.52 1009.99,-88.52 1009.99,-106.52"/>
<text text-anchor="middle" x="993.99" y="-95.32" font-family="Times,serif" font-size="9.00">&#45;14</text>
</g>
<!-- &#45;14&#45;&gt;0 -->
<g id="edge36" class="edge">
<title>&#45;14&#45;&gt;0</title>
<path fill="none" stroke="red" stroke-width="0.32" d="M988.19,-88.28C983.56,-82.18 976.6,-74.01 968.99,-68.53 939.79,-47.49 900.62,-32.73 875.34,-24.61"/>
<polygon fill="red" stroke="red" stroke-width="0.32" points="876.33,-21.26 865.75,-21.64 874.26,-27.94 876.33,-21.26"/>
</g>
<!-- &#45;14&#45;&gt;1 -->
<g id="edge21" class="edge">
<title>&#45;14&#45;&gt;1</title>
<path fill="none" stroke="green" stroke-width="0.34" d="M988.86,-88.35C984.39,-81.95 977.34,-73.35 968.99,-68.53 949.96,-57.54 808.54,-32.1 749.14,-21.76"/>
<polygon fill="green" stroke="green" stroke-width="0.34" points="749.5,-18.27 739.05,-20.01 748.31,-25.16 749.5,-18.27"/>
</g>
<!-- &#45;15 -->
<g id="node15" class="node">
<title>&#45;15</title>
<polygon fill="lightgray" stroke="black" points="1059.99,-106.52 1027.99,-106.52 1027.99,-88.52 1059.99,-88.52 1059.99,-106.52"/>
<text text-anchor="middle" x="1043.99" y="-95.32" font-family="Times,serif" font-size="9.00">&#45;15</text>
</g>
<!-- &#45;15&#45;&gt;0 -->
<g id="edge5" class="edge">
<title>&#45;15&#45;&gt;0</title>
<path fill="none" stroke="green" stroke-width="0.79" d="M1038.55,-88.29C1034.01,-82.03 1027.01,-73.65 1018.99,-68.53 973.75,-39.65 911.36,-26.29 876.43,-20.74"/>
<polygon fill="green" stroke="green" stroke-width="0.79" points="876.51,-17.21 866.11,-19.2 875.48,-24.13 876.51,-17.21"/>
</g>
<!-- &#45;15&#45;&gt;1 -->
<g id="edge23" class="edge">
<title>&#45;15&#45;&gt;1</title>
<path fill="none" stroke="green" stroke-width="0.21" d="M1038.9,-88.27C1034.46,-81.83 1027.42,-73.21 1018.99,-68.53 1007.14,-61.95 819.36,-32.25 749.18,-21.32"/>
<polygon fill="green" stroke="green" stroke-width="0.21" points="749.39,-17.81 738.97,-19.73 748.31,-24.73 749.39,-17.81"/>
</g>
<!-- &#45;16 -->
<g id="node16" class="node">
<title>&#45;16</title>
<polygon fill="lightgray" stroke="black" points="351.99,-106.52 319.99,-106.52 319.99,-88.52 351.99,-88.52 351.99,-106.52"/>
<text text-anchor="middle" x="335.99" y="-95.32" font-family="Times,serif" font-size="9.00">&#45;16</text>
</g>
<!-- &#45;16&#45;&gt;1 -->
<g id="edge6" class="edge">
<title>&#45;16&#45;&gt;1</title>
<path fill="none" stroke="red" stroke-width="0.1" stroke-dasharray="1,5" d="M340.87,-88.47C345.27,-81.95 352.37,-73.14 360.99,-68.53 390.59,-52.69 618.47,-28.02 696.72,-19.93"/>
<polygon fill="red" stroke="red" stroke-width="0.1" points="697.14,-23.41 706.73,-18.9 696.42,-16.44 697.14,-23.41"/>
</g>
<!-- &#45;16&#45;&gt;2 -->
<g id="edge31" class="edge">
<title>&#45;16&#45;&gt;2</title>
<path fill="none" stroke="green" stroke-width="0.42" stroke-dasharray="1,5" d="M335.99,-88.34C335.99,-77.67 335.99,-58.51 335.99,-42.77"/>
<polygon fill="green" stroke="green" stroke-width="0.42" points="339.49,-42.57 335.99,-32.57 332.49,-42.57 339.49,-42.57"/>
</g>
<!-- &#45;17 -->
<g id="node17" class="node">
<title>&#45;17</title>
<polygon fill="lightgray" stroke="black" points="251.99,-106.52 219.99,-106.52 219.99,-88.52 251.99,-88.52 251.99,-106.52"/>
<text text-anchor="middle" x="235.99" y="-95.32" font-family="Times,serif" font-size="9.00">&#45;17</text>
</g>
<!-- &#45;17&#45;&gt;2 -->
<g id="edge18" class="edge">
<title>&#45;17&#45;&gt;2</title>
<path fill="none" stroke="red" stroke-width="0.44" d="M242.31,-88.44C247.11,-82.58 254.04,-74.63 260.99,-68.53 277.38,-54.13 297.95,-40.33 313.4,-30.68"/>
<polygon fill="red" stroke="red" stroke-width="0.44" points="315.58,-33.45 322.28,-25.24 311.92,-27.48 315.58,-33.45"/>
</g>
<!-- &#45;17&#45;&gt;3 -->
<g id="edge37" class="edge">
<title>&#45;17&#45;&gt;3</title>
<path fill="none" stroke="red" stroke-width="0.79" stroke-dasharray="1,5" d="M241.11,-88.32C245.57,-81.91 252.61,-73.3 260.99,-68.53 301.04,-45.71 437.35,-27.3 495.43,-20.31"/>
<polygon fill="red" stroke="red" stroke-width="0.79" points="496.12,-23.75 505.64,-19.1 495.29,-16.8 496.12,-23.75"/>
</g>
<!-- &#45;18 -->
<g id="node18" class="node">
<title>&#45;18</title>
<polygon fill="lightgray" stroke="black" points="633.99,-106.52 601.99,-106.52 601.99,-88.52 633.99,-88.52 633.99,-106.52"/>
<text text-anchor="middle" x="617.99" y="-95.32" font-family="Times,serif" font-size="9.00">&#45;18</text>
</g>
<!-- &#45;18&#45;&gt;1 -->
<g id="edge34" class="edge">
<title>&#45;18&#45;&gt;1</title>
<path fill="none" stroke="green" stroke-width="0.57" stroke-dasharray="1,5" d="M624.26,-88.38C629.03,-82.48 635.95,-74.53 642.99,-68.53 660.73,-53.41 683.25,-39.37 699.88,-29.81"/>
<polygon fill="green" stroke="green" stroke-width="0.57" points="701.91,-32.69 708.9,-24.74 698.47,-26.59 701.91,-32.69"/>
</g>
<!-- &#45;18&#45;&gt;3 -->
<g id="edge42" class="edge">
<title>&#45;18&#45;&gt;3</title>
<path fill="none" stroke="red" stroke-width="0.27" stroke-dasharray="1,5" d="M611.62,-88.49C606.8,-82.66 599.86,-74.72 592.99,-68.53 577.56,-54.62 558.37,-40.95 543.84,-31.23"/>
<polygon fill="red" stroke="red" stroke-width="0.27" points="545.74,-28.3 535.46,-25.72 541.9,-34.14 545.74,-28.3"/>
</g>
<!-- &#45;19 -->
<g id="node19" class="node">
<title>&#45;19</title>
<polygon fill="lightgray" stroke="black" points="815.99,-106.52 783.99,-106.52 783.99,-88.52 815.99,-88.52 815.99,-106.52"/>
<text text-anchor="middle" x="799.99" y="-95.32" font-family="Times,serif" font-size="9.00">&#45;19</text>
</g>
<!-- &#45;19&#45;&gt;0 -->
<g id="edge40" class="edge">
<title>&#45;19&#45;&gt;0</title>
<path fill="none" stroke="red" stroke-width="0.18" stroke-dasharray="1,5" d="M805.15,-88.34C812.37,-76.9 825.74,-55.7 836.01,-39.42"/>
<polygon fill="red" stroke="red" stroke-width="0.18" points="839.25,-40.84 841.63,-30.52 833.33,-37.11 839.25,-40.84"/>
</g>
<!-- &#45;19&#45;&gt;1 -->
<g id="edge49" class="edge">
<title>&#45;19&#45;&gt;1</title>
<path fill="none" stroke="red" stroke-width="0.46" stroke-dasharray="1,5" d="M792.69,-88.06C787.77,-82.44 781.1,-74.95 774.99,-68.53 764.23,-57.22 751.8,-44.94 741.79,-35.23"/>
<polygon fill="red" stroke="red" stroke-width="0.46" points="743.98,-32.48 734.35,-28.06 739.12,-37.52 743.98,-32.48"/>
</g>
<!-- &#45;20 -->
<g id="node20" class="node">
<title>&#45;20</title>
<polygon fill="lightgray" stroke="black" points="1203.99,-106.52 1171.99,-106.52 1171.99,-88.52 1203.99,-88.52 1203.99,-106.52"/>
<text text-anchor="middle" x="1187.99" y="-95.32" font-family="Times,serif" font-size="9.00">&#45;20</text>
</g>
<!-- &#45;20&#45;&gt;0 -->
<g id="edge47" class="edge">
<title>&#45;20&#45;&gt;0</title>
<path fill="none" stroke="red" stroke-width="0.33" d="M1183.09,-88.51C1178.67,-82.03 1171.56,-73.23 1162.99,-68.53 1113.5,-41.35 942.43,-24.82 876.34,-19.32"/>
<polygon fill="red" stroke="red" stroke-width="0.33" points="876.57,-15.82 866.32,-18.5 876,-22.8 876.57,-15.82"/>
</g>
<!-- &#45;21 -->
<g id="node21" class="node">
<title>&#45;21</title>
<polygon fill="lightgray" stroke="black" points="865.99,-106.52 833.99,-106.52 833.99,-88.52 865.99,-88.52 865.99,-106.52"/>
<text text-anchor="middle" x="849.99" y="-95.32" font-family="Times,serif" font-size="9.00">&#45;21</text>
</g>
<!-- &#45;21&#45;&gt;0 -->
<g id="edge13" class="edge">
<title>&#45;21&#45;&gt;0</title>
<path fill="none" stroke="green" stroke-width="0.32" stroke-dasharray="1,5" d="M849.99,-88.34C849.99,-77.67 849.99,-58.51 849.99,-42.77"/>
<polygon fill="green" stroke="green" stroke-width="0.32" points="853.49,-42.57 849.99,-32.57 846.49,-42.57 853.49,-42.57"/>
</g>
<!-- &#45;21&#45;&gt;1 -->
<g id="edge30" class="edge">
<title>&#45;21&#45;&gt;1</title>
<path fill="none" stroke="red" stroke-width="0.12" d="M844.1,-88.41C839.42,-82.38 832.44,-74.23 824.99,-68.53 800.95,-50.11 769.27,-35.41 747.63,-26.56"/>
<polygon fill="red" stroke="red" stroke-width="0.12" points="748.77,-23.24 738.18,-22.8 746.18,-29.75 748.77,-23.24"/>
</g>
<!-- &#45;22 -->
<g id="node22" class="node">
<title>&#45;22</title>
<polygon fill="lightgray" stroke="black" points="915.99,-106.52 883.99,-106.52 883.99,-88.52 915.99,-88.52 915.99,-106.52"/>
<text text-anchor="middle" x="899.99" y="-95.32" font-family="Times,serif" font-size="9.00">&#45;22</text>
</g>
<!-- &#45;22&#45;&gt;0 -->
<g id="edge11" class="edge">
<title>&#45;22&#45;&gt;0</title>
<path fill="none" stroke="red" stroke-width="0.76" d="M894.83,-88.34C887.61,-76.9 874.24,-55.7 863.97,-39.42"/>
<polygon fill="red" stroke="red" stroke-width="0.76" points="866.65,-37.11 858.35,-30.52 860.73,-40.84 866.65,-37.11"/>
</g>
<!-- &#45;22&#45;&gt;1 -->
<g id="edge28" class="edge">
<title>&#45;22&#45;&gt;1</title>
<path fill="none" stroke="green" stroke-width="0.12" d="M894.51,-88.36C889.95,-82.14 882.93,-73.77 874.99,-68.53 835.32,-42.33 780.97,-28.28 749.16,-21.82"/>
<polygon fill="green" stroke="green" stroke-width="0.12" points="749.77,-18.37 739.29,-19.92 748.44,-25.25 749.77,-18.37"/>
</g>
<!-- &#45;23 -->
<g id="node23" class="node">
<title>&#45;23</title>
<polygon fill="lightgray" stroke="black" points="583.99,-106.52 551.99,-106.52 551.99,-88.52 583.99,-88.52 583.99,-106.52"/>
<text text-anchor="middle" x="567.99" y="-95.32" font-family="Times,serif" font-size="9.00">&#45;23</text>
</g>
<!-- &#45;23&#45;&gt;0 -->
<g id="edge32" class="edge">
<title>&#45;23&#45;&gt;0</title>
<path fill="none" stroke="green" stroke-width="0.29" stroke-dasharray="1,5" d="M573.12,-88.33C577.57,-81.92 584.62,-73.31 592.99,-68.53 603.07,-62.76 760.57,-33.58 823.91,-22"/>
<polygon fill="green" stroke="green" stroke-width="0.29" points="824.7,-25.42 833.91,-20.18 823.44,-18.53 824.7,-25.42"/>
</g>
<!-- &#45;23&#45;&gt;1 -->
<g id="edge14" class="edge">
<title>&#45;23&#45;&gt;1</title>
<path fill="none" stroke="red" stroke-width="0.33" d="M573.74,-88.21C578.35,-82.08 585.29,-73.89 592.99,-68.53 625.64,-45.77 669.83,-31.13 697.36,-23.55"/>
<polygon fill="red" stroke="red" stroke-width="0.33" points="698.27,-26.93 707.04,-20.98 696.47,-20.16 698.27,-26.93"/>
</g>
<!-- &#45;23&#45;&gt;2 -->
<g id="edge46" class="edge">
<title>&#45;23&#45;&gt;2</title>
<path fill="none" stroke="red" stroke-width="0.27" d="M562.81,-88.43C558.32,-82.08 551.25,-73.5 542.99,-68.53 484.77,-33.45 403.59,-22.32 362.33,-18.83"/>
<polygon fill="red" stroke="red" stroke-width="0.27" points="362.51,-15.33 352.27,-18.06 361.98,-22.31 362.51,-15.33"/>
</g>
<!-- &#45;23&#45;&gt;3 -->
<g id="edge4" class="edge">
<title>&#45;23&#45;&gt;3</title>
<path fill="none" stroke="green" stroke-width="0.12" d="M563.24,-88.34C556.64,-76.96 544.44,-55.95 535.02,-39.7"/>
<polygon fill="green" stroke="green" stroke-width="0.12" points="537.9,-37.7 529.85,-30.8 531.84,-41.21 537.9,-37.7"/>
</g>
<!-- &#45;24 -->
<g id="node24" class="node">
<title>&#45;24</title>
<polygon fill="lightgray" stroke="black" points="401.99,-106.52 369.99,-106.52 369.99,-88.52 401.99,-88.52 401.99,-106.52"/>
<text text-anchor="middle" x="385.99" y="-95.32" font-family="Times,serif" font-size="9.00">&#45;24</text>
</g>
<!-- &#45;24&#45;&gt;1 -->
<g id="edge22" class="edge">
<title>&#45;24&#45;&gt;1</title>
<path fill="none" stroke="green" stroke-width="0.25" stroke-dasharray="1,5" d="M390.89,-88.52C395.31,-82.03 402.43,-73.23 410.99,-68.53 460.33,-41.43 630.85,-24.85 696.73,-19.32"/>
<polygon fill="green" stroke="green" stroke-width="0.25" points="697.04,-22.81 706.72,-18.5 696.47,-15.83 697.04,-22.81"/>
</g>
<!-- &#45;24&#45;&gt;2 -->
<g id="edge3" class="edge">
<title>&#45;24&#45;&gt;2</title>
<path fill="none" stroke="red" stroke-width="0.86" d="M380.83,-88.34C373.61,-76.9 360.24,-55.7 349.97,-39.42"/>
<polygon fill="red" stroke="red" stroke-width="0.86" points="352.65,-37.11 344.35,-30.52 346.73,-40.84 352.65,-37.11"/>
</g>
<!-- 1&#45;&gt;1 -->
<g id="edge41" class="edge">
<title>1&#45;&gt;1</title>
<path fill="none" stroke="green" stroke-width="0.33" stroke-dasharray="1,5" d="M734.22,-28.18C745.2,-34.77 757.25,-30.79 757.25,-16.26 757.25,-6.05 751.29,-1.05 743.94,-1.27"/>
<polygon fill="green" stroke="green" stroke-width="0.33" points="742.7,2.01 734.22,-4.34 744.81,-4.67 742.7,2.01"/>
</g>
<!-- 2&#45;&gt;2 -->
<g id="edge20" class="edge">
<title>2&#45;&gt;2</title>
<path fill="none" stroke="green" stroke-width="0.87" stroke-dasharray="1,5" d="M347.22,-28.18C358.2,-34.77 370.25,-30.79 370.25,-16.26 370.25,-6.05 364.29,-1.05 356.94,-1.27"/>
<polygon fill="green" stroke="green" stroke-width="0.87" points="355.7,2.01 347.22,-4.34 357.81,-4.67 355.7,2.01"/>
</g>
<!-- 1584 -->
<g id="node29" class="node">
<title>1584</title>
<ellipse fill="white" stroke="black" cx="28.99" cy="-97.52" rx="28.98" ry="28.98"/>
<text text-anchor="middle" x="28.99" y="-95.32" font-family="Times,serif" font-size="9.00">1584</text>
</g>
<!-- 1584&#45;&gt;2 -->
<g id="edge50" class="edge">
<title>1584&#45;&gt;2</title>
<path fill="none" stroke="green" stroke-width="0.27" d="M50.88,-77.87C55.91,-74.32 61.43,-70.95 66.99,-68.53 150.64,-32.01 260.11,-21.43 309.63,-18.43"/>
<polygon fill="green" stroke="green" stroke-width="0.27" points="310.01,-21.91 319.8,-17.87 309.62,-14.92 310.01,-21.91"/>
</g>
</g>
</svg>
