<?xml version="1.0" encoding="utf-8" standalone="no"?>
<!DOCTYPE svg PUBLIC "-//W3C//DTD SVG 1.1//EN"
  "http://www.w3.org/Graphics/SVG/1.1/DTD/svg11.dtd">
<svg xmlns:xlink="http://www.w3.org/1999/xlink" width="460.8pt" height="345.6pt" viewBox="0 0 460.8 345.6" xmlns="http://www.w3.org/2000/svg" version="1.1">
 <metadata>
  <rdf:RDF xmlns:dc="http://purl.org/dc/elements/1.1/" xmlns:cc="http://creativecommons.org/ns#" xmlns:rdf="http://www.w3.org/1999/02/22-rdf-syntax-ns#">
   <cc:Work>
    <dc:type rdf:resource="http://purl.org/dc/dcmitype/StillImage"/>
    <dc:date>2024-08-17T02:23:18.929750</dc:date>
    <dc:format>image/svg+xml</dc:format>
    <dc:creator>
     <cc:Agent>
      <dc:title>Matplotlib v3.8.4, https://matplotlib.org/</dc:title>
     </cc:Agent>
    </dc:creator>
   </cc:Work>
  </rdf:RDF>
 </metadata>
 <defs>
  <style type="text/css">*{stroke-linejoin: round; stroke-linecap: butt}</style>
 </defs>
 <g id="figure_1">
  <g id="patch_1">
   <path d="M 0 345.6 
L 460.8 345.6 
L 460.8 0 
L 0 0 
z
" style="fill: #ffffff"/>
  </g>
  <g id="axes_1">
   <g id="patch_2">
    <path d="M 57.6 307.584 
L 414.72 307.584 
L 414.72 41.472 
L 57.6 41.472 
z
" style="fill: #ffffff"/>
   </g>
   <g id="PolyCollection_1">
    <path d="M 73.832727 268.377812 
L 73.832727 307.584 
L 79.335347 307.584 
L 84.837966 307.584 
L 90.340586 307.584 
L 95.843205 307.584 
L 101.345824 307.584 
L 106.848444 307.584 
L 112.351063 307.584 
L 117.853683 307.584 
L 123.356302 307.584 
L 128.858921 307.584 
L 134.361541 307.584 
L 139.86416 307.584 
L 145.36678 307.584 
L 150.869399 307.584 
L 156.372018 307.584 
L 161.874638 307.584 
L 167.377257 307.584 
L 172.879877 307.584 
L 178.382496 307.584 
L 183.885116 307.584 
L 189.387735 307.584 
L 194.890354 307.584 
L 200.392974 307.584 
L 205.895593 307.584 
L 211.398213 307.584 
L 216.900832 307.584 
L 222.403451 307.584 
L 227.906071 307.584 
L 233.40869 307.584 
L 238.91131 307.584 
L 244.413929 307.584 
L 249.916549 307.584 
L 255.419168 307.584 
L 260.921787 307.584 
L 266.424407 307.584 
L 271.927026 307.584 
L 277.429646 307.584 
L 282.932265 307.584 
L 288.434884 307.584 
L 293.937504 307.584 
L 299.440123 307.584 
L 304.942743 307.584 
L 310.445362 307.584 
L 315.947982 307.584 
L 321.450601 307.584 
L 326.95322 307.584 
L 332.45584 307.584 
L 337.958459 307.584 
L 343.461079 307.584 
L 348.963698 307.584 
L 354.466317 307.584 
L 359.968937 307.584 
L 365.471556 307.584 
L 370.974176 307.584 
L 376.476795 307.584 
L 381.979414 307.584 
L 387.482034 307.584 
L 392.984653 307.584 
L 398.487273 307.584 
L 398.487273 272.578475 
L 398.487273 272.578475 
L 392.984653 275.378917 
L 387.482034 264.177149 
L 381.979414 289.381127 
L 376.476795 304.783558 
L 370.974176 279.57958 
L 365.471556 229.171624 
L 359.968937 258.576265 
L 354.466317 280.979801 
L 348.963698 282.380022 
L 343.461079 282.380022 
L 337.958459 266.977591 
L 332.45584 280.979801 
L 326.95322 289.381127 
L 321.450601 282.380022 
L 315.947982 280.979801 
L 310.445362 287.980906 
L 304.942743 293.58179 
L 299.440123 294.982011 
L 293.937504 276.779138 
L 288.434884 290.781348 
L 282.932265 296.382232 
L 277.429646 296.382232 
L 271.927026 292.181569 
L 266.424407 297.782453 
L 260.921787 285.180464 
L 255.419168 297.782453 
L 249.916549 294.982011 
L 244.413929 293.58179 
L 238.91131 294.982011 
L 233.40869 296.382232 
L 227.906071 293.58179 
L 222.403451 285.180464 
L 216.900832 290.781348 
L 211.398213 290.781348 
L 205.895593 296.382232 
L 200.392974 294.982011 
L 194.890354 297.782453 
L 189.387735 296.382232 
L 183.885116 292.181569 
L 178.382496 297.782453 
L 172.879877 297.782453 
L 167.377257 300.582895 
L 161.874638 290.781348 
L 156.372018 273.978696 
L 150.869399 300.582895 
L 145.36678 289.381127 
L 139.86416 299.182674 
L 134.361541 297.782453 
L 128.858921 296.382232 
L 123.356302 268.377812 
L 117.853683 280.979801 
L 112.351063 304.783558 
L 106.848444 294.982011 
L 101.345824 290.781348 
L 95.843205 297.782453 
L 90.340586 245.974276 
L 84.837966 285.180464 
L 79.335347 261.376707 
L 73.832727 268.377812 
z
" clip-path="url(#pf6673538e4)" style="fill: #1f77b4"/>
   </g>
   <g id="PolyCollection_2">
    <path d="M 73.832727 177.363448 
L 73.832727 268.377812 
L 79.335347 261.376707 
L 84.837966 285.180464 
L 90.340586 245.974276 
L 95.843205 297.782453 
L 101.345824 290.781348 
L 106.848444 294.982011 
L 112.351063 304.783558 
L 117.853683 280.979801 
L 123.356302 268.377812 
L 128.858921 296.382232 
L 134.361541 297.782453 
L 139.86416 299.182674 
L 145.36678 289.381127 
L 150.869399 300.582895 
L 156.372018 273.978696 
L 161.874638 290.781348 
L 167.377257 300.582895 
L 172.879877 297.782453 
L 178.382496 297.782453 
L 183.885116 292.181569 
L 189.387735 296.382232 
L 194.890354 297.782453 
L 200.392974 294.982011 
L 205.895593 296.382232 
L 211.398213 290.781348 
L 216.900832 290.781348 
L 222.403451 285.180464 
L 227.906071 293.58179 
L 233.40869 296.382232 
L 238.91131 294.982011 
L 244.413929 293.58179 
L 249.916549 294.982011 
L 255.419168 297.782453 
L 260.921787 285.180464 
L 266.424407 297.782453 
L 271.927026 292.181569 
L 277.429646 296.382232 
L 282.932265 296.382232 
L 288.434884 290.781348 
L 293.937504 276.779138 
L 299.440123 294.982011 
L 304.942743 293.58179 
L 310.445362 287.980906 
L 315.947982 280.979801 
L 321.450601 282.380022 
L 326.95322 289.381127 
L 332.45584 280.979801 
L 337.958459 266.977591 
L 343.461079 282.380022 
L 348.963698 282.380022 
L 354.466317 280.979801 
L 359.968937 258.576265 
L 365.471556 229.171624 
L 370.974176 279.57958 
L 376.476795 304.783558 
L 381.979414 289.381127 
L 387.482034 264.177149 
L 392.984653 275.378917 
L 398.487273 272.578475 
L 398.487273 272.578475 
L 398.487273 272.578475 
L 392.984653 275.378917 
L 387.482034 264.177149 
L 381.979414 289.381127 
L 376.476795 304.783558 
L 370.974176 279.57958 
L 365.471556 229.171624 
L 359.968937 258.576265 
L 354.466317 280.979801 
L 348.963698 282.380022 
L 343.461079 262.776928 
L 337.958459 247.374497 
L 332.45584 254.375602 
L 326.95322 268.377812 
L 321.450601 257.176044 
L 315.947982 262.776928 
L 310.445362 276.779138 
L 304.942743 268.377812 
L 299.440123 280.979801 
L 293.937504 268.377812 
L 288.434884 250.174939 
L 282.932265 289.381127 
L 277.429646 231.972066 
L 271.927026 273.978696 
L 266.424407 287.980906 
L 260.921787 268.377812 
L 255.419168 278.179359 
L 249.916549 280.979801 
L 244.413929 271.178254 
L 238.91131 280.979801 
L 233.40869 285.180464 
L 227.906071 255.775823 
L 222.403451 251.57516 
L 216.900832 280.979801 
L 211.398213 266.977591 
L 205.895593 279.57958 
L 200.392974 273.978696 
L 194.890354 282.380022 
L 189.387735 279.57958 
L 183.885116 280.979801 
L 178.382496 283.780243 
L 172.879877 285.180464 
L 167.377257 290.781348 
L 161.874638 286.580685 
L 156.372018 262.776928 
L 150.869399 294.982011 
L 145.36678 245.974276 
L 139.86416 268.377812 
L 134.361541 280.979801 
L 128.858921 269.778033 
L 123.356302 231.972066 
L 117.853683 248.774718 
L 112.351063 300.582895 
L 106.848444 282.380022 
L 101.345824 251.57516 
L 95.843205 269.778033 
L 90.340586 212.368972 
L 84.837966 240.373392 
L 79.335347 216.569635 
L 73.832727 177.363448 
z
" clip-path="url(#pf6673538e4)" style="fill: #ff7f0e"/>
   </g>
   <g id="PolyCollection_3">
    <path d="M 73.832727 167.561901 
L 73.832727 177.363448 
L 79.335347 216.569635 
L 84.837966 240.373392 
L 90.340586 212.368972 
L 95.843205 269.778033 
L 101.345824 251.57516 
L 106.848444 282.380022 
L 112.351063 300.582895 
L 117.853683 248.774718 
L 123.356302 231.972066 
L 128.858921 269.778033 
L 134.361541 280.979801 
L 139.86416 268.377812 
L 145.36678 245.974276 
L 150.869399 294.982011 
L 156.372018 262.776928 
L 161.874638 286.580685 
L 167.377257 290.781348 
L 172.879877 285.180464 
L 178.382496 283.780243 
L 183.885116 280.979801 
L 189.387735 279.57958 
L 194.890354 282.380022 
L 200.392974 273.978696 
L 205.895593 279.57958 
L 211.398213 266.977591 
L 216.900832 280.979801 
L 222.403451 251.57516 
L 227.906071 255.775823 
L 233.40869 285.180464 
L 238.91131 280.979801 
L 244.413929 271.178254 
L 249.916549 280.979801 
L 255.419168 278.179359 
L 260.921787 268.377812 
L 266.424407 287.980906 
L 271.927026 273.978696 
L 277.429646 231.972066 
L 282.932265 289.381127 
L 288.434884 250.174939 
L 293.937504 268.377812 
L 299.440123 280.979801 
L 304.942743 268.377812 
L 310.445362 276.779138 
L 315.947982 262.776928 
L 321.450601 257.176044 
L 326.95322 268.377812 
L 332.45584 254.375602 
L 337.958459 247.374497 
L 343.461079 262.776928 
L 348.963698 282.380022 
L 354.466317 280.979801 
L 359.968937 258.576265 
L 365.471556 229.171624 
L 370.974176 279.57958 
L 376.476795 304.783558 
L 381.979414 289.381127 
L 387.482034 264.177149 
L 392.984653 275.378917 
L 398.487273 272.578475 
L 398.487273 272.578475 
L 398.487273 272.578475 
L 392.984653 275.378917 
L 387.482034 264.177149 
L 381.979414 289.381127 
L 376.476795 304.783558 
L 370.974176 279.57958 
L 365.471556 229.171624 
L 359.968937 258.576265 
L 354.466317 280.979801 
L 348.963698 282.380022 
L 343.461079 262.776928 
L 337.958459 247.374497 
L 332.45584 254.375602 
L 326.95322 268.377812 
L 321.450601 243.173834 
L 315.947982 240.373392 
L 310.445362 251.57516 
L 304.942743 247.374497 
L 299.440123 265.57737 
L 293.937504 250.174939 
L 288.434884 233.372287 
L 282.932265 268.377812 
L 277.429646 220.770298 
L 271.927026 268.377812 
L 266.424407 271.178254 
L 260.921787 261.376707 
L 255.419168 269.778033 
L 249.916549 269.778033 
L 244.413929 254.375602 
L 238.91131 271.178254 
L 233.40869 272.578475 
L 227.906071 243.173834 
L 222.403451 233.372287 
L 216.900832 262.776928 
L 211.398213 243.173834 
L 205.895593 265.57737 
L 200.392974 266.977591 
L 194.890354 273.978696 
L 189.387735 264.177149 
L 183.885116 268.377812 
L 178.382496 271.178254 
L 172.879877 279.57958 
L 167.377257 278.179359 
L 161.874638 268.377812 
L 156.372018 245.974276 
L 150.869399 273.978696 
L 145.36678 234.772508 
L 139.86416 251.57516 
L 134.361541 269.778033 
L 128.858921 230.571845 
L 123.356302 220.770298 
L 117.853683 220.770298 
L 112.351063 282.380022 
L 106.848444 254.375602 
L 101.345824 227.771403 
L 95.843205 251.57516 
L 90.340586 201.167204 
L 84.837966 226.371182 
L 79.335347 203.967646 
L 73.832727 167.561901 
z
" clip-path="url(#pf6673538e4)" style="fill: #2ca02c"/>
   </g>
   <g id="PolyCollection_4">
    <path d="M 73.832727 160.560796 
L 73.832727 167.561901 
L 79.335347 203.967646 
L 84.837966 226.371182 
L 90.340586 201.167204 
L 95.843205 251.57516 
L 101.345824 227.771403 
L 106.848444 254.375602 
L 112.351063 282.380022 
L 117.853683 220.770298 
L 123.356302 220.770298 
L 128.858921 230.571845 
L 134.361541 269.778033 
L 139.86416 251.57516 
L 145.36678 234.772508 
L 150.869399 273.978696 
L 156.372018 245.974276 
L 161.874638 268.377812 
L 167.377257 278.179359 
L 172.879877 279.57958 
L 178.382496 271.178254 
L 183.885116 268.377812 
L 189.387735 264.177149 
L 194.890354 273.978696 
L 200.392974 266.977591 
L 205.895593 265.57737 
L 211.398213 243.173834 
L 216.900832 262.776928 
L 222.403451 233.372287 
L 227.906071 243.173834 
L 233.40869 272.578475 
L 238.91131 271.178254 
L 244.413929 254.375602 
L 249.916549 269.778033 
L 255.419168 269.778033 
L 260.921787 261.376707 
L 266.424407 271.178254 
L 271.927026 268.377812 
L 277.429646 220.770298 
L 282.932265 268.377812 
L 288.434884 233.372287 
L 293.937504 250.174939 
L 299.440123 265.57737 
L 304.942743 247.374497 
L 310.445362 251.57516 
L 315.947982 240.373392 
L 321.450601 243.173834 
L 326.95322 268.377812 
L 332.45584 254.375602 
L 337.958459 247.374497 
L 343.461079 262.776928 
L 348.963698 282.380022 
L 354.466317 280.979801 
L 359.968937 258.576265 
L 365.471556 229.171624 
L 370.974176 279.57958 
L 376.476795 304.783558 
L 381.979414 289.381127 
L 387.482034 264.177149 
L 392.984653 275.378917 
L 398.487273 272.578475 
L 398.487273 272.578475 
L 398.487273 272.578475 
L 392.984653 275.378917 
L 387.482034 264.177149 
L 381.979414 289.381127 
L 376.476795 304.783558 
L 370.974176 279.57958 
L 365.471556 229.171624 
L 359.968937 258.576265 
L 354.466317 280.979801 
L 348.963698 282.380022 
L 343.461079 262.776928 
L 337.958459 247.374497 
L 332.45584 254.375602 
L 326.95322 268.377812 
L 321.450601 243.173834 
L 315.947982 240.373392 
L 310.445362 251.57516 
L 304.942743 247.374497 
L 299.440123 265.57737 
L 293.937504 233.372287 
L 288.434884 213.769193 
L 282.932265 254.375602 
L 277.429646 206.768088 
L 271.927026 262.776928 
L 266.424407 227.771403 
L 260.921787 252.975381 
L 255.419168 248.774718 
L 249.916549 237.57295 
L 244.413929 241.773613 
L 238.91131 252.975381 
L 233.40869 245.974276 
L 227.906071 222.170519 
L 222.403451 222.170519 
L 216.900832 245.974276 
L 211.398213 224.970961 
L 205.895593 244.574055 
L 200.392974 244.574055 
L 194.890354 257.176044 
L 189.387735 250.174939 
L 183.885116 238.973171 
L 178.382496 258.576265 
L 172.879877 213.769193 
L 167.377257 262.776928 
L 161.874638 255.775823 
L 156.372018 236.172729 
L 150.869399 258.576265 
L 145.36678 226.371182 
L 139.86416 233.372287 
L 134.361541 255.775823 
L 128.858921 196.966541 
L 123.356302 208.168309 
L 117.853683 208.168309 
L 112.351063 275.378917 
L 106.848444 226.371182 
L 101.345824 203.967646 
L 95.843205 226.371182 
L 90.340586 180.16389 
L 84.837966 213.769193 
L 79.335347 175.963227 
L 73.832727 160.560796 
z
" clip-path="url(#pf6673538e4)" style="fill: #d62728"/>
   </g>
   <g id="PolyCollection_5">
    <path d="M 73.832727 111.553061 
L 73.832727 160.560796 
L 79.335347 175.963227 
L 84.837966 213.769193 
L 90.340586 180.16389 
L 95.843205 226.371182 
L 101.345824 203.967646 
L 106.848444 226.371182 
L 112.351063 275.378917 
L 117.853683 208.168309 
L 123.356302 208.168309 
L 128.858921 196.966541 
L 134.361541 255.775823 
L 139.86416 233.372287 
L 145.36678 226.371182 
L 150.869399 258.576265 
L 156.372018 236.172729 
L 161.874638 255.775823 
L 167.377257 262.776928 
L 172.879877 213.769193 
L 178.382496 258.576265 
L 183.885116 238.973171 
L 189.387735 250.174939 
L 194.890354 257.176044 
L 200.392974 244.574055 
L 205.895593 244.574055 
L 211.398213 224.970961 
L 216.900832 245.974276 
L 222.403451 222.170519 
L 227.906071 222.170519 
L 233.40869 245.974276 
L 238.91131 252.975381 
L 244.413929 241.773613 
L 249.916549 237.57295 
L 255.419168 248.774718 
L 260.921787 252.975381 
L 266.424407 227.771403 
L 271.927026 262.776928 
L 277.429646 206.768088 
L 282.932265 254.375602 
L 288.434884 213.769193 
L 293.937504 233.372287 
L 299.440123 265.57737 
L 304.942743 247.374497 
L 310.445362 251.57516 
L 315.947982 240.373392 
L 321.450601 243.173834 
L 326.95322 268.377812 
L 332.45584 254.375602 
L 337.958459 247.374497 
L 343.461079 262.776928 
L 348.963698 282.380022 
L 354.466317 280.979801 
L 359.968937 258.576265 
L 365.471556 229.171624 
L 370.974176 279.57958 
L 376.476795 304.783558 
L 381.979414 289.381127 
L 387.482034 264.177149 
L 392.984653 275.378917 
L 398.487273 272.578475 
L 398.487273 272.578475 
L 398.487273 272.578475 
L 392.984653 275.378917 
L 387.482034 264.177149 
L 381.979414 289.381127 
L 376.476795 304.783558 
L 370.974176 279.57958 
L 365.471556 229.171624 
L 359.968937 258.576265 
L 354.466317 280.979801 
L 348.963698 282.380022 
L 343.461079 262.776928 
L 337.958459 247.374497 
L 332.45584 254.375602 
L 326.95322 268.377812 
L 321.450601 243.173834 
L 315.947982 210.968751 
L 310.445362 219.370077 
L 304.942743 223.57074 
L 299.440123 251.57516 
L 293.937504 220.770298 
L 288.434884 196.966541 
L 282.932265 227.771403 
L 277.429646 196.966541 
L 271.927026 233.372287 
L 266.424407 196.966541 
L 260.921787 248.774718 
L 255.419168 191.365657 
L 249.916549 230.571845 
L 244.413929 224.970961 
L 238.91131 238.973171 
L 233.40869 220.770298 
L 227.906071 201.167204 
L 222.403451 210.968751 
L 216.900832 231.972066 
L 211.398213 209.56853 
L 205.895593 208.168309 
L 200.392974 229.171624 
L 194.890354 233.372287 
L 189.387735 236.172729 
L 183.885116 234.772508 
L 178.382496 203.967646 
L 172.879877 180.16389 
L 167.377257 184.364552 
L 161.874638 244.574055 
L 156.372018 219.370077 
L 150.869399 224.970961 
L 145.36678 215.169414 
L 139.86416 224.970961 
L 134.361541 202.567425 
L 128.858921 182.964331 
L 123.356302 196.966541 
L 117.853683 198.366762 
L 112.351063 250.174939 
L 106.848444 213.769193 
L 101.345824 191.365657 
L 95.843205 188.565215 
L 90.340586 154.959912 
L 84.837966 191.365657 
L 79.335347 142.357923 
L 73.832727 111.553061 
z
" clip-path="url(#pf6673538e4)" style="fill: #9467bd"/>
   </g>
   <g id="PolyCollection_6">
    <path d="M 73.832727 83.548641 
L 73.832727 111.553061 
L 79.335347 142.357923 
L 84.837966 191.365657 
L 90.340586 154.959912 
L 95.843205 188.565215 
L 101.345824 191.365657 
L 106.848444 213.769193 
L 112.351063 250.174939 
L 117.853683 198.366762 
L 123.356302 196.966541 
L 128.858921 182.964331 
L 134.361541 202.567425 
L 139.86416 224.970961 
L 145.36678 215.169414 
L 150.869399 224.970961 
L 156.372018 219.370077 
L 161.874638 244.574055 
L 167.377257 184.364552 
L 172.879877 180.16389 
L 178.382496 203.967646 
L 183.885116 234.772508 
L 189.387735 236.172729 
L 194.890354 233.372287 
L 200.392974 229.171624 
L 205.895593 208.168309 
L 211.398213 209.56853 
L 216.900832 231.972066 
L 222.403451 210.968751 
L 227.906071 201.167204 
L 233.40869 220.770298 
L 238.91131 238.973171 
L 244.413929 224.970961 
L 249.916549 230.571845 
L 255.419168 191.365657 
L 260.921787 248.774718 
L 266.424407 196.966541 
L 271.927026 233.372287 
L 277.429646 196.966541 
L 282.932265 227.771403 
L 288.434884 196.966541 
L 293.937504 220.770298 
L 299.440123 251.57516 
L 304.942743 223.57074 
L 310.445362 219.370077 
L 315.947982 210.968751 
L 321.450601 243.173834 
L 326.95322 268.377812 
L 332.45584 254.375602 
L 337.958459 247.374497 
L 343.461079 262.776928 
L 348.963698 282.380022 
L 354.466317 280.979801 
L 359.968937 258.576265 
L 365.471556 229.171624 
L 370.974176 279.57958 
L 376.476795 304.783558 
L 381.979414 289.381127 
L 387.482034 264.177149 
L 392.984653 275.378917 
L 398.487273 272.578475 
L 398.487273 231.972066 
L 398.487273 231.972066 
L 392.984653 264.177149 
L 387.482034 240.373392 
L 381.979414 276.779138 
L 376.476795 222.170519 
L 370.974176 261.376707 
L 365.471556 220.770298 
L 359.968937 241.773613 
L 354.466317 231.972066 
L 348.963698 276.779138 
L 343.461079 231.972066 
L 337.958459 196.966541 
L 332.45584 237.57295 
L 326.95322 261.376707 
L 321.450601 216.569635 
L 315.947982 201.167204 
L 310.445362 208.168309 
L 304.942743 216.569635 
L 299.440123 219.370077 
L 293.937504 209.56853 
L 288.434884 177.363448 
L 282.932265 199.766983 
L 277.429646 192.765878 
L 271.927026 229.171624 
L 266.424407 181.56411 
L 260.921787 241.773613 
L 255.419168 174.563006 
L 249.916549 220.770298 
L 244.413929 223.57074 
L 238.91131 199.766983 
L 233.40869 216.569635 
L 227.906071 173.162785 
L 222.403451 203.967646 
L 216.900832 196.966541 
L 211.398213 194.166099 
L 205.895593 205.367867 
L 200.392974 166.16168 
L 194.890354 210.968751 
L 189.387735 201.167204 
L 183.885116 198.366762 
L 178.382496 187.164994 
L 172.879877 153.559691 
L 167.377257 160.560796 
L 161.874638 230.571845 
L 156.372018 194.166099 
L 150.869399 201.167204 
L 145.36678 195.56632 
L 139.86416 209.56853 
L 134.361541 187.164994 
L 128.858921 164.761459 
L 123.356302 175.963227 
L 117.853683 168.962122 
L 112.351063 234.772508 
L 106.848444 195.56632 
L 101.345824 161.961017 
L 95.843205 170.362343 
L 90.340586 138.15726 
L 84.837966 142.357923 
L 79.335347 114.353503 
L 73.832727 83.548641 
z
" clip-path="url(#pf6673538e4)" style="fill: #8c564b"/>
   </g>
   <g id="PolyCollection_7">
    <path d="M 73.832727 76.547536 
L 73.832727 83.548641 
L 79.335347 114.353503 
L 84.837966 142.357923 
L 90.340586 138.15726 
L 95.843205 170.362343 
L 101.345824 161.961017 
L 106.848444 195.56632 
L 112.351063 234.772508 
L 117.853683 168.962122 
L 123.356302 175.963227 
L 128.858921 164.761459 
L 134.361541 187.164994 
L 139.86416 209.56853 
L 145.36678 195.56632 
L 150.869399 201.167204 
L 156.372018 194.166099 
L 161.874638 230.571845 
L 167.377257 160.560796 
L 172.879877 153.559691 
L 178.382496 187.164994 
L 183.885116 198.366762 
L 189.387735 201.167204 
L 194.890354 210.968751 
L 200.392974 166.16168 
L 205.895593 205.367867 
L 211.398213 194.166099 
L 216.900832 196.966541 
L 222.403451 203.967646 
L 227.906071 173.162785 
L 233.40869 216.569635 
L 238.91131 199.766983 
L 244.413929 223.57074 
L 249.916549 220.770298 
L 255.419168 174.563006 
L 260.921787 241.773613 
L 266.424407 181.56411 
L 271.927026 229.171624 
L 277.429646 192.765878 
L 282.932265 199.766983 
L 288.434884 177.363448 
L 293.937504 209.56853 
L 299.440123 219.370077 
L 304.942743 216.569635 
L 310.445362 208.168309 
L 315.947982 201.167204 
L 321.450601 216.569635 
L 326.95322 261.376707 
L 332.45584 237.57295 
L 337.958459 196.966541 
L 343.461079 231.972066 
L 348.963698 276.779138 
L 354.466317 231.972066 
L 359.968937 241.773613 
L 365.471556 220.770298 
L 370.974176 261.376707 
L 376.476795 222.170519 
L 381.979414 276.779138 
L 387.482034 240.373392 
L 392.984653 264.177149 
L 398.487273 231.972066 
L 398.487273 231.972066 
L 398.487273 231.972066 
L 392.984653 264.177149 
L 387.482034 240.373392 
L 381.979414 276.779138 
L 376.476795 222.170519 
L 370.974176 261.376707 
L 365.471556 220.770298 
L 359.968937 241.773613 
L 354.466317 231.972066 
L 348.963698 276.779138 
L 343.461079 231.972066 
L 337.958459 196.966541 
L 332.45584 237.57295 
L 326.95322 261.376707 
L 321.450601 216.569635 
L 315.947982 201.167204 
L 310.445362 208.168309 
L 304.942743 216.569635 
L 299.440123 219.370077 
L 293.937504 209.56853 
L 288.434884 177.363448 
L 282.932265 199.766983 
L 277.429646 192.765878 
L 271.927026 229.171624 
L 266.424407 181.56411 
L 260.921787 241.773613 
L 255.419168 174.563006 
L 249.916549 220.770298 
L 244.413929 223.57074 
L 238.91131 199.766983 
L 233.40869 216.569635 
L 227.906071 173.162785 
L 222.403451 203.967646 
L 216.900832 185.764773 
L 211.398213 178.763669 
L 205.895593 191.365657 
L 200.392974 154.959912 
L 194.890354 203.967646 
L 189.387735 187.164994 
L 183.885116 178.763669 
L 178.382496 170.362343 
L 172.879877 140.957702 
L 167.377257 142.357923 
L 161.874638 213.769193 
L 156.372018 174.563006 
L 150.869399 175.963227 
L 145.36678 173.162785 
L 139.86416 194.166099 
L 134.361541 168.962122 
L 128.858921 142.357923 
L 123.356302 159.160575 
L 117.853683 157.760354 
L 112.351063 233.372287 
L 106.848444 166.16168 
L 101.345824 133.956597 
L 95.843205 150.759249 
L 90.340586 117.153945 
L 84.837966 125.555271 
L 79.335347 101.751514 
L 73.832727 76.547536 
z
" clip-path="url(#pf6673538e4)" style="fill: #e377c2"/>
   </g>
   <g id="PolyCollection_8">
    <path d="M 73.832727 68.14621 
L 73.832727 76.547536 
L 79.335347 101.751514 
L 84.837966 125.555271 
L 90.340586 117.153945 
L 95.843205 150.759249 
L 101.345824 133.956597 
L 106.848444 166.16168 
L 112.351063 233.372287 
L 117.853683 157.760354 
L 123.356302 159.160575 
L 128.858921 142.357923 
L 134.361541 168.962122 
L 139.86416 194.166099 
L 145.36678 173.162785 
L 150.869399 175.963227 
L 156.372018 174.563006 
L 161.874638 213.769193 
L 167.377257 142.357923 
L 172.879877 140.957702 
L 178.382496 170.362343 
L 183.885116 178.763669 
L 189.387735 187.164994 
L 194.890354 203.967646 
L 200.392974 154.959912 
L 205.895593 191.365657 
L 211.398213 178.763669 
L 216.900832 185.764773 
L 222.403451 203.967646 
L 227.906071 173.162785 
L 233.40869 216.569635 
L 238.91131 199.766983 
L 244.413929 223.57074 
L 249.916549 220.770298 
L 255.419168 174.563006 
L 260.921787 241.773613 
L 266.424407 181.56411 
L 271.927026 229.171624 
L 277.429646 192.765878 
L 282.932265 199.766983 
L 288.434884 177.363448 
L 293.937504 209.56853 
L 299.440123 219.370077 
L 304.942743 216.569635 
L 310.445362 208.168309 
L 315.947982 201.167204 
L 321.450601 216.569635 
L 326.95322 261.376707 
L 332.45584 237.57295 
L 337.958459 196.966541 
L 343.461079 231.972066 
L 348.963698 276.779138 
L 354.466317 231.972066 
L 359.968937 241.773613 
L 365.471556 220.770298 
L 370.974176 261.376707 
L 376.476795 222.170519 
L 381.979414 276.779138 
L 387.482034 240.373392 
L 392.984653 264.177149 
L 398.487273 231.972066 
L 398.487273 208.168309 
L 398.487273 208.168309 
L 392.984653 247.374497 
L 387.482034 226.371182 
L 381.979414 255.775823 
L 376.476795 205.367867 
L 370.974176 234.772508 
L 365.471556 191.365657 
L 359.968937 223.57074 
L 354.466317 216.569635 
L 348.963698 264.177149 
L 343.461079 216.569635 
L 337.958459 184.364552 
L 332.45584 217.969856 
L 326.95322 245.974276 
L 321.450601 203.967646 
L 315.947982 188.565215 
L 310.445362 195.56632 
L 304.942743 202.567425 
L 299.440123 203.967646 
L 293.937504 192.765878 
L 288.434884 163.361238 
L 282.932265 178.763669 
L 277.429646 178.763669 
L 271.927026 215.169414 
L 266.424407 170.362343 
L 260.921787 226.371182 
L 255.419168 159.160575 
L 249.916549 210.968751 
L 244.413929 210.968751 
L 238.91131 180.16389 
L 233.40869 203.967646 
L 227.906071 156.360133 
L 222.403451 182.964331 
L 216.900832 168.962122 
L 211.398213 159.160575 
L 205.895593 177.363448 
L 200.392974 139.557481 
L 194.890354 189.965436 
L 189.387735 171.762564 
L 183.885116 164.761459 
L 178.382496 159.160575 
L 172.879877 131.156155 
L 167.377257 131.156155 
L 161.874638 203.967646 
L 156.372018 160.560796 
L 150.869399 153.559691 
L 145.36678 153.559691 
L 139.86416 178.763669 
L 134.361541 152.15947 
L 128.858921 131.156155 
L 123.356302 143.758144 
L 117.853683 125.555271 
L 112.351063 219.370077 
L 106.848444 152.15947 
L 101.345824 103.151735 
L 95.843205 140.957702 
L 90.340586 101.751514 
L 84.837966 94.750409 
L 79.335347 84.948862 
L 73.832727 68.14621 
z
" clip-path="url(#pf6673538e4)" style="fill: #7f7f7f"/>
   </g>
   <g id="PolyCollection_9">
    <path d="M 73.832727 65.345768 
L 73.832727 68.14621 
L 79.335347 84.948862 
L 84.837966 94.750409 
L 90.340586 101.751514 
L 95.843205 140.957702 
L 101.345824 103.151735 
L 106.848444 152.15947 
L 112.351063 219.370077 
L 117.853683 125.555271 
L 123.356302 143.758144 
L 128.858921 131.156155 
L 134.361541 152.15947 
L 139.86416 178.763669 
L 145.36678 153.559691 
L 150.869399 153.559691 
L 156.372018 160.560796 
L 161.874638 203.967646 
L 167.377257 131.156155 
L 172.879877 131.156155 
L 178.382496 159.160575 
L 183.885116 164.761459 
L 189.387735 171.762564 
L 194.890354 189.965436 
L 200.392974 139.557481 
L 205.895593 177.363448 
L 211.398213 159.160575 
L 216.900832 168.962122 
L 222.403451 182.964331 
L 227.906071 156.360133 
L 233.40869 203.967646 
L 238.91131 180.16389 
L 244.413929 210.968751 
L 249.916549 210.968751 
L 255.419168 159.160575 
L 260.921787 226.371182 
L 266.424407 170.362343 
L 271.927026 215.169414 
L 277.429646 178.763669 
L 282.932265 178.763669 
L 288.434884 163.361238 
L 293.937504 192.765878 
L 299.440123 203.967646 
L 304.942743 202.567425 
L 310.445362 195.56632 
L 315.947982 188.565215 
L 321.450601 203.967646 
L 326.95322 245.974276 
L 332.45584 217.969856 
L 337.958459 184.364552 
L 343.461079 216.569635 
L 348.963698 264.177149 
L 354.466317 216.569635 
L 359.968937 223.57074 
L 365.471556 191.365657 
L 370.974176 234.772508 
L 376.476795 205.367867 
L 381.979414 255.775823 
L 387.482034 226.371182 
L 392.984653 247.374497 
L 398.487273 208.168309 
L 398.487273 184.364552 
L 398.487273 184.364552 
L 392.984653 224.970961 
L 387.482034 208.168309 
L 381.979414 238.973171 
L 376.476795 191.365657 
L 370.974176 215.169414 
L 365.471556 174.563006 
L 359.968937 203.967646 
L 354.466317 202.567425 
L 348.963698 245.974276 
L 343.461079 194.166099 
L 337.958459 161.961017 
L 332.45584 196.966541 
L 326.95322 230.571845 
L 321.450601 188.565215 
L 315.947982 175.963227 
L 310.445362 188.565215 
L 304.942743 188.565215 
L 299.440123 192.765878 
L 293.937504 185.764773 
L 288.434884 156.360133 
L 282.932265 166.16168 
L 277.429646 163.361238 
L 271.927026 203.967646 
L 266.424407 159.160575 
L 260.921787 210.968751 
L 255.419168 147.958807 
L 249.916549 202.567425 
L 244.413929 194.166099 
L 238.91131 164.761459 
L 233.40869 195.56632 
L 227.906071 152.15947 
L 222.403451 171.762564 
L 216.900832 147.958807 
L 211.398213 142.357923 
L 205.895593 156.360133 
L 200.392974 124.15505 
L 194.890354 175.963227 
L 189.387735 163.361238 
L 183.885116 150.759249 
L 178.382496 149.359028 
L 172.879877 115.753724 
L 167.377257 117.153945 
L 161.874638 189.965436 
L 156.372018 149.359028 
L 150.869399 142.357923 
L 145.36678 138.15726 
L 139.86416 157.760354 
L 134.361541 139.557481 
L 128.858921 118.554166 
L 123.356302 133.956597 
L 117.853683 110.15284 
L 112.351063 216.569635 
L 106.848444 115.753724 
L 101.345824 93.350188 
L 95.843205 114.353503 
L 90.340586 86.349083 
L 84.837966 79.347978 
L 79.335347 70.946652 
L 73.832727 65.345768 
z
" clip-path="url(#pf6673538e4)" style="fill: #bcbd22"/>
   </g>
   <g id="PolyCollection_10">
    <path d="M 73.832727 62.545326 
L 73.832727 65.345768 
L 79.335347 70.946652 
L 84.837966 79.347978 
L 90.340586 86.349083 
L 95.843205 114.353503 
L 101.345824 93.350188 
L 106.848444 115.753724 
L 112.351063 216.569635 
L 117.853683 110.15284 
L 123.356302 133.956597 
L 128.858921 118.554166 
L 134.361541 139.557481 
L 139.86416 157.760354 
L 145.36678 138.15726 
L 150.869399 142.357923 
L 156.372018 149.359028 
L 161.874638 189.965436 
L 167.377257 117.153945 
L 172.879877 115.753724 
L 178.382496 149.359028 
L 183.885116 150.759249 
L 189.387735 163.361238 
L 194.890354 175.963227 
L 200.392974 124.15505 
L 205.895593 156.360133 
L 211.398213 142.357923 
L 216.900832 147.958807 
L 222.403451 171.762564 
L 227.906071 152.15947 
L 233.40869 195.56632 
L 238.91131 164.761459 
L 244.413929 194.166099 
L 249.916549 202.567425 
L 255.419168 147.958807 
L 260.921787 210.968751 
L 266.424407 159.160575 
L 271.927026 203.967646 
L 277.429646 163.361238 
L 282.932265 166.16168 
L 288.434884 156.360133 
L 293.937504 185.764773 
L 299.440123 192.765878 
L 304.942743 188.565215 
L 310.445362 188.565215 
L 315.947982 175.963227 
L 321.450601 188.565215 
L 326.95322 230.571845 
L 332.45584 196.966541 
L 337.958459 161.961017 
L 343.461079 194.166099 
L 348.963698 245.974276 
L 354.466317 202.567425 
L 359.968937 203.967646 
L 365.471556 174.563006 
L 370.974176 215.169414 
L 376.476795 191.365657 
L 381.979414 238.973171 
L 387.482034 208.168309 
L 392.984653 224.970961 
L 398.487273 184.364552 
L 398.487273 184.364552 
L 398.487273 184.364552 
L 392.984653 224.970961 
L 387.482034 208.168309 
L 381.979414 238.973171 
L 376.476795 175.963227 
L 370.974176 181.56411 
L 365.471556 156.360133 
L 359.968937 131.156155 
L 354.466317 163.361238 
L 348.963698 230.571845 
L 343.461079 143.758144 
L 337.958459 140.957702 
L 332.45584 168.962122 
L 326.95322 178.763669 
L 321.450601 164.761459 
L 315.947982 149.359028 
L 310.445362 153.559691 
L 304.942743 153.559691 
L 299.440123 159.160575 
L 293.937504 168.962122 
L 288.434884 140.957702 
L 282.932265 135.356818 
L 277.429646 153.559691 
L 271.927026 178.763669 
L 266.424407 132.556376 
L 260.921787 191.365657 
L 255.419168 139.557481 
L 249.916549 188.565215 
L 244.413929 177.363448 
L 238.91131 143.758144 
L 233.40869 185.764773 
L 227.906071 138.15726 
L 222.403451 157.760354 
L 216.900832 136.757039 
L 211.398213 131.156155 
L 205.895593 145.158365 
L 200.392974 107.352398 
L 194.890354 163.361238 
L 189.387735 142.357923 
L 183.885116 133.956597 
L 178.382496 135.356818 
L 172.879877 110.15284 
L 167.377257 98.951072 
L 161.874638 173.162785 
L 156.372018 132.556376 
L 150.869399 124.15505 
L 145.36678 121.354608 
L 139.86416 135.356818 
L 134.361541 121.354608 
L 128.858921 101.751514 
L 123.356302 117.153945 
L 117.853683 90.549746 
L 112.351063 205.367867 
L 106.848444 103.151735 
L 101.345824 72.346873 
L 95.843205 96.15063 
L 90.340586 68.14621 
L 84.837966 63.945547 
L 79.335347 62.545326 
L 73.832727 62.545326 
z
" clip-path="url(#pf6673538e4)" style="fill: #17becf"/>
   </g>
   <g id="PolyCollection_11">
    <path d="M 73.832727 62.545326 
L 73.832727 62.545326 
L 79.335347 62.545326 
L 84.837966 63.945547 
L 90.340586 68.14621 
L 95.843205 96.15063 
L 101.345824 72.346873 
L 106.848444 103.151735 
L 112.351063 205.367867 
L 117.853683 90.549746 
L 123.356302 117.153945 
L 128.858921 101.751514 
L 134.361541 121.354608 
L 139.86416 135.356818 
L 145.36678 121.354608 
L 150.869399 124.15505 
L 156.372018 132.556376 
L 161.874638 173.162785 
L 167.377257 98.951072 
L 172.879877 110.15284 
L 178.382496 135.356818 
L 183.885116 133.956597 
L 189.387735 142.357923 
L 194.890354 163.361238 
L 200.392974 107.352398 
L 205.895593 145.158365 
L 211.398213 131.156155 
L 216.900832 136.757039 
L 222.403451 157.760354 
L 227.906071 138.15726 
L 233.40869 185.764773 
L 238.91131 143.758144 
L 244.413929 177.363448 
L 249.916549 188.565215 
L 255.419168 139.557481 
L 260.921787 191.365657 
L 266.424407 132.556376 
L 271.927026 178.763669 
L 277.429646 153.559691 
L 282.932265 135.356818 
L 288.434884 140.957702 
L 293.937504 168.962122 
L 299.440123 159.160575 
L 304.942743 153.559691 
L 310.445362 153.559691 
L 315.947982 149.359028 
L 321.450601 164.761459 
L 326.95322 178.763669 
L 332.45584 168.962122 
L 337.958459 140.957702 
L 343.461079 143.758144 
L 348.963698 230.571845 
L 354.466317 163.361238 
L 359.968937 131.156155 
L 365.471556 156.360133 
L 370.974176 181.56411 
L 376.476795 175.963227 
L 381.979414 238.973171 
L 387.482034 208.168309 
L 392.984653 224.970961 
L 398.487273 184.364552 
L 398.487273 184.364552 
L 398.487273 184.364552 
L 392.984653 224.970961 
L 387.482034 208.168309 
L 381.979414 238.973171 
L 376.476795 175.963227 
L 370.974176 181.56411 
L 365.471556 156.360133 
L 359.968937 131.156155 
L 354.466317 149.359028 
L 348.963698 206.768088 
L 343.461079 126.955492 
L 337.958459 129.755934 
L 332.45584 143.758144 
L 326.95322 156.360133 
L 321.450601 145.158365 
L 315.947982 136.757039 
L 310.445362 140.957702 
L 304.942743 132.556376 
L 299.440123 146.558586 
L 293.937504 146.558586 
L 288.434884 124.15505 
L 282.932265 112.953282 
L 277.429646 133.956597 
L 271.927026 166.16168 
L 266.424407 114.353503 
L 260.921787 171.762564 
L 255.419168 112.953282 
L 249.916549 177.363448 
L 244.413929 166.16168 
L 238.91131 135.356818 
L 233.40869 171.762564 
L 227.906071 124.15505 
L 222.403451 145.158365 
L 216.900832 122.754829 
L 211.398213 118.554166 
L 205.895593 133.956597 
L 200.392974 94.750409 
L 194.890354 153.559691 
L 189.387735 112.953282 
L 183.885116 129.755934 
L 178.382496 103.151735 
L 172.879877 100.351293 
L 167.377257 91.949967 
L 161.874638 105.952177 
L 156.372018 104.551956 
L 150.869399 101.751514 
L 145.36678 96.15063 
L 139.86416 75.147315 
L 134.361541 72.346873 
L 128.858921 86.349083 
L 123.356302 76.547536 
L 117.853683 77.947757 
L 112.351063 69.546431 
L 106.848444 75.147315 
L 101.345824 63.945547 
L 95.843205 59.744884 
L 90.340586 62.545326 
L 84.837966 63.945547 
L 79.335347 62.545326 
L 73.832727 62.545326 
z
" clip-path="url(#pf6673538e4)" style="fill: #1f77b4"/>
   </g>
   <g id="PolyCollection_12">
    <path d="M 73.832727 62.545326 
L 73.832727 62.545326 
L 79.335347 62.545326 
L 84.837966 63.945547 
L 90.340586 62.545326 
L 95.843205 59.744884 
L 101.345824 63.945547 
L 106.848444 75.147315 
L 112.351063 69.546431 
L 117.853683 77.947757 
L 123.356302 76.547536 
L 128.858921 86.349083 
L 134.361541 72.346873 
L 139.86416 75.147315 
L 145.36678 96.15063 
L 150.869399 101.751514 
L 156.372018 104.551956 
L 161.874638 105.952177 
L 167.377257 91.949967 
L 172.879877 100.351293 
L 178.382496 103.151735 
L 183.885116 129.755934 
L 189.387735 112.953282 
L 194.890354 153.559691 
L 200.392974 94.750409 
L 205.895593 133.956597 
L 211.398213 118.554166 
L 216.900832 122.754829 
L 222.403451 145.158365 
L 227.906071 124.15505 
L 233.40869 171.762564 
L 238.91131 135.356818 
L 244.413929 166.16168 
L 249.916549 177.363448 
L 255.419168 112.953282 
L 260.921787 171.762564 
L 266.424407 114.353503 
L 271.927026 166.16168 
L 277.429646 133.956597 
L 282.932265 112.953282 
L 288.434884 124.15505 
L 293.937504 146.558586 
L 299.440123 146.558586 
L 304.942743 132.556376 
L 310.445362 140.957702 
L 315.947982 136.757039 
L 321.450601 145.158365 
L 326.95322 156.360133 
L 332.45584 143.758144 
L 337.958459 129.755934 
L 343.461079 126.955492 
L 348.963698 206.768088 
L 354.466317 149.359028 
L 359.968937 131.156155 
L 365.471556 156.360133 
L 370.974176 181.56411 
L 376.476795 175.963227 
L 381.979414 238.973171 
L 387.482034 208.168309 
L 392.984653 224.970961 
L 398.487273 184.364552 
L 398.487273 174.563006 
L 398.487273 174.563006 
L 392.984653 145.158365 
L 387.482034 184.364552 
L 381.979414 150.759249 
L 376.476795 166.16168 
L 370.974176 136.757039 
L 365.471556 129.755934 
L 359.968937 121.354608 
L 354.466317 125.555271 
L 348.963698 177.363448 
L 343.461079 111.553061 
L 337.958459 114.353503 
L 332.45584 124.15505 
L 326.95322 114.353503 
L 321.450601 117.153945 
L 315.947982 103.151735 
L 310.445362 125.555271 
L 304.942743 112.953282 
L 299.440123 101.751514 
L 293.937504 124.15505 
L 288.434884 111.553061 
L 282.932265 96.15063 
L 277.429646 124.15505 
L 271.927026 157.760354 
L 266.424407 100.351293 
L 260.921787 159.160575 
L 255.419168 103.151735 
L 249.916549 167.561901 
L 244.413929 153.559691 
L 238.91131 121.354608 
L 233.40869 136.757039 
L 227.906071 111.553061 
L 222.403451 122.754829 
L 216.900832 112.953282 
L 211.398213 111.553061 
L 205.895593 105.952177 
L 200.392974 89.149525 
L 194.890354 112.953282 
L 189.387735 105.952177 
L 183.885116 94.750409 
L 178.382496 91.949967 
L 172.879877 91.949967 
L 167.377257 84.948862 
L 161.874638 94.750409 
L 156.372018 87.749304 
L 150.869399 84.948862 
L 145.36678 77.947757 
L 139.86416 63.945547 
L 134.361541 58.344663 
L 128.858921 56.944442 
L 123.356302 62.545326 
L 117.853683 61.145105 
L 112.351063 58.344663 
L 106.848444 61.145105 
L 101.345824 61.145105 
L 95.843205 59.744884 
L 90.340586 62.545326 
L 84.837966 63.945547 
L 79.335347 62.545326 
L 73.832727 62.545326 
z
" clip-path="url(#pf6673538e4)" style="fill: #ff7f0e"/>
   </g>
   <g id="PolyCollection_13">
    <path d="M 73.832727 62.545326 
L 73.832727 62.545326 
L 79.335347 62.545326 
L 84.837966 63.945547 
L 90.340586 62.545326 
L 95.843205 59.744884 
L 101.345824 61.145105 
L 106.848444 61.145105 
L 112.351063 58.344663 
L 117.853683 61.145105 
L 123.356302 62.545326 
L 128.858921 56.944442 
L 134.361541 58.344663 
L 139.86416 63.945547 
L 145.36678 77.947757 
L 150.869399 84.948862 
L 156.372018 87.749304 
L 161.874638 94.750409 
L 167.377257 84.948862 
L 172.879877 91.949967 
L 178.382496 91.949967 
L 183.885116 94.750409 
L 189.387735 105.952177 
L 194.890354 112.953282 
L 200.392974 89.149525 
L 205.895593 105.952177 
L 211.398213 111.553061 
L 216.900832 112.953282 
L 222.403451 122.754829 
L 227.906071 111.553061 
L 233.40869 136.757039 
L 238.91131 121.354608 
L 244.413929 153.559691 
L 249.916549 167.561901 
L 255.419168 103.151735 
L 260.921787 159.160575 
L 266.424407 100.351293 
L 271.927026 157.760354 
L 277.429646 124.15505 
L 282.932265 96.15063 
L 288.434884 111.553061 
L 293.937504 124.15505 
L 299.440123 101.751514 
L 304.942743 112.953282 
L 310.445362 125.555271 
L 315.947982 103.151735 
L 321.450601 117.153945 
L 326.95322 114.353503 
L 332.45584 124.15505 
L 337.958459 114.353503 
L 343.461079 111.553061 
L 348.963698 177.363448 
L 354.466317 125.555271 
L 359.968937 121.354608 
L 365.471556 129.755934 
L 370.974176 136.757039 
L 376.476795 166.16168 
L 381.979414 150.759249 
L 387.482034 184.364552 
L 392.984653 145.158365 
L 398.487273 174.563006 
L 398.487273 174.563006 
L 398.487273 174.563006 
L 392.984653 145.158365 
L 387.482034 184.364552 
L 381.979414 150.759249 
L 376.476795 166.16168 
L 370.974176 136.757039 
L 365.471556 129.755934 
L 359.968937 121.354608 
L 354.466317 103.151735 
L 348.963698 156.360133 
L 343.461079 90.549746 
L 337.958459 93.350188 
L 332.45584 100.351293 
L 326.95322 98.951072 
L 321.450601 101.751514 
L 315.947982 84.948862 
L 310.445362 108.752619 
L 304.942743 96.15063 
L 299.440123 87.749304 
L 293.937504 111.553061 
L 288.434884 98.951072 
L 282.932265 79.347978 
L 277.429646 112.953282 
L 271.927026 142.357923 
L 266.424407 89.149525 
L 260.921787 146.558586 
L 255.419168 94.750409 
L 249.916549 154.959912 
L 244.413929 140.957702 
L 238.91131 108.752619 
L 233.40869 129.755934 
L 227.906071 97.550851 
L 222.403451 112.953282 
L 216.900832 103.151735 
L 211.398213 98.951072 
L 205.895593 96.15063 
L 200.392974 79.347978 
L 194.890354 98.951072 
L 189.387735 89.149525 
L 183.885116 82.14842 
L 178.382496 83.548641 
L 172.879877 83.548641 
L 167.377257 75.147315 
L 161.874638 80.748199 
L 156.372018 75.147315 
L 150.869399 65.345768 
L 145.36678 61.145105 
L 139.86416 59.744884 
L 134.361541 58.344663 
L 128.858921 56.944442 
L 123.356302 62.545326 
L 117.853683 61.145105 
L 112.351063 58.344663 
L 106.848444 61.145105 
L 101.345824 61.145105 
L 95.843205 59.744884 
L 90.340586 62.545326 
L 84.837966 63.945547 
L 79.335347 62.545326 
L 73.832727 62.545326 
z
" clip-path="url(#pf6673538e4)" style="fill: #2ca02c"/>
   </g>
   <g id="PolyCollection_14">
    <path d="M 73.832727 62.545326 
L 73.832727 62.545326 
L 79.335347 62.545326 
L 84.837966 63.945547 
L 90.340586 62.545326 
L 95.843205 59.744884 
L 101.345824 61.145105 
L 106.848444 61.145105 
L 112.351063 58.344663 
L 117.853683 61.145105 
L 123.356302 62.545326 
L 128.858921 56.944442 
L 134.361541 58.344663 
L 139.86416 59.744884 
L 145.36678 61.145105 
L 150.869399 65.345768 
L 156.372018 75.147315 
L 161.874638 80.748199 
L 167.377257 75.147315 
L 172.879877 83.548641 
L 178.382496 83.548641 
L 183.885116 82.14842 
L 189.387735 89.149525 
L 194.890354 98.951072 
L 200.392974 79.347978 
L 205.895593 96.15063 
L 211.398213 98.951072 
L 216.900832 103.151735 
L 222.403451 112.953282 
L 227.906071 97.550851 
L 233.40869 129.755934 
L 238.91131 108.752619 
L 244.413929 140.957702 
L 249.916549 154.959912 
L 255.419168 94.750409 
L 260.921787 146.558586 
L 266.424407 89.149525 
L 271.927026 142.357923 
L 277.429646 112.953282 
L 282.932265 79.347978 
L 288.434884 98.951072 
L 293.937504 111.553061 
L 299.440123 87.749304 
L 304.942743 96.15063 
L 310.445362 108.752619 
L 315.947982 84.948862 
L 321.450601 101.751514 
L 326.95322 98.951072 
L 332.45584 100.351293 
L 337.958459 93.350188 
L 343.461079 90.549746 
L 348.963698 156.360133 
L 354.466317 103.151735 
L 359.968937 121.354608 
L 365.471556 129.755934 
L 370.974176 136.757039 
L 376.476795 166.16168 
L 381.979414 150.759249 
L 387.482034 184.364552 
L 392.984653 145.158365 
L 398.487273 174.563006 
L 398.487273 174.563006 
L 398.487273 174.563006 
L 392.984653 145.158365 
L 387.482034 184.364552 
L 381.979414 150.759249 
L 376.476795 166.16168 
L 370.974176 136.757039 
L 365.471556 129.755934 
L 359.968937 121.354608 
L 354.466317 103.151735 
L 348.963698 156.360133 
L 343.461079 90.549746 
L 337.958459 93.350188 
L 332.45584 100.351293 
L 326.95322 98.951072 
L 321.450601 101.751514 
L 315.947982 84.948862 
L 310.445362 108.752619 
L 304.942743 96.15063 
L 299.440123 83.548641 
L 293.937504 97.550851 
L 288.434884 82.14842 
L 282.932265 75.147315 
L 277.429646 98.951072 
L 271.927026 135.356818 
L 266.424407 82.14842 
L 260.921787 129.755934 
L 255.419168 90.549746 
L 249.916549 119.954387 
L 244.413929 125.555271 
L 238.91131 98.951072 
L 233.40869 121.354608 
L 227.906071 83.548641 
L 222.403451 100.351293 
L 216.900832 91.949967 
L 211.398213 84.948862 
L 205.895593 82.14842 
L 200.392974 77.947757 
L 194.890354 80.748199 
L 189.387735 72.346873 
L 183.885116 68.14621 
L 178.382496 70.946652 
L 172.879877 73.747094 
L 167.377257 65.345768 
L 161.874638 69.546431 
L 156.372018 66.745989 
L 150.869399 61.145105 
L 145.36678 61.145105 
L 139.86416 59.744884 
L 134.361541 58.344663 
L 128.858921 56.944442 
L 123.356302 62.545326 
L 117.853683 61.145105 
L 112.351063 58.344663 
L 106.848444 61.145105 
L 101.345824 61.145105 
L 95.843205 59.744884 
L 90.340586 62.545326 
L 84.837966 63.945547 
L 79.335347 62.545326 
L 73.832727 62.545326 
z
" clip-path="url(#pf6673538e4)" style="fill: #d62728"/>
   </g>
   <g id="PolyCollection_15">
    <path d="M 73.832727 62.545326 
L 73.832727 62.545326 
L 79.335347 62.545326 
L 84.837966 63.945547 
L 90.340586 62.545326 
L 95.843205 59.744884 
L 101.345824 61.145105 
L 106.848444 61.145105 
L 112.351063 58.344663 
L 117.853683 61.145105 
L 123.356302 62.545326 
L 128.858921 56.944442 
L 134.361541 58.344663 
L 139.86416 59.744884 
L 145.36678 61.145105 
L 150.869399 61.145105 
L 156.372018 66.745989 
L 161.874638 69.546431 
L 167.377257 65.345768 
L 172.879877 73.747094 
L 178.382496 70.946652 
L 183.885116 68.14621 
L 189.387735 72.346873 
L 194.890354 80.748199 
L 200.392974 77.947757 
L 205.895593 82.14842 
L 211.398213 84.948862 
L 216.900832 91.949967 
L 222.403451 100.351293 
L 227.906071 83.548641 
L 233.40869 121.354608 
L 238.91131 98.951072 
L 244.413929 125.555271 
L 249.916549 119.954387 
L 255.419168 90.549746 
L 260.921787 129.755934 
L 266.424407 82.14842 
L 271.927026 135.356818 
L 277.429646 98.951072 
L 282.932265 75.147315 
L 288.434884 82.14842 
L 293.937504 97.550851 
L 299.440123 83.548641 
L 304.942743 96.15063 
L 310.445362 108.752619 
L 315.947982 84.948862 
L 321.450601 101.751514 
L 326.95322 98.951072 
L 332.45584 100.351293 
L 337.958459 93.350188 
L 343.461079 90.549746 
L 348.963698 156.360133 
L 354.466317 103.151735 
L 359.968937 121.354608 
L 365.471556 129.755934 
L 370.974176 136.757039 
L 376.476795 166.16168 
L 381.979414 150.759249 
L 387.482034 184.364552 
L 392.984653 145.158365 
L 398.487273 174.563006 
L 398.487273 174.563006 
L 398.487273 174.563006 
L 392.984653 145.158365 
L 387.482034 161.961017 
L 381.979414 128.355713 
L 376.476795 153.559691 
L 370.974176 114.353503 
L 365.471556 108.752619 
L 359.968937 107.352398 
L 354.466317 100.351293 
L 348.963698 93.350188 
L 343.461079 86.349083 
L 337.958459 83.548641 
L 332.45584 80.748199 
L 326.95322 77.947757 
L 321.450601 79.347978 
L 315.947982 75.147315 
L 310.445362 76.547536 
L 304.942743 80.748199 
L 299.440123 77.947757 
L 293.937504 69.546431 
L 288.434884 72.346873 
L 282.932265 66.745989 
L 277.429646 65.345768 
L 271.927026 72.346873 
L 266.424407 69.546431 
L 260.921787 72.346873 
L 255.419168 75.147315 
L 249.916549 73.747094 
L 244.413929 75.147315 
L 238.91131 76.547536 
L 233.40869 75.147315 
L 227.906071 76.547536 
L 222.403451 79.347978 
L 216.900832 76.547536 
L 211.398213 66.745989 
L 205.895593 61.145105 
L 200.392974 65.345768 
L 194.890354 66.745989 
L 189.387735 63.945547 
L 183.885116 61.145105 
L 178.382496 61.145105 
L 172.879877 59.744884 
L 167.377257 56.944442 
L 161.874638 58.344663 
L 156.372018 54.144 
L 150.869399 56.944442 
L 145.36678 61.145105 
L 139.86416 59.744884 
L 134.361541 58.344663 
L 128.858921 56.944442 
L 123.356302 62.545326 
L 117.853683 61.145105 
L 112.351063 58.344663 
L 106.848444 61.145105 
L 101.345824 61.145105 
L 95.843205 59.744884 
L 90.340586 62.545326 
L 84.837966 63.945547 
L 79.335347 62.545326 
L 73.832727 62.545326 
z
" clip-path="url(#pf6673538e4)" style="fill: #9467bd"/>
   </g>
   <g id="PolyCollection_16">
    <path d="M 73.832727 62.545326 
L 73.832727 62.545326 
L 79.335347 62.545326 
L 84.837966 63.945547 
L 90.340586 62.545326 
L 95.843205 59.744884 
L 101.345824 61.145105 
L 106.848444 61.145105 
L 112.351063 58.344663 
L 117.853683 61.145105 
L 123.356302 62.545326 
L 128.858921 56.944442 
L 134.361541 58.344663 
L 139.86416 59.744884 
L 145.36678 61.145105 
L 150.869399 56.944442 
L 156.372018 54.144 
L 161.874638 58.344663 
L 167.377257 56.944442 
L 172.879877 59.744884 
L 178.382496 61.145105 
L 183.885116 61.145105 
L 189.387735 63.945547 
L 194.890354 66.745989 
L 200.392974 65.345768 
L 205.895593 61.145105 
L 211.398213 66.745989 
L 216.900832 76.547536 
L 222.403451 79.347978 
L 227.906071 76.547536 
L 233.40869 75.147315 
L 238.91131 76.547536 
L 244.413929 75.147315 
L 249.916549 73.747094 
L 255.419168 75.147315 
L 260.921787 72.346873 
L 266.424407 69.546431 
L 271.927026 72.346873 
L 277.429646 65.345768 
L 282.932265 66.745989 
L 288.434884 72.346873 
L 293.937504 69.546431 
L 299.440123 77.947757 
L 304.942743 80.748199 
L 310.445362 76.547536 
L 315.947982 75.147315 
L 321.450601 79.347978 
L 326.95322 77.947757 
L 332.45584 80.748199 
L 337.958459 83.548641 
L 343.461079 86.349083 
L 348.963698 93.350188 
L 354.466317 100.351293 
L 359.968937 107.352398 
L 365.471556 108.752619 
L 370.974176 114.353503 
L 376.476795 153.559691 
L 381.979414 128.355713 
L 387.482034 161.961017 
L 392.984653 145.158365 
L 398.487273 174.563006 
L 398.487273 160.560796 
L 398.487273 160.560796 
L 392.984653 125.555271 
L 387.482034 143.758144 
L 381.979414 103.151735 
L 376.476795 129.755934 
L 370.974176 84.948862 
L 365.471556 83.548641 
L 359.968937 84.948862 
L 354.466317 83.548641 
L 348.963698 80.748199 
L 343.461079 70.946652 
L 337.958459 69.546431 
L 332.45584 65.345768 
L 326.95322 65.345768 
L 321.450601 62.545326 
L 315.947982 65.345768 
L 310.445362 65.345768 
L 304.942743 66.745989 
L 299.440123 68.14621 
L 293.937504 61.145105 
L 288.434884 59.744884 
L 282.932265 56.944442 
L 277.429646 61.145105 
L 271.927026 62.545326 
L 266.424407 56.944442 
L 260.921787 58.344663 
L 255.419168 59.744884 
L 249.916549 59.744884 
L 244.413929 62.545326 
L 238.91131 63.945547 
L 233.40869 65.345768 
L 227.906071 66.745989 
L 222.403451 68.14621 
L 216.900832 65.345768 
L 211.398213 55.544221 
L 205.895593 59.744884 
L 200.392974 65.345768 
L 194.890354 66.745989 
L 189.387735 63.945547 
L 183.885116 61.145105 
L 178.382496 61.145105 
L 172.879877 59.744884 
L 167.377257 56.944442 
L 161.874638 58.344663 
L 156.372018 54.144 
L 150.869399 56.944442 
L 145.36678 61.145105 
L 139.86416 59.744884 
L 134.361541 58.344663 
L 128.858921 56.944442 
L 123.356302 62.545326 
L 117.853683 61.145105 
L 112.351063 58.344663 
L 106.848444 61.145105 
L 101.345824 61.145105 
L 95.843205 59.744884 
L 90.340586 62.545326 
L 84.837966 63.945547 
L 79.335347 62.545326 
L 73.832727 62.545326 
z
" clip-path="url(#pf6673538e4)" style="fill: #8c564b"/>
   </g>
   <g id="PolyCollection_17">
    <path d="M 73.832727 62.545326 
L 73.832727 62.545326 
L 79.335347 62.545326 
L 84.837966 63.945547 
L 90.340586 62.545326 
L 95.843205 59.744884 
L 101.345824 61.145105 
L 106.848444 61.145105 
L 112.351063 58.344663 
L 117.853683 61.145105 
L 123.356302 62.545326 
L 128.858921 56.944442 
L 134.361541 58.344663 
L 139.86416 59.744884 
L 145.36678 61.145105 
L 150.869399 56.944442 
L 156.372018 54.144 
L 161.874638 58.344663 
L 167.377257 56.944442 
L 172.879877 59.744884 
L 178.382496 61.145105 
L 183.885116 61.145105 
L 189.387735 63.945547 
L 194.890354 66.745989 
L 200.392974 65.345768 
L 205.895593 59.744884 
L 211.398213 55.544221 
L 216.900832 65.345768 
L 222.403451 68.14621 
L 227.906071 66.745989 
L 233.40869 65.345768 
L 238.91131 63.945547 
L 244.413929 62.545326 
L 249.916549 59.744884 
L 255.419168 59.744884 
L 260.921787 58.344663 
L 266.424407 56.944442 
L 271.927026 62.545326 
L 277.429646 61.145105 
L 282.932265 56.944442 
L 288.434884 59.744884 
L 293.937504 61.145105 
L 299.440123 68.14621 
L 304.942743 66.745989 
L 310.445362 65.345768 
L 315.947982 65.345768 
L 321.450601 62.545326 
L 326.95322 65.345768 
L 332.45584 65.345768 
L 337.958459 69.546431 
L 343.461079 70.946652 
L 348.963698 80.748199 
L 354.466317 83.548641 
L 359.968937 84.948862 
L 365.471556 83.548641 
L 370.974176 84.948862 
L 376.476795 129.755934 
L 381.979414 103.151735 
L 387.482034 143.758144 
L 392.984653 125.555271 
L 398.487273 160.560796 
L 398.487273 136.757039 
L 398.487273 136.757039 
L 392.984653 108.752619 
L 387.482034 131.156155 
L 381.979414 90.549746 
L 376.476795 118.554166 
L 370.974176 68.14621 
L 365.471556 61.145105 
L 359.968937 63.945547 
L 354.466317 65.345768 
L 348.963698 66.745989 
L 343.461079 58.344663 
L 337.958459 58.344663 
L 332.45584 63.945547 
L 326.95322 65.345768 
L 321.450601 62.545326 
L 315.947982 65.345768 
L 310.445362 65.345768 
L 304.942743 66.745989 
L 299.440123 68.14621 
L 293.937504 61.145105 
L 288.434884 59.744884 
L 282.932265 56.944442 
L 277.429646 61.145105 
L 271.927026 62.545326 
L 266.424407 56.944442 
L 260.921787 58.344663 
L 255.419168 59.744884 
L 249.916549 59.744884 
L 244.413929 62.545326 
L 238.91131 63.945547 
L 233.40869 65.345768 
L 227.906071 66.745989 
L 222.403451 68.14621 
L 216.900832 65.345768 
L 211.398213 55.544221 
L 205.895593 59.744884 
L 200.392974 65.345768 
L 194.890354 66.745989 
L 189.387735 63.945547 
L 183.885116 61.145105 
L 178.382496 61.145105 
L 172.879877 59.744884 
L 167.377257 56.944442 
L 161.874638 58.344663 
L 156.372018 54.144 
L 150.869399 56.944442 
L 145.36678 61.145105 
L 139.86416 59.744884 
L 134.361541 58.344663 
L 128.858921 56.944442 
L 123.356302 62.545326 
L 117.853683 61.145105 
L 112.351063 58.344663 
L 106.848444 61.145105 
L 101.345824 61.145105 
L 95.843205 59.744884 
L 90.340586 62.545326 
L 84.837966 63.945547 
L 79.335347 62.545326 
L 73.832727 62.545326 
z
" clip-path="url(#pf6673538e4)" style="fill: #e377c2"/>
   </g>
   <g id="PolyCollection_18">
    <path d="M 73.832727 62.545326 
L 73.832727 62.545326 
L 79.335347 62.545326 
L 84.837966 63.945547 
L 90.340586 62.545326 
L 95.843205 59.744884 
L 101.345824 61.145105 
L 106.848444 61.145105 
L 112.351063 58.344663 
L 117.853683 61.145105 
L 123.356302 62.545326 
L 128.858921 56.944442 
L 134.361541 58.344663 
L 139.86416 59.744884 
L 145.36678 61.145105 
L 150.869399 56.944442 
L 156.372018 54.144 
L 161.874638 58.344663 
L 167.377257 56.944442 
L 172.879877 59.744884 
L 178.382496 61.145105 
L 183.885116 61.145105 
L 189.387735 63.945547 
L 194.890354 66.745989 
L 200.392974 65.345768 
L 205.895593 59.744884 
L 211.398213 55.544221 
L 216.900832 65.345768 
L 222.403451 68.14621 
L 227.906071 66.745989 
L 233.40869 65.345768 
L 238.91131 63.945547 
L 244.413929 62.545326 
L 249.916549 59.744884 
L 255.419168 59.744884 
L 260.921787 58.344663 
L 266.424407 56.944442 
L 271.927026 62.545326 
L 277.429646 61.145105 
L 282.932265 56.944442 
L 288.434884 59.744884 
L 293.937504 61.145105 
L 299.440123 68.14621 
L 304.942743 66.745989 
L 310.445362 65.345768 
L 315.947982 65.345768 
L 321.450601 62.545326 
L 326.95322 65.345768 
L 332.45584 63.945547 
L 337.958459 58.344663 
L 343.461079 58.344663 
L 348.963698 66.745989 
L 354.466317 65.345768 
L 359.968937 63.945547 
L 365.471556 61.145105 
L 370.974176 68.14621 
L 376.476795 118.554166 
L 381.979414 90.549746 
L 387.482034 131.156155 
L 392.984653 108.752619 
L 398.487273 136.757039 
L 398.487273 114.353503 
L 398.487273 114.353503 
L 392.984653 83.548641 
L 387.482034 108.752619 
L 381.979414 73.747094 
L 376.476795 105.952177 
L 370.974176 66.745989 
L 365.471556 61.145105 
L 359.968937 63.945547 
L 354.466317 65.345768 
L 348.963698 66.745989 
L 343.461079 58.344663 
L 337.958459 58.344663 
L 332.45584 63.945547 
L 326.95322 65.345768 
L 321.450601 62.545326 
L 315.947982 65.345768 
L 310.445362 65.345768 
L 304.942743 66.745989 
L 299.440123 68.14621 
L 293.937504 61.145105 
L 288.434884 59.744884 
L 282.932265 56.944442 
L 277.429646 61.145105 
L 271.927026 62.545326 
L 266.424407 56.944442 
L 260.921787 58.344663 
L 255.419168 59.744884 
L 249.916549 59.744884 
L 244.413929 62.545326 
L 238.91131 63.945547 
L 233.40869 65.345768 
L 227.906071 66.745989 
L 222.403451 68.14621 
L 216.900832 65.345768 
L 211.398213 55.544221 
L 205.895593 59.744884 
L 200.392974 65.345768 
L 194.890354 66.745989 
L 189.387735 63.945547 
L 183.885116 61.145105 
L 178.382496 61.145105 
L 172.879877 59.744884 
L 167.377257 56.944442 
L 161.874638 58.344663 
L 156.372018 54.144 
L 150.869399 56.944442 
L 145.36678 61.145105 
L 139.86416 59.744884 
L 134.361541 58.344663 
L 128.858921 56.944442 
L 123.356302 62.545326 
L 117.853683 61.145105 
L 112.351063 58.344663 
L 106.848444 61.145105 
L 101.345824 61.145105 
L 95.843205 59.744884 
L 90.340586 62.545326 
L 84.837966 63.945547 
L 79.335347 62.545326 
L 73.832727 62.545326 
z
" clip-path="url(#pf6673538e4)" style="fill: #7f7f7f"/>
   </g>
   <g id="PolyCollection_19">
    <path d="M 73.832727 62.545326 
L 73.832727 62.545326 
L 79.335347 62.545326 
L 84.837966 63.945547 
L 90.340586 62.545326 
L 95.843205 59.744884 
L 101.345824 61.145105 
L 106.848444 61.145105 
L 112.351063 58.344663 
L 117.853683 61.145105 
L 123.356302 62.545326 
L 128.858921 56.944442 
L 134.361541 58.344663 
L 139.86416 59.744884 
L 145.36678 61.145105 
L 150.869399 56.944442 
L 156.372018 54.144 
L 161.874638 58.344663 
L 167.377257 56.944442 
L 172.879877 59.744884 
L 178.382496 61.145105 
L 183.885116 61.145105 
L 189.387735 63.945547 
L 194.890354 66.745989 
L 200.392974 65.345768 
L 205.895593 59.744884 
L 211.398213 55.544221 
L 216.900832 65.345768 
L 222.403451 68.14621 
L 227.906071 66.745989 
L 233.40869 65.345768 
L 238.91131 63.945547 
L 244.413929 62.545326 
L 249.916549 59.744884 
L 255.419168 59.744884 
L 260.921787 58.344663 
L 266.424407 56.944442 
L 271.927026 62.545326 
L 277.429646 61.145105 
L 282.932265 56.944442 
L 288.434884 59.744884 
L 293.937504 61.145105 
L 299.440123 68.14621 
L 304.942743 66.745989 
L 310.445362 65.345768 
L 315.947982 65.345768 
L 321.450601 62.545326 
L 326.95322 65.345768 
L 332.45584 63.945547 
L 337.958459 58.344663 
L 343.461079 58.344663 
L 348.963698 66.745989 
L 354.466317 65.345768 
L 359.968937 63.945547 
L 365.471556 61.145105 
L 370.974176 66.745989 
L 376.476795 105.952177 
L 381.979414 73.747094 
L 387.482034 108.752619 
L 392.984653 83.548641 
L 398.487273 114.353503 
L 398.487273 62.545326 
L 398.487273 62.545326 
L 392.984653 61.145105 
L 387.482034 63.945547 
L 381.979414 65.345768 
L 376.476795 63.945547 
L 370.974176 61.145105 
L 365.471556 61.145105 
L 359.968937 63.945547 
L 354.466317 65.345768 
L 348.963698 66.745989 
L 343.461079 58.344663 
L 337.958459 58.344663 
L 332.45584 63.945547 
L 326.95322 65.345768 
L 321.450601 62.545326 
L 315.947982 65.345768 
L 310.445362 65.345768 
L 304.942743 66.745989 
L 299.440123 68.14621 
L 293.937504 61.145105 
L 288.434884 59.744884 
L 282.932265 56.944442 
L 277.429646 61.145105 
L 271.927026 62.545326 
L 266.424407 56.944442 
L 260.921787 58.344663 
L 255.419168 59.744884 
L 249.916549 59.744884 
L 244.413929 62.545326 
L 238.91131 63.945547 
L 233.40869 65.345768 
L 227.906071 66.745989 
L 222.403451 68.14621 
L 216.900832 65.345768 
L 211.398213 55.544221 
L 205.895593 59.744884 
L 200.392974 65.345768 
L 194.890354 66.745989 
L 189.387735 63.945547 
L 183.885116 61.145105 
L 178.382496 61.145105 
L 172.879877 59.744884 
L 167.377257 56.944442 
L 161.874638 58.344663 
L 156.372018 54.144 
L 150.869399 56.944442 
L 145.36678 61.145105 
L 139.86416 59.744884 
L 134.361541 58.344663 
L 128.858921 56.944442 
L 123.356302 62.545326 
L 117.853683 61.145105 
L 112.351063 58.344663 
L 106.848444 61.145105 
L 101.345824 61.145105 
L 95.843205 59.744884 
L 90.340586 62.545326 
L 84.837966 63.945547 
L 79.335347 62.545326 
L 73.832727 62.545326 
z
" clip-path="url(#pf6673538e4)" style="fill: #bcbd22"/>
   </g>
   <g id="matplotlib.axis_1">
    <g id="xtick_1">
     <g id="line2d_1">
      <defs>
       <path id="m5af1beea6d" d="M 0 0 
L 0 3.5 
" style="stroke: #000000; stroke-width: 0.8"/>
      </defs>
      <g>
       <use xlink:href="#m5af1beea6d" x="73.832727" y="307.584" style="stroke: #000000; stroke-width: 0.8"/>
      </g>
     </g>
     <g id="text_1">
      <!-- 0 -->
      <g transform="translate(70.651477 322.182437) scale(0.1 -0.1)">
       <defs>
        <path id="DejaVuSans-30" d="M 2034 4250 
Q 1547 4250 1301 3770 
Q 1056 3291 1056 2328 
Q 1056 1369 1301 889 
Q 1547 409 2034 409 
Q 2525 409 2770 889 
Q 3016 1369 3016 2328 
Q 3016 3291 2770 3770 
Q 2525 4250 2034 4250 
z
M 2034 4750 
Q 2819 4750 3233 4129 
Q 3647 3509 3647 2328 
Q 3647 1150 3233 529 
Q 2819 -91 2034 -91 
Q 1250 -91 836 529 
Q 422 1150 422 2328 
Q 422 3509 836 4129 
Q 1250 4750 2034 4750 
z
" transform="scale(0.015625)"/>
       </defs>
       <use xlink:href="#DejaVuSans-30"/>
      </g>
     </g>
    </g>
    <g id="xtick_2">
     <g id="line2d_2">
      <g>
       <use xlink:href="#m5af1beea6d" x="128.858921" y="307.584" style="stroke: #000000; stroke-width: 0.8"/>
      </g>
     </g>
     <g id="text_2">
      <!-- 10 -->
      <g transform="translate(122.496421 322.182437) scale(0.1 -0.1)">
       <defs>
        <path id="DejaVuSans-31" d="M 794 531 
L 1825 531 
L 1825 4091 
L 703 3866 
L 703 4441 
L 1819 4666 
L 2450 4666 
L 2450 531 
L 3481 531 
L 3481 0 
L 794 0 
L 794 531 
z
" transform="scale(0.015625)"/>
       </defs>
       <use xlink:href="#DejaVuSans-31"/>
       <use xlink:href="#DejaVuSans-30" x="63.623047"/>
      </g>
     </g>
    </g>
    <g id="xtick_3">
     <g id="line2d_3">
      <g>
       <use xlink:href="#m5af1beea6d" x="183.885116" y="307.584" style="stroke: #000000; stroke-width: 0.8"/>
      </g>
     </g>
     <g id="text_3">
      <!-- 20 -->
      <g transform="translate(177.522616 322.182437) scale(0.1 -0.1)">
       <defs>
        <path id="DejaVuSans-32" d="M 1228 531 
L 3431 531 
L 3431 0 
L 469 0 
L 469 531 
Q 828 903 1448 1529 
Q 2069 2156 2228 2338 
Q 2531 2678 2651 2914 
Q 2772 3150 2772 3378 
Q 2772 3750 2511 3984 
Q 2250 4219 1831 4219 
Q 1534 4219 1204 4116 
Q 875 4013 500 3803 
L 500 4441 
Q 881 4594 1212 4672 
Q 1544 4750 1819 4750 
Q 2544 4750 2975 4387 
Q 3406 4025 3406 3419 
Q 3406 3131 3298 2873 
Q 3191 2616 2906 2266 
Q 2828 2175 2409 1742 
Q 1991 1309 1228 531 
z
" transform="scale(0.015625)"/>
       </defs>
       <use xlink:href="#DejaVuSans-32"/>
       <use xlink:href="#DejaVuSans-30" x="63.623047"/>
      </g>
     </g>
    </g>
    <g id="xtick_4">
     <g id="line2d_4">
      <g>
       <use xlink:href="#m5af1beea6d" x="238.91131" y="307.584" style="stroke: #000000; stroke-width: 0.8"/>
      </g>
     </g>
     <g id="text_4">
      <!-- 30 -->
      <g transform="translate(232.54881 322.182437) scale(0.1 -0.1)">
       <defs>
        <path id="DejaVuSans-33" d="M 2597 2516 
Q 3050 2419 3304 2112 
Q 3559 1806 3559 1356 
Q 3559 666 3084 287 
Q 2609 -91 1734 -91 
Q 1441 -91 1130 -33 
Q 819 25 488 141 
L 488 750 
Q 750 597 1062 519 
Q 1375 441 1716 441 
Q 2309 441 2620 675 
Q 2931 909 2931 1356 
Q 2931 1769 2642 2001 
Q 2353 2234 1838 2234 
L 1294 2234 
L 1294 2753 
L 1863 2753 
Q 2328 2753 2575 2939 
Q 2822 3125 2822 3475 
Q 2822 3834 2567 4026 
Q 2313 4219 1838 4219 
Q 1578 4219 1281 4162 
Q 984 4106 628 3988 
L 628 4550 
Q 988 4650 1302 4700 
Q 1616 4750 1894 4750 
Q 2613 4750 3031 4423 
Q 3450 4097 3450 3541 
Q 3450 3153 3228 2886 
Q 3006 2619 2597 2516 
z
" transform="scale(0.015625)"/>
       </defs>
       <use xlink:href="#DejaVuSans-33"/>
       <use xlink:href="#DejaVuSans-30" x="63.623047"/>
      </g>
     </g>
    </g>
    <g id="xtick_5">
     <g id="line2d_5">
      <g>
       <use xlink:href="#m5af1beea6d" x="293.937504" y="307.584" style="stroke: #000000; stroke-width: 0.8"/>
      </g>
     </g>
     <g id="text_5">
      <!-- 40 -->
      <g transform="translate(287.575004 322.182437) scale(0.1 -0.1)">
       <defs>
        <path id="DejaVuSans-34" d="M 2419 4116 
L 825 1625 
L 2419 1625 
L 2419 4116 
z
M 2253 4666 
L 3047 4666 
L 3047 1625 
L 3713 1625 
L 3713 1100 
L 3047 1100 
L 3047 0 
L 2419 0 
L 2419 1100 
L 313 1100 
L 313 1709 
L 2253 4666 
z
" transform="scale(0.015625)"/>
       </defs>
       <use xlink:href="#DejaVuSans-34"/>
       <use xlink:href="#DejaVuSans-30" x="63.623047"/>
      </g>
     </g>
    </g>
    <g id="xtick_6">
     <g id="line2d_6">
      <g>
       <use xlink:href="#m5af1beea6d" x="348.963698" y="307.584" style="stroke: #000000; stroke-width: 0.8"/>
      </g>
     </g>
     <g id="text_6">
      <!-- 50 -->
      <g transform="translate(342.601198 322.182437) scale(0.1 -0.1)">
       <defs>
        <path id="DejaVuSans-35" d="M 691 4666 
L 3169 4666 
L 3169 4134 
L 1269 4134 
L 1269 2991 
Q 1406 3038 1543 3061 
Q 1681 3084 1819 3084 
Q 2600 3084 3056 2656 
Q 3513 2228 3513 1497 
Q 3513 744 3044 326 
Q 2575 -91 1722 -91 
Q 1428 -91 1123 -41 
Q 819 9 494 109 
L 494 744 
Q 775 591 1075 516 
Q 1375 441 1709 441 
Q 2250 441 2565 725 
Q 2881 1009 2881 1497 
Q 2881 1984 2565 2268 
Q 2250 2553 1709 2553 
Q 1456 2553 1204 2497 
Q 953 2441 691 2322 
L 691 4666 
z
" transform="scale(0.015625)"/>
       </defs>
       <use xlink:href="#DejaVuSans-35"/>
       <use xlink:href="#DejaVuSans-30" x="63.623047"/>
      </g>
     </g>
    </g>
    <g id="xtick_7">
     <g id="line2d_7">
      <g>
       <use xlink:href="#m5af1beea6d" x="403.989892" y="307.584" style="stroke: #000000; stroke-width: 0.8"/>
      </g>
     </g>
     <g id="text_7">
      <!-- 60 -->
      <g transform="translate(397.627392 322.182437) scale(0.1 -0.1)">
       <defs>
        <path id="DejaVuSans-36" d="M 2113 2584 
Q 1688 2584 1439 2293 
Q 1191 2003 1191 1497 
Q 1191 994 1439 701 
Q 1688 409 2113 409 
Q 2538 409 2786 701 
Q 3034 994 3034 1497 
Q 3034 2003 2786 2293 
Q 2538 2584 2113 2584 
z
M 3366 4563 
L 3366 3988 
Q 3128 4100 2886 4159 
Q 2644 4219 2406 4219 
Q 1781 4219 1451 3797 
Q 1122 3375 1075 2522 
Q 1259 2794 1537 2939 
Q 1816 3084 2150 3084 
Q 2853 3084 3261 2657 
Q 3669 2231 3669 1497 
Q 3669 778 3244 343 
Q 2819 -91 2113 -91 
Q 1303 -91 875 529 
Q 447 1150 447 2328 
Q 447 3434 972 4092 
Q 1497 4750 2381 4750 
Q 2619 4750 2861 4703 
Q 3103 4656 3366 4563 
z
" transform="scale(0.015625)"/>
       </defs>
       <use xlink:href="#DejaVuSans-36"/>
       <use xlink:href="#DejaVuSans-30" x="63.623047"/>
      </g>
     </g>
    </g>
    <g id="text_8">
     <!-- Generations -->
     <g transform="translate(205.662344 335.860562) scale(0.1 -0.1)">
      <defs>
       <path id="DejaVuSans-47" d="M 3809 666 
L 3809 1919 
L 2778 1919 
L 2778 2438 
L 4434 2438 
L 4434 434 
Q 4069 175 3628 42 
Q 3188 -91 2688 -91 
Q 1594 -91 976 548 
Q 359 1188 359 2328 
Q 359 3472 976 4111 
Q 1594 4750 2688 4750 
Q 3144 4750 3555 4637 
Q 3966 4525 4313 4306 
L 4313 3634 
Q 3963 3931 3569 4081 
Q 3175 4231 2741 4231 
Q 1884 4231 1454 3753 
Q 1025 3275 1025 2328 
Q 1025 1384 1454 906 
Q 1884 428 2741 428 
Q 3075 428 3337 486 
Q 3600 544 3809 666 
z
" transform="scale(0.015625)"/>
       <path id="DejaVuSans-65" d="M 3597 1894 
L 3597 1613 
L 953 1613 
Q 991 1019 1311 708 
Q 1631 397 2203 397 
Q 2534 397 2845 478 
Q 3156 559 3463 722 
L 3463 178 
Q 3153 47 2828 -22 
Q 2503 -91 2169 -91 
Q 1331 -91 842 396 
Q 353 884 353 1716 
Q 353 2575 817 3079 
Q 1281 3584 2069 3584 
Q 2775 3584 3186 3129 
Q 3597 2675 3597 1894 
z
M 3022 2063 
Q 3016 2534 2758 2815 
Q 2500 3097 2075 3097 
Q 1594 3097 1305 2825 
Q 1016 2553 972 2059 
L 3022 2063 
z
" transform="scale(0.015625)"/>
       <path id="DejaVuSans-6e" d="M 3513 2113 
L 3513 0 
L 2938 0 
L 2938 2094 
Q 2938 2591 2744 2837 
Q 2550 3084 2163 3084 
Q 1697 3084 1428 2787 
Q 1159 2491 1159 1978 
L 1159 0 
L 581 0 
L 581 3500 
L 1159 3500 
L 1159 2956 
Q 1366 3272 1645 3428 
Q 1925 3584 2291 3584 
Q 2894 3584 3203 3211 
Q 3513 2838 3513 2113 
z
" transform="scale(0.015625)"/>
       <path id="DejaVuSans-72" d="M 2631 2963 
Q 2534 3019 2420 3045 
Q 2306 3072 2169 3072 
Q 1681 3072 1420 2755 
Q 1159 2438 1159 1844 
L 1159 0 
L 581 0 
L 581 3500 
L 1159 3500 
L 1159 2956 
Q 1341 3275 1631 3429 
Q 1922 3584 2338 3584 
Q 2397 3584 2469 3576 
Q 2541 3569 2628 3553 
L 2631 2963 
z
" transform="scale(0.015625)"/>
       <path id="DejaVuSans-61" d="M 2194 1759 
Q 1497 1759 1228 1600 
Q 959 1441 959 1056 
Q 959 750 1161 570 
Q 1363 391 1709 391 
Q 2188 391 2477 730 
Q 2766 1069 2766 1631 
L 2766 1759 
L 2194 1759 
z
M 3341 1997 
L 3341 0 
L 2766 0 
L 2766 531 
Q 2569 213 2275 61 
Q 1981 -91 1556 -91 
Q 1019 -91 701 211 
Q 384 513 384 1019 
Q 384 1609 779 1909 
Q 1175 2209 1959 2209 
L 2766 2209 
L 2766 2266 
Q 2766 2663 2505 2880 
Q 2244 3097 1772 3097 
Q 1472 3097 1187 3025 
Q 903 2953 641 2809 
L 641 3341 
Q 956 3463 1253 3523 
Q 1550 3584 1831 3584 
Q 2591 3584 2966 3190 
Q 3341 2797 3341 1997 
z
" transform="scale(0.015625)"/>
       <path id="DejaVuSans-74" d="M 1172 4494 
L 1172 3500 
L 2356 3500 
L 2356 3053 
L 1172 3053 
L 1172 1153 
Q 1172 725 1289 603 
Q 1406 481 1766 481 
L 2356 481 
L 2356 0 
L 1766 0 
Q 1100 0 847 248 
Q 594 497 594 1153 
L 594 3053 
L 172 3053 
L 172 3500 
L 594 3500 
L 594 4494 
L 1172 4494 
z
" transform="scale(0.015625)"/>
       <path id="DejaVuSans-69" d="M 603 3500 
L 1178 3500 
L 1178 0 
L 603 0 
L 603 3500 
z
M 603 4863 
L 1178 4863 
L 1178 4134 
L 603 4134 
L 603 4863 
z
" transform="scale(0.015625)"/>
       <path id="DejaVuSans-6f" d="M 1959 3097 
Q 1497 3097 1228 2736 
Q 959 2375 959 1747 
Q 959 1119 1226 758 
Q 1494 397 1959 397 
Q 2419 397 2687 759 
Q 2956 1122 2956 1747 
Q 2956 2369 2687 2733 
Q 2419 3097 1959 3097 
z
M 1959 3584 
Q 2709 3584 3137 3096 
Q 3566 2609 3566 1747 
Q 3566 888 3137 398 
Q 2709 -91 1959 -91 
Q 1206 -91 779 398 
Q 353 888 353 1747 
Q 353 2609 779 3096 
Q 1206 3584 1959 3584 
z
" transform="scale(0.015625)"/>
       <path id="DejaVuSans-73" d="M 2834 3397 
L 2834 2853 
Q 2591 2978 2328 3040 
Q 2066 3103 1784 3103 
Q 1356 3103 1142 2972 
Q 928 2841 928 2578 
Q 928 2378 1081 2264 
Q 1234 2150 1697 2047 
L 1894 2003 
Q 2506 1872 2764 1633 
Q 3022 1394 3022 966 
Q 3022 478 2636 193 
Q 2250 -91 1575 -91 
Q 1294 -91 989 -36 
Q 684 19 347 128 
L 347 722 
Q 666 556 975 473 
Q 1284 391 1588 391 
Q 1994 391 2212 530 
Q 2431 669 2431 922 
Q 2431 1156 2273 1281 
Q 2116 1406 1581 1522 
L 1381 1569 
Q 847 1681 609 1914 
Q 372 2147 372 2553 
Q 372 3047 722 3315 
Q 1072 3584 1716 3584 
Q 2034 3584 2315 3537 
Q 2597 3491 2834 3397 
z
" transform="scale(0.015625)"/>
      </defs>
      <use xlink:href="#DejaVuSans-47"/>
      <use xlink:href="#DejaVuSans-65" x="77.490234"/>
      <use xlink:href="#DejaVuSans-6e" x="139.013672"/>
      <use xlink:href="#DejaVuSans-65" x="202.392578"/>
      <use xlink:href="#DejaVuSans-72" x="263.916016"/>
      <use xlink:href="#DejaVuSans-61" x="305.029297"/>
      <use xlink:href="#DejaVuSans-74" x="366.308594"/>
      <use xlink:href="#DejaVuSans-69" x="405.517578"/>
      <use xlink:href="#DejaVuSans-6f" x="433.300781"/>
      <use xlink:href="#DejaVuSans-6e" x="494.482422"/>
      <use xlink:href="#DejaVuSans-73" x="557.861328"/>
     </g>
    </g>
   </g>
   <g id="matplotlib.axis_2">
    <g id="ytick_1">
     <g id="line2d_8">
      <defs>
       <path id="me4d8f3bfb7" d="M 0 0 
L -3.5 0 
" style="stroke: #000000; stroke-width: 0.8"/>
      </defs>
      <g>
       <use xlink:href="#me4d8f3bfb7" x="57.6" y="307.584" style="stroke: #000000; stroke-width: 0.8"/>
      </g>
     </g>
     <g id="text_9">
      <!-- 0 -->
      <g transform="translate(44.2375 311.383219) scale(0.1 -0.1)">
       <use xlink:href="#DejaVuSans-30"/>
      </g>
     </g>
    </g>
    <g id="ytick_2">
     <g id="line2d_9">
      <g>
       <use xlink:href="#me4d8f3bfb7" x="57.6" y="272.578475" style="stroke: #000000; stroke-width: 0.8"/>
      </g>
     </g>
     <g id="text_10">
      <!-- 25 -->
      <g transform="translate(37.875 276.377694) scale(0.1 -0.1)">
       <use xlink:href="#DejaVuSans-32"/>
       <use xlink:href="#DejaVuSans-35" x="63.623047"/>
      </g>
     </g>
    </g>
    <g id="ytick_3">
     <g id="line2d_10">
      <g>
       <use xlink:href="#me4d8f3bfb7" x="57.6" y="237.57295" style="stroke: #000000; stroke-width: 0.8"/>
      </g>
     </g>
     <g id="text_11">
      <!-- 50 -->
      <g transform="translate(37.875 241.372169) scale(0.1 -0.1)">
       <use xlink:href="#DejaVuSans-35"/>
       <use xlink:href="#DejaVuSans-30" x="63.623047"/>
      </g>
     </g>
    </g>
    <g id="ytick_4">
     <g id="line2d_11">
      <g>
       <use xlink:href="#me4d8f3bfb7" x="57.6" y="202.567425" style="stroke: #000000; stroke-width: 0.8"/>
      </g>
     </g>
     <g id="text_12">
      <!-- 75 -->
      <g transform="translate(37.875 206.366644) scale(0.1 -0.1)">
       <defs>
        <path id="DejaVuSans-37" d="M 525 4666 
L 3525 4666 
L 3525 4397 
L 1831 0 
L 1172 0 
L 2766 4134 
L 525 4134 
L 525 4666 
z
" transform="scale(0.015625)"/>
       </defs>
       <use xlink:href="#DejaVuSans-37"/>
       <use xlink:href="#DejaVuSans-35" x="63.623047"/>
      </g>
     </g>
    </g>
    <g id="ytick_5">
     <g id="line2d_12">
      <g>
       <use xlink:href="#me4d8f3bfb7" x="57.6" y="167.561901" style="stroke: #000000; stroke-width: 0.8"/>
      </g>
     </g>
     <g id="text_13">
      <!-- 100 -->
      <g transform="translate(31.5125 171.361119) scale(0.1 -0.1)">
       <use xlink:href="#DejaVuSans-31"/>
       <use xlink:href="#DejaVuSans-30" x="63.623047"/>
       <use xlink:href="#DejaVuSans-30" x="127.246094"/>
      </g>
     </g>
    </g>
    <g id="ytick_6">
     <g id="line2d_13">
      <g>
       <use xlink:href="#me4d8f3bfb7" x="57.6" y="132.556376" style="stroke: #000000; stroke-width: 0.8"/>
      </g>
     </g>
     <g id="text_14">
      <!-- 125 -->
      <g transform="translate(31.5125 136.355594) scale(0.1 -0.1)">
       <use xlink:href="#DejaVuSans-31"/>
       <use xlink:href="#DejaVuSans-32" x="63.623047"/>
       <use xlink:href="#DejaVuSans-35" x="127.246094"/>
      </g>
     </g>
    </g>
    <g id="ytick_7">
     <g id="line2d_14">
      <g>
       <use xlink:href="#me4d8f3bfb7" x="57.6" y="97.550851" style="stroke: #000000; stroke-width: 0.8"/>
      </g>
     </g>
     <g id="text_15">
      <!-- 150 -->
      <g transform="translate(31.5125 101.35007) scale(0.1 -0.1)">
       <use xlink:href="#DejaVuSans-31"/>
       <use xlink:href="#DejaVuSans-35" x="63.623047"/>
       <use xlink:href="#DejaVuSans-30" x="127.246094"/>
      </g>
     </g>
    </g>
    <g id="ytick_8">
     <g id="line2d_15">
      <g>
       <use xlink:href="#me4d8f3bfb7" x="57.6" y="62.545326" style="stroke: #000000; stroke-width: 0.8"/>
      </g>
     </g>
     <g id="text_16">
      <!-- 175 -->
      <g transform="translate(31.5125 66.344545) scale(0.1 -0.1)">
       <use xlink:href="#DejaVuSans-31"/>
       <use xlink:href="#DejaVuSans-37" x="63.623047"/>
       <use xlink:href="#DejaVuSans-35" x="127.246094"/>
      </g>
     </g>
    </g>
    <g id="text_17">
     <!-- Size per Species -->
     <g transform="translate(25.432812 215.520969) rotate(-90) scale(0.1 -0.1)">
      <defs>
       <path id="DejaVuSans-53" d="M 3425 4513 
L 3425 3897 
Q 3066 4069 2747 4153 
Q 2428 4238 2131 4238 
Q 1616 4238 1336 4038 
Q 1056 3838 1056 3469 
Q 1056 3159 1242 3001 
Q 1428 2844 1947 2747 
L 2328 2669 
Q 3034 2534 3370 2195 
Q 3706 1856 3706 1288 
Q 3706 609 3251 259 
Q 2797 -91 1919 -91 
Q 1588 -91 1214 -16 
Q 841 59 441 206 
L 441 856 
Q 825 641 1194 531 
Q 1563 422 1919 422 
Q 2459 422 2753 634 
Q 3047 847 3047 1241 
Q 3047 1584 2836 1778 
Q 2625 1972 2144 2069 
L 1759 2144 
Q 1053 2284 737 2584 
Q 422 2884 422 3419 
Q 422 4038 858 4394 
Q 1294 4750 2059 4750 
Q 2388 4750 2728 4690 
Q 3069 4631 3425 4513 
z
" transform="scale(0.015625)"/>
       <path id="DejaVuSans-7a" d="M 353 3500 
L 3084 3500 
L 3084 2975 
L 922 459 
L 3084 459 
L 3084 0 
L 275 0 
L 275 525 
L 2438 3041 
L 353 3041 
L 353 3500 
z
" transform="scale(0.015625)"/>
       <path id="DejaVuSans-20" transform="scale(0.015625)"/>
       <path id="DejaVuSans-70" d="M 1159 525 
L 1159 -1331 
L 581 -1331 
L 581 3500 
L 1159 3500 
L 1159 2969 
Q 1341 3281 1617 3432 
Q 1894 3584 2278 3584 
Q 2916 3584 3314 3078 
Q 3713 2572 3713 1747 
Q 3713 922 3314 415 
Q 2916 -91 2278 -91 
Q 1894 -91 1617 61 
Q 1341 213 1159 525 
z
M 3116 1747 
Q 3116 2381 2855 2742 
Q 2594 3103 2138 3103 
Q 1681 3103 1420 2742 
Q 1159 2381 1159 1747 
Q 1159 1113 1420 752 
Q 1681 391 2138 391 
Q 2594 391 2855 752 
Q 3116 1113 3116 1747 
z
" transform="scale(0.015625)"/>
       <path id="DejaVuSans-63" d="M 3122 3366 
L 3122 2828 
Q 2878 2963 2633 3030 
Q 2388 3097 2138 3097 
Q 1578 3097 1268 2742 
Q 959 2388 959 1747 
Q 959 1106 1268 751 
Q 1578 397 2138 397 
Q 2388 397 2633 464 
Q 2878 531 3122 666 
L 3122 134 
Q 2881 22 2623 -34 
Q 2366 -91 2075 -91 
Q 1284 -91 818 406 
Q 353 903 353 1747 
Q 353 2603 823 3093 
Q 1294 3584 2113 3584 
Q 2378 3584 2631 3529 
Q 2884 3475 3122 3366 
z
" transform="scale(0.015625)"/>
      </defs>
      <use xlink:href="#DejaVuSans-53"/>
      <use xlink:href="#DejaVuSans-69" x="63.476562"/>
      <use xlink:href="#DejaVuSans-7a" x="91.259766"/>
      <use xlink:href="#DejaVuSans-65" x="143.75"/>
      <use xlink:href="#DejaVuSans-20" x="205.273438"/>
      <use xlink:href="#DejaVuSans-70" x="237.060547"/>
      <use xlink:href="#DejaVuSans-65" x="300.537109"/>
      <use xlink:href="#DejaVuSans-72" x="362.060547"/>
      <use xlink:href="#DejaVuSans-20" x="403.173828"/>
      <use xlink:href="#DejaVuSans-53" x="434.960938"/>
      <use xlink:href="#DejaVuSans-70" x="498.4375"/>
      <use xlink:href="#DejaVuSans-65" x="561.914062"/>
      <use xlink:href="#DejaVuSans-63" x="623.4375"/>
      <use xlink:href="#DejaVuSans-69" x="678.417969"/>
      <use xlink:href="#DejaVuSans-65" x="706.201172"/>
      <use xlink:href="#DejaVuSans-73" x="767.724609"/>
     </g>
    </g>
   </g>
   <g id="patch_3">
    <path d="M 57.6 307.584 
L 57.6 41.472 
" style="fill: none; stroke: #000000; stroke-width: 0.8; stroke-linejoin: miter; stroke-linecap: square"/>
   </g>
   <g id="patch_4">
    <path d="M 414.72 307.584 
L 414.72 41.472 
" style="fill: none; stroke: #000000; stroke-width: 0.8; stroke-linejoin: miter; stroke-linecap: square"/>
   </g>
   <g id="patch_5">
    <path d="M 57.6 307.584 
L 414.72 307.584 
" style="fill: none; stroke: #000000; stroke-width: 0.8; stroke-linejoin: miter; stroke-linecap: square"/>
   </g>
   <g id="patch_6">
    <path d="M 57.6 41.472 
L 414.72 41.472 
" style="fill: none; stroke: #000000; stroke-width: 0.8; stroke-linejoin: miter; stroke-linecap: square"/>
   </g>
   <g id="text_18">
    <!-- Speciation -->
    <g transform="translate(204.714375 35.472) scale(0.12 -0.12)">
     <use xlink:href="#DejaVuSans-53"/>
     <use xlink:href="#DejaVuSans-70" x="63.476562"/>
     <use xlink:href="#DejaVuSans-65" x="126.953125"/>
     <use xlink:href="#DejaVuSans-63" x="188.476562"/>
     <use xlink:href="#DejaVuSans-69" x="243.457031"/>
     <use xlink:href="#DejaVuSans-61" x="271.240234"/>
     <use xlink:href="#DejaVuSans-74" x="332.519531"/>
     <use xlink:href="#DejaVuSans-69" x="371.728516"/>
     <use xlink:href="#DejaVuSans-6f" x="399.511719"/>
     <use xlink:href="#DejaVuSans-6e" x="460.693359"/>
    </g>
   </g>
  </g>
 </g>
 <defs>
  <clipPath id="pf6673538e4">
   <rect x="57.6" y="41.472" width="357.12" height="266.112"/>
  </clipPath>
 </defs>
</svg>
