<?xml version="1.0" encoding="UTF-8" standalone="no"?>
<!DOCTYPE svg PUBLIC "-//W3C//DTD SVG 1.1//EN"
 "http://www.w3.org/Graphics/SVG/1.1/DTD/svg11.dtd">
<!-- Generated by graphviz version 2.43.0 (0)
 -->
<!-- Title: %3 Pages: 1 -->
<svg width="1692pt" height="197pt"
 viewBox="0.00 0.00 1692.00 196.99" xmlns="http://www.w3.org/2000/svg" xmlns:xlink="http://www.w3.org/1999/xlink">
<g id="graph0" class="graph" transform="scale(1 1) rotate(0) translate(4 192.99)">
<title>%3</title>
<polygon fill="white" stroke="transparent" points="-4,4 -4,-192.99 1688,-192.99 1688,4 -4,4"/>
<!-- &#45;1 -->
<g id="node1" class="node">
<title>&#45;1</title>
<polygon fill="lightgray" stroke="black" points="26,-188.99 0,-188.99 0,-170.99 26,-170.99 26,-188.99"/>
<text text-anchor="middle" x="13" y="-177.79" font-family="Times,serif" font-size="9.00">&#45;1</text>
</g>
<!-- &#45;2 -->
<g id="node2" class="node">
<title>&#45;2</title>
<polygon fill="lightgray" stroke="black" points="70,-188.99 44,-188.99 44,-170.99 70,-170.99 70,-188.99"/>
<text text-anchor="middle" x="57" y="-177.79" font-family="Times,serif" font-size="9.00">&#45;2</text>
</g>
<!-- 2 -->
<g id="node43" class="node">
<title>2</title>
<ellipse fill="lightblue" stroke="black" cx="104" cy="-110.25" rx="16.03" ry="16.03"/>
<text text-anchor="middle" x="104" y="-108.05" font-family="Times,serif" font-size="9.00">2</text>
</g>
<!-- &#45;2&#45;&gt;2 -->
<g id="edge7" class="edge">
<title>&#45;2&#45;&gt;2</title>
<path fill="none" stroke="red" stroke-width="0.16" d="M62.58,-170.96C69.1,-161.56 80.15,-145.63 89.2,-132.59"/>
<polygon fill="red" stroke="red" stroke-width="0.16" points="92.24,-134.34 95.06,-124.13 86.48,-130.35 92.24,-134.34"/>
</g>
<!-- &#45;3 -->
<g id="node3" class="node">
<title>&#45;3</title>
<polygon fill="lightgray" stroke="black" points="169,-119.25 143,-119.25 143,-101.25 169,-101.25 169,-119.25"/>
<text text-anchor="middle" x="156" y="-108.05" font-family="Times,serif" font-size="9.00">&#45;3</text>
</g>
<!-- 1 -->
<g id="node42" class="node">
<title>1</title>
<ellipse fill="lightblue" stroke="black" cx="266" cy="-24.75" rx="16.03" ry="16.03"/>
<text text-anchor="middle" x="266" y="-22.55" font-family="Times,serif" font-size="9.00">1</text>
</g>
<!-- &#45;3&#45;&gt;1 -->
<g id="edge9" class="edge">
<title>&#45;3&#45;&gt;1</title>
<path fill="none" stroke="green" stroke-width="0.75" d="M164.81,-101.11C170,-96.41 176.75,-90.48 183,-85.5 203.15,-69.44 227.13,-52.39 244.12,-40.63"/>
<polygon fill="green" stroke="green" stroke-width="0.75" points="246.51,-43.23 252.77,-34.68 242.55,-37.46 246.51,-43.23"/>
</g>
<!-- &#45;4 -->
<g id="node4" class="node">
<title>&#45;4</title>
<polygon fill="lightgray" stroke="black" points="258,-188.99 232,-188.99 232,-170.99 258,-170.99 258,-188.99"/>
<text text-anchor="middle" x="245" y="-177.79" font-family="Times,serif" font-size="9.00">&#45;4</text>
</g>
<!-- &#45;5 -->
<g id="node5" class="node">
<title>&#45;5</title>
<polygon fill="lightgray" stroke="black" points="302,-188.99 276,-188.99 276,-170.99 302,-170.99 302,-188.99"/>
<text text-anchor="middle" x="289" y="-177.79" font-family="Times,serif" font-size="9.00">&#45;5</text>
</g>
<!-- &#45;6 -->
<g id="node6" class="node">
<title>&#45;6</title>
<polygon fill="lightgray" stroke="black" points="346,-188.99 320,-188.99 320,-170.99 346,-170.99 346,-188.99"/>
<text text-anchor="middle" x="333" y="-177.79" font-family="Times,serif" font-size="9.00">&#45;6</text>
</g>
<!-- &#45;7 -->
<g id="node7" class="node">
<title>&#45;7</title>
<polygon fill="lightgray" stroke="black" points="390,-188.99 364,-188.99 364,-170.99 390,-170.99 390,-188.99"/>
<text text-anchor="middle" x="377" y="-177.79" font-family="Times,serif" font-size="9.00">&#45;7</text>
</g>
<!-- &#45;8 -->
<g id="node8" class="node">
<title>&#45;8</title>
<polygon fill="lightgray" stroke="black" points="434,-188.99 408,-188.99 408,-170.99 434,-170.99 434,-188.99"/>
<text text-anchor="middle" x="421" y="-177.79" font-family="Times,serif" font-size="9.00">&#45;8</text>
</g>
<!-- &#45;9 -->
<g id="node9" class="node">
<title>&#45;9</title>
<polygon fill="lightgray" stroke="black" points="214,-188.99 188,-188.99 188,-170.99 214,-170.99 214,-188.99"/>
<text text-anchor="middle" x="201" y="-177.79" font-family="Times,serif" font-size="9.00">&#45;9</text>
</g>
<!-- &#45;9&#45;&gt;1 -->
<g id="edge4" class="edge">
<title>&#45;9&#45;&gt;1</title>
<path fill="none" stroke="green" stroke-width="0.33" stroke-dasharray="1,5" d="M200.88,-170.83C200.94,-154.05 202.63,-114.81 216,-85.5 223.23,-69.65 235.83,-54.63 246.58,-43.62"/>
<polygon fill="green" stroke="green" stroke-width="0.33" points="249.29,-45.85 253.97,-36.35 244.38,-40.86 249.29,-45.85"/>
</g>
<!-- 243 -->
<g id="node46" class="node">
<title>243</title>
<ellipse fill="white" stroke="black" cx="400" cy="-110.25" rx="25" ry="25"/>
<text text-anchor="middle" x="400" y="-108.05" font-family="Times,serif" font-size="9.00">243</text>
</g>
<!-- &#45;9&#45;&gt;243 -->
<g id="edge16" class="edge">
<title>&#45;9&#45;&gt;243</title>
<path fill="none" stroke="green" stroke-width="0.21" stroke-dasharray="1,5" d="M214.42,-173.87C217.24,-172.86 220.2,-171.85 223,-170.99 285.66,-151.77 306.38,-162.21 366,-134.99 368.08,-134.05 370.16,-132.97 372.21,-131.81"/>
<polygon fill="green" stroke="green" stroke-width="0.21" points="374.33,-134.61 380.96,-126.34 370.62,-128.68 374.33,-134.61"/>
</g>
<!-- &#45;10 -->
<g id="node10" class="node">
<title>&#45;10</title>
<polygon fill="lightgray" stroke="black" points="484,-188.99 452,-188.99 452,-170.99 484,-170.99 484,-188.99"/>
<text text-anchor="middle" x="468" y="-177.79" font-family="Times,serif" font-size="9.00">&#45;10</text>
</g>
<!-- &#45;11 -->
<g id="node11" class="node">
<title>&#45;11</title>
<polygon fill="lightgray" stroke="black" points="534,-188.99 502,-188.99 502,-170.99 534,-170.99 534,-188.99"/>
<text text-anchor="middle" x="518" y="-177.79" font-family="Times,serif" font-size="9.00">&#45;11</text>
</g>
<!-- &#45;12 -->
<g id="node12" class="node">
<title>&#45;12</title>
<polygon fill="lightgray" stroke="black" points="584,-188.99 552,-188.99 552,-170.99 584,-170.99 584,-188.99"/>
<text text-anchor="middle" x="568" y="-177.79" font-family="Times,serif" font-size="9.00">&#45;12</text>
</g>
<!-- &#45;13 -->
<g id="node13" class="node">
<title>&#45;13</title>
<polygon fill="lightgray" stroke="black" points="734,-188.99 702,-188.99 702,-170.99 734,-170.99 734,-188.99"/>
<text text-anchor="middle" x="718" y="-177.79" font-family="Times,serif" font-size="9.00">&#45;13</text>
</g>
<!-- 0 -->
<g id="node41" class="node">
<title>0</title>
<ellipse fill="lightblue" stroke="black" cx="680" cy="-110.25" rx="16.03" ry="16.03"/>
<text text-anchor="middle" x="680" y="-108.05" font-family="Times,serif" font-size="9.00">0</text>
</g>
<!-- &#45;13&#45;&gt;0 -->
<g id="edge6" class="edge">
<title>&#45;13&#45;&gt;0</title>
<path fill="none" stroke="green" stroke-width="0.39" stroke-dasharray="1,5" d="M713.49,-170.96C708.37,-161.82 699.78,-146.5 692.58,-133.67"/>
<polygon fill="green" stroke="green" stroke-width="0.39" points="695.6,-131.9 687.65,-124.89 689.49,-135.33 695.6,-131.9"/>
</g>
<!-- 3 -->
<g id="node44" class="node">
<title>3</title>
<ellipse fill="lightblue" stroke="black" cx="755" cy="-110.25" rx="16.03" ry="16.03"/>
<text text-anchor="middle" x="755" y="-108.05" font-family="Times,serif" font-size="9.00">3</text>
</g>
<!-- &#45;13&#45;&gt;3 -->
<g id="edge5" class="edge">
<title>&#45;13&#45;&gt;3</title>
<path fill="none" stroke="red" stroke-width="0.14" d="M722.39,-170.96C727.38,-161.82 735.74,-146.5 742.75,-133.67"/>
<polygon fill="red" stroke="red" stroke-width="0.14" points="745.83,-135.35 747.55,-124.89 739.68,-131.99 745.83,-135.35"/>
</g>
<!-- &#45;14 -->
<g id="node14" class="node">
<title>&#45;14</title>
<polygon fill="lightgray" stroke="black" points="784,-188.99 752,-188.99 752,-170.99 784,-170.99 784,-188.99"/>
<text text-anchor="middle" x="768" y="-177.79" font-family="Times,serif" font-size="9.00">&#45;14</text>
</g>
<!-- &#45;14&#45;&gt;0 -->
<g id="edge14" class="edge">
<title>&#45;14&#45;&gt;0</title>
<path fill="none" stroke="red" stroke-width="0.96" stroke-dasharray="1,5" d="M757.56,-170.96C743.55,-160.17 718.37,-140.79 700.51,-127.03"/>
<polygon fill="red" stroke="red" stroke-width="0.96" points="702.46,-124.12 692.41,-120.8 698.19,-129.67 702.46,-124.12"/>
</g>
<!-- &#45;14&#45;&gt;3 -->
<g id="edge11" class="edge">
<title>&#45;14&#45;&gt;3</title>
<path fill="none" stroke="red" stroke-width="0.3" d="M766.46,-170.96C764.83,-162.5 762.2,-148.75 759.86,-136.58"/>
<polygon fill="red" stroke="red" stroke-width="0.3" points="763.24,-135.62 757.92,-126.46 756.37,-136.94 763.24,-135.62"/>
</g>
<!-- &#45;15 -->
<g id="node15" class="node">
<title>&#45;15</title>
<polygon fill="lightgray" stroke="black" points="834,-188.99 802,-188.99 802,-170.99 834,-170.99 834,-188.99"/>
<text text-anchor="middle" x="818" y="-177.79" font-family="Times,serif" font-size="9.00">&#45;15</text>
</g>
<!-- &#45;16 -->
<g id="node16" class="node">
<title>&#45;16</title>
<polygon fill="lightgray" stroke="black" points="884,-188.99 852,-188.99 852,-170.99 884,-170.99 884,-188.99"/>
<text text-anchor="middle" x="868" y="-177.79" font-family="Times,serif" font-size="9.00">&#45;16</text>
</g>
<!-- &#45;17 -->
<g id="node17" class="node">
<title>&#45;17</title>
<polygon fill="lightgray" stroke="black" points="934,-188.99 902,-188.99 902,-170.99 934,-170.99 934,-188.99"/>
<text text-anchor="middle" x="918" y="-177.79" font-family="Times,serif" font-size="9.00">&#45;17</text>
</g>
<!-- &#45;18 -->
<g id="node18" class="node">
<title>&#45;18</title>
<polygon fill="lightgray" stroke="black" points="984,-188.99 952,-188.99 952,-170.99 984,-170.99 984,-188.99"/>
<text text-anchor="middle" x="968" y="-177.79" font-family="Times,serif" font-size="9.00">&#45;18</text>
</g>
<!-- &#45;19 -->
<g id="node19" class="node">
<title>&#45;19</title>
<polygon fill="lightgray" stroke="black" points="1034,-188.99 1002,-188.99 1002,-170.99 1034,-170.99 1034,-188.99"/>
<text text-anchor="middle" x="1018" y="-177.79" font-family="Times,serif" font-size="9.00">&#45;19</text>
</g>
<!-- &#45;20 -->
<g id="node20" class="node">
<title>&#45;20</title>
<polygon fill="lightgray" stroke="black" points="1084,-188.99 1052,-188.99 1052,-170.99 1084,-170.99 1084,-188.99"/>
<text text-anchor="middle" x="1068" y="-177.79" font-family="Times,serif" font-size="9.00">&#45;20</text>
</g>
<!-- &#45;21 -->
<g id="node21" class="node">
<title>&#45;21</title>
<polygon fill="lightgray" stroke="black" points="257,-119.25 225,-119.25 225,-101.25 257,-101.25 257,-119.25"/>
<text text-anchor="middle" x="241" y="-108.05" font-family="Times,serif" font-size="9.00">&#45;21</text>
</g>
<!-- &#45;21&#45;&gt;1 -->
<g id="edge3" class="edge">
<title>&#45;21&#45;&gt;1</title>
<path fill="none" stroke="red" stroke-width="0.41" stroke-dasharray="1,5" d="M243.4,-101.24C246.86,-89.68 253.41,-67.81 258.57,-50.57"/>
<polygon fill="red" stroke="red" stroke-width="0.41" points="262.05,-51.16 261.56,-40.57 255.34,-49.15 262.05,-51.16"/>
</g>
<!-- &#45;22 -->
<g id="node22" class="node">
<title>&#45;22</title>
<polygon fill="lightgray" stroke="black" points="634,-188.99 602,-188.99 602,-170.99 634,-170.99 634,-188.99"/>
<text text-anchor="middle" x="618" y="-177.79" font-family="Times,serif" font-size="9.00">&#45;22</text>
</g>
<!-- &#45;22&#45;&gt;0 -->
<g id="edge13" class="edge">
<title>&#45;22&#45;&gt;0</title>
<path fill="none" stroke="green" stroke-width="0.49" d="M625.36,-170.96C634.39,-161.09 650.01,-144.02 662.25,-130.65"/>
<polygon fill="green" stroke="green" stroke-width="0.49" points="665.17,-132.64 669.34,-122.9 660,-127.91 665.17,-132.64"/>
</g>
<!-- &#45;23 -->
<g id="node23" class="node">
<title>&#45;23</title>
<polygon fill="lightgray" stroke="black" points="1134,-188.99 1102,-188.99 1102,-170.99 1134,-170.99 1134,-188.99"/>
<text text-anchor="middle" x="1118" y="-177.79" font-family="Times,serif" font-size="9.00">&#45;23</text>
</g>
<!-- &#45;24 -->
<g id="node24" class="node">
<title>&#45;24</title>
<polygon fill="lightgray" stroke="black" points="1184,-188.99 1152,-188.99 1152,-170.99 1184,-170.99 1184,-188.99"/>
<text text-anchor="middle" x="1168" y="-177.79" font-family="Times,serif" font-size="9.00">&#45;24</text>
</g>
<!-- &#45;25 -->
<g id="node25" class="node">
<title>&#45;25</title>
<polygon fill="lightgray" stroke="black" points="1234,-188.99 1202,-188.99 1202,-170.99 1234,-170.99 1234,-188.99"/>
<text text-anchor="middle" x="1218" y="-177.79" font-family="Times,serif" font-size="9.00">&#45;25</text>
</g>
<!-- &#45;26 -->
<g id="node26" class="node">
<title>&#45;26</title>
<polygon fill="lightgray" stroke="black" points="1284,-188.99 1252,-188.99 1252,-170.99 1284,-170.99 1284,-188.99"/>
<text text-anchor="middle" x="1268" y="-177.79" font-family="Times,serif" font-size="9.00">&#45;26</text>
</g>
<!-- &#45;27 -->
<g id="node27" class="node">
<title>&#45;27</title>
<polygon fill="lightgray" stroke="black" points="307,-119.25 275,-119.25 275,-101.25 307,-101.25 307,-119.25"/>
<text text-anchor="middle" x="291" y="-108.05" font-family="Times,serif" font-size="9.00">&#45;27</text>
</g>
<!-- &#45;27&#45;&gt;1 -->
<g id="edge10" class="edge">
<title>&#45;27&#45;&gt;1</title>
<path fill="none" stroke="green" stroke-width="0.64" stroke-dasharray="1,5" d="M288.6,-101.24C285.14,-89.68 278.59,-67.81 273.43,-50.57"/>
<polygon fill="green" stroke="green" stroke-width="0.64" points="276.66,-49.15 270.44,-40.57 269.95,-51.16 276.66,-49.15"/>
</g>
<!-- &#45;28 -->
<g id="node28" class="node">
<title>&#45;28</title>
<polygon fill="lightgray" stroke="black" points="120,-188.99 88,-188.99 88,-170.99 120,-170.99 120,-188.99"/>
<text text-anchor="middle" x="104" y="-177.79" font-family="Times,serif" font-size="9.00">&#45;28</text>
</g>
<!-- &#45;28&#45;&gt;2 -->
<g id="edge2" class="edge">
<title>&#45;28&#45;&gt;2</title>
<path fill="none" stroke="red" stroke-width="0.58" d="M104,-170.96C104,-162.55 104,-148.93 104,-136.81"/>
<polygon fill="red" stroke="red" stroke-width="0.58" points="107.5,-136.72 104,-126.72 100.5,-136.72 107.5,-136.72"/>
</g>
<!-- &#45;29 -->
<g id="node29" class="node">
<title>&#45;29</title>
<polygon fill="lightgray" stroke="black" points="1334,-188.99 1302,-188.99 1302,-170.99 1334,-170.99 1334,-188.99"/>
<text text-anchor="middle" x="1318" y="-177.79" font-family="Times,serif" font-size="9.00">&#45;29</text>
</g>
<!-- &#45;30 -->
<g id="node30" class="node">
<title>&#45;30</title>
<polygon fill="lightgray" stroke="black" points="357,-119.25 325,-119.25 325,-101.25 357,-101.25 357,-119.25"/>
<text text-anchor="middle" x="341" y="-108.05" font-family="Times,serif" font-size="9.00">&#45;30</text>
</g>
<!-- &#45;30&#45;&gt;1 -->
<g id="edge1" class="edge">
<title>&#45;30&#45;&gt;1</title>
<path fill="none" stroke="green" stroke-width="0.13" d="M333.81,-101.24C322.24,-88.36 299.16,-62.66 283.16,-44.85"/>
<polygon fill="green" stroke="green" stroke-width="0.13" points="285.66,-42.4 276.38,-37.3 280.46,-47.08 285.66,-42.4"/>
</g>
<!-- &#45;31 -->
<g id="node31" class="node">
<title>&#45;31</title>
<polygon fill="lightgray" stroke="black" points="475,-119.25 443,-119.25 443,-101.25 475,-101.25 475,-119.25"/>
<text text-anchor="middle" x="459" y="-108.05" font-family="Times,serif" font-size="9.00">&#45;31</text>
</g>
<!-- 167 -->
<g id="node45" class="node">
<title>167</title>
<ellipse fill="white" stroke="black" cx="429" cy="-24.75" rx="25" ry="25"/>
<text text-anchor="middle" x="429" y="-22.55" font-family="Times,serif" font-size="9.00">167</text>
</g>
<!-- &#45;31&#45;&gt;167 -->
<g id="edge15" class="edge">
<title>&#45;31&#45;&gt;167</title>
<path fill="none" stroke="green" stroke-width="0.22" stroke-dasharray="1,5" d="M456.12,-101.24C452.53,-91.23 446.16,-73.51 440.5,-57.74"/>
<polygon fill="green" stroke="green" stroke-width="0.22" points="443.77,-56.5 437.09,-48.27 437.18,-58.86 443.77,-56.5"/>
</g>
<!-- &#45;32 -->
<g id="node32" class="node">
<title>&#45;32</title>
<polygon fill="lightgray" stroke="black" points="1384,-188.99 1352,-188.99 1352,-170.99 1384,-170.99 1384,-188.99"/>
<text text-anchor="middle" x="1368" y="-177.79" font-family="Times,serif" font-size="9.00">&#45;32</text>
</g>
<!-- &#45;33 -->
<g id="node33" class="node">
<title>&#45;33</title>
<polygon fill="lightgray" stroke="black" points="1434,-188.99 1402,-188.99 1402,-170.99 1434,-170.99 1434,-188.99"/>
<text text-anchor="middle" x="1418" y="-177.79" font-family="Times,serif" font-size="9.00">&#45;33</text>
</g>
<!-- &#45;34 -->
<g id="node34" class="node">
<title>&#45;34</title>
<polygon fill="lightgray" stroke="black" points="1484,-188.99 1452,-188.99 1452,-170.99 1484,-170.99 1484,-188.99"/>
<text text-anchor="middle" x="1468" y="-177.79" font-family="Times,serif" font-size="9.00">&#45;34</text>
</g>
<!-- &#45;35 -->
<g id="node35" class="node">
<title>&#45;35</title>
<polygon fill="lightgray" stroke="black" points="1534,-188.99 1502,-188.99 1502,-170.99 1534,-170.99 1534,-188.99"/>
<text text-anchor="middle" x="1518" y="-177.79" font-family="Times,serif" font-size="9.00">&#45;35</text>
</g>
<!-- &#45;36 -->
<g id="node36" class="node">
<title>&#45;36</title>
<polygon fill="lightgray" stroke="black" points="1584,-188.99 1552,-188.99 1552,-170.99 1584,-170.99 1584,-188.99"/>
<text text-anchor="middle" x="1568" y="-177.79" font-family="Times,serif" font-size="9.00">&#45;36</text>
</g>
<!-- &#45;37 -->
<g id="node37" class="node">
<title>&#45;37</title>
<polygon fill="lightgray" stroke="black" points="684,-188.99 652,-188.99 652,-170.99 684,-170.99 684,-188.99"/>
<text text-anchor="middle" x="668" y="-177.79" font-family="Times,serif" font-size="9.00">&#45;37</text>
</g>
<!-- &#45;37&#45;&gt;0 -->
<g id="edge8" class="edge">
<title>&#45;37&#45;&gt;0</title>
<path fill="none" stroke="green" stroke-width="0.36" d="M669.42,-170.96C670.92,-162.5 673.36,-148.75 675.51,-136.58"/>
<polygon fill="green" stroke="green" stroke-width="0.36" points="679.01,-136.91 677.31,-126.46 672.12,-135.69 679.01,-136.91"/>
</g>
<!-- &#45;38 -->
<g id="node38" class="node">
<title>&#45;38</title>
<polygon fill="lightgray" stroke="black" points="170,-188.99 138,-188.99 138,-170.99 170,-170.99 170,-188.99"/>
<text text-anchor="middle" x="154" y="-177.79" font-family="Times,serif" font-size="9.00">&#45;38</text>
</g>
<!-- &#45;38&#45;&gt;2 -->
<g id="edge12" class="edge">
<title>&#45;38&#45;&gt;2</title>
<path fill="none" stroke="red" stroke-width="0.3" stroke-dasharray="1,5" d="M148.07,-170.96C141.02,-161.41 129,-145.13 119.3,-131.97"/>
<polygon fill="red" stroke="red" stroke-width="0.3" points="122.08,-129.85 113.33,-123.88 116.45,-134.01 122.08,-129.85"/>
</g>
<!-- &#45;39 -->
<g id="node39" class="node">
<title>&#45;39</title>
<polygon fill="lightgray" stroke="black" points="1634,-188.99 1602,-188.99 1602,-170.99 1634,-170.99 1634,-188.99"/>
<text text-anchor="middle" x="1618" y="-177.79" font-family="Times,serif" font-size="9.00">&#45;39</text>
</g>
<!-- &#45;40 -->
<g id="node40" class="node">
<title>&#45;40</title>
<polygon fill="lightgray" stroke="black" points="1684,-188.99 1652,-188.99 1652,-170.99 1684,-170.99 1684,-188.99"/>
<text text-anchor="middle" x="1668" y="-177.79" font-family="Times,serif" font-size="9.00">&#45;40</text>
</g>
<!-- 243&#45;&gt;1 -->
<g id="edge17" class="edge">
<title>243&#45;&gt;1</title>
<path fill="none" stroke="green" stroke-width="0.47" d="M380.03,-94.94C375.46,-91.77 370.59,-88.47 366,-85.5 339.91,-68.62 309.11,-50.48 288.65,-38.67"/>
<polygon fill="green" stroke="green" stroke-width="0.47" points="290.19,-35.51 279.78,-33.56 286.7,-41.58 290.19,-35.51"/>
</g>
<!-- 243&#45;&gt;167 -->
<g id="edge18" class="edge">
<title>243&#45;&gt;167</title>
<path fill="none" stroke="red" stroke-width="0.19" d="M407.92,-86.43C410.99,-77.61 414.54,-67.37 417.86,-57.84"/>
<polygon fill="red" stroke="red" stroke-width="0.19" points="421.21,-58.84 421.19,-48.25 414.6,-56.55 421.21,-58.84"/>
</g>
</g>
</svg>
