<?xml version="1.0" encoding="UTF-8" standalone="no"?>
<!DOCTYPE svg PUBLIC "-//W3C//DTD SVG 1.1//EN"
 "http://www.w3.org/Graphics/SVG/1.1/DTD/svg11.dtd">
<!-- Generated by graphviz version 2.43.0 (0)
 -->
<!-- Title: %3 Pages: 1 -->
<svg width="1936pt" height="95pt"
 viewBox="0.00 0.00 1936.00 94.53" xmlns="http://www.w3.org/2000/svg" xmlns:xlink="http://www.w3.org/1999/xlink">
<g id="graph0" class="graph" transform="scale(1 1) rotate(0) translate(4 90.53)">
<title>%3</title>
<polygon fill="white" stroke="transparent" points="-4,4 -4,-90.53 1932,-90.53 1932,4 -4,4"/>
<!-- &#45;1 -->
<g id="node1" class="node">
<title>&#45;1</title>
<polygon fill="lightgray" stroke="black" points="26,-86.53 0,-86.53 0,-68.53 26,-68.53 26,-86.53"/>
<text text-anchor="middle" x="13" y="-75.33" font-family="Times,serif" font-size="9.00">&#45;1</text>
</g>
<!-- 2 -->
<g id="node43" class="node">
<title>2</title>
<ellipse fill="lightblue" stroke="black" cx="148" cy="-16.26" rx="16.03" ry="16.03"/>
<text text-anchor="middle" x="148" y="-14.06" font-family="Times,serif" font-size="9.00">2</text>
</g>
<!-- &#45;1&#45;&gt;2 -->
<g id="edge2" class="edge">
<title>&#45;1&#45;&gt;2</title>
<path fill="none" stroke="green" stroke-width="0.78" d="M26.44,-70.63C49.23,-60.62 95.74,-40.2 124.17,-27.73"/>
<polygon fill="green" stroke="green" stroke-width="0.78" points="125.65,-30.9 133.4,-23.67 122.83,-24.49 125.65,-30.9"/>
</g>
<!-- &#45;2 -->
<g id="node2" class="node">
<title>&#45;2</title>
<polygon fill="lightgray" stroke="black" points="358,-86.53 332,-86.53 332,-68.53 358,-68.53 358,-86.53"/>
<text text-anchor="middle" x="345" y="-75.33" font-family="Times,serif" font-size="9.00">&#45;2</text>
</g>
<!-- &#45;3 -->
<g id="node3" class="node">
<title>&#45;3</title>
<polygon fill="lightgray" stroke="black" points="402,-86.53 376,-86.53 376,-68.53 402,-68.53 402,-86.53"/>
<text text-anchor="middle" x="389" y="-75.33" font-family="Times,serif" font-size="9.00">&#45;3</text>
</g>
<!-- &#45;4 -->
<g id="node4" class="node">
<title>&#45;4</title>
<polygon fill="lightgray" stroke="black" points="446,-86.53 420,-86.53 420,-68.53 446,-68.53 446,-86.53"/>
<text text-anchor="middle" x="433" y="-75.33" font-family="Times,serif" font-size="9.00">&#45;4</text>
</g>
<!-- &#45;5 -->
<g id="node5" class="node">
<title>&#45;5</title>
<polygon fill="lightgray" stroke="black" points="70,-86.53 44,-86.53 44,-68.53 70,-68.53 70,-86.53"/>
<text text-anchor="middle" x="57" y="-75.33" font-family="Times,serif" font-size="9.00">&#45;5</text>
</g>
<!-- &#45;5&#45;&gt;2 -->
<g id="edge9" class="edge">
<title>&#45;5&#45;&gt;2</title>
<path fill="none" stroke="red" stroke-width="0.18" d="M69.65,-68.29C84.21,-58.81 108.37,-43.07 126.02,-31.58"/>
<polygon fill="red" stroke="red" stroke-width="0.18" points="128.1,-34.4 134.57,-26.01 124.28,-28.54 128.1,-34.4"/>
</g>
<!-- &#45;6 -->
<g id="node6" class="node">
<title>&#45;6</title>
<polygon fill="lightgray" stroke="black" points="490,-86.53 464,-86.53 464,-68.53 490,-68.53 490,-86.53"/>
<text text-anchor="middle" x="477" y="-75.33" font-family="Times,serif" font-size="9.00">&#45;6</text>
</g>
<!-- 3 -->
<g id="node44" class="node">
<title>3</title>
<ellipse fill="lightblue" stroke="black" cx="521" cy="-16.26" rx="16.03" ry="16.03"/>
<text text-anchor="middle" x="521" y="-14.06" font-family="Times,serif" font-size="9.00">3</text>
</g>
<!-- &#45;6&#45;&gt;3 -->
<g id="edge5" class="edge">
<title>&#45;6&#45;&gt;3</title>
<path fill="none" stroke="green" stroke-width="0.36" d="M483.12,-68.29C488.87,-60.53 497.73,-48.6 505.44,-38.22"/>
<polygon fill="green" stroke="green" stroke-width="0.36" points="508.4,-40.11 511.55,-30 502.78,-35.94 508.4,-40.11"/>
</g>
<!-- &#45;7 -->
<g id="node7" class="node">
<title>&#45;7</title>
<polygon fill="lightgray" stroke="black" points="778,-86.53 752,-86.53 752,-68.53 778,-68.53 778,-86.53"/>
<text text-anchor="middle" x="765" y="-75.33" font-family="Times,serif" font-size="9.00">&#45;7</text>
</g>
<!-- &#45;8 -->
<g id="node8" class="node">
<title>&#45;8</title>
<polygon fill="lightgray" stroke="black" points="534,-86.53 508,-86.53 508,-68.53 534,-68.53 534,-86.53"/>
<text text-anchor="middle" x="521" y="-75.33" font-family="Times,serif" font-size="9.00">&#45;8</text>
</g>
<!-- &#45;8&#45;&gt;3 -->
<g id="edge6" class="edge">
<title>&#45;8&#45;&gt;3</title>
<path fill="none" stroke="red" stroke-width="0.21" d="M521,-68.29C521,-61.7 521,-52.1 521,-43"/>
<polygon fill="red" stroke="red" stroke-width="0.21" points="524.5,-42.76 521,-32.76 517.5,-42.76 524.5,-42.76"/>
</g>
<!-- &#45;9 -->
<g id="node9" class="node">
<title>&#45;9</title>
<polygon fill="lightgray" stroke="black" points="114,-86.53 88,-86.53 88,-68.53 114,-68.53 114,-86.53"/>
<text text-anchor="middle" x="101" y="-75.33" font-family="Times,serif" font-size="9.00">&#45;9</text>
</g>
<!-- &#45;9&#45;&gt;2 -->
<g id="edge4" class="edge">
<title>&#45;9&#45;&gt;2</title>
<path fill="none" stroke="red" stroke-width="0.12" d="M107.54,-68.29C113.82,-60.36 123.58,-48.05 131.94,-37.51"/>
<polygon fill="red" stroke="red" stroke-width="0.12" points="134.78,-39.56 138.25,-29.55 129.3,-35.21 134.78,-39.56"/>
</g>
<!-- &#45;10 -->
<g id="node10" class="node">
<title>&#45;10</title>
<polygon fill="lightgray" stroke="black" points="164,-86.53 132,-86.53 132,-68.53 164,-68.53 164,-86.53"/>
<text text-anchor="middle" x="148" y="-75.33" font-family="Times,serif" font-size="9.00">&#45;10</text>
</g>
<!-- &#45;10&#45;&gt;2 -->
<g id="edge10" class="edge">
<title>&#45;10&#45;&gt;2</title>
<path fill="none" stroke="green" stroke-width="0.14" d="M148,-68.29C148,-61.7 148,-52.1 148,-43"/>
<polygon fill="green" stroke="green" stroke-width="0.14" points="151.5,-42.76 148,-32.76 144.5,-42.76 151.5,-42.76"/>
</g>
<!-- &#45;11 -->
<g id="node11" class="node">
<title>&#45;11</title>
<polygon fill="lightgray" stroke="black" points="828,-86.53 796,-86.53 796,-68.53 828,-68.53 828,-86.53"/>
<text text-anchor="middle" x="812" y="-75.33" font-family="Times,serif" font-size="9.00">&#45;11</text>
</g>
<!-- &#45;12 -->
<g id="node12" class="node">
<title>&#45;12</title>
<polygon fill="lightgray" stroke="black" points="878,-86.53 846,-86.53 846,-68.53 878,-68.53 878,-86.53"/>
<text text-anchor="middle" x="862" y="-75.33" font-family="Times,serif" font-size="9.00">&#45;12</text>
</g>
<!-- &#45;13 -->
<g id="node13" class="node">
<title>&#45;13</title>
<polygon fill="lightgray" stroke="black" points="928,-86.53 896,-86.53 896,-68.53 928,-68.53 928,-86.53"/>
<text text-anchor="middle" x="912" y="-75.33" font-family="Times,serif" font-size="9.00">&#45;13</text>
</g>
<!-- &#45;14 -->
<g id="node14" class="node">
<title>&#45;14</title>
<polygon fill="lightgray" stroke="black" points="978,-86.53 946,-86.53 946,-68.53 978,-68.53 978,-86.53"/>
<text text-anchor="middle" x="962" y="-75.33" font-family="Times,serif" font-size="9.00">&#45;14</text>
</g>
<!-- &#45;15 -->
<g id="node15" class="node">
<title>&#45;15</title>
<polygon fill="lightgray" stroke="black" points="1028,-86.53 996,-86.53 996,-68.53 1028,-68.53 1028,-86.53"/>
<text text-anchor="middle" x="1012" y="-75.33" font-family="Times,serif" font-size="9.00">&#45;15</text>
</g>
<!-- &#45;16 -->
<g id="node16" class="node">
<title>&#45;16</title>
<polygon fill="lightgray" stroke="black" points="1078,-86.53 1046,-86.53 1046,-68.53 1078,-68.53 1078,-86.53"/>
<text text-anchor="middle" x="1062" y="-75.33" font-family="Times,serif" font-size="9.00">&#45;16</text>
</g>
<!-- &#45;17 -->
<g id="node17" class="node">
<title>&#45;17</title>
<polygon fill="lightgray" stroke="black" points="1128,-86.53 1096,-86.53 1096,-68.53 1128,-68.53 1128,-86.53"/>
<text text-anchor="middle" x="1112" y="-75.33" font-family="Times,serif" font-size="9.00">&#45;17</text>
</g>
<!-- &#45;18 -->
<g id="node18" class="node">
<title>&#45;18</title>
<polygon fill="lightgray" stroke="black" points="1178,-86.53 1146,-86.53 1146,-68.53 1178,-68.53 1178,-86.53"/>
<text text-anchor="middle" x="1162" y="-75.33" font-family="Times,serif" font-size="9.00">&#45;18</text>
</g>
<!-- &#45;19 -->
<g id="node19" class="node">
<title>&#45;19</title>
<polygon fill="lightgray" stroke="black" points="1228,-86.53 1196,-86.53 1196,-68.53 1228,-68.53 1228,-86.53"/>
<text text-anchor="middle" x="1212" y="-75.33" font-family="Times,serif" font-size="9.00">&#45;19</text>
</g>
<!-- &#45;20 -->
<g id="node20" class="node">
<title>&#45;20</title>
<polygon fill="lightgray" stroke="black" points="634,-86.53 602,-86.53 602,-68.53 634,-68.53 634,-86.53"/>
<text text-anchor="middle" x="618" y="-75.33" font-family="Times,serif" font-size="9.00">&#45;20</text>
</g>
<!-- 0 -->
<g id="node41" class="node">
<title>0</title>
<ellipse fill="lightblue" stroke="black" cx="668" cy="-16.26" rx="16.03" ry="16.03"/>
<text text-anchor="middle" x="668" y="-14.06" font-family="Times,serif" font-size="9.00">0</text>
</g>
<!-- &#45;20&#45;&gt;0 -->
<g id="edge11" class="edge">
<title>&#45;20&#45;&gt;0</title>
<path fill="none" stroke="red" stroke-width="0.34" d="M624.95,-68.29C631.79,-60.18 642.5,-47.49 651.52,-36.79"/>
<polygon fill="red" stroke="red" stroke-width="0.34" points="654.23,-39.01 658,-29.11 648.88,-34.5 654.23,-39.01"/>
</g>
<!-- 1 -->
<g id="node42" class="node">
<title>1</title>
<ellipse fill="lightblue" stroke="black" cx="604" cy="-16.26" rx="16.03" ry="16.03"/>
<text text-anchor="middle" x="604" y="-14.06" font-family="Times,serif" font-size="9.00">1</text>
</g>
<!-- &#45;20&#45;&gt;1 -->
<g id="edge13" class="edge">
<title>&#45;20&#45;&gt;1</title>
<path fill="none" stroke="red" stroke-width="0.41" d="M616.05,-68.29C614.44,-61.47 612.07,-51.41 609.85,-42.02"/>
<polygon fill="red" stroke="red" stroke-width="0.41" points="613.25,-41.21 607.55,-32.29 606.44,-42.82 613.25,-41.21"/>
</g>
<!-- &#45;21 -->
<g id="node21" class="node">
<title>&#45;21</title>
<polygon fill="lightgray" stroke="black" points="1278,-86.53 1246,-86.53 1246,-68.53 1278,-68.53 1278,-86.53"/>
<text text-anchor="middle" x="1262" y="-75.33" font-family="Times,serif" font-size="9.00">&#45;21</text>
</g>
<!-- &#45;22 -->
<g id="node22" class="node">
<title>&#45;22</title>
<polygon fill="lightgray" stroke="black" points="214,-86.53 182,-86.53 182,-68.53 214,-68.53 214,-86.53"/>
<text text-anchor="middle" x="198" y="-75.33" font-family="Times,serif" font-size="9.00">&#45;22</text>
</g>
<!-- &#45;22&#45;&gt;2 -->
<g id="edge12" class="edge">
<title>&#45;22&#45;&gt;2</title>
<path fill="none" stroke="red" stroke-width="0.13" d="M191.05,-68.29C184.21,-60.18 173.5,-47.49 164.48,-36.79"/>
<polygon fill="red" stroke="red" stroke-width="0.13" points="167.12,-34.5 158,-29.11 161.77,-39.01 167.12,-34.5"/>
</g>
<!-- &#45;23 -->
<g id="node23" class="node">
<title>&#45;23</title>
<polygon fill="lightgray" stroke="black" points="1328,-86.53 1296,-86.53 1296,-68.53 1328,-68.53 1328,-86.53"/>
<text text-anchor="middle" x="1312" y="-75.33" font-family="Times,serif" font-size="9.00">&#45;23</text>
</g>
<!-- &#45;24 -->
<g id="node24" class="node">
<title>&#45;24</title>
<polygon fill="lightgray" stroke="black" points="1378,-86.53 1346,-86.53 1346,-68.53 1378,-68.53 1378,-86.53"/>
<text text-anchor="middle" x="1362" y="-75.33" font-family="Times,serif" font-size="9.00">&#45;24</text>
</g>
<!-- &#45;25 -->
<g id="node25" class="node">
<title>&#45;25</title>
<polygon fill="lightgray" stroke="black" points="264,-86.53 232,-86.53 232,-68.53 264,-68.53 264,-86.53"/>
<text text-anchor="middle" x="248" y="-75.33" font-family="Times,serif" font-size="9.00">&#45;25</text>
</g>
<!-- &#45;25&#45;&gt;2 -->
<g id="edge3" class="edge">
<title>&#45;25&#45;&gt;2</title>
<path fill="none" stroke="green" stroke-width="0.27" d="M234.1,-68.29C217.68,-58.56 190.14,-42.24 170.63,-30.68"/>
<polygon fill="green" stroke="green" stroke-width="0.27" points="172.17,-27.52 161.79,-25.43 168.6,-33.54 172.17,-27.52"/>
</g>
<!-- &#45;26 -->
<g id="node26" class="node">
<title>&#45;26</title>
<polygon fill="lightgray" stroke="black" points="1428,-86.53 1396,-86.53 1396,-68.53 1428,-68.53 1428,-86.53"/>
<text text-anchor="middle" x="1412" y="-75.33" font-family="Times,serif" font-size="9.00">&#45;26</text>
</g>
<!-- &#45;27 -->
<g id="node27" class="node">
<title>&#45;27</title>
<polygon fill="lightgray" stroke="black" points="1478,-86.53 1446,-86.53 1446,-68.53 1478,-68.53 1478,-86.53"/>
<text text-anchor="middle" x="1462" y="-75.33" font-family="Times,serif" font-size="9.00">&#45;27</text>
</g>
<!-- &#45;28 -->
<g id="node28" class="node">
<title>&#45;28</title>
<polygon fill="lightgray" stroke="black" points="1528,-86.53 1496,-86.53 1496,-68.53 1528,-68.53 1528,-86.53"/>
<text text-anchor="middle" x="1512" y="-75.33" font-family="Times,serif" font-size="9.00">&#45;28</text>
</g>
<!-- &#45;29 -->
<g id="node29" class="node">
<title>&#45;29</title>
<polygon fill="lightgray" stroke="black" points="684,-86.53 652,-86.53 652,-68.53 684,-68.53 684,-86.53"/>
<text text-anchor="middle" x="668" y="-75.33" font-family="Times,serif" font-size="9.00">&#45;29</text>
</g>
<!-- &#45;29&#45;&gt;0 -->
<g id="edge14" class="edge">
<title>&#45;29&#45;&gt;0</title>
<path fill="none" stroke="red" stroke-width="0.11" d="M668,-68.29C668,-61.7 668,-52.1 668,-43"/>
<polygon fill="red" stroke="red" stroke-width="0.11" points="671.5,-42.76 668,-32.76 664.5,-42.76 671.5,-42.76"/>
</g>
<!-- &#45;30 -->
<g id="node30" class="node">
<title>&#45;30</title>
<polygon fill="lightgray" stroke="black" points="1578,-86.53 1546,-86.53 1546,-68.53 1578,-68.53 1578,-86.53"/>
<text text-anchor="middle" x="1562" y="-75.33" font-family="Times,serif" font-size="9.00">&#45;30</text>
</g>
<!-- &#45;31 -->
<g id="node31" class="node">
<title>&#45;31</title>
<polygon fill="lightgray" stroke="black" points="1628,-86.53 1596,-86.53 1596,-68.53 1628,-68.53 1628,-86.53"/>
<text text-anchor="middle" x="1612" y="-75.33" font-family="Times,serif" font-size="9.00">&#45;31</text>
</g>
<!-- &#45;32 -->
<g id="node32" class="node">
<title>&#45;32</title>
<polygon fill="lightgray" stroke="black" points="1678,-86.53 1646,-86.53 1646,-68.53 1678,-68.53 1678,-86.53"/>
<text text-anchor="middle" x="1662" y="-75.33" font-family="Times,serif" font-size="9.00">&#45;32</text>
</g>
<!-- &#45;33 -->
<g id="node33" class="node">
<title>&#45;33</title>
<polygon fill="lightgray" stroke="black" points="1728,-86.53 1696,-86.53 1696,-68.53 1728,-68.53 1728,-86.53"/>
<text text-anchor="middle" x="1712" y="-75.33" font-family="Times,serif" font-size="9.00">&#45;33</text>
</g>
<!-- &#45;34 -->
<g id="node34" class="node">
<title>&#45;34</title>
<polygon fill="lightgray" stroke="black" points="1778,-86.53 1746,-86.53 1746,-68.53 1778,-68.53 1778,-86.53"/>
<text text-anchor="middle" x="1762" y="-75.33" font-family="Times,serif" font-size="9.00">&#45;34</text>
</g>
<!-- &#45;35 -->
<g id="node35" class="node">
<title>&#45;35</title>
<polygon fill="lightgray" stroke="black" points="314,-86.53 282,-86.53 282,-68.53 314,-68.53 314,-86.53"/>
<text text-anchor="middle" x="298" y="-75.33" font-family="Times,serif" font-size="9.00">&#45;35</text>
</g>
<!-- &#45;35&#45;&gt;2 -->
<g id="edge8" class="edge">
<title>&#45;35&#45;&gt;2</title>
<path fill="none" stroke="green" stroke-width="0.38" d="M281.95,-70.18C255.74,-59.83 203.58,-39.22 172.65,-27"/>
<polygon fill="green" stroke="green" stroke-width="0.38" points="173.63,-23.63 163.04,-23.21 171.06,-30.14 173.63,-23.63"/>
</g>
<!-- &#45;36 -->
<g id="node36" class="node">
<title>&#45;36</title>
<polygon fill="lightgray" stroke="black" points="584,-86.53 552,-86.53 552,-68.53 584,-68.53 584,-86.53"/>
<text text-anchor="middle" x="568" y="-75.33" font-family="Times,serif" font-size="9.00">&#45;36</text>
</g>
<!-- &#45;36&#45;&gt;1 -->
<g id="edge1" class="edge">
<title>&#45;36&#45;&gt;1</title>
<path fill="none" stroke="green" stroke-width="0.12" d="M573.01,-68.29C577.56,-60.79 584.5,-49.37 590.65,-39.24"/>
<polygon fill="green" stroke="green" stroke-width="0.12" points="593.79,-40.81 595.99,-30.44 587.81,-37.17 593.79,-40.81"/>
</g>
<!-- &#45;36&#45;&gt;3 -->
<g id="edge15" class="edge">
<title>&#45;36&#45;&gt;3</title>
<path fill="none" stroke="green" stroke-width="0.3" d="M561.46,-68.29C555.18,-60.36 545.42,-48.05 537.06,-37.51"/>
<polygon fill="green" stroke="green" stroke-width="0.3" points="539.7,-35.21 530.75,-29.55 534.22,-39.56 539.7,-35.21"/>
</g>
<!-- &#45;37 -->
<g id="node37" class="node">
<title>&#45;37</title>
<polygon fill="lightgray" stroke="black" points="1828,-86.53 1796,-86.53 1796,-68.53 1828,-68.53 1828,-86.53"/>
<text text-anchor="middle" x="1812" y="-75.33" font-family="Times,serif" font-size="9.00">&#45;37</text>
</g>
<!-- &#45;38 -->
<g id="node38" class="node">
<title>&#45;38</title>
<polygon fill="lightgray" stroke="black" points="734,-86.53 702,-86.53 702,-68.53 734,-68.53 734,-86.53"/>
<text text-anchor="middle" x="718" y="-75.33" font-family="Times,serif" font-size="9.00">&#45;38</text>
</g>
<!-- &#45;38&#45;&gt;0 -->
<g id="edge16" class="edge">
<title>&#45;38&#45;&gt;0</title>
<path fill="none" stroke="red" stroke-width="0.45" d="M711.05,-68.29C704.21,-60.18 693.5,-47.49 684.48,-36.79"/>
<polygon fill="red" stroke="red" stroke-width="0.45" points="687.12,-34.5 678,-29.11 681.77,-39.01 687.12,-34.5"/>
</g>
<!-- &#45;39 -->
<g id="node39" class="node">
<title>&#45;39</title>
<polygon fill="lightgray" stroke="black" points="1878,-86.53 1846,-86.53 1846,-68.53 1878,-68.53 1878,-86.53"/>
<text text-anchor="middle" x="1862" y="-75.33" font-family="Times,serif" font-size="9.00">&#45;39</text>
</g>
<!-- &#45;40 -->
<g id="node40" class="node">
<title>&#45;40</title>
<polygon fill="lightgray" stroke="black" points="1928,-86.53 1896,-86.53 1896,-68.53 1928,-68.53 1928,-86.53"/>
<text text-anchor="middle" x="1912" y="-75.33" font-family="Times,serif" font-size="9.00">&#45;40</text>
</g>
<!-- 3&#45;&gt;3 -->
<g id="edge7" class="edge">
<title>3&#45;&gt;3</title>
<path fill="none" stroke="red" stroke-width="0.2" d="M534.36,-26.06C544.71,-29.72 555.26,-26.46 555.26,-16.26 555.26,-9.57 550.72,-5.87 544.67,-5.14"/>
<polygon fill="red" stroke="red" stroke-width="0.2" points="543.84,-1.72 534.36,-6.47 544.73,-8.67 543.84,-1.72"/>
</g>
</g>
</svg>
