<?xml version="1.0" encoding="UTF-8" standalone="no"?>
<!DOCTYPE svg PUBLIC "-//W3C//DTD SVG 1.1//EN"
 "http://www.w3.org/Graphics/SVG/1.1/DTD/svg11.dtd">
<!-- Generated by graphviz version 2.43.0 (0)
 -->
<!-- Title: %3 Pages: 1 -->
<svg width="1896pt" height="180pt"
 viewBox="0.00 0.00 1896.00 180.02" xmlns="http://www.w3.org/2000/svg" xmlns:xlink="http://www.w3.org/1999/xlink">
<g id="graph0" class="graph" transform="scale(1 1) rotate(0) translate(4 176.02)">
<title>%3</title>
<polygon fill="white" stroke="transparent" points="-4,4 -4,-176.02 1892,-176.02 1892,4 -4,4"/>
<!-- &#45;1 -->
<g id="node1" class="node">
<title>&#45;1</title>
<polygon fill="lightgray" stroke="black" points="418,-102.28 392,-102.28 392,-84.28 418,-84.28 418,-102.28"/>
<text text-anchor="middle" x="405" y="-91.08" font-family="Times,serif" font-size="9.00">&#45;1</text>
</g>
<!-- 0 -->
<g id="node41" class="node">
<title>0</title>
<ellipse fill="lightblue" stroke="black" cx="921" cy="-16.26" rx="16.03" ry="16.03"/>
<text text-anchor="middle" x="921" y="-14.06" font-family="Times,serif" font-size="9.00">0</text>
</g>
<!-- &#45;1&#45;&gt;0 -->
<g id="edge71" class="edge">
<title>&#45;1&#45;&gt;0</title>
<path fill="none" stroke="green" stroke-width="0.17" d="M410.12,-84.23C414.04,-78.82 419.96,-72.04 427,-68.53 510.2,-26.94 804.04,-19.04 894.38,-17.58"/>
<polygon fill="green" stroke="green" stroke-width="0.17" points="894.64,-21.08 904.59,-17.43 894.54,-14.08 894.64,-21.08"/>
</g>
<!-- 2 -->
<g id="node43" class="node">
<title>2</title>
<ellipse fill="lightblue" stroke="black" cx="527" cy="-16.26" rx="16.03" ry="16.03"/>
<text text-anchor="middle" x="527" y="-14.06" font-family="Times,serif" font-size="9.00">2</text>
</g>
<!-- &#45;1&#45;&gt;2 -->
<g id="edge28" class="edge">
<title>&#45;1&#45;&gt;2</title>
<path fill="none" stroke="green" stroke-width="0.19" d="M411.32,-84.11C415.42,-79.18 421.09,-73.01 427,-68.53 450.62,-50.62 481.43,-35.91 502.57,-26.91"/>
<polygon fill="green" stroke="green" stroke-width="0.19" points="503.93,-30.14 511.82,-23.08 501.25,-23.67 503.93,-30.14"/>
</g>
<!-- &#45;2 -->
<g id="node2" class="node">
<title>&#45;2</title>
<polygon fill="lightgray" stroke="black" points="186,-102.28 160,-102.28 160,-84.28 186,-84.28 186,-102.28"/>
<text text-anchor="middle" x="173" y="-91.08" font-family="Times,serif" font-size="9.00">&#45;2</text>
</g>
<!-- &#45;2&#45;&gt;2 -->
<g id="edge32" class="edge">
<title>&#45;2&#45;&gt;2</title>
<path fill="none" stroke="red" stroke-width="0.2" d="M178.52,-83.88C182.46,-78.59 188.25,-72.11 195,-68.53 248.17,-40.28 431.51,-24.25 500.48,-19.11"/>
<polygon fill="red" stroke="red" stroke-width="0.2" points="500.81,-22.59 510.53,-18.37 500.3,-15.61 500.81,-22.59"/>
</g>
<!-- &#45;3 -->
<g id="node3" class="node">
<title>&#45;3</title>
<polygon fill="lightgray" stroke="black" points="1050,-102.28 1024,-102.28 1024,-84.28 1050,-84.28 1050,-102.28"/>
<text text-anchor="middle" x="1037" y="-91.08" font-family="Times,serif" font-size="9.00">&#45;3</text>
</g>
<!-- 1 -->
<g id="node42" class="node">
<title>1</title>
<ellipse fill="lightblue" stroke="black" cx="1328" cy="-16.26" rx="16.03" ry="16.03"/>
<text text-anchor="middle" x="1328" y="-14.06" font-family="Times,serif" font-size="9.00">1</text>
</g>
<!-- &#45;3&#45;&gt;1 -->
<g id="edge67" class="edge">
<title>&#45;3&#45;&gt;1</title>
<path fill="none" stroke="green" stroke-width="0.15" d="M1042.56,-83.95C1046.52,-78.7 1052.31,-72.23 1059,-68.53 1080.23,-56.77 1238.72,-31.15 1302.01,-21.27"/>
<polygon fill="green" stroke="green" stroke-width="0.15" points="1302.65,-24.71 1311.99,-19.72 1301.58,-17.79 1302.65,-24.71"/>
</g>
<!-- &#45;3&#45;&gt;2 -->
<g id="edge46" class="edge">
<title>&#45;3&#45;&gt;2</title>
<path fill="none" stroke="red" stroke-width="0.25" d="M1031.88,-84.24C1027.96,-78.82 1022.04,-72.05 1015,-68.53 932.92,-27.43 643.19,-19.2 553.6,-17.62"/>
<polygon fill="red" stroke="red" stroke-width="0.25" points="553.52,-14.12 543.46,-17.46 553.41,-21.12 553.52,-14.12"/>
</g>
<!-- 3 -->
<g id="node44" class="node">
<title>3</title>
<ellipse fill="lightblue" stroke="black" cx="1203" cy="-16.26" rx="16.03" ry="16.03"/>
<text text-anchor="middle" x="1203" y="-14.06" font-family="Times,serif" font-size="9.00">3</text>
</g>
<!-- &#45;3&#45;&gt;3 -->
<g id="edge12" class="edge">
<title>&#45;3&#45;&gt;3</title>
<path fill="none" stroke="green" stroke-width="0.91" stroke-dasharray="1,5" d="M1043.12,-83.83C1047.15,-78.8 1052.81,-72.61 1059,-68.53 1096.3,-43.94 1146.8,-29.52 1177.02,-22.53"/>
<polygon fill="green" stroke="green" stroke-width="0.91" points="1178.17,-25.86 1187.18,-20.29 1176.66,-19.03 1178.17,-25.86"/>
</g>
<!-- &#45;4 -->
<g id="node4" class="node">
<title>&#45;4</title>
<polygon fill="lightgray" stroke="black" points="230,-102.28 204,-102.28 204,-84.28 230,-84.28 230,-102.28"/>
<text text-anchor="middle" x="217" y="-91.08" font-family="Times,serif" font-size="9.00">&#45;4</text>
</g>
<!-- &#45;4&#45;&gt;2 -->
<g id="edge4" class="edge">
<title>&#45;4&#45;&gt;2</title>
<path fill="none" stroke="green" stroke-width="0.15" stroke-dasharray="1,5" d="M222.55,-83.93C226.5,-78.66 232.29,-72.19 239,-68.53 325.76,-21.14 447.09,-16.18 500.26,-16.52"/>
<polygon fill="green" stroke="green" stroke-width="0.15" points="500.49,-20.02 510.53,-16.66 500.58,-13.02 500.49,-20.02"/>
</g>
<!-- &#45;5 -->
<g id="node5" class="node">
<title>&#45;5</title>
<polygon fill="lightgray" stroke="black" points="912,-102.28 886,-102.28 886,-84.28 912,-84.28 912,-102.28"/>
<text text-anchor="middle" x="899" y="-91.08" font-family="Times,serif" font-size="9.00">&#45;5</text>
</g>
<!-- &#45;5&#45;&gt;0 -->
<g id="edge18" class="edge">
<title>&#45;5&#45;&gt;0</title>
<path fill="none" stroke="green" stroke-width="0.26" stroke-dasharray="1,5" d="M901.35,-84.25C904.28,-74.27 909.41,-56.78 913.69,-42.17"/>
<polygon fill="green" stroke="green" stroke-width="0.26" points="917.16,-42.78 916.62,-32.2 910.45,-40.81 917.16,-42.78"/>
</g>
<!-- &#45;5&#45;&gt;1 -->
<g id="edge61" class="edge">
<title>&#45;5&#45;&gt;1</title>
<path fill="none" stroke="red" stroke-width="1.59" d="M904.14,-84.26C908.06,-78.86 913.99,-72.09 921,-68.53 1043.47,-6.29 1091.85,-50.89 1228,-32.53 1253.23,-29.12 1281.95,-24.68 1302.11,-21.47"/>
<polygon fill="red" stroke="red" stroke-width="1.59" points="1302.77,-24.91 1312.09,-19.87 1301.66,-17.99 1302.77,-24.91"/>
</g>
<!-- &#45;5&#45;&gt;2 -->
<g id="edge73" class="edge">
<title>&#45;5&#45;&gt;2</title>
<path fill="none" stroke="red" stroke-width="0.19" stroke-dasharray="1,5" d="M893.49,-83.86C889.55,-78.57 883.76,-72.09 877,-68.53 820.53,-38.8 625.07,-23.55 553.51,-18.87"/>
<polygon fill="red" stroke="red" stroke-width="0.19" points="553.71,-15.37 543.51,-18.23 553.27,-22.36 553.71,-15.37"/>
</g>
<!-- &#45;5&#45;&gt;3 -->
<g id="edge21" class="edge">
<title>&#45;5&#45;&gt;3</title>
<path fill="none" stroke="red" stroke-width="0.14" d="M904.55,-83.94C908.51,-78.68 914.3,-72.2 921,-68.53 1005.72,-22.06 1124.17,-16.59 1176.43,-16.66"/>
<polygon fill="red" stroke="red" stroke-width="0.14" points="1176.52,-20.16 1186.55,-16.74 1176.58,-13.16 1176.52,-20.16"/>
</g>
<!-- &#45;6 -->
<g id="node6" class="node">
<title>&#45;6</title>
<polygon fill="lightgray" stroke="black" points="1144,-102.28 1118,-102.28 1118,-84.28 1144,-84.28 1144,-102.28"/>
<text text-anchor="middle" x="1131" y="-91.08" font-family="Times,serif" font-size="9.00">&#45;6</text>
</g>
<!-- &#45;6&#45;&gt;0 -->
<g id="edge3" class="edge">
<title>&#45;6&#45;&gt;0</title>
<path fill="none" stroke="red" stroke-width="0.27" d="M1125.34,-84.12C1121.34,-78.94 1115.54,-72.49 1109,-68.53 1057.13,-37.09 985.69,-24.54 947.55,-19.84"/>
<polygon fill="red" stroke="red" stroke-width="0.27" points="947.6,-16.33 937.27,-18.67 946.81,-23.28 947.6,-16.33"/>
</g>
<!-- &#45;6&#45;&gt;1 -->
<g id="edge37" class="edge">
<title>&#45;6&#45;&gt;1</title>
<path fill="none" stroke="green" stroke-width="0.32" stroke-dasharray="1,5" d="M1136.69,-84.16C1140.7,-79 1146.5,-72.55 1153,-68.53 1200.57,-39.08 1265.86,-25.86 1301.73,-20.5"/>
<polygon fill="green" stroke="green" stroke-width="0.32" points="1302.45,-23.93 1311.87,-19.07 1301.48,-17 1302.45,-23.93"/>
</g>
<!-- &#45;6&#45;&gt;3 -->
<g id="edge7" class="edge">
<title>&#45;6&#45;&gt;3</title>
<path fill="none" stroke="green" stroke-width="0.35" stroke-dasharray="1,5" d="M1138.69,-83.87C1142.89,-79.31 1148.2,-73.58 1153,-68.53 1163.41,-57.58 1175.2,-45.47 1184.72,-35.78"/>
<polygon fill="green" stroke="green" stroke-width="0.35" points="1187.28,-38.17 1191.79,-28.58 1182.29,-33.26 1187.28,-38.17"/>
</g>
<!-- &#45;7 -->
<g id="node7" class="node">
<title>&#45;7</title>
<polygon fill="lightgray" stroke="black" points="274,-102.28 248,-102.28 248,-84.28 274,-84.28 274,-102.28"/>
<text text-anchor="middle" x="261" y="-91.08" font-family="Times,serif" font-size="9.00">&#45;7</text>
</g>
<!-- &#45;7&#45;&gt;2 -->
<g id="edge34" class="edge">
<title>&#45;7&#45;&gt;2</title>
<path fill="none" stroke="red" stroke-width="0.3" d="M266.59,-84C270.56,-78.76 276.35,-72.29 283,-68.53 354.31,-28.14 453.59,-19.45 500.48,-17.67"/>
<polygon fill="red" stroke="red" stroke-width="0.3" points="500.81,-21.16 510.7,-17.36 500.6,-14.16 500.81,-21.16"/>
</g>
<!-- &#45;8 -->
<g id="node8" class="node">
<title>&#45;8</title>
<polygon fill="lightgray" stroke="black" points="956,-102.28 930,-102.28 930,-84.28 956,-84.28 956,-102.28"/>
<text text-anchor="middle" x="943" y="-91.08" font-family="Times,serif" font-size="9.00">&#45;8</text>
</g>
<!-- &#45;8&#45;&gt;0 -->
<g id="edge14" class="edge">
<title>&#45;8&#45;&gt;0</title>
<path fill="none" stroke="green" stroke-width="0.18" stroke-dasharray="1,5" d="M940.65,-84.25C937.72,-74.27 932.59,-56.78 928.31,-42.17"/>
<polygon fill="green" stroke="green" stroke-width="0.18" points="931.55,-40.81 925.38,-32.2 924.84,-42.78 931.55,-40.81"/>
</g>
<!-- &#45;8&#45;&gt;3 -->
<g id="edge70" class="edge">
<title>&#45;8&#45;&gt;3</title>
<path fill="none" stroke="green" stroke-width="1.45" d="M948.59,-84.01C952.56,-78.78 958.36,-72.31 965,-68.53 1034.19,-29.11 1130.44,-19.94 1176.45,-17.85"/>
<polygon fill="green" stroke="green" stroke-width="1.45" points="1176.64,-21.35 1186.51,-17.47 1176.38,-14.35 1176.64,-21.35"/>
</g>
<!-- &#45;9 -->
<g id="node9" class="node">
<title>&#45;9</title>
<polygon fill="lightgray" stroke="black" points="1638,-102.28 1612,-102.28 1612,-84.28 1638,-84.28 1638,-102.28"/>
<text text-anchor="middle" x="1625" y="-91.08" font-family="Times,serif" font-size="9.00">&#45;9</text>
</g>
<!-- &#45;9&#45;&gt;3 -->
<g id="edge19" class="edge">
<title>&#45;9&#45;&gt;3</title>
<path fill="none" stroke="green" stroke-width="0.53" d="M1619.86,-84.27C1615.93,-78.87 1610.01,-72.1 1603,-68.53 1483.36,-7.53 1436.06,-50.66 1303,-32.53 1277.78,-29.09 1249.06,-24.65 1228.89,-21.45"/>
<polygon fill="green" stroke="green" stroke-width="0.53" points="1229.34,-17.98 1218.91,-19.85 1228.23,-24.89 1229.34,-17.98"/>
</g>
<!-- &#45;10 -->
<g id="node10" class="node">
<title>&#45;10</title>
<polygon fill="lightgray" stroke="black" points="468,-102.28 436,-102.28 436,-84.28 468,-84.28 468,-102.28"/>
<text text-anchor="middle" x="452" y="-91.08" font-family="Times,serif" font-size="9.00">&#45;10</text>
</g>
<!-- &#45;10&#45;&gt;0 -->
<g id="edge6" class="edge">
<title>&#45;10&#45;&gt;0</title>
<path fill="none" stroke="red" stroke-width="0.4" d="M458.07,-84.25C462.64,-78.85 469.41,-72.08 477,-68.53 552.01,-33.46 810.53,-21.23 894.46,-18.14"/>
<polygon fill="red" stroke="red" stroke-width="0.4" points="894.81,-21.63 904.68,-17.77 894.56,-14.63 894.81,-21.63"/>
</g>
<!-- &#45;10&#45;&gt;2 -->
<g id="edge44" class="edge">
<title>&#45;10&#45;&gt;2</title>
<path fill="none" stroke="red" stroke-width="0.12" d="M460.03,-84.25C471.59,-72.69 493.24,-51.02 508.81,-35.46"/>
<polygon fill="red" stroke="red" stroke-width="0.12" points="511.29,-37.93 515.88,-28.38 506.34,-32.98 511.29,-37.93"/>
</g>
<!-- &#45;11 -->
<g id="node11" class="node">
<title>&#45;11</title>
<polygon fill="lightgray" stroke="black" points="1788,-102.28 1756,-102.28 1756,-84.28 1788,-84.28 1788,-102.28"/>
<text text-anchor="middle" x="1772" y="-91.08" font-family="Times,serif" font-size="9.00">&#45;11</text>
</g>
<!-- &#45;11&#45;&gt;1 -->
<g id="edge9" class="edge">
<title>&#45;11&#45;&gt;1</title>
<path fill="none" stroke="green" stroke-width="0.17" stroke-dasharray="1,5" d="M1765.92,-84.27C1761.35,-78.87 1754.58,-72.1 1747,-68.53 1676.73,-35.38 1435.44,-21.98 1354.62,-18.35"/>
<polygon fill="green" stroke="green" stroke-width="0.17" points="1354.46,-14.84 1344.32,-17.9 1354.15,-21.83 1354.46,-14.84"/>
</g>
<!-- &#45;12 -->
<g id="node12" class="node">
<title>&#45;12</title>
<polygon fill="lightgray" stroke="black" points="1006,-102.28 974,-102.28 974,-84.28 1006,-84.28 1006,-102.28"/>
<text text-anchor="middle" x="990" y="-91.08" font-family="Times,serif" font-size="9.00">&#45;12</text>
</g>
<!-- &#45;12&#45;&gt;0 -->
<g id="edge74" class="edge">
<title>&#45;12&#45;&gt;0</title>
<path fill="none" stroke="green" stroke-width="0.29" stroke-dasharray="1,5" d="M982.62,-84.25C972.19,-72.92 952.86,-51.9 938.61,-36.41"/>
<polygon fill="green" stroke="green" stroke-width="0.29" points="941.05,-33.89 931.71,-28.9 935.9,-38.63 941.05,-33.89"/>
</g>
<!-- &#45;12&#45;&gt;3 -->
<g id="edge65" class="edge">
<title>&#45;12&#45;&gt;3</title>
<path fill="none" stroke="green" stroke-width="0.25" d="M996.65,-84.15C1001.29,-78.98 1007.91,-72.52 1015,-68.53 1067.85,-38.76 1138.89,-25.54 1176.72,-20.29"/>
<polygon fill="green" stroke="green" stroke-width="0.25" points="1177.44,-23.73 1186.9,-18.97 1176.53,-16.79 1177.44,-23.73"/>
</g>
<!-- &#45;13 -->
<g id="node13" class="node">
<title>&#45;13</title>
<polygon fill="lightgray" stroke="black" points="1194,-102.28 1162,-102.28 1162,-84.28 1194,-84.28 1194,-102.28"/>
<text text-anchor="middle" x="1178" y="-91.08" font-family="Times,serif" font-size="9.00">&#45;13</text>
</g>
<!-- &#45;13&#45;&gt;0 -->
<g id="edge49" class="edge">
<title>&#45;13&#45;&gt;0</title>
<path fill="none" stroke="red" stroke-width="0.39" d="M1171.41,-84.03C1166.8,-78.81 1160.19,-72.35 1153,-68.53 1084.69,-32.22 991.96,-21.59 947.25,-18.51"/>
<polygon fill="red" stroke="red" stroke-width="0.39" points="947.4,-15.01 937.21,-17.89 946.97,-22 947.4,-15.01"/>
</g>
<!-- &#45;13&#45;&gt;1 -->
<g id="edge52" class="edge">
<title>&#45;13&#45;&gt;1</title>
<path fill="none" stroke="red" stroke-width="0.21" d="M1185.25,-83.98C1189.93,-79 1196.37,-72.82 1203,-68.53 1234.98,-47.82 1276.71,-32.75 1302.93,-24.5"/>
<polygon fill="red" stroke="red" stroke-width="0.21" points="1303.96,-27.85 1312.5,-21.58 1301.91,-21.16 1303.96,-27.85"/>
</g>
<!-- &#45;13&#45;&gt;3 -->
<g id="edge13" class="edge">
<title>&#45;13&#45;&gt;3</title>
<path fill="none" stroke="red" stroke-width="0.13" stroke-dasharray="1,5" d="M1180.68,-84.25C1184.05,-74.11 1190.02,-56.22 1194.93,-41.48"/>
<polygon fill="red" stroke="red" stroke-width="0.13" points="1198.28,-42.5 1198.12,-31.91 1191.64,-40.29 1198.28,-42.5"/>
</g>
<!-- &#45;14 -->
<g id="node14" class="node">
<title>&#45;14</title>
<polygon fill="lightgray" stroke="black" points="324,-102.28 292,-102.28 292,-84.28 324,-84.28 324,-102.28"/>
<text text-anchor="middle" x="308" y="-91.08" font-family="Times,serif" font-size="9.00">&#45;14</text>
</g>
<!-- &#45;14&#45;&gt;0 -->
<g id="edge72" class="edge">
<title>&#45;14&#45;&gt;0</title>
<path fill="none" stroke="green" stroke-width="0.13" stroke-dasharray="1,5" d="M314.04,-84.19C318.6,-78.75 325.36,-71.97 333,-68.53 384.71,-45.23 786.76,-23.89 894.51,-18.54"/>
<polygon fill="green" stroke="green" stroke-width="0.13" points="894.73,-22.04 904.54,-18.05 894.38,-15.05 894.73,-22.04"/>
</g>
<!-- &#45;14&#45;&gt;2 -->
<g id="edge11" class="edge">
<title>&#45;14&#45;&gt;2</title>
<path fill="none" stroke="green" stroke-width="0.26" d="M314.64,-84.13C319.28,-78.95 325.89,-72.49 333,-68.53 388.06,-37.8 462.23,-24.9 500.97,-19.97"/>
<polygon fill="green" stroke="green" stroke-width="0.26" points="501.4,-23.45 510.91,-18.79 500.57,-16.5 501.4,-23.45"/>
</g>
<!-- &#45;15 -->
<g id="node15" class="node">
<title>&#45;15</title>
<polygon fill="lightgray" stroke="black" points="1100,-102.28 1068,-102.28 1068,-84.28 1100,-84.28 1100,-102.28"/>
<text text-anchor="middle" x="1084" y="-91.08" font-family="Times,serif" font-size="9.00">&#45;15</text>
</g>
<!-- &#45;15&#45;&gt;1 -->
<g id="edge56" class="edge">
<title>&#45;15&#45;&gt;1</title>
<path fill="none" stroke="red" stroke-width="0.2" d="M1090.61,-84.06C1095.23,-78.85 1101.84,-72.39 1109,-68.53 1142.38,-50.52 1251.19,-30.32 1301.74,-21.63"/>
<polygon fill="red" stroke="red" stroke-width="0.2" points="1302.61,-25.03 1311.88,-19.91 1301.43,-18.13 1302.61,-25.03"/>
</g>
<!-- &#45;15&#45;&gt;2 -->
<g id="edge45" class="edge">
<title>&#45;15&#45;&gt;2</title>
<path fill="none" stroke="red" stroke-width="0.36" d="M1077.95,-84.21C1073.39,-78.78 1066.63,-72 1059,-68.53 967.24,-26.67 647.68,-18.94 553.39,-17.55"/>
<polygon fill="red" stroke="red" stroke-width="0.36" points="553.32,-14.05 543.28,-17.42 553.23,-21.05 553.32,-14.05"/>
</g>
<!-- &#45;15&#45;&gt;3 -->
<g id="edge68" class="edge">
<title>&#45;15&#45;&gt;3</title>
<path fill="none" stroke="red" stroke-width="0.63" stroke-dasharray="1,5" d="M1091.42,-84.23C1096.17,-79.35 1102.61,-73.18 1109,-68.53 1131.37,-52.24 1159.5,-37.56 1179.14,-28.13"/>
<polygon fill="red" stroke="red" stroke-width="0.63" points="1180.74,-31.24 1188.29,-23.81 1177.75,-24.91 1180.74,-31.24"/>
</g>
<!-- &#45;16 -->
<g id="node16" class="node">
<title>&#45;16</title>
<polygon fill="lightgray" stroke="black" points="1838,-102.28 1806,-102.28 1806,-84.28 1838,-84.28 1838,-102.28"/>
<text text-anchor="middle" x="1822" y="-91.08" font-family="Times,serif" font-size="9.00">&#45;16</text>
</g>
<!-- &#45;16&#45;&gt;1 -->
<g id="edge66" class="edge">
<title>&#45;16&#45;&gt;1</title>
<path fill="none" stroke="green" stroke-width="0.38" stroke-dasharray="1,5" d="M1815.94,-84.24C1811.37,-78.83 1804.6,-72.05 1797,-68.53 1717.19,-31.51 1441.09,-20.52 1354.32,-17.94"/>
<polygon fill="green" stroke="green" stroke-width="0.38" points="1354.35,-14.44 1344.25,-17.66 1354.15,-21.44 1354.35,-14.44"/>
</g>
<!-- &#45;17 -->
<g id="node17" class="node">
<title>&#45;17</title>
<polygon fill="lightgray" stroke="black" points="818,-102.28 786,-102.28 786,-84.28 818,-84.28 818,-102.28"/>
<text text-anchor="middle" x="802" y="-91.08" font-family="Times,serif" font-size="9.00">&#45;17</text>
</g>
<!-- &#45;17&#45;&gt;0 -->
<g id="edge23" class="edge">
<title>&#45;17&#45;&gt;0</title>
<path fill="none" stroke="red" stroke-width="0.14" d="M809.42,-84.23C814.17,-79.35 820.61,-73.18 827,-68.53 849.37,-52.24 877.5,-37.56 897.14,-28.13"/>
<polygon fill="red" stroke="red" stroke-width="0.14" points="898.74,-31.24 906.29,-23.81 895.75,-24.91 898.74,-31.24"/>
</g>
<!-- &#45;17&#45;&gt;1 -->
<g id="edge57" class="edge">
<title>&#45;17&#45;&gt;1</title>
<path fill="none" stroke="red" stroke-width="0.59" stroke-dasharray="1,5" d="M808.04,-84.19C812.6,-78.76 819.36,-71.98 827,-68.53 908.52,-31.67 1139.18,-43.28 1228,-32.53 1253.27,-29.47 1281.98,-24.98 1302.14,-21.66"/>
<polygon fill="red" stroke="red" stroke-width="0.59" points="1302.82,-25.1 1312.11,-20 1301.67,-18.19 1302.82,-25.1"/>
</g>
<!-- &#45;17&#45;&gt;2 -->
<g id="edge30" class="edge">
<title>&#45;17&#45;&gt;2</title>
<path fill="none" stroke="green" stroke-width="0.3" stroke-dasharray="1,5" d="M795.43,-84C790.82,-78.76 784.22,-72.29 777,-68.53 702.3,-29.54 600.61,-20.19 553.26,-17.96"/>
<polygon fill="green" stroke="green" stroke-width="0.3" points="553.36,-14.46 543.23,-17.55 553.08,-21.45 553.36,-14.46"/>
</g>
<!-- &#45;18 -->
<g id="node18" class="node">
<title>&#45;18</title>
<polygon fill="lightgray" stroke="black" points="668,-102.28 636,-102.28 636,-84.28 668,-84.28 668,-102.28"/>
<text text-anchor="middle" x="652" y="-91.08" font-family="Times,serif" font-size="9.00">&#45;18</text>
</g>
<!-- &#45;18&#45;&gt;2 -->
<g id="edge39" class="edge">
<title>&#45;18&#45;&gt;2</title>
<path fill="none" stroke="red" stroke-width="0.68" stroke-dasharray="1,5" d="M644.62,-84.17C639.89,-79.27 633.45,-73.1 627,-68.53 602.93,-51.46 572.39,-36.67 551.44,-27.42"/>
<polygon fill="red" stroke="red" stroke-width="0.68" points="552.56,-24.09 541.99,-23.34 549.78,-30.51 552.56,-24.09"/>
</g>
<!-- &#45;18&#45;&gt;3 -->
<g id="edge80" class="edge">
<title>&#45;18&#45;&gt;3</title>
<path fill="none" stroke="red" stroke-width="0.45" d="M658.05,-84.21C662.61,-78.79 669.38,-72.01 677,-68.53 722.75,-47.63 1076.05,-24.92 1176.46,-18.84"/>
<polygon fill="red" stroke="red" stroke-width="0.45" points="1176.89,-22.32 1186.66,-18.22 1176.47,-15.33 1176.89,-22.32"/>
</g>
<!-- &#45;19 -->
<g id="node19" class="node">
<title>&#45;19</title>
<polygon fill="lightgray" stroke="black" points="1244,-102.28 1212,-102.28 1212,-84.28 1244,-84.28 1244,-102.28"/>
<text text-anchor="middle" x="1228" y="-91.08" font-family="Times,serif" font-size="9.00">&#45;19</text>
</g>
<!-- &#45;19&#45;&gt;0 -->
<g id="edge33" class="edge">
<title>&#45;19&#45;&gt;0</title>
<path fill="none" stroke="green" stroke-width="0.23" d="M1221.46,-83.94C1216.86,-78.68 1210.26,-72.21 1203,-68.53 1116.84,-24.78 999.13,-17.91 947.31,-17.14"/>
<polygon fill="green" stroke="green" stroke-width="0.23" points="947.32,-13.64 937.29,-17.05 947.26,-20.64 947.32,-13.64"/>
</g>
<!-- &#45;19&#45;&gt;1 -->
<g id="edge51" class="edge">
<title>&#45;19&#45;&gt;1</title>
<path fill="none" stroke="red" stroke-width="0.52" d="M1236.03,-84.01C1240.79,-79.28 1247.04,-73.34 1253,-68.53 1269.97,-54.82 1290.49,-40.96 1305.77,-31.11"/>
<polygon fill="red" stroke="red" stroke-width="0.52" points="1307.98,-33.86 1314.54,-25.54 1304.22,-27.95 1307.98,-33.86"/>
</g>
<!-- &#45;19&#45;&gt;3 -->
<g id="edge75" class="edge">
<title>&#45;19&#45;&gt;3</title>
<path fill="none" stroke="green" stroke-width="0.29" d="M1225.32,-84.25C1221.95,-74.11 1215.98,-56.22 1211.07,-41.48"/>
<polygon fill="green" stroke="green" stroke-width="0.29" points="1214.36,-40.29 1207.88,-31.91 1207.72,-42.5 1214.36,-40.29"/>
</g>
<!-- &#45;20 -->
<g id="node20" class="node">
<title>&#45;20</title>
<polygon fill="lightgray" stroke="black" points="83,-172.02 51,-172.02 51,-154.02 83,-154.02 83,-172.02"/>
<text text-anchor="middle" x="67" y="-160.82" font-family="Times,serif" font-size="9.00">&#45;20</text>
</g>
<!-- 457 -->
<g id="node45" class="node">
<title>457</title>
<ellipse fill="white" stroke="black" cx="67" cy="-93.28" rx="25" ry="25"/>
<text text-anchor="middle" x="67" y="-91.08" font-family="Times,serif" font-size="9.00">457</text>
</g>
<!-- &#45;20&#45;&gt;457 -->
<g id="edge81" class="edge">
<title>&#45;20&#45;&gt;457</title>
<path fill="none" stroke="green" stroke-width="0.32" d="M67,-153.99C67,-147.55 67,-138.05 67,-128.52"/>
<polygon fill="green" stroke="green" stroke-width="0.32" points="70.5,-128.3 67,-118.3 63.5,-128.3 70.5,-128.3"/>
</g>
<!-- &#45;21 -->
<g id="node21" class="node">
<title>&#45;21</title>
<polygon fill="lightgray" stroke="black" points="1688,-102.28 1656,-102.28 1656,-84.28 1688,-84.28 1688,-102.28"/>
<text text-anchor="middle" x="1672" y="-91.08" font-family="Times,serif" font-size="9.00">&#45;21</text>
</g>
<!-- &#45;21&#45;&gt;3 -->
<g id="edge69" class="edge">
<title>&#45;21&#45;&gt;3</title>
<path fill="none" stroke="green" stroke-width="0.17" stroke-dasharray="1,5" d="M1665.94,-84.23C1661.37,-78.81 1654.61,-72.04 1647,-68.53 1507.4,-4.16 1455.47,-52.13 1303,-32.53 1277.75,-29.28 1249.04,-24.82 1228.87,-21.56"/>
<polygon fill="green" stroke="green" stroke-width="0.17" points="1229.33,-18.08 1218.9,-19.93 1228.21,-24.99 1229.33,-18.08"/>
</g>
<!-- &#45;22 -->
<g id="node22" class="node">
<title>&#45;22</title>
<polygon fill="lightgray" stroke="black" points="868,-102.28 836,-102.28 836,-84.28 868,-84.28 868,-102.28"/>
<text text-anchor="middle" x="852" y="-91.08" font-family="Times,serif" font-size="9.00">&#45;22</text>
</g>
<!-- &#45;22&#45;&gt;0 -->
<g id="edge1" class="edge">
<title>&#45;22&#45;&gt;0</title>
<path fill="none" stroke="green" stroke-width="0.38" d="M859.38,-84.25C869.81,-72.92 889.14,-51.9 903.39,-36.41"/>
<polygon fill="green" stroke="green" stroke-width="0.38" points="906.1,-38.63 910.29,-28.9 900.95,-33.89 906.1,-38.63"/>
</g>
<!-- &#45;22&#45;&gt;1 -->
<g id="edge47" class="edge">
<title>&#45;22&#45;&gt;1</title>
<path fill="none" stroke="red" stroke-width="0.34" stroke-dasharray="1,5" d="M858.06,-84.22C862.62,-78.8 869.39,-72.03 877,-68.53 1019.48,-3.02 1072.44,-52.36 1228,-32.53 1253.25,-29.31 1281.97,-24.84 1302.13,-21.57"/>
<polygon fill="red" stroke="red" stroke-width="0.34" points="1302.8,-25.01 1312.1,-19.94 1301.67,-18.1 1302.8,-25.01"/>
</g>
<!-- &#45;22&#45;&gt;2 -->
<g id="edge63" class="edge">
<title>&#45;22&#45;&gt;2</title>
<path fill="none" stroke="red" stroke-width="0.16" d="M845.47,-83.92C840.88,-78.65 834.28,-72.17 827,-68.53 734.41,-22.13 607.75,-16.73 553.46,-16.75"/>
<polygon fill="red" stroke="red" stroke-width="0.16" points="553.28,-13.25 543.3,-16.81 553.33,-20.25 553.28,-13.25"/>
</g>
<!-- &#45;23 -->
<g id="node23" class="node">
<title>&#45;23</title>
<polygon fill="lightgray" stroke="black" points="1394,-102.28 1362,-102.28 1362,-84.28 1394,-84.28 1394,-102.28"/>
<text text-anchor="middle" x="1378" y="-91.08" font-family="Times,serif" font-size="9.00">&#45;23</text>
</g>
<!-- &#45;23&#45;&gt;0 -->
<g id="edge42" class="edge">
<title>&#45;23&#45;&gt;0</title>
<path fill="none" stroke="green" stroke-width="0.51" stroke-dasharray="1,5" d="M1371.93,-84.26C1367.35,-78.86 1360.59,-72.09 1353,-68.53 1280.21,-34.35 1029.62,-21.56 947.38,-18.23"/>
<polygon fill="green" stroke="green" stroke-width="0.51" points="947.48,-14.73 937.35,-17.83 947.2,-21.72 947.48,-14.73"/>
</g>
<!-- &#45;23&#45;&gt;1 -->
<g id="edge16" class="edge">
<title>&#45;23&#45;&gt;1</title>
<path fill="none" stroke="red" stroke-width="0.31" stroke-dasharray="1,5" d="M1372.65,-84.25C1365.45,-73.44 1352.37,-53.82 1342.22,-38.59"/>
<polygon fill="red" stroke="red" stroke-width="0.31" points="1345.11,-36.62 1336.65,-30.24 1339.28,-40.5 1345.11,-36.62"/>
</g>
<!-- &#45;23&#45;&gt;3 -->
<g id="edge22" class="edge">
<title>&#45;23&#45;&gt;3</title>
<path fill="none" stroke="red" stroke-width="0.87" d="M1370.84,-83.84C1366.19,-78.81 1359.76,-72.62 1353,-68.53 1312.99,-44.3 1259.99,-29.64 1228.88,-22.53"/>
<polygon fill="red" stroke="red" stroke-width="0.87" points="1229.37,-19.06 1218.85,-20.33 1227.87,-25.89 1229.37,-19.06"/>
</g>
<!-- &#45;24 -->
<g id="node24" class="node">
<title>&#45;24</title>
<polygon fill="lightgray" stroke="black" points="768,-102.28 736,-102.28 736,-84.28 768,-84.28 768,-102.28"/>
<text text-anchor="middle" x="752" y="-91.08" font-family="Times,serif" font-size="9.00">&#45;24</text>
</g>
<!-- &#45;24&#45;&gt;2 -->
<g id="edge77" class="edge">
<title>&#45;24&#45;&gt;2</title>
<path fill="none" stroke="red" stroke-width="0.44" d="M745.37,-84.11C740.73,-78.92 734.12,-72.47 727,-68.53 669.97,-36.98 593.06,-24.38 553.28,-19.73"/>
<polygon fill="red" stroke="red" stroke-width="0.44" points="553.63,-16.25 543.31,-18.65 552.88,-23.21 553.63,-16.25"/>
</g>
<!-- &#45;24&#45;&gt;3 -->
<g id="edge48" class="edge">
<title>&#45;24&#45;&gt;3</title>
<path fill="none" stroke="red" stroke-width="0.43" stroke-dasharray="1,5" d="M758.08,-84.26C762.65,-78.86 769.42,-72.09 777,-68.53 848.53,-34.87 1094.27,-21.79 1176.19,-18.29"/>
<polygon fill="red" stroke="red" stroke-width="0.43" points="1176.57,-21.78 1186.41,-17.87 1176.28,-14.79 1176.57,-21.78"/>
</g>
<!-- &#45;25 -->
<g id="node25" class="node">
<title>&#45;25</title>
<polygon fill="lightgray" stroke="black" points="1888,-102.28 1856,-102.28 1856,-84.28 1888,-84.28 1888,-102.28"/>
<text text-anchor="middle" x="1872" y="-91.08" font-family="Times,serif" font-size="9.00">&#45;25</text>
</g>
<!-- &#45;25&#45;&gt;1 -->
<g id="edge2" class="edge">
<title>&#45;25&#45;&gt;1</title>
<path fill="none" stroke="green" stroke-width="0.54" stroke-dasharray="1,5" d="M1865.95,-84.21C1861.38,-78.79 1854.62,-72.01 1847,-68.53 1757.79,-27.71 1447.75,-19.26 1354.64,-17.63"/>
<polygon fill="green" stroke="green" stroke-width="0.54" points="1354.45,-14.13 1344.39,-17.46 1354.33,-21.13 1354.45,-14.13"/>
</g>
<!-- &#45;26 -->
<g id="node26" class="node">
<title>&#45;26</title>
<polygon fill="lightgray" stroke="black" points="1344,-102.28 1312,-102.28 1312,-84.28 1344,-84.28 1344,-102.28"/>
<text text-anchor="middle" x="1328" y="-91.08" font-family="Times,serif" font-size="9.00">&#45;26</text>
</g>
<!-- &#45;26&#45;&gt;1 -->
<g id="edge17" class="edge">
<title>&#45;26&#45;&gt;1</title>
<path fill="none" stroke="red" stroke-width="0.24" stroke-dasharray="1,5" d="M1328,-84.25C1328,-74.49 1328,-57.54 1328,-43.13"/>
<polygon fill="red" stroke="red" stroke-width="0.24" points="1331.5,-42.77 1328,-32.77 1324.5,-42.77 1331.5,-42.77"/>
</g>
<!-- &#45;26&#45;&gt;2 -->
<g id="edge50" class="edge">
<title>&#45;26&#45;&gt;2</title>
<path fill="none" stroke="green" stroke-width="0.31" d="M1321.98,-84.14C1317.43,-78.68 1310.68,-71.89 1303,-68.53 1267.93,-53.16 685.56,-24.77 553.49,-18.51"/>
<polygon fill="green" stroke="green" stroke-width="0.31" points="553.6,-15.01 543.44,-18.03 553.27,-22 553.6,-15.01"/>
</g>
<!-- &#45;26&#45;&gt;3 -->
<g id="edge24" class="edge">
<title>&#45;26&#45;&gt;3</title>
<path fill="none" stroke="green" stroke-width="0.63" stroke-dasharray="1,5" d="M1320.62,-84.17C1315.89,-79.27 1309.45,-73.1 1303,-68.53 1278.93,-51.46 1248.39,-36.67 1227.44,-27.42"/>
<polygon fill="green" stroke="green" stroke-width="0.63" points="1228.56,-24.09 1217.99,-23.34 1225.78,-30.51 1228.56,-24.09"/>
</g>
<!-- &#45;27 -->
<g id="node27" class="node">
<title>&#45;27</title>
<polygon fill="lightgray" stroke="black" points="374,-102.28 342,-102.28 342,-84.28 374,-84.28 374,-102.28"/>
<text text-anchor="middle" x="358" y="-91.08" font-family="Times,serif" font-size="9.00">&#45;27</text>
</g>
<!-- &#45;27&#45;&gt;0 -->
<g id="edge35" class="edge">
<title>&#45;27&#45;&gt;0</title>
<path fill="none" stroke="green" stroke-width="0.14" d="M364.05,-84.21C368.61,-78.78 375.37,-72 383,-68.53 475.81,-26.26 798.96,-18.81 894.32,-17.53"/>
<polygon fill="green" stroke="green" stroke-width="0.14" points="894.59,-21.02 904.54,-17.4 894.5,-14.02 894.59,-21.02"/>
</g>
<!-- &#45;27&#45;&gt;2 -->
<g id="edge5" class="edge">
<title>&#45;27&#45;&gt;2</title>
<path fill="none" stroke="green" stroke-width="0.37" d="M365.18,-83.87C369.83,-78.85 376.27,-72.66 383,-68.53 420.86,-45.27 470.8,-30.51 500.82,-23.07"/>
<polygon fill="green" stroke="green" stroke-width="0.37" points="502,-26.39 510.92,-20.67 500.38,-19.58 502,-26.39"/>
</g>
<!-- &#45;28 -->
<g id="node28" class="node">
<title>&#45;28</title>
<polygon fill="lightgray" stroke="black" points="133,-172.02 101,-172.02 101,-154.02 133,-154.02 133,-172.02"/>
<text text-anchor="middle" x="117" y="-160.82" font-family="Times,serif" font-size="9.00">&#45;28</text>
</g>
<!-- &#45;29 -->
<g id="node29" class="node">
<title>&#45;29</title>
<polygon fill="lightgray" stroke="black" points="1444,-102.28 1412,-102.28 1412,-84.28 1444,-84.28 1444,-102.28"/>
<text text-anchor="middle" x="1428" y="-91.08" font-family="Times,serif" font-size="9.00">&#45;29</text>
</g>
<!-- &#45;29&#45;&gt;0 -->
<g id="edge76" class="edge">
<title>&#45;29&#45;&gt;0</title>
<path fill="none" stroke="green" stroke-width="0.4" stroke-dasharray="1,5" d="M1421.94,-84.23C1417.37,-78.82 1410.61,-72.04 1403,-68.53 1361.44,-49.32 1042.19,-25.72 947.43,-19.08"/>
<polygon fill="green" stroke="green" stroke-width="0.4" points="947.48,-15.57 937.26,-18.37 947,-22.56 947.48,-15.57"/>
</g>
<!-- &#45;29&#45;&gt;1 -->
<g id="edge60" class="edge">
<title>&#45;29&#45;&gt;1</title>
<path fill="none" stroke="green" stroke-width="0.12" d="M1419.97,-84.01C1415.21,-79.28 1408.96,-73.34 1403,-68.53 1386.03,-54.82 1365.51,-40.96 1350.23,-31.11"/>
<polygon fill="green" stroke="green" stroke-width="0.12" points="1351.78,-27.95 1341.46,-25.54 1348.02,-33.86 1351.78,-27.95"/>
</g>
<!-- &#45;29&#45;&gt;3 -->
<g id="edge53" class="edge">
<title>&#45;29&#45;&gt;3</title>
<path fill="none" stroke="red" stroke-width="0.57" d="M1421.37,-84.11C1416.73,-78.92 1410.12,-72.47 1403,-68.53 1372.96,-51.91 1275.87,-31.45 1228.91,-22.21"/>
<polygon fill="red" stroke="red" stroke-width="0.57" points="1229.39,-18.74 1218.91,-20.26 1228.06,-25.61 1229.39,-18.74"/>
</g>
<!-- &#45;30 -->
<g id="node30" class="node">
<title>&#45;30</title>
<polygon fill="lightgray" stroke="black" points="1294,-102.28 1262,-102.28 1262,-84.28 1294,-84.28 1294,-102.28"/>
<text text-anchor="middle" x="1278" y="-91.08" font-family="Times,serif" font-size="9.00">&#45;30</text>
</g>
<!-- &#45;30&#45;&gt;3 -->
<g id="edge55" class="edge">
<title>&#45;30&#45;&gt;3</title>
<path fill="none" stroke="green" stroke-width="0.1" stroke-dasharray="1,5" d="M1269.97,-84.25C1258.41,-72.69 1236.76,-51.02 1221.19,-35.46"/>
<polygon fill="green" stroke="green" stroke-width="0.1" points="1223.66,-32.98 1214.12,-28.38 1218.71,-37.93 1223.66,-32.98"/>
</g>
<!-- &#45;31 -->
<g id="node31" class="node">
<title>&#45;31</title>
<polygon fill="lightgray" stroke="black" points="1738,-102.28 1706,-102.28 1706,-84.28 1738,-84.28 1738,-102.28"/>
<text text-anchor="middle" x="1722" y="-91.08" font-family="Times,serif" font-size="9.00">&#45;31</text>
</g>
<!-- &#45;31&#45;&gt;1 -->
<g id="edge41" class="edge">
<title>&#45;31&#45;&gt;1</title>
<path fill="none" stroke="green" stroke-width="0.42" d="M1715.51,-83.84C1710.93,-78.54 1704.33,-72.06 1697,-68.53 1636.17,-39.23 1429.13,-23.62 1354.82,-18.86"/>
<polygon fill="green" stroke="green" stroke-width="0.42" points="1354.66,-15.35 1344.46,-18.21 1354.23,-22.33 1354.66,-15.35"/>
</g>
<!-- &#45;31&#45;&gt;3 -->
<g id="edge10" class="edge">
<title>&#45;31&#45;&gt;3</title>
<path fill="none" stroke="red" stroke-width="0.17" stroke-dasharray="1,5" d="M1715.95,-84.2C1711.4,-78.76 1704.63,-71.99 1697,-68.53 1616.92,-32.24 1390.27,-43.16 1303,-32.53 1277.73,-29.45 1249.02,-24.96 1228.86,-21.65"/>
<polygon fill="red" stroke="red" stroke-width="0.17" points="1229.33,-18.18 1218.89,-19.99 1228.18,-25.08 1229.33,-18.18"/>
</g>
<!-- &#45;32 -->
<g id="node32" class="node">
<title>&#45;32</title>
<polygon fill="lightgray" stroke="black" points="32,-172.02 0,-172.02 0,-154.02 32,-154.02 32,-172.02"/>
<text text-anchor="middle" x="16" y="-160.82" font-family="Times,serif" font-size="9.00">&#45;32</text>
</g>
<!-- &#45;32&#45;&gt;2 -->
<g id="edge29" class="edge">
<title>&#45;32&#45;&gt;2</title>
<path fill="none" stroke="green" stroke-width="0.42" stroke-dasharray="1,5" d="M14.61,-153.78C12.03,-135.4 8.79,-90.95 33,-68.53 67.57,-36.51 403.23,-21.79 500.63,-18.18"/>
<polygon fill="green" stroke="green" stroke-width="0.42" points="500.93,-21.67 510.8,-17.81 500.68,-14.67 500.93,-21.67"/>
</g>
<!-- &#45;32&#45;&gt;457 -->
<g id="edge78" class="edge">
<title>&#45;32&#45;&gt;457</title>
<path fill="none" stroke="green" stroke-width="0.5" d="M22.05,-153.99C28.04,-146.03 37.55,-133.4 46.28,-121.8"/>
<polygon fill="green" stroke="green" stroke-width="0.5" points="49.22,-123.71 52.44,-113.61 43.63,-119.5 49.22,-123.71"/>
</g>
<!-- &#45;33 -->
<g id="node33" class="node">
<title>&#45;33</title>
<polygon fill="lightgray" stroke="black" points="1544,-102.28 1512,-102.28 1512,-84.28 1544,-84.28 1544,-102.28"/>
<text text-anchor="middle" x="1528" y="-91.08" font-family="Times,serif" font-size="9.00">&#45;33</text>
</g>
<!-- &#45;33&#45;&gt;0 -->
<g id="edge59" class="edge">
<title>&#45;33&#45;&gt;0</title>
<path fill="none" stroke="red" stroke-width="0.18" d="M1521.96,-84.19C1517.4,-78.75 1510.64,-71.97 1503,-68.53 1477.33,-56.95 1058.05,-26.87 947.53,-19.11"/>
<polygon fill="red" stroke="red" stroke-width="0.18" points="947.49,-15.6 937.27,-18.39 947,-22.58 947.49,-15.6"/>
</g>
<!-- &#45;33&#45;&gt;1 -->
<g id="edge54" class="edge">
<title>&#45;33&#45;&gt;1</title>
<path fill="none" stroke="red" stroke-width="0.48" d="M1521.32,-84.19C1516.67,-79.04 1510.06,-72.59 1503,-68.53 1454.76,-40.76 1390.24,-26.95 1354.56,-21.03"/>
<polygon fill="red" stroke="red" stroke-width="0.48" points="1354.88,-17.54 1344.46,-19.44 1353.79,-24.45 1354.88,-17.54"/>
</g>
<!-- &#45;33&#45;&gt;3 -->
<g id="edge20" class="edge">
<title>&#45;33&#45;&gt;3</title>
<path fill="none" stroke="green" stroke-width="0.28" stroke-dasharray="1,5" d="M1521.47,-83.92C1516.88,-78.65 1510.28,-72.17 1503,-68.53 1490.7,-62.36 1299.79,-32.29 1229.08,-21.3"/>
<polygon fill="green" stroke="green" stroke-width="0.28" points="1229.6,-17.84 1219.18,-19.76 1228.52,-24.75 1229.6,-17.84"/>
</g>
<!-- &#45;34 -->
<g id="node34" class="node">
<title>&#45;34</title>
<polygon fill="lightgray" stroke="black" points="718,-102.28 686,-102.28 686,-84.28 718,-84.28 718,-102.28"/>
<text text-anchor="middle" x="702" y="-91.08" font-family="Times,serif" font-size="9.00">&#45;34</text>
</g>
<!-- &#45;34&#45;&gt;2 -->
<g id="edge15" class="edge">
<title>&#45;34&#45;&gt;2</title>
<path fill="none" stroke="red" stroke-width="0.46" d="M694.84,-83.84C690.19,-78.81 683.76,-72.62 677,-68.53 636.99,-44.3 583.99,-29.64 552.88,-22.53"/>
<polygon fill="red" stroke="red" stroke-width="0.46" points="553.37,-19.06 542.85,-20.33 551.87,-25.89 553.37,-19.06"/>
</g>
<!-- &#45;34&#45;&gt;3 -->
<g id="edge38" class="edge">
<title>&#45;34&#45;&gt;3</title>
<path fill="none" stroke="green" stroke-width="0.96" d="M708.06,-84.23C712.63,-78.82 719.39,-72.05 727,-68.53 767.99,-49.55 1082.62,-25.84 1176.58,-19.11"/>
<polygon fill="green" stroke="green" stroke-width="0.96" points="1176.95,-22.6 1186.68,-18.4 1176.45,-15.62 1176.95,-22.6"/>
</g>
<!-- &#45;35 -->
<g id="node35" class="node">
<title>&#45;35</title>
<polygon fill="lightgray" stroke="black" points="142,-102.28 110,-102.28 110,-84.28 142,-84.28 142,-102.28"/>
<text text-anchor="middle" x="126" y="-91.08" font-family="Times,serif" font-size="9.00">&#45;35</text>
</g>
<!-- &#45;35&#45;&gt;2 -->
<g id="edge31" class="edge">
<title>&#45;35&#45;&gt;2</title>
<path fill="none" stroke="green" stroke-width="0.43" stroke-dasharray="1,5" d="M132.49,-83.84C137.06,-78.53 143.66,-72.05 151,-68.53 213.27,-38.63 425.79,-23.32 500.65,-18.75"/>
<polygon fill="green" stroke="green" stroke-width="0.43" points="500.89,-22.25 510.66,-18.16 500.47,-15.26 500.89,-22.25"/>
</g>
<!-- &#45;36 -->
<g id="node36" class="node">
<title>&#45;36</title>
<polygon fill="lightgray" stroke="black" points="568,-102.28 536,-102.28 536,-84.28 568,-84.28 568,-102.28"/>
<text text-anchor="middle" x="552" y="-91.08" font-family="Times,serif" font-size="9.00">&#45;36</text>
</g>
<!-- &#45;36&#45;&gt;0 -->
<g id="edge36" class="edge">
<title>&#45;36&#45;&gt;0</title>
<path fill="none" stroke="green" stroke-width="0.41" d="M558.51,-83.87C563.08,-78.58 569.68,-72.1 577,-68.53 633.28,-41.07 824.16,-24.46 894.6,-19.14"/>
<polygon fill="green" stroke="green" stroke-width="0.41" points="895.12,-22.61 904.83,-18.38 894.6,-15.63 895.12,-22.61"/>
</g>
<!-- &#45;37 -->
<g id="node37" class="node">
<title>&#45;37</title>
<polygon fill="lightgray" stroke="black" points="618,-102.28 586,-102.28 586,-84.28 618,-84.28 618,-102.28"/>
<text text-anchor="middle" x="602" y="-91.08" font-family="Times,serif" font-size="9.00">&#45;37</text>
</g>
<!-- &#45;37&#45;&gt;2 -->
<g id="edge64" class="edge">
<title>&#45;37&#45;&gt;2</title>
<path fill="none" stroke="red" stroke-width="0.27" stroke-dasharray="1,5" d="M593.97,-84.25C582.41,-72.69 560.76,-51.02 545.19,-35.46"/>
<polygon fill="red" stroke="red" stroke-width="0.27" points="547.66,-32.98 538.12,-28.38 542.71,-37.93 547.66,-32.98"/>
</g>
<!-- &#45;37&#45;&gt;3 -->
<g id="edge8" class="edge">
<title>&#45;37&#45;&gt;3</title>
<path fill="none" stroke="green" stroke-width="0.12" stroke-dasharray="1,5" d="M608.04,-84.19C612.6,-78.76 619.36,-71.98 627,-68.53 652.38,-57.07 1066.46,-26.96 1176.38,-19.14"/>
<polygon fill="green" stroke="green" stroke-width="0.12" points="1176.88,-22.62 1186.61,-18.42 1176.38,-15.63 1176.88,-22.62"/>
</g>
<!-- &#45;38 -->
<g id="node38" class="node">
<title>&#45;38</title>
<polygon fill="lightgray" stroke="black" points="518,-102.28 486,-102.28 486,-84.28 518,-84.28 518,-102.28"/>
<text text-anchor="middle" x="502" y="-91.08" font-family="Times,serif" font-size="9.00">&#45;38</text>
</g>
<!-- &#45;38&#45;&gt;0 -->
<g id="edge26" class="edge">
<title>&#45;38&#45;&gt;0</title>
<path fill="none" stroke="red" stroke-width="0.36" stroke-dasharray="1,5" d="M508.48,-83.82C513.05,-78.51 519.65,-72.03 527,-68.53 592.59,-37.28 816.99,-22.75 894.45,-18.58"/>
<polygon fill="red" stroke="red" stroke-width="0.36" points="894.98,-22.06 904.78,-18.04 894.61,-15.07 894.98,-22.06"/>
</g>
<!-- &#45;39 -->
<g id="node39" class="node">
<title>&#45;39</title>
<polygon fill="lightgray" stroke="black" points="1594,-102.28 1562,-102.28 1562,-84.28 1594,-84.28 1594,-102.28"/>
<text text-anchor="middle" x="1578" y="-91.08" font-family="Times,serif" font-size="9.00">&#45;39</text>
</g>
<!-- &#45;39&#45;&gt;0 -->
<g id="edge62" class="edge">
<title>&#45;39&#45;&gt;0</title>
<path fill="none" stroke="green" stroke-width="0.26" d="M1571.97,-84.17C1567.41,-78.73 1560.65,-71.95 1553,-68.53 1524.92,-55.97 1063.99,-26.26 947.55,-18.92"/>
<polygon fill="green" stroke="green" stroke-width="0.26" points="947.59,-15.42 937.39,-18.28 947.15,-22.4 947.59,-15.42"/>
</g>
<!-- &#45;39&#45;&gt;1 -->
<g id="edge43" class="edge">
<title>&#45;39&#45;&gt;1</title>
<path fill="none" stroke="red" stroke-width="0.27" d="M1571.4,-84.05C1566.78,-78.83 1560.18,-72.37 1553,-68.53 1487.24,-33.29 1398.09,-22.19 1354.38,-18.76"/>
<polygon fill="red" stroke="red" stroke-width="0.27" points="1354.51,-15.26 1344.29,-18.04 1354.01,-22.24 1354.51,-15.26"/>
</g>
<!-- &#45;39&#45;&gt;3 -->
<g id="edge27" class="edge">
<title>&#45;39&#45;&gt;3</title>
<path fill="none" stroke="green" stroke-width="0.31" stroke-dasharray="1,5" d="M1571.5,-83.85C1566.92,-78.56 1560.33,-72.08 1553,-68.53 1451.99,-19.56 1414.04,-49 1303,-32.53 1277.82,-28.79 1249.09,-24.39 1228.91,-21.28"/>
<polygon fill="green" stroke="green" stroke-width="0.31" points="1229.34,-17.81 1218.93,-19.74 1228.28,-24.72 1229.34,-17.81"/>
</g>
<!-- &#45;40 -->
<g id="node40" class="node">
<title>&#45;40</title>
<polygon fill="lightgray" stroke="black" points="1494,-102.28 1462,-102.28 1462,-84.28 1494,-84.28 1494,-102.28"/>
<text text-anchor="middle" x="1478" y="-91.08" font-family="Times,serif" font-size="9.00">&#45;40</text>
</g>
<!-- &#45;40&#45;&gt;3 -->
<g id="edge25" class="edge">
<title>&#45;40&#45;&gt;3</title>
<path fill="none" stroke="red" stroke-width="0.83" d="M1471.43,-84C1466.82,-78.76 1460.22,-72.29 1453,-68.53 1433.17,-58.18 1289.07,-32.26 1229.09,-21.77"/>
<polygon fill="red" stroke="red" stroke-width="0.83" points="1229.37,-18.27 1218.92,-20 1228.17,-25.17 1229.37,-18.27"/>
</g>
<!-- 1&#45;&gt;1 -->
<g id="edge58" class="edge">
<title>1&#45;&gt;1</title>
<path fill="none" stroke="green" stroke-width="0.4" stroke-dasharray="1,5" d="M1339.58,-27.79C1350.46,-33.76 1362.26,-29.92 1362.26,-16.26 1362.26,-6.87 1356.69,-2.13 1349.67,-2.02"/>
<polygon fill="green" stroke="green" stroke-width="0.4" points="1348.32,1.25 1339.58,-4.74 1350.15,-5.51 1348.32,1.25"/>
</g>
<!-- 2&#45;&gt;2 -->
<g id="edge40" class="edge">
<title>2&#45;&gt;2</title>
<path fill="none" stroke="red" stroke-width="0.11" d="M538.58,-27.79C549.46,-33.76 561.26,-29.92 561.26,-16.26 561.26,-6.87 555.69,-2.13 548.67,-2.02"/>
<polygon fill="red" stroke="red" stroke-width="0.11" points="547.32,1.25 538.58,-4.74 549.15,-5.51 547.32,1.25"/>
</g>
<!-- 457&#45;&gt;2 -->
<g id="edge79" class="edge">
<title>457&#45;&gt;2</title>
<path fill="none" stroke="red" stroke-width="0.4" d="M85.84,-76.7C90.55,-73.52 95.75,-70.53 101,-68.53 174.78,-40.36 418.57,-23.68 500.14,-18.79"/>
<polygon fill="red" stroke="red" stroke-width="0.4" points="500.76,-22.26 510.54,-18.18 500.35,-15.27 500.76,-22.26"/>
</g>
</g>
</svg>
