<?xml version="1.0" encoding="UTF-8" standalone="no"?>
<!DOCTYPE svg PUBLIC "-//W3C//DTD SVG 1.1//EN"
 "http://www.w3.org/Graphics/SVG/1.1/DTD/svg11.dtd">
<!-- Generated by graphviz version 2.43.0 (0)
 -->
<!-- Title: %3 Pages: 1 -->
<svg width="1936pt" height="95pt"
 viewBox="0.00 0.00 1936.00 94.53" xmlns="http://www.w3.org/2000/svg" xmlns:xlink="http://www.w3.org/1999/xlink">
<g id="graph0" class="graph" transform="scale(1 1) rotate(0) translate(4 90.53)">
<title>%3</title>
<polygon fill="white" stroke="transparent" points="-4,4 -4,-90.53 1932,-90.53 1932,4 -4,4"/>
<!-- &#45;1 -->
<g id="node1" class="node">
<title>&#45;1</title>
<polygon fill="lightgray" stroke="black" points="1096,-86.53 1070,-86.53 1070,-68.53 1096,-68.53 1096,-86.53"/>
<text text-anchor="middle" x="1083" y="-75.33" font-family="Times,serif" font-size="9.00">&#45;1</text>
</g>
<!-- 1 -->
<g id="node42" class="node">
<title>1</title>
<ellipse fill="lightblue" stroke="black" cx="423" cy="-16.26" rx="16.03" ry="16.03"/>
<text text-anchor="middle" x="423" y="-14.06" font-family="Times,serif" font-size="9.00">1</text>
</g>
<!-- &#45;1&#45;&gt;1 -->
<g id="edge8" class="edge">
<title>&#45;1&#45;&gt;1</title>
<path fill="none" stroke="green" stroke-width="0.23" d="M1069.67,-71.03C1066.85,-70.05 1063.86,-69.15 1061,-68.53 941.19,-42.43 553.81,-23.23 449.23,-18.43"/>
<polygon fill="green" stroke="green" stroke-width="0.23" points="449.36,-14.93 439.21,-17.98 449.04,-21.93 449.36,-14.93"/>
</g>
<!-- 2 -->
<g id="node43" class="node">
<title>2</title>
<ellipse fill="lightblue" stroke="black" cx="986" cy="-16.26" rx="16.03" ry="16.03"/>
<text text-anchor="middle" x="986" y="-14.06" font-family="Times,serif" font-size="9.00">2</text>
</g>
<!-- &#45;1&#45;&gt;2 -->
<g id="edge74" class="edge">
<title>&#45;1&#45;&gt;2</title>
<path fill="none" stroke="red" stroke-width="0.43" d="M1069.92,-68.53C1054.1,-58.87 1027.22,-42.45 1008.15,-30.8"/>
<polygon fill="red" stroke="red" stroke-width="0.43" points="1009.86,-27.74 999.5,-25.51 1006.21,-33.71 1009.86,-27.74"/>
</g>
<!-- 3 -->
<g id="node44" class="node">
<title>3</title>
<ellipse fill="lightblue" stroke="black" cx="1230" cy="-16.26" rx="16.03" ry="16.03"/>
<text text-anchor="middle" x="1230" y="-14.06" font-family="Times,serif" font-size="9.00">3</text>
</g>
<!-- &#45;1&#45;&gt;3 -->
<g id="edge59" class="edge">
<title>&#45;1&#45;&gt;3</title>
<path fill="none" stroke="green" stroke-width="0.11" d="M1096.05,-71.27C1120.65,-61.35 1174.24,-39.74 1205.67,-27.07"/>
<polygon fill="green" stroke="green" stroke-width="0.11" points="1207.07,-30.28 1215.03,-23.3 1204.45,-23.79 1207.07,-30.28"/>
</g>
<!-- &#45;2 -->
<g id="node2" class="node">
<title>&#45;2</title>
<polygon fill="lightgray" stroke="black" points="1390,-86.53 1364,-86.53 1364,-68.53 1390,-68.53 1390,-86.53"/>
<text text-anchor="middle" x="1377" y="-75.33" font-family="Times,serif" font-size="9.00">&#45;2</text>
</g>
<!-- 0 -->
<g id="node41" class="node">
<title>0</title>
<ellipse fill="lightblue" stroke="black" cx="773" cy="-16.26" rx="16.03" ry="16.03"/>
<text text-anchor="middle" x="773" y="-14.06" font-family="Times,serif" font-size="9.00">0</text>
</g>
<!-- &#45;2&#45;&gt;0 -->
<g id="edge23" class="edge">
<title>&#45;2&#45;&gt;0</title>
<path fill="none" stroke="green" stroke-width="0.24" d="M1363.67,-71.05C1360.85,-70.07 1357.86,-69.16 1355,-68.53 1327.51,-62.43 909.57,-28.32 799.44,-19.4"/>
<polygon fill="green" stroke="green" stroke-width="0.24" points="799.46,-15.89 789.21,-18.57 798.89,-22.87 799.46,-15.89"/>
</g>
<!-- &#45;2&#45;&gt;2 -->
<g id="edge54" class="edge">
<title>&#45;2&#45;&gt;2</title>
<path fill="none" stroke="green" stroke-width="0.36" d="M1363.64,-71.16C1360.82,-70.17 1357.84,-69.23 1355,-68.53 1229.13,-37.27 1074.05,-23.53 1012.75,-19.04"/>
<polygon fill="green" stroke="green" stroke-width="0.36" points="1012.64,-15.52 1002.42,-18.31 1012.15,-22.51 1012.64,-15.52"/>
</g>
<!-- &#45;2&#45;&gt;3 -->
<g id="edge78" class="edge">
<title>&#45;2&#45;&gt;3</title>
<path fill="none" stroke="green" stroke-width="0.35" d="M1363.95,-71.27C1339.35,-61.35 1285.76,-39.74 1254.33,-27.07"/>
<polygon fill="green" stroke="green" stroke-width="0.35" points="1255.55,-23.79 1244.97,-23.3 1252.93,-30.28 1255.55,-23.79"/>
</g>
<!-- &#45;3 -->
<g id="node3" class="node">
<title>&#45;3</title>
<polygon fill="lightgray" stroke="black" points="126,-86.53 100,-86.53 100,-68.53 126,-68.53 126,-86.53"/>
<text text-anchor="middle" x="113" y="-75.33" font-family="Times,serif" font-size="9.00">&#45;3</text>
</g>
<!-- &#45;3&#45;&gt;0 -->
<g id="edge49" class="edge">
<title>&#45;3&#45;&gt;0</title>
<path fill="none" stroke="red" stroke-width="0.3" d="M126.33,-71.03C129.15,-70.05 132.14,-69.15 135,-68.53 254.81,-42.43 642.19,-23.23 746.77,-18.43"/>
<polygon fill="red" stroke="red" stroke-width="0.3" points="746.96,-21.93 756.79,-17.98 746.64,-14.93 746.96,-21.93"/>
</g>
<!-- &#45;3&#45;&gt;1 -->
<g id="edge33" class="edge">
<title>&#45;3&#45;&gt;1</title>
<path fill="none" stroke="green" stroke-width="0.19" d="M126.38,-71.25C129.2,-70.25 132.17,-69.29 135,-68.53 229.81,-43.05 345.66,-26.82 396.71,-20.4"/>
<polygon fill="green" stroke="green" stroke-width="0.19" points="397.37,-23.84 406.86,-19.14 396.51,-16.9 397.37,-23.84"/>
</g>
<!-- &#45;4 -->
<g id="node4" class="node">
<title>&#45;4</title>
<polygon fill="lightgray" stroke="black" points="1678,-86.53 1652,-86.53 1652,-68.53 1678,-68.53 1678,-86.53"/>
<text text-anchor="middle" x="1665" y="-75.33" font-family="Times,serif" font-size="9.00">&#45;4</text>
</g>
<!-- &#45;4&#45;&gt;3 -->
<g id="edge71" class="edge">
<title>&#45;4&#45;&gt;3</title>
<path fill="none" stroke="green" stroke-width="0.16" d="M1651.65,-71.13C1648.83,-70.14 1645.84,-69.21 1643,-68.53 1499.9,-34.09 1323.02,-22 1256.74,-18.5"/>
<polygon fill="green" stroke="green" stroke-width="0.16" points="1256.54,-14.98 1246.37,-17.97 1256.18,-21.97 1256.54,-14.98"/>
</g>
<!-- &#45;5 -->
<g id="node5" class="node">
<title>&#45;5</title>
<polygon fill="lightgray" stroke="black" points="1584,-86.53 1558,-86.53 1558,-68.53 1584,-68.53 1584,-86.53"/>
<text text-anchor="middle" x="1571" y="-75.33" font-family="Times,serif" font-size="9.00">&#45;5</text>
</g>
<!-- &#45;5&#45;&gt;2 -->
<g id="edge18" class="edge">
<title>&#45;5&#45;&gt;2</title>
<path fill="none" stroke="red" stroke-width="0.26" d="M1557.67,-71.06C1554.85,-70.08 1551.86,-69.16 1549,-68.53 1496.21,-56.73 1116.79,-27.23 1012.48,-19.27"/>
<polygon fill="red" stroke="red" stroke-width="0.26" points="1012.44,-15.76 1002.2,-18.49 1011.91,-22.74 1012.44,-15.76"/>
</g>
<!-- &#45;5&#45;&gt;3 -->
<g id="edge58" class="edge">
<title>&#45;5&#45;&gt;3</title>
<path fill="none" stroke="green" stroke-width="0.47" d="M1557.63,-71.21C1554.81,-70.22 1551.83,-69.26 1549,-68.53 1442.34,-40.83 1311.51,-25.45 1256.43,-19.8"/>
<polygon fill="green" stroke="green" stroke-width="0.47" points="1256.45,-16.28 1246.15,-18.77 1255.75,-23.25 1256.45,-16.28"/>
</g>
<!-- &#45;6 -->
<g id="node6" class="node">
<title>&#45;6</title>
<polygon fill="lightgray" stroke="black" points="902,-86.53 876,-86.53 876,-68.53 902,-68.53 902,-86.53"/>
<text text-anchor="middle" x="889" y="-75.33" font-family="Times,serif" font-size="9.00">&#45;6</text>
</g>
<!-- &#45;6&#45;&gt;0 -->
<g id="edge13" class="edge">
<title>&#45;6&#45;&gt;0</title>
<path fill="none" stroke="red" stroke-width="0.13" d="M875.69,-69.73C856.34,-59.84 820.14,-41.35 796.31,-29.17"/>
<polygon fill="red" stroke="red" stroke-width="0.13" points="797.73,-25.97 787.23,-24.54 794.55,-32.2 797.73,-25.97"/>
</g>
<!-- &#45;6&#45;&gt;2 -->
<g id="edge53" class="edge">
<title>&#45;6&#45;&gt;2</title>
<path fill="none" stroke="red" stroke-width="0.21" d="M902.08,-68.53C917.9,-58.87 944.78,-42.45 963.85,-30.8"/>
<polygon fill="red" stroke="red" stroke-width="0.21" points="965.79,-33.71 972.5,-25.51 962.14,-27.74 965.79,-33.71"/>
</g>
<!-- &#45;7 -->
<g id="node7" class="node">
<title>&#45;7</title>
<polygon fill="lightgray" stroke="black" points="858,-86.53 832,-86.53 832,-68.53 858,-68.53 858,-86.53"/>
<text text-anchor="middle" x="845" y="-75.33" font-family="Times,serif" font-size="9.00">&#45;7</text>
</g>
<!-- &#45;7&#45;&gt;1 -->
<g id="edge3" class="edge">
<title>&#45;7&#45;&gt;1</title>
<path fill="none" stroke="green" stroke-width="0.37" d="M831.65,-71.14C828.83,-70.15 825.84,-69.22 823,-68.53 684.72,-34.96 513.88,-22.38 449.34,-18.62"/>
<polygon fill="green" stroke="green" stroke-width="0.37" points="449.42,-15.12 439.24,-18.05 449.03,-22.11 449.42,-15.12"/>
</g>
<!-- &#45;7&#45;&gt;3 -->
<g id="edge56" class="edge">
<title>&#45;7&#45;&gt;3</title>
<path fill="none" stroke="red" stroke-width="0.25" d="M858.36,-71.17C861.18,-70.18 864.16,-69.24 867,-68.53 990.83,-37.63 1143.38,-23.68 1203.69,-19.09"/>
<polygon fill="red" stroke="red" stroke-width="0.25" points="1204.13,-22.57 1213.85,-18.34 1203.62,-15.59 1204.13,-22.57"/>
</g>
<!-- &#45;8 -->
<g id="node8" class="node">
<title>&#45;8</title>
<polygon fill="lightgray" stroke="black" points="270,-86.53 244,-86.53 244,-68.53 270,-68.53 270,-86.53"/>
<text text-anchor="middle" x="257" y="-75.33" font-family="Times,serif" font-size="9.00">&#45;8</text>
</g>
<!-- &#45;8&#45;&gt;0 -->
<g id="edge29" class="edge">
<title>&#45;8&#45;&gt;0</title>
<path fill="none" stroke="red" stroke-width="0.43" d="M270.34,-71.09C273.16,-70.1 276.15,-69.18 279,-68.53 454.04,-28.26 671.3,-19.58 746.18,-17.75"/>
<polygon fill="red" stroke="red" stroke-width="0.43" points="746.64,-21.24 756.56,-17.51 746.48,-14.24 746.64,-21.24"/>
</g>
<!-- &#45;8&#45;&gt;1 -->
<g id="edge10" class="edge">
<title>&#45;8&#45;&gt;1</title>
<path fill="none" stroke="green" stroke-width="0.4" d="M270.02,-71.77C272.97,-70.7 276.09,-69.57 279,-68.53 320.81,-53.48 369.53,-36.19 398.23,-26.02"/>
<polygon fill="green" stroke="green" stroke-width="0.4" points="399.59,-29.25 407.85,-22.62 397.26,-22.66 399.59,-29.25"/>
</g>
<!-- &#45;8&#45;&gt;2 -->
<g id="edge37" class="edge">
<title>&#45;8&#45;&gt;2</title>
<path fill="none" stroke="green" stroke-width="0.42" d="M270.32,-71.01C273.14,-70.03 276.14,-69.13 279,-68.53 513.05,-19.16 577.53,-51.22 816,-32.53 866.69,-28.55 925.81,-23.05 959.28,-19.85"/>
<polygon fill="green" stroke="green" stroke-width="0.42" points="959.98,-23.3 969.6,-18.86 959.31,-16.33 959.98,-23.3"/>
</g>
<!-- &#45;9 -->
<g id="node9" class="node">
<title>&#45;9</title>
<polygon fill="lightgray" stroke="black" points="364,-86.53 338,-86.53 338,-68.53 364,-68.53 364,-86.53"/>
<text text-anchor="middle" x="351" y="-75.33" font-family="Times,serif" font-size="9.00">&#45;9</text>
</g>
<!-- &#45;9&#45;&gt;1 -->
<g id="edge48" class="edge">
<title>&#45;9&#45;&gt;1</title>
<path fill="none" stroke="green" stroke-width="0.39" d="M361.01,-68.29C371.76,-59.44 389.14,-45.14 402.76,-33.92"/>
<polygon fill="green" stroke="green" stroke-width="0.39" points="405.17,-36.47 410.66,-27.42 400.72,-31.07 405.17,-36.47"/>
</g>
<!-- &#45;9&#45;&gt;2 -->
<g id="edge60" class="edge">
<title>&#45;9&#45;&gt;2</title>
<path fill="none" stroke="green" stroke-width="0.21" d="M364.33,-71.04C367.15,-70.06 370.14,-69.15 373,-68.53 565.99,-26.4 619.18,-49.36 816,-32.53 866.67,-28.19 925.79,-22.81 959.27,-19.73"/>
<polygon fill="green" stroke="green" stroke-width="0.21" points="959.96,-23.19 969.59,-18.78 959.31,-16.22 959.96,-23.19"/>
</g>
<!-- &#45;10 -->
<g id="node10" class="node">
<title>&#45;10</title>
<polygon fill="lightgray" stroke="black" points="1828,-86.53 1796,-86.53 1796,-68.53 1828,-68.53 1828,-86.53"/>
<text text-anchor="middle" x="1812" y="-75.33" font-family="Times,serif" font-size="9.00">&#45;10</text>
</g>
<!-- &#45;11 -->
<g id="node11" class="node">
<title>&#45;11</title>
<polygon fill="lightgray" stroke="black" points="514,-86.53 482,-86.53 482,-68.53 514,-68.53 514,-86.53"/>
<text text-anchor="middle" x="498" y="-75.33" font-family="Times,serif" font-size="9.00">&#45;11</text>
</g>
<!-- &#45;11&#45;&gt;0 -->
<g id="edge35" class="edge">
<title>&#45;11&#45;&gt;0</title>
<path fill="none" stroke="green" stroke-width="0.19" d="M514.06,-71.11C517.02,-70.19 520.09,-69.29 523,-68.53 603.95,-47.34 701.52,-29.51 747.14,-21.62"/>
<polygon fill="green" stroke="green" stroke-width="0.19" points="747.8,-25.06 757.07,-19.92 746.62,-18.16 747.8,-25.06"/>
</g>
<!-- &#45;11&#45;&gt;1 -->
<g id="edge50" class="edge">
<title>&#45;11&#45;&gt;1</title>
<path fill="none" stroke="green" stroke-width="0.12" d="M487.57,-68.29C476.24,-59.33 457.84,-44.8 443.58,-33.52"/>
<polygon fill="green" stroke="green" stroke-width="0.12" points="445.35,-30.46 435.33,-27.01 441.01,-35.95 445.35,-30.46"/>
</g>
<!-- &#45;11&#45;&gt;3 -->
<g id="edge32" class="edge">
<title>&#45;11&#45;&gt;3</title>
<path fill="none" stroke="green" stroke-width="0.16" d="M514.26,-70.71C517.14,-69.86 520.14,-69.08 523,-68.53 540.04,-65.23 1076.52,-27.9 1203.33,-19.11"/>
<polygon fill="green" stroke="green" stroke-width="0.16" points="1203.93,-22.58 1213.66,-18.39 1203.45,-15.59 1203.93,-22.58"/>
</g>
<!-- &#45;12 -->
<g id="node12" class="node">
<title>&#45;12</title>
<polygon fill="lightgray" stroke="black" points="414,-86.53 382,-86.53 382,-68.53 414,-68.53 414,-86.53"/>
<text text-anchor="middle" x="398" y="-75.33" font-family="Times,serif" font-size="9.00">&#45;12</text>
</g>
<!-- &#45;12&#45;&gt;1 -->
<g id="edge28" class="edge">
<title>&#45;12&#45;&gt;1</title>
<path fill="none" stroke="red" stroke-width="0.24" d="M401.48,-68.29C404.45,-61.23 408.9,-50.7 412.97,-41.03"/>
<polygon fill="red" stroke="red" stroke-width="0.24" points="416.2,-42.39 416.86,-31.82 409.75,-39.67 416.2,-42.39"/>
</g>
<!-- &#45;12&#45;&gt;2 -->
<g id="edge22" class="edge">
<title>&#45;12&#45;&gt;2</title>
<path fill="none" stroke="red" stroke-width="0.44" d="M414,-70.84C416.96,-69.95 420.05,-69.13 423,-68.53 426.35,-67.85 849.5,-29.59 959.9,-19.62"/>
<polygon fill="red" stroke="red" stroke-width="0.44" points="960.22,-23.11 969.86,-18.72 959.59,-16.13 960.22,-23.11"/>
</g>
<!-- &#45;13 -->
<g id="node13" class="node">
<title>&#45;13</title>
<polygon fill="lightgray" stroke="black" points="1878,-86.53 1846,-86.53 1846,-68.53 1878,-68.53 1878,-86.53"/>
<text text-anchor="middle" x="1862" y="-75.33" font-family="Times,serif" font-size="9.00">&#45;13</text>
</g>
<!-- &#45;14 -->
<g id="node14" class="node">
<title>&#45;14</title>
<polygon fill="lightgray" stroke="black" points="1440,-86.53 1408,-86.53 1408,-68.53 1440,-68.53 1440,-86.53"/>
<text text-anchor="middle" x="1424" y="-75.33" font-family="Times,serif" font-size="9.00">&#45;14</text>
</g>
<!-- &#45;14&#45;&gt;0 -->
<g id="edge64" class="edge">
<title>&#45;14&#45;&gt;0</title>
<path fill="none" stroke="green" stroke-width="0.39" d="M1407.73,-70.73C1404.85,-69.88 1401.86,-69.09 1399,-68.53 1395.25,-67.78 917.72,-29.01 799.33,-19.4"/>
<polygon fill="green" stroke="green" stroke-width="0.39" points="799.56,-15.91 789.31,-18.59 799,-22.88 799.56,-15.91"/>
</g>
<!-- &#45;14&#45;&gt;3 -->
<g id="edge16" class="edge">
<title>&#45;14&#45;&gt;3</title>
<path fill="none" stroke="red" stroke-width="0.2" d="M1407.87,-71.33C1404.92,-70.39 1401.87,-69.42 1399,-68.53 1348.02,-52.64 1288.19,-34.64 1255.15,-24.76"/>
<polygon fill="red" stroke="red" stroke-width="0.2" points="1255.99,-21.36 1245.4,-21.85 1253.98,-28.07 1255.99,-21.36"/>
</g>
<!-- &#45;15 -->
<g id="node15" class="node">
<title>&#45;15</title>
<polygon fill="lightgray" stroke="black" points="952,-86.53 920,-86.53 920,-68.53 952,-68.53 952,-86.53"/>
<text text-anchor="middle" x="936" y="-75.33" font-family="Times,serif" font-size="9.00">&#45;15</text>
</g>
<!-- &#45;15&#45;&gt;0 -->
<g id="edge17" class="edge">
<title>&#45;15&#45;&gt;0</title>
<path fill="none" stroke="red" stroke-width="0.17" d="M919.78,-70.63C891.17,-60.23 831.6,-38.57 797.8,-26.28"/>
<polygon fill="red" stroke="red" stroke-width="0.17" points="798.8,-22.92 788.21,-22.79 796.41,-29.5 798.8,-22.92"/>
</g>
<!-- &#45;15&#45;&gt;2 -->
<g id="edge15" class="edge">
<title>&#45;15&#45;&gt;2</title>
<path fill="none" stroke="red" stroke-width="0.39" d="M942.95,-68.29C949.79,-60.18 960.5,-47.49 969.52,-36.79"/>
<polygon fill="red" stroke="red" stroke-width="0.39" points="972.23,-39.01 976,-29.11 966.88,-34.5 972.23,-39.01"/>
</g>
<!-- &#45;16 -->
<g id="node16" class="node">
<title>&#45;16</title>
<polygon fill="lightgray" stroke="black" points="1728,-86.53 1696,-86.53 1696,-68.53 1728,-68.53 1728,-86.53"/>
<text text-anchor="middle" x="1712" y="-75.33" font-family="Times,serif" font-size="9.00">&#45;16</text>
</g>
<!-- &#45;16&#45;&gt;3 -->
<g id="edge9" class="edge">
<title>&#45;16&#45;&gt;3</title>
<path fill="none" stroke="red" stroke-width="0.11" d="M1695.99,-70.89C1693.03,-69.99 1689.94,-69.16 1687,-68.53 1525.82,-34.05 1327.38,-21.84 1256.61,-18.41"/>
<polygon fill="red" stroke="red" stroke-width="0.11" points="1256.53,-14.9 1246.38,-17.93 1256.2,-21.89 1256.53,-14.9"/>
</g>
<!-- &#45;17 -->
<g id="node17" class="node">
<title>&#45;17</title>
<polygon fill="lightgray" stroke="black" points="464,-86.53 432,-86.53 432,-68.53 464,-68.53 464,-86.53"/>
<text text-anchor="middle" x="448" y="-75.33" font-family="Times,serif" font-size="9.00">&#45;17</text>
</g>
<!-- &#45;17&#45;&gt;0 -->
<g id="edge20" class="edge">
<title>&#45;17&#45;&gt;0</title>
<path fill="none" stroke="red" stroke-width="0.21" d="M464.04,-71.03C467,-70.12 470.08,-69.24 473,-68.53 572.92,-44.13 694.33,-27.2 746.79,-20.48"/>
<polygon fill="red" stroke="red" stroke-width="0.21" points="747.42,-23.93 756.9,-19.2 746.54,-16.98 747.42,-23.93"/>
</g>
<!-- &#45;17&#45;&gt;1 -->
<g id="edge39" class="edge">
<title>&#45;17&#45;&gt;1</title>
<path fill="none" stroke="green" stroke-width="0.16" d="M444.52,-68.29C441.55,-61.23 437.1,-50.7 433.03,-41.03"/>
<polygon fill="green" stroke="green" stroke-width="0.16" points="436.25,-39.67 429.14,-31.82 429.8,-42.39 436.25,-39.67"/>
</g>
<!-- &#45;17&#45;&gt;2 -->
<g id="edge81" class="edge">
<title>&#45;17&#45;&gt;2</title>
<path fill="none" stroke="red" stroke-width="0.27" d="M464.01,-70.86C466.97,-69.97 470.06,-69.14 473,-68.53 497.1,-63.53 858.59,-29.27 959.83,-19.72"/>
<polygon fill="red" stroke="red" stroke-width="0.27" points="960.2,-23.21 969.83,-18.78 959.54,-16.24 960.2,-23.21"/>
</g>
<!-- &#45;18 -->
<g id="node18" class="node">
<title>&#45;18</title>
<polygon fill="lightgray" stroke="black" points="32,-86.53 0,-86.53 0,-68.53 32,-68.53 32,-86.53"/>
<text text-anchor="middle" x="16" y="-75.33" font-family="Times,serif" font-size="9.00">&#45;18</text>
</g>
<!-- &#45;18&#45;&gt;1 -->
<g id="edge41" class="edge">
<title>&#45;18&#45;&gt;1</title>
<path fill="none" stroke="red" stroke-width="0.21" d="M32.02,-70.94C34.98,-70.04 38.07,-69.19 41,-68.53 172.78,-38.84 334.28,-24.1 396.67,-19.19"/>
<polygon fill="red" stroke="red" stroke-width="0.21" points="397.11,-22.67 406.81,-18.41 396.57,-15.69 397.11,-22.67"/>
</g>
<!-- &#45;19 -->
<g id="node19" class="node">
<title>&#45;19</title>
<polygon fill="lightgray" stroke="black" points="564,-86.53 532,-86.53 532,-68.53 564,-68.53 564,-86.53"/>
<text text-anchor="middle" x="548" y="-75.33" font-family="Times,serif" font-size="9.00">&#45;19</text>
</g>
<!-- &#45;19&#45;&gt;0 -->
<g id="edge65" class="edge">
<title>&#45;19&#45;&gt;0</title>
<path fill="none" stroke="red" stroke-width="0.43" d="M564.1,-71.22C567.05,-70.29 570.11,-69.36 573,-68.53 635.34,-50.58 709.5,-32.39 747.6,-23.27"/>
<polygon fill="red" stroke="red" stroke-width="0.43" points="748.44,-26.66 757.36,-20.94 746.82,-19.86 748.44,-26.66"/>
</g>
<!-- &#45;19&#45;&gt;1 -->
<g id="edge68" class="edge">
<title>&#45;19&#45;&gt;1</title>
<path fill="none" stroke="green" stroke-width="0.21" d="M531.91,-68.9C510.26,-58.63 471.58,-40.29 446.62,-28.46"/>
<polygon fill="green" stroke="green" stroke-width="0.21" points="448.01,-25.25 437.47,-24.13 445.01,-31.57 448.01,-25.25"/>
</g>
<!-- &#45;19&#45;&gt;3 -->
<g id="edge21" class="edge">
<title>&#45;19&#45;&gt;3</title>
<path fill="none" stroke="green" stroke-width="0.3" d="M564.26,-70.72C567.14,-69.87 570.14,-69.09 573,-68.53 604.47,-62.35 1084.94,-27.66 1203.64,-19.15"/>
<polygon fill="green" stroke="green" stroke-width="0.3" points="1203.95,-22.64 1213.67,-18.43 1203.45,-15.65 1203.95,-22.64"/>
</g>
<!-- &#45;20 -->
<g id="node20" class="node">
<title>&#45;20</title>
<polygon fill="lightgray" stroke="black" points="714,-86.53 682,-86.53 682,-68.53 714,-68.53 714,-86.53"/>
<text text-anchor="middle" x="698" y="-75.33" font-family="Times,serif" font-size="9.00">&#45;20</text>
</g>
<!-- &#45;20&#45;&gt;0 -->
<g id="edge5" class="edge">
<title>&#45;20&#45;&gt;0</title>
<path fill="none" stroke="green" stroke-width="0.17" d="M708.43,-68.29C719.76,-59.33 738.16,-44.8 752.42,-33.52"/>
<polygon fill="green" stroke="green" stroke-width="0.17" points="754.99,-35.95 760.67,-27.01 750.65,-30.46 754.99,-35.95"/>
</g>
<!-- &#45;20&#45;&gt;1 -->
<g id="edge1" class="edge">
<title>&#45;20&#45;&gt;1</title>
<path fill="none" stroke="red" stroke-width="0.37" d="M681.94,-71.11C678.98,-70.19 675.91,-69.29 673,-68.53 592.05,-47.34 494.48,-29.51 448.86,-21.62"/>
<polygon fill="red" stroke="red" stroke-width="0.37" points="449.38,-18.16 438.93,-19.92 448.2,-25.06 449.38,-18.16"/>
</g>
<!-- &#45;20&#45;&gt;3 -->
<g id="edge34" class="edge">
<title>&#45;20&#45;&gt;3</title>
<path fill="none" stroke="red" stroke-width="0.27" d="M714.01,-70.86C716.97,-69.97 720.06,-69.14 723,-68.53 816.54,-49.06 1113.15,-25.95 1203.57,-19.2"/>
<polygon fill="red" stroke="red" stroke-width="0.27" points="1204.07,-22.67 1213.78,-18.44 1203.55,-15.69 1204.07,-22.67"/>
</g>
<!-- &#45;21 -->
<g id="node21" class="node">
<title>&#45;21</title>
<polygon fill="lightgray" stroke="black" points="1634,-86.53 1602,-86.53 1602,-68.53 1634,-68.53 1634,-86.53"/>
<text text-anchor="middle" x="1618" y="-75.33" font-family="Times,serif" font-size="9.00">&#45;21</text>
</g>
<!-- &#45;21&#45;&gt;2 -->
<g id="edge55" class="edge">
<title>&#45;21&#45;&gt;2</title>
<path fill="none" stroke="green" stroke-width="0.17" d="M1601.73,-70.74C1598.85,-69.88 1595.86,-69.1 1593,-68.53 1535.47,-57.05 1121.69,-26.96 1012.41,-19.14"/>
<polygon fill="green" stroke="green" stroke-width="0.17" points="1012.48,-15.64 1002.25,-18.42 1011.98,-22.62 1012.48,-15.64"/>
</g>
<!-- &#45;21&#45;&gt;3 -->
<g id="edge30" class="edge">
<title>&#45;21&#45;&gt;3</title>
<path fill="none" stroke="red" stroke-width="0.36" d="M1601.97,-70.96C1599.01,-70.05 1595.93,-69.2 1593,-68.53 1468.89,-40.12 1317.08,-24.81 1256.65,-19.47"/>
<polygon fill="red" stroke="red" stroke-width="0.36" points="1256.73,-15.96 1246.46,-18.59 1256.12,-22.94 1256.73,-15.96"/>
</g>
<!-- &#45;22 -->
<g id="node22" class="node">
<title>&#45;22</title>
<polygon fill="lightgray" stroke="black" points="1146,-86.53 1114,-86.53 1114,-68.53 1146,-68.53 1146,-86.53"/>
<text text-anchor="middle" x="1130" y="-75.33" font-family="Times,serif" font-size="9.00">&#45;22</text>
</g>
<!-- &#45;22&#45;&gt;0 -->
<g id="edge45" class="edge">
<title>&#45;22&#45;&gt;0</title>
<path fill="none" stroke="green" stroke-width="0.18" d="M1113.97,-70.99C1111.01,-70.08 1107.93,-69.22 1105,-68.53 992.71,-42.06 855.73,-25.89 799.26,-19.9"/>
<polygon fill="green" stroke="green" stroke-width="0.18" points="799.37,-16.4 789.07,-18.84 798.65,-23.36 799.37,-16.4"/>
</g>
<!-- &#45;22&#45;&gt;3 -->
<g id="edge6" class="edge">
<title>&#45;22&#45;&gt;3</title>
<path fill="none" stroke="green" stroke-width="0.56" d="M1143.9,-68.29C1160.32,-58.56 1187.86,-42.24 1207.37,-30.68"/>
<polygon fill="green" stroke="green" stroke-width="0.56" points="1209.4,-33.54 1216.21,-25.43 1205.83,-27.52 1209.4,-33.54"/>
</g>
<!-- &#45;23 -->
<g id="node23" class="node">
<title>&#45;23</title>
<polygon fill="lightgray" stroke="black" points="1540,-86.53 1508,-86.53 1508,-68.53 1540,-68.53 1540,-86.53"/>
<text text-anchor="middle" x="1524" y="-75.33" font-family="Times,serif" font-size="9.00">&#45;23</text>
</g>
<!-- &#45;23&#45;&gt;2 -->
<g id="edge66" class="edge">
<title>&#45;23&#45;&gt;2</title>
<path fill="none" stroke="red" stroke-width="0.14" d="M1507.99,-70.86C1505.03,-69.97 1501.94,-69.14 1499,-68.53 1404.15,-48.84 1102.96,-25.8 1012.16,-19.15"/>
<polygon fill="red" stroke="red" stroke-width="0.14" points="1012.38,-15.65 1002.15,-18.42 1011.87,-22.64 1012.38,-15.65"/>
</g>
<!-- &#45;23&#45;&gt;3 -->
<g id="edge27" class="edge">
<title>&#45;23&#45;&gt;3</title>
<path fill="none" stroke="red" stroke-width="0.16" d="M1507.95,-71.07C1504.99,-70.16 1501.91,-69.27 1499,-68.53 1410.97,-46.14 1304.51,-28.62 1256.16,-21.17"/>
<polygon fill="red" stroke="red" stroke-width="0.16" points="1256.63,-17.7 1246.22,-19.65 1255.58,-24.62 1256.63,-17.7"/>
</g>
<!-- &#45;24 -->
<g id="node24" class="node">
<title>&#45;24</title>
<polygon fill="lightgray" stroke="black" points="1052,-86.53 1020,-86.53 1020,-68.53 1052,-68.53 1052,-86.53"/>
<text text-anchor="middle" x="1036" y="-75.33" font-family="Times,serif" font-size="9.00">&#45;24</text>
</g>
<!-- &#45;24&#45;&gt;0 -->
<g id="edge63" class="edge">
<title>&#45;24&#45;&gt;0</title>
<path fill="none" stroke="green" stroke-width="0.26" d="M1019.93,-71.13C1016.98,-70.21 1013.91,-69.3 1011,-68.53 934.61,-48.13 842.77,-30.17 798.85,-21.97"/>
<polygon fill="green" stroke="green" stroke-width="0.26" points="799.47,-18.53 789,-20.15 798.2,-25.41 799.47,-18.53"/>
</g>
<!-- &#45;24&#45;&gt;2 -->
<g id="edge26" class="edge">
<title>&#45;24&#45;&gt;2</title>
<path fill="none" stroke="green" stroke-width="0.28" d="M1029.05,-68.29C1022.21,-60.18 1011.5,-47.49 1002.48,-36.79"/>
<polygon fill="green" stroke="green" stroke-width="0.28" points="1005.12,-34.5 996,-29.11 999.77,-39.01 1005.12,-34.5"/>
</g>
<!-- &#45;25 -->
<g id="node25" class="node">
<title>&#45;25</title>
<polygon fill="lightgray" stroke="black" points="1196,-86.53 1164,-86.53 1164,-68.53 1196,-68.53 1196,-86.53"/>
<text text-anchor="middle" x="1180" y="-75.33" font-family="Times,serif" font-size="9.00">&#45;25</text>
</g>
<!-- &#45;25&#45;&gt;0 -->
<g id="edge51" class="edge">
<title>&#45;25&#45;&gt;0</title>
<path fill="none" stroke="green" stroke-width="0.25" d="M1163.98,-70.94C1161.02,-70.04 1157.93,-69.19 1155,-68.53 1023.22,-38.84 861.72,-24.1 799.33,-19.19"/>
<polygon fill="green" stroke="green" stroke-width="0.25" points="799.43,-15.69 789.19,-18.41 798.89,-22.67 799.43,-15.69"/>
</g>
<!-- &#45;25&#45;&gt;3 -->
<g id="edge40" class="edge">
<title>&#45;25&#45;&gt;3</title>
<path fill="none" stroke="red" stroke-width="0.13" d="M1186.95,-68.29C1193.79,-60.18 1204.5,-47.49 1213.52,-36.79"/>
<polygon fill="red" stroke="red" stroke-width="0.13" points="1216.23,-39.01 1220,-29.11 1210.88,-34.5 1216.23,-39.01"/>
</g>
<!-- &#45;26 -->
<g id="node26" class="node">
<title>&#45;26</title>
<polygon fill="lightgray" stroke="black" points="176,-86.53 144,-86.53 144,-68.53 176,-68.53 176,-86.53"/>
<text text-anchor="middle" x="160" y="-75.33" font-family="Times,serif" font-size="9.00">&#45;26</text>
</g>
<!-- &#45;26&#45;&gt;0 -->
<g id="edge2" class="edge">
<title>&#45;26&#45;&gt;0</title>
<path fill="none" stroke="green" stroke-width="0.14" d="M176.27,-70.75C179.15,-69.89 182.14,-69.1 185,-68.53 398.44,-25.63 662.6,-18.63 746.28,-17.49"/>
<polygon fill="green" stroke="green" stroke-width="0.14" points="746.48,-20.98 756.44,-17.36 746.4,-13.98 746.48,-20.98"/>
</g>
<!-- &#45;26&#45;&gt;1 -->
<g id="edge7" class="edge">
<title>&#45;26&#45;&gt;1</title>
<path fill="none" stroke="red" stroke-width="0.37" d="M176.07,-71.13C179.02,-70.21 182.09,-69.3 185,-68.53 261.39,-48.13 353.23,-30.17 397.15,-21.97"/>
<polygon fill="red" stroke="red" stroke-width="0.37" points="397.8,-25.41 407,-20.15 396.53,-18.53 397.8,-25.41"/>
</g>
<!-- &#45;27 -->
<g id="node27" class="node">
<title>&#45;27</title>
<polygon fill="lightgray" stroke="black" points="1246,-86.53 1214,-86.53 1214,-68.53 1246,-68.53 1246,-86.53"/>
<text text-anchor="middle" x="1230" y="-75.33" font-family="Times,serif" font-size="9.00">&#45;27</text>
</g>
<!-- &#45;27&#45;&gt;0 -->
<g id="edge80" class="edge">
<title>&#45;27&#45;&gt;0</title>
<path fill="none" stroke="red" stroke-width="0.26" d="M1213.99,-70.9C1211.02,-70.01 1207.94,-69.17 1205,-68.53 1126.68,-51.51 881.28,-27.47 799.68,-19.75"/>
<polygon fill="red" stroke="red" stroke-width="0.26" points="799.79,-16.25 789.5,-18.79 799.13,-23.22 799.79,-16.25"/>
</g>
<!-- &#45;27&#45;&gt;2 -->
<g id="edge4" class="edge">
<title>&#45;27&#45;&gt;2</title>
<path fill="none" stroke="red" stroke-width="0.11" d="M1213.92,-71.17C1210.96,-70.25 1207.9,-69.33 1205,-68.53 1135.73,-49.37 1052.86,-31.26 1011.76,-22.6"/>
<polygon fill="red" stroke="red" stroke-width="0.11" points="1012.28,-19.13 1001.78,-20.5 1010.85,-25.98 1012.28,-19.13"/>
</g>
<!-- &#45;27&#45;&gt;3 -->
<g id="edge11" class="edge">
<title>&#45;27&#45;&gt;3</title>
<path fill="none" stroke="red" stroke-width="0.18" d="M1230,-68.29C1230,-61.7 1230,-52.1 1230,-43"/>
<polygon fill="red" stroke="red" stroke-width="0.18" points="1233.5,-42.76 1230,-32.76 1226.5,-42.76 1233.5,-42.76"/>
</g>
<!-- &#45;28 -->
<g id="node28" class="node">
<title>&#45;28</title>
<polygon fill="lightgray" stroke="black" points="614,-86.53 582,-86.53 582,-68.53 614,-68.53 614,-86.53"/>
<text text-anchor="middle" x="598" y="-75.33" font-family="Times,serif" font-size="9.00">&#45;28</text>
</g>
<!-- &#45;28&#45;&gt;0 -->
<g id="edge46" class="edge">
<title>&#45;28&#45;&gt;0</title>
<path fill="none" stroke="red" stroke-width="0.24" d="M614.15,-71.06C644.8,-60.68 711.59,-38.06 748.05,-25.71"/>
<polygon fill="red" stroke="red" stroke-width="0.24" points="749.54,-28.9 757.89,-22.38 747.3,-22.27 749.54,-28.9"/>
</g>
<!-- &#45;29 -->
<g id="node29" class="node">
<title>&#45;29</title>
<polygon fill="lightgray" stroke="black" points="320,-86.53 288,-86.53 288,-68.53 320,-68.53 320,-86.53"/>
<text text-anchor="middle" x="304" y="-75.33" font-family="Times,serif" font-size="9.00">&#45;29</text>
</g>
<!-- &#45;29&#45;&gt;0 -->
<g id="edge70" class="edge">
<title>&#45;29&#45;&gt;0</title>
<path fill="none" stroke="red" stroke-width="0.16" d="M320.01,-70.9C322.97,-70 326.06,-69.16 329,-68.53 485.24,-34.84 677.5,-22.18 746.67,-18.51"/>
<polygon fill="red" stroke="red" stroke-width="0.16" points="746.88,-22.01 756.69,-18 746.52,-15.02 746.88,-22.01"/>
</g>
<!-- &#45;29&#45;&gt;1 -->
<g id="edge76" class="edge">
<title>&#45;29&#45;&gt;1</title>
<path fill="none" stroke="green" stroke-width="0.18" d="M320.05,-68.53C340.48,-58.36 375.93,-40.7 399.43,-29"/>
<polygon fill="green" stroke="green" stroke-width="0.18" points="401.3,-31.98 408.69,-24.39 398.18,-25.71 401.3,-31.98"/>
</g>
<!-- &#45;29&#45;&gt;2 -->
<g id="edge42" class="edge">
<title>&#45;29&#45;&gt;2</title>
<path fill="none" stroke="green" stroke-width="0.36" d="M320.26,-70.71C323.14,-69.86 326.14,-69.08 329,-68.53 542.06,-27.17 599.69,-50.23 816,-32.53 866.68,-28.38 925.8,-22.93 959.28,-19.79"/>
<polygon fill="green" stroke="green" stroke-width="0.36" points="959.97,-23.24 969.6,-18.82 959.31,-16.28 959.97,-23.24"/>
</g>
<!-- &#45;30 -->
<g id="node30" class="node">
<title>&#45;30</title>
<polygon fill="lightgray" stroke="black" points="226,-86.53 194,-86.53 194,-68.53 226,-68.53 226,-86.53"/>
<text text-anchor="middle" x="210" y="-75.33" font-family="Times,serif" font-size="9.00">&#45;30</text>
</g>
<!-- &#45;30&#45;&gt;1 -->
<g id="edge72" class="edge">
<title>&#45;30&#45;&gt;1</title>
<path fill="none" stroke="red" stroke-width="0.37" d="M226.11,-71.26C229.06,-70.33 232.12,-69.38 235,-68.53 292.87,-51.39 361.38,-33.24 397.6,-23.82"/>
<polygon fill="red" stroke="red" stroke-width="0.37" points="398.54,-27.19 407.34,-21.29 396.78,-20.41 398.54,-27.19"/>
</g>
<!-- &#45;30&#45;&gt;2 -->
<g id="edge12" class="edge">
<title>&#45;30&#45;&gt;2</title>
<path fill="none" stroke="green" stroke-width="0.4" d="M226.26,-70.69C229.14,-69.84 232.13,-69.07 235,-68.53 489.26,-20.74 558.02,-52.1 816,-32.53 866.7,-28.68 925.82,-23.13 959.28,-19.89"/>
<polygon fill="green" stroke="green" stroke-width="0.4" points="959.99,-23.34 969.6,-18.89 959.31,-16.37 959.99,-23.34"/>
</g>
<!-- &#45;31 -->
<g id="node31" class="node">
<title>&#45;31</title>
<polygon fill="lightgray" stroke="black" points="764,-86.53 732,-86.53 732,-68.53 764,-68.53 764,-86.53"/>
<text text-anchor="middle" x="748" y="-75.33" font-family="Times,serif" font-size="9.00">&#45;31</text>
</g>
<!-- &#45;31&#45;&gt;0 -->
<g id="edge38" class="edge">
<title>&#45;31&#45;&gt;0</title>
<path fill="none" stroke="red" stroke-width="0.23" d="M751.48,-68.29C754.45,-61.23 758.9,-50.7 762.97,-41.03"/>
<polygon fill="red" stroke="red" stroke-width="0.23" points="766.2,-42.39 766.86,-31.82 759.75,-39.67 766.2,-42.39"/>
</g>
<!-- &#45;31&#45;&gt;2 -->
<g id="edge75" class="edge">
<title>&#45;31&#45;&gt;2</title>
<path fill="none" stroke="red" stroke-width="0.24" d="M764.09,-71.19C767.04,-70.26 770.1,-69.34 773,-68.53 840.08,-49.75 920.19,-31.6 960.36,-22.79"/>
<polygon fill="red" stroke="red" stroke-width="0.24" points="961.11,-26.21 970.13,-20.66 959.62,-19.37 961.11,-26.21"/>
</g>
<!-- &#45;32 -->
<g id="node32" class="node">
<title>&#45;32</title>
<polygon fill="lightgray" stroke="black" points="1296,-86.53 1264,-86.53 1264,-68.53 1296,-68.53 1296,-86.53"/>
<text text-anchor="middle" x="1280" y="-75.33" font-family="Times,serif" font-size="9.00">&#45;32</text>
</g>
<!-- &#45;32&#45;&gt;0 -->
<g id="edge14" class="edge">
<title>&#45;32&#45;&gt;0</title>
<path fill="none" stroke="green" stroke-width="0.11" d="M1263.99,-70.87C1261.03,-69.98 1257.94,-69.15 1255,-68.53 1166.56,-49.88 887.16,-26.43 799.55,-19.37"/>
<polygon fill="green" stroke="green" stroke-width="0.11" points="799.64,-15.87 789.39,-18.55 799.08,-22.84 799.64,-15.87"/>
</g>
<!-- &#45;32&#45;&gt;2 -->
<g id="edge36" class="edge">
<title>&#45;32&#45;&gt;2</title>
<path fill="none" stroke="green" stroke-width="0.17" d="M1263.95,-71.07C1260.99,-70.16 1257.91,-69.27 1255,-68.53 1166.97,-46.14 1060.51,-28.62 1012.16,-21.17"/>
<polygon fill="green" stroke="green" stroke-width="0.17" points="1012.63,-17.7 1002.22,-19.65 1011.58,-24.62 1012.63,-17.7"/>
</g>
<!-- &#45;32&#45;&gt;3 -->
<g id="edge82" class="edge">
<title>&#45;32&#45;&gt;3</title>
<path fill="none" stroke="green" stroke-width="0.16" d="M1273.05,-68.29C1266.21,-60.18 1255.5,-47.49 1246.48,-36.79"/>
<polygon fill="green" stroke="green" stroke-width="0.16" points="1249.12,-34.5 1240,-29.11 1243.77,-39.01 1249.12,-34.5"/>
</g>
<!-- &#45;33 -->
<g id="node33" class="node">
<title>&#45;33</title>
<polygon fill="lightgray" stroke="black" points="1928,-86.53 1896,-86.53 1896,-68.53 1928,-68.53 1928,-86.53"/>
<text text-anchor="middle" x="1912" y="-75.33" font-family="Times,serif" font-size="9.00">&#45;33</text>
</g>
<!-- &#45;34 -->
<g id="node34" class="node">
<title>&#45;34</title>
<polygon fill="lightgray" stroke="black" points="82,-86.53 50,-86.53 50,-68.53 82,-68.53 82,-86.53"/>
<text text-anchor="middle" x="66" y="-75.33" font-family="Times,serif" font-size="9.00">&#45;34</text>
</g>
<!-- &#45;34&#45;&gt;0 -->
<g id="edge25" class="edge">
<title>&#45;34&#45;&gt;0</title>
<path fill="none" stroke="green" stroke-width="0.25" d="M82.26,-70.72C85.14,-69.86 88.14,-69.08 91,-68.53 220.16,-43.37 636.88,-23.35 746.42,-18.43"/>
<polygon fill="green" stroke="green" stroke-width="0.25" points="746.76,-21.91 756.59,-17.97 746.45,-14.92 746.76,-21.91"/>
</g>
<!-- &#45;34&#45;&gt;1 -->
<g id="edge47" class="edge">
<title>&#45;34&#45;&gt;1</title>
<path fill="none" stroke="green" stroke-width="0.2" d="M82.03,-70.99C84.99,-70.08 88.07,-69.22 91,-68.53 203.29,-42.06 340.27,-25.89 396.74,-19.9"/>
<polygon fill="green" stroke="green" stroke-width="0.2" points="397.35,-23.36 406.93,-18.84 396.63,-16.4 397.35,-23.36"/>
</g>
<!-- &#45;35 -->
<g id="node35" class="node">
<title>&#45;35</title>
<polygon fill="lightgray" stroke="black" points="814,-86.53 782,-86.53 782,-68.53 814,-68.53 814,-86.53"/>
<text text-anchor="middle" x="798" y="-75.33" font-family="Times,serif" font-size="9.00">&#45;35</text>
</g>
<!-- &#45;35&#45;&gt;0 -->
<g id="edge24" class="edge">
<title>&#45;35&#45;&gt;0</title>
<path fill="none" stroke="red" stroke-width="0.4" d="M794.52,-68.29C791.55,-61.23 787.1,-50.7 783.03,-41.03"/>
<polygon fill="red" stroke="red" stroke-width="0.4" points="786.25,-39.67 779.14,-31.82 779.8,-42.39 786.25,-39.67"/>
</g>
<!-- &#45;35&#45;&gt;1 -->
<g id="edge69" class="edge">
<title>&#45;35&#45;&gt;1</title>
<path fill="none" stroke="green" stroke-width="0.11" d="M781.97,-70.97C779.01,-70.07 775.93,-69.21 773,-68.53 653.84,-40.93 508.25,-25.25 449.47,-19.64"/>
<polygon fill="green" stroke="green" stroke-width="0.11" points="449.51,-16.13 439.22,-18.68 448.85,-23.1 449.51,-16.13"/>
</g>
<!-- &#45;35&#45;&gt;2 -->
<g id="edge62" class="edge">
<title>&#45;35&#45;&gt;2</title>
<path fill="none" stroke="red" stroke-width="0.44" d="M814.13,-71.35C817.08,-70.41 820.13,-69.44 823,-68.53 871.78,-53.05 928.83,-35.16 960.86,-25.13"/>
<polygon fill="red" stroke="red" stroke-width="0.44" points="962.21,-28.37 970.71,-22.04 960.12,-21.69 962.21,-28.37"/>
</g>
<!-- &#45;35&#45;&gt;3 -->
<g id="edge73" class="edge">
<title>&#45;35&#45;&gt;3</title>
<path fill="none" stroke="red" stroke-width="0.24" d="M814.02,-70.92C816.98,-70.02 820.06,-69.18 823,-68.53 964.33,-37.29 1137.79,-23.34 1203.28,-18.92"/>
<polygon fill="red" stroke="red" stroke-width="0.24" points="1203.78,-22.39 1213.53,-18.24 1203.32,-15.41 1203.78,-22.39"/>
</g>
<!-- &#45;36 -->
<g id="node36" class="node">
<title>&#45;36</title>
<polygon fill="lightgray" stroke="black" points="1346,-86.53 1314,-86.53 1314,-68.53 1346,-68.53 1346,-86.53"/>
<text text-anchor="middle" x="1330" y="-75.33" font-family="Times,serif" font-size="9.00">&#45;36</text>
</g>
<!-- &#45;36&#45;&gt;0 -->
<g id="edge67" class="edge">
<title>&#45;36&#45;&gt;0</title>
<path fill="none" stroke="red" stroke-width="0.15" d="M1314,-70.85C1311.03,-69.96 1307.95,-69.13 1305,-68.53 1255.12,-58.27 899.6,-27.91 799.29,-19.46"/>
<polygon fill="red" stroke="red" stroke-width="0.15" points="799.37,-15.96 789.11,-18.61 798.79,-22.93 799.37,-15.96"/>
</g>
<!-- &#45;36&#45;&gt;2 -->
<g id="edge44" class="edge">
<title>&#45;36&#45;&gt;2</title>
<path fill="none" stroke="green" stroke-width="0.13" d="M1313.96,-71C1311,-70.1 1307.93,-69.23 1305,-68.53 1197.81,-42.92 1067.27,-26.42 1012.34,-20.14"/>
<polygon fill="green" stroke="green" stroke-width="0.13" points="1012.43,-16.62 1002.1,-18.98 1011.65,-23.58 1012.43,-16.62"/>
</g>
<!-- &#45;36&#45;&gt;3 -->
<g id="edge52" class="edge">
<title>&#45;36&#45;&gt;3</title>
<path fill="none" stroke="red" stroke-width="0.11" d="M1316.1,-68.29C1299.68,-58.56 1272.14,-42.24 1252.63,-30.68"/>
<polygon fill="red" stroke="red" stroke-width="0.11" points="1254.17,-27.52 1243.79,-25.43 1250.6,-33.54 1254.17,-27.52"/>
</g>
<!-- &#45;37 -->
<g id="node37" class="node">
<title>&#45;37</title>
<polygon fill="lightgray" stroke="black" points="1002,-86.53 970,-86.53 970,-68.53 1002,-68.53 1002,-86.53"/>
<text text-anchor="middle" x="986" y="-75.33" font-family="Times,serif" font-size="9.00">&#45;37</text>
</g>
<!-- &#45;37&#45;&gt;1 -->
<g id="edge77" class="edge">
<title>&#45;37&#45;&gt;1</title>
<path fill="none" stroke="red" stroke-width="0.12" d="M970,-70.85C967.04,-69.96 963.95,-69.13 961,-68.53 767.44,-28.82 528.26,-19.75 449.5,-17.78"/>
<polygon fill="red" stroke="red" stroke-width="0.12" points="449.55,-14.28 439.48,-17.55 449.39,-21.28 449.55,-14.28"/>
</g>
<!-- &#45;37&#45;&gt;3 -->
<g id="edge43" class="edge">
<title>&#45;37&#45;&gt;3</title>
<path fill="none" stroke="green" stroke-width="0.13" d="M1002.08,-71.17C1005.04,-70.25 1008.1,-69.33 1011,-68.53 1080.27,-49.37 1163.14,-31.26 1204.24,-22.6"/>
<polygon fill="green" stroke="green" stroke-width="0.13" points="1205.15,-25.98 1214.22,-20.5 1203.72,-19.13 1205.15,-25.98"/>
</g>
<!-- &#45;38 -->
<g id="node38" class="node">
<title>&#45;38</title>
<polygon fill="lightgray" stroke="black" points="1778,-86.53 1746,-86.53 1746,-68.53 1778,-68.53 1778,-86.53"/>
<text text-anchor="middle" x="1762" y="-75.33" font-family="Times,serif" font-size="9.00">&#45;38</text>
</g>
<!-- &#45;38&#45;&gt;3 -->
<g id="edge19" class="edge">
<title>&#45;38&#45;&gt;3</title>
<path fill="none" stroke="green" stroke-width="0.22" d="M1745.99,-70.86C1743.03,-69.97 1739.94,-69.14 1737,-68.53 1555.8,-30.81 1332.16,-20.5 1256.46,-17.99"/>
<polygon fill="green" stroke="green" stroke-width="0.22" points="1256.49,-14.49 1246.39,-17.68 1256.27,-21.49 1256.49,-14.49"/>
</g>
<!-- &#45;39 -->
<g id="node39" class="node">
<title>&#45;39</title>
<polygon fill="lightgray" stroke="black" points="1490,-86.53 1458,-86.53 1458,-68.53 1490,-68.53 1490,-86.53"/>
<text text-anchor="middle" x="1474" y="-75.33" font-family="Times,serif" font-size="9.00">&#45;39</text>
</g>
<!-- &#45;39&#45;&gt;2 -->
<g id="edge61" class="edge">
<title>&#45;39&#45;&gt;2</title>
<path fill="none" stroke="green" stroke-width="0.28" d="M1457.99,-70.88C1455.03,-69.99 1451.94,-69.15 1449,-68.53 1364.32,-50.48 1097.4,-26.76 1012.33,-19.48"/>
<polygon fill="green" stroke="green" stroke-width="0.28" points="1012.48,-15.98 1002.22,-18.62 1011.89,-22.96 1012.48,-15.98"/>
</g>
<!-- &#45;40 -->
<g id="node40" class="node">
<title>&#45;40</title>
<polygon fill="lightgray" stroke="black" points="664,-86.53 632,-86.53 632,-68.53 664,-68.53 664,-86.53"/>
<text text-anchor="middle" x="648" y="-75.33" font-family="Times,serif" font-size="9.00">&#45;40</text>
</g>
<!-- &#45;40&#45;&gt;1 -->
<g id="edge31" class="edge">
<title>&#45;40&#45;&gt;1</title>
<path fill="none" stroke="red" stroke-width="0.2" d="M631.9,-71.22C628.95,-70.29 625.89,-69.36 623,-68.53 560.66,-50.58 486.5,-32.39 448.4,-23.27"/>
<polygon fill="red" stroke="red" stroke-width="0.2" points="449.18,-19.86 438.64,-20.94 447.56,-26.66 449.18,-19.86"/>
</g>
<!-- &#45;40&#45;&gt;3 -->
<g id="edge57" class="edge">
<title>&#45;40&#45;&gt;3</title>
<path fill="none" stroke="red" stroke-width="0.33" d="M664,-70.84C666.96,-69.95 670.05,-69.13 673,-68.53 776.77,-47.41 1107.99,-25.07 1203.81,-18.91"/>
<polygon fill="red" stroke="red" stroke-width="0.33" points="1204.05,-22.41 1213.81,-18.28 1203.61,-15.42 1204.05,-22.41"/>
</g>
<!-- 0&#45;&gt;0 -->
<g id="edge79" class="edge">
<title>0&#45;&gt;0</title>
<path fill="none" stroke="green" stroke-width="0.17" d="M786.36,-26.06C796.71,-29.72 807.26,-26.46 807.26,-16.26 807.26,-9.57 802.72,-5.87 796.67,-5.14"/>
<polygon fill="green" stroke="green" stroke-width="0.17" points="795.84,-1.72 786.36,-6.47 796.73,-8.67 795.84,-1.72"/>
</g>
</g>
</svg>
