<?xml version="1.0" encoding="UTF-8" standalone="no"?>
<!DOCTYPE svg PUBLIC "-//W3C//DTD SVG 1.1//EN"
 "http://www.w3.org/Graphics/SVG/1.1/DTD/svg11.dtd">
<!-- Generated by graphviz version 2.43.0 (0)
 -->
<!-- Title: %3 Pages: 1 -->
<svg width="1736pt" height="249pt"
 viewBox="0.00 0.00 1736.00 248.55" xmlns="http://www.w3.org/2000/svg" xmlns:xlink="http://www.w3.org/1999/xlink">
<g id="graph0" class="graph" transform="scale(1 1) rotate(0) translate(4 244.55)">
<title>%3</title>
<polygon fill="white" stroke="transparent" points="-4,4 -4,-244.55 1732,-244.55 1732,4 -4,4"/>
<!-- &#45;1 -->
<g id="node1" class="node">
<title>&#45;1</title>
<polygon fill="lightgray" stroke="black" points="458,-240.55 432,-240.55 432,-222.55 458,-222.55 458,-240.55"/>
<text text-anchor="middle" x="445" y="-229.35" font-family="Times,serif" font-size="9.00">&#45;1</text>
</g>
<!-- 0 -->
<g id="node41" class="node">
<title>0</title>
<ellipse fill="lightblue" stroke="black" cx="492" cy="-170.29" rx="16.03" ry="16.03"/>
<text text-anchor="middle" x="492" y="-168.09" font-family="Times,serif" font-size="9.00">0</text>
</g>
<!-- &#45;1&#45;&gt;0 -->
<g id="edge58" class="edge">
<title>&#45;1&#45;&gt;0</title>
<path fill="none" stroke="red" stroke-width="0.76" d="M451.54,-222.31C457.82,-214.38 467.58,-202.07 475.94,-191.53"/>
<polygon fill="red" stroke="red" stroke-width="0.76" points="478.78,-193.59 482.25,-183.58 473.3,-189.24 478.78,-193.59"/>
</g>
<!-- 1 -->
<g id="node42" class="node">
<title>1</title>
<ellipse fill="lightblue" stroke="black" cx="942" cy="-170.29" rx="16.03" ry="16.03"/>
<text text-anchor="middle" x="942" y="-168.09" font-family="Times,serif" font-size="9.00">1</text>
</g>
<!-- &#45;1&#45;&gt;1 -->
<g id="edge61" class="edge">
<title>&#45;1&#45;&gt;1</title>
<path fill="none" stroke="green" stroke-width="1.1" stroke-dasharray="1,5" d="M458.34,-225.12C461.16,-224.14 464.15,-223.21 467,-222.55 634.92,-183.56 843.26,-174.09 915.71,-171.91"/>
<polygon fill="green" stroke="green" stroke-width="1.1" points="915.88,-175.41 925.77,-171.63 915.68,-168.41 915.88,-175.41"/>
</g>
<!-- &#45;2 -->
<g id="node2" class="node">
<title>&#45;2</title>
<polygon fill="lightgray" stroke="black" points="1402,-240.55 1376,-240.55 1376,-222.55 1402,-222.55 1402,-240.55"/>
<text text-anchor="middle" x="1389" y="-229.35" font-family="Times,serif" font-size="9.00">&#45;2</text>
</g>
<!-- &#45;2&#45;&gt;1 -->
<g id="edge42" class="edge">
<title>&#45;2&#45;&gt;1</title>
<path fill="none" stroke="red" stroke-width="0.7" d="M1375.65,-225.15C1372.83,-224.16 1369.85,-223.23 1367,-222.55 1290.37,-204.25 1049.14,-181.1 968.53,-173.69"/>
<polygon fill="red" stroke="red" stroke-width="0.7" points="968.53,-170.17 958.25,-172.75 967.89,-177.14 968.53,-170.17"/>
</g>
<!-- 3 -->
<g id="node44" class="node">
<title>3</title>
<ellipse fill="lightblue" stroke="black" cx="1167" cy="-170.29" rx="16.03" ry="16.03"/>
<text text-anchor="middle" x="1167" y="-168.09" font-family="Times,serif" font-size="9.00">3</text>
</g>
<!-- &#45;2&#45;&gt;3 -->
<g id="edge38" class="edge">
<title>&#45;2&#45;&gt;3</title>
<path fill="none" stroke="green" stroke-width="0.16" stroke-dasharray="1,5" d="M1375.59,-225.38C1372.77,-224.38 1369.81,-223.38 1367,-222.55 1298.34,-202.28 1278.74,-206.56 1210,-186.55 1203.96,-184.79 1197.53,-182.66 1191.53,-180.54"/>
<polygon fill="green" stroke="green" stroke-width="0.16" points="1192.58,-177.2 1181.98,-177.09 1190.19,-183.78 1192.58,-177.2"/>
</g>
<!-- &#45;3 -->
<g id="node3" class="node">
<title>&#45;3</title>
<polygon fill="lightgray" stroke="black" points="1496,-240.55 1470,-240.55 1470,-222.55 1496,-222.55 1496,-240.55"/>
<text text-anchor="middle" x="1483" y="-229.35" font-family="Times,serif" font-size="9.00">&#45;3</text>
</g>
<!-- &#45;3&#45;&gt;3 -->
<g id="edge28" class="edge">
<title>&#45;3&#45;&gt;3</title>
<path fill="none" stroke="red" stroke-width="0.25" d="M1469.64,-225.2C1466.82,-224.21 1463.84,-223.26 1461,-222.55 1351.69,-195.15 1319.42,-213.53 1210,-186.55 1203.89,-185.04 1197.43,-183 1191.43,-180.9"/>
<polygon fill="red" stroke="red" stroke-width="0.25" points="1192.49,-177.57 1181.9,-177.4 1190.08,-184.14 1192.49,-177.57"/>
</g>
<!-- &#45;4 -->
<g id="node4" class="node">
<title>&#45;4</title>
<polygon fill="lightgray" stroke="black" points="1584,-240.55 1558,-240.55 1558,-222.55 1584,-222.55 1584,-240.55"/>
<text text-anchor="middle" x="1571" y="-229.35" font-family="Times,serif" font-size="9.00">&#45;4</text>
</g>
<!-- 2 -->
<g id="node43" class="node">
<title>2</title>
<ellipse fill="lightblue" stroke="black" cx="501" cy="-16.26" rx="16.03" ry="16.03"/>
<text text-anchor="middle" x="501" y="-14.06" font-family="Times,serif" font-size="9.00">2</text>
</g>
<!-- &#45;4&#45;&gt;2 -->
<g id="edge57" class="edge">
<title>&#45;4&#45;&gt;2</title>
<path fill="none" stroke="red" stroke-width="0.17" stroke-dasharray="1,5" d="M1557.86,-223.93C1506.66,-198.51 1315.08,-106.65 1146,-68.53 910.63,-15.46 616.16,-15.35 527.46,-16.7"/>
<polygon fill="red" stroke="red" stroke-width="0.17" points="527.39,-13.2 517.46,-16.87 527.51,-20.19 527.39,-13.2"/>
</g>
<!-- &#45;4&#45;&gt;3 -->
<g id="edge33" class="edge">
<title>&#45;4&#45;&gt;3</title>
<path fill="none" stroke="red" stroke-width="0.41" d="M1557.66,-225.12C1554.84,-224.13 1551.85,-223.21 1549,-222.55 1401.38,-188.41 1357.75,-220.13 1210,-186.55 1203.86,-185.16 1197.4,-183.16 1191.39,-181.06"/>
<polygon fill="red" stroke="red" stroke-width="0.41" points="1192.46,-177.73 1181.87,-177.54 1190.03,-184.29 1192.46,-177.73"/>
</g>
<!-- &#45;5 -->
<g id="node5" class="node">
<title>&#45;5</title>
<polygon fill="lightgray" stroke="black" points="1540,-240.55 1514,-240.55 1514,-222.55 1540,-222.55 1540,-240.55"/>
<text text-anchor="middle" x="1527" y="-229.35" font-family="Times,serif" font-size="9.00">&#45;5</text>
</g>
<!-- &#45;5&#45;&gt;1 -->
<g id="edge45" class="edge">
<title>&#45;5&#45;&gt;1</title>
<path fill="none" stroke="red" stroke-width="0.1" stroke-dasharray="1,5" d="M1513.67,-225.08C1510.85,-224.1 1507.86,-223.19 1505,-222.55 1452.21,-210.76 1072.79,-181.26 968.48,-173.29"/>
<polygon fill="red" stroke="red" stroke-width="0.1" points="968.44,-169.78 958.2,-172.51 967.91,-176.76 968.44,-169.78"/>
</g>
<!-- &#45;5&#45;&gt;2 -->
<g id="edge71" class="edge">
<title>&#45;5&#45;&gt;2</title>
<path fill="none" stroke="green" stroke-width="0.16" d="M1513.62,-225.27C1510.8,-224.28 1507.83,-223.31 1505,-222.55 1416.93,-198.88 1386.56,-223.07 1303,-186.55 1281.04,-176.96 1280.65,-166.19 1260,-154.02 1179.16,-106.41 1157.82,-92.07 1067,-68.53 864.75,-16.09 609.8,-15.33 527.74,-16.63"/>
<polygon fill="green" stroke="green" stroke-width="0.16" points="527.48,-13.13 517.54,-16.82 527.6,-20.13 527.48,-13.13"/>
</g>
<!-- &#45;5&#45;&gt;3 -->
<g id="edge8" class="edge">
<title>&#45;5&#45;&gt;3</title>
<path fill="none" stroke="red" stroke-width="0.32" stroke-dasharray="1,5" d="M1513.65,-225.15C1510.83,-224.16 1507.85,-223.23 1505,-222.55 1376.55,-191.78 1338.57,-216.83 1210,-186.55 1203.87,-185.11 1197.41,-183.09 1191.41,-181"/>
<polygon fill="red" stroke="red" stroke-width="0.32" points="1192.47,-177.66 1181.88,-177.48 1190.05,-184.23 1192.47,-177.66"/>
</g>
<!-- &#45;6 -->
<g id="node6" class="node">
<title>&#45;6</title>
<polygon fill="lightgray" stroke="black" points="26,-240.55 0,-240.55 0,-222.55 26,-222.55 26,-240.55"/>
<text text-anchor="middle" x="13" y="-229.35" font-family="Times,serif" font-size="9.00">&#45;6</text>
</g>
<!-- &#45;6&#45;&gt;0 -->
<g id="edge7" class="edge">
<title>&#45;6&#45;&gt;0</title>
<path fill="none" stroke="green" stroke-width="1.18" d="M26.34,-225.13C29.16,-224.14 32.15,-223.22 35,-222.55 195.48,-184.94 394.34,-174.65 465.31,-172.08"/>
<polygon fill="green" stroke="green" stroke-width="1.18" points="465.7,-175.57 475.57,-171.73 465.46,-168.57 465.7,-175.57"/>
</g>
<!-- &#45;6&#45;&gt;2 -->
<g id="edge26" class="edge">
<title>&#45;6&#45;&gt;2</title>
<path fill="none" stroke="green" stroke-width="0.31" stroke-dasharray="1,5" d="M15.63,-222.38C24.87,-195.15 58.61,-107.05 120,-68.53 179.4,-31.25 398.05,-20.63 474.44,-18.02"/>
<polygon fill="green" stroke="green" stroke-width="0.31" points="474.77,-21.51 484.65,-17.69 474.54,-14.51 474.77,-21.51"/>
</g>
<!-- &#45;7 -->
<g id="node7" class="node">
<title>&#45;7</title>
<polygon fill="lightgray" stroke="black" points="1678,-240.55 1652,-240.55 1652,-222.55 1678,-222.55 1678,-240.55"/>
<text text-anchor="middle" x="1665" y="-229.35" font-family="Times,serif" font-size="9.00">&#45;7</text>
</g>
<!-- &#45;8 -->
<g id="node8" class="node">
<title>&#45;8</title>
<polygon fill="lightgray" stroke="black" points="320,-240.55 294,-240.55 294,-222.55 320,-222.55 320,-240.55"/>
<text text-anchor="middle" x="307" y="-229.35" font-family="Times,serif" font-size="9.00">&#45;8</text>
</g>
<!-- &#45;8&#45;&gt;0 -->
<g id="edge73" class="edge">
<title>&#45;8&#45;&gt;0</title>
<path fill="none" stroke="green" stroke-width="0.4" d="M320.46,-225.55C323.28,-224.53 326.23,-223.49 329,-222.55 377.47,-206.13 434.63,-188.56 466.76,-178.85"/>
<polygon fill="green" stroke="green" stroke-width="0.4" points="468.08,-182.11 476.65,-175.87 466.06,-175.4 468.08,-182.11"/>
</g>
<!-- &#45;8&#45;&gt;1 -->
<g id="edge53" class="edge">
<title>&#45;8&#45;&gt;1</title>
<path fill="none" stroke="green" stroke-width="0.36" stroke-dasharray="1,5" d="M320.33,-225.07C323.15,-224.09 326.14,-223.18 329,-222.55 551.85,-173.63 829.66,-170.66 915.5,-171.02"/>
<polygon fill="green" stroke="green" stroke-width="0.36" points="915.64,-174.52 925.66,-171.08 915.69,-167.52 915.64,-174.52"/>
</g>
<!-- &#45;8&#45;&gt;2 -->
<g id="edge80" class="edge">
<title>&#45;8&#45;&gt;2</title>
<path fill="none" stroke="green" stroke-width="2.02" d="M310.51,-222.53C321.91,-197.2 360.21,-117.67 412,-68.53 431.06,-50.45 457.65,-36.2 476.8,-27.36"/>
<polygon fill="green" stroke="green" stroke-width="2.02" points="478.34,-30.5 486.06,-23.24 475.5,-24.11 478.34,-30.5"/>
</g>
<!-- &#45;9 -->
<g id="node9" class="node">
<title>&#45;9</title>
<polygon fill="lightgray" stroke="black" points="364,-240.55 338,-240.55 338,-222.55 364,-222.55 364,-240.55"/>
<text text-anchor="middle" x="351" y="-229.35" font-family="Times,serif" font-size="9.00">&#45;9</text>
</g>
<!-- &#45;9&#45;&gt;0 -->
<g id="edge37" class="edge">
<title>&#45;9&#45;&gt;0</title>
<path fill="none" stroke="red" stroke-width="0.73" d="M364.01,-225.08C387.66,-215.14 437.99,-193.99 468.01,-181.37"/>
<polygon fill="red" stroke="red" stroke-width="0.73" points="469.48,-184.55 477.34,-177.45 466.77,-178.1 469.48,-184.55"/>
</g>
<!-- &#45;9&#45;&gt;1 -->
<g id="edge36" class="edge">
<title>&#45;9&#45;&gt;1</title>
<path fill="none" stroke="red" stroke-width="0.12" d="M364.33,-225.08C367.15,-224.1 370.14,-223.19 373,-222.55 578.01,-176.86 833.2,-171.68 915.27,-171.26"/>
<polygon fill="red" stroke="red" stroke-width="0.12" points="915.48,-174.76 925.47,-171.23 915.46,-167.76 915.48,-174.76"/>
</g>
<!-- &#45;9&#45;&gt;2 -->
<g id="edge66" class="edge">
<title>&#45;9&#45;&gt;2</title>
<path fill="none" stroke="green" stroke-width="0.48" d="M355.12,-222.36C367.64,-197.83 407.04,-123.23 450,-68.53 459.54,-56.37 471.7,-44.05 481.75,-34.54"/>
<polygon fill="green" stroke="green" stroke-width="0.48" points="484.32,-36.93 489.27,-27.57 479.56,-31.8 484.32,-36.93"/>
</g>
<!-- &#45;10 -->
<g id="node10" class="node">
<title>&#45;10</title>
<polygon fill="lightgray" stroke="black" points="708,-240.55 676,-240.55 676,-222.55 708,-222.55 708,-240.55"/>
<text text-anchor="middle" x="692" y="-229.35" font-family="Times,serif" font-size="9.00">&#45;10</text>
</g>
<!-- &#45;10&#45;&gt;0 -->
<g id="edge1" class="edge">
<title>&#45;10&#45;&gt;0</title>
<path fill="none" stroke="green" stroke-width="0.93" d="M675.88,-225.33C672.93,-224.39 669.88,-223.43 667,-222.55 614.01,-206.31 551.66,-188.31 517.53,-178.55"/>
<polygon fill="green" stroke="green" stroke-width="0.93" points="518.07,-175.07 507.49,-175.69 516.14,-181.8 518.07,-175.07"/>
</g>
<!-- &#45;10&#45;&gt;3 -->
<g id="edge39" class="edge">
<title>&#45;10&#45;&gt;3</title>
<path fill="none" stroke="red" stroke-width="0.36" d="M708.01,-224.92C710.97,-224.02 714.06,-223.18 717,-222.55 799.03,-204.93 1057.04,-181.06 1140.6,-173.61"/>
<polygon fill="red" stroke="red" stroke-width="0.36" points="1141.12,-177.08 1150.77,-172.71 1140.5,-170.1 1141.12,-177.08"/>
</g>
<!-- &#45;11 -->
<g id="node11" class="node">
<title>&#45;11</title>
<polygon fill="lightgray" stroke="black" points="76,-240.55 44,-240.55 44,-222.55 76,-222.55 76,-240.55"/>
<text text-anchor="middle" x="60" y="-229.35" font-family="Times,serif" font-size="9.00">&#45;11</text>
</g>
<!-- &#45;11&#45;&gt;0 -->
<g id="edge15" class="edge">
<title>&#45;11&#45;&gt;0</title>
<path fill="none" stroke="red" stroke-width="0.31" d="M76.02,-224.94C78.98,-224.05 82.06,-223.2 85,-222.55 226.33,-191.32 399.79,-177.37 465.28,-172.94"/>
<polygon fill="red" stroke="red" stroke-width="0.31" points="465.78,-176.42 475.53,-172.27 465.32,-169.43 465.78,-176.42"/>
</g>
<!-- &#45;11&#45;&gt;2 -->
<g id="edge54" class="edge">
<title>&#45;11&#45;&gt;2</title>
<path fill="none" stroke="green" stroke-width="0.2" stroke-dasharray="1,5" d="M63.15,-222.42C74.12,-195.32 113.45,-107.59 177,-68.53 226.98,-37.8 406.37,-23.33 474.5,-18.85"/>
<polygon fill="green" stroke="green" stroke-width="0.2" points="475.04,-22.32 484.8,-18.19 474.6,-15.34 475.04,-22.32"/>
</g>
<!-- &#45;12 -->
<g id="node12" class="node">
<title>&#45;12</title>
<polygon fill="lightgray" stroke="black" points="414,-240.55 382,-240.55 382,-222.55 414,-222.55 414,-240.55"/>
<text text-anchor="middle" x="398" y="-229.35" font-family="Times,serif" font-size="9.00">&#45;12</text>
</g>
<!-- &#45;12&#45;&gt;0 -->
<g id="edge50" class="edge">
<title>&#45;12&#45;&gt;0</title>
<path fill="none" stroke="red" stroke-width="0.82" d="M411.07,-222.31C426.26,-212.73 451.58,-196.77 469.85,-185.25"/>
<polygon fill="red" stroke="red" stroke-width="0.82" points="471.84,-188.14 478.43,-179.84 468.11,-182.21 471.84,-188.14"/>
</g>
<!-- &#45;12&#45;&gt;1 -->
<g id="edge81" class="edge">
<title>&#45;12&#45;&gt;1</title>
<path fill="none" stroke="green" stroke-width="1.47" d="M414,-224.88C416.97,-223.99 420.05,-223.16 423,-222.55 608.92,-184.07 838.47,-174.24 915.44,-171.94"/>
<polygon fill="green" stroke="green" stroke-width="1.47" points="915.77,-175.43 925.67,-171.65 915.57,-168.43 915.77,-175.43"/>
</g>
<!-- &#45;12&#45;&gt;2 -->
<g id="edge60" class="edge">
<title>&#45;12&#45;&gt;2</title>
<path fill="none" stroke="red" stroke-width="0.12" d="M401.91,-222.45C416.35,-192.54 467.02,-87.64 489.78,-40.5"/>
<polygon fill="red" stroke="red" stroke-width="0.12" points="492.99,-41.9 494.19,-31.37 486.69,-38.85 492.99,-41.9"/>
</g>
<!-- &#45;13 -->
<g id="node13" class="node">
<title>&#45;13</title>
<polygon fill="lightgray" stroke="black" points="1158,-240.55 1126,-240.55 1126,-222.55 1158,-222.55 1158,-240.55"/>
<text text-anchor="middle" x="1142" y="-229.35" font-family="Times,serif" font-size="9.00">&#45;13</text>
</g>
<!-- &#45;13&#45;&gt;0 -->
<g id="edge16" class="edge">
<title>&#45;13&#45;&gt;0</title>
<path fill="none" stroke="red" stroke-width="0.14" d="M1125.73,-224.76C1122.85,-223.9 1119.86,-223.12 1117,-222.55 888.62,-177.26 605.66,-171.87 518.67,-171.32"/>
<polygon fill="red" stroke="red" stroke-width="0.14" points="518.62,-167.82 508.61,-171.27 518.59,-174.82 518.62,-167.82"/>
</g>
<!-- &#45;13&#45;&gt;1 -->
<g id="edge21" class="edge">
<title>&#45;13&#45;&gt;1</title>
<path fill="none" stroke="green" stroke-width="0.4" d="M1125.88,-225.33C1122.93,-224.39 1119.88,-223.43 1117,-222.55 1064.01,-206.31 1001.66,-188.31 967.53,-178.55"/>
<polygon fill="green" stroke="green" stroke-width="0.4" points="968.07,-175.07 957.49,-175.69 966.14,-181.8 968.07,-175.07"/>
</g>
<!-- &#45;13&#45;&gt;3 -->
<g id="edge69" class="edge">
<title>&#45;13&#45;&gt;3</title>
<path fill="none" stroke="red" stroke-width="0.31" d="M1145.48,-222.31C1148.45,-215.25 1152.9,-204.72 1156.97,-195.06"/>
<polygon fill="red" stroke="red" stroke-width="0.31" points="1160.2,-196.42 1160.86,-185.84 1153.75,-193.7 1160.2,-196.42"/>
</g>
<!-- &#45;14 -->
<g id="node14" class="node">
<title>&#45;14</title>
<polygon fill="lightgray" stroke="black" points="958,-240.55 926,-240.55 926,-222.55 958,-222.55 958,-240.55"/>
<text text-anchor="middle" x="942" y="-229.35" font-family="Times,serif" font-size="9.00">&#45;14</text>
</g>
<!-- &#45;14&#45;&gt;1 -->
<g id="edge19" class="edge">
<title>&#45;14&#45;&gt;1</title>
<path fill="none" stroke="green" stroke-width="0.71" d="M942,-222.31C942,-215.73 942,-206.13 942,-197.03"/>
<polygon fill="green" stroke="green" stroke-width="0.71" points="945.5,-196.78 942,-186.78 938.5,-196.78 945.5,-196.78"/>
</g>
<!-- &#45;15 -->
<g id="node15" class="node">
<title>&#45;15</title>
<polygon fill="lightgray" stroke="black" points="808,-240.55 776,-240.55 776,-222.55 808,-222.55 808,-240.55"/>
<text text-anchor="middle" x="792" y="-229.35" font-family="Times,serif" font-size="9.00">&#45;15</text>
</g>
<!-- &#45;15&#45;&gt;0 -->
<g id="edge41" class="edge">
<title>&#45;15&#45;&gt;0</title>
<path fill="none" stroke="red" stroke-width="0.15" d="M775.95,-225.09C772.99,-224.17 769.92,-223.29 767,-222.55 676.59,-199.76 567.13,-182.32 518.03,-175.03"/>
<polygon fill="red" stroke="red" stroke-width="0.15" points="518.36,-171.54 507.96,-173.55 517.35,-178.46 518.36,-171.54"/>
</g>
<!-- &#45;15&#45;&gt;3 -->
<g id="edge17" class="edge">
<title>&#45;15&#45;&gt;3</title>
<path fill="none" stroke="green" stroke-width="0.54" d="M808.03,-224.99C810.99,-224.09 814.07,-223.23 817,-222.55 936.16,-194.96 1081.75,-179.27 1140.53,-173.67"/>
<polygon fill="green" stroke="green" stroke-width="0.54" points="1141.15,-177.12 1150.78,-172.71 1140.49,-170.15 1141.15,-177.12"/>
</g>
<!-- &#45;16 -->
<g id="node16" class="node">
<title>&#45;16</title>
<polygon fill="lightgray" stroke="black" points="1208,-240.55 1176,-240.55 1176,-222.55 1208,-222.55 1208,-240.55"/>
<text text-anchor="middle" x="1192" y="-229.35" font-family="Times,serif" font-size="9.00">&#45;16</text>
</g>
<!-- &#45;16&#45;&gt;0 -->
<g id="edge44" class="edge">
<title>&#45;16&#45;&gt;0</title>
<path fill="none" stroke="green" stroke-width="1.01" stroke-dasharray="1,5" d="M1175.74,-224.74C1172.86,-223.89 1169.86,-223.11 1167,-222.55 918.41,-174.03 610,-170.87 518.66,-171.09"/>
<polygon fill="green" stroke="green" stroke-width="1.01" points="518.37,-167.59 508.38,-171.13 518.4,-174.59 518.37,-167.59"/>
</g>
<!-- &#45;16&#45;&gt;1 -->
<g id="edge79" class="edge">
<title>&#45;16&#45;&gt;1</title>
<path fill="none" stroke="red" stroke-width="0.12" d="M1175.92,-225.18C1172.97,-224.26 1169.9,-223.34 1167,-222.55 1095.54,-203.02 1009.93,-184.96 967.89,-176.43"/>
<polygon fill="red" stroke="red" stroke-width="0.12" points="968.43,-172.97 957.94,-174.43 967.05,-179.83 968.43,-172.97"/>
</g>
<!-- &#45;16&#45;&gt;3 -->
<g id="edge46" class="edge">
<title>&#45;16&#45;&gt;3</title>
<path fill="none" stroke="red" stroke-width="0.34" stroke-dasharray="1,5" d="M1188.52,-222.31C1185.55,-215.25 1181.1,-204.72 1177.03,-195.06"/>
<polygon fill="red" stroke="red" stroke-width="0.34" points="1180.25,-193.7 1173.14,-185.84 1173.8,-196.42 1180.25,-193.7"/>
</g>
<!-- &#45;17 -->
<g id="node17" class="node">
<title>&#45;17</title>
<polygon fill="lightgray" stroke="black" points="126,-240.55 94,-240.55 94,-222.55 126,-222.55 126,-240.55"/>
<text text-anchor="middle" x="110" y="-229.35" font-family="Times,serif" font-size="9.00">&#45;17</text>
</g>
<!-- &#45;17&#45;&gt;0 -->
<g id="edge10" class="edge">
<title>&#45;17&#45;&gt;0</title>
<path fill="none" stroke="green" stroke-width="0.61" stroke-dasharray="1,5" d="M126.03,-224.99C128.99,-224.08 132.07,-223.23 135,-222.55 257.07,-194.46 406.36,-178.97 465.79,-173.54"/>
<polygon fill="green" stroke="green" stroke-width="0.61" points="466.16,-177.02 475.81,-172.64 465.54,-170.05 466.16,-177.02"/>
</g>
<!-- &#45;17&#45;&gt;2 -->
<g id="edge70" class="edge">
<title>&#45;17&#45;&gt;2</title>
<path fill="none" stroke="red" stroke-width="0.47" d="M114.65,-222.24C131.73,-192.03 191.57,-88.76 223,-68.53 264.65,-41.71 413.49,-25.31 474.56,-19.57"/>
<polygon fill="red" stroke="red" stroke-width="0.47" points="474.93,-23.05 484.57,-18.65 474.29,-16.08 474.93,-23.05"/>
</g>
<!-- &#45;18 -->
<g id="node18" class="node">
<title>&#45;18</title>
<polygon fill="lightgray" stroke="black" points="1358,-240.55 1326,-240.55 1326,-222.55 1358,-222.55 1358,-240.55"/>
<text text-anchor="middle" x="1342" y="-229.35" font-family="Times,serif" font-size="9.00">&#45;18</text>
</g>
<!-- &#45;18&#45;&gt;0 -->
<g id="edge43" class="edge">
<title>&#45;18&#45;&gt;0</title>
<path fill="none" stroke="green" stroke-width="0.24" d="M1325.74,-224.71C1322.86,-223.86 1319.87,-223.09 1317,-222.55 1158.37,-192.72 641.46,-175.73 518.45,-172.05"/>
<polygon fill="green" stroke="green" stroke-width="0.24" points="518.51,-168.55 508.41,-171.75 518.3,-175.55 518.51,-168.55"/>
</g>
<!-- &#45;18&#45;&gt;3 -->
<g id="edge63" class="edge">
<title>&#45;18&#45;&gt;3</title>
<path fill="none" stroke="red" stroke-width="0.43" stroke-dasharray="1,5" d="M1325.71,-225.23C1300.75,-217.06 1251.57,-200.86 1210,-186.55 1204.05,-184.5 1197.65,-182.26 1191.66,-180.13"/>
<polygon fill="red" stroke="red" stroke-width="0.43" points="1192.69,-176.79 1182.1,-176.73 1190.34,-183.38 1192.69,-176.79"/>
</g>
<!-- &#45;19 -->
<g id="node19" class="node">
<title>&#45;19</title>
<polygon fill="lightgray" stroke="black" points="1258,-240.55 1226,-240.55 1226,-222.55 1258,-222.55 1258,-240.55"/>
<text text-anchor="middle" x="1242" y="-229.35" font-family="Times,serif" font-size="9.00">&#45;19</text>
</g>
<!-- &#45;19&#45;&gt;0 -->
<g id="edge30" class="edge">
<title>&#45;19&#45;&gt;0</title>
<path fill="none" stroke="red" stroke-width="0.31" d="M1225.74,-224.73C1222.86,-223.88 1219.86,-223.1 1217,-222.55 1078.95,-195.98 631.93,-176.83 518.41,-172.31"/>
<polygon fill="red" stroke="red" stroke-width="0.31" points="518.33,-168.8 508.2,-171.91 518.05,-175.8 518.33,-168.8"/>
</g>
<!-- &#45;19&#45;&gt;1 -->
<g id="edge75" class="edge">
<title>&#45;19&#45;&gt;1</title>
<path fill="none" stroke="green" stroke-width="0.45" d="M1225.95,-225.09C1222.99,-224.17 1219.92,-223.29 1217,-222.55 1126.59,-199.76 1017.13,-182.32 968.03,-175.03"/>
<polygon fill="green" stroke="green" stroke-width="0.45" points="968.36,-171.54 957.96,-173.55 967.35,-178.46 968.36,-171.54"/>
</g>
<!-- &#45;19&#45;&gt;3 -->
<g id="edge51" class="edge">
<title>&#45;19&#45;&gt;3</title>
<path fill="none" stroke="green" stroke-width="0.22" stroke-dasharray="1,5" d="M1231.57,-222.31C1220.24,-213.36 1201.84,-198.82 1187.58,-187.55"/>
<polygon fill="green" stroke="green" stroke-width="0.22" points="1189.35,-184.49 1179.33,-181.03 1185.01,-189.98 1189.35,-184.49"/>
</g>
<!-- &#45;20 -->
<g id="node20" class="node">
<title>&#45;20</title>
<polygon fill="lightgray" stroke="black" points="176,-240.55 144,-240.55 144,-222.55 176,-222.55 176,-240.55"/>
<text text-anchor="middle" x="160" y="-229.35" font-family="Times,serif" font-size="9.00">&#45;20</text>
</g>
<!-- &#45;20&#45;&gt;0 -->
<g id="edge35" class="edge">
<title>&#45;20&#45;&gt;0</title>
<path fill="none" stroke="green" stroke-width="0.52" d="M176.04,-225.04C179,-224.13 182.08,-223.26 185,-222.55 287.69,-197.68 412.61,-180.9 465.89,-174.36"/>
<polygon fill="green" stroke="green" stroke-width="0.52" points="466.35,-177.83 475.86,-173.15 465.51,-170.88 466.35,-177.83"/>
</g>
<!-- &#45;20&#45;&gt;2 -->
<g id="edge12" class="edge">
<title>&#45;20&#45;&gt;2</title>
<path fill="none" stroke="green" stroke-width="0.16" d="M164.42,-222.28C180.65,-192.19 237.58,-89.32 268,-68.53 332.57,-24.38 428.68,-17.47 474.65,-16.88"/>
<polygon fill="green" stroke="green" stroke-width="0.16" points="474.71,-20.38 484.7,-16.85 474.69,-13.38 474.71,-20.38"/>
</g>
<!-- &#45;21 -->
<g id="node21" class="node">
<title>&#45;21</title>
<polygon fill="lightgray" stroke="black" points="1008,-240.55 976,-240.55 976,-222.55 1008,-222.55 1008,-240.55"/>
<text text-anchor="middle" x="992" y="-229.35" font-family="Times,serif" font-size="9.00">&#45;21</text>
</g>
<!-- &#45;21&#45;&gt;1 -->
<g id="edge5" class="edge">
<title>&#45;21&#45;&gt;1</title>
<path fill="none" stroke="red" stroke-width="0.48" stroke-dasharray="1,5" d="M985.05,-222.31C978.21,-214.2 967.5,-201.51 958.48,-190.82"/>
<polygon fill="red" stroke="red" stroke-width="0.48" points="961.12,-188.52 952,-183.14 955.77,-193.04 961.12,-188.52"/>
</g>
<!-- &#45;22 -->
<g id="node22" class="node">
<title>&#45;22</title>
<polygon fill="lightgray" stroke="black" points="226,-240.55 194,-240.55 194,-222.55 226,-222.55 226,-240.55"/>
<text text-anchor="middle" x="210" y="-229.35" font-family="Times,serif" font-size="9.00">&#45;22</text>
</g>
<!-- &#45;22&#45;&gt;0 -->
<g id="edge52" class="edge">
<title>&#45;22&#45;&gt;0</title>
<path fill="none" stroke="green" stroke-width="0.16" d="M226.06,-225.12C229.02,-224.2 232.09,-223.31 235,-222.55 318.56,-200.92 419.42,-183.2 466.04,-175.47"/>
<polygon fill="green" stroke="green" stroke-width="0.16" points="466.62,-178.92 475.92,-173.85 465.48,-172.01 466.62,-178.92"/>
</g>
<!-- &#45;22&#45;&gt;2 -->
<g id="edge65" class="edge">
<title>&#45;22&#45;&gt;2</title>
<path fill="none" stroke="green" stroke-width="0.44" stroke-dasharray="1,5" d="M213.15,-222.34C223.77,-195.72 261,-111.11 320,-68.53 367.36,-34.34 436.89,-22.9 474.49,-19.11"/>
<polygon fill="green" stroke="green" stroke-width="0.44" points="475,-22.58 484.65,-18.2 474.37,-15.61 475,-22.58"/>
</g>
<!-- &#45;23 -->
<g id="node23" class="node">
<title>&#45;23</title>
<polygon fill="lightgray" stroke="black" points="1058,-240.55 1026,-240.55 1026,-222.55 1058,-222.55 1058,-240.55"/>
<text text-anchor="middle" x="1042" y="-229.35" font-family="Times,serif" font-size="9.00">&#45;23</text>
</g>
<!-- &#45;23&#45;&gt;1 -->
<g id="edge20" class="edge">
<title>&#45;23&#45;&gt;1</title>
<path fill="none" stroke="red" stroke-width="0.14" stroke-dasharray="1,5" d="M1028.1,-222.31C1011.68,-212.58 984.14,-196.26 964.63,-184.7"/>
<polygon fill="red" stroke="red" stroke-width="0.14" points="966.17,-181.55 955.79,-179.46 962.6,-187.57 966.17,-181.55"/>
</g>
<!-- &#45;24 -->
<g id="node24" class="node">
<title>&#45;24</title>
<polygon fill="lightgray" stroke="black" points="508,-240.55 476,-240.55 476,-222.55 508,-222.55 508,-240.55"/>
<text text-anchor="middle" x="492" y="-229.35" font-family="Times,serif" font-size="9.00">&#45;24</text>
</g>
<!-- &#45;24&#45;&gt;0 -->
<g id="edge27" class="edge">
<title>&#45;24&#45;&gt;0</title>
<path fill="none" stroke="green" stroke-width="0.22" stroke-dasharray="1,5" d="M492,-222.31C492,-215.73 492,-206.13 492,-197.03"/>
<polygon fill="green" stroke="green" stroke-width="0.22" points="495.5,-196.78 492,-186.78 488.5,-196.78 495.5,-196.78"/>
</g>
<!-- &#45;24&#45;&gt;1 -->
<g id="edge13" class="edge">
<title>&#45;24&#45;&gt;1</title>
<path fill="none" stroke="red" stroke-width="0.34" d="M508.02,-224.93C510.98,-224.03 514.06,-223.19 517,-222.55 665.57,-190.13 848.14,-176.79 915.46,-172.74"/>
<polygon fill="red" stroke="red" stroke-width="0.34" points="915.82,-176.22 925.6,-172.14 915.41,-169.23 915.82,-176.22"/>
</g>
<!-- &#45;25 -->
<g id="node25" class="node">
<title>&#45;25</title>
<polygon fill="lightgray" stroke="black" points="614,-102.28 582,-102.28 582,-84.28 614,-84.28 614,-102.28"/>
<text text-anchor="middle" x="598" y="-91.08" font-family="Times,serif" font-size="9.00">&#45;25</text>
</g>
<!-- &#45;25&#45;&gt;2 -->
<g id="edge11" class="edge">
<title>&#45;25&#45;&gt;2</title>
<path fill="none" stroke="red" stroke-width="0.18" d="M587.76,-84.1C581.98,-79.5 574.61,-73.67 568,-68.53 552.64,-56.57 535.17,-43.22 521.92,-33.13"/>
<polygon fill="red" stroke="red" stroke-width="0.18" points="523.97,-30.29 513.89,-27.03 519.74,-35.87 523.97,-30.29"/>
</g>
<!-- &#45;26 -->
<g id="node26" class="node">
<title>&#45;26</title>
<polygon fill="lightgray" stroke="black" points="1728,-240.55 1696,-240.55 1696,-222.55 1728,-222.55 1728,-240.55"/>
<text text-anchor="middle" x="1712" y="-229.35" font-family="Times,serif" font-size="9.00">&#45;26</text>
</g>
<!-- &#45;27 -->
<g id="node27" class="node">
<title>&#45;27</title>
<polygon fill="lightgray" stroke="black" points="1452,-240.55 1420,-240.55 1420,-222.55 1452,-222.55 1452,-240.55"/>
<text text-anchor="middle" x="1436" y="-229.35" font-family="Times,serif" font-size="9.00">&#45;27</text>
</g>
<!-- &#45;27&#45;&gt;3 -->
<g id="edge32" class="edge">
<title>&#45;27&#45;&gt;3</title>
<path fill="none" stroke="red" stroke-width="0.6" d="M1419.95,-225.07C1416.99,-224.16 1413.92,-223.28 1411,-222.55 1322.92,-200.67 1297.72,-209.81 1210,-186.55 1203.92,-184.94 1197.47,-182.86 1191.47,-180.75"/>
<polygon fill="red" stroke="red" stroke-width="0.6" points="1192.53,-177.41 1181.93,-177.27 1190.13,-183.99 1192.53,-177.41"/>
</g>
<!-- &#45;28 -->
<g id="node28" class="node">
<title>&#45;28</title>
<polygon fill="lightgray" stroke="black" points="558,-240.55 526,-240.55 526,-222.55 558,-222.55 558,-240.55"/>
<text text-anchor="middle" x="542" y="-229.35" font-family="Times,serif" font-size="9.00">&#45;28</text>
</g>
<!-- &#45;28&#45;&gt;0 -->
<g id="edge40" class="edge">
<title>&#45;28&#45;&gt;0</title>
<path fill="none" stroke="red" stroke-width="0.86" d="M535.05,-222.31C528.21,-214.2 517.5,-201.51 508.48,-190.82"/>
<polygon fill="red" stroke="red" stroke-width="0.86" points="511.12,-188.52 502,-183.14 505.77,-193.04 511.12,-188.52"/>
</g>
<!-- &#45;28&#45;&gt;1 -->
<g id="edge9" class="edge">
<title>&#45;28&#45;&gt;1</title>
<path fill="none" stroke="green" stroke-width="0.2" stroke-dasharray="1,5" d="M558.02,-224.97C560.98,-224.07 564.07,-223.22 567,-222.55 696.07,-193.31 854.16,-178.35 915.72,-173.3"/>
<polygon fill="green" stroke="green" stroke-width="0.2" points="916.05,-176.78 925.74,-172.49 915.49,-169.81 916.05,-176.78"/>
</g>
<!-- &#45;29 -->
<g id="node29" class="node">
<title>&#45;29</title>
<polygon fill="lightgray" stroke="black" points="664,-102.28 632,-102.28 632,-84.28 664,-84.28 664,-102.28"/>
<text text-anchor="middle" x="648" y="-91.08" font-family="Times,serif" font-size="9.00">&#45;29</text>
</g>
<!-- &#45;29&#45;&gt;2 -->
<g id="edge23" class="edge">
<title>&#45;29&#45;&gt;2</title>
<path fill="none" stroke="green" stroke-width="0.42" stroke-dasharray="1,5" d="M640.74,-84C636.06,-79.03 629.62,-72.85 623,-68.53 592.07,-48.31 551.84,-33.26 526.22,-24.87"/>
<polygon fill="green" stroke="green" stroke-width="0.42" points="527.11,-21.48 516.52,-21.78 524.98,-28.15 527.11,-21.48"/>
</g>
<!-- &#45;30 -->
<g id="node30" class="node">
<title>&#45;30</title>
<polygon fill="lightgray" stroke="black" points="1108,-240.55 1076,-240.55 1076,-222.55 1108,-222.55 1108,-240.55"/>
<text text-anchor="middle" x="1092" y="-229.35" font-family="Times,serif" font-size="9.00">&#45;30</text>
</g>
<!-- &#45;30&#45;&gt;1 -->
<g id="edge25" class="edge">
<title>&#45;30&#45;&gt;1</title>
<path fill="none" stroke="green" stroke-width="0.32" d="M1075.95,-224.21C1049.74,-213.85 997.58,-193.25 966.65,-181.03"/>
<polygon fill="green" stroke="green" stroke-width="0.32" points="967.63,-177.65 957.04,-177.23 965.06,-184.16 967.63,-177.65"/>
</g>
<!-- &#45;31 -->
<g id="node31" class="node">
<title>&#45;31</title>
<polygon fill="lightgray" stroke="black" points="1634,-240.55 1602,-240.55 1602,-222.55 1634,-222.55 1634,-240.55"/>
<text text-anchor="middle" x="1618" y="-229.35" font-family="Times,serif" font-size="9.00">&#45;31</text>
</g>
<!-- &#45;31&#45;&gt;1 -->
<g id="edge2" class="edge">
<title>&#45;31&#45;&gt;1</title>
<path fill="none" stroke="red" stroke-width="0.75" d="M1601.74,-224.75C1598.86,-223.9 1595.86,-223.11 1593,-222.55 1585.19,-221.02 1089.4,-182.67 968.41,-173.33"/>
<polygon fill="red" stroke="red" stroke-width="0.75" points="968.44,-169.82 958.2,-172.54 967.9,-176.8 968.44,-169.82"/>
</g>
<!-- &#45;31&#45;&gt;2 -->
<g id="edge31" class="edge">
<title>&#45;31&#45;&gt;2</title>
<path fill="none" stroke="red" stroke-width="0.94" d="M1610.12,-222.47C1582.5,-194.74 1486.26,-103.29 1386,-68.53 1303.09,-39.78 665.46,-21.57 527.34,-17.93"/>
<polygon fill="red" stroke="red" stroke-width="0.94" points="527.32,-14.43 517.24,-17.67 527.14,-21.43 527.32,-14.43"/>
</g>
<!-- &#45;32 -->
<g id="node32" class="node">
<title>&#45;32</title>
<polygon fill="lightgray" stroke="black" points="908,-240.55 876,-240.55 876,-222.55 908,-222.55 908,-240.55"/>
<text text-anchor="middle" x="892" y="-229.35" font-family="Times,serif" font-size="9.00">&#45;32</text>
</g>
<!-- &#45;32&#45;&gt;1 -->
<g id="edge29" class="edge">
<title>&#45;32&#45;&gt;1</title>
<path fill="none" stroke="green" stroke-width="0.16" d="M898.95,-222.31C905.79,-214.2 916.5,-201.51 925.52,-190.82"/>
<polygon fill="green" stroke="green" stroke-width="0.16" points="928.23,-193.04 932,-183.14 922.88,-188.52 928.23,-193.04"/>
</g>
<!-- &#45;33 -->
<g id="node33" class="node">
<title>&#45;33</title>
<polygon fill="lightgray" stroke="black" points="276,-240.55 244,-240.55 244,-222.55 276,-222.55 276,-240.55"/>
<text text-anchor="middle" x="260" y="-229.35" font-family="Times,serif" font-size="9.00">&#45;33</text>
</g>
<!-- &#45;33&#45;&gt;0 -->
<g id="edge47" class="edge">
<title>&#45;33&#45;&gt;0</title>
<path fill="none" stroke="red" stroke-width="0.99" d="M276.09,-225.23C279.04,-224.3 282.11,-223.37 285,-222.55 349.93,-204.14 427.35,-185.96 466.55,-177.01"/>
<polygon fill="red" stroke="red" stroke-width="0.99" points="467.35,-180.42 476.33,-174.79 465.8,-173.59 467.35,-180.42"/>
</g>
<!-- &#45;33&#45;&gt;2 -->
<g id="edge68" class="edge">
<title>&#45;33&#45;&gt;2</title>
<path fill="none" stroke="green" stroke-width="0.39" stroke-dasharray="1,5" d="M263.15,-222.54C273.77,-196.56 310.74,-113.68 367,-68.53 399.21,-42.68 445.91,-28.81 474.82,-22.24"/>
<polygon fill="green" stroke="green" stroke-width="0.39" points="475.91,-25.59 484.96,-20.07 474.45,-18.74 475.91,-25.59"/>
</g>
<!-- &#45;34 -->
<g id="node34" class="node">
<title>&#45;34</title>
<polygon fill="lightgray" stroke="black" points="658,-240.55 626,-240.55 626,-222.55 658,-222.55 658,-240.55"/>
<text text-anchor="middle" x="642" y="-229.35" font-family="Times,serif" font-size="9.00">&#45;34</text>
</g>
<!-- &#45;34&#45;&gt;0 -->
<g id="edge18" class="edge">
<title>&#45;34&#45;&gt;0</title>
<path fill="none" stroke="red" stroke-width="0.18" stroke-dasharray="1,5" d="M625.95,-224.21C599.74,-213.85 547.58,-193.25 516.65,-181.03"/>
<polygon fill="red" stroke="red" stroke-width="0.18" points="517.63,-177.65 507.04,-177.23 515.06,-184.16 517.63,-177.65"/>
</g>
<!-- &#45;34&#45;&gt;1 -->
<g id="edge49" class="edge">
<title>&#45;34&#45;&gt;1</title>
<path fill="none" stroke="red" stroke-width="0.37" d="M658.05,-225.09C661.01,-224.17 664.08,-223.29 667,-222.55 757.41,-199.76 866.87,-182.32 915.97,-175.03"/>
<polygon fill="red" stroke="red" stroke-width="0.37" points="916.65,-178.46 926.04,-173.55 915.64,-171.54 916.65,-178.46"/>
</g>
<!-- &#45;34&#45;&gt;2 -->
<g id="edge55" class="edge">
<title>&#45;34&#45;&gt;2</title>
<path fill="none" stroke="green" stroke-width="0.71" stroke-dasharray="1,5" d="M636.64,-222.45C616.6,-192.13 545.61,-84.74 515.1,-38.59"/>
<polygon fill="green" stroke="green" stroke-width="0.71" points="518,-36.63 509.57,-30.22 512.16,-40.49 518,-36.63"/>
</g>
<!-- &#45;34&#45;&gt;3 -->
<g id="edge72" class="edge">
<title>&#45;34&#45;&gt;3</title>
<path fill="none" stroke="green" stroke-width="0.17" stroke-dasharray="1,5" d="M658.01,-224.89C660.97,-224 664.06,-223.17 667,-222.55 759.14,-203.3 1051.11,-180.09 1140.64,-173.26"/>
<polygon fill="green" stroke="green" stroke-width="0.17" points="1141.05,-176.74 1150.76,-172.5 1140.52,-169.76 1141.05,-176.74"/>
</g>
<!-- &#45;35 -->
<g id="node35" class="node">
<title>&#45;35</title>
<polygon fill="lightgray" stroke="black" points="608,-240.55 576,-240.55 576,-222.55 608,-222.55 608,-240.55"/>
<text text-anchor="middle" x="592" y="-229.35" font-family="Times,serif" font-size="9.00">&#45;35</text>
</g>
<!-- &#45;35&#45;&gt;0 -->
<g id="edge64" class="edge">
<title>&#45;35&#45;&gt;0</title>
<path fill="none" stroke="red" stroke-width="0.28" stroke-dasharray="1,5" d="M578.1,-222.31C561.68,-212.58 534.14,-196.26 514.63,-184.7"/>
<polygon fill="red" stroke="red" stroke-width="0.28" points="516.17,-181.55 505.79,-179.46 512.6,-187.57 516.17,-181.55"/>
</g>
<!-- &#45;35&#45;&gt;1 -->
<g id="edge3" class="edge">
<title>&#45;35&#45;&gt;1</title>
<path fill="none" stroke="green" stroke-width="0.25" stroke-dasharray="1,5" d="M608.04,-225.02C610.99,-224.11 614.07,-223.25 617,-222.55 726.68,-196.52 860.39,-180.16 915.91,-174.03"/>
<polygon fill="green" stroke="green" stroke-width="0.25" points="916.37,-177.5 925.94,-172.94 915.62,-170.54 916.37,-177.5"/>
</g>
<!-- &#45;36 -->
<g id="node36" class="node">
<title>&#45;36</title>
<polygon fill="lightgray" stroke="black" points="1308,-240.55 1276,-240.55 1276,-222.55 1308,-222.55 1308,-240.55"/>
<text text-anchor="middle" x="1292" y="-229.35" font-family="Times,serif" font-size="9.00">&#45;36</text>
</g>
<!-- &#45;36&#45;&gt;0 -->
<g id="edge62" class="edge">
<title>&#45;36&#45;&gt;0</title>
<path fill="none" stroke="red" stroke-width="0.66" d="M1275.74,-224.72C1272.86,-223.87 1269.87,-223.1 1267,-222.55 1118.78,-194.37 637.49,-176.29 518.69,-172.18"/>
<polygon fill="red" stroke="red" stroke-width="0.66" points="518.47,-168.67 508.35,-171.83 518.23,-175.67 518.47,-168.67"/>
</g>
<!-- &#45;36&#45;&gt;1 -->
<g id="edge56" class="edge">
<title>&#45;36&#45;&gt;1</title>
<path fill="none" stroke="green" stroke-width="0.41" stroke-dasharray="1,5" d="M1275.96,-225.02C1273.01,-224.11 1269.93,-223.25 1267,-222.55 1157.32,-196.52 1023.61,-180.16 968.09,-174.03"/>
<polygon fill="green" stroke="green" stroke-width="0.41" points="968.38,-170.54 958.06,-172.94 967.63,-177.5 968.38,-170.54"/>
</g>
<!-- &#45;36&#45;&gt;3 -->
<g id="edge74" class="edge">
<title>&#45;36&#45;&gt;3</title>
<path fill="none" stroke="red" stroke-width="0.34" stroke-dasharray="1,5" d="M1275.91,-222.92C1254.26,-212.66 1215.58,-194.32 1190.62,-182.48"/>
<polygon fill="red" stroke="red" stroke-width="0.34" points="1192.01,-179.27 1181.47,-178.15 1189.01,-185.6 1192.01,-179.27"/>
</g>
<!-- &#45;37 -->
<g id="node37" class="node">
<title>&#45;37</title>
<polygon fill="lightgray" stroke="black" points="758,-240.55 726,-240.55 726,-222.55 758,-222.55 758,-240.55"/>
<text text-anchor="middle" x="742" y="-229.35" font-family="Times,serif" font-size="9.00">&#45;37</text>
</g>
<!-- &#45;37&#45;&gt;0 -->
<g id="edge24" class="edge">
<title>&#45;37&#45;&gt;0</title>
<path fill="none" stroke="green" stroke-width="0.65" d="M725.92,-225.18C722.97,-224.26 719.9,-223.34 717,-222.55 645.54,-203.02 559.93,-184.96 517.89,-176.43"/>
<polygon fill="green" stroke="green" stroke-width="0.65" points="518.43,-172.97 507.94,-174.43 517.05,-179.83 518.43,-172.97"/>
</g>
<!-- &#45;37&#45;&gt;3 -->
<g id="edge76" class="edge">
<title>&#45;37&#45;&gt;3</title>
<path fill="none" stroke="green" stroke-width="0.13" stroke-dasharray="1,5" d="M758.02,-224.95C760.98,-224.05 764.06,-223.2 767,-222.55 905.91,-191.7 1076.37,-177.52 1140.74,-172.99"/>
<polygon fill="green" stroke="green" stroke-width="0.13" points="1141.08,-176.48 1150.81,-172.3 1140.6,-169.49 1141.08,-176.48"/>
</g>
<!-- &#45;38 -->
<g id="node38" class="node">
<title>&#45;38</title>
<polygon fill="lightgray" stroke="black" points="1251,-179.29 1219,-179.29 1219,-161.29 1251,-161.29 1251,-179.29"/>
<text text-anchor="middle" x="1235" y="-168.09" font-family="Times,serif" font-size="9.00">&#45;38</text>
</g>
<!-- &#45;38&#45;&gt;2 -->
<g id="edge48" class="edge">
<title>&#45;38&#45;&gt;2</title>
<path fill="none" stroke="red" stroke-width="0.69" stroke-dasharray="1,5" d="M1222.81,-161.18C1218.82,-158.71 1214.31,-156.1 1210,-154.02 1110.26,-105.94 1083.84,-93.65 976,-68.53 808.11,-29.41 599.76,-20.02 527.29,-17.87"/>
<polygon fill="red" stroke="red" stroke-width="0.69" points="527.32,-14.37 517.23,-17.59 527.13,-21.37 527.32,-14.37"/>
</g>
<!-- 227 -->
<g id="node45" class="node">
<title>227</title>
<ellipse fill="white" stroke="black" cx="942" cy="-93.28" rx="25" ry="25"/>
<text text-anchor="middle" x="942" y="-91.08" font-family="Times,serif" font-size="9.00">227</text>
</g>
<!-- &#45;38&#45;&gt;227 -->
<g id="edge77" class="edge">
<title>&#45;38&#45;&gt;227</title>
<path fill="none" stroke="red" stroke-width="0.13" stroke-dasharray="1,5" d="M1223.22,-161C1219.17,-158.46 1214.53,-155.85 1210,-154.02 1129.98,-121.72 1029.12,-105.22 976.9,-98.33"/>
<polygon fill="red" stroke="red" stroke-width="0.13" points="977.19,-94.84 966.83,-97.05 976.3,-101.79 977.19,-94.84"/>
</g>
<!-- &#45;39 -->
<g id="node39" class="node">
<title>&#45;39</title>
<polygon fill="lightgray" stroke="black" points="1377,-102.28 1345,-102.28 1345,-84.28 1377,-84.28 1377,-102.28"/>
<text text-anchor="middle" x="1361" y="-91.08" font-family="Times,serif" font-size="9.00">&#45;39</text>
</g>
<!-- &#45;39&#45;&gt;2 -->
<g id="edge4" class="edge">
<title>&#45;39&#45;&gt;2</title>
<path fill="none" stroke="red" stroke-width="0.41" d="M1353.45,-84.11C1347.84,-78.64 1339.69,-71.85 1331,-68.53 1254.45,-39.22 660.46,-21.56 527.39,-17.95"/>
<polygon fill="red" stroke="red" stroke-width="0.41" points="527.37,-14.45 517.28,-17.68 527.19,-21.45 527.37,-14.45"/>
</g>
<!-- &#45;40 -->
<g id="node40" class="node">
<title>&#45;40</title>
<polygon fill="lightgray" stroke="black" points="858,-240.55 826,-240.55 826,-222.55 858,-222.55 858,-240.55"/>
<text text-anchor="middle" x="842" y="-229.35" font-family="Times,serif" font-size="9.00">&#45;40</text>
</g>
<!-- &#45;40&#45;&gt;0 -->
<g id="edge22" class="edge">
<title>&#45;40&#45;&gt;0</title>
<path fill="none" stroke="red" stroke-width="0.17" stroke-dasharray="1,5" d="M825.96,-225.02C823.01,-224.11 819.93,-223.25 817,-222.55 707.32,-196.52 573.61,-180.16 518.09,-174.03"/>
<polygon fill="red" stroke="red" stroke-width="0.17" points="518.38,-170.54 508.06,-172.94 517.63,-177.5 518.38,-170.54"/>
</g>
<!-- &#45;40&#45;&gt;1 -->
<g id="edge14" class="edge">
<title>&#45;40&#45;&gt;1</title>
<path fill="none" stroke="green" stroke-width="0.15" stroke-dasharray="1,5" d="M855.9,-222.31C872.32,-212.58 899.86,-196.26 919.37,-184.7"/>
<polygon fill="green" stroke="green" stroke-width="0.15" points="921.4,-187.57 928.21,-179.46 917.83,-181.55 921.4,-187.57"/>
</g>
<!-- &#45;40&#45;&gt;3 -->
<g id="edge67" class="edge">
<title>&#45;40&#45;&gt;3</title>
<path fill="none" stroke="red" stroke-width="0.22" d="M858.04,-225.05C861,-224.14 864.08,-223.26 867,-222.55 966.92,-198.16 1088.33,-181.22 1140.79,-174.51"/>
<polygon fill="red" stroke="red" stroke-width="0.22" points="1141.42,-177.95 1150.9,-173.23 1140.54,-171.01 1141.42,-177.95"/>
</g>
<!-- 0&#45;&gt;0 -->
<g id="edge59" class="edge">
<title>0&#45;&gt;0</title>
<path fill="none" stroke="red" stroke-width="0.28" d="M505.36,-180.08C515.71,-183.75 526.26,-180.48 526.26,-170.29 526.26,-163.6 521.72,-159.89 515.67,-159.17"/>
<polygon fill="red" stroke="red" stroke-width="0.28" points="514.84,-155.75 505.36,-160.49 515.73,-162.69 514.84,-155.75"/>
</g>
<!-- 1&#45;&gt;227 -->
<g id="edge82" class="edge">
<title>1&#45;&gt;227</title>
<path fill="none" stroke="green" stroke-width="0.49" d="M942,-153.75C942,-146.34 942,-137.18 942,-128.28"/>
<polygon fill="green" stroke="green" stroke-width="0.49" points="945.5,-128.07 942,-118.07 938.5,-128.07 945.5,-128.07"/>
</g>
<!-- 2&#45;&gt;2 -->
<g id="edge34" class="edge">
<title>2&#45;&gt;2</title>
<path fill="none" stroke="green" stroke-width="0.16" d="M512.58,-27.79C523.46,-33.76 535.26,-29.92 535.26,-16.26 535.26,-6.87 529.69,-2.13 522.67,-2.02"/>
<polygon fill="green" stroke="green" stroke-width="0.16" points="521.32,1.25 512.58,-4.74 523.15,-5.51 521.32,1.25"/>
</g>
<!-- 3&#45;&gt;3 -->
<g id="edge6" class="edge">
<title>3&#45;&gt;3</title>
<path fill="none" stroke="red" stroke-width="0.28" d="M1180.36,-180.08C1190.71,-183.75 1201.26,-180.48 1201.26,-170.29 1201.26,-163.6 1196.72,-159.89 1190.67,-159.17"/>
<polygon fill="red" stroke="red" stroke-width="0.28" points="1189.84,-155.75 1180.36,-160.49 1190.73,-162.69 1189.84,-155.75"/>
</g>
<!-- 227&#45;&gt;2 -->
<g id="edge78" class="edge">
<title>227&#45;&gt;2</title>
<path fill="none" stroke="green" stroke-width="0.33" d="M917.66,-88.14C841.09,-75.11 605.54,-35.05 526.88,-21.67"/>
<polygon fill="green" stroke="green" stroke-width="0.33" points="527.3,-18.19 516.85,-19.96 526.13,-25.09 527.3,-18.19"/>
</g>
</g>
</svg>
