<?xml version="1.0" encoding="UTF-8" standalone="no"?>
<!DOCTYPE svg PUBLIC "-//W3C//DTD SVG 1.1//EN"
 "http://www.w3.org/Graphics/SVG/1.1/DTD/svg11.dtd">
<!-- Generated by graphviz version 2.43.0 (0)
 -->
<!-- Title: %3 Pages: 1 -->
<svg width="1936pt" height="180pt"
 viewBox="0.00 0.00 1936.00 180.02" xmlns="http://www.w3.org/2000/svg" xmlns:xlink="http://www.w3.org/1999/xlink">
<g id="graph0" class="graph" transform="scale(1 1) rotate(0) translate(4 176.02)">
<title>%3</title>
<polygon fill="white" stroke="transparent" points="-4,4 -4,-176.02 1932,-176.02 1932,4 -4,4"/>
<!-- &#45;1 -->
<g id="node1" class="node">
<title>&#45;1</title>
<polygon fill="lightgray" stroke="black" points="346,-172.02 320,-172.02 320,-154.02 346,-154.02 346,-172.02"/>
<text text-anchor="middle" x="333" y="-160.82" font-family="Times,serif" font-size="9.00">&#45;1</text>
</g>
<!-- 1 -->
<g id="node42" class="node">
<title>1</title>
<ellipse fill="lightblue" stroke="black" cx="357" cy="-101.76" rx="16.03" ry="16.03"/>
<text text-anchor="middle" x="357" y="-99.56" font-family="Times,serif" font-size="9.00">1</text>
</g>
<!-- &#45;1&#45;&gt;1 -->
<g id="edge25" class="edge">
<title>&#45;1&#45;&gt;1</title>
<path fill="none" stroke="green" stroke-width="0.82" d="M336.34,-153.78C339.17,-146.8 343.37,-136.41 347.25,-126.83"/>
<polygon fill="green" stroke="green" stroke-width="0.82" points="350.6,-127.9 351.11,-117.32 344.11,-125.27 350.6,-127.9"/>
</g>
<!-- 2 -->
<g id="node43" class="node">
<title>2</title>
<ellipse fill="lightblue" stroke="black" cx="855" cy="-101.76" rx="16.03" ry="16.03"/>
<text text-anchor="middle" x="855" y="-99.56" font-family="Times,serif" font-size="9.00">2</text>
</g>
<!-- &#45;1&#45;&gt;2 -->
<g id="edge49" class="edge">
<title>&#45;1&#45;&gt;2</title>
<path fill="none" stroke="red" stroke-width="0.16" stroke-dasharray="1,5" d="M346.34,-156.58C349.16,-155.6 352.15,-154.68 355,-154.02 366.69,-151.34 727.5,-115.42 828.79,-105.36"/>
<polygon fill="red" stroke="red" stroke-width="0.16" points="829.19,-108.84 838.8,-104.37 828.5,-101.87 829.19,-108.84"/>
</g>
<!-- 3 -->
<g id="node44" class="node">
<title>3</title>
<ellipse fill="lightblue" stroke="black" cx="655" cy="-101.76" rx="16.03" ry="16.03"/>
<text text-anchor="middle" x="655" y="-99.56" font-family="Times,serif" font-size="9.00">3</text>
</g>
<!-- &#45;1&#45;&gt;3 -->
<g id="edge48" class="edge">
<title>&#45;1&#45;&gt;3</title>
<path fill="none" stroke="green" stroke-width="0.49" stroke-dasharray="1,5" d="M346.37,-156.73C349.19,-155.73 352.17,-154.77 355,-154.02 454.42,-127.68 576.1,-111.76 628.7,-105.64"/>
<polygon fill="green" stroke="green" stroke-width="0.49" points="629.31,-109.1 638.85,-104.49 628.51,-102.14 629.31,-109.1"/>
</g>
<!-- &#45;2 -->
<g id="node2" class="node">
<title>&#45;2</title>
<polygon fill="lightgray" stroke="black" points="302,-172.02 276,-172.02 276,-154.02 302,-154.02 302,-172.02"/>
<text text-anchor="middle" x="289" y="-160.82" font-family="Times,serif" font-size="9.00">&#45;2</text>
</g>
<!-- &#45;2&#45;&gt;1 -->
<g id="edge63" class="edge">
<title>&#45;2&#45;&gt;1</title>
<path fill="none" stroke="red" stroke-width="0.27" stroke-dasharray="1,5" d="M298.46,-153.78C308.39,-145.12 324.32,-131.24 337.06,-120.14"/>
<polygon fill="red" stroke="red" stroke-width="0.27" points="339.63,-122.54 344.87,-113.33 335.03,-117.26 339.63,-122.54"/>
</g>
<!-- &#45;2&#45;&gt;2 -->
<g id="edge56" class="edge">
<title>&#45;2&#45;&gt;2</title>
<path fill="none" stroke="green" stroke-width="0.29" d="M302.33,-156.56C305.16,-155.58 308.14,-154.67 311,-154.02 479.55,-116.2 526.03,-134.38 698,-118.02 743.85,-113.66 797.21,-108.45 828.43,-105.38"/>
<polygon fill="green" stroke="green" stroke-width="0.29" points="828.89,-108.85 838.5,-104.39 828.21,-101.88 828.89,-108.85"/>
</g>
<!-- &#45;2&#45;&gt;3 -->
<g id="edge13" class="edge">
<title>&#45;2&#45;&gt;3</title>
<path fill="none" stroke="red" stroke-width="0.37" d="M302.36,-156.68C305.18,-155.69 308.16,-154.74 311,-154.02 427.29,-124.53 570.29,-109.94 628.49,-104.88"/>
<polygon fill="red" stroke="red" stroke-width="0.37" points="628.98,-108.35 638.65,-104.02 628.39,-101.38 628.98,-108.35"/>
</g>
<!-- &#45;3 -->
<g id="node3" class="node">
<title>&#45;3</title>
<polygon fill="lightgray" stroke="black" points="1140,-172.02 1114,-172.02 1114,-154.02 1140,-154.02 1140,-172.02"/>
<text text-anchor="middle" x="1127" y="-160.82" font-family="Times,serif" font-size="9.00">&#45;3</text>
</g>
<!-- 0 -->
<g id="node41" class="node">
<title>0</title>
<ellipse fill="lightblue" stroke="black" cx="1078" cy="-101.76" rx="16.03" ry="16.03"/>
<text text-anchor="middle" x="1078" y="-99.56" font-family="Times,serif" font-size="9.00">0</text>
</g>
<!-- &#45;3&#45;&gt;0 -->
<g id="edge5" class="edge">
<title>&#45;3&#45;&gt;0</title>
<path fill="none" stroke="red" stroke-width="0.17" stroke-dasharray="1,5" d="M1120.19,-153.78C1113.63,-145.85 1103.45,-133.55 1094.74,-123.01"/>
<polygon fill="red" stroke="red" stroke-width="0.17" points="1097.23,-120.53 1088.16,-115.05 1091.84,-124.99 1097.23,-120.53"/>
</g>
<!-- &#45;3&#45;&gt;3 -->
<g id="edge9" class="edge">
<title>&#45;3&#45;&gt;3</title>
<path fill="none" stroke="red" stroke-width="0.12" stroke-dasharray="1,5" d="M1113.66,-156.61C1110.83,-155.62 1107.85,-154.69 1105,-154.02 1023.33,-134.81 765.08,-112 681.43,-104.95"/>
<polygon fill="red" stroke="red" stroke-width="0.12" points="681.51,-101.44 671.25,-104.1 680.92,-108.42 681.51,-101.44"/>
</g>
<!-- &#45;4 -->
<g id="node4" class="node">
<title>&#45;4</title>
<polygon fill="lightgray" stroke="black" points="1728,-172.02 1702,-172.02 1702,-154.02 1728,-154.02 1728,-172.02"/>
<text text-anchor="middle" x="1715" y="-160.82" font-family="Times,serif" font-size="9.00">&#45;4</text>
</g>
<!-- &#45;5 -->
<g id="node5" class="node">
<title>&#45;5</title>
<polygon fill="lightgray" stroke="black" points="1334,-172.02 1308,-172.02 1308,-154.02 1334,-154.02 1334,-172.02"/>
<text text-anchor="middle" x="1321" y="-160.82" font-family="Times,serif" font-size="9.00">&#45;5</text>
</g>
<!-- &#45;5&#45;&gt;0 -->
<g id="edge12" class="edge">
<title>&#45;5&#45;&gt;0</title>
<path fill="none" stroke="green" stroke-width="0.38" stroke-dasharray="1,5" d="M1307.59,-156.86C1304.77,-155.85 1301.81,-154.86 1299,-154.02 1229.35,-133.37 1145.34,-115.86 1103.82,-107.7"/>
<polygon fill="green" stroke="green" stroke-width="0.38" points="1104.47,-104.26 1093.98,-105.78 1103.13,-111.13 1104.47,-104.26"/>
</g>
<!-- &#45;5&#45;&gt;2 -->
<g id="edge19" class="edge">
<title>&#45;5&#45;&gt;2</title>
<path fill="none" stroke="green" stroke-width="0.38" d="M1307.66,-156.61C1304.83,-155.62 1301.85,-154.7 1299,-154.02 1218.6,-135.04 964.76,-112.17 881.64,-105.01"/>
<polygon fill="green" stroke="green" stroke-width="0.38" points="881.77,-101.51 871.5,-104.15 881.17,-108.49 881.77,-101.51"/>
</g>
<!-- &#45;6 -->
<g id="node6" class="node">
<title>&#45;6</title>
<polygon fill="lightgray" stroke="black" points="76,-172.02 50,-172.02 50,-154.02 76,-154.02 76,-172.02"/>
<text text-anchor="middle" x="63" y="-160.82" font-family="Times,serif" font-size="9.00">&#45;6</text>
</g>
<!-- &#45;6&#45;&gt;1 -->
<g id="edge39" class="edge">
<title>&#45;6&#45;&gt;1</title>
<path fill="none" stroke="red" stroke-width="0.55" d="M76.38,-156.77C79.2,-155.77 82.18,-154.8 85,-154.02 173.76,-129.7 281.94,-113.08 330.81,-106.25"/>
<polygon fill="red" stroke="red" stroke-width="0.55" points="331.42,-109.7 340.85,-104.87 330.47,-102.76 331.42,-109.7"/>
</g>
<!-- &#45;7 -->
<g id="node7" class="node">
<title>&#45;7</title>
<polygon fill="lightgray" stroke="black" points="170,-172.02 144,-172.02 144,-154.02 170,-154.02 170,-172.02"/>
<text text-anchor="middle" x="157" y="-160.82" font-family="Times,serif" font-size="9.00">&#45;7</text>
</g>
<!-- &#45;7&#45;&gt;1 -->
<g id="edge79" class="edge">
<title>&#45;7&#45;&gt;1</title>
<path fill="none" stroke="green" stroke-width="0.28" d="M170.45,-156.97C173.26,-155.96 176.22,-154.93 179,-154.02 232.76,-136.53 296.64,-118.89 331.37,-109.55"/>
<polygon fill="green" stroke="green" stroke-width="0.28" points="332.42,-112.89 341.17,-106.93 330.61,-106.13 332.42,-112.89"/>
</g>
<!-- &#45;7&#45;&gt;3 -->
<g id="edge54" class="edge">
<title>&#45;7&#45;&gt;3</title>
<path fill="none" stroke="green" stroke-width="0.59" stroke-dasharray="1,5" d="M170.34,-156.59C173.16,-155.61 176.15,-154.69 179,-154.02 347.27,-114.97 556.05,-105.54 628.66,-103.38"/>
<polygon fill="green" stroke="green" stroke-width="0.59" points="628.84,-106.87 638.74,-103.1 628.65,-99.87 628.84,-106.87"/>
</g>
<!-- &#45;8 -->
<g id="node8" class="node">
<title>&#45;8</title>
<polygon fill="lightgray" stroke="black" points="214,-172.02 188,-172.02 188,-154.02 214,-154.02 214,-172.02"/>
<text text-anchor="middle" x="201" y="-160.82" font-family="Times,serif" font-size="9.00">&#45;8</text>
</g>
<!-- &#45;8&#45;&gt;1 -->
<g id="edge41" class="edge">
<title>&#45;8&#45;&gt;1</title>
<path fill="none" stroke="green" stroke-width="0.1" stroke-dasharray="1,5" d="M214.03,-157.07C240.05,-147.19 298.79,-124.87 332.32,-112.14"/>
<polygon fill="green" stroke="green" stroke-width="0.1" points="333.75,-115.34 341.85,-108.52 331.26,-108.8 333.75,-115.34"/>
</g>
<!-- &#45;8&#45;&gt;3 -->
<g id="edge30" class="edge">
<title>&#45;8&#45;&gt;3</title>
<path fill="none" stroke="red" stroke-width="0.11" d="M214.35,-156.62C217.17,-155.63 220.15,-154.7 223,-154.02 373.69,-118.19 560.19,-106.87 628.41,-103.79"/>
<polygon fill="red" stroke="red" stroke-width="0.11" points="628.84,-107.27 638.68,-103.34 628.54,-100.28 628.84,-107.27"/>
</g>
<!-- &#45;9 -->
<g id="node9" class="node">
<title>&#45;9</title>
<polygon fill="lightgray" stroke="black" points="258,-172.02 232,-172.02 232,-154.02 258,-154.02 258,-172.02"/>
<text text-anchor="middle" x="245" y="-160.82" font-family="Times,serif" font-size="9.00">&#45;9</text>
</g>
<!-- &#45;9&#45;&gt;0 -->
<g id="edge31" class="edge">
<title>&#45;9&#45;&gt;0</title>
<path fill="none" stroke="green" stroke-width="0.51" stroke-dasharray="1,5" d="M258.32,-156.48C261.14,-155.51 264.13,-154.62 267,-154.02 534.27,-98.81 607.71,-136.51 880,-118.02 941.52,-113.85 1013.72,-108.06 1051.65,-104.95"/>
<polygon fill="green" stroke="green" stroke-width="0.51" points="1052.16,-108.42 1061.84,-104.11 1051.58,-101.44 1052.16,-108.42"/>
</g>
<!-- &#45;9&#45;&gt;1 -->
<g id="edge74" class="edge">
<title>&#45;9&#45;&gt;1</title>
<path fill="none" stroke="red" stroke-width="0.37" stroke-dasharray="1,5" d="M258.29,-154.99C276.95,-145.12 311.18,-127.01 334.02,-114.92"/>
<polygon fill="red" stroke="red" stroke-width="0.37" points="335.83,-117.92 343.03,-110.15 332.55,-111.74 335.83,-117.92"/>
</g>
<!-- &#45;9&#45;&gt;3 -->
<g id="edge75" class="edge">
<title>&#45;9&#45;&gt;3</title>
<path fill="none" stroke="red" stroke-width="0.16" stroke-dasharray="1,5" d="M258.35,-156.65C261.17,-155.66 264.16,-154.72 267,-154.02 400.24,-121.41 564.62,-108.35 628.17,-104.29"/>
<polygon fill="red" stroke="red" stroke-width="0.16" points="628.74,-107.76 638.5,-103.66 628.3,-100.78 628.74,-107.76"/>
</g>
<!-- 979 -->
<g id="node45" class="node">
<title>979</title>
<ellipse fill="white" stroke="black" cx="820" cy="-24.75" rx="25" ry="25"/>
<text text-anchor="middle" x="820" y="-22.55" font-family="Times,serif" font-size="9.00">979</text>
</g>
<!-- &#45;9&#45;&gt;979 -->
<g id="edge80" class="edge">
<title>&#45;9&#45;&gt;979</title>
<path fill="none" stroke="red" stroke-width="0.6" d="M251.57,-153.54C264.79,-137.18 296.39,-101.47 332,-85.5 413.35,-49.01 686.93,-32.28 784.81,-27.37"/>
<polygon fill="red" stroke="red" stroke-width="0.6" points="785.24,-30.85 795.06,-26.86 784.9,-23.86 785.24,-30.85"/>
</g>
<!-- &#45;10 -->
<g id="node10" class="node">
<title>&#45;10</title>
<polygon fill="lightgray" stroke="black" points="1384,-172.02 1352,-172.02 1352,-154.02 1384,-154.02 1384,-172.02"/>
<text text-anchor="middle" x="1368" y="-160.82" font-family="Times,serif" font-size="9.00">&#45;10</text>
</g>
<!-- &#45;10&#45;&gt;0 -->
<g id="edge20" class="edge">
<title>&#45;10&#45;&gt;0</title>
<path fill="none" stroke="green" stroke-width="0.37" d="M1351.94,-156.58C1348.99,-155.66 1345.91,-154.77 1343,-154.02 1256.45,-131.89 1151.84,-114.29 1104.07,-106.75"/>
<polygon fill="green" stroke="green" stroke-width="0.37" points="1104.4,-103.26 1093.98,-105.17 1103.32,-110.17 1104.4,-103.26"/>
</g>
<!-- &#45;10&#45;&gt;2 -->
<g id="edge71" class="edge">
<title>&#45;10&#45;&gt;2</title>
<path fill="none" stroke="green" stroke-width="0.65" d="M1351.99,-156.37C1349.03,-155.47 1345.94,-154.64 1343,-154.02 1253.37,-135.18 970.01,-111.83 881.61,-104.83"/>
<polygon fill="green" stroke="green" stroke-width="0.65" points="881.84,-101.34 871.59,-104.04 881.29,-108.32 881.84,-101.34"/>
</g>
<!-- &#45;11 -->
<g id="node11" class="node">
<title>&#45;11</title>
<polygon fill="lightgray" stroke="black" points="496,-172.02 464,-172.02 464,-154.02 496,-154.02 496,-172.02"/>
<text text-anchor="middle" x="480" y="-160.82" font-family="Times,serif" font-size="9.00">&#45;11</text>
</g>
<!-- &#45;11&#45;&gt;0 -->
<g id="edge24" class="edge">
<title>&#45;11&#45;&gt;0</title>
<path fill="none" stroke="red" stroke-width="0.61" d="M496,-156.33C498.96,-155.44 502.05,-154.62 505,-154.02 559.07,-143.09 946.58,-112.85 1051.73,-104.77"/>
<polygon fill="red" stroke="red" stroke-width="0.61" points="1052.1,-108.25 1061.81,-104 1051.57,-101.27 1052.1,-108.25"/>
</g>
<!-- &#45;11&#45;&gt;1 -->
<g id="edge23" class="edge">
<title>&#45;11&#45;&gt;1</title>
<path fill="none" stroke="red" stroke-width="0.92" d="M463.92,-154.28C442.74,-144.07 405.33,-126.05 380.86,-114.26"/>
<polygon fill="red" stroke="red" stroke-width="0.92" points="382.08,-110.96 371.55,-109.77 379.04,-117.27 382.08,-110.96"/>
</g>
<!-- &#45;11&#45;&gt;2 -->
<g id="edge21" class="edge">
<title>&#45;11&#45;&gt;2</title>
<path fill="none" stroke="red" stroke-width="0.31" stroke-dasharray="1,5" d="M496.03,-156.47C498.99,-155.56 502.07,-154.7 505,-154.02 624.16,-126.43 769.75,-110.74 828.53,-105.14"/>
<polygon fill="red" stroke="red" stroke-width="0.31" points="829.15,-108.6 838.78,-104.18 828.49,-101.63 829.15,-108.6"/>
</g>
<!-- &#45;11&#45;&gt;979 -->
<g id="edge76" class="edge">
<title>&#45;11&#45;&gt;979</title>
<path fill="none" stroke="red" stroke-width="0.28" d="M494.1,-153.82C520.26,-138.83 578.32,-106.63 630,-85.5 683.24,-63.72 747.52,-45.02 786.01,-34.59"/>
<polygon fill="red" stroke="red" stroke-width="0.28" points="787.4,-37.84 796.15,-31.87 785.59,-31.08 787.4,-37.84"/>
</g>
<!-- &#45;12 -->
<g id="node12" class="node">
<title>&#45;12</title>
<polygon fill="lightgray" stroke="black" points="646,-172.02 614,-172.02 614,-154.02 646,-154.02 646,-172.02"/>
<text text-anchor="middle" x="630" y="-160.82" font-family="Times,serif" font-size="9.00">&#45;12</text>
</g>
<!-- &#45;12&#45;&gt;2 -->
<g id="edge68" class="edge">
<title>&#45;12&#45;&gt;2</title>
<path fill="none" stroke="green" stroke-width="0.64" d="M646.1,-156.72C649.05,-155.79 652.11,-154.86 655,-154.02 717.34,-136.08 791.5,-117.88 829.6,-108.76"/>
<polygon fill="green" stroke="green" stroke-width="0.64" points="830.44,-112.16 839.36,-106.44 828.82,-105.35 830.44,-112.16"/>
</g>
<!-- &#45;12&#45;&gt;3 -->
<g id="edge47" class="edge">
<title>&#45;12&#45;&gt;3</title>
<path fill="none" stroke="red" stroke-width="0.17" stroke-dasharray="1,5" d="M633.48,-153.78C636.45,-146.72 640.9,-136.19 644.97,-126.53"/>
<polygon fill="red" stroke="red" stroke-width="0.17" points="648.2,-127.89 648.86,-117.32 641.75,-125.17 648.2,-127.89"/>
</g>
<!-- &#45;13 -->
<g id="node13" class="node">
<title>&#45;13</title>
<polygon fill="lightgray" stroke="black" points="796,-172.02 764,-172.02 764,-154.02 796,-154.02 796,-172.02"/>
<text text-anchor="middle" x="780" y="-160.82" font-family="Times,serif" font-size="9.00">&#45;13</text>
</g>
<!-- &#45;13&#45;&gt;0 -->
<g id="edge16" class="edge">
<title>&#45;13&#45;&gt;0</title>
<path fill="none" stroke="red" stroke-width="0.13" stroke-dasharray="1,5" d="M796.05,-156.56C799.01,-155.65 802.08,-154.76 805,-154.02 894.54,-131.38 1002.9,-113.93 1051.8,-106.57"/>
<polygon fill="red" stroke="red" stroke-width="0.13" points="1052.47,-110.01 1061.85,-105.08 1051.44,-103.09 1052.47,-110.01"/>
</g>
<!-- &#45;13&#45;&gt;1 -->
<g id="edge36" class="edge">
<title>&#45;13&#45;&gt;1</title>
<path fill="none" stroke="red" stroke-width="0.14" stroke-dasharray="1,5" d="M763.98,-156.42C761.02,-155.53 757.94,-154.68 755,-154.02 617.11,-123.35 447.96,-109.11 383.58,-104.51"/>
<polygon fill="red" stroke="red" stroke-width="0.14" points="383.71,-101.01 373.49,-103.81 383.22,-107.99 383.71,-101.01"/>
</g>
<!-- &#45;13&#45;&gt;2 -->
<g id="edge7" class="edge">
<title>&#45;13&#45;&gt;2</title>
<path fill="none" stroke="green" stroke-width="0.48" d="M790.43,-153.78C801.76,-144.83 820.16,-130.29 834.42,-119.02"/>
<polygon fill="green" stroke="green" stroke-width="0.48" points="836.99,-121.45 842.67,-112.51 832.65,-115.96 836.99,-121.45"/>
</g>
<!-- &#45;13&#45;&gt;3 -->
<g id="edge29" class="edge">
<title>&#45;13&#45;&gt;3</title>
<path fill="none" stroke="red" stroke-width="0.26" stroke-dasharray="1,5" d="M763.91,-154.4C742.26,-144.13 703.58,-125.79 678.62,-113.96"/>
<polygon fill="red" stroke="red" stroke-width="0.26" points="680.01,-110.74 669.47,-109.62 677.01,-117.07 680.01,-110.74"/>
</g>
<!-- &#45;14 -->
<g id="node14" class="node">
<title>&#45;14</title>
<polygon fill="lightgray" stroke="black" points="1290,-172.02 1258,-172.02 1258,-154.02 1290,-154.02 1290,-172.02"/>
<text text-anchor="middle" x="1274" y="-160.82" font-family="Times,serif" font-size="9.00">&#45;14</text>
</g>
<!-- &#45;14&#45;&gt;0 -->
<g id="edge1" class="edge">
<title>&#45;14&#45;&gt;0</title>
<path fill="none" stroke="green" stroke-width="0.2" d="M1257.88,-156.82C1254.93,-155.88 1251.87,-154.91 1249,-154.02 1197.44,-138.05 1136.9,-120.09 1103.45,-110.23"/>
<polygon fill="green" stroke="green" stroke-width="0.2" points="1104.17,-106.8 1093.59,-107.33 1102.2,-113.51 1104.17,-106.8"/>
</g>
<!-- &#45;14&#45;&gt;2 -->
<g id="edge50" class="edge">
<title>&#45;14&#45;&gt;2</title>
<path fill="none" stroke="red" stroke-width="0.59" d="M1257.98,-156.43C1255.02,-155.53 1251.94,-154.68 1249,-154.02 1112.49,-123.56 945.05,-109.2 881.31,-104.54"/>
<polygon fill="red" stroke="red" stroke-width="0.59" points="881.54,-101.05 871.32,-103.83 881.05,-108.03 881.54,-101.05"/>
</g>
<!-- &#45;14&#45;&gt;3 -->
<g id="edge58" class="edge">
<title>&#45;14&#45;&gt;3</title>
<path fill="none" stroke="red" stroke-width="0.44" d="M1257.73,-156.24C1254.85,-155.38 1251.86,-154.6 1249,-154.02 1065.73,-117.31 1016.21,-134.14 830,-118.02 777.36,-113.47 715.82,-108.09 681.53,-105.09"/>
<polygon fill="red" stroke="red" stroke-width="0.44" points="681.67,-101.58 671.41,-104.2 681.06,-108.56 681.67,-101.58"/>
</g>
<!-- &#45;15 -->
<g id="node15" class="node">
<title>&#45;15</title>
<polygon fill="lightgray" stroke="black" points="1778,-172.02 1746,-172.02 1746,-154.02 1778,-154.02 1778,-172.02"/>
<text text-anchor="middle" x="1762" y="-160.82" font-family="Times,serif" font-size="9.00">&#45;15</text>
</g>
<!-- &#45;16 -->
<g id="node16" class="node">
<title>&#45;16</title>
<polygon fill="lightgray" stroke="black" points="696,-172.02 664,-172.02 664,-154.02 696,-154.02 696,-172.02"/>
<text text-anchor="middle" x="680" y="-160.82" font-family="Times,serif" font-size="9.00">&#45;16</text>
</g>
<!-- &#45;16&#45;&gt;2 -->
<g id="edge60" class="edge">
<title>&#45;16&#45;&gt;2</title>
<path fill="none" stroke="red" stroke-width="0.38" d="M696.15,-156.56C726.8,-146.18 793.59,-123.56 830.05,-111.21"/>
<polygon fill="red" stroke="red" stroke-width="0.38" points="831.54,-114.4 839.89,-107.88 829.3,-107.77 831.54,-114.4"/>
</g>
<!-- &#45;16&#45;&gt;3 -->
<g id="edge61" class="edge">
<title>&#45;16&#45;&gt;3</title>
<path fill="none" stroke="red" stroke-width="0.49" d="M676.52,-153.78C673.55,-146.72 669.1,-136.19 665.03,-126.53"/>
<polygon fill="red" stroke="red" stroke-width="0.49" points="668.25,-125.17 661.14,-117.32 661.8,-127.89 668.25,-125.17"/>
</g>
<!-- &#45;17 -->
<g id="node17" class="node">
<title>&#45;17</title>
<polygon fill="lightgray" stroke="black" points="846,-172.02 814,-172.02 814,-154.02 846,-154.02 846,-172.02"/>
<text text-anchor="middle" x="830" y="-160.82" font-family="Times,serif" font-size="9.00">&#45;17</text>
</g>
<!-- &#45;17&#45;&gt;0 -->
<g id="edge18" class="edge">
<title>&#45;17&#45;&gt;0</title>
<path fill="none" stroke="green" stroke-width="0.28" stroke-dasharray="1,5" d="M846.08,-156.66C849.03,-155.74 852.1,-154.82 855,-154.02 925.83,-134.59 1010.68,-116.48 1052.34,-107.93"/>
<polygon fill="green" stroke="green" stroke-width="0.28" points="1053.11,-111.35 1062.21,-105.92 1051.71,-104.49 1053.11,-111.35"/>
</g>
<!-- &#45;17&#45;&gt;1 -->
<g id="edge17" class="edge">
<title>&#45;17&#45;&gt;1</title>
<path fill="none" stroke="red" stroke-width="0.17" d="M813.99,-156.39C811.03,-155.49 807.94,-154.66 805,-154.02 647.35,-120.12 453.36,-107.59 383.57,-103.98"/>
<polygon fill="red" stroke="red" stroke-width="0.17" points="383.62,-100.48 373.46,-103.48 383.27,-107.47 383.62,-100.48"/>
</g>
<!-- &#45;17&#45;&gt;2 -->
<g id="edge73" class="edge">
<title>&#45;17&#45;&gt;2</title>
<path fill="none" stroke="red" stroke-width="0.11" stroke-dasharray="1,5" d="M833.48,-153.78C836.45,-146.72 840.9,-136.19 844.97,-126.53"/>
<polygon fill="red" stroke="red" stroke-width="0.11" points="848.2,-127.89 848.86,-117.32 841.75,-125.17 848.2,-127.89"/>
</g>
<!-- &#45;17&#45;&gt;3 -->
<g id="edge3" class="edge">
<title>&#45;17&#45;&gt;3</title>
<path fill="none" stroke="red" stroke-width="0.58" d="M813.85,-156.56C783.2,-146.18 716.41,-123.56 679.95,-111.21"/>
<polygon fill="red" stroke="red" stroke-width="0.58" points="680.7,-107.77 670.11,-107.88 678.46,-114.4 680.7,-107.77"/>
</g>
<!-- &#45;18 -->
<g id="node18" class="node">
<title>&#45;18</title>
<polygon fill="lightgray" stroke="black" points="1434,-172.02 1402,-172.02 1402,-154.02 1434,-154.02 1434,-172.02"/>
<text text-anchor="middle" x="1418" y="-160.82" font-family="Times,serif" font-size="9.00">&#45;18</text>
</g>
<!-- &#45;18&#45;&gt;0 -->
<g id="edge55" class="edge">
<title>&#45;18&#45;&gt;0</title>
<path fill="none" stroke="red" stroke-width="0.41" d="M1401.96,-156.51C1399,-155.6 1395.92,-154.73 1393,-154.02 1287.4,-128.68 1158.86,-112.1 1104.4,-105.71"/>
<polygon fill="red" stroke="red" stroke-width="0.41" points="1104.57,-102.21 1094.23,-104.54 1103.76,-109.16 1104.57,-102.21"/>
</g>
<!-- &#45;18&#45;&gt;2 -->
<g id="edge65" class="edge">
<title>&#45;18&#45;&gt;2</title>
<path fill="none" stroke="green" stroke-width="0.17" stroke-dasharray="1,5" d="M1402,-156.34C1399.04,-155.45 1395.95,-154.63 1393,-154.02 1342.51,-143.67 982.3,-113.32 881.28,-104.93"/>
<polygon fill="green" stroke="green" stroke-width="0.17" points="881.55,-101.44 871.3,-104.1 880.97,-108.42 881.55,-101.44"/>
</g>
<!-- &#45;19 -->
<g id="node19" class="node">
<title>&#45;19</title>
<polygon fill="lightgray" stroke="black" points="1096,-172.02 1064,-172.02 1064,-154.02 1096,-154.02 1096,-172.02"/>
<text text-anchor="middle" x="1080" y="-160.82" font-family="Times,serif" font-size="9.00">&#45;19</text>
</g>
<!-- &#45;19&#45;&gt;2 -->
<g id="edge46" class="edge">
<title>&#45;19&#45;&gt;2</title>
<path fill="none" stroke="green" stroke-width="0.15" stroke-dasharray="1,5" d="M1063.9,-156.72C1060.95,-155.79 1057.89,-154.86 1055,-154.02 992.66,-136.08 918.5,-117.88 880.4,-108.76"/>
<polygon fill="green" stroke="green" stroke-width="0.15" points="881.18,-105.35 870.64,-106.44 879.56,-112.16 881.18,-105.35"/>
</g>
<!-- &#45;20 -->
<g id="node20" class="node">
<title>&#45;20</title>
<polygon fill="lightgray" stroke="black" points="1684,-172.02 1652,-172.02 1652,-154.02 1684,-154.02 1684,-172.02"/>
<text text-anchor="middle" x="1668" y="-160.82" font-family="Times,serif" font-size="9.00">&#45;20</text>
</g>
<!-- &#45;20&#45;&gt;0 -->
<g id="edge22" class="edge">
<title>&#45;20&#45;&gt;0</title>
<path fill="none" stroke="green" stroke-width="0.17" d="M1652,-156.33C1649.04,-155.44 1645.95,-154.62 1643,-154.02 1438.8,-112.61 1186.26,-104.64 1104.72,-103.12"/>
<polygon fill="green" stroke="green" stroke-width="0.17" points="1104.43,-99.61 1094.37,-102.94 1104.31,-106.61 1104.43,-99.61"/>
</g>
<!-- &#45;21 -->
<g id="node21" class="node">
<title>&#45;21</title>
<polygon fill="lightgray" stroke="black" points="446,-172.02 414,-172.02 414,-154.02 446,-154.02 446,-172.02"/>
<text text-anchor="middle" x="430" y="-160.82" font-family="Times,serif" font-size="9.00">&#45;21</text>
</g>
<!-- &#45;21&#45;&gt;0 -->
<g id="edge34" class="edge">
<title>&#45;21&#45;&gt;0</title>
<path fill="none" stroke="red" stroke-width="0.14" d="M446.27,-156.23C449.15,-155.38 452.14,-154.59 455,-154.02 469.89,-151.07 934.8,-114.11 1051.59,-104.85"/>
<polygon fill="red" stroke="red" stroke-width="0.14" points="1052.08,-108.32 1061.78,-104.04 1051.53,-101.35 1052.08,-108.32"/>
</g>
<!-- &#45;21&#45;&gt;1 -->
<g id="edge37" class="edge">
<title>&#45;21&#45;&gt;1</title>
<path fill="none" stroke="green" stroke-width="0.31" d="M419.85,-153.78C408.95,-144.93 391.33,-130.63 377.52,-119.42"/>
<polygon fill="green" stroke="green" stroke-width="0.31" points="379.48,-116.5 369.51,-112.91 375.07,-121.94 379.48,-116.5"/>
</g>
<!-- &#45;22 -->
<g id="node22" class="node">
<title>&#45;22</title>
<polygon fill="lightgray" stroke="black" points="896,-172.02 864,-172.02 864,-154.02 896,-154.02 896,-172.02"/>
<text text-anchor="middle" x="880" y="-160.82" font-family="Times,serif" font-size="9.00">&#45;22</text>
</g>
<!-- &#45;22&#45;&gt;0 -->
<g id="edge26" class="edge">
<title>&#45;22&#45;&gt;0</title>
<path fill="none" stroke="red" stroke-width="0.16" stroke-dasharray="1,5" d="M896.12,-156.81C899.07,-155.87 902.13,-154.91 905,-154.02 957.14,-137.96 1018.4,-120.03 1052.24,-110.2"/>
<polygon fill="red" stroke="red" stroke-width="0.16" points="1053.59,-113.46 1062.22,-107.31 1051.64,-106.73 1053.59,-113.46"/>
</g>
<!-- &#45;22&#45;&gt;1 -->
<g id="edge10" class="edge">
<title>&#45;22&#45;&gt;1</title>
<path fill="none" stroke="red" stroke-width="0.48" d="M863.99,-156.36C861.03,-155.47 857.94,-154.64 855,-154.02 677.78,-116.97 459.24,-106.27 383.96,-103.58"/>
<polygon fill="red" stroke="red" stroke-width="0.48" points="383.64,-100.06 373.53,-103.22 383.4,-107.06 383.64,-100.06"/>
</g>
<!-- &#45;22&#45;&gt;2 -->
<g id="edge45" class="edge">
<title>&#45;22&#45;&gt;2</title>
<path fill="none" stroke="red" stroke-width="0.12" d="M876.52,-153.78C873.55,-146.72 869.1,-136.19 865.03,-126.53"/>
<polygon fill="red" stroke="red" stroke-width="0.12" points="868.25,-125.17 861.14,-117.32 861.8,-127.89 868.25,-125.17"/>
</g>
<!-- &#45;22&#45;&gt;3 -->
<g id="edge66" class="edge">
<title>&#45;22&#45;&gt;3</title>
<path fill="none" stroke="red" stroke-width="0.1" d="M863.9,-156.72C860.95,-155.79 857.89,-154.86 855,-154.02 792.66,-136.08 718.5,-117.88 680.4,-108.76"/>
<polygon fill="red" stroke="red" stroke-width="0.1" points="681.18,-105.35 670.64,-106.44 679.56,-112.16 681.18,-105.35"/>
</g>
<!-- &#45;23 -->
<g id="node23" class="node">
<title>&#45;23</title>
<polygon fill="lightgray" stroke="black" points="1828,-172.02 1796,-172.02 1796,-154.02 1828,-154.02 1828,-172.02"/>
<text text-anchor="middle" x="1812" y="-160.82" font-family="Times,serif" font-size="9.00">&#45;23</text>
</g>
<!-- &#45;24 -->
<g id="node24" class="node">
<title>&#45;24</title>
<polygon fill="lightgray" stroke="black" points="1534,-172.02 1502,-172.02 1502,-154.02 1534,-154.02 1534,-172.02"/>
<text text-anchor="middle" x="1518" y="-160.82" font-family="Times,serif" font-size="9.00">&#45;24</text>
</g>
<!-- &#45;24&#45;&gt;0 -->
<g id="edge42" class="edge">
<title>&#45;24&#45;&gt;0</title>
<path fill="none" stroke="red" stroke-width="0.65" stroke-dasharray="1,5" d="M1501.98,-156.41C1499.02,-155.51 1495.94,-154.67 1493,-154.02 1348.56,-122.28 1171.21,-108.6 1104.79,-104.33"/>
<polygon fill="red" stroke="red" stroke-width="0.65" points="1104.6,-100.81 1094.4,-103.68 1104.16,-107.8 1104.6,-100.81"/>
</g>
<!-- &#45;25 -->
<g id="node25" class="node">
<title>&#45;25</title>
<polygon fill="lightgray" stroke="black" points="396,-172.02 364,-172.02 364,-154.02 396,-154.02 396,-172.02"/>
<text text-anchor="middle" x="380" y="-160.82" font-family="Times,serif" font-size="9.00">&#45;25</text>
</g>
<!-- &#45;25&#45;&gt;0 -->
<g id="edge51" class="edge">
<title>&#45;25&#45;&gt;0</title>
<path fill="none" stroke="green" stroke-width="0.16" stroke-dasharray="1,5" d="M396.26,-156.22C399.14,-155.36 402.14,-154.58 405,-154.02 612.8,-113.48 668.9,-134.16 880,-118.02 941.48,-113.32 1013.7,-107.74 1051.64,-104.8"/>
<polygon fill="green" stroke="green" stroke-width="0.16" points="1052.13,-108.28 1061.83,-104.01 1051.59,-101.3 1052.13,-108.28"/>
</g>
<!-- &#45;25&#45;&gt;1 -->
<g id="edge15" class="edge">
<title>&#45;25&#45;&gt;1</title>
<path fill="none" stroke="green" stroke-width="0.19" stroke-dasharray="1,5" d="M376.8,-153.78C374.09,-146.8 370.06,-136.41 366.34,-126.83"/>
<polygon fill="green" stroke="green" stroke-width="0.19" points="369.53,-125.37 362.65,-117.32 363,-127.9 369.53,-125.37"/>
</g>
<!-- &#45;25&#45;&gt;3 -->
<g id="edge53" class="edge">
<title>&#45;25&#45;&gt;3</title>
<path fill="none" stroke="green" stroke-width="0.13" stroke-dasharray="1,5" d="M396.06,-156.6C399.02,-155.69 402.09,-154.79 405,-154.02 485.95,-132.84 583.52,-115.01 629.14,-107.12"/>
<polygon fill="green" stroke="green" stroke-width="0.13" points="629.8,-110.55 639.07,-105.41 628.62,-103.66 629.8,-110.55"/>
</g>
<!-- &#45;26 -->
<g id="node26" class="node">
<title>&#45;26</title>
<polygon fill="lightgray" stroke="black" points="1190,-172.02 1158,-172.02 1158,-154.02 1190,-154.02 1190,-172.02"/>
<text text-anchor="middle" x="1174" y="-160.82" font-family="Times,serif" font-size="9.00">&#45;26</text>
</g>
<!-- &#45;26&#45;&gt;0 -->
<g id="edge40" class="edge">
<title>&#45;26&#45;&gt;0</title>
<path fill="none" stroke="green" stroke-width="0.15" stroke-dasharray="1,5" d="M1160.65,-153.78C1145.05,-144.15 1118.99,-128.06 1100.3,-116.53"/>
<polygon fill="green" stroke="green" stroke-width="0.15" points="1101.89,-113.4 1091.54,-111.12 1098.22,-119.35 1101.89,-113.4"/>
</g>
<!-- &#45;26&#45;&gt;3 -->
<g id="edge28" class="edge">
<title>&#45;26&#45;&gt;3</title>
<path fill="none" stroke="green" stroke-width="0.54" d="M1157.99,-156.36C1155.03,-155.47 1151.94,-154.64 1149,-154.02 1102.99,-144.38 776.83,-113.96 681.26,-105.17"/>
<polygon fill="green" stroke="green" stroke-width="0.54" points="681.54,-101.68 671.26,-104.25 680.9,-108.65 681.54,-101.68"/>
</g>
<!-- &#45;27 -->
<g id="node27" class="node">
<title>&#45;27</title>
<polygon fill="lightgray" stroke="black" points="1484,-172.02 1452,-172.02 1452,-154.02 1484,-154.02 1484,-172.02"/>
<text text-anchor="middle" x="1468" y="-160.82" font-family="Times,serif" font-size="9.00">&#45;27</text>
</g>
<!-- &#45;27&#45;&gt;0 -->
<g id="edge4" class="edge">
<title>&#45;27&#45;&gt;0</title>
<path fill="none" stroke="green" stroke-width="0.18" stroke-dasharray="1,5" d="M1451.97,-156.45C1449.01,-155.55 1445.93,-154.69 1443,-154.02 1317.91,-125.44 1164.84,-110.19 1104.37,-104.91"/>
<polygon fill="green" stroke="green" stroke-width="0.18" points="1104.45,-101.41 1094.19,-104.04 1103.85,-108.38 1104.45,-101.41"/>
</g>
<!-- &#45;27&#45;&gt;2 -->
<g id="edge52" class="edge">
<title>&#45;27&#45;&gt;2</title>
<path fill="none" stroke="red" stroke-width="0.5" d="M1451.73,-156.24C1448.85,-155.39 1445.86,-154.6 1443,-154.02 1415.08,-148.41 992.1,-113.88 881.37,-104.89"/>
<polygon fill="red" stroke="red" stroke-width="0.5" points="881.62,-101.4 871.37,-104.08 881.05,-108.38 881.62,-101.4"/>
</g>
<!-- &#45;28 -->
<g id="node28" class="node">
<title>&#45;28</title>
<polygon fill="lightgray" stroke="black" points="946,-172.02 914,-172.02 914,-154.02 946,-154.02 946,-172.02"/>
<text text-anchor="middle" x="930" y="-160.82" font-family="Times,serif" font-size="9.00">&#45;28</text>
</g>
<!-- &#45;28&#45;&gt;0 -->
<g id="edge2" class="edge">
<title>&#45;28&#45;&gt;0</title>
<path fill="none" stroke="red" stroke-width="0.21" d="M946.12,-155.57C972.1,-145.17 1023.39,-124.63 1053.78,-112.46"/>
<polygon fill="red" stroke="red" stroke-width="0.21" points="1055.24,-115.64 1063.22,-108.68 1052.64,-109.15 1055.24,-115.64"/>
</g>
<!-- &#45;28&#45;&gt;1 -->
<g id="edge62" class="edge">
<title>&#45;28&#45;&gt;1</title>
<path fill="none" stroke="red" stroke-width="0.22" d="M914,-156.34C911.04,-155.45 907.95,-154.63 905,-154.02 803.12,-133.22 478.41,-110.74 383.37,-104.47"/>
<polygon fill="red" stroke="red" stroke-width="0.22" points="383.4,-100.96 373.19,-103.8 382.94,-107.95 383.4,-100.96"/>
</g>
<!-- &#45;28&#45;&gt;2 -->
<g id="edge8" class="edge">
<title>&#45;28&#45;&gt;2</title>
<path fill="none" stroke="green" stroke-width="0.71" d="M919.57,-153.78C908.24,-144.83 889.84,-130.29 875.58,-119.02"/>
<polygon fill="green" stroke="green" stroke-width="0.71" points="877.35,-115.96 867.33,-112.51 873.01,-121.45 877.35,-115.96"/>
</g>
<!-- &#45;29 -->
<g id="node29" class="node">
<title>&#45;29</title>
<polygon fill="lightgray" stroke="black" points="1240,-172.02 1208,-172.02 1208,-154.02 1240,-154.02 1240,-172.02"/>
<text text-anchor="middle" x="1224" y="-160.82" font-family="Times,serif" font-size="9.00">&#45;29</text>
</g>
<!-- &#45;29&#45;&gt;0 -->
<g id="edge35" class="edge">
<title>&#45;29&#45;&gt;0</title>
<path fill="none" stroke="green" stroke-width="0.2" d="M1207.82,-155.46C1182.2,-145.06 1132.17,-124.75 1102.25,-112.6"/>
<polygon fill="green" stroke="green" stroke-width="0.2" points="1103.52,-109.34 1092.94,-108.82 1100.89,-115.83 1103.52,-109.34"/>
</g>
<!-- &#45;29&#45;&gt;3 -->
<g id="edge11" class="edge">
<title>&#45;29&#45;&gt;3</title>
<path fill="none" stroke="green" stroke-width="0.21" stroke-dasharray="1,5" d="M1208,-156.34C1205.04,-155.45 1201.95,-154.63 1199,-154.02 1173.33,-148.77 786.8,-114.4 681.38,-105.09"/>
<polygon fill="green" stroke="green" stroke-width="0.21" points="681.55,-101.59 671.28,-104.19 680.93,-108.56 681.55,-101.59"/>
</g>
<!-- &#45;30 -->
<g id="node30" class="node">
<title>&#45;30</title>
<polygon fill="lightgray" stroke="black" points="546,-172.02 514,-172.02 514,-154.02 546,-154.02 546,-172.02"/>
<text text-anchor="middle" x="530" y="-160.82" font-family="Times,serif" font-size="9.00">&#45;30</text>
</g>
<!-- &#45;30&#45;&gt;3 -->
<g id="edge33" class="edge">
<title>&#45;30&#45;&gt;3</title>
<path fill="none" stroke="green" stroke-width="0.21" d="M546.09,-154.4C567.74,-144.13 606.42,-125.79 631.38,-113.96"/>
<polygon fill="green" stroke="green" stroke-width="0.21" points="632.99,-117.07 640.53,-109.62 629.99,-110.74 632.99,-117.07"/>
</g>
<!-- &#45;31 -->
<g id="node31" class="node">
<title>&#45;31</title>
<polygon fill="lightgray" stroke="black" points="746,-172.02 714,-172.02 714,-154.02 746,-154.02 746,-172.02"/>
<text text-anchor="middle" x="730" y="-160.82" font-family="Times,serif" font-size="9.00">&#45;31</text>
</g>
<!-- &#45;31&#45;&gt;2 -->
<g id="edge67" class="edge">
<title>&#45;31&#45;&gt;2</title>
<path fill="none" stroke="red" stroke-width="0.18" d="M746.09,-154.4C767.74,-144.13 806.42,-125.79 831.38,-113.96"/>
<polygon fill="red" stroke="red" stroke-width="0.18" points="832.99,-117.07 840.53,-109.62 829.99,-110.74 832.99,-117.07"/>
</g>
<!-- &#45;31&#45;&gt;3 -->
<g id="edge27" class="edge">
<title>&#45;31&#45;&gt;3</title>
<path fill="none" stroke="red" stroke-width="0.86" d="M719.57,-153.78C708.24,-144.83 689.84,-130.29 675.58,-119.02"/>
<polygon fill="red" stroke="red" stroke-width="0.86" points="677.35,-115.96 667.33,-112.51 673.01,-121.45 677.35,-115.96"/>
</g>
<!-- &#45;32 -->
<g id="node32" class="node">
<title>&#45;32</title>
<polygon fill="lightgray" stroke="black" points="1878,-172.02 1846,-172.02 1846,-154.02 1878,-154.02 1878,-172.02"/>
<text text-anchor="middle" x="1862" y="-160.82" font-family="Times,serif" font-size="9.00">&#45;32</text>
</g>
<!-- &#45;33 -->
<g id="node33" class="node">
<title>&#45;33</title>
<polygon fill="lightgray" stroke="black" points="1584,-172.02 1552,-172.02 1552,-154.02 1584,-154.02 1584,-172.02"/>
<text text-anchor="middle" x="1568" y="-160.82" font-family="Times,serif" font-size="9.00">&#45;33</text>
</g>
<!-- &#45;33&#45;&gt;0 -->
<g id="edge64" class="edge">
<title>&#45;33&#45;&gt;0</title>
<path fill="none" stroke="red" stroke-width="0.34" stroke-dasharray="1,5" d="M1551.99,-156.38C1549.03,-155.49 1545.94,-154.65 1543,-154.02 1378.62,-119.03 1176.16,-107.11 1104.59,-103.83"/>
<polygon fill="red" stroke="red" stroke-width="0.34" points="1104.39,-100.32 1094.25,-103.38 1104.08,-107.31 1104.39,-100.32"/>
</g>
<!-- &#45;34 -->
<g id="node34" class="node">
<title>&#45;34</title>
<polygon fill="lightgray" stroke="black" points="1046,-172.02 1014,-172.02 1014,-154.02 1046,-154.02 1046,-172.02"/>
<text text-anchor="middle" x="1030" y="-160.82" font-family="Times,serif" font-size="9.00">&#45;34</text>
</g>
<!-- &#45;34&#45;&gt;0 -->
<g id="edge6" class="edge">
<title>&#45;34&#45;&gt;0</title>
<path fill="none" stroke="red" stroke-width="0.85" d="M1036.67,-153.78C1043.1,-145.85 1053.07,-133.55 1061.6,-123.01"/>
<polygon fill="red" stroke="red" stroke-width="0.85" points="1064.47,-125.02 1068.05,-115.05 1059.03,-120.62 1064.47,-125.02"/>
</g>
<!-- &#45;34&#45;&gt;2 -->
<g id="edge14" class="edge">
<title>&#45;34&#45;&gt;2</title>
<path fill="none" stroke="red" stroke-width="0.26" stroke-dasharray="1,5" d="M1013.85,-156.56C983.2,-146.18 916.41,-123.56 879.95,-111.21"/>
<polygon fill="red" stroke="red" stroke-width="0.26" points="880.7,-107.77 870.11,-107.88 878.46,-114.4 880.7,-107.77"/>
</g>
<!-- &#45;34&#45;&gt;3 -->
<g id="edge43" class="edge">
<title>&#45;34&#45;&gt;3</title>
<path fill="none" stroke="green" stroke-width="0.12" d="M1013.97,-156.47C1011.01,-155.56 1007.93,-154.7 1005,-154.02 885.84,-126.43 740.25,-110.74 681.47,-105.14"/>
<polygon fill="green" stroke="green" stroke-width="0.12" points="681.51,-101.63 671.22,-104.18 680.85,-108.6 681.51,-101.63"/>
</g>
<!-- &#45;35 -->
<g id="node35" class="node">
<title>&#45;35</title>
<polygon fill="lightgray" stroke="black" points="1928,-172.02 1896,-172.02 1896,-154.02 1928,-154.02 1928,-172.02"/>
<text text-anchor="middle" x="1912" y="-160.82" font-family="Times,serif" font-size="9.00">&#45;35</text>
</g>
<!-- &#45;36 -->
<g id="node36" class="node">
<title>&#45;36</title>
<polygon fill="lightgray" stroke="black" points="1634,-172.02 1602,-172.02 1602,-154.02 1634,-154.02 1634,-172.02"/>
<text text-anchor="middle" x="1618" y="-160.82" font-family="Times,serif" font-size="9.00">&#45;36</text>
</g>
<!-- &#45;36&#45;&gt;0 -->
<g id="edge32" class="edge">
<title>&#45;36&#45;&gt;0</title>
<path fill="none" stroke="green" stroke-width="0.47" stroke-dasharray="1,5" d="M1601.99,-156.35C1599.03,-155.46 1595.95,-154.64 1593,-154.02 1408.52,-115.77 1180.73,-105.79 1104.35,-103.43"/>
<polygon fill="green" stroke="green" stroke-width="0.47" points="1104.3,-99.93 1094.21,-103.14 1104.1,-106.93 1104.3,-99.93"/>
</g>
<!-- &#45;37 -->
<g id="node37" class="node">
<title>&#45;37</title>
<polygon fill="lightgray" stroke="black" points="996,-172.02 964,-172.02 964,-154.02 996,-154.02 996,-172.02"/>
<text text-anchor="middle" x="980" y="-160.82" font-family="Times,serif" font-size="9.00">&#45;37</text>
</g>
<!-- &#45;37&#45;&gt;0 -->
<g id="edge72" class="edge">
<title>&#45;37&#45;&gt;0</title>
<path fill="none" stroke="green" stroke-width="0.35" d="M993.63,-153.78C1009.72,-144.05 1036.7,-127.73 1055.82,-116.17"/>
<polygon fill="green" stroke="green" stroke-width="0.35" points="1057.74,-119.1 1064.49,-110.93 1054.12,-113.11 1057.74,-119.1"/>
</g>
<!-- &#45;37&#45;&gt;1 -->
<g id="edge69" class="edge">
<title>&#45;37&#45;&gt;1</title>
<path fill="none" stroke="red" stroke-width="0.34" d="M963.73,-156.24C960.85,-155.38 957.86,-154.6 955,-154.02 842.98,-131.6 484.11,-109.98 383.47,-104.24"/>
<polygon fill="red" stroke="red" stroke-width="0.34" points="383.45,-100.73 373.26,-103.66 383.05,-107.72 383.45,-100.73"/>
</g>
<!-- &#45;38 -->
<g id="node38" class="node">
<title>&#45;38</title>
<polygon fill="lightgray" stroke="black" points="596,-172.02 564,-172.02 564,-154.02 596,-154.02 596,-172.02"/>
<text text-anchor="middle" x="580" y="-160.82" font-family="Times,serif" font-size="9.00">&#45;38</text>
</g>
<!-- &#45;38&#45;&gt;2 -->
<g id="edge57" class="edge">
<title>&#45;38&#45;&gt;2</title>
<path fill="none" stroke="green" stroke-width="0.16" stroke-dasharray="1,5" d="M596.06,-156.6C599.02,-155.69 602.09,-154.79 605,-154.02 685.95,-132.84 783.52,-115.01 829.14,-107.12"/>
<polygon fill="green" stroke="green" stroke-width="0.16" points="829.8,-110.55 839.07,-105.41 828.62,-103.66 829.8,-110.55"/>
</g>
<!-- &#45;38&#45;&gt;3 -->
<g id="edge78" class="edge">
<title>&#45;38&#45;&gt;3</title>
<path fill="none" stroke="green" stroke-width="0.32" d="M590.43,-153.78C601.76,-144.83 620.16,-130.29 634.42,-119.02"/>
<polygon fill="green" stroke="green" stroke-width="0.32" points="636.99,-121.45 642.67,-112.51 632.65,-115.96 636.99,-121.45"/>
</g>
<!-- &#45;39 -->
<g id="node39" class="node">
<title>&#45;39</title>
<polygon fill="lightgray" stroke="black" points="126,-172.02 94,-172.02 94,-154.02 126,-154.02 126,-172.02"/>
<text text-anchor="middle" x="110" y="-160.82" font-family="Times,serif" font-size="9.00">&#45;39</text>
</g>
<!-- &#45;39&#45;&gt;1 -->
<g id="edge70" class="edge">
<title>&#45;39&#45;&gt;1</title>
<path fill="none" stroke="red" stroke-width="0.12" stroke-dasharray="1,5" d="M126.08,-156.66C129.03,-155.74 132.1,-154.82 135,-154.02 205.52,-134.63 289.99,-116.51 331.46,-107.94"/>
<polygon fill="red" stroke="red" stroke-width="0.12" points="332.19,-111.36 341.28,-105.92 330.78,-104.51 332.19,-111.36"/>
</g>
<!-- &#45;39&#45;&gt;3 -->
<g id="edge38" class="edge">
<title>&#45;39&#45;&gt;3</title>
<path fill="none" stroke="green" stroke-width="0.33" d="M126,-156.35C128.97,-155.46 132.05,-154.63 135,-154.02 321.28,-115.49 551.27,-105.69 628.39,-103.4"/>
<polygon fill="green" stroke="green" stroke-width="0.33" points="628.74,-106.9 638.64,-103.12 628.54,-99.9 628.74,-106.9"/>
</g>
<!-- &#45;40 -->
<g id="node40" class="node">
<title>&#45;40</title>
<polygon fill="lightgray" stroke="black" points="32,-172.02 0,-172.02 0,-154.02 32,-154.02 32,-172.02"/>
<text text-anchor="middle" x="16" y="-160.82" font-family="Times,serif" font-size="9.00">&#45;40</text>
</g>
<!-- &#45;40&#45;&gt;1 -->
<g id="edge59" class="edge">
<title>&#45;40&#45;&gt;1</title>
<path fill="none" stroke="green" stroke-width="0.94" d="M32.04,-156.5C35,-155.6 38.08,-154.73 41,-154.02 146.93,-128.63 275.89,-112.07 330.52,-105.7"/>
<polygon fill="green" stroke="green" stroke-width="0.94" points="331.18,-109.15 340.72,-104.53 330.38,-102.2 331.18,-109.15"/>
</g>
<!-- 0&#45;&gt;979 -->
<g id="edge81" class="edge">
<title>0&#45;&gt;979</title>
<path fill="none" stroke="red" stroke-width="0.46" d="M1062.06,-97.04C1020.44,-86.13 909.02,-53.91 852.96,-36.77"/>
<polygon fill="red" stroke="red" stroke-width="0.46" points="853.75,-33.35 843.16,-33.75 851.69,-40.04 853.75,-33.35"/>
</g>
<!-- 3&#45;&gt;3 -->
<g id="edge44" class="edge">
<title>3&#45;&gt;3</title>
<path fill="none" stroke="red" stroke-width="0.39" d="M668.36,-111.56C678.71,-115.22 689.26,-111.96 689.26,-101.76 689.26,-95.07 684.72,-91.36 678.67,-90.64"/>
<polygon fill="red" stroke="red" stroke-width="0.39" points="677.84,-87.22 668.36,-91.96 678.73,-94.16 677.84,-87.22"/>
</g>
<!-- 979&#45;&gt;0 -->
<g id="edge77" class="edge">
<title>979&#45;&gt;0</title>
<path fill="none" stroke="red" stroke-width="0.21" d="M843.89,-31.58C892.83,-44.75 1003.35,-76.82 1053.11,-92.22"/>
<polygon fill="red" stroke="red" stroke-width="0.21" points="1052.18,-95.6 1062.77,-95.25 1054.27,-88.92 1052.18,-95.6"/>
</g>
</g>
</svg>
