<?xml version="1.0" encoding="UTF-8" standalone="no"?>
<!DOCTYPE svg PUBLIC "-//W3C//DTD SVG 1.1//EN"
 "http://www.w3.org/Graphics/SVG/1.1/DTD/svg11.dtd">
<!-- Generated by graphviz version 2.43.0 (0)
 -->
<!-- Title: %3 Pages: 1 -->
<svg width="1936pt" height="95pt"
 viewBox="0.00 0.00 1936.00 94.53" xmlns="http://www.w3.org/2000/svg" xmlns:xlink="http://www.w3.org/1999/xlink">
<g id="graph0" class="graph" transform="scale(1 1) rotate(0) translate(4 90.53)">
<title>%3</title>
<polygon fill="white" stroke="transparent" points="-4,4 -4,-90.53 1932,-90.53 1932,4 -4,4"/>
<!-- &#45;1 -->
<g id="node1" class="node">
<title>&#45;1</title>
<polygon fill="lightgray" stroke="black" points="76,-86.53 50,-86.53 50,-68.53 76,-68.53 76,-86.53"/>
<text text-anchor="middle" x="63" y="-75.33" font-family="Times,serif" font-size="9.00">&#45;1</text>
</g>
<!-- 2 -->
<g id="node43" class="node">
<title>2</title>
<ellipse fill="lightblue" stroke="black" cx="398" cy="-16.26" rx="16.03" ry="16.03"/>
<text text-anchor="middle" x="398" y="-14.06" font-family="Times,serif" font-size="9.00">2</text>
</g>
<!-- &#45;1&#45;&gt;2 -->
<g id="edge76" class="edge">
<title>&#45;1&#45;&gt;2</title>
<path fill="none" stroke="red" stroke-width="0.32" d="M76.37,-71.22C79.19,-70.22 82.17,-69.27 85,-68.53 189.42,-41.25 317.42,-25.69 371.68,-19.9"/>
<polygon fill="red" stroke="red" stroke-width="0.32" points="372.24,-23.36 381.82,-18.84 371.51,-16.4 372.24,-23.36"/>
</g>
<!-- &#45;2 -->
<g id="node2" class="node">
<title>&#45;2</title>
<polygon fill="lightgray" stroke="black" points="658,-86.53 632,-86.53 632,-68.53 658,-68.53 658,-86.53"/>
<text text-anchor="middle" x="645" y="-75.33" font-family="Times,serif" font-size="9.00">&#45;2</text>
</g>
<!-- 0 -->
<g id="node41" class="node">
<title>0</title>
<ellipse fill="lightblue" stroke="black" cx="1144" cy="-16.26" rx="16.03" ry="16.03"/>
<text text-anchor="middle" x="1144" y="-14.06" font-family="Times,serif" font-size="9.00">0</text>
</g>
<!-- &#45;2&#45;&gt;0 -->
<g id="edge38" class="edge">
<title>&#45;2&#45;&gt;0</title>
<path fill="none" stroke="red" stroke-width="0.33" d="M658.34,-71.09C661.16,-70.11 664.15,-69.19 667,-68.53 835.62,-29.42 1044.84,-20.02 1117.6,-17.87"/>
<polygon fill="red" stroke="red" stroke-width="0.33" points="1117.8,-21.37 1127.7,-17.59 1117.61,-14.37 1117.8,-21.37"/>
</g>
<!-- &#45;2&#45;&gt;2 -->
<g id="edge62" class="edge">
<title>&#45;2&#45;&gt;2</title>
<path fill="none" stroke="red" stroke-width="0.19" d="M631.59,-71.35C628.78,-70.35 625.81,-69.35 623,-68.53 551.94,-47.6 466.15,-30.16 423.98,-22.09"/>
<polygon fill="red" stroke="red" stroke-width="0.19" points="424.47,-18.62 414,-20.2 423.17,-25.5 424.47,-18.62"/>
</g>
<!-- 3 -->
<g id="node44" class="node">
<title>3</title>
<ellipse fill="lightblue" stroke="black" cx="733" cy="-16.26" rx="16.03" ry="16.03"/>
<text text-anchor="middle" x="733" y="-14.06" font-family="Times,serif" font-size="9.00">3</text>
</g>
<!-- &#45;2&#45;&gt;3 -->
<g id="edge41" class="edge">
<title>&#45;2&#45;&gt;3</title>
<path fill="none" stroke="red" stroke-width="0.38" stroke-dasharray="1,5" d="M657.24,-68.29C671.1,-58.95 693.98,-43.54 710.98,-32.09"/>
<polygon fill="red" stroke="red" stroke-width="0.38" points="713.38,-34.7 719.72,-26.21 709.47,-28.89 713.38,-34.7"/>
</g>
<!-- &#45;3 -->
<g id="node3" class="node">
<title>&#45;3</title>
<polygon fill="lightgray" stroke="black" points="120,-86.53 94,-86.53 94,-68.53 120,-68.53 120,-86.53"/>
<text text-anchor="middle" x="107" y="-75.33" font-family="Times,serif" font-size="9.00">&#45;3</text>
</g>
<!-- &#45;3&#45;&gt;2 -->
<g id="edge19" class="edge">
<title>&#45;3&#45;&gt;2</title>
<path fill="none" stroke="red" stroke-width="0.61" d="M120.39,-71.27C123.2,-70.28 126.18,-69.3 129,-68.53 216.79,-44.37 323.78,-27.67 372.1,-20.78"/>
<polygon fill="red" stroke="red" stroke-width="0.61" points="372.61,-24.25 382.03,-19.39 371.64,-17.32 372.61,-24.25"/>
</g>
<!-- &#45;4 -->
<g id="node4" class="node">
<title>&#45;4</title>
<polygon fill="lightgray" stroke="black" points="1528,-86.53 1502,-86.53 1502,-68.53 1528,-68.53 1528,-86.53"/>
<text text-anchor="middle" x="1515" y="-75.33" font-family="Times,serif" font-size="9.00">&#45;4</text>
</g>
<!-- &#45;4&#45;&gt;0 -->
<g id="edge29" class="edge">
<title>&#45;4&#45;&gt;0</title>
<path fill="none" stroke="red" stroke-width="0.38" stroke-dasharray="1,5" d="M1501.64,-71.18C1498.82,-70.19 1495.84,-69.24 1493,-68.53 1374.74,-38.67 1229.25,-24.24 1170.48,-19.31"/>
<polygon fill="red" stroke="red" stroke-width="0.38" points="1170.48,-15.8 1160.23,-18.47 1169.91,-22.77 1170.48,-15.8"/>
</g>
<!-- 1 -->
<g id="node42" class="node">
<title>1</title>
<ellipse fill="lightblue" stroke="black" cx="1393" cy="-16.26" rx="16.03" ry="16.03"/>
<text text-anchor="middle" x="1393" y="-14.06" font-family="Times,serif" font-size="9.00">1</text>
</g>
<!-- &#45;4&#45;&gt;1 -->
<g id="edge10" class="edge">
<title>&#45;4&#45;&gt;1</title>
<path fill="none" stroke="red" stroke-width="0.87" d="M1501.94,-70.18C1481.65,-60.33 1442.22,-41.17 1416.78,-28.82"/>
<polygon fill="red" stroke="red" stroke-width="0.87" points="1417.99,-25.51 1407.47,-24.29 1414.93,-31.81 1417.99,-25.51"/>
</g>
<!-- &#45;4&#45;&gt;3 -->
<g id="edge20" class="edge">
<title>&#45;4&#45;&gt;3</title>
<path fill="none" stroke="red" stroke-width="0.46" d="M1501.68,-71.01C1498.86,-70.03 1495.86,-69.13 1493,-68.53 1348.38,-38 876.84,-21.7 759.58,-18.05"/>
<polygon fill="red" stroke="red" stroke-width="0.46" points="759.47,-14.55 749.37,-17.74 759.25,-21.55 759.47,-14.55"/>
</g>
<!-- &#45;5 -->
<g id="node5" class="node">
<title>&#45;5</title>
<polygon fill="lightgray" stroke="black" points="1134,-86.53 1108,-86.53 1108,-68.53 1134,-68.53 1134,-86.53"/>
<text text-anchor="middle" x="1121" y="-75.33" font-family="Times,serif" font-size="9.00">&#45;5</text>
</g>
<!-- &#45;5&#45;&gt;0 -->
<g id="edge36" class="edge">
<title>&#45;5&#45;&gt;0</title>
<path fill="none" stroke="red" stroke-width="0.26" d="M1124.2,-68.29C1126.91,-61.3 1130.94,-50.91 1134.66,-41.33"/>
<polygon fill="red" stroke="red" stroke-width="0.26" points="1138,-42.41 1138.35,-31.82 1131.47,-39.87 1138,-42.41"/>
</g>
<!-- &#45;5&#45;&gt;1 -->
<g id="edge13" class="edge">
<title>&#45;5&#45;&gt;1</title>
<path fill="none" stroke="green" stroke-width="0.28" d="M1134.39,-71.3C1137.21,-70.3 1140.18,-69.32 1143,-68.53 1223.52,-45.76 1321.3,-28.69 1367.05,-21.3"/>
<polygon fill="green" stroke="green" stroke-width="0.28" points="1367.69,-24.74 1377.01,-19.71 1366.58,-17.82 1367.69,-24.74"/>
</g>
<!-- &#45;5&#45;&gt;2 -->
<g id="edge25" class="edge">
<title>&#45;5&#45;&gt;2</title>
<path fill="none" stroke="red" stroke-width="0.3" d="M1107.68,-71.02C1104.85,-70.04 1101.86,-69.14 1099,-68.53 1032.1,-54.21 544.51,-25.64 424.59,-18.77"/>
<polygon fill="red" stroke="red" stroke-width="0.3" points="424.64,-15.27 414.46,-18.19 424.24,-22.26 424.64,-15.27"/>
</g>
<!-- &#45;6 -->
<g id="node6" class="node">
<title>&#45;6</title>
<polygon fill="lightgray" stroke="black" points="746,-86.53 720,-86.53 720,-68.53 746,-68.53 746,-86.53"/>
<text text-anchor="middle" x="733" y="-75.33" font-family="Times,serif" font-size="9.00">&#45;6</text>
</g>
<!-- &#45;6&#45;&gt;3 -->
<g id="edge4" class="edge">
<title>&#45;6&#45;&gt;3</title>
<path fill="none" stroke="green" stroke-width="0.51" d="M733,-68.29C733,-61.7 733,-52.1 733,-43"/>
<polygon fill="green" stroke="green" stroke-width="0.51" points="736.5,-42.76 733,-32.76 729.5,-42.76 736.5,-42.76"/>
</g>
<!-- &#45;7 -->
<g id="node7" class="node">
<title>&#45;7</title>
<polygon fill="lightgray" stroke="black" points="790,-86.53 764,-86.53 764,-68.53 790,-68.53 790,-86.53"/>
<text text-anchor="middle" x="777" y="-75.33" font-family="Times,serif" font-size="9.00">&#45;7</text>
</g>
<!-- &#45;7&#45;&gt;3 -->
<g id="edge24" class="edge">
<title>&#45;7&#45;&gt;3</title>
<path fill="none" stroke="green" stroke-width="0.22" stroke-dasharray="1,5" d="M770.88,-68.29C765.13,-60.53 756.27,-48.6 748.56,-38.22"/>
<polygon fill="green" stroke="green" stroke-width="0.22" points="751.22,-35.94 742.45,-30 745.6,-40.11 751.22,-35.94"/>
</g>
<!-- &#45;8 -->
<g id="node8" class="node">
<title>&#45;8</title>
<polygon fill="lightgray" stroke="black" points="214,-86.53 188,-86.53 188,-68.53 214,-68.53 214,-86.53"/>
<text text-anchor="middle" x="201" y="-75.33" font-family="Times,serif" font-size="9.00">&#45;8</text>
</g>
<!-- &#45;8&#45;&gt;2 -->
<g id="edge75" class="edge">
<title>&#45;8&#45;&gt;2</title>
<path fill="none" stroke="green" stroke-width="0.15" d="M214.45,-71.48C217.26,-70.47 220.22,-69.44 223,-68.53 275.66,-51.26 338.13,-33.64 372.37,-24.22"/>
<polygon fill="green" stroke="green" stroke-width="0.15" points="373.73,-27.48 382.45,-21.46 371.88,-20.72 373.73,-27.48"/>
</g>
<!-- &#45;8&#45;&gt;3 -->
<g id="edge73" class="edge">
<title>&#45;8&#45;&gt;3</title>
<path fill="none" stroke="red" stroke-width="0.25" d="M214.34,-71.08C217.16,-70.1 220.15,-69.18 223,-68.53 404.5,-27.09 629.96,-19.14 706.31,-17.62"/>
<polygon fill="red" stroke="red" stroke-width="0.25" points="706.53,-21.12 716.47,-17.44 706.41,-14.12 706.53,-21.12"/>
</g>
<!-- &#45;9 -->
<g id="node9" class="node">
<title>&#45;9</title>
<polygon fill="lightgray" stroke="black" points="702,-86.53 676,-86.53 676,-68.53 702,-68.53 702,-86.53"/>
<text text-anchor="middle" x="689" y="-75.33" font-family="Times,serif" font-size="9.00">&#45;9</text>
</g>
<!-- &#45;9&#45;&gt;1 -->
<g id="edge65" class="edge">
<title>&#45;9&#45;&gt;1</title>
<path fill="none" stroke="green" stroke-width="0.42" d="M702.32,-71.02C705.15,-70.04 708.14,-69.14 711,-68.53 743.61,-61.51 1244.55,-27.31 1366.43,-19.06"/>
<polygon fill="green" stroke="green" stroke-width="0.42" points="1366.96,-22.53 1376.71,-18.36 1366.49,-15.54 1366.96,-22.53"/>
</g>
<!-- &#45;9&#45;&gt;2 -->
<g id="edge68" class="edge">
<title>&#45;9&#45;&gt;2</title>
<path fill="none" stroke="red" stroke-width="0.49" stroke-dasharray="1,5" d="M675.61,-71.27C672.8,-70.28 669.82,-69.3 667,-68.53 579.21,-44.37 472.22,-27.67 423.9,-20.78"/>
<polygon fill="red" stroke="red" stroke-width="0.49" points="424.36,-17.32 413.97,-19.39 423.39,-24.25 424.36,-17.32"/>
</g>
<!-- &#45;9&#45;&gt;3 -->
<g id="edge53" class="edge">
<title>&#45;9&#45;&gt;3</title>
<path fill="none" stroke="red" stroke-width="0.38" d="M695.12,-68.29C700.87,-60.53 709.73,-48.6 717.44,-38.22"/>
<polygon fill="red" stroke="red" stroke-width="0.38" points="720.4,-40.11 723.55,-30 714.78,-35.94 720.4,-40.11"/>
</g>
<!-- &#45;10 -->
<g id="node10" class="node">
<title>&#45;10</title>
<polygon fill="lightgray" stroke="black" points="1678,-86.53 1646,-86.53 1646,-68.53 1678,-68.53 1678,-86.53"/>
<text text-anchor="middle" x="1662" y="-75.33" font-family="Times,serif" font-size="9.00">&#45;10</text>
</g>
<!-- &#45;10&#45;&gt;0 -->
<g id="edge67" class="edge">
<title>&#45;10&#45;&gt;0</title>
<path fill="none" stroke="green" stroke-width="0.58" stroke-dasharray="1,5" d="M1645.99,-70.87C1643.03,-69.97 1639.94,-69.14 1637,-68.53 1546.25,-49.5 1258.91,-26.18 1170.29,-19.28"/>
<polygon fill="green" stroke="green" stroke-width="0.58" points="1170.5,-15.78 1160.26,-18.5 1169.96,-22.76 1170.5,-15.78"/>
</g>
<!-- &#45;10&#45;&gt;1 -->
<g id="edge3" class="edge">
<title>&#45;10&#45;&gt;1</title>
<path fill="none" stroke="green" stroke-width="0.74" d="M1645.93,-71.12C1642.98,-70.2 1639.91,-69.3 1637,-68.53 1558.32,-47.73 1463.61,-29.83 1418.85,-21.79"/>
<polygon fill="green" stroke="green" stroke-width="0.74" points="1419.29,-18.32 1408.83,-20.01 1418.06,-25.21 1419.29,-18.32"/>
</g>
<!-- &#45;11 -->
<g id="node11" class="node">
<title>&#45;11</title>
<polygon fill="lightgray" stroke="black" points="1384,-86.53 1352,-86.53 1352,-68.53 1384,-68.53 1384,-86.53"/>
<text text-anchor="middle" x="1368" y="-75.33" font-family="Times,serif" font-size="9.00">&#45;11</text>
</g>
<!-- &#45;11&#45;&gt;0 -->
<g id="edge43" class="edge">
<title>&#45;11&#45;&gt;0</title>
<path fill="none" stroke="red" stroke-width="0.26" d="M1351.9,-71.23C1348.95,-70.3 1345.89,-69.36 1343,-68.53 1281.12,-50.67 1207.55,-32.51 1169.55,-23.35"/>
<polygon fill="red" stroke="red" stroke-width="0.26" points="1170.36,-19.94 1159.82,-21.01 1168.73,-26.75 1170.36,-19.94"/>
</g>
<!-- &#45;12 -->
<g id="node12" class="node">
<title>&#45;12</title>
<polygon fill="lightgray" stroke="black" points="990,-86.53 958,-86.53 958,-68.53 990,-68.53 990,-86.53"/>
<text text-anchor="middle" x="974" y="-75.33" font-family="Times,serif" font-size="9.00">&#45;12</text>
</g>
<!-- &#45;12&#45;&gt;0 -->
<g id="edge58" class="edge">
<title>&#45;12&#45;&gt;0</title>
<path fill="none" stroke="red" stroke-width="0.27" stroke-dasharray="1,5" d="M990.3,-70.84C1020.25,-60.4 1084.2,-38.11 1119.44,-25.83"/>
<polygon fill="red" stroke="red" stroke-width="0.27" points="1120.68,-29.1 1128.97,-22.5 1118.38,-22.49 1120.68,-29.1"/>
</g>
<!-- &#45;12&#45;&gt;3 -->
<g id="edge72" class="edge">
<title>&#45;12&#45;&gt;3</title>
<path fill="none" stroke="red" stroke-width="0.26" stroke-dasharray="1,5" d="M957.92,-71.18C954.96,-70.26 951.9,-69.33 949,-68.53 880.83,-49.56 799.34,-31.43 758.7,-22.69"/>
<polygon fill="red" stroke="red" stroke-width="0.26" points="759.34,-19.25 748.83,-20.58 757.87,-26.1 759.34,-19.25"/>
</g>
<!-- &#45;13 -->
<g id="node13" class="node">
<title>&#45;13</title>
<polygon fill="lightgray" stroke="black" points="1578,-86.53 1546,-86.53 1546,-68.53 1578,-68.53 1578,-86.53"/>
<text text-anchor="middle" x="1562" y="-75.33" font-family="Times,serif" font-size="9.00">&#45;13</text>
</g>
<!-- &#45;13&#45;&gt;0 -->
<g id="edge49" class="edge">
<title>&#45;13&#45;&gt;0</title>
<path fill="none" stroke="red" stroke-width="0.23" d="M1545.98,-70.93C1543.02,-70.03 1539.94,-69.18 1537,-68.53 1401.12,-38.18 1234.51,-23.78 1170.64,-19.08"/>
<polygon fill="red" stroke="red" stroke-width="0.23" points="1170.5,-15.56 1160.28,-18.33 1170,-22.54 1170.5,-15.56"/>
</g>
<!-- &#45;13&#45;&gt;1 -->
<g id="edge14" class="edge">
<title>&#45;13&#45;&gt;1</title>
<path fill="none" stroke="red" stroke-width="0.27" d="M1545.8,-70.84C1516.17,-60.46 1453.09,-38.33 1417.95,-26.01"/>
<polygon fill="red" stroke="red" stroke-width="0.27" points="1419.01,-22.68 1408.42,-22.67 1416.7,-29.28 1419.01,-22.68"/>
</g>
<!-- &#45;14 -->
<g id="node14" class="node">
<title>&#45;14</title>
<polygon fill="lightgray" stroke="black" points="170,-86.53 138,-86.53 138,-68.53 170,-68.53 170,-86.53"/>
<text text-anchor="middle" x="154" y="-75.33" font-family="Times,serif" font-size="9.00">&#45;14</text>
</g>
<!-- &#45;14&#45;&gt;2 -->
<g id="edge61" class="edge">
<title>&#45;14&#45;&gt;2</title>
<path fill="none" stroke="green" stroke-width="0.19" d="M170.08,-71.17C173.04,-70.25 176.1,-69.33 179,-68.53 248.27,-49.37 331.14,-31.26 372.24,-22.6"/>
<polygon fill="green" stroke="green" stroke-width="0.19" points="373.15,-25.98 382.22,-20.5 371.72,-19.13 373.15,-25.98"/>
</g>
<!-- &#45;15 -->
<g id="node15" class="node">
<title>&#45;15</title>
<polygon fill="lightgray" stroke="black" points="1434,-86.53 1402,-86.53 1402,-68.53 1434,-68.53 1434,-86.53"/>
<text text-anchor="middle" x="1418" y="-75.33" font-family="Times,serif" font-size="9.00">&#45;15</text>
</g>
<!-- &#45;15&#45;&gt;0 -->
<g id="edge59" class="edge">
<title>&#45;15&#45;&gt;0</title>
<path fill="none" stroke="green" stroke-width="0.14" stroke-dasharray="1,5" d="M1401.94,-71.11C1398.98,-70.19 1395.91,-69.29 1393,-68.53 1312.37,-47.39 1215.19,-29.54 1169.76,-21.63"/>
<polygon fill="green" stroke="green" stroke-width="0.14" points="1170.32,-18.18 1159.87,-19.92 1169.13,-25.07 1170.32,-18.18"/>
</g>
<!-- &#45;16 -->
<g id="node16" class="node">
<title>&#45;16</title>
<polygon fill="lightgray" stroke="black" points="564,-86.53 532,-86.53 532,-68.53 564,-68.53 564,-86.53"/>
<text text-anchor="middle" x="548" y="-75.33" font-family="Times,serif" font-size="9.00">&#45;16</text>
</g>
<!-- &#45;16&#45;&gt;0 -->
<g id="edge33" class="edge">
<title>&#45;16&#45;&gt;0</title>
<path fill="none" stroke="red" stroke-width="0.1" d="M564,-70.83C566.96,-69.94 570.05,-69.12 573,-68.53 779.59,-26.73 1035.11,-19 1117.25,-17.58"/>
<polygon fill="red" stroke="red" stroke-width="0.1" points="1117.51,-21.08 1127.46,-17.42 1117.4,-14.08 1117.51,-21.08"/>
</g>
<!-- &#45;16&#45;&gt;2 -->
<g id="edge23" class="edge">
<title>&#45;16&#45;&gt;2</title>
<path fill="none" stroke="green" stroke-width="0.35" stroke-dasharray="1,5" d="M531.95,-70.18C505.74,-59.83 453.58,-39.22 422.65,-27"/>
<polygon fill="green" stroke="green" stroke-width="0.35" points="423.63,-23.63 413.04,-23.21 421.06,-30.14 423.63,-23.63"/>
</g>
<!-- &#45;16&#45;&gt;3 -->
<g id="edge12" class="edge">
<title>&#45;16&#45;&gt;3</title>
<path fill="none" stroke="red" stroke-width="0.26" d="M564.09,-71.37C596.32,-61.05 668.97,-37.78 707.65,-25.38"/>
<polygon fill="red" stroke="red" stroke-width="0.26" points="709.14,-28.58 717.6,-22.2 707.01,-21.92 709.14,-28.58"/>
</g>
<!-- &#45;17 -->
<g id="node17" class="node">
<title>&#45;17</title>
<polygon fill="lightgray" stroke="black" points="1040,-86.53 1008,-86.53 1008,-68.53 1040,-68.53 1040,-86.53"/>
<text text-anchor="middle" x="1024" y="-75.33" font-family="Times,serif" font-size="9.00">&#45;17</text>
</g>
<!-- &#45;17&#45;&gt;0 -->
<g id="edge16" class="edge">
<title>&#45;17&#45;&gt;0</title>
<path fill="none" stroke="green" stroke-width="0.17" stroke-dasharray="1,5" d="M1040.18,-68.53C1060.88,-58.32 1096.85,-40.55 1120.55,-28.85"/>
<polygon fill="green" stroke="green" stroke-width="0.17" points="1122.15,-31.96 1129.57,-24.39 1119.05,-25.68 1122.15,-31.96"/>
</g>
<!-- &#45;17&#45;&gt;3 -->
<g id="edge51" class="edge">
<title>&#45;17&#45;&gt;3</title>
<path fill="none" stroke="green" stroke-width="0.13" d="M1007.94,-71.08C1004.99,-70.16 1001.91,-69.27 999,-68.53 912.13,-46.34 807.12,-28.77 759.17,-21.24"/>
<polygon fill="green" stroke="green" stroke-width="0.13" points="759.46,-17.75 749.04,-19.67 758.38,-24.66 759.46,-17.75"/>
</g>
<!-- &#45;18 -->
<g id="node18" class="node">
<title>&#45;18</title>
<polygon fill="lightgray" stroke="black" points="1484,-86.53 1452,-86.53 1452,-68.53 1484,-68.53 1484,-86.53"/>
<text text-anchor="middle" x="1468" y="-75.33" font-family="Times,serif" font-size="9.00">&#45;18</text>
</g>
<!-- &#45;18&#45;&gt;1 -->
<g id="edge70" class="edge">
<title>&#45;18&#45;&gt;1</title>
<path fill="none" stroke="red" stroke-width="0.52" d="M1457.57,-68.29C1446.24,-59.33 1427.84,-44.8 1413.58,-33.52"/>
<polygon fill="red" stroke="red" stroke-width="0.52" points="1415.35,-30.46 1405.33,-27.01 1411.01,-35.95 1415.35,-30.46"/>
</g>
<!-- &#45;18&#45;&gt;3 -->
<g id="edge55" class="edge">
<title>&#45;18&#45;&gt;3</title>
<path fill="none" stroke="red" stroke-width="0.46" stroke-dasharray="1,5" d="M1451.74,-70.71C1448.86,-69.86 1445.86,-69.08 1443,-68.53 1308.1,-42.46 871.94,-23 759.59,-18.34"/>
<polygon fill="red" stroke="red" stroke-width="0.46" points="759.6,-14.83 749.47,-17.92 759.32,-21.83 759.6,-14.83"/>
</g>
<!-- &#45;19 -->
<g id="node19" class="node">
<title>&#45;19</title>
<polygon fill="lightgray" stroke="black" points="1778,-86.53 1746,-86.53 1746,-68.53 1778,-68.53 1778,-86.53"/>
<text text-anchor="middle" x="1762" y="-75.33" font-family="Times,serif" font-size="9.00">&#45;19</text>
</g>
<!-- &#45;19&#45;&gt;1 -->
<g id="edge50" class="edge">
<title>&#45;19&#45;&gt;1</title>
<path fill="none" stroke="green" stroke-width="0.15" d="M1745.97,-70.98C1743.01,-70.07 1739.93,-69.21 1737,-68.53 1620.15,-41.31 1477.46,-25.46 1419.43,-19.73"/>
<polygon fill="green" stroke="green" stroke-width="0.15" points="1419.59,-16.23 1409.29,-18.75 1418.91,-23.19 1419.59,-16.23"/>
</g>
<!-- &#45;20 -->
<g id="node20" class="node">
<title>&#45;20</title>
<polygon fill="lightgray" stroke="black" points="264,-86.53 232,-86.53 232,-68.53 264,-68.53 264,-86.53"/>
<text text-anchor="middle" x="248" y="-75.33" font-family="Times,serif" font-size="9.00">&#45;20</text>
</g>
<!-- &#45;20&#45;&gt;2 -->
<g id="edge40" class="edge">
<title>&#45;20&#45;&gt;2</title>
<path fill="none" stroke="red" stroke-width="0.96" stroke-dasharray="1,5" d="M264.05,-70.18C290.26,-59.83 342.42,-39.22 373.35,-27"/>
<polygon fill="red" stroke="red" stroke-width="0.96" points="374.94,-30.14 382.96,-23.21 372.37,-23.63 374.94,-30.14"/>
</g>
<!-- &#45;20&#45;&gt;3 -->
<g id="edge28" class="edge">
<title>&#45;20&#45;&gt;3</title>
<path fill="none" stroke="green" stroke-width="0.35" d="M264.01,-70.89C266.97,-69.99 270.06,-69.15 273,-68.53 435.24,-33.89 634.98,-21.78 706.21,-18.39"/>
<polygon fill="green" stroke="green" stroke-width="0.35" points="706.69,-21.87 716.51,-17.92 706.37,-14.88 706.69,-21.87"/>
</g>
<!-- &#45;21 -->
<g id="node21" class="node">
<title>&#45;21</title>
<polygon fill="lightgray" stroke="black" points="464,-86.53 432,-86.53 432,-68.53 464,-68.53 464,-86.53"/>
<text text-anchor="middle" x="448" y="-75.33" font-family="Times,serif" font-size="9.00">&#45;21</text>
</g>
<!-- &#45;21&#45;&gt;3 -->
<g id="edge34" class="edge">
<title>&#45;21&#45;&gt;3</title>
<path fill="none" stroke="red" stroke-width="0.29" d="M464.06,-71.09C467.02,-70.17 470.09,-69.28 473,-68.53 557.73,-46.69 660.07,-29.01 707.08,-21.36"/>
<polygon fill="red" stroke="red" stroke-width="0.29" points="707.71,-24.8 717.03,-19.75 706.6,-17.89 707.71,-24.8"/>
</g>
<!-- &#45;22 -->
<g id="node22" class="node">
<title>&#45;22</title>
<polygon fill="lightgray" stroke="black" points="1828,-86.53 1796,-86.53 1796,-68.53 1828,-68.53 1828,-86.53"/>
<text text-anchor="middle" x="1812" y="-75.33" font-family="Times,serif" font-size="9.00">&#45;22</text>
</g>
<!-- &#45;23 -->
<g id="node23" class="node">
<title>&#45;23</title>
<polygon fill="lightgray" stroke="black" points="314,-86.53 282,-86.53 282,-68.53 314,-68.53 314,-86.53"/>
<text text-anchor="middle" x="298" y="-75.33" font-family="Times,serif" font-size="9.00">&#45;23</text>
</g>
<!-- &#45;23&#45;&gt;2 -->
<g id="edge48" class="edge">
<title>&#45;23&#45;&gt;2</title>
<path fill="none" stroke="red" stroke-width="0.18" stroke-dasharray="1,5" d="M311.9,-68.29C328.32,-58.56 355.86,-42.24 375.37,-30.68"/>
<polygon fill="red" stroke="red" stroke-width="0.18" points="377.4,-33.54 384.21,-25.43 373.83,-27.52 377.4,-33.54"/>
</g>
<!-- &#45;23&#45;&gt;3 -->
<g id="edge54" class="edge">
<title>&#45;23&#45;&gt;3</title>
<path fill="none" stroke="red" stroke-width="0.52" d="M314.02,-70.92C316.98,-70.02 320.06,-69.17 323,-68.53 465.71,-37.06 640.92,-23.21 706.54,-18.87"/>
<polygon fill="red" stroke="red" stroke-width="0.52" points="707.04,-22.34 716.8,-18.21 706.59,-15.36 707.04,-22.34"/>
</g>
<!-- &#45;24 -->
<g id="node24" class="node">
<title>&#45;24</title>
<polygon fill="lightgray" stroke="black" points="1090,-86.53 1058,-86.53 1058,-68.53 1090,-68.53 1090,-86.53"/>
<text text-anchor="middle" x="1074" y="-75.33" font-family="Times,serif" font-size="9.00">&#45;24</text>
</g>
<!-- &#45;24&#45;&gt;0 -->
<g id="edge26" class="edge">
<title>&#45;24&#45;&gt;0</title>
<path fill="none" stroke="red" stroke-width="0.47" stroke-dasharray="1,5" d="M1083.73,-68.29C1094.19,-59.44 1111.08,-45.14 1124.32,-33.92"/>
<polygon fill="red" stroke="red" stroke-width="0.47" points="1126.64,-36.55 1132.01,-27.42 1122.11,-31.21 1126.64,-36.55"/>
</g>
<!-- &#45;24&#45;&gt;3 -->
<g id="edge1" class="edge">
<title>&#45;24&#45;&gt;3</title>
<path fill="none" stroke="red" stroke-width="0.39" d="M1057.96,-71.01C1055,-70.1 1051.92,-69.23 1049,-68.53 943.07,-43.13 814.11,-26.58 759.48,-20.21"/>
<polygon fill="red" stroke="red" stroke-width="0.39" points="759.62,-16.7 749.28,-19.04 758.82,-23.65 759.62,-16.7"/>
</g>
<!-- &#45;25 -->
<g id="node25" class="node">
<title>&#45;25</title>
<polygon fill="lightgray" stroke="black" points="1334,-86.53 1302,-86.53 1302,-68.53 1334,-68.53 1334,-86.53"/>
<text text-anchor="middle" x="1318" y="-75.33" font-family="Times,serif" font-size="9.00">&#45;25</text>
</g>
<!-- &#45;25&#45;&gt;0 -->
<g id="edge42" class="edge">
<title>&#45;25&#45;&gt;0</title>
<path fill="none" stroke="green" stroke-width="0.47" d="M1301.94,-71.06C1271.62,-60.73 1205.72,-38.29 1169.36,-25.9"/>
<polygon fill="green" stroke="green" stroke-width="0.47" points="1170.11,-22.46 1159.52,-22.55 1167.86,-29.09 1170.11,-22.46"/>
</g>
<!-- &#45;25&#45;&gt;1 -->
<g id="edge18" class="edge">
<title>&#45;25&#45;&gt;1</title>
<path fill="none" stroke="green" stroke-width="0.13" d="M1328.43,-68.29C1339.76,-59.33 1358.16,-44.8 1372.42,-33.52"/>
<polygon fill="green" stroke="green" stroke-width="0.13" points="1374.99,-35.95 1380.67,-27.01 1370.65,-30.46 1374.99,-35.95"/>
</g>
<!-- &#45;25&#45;&gt;3 -->
<g id="edge30" class="edge">
<title>&#45;25&#45;&gt;3</title>
<path fill="none" stroke="red" stroke-width="0.13" stroke-dasharray="1,5" d="M1302,-70.84C1299.04,-69.95 1295.95,-69.13 1293,-68.53 1090.6,-27.39 840.3,-19.24 759.48,-17.64"/>
<polygon fill="red" stroke="red" stroke-width="0.13" points="759.29,-14.14 749.22,-17.46 759.16,-21.14 759.29,-14.14"/>
</g>
<!-- &#45;26 -->
<g id="node26" class="node">
<title>&#45;26</title>
<polygon fill="lightgray" stroke="black" points="1878,-86.53 1846,-86.53 1846,-68.53 1878,-68.53 1878,-86.53"/>
<text text-anchor="middle" x="1862" y="-75.33" font-family="Times,serif" font-size="9.00">&#45;26</text>
</g>
<!-- &#45;27 -->
<g id="node27" class="node">
<title>&#45;27</title>
<polygon fill="lightgray" stroke="black" points="890,-86.53 858,-86.53 858,-68.53 890,-68.53 890,-86.53"/>
<text text-anchor="middle" x="874" y="-75.33" font-family="Times,serif" font-size="9.00">&#45;27</text>
</g>
<!-- &#45;27&#45;&gt;0 -->
<g id="edge77" class="edge">
<title>&#45;27&#45;&gt;0</title>
<path fill="none" stroke="red" stroke-width="0.5" d="M890.07,-71.12C893.02,-70.2 896.09,-69.29 899,-68.53 977.99,-47.68 1073.09,-29.81 1118.04,-21.78"/>
<polygon fill="red" stroke="red" stroke-width="0.5" points="1118.87,-25.19 1128.1,-20 1117.65,-18.3 1118.87,-25.19"/>
</g>
<!-- &#45;27&#45;&gt;1 -->
<g id="edge9" class="edge">
<title>&#45;27&#45;&gt;1</title>
<path fill="none" stroke="green" stroke-width="0.26" stroke-dasharray="1,5" d="M890.01,-70.87C892.97,-69.97 896.06,-69.14 899,-68.53 989.94,-49.47 1277.86,-26.17 1366.66,-19.27"/>
<polygon fill="green" stroke="green" stroke-width="0.26" points="1367,-22.76 1376.71,-18.5 1366.47,-15.78 1367,-22.76"/>
</g>
<!-- &#45;27&#45;&gt;2 -->
<g id="edge57" class="edge">
<title>&#45;27&#45;&gt;2</title>
<path fill="none" stroke="green" stroke-width="0.3" stroke-dasharray="1,5" d="M857.99,-70.89C855.03,-70 851.94,-69.16 849,-68.53 690.3,-34.46 495.01,-22.03 424.75,-18.47"/>
<polygon fill="green" stroke="green" stroke-width="0.3" points="424.73,-14.96 414.57,-17.97 424.39,-21.96 424.73,-14.96"/>
</g>
<!-- &#45;27&#45;&gt;3 -->
<g id="edge31" class="edge">
<title>&#45;27&#45;&gt;3</title>
<path fill="none" stroke="green" stroke-width="0.72" d="M857.83,-69.73C833.11,-59.34 785.78,-39.45 757.04,-27.37"/>
<polygon fill="green" stroke="green" stroke-width="0.72" points="758.29,-24.09 747.71,-23.45 755.57,-30.55 758.29,-24.09"/>
</g>
<!-- &#45;28 -->
<g id="node28" class="node">
<title>&#45;28</title>
<polygon fill="lightgray" stroke="black" points="364,-86.53 332,-86.53 332,-68.53 364,-68.53 364,-86.53"/>
<text text-anchor="middle" x="348" y="-75.33" font-family="Times,serif" font-size="9.00">&#45;28</text>
</g>
<!-- &#45;28&#45;&gt;2 -->
<g id="edge44" class="edge">
<title>&#45;28&#45;&gt;2</title>
<path fill="none" stroke="red" stroke-width="0.29" d="M354.95,-68.29C361.79,-60.18 372.5,-47.49 381.52,-36.79"/>
<polygon fill="red" stroke="red" stroke-width="0.29" points="384.23,-39.01 388,-29.11 378.88,-34.5 384.23,-39.01"/>
</g>
<!-- &#45;28&#45;&gt;3 -->
<g id="edge46" class="edge">
<title>&#45;28&#45;&gt;3</title>
<path fill="none" stroke="green" stroke-width="0.38" d="M364.03,-70.96C366.99,-70.06 370.07,-69.2 373,-68.53 496.09,-40.28 646.64,-24.88 706.57,-19.49"/>
<polygon fill="green" stroke="green" stroke-width="0.38" points="707.02,-22.97 716.68,-18.6 706.41,-15.99 707.02,-22.97"/>
</g>
<!-- &#45;29 -->
<g id="node29" class="node">
<title>&#45;29</title>
<polygon fill="lightgray" stroke="black" points="32,-86.53 0,-86.53 0,-68.53 32,-68.53 32,-86.53"/>
<text text-anchor="middle" x="16" y="-75.33" font-family="Times,serif" font-size="9.00">&#45;29</text>
</g>
<!-- &#45;29&#45;&gt;2 -->
<g id="edge66" class="edge">
<title>&#45;29&#45;&gt;2</title>
<path fill="none" stroke="green" stroke-width="0.16" stroke-dasharray="1,5" d="M32.03,-70.96C34.99,-70.06 38.07,-69.2 41,-68.53 163.07,-40.44 312.36,-24.95 371.79,-19.51"/>
<polygon fill="green" stroke="green" stroke-width="0.16" points="372.16,-22.99 381.81,-18.62 371.54,-16.02 372.16,-22.99"/>
</g>
<!-- &#45;30 -->
<g id="node30" class="node">
<title>&#45;30</title>
<polygon fill="lightgray" stroke="black" points="1728,-86.53 1696,-86.53 1696,-68.53 1728,-68.53 1728,-86.53"/>
<text text-anchor="middle" x="1712" y="-75.33" font-family="Times,serif" font-size="9.00">&#45;30</text>
</g>
<!-- &#45;30&#45;&gt;1 -->
<g id="edge7" class="edge">
<title>&#45;30&#45;&gt;1</title>
<path fill="none" stroke="red" stroke-width="0.14" d="M1695.95,-71.04C1693,-70.12 1689.92,-69.25 1687,-68.53 1589.3,-44.5 1470.65,-27.43 1419.06,-20.58"/>
<polygon fill="red" stroke="red" stroke-width="0.14" points="1419.46,-17.11 1409.09,-19.28 1418.56,-24.05 1419.46,-17.11"/>
</g>
<!-- &#45;31 -->
<g id="node31" class="node">
<title>&#45;31</title>
<polygon fill="lightgray" stroke="black" points="414,-86.53 382,-86.53 382,-68.53 414,-68.53 414,-86.53"/>
<text text-anchor="middle" x="398" y="-75.33" font-family="Times,serif" font-size="9.00">&#45;31</text>
</g>
<!-- &#45;31&#45;&gt;2 -->
<g id="edge5" class="edge">
<title>&#45;31&#45;&gt;2</title>
<path fill="none" stroke="red" stroke-width="0.13" d="M398,-68.29C398,-61.7 398,-52.1 398,-43"/>
<polygon fill="red" stroke="red" stroke-width="0.13" points="401.5,-42.76 398,-32.76 394.5,-42.76 401.5,-42.76"/>
</g>
<!-- &#45;31&#45;&gt;3 -->
<g id="edge35" class="edge">
<title>&#45;31&#45;&gt;3</title>
<path fill="none" stroke="green" stroke-width="0.67" d="M414.04,-71.01C417,-70.11 420.08,-69.23 423,-68.53 526.69,-43.51 652.83,-26.8 706.64,-20.3"/>
<polygon fill="green" stroke="green" stroke-width="0.67" points="707.18,-23.76 716.7,-19.11 706.35,-16.81 707.18,-23.76"/>
</g>
<!-- &#45;32 -->
<g id="node32" class="node">
<title>&#45;32</title>
<polygon fill="lightgray" stroke="black" points="1928,-86.53 1896,-86.53 1896,-68.53 1928,-68.53 1928,-86.53"/>
<text text-anchor="middle" x="1912" y="-75.33" font-family="Times,serif" font-size="9.00">&#45;32</text>
</g>
<!-- &#45;33 -->
<g id="node33" class="node">
<title>&#45;33</title>
<polygon fill="lightgray" stroke="black" points="840,-86.53 808,-86.53 808,-68.53 840,-68.53 840,-86.53"/>
<text text-anchor="middle" x="824" y="-75.33" font-family="Times,serif" font-size="9.00">&#45;33</text>
</g>
<!-- &#45;33&#45;&gt;0 -->
<g id="edge39" class="edge">
<title>&#45;33&#45;&gt;0</title>
<path fill="none" stroke="red" stroke-width="0.12" d="M840.04,-71.03C843,-70.12 846.08,-69.24 849,-68.53 947.03,-44.45 1066.08,-27.4 1117.85,-20.57"/>
<polygon fill="red" stroke="red" stroke-width="0.12" points="1118.39,-24.04 1127.85,-19.27 1117.48,-17.09 1118.39,-24.04"/>
</g>
<!-- &#45;33&#45;&gt;3 -->
<g id="edge63" class="edge">
<title>&#45;33&#45;&gt;3</title>
<path fill="none" stroke="green" stroke-width="0.16" stroke-dasharray="1,5" d="M811.35,-68.29C796.79,-58.81 772.63,-43.07 754.98,-31.58"/>
<polygon fill="green" stroke="green" stroke-width="0.16" points="756.72,-28.54 746.43,-26.01 752.9,-34.4 756.72,-28.54"/>
</g>
<!-- &#45;34 -->
<g id="node34" class="node">
<title>&#45;34</title>
<polygon fill="lightgray" stroke="black" points="940,-86.53 908,-86.53 908,-68.53 940,-68.53 940,-86.53"/>
<text text-anchor="middle" x="924" y="-75.33" font-family="Times,serif" font-size="9.00">&#45;34</text>
</g>
<!-- &#45;34&#45;&gt;0 -->
<g id="edge37" class="edge">
<title>&#45;34&#45;&gt;0</title>
<path fill="none" stroke="green" stroke-width="0.48" d="M940.1,-71.24C943.05,-70.31 946.11,-69.37 949,-68.53 1009.26,-50.98 1080.77,-32.86 1118.2,-23.59"/>
<polygon fill="green" stroke="green" stroke-width="0.48" points="1119.38,-26.9 1128.25,-21.1 1117.7,-20.1 1119.38,-26.9"/>
</g>
<!-- &#45;34&#45;&gt;1 -->
<g id="edge52" class="edge">
<title>&#45;34&#45;&gt;1</title>
<path fill="none" stroke="red" stroke-width="0.16" stroke-dasharray="1,5" d="M940.01,-70.9C942.97,-70 946.06,-69.16 949,-68.53 1105.24,-34.84 1297.5,-22.18 1366.67,-18.51"/>
<polygon fill="red" stroke="red" stroke-width="0.16" points="1366.88,-22.01 1376.69,-18 1366.52,-15.02 1366.88,-22.01"/>
</g>
<!-- &#45;34&#45;&gt;2 -->
<g id="edge69" class="edge">
<title>&#45;34&#45;&gt;2</title>
<path fill="none" stroke="green" stroke-width="0.48" stroke-dasharray="1,5" d="M907.99,-70.86C905.03,-69.97 901.94,-69.14 899,-68.53 720.35,-31.23 499.95,-20.67 424.66,-18.05"/>
<polygon fill="green" stroke="green" stroke-width="0.48" points="424.74,-14.55 414.63,-17.71 424.5,-21.54 424.74,-14.55"/>
</g>
<!-- &#45;34&#45;&gt;3 -->
<g id="edge2" class="edge">
<title>&#45;34&#45;&gt;3</title>
<path fill="none" stroke="red" stroke-width="0.21" d="M907.87,-71.34C904.92,-70.4 901.87,-69.43 899,-68.53 849.15,-52.85 790.74,-34.92 758.19,-24.96"/>
<polygon fill="red" stroke="red" stroke-width="0.21" points="759.17,-21.59 748.58,-22.02 757.12,-28.29 759.17,-21.59"/>
</g>
<!-- &#45;35 -->
<g id="node35" class="node">
<title>&#45;35</title>
<polygon fill="lightgray" stroke="black" points="1628,-86.53 1596,-86.53 1596,-68.53 1628,-68.53 1628,-86.53"/>
<text text-anchor="middle" x="1612" y="-75.33" font-family="Times,serif" font-size="9.00">&#45;35</text>
</g>
<!-- &#45;35&#45;&gt;0 -->
<g id="edge11" class="edge">
<title>&#45;35&#45;&gt;0</title>
<path fill="none" stroke="red" stroke-width="0.19" d="M1595.99,-70.9C1593.03,-70 1589.94,-69.16 1587,-68.53 1431.11,-34.9 1239.28,-22.2 1170.27,-18.52"/>
<polygon fill="red" stroke="red" stroke-width="0.19" points="1170.44,-15.02 1160.28,-18 1170.08,-22.01 1170.44,-15.02"/>
</g>
<!-- &#45;35&#45;&gt;1 -->
<g id="edge56" class="edge">
<title>&#45;35&#45;&gt;1</title>
<path fill="none" stroke="red" stroke-width="0.73" stroke-dasharray="1,5" d="M1595.9,-71.24C1592.95,-70.31 1589.89,-69.37 1587,-68.53 1527.04,-51.02 1455.9,-32.89 1418.66,-23.6"/>
<polygon fill="red" stroke="red" stroke-width="0.73" points="1419.22,-20.13 1408.67,-21.11 1417.53,-26.92 1419.22,-20.13"/>
</g>
<!-- &#45;36 -->
<g id="node36" class="node">
<title>&#45;36</title>
<polygon fill="lightgray" stroke="black" points="1234,-86.53 1202,-86.53 1202,-68.53 1234,-68.53 1234,-86.53"/>
<text text-anchor="middle" x="1218" y="-75.33" font-family="Times,serif" font-size="9.00">&#45;36</text>
</g>
<!-- &#45;36&#45;&gt;0 -->
<g id="edge32" class="edge">
<title>&#45;36&#45;&gt;0</title>
<path fill="none" stroke="red" stroke-width="0.32" d="M1207.71,-68.29C1196.59,-59.38 1178.59,-44.97 1164.55,-33.72"/>
<polygon fill="red" stroke="red" stroke-width="0.32" points="1166.42,-30.73 1156.42,-27.21 1162.04,-36.2 1166.42,-30.73"/>
</g>
<!-- &#45;36&#45;&gt;1 -->
<g id="edge15" class="edge">
<title>&#45;36&#45;&gt;1</title>
<path fill="none" stroke="red" stroke-width="0.52" stroke-dasharray="1,5" d="M1234.15,-71.06C1264.8,-60.68 1331.59,-38.06 1368.05,-25.71"/>
<polygon fill="red" stroke="red" stroke-width="0.52" points="1369.54,-28.9 1377.89,-22.38 1367.3,-22.27 1369.54,-28.9"/>
</g>
<!-- &#45;36&#45;&gt;3 -->
<g id="edge8" class="edge">
<title>&#45;36&#45;&gt;3</title>
<path fill="none" stroke="green" stroke-width="0.22" stroke-dasharray="1,5" d="M1201.99,-70.89C1199.03,-69.99 1195.94,-69.15 1193,-68.53 1030.76,-33.89 831.02,-21.78 759.79,-18.39"/>
<polygon fill="green" stroke="green" stroke-width="0.22" points="759.63,-14.88 749.49,-17.92 759.31,-21.87 759.63,-14.88"/>
</g>
<!-- &#45;37 -->
<g id="node37" class="node">
<title>&#45;37</title>
<polygon fill="lightgray" stroke="black" points="1284,-86.53 1252,-86.53 1252,-68.53 1284,-68.53 1284,-86.53"/>
<text text-anchor="middle" x="1268" y="-75.33" font-family="Times,serif" font-size="9.00">&#45;37</text>
</g>
<!-- &#45;37&#45;&gt;0 -->
<g id="edge6" class="edge">
<title>&#45;37&#45;&gt;0</title>
<path fill="none" stroke="green" stroke-width="0.29" stroke-dasharray="1,5" d="M1251.79,-68.78C1230.23,-58.48 1191.98,-40.2 1167.32,-28.41"/>
<polygon fill="green" stroke="green" stroke-width="0.29" points="1168.82,-25.25 1158.29,-24.09 1165.81,-31.56 1168.82,-25.25"/>
</g>
<!-- &#45;38 -->
<g id="node38" class="node">
<title>&#45;38</title>
<polygon fill="lightgray" stroke="black" points="1184,-86.53 1152,-86.53 1152,-68.53 1184,-68.53 1184,-86.53"/>
<text text-anchor="middle" x="1168" y="-75.33" font-family="Times,serif" font-size="9.00">&#45;38</text>
</g>
<!-- &#45;38&#45;&gt;0 -->
<g id="edge60" class="edge">
<title>&#45;38&#45;&gt;0</title>
<path fill="none" stroke="red" stroke-width="0.23" d="M1164.66,-68.29C1161.83,-61.3 1157.63,-50.91 1153.75,-41.33"/>
<polygon fill="red" stroke="red" stroke-width="0.23" points="1156.89,-39.77 1149.89,-31.82 1150.4,-42.4 1156.89,-39.77"/>
</g>
<!-- &#45;38&#45;&gt;1 -->
<g id="edge64" class="edge">
<title>&#45;38&#45;&gt;1</title>
<path fill="none" stroke="green" stroke-width="0.36" d="M1184.1,-71.22C1187.05,-70.29 1190.11,-69.36 1193,-68.53 1255.34,-50.58 1329.5,-32.39 1367.6,-23.27"/>
<polygon fill="green" stroke="green" stroke-width="0.36" points="1368.44,-26.66 1377.36,-20.94 1366.82,-19.86 1368.44,-26.66"/>
</g>
<!-- &#45;38&#45;&gt;2 -->
<g id="edge21" class="edge">
<title>&#45;38&#45;&gt;2</title>
<path fill="none" stroke="red" stroke-width="0.26" stroke-dasharray="1,5" d="M1151.74,-70.7C1148.86,-69.85 1145.86,-69.08 1143,-68.53 1071.31,-54.8 549.22,-25.55 424.64,-18.71"/>
<polygon fill="red" stroke="red" stroke-width="0.26" points="424.64,-15.21 414.47,-18.16 424.26,-22.2 424.64,-15.21"/>
</g>
<!-- &#45;39 -->
<g id="node39" class="node">
<title>&#45;39</title>
<polygon fill="lightgray" stroke="black" points="614,-86.53 582,-86.53 582,-68.53 614,-68.53 614,-86.53"/>
<text text-anchor="middle" x="598" y="-75.33" font-family="Times,serif" font-size="9.00">&#45;39</text>
</g>
<!-- &#45;39&#45;&gt;0 -->
<g id="edge17" class="edge">
<title>&#45;39&#45;&gt;0</title>
<path fill="none" stroke="green" stroke-width="0.25" stroke-dasharray="1,5" d="M614,-70.85C616.97,-69.96 620.05,-69.14 623,-68.53 809.63,-29.94 1040.07,-20.17 1117.34,-17.9"/>
<polygon fill="green" stroke="green" stroke-width="0.25" points="1117.71,-21.39 1127.61,-17.62 1117.51,-14.39 1117.71,-21.39"/>
</g>
<!-- &#45;39&#45;&gt;2 -->
<g id="edge74" class="edge">
<title>&#45;39&#45;&gt;2</title>
<path fill="none" stroke="green" stroke-width="0.14" stroke-dasharray="1,5" d="M581.88,-71.3C578.93,-70.37 575.88,-69.41 573,-68.53 520.01,-52.29 457.66,-34.29 423.53,-24.53"/>
<polygon fill="green" stroke="green" stroke-width="0.14" points="424.07,-21.04 413.49,-21.66 422.14,-27.77 424.07,-21.04"/>
</g>
<!-- &#45;39&#45;&gt;3 -->
<g id="edge27" class="edge">
<title>&#45;39&#45;&gt;3</title>
<path fill="none" stroke="red" stroke-width="0.4" d="M614.02,-69.5C637.53,-59.17 681.56,-39.84 708.97,-27.81"/>
<polygon fill="red" stroke="red" stroke-width="0.4" points="710.49,-30.97 718.24,-23.74 707.68,-24.56 710.49,-30.97"/>
</g>
<!-- &#45;40 -->
<g id="node40" class="node">
<title>&#45;40</title>
<polygon fill="lightgray" stroke="black" points="514,-86.53 482,-86.53 482,-68.53 514,-68.53 514,-86.53"/>
<text text-anchor="middle" x="498" y="-75.33" font-family="Times,serif" font-size="9.00">&#45;40</text>
</g>
<!-- &#45;40&#45;&gt;3 -->
<g id="edge71" class="edge">
<title>&#45;40&#45;&gt;3</title>
<path fill="none" stroke="green" stroke-width="0.67" stroke-dasharray="1,5" d="M514.09,-71.2C517.04,-70.27 520.1,-69.34 523,-68.53 588.85,-49.98 667.4,-31.85 707.17,-22.95"/>
<polygon fill="green" stroke="green" stroke-width="0.67" points="708.09,-26.33 717.09,-20.74 706.57,-19.5 708.09,-26.33"/>
</g>
<!-- 1&#45;&gt;1 -->
<g id="edge47" class="edge">
<title>1&#45;&gt;1</title>
<path fill="none" stroke="green" stroke-width="0.24" stroke-dasharray="1,5" d="M1406.36,-26.06C1416.71,-29.72 1427.26,-26.46 1427.26,-16.26 1427.26,-9.57 1422.72,-5.87 1416.67,-5.14"/>
<polygon fill="green" stroke="green" stroke-width="0.24" points="1415.84,-1.72 1406.36,-6.47 1416.73,-8.67 1415.84,-1.72"/>
</g>
<!-- 2&#45;&gt;2 -->
<g id="edge45" class="edge">
<title>2&#45;&gt;2</title>
<path fill="none" stroke="green" stroke-width="0.84" d="M411.36,-26.06C421.71,-29.72 432.26,-26.46 432.26,-16.26 432.26,-9.57 427.72,-5.87 421.67,-5.14"/>
<polygon fill="green" stroke="green" stroke-width="0.84" points="420.84,-1.72 411.36,-6.47 421.73,-8.67 420.84,-1.72"/>
</g>
<!-- 3&#45;&gt;3 -->
<g id="edge22" class="edge">
<title>3&#45;&gt;3</title>
<path fill="none" stroke="green" stroke-width="0.18" stroke-dasharray="1,5" d="M746.36,-26.06C756.71,-29.72 767.26,-26.46 767.26,-16.26 767.26,-9.57 762.72,-5.87 756.67,-5.14"/>
<polygon fill="green" stroke="green" stroke-width="0.18" points="755.84,-1.72 746.36,-6.47 756.73,-8.67 755.84,-1.72"/>
</g>
</g>
</svg>
