<?xml version="1.0" encoding="UTF-8" standalone="no"?>
<!DOCTYPE svg PUBLIC "-//W3C//DTD SVG 1.1//EN"
 "http://www.w3.org/Graphics/SVG/1.1/DTD/svg11.dtd">
<!-- Generated by graphviz version 2.43.0 (0)
 -->
<!-- Title: %3 Pages: 1 -->
<svg width="1936pt" height="95pt"
 viewBox="0.00 0.00 1936.00 94.53" xmlns="http://www.w3.org/2000/svg" xmlns:xlink="http://www.w3.org/1999/xlink">
<g id="graph0" class="graph" transform="scale(1 1) rotate(0) translate(4 90.53)">
<title>%3</title>
<polygon fill="white" stroke="transparent" points="-4,4 -4,-90.53 1932,-90.53 1932,4 -4,4"/>
<!-- &#45;1 -->
<g id="node1" class="node">
<title>&#45;1</title>
<polygon fill="lightgray" stroke="black" points="26,-86.53 0,-86.53 0,-68.53 26,-68.53 26,-86.53"/>
<text text-anchor="middle" x="13" y="-75.33" font-family="Times,serif" font-size="9.00">&#45;1</text>
</g>
<!-- &#45;2 -->
<g id="node2" class="node">
<title>&#45;2</title>
<polygon fill="lightgray" stroke="black" points="70,-86.53 44,-86.53 44,-68.53 70,-68.53 70,-86.53"/>
<text text-anchor="middle" x="57" y="-75.33" font-family="Times,serif" font-size="9.00">&#45;2</text>
</g>
<!-- &#45;3 -->
<g id="node3" class="node">
<title>&#45;3</title>
<polygon fill="lightgray" stroke="black" points="114,-86.53 88,-86.53 88,-68.53 114,-68.53 114,-86.53"/>
<text text-anchor="middle" x="101" y="-75.33" font-family="Times,serif" font-size="9.00">&#45;3</text>
</g>
<!-- &#45;4 -->
<g id="node4" class="node">
<title>&#45;4</title>
<polygon fill="lightgray" stroke="black" points="158,-86.53 132,-86.53 132,-68.53 158,-68.53 158,-86.53"/>
<text text-anchor="middle" x="145" y="-75.33" font-family="Times,serif" font-size="9.00">&#45;4</text>
</g>
<!-- 1 -->
<g id="node42" class="node">
<title>1</title>
<ellipse fill="lightblue" stroke="black" cx="242" cy="-16.26" rx="16.03" ry="16.03"/>
<text text-anchor="middle" x="242" y="-14.06" font-family="Times,serif" font-size="9.00">1</text>
</g>
<!-- &#45;4&#45;&gt;1 -->
<g id="edge1" class="edge">
<title>&#45;4&#45;&gt;1</title>
<path fill="none" stroke="red" stroke-width="0.13" d="M158.08,-68.53C173.9,-58.87 200.78,-42.45 219.85,-30.8"/>
<polygon fill="red" stroke="red" stroke-width="0.13" points="221.79,-33.71 228.5,-25.51 218.14,-27.74 221.79,-33.71"/>
</g>
<!-- &#45;5 -->
<g id="node5" class="node">
<title>&#45;5</title>
<polygon fill="lightgray" stroke="black" points="652,-86.53 626,-86.53 626,-68.53 652,-68.53 652,-86.53"/>
<text text-anchor="middle" x="639" y="-75.33" font-family="Times,serif" font-size="9.00">&#45;5</text>
</g>
<!-- &#45;6 -->
<g id="node6" class="node">
<title>&#45;6</title>
<polygon fill="lightgray" stroke="black" points="696,-86.53 670,-86.53 670,-68.53 696,-68.53 696,-86.53"/>
<text text-anchor="middle" x="683" y="-75.33" font-family="Times,serif" font-size="9.00">&#45;6</text>
</g>
<!-- &#45;7 -->
<g id="node7" class="node">
<title>&#45;7</title>
<polygon fill="lightgray" stroke="black" points="740,-86.53 714,-86.53 714,-68.53 740,-68.53 740,-86.53"/>
<text text-anchor="middle" x="727" y="-75.33" font-family="Times,serif" font-size="9.00">&#45;7</text>
</g>
<!-- &#45;8 -->
<g id="node8" class="node">
<title>&#45;8</title>
<polygon fill="lightgray" stroke="black" points="784,-86.53 758,-86.53 758,-68.53 784,-68.53 784,-86.53"/>
<text text-anchor="middle" x="771" y="-75.33" font-family="Times,serif" font-size="9.00">&#45;8</text>
</g>
<!-- &#45;9 -->
<g id="node9" class="node">
<title>&#45;9</title>
<polygon fill="lightgray" stroke="black" points="828,-86.53 802,-86.53 802,-68.53 828,-68.53 828,-86.53"/>
<text text-anchor="middle" x="815" y="-75.33" font-family="Times,serif" font-size="9.00">&#45;9</text>
</g>
<!-- &#45;10 -->
<g id="node10" class="node">
<title>&#45;10</title>
<polygon fill="lightgray" stroke="black" points="878,-86.53 846,-86.53 846,-68.53 878,-68.53 878,-86.53"/>
<text text-anchor="middle" x="862" y="-75.33" font-family="Times,serif" font-size="9.00">&#45;10</text>
</g>
<!-- &#45;11 -->
<g id="node11" class="node">
<title>&#45;11</title>
<polygon fill="lightgray" stroke="black" points="928,-86.53 896,-86.53 896,-68.53 928,-68.53 928,-86.53"/>
<text text-anchor="middle" x="912" y="-75.33" font-family="Times,serif" font-size="9.00">&#45;11</text>
</g>
<!-- &#45;12 -->
<g id="node12" class="node">
<title>&#45;12</title>
<polygon fill="lightgray" stroke="black" points="558,-86.53 526,-86.53 526,-68.53 558,-68.53 558,-86.53"/>
<text text-anchor="middle" x="542" y="-75.33" font-family="Times,serif" font-size="9.00">&#45;12</text>
</g>
<!-- 2 -->
<g id="node43" class="node">
<title>2</title>
<ellipse fill="lightblue" stroke="black" cx="542" cy="-16.26" rx="16.03" ry="16.03"/>
<text text-anchor="middle" x="542" y="-14.06" font-family="Times,serif" font-size="9.00">2</text>
</g>
<!-- &#45;12&#45;&gt;2 -->
<g id="edge6" class="edge">
<title>&#45;12&#45;&gt;2</title>
<path fill="none" stroke="red" stroke-width="0.22" d="M542,-68.29C542,-61.7 542,-52.1 542,-43"/>
<polygon fill="red" stroke="red" stroke-width="0.22" points="545.5,-42.76 542,-32.76 538.5,-42.76 545.5,-42.76"/>
</g>
<!-- &#45;13 -->
<g id="node13" class="node">
<title>&#45;13</title>
<polygon fill="lightgray" stroke="black" points="978,-86.53 946,-86.53 946,-68.53 978,-68.53 978,-86.53"/>
<text text-anchor="middle" x="962" y="-75.33" font-family="Times,serif" font-size="9.00">&#45;13</text>
</g>
<!-- &#45;14 -->
<g id="node14" class="node">
<title>&#45;14</title>
<polygon fill="lightgray" stroke="black" points="408,-86.53 376,-86.53 376,-68.53 408,-68.53 408,-86.53"/>
<text text-anchor="middle" x="392" y="-75.33" font-family="Times,serif" font-size="9.00">&#45;14</text>
</g>
<!-- 0 -->
<g id="node41" class="node">
<title>0</title>
<ellipse fill="lightblue" stroke="black" cx="417" cy="-16.26" rx="16.03" ry="16.03"/>
<text text-anchor="middle" x="417" y="-14.06" font-family="Times,serif" font-size="9.00">0</text>
</g>
<!-- &#45;14&#45;&gt;0 -->
<g id="edge10" class="edge">
<title>&#45;14&#45;&gt;0</title>
<path fill="none" stroke="green" stroke-width="0.19" d="M395.48,-68.29C398.45,-61.23 402.9,-50.7 406.97,-41.03"/>
<polygon fill="green" stroke="green" stroke-width="0.19" points="410.2,-42.39 410.86,-31.82 403.75,-39.67 410.2,-42.39"/>
</g>
<!-- &#45;15 -->
<g id="node15" class="node">
<title>&#45;15</title>
<polygon fill="lightgray" stroke="black" points="458,-86.53 426,-86.53 426,-68.53 458,-68.53 458,-86.53"/>
<text text-anchor="middle" x="442" y="-75.33" font-family="Times,serif" font-size="9.00">&#45;15</text>
</g>
<!-- &#45;15&#45;&gt;0 -->
<g id="edge2" class="edge">
<title>&#45;15&#45;&gt;0</title>
<path fill="none" stroke="green" stroke-width="0.16" d="M438.52,-68.29C435.55,-61.23 431.1,-50.7 427.03,-41.03"/>
<polygon fill="green" stroke="green" stroke-width="0.16" points="430.25,-39.67 423.14,-31.82 423.8,-42.39 430.25,-39.67"/>
</g>
<!-- &#45;16 -->
<g id="node16" class="node">
<title>&#45;16</title>
<polygon fill="lightgray" stroke="black" points="1028,-86.53 996,-86.53 996,-68.53 1028,-68.53 1028,-86.53"/>
<text text-anchor="middle" x="1012" y="-75.33" font-family="Times,serif" font-size="9.00">&#45;16</text>
</g>
<!-- &#45;17 -->
<g id="node17" class="node">
<title>&#45;17</title>
<polygon fill="lightgray" stroke="black" points="1078,-86.53 1046,-86.53 1046,-68.53 1078,-68.53 1078,-86.53"/>
<text text-anchor="middle" x="1062" y="-75.33" font-family="Times,serif" font-size="9.00">&#45;17</text>
</g>
<!-- &#45;18 -->
<g id="node18" class="node">
<title>&#45;18</title>
<polygon fill="lightgray" stroke="black" points="1128,-86.53 1096,-86.53 1096,-68.53 1128,-68.53 1128,-86.53"/>
<text text-anchor="middle" x="1112" y="-75.33" font-family="Times,serif" font-size="9.00">&#45;18</text>
</g>
<!-- &#45;19 -->
<g id="node19" class="node">
<title>&#45;19</title>
<polygon fill="lightgray" stroke="black" points="1178,-86.53 1146,-86.53 1146,-68.53 1178,-68.53 1178,-86.53"/>
<text text-anchor="middle" x="1162" y="-75.33" font-family="Times,serif" font-size="9.00">&#45;19</text>
</g>
<!-- &#45;20 -->
<g id="node20" class="node">
<title>&#45;20</title>
<polygon fill="lightgray" stroke="black" points="1228,-86.53 1196,-86.53 1196,-68.53 1228,-68.53 1228,-86.53"/>
<text text-anchor="middle" x="1212" y="-75.33" font-family="Times,serif" font-size="9.00">&#45;20</text>
</g>
<!-- 3 -->
<g id="node44" class="node">
<title>3</title>
<ellipse fill="lightblue" stroke="black" cx="1287" cy="-16.26" rx="16.03" ry="16.03"/>
<text text-anchor="middle" x="1287" y="-14.06" font-family="Times,serif" font-size="9.00">3</text>
</g>
<!-- &#45;20&#45;&gt;3 -->
<g id="edge7" class="edge">
<title>&#45;20&#45;&gt;3</title>
<path fill="none" stroke="red" stroke-width="0.25" d="M1222.43,-68.29C1233.76,-59.33 1252.16,-44.8 1266.42,-33.52"/>
<polygon fill="red" stroke="red" stroke-width="0.25" points="1268.99,-35.95 1274.67,-27.01 1264.65,-30.46 1268.99,-35.95"/>
</g>
<!-- &#45;21 -->
<g id="node21" class="node">
<title>&#45;21</title>
<polygon fill="lightgray" stroke="black" points="1428,-86.53 1396,-86.53 1396,-68.53 1428,-68.53 1428,-86.53"/>
<text text-anchor="middle" x="1412" y="-75.33" font-family="Times,serif" font-size="9.00">&#45;21</text>
</g>
<!-- &#45;22 -->
<g id="node22" class="node">
<title>&#45;22</title>
<polygon fill="lightgray" stroke="black" points="208,-86.53 176,-86.53 176,-68.53 208,-68.53 208,-86.53"/>
<text text-anchor="middle" x="192" y="-75.33" font-family="Times,serif" font-size="9.00">&#45;22</text>
</g>
<!-- &#45;22&#45;&gt;1 -->
<g id="edge11" class="edge">
<title>&#45;22&#45;&gt;1</title>
<path fill="none" stroke="green" stroke-width="0.14" d="M198.95,-68.29C205.79,-60.18 216.5,-47.49 225.52,-36.79"/>
<polygon fill="green" stroke="green" stroke-width="0.14" points="228.23,-39.01 232,-29.11 222.88,-34.5 228.23,-39.01"/>
</g>
<!-- &#45;23 -->
<g id="node23" class="node">
<title>&#45;23</title>
<polygon fill="lightgray" stroke="black" points="358,-86.53 326,-86.53 326,-68.53 358,-68.53 358,-86.53"/>
<text text-anchor="middle" x="342" y="-75.33" font-family="Times,serif" font-size="9.00">&#45;23</text>
</g>
<!-- &#45;23&#45;&gt;0 -->
<g id="edge13" class="edge">
<title>&#45;23&#45;&gt;0</title>
<path fill="none" stroke="red" stroke-width="0.31" d="M352.43,-68.29C363.76,-59.33 382.16,-44.8 396.42,-33.52"/>
<polygon fill="red" stroke="red" stroke-width="0.31" points="398.99,-35.95 404.67,-27.01 394.65,-30.46 398.99,-35.95"/>
</g>
<!-- &#45;23&#45;&gt;1 -->
<g id="edge8" class="edge">
<title>&#45;23&#45;&gt;1</title>
<path fill="none" stroke="green" stroke-width="0.18" d="M328.1,-68.29C311.68,-58.56 284.14,-42.24 264.63,-30.68"/>
<polygon fill="green" stroke="green" stroke-width="0.18" points="266.17,-27.52 255.79,-25.43 262.6,-33.54 266.17,-27.52"/>
</g>
<!-- &#45;24 -->
<g id="node24" class="node">
<title>&#45;24</title>
<polygon fill="lightgray" stroke="black" points="1478,-86.53 1446,-86.53 1446,-68.53 1478,-68.53 1478,-86.53"/>
<text text-anchor="middle" x="1462" y="-75.33" font-family="Times,serif" font-size="9.00">&#45;24</text>
</g>
<!-- &#45;25 -->
<g id="node25" class="node">
<title>&#45;25</title>
<polygon fill="lightgray" stroke="black" points="1278,-86.53 1246,-86.53 1246,-68.53 1278,-68.53 1278,-86.53"/>
<text text-anchor="middle" x="1262" y="-75.33" font-family="Times,serif" font-size="9.00">&#45;25</text>
</g>
<!-- &#45;25&#45;&gt;3 -->
<g id="edge4" class="edge">
<title>&#45;25&#45;&gt;3</title>
<path fill="none" stroke="green" stroke-width="0.29" d="M1265.48,-68.29C1268.45,-61.23 1272.9,-50.7 1276.97,-41.03"/>
<polygon fill="green" stroke="green" stroke-width="0.29" points="1280.2,-42.39 1280.86,-31.82 1273.75,-39.67 1280.2,-42.39"/>
</g>
<!-- &#45;26 -->
<g id="node26" class="node">
<title>&#45;26</title>
<polygon fill="lightgray" stroke="black" points="1528,-86.53 1496,-86.53 1496,-68.53 1528,-68.53 1528,-86.53"/>
<text text-anchor="middle" x="1512" y="-75.33" font-family="Times,serif" font-size="9.00">&#45;26</text>
</g>
<!-- &#45;27 -->
<g id="node27" class="node">
<title>&#45;27</title>
<polygon fill="lightgray" stroke="black" points="1328,-86.53 1296,-86.53 1296,-68.53 1328,-68.53 1328,-86.53"/>
<text text-anchor="middle" x="1312" y="-75.33" font-family="Times,serif" font-size="9.00">&#45;27</text>
</g>
<!-- &#45;27&#45;&gt;3 -->
<g id="edge12" class="edge">
<title>&#45;27&#45;&gt;3</title>
<path fill="none" stroke="red" stroke-width="0.13" d="M1308.52,-68.29C1305.55,-61.23 1301.1,-50.7 1297.03,-41.03"/>
<polygon fill="red" stroke="red" stroke-width="0.13" points="1300.25,-39.67 1293.14,-31.82 1293.8,-42.39 1300.25,-39.67"/>
</g>
<!-- &#45;28 -->
<g id="node28" class="node">
<title>&#45;28</title>
<polygon fill="lightgray" stroke="black" points="1378,-86.53 1346,-86.53 1346,-68.53 1378,-68.53 1378,-86.53"/>
<text text-anchor="middle" x="1362" y="-75.33" font-family="Times,serif" font-size="9.00">&#45;28</text>
</g>
<!-- &#45;28&#45;&gt;3 -->
<g id="edge3" class="edge">
<title>&#45;28&#45;&gt;3</title>
<path fill="none" stroke="red" stroke-width="0.33" d="M1351.57,-68.29C1340.24,-59.33 1321.84,-44.8 1307.58,-33.52"/>
<polygon fill="red" stroke="red" stroke-width="0.33" points="1309.35,-30.46 1299.33,-27.01 1305.01,-35.95 1309.35,-30.46"/>
</g>
<!-- &#45;29 -->
<g id="node29" class="node">
<title>&#45;29</title>
<polygon fill="lightgray" stroke="black" points="1578,-86.53 1546,-86.53 1546,-68.53 1578,-68.53 1578,-86.53"/>
<text text-anchor="middle" x="1562" y="-75.33" font-family="Times,serif" font-size="9.00">&#45;29</text>
</g>
<!-- &#45;30 -->
<g id="node30" class="node">
<title>&#45;30</title>
<polygon fill="lightgray" stroke="black" points="1628,-86.53 1596,-86.53 1596,-68.53 1628,-68.53 1628,-86.53"/>
<text text-anchor="middle" x="1612" y="-75.33" font-family="Times,serif" font-size="9.00">&#45;30</text>
</g>
<!-- &#45;31 -->
<g id="node31" class="node">
<title>&#45;31</title>
<polygon fill="lightgray" stroke="black" points="1678,-86.53 1646,-86.53 1646,-68.53 1678,-68.53 1678,-86.53"/>
<text text-anchor="middle" x="1662" y="-75.33" font-family="Times,serif" font-size="9.00">&#45;31</text>
</g>
<!-- &#45;32 -->
<g id="node32" class="node">
<title>&#45;32</title>
<polygon fill="lightgray" stroke="black" points="258,-86.53 226,-86.53 226,-68.53 258,-68.53 258,-86.53"/>
<text text-anchor="middle" x="242" y="-75.33" font-family="Times,serif" font-size="9.00">&#45;32</text>
</g>
<!-- &#45;32&#45;&gt;1 -->
<g id="edge14" class="edge">
<title>&#45;32&#45;&gt;1</title>
<path fill="none" stroke="red" stroke-width="0.36" d="M242,-68.29C242,-61.7 242,-52.1 242,-43"/>
<polygon fill="red" stroke="red" stroke-width="0.36" points="245.5,-42.76 242,-32.76 238.5,-42.76 245.5,-42.76"/>
</g>
<!-- &#45;33 -->
<g id="node33" class="node">
<title>&#45;33</title>
<polygon fill="lightgray" stroke="black" points="608,-86.53 576,-86.53 576,-68.53 608,-68.53 608,-86.53"/>
<text text-anchor="middle" x="592" y="-75.33" font-family="Times,serif" font-size="9.00">&#45;33</text>
</g>
<!-- &#45;33&#45;&gt;2 -->
<g id="edge15" class="edge">
<title>&#45;33&#45;&gt;2</title>
<path fill="none" stroke="red" stroke-width="0.22" d="M585.05,-68.29C578.21,-60.18 567.5,-47.49 558.48,-36.79"/>
<polygon fill="red" stroke="red" stroke-width="0.22" points="561.12,-34.5 552,-29.11 555.77,-39.01 561.12,-34.5"/>
</g>
<!-- &#45;34 -->
<g id="node34" class="node">
<title>&#45;34</title>
<polygon fill="lightgray" stroke="black" points="1728,-86.53 1696,-86.53 1696,-68.53 1728,-68.53 1728,-86.53"/>
<text text-anchor="middle" x="1712" y="-75.33" font-family="Times,serif" font-size="9.00">&#45;34</text>
</g>
<!-- &#45;35 -->
<g id="node35" class="node">
<title>&#45;35</title>
<polygon fill="lightgray" stroke="black" points="1778,-86.53 1746,-86.53 1746,-68.53 1778,-68.53 1778,-86.53"/>
<text text-anchor="middle" x="1762" y="-75.33" font-family="Times,serif" font-size="9.00">&#45;35</text>
</g>
<!-- &#45;36 -->
<g id="node36" class="node">
<title>&#45;36</title>
<polygon fill="lightgray" stroke="black" points="308,-86.53 276,-86.53 276,-68.53 308,-68.53 308,-86.53"/>
<text text-anchor="middle" x="292" y="-75.33" font-family="Times,serif" font-size="9.00">&#45;36</text>
</g>
<!-- &#45;36&#45;&gt;1 -->
<g id="edge9" class="edge">
<title>&#45;36&#45;&gt;1</title>
<path fill="none" stroke="red" stroke-width="0.21" d="M285.05,-68.29C278.21,-60.18 267.5,-47.49 258.48,-36.79"/>
<polygon fill="red" stroke="red" stroke-width="0.21" points="261.12,-34.5 252,-29.11 255.77,-39.01 261.12,-34.5"/>
</g>
<!-- &#45;37 -->
<g id="node37" class="node">
<title>&#45;37</title>
<polygon fill="lightgray" stroke="black" points="1828,-86.53 1796,-86.53 1796,-68.53 1828,-68.53 1828,-86.53"/>
<text text-anchor="middle" x="1812" y="-75.33" font-family="Times,serif" font-size="9.00">&#45;37</text>
</g>
<!-- &#45;38 -->
<g id="node38" class="node">
<title>&#45;38</title>
<polygon fill="lightgray" stroke="black" points="508,-86.53 476,-86.53 476,-68.53 508,-68.53 508,-86.53"/>
<text text-anchor="middle" x="492" y="-75.33" font-family="Times,serif" font-size="9.00">&#45;38</text>
</g>
<!-- &#45;38&#45;&gt;0 -->
<g id="edge16" class="edge">
<title>&#45;38&#45;&gt;0</title>
<path fill="none" stroke="green" stroke-width="0.23" d="M481.57,-68.29C470.24,-59.33 451.84,-44.8 437.58,-33.52"/>
<polygon fill="green" stroke="green" stroke-width="0.23" points="439.35,-30.46 429.33,-27.01 435.01,-35.95 439.35,-30.46"/>
</g>
<!-- &#45;38&#45;&gt;2 -->
<g id="edge5" class="edge">
<title>&#45;38&#45;&gt;2</title>
<path fill="none" stroke="green" stroke-width="0.14" d="M498.95,-68.29C505.79,-60.18 516.5,-47.49 525.52,-36.79"/>
<polygon fill="green" stroke="green" stroke-width="0.14" points="528.23,-39.01 532,-29.11 522.88,-34.5 528.23,-39.01"/>
</g>
<!-- &#45;39 -->
<g id="node39" class="node">
<title>&#45;39</title>
<polygon fill="lightgray" stroke="black" points="1878,-86.53 1846,-86.53 1846,-68.53 1878,-68.53 1878,-86.53"/>
<text text-anchor="middle" x="1862" y="-75.33" font-family="Times,serif" font-size="9.00">&#45;39</text>
</g>
<!-- &#45;40 -->
<g id="node40" class="node">
<title>&#45;40</title>
<polygon fill="lightgray" stroke="black" points="1928,-86.53 1896,-86.53 1896,-68.53 1928,-68.53 1928,-86.53"/>
<text text-anchor="middle" x="1912" y="-75.33" font-family="Times,serif" font-size="9.00">&#45;40</text>
</g>
</g>
</svg>
