<?xml version="1.0" encoding="utf-8" standalone="no"?>
<!DOCTYPE svg PUBLIC "-//W3C//DTD SVG 1.1//EN"
  "http://www.w3.org/Graphics/SVG/1.1/DTD/svg11.dtd">
<svg xmlns:xlink="http://www.w3.org/1999/xlink" width="460.8pt" height="345.6pt" viewBox="0 0 460.8 345.6" xmlns="http://www.w3.org/2000/svg" version="1.1">
 <metadata>
  <rdf:RDF xmlns:dc="http://purl.org/dc/elements/1.1/" xmlns:cc="http://creativecommons.org/ns#" xmlns:rdf="http://www.w3.org/1999/02/22-rdf-syntax-ns#">
   <cc:Work>
    <dc:type rdf:resource="http://purl.org/dc/dcmitype/StillImage"/>
    <dc:date>2024-08-18T19:18:24.923657</dc:date>
    <dc:format>image/svg+xml</dc:format>
    <dc:creator>
     <cc:Agent>
      <dc:title>Matplotlib v3.8.4, https://matplotlib.org/</dc:title>
     </cc:Agent>
    </dc:creator>
   </cc:Work>
  </rdf:RDF>
 </metadata>
 <defs>
  <style type="text/css">*{stroke-linejoin: round; stroke-linecap: butt}</style>
 </defs>
 <g id="figure_1">
  <g id="patch_1">
   <path d="M 0 345.6 
L 460.8 345.6 
L 460.8 0 
L 0 0 
z
" style="fill: #ffffff"/>
  </g>
  <g id="axes_1">
   <g id="patch_2">
    <path d="M 57.6 307.584 
L 414.72 307.584 
L 414.72 41.472 
L 57.6 41.472 
z
" style="fill: #ffffff"/>
   </g>
   <g id="PolyCollection_1">
    <path d="M 73.832727 261.282462 
L 73.832727 307.584 
L 77.480531 307.584 
L 81.128335 307.584 
L 84.776139 307.584 
L 88.423943 307.584 
L 92.071747 307.584 
L 95.719551 307.584 
L 99.367354 307.584 
L 103.015158 307.584 
L 106.662962 307.584 
L 110.310766 307.584 
L 113.95857 307.584 
L 117.606374 307.584 
L 121.254178 307.584 
L 124.901982 307.584 
L 128.549785 307.584 
L 132.197589 307.584 
L 135.845393 307.584 
L 139.493197 307.584 
L 143.141001 307.584 
L 146.788805 307.584 
L 150.436609 307.584 
L 154.084413 307.584 
L 157.732217 307.584 
L 161.38002 307.584 
L 165.027824 307.584 
L 168.675628 307.584 
L 172.323432 307.584 
L 175.971236 307.584 
L 179.61904 307.584 
L 183.266844 307.584 
L 186.914648 307.584 
L 190.562451 307.584 
L 194.210255 307.584 
L 197.858059 307.584 
L 201.505863 307.584 
L 205.153667 307.584 
L 208.801471 307.584 
L 212.449275 307.584 
L 216.097079 307.584 
L 219.744883 307.584 
L 223.392686 307.584 
L 227.04049 307.584 
L 230.688294 307.584 
L 234.336098 307.584 
L 237.983902 307.584 
L 241.631706 307.584 
L 245.27951 307.584 
L 248.927314 307.584 
L 252.575117 307.584 
L 256.222921 307.584 
L 259.870725 307.584 
L 263.518529 307.584 
L 267.166333 307.584 
L 270.814137 307.584 
L 274.461941 307.584 
L 278.109745 307.584 
L 281.757549 307.584 
L 285.405352 307.584 
L 289.053156 307.584 
L 292.70096 307.584 
L 296.348764 307.584 
L 299.996568 307.584 
L 303.644372 307.584 
L 307.292176 307.584 
L 310.93998 307.584 
L 314.587783 307.584 
L 318.235587 307.584 
L 321.883391 307.584 
L 325.531195 307.584 
L 329.178999 307.584 
L 332.826803 307.584 
L 336.474607 307.584 
L 340.122411 307.584 
L 343.770215 307.584 
L 347.418018 307.584 
L 351.065822 307.584 
L 354.713626 307.584 
L 358.36143 307.584 
L 362.009234 307.584 
L 365.657038 307.584 
L 369.304842 307.584 
L 372.952646 307.584 
L 376.600449 307.584 
L 380.248253 307.584 
L 383.896057 307.584 
L 387.543861 307.584 
L 391.191665 307.584 
L 394.839469 307.584 
L 398.487273 307.584 
L 398.487273 307.584 
L 398.487273 307.584 
L 394.839469 307.584 
L 391.191665 307.584 
L 387.543861 307.584 
L 383.896057 307.584 
L 380.248253 307.584 
L 376.600449 307.584 
L 372.952646 307.584 
L 369.304842 307.584 
L 365.657038 307.584 
L 362.009234 307.584 
L 358.36143 307.584 
L 354.713626 307.584 
L 351.065822 307.584 
L 347.418018 307.584 
L 343.770215 307.584 
L 340.122411 307.584 
L 336.474607 307.584 
L 332.826803 307.584 
L 329.178999 307.584 
L 325.531195 307.584 
L 321.883391 307.584 
L 318.235587 307.584 
L 314.587783 307.584 
L 310.93998 307.584 
L 307.292176 307.584 
L 303.644372 307.584 
L 299.996568 307.584 
L 296.348764 307.584 
L 292.70096 307.584 
L 289.053156 307.584 
L 285.405352 307.584 
L 281.757549 307.584 
L 278.109745 307.584 
L 274.461941 307.584 
L 270.814137 307.584 
L 267.166333 307.584 
L 263.518529 307.584 
L 259.870725 307.584 
L 256.222921 307.584 
L 252.575117 307.584 
L 248.927314 307.584 
L 245.27951 307.584 
L 241.631706 307.584 
L 237.983902 307.584 
L 234.336098 307.584 
L 230.688294 307.584 
L 227.04049 307.584 
L 223.392686 307.584 
L 219.744883 307.584 
L 216.097079 307.584 
L 212.449275 307.584 
L 208.801471 307.584 
L 205.153667 307.584 
L 201.505863 307.584 
L 197.858059 307.584 
L 194.210255 307.584 
L 190.562451 307.584 
L 186.914648 307.584 
L 183.266844 307.584 
L 179.61904 307.584 
L 175.971236 307.584 
L 172.323432 307.584 
L 168.675628 307.584 
L 165.027824 307.584 
L 161.38002 307.584 
L 157.732217 307.584 
L 154.084413 307.584 
L 150.436609 284.433231 
L 146.788805 268.593231 
L 143.141001 278.340923 
L 139.493197 277.122462 
L 135.845393 281.996308 
L 132.197589 272.248615 
L 128.549785 275.904 
L 124.901982 271.030154 
L 121.254178 275.904 
L 117.606374 277.122462 
L 113.95857 277.122462 
L 110.310766 277.122462 
L 106.662962 280.777846 
L 103.015158 275.904 
L 99.367354 271.030154 
L 95.719551 289.307077 
L 92.071747 295.399385 
L 88.423943 245.442462 
L 84.776139 294.180923 
L 81.128335 269.811692 
L 77.480531 257.627077 
L 73.832727 261.282462 
z
" clip-path="url(#p02e2570295)" style="fill: #1f77b4"/>
   </g>
   <g id="PolyCollection_2">
    <path d="M 73.832727 206.451692 
L 73.832727 261.282462 
L 77.480531 257.627077 
L 81.128335 269.811692 
L 84.776139 294.180923 
L 88.423943 245.442462 
L 92.071747 295.399385 
L 95.719551 289.307077 
L 99.367354 271.030154 
L 103.015158 275.904 
L 106.662962 280.777846 
L 110.310766 277.122462 
L 113.95857 277.122462 
L 117.606374 277.122462 
L 121.254178 275.904 
L 124.901982 271.030154 
L 128.549785 275.904 
L 132.197589 272.248615 
L 135.845393 281.996308 
L 139.493197 277.122462 
L 143.141001 278.340923 
L 146.788805 268.593231 
L 150.436609 284.433231 
L 154.084413 307.584 
L 157.732217 307.584 
L 161.38002 307.584 
L 165.027824 307.584 
L 168.675628 307.584 
L 172.323432 307.584 
L 175.971236 307.584 
L 179.61904 307.584 
L 183.266844 307.584 
L 186.914648 307.584 
L 190.562451 307.584 
L 194.210255 307.584 
L 197.858059 307.584 
L 201.505863 307.584 
L 205.153667 307.584 
L 208.801471 307.584 
L 212.449275 307.584 
L 216.097079 307.584 
L 219.744883 307.584 
L 223.392686 307.584 
L 227.04049 307.584 
L 230.688294 307.584 
L 234.336098 307.584 
L 237.983902 307.584 
L 241.631706 307.584 
L 245.27951 307.584 
L 248.927314 307.584 
L 252.575117 307.584 
L 256.222921 307.584 
L 259.870725 307.584 
L 263.518529 307.584 
L 267.166333 307.584 
L 270.814137 307.584 
L 274.461941 307.584 
L 278.109745 307.584 
L 281.757549 307.584 
L 285.405352 307.584 
L 289.053156 307.584 
L 292.70096 307.584 
L 296.348764 307.584 
L 299.996568 307.584 
L 303.644372 307.584 
L 307.292176 307.584 
L 310.93998 307.584 
L 314.587783 307.584 
L 318.235587 307.584 
L 321.883391 307.584 
L 325.531195 307.584 
L 329.178999 307.584 
L 332.826803 307.584 
L 336.474607 307.584 
L 340.122411 307.584 
L 343.770215 307.584 
L 347.418018 307.584 
L 351.065822 307.584 
L 354.713626 307.584 
L 358.36143 307.584 
L 362.009234 307.584 
L 365.657038 307.584 
L 369.304842 307.584 
L 372.952646 307.584 
L 376.600449 307.584 
L 380.248253 307.584 
L 383.896057 307.584 
L 387.543861 307.584 
L 391.191665 307.584 
L 394.839469 307.584 
L 398.487273 307.584 
L 398.487273 307.584 
L 398.487273 307.584 
L 394.839469 307.584 
L 391.191665 307.584 
L 387.543861 307.584 
L 383.896057 307.584 
L 380.248253 307.584 
L 376.600449 307.584 
L 372.952646 307.584 
L 369.304842 307.584 
L 365.657038 307.584 
L 362.009234 307.584 
L 358.36143 307.584 
L 354.713626 307.584 
L 351.065822 307.584 
L 347.418018 307.584 
L 343.770215 307.584 
L 340.122411 307.584 
L 336.474607 307.584 
L 332.826803 307.584 
L 329.178999 307.584 
L 325.531195 307.584 
L 321.883391 307.584 
L 318.235587 307.584 
L 314.587783 307.584 
L 310.93998 307.584 
L 307.292176 307.584 
L 303.644372 307.584 
L 299.996568 307.584 
L 296.348764 307.584 
L 292.70096 307.584 
L 289.053156 307.584 
L 285.405352 307.584 
L 281.757549 307.584 
L 278.109745 307.584 
L 274.461941 307.584 
L 270.814137 307.584 
L 267.166333 307.584 
L 263.518529 307.584 
L 259.870725 307.584 
L 256.222921 307.584 
L 252.575117 307.584 
L 248.927314 307.584 
L 245.27951 307.584 
L 241.631706 307.584 
L 237.983902 307.584 
L 234.336098 307.584 
L 230.688294 307.584 
L 227.04049 307.584 
L 223.392686 307.584 
L 219.744883 307.584 
L 216.097079 307.584 
L 212.449275 307.584 
L 208.801471 307.584 
L 205.153667 307.584 
L 201.505863 307.584 
L 197.858059 307.584 
L 194.210255 307.584 
L 190.562451 307.584 
L 186.914648 307.584 
L 183.266844 307.584 
L 179.61904 307.584 
L 175.971236 307.584 
L 172.323432 307.584 
L 168.675628 307.584 
L 165.027824 307.584 
L 161.38002 280.777846 
L 157.732217 280.777846 
L 154.084413 286.870154 
L 150.436609 271.030154 
L 146.788805 256.408615 
L 143.141001 268.593231 
L 139.493197 266.156308 
L 135.845393 267.374769 
L 132.197589 255.190154 
L 128.549785 262.500923 
L 124.901982 262.500923 
L 121.254178 263.719385 
L 117.606374 266.156308 
L 113.95857 263.719385 
L 110.310766 261.282462 
L 106.662962 267.374769 
L 103.015158 268.593231 
L 99.367354 260.064 
L 95.719551 283.214769 
L 92.071747 279.559385 
L 88.423943 234.476308 
L 84.776139 261.282462 
L 81.128335 229.602462 
L 77.480531 211.325538 
L 73.832727 206.451692 
z
" clip-path="url(#p02e2570295)" style="fill: #ff7f0e"/>
   </g>
   <g id="PolyCollection_3">
    <path d="M 73.832727 161.368615 
L 73.832727 206.451692 
L 77.480531 211.325538 
L 81.128335 229.602462 
L 84.776139 261.282462 
L 88.423943 234.476308 
L 92.071747 279.559385 
L 95.719551 283.214769 
L 99.367354 260.064 
L 103.015158 268.593231 
L 106.662962 267.374769 
L 110.310766 261.282462 
L 113.95857 263.719385 
L 117.606374 266.156308 
L 121.254178 263.719385 
L 124.901982 262.500923 
L 128.549785 262.500923 
L 132.197589 255.190154 
L 135.845393 267.374769 
L 139.493197 266.156308 
L 143.141001 268.593231 
L 146.788805 256.408615 
L 150.436609 271.030154 
L 154.084413 286.870154 
L 157.732217 280.777846 
L 161.38002 280.777846 
L 165.027824 307.584 
L 168.675628 307.584 
L 172.323432 307.584 
L 175.971236 307.584 
L 179.61904 307.584 
L 183.266844 307.584 
L 186.914648 307.584 
L 190.562451 307.584 
L 194.210255 307.584 
L 197.858059 307.584 
L 201.505863 307.584 
L 205.153667 307.584 
L 208.801471 307.584 
L 212.449275 307.584 
L 216.097079 307.584 
L 219.744883 307.584 
L 223.392686 307.584 
L 227.04049 307.584 
L 230.688294 307.584 
L 234.336098 307.584 
L 237.983902 307.584 
L 241.631706 307.584 
L 245.27951 307.584 
L 248.927314 307.584 
L 252.575117 307.584 
L 256.222921 307.584 
L 259.870725 307.584 
L 263.518529 307.584 
L 267.166333 307.584 
L 270.814137 307.584 
L 274.461941 307.584 
L 278.109745 307.584 
L 281.757549 307.584 
L 285.405352 307.584 
L 289.053156 307.584 
L 292.70096 307.584 
L 296.348764 307.584 
L 299.996568 307.584 
L 303.644372 307.584 
L 307.292176 307.584 
L 310.93998 307.584 
L 314.587783 307.584 
L 318.235587 307.584 
L 321.883391 307.584 
L 325.531195 307.584 
L 329.178999 307.584 
L 332.826803 307.584 
L 336.474607 307.584 
L 340.122411 307.584 
L 343.770215 307.584 
L 347.418018 307.584 
L 351.065822 307.584 
L 354.713626 307.584 
L 358.36143 307.584 
L 362.009234 307.584 
L 365.657038 307.584 
L 369.304842 307.584 
L 372.952646 307.584 
L 376.600449 307.584 
L 380.248253 307.584 
L 383.896057 307.584 
L 387.543861 307.584 
L 391.191665 307.584 
L 394.839469 307.584 
L 398.487273 307.584 
L 398.487273 221.073231 
L 398.487273 221.073231 
L 394.839469 218.636308 
L 391.191665 219.854769 
L 387.543861 216.199385 
L 383.896057 212.544 
L 380.248253 213.762462 
L 376.600449 201.577846 
L 372.952646 206.451692 
L 369.304842 216.199385 
L 365.657038 214.980923 
L 362.009234 218.636308 
L 358.36143 218.636308 
L 354.713626 219.854769 
L 351.065822 212.544 
L 347.418018 208.888615 
L 343.770215 208.888615 
L 340.122411 218.636308 
L 336.474607 221.073231 
L 332.826803 210.107077 
L 329.178999 210.107077 
L 325.531195 202.796308 
L 321.883391 218.636308 
L 318.235587 219.854769 
L 314.587783 210.107077 
L 310.93998 206.451692 
L 307.292176 212.544 
L 303.644372 218.636308 
L 299.996568 214.980923 
L 296.348764 218.636308 
L 292.70096 224.728615 
L 289.053156 211.325538 
L 285.405352 211.325538 
L 281.757549 204.014769 
L 278.109745 202.796308 
L 274.461941 216.199385 
L 270.814137 207.670154 
L 267.166333 197.922462 
L 263.518529 208.888615 
L 259.870725 213.762462 
L 256.222921 208.888615 
L 252.575117 218.636308 
L 248.927314 216.199385 
L 245.27951 214.980923 
L 241.631706 214.980923 
L 237.983902 213.762462 
L 234.336098 217.417846 
L 230.688294 218.636308 
L 227.04049 225.947077 
L 223.392686 218.636308 
L 219.744883 213.762462 
L 216.097079 223.510154 
L 212.449275 214.980923 
L 208.801471 217.417846 
L 205.153667 225.947077 
L 201.505863 224.728615 
L 197.858059 222.291692 
L 194.210255 213.762462 
L 190.562451 214.980923 
L 186.914648 212.544 
L 183.266844 234.476308 
L 179.61904 241.787077 
L 175.971236 234.476308 
L 172.323432 232.039385 
L 168.675628 232.039385 
L 165.027824 241.787077 
L 161.38002 250.316308 
L 157.732217 255.190154 
L 154.084413 261.282462 
L 150.436609 252.753231 
L 146.788805 245.442462 
L 143.141001 252.753231 
L 139.493197 246.660923 
L 135.845393 247.879385 
L 132.197589 234.476308 
L 128.549785 241.787077 
L 124.901982 249.097846 
L 121.254178 244.224 
L 117.606374 252.753231 
L 113.95857 250.316308 
L 110.310766 247.879385 
L 106.662962 247.879385 
L 103.015158 245.442462 
L 99.367354 244.224 
L 95.719551 264.937846 
L 92.071747 264.937846 
L 88.423943 212.544 
L 84.776139 243.005538 
L 81.128335 210.107077 
L 77.480531 191.830154 
L 73.832727 161.368615 
z
" clip-path="url(#p02e2570295)" style="fill: #2ca02c"/>
   </g>
   <g id="PolyCollection_4">
    <path d="M 73.832727 139.436308 
L 73.832727 161.368615 
L 77.480531 191.830154 
L 81.128335 210.107077 
L 84.776139 243.005538 
L 88.423943 212.544 
L 92.071747 264.937846 
L 95.719551 264.937846 
L 99.367354 244.224 
L 103.015158 245.442462 
L 106.662962 247.879385 
L 110.310766 247.879385 
L 113.95857 250.316308 
L 117.606374 252.753231 
L 121.254178 244.224 
L 124.901982 249.097846 
L 128.549785 241.787077 
L 132.197589 234.476308 
L 135.845393 247.879385 
L 139.493197 246.660923 
L 143.141001 252.753231 
L 146.788805 245.442462 
L 150.436609 252.753231 
L 154.084413 261.282462 
L 157.732217 255.190154 
L 161.38002 250.316308 
L 165.027824 241.787077 
L 168.675628 232.039385 
L 172.323432 232.039385 
L 175.971236 234.476308 
L 179.61904 241.787077 
L 183.266844 234.476308 
L 186.914648 212.544 
L 190.562451 214.980923 
L 194.210255 213.762462 
L 197.858059 222.291692 
L 201.505863 224.728615 
L 205.153667 225.947077 
L 208.801471 217.417846 
L 212.449275 214.980923 
L 216.097079 223.510154 
L 219.744883 213.762462 
L 223.392686 218.636308 
L 227.04049 225.947077 
L 230.688294 218.636308 
L 234.336098 217.417846 
L 237.983902 213.762462 
L 241.631706 214.980923 
L 245.27951 214.980923 
L 248.927314 216.199385 
L 252.575117 218.636308 
L 256.222921 208.888615 
L 259.870725 213.762462 
L 263.518529 208.888615 
L 267.166333 197.922462 
L 270.814137 207.670154 
L 274.461941 216.199385 
L 278.109745 202.796308 
L 281.757549 204.014769 
L 285.405352 211.325538 
L 289.053156 211.325538 
L 292.70096 224.728615 
L 296.348764 218.636308 
L 299.996568 214.980923 
L 303.644372 218.636308 
L 307.292176 212.544 
L 310.93998 206.451692 
L 314.587783 210.107077 
L 318.235587 219.854769 
L 321.883391 218.636308 
L 325.531195 202.796308 
L 329.178999 210.107077 
L 332.826803 210.107077 
L 336.474607 221.073231 
L 340.122411 218.636308 
L 343.770215 208.888615 
L 347.418018 208.888615 
L 351.065822 212.544 
L 354.713626 219.854769 
L 358.36143 218.636308 
L 362.009234 218.636308 
L 365.657038 214.980923 
L 369.304842 216.199385 
L 372.952646 206.451692 
L 376.600449 201.577846 
L 380.248253 213.762462 
L 383.896057 212.544 
L 387.543861 216.199385 
L 391.191665 219.854769 
L 394.839469 218.636308 
L 398.487273 221.073231 
L 398.487273 221.073231 
L 398.487273 221.073231 
L 394.839469 218.636308 
L 391.191665 219.854769 
L 387.543861 216.199385 
L 383.896057 212.544 
L 380.248253 213.762462 
L 376.600449 201.577846 
L 372.952646 206.451692 
L 369.304842 216.199385 
L 365.657038 214.980923 
L 362.009234 218.636308 
L 358.36143 218.636308 
L 354.713626 219.854769 
L 351.065822 212.544 
L 347.418018 208.888615 
L 343.770215 208.888615 
L 340.122411 218.636308 
L 336.474607 221.073231 
L 332.826803 210.107077 
L 329.178999 210.107077 
L 325.531195 202.796308 
L 321.883391 218.636308 
L 318.235587 219.854769 
L 314.587783 210.107077 
L 310.93998 206.451692 
L 307.292176 212.544 
L 303.644372 218.636308 
L 299.996568 214.980923 
L 296.348764 218.636308 
L 292.70096 224.728615 
L 289.053156 211.325538 
L 285.405352 211.325538 
L 281.757549 204.014769 
L 278.109745 202.796308 
L 274.461941 216.199385 
L 270.814137 207.670154 
L 267.166333 197.922462 
L 263.518529 208.888615 
L 259.870725 213.762462 
L 256.222921 208.888615 
L 252.575117 218.636308 
L 248.927314 216.199385 
L 245.27951 214.980923 
L 241.631706 214.980923 
L 237.983902 213.762462 
L 234.336098 217.417846 
L 230.688294 218.636308 
L 227.04049 225.947077 
L 223.392686 218.636308 
L 219.744883 213.762462 
L 216.097079 223.510154 
L 212.449275 214.980923 
L 208.801471 217.417846 
L 205.153667 225.947077 
L 201.505863 224.728615 
L 197.858059 222.291692 
L 194.210255 213.762462 
L 190.562451 214.980923 
L 186.914648 212.544 
L 183.266844 234.476308 
L 179.61904 241.787077 
L 175.971236 234.476308 
L 172.323432 232.039385 
L 168.675628 232.039385 
L 165.027824 241.787077 
L 161.38002 250.316308 
L 157.732217 255.190154 
L 154.084413 261.282462 
L 150.436609 235.694769 
L 146.788805 227.165538 
L 143.141001 236.913231 
L 139.493197 229.602462 
L 135.845393 229.602462 
L 132.197589 214.980923 
L 128.549785 223.510154 
L 124.901982 241.787077 
L 121.254178 234.476308 
L 117.606374 236.913231 
L 113.95857 234.476308 
L 110.310766 234.476308 
L 106.662962 207.670154 
L 103.015158 227.165538 
L 99.367354 221.073231 
L 95.719551 244.224 
L 92.071747 255.190154 
L 88.423943 171.116308 
L 84.776139 235.694769 
L 81.128335 189.393231 
L 77.480531 171.116308 
L 73.832727 139.436308 
z
" clip-path="url(#p02e2570295)" style="fill: #d62728"/>
   </g>
   <g id="PolyCollection_5">
    <path d="M 73.832727 126.033231 
L 73.832727 139.436308 
L 77.480531 171.116308 
L 81.128335 189.393231 
L 84.776139 235.694769 
L 88.423943 171.116308 
L 92.071747 255.190154 
L 95.719551 244.224 
L 99.367354 221.073231 
L 103.015158 227.165538 
L 106.662962 207.670154 
L 110.310766 234.476308 
L 113.95857 234.476308 
L 117.606374 236.913231 
L 121.254178 234.476308 
L 124.901982 241.787077 
L 128.549785 223.510154 
L 132.197589 214.980923 
L 135.845393 229.602462 
L 139.493197 229.602462 
L 143.141001 236.913231 
L 146.788805 227.165538 
L 150.436609 235.694769 
L 154.084413 261.282462 
L 157.732217 255.190154 
L 161.38002 250.316308 
L 165.027824 241.787077 
L 168.675628 232.039385 
L 172.323432 232.039385 
L 175.971236 234.476308 
L 179.61904 241.787077 
L 183.266844 234.476308 
L 186.914648 212.544 
L 190.562451 214.980923 
L 194.210255 213.762462 
L 197.858059 222.291692 
L 201.505863 224.728615 
L 205.153667 225.947077 
L 208.801471 217.417846 
L 212.449275 214.980923 
L 216.097079 223.510154 
L 219.744883 213.762462 
L 223.392686 218.636308 
L 227.04049 225.947077 
L 230.688294 218.636308 
L 234.336098 217.417846 
L 237.983902 213.762462 
L 241.631706 214.980923 
L 245.27951 214.980923 
L 248.927314 216.199385 
L 252.575117 218.636308 
L 256.222921 208.888615 
L 259.870725 213.762462 
L 263.518529 208.888615 
L 267.166333 197.922462 
L 270.814137 207.670154 
L 274.461941 216.199385 
L 278.109745 202.796308 
L 281.757549 204.014769 
L 285.405352 211.325538 
L 289.053156 211.325538 
L 292.70096 224.728615 
L 296.348764 218.636308 
L 299.996568 214.980923 
L 303.644372 218.636308 
L 307.292176 212.544 
L 310.93998 206.451692 
L 314.587783 210.107077 
L 318.235587 219.854769 
L 321.883391 218.636308 
L 325.531195 202.796308 
L 329.178999 210.107077 
L 332.826803 210.107077 
L 336.474607 221.073231 
L 340.122411 218.636308 
L 343.770215 208.888615 
L 347.418018 208.888615 
L 351.065822 212.544 
L 354.713626 219.854769 
L 358.36143 218.636308 
L 362.009234 218.636308 
L 365.657038 214.980923 
L 369.304842 216.199385 
L 372.952646 206.451692 
L 376.600449 201.577846 
L 380.248253 213.762462 
L 383.896057 212.544 
L 387.543861 216.199385 
L 391.191665 219.854769 
L 394.839469 218.636308 
L 398.487273 221.073231 
L 398.487273 221.073231 
L 398.487273 221.073231 
L 394.839469 218.636308 
L 391.191665 219.854769 
L 387.543861 216.199385 
L 383.896057 212.544 
L 380.248253 213.762462 
L 376.600449 201.577846 
L 372.952646 206.451692 
L 369.304842 216.199385 
L 365.657038 214.980923 
L 362.009234 218.636308 
L 358.36143 218.636308 
L 354.713626 219.854769 
L 351.065822 212.544 
L 347.418018 208.888615 
L 343.770215 208.888615 
L 340.122411 218.636308 
L 336.474607 221.073231 
L 332.826803 210.107077 
L 329.178999 210.107077 
L 325.531195 202.796308 
L 321.883391 218.636308 
L 318.235587 219.854769 
L 314.587783 210.107077 
L 310.93998 206.451692 
L 307.292176 212.544 
L 303.644372 218.636308 
L 299.996568 214.980923 
L 296.348764 218.636308 
L 292.70096 224.728615 
L 289.053156 211.325538 
L 285.405352 211.325538 
L 281.757549 204.014769 
L 278.109745 202.796308 
L 274.461941 216.199385 
L 270.814137 207.670154 
L 267.166333 197.922462 
L 263.518529 208.888615 
L 259.870725 213.762462 
L 256.222921 208.888615 
L 252.575117 218.636308 
L 248.927314 216.199385 
L 245.27951 214.980923 
L 241.631706 214.980923 
L 237.983902 213.762462 
L 234.336098 217.417846 
L 230.688294 218.636308 
L 227.04049 225.947077 
L 223.392686 218.636308 
L 219.744883 213.762462 
L 216.097079 223.510154 
L 212.449275 214.980923 
L 208.801471 217.417846 
L 205.153667 225.947077 
L 201.505863 224.728615 
L 197.858059 222.291692 
L 194.210255 213.762462 
L 190.562451 214.980923 
L 186.914648 212.544 
L 183.266844 234.476308 
L 179.61904 241.787077 
L 175.971236 234.476308 
L 172.323432 232.039385 
L 168.675628 232.039385 
L 165.027824 241.787077 
L 161.38002 250.316308 
L 157.732217 255.190154 
L 154.084413 261.282462 
L 150.436609 210.107077 
L 146.788805 206.451692 
L 143.141001 213.762462 
L 139.493197 210.107077 
L 135.845393 210.107077 
L 132.197589 199.140923 
L 128.549785 205.233231 
L 124.901982 222.291692 
L 121.254178 213.762462 
L 117.606374 216.199385 
L 113.95857 216.199385 
L 110.310766 223.510154 
L 106.662962 190.611692 
L 103.015158 211.325538 
L 99.367354 206.451692 
L 95.719551 219.854769 
L 92.071747 235.694769 
L 88.423943 154.057846 
L 84.776139 202.796308 
L 81.128335 167.460923 
L 77.480531 147.965538 
L 73.832727 126.033231 
z
" clip-path="url(#p02e2570295)" style="fill: #9467bd"/>
   </g>
   <g id="PolyCollection_6">
    <path d="M 73.832727 93.134769 
L 73.832727 126.033231 
L 77.480531 147.965538 
L 81.128335 167.460923 
L 84.776139 202.796308 
L 88.423943 154.057846 
L 92.071747 235.694769 
L 95.719551 219.854769 
L 99.367354 206.451692 
L 103.015158 211.325538 
L 106.662962 190.611692 
L 110.310766 223.510154 
L 113.95857 216.199385 
L 117.606374 216.199385 
L 121.254178 213.762462 
L 124.901982 222.291692 
L 128.549785 205.233231 
L 132.197589 199.140923 
L 135.845393 210.107077 
L 139.493197 210.107077 
L 143.141001 213.762462 
L 146.788805 206.451692 
L 150.436609 210.107077 
L 154.084413 261.282462 
L 157.732217 255.190154 
L 161.38002 250.316308 
L 165.027824 241.787077 
L 168.675628 232.039385 
L 172.323432 232.039385 
L 175.971236 234.476308 
L 179.61904 241.787077 
L 183.266844 234.476308 
L 186.914648 212.544 
L 190.562451 214.980923 
L 194.210255 213.762462 
L 197.858059 222.291692 
L 201.505863 224.728615 
L 205.153667 225.947077 
L 208.801471 217.417846 
L 212.449275 214.980923 
L 216.097079 223.510154 
L 219.744883 213.762462 
L 223.392686 218.636308 
L 227.04049 225.947077 
L 230.688294 218.636308 
L 234.336098 217.417846 
L 237.983902 213.762462 
L 241.631706 214.980923 
L 245.27951 214.980923 
L 248.927314 216.199385 
L 252.575117 218.636308 
L 256.222921 208.888615 
L 259.870725 213.762462 
L 263.518529 208.888615 
L 267.166333 197.922462 
L 270.814137 207.670154 
L 274.461941 216.199385 
L 278.109745 202.796308 
L 281.757549 204.014769 
L 285.405352 211.325538 
L 289.053156 211.325538 
L 292.70096 224.728615 
L 296.348764 218.636308 
L 299.996568 214.980923 
L 303.644372 218.636308 
L 307.292176 212.544 
L 310.93998 206.451692 
L 314.587783 210.107077 
L 318.235587 219.854769 
L 321.883391 218.636308 
L 325.531195 202.796308 
L 329.178999 210.107077 
L 332.826803 210.107077 
L 336.474607 221.073231 
L 340.122411 218.636308 
L 343.770215 208.888615 
L 347.418018 208.888615 
L 351.065822 212.544 
L 354.713626 219.854769 
L 358.36143 218.636308 
L 362.009234 218.636308 
L 365.657038 214.980923 
L 369.304842 216.199385 
L 372.952646 206.451692 
L 376.600449 201.577846 
L 380.248253 213.762462 
L 383.896057 212.544 
L 387.543861 216.199385 
L 391.191665 219.854769 
L 394.839469 218.636308 
L 398.487273 221.073231 
L 398.487273 221.073231 
L 398.487273 221.073231 
L 394.839469 218.636308 
L 391.191665 219.854769 
L 387.543861 216.199385 
L 383.896057 212.544 
L 380.248253 213.762462 
L 376.600449 201.577846 
L 372.952646 206.451692 
L 369.304842 216.199385 
L 365.657038 214.980923 
L 362.009234 218.636308 
L 358.36143 218.636308 
L 354.713626 219.854769 
L 351.065822 212.544 
L 347.418018 208.888615 
L 343.770215 208.888615 
L 340.122411 218.636308 
L 336.474607 221.073231 
L 332.826803 210.107077 
L 329.178999 210.107077 
L 325.531195 202.796308 
L 321.883391 218.636308 
L 318.235587 219.854769 
L 314.587783 210.107077 
L 310.93998 206.451692 
L 307.292176 212.544 
L 303.644372 218.636308 
L 299.996568 214.980923 
L 296.348764 218.636308 
L 292.70096 224.728615 
L 289.053156 211.325538 
L 285.405352 211.325538 
L 281.757549 204.014769 
L 278.109745 202.796308 
L 274.461941 216.199385 
L 270.814137 207.670154 
L 267.166333 197.922462 
L 263.518529 208.888615 
L 259.870725 213.762462 
L 256.222921 208.888615 
L 252.575117 218.636308 
L 248.927314 216.199385 
L 245.27951 214.980923 
L 241.631706 214.980923 
L 237.983902 213.762462 
L 234.336098 217.417846 
L 230.688294 218.636308 
L 227.04049 225.947077 
L 223.392686 218.636308 
L 219.744883 213.762462 
L 216.097079 223.510154 
L 212.449275 214.980923 
L 208.801471 217.417846 
L 205.153667 225.947077 
L 201.505863 224.728615 
L 197.858059 222.291692 
L 194.210255 213.762462 
L 190.562451 214.980923 
L 186.914648 212.544 
L 183.266844 234.476308 
L 179.61904 241.787077 
L 175.971236 234.476308 
L 172.323432 232.039385 
L 168.675628 232.039385 
L 165.027824 241.787077 
L 161.38002 250.316308 
L 157.732217 225.947077 
L 154.084413 235.694769 
L 150.436609 196.704 
L 146.788805 193.048615 
L 143.141001 199.140923 
L 139.493197 200.359385 
L 135.845393 201.577846 
L 132.197589 184.519385 
L 128.549785 184.519385 
L 124.901982 206.451692 
L 121.254178 200.359385 
L 117.606374 195.485538 
L 113.95857 191.830154 
L 110.310766 207.670154 
L 106.662962 178.427077 
L 103.015158 200.359385 
L 99.367354 190.611692 
L 95.719551 208.888615 
L 92.071747 174.771692 
L 88.423943 149.184 
L 84.776139 145.528615 
L 81.128335 140.654769 
L 77.480531 122.377846 
L 73.832727 93.134769 
z
" clip-path="url(#p02e2570295)" style="fill: #8c564b"/>
   </g>
   <g id="PolyCollection_7">
    <path d="M 73.832727 91.916308 
L 73.832727 93.134769 
L 77.480531 122.377846 
L 81.128335 140.654769 
L 84.776139 145.528615 
L 88.423943 149.184 
L 92.071747 174.771692 
L 95.719551 208.888615 
L 99.367354 190.611692 
L 103.015158 200.359385 
L 106.662962 178.427077 
L 110.310766 207.670154 
L 113.95857 191.830154 
L 117.606374 195.485538 
L 121.254178 200.359385 
L 124.901982 206.451692 
L 128.549785 184.519385 
L 132.197589 184.519385 
L 135.845393 201.577846 
L 139.493197 200.359385 
L 143.141001 199.140923 
L 146.788805 193.048615 
L 150.436609 196.704 
L 154.084413 235.694769 
L 157.732217 225.947077 
L 161.38002 250.316308 
L 165.027824 241.787077 
L 168.675628 232.039385 
L 172.323432 232.039385 
L 175.971236 234.476308 
L 179.61904 241.787077 
L 183.266844 234.476308 
L 186.914648 212.544 
L 190.562451 214.980923 
L 194.210255 213.762462 
L 197.858059 222.291692 
L 201.505863 224.728615 
L 205.153667 225.947077 
L 208.801471 217.417846 
L 212.449275 214.980923 
L 216.097079 223.510154 
L 219.744883 213.762462 
L 223.392686 218.636308 
L 227.04049 225.947077 
L 230.688294 218.636308 
L 234.336098 217.417846 
L 237.983902 213.762462 
L 241.631706 214.980923 
L 245.27951 214.980923 
L 248.927314 216.199385 
L 252.575117 218.636308 
L 256.222921 208.888615 
L 259.870725 213.762462 
L 263.518529 208.888615 
L 267.166333 197.922462 
L 270.814137 207.670154 
L 274.461941 216.199385 
L 278.109745 202.796308 
L 281.757549 204.014769 
L 285.405352 211.325538 
L 289.053156 211.325538 
L 292.70096 224.728615 
L 296.348764 218.636308 
L 299.996568 214.980923 
L 303.644372 218.636308 
L 307.292176 212.544 
L 310.93998 206.451692 
L 314.587783 210.107077 
L 318.235587 219.854769 
L 321.883391 218.636308 
L 325.531195 202.796308 
L 329.178999 210.107077 
L 332.826803 210.107077 
L 336.474607 221.073231 
L 340.122411 218.636308 
L 343.770215 208.888615 
L 347.418018 208.888615 
L 351.065822 212.544 
L 354.713626 219.854769 
L 358.36143 218.636308 
L 362.009234 218.636308 
L 365.657038 214.980923 
L 369.304842 216.199385 
L 372.952646 206.451692 
L 376.600449 201.577846 
L 380.248253 213.762462 
L 383.896057 212.544 
L 387.543861 216.199385 
L 391.191665 219.854769 
L 394.839469 218.636308 
L 398.487273 221.073231 
L 398.487273 221.073231 
L 398.487273 221.073231 
L 394.839469 218.636308 
L 391.191665 219.854769 
L 387.543861 216.199385 
L 383.896057 212.544 
L 380.248253 213.762462 
L 376.600449 201.577846 
L 372.952646 206.451692 
L 369.304842 216.199385 
L 365.657038 214.980923 
L 362.009234 218.636308 
L 358.36143 218.636308 
L 354.713626 219.854769 
L 351.065822 212.544 
L 347.418018 208.888615 
L 343.770215 208.888615 
L 340.122411 218.636308 
L 336.474607 221.073231 
L 332.826803 210.107077 
L 329.178999 210.107077 
L 325.531195 202.796308 
L 321.883391 218.636308 
L 318.235587 219.854769 
L 314.587783 210.107077 
L 310.93998 206.451692 
L 307.292176 212.544 
L 303.644372 218.636308 
L 299.996568 214.980923 
L 296.348764 218.636308 
L 292.70096 224.728615 
L 289.053156 211.325538 
L 285.405352 211.325538 
L 281.757549 204.014769 
L 278.109745 202.796308 
L 274.461941 216.199385 
L 270.814137 207.670154 
L 267.166333 197.922462 
L 263.518529 208.888615 
L 259.870725 213.762462 
L 256.222921 208.888615 
L 252.575117 218.636308 
L 248.927314 216.199385 
L 245.27951 214.980923 
L 241.631706 214.980923 
L 237.983902 213.762462 
L 234.336098 217.417846 
L 230.688294 218.636308 
L 227.04049 225.947077 
L 223.392686 218.636308 
L 219.744883 213.762462 
L 216.097079 223.510154 
L 212.449275 214.980923 
L 208.801471 217.417846 
L 205.153667 225.947077 
L 201.505863 224.728615 
L 197.858059 222.291692 
L 194.210255 213.762462 
L 190.562451 214.980923 
L 186.914648 212.544 
L 183.266844 234.476308 
L 179.61904 241.787077 
L 175.971236 234.476308 
L 172.323432 232.039385 
L 168.675628 232.039385 
L 165.027824 241.787077 
L 161.38002 250.316308 
L 157.732217 197.922462 
L 154.084413 218.636308 
L 150.436609 184.519385 
L 146.788805 182.082462 
L 143.141001 188.174769 
L 139.493197 188.174769 
L 135.845393 190.611692 
L 132.197589 177.208615 
L 128.549785 172.334769 
L 124.901982 194.267077 
L 121.254178 184.519385 
L 117.606374 182.082462 
L 113.95857 178.427077 
L 110.310766 195.485538 
L 106.662962 169.897846 
L 103.015158 186.956308 
L 99.367354 182.082462 
L 95.719551 193.048615 
L 92.071747 161.368615 
L 88.423943 136.999385 
L 84.776139 130.907077 
L 81.128335 129.688615 
L 77.480531 110.193231 
L 73.832727 91.916308 
z
" clip-path="url(#p02e2570295)" style="fill: #e377c2"/>
   </g>
   <g id="PolyCollection_8">
    <path d="M 73.832727 82.168615 
L 73.832727 91.916308 
L 77.480531 110.193231 
L 81.128335 129.688615 
L 84.776139 130.907077 
L 88.423943 136.999385 
L 92.071747 161.368615 
L 95.719551 193.048615 
L 99.367354 182.082462 
L 103.015158 186.956308 
L 106.662962 169.897846 
L 110.310766 195.485538 
L 113.95857 178.427077 
L 117.606374 182.082462 
L 121.254178 184.519385 
L 124.901982 194.267077 
L 128.549785 172.334769 
L 132.197589 177.208615 
L 135.845393 190.611692 
L 139.493197 188.174769 
L 143.141001 188.174769 
L 146.788805 182.082462 
L 150.436609 184.519385 
L 154.084413 218.636308 
L 157.732217 197.922462 
L 161.38002 250.316308 
L 165.027824 241.787077 
L 168.675628 232.039385 
L 172.323432 232.039385 
L 175.971236 234.476308 
L 179.61904 241.787077 
L 183.266844 234.476308 
L 186.914648 212.544 
L 190.562451 214.980923 
L 194.210255 213.762462 
L 197.858059 222.291692 
L 201.505863 224.728615 
L 205.153667 225.947077 
L 208.801471 217.417846 
L 212.449275 214.980923 
L 216.097079 223.510154 
L 219.744883 213.762462 
L 223.392686 218.636308 
L 227.04049 225.947077 
L 230.688294 218.636308 
L 234.336098 217.417846 
L 237.983902 213.762462 
L 241.631706 214.980923 
L 245.27951 214.980923 
L 248.927314 216.199385 
L 252.575117 218.636308 
L 256.222921 208.888615 
L 259.870725 213.762462 
L 263.518529 208.888615 
L 267.166333 197.922462 
L 270.814137 207.670154 
L 274.461941 216.199385 
L 278.109745 202.796308 
L 281.757549 204.014769 
L 285.405352 211.325538 
L 289.053156 211.325538 
L 292.70096 224.728615 
L 296.348764 218.636308 
L 299.996568 214.980923 
L 303.644372 218.636308 
L 307.292176 212.544 
L 310.93998 206.451692 
L 314.587783 210.107077 
L 318.235587 219.854769 
L 321.883391 218.636308 
L 325.531195 202.796308 
L 329.178999 210.107077 
L 332.826803 210.107077 
L 336.474607 221.073231 
L 340.122411 218.636308 
L 343.770215 208.888615 
L 347.418018 208.888615 
L 351.065822 212.544 
L 354.713626 219.854769 
L 358.36143 218.636308 
L 362.009234 218.636308 
L 365.657038 214.980923 
L 369.304842 216.199385 
L 372.952646 206.451692 
L 376.600449 201.577846 
L 380.248253 213.762462 
L 383.896057 212.544 
L 387.543861 216.199385 
L 391.191665 219.854769 
L 394.839469 218.636308 
L 398.487273 221.073231 
L 398.487273 221.073231 
L 398.487273 221.073231 
L 394.839469 218.636308 
L 391.191665 219.854769 
L 387.543861 216.199385 
L 383.896057 212.544 
L 380.248253 213.762462 
L 376.600449 201.577846 
L 372.952646 206.451692 
L 369.304842 216.199385 
L 365.657038 214.980923 
L 362.009234 218.636308 
L 358.36143 218.636308 
L 354.713626 219.854769 
L 351.065822 212.544 
L 347.418018 208.888615 
L 343.770215 208.888615 
L 340.122411 218.636308 
L 336.474607 221.073231 
L 332.826803 210.107077 
L 329.178999 210.107077 
L 325.531195 202.796308 
L 321.883391 218.636308 
L 318.235587 219.854769 
L 314.587783 210.107077 
L 310.93998 206.451692 
L 307.292176 212.544 
L 303.644372 218.636308 
L 299.996568 214.980923 
L 296.348764 218.636308 
L 292.70096 224.728615 
L 289.053156 211.325538 
L 285.405352 211.325538 
L 281.757549 204.014769 
L 278.109745 202.796308 
L 274.461941 216.199385 
L 270.814137 207.670154 
L 267.166333 197.922462 
L 263.518529 208.888615 
L 259.870725 213.762462 
L 256.222921 208.888615 
L 252.575117 218.636308 
L 248.927314 216.199385 
L 245.27951 214.980923 
L 241.631706 214.980923 
L 237.983902 213.762462 
L 234.336098 217.417846 
L 230.688294 218.636308 
L 227.04049 225.947077 
L 223.392686 218.636308 
L 219.744883 213.762462 
L 216.097079 223.510154 
L 212.449275 214.980923 
L 208.801471 217.417846 
L 205.153667 225.947077 
L 201.505863 224.728615 
L 197.858059 222.291692 
L 194.210255 213.762462 
L 190.562451 214.980923 
L 186.914648 212.544 
L 183.266844 234.476308 
L 179.61904 241.787077 
L 175.971236 234.476308 
L 172.323432 232.039385 
L 168.675628 232.039385 
L 165.027824 241.787077 
L 161.38002 250.316308 
L 157.732217 197.922462 
L 154.084413 204.014769 
L 150.436609 174.771692 
L 146.788805 169.897846 
L 143.141001 177.208615 
L 139.493197 177.208615 
L 135.845393 177.208615 
L 132.197589 162.587077 
L 128.549785 158.931692 
L 124.901982 180.864 
L 121.254178 172.334769 
L 117.606374 173.553231 
L 113.95857 165.024 
L 110.310766 177.208615 
L 106.662962 161.368615 
L 103.015158 171.116308 
L 99.367354 167.460923 
L 95.719551 182.082462 
L 92.071747 151.620923 
L 88.423943 119.940923 
L 84.776139 115.067077 
L 81.128335 117.504 
L 77.480531 102.882462 
L 73.832727 82.168615 
z
" clip-path="url(#p02e2570295)" style="fill: #7f7f7f"/>
   </g>
   <g id="PolyCollection_9">
    <path d="M 73.832727 69.984 
L 73.832727 82.168615 
L 77.480531 102.882462 
L 81.128335 117.504 
L 84.776139 115.067077 
L 88.423943 119.940923 
L 92.071747 151.620923 
L 95.719551 182.082462 
L 99.367354 167.460923 
L 103.015158 171.116308 
L 106.662962 161.368615 
L 110.310766 177.208615 
L 113.95857 165.024 
L 117.606374 173.553231 
L 121.254178 172.334769 
L 124.901982 180.864 
L 128.549785 158.931692 
L 132.197589 162.587077 
L 135.845393 177.208615 
L 139.493197 177.208615 
L 143.141001 177.208615 
L 146.788805 169.897846 
L 150.436609 174.771692 
L 154.084413 204.014769 
L 157.732217 197.922462 
L 161.38002 250.316308 
L 165.027824 241.787077 
L 168.675628 232.039385 
L 172.323432 232.039385 
L 175.971236 234.476308 
L 179.61904 241.787077 
L 183.266844 234.476308 
L 186.914648 212.544 
L 190.562451 214.980923 
L 194.210255 213.762462 
L 197.858059 222.291692 
L 201.505863 224.728615 
L 205.153667 225.947077 
L 208.801471 217.417846 
L 212.449275 214.980923 
L 216.097079 223.510154 
L 219.744883 213.762462 
L 223.392686 218.636308 
L 227.04049 225.947077 
L 230.688294 218.636308 
L 234.336098 217.417846 
L 237.983902 213.762462 
L 241.631706 214.980923 
L 245.27951 214.980923 
L 248.927314 216.199385 
L 252.575117 218.636308 
L 256.222921 208.888615 
L 259.870725 213.762462 
L 263.518529 208.888615 
L 267.166333 197.922462 
L 270.814137 207.670154 
L 274.461941 216.199385 
L 278.109745 202.796308 
L 281.757549 204.014769 
L 285.405352 211.325538 
L 289.053156 211.325538 
L 292.70096 224.728615 
L 296.348764 218.636308 
L 299.996568 214.980923 
L 303.644372 218.636308 
L 307.292176 212.544 
L 310.93998 206.451692 
L 314.587783 210.107077 
L 318.235587 219.854769 
L 321.883391 218.636308 
L 325.531195 202.796308 
L 329.178999 210.107077 
L 332.826803 210.107077 
L 336.474607 221.073231 
L 340.122411 218.636308 
L 343.770215 208.888615 
L 347.418018 208.888615 
L 351.065822 212.544 
L 354.713626 219.854769 
L 358.36143 218.636308 
L 362.009234 218.636308 
L 365.657038 214.980923 
L 369.304842 216.199385 
L 372.952646 206.451692 
L 376.600449 201.577846 
L 380.248253 213.762462 
L 383.896057 212.544 
L 387.543861 216.199385 
L 391.191665 219.854769 
L 394.839469 218.636308 
L 398.487273 221.073231 
L 398.487273 221.073231 
L 398.487273 221.073231 
L 394.839469 218.636308 
L 391.191665 219.854769 
L 387.543861 216.199385 
L 383.896057 212.544 
L 380.248253 213.762462 
L 376.600449 201.577846 
L 372.952646 206.451692 
L 369.304842 216.199385 
L 365.657038 214.980923 
L 362.009234 218.636308 
L 358.36143 218.636308 
L 354.713626 219.854769 
L 351.065822 212.544 
L 347.418018 208.888615 
L 343.770215 208.888615 
L 340.122411 218.636308 
L 336.474607 221.073231 
L 332.826803 210.107077 
L 329.178999 210.107077 
L 325.531195 202.796308 
L 321.883391 218.636308 
L 318.235587 219.854769 
L 314.587783 210.107077 
L 310.93998 206.451692 
L 307.292176 212.544 
L 303.644372 218.636308 
L 299.996568 214.980923 
L 296.348764 218.636308 
L 292.70096 224.728615 
L 289.053156 211.325538 
L 285.405352 211.325538 
L 281.757549 204.014769 
L 278.109745 202.796308 
L 274.461941 216.199385 
L 270.814137 207.670154 
L 267.166333 197.922462 
L 263.518529 208.888615 
L 259.870725 213.762462 
L 256.222921 208.888615 
L 252.575117 218.636308 
L 248.927314 216.199385 
L 245.27951 214.980923 
L 241.631706 214.980923 
L 237.983902 213.762462 
L 234.336098 217.417846 
L 230.688294 218.636308 
L 227.04049 225.947077 
L 223.392686 218.636308 
L 219.744883 213.762462 
L 216.097079 223.510154 
L 212.449275 214.980923 
L 208.801471 217.417846 
L 205.153667 225.947077 
L 201.505863 224.728615 
L 197.858059 222.291692 
L 194.210255 213.762462 
L 190.562451 214.980923 
L 186.914648 212.544 
L 183.266844 234.476308 
L 179.61904 241.787077 
L 175.971236 234.476308 
L 172.323432 232.039385 
L 168.675628 232.039385 
L 165.027824 241.787077 
L 161.38002 250.316308 
L 157.732217 197.922462 
L 154.084413 188.174769 
L 150.436609 157.713231 
L 146.788805 154.057846 
L 143.141001 161.368615 
L 139.493197 161.368615 
L 135.845393 160.150154 
L 132.197589 146.747077 
L 128.549785 141.873231 
L 124.901982 163.805538 
L 121.254178 162.587077 
L 117.606374 157.713231 
L 113.95857 149.184 
L 110.310766 158.931692 
L 106.662962 145.528615 
L 103.015158 154.057846 
L 99.367354 151.620923 
L 95.719551 162.587077 
L 92.071747 132.125538 
L 88.423943 105.319385 
L 84.776139 96.790154 
L 81.128335 95.571692 
L 77.480531 88.260923 
L 73.832727 69.984 
z
" clip-path="url(#p02e2570295)" style="fill: #bcbd22"/>
   </g>
   <g id="PolyCollection_10">
    <path d="M 73.832727 67.547077 
L 73.832727 69.984 
L 77.480531 88.260923 
L 81.128335 95.571692 
L 84.776139 96.790154 
L 88.423943 105.319385 
L 92.071747 132.125538 
L 95.719551 162.587077 
L 99.367354 151.620923 
L 103.015158 154.057846 
L 106.662962 145.528615 
L 110.310766 158.931692 
L 113.95857 149.184 
L 117.606374 157.713231 
L 121.254178 162.587077 
L 124.901982 163.805538 
L 128.549785 141.873231 
L 132.197589 146.747077 
L 135.845393 160.150154 
L 139.493197 161.368615 
L 143.141001 161.368615 
L 146.788805 154.057846 
L 150.436609 157.713231 
L 154.084413 188.174769 
L 157.732217 197.922462 
L 161.38002 250.316308 
L 165.027824 241.787077 
L 168.675628 232.039385 
L 172.323432 232.039385 
L 175.971236 234.476308 
L 179.61904 241.787077 
L 183.266844 234.476308 
L 186.914648 212.544 
L 190.562451 214.980923 
L 194.210255 213.762462 
L 197.858059 222.291692 
L 201.505863 224.728615 
L 205.153667 225.947077 
L 208.801471 217.417846 
L 212.449275 214.980923 
L 216.097079 223.510154 
L 219.744883 213.762462 
L 223.392686 218.636308 
L 227.04049 225.947077 
L 230.688294 218.636308 
L 234.336098 217.417846 
L 237.983902 213.762462 
L 241.631706 214.980923 
L 245.27951 214.980923 
L 248.927314 216.199385 
L 252.575117 218.636308 
L 256.222921 208.888615 
L 259.870725 213.762462 
L 263.518529 208.888615 
L 267.166333 197.922462 
L 270.814137 207.670154 
L 274.461941 216.199385 
L 278.109745 202.796308 
L 281.757549 204.014769 
L 285.405352 211.325538 
L 289.053156 211.325538 
L 292.70096 224.728615 
L 296.348764 218.636308 
L 299.996568 214.980923 
L 303.644372 218.636308 
L 307.292176 212.544 
L 310.93998 206.451692 
L 314.587783 210.107077 
L 318.235587 219.854769 
L 321.883391 218.636308 
L 325.531195 202.796308 
L 329.178999 210.107077 
L 332.826803 210.107077 
L 336.474607 221.073231 
L 340.122411 218.636308 
L 343.770215 208.888615 
L 347.418018 208.888615 
L 351.065822 212.544 
L 354.713626 219.854769 
L 358.36143 218.636308 
L 362.009234 218.636308 
L 365.657038 214.980923 
L 369.304842 216.199385 
L 372.952646 206.451692 
L 376.600449 201.577846 
L 380.248253 213.762462 
L 383.896057 212.544 
L 387.543861 216.199385 
L 391.191665 219.854769 
L 394.839469 218.636308 
L 398.487273 221.073231 
L 398.487273 221.073231 
L 398.487273 221.073231 
L 394.839469 218.636308 
L 391.191665 219.854769 
L 387.543861 216.199385 
L 383.896057 212.544 
L 380.248253 213.762462 
L 376.600449 201.577846 
L 372.952646 206.451692 
L 369.304842 216.199385 
L 365.657038 214.980923 
L 362.009234 218.636308 
L 358.36143 218.636308 
L 354.713626 219.854769 
L 351.065822 212.544 
L 347.418018 208.888615 
L 343.770215 208.888615 
L 340.122411 218.636308 
L 336.474607 221.073231 
L 332.826803 210.107077 
L 329.178999 210.107077 
L 325.531195 202.796308 
L 321.883391 218.636308 
L 318.235587 219.854769 
L 314.587783 210.107077 
L 310.93998 206.451692 
L 307.292176 212.544 
L 303.644372 218.636308 
L 299.996568 214.980923 
L 296.348764 218.636308 
L 292.70096 224.728615 
L 289.053156 211.325538 
L 285.405352 211.325538 
L 281.757549 204.014769 
L 278.109745 202.796308 
L 274.461941 216.199385 
L 270.814137 207.670154 
L 267.166333 197.922462 
L 263.518529 208.888615 
L 259.870725 213.762462 
L 256.222921 208.888615 
L 252.575117 218.636308 
L 248.927314 216.199385 
L 245.27951 214.980923 
L 241.631706 214.980923 
L 237.983902 213.762462 
L 234.336098 217.417846 
L 230.688294 218.636308 
L 227.04049 225.947077 
L 223.392686 218.636308 
L 219.744883 213.762462 
L 216.097079 223.510154 
L 212.449275 214.980923 
L 208.801471 217.417846 
L 205.153667 225.947077 
L 201.505863 224.728615 
L 197.858059 222.291692 
L 194.210255 213.762462 
L 190.562451 214.980923 
L 186.914648 212.544 
L 183.266844 234.476308 
L 179.61904 241.787077 
L 175.971236 234.476308 
L 172.323432 232.039385 
L 168.675628 232.039385 
L 165.027824 241.787077 
L 161.38002 250.316308 
L 157.732217 197.922462 
L 154.084413 169.897846 
L 150.436609 141.873231 
L 146.788805 138.217846 
L 143.141001 145.528615 
L 139.493197 151.620923 
L 135.845393 145.528615 
L 132.197589 136.999385 
L 128.549785 127.251692 
L 124.901982 150.402462 
L 121.254178 149.184 
L 117.606374 144.310154 
L 113.95857 135.780923 
L 110.310766 141.873231 
L 106.662962 129.688615 
L 103.015158 140.654769 
L 99.367354 141.873231 
L 95.719551 150.402462 
L 92.071747 123.596308 
L 88.423943 98.008615 
L 84.776139 84.605538 
L 81.128335 80.950154 
L 77.480531 78.513231 
L 73.832727 67.547077 
z
" clip-path="url(#p02e2570295)" style="fill: #17becf"/>
   </g>
   <g id="PolyCollection_11">
    <path d="M 73.832727 63.891692 
L 73.832727 67.547077 
L 77.480531 78.513231 
L 81.128335 80.950154 
L 84.776139 84.605538 
L 88.423943 98.008615 
L 92.071747 123.596308 
L 95.719551 150.402462 
L 99.367354 141.873231 
L 103.015158 140.654769 
L 106.662962 129.688615 
L 110.310766 141.873231 
L 113.95857 135.780923 
L 117.606374 144.310154 
L 121.254178 149.184 
L 124.901982 150.402462 
L 128.549785 127.251692 
L 132.197589 136.999385 
L 135.845393 145.528615 
L 139.493197 151.620923 
L 143.141001 145.528615 
L 146.788805 138.217846 
L 150.436609 141.873231 
L 154.084413 169.897846 
L 157.732217 197.922462 
L 161.38002 250.316308 
L 165.027824 241.787077 
L 168.675628 232.039385 
L 172.323432 232.039385 
L 175.971236 234.476308 
L 179.61904 241.787077 
L 183.266844 234.476308 
L 186.914648 212.544 
L 190.562451 214.980923 
L 194.210255 213.762462 
L 197.858059 222.291692 
L 201.505863 224.728615 
L 205.153667 225.947077 
L 208.801471 217.417846 
L 212.449275 214.980923 
L 216.097079 223.510154 
L 219.744883 213.762462 
L 223.392686 218.636308 
L 227.04049 225.947077 
L 230.688294 218.636308 
L 234.336098 217.417846 
L 237.983902 213.762462 
L 241.631706 214.980923 
L 245.27951 214.980923 
L 248.927314 216.199385 
L 252.575117 218.636308 
L 256.222921 208.888615 
L 259.870725 213.762462 
L 263.518529 208.888615 
L 267.166333 197.922462 
L 270.814137 207.670154 
L 274.461941 216.199385 
L 278.109745 202.796308 
L 281.757549 204.014769 
L 285.405352 211.325538 
L 289.053156 211.325538 
L 292.70096 224.728615 
L 296.348764 218.636308 
L 299.996568 214.980923 
L 303.644372 218.636308 
L 307.292176 212.544 
L 310.93998 206.451692 
L 314.587783 210.107077 
L 318.235587 219.854769 
L 321.883391 218.636308 
L 325.531195 202.796308 
L 329.178999 210.107077 
L 332.826803 210.107077 
L 336.474607 221.073231 
L 340.122411 218.636308 
L 343.770215 208.888615 
L 347.418018 208.888615 
L 351.065822 212.544 
L 354.713626 219.854769 
L 358.36143 218.636308 
L 362.009234 218.636308 
L 365.657038 214.980923 
L 369.304842 216.199385 
L 372.952646 206.451692 
L 376.600449 201.577846 
L 380.248253 213.762462 
L 383.896057 212.544 
L 387.543861 216.199385 
L 391.191665 219.854769 
L 394.839469 218.636308 
L 398.487273 221.073231 
L 398.487273 221.073231 
L 398.487273 221.073231 
L 394.839469 218.636308 
L 391.191665 219.854769 
L 387.543861 216.199385 
L 383.896057 212.544 
L 380.248253 213.762462 
L 376.600449 201.577846 
L 372.952646 206.451692 
L 369.304842 216.199385 
L 365.657038 214.980923 
L 362.009234 218.636308 
L 358.36143 218.636308 
L 354.713626 219.854769 
L 351.065822 212.544 
L 347.418018 208.888615 
L 343.770215 208.888615 
L 340.122411 218.636308 
L 336.474607 221.073231 
L 332.826803 210.107077 
L 329.178999 210.107077 
L 325.531195 202.796308 
L 321.883391 218.636308 
L 318.235587 219.854769 
L 314.587783 210.107077 
L 310.93998 206.451692 
L 307.292176 212.544 
L 303.644372 218.636308 
L 299.996568 214.980923 
L 296.348764 218.636308 
L 292.70096 224.728615 
L 289.053156 211.325538 
L 285.405352 211.325538 
L 281.757549 204.014769 
L 278.109745 202.796308 
L 274.461941 216.199385 
L 270.814137 207.670154 
L 267.166333 197.922462 
L 263.518529 208.888615 
L 259.870725 213.762462 
L 256.222921 208.888615 
L 252.575117 218.636308 
L 248.927314 216.199385 
L 245.27951 214.980923 
L 241.631706 214.980923 
L 237.983902 213.762462 
L 234.336098 217.417846 
L 230.688294 218.636308 
L 227.04049 225.947077 
L 223.392686 218.636308 
L 219.744883 213.762462 
L 216.097079 223.510154 
L 212.449275 214.980923 
L 208.801471 217.417846 
L 205.153667 225.947077 
L 201.505863 224.728615 
L 197.858059 222.291692 
L 194.210255 213.762462 
L 190.562451 214.980923 
L 186.914648 212.544 
L 183.266844 234.476308 
L 179.61904 241.787077 
L 175.971236 234.476308 
L 172.323432 232.039385 
L 168.675628 232.039385 
L 165.027824 241.787077 
L 161.38002 214.980923 
L 157.732217 173.553231 
L 154.084413 147.965538 
L 150.436609 124.814769 
L 146.788805 126.033231 
L 143.141001 124.814769 
L 139.493197 127.251692 
L 135.845393 117.504 
L 132.197589 111.411692 
L 128.549785 111.411692 
L 124.901982 123.596308 
L 121.254178 128.470154 
L 117.606374 124.814769 
L 113.95857 116.285538 
L 110.310766 117.504 
L 106.662962 115.067077 
L 103.015158 108.974769 
L 99.367354 112.630154 
L 95.719551 128.470154 
L 92.071747 113.848615 
L 88.423943 89.479385 
L 84.776139 76.076308 
L 81.128335 66.328615 
L 77.480531 65.110154 
L 73.832727 63.891692 
z
" clip-path="url(#p02e2570295)" style="fill: #1f77b4"/>
   </g>
   <g id="PolyCollection_12">
    <path d="M 73.832727 63.891692 
L 73.832727 63.891692 
L 77.480531 65.110154 
L 81.128335 66.328615 
L 84.776139 76.076308 
L 88.423943 89.479385 
L 92.071747 113.848615 
L 95.719551 128.470154 
L 99.367354 112.630154 
L 103.015158 108.974769 
L 106.662962 115.067077 
L 110.310766 117.504 
L 113.95857 116.285538 
L 117.606374 124.814769 
L 121.254178 128.470154 
L 124.901982 123.596308 
L 128.549785 111.411692 
L 132.197589 111.411692 
L 135.845393 117.504 
L 139.493197 127.251692 
L 143.141001 124.814769 
L 146.788805 126.033231 
L 150.436609 124.814769 
L 154.084413 147.965538 
L 157.732217 173.553231 
L 161.38002 214.980923 
L 165.027824 241.787077 
L 168.675628 232.039385 
L 172.323432 232.039385 
L 175.971236 234.476308 
L 179.61904 241.787077 
L 183.266844 234.476308 
L 186.914648 212.544 
L 190.562451 214.980923 
L 194.210255 213.762462 
L 197.858059 222.291692 
L 201.505863 224.728615 
L 205.153667 225.947077 
L 208.801471 217.417846 
L 212.449275 214.980923 
L 216.097079 223.510154 
L 219.744883 213.762462 
L 223.392686 218.636308 
L 227.04049 225.947077 
L 230.688294 218.636308 
L 234.336098 217.417846 
L 237.983902 213.762462 
L 241.631706 214.980923 
L 245.27951 214.980923 
L 248.927314 216.199385 
L 252.575117 218.636308 
L 256.222921 208.888615 
L 259.870725 213.762462 
L 263.518529 208.888615 
L 267.166333 197.922462 
L 270.814137 207.670154 
L 274.461941 216.199385 
L 278.109745 202.796308 
L 281.757549 204.014769 
L 285.405352 211.325538 
L 289.053156 211.325538 
L 292.70096 224.728615 
L 296.348764 218.636308 
L 299.996568 214.980923 
L 303.644372 218.636308 
L 307.292176 212.544 
L 310.93998 206.451692 
L 314.587783 210.107077 
L 318.235587 219.854769 
L 321.883391 218.636308 
L 325.531195 202.796308 
L 329.178999 210.107077 
L 332.826803 210.107077 
L 336.474607 221.073231 
L 340.122411 218.636308 
L 343.770215 208.888615 
L 347.418018 208.888615 
L 351.065822 212.544 
L 354.713626 219.854769 
L 358.36143 218.636308 
L 362.009234 218.636308 
L 365.657038 214.980923 
L 369.304842 216.199385 
L 372.952646 206.451692 
L 376.600449 201.577846 
L 380.248253 213.762462 
L 383.896057 212.544 
L 387.543861 216.199385 
L 391.191665 219.854769 
L 394.839469 218.636308 
L 398.487273 221.073231 
L 398.487273 221.073231 
L 398.487273 221.073231 
L 394.839469 218.636308 
L 391.191665 219.854769 
L 387.543861 216.199385 
L 383.896057 212.544 
L 380.248253 213.762462 
L 376.600449 201.577846 
L 372.952646 206.451692 
L 369.304842 216.199385 
L 365.657038 214.980923 
L 362.009234 218.636308 
L 358.36143 218.636308 
L 354.713626 219.854769 
L 351.065822 212.544 
L 347.418018 208.888615 
L 343.770215 208.888615 
L 340.122411 218.636308 
L 336.474607 221.073231 
L 332.826803 210.107077 
L 329.178999 210.107077 
L 325.531195 202.796308 
L 321.883391 218.636308 
L 318.235587 219.854769 
L 314.587783 210.107077 
L 310.93998 206.451692 
L 307.292176 212.544 
L 303.644372 218.636308 
L 299.996568 214.980923 
L 296.348764 218.636308 
L 292.70096 224.728615 
L 289.053156 211.325538 
L 285.405352 211.325538 
L 281.757549 204.014769 
L 278.109745 202.796308 
L 274.461941 216.199385 
L 270.814137 207.670154 
L 267.166333 197.922462 
L 263.518529 208.888615 
L 259.870725 213.762462 
L 256.222921 208.888615 
L 252.575117 218.636308 
L 248.927314 216.199385 
L 245.27951 214.980923 
L 241.631706 214.980923 
L 237.983902 213.762462 
L 234.336098 217.417846 
L 230.688294 218.636308 
L 227.04049 225.947077 
L 223.392686 218.636308 
L 219.744883 213.762462 
L 216.097079 223.510154 
L 212.449275 214.980923 
L 208.801471 217.417846 
L 205.153667 225.947077 
L 201.505863 224.728615 
L 197.858059 222.291692 
L 194.210255 213.762462 
L 190.562451 214.980923 
L 186.914648 212.544 
L 183.266844 234.476308 
L 179.61904 241.787077 
L 175.971236 234.476308 
L 172.323432 232.039385 
L 168.675628 232.039385 
L 165.027824 241.787077 
L 161.38002 166.242462 
L 157.732217 136.999385 
L 154.084413 124.814769 
L 150.436609 100.445538 
L 146.788805 106.537846 
L 143.141001 104.100923 
L 139.493197 107.756308 
L 135.845393 95.571692 
L 132.197589 93.134769 
L 128.549785 91.916308 
L 124.901982 101.664 
L 121.254178 104.100923 
L 117.606374 106.537846 
L 113.95857 98.008615 
L 110.310766 96.790154 
L 106.662962 93.134769 
L 103.015158 91.916308 
L 99.367354 91.916308 
L 95.719551 96.790154 
L 92.071747 89.479385 
L 88.423943 84.605538 
L 84.776139 71.202462 
L 81.128335 66.328615 
L 77.480531 65.110154 
L 73.832727 63.891692 
z
" clip-path="url(#p02e2570295)" style="fill: #ff7f0e"/>
   </g>
   <g id="PolyCollection_13">
    <path d="M 73.832727 63.891692 
L 73.832727 63.891692 
L 77.480531 65.110154 
L 81.128335 66.328615 
L 84.776139 71.202462 
L 88.423943 84.605538 
L 92.071747 89.479385 
L 95.719551 96.790154 
L 99.367354 91.916308 
L 103.015158 91.916308 
L 106.662962 93.134769 
L 110.310766 96.790154 
L 113.95857 98.008615 
L 117.606374 106.537846 
L 121.254178 104.100923 
L 124.901982 101.664 
L 128.549785 91.916308 
L 132.197589 93.134769 
L 135.845393 95.571692 
L 139.493197 107.756308 
L 143.141001 104.100923 
L 146.788805 106.537846 
L 150.436609 100.445538 
L 154.084413 124.814769 
L 157.732217 136.999385 
L 161.38002 166.242462 
L 165.027824 241.787077 
L 168.675628 232.039385 
L 172.323432 232.039385 
L 175.971236 234.476308 
L 179.61904 241.787077 
L 183.266844 234.476308 
L 186.914648 212.544 
L 190.562451 214.980923 
L 194.210255 213.762462 
L 197.858059 222.291692 
L 201.505863 224.728615 
L 205.153667 225.947077 
L 208.801471 217.417846 
L 212.449275 214.980923 
L 216.097079 223.510154 
L 219.744883 213.762462 
L 223.392686 218.636308 
L 227.04049 225.947077 
L 230.688294 218.636308 
L 234.336098 217.417846 
L 237.983902 213.762462 
L 241.631706 214.980923 
L 245.27951 214.980923 
L 248.927314 216.199385 
L 252.575117 218.636308 
L 256.222921 208.888615 
L 259.870725 213.762462 
L 263.518529 208.888615 
L 267.166333 197.922462 
L 270.814137 207.670154 
L 274.461941 216.199385 
L 278.109745 202.796308 
L 281.757549 204.014769 
L 285.405352 211.325538 
L 289.053156 211.325538 
L 292.70096 224.728615 
L 296.348764 218.636308 
L 299.996568 214.980923 
L 303.644372 218.636308 
L 307.292176 212.544 
L 310.93998 206.451692 
L 314.587783 210.107077 
L 318.235587 219.854769 
L 321.883391 218.636308 
L 325.531195 202.796308 
L 329.178999 210.107077 
L 332.826803 210.107077 
L 336.474607 221.073231 
L 340.122411 218.636308 
L 343.770215 208.888615 
L 347.418018 208.888615 
L 351.065822 212.544 
L 354.713626 219.854769 
L 358.36143 218.636308 
L 362.009234 218.636308 
L 365.657038 214.980923 
L 369.304842 216.199385 
L 372.952646 206.451692 
L 376.600449 201.577846 
L 380.248253 213.762462 
L 383.896057 212.544 
L 387.543861 216.199385 
L 391.191665 219.854769 
L 394.839469 218.636308 
L 398.487273 221.073231 
L 398.487273 221.073231 
L 398.487273 221.073231 
L 394.839469 218.636308 
L 391.191665 219.854769 
L 387.543861 216.199385 
L 383.896057 212.544 
L 380.248253 213.762462 
L 376.600449 201.577846 
L 372.952646 206.451692 
L 369.304842 216.199385 
L 365.657038 214.980923 
L 362.009234 218.636308 
L 358.36143 218.636308 
L 354.713626 219.854769 
L 351.065822 212.544 
L 347.418018 208.888615 
L 343.770215 208.888615 
L 340.122411 218.636308 
L 336.474607 221.073231 
L 332.826803 210.107077 
L 329.178999 210.107077 
L 325.531195 202.796308 
L 321.883391 218.636308 
L 318.235587 219.854769 
L 314.587783 210.107077 
L 310.93998 206.451692 
L 307.292176 212.544 
L 303.644372 218.636308 
L 299.996568 214.980923 
L 296.348764 218.636308 
L 292.70096 224.728615 
L 289.053156 211.325538 
L 285.405352 211.325538 
L 281.757549 204.014769 
L 278.109745 202.796308 
L 274.461941 216.199385 
L 270.814137 207.670154 
L 267.166333 197.922462 
L 263.518529 208.888615 
L 259.870725 213.762462 
L 256.222921 208.888615 
L 252.575117 218.636308 
L 248.927314 216.199385 
L 245.27951 214.980923 
L 241.631706 214.980923 
L 237.983902 213.762462 
L 234.336098 217.417846 
L 230.688294 218.636308 
L 227.04049 225.947077 
L 223.392686 218.636308 
L 219.744883 213.762462 
L 216.097079 223.510154 
L 212.449275 214.980923 
L 208.801471 217.417846 
L 205.153667 225.947077 
L 201.505863 224.728615 
L 197.858059 222.291692 
L 194.210255 213.762462 
L 190.562451 214.980923 
L 186.914648 212.544 
L 183.266844 234.476308 
L 179.61904 241.787077 
L 175.971236 234.476308 
L 172.323432 232.039385 
L 168.675628 232.039385 
L 165.027824 241.787077 
L 161.38002 146.747077 
L 157.732217 117.504 
L 154.084413 108.974769 
L 150.436609 94.353231 
L 146.788805 90.697846 
L 143.141001 89.479385 
L 139.493197 93.134769 
L 135.845393 89.479385 
L 132.197589 83.387077 
L 128.549785 79.731692 
L 124.901982 89.479385 
L 121.254178 89.479385 
L 117.606374 90.697846 
L 113.95857 87.042462 
L 110.310766 84.605538 
L 106.662962 80.950154 
L 103.015158 82.168615 
L 99.367354 80.950154 
L 95.719551 83.387077 
L 92.071747 77.294769 
L 88.423943 73.639385 
L 84.776139 67.547077 
L 81.128335 66.328615 
L 77.480531 65.110154 
L 73.832727 63.891692 
z
" clip-path="url(#p02e2570295)" style="fill: #2ca02c"/>
   </g>
   <g id="PolyCollection_14">
    <path d="M 73.832727 63.891692 
L 73.832727 63.891692 
L 77.480531 65.110154 
L 81.128335 66.328615 
L 84.776139 67.547077 
L 88.423943 73.639385 
L 92.071747 77.294769 
L 95.719551 83.387077 
L 99.367354 80.950154 
L 103.015158 82.168615 
L 106.662962 80.950154 
L 110.310766 84.605538 
L 113.95857 87.042462 
L 117.606374 90.697846 
L 121.254178 89.479385 
L 124.901982 89.479385 
L 128.549785 79.731692 
L 132.197589 83.387077 
L 135.845393 89.479385 
L 139.493197 93.134769 
L 143.141001 89.479385 
L 146.788805 90.697846 
L 150.436609 94.353231 
L 154.084413 108.974769 
L 157.732217 117.504 
L 161.38002 146.747077 
L 165.027824 241.787077 
L 168.675628 232.039385 
L 172.323432 232.039385 
L 175.971236 234.476308 
L 179.61904 241.787077 
L 183.266844 234.476308 
L 186.914648 212.544 
L 190.562451 214.980923 
L 194.210255 213.762462 
L 197.858059 222.291692 
L 201.505863 224.728615 
L 205.153667 225.947077 
L 208.801471 217.417846 
L 212.449275 214.980923 
L 216.097079 223.510154 
L 219.744883 213.762462 
L 223.392686 218.636308 
L 227.04049 225.947077 
L 230.688294 218.636308 
L 234.336098 217.417846 
L 237.983902 213.762462 
L 241.631706 214.980923 
L 245.27951 214.980923 
L 248.927314 216.199385 
L 252.575117 218.636308 
L 256.222921 208.888615 
L 259.870725 213.762462 
L 263.518529 208.888615 
L 267.166333 197.922462 
L 270.814137 207.670154 
L 274.461941 216.199385 
L 278.109745 202.796308 
L 281.757549 204.014769 
L 285.405352 211.325538 
L 289.053156 211.325538 
L 292.70096 224.728615 
L 296.348764 218.636308 
L 299.996568 214.980923 
L 303.644372 218.636308 
L 307.292176 212.544 
L 310.93998 206.451692 
L 314.587783 210.107077 
L 318.235587 219.854769 
L 321.883391 218.636308 
L 325.531195 202.796308 
L 329.178999 210.107077 
L 332.826803 210.107077 
L 336.474607 221.073231 
L 340.122411 218.636308 
L 343.770215 208.888615 
L 347.418018 208.888615 
L 351.065822 212.544 
L 354.713626 219.854769 
L 358.36143 218.636308 
L 362.009234 218.636308 
L 365.657038 214.980923 
L 369.304842 216.199385 
L 372.952646 206.451692 
L 376.600449 201.577846 
L 380.248253 213.762462 
L 383.896057 212.544 
L 387.543861 216.199385 
L 391.191665 219.854769 
L 394.839469 218.636308 
L 398.487273 221.073231 
L 398.487273 150.402462 
L 398.487273 150.402462 
L 394.839469 147.965538 
L 391.191665 144.310154 
L 387.543861 147.965538 
L 383.896057 143.091692 
L 380.248253 143.091692 
L 376.600449 132.125538 
L 372.952646 139.436308 
L 369.304842 138.217846 
L 365.657038 140.654769 
L 362.009234 134.562462 
L 358.36143 140.654769 
L 354.713626 140.654769 
L 351.065822 132.125538 
L 347.418018 130.907077 
L 343.770215 133.344 
L 340.122411 141.873231 
L 336.474607 144.310154 
L 332.826803 145.528615 
L 329.178999 140.654769 
L 325.531195 146.747077 
L 321.883391 155.276308 
L 318.235587 151.620923 
L 314.587783 155.276308 
L 310.93998 141.873231 
L 307.292176 143.091692 
L 303.644372 143.091692 
L 299.996568 141.873231 
L 296.348764 147.965538 
L 292.70096 149.184 
L 289.053156 138.217846 
L 285.405352 143.091692 
L 281.757549 135.780923 
L 278.109745 143.091692 
L 274.461941 155.276308 
L 270.814137 135.780923 
L 267.166333 127.251692 
L 263.518529 133.344 
L 259.870725 135.780923 
L 256.222921 140.654769 
L 252.575117 140.654769 
L 248.927314 139.436308 
L 245.27951 141.873231 
L 241.631706 141.873231 
L 237.983902 133.344 
L 234.336098 134.562462 
L 230.688294 139.436308 
L 227.04049 145.528615 
L 223.392686 152.839385 
L 219.744883 146.747077 
L 216.097079 143.091692 
L 212.449275 149.184 
L 208.801471 150.402462 
L 205.153667 167.460923 
L 201.505863 161.368615 
L 197.858059 157.713231 
L 194.210255 149.184 
L 190.562451 150.402462 
L 186.914648 155.276308 
L 183.266844 189.393231 
L 179.61904 191.830154 
L 175.971236 189.393231 
L 172.323432 194.267077 
L 168.675628 190.611692 
L 165.027824 169.897846 
L 161.38002 116.285538 
L 157.732217 89.479385 
L 154.084413 89.479385 
L 150.436609 80.950154 
L 146.788805 79.731692 
L 143.141001 77.294769 
L 139.493197 77.294769 
L 135.845393 73.639385 
L 132.197589 73.639385 
L 128.549785 72.420923 
L 124.901982 79.731692 
L 121.254178 72.420923 
L 117.606374 76.076308 
L 113.95857 74.857846 
L 110.310766 69.984 
L 106.662962 62.673231 
L 103.015158 65.110154 
L 99.367354 63.891692 
L 95.719551 63.891692 
L 92.071747 63.891692 
L 88.423943 62.673231 
L 84.776139 65.110154 
L 81.128335 66.328615 
L 77.480531 65.110154 
L 73.832727 63.891692 
z
" clip-path="url(#p02e2570295)" style="fill: #d62728"/>
   </g>
   <g id="PolyCollection_15">
    <path d="M 73.832727 63.891692 
L 73.832727 63.891692 
L 77.480531 65.110154 
L 81.128335 66.328615 
L 84.776139 65.110154 
L 88.423943 62.673231 
L 92.071747 63.891692 
L 95.719551 63.891692 
L 99.367354 63.891692 
L 103.015158 65.110154 
L 106.662962 62.673231 
L 110.310766 69.984 
L 113.95857 74.857846 
L 117.606374 76.076308 
L 121.254178 72.420923 
L 124.901982 79.731692 
L 128.549785 72.420923 
L 132.197589 73.639385 
L 135.845393 73.639385 
L 139.493197 77.294769 
L 143.141001 77.294769 
L 146.788805 79.731692 
L 150.436609 80.950154 
L 154.084413 89.479385 
L 157.732217 89.479385 
L 161.38002 116.285538 
L 165.027824 169.897846 
L 168.675628 190.611692 
L 172.323432 194.267077 
L 175.971236 189.393231 
L 179.61904 191.830154 
L 183.266844 189.393231 
L 186.914648 155.276308 
L 190.562451 150.402462 
L 194.210255 149.184 
L 197.858059 157.713231 
L 201.505863 161.368615 
L 205.153667 167.460923 
L 208.801471 150.402462 
L 212.449275 149.184 
L 216.097079 143.091692 
L 219.744883 146.747077 
L 223.392686 152.839385 
L 227.04049 145.528615 
L 230.688294 139.436308 
L 234.336098 134.562462 
L 237.983902 133.344 
L 241.631706 141.873231 
L 245.27951 141.873231 
L 248.927314 139.436308 
L 252.575117 140.654769 
L 256.222921 140.654769 
L 259.870725 135.780923 
L 263.518529 133.344 
L 267.166333 127.251692 
L 270.814137 135.780923 
L 274.461941 155.276308 
L 278.109745 143.091692 
L 281.757549 135.780923 
L 285.405352 143.091692 
L 289.053156 138.217846 
L 292.70096 149.184 
L 296.348764 147.965538 
L 299.996568 141.873231 
L 303.644372 143.091692 
L 307.292176 143.091692 
L 310.93998 141.873231 
L 314.587783 155.276308 
L 318.235587 151.620923 
L 321.883391 155.276308 
L 325.531195 146.747077 
L 329.178999 140.654769 
L 332.826803 145.528615 
L 336.474607 144.310154 
L 340.122411 141.873231 
L 343.770215 133.344 
L 347.418018 130.907077 
L 351.065822 132.125538 
L 354.713626 140.654769 
L 358.36143 140.654769 
L 362.009234 134.562462 
L 365.657038 140.654769 
L 369.304842 138.217846 
L 372.952646 139.436308 
L 376.600449 132.125538 
L 380.248253 143.091692 
L 383.896057 143.091692 
L 387.543861 147.965538 
L 391.191665 144.310154 
L 394.839469 147.965538 
L 398.487273 150.402462 
L 398.487273 150.402462 
L 398.487273 150.402462 
L 394.839469 147.965538 
L 391.191665 144.310154 
L 387.543861 147.965538 
L 383.896057 143.091692 
L 380.248253 143.091692 
L 376.600449 132.125538 
L 372.952646 139.436308 
L 369.304842 138.217846 
L 365.657038 140.654769 
L 362.009234 134.562462 
L 358.36143 140.654769 
L 354.713626 140.654769 
L 351.065822 132.125538 
L 347.418018 130.907077 
L 343.770215 133.344 
L 340.122411 141.873231 
L 336.474607 144.310154 
L 332.826803 145.528615 
L 329.178999 140.654769 
L 325.531195 146.747077 
L 321.883391 155.276308 
L 318.235587 151.620923 
L 314.587783 155.276308 
L 310.93998 141.873231 
L 307.292176 143.091692 
L 303.644372 143.091692 
L 299.996568 141.873231 
L 296.348764 147.965538 
L 292.70096 149.184 
L 289.053156 138.217846 
L 285.405352 143.091692 
L 281.757549 135.780923 
L 278.109745 143.091692 
L 274.461941 155.276308 
L 270.814137 135.780923 
L 267.166333 127.251692 
L 263.518529 133.344 
L 259.870725 135.780923 
L 256.222921 140.654769 
L 252.575117 140.654769 
L 248.927314 139.436308 
L 245.27951 141.873231 
L 241.631706 141.873231 
L 237.983902 133.344 
L 234.336098 134.562462 
L 230.688294 139.436308 
L 227.04049 145.528615 
L 223.392686 152.839385 
L 219.744883 146.747077 
L 216.097079 143.091692 
L 212.449275 149.184 
L 208.801471 150.402462 
L 205.153667 167.460923 
L 201.505863 161.368615 
L 197.858059 157.713231 
L 194.210255 149.184 
L 190.562451 150.402462 
L 186.914648 155.276308 
L 183.266844 141.873231 
L 179.61904 151.620923 
L 175.971236 152.839385 
L 172.323432 165.024 
L 168.675628 161.368615 
L 165.027824 154.057846 
L 161.38002 83.387077 
L 157.732217 69.984 
L 154.084413 66.328615 
L 150.436609 63.891692 
L 146.788805 63.891692 
L 143.141001 60.236308 
L 139.493197 63.891692 
L 135.845393 63.891692 
L 132.197589 61.454769 
L 128.549785 60.236308 
L 124.901982 66.328615 
L 121.254178 65.110154 
L 117.606374 62.673231 
L 113.95857 62.673231 
L 110.310766 59.017846 
L 106.662962 54.144 
L 103.015158 63.891692 
L 99.367354 63.891692 
L 95.719551 63.891692 
L 92.071747 63.891692 
L 88.423943 62.673231 
L 84.776139 65.110154 
L 81.128335 66.328615 
L 77.480531 65.110154 
L 73.832727 63.891692 
z
" clip-path="url(#p02e2570295)" style="fill: #9467bd"/>
   </g>
   <g id="PolyCollection_16">
    <path d="M 73.832727 63.891692 
L 73.832727 63.891692 
L 77.480531 65.110154 
L 81.128335 66.328615 
L 84.776139 65.110154 
L 88.423943 62.673231 
L 92.071747 63.891692 
L 95.719551 63.891692 
L 99.367354 63.891692 
L 103.015158 63.891692 
L 106.662962 54.144 
L 110.310766 59.017846 
L 113.95857 62.673231 
L 117.606374 62.673231 
L 121.254178 65.110154 
L 124.901982 66.328615 
L 128.549785 60.236308 
L 132.197589 61.454769 
L 135.845393 63.891692 
L 139.493197 63.891692 
L 143.141001 60.236308 
L 146.788805 63.891692 
L 150.436609 63.891692 
L 154.084413 66.328615 
L 157.732217 69.984 
L 161.38002 83.387077 
L 165.027824 154.057846 
L 168.675628 161.368615 
L 172.323432 165.024 
L 175.971236 152.839385 
L 179.61904 151.620923 
L 183.266844 141.873231 
L 186.914648 155.276308 
L 190.562451 150.402462 
L 194.210255 149.184 
L 197.858059 157.713231 
L 201.505863 161.368615 
L 205.153667 167.460923 
L 208.801471 150.402462 
L 212.449275 149.184 
L 216.097079 143.091692 
L 219.744883 146.747077 
L 223.392686 152.839385 
L 227.04049 145.528615 
L 230.688294 139.436308 
L 234.336098 134.562462 
L 237.983902 133.344 
L 241.631706 141.873231 
L 245.27951 141.873231 
L 248.927314 139.436308 
L 252.575117 140.654769 
L 256.222921 140.654769 
L 259.870725 135.780923 
L 263.518529 133.344 
L 267.166333 127.251692 
L 270.814137 135.780923 
L 274.461941 155.276308 
L 278.109745 143.091692 
L 281.757549 135.780923 
L 285.405352 143.091692 
L 289.053156 138.217846 
L 292.70096 149.184 
L 296.348764 147.965538 
L 299.996568 141.873231 
L 303.644372 143.091692 
L 307.292176 143.091692 
L 310.93998 141.873231 
L 314.587783 155.276308 
L 318.235587 151.620923 
L 321.883391 155.276308 
L 325.531195 146.747077 
L 329.178999 140.654769 
L 332.826803 145.528615 
L 336.474607 144.310154 
L 340.122411 141.873231 
L 343.770215 133.344 
L 347.418018 130.907077 
L 351.065822 132.125538 
L 354.713626 140.654769 
L 358.36143 140.654769 
L 362.009234 134.562462 
L 365.657038 140.654769 
L 369.304842 138.217846 
L 372.952646 139.436308 
L 376.600449 132.125538 
L 380.248253 143.091692 
L 383.896057 143.091692 
L 387.543861 147.965538 
L 391.191665 144.310154 
L 394.839469 147.965538 
L 398.487273 150.402462 
L 398.487273 63.891692 
L 398.487273 63.891692 
L 394.839469 65.110154 
L 391.191665 63.891692 
L 387.543861 62.673231 
L 383.896057 62.673231 
L 380.248253 63.891692 
L 376.600449 63.891692 
L 372.952646 63.891692 
L 369.304842 63.891692 
L 365.657038 63.891692 
L 362.009234 63.891692 
L 358.36143 63.891692 
L 354.713626 65.110154 
L 351.065822 65.110154 
L 347.418018 65.110154 
L 343.770215 65.110154 
L 340.122411 65.110154 
L 336.474607 63.891692 
L 332.826803 63.891692 
L 329.178999 63.891692 
L 325.531195 65.110154 
L 321.883391 65.110154 
L 318.235587 65.110154 
L 314.587783 65.110154 
L 310.93998 63.891692 
L 307.292176 63.891692 
L 303.644372 63.891692 
L 299.996568 63.891692 
L 296.348764 62.673231 
L 292.70096 63.891692 
L 289.053156 65.110154 
L 285.405352 63.891692 
L 281.757549 63.891692 
L 278.109745 63.891692 
L 274.461941 63.891692 
L 270.814137 63.891692 
L 267.166333 63.891692 
L 263.518529 63.891692 
L 259.870725 63.891692 
L 256.222921 63.891692 
L 252.575117 62.673231 
L 248.927314 62.673231 
L 245.27951 63.891692 
L 241.631706 65.110154 
L 237.983902 63.891692 
L 234.336098 63.891692 
L 230.688294 65.110154 
L 227.04049 63.891692 
L 223.392686 63.891692 
L 219.744883 65.110154 
L 216.097079 63.891692 
L 212.449275 63.891692 
L 208.801471 63.891692 
L 205.153667 65.110154 
L 201.505863 65.110154 
L 197.858059 63.891692 
L 194.210255 63.891692 
L 190.562451 63.891692 
L 186.914648 63.891692 
L 183.266844 63.891692 
L 179.61904 63.891692 
L 175.971236 65.110154 
L 172.323432 63.891692 
L 168.675628 63.891692 
L 165.027824 63.891692 
L 161.38002 63.891692 
L 157.732217 66.328615 
L 154.084413 66.328615 
L 150.436609 63.891692 
L 146.788805 63.891692 
L 143.141001 60.236308 
L 139.493197 63.891692 
L 135.845393 63.891692 
L 132.197589 61.454769 
L 128.549785 60.236308 
L 124.901982 66.328615 
L 121.254178 65.110154 
L 117.606374 62.673231 
L 113.95857 62.673231 
L 110.310766 59.017846 
L 106.662962 54.144 
L 103.015158 63.891692 
L 99.367354 63.891692 
L 95.719551 63.891692 
L 92.071747 63.891692 
L 88.423943 62.673231 
L 84.776139 65.110154 
L 81.128335 66.328615 
L 77.480531 65.110154 
L 73.832727 63.891692 
z
" clip-path="url(#p02e2570295)" style="fill: #8c564b"/>
   </g>
   <g id="matplotlib.axis_1">
    <g id="xtick_1">
     <g id="line2d_1">
      <defs>
       <path id="m7e9f943d24" d="M 0 0 
L 0 3.5 
" style="stroke: #000000; stroke-width: 0.8"/>
      </defs>
      <g>
       <use xlink:href="#m7e9f943d24" x="73.832727" y="307.584" style="stroke: #000000; stroke-width: 0.8"/>
      </g>
     </g>
     <g id="text_1">
      <!-- 0 -->
      <g transform="translate(70.651477 322.182437) scale(0.1 -0.1)">
       <defs>
        <path id="DejaVuSans-30" d="M 2034 4250 
Q 1547 4250 1301 3770 
Q 1056 3291 1056 2328 
Q 1056 1369 1301 889 
Q 1547 409 2034 409 
Q 2525 409 2770 889 
Q 3016 1369 3016 2328 
Q 3016 3291 2770 3770 
Q 2525 4250 2034 4250 
z
M 2034 4750 
Q 2819 4750 3233 4129 
Q 3647 3509 3647 2328 
Q 3647 1150 3233 529 
Q 2819 -91 2034 -91 
Q 1250 -91 836 529 
Q 422 1150 422 2328 
Q 422 3509 836 4129 
Q 1250 4750 2034 4750 
z
" transform="scale(0.015625)"/>
       </defs>
       <use xlink:href="#DejaVuSans-30"/>
      </g>
     </g>
    </g>
    <g id="xtick_2">
     <g id="line2d_2">
      <g>
       <use xlink:href="#m7e9f943d24" x="146.788805" y="307.584" style="stroke: #000000; stroke-width: 0.8"/>
      </g>
     </g>
     <g id="text_2">
      <!-- 20 -->
      <g transform="translate(140.426305 322.182437) scale(0.1 -0.1)">
       <defs>
        <path id="DejaVuSans-32" d="M 1228 531 
L 3431 531 
L 3431 0 
L 469 0 
L 469 531 
Q 828 903 1448 1529 
Q 2069 2156 2228 2338 
Q 2531 2678 2651 2914 
Q 2772 3150 2772 3378 
Q 2772 3750 2511 3984 
Q 2250 4219 1831 4219 
Q 1534 4219 1204 4116 
Q 875 4013 500 3803 
L 500 4441 
Q 881 4594 1212 4672 
Q 1544 4750 1819 4750 
Q 2544 4750 2975 4387 
Q 3406 4025 3406 3419 
Q 3406 3131 3298 2873 
Q 3191 2616 2906 2266 
Q 2828 2175 2409 1742 
Q 1991 1309 1228 531 
z
" transform="scale(0.015625)"/>
       </defs>
       <use xlink:href="#DejaVuSans-32"/>
       <use xlink:href="#DejaVuSans-30" x="63.623047"/>
      </g>
     </g>
    </g>
    <g id="xtick_3">
     <g id="line2d_3">
      <g>
       <use xlink:href="#m7e9f943d24" x="219.744883" y="307.584" style="stroke: #000000; stroke-width: 0.8"/>
      </g>
     </g>
     <g id="text_3">
      <!-- 40 -->
      <g transform="translate(213.382383 322.182437) scale(0.1 -0.1)">
       <defs>
        <path id="DejaVuSans-34" d="M 2419 4116 
L 825 1625 
L 2419 1625 
L 2419 4116 
z
M 2253 4666 
L 3047 4666 
L 3047 1625 
L 3713 1625 
L 3713 1100 
L 3047 1100 
L 3047 0 
L 2419 0 
L 2419 1100 
L 313 1100 
L 313 1709 
L 2253 4666 
z
" transform="scale(0.015625)"/>
       </defs>
       <use xlink:href="#DejaVuSans-34"/>
       <use xlink:href="#DejaVuSans-30" x="63.623047"/>
      </g>
     </g>
    </g>
    <g id="xtick_4">
     <g id="line2d_4">
      <g>
       <use xlink:href="#m7e9f943d24" x="292.70096" y="307.584" style="stroke: #000000; stroke-width: 0.8"/>
      </g>
     </g>
     <g id="text_4">
      <!-- 60 -->
      <g transform="translate(286.33846 322.182437) scale(0.1 -0.1)">
       <defs>
        <path id="DejaVuSans-36" d="M 2113 2584 
Q 1688 2584 1439 2293 
Q 1191 2003 1191 1497 
Q 1191 994 1439 701 
Q 1688 409 2113 409 
Q 2538 409 2786 701 
Q 3034 994 3034 1497 
Q 3034 2003 2786 2293 
Q 2538 2584 2113 2584 
z
M 3366 4563 
L 3366 3988 
Q 3128 4100 2886 4159 
Q 2644 4219 2406 4219 
Q 1781 4219 1451 3797 
Q 1122 3375 1075 2522 
Q 1259 2794 1537 2939 
Q 1816 3084 2150 3084 
Q 2853 3084 3261 2657 
Q 3669 2231 3669 1497 
Q 3669 778 3244 343 
Q 2819 -91 2113 -91 
Q 1303 -91 875 529 
Q 447 1150 447 2328 
Q 447 3434 972 4092 
Q 1497 4750 2381 4750 
Q 2619 4750 2861 4703 
Q 3103 4656 3366 4563 
z
" transform="scale(0.015625)"/>
       </defs>
       <use xlink:href="#DejaVuSans-36"/>
       <use xlink:href="#DejaVuSans-30" x="63.623047"/>
      </g>
     </g>
    </g>
    <g id="xtick_5">
     <g id="line2d_5">
      <g>
       <use xlink:href="#m7e9f943d24" x="365.657038" y="307.584" style="stroke: #000000; stroke-width: 0.8"/>
      </g>
     </g>
     <g id="text_5">
      <!-- 80 -->
      <g transform="translate(359.294538 322.182437) scale(0.1 -0.1)">
       <defs>
        <path id="DejaVuSans-38" d="M 2034 2216 
Q 1584 2216 1326 1975 
Q 1069 1734 1069 1313 
Q 1069 891 1326 650 
Q 1584 409 2034 409 
Q 2484 409 2743 651 
Q 3003 894 3003 1313 
Q 3003 1734 2745 1975 
Q 2488 2216 2034 2216 
z
M 1403 2484 
Q 997 2584 770 2862 
Q 544 3141 544 3541 
Q 544 4100 942 4425 
Q 1341 4750 2034 4750 
Q 2731 4750 3128 4425 
Q 3525 4100 3525 3541 
Q 3525 3141 3298 2862 
Q 3072 2584 2669 2484 
Q 3125 2378 3379 2068 
Q 3634 1759 3634 1313 
Q 3634 634 3220 271 
Q 2806 -91 2034 -91 
Q 1263 -91 848 271 
Q 434 634 434 1313 
Q 434 1759 690 2068 
Q 947 2378 1403 2484 
z
M 1172 3481 
Q 1172 3119 1398 2916 
Q 1625 2713 2034 2713 
Q 2441 2713 2670 2916 
Q 2900 3119 2900 3481 
Q 2900 3844 2670 4047 
Q 2441 4250 2034 4250 
Q 1625 4250 1398 4047 
Q 1172 3844 1172 3481 
z
" transform="scale(0.015625)"/>
       </defs>
       <use xlink:href="#DejaVuSans-38"/>
       <use xlink:href="#DejaVuSans-30" x="63.623047"/>
      </g>
     </g>
    </g>
    <g id="text_6">
     <!-- Generations -->
     <g transform="translate(205.662344 335.860562) scale(0.1 -0.1)">
      <defs>
       <path id="DejaVuSans-47" d="M 3809 666 
L 3809 1919 
L 2778 1919 
L 2778 2438 
L 4434 2438 
L 4434 434 
Q 4069 175 3628 42 
Q 3188 -91 2688 -91 
Q 1594 -91 976 548 
Q 359 1188 359 2328 
Q 359 3472 976 4111 
Q 1594 4750 2688 4750 
Q 3144 4750 3555 4637 
Q 3966 4525 4313 4306 
L 4313 3634 
Q 3963 3931 3569 4081 
Q 3175 4231 2741 4231 
Q 1884 4231 1454 3753 
Q 1025 3275 1025 2328 
Q 1025 1384 1454 906 
Q 1884 428 2741 428 
Q 3075 428 3337 486 
Q 3600 544 3809 666 
z
" transform="scale(0.015625)"/>
       <path id="DejaVuSans-65" d="M 3597 1894 
L 3597 1613 
L 953 1613 
Q 991 1019 1311 708 
Q 1631 397 2203 397 
Q 2534 397 2845 478 
Q 3156 559 3463 722 
L 3463 178 
Q 3153 47 2828 -22 
Q 2503 -91 2169 -91 
Q 1331 -91 842 396 
Q 353 884 353 1716 
Q 353 2575 817 3079 
Q 1281 3584 2069 3584 
Q 2775 3584 3186 3129 
Q 3597 2675 3597 1894 
z
M 3022 2063 
Q 3016 2534 2758 2815 
Q 2500 3097 2075 3097 
Q 1594 3097 1305 2825 
Q 1016 2553 972 2059 
L 3022 2063 
z
" transform="scale(0.015625)"/>
       <path id="DejaVuSans-6e" d="M 3513 2113 
L 3513 0 
L 2938 0 
L 2938 2094 
Q 2938 2591 2744 2837 
Q 2550 3084 2163 3084 
Q 1697 3084 1428 2787 
Q 1159 2491 1159 1978 
L 1159 0 
L 581 0 
L 581 3500 
L 1159 3500 
L 1159 2956 
Q 1366 3272 1645 3428 
Q 1925 3584 2291 3584 
Q 2894 3584 3203 3211 
Q 3513 2838 3513 2113 
z
" transform="scale(0.015625)"/>
       <path id="DejaVuSans-72" d="M 2631 2963 
Q 2534 3019 2420 3045 
Q 2306 3072 2169 3072 
Q 1681 3072 1420 2755 
Q 1159 2438 1159 1844 
L 1159 0 
L 581 0 
L 581 3500 
L 1159 3500 
L 1159 2956 
Q 1341 3275 1631 3429 
Q 1922 3584 2338 3584 
Q 2397 3584 2469 3576 
Q 2541 3569 2628 3553 
L 2631 2963 
z
" transform="scale(0.015625)"/>
       <path id="DejaVuSans-61" d="M 2194 1759 
Q 1497 1759 1228 1600 
Q 959 1441 959 1056 
Q 959 750 1161 570 
Q 1363 391 1709 391 
Q 2188 391 2477 730 
Q 2766 1069 2766 1631 
L 2766 1759 
L 2194 1759 
z
M 3341 1997 
L 3341 0 
L 2766 0 
L 2766 531 
Q 2569 213 2275 61 
Q 1981 -91 1556 -91 
Q 1019 -91 701 211 
Q 384 513 384 1019 
Q 384 1609 779 1909 
Q 1175 2209 1959 2209 
L 2766 2209 
L 2766 2266 
Q 2766 2663 2505 2880 
Q 2244 3097 1772 3097 
Q 1472 3097 1187 3025 
Q 903 2953 641 2809 
L 641 3341 
Q 956 3463 1253 3523 
Q 1550 3584 1831 3584 
Q 2591 3584 2966 3190 
Q 3341 2797 3341 1997 
z
" transform="scale(0.015625)"/>
       <path id="DejaVuSans-74" d="M 1172 4494 
L 1172 3500 
L 2356 3500 
L 2356 3053 
L 1172 3053 
L 1172 1153 
Q 1172 725 1289 603 
Q 1406 481 1766 481 
L 2356 481 
L 2356 0 
L 1766 0 
Q 1100 0 847 248 
Q 594 497 594 1153 
L 594 3053 
L 172 3053 
L 172 3500 
L 594 3500 
L 594 4494 
L 1172 4494 
z
" transform="scale(0.015625)"/>
       <path id="DejaVuSans-69" d="M 603 3500 
L 1178 3500 
L 1178 0 
L 603 0 
L 603 3500 
z
M 603 4863 
L 1178 4863 
L 1178 4134 
L 603 4134 
L 603 4863 
z
" transform="scale(0.015625)"/>
       <path id="DejaVuSans-6f" d="M 1959 3097 
Q 1497 3097 1228 2736 
Q 959 2375 959 1747 
Q 959 1119 1226 758 
Q 1494 397 1959 397 
Q 2419 397 2687 759 
Q 2956 1122 2956 1747 
Q 2956 2369 2687 2733 
Q 2419 3097 1959 3097 
z
M 1959 3584 
Q 2709 3584 3137 3096 
Q 3566 2609 3566 1747 
Q 3566 888 3137 398 
Q 2709 -91 1959 -91 
Q 1206 -91 779 398 
Q 353 888 353 1747 
Q 353 2609 779 3096 
Q 1206 3584 1959 3584 
z
" transform="scale(0.015625)"/>
       <path id="DejaVuSans-73" d="M 2834 3397 
L 2834 2853 
Q 2591 2978 2328 3040 
Q 2066 3103 1784 3103 
Q 1356 3103 1142 2972 
Q 928 2841 928 2578 
Q 928 2378 1081 2264 
Q 1234 2150 1697 2047 
L 1894 2003 
Q 2506 1872 2764 1633 
Q 3022 1394 3022 966 
Q 3022 478 2636 193 
Q 2250 -91 1575 -91 
Q 1294 -91 989 -36 
Q 684 19 347 128 
L 347 722 
Q 666 556 975 473 
Q 1284 391 1588 391 
Q 1994 391 2212 530 
Q 2431 669 2431 922 
Q 2431 1156 2273 1281 
Q 2116 1406 1581 1522 
L 1381 1569 
Q 847 1681 609 1914 
Q 372 2147 372 2553 
Q 372 3047 722 3315 
Q 1072 3584 1716 3584 
Q 2034 3584 2315 3537 
Q 2597 3491 2834 3397 
z
" transform="scale(0.015625)"/>
      </defs>
      <use xlink:href="#DejaVuSans-47"/>
      <use xlink:href="#DejaVuSans-65" x="77.490234"/>
      <use xlink:href="#DejaVuSans-6e" x="139.013672"/>
      <use xlink:href="#DejaVuSans-65" x="202.392578"/>
      <use xlink:href="#DejaVuSans-72" x="263.916016"/>
      <use xlink:href="#DejaVuSans-61" x="305.029297"/>
      <use xlink:href="#DejaVuSans-74" x="366.308594"/>
      <use xlink:href="#DejaVuSans-69" x="405.517578"/>
      <use xlink:href="#DejaVuSans-6f" x="433.300781"/>
      <use xlink:href="#DejaVuSans-6e" x="494.482422"/>
      <use xlink:href="#DejaVuSans-73" x="557.861328"/>
     </g>
    </g>
   </g>
   <g id="matplotlib.axis_2">
    <g id="ytick_1">
     <g id="line2d_6">
      <defs>
       <path id="m1c7868a010" d="M 0 0 
L -3.5 0 
" style="stroke: #000000; stroke-width: 0.8"/>
      </defs>
      <g>
       <use xlink:href="#m1c7868a010" x="57.6" y="307.584" style="stroke: #000000; stroke-width: 0.8"/>
      </g>
     </g>
     <g id="text_7">
      <!-- 0 -->
      <g transform="translate(44.2375 311.383219) scale(0.1 -0.1)">
       <use xlink:href="#DejaVuSans-30"/>
      </g>
     </g>
    </g>
    <g id="ytick_2">
     <g id="line2d_7">
      <g>
       <use xlink:href="#m1c7868a010" x="57.6" y="277.122462" style="stroke: #000000; stroke-width: 0.8"/>
      </g>
     </g>
     <g id="text_8">
      <!-- 25 -->
      <g transform="translate(37.875 280.92168) scale(0.1 -0.1)">
       <defs>
        <path id="DejaVuSans-35" d="M 691 4666 
L 3169 4666 
L 3169 4134 
L 1269 4134 
L 1269 2991 
Q 1406 3038 1543 3061 
Q 1681 3084 1819 3084 
Q 2600 3084 3056 2656 
Q 3513 2228 3513 1497 
Q 3513 744 3044 326 
Q 2575 -91 1722 -91 
Q 1428 -91 1123 -41 
Q 819 9 494 109 
L 494 744 
Q 775 591 1075 516 
Q 1375 441 1709 441 
Q 2250 441 2565 725 
Q 2881 1009 2881 1497 
Q 2881 1984 2565 2268 
Q 2250 2553 1709 2553 
Q 1456 2553 1204 2497 
Q 953 2441 691 2322 
L 691 4666 
z
" transform="scale(0.015625)"/>
       </defs>
       <use xlink:href="#DejaVuSans-32"/>
       <use xlink:href="#DejaVuSans-35" x="63.623047"/>
      </g>
     </g>
    </g>
    <g id="ytick_3">
     <g id="line2d_8">
      <g>
       <use xlink:href="#m1c7868a010" x="57.6" y="246.660923" style="stroke: #000000; stroke-width: 0.8"/>
      </g>
     </g>
     <g id="text_9">
      <!-- 50 -->
      <g transform="translate(37.875 250.460142) scale(0.1 -0.1)">
       <use xlink:href="#DejaVuSans-35"/>
       <use xlink:href="#DejaVuSans-30" x="63.623047"/>
      </g>
     </g>
    </g>
    <g id="ytick_4">
     <g id="line2d_9">
      <g>
       <use xlink:href="#m1c7868a010" x="57.6" y="216.199385" style="stroke: #000000; stroke-width: 0.8"/>
      </g>
     </g>
     <g id="text_10">
      <!-- 75 -->
      <g transform="translate(37.875 219.998603) scale(0.1 -0.1)">
       <defs>
        <path id="DejaVuSans-37" d="M 525 4666 
L 3525 4666 
L 3525 4397 
L 1831 0 
L 1172 0 
L 2766 4134 
L 525 4134 
L 525 4666 
z
" transform="scale(0.015625)"/>
       </defs>
       <use xlink:href="#DejaVuSans-37"/>
       <use xlink:href="#DejaVuSans-35" x="63.623047"/>
      </g>
     </g>
    </g>
    <g id="ytick_5">
     <g id="line2d_10">
      <g>
       <use xlink:href="#m1c7868a010" x="57.6" y="185.737846" style="stroke: #000000; stroke-width: 0.8"/>
      </g>
     </g>
     <g id="text_11">
      <!-- 100 -->
      <g transform="translate(31.5125 189.537065) scale(0.1 -0.1)">
       <defs>
        <path id="DejaVuSans-31" d="M 794 531 
L 1825 531 
L 1825 4091 
L 703 3866 
L 703 4441 
L 1819 4666 
L 2450 4666 
L 2450 531 
L 3481 531 
L 3481 0 
L 794 0 
L 794 531 
z
" transform="scale(0.015625)"/>
       </defs>
       <use xlink:href="#DejaVuSans-31"/>
       <use xlink:href="#DejaVuSans-30" x="63.623047"/>
       <use xlink:href="#DejaVuSans-30" x="127.246094"/>
      </g>
     </g>
    </g>
    <g id="ytick_6">
     <g id="line2d_11">
      <g>
       <use xlink:href="#m1c7868a010" x="57.6" y="155.276308" style="stroke: #000000; stroke-width: 0.8"/>
      </g>
     </g>
     <g id="text_12">
      <!-- 125 -->
      <g transform="translate(31.5125 159.075526) scale(0.1 -0.1)">
       <use xlink:href="#DejaVuSans-31"/>
       <use xlink:href="#DejaVuSans-32" x="63.623047"/>
       <use xlink:href="#DejaVuSans-35" x="127.246094"/>
      </g>
     </g>
    </g>
    <g id="ytick_7">
     <g id="line2d_12">
      <g>
       <use xlink:href="#m1c7868a010" x="57.6" y="124.814769" style="stroke: #000000; stroke-width: 0.8"/>
      </g>
     </g>
     <g id="text_13">
      <!-- 150 -->
      <g transform="translate(31.5125 128.613988) scale(0.1 -0.1)">
       <use xlink:href="#DejaVuSans-31"/>
       <use xlink:href="#DejaVuSans-35" x="63.623047"/>
       <use xlink:href="#DejaVuSans-30" x="127.246094"/>
      </g>
     </g>
    </g>
    <g id="ytick_8">
     <g id="line2d_13">
      <g>
       <use xlink:href="#m1c7868a010" x="57.6" y="94.353231" style="stroke: #000000; stroke-width: 0.8"/>
      </g>
     </g>
     <g id="text_14">
      <!-- 175 -->
      <g transform="translate(31.5125 98.15245) scale(0.1 -0.1)">
       <use xlink:href="#DejaVuSans-31"/>
       <use xlink:href="#DejaVuSans-37" x="63.623047"/>
       <use xlink:href="#DejaVuSans-35" x="127.246094"/>
      </g>
     </g>
    </g>
    <g id="ytick_9">
     <g id="line2d_14">
      <g>
       <use xlink:href="#m1c7868a010" x="57.6" y="63.891692" style="stroke: #000000; stroke-width: 0.8"/>
      </g>
     </g>
     <g id="text_15">
      <!-- 200 -->
      <g transform="translate(31.5125 67.690911) scale(0.1 -0.1)">
       <use xlink:href="#DejaVuSans-32"/>
       <use xlink:href="#DejaVuSans-30" x="63.623047"/>
       <use xlink:href="#DejaVuSans-30" x="127.246094"/>
      </g>
     </g>
    </g>
    <g id="text_16">
     <!-- Size per Species -->
     <g transform="translate(25.432812 215.520969) rotate(-90) scale(0.1 -0.1)">
      <defs>
       <path id="DejaVuSans-53" d="M 3425 4513 
L 3425 3897 
Q 3066 4069 2747 4153 
Q 2428 4238 2131 4238 
Q 1616 4238 1336 4038 
Q 1056 3838 1056 3469 
Q 1056 3159 1242 3001 
Q 1428 2844 1947 2747 
L 2328 2669 
Q 3034 2534 3370 2195 
Q 3706 1856 3706 1288 
Q 3706 609 3251 259 
Q 2797 -91 1919 -91 
Q 1588 -91 1214 -16 
Q 841 59 441 206 
L 441 856 
Q 825 641 1194 531 
Q 1563 422 1919 422 
Q 2459 422 2753 634 
Q 3047 847 3047 1241 
Q 3047 1584 2836 1778 
Q 2625 1972 2144 2069 
L 1759 2144 
Q 1053 2284 737 2584 
Q 422 2884 422 3419 
Q 422 4038 858 4394 
Q 1294 4750 2059 4750 
Q 2388 4750 2728 4690 
Q 3069 4631 3425 4513 
z
" transform="scale(0.015625)"/>
       <path id="DejaVuSans-7a" d="M 353 3500 
L 3084 3500 
L 3084 2975 
L 922 459 
L 3084 459 
L 3084 0 
L 275 0 
L 275 525 
L 2438 3041 
L 353 3041 
L 353 3500 
z
" transform="scale(0.015625)"/>
       <path id="DejaVuSans-20" transform="scale(0.015625)"/>
       <path id="DejaVuSans-70" d="M 1159 525 
L 1159 -1331 
L 581 -1331 
L 581 3500 
L 1159 3500 
L 1159 2969 
Q 1341 3281 1617 3432 
Q 1894 3584 2278 3584 
Q 2916 3584 3314 3078 
Q 3713 2572 3713 1747 
Q 3713 922 3314 415 
Q 2916 -91 2278 -91 
Q 1894 -91 1617 61 
Q 1341 213 1159 525 
z
M 3116 1747 
Q 3116 2381 2855 2742 
Q 2594 3103 2138 3103 
Q 1681 3103 1420 2742 
Q 1159 2381 1159 1747 
Q 1159 1113 1420 752 
Q 1681 391 2138 391 
Q 2594 391 2855 752 
Q 3116 1113 3116 1747 
z
" transform="scale(0.015625)"/>
       <path id="DejaVuSans-63" d="M 3122 3366 
L 3122 2828 
Q 2878 2963 2633 3030 
Q 2388 3097 2138 3097 
Q 1578 3097 1268 2742 
Q 959 2388 959 1747 
Q 959 1106 1268 751 
Q 1578 397 2138 397 
Q 2388 397 2633 464 
Q 2878 531 3122 666 
L 3122 134 
Q 2881 22 2623 -34 
Q 2366 -91 2075 -91 
Q 1284 -91 818 406 
Q 353 903 353 1747 
Q 353 2603 823 3093 
Q 1294 3584 2113 3584 
Q 2378 3584 2631 3529 
Q 2884 3475 3122 3366 
z
" transform="scale(0.015625)"/>
      </defs>
      <use xlink:href="#DejaVuSans-53"/>
      <use xlink:href="#DejaVuSans-69" x="63.476562"/>
      <use xlink:href="#DejaVuSans-7a" x="91.259766"/>
      <use xlink:href="#DejaVuSans-65" x="143.75"/>
      <use xlink:href="#DejaVuSans-20" x="205.273438"/>
      <use xlink:href="#DejaVuSans-70" x="237.060547"/>
      <use xlink:href="#DejaVuSans-65" x="300.537109"/>
      <use xlink:href="#DejaVuSans-72" x="362.060547"/>
      <use xlink:href="#DejaVuSans-20" x="403.173828"/>
      <use xlink:href="#DejaVuSans-53" x="434.960938"/>
      <use xlink:href="#DejaVuSans-70" x="498.4375"/>
      <use xlink:href="#DejaVuSans-65" x="561.914062"/>
      <use xlink:href="#DejaVuSans-63" x="623.4375"/>
      <use xlink:href="#DejaVuSans-69" x="678.417969"/>
      <use xlink:href="#DejaVuSans-65" x="706.201172"/>
      <use xlink:href="#DejaVuSans-73" x="767.724609"/>
     </g>
    </g>
   </g>
   <g id="patch_3">
    <path d="M 57.6 307.584 
L 57.6 41.472 
" style="fill: none; stroke: #000000; stroke-width: 0.8; stroke-linejoin: miter; stroke-linecap: square"/>
   </g>
   <g id="patch_4">
    <path d="M 414.72 307.584 
L 414.72 41.472 
" style="fill: none; stroke: #000000; stroke-width: 0.8; stroke-linejoin: miter; stroke-linecap: square"/>
   </g>
   <g id="patch_5">
    <path d="M 57.6 307.584 
L 414.72 307.584 
" style="fill: none; stroke: #000000; stroke-width: 0.8; stroke-linejoin: miter; stroke-linecap: square"/>
   </g>
   <g id="patch_6">
    <path d="M 57.6 41.472 
L 414.72 41.472 
" style="fill: none; stroke: #000000; stroke-width: 0.8; stroke-linejoin: miter; stroke-linecap: square"/>
   </g>
   <g id="text_17">
    <!-- Speciation -->
    <g transform="translate(204.714375 35.472) scale(0.12 -0.12)">
     <use xlink:href="#DejaVuSans-53"/>
     <use xlink:href="#DejaVuSans-70" x="63.476562"/>
     <use xlink:href="#DejaVuSans-65" x="126.953125"/>
     <use xlink:href="#DejaVuSans-63" x="188.476562"/>
     <use xlink:href="#DejaVuSans-69" x="243.457031"/>
     <use xlink:href="#DejaVuSans-61" x="271.240234"/>
     <use xlink:href="#DejaVuSans-74" x="332.519531"/>
     <use xlink:href="#DejaVuSans-69" x="371.728516"/>
     <use xlink:href="#DejaVuSans-6f" x="399.511719"/>
     <use xlink:href="#DejaVuSans-6e" x="460.693359"/>
    </g>
   </g>
  </g>
 </g>
 <defs>
  <clipPath id="p02e2570295">
   <rect x="57.6" y="41.472" width="357.12" height="266.112"/>
  </clipPath>
 </defs>
</svg>
