<?xml version="1.0" encoding="UTF-8" standalone="no"?>
<!DOCTYPE svg PUBLIC "-//W3C//DTD SVG 1.1//EN"
 "http://www.w3.org/Graphics/SVG/1.1/DTD/svg11.dtd">
<!-- Generated by graphviz version 2.43.0 (0)
 -->
<!-- Title: %3 Pages: 1 -->
<svg width="436pt" height="120pt"
 viewBox="0.00 0.00 436.00 119.98" xmlns="http://www.w3.org/2000/svg" xmlns:xlink="http://www.w3.org/1999/xlink">
<g id="graph0" class="graph" transform="scale(1 1) rotate(0) translate(4 115.98)">
<title>%3</title>
<polygon fill="white" stroke="transparent" points="-4,4 -4,-115.98 432,-115.98 432,4 -4,4"/>
<!-- &#45;1 -->
<g id="node1" class="node">
<title>&#45;1</title>
<polygon fill="lightgray" stroke="black" points="26,-111.98 0,-111.98 0,-93.98 26,-93.98 26,-111.98"/>
<text text-anchor="middle" x="13" y="-100.78" font-family="Times,serif" font-size="9.00">&#45;1</text>
</g>
<!-- 0 -->
<g id="node11" class="node">
<title>0</title>
<ellipse fill="lightblue" stroke="black" cx="123" cy="-28.99" rx="16.03" ry="16.03"/>
<text text-anchor="middle" x="123" y="-26.79" font-family="Times,serif" font-size="9.00">0</text>
</g>
<!-- &#45;1&#45;&gt;0 -->
<g id="edge1" class="edge">
<title>&#45;1&#45;&gt;0</title>
<path fill="none" stroke="green" stroke-width="1.5" d="M25.62,-93.72C44.07,-81.65 78.67,-59.01 101.26,-44.22"/>
<polygon fill="green" stroke="green" stroke-width="1.5" points="103.4,-47 109.85,-38.6 99.56,-41.15 103.4,-47"/>
</g>
<!-- &#45;2 -->
<g id="node2" class="node">
<title>&#45;2</title>
<polygon fill="lightgray" stroke="black" points="296,-111.98 270,-111.98 270,-93.98 296,-93.98 296,-111.98"/>
<text text-anchor="middle" x="283" y="-100.78" font-family="Times,serif" font-size="9.00">&#45;2</text>
</g>
<!-- &#45;3 -->
<g id="node3" class="node">
<title>&#45;3</title>
<polygon fill="lightgray" stroke="black" points="70,-111.98 44,-111.98 44,-93.98 70,-93.98 70,-111.98"/>
<text text-anchor="middle" x="57" y="-100.78" font-family="Times,serif" font-size="9.00">&#45;3</text>
</g>
<!-- &#45;3&#45;&gt;0 -->
<g id="edge2" class="edge">
<title>&#45;3&#45;&gt;0</title>
<path fill="none" stroke="red" stroke-width="1.34" d="M64.57,-93.72C74.51,-82.88 92.27,-63.51 105.61,-48.96"/>
<polygon fill="red" stroke="red" stroke-width="1.34" points="108.31,-51.2 112.48,-41.46 103.15,-46.47 108.31,-51.2"/>
</g>
<!-- &#45;4 -->
<g id="node4" class="node">
<title>&#45;4</title>
<polygon fill="lightgray" stroke="black" points="340,-111.98 314,-111.98 314,-93.98 340,-93.98 340,-111.98"/>
<text text-anchor="middle" x="327" y="-100.78" font-family="Times,serif" font-size="9.00">&#45;4</text>
</g>
<!-- &#45;5 -->
<g id="node5" class="node">
<title>&#45;5</title>
<polygon fill="lightgray" stroke="black" points="384,-111.98 358,-111.98 358,-93.98 384,-93.98 384,-111.98"/>
<text text-anchor="middle" x="371" y="-100.78" font-family="Times,serif" font-size="9.00">&#45;5</text>
</g>
<!-- &#45;6 -->
<g id="node6" class="node">
<title>&#45;6</title>
<polygon fill="lightgray" stroke="black" points="114,-111.98 88,-111.98 88,-93.98 114,-93.98 114,-111.98"/>
<text text-anchor="middle" x="101" y="-100.78" font-family="Times,serif" font-size="9.00">&#45;6</text>
</g>
<!-- &#45;6&#45;&gt;0 -->
<g id="edge3" class="edge">
<title>&#45;6&#45;&gt;0</title>
<path fill="none" stroke="green" stroke-width="0.49" stroke-dasharray="1,5" d="M103.52,-93.72C106.42,-84.25 111.3,-68.26 115.46,-54.67"/>
<polygon fill="green" stroke="green" stroke-width="0.49" points="118.87,-55.48 118.45,-44.89 112.18,-53.43 118.87,-55.48"/>
</g>
<!-- &#45;7 -->
<g id="node7" class="node">
<title>&#45;7</title>
<polygon fill="lightgray" stroke="black" points="158,-111.98 132,-111.98 132,-93.98 158,-93.98 158,-111.98"/>
<text text-anchor="middle" x="145" y="-100.78" font-family="Times,serif" font-size="9.00">&#45;7</text>
</g>
<!-- &#45;7&#45;&gt;0 -->
<g id="edge4" class="edge">
<title>&#45;7&#45;&gt;0</title>
<path fill="none" stroke="red" stroke-width="0.35" d="M142.48,-93.72C139.58,-84.25 134.7,-68.26 130.54,-54.67"/>
<polygon fill="red" stroke="red" stroke-width="0.35" points="133.82,-53.43 127.55,-44.89 127.13,-55.48 133.82,-53.43"/>
</g>
<!-- &#45;8 -->
<g id="node8" class="node">
<title>&#45;8</title>
<polygon fill="lightgray" stroke="black" points="202,-111.98 176,-111.98 176,-93.98 202,-93.98 202,-111.98"/>
<text text-anchor="middle" x="189" y="-100.78" font-family="Times,serif" font-size="9.00">&#45;8</text>
</g>
<!-- &#45;8&#45;&gt;0 -->
<g id="edge5" class="edge">
<title>&#45;8&#45;&gt;0</title>
<path fill="none" stroke="green" stroke-width="0.39" d="M181.43,-93.72C171.49,-82.88 153.73,-63.51 140.39,-48.96"/>
<polygon fill="green" stroke="green" stroke-width="0.39" points="142.85,-46.47 133.52,-41.46 137.69,-51.2 142.85,-46.47"/>
</g>
<!-- &#45;9 -->
<g id="node9" class="node">
<title>&#45;9</title>
<polygon fill="lightgray" stroke="black" points="428,-111.98 402,-111.98 402,-93.98 428,-93.98 428,-111.98"/>
<text text-anchor="middle" x="415" y="-100.78" font-family="Times,serif" font-size="9.00">&#45;9</text>
</g>
<!-- &#45;10 -->
<g id="node10" class="node">
<title>&#45;10</title>
<polygon fill="lightgray" stroke="black" points="252,-111.98 220,-111.98 220,-93.98 252,-93.98 252,-111.98"/>
<text text-anchor="middle" x="236" y="-100.78" font-family="Times,serif" font-size="9.00">&#45;10</text>
</g>
<!-- &#45;10&#45;&gt;0 -->
<g id="edge6" class="edge">
<title>&#45;10&#45;&gt;0</title>
<path fill="none" stroke="red" stroke-width="0.73" stroke-dasharray="1,5" d="M223.04,-93.72C204,-81.6 168.23,-58.8 145.02,-44.02"/>
<polygon fill="red" stroke="red" stroke-width="0.73" points="146.83,-41.02 136.51,-38.6 143.06,-46.92 146.83,-41.02"/>
</g>
<!-- 1201 -->
<g id="node12" class="node">
<title>1201</title>
<ellipse fill="white" stroke="black" cx="236" cy="-28.99" rx="28.98" ry="28.98"/>
<text text-anchor="middle" x="236" y="-26.79" font-family="Times,serif" font-size="9.00">1201</text>
</g>
<!-- &#45;10&#45;&gt;1201 -->
<g id="edge7" class="edge">
<title>&#45;10&#45;&gt;1201</title>
<path fill="none" stroke="green" stroke-width="0.29" d="M236,-93.72C236,-87.26 236,-77.75 236,-68.05"/>
<polygon fill="green" stroke="green" stroke-width="0.29" points="239.5,-67.99 236,-57.99 232.5,-67.99 239.5,-67.99"/>
</g>
</g>
</svg>
