<?xml version="1.0" encoding="UTF-8" standalone="no"?>
<!DOCTYPE svg PUBLIC "-//W3C//DTD SVG 1.1//EN"
 "http://www.w3.org/Graphics/SVG/1.1/DTD/svg11.dtd">
<!-- Generated by graphviz version 2.43.0 (0)
 -->
<!-- Title: %3 Pages: 1 -->
<svg width="668pt" height="180pt"
 viewBox="0.00 0.00 668.00 180.02" xmlns="http://www.w3.org/2000/svg" xmlns:xlink="http://www.w3.org/1999/xlink">
<g id="graph0" class="graph" transform="scale(1 1) rotate(0) translate(4 176.02)">
<title>%3</title>
<polygon fill="white" stroke="transparent" points="-4,4 -4,-176.02 664,-176.02 664,4 -4,4"/>
<!-- &#45;1 -->
<g id="node1" class="node">
<title>&#45;1</title>
<polygon fill="lightgray" stroke="black" points="26,-102.28 0,-102.28 0,-84.28 26,-84.28 26,-102.28"/>
<text text-anchor="middle" x="13" y="-91.08" font-family="Times,serif" font-size="9.00">&#45;1</text>
</g>
<!-- 0 -->
<g id="node15" class="node">
<title>0</title>
<ellipse fill="lightblue" stroke="black" cx="256" cy="-16.26" rx="16.03" ry="16.03"/>
<text text-anchor="middle" x="256" y="-14.06" font-family="Times,serif" font-size="9.00">0</text>
</g>
<!-- &#45;1&#45;&gt;0 -->
<g id="edge1" class="edge">
<title>&#45;1&#45;&gt;0</title>
<path fill="none" stroke="green" stroke-width="0.2" stroke-dasharray="1,5" d="M18.61,-84.04C22.59,-78.83 28.39,-72.36 35,-68.53 98.28,-31.81 186.09,-21.39 229.51,-18.43"/>
<polygon fill="green" stroke="green" stroke-width="0.2" points="229.78,-21.92 239.55,-17.83 229.36,-14.93 229.78,-21.92"/>
</g>
<!-- &#45;2 -->
<g id="node2" class="node">
<title>&#45;2</title>
<polygon fill="lightgray" stroke="black" points="70,-102.28 44,-102.28 44,-84.28 70,-84.28 70,-102.28"/>
<text text-anchor="middle" x="57" y="-91.08" font-family="Times,serif" font-size="9.00">&#45;2</text>
</g>
<!-- &#45;2&#45;&gt;0 -->
<g id="edge2" class="edge">
<title>&#45;2&#45;&gt;0</title>
<path fill="none" stroke="red" stroke-width="0.39" d="M62.68,-84.16C66.69,-78.99 72.49,-72.54 79,-68.53 127.24,-38.77 193.49,-25.65 229.71,-20.39"/>
<polygon fill="red" stroke="red" stroke-width="0.39" points="230.5,-23.81 239.93,-19 229.55,-16.88 230.5,-23.81"/>
</g>
<!-- &#45;3 -->
<g id="node3" class="node">
<title>&#45;3</title>
<polygon fill="lightgray" stroke="black" points="502,-172.02 476,-172.02 476,-154.02 502,-154.02 502,-172.02"/>
<text text-anchor="middle" x="489" y="-160.82" font-family="Times,serif" font-size="9.00">&#45;3</text>
</g>
<!-- 660 -->
<g id="node16" class="node">
<title>660</title>
<ellipse fill="white" stroke="black" cx="489" cy="-93.28" rx="25" ry="25"/>
<text text-anchor="middle" x="489" y="-91.08" font-family="Times,serif" font-size="9.00">660</text>
</g>
<!-- &#45;3&#45;&gt;660 -->
<g id="edge13" class="edge">
<title>&#45;3&#45;&gt;660</title>
<path fill="none" stroke="red" stroke-width="0.33" d="M489,-153.99C489,-147.55 489,-138.05 489,-128.52"/>
<polygon fill="red" stroke="red" stroke-width="0.33" points="492.5,-128.3 489,-118.3 485.5,-128.3 492.5,-128.3"/>
</g>
<!-- &#45;4 -->
<g id="node4" class="node">
<title>&#45;4</title>
<polygon fill="lightgray" stroke="black" points="114,-102.28 88,-102.28 88,-84.28 114,-84.28 114,-102.28"/>
<text text-anchor="middle" x="101" y="-91.08" font-family="Times,serif" font-size="9.00">&#45;4</text>
</g>
<!-- &#45;4&#45;&gt;0 -->
<g id="edge3" class="edge">
<title>&#45;4&#45;&gt;0</title>
<path fill="none" stroke="red" stroke-width="0.54" d="M107.16,-83.89C111.2,-78.87 116.86,-72.69 123,-68.53 156.78,-45.63 202.24,-30.95 230.31,-23.42"/>
<polygon fill="red" stroke="red" stroke-width="0.54" points="231.34,-26.76 240.15,-20.87 229.59,-19.98 231.34,-26.76"/>
</g>
<!-- &#45;5 -->
<g id="node5" class="node">
<title>&#45;5</title>
<polygon fill="lightgray" stroke="black" points="158,-102.28 132,-102.28 132,-84.28 158,-84.28 158,-102.28"/>
<text text-anchor="middle" x="145" y="-91.08" font-family="Times,serif" font-size="9.00">&#45;5</text>
</g>
<!-- &#45;5&#45;&gt;0 -->
<g id="edge4" class="edge">
<title>&#45;5&#45;&gt;0</title>
<path fill="none" stroke="red" stroke-width="0.15" d="M151.4,-84.21C155.53,-79.32 161.2,-73.15 167,-68.53 187.54,-52.15 213.91,-37.65 232.6,-28.28"/>
<polygon fill="red" stroke="red" stroke-width="0.15" points="234.17,-31.41 241.61,-23.87 231.09,-25.13 234.17,-31.41"/>
</g>
<!-- &#45;6 -->
<g id="node6" class="node">
<title>&#45;6</title>
<polygon fill="lightgray" stroke="black" points="202,-102.28 176,-102.28 176,-84.28 202,-84.28 202,-102.28"/>
<text text-anchor="middle" x="189" y="-91.08" font-family="Times,serif" font-size="9.00">&#45;6</text>
</g>
<!-- &#45;6&#45;&gt;0 -->
<g id="edge5" class="edge">
<title>&#45;6&#45;&gt;0</title>
<path fill="none" stroke="green" stroke-width="0.14" stroke-dasharray="1,5" d="M196.17,-84.25C206.29,-72.92 225.07,-51.9 238.9,-36.41"/>
<polygon fill="green" stroke="green" stroke-width="0.14" points="241.55,-38.69 245.6,-28.9 236.33,-34.03 241.55,-38.69"/>
</g>
<!-- &#45;7 -->
<g id="node7" class="node">
<title>&#45;7</title>
<polygon fill="lightgray" stroke="black" points="616,-172.02 590,-172.02 590,-154.02 616,-154.02 616,-172.02"/>
<text text-anchor="middle" x="603" y="-160.82" font-family="Times,serif" font-size="9.00">&#45;7</text>
</g>
<!-- &#45;8 -->
<g id="node8" class="node">
<title>&#45;8</title>
<polygon fill="lightgray" stroke="black" points="660,-172.02 634,-172.02 634,-154.02 660,-154.02 660,-172.02"/>
<text text-anchor="middle" x="647" y="-160.82" font-family="Times,serif" font-size="9.00">&#45;8</text>
</g>
<!-- &#45;9 -->
<g id="node9" class="node">
<title>&#45;9</title>
<polygon fill="lightgray" stroke="black" points="246,-102.28 220,-102.28 220,-84.28 246,-84.28 246,-102.28"/>
<text text-anchor="middle" x="233" y="-91.08" font-family="Times,serif" font-size="9.00">&#45;9</text>
</g>
<!-- &#45;9&#45;&gt;0 -->
<g id="edge6" class="edge">
<title>&#45;9&#45;&gt;0</title>
<path fill="none" stroke="red" stroke-width="0.56" d="M235.46,-84.25C238.57,-74.11 244.05,-56.22 248.57,-41.48"/>
<polygon fill="red" stroke="red" stroke-width="0.56" points="251.92,-42.5 251.51,-31.91 245.23,-40.44 251.92,-42.5"/>
</g>
<!-- &#45;10 -->
<g id="node10" class="node">
<title>&#45;10</title>
<polygon fill="lightgray" stroke="black" points="296,-102.28 264,-102.28 264,-84.28 296,-84.28 296,-102.28"/>
<text text-anchor="middle" x="280" y="-91.08" font-family="Times,serif" font-size="9.00">&#45;10</text>
</g>
<!-- &#45;10&#45;&gt;0 -->
<g id="edge7" class="edge">
<title>&#45;10&#45;&gt;0</title>
<path fill="none" stroke="green" stroke-width="0.32" d="M277.43,-84.25C274.19,-74.11 268.47,-56.22 263.75,-41.48"/>
<polygon fill="green" stroke="green" stroke-width="0.32" points="267.07,-40.37 260.69,-31.91 260.4,-42.5 267.07,-40.37"/>
</g>
<!-- &#45;11 -->
<g id="node11" class="node">
<title>&#45;11</title>
<polygon fill="lightgray" stroke="black" points="346,-102.28 314,-102.28 314,-84.28 346,-84.28 346,-102.28"/>
<text text-anchor="middle" x="330" y="-91.08" font-family="Times,serif" font-size="9.00">&#45;11</text>
</g>
<!-- &#45;11&#45;&gt;0 -->
<g id="edge8" class="edge">
<title>&#45;11&#45;&gt;0</title>
<path fill="none" stroke="green" stroke-width="1.47" d="M322.08,-84.25C310.78,-72.79 289.69,-51.42 274.37,-35.89"/>
<polygon fill="green" stroke="green" stroke-width="1.47" points="276.48,-33.04 266.97,-28.38 271.5,-37.96 276.48,-33.04"/>
</g>
<!-- &#45;12 -->
<g id="node12" class="node">
<title>&#45;12</title>
<polygon fill="lightgray" stroke="black" points="396,-102.28 364,-102.28 364,-84.28 396,-84.28 396,-102.28"/>
<text text-anchor="middle" x="380" y="-91.08" font-family="Times,serif" font-size="9.00">&#45;12</text>
</g>
<!-- &#45;12&#45;&gt;0 -->
<g id="edge9" class="edge">
<title>&#45;12&#45;&gt;0</title>
<path fill="none" stroke="green" stroke-width="0.32" stroke-dasharray="1,5" d="M372.62,-84.18C367.88,-79.28 361.44,-73.11 355,-68.53 331.15,-51.55 300.93,-36.74 280.18,-27.46"/>
<polygon fill="green" stroke="green" stroke-width="0.32" points="281.4,-24.17 270.83,-23.36 278.59,-30.58 281.4,-24.17"/>
</g>
<!-- &#45;13 -->
<g id="node13" class="node">
<title>&#45;13</title>
<polygon fill="lightgray" stroke="black" points="572,-172.02 540,-172.02 540,-154.02 572,-154.02 572,-172.02"/>
<text text-anchor="middle" x="556" y="-160.82" font-family="Times,serif" font-size="9.00">&#45;13</text>
</g>
<!-- 303 -->
<g id="node17" class="node">
<title>303</title>
<ellipse fill="white" stroke="black" cx="556" cy="-93.28" rx="25" ry="25"/>
<text text-anchor="middle" x="556" y="-91.08" font-family="Times,serif" font-size="9.00">303</text>
</g>
<!-- &#45;13&#45;&gt;303 -->
<g id="edge11" class="edge">
<title>&#45;13&#45;&gt;303</title>
<path fill="none" stroke="green" stroke-width="0.54" d="M556,-153.99C556,-147.55 556,-138.05 556,-128.52"/>
<polygon fill="green" stroke="green" stroke-width="0.54" points="559.5,-128.3 556,-118.3 552.5,-128.3 559.5,-128.3"/>
</g>
<!-- &#45;14 -->
<g id="node14" class="node">
<title>&#45;14</title>
<polygon fill="lightgray" stroke="black" points="446,-102.28 414,-102.28 414,-84.28 446,-84.28 446,-102.28"/>
<text text-anchor="middle" x="430" y="-91.08" font-family="Times,serif" font-size="9.00">&#45;14</text>
</g>
<!-- &#45;14&#45;&gt;0 -->
<g id="edge10" class="edge">
<title>&#45;14&#45;&gt;0</title>
<path fill="none" stroke="green" stroke-width="0.78" stroke-dasharray="1,5" d="M422.84,-83.84C418.19,-78.81 411.76,-72.63 405,-68.53 365.25,-44.4 312.61,-29.71 281.71,-22.57"/>
<polygon fill="green" stroke="green" stroke-width="0.78" points="282.27,-19.11 271.74,-20.35 280.75,-25.94 282.27,-19.11"/>
</g>
<!-- 660&#45;&gt;0 -->
<g id="edge14" class="edge">
<title>660&#45;&gt;0</title>
<path fill="none" stroke="green" stroke-width="0.46" d="M469.95,-77.2C465.25,-73.99 460.1,-70.87 455,-68.53 396.33,-41.56 321.16,-27.1 282.14,-20.94"/>
<polygon fill="green" stroke="green" stroke-width="0.46" points="282.54,-17.46 272.13,-19.42 281.49,-24.38 282.54,-17.46"/>
</g>
<!-- 303&#45;&gt;0 -->
<g id="edge12" class="edge">
<title>303&#45;&gt;0</title>
<path fill="none" stroke="red" stroke-width="0.14" stroke-dasharray="1,5" d="M537.31,-76.71C532.84,-73.6 527.93,-70.65 523,-68.53 439.98,-32.76 331.74,-21.82 282.49,-18.58"/>
<polygon fill="red" stroke="red" stroke-width="0.14" points="282.55,-15.07 272.36,-17.96 282.13,-22.06 282.55,-15.07"/>
</g>
</g>
</svg>
