<?xml version="1.0" encoding="UTF-8" standalone="no"?>
<!DOCTYPE svg PUBLIC "-//W3C//DTD SVG 1.1//EN"
 "http://www.w3.org/Graphics/SVG/1.1/DTD/svg11.dtd">
<!-- Generated by graphviz version 2.43.0 (0)
 -->
<!-- Title: %3 Pages: 1 -->
<svg width="262pt" height="343pt"
 viewBox="0.00 0.00 262.00 342.53" xmlns="http://www.w3.org/2000/svg" xmlns:xlink="http://www.w3.org/1999/xlink">
<g id="graph0" class="graph" transform="scale(1 1) rotate(0) translate(4 338.53)">
<title>%3</title>
<polygon fill="white" stroke="transparent" points="-4,4 -4,-338.53 258,-338.53 258,4 -4,4"/>
<!-- &#45;1 -->
<g id="node1" class="node">
<title>&#45;1</title>
<polygon fill="lightgray" stroke="black" points="26,-334.53 0,-334.53 0,-316.53 26,-316.53 26,-334.53"/>
<text text-anchor="middle" x="13" y="-323.33" font-family="Times,serif" font-size="9.00">&#45;1</text>
</g>
<!-- &#45;2 -->
<g id="node2" class="node">
<title>&#45;2</title>
<polygon fill="lightgray" stroke="black" points="70,-334.53 44,-334.53 44,-316.53 70,-316.53 70,-334.53"/>
<text text-anchor="middle" x="57" y="-323.33" font-family="Times,serif" font-size="9.00">&#45;2</text>
</g>
<!-- 284 -->
<g id="node9" class="node">
<title>284</title>
<ellipse fill="white" stroke="black" cx="31" cy="-255.79" rx="25" ry="25"/>
<text text-anchor="middle" x="31" y="-253.59" font-family="Times,serif" font-size="9.00">284</text>
</g>
<!-- &#45;2&#45;&gt;284 -->
<g id="edge8" class="edge">
<title>&#45;2&#45;&gt;284</title>
<path fill="none" stroke="red" stroke-width="0.61" d="M53.92,-316.5C51.22,-309.47 47.12,-298.78 43.12,-288.38"/>
<polygon fill="red" stroke="red" stroke-width="0.61" points="46.38,-287.11 39.53,-279.02 39.85,-289.61 46.38,-287.11"/>
</g>
<!-- 143 -->
<g id="node10" class="node">
<title>143</title>
<ellipse fill="white" stroke="black" cx="57" cy="-170.29" rx="25" ry="25"/>
<text text-anchor="middle" x="57" y="-168.09" font-family="Times,serif" font-size="9.00">143</text>
</g>
<!-- &#45;2&#45;&gt;143 -->
<g id="edge6" class="edge">
<title>&#45;2&#45;&gt;143</title>
<path fill="none" stroke="green" stroke-width="1.07" stroke-dasharray="1,5" d="M58.91,-316.48C60.89,-307.71 63.86,-293.22 65,-280.53 66.98,-258.62 66.46,-252.99 65,-231.04 64.43,-222.5 63.41,-213.32 62.28,-204.78"/>
<polygon fill="green" stroke="green" stroke-width="1.07" points="65.73,-204.19 60.88,-194.77 58.8,-205.16 65.73,-204.19"/>
</g>
<!-- &#45;3 -->
<g id="node3" class="node">
<title>&#45;3</title>
<polygon fill="lightgray" stroke="black" points="122,-98.03 96,-98.03 96,-80.03 122,-80.03 122,-98.03"/>
<text text-anchor="middle" x="109" y="-86.83" font-family="Times,serif" font-size="9.00">&#45;3</text>
</g>
<!-- 0 -->
<g id="node7" class="node">
<title>0</title>
<ellipse fill="lightblue" stroke="black" cx="153" cy="-16.26" rx="16.03" ry="16.03"/>
<text text-anchor="middle" x="153" y="-14.06" font-family="Times,serif" font-size="9.00">0</text>
</g>
<!-- &#45;3&#45;&gt;0 -->
<g id="edge1" class="edge">
<title>&#45;3&#45;&gt;0</title>
<path fill="none" stroke="red" stroke-width="0.54" d="M114.05,-79.91C120.19,-70.03 130.82,-52.93 139.43,-39.09"/>
<polygon fill="red" stroke="red" stroke-width="0.54" points="142.41,-40.92 144.72,-30.58 136.47,-37.22 142.41,-40.92"/>
</g>
<!-- &#45;4 -->
<g id="node4" class="node">
<title>&#45;4</title>
<polygon fill="lightgray" stroke="black" points="166,-98.03 140,-98.03 140,-80.03 166,-80.03 166,-98.03"/>
<text text-anchor="middle" x="153" y="-86.83" font-family="Times,serif" font-size="9.00">&#45;4</text>
</g>
<!-- &#45;4&#45;&gt;0 -->
<g id="edge2" class="edge">
<title>&#45;4&#45;&gt;0</title>
<path fill="none" stroke="green" stroke-width="0.73" d="M153,-79.91C153,-70.95 153,-56.07 153,-43.05"/>
<polygon fill="green" stroke="green" stroke-width="0.73" points="156.5,-42.73 153,-32.73 149.5,-42.73 156.5,-42.73"/>
</g>
<!-- &#45;5 -->
<g id="node5" class="node">
<title>&#45;5</title>
<polygon fill="lightgray" stroke="black" points="210,-98.03 184,-98.03 184,-80.03 210,-80.03 210,-98.03"/>
<text text-anchor="middle" x="197" y="-86.83" font-family="Times,serif" font-size="9.00">&#45;5</text>
</g>
<!-- &#45;5&#45;&gt;0 -->
<g id="edge3" class="edge">
<title>&#45;5&#45;&gt;0</title>
<path fill="none" stroke="red" stroke-width="0.55" d="M191.95,-79.91C185.81,-70.03 175.18,-52.93 166.57,-39.09"/>
<polygon fill="red" stroke="red" stroke-width="0.55" points="169.53,-37.22 161.28,-30.58 163.59,-40.92 169.53,-37.22"/>
</g>
<!-- &#45;6 -->
<g id="node6" class="node">
<title>&#45;6</title>
<polygon fill="lightgray" stroke="black" points="254,-98.03 228,-98.03 228,-80.03 254,-80.03 254,-98.03"/>
<text text-anchor="middle" x="241" y="-86.83" font-family="Times,serif" font-size="9.00">&#45;6</text>
</g>
<!-- &#45;6&#45;&gt;0 -->
<g id="edge4" class="edge">
<title>&#45;6&#45;&gt;0</title>
<path fill="none" stroke="red" stroke-width="0.66" stroke-dasharray="1,5" d="M232.12,-79.93C228.16,-76.37 223.4,-72.18 219,-68.53 204.31,-56.33 187.27,-43.12 174.19,-33.17"/>
<polygon fill="red" stroke="red" stroke-width="0.66" points="175.93,-30.09 165.85,-26.85 171.71,-35.68 175.93,-30.09"/>
</g>
<!-- 28 -->
<g id="node8" class="node">
<title>28</title>
<ellipse fill="white" stroke="black" cx="57" cy="-89.03" rx="20.51" ry="20.51"/>
<text text-anchor="middle" x="57" y="-86.83" font-family="Times,serif" font-size="9.00">28</text>
</g>
<!-- 28&#45;&gt;0 -->
<g id="edge5" class="edge">
<title>28&#45;&gt;0</title>
<path fill="none" stroke="green" stroke-width="0.72" d="M73.29,-76.03C89.41,-64.14 114.18,-45.88 131.83,-32.87"/>
<polygon fill="green" stroke="green" stroke-width="0.72" points="134.35,-35.36 140.32,-26.61 130.2,-29.73 134.35,-35.36"/>
</g>
<!-- 284&#45;&gt;143 -->
<g id="edge9" class="edge">
<title>284&#45;&gt;143</title>
<path fill="none" stroke="green" stroke-width="0.6" d="M38.1,-231.97C40.8,-223.32 43.92,-213.29 46.84,-203.91"/>
<polygon fill="green" stroke="green" stroke-width="0.6" points="50.27,-204.66 49.9,-194.08 43.59,-202.58 50.27,-204.66"/>
</g>
<!-- 143&#45;&gt;28 -->
<g id="edge7" class="edge">
<title>143&#45;&gt;28</title>
<path fill="none" stroke="green" stroke-width="0.44" d="M57,-145.51C57,-137.49 57,-128.44 57,-120.01"/>
<polygon fill="green" stroke="green" stroke-width="0.44" points="60.5,-119.79 57,-109.79 53.5,-119.79 60.5,-119.79"/>
</g>
</g>
</svg>
