<?xml version="1.0" encoding="UTF-8" standalone="no"?>
<!DOCTYPE svg PUBLIC "-//W3C//DTD SVG 1.1//EN"
 "http://www.w3.org/Graphics/SVG/1.1/DTD/svg11.dtd">
<!-- Generated by graphviz version 2.43.0 (0)
 -->
<!-- Title: %3 Pages: 1 -->
<svg width="645pt" height="111pt"
 viewBox="0.00 0.00 644.75 111.50" xmlns="http://www.w3.org/2000/svg" xmlns:xlink="http://www.w3.org/1999/xlink">
<g id="graph0" class="graph" transform="scale(1 1) rotate(0) translate(4 107.5)">
<title>%3</title>
<polygon fill="white" stroke="transparent" points="-4,4 -4,-107.5 640.75,-107.5 640.75,4 -4,4"/>
<!-- &#45;1 -->
<g id="node1" class="node">
<title>&#45;1</title>
<polygon fill="lightgray" stroke="black" points="26,-103.5 0,-103.5 0,-85.5 26,-85.5 26,-103.5"/>
<text text-anchor="middle" x="13" y="-92.3" font-family="Times,serif" font-size="9.00">&#45;1</text>
</g>
<!-- 0 -->
<g id="node15" class="node">
<title>0</title>
<ellipse fill="lightblue" stroke="black" cx="211" cy="-24.75" rx="16.03" ry="16.03"/>
<text text-anchor="middle" x="211" y="-22.55" font-family="Times,serif" font-size="9.00">0</text>
</g>
<!-- &#45;1&#45;&gt;0 -->
<g id="edge1" class="edge">
<title>&#45;1&#45;&gt;0</title>
<path fill="none" stroke="red" stroke-width="1.52" d="M26.01,-88.71C28.96,-87.64 32.09,-86.52 35,-85.5 88.52,-66.68 151.54,-45.53 185.77,-34.13"/>
<polygon fill="red" stroke="red" stroke-width="1.52" points="187.04,-37.39 195.42,-30.91 184.83,-30.75 187.04,-37.39"/>
</g>
<!-- &#45;2 -->
<g id="node2" class="node">
<title>&#45;2</title>
<polygon fill="lightgray" stroke="black" points="70,-103.5 44,-103.5 44,-85.5 70,-85.5 70,-103.5"/>
<text text-anchor="middle" x="57" y="-92.3" font-family="Times,serif" font-size="9.00">&#45;2</text>
</g>
<!-- &#45;2&#45;&gt;0 -->
<g id="edge2" class="edge">
<title>&#45;2&#45;&gt;0</title>
<path fill="none" stroke="red" stroke-width="1.43" d="M70.13,-87.72C95.97,-76.35 153.77,-50.93 186.74,-36.42"/>
<polygon fill="red" stroke="red" stroke-width="1.43" points="188.37,-39.53 196.11,-32.3 185.55,-33.12 188.37,-39.53"/>
</g>
<!-- &#45;3 -->
<g id="node3" class="node">
<title>&#45;3</title>
<polygon fill="lightgray" stroke="black" points="478,-103.5 452,-103.5 452,-85.5 478,-85.5 478,-103.5"/>
<text text-anchor="middle" x="465" y="-92.3" font-family="Times,serif" font-size="9.00">&#45;3</text>
</g>
<!-- &#45;4 -->
<g id="node4" class="node">
<title>&#45;4</title>
<polygon fill="lightgray" stroke="black" points="114,-103.5 88,-103.5 88,-85.5 114,-85.5 114,-103.5"/>
<text text-anchor="middle" x="101" y="-92.3" font-family="Times,serif" font-size="9.00">&#45;4</text>
</g>
<!-- &#45;4&#45;&gt;0 -->
<g id="edge3" class="edge">
<title>&#45;4&#45;&gt;0</title>
<path fill="none" stroke="red" stroke-width="1.07" d="M114.05,-85.46C132.46,-74.12 166.3,-53.28 188.73,-39.47"/>
<polygon fill="red" stroke="red" stroke-width="1.07" points="190.6,-42.43 197.28,-34.2 186.93,-36.46 190.6,-42.43"/>
</g>
<!-- &#45;5 -->
<g id="node5" class="node">
<title>&#45;5</title>
<polygon fill="lightgray" stroke="black" points="158,-103.5 132,-103.5 132,-85.5 158,-85.5 158,-103.5"/>
<text text-anchor="middle" x="145" y="-92.3" font-family="Times,serif" font-size="9.00">&#45;5</text>
</g>
<!-- &#45;5&#45;&gt;0 -->
<g id="edge4" class="edge">
<title>&#45;5&#45;&gt;0</title>
<path fill="none" stroke="red" stroke-width="0.42" d="M152.83,-85.46C162.65,-75.38 179.79,-57.79 192.93,-44.3"/>
<polygon fill="red" stroke="red" stroke-width="0.42" points="195.64,-46.53 200.12,-36.92 190.63,-41.64 195.64,-46.53"/>
</g>
<!-- &#45;6 -->
<g id="node6" class="node">
<title>&#45;6</title>
<polygon fill="lightgray" stroke="black" points="202,-103.5 176,-103.5 176,-85.5 202,-85.5 202,-103.5"/>
<text text-anchor="middle" x="189" y="-92.3" font-family="Times,serif" font-size="9.00">&#45;6</text>
</g>
<!-- &#45;6&#45;&gt;0 -->
<g id="edge5" class="edge">
<title>&#45;6&#45;&gt;0</title>
<path fill="none" stroke="green" stroke-width="0.39" d="M191.61,-85.46C194.42,-76.81 199.03,-62.62 203.05,-50.24"/>
<polygon fill="green" stroke="green" stroke-width="0.39" points="206.47,-51.02 206.23,-40.43 199.81,-48.86 206.47,-51.02"/>
</g>
<!-- &#45;7 -->
<g id="node7" class="node">
<title>&#45;7</title>
<polygon fill="lightgray" stroke="black" points="246,-103.5 220,-103.5 220,-85.5 246,-85.5 246,-103.5"/>
<text text-anchor="middle" x="233" y="-92.3" font-family="Times,serif" font-size="9.00">&#45;7</text>
</g>
<!-- &#45;7&#45;&gt;0 -->
<g id="edge6" class="edge">
<title>&#45;7&#45;&gt;0</title>
<path fill="none" stroke="red" stroke-width="0.37" d="M230.39,-85.46C227.58,-76.81 222.97,-62.62 218.95,-50.24"/>
<polygon fill="red" stroke="red" stroke-width="0.37" points="222.19,-48.86 215.77,-40.43 215.53,-51.02 222.19,-48.86"/>
</g>
<!-- &#45;8 -->
<g id="node8" class="node">
<title>&#45;8</title>
<polygon fill="lightgray" stroke="black" points="290,-103.5 264,-103.5 264,-85.5 290,-85.5 290,-103.5"/>
<text text-anchor="middle" x="277" y="-92.3" font-family="Times,serif" font-size="9.00">&#45;8</text>
</g>
<!-- &#45;8&#45;&gt;0 -->
<g id="edge7" class="edge">
<title>&#45;8&#45;&gt;0</title>
<path fill="none" stroke="red" stroke-width="0.3" stroke-dasharray="1,5" d="M269.17,-85.46C259.35,-75.38 242.21,-57.79 229.07,-44.3"/>
<polygon fill="red" stroke="red" stroke-width="0.3" points="231.37,-41.64 221.88,-36.92 226.36,-46.53 231.37,-41.64"/>
</g>
<!-- &#45;9 -->
<g id="node9" class="node">
<title>&#45;9</title>
<polygon fill="lightgray" stroke="black" points="334,-103.5 308,-103.5 308,-85.5 334,-85.5 334,-103.5"/>
<text text-anchor="middle" x="321" y="-92.3" font-family="Times,serif" font-size="9.00">&#45;9</text>
</g>
<!-- &#45;9&#45;&gt;0 -->
<g id="edge8" class="edge">
<title>&#45;9&#45;&gt;0</title>
<path fill="none" stroke="red" stroke-width="0.59" d="M307.95,-85.46C289.54,-74.12 255.7,-53.28 233.27,-39.47"/>
<polygon fill="red" stroke="red" stroke-width="0.59" points="235.07,-36.46 224.72,-34.2 231.4,-42.43 235.07,-36.46"/>
</g>
<!-- &#45;10 -->
<g id="node10" class="node">
<title>&#45;10</title>
<polygon fill="lightgray" stroke="black" points="528,-103.5 496,-103.5 496,-85.5 528,-85.5 528,-103.5"/>
<text text-anchor="middle" x="512" y="-92.3" font-family="Times,serif" font-size="9.00">&#45;10</text>
</g>
<!-- &#45;11 -->
<g id="node11" class="node">
<title>&#45;11</title>
<polygon fill="lightgray" stroke="black" points="384,-103.5 352,-103.5 352,-85.5 384,-85.5 384,-103.5"/>
<text text-anchor="middle" x="368" y="-92.3" font-family="Times,serif" font-size="9.00">&#45;11</text>
</g>
<!-- &#45;11&#45;&gt;0 -->
<g id="edge9" class="edge">
<title>&#45;11&#45;&gt;0</title>
<path fill="none" stroke="green" stroke-width="3.12" d="M351.79,-86.5C324.1,-74.55 267.55,-50.15 235.18,-36.18"/>
<polygon fill="green" stroke="green" stroke-width="3.12" points="236.54,-32.96 225.97,-32.21 233.76,-39.38 236.54,-32.96"/>
</g>
<!-- &#45;12 -->
<g id="node12" class="node">
<title>&#45;12</title>
<polygon fill="lightgray" stroke="black" points="578,-103.5 546,-103.5 546,-85.5 578,-85.5 578,-103.5"/>
<text text-anchor="middle" x="562" y="-92.3" font-family="Times,serif" font-size="9.00">&#45;12</text>
</g>
<!-- &#45;13 -->
<g id="node13" class="node">
<title>&#45;13</title>
<polygon fill="lightgray" stroke="black" points="628,-103.5 596,-103.5 596,-85.5 628,-85.5 628,-103.5"/>
<text text-anchor="middle" x="612" y="-92.3" font-family="Times,serif" font-size="9.00">&#45;13</text>
</g>
<!-- 146 -->
<g id="node16" class="node">
<title>146</title>
<ellipse fill="white" stroke="black" cx="612" cy="-24.75" rx="25" ry="25"/>
<text text-anchor="middle" x="612" y="-22.55" font-family="Times,serif" font-size="9.00">146</text>
</g>
<!-- &#45;13&#45;&gt;146 -->
<g id="edge11" class="edge">
<title>&#45;13&#45;&gt;146</title>
<path fill="none" stroke="green" stroke-width="0.36" d="M612,-85.46C612,-79.02 612,-69.53 612,-59.99"/>
<polygon fill="green" stroke="green" stroke-width="0.36" points="615.5,-59.77 612,-49.77 608.5,-59.77 615.5,-59.77"/>
</g>
<!-- &#45;14 -->
<g id="node14" class="node">
<title>&#45;14</title>
<polygon fill="lightgray" stroke="black" points="434,-103.5 402,-103.5 402,-85.5 434,-85.5 434,-103.5"/>
<text text-anchor="middle" x="418" y="-92.3" font-family="Times,serif" font-size="9.00">&#45;14</text>
</g>
<!-- &#45;14&#45;&gt;0 -->
<g id="edge10" class="edge">
<title>&#45;14&#45;&gt;0</title>
<path fill="none" stroke="green" stroke-width="0.43" d="M401.76,-88.18C365.74,-76.39 279,-48 236.01,-33.93"/>
<polygon fill="green" stroke="green" stroke-width="0.43" points="236.91,-30.55 226.32,-30.76 234.74,-37.2 236.91,-30.55"/>
</g>
</g>
</svg>
