<?xml version="1.0" encoding="UTF-8" standalone="no"?>
<!DOCTYPE svg PUBLIC "-//W3C//DTD SVG 1.1//EN"
 "http://www.w3.org/Graphics/SVG/1.1/DTD/svg11.dtd">
<!-- Generated by graphviz version 2.43.0 (0)
 -->
<!-- Title: %3 Pages: 1 -->
<svg width="254pt" height="95pt"
 viewBox="0.00 0.00 254.00 94.53" xmlns="http://www.w3.org/2000/svg" xmlns:xlink="http://www.w3.org/1999/xlink">
<g id="graph0" class="graph" transform="scale(1 1) rotate(0) translate(4 90.53)">
<title>%3</title>
<polygon fill="white" stroke="transparent" points="-4,4 -4,-90.53 250,-90.53 250,4 -4,4"/>
<!-- &#45;1 -->
<g id="node1" class="node">
<title>&#45;1</title>
<polygon fill="lightgray" stroke="black" points="26,-86.53 0,-86.53 0,-68.53 26,-68.53 26,-86.53"/>
<text text-anchor="middle" x="13" y="-75.33" font-family="Times,serif" font-size="9.00">&#45;1</text>
</g>
<!-- &#45;2 -->
<g id="node2" class="node">
<title>&#45;2</title>
<polygon fill="lightgray" stroke="black" points="70,-86.53 44,-86.53 44,-68.53 70,-68.53 70,-86.53"/>
<text text-anchor="middle" x="57" y="-75.33" font-family="Times,serif" font-size="9.00">&#45;2</text>
</g>
<!-- &#45;3 -->
<g id="node3" class="node">
<title>&#45;3</title>
<polygon fill="lightgray" stroke="black" points="114,-86.53 88,-86.53 88,-68.53 114,-68.53 114,-86.53"/>
<text text-anchor="middle" x="101" y="-75.33" font-family="Times,serif" font-size="9.00">&#45;3</text>
</g>
<!-- 0 -->
<g id="node7" class="node">
<title>0</title>
<ellipse fill="lightblue" stroke="black" cx="145" cy="-16.26" rx="16.03" ry="16.03"/>
<text text-anchor="middle" x="145" y="-14.06" font-family="Times,serif" font-size="9.00">0</text>
</g>
<!-- &#45;3&#45;&gt;0 -->
<g id="edge1" class="edge">
<title>&#45;3&#45;&gt;0</title>
<path fill="none" stroke="red" stroke-width="0.51" d="M107.12,-68.29C112.87,-60.53 121.73,-48.6 129.44,-38.22"/>
<polygon fill="red" stroke="red" stroke-width="0.51" points="132.4,-40.11 135.55,-30 126.78,-35.94 132.4,-40.11"/>
</g>
<!-- &#45;4 -->
<g id="node4" class="node">
<title>&#45;4</title>
<polygon fill="lightgray" stroke="black" points="158,-86.53 132,-86.53 132,-68.53 158,-68.53 158,-86.53"/>
<text text-anchor="middle" x="145" y="-75.33" font-family="Times,serif" font-size="9.00">&#45;4</text>
</g>
<!-- &#45;4&#45;&gt;0 -->
<g id="edge2" class="edge">
<title>&#45;4&#45;&gt;0</title>
<path fill="none" stroke="green" stroke-width="0.74" d="M145,-68.29C145,-61.7 145,-52.1 145,-43"/>
<polygon fill="green" stroke="green" stroke-width="0.74" points="148.5,-42.76 145,-32.76 141.5,-42.76 148.5,-42.76"/>
</g>
<!-- &#45;5 -->
<g id="node5" class="node">
<title>&#45;5</title>
<polygon fill="lightgray" stroke="black" points="202,-86.53 176,-86.53 176,-68.53 202,-68.53 202,-86.53"/>
<text text-anchor="middle" x="189" y="-75.33" font-family="Times,serif" font-size="9.00">&#45;5</text>
</g>
<!-- &#45;5&#45;&gt;0 -->
<g id="edge3" class="edge">
<title>&#45;5&#45;&gt;0</title>
<path fill="none" stroke="red" stroke-width="0.6" d="M182.88,-68.29C177.13,-60.53 168.27,-48.6 160.56,-38.22"/>
<polygon fill="red" stroke="red" stroke-width="0.6" points="163.22,-35.94 154.45,-30 157.6,-40.11 163.22,-35.94"/>
</g>
<!-- &#45;6 -->
<g id="node6" class="node">
<title>&#45;6</title>
<polygon fill="lightgray" stroke="black" points="246,-86.53 220,-86.53 220,-68.53 246,-68.53 246,-86.53"/>
<text text-anchor="middle" x="233" y="-75.33" font-family="Times,serif" font-size="9.00">&#45;6</text>
</g>
</g>
</svg>
