<?xml version="1.0" encoding="UTF-8" standalone="no"?>
<!DOCTYPE svg PUBLIC "-//W3C//DTD SVG 1.1//EN"
 "http://www.w3.org/Graphics/SVG/1.1/DTD/svg11.dtd">
<!-- Generated by graphviz version 2.43.0 (0)
 -->
<!-- Title: %3 Pages: 1 -->
<svg width="475pt" height="214pt"
 viewBox="0.00 0.00 474.99 213.97" xmlns="http://www.w3.org/2000/svg" xmlns:xlink="http://www.w3.org/1999/xlink">
<g id="graph0" class="graph" transform="scale(1 1) rotate(0) translate(4 209.97)">
<title>%3</title>
<polygon fill="white" stroke="transparent" points="-4,4 -4,-209.97 470.99,-209.97 470.99,4 -4,4"/>
<!-- &#45;1 -->
<g id="node1" class="node">
<title>&#45;1</title>
<polygon fill="lightgray" stroke="black" points="26,-131.97 0,-131.97 0,-113.97 26,-113.97 26,-131.97"/>
<text text-anchor="middle" x="13" y="-120.77" font-family="Times,serif" font-size="9.00">&#45;1</text>
</g>
<!-- 0 -->
<g id="node11" class="node">
<title>0</title>
<ellipse fill="lightblue" stroke="black" cx="210" cy="-28.99" rx="16.03" ry="16.03"/>
<text text-anchor="middle" x="210" y="-26.79" font-family="Times,serif" font-size="9.00">0</text>
</g>
<!-- &#45;1&#45;&gt;0 -->
<g id="edge1" class="edge">
<title>&#45;1&#45;&gt;0</title>
<path fill="none" stroke="green" stroke-width="0.21" stroke-dasharray="1,5" d="M17.81,-113.59C21.74,-107.41 27.8,-99.21 35,-93.98 81.51,-60.24 147.73,-42.52 183.91,-34.82"/>
<polygon fill="green" stroke="green" stroke-width="0.21" points="185.02,-38.17 194.12,-32.75 183.63,-31.31 185.02,-38.17"/>
</g>
<!-- &#45;2 -->
<g id="node2" class="node">
<title>&#45;2</title>
<polygon fill="lightgray" stroke="black" points="70,-131.97 44,-131.97 44,-113.97 70,-113.97 70,-131.97"/>
<text text-anchor="middle" x="57" y="-120.77" font-family="Times,serif" font-size="9.00">&#45;2</text>
</g>
<!-- &#45;2&#45;&gt;0 -->
<g id="edge2" class="edge">
<title>&#45;2&#45;&gt;0</title>
<path fill="none" stroke="red" stroke-width="0.31" stroke-dasharray="1,5" d="M61.97,-113.8C65.98,-107.73 72.08,-99.58 79,-93.98 111.65,-67.61 156.96,-48.55 184.84,-38.4"/>
<polygon fill="red" stroke="red" stroke-width="0.31" points="186.34,-41.58 194.6,-34.95 184.01,-34.98 186.34,-41.58"/>
</g>
<!-- &#45;3 -->
<g id="node3" class="node">
<title>&#45;3</title>
<polygon fill="lightgray" stroke="black" points="315,-205.97 289,-205.97 289,-187.97 315,-187.97 315,-205.97"/>
<text text-anchor="middle" x="302" y="-194.77" font-family="Times,serif" font-size="9.00">&#45;3</text>
</g>
<!-- &#45;4 -->
<g id="node4" class="node">
<title>&#45;4</title>
<polygon fill="lightgray" stroke="black" points="114,-131.97 88,-131.97 88,-113.97 114,-113.97 114,-131.97"/>
<text text-anchor="middle" x="101" y="-120.77" font-family="Times,serif" font-size="9.00">&#45;4</text>
</g>
<!-- &#45;4&#45;&gt;0 -->
<g id="edge3" class="edge">
<title>&#45;4&#45;&gt;0</title>
<path fill="none" stroke="green" stroke-width="2" d="M106.45,-113.9C110.62,-108.03 116.7,-100.09 123,-93.98 143.16,-74.45 169.5,-55.88 187.89,-43.83"/>
<polygon fill="green" stroke="green" stroke-width="2" points="189.95,-46.66 196.46,-38.3 186.16,-40.78 189.95,-46.66"/>
</g>
<!-- &#45;5 -->
<g id="node5" class="node">
<title>&#45;5</title>
<polygon fill="lightgray" stroke="black" points="158,-131.97 132,-131.97 132,-113.97 158,-113.97 158,-131.97"/>
<text text-anchor="middle" x="145" y="-120.77" font-family="Times,serif" font-size="9.00">&#45;5</text>
</g>
<!-- &#45;5&#45;&gt;0 -->
<g id="edge4" class="edge">
<title>&#45;5&#45;&gt;0</title>
<path fill="none" stroke="red" stroke-width="0.37" d="M150.77,-113.81C160.67,-99.79 181.21,-70.73 195.3,-50.8"/>
<polygon fill="red" stroke="red" stroke-width="0.37" points="198.16,-52.81 201.07,-42.63 192.44,-48.77 198.16,-52.81"/>
</g>
<!-- &#45;6 -->
<g id="node6" class="node">
<title>&#45;6</title>
<polygon fill="lightgray" stroke="black" points="202,-131.97 176,-131.97 176,-113.97 202,-113.97 202,-131.97"/>
<text text-anchor="middle" x="189" y="-120.77" font-family="Times,serif" font-size="9.00">&#45;6</text>
</g>
<!-- &#45;6&#45;&gt;0 -->
<g id="edge5" class="edge">
<title>&#45;6&#45;&gt;0</title>
<path fill="none" stroke="green" stroke-width="0.24" d="M190.86,-113.81C193.86,-100.69 199.86,-74.4 204.35,-54.74"/>
<polygon fill="green" stroke="green" stroke-width="0.24" points="207.78,-55.43 206.6,-44.9 200.96,-53.87 207.78,-55.43"/>
</g>
<!-- &#45;7 -->
<g id="node7" class="node">
<title>&#45;7</title>
<polygon fill="lightgray" stroke="black" points="271,-205.97 245,-205.97 245,-187.97 271,-187.97 271,-205.97"/>
<text text-anchor="middle" x="258" y="-194.77" font-family="Times,serif" font-size="9.00">&#45;7</text>
</g>
<!-- &#45;7&#45;&gt;0 -->
<g id="edge6" class="edge">
<title>&#45;7&#45;&gt;0</title>
<path fill="none" stroke="red" stroke-width="0.48" stroke-dasharray="1,5" d="M255.68,-187.96C248.79,-164.11 228.17,-92.81 217.14,-54.68"/>
<polygon fill="red" stroke="red" stroke-width="0.48" points="220.44,-53.51 214.3,-44.87 213.72,-55.45 220.44,-53.51"/>
</g>
<!-- 1008 -->
<g id="node13" class="node">
<title>1008</title>
<ellipse fill="white" stroke="black" cx="287" cy="-122.97" rx="28.98" ry="28.98"/>
<text text-anchor="middle" x="287" y="-120.77" font-family="Times,serif" font-size="9.00">1008</text>
</g>
<!-- &#45;7&#45;&gt;1008 -->
<g id="edge10" class="edge">
<title>&#45;7&#45;&gt;1008</title>
<path fill="none" stroke="red" stroke-width="0.79" d="M261.33,-187.71C264.15,-180.69 268.41,-170.12 272.65,-159.59"/>
<polygon fill="red" stroke="red" stroke-width="0.79" points="276.01,-160.61 276.5,-150.03 269.52,-158 276.01,-160.61"/>
</g>
<!-- &#45;8 -->
<g id="node8" class="node">
<title>&#45;8</title>
<polygon fill="lightgray" stroke="black" points="360,-131.97 334,-131.97 334,-113.97 360,-113.97 360,-131.97"/>
<text text-anchor="middle" x="347" y="-120.77" font-family="Times,serif" font-size="9.00">&#45;8</text>
</g>
<!-- &#45;8&#45;&gt;0 -->
<g id="edge7" class="edge">
<title>&#45;8&#45;&gt;0</title>
<path fill="none" stroke="green" stroke-width="0.26" d="M341.94,-113.91C337.89,-107.89 331.77,-99.76 325,-93.98 297.04,-70.13 258.82,-50.99 234.27,-40.06"/>
<polygon fill="green" stroke="green" stroke-width="0.26" points="235.53,-36.79 224.96,-36.01 232.74,-43.21 235.53,-36.79"/>
</g>
<!-- &#45;9 -->
<g id="node9" class="node">
<title>&#45;9</title>
<polygon fill="lightgray" stroke="black" points="404,-131.97 378,-131.97 378,-113.97 404,-113.97 404,-131.97"/>
<text text-anchor="middle" x="391" y="-120.77" font-family="Times,serif" font-size="9.00">&#45;9</text>
</g>
<!-- &#45;9&#45;&gt;0 -->
<g id="edge8" class="edge">
<title>&#45;9&#45;&gt;0</title>
<path fill="none" stroke="red" stroke-width="0.87" stroke-dasharray="1,5" d="M386.14,-113.66C382.19,-107.51 376.12,-99.32 369,-93.98 327.55,-62.88 268.91,-44.48 235.65,-35.9"/>
<polygon fill="red" stroke="red" stroke-width="0.87" points="236.35,-32.46 225.8,-33.45 234.66,-39.26 236.35,-32.46"/>
</g>
<!-- &#45;10 -->
<g id="node10" class="node">
<title>&#45;10</title>
<polygon fill="lightgray" stroke="black" points="454,-131.97 422,-131.97 422,-113.97 454,-113.97 454,-131.97"/>
<text text-anchor="middle" x="438" y="-120.77" font-family="Times,serif" font-size="9.00">&#45;10</text>
</g>
<!-- &#45;10&#45;&gt;0 -->
<g id="edge12" class="edge">
<title>&#45;10&#45;&gt;0</title>
<path fill="none" stroke="red" stroke-width="0.12" d="M432.55,-113.77C428,-107.52 420.99,-99.14 413,-93.98 356.14,-57.25 276.7,-40.32 236.11,-33.66"/>
<polygon fill="red" stroke="red" stroke-width="0.12" points="236.4,-30.16 225.98,-32.08 235.32,-37.08 236.4,-30.16"/>
</g>
<!-- 1001 -->
<g id="node12" class="node">
<title>1001</title>
<ellipse fill="white" stroke="black" cx="438" cy="-28.99" rx="28.98" ry="28.98"/>
<text text-anchor="middle" x="438" y="-26.79" font-family="Times,serif" font-size="9.00">1001</text>
</g>
<!-- &#45;10&#45;&gt;1001 -->
<g id="edge9" class="edge">
<title>&#45;10&#45;&gt;1001</title>
<path fill="none" stroke="red" stroke-width="1.5" d="M438,-113.81C438,-103.54 438,-85.2 438,-68.29"/>
<polygon fill="red" stroke="red" stroke-width="1.5" points="441.5,-68.03 438,-58.03 434.5,-68.03 441.5,-68.03"/>
</g>
<!-- 1008&#45;&gt;0 -->
<g id="edge11" class="edge">
<title>1008&#45;&gt;0</title>
<path fill="none" stroke="green" stroke-width="0.39" d="M268.75,-100.18C256.04,-84.99 239.2,-64.88 226.82,-50.08"/>
<polygon fill="green" stroke="green" stroke-width="0.39" points="229.2,-47.48 220.1,-42.06 223.83,-51.97 229.2,-47.48"/>
</g>
</g>
</svg>
