<?xml version="1.0" encoding="UTF-8" standalone="no"?>
<!DOCTYPE svg PUBLIC "-//W3C//DTD SVG 1.1//EN"
 "http://www.w3.org/Graphics/SVG/1.1/DTD/svg11.dtd">
<!-- Generated by graphviz version 2.43.0 (0)
 -->
<!-- Title: %3 Pages: 1 -->
<svg width="572pt" height="257pt"
 viewBox="0.00 0.00 571.75 257.04" xmlns="http://www.w3.org/2000/svg" xmlns:xlink="http://www.w3.org/1999/xlink">
<g id="graph0" class="graph" transform="scale(1 1) rotate(0) translate(4 253.04)">
<title>%3</title>
<polygon fill="white" stroke="transparent" points="-4,4 -4,-253.04 567.75,-253.04 567.75,4 -4,4"/>
<!-- &#45;1 -->
<g id="node1" class="node">
<title>&#45;1</title>
<polygon fill="lightgray" stroke="black" points="26,-102.28 0,-102.28 0,-84.28 26,-84.28 26,-102.28"/>
<text text-anchor="middle" x="13" y="-91.08" font-family="Times,serif" font-size="9.00">&#45;1</text>
</g>
<!-- 0 -->
<g id="node15" class="node">
<title>0</title>
<ellipse fill="lightblue" stroke="black" cx="267" cy="-16.26" rx="16.03" ry="16.03"/>
<text text-anchor="middle" x="267" y="-14.06" font-family="Times,serif" font-size="9.00">0</text>
</g>
<!-- &#45;1&#45;&gt;0 -->
<g id="edge1" class="edge">
<title>&#45;1&#45;&gt;0</title>
<path fill="none" stroke="green" stroke-width="0.11" d="M18.6,-84.02C22.57,-78.79 28.37,-72.33 35,-68.53 102.11,-30.05 195.4,-20.44 240.5,-18.05"/>
<polygon fill="green" stroke="green" stroke-width="0.11" points="240.79,-21.54 250.63,-17.59 240.48,-14.54 240.79,-21.54"/>
</g>
<!-- &#45;2 -->
<g id="node2" class="node">
<title>&#45;2</title>
<polygon fill="lightgray" stroke="black" points="204,-249.04 178,-249.04 178,-231.04 204,-231.04 204,-249.04"/>
<text text-anchor="middle" x="191" y="-237.84" font-family="Times,serif" font-size="9.00">&#45;2</text>
</g>
<!-- &#45;3 -->
<g id="node3" class="node">
<title>&#45;3</title>
<polygon fill="lightgray" stroke="black" points="248,-249.04 222,-249.04 222,-231.04 248,-231.04 248,-249.04"/>
<text text-anchor="middle" x="235" y="-237.84" font-family="Times,serif" font-size="9.00">&#45;3</text>
</g>
<!-- &#45;4 -->
<g id="node4" class="node">
<title>&#45;4</title>
<polygon fill="lightgray" stroke="black" points="70,-102.28 44,-102.28 44,-84.28 70,-84.28 70,-102.28"/>
<text text-anchor="middle" x="57" y="-91.08" font-family="Times,serif" font-size="9.00">&#45;4</text>
</g>
<!-- &#45;4&#45;&gt;0 -->
<g id="edge2" class="edge">
<title>&#45;4&#45;&gt;0</title>
<path fill="none" stroke="red" stroke-width="1.89" d="M64.32,-84.18C69.38,-79.03 76.54,-72.58 84,-68.53 135.73,-40.45 204.23,-26.61 241,-20.8"/>
<polygon fill="red" stroke="red" stroke-width="1.89" points="241.55,-24.26 250.92,-19.31 240.51,-17.33 241.55,-24.26"/>
</g>
<!-- &#45;5 -->
<g id="node5" class="node">
<title>&#45;5</title>
<polygon fill="lightgray" stroke="black" points="114,-249.04 88,-249.04 88,-231.04 114,-231.04 114,-249.04"/>
<text text-anchor="middle" x="101" y="-237.84" font-family="Times,serif" font-size="9.00">&#45;5</text>
</g>
<!-- &#45;5&#45;&gt;0 -->
<g id="edge3" class="edge">
<title>&#45;5&#45;&gt;0</title>
<path fill="none" stroke="red" stroke-width="0.52" stroke-dasharray="1,5" d="M100.17,-230.73C97.96,-203.75 94.67,-117.52 137,-68.53 163.56,-37.79 210.99,-25.33 240.62,-20.39"/>
<polygon fill="red" stroke="red" stroke-width="0.52" points="241.29,-23.83 250.67,-18.89 240.26,-16.9 241.29,-23.83"/>
</g>
<!-- 28 -->
<g id="node17" class="node">
<title>28</title>
<ellipse fill="white" stroke="black" cx="147" cy="-174.53" rx="20.51" ry="20.51"/>
<text text-anchor="middle" x="147" y="-172.33" font-family="Times,serif" font-size="9.00">28</text>
</g>
<!-- &#45;5&#45;&gt;28 -->
<g id="edge10" class="edge">
<title>&#45;5&#45;&gt;28</title>
<path fill="none" stroke="red" stroke-width="1.21" stroke-dasharray="1,5" d="M106.83,-230.99C112.53,-223.12 121.5,-210.73 129.52,-199.66"/>
<polygon fill="red" stroke="red" stroke-width="1.21" points="132.37,-201.69 135.4,-191.54 126.7,-197.59 132.37,-201.69"/>
</g>
<!-- &#45;6 -->
<g id="node6" class="node">
<title>&#45;6</title>
<polygon fill="lightgray" stroke="black" points="258,-102.28 232,-102.28 232,-84.28 258,-84.28 258,-102.28"/>
<text text-anchor="middle" x="245" y="-91.08" font-family="Times,serif" font-size="9.00">&#45;6</text>
</g>
<!-- &#45;6&#45;&gt;0 -->
<g id="edge4" class="edge">
<title>&#45;6&#45;&gt;0</title>
<path fill="none" stroke="green" stroke-width="0.52" d="M247.35,-84.25C250.28,-74.27 255.41,-56.78 259.69,-42.17"/>
<polygon fill="green" stroke="green" stroke-width="0.52" points="263.16,-42.78 262.62,-32.2 256.45,-40.81 263.16,-42.78"/>
</g>
<!-- &#45;7 -->
<g id="node7" class="node">
<title>&#45;7</title>
<polygon fill="lightgray" stroke="black" points="302,-102.28 276,-102.28 276,-84.28 302,-84.28 302,-102.28"/>
<text text-anchor="middle" x="289" y="-91.08" font-family="Times,serif" font-size="9.00">&#45;7</text>
</g>
<!-- &#45;7&#45;&gt;0 -->
<g id="edge5" class="edge">
<title>&#45;7&#45;&gt;0</title>
<path fill="none" stroke="green" stroke-width="0.23" d="M286.65,-84.25C283.72,-74.27 278.59,-56.78 274.31,-42.17"/>
<polygon fill="green" stroke="green" stroke-width="0.23" points="277.55,-40.81 271.38,-32.2 270.84,-42.78 277.55,-40.81"/>
</g>
<!-- &#45;8 -->
<g id="node8" class="node">
<title>&#45;8</title>
<polygon fill="lightgray" stroke="black" points="160,-249.04 134,-249.04 134,-231.04 160,-231.04 160,-249.04"/>
<text text-anchor="middle" x="147" y="-237.84" font-family="Times,serif" font-size="9.00">&#45;8</text>
</g>
<!-- &#45;8&#45;&gt;28 -->
<g id="edge12" class="edge">
<title>&#45;8&#45;&gt;28</title>
<path fill="none" stroke="red" stroke-width="0.46" d="M147,-230.99C147,-224.42 147,-214.71 147,-205.24"/>
<polygon fill="red" stroke="red" stroke-width="0.46" points="150.5,-205.22 147,-195.22 143.5,-205.22 150.5,-205.22"/>
</g>
<!-- &#45;9 -->
<g id="node9" class="node">
<title>&#45;9</title>
<polygon fill="lightgray" stroke="black" points="346,-102.28 320,-102.28 320,-84.28 346,-84.28 346,-102.28"/>
<text text-anchor="middle" x="333" y="-91.08" font-family="Times,serif" font-size="9.00">&#45;9</text>
</g>
<!-- &#45;9&#45;&gt;0 -->
<g id="edge6" class="edge">
<title>&#45;9&#45;&gt;0</title>
<path fill="none" stroke="red" stroke-width="1.69" stroke-dasharray="1,5" d="M325.94,-84.25C315.97,-72.92 297.47,-51.9 283.85,-36.41"/>
<polygon fill="red" stroke="red" stroke-width="1.69" points="286.47,-34.1 277.24,-28.9 281.22,-38.72 286.47,-34.1"/>
</g>
<!-- &#45;10 -->
<g id="node10" class="node">
<title>&#45;10</title>
<polygon fill="lightgray" stroke="black" points="396,-102.28 364,-102.28 364,-84.28 396,-84.28 396,-102.28"/>
<text text-anchor="middle" x="380" y="-91.08" font-family="Times,serif" font-size="9.00">&#45;10</text>
</g>
<!-- &#45;10&#45;&gt;0 -->
<g id="edge7" class="edge">
<title>&#45;10&#45;&gt;0</title>
<path fill="none" stroke="red" stroke-width="1.3" d="M372.1,-83.85C367.38,-79.06 361.13,-73.13 355,-68.53 334.38,-53.06 308.7,-38.58 290.42,-28.98"/>
<polygon fill="red" stroke="red" stroke-width="1.3" points="291.84,-25.78 281.35,-24.3 288.63,-32 291.84,-25.78"/>
</g>
<!-- &#45;11 -->
<g id="node11" class="node">
<title>&#45;11</title>
<polygon fill="lightgray" stroke="black" points="298,-249.04 266,-249.04 266,-231.04 298,-231.04 298,-249.04"/>
<text text-anchor="middle" x="282" y="-237.84" font-family="Times,serif" font-size="9.00">&#45;11</text>
</g>
<!-- &#45;12 -->
<g id="node12" class="node">
<title>&#45;12</title>
<polygon fill="lightgray" stroke="black" points="446,-102.28 414,-102.28 414,-84.28 446,-84.28 446,-102.28"/>
<text text-anchor="middle" x="430" y="-91.08" font-family="Times,serif" font-size="9.00">&#45;12</text>
</g>
<!-- &#45;12&#45;&gt;0 -->
<g id="edge8" class="edge">
<title>&#45;12&#45;&gt;0</title>
<path fill="none" stroke="green" stroke-width="0.57" stroke-dasharray="1,5" d="M422.8,-83.9C418.14,-78.89 411.7,-72.71 405,-68.53 368.88,-46 321.35,-31.09 292.54,-23.41"/>
<polygon fill="green" stroke="green" stroke-width="0.57" points="293.39,-20.02 282.83,-20.92 291.65,-26.8 293.39,-20.02"/>
</g>
<!-- &#45;13 -->
<g id="node13" class="node">
<title>&#45;13</title>
<polygon fill="lightgray" stroke="black" points="496,-102.28 464,-102.28 464,-84.28 496,-84.28 496,-102.28"/>
<text text-anchor="middle" x="480" y="-91.08" font-family="Times,serif" font-size="9.00">&#45;13</text>
</g>
<!-- &#45;13&#45;&gt;0 -->
<g id="edge9" class="edge">
<title>&#45;13&#45;&gt;0</title>
<path fill="none" stroke="red" stroke-width="0.46" d="M473.35,-84.15C468.71,-78.98 462.09,-72.52 455,-68.53 402.15,-38.76 331.11,-25.54 293.28,-20.29"/>
<polygon fill="red" stroke="red" stroke-width="0.46" points="293.47,-16.79 283.1,-18.97 292.56,-23.73 293.47,-16.79"/>
</g>
<!-- &#45;14 -->
<g id="node14" class="node">
<title>&#45;14</title>
<polygon fill="lightgray" stroke="black" points="555,-183.53 523,-183.53 523,-165.53 555,-165.53 555,-183.53"/>
<text text-anchor="middle" x="539" y="-172.33" font-family="Times,serif" font-size="9.00">&#45;14</text>
</g>
<!-- 342 -->
<g id="node18" class="node">
<title>342</title>
<ellipse fill="white" stroke="black" cx="539" cy="-93.28" rx="25" ry="25"/>
<text text-anchor="middle" x="539" y="-91.08" font-family="Times,serif" font-size="9.00">342</text>
</g>
<!-- &#45;14&#45;&gt;342 -->
<g id="edge13" class="edge">
<title>&#45;14&#45;&gt;342</title>
<path fill="none" stroke="green" stroke-width="1.52" d="M539,-165.35C539,-156.59 539,-142.1 539,-128.49"/>
<polygon fill="green" stroke="green" stroke-width="1.52" points="542.5,-128.35 539,-118.35 535.5,-128.35 542.5,-128.35"/>
</g>
<!-- 698 -->
<g id="node16" class="node">
<title>698</title>
<ellipse fill="white" stroke="black" cx="189" cy="-93.28" rx="25" ry="25"/>
<text text-anchor="middle" x="189" y="-91.08" font-family="Times,serif" font-size="9.00">698</text>
</g>
<!-- 698&#45;&gt;0 -->
<g id="edge16" class="edge">
<title>698&#45;&gt;0</title>
<path fill="none" stroke="green" stroke-width="0.77" d="M206.7,-75.25C219.06,-63.37 235.53,-47.53 248.14,-35.4"/>
<polygon fill="green" stroke="green" stroke-width="0.77" points="250.63,-37.86 255.41,-28.4 245.78,-32.81 250.63,-37.86"/>
</g>
<!-- 28&#45;&gt;0 -->
<g id="edge11" class="edge">
<title>28&#45;&gt;0</title>
<path fill="none" stroke="green" stroke-width="1.29" stroke-dasharray="1,5" d="M143.02,-154.17C139.5,-131.52 137.33,-93.87 155,-68.53 174.78,-40.16 214.26,-27.17 240.66,-21.46"/>
<polygon fill="green" stroke="green" stroke-width="1.29" points="241.6,-24.84 250.75,-19.49 240.26,-17.97 241.6,-24.84"/>
</g>
<!-- 28&#45;&gt;698 -->
<g id="edge15" class="edge">
<title>28&#45;&gt;698</title>
<path fill="none" stroke="green" stroke-width="0.26" d="M156.32,-155.94C161.22,-146.7 167.36,-135.11 172.99,-124.49"/>
<polygon fill="green" stroke="green" stroke-width="0.26" points="176.17,-125.95 177.76,-115.48 169.99,-122.68 176.17,-125.95"/>
</g>
<!-- 342&#45;&gt;0 -->
<g id="edge14" class="edge">
<title>342&#45;&gt;0</title>
<path fill="none" stroke="green" stroke-width="0.43" d="M520.01,-77.05C515.32,-73.85 510.15,-70.77 505,-68.53 432.33,-36.86 338.41,-24.08 293.37,-19.51"/>
<polygon fill="green" stroke="green" stroke-width="0.43" points="293.55,-16.01 283.27,-18.54 292.89,-22.98 293.55,-16.01"/>
</g>
</g>
</svg>
