<?xml version="1.0" encoding="UTF-8" standalone="no"?>
<!DOCTYPE svg PUBLIC "-//W3C//DTD SVG 1.1//EN"
 "http://www.w3.org/Graphics/SVG/1.1/DTD/svg11.dtd">
<!-- Generated by graphviz version 2.43.0 (0)
 -->
<!-- Title: %3 Pages: 1 -->
<svg width="1936pt" height="95pt"
 viewBox="0.00 0.00 1936.00 94.53" xmlns="http://www.w3.org/2000/svg" xmlns:xlink="http://www.w3.org/1999/xlink">
<g id="graph0" class="graph" transform="scale(1 1) rotate(0) translate(4 90.53)">
<title>%3</title>
<polygon fill="white" stroke="transparent" points="-4,4 -4,-90.53 1932,-90.53 1932,4 -4,4"/>
<!-- &#45;1 -->
<g id="node1" class="node">
<title>&#45;1</title>
<polygon fill="lightgray" stroke="black" points="176,-86.53 150,-86.53 150,-68.53 176,-68.53 176,-86.53"/>
<text text-anchor="middle" x="163" y="-75.33" font-family="Times,serif" font-size="9.00">&#45;1</text>
</g>
<!-- 3 -->
<g id="node44" class="node">
<title>3</title>
<ellipse fill="lightblue" stroke="black" cx="235" cy="-16.26" rx="16.03" ry="16.03"/>
<text text-anchor="middle" x="235" y="-14.06" font-family="Times,serif" font-size="9.00">3</text>
</g>
<!-- &#45;1&#45;&gt;3 -->
<g id="edge14" class="edge">
<title>&#45;1&#45;&gt;3</title>
<path fill="none" stroke="red" stroke-width="0.25" d="M173.01,-68.29C183.76,-59.44 201.14,-45.14 214.76,-33.92"/>
<polygon fill="red" stroke="red" stroke-width="0.25" points="217.17,-36.47 222.66,-27.42 212.72,-31.07 217.17,-36.47"/>
</g>
<!-- &#45;2 -->
<g id="node2" class="node">
<title>&#45;2</title>
<polygon fill="lightgray" stroke="black" points="608,-86.53 582,-86.53 582,-68.53 608,-68.53 608,-86.53"/>
<text text-anchor="middle" x="595" y="-75.33" font-family="Times,serif" font-size="9.00">&#45;2</text>
</g>
<!-- &#45;3 -->
<g id="node3" class="node">
<title>&#45;3</title>
<polygon fill="lightgray" stroke="black" points="652,-86.53 626,-86.53 626,-68.53 652,-68.53 652,-86.53"/>
<text text-anchor="middle" x="639" y="-75.33" font-family="Times,serif" font-size="9.00">&#45;3</text>
</g>
<!-- &#45;4 -->
<g id="node4" class="node">
<title>&#45;4</title>
<polygon fill="lightgray" stroke="black" points="696,-86.53 670,-86.53 670,-68.53 696,-68.53 696,-86.53"/>
<text text-anchor="middle" x="683" y="-75.33" font-family="Times,serif" font-size="9.00">&#45;4</text>
</g>
<!-- &#45;5 -->
<g id="node5" class="node">
<title>&#45;5</title>
<polygon fill="lightgray" stroke="black" points="740,-86.53 714,-86.53 714,-68.53 740,-68.53 740,-86.53"/>
<text text-anchor="middle" x="727" y="-75.33" font-family="Times,serif" font-size="9.00">&#45;5</text>
</g>
<!-- &#45;6 -->
<g id="node6" class="node">
<title>&#45;6</title>
<polygon fill="lightgray" stroke="black" points="784,-86.53 758,-86.53 758,-68.53 784,-68.53 784,-86.53"/>
<text text-anchor="middle" x="771" y="-75.33" font-family="Times,serif" font-size="9.00">&#45;6</text>
</g>
<!-- &#45;7 -->
<g id="node7" class="node">
<title>&#45;7</title>
<polygon fill="lightgray" stroke="black" points="464,-86.53 438,-86.53 438,-68.53 464,-68.53 464,-86.53"/>
<text text-anchor="middle" x="451" y="-75.33" font-family="Times,serif" font-size="9.00">&#45;7</text>
</g>
<!-- 0 -->
<g id="node41" class="node">
<title>0</title>
<ellipse fill="lightblue" stroke="black" cx="474" cy="-16.26" rx="16.03" ry="16.03"/>
<text text-anchor="middle" x="474" y="-14.06" font-family="Times,serif" font-size="9.00">0</text>
</g>
<!-- &#45;7&#45;&gt;0 -->
<g id="edge12" class="edge">
<title>&#45;7&#45;&gt;0</title>
<path fill="none" stroke="red" stroke-width="0.52" d="M454.2,-68.29C456.91,-61.3 460.94,-50.91 464.66,-41.33"/>
<polygon fill="red" stroke="red" stroke-width="0.52" points="468,-42.41 468.35,-31.82 461.47,-39.87 468,-42.41"/>
</g>
<!-- &#45;8 -->
<g id="node8" class="node">
<title>&#45;8</title>
<polygon fill="lightgray" stroke="black" points="420,-86.53 394,-86.53 394,-68.53 420,-68.53 420,-86.53"/>
<text text-anchor="middle" x="407" y="-75.33" font-family="Times,serif" font-size="9.00">&#45;8</text>
</g>
<!-- &#45;8&#45;&gt;0 -->
<g id="edge13" class="edge">
<title>&#45;8&#45;&gt;0</title>
<path fill="none" stroke="red" stroke-width="0.47" d="M416.32,-68.29C426.11,-59.62 441.8,-45.74 454.35,-34.64"/>
<polygon fill="red" stroke="red" stroke-width="0.47" points="456.88,-37.08 462.05,-27.83 452.24,-31.84 456.88,-37.08"/>
</g>
<!-- 2 -->
<g id="node43" class="node">
<title>2</title>
<ellipse fill="lightblue" stroke="black" cx="360" cy="-16.26" rx="16.03" ry="16.03"/>
<text text-anchor="middle" x="360" y="-14.06" font-family="Times,serif" font-size="9.00">2</text>
</g>
<!-- &#45;8&#45;&gt;2 -->
<g id="edge9" class="edge">
<title>&#45;8&#45;&gt;2</title>
<path fill="none" stroke="green" stroke-width="0.35" d="M400.46,-68.29C394.18,-60.36 384.42,-48.05 376.06,-37.51"/>
<polygon fill="green" stroke="green" stroke-width="0.35" points="378.7,-35.21 369.75,-29.55 373.22,-39.56 378.7,-35.21"/>
</g>
<!-- &#45;9 -->
<g id="node9" class="node">
<title>&#45;9</title>
<polygon fill="lightgray" stroke="black" points="828,-86.53 802,-86.53 802,-68.53 828,-68.53 828,-86.53"/>
<text text-anchor="middle" x="815" y="-75.33" font-family="Times,serif" font-size="9.00">&#45;9</text>
</g>
<!-- &#45;10 -->
<g id="node10" class="node">
<title>&#45;10</title>
<polygon fill="lightgray" stroke="black" points="878,-86.53 846,-86.53 846,-68.53 878,-68.53 878,-86.53"/>
<text text-anchor="middle" x="862" y="-75.33" font-family="Times,serif" font-size="9.00">&#45;10</text>
</g>
<!-- &#45;11 -->
<g id="node11" class="node">
<title>&#45;11</title>
<polygon fill="lightgray" stroke="black" points="928,-86.53 896,-86.53 896,-68.53 928,-68.53 928,-86.53"/>
<text text-anchor="middle" x="912" y="-75.33" font-family="Times,serif" font-size="9.00">&#45;11</text>
</g>
<!-- &#45;12 -->
<g id="node12" class="node">
<title>&#45;12</title>
<polygon fill="lightgray" stroke="black" points="978,-86.53 946,-86.53 946,-68.53 978,-68.53 978,-86.53"/>
<text text-anchor="middle" x="962" y="-75.33" font-family="Times,serif" font-size="9.00">&#45;12</text>
</g>
<!-- &#45;13 -->
<g id="node13" class="node">
<title>&#45;13</title>
<polygon fill="lightgray" stroke="black" points="132,-86.53 100,-86.53 100,-68.53 132,-68.53 132,-86.53"/>
<text text-anchor="middle" x="116" y="-75.33" font-family="Times,serif" font-size="9.00">&#45;13</text>
</g>
<!-- 1 -->
<g id="node42" class="node">
<title>1</title>
<ellipse fill="lightblue" stroke="black" cx="66" cy="-16.26" rx="16.03" ry="16.03"/>
<text text-anchor="middle" x="66" y="-14.06" font-family="Times,serif" font-size="9.00">1</text>
</g>
<!-- &#45;13&#45;&gt;1 -->
<g id="edge5" class="edge">
<title>&#45;13&#45;&gt;1</title>
<path fill="none" stroke="red" stroke-width="0.25" d="M109.05,-68.29C102.21,-60.18 91.5,-47.49 82.48,-36.79"/>
<polygon fill="red" stroke="red" stroke-width="0.25" points="85.12,-34.5 76,-29.11 79.77,-39.01 85.12,-34.5"/>
</g>
<!-- &#45;13&#45;&gt;3 -->
<g id="edge1" class="edge">
<title>&#45;13&#45;&gt;3</title>
<path fill="none" stroke="red" stroke-width="0.14" d="M132.05,-68.53C152.48,-58.36 187.93,-40.7 211.43,-29"/>
<polygon fill="red" stroke="red" stroke-width="0.14" points="213.3,-31.98 220.69,-24.39 210.18,-25.71 213.3,-31.98"/>
</g>
<!-- &#45;14 -->
<g id="node14" class="node">
<title>&#45;14</title>
<polygon fill="lightgray" stroke="black" points="1028,-86.53 996,-86.53 996,-68.53 1028,-68.53 1028,-86.53"/>
<text text-anchor="middle" x="1012" y="-75.33" font-family="Times,serif" font-size="9.00">&#45;14</text>
</g>
<!-- &#45;15 -->
<g id="node15" class="node">
<title>&#45;15</title>
<polygon fill="lightgray" stroke="black" points="514,-86.53 482,-86.53 482,-68.53 514,-68.53 514,-86.53"/>
<text text-anchor="middle" x="498" y="-75.33" font-family="Times,serif" font-size="9.00">&#45;15</text>
</g>
<!-- &#45;15&#45;&gt;0 -->
<g id="edge3" class="edge">
<title>&#45;15&#45;&gt;0</title>
<path fill="none" stroke="red" stroke-width="0.31" d="M494.66,-68.29C491.83,-61.3 487.63,-50.91 483.75,-41.33"/>
<polygon fill="red" stroke="red" stroke-width="0.31" points="486.89,-39.77 479.89,-31.82 480.4,-42.4 486.89,-39.77"/>
</g>
<!-- &#45;16 -->
<g id="node16" class="node">
<title>&#45;16</title>
<polygon fill="lightgray" stroke="black" points="1078,-86.53 1046,-86.53 1046,-68.53 1078,-68.53 1078,-86.53"/>
<text text-anchor="middle" x="1062" y="-75.33" font-family="Times,serif" font-size="9.00">&#45;16</text>
</g>
<!-- &#45;17 -->
<g id="node17" class="node">
<title>&#45;17</title>
<polygon fill="lightgray" stroke="black" points="1128,-86.53 1096,-86.53 1096,-68.53 1128,-68.53 1128,-86.53"/>
<text text-anchor="middle" x="1112" y="-75.33" font-family="Times,serif" font-size="9.00">&#45;17</text>
</g>
<!-- &#45;18 -->
<g id="node18" class="node">
<title>&#45;18</title>
<polygon fill="lightgray" stroke="black" points="1178,-86.53 1146,-86.53 1146,-68.53 1178,-68.53 1178,-86.53"/>
<text text-anchor="middle" x="1162" y="-75.33" font-family="Times,serif" font-size="9.00">&#45;18</text>
</g>
<!-- &#45;19 -->
<g id="node19" class="node">
<title>&#45;19</title>
<polygon fill="lightgray" stroke="black" points="32,-86.53 0,-86.53 0,-68.53 32,-68.53 32,-86.53"/>
<text text-anchor="middle" x="16" y="-75.33" font-family="Times,serif" font-size="9.00">&#45;19</text>
</g>
<!-- &#45;19&#45;&gt;1 -->
<g id="edge15" class="edge">
<title>&#45;19&#45;&gt;1</title>
<path fill="none" stroke="red" stroke-width="0.1" d="M22.95,-68.29C29.79,-60.18 40.5,-47.49 49.52,-36.79"/>
<polygon fill="red" stroke="red" stroke-width="0.1" points="52.23,-39.01 56,-29.11 46.88,-34.5 52.23,-39.01"/>
</g>
<!-- &#45;20 -->
<g id="node20" class="node">
<title>&#45;20</title>
<polygon fill="lightgray" stroke="black" points="564,-86.53 532,-86.53 532,-68.53 564,-68.53 564,-86.53"/>
<text text-anchor="middle" x="548" y="-75.33" font-family="Times,serif" font-size="9.00">&#45;20</text>
</g>
<!-- &#45;20&#45;&gt;0 -->
<g id="edge2" class="edge">
<title>&#45;20&#45;&gt;0</title>
<path fill="none" stroke="green" stroke-width="0.28" d="M537.71,-68.29C526.59,-59.38 508.59,-44.97 494.55,-33.72"/>
<polygon fill="green" stroke="green" stroke-width="0.28" points="496.42,-30.73 486.42,-27.21 492.04,-36.2 496.42,-30.73"/>
</g>
<!-- &#45;21 -->
<g id="node21" class="node">
<title>&#45;21</title>
<polygon fill="lightgray" stroke="black" points="1228,-86.53 1196,-86.53 1196,-68.53 1228,-68.53 1228,-86.53"/>
<text text-anchor="middle" x="1212" y="-75.33" font-family="Times,serif" font-size="9.00">&#45;21</text>
</g>
<!-- &#45;22 -->
<g id="node22" class="node">
<title>&#45;22</title>
<polygon fill="lightgray" stroke="black" points="1278,-86.53 1246,-86.53 1246,-68.53 1278,-68.53 1278,-86.53"/>
<text text-anchor="middle" x="1262" y="-75.33" font-family="Times,serif" font-size="9.00">&#45;22</text>
</g>
<!-- &#45;23 -->
<g id="node23" class="node">
<title>&#45;23</title>
<polygon fill="lightgray" stroke="black" points="1328,-86.53 1296,-86.53 1296,-68.53 1328,-68.53 1328,-86.53"/>
<text text-anchor="middle" x="1312" y="-75.33" font-family="Times,serif" font-size="9.00">&#45;23</text>
</g>
<!-- &#45;24 -->
<g id="node24" class="node">
<title>&#45;24</title>
<polygon fill="lightgray" stroke="black" points="82,-86.53 50,-86.53 50,-68.53 82,-68.53 82,-86.53"/>
<text text-anchor="middle" x="66" y="-75.33" font-family="Times,serif" font-size="9.00">&#45;24</text>
</g>
<!-- &#45;24&#45;&gt;1 -->
<g id="edge10" class="edge">
<title>&#45;24&#45;&gt;1</title>
<path fill="none" stroke="red" stroke-width="0.27" d="M66,-68.29C66,-61.7 66,-52.1 66,-43"/>
<polygon fill="red" stroke="red" stroke-width="0.27" points="69.5,-42.76 66,-32.76 62.5,-42.76 69.5,-42.76"/>
</g>
<!-- &#45;25 -->
<g id="node25" class="node">
<title>&#45;25</title>
<polygon fill="lightgray" stroke="black" points="1378,-86.53 1346,-86.53 1346,-68.53 1378,-68.53 1378,-86.53"/>
<text text-anchor="middle" x="1362" y="-75.33" font-family="Times,serif" font-size="9.00">&#45;25</text>
</g>
<!-- &#45;26 -->
<g id="node26" class="node">
<title>&#45;26</title>
<polygon fill="lightgray" stroke="black" points="226,-86.53 194,-86.53 194,-68.53 226,-68.53 226,-86.53"/>
<text text-anchor="middle" x="210" y="-75.33" font-family="Times,serif" font-size="9.00">&#45;26</text>
</g>
<!-- &#45;26&#45;&gt;3 -->
<g id="edge11" class="edge">
<title>&#45;26&#45;&gt;3</title>
<path fill="none" stroke="red" stroke-width="0.26" d="M213.48,-68.29C216.45,-61.23 220.9,-50.7 224.97,-41.03"/>
<polygon fill="red" stroke="red" stroke-width="0.26" points="228.2,-42.39 228.86,-31.82 221.75,-39.67 228.2,-42.39"/>
</g>
<!-- &#45;27 -->
<g id="node27" class="node">
<title>&#45;27</title>
<polygon fill="lightgray" stroke="black" points="1428,-86.53 1396,-86.53 1396,-68.53 1428,-68.53 1428,-86.53"/>
<text text-anchor="middle" x="1412" y="-75.33" font-family="Times,serif" font-size="9.00">&#45;27</text>
</g>
<!-- &#45;28 -->
<g id="node28" class="node">
<title>&#45;28</title>
<polygon fill="lightgray" stroke="black" points="1478,-86.53 1446,-86.53 1446,-68.53 1478,-68.53 1478,-86.53"/>
<text text-anchor="middle" x="1462" y="-75.33" font-family="Times,serif" font-size="9.00">&#45;28</text>
</g>
<!-- &#45;29 -->
<g id="node29" class="node">
<title>&#45;29</title>
<polygon fill="lightgray" stroke="black" points="1528,-86.53 1496,-86.53 1496,-68.53 1528,-68.53 1528,-86.53"/>
<text text-anchor="middle" x="1512" y="-75.33" font-family="Times,serif" font-size="9.00">&#45;29</text>
</g>
<!-- &#45;30 -->
<g id="node30" class="node">
<title>&#45;30</title>
<polygon fill="lightgray" stroke="black" points="1578,-86.53 1546,-86.53 1546,-68.53 1578,-68.53 1578,-86.53"/>
<text text-anchor="middle" x="1562" y="-75.33" font-family="Times,serif" font-size="9.00">&#45;30</text>
</g>
<!-- &#45;31 -->
<g id="node31" class="node">
<title>&#45;31</title>
<polygon fill="lightgray" stroke="black" points="326,-86.53 294,-86.53 294,-68.53 326,-68.53 326,-86.53"/>
<text text-anchor="middle" x="310" y="-75.33" font-family="Times,serif" font-size="9.00">&#45;31</text>
</g>
<!-- &#45;31&#45;&gt;2 -->
<g id="edge8" class="edge">
<title>&#45;31&#45;&gt;2</title>
<path fill="none" stroke="red" stroke-width="0.15" d="M316.95,-68.29C323.79,-60.18 334.5,-47.49 343.52,-36.79"/>
<polygon fill="red" stroke="red" stroke-width="0.15" points="346.23,-39.01 350,-29.11 340.88,-34.5 346.23,-39.01"/>
</g>
<!-- &#45;31&#45;&gt;3 -->
<g id="edge4" class="edge">
<title>&#45;31&#45;&gt;3</title>
<path fill="none" stroke="green" stroke-width="0.11" d="M299.57,-68.29C288.24,-59.33 269.84,-44.8 255.58,-33.52"/>
<polygon fill="green" stroke="green" stroke-width="0.11" points="257.35,-30.46 247.33,-27.01 253.01,-35.95 257.35,-30.46"/>
</g>
<!-- &#45;32 -->
<g id="node32" class="node">
<title>&#45;32</title>
<polygon fill="lightgray" stroke="black" points="1628,-86.53 1596,-86.53 1596,-68.53 1628,-68.53 1628,-86.53"/>
<text text-anchor="middle" x="1612" y="-75.33" font-family="Times,serif" font-size="9.00">&#45;32</text>
</g>
<!-- &#45;33 -->
<g id="node33" class="node">
<title>&#45;33</title>
<polygon fill="lightgray" stroke="black" points="376,-86.53 344,-86.53 344,-68.53 376,-68.53 376,-86.53"/>
<text text-anchor="middle" x="360" y="-75.33" font-family="Times,serif" font-size="9.00">&#45;33</text>
</g>
<!-- &#45;33&#45;&gt;2 -->
<g id="edge7" class="edge">
<title>&#45;33&#45;&gt;2</title>
<path fill="none" stroke="green" stroke-width="0.11" d="M360,-68.29C360,-61.7 360,-52.1 360,-43"/>
<polygon fill="green" stroke="green" stroke-width="0.11" points="363.5,-42.76 360,-32.76 356.5,-42.76 363.5,-42.76"/>
</g>
<!-- &#45;33&#45;&gt;3 -->
<g id="edge6" class="edge">
<title>&#45;33&#45;&gt;3</title>
<path fill="none" stroke="green" stroke-width="0.37" d="M343.91,-68.9C322.26,-58.63 283.58,-40.29 258.62,-28.46"/>
<polygon fill="green" stroke="green" stroke-width="0.37" points="260.01,-25.25 249.47,-24.13 257.01,-31.57 260.01,-25.25"/>
</g>
<!-- &#45;34 -->
<g id="node34" class="node">
<title>&#45;34</title>
<polygon fill="lightgray" stroke="black" points="1678,-86.53 1646,-86.53 1646,-68.53 1678,-68.53 1678,-86.53"/>
<text text-anchor="middle" x="1662" y="-75.33" font-family="Times,serif" font-size="9.00">&#45;34</text>
</g>
<!-- &#45;35 -->
<g id="node35" class="node">
<title>&#45;35</title>
<polygon fill="lightgray" stroke="black" points="1728,-86.53 1696,-86.53 1696,-68.53 1728,-68.53 1728,-86.53"/>
<text text-anchor="middle" x="1712" y="-75.33" font-family="Times,serif" font-size="9.00">&#45;35</text>
</g>
<!-- &#45;36 -->
<g id="node36" class="node">
<title>&#45;36</title>
<polygon fill="lightgray" stroke="black" points="1778,-86.53 1746,-86.53 1746,-68.53 1778,-68.53 1778,-86.53"/>
<text text-anchor="middle" x="1762" y="-75.33" font-family="Times,serif" font-size="9.00">&#45;36</text>
</g>
<!-- &#45;37 -->
<g id="node37" class="node">
<title>&#45;37</title>
<polygon fill="lightgray" stroke="black" points="276,-86.53 244,-86.53 244,-68.53 276,-68.53 276,-86.53"/>
<text text-anchor="middle" x="260" y="-75.33" font-family="Times,serif" font-size="9.00">&#45;37</text>
</g>
<!-- &#45;37&#45;&gt;3 -->
<g id="edge16" class="edge">
<title>&#45;37&#45;&gt;3</title>
<path fill="none" stroke="green" stroke-width="0.18" d="M256.52,-68.29C253.55,-61.23 249.1,-50.7 245.03,-41.03"/>
<polygon fill="green" stroke="green" stroke-width="0.18" points="248.25,-39.67 241.14,-31.82 241.8,-42.39 248.25,-39.67"/>
</g>
<!-- &#45;38 -->
<g id="node38" class="node">
<title>&#45;38</title>
<polygon fill="lightgray" stroke="black" points="1828,-86.53 1796,-86.53 1796,-68.53 1828,-68.53 1828,-86.53"/>
<text text-anchor="middle" x="1812" y="-75.33" font-family="Times,serif" font-size="9.00">&#45;38</text>
</g>
<!-- &#45;39 -->
<g id="node39" class="node">
<title>&#45;39</title>
<polygon fill="lightgray" stroke="black" points="1878,-86.53 1846,-86.53 1846,-68.53 1878,-68.53 1878,-86.53"/>
<text text-anchor="middle" x="1862" y="-75.33" font-family="Times,serif" font-size="9.00">&#45;39</text>
</g>
<!-- &#45;40 -->
<g id="node40" class="node">
<title>&#45;40</title>
<polygon fill="lightgray" stroke="black" points="1928,-86.53 1896,-86.53 1896,-68.53 1928,-68.53 1928,-86.53"/>
<text text-anchor="middle" x="1912" y="-75.33" font-family="Times,serif" font-size="9.00">&#45;40</text>
</g>
</g>
</svg>
