<?xml version="1.0" encoding="UTF-8" standalone="no"?>
<!DOCTYPE svg PUBLIC "-//W3C//DTD SVG 1.1//EN"
 "http://www.w3.org/Graphics/SVG/1.1/DTD/svg11.dtd">
<!-- Generated by graphviz version 2.43.0 (0)
 -->
<!-- Title: %3 Pages: 1 -->
<svg width="1936pt" height="111pt"
 viewBox="0.00 0.00 1936.00 111.50" xmlns="http://www.w3.org/2000/svg" xmlns:xlink="http://www.w3.org/1999/xlink">
<g id="graph0" class="graph" transform="scale(1 1) rotate(0) translate(4 107.5)">
<title>%3</title>
<polygon fill="white" stroke="transparent" points="-4,4 -4,-107.5 1932,-107.5 1932,4 -4,4"/>
<!-- &#45;1 -->
<g id="node1" class="node">
<title>&#45;1</title>
<polygon fill="lightgray" stroke="black" points="26,-103.5 0,-103.5 0,-85.5 26,-85.5 26,-103.5"/>
<text text-anchor="middle" x="13" y="-92.3" font-family="Times,serif" font-size="9.00">&#45;1</text>
</g>
<!-- &#45;2 -->
<g id="node2" class="node">
<title>&#45;2</title>
<polygon fill="lightgray" stroke="black" points="70,-103.5 44,-103.5 44,-85.5 70,-85.5 70,-103.5"/>
<text text-anchor="middle" x="57" y="-92.3" font-family="Times,serif" font-size="9.00">&#45;2</text>
</g>
<!-- &#45;3 -->
<g id="node3" class="node">
<title>&#45;3</title>
<polygon fill="lightgray" stroke="black" points="114,-103.5 88,-103.5 88,-85.5 114,-85.5 114,-103.5"/>
<text text-anchor="middle" x="101" y="-92.3" font-family="Times,serif" font-size="9.00">&#45;3</text>
</g>
<!-- &#45;4 -->
<g id="node4" class="node">
<title>&#45;4</title>
<polygon fill="lightgray" stroke="black" points="402,-103.5 376,-103.5 376,-85.5 402,-85.5 402,-103.5"/>
<text text-anchor="middle" x="389" y="-92.3" font-family="Times,serif" font-size="9.00">&#45;4</text>
</g>
<!-- 0 -->
<g id="node41" class="node">
<title>0</title>
<ellipse fill="lightblue" stroke="black" cx="280" cy="-24.75" rx="16.03" ry="16.03"/>
<text text-anchor="middle" x="280" y="-22.55" font-family="Times,serif" font-size="9.00">0</text>
</g>
<!-- &#45;4&#45;&gt;0 -->
<g id="edge7" class="edge">
<title>&#45;4&#45;&gt;0</title>
<path fill="none" stroke="red" stroke-width="0.56" d="M375.94,-85.63C361.47,-76.9 337.48,-62.33 317,-49.5 312.07,-46.41 306.79,-43.05 301.81,-39.86"/>
<polygon fill="red" stroke="red" stroke-width="0.56" points="303.62,-36.86 293.31,-34.39 299.83,-42.75 303.62,-36.86"/>
</g>
<!-- 1 -->
<g id="node42" class="node">
<title>1</title>
<ellipse fill="lightblue" stroke="black" cx="415" cy="-24.75" rx="16.03" ry="16.03"/>
<text text-anchor="middle" x="415" y="-22.55" font-family="Times,serif" font-size="9.00">1</text>
</g>
<!-- &#45;4&#45;&gt;1 -->
<g id="edge8" class="edge">
<title>&#45;4&#45;&gt;1</title>
<path fill="none" stroke="green" stroke-width="0.21" stroke-dasharray="1,5" d="M392.08,-85.46C395.46,-76.66 401.03,-62.15 405.83,-49.63"/>
<polygon fill="green" stroke="green" stroke-width="0.21" points="409.15,-50.76 409.47,-40.17 402.62,-48.25 409.15,-50.76"/>
</g>
<!-- 3 -->
<g id="node44" class="node">
<title>3</title>
<ellipse fill="lightblue" stroke="black" cx="342" cy="-24.75" rx="16.03" ry="16.03"/>
<text text-anchor="middle" x="342" y="-22.55" font-family="Times,serif" font-size="9.00">3</text>
</g>
<!-- &#45;4&#45;&gt;3 -->
<g id="edge1" class="edge">
<title>&#45;4&#45;&gt;3</title>
<path fill="none" stroke="red" stroke-width="0.12" d="M383.42,-85.46C376.9,-76.06 365.85,-60.13 356.8,-47.09"/>
<polygon fill="red" stroke="red" stroke-width="0.12" points="359.52,-44.86 350.94,-38.63 353.76,-48.85 359.52,-44.86"/>
</g>
<!-- &#45;5 -->
<g id="node5" class="node">
<title>&#45;5</title>
<polygon fill="lightgray" stroke="black" points="496,-103.5 470,-103.5 470,-85.5 496,-85.5 496,-103.5"/>
<text text-anchor="middle" x="483" y="-92.3" font-family="Times,serif" font-size="9.00">&#45;5</text>
</g>
<!-- &#45;6 -->
<g id="node6" class="node">
<title>&#45;6</title>
<polygon fill="lightgray" stroke="black" points="540,-103.5 514,-103.5 514,-85.5 540,-85.5 540,-103.5"/>
<text text-anchor="middle" x="527" y="-92.3" font-family="Times,serif" font-size="9.00">&#45;6</text>
</g>
<!-- &#45;7 -->
<g id="node7" class="node">
<title>&#45;7</title>
<polygon fill="lightgray" stroke="black" points="584,-103.5 558,-103.5 558,-85.5 584,-85.5 584,-103.5"/>
<text text-anchor="middle" x="571" y="-92.3" font-family="Times,serif" font-size="9.00">&#45;7</text>
</g>
<!-- &#45;8 -->
<g id="node8" class="node">
<title>&#45;8</title>
<polygon fill="lightgray" stroke="black" points="208,-103.5 182,-103.5 182,-85.5 208,-85.5 208,-103.5"/>
<text text-anchor="middle" x="195" y="-92.3" font-family="Times,serif" font-size="9.00">&#45;8</text>
</g>
<!-- 2 -->
<g id="node43" class="node">
<title>2</title>
<ellipse fill="lightblue" stroke="black" cx="207" cy="-24.75" rx="16.03" ry="16.03"/>
<text text-anchor="middle" x="207" y="-22.55" font-family="Times,serif" font-size="9.00">2</text>
</g>
<!-- &#45;8&#45;&gt;2 -->
<g id="edge5" class="edge">
<title>&#45;8&#45;&gt;2</title>
<path fill="none" stroke="green" stroke-width="0.28" d="M196.42,-85.46C197.92,-77 200.36,-63.25 202.51,-51.08"/>
<polygon fill="green" stroke="green" stroke-width="0.28" points="206.01,-51.42 204.31,-40.96 199.12,-50.19 206.01,-51.42"/>
</g>
<!-- &#45;9 -->
<g id="node9" class="node">
<title>&#45;9</title>
<polygon fill="lightgray" stroke="black" points="628,-103.5 602,-103.5 602,-85.5 628,-85.5 628,-103.5"/>
<text text-anchor="middle" x="615" y="-92.3" font-family="Times,serif" font-size="9.00">&#45;9</text>
</g>
<!-- &#45;10 -->
<g id="node10" class="node">
<title>&#45;10</title>
<polygon fill="lightgray" stroke="black" points="678,-103.5 646,-103.5 646,-85.5 678,-85.5 678,-103.5"/>
<text text-anchor="middle" x="662" y="-92.3" font-family="Times,serif" font-size="9.00">&#45;10</text>
</g>
<!-- &#45;11 -->
<g id="node11" class="node">
<title>&#45;11</title>
<polygon fill="lightgray" stroke="black" points="728,-103.5 696,-103.5 696,-85.5 728,-85.5 728,-103.5"/>
<text text-anchor="middle" x="712" y="-92.3" font-family="Times,serif" font-size="9.00">&#45;11</text>
</g>
<!-- &#45;12 -->
<g id="node12" class="node">
<title>&#45;12</title>
<polygon fill="lightgray" stroke="black" points="778,-103.5 746,-103.5 746,-85.5 778,-85.5 778,-103.5"/>
<text text-anchor="middle" x="762" y="-92.3" font-family="Times,serif" font-size="9.00">&#45;12</text>
</g>
<!-- &#45;13 -->
<g id="node13" class="node">
<title>&#45;13</title>
<polygon fill="lightgray" stroke="black" points="164,-103.5 132,-103.5 132,-85.5 164,-85.5 164,-103.5"/>
<text text-anchor="middle" x="148" y="-92.3" font-family="Times,serif" font-size="9.00">&#45;13</text>
</g>
<!-- &#45;13&#45;&gt;2 -->
<g id="edge6" class="edge">
<title>&#45;13&#45;&gt;2</title>
<path fill="none" stroke="red" stroke-width="0.34" d="M155,-85.46C163.49,-75.71 178.11,-58.92 189.69,-45.62"/>
<polygon fill="red" stroke="red" stroke-width="0.34" points="192.5,-47.73 196.43,-37.89 187.22,-43.13 192.5,-47.73"/>
</g>
<!-- &#45;14 -->
<g id="node14" class="node">
<title>&#45;14</title>
<polygon fill="lightgray" stroke="black" points="828,-103.5 796,-103.5 796,-85.5 828,-85.5 828,-103.5"/>
<text text-anchor="middle" x="812" y="-92.3" font-family="Times,serif" font-size="9.00">&#45;14</text>
</g>
<!-- &#45;15 -->
<g id="node15" class="node">
<title>&#45;15</title>
<polygon fill="lightgray" stroke="black" points="452,-103.5 420,-103.5 420,-85.5 452,-85.5 452,-103.5"/>
<text text-anchor="middle" x="436" y="-92.3" font-family="Times,serif" font-size="9.00">&#45;15</text>
</g>
<!-- &#45;15&#45;&gt;1 -->
<g id="edge9" class="edge">
<title>&#45;15&#45;&gt;1</title>
<path fill="none" stroke="green" stroke-width="1.4" stroke-dasharray="1,5" d="M433.51,-85.46C430.83,-76.81 426.43,-62.62 422.59,-50.24"/>
<polygon fill="green" stroke="green" stroke-width="1.4" points="425.85,-48.95 419.55,-40.43 419.17,-51.02 425.85,-48.95"/>
</g>
<!-- &#45;16 -->
<g id="node16" class="node">
<title>&#45;16</title>
<polygon fill="lightgray" stroke="black" points="878,-103.5 846,-103.5 846,-85.5 878,-85.5 878,-103.5"/>
<text text-anchor="middle" x="862" y="-92.3" font-family="Times,serif" font-size="9.00">&#45;16</text>
</g>
<!-- &#45;17 -->
<g id="node17" class="node">
<title>&#45;17</title>
<polygon fill="lightgray" stroke="black" points="928,-103.5 896,-103.5 896,-85.5 928,-85.5 928,-103.5"/>
<text text-anchor="middle" x="912" y="-92.3" font-family="Times,serif" font-size="9.00">&#45;17</text>
</g>
<!-- &#45;18 -->
<g id="node18" class="node">
<title>&#45;18</title>
<polygon fill="lightgray" stroke="black" points="978,-103.5 946,-103.5 946,-85.5 978,-85.5 978,-103.5"/>
<text text-anchor="middle" x="962" y="-92.3" font-family="Times,serif" font-size="9.00">&#45;18</text>
</g>
<!-- &#45;19 -->
<g id="node19" class="node">
<title>&#45;19</title>
<polygon fill="lightgray" stroke="black" points="1028,-103.5 996,-103.5 996,-85.5 1028,-85.5 1028,-103.5"/>
<text text-anchor="middle" x="1012" y="-92.3" font-family="Times,serif" font-size="9.00">&#45;19</text>
</g>
<!-- &#45;20 -->
<g id="node20" class="node">
<title>&#45;20</title>
<polygon fill="lightgray" stroke="black" points="1078,-103.5 1046,-103.5 1046,-85.5 1078,-85.5 1078,-103.5"/>
<text text-anchor="middle" x="1062" y="-92.3" font-family="Times,serif" font-size="9.00">&#45;20</text>
</g>
<!-- &#45;21 -->
<g id="node21" class="node">
<title>&#45;21</title>
<polygon fill="lightgray" stroke="black" points="1128,-103.5 1096,-103.5 1096,-85.5 1128,-85.5 1128,-103.5"/>
<text text-anchor="middle" x="1112" y="-92.3" font-family="Times,serif" font-size="9.00">&#45;21</text>
</g>
<!-- &#45;22 -->
<g id="node22" class="node">
<title>&#45;22</title>
<polygon fill="lightgray" stroke="black" points="1178,-103.5 1146,-103.5 1146,-85.5 1178,-85.5 1178,-103.5"/>
<text text-anchor="middle" x="1162" y="-92.3" font-family="Times,serif" font-size="9.00">&#45;22</text>
</g>
<!-- &#45;23 -->
<g id="node23" class="node">
<title>&#45;23</title>
<polygon fill="lightgray" stroke="black" points="308,-103.5 276,-103.5 276,-85.5 308,-85.5 308,-103.5"/>
<text text-anchor="middle" x="292" y="-92.3" font-family="Times,serif" font-size="9.00">&#45;23</text>
</g>
<!-- &#45;23&#45;&gt;2 -->
<g id="edge3" class="edge">
<title>&#45;23&#45;&gt;2</title>
<path fill="none" stroke="red" stroke-width="0.14" d="M281.92,-85.46C268.46,-74.74 244.34,-55.51 227.1,-41.77"/>
<polygon fill="red" stroke="red" stroke-width="0.14" points="229.27,-39.02 219.27,-35.53 224.9,-44.5 229.27,-39.02"/>
</g>
<!-- &#45;23&#45;&gt;3 -->
<g id="edge12" class="edge">
<title>&#45;23&#45;&gt;3</title>
<path fill="none" stroke="green" stroke-width="0.23" d="M297.93,-85.46C304.98,-75.91 317,-59.63 326.7,-46.47"/>
<polygon fill="green" stroke="green" stroke-width="0.23" points="329.55,-48.51 332.67,-38.39 323.92,-44.35 329.55,-48.51"/>
</g>
<!-- &#45;24 -->
<g id="node24" class="node">
<title>&#45;24</title>
<polygon fill="lightgray" stroke="black" points="1228,-103.5 1196,-103.5 1196,-85.5 1228,-85.5 1228,-103.5"/>
<text text-anchor="middle" x="1212" y="-92.3" font-family="Times,serif" font-size="9.00">&#45;24</text>
</g>
<!-- &#45;25 -->
<g id="node25" class="node">
<title>&#45;25</title>
<polygon fill="lightgray" stroke="black" points="1278,-103.5 1246,-103.5 1246,-85.5 1278,-85.5 1278,-103.5"/>
<text text-anchor="middle" x="1262" y="-92.3" font-family="Times,serif" font-size="9.00">&#45;25</text>
</g>
<!-- 866 -->
<g id="node45" class="node">
<title>866</title>
<ellipse fill="white" stroke="black" cx="1262" cy="-24.75" rx="25" ry="25"/>
<text text-anchor="middle" x="1262" y="-22.55" font-family="Times,serif" font-size="9.00">866</text>
</g>
<!-- &#45;25&#45;&gt;866 -->
<g id="edge11" class="edge">
<title>&#45;25&#45;&gt;866</title>
<path fill="none" stroke="red" stroke-width="0.13" stroke-dasharray="1,5" d="M1262,-85.46C1262,-79.02 1262,-69.53 1262,-59.99"/>
<polygon fill="red" stroke="red" stroke-width="0.13" points="1265.5,-59.77 1262,-49.77 1258.5,-59.77 1265.5,-59.77"/>
</g>
<!-- &#45;26 -->
<g id="node26" class="node">
<title>&#45;26</title>
<polygon fill="lightgray" stroke="black" points="1328,-103.5 1296,-103.5 1296,-85.5 1328,-85.5 1328,-103.5"/>
<text text-anchor="middle" x="1312" y="-92.3" font-family="Times,serif" font-size="9.00">&#45;26</text>
</g>
<!-- &#45;27 -->
<g id="node27" class="node">
<title>&#45;27</title>
<polygon fill="lightgray" stroke="black" points="258,-103.5 226,-103.5 226,-85.5 258,-85.5 258,-103.5"/>
<text text-anchor="middle" x="242" y="-92.3" font-family="Times,serif" font-size="9.00">&#45;27</text>
</g>
<!-- &#45;27&#45;&gt;0 -->
<g id="edge4" class="edge">
<title>&#45;27&#45;&gt;0</title>
<path fill="none" stroke="red" stroke-width="0.19" stroke-dasharray="1,5" d="M246.51,-85.46C251.63,-76.32 260.22,-61.01 267.42,-48.18"/>
<polygon fill="red" stroke="red" stroke-width="0.19" points="270.51,-49.83 272.35,-39.4 264.4,-46.4 270.51,-49.83"/>
</g>
<!-- &#45;27&#45;&gt;2 -->
<g id="edge2" class="edge">
<title>&#45;27&#45;&gt;2</title>
<path fill="none" stroke="red" stroke-width="0.13" stroke-dasharray="1,5" d="M237.85,-85.46C233.2,-76.47 225.46,-61.49 218.9,-48.79"/>
<polygon fill="red" stroke="red" stroke-width="0.13" points="221.88,-46.93 214.18,-39.65 215.66,-50.14 221.88,-46.93"/>
</g>
<!-- &#45;28 -->
<g id="node28" class="node">
<title>&#45;28</title>
<polygon fill="lightgray" stroke="black" points="358,-103.5 326,-103.5 326,-85.5 358,-85.5 358,-103.5"/>
<text text-anchor="middle" x="342" y="-92.3" font-family="Times,serif" font-size="9.00">&#45;28</text>
</g>
<!-- &#45;28&#45;&gt;3 -->
<g id="edge10" class="edge">
<title>&#45;28&#45;&gt;3</title>
<path fill="none" stroke="red" stroke-width="0.46" d="M342,-85.46C342,-77.06 342,-63.43 342,-51.31"/>
<polygon fill="red" stroke="red" stroke-width="0.46" points="345.5,-51.22 342,-41.22 338.5,-51.22 345.5,-51.22"/>
</g>
<!-- &#45;29 -->
<g id="node29" class="node">
<title>&#45;29</title>
<polygon fill="lightgray" stroke="black" points="1378,-103.5 1346,-103.5 1346,-85.5 1378,-85.5 1378,-103.5"/>
<text text-anchor="middle" x="1362" y="-92.3" font-family="Times,serif" font-size="9.00">&#45;29</text>
</g>
<!-- &#45;30 -->
<g id="node30" class="node">
<title>&#45;30</title>
<polygon fill="lightgray" stroke="black" points="1428,-103.5 1396,-103.5 1396,-85.5 1428,-85.5 1428,-103.5"/>
<text text-anchor="middle" x="1412" y="-92.3" font-family="Times,serif" font-size="9.00">&#45;30</text>
</g>
<!-- &#45;31 -->
<g id="node31" class="node">
<title>&#45;31</title>
<polygon fill="lightgray" stroke="black" points="1478,-103.5 1446,-103.5 1446,-85.5 1478,-85.5 1478,-103.5"/>
<text text-anchor="middle" x="1462" y="-92.3" font-family="Times,serif" font-size="9.00">&#45;31</text>
</g>
<!-- &#45;32 -->
<g id="node32" class="node">
<title>&#45;32</title>
<polygon fill="lightgray" stroke="black" points="1528,-103.5 1496,-103.5 1496,-85.5 1528,-85.5 1528,-103.5"/>
<text text-anchor="middle" x="1512" y="-92.3" font-family="Times,serif" font-size="9.00">&#45;32</text>
</g>
<!-- &#45;33 -->
<g id="node33" class="node">
<title>&#45;33</title>
<polygon fill="lightgray" stroke="black" points="1578,-103.5 1546,-103.5 1546,-85.5 1578,-85.5 1578,-103.5"/>
<text text-anchor="middle" x="1562" y="-92.3" font-family="Times,serif" font-size="9.00">&#45;33</text>
</g>
<!-- &#45;34 -->
<g id="node34" class="node">
<title>&#45;34</title>
<polygon fill="lightgray" stroke="black" points="1628,-103.5 1596,-103.5 1596,-85.5 1628,-85.5 1628,-103.5"/>
<text text-anchor="middle" x="1612" y="-92.3" font-family="Times,serif" font-size="9.00">&#45;34</text>
</g>
<!-- &#45;35 -->
<g id="node35" class="node">
<title>&#45;35</title>
<polygon fill="lightgray" stroke="black" points="1678,-103.5 1646,-103.5 1646,-85.5 1678,-85.5 1678,-103.5"/>
<text text-anchor="middle" x="1662" y="-92.3" font-family="Times,serif" font-size="9.00">&#45;35</text>
</g>
<!-- &#45;36 -->
<g id="node36" class="node">
<title>&#45;36</title>
<polygon fill="lightgray" stroke="black" points="1728,-103.5 1696,-103.5 1696,-85.5 1728,-85.5 1728,-103.5"/>
<text text-anchor="middle" x="1712" y="-92.3" font-family="Times,serif" font-size="9.00">&#45;36</text>
</g>
<!-- &#45;37 -->
<g id="node37" class="node">
<title>&#45;37</title>
<polygon fill="lightgray" stroke="black" points="1778,-103.5 1746,-103.5 1746,-85.5 1778,-85.5 1778,-103.5"/>
<text text-anchor="middle" x="1762" y="-92.3" font-family="Times,serif" font-size="9.00">&#45;37</text>
</g>
<!-- &#45;38 -->
<g id="node38" class="node">
<title>&#45;38</title>
<polygon fill="lightgray" stroke="black" points="1828,-103.5 1796,-103.5 1796,-85.5 1828,-85.5 1828,-103.5"/>
<text text-anchor="middle" x="1812" y="-92.3" font-family="Times,serif" font-size="9.00">&#45;38</text>
</g>
<!-- &#45;39 -->
<g id="node39" class="node">
<title>&#45;39</title>
<polygon fill="lightgray" stroke="black" points="1878,-103.5 1846,-103.5 1846,-85.5 1878,-85.5 1878,-103.5"/>
<text text-anchor="middle" x="1862" y="-92.3" font-family="Times,serif" font-size="9.00">&#45;39</text>
</g>
<!-- &#45;40 -->
<g id="node40" class="node">
<title>&#45;40</title>
<polygon fill="lightgray" stroke="black" points="1928,-103.5 1896,-103.5 1896,-85.5 1928,-85.5 1928,-103.5"/>
<text text-anchor="middle" x="1912" y="-92.3" font-family="Times,serif" font-size="9.00">&#45;40</text>
</g>
</g>
</svg>
