<?xml version="1.0" encoding="UTF-8" standalone="no"?>
<!DOCTYPE svg PUBLIC "-//W3C//DTD SVG 1.1//EN"
 "http://www.w3.org/Graphics/SVG/1.1/DTD/svg11.dtd">
<!-- Generated by graphviz version 2.43.0 (0)
 -->
<!-- Title: %3 Pages: 1 -->
<svg width="1936pt" height="111pt"
 viewBox="0.00 0.00 1936.00 111.50" xmlns="http://www.w3.org/2000/svg" xmlns:xlink="http://www.w3.org/1999/xlink">
<g id="graph0" class="graph" transform="scale(1 1) rotate(0) translate(4 107.5)">
<title>%3</title>
<polygon fill="white" stroke="transparent" points="-4,4 -4,-107.5 1932,-107.5 1932,4 -4,4"/>
<!-- &#45;1 -->
<g id="node1" class="node">
<title>&#45;1</title>
<polygon fill="lightgray" stroke="black" points="26,-103.5 0,-103.5 0,-85.5 26,-85.5 26,-103.5"/>
<text text-anchor="middle" x="13" y="-92.3" font-family="Times,serif" font-size="9.00">&#45;1</text>
</g>
<!-- 1 -->
<g id="node42" class="node">
<title>1</title>
<ellipse fill="lightblue" stroke="black" cx="204" cy="-24.75" rx="16.03" ry="16.03"/>
<text text-anchor="middle" x="204" y="-22.55" font-family="Times,serif" font-size="9.00">1</text>
</g>
<!-- &#45;1&#45;&gt;1 -->
<g id="edge18" class="edge">
<title>&#45;1&#45;&gt;1</title>
<path fill="none" stroke="red" stroke-width="1.58" d="M26.02,-88.74C28.97,-87.67 32.09,-86.54 35,-85.5 86.02,-67.2 145.83,-46.15 178.87,-34.56"/>
<polygon fill="red" stroke="red" stroke-width="1.58" points="180.33,-37.75 188.6,-31.14 178.01,-31.15 180.33,-37.75"/>
</g>
<!-- &#45;2 -->
<g id="node2" class="node">
<title>&#45;2</title>
<polygon fill="lightgray" stroke="black" points="508,-103.5 482,-103.5 482,-85.5 508,-85.5 508,-103.5"/>
<text text-anchor="middle" x="495" y="-92.3" font-family="Times,serif" font-size="9.00">&#45;2</text>
</g>
<!-- &#45;3 -->
<g id="node3" class="node">
<title>&#45;3</title>
<polygon fill="lightgray" stroke="black" points="464,-103.5 438,-103.5 438,-85.5 464,-85.5 464,-103.5"/>
<text text-anchor="middle" x="451" y="-92.3" font-family="Times,serif" font-size="9.00">&#45;3</text>
</g>
<!-- 348 -->
<g id="node45" class="node">
<title>348</title>
<ellipse fill="white" stroke="black" cx="427" cy="-24.75" rx="25" ry="25"/>
<text text-anchor="middle" x="427" y="-22.55" font-family="Times,serif" font-size="9.00">348</text>
</g>
<!-- &#45;3&#45;&gt;348 -->
<g id="edge19" class="edge">
<title>&#45;3&#45;&gt;348</title>
<path fill="none" stroke="green" stroke-width="0.57" d="M448.15,-85.46C445.71,-78.55 442.01,-68.12 438.39,-57.9"/>
<polygon fill="green" stroke="green" stroke-width="0.57" points="441.62,-56.54 434.98,-48.28 435.02,-58.88 441.62,-56.54"/>
</g>
<!-- &#45;4 -->
<g id="node4" class="node">
<title>&#45;4</title>
<polygon fill="lightgray" stroke="black" points="552,-103.5 526,-103.5 526,-85.5 552,-85.5 552,-103.5"/>
<text text-anchor="middle" x="539" y="-92.3" font-family="Times,serif" font-size="9.00">&#45;4</text>
</g>
<!-- &#45;5 -->
<g id="node5" class="node">
<title>&#45;5</title>
<polygon fill="lightgray" stroke="black" points="596,-103.5 570,-103.5 570,-85.5 596,-85.5 596,-103.5"/>
<text text-anchor="middle" x="583" y="-92.3" font-family="Times,serif" font-size="9.00">&#45;5</text>
</g>
<!-- 3 -->
<g id="node44" class="node">
<title>3</title>
<ellipse fill="lightblue" stroke="black" cx="650" cy="-24.75" rx="16.03" ry="16.03"/>
<text text-anchor="middle" x="650" y="-22.55" font-family="Times,serif" font-size="9.00">3</text>
</g>
<!-- &#45;5&#45;&gt;3 -->
<g id="edge8" class="edge">
<title>&#45;5&#45;&gt;3</title>
<path fill="none" stroke="red" stroke-width="0.28" d="M590.95,-85.46C600.92,-75.38 618.32,-57.79 631.65,-44.3"/>
<polygon fill="red" stroke="red" stroke-width="0.28" points="634.41,-46.49 638.95,-36.92 629.43,-41.57 634.41,-46.49"/>
</g>
<!-- &#45;6 -->
<g id="node6" class="node">
<title>&#45;6</title>
<polygon fill="lightgray" stroke="black" points="640,-103.5 614,-103.5 614,-85.5 640,-85.5 640,-103.5"/>
<text text-anchor="middle" x="627" y="-92.3" font-family="Times,serif" font-size="9.00">&#45;6</text>
</g>
<!-- &#45;6&#45;&gt;3 -->
<g id="edge1" class="edge">
<title>&#45;6&#45;&gt;3</title>
<path fill="none" stroke="red" stroke-width="0.89" d="M629.73,-85.46C632.67,-76.81 637.48,-62.62 641.69,-50.24"/>
<polygon fill="red" stroke="red" stroke-width="0.89" points="645.12,-51.03 645.02,-40.43 638.49,-48.77 645.12,-51.03"/>
</g>
<!-- &#45;7 -->
<g id="node7" class="node">
<title>&#45;7</title>
<polygon fill="lightgray" stroke="black" points="70,-103.5 44,-103.5 44,-85.5 70,-85.5 70,-103.5"/>
<text text-anchor="middle" x="57" y="-92.3" font-family="Times,serif" font-size="9.00">&#45;7</text>
</g>
<!-- &#45;7&#45;&gt;1 -->
<g id="edge14" class="edge">
<title>&#45;7&#45;&gt;1</title>
<path fill="none" stroke="green" stroke-width="0.44" d="M70.05,-87.49C94.77,-76.09 148.79,-51.19 180.15,-36.74"/>
<polygon fill="green" stroke="green" stroke-width="0.44" points="181.86,-39.81 189.48,-32.44 178.93,-33.45 181.86,-39.81"/>
</g>
<!-- &#45;8 -->
<g id="node8" class="node">
<title>&#45;8</title>
<polygon fill="lightgray" stroke="black" points="784,-103.5 758,-103.5 758,-85.5 784,-85.5 784,-103.5"/>
<text text-anchor="middle" x="771" y="-92.3" font-family="Times,serif" font-size="9.00">&#45;8</text>
</g>
<!-- 2 -->
<g id="node43" class="node">
<title>2</title>
<ellipse fill="lightblue" stroke="black" cx="818" cy="-24.75" rx="16.03" ry="16.03"/>
<text text-anchor="middle" x="818" y="-22.55" font-family="Times,serif" font-size="9.00">2</text>
</g>
<!-- &#45;8&#45;&gt;2 -->
<g id="edge7" class="edge">
<title>&#45;8&#45;&gt;2</title>
<path fill="none" stroke="green" stroke-width="0.38" d="M776.58,-85.46C783.1,-76.06 794.15,-60.13 803.2,-47.09"/>
<polygon fill="green" stroke="green" stroke-width="0.38" points="806.24,-48.85 809.06,-38.63 800.48,-44.86 806.24,-48.85"/>
</g>
<!-- &#45;9 -->
<g id="node9" class="node">
<title>&#45;9</title>
<polygon fill="lightgray" stroke="black" points="928,-103.5 902,-103.5 902,-85.5 928,-85.5 928,-103.5"/>
<text text-anchor="middle" x="915" y="-92.3" font-family="Times,serif" font-size="9.00">&#45;9</text>
</g>
<!-- &#45;10 -->
<g id="node10" class="node">
<title>&#45;10</title>
<polygon fill="lightgray" stroke="black" points="690,-103.5 658,-103.5 658,-85.5 690,-85.5 690,-103.5"/>
<text text-anchor="middle" x="674" y="-92.3" font-family="Times,serif" font-size="9.00">&#45;10</text>
</g>
<!-- &#45;10&#45;&gt;3 -->
<g id="edge12" class="edge">
<title>&#45;10&#45;&gt;3</title>
<path fill="none" stroke="red" stroke-width="0.31" stroke-dasharray="1,5" d="M671.15,-85.46C668.06,-76.72 662.96,-62.33 658.54,-49.87"/>
<polygon fill="red" stroke="red" stroke-width="0.31" points="661.84,-48.69 655.2,-40.43 655.24,-51.03 661.84,-48.69"/>
</g>
<!-- &#45;11 -->
<g id="node11" class="node">
<title>&#45;11</title>
<polygon fill="lightgray" stroke="black" points="420,-103.5 388,-103.5 388,-85.5 420,-85.5 420,-103.5"/>
<text text-anchor="middle" x="404" y="-92.3" font-family="Times,serif" font-size="9.00">&#45;11</text>
</g>
<!-- &#45;11&#45;&gt;1 -->
<g id="edge11" class="edge">
<title>&#45;11&#45;&gt;1</title>
<path fill="none" stroke="red" stroke-width="0.59" stroke-dasharray="1,5" d="M387.97,-88.07C353.19,-76.29 270.59,-48.31 228.93,-34.19"/>
<polygon fill="red" stroke="red" stroke-width="0.59" points="229.87,-30.82 219.28,-30.92 227.63,-37.45 229.87,-30.82"/>
</g>
<!-- &#45;11&#45;&gt;348 -->
<g id="edge17" class="edge">
<title>&#45;11&#45;&gt;348</title>
<path fill="none" stroke="green" stroke-width="0.28" d="M406.73,-85.46C409.06,-78.61 412.56,-68.28 416.01,-58.13"/>
<polygon fill="green" stroke="green" stroke-width="0.28" points="419.35,-59.17 419.25,-48.58 412.72,-56.92 419.35,-59.17"/>
</g>
<!-- &#45;12 -->
<g id="node12" class="node">
<title>&#45;12</title>
<polygon fill="lightgray" stroke="black" points="978,-103.5 946,-103.5 946,-85.5 978,-85.5 978,-103.5"/>
<text text-anchor="middle" x="962" y="-92.3" font-family="Times,serif" font-size="9.00">&#45;12</text>
</g>
<!-- &#45;13 -->
<g id="node13" class="node">
<title>&#45;13</title>
<polygon fill="lightgray" stroke="black" points="1028,-103.5 996,-103.5 996,-85.5 1028,-85.5 1028,-103.5"/>
<text text-anchor="middle" x="1012" y="-92.3" font-family="Times,serif" font-size="9.00">&#45;13</text>
</g>
<!-- &#45;14 -->
<g id="node14" class="node">
<title>&#45;14</title>
<polygon fill="lightgray" stroke="black" points="1078,-103.5 1046,-103.5 1046,-85.5 1078,-85.5 1078,-103.5"/>
<text text-anchor="middle" x="1062" y="-92.3" font-family="Times,serif" font-size="9.00">&#45;14</text>
</g>
<!-- &#45;15 -->
<g id="node15" class="node">
<title>&#45;15</title>
<polygon fill="lightgray" stroke="black" points="1128,-103.5 1096,-103.5 1096,-85.5 1128,-85.5 1128,-103.5"/>
<text text-anchor="middle" x="1112" y="-92.3" font-family="Times,serif" font-size="9.00">&#45;15</text>
</g>
<!-- &#45;16 -->
<g id="node16" class="node">
<title>&#45;16</title>
<polygon fill="lightgray" stroke="black" points="1178,-103.5 1146,-103.5 1146,-85.5 1178,-85.5 1178,-103.5"/>
<text text-anchor="middle" x="1162" y="-92.3" font-family="Times,serif" font-size="9.00">&#45;16</text>
</g>
<!-- &#45;17 -->
<g id="node17" class="node">
<title>&#45;17</title>
<polygon fill="lightgray" stroke="black" points="1228,-103.5 1196,-103.5 1196,-85.5 1228,-85.5 1228,-103.5"/>
<text text-anchor="middle" x="1212" y="-92.3" font-family="Times,serif" font-size="9.00">&#45;17</text>
</g>
<!-- 0 -->
<g id="node41" class="node">
<title>0</title>
<ellipse fill="lightblue" stroke="black" cx="1212" cy="-24.75" rx="16.03" ry="16.03"/>
<text text-anchor="middle" x="1212" y="-22.55" font-family="Times,serif" font-size="9.00">0</text>
</g>
<!-- &#45;17&#45;&gt;0 -->
<g id="edge13" class="edge">
<title>&#45;17&#45;&gt;0</title>
<path fill="none" stroke="green" stroke-width="0.52" stroke-dasharray="1,5" d="M1212,-85.46C1212,-77.06 1212,-63.43 1212,-51.31"/>
<polygon fill="green" stroke="green" stroke-width="0.52" points="1215.5,-51.22 1212,-41.22 1208.5,-51.22 1215.5,-51.22"/>
</g>
<!-- &#45;18 -->
<g id="node18" class="node">
<title>&#45;18</title>
<polygon fill="lightgray" stroke="black" points="1278,-103.5 1246,-103.5 1246,-85.5 1278,-85.5 1278,-103.5"/>
<text text-anchor="middle" x="1262" y="-92.3" font-family="Times,serif" font-size="9.00">&#45;18</text>
</g>
<!-- &#45;19 -->
<g id="node19" class="node">
<title>&#45;19</title>
<polygon fill="lightgray" stroke="black" points="120,-103.5 88,-103.5 88,-85.5 120,-85.5 120,-103.5"/>
<text text-anchor="middle" x="104" y="-92.3" font-family="Times,serif" font-size="9.00">&#45;19</text>
</g>
<!-- &#45;19&#45;&gt;1 -->
<g id="edge9" class="edge">
<title>&#45;19&#45;&gt;1</title>
<path fill="none" stroke="red" stroke-width="0.94" d="M115.86,-85.46C132.27,-74.35 162.16,-54.1 182.54,-40.29"/>
<polygon fill="red" stroke="red" stroke-width="0.94" points="184.57,-43.14 190.89,-34.63 180.64,-37.35 184.57,-43.14"/>
</g>
<!-- &#45;20 -->
<g id="node20" class="node">
<title>&#45;20</title>
<polygon fill="lightgray" stroke="black" points="1328,-103.5 1296,-103.5 1296,-85.5 1328,-85.5 1328,-103.5"/>
<text text-anchor="middle" x="1312" y="-92.3" font-family="Times,serif" font-size="9.00">&#45;20</text>
</g>
<!-- &#45;21 -->
<g id="node21" class="node">
<title>&#45;21</title>
<polygon fill="lightgray" stroke="black" points="170,-103.5 138,-103.5 138,-85.5 170,-85.5 170,-103.5"/>
<text text-anchor="middle" x="154" y="-92.3" font-family="Times,serif" font-size="9.00">&#45;21</text>
</g>
<!-- &#45;21&#45;&gt;1 -->
<g id="edge10" class="edge">
<title>&#45;21&#45;&gt;1</title>
<path fill="none" stroke="red" stroke-width="0.18" d="M159.93,-85.46C166.98,-75.91 179,-59.63 188.7,-46.47"/>
<polygon fill="red" stroke="red" stroke-width="0.18" points="191.55,-48.51 194.67,-38.39 185.92,-44.35 191.55,-48.51"/>
</g>
<!-- &#45;22 -->
<g id="node22" class="node">
<title>&#45;22</title>
<polygon fill="lightgray" stroke="black" points="834,-103.5 802,-103.5 802,-85.5 834,-85.5 834,-103.5"/>
<text text-anchor="middle" x="818" y="-92.3" font-family="Times,serif" font-size="9.00">&#45;22</text>
</g>
<!-- &#45;22&#45;&gt;2 -->
<g id="edge4" class="edge">
<title>&#45;22&#45;&gt;2</title>
<path fill="none" stroke="red" stroke-width="0.54" d="M818,-85.46C818,-77.06 818,-63.43 818,-51.31"/>
<polygon fill="red" stroke="red" stroke-width="0.54" points="821.5,-51.22 818,-41.22 814.5,-51.22 821.5,-51.22"/>
</g>
<!-- &#45;23 -->
<g id="node23" class="node">
<title>&#45;23</title>
<polygon fill="lightgray" stroke="black" points="740,-103.5 708,-103.5 708,-85.5 740,-85.5 740,-103.5"/>
<text text-anchor="middle" x="724" y="-92.3" font-family="Times,serif" font-size="9.00">&#45;23</text>
</g>
<!-- &#45;23&#45;&gt;3 -->
<g id="edge3" class="edge">
<title>&#45;23&#45;&gt;3</title>
<path fill="none" stroke="red" stroke-width="0.22" stroke-dasharray="1,5" d="M715.22,-85.46C703.98,-75.17 684.18,-57.04 669.34,-43.45"/>
<polygon fill="red" stroke="red" stroke-width="0.22" points="671.43,-40.62 661.69,-36.45 666.7,-45.78 671.43,-40.62"/>
</g>
<!-- &#45;24 -->
<g id="node24" class="node">
<title>&#45;24</title>
<polygon fill="lightgray" stroke="black" points="1378,-103.5 1346,-103.5 1346,-85.5 1378,-85.5 1378,-103.5"/>
<text text-anchor="middle" x="1362" y="-92.3" font-family="Times,serif" font-size="9.00">&#45;24</text>
</g>
<!-- &#45;25 -->
<g id="node25" class="node">
<title>&#45;25</title>
<polygon fill="lightgray" stroke="black" points="1428,-103.5 1396,-103.5 1396,-85.5 1428,-85.5 1428,-103.5"/>
<text text-anchor="middle" x="1412" y="-92.3" font-family="Times,serif" font-size="9.00">&#45;25</text>
</g>
<!-- &#45;26 -->
<g id="node26" class="node">
<title>&#45;26</title>
<polygon fill="lightgray" stroke="black" points="1478,-103.5 1446,-103.5 1446,-85.5 1478,-85.5 1478,-103.5"/>
<text text-anchor="middle" x="1462" y="-92.3" font-family="Times,serif" font-size="9.00">&#45;26</text>
</g>
<!-- &#45;27 -->
<g id="node27" class="node">
<title>&#45;27</title>
<polygon fill="lightgray" stroke="black" points="1528,-103.5 1496,-103.5 1496,-85.5 1528,-85.5 1528,-103.5"/>
<text text-anchor="middle" x="1512" y="-92.3" font-family="Times,serif" font-size="9.00">&#45;27</text>
</g>
<!-- &#45;28 -->
<g id="node28" class="node">
<title>&#45;28</title>
<polygon fill="lightgray" stroke="black" points="1578,-103.5 1546,-103.5 1546,-85.5 1578,-85.5 1578,-103.5"/>
<text text-anchor="middle" x="1562" y="-92.3" font-family="Times,serif" font-size="9.00">&#45;28</text>
</g>
<!-- &#45;29 -->
<g id="node29" class="node">
<title>&#45;29</title>
<polygon fill="lightgray" stroke="black" points="1628,-103.5 1596,-103.5 1596,-85.5 1628,-85.5 1628,-103.5"/>
<text text-anchor="middle" x="1612" y="-92.3" font-family="Times,serif" font-size="9.00">&#45;29</text>
</g>
<!-- &#45;30 -->
<g id="node30" class="node">
<title>&#45;30</title>
<polygon fill="lightgray" stroke="black" points="1678,-103.5 1646,-103.5 1646,-85.5 1678,-85.5 1678,-103.5"/>
<text text-anchor="middle" x="1662" y="-92.3" font-family="Times,serif" font-size="9.00">&#45;30</text>
</g>
<!-- &#45;31 -->
<g id="node31" class="node">
<title>&#45;31</title>
<polygon fill="lightgray" stroke="black" points="1728,-103.5 1696,-103.5 1696,-85.5 1728,-85.5 1728,-103.5"/>
<text text-anchor="middle" x="1712" y="-92.3" font-family="Times,serif" font-size="9.00">&#45;31</text>
</g>
<!-- &#45;32 -->
<g id="node32" class="node">
<title>&#45;32</title>
<polygon fill="lightgray" stroke="black" points="884,-103.5 852,-103.5 852,-85.5 884,-85.5 884,-103.5"/>
<text text-anchor="middle" x="868" y="-92.3" font-family="Times,serif" font-size="9.00">&#45;32</text>
</g>
<!-- &#45;32&#45;&gt;2 -->
<g id="edge6" class="edge">
<title>&#45;32&#45;&gt;2</title>
<path fill="none" stroke="red" stroke-width="0.51" stroke-dasharray="1,5" d="M862.07,-85.46C855.02,-75.91 843,-59.63 833.3,-46.47"/>
<polygon fill="red" stroke="red" stroke-width="0.51" points="836.08,-44.35 827.33,-38.39 830.45,-48.51 836.08,-44.35"/>
</g>
<!-- &#45;33 -->
<g id="node33" class="node">
<title>&#45;33</title>
<polygon fill="lightgray" stroke="black" points="1778,-103.5 1746,-103.5 1746,-85.5 1778,-85.5 1778,-103.5"/>
<text text-anchor="middle" x="1762" y="-92.3" font-family="Times,serif" font-size="9.00">&#45;33</text>
</g>
<!-- &#45;34 -->
<g id="node34" class="node">
<title>&#45;34</title>
<polygon fill="lightgray" stroke="black" points="1828,-103.5 1796,-103.5 1796,-85.5 1828,-85.5 1828,-103.5"/>
<text text-anchor="middle" x="1812" y="-92.3" font-family="Times,serif" font-size="9.00">&#45;34</text>
</g>
<!-- &#45;35 -->
<g id="node35" class="node">
<title>&#45;35</title>
<polygon fill="lightgray" stroke="black" points="1878,-103.5 1846,-103.5 1846,-85.5 1878,-85.5 1878,-103.5"/>
<text text-anchor="middle" x="1862" y="-92.3" font-family="Times,serif" font-size="9.00">&#45;35</text>
</g>
<!-- &#45;36 -->
<g id="node36" class="node">
<title>&#45;36</title>
<polygon fill="lightgray" stroke="black" points="220,-103.5 188,-103.5 188,-85.5 220,-85.5 220,-103.5"/>
<text text-anchor="middle" x="204" y="-92.3" font-family="Times,serif" font-size="9.00">&#45;36</text>
</g>
<!-- &#45;36&#45;&gt;1 -->
<g id="edge15" class="edge">
<title>&#45;36&#45;&gt;1</title>
<path fill="none" stroke="red" stroke-width="0.24" d="M204,-85.46C204,-77.06 204,-63.43 204,-51.31"/>
<polygon fill="red" stroke="red" stroke-width="0.24" points="207.5,-51.22 204,-41.22 200.5,-51.22 207.5,-51.22"/>
</g>
<!-- &#45;37 -->
<g id="node37" class="node">
<title>&#45;37</title>
<polygon fill="lightgray" stroke="black" points="270,-103.5 238,-103.5 238,-85.5 270,-85.5 270,-103.5"/>
<text text-anchor="middle" x="254" y="-92.3" font-family="Times,serif" font-size="9.00">&#45;37</text>
</g>
<!-- &#45;37&#45;&gt;1 -->
<g id="edge16" class="edge">
<title>&#45;37&#45;&gt;1</title>
<path fill="none" stroke="green" stroke-width="0.3" d="M248.07,-85.46C241.02,-75.91 229,-59.63 219.3,-46.47"/>
<polygon fill="green" stroke="green" stroke-width="0.3" points="222.08,-44.35 213.33,-38.39 216.45,-48.51 222.08,-44.35"/>
</g>
<!-- &#45;38 -->
<g id="node38" class="node">
<title>&#45;38</title>
<polygon fill="lightgray" stroke="black" points="320,-103.5 288,-103.5 288,-85.5 320,-85.5 320,-103.5"/>
<text text-anchor="middle" x="304" y="-92.3" font-family="Times,serif" font-size="9.00">&#45;38</text>
</g>
<!-- &#45;38&#45;&gt;1 -->
<g id="edge2" class="edge">
<title>&#45;38&#45;&gt;1</title>
<path fill="none" stroke="red" stroke-width="0.32" d="M292.14,-85.46C275.73,-74.35 245.84,-54.1 225.46,-40.29"/>
<polygon fill="red" stroke="red" stroke-width="0.32" points="227.36,-37.35 217.11,-34.63 223.43,-43.14 227.36,-37.35"/>
</g>
<!-- &#45;39 -->
<g id="node39" class="node">
<title>&#45;39</title>
<polygon fill="lightgray" stroke="black" points="370,-103.5 338,-103.5 338,-85.5 370,-85.5 370,-103.5"/>
<text text-anchor="middle" x="354" y="-92.3" font-family="Times,serif" font-size="9.00">&#45;39</text>
</g>
<!-- &#45;39&#45;&gt;1 -->
<g id="edge5" class="edge">
<title>&#45;39&#45;&gt;1</title>
<path fill="none" stroke="red" stroke-width="0.34" d="M337.95,-86.25C311.49,-74.3 258.58,-50.4 227.77,-36.48"/>
<polygon fill="red" stroke="red" stroke-width="0.34" points="229.16,-33.27 218.6,-32.34 226.28,-39.65 229.16,-33.27"/>
</g>
<!-- &#45;40 -->
<g id="node40" class="node">
<title>&#45;40</title>
<polygon fill="lightgray" stroke="black" points="1928,-103.5 1896,-103.5 1896,-85.5 1928,-85.5 1928,-103.5"/>
<text text-anchor="middle" x="1912" y="-92.3" font-family="Times,serif" font-size="9.00">&#45;40</text>
</g>
</g>
</svg>
