<?xml version="1.0" encoding="UTF-8" standalone="no"?>
<!DOCTYPE svg PUBLIC "-//W3C//DTD SVG 1.1//EN"
 "http://www.w3.org/Graphics/SVG/1.1/DTD/svg11.dtd">
<!-- Generated by graphviz version 2.43.0 (0)
 -->
<!-- Title: %3 Pages: 1 -->
<svg width="1136pt" height="189pt"
 viewBox="0.00 0.00 1136.00 188.51" xmlns="http://www.w3.org/2000/svg" xmlns:xlink="http://www.w3.org/1999/xlink">
<g id="graph0" class="graph" transform="scale(1 1) rotate(0) translate(4 184.51)">
<title>%3</title>
<polygon fill="white" stroke="transparent" points="-4,4 -4,-184.51 1132,-184.51 1132,4 -4,4"/>
<!-- &#45;1 -->
<g id="node1" class="node">
<title>&#45;1</title>
<polygon fill="lightgray" stroke="black" points="226,-180.51 200,-180.51 200,-162.51 226,-162.51 226,-180.51"/>
<text text-anchor="middle" x="213" y="-169.31" font-family="Times,serif" font-size="9.00">&#45;1</text>
</g>
<!-- 1 -->
<g id="node26" class="node">
<title>1</title>
<ellipse fill="lightblue" stroke="black" cx="257" cy="-110.25" rx="16.03" ry="16.03"/>
<text text-anchor="middle" x="257" y="-108.05" font-family="Times,serif" font-size="9.00">1</text>
</g>
<!-- &#45;1&#45;&gt;1 -->
<g id="edge10" class="edge">
<title>&#45;1&#45;&gt;1</title>
<path fill="none" stroke="green" stroke-width="0.87" stroke-dasharray="1,5" d="M219.12,-162.27C224.87,-154.52 233.73,-142.58 241.44,-132.2"/>
<polygon fill="green" stroke="green" stroke-width="0.87" points="244.4,-134.09 247.55,-123.98 238.78,-129.92 244.4,-134.09"/>
</g>
<!-- 2 -->
<g id="node27" class="node">
<title>2</title>
<ellipse fill="lightblue" stroke="black" cx="452" cy="-110.25" rx="16.03" ry="16.03"/>
<text text-anchor="middle" x="452" y="-108.05" font-family="Times,serif" font-size="9.00">2</text>
</g>
<!-- &#45;1&#45;&gt;2 -->
<g id="edge32" class="edge">
<title>&#45;1&#45;&gt;2</title>
<path fill="none" stroke="red" stroke-width="0.71" stroke-dasharray="1,5" d="M226.41,-165.35C229.23,-164.35 232.2,-163.35 235,-162.51 303.09,-142.16 385.13,-124.63 426.08,-116.35"/>
<polygon fill="red" stroke="red" stroke-width="0.71" points="426.92,-119.75 436.04,-114.35 425.55,-112.88 426.92,-119.75"/>
</g>
<!-- &#45;2 -->
<g id="node2" class="node">
<title>&#45;2</title>
<polygon fill="lightgray" stroke="black" points="884,-180.51 858,-180.51 858,-162.51 884,-162.51 884,-180.51"/>
<text text-anchor="middle" x="871" y="-169.31" font-family="Times,serif" font-size="9.00">&#45;2</text>
</g>
<!-- 0 -->
<g id="node25" class="node">
<title>0</title>
<ellipse fill="lightblue" stroke="black" cx="739" cy="-110.25" rx="16.03" ry="16.03"/>
<text text-anchor="middle" x="739" y="-108.05" font-family="Times,serif" font-size="9.00">0</text>
</g>
<!-- &#45;2&#45;&gt;0 -->
<g id="edge46" class="edge">
<title>&#45;2&#45;&gt;0</title>
<path fill="none" stroke="green" stroke-width="0.73" stroke-dasharray="1,5" d="M857.86,-164.61C835.79,-154.7 790.96,-134.58 763.11,-122.07"/>
<polygon fill="green" stroke="green" stroke-width="0.73" points="764.24,-118.74 753.69,-117.84 761.38,-125.13 764.24,-118.74"/>
</g>
<!-- &#45;2&#45;&gt;2 -->
<g id="edge17" class="edge">
<title>&#45;2&#45;&gt;2</title>
<path fill="none" stroke="green" stroke-width="0.68" d="M857.65,-165.12C854.83,-164.14 851.84,-163.2 849,-162.51 712.08,-129.21 542.99,-116.5 478.6,-112.65"/>
<polygon fill="green" stroke="green" stroke-width="0.68" points="478.68,-109.15 468.5,-112.07 478.28,-116.14 478.68,-109.15"/>
</g>
<!-- 3 -->
<g id="node28" class="node">
<title>3</title>
<ellipse fill="lightblue" stroke="black" cx="849" cy="-110.25" rx="16.03" ry="16.03"/>
<text text-anchor="middle" x="849" y="-108.05" font-family="Times,serif" font-size="9.00">3</text>
</g>
<!-- &#45;2&#45;&gt;3 -->
<g id="edge23" class="edge">
<title>&#45;2&#45;&gt;3</title>
<path fill="none" stroke="green" stroke-width="1.15" d="M867.94,-162.27C865.35,-155.28 861.49,-144.9 857.94,-135.32"/>
<polygon fill="green" stroke="green" stroke-width="1.15" points="861.16,-133.96 854.4,-125.8 854.6,-136.39 861.16,-133.96"/>
</g>
<!-- &#45;3 -->
<g id="node3" class="node">
<title>&#45;3</title>
<polygon fill="lightgray" stroke="black" points="840,-180.51 814,-180.51 814,-162.51 840,-162.51 840,-180.51"/>
<text text-anchor="middle" x="827" y="-169.31" font-family="Times,serif" font-size="9.00">&#45;3</text>
</g>
<!-- &#45;3&#45;&gt;0 -->
<g id="edge39" class="edge">
<title>&#45;3&#45;&gt;0</title>
<path fill="none" stroke="red" stroke-width="0.16" d="M814.76,-162.27C800.9,-152.93 778.02,-137.52 761.02,-126.08"/>
<polygon fill="red" stroke="red" stroke-width="0.16" points="762.53,-122.87 752.28,-120.19 758.62,-128.68 762.53,-122.87"/>
</g>
<!-- &#45;3&#45;&gt;2 -->
<g id="edge35" class="edge">
<title>&#45;3&#45;&gt;2</title>
<path fill="none" stroke="red" stroke-width="1.55" d="M813.64,-165.16C810.82,-164.17 807.84,-163.22 805,-162.51 685.14,-132.35 537.62,-118.06 478.42,-113.22"/>
<polygon fill="red" stroke="red" stroke-width="1.55" points="478.66,-109.73 468.42,-112.43 478.11,-116.71 478.66,-109.73"/>
</g>
<!-- &#45;3&#45;&gt;3 -->
<g id="edge42" class="edge">
<title>&#45;3&#45;&gt;3</title>
<path fill="none" stroke="green" stroke-width="0.18" stroke-dasharray="1,5" d="M830.06,-162.27C832.65,-155.28 836.51,-144.9 840.06,-135.32"/>
<polygon fill="green" stroke="green" stroke-width="0.18" points="843.4,-136.39 843.6,-125.8 836.84,-133.96 843.4,-136.39"/>
</g>
<!-- &#45;4 -->
<g id="node4" class="node">
<title>&#45;4</title>
<polygon fill="lightgray" stroke="black" points="1078,-180.51 1052,-180.51 1052,-162.51 1078,-162.51 1078,-180.51"/>
<text text-anchor="middle" x="1065" y="-169.31" font-family="Times,serif" font-size="9.00">&#45;4</text>
</g>
<!-- &#45;4&#45;&gt;3 -->
<g id="edge16" class="edge">
<title>&#45;4&#45;&gt;3</title>
<path fill="none" stroke="red" stroke-width="0.1" d="M1051.57,-165.41C1048.75,-164.4 1045.79,-163.38 1043,-162.51 983.39,-143.84 912.12,-126.17 874.76,-117.27"/>
<polygon fill="red" stroke="red" stroke-width="0.1" points="875.27,-113.79 864.73,-114.89 873.65,-120.6 875.27,-113.79"/>
</g>
<!-- &#45;5 -->
<g id="node5" class="node">
<title>&#45;5</title>
<polygon fill="lightgray" stroke="black" points="752,-180.51 726,-180.51 726,-162.51 752,-162.51 752,-180.51"/>
<text text-anchor="middle" x="739" y="-169.31" font-family="Times,serif" font-size="9.00">&#45;5</text>
</g>
<!-- &#45;5&#45;&gt;0 -->
<g id="edge33" class="edge">
<title>&#45;5&#45;&gt;0</title>
<path fill="none" stroke="red" stroke-width="0.54" stroke-dasharray="1,5" d="M739,-162.27C739,-155.69 739,-146.09 739,-136.98"/>
<polygon fill="red" stroke="red" stroke-width="0.54" points="742.5,-136.74 739,-126.74 735.5,-136.74 742.5,-136.74"/>
</g>
<!-- &#45;5&#45;&gt;1 -->
<g id="edge14" class="edge">
<title>&#45;5&#45;&gt;1</title>
<path fill="none" stroke="green" stroke-width="0.22" stroke-dasharray="1,5" d="M725.66,-165.09C722.84,-164.1 719.85,-163.18 717,-162.51 674.61,-152.59 374.4,-122.73 283.21,-113.8"/>
<polygon fill="green" stroke="green" stroke-width="0.22" points="283.45,-110.31 273.15,-112.82 282.77,-117.27 283.45,-110.31"/>
</g>
<!-- &#45;5&#45;&gt;3 -->
<g id="edge30" class="edge">
<title>&#45;5&#45;&gt;3</title>
<path fill="none" stroke="red" stroke-width="1.15" stroke-dasharray="1,5" d="M752.05,-163.48C770.28,-153.66 803.63,-135.69 826.06,-123.61"/>
<polygon fill="red" stroke="red" stroke-width="1.15" points="827.78,-126.65 834.93,-118.83 824.46,-120.49 827.78,-126.65"/>
</g>
<!-- &#45;6 -->
<g id="node6" class="node">
<title>&#45;6</title>
<polygon fill="lightgray" stroke="black" points="796,-180.51 770,-180.51 770,-162.51 796,-162.51 796,-180.51"/>
<text text-anchor="middle" x="783" y="-169.31" font-family="Times,serif" font-size="9.00">&#45;6</text>
</g>
<!-- &#45;6&#45;&gt;0 -->
<g id="edge27" class="edge">
<title>&#45;6&#45;&gt;0</title>
<path fill="none" stroke="green" stroke-width="0.65" stroke-dasharray="1,5" d="M776.88,-162.27C771.13,-154.52 762.27,-142.58 754.56,-132.2"/>
<polygon fill="green" stroke="green" stroke-width="0.65" points="757.22,-129.92 748.45,-123.98 751.6,-134.09 757.22,-129.92"/>
</g>
<!-- &#45;6&#45;&gt;1 -->
<g id="edge25" class="edge">
<title>&#45;6&#45;&gt;1</title>
<path fill="none" stroke="green" stroke-width="0.48" stroke-dasharray="1,5" d="M769.66,-165.06C766.84,-164.08 763.85,-163.16 761,-162.51 737.47,-157.12 383.7,-123.28 283.35,-113.74"/>
<polygon fill="green" stroke="green" stroke-width="0.48" points="283.45,-110.24 273.17,-112.78 282.79,-117.21 283.45,-110.24"/>
</g>
<!-- &#45;6&#45;&gt;3 -->
<g id="edge24" class="edge">
<title>&#45;6&#45;&gt;3</title>
<path fill="none" stroke="red" stroke-width="0.4" d="M792.18,-162.27C801.82,-153.61 817.29,-139.72 829.65,-128.62"/>
<polygon fill="red" stroke="red" stroke-width="0.4" points="832.13,-131.1 837.23,-121.82 827.45,-125.89 832.13,-131.1"/>
</g>
<!-- &#45;7 -->
<g id="node7" class="node">
<title>&#45;7</title>
<polygon fill="lightgray" stroke="black" points="514,-180.51 488,-180.51 488,-162.51 514,-162.51 514,-180.51"/>
<text text-anchor="middle" x="501" y="-169.31" font-family="Times,serif" font-size="9.00">&#45;7</text>
</g>
<!-- &#45;7&#45;&gt;0 -->
<g id="edge5" class="edge">
<title>&#45;7&#45;&gt;0</title>
<path fill="none" stroke="red" stroke-width="0.8" stroke-dasharray="1,5" d="M514.41,-165.35C517.23,-164.35 520.2,-163.35 523,-162.51 590.79,-142.21 672.44,-124.66 713.2,-116.36"/>
<polygon fill="red" stroke="red" stroke-width="0.8" points="714.01,-119.77 723.11,-114.36 712.62,-112.91 714.01,-119.77"/>
</g>
<!-- &#45;7&#45;&gt;2 -->
<g id="edge2" class="edge">
<title>&#45;7&#45;&gt;2</title>
<path fill="none" stroke="green" stroke-width="0.55" d="M494.19,-162.27C487.63,-154.34 477.45,-142.03 468.74,-131.49"/>
<polygon fill="green" stroke="green" stroke-width="0.55" points="471.23,-129.01 462.16,-123.53 465.84,-133.47 471.23,-129.01"/>
</g>
<!-- &#45;8 -->
<g id="node8" class="node">
<title>&#45;8</title>
<polygon fill="lightgray" stroke="black" points="270,-180.51 244,-180.51 244,-162.51 270,-162.51 270,-180.51"/>
<text text-anchor="middle" x="257" y="-169.31" font-family="Times,serif" font-size="9.00">&#45;8</text>
</g>
<!-- &#45;8&#45;&gt;1 -->
<g id="edge3" class="edge">
<title>&#45;8&#45;&gt;1</title>
<path fill="none" stroke="red" stroke-width="0.3" d="M257,-162.27C257,-155.69 257,-146.09 257,-136.98"/>
<polygon fill="red" stroke="red" stroke-width="0.3" points="260.5,-136.74 257,-126.74 253.5,-136.74 260.5,-136.74"/>
</g>
<!-- &#45;8&#45;&gt;2 -->
<g id="edge8" class="edge">
<title>&#45;8&#45;&gt;2</title>
<path fill="none" stroke="green" stroke-width="0.13" stroke-dasharray="1,5" d="M270.45,-165.47C273.26,-164.46 276.22,-163.43 279,-162.51 330.81,-145.43 392.19,-127.86 426.14,-118.38"/>
<polygon fill="green" stroke="green" stroke-width="0.13" points="427.46,-121.65 436.16,-115.59 425.59,-114.9 427.46,-121.65"/>
</g>
<!-- &#45;9 -->
<g id="node9" class="node">
<title>&#45;9</title>
<polygon fill="lightgray" stroke="black" points="558,-180.51 532,-180.51 532,-162.51 558,-162.51 558,-180.51"/>
<text text-anchor="middle" x="545" y="-169.31" font-family="Times,serif" font-size="9.00">&#45;9</text>
</g>
<!-- &#45;9&#45;&gt;0 -->
<g id="edge19" class="edge">
<title>&#45;9&#45;&gt;0</title>
<path fill="none" stroke="red" stroke-width="0.41" d="M558.45,-165.48C561.27,-164.46 564.22,-163.43 567,-162.51 618.52,-145.48 679.54,-127.9 713.3,-118.39"/>
<polygon fill="red" stroke="red" stroke-width="0.41" points="714.57,-121.67 723.25,-115.6 712.68,-114.93 714.57,-121.67"/>
</g>
<!-- &#45;9&#45;&gt;2 -->
<g id="edge47" class="edge">
<title>&#45;9&#45;&gt;2</title>
<path fill="none" stroke="red" stroke-width="0.31" d="M532.07,-162.27C517.11,-152.74 492.22,-136.88 474.16,-125.37"/>
<polygon fill="red" stroke="red" stroke-width="0.31" points="475.74,-122.22 465.42,-119.8 471.98,-128.13 475.74,-122.22"/>
</g>
<!-- &#45;10 -->
<g id="node10" class="node">
<title>&#45;10</title>
<polygon fill="lightgray" stroke="black" points="984,-180.51 952,-180.51 952,-162.51 984,-162.51 984,-180.51"/>
<text text-anchor="middle" x="968" y="-169.31" font-family="Times,serif" font-size="9.00">&#45;10</text>
</g>
<!-- &#45;10&#45;&gt;0 -->
<g id="edge31" class="edge">
<title>&#45;10&#45;&gt;0</title>
<path fill="none" stroke="red" stroke-width="0.13" stroke-dasharray="1,5" d="M951.91,-165.19C948.95,-164.27 945.89,-163.33 943,-162.51 879.28,-144.33 803.41,-126.17 764.62,-117.13"/>
<polygon fill="red" stroke="red" stroke-width="0.13" points="765.23,-113.68 754.7,-114.83 763.65,-120.5 765.23,-113.68"/>
</g>
<!-- &#45;10&#45;&gt;3 -->
<g id="edge18" class="edge">
<title>&#45;10&#45;&gt;3</title>
<path fill="none" stroke="red" stroke-width="0.1" stroke-dasharray="1,5" d="M951.95,-162.52C931.52,-152.34 896.07,-134.69 872.57,-122.98"/>
<polygon fill="red" stroke="red" stroke-width="0.1" points="873.82,-119.7 863.31,-118.37 870.7,-125.96 873.82,-119.7"/>
</g>
<!-- &#45;11 -->
<g id="node11" class="node">
<title>&#45;11</title>
<polygon fill="lightgray" stroke="black" points="1034,-180.51 1002,-180.51 1002,-162.51 1034,-162.51 1034,-180.51"/>
<text text-anchor="middle" x="1018" y="-169.31" font-family="Times,serif" font-size="9.00">&#45;11</text>
</g>
<!-- &#45;11&#45;&gt;0 -->
<g id="edge1" class="edge">
<title>&#45;11&#45;&gt;0</title>
<path fill="none" stroke="green" stroke-width="0.19" stroke-dasharray="1,5" d="M1001.94,-165.08C998.98,-164.17 995.91,-163.27 993,-162.51 949.73,-151.26 820.55,-126.58 764.94,-116.1"/>
<polygon fill="green" stroke="green" stroke-width="0.19" points="765.32,-112.61 754.84,-114.21 764.02,-119.49 765.32,-112.61"/>
</g>
<!-- &#45;11&#45;&gt;3 -->
<g id="edge38" class="edge">
<title>&#45;11&#45;&gt;3</title>
<path fill="none" stroke="red" stroke-width="0.33" stroke-dasharray="1,5" d="M1001.8,-164.83C972.17,-154.44 909.09,-132.32 873.95,-120"/>
<polygon fill="red" stroke="red" stroke-width="0.33" points="875.01,-116.66 864.42,-116.65 872.7,-123.27 875.01,-116.66"/>
</g>
<!-- &#45;12 -->
<g id="node12" class="node">
<title>&#45;12</title>
<polygon fill="lightgray" stroke="black" points="420,-180.51 388,-180.51 388,-162.51 420,-162.51 420,-180.51"/>
<text text-anchor="middle" x="404" y="-169.31" font-family="Times,serif" font-size="9.00">&#45;12</text>
</g>
<!-- &#45;12&#45;&gt;2 -->
<g id="edge36" class="edge">
<title>&#45;12&#45;&gt;2</title>
<path fill="none" stroke="red" stroke-width="0.23" stroke-dasharray="1,5" d="M410.67,-162.27C417.1,-154.34 427.07,-142.03 435.6,-131.49"/>
<polygon fill="red" stroke="red" stroke-width="0.23" points="438.47,-133.51 442.05,-123.53 433.03,-129.1 438.47,-133.51"/>
</g>
<!-- &#45;13 -->
<g id="node13" class="node">
<title>&#45;13</title>
<polygon fill="lightgray" stroke="black" points="32,-180.51 0,-180.51 0,-162.51 32,-162.51 32,-180.51"/>
<text text-anchor="middle" x="16" y="-169.31" font-family="Times,serif" font-size="9.00">&#45;13</text>
</g>
<!-- &#45;13&#45;&gt;1 -->
<g id="edge7" class="edge">
<title>&#45;13&#45;&gt;1</title>
<path fill="none" stroke="green" stroke-width="0.51" d="M32.08,-165.16C35.04,-164.24 38.1,-163.32 41,-162.51 109.17,-143.54 190.66,-125.41 231.3,-116.68"/>
<polygon fill="green" stroke="green" stroke-width="0.51" points="232.13,-120.08 241.17,-114.57 230.66,-113.23 232.13,-120.08"/>
</g>
<!-- &#45;14 -->
<g id="node14" class="node">
<title>&#45;14</title>
<polygon fill="lightgray" stroke="black" points="132,-180.51 100,-180.51 100,-162.51 132,-162.51 132,-180.51"/>
<text text-anchor="middle" x="116" y="-169.31" font-family="Times,serif" font-size="9.00">&#45;14</text>
</g>
<!-- &#45;14&#45;&gt;1 -->
<g id="edge41" class="edge">
<title>&#45;14&#45;&gt;1</title>
<path fill="none" stroke="green" stroke-width="0.18" stroke-dasharray="1,5" d="M132.17,-163.71C156.89,-153.32 204.22,-133.43 232.96,-121.35"/>
<polygon fill="green" stroke="green" stroke-width="0.18" points="234.43,-124.53 242.29,-117.43 231.71,-118.08 234.43,-124.53"/>
</g>
<!-- &#45;14&#45;&gt;2 -->
<g id="edge13" class="edge">
<title>&#45;14&#45;&gt;2</title>
<path fill="none" stroke="green" stroke-width="0.28" stroke-dasharray="1,5" d="M132.04,-165C135,-164.09 138.08,-163.21 141,-162.51 245.27,-137.38 372.17,-120.68 425.94,-114.23"/>
<polygon fill="green" stroke="green" stroke-width="0.28" points="426.46,-117.7 435.98,-113.05 425.63,-110.74 426.46,-117.7"/>
</g>
<!-- &#45;15 -->
<g id="node15" class="node">
<title>&#45;15</title>
<polygon fill="lightgray" stroke="black" points="320,-180.51 288,-180.51 288,-162.51 320,-162.51 320,-180.51"/>
<text text-anchor="middle" x="304" y="-169.31" font-family="Times,serif" font-size="9.00">&#45;15</text>
</g>
<!-- &#45;15&#45;&gt;2 -->
<g id="edge28" class="edge">
<title>&#45;15&#45;&gt;2</title>
<path fill="none" stroke="green" stroke-width="0.66" d="M320.12,-164.05C346.1,-153.65 397.39,-133.11 427.78,-120.94"/>
<polygon fill="green" stroke="green" stroke-width="0.66" points="429.24,-124.13 437.22,-117.16 426.64,-117.63 429.24,-124.13"/>
</g>
<!-- &#45;16 -->
<g id="node16" class="node">
<title>&#45;16</title>
<polygon fill="lightgray" stroke="black" points="182,-180.51 150,-180.51 150,-162.51 182,-162.51 182,-180.51"/>
<text text-anchor="middle" x="166" y="-169.31" font-family="Times,serif" font-size="9.00">&#45;16</text>
</g>
<!-- &#45;16&#45;&gt;1 -->
<g id="edge48" class="edge">
<title>&#45;16&#45;&gt;1</title>
<path fill="none" stroke="green" stroke-width="0.19" d="M178.65,-162.27C193.21,-152.79 217.37,-137.06 235.02,-125.56"/>
<polygon fill="green" stroke="green" stroke-width="0.19" points="237.1,-128.38 243.57,-119.99 233.28,-122.52 237.1,-128.38"/>
</g>
<!-- &#45;16&#45;&gt;2 -->
<g id="edge37" class="edge">
<title>&#45;16&#45;&gt;2</title>
<path fill="none" stroke="red" stroke-width="0.45" d="M182.06,-165.07C185.01,-164.15 188.09,-163.26 191,-162.51 276.05,-140.63 378.78,-122.96 425.98,-115.33"/>
<polygon fill="red" stroke="red" stroke-width="0.45" points="426.65,-118.77 435.97,-113.73 425.54,-111.86 426.65,-118.77"/>
</g>
<!-- &#45;17 -->
<g id="node17" class="node">
<title>&#45;17</title>
<polygon fill="lightgray" stroke="black" points="934,-180.51 902,-180.51 902,-162.51 934,-162.51 934,-180.51"/>
<text text-anchor="middle" x="918" y="-169.31" font-family="Times,serif" font-size="9.00">&#45;17</text>
</g>
<!-- &#45;17&#45;&gt;0 -->
<g id="edge11" class="edge">
<title>&#45;17&#45;&gt;0</title>
<path fill="none" stroke="green" stroke-width="0.16" stroke-dasharray="1,5" d="M901.8,-165.15C870.41,-154.75 801.14,-131.82 763.87,-119.48"/>
<polygon fill="green" stroke="green" stroke-width="0.16" points="764.87,-116.12 754.27,-116.3 762.66,-122.77 764.87,-116.12"/>
</g>
<!-- &#45;18 -->
<g id="node18" class="node">
<title>&#45;18</title>
<polygon fill="lightgray" stroke="black" points="608,-180.51 576,-180.51 576,-162.51 608,-162.51 608,-180.51"/>
<text text-anchor="middle" x="592" y="-169.31" font-family="Times,serif" font-size="9.00">&#45;18</text>
</g>
<!-- &#45;18&#45;&gt;0 -->
<g id="edge15" class="edge">
<title>&#45;18&#45;&gt;0</title>
<path fill="none" stroke="red" stroke-width="1" d="M608.01,-164.05C633.68,-153.7 684.23,-133.33 714.48,-121.13"/>
<polygon fill="red" stroke="red" stroke-width="1" points="715.92,-124.32 723.89,-117.34 713.31,-117.83 715.92,-124.32"/>
</g>
<!-- &#45;18&#45;&gt;2 -->
<g id="edge34" class="edge">
<title>&#45;18&#45;&gt;2</title>
<path fill="none" stroke="green" stroke-width="0.45" stroke-dasharray="1,5" d="M575.94,-163.71C551.4,-153.32 504.41,-133.43 475.87,-121.35"/>
<polygon fill="green" stroke="green" stroke-width="0.45" points="477.18,-118.1 466.61,-117.43 474.45,-124.55 477.18,-118.1"/>
</g>
<!-- &#45;19 -->
<g id="node19" class="node">
<title>&#45;19</title>
<polygon fill="lightgray" stroke="black" points="708,-180.51 676,-180.51 676,-162.51 708,-162.51 708,-180.51"/>
<text text-anchor="middle" x="692" y="-169.31" font-family="Times,serif" font-size="9.00">&#45;19</text>
</g>
<!-- &#45;19&#45;&gt;0 -->
<g id="edge44" class="edge">
<title>&#45;19&#45;&gt;0</title>
<path fill="none" stroke="red" stroke-width="0.71" stroke-dasharray="1,5" d="M698.54,-162.27C704.82,-154.34 714.58,-142.03 722.94,-131.49"/>
<polygon fill="red" stroke="red" stroke-width="0.71" points="725.78,-133.54 729.25,-123.53 720.3,-129.19 725.78,-133.54"/>
</g>
<!-- &#45;19&#45;&gt;1 -->
<g id="edge6" class="edge">
<title>&#45;19&#45;&gt;1</title>
<path fill="none" stroke="green" stroke-width="0.14" stroke-dasharray="1,5" d="M675.98,-164.9C673.02,-164 669.94,-163.16 667,-162.51 592.9,-146.17 361.29,-121.83 283.09,-113.87"/>
<polygon fill="green" stroke="green" stroke-width="0.14" points="283.41,-110.38 273.1,-112.86 282.7,-117.35 283.41,-110.38"/>
</g>
<!-- &#45;19&#45;&gt;3 -->
<g id="edge29" class="edge">
<title>&#45;19&#45;&gt;3</title>
<path fill="none" stroke="red" stroke-width="0.22" stroke-dasharray="1,5" d="M708.21,-164.39C735.78,-153.98 791.96,-132.78 824.4,-120.53"/>
<polygon fill="red" stroke="red" stroke-width="0.22" points="825.91,-123.7 834.03,-116.9 823.44,-117.15 825.91,-123.7"/>
</g>
<!-- &#45;20 -->
<g id="node20" class="node">
<title>&#45;20</title>
<polygon fill="lightgray" stroke="black" points="1128,-180.51 1096,-180.51 1096,-162.51 1128,-162.51 1128,-180.51"/>
<text text-anchor="middle" x="1112" y="-169.31" font-family="Times,serif" font-size="9.00">&#45;20</text>
</g>
<!-- &#45;20&#45;&gt;3 -->
<g id="edge20" class="edge">
<title>&#45;20&#45;&gt;3</title>
<path fill="none" stroke="red" stroke-width="0.23" stroke-dasharray="1,5" d="M1095.93,-165.11C1092.98,-164.19 1089.91,-163.29 1087,-162.51 1010.61,-142.11 918.77,-124.15 874.85,-115.96"/>
<polygon fill="red" stroke="red" stroke-width="0.23" points="875.47,-112.51 865,-114.13 874.2,-119.4 875.47,-112.51"/>
</g>
<!-- &#45;21 -->
<g id="node21" class="node">
<title>&#45;21</title>
<polygon fill="lightgray" stroke="black" points="470,-180.51 438,-180.51 438,-162.51 470,-162.51 470,-180.51"/>
<text text-anchor="middle" x="454" y="-169.31" font-family="Times,serif" font-size="9.00">&#45;21</text>
</g>
<!-- &#45;21&#45;&gt;1 -->
<g id="edge12" class="edge">
<title>&#45;21&#45;&gt;1</title>
<path fill="none" stroke="green" stroke-width="0.32" d="M437.88,-165.3C434.93,-164.36 431.87,-163.4 429,-162.51 377.15,-146.49 316.25,-128.54 282.6,-118.7"/>
<polygon fill="green" stroke="green" stroke-width="0.32" points="283.26,-115.25 272.68,-115.81 281.3,-121.97 283.26,-115.25"/>
</g>
<!-- &#45;21&#45;&gt;3 -->
<g id="edge43" class="edge">
<title>&#45;21&#45;&gt;3</title>
<path fill="none" stroke="red" stroke-width="0.32" d="M470.02,-164.9C472.98,-164.01 476.06,-163.16 479,-162.51 603.66,-134.94 637.79,-145.8 764,-126.51 783.82,-123.48 806.12,-119.45 822.91,-116.29"/>
<polygon fill="red" stroke="red" stroke-width="0.32" points="823.89,-119.67 833.06,-114.36 822.58,-112.79 823.89,-119.67"/>
</g>
<!-- &#45;22 -->
<g id="node22" class="node">
<title>&#45;22</title>
<polygon fill="lightgray" stroke="black" points="370,-180.51 338,-180.51 338,-162.51 370,-162.51 370,-180.51"/>
<text text-anchor="middle" x="354" y="-169.31" font-family="Times,serif" font-size="9.00">&#45;22</text>
</g>
<!-- &#45;22&#45;&gt;0 -->
<g id="edge26" class="edge">
<title>&#45;22&#45;&gt;0</title>
<path fill="none" stroke="red" stroke-width="0.65" stroke-dasharray="1,5" d="M370.03,-164.94C372.99,-164.04 376.07,-163.18 379,-162.51 502.09,-134.26 652.64,-118.86 712.57,-113.47"/>
<polygon fill="red" stroke="red" stroke-width="0.65" points="713.02,-116.95 722.68,-112.58 712.41,-109.97 713.02,-116.95"/>
</g>
<!-- &#45;22&#45;&gt;1 -->
<g id="edge9" class="edge">
<title>&#45;22&#45;&gt;1</title>
<path fill="none" stroke="green" stroke-width="0.17" d="M340.51,-162.27C324.68,-152.59 298.18,-136.4 279.27,-124.85"/>
<polygon fill="green" stroke="green" stroke-width="0.17" points="281.04,-121.83 270.69,-119.61 277.39,-127.81 281.04,-121.83"/>
</g>
<!-- &#45;23 -->
<g id="node23" class="node">
<title>&#45;23</title>
<polygon fill="lightgray" stroke="black" points="82,-180.51 50,-180.51 50,-162.51 82,-162.51 82,-180.51"/>
<text text-anchor="middle" x="66" y="-169.31" font-family="Times,serif" font-size="9.00">&#45;23</text>
</g>
<!-- &#45;23&#45;&gt;1 -->
<g id="edge40" class="edge">
<title>&#45;23&#45;&gt;1</title>
<path fill="none" stroke="red" stroke-width="0.72" d="M82.13,-165.32C85.08,-164.38 88.13,-163.41 91,-162.51 140.85,-146.84 199.26,-128.9 231.81,-118.94"/>
<polygon fill="red" stroke="red" stroke-width="0.72" points="232.88,-122.27 241.42,-116 230.83,-115.58 232.88,-122.27"/>
</g>
<!-- &#45;24 -->
<g id="node24" class="node">
<title>&#45;24</title>
<polygon fill="lightgray" stroke="black" points="658,-180.51 626,-180.51 626,-162.51 658,-162.51 658,-180.51"/>
<text text-anchor="middle" x="642" y="-169.31" font-family="Times,serif" font-size="9.00">&#45;24</text>
</g>
<!-- &#45;24&#45;&gt;0 -->
<g id="edge45" class="edge">
<title>&#45;24&#45;&gt;0</title>
<path fill="none" stroke="green" stroke-width="0.44" stroke-dasharray="1,5" d="M655.49,-162.27C671.32,-152.59 697.82,-136.4 716.73,-124.85"/>
<polygon fill="green" stroke="green" stroke-width="0.44" points="718.61,-127.81 725.31,-119.61 714.96,-121.83 718.61,-127.81"/>
</g>
<!-- &#45;24&#45;&gt;2 -->
<g id="edge22" class="edge">
<title>&#45;24&#45;&gt;2</title>
<path fill="none" stroke="green" stroke-width="0.13" d="M625.87,-165.33C622.92,-164.38 619.87,-163.41 617,-162.51 567.65,-146.95 509.89,-129.08 477.46,-119.08"/>
<polygon fill="green" stroke="green" stroke-width="0.13" points="478.07,-115.61 467.48,-116.01 476.01,-122.3 478.07,-115.61"/>
</g>
<!-- 1&#45;&gt;1 -->
<g id="edge21" class="edge">
<title>1&#45;&gt;1</title>
<path fill="none" stroke="red" stroke-width="0.19" stroke-dasharray="1,5" d="M270.36,-120.04C280.71,-123.71 291.26,-120.44 291.26,-110.25 291.26,-103.56 286.72,-99.85 280.67,-99.13"/>
<polygon fill="red" stroke="red" stroke-width="0.19" points="279.84,-95.71 270.36,-100.45 280.73,-102.65 279.84,-95.71"/>
</g>
<!-- 2&#45;&gt;2 -->
<g id="edge4" class="edge">
<title>2&#45;&gt;2</title>
<path fill="none" stroke="red" stroke-width="0.5" stroke-dasharray="1,5" d="M465.36,-120.04C475.71,-123.71 486.26,-120.44 486.26,-110.25 486.26,-103.56 481.72,-99.85 475.67,-99.13"/>
<polygon fill="red" stroke="red" stroke-width="0.5" points="474.84,-95.71 465.36,-100.45 475.73,-102.65 474.84,-95.71"/>
</g>
<!-- 3187 -->
<g id="node29" class="node">
<title>3187</title>
<ellipse fill="white" stroke="black" cx="452" cy="-28.99" rx="28.98" ry="28.98"/>
<text text-anchor="middle" x="452" y="-26.79" font-family="Times,serif" font-size="9.00">3187</text>
</g>
<!-- 2&#45;&gt;3187 -->
<g id="edge49" class="edge">
<title>2&#45;&gt;3187</title>
<path fill="none" stroke="red" stroke-width="0.18" d="M446.64,-94.71C445.64,-87.03 445.18,-77.22 445.26,-67.56"/>
<polygon fill="red" stroke="red" stroke-width="0.18" points="448.77,-67.36 445.55,-57.26 441.77,-67.16 448.77,-67.36"/>
</g>
<!-- 3187&#45;&gt;2 -->
<g id="edge50" class="edge">
<title>3187&#45;&gt;2</title>
<path fill="none" stroke="red" stroke-width="0.13" d="M458.45,-57.26C458.89,-66.1 458.85,-75.86 458.31,-84.5"/>
<polygon fill="red" stroke="red" stroke-width="0.13" points="454.8,-84.43 457.36,-94.71 461.77,-85.07 454.8,-84.43"/>
</g>
</g>
</svg>
