<?xml version="1.0" encoding="utf-8" standalone="no"?>
<!DOCTYPE svg PUBLIC "-//W3C//DTD SVG 1.1//EN"
  "http://www.w3.org/Graphics/SVG/1.1/DTD/svg11.dtd">
<svg xmlns:xlink="http://www.w3.org/1999/xlink" width="460.8pt" height="345.6pt" viewBox="0 0 460.8 345.6" xmlns="http://www.w3.org/2000/svg" version="1.1">
 <metadata>
  <rdf:RDF xmlns:dc="http://purl.org/dc/elements/1.1/" xmlns:cc="http://creativecommons.org/ns#" xmlns:rdf="http://www.w3.org/1999/02/22-rdf-syntax-ns#">
   <cc:Work>
    <dc:type rdf:resource="http://purl.org/dc/dcmitype/StillImage"/>
    <dc:date>2024-08-17T10:04:00.863205</dc:date>
    <dc:format>image/svg+xml</dc:format>
    <dc:creator>
     <cc:Agent>
      <dc:title>Matplotlib v3.8.4, https://matplotlib.org/</dc:title>
     </cc:Agent>
    </dc:creator>
   </cc:Work>
  </rdf:RDF>
 </metadata>
 <defs>
  <style type="text/css">*{stroke-linejoin: round; stroke-linecap: butt}</style>
 </defs>
 <g id="figure_1">
  <g id="patch_1">
   <path d="M 0 345.6 
L 460.8 345.6 
L 460.8 0 
L 0 0 
z
" style="fill: #ffffff"/>
  </g>
  <g id="axes_1">
   <g id="patch_2">
    <path d="M 57.6 307.584 
L 414.72 307.584 
L 414.72 41.472 
L 57.6 41.472 
z
" style="fill: #ffffff"/>
   </g>
   <g id="PolyCollection_1">
    <path d="M 73.832727 289.965176 
L 73.832727 307.584 
L 79.335347 307.584 
L 84.837966 307.584 
L 90.340586 307.584 
L 95.843205 307.584 
L 101.345824 307.584 
L 106.848444 307.584 
L 112.351063 307.584 
L 117.853683 307.584 
L 123.356302 307.584 
L 128.858921 307.584 
L 134.361541 307.584 
L 139.86416 307.584 
L 145.36678 307.584 
L 150.869399 307.584 
L 156.372018 307.584 
L 161.874638 307.584 
L 167.377257 307.584 
L 172.879877 307.584 
L 178.382496 307.584 
L 183.885116 307.584 
L 189.387735 307.584 
L 194.890354 307.584 
L 200.392974 307.584 
L 205.895593 307.584 
L 211.398213 307.584 
L 216.900832 307.584 
L 222.403451 307.584 
L 227.906071 307.584 
L 233.40869 307.584 
L 238.91131 307.584 
L 244.413929 307.584 
L 249.916549 307.584 
L 255.419168 307.584 
L 260.921787 307.584 
L 266.424407 307.584 
L 271.927026 307.584 
L 277.429646 307.584 
L 282.932265 307.584 
L 288.434884 307.584 
L 293.937504 307.584 
L 299.440123 307.584 
L 304.942743 307.584 
L 310.445362 307.584 
L 315.947982 307.584 
L 321.450601 307.584 
L 326.95322 307.584 
L 332.45584 307.584 
L 337.958459 307.584 
L 343.461079 307.584 
L 348.963698 307.584 
L 354.466317 307.584 
L 359.968937 307.584 
L 365.471556 307.584 
L 370.974176 307.584 
L 376.476795 307.584 
L 381.979414 307.584 
L 387.482034 307.584 
L 392.984653 307.584 
L 398.487273 307.584 
L 398.487273 307.584 
L 398.487273 307.584 
L 392.984653 307.584 
L 387.482034 307.584 
L 381.979414 307.584 
L 376.476795 307.584 
L 370.974176 307.584 
L 365.471556 307.584 
L 359.968937 307.584 
L 354.466317 307.584 
L 348.963698 307.584 
L 343.461079 307.584 
L 337.958459 307.584 
L 332.45584 307.584 
L 326.95322 307.584 
L 321.450601 307.584 
L 315.947982 307.584 
L 310.445362 307.584 
L 304.942743 307.584 
L 299.440123 307.584 
L 293.937504 307.584 
L 288.434884 307.584 
L 282.932265 294.031059 
L 277.429646 289.965176 
L 271.927026 281.833412 
L 266.424407 299.452235 
L 260.921787 292.675765 
L 255.419168 292.675765 
L 249.916549 292.675765 
L 244.413929 294.031059 
L 238.91131 300.807529 
L 233.40869 300.807529 
L 227.906071 284.544 
L 222.403451 288.609882 
L 216.900832 298.096941 
L 211.398213 279.122824 
L 205.895593 280.478118 
L 200.392974 287.254588 
L 194.890354 281.833412 
L 189.387735 275.056941 
L 183.885116 298.096941 
L 178.382496 289.965176 
L 172.879877 296.741647 
L 167.377257 295.386353 
L 161.874638 298.096941 
L 156.372018 294.031059 
L 150.869399 289.965176 
L 145.36678 289.965176 
L 139.86416 296.741647 
L 134.361541 291.320471 
L 128.858921 298.096941 
L 123.356302 296.741647 
L 117.853683 291.320471 
L 112.351063 296.741647 
L 106.848444 291.320471 
L 101.345824 292.675765 
L 95.843205 299.452235 
L 90.340586 296.741647 
L 84.837966 300.807529 
L 79.335347 280.478118 
L 73.832727 289.965176 
z
" clip-path="url(#p210524b1c0)" style="fill: #1f77b4"/>
   </g>
   <g id="PolyCollection_2">
    <path d="M 73.832727 178.831059 
L 73.832727 289.965176 
L 79.335347 280.478118 
L 84.837966 300.807529 
L 90.340586 296.741647 
L 95.843205 299.452235 
L 101.345824 292.675765 
L 106.848444 291.320471 
L 112.351063 296.741647 
L 117.853683 291.320471 
L 123.356302 296.741647 
L 128.858921 298.096941 
L 134.361541 291.320471 
L 139.86416 296.741647 
L 145.36678 289.965176 
L 150.869399 289.965176 
L 156.372018 294.031059 
L 161.874638 298.096941 
L 167.377257 295.386353 
L 172.879877 296.741647 
L 178.382496 289.965176 
L 183.885116 298.096941 
L 189.387735 275.056941 
L 194.890354 281.833412 
L 200.392974 287.254588 
L 205.895593 280.478118 
L 211.398213 279.122824 
L 216.900832 298.096941 
L 222.403451 288.609882 
L 227.906071 284.544 
L 233.40869 300.807529 
L 238.91131 300.807529 
L 244.413929 294.031059 
L 249.916549 292.675765 
L 255.419168 292.675765 
L 260.921787 292.675765 
L 266.424407 299.452235 
L 271.927026 281.833412 
L 277.429646 289.965176 
L 282.932265 294.031059 
L 288.434884 307.584 
L 293.937504 307.584 
L 299.440123 307.584 
L 304.942743 307.584 
L 310.445362 307.584 
L 315.947982 307.584 
L 321.450601 307.584 
L 326.95322 307.584 
L 332.45584 307.584 
L 337.958459 307.584 
L 343.461079 307.584 
L 348.963698 307.584 
L 354.466317 307.584 
L 359.968937 307.584 
L 365.471556 307.584 
L 370.974176 307.584 
L 376.476795 307.584 
L 381.979414 307.584 
L 387.482034 307.584 
L 392.984653 307.584 
L 398.487273 307.584 
L 398.487273 307.584 
L 398.487273 307.584 
L 392.984653 307.584 
L 387.482034 307.584 
L 381.979414 307.584 
L 376.476795 307.584 
L 370.974176 307.584 
L 365.471556 307.584 
L 359.968937 307.584 
L 354.466317 307.584 
L 348.963698 307.584 
L 343.461079 262.859294 
L 337.958459 300.807529 
L 332.45584 298.096941 
L 326.95322 287.254588 
L 321.450601 285.899294 
L 315.947982 289.965176 
L 310.445362 291.320471 
L 304.942743 277.767529 
L 299.440123 289.965176 
L 293.937504 283.188706 
L 288.434884 268.280471 
L 282.932265 275.056941 
L 277.429646 265.569882 
L 271.927026 245.240471 
L 266.424407 280.478118 
L 260.921787 277.767529 
L 255.419168 279.122824 
L 249.916549 284.544 
L 244.413929 289.965176 
L 238.91131 247.951059 
L 233.40869 223.555765 
L 227.906071 254.727529 
L 222.403451 254.727529 
L 216.900832 258.793412 
L 211.398213 266.925176 
L 205.895593 268.280471 
L 200.392974 279.122824 
L 194.890354 277.767529 
L 189.387735 272.346353 
L 183.885116 287.254588 
L 178.382496 258.793412 
L 172.879877 276.412235 
L 167.377257 256.082824 
L 161.874638 284.544 
L 156.372018 277.767529 
L 150.869399 266.925176 
L 145.36678 275.056941 
L 139.86416 273.701647 
L 134.361541 279.122824 
L 128.858921 279.122824 
L 123.356302 288.609882 
L 117.853683 273.701647 
L 112.351063 284.544 
L 106.848444 281.833412 
L 101.345824 270.991059 
L 95.843205 284.544 
L 90.340586 285.899294 
L 84.837966 188.318118 
L 79.335347 218.134588 
L 73.832727 178.831059 
z
" clip-path="url(#p210524b1c0)" style="fill: #ff7f0e"/>
   </g>
   <g id="PolyCollection_3">
    <path d="M 73.832727 139.527529 
L 73.832727 178.831059 
L 79.335347 218.134588 
L 84.837966 188.318118 
L 90.340586 285.899294 
L 95.843205 284.544 
L 101.345824 270.991059 
L 106.848444 281.833412 
L 112.351063 284.544 
L 117.853683 273.701647 
L 123.356302 288.609882 
L 128.858921 279.122824 
L 134.361541 279.122824 
L 139.86416 273.701647 
L 145.36678 275.056941 
L 150.869399 266.925176 
L 156.372018 277.767529 
L 161.874638 284.544 
L 167.377257 256.082824 
L 172.879877 276.412235 
L 178.382496 258.793412 
L 183.885116 287.254588 
L 189.387735 272.346353 
L 194.890354 277.767529 
L 200.392974 279.122824 
L 205.895593 268.280471 
L 211.398213 266.925176 
L 216.900832 258.793412 
L 222.403451 254.727529 
L 227.906071 254.727529 
L 233.40869 223.555765 
L 238.91131 247.951059 
L 244.413929 289.965176 
L 249.916549 284.544 
L 255.419168 279.122824 
L 260.921787 277.767529 
L 266.424407 280.478118 
L 271.927026 245.240471 
L 277.429646 265.569882 
L 282.932265 275.056941 
L 288.434884 268.280471 
L 293.937504 283.188706 
L 299.440123 289.965176 
L 304.942743 277.767529 
L 310.445362 291.320471 
L 315.947982 289.965176 
L 321.450601 285.899294 
L 326.95322 287.254588 
L 332.45584 298.096941 
L 337.958459 300.807529 
L 343.461079 262.859294 
L 348.963698 307.584 
L 354.466317 307.584 
L 359.968937 307.584 
L 365.471556 307.584 
L 370.974176 307.584 
L 376.476795 307.584 
L 381.979414 307.584 
L 387.482034 307.584 
L 392.984653 307.584 
L 398.487273 307.584 
L 398.487273 307.584 
L 398.487273 307.584 
L 392.984653 307.584 
L 387.482034 307.584 
L 381.979414 307.584 
L 376.476795 307.584 
L 370.974176 307.584 
L 365.471556 307.584 
L 359.968937 307.584 
L 354.466317 307.584 
L 348.963698 307.584 
L 343.461079 262.859294 
L 337.958459 300.807529 
L 332.45584 298.096941 
L 326.95322 287.254588 
L 321.450601 285.899294 
L 315.947982 289.965176 
L 310.445362 291.320471 
L 304.942743 277.767529 
L 299.440123 289.965176 
L 293.937504 283.188706 
L 288.434884 268.280471 
L 282.932265 275.056941 
L 277.429646 265.569882 
L 271.927026 245.240471 
L 266.424407 280.478118 
L 260.921787 277.767529 
L 255.419168 279.122824 
L 249.916549 284.544 
L 244.413929 289.965176 
L 238.91131 247.951059 
L 233.40869 223.555765 
L 227.906071 254.727529 
L 222.403451 254.727529 
L 216.900832 258.793412 
L 211.398213 266.925176 
L 205.895593 268.280471 
L 200.392974 279.122824 
L 194.890354 277.767529 
L 189.387735 266.925176 
L 183.885116 277.767529 
L 178.382496 249.306353 
L 172.879877 270.991059 
L 167.377257 245.240471 
L 161.874638 276.412235 
L 156.372018 269.635765 
L 150.869399 253.372235 
L 145.36678 272.346353 
L 139.86416 239.819294 
L 134.361541 257.438118 
L 128.858921 260.148706 
L 123.356302 272.346353 
L 117.853683 261.504 
L 112.351063 277.767529 
L 106.848444 269.635765 
L 101.345824 253.372235 
L 95.843205 257.438118 
L 90.340586 275.056941 
L 84.837966 176.120471 
L 79.335347 180.186353 
L 73.832727 139.527529 
z
" clip-path="url(#p210524b1c0)" style="fill: #2ca02c"/>
   </g>
   <g id="PolyCollection_4">
    <path d="M 73.832727 127.329882 
L 73.832727 139.527529 
L 79.335347 180.186353 
L 84.837966 176.120471 
L 90.340586 275.056941 
L 95.843205 257.438118 
L 101.345824 253.372235 
L 106.848444 269.635765 
L 112.351063 277.767529 
L 117.853683 261.504 
L 123.356302 272.346353 
L 128.858921 260.148706 
L 134.361541 257.438118 
L 139.86416 239.819294 
L 145.36678 272.346353 
L 150.869399 253.372235 
L 156.372018 269.635765 
L 161.874638 276.412235 
L 167.377257 245.240471 
L 172.879877 270.991059 
L 178.382496 249.306353 
L 183.885116 277.767529 
L 189.387735 266.925176 
L 194.890354 277.767529 
L 200.392974 279.122824 
L 205.895593 268.280471 
L 211.398213 266.925176 
L 216.900832 258.793412 
L 222.403451 254.727529 
L 227.906071 254.727529 
L 233.40869 223.555765 
L 238.91131 247.951059 
L 244.413929 289.965176 
L 249.916549 284.544 
L 255.419168 279.122824 
L 260.921787 277.767529 
L 266.424407 280.478118 
L 271.927026 245.240471 
L 277.429646 265.569882 
L 282.932265 275.056941 
L 288.434884 268.280471 
L 293.937504 283.188706 
L 299.440123 289.965176 
L 304.942743 277.767529 
L 310.445362 291.320471 
L 315.947982 289.965176 
L 321.450601 285.899294 
L 326.95322 287.254588 
L 332.45584 298.096941 
L 337.958459 300.807529 
L 343.461079 262.859294 
L 348.963698 307.584 
L 354.466317 307.584 
L 359.968937 307.584 
L 365.471556 307.584 
L 370.974176 307.584 
L 376.476795 307.584 
L 381.979414 307.584 
L 387.482034 307.584 
L 392.984653 307.584 
L 398.487273 307.584 
L 398.487273 307.584 
L 398.487273 307.584 
L 392.984653 307.584 
L 387.482034 307.584 
L 381.979414 307.584 
L 376.476795 307.584 
L 370.974176 307.584 
L 365.471556 307.584 
L 359.968937 307.584 
L 354.466317 307.584 
L 348.963698 307.584 
L 343.461079 262.859294 
L 337.958459 300.807529 
L 332.45584 298.096941 
L 326.95322 287.254588 
L 321.450601 285.899294 
L 315.947982 289.965176 
L 310.445362 291.320471 
L 304.942743 277.767529 
L 299.440123 289.965176 
L 293.937504 283.188706 
L 288.434884 268.280471 
L 282.932265 275.056941 
L 277.429646 265.569882 
L 271.927026 245.240471 
L 266.424407 280.478118 
L 260.921787 277.767529 
L 255.419168 279.122824 
L 249.916549 284.544 
L 244.413929 289.965176 
L 238.91131 247.951059 
L 233.40869 223.555765 
L 227.906071 243.885176 
L 222.403451 237.108706 
L 216.900832 253.372235 
L 211.398213 257.438118 
L 205.895593 264.214588 
L 200.392974 266.925176 
L 194.890354 262.859294 
L 189.387735 252.016941 
L 183.885116 261.504 
L 178.382496 241.174588 
L 172.879877 262.859294 
L 167.377257 238.464 
L 161.874638 268.280471 
L 156.372018 258.793412 
L 150.869399 241.174588 
L 145.36678 260.148706 
L 139.86416 228.976941 
L 134.361541 254.727529 
L 128.858921 257.438118 
L 123.356302 264.214588 
L 117.853683 233.042824 
L 112.351063 256.082824 
L 106.848444 256.082824 
L 101.345824 239.819294 
L 95.843205 246.595765 
L 90.340586 254.727529 
L 84.837966 161.212235 
L 79.335347 170.699294 
L 73.832727 127.329882 
z
" clip-path="url(#p210524b1c0)" style="fill: #d62728"/>
   </g>
   <g id="PolyCollection_5">
    <path d="M 73.832727 102.934588 
L 73.832727 127.329882 
L 79.335347 170.699294 
L 84.837966 161.212235 
L 90.340586 254.727529 
L 95.843205 246.595765 
L 101.345824 239.819294 
L 106.848444 256.082824 
L 112.351063 256.082824 
L 117.853683 233.042824 
L 123.356302 264.214588 
L 128.858921 257.438118 
L 134.361541 254.727529 
L 139.86416 228.976941 
L 145.36678 260.148706 
L 150.869399 241.174588 
L 156.372018 258.793412 
L 161.874638 268.280471 
L 167.377257 238.464 
L 172.879877 262.859294 
L 178.382496 241.174588 
L 183.885116 261.504 
L 189.387735 252.016941 
L 194.890354 262.859294 
L 200.392974 266.925176 
L 205.895593 264.214588 
L 211.398213 257.438118 
L 216.900832 253.372235 
L 222.403451 237.108706 
L 227.906071 243.885176 
L 233.40869 223.555765 
L 238.91131 247.951059 
L 244.413929 289.965176 
L 249.916549 284.544 
L 255.419168 279.122824 
L 260.921787 277.767529 
L 266.424407 280.478118 
L 271.927026 245.240471 
L 277.429646 265.569882 
L 282.932265 275.056941 
L 288.434884 268.280471 
L 293.937504 283.188706 
L 299.440123 289.965176 
L 304.942743 277.767529 
L 310.445362 291.320471 
L 315.947982 289.965176 
L 321.450601 285.899294 
L 326.95322 287.254588 
L 332.45584 298.096941 
L 337.958459 300.807529 
L 343.461079 262.859294 
L 348.963698 307.584 
L 354.466317 307.584 
L 359.968937 307.584 
L 365.471556 307.584 
L 370.974176 307.584 
L 376.476795 307.584 
L 381.979414 307.584 
L 387.482034 307.584 
L 392.984653 307.584 
L 398.487273 307.584 
L 398.487273 307.584 
L 398.487273 307.584 
L 392.984653 307.584 
L 387.482034 307.584 
L 381.979414 307.584 
L 376.476795 307.584 
L 370.974176 307.584 
L 365.471556 307.584 
L 359.968937 307.584 
L 354.466317 307.584 
L 348.963698 307.584 
L 343.461079 262.859294 
L 337.958459 300.807529 
L 332.45584 298.096941 
L 326.95322 287.254588 
L 321.450601 285.899294 
L 315.947982 289.965176 
L 310.445362 291.320471 
L 304.942743 277.767529 
L 299.440123 289.965176 
L 293.937504 283.188706 
L 288.434884 268.280471 
L 282.932265 275.056941 
L 277.429646 265.569882 
L 271.927026 245.240471 
L 266.424407 280.478118 
L 260.921787 277.767529 
L 255.419168 279.122824 
L 249.916549 284.544 
L 244.413929 289.965176 
L 238.91131 247.951059 
L 233.40869 223.555765 
L 227.906071 243.885176 
L 222.403451 237.108706 
L 216.900832 235.753412 
L 211.398213 242.529882 
L 205.895593 253.372235 
L 200.392974 258.793412 
L 194.890354 256.082824 
L 189.387735 242.529882 
L 183.885116 245.240471 
L 178.382496 227.621647 
L 172.879877 218.134588 
L 167.377257 218.134588 
L 161.874638 253.372235 
L 156.372018 252.016941 
L 150.869399 216.779294 
L 145.36678 235.753412 
L 139.86416 218.134588 
L 134.361541 242.529882 
L 128.858921 242.529882 
L 123.356302 249.306353 
L 117.853683 214.068706 
L 112.351063 252.016941 
L 106.848444 193.739294 
L 101.345824 222.200471 
L 95.843205 230.332235 
L 90.340586 227.621647 
L 84.837966 150.369882 
L 79.335347 154.435765 
L 73.832727 102.934588 
z
" clip-path="url(#p210524b1c0)" style="fill: #9467bd"/>
   </g>
   <g id="PolyCollection_6">
    <path d="M 73.832727 97.513412 
L 73.832727 102.934588 
L 79.335347 154.435765 
L 84.837966 150.369882 
L 90.340586 227.621647 
L 95.843205 230.332235 
L 101.345824 222.200471 
L 106.848444 193.739294 
L 112.351063 252.016941 
L 117.853683 214.068706 
L 123.356302 249.306353 
L 128.858921 242.529882 
L 134.361541 242.529882 
L 139.86416 218.134588 
L 145.36678 235.753412 
L 150.869399 216.779294 
L 156.372018 252.016941 
L 161.874638 253.372235 
L 167.377257 218.134588 
L 172.879877 218.134588 
L 178.382496 227.621647 
L 183.885116 245.240471 
L 189.387735 242.529882 
L 194.890354 256.082824 
L 200.392974 258.793412 
L 205.895593 253.372235 
L 211.398213 242.529882 
L 216.900832 235.753412 
L 222.403451 237.108706 
L 227.906071 243.885176 
L 233.40869 223.555765 
L 238.91131 247.951059 
L 244.413929 289.965176 
L 249.916549 284.544 
L 255.419168 279.122824 
L 260.921787 277.767529 
L 266.424407 280.478118 
L 271.927026 245.240471 
L 277.429646 265.569882 
L 282.932265 275.056941 
L 288.434884 268.280471 
L 293.937504 283.188706 
L 299.440123 289.965176 
L 304.942743 277.767529 
L 310.445362 291.320471 
L 315.947982 289.965176 
L 321.450601 285.899294 
L 326.95322 287.254588 
L 332.45584 298.096941 
L 337.958459 300.807529 
L 343.461079 262.859294 
L 348.963698 307.584 
L 354.466317 307.584 
L 359.968937 307.584 
L 365.471556 307.584 
L 370.974176 307.584 
L 376.476795 307.584 
L 381.979414 307.584 
L 387.482034 307.584 
L 392.984653 307.584 
L 398.487273 307.584 
L 398.487273 307.584 
L 398.487273 307.584 
L 392.984653 307.584 
L 387.482034 307.584 
L 381.979414 307.584 
L 376.476795 307.584 
L 370.974176 307.584 
L 365.471556 307.584 
L 359.968937 307.584 
L 354.466317 307.584 
L 348.963698 307.584 
L 343.461079 262.859294 
L 337.958459 300.807529 
L 332.45584 287.254588 
L 326.95322 254.727529 
L 321.450601 262.859294 
L 315.947982 264.214588 
L 310.445362 246.595765 
L 304.942743 260.148706 
L 299.440123 270.991059 
L 293.937504 265.569882 
L 288.434884 252.016941 
L 282.932265 162.567529 
L 277.429646 246.595765 
L 271.927026 216.779294 
L 266.424407 258.793412 
L 260.921787 249.306353 
L 255.419168 268.280471 
L 249.916549 268.280471 
L 244.413929 277.767529 
L 238.91131 227.621647 
L 233.40869 174.765176 
L 227.906071 205.936941 
L 222.403451 208.647529 
L 216.900832 218.134588 
L 211.398213 228.976941 
L 205.895593 233.042824 
L 200.392974 219.489882 
L 194.890354 237.108706 
L 189.387735 224.911059 
L 183.885116 237.108706 
L 178.382496 212.713412 
L 172.879877 214.068706 
L 167.377257 210.002824 
L 161.874638 234.398118 
L 156.372018 241.174588 
L 150.869399 205.936941 
L 145.36678 231.687529 
L 139.86416 204.581647 
L 134.361541 215.424 
L 128.858921 210.002824 
L 123.356302 233.042824 
L 117.853683 185.607529 
L 112.351063 233.042824 
L 106.848444 181.541647 
L 101.345824 203.226353 
L 95.843205 208.647529 
L 90.340586 222.200471 
L 84.837966 138.172235 
L 79.335347 139.527529 
L 73.832727 97.513412 
z
" clip-path="url(#p210524b1c0)" style="fill: #8c564b"/>
   </g>
   <g id="PolyCollection_7">
    <path d="M 73.832727 94.802824 
L 73.832727 97.513412 
L 79.335347 139.527529 
L 84.837966 138.172235 
L 90.340586 222.200471 
L 95.843205 208.647529 
L 101.345824 203.226353 
L 106.848444 181.541647 
L 112.351063 233.042824 
L 117.853683 185.607529 
L 123.356302 233.042824 
L 128.858921 210.002824 
L 134.361541 215.424 
L 139.86416 204.581647 
L 145.36678 231.687529 
L 150.869399 205.936941 
L 156.372018 241.174588 
L 161.874638 234.398118 
L 167.377257 210.002824 
L 172.879877 214.068706 
L 178.382496 212.713412 
L 183.885116 237.108706 
L 189.387735 224.911059 
L 194.890354 237.108706 
L 200.392974 219.489882 
L 205.895593 233.042824 
L 211.398213 228.976941 
L 216.900832 218.134588 
L 222.403451 208.647529 
L 227.906071 205.936941 
L 233.40869 174.765176 
L 238.91131 227.621647 
L 244.413929 277.767529 
L 249.916549 268.280471 
L 255.419168 268.280471 
L 260.921787 249.306353 
L 266.424407 258.793412 
L 271.927026 216.779294 
L 277.429646 246.595765 
L 282.932265 162.567529 
L 288.434884 252.016941 
L 293.937504 265.569882 
L 299.440123 270.991059 
L 304.942743 260.148706 
L 310.445362 246.595765 
L 315.947982 264.214588 
L 321.450601 262.859294 
L 326.95322 254.727529 
L 332.45584 287.254588 
L 337.958459 300.807529 
L 343.461079 262.859294 
L 348.963698 307.584 
L 354.466317 307.584 
L 359.968937 307.584 
L 365.471556 307.584 
L 370.974176 307.584 
L 376.476795 307.584 
L 381.979414 307.584 
L 387.482034 307.584 
L 392.984653 307.584 
L 398.487273 307.584 
L 398.487273 307.584 
L 398.487273 307.584 
L 392.984653 307.584 
L 387.482034 307.584 
L 381.979414 307.584 
L 376.476795 307.584 
L 370.974176 307.584 
L 365.471556 307.584 
L 359.968937 307.584 
L 354.466317 307.584 
L 348.963698 307.584 
L 343.461079 262.859294 
L 337.958459 300.807529 
L 332.45584 287.254588 
L 326.95322 254.727529 
L 321.450601 262.859294 
L 315.947982 264.214588 
L 310.445362 246.595765 
L 304.942743 260.148706 
L 299.440123 270.991059 
L 293.937504 265.569882 
L 288.434884 252.016941 
L 282.932265 162.567529 
L 277.429646 246.595765 
L 271.927026 216.779294 
L 266.424407 258.793412 
L 260.921787 249.306353 
L 255.419168 268.280471 
L 249.916549 268.280471 
L 244.413929 277.767529 
L 238.91131 227.621647 
L 233.40869 174.765176 
L 227.906071 205.936941 
L 222.403451 208.647529 
L 216.900832 218.134588 
L 211.398213 228.976941 
L 205.895593 233.042824 
L 200.392974 204.581647 
L 194.890354 222.200471 
L 189.387735 215.424 
L 183.885116 218.134588 
L 178.382496 197.805176 
L 172.879877 207.292235 
L 167.377257 192.384 
L 161.874638 226.266353 
L 156.372018 226.266353 
L 150.869399 193.739294 
L 145.36678 218.134588 
L 139.86416 189.673412 
L 134.361541 204.581647 
L 128.858921 201.871059 
L 123.356302 222.200471 
L 117.853683 176.120471 
L 112.351063 230.332235 
L 106.848444 144.948706 
L 101.345824 181.541647 
L 95.843205 193.739294 
L 90.340586 173.409882 
L 84.837966 131.395765 
L 79.335347 128.685176 
L 73.832727 94.802824 
z
" clip-path="url(#p210524b1c0)" style="fill: #e377c2"/>
   </g>
   <g id="PolyCollection_8">
    <path d="M 73.832727 89.381647 
L 73.832727 94.802824 
L 79.335347 128.685176 
L 84.837966 131.395765 
L 90.340586 173.409882 
L 95.843205 193.739294 
L 101.345824 181.541647 
L 106.848444 144.948706 
L 112.351063 230.332235 
L 117.853683 176.120471 
L 123.356302 222.200471 
L 128.858921 201.871059 
L 134.361541 204.581647 
L 139.86416 189.673412 
L 145.36678 218.134588 
L 150.869399 193.739294 
L 156.372018 226.266353 
L 161.874638 226.266353 
L 167.377257 192.384 
L 172.879877 207.292235 
L 178.382496 197.805176 
L 183.885116 218.134588 
L 189.387735 215.424 
L 194.890354 222.200471 
L 200.392974 204.581647 
L 205.895593 233.042824 
L 211.398213 228.976941 
L 216.900832 218.134588 
L 222.403451 208.647529 
L 227.906071 205.936941 
L 233.40869 174.765176 
L 238.91131 227.621647 
L 244.413929 277.767529 
L 249.916549 268.280471 
L 255.419168 268.280471 
L 260.921787 249.306353 
L 266.424407 258.793412 
L 271.927026 216.779294 
L 277.429646 246.595765 
L 282.932265 162.567529 
L 288.434884 252.016941 
L 293.937504 265.569882 
L 299.440123 270.991059 
L 304.942743 260.148706 
L 310.445362 246.595765 
L 315.947982 264.214588 
L 321.450601 262.859294 
L 326.95322 254.727529 
L 332.45584 287.254588 
L 337.958459 300.807529 
L 343.461079 262.859294 
L 348.963698 307.584 
L 354.466317 307.584 
L 359.968937 307.584 
L 365.471556 307.584 
L 370.974176 307.584 
L 376.476795 307.584 
L 381.979414 307.584 
L 387.482034 307.584 
L 392.984653 307.584 
L 398.487273 307.584 
L 398.487273 307.584 
L 398.487273 307.584 
L 392.984653 307.584 
L 387.482034 307.584 
L 381.979414 307.584 
L 376.476795 307.584 
L 370.974176 307.584 
L 365.471556 307.584 
L 359.968937 307.584 
L 354.466317 307.584 
L 348.963698 307.584 
L 343.461079 262.859294 
L 337.958459 300.807529 
L 332.45584 287.254588 
L 326.95322 254.727529 
L 321.450601 262.859294 
L 315.947982 264.214588 
L 310.445362 246.595765 
L 304.942743 260.148706 
L 299.440123 270.991059 
L 293.937504 265.569882 
L 288.434884 252.016941 
L 282.932265 162.567529 
L 277.429646 246.595765 
L 271.927026 216.779294 
L 266.424407 258.793412 
L 260.921787 249.306353 
L 255.419168 268.280471 
L 249.916549 268.280471 
L 244.413929 277.767529 
L 238.91131 227.621647 
L 233.40869 174.765176 
L 227.906071 205.936941 
L 222.403451 191.028706 
L 216.900832 201.871059 
L 211.398213 218.134588 
L 205.895593 210.002824 
L 200.392974 188.318118 
L 194.890354 208.647529 
L 189.387735 200.515765 
L 183.885116 189.673412 
L 178.382496 188.318118 
L 172.879877 204.581647 
L 167.377257 182.896941 
L 161.874638 196.449882 
L 156.372018 218.134588 
L 150.869399 181.541647 
L 145.36678 195.094588 
L 139.86416 180.186353 
L 134.361541 155.791059 
L 128.858921 186.962824 
L 123.356302 192.384 
L 117.853683 147.659294 
L 112.351063 208.647529 
L 106.848444 136.816941 
L 101.345824 172.054588 
L 95.843205 181.541647 
L 90.340586 153.080471 
L 84.837966 113.776941 
L 79.335347 112.421647 
L 73.832727 89.381647 
z
" clip-path="url(#p210524b1c0)" style="fill: #7f7f7f"/>
   </g>
   <g id="PolyCollection_9">
    <path d="M 73.832727 73.118118 
L 73.832727 89.381647 
L 79.335347 112.421647 
L 84.837966 113.776941 
L 90.340586 153.080471 
L 95.843205 181.541647 
L 101.345824 172.054588 
L 106.848444 136.816941 
L 112.351063 208.647529 
L 117.853683 147.659294 
L 123.356302 192.384 
L 128.858921 186.962824 
L 134.361541 155.791059 
L 139.86416 180.186353 
L 145.36678 195.094588 
L 150.869399 181.541647 
L 156.372018 218.134588 
L 161.874638 196.449882 
L 167.377257 182.896941 
L 172.879877 204.581647 
L 178.382496 188.318118 
L 183.885116 189.673412 
L 189.387735 200.515765 
L 194.890354 208.647529 
L 200.392974 188.318118 
L 205.895593 210.002824 
L 211.398213 218.134588 
L 216.900832 201.871059 
L 222.403451 191.028706 
L 227.906071 205.936941 
L 233.40869 174.765176 
L 238.91131 227.621647 
L 244.413929 277.767529 
L 249.916549 268.280471 
L 255.419168 268.280471 
L 260.921787 249.306353 
L 266.424407 258.793412 
L 271.927026 216.779294 
L 277.429646 246.595765 
L 282.932265 162.567529 
L 288.434884 252.016941 
L 293.937504 265.569882 
L 299.440123 270.991059 
L 304.942743 260.148706 
L 310.445362 246.595765 
L 315.947982 264.214588 
L 321.450601 262.859294 
L 326.95322 254.727529 
L 332.45584 287.254588 
L 337.958459 300.807529 
L 343.461079 262.859294 
L 348.963698 307.584 
L 354.466317 307.584 
L 359.968937 307.584 
L 365.471556 307.584 
L 370.974176 307.584 
L 376.476795 307.584 
L 381.979414 307.584 
L 387.482034 307.584 
L 392.984653 307.584 
L 398.487273 307.584 
L 398.487273 307.584 
L 398.487273 307.584 
L 392.984653 307.584 
L 387.482034 307.584 
L 381.979414 307.584 
L 376.476795 307.584 
L 370.974176 307.584 
L 365.471556 307.584 
L 359.968937 307.584 
L 354.466317 307.584 
L 348.963698 307.584 
L 343.461079 262.859294 
L 337.958459 300.807529 
L 332.45584 287.254588 
L 326.95322 254.727529 
L 321.450601 262.859294 
L 315.947982 264.214588 
L 310.445362 246.595765 
L 304.942743 260.148706 
L 299.440123 270.991059 
L 293.937504 265.569882 
L 288.434884 252.016941 
L 282.932265 162.567529 
L 277.429646 246.595765 
L 271.927026 216.779294 
L 266.424407 258.793412 
L 260.921787 249.306353 
L 255.419168 268.280471 
L 249.916549 268.280471 
L 244.413929 277.767529 
L 238.91131 227.621647 
L 233.40869 174.765176 
L 227.906071 205.936941 
L 222.403451 185.607529 
L 216.900832 191.028706 
L 211.398213 211.358118 
L 205.895593 197.805176 
L 200.392974 181.541647 
L 194.890354 191.028706 
L 189.387735 196.449882 
L 183.885116 151.725176 
L 178.382496 180.186353 
L 172.879877 150.369882 
L 167.377257 173.409882 
L 161.874638 181.541647 
L 156.372018 203.226353 
L 150.869399 173.409882 
L 145.36678 188.318118 
L 139.86416 163.922824 
L 134.361541 149.014588 
L 128.858921 178.831059 
L 123.356302 155.791059 
L 117.853683 138.172235 
L 112.351063 125.974588 
L 106.848444 130.040471 
L 101.345824 151.725176 
L 95.843205 130.040471 
L 90.340586 102.934588 
L 84.837966 88.026353 
L 79.335347 90.736941 
L 73.832727 73.118118 
z
" clip-path="url(#p210524b1c0)" style="fill: #bcbd22"/>
   </g>
   <g id="PolyCollection_10">
    <path d="M 73.832727 70.407529 
L 73.832727 73.118118 
L 79.335347 90.736941 
L 84.837966 88.026353 
L 90.340586 102.934588 
L 95.843205 130.040471 
L 101.345824 151.725176 
L 106.848444 130.040471 
L 112.351063 125.974588 
L 117.853683 138.172235 
L 123.356302 155.791059 
L 128.858921 178.831059 
L 134.361541 149.014588 
L 139.86416 163.922824 
L 145.36678 188.318118 
L 150.869399 173.409882 
L 156.372018 203.226353 
L 161.874638 181.541647 
L 167.377257 173.409882 
L 172.879877 150.369882 
L 178.382496 180.186353 
L 183.885116 151.725176 
L 189.387735 196.449882 
L 194.890354 191.028706 
L 200.392974 181.541647 
L 205.895593 197.805176 
L 211.398213 211.358118 
L 216.900832 191.028706 
L 222.403451 185.607529 
L 227.906071 205.936941 
L 233.40869 174.765176 
L 238.91131 227.621647 
L 244.413929 277.767529 
L 249.916549 268.280471 
L 255.419168 268.280471 
L 260.921787 249.306353 
L 266.424407 258.793412 
L 271.927026 216.779294 
L 277.429646 246.595765 
L 282.932265 162.567529 
L 288.434884 252.016941 
L 293.937504 265.569882 
L 299.440123 270.991059 
L 304.942743 260.148706 
L 310.445362 246.595765 
L 315.947982 264.214588 
L 321.450601 262.859294 
L 326.95322 254.727529 
L 332.45584 287.254588 
L 337.958459 300.807529 
L 343.461079 262.859294 
L 348.963698 307.584 
L 354.466317 307.584 
L 359.968937 307.584 
L 365.471556 307.584 
L 370.974176 307.584 
L 376.476795 307.584 
L 381.979414 307.584 
L 387.482034 307.584 
L 392.984653 307.584 
L 398.487273 307.584 
L 398.487273 294.031059 
L 398.487273 294.031059 
L 392.984653 285.899294 
L 387.482034 291.320471 
L 381.979414 287.254588 
L 376.476795 283.188706 
L 370.974176 277.767529 
L 365.471556 273.701647 
L 359.968937 250.661647 
L 354.466317 276.412235 
L 348.963698 288.609882 
L 343.461079 241.174588 
L 337.958459 279.122824 
L 332.45584 262.859294 
L 326.95322 227.621647 
L 321.450601 243.885176 
L 315.947982 252.016941 
L 310.445362 223.555765 
L 304.942743 242.529882 
L 299.440123 253.372235 
L 293.937504 242.529882 
L 288.434884 231.687529 
L 282.932265 143.593412 
L 277.429646 226.266353 
L 271.927026 197.805176 
L 266.424407 243.885176 
L 260.921787 237.108706 
L 255.419168 253.372235 
L 249.916549 258.793412 
L 244.413929 261.504 
L 238.91131 216.779294 
L 233.40869 165.278118 
L 227.906071 193.739294 
L 222.403451 167.988706 
L 216.900832 180.186353 
L 211.398213 199.160471 
L 205.895593 185.607529 
L 200.392974 172.054588 
L 194.890354 180.186353 
L 189.387735 185.607529 
L 183.885116 139.527529 
L 178.382496 167.988706 
L 172.879877 140.882824 
L 167.377257 157.146353 
L 161.874638 166.633412 
L 156.372018 188.318118 
L 150.869399 157.146353 
L 145.36678 176.120471 
L 139.86416 153.080471 
L 134.361541 142.238118 
L 128.858921 167.988706 
L 123.356302 143.593412 
L 117.853683 127.329882 
L 112.351063 113.776941 
L 106.848444 117.842824 
L 101.345824 136.816941 
L 95.843205 116.487529 
L 90.340586 85.315765 
L 84.837966 70.407529 
L 79.335347 69.052235 
L 73.832727 70.407529 
z
" clip-path="url(#p210524b1c0)" style="fill: #17becf"/>
   </g>
   <g id="PolyCollection_11">
    <path d="M 73.832727 70.407529 
L 73.832727 70.407529 
L 79.335347 69.052235 
L 84.837966 70.407529 
L 90.340586 85.315765 
L 95.843205 116.487529 
L 101.345824 136.816941 
L 106.848444 117.842824 
L 112.351063 113.776941 
L 117.853683 127.329882 
L 123.356302 143.593412 
L 128.858921 167.988706 
L 134.361541 142.238118 
L 139.86416 153.080471 
L 145.36678 176.120471 
L 150.869399 157.146353 
L 156.372018 188.318118 
L 161.874638 166.633412 
L 167.377257 157.146353 
L 172.879877 140.882824 
L 178.382496 167.988706 
L 183.885116 139.527529 
L 189.387735 185.607529 
L 194.890354 180.186353 
L 200.392974 172.054588 
L 205.895593 185.607529 
L 211.398213 199.160471 
L 216.900832 180.186353 
L 222.403451 167.988706 
L 227.906071 193.739294 
L 233.40869 165.278118 
L 238.91131 216.779294 
L 244.413929 261.504 
L 249.916549 258.793412 
L 255.419168 253.372235 
L 260.921787 237.108706 
L 266.424407 243.885176 
L 271.927026 197.805176 
L 277.429646 226.266353 
L 282.932265 143.593412 
L 288.434884 231.687529 
L 293.937504 242.529882 
L 299.440123 253.372235 
L 304.942743 242.529882 
L 310.445362 223.555765 
L 315.947982 252.016941 
L 321.450601 243.885176 
L 326.95322 227.621647 
L 332.45584 262.859294 
L 337.958459 279.122824 
L 343.461079 241.174588 
L 348.963698 288.609882 
L 354.466317 276.412235 
L 359.968937 250.661647 
L 365.471556 273.701647 
L 370.974176 277.767529 
L 376.476795 283.188706 
L 381.979414 287.254588 
L 387.482034 291.320471 
L 392.984653 285.899294 
L 398.487273 294.031059 
L 398.487273 268.280471 
L 398.487273 268.280471 
L 392.984653 252.016941 
L 387.482034 250.661647 
L 381.979414 262.859294 
L 376.476795 243.885176 
L 370.974176 237.108706 
L 365.471556 211.358118 
L 359.968937 199.160471 
L 354.466317 246.595765 
L 348.963698 262.859294 
L 343.461079 223.555765 
L 337.958459 265.569882 
L 332.45584 253.372235 
L 326.95322 207.292235 
L 321.450601 230.332235 
L 315.947982 237.108706 
L 310.445362 200.515765 
L 304.942743 226.266353 
L 299.440123 234.398118 
L 293.937504 224.911059 
L 288.434884 210.002824 
L 282.932265 131.395765 
L 277.429646 205.936941 
L 271.927026 178.831059 
L 266.424407 220.845176 
L 260.921787 215.424 
L 255.419168 235.753412 
L 249.916549 241.174588 
L 244.413929 234.398118 
L 238.91131 203.226353 
L 233.40869 151.725176 
L 227.906071 181.541647 
L 222.403451 155.791059 
L 216.900832 161.212235 
L 211.398213 182.896941 
L 205.895593 172.054588 
L 200.392974 159.856941 
L 194.890354 166.633412 
L 189.387735 167.988706 
L 183.885116 132.751059 
L 178.382496 155.791059 
L 172.879877 135.461647 
L 167.377257 146.304 
L 161.874638 155.791059 
L 156.372018 178.831059 
L 150.869399 134.106353 
L 145.36678 161.212235 
L 139.86416 121.908706 
L 134.361541 136.816941 
L 128.858921 142.238118 
L 123.356302 124.619294 
L 117.853683 116.487529 
L 112.351063 104.289882 
L 106.848444 105.645176 
L 101.345824 120.553412 
L 95.843205 104.289882 
L 90.340586 77.184 
L 84.837966 70.407529 
L 79.335347 69.052235 
L 73.832727 70.407529 
z
" clip-path="url(#p210524b1c0)" style="fill: #1f77b4"/>
   </g>
   <g id="PolyCollection_12">
    <path d="M 73.832727 70.407529 
L 73.832727 70.407529 
L 79.335347 69.052235 
L 84.837966 70.407529 
L 90.340586 77.184 
L 95.843205 104.289882 
L 101.345824 120.553412 
L 106.848444 105.645176 
L 112.351063 104.289882 
L 117.853683 116.487529 
L 123.356302 124.619294 
L 128.858921 142.238118 
L 134.361541 136.816941 
L 139.86416 121.908706 
L 145.36678 161.212235 
L 150.869399 134.106353 
L 156.372018 178.831059 
L 161.874638 155.791059 
L 167.377257 146.304 
L 172.879877 135.461647 
L 178.382496 155.791059 
L 183.885116 132.751059 
L 189.387735 167.988706 
L 194.890354 166.633412 
L 200.392974 159.856941 
L 205.895593 172.054588 
L 211.398213 182.896941 
L 216.900832 161.212235 
L 222.403451 155.791059 
L 227.906071 181.541647 
L 233.40869 151.725176 
L 238.91131 203.226353 
L 244.413929 234.398118 
L 249.916549 241.174588 
L 255.419168 235.753412 
L 260.921787 215.424 
L 266.424407 220.845176 
L 271.927026 178.831059 
L 277.429646 205.936941 
L 282.932265 131.395765 
L 288.434884 210.002824 
L 293.937504 224.911059 
L 299.440123 234.398118 
L 304.942743 226.266353 
L 310.445362 200.515765 
L 315.947982 237.108706 
L 321.450601 230.332235 
L 326.95322 207.292235 
L 332.45584 253.372235 
L 337.958459 265.569882 
L 343.461079 223.555765 
L 348.963698 262.859294 
L 354.466317 246.595765 
L 359.968937 199.160471 
L 365.471556 211.358118 
L 370.974176 237.108706 
L 376.476795 243.885176 
L 381.979414 262.859294 
L 387.482034 250.661647 
L 392.984653 252.016941 
L 398.487273 268.280471 
L 398.487273 268.280471 
L 398.487273 268.280471 
L 392.984653 252.016941 
L 387.482034 250.661647 
L 381.979414 262.859294 
L 376.476795 243.885176 
L 370.974176 237.108706 
L 365.471556 211.358118 
L 359.968937 199.160471 
L 354.466317 207.292235 
L 348.963698 241.174588 
L 343.461079 208.647529 
L 337.958459 238.464 
L 332.45584 238.464 
L 326.95322 199.160471 
L 321.450601 214.068706 
L 315.947982 205.936941 
L 310.445362 177.475765 
L 304.942743 204.581647 
L 299.440123 218.134588 
L 293.937504 204.581647 
L 288.434884 189.673412 
L 282.932265 115.132235 
L 277.429646 180.186353 
L 271.927026 162.567529 
L 266.424407 189.673412 
L 260.921787 192.384 
L 255.419168 201.871059 
L 249.916549 210.002824 
L 244.413929 192.384 
L 238.91131 196.449882 
L 233.40869 143.593412 
L 227.906071 169.344 
L 222.403451 146.304 
L 216.900832 154.435765 
L 211.398213 150.369882 
L 205.895593 149.014588 
L 200.392974 127.329882 
L 194.890354 132.751059 
L 189.387735 139.527529 
L 183.885116 125.974588 
L 178.382496 130.040471 
L 172.879877 131.395765 
L 167.377257 134.106353 
L 161.874638 131.395765 
L 156.372018 117.842824 
L 150.869399 117.842824 
L 145.36678 121.908706 
L 139.86416 108.355765 
L 134.361541 119.198118 
L 128.858921 130.040471 
L 123.356302 111.066353 
L 117.853683 111.066353 
L 112.351063 93.447529 
L 106.848444 90.736941 
L 101.345824 102.934588 
L 95.843205 86.671059 
L 90.340586 71.762824 
L 84.837966 70.407529 
L 79.335347 69.052235 
L 73.832727 70.407529 
z
" clip-path="url(#p210524b1c0)" style="fill: #ff7f0e"/>
   </g>
   <g id="PolyCollection_13">
    <path d="M 73.832727 70.407529 
L 73.832727 70.407529 
L 79.335347 69.052235 
L 84.837966 70.407529 
L 90.340586 71.762824 
L 95.843205 86.671059 
L 101.345824 102.934588 
L 106.848444 90.736941 
L 112.351063 93.447529 
L 117.853683 111.066353 
L 123.356302 111.066353 
L 128.858921 130.040471 
L 134.361541 119.198118 
L 139.86416 108.355765 
L 145.36678 121.908706 
L 150.869399 117.842824 
L 156.372018 117.842824 
L 161.874638 131.395765 
L 167.377257 134.106353 
L 172.879877 131.395765 
L 178.382496 130.040471 
L 183.885116 125.974588 
L 189.387735 139.527529 
L 194.890354 132.751059 
L 200.392974 127.329882 
L 205.895593 149.014588 
L 211.398213 150.369882 
L 216.900832 154.435765 
L 222.403451 146.304 
L 227.906071 169.344 
L 233.40869 143.593412 
L 238.91131 196.449882 
L 244.413929 192.384 
L 249.916549 210.002824 
L 255.419168 201.871059 
L 260.921787 192.384 
L 266.424407 189.673412 
L 271.927026 162.567529 
L 277.429646 180.186353 
L 282.932265 115.132235 
L 288.434884 189.673412 
L 293.937504 204.581647 
L 299.440123 218.134588 
L 304.942743 204.581647 
L 310.445362 177.475765 
L 315.947982 205.936941 
L 321.450601 214.068706 
L 326.95322 199.160471 
L 332.45584 238.464 
L 337.958459 238.464 
L 343.461079 208.647529 
L 348.963698 241.174588 
L 354.466317 207.292235 
L 359.968937 199.160471 
L 365.471556 211.358118 
L 370.974176 237.108706 
L 376.476795 243.885176 
L 381.979414 262.859294 
L 387.482034 250.661647 
L 392.984653 252.016941 
L 398.487273 268.280471 
L 398.487273 268.280471 
L 398.487273 268.280471 
L 392.984653 252.016941 
L 387.482034 250.661647 
L 381.979414 262.859294 
L 376.476795 243.885176 
L 370.974176 237.108706 
L 365.471556 211.358118 
L 359.968937 199.160471 
L 354.466317 207.292235 
L 348.963698 207.292235 
L 343.461079 146.304 
L 337.958459 185.607529 
L 332.45584 195.094588 
L 326.95322 170.699294 
L 321.450601 180.186353 
L 315.947982 184.252235 
L 310.445362 165.278118 
L 304.942743 181.541647 
L 299.440123 159.856941 
L 293.937504 184.252235 
L 288.434884 170.699294 
L 282.932265 109.711059 
L 277.429646 138.172235 
L 271.927026 151.725176 
L 266.424407 182.896941 
L 260.921787 159.856941 
L 255.419168 181.541647 
L 249.916549 191.028706 
L 244.413929 176.120471 
L 238.91131 189.673412 
L 233.40869 134.106353 
L 227.906071 153.080471 
L 222.403451 135.461647 
L 216.900832 144.948706 
L 211.398213 139.527529 
L 205.895593 139.527529 
L 200.392974 115.132235 
L 194.890354 120.553412 
L 189.387735 124.619294 
L 183.885116 119.198118 
L 178.382496 119.198118 
L 172.879877 119.198118 
L 167.377257 124.619294 
L 161.874638 120.553412 
L 156.372018 109.711059 
L 150.869399 107.000471 
L 145.36678 108.355765 
L 139.86416 101.579294 
L 134.361541 98.868706 
L 128.858921 100.224 
L 123.356302 97.513412 
L 117.853683 90.736941 
L 112.351063 82.605176 
L 106.848444 79.894588 
L 101.345824 70.407529 
L 95.843205 69.052235 
L 90.340586 69.052235 
L 84.837966 70.407529 
L 79.335347 69.052235 
L 73.832727 70.407529 
z
" clip-path="url(#p210524b1c0)" style="fill: #2ca02c"/>
   </g>
   <g id="PolyCollection_14">
    <path d="M 73.832727 70.407529 
L 73.832727 70.407529 
L 79.335347 69.052235 
L 84.837966 70.407529 
L 90.340586 69.052235 
L 95.843205 69.052235 
L 101.345824 70.407529 
L 106.848444 79.894588 
L 112.351063 82.605176 
L 117.853683 90.736941 
L 123.356302 97.513412 
L 128.858921 100.224 
L 134.361541 98.868706 
L 139.86416 101.579294 
L 145.36678 108.355765 
L 150.869399 107.000471 
L 156.372018 109.711059 
L 161.874638 120.553412 
L 167.377257 124.619294 
L 172.879877 119.198118 
L 178.382496 119.198118 
L 183.885116 119.198118 
L 189.387735 124.619294 
L 194.890354 120.553412 
L 200.392974 115.132235 
L 205.895593 139.527529 
L 211.398213 139.527529 
L 216.900832 144.948706 
L 222.403451 135.461647 
L 227.906071 153.080471 
L 233.40869 134.106353 
L 238.91131 189.673412 
L 244.413929 176.120471 
L 249.916549 191.028706 
L 255.419168 181.541647 
L 260.921787 159.856941 
L 266.424407 182.896941 
L 271.927026 151.725176 
L 277.429646 138.172235 
L 282.932265 109.711059 
L 288.434884 170.699294 
L 293.937504 184.252235 
L 299.440123 159.856941 
L 304.942743 181.541647 
L 310.445362 165.278118 
L 315.947982 184.252235 
L 321.450601 180.186353 
L 326.95322 170.699294 
L 332.45584 195.094588 
L 337.958459 185.607529 
L 343.461079 146.304 
L 348.963698 207.292235 
L 354.466317 207.292235 
L 359.968937 199.160471 
L 365.471556 211.358118 
L 370.974176 237.108706 
L 376.476795 243.885176 
L 381.979414 262.859294 
L 387.482034 250.661647 
L 392.984653 252.016941 
L 398.487273 268.280471 
L 398.487273 268.280471 
L 398.487273 268.280471 
L 392.984653 252.016941 
L 387.482034 250.661647 
L 381.979414 262.859294 
L 376.476795 243.885176 
L 370.974176 237.108706 
L 365.471556 211.358118 
L 359.968937 199.160471 
L 354.466317 207.292235 
L 348.963698 207.292235 
L 343.461079 146.304 
L 337.958459 185.607529 
L 332.45584 195.094588 
L 326.95322 170.699294 
L 321.450601 180.186353 
L 315.947982 184.252235 
L 310.445362 165.278118 
L 304.942743 181.541647 
L 299.440123 159.856941 
L 293.937504 184.252235 
L 288.434884 170.699294 
L 282.932265 109.711059 
L 277.429646 138.172235 
L 271.927026 151.725176 
L 266.424407 182.896941 
L 260.921787 146.304 
L 255.419168 167.988706 
L 249.916549 182.896941 
L 244.413929 161.212235 
L 238.91131 174.765176 
L 233.40869 120.553412 
L 227.906071 139.527529 
L 222.403451 128.685176 
L 216.900832 136.816941 
L 211.398213 130.040471 
L 205.895593 134.106353 
L 200.392974 104.289882 
L 194.890354 108.355765 
L 189.387735 113.776941 
L 183.885116 111.066353 
L 178.382496 112.421647 
L 172.879877 105.645176 
L 167.377257 112.421647 
L 161.874638 109.711059 
L 156.372018 96.158118 
L 150.869399 94.802824 
L 145.36678 97.513412 
L 139.86416 93.447529 
L 134.361541 89.381647 
L 128.858921 88.026353 
L 123.356302 85.315765 
L 117.853683 75.828706 
L 112.351063 69.052235 
L 106.848444 69.052235 
L 101.345824 69.052235 
L 95.843205 69.052235 
L 90.340586 69.052235 
L 84.837966 70.407529 
L 79.335347 69.052235 
L 73.832727 70.407529 
z
" clip-path="url(#p210524b1c0)" style="fill: #d62728"/>
   </g>
   <g id="PolyCollection_15">
    <path d="M 73.832727 70.407529 
L 73.832727 70.407529 
L 79.335347 69.052235 
L 84.837966 70.407529 
L 90.340586 69.052235 
L 95.843205 69.052235 
L 101.345824 69.052235 
L 106.848444 69.052235 
L 112.351063 69.052235 
L 117.853683 75.828706 
L 123.356302 85.315765 
L 128.858921 88.026353 
L 134.361541 89.381647 
L 139.86416 93.447529 
L 145.36678 97.513412 
L 150.869399 94.802824 
L 156.372018 96.158118 
L 161.874638 109.711059 
L 167.377257 112.421647 
L 172.879877 105.645176 
L 178.382496 112.421647 
L 183.885116 111.066353 
L 189.387735 113.776941 
L 194.890354 108.355765 
L 200.392974 104.289882 
L 205.895593 134.106353 
L 211.398213 130.040471 
L 216.900832 136.816941 
L 222.403451 128.685176 
L 227.906071 139.527529 
L 233.40869 120.553412 
L 238.91131 174.765176 
L 244.413929 161.212235 
L 249.916549 182.896941 
L 255.419168 167.988706 
L 260.921787 146.304 
L 266.424407 182.896941 
L 271.927026 151.725176 
L 277.429646 138.172235 
L 282.932265 109.711059 
L 288.434884 170.699294 
L 293.937504 184.252235 
L 299.440123 159.856941 
L 304.942743 181.541647 
L 310.445362 165.278118 
L 315.947982 184.252235 
L 321.450601 180.186353 
L 326.95322 170.699294 
L 332.45584 195.094588 
L 337.958459 185.607529 
L 343.461079 146.304 
L 348.963698 207.292235 
L 354.466317 207.292235 
L 359.968937 199.160471 
L 365.471556 211.358118 
L 370.974176 237.108706 
L 376.476795 243.885176 
L 381.979414 262.859294 
L 387.482034 250.661647 
L 392.984653 252.016941 
L 398.487273 268.280471 
L 398.487273 261.504 
L 398.487273 261.504 
L 392.984653 235.753412 
L 387.482034 237.108706 
L 381.979414 245.240471 
L 376.476795 227.621647 
L 370.974176 214.068706 
L 365.471556 186.962824 
L 359.968937 163.922824 
L 354.466317 180.186353 
L 348.963698 144.948706 
L 343.461079 127.329882 
L 337.958459 167.988706 
L 332.45584 189.673412 
L 326.95322 135.461647 
L 321.450601 166.633412 
L 315.947982 165.278118 
L 310.445362 147.659294 
L 304.942743 170.699294 
L 299.440123 153.080471 
L 293.937504 144.948706 
L 288.434884 154.435765 
L 282.932265 90.736941 
L 277.429646 123.264 
L 271.927026 132.751059 
L 266.424407 157.146353 
L 260.921787 135.461647 
L 255.419168 144.948706 
L 249.916549 154.435765 
L 244.413929 131.395765 
L 238.91131 161.212235 
L 233.40869 112.421647 
L 227.906071 117.842824 
L 222.403451 112.421647 
L 216.900832 123.264 
L 211.398213 113.776941 
L 205.895593 124.619294 
L 200.392974 98.868706 
L 194.890354 101.579294 
L 189.387735 100.224 
L 183.885116 96.158118 
L 178.382496 86.671059 
L 172.879877 96.158118 
L 167.377257 89.381647 
L 161.874638 97.513412 
L 156.372018 86.671059 
L 150.869399 79.894588 
L 145.36678 88.026353 
L 139.86416 77.184 
L 134.361541 74.473412 
L 128.858921 74.473412 
L 123.356302 71.762824 
L 117.853683 63.631059 
L 112.351063 67.696941 
L 106.848444 69.052235 
L 101.345824 69.052235 
L 95.843205 69.052235 
L 90.340586 69.052235 
L 84.837966 70.407529 
L 79.335347 69.052235 
L 73.832727 70.407529 
z
" clip-path="url(#p210524b1c0)" style="fill: #9467bd"/>
   </g>
   <g id="PolyCollection_16">
    <path d="M 73.832727 70.407529 
L 73.832727 70.407529 
L 79.335347 69.052235 
L 84.837966 70.407529 
L 90.340586 69.052235 
L 95.843205 69.052235 
L 101.345824 69.052235 
L 106.848444 69.052235 
L 112.351063 67.696941 
L 117.853683 63.631059 
L 123.356302 71.762824 
L 128.858921 74.473412 
L 134.361541 74.473412 
L 139.86416 77.184 
L 145.36678 88.026353 
L 150.869399 79.894588 
L 156.372018 86.671059 
L 161.874638 97.513412 
L 167.377257 89.381647 
L 172.879877 96.158118 
L 178.382496 86.671059 
L 183.885116 96.158118 
L 189.387735 100.224 
L 194.890354 101.579294 
L 200.392974 98.868706 
L 205.895593 124.619294 
L 211.398213 113.776941 
L 216.900832 123.264 
L 222.403451 112.421647 
L 227.906071 117.842824 
L 233.40869 112.421647 
L 238.91131 161.212235 
L 244.413929 131.395765 
L 249.916549 154.435765 
L 255.419168 144.948706 
L 260.921787 135.461647 
L 266.424407 157.146353 
L 271.927026 132.751059 
L 277.429646 123.264 
L 282.932265 90.736941 
L 288.434884 154.435765 
L 293.937504 144.948706 
L 299.440123 153.080471 
L 304.942743 170.699294 
L 310.445362 147.659294 
L 315.947982 165.278118 
L 321.450601 166.633412 
L 326.95322 135.461647 
L 332.45584 189.673412 
L 337.958459 167.988706 
L 343.461079 127.329882 
L 348.963698 144.948706 
L 354.466317 180.186353 
L 359.968937 163.922824 
L 365.471556 186.962824 
L 370.974176 214.068706 
L 376.476795 227.621647 
L 381.979414 245.240471 
L 387.482034 237.108706 
L 392.984653 235.753412 
L 398.487273 261.504 
L 398.487273 261.504 
L 398.487273 261.504 
L 392.984653 235.753412 
L 387.482034 237.108706 
L 381.979414 245.240471 
L 376.476795 205.936941 
L 370.974176 188.318118 
L 365.471556 153.080471 
L 359.968937 127.329882 
L 354.466317 150.369882 
L 348.963698 128.685176 
L 343.461079 117.842824 
L 337.958459 157.146353 
L 332.45584 172.054588 
L 326.95322 116.487529 
L 321.450601 149.014588 
L 315.947982 149.014588 
L 310.445362 134.106353 
L 304.942743 151.725176 
L 299.440123 138.172235 
L 293.937504 121.908706 
L 288.434884 134.106353 
L 282.932265 78.539294 
L 277.429646 105.645176 
L 271.927026 117.842824 
L 266.424407 143.593412 
L 260.921787 116.487529 
L 255.419168 127.329882 
L 249.916549 134.106353 
L 244.413929 117.842824 
L 238.91131 142.238118 
L 233.40869 98.868706 
L 227.906071 101.579294 
L 222.403451 98.868706 
L 216.900832 104.289882 
L 211.398213 98.868706 
L 205.895593 112.421647 
L 200.392974 86.671059 
L 194.890354 89.381647 
L 189.387735 85.315765 
L 183.885116 79.894588 
L 178.382496 77.184 
L 172.879877 85.315765 
L 167.377257 82.605176 
L 161.874638 83.960471 
L 156.372018 75.828706 
L 150.869399 69.052235 
L 145.36678 75.828706 
L 139.86416 62.275765 
L 134.361541 64.986353 
L 128.858921 64.986353 
L 123.356302 63.631059 
L 117.853683 62.275765 
L 112.351063 67.696941 
L 106.848444 69.052235 
L 101.345824 69.052235 
L 95.843205 69.052235 
L 90.340586 69.052235 
L 84.837966 70.407529 
L 79.335347 69.052235 
L 73.832727 70.407529 
z
" clip-path="url(#p210524b1c0)" style="fill: #8c564b"/>
   </g>
   <g id="PolyCollection_17">
    <path d="M 73.832727 70.407529 
L 73.832727 70.407529 
L 79.335347 69.052235 
L 84.837966 70.407529 
L 90.340586 69.052235 
L 95.843205 69.052235 
L 101.345824 69.052235 
L 106.848444 69.052235 
L 112.351063 67.696941 
L 117.853683 62.275765 
L 123.356302 63.631059 
L 128.858921 64.986353 
L 134.361541 64.986353 
L 139.86416 62.275765 
L 145.36678 75.828706 
L 150.869399 69.052235 
L 156.372018 75.828706 
L 161.874638 83.960471 
L 167.377257 82.605176 
L 172.879877 85.315765 
L 178.382496 77.184 
L 183.885116 79.894588 
L 189.387735 85.315765 
L 194.890354 89.381647 
L 200.392974 86.671059 
L 205.895593 112.421647 
L 211.398213 98.868706 
L 216.900832 104.289882 
L 222.403451 98.868706 
L 227.906071 101.579294 
L 233.40869 98.868706 
L 238.91131 142.238118 
L 244.413929 117.842824 
L 249.916549 134.106353 
L 255.419168 127.329882 
L 260.921787 116.487529 
L 266.424407 143.593412 
L 271.927026 117.842824 
L 277.429646 105.645176 
L 282.932265 78.539294 
L 288.434884 134.106353 
L 293.937504 121.908706 
L 299.440123 138.172235 
L 304.942743 151.725176 
L 310.445362 134.106353 
L 315.947982 149.014588 
L 321.450601 149.014588 
L 326.95322 116.487529 
L 332.45584 172.054588 
L 337.958459 157.146353 
L 343.461079 117.842824 
L 348.963698 128.685176 
L 354.466317 150.369882 
L 359.968937 127.329882 
L 365.471556 153.080471 
L 370.974176 188.318118 
L 376.476795 205.936941 
L 381.979414 245.240471 
L 387.482034 237.108706 
L 392.984653 235.753412 
L 398.487273 261.504 
L 398.487273 239.819294 
L 398.487273 239.819294 
L 392.984653 140.882824 
L 387.482034 212.713412 
L 381.979414 223.555765 
L 376.476795 173.409882 
L 370.974176 169.344 
L 365.471556 132.751059 
L 359.968937 102.934588 
L 354.466317 102.934588 
L 348.963698 108.355765 
L 343.461079 104.289882 
L 337.958459 105.645176 
L 332.45584 108.355765 
L 326.95322 104.289882 
L 321.450601 107.000471 
L 315.947982 92.092235 
L 310.445362 120.553412 
L 304.942743 131.395765 
L 299.440123 119.198118 
L 293.937504 104.289882 
L 288.434884 120.553412 
L 282.932265 77.184 
L 277.429646 86.671059 
L 271.927026 97.513412 
L 266.424407 130.040471 
L 260.921787 107.000471 
L 255.419168 115.132235 
L 249.916549 124.619294 
L 244.413929 97.513412 
L 238.91131 132.751059 
L 233.40869 92.092235 
L 227.906071 86.671059 
L 222.403451 83.960471 
L 216.900832 85.315765 
L 211.398213 90.736941 
L 205.895593 102.934588 
L 200.392974 79.894588 
L 194.890354 77.184 
L 189.387735 75.828706 
L 183.885116 69.052235 
L 178.382496 62.275765 
L 172.879877 71.762824 
L 167.377257 71.762824 
L 161.874638 74.473412 
L 156.372018 67.696941 
L 150.869399 62.275765 
L 145.36678 64.986353 
L 139.86416 54.144 
L 134.361541 62.275765 
L 128.858921 64.986353 
L 123.356302 63.631059 
L 117.853683 62.275765 
L 112.351063 67.696941 
L 106.848444 69.052235 
L 101.345824 69.052235 
L 95.843205 69.052235 
L 90.340586 69.052235 
L 84.837966 70.407529 
L 79.335347 69.052235 
L 73.832727 70.407529 
z
" clip-path="url(#p210524b1c0)" style="fill: #e377c2"/>
   </g>
   <g id="PolyCollection_18">
    <path d="M 73.832727 70.407529 
L 73.832727 70.407529 
L 79.335347 69.052235 
L 84.837966 70.407529 
L 90.340586 69.052235 
L 95.843205 69.052235 
L 101.345824 69.052235 
L 106.848444 69.052235 
L 112.351063 67.696941 
L 117.853683 62.275765 
L 123.356302 63.631059 
L 128.858921 64.986353 
L 134.361541 62.275765 
L 139.86416 54.144 
L 145.36678 64.986353 
L 150.869399 62.275765 
L 156.372018 67.696941 
L 161.874638 74.473412 
L 167.377257 71.762824 
L 172.879877 71.762824 
L 178.382496 62.275765 
L 183.885116 69.052235 
L 189.387735 75.828706 
L 194.890354 77.184 
L 200.392974 79.894588 
L 205.895593 102.934588 
L 211.398213 90.736941 
L 216.900832 85.315765 
L 222.403451 83.960471 
L 227.906071 86.671059 
L 233.40869 92.092235 
L 238.91131 132.751059 
L 244.413929 97.513412 
L 249.916549 124.619294 
L 255.419168 115.132235 
L 260.921787 107.000471 
L 266.424407 130.040471 
L 271.927026 97.513412 
L 277.429646 86.671059 
L 282.932265 77.184 
L 288.434884 120.553412 
L 293.937504 104.289882 
L 299.440123 119.198118 
L 304.942743 131.395765 
L 310.445362 120.553412 
L 315.947982 92.092235 
L 321.450601 107.000471 
L 326.95322 104.289882 
L 332.45584 108.355765 
L 337.958459 105.645176 
L 343.461079 104.289882 
L 348.963698 108.355765 
L 354.466317 102.934588 
L 359.968937 102.934588 
L 365.471556 132.751059 
L 370.974176 169.344 
L 376.476795 173.409882 
L 381.979414 223.555765 
L 387.482034 212.713412 
L 392.984653 140.882824 
L 398.487273 239.819294 
L 398.487273 239.819294 
L 398.487273 239.819294 
L 392.984653 140.882824 
L 387.482034 212.713412 
L 381.979414 223.555765 
L 376.476795 173.409882 
L 370.974176 169.344 
L 365.471556 132.751059 
L 359.968937 102.934588 
L 354.466317 102.934588 
L 348.963698 75.828706 
L 343.461079 86.671059 
L 337.958459 86.671059 
L 332.45584 90.736941 
L 326.95322 78.539294 
L 321.450601 86.671059 
L 315.947982 88.026353 
L 310.445362 98.868706 
L 304.942743 85.315765 
L 299.440123 83.960471 
L 293.937504 85.315765 
L 288.434884 78.539294 
L 282.932265 69.052235 
L 277.429646 70.407529 
L 271.927026 71.762824 
L 266.424407 71.762824 
L 260.921787 71.762824 
L 255.419168 71.762824 
L 249.916549 70.407529 
L 244.413929 73.118118 
L 238.91131 71.762824 
L 233.40869 73.118118 
L 227.906071 67.696941 
L 222.403451 74.473412 
L 216.900832 67.696941 
L 211.398213 70.407529 
L 205.895593 74.473412 
L 200.392974 69.052235 
L 194.890354 70.407529 
L 189.387735 62.275765 
L 183.885116 63.631059 
L 178.382496 54.144 
L 172.879877 64.986353 
L 167.377257 62.275765 
L 161.874638 63.631059 
L 156.372018 66.341647 
L 150.869399 62.275765 
L 145.36678 64.986353 
L 139.86416 54.144 
L 134.361541 62.275765 
L 128.858921 64.986353 
L 123.356302 63.631059 
L 117.853683 62.275765 
L 112.351063 67.696941 
L 106.848444 69.052235 
L 101.345824 69.052235 
L 95.843205 69.052235 
L 90.340586 69.052235 
L 84.837966 70.407529 
L 79.335347 69.052235 
L 73.832727 70.407529 
z
" clip-path="url(#p210524b1c0)" style="fill: #7f7f7f"/>
   </g>
   <g id="PolyCollection_19">
    <path d="M 73.832727 70.407529 
L 73.832727 70.407529 
L 79.335347 69.052235 
L 84.837966 70.407529 
L 90.340586 69.052235 
L 95.843205 69.052235 
L 101.345824 69.052235 
L 106.848444 69.052235 
L 112.351063 67.696941 
L 117.853683 62.275765 
L 123.356302 63.631059 
L 128.858921 64.986353 
L 134.361541 62.275765 
L 139.86416 54.144 
L 145.36678 64.986353 
L 150.869399 62.275765 
L 156.372018 66.341647 
L 161.874638 63.631059 
L 167.377257 62.275765 
L 172.879877 64.986353 
L 178.382496 54.144 
L 183.885116 63.631059 
L 189.387735 62.275765 
L 194.890354 70.407529 
L 200.392974 69.052235 
L 205.895593 74.473412 
L 211.398213 70.407529 
L 216.900832 67.696941 
L 222.403451 74.473412 
L 227.906071 67.696941 
L 233.40869 73.118118 
L 238.91131 71.762824 
L 244.413929 73.118118 
L 249.916549 70.407529 
L 255.419168 71.762824 
L 260.921787 71.762824 
L 266.424407 71.762824 
L 271.927026 71.762824 
L 277.429646 70.407529 
L 282.932265 69.052235 
L 288.434884 78.539294 
L 293.937504 85.315765 
L 299.440123 83.960471 
L 304.942743 85.315765 
L 310.445362 98.868706 
L 315.947982 88.026353 
L 321.450601 86.671059 
L 326.95322 78.539294 
L 332.45584 90.736941 
L 337.958459 86.671059 
L 343.461079 86.671059 
L 348.963698 75.828706 
L 354.466317 102.934588 
L 359.968937 102.934588 
L 365.471556 132.751059 
L 370.974176 169.344 
L 376.476795 173.409882 
L 381.979414 223.555765 
L 387.482034 212.713412 
L 392.984653 140.882824 
L 398.487273 239.819294 
L 398.487273 234.398118 
L 398.487273 234.398118 
L 392.984653 120.553412 
L 387.482034 188.318118 
L 381.979414 203.226353 
L 376.476795 165.278118 
L 370.974176 154.435765 
L 365.471556 105.645176 
L 359.968937 89.381647 
L 354.466317 73.118118 
L 348.963698 69.052235 
L 343.461079 71.762824 
L 337.958459 73.118118 
L 332.45584 70.407529 
L 326.95322 70.407529 
L 321.450601 71.762824 
L 315.947982 73.118118 
L 310.445362 73.118118 
L 304.942743 70.407529 
L 299.440123 71.762824 
L 293.937504 71.762824 
L 288.434884 74.473412 
L 282.932265 69.052235 
L 277.429646 70.407529 
L 271.927026 71.762824 
L 266.424407 71.762824 
L 260.921787 71.762824 
L 255.419168 71.762824 
L 249.916549 70.407529 
L 244.413929 73.118118 
L 238.91131 71.762824 
L 233.40869 73.118118 
L 227.906071 67.696941 
L 222.403451 74.473412 
L 216.900832 67.696941 
L 211.398213 70.407529 
L 205.895593 74.473412 
L 200.392974 69.052235 
L 194.890354 70.407529 
L 189.387735 62.275765 
L 183.885116 63.631059 
L 178.382496 54.144 
L 172.879877 64.986353 
L 167.377257 62.275765 
L 161.874638 63.631059 
L 156.372018 66.341647 
L 150.869399 62.275765 
L 145.36678 64.986353 
L 139.86416 54.144 
L 134.361541 62.275765 
L 128.858921 64.986353 
L 123.356302 63.631059 
L 117.853683 62.275765 
L 112.351063 67.696941 
L 106.848444 69.052235 
L 101.345824 69.052235 
L 95.843205 69.052235 
L 90.340586 69.052235 
L 84.837966 70.407529 
L 79.335347 69.052235 
L 73.832727 70.407529 
z
" clip-path="url(#p210524b1c0)" style="fill: #bcbd22"/>
   </g>
   <g id="PolyCollection_20">
    <path d="M 73.832727 70.407529 
L 73.832727 70.407529 
L 79.335347 69.052235 
L 84.837966 70.407529 
L 90.340586 69.052235 
L 95.843205 69.052235 
L 101.345824 69.052235 
L 106.848444 69.052235 
L 112.351063 67.696941 
L 117.853683 62.275765 
L 123.356302 63.631059 
L 128.858921 64.986353 
L 134.361541 62.275765 
L 139.86416 54.144 
L 145.36678 64.986353 
L 150.869399 62.275765 
L 156.372018 66.341647 
L 161.874638 63.631059 
L 167.377257 62.275765 
L 172.879877 64.986353 
L 178.382496 54.144 
L 183.885116 63.631059 
L 189.387735 62.275765 
L 194.890354 70.407529 
L 200.392974 69.052235 
L 205.895593 74.473412 
L 211.398213 70.407529 
L 216.900832 67.696941 
L 222.403451 74.473412 
L 227.906071 67.696941 
L 233.40869 73.118118 
L 238.91131 71.762824 
L 244.413929 73.118118 
L 249.916549 70.407529 
L 255.419168 71.762824 
L 260.921787 71.762824 
L 266.424407 71.762824 
L 271.927026 71.762824 
L 277.429646 70.407529 
L 282.932265 69.052235 
L 288.434884 74.473412 
L 293.937504 71.762824 
L 299.440123 71.762824 
L 304.942743 70.407529 
L 310.445362 73.118118 
L 315.947982 73.118118 
L 321.450601 71.762824 
L 326.95322 70.407529 
L 332.45584 70.407529 
L 337.958459 73.118118 
L 343.461079 71.762824 
L 348.963698 69.052235 
L 354.466317 73.118118 
L 359.968937 89.381647 
L 365.471556 105.645176 
L 370.974176 154.435765 
L 376.476795 165.278118 
L 381.979414 203.226353 
L 387.482034 188.318118 
L 392.984653 120.553412 
L 398.487273 234.398118 
L 398.487273 210.002824 
L 398.487273 210.002824 
L 392.984653 96.158118 
L 387.482034 115.132235 
L 381.979414 108.355765 
L 376.476795 119.198118 
L 370.974176 120.553412 
L 365.471556 94.802824 
L 359.968937 74.473412 
L 354.466317 73.118118 
L 348.963698 69.052235 
L 343.461079 71.762824 
L 337.958459 73.118118 
L 332.45584 70.407529 
L 326.95322 70.407529 
L 321.450601 71.762824 
L 315.947982 73.118118 
L 310.445362 73.118118 
L 304.942743 70.407529 
L 299.440123 71.762824 
L 293.937504 71.762824 
L 288.434884 74.473412 
L 282.932265 69.052235 
L 277.429646 70.407529 
L 271.927026 71.762824 
L 266.424407 71.762824 
L 260.921787 71.762824 
L 255.419168 71.762824 
L 249.916549 70.407529 
L 244.413929 73.118118 
L 238.91131 71.762824 
L 233.40869 73.118118 
L 227.906071 67.696941 
L 222.403451 74.473412 
L 216.900832 67.696941 
L 211.398213 70.407529 
L 205.895593 74.473412 
L 200.392974 69.052235 
L 194.890354 70.407529 
L 189.387735 62.275765 
L 183.885116 63.631059 
L 178.382496 54.144 
L 172.879877 64.986353 
L 167.377257 62.275765 
L 161.874638 63.631059 
L 156.372018 66.341647 
L 150.869399 62.275765 
L 145.36678 64.986353 
L 139.86416 54.144 
L 134.361541 62.275765 
L 128.858921 64.986353 
L 123.356302 63.631059 
L 117.853683 62.275765 
L 112.351063 67.696941 
L 106.848444 69.052235 
L 101.345824 69.052235 
L 95.843205 69.052235 
L 90.340586 69.052235 
L 84.837966 70.407529 
L 79.335347 69.052235 
L 73.832727 70.407529 
z
" clip-path="url(#p210524b1c0)" style="fill: #17becf"/>
   </g>
   <g id="PolyCollection_21">
    <path d="M 73.832727 70.407529 
L 73.832727 70.407529 
L 79.335347 69.052235 
L 84.837966 70.407529 
L 90.340586 69.052235 
L 95.843205 69.052235 
L 101.345824 69.052235 
L 106.848444 69.052235 
L 112.351063 67.696941 
L 117.853683 62.275765 
L 123.356302 63.631059 
L 128.858921 64.986353 
L 134.361541 62.275765 
L 139.86416 54.144 
L 145.36678 64.986353 
L 150.869399 62.275765 
L 156.372018 66.341647 
L 161.874638 63.631059 
L 167.377257 62.275765 
L 172.879877 64.986353 
L 178.382496 54.144 
L 183.885116 63.631059 
L 189.387735 62.275765 
L 194.890354 70.407529 
L 200.392974 69.052235 
L 205.895593 74.473412 
L 211.398213 70.407529 
L 216.900832 67.696941 
L 222.403451 74.473412 
L 227.906071 67.696941 
L 233.40869 73.118118 
L 238.91131 71.762824 
L 244.413929 73.118118 
L 249.916549 70.407529 
L 255.419168 71.762824 
L 260.921787 71.762824 
L 266.424407 71.762824 
L 271.927026 71.762824 
L 277.429646 70.407529 
L 282.932265 69.052235 
L 288.434884 74.473412 
L 293.937504 71.762824 
L 299.440123 71.762824 
L 304.942743 70.407529 
L 310.445362 73.118118 
L 315.947982 73.118118 
L 321.450601 71.762824 
L 326.95322 70.407529 
L 332.45584 70.407529 
L 337.958459 73.118118 
L 343.461079 71.762824 
L 348.963698 69.052235 
L 354.466317 73.118118 
L 359.968937 74.473412 
L 365.471556 94.802824 
L 370.974176 120.553412 
L 376.476795 119.198118 
L 381.979414 108.355765 
L 387.482034 115.132235 
L 392.984653 96.158118 
L 398.487273 210.002824 
L 398.487273 139.527529 
L 398.487273 139.527529 
L 392.984653 78.539294 
L 387.482034 98.868706 
L 381.979414 90.736941 
L 376.476795 97.513412 
L 370.974176 97.513412 
L 365.471556 74.473412 
L 359.968937 69.052235 
L 354.466317 73.118118 
L 348.963698 69.052235 
L 343.461079 71.762824 
L 337.958459 73.118118 
L 332.45584 70.407529 
L 326.95322 70.407529 
L 321.450601 71.762824 
L 315.947982 73.118118 
L 310.445362 73.118118 
L 304.942743 70.407529 
L 299.440123 71.762824 
L 293.937504 71.762824 
L 288.434884 74.473412 
L 282.932265 69.052235 
L 277.429646 70.407529 
L 271.927026 71.762824 
L 266.424407 71.762824 
L 260.921787 71.762824 
L 255.419168 71.762824 
L 249.916549 70.407529 
L 244.413929 73.118118 
L 238.91131 71.762824 
L 233.40869 73.118118 
L 227.906071 67.696941 
L 222.403451 74.473412 
L 216.900832 67.696941 
L 211.398213 70.407529 
L 205.895593 74.473412 
L 200.392974 69.052235 
L 194.890354 70.407529 
L 189.387735 62.275765 
L 183.885116 63.631059 
L 178.382496 54.144 
L 172.879877 64.986353 
L 167.377257 62.275765 
L 161.874638 63.631059 
L 156.372018 66.341647 
L 150.869399 62.275765 
L 145.36678 64.986353 
L 139.86416 54.144 
L 134.361541 62.275765 
L 128.858921 64.986353 
L 123.356302 63.631059 
L 117.853683 62.275765 
L 112.351063 67.696941 
L 106.848444 69.052235 
L 101.345824 69.052235 
L 95.843205 69.052235 
L 90.340586 69.052235 
L 84.837966 70.407529 
L 79.335347 69.052235 
L 73.832727 70.407529 
z
" clip-path="url(#p210524b1c0)" style="fill: #1f77b4"/>
   </g>
   <g id="PolyCollection_22">
    <path d="M 73.832727 70.407529 
L 73.832727 70.407529 
L 79.335347 69.052235 
L 84.837966 70.407529 
L 90.340586 69.052235 
L 95.843205 69.052235 
L 101.345824 69.052235 
L 106.848444 69.052235 
L 112.351063 67.696941 
L 117.853683 62.275765 
L 123.356302 63.631059 
L 128.858921 64.986353 
L 134.361541 62.275765 
L 139.86416 54.144 
L 145.36678 64.986353 
L 150.869399 62.275765 
L 156.372018 66.341647 
L 161.874638 63.631059 
L 167.377257 62.275765 
L 172.879877 64.986353 
L 178.382496 54.144 
L 183.885116 63.631059 
L 189.387735 62.275765 
L 194.890354 70.407529 
L 200.392974 69.052235 
L 205.895593 74.473412 
L 211.398213 70.407529 
L 216.900832 67.696941 
L 222.403451 74.473412 
L 227.906071 67.696941 
L 233.40869 73.118118 
L 238.91131 71.762824 
L 244.413929 73.118118 
L 249.916549 70.407529 
L 255.419168 71.762824 
L 260.921787 71.762824 
L 266.424407 71.762824 
L 271.927026 71.762824 
L 277.429646 70.407529 
L 282.932265 69.052235 
L 288.434884 74.473412 
L 293.937504 71.762824 
L 299.440123 71.762824 
L 304.942743 70.407529 
L 310.445362 73.118118 
L 315.947982 73.118118 
L 321.450601 71.762824 
L 326.95322 70.407529 
L 332.45584 70.407529 
L 337.958459 73.118118 
L 343.461079 71.762824 
L 348.963698 69.052235 
L 354.466317 73.118118 
L 359.968937 69.052235 
L 365.471556 74.473412 
L 370.974176 97.513412 
L 376.476795 97.513412 
L 381.979414 90.736941 
L 387.482034 98.868706 
L 392.984653 78.539294 
L 398.487273 139.527529 
L 398.487273 70.407529 
L 398.487273 70.407529 
L 392.984653 70.407529 
L 387.482034 71.762824 
L 381.979414 70.407529 
L 376.476795 70.407529 
L 370.974176 70.407529 
L 365.471556 70.407529 
L 359.968937 69.052235 
L 354.466317 73.118118 
L 348.963698 69.052235 
L 343.461079 71.762824 
L 337.958459 73.118118 
L 332.45584 70.407529 
L 326.95322 70.407529 
L 321.450601 71.762824 
L 315.947982 73.118118 
L 310.445362 73.118118 
L 304.942743 70.407529 
L 299.440123 71.762824 
L 293.937504 71.762824 
L 288.434884 74.473412 
L 282.932265 69.052235 
L 277.429646 70.407529 
L 271.927026 71.762824 
L 266.424407 71.762824 
L 260.921787 71.762824 
L 255.419168 71.762824 
L 249.916549 70.407529 
L 244.413929 73.118118 
L 238.91131 71.762824 
L 233.40869 73.118118 
L 227.906071 67.696941 
L 222.403451 74.473412 
L 216.900832 67.696941 
L 211.398213 70.407529 
L 205.895593 74.473412 
L 200.392974 69.052235 
L 194.890354 70.407529 
L 189.387735 62.275765 
L 183.885116 63.631059 
L 178.382496 54.144 
L 172.879877 64.986353 
L 167.377257 62.275765 
L 161.874638 63.631059 
L 156.372018 66.341647 
L 150.869399 62.275765 
L 145.36678 64.986353 
L 139.86416 54.144 
L 134.361541 62.275765 
L 128.858921 64.986353 
L 123.356302 63.631059 
L 117.853683 62.275765 
L 112.351063 67.696941 
L 106.848444 69.052235 
L 101.345824 69.052235 
L 95.843205 69.052235 
L 90.340586 69.052235 
L 84.837966 70.407529 
L 79.335347 69.052235 
L 73.832727 70.407529 
z
" clip-path="url(#p210524b1c0)" style="fill: #ff7f0e"/>
   </g>
   <g id="matplotlib.axis_1">
    <g id="xtick_1">
     <g id="line2d_1">
      <defs>
       <path id="m3b1b405b66" d="M 0 0 
L 0 3.5 
" style="stroke: #000000; stroke-width: 0.8"/>
      </defs>
      <g>
       <use xlink:href="#m3b1b405b66" x="73.832727" y="307.584" style="stroke: #000000; stroke-width: 0.8"/>
      </g>
     </g>
     <g id="text_1">
      <!-- 0 -->
      <g transform="translate(70.651477 322.182437) scale(0.1 -0.1)">
       <defs>
        <path id="DejaVuSans-30" d="M 2034 4250 
Q 1547 4250 1301 3770 
Q 1056 3291 1056 2328 
Q 1056 1369 1301 889 
Q 1547 409 2034 409 
Q 2525 409 2770 889 
Q 3016 1369 3016 2328 
Q 3016 3291 2770 3770 
Q 2525 4250 2034 4250 
z
M 2034 4750 
Q 2819 4750 3233 4129 
Q 3647 3509 3647 2328 
Q 3647 1150 3233 529 
Q 2819 -91 2034 -91 
Q 1250 -91 836 529 
Q 422 1150 422 2328 
Q 422 3509 836 4129 
Q 1250 4750 2034 4750 
z
" transform="scale(0.015625)"/>
       </defs>
       <use xlink:href="#DejaVuSans-30"/>
      </g>
     </g>
    </g>
    <g id="xtick_2">
     <g id="line2d_2">
      <g>
       <use xlink:href="#m3b1b405b66" x="128.858921" y="307.584" style="stroke: #000000; stroke-width: 0.8"/>
      </g>
     </g>
     <g id="text_2">
      <!-- 10 -->
      <g transform="translate(122.496421 322.182437) scale(0.1 -0.1)">
       <defs>
        <path id="DejaVuSans-31" d="M 794 531 
L 1825 531 
L 1825 4091 
L 703 3866 
L 703 4441 
L 1819 4666 
L 2450 4666 
L 2450 531 
L 3481 531 
L 3481 0 
L 794 0 
L 794 531 
z
" transform="scale(0.015625)"/>
       </defs>
       <use xlink:href="#DejaVuSans-31"/>
       <use xlink:href="#DejaVuSans-30" x="63.623047"/>
      </g>
     </g>
    </g>
    <g id="xtick_3">
     <g id="line2d_3">
      <g>
       <use xlink:href="#m3b1b405b66" x="183.885116" y="307.584" style="stroke: #000000; stroke-width: 0.8"/>
      </g>
     </g>
     <g id="text_3">
      <!-- 20 -->
      <g transform="translate(177.522616 322.182437) scale(0.1 -0.1)">
       <defs>
        <path id="DejaVuSans-32" d="M 1228 531 
L 3431 531 
L 3431 0 
L 469 0 
L 469 531 
Q 828 903 1448 1529 
Q 2069 2156 2228 2338 
Q 2531 2678 2651 2914 
Q 2772 3150 2772 3378 
Q 2772 3750 2511 3984 
Q 2250 4219 1831 4219 
Q 1534 4219 1204 4116 
Q 875 4013 500 3803 
L 500 4441 
Q 881 4594 1212 4672 
Q 1544 4750 1819 4750 
Q 2544 4750 2975 4387 
Q 3406 4025 3406 3419 
Q 3406 3131 3298 2873 
Q 3191 2616 2906 2266 
Q 2828 2175 2409 1742 
Q 1991 1309 1228 531 
z
" transform="scale(0.015625)"/>
       </defs>
       <use xlink:href="#DejaVuSans-32"/>
       <use xlink:href="#DejaVuSans-30" x="63.623047"/>
      </g>
     </g>
    </g>
    <g id="xtick_4">
     <g id="line2d_4">
      <g>
       <use xlink:href="#m3b1b405b66" x="238.91131" y="307.584" style="stroke: #000000; stroke-width: 0.8"/>
      </g>
     </g>
     <g id="text_4">
      <!-- 30 -->
      <g transform="translate(232.54881 322.182437) scale(0.1 -0.1)">
       <defs>
        <path id="DejaVuSans-33" d="M 2597 2516 
Q 3050 2419 3304 2112 
Q 3559 1806 3559 1356 
Q 3559 666 3084 287 
Q 2609 -91 1734 -91 
Q 1441 -91 1130 -33 
Q 819 25 488 141 
L 488 750 
Q 750 597 1062 519 
Q 1375 441 1716 441 
Q 2309 441 2620 675 
Q 2931 909 2931 1356 
Q 2931 1769 2642 2001 
Q 2353 2234 1838 2234 
L 1294 2234 
L 1294 2753 
L 1863 2753 
Q 2328 2753 2575 2939 
Q 2822 3125 2822 3475 
Q 2822 3834 2567 4026 
Q 2313 4219 1838 4219 
Q 1578 4219 1281 4162 
Q 984 4106 628 3988 
L 628 4550 
Q 988 4650 1302 4700 
Q 1616 4750 1894 4750 
Q 2613 4750 3031 4423 
Q 3450 4097 3450 3541 
Q 3450 3153 3228 2886 
Q 3006 2619 2597 2516 
z
" transform="scale(0.015625)"/>
       </defs>
       <use xlink:href="#DejaVuSans-33"/>
       <use xlink:href="#DejaVuSans-30" x="63.623047"/>
      </g>
     </g>
    </g>
    <g id="xtick_5">
     <g id="line2d_5">
      <g>
       <use xlink:href="#m3b1b405b66" x="293.937504" y="307.584" style="stroke: #000000; stroke-width: 0.8"/>
      </g>
     </g>
     <g id="text_5">
      <!-- 40 -->
      <g transform="translate(287.575004 322.182437) scale(0.1 -0.1)">
       <defs>
        <path id="DejaVuSans-34" d="M 2419 4116 
L 825 1625 
L 2419 1625 
L 2419 4116 
z
M 2253 4666 
L 3047 4666 
L 3047 1625 
L 3713 1625 
L 3713 1100 
L 3047 1100 
L 3047 0 
L 2419 0 
L 2419 1100 
L 313 1100 
L 313 1709 
L 2253 4666 
z
" transform="scale(0.015625)"/>
       </defs>
       <use xlink:href="#DejaVuSans-34"/>
       <use xlink:href="#DejaVuSans-30" x="63.623047"/>
      </g>
     </g>
    </g>
    <g id="xtick_6">
     <g id="line2d_6">
      <g>
       <use xlink:href="#m3b1b405b66" x="348.963698" y="307.584" style="stroke: #000000; stroke-width: 0.8"/>
      </g>
     </g>
     <g id="text_6">
      <!-- 50 -->
      <g transform="translate(342.601198 322.182437) scale(0.1 -0.1)">
       <defs>
        <path id="DejaVuSans-35" d="M 691 4666 
L 3169 4666 
L 3169 4134 
L 1269 4134 
L 1269 2991 
Q 1406 3038 1543 3061 
Q 1681 3084 1819 3084 
Q 2600 3084 3056 2656 
Q 3513 2228 3513 1497 
Q 3513 744 3044 326 
Q 2575 -91 1722 -91 
Q 1428 -91 1123 -41 
Q 819 9 494 109 
L 494 744 
Q 775 591 1075 516 
Q 1375 441 1709 441 
Q 2250 441 2565 725 
Q 2881 1009 2881 1497 
Q 2881 1984 2565 2268 
Q 2250 2553 1709 2553 
Q 1456 2553 1204 2497 
Q 953 2441 691 2322 
L 691 4666 
z
" transform="scale(0.015625)"/>
       </defs>
       <use xlink:href="#DejaVuSans-35"/>
       <use xlink:href="#DejaVuSans-30" x="63.623047"/>
      </g>
     </g>
    </g>
    <g id="xtick_7">
     <g id="line2d_7">
      <g>
       <use xlink:href="#m3b1b405b66" x="403.989892" y="307.584" style="stroke: #000000; stroke-width: 0.8"/>
      </g>
     </g>
     <g id="text_7">
      <!-- 60 -->
      <g transform="translate(397.627392 322.182437) scale(0.1 -0.1)">
       <defs>
        <path id="DejaVuSans-36" d="M 2113 2584 
Q 1688 2584 1439 2293 
Q 1191 2003 1191 1497 
Q 1191 994 1439 701 
Q 1688 409 2113 409 
Q 2538 409 2786 701 
Q 3034 994 3034 1497 
Q 3034 2003 2786 2293 
Q 2538 2584 2113 2584 
z
M 3366 4563 
L 3366 3988 
Q 3128 4100 2886 4159 
Q 2644 4219 2406 4219 
Q 1781 4219 1451 3797 
Q 1122 3375 1075 2522 
Q 1259 2794 1537 2939 
Q 1816 3084 2150 3084 
Q 2853 3084 3261 2657 
Q 3669 2231 3669 1497 
Q 3669 778 3244 343 
Q 2819 -91 2113 -91 
Q 1303 -91 875 529 
Q 447 1150 447 2328 
Q 447 3434 972 4092 
Q 1497 4750 2381 4750 
Q 2619 4750 2861 4703 
Q 3103 4656 3366 4563 
z
" transform="scale(0.015625)"/>
       </defs>
       <use xlink:href="#DejaVuSans-36"/>
       <use xlink:href="#DejaVuSans-30" x="63.623047"/>
      </g>
     </g>
    </g>
    <g id="text_8">
     <!-- Generations -->
     <g transform="translate(205.662344 335.860562) scale(0.1 -0.1)">
      <defs>
       <path id="DejaVuSans-47" d="M 3809 666 
L 3809 1919 
L 2778 1919 
L 2778 2438 
L 4434 2438 
L 4434 434 
Q 4069 175 3628 42 
Q 3188 -91 2688 -91 
Q 1594 -91 976 548 
Q 359 1188 359 2328 
Q 359 3472 976 4111 
Q 1594 4750 2688 4750 
Q 3144 4750 3555 4637 
Q 3966 4525 4313 4306 
L 4313 3634 
Q 3963 3931 3569 4081 
Q 3175 4231 2741 4231 
Q 1884 4231 1454 3753 
Q 1025 3275 1025 2328 
Q 1025 1384 1454 906 
Q 1884 428 2741 428 
Q 3075 428 3337 486 
Q 3600 544 3809 666 
z
" transform="scale(0.015625)"/>
       <path id="DejaVuSans-65" d="M 3597 1894 
L 3597 1613 
L 953 1613 
Q 991 1019 1311 708 
Q 1631 397 2203 397 
Q 2534 397 2845 478 
Q 3156 559 3463 722 
L 3463 178 
Q 3153 47 2828 -22 
Q 2503 -91 2169 -91 
Q 1331 -91 842 396 
Q 353 884 353 1716 
Q 353 2575 817 3079 
Q 1281 3584 2069 3584 
Q 2775 3584 3186 3129 
Q 3597 2675 3597 1894 
z
M 3022 2063 
Q 3016 2534 2758 2815 
Q 2500 3097 2075 3097 
Q 1594 3097 1305 2825 
Q 1016 2553 972 2059 
L 3022 2063 
z
" transform="scale(0.015625)"/>
       <path id="DejaVuSans-6e" d="M 3513 2113 
L 3513 0 
L 2938 0 
L 2938 2094 
Q 2938 2591 2744 2837 
Q 2550 3084 2163 3084 
Q 1697 3084 1428 2787 
Q 1159 2491 1159 1978 
L 1159 0 
L 581 0 
L 581 3500 
L 1159 3500 
L 1159 2956 
Q 1366 3272 1645 3428 
Q 1925 3584 2291 3584 
Q 2894 3584 3203 3211 
Q 3513 2838 3513 2113 
z
" transform="scale(0.015625)"/>
       <path id="DejaVuSans-72" d="M 2631 2963 
Q 2534 3019 2420 3045 
Q 2306 3072 2169 3072 
Q 1681 3072 1420 2755 
Q 1159 2438 1159 1844 
L 1159 0 
L 581 0 
L 581 3500 
L 1159 3500 
L 1159 2956 
Q 1341 3275 1631 3429 
Q 1922 3584 2338 3584 
Q 2397 3584 2469 3576 
Q 2541 3569 2628 3553 
L 2631 2963 
z
" transform="scale(0.015625)"/>
       <path id="DejaVuSans-61" d="M 2194 1759 
Q 1497 1759 1228 1600 
Q 959 1441 959 1056 
Q 959 750 1161 570 
Q 1363 391 1709 391 
Q 2188 391 2477 730 
Q 2766 1069 2766 1631 
L 2766 1759 
L 2194 1759 
z
M 3341 1997 
L 3341 0 
L 2766 0 
L 2766 531 
Q 2569 213 2275 61 
Q 1981 -91 1556 -91 
Q 1019 -91 701 211 
Q 384 513 384 1019 
Q 384 1609 779 1909 
Q 1175 2209 1959 2209 
L 2766 2209 
L 2766 2266 
Q 2766 2663 2505 2880 
Q 2244 3097 1772 3097 
Q 1472 3097 1187 3025 
Q 903 2953 641 2809 
L 641 3341 
Q 956 3463 1253 3523 
Q 1550 3584 1831 3584 
Q 2591 3584 2966 3190 
Q 3341 2797 3341 1997 
z
" transform="scale(0.015625)"/>
       <path id="DejaVuSans-74" d="M 1172 4494 
L 1172 3500 
L 2356 3500 
L 2356 3053 
L 1172 3053 
L 1172 1153 
Q 1172 725 1289 603 
Q 1406 481 1766 481 
L 2356 481 
L 2356 0 
L 1766 0 
Q 1100 0 847 248 
Q 594 497 594 1153 
L 594 3053 
L 172 3053 
L 172 3500 
L 594 3500 
L 594 4494 
L 1172 4494 
z
" transform="scale(0.015625)"/>
       <path id="DejaVuSans-69" d="M 603 3500 
L 1178 3500 
L 1178 0 
L 603 0 
L 603 3500 
z
M 603 4863 
L 1178 4863 
L 1178 4134 
L 603 4134 
L 603 4863 
z
" transform="scale(0.015625)"/>
       <path id="DejaVuSans-6f" d="M 1959 3097 
Q 1497 3097 1228 2736 
Q 959 2375 959 1747 
Q 959 1119 1226 758 
Q 1494 397 1959 397 
Q 2419 397 2687 759 
Q 2956 1122 2956 1747 
Q 2956 2369 2687 2733 
Q 2419 3097 1959 3097 
z
M 1959 3584 
Q 2709 3584 3137 3096 
Q 3566 2609 3566 1747 
Q 3566 888 3137 398 
Q 2709 -91 1959 -91 
Q 1206 -91 779 398 
Q 353 888 353 1747 
Q 353 2609 779 3096 
Q 1206 3584 1959 3584 
z
" transform="scale(0.015625)"/>
       <path id="DejaVuSans-73" d="M 2834 3397 
L 2834 2853 
Q 2591 2978 2328 3040 
Q 2066 3103 1784 3103 
Q 1356 3103 1142 2972 
Q 928 2841 928 2578 
Q 928 2378 1081 2264 
Q 1234 2150 1697 2047 
L 1894 2003 
Q 2506 1872 2764 1633 
Q 3022 1394 3022 966 
Q 3022 478 2636 193 
Q 2250 -91 1575 -91 
Q 1294 -91 989 -36 
Q 684 19 347 128 
L 347 722 
Q 666 556 975 473 
Q 1284 391 1588 391 
Q 1994 391 2212 530 
Q 2431 669 2431 922 
Q 2431 1156 2273 1281 
Q 2116 1406 1581 1522 
L 1381 1569 
Q 847 1681 609 1914 
Q 372 2147 372 2553 
Q 372 3047 722 3315 
Q 1072 3584 1716 3584 
Q 2034 3584 2315 3537 
Q 2597 3491 2834 3397 
z
" transform="scale(0.015625)"/>
      </defs>
      <use xlink:href="#DejaVuSans-47"/>
      <use xlink:href="#DejaVuSans-65" x="77.490234"/>
      <use xlink:href="#DejaVuSans-6e" x="139.013672"/>
      <use xlink:href="#DejaVuSans-65" x="202.392578"/>
      <use xlink:href="#DejaVuSans-72" x="263.916016"/>
      <use xlink:href="#DejaVuSans-61" x="305.029297"/>
      <use xlink:href="#DejaVuSans-74" x="366.308594"/>
      <use xlink:href="#DejaVuSans-69" x="405.517578"/>
      <use xlink:href="#DejaVuSans-6f" x="433.300781"/>
      <use xlink:href="#DejaVuSans-6e" x="494.482422"/>
      <use xlink:href="#DejaVuSans-73" x="557.861328"/>
     </g>
    </g>
   </g>
   <g id="matplotlib.axis_2">
    <g id="ytick_1">
     <g id="line2d_8">
      <defs>
       <path id="m6fa43110ea" d="M 0 0 
L -3.5 0 
" style="stroke: #000000; stroke-width: 0.8"/>
      </defs>
      <g>
       <use xlink:href="#m6fa43110ea" x="57.6" y="307.584" style="stroke: #000000; stroke-width: 0.8"/>
      </g>
     </g>
     <g id="text_9">
      <!-- 0 -->
      <g transform="translate(44.2375 311.383219) scale(0.1 -0.1)">
       <use xlink:href="#DejaVuSans-30"/>
      </g>
     </g>
    </g>
    <g id="ytick_2">
     <g id="line2d_9">
      <g>
       <use xlink:href="#m6fa43110ea" x="57.6" y="273.701647" style="stroke: #000000; stroke-width: 0.8"/>
      </g>
     </g>
     <g id="text_10">
      <!-- 25 -->
      <g transform="translate(37.875 277.500866) scale(0.1 -0.1)">
       <use xlink:href="#DejaVuSans-32"/>
       <use xlink:href="#DejaVuSans-35" x="63.623047"/>
      </g>
     </g>
    </g>
    <g id="ytick_3">
     <g id="line2d_10">
      <g>
       <use xlink:href="#m6fa43110ea" x="57.6" y="239.819294" style="stroke: #000000; stroke-width: 0.8"/>
      </g>
     </g>
     <g id="text_11">
      <!-- 50 -->
      <g transform="translate(37.875 243.618513) scale(0.1 -0.1)">
       <use xlink:href="#DejaVuSans-35"/>
       <use xlink:href="#DejaVuSans-30" x="63.623047"/>
      </g>
     </g>
    </g>
    <g id="ytick_4">
     <g id="line2d_11">
      <g>
       <use xlink:href="#m6fa43110ea" x="57.6" y="205.936941" style="stroke: #000000; stroke-width: 0.8"/>
      </g>
     </g>
     <g id="text_12">
      <!-- 75 -->
      <g transform="translate(37.875 209.73616) scale(0.1 -0.1)">
       <defs>
        <path id="DejaVuSans-37" d="M 525 4666 
L 3525 4666 
L 3525 4397 
L 1831 0 
L 1172 0 
L 2766 4134 
L 525 4134 
L 525 4666 
z
" transform="scale(0.015625)"/>
       </defs>
       <use xlink:href="#DejaVuSans-37"/>
       <use xlink:href="#DejaVuSans-35" x="63.623047"/>
      </g>
     </g>
    </g>
    <g id="ytick_5">
     <g id="line2d_12">
      <g>
       <use xlink:href="#m6fa43110ea" x="57.6" y="172.054588" style="stroke: #000000; stroke-width: 0.8"/>
      </g>
     </g>
     <g id="text_13">
      <!-- 100 -->
      <g transform="translate(31.5125 175.853807) scale(0.1 -0.1)">
       <use xlink:href="#DejaVuSans-31"/>
       <use xlink:href="#DejaVuSans-30" x="63.623047"/>
       <use xlink:href="#DejaVuSans-30" x="127.246094"/>
      </g>
     </g>
    </g>
    <g id="ytick_6">
     <g id="line2d_13">
      <g>
       <use xlink:href="#m6fa43110ea" x="57.6" y="138.172235" style="stroke: #000000; stroke-width: 0.8"/>
      </g>
     </g>
     <g id="text_14">
      <!-- 125 -->
      <g transform="translate(31.5125 141.971454) scale(0.1 -0.1)">
       <use xlink:href="#DejaVuSans-31"/>
       <use xlink:href="#DejaVuSans-32" x="63.623047"/>
       <use xlink:href="#DejaVuSans-35" x="127.246094"/>
      </g>
     </g>
    </g>
    <g id="ytick_7">
     <g id="line2d_14">
      <g>
       <use xlink:href="#m6fa43110ea" x="57.6" y="104.289882" style="stroke: #000000; stroke-width: 0.8"/>
      </g>
     </g>
     <g id="text_15">
      <!-- 150 -->
      <g transform="translate(31.5125 108.089101) scale(0.1 -0.1)">
       <use xlink:href="#DejaVuSans-31"/>
       <use xlink:href="#DejaVuSans-35" x="63.623047"/>
       <use xlink:href="#DejaVuSans-30" x="127.246094"/>
      </g>
     </g>
    </g>
    <g id="ytick_8">
     <g id="line2d_15">
      <g>
       <use xlink:href="#m6fa43110ea" x="57.6" y="70.407529" style="stroke: #000000; stroke-width: 0.8"/>
      </g>
     </g>
     <g id="text_16">
      <!-- 175 -->
      <g transform="translate(31.5125 74.206748) scale(0.1 -0.1)">
       <use xlink:href="#DejaVuSans-31"/>
       <use xlink:href="#DejaVuSans-37" x="63.623047"/>
       <use xlink:href="#DejaVuSans-35" x="127.246094"/>
      </g>
     </g>
    </g>
    <g id="text_17">
     <!-- Size per Species -->
     <g transform="translate(25.432812 215.520969) rotate(-90) scale(0.1 -0.1)">
      <defs>
       <path id="DejaVuSans-53" d="M 3425 4513 
L 3425 3897 
Q 3066 4069 2747 4153 
Q 2428 4238 2131 4238 
Q 1616 4238 1336 4038 
Q 1056 3838 1056 3469 
Q 1056 3159 1242 3001 
Q 1428 2844 1947 2747 
L 2328 2669 
Q 3034 2534 3370 2195 
Q 3706 1856 3706 1288 
Q 3706 609 3251 259 
Q 2797 -91 1919 -91 
Q 1588 -91 1214 -16 
Q 841 59 441 206 
L 441 856 
Q 825 641 1194 531 
Q 1563 422 1919 422 
Q 2459 422 2753 634 
Q 3047 847 3047 1241 
Q 3047 1584 2836 1778 
Q 2625 1972 2144 2069 
L 1759 2144 
Q 1053 2284 737 2584 
Q 422 2884 422 3419 
Q 422 4038 858 4394 
Q 1294 4750 2059 4750 
Q 2388 4750 2728 4690 
Q 3069 4631 3425 4513 
z
" transform="scale(0.015625)"/>
       <path id="DejaVuSans-7a" d="M 353 3500 
L 3084 3500 
L 3084 2975 
L 922 459 
L 3084 459 
L 3084 0 
L 275 0 
L 275 525 
L 2438 3041 
L 353 3041 
L 353 3500 
z
" transform="scale(0.015625)"/>
       <path id="DejaVuSans-20" transform="scale(0.015625)"/>
       <path id="DejaVuSans-70" d="M 1159 525 
L 1159 -1331 
L 581 -1331 
L 581 3500 
L 1159 3500 
L 1159 2969 
Q 1341 3281 1617 3432 
Q 1894 3584 2278 3584 
Q 2916 3584 3314 3078 
Q 3713 2572 3713 1747 
Q 3713 922 3314 415 
Q 2916 -91 2278 -91 
Q 1894 -91 1617 61 
Q 1341 213 1159 525 
z
M 3116 1747 
Q 3116 2381 2855 2742 
Q 2594 3103 2138 3103 
Q 1681 3103 1420 2742 
Q 1159 2381 1159 1747 
Q 1159 1113 1420 752 
Q 1681 391 2138 391 
Q 2594 391 2855 752 
Q 3116 1113 3116 1747 
z
" transform="scale(0.015625)"/>
       <path id="DejaVuSans-63" d="M 3122 3366 
L 3122 2828 
Q 2878 2963 2633 3030 
Q 2388 3097 2138 3097 
Q 1578 3097 1268 2742 
Q 959 2388 959 1747 
Q 959 1106 1268 751 
Q 1578 397 2138 397 
Q 2388 397 2633 464 
Q 2878 531 3122 666 
L 3122 134 
Q 2881 22 2623 -34 
Q 2366 -91 2075 -91 
Q 1284 -91 818 406 
Q 353 903 353 1747 
Q 353 2603 823 3093 
Q 1294 3584 2113 3584 
Q 2378 3584 2631 3529 
Q 2884 3475 3122 3366 
z
" transform="scale(0.015625)"/>
      </defs>
      <use xlink:href="#DejaVuSans-53"/>
      <use xlink:href="#DejaVuSans-69" x="63.476562"/>
      <use xlink:href="#DejaVuSans-7a" x="91.259766"/>
      <use xlink:href="#DejaVuSans-65" x="143.75"/>
      <use xlink:href="#DejaVuSans-20" x="205.273438"/>
      <use xlink:href="#DejaVuSans-70" x="237.060547"/>
      <use xlink:href="#DejaVuSans-65" x="300.537109"/>
      <use xlink:href="#DejaVuSans-72" x="362.060547"/>
      <use xlink:href="#DejaVuSans-20" x="403.173828"/>
      <use xlink:href="#DejaVuSans-53" x="434.960938"/>
      <use xlink:href="#DejaVuSans-70" x="498.4375"/>
      <use xlink:href="#DejaVuSans-65" x="561.914062"/>
      <use xlink:href="#DejaVuSans-63" x="623.4375"/>
      <use xlink:href="#DejaVuSans-69" x="678.417969"/>
      <use xlink:href="#DejaVuSans-65" x="706.201172"/>
      <use xlink:href="#DejaVuSans-73" x="767.724609"/>
     </g>
    </g>
   </g>
   <g id="patch_3">
    <path d="M 57.6 307.584 
L 57.6 41.472 
" style="fill: none; stroke: #000000; stroke-width: 0.8; stroke-linejoin: miter; stroke-linecap: square"/>
   </g>
   <g id="patch_4">
    <path d="M 414.72 307.584 
L 414.72 41.472 
" style="fill: none; stroke: #000000; stroke-width: 0.8; stroke-linejoin: miter; stroke-linecap: square"/>
   </g>
   <g id="patch_5">
    <path d="M 57.6 307.584 
L 414.72 307.584 
" style="fill: none; stroke: #000000; stroke-width: 0.8; stroke-linejoin: miter; stroke-linecap: square"/>
   </g>
   <g id="patch_6">
    <path d="M 57.6 41.472 
L 414.72 41.472 
" style="fill: none; stroke: #000000; stroke-width: 0.8; stroke-linejoin: miter; stroke-linecap: square"/>
   </g>
   <g id="text_18">
    <!-- Speciation -->
    <g transform="translate(204.714375 35.472) scale(0.12 -0.12)">
     <use xlink:href="#DejaVuSans-53"/>
     <use xlink:href="#DejaVuSans-70" x="63.476562"/>
     <use xlink:href="#DejaVuSans-65" x="126.953125"/>
     <use xlink:href="#DejaVuSans-63" x="188.476562"/>
     <use xlink:href="#DejaVuSans-69" x="243.457031"/>
     <use xlink:href="#DejaVuSans-61" x="271.240234"/>
     <use xlink:href="#DejaVuSans-74" x="332.519531"/>
     <use xlink:href="#DejaVuSans-69" x="371.728516"/>
     <use xlink:href="#DejaVuSans-6f" x="399.511719"/>
     <use xlink:href="#DejaVuSans-6e" x="460.693359"/>
    </g>
   </g>
  </g>
 </g>
 <defs>
  <clipPath id="p210524b1c0">
   <rect x="57.6" y="41.472" width="357.12" height="266.112"/>
  </clipPath>
 </defs>
</svg>
