<?xml version="1.0" encoding="UTF-8" standalone="no"?>
<!DOCTYPE svg PUBLIC "-//W3C//DTD SVG 1.1//EN"
 "http://www.w3.org/Graphics/SVG/1.1/DTD/svg11.dtd">
<!-- Generated by graphviz version 2.43.0 (0)
 -->
<!-- Title: %3 Pages: 1 -->
<svg width="2036pt" height="95pt"
 viewBox="0.00 0.00 2036.00 94.53" xmlns="http://www.w3.org/2000/svg" xmlns:xlink="http://www.w3.org/1999/xlink">
<g id="graph0" class="graph" transform="scale(1 1) rotate(0) translate(4 90.53)">
<title>%3</title>
<polygon fill="white" stroke="transparent" points="-4,4 -4,-90.53 2032,-90.53 2032,4 -4,4"/>
<!-- &#45;1 -->
<g id="node1" class="node">
<title>&#45;1</title>
<polygon fill="lightgray" stroke="black" points="914,-86.53 888,-86.53 888,-68.53 914,-68.53 914,-86.53"/>
<text text-anchor="middle" x="901" y="-75.33" font-family="Times,serif" font-size="9.00">&#45;1</text>
</g>
<!-- 0 -->
<g id="node43" class="node">
<title>0</title>
<ellipse fill="lightblue" stroke="black" cx="579" cy="-16.26" rx="16.03" ry="16.03"/>
<text text-anchor="middle" x="579" y="-14.06" font-family="Times,serif" font-size="9.00">0</text>
</g>
<!-- &#45;1&#45;&gt;0 -->
<g id="edge30" class="edge">
<title>&#45;1&#45;&gt;0</title>
<path fill="none" stroke="green" stroke-width="0.18" stroke-dasharray="1,5" d="M887.63,-71.23C884.81,-70.24 881.83,-69.28 879,-68.53 779.58,-42.18 657.9,-26.26 605.3,-20.15"/>
<polygon fill="green" stroke="green" stroke-width="0.18" points="605.49,-16.64 595.15,-18.99 604.69,-23.6 605.49,-16.64"/>
</g>
<!-- 1 -->
<g id="node44" class="node">
<title>1</title>
<ellipse fill="lightblue" stroke="black" cx="1077" cy="-16.26" rx="16.03" ry="16.03"/>
<text text-anchor="middle" x="1077" y="-14.06" font-family="Times,serif" font-size="9.00">1</text>
</g>
<!-- &#45;1&#45;&gt;1 -->
<g id="edge38" class="edge">
<title>&#45;1&#45;&gt;1</title>
<path fill="none" stroke="red" stroke-width="0.37" stroke-dasharray="1,5" d="M914.01,-71.73C916.96,-70.66 920.08,-69.54 923,-68.53 968.23,-52.78 1021.28,-35.35 1051.83,-25.41"/>
<polygon fill="red" stroke="red" stroke-width="0.37" points="1053.22,-28.64 1061.65,-22.22 1051.06,-21.98 1053.22,-28.64"/>
</g>
<!-- 2 -->
<g id="node45" class="node">
<title>2</title>
<ellipse fill="lightblue" stroke="black" cx="1249" cy="-16.26" rx="16.03" ry="16.03"/>
<text text-anchor="middle" x="1249" y="-14.06" font-family="Times,serif" font-size="9.00">2</text>
</g>
<!-- &#45;1&#45;&gt;2 -->
<g id="edge49" class="edge">
<title>&#45;1&#45;&gt;2</title>
<path fill="none" stroke="green" stroke-width="0.23" stroke-dasharray="1,5" d="M914.37,-71.2C917.19,-70.21 920.17,-69.26 923,-68.53 1032.48,-40.29 1166.89,-25.13 1222.74,-19.66"/>
<polygon fill="green" stroke="green" stroke-width="0.23" points="1223.21,-23.13 1232.83,-18.69 1222.55,-16.16 1223.21,-23.13"/>
</g>
<!-- &#45;2 -->
<g id="node2" class="node">
<title>&#45;2</title>
<polygon fill="lightgray" stroke="black" points="1090,-86.53 1064,-86.53 1064,-68.53 1090,-68.53 1090,-86.53"/>
<text text-anchor="middle" x="1077" y="-75.33" font-family="Times,serif" font-size="9.00">&#45;2</text>
</g>
<!-- &#45;2&#45;&gt;0 -->
<g id="edge41" class="edge">
<title>&#45;2&#45;&gt;0</title>
<path fill="none" stroke="red" stroke-width="0.29" d="M1063.66,-71.09C1060.84,-70.11 1057.85,-69.19 1055,-68.53 886.73,-29.48 677.95,-20.04 605.34,-17.88"/>
<polygon fill="red" stroke="red" stroke-width="0.29" points="605.35,-14.38 595.26,-17.6 605.16,-21.37 605.35,-14.38"/>
</g>
<!-- &#45;2&#45;&gt;1 -->
<g id="edge42" class="edge">
<title>&#45;2&#45;&gt;1</title>
<path fill="none" stroke="green" stroke-width="0.41" d="M1077,-68.29C1077,-61.7 1077,-52.1 1077,-43"/>
<polygon fill="green" stroke="green" stroke-width="0.41" points="1080.5,-42.76 1077,-32.76 1073.5,-42.76 1080.5,-42.76"/>
</g>
<!-- &#45;2&#45;&gt;2 -->
<g id="edge24" class="edge">
<title>&#45;2&#45;&gt;2</title>
<path fill="none" stroke="red" stroke-width="0.66" stroke-dasharray="1,5" d="M1090.01,-71.75C1092.96,-70.68 1096.09,-69.55 1099,-68.53 1142.88,-53.05 1194.22,-35.66 1224.04,-25.63"/>
<polygon fill="red" stroke="red" stroke-width="0.66" points="1225.27,-28.91 1233.63,-22.4 1223.04,-22.27 1225.27,-28.91"/>
</g>
<!-- &#45;3 -->
<g id="node3" class="node">
<title>&#45;3</title>
<polygon fill="lightgray" stroke="black" points="1828,-86.53 1802,-86.53 1802,-68.53 1828,-68.53 1828,-86.53"/>
<text text-anchor="middle" x="1815" y="-75.33" font-family="Times,serif" font-size="9.00">&#45;3</text>
</g>
<!-- &#45;4 -->
<g id="node4" class="node">
<title>&#45;4</title>
<polygon fill="lightgray" stroke="black" points="958,-86.53 932,-86.53 932,-68.53 958,-68.53 958,-86.53"/>
<text text-anchor="middle" x="945" y="-75.33" font-family="Times,serif" font-size="9.00">&#45;4</text>
</g>
<!-- &#45;4&#45;&gt;0 -->
<g id="edge3" class="edge">
<title>&#45;4&#45;&gt;0</title>
<path fill="none" stroke="red" stroke-width="1.59" d="M931.64,-71.18C928.82,-70.19 925.84,-69.25 923,-68.53 806.71,-39.04 663.71,-24.44 605.51,-19.39"/>
<polygon fill="red" stroke="red" stroke-width="1.59" points="605.61,-15.88 595.35,-18.53 605.02,-22.86 605.61,-15.88"/>
</g>
<!-- &#45;4&#45;&gt;2 -->
<g id="edge14" class="edge">
<title>&#45;4&#45;&gt;2</title>
<path fill="none" stroke="red" stroke-width="0.79" d="M958.38,-71.25C961.2,-70.26 964.18,-69.29 967,-68.53 1059.63,-43.46 1172.73,-27.07 1222.9,-20.51"/>
<polygon fill="red" stroke="red" stroke-width="0.79" points="1223.42,-23.97 1232.89,-19.22 1222.52,-17.03 1223.42,-23.97"/>
</g>
<!-- &#45;5 -->
<g id="node5" class="node">
<title>&#45;5</title>
<polygon fill="lightgray" stroke="black" points="1002,-86.53 976,-86.53 976,-68.53 1002,-68.53 1002,-86.53"/>
<text text-anchor="middle" x="989" y="-75.33" font-family="Times,serif" font-size="9.00">&#45;5</text>
</g>
<!-- &#45;5&#45;&gt;0 -->
<g id="edge31" class="edge">
<title>&#45;5&#45;&gt;0</title>
<path fill="none" stroke="red" stroke-width="0.54" stroke-dasharray="1,5" d="M975.65,-71.15C972.83,-70.16 969.84,-69.22 967,-68.53 833.76,-35.91 669.38,-22.86 605.83,-18.8"/>
<polygon fill="red" stroke="red" stroke-width="0.54" points="605.7,-15.28 595.5,-18.16 605.26,-22.27 605.7,-15.28"/>
</g>
<!-- &#45;5&#45;&gt;2 -->
<g id="edge36" class="edge">
<title>&#45;5&#45;&gt;2</title>
<path fill="none" stroke="green" stroke-width="0.32" d="M1002.4,-71.32C1005.22,-70.32 1008.19,-69.34 1011,-68.53 1086.98,-46.64 1179.01,-29.37 1223.06,-21.65"/>
<polygon fill="green" stroke="green" stroke-width="0.32" points="1223.68,-25.09 1232.94,-19.94 1222.49,-18.2 1223.68,-25.09"/>
</g>
<!-- &#45;6 -->
<g id="node6" class="node">
<title>&#45;6</title>
<polygon fill="lightgray" stroke="black" points="470,-86.53 444,-86.53 444,-68.53 470,-68.53 470,-86.53"/>
<text text-anchor="middle" x="457" y="-75.33" font-family="Times,serif" font-size="9.00">&#45;6</text>
</g>
<!-- &#45;6&#45;&gt;0 -->
<g id="edge39" class="edge">
<title>&#45;6&#45;&gt;0</title>
<path fill="none" stroke="green" stroke-width="0.36" stroke-dasharray="1,5" d="M470.06,-70.18C490.35,-60.33 529.78,-41.17 555.22,-28.82"/>
<polygon fill="green" stroke="green" stroke-width="0.36" points="557.07,-31.81 564.53,-24.29 554.01,-25.51 557.07,-31.81"/>
</g>
<!-- &#45;7 -->
<g id="node7" class="node">
<title>&#45;7</title>
<polygon fill="lightgray" stroke="black" points="26,-86.53 0,-86.53 0,-68.53 26,-68.53 26,-86.53"/>
<text text-anchor="middle" x="13" y="-75.33" font-family="Times,serif" font-size="9.00">&#45;7</text>
</g>
<!-- &#45;7&#45;&gt;0 -->
<g id="edge56" class="edge">
<title>&#45;7&#45;&gt;0</title>
<path fill="none" stroke="red" stroke-width="0.22" d="M26.33,-71.07C29.16,-70.08 32.15,-69.17 35,-68.53 230.34,-24.56 473.38,-18.25 552.67,-17.38"/>
<polygon fill="red" stroke="red" stroke-width="0.22" points="552.78,-20.88 562.74,-17.29 552.71,-13.88 552.78,-20.88"/>
</g>
<!-- &#45;8 -->
<g id="node8" class="node">
<title>&#45;8</title>
<polygon fill="lightgray" stroke="black" points="1046,-86.53 1020,-86.53 1020,-68.53 1046,-68.53 1046,-86.53"/>
<text text-anchor="middle" x="1033" y="-75.33" font-family="Times,serif" font-size="9.00">&#45;8</text>
</g>
<!-- &#45;8&#45;&gt;0 -->
<g id="edge10" class="edge">
<title>&#45;8&#45;&gt;0</title>
<path fill="none" stroke="red" stroke-width="0.97" stroke-dasharray="1,5" d="M1019.65,-71.12C1016.83,-70.13 1013.85,-69.2 1011,-68.53 860.31,-32.7 673.81,-21.37 605.59,-18.29"/>
<polygon fill="red" stroke="red" stroke-width="0.97" points="605.46,-14.78 595.32,-17.85 605.16,-21.77 605.46,-14.78"/>
</g>
<!-- &#45;8&#45;&gt;2 -->
<g id="edge11" class="edge">
<title>&#45;8&#45;&gt;2</title>
<path fill="none" stroke="green" stroke-width="0.18" stroke-dasharray="1,5" d="M1046.43,-71.42C1049.25,-70.42 1052.21,-69.4 1055,-68.53 1114.61,-49.86 1185.88,-32.19 1223.24,-23.28"/>
<polygon fill="green" stroke="green" stroke-width="0.18" points="1224.35,-26.62 1233.27,-20.91 1222.73,-19.81 1224.35,-26.62"/>
</g>
<!-- &#45;9 -->
<g id="node9" class="node">
<title>&#45;9</title>
<polygon fill="lightgray" stroke="black" points="1684,-86.53 1658,-86.53 1658,-68.53 1684,-68.53 1684,-86.53"/>
<text text-anchor="middle" x="1671" y="-75.33" font-family="Times,serif" font-size="9.00">&#45;9</text>
</g>
<!-- &#45;9&#45;&gt;2 -->
<g id="edge15" class="edge">
<title>&#45;9&#45;&gt;2</title>
<path fill="none" stroke="red" stroke-width="0.14" stroke-dasharray="1,5" d="M1657.65,-71.14C1654.83,-70.15 1651.84,-69.22 1649,-68.53 1510.72,-34.96 1339.88,-22.38 1275.34,-18.62"/>
<polygon fill="red" stroke="red" stroke-width="0.14" points="1275.42,-15.12 1265.24,-18.05 1275.03,-22.11 1275.42,-15.12"/>
</g>
<!-- &#45;10 -->
<g id="node10" class="node">
<title>&#45;10</title>
<polygon fill="lightgray" stroke="black" points="76,-86.53 44,-86.53 44,-68.53 76,-68.53 76,-86.53"/>
<text text-anchor="middle" x="60" y="-75.33" font-family="Times,serif" font-size="9.00">&#45;10</text>
</g>
<!-- &#45;10&#45;&gt;0 -->
<g id="edge16" class="edge">
<title>&#45;10&#45;&gt;0</title>
<path fill="none" stroke="green" stroke-width="0.12" d="M76.01,-70.87C78.97,-69.97 82.06,-69.14 85,-68.53 260.79,-31.69 477.58,-20.86 552.26,-18.1"/>
<polygon fill="green" stroke="green" stroke-width="0.12" points="552.74,-21.59 562.61,-17.74 552.49,-14.59 552.74,-21.59"/>
</g>
<!-- &#45;11 -->
<g id="node11" class="node">
<title>&#45;11</title>
<polygon fill="lightgray" stroke="black" points="1878,-86.53 1846,-86.53 1846,-68.53 1878,-68.53 1878,-86.53"/>
<text text-anchor="middle" x="1862" y="-75.33" font-family="Times,serif" font-size="9.00">&#45;11</text>
</g>
<!-- &#45;12 -->
<g id="node12" class="node">
<title>&#45;12</title>
<polygon fill="lightgray" stroke="black" points="1440,-86.53 1408,-86.53 1408,-68.53 1440,-68.53 1440,-86.53"/>
<text text-anchor="middle" x="1424" y="-75.33" font-family="Times,serif" font-size="9.00">&#45;12</text>
</g>
<!-- &#45;12&#45;&gt;1 -->
<g id="edge12" class="edge">
<title>&#45;12&#45;&gt;1</title>
<path fill="none" stroke="red" stroke-width="0.23" d="M1407.96,-71C1405,-70.09 1401.93,-69.22 1399,-68.53 1290.59,-42.71 1158.48,-26.28 1103.25,-20.07"/>
<polygon fill="red" stroke="red" stroke-width="0.23" points="1103.58,-16.59 1093.25,-18.97 1102.81,-23.55 1103.58,-16.59"/>
</g>
<!-- &#45;13 -->
<g id="node13" class="node">
<title>&#45;13</title>
<polygon fill="lightgray" stroke="black" points="1734,-86.53 1702,-86.53 1702,-68.53 1734,-68.53 1734,-86.53"/>
<text text-anchor="middle" x="1718" y="-75.33" font-family="Times,serif" font-size="9.00">&#45;13</text>
</g>
<!-- &#45;13&#45;&gt;2 -->
<g id="edge45" class="edge">
<title>&#45;13&#45;&gt;2</title>
<path fill="none" stroke="green" stroke-width="0.11" stroke-dasharray="1,5" d="M1701.99,-70.9C1699.03,-70 1695.94,-69.16 1693,-68.53 1536.76,-34.84 1344.5,-22.18 1275.33,-18.51"/>
<polygon fill="green" stroke="green" stroke-width="0.11" points="1275.48,-15.02 1265.31,-18 1275.12,-22.01 1275.48,-15.02"/>
</g>
<!-- &#45;14 -->
<g id="node14" class="node">
<title>&#45;14</title>
<polygon fill="lightgray" stroke="black" points="670,-86.53 638,-86.53 638,-68.53 670,-68.53 670,-86.53"/>
<text text-anchor="middle" x="654" y="-75.33" font-family="Times,serif" font-size="9.00">&#45;14</text>
</g>
<!-- &#45;14&#45;&gt;0 -->
<g id="edge20" class="edge">
<title>&#45;14&#45;&gt;0</title>
<path fill="none" stroke="red" stroke-width="0.26" stroke-dasharray="1,5" d="M643.57,-68.29C632.24,-59.33 613.84,-44.8 599.58,-33.52"/>
<polygon fill="red" stroke="red" stroke-width="0.26" points="601.35,-30.46 591.33,-27.01 597.01,-35.95 601.35,-30.46"/>
</g>
<!-- &#45;14&#45;&gt;1 -->
<g id="edge4" class="edge">
<title>&#45;14&#45;&gt;1</title>
<path fill="none" stroke="red" stroke-width="0.14" stroke-dasharray="1,5" d="M670.02,-70.93C672.98,-70.03 676.06,-69.18 679,-68.53 816.89,-37.85 986.04,-23.61 1050.42,-19.01"/>
<polygon fill="red" stroke="red" stroke-width="0.14" points="1050.78,-22.5 1060.51,-18.31 1050.29,-15.51 1050.78,-22.5"/>
</g>
<!-- &#45;15 -->
<g id="node15" class="node">
<title>&#45;15</title>
<polygon fill="lightgray" stroke="black" points="1490,-86.53 1458,-86.53 1458,-68.53 1490,-68.53 1490,-86.53"/>
<text text-anchor="middle" x="1474" y="-75.33" font-family="Times,serif" font-size="9.00">&#45;15</text>
</g>
<!-- &#45;15&#45;&gt;1 -->
<g id="edge32" class="edge">
<title>&#45;15&#45;&gt;1</title>
<path fill="none" stroke="green" stroke-width="1.06" d="M1457.98,-70.95C1455.02,-70.05 1451.93,-69.19 1449,-68.53 1382.63,-53.45 1177.09,-28.87 1103.52,-20.31"/>
<polygon fill="green" stroke="green" stroke-width="1.06" points="1103.61,-16.8 1093.28,-19.13 1102.81,-23.75 1103.61,-16.8"/>
</g>
<!-- &#45;15&#45;&gt;2 -->
<g id="edge7" class="edge">
<title>&#45;15&#45;&gt;2</title>
<path fill="none" stroke="red" stroke-width="0.41" d="M1457.9,-71.22C1454.95,-70.29 1451.89,-69.36 1449,-68.53 1386.66,-50.58 1312.5,-32.39 1274.4,-23.27"/>
<polygon fill="red" stroke="red" stroke-width="0.41" points="1275.18,-19.86 1264.64,-20.94 1273.56,-26.66 1275.18,-19.86"/>
</g>
<!-- &#45;16 -->
<g id="node16" class="node">
<title>&#45;16</title>
<polygon fill="lightgray" stroke="black" points="1140,-86.53 1108,-86.53 1108,-68.53 1140,-68.53 1140,-86.53"/>
<text text-anchor="middle" x="1124" y="-75.33" font-family="Times,serif" font-size="9.00">&#45;16</text>
</g>
<!-- &#45;16&#45;&gt;0 -->
<g id="edge43" class="edge">
<title>&#45;16&#45;&gt;0</title>
<path fill="none" stroke="red" stroke-width="0.86" stroke-dasharray="1,5" d="M1108,-70.85C1105.03,-69.96 1101.95,-69.14 1099,-68.53 912.72,-29.99 682.73,-20.19 605.61,-17.91"/>
<polygon fill="red" stroke="red" stroke-width="0.86" points="605.46,-14.4 595.36,-17.62 605.26,-21.4 605.46,-14.4"/>
</g>
<!-- &#45;16&#45;&gt;1 -->
<g id="edge57" class="edge">
<title>&#45;16&#45;&gt;1</title>
<path fill="none" stroke="green" stroke-width="0.91" d="M1117.46,-68.29C1111.18,-60.36 1101.42,-48.05 1093.06,-37.51"/>
<polygon fill="green" stroke="green" stroke-width="0.91" points="1095.7,-35.21 1086.75,-29.55 1090.22,-39.56 1095.7,-35.21"/>
</g>
<!-- &#45;16&#45;&gt;2 -->
<g id="edge40" class="edge">
<title>&#45;16&#45;&gt;2</title>
<path fill="none" stroke="green" stroke-width="0.15" d="M1140.09,-68.9C1161.74,-58.63 1200.42,-40.29 1225.38,-28.46"/>
<polygon fill="green" stroke="green" stroke-width="0.15" points="1226.99,-31.57 1234.53,-24.13 1223.99,-25.25 1226.99,-31.57"/>
</g>
<!-- &#45;17 -->
<g id="node17" class="node">
<title>&#45;17</title>
<polygon fill="lightgray" stroke="black" points="1240,-86.53 1208,-86.53 1208,-68.53 1240,-68.53 1240,-86.53"/>
<text text-anchor="middle" x="1224" y="-75.33" font-family="Times,serif" font-size="9.00">&#45;17</text>
</g>
<!-- &#45;17&#45;&gt;0 -->
<g id="edge37" class="edge">
<title>&#45;17&#45;&gt;0</title>
<path fill="none" stroke="red" stroke-width="0.64" d="M1207.73,-70.74C1204.85,-69.88 1201.86,-69.1 1199,-68.53 972.68,-23.57 692.32,-17.95 605.72,-17.32"/>
<polygon fill="red" stroke="red" stroke-width="0.64" points="605.49,-13.82 595.47,-17.26 605.46,-20.82 605.49,-13.82"/>
</g>
<!-- &#45;17&#45;&gt;1 -->
<g id="edge59" class="edge">
<title>&#45;17&#45;&gt;1</title>
<path fill="none" stroke="green" stroke-width="0.49" d="M1207.99,-70.07C1182.32,-59.72 1131.77,-39.34 1101.52,-27.15"/>
<polygon fill="green" stroke="green" stroke-width="0.49" points="1102.69,-23.85 1092.11,-23.35 1100.08,-30.34 1102.69,-23.85"/>
</g>
<!-- &#45;17&#45;&gt;2 -->
<g id="edge27" class="edge">
<title>&#45;17&#45;&gt;2</title>
<path fill="none" stroke="green" stroke-width="0.12" d="M1227.48,-68.29C1230.45,-61.23 1234.9,-50.7 1238.97,-41.03"/>
<polygon fill="green" stroke="green" stroke-width="0.12" points="1242.2,-42.39 1242.86,-31.82 1235.75,-39.67 1242.2,-42.39"/>
</g>
<!-- &#45;18 -->
<g id="node18" class="node">
<title>&#45;18</title>
<polygon fill="lightgray" stroke="black" points="1190,-86.53 1158,-86.53 1158,-68.53 1190,-68.53 1190,-86.53"/>
<text text-anchor="middle" x="1174" y="-75.33" font-family="Times,serif" font-size="9.00">&#45;18</text>
</g>
<!-- &#45;18&#45;&gt;0 -->
<g id="edge53" class="edge">
<title>&#45;18&#45;&gt;0</title>
<path fill="none" stroke="green" stroke-width="0.24" stroke-dasharray="1,5" d="M1158,-70.83C1155.04,-69.94 1151.95,-69.12 1149,-68.53 942.78,-26.79 687.69,-19.02 605.7,-17.59"/>
<polygon fill="green" stroke="green" stroke-width="0.24" points="605.57,-14.09 595.51,-17.43 605.46,-21.08 605.57,-14.09"/>
</g>
<!-- &#45;18&#45;&gt;2 -->
<g id="edge47" class="edge">
<title>&#45;18&#45;&gt;2</title>
<path fill="none" stroke="red" stroke-width="0.15" d="M1184.43,-68.29C1195.76,-59.33 1214.16,-44.8 1228.42,-33.52"/>
<polygon fill="red" stroke="red" stroke-width="0.15" points="1230.99,-35.95 1236.67,-27.01 1226.65,-30.46 1230.99,-35.95"/>
</g>
<!-- &#45;19 -->
<g id="node19" class="node">
<title>&#45;19</title>
<polygon fill="lightgray" stroke="black" points="770,-86.53 738,-86.53 738,-68.53 770,-68.53 770,-86.53"/>
<text text-anchor="middle" x="754" y="-75.33" font-family="Times,serif" font-size="9.00">&#45;19</text>
</g>
<!-- &#45;19&#45;&gt;1 -->
<g id="edge26" class="edge">
<title>&#45;19&#45;&gt;1</title>
<path fill="none" stroke="red" stroke-width="0.6" stroke-dasharray="1,5" d="M770.04,-71.03C773,-70.12 776.08,-69.24 779,-68.53 878.02,-44.29 998.28,-27.33 1050.59,-20.55"/>
<polygon fill="red" stroke="red" stroke-width="0.6" points="1051.21,-24 1060.69,-19.26 1050.32,-17.05 1051.21,-24"/>
</g>
<!-- &#45;20 -->
<g id="node20" class="node">
<title>&#45;20</title>
<polygon fill="lightgray" stroke="black" points="720,-86.53 688,-86.53 688,-68.53 720,-68.53 720,-86.53"/>
<text text-anchor="middle" x="704" y="-75.33" font-family="Times,serif" font-size="9.00">&#45;20</text>
</g>
<!-- &#45;20&#45;&gt;0 -->
<g id="edge54" class="edge">
<title>&#45;20&#45;&gt;0</title>
<path fill="none" stroke="green" stroke-width="0.44" d="M687.91,-68.9C666.26,-58.63 627.58,-40.29 602.62,-28.46"/>
<polygon fill="green" stroke="green" stroke-width="0.44" points="604.01,-25.25 593.47,-24.13 601.01,-31.57 604.01,-25.25"/>
</g>
<!-- &#45;20&#45;&gt;1 -->
<g id="edge51" class="edge">
<title>&#45;20&#45;&gt;1</title>
<path fill="none" stroke="red" stroke-width="0.47" d="M720.03,-70.97C722.99,-70.07 726.07,-69.21 729,-68.53 847.48,-41.04 992.24,-25.29 1050.68,-19.66"/>
<polygon fill="red" stroke="red" stroke-width="0.47" points="1051.24,-23.12 1060.87,-18.69 1050.58,-16.15 1051.24,-23.12"/>
</g>
<!-- &#45;21 -->
<g id="node21" class="node">
<title>&#45;21</title>
<polygon fill="lightgray" stroke="black" points="820,-86.53 788,-86.53 788,-68.53 820,-68.53 820,-86.53"/>
<text text-anchor="middle" x="804" y="-75.33" font-family="Times,serif" font-size="9.00">&#45;21</text>
</g>
<!-- &#45;21&#45;&gt;1 -->
<g id="edge25" class="edge">
<title>&#45;21&#45;&gt;1</title>
<path fill="none" stroke="red" stroke-width="0.15" d="M820.06,-71.11C823.02,-70.19 826.09,-69.29 829,-68.53 909.11,-47.49 1005.63,-29.65 1051.01,-21.7"/>
<polygon fill="red" stroke="red" stroke-width="0.15" points="1051.65,-25.14 1060.91,-19.98 1050.45,-18.24 1051.65,-25.14"/>
</g>
<!-- &#45;22 -->
<g id="node22" class="node">
<title>&#45;22</title>
<polygon fill="lightgray" stroke="black" points="870,-86.53 838,-86.53 838,-68.53 870,-68.53 870,-86.53"/>
<text text-anchor="middle" x="854" y="-75.33" font-family="Times,serif" font-size="9.00">&#45;22</text>
</g>
<!-- &#45;22&#45;&gt;1 -->
<g id="edge1" class="edge">
<title>&#45;22&#45;&gt;1</title>
<path fill="none" stroke="green" stroke-width="0.2" d="M870.1,-71.23C873.05,-70.3 876.11,-69.36 879,-68.53 940.32,-50.79 1013.15,-32.69 1051.09,-23.48"/>
<polygon fill="green" stroke="green" stroke-width="0.2" points="1052.36,-26.77 1061.26,-21.02 1050.72,-19.97 1052.36,-26.77"/>
</g>
<!-- &#45;23 -->
<g id="node23" class="node">
<title>&#45;23</title>
<polygon fill="lightgray" stroke="black" points="1928,-86.53 1896,-86.53 1896,-68.53 1928,-68.53 1928,-86.53"/>
<text text-anchor="middle" x="1912" y="-75.33" font-family="Times,serif" font-size="9.00">&#45;23</text>
</g>
<!-- &#45;24 -->
<g id="node24" class="node">
<title>&#45;24</title>
<polygon fill="lightgray" stroke="black" points="126,-86.53 94,-86.53 94,-68.53 126,-68.53 126,-86.53"/>
<text text-anchor="middle" x="110" y="-75.33" font-family="Times,serif" font-size="9.00">&#45;24</text>
</g>
<!-- &#45;24&#45;&gt;0 -->
<g id="edge22" class="edge">
<title>&#45;24&#45;&gt;0</title>
<path fill="none" stroke="red" stroke-width="0.19" stroke-dasharray="1,5" d="M126.01,-70.9C128.97,-70 132.06,-69.16 135,-68.53 291.24,-34.84 483.5,-22.18 552.67,-18.51"/>
<polygon fill="red" stroke="red" stroke-width="0.19" points="552.88,-22.01 562.69,-18 552.52,-15.02 552.88,-22.01"/>
</g>
<!-- &#45;25 -->
<g id="node25" class="node">
<title>&#45;25</title>
<polygon fill="lightgray" stroke="black" points="520,-86.53 488,-86.53 488,-68.53 520,-68.53 520,-86.53"/>
<text text-anchor="middle" x="504" y="-75.33" font-family="Times,serif" font-size="9.00">&#45;25</text>
</g>
<!-- &#45;25&#45;&gt;0 -->
<g id="edge6" class="edge">
<title>&#45;25&#45;&gt;0</title>
<path fill="none" stroke="green" stroke-width="0.13" d="M514.43,-68.29C525.76,-59.33 544.16,-44.8 558.42,-33.52"/>
<polygon fill="green" stroke="green" stroke-width="0.13" points="560.99,-35.95 566.67,-27.01 556.65,-30.46 560.99,-35.95"/>
</g>
<!-- &#45;25&#45;&gt;1 -->
<g id="edge2" class="edge">
<title>&#45;25&#45;&gt;1</title>
<path fill="none" stroke="green" stroke-width="0.12" stroke-dasharray="1,5" d="M520,-70.84C522.96,-69.95 526.05,-69.13 529,-68.53 726.61,-28.16 970.89,-19.51 1050.55,-17.72"/>
<polygon fill="green" stroke="green" stroke-width="0.12" points="1050.75,-21.21 1060.67,-17.51 1050.6,-14.21 1050.75,-21.21"/>
</g>
<!-- &#45;26 -->
<g id="node26" class="node">
<title>&#45;26</title>
<polygon fill="lightgray" stroke="black" points="570,-86.53 538,-86.53 538,-68.53 570,-68.53 570,-86.53"/>
<text text-anchor="middle" x="554" y="-75.33" font-family="Times,serif" font-size="9.00">&#45;26</text>
</g>
<!-- &#45;26&#45;&gt;0 -->
<g id="edge33" class="edge">
<title>&#45;26&#45;&gt;0</title>
<path fill="none" stroke="red" stroke-width="0.77" stroke-dasharray="1,5" d="M557.48,-68.29C560.45,-61.23 564.9,-50.7 568.97,-41.03"/>
<polygon fill="red" stroke="red" stroke-width="0.77" points="572.2,-42.39 572.86,-31.82 565.75,-39.67 572.2,-42.39"/>
</g>
<!-- &#45;26&#45;&gt;1 -->
<g id="edge5" class="edge">
<title>&#45;26&#45;&gt;1</title>
<path fill="none" stroke="green" stroke-width="1.05" d="M570.01,-70.87C572.97,-69.97 576.06,-69.14 579,-68.53 756.22,-31.47 974.76,-20.78 1050.04,-18.08"/>
<polygon fill="green" stroke="green" stroke-width="1.05" points="1050.6,-21.56 1060.47,-17.72 1050.36,-14.57 1050.6,-21.56"/>
</g>
<!-- &#45;27 -->
<g id="node27" class="node">
<title>&#45;27</title>
<polygon fill="lightgray" stroke="black" points="1290,-86.53 1258,-86.53 1258,-68.53 1290,-68.53 1290,-86.53"/>
<text text-anchor="middle" x="1274" y="-75.33" font-family="Times,serif" font-size="9.00">&#45;27</text>
</g>
<!-- &#45;27&#45;&gt;0 -->
<g id="edge55" class="edge">
<title>&#45;27&#45;&gt;0</title>
<path fill="none" stroke="green" stroke-width="0.13" stroke-dasharray="1,5" d="M1257.74,-70.72C1254.86,-69.87 1251.86,-69.09 1249,-68.53 1002.26,-20.3 696.12,-16.94 605.46,-17.09"/>
<polygon fill="green" stroke="green" stroke-width="0.13" points="605.25,-13.59 595.26,-17.12 605.27,-20.59 605.25,-13.59"/>
</g>
<!-- &#45;27&#45;&gt;1 -->
<g id="edge58" class="edge">
<title>&#45;27&#45;&gt;1</title>
<path fill="none" stroke="green" stroke-width="0.23" d="M1257.88,-71.32C1254.93,-70.38 1251.87,-69.41 1249,-68.53 1197.15,-52.51 1136.25,-34.56 1102.6,-24.72"/>
<polygon fill="green" stroke="green" stroke-width="0.23" points="1103.26,-21.27 1092.68,-21.82 1101.3,-27.99 1103.26,-21.27"/>
</g>
<!-- &#45;27&#45;&gt;2 -->
<g id="edge18" class="edge">
<title>&#45;27&#45;&gt;2</title>
<path fill="none" stroke="red" stroke-width="0.1" d="M1270.52,-68.29C1267.55,-61.23 1263.1,-50.7 1259.03,-41.03"/>
<polygon fill="red" stroke="red" stroke-width="0.1" points="1262.25,-39.67 1255.14,-31.82 1255.8,-42.39 1262.25,-39.67"/>
</g>
<!-- &#45;28 -->
<g id="node28" class="node">
<title>&#45;28</title>
<polygon fill="lightgray" stroke="black" points="1784,-86.53 1752,-86.53 1752,-68.53 1784,-68.53 1784,-86.53"/>
<text text-anchor="middle" x="1768" y="-75.33" font-family="Times,serif" font-size="9.00">&#45;28</text>
</g>
<!-- &#45;28&#45;&gt;2 -->
<g id="edge9" class="edge">
<title>&#45;28&#45;&gt;2</title>
<path fill="none" stroke="green" stroke-width="0.15" stroke-dasharray="1,5" d="M1751.99,-70.87C1749.03,-69.97 1745.94,-69.14 1743,-68.53 1567.21,-31.69 1350.42,-20.86 1275.74,-18.1"/>
<polygon fill="green" stroke="green" stroke-width="0.15" points="1275.51,-14.59 1265.39,-17.74 1275.26,-21.59 1275.51,-14.59"/>
</g>
<!-- &#45;29 -->
<g id="node29" class="node">
<title>&#45;29</title>
<polygon fill="lightgray" stroke="black" points="1978,-86.53 1946,-86.53 1946,-68.53 1978,-68.53 1978,-86.53"/>
<text text-anchor="middle" x="1962" y="-75.33" font-family="Times,serif" font-size="9.00">&#45;29</text>
</g>
<!-- &#45;30 -->
<g id="node30" class="node">
<title>&#45;30</title>
<polygon fill="lightgray" stroke="black" points="176,-86.53 144,-86.53 144,-68.53 176,-68.53 176,-86.53"/>
<text text-anchor="middle" x="160" y="-75.33" font-family="Times,serif" font-size="9.00">&#45;30</text>
</g>
<!-- &#45;30&#45;&gt;0 -->
<g id="edge52" class="edge">
<title>&#45;30&#45;&gt;0</title>
<path fill="none" stroke="green" stroke-width="0.9" d="M176.02,-70.93C178.98,-70.03 182.06,-69.18 185,-68.53 321.51,-38.07 488.95,-23.7 552.69,-19.04"/>
<polygon fill="green" stroke="green" stroke-width="0.9" points="552.95,-22.53 562.68,-18.33 552.46,-15.55 552.95,-22.53"/>
</g>
<!-- &#45;31 -->
<g id="node31" class="node">
<title>&#45;31</title>
<polygon fill="lightgray" stroke="black" points="1640,-86.53 1608,-86.53 1608,-68.53 1640,-68.53 1640,-86.53"/>
<text text-anchor="middle" x="1624" y="-75.33" font-family="Times,serif" font-size="9.00">&#45;31</text>
</g>
<!-- &#45;31&#45;&gt;2 -->
<g id="edge35" class="edge">
<title>&#45;31&#45;&gt;2</title>
<path fill="none" stroke="green" stroke-width="0.71" stroke-dasharray="1,5" d="M1607.97,-70.97C1605.01,-70.07 1601.93,-69.21 1599,-68.53 1479.84,-40.93 1334.25,-25.25 1275.47,-19.64"/>
<polygon fill="green" stroke="green" stroke-width="0.71" points="1275.51,-16.13 1265.22,-18.68 1274.85,-23.1 1275.51,-16.13"/>
</g>
<!-- &#45;32 -->
<g id="node32" class="node">
<title>&#45;32</title>
<polygon fill="lightgray" stroke="black" points="226,-86.53 194,-86.53 194,-68.53 226,-68.53 226,-86.53"/>
<text text-anchor="middle" x="210" y="-75.33" font-family="Times,serif" font-size="9.00">&#45;32</text>
</g>
<!-- &#45;32&#45;&gt;0 -->
<g id="edge44" class="edge">
<title>&#45;32&#45;&gt;0</title>
<path fill="none" stroke="green" stroke-width="0.3" d="M226.03,-70.98C228.99,-70.07 232.07,-69.21 235,-68.53 351.85,-41.31 494.54,-25.46 552.57,-19.73"/>
<polygon fill="green" stroke="green" stroke-width="0.3" points="553.09,-23.19 562.71,-18.75 552.41,-16.23 553.09,-23.19"/>
</g>
<!-- &#45;33 -->
<g id="node33" class="node">
<title>&#45;33</title>
<polygon fill="lightgray" stroke="black" points="276,-86.53 244,-86.53 244,-68.53 276,-68.53 276,-86.53"/>
<text text-anchor="middle" x="260" y="-75.33" font-family="Times,serif" font-size="9.00">&#45;33</text>
</g>
<!-- &#45;33&#45;&gt;0 -->
<g id="edge48" class="edge">
<title>&#45;33&#45;&gt;0</title>
<path fill="none" stroke="green" stroke-width="0.68" d="M276.05,-71.04C279,-70.12 282.08,-69.25 285,-68.53 382.7,-44.5 501.35,-27.43 552.94,-20.58"/>
<polygon fill="green" stroke="green" stroke-width="0.68" points="553.44,-24.05 562.91,-19.28 552.54,-17.11 553.44,-24.05"/>
</g>
<!-- &#45;34 -->
<g id="node34" class="node">
<title>&#45;34</title>
<polygon fill="lightgray" stroke="black" points="1340,-86.53 1308,-86.53 1308,-68.53 1340,-68.53 1340,-86.53"/>
<text text-anchor="middle" x="1324" y="-75.33" font-family="Times,serif" font-size="9.00">&#45;34</text>
</g>
<!-- &#45;34&#45;&gt;1 -->
<g id="edge13" class="edge">
<title>&#45;34&#45;&gt;1</title>
<path fill="none" stroke="green" stroke-width="0.29" d="M1307.92,-71.17C1304.97,-70.24 1301.9,-69.32 1299,-68.53 1228.48,-49.14 1144.01,-31.01 1102.54,-22.44"/>
<polygon fill="green" stroke="green" stroke-width="0.29" points="1103.22,-19.01 1092.72,-20.43 1101.81,-25.87 1103.22,-19.01"/>
</g>
<!-- &#45;35 -->
<g id="node35" class="node">
<title>&#45;35</title>
<polygon fill="lightgray" stroke="black" points="2028,-86.53 1996,-86.53 1996,-68.53 2028,-68.53 2028,-86.53"/>
<text text-anchor="middle" x="2012" y="-75.33" font-family="Times,serif" font-size="9.00">&#45;35</text>
</g>
<!-- &#45;36 -->
<g id="node36" class="node">
<title>&#45;36</title>
<polygon fill="lightgray" stroke="black" points="326,-86.53 294,-86.53 294,-68.53 326,-68.53 326,-86.53"/>
<text text-anchor="middle" x="310" y="-75.33" font-family="Times,serif" font-size="9.00">&#45;36</text>
</g>
<!-- &#45;36&#45;&gt;0 -->
<g id="edge34" class="edge">
<title>&#45;36&#45;&gt;0</title>
<path fill="none" stroke="green" stroke-width="0.23" d="M326.07,-71.12C329.02,-70.2 332.09,-69.3 335,-68.53 413.68,-47.73 508.39,-29.83 553.15,-21.79"/>
<polygon fill="green" stroke="green" stroke-width="0.23" points="553.94,-25.21 563.17,-20.01 552.71,-18.32 553.94,-25.21"/>
</g>
<!-- &#45;37 -->
<g id="node37" class="node">
<title>&#45;37</title>
<polygon fill="lightgray" stroke="black" points="376,-86.53 344,-86.53 344,-68.53 376,-68.53 376,-86.53"/>
<text text-anchor="middle" x="360" y="-75.33" font-family="Times,serif" font-size="9.00">&#45;37</text>
</g>
<!-- &#45;37&#45;&gt;0 -->
<g id="edge8" class="edge">
<title>&#45;37&#45;&gt;0</title>
<path fill="none" stroke="red" stroke-width="2.75" stroke-dasharray="1,5" d="M376.1,-71.24C379.05,-70.31 382.11,-69.37 385,-68.53 444.96,-51.02 516.1,-32.89 553.34,-23.6"/>
<polygon fill="red" stroke="red" stroke-width="2.75" points="554.47,-26.92 563.33,-21.11 552.78,-20.13 554.47,-26.92"/>
</g>
<!-- &#45;38 -->
<g id="node38" class="node">
<title>&#45;38</title>
<polygon fill="lightgray" stroke="black" points="1540,-86.53 1508,-86.53 1508,-68.53 1540,-68.53 1540,-86.53"/>
<text text-anchor="middle" x="1524" y="-75.33" font-family="Times,serif" font-size="9.00">&#45;38</text>
</g>
<!-- &#45;38&#45;&gt;1 -->
<g id="edge19" class="edge">
<title>&#45;38&#45;&gt;1</title>
<path fill="none" stroke="green" stroke-width="0.65" stroke-dasharray="1,5" d="M1507.98,-70.91C1505.02,-70.01 1501.94,-69.17 1499,-68.53 1460.28,-60.06 1189.41,-29.71 1103.25,-20.16"/>
<polygon fill="green" stroke="green" stroke-width="0.65" points="1103.56,-16.67 1093.24,-19.05 1102.79,-23.63 1103.56,-16.67"/>
</g>
<!-- &#45;38&#45;&gt;2 -->
<g id="edge46" class="edge">
<title>&#45;38&#45;&gt;2</title>
<path fill="none" stroke="red" stroke-width="0.14" d="M1507.94,-71.11C1504.98,-70.19 1501.91,-69.29 1499,-68.53 1418.05,-47.34 1320.48,-29.51 1274.86,-21.62"/>
<polygon fill="red" stroke="red" stroke-width="0.14" points="1275.38,-18.16 1264.93,-19.92 1274.2,-25.06 1275.38,-18.16"/>
</g>
<!-- &#45;39 -->
<g id="node39" class="node">
<title>&#45;39</title>
<polygon fill="lightgray" stroke="black" points="1390,-86.53 1358,-86.53 1358,-68.53 1390,-68.53 1390,-86.53"/>
<text text-anchor="middle" x="1374" y="-75.33" font-family="Times,serif" font-size="9.00">&#45;39</text>
</g>
<!-- &#45;39&#45;&gt;1 -->
<g id="edge28" class="edge">
<title>&#45;39&#45;&gt;1</title>
<path fill="none" stroke="green" stroke-width="1.51" stroke-dasharray="1,5" d="M1357.95,-71.07C1354.99,-70.15 1351.92,-69.27 1349,-68.53 1259.79,-45.94 1151.83,-28.46 1103.1,-21.08"/>
<polygon fill="green" stroke="green" stroke-width="1.51" points="1103.5,-17.6 1093.09,-19.59 1102.46,-24.53 1103.5,-17.6"/>
</g>
<!-- &#45;40 -->
<g id="node40" class="node">
<title>&#45;40</title>
<polygon fill="lightgray" stroke="black" points="426,-86.53 394,-86.53 394,-68.53 426,-68.53 426,-86.53"/>
<text text-anchor="middle" x="410" y="-75.33" font-family="Times,serif" font-size="9.00">&#45;40</text>
</g>
<!-- &#45;40&#45;&gt;0 -->
<g id="edge17" class="edge">
<title>&#45;40&#45;&gt;0</title>
<path fill="none" stroke="green" stroke-width="0.11" stroke-dasharray="1,5" d="M426.2,-70.84C455.83,-60.46 518.91,-38.33 554.05,-26.01"/>
<polygon fill="green" stroke="green" stroke-width="0.11" points="555.3,-29.28 563.58,-22.67 552.99,-22.68 555.3,-29.28"/>
</g>
<!-- &#45;41 -->
<g id="node41" class="node">
<title>&#45;41</title>
<polygon fill="lightgray" stroke="black" points="620,-86.53 588,-86.53 588,-68.53 620,-68.53 620,-86.53"/>
<text text-anchor="middle" x="604" y="-75.33" font-family="Times,serif" font-size="9.00">&#45;41</text>
</g>
<!-- &#45;41&#45;&gt;0 -->
<g id="edge21" class="edge">
<title>&#45;41&#45;&gt;0</title>
<path fill="none" stroke="green" stroke-width="0.63" d="M600.52,-68.29C597.55,-61.23 593.1,-50.7 589.03,-41.03"/>
<polygon fill="green" stroke="green" stroke-width="0.63" points="592.25,-39.67 585.14,-31.82 585.8,-42.39 592.25,-39.67"/>
</g>
<!-- &#45;41&#45;&gt;1 -->
<g id="edge50" class="edge">
<title>&#45;41&#45;&gt;1</title>
<path fill="none" stroke="red" stroke-width="0.53" stroke-dasharray="1,5" d="M620.01,-70.89C622.97,-70 626.06,-69.16 629,-68.53 786.65,-34.63 980.64,-22.09 1050.43,-18.49"/>
<polygon fill="red" stroke="red" stroke-width="0.53" points="1050.73,-21.98 1060.54,-17.98 1050.38,-14.99 1050.73,-21.98"/>
</g>
<!-- &#45;42 -->
<g id="node42" class="node">
<title>&#45;42</title>
<polygon fill="lightgray" stroke="black" points="1590,-86.53 1558,-86.53 1558,-68.53 1590,-68.53 1590,-86.53"/>
<text text-anchor="middle" x="1574" y="-75.33" font-family="Times,serif" font-size="9.00">&#45;42</text>
</g>
<!-- &#45;42&#45;&gt;1 -->
<g id="edge23" class="edge">
<title>&#45;42&#45;&gt;1</title>
<path fill="none" stroke="red" stroke-width="0.2" stroke-dasharray="1,5" d="M1557.99,-70.88C1555.03,-69.98 1551.94,-69.15 1549,-68.53 1537.97,-66.19 1200.95,-30.39 1103.28,-20.05"/>
<polygon fill="red" stroke="red" stroke-width="0.2" points="1103.4,-16.54 1093.09,-18.97 1102.66,-23.5 1103.4,-16.54"/>
</g>
<!-- &#45;42&#45;&gt;2 -->
<g id="edge29" class="edge">
<title>&#45;42&#45;&gt;2</title>
<path fill="none" stroke="red" stroke-width="0.49" stroke-dasharray="1,5" d="M1557.96,-71.03C1555,-70.12 1551.92,-69.24 1549,-68.53 1449.08,-44.13 1327.67,-27.2 1275.21,-20.48"/>
<polygon fill="red" stroke="red" stroke-width="0.49" points="1275.46,-16.98 1265.1,-19.2 1274.58,-23.93 1275.46,-16.98"/>
</g>
</g>
</svg>
