<?xml version="1.0" encoding="UTF-8" standalone="no"?>
<!DOCTYPE svg PUBLIC "-//W3C//DTD SVG 1.1//EN"
 "http://www.w3.org/Graphics/SVG/1.1/DTD/svg11.dtd">
<!-- Generated by graphviz version 2.43.0 (0)
 -->
<!-- Title: %3 Pages: 1 -->
<svg width="2036pt" height="95pt"
 viewBox="0.00 0.00 2036.00 94.53" xmlns="http://www.w3.org/2000/svg" xmlns:xlink="http://www.w3.org/1999/xlink">
<g id="graph0" class="graph" transform="scale(1 1) rotate(0) translate(4 90.53)">
<title>%3</title>
<polygon fill="white" stroke="transparent" points="-4,4 -4,-90.53 2032,-90.53 2032,4 -4,4"/>
<!-- &#45;1 -->
<g id="node1" class="node">
<title>&#45;1</title>
<polygon fill="lightgray" stroke="black" points="226,-86.53 200,-86.53 200,-68.53 226,-68.53 226,-86.53"/>
<text text-anchor="middle" x="213" y="-75.33" font-family="Times,serif" font-size="9.00">&#45;1</text>
</g>
<!-- 2 -->
<g id="node45" class="node">
<title>2</title>
<ellipse fill="lightblue" stroke="black" cx="498" cy="-16.26" rx="16.03" ry="16.03"/>
<text text-anchor="middle" x="498" y="-14.06" font-family="Times,serif" font-size="9.00">2</text>
</g>
<!-- &#45;1&#45;&gt;2 -->
<g id="edge37" class="edge">
<title>&#45;1&#45;&gt;2</title>
<path fill="none" stroke="green" stroke-width="0.22" d="M226.39,-71.28C229.21,-70.28 232.18,-69.31 235,-68.53 320.25,-44.87 423.99,-28.07 471.69,-21"/>
<polygon fill="green" stroke="green" stroke-width="0.22" points="472.4,-24.43 481.79,-19.52 471.39,-17.5 472.4,-24.43"/>
</g>
<!-- &#45;2 -->
<g id="node2" class="node">
<title>&#45;2</title>
<polygon fill="lightgray" stroke="black" points="1208,-86.53 1182,-86.53 1182,-68.53 1208,-68.53 1208,-86.53"/>
<text text-anchor="middle" x="1195" y="-75.33" font-family="Times,serif" font-size="9.00">&#45;2</text>
</g>
<!-- 0 -->
<g id="node43" class="node">
<title>0</title>
<ellipse fill="lightblue" stroke="black" cx="998" cy="-16.26" rx="16.03" ry="16.03"/>
<text text-anchor="middle" x="998" y="-14.06" font-family="Times,serif" font-size="9.00">0</text>
</g>
<!-- &#45;2&#45;&gt;0 -->
<g id="edge17" class="edge">
<title>&#45;2&#45;&gt;0</title>
<path fill="none" stroke="green" stroke-width="0.36" d="M1181.55,-71.48C1178.74,-70.47 1175.78,-69.44 1173,-68.53 1120.34,-51.26 1057.87,-33.64 1023.63,-24.22"/>
<polygon fill="green" stroke="green" stroke-width="0.36" points="1024.12,-20.72 1013.55,-21.46 1022.27,-27.48 1024.12,-20.72"/>
</g>
<!-- 1 -->
<g id="node44" class="node">
<title>1</title>
<ellipse fill="lightblue" stroke="black" cx="1286" cy="-16.26" rx="16.03" ry="16.03"/>
<text text-anchor="middle" x="1286" y="-14.06" font-family="Times,serif" font-size="9.00">1</text>
</g>
<!-- &#45;2&#45;&gt;1 -->
<g id="edge41" class="edge">
<title>&#45;2&#45;&gt;1</title>
<path fill="none" stroke="green" stroke-width="0.12" d="M1207.65,-68.29C1222.21,-58.81 1246.37,-43.07 1264.02,-31.58"/>
<polygon fill="green" stroke="green" stroke-width="0.12" points="1266.1,-34.4 1272.57,-26.01 1262.28,-28.54 1266.1,-34.4"/>
</g>
<!-- &#45;2&#45;&gt;2 -->
<g id="edge33" class="edge">
<title>&#45;2&#45;&gt;2</title>
<path fill="none" stroke="red" stroke-width="0.43" d="M1181.68,-71.02C1178.85,-70.05 1175.86,-69.14 1173,-68.53 925.15,-15.11 615.68,-15.32 524.45,-16.7"/>
<polygon fill="red" stroke="red" stroke-width="0.43" points="524.37,-13.21 514.43,-16.88 524.49,-20.2 524.37,-13.21"/>
</g>
<!-- &#45;3 -->
<g id="node3" class="node">
<title>&#45;3</title>
<polygon fill="lightgray" stroke="black" points="414,-86.53 388,-86.53 388,-68.53 414,-68.53 414,-86.53"/>
<text text-anchor="middle" x="401" y="-75.33" font-family="Times,serif" font-size="9.00">&#45;3</text>
</g>
<!-- &#45;3&#45;&gt;0 -->
<g id="edge27" class="edge">
<title>&#45;3&#45;&gt;0</title>
<path fill="none" stroke="green" stroke-width="0.42" d="M414.33,-71.05C417.15,-70.07 420.14,-69.16 423,-68.53 630.64,-22.35 889.22,-17.5 971.55,-17.2"/>
<polygon fill="green" stroke="green" stroke-width="0.42" points="971.77,-20.7 981.76,-17.18 971.75,-13.7 971.77,-20.7"/>
</g>
<!-- &#45;3&#45;&gt;2 -->
<g id="edge48" class="edge">
<title>&#45;3&#45;&gt;2</title>
<path fill="none" stroke="green" stroke-width="0.19" d="M414.08,-68.53C429.9,-58.87 456.78,-42.45 475.85,-30.8"/>
<polygon fill="green" stroke="green" stroke-width="0.19" points="477.79,-33.71 484.5,-25.51 474.14,-27.74 477.79,-33.71"/>
</g>
<!-- &#45;4 -->
<g id="node4" class="node">
<title>&#45;4</title>
<polygon fill="lightgray" stroke="black" points="1778,-86.53 1752,-86.53 1752,-68.53 1778,-68.53 1778,-86.53"/>
<text text-anchor="middle" x="1765" y="-75.33" font-family="Times,serif" font-size="9.00">&#45;4</text>
</g>
<!-- &#45;5 -->
<g id="node5" class="node">
<title>&#45;5</title>
<polygon fill="lightgray" stroke="black" points="1252,-86.53 1226,-86.53 1226,-68.53 1252,-68.53 1252,-86.53"/>
<text text-anchor="middle" x="1239" y="-75.33" font-family="Times,serif" font-size="9.00">&#45;5</text>
</g>
<!-- &#45;5&#45;&gt;0 -->
<g id="edge29" class="edge">
<title>&#45;5&#45;&gt;0</title>
<path fill="none" stroke="green" stroke-width="0.11" d="M1225.59,-71.36C1222.77,-70.36 1219.8,-69.36 1217,-68.53 1148.12,-48.02 1065.08,-30.5 1023.85,-22.28"/>
<polygon fill="green" stroke="green" stroke-width="0.11" points="1024.32,-18.8 1013.84,-20.3 1022.97,-25.67 1024.32,-18.8"/>
</g>
<!-- &#45;5&#45;&gt;1 -->
<g id="edge52" class="edge">
<title>&#45;5&#45;&gt;1</title>
<path fill="none" stroke="red" stroke-width="0.12" d="M1245.54,-68.29C1251.82,-60.36 1261.58,-48.05 1269.94,-37.51"/>
<polygon fill="red" stroke="red" stroke-width="0.12" points="1272.78,-39.56 1276.25,-29.55 1267.3,-35.21 1272.78,-39.56"/>
</g>
<!-- &#45;5&#45;&gt;2 -->
<g id="edge39" class="edge">
<title>&#45;5&#45;&gt;2</title>
<path fill="none" stroke="green" stroke-width="0.14" d="M1225.68,-71.01C1222.85,-70.04 1219.86,-69.14 1217,-68.53 1080.78,-39.5 637.88,-22.19 524.59,-18.17"/>
<polygon fill="green" stroke="green" stroke-width="0.14" points="524.5,-14.67 514.39,-17.81 524.26,-21.66 524.5,-14.67"/>
</g>
<!-- &#45;6 -->
<g id="node6" class="node">
<title>&#45;6</title>
<polygon fill="lightgray" stroke="black" points="1346,-86.53 1320,-86.53 1320,-68.53 1346,-68.53 1346,-86.53"/>
<text text-anchor="middle" x="1333" y="-75.33" font-family="Times,serif" font-size="9.00">&#45;6</text>
</g>
<!-- &#45;6&#45;&gt;0 -->
<g id="edge21" class="edge">
<title>&#45;6&#45;&gt;0</title>
<path fill="none" stroke="green" stroke-width="0.47" d="M1319.63,-71.22C1316.81,-70.22 1313.83,-69.27 1311,-68.53 1206.58,-41.25 1078.58,-25.69 1024.32,-19.9"/>
<polygon fill="green" stroke="green" stroke-width="0.47" points="1024.49,-16.4 1014.18,-18.84 1023.76,-23.36 1024.49,-16.4"/>
</g>
<!-- &#45;6&#45;&gt;1 -->
<g id="edge25" class="edge">
<title>&#45;6&#45;&gt;1</title>
<path fill="none" stroke="red" stroke-width="0.19" d="M1326.46,-68.29C1320.18,-60.36 1310.42,-48.05 1302.06,-37.51"/>
<polygon fill="red" stroke="red" stroke-width="0.19" points="1304.7,-35.21 1295.75,-29.55 1299.22,-39.56 1304.7,-35.21"/>
</g>
<!-- &#45;7 -->
<g id="node7" class="node">
<title>&#45;7</title>
<polygon fill="lightgray" stroke="black" points="1390,-86.53 1364,-86.53 1364,-68.53 1390,-68.53 1390,-86.53"/>
<text text-anchor="middle" x="1377" y="-75.33" font-family="Times,serif" font-size="9.00">&#45;7</text>
</g>
<!-- &#45;7&#45;&gt;0 -->
<g id="edge7" class="edge">
<title>&#45;7&#45;&gt;0</title>
<path fill="none" stroke="green" stroke-width="0.29" d="M1363.64,-71.17C1360.82,-70.18 1357.84,-69.24 1355,-68.53 1233.5,-38.06 1083.89,-23.91 1024.29,-19.17"/>
<polygon fill="green" stroke="green" stroke-width="0.29" points="1024.48,-15.68 1014.24,-18.4 1023.94,-22.66 1024.48,-15.68"/>
</g>
<!-- &#45;7&#45;&gt;1 -->
<g id="edge46" class="edge">
<title>&#45;7&#45;&gt;1</title>
<path fill="none" stroke="red" stroke-width="0.11" d="M1364.35,-68.29C1349.79,-58.81 1325.63,-43.07 1307.98,-31.58"/>
<polygon fill="red" stroke="red" stroke-width="0.11" points="1309.72,-28.54 1299.43,-26.01 1305.9,-34.4 1309.72,-28.54"/>
</g>
<!-- &#45;8 -->
<g id="node8" class="node">
<title>&#45;8</title>
<polygon fill="lightgray" stroke="black" points="270,-86.53 244,-86.53 244,-68.53 270,-68.53 270,-86.53"/>
<text text-anchor="middle" x="257" y="-75.33" font-family="Times,serif" font-size="9.00">&#45;8</text>
</g>
<!-- &#45;8&#45;&gt;2 -->
<g id="edge18" class="edge">
<title>&#45;8&#45;&gt;2</title>
<path fill="none" stroke="red" stroke-width="0.15" d="M270.41,-71.36C273.23,-70.36 276.2,-69.36 279,-68.53 347.88,-48.02 430.92,-30.5 472.15,-22.28"/>
<polygon fill="red" stroke="red" stroke-width="0.15" points="473.03,-25.67 482.16,-20.3 471.68,-18.8 473.03,-25.67"/>
</g>
<!-- &#45;9 -->
<g id="node9" class="node">
<title>&#45;9</title>
<polygon fill="lightgray" stroke="black" points="1634,-86.53 1608,-86.53 1608,-68.53 1634,-68.53 1634,-86.53"/>
<text text-anchor="middle" x="1621" y="-75.33" font-family="Times,serif" font-size="9.00">&#45;9</text>
</g>
<!-- &#45;9&#45;&gt;1 -->
<g id="edge19" class="edge">
<title>&#45;9&#45;&gt;1</title>
<path fill="none" stroke="green" stroke-width="0.25" d="M1607.63,-71.22C1604.81,-70.22 1601.83,-69.27 1599,-68.53 1494.58,-41.25 1366.58,-25.69 1312.32,-19.9"/>
<polygon fill="green" stroke="green" stroke-width="0.25" points="1312.49,-16.4 1302.18,-18.84 1311.76,-23.36 1312.49,-16.4"/>
</g>
<!-- &#45;10 -->
<g id="node10" class="node">
<title>&#45;10</title>
<polygon fill="lightgray" stroke="black" points="1684,-86.53 1652,-86.53 1652,-68.53 1684,-68.53 1684,-86.53"/>
<text text-anchor="middle" x="1668" y="-75.33" font-family="Times,serif" font-size="9.00">&#45;10</text>
</g>
<!-- &#45;10&#45;&gt;1 -->
<g id="edge9" class="edge">
<title>&#45;10&#45;&gt;1</title>
<path fill="none" stroke="green" stroke-width="0.11" d="M1651.97,-70.96C1649.01,-70.06 1645.93,-69.2 1643,-68.53 1520.93,-40.44 1371.64,-24.95 1312.21,-19.51"/>
<polygon fill="green" stroke="green" stroke-width="0.11" points="1312.46,-16.02 1302.19,-18.62 1311.84,-22.99 1312.46,-16.02"/>
</g>
<!-- &#45;11 -->
<g id="node11" class="node">
<title>&#45;11</title>
<polygon fill="lightgray" stroke="black" points="614,-86.53 582,-86.53 582,-68.53 614,-68.53 614,-86.53"/>
<text text-anchor="middle" x="598" y="-75.33" font-family="Times,serif" font-size="9.00">&#45;11</text>
</g>
<!-- &#45;11&#45;&gt;0 -->
<g id="edge13" class="edge">
<title>&#45;11&#45;&gt;0</title>
<path fill="none" stroke="red" stroke-width="0.22" d="M614.02,-70.95C616.98,-70.05 620.07,-69.19 623,-68.53 752.07,-39.29 910.16,-24.33 971.72,-19.27"/>
<polygon fill="red" stroke="red" stroke-width="0.22" points="972.05,-22.76 981.74,-18.47 971.49,-15.78 972.05,-22.76"/>
</g>
<!-- &#45;11&#45;&gt;1 -->
<g id="edge22" class="edge">
<title>&#45;11&#45;&gt;1</title>
<path fill="none" stroke="red" stroke-width="0.11" d="M614.26,-70.72C617.14,-69.87 620.14,-69.09 623,-68.53 686.31,-56.12 1144.58,-26.29 1259.78,-18.93"/>
<polygon fill="red" stroke="red" stroke-width="0.11" points="1260.07,-22.42 1269.83,-18.29 1259.63,-15.43 1260.07,-22.42"/>
</g>
<!-- &#45;11&#45;&gt;2 -->
<g id="edge16" class="edge">
<title>&#45;11&#45;&gt;2</title>
<path fill="none" stroke="red" stroke-width="0.14" d="M584.1,-68.29C567.68,-58.56 540.14,-42.24 520.63,-30.68"/>
<polygon fill="red" stroke="red" stroke-width="0.14" points="522.17,-27.52 511.79,-25.43 518.6,-33.54 522.17,-27.52"/>
</g>
<!-- &#45;12 -->
<g id="node12" class="node">
<title>&#45;12</title>
<polygon fill="lightgray" stroke="black" points="464,-86.53 432,-86.53 432,-68.53 464,-68.53 464,-86.53"/>
<text text-anchor="middle" x="448" y="-75.33" font-family="Times,serif" font-size="9.00">&#45;12</text>
</g>
<!-- &#45;12&#45;&gt;0 -->
<g id="edge54" class="edge">
<title>&#45;12&#45;&gt;0</title>
<path fill="none" stroke="red" stroke-width="0.21" d="M464,-70.85C466.97,-69.96 470.05,-69.13 473,-68.53 661.07,-29.71 893.27,-20.09 971.14,-17.88"/>
<polygon fill="red" stroke="red" stroke-width="0.21" points="971.58,-21.37 981.48,-17.6 971.39,-14.37 971.58,-21.37"/>
</g>
<!-- &#45;12&#45;&gt;2 -->
<g id="edge44" class="edge">
<title>&#45;12&#45;&gt;2</title>
<path fill="none" stroke="green" stroke-width="0.39" d="M454.95,-68.29C461.79,-60.18 472.5,-47.49 481.52,-36.79"/>
<polygon fill="green" stroke="green" stroke-width="0.39" points="484.23,-39.01 488,-29.11 478.88,-34.5 484.23,-39.01"/>
</g>
<!-- &#45;13 -->
<g id="node13" class="node">
<title>&#45;13</title>
<polygon fill="lightgray" stroke="black" points="514,-86.53 482,-86.53 482,-68.53 514,-68.53 514,-86.53"/>
<text text-anchor="middle" x="498" y="-75.33" font-family="Times,serif" font-size="9.00">&#45;13</text>
</g>
<!-- &#45;13&#45;&gt;0 -->
<g id="edge61" class="edge">
<title>&#45;13&#45;&gt;0</title>
<path fill="none" stroke="red" stroke-width="0.28" d="M514.01,-70.88C516.97,-69.98 520.06,-69.15 523,-68.53 691.26,-32.91 898.58,-21.36 971.29,-18.25"/>
<polygon fill="red" stroke="red" stroke-width="0.28" points="971.55,-21.75 981.4,-17.84 971.27,-14.75 971.55,-21.75"/>
</g>
<!-- &#45;13&#45;&gt;2 -->
<g id="edge40" class="edge">
<title>&#45;13&#45;&gt;2</title>
<path fill="none" stroke="green" stroke-width="0.16" d="M498,-68.29C498,-61.7 498,-52.1 498,-43"/>
<polygon fill="green" stroke="green" stroke-width="0.16" points="501.5,-42.76 498,-32.76 494.5,-42.76 501.5,-42.76"/>
</g>
<!-- &#45;14 -->
<g id="node14" class="node">
<title>&#45;14</title>
<polygon fill="lightgray" stroke="black" points="1014,-86.53 982,-86.53 982,-68.53 1014,-68.53 1014,-86.53"/>
<text text-anchor="middle" x="998" y="-75.33" font-family="Times,serif" font-size="9.00">&#45;14</text>
</g>
<!-- &#45;14&#45;&gt;0 -->
<g id="edge42" class="edge">
<title>&#45;14&#45;&gt;0</title>
<path fill="none" stroke="red" stroke-width="0.45" d="M998,-68.29C998,-61.7 998,-52.1 998,-43"/>
<polygon fill="red" stroke="red" stroke-width="0.45" points="1001.5,-42.76 998,-32.76 994.5,-42.76 1001.5,-42.76"/>
</g>
<!-- &#45;15 -->
<g id="node15" class="node">
<title>&#45;15</title>
<polygon fill="lightgray" stroke="black" points="1734,-86.53 1702,-86.53 1702,-68.53 1734,-68.53 1734,-86.53"/>
<text text-anchor="middle" x="1718" y="-75.33" font-family="Times,serif" font-size="9.00">&#45;15</text>
</g>
<!-- &#45;15&#45;&gt;1 -->
<g id="edge59" class="edge">
<title>&#45;15&#45;&gt;1</title>
<path fill="none" stroke="green" stroke-width="0.32" d="M1701.98,-70.92C1699.02,-70.02 1695.94,-69.18 1693,-68.53 1551.67,-37.29 1378.21,-23.34 1312.72,-18.92"/>
<polygon fill="green" stroke="green" stroke-width="0.32" points="1312.68,-15.41 1302.47,-18.24 1312.22,-22.39 1312.68,-15.41"/>
</g>
<!-- &#45;16 -->
<g id="node16" class="node">
<title>&#45;16</title>
<polygon fill="lightgray" stroke="black" points="1828,-86.53 1796,-86.53 1796,-68.53 1828,-68.53 1828,-86.53"/>
<text text-anchor="middle" x="1812" y="-75.33" font-family="Times,serif" font-size="9.00">&#45;16</text>
</g>
<!-- &#45;17 -->
<g id="node17" class="node">
<title>&#45;17</title>
<polygon fill="lightgray" stroke="black" points="320,-86.53 288,-86.53 288,-68.53 320,-68.53 320,-86.53"/>
<text text-anchor="middle" x="304" y="-75.33" font-family="Times,serif" font-size="9.00">&#45;17</text>
</g>
<!-- &#45;17&#45;&gt;2 -->
<g id="edge64" class="edge">
<title>&#45;17&#45;&gt;2</title>
<path fill="none" stroke="green" stroke-width="0.34" d="M320.13,-71.33C323.08,-70.39 326.13,-69.42 329,-68.53 379.98,-52.64 439.81,-34.64 472.85,-24.76"/>
<polygon fill="green" stroke="green" stroke-width="0.34" points="474.02,-28.07 482.6,-21.85 472.01,-21.36 474.02,-28.07"/>
</g>
<!-- &#45;18 -->
<g id="node18" class="node">
<title>&#45;18</title>
<polygon fill="lightgray" stroke="black" points="1064,-86.53 1032,-86.53 1032,-68.53 1064,-68.53 1064,-86.53"/>
<text text-anchor="middle" x="1048" y="-75.33" font-family="Times,serif" font-size="9.00">&#45;18</text>
</g>
<!-- &#45;18&#45;&gt;0 -->
<g id="edge10" class="edge">
<title>&#45;18&#45;&gt;0</title>
<path fill="none" stroke="red" stroke-width="0.24" d="M1041.05,-68.29C1034.21,-60.18 1023.5,-47.49 1014.48,-36.79"/>
<polygon fill="red" stroke="red" stroke-width="0.24" points="1017.12,-34.5 1008,-29.11 1011.77,-39.01 1017.12,-34.5"/>
</g>
<!-- &#45;19 -->
<g id="node19" class="node">
<title>&#45;19</title>
<polygon fill="lightgray" stroke="black" points="1114,-86.53 1082,-86.53 1082,-68.53 1114,-68.53 1114,-86.53"/>
<text text-anchor="middle" x="1098" y="-75.33" font-family="Times,serif" font-size="9.00">&#45;19</text>
</g>
<!-- &#45;19&#45;&gt;0 -->
<g id="edge31" class="edge">
<title>&#45;19&#45;&gt;0</title>
<path fill="none" stroke="green" stroke-width="0.29" d="M1084.1,-68.29C1067.68,-58.56 1040.14,-42.24 1020.63,-30.68"/>
<polygon fill="green" stroke="green" stroke-width="0.29" points="1022.17,-27.52 1011.79,-25.43 1018.6,-33.54 1022.17,-27.52"/>
</g>
<!-- &#45;20 -->
<g id="node20" class="node">
<title>&#45;20</title>
<polygon fill="lightgray" stroke="black" points="664,-86.53 632,-86.53 632,-68.53 664,-68.53 664,-86.53"/>
<text text-anchor="middle" x="648" y="-75.33" font-family="Times,serif" font-size="9.00">&#45;20</text>
</g>
<!-- &#45;20&#45;&gt;0 -->
<g id="edge34" class="edge">
<title>&#45;20&#45;&gt;0</title>
<path fill="none" stroke="green" stroke-width="0.55" d="M664.04,-71C666.99,-70.09 670.07,-69.22 673,-68.53 782.68,-42.49 916.39,-26.13 971.91,-20"/>
<polygon fill="green" stroke="green" stroke-width="0.55" points="972.37,-23.47 981.94,-18.91 971.62,-16.51 972.37,-23.47"/>
</g>
<!-- &#45;20&#45;&gt;1 -->
<g id="edge1" class="edge">
<title>&#45;20&#45;&gt;1</title>
<path fill="none" stroke="green" stroke-width="0.34" d="M664.27,-70.74C667.15,-69.88 670.14,-69.1 673,-68.53 731.1,-56.96 1148.97,-26.93 1259.33,-19.14"/>
<polygon fill="green" stroke="green" stroke-width="0.34" points="1259.86,-22.61 1269.59,-18.41 1259.36,-15.63 1259.86,-22.61"/>
</g>
<!-- &#45;20&#45;&gt;2 -->
<g id="edge24" class="edge">
<title>&#45;20&#45;&gt;2</title>
<path fill="none" stroke="red" stroke-width="0.29" d="M631.95,-70.18C605.74,-59.83 553.58,-39.22 522.65,-27"/>
<polygon fill="red" stroke="red" stroke-width="0.29" points="523.63,-23.63 513.04,-23.21 521.06,-30.14 523.63,-23.63"/>
</g>
<!-- &#45;21 -->
<g id="node21" class="node">
<title>&#45;21</title>
<polygon fill="lightgray" stroke="black" points="564,-86.53 532,-86.53 532,-68.53 564,-68.53 564,-86.53"/>
<text text-anchor="middle" x="548" y="-75.33" font-family="Times,serif" font-size="9.00">&#45;21</text>
</g>
<!-- &#45;21&#45;&gt;0 -->
<g id="edge47" class="edge">
<title>&#45;21&#45;&gt;0</title>
<path fill="none" stroke="red" stroke-width="0.34" d="M564.02,-70.91C566.98,-70.01 570.06,-69.17 573,-68.53 721.57,-36.1 904.14,-22.76 971.46,-18.71"/>
<polygon fill="red" stroke="red" stroke-width="0.34" points="971.82,-22.2 981.6,-18.12 971.41,-15.21 971.82,-22.2"/>
</g>
<!-- &#45;21&#45;&gt;2 -->
<g id="edge60" class="edge">
<title>&#45;21&#45;&gt;2</title>
<path fill="none" stroke="green" stroke-width="0.23" d="M541.05,-68.29C534.21,-60.18 523.5,-47.49 514.48,-36.79"/>
<polygon fill="green" stroke="green" stroke-width="0.23" points="517.12,-34.5 508,-29.11 511.77,-39.01 517.12,-34.5"/>
</g>
<!-- &#45;22 -->
<g id="node22" class="node">
<title>&#45;22</title>
<polygon fill="lightgray" stroke="black" points="1878,-86.53 1846,-86.53 1846,-68.53 1878,-68.53 1878,-86.53"/>
<text text-anchor="middle" x="1862" y="-75.33" font-family="Times,serif" font-size="9.00">&#45;22</text>
</g>
<!-- &#45;23 -->
<g id="node23" class="node">
<title>&#45;23</title>
<polygon fill="lightgray" stroke="black" points="714,-86.53 682,-86.53 682,-68.53 714,-68.53 714,-86.53"/>
<text text-anchor="middle" x="698" y="-75.33" font-family="Times,serif" font-size="9.00">&#45;23</text>
</g>
<!-- &#45;23&#45;&gt;1 -->
<g id="edge20" class="edge">
<title>&#45;23&#45;&gt;1</title>
<path fill="none" stroke="green" stroke-width="0.14" d="M714,-70.84C716.96,-69.95 720.05,-69.13 723,-68.53 827.89,-47.24 1162.68,-25.02 1259.52,-18.9"/>
<polygon fill="green" stroke="green" stroke-width="0.14" points="1259.87,-22.39 1269.63,-18.27 1259.43,-15.4 1259.87,-22.39"/>
</g>
<!-- &#45;23&#45;&gt;2 -->
<g id="edge38" class="edge">
<title>&#45;23&#45;&gt;2</title>
<path fill="none" stroke="green" stroke-width="0.22" d="M681.88,-71.3C678.93,-70.37 675.88,-69.41 673,-68.53 620.01,-52.29 557.66,-34.29 523.53,-24.53"/>
<polygon fill="green" stroke="green" stroke-width="0.22" points="524.07,-21.04 513.49,-21.66 522.14,-27.77 524.07,-21.04"/>
</g>
<!-- &#45;24 -->
<g id="node24" class="node">
<title>&#45;24</title>
<polygon fill="lightgray" stroke="black" points="764,-86.53 732,-86.53 732,-68.53 764,-68.53 764,-86.53"/>
<text text-anchor="middle" x="748" y="-75.33" font-family="Times,serif" font-size="9.00">&#45;24</text>
</g>
<!-- &#45;24&#45;&gt;1 -->
<g id="edge6" class="edge">
<title>&#45;24&#45;&gt;1</title>
<path fill="none" stroke="green" stroke-width="0.15" d="M764.01,-70.86C766.97,-69.97 770.06,-69.14 773,-68.53 867.85,-48.84 1169.04,-25.8 1259.84,-19.15"/>
<polygon fill="green" stroke="green" stroke-width="0.15" points="1260.13,-22.64 1269.85,-18.42 1259.62,-15.65 1260.13,-22.64"/>
</g>
<!-- &#45;24&#45;&gt;2 -->
<g id="edge30" class="edge">
<title>&#45;24&#45;&gt;2</title>
<path fill="none" stroke="red" stroke-width="0.11" d="M731.92,-71.16C728.97,-70.24 725.9,-69.32 723,-68.53 651.54,-48.99 565.93,-30.93 523.89,-22.41"/>
<polygon fill="red" stroke="red" stroke-width="0.11" points="524.43,-18.95 513.94,-20.4 523.05,-25.81 524.43,-18.95"/>
</g>
<!-- &#45;25 -->
<g id="node25" class="node">
<title>&#45;25</title>
<polygon fill="lightgray" stroke="black" points="1164,-86.53 1132,-86.53 1132,-68.53 1164,-68.53 1164,-86.53"/>
<text text-anchor="middle" x="1148" y="-75.33" font-family="Times,serif" font-size="9.00">&#45;25</text>
</g>
<!-- &#45;25&#45;&gt;0 -->
<g id="edge53" class="edge">
<title>&#45;25&#45;&gt;0</title>
<path fill="none" stroke="red" stroke-width="0.39" d="M1131.95,-70.18C1105.74,-59.83 1053.58,-39.22 1022.65,-27"/>
<polygon fill="red" stroke="red" stroke-width="0.39" points="1023.63,-23.63 1013.04,-23.21 1021.06,-30.14 1023.63,-23.63"/>
</g>
<!-- &#45;26 -->
<g id="node26" class="node">
<title>&#45;26</title>
<polygon fill="lightgray" stroke="black" points="32,-86.53 0,-86.53 0,-68.53 32,-68.53 32,-86.53"/>
<text text-anchor="middle" x="16" y="-75.33" font-family="Times,serif" font-size="9.00">&#45;26</text>
</g>
<!-- &#45;26&#45;&gt;2 -->
<g id="edge57" class="edge">
<title>&#45;26&#45;&gt;2</title>
<path fill="none" stroke="green" stroke-width="0.22" d="M32.01,-70.89C34.97,-69.99 38.06,-69.16 41,-68.53 202.18,-34.05 400.62,-21.84 471.39,-18.41"/>
<polygon fill="green" stroke="green" stroke-width="0.22" points="471.8,-21.89 481.62,-17.93 471.47,-14.9 471.8,-21.89"/>
</g>
<!-- &#45;27 -->
<g id="node27" class="node">
<title>&#45;27</title>
<polygon fill="lightgray" stroke="black" points="82,-86.53 50,-86.53 50,-68.53 82,-68.53 82,-86.53"/>
<text text-anchor="middle" x="66" y="-75.33" font-family="Times,serif" font-size="9.00">&#45;27</text>
</g>
<!-- &#45;27&#45;&gt;2 -->
<g id="edge3" class="edge">
<title>&#45;27&#45;&gt;2</title>
<path fill="none" stroke="green" stroke-width="0.18" d="M82.02,-70.92C84.98,-70.02 88.06,-69.18 91,-68.53 232.33,-37.29 405.79,-23.34 471.28,-18.92"/>
<polygon fill="green" stroke="green" stroke-width="0.18" points="471.78,-22.39 481.53,-18.24 471.32,-15.41 471.78,-22.39"/>
</g>
<!-- &#45;28 -->
<g id="node28" class="node">
<title>&#45;28</title>
<polygon fill="lightgray" stroke="black" points="1440,-86.53 1408,-86.53 1408,-68.53 1440,-68.53 1440,-86.53"/>
<text text-anchor="middle" x="1424" y="-75.33" font-family="Times,serif" font-size="9.00">&#45;28</text>
</g>
<!-- &#45;28&#45;&gt;0 -->
<g id="edge26" class="edge">
<title>&#45;28&#45;&gt;0</title>
<path fill="none" stroke="red" stroke-width="0.49" d="M1407.98,-70.92C1405.02,-70.03 1401.94,-69.18 1399,-68.53 1259.74,-37.62 1088.85,-23.48 1024.33,-18.96"/>
<polygon fill="red" stroke="red" stroke-width="0.49" points="1024.44,-15.46 1014.23,-18.27 1023.97,-22.44 1024.44,-15.46"/>
</g>
<!-- &#45;28&#45;&gt;1 -->
<g id="edge56" class="edge">
<title>&#45;28&#45;&gt;1</title>
<path fill="none" stroke="red" stroke-width="0.13" d="M1407.9,-69.61C1383.84,-59.28 1338.32,-39.73 1310.23,-27.67"/>
<polygon fill="red" stroke="red" stroke-width="0.13" points="1311.31,-24.32 1300.74,-23.59 1308.55,-30.76 1311.31,-24.32"/>
</g>
<!-- &#45;29 -->
<g id="node29" class="node">
<title>&#45;29</title>
<polygon fill="lightgray" stroke="black" points="1928,-86.53 1896,-86.53 1896,-68.53 1928,-68.53 1928,-86.53"/>
<text text-anchor="middle" x="1912" y="-75.33" font-family="Times,serif" font-size="9.00">&#45;29</text>
</g>
<!-- &#45;30 -->
<g id="node30" class="node">
<title>&#45;30</title>
<polygon fill="lightgray" stroke="black" points="814,-86.53 782,-86.53 782,-68.53 814,-68.53 814,-86.53"/>
<text text-anchor="middle" x="798" y="-75.33" font-family="Times,serif" font-size="9.00">&#45;30</text>
</g>
<!-- &#45;30&#45;&gt;1 -->
<g id="edge23" class="edge">
<title>&#45;30&#45;&gt;1</title>
<path fill="none" stroke="green" stroke-width="0.21" d="M814.01,-70.88C816.97,-69.99 820.06,-69.15 823,-68.53 986.3,-33.72 1187.34,-21.71 1259.04,-18.37"/>
<polygon fill="green" stroke="green" stroke-width="0.21" points="1259.57,-21.85 1269.41,-17.91 1259.26,-14.86 1259.57,-21.85"/>
</g>
<!-- &#45;30&#45;&gt;2 -->
<g id="edge55" class="edge">
<title>&#45;30&#45;&gt;2</title>
<path fill="none" stroke="red" stroke-width="0.3" d="M781.95,-71.06C778.99,-70.15 775.92,-69.26 773,-68.53 682.59,-45.73 573.13,-28.3 524.03,-21"/>
<polygon fill="red" stroke="red" stroke-width="0.3" points="524.36,-17.51 513.96,-19.52 523.35,-24.44 524.36,-17.51"/>
</g>
<!-- &#45;31 -->
<g id="node31" class="node">
<title>&#45;31</title>
<polygon fill="lightgray" stroke="black" points="1978,-86.53 1946,-86.53 1946,-68.53 1978,-68.53 1978,-86.53"/>
<text text-anchor="middle" x="1962" y="-75.33" font-family="Times,serif" font-size="9.00">&#45;31</text>
</g>
<!-- &#45;32 -->
<g id="node32" class="node">
<title>&#45;32</title>
<polygon fill="lightgray" stroke="black" points="1490,-86.53 1458,-86.53 1458,-68.53 1490,-68.53 1490,-86.53"/>
<text text-anchor="middle" x="1474" y="-75.33" font-family="Times,serif" font-size="9.00">&#45;32</text>
</g>
<!-- &#45;32&#45;&gt;0 -->
<g id="edge28" class="edge">
<title>&#45;32&#45;&gt;0</title>
<path fill="none" stroke="red" stroke-width="0.18" d="M1457.99,-70.89C1455.03,-70 1451.94,-69.16 1449,-68.53 1290.3,-34.46 1095.01,-22.03 1024.75,-18.47"/>
<polygon fill="red" stroke="red" stroke-width="0.18" points="1024.73,-14.96 1014.57,-17.97 1024.39,-21.96 1024.73,-14.96"/>
</g>
<!-- &#45;32&#45;&gt;1 -->
<g id="edge43" class="edge">
<title>&#45;32&#45;&gt;1</title>
<path fill="none" stroke="red" stroke-width="0.17" d="M1457.87,-71.35C1454.92,-70.41 1451.87,-69.44 1449,-68.53 1400.22,-53.05 1343.17,-35.16 1311.14,-25.13"/>
<polygon fill="red" stroke="red" stroke-width="0.17" points="1311.88,-21.69 1301.29,-22.04 1309.79,-28.37 1311.88,-21.69"/>
</g>
<!-- &#45;33 -->
<g id="node33" class="node">
<title>&#45;33</title>
<polygon fill="lightgray" stroke="black" points="370,-86.53 338,-86.53 338,-68.53 370,-68.53 370,-86.53"/>
<text text-anchor="middle" x="354" y="-75.33" font-family="Times,serif" font-size="9.00">&#45;33</text>
</g>
<!-- &#45;33&#45;&gt;0 -->
<g id="edge8" class="edge">
<title>&#45;33&#45;&gt;0</title>
<path fill="none" stroke="green" stroke-width="0.19" d="M370.27,-70.74C373.15,-69.88 376.14,-69.1 379,-68.53 604.95,-23.63 884.86,-17.97 971.32,-17.32"/>
<polygon fill="green" stroke="green" stroke-width="0.19" points="971.57,-20.82 981.55,-17.26 971.53,-13.82 971.57,-20.82"/>
</g>
<!-- &#45;33&#45;&gt;2 -->
<g id="edge15" class="edge">
<title>&#45;33&#45;&gt;2</title>
<path fill="none" stroke="red" stroke-width="0.29" d="M370.24,-69.84C395.5,-59.45 444.37,-39.33 473.8,-27.22"/>
<polygon fill="red" stroke="red" stroke-width="0.29" points="475.42,-30.34 483.33,-23.3 472.75,-23.87 475.42,-30.34"/>
</g>
<!-- &#45;34 -->
<g id="node34" class="node">
<title>&#45;34</title>
<polygon fill="lightgray" stroke="black" points="132,-86.53 100,-86.53 100,-68.53 132,-68.53 132,-86.53"/>
<text text-anchor="middle" x="116" y="-75.33" font-family="Times,serif" font-size="9.00">&#45;34</text>
</g>
<!-- &#45;34&#45;&gt;2 -->
<g id="edge36" class="edge">
<title>&#45;34&#45;&gt;2</title>
<path fill="none" stroke="green" stroke-width="0.15" d="M132.03,-70.96C134.99,-70.06 138.07,-69.2 141,-68.53 263.07,-40.44 412.36,-24.95 471.79,-19.51"/>
<polygon fill="green" stroke="green" stroke-width="0.15" points="472.16,-22.99 481.81,-18.62 471.54,-16.02 472.16,-22.99"/>
</g>
<!-- &#45;35 -->
<g id="node35" class="node">
<title>&#45;35</title>
<polygon fill="lightgray" stroke="black" points="1540,-86.53 1508,-86.53 1508,-68.53 1540,-68.53 1540,-86.53"/>
<text text-anchor="middle" x="1524" y="-75.33" font-family="Times,serif" font-size="9.00">&#45;35</text>
</g>
<!-- &#45;35&#45;&gt;1 -->
<g id="edge4" class="edge">
<title>&#45;35&#45;&gt;1</title>
<path fill="none" stroke="red" stroke-width="0.12" d="M1507.91,-71.19C1504.96,-70.26 1501.9,-69.34 1499,-68.53 1431.92,-49.75 1351.81,-31.6 1311.64,-22.79"/>
<polygon fill="red" stroke="red" stroke-width="0.12" points="1312.38,-19.37 1301.87,-20.66 1310.89,-26.21 1312.38,-19.37"/>
</g>
<!-- &#45;36 -->
<g id="node36" class="node">
<title>&#45;36</title>
<polygon fill="lightgray" stroke="black" points="1590,-86.53 1558,-86.53 1558,-68.53 1590,-68.53 1590,-86.53"/>
<text text-anchor="middle" x="1574" y="-75.33" font-family="Times,serif" font-size="9.00">&#45;36</text>
</g>
<!-- &#45;36&#45;&gt;1 -->
<g id="edge35" class="edge">
<title>&#45;36&#45;&gt;1</title>
<path fill="none" stroke="red" stroke-width="0.22" d="M1557.94,-71.08C1554.99,-70.17 1551.91,-69.27 1549,-68.53 1463.3,-46.54 1359.78,-28.93 1312.22,-21.33"/>
<polygon fill="red" stroke="red" stroke-width="0.22" points="1312.58,-17.84 1302.16,-19.74 1311.49,-24.76 1312.58,-17.84"/>
</g>
<!-- &#45;37 -->
<g id="node37" class="node">
<title>&#45;37</title>
<polygon fill="lightgray" stroke="black" points="1302,-86.53 1270,-86.53 1270,-68.53 1302,-68.53 1302,-86.53"/>
<text text-anchor="middle" x="1286" y="-75.33" font-family="Times,serif" font-size="9.00">&#45;37</text>
</g>
<!-- &#45;37&#45;&gt;0 -->
<g id="edge14" class="edge">
<title>&#45;37&#45;&gt;0</title>
<path fill="none" stroke="red" stroke-width="0.27" d="M1269.94,-71.08C1266.99,-70.17 1263.91,-69.27 1261,-68.53 1175.3,-46.54 1071.78,-28.93 1024.22,-21.33"/>
<polygon fill="red" stroke="red" stroke-width="0.27" points="1024.58,-17.84 1014.16,-19.74 1023.49,-24.76 1024.58,-17.84"/>
</g>
<!-- &#45;37&#45;&gt;1 -->
<g id="edge63" class="edge">
<title>&#45;37&#45;&gt;1</title>
<path fill="none" stroke="red" stroke-width="0.21" d="M1286,-68.29C1286,-61.7 1286,-52.1 1286,-43"/>
<polygon fill="red" stroke="red" stroke-width="0.21" points="1289.5,-42.76 1286,-32.76 1282.5,-42.76 1289.5,-42.76"/>
</g>
<!-- &#45;38 -->
<g id="node38" class="node">
<title>&#45;38</title>
<polygon fill="lightgray" stroke="black" points="2028,-86.53 1996,-86.53 1996,-68.53 2028,-68.53 2028,-86.53"/>
<text text-anchor="middle" x="2012" y="-75.33" font-family="Times,serif" font-size="9.00">&#45;38</text>
</g>
<!-- &#45;39 -->
<g id="node39" class="node">
<title>&#45;39</title>
<polygon fill="lightgray" stroke="black" points="864,-86.53 832,-86.53 832,-68.53 864,-68.53 864,-86.53"/>
<text text-anchor="middle" x="848" y="-75.33" font-family="Times,serif" font-size="9.00">&#45;39</text>
</g>
<!-- &#45;39&#45;&gt;0 -->
<g id="edge12" class="edge">
<title>&#45;39&#45;&gt;0</title>
<path fill="none" stroke="green" stroke-width="0.18" d="M864.05,-70.18C890.26,-59.83 942.42,-39.22 973.35,-27"/>
<polygon fill="green" stroke="green" stroke-width="0.18" points="974.94,-30.14 982.96,-23.21 972.37,-23.63 974.94,-30.14"/>
</g>
<!-- &#45;39&#45;&gt;1 -->
<g id="edge58" class="edge">
<title>&#45;39&#45;&gt;1</title>
<path fill="none" stroke="green" stroke-width="0.15" d="M864.02,-70.92C866.98,-70.02 870.06,-69.17 873,-68.53 1016.75,-36.9 1193.24,-23.14 1259.34,-18.85"/>
<polygon fill="green" stroke="green" stroke-width="0.15" points="1259.92,-22.32 1269.68,-18.19 1259.48,-15.33 1259.92,-22.32"/>
</g>
<!-- &#45;39&#45;&gt;2 -->
<g id="edge45" class="edge">
<title>&#45;39&#45;&gt;2</title>
<path fill="none" stroke="green" stroke-width="0.11" d="M831.96,-71C829.01,-70.09 825.93,-69.22 823,-68.53 713.32,-42.49 579.61,-26.13 524.09,-20"/>
<polygon fill="green" stroke="green" stroke-width="0.11" points="524.38,-16.51 514.06,-18.91 523.63,-23.47 524.38,-16.51"/>
</g>
<!-- &#45;40 -->
<g id="node40" class="node">
<title>&#45;40</title>
<polygon fill="lightgray" stroke="black" points="964,-86.53 932,-86.53 932,-68.53 964,-68.53 964,-86.53"/>
<text text-anchor="middle" x="948" y="-75.33" font-family="Times,serif" font-size="9.00">&#45;40</text>
</g>
<!-- &#45;40&#45;&gt;0 -->
<g id="edge32" class="edge">
<title>&#45;40&#45;&gt;0</title>
<path fill="none" stroke="red" stroke-width="0.2" d="M954.95,-68.29C961.79,-60.18 972.5,-47.49 981.52,-36.79"/>
<polygon fill="red" stroke="red" stroke-width="0.2" points="984.23,-39.01 988,-29.11 978.88,-34.5 984.23,-39.01"/>
</g>
<!-- &#45;41 -->
<g id="node41" class="node">
<title>&#45;41</title>
<polygon fill="lightgray" stroke="black" points="182,-86.53 150,-86.53 150,-68.53 182,-68.53 182,-86.53"/>
<text text-anchor="middle" x="166" y="-75.33" font-family="Times,serif" font-size="9.00">&#45;41</text>
</g>
<!-- &#45;41&#45;&gt;2 -->
<g id="edge11" class="edge">
<title>&#45;41&#45;&gt;2</title>
<path fill="none" stroke="green" stroke-width="0.14" d="M182.04,-71.02C185,-70.11 188.08,-69.23 191,-68.53 293.69,-43.66 418.61,-26.87 471.89,-20.33"/>
<polygon fill="green" stroke="green" stroke-width="0.14" points="472.35,-23.8 481.86,-19.13 471.51,-16.85 472.35,-23.8"/>
</g>
<!-- &#45;42 -->
<g id="node42" class="node">
<title>&#45;42</title>
<polygon fill="lightgray" stroke="black" points="914,-86.53 882,-86.53 882,-68.53 914,-68.53 914,-86.53"/>
<text text-anchor="middle" x="898" y="-75.33" font-family="Times,serif" font-size="9.00">&#45;42</text>
</g>
<!-- &#45;42&#45;&gt;0 -->
<g id="edge51" class="edge">
<title>&#45;42&#45;&gt;0</title>
<path fill="none" stroke="red" stroke-width="0.19" d="M911.9,-68.29C928.32,-58.56 955.86,-42.24 975.37,-30.68"/>
<polygon fill="red" stroke="red" stroke-width="0.19" points="977.4,-33.54 984.21,-25.43 973.83,-27.52 977.4,-33.54"/>
</g>
<!-- &#45;42&#45;&gt;1 -->
<g id="edge5" class="edge">
<title>&#45;42&#45;&gt;1</title>
<path fill="none" stroke="red" stroke-width="0.37" d="M914.03,-70.96C916.99,-70.05 920.07,-69.2 923,-68.53 1047.11,-40.12 1198.92,-24.81 1259.35,-19.47"/>
<polygon fill="red" stroke="red" stroke-width="0.37" points="1259.88,-22.94 1269.54,-18.59 1259.27,-15.96 1259.88,-22.94"/>
</g>
<!-- &#45;42&#45;&gt;2 -->
<g id="edge2" class="edge">
<title>&#45;42&#45;&gt;2</title>
<path fill="none" stroke="red" stroke-width="0.21" d="M881.98,-70.95C879.02,-70.05 875.93,-69.19 873,-68.53 743.93,-39.29 585.84,-24.33 524.28,-19.27"/>
<polygon fill="red" stroke="red" stroke-width="0.21" points="524.51,-15.78 514.26,-18.47 523.95,-22.76 524.51,-15.78"/>
</g>
<!-- 0&#45;&gt;0 -->
<g id="edge62" class="edge">
<title>0&#45;&gt;0</title>
<path fill="none" stroke="green" stroke-width="0.12" d="M1011.36,-26.06C1021.71,-29.72 1032.26,-26.46 1032.26,-16.26 1032.26,-9.57 1027.72,-5.87 1021.67,-5.14"/>
<polygon fill="green" stroke="green" stroke-width="0.12" points="1020.84,-1.72 1011.36,-6.47 1021.73,-8.67 1020.84,-1.72"/>
</g>
<!-- 1&#45;&gt;1 -->
<g id="edge50" class="edge">
<title>1&#45;&gt;1</title>
<path fill="none" stroke="green" stroke-width="0.31" d="M1299.36,-26.06C1309.71,-29.72 1320.26,-26.46 1320.26,-16.26 1320.26,-9.57 1315.72,-5.87 1309.67,-5.14"/>
<polygon fill="green" stroke="green" stroke-width="0.31" points="1308.84,-1.72 1299.36,-6.47 1309.73,-8.67 1308.84,-1.72"/>
</g>
<!-- 2&#45;&gt;2 -->
<g id="edge49" class="edge">
<title>2&#45;&gt;2</title>
<path fill="none" stroke="red" stroke-width="0.21" d="M511.36,-26.06C521.71,-29.72 532.26,-26.46 532.26,-16.26 532.26,-9.57 527.72,-5.87 521.67,-5.14"/>
<polygon fill="red" stroke="red" stroke-width="0.21" points="520.84,-1.72 511.36,-6.47 521.73,-8.67 520.84,-1.72"/>
</g>
</g>
</svg>
