<?xml version="1.0" encoding="UTF-8" standalone="no"?>
<!DOCTYPE svg PUBLIC "-//W3C//DTD SVG 1.1//EN"
 "http://www.w3.org/Graphics/SVG/1.1/DTD/svg11.dtd">
<!-- Generated by graphviz version 2.43.0 (0)
 -->
<!-- Title: %3 Pages: 1 -->
<svg width="2036pt" height="95pt"
 viewBox="0.00 0.00 2036.00 94.53" xmlns="http://www.w3.org/2000/svg" xmlns:xlink="http://www.w3.org/1999/xlink">
<g id="graph0" class="graph" transform="scale(1 1) rotate(0) translate(4 90.53)">
<title>%3</title>
<polygon fill="white" stroke="transparent" points="-4,4 -4,-90.53 2032,-90.53 2032,4 -4,4"/>
<!-- &#45;1 -->
<g id="node1" class="node">
<title>&#45;1</title>
<polygon fill="lightgray" stroke="black" points="326,-86.53 300,-86.53 300,-68.53 326,-68.53 326,-86.53"/>
<text text-anchor="middle" x="313" y="-75.33" font-family="Times,serif" font-size="9.00">&#45;1</text>
</g>
<!-- 0 -->
<g id="node43" class="node">
<title>0</title>
<ellipse fill="lightblue" stroke="black" cx="525" cy="-16.26" rx="16.03" ry="16.03"/>
<text text-anchor="middle" x="525" y="-14.06" font-family="Times,serif" font-size="9.00">0</text>
</g>
<!-- &#45;1&#45;&gt;0 -->
<g id="edge56" class="edge">
<title>&#45;1&#45;&gt;0</title>
<path fill="none" stroke="green" stroke-width="0.15" d="M326.43,-71.44C329.25,-70.43 332.21,-69.41 335,-68.53 393.11,-50.16 462.5,-32.5 499.22,-23.48"/>
<polygon fill="green" stroke="green" stroke-width="0.15" points="500.22,-26.84 509.1,-21.07 498.56,-20.04 500.22,-26.84"/>
</g>
<!-- &#45;2 -->
<g id="node2" class="node">
<title>&#45;2</title>
<polygon fill="lightgray" stroke="black" points="1008,-86.53 982,-86.53 982,-68.53 1008,-68.53 1008,-86.53"/>
<text text-anchor="middle" x="995" y="-75.33" font-family="Times,serif" font-size="9.00">&#45;2</text>
</g>
<!-- 2 -->
<g id="node45" class="node">
<title>2</title>
<ellipse fill="lightblue" stroke="black" cx="1111" cy="-16.26" rx="16.03" ry="16.03"/>
<text text-anchor="middle" x="1111" y="-14.06" font-family="Times,serif" font-size="9.00">2</text>
</g>
<!-- &#45;2&#45;&gt;2 -->
<g id="edge64" class="edge">
<title>&#45;2&#45;&gt;2</title>
<path fill="none" stroke="green" stroke-width="0.33" d="M1008.31,-69.73C1027.66,-59.84 1063.86,-41.35 1087.69,-29.17"/>
<polygon fill="green" stroke="green" stroke-width="0.33" points="1089.45,-32.2 1096.77,-24.54 1086.27,-25.97 1089.45,-32.2"/>
</g>
<!-- &#45;3 -->
<g id="node3" class="node">
<title>&#45;3</title>
<polygon fill="lightgray" stroke="black" points="514,-86.53 488,-86.53 488,-68.53 514,-68.53 514,-86.53"/>
<text text-anchor="middle" x="501" y="-75.33" font-family="Times,serif" font-size="9.00">&#45;3</text>
</g>
<!-- &#45;3&#45;&gt;0 -->
<g id="edge47" class="edge">
<title>&#45;3&#45;&gt;0</title>
<path fill="none" stroke="green" stroke-width="0.26" d="M504.34,-68.29C507.17,-61.3 511.37,-50.91 515.25,-41.33"/>
<polygon fill="green" stroke="green" stroke-width="0.26" points="518.6,-42.4 519.11,-31.82 512.11,-39.77 518.6,-42.4"/>
</g>
<!-- &#45;3&#45;&gt;2 -->
<g id="edge17" class="edge">
<title>&#45;3&#45;&gt;2</title>
<path fill="none" stroke="red" stroke-width="0.21" d="M514.33,-71.05C517.15,-70.07 520.14,-69.16 523,-68.53 735.56,-21.47 1000.3,-17.21 1084.21,-17.12"/>
<polygon fill="red" stroke="red" stroke-width="0.21" points="1084.39,-20.62 1094.39,-17.13 1084.4,-13.62 1084.39,-20.62"/>
</g>
<!-- &#45;4 -->
<g id="node4" class="node">
<title>&#45;4</title>
<polygon fill="lightgray" stroke="black" points="1052,-86.53 1026,-86.53 1026,-68.53 1052,-68.53 1052,-86.53"/>
<text text-anchor="middle" x="1039" y="-75.33" font-family="Times,serif" font-size="9.00">&#45;4</text>
</g>
<!-- &#45;4&#45;&gt;2 -->
<g id="edge27" class="edge">
<title>&#45;4&#45;&gt;2</title>
<path fill="none" stroke="green" stroke-width="0.38" d="M1049.01,-68.29C1059.76,-59.44 1077.14,-45.14 1090.76,-33.92"/>
<polygon fill="green" stroke="green" stroke-width="0.38" points="1093.17,-36.47 1098.66,-27.42 1088.72,-31.07 1093.17,-36.47"/>
</g>
<!-- &#45;5 -->
<g id="node5" class="node">
<title>&#45;5</title>
<polygon fill="lightgray" stroke="black" points="1778,-86.53 1752,-86.53 1752,-68.53 1778,-68.53 1778,-86.53"/>
<text text-anchor="middle" x="1765" y="-75.33" font-family="Times,serif" font-size="9.00">&#45;5</text>
</g>
<!-- 1 -->
<g id="node44" class="node">
<title>1</title>
<ellipse fill="lightblue" stroke="black" cx="1380" cy="-16.26" rx="16.03" ry="16.03"/>
<text text-anchor="middle" x="1380" y="-14.06" font-family="Times,serif" font-size="9.00">1</text>
</g>
<!-- &#45;5&#45;&gt;1 -->
<g id="edge53" class="edge">
<title>&#45;5&#45;&gt;1</title>
<path fill="none" stroke="red" stroke-width="0.14" d="M1751.64,-71.17C1748.82,-70.18 1745.84,-69.24 1743,-68.53 1619.17,-37.63 1466.62,-23.68 1406.31,-19.09"/>
<polygon fill="red" stroke="red" stroke-width="0.14" points="1406.38,-15.59 1396.15,-18.34 1405.87,-22.57 1406.38,-15.59"/>
</g>
<!-- &#45;6 -->
<g id="node6" class="node">
<title>&#45;6</title>
<polygon fill="lightgray" stroke="black" points="1196,-86.53 1170,-86.53 1170,-68.53 1196,-68.53 1196,-86.53"/>
<text text-anchor="middle" x="1183" y="-75.33" font-family="Times,serif" font-size="9.00">&#45;6</text>
</g>
<!-- &#45;6&#45;&gt;0 -->
<g id="edge4" class="edge">
<title>&#45;6&#45;&gt;0</title>
<path fill="none" stroke="green" stroke-width="0.37" d="M1169.67,-71.04C1166.85,-70.06 1163.86,-69.15 1161,-68.53 929.02,-17.97 639.67,-16.13 551.62,-16.88"/>
<polygon fill="green" stroke="green" stroke-width="0.37" points="551.42,-13.38 541.45,-16.98 551.49,-20.38 551.42,-13.38"/>
</g>
<!-- &#45;6&#45;&gt;1 -->
<g id="edge32" class="edge">
<title>&#45;6&#45;&gt;1</title>
<path fill="none" stroke="red" stroke-width="0.24" d="M1196.45,-71.48C1199.26,-70.47 1202.22,-69.44 1205,-68.53 1257.66,-51.26 1320.13,-33.64 1354.37,-24.22"/>
<polygon fill="red" stroke="red" stroke-width="0.24" points="1355.73,-27.48 1364.45,-21.46 1353.88,-20.72 1355.73,-27.48"/>
</g>
<!-- &#45;7 -->
<g id="node7" class="node">
<title>&#45;7</title>
<polygon fill="lightgray" stroke="black" points="1640,-86.53 1614,-86.53 1614,-68.53 1640,-68.53 1640,-86.53"/>
<text text-anchor="middle" x="1627" y="-75.33" font-family="Times,serif" font-size="9.00">&#45;7</text>
</g>
<!-- &#45;7&#45;&gt;1 -->
<g id="edge38" class="edge">
<title>&#45;7&#45;&gt;1</title>
<path fill="none" stroke="red" stroke-width="0.63" d="M1613.59,-71.35C1610.78,-70.35 1607.81,-69.35 1605,-68.53 1533.94,-47.6 1448.15,-30.16 1405.98,-22.09"/>
<polygon fill="red" stroke="red" stroke-width="0.63" points="1406.47,-18.62 1396,-20.2 1405.17,-25.5 1406.47,-18.62"/>
</g>
<!-- &#45;7&#45;&gt;2 -->
<g id="edge16" class="edge">
<title>&#45;7&#45;&gt;2</title>
<path fill="none" stroke="green" stroke-width="0.43" d="M1613.66,-71.09C1610.84,-70.1 1607.85,-69.18 1605,-68.53 1514.45,-47.7 1226.26,-25.61 1137.37,-19.14"/>
<polygon fill="green" stroke="green" stroke-width="0.43" points="1137.54,-15.65 1127.31,-18.42 1137.04,-22.63 1137.54,-15.65"/>
</g>
<!-- &#45;8 -->
<g id="node8" class="node">
<title>&#45;8</title>
<polygon fill="lightgray" stroke="black" points="1684,-86.53 1658,-86.53 1658,-68.53 1684,-68.53 1684,-86.53"/>
<text text-anchor="middle" x="1671" y="-75.33" font-family="Times,serif" font-size="9.00">&#45;8</text>
</g>
<!-- &#45;8&#45;&gt;1 -->
<g id="edge37" class="edge">
<title>&#45;8&#45;&gt;1</title>
<path fill="none" stroke="green" stroke-width="0.64" d="M1657.61,-71.27C1654.8,-70.28 1651.82,-69.3 1649,-68.53 1561.21,-44.37 1454.22,-27.67 1405.9,-20.78"/>
<polygon fill="green" stroke="green" stroke-width="0.64" points="1406.36,-17.32 1395.97,-19.39 1405.39,-24.25 1406.36,-17.32"/>
</g>
<!-- &#45;8&#45;&gt;2 -->
<g id="edge18" class="edge">
<title>&#45;8&#45;&gt;2</title>
<path fill="none" stroke="green" stroke-width="0.57" d="M1657.67,-71.07C1654.84,-70.09 1651.85,-69.17 1649,-68.53 1549.52,-46.08 1231.03,-24.79 1137.23,-18.88"/>
<polygon fill="green" stroke="green" stroke-width="0.57" points="1137.37,-15.38 1127.17,-18.25 1136.93,-22.37 1137.37,-15.38"/>
</g>
<!-- &#45;9 -->
<g id="node9" class="node">
<title>&#45;9</title>
<polygon fill="lightgray" stroke="black" points="370,-86.53 344,-86.53 344,-68.53 370,-68.53 370,-86.53"/>
<text text-anchor="middle" x="357" y="-75.33" font-family="Times,serif" font-size="9.00">&#45;9</text>
</g>
<!-- &#45;9&#45;&gt;0 -->
<g id="edge6" class="edge">
<title>&#45;9&#45;&gt;0</title>
<path fill="none" stroke="red" stroke-width="0.31" d="M370.02,-71.77C372.97,-70.69 376.09,-69.57 379,-68.53 421.36,-53.39 470.76,-36.12 499.88,-25.99"/>
<polygon fill="red" stroke="red" stroke-width="0.31" points="501.34,-29.19 509.64,-22.6 499.04,-22.57 501.34,-29.19"/>
</g>
<!-- &#45;10 -->
<g id="node10" class="node">
<title>&#45;10</title>
<polygon fill="lightgray" stroke="black" points="420,-86.53 388,-86.53 388,-68.53 420,-68.53 420,-86.53"/>
<text text-anchor="middle" x="404" y="-75.33" font-family="Times,serif" font-size="9.00">&#45;10</text>
</g>
<!-- &#45;10&#45;&gt;0 -->
<g id="edge23" class="edge">
<title>&#45;10&#45;&gt;0</title>
<path fill="none" stroke="red" stroke-width="0.26" d="M420.32,-68.53C441.18,-58.32 477.46,-40.55 501.35,-28.85"/>
<polygon fill="red" stroke="red" stroke-width="0.26" points="503.01,-31.93 510.45,-24.39 499.93,-25.65 503.01,-31.93"/>
</g>
<!-- &#45;11 -->
<g id="node11" class="node">
<title>&#45;11</title>
<polygon fill="lightgray" stroke="black" points="470,-86.53 438,-86.53 438,-68.53 470,-68.53 470,-86.53"/>
<text text-anchor="middle" x="454" y="-75.33" font-family="Times,serif" font-size="9.00">&#45;11</text>
</g>
<!-- &#45;11&#45;&gt;0 -->
<g id="edge26" class="edge">
<title>&#45;11&#45;&gt;0</title>
<path fill="none" stroke="green" stroke-width="0.31" d="M463.87,-68.29C474.47,-59.44 491.61,-45.14 505.04,-33.92"/>
<polygon fill="green" stroke="green" stroke-width="0.31" points="507.4,-36.51 512.84,-27.42 502.92,-31.14 507.4,-36.51"/>
</g>
<!-- &#45;12 -->
<g id="node12" class="node">
<title>&#45;12</title>
<polygon fill="lightgray" stroke="black" points="32,-86.53 0,-86.53 0,-68.53 32,-68.53 32,-86.53"/>
<text text-anchor="middle" x="16" y="-75.33" font-family="Times,serif" font-size="9.00">&#45;12</text>
</g>
<!-- &#45;12&#45;&gt;0 -->
<g id="edge61" class="edge">
<title>&#45;12&#45;&gt;0</title>
<path fill="none" stroke="red" stroke-width="0.42" d="M32.01,-70.87C34.97,-69.98 38.06,-69.15 41,-68.53 212.84,-32.33 424.66,-21.12 498.29,-18.18"/>
<polygon fill="red" stroke="red" stroke-width="0.42" points="498.66,-21.67 508.52,-17.79 498.39,-14.67 498.66,-21.67"/>
</g>
<!-- &#45;13 -->
<g id="node13" class="node">
<title>&#45;13</title>
<polygon fill="lightgray" stroke="black" points="1734,-86.53 1702,-86.53 1702,-68.53 1734,-68.53 1734,-86.53"/>
<text text-anchor="middle" x="1718" y="-75.33" font-family="Times,serif" font-size="9.00">&#45;13</text>
</g>
<!-- &#45;13&#45;&gt;1 -->
<g id="edge39" class="edge">
<title>&#45;13&#45;&gt;1</title>
<path fill="none" stroke="red" stroke-width="0.35" d="M1701.96,-71.01C1699,-70.1 1695.92,-69.23 1693,-68.53 1588.07,-43.29 1460.34,-26.65 1406.23,-20.23"/>
<polygon fill="red" stroke="red" stroke-width="0.35" points="1406.47,-16.74 1396.13,-19.05 1405.65,-23.69 1406.47,-16.74"/>
</g>
<!-- &#45;13&#45;&gt;2 -->
<g id="edge22" class="edge">
<title>&#45;13&#45;&gt;2</title>
<path fill="none" stroke="green" stroke-width="0.11" d="M1701.73,-70.75C1698.85,-69.89 1695.86,-69.1 1693,-68.53 1584.22,-46.61 1236.25,-24.71 1137.41,-18.81"/>
<polygon fill="green" stroke="green" stroke-width="0.11" points="1137.56,-15.31 1127.37,-18.21 1137.14,-22.3 1137.56,-15.31"/>
</g>
<!-- &#45;14 -->
<g id="node14" class="node">
<title>&#45;14</title>
<polygon fill="lightgray" stroke="black" points="1828,-86.53 1796,-86.53 1796,-68.53 1828,-68.53 1828,-86.53"/>
<text text-anchor="middle" x="1812" y="-75.33" font-family="Times,serif" font-size="9.00">&#45;14</text>
</g>
<!-- &#45;14&#45;&gt;1 -->
<g id="edge40" class="edge">
<title>&#45;14&#45;&gt;1</title>
<path fill="none" stroke="red" stroke-width="0.32" d="M1795.98,-70.92C1793.02,-70.02 1789.94,-69.18 1787,-68.53 1645.67,-37.29 1472.21,-23.34 1406.72,-18.92"/>
<polygon fill="red" stroke="red" stroke-width="0.32" points="1406.68,-15.41 1396.47,-18.24 1406.22,-22.39 1406.68,-15.41"/>
</g>
<!-- &#45;15 -->
<g id="node15" class="node">
<title>&#45;15</title>
<polygon fill="lightgray" stroke="black" points="1102,-86.53 1070,-86.53 1070,-68.53 1102,-68.53 1102,-86.53"/>
<text text-anchor="middle" x="1086" y="-75.33" font-family="Times,serif" font-size="9.00">&#45;15</text>
</g>
<!-- &#45;15&#45;&gt;2 -->
<g id="edge51" class="edge">
<title>&#45;15&#45;&gt;2</title>
<path fill="none" stroke="red" stroke-width="0.25" d="M1089.48,-68.29C1092.45,-61.23 1096.9,-50.7 1100.97,-41.03"/>
<polygon fill="red" stroke="red" stroke-width="0.25" points="1104.2,-42.39 1104.86,-31.82 1097.75,-39.67 1104.2,-42.39"/>
</g>
<!-- &#45;16 -->
<g id="node16" class="node">
<title>&#45;16</title>
<polygon fill="lightgray" stroke="black" points="82,-86.53 50,-86.53 50,-68.53 82,-68.53 82,-86.53"/>
<text text-anchor="middle" x="66" y="-75.33" font-family="Times,serif" font-size="9.00">&#45;16</text>
</g>
<!-- &#45;16&#45;&gt;0 -->
<g id="edge3" class="edge">
<title>&#45;16&#45;&gt;0</title>
<path fill="none" stroke="green" stroke-width="0.46" d="M82.01,-70.9C84.98,-70.01 88.06,-69.16 91,-68.53 243.06,-35.54 430.02,-22.5 498.37,-18.63"/>
<polygon fill="green" stroke="green" stroke-width="0.46" points="498.86,-22.1 508.66,-18.06 498.48,-15.11 498.86,-22.1"/>
</g>
<!-- &#45;17 -->
<g id="node17" class="node">
<title>&#45;17</title>
<polygon fill="lightgray" stroke="black" points="1346,-86.53 1314,-86.53 1314,-68.53 1346,-68.53 1346,-86.53"/>
<text text-anchor="middle" x="1330" y="-75.33" font-family="Times,serif" font-size="9.00">&#45;17</text>
</g>
<!-- &#45;17&#45;&gt;1 -->
<g id="edge12" class="edge">
<title>&#45;17&#45;&gt;1</title>
<path fill="none" stroke="green" stroke-width="0.25" d="M1336.95,-68.29C1343.79,-60.18 1354.5,-47.49 1363.52,-36.79"/>
<polygon fill="green" stroke="green" stroke-width="0.25" points="1366.23,-39.01 1370,-29.11 1360.88,-34.5 1366.23,-39.01"/>
</g>
<!-- &#45;17&#45;&gt;2 -->
<g id="edge57" class="edge">
<title>&#45;17&#45;&gt;2</title>
<path fill="none" stroke="red" stroke-width="0.22" d="M1313.9,-71.24C1310.95,-70.31 1307.89,-69.37 1305,-68.53 1245.04,-51.02 1173.9,-32.89 1136.66,-23.6"/>
<polygon fill="red" stroke="red" stroke-width="0.22" points="1137.22,-20.13 1126.67,-21.11 1135.53,-26.92 1137.22,-20.13"/>
</g>
<!-- &#45;18 -->
<g id="node18" class="node">
<title>&#45;18</title>
<polygon fill="lightgray" stroke="black" points="1396,-86.53 1364,-86.53 1364,-68.53 1396,-68.53 1396,-86.53"/>
<text text-anchor="middle" x="1380" y="-75.33" font-family="Times,serif" font-size="9.00">&#45;18</text>
</g>
<!-- &#45;18&#45;&gt;1 -->
<g id="edge28" class="edge">
<title>&#45;18&#45;&gt;1</title>
<path fill="none" stroke="red" stroke-width="0.14" d="M1380,-68.29C1380,-61.7 1380,-52.1 1380,-43"/>
<polygon fill="red" stroke="red" stroke-width="0.14" points="1383.5,-42.76 1380,-32.76 1376.5,-42.76 1383.5,-42.76"/>
</g>
<!-- &#45;18&#45;&gt;2 -->
<g id="edge24" class="edge">
<title>&#45;18&#45;&gt;2</title>
<path fill="none" stroke="red" stroke-width="0.12" d="M1363.93,-71.12C1360.98,-70.2 1357.91,-69.3 1355,-68.53 1276.32,-47.73 1181.61,-29.83 1136.85,-21.79"/>
<polygon fill="red" stroke="red" stroke-width="0.12" points="1137.29,-18.32 1126.83,-20.01 1136.06,-25.21 1137.29,-18.32"/>
</g>
<!-- &#45;19 -->
<g id="node19" class="node">
<title>&#45;19</title>
<polygon fill="lightgray" stroke="black" points="1246,-86.53 1214,-86.53 1214,-68.53 1246,-68.53 1246,-86.53"/>
<text text-anchor="middle" x="1230" y="-75.33" font-family="Times,serif" font-size="9.00">&#45;19</text>
</g>
<!-- &#45;19&#45;&gt;0 -->
<g id="edge44" class="edge">
<title>&#45;19&#45;&gt;0</title>
<path fill="none" stroke="green" stroke-width="0.32" d="M1213.74,-70.72C1210.86,-69.86 1207.86,-69.08 1205,-68.53 954.03,-19.62 642.55,-16.75 551.27,-17.04"/>
<polygon fill="green" stroke="green" stroke-width="0.32" points="551.23,-13.54 541.25,-17.09 551.27,-20.54 551.23,-13.54"/>
</g>
<!-- &#45;19&#45;&gt;1 -->
<g id="edge30" class="edge">
<title>&#45;19&#45;&gt;1</title>
<path fill="none" stroke="green" stroke-width="0.15" d="M1246.05,-70.18C1272.26,-59.83 1324.42,-39.22 1355.35,-27"/>
<polygon fill="green" stroke="green" stroke-width="0.15" points="1356.94,-30.14 1364.96,-23.21 1354.37,-23.63 1356.94,-30.14"/>
</g>
<!-- &#45;20 -->
<g id="node20" class="node">
<title>&#45;20</title>
<polygon fill="lightgray" stroke="black" points="1296,-86.53 1264,-86.53 1264,-68.53 1296,-68.53 1296,-86.53"/>
<text text-anchor="middle" x="1280" y="-75.33" font-family="Times,serif" font-size="9.00">&#45;20</text>
</g>
<!-- &#45;20&#45;&gt;0 -->
<g id="edge11" class="edge">
<title>&#45;20&#45;&gt;0</title>
<path fill="none" stroke="red" stroke-width="0.32" d="M1263.74,-70.71C1260.86,-69.85 1257.86,-69.08 1255,-68.53 984.07,-16.45 647.52,-15.84 551.61,-16.85"/>
<polygon fill="red" stroke="red" stroke-width="0.32" points="551.33,-13.35 541.37,-16.97 551.41,-20.35 551.33,-13.35"/>
</g>
<!-- &#45;20&#45;&gt;1 -->
<g id="edge15" class="edge">
<title>&#45;20&#45;&gt;1</title>
<path fill="none" stroke="red" stroke-width="0.31" d="M1293.9,-68.29C1310.32,-58.56 1337.86,-42.24 1357.37,-30.68"/>
<polygon fill="red" stroke="red" stroke-width="0.31" points="1359.4,-33.54 1366.21,-25.43 1355.83,-27.52 1359.4,-33.54"/>
</g>
<!-- &#45;20&#45;&gt;2 -->
<g id="edge49" class="edge">
<title>&#45;20&#45;&gt;2</title>
<path fill="none" stroke="red" stroke-width="0.13" d="M1263.8,-70.84C1234.17,-60.46 1171.09,-38.33 1135.95,-26.01"/>
<polygon fill="red" stroke="red" stroke-width="0.13" points="1137.01,-22.68 1126.42,-22.67 1134.7,-29.28 1137.01,-22.68"/>
</g>
<!-- &#45;21 -->
<g id="node21" class="node">
<title>&#45;21</title>
<polygon fill="lightgray" stroke="black" points="1878,-86.53 1846,-86.53 1846,-68.53 1878,-68.53 1878,-86.53"/>
<text text-anchor="middle" x="1862" y="-75.33" font-family="Times,serif" font-size="9.00">&#45;21</text>
</g>
<!-- &#45;22 -->
<g id="node22" class="node">
<title>&#45;22</title>
<polygon fill="lightgray" stroke="black" points="1446,-86.53 1414,-86.53 1414,-68.53 1446,-68.53 1446,-86.53"/>
<text text-anchor="middle" x="1430" y="-75.33" font-family="Times,serif" font-size="9.00">&#45;22</text>
</g>
<!-- &#45;22&#45;&gt;1 -->
<g id="edge55" class="edge">
<title>&#45;22&#45;&gt;1</title>
<path fill="none" stroke="red" stroke-width="0.16" d="M1423.05,-68.29C1416.21,-60.18 1405.5,-47.49 1396.48,-36.79"/>
<polygon fill="red" stroke="red" stroke-width="0.16" points="1399.12,-34.5 1390,-29.11 1393.77,-39.01 1399.12,-34.5"/>
</g>
<!-- &#45;22&#45;&gt;2 -->
<g id="edge8" class="edge">
<title>&#45;22&#45;&gt;2</title>
<path fill="none" stroke="green" stroke-width="0.17" d="M1413.95,-71.04C1411,-70.12 1407.92,-69.25 1405,-68.53 1307.3,-44.5 1188.65,-27.43 1137.06,-20.58"/>
<polygon fill="green" stroke="green" stroke-width="0.17" points="1137.46,-17.11 1127.09,-19.28 1136.56,-24.05 1137.46,-17.11"/>
</g>
<!-- &#45;23 -->
<g id="node23" class="node">
<title>&#45;23</title>
<polygon fill="lightgray" stroke="black" points="714,-86.53 682,-86.53 682,-68.53 714,-68.53 714,-86.53"/>
<text text-anchor="middle" x="698" y="-75.33" font-family="Times,serif" font-size="9.00">&#45;23</text>
</g>
<!-- &#45;23&#45;&gt;0 -->
<g id="edge9" class="edge">
<title>&#45;23&#45;&gt;0</title>
<path fill="none" stroke="green" stroke-width="0.47" d="M681.72,-70.95C651.41,-60.57 586.11,-38.2 550.1,-25.86"/>
<polygon fill="green" stroke="green" stroke-width="0.47" points="550.95,-22.45 540.36,-22.53 548.69,-29.08 550.95,-22.45"/>
</g>
<!-- &#45;23&#45;&gt;1 -->
<g id="edge46" class="edge">
<title>&#45;23&#45;&gt;1</title>
<path fill="none" stroke="red" stroke-width="0.22" d="M714.26,-70.72C717.14,-69.87 720.14,-69.09 723,-68.53 785.67,-56.23 1238.88,-26.38 1353.64,-18.96"/>
<polygon fill="red" stroke="red" stroke-width="0.22" points="1353.91,-22.45 1363.67,-18.31 1353.46,-15.46 1353.91,-22.45"/>
</g>
<!-- &#45;23&#45;&gt;2 -->
<g id="edge42" class="edge">
<title>&#45;23&#45;&gt;2</title>
<path fill="none" stroke="red" stroke-width="0.42" d="M714.02,-70.94C716.98,-70.04 720.07,-69.18 723,-68.53 856.85,-38.52 1020.88,-23.96 1084.25,-19.14"/>
<polygon fill="red" stroke="red" stroke-width="0.42" points="1084.84,-22.61 1094.55,-18.38 1084.32,-15.63 1084.84,-22.61"/>
</g>
<!-- &#45;24 -->
<g id="node24" class="node">
<title>&#45;24</title>
<polygon fill="lightgray" stroke="black" points="1928,-86.53 1896,-86.53 1896,-68.53 1928,-68.53 1928,-86.53"/>
<text text-anchor="middle" x="1912" y="-75.33" font-family="Times,serif" font-size="9.00">&#45;24</text>
</g>
<!-- &#45;25 -->
<g id="node25" class="node">
<title>&#45;25</title>
<polygon fill="lightgray" stroke="black" points="564,-86.53 532,-86.53 532,-68.53 564,-68.53 564,-86.53"/>
<text text-anchor="middle" x="548" y="-75.33" font-family="Times,serif" font-size="9.00">&#45;25</text>
</g>
<!-- &#45;25&#45;&gt;0 -->
<g id="edge45" class="edge">
<title>&#45;25&#45;&gt;0</title>
<path fill="none" stroke="green" stroke-width="0.47" d="M544.8,-68.29C542.09,-61.3 538.06,-50.91 534.34,-41.33"/>
<polygon fill="green" stroke="green" stroke-width="0.47" points="537.53,-39.87 530.65,-31.82 531,-42.41 537.53,-39.87"/>
</g>
<!-- &#45;25&#45;&gt;2 -->
<g id="edge19" class="edge">
<title>&#45;25&#45;&gt;2</title>
<path fill="none" stroke="red" stroke-width="0.17" d="M564,-70.85C566.96,-69.96 570.05,-69.13 573,-68.53 766.56,-28.82 1005.74,-19.75 1084.5,-17.78"/>
<polygon fill="red" stroke="red" stroke-width="0.17" points="1084.61,-21.28 1094.52,-17.55 1084.45,-14.28 1084.61,-21.28"/>
</g>
<!-- &#45;26 -->
<g id="node26" class="node">
<title>&#45;26</title>
<polygon fill="lightgray" stroke="black" points="1496,-86.53 1464,-86.53 1464,-68.53 1496,-68.53 1496,-86.53"/>
<text text-anchor="middle" x="1480" y="-75.33" font-family="Times,serif" font-size="9.00">&#45;26</text>
</g>
<!-- &#45;26&#45;&gt;1 -->
<g id="edge62" class="edge">
<title>&#45;26&#45;&gt;1</title>
<path fill="none" stroke="red" stroke-width="0.16" d="M1466.1,-68.29C1449.68,-58.56 1422.14,-42.24 1402.63,-30.68"/>
<polygon fill="red" stroke="red" stroke-width="0.16" points="1404.17,-27.52 1393.79,-25.43 1400.6,-33.54 1404.17,-27.52"/>
</g>
<!-- &#45;26&#45;&gt;2 -->
<g id="edge10" class="edge">
<title>&#45;26&#45;&gt;2</title>
<path fill="none" stroke="green" stroke-width="0.39" d="M1463.97,-70.98C1461.01,-70.07 1457.93,-69.21 1455,-68.53 1338.15,-41.31 1195.46,-25.46 1137.43,-19.73"/>
<polygon fill="green" stroke="green" stroke-width="0.39" points="1137.59,-16.23 1127.29,-18.75 1136.91,-23.19 1137.59,-16.23"/>
</g>
<!-- &#45;27 -->
<g id="node27" class="node">
<title>&#45;27</title>
<polygon fill="lightgray" stroke="black" points="764,-86.53 732,-86.53 732,-68.53 764,-68.53 764,-86.53"/>
<text text-anchor="middle" x="748" y="-75.33" font-family="Times,serif" font-size="9.00">&#45;27</text>
</g>
<!-- &#45;27&#45;&gt;0 -->
<g id="edge33" class="edge">
<title>&#45;27&#45;&gt;0</title>
<path fill="none" stroke="red" stroke-width="0.13" d="M731.9,-71.23C728.95,-70.3 725.89,-69.36 723,-68.53 661.68,-50.79 588.85,-32.69 550.91,-23.48"/>
<polygon fill="red" stroke="red" stroke-width="0.13" points="551.28,-19.97 540.74,-21.02 549.64,-26.77 551.28,-19.97"/>
</g>
<!-- &#45;27&#45;&gt;1 -->
<g id="edge29" class="edge">
<title>&#45;27&#45;&gt;1</title>
<path fill="none" stroke="red" stroke-width="0.19" d="M764.27,-70.74C767.15,-69.88 770.14,-69.1 773,-68.53 830.53,-57.05 1244.31,-26.96 1353.59,-19.14"/>
<polygon fill="red" stroke="red" stroke-width="0.19" points="1354.02,-22.62 1363.75,-18.42 1353.52,-15.64 1354.02,-22.62"/>
</g>
<!-- &#45;27&#45;&gt;2 -->
<g id="edge52" class="edge">
<title>&#45;27&#45;&gt;2</title>
<path fill="none" stroke="green" stroke-width="0.2" d="M764.03,-70.98C766.99,-70.08 770.07,-69.21 773,-68.53 887.55,-41.69 1027.36,-25.68 1084.63,-19.82"/>
<polygon fill="green" stroke="green" stroke-width="0.2" points="1085.04,-23.29 1094.64,-18.81 1084.34,-16.33 1085.04,-23.29"/>
</g>
<!-- &#45;28 -->
<g id="node28" class="node">
<title>&#45;28</title>
<polygon fill="lightgray" stroke="black" points="1152,-86.53 1120,-86.53 1120,-68.53 1152,-68.53 1152,-86.53"/>
<text text-anchor="middle" x="1136" y="-75.33" font-family="Times,serif" font-size="9.00">&#45;28</text>
</g>
<!-- &#45;28&#45;&gt;2 -->
<g id="edge14" class="edge">
<title>&#45;28&#45;&gt;2</title>
<path fill="none" stroke="green" stroke-width="0.46" d="M1132.52,-68.29C1129.55,-61.23 1125.1,-50.7 1121.03,-41.03"/>
<polygon fill="green" stroke="green" stroke-width="0.46" points="1124.25,-39.67 1117.14,-31.82 1117.8,-42.39 1124.25,-39.67"/>
</g>
<!-- &#45;29 -->
<g id="node29" class="node">
<title>&#45;29</title>
<polygon fill="lightgray" stroke="black" points="132,-86.53 100,-86.53 100,-68.53 132,-68.53 132,-86.53"/>
<text text-anchor="middle" x="116" y="-75.33" font-family="Times,serif" font-size="9.00">&#45;29</text>
</g>
<!-- &#45;29&#45;&gt;0 -->
<g id="edge25" class="edge">
<title>&#45;29&#45;&gt;0</title>
<path fill="none" stroke="green" stroke-width="0.28" d="M132.02,-70.94C134.98,-70.04 138.07,-69.19 141,-68.53 273.47,-38.74 435.81,-24.05 498.53,-19.17"/>
<polygon fill="green" stroke="green" stroke-width="0.28" points="499.02,-22.65 508.72,-18.4 498.49,-15.67 499.02,-22.65"/>
</g>
<!-- &#45;30 -->
<g id="node30" class="node">
<title>&#45;30</title>
<polygon fill="lightgray" stroke="black" points="1978,-86.53 1946,-86.53 1946,-68.53 1978,-68.53 1978,-86.53"/>
<text text-anchor="middle" x="1962" y="-75.33" font-family="Times,serif" font-size="9.00">&#45;30</text>
</g>
<!-- &#45;31 -->
<g id="node31" class="node">
<title>&#45;31</title>
<polygon fill="lightgray" stroke="black" points="614,-86.53 582,-86.53 582,-68.53 614,-68.53 614,-86.53"/>
<text text-anchor="middle" x="598" y="-75.33" font-family="Times,serif" font-size="9.00">&#45;31</text>
</g>
<!-- &#45;31&#45;&gt;0 -->
<g id="edge5" class="edge">
<title>&#45;31&#45;&gt;0</title>
<path fill="none" stroke="red" stroke-width="0.22" d="M587.85,-68.29C576.95,-59.44 559.33,-45.14 545.52,-33.92"/>
<polygon fill="red" stroke="red" stroke-width="0.22" points="547.48,-31 537.51,-27.42 543.07,-36.44 547.48,-31"/>
</g>
<!-- &#45;31&#45;&gt;2 -->
<g id="edge54" class="edge">
<title>&#45;31&#45;&gt;2</title>
<path fill="none" stroke="green" stroke-width="0.32" d="M614.01,-70.87C616.97,-69.98 620.06,-69.15 623,-68.53 796.26,-32.11 1009.83,-21.03 1084.07,-18.16"/>
<polygon fill="green" stroke="green" stroke-width="0.32" points="1084.52,-21.64 1094.38,-17.78 1084.26,-14.65 1084.52,-21.64"/>
</g>
<!-- &#45;32 -->
<g id="node32" class="node">
<title>&#45;32</title>
<polygon fill="lightgray" stroke="black" points="814,-86.53 782,-86.53 782,-68.53 814,-68.53 814,-86.53"/>
<text text-anchor="middle" x="798" y="-75.33" font-family="Times,serif" font-size="9.00">&#45;32</text>
</g>
<!-- &#45;32&#45;&gt;0 -->
<g id="edge20" class="edge">
<title>&#45;32&#45;&gt;0</title>
<path fill="none" stroke="green" stroke-width="0.22" d="M781.94,-71.11C778.98,-70.19 775.91,-69.29 773,-68.53 692.89,-47.49 596.37,-29.65 550.99,-21.7"/>
<polygon fill="green" stroke="green" stroke-width="0.22" points="551.55,-18.24 541.09,-19.98 550.35,-25.14 551.55,-18.24"/>
</g>
<!-- &#45;32&#45;&gt;1 -->
<g id="edge58" class="edge">
<title>&#45;32&#45;&gt;1</title>
<path fill="none" stroke="green" stroke-width="0.14" d="M814,-70.84C816.96,-69.95 820.05,-69.13 823,-68.53 926.77,-47.41 1257.99,-25.07 1353.81,-18.91"/>
<polygon fill="green" stroke="green" stroke-width="0.14" points="1354.05,-22.41 1363.81,-18.28 1353.61,-15.42 1354.05,-22.41"/>
</g>
<!-- &#45;33 -->
<g id="node33" class="node">
<title>&#45;33</title>
<polygon fill="lightgray" stroke="black" points="2028,-86.53 1996,-86.53 1996,-68.53 2028,-68.53 2028,-86.53"/>
<text text-anchor="middle" x="2012" y="-75.33" font-family="Times,serif" font-size="9.00">&#45;33</text>
</g>
<!-- &#45;34 -->
<g id="node34" class="node">
<title>&#45;34</title>
<polygon fill="lightgray" stroke="black" points="964,-86.53 932,-86.53 932,-68.53 964,-68.53 964,-86.53"/>
<text text-anchor="middle" x="948" y="-75.33" font-family="Times,serif" font-size="9.00">&#45;34</text>
</g>
<!-- &#45;34&#45;&gt;2 -->
<g id="edge7" class="edge">
<title>&#45;34&#45;&gt;2</title>
<path fill="none" stroke="green" stroke-width="0.49" d="M964.22,-70.63C992.83,-60.23 1052.4,-38.57 1086.2,-26.28"/>
<polygon fill="green" stroke="green" stroke-width="0.49" points="1087.59,-29.5 1095.79,-22.79 1085.2,-22.92 1087.59,-29.5"/>
</g>
<!-- &#45;35 -->
<g id="node35" class="node">
<title>&#45;35</title>
<polygon fill="lightgray" stroke="black" points="182,-86.53 150,-86.53 150,-68.53 182,-68.53 182,-86.53"/>
<text text-anchor="middle" x="166" y="-75.33" font-family="Times,serif" font-size="9.00">&#45;35</text>
</g>
<!-- &#45;35&#45;&gt;0 -->
<g id="edge35" class="edge">
<title>&#45;35&#45;&gt;0</title>
<path fill="none" stroke="green" stroke-width="0.26" d="M182.03,-70.99C184.99,-70.08 188.07,-69.22 191,-68.53 303.96,-41.96 441.77,-25.84 498.59,-19.89"/>
<polygon fill="green" stroke="green" stroke-width="0.26" points="499.25,-23.34 508.84,-18.83 498.53,-16.37 499.25,-23.34"/>
</g>
<!-- &#45;36 -->
<g id="node36" class="node">
<title>&#45;36</title>
<polygon fill="lightgray" stroke="black" points="1546,-86.53 1514,-86.53 1514,-68.53 1546,-68.53 1546,-86.53"/>
<text text-anchor="middle" x="1530" y="-75.33" font-family="Times,serif" font-size="9.00">&#45;36</text>
</g>
<!-- &#45;36&#45;&gt;1 -->
<g id="edge59" class="edge">
<title>&#45;36&#45;&gt;1</title>
<path fill="none" stroke="green" stroke-width="0.17" d="M1513.95,-70.18C1487.74,-59.83 1435.58,-39.22 1404.65,-27"/>
<polygon fill="green" stroke="green" stroke-width="0.17" points="1405.63,-23.63 1395.04,-23.21 1403.06,-30.14 1405.63,-23.63"/>
</g>
<!-- &#45;36&#45;&gt;2 -->
<g id="edge2" class="edge">
<title>&#45;36&#45;&gt;2</title>
<path fill="none" stroke="red" stroke-width="0.18" d="M1513.98,-70.93C1511.02,-70.03 1507.94,-69.18 1505,-68.53 1368.49,-38.07 1201.05,-23.7 1137.31,-19.04"/>
<polygon fill="red" stroke="red" stroke-width="0.18" points="1137.54,-15.55 1127.32,-18.33 1137.05,-22.53 1137.54,-15.55"/>
</g>
<!-- &#45;37 -->
<g id="node37" class="node">
<title>&#45;37</title>
<polygon fill="lightgray" stroke="black" points="864,-86.53 832,-86.53 832,-68.53 864,-68.53 864,-86.53"/>
<text text-anchor="middle" x="848" y="-75.33" font-family="Times,serif" font-size="9.00">&#45;37</text>
</g>
<!-- &#45;37&#45;&gt;0 -->
<g id="edge41" class="edge">
<title>&#45;37&#45;&gt;0</title>
<path fill="none" stroke="red" stroke-width="0.26" d="M831.96,-71.03C829,-70.12 825.92,-69.24 823,-68.53 723.98,-44.29 603.72,-27.33 551.41,-20.55"/>
<polygon fill="red" stroke="red" stroke-width="0.26" points="551.68,-17.05 541.31,-19.26 550.79,-24 551.68,-17.05"/>
</g>
<!-- &#45;37&#45;&gt;1 -->
<g id="edge48" class="edge">
<title>&#45;37&#45;&gt;1</title>
<path fill="none" stroke="green" stroke-width="0.34" d="M864.01,-70.86C866.97,-69.97 870.06,-69.14 873,-68.53 966.54,-49.06 1263.15,-25.95 1353.57,-19.2"/>
<polygon fill="green" stroke="green" stroke-width="0.34" points="1354.07,-22.67 1363.78,-18.44 1353.55,-15.69 1354.07,-22.67"/>
</g>
<!-- &#45;38 -->
<g id="node38" class="node">
<title>&#45;38</title>
<polygon fill="lightgray" stroke="black" points="664,-86.53 632,-86.53 632,-68.53 664,-68.53 664,-86.53"/>
<text text-anchor="middle" x="648" y="-75.33" font-family="Times,serif" font-size="9.00">&#45;38</text>
</g>
<!-- &#45;38&#45;&gt;0 -->
<g id="edge43" class="edge">
<title>&#45;38&#45;&gt;0</title>
<path fill="none" stroke="red" stroke-width="0.27" d="M631.92,-68.78C610.74,-58.58 573.33,-40.55 548.86,-28.76"/>
<polygon fill="red" stroke="red" stroke-width="0.27" points="550.08,-25.46 539.55,-24.27 547.04,-31.77 550.08,-25.46"/>
</g>
<!-- &#45;38&#45;&gt;2 -->
<g id="edge63" class="edge">
<title>&#45;38&#45;&gt;2</title>
<path fill="none" stroke="red" stroke-width="0.29" d="M664.01,-70.9C666.97,-70 670.06,-69.16 673,-68.53 826.46,-35.32 1015.14,-22.42 1084.12,-18.6"/>
<polygon fill="red" stroke="red" stroke-width="0.29" points="1084.71,-22.07 1094.51,-18.04 1084.33,-15.08 1084.71,-22.07"/>
</g>
<!-- &#45;39 -->
<g id="node39" class="node">
<title>&#45;39</title>
<polygon fill="lightgray" stroke="black" points="914,-86.53 882,-86.53 882,-68.53 914,-68.53 914,-86.53"/>
<text text-anchor="middle" x="898" y="-75.33" font-family="Times,serif" font-size="9.00">&#45;39</text>
</g>
<!-- &#45;39&#45;&gt;0 -->
<g id="edge36" class="edge">
<title>&#45;39&#45;&gt;0</title>
<path fill="none" stroke="red" stroke-width="0.26" d="M881.97,-70.97C879.01,-70.07 875.93,-69.21 873,-68.53 754.52,-41.04 609.76,-25.29 551.32,-19.66"/>
<polygon fill="red" stroke="red" stroke-width="0.26" points="551.42,-16.15 541.13,-18.69 550.76,-23.12 551.42,-16.15"/>
</g>
<!-- &#45;39&#45;&gt;1 -->
<g id="edge60" class="edge">
<title>&#45;39&#45;&gt;1</title>
<path fill="none" stroke="green" stroke-width="0.26" d="M914.01,-70.89C916.97,-69.99 920.06,-69.16 923,-68.53 1084.18,-34.05 1282.62,-21.84 1353.39,-18.41"/>
<polygon fill="green" stroke="green" stroke-width="0.26" points="1353.8,-21.89 1363.62,-17.93 1353.47,-14.9 1353.8,-21.89"/>
</g>
<!-- &#45;39&#45;&gt;2 -->
<g id="edge31" class="edge">
<title>&#45;39&#45;&gt;2</title>
<path fill="none" stroke="red" stroke-width="0.18" d="M914.11,-71.26C917.06,-70.33 920.12,-69.38 923,-68.53 980.87,-51.39 1049.38,-33.24 1085.6,-23.82"/>
<polygon fill="red" stroke="red" stroke-width="0.18" points="1086.54,-27.19 1095.34,-21.29 1084.78,-20.41 1086.54,-27.19"/>
</g>
<!-- &#45;40 -->
<g id="node40" class="node">
<title>&#45;40</title>
<polygon fill="lightgray" stroke="black" points="1596,-86.53 1564,-86.53 1564,-68.53 1596,-68.53 1596,-86.53"/>
<text text-anchor="middle" x="1580" y="-75.33" font-family="Times,serif" font-size="9.00">&#45;40</text>
</g>
<!-- &#45;40&#45;&gt;1 -->
<g id="edge50" class="edge">
<title>&#45;40&#45;&gt;1</title>
<path fill="none" stroke="green" stroke-width="0.28" d="M1563.88,-71.3C1560.93,-70.37 1557.88,-69.41 1555,-68.53 1502.01,-52.29 1439.66,-34.29 1405.53,-24.53"/>
<polygon fill="green" stroke="green" stroke-width="0.28" points="1406.07,-21.04 1395.49,-21.66 1404.14,-27.77 1406.07,-21.04"/>
</g>
<!-- &#45;40&#45;&gt;2 -->
<g id="edge1" class="edge">
<title>&#45;40&#45;&gt;2</title>
<path fill="none" stroke="red" stroke-width="0.24" d="M1563.99,-70.9C1561.03,-70 1557.94,-69.16 1555,-68.53 1398.76,-34.84 1206.5,-22.18 1137.33,-18.51"/>
<polygon fill="red" stroke="red" stroke-width="0.24" points="1137.48,-15.02 1127.31,-18 1137.12,-22.01 1137.48,-15.02"/>
</g>
<!-- &#45;41 -->
<g id="node41" class="node">
<title>&#45;41</title>
<polygon fill="lightgray" stroke="black" points="232,-86.53 200,-86.53 200,-68.53 232,-68.53 232,-86.53"/>
<text text-anchor="middle" x="216" y="-75.33" font-family="Times,serif" font-size="9.00">&#45;41</text>
</g>
<!-- &#45;41&#45;&gt;0 -->
<g id="edge34" class="edge">
<title>&#45;41&#45;&gt;0</title>
<path fill="none" stroke="red" stroke-width="0.4" d="M232.05,-71.05C235.01,-70.14 238.08,-69.25 241,-68.53 334.76,-45.17 448.42,-27.91 498.8,-20.82"/>
<polygon fill="red" stroke="red" stroke-width="0.4" points="499.41,-24.27 508.83,-19.42 498.44,-17.33 499.41,-24.27"/>
</g>
<!-- &#45;42 -->
<g id="node42" class="node">
<title>&#45;42</title>
<polygon fill="lightgray" stroke="black" points="282,-86.53 250,-86.53 250,-68.53 282,-68.53 282,-86.53"/>
<text text-anchor="middle" x="266" y="-75.33" font-family="Times,serif" font-size="9.00">&#45;42</text>
</g>
<!-- &#45;42&#45;&gt;0 -->
<g id="edge21" class="edge">
<title>&#45;42&#45;&gt;0</title>
<path fill="none" stroke="green" stroke-width="0.15" d="M282.07,-71.14C285.03,-70.22 288.1,-69.31 291,-68.53 365.79,-48.42 455.59,-30.44 498.99,-22.13"/>
<polygon fill="green" stroke="green" stroke-width="0.15" points="499.82,-25.54 508.99,-20.23 498.51,-18.66 499.82,-25.54"/>
</g>
<!-- 1&#45;&gt;1 -->
<g id="edge13" class="edge">
<title>1&#45;&gt;1</title>
<path fill="none" stroke="green" stroke-width="0.12" d="M1393.36,-26.06C1403.71,-29.72 1414.26,-26.46 1414.26,-16.26 1414.26,-9.57 1409.72,-5.87 1403.67,-5.14"/>
<polygon fill="green" stroke="green" stroke-width="0.12" points="1402.84,-1.72 1393.36,-6.47 1403.73,-8.67 1402.84,-1.72"/>
</g>
</g>
</svg>
