<?xml version="1.0" encoding="utf-8" standalone="no"?>
<!DOCTYPE svg PUBLIC "-//W3C//DTD SVG 1.1//EN"
  "http://www.w3.org/Graphics/SVG/1.1/DTD/svg11.dtd">
<svg xmlns:xlink="http://www.w3.org/1999/xlink" width="460.8pt" height="345.6pt" viewBox="0 0 460.8 345.6" xmlns="http://www.w3.org/2000/svg" version="1.1">
 <metadata>
  <rdf:RDF xmlns:dc="http://purl.org/dc/elements/1.1/" xmlns:cc="http://creativecommons.org/ns#" xmlns:rdf="http://www.w3.org/1999/02/22-rdf-syntax-ns#">
   <cc:Work>
    <dc:type rdf:resource="http://purl.org/dc/dcmitype/StillImage"/>
    <dc:date>2024-08-16T09:34:53.002177</dc:date>
    <dc:format>image/svg+xml</dc:format>
    <dc:creator>
     <cc:Agent>
      <dc:title>Matplotlib v3.8.4, https://matplotlib.org/</dc:title>
     </cc:Agent>
    </dc:creator>
   </cc:Work>
  </rdf:RDF>
 </metadata>
 <defs>
  <style type="text/css">*{stroke-linejoin: round; stroke-linecap: butt}</style>
 </defs>
 <g id="figure_1">
  <g id="patch_1">
   <path d="M 0 345.6 
L 460.8 345.6 
L 460.8 0 
L 0 0 
z
" style="fill: #ffffff"/>
  </g>
  <g id="axes_1">
   <g id="patch_2">
    <path d="M 57.6 307.584 
L 414.72 307.584 
L 414.72 41.472 
L 57.6 41.472 
z
" style="fill: #ffffff"/>
   </g>
   <g id="PolyCollection_1">
    <path d="M 73.832727 252.523553 
L 73.832727 307.584 
L 83.670744 307.584 
L 93.50876 307.584 
L 103.346777 307.584 
L 113.184793 307.584 
L 123.02281 307.584 
L 132.860826 307.584 
L 142.698843 307.584 
L 152.53686 307.584 
L 162.374876 307.584 
L 172.212893 307.584 
L 182.050909 307.584 
L 191.888926 307.584 
L 201.726942 307.584 
L 211.564959 307.584 
L 221.402975 307.584 
L 231.240992 307.584 
L 241.079008 307.584 
L 250.917025 307.584 
L 260.755041 307.584 
L 270.593058 307.584 
L 280.431074 307.584 
L 290.269091 307.584 
L 300.107107 307.584 
L 309.945124 307.584 
L 319.78314 307.584 
L 329.621157 307.584 
L 339.459174 307.584 
L 349.29719 307.584 
L 359.135207 307.584 
L 368.973223 307.584 
L 378.81124 307.584 
L 388.649256 307.584 
L 398.487273 307.584 
L 398.487273 307.584 
L 398.487273 307.584 
L 388.649256 307.584 
L 378.81124 307.584 
L 368.973223 307.584 
L 359.135207 307.584 
L 349.29719 307.584 
L 339.459174 307.584 
L 329.621157 307.584 
L 319.78314 307.584 
L 309.945124 307.584 
L 300.107107 307.584 
L 290.269091 307.584 
L 280.431074 307.584 
L 270.593058 244.426428 
L 260.755041 279.244064 
L 250.917025 301.1063 
L 241.079008 298.677163 
L 231.240992 299.486875 
L 221.402975 297.057738 
L 211.564959 297.86745 
L 201.726942 288.960613 
L 191.888926 301.916013 
L 182.050909 300.296588 
L 172.212893 301.1063 
L 162.374876 262.240102 
L 152.53686 297.057738 
L 142.698843 298.677163 
L 132.860826 289.770326 
L 123.02281 301.1063 
L 113.184793 280.053776 
L 103.346777 295.438313 
L 93.50876 280.053776 
L 83.670744 281.673201 
L 73.832727 252.523553 
z
" clip-path="url(#p96b74c2183)" style="fill: #1f77b4"/>
   </g>
   <g id="PolyCollection_2">
    <path d="M 73.832727 242.807003 
L 73.832727 252.523553 
L 83.670744 281.673201 
L 93.50876 280.053776 
L 103.346777 295.438313 
L 113.184793 280.053776 
L 123.02281 301.1063 
L 132.860826 289.770326 
L 142.698843 298.677163 
L 152.53686 297.057738 
L 162.374876 262.240102 
L 172.212893 301.1063 
L 182.050909 300.296588 
L 191.888926 301.916013 
L 201.726942 288.960613 
L 211.564959 297.86745 
L 221.402975 297.057738 
L 231.240992 299.486875 
L 241.079008 298.677163 
L 250.917025 301.1063 
L 260.755041 279.244064 
L 270.593058 244.426428 
L 280.431074 307.584 
L 290.269091 307.584 
L 300.107107 307.584 
L 309.945124 307.584 
L 319.78314 307.584 
L 329.621157 307.584 
L 339.459174 307.584 
L 349.29719 307.584 
L 359.135207 307.584 
L 368.973223 307.584 
L 378.81124 307.584 
L 388.649256 307.584 
L 398.487273 307.584 
L 398.487273 307.584 
L 398.487273 307.584 
L 388.649256 307.584 
L 378.81124 307.584 
L 368.973223 307.584 
L 359.135207 307.584 
L 349.29719 307.584 
L 339.459174 307.584 
L 329.621157 307.584 
L 319.78314 307.584 
L 309.945124 307.584 
L 300.107107 307.584 
L 290.269091 307.584 
L 280.431074 307.584 
L 270.593058 234.709879 
L 260.755041 272.766364 
L 250.917025 291.389751 
L 241.079008 288.150901 
L 231.240992 291.389751 
L 221.402975 292.199463 
L 211.564959 290.580038 
L 201.726942 283.292626 
L 191.888926 293.818888 
L 182.050909 293.009176 
L 172.212893 295.438313 
L 162.374876 255.762403 
L 152.53686 284.912051 
L 142.698843 293.009176 
L 132.860826 276.814927 
L 123.02281 296.248026 
L 113.184793 265.478952 
L 103.346777 284.912051 
L 93.50876 266.288665 
L 83.670744 273.576077 
L 73.832727 242.807003 
z
" clip-path="url(#p96b74c2183)" style="fill: #ff7f0e"/>
   </g>
   <g id="PolyCollection_3">
    <path d="M 73.832727 165.074607 
L 73.832727 242.807003 
L 83.670744 273.576077 
L 93.50876 266.288665 
L 103.346777 284.912051 
L 113.184793 265.478952 
L 123.02281 296.248026 
L 132.860826 276.814927 
L 142.698843 293.009176 
L 152.53686 284.912051 
L 162.374876 255.762403 
L 172.212893 295.438313 
L 182.050909 293.009176 
L 191.888926 293.818888 
L 201.726942 283.292626 
L 211.564959 290.580038 
L 221.402975 292.199463 
L 231.240992 291.389751 
L 241.079008 288.150901 
L 250.917025 291.389751 
L 260.755041 272.766364 
L 270.593058 234.709879 
L 280.431074 307.584 
L 290.269091 307.584 
L 300.107107 307.584 
L 309.945124 307.584 
L 319.78314 307.584 
L 329.621157 307.584 
L 339.459174 307.584 
L 349.29719 307.584 
L 359.135207 307.584 
L 368.973223 307.584 
L 378.81124 307.584 
L 388.649256 307.584 
L 398.487273 307.584 
L 398.487273 307.584 
L 398.487273 307.584 
L 388.649256 307.584 
L 378.81124 307.584 
L 368.973223 307.584 
L 359.135207 307.584 
L 349.29719 291.389751 
L 339.459174 301.916013 
L 329.621157 297.057738 
L 319.78314 293.009176 
L 309.945124 305.154863 
L 300.107107 290.580038 
L 290.269091 296.248026 
L 280.431074 294.628601 
L 270.593058 223.373904 
L 260.755041 263.859527 
L 250.917025 280.053776 
L 241.079008 280.863489 
L 231.240992 282.482914 
L 221.402975 280.863489 
L 211.564959 276.814927 
L 201.726942 273.576077 
L 191.888926 278.434351 
L 182.050909 281.673201 
L 172.212893 285.721764 
L 162.374876 241.187578 
L 152.53686 272.766364 
L 142.698843 284.102339 
L 132.860826 262.240102 
L 123.02281 282.482914 
L 113.184793 250.904128 
L 103.346777 260.620677 
L 93.50876 215.27678 
L 83.670744 229.851604 
L 73.832727 165.074607 
z
" clip-path="url(#p96b74c2183)" style="fill: #2ca02c"/>
   </g>
   <g id="PolyCollection_4">
    <path d="M 73.832727 157.787195 
L 73.832727 165.074607 
L 83.670744 229.851604 
L 93.50876 215.27678 
L 103.346777 260.620677 
L 113.184793 250.904128 
L 123.02281 282.482914 
L 132.860826 262.240102 
L 142.698843 284.102339 
L 152.53686 272.766364 
L 162.374876 241.187578 
L 172.212893 285.721764 
L 182.050909 281.673201 
L 191.888926 278.434351 
L 201.726942 273.576077 
L 211.564959 276.814927 
L 221.402975 280.863489 
L 231.240992 282.482914 
L 241.079008 280.863489 
L 250.917025 280.053776 
L 260.755041 263.859527 
L 270.593058 223.373904 
L 280.431074 294.628601 
L 290.269091 296.248026 
L 300.107107 290.580038 
L 309.945124 305.154863 
L 319.78314 293.009176 
L 329.621157 297.057738 
L 339.459174 301.916013 
L 349.29719 291.389751 
L 359.135207 307.584 
L 368.973223 307.584 
L 378.81124 307.584 
L 388.649256 307.584 
L 398.487273 307.584 
L 398.487273 303.535438 
L 398.487273 303.535438 
L 388.649256 293.009176 
L 378.81124 297.86745 
L 368.973223 298.677163 
L 359.135207 286.531476 
L 349.29719 269.527514 
L 339.459174 297.057738 
L 329.621157 285.721764 
L 319.78314 282.482914 
L 309.945124 299.486875 
L 300.107107 281.673201 
L 290.269091 285.721764 
L 280.431074 282.482914 
L 270.593058 216.896204 
L 260.755041 257.381827 
L 250.917025 272.766364 
L 241.079008 273.576077 
L 231.240992 274.385789 
L 221.402975 268.717802 
L 211.564959 263.049815 
L 201.726942 263.049815 
L 191.888926 263.859527 
L 182.050909 276.005214 
L 172.212893 277.624639 
L 162.374876 234.709879 
L 152.53686 265.478952 
L 142.698843 267.098377 
L 132.860826 249.284703 
L 123.02281 273.576077 
L 113.184793 243.616716 
L 103.346777 249.284703 
L 93.50876 206.369942 
L 83.670744 224.183617 
L 73.832727 157.787195 
z
" clip-path="url(#p96b74c2183)" style="fill: #d62728"/>
   </g>
   <g id="PolyCollection_5">
    <path d="M 73.832727 146.45122 
L 73.832727 157.787195 
L 83.670744 224.183617 
L 93.50876 206.369942 
L 103.346777 249.284703 
L 113.184793 243.616716 
L 123.02281 273.576077 
L 132.860826 249.284703 
L 142.698843 267.098377 
L 152.53686 265.478952 
L 162.374876 234.709879 
L 172.212893 277.624639 
L 182.050909 276.005214 
L 191.888926 263.859527 
L 201.726942 263.049815 
L 211.564959 263.049815 
L 221.402975 268.717802 
L 231.240992 274.385789 
L 241.079008 273.576077 
L 250.917025 272.766364 
L 260.755041 257.381827 
L 270.593058 216.896204 
L 280.431074 282.482914 
L 290.269091 285.721764 
L 300.107107 281.673201 
L 309.945124 299.486875 
L 319.78314 282.482914 
L 329.621157 285.721764 
L 339.459174 297.057738 
L 349.29719 269.527514 
L 359.135207 286.531476 
L 368.973223 298.677163 
L 378.81124 297.86745 
L 388.649256 293.009176 
L 398.487273 303.535438 
L 398.487273 303.535438 
L 398.487273 303.535438 
L 388.649256 293.009176 
L 378.81124 297.86745 
L 368.973223 298.677163 
L 359.135207 286.531476 
L 349.29719 269.527514 
L 339.459174 196.653393 
L 329.621157 268.717802 
L 319.78314 272.766364 
L 309.945124 296.248026 
L 300.107107 267.098377 
L 290.269091 279.244064 
L 280.431074 272.766364 
L 270.593058 210.418505 
L 260.755041 250.094415 
L 250.917025 247.665278 
L 241.079008 260.620677 
L 231.240992 265.478952 
L 221.402975 254.142978 
L 211.564959 241.997291 
L 201.726942 256.572115 
L 191.888926 259.001252 
L 182.050909 267.908089 
L 172.212893 271.146939 
L 162.374876 212.03793 
L 152.53686 263.049815 
L 142.698843 254.142978 
L 132.860826 241.187578 
L 123.02281 250.904128 
L 113.184793 237.139016 
L 103.346777 229.041891 
L 93.50876 196.653393 
L 83.670744 201.511668 
L 73.832727 146.45122 
z
" clip-path="url(#p96b74c2183)" style="fill: #9467bd"/>
   </g>
   <g id="PolyCollection_6">
    <path d="M 73.832727 138.354096 
L 73.832727 146.45122 
L 83.670744 201.511668 
L 93.50876 196.653393 
L 103.346777 229.041891 
L 113.184793 237.139016 
L 123.02281 250.904128 
L 132.860826 241.187578 
L 142.698843 254.142978 
L 152.53686 263.049815 
L 162.374876 212.03793 
L 172.212893 271.146939 
L 182.050909 267.908089 
L 191.888926 259.001252 
L 201.726942 256.572115 
L 211.564959 241.997291 
L 221.402975 254.142978 
L 231.240992 265.478952 
L 241.079008 260.620677 
L 250.917025 247.665278 
L 260.755041 250.094415 
L 270.593058 210.418505 
L 280.431074 272.766364 
L 290.269091 279.244064 
L 300.107107 267.098377 
L 309.945124 296.248026 
L 319.78314 272.766364 
L 329.621157 268.717802 
L 339.459174 196.653393 
L 349.29719 269.527514 
L 359.135207 286.531476 
L 368.973223 298.677163 
L 378.81124 297.86745 
L 388.649256 293.009176 
L 398.487273 303.535438 
L 398.487273 303.535438 
L 398.487273 303.535438 
L 388.649256 293.009176 
L 378.81124 297.86745 
L 368.973223 277.624639 
L 359.135207 267.908089 
L 349.29719 262.240102 
L 339.459174 187.746556 
L 329.621157 263.859527 
L 319.78314 264.66924 
L 309.945124 293.009176 
L 300.107107 256.572115 
L 290.269091 278.434351 
L 280.431074 263.859527 
L 270.593058 204.750518 
L 260.755041 248.47499 
L 250.917025 237.948728 
L 241.079008 252.523553 
L 231.240992 263.859527 
L 221.402975 237.948728 
L 211.564959 229.851604 
L 201.726942 249.284703 
L 191.888926 255.762403 
L 182.050909 250.094415 
L 172.212893 254.142978 
L 162.374876 202.32138 
L 152.53686 250.094415 
L 142.698843 250.904128 
L 132.860826 229.851604 
L 123.02281 245.236141 
L 113.184793 222.564192 
L 103.346777 221.754479 
L 93.50876 189.365981 
L 83.670744 197.463105 
L 73.832727 138.354096 
z
" clip-path="url(#p96b74c2183)" style="fill: #8c564b"/>
   </g>
   <g id="PolyCollection_7">
    <path d="M 73.832727 118.920997 
L 73.832727 138.354096 
L 83.670744 197.463105 
L 93.50876 189.365981 
L 103.346777 221.754479 
L 113.184793 222.564192 
L 123.02281 245.236141 
L 132.860826 229.851604 
L 142.698843 250.904128 
L 152.53686 250.094415 
L 162.374876 202.32138 
L 172.212893 254.142978 
L 182.050909 250.094415 
L 191.888926 255.762403 
L 201.726942 249.284703 
L 211.564959 229.851604 
L 221.402975 237.948728 
L 231.240992 263.859527 
L 241.079008 252.523553 
L 250.917025 237.948728 
L 260.755041 248.47499 
L 270.593058 204.750518 
L 280.431074 263.859527 
L 290.269091 278.434351 
L 300.107107 256.572115 
L 309.945124 293.009176 
L 319.78314 264.66924 
L 329.621157 263.859527 
L 339.459174 187.746556 
L 349.29719 262.240102 
L 359.135207 267.908089 
L 368.973223 277.624639 
L 378.81124 297.86745 
L 388.649256 293.009176 
L 398.487273 303.535438 
L 398.487273 303.535438 
L 398.487273 303.535438 
L 388.649256 293.009176 
L 378.81124 297.86745 
L 368.973223 277.624639 
L 359.135207 267.908089 
L 349.29719 262.240102 
L 339.459174 187.746556 
L 329.621157 263.859527 
L 319.78314 264.66924 
L 309.945124 290.580038 
L 300.107107 247.665278 
L 290.269091 276.814927 
L 280.431074 258.19154 
L 270.593058 199.08253 
L 260.755041 241.187578 
L 250.917025 230.661316 
L 241.079008 246.045853 
L 231.240992 262.240102 
L 221.402975 228.232179 
L 211.564959 224.183617 
L 201.726942 243.616716 
L 191.888926 246.855565 
L 182.050909 237.948728 
L 172.212893 242.807003 
L 162.374876 197.463105 
L 152.53686 238.758441 
L 142.698843 231.471029 
L 132.860826 216.086492 
L 123.02281 237.139016 
L 113.184793 195.033968 
L 103.346777 214.467067 
L 93.50876 177.220294 
L 83.670744 175.600869 
L 73.832727 118.920997 
z
" clip-path="url(#p96b74c2183)" style="fill: #e377c2"/>
   </g>
   <g id="PolyCollection_8">
    <path d="M 73.832727 110.823872 
L 73.832727 118.920997 
L 83.670744 175.600869 
L 93.50876 177.220294 
L 103.346777 214.467067 
L 113.184793 195.033968 
L 123.02281 237.139016 
L 132.860826 216.086492 
L 142.698843 231.471029 
L 152.53686 238.758441 
L 162.374876 197.463105 
L 172.212893 242.807003 
L 182.050909 237.948728 
L 191.888926 246.855565 
L 201.726942 243.616716 
L 211.564959 224.183617 
L 221.402975 228.232179 
L 231.240992 262.240102 
L 241.079008 246.045853 
L 250.917025 230.661316 
L 260.755041 241.187578 
L 270.593058 199.08253 
L 280.431074 258.19154 
L 290.269091 276.814927 
L 300.107107 247.665278 
L 309.945124 290.580038 
L 319.78314 264.66924 
L 329.621157 263.859527 
L 339.459174 187.746556 
L 349.29719 262.240102 
L 359.135207 267.908089 
L 368.973223 277.624639 
L 378.81124 297.86745 
L 388.649256 293.009176 
L 398.487273 303.535438 
L 398.487273 303.535438 
L 398.487273 303.535438 
L 388.649256 293.009176 
L 378.81124 297.86745 
L 368.973223 277.624639 
L 359.135207 267.908089 
L 349.29719 262.240102 
L 339.459174 187.746556 
L 329.621157 263.859527 
L 319.78314 264.66924 
L 309.945124 290.580038 
L 300.107107 247.665278 
L 290.269091 276.814927 
L 280.431074 253.333265 
L 270.593058 192.604831 
L 260.755041 235.519591 
L 250.917025 228.232179 
L 241.079008 241.187578 
L 231.240992 250.904128 
L 221.402975 214.467067 
L 211.564959 217.705917 
L 201.726942 235.519591 
L 191.888926 237.139016 
L 182.050909 232.280741 
L 172.212893 234.709879 
L 162.374876 188.556268 
L 152.53686 222.564192 
L 142.698843 228.232179 
L 132.860826 188.556268 
L 123.02281 227.422466 
L 113.184793 184.507706 
L 103.346777 201.511668 
L 93.50876 167.503744 
L 83.670744 159.40662 
L 73.832727 110.823872 
z
" clip-path="url(#p96b74c2183)" style="fill: #7f7f7f"/>
   </g>
   <g id="PolyCollection_9">
    <path d="M 73.832727 88.151923 
L 73.832727 110.823872 
L 83.670744 159.40662 
L 93.50876 167.503744 
L 103.346777 201.511668 
L 113.184793 184.507706 
L 123.02281 227.422466 
L 132.860826 188.556268 
L 142.698843 228.232179 
L 152.53686 222.564192 
L 162.374876 188.556268 
L 172.212893 234.709879 
L 182.050909 232.280741 
L 191.888926 237.139016 
L 201.726942 235.519591 
L 211.564959 217.705917 
L 221.402975 214.467067 
L 231.240992 250.904128 
L 241.079008 241.187578 
L 250.917025 228.232179 
L 260.755041 235.519591 
L 270.593058 192.604831 
L 280.431074 253.333265 
L 290.269091 276.814927 
L 300.107107 247.665278 
L 309.945124 290.580038 
L 319.78314 264.66924 
L 329.621157 263.859527 
L 339.459174 187.746556 
L 349.29719 262.240102 
L 359.135207 267.908089 
L 368.973223 277.624639 
L 378.81124 297.86745 
L 388.649256 293.009176 
L 398.487273 303.535438 
L 398.487273 303.535438 
L 398.487273 303.535438 
L 388.649256 293.009176 
L 378.81124 297.86745 
L 368.973223 277.624639 
L 359.135207 267.908089 
L 349.29719 262.240102 
L 339.459174 187.746556 
L 329.621157 263.859527 
L 319.78314 264.66924 
L 309.945124 290.580038 
L 300.107107 247.665278 
L 290.269091 276.814927 
L 280.431074 245.236141 
L 270.593058 185.317419 
L 260.755041 231.471029 
L 250.917025 220.944767 
L 241.079008 233.900166 
L 231.240992 245.236141 
L 221.402975 205.56023 
L 211.564959 212.847642 
L 201.726942 232.280741 
L 191.888926 229.041891 
L 182.050909 224.993329 
L 172.212893 223.373904 
L 162.374876 179.649431 
L 152.53686 212.847642 
L 142.698843 219.325342 
L 132.860826 177.220294 
L 123.02281 217.705917 
L 113.184793 180.459144 
L 103.346777 188.556268 
L 93.50876 154.548345 
L 83.670744 136.734671 
L 73.832727 88.151923 
z
" clip-path="url(#p96b74c2183)" style="fill: #bcbd22"/>
   </g>
   <g id="PolyCollection_10">
    <path d="M 73.832727 78.435374 
L 73.832727 88.151923 
L 83.670744 136.734671 
L 93.50876 154.548345 
L 103.346777 188.556268 
L 113.184793 180.459144 
L 123.02281 217.705917 
L 132.860826 177.220294 
L 142.698843 219.325342 
L 152.53686 212.847642 
L 162.374876 179.649431 
L 172.212893 223.373904 
L 182.050909 224.993329 
L 191.888926 229.041891 
L 201.726942 232.280741 
L 211.564959 212.847642 
L 221.402975 205.56023 
L 231.240992 245.236141 
L 241.079008 233.900166 
L 250.917025 220.944767 
L 260.755041 231.471029 
L 270.593058 185.317419 
L 280.431074 245.236141 
L 290.269091 276.814927 
L 300.107107 247.665278 
L 309.945124 290.580038 
L 319.78314 264.66924 
L 329.621157 263.859527 
L 339.459174 187.746556 
L 349.29719 262.240102 
L 359.135207 267.908089 
L 368.973223 277.624639 
L 378.81124 297.86745 
L 388.649256 293.009176 
L 398.487273 303.535438 
L 398.487273 303.535438 
L 398.487273 303.535438 
L 388.649256 293.009176 
L 378.81124 297.86745 
L 368.973223 277.624639 
L 359.135207 267.908089 
L 349.29719 262.240102 
L 339.459174 187.746556 
L 329.621157 263.859527 
L 319.78314 249.284703 
L 309.945124 266.288665 
L 300.107107 237.139016 
L 290.269091 272.766364 
L 280.431074 239.568153 
L 270.593058 177.220294 
L 260.755041 221.754479 
L 250.917025 214.467067 
L 241.079008 227.422466 
L 231.240992 237.948728 
L 221.402975 196.653393 
L 211.564959 203.131093 
L 201.726942 225.803042 
L 191.888926 216.896204 
L 182.050909 216.086492 
L 172.212893 190.985406 
L 162.374876 173.171732 
L 152.53686 211.228217 
L 142.698843 157.787195 
L 132.860826 169.932882 
L 123.02281 169.932882 
L 113.184793 174.791157 
L 103.346777 173.981444 
L 93.50876 127.827834 
L 83.670744 116.491859 
L 73.832727 78.435374 
z
" clip-path="url(#p96b74c2183)" style="fill: #17becf"/>
   </g>
   <g id="PolyCollection_11">
    <path d="M 73.832727 77.625661 
L 73.832727 78.435374 
L 83.670744 116.491859 
L 93.50876 127.827834 
L 103.346777 173.981444 
L 113.184793 174.791157 
L 123.02281 169.932882 
L 132.860826 169.932882 
L 142.698843 157.787195 
L 152.53686 211.228217 
L 162.374876 173.171732 
L 172.212893 190.985406 
L 182.050909 216.086492 
L 191.888926 216.896204 
L 201.726942 225.803042 
L 211.564959 203.131093 
L 221.402975 196.653393 
L 231.240992 237.948728 
L 241.079008 227.422466 
L 250.917025 214.467067 
L 260.755041 221.754479 
L 270.593058 177.220294 
L 280.431074 239.568153 
L 290.269091 272.766364 
L 300.107107 237.139016 
L 309.945124 266.288665 
L 319.78314 249.284703 
L 329.621157 263.859527 
L 339.459174 187.746556 
L 349.29719 262.240102 
L 359.135207 267.908089 
L 368.973223 277.624639 
L 378.81124 297.86745 
L 388.649256 293.009176 
L 398.487273 303.535438 
L 398.487273 303.535438 
L 398.487273 303.535438 
L 388.649256 293.009176 
L 378.81124 297.86745 
L 368.973223 277.624639 
L 359.135207 267.908089 
L 349.29719 262.240102 
L 339.459174 182.078569 
L 329.621157 256.572115 
L 319.78314 242.807003 
L 309.945124 261.43039 
L 300.107107 229.851604 
L 290.269091 267.908089 
L 280.431074 232.280741 
L 270.593058 169.932882 
L 260.755041 216.086492 
L 250.917025 211.228217 
L 241.079008 221.754479 
L 231.240992 230.661316 
L 221.402975 191.795118 
L 211.564959 195.033968 
L 201.726942 217.705917 
L 191.888926 209.608792 
L 182.050909 207.179655 
L 172.212893 182.888281 
L 162.374876 167.503744 
L 152.53686 200.701955 
L 142.698843 149.69007 
L 132.860826 160.216332 
L 123.02281 161.835757 
L 113.184793 165.074607 
L 103.346777 163.455182 
L 93.50876 116.491859 
L 83.670744 106.77531 
L 73.832727 77.625661 
z
" clip-path="url(#p96b74c2183)" style="fill: #1f77b4"/>
   </g>
   <g id="PolyCollection_12">
    <path d="M 73.832727 74.386812 
L 73.832727 77.625661 
L 83.670744 106.77531 
L 93.50876 116.491859 
L 103.346777 163.455182 
L 113.184793 165.074607 
L 123.02281 161.835757 
L 132.860826 160.216332 
L 142.698843 149.69007 
L 152.53686 200.701955 
L 162.374876 167.503744 
L 172.212893 182.888281 
L 182.050909 207.179655 
L 191.888926 209.608792 
L 201.726942 217.705917 
L 211.564959 195.033968 
L 221.402975 191.795118 
L 231.240992 230.661316 
L 241.079008 221.754479 
L 250.917025 211.228217 
L 260.755041 216.086492 
L 270.593058 169.932882 
L 280.431074 232.280741 
L 290.269091 267.908089 
L 300.107107 229.851604 
L 309.945124 261.43039 
L 319.78314 242.807003 
L 329.621157 256.572115 
L 339.459174 182.078569 
L 349.29719 262.240102 
L 359.135207 267.908089 
L 368.973223 277.624639 
L 378.81124 297.86745 
L 388.649256 293.009176 
L 398.487273 303.535438 
L 398.487273 303.535438 
L 398.487273 303.535438 
L 388.649256 293.009176 
L 378.81124 297.86745 
L 368.973223 277.624639 
L 359.135207 267.908089 
L 349.29719 262.240102 
L 339.459174 182.078569 
L 329.621157 256.572115 
L 319.78314 242.807003 
L 309.945124 261.43039 
L 300.107107 221.754479 
L 290.269091 263.859527 
L 280.431074 225.803042 
L 270.593058 165.074607 
L 260.755041 206.369942 
L 250.917025 204.750518 
L 241.079008 218.515629 
L 231.240992 226.612754 
L 221.402975 184.507706 
L 211.564959 189.365981 
L 201.726942 209.608792 
L 191.888926 203.131093 
L 182.050909 201.511668 
L 172.212893 174.791157 
L 162.374876 165.074607 
L 152.53686 196.653393 
L 142.698843 144.022083 
L 132.860826 153.738633 
L 123.02281 151.309495 
L 113.184793 159.40662 
L 103.346777 149.69007 
L 93.50876 104.346173 
L 83.670744 94.629623 
L 73.832727 74.386812 
z
" clip-path="url(#p96b74c2183)" style="fill: #ff7f0e"/>
   </g>
   <g id="PolyCollection_13">
    <path d="M 73.832727 70.338249 
L 73.832727 74.386812 
L 83.670744 94.629623 
L 93.50876 104.346173 
L 103.346777 149.69007 
L 113.184793 159.40662 
L 123.02281 151.309495 
L 132.860826 153.738633 
L 142.698843 144.022083 
L 152.53686 196.653393 
L 162.374876 165.074607 
L 172.212893 174.791157 
L 182.050909 201.511668 
L 191.888926 203.131093 
L 201.726942 209.608792 
L 211.564959 189.365981 
L 221.402975 184.507706 
L 231.240992 226.612754 
L 241.079008 218.515629 
L 250.917025 204.750518 
L 260.755041 206.369942 
L 270.593058 165.074607 
L 280.431074 225.803042 
L 290.269091 263.859527 
L 300.107107 221.754479 
L 309.945124 261.43039 
L 319.78314 242.807003 
L 329.621157 256.572115 
L 339.459174 182.078569 
L 349.29719 262.240102 
L 359.135207 267.908089 
L 368.973223 277.624639 
L 378.81124 297.86745 
L 388.649256 293.009176 
L 398.487273 303.535438 
L 398.487273 303.535438 
L 398.487273 303.535438 
L 388.649256 293.009176 
L 378.81124 287.341188 
L 368.973223 264.66924 
L 359.135207 248.47499 
L 349.29719 237.948728 
L 339.459174 179.649431 
L 329.621157 250.094415 
L 319.78314 228.232179 
L 309.945124 254.142978 
L 300.107107 210.418505 
L 290.269091 256.572115 
L 280.431074 219.325342 
L 270.593058 161.026045 
L 260.755041 200.701955 
L 250.917025 201.511668 
L 241.079008 211.228217 
L 231.240992 221.754479 
L 221.402975 178.839719 
L 211.564959 182.078569 
L 201.726942 180.459144 
L 191.888926 196.653393 
L 182.050909 154.548345 
L 172.212893 166.694032 
L 162.374876 158.596907 
L 152.53686 187.746556 
L 142.698843 136.734671 
L 132.860826 145.641508 
L 123.02281 148.880358 
L 113.184793 142.402658 
L 103.346777 135.115246 
L 93.50876 87.342211 
L 83.670744 81.674224 
L 73.832727 70.338249 
z
" clip-path="url(#p96b74c2183)" style="fill: #2ca02c"/>
   </g>
   <g id="PolyCollection_14">
    <path d="M 73.832727 65.479974 
L 73.832727 70.338249 
L 83.670744 81.674224 
L 93.50876 87.342211 
L 103.346777 135.115246 
L 113.184793 142.402658 
L 123.02281 148.880358 
L 132.860826 145.641508 
L 142.698843 136.734671 
L 152.53686 187.746556 
L 162.374876 158.596907 
L 172.212893 166.694032 
L 182.050909 154.548345 
L 191.888926 196.653393 
L 201.726942 180.459144 
L 211.564959 182.078569 
L 221.402975 178.839719 
L 231.240992 221.754479 
L 241.079008 211.228217 
L 250.917025 201.511668 
L 260.755041 200.701955 
L 270.593058 161.026045 
L 280.431074 219.325342 
L 290.269091 256.572115 
L 300.107107 210.418505 
L 309.945124 254.142978 
L 319.78314 228.232179 
L 329.621157 250.094415 
L 339.459174 179.649431 
L 349.29719 237.948728 
L 359.135207 248.47499 
L 368.973223 264.66924 
L 378.81124 287.341188 
L 388.649256 293.009176 
L 398.487273 303.535438 
L 398.487273 293.009176 
L 398.487273 293.009176 
L 388.649256 280.053776 
L 378.81124 273.576077 
L 368.973223 251.71384 
L 359.135207 236.329304 
L 349.29719 226.612754 
L 339.459174 174.791157 
L 329.621157 241.997291 
L 319.78314 219.325342 
L 309.945124 247.665278 
L 300.107107 205.56023 
L 290.269091 246.855565 
L 280.431074 214.467067 
L 270.593058 159.40662 
L 260.755041 181.268856 
L 250.917025 199.08253 
L 241.079008 189.365981 
L 231.240992 210.418505 
L 221.402975 166.694032 
L 211.564959 170.742594 
L 201.726942 172.362019 
L 191.888926 188.556268 
L 182.050909 150.499783 
L 172.212893 158.596907 
L 162.374876 149.69007 
L 152.53686 176.410581 
L 142.698843 128.637546 
L 132.860826 135.924958 
L 123.02281 136.734671 
L 113.184793 129.447259 
L 103.346777 124.588984 
L 93.50876 76.006236 
L 83.670744 68.718824 
L 73.832727 65.479974 
z
" clip-path="url(#p96b74c2183)" style="fill: #d62728"/>
   </g>
   <g id="PolyCollection_15">
    <path d="M 73.832727 64.670262 
L 73.832727 65.479974 
L 83.670744 68.718824 
L 93.50876 76.006236 
L 103.346777 124.588984 
L 113.184793 129.447259 
L 123.02281 136.734671 
L 132.860826 135.924958 
L 142.698843 128.637546 
L 152.53686 176.410581 
L 162.374876 149.69007 
L 172.212893 158.596907 
L 182.050909 150.499783 
L 191.888926 188.556268 
L 201.726942 172.362019 
L 211.564959 170.742594 
L 221.402975 166.694032 
L 231.240992 210.418505 
L 241.079008 189.365981 
L 250.917025 199.08253 
L 260.755041 181.268856 
L 270.593058 159.40662 
L 280.431074 214.467067 
L 290.269091 246.855565 
L 300.107107 205.56023 
L 309.945124 247.665278 
L 319.78314 219.325342 
L 329.621157 241.997291 
L 339.459174 174.791157 
L 349.29719 226.612754 
L 359.135207 236.329304 
L 368.973223 251.71384 
L 378.81124 273.576077 
L 388.649256 280.053776 
L 398.487273 293.009176 
L 398.487273 280.863489 
L 398.487273 280.863489 
L 388.649256 258.19154 
L 378.81124 261.43039 
L 368.973223 242.807003 
L 359.135207 219.325342 
L 349.29719 206.369942 
L 339.459174 168.313457 
L 329.621157 238.758441 
L 319.78314 211.228217 
L 309.945124 240.377866 
L 300.107107 193.414543 
L 290.269091 242.807003 
L 280.431074 207.989367 
L 270.593058 150.499783 
L 260.755041 174.791157 
L 250.917025 193.414543 
L 241.079008 184.507706 
L 231.240992 205.56023 
L 221.402975 164.264895 
L 211.564959 162.64547 
L 201.726942 165.074607 
L 191.888926 180.459144 
L 182.050909 140.783233 
L 172.212893 149.69007 
L 162.374876 137.544383 
L 152.53686 168.313457 
L 142.698843 121.350134 
L 132.860826 127.018121 
L 123.02281 130.256971 
L 113.184793 124.588984 
L 103.346777 117.301572 
L 93.50876 71.957674 
L 83.670744 63.050837 
L 73.832727 64.670262 
z
" clip-path="url(#p96b74c2183)" style="fill: #9467bd"/>
   </g>
   <g id="PolyCollection_16">
    <path d="M 73.832727 64.670262 
L 73.832727 64.670262 
L 83.670744 63.050837 
L 93.50876 71.957674 
L 103.346777 117.301572 
L 113.184793 124.588984 
L 123.02281 130.256971 
L 132.860826 127.018121 
L 142.698843 121.350134 
L 152.53686 168.313457 
L 162.374876 137.544383 
L 172.212893 149.69007 
L 182.050909 140.783233 
L 191.888926 180.459144 
L 201.726942 165.074607 
L 211.564959 162.64547 
L 221.402975 164.264895 
L 231.240992 205.56023 
L 241.079008 184.507706 
L 250.917025 193.414543 
L 260.755041 174.791157 
L 270.593058 150.499783 
L 280.431074 207.989367 
L 290.269091 242.807003 
L 300.107107 193.414543 
L 309.945124 240.377866 
L 319.78314 211.228217 
L 329.621157 238.758441 
L 339.459174 168.313457 
L 349.29719 206.369942 
L 359.135207 219.325342 
L 368.973223 242.807003 
L 378.81124 261.43039 
L 388.649256 258.19154 
L 398.487273 280.863489 
L 398.487273 280.863489 
L 398.487273 280.863489 
L 388.649256 258.19154 
L 378.81124 261.43039 
L 368.973223 242.807003 
L 359.135207 208.79908 
L 349.29719 197.463105 
L 339.459174 153.738633 
L 329.621157 234.709879 
L 319.78314 203.940805 
L 309.945124 234.709879 
L 300.107107 179.649431 
L 290.269091 238.758441 
L 280.431074 192.604831 
L 270.593058 139.973521 
L 260.755041 165.884319 
L 250.917025 178.839719 
L 241.079008 170.742594 
L 231.240992 195.033968 
L 221.402975 144.831796 
L 211.564959 153.738633 
L 201.726942 159.40662 
L 191.888926 171.552307 
L 182.050909 128.637546 
L 172.212893 142.402658 
L 162.374876 133.495821 
L 152.53686 148.070645 
L 142.698843 114.062722 
L 132.860826 120.540422 
L 123.02281 121.350134 
L 113.184793 122.159847 
L 103.346777 91.390773 
L 93.50876 70.338249 
L 83.670744 63.050837 
L 73.832727 64.670262 
z
" clip-path="url(#p96b74c2183)" style="fill: #8c564b"/>
   </g>
   <g id="PolyCollection_17">
    <path d="M 73.832727 64.670262 
L 73.832727 64.670262 
L 83.670744 63.050837 
L 93.50876 70.338249 
L 103.346777 91.390773 
L 113.184793 122.159847 
L 123.02281 121.350134 
L 132.860826 120.540422 
L 142.698843 114.062722 
L 152.53686 148.070645 
L 162.374876 133.495821 
L 172.212893 142.402658 
L 182.050909 128.637546 
L 191.888926 171.552307 
L 201.726942 159.40662 
L 211.564959 153.738633 
L 221.402975 144.831796 
L 231.240992 195.033968 
L 241.079008 170.742594 
L 250.917025 178.839719 
L 260.755041 165.884319 
L 270.593058 139.973521 
L 280.431074 192.604831 
L 290.269091 238.758441 
L 300.107107 179.649431 
L 309.945124 234.709879 
L 319.78314 203.940805 
L 329.621157 234.709879 
L 339.459174 153.738633 
L 349.29719 197.463105 
L 359.135207 208.79908 
L 368.973223 242.807003 
L 378.81124 261.43039 
L 388.649256 258.19154 
L 398.487273 280.863489 
L 398.487273 280.863489 
L 398.487273 280.863489 
L 388.649256 258.19154 
L 378.81124 261.43039 
L 368.973223 242.807003 
L 359.135207 208.79908 
L 349.29719 197.463105 
L 339.459174 153.738633 
L 329.621157 225.803042 
L 319.78314 195.843681 
L 309.945124 231.471029 
L 300.107107 169.123169 
L 290.269091 234.709879 
L 280.431074 182.888281 
L 270.593058 134.305534 
L 260.755041 159.40662 
L 250.917025 171.552307 
L 241.079008 165.074607 
L 231.240992 186.127131 
L 221.402975 132.686109 
L 211.564959 146.45122 
L 201.726942 129.447259 
L 191.888926 155.358058 
L 182.050909 120.540422 
L 172.212893 125.398696 
L 162.374876 125.398696 
L 152.53686 113.25301 
L 142.698843 107.585022 
L 132.860826 98.678185 
L 123.02281 111.633585 
L 113.184793 106.77531 
L 103.346777 77.625661 
L 93.50876 64.670262 
L 83.670744 63.050837 
L 73.832727 64.670262 
z
" clip-path="url(#p96b74c2183)" style="fill: #e377c2"/>
   </g>
   <g id="PolyCollection_18">
    <path d="M 73.832727 64.670262 
L 73.832727 64.670262 
L 83.670744 63.050837 
L 93.50876 64.670262 
L 103.346777 77.625661 
L 113.184793 106.77531 
L 123.02281 111.633585 
L 132.860826 98.678185 
L 142.698843 107.585022 
L 152.53686 113.25301 
L 162.374876 125.398696 
L 172.212893 125.398696 
L 182.050909 120.540422 
L 191.888926 155.358058 
L 201.726942 129.447259 
L 211.564959 146.45122 
L 221.402975 132.686109 
L 231.240992 186.127131 
L 241.079008 165.074607 
L 250.917025 171.552307 
L 260.755041 159.40662 
L 270.593058 134.305534 
L 280.431074 182.888281 
L 290.269091 234.709879 
L 300.107107 169.123169 
L 309.945124 231.471029 
L 319.78314 195.843681 
L 329.621157 225.803042 
L 339.459174 153.738633 
L 349.29719 197.463105 
L 359.135207 208.79908 
L 368.973223 242.807003 
L 378.81124 261.43039 
L 388.649256 258.19154 
L 398.487273 280.863489 
L 398.487273 280.863489 
L 398.487273 280.863489 
L 388.649256 258.19154 
L 378.81124 261.43039 
L 368.973223 242.807003 
L 359.135207 208.79908 
L 349.29719 197.463105 
L 339.459174 153.738633 
L 329.621157 225.803042 
L 319.78314 195.843681 
L 309.945124 224.183617 
L 300.107107 160.216332 
L 290.269091 231.471029 
L 280.431074 172.362019 
L 270.593058 127.827834 
L 260.755041 152.92892 
L 250.917025 160.216332 
L 241.079008 157.787195 
L 231.240992 181.268856 
L 221.402975 124.588984 
L 211.564959 138.354096 
L 201.726942 123.779272 
L 191.888926 152.119208 
L 182.050909 109.204447 
L 172.212893 115.682147 
L 162.374876 114.872435 
L 152.53686 100.29761 
L 142.698843 85.722786 
L 132.860826 85.722786 
L 123.02281 90.581061 
L 113.184793 76.006236 
L 103.346777 64.670262 
L 93.50876 64.670262 
L 83.670744 63.050837 
L 73.832727 64.670262 
z
" clip-path="url(#p96b74c2183)" style="fill: #7f7f7f"/>
   </g>
   <g id="PolyCollection_19">
    <path d="M 73.832727 64.670262 
L 73.832727 64.670262 
L 83.670744 63.050837 
L 93.50876 64.670262 
L 103.346777 64.670262 
L 113.184793 76.006236 
L 123.02281 90.581061 
L 132.860826 85.722786 
L 142.698843 85.722786 
L 152.53686 100.29761 
L 162.374876 114.872435 
L 172.212893 115.682147 
L 182.050909 109.204447 
L 191.888926 152.119208 
L 201.726942 123.779272 
L 211.564959 138.354096 
L 221.402975 124.588984 
L 231.240992 181.268856 
L 241.079008 157.787195 
L 250.917025 160.216332 
L 260.755041 152.92892 
L 270.593058 127.827834 
L 280.431074 172.362019 
L 290.269091 231.471029 
L 300.107107 160.216332 
L 309.945124 224.183617 
L 319.78314 195.843681 
L 329.621157 225.803042 
L 339.459174 153.738633 
L 349.29719 197.463105 
L 359.135207 208.79908 
L 368.973223 242.807003 
L 378.81124 261.43039 
L 388.649256 258.19154 
L 398.487273 280.863489 
L 398.487273 277.624639 
L 398.487273 277.624639 
L 388.649256 245.236141 
L 378.81124 245.236141 
L 368.973223 227.422466 
L 359.135207 190.985406 
L 349.29719 185.317419 
L 339.459174 147.260933 
L 329.621157 216.896204 
L 319.78314 185.317419 
L 309.945124 219.325342 
L 300.107107 151.309495 
L 290.269091 224.993329 
L 280.431074 162.64547 
L 270.593058 122.969559 
L 260.755041 148.070645 
L 250.917025 153.738633 
L 241.079008 151.309495 
L 231.240992 176.410581 
L 221.402975 118.920997 
L 211.564959 127.827834 
L 201.726942 115.682147 
L 191.888926 144.022083 
L 182.050909 101.917035 
L 172.212893 110.01416 
L 162.374876 109.204447 
L 152.53686 96.249048 
L 142.698843 79.245086 
L 132.860826 78.435374 
L 123.02281 84.103361 
L 113.184793 70.338249 
L 103.346777 63.86055 
L 93.50876 64.670262 
L 83.670744 63.050837 
L 73.832727 64.670262 
z
" clip-path="url(#p96b74c2183)" style="fill: #bcbd22"/>
   </g>
   <g id="PolyCollection_20">
    <path d="M 73.832727 64.670262 
L 73.832727 64.670262 
L 83.670744 63.050837 
L 93.50876 64.670262 
L 103.346777 63.86055 
L 113.184793 70.338249 
L 123.02281 84.103361 
L 132.860826 78.435374 
L 142.698843 79.245086 
L 152.53686 96.249048 
L 162.374876 109.204447 
L 172.212893 110.01416 
L 182.050909 101.917035 
L 191.888926 144.022083 
L 201.726942 115.682147 
L 211.564959 127.827834 
L 221.402975 118.920997 
L 231.240992 176.410581 
L 241.079008 151.309495 
L 250.917025 153.738633 
L 260.755041 148.070645 
L 270.593058 122.969559 
L 280.431074 162.64547 
L 290.269091 224.993329 
L 300.107107 151.309495 
L 309.945124 219.325342 
L 319.78314 185.317419 
L 329.621157 216.896204 
L 339.459174 147.260933 
L 349.29719 185.317419 
L 359.135207 190.985406 
L 368.973223 227.422466 
L 378.81124 245.236141 
L 388.649256 245.236141 
L 398.487273 277.624639 
L 398.487273 271.956652 
L 398.487273 271.956652 
L 388.649256 212.847642 
L 378.81124 202.32138 
L 368.973223 207.179655 
L 359.135207 176.410581 
L 349.29719 174.791157 
L 339.459174 146.45122 
L 329.621157 169.123169 
L 319.78314 179.649431 
L 309.945124 182.888281 
L 300.107107 135.115246 
L 290.269091 135.924958 
L 280.431074 152.92892 
L 270.593058 121.350134 
L 260.755041 122.159847 
L 250.917025 144.831796 
L 241.079008 117.301572 
L 231.240992 118.111284 
L 221.402975 114.062722 
L 211.564959 100.29761 
L 201.726942 108.394735 
L 191.888926 139.163808 
L 182.050909 94.629623 
L 172.212893 97.868473 
L 162.374876 103.53646 
L 152.53686 88.151923 
L 142.698843 76.006236 
L 132.860826 71.147962 
L 123.02281 76.815949 
L 113.184793 65.479974 
L 103.346777 63.050837 
L 93.50876 64.670262 
L 83.670744 63.050837 
L 73.832727 64.670262 
z
" clip-path="url(#p96b74c2183)" style="fill: #17becf"/>
   </g>
   <g id="PolyCollection_21">
    <path d="M 73.832727 64.670262 
L 73.832727 64.670262 
L 83.670744 63.050837 
L 93.50876 64.670262 
L 103.346777 63.050837 
L 113.184793 65.479974 
L 123.02281 76.815949 
L 132.860826 71.147962 
L 142.698843 76.006236 
L 152.53686 88.151923 
L 162.374876 103.53646 
L 172.212893 97.868473 
L 182.050909 94.629623 
L 191.888926 139.163808 
L 201.726942 108.394735 
L 211.564959 100.29761 
L 221.402975 114.062722 
L 231.240992 118.111284 
L 241.079008 117.301572 
L 250.917025 144.831796 
L 260.755041 122.159847 
L 270.593058 121.350134 
L 280.431074 152.92892 
L 290.269091 135.924958 
L 300.107107 135.115246 
L 309.945124 182.888281 
L 319.78314 179.649431 
L 329.621157 169.123169 
L 339.459174 146.45122 
L 349.29719 174.791157 
L 359.135207 176.410581 
L 368.973223 207.179655 
L 378.81124 202.32138 
L 388.649256 212.847642 
L 398.487273 271.956652 
L 398.487273 271.956652 
L 398.487273 271.956652 
L 388.649256 212.847642 
L 378.81124 202.32138 
L 368.973223 207.179655 
L 359.135207 176.410581 
L 349.29719 174.791157 
L 339.459174 146.45122 
L 329.621157 169.123169 
L 319.78314 161.026045 
L 309.945124 131.066684 
L 300.107107 129.447259 
L 290.269091 133.495821 
L 280.431074 143.212371 
L 270.593058 114.872435 
L 260.755041 114.872435 
L 250.917025 132.686109 
L 241.079008 109.204447 
L 231.240992 106.77531 
L 221.402975 105.155885 
L 211.564959 88.961636 
L 201.726942 100.29761 
L 191.888926 101.917035 
L 182.050909 86.532498 
L 172.212893 87.342211 
L 162.374876 81.674224 
L 152.53686 76.815949 
L 142.698843 67.099399 
L 132.860826 66.289687 
L 123.02281 61.431412 
L 113.184793 58.192562 
L 103.346777 62.241125 
L 93.50876 64.670262 
L 83.670744 63.050837 
L 73.832727 64.670262 
z
" clip-path="url(#p96b74c2183)" style="fill: #1f77b4"/>
   </g>
   <g id="PolyCollection_22">
    <path d="M 73.832727 64.670262 
L 73.832727 64.670262 
L 83.670744 63.050837 
L 93.50876 64.670262 
L 103.346777 62.241125 
L 113.184793 58.192562 
L 123.02281 61.431412 
L 132.860826 66.289687 
L 142.698843 67.099399 
L 152.53686 76.815949 
L 162.374876 81.674224 
L 172.212893 87.342211 
L 182.050909 86.532498 
L 191.888926 101.917035 
L 201.726942 100.29761 
L 211.564959 88.961636 
L 221.402975 105.155885 
L 231.240992 106.77531 
L 241.079008 109.204447 
L 250.917025 132.686109 
L 260.755041 114.872435 
L 270.593058 114.872435 
L 280.431074 143.212371 
L 290.269091 133.495821 
L 300.107107 129.447259 
L 309.945124 131.066684 
L 319.78314 161.026045 
L 329.621157 169.123169 
L 339.459174 146.45122 
L 349.29719 174.791157 
L 359.135207 176.410581 
L 368.973223 207.179655 
L 378.81124 202.32138 
L 388.649256 212.847642 
L 398.487273 271.956652 
L 398.487273 265.478952 
L 398.487273 265.478952 
L 388.649256 206.369942 
L 378.81124 186.127131 
L 368.973223 187.746556 
L 359.135207 165.884319 
L 349.29719 169.123169 
L 339.459174 140.783233 
L 329.621157 158.596907 
L 319.78314 152.119208 
L 309.945124 122.969559 
L 300.107107 121.350134 
L 290.269091 127.018121 
L 280.431074 127.018121 
L 270.593058 109.204447 
L 260.755041 101.107323 
L 250.917025 122.159847 
L 241.079008 97.868473 
L 231.240992 96.249048 
L 221.402975 92.200486 
L 211.564959 84.103361 
L 201.726942 84.103361 
L 191.888926 89.771348 
L 182.050909 79.245086 
L 172.212893 80.054799 
L 162.374876 78.435374 
L 152.53686 68.718824 
L 142.698843 62.241125 
L 132.860826 63.050837 
L 123.02281 61.431412 
L 113.184793 58.192562 
L 103.346777 62.241125 
L 93.50876 64.670262 
L 83.670744 63.050837 
L 73.832727 64.670262 
z
" clip-path="url(#p96b74c2183)" style="fill: #ff7f0e"/>
   </g>
   <g id="PolyCollection_23">
    <path d="M 73.832727 64.670262 
L 73.832727 64.670262 
L 83.670744 63.050837 
L 93.50876 64.670262 
L 103.346777 62.241125 
L 113.184793 58.192562 
L 123.02281 61.431412 
L 132.860826 63.050837 
L 142.698843 62.241125 
L 152.53686 68.718824 
L 162.374876 78.435374 
L 172.212893 80.054799 
L 182.050909 79.245086 
L 191.888926 89.771348 
L 201.726942 84.103361 
L 211.564959 84.103361 
L 221.402975 92.200486 
L 231.240992 96.249048 
L 241.079008 97.868473 
L 250.917025 122.159847 
L 260.755041 101.107323 
L 270.593058 109.204447 
L 280.431074 127.018121 
L 290.269091 127.018121 
L 300.107107 121.350134 
L 309.945124 122.969559 
L 319.78314 152.119208 
L 329.621157 158.596907 
L 339.459174 140.783233 
L 349.29719 169.123169 
L 359.135207 165.884319 
L 368.973223 187.746556 
L 378.81124 186.127131 
L 388.649256 206.369942 
L 398.487273 265.478952 
L 398.487273 259.001252 
L 398.487273 259.001252 
L 388.649256 200.701955 
L 378.81124 173.981444 
L 368.973223 178.030006 
L 359.135207 161.026045 
L 349.29719 165.074607 
L 339.459174 133.495821 
L 329.621157 147.260933 
L 319.78314 137.544383 
L 309.945124 110.823872 
L 300.107107 109.204447 
L 290.269091 105.965597 
L 280.431074 113.25301 
L 270.593058 99.487898 
L 260.755041 94.629623 
L 250.917025 114.062722 
L 241.079008 95.439335 
L 231.240992 88.961636 
L 221.402975 84.103361 
L 211.564959 79.245086 
L 201.726942 77.625661 
L 191.888926 82.483936 
L 182.050909 71.957674 
L 172.212893 73.577099 
L 162.374876 71.957674 
L 152.53686 66.289687 
L 142.698843 62.241125 
L 132.860826 63.050837 
L 123.02281 61.431412 
L 113.184793 58.192562 
L 103.346777 62.241125 
L 93.50876 64.670262 
L 83.670744 63.050837 
L 73.832727 64.670262 
z
" clip-path="url(#p96b74c2183)" style="fill: #2ca02c"/>
   </g>
   <g id="PolyCollection_24">
    <path d="M 73.832727 64.670262 
L 73.832727 64.670262 
L 83.670744 63.050837 
L 93.50876 64.670262 
L 103.346777 62.241125 
L 113.184793 58.192562 
L 123.02281 61.431412 
L 132.860826 63.050837 
L 142.698843 62.241125 
L 152.53686 66.289687 
L 162.374876 71.957674 
L 172.212893 73.577099 
L 182.050909 71.957674 
L 191.888926 82.483936 
L 201.726942 77.625661 
L 211.564959 79.245086 
L 221.402975 84.103361 
L 231.240992 88.961636 
L 241.079008 95.439335 
L 250.917025 114.062722 
L 260.755041 94.629623 
L 270.593058 99.487898 
L 280.431074 113.25301 
L 290.269091 105.965597 
L 300.107107 109.204447 
L 309.945124 110.823872 
L 319.78314 137.544383 
L 329.621157 147.260933 
L 339.459174 133.495821 
L 349.29719 165.074607 
L 359.135207 161.026045 
L 368.973223 178.030006 
L 378.81124 173.981444 
L 388.649256 200.701955 
L 398.487273 259.001252 
L 398.487273 249.284703 
L 398.487273 249.284703 
L 388.649256 191.795118 
L 378.81124 161.026045 
L 368.973223 166.694032 
L 359.135207 143.212371 
L 349.29719 144.831796 
L 339.459174 127.827834 
L 329.621157 137.544383 
L 319.78314 123.779272 
L 309.945124 103.53646 
L 300.107107 97.868473 
L 290.269091 97.868473 
L 280.431074 101.107323 
L 270.593058 87.342211 
L 260.755041 88.961636 
L 250.917025 103.53646 
L 241.079008 88.151923 
L 231.240992 83.293649 
L 221.402975 76.006236 
L 211.564959 71.957674 
L 201.726942 69.528537 
L 191.888926 76.815949 
L 182.050909 68.718824 
L 172.212893 67.909112 
L 162.374876 66.289687 
L 152.53686 63.86055 
L 142.698843 62.241125 
L 132.860826 63.050837 
L 123.02281 61.431412 
L 113.184793 58.192562 
L 103.346777 62.241125 
L 93.50876 64.670262 
L 83.670744 63.050837 
L 73.832727 64.670262 
z
" clip-path="url(#p96b74c2183)" style="fill: #d62728"/>
   </g>
   <g id="PolyCollection_25">
    <path d="M 73.832727 64.670262 
L 73.832727 64.670262 
L 83.670744 63.050837 
L 93.50876 64.670262 
L 103.346777 62.241125 
L 113.184793 58.192562 
L 123.02281 61.431412 
L 132.860826 63.050837 
L 142.698843 62.241125 
L 152.53686 63.86055 
L 162.374876 66.289687 
L 172.212893 67.909112 
L 182.050909 68.718824 
L 191.888926 76.815949 
L 201.726942 69.528537 
L 211.564959 71.957674 
L 221.402975 76.006236 
L 231.240992 83.293649 
L 241.079008 88.151923 
L 250.917025 103.53646 
L 260.755041 88.961636 
L 270.593058 87.342211 
L 280.431074 101.107323 
L 290.269091 97.868473 
L 300.107107 97.868473 
L 309.945124 103.53646 
L 319.78314 123.779272 
L 329.621157 137.544383 
L 339.459174 127.827834 
L 349.29719 144.831796 
L 359.135207 143.212371 
L 368.973223 166.694032 
L 378.81124 161.026045 
L 388.649256 191.795118 
L 398.487273 249.284703 
L 398.487273 122.969559 
L 398.487273 122.969559 
L 388.649256 188.556268 
L 378.81124 134.305534 
L 368.973223 146.45122 
L 359.135207 132.686109 
L 349.29719 134.305534 
L 339.459174 119.730709 
L 329.621157 128.637546 
L 319.78314 117.301572 
L 309.945124 98.678185 
L 300.107107 89.771348 
L 290.269091 93.010198 
L 280.431074 97.05876 
L 270.593058 83.293649 
L 260.755041 76.815949 
L 250.917025 99.487898 
L 241.079008 82.483936 
L 231.240992 77.625661 
L 221.402975 70.338249 
L 211.564959 69.528537 
L 201.726942 65.479974 
L 191.888926 64.670262 
L 182.050909 60.6217 
L 172.212893 60.6217 
L 162.374876 59.811987 
L 152.53686 63.050837 
L 142.698843 62.241125 
L 132.860826 63.050837 
L 123.02281 61.431412 
L 113.184793 58.192562 
L 103.346777 62.241125 
L 93.50876 64.670262 
L 83.670744 63.050837 
L 73.832727 64.670262 
z
" clip-path="url(#p96b74c2183)" style="fill: #9467bd"/>
   </g>
   <g id="PolyCollection_26">
    <path d="M 73.832727 64.670262 
L 73.832727 64.670262 
L 83.670744 63.050837 
L 93.50876 64.670262 
L 103.346777 62.241125 
L 113.184793 58.192562 
L 123.02281 61.431412 
L 132.860826 63.050837 
L 142.698843 62.241125 
L 152.53686 63.050837 
L 162.374876 59.811987 
L 172.212893 60.6217 
L 182.050909 60.6217 
L 191.888926 64.670262 
L 201.726942 65.479974 
L 211.564959 69.528537 
L 221.402975 70.338249 
L 231.240992 77.625661 
L 241.079008 82.483936 
L 250.917025 99.487898 
L 260.755041 76.815949 
L 270.593058 83.293649 
L 280.431074 97.05876 
L 290.269091 93.010198 
L 300.107107 89.771348 
L 309.945124 98.678185 
L 319.78314 117.301572 
L 329.621157 128.637546 
L 339.459174 119.730709 
L 349.29719 134.305534 
L 359.135207 132.686109 
L 368.973223 146.45122 
L 378.81124 134.305534 
L 388.649256 188.556268 
L 398.487273 122.969559 
L 398.487273 120.540422 
L 398.487273 120.540422 
L 388.649256 174.791157 
L 378.81124 125.398696 
L 368.973223 133.495821 
L 359.135207 120.540422 
L 349.29719 122.969559 
L 339.459174 114.062722 
L 329.621157 120.540422 
L 319.78314 103.53646 
L 309.945124 88.961636 
L 300.107107 84.103361 
L 290.269091 84.103361 
L 280.431074 89.771348 
L 270.593058 77.625661 
L 260.755041 75.196524 
L 250.917025 84.913073 
L 241.079008 72.767387 
L 231.240992 71.957674 
L 221.402975 63.86055 
L 211.564959 63.050837 
L 201.726942 63.050837 
L 191.888926 64.670262 
L 182.050909 60.6217 
L 172.212893 60.6217 
L 162.374876 59.811987 
L 152.53686 63.050837 
L 142.698843 62.241125 
L 132.860826 63.050837 
L 123.02281 61.431412 
L 113.184793 58.192562 
L 103.346777 62.241125 
L 93.50876 64.670262 
L 83.670744 63.050837 
L 73.832727 64.670262 
z
" clip-path="url(#p96b74c2183)" style="fill: #8c564b"/>
   </g>
   <g id="PolyCollection_27">
    <path d="M 73.832727 64.670262 
L 73.832727 64.670262 
L 83.670744 63.050837 
L 93.50876 64.670262 
L 103.346777 62.241125 
L 113.184793 58.192562 
L 123.02281 61.431412 
L 132.860826 63.050837 
L 142.698843 62.241125 
L 152.53686 63.050837 
L 162.374876 59.811987 
L 172.212893 60.6217 
L 182.050909 60.6217 
L 191.888926 64.670262 
L 201.726942 63.050837 
L 211.564959 63.050837 
L 221.402975 63.86055 
L 231.240992 71.957674 
L 241.079008 72.767387 
L 250.917025 84.913073 
L 260.755041 75.196524 
L 270.593058 77.625661 
L 280.431074 89.771348 
L 290.269091 84.103361 
L 300.107107 84.103361 
L 309.945124 88.961636 
L 319.78314 103.53646 
L 329.621157 120.540422 
L 339.459174 114.062722 
L 349.29719 122.969559 
L 359.135207 120.540422 
L 368.973223 133.495821 
L 378.81124 125.398696 
L 388.649256 174.791157 
L 398.487273 120.540422 
L 398.487273 110.823872 
L 398.487273 110.823872 
L 388.649256 163.455182 
L 378.81124 114.872435 
L 368.973223 120.540422 
L 359.135207 110.01416 
L 349.29719 114.872435 
L 339.459174 106.77531 
L 329.621157 111.633585 
L 319.78314 91.390773 
L 309.945124 86.532498 
L 300.107107 76.815949 
L 290.269091 80.054799 
L 280.431074 83.293649 
L 270.593058 70.338249 
L 260.755041 71.147962 
L 250.917025 79.245086 
L 241.079008 67.099399 
L 231.240992 67.909112 
L 221.402975 59.811987 
L 211.564959 60.6217 
L 201.726942 63.050837 
L 191.888926 64.670262 
L 182.050909 60.6217 
L 172.212893 60.6217 
L 162.374876 59.811987 
L 152.53686 63.050837 
L 142.698843 62.241125 
L 132.860826 63.050837 
L 123.02281 61.431412 
L 113.184793 58.192562 
L 103.346777 62.241125 
L 93.50876 64.670262 
L 83.670744 63.050837 
L 73.832727 64.670262 
z
" clip-path="url(#p96b74c2183)" style="fill: #e377c2"/>
   </g>
   <g id="PolyCollection_28">
    <path d="M 73.832727 64.670262 
L 73.832727 64.670262 
L 83.670744 63.050837 
L 93.50876 64.670262 
L 103.346777 62.241125 
L 113.184793 58.192562 
L 123.02281 61.431412 
L 132.860826 63.050837 
L 142.698843 62.241125 
L 152.53686 63.050837 
L 162.374876 59.811987 
L 172.212893 60.6217 
L 182.050909 60.6217 
L 191.888926 64.670262 
L 201.726942 63.050837 
L 211.564959 60.6217 
L 221.402975 59.811987 
L 231.240992 67.909112 
L 241.079008 67.099399 
L 250.917025 79.245086 
L 260.755041 71.147962 
L 270.593058 70.338249 
L 280.431074 83.293649 
L 290.269091 80.054799 
L 300.107107 76.815949 
L 309.945124 86.532498 
L 319.78314 91.390773 
L 329.621157 111.633585 
L 339.459174 106.77531 
L 349.29719 114.872435 
L 359.135207 110.01416 
L 368.973223 120.540422 
L 378.81124 114.872435 
L 388.649256 163.455182 
L 398.487273 110.823872 
L 398.487273 97.868473 
L 398.487273 97.868473 
L 388.649256 154.548345 
L 378.81124 108.394735 
L 368.973223 108.394735 
L 359.135207 95.439335 
L 349.29719 101.107323 
L 339.459174 98.678185 
L 329.621157 105.965597 
L 319.78314 77.625661 
L 309.945124 77.625661 
L 300.107107 64.670262 
L 290.269091 75.196524 
L 280.431074 75.196524 
L 270.593058 59.002275 
L 260.755041 65.479974 
L 250.917025 72.767387 
L 241.079008 60.6217 
L 231.240992 60.6217 
L 221.402975 56.573137 
L 211.564959 60.6217 
L 201.726942 63.050837 
L 191.888926 64.670262 
L 182.050909 60.6217 
L 172.212893 60.6217 
L 162.374876 59.811987 
L 152.53686 63.050837 
L 142.698843 62.241125 
L 132.860826 63.050837 
L 123.02281 61.431412 
L 113.184793 58.192562 
L 103.346777 62.241125 
L 93.50876 64.670262 
L 83.670744 63.050837 
L 73.832727 64.670262 
z
" clip-path="url(#p96b74c2183)" style="fill: #7f7f7f"/>
   </g>
   <g id="PolyCollection_29">
    <path d="M 73.832727 64.670262 
L 73.832727 64.670262 
L 83.670744 63.050837 
L 93.50876 64.670262 
L 103.346777 62.241125 
L 113.184793 58.192562 
L 123.02281 61.431412 
L 132.860826 63.050837 
L 142.698843 62.241125 
L 152.53686 63.050837 
L 162.374876 59.811987 
L 172.212893 60.6217 
L 182.050909 60.6217 
L 191.888926 64.670262 
L 201.726942 63.050837 
L 211.564959 60.6217 
L 221.402975 56.573137 
L 231.240992 60.6217 
L 241.079008 60.6217 
L 250.917025 72.767387 
L 260.755041 65.479974 
L 270.593058 59.002275 
L 280.431074 75.196524 
L 290.269091 75.196524 
L 300.107107 64.670262 
L 309.945124 77.625661 
L 319.78314 77.625661 
L 329.621157 105.965597 
L 339.459174 98.678185 
L 349.29719 101.107323 
L 359.135207 95.439335 
L 368.973223 108.394735 
L 378.81124 108.394735 
L 388.649256 154.548345 
L 398.487273 97.868473 
L 398.487273 88.961636 
L 398.487273 88.961636 
L 388.649256 146.45122 
L 378.81124 98.678185 
L 368.973223 94.629623 
L 359.135207 76.815949 
L 349.29719 93.010198 
L 339.459174 93.010198 
L 329.621157 97.868473 
L 319.78314 67.909112 
L 309.945124 68.718824 
L 300.107107 61.431412 
L 290.269091 71.147962 
L 280.431074 63.050837 
L 270.593058 54.144 
L 260.755041 55.763425 
L 250.917025 56.573137 
L 241.079008 57.38285 
L 231.240992 60.6217 
L 221.402975 56.573137 
L 211.564959 60.6217 
L 201.726942 63.050837 
L 191.888926 64.670262 
L 182.050909 60.6217 
L 172.212893 60.6217 
L 162.374876 59.811987 
L 152.53686 63.050837 
L 142.698843 62.241125 
L 132.860826 63.050837 
L 123.02281 61.431412 
L 113.184793 58.192562 
L 103.346777 62.241125 
L 93.50876 64.670262 
L 83.670744 63.050837 
L 73.832727 64.670262 
z
" clip-path="url(#p96b74c2183)" style="fill: #bcbd22"/>
   </g>
   <g id="PolyCollection_30">
    <path d="M 73.832727 64.670262 
L 73.832727 64.670262 
L 83.670744 63.050837 
L 93.50876 64.670262 
L 103.346777 62.241125 
L 113.184793 58.192562 
L 123.02281 61.431412 
L 132.860826 63.050837 
L 142.698843 62.241125 
L 152.53686 63.050837 
L 162.374876 59.811987 
L 172.212893 60.6217 
L 182.050909 60.6217 
L 191.888926 64.670262 
L 201.726942 63.050837 
L 211.564959 60.6217 
L 221.402975 56.573137 
L 231.240992 60.6217 
L 241.079008 57.38285 
L 250.917025 56.573137 
L 260.755041 55.763425 
L 270.593058 54.144 
L 280.431074 63.050837 
L 290.269091 71.147962 
L 300.107107 61.431412 
L 309.945124 68.718824 
L 319.78314 67.909112 
L 329.621157 97.868473 
L 339.459174 93.010198 
L 349.29719 93.010198 
L 359.135207 76.815949 
L 368.973223 94.629623 
L 378.81124 98.678185 
L 388.649256 146.45122 
L 398.487273 88.961636 
L 398.487273 84.103361 
L 398.487273 84.103361 
L 388.649256 133.495821 
L 378.81124 87.342211 
L 368.973223 73.577099 
L 359.135207 66.289687 
L 349.29719 64.670262 
L 339.459174 67.099399 
L 329.621157 63.86055 
L 319.78314 64.670262 
L 309.945124 68.718824 
L 300.107107 61.431412 
L 290.269091 71.147962 
L 280.431074 63.050837 
L 270.593058 54.144 
L 260.755041 55.763425 
L 250.917025 56.573137 
L 241.079008 57.38285 
L 231.240992 60.6217 
L 221.402975 56.573137 
L 211.564959 60.6217 
L 201.726942 63.050837 
L 191.888926 64.670262 
L 182.050909 60.6217 
L 172.212893 60.6217 
L 162.374876 59.811987 
L 152.53686 63.050837 
L 142.698843 62.241125 
L 132.860826 63.050837 
L 123.02281 61.431412 
L 113.184793 58.192562 
L 103.346777 62.241125 
L 93.50876 64.670262 
L 83.670744 63.050837 
L 73.832727 64.670262 
z
" clip-path="url(#p96b74c2183)" style="fill: #17becf"/>
   </g>
   <g id="PolyCollection_31">
    <path d="M 73.832727 64.670262 
L 73.832727 64.670262 
L 83.670744 63.050837 
L 93.50876 64.670262 
L 103.346777 62.241125 
L 113.184793 58.192562 
L 123.02281 61.431412 
L 132.860826 63.050837 
L 142.698843 62.241125 
L 152.53686 63.050837 
L 162.374876 59.811987 
L 172.212893 60.6217 
L 182.050909 60.6217 
L 191.888926 64.670262 
L 201.726942 63.050837 
L 211.564959 60.6217 
L 221.402975 56.573137 
L 231.240992 60.6217 
L 241.079008 57.38285 
L 250.917025 56.573137 
L 260.755041 55.763425 
L 270.593058 54.144 
L 280.431074 63.050837 
L 290.269091 71.147962 
L 300.107107 61.431412 
L 309.945124 68.718824 
L 319.78314 64.670262 
L 329.621157 63.86055 
L 339.459174 67.099399 
L 349.29719 64.670262 
L 359.135207 66.289687 
L 368.973223 73.577099 
L 378.81124 87.342211 
L 388.649256 133.495821 
L 398.487273 84.103361 
L 398.487273 77.625661 
L 398.487273 77.625661 
L 388.649256 128.637546 
L 378.81124 80.864511 
L 368.973223 67.909112 
L 359.135207 65.479974 
L 349.29719 64.670262 
L 339.459174 67.099399 
L 329.621157 63.86055 
L 319.78314 64.670262 
L 309.945124 68.718824 
L 300.107107 61.431412 
L 290.269091 71.147962 
L 280.431074 63.050837 
L 270.593058 54.144 
L 260.755041 55.763425 
L 250.917025 56.573137 
L 241.079008 57.38285 
L 231.240992 60.6217 
L 221.402975 56.573137 
L 211.564959 60.6217 
L 201.726942 63.050837 
L 191.888926 64.670262 
L 182.050909 60.6217 
L 172.212893 60.6217 
L 162.374876 59.811987 
L 152.53686 63.050837 
L 142.698843 62.241125 
L 132.860826 63.050837 
L 123.02281 61.431412 
L 113.184793 58.192562 
L 103.346777 62.241125 
L 93.50876 64.670262 
L 83.670744 63.050837 
L 73.832727 64.670262 
z
" clip-path="url(#p96b74c2183)" style="fill: #1f77b4"/>
   </g>
   <g id="PolyCollection_32">
    <path d="M 73.832727 64.670262 
L 73.832727 64.670262 
L 83.670744 63.050837 
L 93.50876 64.670262 
L 103.346777 62.241125 
L 113.184793 58.192562 
L 123.02281 61.431412 
L 132.860826 63.050837 
L 142.698843 62.241125 
L 152.53686 63.050837 
L 162.374876 59.811987 
L 172.212893 60.6217 
L 182.050909 60.6217 
L 191.888926 64.670262 
L 201.726942 63.050837 
L 211.564959 60.6217 
L 221.402975 56.573137 
L 231.240992 60.6217 
L 241.079008 57.38285 
L 250.917025 56.573137 
L 260.755041 55.763425 
L 270.593058 54.144 
L 280.431074 63.050837 
L 290.269091 71.147962 
L 300.107107 61.431412 
L 309.945124 68.718824 
L 319.78314 64.670262 
L 329.621157 63.86055 
L 339.459174 67.099399 
L 349.29719 64.670262 
L 359.135207 65.479974 
L 368.973223 67.909112 
L 378.81124 80.864511 
L 388.649256 128.637546 
L 398.487273 77.625661 
L 398.487273 71.957674 
L 398.487273 71.957674 
L 388.649256 119.730709 
L 378.81124 72.767387 
L 368.973223 67.099399 
L 359.135207 65.479974 
L 349.29719 64.670262 
L 339.459174 67.099399 
L 329.621157 63.86055 
L 319.78314 64.670262 
L 309.945124 68.718824 
L 300.107107 61.431412 
L 290.269091 71.147962 
L 280.431074 63.050837 
L 270.593058 54.144 
L 260.755041 55.763425 
L 250.917025 56.573137 
L 241.079008 57.38285 
L 231.240992 60.6217 
L 221.402975 56.573137 
L 211.564959 60.6217 
L 201.726942 63.050837 
L 191.888926 64.670262 
L 182.050909 60.6217 
L 172.212893 60.6217 
L 162.374876 59.811987 
L 152.53686 63.050837 
L 142.698843 62.241125 
L 132.860826 63.050837 
L 123.02281 61.431412 
L 113.184793 58.192562 
L 103.346777 62.241125 
L 93.50876 64.670262 
L 83.670744 63.050837 
L 73.832727 64.670262 
z
" clip-path="url(#p96b74c2183)" style="fill: #ff7f0e"/>
   </g>
   <g id="PolyCollection_33">
    <path d="M 73.832727 64.670262 
L 73.832727 64.670262 
L 83.670744 63.050837 
L 93.50876 64.670262 
L 103.346777 62.241125 
L 113.184793 58.192562 
L 123.02281 61.431412 
L 132.860826 63.050837 
L 142.698843 62.241125 
L 152.53686 63.050837 
L 162.374876 59.811987 
L 172.212893 60.6217 
L 182.050909 60.6217 
L 191.888926 64.670262 
L 201.726942 63.050837 
L 211.564959 60.6217 
L 221.402975 56.573137 
L 231.240992 60.6217 
L 241.079008 57.38285 
L 250.917025 56.573137 
L 260.755041 55.763425 
L 270.593058 54.144 
L 280.431074 63.050837 
L 290.269091 71.147962 
L 300.107107 61.431412 
L 309.945124 68.718824 
L 319.78314 64.670262 
L 329.621157 63.86055 
L 339.459174 67.099399 
L 349.29719 64.670262 
L 359.135207 65.479974 
L 368.973223 67.099399 
L 378.81124 72.767387 
L 388.649256 119.730709 
L 398.487273 71.957674 
L 398.487273 66.289687 
L 398.487273 66.289687 
L 388.649256 67.909112 
L 378.81124 62.241125 
L 368.973223 66.289687 
L 359.135207 65.479974 
L 349.29719 64.670262 
L 339.459174 67.099399 
L 329.621157 63.86055 
L 319.78314 64.670262 
L 309.945124 68.718824 
L 300.107107 61.431412 
L 290.269091 71.147962 
L 280.431074 63.050837 
L 270.593058 54.144 
L 260.755041 55.763425 
L 250.917025 56.573137 
L 241.079008 57.38285 
L 231.240992 60.6217 
L 221.402975 56.573137 
L 211.564959 60.6217 
L 201.726942 63.050837 
L 191.888926 64.670262 
L 182.050909 60.6217 
L 172.212893 60.6217 
L 162.374876 59.811987 
L 152.53686 63.050837 
L 142.698843 62.241125 
L 132.860826 63.050837 
L 123.02281 61.431412 
L 113.184793 58.192562 
L 103.346777 62.241125 
L 93.50876 64.670262 
L 83.670744 63.050837 
L 73.832727 64.670262 
z
" clip-path="url(#p96b74c2183)" style="fill: #2ca02c"/>
   </g>
   <g id="matplotlib.axis_1">
    <g id="xtick_1">
     <g id="line2d_1">
      <defs>
       <path id="m5caa83d594" d="M 0 0 
L 0 3.5 
" style="stroke: #000000; stroke-width: 0.8"/>
      </defs>
      <g>
       <use xlink:href="#m5caa83d594" x="73.832727" y="307.584" style="stroke: #000000; stroke-width: 0.8"/>
      </g>
     </g>
     <g id="text_1">
      <!-- 0 -->
      <g transform="translate(70.651477 322.182437) scale(0.1 -0.1)">
       <defs>
        <path id="DejaVuSans-30" d="M 2034 4250 
Q 1547 4250 1301 3770 
Q 1056 3291 1056 2328 
Q 1056 1369 1301 889 
Q 1547 409 2034 409 
Q 2525 409 2770 889 
Q 3016 1369 3016 2328 
Q 3016 3291 2770 3770 
Q 2525 4250 2034 4250 
z
M 2034 4750 
Q 2819 4750 3233 4129 
Q 3647 3509 3647 2328 
Q 3647 1150 3233 529 
Q 2819 -91 2034 -91 
Q 1250 -91 836 529 
Q 422 1150 422 2328 
Q 422 3509 836 4129 
Q 1250 4750 2034 4750 
z
" transform="scale(0.015625)"/>
       </defs>
       <use xlink:href="#DejaVuSans-30"/>
      </g>
     </g>
    </g>
    <g id="xtick_2">
     <g id="line2d_2">
      <g>
       <use xlink:href="#m5caa83d594" x="123.02281" y="307.584" style="stroke: #000000; stroke-width: 0.8"/>
      </g>
     </g>
     <g id="text_2">
      <!-- 5 -->
      <g transform="translate(119.84156 322.182437) scale(0.1 -0.1)">
       <defs>
        <path id="DejaVuSans-35" d="M 691 4666 
L 3169 4666 
L 3169 4134 
L 1269 4134 
L 1269 2991 
Q 1406 3038 1543 3061 
Q 1681 3084 1819 3084 
Q 2600 3084 3056 2656 
Q 3513 2228 3513 1497 
Q 3513 744 3044 326 
Q 2575 -91 1722 -91 
Q 1428 -91 1123 -41 
Q 819 9 494 109 
L 494 744 
Q 775 591 1075 516 
Q 1375 441 1709 441 
Q 2250 441 2565 725 
Q 2881 1009 2881 1497 
Q 2881 1984 2565 2268 
Q 2250 2553 1709 2553 
Q 1456 2553 1204 2497 
Q 953 2441 691 2322 
L 691 4666 
z
" transform="scale(0.015625)"/>
       </defs>
       <use xlink:href="#DejaVuSans-35"/>
      </g>
     </g>
    </g>
    <g id="xtick_3">
     <g id="line2d_3">
      <g>
       <use xlink:href="#m5caa83d594" x="172.212893" y="307.584" style="stroke: #000000; stroke-width: 0.8"/>
      </g>
     </g>
     <g id="text_3">
      <!-- 10 -->
      <g transform="translate(165.850393 322.182437) scale(0.1 -0.1)">
       <defs>
        <path id="DejaVuSans-31" d="M 794 531 
L 1825 531 
L 1825 4091 
L 703 3866 
L 703 4441 
L 1819 4666 
L 2450 4666 
L 2450 531 
L 3481 531 
L 3481 0 
L 794 0 
L 794 531 
z
" transform="scale(0.015625)"/>
       </defs>
       <use xlink:href="#DejaVuSans-31"/>
       <use xlink:href="#DejaVuSans-30" x="63.623047"/>
      </g>
     </g>
    </g>
    <g id="xtick_4">
     <g id="line2d_4">
      <g>
       <use xlink:href="#m5caa83d594" x="221.402975" y="307.584" style="stroke: #000000; stroke-width: 0.8"/>
      </g>
     </g>
     <g id="text_4">
      <!-- 15 -->
      <g transform="translate(215.040475 322.182437) scale(0.1 -0.1)">
       <use xlink:href="#DejaVuSans-31"/>
       <use xlink:href="#DejaVuSans-35" x="63.623047"/>
      </g>
     </g>
    </g>
    <g id="xtick_5">
     <g id="line2d_5">
      <g>
       <use xlink:href="#m5caa83d594" x="270.593058" y="307.584" style="stroke: #000000; stroke-width: 0.8"/>
      </g>
     </g>
     <g id="text_5">
      <!-- 20 -->
      <g transform="translate(264.230558 322.182437) scale(0.1 -0.1)">
       <defs>
        <path id="DejaVuSans-32" d="M 1228 531 
L 3431 531 
L 3431 0 
L 469 0 
L 469 531 
Q 828 903 1448 1529 
Q 2069 2156 2228 2338 
Q 2531 2678 2651 2914 
Q 2772 3150 2772 3378 
Q 2772 3750 2511 3984 
Q 2250 4219 1831 4219 
Q 1534 4219 1204 4116 
Q 875 4013 500 3803 
L 500 4441 
Q 881 4594 1212 4672 
Q 1544 4750 1819 4750 
Q 2544 4750 2975 4387 
Q 3406 4025 3406 3419 
Q 3406 3131 3298 2873 
Q 3191 2616 2906 2266 
Q 2828 2175 2409 1742 
Q 1991 1309 1228 531 
z
" transform="scale(0.015625)"/>
       </defs>
       <use xlink:href="#DejaVuSans-32"/>
       <use xlink:href="#DejaVuSans-30" x="63.623047"/>
      </g>
     </g>
    </g>
    <g id="xtick_6">
     <g id="line2d_6">
      <g>
       <use xlink:href="#m5caa83d594" x="319.78314" y="307.584" style="stroke: #000000; stroke-width: 0.8"/>
      </g>
     </g>
     <g id="text_6">
      <!-- 25 -->
      <g transform="translate(313.42064 322.182437) scale(0.1 -0.1)">
       <use xlink:href="#DejaVuSans-32"/>
       <use xlink:href="#DejaVuSans-35" x="63.623047"/>
      </g>
     </g>
    </g>
    <g id="xtick_7">
     <g id="line2d_7">
      <g>
       <use xlink:href="#m5caa83d594" x="368.973223" y="307.584" style="stroke: #000000; stroke-width: 0.8"/>
      </g>
     </g>
     <g id="text_7">
      <!-- 30 -->
      <g transform="translate(362.610723 322.182437) scale(0.1 -0.1)">
       <defs>
        <path id="DejaVuSans-33" d="M 2597 2516 
Q 3050 2419 3304 2112 
Q 3559 1806 3559 1356 
Q 3559 666 3084 287 
Q 2609 -91 1734 -91 
Q 1441 -91 1130 -33 
Q 819 25 488 141 
L 488 750 
Q 750 597 1062 519 
Q 1375 441 1716 441 
Q 2309 441 2620 675 
Q 2931 909 2931 1356 
Q 2931 1769 2642 2001 
Q 2353 2234 1838 2234 
L 1294 2234 
L 1294 2753 
L 1863 2753 
Q 2328 2753 2575 2939 
Q 2822 3125 2822 3475 
Q 2822 3834 2567 4026 
Q 2313 4219 1838 4219 
Q 1578 4219 1281 4162 
Q 984 4106 628 3988 
L 628 4550 
Q 988 4650 1302 4700 
Q 1616 4750 1894 4750 
Q 2613 4750 3031 4423 
Q 3450 4097 3450 3541 
Q 3450 3153 3228 2886 
Q 3006 2619 2597 2516 
z
" transform="scale(0.015625)"/>
       </defs>
       <use xlink:href="#DejaVuSans-33"/>
       <use xlink:href="#DejaVuSans-30" x="63.623047"/>
      </g>
     </g>
    </g>
    <g id="text_8">
     <!-- Generations -->
     <g transform="translate(205.662344 335.860562) scale(0.1 -0.1)">
      <defs>
       <path id="DejaVuSans-47" d="M 3809 666 
L 3809 1919 
L 2778 1919 
L 2778 2438 
L 4434 2438 
L 4434 434 
Q 4069 175 3628 42 
Q 3188 -91 2688 -91 
Q 1594 -91 976 548 
Q 359 1188 359 2328 
Q 359 3472 976 4111 
Q 1594 4750 2688 4750 
Q 3144 4750 3555 4637 
Q 3966 4525 4313 4306 
L 4313 3634 
Q 3963 3931 3569 4081 
Q 3175 4231 2741 4231 
Q 1884 4231 1454 3753 
Q 1025 3275 1025 2328 
Q 1025 1384 1454 906 
Q 1884 428 2741 428 
Q 3075 428 3337 486 
Q 3600 544 3809 666 
z
" transform="scale(0.015625)"/>
       <path id="DejaVuSans-65" d="M 3597 1894 
L 3597 1613 
L 953 1613 
Q 991 1019 1311 708 
Q 1631 397 2203 397 
Q 2534 397 2845 478 
Q 3156 559 3463 722 
L 3463 178 
Q 3153 47 2828 -22 
Q 2503 -91 2169 -91 
Q 1331 -91 842 396 
Q 353 884 353 1716 
Q 353 2575 817 3079 
Q 1281 3584 2069 3584 
Q 2775 3584 3186 3129 
Q 3597 2675 3597 1894 
z
M 3022 2063 
Q 3016 2534 2758 2815 
Q 2500 3097 2075 3097 
Q 1594 3097 1305 2825 
Q 1016 2553 972 2059 
L 3022 2063 
z
" transform="scale(0.015625)"/>
       <path id="DejaVuSans-6e" d="M 3513 2113 
L 3513 0 
L 2938 0 
L 2938 2094 
Q 2938 2591 2744 2837 
Q 2550 3084 2163 3084 
Q 1697 3084 1428 2787 
Q 1159 2491 1159 1978 
L 1159 0 
L 581 0 
L 581 3500 
L 1159 3500 
L 1159 2956 
Q 1366 3272 1645 3428 
Q 1925 3584 2291 3584 
Q 2894 3584 3203 3211 
Q 3513 2838 3513 2113 
z
" transform="scale(0.015625)"/>
       <path id="DejaVuSans-72" d="M 2631 2963 
Q 2534 3019 2420 3045 
Q 2306 3072 2169 3072 
Q 1681 3072 1420 2755 
Q 1159 2438 1159 1844 
L 1159 0 
L 581 0 
L 581 3500 
L 1159 3500 
L 1159 2956 
Q 1341 3275 1631 3429 
Q 1922 3584 2338 3584 
Q 2397 3584 2469 3576 
Q 2541 3569 2628 3553 
L 2631 2963 
z
" transform="scale(0.015625)"/>
       <path id="DejaVuSans-61" d="M 2194 1759 
Q 1497 1759 1228 1600 
Q 959 1441 959 1056 
Q 959 750 1161 570 
Q 1363 391 1709 391 
Q 2188 391 2477 730 
Q 2766 1069 2766 1631 
L 2766 1759 
L 2194 1759 
z
M 3341 1997 
L 3341 0 
L 2766 0 
L 2766 531 
Q 2569 213 2275 61 
Q 1981 -91 1556 -91 
Q 1019 -91 701 211 
Q 384 513 384 1019 
Q 384 1609 779 1909 
Q 1175 2209 1959 2209 
L 2766 2209 
L 2766 2266 
Q 2766 2663 2505 2880 
Q 2244 3097 1772 3097 
Q 1472 3097 1187 3025 
Q 903 2953 641 2809 
L 641 3341 
Q 956 3463 1253 3523 
Q 1550 3584 1831 3584 
Q 2591 3584 2966 3190 
Q 3341 2797 3341 1997 
z
" transform="scale(0.015625)"/>
       <path id="DejaVuSans-74" d="M 1172 4494 
L 1172 3500 
L 2356 3500 
L 2356 3053 
L 1172 3053 
L 1172 1153 
Q 1172 725 1289 603 
Q 1406 481 1766 481 
L 2356 481 
L 2356 0 
L 1766 0 
Q 1100 0 847 248 
Q 594 497 594 1153 
L 594 3053 
L 172 3053 
L 172 3500 
L 594 3500 
L 594 4494 
L 1172 4494 
z
" transform="scale(0.015625)"/>
       <path id="DejaVuSans-69" d="M 603 3500 
L 1178 3500 
L 1178 0 
L 603 0 
L 603 3500 
z
M 603 4863 
L 1178 4863 
L 1178 4134 
L 603 4134 
L 603 4863 
z
" transform="scale(0.015625)"/>
       <path id="DejaVuSans-6f" d="M 1959 3097 
Q 1497 3097 1228 2736 
Q 959 2375 959 1747 
Q 959 1119 1226 758 
Q 1494 397 1959 397 
Q 2419 397 2687 759 
Q 2956 1122 2956 1747 
Q 2956 2369 2687 2733 
Q 2419 3097 1959 3097 
z
M 1959 3584 
Q 2709 3584 3137 3096 
Q 3566 2609 3566 1747 
Q 3566 888 3137 398 
Q 2709 -91 1959 -91 
Q 1206 -91 779 398 
Q 353 888 353 1747 
Q 353 2609 779 3096 
Q 1206 3584 1959 3584 
z
" transform="scale(0.015625)"/>
       <path id="DejaVuSans-73" d="M 2834 3397 
L 2834 2853 
Q 2591 2978 2328 3040 
Q 2066 3103 1784 3103 
Q 1356 3103 1142 2972 
Q 928 2841 928 2578 
Q 928 2378 1081 2264 
Q 1234 2150 1697 2047 
L 1894 2003 
Q 2506 1872 2764 1633 
Q 3022 1394 3022 966 
Q 3022 478 2636 193 
Q 2250 -91 1575 -91 
Q 1294 -91 989 -36 
Q 684 19 347 128 
L 347 722 
Q 666 556 975 473 
Q 1284 391 1588 391 
Q 1994 391 2212 530 
Q 2431 669 2431 922 
Q 2431 1156 2273 1281 
Q 2116 1406 1581 1522 
L 1381 1569 
Q 847 1681 609 1914 
Q 372 2147 372 2553 
Q 372 3047 722 3315 
Q 1072 3584 1716 3584 
Q 2034 3584 2315 3537 
Q 2597 3491 2834 3397 
z
" transform="scale(0.015625)"/>
      </defs>
      <use xlink:href="#DejaVuSans-47"/>
      <use xlink:href="#DejaVuSans-65" x="77.490234"/>
      <use xlink:href="#DejaVuSans-6e" x="139.013672"/>
      <use xlink:href="#DejaVuSans-65" x="202.392578"/>
      <use xlink:href="#DejaVuSans-72" x="263.916016"/>
      <use xlink:href="#DejaVuSans-61" x="305.029297"/>
      <use xlink:href="#DejaVuSans-74" x="366.308594"/>
      <use xlink:href="#DejaVuSans-69" x="405.517578"/>
      <use xlink:href="#DejaVuSans-6f" x="433.300781"/>
      <use xlink:href="#DejaVuSans-6e" x="494.482422"/>
      <use xlink:href="#DejaVuSans-73" x="557.861328"/>
     </g>
    </g>
   </g>
   <g id="matplotlib.axis_2">
    <g id="ytick_1">
     <g id="line2d_8">
      <defs>
       <path id="mccf9503dcc" d="M 0 0 
L -3.5 0 
" style="stroke: #000000; stroke-width: 0.8"/>
      </defs>
      <g>
       <use xlink:href="#mccf9503dcc" x="57.6" y="307.584" style="stroke: #000000; stroke-width: 0.8"/>
      </g>
     </g>
     <g id="text_9">
      <!-- 0 -->
      <g transform="translate(44.2375 311.383219) scale(0.1 -0.1)">
       <use xlink:href="#DejaVuSans-30"/>
      </g>
     </g>
    </g>
    <g id="ytick_2">
     <g id="line2d_9">
      <g>
       <use xlink:href="#mccf9503dcc" x="57.6" y="267.098377" style="stroke: #000000; stroke-width: 0.8"/>
      </g>
     </g>
     <g id="text_10">
      <!-- 50 -->
      <g transform="translate(37.875 270.897596) scale(0.1 -0.1)">
       <use xlink:href="#DejaVuSans-35"/>
       <use xlink:href="#DejaVuSans-30" x="63.623047"/>
      </g>
     </g>
    </g>
    <g id="ytick_3">
     <g id="line2d_10">
      <g>
       <use xlink:href="#mccf9503dcc" x="57.6" y="226.612754" style="stroke: #000000; stroke-width: 0.8"/>
      </g>
     </g>
     <g id="text_11">
      <!-- 100 -->
      <g transform="translate(31.5125 230.411973) scale(0.1 -0.1)">
       <use xlink:href="#DejaVuSans-31"/>
       <use xlink:href="#DejaVuSans-30" x="63.623047"/>
       <use xlink:href="#DejaVuSans-30" x="127.246094"/>
      </g>
     </g>
    </g>
    <g id="ytick_4">
     <g id="line2d_11">
      <g>
       <use xlink:href="#mccf9503dcc" x="57.6" y="186.127131" style="stroke: #000000; stroke-width: 0.8"/>
      </g>
     </g>
     <g id="text_12">
      <!-- 150 -->
      <g transform="translate(31.5125 189.92635) scale(0.1 -0.1)">
       <use xlink:href="#DejaVuSans-31"/>
       <use xlink:href="#DejaVuSans-35" x="63.623047"/>
       <use xlink:href="#DejaVuSans-30" x="127.246094"/>
      </g>
     </g>
    </g>
    <g id="ytick_5">
     <g id="line2d_12">
      <g>
       <use xlink:href="#mccf9503dcc" x="57.6" y="145.641508" style="stroke: #000000; stroke-width: 0.8"/>
      </g>
     </g>
     <g id="text_13">
      <!-- 200 -->
      <g transform="translate(31.5125 149.440727) scale(0.1 -0.1)">
       <use xlink:href="#DejaVuSans-32"/>
       <use xlink:href="#DejaVuSans-30" x="63.623047"/>
       <use xlink:href="#DejaVuSans-30" x="127.246094"/>
      </g>
     </g>
    </g>
    <g id="ytick_6">
     <g id="line2d_13">
      <g>
       <use xlink:href="#mccf9503dcc" x="57.6" y="105.155885" style="stroke: #000000; stroke-width: 0.8"/>
      </g>
     </g>
     <g id="text_14">
      <!-- 250 -->
      <g transform="translate(31.5125 108.955104) scale(0.1 -0.1)">
       <use xlink:href="#DejaVuSans-32"/>
       <use xlink:href="#DejaVuSans-35" x="63.623047"/>
       <use xlink:href="#DejaVuSans-30" x="127.246094"/>
      </g>
     </g>
    </g>
    <g id="ytick_7">
     <g id="line2d_14">
      <g>
       <use xlink:href="#mccf9503dcc" x="57.6" y="64.670262" style="stroke: #000000; stroke-width: 0.8"/>
      </g>
     </g>
     <g id="text_15">
      <!-- 300 -->
      <g transform="translate(31.5125 68.469481) scale(0.1 -0.1)">
       <use xlink:href="#DejaVuSans-33"/>
       <use xlink:href="#DejaVuSans-30" x="63.623047"/>
       <use xlink:href="#DejaVuSans-30" x="127.246094"/>
      </g>
     </g>
    </g>
    <g id="text_16">
     <!-- Size per Species -->
     <g transform="translate(25.432812 215.520969) rotate(-90) scale(0.1 -0.1)">
      <defs>
       <path id="DejaVuSans-53" d="M 3425 4513 
L 3425 3897 
Q 3066 4069 2747 4153 
Q 2428 4238 2131 4238 
Q 1616 4238 1336 4038 
Q 1056 3838 1056 3469 
Q 1056 3159 1242 3001 
Q 1428 2844 1947 2747 
L 2328 2669 
Q 3034 2534 3370 2195 
Q 3706 1856 3706 1288 
Q 3706 609 3251 259 
Q 2797 -91 1919 -91 
Q 1588 -91 1214 -16 
Q 841 59 441 206 
L 441 856 
Q 825 641 1194 531 
Q 1563 422 1919 422 
Q 2459 422 2753 634 
Q 3047 847 3047 1241 
Q 3047 1584 2836 1778 
Q 2625 1972 2144 2069 
L 1759 2144 
Q 1053 2284 737 2584 
Q 422 2884 422 3419 
Q 422 4038 858 4394 
Q 1294 4750 2059 4750 
Q 2388 4750 2728 4690 
Q 3069 4631 3425 4513 
z
" transform="scale(0.015625)"/>
       <path id="DejaVuSans-7a" d="M 353 3500 
L 3084 3500 
L 3084 2975 
L 922 459 
L 3084 459 
L 3084 0 
L 275 0 
L 275 525 
L 2438 3041 
L 353 3041 
L 353 3500 
z
" transform="scale(0.015625)"/>
       <path id="DejaVuSans-20" transform="scale(0.015625)"/>
       <path id="DejaVuSans-70" d="M 1159 525 
L 1159 -1331 
L 581 -1331 
L 581 3500 
L 1159 3500 
L 1159 2969 
Q 1341 3281 1617 3432 
Q 1894 3584 2278 3584 
Q 2916 3584 3314 3078 
Q 3713 2572 3713 1747 
Q 3713 922 3314 415 
Q 2916 -91 2278 -91 
Q 1894 -91 1617 61 
Q 1341 213 1159 525 
z
M 3116 1747 
Q 3116 2381 2855 2742 
Q 2594 3103 2138 3103 
Q 1681 3103 1420 2742 
Q 1159 2381 1159 1747 
Q 1159 1113 1420 752 
Q 1681 391 2138 391 
Q 2594 391 2855 752 
Q 3116 1113 3116 1747 
z
" transform="scale(0.015625)"/>
       <path id="DejaVuSans-63" d="M 3122 3366 
L 3122 2828 
Q 2878 2963 2633 3030 
Q 2388 3097 2138 3097 
Q 1578 3097 1268 2742 
Q 959 2388 959 1747 
Q 959 1106 1268 751 
Q 1578 397 2138 397 
Q 2388 397 2633 464 
Q 2878 531 3122 666 
L 3122 134 
Q 2881 22 2623 -34 
Q 2366 -91 2075 -91 
Q 1284 -91 818 406 
Q 353 903 353 1747 
Q 353 2603 823 3093 
Q 1294 3584 2113 3584 
Q 2378 3584 2631 3529 
Q 2884 3475 3122 3366 
z
" transform="scale(0.015625)"/>
      </defs>
      <use xlink:href="#DejaVuSans-53"/>
      <use xlink:href="#DejaVuSans-69" x="63.476562"/>
      <use xlink:href="#DejaVuSans-7a" x="91.259766"/>
      <use xlink:href="#DejaVuSans-65" x="143.75"/>
      <use xlink:href="#DejaVuSans-20" x="205.273438"/>
      <use xlink:href="#DejaVuSans-70" x="237.060547"/>
      <use xlink:href="#DejaVuSans-65" x="300.537109"/>
      <use xlink:href="#DejaVuSans-72" x="362.060547"/>
      <use xlink:href="#DejaVuSans-20" x="403.173828"/>
      <use xlink:href="#DejaVuSans-53" x="434.960938"/>
      <use xlink:href="#DejaVuSans-70" x="498.4375"/>
      <use xlink:href="#DejaVuSans-65" x="561.914062"/>
      <use xlink:href="#DejaVuSans-63" x="623.4375"/>
      <use xlink:href="#DejaVuSans-69" x="678.417969"/>
      <use xlink:href="#DejaVuSans-65" x="706.201172"/>
      <use xlink:href="#DejaVuSans-73" x="767.724609"/>
     </g>
    </g>
   </g>
   <g id="patch_3">
    <path d="M 57.6 307.584 
L 57.6 41.472 
" style="fill: none; stroke: #000000; stroke-width: 0.8; stroke-linejoin: miter; stroke-linecap: square"/>
   </g>
   <g id="patch_4">
    <path d="M 414.72 307.584 
L 414.72 41.472 
" style="fill: none; stroke: #000000; stroke-width: 0.8; stroke-linejoin: miter; stroke-linecap: square"/>
   </g>
   <g id="patch_5">
    <path d="M 57.6 307.584 
L 414.72 307.584 
" style="fill: none; stroke: #000000; stroke-width: 0.8; stroke-linejoin: miter; stroke-linecap: square"/>
   </g>
   <g id="patch_6">
    <path d="M 57.6 41.472 
L 414.72 41.472 
" style="fill: none; stroke: #000000; stroke-width: 0.8; stroke-linejoin: miter; stroke-linecap: square"/>
   </g>
   <g id="text_17">
    <!-- Speciation -->
    <g transform="translate(204.714375 35.472) scale(0.12 -0.12)">
     <use xlink:href="#DejaVuSans-53"/>
     <use xlink:href="#DejaVuSans-70" x="63.476562"/>
     <use xlink:href="#DejaVuSans-65" x="126.953125"/>
     <use xlink:href="#DejaVuSans-63" x="188.476562"/>
     <use xlink:href="#DejaVuSans-69" x="243.457031"/>
     <use xlink:href="#DejaVuSans-61" x="271.240234"/>
     <use xlink:href="#DejaVuSans-74" x="332.519531"/>
     <use xlink:href="#DejaVuSans-69" x="371.728516"/>
     <use xlink:href="#DejaVuSans-6f" x="399.511719"/>
     <use xlink:href="#DejaVuSans-6e" x="460.693359"/>
    </g>
   </g>
  </g>
 </g>
 <defs>
  <clipPath id="p96b74c2183">
   <rect x="57.6" y="41.472" width="357.12" height="266.112"/>
  </clipPath>
 </defs>
</svg>
