<?xml version="1.0" encoding="utf-8" standalone="no"?>
<!DOCTYPE svg PUBLIC "-//W3C//DTD SVG 1.1//EN"
  "http://www.w3.org/Graphics/SVG/1.1/DTD/svg11.dtd">
<svg xmlns:xlink="http://www.w3.org/1999/xlink" width="460.8pt" height="345.6pt" viewBox="0 0 460.8 345.6" xmlns="http://www.w3.org/2000/svg" version="1.1">
 <metadata>
  <rdf:RDF xmlns:dc="http://purl.org/dc/elements/1.1/" xmlns:cc="http://creativecommons.org/ns#" xmlns:rdf="http://www.w3.org/1999/02/22-rdf-syntax-ns#">
   <cc:Work>
    <dc:type rdf:resource="http://purl.org/dc/dcmitype/StillImage"/>
    <dc:date>2024-08-16T07:48:06.889505</dc:date>
    <dc:format>image/svg+xml</dc:format>
    <dc:creator>
     <cc:Agent>
      <dc:title>Matplotlib v3.8.4, https://matplotlib.org/</dc:title>
     </cc:Agent>
    </dc:creator>
   </cc:Work>
  </rdf:RDF>
 </metadata>
 <defs>
  <style type="text/css">*{stroke-linejoin: round; stroke-linecap: butt}</style>
 </defs>
 <g id="figure_1">
  <g id="patch_1">
   <path d="M 0 345.6 
L 460.8 345.6 
L 460.8 0 
L 0 0 
z
" style="fill: #ffffff"/>
  </g>
  <g id="axes_1">
   <g id="patch_2">
    <path d="M 57.6 307.584 
L 414.72 307.584 
L 414.72 41.472 
L 57.6 41.472 
z
" style="fill: #ffffff"/>
   </g>
   <g id="PolyCollection_1">
    <path d="M 73.832727 220.190897 
L 73.832727 307.584 
L 83.670744 307.584 
L 93.50876 307.584 
L 103.346777 307.584 
L 113.184793 307.584 
L 123.02281 307.584 
L 132.860826 307.584 
L 142.698843 307.584 
L 152.53686 307.584 
L 162.374876 307.584 
L 172.212893 307.584 
L 182.050909 307.584 
L 191.888926 307.584 
L 201.726942 307.584 
L 211.564959 307.584 
L 221.402975 307.584 
L 231.240992 307.584 
L 241.079008 307.584 
L 250.917025 307.584 
L 260.755041 307.584 
L 270.593058 307.584 
L 280.431074 307.584 
L 290.269091 307.584 
L 300.107107 307.584 
L 309.945124 307.584 
L 319.78314 307.584 
L 329.621157 307.584 
L 339.459174 307.584 
L 349.29719 307.584 
L 359.135207 307.584 
L 368.973223 307.584 
L 378.81124 307.584 
L 388.649256 307.584 
L 398.487273 307.584 
L 398.487273 307.584 
L 398.487273 307.584 
L 388.649256 307.584 
L 378.81124 307.584 
L 368.973223 307.584 
L 359.135207 307.584 
L 349.29719 307.584 
L 339.459174 307.584 
L 329.621157 307.584 
L 319.78314 307.584 
L 309.945124 307.584 
L 300.107107 307.584 
L 290.269091 307.584 
L 280.431074 299.639172 
L 270.593058 291.694345 
L 260.755041 300.433655 
L 250.917025 291.694345 
L 241.079008 289.310897 
L 231.240992 299.639172 
L 221.402975 297.255724 
L 211.564959 298.050207 
L 201.726942 300.433655 
L 191.888926 297.255724 
L 182.050909 290.105379 
L 172.212893 291.694345 
L 162.374876 298.050207 
L 152.53686 301.228138 
L 142.698843 282.160552 
L 132.860826 300.433655 
L 123.02281 283.749517 
L 113.184793 294.077793 
L 103.346777 281.366069 
L 93.50876 294.077793 
L 83.670744 236.875034 
L 73.832727 220.190897 
z
" clip-path="url(#p5f555bcf22)" style="fill: #1f77b4"/>
   </g>
   <g id="PolyCollection_2">
    <path d="M 73.832727 203.506759 
L 73.832727 220.190897 
L 83.670744 236.875034 
L 93.50876 294.077793 
L 103.346777 281.366069 
L 113.184793 294.077793 
L 123.02281 283.749517 
L 132.860826 300.433655 
L 142.698843 282.160552 
L 152.53686 301.228138 
L 162.374876 298.050207 
L 172.212893 291.694345 
L 182.050909 290.105379 
L 191.888926 297.255724 
L 201.726942 300.433655 
L 211.564959 298.050207 
L 221.402975 297.255724 
L 231.240992 299.639172 
L 241.079008 289.310897 
L 250.917025 291.694345 
L 260.755041 300.433655 
L 270.593058 291.694345 
L 280.431074 299.639172 
L 290.269091 307.584 
L 300.107107 307.584 
L 309.945124 307.584 
L 319.78314 307.584 
L 329.621157 307.584 
L 339.459174 307.584 
L 349.29719 307.584 
L 359.135207 307.584 
L 368.973223 307.584 
L 378.81124 307.584 
L 388.649256 307.584 
L 398.487273 307.584 
L 398.487273 307.584 
L 398.487273 307.584 
L 388.649256 307.584 
L 378.81124 307.584 
L 368.973223 307.584 
L 359.135207 307.584 
L 349.29719 307.584 
L 339.459174 307.584 
L 329.621157 307.584 
L 319.78314 307.584 
L 309.945124 307.584 
L 300.107107 307.584 
L 290.269091 307.584 
L 280.431074 299.639172 
L 270.593058 280.571586 
L 260.755041 293.28331 
L 250.917025 285.338483 
L 241.079008 279.777103 
L 231.240992 290.105379 
L 221.402975 286.132966 
L 211.564959 290.899862 
L 201.726942 286.927448 
L 191.888926 286.132966 
L 182.050909 279.777103 
L 172.212893 284.544 
L 162.374876 286.927448 
L 152.53686 295.666759 
L 142.698843 272.626759 
L 132.860826 290.105379 
L 123.02281 274.215724 
L 113.184793 278.982621 
L 103.346777 264.681931 
L 93.50876 277.393655 
L 83.670744 225.752276 
L 73.832727 203.506759 
z
" clip-path="url(#p5f555bcf22)" style="fill: #ff7f0e"/>
   </g>
   <g id="PolyCollection_3">
    <path d="M 73.832727 168.549517 
L 73.832727 203.506759 
L 83.670744 225.752276 
L 93.50876 277.393655 
L 103.346777 264.681931 
L 113.184793 278.982621 
L 123.02281 274.215724 
L 132.860826 290.105379 
L 142.698843 272.626759 
L 152.53686 295.666759 
L 162.374876 286.927448 
L 172.212893 284.544 
L 182.050909 279.777103 
L 191.888926 286.132966 
L 201.726942 286.927448 
L 211.564959 290.899862 
L 221.402975 286.132966 
L 231.240992 290.105379 
L 241.079008 279.777103 
L 250.917025 285.338483 
L 260.755041 293.28331 
L 270.593058 280.571586 
L 280.431074 299.639172 
L 290.269091 307.584 
L 300.107107 307.584 
L 309.945124 307.584 
L 319.78314 307.584 
L 329.621157 307.584 
L 339.459174 307.584 
L 349.29719 307.584 
L 359.135207 307.584 
L 368.973223 307.584 
L 378.81124 307.584 
L 388.649256 307.584 
L 398.487273 307.584 
L 398.487273 300.433655 
L 398.487273 300.433655 
L 388.649256 265.476414 
L 378.81124 302.022621 
L 368.973223 236.875034 
L 359.135207 298.84469 
L 349.29719 259.915034 
L 339.459174 297.255724 
L 329.621157 298.84469 
L 319.78314 301.228138 
L 309.945124 300.433655 
L 300.107107 302.022621 
L 290.269091 304.406069 
L 280.431074 272.626759 
L 270.593058 266.270897 
L 260.755041 289.310897 
L 250.917025 275.010207 
L 241.079008 255.942621 
L 231.240992 280.571586 
L 221.402975 282.955034 
L 211.564959 283.749517 
L 201.726942 279.777103 
L 191.888926 283.749517 
L 182.050909 269.448828 
L 172.212893 278.188138 
L 162.374876 263.092966 
L 152.53686 287.721931 
L 142.698843 263.092966 
L 132.860826 269.448828 
L 123.02281 259.915034 
L 113.184793 271.037793 
L 103.346777 251.175724 
L 93.50876 265.476414 
L 83.670744 209.862621 
L 73.832727 168.549517 
z
" clip-path="url(#p5f555bcf22)" style="fill: #2ca02c"/>
   </g>
   <g id="PolyCollection_4">
    <path d="M 73.832727 157.426759 
L 73.832727 168.549517 
L 83.670744 209.862621 
L 93.50876 265.476414 
L 103.346777 251.175724 
L 113.184793 271.037793 
L 123.02281 259.915034 
L 132.860826 269.448828 
L 142.698843 263.092966 
L 152.53686 287.721931 
L 162.374876 263.092966 
L 172.212893 278.188138 
L 182.050909 269.448828 
L 191.888926 283.749517 
L 201.726942 279.777103 
L 211.564959 283.749517 
L 221.402975 282.955034 
L 231.240992 280.571586 
L 241.079008 255.942621 
L 250.917025 275.010207 
L 260.755041 289.310897 
L 270.593058 266.270897 
L 280.431074 272.626759 
L 290.269091 304.406069 
L 300.107107 302.022621 
L 309.945124 300.433655 
L 319.78314 301.228138 
L 329.621157 298.84469 
L 339.459174 297.255724 
L 349.29719 259.915034 
L 359.135207 298.84469 
L 368.973223 236.875034 
L 378.81124 302.022621 
L 388.649256 265.476414 
L 398.487273 300.433655 
L 398.487273 300.433655 
L 398.487273 300.433655 
L 388.649256 265.476414 
L 378.81124 302.022621 
L 368.973223 236.875034 
L 359.135207 298.84469 
L 349.29719 259.915034 
L 339.459174 297.255724 
L 329.621157 298.84469 
L 319.78314 301.228138 
L 309.945124 294.872276 
L 300.107107 293.28331 
L 290.269091 296.461241 
L 280.431074 267.859862 
L 270.593058 263.092966 
L 260.755041 273.421241 
L 250.917025 267.065379 
L 241.079008 244.819862 
L 231.240992 273.421241 
L 221.402975 276.599172 
L 211.564959 281.366069 
L 201.726942 269.448828 
L 191.888926 278.982621 
L 182.050909 256.737103 
L 172.212893 266.270897 
L 162.374876 256.737103 
L 152.53686 279.777103 
L 142.698843 253.559172 
L 132.860826 260.709517 
L 123.02281 251.175724 
L 113.184793 253.559172 
L 103.346777 245.614345 
L 93.50876 254.353655 
L 83.670744 201.917793 
L 73.832727 157.426759 
z
" clip-path="url(#p5f555bcf22)" style="fill: #d62728"/>
   </g>
   <g id="PolyCollection_5">
    <path d="M 73.832727 123.264 
L 73.832727 157.426759 
L 83.670744 201.917793 
L 93.50876 254.353655 
L 103.346777 245.614345 
L 113.184793 253.559172 
L 123.02281 251.175724 
L 132.860826 260.709517 
L 142.698843 253.559172 
L 152.53686 279.777103 
L 162.374876 256.737103 
L 172.212893 266.270897 
L 182.050909 256.737103 
L 191.888926 278.982621 
L 201.726942 269.448828 
L 211.564959 281.366069 
L 221.402975 276.599172 
L 231.240992 273.421241 
L 241.079008 244.819862 
L 250.917025 267.065379 
L 260.755041 273.421241 
L 270.593058 263.092966 
L 280.431074 267.859862 
L 290.269091 296.461241 
L 300.107107 293.28331 
L 309.945124 294.872276 
L 319.78314 301.228138 
L 329.621157 298.84469 
L 339.459174 297.255724 
L 349.29719 259.915034 
L 359.135207 298.84469 
L 368.973223 236.875034 
L 378.81124 302.022621 
L 388.649256 265.476414 
L 398.487273 300.433655 
L 398.487273 300.433655 
L 398.487273 300.433655 
L 388.649256 265.476414 
L 378.81124 302.022621 
L 368.973223 236.875034 
L 359.135207 298.84469 
L 349.29719 259.915034 
L 339.459174 297.255724 
L 329.621157 298.84469 
L 319.78314 301.228138 
L 309.945124 294.872276 
L 300.107107 293.28331 
L 290.269091 262.298483 
L 280.431074 258.326069 
L 270.593058 253.559172 
L 260.755041 267.859862 
L 250.917025 259.915034 
L 241.079008 241.641931 
L 231.240992 224.16331 
L 221.402975 266.270897 
L 211.564959 277.393655 
L 201.726942 263.092966 
L 191.888926 274.215724 
L 182.050909 223.368828 
L 172.212893 255.942621 
L 162.374876 245.614345 
L 152.53686 270.24331 
L 142.698843 241.641931 
L 132.860826 221.779862 
L 123.02281 226.546759 
L 113.184793 240.847448 
L 103.346777 236.080552 
L 93.50876 189.206069 
L 83.670744 177.288828 
L 73.832727 123.264 
z
" clip-path="url(#p5f555bcf22)" style="fill: #9467bd"/>
   </g>
   <g id="PolyCollection_6">
    <path d="M 73.832727 112.935724 
L 73.832727 123.264 
L 83.670744 177.288828 
L 93.50876 189.206069 
L 103.346777 236.080552 
L 113.184793 240.847448 
L 123.02281 226.546759 
L 132.860826 221.779862 
L 142.698843 241.641931 
L 152.53686 270.24331 
L 162.374876 245.614345 
L 172.212893 255.942621 
L 182.050909 223.368828 
L 191.888926 274.215724 
L 201.726942 263.092966 
L 211.564959 277.393655 
L 221.402975 266.270897 
L 231.240992 224.16331 
L 241.079008 241.641931 
L 250.917025 259.915034 
L 260.755041 267.859862 
L 270.593058 253.559172 
L 280.431074 258.326069 
L 290.269091 262.298483 
L 300.107107 293.28331 
L 309.945124 294.872276 
L 319.78314 301.228138 
L 329.621157 298.84469 
L 339.459174 297.255724 
L 349.29719 259.915034 
L 359.135207 298.84469 
L 368.973223 236.875034 
L 378.81124 302.022621 
L 388.649256 265.476414 
L 398.487273 300.433655 
L 398.487273 300.433655 
L 398.487273 300.433655 
L 388.649256 265.476414 
L 378.81124 302.022621 
L 368.973223 236.875034 
L 359.135207 298.84469 
L 349.29719 259.915034 
L 339.459174 297.255724 
L 329.621157 298.84469 
L 319.78314 301.228138 
L 309.945124 294.872276 
L 300.107107 293.28331 
L 290.269091 262.298483 
L 280.431074 258.326069 
L 270.593058 244.025379 
L 260.755041 262.298483 
L 250.917025 248.792276 
L 241.079008 232.902621 
L 231.240992 218.601931 
L 221.402975 260.709517 
L 211.564959 268.654345 
L 201.726942 257.531586 
L 191.888926 264.681931 
L 182.050909 217.012966 
L 172.212893 249.586759 
L 162.374876 236.080552 
L 152.53686 262.298483 
L 142.698843 229.72469 
L 132.860826 211.451586 
L 123.02281 217.807448 
L 113.184793 226.546759 
L 103.346777 220.985379 
L 93.50876 174.110897 
L 83.670744 167.755034 
L 73.832727 112.935724 
z
" clip-path="url(#p5f555bcf22)" style="fill: #8c564b"/>
   </g>
   <g id="PolyCollection_7">
    <path d="M 73.832727 111.346759 
L 73.832727 112.935724 
L 83.670744 167.755034 
L 93.50876 174.110897 
L 103.346777 220.985379 
L 113.184793 226.546759 
L 123.02281 217.807448 
L 132.860826 211.451586 
L 142.698843 229.72469 
L 152.53686 262.298483 
L 162.374876 236.080552 
L 172.212893 249.586759 
L 182.050909 217.012966 
L 191.888926 264.681931 
L 201.726942 257.531586 
L 211.564959 268.654345 
L 221.402975 260.709517 
L 231.240992 218.601931 
L 241.079008 232.902621 
L 250.917025 248.792276 
L 260.755041 262.298483 
L 270.593058 244.025379 
L 280.431074 258.326069 
L 290.269091 262.298483 
L 300.107107 293.28331 
L 309.945124 294.872276 
L 319.78314 301.228138 
L 329.621157 298.84469 
L 339.459174 297.255724 
L 349.29719 259.915034 
L 359.135207 298.84469 
L 368.973223 236.875034 
L 378.81124 302.022621 
L 388.649256 265.476414 
L 398.487273 300.433655 
L 398.487273 300.433655 
L 398.487273 300.433655 
L 388.649256 265.476414 
L 378.81124 302.022621 
L 368.973223 236.875034 
L 359.135207 298.84469 
L 349.29719 259.915034 
L 339.459174 297.255724 
L 329.621157 298.84469 
L 319.78314 301.228138 
L 309.945124 294.872276 
L 300.107107 293.28331 
L 290.269091 262.298483 
L 280.431074 250.381241 
L 270.593058 237.669517 
L 260.755041 256.737103 
L 250.917025 243.230897 
L 241.079008 227.341241 
L 231.240992 212.246069 
L 221.402975 256.737103 
L 211.564959 261.504 
L 201.726942 251.175724 
L 191.888926 255.942621 
L 182.050909 215.424 
L 172.212893 242.436414 
L 162.374876 229.72469 
L 152.53686 252.76469 
L 142.698843 220.985379 
L 132.860826 205.095724 
L 123.02281 213.040552 
L 113.184793 218.601931 
L 103.346777 214.629517 
L 93.50876 169.344 
L 83.670744 161.399172 
L 73.832727 111.346759 
z
" clip-path="url(#p5f555bcf22)" style="fill: #e377c2"/>
   </g>
   <g id="PolyCollection_8">
    <path d="M 73.832727 104.196414 
L 73.832727 111.346759 
L 83.670744 161.399172 
L 93.50876 169.344 
L 103.346777 214.629517 
L 113.184793 218.601931 
L 123.02281 213.040552 
L 132.860826 205.095724 
L 142.698843 220.985379 
L 152.53686 252.76469 
L 162.374876 229.72469 
L 172.212893 242.436414 
L 182.050909 215.424 
L 191.888926 255.942621 
L 201.726942 251.175724 
L 211.564959 261.504 
L 221.402975 256.737103 
L 231.240992 212.246069 
L 241.079008 227.341241 
L 250.917025 243.230897 
L 260.755041 256.737103 
L 270.593058 237.669517 
L 280.431074 250.381241 
L 290.269091 262.298483 
L 300.107107 293.28331 
L 309.945124 294.872276 
L 319.78314 301.228138 
L 329.621157 298.84469 
L 339.459174 297.255724 
L 349.29719 259.915034 
L 359.135207 298.84469 
L 368.973223 236.875034 
L 378.81124 302.022621 
L 388.649256 265.476414 
L 398.487273 300.433655 
L 398.487273 300.433655 
L 398.487273 300.433655 
L 388.649256 265.476414 
L 378.81124 302.022621 
L 368.973223 236.875034 
L 359.135207 298.84469 
L 349.29719 259.915034 
L 339.459174 297.255724 
L 329.621157 298.84469 
L 319.78314 301.228138 
L 309.945124 294.872276 
L 300.107107 293.28331 
L 290.269091 262.298483 
L 280.431074 250.381241 
L 270.593058 228.930207 
L 260.755041 249.586759 
L 250.917025 234.491586 
L 241.079008 220.190897 
L 231.240992 205.095724 
L 221.402975 246.408828 
L 211.564959 252.76469 
L 201.726942 244.025379 
L 191.888926 246.408828 
L 182.050909 207.479172 
L 172.212893 237.669517 
L 162.374876 222.574345 
L 152.53686 247.997793 
L 142.698843 213.835034 
L 132.860826 199.534345 
L 123.02281 207.479172 
L 113.184793 211.451586 
L 103.346777 204.301241 
L 93.50876 162.193655 
L 83.670744 153.454345 
L 73.832727 104.196414 
z
" clip-path="url(#p5f555bcf22)" style="fill: #7f7f7f"/>
   </g>
   <g id="PolyCollection_9">
    <path d="M 73.832727 89.895724 
L 73.832727 104.196414 
L 83.670744 153.454345 
L 93.50876 162.193655 
L 103.346777 204.301241 
L 113.184793 211.451586 
L 123.02281 207.479172 
L 132.860826 199.534345 
L 142.698843 213.835034 
L 152.53686 247.997793 
L 162.374876 222.574345 
L 172.212893 237.669517 
L 182.050909 207.479172 
L 191.888926 246.408828 
L 201.726942 244.025379 
L 211.564959 252.76469 
L 221.402975 246.408828 
L 231.240992 205.095724 
L 241.079008 220.190897 
L 250.917025 234.491586 
L 260.755041 249.586759 
L 270.593058 228.930207 
L 280.431074 250.381241 
L 290.269091 262.298483 
L 300.107107 293.28331 
L 309.945124 294.872276 
L 319.78314 301.228138 
L 329.621157 298.84469 
L 339.459174 297.255724 
L 349.29719 259.915034 
L 359.135207 298.84469 
L 368.973223 236.875034 
L 378.81124 302.022621 
L 388.649256 265.476414 
L 398.487273 300.433655 
L 398.487273 290.899862 
L 398.487273 290.899862 
L 388.649256 259.915034 
L 378.81124 293.28331 
L 368.973223 231.313655 
L 359.135207 290.105379 
L 349.29719 252.76469 
L 339.459174 289.310897 
L 329.621157 291.694345 
L 319.78314 293.28331 
L 309.945124 288.516414 
L 300.107107 282.160552 
L 290.269091 252.76469 
L 280.431074 240.052966 
L 270.593058 219.396414 
L 260.755041 248.792276 
L 250.917025 214.629517 
L 241.079008 212.246069 
L 231.240992 197.945379 
L 221.402975 240.052966 
L 211.564959 250.381241 
L 201.726942 219.396414 
L 191.888926 237.669517 
L 182.050909 203.506759 
L 172.212893 197.150897 
L 162.374876 217.807448 
L 152.53686 234.491586 
L 142.698843 204.301241 
L 132.860826 187.617103 
L 123.02281 174.905379 
L 113.184793 197.945379 
L 103.346777 190.000552 
L 93.50876 150.276414 
L 83.670744 120.086069 
L 73.832727 89.895724 
z
" clip-path="url(#p5f555bcf22)" style="fill: #bcbd22"/>
   </g>
   <g id="PolyCollection_10">
    <path d="M 73.832727 78.772966 
L 73.832727 89.895724 
L 83.670744 120.086069 
L 93.50876 150.276414 
L 103.346777 190.000552 
L 113.184793 197.945379 
L 123.02281 174.905379 
L 132.860826 187.617103 
L 142.698843 204.301241 
L 152.53686 234.491586 
L 162.374876 217.807448 
L 172.212893 197.150897 
L 182.050909 203.506759 
L 191.888926 237.669517 
L 201.726942 219.396414 
L 211.564959 250.381241 
L 221.402975 240.052966 
L 231.240992 197.945379 
L 241.079008 212.246069 
L 250.917025 214.629517 
L 260.755041 248.792276 
L 270.593058 219.396414 
L 280.431074 240.052966 
L 290.269091 252.76469 
L 300.107107 282.160552 
L 309.945124 288.516414 
L 319.78314 293.28331 
L 329.621157 291.694345 
L 339.459174 289.310897 
L 349.29719 252.76469 
L 359.135207 290.105379 
L 368.973223 231.313655 
L 378.81124 293.28331 
L 388.649256 259.915034 
L 398.487273 290.899862 
L 398.487273 290.899862 
L 398.487273 290.899862 
L 388.649256 249.586759 
L 378.81124 284.544 
L 368.973223 226.546759 
L 359.135207 288.516414 
L 349.29719 244.819862 
L 339.459174 277.393655 
L 329.621157 257.531586 
L 319.78314 274.215724 
L 309.945124 264.681931 
L 300.107107 276.599172 
L 290.269091 236.080552 
L 280.431074 235.286069 
L 270.593058 212.246069 
L 260.755041 220.190897 
L 250.917025 195.561931 
L 241.079008 204.301241 
L 231.240992 190.795034 
L 221.402975 229.72469 
L 211.564959 247.997793 
L 201.726942 214.629517 
L 191.888926 205.890207 
L 182.050909 190.000552 
L 172.212893 189.206069 
L 162.374876 213.835034 
L 152.53686 230.519172 
L 142.698843 192.384 
L 132.860826 178.877793 
L 123.02281 172.521931 
L 113.184793 189.206069 
L 103.346777 169.344 
L 93.50876 136.770207 
L 83.670744 109.757793 
L 73.832727 78.772966 
z
" clip-path="url(#p5f555bcf22)" style="fill: #17becf"/>
   </g>
   <g id="PolyCollection_11">
    <path d="M 73.832727 73.211586 
L 73.832727 78.772966 
L 83.670744 109.757793 
L 93.50876 136.770207 
L 103.346777 169.344 
L 113.184793 189.206069 
L 123.02281 172.521931 
L 132.860826 178.877793 
L 142.698843 192.384 
L 152.53686 230.519172 
L 162.374876 213.835034 
L 172.212893 189.206069 
L 182.050909 190.000552 
L 191.888926 205.890207 
L 201.726942 214.629517 
L 211.564959 247.997793 
L 221.402975 229.72469 
L 231.240992 190.795034 
L 241.079008 204.301241 
L 250.917025 195.561931 
L 260.755041 220.190897 
L 270.593058 212.246069 
L 280.431074 235.286069 
L 290.269091 236.080552 
L 300.107107 276.599172 
L 309.945124 264.681931 
L 319.78314 274.215724 
L 329.621157 257.531586 
L 339.459174 277.393655 
L 349.29719 244.819862 
L 359.135207 288.516414 
L 368.973223 226.546759 
L 378.81124 284.544 
L 388.649256 249.586759 
L 398.487273 290.899862 
L 398.487273 290.899862 
L 398.487273 290.899862 
L 388.649256 249.586759 
L 378.81124 284.544 
L 368.973223 226.546759 
L 359.135207 288.516414 
L 349.29719 244.819862 
L 339.459174 277.393655 
L 329.621157 257.531586 
L 319.78314 274.215724 
L 309.945124 264.681931 
L 300.107107 276.599172 
L 290.269091 236.080552 
L 280.431074 235.286069 
L 270.593058 204.301241 
L 260.755041 217.012966 
L 250.917025 188.411586 
L 241.079008 190.795034 
L 231.240992 184.439172 
L 221.402975 220.985379 
L 211.564959 233.697103 
L 201.726942 206.68469 
L 191.888926 197.945379 
L 182.050909 180.466759 
L 172.212893 178.08331 
L 162.374876 204.301241 
L 152.53686 228.135724 
L 142.698843 178.877793 
L 132.860826 161.399172 
L 123.02281 166.166069 
L 113.184793 183.64469 
L 103.346777 156.632276 
L 93.50876 131.208828 
L 83.670744 99.429517 
L 73.832727 73.211586 
z
" clip-path="url(#p5f555bcf22)" style="fill: #1f77b4"/>
   </g>
   <g id="PolyCollection_12">
    <path d="M 73.832727 71.622621 
L 73.832727 73.211586 
L 83.670744 99.429517 
L 93.50876 131.208828 
L 103.346777 156.632276 
L 113.184793 183.64469 
L 123.02281 166.166069 
L 132.860826 161.399172 
L 142.698843 178.877793 
L 152.53686 228.135724 
L 162.374876 204.301241 
L 172.212893 178.08331 
L 182.050909 180.466759 
L 191.888926 197.945379 
L 201.726942 206.68469 
L 211.564959 233.697103 
L 221.402975 220.985379 
L 231.240992 184.439172 
L 241.079008 190.795034 
L 250.917025 188.411586 
L 260.755041 217.012966 
L 270.593058 204.301241 
L 280.431074 235.286069 
L 290.269091 236.080552 
L 300.107107 276.599172 
L 309.945124 264.681931 
L 319.78314 274.215724 
L 329.621157 257.531586 
L 339.459174 277.393655 
L 349.29719 244.819862 
L 359.135207 288.516414 
L 368.973223 226.546759 
L 378.81124 284.544 
L 388.649256 249.586759 
L 398.487273 290.899862 
L 398.487273 284.544 
L 398.487273 284.544 
L 388.649256 242.436414 
L 378.81124 276.599172 
L 368.973223 220.985379 
L 359.135207 278.982621 
L 349.29719 239.258483 
L 339.459174 274.215724 
L 329.621157 251.175724 
L 319.78314 267.065379 
L 309.945124 256.737103 
L 300.107107 273.421241 
L 290.269091 229.72469 
L 280.431074 225.752276 
L 270.593058 197.945379 
L 260.755041 212.246069 
L 250.917025 182.055724 
L 241.079008 186.822621 
L 231.240992 178.08331 
L 221.402975 217.012966 
L 211.564959 228.930207 
L 201.726942 202.712276 
L 191.888926 193.178483 
L 182.050909 177.288828 
L 172.212893 171.727448 
L 162.374876 197.150897 
L 152.53686 221.779862 
L 142.698843 175.699862 
L 132.860826 154.248828 
L 123.02281 158.221241 
L 113.184793 175.699862 
L 103.346777 153.454345 
L 93.50876 124.852966 
L 83.670744 97.046069 
L 73.832727 71.622621 
z
" clip-path="url(#p5f555bcf22)" style="fill: #ff7f0e"/>
   </g>
   <g id="PolyCollection_13">
    <path d="M 73.832727 70.828138 
L 73.832727 71.622621 
L 83.670744 97.046069 
L 93.50876 124.852966 
L 103.346777 153.454345 
L 113.184793 175.699862 
L 123.02281 158.221241 
L 132.860826 154.248828 
L 142.698843 175.699862 
L 152.53686 221.779862 
L 162.374876 197.150897 
L 172.212893 171.727448 
L 182.050909 177.288828 
L 191.888926 193.178483 
L 201.726942 202.712276 
L 211.564959 228.930207 
L 221.402975 217.012966 
L 231.240992 178.08331 
L 241.079008 186.822621 
L 250.917025 182.055724 
L 260.755041 212.246069 
L 270.593058 197.945379 
L 280.431074 225.752276 
L 290.269091 229.72469 
L 300.107107 273.421241 
L 309.945124 256.737103 
L 319.78314 267.065379 
L 329.621157 251.175724 
L 339.459174 274.215724 
L 349.29719 239.258483 
L 359.135207 278.982621 
L 368.973223 220.985379 
L 378.81124 276.599172 
L 388.649256 242.436414 
L 398.487273 284.544 
L 398.487273 284.544 
L 398.487273 284.544 
L 388.649256 242.436414 
L 378.81124 276.599172 
L 368.973223 206.68469 
L 359.135207 269.448828 
L 349.29719 226.546759 
L 339.459174 261.504 
L 329.621157 236.875034 
L 319.78314 255.942621 
L 309.945124 246.408828 
L 300.107107 266.270897 
L 290.269091 220.985379 
L 280.431074 214.629517 
L 270.593058 187.617103 
L 260.755041 205.095724 
L 250.917025 172.521931 
L 241.079008 181.261241 
L 231.240992 171.727448 
L 221.402975 213.835034 
L 211.564959 223.368828 
L 201.726942 193.972966 
L 191.888926 184.439172 
L 182.050909 166.166069 
L 172.212893 162.988138 
L 162.374876 188.411586 
L 152.53686 212.246069 
L 142.698843 166.960552 
L 132.860826 145.509517 
L 123.02281 151.865379 
L 113.184793 162.193655 
L 103.346777 140.742621 
L 93.50876 112.935724 
L 83.670744 90.690207 
L 73.832727 70.828138 
z
" clip-path="url(#p5f555bcf22)" style="fill: #2ca02c"/>
   </g>
   <g id="PolyCollection_14">
    <path d="M 73.832727 69.239172 
L 73.832727 70.828138 
L 83.670744 90.690207 
L 93.50876 112.935724 
L 103.346777 140.742621 
L 113.184793 162.193655 
L 123.02281 151.865379 
L 132.860826 145.509517 
L 142.698843 166.960552 
L 152.53686 212.246069 
L 162.374876 188.411586 
L 172.212893 162.988138 
L 182.050909 166.166069 
L 191.888926 184.439172 
L 201.726942 193.972966 
L 211.564959 223.368828 
L 221.402975 213.835034 
L 231.240992 171.727448 
L 241.079008 181.261241 
L 250.917025 172.521931 
L 260.755041 205.095724 
L 270.593058 187.617103 
L 280.431074 214.629517 
L 290.269091 220.985379 
L 300.107107 266.270897 
L 309.945124 246.408828 
L 319.78314 255.942621 
L 329.621157 236.875034 
L 339.459174 261.504 
L 349.29719 226.546759 
L 359.135207 269.448828 
L 368.973223 206.68469 
L 378.81124 276.599172 
L 388.649256 242.436414 
L 398.487273 284.544 
L 398.487273 284.544 
L 398.487273 284.544 
L 388.649256 242.436414 
L 378.81124 276.599172 
L 368.973223 206.68469 
L 359.135207 266.270897 
L 349.29719 220.190897 
L 339.459174 243.230897 
L 329.621157 225.752276 
L 319.78314 244.025379 
L 309.945124 233.697103 
L 300.107107 256.737103 
L 290.269091 212.246069 
L 280.431074 203.506759 
L 270.593058 176.494345 
L 260.755041 197.150897 
L 250.917025 164.577103 
L 241.079008 167.755034 
L 231.240992 170.138483 
L 221.402975 182.055724 
L 211.564959 220.985379 
L 201.726942 162.988138 
L 191.888926 175.699862 
L 182.050909 160.60469 
L 172.212893 160.60469 
L 162.374876 151.070897 
L 152.53686 201.12331 
L 142.698843 155.837793 
L 132.860826 141.537103 
L 123.02281 127.236414 
L 113.184793 147.098483 
L 103.346777 122.469517 
L 93.50876 93.868138 
L 83.670744 75.595034 
L 73.832727 69.239172 
z
" clip-path="url(#p5f555bcf22)" style="fill: #d62728"/>
   </g>
   <g id="PolyCollection_15">
    <path d="M 73.832727 69.239172 
L 73.832727 69.239172 
L 83.670744 75.595034 
L 93.50876 93.868138 
L 103.346777 122.469517 
L 113.184793 147.098483 
L 123.02281 127.236414 
L 132.860826 141.537103 
L 142.698843 155.837793 
L 152.53686 201.12331 
L 162.374876 151.070897 
L 172.212893 160.60469 
L 182.050909 160.60469 
L 191.888926 175.699862 
L 201.726942 162.988138 
L 211.564959 220.985379 
L 221.402975 182.055724 
L 231.240992 170.138483 
L 241.079008 167.755034 
L 250.917025 164.577103 
L 260.755041 197.150897 
L 270.593058 176.494345 
L 280.431074 203.506759 
L 290.269091 212.246069 
L 300.107107 256.737103 
L 309.945124 233.697103 
L 319.78314 244.025379 
L 329.621157 225.752276 
L 339.459174 243.230897 
L 349.29719 220.190897 
L 359.135207 266.270897 
L 368.973223 206.68469 
L 378.81124 276.599172 
L 388.649256 242.436414 
L 398.487273 284.544 
L 398.487273 273.421241 
L 398.487273 273.421241 
L 388.649256 203.506759 
L 378.81124 271.832276 
L 368.973223 186.028138 
L 359.135207 259.915034 
L 349.29719 192.384 
L 339.459174 237.669517 
L 329.621157 219.396414 
L 319.78314 236.875034 
L 309.945124 228.135724 
L 300.107107 232.108138 
L 290.269091 207.479172 
L 280.431074 193.178483 
L 270.593058 167.755034 
L 260.755041 155.04331 
L 250.917025 155.04331 
L 241.079008 159.810207 
L 231.240992 169.344 
L 221.402975 158.221241 
L 211.564959 192.384 
L 201.726942 156.632276 
L 191.888926 167.755034 
L 182.050909 151.865379 
L 172.212893 152.659862 
L 162.374876 147.892966 
L 152.53686 138.359172 
L 142.698843 151.070897 
L 132.860826 132.797793 
L 123.02281 117.702621 
L 113.184793 137.56469 
L 103.346777 112.935724 
L 93.50876 85.92331 
L 83.670744 74.800552 
L 73.832727 69.239172 
z
" clip-path="url(#p5f555bcf22)" style="fill: #9467bd"/>
   </g>
   <g id="PolyCollection_16">
    <path d="M 73.832727 69.239172 
L 73.832727 69.239172 
L 83.670744 74.800552 
L 93.50876 85.92331 
L 103.346777 112.935724 
L 113.184793 137.56469 
L 123.02281 117.702621 
L 132.860826 132.797793 
L 142.698843 151.070897 
L 152.53686 138.359172 
L 162.374876 147.892966 
L 172.212893 152.659862 
L 182.050909 151.865379 
L 191.888926 167.755034 
L 201.726942 156.632276 
L 211.564959 192.384 
L 221.402975 158.221241 
L 231.240992 169.344 
L 241.079008 159.810207 
L 250.917025 155.04331 
L 260.755041 155.04331 
L 270.593058 167.755034 
L 280.431074 193.178483 
L 290.269091 207.479172 
L 300.107107 232.108138 
L 309.945124 228.135724 
L 319.78314 236.875034 
L 329.621157 219.396414 
L 339.459174 237.669517 
L 349.29719 192.384 
L 359.135207 259.915034 
L 368.973223 186.028138 
L 378.81124 271.832276 
L 388.649256 203.506759 
L 398.487273 273.421241 
L 398.487273 266.270897 
L 398.487273 266.270897 
L 388.649256 198.739862 
L 378.81124 266.270897 
L 368.973223 179.672276 
L 359.135207 255.148138 
L 349.29719 186.822621 
L 339.459174 230.519172 
L 329.621157 214.629517 
L 319.78314 236.080552 
L 309.945124 164.577103 
L 300.107107 225.752276 
L 290.269091 197.150897 
L 280.431074 185.233655 
L 270.593058 161.399172 
L 260.755041 151.070897 
L 250.917025 140.742621 
L 241.079008 151.070897 
L 231.240992 162.988138 
L 221.402975 144.715034 
L 211.564959 186.028138 
L 201.726942 152.659862 
L 191.888926 148.687448 
L 182.050909 143.920552 
L 172.212893 143.126069 
L 162.374876 132.797793 
L 152.53686 133.592276 
L 142.698843 142.331586 
L 132.860826 127.236414 
L 123.02281 110.552276 
L 113.184793 126.441931 
L 103.346777 103.401931 
L 93.50876 77.978483 
L 83.670744 73.211586 
L 73.832727 69.239172 
z
" clip-path="url(#p5f555bcf22)" style="fill: #8c564b"/>
   </g>
   <g id="PolyCollection_17">
    <path d="M 73.832727 69.239172 
L 73.832727 69.239172 
L 83.670744 73.211586 
L 93.50876 77.978483 
L 103.346777 103.401931 
L 113.184793 126.441931 
L 123.02281 110.552276 
L 132.860826 127.236414 
L 142.698843 142.331586 
L 152.53686 133.592276 
L 162.374876 132.797793 
L 172.212893 143.126069 
L 182.050909 143.920552 
L 191.888926 148.687448 
L 201.726942 152.659862 
L 211.564959 186.028138 
L 221.402975 144.715034 
L 231.240992 162.988138 
L 241.079008 151.070897 
L 250.917025 140.742621 
L 260.755041 151.070897 
L 270.593058 161.399172 
L 280.431074 185.233655 
L 290.269091 197.150897 
L 300.107107 225.752276 
L 309.945124 164.577103 
L 319.78314 236.080552 
L 329.621157 214.629517 
L 339.459174 230.519172 
L 349.29719 186.822621 
L 359.135207 255.148138 
L 368.973223 179.672276 
L 378.81124 266.270897 
L 388.649256 198.739862 
L 398.487273 266.270897 
L 398.487273 266.270897 
L 398.487273 266.270897 
L 388.649256 198.739862 
L 378.81124 266.270897 
L 368.973223 179.672276 
L 359.135207 255.148138 
L 349.29719 186.822621 
L 339.459174 230.519172 
L 329.621157 214.629517 
L 319.78314 236.080552 
L 309.945124 158.221241 
L 300.107107 209.862621 
L 290.269091 187.617103 
L 280.431074 175.699862 
L 270.593058 153.454345 
L 260.755041 144.715034 
L 250.917025 131.208828 
L 241.079008 143.920552 
L 231.240992 159.810207 
L 221.402975 136.770207 
L 211.564959 179.672276 
L 201.726942 146.304 
L 191.888926 139.948138 
L 182.050909 139.153655 
L 172.212893 136.770207 
L 162.374876 128.825379 
L 152.53686 128.030897 
L 142.698843 135.181241 
L 132.860826 124.852966 
L 123.02281 106.579862 
L 113.184793 107.374345 
L 103.346777 93.073655 
L 93.50876 69.239172 
L 83.670744 68.44469 
L 73.832727 69.239172 
z
" clip-path="url(#p5f555bcf22)" style="fill: #e377c2"/>
   </g>
   <g id="PolyCollection_18">
    <path d="M 73.832727 69.239172 
L 73.832727 69.239172 
L 83.670744 68.44469 
L 93.50876 69.239172 
L 103.346777 93.073655 
L 113.184793 107.374345 
L 123.02281 106.579862 
L 132.860826 124.852966 
L 142.698843 135.181241 
L 152.53686 128.030897 
L 162.374876 128.825379 
L 172.212893 136.770207 
L 182.050909 139.153655 
L 191.888926 139.948138 
L 201.726942 146.304 
L 211.564959 179.672276 
L 221.402975 136.770207 
L 231.240992 159.810207 
L 241.079008 143.920552 
L 250.917025 131.208828 
L 260.755041 144.715034 
L 270.593058 153.454345 
L 280.431074 175.699862 
L 290.269091 187.617103 
L 300.107107 209.862621 
L 309.945124 158.221241 
L 319.78314 236.080552 
L 329.621157 214.629517 
L 339.459174 230.519172 
L 349.29719 186.822621 
L 359.135207 255.148138 
L 368.973223 179.672276 
L 378.81124 266.270897 
L 388.649256 198.739862 
L 398.487273 266.270897 
L 398.487273 266.270897 
L 398.487273 266.270897 
L 388.649256 198.739862 
L 378.81124 266.270897 
L 368.973223 170.932966 
L 359.135207 245.614345 
L 349.29719 177.288828 
L 339.459174 219.396414 
L 329.621157 204.301241 
L 319.78314 228.135724 
L 309.945124 153.454345 
L 300.107107 201.917793 
L 290.269091 179.672276 
L 280.431074 167.755034 
L 270.593058 143.920552 
L 260.755041 138.359172 
L 250.917025 124.058483 
L 241.079008 134.386759 
L 231.240992 151.865379 
L 221.402975 128.030897 
L 211.564959 170.932966 
L 201.726942 138.359172 
L 191.888926 134.386759 
L 182.050909 132.797793 
L 172.212893 129.619862 
L 162.374876 124.852966 
L 152.53686 120.880552 
L 142.698843 129.619862 
L 132.860826 120.086069 
L 123.02281 102.607448 
L 113.184793 101.812966 
L 103.346777 87.512276 
L 93.50876 68.44469 
L 83.670744 68.44469 
L 73.832727 69.239172 
z
" clip-path="url(#p5f555bcf22)" style="fill: #7f7f7f"/>
   </g>
   <g id="PolyCollection_19">
    <path d="M 73.832727 69.239172 
L 73.832727 69.239172 
L 83.670744 68.44469 
L 93.50876 68.44469 
L 103.346777 87.512276 
L 113.184793 101.812966 
L 123.02281 102.607448 
L 132.860826 120.086069 
L 142.698843 129.619862 
L 152.53686 120.880552 
L 162.374876 124.852966 
L 172.212893 129.619862 
L 182.050909 132.797793 
L 191.888926 134.386759 
L 201.726942 138.359172 
L 211.564959 170.932966 
L 221.402975 128.030897 
L 231.240992 151.865379 
L 241.079008 134.386759 
L 250.917025 124.058483 
L 260.755041 138.359172 
L 270.593058 143.920552 
L 280.431074 167.755034 
L 290.269091 179.672276 
L 300.107107 201.917793 
L 309.945124 153.454345 
L 319.78314 228.135724 
L 329.621157 204.301241 
L 339.459174 219.396414 
L 349.29719 177.288828 
L 359.135207 245.614345 
L 368.973223 170.932966 
L 378.81124 266.270897 
L 388.649256 198.739862 
L 398.487273 266.270897 
L 398.487273 252.76469 
L 398.487273 252.76469 
L 388.649256 190.795034 
L 378.81124 251.970207 
L 368.973223 157.426759 
L 359.135207 237.669517 
L 349.29719 163.782621 
L 339.459174 206.68469 
L 329.621157 190.795034 
L 319.78314 215.424 
L 309.945124 145.509517 
L 300.107107 191.589517 
L 290.269091 172.521931 
L 280.431074 156.632276 
L 270.593058 135.181241 
L 260.755041 132.797793 
L 250.917025 113.730207 
L 241.079008 118.497103 
L 231.240992 143.126069 
L 221.402975 118.497103 
L 211.564959 160.60469 
L 201.726942 130.414345 
L 191.888926 123.264 
L 182.050909 126.441931 
L 172.212893 120.880552 
L 162.374876 114.52469 
L 152.53686 110.552276 
L 142.698843 121.675034 
L 132.860826 108.96331 
L 123.02281 89.101241 
L 113.184793 84.334345 
L 103.346777 67.650207 
L 93.50876 67.650207 
L 83.670744 68.44469 
L 73.832727 69.239172 
z
" clip-path="url(#p5f555bcf22)" style="fill: #bcbd22"/>
   </g>
   <g id="PolyCollection_20">
    <path d="M 73.832727 69.239172 
L 73.832727 69.239172 
L 83.670744 68.44469 
L 93.50876 67.650207 
L 103.346777 67.650207 
L 113.184793 84.334345 
L 123.02281 89.101241 
L 132.860826 108.96331 
L 142.698843 121.675034 
L 152.53686 110.552276 
L 162.374876 114.52469 
L 172.212893 120.880552 
L 182.050909 126.441931 
L 191.888926 123.264 
L 201.726942 130.414345 
L 211.564959 160.60469 
L 221.402975 118.497103 
L 231.240992 143.126069 
L 241.079008 118.497103 
L 250.917025 113.730207 
L 260.755041 132.797793 
L 270.593058 135.181241 
L 280.431074 156.632276 
L 290.269091 172.521931 
L 300.107107 191.589517 
L 309.945124 145.509517 
L 319.78314 215.424 
L 329.621157 190.795034 
L 339.459174 206.68469 
L 349.29719 163.782621 
L 359.135207 237.669517 
L 368.973223 157.426759 
L 378.81124 251.970207 
L 388.649256 190.795034 
L 398.487273 252.76469 
L 398.487273 244.819862 
L 398.487273 244.819862 
L 388.649256 147.098483 
L 378.81124 235.286069 
L 368.973223 147.098483 
L 359.135207 202.712276 
L 349.29719 154.248828 
L 339.459174 192.384 
L 329.621157 184.439172 
L 319.78314 209.068138 
L 309.945124 140.742621 
L 300.107107 185.233655 
L 290.269091 170.932966 
L 280.431074 135.975724 
L 270.593058 128.030897 
L 260.755041 128.030897 
L 250.917025 112.141241 
L 241.079008 112.141241 
L 231.240992 131.208828 
L 221.402975 112.935724 
L 211.564959 150.276414 
L 201.726942 121.675034 
L 191.888926 117.702621 
L 182.050909 120.880552 
L 172.212893 113.730207 
L 162.374876 106.579862 
L 152.53686 103.401931 
L 142.698843 113.730207 
L 132.860826 103.401931 
L 123.02281 85.92331 
L 113.184793 77.978483 
L 103.346777 66.061241 
L 93.50876 67.650207 
L 83.670744 68.44469 
L 73.832727 69.239172 
z
" clip-path="url(#p5f555bcf22)" style="fill: #17becf"/>
   </g>
   <g id="PolyCollection_21">
    <path d="M 73.832727 69.239172 
L 73.832727 69.239172 
L 83.670744 68.44469 
L 93.50876 67.650207 
L 103.346777 66.061241 
L 113.184793 77.978483 
L 123.02281 85.92331 
L 132.860826 103.401931 
L 142.698843 113.730207 
L 152.53686 103.401931 
L 162.374876 106.579862 
L 172.212893 113.730207 
L 182.050909 120.880552 
L 191.888926 117.702621 
L 201.726942 121.675034 
L 211.564959 150.276414 
L 221.402975 112.935724 
L 231.240992 131.208828 
L 241.079008 112.141241 
L 250.917025 112.141241 
L 260.755041 128.030897 
L 270.593058 128.030897 
L 280.431074 135.975724 
L 290.269091 170.932966 
L 300.107107 185.233655 
L 309.945124 140.742621 
L 319.78314 209.068138 
L 329.621157 184.439172 
L 339.459174 192.384 
L 349.29719 154.248828 
L 359.135207 202.712276 
L 368.973223 147.098483 
L 378.81124 235.286069 
L 388.649256 147.098483 
L 398.487273 244.819862 
L 398.487273 235.286069 
L 398.487273 235.286069 
L 388.649256 137.56469 
L 378.81124 221.779862 
L 368.973223 135.181241 
L 359.135207 193.972966 
L 349.29719 143.920552 
L 339.459174 182.055724 
L 329.621157 177.288828 
L 319.78314 193.178483 
L 309.945124 128.825379 
L 300.107107 172.521931 
L 290.269091 155.837793 
L 280.431074 123.264 
L 270.593058 122.469517 
L 260.755041 125.647448 
L 250.917025 106.579862 
L 241.079008 108.96331 
L 231.240992 122.469517 
L 221.402975 103.401931 
L 211.564959 140.742621 
L 201.726942 112.935724 
L 191.888926 110.552276 
L 182.050909 112.141241 
L 172.212893 108.168828 
L 162.374876 99.429517 
L 152.53686 97.840552 
L 142.698843 104.990897 
L 132.860826 92.279172 
L 123.02281 77.184 
L 113.184793 69.239172 
L 103.346777 65.266759 
L 93.50876 67.650207 
L 83.670744 68.44469 
L 73.832727 69.239172 
z
" clip-path="url(#p5f555bcf22)" style="fill: #1f77b4"/>
   </g>
   <g id="PolyCollection_22">
    <path d="M 73.832727 69.239172 
L 73.832727 69.239172 
L 83.670744 68.44469 
L 93.50876 67.650207 
L 103.346777 65.266759 
L 113.184793 69.239172 
L 123.02281 77.184 
L 132.860826 92.279172 
L 142.698843 104.990897 
L 152.53686 97.840552 
L 162.374876 99.429517 
L 172.212893 108.168828 
L 182.050909 112.141241 
L 191.888926 110.552276 
L 201.726942 112.935724 
L 211.564959 140.742621 
L 221.402975 103.401931 
L 231.240992 122.469517 
L 241.079008 108.96331 
L 250.917025 106.579862 
L 260.755041 125.647448 
L 270.593058 122.469517 
L 280.431074 123.264 
L 290.269091 155.837793 
L 300.107107 172.521931 
L 309.945124 128.825379 
L 319.78314 193.178483 
L 329.621157 177.288828 
L 339.459174 182.055724 
L 349.29719 143.920552 
L 359.135207 193.972966 
L 368.973223 135.181241 
L 378.81124 221.779862 
L 388.649256 137.56469 
L 398.487273 235.286069 
L 398.487273 235.286069 
L 398.487273 235.286069 
L 388.649256 137.56469 
L 378.81124 221.779862 
L 368.973223 135.181241 
L 359.135207 193.972966 
L 349.29719 143.920552 
L 339.459174 182.055724 
L 329.621157 177.288828 
L 319.78314 183.64469 
L 309.945124 124.058483 
L 300.107107 165.371586 
L 290.269091 146.304 
L 280.431074 116.113655 
L 270.593058 114.52469 
L 260.755041 117.702621 
L 250.917025 102.607448 
L 241.079008 101.018483 
L 231.240992 116.113655 
L 221.402975 96.251586 
L 211.564959 134.386759 
L 201.726942 104.196414 
L 191.888926 100.224 
L 182.050909 104.196414 
L 172.212893 97.840552 
L 162.374876 94.662621 
L 152.53686 92.279172 
L 142.698843 93.868138 
L 132.860826 87.512276 
L 123.02281 73.211586 
L 113.184793 66.855724 
L 103.346777 65.266759 
L 93.50876 67.650207 
L 83.670744 68.44469 
L 73.832727 69.239172 
z
" clip-path="url(#p5f555bcf22)" style="fill: #ff7f0e"/>
   </g>
   <g id="PolyCollection_23">
    <path d="M 73.832727 69.239172 
L 73.832727 69.239172 
L 83.670744 68.44469 
L 93.50876 67.650207 
L 103.346777 65.266759 
L 113.184793 66.855724 
L 123.02281 73.211586 
L 132.860826 87.512276 
L 142.698843 93.868138 
L 152.53686 92.279172 
L 162.374876 94.662621 
L 172.212893 97.840552 
L 182.050909 104.196414 
L 191.888926 100.224 
L 201.726942 104.196414 
L 211.564959 134.386759 
L 221.402975 96.251586 
L 231.240992 116.113655 
L 241.079008 101.018483 
L 250.917025 102.607448 
L 260.755041 117.702621 
L 270.593058 114.52469 
L 280.431074 116.113655 
L 290.269091 146.304 
L 300.107107 165.371586 
L 309.945124 124.058483 
L 319.78314 183.64469 
L 329.621157 177.288828 
L 339.459174 182.055724 
L 349.29719 143.920552 
L 359.135207 193.972966 
L 368.973223 135.181241 
L 378.81124 221.779862 
L 388.649256 137.56469 
L 398.487273 235.286069 
L 398.487273 224.957793 
L 398.487273 224.957793 
L 388.649256 126.441931 
L 378.81124 209.862621 
L 368.973223 128.825379 
L 359.135207 184.439172 
L 349.29719 136.770207 
L 339.459174 173.316414 
L 329.621157 168.549517 
L 319.78314 175.699862 
L 309.945124 109.757793 
L 300.107107 155.04331 
L 290.269091 139.153655 
L 280.431074 108.168828 
L 270.593058 104.196414 
L 260.755041 110.552276 
L 250.917025 98.635034 
L 241.079008 93.868138 
L 231.240992 104.196414 
L 221.402975 87.512276 
L 211.564959 127.236414 
L 201.726942 97.046069 
L 191.888926 93.073655 
L 182.050909 98.635034 
L 172.212893 91.48469 
L 162.374876 85.92331 
L 152.53686 82.745379 
L 142.698843 86.717793 
L 132.860826 81.950897 
L 123.02281 67.650207 
L 113.184793 66.061241 
L 103.346777 65.266759 
L 93.50876 67.650207 
L 83.670744 68.44469 
L 73.832727 69.239172 
z
" clip-path="url(#p5f555bcf22)" style="fill: #2ca02c"/>
   </g>
   <g id="PolyCollection_24">
    <path d="M 73.832727 69.239172 
L 73.832727 69.239172 
L 83.670744 68.44469 
L 93.50876 67.650207 
L 103.346777 65.266759 
L 113.184793 66.061241 
L 123.02281 67.650207 
L 132.860826 81.950897 
L 142.698843 86.717793 
L 152.53686 82.745379 
L 162.374876 85.92331 
L 172.212893 91.48469 
L 182.050909 98.635034 
L 191.888926 93.073655 
L 201.726942 97.046069 
L 211.564959 127.236414 
L 221.402975 87.512276 
L 231.240992 104.196414 
L 241.079008 93.868138 
L 250.917025 98.635034 
L 260.755041 110.552276 
L 270.593058 104.196414 
L 280.431074 108.168828 
L 290.269091 139.153655 
L 300.107107 155.04331 
L 309.945124 109.757793 
L 319.78314 175.699862 
L 329.621157 168.549517 
L 339.459174 173.316414 
L 349.29719 136.770207 
L 359.135207 184.439172 
L 368.973223 128.825379 
L 378.81124 209.862621 
L 388.649256 126.441931 
L 398.487273 224.957793 
L 398.487273 192.384 
L 398.487273 192.384 
L 388.649256 123.264 
L 378.81124 164.577103 
L 368.973223 122.469517 
L 359.135207 137.56469 
L 349.29719 128.825379 
L 339.459174 108.96331 
L 329.621157 154.248828 
L 319.78314 125.647448 
L 309.945124 106.579862 
L 300.107107 120.880552 
L 290.269091 132.00331 
L 280.431074 97.840552 
L 270.593058 91.48469 
L 260.755041 105.785379 
L 250.917025 94.662621 
L 241.079008 88.306759 
L 231.240992 96.251586 
L 221.402975 83.539862 
L 211.564959 114.52469 
L 201.726942 92.279172 
L 191.888926 86.717793 
L 182.050909 89.895724 
L 172.212893 82.745379 
L 162.374876 79.567448 
L 152.53686 77.978483 
L 142.698843 74.800552 
L 132.860826 65.266759 
L 123.02281 63.677793 
L 113.184793 62.088828 
L 103.346777 65.266759 
L 93.50876 67.650207 
L 83.670744 68.44469 
L 73.832727 69.239172 
z
" clip-path="url(#p5f555bcf22)" style="fill: #d62728"/>
   </g>
   <g id="PolyCollection_25">
    <path d="M 73.832727 69.239172 
L 73.832727 69.239172 
L 83.670744 68.44469 
L 93.50876 67.650207 
L 103.346777 65.266759 
L 113.184793 62.088828 
L 123.02281 63.677793 
L 132.860826 65.266759 
L 142.698843 74.800552 
L 152.53686 77.978483 
L 162.374876 79.567448 
L 172.212893 82.745379 
L 182.050909 89.895724 
L 191.888926 86.717793 
L 201.726942 92.279172 
L 211.564959 114.52469 
L 221.402975 83.539862 
L 231.240992 96.251586 
L 241.079008 88.306759 
L 250.917025 94.662621 
L 260.755041 105.785379 
L 270.593058 91.48469 
L 280.431074 97.840552 
L 290.269091 132.00331 
L 300.107107 120.880552 
L 309.945124 106.579862 
L 319.78314 125.647448 
L 329.621157 154.248828 
L 339.459174 108.96331 
L 349.29719 128.825379 
L 359.135207 137.56469 
L 368.973223 122.469517 
L 378.81124 164.577103 
L 388.649256 123.264 
L 398.487273 192.384 
L 398.487273 192.384 
L 398.487273 192.384 
L 388.649256 123.264 
L 378.81124 164.577103 
L 368.973223 122.469517 
L 359.135207 137.56469 
L 349.29719 128.825379 
L 339.459174 104.196414 
L 329.621157 151.070897 
L 319.78314 121.675034 
L 309.945124 104.196414 
L 300.107107 116.908138 
L 290.269091 103.401931 
L 280.431074 93.868138 
L 270.593058 80.361931 
L 260.755041 101.018483 
L 250.917025 87.512276 
L 241.079008 84.334345 
L 231.240992 89.895724 
L 221.402975 78.772966 
L 211.564959 89.101241 
L 201.726942 85.128828 
L 191.888926 78.772966 
L 182.050909 81.156414 
L 172.212893 74.800552 
L 162.374876 72.417103 
L 152.53686 70.033655 
L 142.698843 65.266759 
L 132.860826 62.088828 
L 123.02281 63.677793 
L 113.184793 62.088828 
L 103.346777 65.266759 
L 93.50876 67.650207 
L 83.670744 68.44469 
L 73.832727 69.239172 
z
" clip-path="url(#p5f555bcf22)" style="fill: #9467bd"/>
   </g>
   <g id="PolyCollection_26">
    <path d="M 73.832727 69.239172 
L 73.832727 69.239172 
L 83.670744 68.44469 
L 93.50876 67.650207 
L 103.346777 65.266759 
L 113.184793 62.088828 
L 123.02281 63.677793 
L 132.860826 62.088828 
L 142.698843 65.266759 
L 152.53686 70.033655 
L 162.374876 72.417103 
L 172.212893 74.800552 
L 182.050909 81.156414 
L 191.888926 78.772966 
L 201.726942 85.128828 
L 211.564959 89.101241 
L 221.402975 78.772966 
L 231.240992 89.895724 
L 241.079008 84.334345 
L 250.917025 87.512276 
L 260.755041 101.018483 
L 270.593058 80.361931 
L 280.431074 93.868138 
L 290.269091 103.401931 
L 300.107107 116.908138 
L 309.945124 104.196414 
L 319.78314 121.675034 
L 329.621157 151.070897 
L 339.459174 104.196414 
L 349.29719 128.825379 
L 359.135207 137.56469 
L 368.973223 122.469517 
L 378.81124 164.577103 
L 388.649256 123.264 
L 398.487273 192.384 
L 398.487273 120.880552 
L 398.487273 120.880552 
L 388.649256 112.141241 
L 378.81124 114.52469 
L 368.973223 113.730207 
L 359.135207 101.018483 
L 349.29719 105.785379 
L 339.459174 100.224 
L 329.621157 127.236414 
L 319.78314 108.168828 
L 309.945124 96.251586 
L 300.107107 98.635034 
L 290.269091 96.251586 
L 280.431074 85.92331 
L 270.593058 77.978483 
L 260.755041 98.635034 
L 250.917025 80.361931 
L 241.079008 77.978483 
L 231.240992 84.334345 
L 221.402975 73.211586 
L 211.564959 81.950897 
L 201.726942 80.361931 
L 191.888926 70.828138 
L 182.050909 74.006069 
L 172.212893 69.239172 
L 162.374876 65.266759 
L 152.53686 61.294345 
L 142.698843 64.472276 
L 132.860826 62.088828 
L 123.02281 63.677793 
L 113.184793 62.088828 
L 103.346777 65.266759 
L 93.50876 67.650207 
L 83.670744 68.44469 
L 73.832727 69.239172 
z
" clip-path="url(#p5f555bcf22)" style="fill: #8c564b"/>
   </g>
   <g id="PolyCollection_27">
    <path d="M 73.832727 69.239172 
L 73.832727 69.239172 
L 83.670744 68.44469 
L 93.50876 67.650207 
L 103.346777 65.266759 
L 113.184793 62.088828 
L 123.02281 63.677793 
L 132.860826 62.088828 
L 142.698843 64.472276 
L 152.53686 61.294345 
L 162.374876 65.266759 
L 172.212893 69.239172 
L 182.050909 74.006069 
L 191.888926 70.828138 
L 201.726942 80.361931 
L 211.564959 81.950897 
L 221.402975 73.211586 
L 231.240992 84.334345 
L 241.079008 77.978483 
L 250.917025 80.361931 
L 260.755041 98.635034 
L 270.593058 77.978483 
L 280.431074 85.92331 
L 290.269091 96.251586 
L 300.107107 98.635034 
L 309.945124 96.251586 
L 319.78314 108.168828 
L 329.621157 127.236414 
L 339.459174 100.224 
L 349.29719 105.785379 
L 359.135207 101.018483 
L 368.973223 113.730207 
L 378.81124 114.52469 
L 388.649256 112.141241 
L 398.487273 120.880552 
L 398.487273 112.141241 
L 398.487273 112.141241 
L 388.649256 107.374345 
L 378.81124 102.607448 
L 368.973223 101.018483 
L 359.135207 95.457103 
L 349.29719 97.046069 
L 339.459174 89.101241 
L 329.621157 116.113655 
L 319.78314 97.046069 
L 309.945124 84.334345 
L 300.107107 90.690207 
L 290.269091 85.128828 
L 280.431074 76.389517 
L 270.593058 74.006069 
L 260.755041 93.868138 
L 250.917025 73.211586 
L 241.079008 70.828138 
L 231.240992 77.978483 
L 221.402975 66.855724 
L 211.564959 75.595034 
L 201.726942 74.006069 
L 191.888926 65.266759 
L 182.050909 66.855724 
L 172.212893 63.677793 
L 162.374876 64.472276 
L 152.53686 61.294345 
L 142.698843 64.472276 
L 132.860826 62.088828 
L 123.02281 63.677793 
L 113.184793 62.088828 
L 103.346777 65.266759 
L 93.50876 67.650207 
L 83.670744 68.44469 
L 73.832727 69.239172 
z
" clip-path="url(#p5f555bcf22)" style="fill: #e377c2"/>
   </g>
   <g id="PolyCollection_28">
    <path d="M 73.832727 69.239172 
L 73.832727 69.239172 
L 83.670744 68.44469 
L 93.50876 67.650207 
L 103.346777 65.266759 
L 113.184793 62.088828 
L 123.02281 63.677793 
L 132.860826 62.088828 
L 142.698843 64.472276 
L 152.53686 61.294345 
L 162.374876 64.472276 
L 172.212893 63.677793 
L 182.050909 66.855724 
L 191.888926 65.266759 
L 201.726942 74.006069 
L 211.564959 75.595034 
L 221.402975 66.855724 
L 231.240992 77.978483 
L 241.079008 70.828138 
L 250.917025 73.211586 
L 260.755041 93.868138 
L 270.593058 74.006069 
L 280.431074 76.389517 
L 290.269091 85.128828 
L 300.107107 90.690207 
L 309.945124 84.334345 
L 319.78314 97.046069 
L 329.621157 116.113655 
L 339.459174 89.101241 
L 349.29719 97.046069 
L 359.135207 95.457103 
L 368.973223 101.018483 
L 378.81124 102.607448 
L 388.649256 107.374345 
L 398.487273 112.141241 
L 398.487273 104.990897 
L 398.487273 104.990897 
L 388.649256 100.224 
L 378.81124 94.662621 
L 368.973223 96.251586 
L 359.135207 91.48469 
L 349.29719 93.868138 
L 339.459174 86.717793 
L 329.621157 109.757793 
L 319.78314 89.101241 
L 309.945124 76.389517 
L 300.107107 81.950897 
L 290.269091 76.389517 
L 280.431074 66.061241 
L 270.593058 69.239172 
L 260.755041 87.512276 
L 250.917025 71.622621 
L 241.079008 66.855724 
L 231.240992 72.417103 
L 221.402975 62.088828 
L 211.564959 67.650207 
L 201.726942 68.44469 
L 191.888926 62.88331 
L 182.050909 59.705379 
L 172.212893 62.88331 
L 162.374876 64.472276 
L 152.53686 61.294345 
L 142.698843 64.472276 
L 132.860826 62.088828 
L 123.02281 63.677793 
L 113.184793 62.088828 
L 103.346777 65.266759 
L 93.50876 67.650207 
L 83.670744 68.44469 
L 73.832727 69.239172 
z
" clip-path="url(#p5f555bcf22)" style="fill: #7f7f7f"/>
   </g>
   <g id="PolyCollection_29">
    <path d="M 73.832727 69.239172 
L 73.832727 69.239172 
L 83.670744 68.44469 
L 93.50876 67.650207 
L 103.346777 65.266759 
L 113.184793 62.088828 
L 123.02281 63.677793 
L 132.860826 62.088828 
L 142.698843 64.472276 
L 152.53686 61.294345 
L 162.374876 64.472276 
L 172.212893 62.88331 
L 182.050909 59.705379 
L 191.888926 62.88331 
L 201.726942 68.44469 
L 211.564959 67.650207 
L 221.402975 62.088828 
L 231.240992 72.417103 
L 241.079008 66.855724 
L 250.917025 71.622621 
L 260.755041 87.512276 
L 270.593058 69.239172 
L 280.431074 66.061241 
L 290.269091 76.389517 
L 300.107107 81.950897 
L 309.945124 76.389517 
L 319.78314 89.101241 
L 329.621157 109.757793 
L 339.459174 86.717793 
L 349.29719 93.868138 
L 359.135207 91.48469 
L 368.973223 96.251586 
L 378.81124 94.662621 
L 388.649256 100.224 
L 398.487273 104.990897 
L 398.487273 97.046069 
L 398.487273 97.046069 
L 388.649256 89.895724 
L 378.81124 87.512276 
L 368.973223 86.717793 
L 359.135207 81.156414 
L 349.29719 84.334345 
L 339.459174 81.156414 
L 329.621157 101.018483 
L 319.78314 77.184 
L 309.945124 69.239172 
L 300.107107 70.828138 
L 290.269091 73.211586 
L 280.431074 62.88331 
L 270.593058 55.732966 
L 260.755041 59.705379 
L 250.917025 62.088828 
L 241.079008 60.499862 
L 231.240992 62.088828 
L 221.402975 54.144 
L 211.564959 60.499862 
L 201.726942 67.650207 
L 191.888926 62.88331 
L 182.050909 59.705379 
L 172.212893 62.88331 
L 162.374876 64.472276 
L 152.53686 61.294345 
L 142.698843 64.472276 
L 132.860826 62.088828 
L 123.02281 63.677793 
L 113.184793 62.088828 
L 103.346777 65.266759 
L 93.50876 67.650207 
L 83.670744 68.44469 
L 73.832727 69.239172 
z
" clip-path="url(#p5f555bcf22)" style="fill: #bcbd22"/>
   </g>
   <g id="PolyCollection_30">
    <path d="M 73.832727 69.239172 
L 73.832727 69.239172 
L 83.670744 68.44469 
L 93.50876 67.650207 
L 103.346777 65.266759 
L 113.184793 62.088828 
L 123.02281 63.677793 
L 132.860826 62.088828 
L 142.698843 64.472276 
L 152.53686 61.294345 
L 162.374876 64.472276 
L 172.212893 62.88331 
L 182.050909 59.705379 
L 191.888926 62.88331 
L 201.726942 67.650207 
L 211.564959 60.499862 
L 221.402975 54.144 
L 231.240992 62.088828 
L 241.079008 60.499862 
L 250.917025 62.088828 
L 260.755041 59.705379 
L 270.593058 55.732966 
L 280.431074 62.88331 
L 290.269091 73.211586 
L 300.107107 70.828138 
L 309.945124 69.239172 
L 319.78314 77.184 
L 329.621157 101.018483 
L 339.459174 81.156414 
L 349.29719 84.334345 
L 359.135207 81.156414 
L 368.973223 86.717793 
L 378.81124 87.512276 
L 388.649256 89.895724 
L 398.487273 97.046069 
L 398.487273 87.512276 
L 398.487273 87.512276 
L 388.649256 79.567448 
L 378.81124 79.567448 
L 368.973223 78.772966 
L 359.135207 74.006069 
L 349.29719 76.389517 
L 339.459174 75.595034 
L 329.621157 75.595034 
L 319.78314 71.622621 
L 309.945124 62.088828 
L 300.107107 70.033655 
L 290.269091 73.211586 
L 280.431074 62.88331 
L 270.593058 55.732966 
L 260.755041 59.705379 
L 250.917025 62.088828 
L 241.079008 60.499862 
L 231.240992 62.088828 
L 221.402975 54.144 
L 211.564959 60.499862 
L 201.726942 67.650207 
L 191.888926 62.88331 
L 182.050909 59.705379 
L 172.212893 62.88331 
L 162.374876 64.472276 
L 152.53686 61.294345 
L 142.698843 64.472276 
L 132.860826 62.088828 
L 123.02281 63.677793 
L 113.184793 62.088828 
L 103.346777 65.266759 
L 93.50876 67.650207 
L 83.670744 68.44469 
L 73.832727 69.239172 
z
" clip-path="url(#p5f555bcf22)" style="fill: #17becf"/>
   </g>
   <g id="PolyCollection_31">
    <path d="M 73.832727 69.239172 
L 73.832727 69.239172 
L 83.670744 68.44469 
L 93.50876 67.650207 
L 103.346777 65.266759 
L 113.184793 62.088828 
L 123.02281 63.677793 
L 132.860826 62.088828 
L 142.698843 64.472276 
L 152.53686 61.294345 
L 162.374876 64.472276 
L 172.212893 62.88331 
L 182.050909 59.705379 
L 191.888926 62.88331 
L 201.726942 67.650207 
L 211.564959 60.499862 
L 221.402975 54.144 
L 231.240992 62.088828 
L 241.079008 60.499862 
L 250.917025 62.088828 
L 260.755041 59.705379 
L 270.593058 55.732966 
L 280.431074 62.88331 
L 290.269091 73.211586 
L 300.107107 70.033655 
L 309.945124 62.088828 
L 319.78314 71.622621 
L 329.621157 75.595034 
L 339.459174 75.595034 
L 349.29719 76.389517 
L 359.135207 74.006069 
L 368.973223 78.772966 
L 378.81124 79.567448 
L 388.649256 79.567448 
L 398.487273 87.512276 
L 398.487273 78.772966 
L 398.487273 78.772966 
L 388.649256 75.595034 
L 378.81124 74.800552 
L 368.973223 73.211586 
L 359.135207 70.828138 
L 349.29719 71.622621 
L 339.459174 68.44469 
L 329.621157 69.239172 
L 319.78314 70.828138 
L 309.945124 62.088828 
L 300.107107 70.033655 
L 290.269091 73.211586 
L 280.431074 62.88331 
L 270.593058 55.732966 
L 260.755041 59.705379 
L 250.917025 62.088828 
L 241.079008 60.499862 
L 231.240992 62.088828 
L 221.402975 54.144 
L 211.564959 60.499862 
L 201.726942 67.650207 
L 191.888926 62.88331 
L 182.050909 59.705379 
L 172.212893 62.88331 
L 162.374876 64.472276 
L 152.53686 61.294345 
L 142.698843 64.472276 
L 132.860826 62.088828 
L 123.02281 63.677793 
L 113.184793 62.088828 
L 103.346777 65.266759 
L 93.50876 67.650207 
L 83.670744 68.44469 
L 73.832727 69.239172 
z
" clip-path="url(#p5f555bcf22)" style="fill: #1f77b4"/>
   </g>
   <g id="PolyCollection_32">
    <path d="M 73.832727 69.239172 
L 73.832727 69.239172 
L 83.670744 68.44469 
L 93.50876 67.650207 
L 103.346777 65.266759 
L 113.184793 62.088828 
L 123.02281 63.677793 
L 132.860826 62.088828 
L 142.698843 64.472276 
L 152.53686 61.294345 
L 162.374876 64.472276 
L 172.212893 62.88331 
L 182.050909 59.705379 
L 191.888926 62.88331 
L 201.726942 67.650207 
L 211.564959 60.499862 
L 221.402975 54.144 
L 231.240992 62.088828 
L 241.079008 60.499862 
L 250.917025 62.088828 
L 260.755041 59.705379 
L 270.593058 55.732966 
L 280.431074 62.88331 
L 290.269091 73.211586 
L 300.107107 70.033655 
L 309.945124 62.088828 
L 319.78314 70.828138 
L 329.621157 69.239172 
L 339.459174 68.44469 
L 349.29719 71.622621 
L 359.135207 70.828138 
L 368.973223 73.211586 
L 378.81124 74.800552 
L 388.649256 75.595034 
L 398.487273 78.772966 
L 398.487273 70.828138 
L 398.487273 70.828138 
L 388.649256 67.650207 
L 378.81124 66.061241 
L 368.973223 70.828138 
L 359.135207 69.239172 
L 349.29719 71.622621 
L 339.459174 68.44469 
L 329.621157 69.239172 
L 319.78314 70.828138 
L 309.945124 62.088828 
L 300.107107 70.033655 
L 290.269091 73.211586 
L 280.431074 62.88331 
L 270.593058 55.732966 
L 260.755041 59.705379 
L 250.917025 62.088828 
L 241.079008 60.499862 
L 231.240992 62.088828 
L 221.402975 54.144 
L 211.564959 60.499862 
L 201.726942 67.650207 
L 191.888926 62.88331 
L 182.050909 59.705379 
L 172.212893 62.88331 
L 162.374876 64.472276 
L 152.53686 61.294345 
L 142.698843 64.472276 
L 132.860826 62.088828 
L 123.02281 63.677793 
L 113.184793 62.088828 
L 103.346777 65.266759 
L 93.50876 67.650207 
L 83.670744 68.44469 
L 73.832727 69.239172 
z
" clip-path="url(#p5f555bcf22)" style="fill: #ff7f0e"/>
   </g>
   <g id="matplotlib.axis_1">
    <g id="xtick_1">
     <g id="line2d_1">
      <defs>
       <path id="me02e645a52" d="M 0 0 
L 0 3.5 
" style="stroke: #000000; stroke-width: 0.8"/>
      </defs>
      <g>
       <use xlink:href="#me02e645a52" x="73.832727" y="307.584" style="stroke: #000000; stroke-width: 0.8"/>
      </g>
     </g>
     <g id="text_1">
      <!-- 0 -->
      <g transform="translate(70.651477 322.182437) scale(0.1 -0.1)">
       <defs>
        <path id="DejaVuSans-30" d="M 2034 4250 
Q 1547 4250 1301 3770 
Q 1056 3291 1056 2328 
Q 1056 1369 1301 889 
Q 1547 409 2034 409 
Q 2525 409 2770 889 
Q 3016 1369 3016 2328 
Q 3016 3291 2770 3770 
Q 2525 4250 2034 4250 
z
M 2034 4750 
Q 2819 4750 3233 4129 
Q 3647 3509 3647 2328 
Q 3647 1150 3233 529 
Q 2819 -91 2034 -91 
Q 1250 -91 836 529 
Q 422 1150 422 2328 
Q 422 3509 836 4129 
Q 1250 4750 2034 4750 
z
" transform="scale(0.015625)"/>
       </defs>
       <use xlink:href="#DejaVuSans-30"/>
      </g>
     </g>
    </g>
    <g id="xtick_2">
     <g id="line2d_2">
      <g>
       <use xlink:href="#me02e645a52" x="123.02281" y="307.584" style="stroke: #000000; stroke-width: 0.8"/>
      </g>
     </g>
     <g id="text_2">
      <!-- 5 -->
      <g transform="translate(119.84156 322.182437) scale(0.1 -0.1)">
       <defs>
        <path id="DejaVuSans-35" d="M 691 4666 
L 3169 4666 
L 3169 4134 
L 1269 4134 
L 1269 2991 
Q 1406 3038 1543 3061 
Q 1681 3084 1819 3084 
Q 2600 3084 3056 2656 
Q 3513 2228 3513 1497 
Q 3513 744 3044 326 
Q 2575 -91 1722 -91 
Q 1428 -91 1123 -41 
Q 819 9 494 109 
L 494 744 
Q 775 591 1075 516 
Q 1375 441 1709 441 
Q 2250 441 2565 725 
Q 2881 1009 2881 1497 
Q 2881 1984 2565 2268 
Q 2250 2553 1709 2553 
Q 1456 2553 1204 2497 
Q 953 2441 691 2322 
L 691 4666 
z
" transform="scale(0.015625)"/>
       </defs>
       <use xlink:href="#DejaVuSans-35"/>
      </g>
     </g>
    </g>
    <g id="xtick_3">
     <g id="line2d_3">
      <g>
       <use xlink:href="#me02e645a52" x="172.212893" y="307.584" style="stroke: #000000; stroke-width: 0.8"/>
      </g>
     </g>
     <g id="text_3">
      <!-- 10 -->
      <g transform="translate(165.850393 322.182437) scale(0.1 -0.1)">
       <defs>
        <path id="DejaVuSans-31" d="M 794 531 
L 1825 531 
L 1825 4091 
L 703 3866 
L 703 4441 
L 1819 4666 
L 2450 4666 
L 2450 531 
L 3481 531 
L 3481 0 
L 794 0 
L 794 531 
z
" transform="scale(0.015625)"/>
       </defs>
       <use xlink:href="#DejaVuSans-31"/>
       <use xlink:href="#DejaVuSans-30" x="63.623047"/>
      </g>
     </g>
    </g>
    <g id="xtick_4">
     <g id="line2d_4">
      <g>
       <use xlink:href="#me02e645a52" x="221.402975" y="307.584" style="stroke: #000000; stroke-width: 0.8"/>
      </g>
     </g>
     <g id="text_4">
      <!-- 15 -->
      <g transform="translate(215.040475 322.182437) scale(0.1 -0.1)">
       <use xlink:href="#DejaVuSans-31"/>
       <use xlink:href="#DejaVuSans-35" x="63.623047"/>
      </g>
     </g>
    </g>
    <g id="xtick_5">
     <g id="line2d_5">
      <g>
       <use xlink:href="#me02e645a52" x="270.593058" y="307.584" style="stroke: #000000; stroke-width: 0.8"/>
      </g>
     </g>
     <g id="text_5">
      <!-- 20 -->
      <g transform="translate(264.230558 322.182437) scale(0.1 -0.1)">
       <defs>
        <path id="DejaVuSans-32" d="M 1228 531 
L 3431 531 
L 3431 0 
L 469 0 
L 469 531 
Q 828 903 1448 1529 
Q 2069 2156 2228 2338 
Q 2531 2678 2651 2914 
Q 2772 3150 2772 3378 
Q 2772 3750 2511 3984 
Q 2250 4219 1831 4219 
Q 1534 4219 1204 4116 
Q 875 4013 500 3803 
L 500 4441 
Q 881 4594 1212 4672 
Q 1544 4750 1819 4750 
Q 2544 4750 2975 4387 
Q 3406 4025 3406 3419 
Q 3406 3131 3298 2873 
Q 3191 2616 2906 2266 
Q 2828 2175 2409 1742 
Q 1991 1309 1228 531 
z
" transform="scale(0.015625)"/>
       </defs>
       <use xlink:href="#DejaVuSans-32"/>
       <use xlink:href="#DejaVuSans-30" x="63.623047"/>
      </g>
     </g>
    </g>
    <g id="xtick_6">
     <g id="line2d_6">
      <g>
       <use xlink:href="#me02e645a52" x="319.78314" y="307.584" style="stroke: #000000; stroke-width: 0.8"/>
      </g>
     </g>
     <g id="text_6">
      <!-- 25 -->
      <g transform="translate(313.42064 322.182437) scale(0.1 -0.1)">
       <use xlink:href="#DejaVuSans-32"/>
       <use xlink:href="#DejaVuSans-35" x="63.623047"/>
      </g>
     </g>
    </g>
    <g id="xtick_7">
     <g id="line2d_7">
      <g>
       <use xlink:href="#me02e645a52" x="368.973223" y="307.584" style="stroke: #000000; stroke-width: 0.8"/>
      </g>
     </g>
     <g id="text_7">
      <!-- 30 -->
      <g transform="translate(362.610723 322.182437) scale(0.1 -0.1)">
       <defs>
        <path id="DejaVuSans-33" d="M 2597 2516 
Q 3050 2419 3304 2112 
Q 3559 1806 3559 1356 
Q 3559 666 3084 287 
Q 2609 -91 1734 -91 
Q 1441 -91 1130 -33 
Q 819 25 488 141 
L 488 750 
Q 750 597 1062 519 
Q 1375 441 1716 441 
Q 2309 441 2620 675 
Q 2931 909 2931 1356 
Q 2931 1769 2642 2001 
Q 2353 2234 1838 2234 
L 1294 2234 
L 1294 2753 
L 1863 2753 
Q 2328 2753 2575 2939 
Q 2822 3125 2822 3475 
Q 2822 3834 2567 4026 
Q 2313 4219 1838 4219 
Q 1578 4219 1281 4162 
Q 984 4106 628 3988 
L 628 4550 
Q 988 4650 1302 4700 
Q 1616 4750 1894 4750 
Q 2613 4750 3031 4423 
Q 3450 4097 3450 3541 
Q 3450 3153 3228 2886 
Q 3006 2619 2597 2516 
z
" transform="scale(0.015625)"/>
       </defs>
       <use xlink:href="#DejaVuSans-33"/>
       <use xlink:href="#DejaVuSans-30" x="63.623047"/>
      </g>
     </g>
    </g>
    <g id="text_8">
     <!-- Generations -->
     <g transform="translate(205.662344 335.860562) scale(0.1 -0.1)">
      <defs>
       <path id="DejaVuSans-47" d="M 3809 666 
L 3809 1919 
L 2778 1919 
L 2778 2438 
L 4434 2438 
L 4434 434 
Q 4069 175 3628 42 
Q 3188 -91 2688 -91 
Q 1594 -91 976 548 
Q 359 1188 359 2328 
Q 359 3472 976 4111 
Q 1594 4750 2688 4750 
Q 3144 4750 3555 4637 
Q 3966 4525 4313 4306 
L 4313 3634 
Q 3963 3931 3569 4081 
Q 3175 4231 2741 4231 
Q 1884 4231 1454 3753 
Q 1025 3275 1025 2328 
Q 1025 1384 1454 906 
Q 1884 428 2741 428 
Q 3075 428 3337 486 
Q 3600 544 3809 666 
z
" transform="scale(0.015625)"/>
       <path id="DejaVuSans-65" d="M 3597 1894 
L 3597 1613 
L 953 1613 
Q 991 1019 1311 708 
Q 1631 397 2203 397 
Q 2534 397 2845 478 
Q 3156 559 3463 722 
L 3463 178 
Q 3153 47 2828 -22 
Q 2503 -91 2169 -91 
Q 1331 -91 842 396 
Q 353 884 353 1716 
Q 353 2575 817 3079 
Q 1281 3584 2069 3584 
Q 2775 3584 3186 3129 
Q 3597 2675 3597 1894 
z
M 3022 2063 
Q 3016 2534 2758 2815 
Q 2500 3097 2075 3097 
Q 1594 3097 1305 2825 
Q 1016 2553 972 2059 
L 3022 2063 
z
" transform="scale(0.015625)"/>
       <path id="DejaVuSans-6e" d="M 3513 2113 
L 3513 0 
L 2938 0 
L 2938 2094 
Q 2938 2591 2744 2837 
Q 2550 3084 2163 3084 
Q 1697 3084 1428 2787 
Q 1159 2491 1159 1978 
L 1159 0 
L 581 0 
L 581 3500 
L 1159 3500 
L 1159 2956 
Q 1366 3272 1645 3428 
Q 1925 3584 2291 3584 
Q 2894 3584 3203 3211 
Q 3513 2838 3513 2113 
z
" transform="scale(0.015625)"/>
       <path id="DejaVuSans-72" d="M 2631 2963 
Q 2534 3019 2420 3045 
Q 2306 3072 2169 3072 
Q 1681 3072 1420 2755 
Q 1159 2438 1159 1844 
L 1159 0 
L 581 0 
L 581 3500 
L 1159 3500 
L 1159 2956 
Q 1341 3275 1631 3429 
Q 1922 3584 2338 3584 
Q 2397 3584 2469 3576 
Q 2541 3569 2628 3553 
L 2631 2963 
z
" transform="scale(0.015625)"/>
       <path id="DejaVuSans-61" d="M 2194 1759 
Q 1497 1759 1228 1600 
Q 959 1441 959 1056 
Q 959 750 1161 570 
Q 1363 391 1709 391 
Q 2188 391 2477 730 
Q 2766 1069 2766 1631 
L 2766 1759 
L 2194 1759 
z
M 3341 1997 
L 3341 0 
L 2766 0 
L 2766 531 
Q 2569 213 2275 61 
Q 1981 -91 1556 -91 
Q 1019 -91 701 211 
Q 384 513 384 1019 
Q 384 1609 779 1909 
Q 1175 2209 1959 2209 
L 2766 2209 
L 2766 2266 
Q 2766 2663 2505 2880 
Q 2244 3097 1772 3097 
Q 1472 3097 1187 3025 
Q 903 2953 641 2809 
L 641 3341 
Q 956 3463 1253 3523 
Q 1550 3584 1831 3584 
Q 2591 3584 2966 3190 
Q 3341 2797 3341 1997 
z
" transform="scale(0.015625)"/>
       <path id="DejaVuSans-74" d="M 1172 4494 
L 1172 3500 
L 2356 3500 
L 2356 3053 
L 1172 3053 
L 1172 1153 
Q 1172 725 1289 603 
Q 1406 481 1766 481 
L 2356 481 
L 2356 0 
L 1766 0 
Q 1100 0 847 248 
Q 594 497 594 1153 
L 594 3053 
L 172 3053 
L 172 3500 
L 594 3500 
L 594 4494 
L 1172 4494 
z
" transform="scale(0.015625)"/>
       <path id="DejaVuSans-69" d="M 603 3500 
L 1178 3500 
L 1178 0 
L 603 0 
L 603 3500 
z
M 603 4863 
L 1178 4863 
L 1178 4134 
L 603 4134 
L 603 4863 
z
" transform="scale(0.015625)"/>
       <path id="DejaVuSans-6f" d="M 1959 3097 
Q 1497 3097 1228 2736 
Q 959 2375 959 1747 
Q 959 1119 1226 758 
Q 1494 397 1959 397 
Q 2419 397 2687 759 
Q 2956 1122 2956 1747 
Q 2956 2369 2687 2733 
Q 2419 3097 1959 3097 
z
M 1959 3584 
Q 2709 3584 3137 3096 
Q 3566 2609 3566 1747 
Q 3566 888 3137 398 
Q 2709 -91 1959 -91 
Q 1206 -91 779 398 
Q 353 888 353 1747 
Q 353 2609 779 3096 
Q 1206 3584 1959 3584 
z
" transform="scale(0.015625)"/>
       <path id="DejaVuSans-73" d="M 2834 3397 
L 2834 2853 
Q 2591 2978 2328 3040 
Q 2066 3103 1784 3103 
Q 1356 3103 1142 2972 
Q 928 2841 928 2578 
Q 928 2378 1081 2264 
Q 1234 2150 1697 2047 
L 1894 2003 
Q 2506 1872 2764 1633 
Q 3022 1394 3022 966 
Q 3022 478 2636 193 
Q 2250 -91 1575 -91 
Q 1294 -91 989 -36 
Q 684 19 347 128 
L 347 722 
Q 666 556 975 473 
Q 1284 391 1588 391 
Q 1994 391 2212 530 
Q 2431 669 2431 922 
Q 2431 1156 2273 1281 
Q 2116 1406 1581 1522 
L 1381 1569 
Q 847 1681 609 1914 
Q 372 2147 372 2553 
Q 372 3047 722 3315 
Q 1072 3584 1716 3584 
Q 2034 3584 2315 3537 
Q 2597 3491 2834 3397 
z
" transform="scale(0.015625)"/>
      </defs>
      <use xlink:href="#DejaVuSans-47"/>
      <use xlink:href="#DejaVuSans-65" x="77.490234"/>
      <use xlink:href="#DejaVuSans-6e" x="139.013672"/>
      <use xlink:href="#DejaVuSans-65" x="202.392578"/>
      <use xlink:href="#DejaVuSans-72" x="263.916016"/>
      <use xlink:href="#DejaVuSans-61" x="305.029297"/>
      <use xlink:href="#DejaVuSans-74" x="366.308594"/>
      <use xlink:href="#DejaVuSans-69" x="405.517578"/>
      <use xlink:href="#DejaVuSans-6f" x="433.300781"/>
      <use xlink:href="#DejaVuSans-6e" x="494.482422"/>
      <use xlink:href="#DejaVuSans-73" x="557.861328"/>
     </g>
    </g>
   </g>
   <g id="matplotlib.axis_2">
    <g id="ytick_1">
     <g id="line2d_8">
      <defs>
       <path id="mdbb61a9bd6" d="M 0 0 
L -3.5 0 
" style="stroke: #000000; stroke-width: 0.8"/>
      </defs>
      <g>
       <use xlink:href="#mdbb61a9bd6" x="57.6" y="307.584" style="stroke: #000000; stroke-width: 0.8"/>
      </g>
     </g>
     <g id="text_9">
      <!-- 0 -->
      <g transform="translate(44.2375 311.383219) scale(0.1 -0.1)">
       <use xlink:href="#DejaVuSans-30"/>
      </g>
     </g>
    </g>
    <g id="ytick_2">
     <g id="line2d_9">
      <g>
       <use xlink:href="#mdbb61a9bd6" x="57.6" y="267.859862" style="stroke: #000000; stroke-width: 0.8"/>
      </g>
     </g>
     <g id="text_10">
      <!-- 50 -->
      <g transform="translate(37.875 271.659081) scale(0.1 -0.1)">
       <use xlink:href="#DejaVuSans-35"/>
       <use xlink:href="#DejaVuSans-30" x="63.623047"/>
      </g>
     </g>
    </g>
    <g id="ytick_3">
     <g id="line2d_10">
      <g>
       <use xlink:href="#mdbb61a9bd6" x="57.6" y="228.135724" style="stroke: #000000; stroke-width: 0.8"/>
      </g>
     </g>
     <g id="text_11">
      <!-- 100 -->
      <g transform="translate(31.5125 231.934943) scale(0.1 -0.1)">
       <use xlink:href="#DejaVuSans-31"/>
       <use xlink:href="#DejaVuSans-30" x="63.623047"/>
       <use xlink:href="#DejaVuSans-30" x="127.246094"/>
      </g>
     </g>
    </g>
    <g id="ytick_4">
     <g id="line2d_11">
      <g>
       <use xlink:href="#mdbb61a9bd6" x="57.6" y="188.411586" style="stroke: #000000; stroke-width: 0.8"/>
      </g>
     </g>
     <g id="text_12">
      <!-- 150 -->
      <g transform="translate(31.5125 192.210805) scale(0.1 -0.1)">
       <use xlink:href="#DejaVuSans-31"/>
       <use xlink:href="#DejaVuSans-35" x="63.623047"/>
       <use xlink:href="#DejaVuSans-30" x="127.246094"/>
      </g>
     </g>
    </g>
    <g id="ytick_5">
     <g id="line2d_12">
      <g>
       <use xlink:href="#mdbb61a9bd6" x="57.6" y="148.687448" style="stroke: #000000; stroke-width: 0.8"/>
      </g>
     </g>
     <g id="text_13">
      <!-- 200 -->
      <g transform="translate(31.5125 152.486667) scale(0.1 -0.1)">
       <use xlink:href="#DejaVuSans-32"/>
       <use xlink:href="#DejaVuSans-30" x="63.623047"/>
       <use xlink:href="#DejaVuSans-30" x="127.246094"/>
      </g>
     </g>
    </g>
    <g id="ytick_6">
     <g id="line2d_13">
      <g>
       <use xlink:href="#mdbb61a9bd6" x="57.6" y="108.96331" style="stroke: #000000; stroke-width: 0.8"/>
      </g>
     </g>
     <g id="text_14">
      <!-- 250 -->
      <g transform="translate(31.5125 112.762529) scale(0.1 -0.1)">
       <use xlink:href="#DejaVuSans-32"/>
       <use xlink:href="#DejaVuSans-35" x="63.623047"/>
       <use xlink:href="#DejaVuSans-30" x="127.246094"/>
      </g>
     </g>
    </g>
    <g id="ytick_7">
     <g id="line2d_14">
      <g>
       <use xlink:href="#mdbb61a9bd6" x="57.6" y="69.239172" style="stroke: #000000; stroke-width: 0.8"/>
      </g>
     </g>
     <g id="text_15">
      <!-- 300 -->
      <g transform="translate(31.5125 73.038391) scale(0.1 -0.1)">
       <use xlink:href="#DejaVuSans-33"/>
       <use xlink:href="#DejaVuSans-30" x="63.623047"/>
       <use xlink:href="#DejaVuSans-30" x="127.246094"/>
      </g>
     </g>
    </g>
    <g id="text_16">
     <!-- Size per Species -->
     <g transform="translate(25.432812 215.520969) rotate(-90) scale(0.1 -0.1)">
      <defs>
       <path id="DejaVuSans-53" d="M 3425 4513 
L 3425 3897 
Q 3066 4069 2747 4153 
Q 2428 4238 2131 4238 
Q 1616 4238 1336 4038 
Q 1056 3838 1056 3469 
Q 1056 3159 1242 3001 
Q 1428 2844 1947 2747 
L 2328 2669 
Q 3034 2534 3370 2195 
Q 3706 1856 3706 1288 
Q 3706 609 3251 259 
Q 2797 -91 1919 -91 
Q 1588 -91 1214 -16 
Q 841 59 441 206 
L 441 856 
Q 825 641 1194 531 
Q 1563 422 1919 422 
Q 2459 422 2753 634 
Q 3047 847 3047 1241 
Q 3047 1584 2836 1778 
Q 2625 1972 2144 2069 
L 1759 2144 
Q 1053 2284 737 2584 
Q 422 2884 422 3419 
Q 422 4038 858 4394 
Q 1294 4750 2059 4750 
Q 2388 4750 2728 4690 
Q 3069 4631 3425 4513 
z
" transform="scale(0.015625)"/>
       <path id="DejaVuSans-7a" d="M 353 3500 
L 3084 3500 
L 3084 2975 
L 922 459 
L 3084 459 
L 3084 0 
L 275 0 
L 275 525 
L 2438 3041 
L 353 3041 
L 353 3500 
z
" transform="scale(0.015625)"/>
       <path id="DejaVuSans-20" transform="scale(0.015625)"/>
       <path id="DejaVuSans-70" d="M 1159 525 
L 1159 -1331 
L 581 -1331 
L 581 3500 
L 1159 3500 
L 1159 2969 
Q 1341 3281 1617 3432 
Q 1894 3584 2278 3584 
Q 2916 3584 3314 3078 
Q 3713 2572 3713 1747 
Q 3713 922 3314 415 
Q 2916 -91 2278 -91 
Q 1894 -91 1617 61 
Q 1341 213 1159 525 
z
M 3116 1747 
Q 3116 2381 2855 2742 
Q 2594 3103 2138 3103 
Q 1681 3103 1420 2742 
Q 1159 2381 1159 1747 
Q 1159 1113 1420 752 
Q 1681 391 2138 391 
Q 2594 391 2855 752 
Q 3116 1113 3116 1747 
z
" transform="scale(0.015625)"/>
       <path id="DejaVuSans-63" d="M 3122 3366 
L 3122 2828 
Q 2878 2963 2633 3030 
Q 2388 3097 2138 3097 
Q 1578 3097 1268 2742 
Q 959 2388 959 1747 
Q 959 1106 1268 751 
Q 1578 397 2138 397 
Q 2388 397 2633 464 
Q 2878 531 3122 666 
L 3122 134 
Q 2881 22 2623 -34 
Q 2366 -91 2075 -91 
Q 1284 -91 818 406 
Q 353 903 353 1747 
Q 353 2603 823 3093 
Q 1294 3584 2113 3584 
Q 2378 3584 2631 3529 
Q 2884 3475 3122 3366 
z
" transform="scale(0.015625)"/>
      </defs>
      <use xlink:href="#DejaVuSans-53"/>
      <use xlink:href="#DejaVuSans-69" x="63.476562"/>
      <use xlink:href="#DejaVuSans-7a" x="91.259766"/>
      <use xlink:href="#DejaVuSans-65" x="143.75"/>
      <use xlink:href="#DejaVuSans-20" x="205.273438"/>
      <use xlink:href="#DejaVuSans-70" x="237.060547"/>
      <use xlink:href="#DejaVuSans-65" x="300.537109"/>
      <use xlink:href="#DejaVuSans-72" x="362.060547"/>
      <use xlink:href="#DejaVuSans-20" x="403.173828"/>
      <use xlink:href="#DejaVuSans-53" x="434.960938"/>
      <use xlink:href="#DejaVuSans-70" x="498.4375"/>
      <use xlink:href="#DejaVuSans-65" x="561.914062"/>
      <use xlink:href="#DejaVuSans-63" x="623.4375"/>
      <use xlink:href="#DejaVuSans-69" x="678.417969"/>
      <use xlink:href="#DejaVuSans-65" x="706.201172"/>
      <use xlink:href="#DejaVuSans-73" x="767.724609"/>
     </g>
    </g>
   </g>
   <g id="patch_3">
    <path d="M 57.6 307.584 
L 57.6 41.472 
" style="fill: none; stroke: #000000; stroke-width: 0.8; stroke-linejoin: miter; stroke-linecap: square"/>
   </g>
   <g id="patch_4">
    <path d="M 414.72 307.584 
L 414.72 41.472 
" style="fill: none; stroke: #000000; stroke-width: 0.8; stroke-linejoin: miter; stroke-linecap: square"/>
   </g>
   <g id="patch_5">
    <path d="M 57.6 307.584 
L 414.72 307.584 
" style="fill: none; stroke: #000000; stroke-width: 0.8; stroke-linejoin: miter; stroke-linecap: square"/>
   </g>
   <g id="patch_6">
    <path d="M 57.6 41.472 
L 414.72 41.472 
" style="fill: none; stroke: #000000; stroke-width: 0.8; stroke-linejoin: miter; stroke-linecap: square"/>
   </g>
   <g id="text_17">
    <!-- Speciation -->
    <g transform="translate(204.714375 35.472) scale(0.12 -0.12)">
     <use xlink:href="#DejaVuSans-53"/>
     <use xlink:href="#DejaVuSans-70" x="63.476562"/>
     <use xlink:href="#DejaVuSans-65" x="126.953125"/>
     <use xlink:href="#DejaVuSans-63" x="188.476562"/>
     <use xlink:href="#DejaVuSans-69" x="243.457031"/>
     <use xlink:href="#DejaVuSans-61" x="271.240234"/>
     <use xlink:href="#DejaVuSans-74" x="332.519531"/>
     <use xlink:href="#DejaVuSans-69" x="371.728516"/>
     <use xlink:href="#DejaVuSans-6f" x="399.511719"/>
     <use xlink:href="#DejaVuSans-6e" x="460.693359"/>
    </g>
   </g>
  </g>
 </g>
 <defs>
  <clipPath id="p5f555bcf22">
   <rect x="57.6" y="41.472" width="357.12" height="266.112"/>
  </clipPath>
 </defs>
</svg>
