<?xml version="1.0" encoding="utf-8" standalone="no"?>
<!DOCTYPE svg PUBLIC "-//W3C//DTD SVG 1.1//EN"
  "http://www.w3.org/Graphics/SVG/1.1/DTD/svg11.dtd">
<svg xmlns:xlink="http://www.w3.org/1999/xlink" width="460.8pt" height="345.6pt" viewBox="0 0 460.8 345.6" xmlns="http://www.w3.org/2000/svg" version="1.1">
 <metadata>
  <rdf:RDF xmlns:dc="http://purl.org/dc/elements/1.1/" xmlns:cc="http://creativecommons.org/ns#" xmlns:rdf="http://www.w3.org/1999/02/22-rdf-syntax-ns#">
   <cc:Work>
    <dc:type rdf:resource="http://purl.org/dc/dcmitype/StillImage"/>
    <dc:date>2024-08-16T08:43:34.694014</dc:date>
    <dc:format>image/svg+xml</dc:format>
    <dc:creator>
     <cc:Agent>
      <dc:title>Matplotlib v3.8.4, https://matplotlib.org/</dc:title>
     </cc:Agent>
    </dc:creator>
   </cc:Work>
  </rdf:RDF>
 </metadata>
 <defs>
  <style type="text/css">*{stroke-linejoin: round; stroke-linecap: butt}</style>
 </defs>
 <g id="figure_1">
  <g id="patch_1">
   <path d="M 0 345.6 
L 460.8 345.6 
L 460.8 0 
L 0 0 
z
" style="fill: #ffffff"/>
  </g>
  <g id="axes_1">
   <g id="patch_2">
    <path d="M 57.6 307.584 
L 414.72 307.584 
L 414.72 41.472 
L 57.6 41.472 
z
" style="fill: #ffffff"/>
   </g>
   <g id="PolyCollection_1">
    <path d="M 73.832727 270.591205 
L 73.832727 307.584 
L 83.670744 307.584 
L 93.50876 307.584 
L 103.346777 307.584 
L 113.184793 307.584 
L 123.02281 307.584 
L 132.860826 307.584 
L 142.698843 307.584 
L 152.53686 307.584 
L 162.374876 307.584 
L 172.212893 307.584 
L 182.050909 307.584 
L 191.888926 307.584 
L 201.726942 307.584 
L 211.564959 307.584 
L 221.402975 307.584 
L 231.240992 307.584 
L 241.079008 307.584 
L 250.917025 307.584 
L 260.755041 307.584 
L 270.593058 307.584 
L 280.431074 307.584 
L 290.269091 307.584 
L 300.107107 307.584 
L 309.945124 307.584 
L 319.78314 307.584 
L 329.621157 307.584 
L 339.459174 307.584 
L 349.29719 307.584 
L 359.135207 307.584 
L 368.973223 307.584 
L 378.81124 307.584 
L 388.649256 307.584 
L 398.487273 307.584 
L 398.487273 301.287354 
L 398.487273 301.287354 
L 388.649256 298.926112 
L 378.81124 303.648596 
L 368.973223 298.139031 
L 359.135207 298.926112 
L 349.29719 299.713193 
L 339.459174 302.074435 
L 329.621157 296.56487 
L 319.78314 298.139031 
L 309.945124 302.861516 
L 300.107107 298.926112 
L 290.269091 303.648596 
L 280.431074 297.35195 
L 270.593058 303.648596 
L 260.755041 297.35195 
L 250.917025 300.500273 
L 241.079008 304.435677 
L 231.240992 300.500273 
L 221.402975 298.926112 
L 211.564959 298.139031 
L 201.726942 299.713193 
L 191.888926 302.861516 
L 182.050909 301.287354 
L 172.212893 299.713193 
L 162.374876 296.56487 
L 152.53686 296.56487 
L 142.698843 298.926112 
L 132.860826 298.926112 
L 123.02281 303.648596 
L 113.184793 293.416547 
L 103.346777 292.629466 
L 93.50876 290.268224 
L 83.670744 288.694062 
L 73.832727 270.591205 
z
" clip-path="url(#p38e0f0aa6c)" style="fill: #1f77b4"/>
   </g>
   <g id="PolyCollection_2">
    <path d="M 73.832727 249.340025 
L 73.832727 270.591205 
L 83.670744 288.694062 
L 93.50876 290.268224 
L 103.346777 292.629466 
L 113.184793 293.416547 
L 123.02281 303.648596 
L 132.860826 298.926112 
L 142.698843 298.926112 
L 152.53686 296.56487 
L 162.374876 296.56487 
L 172.212893 299.713193 
L 182.050909 301.287354 
L 191.888926 302.861516 
L 201.726942 299.713193 
L 211.564959 298.139031 
L 221.402975 298.926112 
L 231.240992 300.500273 
L 241.079008 304.435677 
L 250.917025 300.500273 
L 260.755041 297.35195 
L 270.593058 303.648596 
L 280.431074 297.35195 
L 290.269091 303.648596 
L 300.107107 298.926112 
L 309.945124 302.861516 
L 319.78314 298.139031 
L 329.621157 296.56487 
L 339.459174 302.074435 
L 349.29719 299.713193 
L 359.135207 298.926112 
L 368.973223 298.139031 
L 378.81124 303.648596 
L 388.649256 298.926112 
L 398.487273 301.287354 
L 398.487273 301.287354 
L 398.487273 301.287354 
L 388.649256 298.926112 
L 378.81124 303.648596 
L 368.973223 298.139031 
L 359.135207 294.203627 
L 349.29719 282.397416 
L 339.459174 292.629466 
L 329.621157 273.739528 
L 319.78314 283.184497 
L 309.945124 291.055304 
L 300.107107 287.906981 
L 290.269091 299.713193 
L 280.431074 284.758658 
L 270.593058 294.990708 
L 260.755041 287.119901 
L 250.917025 292.629466 
L 241.079008 281.610335 
L 231.240992 288.694062 
L 221.402975 283.971578 
L 211.564959 286.33282 
L 201.726942 291.055304 
L 191.888926 292.629466 
L 182.050909 287.119901 
L 172.212893 292.629466 
L 162.374876 238.320894 
L 152.53686 274.526609 
L 142.698843 292.629466 
L 132.860826 294.990708 
L 123.02281 281.610335 
L 113.184793 282.397416 
L 103.346777 262.720398 
L 93.50876 249.340025 
L 83.670744 273.739528 
L 73.832727 249.340025 
z
" clip-path="url(#p38e0f0aa6c)" style="fill: #ff7f0e"/>
   </g>
   <g id="PolyCollection_3">
    <path d="M 73.832727 242.256298 
L 73.832727 249.340025 
L 83.670744 273.739528 
L 93.50876 249.340025 
L 103.346777 262.720398 
L 113.184793 282.397416 
L 123.02281 281.610335 
L 132.860826 294.990708 
L 142.698843 292.629466 
L 152.53686 274.526609 
L 162.374876 238.320894 
L 172.212893 292.629466 
L 182.050909 287.119901 
L 191.888926 292.629466 
L 201.726942 291.055304 
L 211.564959 286.33282 
L 221.402975 283.971578 
L 231.240992 288.694062 
L 241.079008 281.610335 
L 250.917025 292.629466 
L 260.755041 287.119901 
L 270.593058 294.990708 
L 280.431074 284.758658 
L 290.269091 299.713193 
L 300.107107 287.906981 
L 309.945124 291.055304 
L 319.78314 283.184497 
L 329.621157 273.739528 
L 339.459174 292.629466 
L 349.29719 282.397416 
L 359.135207 294.203627 
L 368.973223 298.139031 
L 378.81124 303.648596 
L 388.649256 298.926112 
L 398.487273 301.287354 
L 398.487273 293.416547 
L 398.487273 293.416547 
L 388.649256 282.397416 
L 378.81124 301.287354 
L 368.973223 283.184497 
L 359.135207 285.545739 
L 349.29719 273.739528 
L 339.459174 285.545739 
L 329.621157 264.294559 
L 319.78314 266.655801 
L 309.945124 280.036174 
L 300.107107 278.462012 
L 290.269091 290.268224 
L 280.431074 276.10077 
L 270.593058 287.119901 
L 260.755041 279.249093 
L 250.917025 286.33282 
L 241.079008 275.313689 
L 231.240992 280.823255 
L 221.402975 276.10077 
L 211.564959 280.823255 
L 201.726942 281.610335 
L 191.888926 280.823255 
L 182.050909 278.462012 
L 172.212893 283.971578 
L 162.374876 230.450087 
L 152.53686 265.86872 
L 142.698843 282.397416 
L 132.860826 287.906981 
L 123.02281 272.952447 
L 113.184793 274.526609 
L 103.346777 252.488348 
L 93.50876 243.83046 
L 83.670744 267.442882 
L 73.832727 242.256298 
z
" clip-path="url(#p38e0f0aa6c)" style="fill: #2ca02c"/>
   </g>
   <g id="PolyCollection_4">
    <path d="M 73.832727 166.696547 
L 73.832727 242.256298 
L 83.670744 267.442882 
L 93.50876 243.83046 
L 103.346777 252.488348 
L 113.184793 274.526609 
L 123.02281 272.952447 
L 132.860826 287.906981 
L 142.698843 282.397416 
L 152.53686 265.86872 
L 162.374876 230.450087 
L 172.212893 283.971578 
L 182.050909 278.462012 
L 191.888926 280.823255 
L 201.726942 281.610335 
L 211.564959 280.823255 
L 221.402975 276.10077 
L 231.240992 280.823255 
L 241.079008 275.313689 
L 250.917025 286.33282 
L 260.755041 279.249093 
L 270.593058 287.119901 
L 280.431074 276.10077 
L 290.269091 290.268224 
L 300.107107 278.462012 
L 309.945124 280.036174 
L 319.78314 266.655801 
L 329.621157 264.294559 
L 339.459174 285.545739 
L 349.29719 273.739528 
L 359.135207 285.545739 
L 368.973223 283.184497 
L 378.81124 301.287354 
L 388.649256 282.397416 
L 398.487273 293.416547 
L 398.487273 281.610335 
L 398.487273 281.610335 
L 388.649256 276.10077 
L 378.81124 298.926112 
L 368.973223 263.507478 
L 359.135207 278.462012 
L 349.29719 265.86872 
L 339.459174 282.397416 
L 329.621157 257.210832 
L 319.78314 257.210832 
L 309.945124 277.674932 
L 300.107107 275.313689 
L 290.269091 261.146236 
L 280.431074 269.804124 
L 270.593058 246.978783 
L 260.755041 274.526609 
L 250.917025 276.10077 
L 241.079008 268.229963 
L 231.240992 267.442882 
L 221.402975 266.655801 
L 211.564959 275.313689 
L 201.726942 270.591205 
L 191.888926 272.952447 
L 182.050909 269.017043 
L 172.212893 281.610335 
L 162.374876 224.940522 
L 152.53686 254.062509 
L 142.698843 272.165366 
L 132.860826 286.33282 
L 123.02281 192.670211 
L 113.184793 250.127106 
L 103.346777 232.024248 
L 93.50876 224.153441 
L 83.670744 219.430957 
L 73.832727 166.696547 
z
" clip-path="url(#p38e0f0aa6c)" style="fill: #d62728"/>
   </g>
   <g id="PolyCollection_5">
    <path d="M 73.832727 162.761143 
L 73.832727 166.696547 
L 83.670744 219.430957 
L 93.50876 224.153441 
L 103.346777 232.024248 
L 113.184793 250.127106 
L 123.02281 192.670211 
L 132.860826 286.33282 
L 142.698843 272.165366 
L 152.53686 254.062509 
L 162.374876 224.940522 
L 172.212893 281.610335 
L 182.050909 269.017043 
L 191.888926 272.952447 
L 201.726942 270.591205 
L 211.564959 275.313689 
L 221.402975 266.655801 
L 231.240992 267.442882 
L 241.079008 268.229963 
L 250.917025 276.10077 
L 260.755041 274.526609 
L 270.593058 246.978783 
L 280.431074 269.804124 
L 290.269091 261.146236 
L 300.107107 275.313689 
L 309.945124 277.674932 
L 319.78314 257.210832 
L 329.621157 257.210832 
L 339.459174 282.397416 
L 349.29719 265.86872 
L 359.135207 278.462012 
L 368.973223 263.507478 
L 378.81124 298.926112 
L 388.649256 276.10077 
L 398.487273 281.610335 
L 398.487273 276.10077 
L 398.487273 276.10077 
L 388.649256 265.86872 
L 378.81124 288.694062 
L 368.973223 255.636671 
L 359.135207 251.701267 
L 349.29719 251.701267 
L 339.459174 264.294559 
L 329.621157 248.552944 
L 319.78314 253.275429 
L 309.945124 245.404621 
L 300.107107 268.229963 
L 290.269091 238.320894 
L 280.431074 260.359155 
L 270.593058 235.959652 
L 260.755041 266.655801 
L 250.917025 271.378286 
L 241.079008 265.08164 
L 231.240992 257.997913 
L 221.402975 257.997913 
L 211.564959 265.86872 
L 201.726942 262.720398 
L 191.888926 263.507478 
L 182.050909 262.720398 
L 172.212893 274.526609 
L 162.374876 221.005118 
L 152.53686 244.61754 
L 142.698843 263.507478 
L 132.860826 280.823255 
L 123.02281 184.012323 
L 113.184793 243.83046 
L 103.346777 223.36636 
L 93.50876 219.430957 
L 83.670744 211.560149 
L 73.832727 162.761143 
z
" clip-path="url(#p38e0f0aa6c)" style="fill: #9467bd"/>
   </g>
   <g id="PolyCollection_6">
    <path d="M 73.832727 149.38077 
L 73.832727 162.761143 
L 83.670744 211.560149 
L 93.50876 219.430957 
L 103.346777 223.36636 
L 113.184793 243.83046 
L 123.02281 184.012323 
L 132.860826 280.823255 
L 142.698843 263.507478 
L 152.53686 244.61754 
L 162.374876 221.005118 
L 172.212893 274.526609 
L 182.050909 262.720398 
L 191.888926 263.507478 
L 201.726942 262.720398 
L 211.564959 265.86872 
L 221.402975 257.997913 
L 231.240992 257.997913 
L 241.079008 265.08164 
L 250.917025 271.378286 
L 260.755041 266.655801 
L 270.593058 235.959652 
L 280.431074 260.359155 
L 290.269091 238.320894 
L 300.107107 268.229963 
L 309.945124 245.404621 
L 319.78314 253.275429 
L 329.621157 248.552944 
L 339.459174 264.294559 
L 349.29719 251.701267 
L 359.135207 251.701267 
L 368.973223 255.636671 
L 378.81124 288.694062 
L 388.649256 265.86872 
L 398.487273 276.10077 
L 398.487273 262.720398 
L 398.487273 262.720398 
L 388.649256 256.423752 
L 378.81124 285.545739 
L 368.973223 248.552944 
L 359.135207 239.895056 
L 349.29719 236.746733 
L 339.459174 263.507478 
L 329.621157 239.895056 
L 319.78314 238.320894 
L 309.945124 240.682137 
L 300.107107 257.210832 
L 290.269091 229.663006 
L 280.431074 251.701267 
L 270.593058 232.811329 
L 260.755041 259.572075 
L 250.917025 262.720398 
L 241.079008 258.784994 
L 231.240992 251.701267 
L 221.402975 225.727602 
L 211.564959 262.720398 
L 201.726942 213.134311 
L 191.888926 217.856795 
L 182.050909 254.84959 
L 172.212893 261.933317 
L 162.374876 210.773068 
L 152.53686 232.811329 
L 142.698843 254.84959 
L 132.860826 275.313689 
L 123.02281 180.076919 
L 113.184793 239.107975 
L 103.346777 217.856795 
L 93.50876 210.773068 
L 83.670744 199.753938 
L 73.832727 149.38077 
z
" clip-path="url(#p38e0f0aa6c)" style="fill: #8c564b"/>
   </g>
   <g id="PolyCollection_7">
    <path d="M 73.832727 139.935801 
L 73.832727 149.38077 
L 83.670744 199.753938 
L 93.50876 210.773068 
L 103.346777 217.856795 
L 113.184793 239.107975 
L 123.02281 180.076919 
L 132.860826 275.313689 
L 142.698843 254.84959 
L 152.53686 232.811329 
L 162.374876 210.773068 
L 172.212893 261.933317 
L 182.050909 254.84959 
L 191.888926 217.856795 
L 201.726942 213.134311 
L 211.564959 262.720398 
L 221.402975 225.727602 
L 231.240992 251.701267 
L 241.079008 258.784994 
L 250.917025 262.720398 
L 260.755041 259.572075 
L 270.593058 232.811329 
L 280.431074 251.701267 
L 290.269091 229.663006 
L 300.107107 257.210832 
L 309.945124 240.682137 
L 319.78314 238.320894 
L 329.621157 239.895056 
L 339.459174 263.507478 
L 349.29719 236.746733 
L 359.135207 239.895056 
L 368.973223 248.552944 
L 378.81124 285.545739 
L 388.649256 256.423752 
L 398.487273 262.720398 
L 398.487273 262.720398 
L 398.487273 262.720398 
L 388.649256 256.423752 
L 378.81124 285.545739 
L 368.973223 248.552944 
L 359.135207 239.895056 
L 349.29719 236.746733 
L 339.459174 263.507478 
L 329.621157 239.895056 
L 319.78314 238.320894 
L 309.945124 240.682137 
L 300.107107 257.210832 
L 290.269091 229.663006 
L 280.431074 251.701267 
L 270.593058 228.875925 
L 260.755041 254.062509 
L 250.917025 256.423752 
L 241.079008 253.275429 
L 231.240992 247.765863 
L 221.402975 209.198907 
L 211.564959 256.423752 
L 201.726942 209.198907 
L 191.888926 209.198907 
L 182.050909 243.83046 
L 172.212893 243.83046 
L 162.374876 206.837665 
L 152.53686 219.430957 
L 142.698843 246.191702 
L 132.860826 250.127106 
L 123.02281 176.141516 
L 113.184793 232.024248 
L 103.346777 211.560149 
L 93.50876 197.392696 
L 83.670744 187.160646 
L 73.832727 139.935801 
z
" clip-path="url(#p38e0f0aa6c)" style="fill: #e377c2"/>
   </g>
   <g id="PolyCollection_8">
    <path d="M 73.832727 104.517168 
L 73.832727 139.935801 
L 83.670744 187.160646 
L 93.50876 197.392696 
L 103.346777 211.560149 
L 113.184793 232.024248 
L 123.02281 176.141516 
L 132.860826 250.127106 
L 142.698843 246.191702 
L 152.53686 219.430957 
L 162.374876 206.837665 
L 172.212893 243.83046 
L 182.050909 243.83046 
L 191.888926 209.198907 
L 201.726942 209.198907 
L 211.564959 256.423752 
L 221.402975 209.198907 
L 231.240992 247.765863 
L 241.079008 253.275429 
L 250.917025 256.423752 
L 260.755041 254.062509 
L 270.593058 228.875925 
L 280.431074 251.701267 
L 290.269091 229.663006 
L 300.107107 257.210832 
L 309.945124 240.682137 
L 319.78314 238.320894 
L 329.621157 239.895056 
L 339.459174 263.507478 
L 349.29719 236.746733 
L 359.135207 239.895056 
L 368.973223 248.552944 
L 378.81124 285.545739 
L 388.649256 256.423752 
L 398.487273 262.720398 
L 398.487273 252.488348 
L 398.487273 252.488348 
L 388.649256 246.191702 
L 378.81124 272.952447 
L 368.973223 238.320894 
L 359.135207 231.237168 
L 349.29719 229.663006 
L 339.459174 261.146236 
L 329.621157 234.385491 
L 319.78314 206.837665 
L 309.945124 236.746733 
L 300.107107 244.61754 
L 290.269091 220.218037 
L 280.431074 245.404621 
L 270.593058 205.263503 
L 260.755041 237.533814 
L 250.917025 211.560149 
L 241.079008 244.61754 
L 231.240992 221.792199 
L 221.402975 202.11518 
L 211.564959 254.062509 
L 201.726942 183.225242 
L 191.888926 205.263503 
L 182.050909 212.34723 
L 172.212893 198.966857 
L 162.374876 201.328099 
L 152.53686 210.773068 
L 142.698843 208.411826 
L 132.860826 191.88313 
L 123.02281 166.696547 
L 113.184793 228.088845 
L 103.346777 198.966857 
L 93.50876 181.651081 
L 83.670744 166.696547 
L 73.832727 104.517168 
z
" clip-path="url(#p38e0f0aa6c)" style="fill: #7f7f7f"/>
   </g>
   <g id="PolyCollection_9">
    <path d="M 73.832727 96.64636 
L 73.832727 104.517168 
L 83.670744 166.696547 
L 93.50876 181.651081 
L 103.346777 198.966857 
L 113.184793 228.088845 
L 123.02281 166.696547 
L 132.860826 191.88313 
L 142.698843 208.411826 
L 152.53686 210.773068 
L 162.374876 201.328099 
L 172.212893 198.966857 
L 182.050909 212.34723 
L 191.888926 205.263503 
L 201.726942 183.225242 
L 211.564959 254.062509 
L 221.402975 202.11518 
L 231.240992 221.792199 
L 241.079008 244.61754 
L 250.917025 211.560149 
L 260.755041 237.533814 
L 270.593058 205.263503 
L 280.431074 245.404621 
L 290.269091 220.218037 
L 300.107107 244.61754 
L 309.945124 236.746733 
L 319.78314 206.837665 
L 329.621157 234.385491 
L 339.459174 261.146236 
L 349.29719 229.663006 
L 359.135207 231.237168 
L 368.973223 238.320894 
L 378.81124 272.952447 
L 388.649256 246.191702 
L 398.487273 252.488348 
L 398.487273 248.552944 
L 398.487273 248.552944 
L 388.649256 242.256298 
L 378.81124 231.237168 
L 368.973223 230.450087 
L 359.135207 225.727602 
L 349.29719 187.947727 
L 339.459174 258.784994 
L 329.621157 222.57928 
L 319.78314 200.541019 
L 309.945124 181.651081 
L 300.107107 232.811329 
L 290.269091 206.837665 
L 280.431074 232.024248 
L 270.593058 184.012323 
L 260.755041 227.301764 
L 250.917025 190.308969 
L 241.079008 235.959652 
L 231.240992 214.708472 
L 221.402975 200.541019 
L 211.564959 192.670211 
L 201.726942 180.864 
L 191.888926 200.541019 
L 182.050909 206.837665 
L 172.212893 195.031453 
L 162.374876 195.031453 
L 152.53686 209.985988 
L 142.698843 195.031453 
L 132.860826 176.141516 
L 123.02281 144.658286 
L 113.184793 220.218037 
L 103.346777 191.09605 
L 93.50876 172.206112 
L 83.670744 159.61282 
L 73.832727 96.64636 
z
" clip-path="url(#p38e0f0aa6c)" style="fill: #bcbd22"/>
   </g>
   <g id="PolyCollection_10">
    <path d="M 73.832727 95.072199 
L 73.832727 96.64636 
L 83.670744 159.61282 
L 93.50876 172.206112 
L 103.346777 191.09605 
L 113.184793 220.218037 
L 123.02281 144.658286 
L 132.860826 176.141516 
L 142.698843 195.031453 
L 152.53686 209.985988 
L 162.374876 195.031453 
L 172.212893 195.031453 
L 182.050909 206.837665 
L 191.888926 200.541019 
L 201.726942 180.864 
L 211.564959 192.670211 
L 221.402975 200.541019 
L 231.240992 214.708472 
L 241.079008 235.959652 
L 250.917025 190.308969 
L 260.755041 227.301764 
L 270.593058 184.012323 
L 280.431074 232.024248 
L 290.269091 206.837665 
L 300.107107 232.811329 
L 309.945124 181.651081 
L 319.78314 200.541019 
L 329.621157 222.57928 
L 339.459174 258.784994 
L 349.29719 187.947727 
L 359.135207 225.727602 
L 368.973223 230.450087 
L 378.81124 231.237168 
L 388.649256 242.256298 
L 398.487273 248.552944 
L 398.487273 248.552944 
L 398.487273 248.552944 
L 388.649256 233.59841 
L 378.81124 224.153441 
L 368.973223 221.792199 
L 359.135207 216.282634 
L 349.29719 172.993193 
L 339.459174 250.914186 
L 329.621157 213.921391 
L 319.78314 190.308969 
L 309.945124 172.993193 
L 300.107107 221.792199 
L 290.269091 202.11518 
L 280.431074 223.36636 
L 270.593058 180.076919 
L 260.755041 221.005118 
L 250.917025 179.289839 
L 241.079008 223.36636 
L 231.240992 206.837665 
L 221.402975 191.09605 
L 211.564959 188.734807 
L 201.726942 175.354435 
L 191.888926 192.670211 
L 182.050909 200.541019 
L 172.212893 189.521888 
L 162.374876 187.160646 
L 152.53686 203.689342 
L 142.698843 189.521888 
L 132.860826 169.057789 
L 123.02281 137.574559 
L 113.184793 208.411826 
L 103.346777 176.928596 
L 93.50876 165.122385 
L 83.670744 153.316174 
L 73.832727 95.072199 
z
" clip-path="url(#p38e0f0aa6c)" style="fill: #17becf"/>
   </g>
   <g id="PolyCollection_11">
    <path d="M 73.832727 77.756422 
L 73.832727 95.072199 
L 83.670744 153.316174 
L 93.50876 165.122385 
L 103.346777 176.928596 
L 113.184793 208.411826 
L 123.02281 137.574559 
L 132.860826 169.057789 
L 142.698843 189.521888 
L 152.53686 203.689342 
L 162.374876 187.160646 
L 172.212893 189.521888 
L 182.050909 200.541019 
L 191.888926 192.670211 
L 201.726942 175.354435 
L 211.564959 188.734807 
L 221.402975 191.09605 
L 231.240992 206.837665 
L 241.079008 223.36636 
L 250.917025 179.289839 
L 260.755041 221.005118 
L 270.593058 180.076919 
L 280.431074 223.36636 
L 290.269091 202.11518 
L 300.107107 221.792199 
L 309.945124 172.993193 
L 319.78314 190.308969 
L 329.621157 213.921391 
L 339.459174 250.914186 
L 349.29719 172.993193 
L 359.135207 216.282634 
L 368.973223 221.792199 
L 378.81124 224.153441 
L 388.649256 233.59841 
L 398.487273 248.552944 
L 398.487273 248.552944 
L 398.487273 248.552944 
L 388.649256 233.59841 
L 378.81124 224.153441 
L 368.973223 221.792199 
L 359.135207 216.282634 
L 349.29719 172.993193 
L 339.459174 250.914186 
L 329.621157 213.921391 
L 319.78314 190.308969 
L 309.945124 172.993193 
L 300.107107 221.792199 
L 290.269091 185.586484 
L 280.431074 213.134311 
L 270.593058 174.567354 
L 260.755041 216.282634 
L 250.917025 176.928596 
L 241.079008 211.560149 
L 231.240992 199.753938 
L 221.402975 184.799404 
L 211.564959 182.438161 
L 201.726942 169.057789 
L 191.888926 187.947727 
L 182.050909 187.160646 
L 172.212893 174.567354 
L 162.374876 181.651081 
L 152.53686 196.605615 
L 142.698843 184.799404 
L 132.860826 163.548224 
L 123.02281 132.852075 
L 113.184793 195.818534 
L 103.346777 160.399901 
L 93.50876 145.445366 
L 83.670744 117.11046 
L 73.832727 77.756422 
z
" clip-path="url(#p38e0f0aa6c)" style="fill: #1f77b4"/>
   </g>
   <g id="PolyCollection_12">
    <path d="M 73.832727 76.182261 
L 73.832727 77.756422 
L 83.670744 117.11046 
L 93.50876 145.445366 
L 103.346777 160.399901 
L 113.184793 195.818534 
L 123.02281 132.852075 
L 132.860826 163.548224 
L 142.698843 184.799404 
L 152.53686 196.605615 
L 162.374876 181.651081 
L 172.212893 174.567354 
L 182.050909 187.160646 
L 191.888926 187.947727 
L 201.726942 169.057789 
L 211.564959 182.438161 
L 221.402975 184.799404 
L 231.240992 199.753938 
L 241.079008 211.560149 
L 250.917025 176.928596 
L 260.755041 216.282634 
L 270.593058 174.567354 
L 280.431074 213.134311 
L 290.269091 185.586484 
L 300.107107 221.792199 
L 309.945124 172.993193 
L 319.78314 190.308969 
L 329.621157 213.921391 
L 339.459174 250.914186 
L 349.29719 172.993193 
L 359.135207 216.282634 
L 368.973223 221.792199 
L 378.81124 224.153441 
L 388.649256 233.59841 
L 398.487273 248.552944 
L 398.487273 241.469217 
L 398.487273 241.469217 
L 388.649256 228.088845 
L 378.81124 221.005118 
L 368.973223 215.495553 
L 359.135207 210.773068 
L 349.29719 167.483627 
L 339.459174 249.340025 
L 329.621157 207.624745 
L 319.78314 184.799404 
L 309.945124 166.696547 
L 300.107107 216.282634 
L 290.269091 180.076919 
L 280.431074 208.411826 
L 270.593058 169.057789 
L 260.755041 209.985988 
L 250.917025 169.84487 
L 241.079008 206.050584 
L 231.240992 196.605615 
L 221.402975 176.928596 
L 211.564959 176.928596 
L 201.726942 158.825739 
L 191.888926 180.076919 
L 182.050909 180.864 
L 172.212893 167.483627 
L 162.374876 174.567354 
L 152.53686 187.160646 
L 142.698843 178.502758 
L 132.860826 154.890335 
L 123.02281 124.981267 
L 113.184793 188.734807 
L 103.346777 150.954932 
L 93.50876 139.14872 
L 83.670744 110.813814 
L 73.832727 76.182261 
z
" clip-path="url(#p38e0f0aa6c)" style="fill: #ff7f0e"/>
   </g>
   <g id="PolyCollection_13">
    <path d="M 73.832727 75.39518 
L 73.832727 76.182261 
L 83.670744 110.813814 
L 93.50876 139.14872 
L 103.346777 150.954932 
L 113.184793 188.734807 
L 123.02281 124.981267 
L 132.860826 154.890335 
L 142.698843 178.502758 
L 152.53686 187.160646 
L 162.374876 174.567354 
L 172.212893 167.483627 
L 182.050909 180.864 
L 191.888926 180.076919 
L 201.726942 158.825739 
L 211.564959 176.928596 
L 221.402975 176.928596 
L 231.240992 196.605615 
L 241.079008 206.050584 
L 250.917025 169.84487 
L 260.755041 209.985988 
L 270.593058 169.057789 
L 280.431074 208.411826 
L 290.269091 180.076919 
L 300.107107 216.282634 
L 309.945124 166.696547 
L 319.78314 184.799404 
L 329.621157 207.624745 
L 339.459174 249.340025 
L 349.29719 167.483627 
L 359.135207 210.773068 
L 368.973223 215.495553 
L 378.81124 221.005118 
L 388.649256 228.088845 
L 398.487273 241.469217 
L 398.487273 241.469217 
L 398.487273 241.469217 
L 388.649256 228.088845 
L 378.81124 221.005118 
L 368.973223 215.495553 
L 359.135207 210.773068 
L 349.29719 167.483627 
L 339.459174 249.340025 
L 329.621157 207.624745 
L 319.78314 184.799404 
L 309.945124 161.974062 
L 300.107107 209.198907 
L 290.269091 173.780273 
L 280.431074 202.11518 
L 270.593058 165.122385 
L 260.755041 205.263503 
L 250.917025 164.335304 
L 241.079008 202.902261 
L 231.240992 189.521888 
L 221.402975 168.270708 
L 211.564959 172.206112 
L 201.726942 152.529093 
L 191.888926 172.993193 
L 182.050909 176.928596 
L 172.212893 165.122385 
L 162.374876 169.057789 
L 152.53686 176.141516 
L 142.698843 168.270708 
L 132.860826 143.871205 
L 123.02281 117.11046 
L 113.184793 176.141516 
L 103.346777 140.722882 
L 93.50876 127.342509 
L 83.670744 100.581764 
L 73.832727 75.39518 
z
" clip-path="url(#p38e0f0aa6c)" style="fill: #2ca02c"/>
   </g>
   <g id="PolyCollection_14">
    <path d="M 73.832727 73.821019 
L 73.832727 75.39518 
L 83.670744 100.581764 
L 93.50876 127.342509 
L 103.346777 140.722882 
L 113.184793 176.141516 
L 123.02281 117.11046 
L 132.860826 143.871205 
L 142.698843 168.270708 
L 152.53686 176.141516 
L 162.374876 169.057789 
L 172.212893 165.122385 
L 182.050909 176.928596 
L 191.888926 172.993193 
L 201.726942 152.529093 
L 211.564959 172.206112 
L 221.402975 168.270708 
L 231.240992 189.521888 
L 241.079008 202.902261 
L 250.917025 164.335304 
L 260.755041 205.263503 
L 270.593058 165.122385 
L 280.431074 202.11518 
L 290.269091 173.780273 
L 300.107107 209.198907 
L 309.945124 161.974062 
L 319.78314 184.799404 
L 329.621157 207.624745 
L 339.459174 249.340025 
L 349.29719 167.483627 
L 359.135207 210.773068 
L 368.973223 215.495553 
L 378.81124 221.005118 
L 388.649256 228.088845 
L 398.487273 241.469217 
L 398.487273 241.469217 
L 398.487273 241.469217 
L 388.649256 228.088845 
L 378.81124 221.005118 
L 368.973223 215.495553 
L 359.135207 210.773068 
L 349.29719 167.483627 
L 339.459174 249.340025 
L 329.621157 207.624745 
L 319.78314 184.799404 
L 309.945124 161.974062 
L 300.107107 209.198907 
L 290.269091 173.780273 
L 280.431074 197.392696 
L 270.593058 155.677416 
L 260.755041 196.605615 
L 250.917025 157.251578 
L 241.079008 191.88313 
L 231.240992 186.373565 
L 221.402975 163.548224 
L 211.564959 163.548224 
L 201.726942 147.019528 
L 191.888926 163.548224 
L 182.050909 167.483627 
L 172.212893 159.61282 
L 162.374876 159.61282 
L 152.53686 165.909466 
L 142.698843 160.399901 
L 132.860826 132.064994 
L 123.02281 106.87841 
L 113.184793 165.909466 
L 103.346777 128.12959 
L 93.50876 116.323379 
L 83.670744 94.285118 
L 73.832727 73.821019 
z
" clip-path="url(#p38e0f0aa6c)" style="fill: #d62728"/>
   </g>
   <g id="PolyCollection_15">
    <path d="M 73.832727 71.459776 
L 73.832727 73.821019 
L 83.670744 94.285118 
L 93.50876 116.323379 
L 103.346777 128.12959 
L 113.184793 165.909466 
L 123.02281 106.87841 
L 132.860826 132.064994 
L 142.698843 160.399901 
L 152.53686 165.909466 
L 162.374876 159.61282 
L 172.212893 159.61282 
L 182.050909 167.483627 
L 191.888926 163.548224 
L 201.726942 147.019528 
L 211.564959 163.548224 
L 221.402975 163.548224 
L 231.240992 186.373565 
L 241.079008 191.88313 
L 250.917025 157.251578 
L 260.755041 196.605615 
L 270.593058 155.677416 
L 280.431074 197.392696 
L 290.269091 173.780273 
L 300.107107 209.198907 
L 309.945124 161.974062 
L 319.78314 184.799404 
L 329.621157 207.624745 
L 339.459174 249.340025 
L 349.29719 167.483627 
L 359.135207 210.773068 
L 368.973223 215.495553 
L 378.81124 221.005118 
L 388.649256 228.088845 
L 398.487273 241.469217 
L 398.487273 241.469217 
L 398.487273 241.469217 
L 388.649256 228.088845 
L 378.81124 221.005118 
L 368.973223 215.495553 
L 359.135207 210.773068 
L 349.29719 167.483627 
L 339.459174 249.340025 
L 329.621157 207.624745 
L 319.78314 184.799404 
L 309.945124 161.974062 
L 300.107107 202.11518 
L 290.269091 169.057789 
L 280.431074 191.09605 
L 270.593058 148.593689 
L 260.755041 190.308969 
L 250.917025 152.529093 
L 241.079008 185.586484 
L 231.240992 180.076919 
L 221.402975 154.890335 
L 211.564959 158.038658 
L 201.726942 143.871205 
L 191.888926 158.038658 
L 182.050909 163.548224 
L 172.212893 156.464497 
L 162.374876 150.167851 
L 152.53686 147.806609 
L 142.698843 156.464497 
L 132.860826 124.194186 
L 123.02281 102.155925 
L 113.184793 136.000398 
L 103.346777 113.962137 
L 93.50876 102.943006 
L 83.670744 79.330584 
L 73.832727 71.459776 
z
" clip-path="url(#p38e0f0aa6c)" style="fill: #9467bd"/>
   </g>
   <g id="PolyCollection_16">
    <path d="M 73.832727 71.459776 
L 73.832727 71.459776 
L 83.670744 79.330584 
L 93.50876 102.943006 
L 103.346777 113.962137 
L 113.184793 136.000398 
L 123.02281 102.155925 
L 132.860826 124.194186 
L 142.698843 156.464497 
L 152.53686 147.806609 
L 162.374876 150.167851 
L 172.212893 156.464497 
L 182.050909 163.548224 
L 191.888926 158.038658 
L 201.726942 143.871205 
L 211.564959 158.038658 
L 221.402975 154.890335 
L 231.240992 180.076919 
L 241.079008 185.586484 
L 250.917025 152.529093 
L 260.755041 190.308969 
L 270.593058 148.593689 
L 280.431074 191.09605 
L 290.269091 169.057789 
L 300.107107 202.11518 
L 309.945124 161.974062 
L 319.78314 184.799404 
L 329.621157 207.624745 
L 339.459174 249.340025 
L 349.29719 167.483627 
L 359.135207 210.773068 
L 368.973223 215.495553 
L 378.81124 221.005118 
L 388.649256 228.088845 
L 398.487273 241.469217 
L 398.487273 231.237168 
L 398.487273 231.237168 
L 388.649256 222.57928 
L 378.81124 212.34723 
L 368.973223 208.411826 
L 359.135207 202.902261 
L 349.29719 159.61282 
L 339.459174 246.191702 
L 329.621157 199.753938 
L 319.78314 177.715677 
L 309.945124 158.825739 
L 300.107107 174.567354 
L 290.269091 151.742012 
L 280.431074 167.483627 
L 270.593058 141.509963 
L 260.755041 173.780273 
L 250.917025 143.084124 
L 241.079008 172.206112 
L 231.240992 172.206112 
L 221.402975 150.167851 
L 211.564959 146.232447 
L 201.726942 137.574559 
L 191.888926 147.019528 
L 182.050909 151.742012 
L 172.212893 139.14872 
L 162.374876 142.297043 
L 152.53686 139.14872 
L 142.698843 147.019528 
L 132.860826 119.471702 
L 123.02281 98.220522 
L 113.184793 122.620025 
L 103.346777 106.091329 
L 93.50876 91.136795 
L 83.670744 72.246857 
L 73.832727 71.459776 
z
" clip-path="url(#p38e0f0aa6c)" style="fill: #8c564b"/>
   </g>
   <g id="PolyCollection_17">
    <path d="M 73.832727 71.459776 
L 73.832727 71.459776 
L 83.670744 72.246857 
L 93.50876 91.136795 
L 103.346777 106.091329 
L 113.184793 122.620025 
L 123.02281 98.220522 
L 132.860826 119.471702 
L 142.698843 147.019528 
L 152.53686 139.14872 
L 162.374876 142.297043 
L 172.212893 139.14872 
L 182.050909 151.742012 
L 191.888926 147.019528 
L 201.726942 137.574559 
L 211.564959 146.232447 
L 221.402975 150.167851 
L 231.240992 172.206112 
L 241.079008 172.206112 
L 250.917025 143.084124 
L 260.755041 173.780273 
L 270.593058 141.509963 
L 280.431074 167.483627 
L 290.269091 151.742012 
L 300.107107 174.567354 
L 309.945124 158.825739 
L 319.78314 177.715677 
L 329.621157 199.753938 
L 339.459174 246.191702 
L 349.29719 159.61282 
L 359.135207 202.902261 
L 368.973223 208.411826 
L 378.81124 212.34723 
L 388.649256 222.57928 
L 398.487273 231.237168 
L 398.487273 231.237168 
L 398.487273 231.237168 
L 388.649256 222.57928 
L 378.81124 212.34723 
L 368.973223 208.411826 
L 359.135207 202.902261 
L 349.29719 159.61282 
L 339.459174 246.191702 
L 329.621157 199.753938 
L 319.78314 177.715677 
L 309.945124 158.825739 
L 300.107107 174.567354 
L 290.269091 140.722882 
L 280.431074 161.186981 
L 270.593058 136.787478 
L 260.755041 165.909466 
L 250.917025 139.14872 
L 241.079008 161.186981 
L 231.240992 166.696547 
L 221.402975 138.36164 
L 211.564959 136.000398 
L 201.726942 128.12959 
L 191.888926 136.787478 
L 182.050909 141.509963 
L 172.212893 132.064994 
L 162.374876 136.787478 
L 152.53686 127.342509 
L 142.698843 131.277913 
L 132.860826 112.387975 
L 123.02281 88.775553 
L 113.184793 105.304248 
L 103.346777 87.201391 
L 93.50876 72.246857 
L 83.670744 69.885615 
L 73.832727 71.459776 
z
" clip-path="url(#p38e0f0aa6c)" style="fill: #e377c2"/>
   </g>
   <g id="PolyCollection_18">
    <path d="M 73.832727 71.459776 
L 73.832727 71.459776 
L 83.670744 69.885615 
L 93.50876 72.246857 
L 103.346777 87.201391 
L 113.184793 105.304248 
L 123.02281 88.775553 
L 132.860826 112.387975 
L 142.698843 131.277913 
L 152.53686 127.342509 
L 162.374876 136.787478 
L 172.212893 132.064994 
L 182.050909 141.509963 
L 191.888926 136.787478 
L 201.726942 128.12959 
L 211.564959 136.000398 
L 221.402975 138.36164 
L 231.240992 166.696547 
L 241.079008 161.186981 
L 250.917025 139.14872 
L 260.755041 165.909466 
L 270.593058 136.787478 
L 280.431074 161.186981 
L 290.269091 140.722882 
L 300.107107 174.567354 
L 309.945124 158.825739 
L 319.78314 177.715677 
L 329.621157 199.753938 
L 339.459174 246.191702 
L 349.29719 159.61282 
L 359.135207 202.902261 
L 368.973223 208.411826 
L 378.81124 212.34723 
L 388.649256 222.57928 
L 398.487273 231.237168 
L 398.487273 222.57928 
L 398.487273 222.57928 
L 388.649256 216.282634 
L 378.81124 206.050584 
L 368.973223 201.328099 
L 359.135207 195.818534 
L 349.29719 153.316174 
L 339.459174 243.043379 
L 329.621157 194.244373 
L 319.78314 169.84487 
L 309.945124 152.529093 
L 300.107107 167.483627 
L 290.269091 133.639155 
L 280.431074 154.890335 
L 270.593058 131.277913 
L 260.755041 160.399901 
L 250.917025 132.852075 
L 241.079008 154.890335 
L 231.240992 158.825739 
L 221.402975 132.064994 
L 211.564959 129.703752 
L 201.726942 124.981267 
L 191.888926 130.490832 
L 182.050909 136.787478 
L 172.212893 124.981267 
L 162.374876 128.12959 
L 152.53686 117.89754 
L 142.698843 124.194186 
L 132.860826 104.517168 
L 123.02281 80.904745 
L 113.184793 97.433441 
L 103.346777 80.117665 
L 93.50876 71.459776 
L 83.670744 69.885615 
L 73.832727 71.459776 
z
" clip-path="url(#p38e0f0aa6c)" style="fill: #7f7f7f"/>
   </g>
   <g id="PolyCollection_19">
    <path d="M 73.832727 71.459776 
L 73.832727 71.459776 
L 83.670744 69.885615 
L 93.50876 71.459776 
L 103.346777 80.117665 
L 113.184793 97.433441 
L 123.02281 80.904745 
L 132.860826 104.517168 
L 142.698843 124.194186 
L 152.53686 117.89754 
L 162.374876 128.12959 
L 172.212893 124.981267 
L 182.050909 136.787478 
L 191.888926 130.490832 
L 201.726942 124.981267 
L 211.564959 129.703752 
L 221.402975 132.064994 
L 231.240992 158.825739 
L 241.079008 154.890335 
L 250.917025 132.852075 
L 260.755041 160.399901 
L 270.593058 131.277913 
L 280.431074 154.890335 
L 290.269091 133.639155 
L 300.107107 167.483627 
L 309.945124 152.529093 
L 319.78314 169.84487 
L 329.621157 194.244373 
L 339.459174 243.043379 
L 349.29719 153.316174 
L 359.135207 195.818534 
L 368.973223 201.328099 
L 378.81124 206.050584 
L 388.649256 216.282634 
L 398.487273 222.57928 
L 398.487273 222.57928 
L 398.487273 222.57928 
L 388.649256 216.282634 
L 378.81124 206.050584 
L 368.973223 201.328099 
L 359.135207 195.818534 
L 349.29719 153.316174 
L 339.459174 243.043379 
L 329.621157 194.244373 
L 319.78314 169.84487 
L 309.945124 148.593689 
L 300.107107 154.103255 
L 290.269091 125.768348 
L 280.431074 146.232447 
L 270.593058 127.342509 
L 260.755041 153.316174 
L 250.917025 130.490832 
L 241.079008 146.232447 
L 231.240992 150.167851 
L 221.402975 124.194186 
L 211.564959 121.832944 
L 201.726942 119.471702 
L 191.888926 121.832944 
L 182.050909 130.490832 
L 172.212893 116.323379 
L 162.374876 123.407106 
L 152.53686 113.962137 
L 142.698843 116.323379 
L 132.860826 91.136795 
L 123.02281 78.543503 
L 113.184793 84.053068 
L 103.346777 75.39518 
L 93.50876 71.459776 
L 83.670744 69.885615 
L 73.832727 71.459776 
z
" clip-path="url(#p38e0f0aa6c)" style="fill: #bcbd22"/>
   </g>
   <g id="PolyCollection_20">
    <path d="M 73.832727 71.459776 
L 73.832727 71.459776 
L 83.670744 69.885615 
L 93.50876 71.459776 
L 103.346777 75.39518 
L 113.184793 84.053068 
L 123.02281 78.543503 
L 132.860826 91.136795 
L 142.698843 116.323379 
L 152.53686 113.962137 
L 162.374876 123.407106 
L 172.212893 116.323379 
L 182.050909 130.490832 
L 191.888926 121.832944 
L 201.726942 119.471702 
L 211.564959 121.832944 
L 221.402975 124.194186 
L 231.240992 150.167851 
L 241.079008 146.232447 
L 250.917025 130.490832 
L 260.755041 153.316174 
L 270.593058 127.342509 
L 280.431074 146.232447 
L 290.269091 125.768348 
L 300.107107 154.103255 
L 309.945124 148.593689 
L 319.78314 169.84487 
L 329.621157 194.244373 
L 339.459174 243.043379 
L 349.29719 153.316174 
L 359.135207 195.818534 
L 368.973223 201.328099 
L 378.81124 206.050584 
L 388.649256 216.282634 
L 398.487273 222.57928 
L 398.487273 213.921391 
L 398.487273 213.921391 
L 388.649256 203.689342 
L 378.81124 200.541019 
L 368.973223 195.031453 
L 359.135207 187.947727 
L 349.29719 147.019528 
L 339.459174 240.682137 
L 329.621157 182.438161 
L 319.78314 162.761143 
L 309.945124 146.232447 
L 300.107107 142.297043 
L 290.269091 121.832944 
L 280.431074 137.574559 
L 270.593058 122.620025 
L 260.755041 123.407106 
L 250.917025 121.832944 
L 241.079008 129.703752 
L 231.240992 135.213317 
L 221.402975 109.239652 
L 211.564959 113.962137 
L 201.726942 111.600894 
L 191.888926 112.387975 
L 182.050909 119.471702 
L 172.212893 107.665491 
L 162.374876 114.749217 
L 152.53686 102.155925 
L 142.698843 101.368845 
L 132.860826 81.691826 
L 123.02281 74.608099 
L 113.184793 73.821019 
L 103.346777 70.672696 
L 93.50876 71.459776 
L 83.670744 69.885615 
L 73.832727 71.459776 
z
" clip-path="url(#p38e0f0aa6c)" style="fill: #17becf"/>
   </g>
   <g id="PolyCollection_21">
    <path d="M 73.832727 71.459776 
L 73.832727 71.459776 
L 83.670744 69.885615 
L 93.50876 71.459776 
L 103.346777 70.672696 
L 113.184793 73.821019 
L 123.02281 74.608099 
L 132.860826 81.691826 
L 142.698843 101.368845 
L 152.53686 102.155925 
L 162.374876 114.749217 
L 172.212893 107.665491 
L 182.050909 119.471702 
L 191.888926 112.387975 
L 201.726942 111.600894 
L 211.564959 113.962137 
L 221.402975 109.239652 
L 231.240992 135.213317 
L 241.079008 129.703752 
L 250.917025 121.832944 
L 260.755041 123.407106 
L 270.593058 122.620025 
L 280.431074 137.574559 
L 290.269091 121.832944 
L 300.107107 142.297043 
L 309.945124 146.232447 
L 319.78314 162.761143 
L 329.621157 182.438161 
L 339.459174 240.682137 
L 349.29719 147.019528 
L 359.135207 187.947727 
L 368.973223 195.031453 
L 378.81124 200.541019 
L 388.649256 203.689342 
L 398.487273 213.921391 
L 398.487273 206.837665 
L 398.487273 206.837665 
L 388.649256 193.457292 
L 378.81124 187.947727 
L 368.973223 188.734807 
L 359.135207 175.354435 
L 349.29719 139.935801 
L 339.459174 234.385491 
L 329.621157 175.354435 
L 319.78314 154.890335 
L 309.945124 145.445366 
L 300.107107 137.574559 
L 290.269091 114.749217 
L 280.431074 132.064994 
L 270.593058 119.471702 
L 260.755041 106.091329 
L 250.917025 117.89754 
L 241.079008 117.11046 
L 231.240992 124.981267 
L 221.402975 102.943006 
L 211.564959 106.87841 
L 201.726942 106.87841 
L 191.888926 107.665491 
L 182.050909 110.026733 
L 172.212893 100.581764 
L 162.374876 108.452571 
L 152.53686 94.285118 
L 142.698843 94.285118 
L 132.860826 73.033938 
L 123.02281 69.098534 
L 113.184793 72.246857 
L 103.346777 70.672696 
L 93.50876 71.459776 
L 83.670744 69.885615 
L 73.832727 71.459776 
z
" clip-path="url(#p38e0f0aa6c)" style="fill: #1f77b4"/>
   </g>
   <g id="PolyCollection_22">
    <path d="M 73.832727 71.459776 
L 73.832727 71.459776 
L 83.670744 69.885615 
L 93.50876 71.459776 
L 103.346777 70.672696 
L 113.184793 72.246857 
L 123.02281 69.098534 
L 132.860826 73.033938 
L 142.698843 94.285118 
L 152.53686 94.285118 
L 162.374876 108.452571 
L 172.212893 100.581764 
L 182.050909 110.026733 
L 191.888926 107.665491 
L 201.726942 106.87841 
L 211.564959 106.87841 
L 221.402975 102.943006 
L 231.240992 124.981267 
L 241.079008 117.11046 
L 250.917025 117.89754 
L 260.755041 106.091329 
L 270.593058 119.471702 
L 280.431074 132.064994 
L 290.269091 114.749217 
L 300.107107 137.574559 
L 309.945124 145.445366 
L 319.78314 154.890335 
L 329.621157 175.354435 
L 339.459174 234.385491 
L 349.29719 139.935801 
L 359.135207 175.354435 
L 368.973223 188.734807 
L 378.81124 187.947727 
L 388.649256 193.457292 
L 398.487273 206.837665 
L 398.487273 201.328099 
L 398.487273 201.328099 
L 388.649256 189.521888 
L 378.81124 182.438161 
L 368.973223 182.438161 
L 359.135207 169.84487 
L 349.29719 134.426236 
L 339.459174 230.450087 
L 329.621157 169.057789 
L 319.78314 146.232447 
L 309.945124 141.509963 
L 300.107107 131.277913 
L 290.269091 110.813814 
L 280.431074 124.981267 
L 270.593058 116.323379 
L 260.755041 102.943006 
L 250.917025 111.600894 
L 241.079008 113.962137 
L 231.240992 117.89754 
L 221.402975 96.64636 
L 211.564959 102.155925 
L 201.726942 102.943006 
L 191.888926 100.581764 
L 182.050909 106.091329 
L 172.212893 91.136795 
L 162.374876 100.581764 
L 152.53686 87.201391 
L 142.698843 87.988472 
L 132.860826 67.524373 
L 123.02281 64.37605 
L 113.184793 71.459776 
L 103.346777 70.672696 
L 93.50876 71.459776 
L 83.670744 69.885615 
L 73.832727 71.459776 
z
" clip-path="url(#p38e0f0aa6c)" style="fill: #ff7f0e"/>
   </g>
   <g id="PolyCollection_23">
    <path d="M 73.832727 71.459776 
L 73.832727 71.459776 
L 83.670744 69.885615 
L 93.50876 71.459776 
L 103.346777 70.672696 
L 113.184793 71.459776 
L 123.02281 64.37605 
L 132.860826 67.524373 
L 142.698843 87.988472 
L 152.53686 87.201391 
L 162.374876 100.581764 
L 172.212893 91.136795 
L 182.050909 106.091329 
L 191.888926 100.581764 
L 201.726942 102.943006 
L 211.564959 102.155925 
L 221.402975 96.64636 
L 231.240992 117.89754 
L 241.079008 113.962137 
L 250.917025 111.600894 
L 260.755041 102.943006 
L 270.593058 116.323379 
L 280.431074 124.981267 
L 290.269091 110.813814 
L 300.107107 131.277913 
L 309.945124 141.509963 
L 319.78314 146.232447 
L 329.621157 169.057789 
L 339.459174 230.450087 
L 349.29719 134.426236 
L 359.135207 169.84487 
L 368.973223 182.438161 
L 378.81124 182.438161 
L 388.649256 189.521888 
L 398.487273 201.328099 
L 398.487273 196.605615 
L 398.487273 196.605615 
L 388.649256 181.651081 
L 378.81124 174.567354 
L 368.973223 170.63195 
L 359.135207 162.761143 
L 349.29719 128.12959 
L 339.459174 226.514683 
L 329.621157 161.186981 
L 319.78314 133.639155 
L 309.945124 133.639155 
L 300.107107 123.407106 
L 290.269091 102.943006 
L 280.431074 115.536298 
L 270.593058 109.239652 
L 260.755041 94.285118 
L 250.917025 101.368845 
L 241.079008 102.943006 
L 231.240992 108.452571 
L 221.402975 88.775553 
L 211.564959 91.136795 
L 201.726942 93.498037 
L 191.888926 87.201391 
L 182.050909 91.136795 
L 172.212893 83.265988 
L 162.374876 94.285118 
L 152.53686 76.182261 
L 142.698843 66.737292 
L 132.860826 65.16313 
L 123.02281 64.37605 
L 113.184793 71.459776 
L 103.346777 70.672696 
L 93.50876 71.459776 
L 83.670744 69.885615 
L 73.832727 71.459776 
z
" clip-path="url(#p38e0f0aa6c)" style="fill: #2ca02c"/>
   </g>
   <g id="PolyCollection_24">
    <path d="M 73.832727 71.459776 
L 73.832727 71.459776 
L 83.670744 69.885615 
L 93.50876 71.459776 
L 103.346777 70.672696 
L 113.184793 71.459776 
L 123.02281 64.37605 
L 132.860826 65.16313 
L 142.698843 66.737292 
L 152.53686 76.182261 
L 162.374876 94.285118 
L 172.212893 83.265988 
L 182.050909 91.136795 
L 191.888926 87.201391 
L 201.726942 93.498037 
L 211.564959 91.136795 
L 221.402975 88.775553 
L 231.240992 108.452571 
L 241.079008 102.943006 
L 250.917025 101.368845 
L 260.755041 94.285118 
L 270.593058 109.239652 
L 280.431074 115.536298 
L 290.269091 102.943006 
L 300.107107 123.407106 
L 309.945124 133.639155 
L 319.78314 133.639155 
L 329.621157 161.186981 
L 339.459174 226.514683 
L 349.29719 128.12959 
L 359.135207 162.761143 
L 368.973223 170.63195 
L 378.81124 174.567354 
L 388.649256 181.651081 
L 398.487273 196.605615 
L 398.487273 191.88313 
L 398.487273 191.88313 
L 388.649256 178.502758 
L 378.81124 169.84487 
L 368.973223 163.548224 
L 359.135207 156.464497 
L 349.29719 120.258783 
L 339.459174 218.643876 
L 329.621157 153.316174 
L 319.78314 124.194186 
L 309.945124 126.555429 
L 300.107107 117.89754 
L 290.269091 97.433441 
L 280.431074 109.239652 
L 270.593058 102.155925 
L 260.755041 87.988472 
L 250.917025 95.072199 
L 241.079008 96.64636 
L 231.240992 102.943006 
L 221.402975 83.265988 
L 211.564959 84.053068 
L 201.726942 87.201391 
L 191.888926 80.904745 
L 182.050909 87.988472 
L 172.212893 79.330584 
L 162.374876 89.562634 
L 152.53686 70.672696 
L 142.698843 65.950211 
L 132.860826 65.16313 
L 123.02281 64.37605 
L 113.184793 71.459776 
L 103.346777 70.672696 
L 93.50876 71.459776 
L 83.670744 69.885615 
L 73.832727 71.459776 
z
" clip-path="url(#p38e0f0aa6c)" style="fill: #d62728"/>
   </g>
   <g id="PolyCollection_25">
    <path d="M 73.832727 71.459776 
L 73.832727 71.459776 
L 83.670744 69.885615 
L 93.50876 71.459776 
L 103.346777 70.672696 
L 113.184793 71.459776 
L 123.02281 64.37605 
L 132.860826 65.16313 
L 142.698843 65.950211 
L 152.53686 70.672696 
L 162.374876 89.562634 
L 172.212893 79.330584 
L 182.050909 87.988472 
L 191.888926 80.904745 
L 201.726942 87.201391 
L 211.564959 84.053068 
L 221.402975 83.265988 
L 231.240992 102.943006 
L 241.079008 96.64636 
L 250.917025 95.072199 
L 260.755041 87.988472 
L 270.593058 102.155925 
L 280.431074 109.239652 
L 290.269091 97.433441 
L 300.107107 117.89754 
L 309.945124 126.555429 
L 319.78314 124.194186 
L 329.621157 153.316174 
L 339.459174 218.643876 
L 349.29719 120.258783 
L 359.135207 156.464497 
L 368.973223 163.548224 
L 378.81124 169.84487 
L 388.649256 178.502758 
L 398.487273 191.88313 
L 398.487273 183.225242 
L 398.487273 183.225242 
L 388.649256 165.909466 
L 378.81124 154.890335 
L 368.973223 156.464497 
L 359.135207 149.38077 
L 349.29719 113.962137 
L 339.459174 213.134311 
L 329.621157 147.019528 
L 319.78314 117.11046 
L 309.945124 120.258783 
L 300.107107 110.813814 
L 290.269091 95.85928 
L 280.431074 95.072199 
L 270.593058 92.710957 
L 260.755041 79.330584 
L 250.917025 85.62723 
L 241.079008 87.988472 
L 231.240992 92.710957 
L 221.402975 76.182261 
L 211.564959 74.608099 
L 201.726942 73.033938 
L 191.888926 68.311453 
L 182.050909 80.904745 
L 172.212893 74.608099 
L 162.374876 84.053068 
L 152.53686 69.885615 
L 142.698843 65.950211 
L 132.860826 65.16313 
L 123.02281 64.37605 
L 113.184793 71.459776 
L 103.346777 70.672696 
L 93.50876 71.459776 
L 83.670744 69.885615 
L 73.832727 71.459776 
z
" clip-path="url(#p38e0f0aa6c)" style="fill: #9467bd"/>
   </g>
   <g id="PolyCollection_26">
    <path d="M 73.832727 71.459776 
L 73.832727 71.459776 
L 83.670744 69.885615 
L 93.50876 71.459776 
L 103.346777 70.672696 
L 113.184793 71.459776 
L 123.02281 64.37605 
L 132.860826 65.16313 
L 142.698843 65.950211 
L 152.53686 69.885615 
L 162.374876 84.053068 
L 172.212893 74.608099 
L 182.050909 80.904745 
L 191.888926 68.311453 
L 201.726942 73.033938 
L 211.564959 74.608099 
L 221.402975 76.182261 
L 231.240992 92.710957 
L 241.079008 87.988472 
L 250.917025 85.62723 
L 260.755041 79.330584 
L 270.593058 92.710957 
L 280.431074 95.072199 
L 290.269091 95.85928 
L 300.107107 110.813814 
L 309.945124 120.258783 
L 319.78314 117.11046 
L 329.621157 147.019528 
L 339.459174 213.134311 
L 349.29719 113.962137 
L 359.135207 149.38077 
L 368.973223 156.464497 
L 378.81124 154.890335 
L 388.649256 165.909466 
L 398.487273 183.225242 
L 398.487273 183.225242 
L 398.487273 183.225242 
L 388.649256 165.909466 
L 378.81124 154.890335 
L 368.973223 156.464497 
L 359.135207 149.38077 
L 349.29719 105.304248 
L 339.459174 209.985988 
L 329.621157 137.574559 
L 319.78314 108.452571 
L 309.945124 110.813814 
L 300.107107 95.85928 
L 290.269091 89.562634 
L 280.431074 86.414311 
L 270.593058 88.775553 
L 260.755041 73.033938 
L 250.917025 79.330584 
L 241.079008 75.39518 
L 231.240992 81.691826 
L 221.402975 64.37605 
L 211.564959 64.37605 
L 201.726942 68.311453 
L 191.888926 64.37605 
L 182.050909 64.37605 
L 172.212893 69.885615 
L 162.374876 64.37605 
L 152.53686 65.16313 
L 142.698843 65.950211 
L 132.860826 65.16313 
L 123.02281 64.37605 
L 113.184793 71.459776 
L 103.346777 70.672696 
L 93.50876 71.459776 
L 83.670744 69.885615 
L 73.832727 71.459776 
z
" clip-path="url(#p38e0f0aa6c)" style="fill: #8c564b"/>
   </g>
   <g id="PolyCollection_27">
    <path d="M 73.832727 71.459776 
L 73.832727 71.459776 
L 83.670744 69.885615 
L 93.50876 71.459776 
L 103.346777 70.672696 
L 113.184793 71.459776 
L 123.02281 64.37605 
L 132.860826 65.16313 
L 142.698843 65.950211 
L 152.53686 65.16313 
L 162.374876 64.37605 
L 172.212893 69.885615 
L 182.050909 64.37605 
L 191.888926 64.37605 
L 201.726942 68.311453 
L 211.564959 64.37605 
L 221.402975 64.37605 
L 231.240992 81.691826 
L 241.079008 75.39518 
L 250.917025 79.330584 
L 260.755041 73.033938 
L 270.593058 88.775553 
L 280.431074 86.414311 
L 290.269091 89.562634 
L 300.107107 95.85928 
L 309.945124 110.813814 
L 319.78314 108.452571 
L 329.621157 137.574559 
L 339.459174 209.985988 
L 349.29719 105.304248 
L 359.135207 149.38077 
L 368.973223 156.464497 
L 378.81124 154.890335 
L 388.649256 165.909466 
L 398.487273 183.225242 
L 398.487273 177.715677 
L 398.487273 177.715677 
L 388.649256 154.890335 
L 378.81124 148.593689 
L 368.973223 150.167851 
L 359.135207 143.871205 
L 349.29719 100.581764 
L 339.459174 203.689342 
L 329.621157 128.916671 
L 319.78314 99.794683 
L 309.945124 102.943006 
L 300.107107 87.988472 
L 290.269091 83.265988 
L 280.431074 79.330584 
L 270.593058 82.478907 
L 260.755041 67.524373 
L 250.917025 67.524373 
L 241.079008 64.37605 
L 231.240992 62.014807 
L 221.402975 63.588969 
L 211.564959 64.37605 
L 201.726942 68.311453 
L 191.888926 64.37605 
L 182.050909 64.37605 
L 172.212893 69.885615 
L 162.374876 64.37605 
L 152.53686 65.16313 
L 142.698843 65.950211 
L 132.860826 65.16313 
L 123.02281 64.37605 
L 113.184793 71.459776 
L 103.346777 70.672696 
L 93.50876 71.459776 
L 83.670744 69.885615 
L 73.832727 71.459776 
z
" clip-path="url(#p38e0f0aa6c)" style="fill: #e377c2"/>
   </g>
   <g id="PolyCollection_28">
    <path d="M 73.832727 71.459776 
L 73.832727 71.459776 
L 83.670744 69.885615 
L 93.50876 71.459776 
L 103.346777 70.672696 
L 113.184793 71.459776 
L 123.02281 64.37605 
L 132.860826 65.16313 
L 142.698843 65.950211 
L 152.53686 65.16313 
L 162.374876 64.37605 
L 172.212893 69.885615 
L 182.050909 64.37605 
L 191.888926 64.37605 
L 201.726942 68.311453 
L 211.564959 64.37605 
L 221.402975 63.588969 
L 231.240992 62.014807 
L 241.079008 64.37605 
L 250.917025 67.524373 
L 260.755041 67.524373 
L 270.593058 82.478907 
L 280.431074 79.330584 
L 290.269091 83.265988 
L 300.107107 87.988472 
L 309.945124 102.943006 
L 319.78314 99.794683 
L 329.621157 128.916671 
L 339.459174 203.689342 
L 349.29719 100.581764 
L 359.135207 143.871205 
L 368.973223 150.167851 
L 378.81124 148.593689 
L 388.649256 154.890335 
L 398.487273 177.715677 
L 398.487273 166.696547 
L 398.487273 166.696547 
L 388.649256 147.019528 
L 378.81124 142.297043 
L 368.973223 143.871205 
L 359.135207 136.787478 
L 349.29719 95.072199 
L 339.459174 198.179776 
L 329.621157 123.407106 
L 319.78314 91.136795 
L 309.945124 94.285118 
L 300.107107 81.691826 
L 290.269091 78.543503 
L 280.431074 73.033938 
L 270.593058 73.033938 
L 260.755041 61.227727 
L 250.917025 63.588969 
L 241.079008 64.37605 
L 231.240992 62.014807 
L 221.402975 63.588969 
L 211.564959 64.37605 
L 201.726942 68.311453 
L 191.888926 64.37605 
L 182.050909 64.37605 
L 172.212893 69.885615 
L 162.374876 64.37605 
L 152.53686 65.16313 
L 142.698843 65.950211 
L 132.860826 65.16313 
L 123.02281 64.37605 
L 113.184793 71.459776 
L 103.346777 70.672696 
L 93.50876 71.459776 
L 83.670744 69.885615 
L 73.832727 71.459776 
z
" clip-path="url(#p38e0f0aa6c)" style="fill: #7f7f7f"/>
   </g>
   <g id="PolyCollection_29">
    <path d="M 73.832727 71.459776 
L 73.832727 71.459776 
L 83.670744 69.885615 
L 93.50876 71.459776 
L 103.346777 70.672696 
L 113.184793 71.459776 
L 123.02281 64.37605 
L 132.860826 65.16313 
L 142.698843 65.950211 
L 152.53686 65.16313 
L 162.374876 64.37605 
L 172.212893 69.885615 
L 182.050909 64.37605 
L 191.888926 64.37605 
L 201.726942 68.311453 
L 211.564959 64.37605 
L 221.402975 63.588969 
L 231.240992 62.014807 
L 241.079008 64.37605 
L 250.917025 63.588969 
L 260.755041 61.227727 
L 270.593058 73.033938 
L 280.431074 73.033938 
L 290.269091 78.543503 
L 300.107107 81.691826 
L 309.945124 94.285118 
L 319.78314 91.136795 
L 329.621157 123.407106 
L 339.459174 198.179776 
L 349.29719 95.072199 
L 359.135207 136.787478 
L 368.973223 143.871205 
L 378.81124 142.297043 
L 388.649256 147.019528 
L 398.487273 166.696547 
L 398.487273 160.399901 
L 398.487273 160.399901 
L 388.649256 139.935801 
L 378.81124 136.000398 
L 368.973223 138.36164 
L 359.135207 132.852075 
L 349.29719 90.349714 
L 339.459174 190.308969 
L 329.621157 116.323379 
L 319.78314 84.053068 
L 309.945124 87.201391 
L 300.107107 74.608099 
L 290.269091 71.459776 
L 280.431074 66.737292 
L 270.593058 68.311453 
L 260.755041 56.505242 
L 250.917025 62.801888 
L 241.079008 64.37605 
L 231.240992 62.014807 
L 221.402975 63.588969 
L 211.564959 64.37605 
L 201.726942 68.311453 
L 191.888926 64.37605 
L 182.050909 64.37605 
L 172.212893 69.885615 
L 162.374876 64.37605 
L 152.53686 65.16313 
L 142.698843 65.950211 
L 132.860826 65.16313 
L 123.02281 64.37605 
L 113.184793 71.459776 
L 103.346777 70.672696 
L 93.50876 71.459776 
L 83.670744 69.885615 
L 73.832727 71.459776 
z
" clip-path="url(#p38e0f0aa6c)" style="fill: #bcbd22"/>
   </g>
   <g id="PolyCollection_30">
    <path d="M 73.832727 71.459776 
L 73.832727 71.459776 
L 83.670744 69.885615 
L 93.50876 71.459776 
L 103.346777 70.672696 
L 113.184793 71.459776 
L 123.02281 64.37605 
L 132.860826 65.16313 
L 142.698843 65.950211 
L 152.53686 65.16313 
L 162.374876 64.37605 
L 172.212893 69.885615 
L 182.050909 64.37605 
L 191.888926 64.37605 
L 201.726942 68.311453 
L 211.564959 64.37605 
L 221.402975 63.588969 
L 231.240992 62.014807 
L 241.079008 64.37605 
L 250.917025 62.801888 
L 260.755041 56.505242 
L 270.593058 68.311453 
L 280.431074 66.737292 
L 290.269091 71.459776 
L 300.107107 74.608099 
L 309.945124 87.201391 
L 319.78314 84.053068 
L 329.621157 116.323379 
L 339.459174 190.308969 
L 349.29719 90.349714 
L 359.135207 132.852075 
L 368.973223 138.36164 
L 378.81124 136.000398 
L 388.649256 139.935801 
L 398.487273 160.399901 
L 398.487273 144.658286 
L 398.487273 144.658286 
L 388.649256 134.426236 
L 378.81124 128.12959 
L 368.973223 130.490832 
L 359.135207 123.407106 
L 349.29719 83.265988 
L 339.459174 187.160646 
L 329.621157 106.091329 
L 319.78314 76.969342 
L 309.945124 76.969342 
L 300.107107 71.459776 
L 290.269091 71.459776 
L 280.431074 66.737292 
L 270.593058 68.311453 
L 260.755041 56.505242 
L 250.917025 62.801888 
L 241.079008 64.37605 
L 231.240992 62.014807 
L 221.402975 63.588969 
L 211.564959 64.37605 
L 201.726942 68.311453 
L 191.888926 64.37605 
L 182.050909 64.37605 
L 172.212893 69.885615 
L 162.374876 64.37605 
L 152.53686 65.16313 
L 142.698843 65.950211 
L 132.860826 65.16313 
L 123.02281 64.37605 
L 113.184793 71.459776 
L 103.346777 70.672696 
L 93.50876 71.459776 
L 83.670744 69.885615 
L 73.832727 71.459776 
z
" clip-path="url(#p38e0f0aa6c)" style="fill: #17becf"/>
   </g>
   <g id="PolyCollection_31">
    <path d="M 73.832727 71.459776 
L 73.832727 71.459776 
L 83.670744 69.885615 
L 93.50876 71.459776 
L 103.346777 70.672696 
L 113.184793 71.459776 
L 123.02281 64.37605 
L 132.860826 65.16313 
L 142.698843 65.950211 
L 152.53686 65.16313 
L 162.374876 64.37605 
L 172.212893 69.885615 
L 182.050909 64.37605 
L 191.888926 64.37605 
L 201.726942 68.311453 
L 211.564959 64.37605 
L 221.402975 63.588969 
L 231.240992 62.014807 
L 241.079008 64.37605 
L 250.917025 62.801888 
L 260.755041 56.505242 
L 270.593058 68.311453 
L 280.431074 66.737292 
L 290.269091 71.459776 
L 300.107107 71.459776 
L 309.945124 76.969342 
L 319.78314 76.969342 
L 329.621157 106.091329 
L 339.459174 187.160646 
L 349.29719 83.265988 
L 359.135207 123.407106 
L 368.973223 130.490832 
L 378.81124 128.12959 
L 388.649256 134.426236 
L 398.487273 144.658286 
L 398.487273 139.935801 
L 398.487273 139.935801 
L 388.649256 128.12959 
L 378.81124 124.194186 
L 368.973223 124.194186 
L 359.135207 117.11046 
L 349.29719 77.756422 
L 339.459174 179.289839 
L 329.621157 97.433441 
L 319.78314 69.098534 
L 309.945124 70.672696 
L 300.107107 70.672696 
L 290.269091 71.459776 
L 280.431074 66.737292 
L 270.593058 68.311453 
L 260.755041 56.505242 
L 250.917025 62.801888 
L 241.079008 64.37605 
L 231.240992 62.014807 
L 221.402975 63.588969 
L 211.564959 64.37605 
L 201.726942 68.311453 
L 191.888926 64.37605 
L 182.050909 64.37605 
L 172.212893 69.885615 
L 162.374876 64.37605 
L 152.53686 65.16313 
L 142.698843 65.950211 
L 132.860826 65.16313 
L 123.02281 64.37605 
L 113.184793 71.459776 
L 103.346777 70.672696 
L 93.50876 71.459776 
L 83.670744 69.885615 
L 73.832727 71.459776 
z
" clip-path="url(#p38e0f0aa6c)" style="fill: #1f77b4"/>
   </g>
   <g id="PolyCollection_32">
    <path d="M 73.832727 71.459776 
L 73.832727 71.459776 
L 83.670744 69.885615 
L 93.50876 71.459776 
L 103.346777 70.672696 
L 113.184793 71.459776 
L 123.02281 64.37605 
L 132.860826 65.16313 
L 142.698843 65.950211 
L 152.53686 65.16313 
L 162.374876 64.37605 
L 172.212893 69.885615 
L 182.050909 64.37605 
L 191.888926 64.37605 
L 201.726942 68.311453 
L 211.564959 64.37605 
L 221.402975 63.588969 
L 231.240992 62.014807 
L 241.079008 64.37605 
L 250.917025 62.801888 
L 260.755041 56.505242 
L 270.593058 68.311453 
L 280.431074 66.737292 
L 290.269091 71.459776 
L 300.107107 70.672696 
L 309.945124 70.672696 
L 319.78314 69.098534 
L 329.621157 97.433441 
L 339.459174 179.289839 
L 349.29719 77.756422 
L 359.135207 117.11046 
L 368.973223 124.194186 
L 378.81124 124.194186 
L 388.649256 128.12959 
L 398.487273 139.935801 
L 398.487273 126.555429 
L 398.487273 126.555429 
L 388.649256 117.11046 
L 378.81124 114.749217 
L 368.973223 112.387975 
L 359.135207 108.452571 
L 349.29719 71.459776 
L 339.459174 166.696547 
L 329.621157 76.969342 
L 319.78314 68.311453 
L 309.945124 70.672696 
L 300.107107 70.672696 
L 290.269091 71.459776 
L 280.431074 66.737292 
L 270.593058 68.311453 
L 260.755041 56.505242 
L 250.917025 62.801888 
L 241.079008 64.37605 
L 231.240992 62.014807 
L 221.402975 63.588969 
L 211.564959 64.37605 
L 201.726942 68.311453 
L 191.888926 64.37605 
L 182.050909 64.37605 
L 172.212893 69.885615 
L 162.374876 64.37605 
L 152.53686 65.16313 
L 142.698843 65.950211 
L 132.860826 65.16313 
L 123.02281 64.37605 
L 113.184793 71.459776 
L 103.346777 70.672696 
L 93.50876 71.459776 
L 83.670744 69.885615 
L 73.832727 71.459776 
z
" clip-path="url(#p38e0f0aa6c)" style="fill: #ff7f0e"/>
   </g>
   <g id="PolyCollection_33">
    <path d="M 73.832727 71.459776 
L 73.832727 71.459776 
L 83.670744 69.885615 
L 93.50876 71.459776 
L 103.346777 70.672696 
L 113.184793 71.459776 
L 123.02281 64.37605 
L 132.860826 65.16313 
L 142.698843 65.950211 
L 152.53686 65.16313 
L 162.374876 64.37605 
L 172.212893 69.885615 
L 182.050909 64.37605 
L 191.888926 64.37605 
L 201.726942 68.311453 
L 211.564959 64.37605 
L 221.402975 63.588969 
L 231.240992 62.014807 
L 241.079008 64.37605 
L 250.917025 62.801888 
L 260.755041 56.505242 
L 270.593058 68.311453 
L 280.431074 66.737292 
L 290.269091 71.459776 
L 300.107107 70.672696 
L 309.945124 70.672696 
L 319.78314 68.311453 
L 329.621157 76.969342 
L 339.459174 166.696547 
L 349.29719 71.459776 
L 359.135207 108.452571 
L 368.973223 112.387975 
L 378.81124 114.749217 
L 388.649256 117.11046 
L 398.487273 126.555429 
L 398.487273 118.684621 
L 398.487273 118.684621 
L 388.649256 96.64636 
L 378.81124 110.813814 
L 368.973223 88.775553 
L 359.135207 92.710957 
L 349.29719 65.950211 
L 339.459174 148.593689 
L 329.621157 73.821019 
L 319.78314 68.311453 
L 309.945124 70.672696 
L 300.107107 70.672696 
L 290.269091 71.459776 
L 280.431074 66.737292 
L 270.593058 68.311453 
L 260.755041 56.505242 
L 250.917025 62.801888 
L 241.079008 64.37605 
L 231.240992 62.014807 
L 221.402975 63.588969 
L 211.564959 64.37605 
L 201.726942 68.311453 
L 191.888926 64.37605 
L 182.050909 64.37605 
L 172.212893 69.885615 
L 162.374876 64.37605 
L 152.53686 65.16313 
L 142.698843 65.950211 
L 132.860826 65.16313 
L 123.02281 64.37605 
L 113.184793 71.459776 
L 103.346777 70.672696 
L 93.50876 71.459776 
L 83.670744 69.885615 
L 73.832727 71.459776 
z
" clip-path="url(#p38e0f0aa6c)" style="fill: #2ca02c"/>
   </g>
   <g id="PolyCollection_34">
    <path d="M 73.832727 71.459776 
L 73.832727 71.459776 
L 83.670744 69.885615 
L 93.50876 71.459776 
L 103.346777 70.672696 
L 113.184793 71.459776 
L 123.02281 64.37605 
L 132.860826 65.16313 
L 142.698843 65.950211 
L 152.53686 65.16313 
L 162.374876 64.37605 
L 172.212893 69.885615 
L 182.050909 64.37605 
L 191.888926 64.37605 
L 201.726942 68.311453 
L 211.564959 64.37605 
L 221.402975 63.588969 
L 231.240992 62.014807 
L 241.079008 64.37605 
L 250.917025 62.801888 
L 260.755041 56.505242 
L 270.593058 68.311453 
L 280.431074 66.737292 
L 290.269091 71.459776 
L 300.107107 70.672696 
L 309.945124 70.672696 
L 319.78314 68.311453 
L 329.621157 73.821019 
L 339.459174 148.593689 
L 349.29719 65.950211 
L 359.135207 92.710957 
L 368.973223 88.775553 
L 378.81124 110.813814 
L 388.649256 96.64636 
L 398.487273 118.684621 
L 398.487273 109.239652 
L 398.487273 109.239652 
L 388.649256 88.775553 
L 378.81124 106.87841 
L 368.973223 84.840149 
L 359.135207 83.265988 
L 349.29719 62.801888 
L 339.459174 72.246857 
L 329.621157 70.672696 
L 319.78314 68.311453 
L 309.945124 70.672696 
L 300.107107 70.672696 
L 290.269091 71.459776 
L 280.431074 66.737292 
L 270.593058 68.311453 
L 260.755041 56.505242 
L 250.917025 62.801888 
L 241.079008 64.37605 
L 231.240992 62.014807 
L 221.402975 63.588969 
L 211.564959 64.37605 
L 201.726942 68.311453 
L 191.888926 64.37605 
L 182.050909 64.37605 
L 172.212893 69.885615 
L 162.374876 64.37605 
L 152.53686 65.16313 
L 142.698843 65.950211 
L 132.860826 65.16313 
L 123.02281 64.37605 
L 113.184793 71.459776 
L 103.346777 70.672696 
L 93.50876 71.459776 
L 83.670744 69.885615 
L 73.832727 71.459776 
z
" clip-path="url(#p38e0f0aa6c)" style="fill: #d62728"/>
   </g>
   <g id="PolyCollection_35">
    <path d="M 73.832727 71.459776 
L 73.832727 71.459776 
L 83.670744 69.885615 
L 93.50876 71.459776 
L 103.346777 70.672696 
L 113.184793 71.459776 
L 123.02281 64.37605 
L 132.860826 65.16313 
L 142.698843 65.950211 
L 152.53686 65.16313 
L 162.374876 64.37605 
L 172.212893 69.885615 
L 182.050909 64.37605 
L 191.888926 64.37605 
L 201.726942 68.311453 
L 211.564959 64.37605 
L 221.402975 63.588969 
L 231.240992 62.014807 
L 241.079008 64.37605 
L 250.917025 62.801888 
L 260.755041 56.505242 
L 270.593058 68.311453 
L 280.431074 66.737292 
L 290.269091 71.459776 
L 300.107107 70.672696 
L 309.945124 70.672696 
L 319.78314 68.311453 
L 329.621157 70.672696 
L 339.459174 72.246857 
L 349.29719 62.801888 
L 359.135207 83.265988 
L 368.973223 84.840149 
L 378.81124 106.87841 
L 388.649256 88.775553 
L 398.487273 109.239652 
L 398.487273 84.053068 
L 398.487273 84.053068 
L 388.649256 74.608099 
L 378.81124 73.033938 
L 368.973223 73.033938 
L 359.135207 66.737292 
L 349.29719 54.144 
L 339.459174 64.37605 
L 329.621157 69.885615 
L 319.78314 68.311453 
L 309.945124 70.672696 
L 300.107107 70.672696 
L 290.269091 71.459776 
L 280.431074 66.737292 
L 270.593058 68.311453 
L 260.755041 56.505242 
L 250.917025 62.801888 
L 241.079008 64.37605 
L 231.240992 62.014807 
L 221.402975 63.588969 
L 211.564959 64.37605 
L 201.726942 68.311453 
L 191.888926 64.37605 
L 182.050909 64.37605 
L 172.212893 69.885615 
L 162.374876 64.37605 
L 152.53686 65.16313 
L 142.698843 65.950211 
L 132.860826 65.16313 
L 123.02281 64.37605 
L 113.184793 71.459776 
L 103.346777 70.672696 
L 93.50876 71.459776 
L 83.670744 69.885615 
L 73.832727 71.459776 
z
" clip-path="url(#p38e0f0aa6c)" style="fill: #9467bd"/>
   </g>
   <g id="PolyCollection_36">
    <path d="M 73.832727 71.459776 
L 73.832727 71.459776 
L 83.670744 69.885615 
L 93.50876 71.459776 
L 103.346777 70.672696 
L 113.184793 71.459776 
L 123.02281 64.37605 
L 132.860826 65.16313 
L 142.698843 65.950211 
L 152.53686 65.16313 
L 162.374876 64.37605 
L 172.212893 69.885615 
L 182.050909 64.37605 
L 191.888926 64.37605 
L 201.726942 68.311453 
L 211.564959 64.37605 
L 221.402975 63.588969 
L 231.240992 62.014807 
L 241.079008 64.37605 
L 250.917025 62.801888 
L 260.755041 56.505242 
L 270.593058 68.311453 
L 280.431074 66.737292 
L 290.269091 71.459776 
L 300.107107 70.672696 
L 309.945124 70.672696 
L 319.78314 68.311453 
L 329.621157 69.885615 
L 339.459174 64.37605 
L 349.29719 54.144 
L 359.135207 66.737292 
L 368.973223 73.033938 
L 378.81124 73.033938 
L 388.649256 74.608099 
L 398.487273 84.053068 
L 398.487273 77.756422 
L 398.487273 77.756422 
L 388.649256 68.311453 
L 378.81124 68.311453 
L 368.973223 72.246857 
L 359.135207 66.737292 
L 349.29719 54.144 
L 339.459174 64.37605 
L 329.621157 69.885615 
L 319.78314 68.311453 
L 309.945124 70.672696 
L 300.107107 70.672696 
L 290.269091 71.459776 
L 280.431074 66.737292 
L 270.593058 68.311453 
L 260.755041 56.505242 
L 250.917025 62.801888 
L 241.079008 64.37605 
L 231.240992 62.014807 
L 221.402975 63.588969 
L 211.564959 64.37605 
L 201.726942 68.311453 
L 191.888926 64.37605 
L 182.050909 64.37605 
L 172.212893 69.885615 
L 162.374876 64.37605 
L 152.53686 65.16313 
L 142.698843 65.950211 
L 132.860826 65.16313 
L 123.02281 64.37605 
L 113.184793 71.459776 
L 103.346777 70.672696 
L 93.50876 71.459776 
L 83.670744 69.885615 
L 73.832727 71.459776 
z
" clip-path="url(#p38e0f0aa6c)" style="fill: #8c564b"/>
   </g>
   <g id="PolyCollection_37">
    <path d="M 73.832727 71.459776 
L 73.832727 71.459776 
L 83.670744 69.885615 
L 93.50876 71.459776 
L 103.346777 70.672696 
L 113.184793 71.459776 
L 123.02281 64.37605 
L 132.860826 65.16313 
L 142.698843 65.950211 
L 152.53686 65.16313 
L 162.374876 64.37605 
L 172.212893 69.885615 
L 182.050909 64.37605 
L 191.888926 64.37605 
L 201.726942 68.311453 
L 211.564959 64.37605 
L 221.402975 63.588969 
L 231.240992 62.014807 
L 241.079008 64.37605 
L 250.917025 62.801888 
L 260.755041 56.505242 
L 270.593058 68.311453 
L 280.431074 66.737292 
L 290.269091 71.459776 
L 300.107107 70.672696 
L 309.945124 70.672696 
L 319.78314 68.311453 
L 329.621157 69.885615 
L 339.459174 64.37605 
L 349.29719 54.144 
L 359.135207 66.737292 
L 368.973223 72.246857 
L 378.81124 68.311453 
L 388.649256 68.311453 
L 398.487273 77.756422 
L 398.487273 70.672696 
L 398.487273 70.672696 
L 388.649256 62.014807 
L 378.81124 62.801888 
L 368.973223 71.459776 
L 359.135207 66.737292 
L 349.29719 54.144 
L 339.459174 64.37605 
L 329.621157 69.885615 
L 319.78314 68.311453 
L 309.945124 70.672696 
L 300.107107 70.672696 
L 290.269091 71.459776 
L 280.431074 66.737292 
L 270.593058 68.311453 
L 260.755041 56.505242 
L 250.917025 62.801888 
L 241.079008 64.37605 
L 231.240992 62.014807 
L 221.402975 63.588969 
L 211.564959 64.37605 
L 201.726942 68.311453 
L 191.888926 64.37605 
L 182.050909 64.37605 
L 172.212893 69.885615 
L 162.374876 64.37605 
L 152.53686 65.16313 
L 142.698843 65.950211 
L 132.860826 65.16313 
L 123.02281 64.37605 
L 113.184793 71.459776 
L 103.346777 70.672696 
L 93.50876 71.459776 
L 83.670744 69.885615 
L 73.832727 71.459776 
z
" clip-path="url(#p38e0f0aa6c)" style="fill: #e377c2"/>
   </g>
   <g id="PolyCollection_38">
    <path d="M 73.832727 71.459776 
L 73.832727 71.459776 
L 83.670744 69.885615 
L 93.50876 71.459776 
L 103.346777 70.672696 
L 113.184793 71.459776 
L 123.02281 64.37605 
L 132.860826 65.16313 
L 142.698843 65.950211 
L 152.53686 65.16313 
L 162.374876 64.37605 
L 172.212893 69.885615 
L 182.050909 64.37605 
L 191.888926 64.37605 
L 201.726942 68.311453 
L 211.564959 64.37605 
L 221.402975 63.588969 
L 231.240992 62.014807 
L 241.079008 64.37605 
L 250.917025 62.801888 
L 260.755041 56.505242 
L 270.593058 68.311453 
L 280.431074 66.737292 
L 290.269091 71.459776 
L 300.107107 70.672696 
L 309.945124 70.672696 
L 319.78314 68.311453 
L 329.621157 69.885615 
L 339.459174 64.37605 
L 349.29719 54.144 
L 359.135207 66.737292 
L 368.973223 71.459776 
L 378.81124 62.801888 
L 388.649256 62.014807 
L 398.487273 70.672696 
L 398.487273 65.16313 
L 398.487273 65.16313 
L 388.649256 61.227727 
L 378.81124 62.801888 
L 368.973223 71.459776 
L 359.135207 66.737292 
L 349.29719 54.144 
L 339.459174 64.37605 
L 329.621157 69.885615 
L 319.78314 68.311453 
L 309.945124 70.672696 
L 300.107107 70.672696 
L 290.269091 71.459776 
L 280.431074 66.737292 
L 270.593058 68.311453 
L 260.755041 56.505242 
L 250.917025 62.801888 
L 241.079008 64.37605 
L 231.240992 62.014807 
L 221.402975 63.588969 
L 211.564959 64.37605 
L 201.726942 68.311453 
L 191.888926 64.37605 
L 182.050909 64.37605 
L 172.212893 69.885615 
L 162.374876 64.37605 
L 152.53686 65.16313 
L 142.698843 65.950211 
L 132.860826 65.16313 
L 123.02281 64.37605 
L 113.184793 71.459776 
L 103.346777 70.672696 
L 93.50876 71.459776 
L 83.670744 69.885615 
L 73.832727 71.459776 
z
" clip-path="url(#p38e0f0aa6c)" style="fill: #7f7f7f"/>
   </g>
   <g id="matplotlib.axis_1">
    <g id="xtick_1">
     <g id="line2d_1">
      <defs>
       <path id="m366decaaea" d="M 0 0 
L 0 3.5 
" style="stroke: #000000; stroke-width: 0.8"/>
      </defs>
      <g>
       <use xlink:href="#m366decaaea" x="73.832727" y="307.584" style="stroke: #000000; stroke-width: 0.8"/>
      </g>
     </g>
     <g id="text_1">
      <!-- 0 -->
      <g transform="translate(70.651477 322.182437) scale(0.1 -0.1)">
       <defs>
        <path id="DejaVuSans-30" d="M 2034 4250 
Q 1547 4250 1301 3770 
Q 1056 3291 1056 2328 
Q 1056 1369 1301 889 
Q 1547 409 2034 409 
Q 2525 409 2770 889 
Q 3016 1369 3016 2328 
Q 3016 3291 2770 3770 
Q 2525 4250 2034 4250 
z
M 2034 4750 
Q 2819 4750 3233 4129 
Q 3647 3509 3647 2328 
Q 3647 1150 3233 529 
Q 2819 -91 2034 -91 
Q 1250 -91 836 529 
Q 422 1150 422 2328 
Q 422 3509 836 4129 
Q 1250 4750 2034 4750 
z
" transform="scale(0.015625)"/>
       </defs>
       <use xlink:href="#DejaVuSans-30"/>
      </g>
     </g>
    </g>
    <g id="xtick_2">
     <g id="line2d_2">
      <g>
       <use xlink:href="#m366decaaea" x="123.02281" y="307.584" style="stroke: #000000; stroke-width: 0.8"/>
      </g>
     </g>
     <g id="text_2">
      <!-- 5 -->
      <g transform="translate(119.84156 322.182437) scale(0.1 -0.1)">
       <defs>
        <path id="DejaVuSans-35" d="M 691 4666 
L 3169 4666 
L 3169 4134 
L 1269 4134 
L 1269 2991 
Q 1406 3038 1543 3061 
Q 1681 3084 1819 3084 
Q 2600 3084 3056 2656 
Q 3513 2228 3513 1497 
Q 3513 744 3044 326 
Q 2575 -91 1722 -91 
Q 1428 -91 1123 -41 
Q 819 9 494 109 
L 494 744 
Q 775 591 1075 516 
Q 1375 441 1709 441 
Q 2250 441 2565 725 
Q 2881 1009 2881 1497 
Q 2881 1984 2565 2268 
Q 2250 2553 1709 2553 
Q 1456 2553 1204 2497 
Q 953 2441 691 2322 
L 691 4666 
z
" transform="scale(0.015625)"/>
       </defs>
       <use xlink:href="#DejaVuSans-35"/>
      </g>
     </g>
    </g>
    <g id="xtick_3">
     <g id="line2d_3">
      <g>
       <use xlink:href="#m366decaaea" x="172.212893" y="307.584" style="stroke: #000000; stroke-width: 0.8"/>
      </g>
     </g>
     <g id="text_3">
      <!-- 10 -->
      <g transform="translate(165.850393 322.182437) scale(0.1 -0.1)">
       <defs>
        <path id="DejaVuSans-31" d="M 794 531 
L 1825 531 
L 1825 4091 
L 703 3866 
L 703 4441 
L 1819 4666 
L 2450 4666 
L 2450 531 
L 3481 531 
L 3481 0 
L 794 0 
L 794 531 
z
" transform="scale(0.015625)"/>
       </defs>
       <use xlink:href="#DejaVuSans-31"/>
       <use xlink:href="#DejaVuSans-30" x="63.623047"/>
      </g>
     </g>
    </g>
    <g id="xtick_4">
     <g id="line2d_4">
      <g>
       <use xlink:href="#m366decaaea" x="221.402975" y="307.584" style="stroke: #000000; stroke-width: 0.8"/>
      </g>
     </g>
     <g id="text_4">
      <!-- 15 -->
      <g transform="translate(215.040475 322.182437) scale(0.1 -0.1)">
       <use xlink:href="#DejaVuSans-31"/>
       <use xlink:href="#DejaVuSans-35" x="63.623047"/>
      </g>
     </g>
    </g>
    <g id="xtick_5">
     <g id="line2d_5">
      <g>
       <use xlink:href="#m366decaaea" x="270.593058" y="307.584" style="stroke: #000000; stroke-width: 0.8"/>
      </g>
     </g>
     <g id="text_5">
      <!-- 20 -->
      <g transform="translate(264.230558 322.182437) scale(0.1 -0.1)">
       <defs>
        <path id="DejaVuSans-32" d="M 1228 531 
L 3431 531 
L 3431 0 
L 469 0 
L 469 531 
Q 828 903 1448 1529 
Q 2069 2156 2228 2338 
Q 2531 2678 2651 2914 
Q 2772 3150 2772 3378 
Q 2772 3750 2511 3984 
Q 2250 4219 1831 4219 
Q 1534 4219 1204 4116 
Q 875 4013 500 3803 
L 500 4441 
Q 881 4594 1212 4672 
Q 1544 4750 1819 4750 
Q 2544 4750 2975 4387 
Q 3406 4025 3406 3419 
Q 3406 3131 3298 2873 
Q 3191 2616 2906 2266 
Q 2828 2175 2409 1742 
Q 1991 1309 1228 531 
z
" transform="scale(0.015625)"/>
       </defs>
       <use xlink:href="#DejaVuSans-32"/>
       <use xlink:href="#DejaVuSans-30" x="63.623047"/>
      </g>
     </g>
    </g>
    <g id="xtick_6">
     <g id="line2d_6">
      <g>
       <use xlink:href="#m366decaaea" x="319.78314" y="307.584" style="stroke: #000000; stroke-width: 0.8"/>
      </g>
     </g>
     <g id="text_6">
      <!-- 25 -->
      <g transform="translate(313.42064 322.182437) scale(0.1 -0.1)">
       <use xlink:href="#DejaVuSans-32"/>
       <use xlink:href="#DejaVuSans-35" x="63.623047"/>
      </g>
     </g>
    </g>
    <g id="xtick_7">
     <g id="line2d_7">
      <g>
       <use xlink:href="#m366decaaea" x="368.973223" y="307.584" style="stroke: #000000; stroke-width: 0.8"/>
      </g>
     </g>
     <g id="text_7">
      <!-- 30 -->
      <g transform="translate(362.610723 322.182437) scale(0.1 -0.1)">
       <defs>
        <path id="DejaVuSans-33" d="M 2597 2516 
Q 3050 2419 3304 2112 
Q 3559 1806 3559 1356 
Q 3559 666 3084 287 
Q 2609 -91 1734 -91 
Q 1441 -91 1130 -33 
Q 819 25 488 141 
L 488 750 
Q 750 597 1062 519 
Q 1375 441 1716 441 
Q 2309 441 2620 675 
Q 2931 909 2931 1356 
Q 2931 1769 2642 2001 
Q 2353 2234 1838 2234 
L 1294 2234 
L 1294 2753 
L 1863 2753 
Q 2328 2753 2575 2939 
Q 2822 3125 2822 3475 
Q 2822 3834 2567 4026 
Q 2313 4219 1838 4219 
Q 1578 4219 1281 4162 
Q 984 4106 628 3988 
L 628 4550 
Q 988 4650 1302 4700 
Q 1616 4750 1894 4750 
Q 2613 4750 3031 4423 
Q 3450 4097 3450 3541 
Q 3450 3153 3228 2886 
Q 3006 2619 2597 2516 
z
" transform="scale(0.015625)"/>
       </defs>
       <use xlink:href="#DejaVuSans-33"/>
       <use xlink:href="#DejaVuSans-30" x="63.623047"/>
      </g>
     </g>
    </g>
    <g id="text_8">
     <!-- Generations -->
     <g transform="translate(205.662344 335.860562) scale(0.1 -0.1)">
      <defs>
       <path id="DejaVuSans-47" d="M 3809 666 
L 3809 1919 
L 2778 1919 
L 2778 2438 
L 4434 2438 
L 4434 434 
Q 4069 175 3628 42 
Q 3188 -91 2688 -91 
Q 1594 -91 976 548 
Q 359 1188 359 2328 
Q 359 3472 976 4111 
Q 1594 4750 2688 4750 
Q 3144 4750 3555 4637 
Q 3966 4525 4313 4306 
L 4313 3634 
Q 3963 3931 3569 4081 
Q 3175 4231 2741 4231 
Q 1884 4231 1454 3753 
Q 1025 3275 1025 2328 
Q 1025 1384 1454 906 
Q 1884 428 2741 428 
Q 3075 428 3337 486 
Q 3600 544 3809 666 
z
" transform="scale(0.015625)"/>
       <path id="DejaVuSans-65" d="M 3597 1894 
L 3597 1613 
L 953 1613 
Q 991 1019 1311 708 
Q 1631 397 2203 397 
Q 2534 397 2845 478 
Q 3156 559 3463 722 
L 3463 178 
Q 3153 47 2828 -22 
Q 2503 -91 2169 -91 
Q 1331 -91 842 396 
Q 353 884 353 1716 
Q 353 2575 817 3079 
Q 1281 3584 2069 3584 
Q 2775 3584 3186 3129 
Q 3597 2675 3597 1894 
z
M 3022 2063 
Q 3016 2534 2758 2815 
Q 2500 3097 2075 3097 
Q 1594 3097 1305 2825 
Q 1016 2553 972 2059 
L 3022 2063 
z
" transform="scale(0.015625)"/>
       <path id="DejaVuSans-6e" d="M 3513 2113 
L 3513 0 
L 2938 0 
L 2938 2094 
Q 2938 2591 2744 2837 
Q 2550 3084 2163 3084 
Q 1697 3084 1428 2787 
Q 1159 2491 1159 1978 
L 1159 0 
L 581 0 
L 581 3500 
L 1159 3500 
L 1159 2956 
Q 1366 3272 1645 3428 
Q 1925 3584 2291 3584 
Q 2894 3584 3203 3211 
Q 3513 2838 3513 2113 
z
" transform="scale(0.015625)"/>
       <path id="DejaVuSans-72" d="M 2631 2963 
Q 2534 3019 2420 3045 
Q 2306 3072 2169 3072 
Q 1681 3072 1420 2755 
Q 1159 2438 1159 1844 
L 1159 0 
L 581 0 
L 581 3500 
L 1159 3500 
L 1159 2956 
Q 1341 3275 1631 3429 
Q 1922 3584 2338 3584 
Q 2397 3584 2469 3576 
Q 2541 3569 2628 3553 
L 2631 2963 
z
" transform="scale(0.015625)"/>
       <path id="DejaVuSans-61" d="M 2194 1759 
Q 1497 1759 1228 1600 
Q 959 1441 959 1056 
Q 959 750 1161 570 
Q 1363 391 1709 391 
Q 2188 391 2477 730 
Q 2766 1069 2766 1631 
L 2766 1759 
L 2194 1759 
z
M 3341 1997 
L 3341 0 
L 2766 0 
L 2766 531 
Q 2569 213 2275 61 
Q 1981 -91 1556 -91 
Q 1019 -91 701 211 
Q 384 513 384 1019 
Q 384 1609 779 1909 
Q 1175 2209 1959 2209 
L 2766 2209 
L 2766 2266 
Q 2766 2663 2505 2880 
Q 2244 3097 1772 3097 
Q 1472 3097 1187 3025 
Q 903 2953 641 2809 
L 641 3341 
Q 956 3463 1253 3523 
Q 1550 3584 1831 3584 
Q 2591 3584 2966 3190 
Q 3341 2797 3341 1997 
z
" transform="scale(0.015625)"/>
       <path id="DejaVuSans-74" d="M 1172 4494 
L 1172 3500 
L 2356 3500 
L 2356 3053 
L 1172 3053 
L 1172 1153 
Q 1172 725 1289 603 
Q 1406 481 1766 481 
L 2356 481 
L 2356 0 
L 1766 0 
Q 1100 0 847 248 
Q 594 497 594 1153 
L 594 3053 
L 172 3053 
L 172 3500 
L 594 3500 
L 594 4494 
L 1172 4494 
z
" transform="scale(0.015625)"/>
       <path id="DejaVuSans-69" d="M 603 3500 
L 1178 3500 
L 1178 0 
L 603 0 
L 603 3500 
z
M 603 4863 
L 1178 4863 
L 1178 4134 
L 603 4134 
L 603 4863 
z
" transform="scale(0.015625)"/>
       <path id="DejaVuSans-6f" d="M 1959 3097 
Q 1497 3097 1228 2736 
Q 959 2375 959 1747 
Q 959 1119 1226 758 
Q 1494 397 1959 397 
Q 2419 397 2687 759 
Q 2956 1122 2956 1747 
Q 2956 2369 2687 2733 
Q 2419 3097 1959 3097 
z
M 1959 3584 
Q 2709 3584 3137 3096 
Q 3566 2609 3566 1747 
Q 3566 888 3137 398 
Q 2709 -91 1959 -91 
Q 1206 -91 779 398 
Q 353 888 353 1747 
Q 353 2609 779 3096 
Q 1206 3584 1959 3584 
z
" transform="scale(0.015625)"/>
       <path id="DejaVuSans-73" d="M 2834 3397 
L 2834 2853 
Q 2591 2978 2328 3040 
Q 2066 3103 1784 3103 
Q 1356 3103 1142 2972 
Q 928 2841 928 2578 
Q 928 2378 1081 2264 
Q 1234 2150 1697 2047 
L 1894 2003 
Q 2506 1872 2764 1633 
Q 3022 1394 3022 966 
Q 3022 478 2636 193 
Q 2250 -91 1575 -91 
Q 1294 -91 989 -36 
Q 684 19 347 128 
L 347 722 
Q 666 556 975 473 
Q 1284 391 1588 391 
Q 1994 391 2212 530 
Q 2431 669 2431 922 
Q 2431 1156 2273 1281 
Q 2116 1406 1581 1522 
L 1381 1569 
Q 847 1681 609 1914 
Q 372 2147 372 2553 
Q 372 3047 722 3315 
Q 1072 3584 1716 3584 
Q 2034 3584 2315 3537 
Q 2597 3491 2834 3397 
z
" transform="scale(0.015625)"/>
      </defs>
      <use xlink:href="#DejaVuSans-47"/>
      <use xlink:href="#DejaVuSans-65" x="77.490234"/>
      <use xlink:href="#DejaVuSans-6e" x="139.013672"/>
      <use xlink:href="#DejaVuSans-65" x="202.392578"/>
      <use xlink:href="#DejaVuSans-72" x="263.916016"/>
      <use xlink:href="#DejaVuSans-61" x="305.029297"/>
      <use xlink:href="#DejaVuSans-74" x="366.308594"/>
      <use xlink:href="#DejaVuSans-69" x="405.517578"/>
      <use xlink:href="#DejaVuSans-6f" x="433.300781"/>
      <use xlink:href="#DejaVuSans-6e" x="494.482422"/>
      <use xlink:href="#DejaVuSans-73" x="557.861328"/>
     </g>
    </g>
   </g>
   <g id="matplotlib.axis_2">
    <g id="ytick_1">
     <g id="line2d_8">
      <defs>
       <path id="m11596f61f8" d="M 0 0 
L -3.5 0 
" style="stroke: #000000; stroke-width: 0.8"/>
      </defs>
      <g>
       <use xlink:href="#m11596f61f8" x="57.6" y="307.584" style="stroke: #000000; stroke-width: 0.8"/>
      </g>
     </g>
     <g id="text_9">
      <!-- 0 -->
      <g transform="translate(44.2375 311.383219) scale(0.1 -0.1)">
       <use xlink:href="#DejaVuSans-30"/>
      </g>
     </g>
    </g>
    <g id="ytick_2">
     <g id="line2d_9">
      <g>
       <use xlink:href="#m11596f61f8" x="57.6" y="268.229963" style="stroke: #000000; stroke-width: 0.8"/>
      </g>
     </g>
     <g id="text_10">
      <!-- 50 -->
      <g transform="translate(37.875 272.029181) scale(0.1 -0.1)">
       <use xlink:href="#DejaVuSans-35"/>
       <use xlink:href="#DejaVuSans-30" x="63.623047"/>
      </g>
     </g>
    </g>
    <g id="ytick_3">
     <g id="line2d_10">
      <g>
       <use xlink:href="#m11596f61f8" x="57.6" y="228.875925" style="stroke: #000000; stroke-width: 0.8"/>
      </g>
     </g>
     <g id="text_11">
      <!-- 100 -->
      <g transform="translate(31.5125 232.675144) scale(0.1 -0.1)">
       <use xlink:href="#DejaVuSans-31"/>
       <use xlink:href="#DejaVuSans-30" x="63.623047"/>
       <use xlink:href="#DejaVuSans-30" x="127.246094"/>
      </g>
     </g>
    </g>
    <g id="ytick_4">
     <g id="line2d_11">
      <g>
       <use xlink:href="#m11596f61f8" x="57.6" y="189.521888" style="stroke: #000000; stroke-width: 0.8"/>
      </g>
     </g>
     <g id="text_12">
      <!-- 150 -->
      <g transform="translate(31.5125 193.321107) scale(0.1 -0.1)">
       <use xlink:href="#DejaVuSans-31"/>
       <use xlink:href="#DejaVuSans-35" x="63.623047"/>
       <use xlink:href="#DejaVuSans-30" x="127.246094"/>
      </g>
     </g>
    </g>
    <g id="ytick_5">
     <g id="line2d_12">
      <g>
       <use xlink:href="#m11596f61f8" x="57.6" y="150.167851" style="stroke: #000000; stroke-width: 0.8"/>
      </g>
     </g>
     <g id="text_13">
      <!-- 200 -->
      <g transform="translate(31.5125 153.96707) scale(0.1 -0.1)">
       <use xlink:href="#DejaVuSans-32"/>
       <use xlink:href="#DejaVuSans-30" x="63.623047"/>
       <use xlink:href="#DejaVuSans-30" x="127.246094"/>
      </g>
     </g>
    </g>
    <g id="ytick_6">
     <g id="line2d_13">
      <g>
       <use xlink:href="#m11596f61f8" x="57.6" y="110.813814" style="stroke: #000000; stroke-width: 0.8"/>
      </g>
     </g>
     <g id="text_14">
      <!-- 250 -->
      <g transform="translate(31.5125 114.613032) scale(0.1 -0.1)">
       <use xlink:href="#DejaVuSans-32"/>
       <use xlink:href="#DejaVuSans-35" x="63.623047"/>
       <use xlink:href="#DejaVuSans-30" x="127.246094"/>
      </g>
     </g>
    </g>
    <g id="ytick_7">
     <g id="line2d_14">
      <g>
       <use xlink:href="#m11596f61f8" x="57.6" y="71.459776" style="stroke: #000000; stroke-width: 0.8"/>
      </g>
     </g>
     <g id="text_15">
      <!-- 300 -->
      <g transform="translate(31.5125 75.258995) scale(0.1 -0.1)">
       <use xlink:href="#DejaVuSans-33"/>
       <use xlink:href="#DejaVuSans-30" x="63.623047"/>
       <use xlink:href="#DejaVuSans-30" x="127.246094"/>
      </g>
     </g>
    </g>
    <g id="text_16">
     <!-- Size per Species -->
     <g transform="translate(25.432812 215.520969) rotate(-90) scale(0.1 -0.1)">
      <defs>
       <path id="DejaVuSans-53" d="M 3425 4513 
L 3425 3897 
Q 3066 4069 2747 4153 
Q 2428 4238 2131 4238 
Q 1616 4238 1336 4038 
Q 1056 3838 1056 3469 
Q 1056 3159 1242 3001 
Q 1428 2844 1947 2747 
L 2328 2669 
Q 3034 2534 3370 2195 
Q 3706 1856 3706 1288 
Q 3706 609 3251 259 
Q 2797 -91 1919 -91 
Q 1588 -91 1214 -16 
Q 841 59 441 206 
L 441 856 
Q 825 641 1194 531 
Q 1563 422 1919 422 
Q 2459 422 2753 634 
Q 3047 847 3047 1241 
Q 3047 1584 2836 1778 
Q 2625 1972 2144 2069 
L 1759 2144 
Q 1053 2284 737 2584 
Q 422 2884 422 3419 
Q 422 4038 858 4394 
Q 1294 4750 2059 4750 
Q 2388 4750 2728 4690 
Q 3069 4631 3425 4513 
z
" transform="scale(0.015625)"/>
       <path id="DejaVuSans-7a" d="M 353 3500 
L 3084 3500 
L 3084 2975 
L 922 459 
L 3084 459 
L 3084 0 
L 275 0 
L 275 525 
L 2438 3041 
L 353 3041 
L 353 3500 
z
" transform="scale(0.015625)"/>
       <path id="DejaVuSans-20" transform="scale(0.015625)"/>
       <path id="DejaVuSans-70" d="M 1159 525 
L 1159 -1331 
L 581 -1331 
L 581 3500 
L 1159 3500 
L 1159 2969 
Q 1341 3281 1617 3432 
Q 1894 3584 2278 3584 
Q 2916 3584 3314 3078 
Q 3713 2572 3713 1747 
Q 3713 922 3314 415 
Q 2916 -91 2278 -91 
Q 1894 -91 1617 61 
Q 1341 213 1159 525 
z
M 3116 1747 
Q 3116 2381 2855 2742 
Q 2594 3103 2138 3103 
Q 1681 3103 1420 2742 
Q 1159 2381 1159 1747 
Q 1159 1113 1420 752 
Q 1681 391 2138 391 
Q 2594 391 2855 752 
Q 3116 1113 3116 1747 
z
" transform="scale(0.015625)"/>
       <path id="DejaVuSans-63" d="M 3122 3366 
L 3122 2828 
Q 2878 2963 2633 3030 
Q 2388 3097 2138 3097 
Q 1578 3097 1268 2742 
Q 959 2388 959 1747 
Q 959 1106 1268 751 
Q 1578 397 2138 397 
Q 2388 397 2633 464 
Q 2878 531 3122 666 
L 3122 134 
Q 2881 22 2623 -34 
Q 2366 -91 2075 -91 
Q 1284 -91 818 406 
Q 353 903 353 1747 
Q 353 2603 823 3093 
Q 1294 3584 2113 3584 
Q 2378 3584 2631 3529 
Q 2884 3475 3122 3366 
z
" transform="scale(0.015625)"/>
      </defs>
      <use xlink:href="#DejaVuSans-53"/>
      <use xlink:href="#DejaVuSans-69" x="63.476562"/>
      <use xlink:href="#DejaVuSans-7a" x="91.259766"/>
      <use xlink:href="#DejaVuSans-65" x="143.75"/>
      <use xlink:href="#DejaVuSans-20" x="205.273438"/>
      <use xlink:href="#DejaVuSans-70" x="237.060547"/>
      <use xlink:href="#DejaVuSans-65" x="300.537109"/>
      <use xlink:href="#DejaVuSans-72" x="362.060547"/>
      <use xlink:href="#DejaVuSans-20" x="403.173828"/>
      <use xlink:href="#DejaVuSans-53" x="434.960938"/>
      <use xlink:href="#DejaVuSans-70" x="498.4375"/>
      <use xlink:href="#DejaVuSans-65" x="561.914062"/>
      <use xlink:href="#DejaVuSans-63" x="623.4375"/>
      <use xlink:href="#DejaVuSans-69" x="678.417969"/>
      <use xlink:href="#DejaVuSans-65" x="706.201172"/>
      <use xlink:href="#DejaVuSans-73" x="767.724609"/>
     </g>
    </g>
   </g>
   <g id="patch_3">
    <path d="M 57.6 307.584 
L 57.6 41.472 
" style="fill: none; stroke: #000000; stroke-width: 0.8; stroke-linejoin: miter; stroke-linecap: square"/>
   </g>
   <g id="patch_4">
    <path d="M 414.72 307.584 
L 414.72 41.472 
" style="fill: none; stroke: #000000; stroke-width: 0.8; stroke-linejoin: miter; stroke-linecap: square"/>
   </g>
   <g id="patch_5">
    <path d="M 57.6 307.584 
L 414.72 307.584 
" style="fill: none; stroke: #000000; stroke-width: 0.8; stroke-linejoin: miter; stroke-linecap: square"/>
   </g>
   <g id="patch_6">
    <path d="M 57.6 41.472 
L 414.72 41.472 
" style="fill: none; stroke: #000000; stroke-width: 0.8; stroke-linejoin: miter; stroke-linecap: square"/>
   </g>
   <g id="text_17">
    <!-- Speciation -->
    <g transform="translate(204.714375 35.472) scale(0.12 -0.12)">
     <use xlink:href="#DejaVuSans-53"/>
     <use xlink:href="#DejaVuSans-70" x="63.476562"/>
     <use xlink:href="#DejaVuSans-65" x="126.953125"/>
     <use xlink:href="#DejaVuSans-63" x="188.476562"/>
     <use xlink:href="#DejaVuSans-69" x="243.457031"/>
     <use xlink:href="#DejaVuSans-61" x="271.240234"/>
     <use xlink:href="#DejaVuSans-74" x="332.519531"/>
     <use xlink:href="#DejaVuSans-69" x="371.728516"/>
     <use xlink:href="#DejaVuSans-6f" x="399.511719"/>
     <use xlink:href="#DejaVuSans-6e" x="460.693359"/>
    </g>
   </g>
  </g>
 </g>
 <defs>
  <clipPath id="p38e0f0aa6c">
   <rect x="57.6" y="41.472" width="357.12" height="266.112"/>
  </clipPath>
 </defs>
</svg>
